0, 0, Header, 1, 8, 960
1, 0, Start_track
1, 0, Title_t, "getready2rokk"
1, 0, Time_signature, 4, 2, 24, 8
1, 0, Tempo, 315789
1, 115200, Tempo, 631578
1, 122880, Tempo, 315789
1, 303360, Tempo, 631578
1, 311040, Tempo, 315789
1, 476160, Tempo, 631578
1, 476160, End_track
2, 0, Start_track
2, 0, Title_t, "PART GUITAR"
2, 0, Text_t, "[idle]"
2, 7650, Note_on_c, 0, 105, 100
2, 7650, Note_on_c, 0, 93, 100
2, 7650, Note_on_c, 0, 69, 100
2, 7650, Note_on_c, 0, 81, 100
2, 7650, Text_t, "[play]"
2, 7680, Note_on_c, 0, 97, 100
2, 7680, Note_on_c, 0, 99, 100
2, 7680, Note_on_c, 0, 85, 100
2, 7680, Note_on_c, 0, 86, 100
2, 7680, Note_on_c, 0, 74, 100
2, 7680, Note_on_c, 0, 62, 100
2, 7920, Note_on_c, 0, 97, 0
2, 7920, Note_on_c, 0, 99, 0
2, 7920, Note_on_c, 0, 85, 0
2, 7920, Note_on_c, 0, 86, 0
2, 7920, Note_on_c, 0, 74, 0
2, 7920, Note_on_c, 0, 62, 0
2, 8160, Note_on_c, 0, 97, 100
2, 8160, Note_on_c, 0, 99, 100
2, 8160, Note_on_c, 0, 85, 100
2, 8160, Note_on_c, 0, 86, 100
2, 8160, Note_on_c, 0, 74, 100
2, 8400, Note_on_c, 0, 97, 0
2, 8400, Note_on_c, 0, 99, 0
2, 8400, Note_on_c, 0, 85, 0
2, 8400, Note_on_c, 0, 86, 0
2, 8400, Note_on_c, 0, 74, 0
2, 8640, Note_on_c, 0, 99, 100
2, 8640, Note_on_c, 0, 97, 100
2, 8640, Note_on_c, 0, 86, 100
2, 8640, Note_on_c, 0, 85, 100
2, 8640, Note_on_c, 0, 74, 100
2, 8880, Note_on_c, 0, 99, 0
2, 8880, Note_on_c, 0, 97, 0
2, 8880, Note_on_c, 0, 86, 0
2, 8880, Note_on_c, 0, 85, 0
2, 8880, Note_on_c, 0, 74, 0
2, 9120, Note_on_c, 0, 97, 100
2, 9120, Note_on_c, 0, 99, 100
2, 9120, Note_on_c, 0, 85, 100
2, 9120, Note_on_c, 0, 86, 100
2, 9120, Note_on_c, 0, 74, 100
2, 9360, Note_on_c, 0, 97, 0
2, 9360, Note_on_c, 0, 99, 0
2, 9360, Note_on_c, 0, 85, 0
2, 9360, Note_on_c, 0, 86, 0
2, 9360, Note_on_c, 0, 74, 0
2, 9600, Note_on_c, 0, 96, 100
2, 9600, Note_on_c, 0, 98, 100
2, 9600, Note_on_c, 0, 84, 100
2, 9600, Note_on_c, 0, 85, 100
2, 9600, Note_on_c, 0, 72, 100
2, 9600, Note_on_c, 0, 60, 100
2, 9840, Note_on_c, 0, 96, 0
2, 9840, Note_on_c, 0, 98, 0
2, 9840, Note_on_c, 0, 84, 0
2, 9840, Note_on_c, 0, 85, 0
2, 9840, Note_on_c, 0, 72, 0
2, 9840, Note_on_c, 0, 60, 0
2, 10080, Note_on_c, 0, 96, 100
2, 10080, Note_on_c, 0, 98, 100
2, 10080, Note_on_c, 0, 84, 100
2, 10080, Note_on_c, 0, 85, 100
2, 10080, Note_on_c, 0, 72, 100
2, 10320, Note_on_c, 0, 96, 0
2, 10320, Note_on_c, 0, 98, 0
2, 10320, Note_on_c, 0, 84, 0
2, 10320, Note_on_c, 0, 85, 0
2, 10320, Note_on_c, 0, 72, 0
2, 10560, Note_on_c, 0, 98, 100
2, 10560, Note_on_c, 0, 96, 100
2, 10560, Note_on_c, 0, 85, 100
2, 10560, Note_on_c, 0, 84, 100
2, 10560, Note_on_c, 0, 72, 100
2, 10800, Note_on_c, 0, 98, 0
2, 10800, Note_on_c, 0, 96, 0
2, 10800, Note_on_c, 0, 85, 0
2, 10800, Note_on_c, 0, 84, 0
2, 10800, Note_on_c, 0, 72, 0
2, 11040, Note_on_c, 0, 96, 100
2, 11040, Note_on_c, 0, 98, 100
2, 11040, Note_on_c, 0, 84, 100
2, 11040, Note_on_c, 0, 85, 100
2, 11040, Note_on_c, 0, 72, 100
2, 11280, Note_on_c, 0, 96, 0
2, 11280, Note_on_c, 0, 98, 0
2, 11280, Note_on_c, 0, 84, 0
2, 11280, Note_on_c, 0, 85, 0
2, 11280, Note_on_c, 0, 72, 0
2, 11520, Note_on_c, 0, 97, 100
2, 11520, Note_on_c, 0, 98, 100
2, 11520, Note_on_c, 0, 84, 100
2, 11520, Note_on_c, 0, 86, 100
2, 11520, Note_on_c, 0, 73, 100
2, 11520, Note_on_c, 0, 61, 100
2, 11760, Note_on_c, 0, 97, 0
2, 11760, Note_on_c, 0, 98, 0
2, 11760, Note_on_c, 0, 84, 0
2, 11760, Note_on_c, 0, 86, 0
2, 11760, Note_on_c, 0, 73, 0
2, 11760, Note_on_c, 0, 61, 0
2, 12000, Note_on_c, 0, 97, 100
2, 12000, Note_on_c, 0, 98, 100
2, 12000, Note_on_c, 0, 84, 100
2, 12000, Note_on_c, 0, 86, 100
2, 12000, Note_on_c, 0, 73, 100
2, 12240, Note_on_c, 0, 97, 0
2, 12240, Note_on_c, 0, 98, 0
2, 12240, Note_on_c, 0, 84, 0
2, 12240, Note_on_c, 0, 86, 0
2, 12240, Note_on_c, 0, 73, 0
2, 12480, Note_on_c, 0, 98, 100
2, 12480, Note_on_c, 0, 97, 100
2, 12480, Note_on_c, 0, 86, 100
2, 12480, Note_on_c, 0, 84, 100
2, 12480, Note_on_c, 0, 73, 100
2, 12720, Note_on_c, 0, 98, 0
2, 12720, Note_on_c, 0, 97, 0
2, 12720, Note_on_c, 0, 86, 0
2, 12720, Note_on_c, 0, 84, 0
2, 12720, Note_on_c, 0, 73, 0
2, 12960, Note_on_c, 0, 97, 100
2, 12960, Note_on_c, 0, 98, 100
2, 12960, Note_on_c, 0, 84, 100
2, 12960, Note_on_c, 0, 86, 100
2, 12960, Note_on_c, 0, 73, 100
2, 13200, Note_on_c, 0, 97, 0
2, 13200, Note_on_c, 0, 98, 0
2, 13200, Note_on_c, 0, 84, 0
2, 13200, Note_on_c, 0, 86, 0
2, 13200, Note_on_c, 0, 73, 0
2, 13440, Note_on_c, 0, 100, 100
2, 13440, Note_on_c, 0, 99, 100
2, 13440, Note_on_c, 0, 87, 100
2, 13440, Note_on_c, 0, 86, 100
2, 13440, Note_on_c, 0, 74, 100
2, 13440, Note_on_c, 0, 62, 100
2, 13680, Note_on_c, 0, 100, 0
2, 13680, Note_on_c, 0, 99, 0
2, 13680, Note_on_c, 0, 87, 0
2, 13680, Note_on_c, 0, 86, 0
2, 13680, Note_on_c, 0, 74, 0
2, 13680, Note_on_c, 0, 62, 0
2, 14850, Note_on_c, 0, 105, 0
2, 14850, Note_on_c, 0, 93, 0
2, 14850, Note_on_c, 0, 69, 0
2, 14850, Note_on_c, 0, 81, 0
2, 15330, Note_on_c, 0, 106, 100
2, 15330, Note_on_c, 0, 94, 100
2, 15330, Note_on_c, 0, 70, 100
2, 15330, Note_on_c, 0, 82, 100
2, 15360, Note_on_c, 0, 97, 100
2, 15360, Note_on_c, 0, 99, 100
2, 15360, Note_on_c, 0, 85, 100
2, 15360, Note_on_c, 0, 86, 100
2, 15360, Note_on_c, 0, 74, 100
2, 15360, Note_on_c, 0, 62, 100
2, 15600, Note_on_c, 0, 97, 0
2, 15600, Note_on_c, 0, 99, 0
2, 15600, Note_on_c, 0, 85, 0
2, 15600, Note_on_c, 0, 86, 0
2, 15600, Note_on_c, 0, 74, 0
2, 15600, Note_on_c, 0, 62, 0
2, 15840, Note_on_c, 0, 97, 100
2, 15840, Note_on_c, 0, 99, 100
2, 15840, Note_on_c, 0, 85, 100
2, 15840, Note_on_c, 0, 86, 100
2, 15840, Note_on_c, 0, 74, 100
2, 16080, Note_on_c, 0, 97, 0
2, 16080, Note_on_c, 0, 99, 0
2, 16080, Note_on_c, 0, 85, 0
2, 16080, Note_on_c, 0, 86, 0
2, 16080, Note_on_c, 0, 74, 0
2, 16320, Note_on_c, 0, 99, 100
2, 16320, Note_on_c, 0, 97, 100
2, 16320, Note_on_c, 0, 86, 100
2, 16320, Note_on_c, 0, 85, 100
2, 16320, Note_on_c, 0, 74, 100
2, 16560, Note_on_c, 0, 99, 0
2, 16560, Note_on_c, 0, 97, 0
2, 16560, Note_on_c, 0, 86, 0
2, 16560, Note_on_c, 0, 85, 0
2, 16560, Note_on_c, 0, 74, 0
2, 16800, Note_on_c, 0, 97, 100
2, 16800, Note_on_c, 0, 99, 100
2, 16800, Note_on_c, 0, 85, 100
2, 16800, Note_on_c, 0, 86, 100
2, 16800, Note_on_c, 0, 74, 100
2, 17040, Note_on_c, 0, 97, 0
2, 17040, Note_on_c, 0, 99, 0
2, 17040, Note_on_c, 0, 85, 0
2, 17040, Note_on_c, 0, 86, 0
2, 17040, Note_on_c, 0, 74, 0
2, 17280, Note_on_c, 0, 96, 100
2, 17280, Note_on_c, 0, 98, 100
2, 17280, Note_on_c, 0, 84, 100
2, 17280, Note_on_c, 0, 85, 100
2, 17280, Note_on_c, 0, 72, 100
2, 17280, Note_on_c, 0, 60, 100
2, 17520, Note_on_c, 0, 96, 0
2, 17520, Note_on_c, 0, 98, 0
2, 17520, Note_on_c, 0, 84, 0
2, 17520, Note_on_c, 0, 85, 0
2, 17520, Note_on_c, 0, 72, 0
2, 17520, Note_on_c, 0, 60, 0
2, 17760, Note_on_c, 0, 96, 100
2, 17760, Note_on_c, 0, 98, 100
2, 17760, Note_on_c, 0, 84, 100
2, 17760, Note_on_c, 0, 85, 100
2, 17760, Note_on_c, 0, 72, 100
2, 18000, Note_on_c, 0, 96, 0
2, 18000, Note_on_c, 0, 98, 0
2, 18000, Note_on_c, 0, 84, 0
2, 18000, Note_on_c, 0, 85, 0
2, 18000, Note_on_c, 0, 72, 0
2, 18240, Note_on_c, 0, 98, 100
2, 18240, Note_on_c, 0, 96, 100
2, 18240, Note_on_c, 0, 85, 100
2, 18240, Note_on_c, 0, 84, 100
2, 18240, Note_on_c, 0, 72, 100
2, 18480, Note_on_c, 0, 98, 0
2, 18480, Note_on_c, 0, 96, 0
2, 18480, Note_on_c, 0, 85, 0
2, 18480, Note_on_c, 0, 84, 0
2, 18480, Note_on_c, 0, 72, 0
2, 18720, Note_on_c, 0, 96, 100
2, 18720, Note_on_c, 0, 98, 100
2, 18720, Note_on_c, 0, 84, 100
2, 18720, Note_on_c, 0, 85, 100
2, 18720, Note_on_c, 0, 72, 100
2, 18960, Note_on_c, 0, 96, 0
2, 18960, Note_on_c, 0, 98, 0
2, 18960, Note_on_c, 0, 84, 0
2, 18960, Note_on_c, 0, 85, 0
2, 18960, Note_on_c, 0, 72, 0
2, 19200, Note_on_c, 0, 97, 100
2, 19200, Note_on_c, 0, 98, 100
2, 19200, Note_on_c, 0, 84, 100
2, 19200, Note_on_c, 0, 86, 100
2, 19200, Note_on_c, 0, 73, 100
2, 19200, Note_on_c, 0, 61, 100
2, 19440, Note_on_c, 0, 97, 0
2, 19440, Note_on_c, 0, 98, 0
2, 19440, Note_on_c, 0, 84, 0
2, 19440, Note_on_c, 0, 86, 0
2, 19440, Note_on_c, 0, 73, 0
2, 19440, Note_on_c, 0, 61, 0
2, 19680, Note_on_c, 0, 97, 100
2, 19680, Note_on_c, 0, 98, 100
2, 19680, Note_on_c, 0, 84, 100
2, 19680, Note_on_c, 0, 86, 100
2, 19680, Note_on_c, 0, 73, 100
2, 19920, Note_on_c, 0, 97, 0
2, 19920, Note_on_c, 0, 98, 0
2, 19920, Note_on_c, 0, 84, 0
2, 19920, Note_on_c, 0, 86, 0
2, 19920, Note_on_c, 0, 73, 0
2, 20160, Note_on_c, 0, 98, 100
2, 20160, Note_on_c, 0, 97, 100
2, 20160, Note_on_c, 0, 86, 100
2, 20160, Note_on_c, 0, 84, 100
2, 20160, Note_on_c, 0, 73, 100
2, 20400, Note_on_c, 0, 98, 0
2, 20400, Note_on_c, 0, 97, 0
2, 20400, Note_on_c, 0, 86, 0
2, 20400, Note_on_c, 0, 84, 0
2, 20400, Note_on_c, 0, 73, 0
2, 20640, Note_on_c, 0, 97, 100
2, 20640, Note_on_c, 0, 98, 100
2, 20640, Note_on_c, 0, 84, 100
2, 20640, Note_on_c, 0, 86, 100
2, 20640, Note_on_c, 0, 73, 100
2, 20880, Note_on_c, 0, 97, 0
2, 20880, Note_on_c, 0, 98, 0
2, 20880, Note_on_c, 0, 84, 0
2, 20880, Note_on_c, 0, 86, 0
2, 20880, Note_on_c, 0, 73, 0
2, 21120, Note_on_c, 0, 100, 100
2, 21120, Note_on_c, 0, 99, 100
2, 21120, Note_on_c, 0, 87, 100
2, 21120, Note_on_c, 0, 86, 100
2, 21120, Note_on_c, 0, 74, 100
2, 21120, Note_on_c, 0, 62, 100
2, 21360, Note_on_c, 0, 100, 0
2, 21360, Note_on_c, 0, 99, 0
2, 21360, Note_on_c, 0, 87, 0
2, 21360, Note_on_c, 0, 86, 0
2, 21360, Note_on_c, 0, 74, 0
2, 21360, Note_on_c, 0, 62, 0
2, 22050, Note_on_c, 0, 106, 0
2, 22050, Note_on_c, 0, 94, 0
2, 22050, Note_on_c, 0, 70, 0
2, 22050, Note_on_c, 0, 82, 0
2, 23010, Note_on_c, 0, 105, 100
2, 23010, Note_on_c, 0, 93, 100
2, 23010, Note_on_c, 0, 69, 100
2, 23010, Note_on_c, 0, 81, 100
2, 23040, Note_on_c, 0, 97, 100
2, 23040, Note_on_c, 0, 99, 100
2, 23040, Note_on_c, 0, 85, 100
2, 23040, Note_on_c, 0, 86, 100
2, 23040, Note_on_c, 0, 74, 100
2, 23040, Note_on_c, 0, 62, 100
2, 23280, Note_on_c, 0, 97, 0
2, 23280, Note_on_c, 0, 99, 0
2, 23280, Note_on_c, 0, 85, 0
2, 23280, Note_on_c, 0, 86, 0
2, 23280, Note_on_c, 0, 74, 0
2, 23280, Note_on_c, 0, 62, 0
2, 23520, Note_on_c, 0, 97, 100
2, 23520, Note_on_c, 0, 99, 100
2, 23520, Note_on_c, 0, 85, 100
2, 23520, Note_on_c, 0, 86, 100
2, 23520, Note_on_c, 0, 74, 100
2, 23760, Note_on_c, 0, 97, 0
2, 23760, Note_on_c, 0, 99, 0
2, 23760, Note_on_c, 0, 85, 0
2, 23760, Note_on_c, 0, 86, 0
2, 23760, Note_on_c, 0, 74, 0
2, 24000, Note_on_c, 0, 99, 100
2, 24000, Note_on_c, 0, 97, 100
2, 24000, Note_on_c, 0, 86, 100
2, 24000, Note_on_c, 0, 85, 100
2, 24000, Note_on_c, 0, 74, 100
2, 24240, Note_on_c, 0, 99, 0
2, 24240, Note_on_c, 0, 97, 0
2, 24240, Note_on_c, 0, 86, 0
2, 24240, Note_on_c, 0, 85, 0
2, 24240, Note_on_c, 0, 74, 0
2, 24480, Note_on_c, 0, 97, 100
2, 24480, Note_on_c, 0, 99, 100
2, 24480, Note_on_c, 0, 85, 100
2, 24480, Note_on_c, 0, 86, 100
2, 24480, Note_on_c, 0, 74, 100
2, 24720, Note_on_c, 0, 97, 0
2, 24720, Note_on_c, 0, 99, 0
2, 24720, Note_on_c, 0, 85, 0
2, 24720, Note_on_c, 0, 86, 0
2, 24720, Note_on_c, 0, 74, 0
2, 24960, Note_on_c, 0, 96, 100
2, 24960, Note_on_c, 0, 98, 100
2, 24960, Note_on_c, 0, 84, 100
2, 24960, Note_on_c, 0, 85, 100
2, 24960, Note_on_c, 0, 72, 100
2, 24960, Note_on_c, 0, 60, 100
2, 25200, Note_on_c, 0, 96, 0
2, 25200, Note_on_c, 0, 98, 0
2, 25200, Note_on_c, 0, 84, 0
2, 25200, Note_on_c, 0, 85, 0
2, 25200, Note_on_c, 0, 72, 0
2, 25200, Note_on_c, 0, 60, 0
2, 25440, Note_on_c, 0, 96, 100
2, 25440, Note_on_c, 0, 98, 100
2, 25440, Note_on_c, 0, 84, 100
2, 25440, Note_on_c, 0, 85, 100
2, 25440, Note_on_c, 0, 72, 100
2, 25680, Note_on_c, 0, 96, 0
2, 25680, Note_on_c, 0, 98, 0
2, 25680, Note_on_c, 0, 84, 0
2, 25680, Note_on_c, 0, 85, 0
2, 25680, Note_on_c, 0, 72, 0
2, 25920, Note_on_c, 0, 98, 100
2, 25920, Note_on_c, 0, 96, 100
2, 25920, Note_on_c, 0, 85, 100
2, 25920, Note_on_c, 0, 84, 100
2, 25920, Note_on_c, 0, 72, 100
2, 26160, Note_on_c, 0, 98, 0
2, 26160, Note_on_c, 0, 96, 0
2, 26160, Note_on_c, 0, 85, 0
2, 26160, Note_on_c, 0, 84, 0
2, 26160, Note_on_c, 0, 72, 0
2, 26400, Note_on_c, 0, 96, 100
2, 26400, Note_on_c, 0, 98, 100
2, 26400, Note_on_c, 0, 84, 100
2, 26400, Note_on_c, 0, 85, 100
2, 26400, Note_on_c, 0, 72, 100
2, 26640, Note_on_c, 0, 96, 0
2, 26640, Note_on_c, 0, 98, 0
2, 26640, Note_on_c, 0, 84, 0
2, 26640, Note_on_c, 0, 85, 0
2, 26640, Note_on_c, 0, 72, 0
2, 26880, Note_on_c, 0, 97, 100
2, 26880, Note_on_c, 0, 98, 100
2, 26880, Note_on_c, 0, 84, 100
2, 26880, Note_on_c, 0, 86, 100
2, 26880, Note_on_c, 0, 73, 100
2, 26880, Note_on_c, 0, 61, 100
2, 27120, Note_on_c, 0, 97, 0
2, 27120, Note_on_c, 0, 98, 0
2, 27120, Note_on_c, 0, 84, 0
2, 27120, Note_on_c, 0, 86, 0
2, 27120, Note_on_c, 0, 73, 0
2, 27120, Note_on_c, 0, 61, 0
2, 27360, Note_on_c, 0, 97, 100
2, 27360, Note_on_c, 0, 98, 100
2, 27360, Note_on_c, 0, 84, 100
2, 27360, Note_on_c, 0, 86, 100
2, 27360, Note_on_c, 0, 73, 100
2, 27600, Note_on_c, 0, 97, 0
2, 27600, Note_on_c, 0, 98, 0
2, 27600, Note_on_c, 0, 84, 0
2, 27600, Note_on_c, 0, 86, 0
2, 27600, Note_on_c, 0, 73, 0
2, 27840, Note_on_c, 0, 98, 100
2, 27840, Note_on_c, 0, 97, 100
2, 27840, Note_on_c, 0, 86, 100
2, 27840, Note_on_c, 0, 84, 100
2, 27840, Note_on_c, 0, 73, 100
2, 28080, Note_on_c, 0, 98, 0
2, 28080, Note_on_c, 0, 97, 0
2, 28080, Note_on_c, 0, 86, 0
2, 28080, Note_on_c, 0, 84, 0
2, 28080, Note_on_c, 0, 73, 0
2, 28320, Note_on_c, 0, 97, 100
2, 28320, Note_on_c, 0, 98, 100
2, 28320, Note_on_c, 0, 84, 100
2, 28320, Note_on_c, 0, 86, 100
2, 28320, Note_on_c, 0, 73, 100
2, 28560, Note_on_c, 0, 97, 0
2, 28560, Note_on_c, 0, 98, 0
2, 28560, Note_on_c, 0, 84, 0
2, 28560, Note_on_c, 0, 86, 0
2, 28560, Note_on_c, 0, 73, 0
2, 28800, Note_on_c, 0, 100, 100
2, 28800, Note_on_c, 0, 99, 100
2, 28800, Note_on_c, 0, 87, 100
2, 28800, Note_on_c, 0, 86, 100
2, 28800, Note_on_c, 0, 74, 100
2, 28800, Note_on_c, 0, 62, 100
2, 29040, Note_on_c, 0, 100, 0
2, 29040, Note_on_c, 0, 99, 0
2, 29040, Note_on_c, 0, 87, 0
2, 29040, Note_on_c, 0, 86, 0
2, 29040, Note_on_c, 0, 74, 0
2, 29040, Note_on_c, 0, 62, 0
2, 29490, Note_on_c, 0, 105, 0
2, 29490, Note_on_c, 0, 93, 0
2, 29490, Note_on_c, 0, 69, 0
2, 29490, Note_on_c, 0, 81, 0
2, 30690, Note_on_c, 0, 106, 100
2, 30690, Note_on_c, 0, 94, 100
2, 30690, Note_on_c, 0, 70, 100
2, 30690, Note_on_c, 0, 82, 100
2, 30720, Note_on_c, 0, 97, 100
2, 30720, Note_on_c, 0, 99, 100
2, 30720, Note_on_c, 0, 85, 100
2, 30720, Note_on_c, 0, 86, 100
2, 30720, Note_on_c, 0, 74, 100
2, 30720, Note_on_c, 0, 62, 100
2, 30960, Note_on_c, 0, 97, 0
2, 30960, Note_on_c, 0, 99, 0
2, 30960, Note_on_c, 0, 85, 0
2, 30960, Note_on_c, 0, 86, 0
2, 30960, Note_on_c, 0, 74, 0
2, 30960, Note_on_c, 0, 62, 0
2, 31200, Note_on_c, 0, 97, 100
2, 31200, Note_on_c, 0, 99, 100
2, 31200, Note_on_c, 0, 85, 100
2, 31200, Note_on_c, 0, 86, 100
2, 31200, Note_on_c, 0, 74, 100
2, 31440, Note_on_c, 0, 97, 0
2, 31440, Note_on_c, 0, 99, 0
2, 31440, Note_on_c, 0, 85, 0
2, 31440, Note_on_c, 0, 86, 0
2, 31440, Note_on_c, 0, 74, 0
2, 31680, Note_on_c, 0, 99, 100
2, 31680, Note_on_c, 0, 97, 100
2, 31680, Note_on_c, 0, 86, 100
2, 31680, Note_on_c, 0, 85, 100
2, 31680, Note_on_c, 0, 74, 100
2, 31920, Note_on_c, 0, 99, 0
2, 31920, Note_on_c, 0, 97, 0
2, 31920, Note_on_c, 0, 86, 0
2, 31920, Note_on_c, 0, 85, 0
2, 31920, Note_on_c, 0, 74, 0
2, 32160, Note_on_c, 0, 97, 100
2, 32160, Note_on_c, 0, 99, 100
2, 32160, Note_on_c, 0, 85, 100
2, 32160, Note_on_c, 0, 86, 100
2, 32160, Note_on_c, 0, 74, 100
2, 32400, Note_on_c, 0, 97, 0
2, 32400, Note_on_c, 0, 99, 0
2, 32400, Note_on_c, 0, 85, 0
2, 32400, Note_on_c, 0, 86, 0
2, 32400, Note_on_c, 0, 74, 0
2, 32640, Note_on_c, 0, 96, 100
2, 32640, Note_on_c, 0, 98, 100
2, 32640, Note_on_c, 0, 84, 100
2, 32640, Note_on_c, 0, 85, 100
2, 32640, Note_on_c, 0, 72, 100
2, 32640, Note_on_c, 0, 60, 100
2, 32880, Note_on_c, 0, 96, 0
2, 32880, Note_on_c, 0, 98, 0
2, 32880, Note_on_c, 0, 84, 0
2, 32880, Note_on_c, 0, 85, 0
2, 32880, Note_on_c, 0, 72, 0
2, 32880, Note_on_c, 0, 60, 0
2, 33120, Note_on_c, 0, 96, 100
2, 33120, Note_on_c, 0, 98, 100
2, 33120, Note_on_c, 0, 84, 100
2, 33120, Note_on_c, 0, 85, 100
2, 33120, Note_on_c, 0, 72, 100
2, 33360, Note_on_c, 0, 96, 0
2, 33360, Note_on_c, 0, 98, 0
2, 33360, Note_on_c, 0, 84, 0
2, 33360, Note_on_c, 0, 85, 0
2, 33360, Note_on_c, 0, 72, 0
2, 33600, Note_on_c, 0, 98, 100
2, 33600, Note_on_c, 0, 96, 100
2, 33600, Note_on_c, 0, 85, 100
2, 33600, Note_on_c, 0, 84, 100
2, 33600, Note_on_c, 0, 72, 100
2, 33840, Note_on_c, 0, 98, 0
2, 33840, Note_on_c, 0, 96, 0
2, 33840, Note_on_c, 0, 85, 0
2, 33840, Note_on_c, 0, 84, 0
2, 33840, Note_on_c, 0, 72, 0
2, 34080, Note_on_c, 0, 96, 100
2, 34080, Note_on_c, 0, 98, 100
2, 34080, Note_on_c, 0, 84, 100
2, 34080, Note_on_c, 0, 85, 100
2, 34080, Note_on_c, 0, 72, 100
2, 34320, Note_on_c, 0, 96, 0
2, 34320, Note_on_c, 0, 98, 0
2, 34320, Note_on_c, 0, 84, 0
2, 34320, Note_on_c, 0, 85, 0
2, 34320, Note_on_c, 0, 72, 0
2, 34560, Note_on_c, 0, 97, 100
2, 34560, Note_on_c, 0, 98, 100
2, 34560, Note_on_c, 0, 84, 100
2, 34560, Note_on_c, 0, 86, 100
2, 34560, Note_on_c, 0, 73, 100
2, 34560, Note_on_c, 0, 61, 100
2, 34800, Note_on_c, 0, 97, 0
2, 34800, Note_on_c, 0, 98, 0
2, 34800, Note_on_c, 0, 84, 0
2, 34800, Note_on_c, 0, 86, 0
2, 34800, Note_on_c, 0, 73, 0
2, 34800, Note_on_c, 0, 61, 0
2, 35040, Note_on_c, 0, 97, 100
2, 35040, Note_on_c, 0, 98, 100
2, 35040, Note_on_c, 0, 84, 100
2, 35040, Note_on_c, 0, 86, 100
2, 35040, Note_on_c, 0, 73, 100
2, 35280, Note_on_c, 0, 97, 0
2, 35280, Note_on_c, 0, 98, 0
2, 35280, Note_on_c, 0, 84, 0
2, 35280, Note_on_c, 0, 86, 0
2, 35280, Note_on_c, 0, 73, 0
2, 35520, Note_on_c, 0, 98, 100
2, 35520, Note_on_c, 0, 97, 100
2, 35520, Note_on_c, 0, 86, 100
2, 35520, Note_on_c, 0, 84, 100
2, 35520, Note_on_c, 0, 73, 100
2, 35760, Note_on_c, 0, 98, 0
2, 35760, Note_on_c, 0, 97, 0
2, 35760, Note_on_c, 0, 86, 0
2, 35760, Note_on_c, 0, 84, 0
2, 35760, Note_on_c, 0, 73, 0
2, 36000, Note_on_c, 0, 97, 100
2, 36000, Note_on_c, 0, 98, 100
2, 36000, Note_on_c, 0, 84, 100
2, 36000, Note_on_c, 0, 86, 100
2, 36000, Note_on_c, 0, 73, 100
2, 36240, Note_on_c, 0, 97, 0
2, 36240, Note_on_c, 0, 98, 0
2, 36240, Note_on_c, 0, 84, 0
2, 36240, Note_on_c, 0, 86, 0
2, 36240, Note_on_c, 0, 73, 0
2, 36480, Note_on_c, 0, 100, 100
2, 36480, Note_on_c, 0, 99, 100
2, 36480, Note_on_c, 0, 87, 100
2, 36480, Note_on_c, 0, 86, 100
2, 36480, Note_on_c, 0, 74, 100
2, 36480, Note_on_c, 0, 62, 100
2, 37920, Note_on_c, 0, 100, 0
2, 37920, Note_on_c, 0, 99, 0
2, 38160, Note_on_c, 0, 87, 0
2, 38160, Note_on_c, 0, 86, 0
2, 38160, Note_on_c, 0, 74, 0
2, 38160, Note_on_c, 0, 62, 0
2, 38370, Note_on_c, 0, 106, 0
2, 38370, Note_on_c, 0, 94, 0
2, 38370, Note_on_c, 0, 70, 0
2, 38370, Note_on_c, 0, 82, 0
2, 38370, Note_on_c, 0, 105, 100
2, 38370, Note_on_c, 0, 93, 100
2, 38370, Note_on_c, 0, 69, 100
2, 38370, Note_on_c, 0, 81, 100
2, 38400, Note_on_c, 0, 97, 100
2, 38400, Note_on_c, 0, 99, 100
2, 38400, Note_on_c, 0, 85, 100
2, 38400, Note_on_c, 0, 86, 100
2, 38400, Note_on_c, 0, 74, 100
2, 38400, Note_on_c, 0, 62, 100
2, 38640, Note_on_c, 0, 97, 0
2, 38640, Note_on_c, 0, 99, 0
2, 38640, Note_on_c, 0, 85, 0
2, 38640, Note_on_c, 0, 86, 0
2, 38640, Note_on_c, 0, 74, 0
2, 38640, Note_on_c, 0, 62, 0
2, 38880, Note_on_c, 0, 97, 100
2, 38880, Note_on_c, 0, 99, 100
2, 38880, Note_on_c, 0, 85, 100
2, 38880, Note_on_c, 0, 86, 100
2, 38880, Note_on_c, 0, 74, 100
2, 38880, Note_on_c, 0, 108, 100
2, 39120, Note_on_c, 0, 97, 0
2, 39120, Note_on_c, 0, 99, 0
2, 39120, Note_on_c, 0, 85, 0
2, 39120, Note_on_c, 0, 86, 0
2, 39120, Note_on_c, 0, 74, 0
2, 39120, Note_on_c, 0, 108, 0
2, 39360, Note_on_c, 0, 99, 100
2, 39360, Note_on_c, 0, 97, 100
2, 39360, Note_on_c, 0, 86, 100
2, 39360, Note_on_c, 0, 85, 100
2, 39360, Note_on_c, 0, 74, 100
2, 39360, Note_on_c, 0, 108, 100
2, 39600, Note_on_c, 0, 99, 0
2, 39600, Note_on_c, 0, 97, 0
2, 39600, Note_on_c, 0, 86, 0
2, 39600, Note_on_c, 0, 85, 0
2, 39600, Note_on_c, 0, 74, 0
2, 39600, Note_on_c, 0, 108, 0
2, 39840, Note_on_c, 0, 97, 100
2, 39840, Note_on_c, 0, 99, 100
2, 39840, Note_on_c, 0, 85, 100
2, 39840, Note_on_c, 0, 86, 100
2, 39840, Note_on_c, 0, 74, 100
2, 39840, Note_on_c, 0, 108, 100
2, 40080, Note_on_c, 0, 97, 0
2, 40080, Note_on_c, 0, 99, 0
2, 40080, Note_on_c, 0, 85, 0
2, 40080, Note_on_c, 0, 86, 0
2, 40080, Note_on_c, 0, 74, 0
2, 40080, Note_on_c, 0, 108, 0
2, 40320, Note_on_c, 0, 96, 100
2, 40320, Note_on_c, 0, 98, 100
2, 40320, Note_on_c, 0, 84, 100
2, 40320, Note_on_c, 0, 85, 100
2, 40320, Note_on_c, 0, 72, 100
2, 40320, Note_on_c, 0, 60, 100
2, 40320, Note_on_c, 0, 108, 100
2, 40560, Note_on_c, 0, 96, 0
2, 40560, Note_on_c, 0, 98, 0
2, 40560, Note_on_c, 0, 84, 0
2, 40560, Note_on_c, 0, 85, 0
2, 40560, Note_on_c, 0, 72, 0
2, 40560, Note_on_c, 0, 60, 0
2, 40800, Note_on_c, 0, 96, 100
2, 40800, Note_on_c, 0, 98, 100
2, 40800, Note_on_c, 0, 84, 100
2, 40800, Note_on_c, 0, 85, 100
2, 40800, Note_on_c, 0, 72, 100
2, 41040, Note_on_c, 0, 108, 0
2, 41040, Note_on_c, 0, 96, 0
2, 41040, Note_on_c, 0, 98, 0
2, 41040, Note_on_c, 0, 84, 0
2, 41040, Note_on_c, 0, 85, 0
2, 41040, Note_on_c, 0, 72, 0
2, 41280, Note_on_c, 0, 98, 100
2, 41280, Note_on_c, 0, 96, 100
2, 41280, Note_on_c, 0, 85, 100
2, 41280, Note_on_c, 0, 84, 100
2, 41280, Note_on_c, 0, 72, 100
2, 41520, Note_on_c, 0, 98, 0
2, 41520, Note_on_c, 0, 96, 0
2, 41520, Note_on_c, 0, 85, 0
2, 41520, Note_on_c, 0, 84, 0
2, 41520, Note_on_c, 0, 72, 0
2, 41760, Note_on_c, 0, 96, 100
2, 41760, Note_on_c, 0, 98, 100
2, 41760, Note_on_c, 0, 84, 100
2, 41760, Note_on_c, 0, 85, 100
2, 41760, Note_on_c, 0, 72, 100
2, 42000, Note_on_c, 0, 96, 0
2, 42000, Note_on_c, 0, 98, 0
2, 42000, Note_on_c, 0, 84, 0
2, 42000, Note_on_c, 0, 85, 0
2, 42000, Note_on_c, 0, 72, 0
2, 42240, Note_on_c, 0, 97, 100
2, 42240, Note_on_c, 0, 98, 100
2, 42240, Note_on_c, 0, 84, 100
2, 42240, Note_on_c, 0, 86, 100
2, 42240, Note_on_c, 0, 73, 100
2, 42240, Note_on_c, 0, 61, 100
2, 42480, Note_on_c, 0, 97, 0
2, 42480, Note_on_c, 0, 98, 0
2, 42480, Note_on_c, 0, 84, 0
2, 42480, Note_on_c, 0, 86, 0
2, 42480, Note_on_c, 0, 73, 0
2, 42480, Note_on_c, 0, 61, 0
2, 42720, Note_on_c, 0, 97, 100
2, 42720, Note_on_c, 0, 98, 100
2, 42720, Note_on_c, 0, 84, 100
2, 42720, Note_on_c, 0, 86, 100
2, 42720, Note_on_c, 0, 73, 100
2, 42720, Note_on_c, 0, 108, 100
2, 42960, Note_on_c, 0, 97, 0
2, 42960, Note_on_c, 0, 98, 0
2, 42960, Note_on_c, 0, 84, 0
2, 42960, Note_on_c, 0, 86, 0
2, 42960, Note_on_c, 0, 73, 0
2, 42960, Note_on_c, 0, 108, 0
2, 43200, Note_on_c, 0, 98, 100
2, 43200, Note_on_c, 0, 97, 100
2, 43200, Note_on_c, 0, 86, 100
2, 43200, Note_on_c, 0, 84, 100
2, 43200, Note_on_c, 0, 73, 100
2, 43200, Note_on_c, 0, 108, 100
2, 43440, Note_on_c, 0, 98, 0
2, 43440, Note_on_c, 0, 97, 0
2, 43440, Note_on_c, 0, 86, 0
2, 43440, Note_on_c, 0, 84, 0
2, 43440, Note_on_c, 0, 73, 0
2, 43440, Note_on_c, 0, 108, 0
2, 43680, Note_on_c, 0, 97, 100
2, 43680, Note_on_c, 0, 98, 100
2, 43680, Note_on_c, 0, 84, 100
2, 43680, Note_on_c, 0, 86, 100
2, 43680, Note_on_c, 0, 73, 100
2, 43680, Note_on_c, 0, 108, 100
2, 43920, Note_on_c, 0, 97, 0
2, 43920, Note_on_c, 0, 98, 0
2, 43920, Note_on_c, 0, 84, 0
2, 43920, Note_on_c, 0, 86, 0
2, 43920, Note_on_c, 0, 73, 0
2, 43920, Note_on_c, 0, 108, 0
2, 44160, Note_on_c, 0, 100, 100
2, 44160, Note_on_c, 0, 99, 100
2, 44160, Note_on_c, 0, 87, 100
2, 44160, Note_on_c, 0, 86, 100
2, 44160, Note_on_c, 0, 74, 100
2, 44160, Note_on_c, 0, 62, 100
2, 44160, Note_on_c, 0, 108, 100
2, 44400, Note_on_c, 0, 100, 0
2, 44400, Note_on_c, 0, 99, 0
2, 44400, Note_on_c, 0, 87, 0
2, 44400, Note_on_c, 0, 86, 0
2, 44400, Note_on_c, 0, 74, 0
2, 44400, Note_on_c, 0, 62, 0
2, 44400, Note_on_c, 0, 108, 0
2, 44610, Note_on_c, 0, 106, 100
2, 44610, Note_on_c, 0, 94, 100
2, 44610, Note_on_c, 0, 70, 100
2, 44610, Note_on_c, 0, 82, 100
2, 44640, Note_on_c, 0, 108, 100
2, 45090, Note_on_c, 0, 91, 100
2, 45090, Note_on_c, 0, 79, 100
2, 45090, Note_on_c, 0, 67, 100
2, 45090, Note_on_c, 0, 103, 100
2, 45120, Note_on_c, 0, 108, 0
2, 45120, Note_on_c, 0, 99, 100
2, 45120, Note_on_c, 0, 98, 100
2, 45120, Note_on_c, 0, 88, 100
2, 45120, Note_on_c, 0, 73, 100
2, 45120, Note_on_c, 0, 61, 100
2, 45360, Note_on_c, 0, 99, 0
2, 45360, Note_on_c, 0, 98, 0
2, 45360, Note_on_c, 0, 88, 0
2, 45360, Note_on_c, 0, 73, 0
2, 45360, Note_on_c, 0, 61, 0
2, 45570, Note_on_c, 0, 91, 0
2, 45570, Note_on_c, 0, 79, 0
2, 45570, Note_on_c, 0, 67, 0
2, 45570, Note_on_c, 0, 103, 0
2, 46050, Note_on_c, 0, 105, 0
2, 46050, Note_on_c, 0, 93, 0
2, 46050, Note_on_c, 0, 69, 0
2, 46050, Note_on_c, 0, 81, 0
2, 46080, Note_on_c, 0, 97, 100
2, 46080, Note_on_c, 0, 99, 100
2, 46080, Note_on_c, 0, 85, 100
2, 46080, Note_on_c, 0, 86, 100
2, 46080, Note_on_c, 0, 74, 100
2, 46080, Note_on_c, 0, 62, 100
2, 46320, Note_on_c, 0, 97, 0
2, 46320, Note_on_c, 0, 99, 0
2, 46320, Note_on_c, 0, 85, 0
2, 46320, Note_on_c, 0, 86, 0
2, 46320, Note_on_c, 0, 74, 0
2, 46320, Note_on_c, 0, 62, 0
2, 46560, Note_on_c, 0, 97, 100
2, 46560, Note_on_c, 0, 99, 100
2, 46560, Note_on_c, 0, 85, 100
2, 46560, Note_on_c, 0, 86, 100
2, 46560, Note_on_c, 0, 74, 100
2, 46560, Note_on_c, 0, 108, 100
2, 46800, Note_on_c, 0, 97, 0
2, 46800, Note_on_c, 0, 99, 0
2, 46800, Note_on_c, 0, 85, 0
2, 46800, Note_on_c, 0, 86, 0
2, 46800, Note_on_c, 0, 74, 0
2, 46800, Note_on_c, 0, 108, 0
2, 47040, Note_on_c, 0, 99, 100
2, 47040, Note_on_c, 0, 97, 100
2, 47040, Note_on_c, 0, 86, 100
2, 47040, Note_on_c, 0, 85, 100
2, 47040, Note_on_c, 0, 74, 100
2, 47040, Note_on_c, 0, 108, 100
2, 47280, Note_on_c, 0, 99, 0
2, 47280, Note_on_c, 0, 97, 0
2, 47280, Note_on_c, 0, 86, 0
2, 47280, Note_on_c, 0, 85, 0
2, 47280, Note_on_c, 0, 74, 0
2, 47280, Note_on_c, 0, 108, 0
2, 47520, Note_on_c, 0, 97, 100
2, 47520, Note_on_c, 0, 99, 100
2, 47520, Note_on_c, 0, 85, 100
2, 47520, Note_on_c, 0, 86, 100
2, 47520, Note_on_c, 0, 74, 100
2, 47520, Note_on_c, 0, 108, 100
2, 47760, Note_on_c, 0, 97, 0
2, 47760, Note_on_c, 0, 99, 0
2, 47760, Note_on_c, 0, 85, 0
2, 47760, Note_on_c, 0, 86, 0
2, 47760, Note_on_c, 0, 74, 0
2, 47760, Note_on_c, 0, 108, 0
2, 48000, Note_on_c, 0, 96, 100
2, 48000, Note_on_c, 0, 98, 100
2, 48000, Note_on_c, 0, 84, 100
2, 48000, Note_on_c, 0, 85, 100
2, 48000, Note_on_c, 0, 72, 100
2, 48000, Note_on_c, 0, 60, 100
2, 48000, Note_on_c, 0, 108, 100
2, 48240, Note_on_c, 0, 96, 0
2, 48240, Note_on_c, 0, 98, 0
2, 48240, Note_on_c, 0, 84, 0
2, 48240, Note_on_c, 0, 85, 0
2, 48240, Note_on_c, 0, 72, 0
2, 48240, Note_on_c, 0, 60, 0
2, 48480, Note_on_c, 0, 108, 0
2, 48480, Note_on_c, 0, 96, 100
2, 48480, Note_on_c, 0, 98, 100
2, 48480, Note_on_c, 0, 84, 100
2, 48480, Note_on_c, 0, 85, 100
2, 48480, Note_on_c, 0, 72, 100
2, 48720, Note_on_c, 0, 96, 0
2, 48720, Note_on_c, 0, 98, 0
2, 48720, Note_on_c, 0, 84, 0
2, 48720, Note_on_c, 0, 85, 0
2, 48720, Note_on_c, 0, 72, 0
2, 48960, Note_on_c, 0, 98, 100
2, 48960, Note_on_c, 0, 96, 100
2, 48960, Note_on_c, 0, 85, 100
2, 48960, Note_on_c, 0, 84, 100
2, 48960, Note_on_c, 0, 72, 100
2, 49200, Note_on_c, 0, 98, 0
2, 49200, Note_on_c, 0, 96, 0
2, 49200, Note_on_c, 0, 85, 0
2, 49200, Note_on_c, 0, 84, 0
2, 49200, Note_on_c, 0, 72, 0
2, 49440, Note_on_c, 0, 96, 100
2, 49440, Note_on_c, 0, 98, 100
2, 49440, Note_on_c, 0, 84, 100
2, 49440, Note_on_c, 0, 85, 100
2, 49440, Note_on_c, 0, 72, 100
2, 49680, Note_on_c, 0, 96, 0
2, 49680, Note_on_c, 0, 98, 0
2, 49680, Note_on_c, 0, 84, 0
2, 49680, Note_on_c, 0, 85, 0
2, 49680, Note_on_c, 0, 72, 0
2, 49920, Note_on_c, 0, 97, 100
2, 49920, Note_on_c, 0, 98, 100
2, 49920, Note_on_c, 0, 84, 100
2, 49920, Note_on_c, 0, 86, 100
2, 49920, Note_on_c, 0, 73, 100
2, 49920, Note_on_c, 0, 61, 100
2, 50160, Note_on_c, 0, 97, 0
2, 50160, Note_on_c, 0, 98, 0
2, 50160, Note_on_c, 0, 84, 0
2, 50160, Note_on_c, 0, 86, 0
2, 50160, Note_on_c, 0, 73, 0
2, 50160, Note_on_c, 0, 61, 0
2, 50400, Note_on_c, 0, 97, 100
2, 50400, Note_on_c, 0, 98, 100
2, 50400, Note_on_c, 0, 84, 100
2, 50400, Note_on_c, 0, 86, 100
2, 50400, Note_on_c, 0, 73, 100
2, 50640, Note_on_c, 0, 97, 0
2, 50640, Note_on_c, 0, 98, 0
2, 50640, Note_on_c, 0, 84, 0
2, 50640, Note_on_c, 0, 86, 0
2, 50640, Note_on_c, 0, 73, 0
2, 50880, Note_on_c, 0, 98, 100
2, 50880, Note_on_c, 0, 97, 100
2, 50880, Note_on_c, 0, 86, 100
2, 50880, Note_on_c, 0, 84, 100
2, 50880, Note_on_c, 0, 73, 100
2, 50880, Note_on_c, 0, 108, 100
2, 51120, Note_on_c, 0, 98, 0
2, 51120, Note_on_c, 0, 97, 0
2, 51120, Note_on_c, 0, 86, 0
2, 51120, Note_on_c, 0, 84, 0
2, 51120, Note_on_c, 0, 73, 0
2, 51120, Note_on_c, 0, 108, 0
2, 51360, Note_on_c, 0, 97, 100
2, 51360, Note_on_c, 0, 98, 100
2, 51360, Note_on_c, 0, 84, 100
2, 51360, Note_on_c, 0, 86, 100
2, 51360, Note_on_c, 0, 73, 100
2, 51360, Note_on_c, 0, 108, 100
2, 51600, Note_on_c, 0, 97, 0
2, 51600, Note_on_c, 0, 98, 0
2, 51600, Note_on_c, 0, 84, 0
2, 51600, Note_on_c, 0, 86, 0
2, 51600, Note_on_c, 0, 73, 0
2, 51600, Note_on_c, 0, 108, 0
2, 51810, Note_on_c, 0, 105, 100
2, 51810, Note_on_c, 0, 93, 100
2, 51810, Note_on_c, 0, 69, 100
2, 51810, Note_on_c, 0, 81, 100
2, 51840, Note_on_c, 0, 100, 100
2, 51840, Note_on_c, 0, 99, 100
2, 51840, Note_on_c, 0, 87, 100
2, 51840, Note_on_c, 0, 86, 100
2, 51840, Note_on_c, 0, 74, 100
2, 51840, Note_on_c, 0, 62, 100
2, 51840, Note_on_c, 0, 108, 100
2, 52080, Note_on_c, 0, 100, 0
2, 52080, Note_on_c, 0, 99, 0
2, 52080, Note_on_c, 0, 87, 0
2, 52080, Note_on_c, 0, 86, 0
2, 52080, Note_on_c, 0, 74, 0
2, 52080, Note_on_c, 0, 62, 0
2, 52080, Note_on_c, 0, 108, 0
2, 52290, Note_on_c, 0, 103, 100
2, 52290, Note_on_c, 0, 91, 100
2, 52290, Note_on_c, 0, 79, 100
2, 52290, Note_on_c, 0, 67, 100
2, 52320, Note_on_c, 0, 100, 100
2, 52320, Note_on_c, 0, 87, 100
2, 52320, Note_on_c, 0, 73, 100
2, 52320, Note_on_c, 0, 61, 100
2, 52320, Note_on_c, 0, 108, 100
2, 52560, Note_on_c, 0, 100, 0
2, 52560, Note_on_c, 0, 87, 0
2, 52560, Note_on_c, 0, 108, 0
2, 52800, Note_on_c, 0, 97, 100
2, 52800, Note_on_c, 0, 85, 100
2, 52800, Note_on_c, 0, 108, 100
2, 53040, Note_on_c, 0, 73, 0
2, 53040, Note_on_c, 0, 61, 0
2, 53040, Note_on_c, 0, 97, 0
2, 53040, Note_on_c, 0, 85, 0
2, 53040, Note_on_c, 0, 108, 0
2, 53250, Note_on_c, 0, 103, 0
2, 53250, Note_on_c, 0, 91, 0
2, 53250, Note_on_c, 0, 79, 0
2, 53250, Note_on_c, 0, 67, 0
2, 53730, Note_on_c, 0, 106, 0
2, 53730, Note_on_c, 0, 94, 0
2, 53730, Note_on_c, 0, 70, 0
2, 53730, Note_on_c, 0, 82, 0
2, 53760, Note_on_c, 0, 97, 100
2, 53760, Note_on_c, 0, 99, 100
2, 53760, Note_on_c, 0, 85, 100
2, 53760, Note_on_c, 0, 86, 100
2, 53760, Note_on_c, 0, 74, 100
2, 53760, Note_on_c, 0, 62, 100
2, 54000, Note_on_c, 0, 97, 0
2, 54000, Note_on_c, 0, 99, 0
2, 54000, Note_on_c, 0, 85, 0
2, 54000, Note_on_c, 0, 86, 0
2, 54000, Note_on_c, 0, 74, 0
2, 54000, Note_on_c, 0, 62, 0
2, 54240, Note_on_c, 0, 97, 100
2, 54240, Note_on_c, 0, 99, 100
2, 54240, Note_on_c, 0, 85, 100
2, 54240, Note_on_c, 0, 86, 100
2, 54240, Note_on_c, 0, 74, 100
2, 54240, Note_on_c, 0, 108, 100
2, 54480, Note_on_c, 0, 97, 0
2, 54480, Note_on_c, 0, 99, 0
2, 54480, Note_on_c, 0, 85, 0
2, 54480, Note_on_c, 0, 86, 0
2, 54480, Note_on_c, 0, 74, 0
2, 54480, Note_on_c, 0, 108, 0
2, 54720, Note_on_c, 0, 99, 100
2, 54720, Note_on_c, 0, 97, 100
2, 54720, Note_on_c, 0, 86, 100
2, 54720, Note_on_c, 0, 85, 100
2, 54720, Note_on_c, 0, 74, 100
2, 54720, Note_on_c, 0, 108, 100
2, 54960, Note_on_c, 0, 99, 0
2, 54960, Note_on_c, 0, 97, 0
2, 54960, Note_on_c, 0, 86, 0
2, 54960, Note_on_c, 0, 85, 0
2, 54960, Note_on_c, 0, 74, 0
2, 54960, Note_on_c, 0, 108, 0
2, 55200, Note_on_c, 0, 97, 100
2, 55200, Note_on_c, 0, 99, 100
2, 55200, Note_on_c, 0, 85, 100
2, 55200, Note_on_c, 0, 86, 100
2, 55200, Note_on_c, 0, 74, 100
2, 55200, Note_on_c, 0, 108, 100
2, 55440, Note_on_c, 0, 97, 0
2, 55440, Note_on_c, 0, 99, 0
2, 55440, Note_on_c, 0, 85, 0
2, 55440, Note_on_c, 0, 86, 0
2, 55440, Note_on_c, 0, 74, 0
2, 55440, Note_on_c, 0, 108, 0
2, 55680, Note_on_c, 0, 96, 100
2, 55680, Note_on_c, 0, 98, 100
2, 55680, Note_on_c, 0, 84, 100
2, 55680, Note_on_c, 0, 85, 100
2, 55680, Note_on_c, 0, 72, 100
2, 55680, Note_on_c, 0, 60, 100
2, 55680, Note_on_c, 0, 108, 100
2, 55920, Note_on_c, 0, 96, 0
2, 55920, Note_on_c, 0, 98, 0
2, 55920, Note_on_c, 0, 84, 0
2, 55920, Note_on_c, 0, 85, 0
2, 55920, Note_on_c, 0, 72, 0
2, 55920, Note_on_c, 0, 60, 0
2, 56160, Note_on_c, 0, 96, 100
2, 56160, Note_on_c, 0, 98, 100
2, 56160, Note_on_c, 0, 84, 100
2, 56160, Note_on_c, 0, 85, 100
2, 56160, Note_on_c, 0, 72, 100
2, 56400, Note_on_c, 0, 108, 0
2, 56400, Note_on_c, 0, 96, 0
2, 56400, Note_on_c, 0, 98, 0
2, 56400, Note_on_c, 0, 84, 0
2, 56400, Note_on_c, 0, 85, 0
2, 56400, Note_on_c, 0, 72, 0
2, 56640, Note_on_c, 0, 98, 100
2, 56640, Note_on_c, 0, 96, 100
2, 56640, Note_on_c, 0, 85, 100
2, 56640, Note_on_c, 0, 84, 100
2, 56640, Note_on_c, 0, 72, 100
2, 56880, Note_on_c, 0, 98, 0
2, 56880, Note_on_c, 0, 96, 0
2, 56880, Note_on_c, 0, 85, 0
2, 56880, Note_on_c, 0, 84, 0
2, 56880, Note_on_c, 0, 72, 0
2, 57120, Note_on_c, 0, 96, 100
2, 57120, Note_on_c, 0, 98, 100
2, 57120, Note_on_c, 0, 84, 100
2, 57120, Note_on_c, 0, 85, 100
2, 57120, Note_on_c, 0, 72, 100
2, 57360, Note_on_c, 0, 96, 0
2, 57360, Note_on_c, 0, 98, 0
2, 57360, Note_on_c, 0, 84, 0
2, 57360, Note_on_c, 0, 85, 0
2, 57360, Note_on_c, 0, 72, 0
2, 57600, Note_on_c, 0, 97, 100
2, 57600, Note_on_c, 0, 98, 100
2, 57600, Note_on_c, 0, 84, 100
2, 57600, Note_on_c, 0, 86, 100
2, 57600, Note_on_c, 0, 73, 100
2, 57600, Note_on_c, 0, 61, 100
2, 57840, Note_on_c, 0, 97, 0
2, 57840, Note_on_c, 0, 98, 0
2, 57840, Note_on_c, 0, 84, 0
2, 57840, Note_on_c, 0, 86, 0
2, 57840, Note_on_c, 0, 73, 0
2, 57840, Note_on_c, 0, 61, 0
2, 58080, Note_on_c, 0, 97, 100
2, 58080, Note_on_c, 0, 98, 100
2, 58080, Note_on_c, 0, 84, 100
2, 58080, Note_on_c, 0, 86, 100
2, 58080, Note_on_c, 0, 73, 100
2, 58080, Note_on_c, 0, 108, 100
2, 58320, Note_on_c, 0, 97, 0
2, 58320, Note_on_c, 0, 98, 0
2, 58320, Note_on_c, 0, 84, 0
2, 58320, Note_on_c, 0, 86, 0
2, 58320, Note_on_c, 0, 73, 0
2, 58320, Note_on_c, 0, 108, 0
2, 58560, Note_on_c, 0, 98, 100
2, 58560, Note_on_c, 0, 97, 100
2, 58560, Note_on_c, 0, 86, 100
2, 58560, Note_on_c, 0, 84, 100
2, 58560, Note_on_c, 0, 73, 100
2, 58560, Note_on_c, 0, 108, 100
2, 58800, Note_on_c, 0, 98, 0
2, 58800, Note_on_c, 0, 97, 0
2, 58800, Note_on_c, 0, 86, 0
2, 58800, Note_on_c, 0, 84, 0
2, 58800, Note_on_c, 0, 73, 0
2, 58800, Note_on_c, 0, 108, 0
2, 59040, Note_on_c, 0, 97, 100
2, 59040, Note_on_c, 0, 98, 100
2, 59040, Note_on_c, 0, 84, 100
2, 59040, Note_on_c, 0, 86, 100
2, 59040, Note_on_c, 0, 73, 100
2, 59040, Note_on_c, 0, 108, 100
2, 59280, Note_on_c, 0, 97, 0
2, 59280, Note_on_c, 0, 98, 0
2, 59280, Note_on_c, 0, 84, 0
2, 59280, Note_on_c, 0, 86, 0
2, 59280, Note_on_c, 0, 73, 0
2, 59280, Note_on_c, 0, 108, 0
2, 59490, Note_on_c, 0, 106, 100
2, 59490, Note_on_c, 0, 94, 100
2, 59490, Note_on_c, 0, 70, 100
2, 59490, Note_on_c, 0, 82, 100
2, 59520, Note_on_c, 0, 100, 100
2, 59520, Note_on_c, 0, 99, 100
2, 59520, Note_on_c, 0, 87, 100
2, 59520, Note_on_c, 0, 86, 100
2, 59520, Note_on_c, 0, 74, 100
2, 59520, Note_on_c, 0, 62, 100
2, 59520, Note_on_c, 0, 108, 100
2, 59760, Note_on_c, 0, 100, 0
2, 59760, Note_on_c, 0, 99, 0
2, 59760, Note_on_c, 0, 87, 0
2, 59760, Note_on_c, 0, 86, 0
2, 59760, Note_on_c, 0, 74, 0
2, 59760, Note_on_c, 0, 62, 0
2, 59760, Note_on_c, 0, 108, 0
2, 60000, Note_on_c, 0, 108, 100
2, 60480, Note_on_c, 0, 108, 0
2, 60480, Note_on_c, 0, 100, 100
2, 60480, Note_on_c, 0, 87, 100
2, 60480, Note_on_c, 0, 74, 100
2, 60480, Note_on_c, 0, 62, 100
2, 60720, Note_on_c, 0, 100, 0
2, 60720, Note_on_c, 0, 87, 0
2, 60720, Note_on_c, 0, 74, 0
2, 60720, Note_on_c, 0, 62, 0
2, 61410, Note_on_c, 0, 105, 0
2, 61410, Note_on_c, 0, 93, 0
2, 61410, Note_on_c, 0, 69, 0
2, 61410, Note_on_c, 0, 81, 0
2, 61440, Note_on_c, 0, 97, 100
2, 61440, Note_on_c, 0, 99, 100
2, 61440, Note_on_c, 0, 85, 100
2, 61440, Note_on_c, 0, 86, 100
2, 61440, Note_on_c, 0, 74, 100
2, 61440, Note_on_c, 0, 62, 100
2, 61680, Note_on_c, 0, 97, 0
2, 61680, Note_on_c, 0, 99, 0
2, 61680, Note_on_c, 0, 85, 0
2, 61680, Note_on_c, 0, 86, 0
2, 61680, Note_on_c, 0, 74, 0
2, 61680, Note_on_c, 0, 62, 0
2, 61920, Note_on_c, 0, 97, 100
2, 61920, Note_on_c, 0, 99, 100
2, 61920, Note_on_c, 0, 85, 100
2, 61920, Note_on_c, 0, 86, 100
2, 61920, Note_on_c, 0, 74, 100
2, 61920, Note_on_c, 0, 108, 100
2, 62160, Note_on_c, 0, 97, 0
2, 62160, Note_on_c, 0, 99, 0
2, 62160, Note_on_c, 0, 85, 0
2, 62160, Note_on_c, 0, 86, 0
2, 62160, Note_on_c, 0, 74, 0
2, 62160, Note_on_c, 0, 108, 0
2, 62400, Note_on_c, 0, 99, 100
2, 62400, Note_on_c, 0, 97, 100
2, 62400, Note_on_c, 0, 86, 100
2, 62400, Note_on_c, 0, 85, 100
2, 62400, Note_on_c, 0, 74, 100
2, 62400, Note_on_c, 0, 108, 100
2, 62640, Note_on_c, 0, 99, 0
2, 62640, Note_on_c, 0, 97, 0
2, 62640, Note_on_c, 0, 86, 0
2, 62640, Note_on_c, 0, 85, 0
2, 62640, Note_on_c, 0, 74, 0
2, 62640, Note_on_c, 0, 108, 0
2, 62880, Note_on_c, 0, 97, 100
2, 62880, Note_on_c, 0, 99, 100
2, 62880, Note_on_c, 0, 85, 100
2, 62880, Note_on_c, 0, 86, 100
2, 62880, Note_on_c, 0, 74, 100
2, 62880, Note_on_c, 0, 108, 100
2, 63120, Note_on_c, 0, 97, 0
2, 63120, Note_on_c, 0, 99, 0
2, 63120, Note_on_c, 0, 85, 0
2, 63120, Note_on_c, 0, 86, 0
2, 63120, Note_on_c, 0, 74, 0
2, 63120, Note_on_c, 0, 108, 0
2, 63360, Note_on_c, 0, 96, 100
2, 63360, Note_on_c, 0, 98, 100
2, 63360, Note_on_c, 0, 84, 100
2, 63360, Note_on_c, 0, 85, 100
2, 63360, Note_on_c, 0, 72, 100
2, 63360, Note_on_c, 0, 60, 100
2, 63360, Note_on_c, 0, 108, 100
2, 63600, Note_on_c, 0, 96, 0
2, 63600, Note_on_c, 0, 98, 0
2, 63600, Note_on_c, 0, 84, 0
2, 63600, Note_on_c, 0, 85, 0
2, 63600, Note_on_c, 0, 72, 0
2, 63600, Note_on_c, 0, 60, 0
2, 63840, Note_on_c, 0, 108, 0
2, 63840, Note_on_c, 0, 96, 100
2, 63840, Note_on_c, 0, 98, 100
2, 63840, Note_on_c, 0, 84, 100
2, 63840, Note_on_c, 0, 85, 100
2, 63840, Note_on_c, 0, 72, 100
2, 64080, Note_on_c, 0, 96, 0
2, 64080, Note_on_c, 0, 98, 0
2, 64080, Note_on_c, 0, 84, 0
2, 64080, Note_on_c, 0, 85, 0
2, 64080, Note_on_c, 0, 72, 0
2, 64320, Note_on_c, 0, 98, 100
2, 64320, Note_on_c, 0, 96, 100
2, 64320, Note_on_c, 0, 85, 100
2, 64320, Note_on_c, 0, 84, 100
2, 64320, Note_on_c, 0, 72, 100
2, 64560, Note_on_c, 0, 98, 0
2, 64560, Note_on_c, 0, 96, 0
2, 64560, Note_on_c, 0, 85, 0
2, 64560, Note_on_c, 0, 84, 0
2, 64560, Note_on_c, 0, 72, 0
2, 64800, Note_on_c, 0, 96, 100
2, 64800, Note_on_c, 0, 98, 100
2, 64800, Note_on_c, 0, 84, 100
2, 64800, Note_on_c, 0, 85, 100
2, 64800, Note_on_c, 0, 72, 100
2, 65040, Note_on_c, 0, 96, 0
2, 65040, Note_on_c, 0, 98, 0
2, 65040, Note_on_c, 0, 84, 0
2, 65040, Note_on_c, 0, 85, 0
2, 65040, Note_on_c, 0, 72, 0
2, 65280, Note_on_c, 0, 97, 100
2, 65280, Note_on_c, 0, 98, 100
2, 65280, Note_on_c, 0, 84, 100
2, 65280, Note_on_c, 0, 86, 100
2, 65280, Note_on_c, 0, 73, 100
2, 65280, Note_on_c, 0, 61, 100
2, 65520, Note_on_c, 0, 97, 0
2, 65520, Note_on_c, 0, 98, 0
2, 65520, Note_on_c, 0, 84, 0
2, 65520, Note_on_c, 0, 86, 0
2, 65520, Note_on_c, 0, 73, 0
2, 65520, Note_on_c, 0, 61, 0
2, 65760, Note_on_c, 0, 97, 100
2, 65760, Note_on_c, 0, 98, 100
2, 65760, Note_on_c, 0, 84, 100
2, 65760, Note_on_c, 0, 86, 100
2, 65760, Note_on_c, 0, 73, 100
2, 65760, Note_on_c, 0, 108, 100
2, 66000, Note_on_c, 0, 97, 0
2, 66000, Note_on_c, 0, 98, 0
2, 66000, Note_on_c, 0, 84, 0
2, 66000, Note_on_c, 0, 86, 0
2, 66000, Note_on_c, 0, 73, 0
2, 66000, Note_on_c, 0, 108, 0
2, 66240, Note_on_c, 0, 98, 100
2, 66240, Note_on_c, 0, 97, 100
2, 66240, Note_on_c, 0, 86, 100
2, 66240, Note_on_c, 0, 84, 100
2, 66240, Note_on_c, 0, 73, 100
2, 66240, Note_on_c, 0, 108, 100
2, 66480, Note_on_c, 0, 98, 0
2, 66480, Note_on_c, 0, 97, 0
2, 66480, Note_on_c, 0, 86, 0
2, 66480, Note_on_c, 0, 84, 0
2, 66480, Note_on_c, 0, 73, 0
2, 66480, Note_on_c, 0, 108, 0
2, 66720, Note_on_c, 0, 97, 100
2, 66720, Note_on_c, 0, 98, 100
2, 66720, Note_on_c, 0, 84, 100
2, 66720, Note_on_c, 0, 86, 100
2, 66720, Note_on_c, 0, 73, 100
2, 66720, Note_on_c, 0, 108, 100
2, 66960, Note_on_c, 0, 97, 0
2, 66960, Note_on_c, 0, 98, 0
2, 66960, Note_on_c, 0, 84, 0
2, 66960, Note_on_c, 0, 86, 0
2, 66960, Note_on_c, 0, 73, 0
2, 66960, Note_on_c, 0, 108, 0
2, 67200, Note_on_c, 0, 100, 100
2, 67200, Note_on_c, 0, 99, 100
2, 67200, Note_on_c, 0, 87, 100
2, 67200, Note_on_c, 0, 86, 100
2, 67200, Note_on_c, 0, 74, 100
2, 67200, Note_on_c, 0, 62, 100
2, 67200, Note_on_c, 0, 108, 100
2, 67440, Note_on_c, 0, 108, 0
2, 67680, Note_on_c, 0, 108, 100
2, 67920, Note_on_c, 0, 108, 0
2, 68160, Note_on_c, 0, 108, 100
2, 68400, Note_on_c, 0, 108, 0
2, 68640, Note_on_c, 0, 100, 0
2, 68640, Note_on_c, 0, 99, 0
2, 68640, Note_on_c, 0, 108, 100
2, 68880, Note_on_c, 0, 87, 0
2, 68880, Note_on_c, 0, 86, 0
2, 68880, Note_on_c, 0, 74, 0
2, 68880, Note_on_c, 0, 62, 0
2, 68880, Note_on_c, 0, 108, 0
2, 69090, Note_on_c, 0, 106, 0
2, 69090, Note_on_c, 0, 94, 0
2, 69090, Note_on_c, 0, 70, 0
2, 69090, Note_on_c, 0, 82, 0
2, 69090, Note_on_c, 0, 105, 100
2, 69090, Note_on_c, 0, 93, 100
2, 69090, Note_on_c, 0, 69, 100
2, 69090, Note_on_c, 0, 81, 100
2, 69120, Note_on_c, 0, 97, 100
2, 69120, Note_on_c, 0, 99, 100
2, 69120, Note_on_c, 0, 85, 100
2, 69120, Note_on_c, 0, 86, 100
2, 69120, Note_on_c, 0, 74, 100
2, 69120, Note_on_c, 0, 62, 100
2, 69120, Note_on_c, 0, 108, 100
2, 69360, Note_on_c, 0, 97, 0
2, 69360, Note_on_c, 0, 99, 0
2, 69360, Note_on_c, 0, 85, 0
2, 69360, Note_on_c, 0, 86, 0
2, 69360, Note_on_c, 0, 74, 0
2, 69360, Note_on_c, 0, 62, 0
2, 69600, Note_on_c, 0, 108, 0
2, 69600, Note_on_c, 0, 97, 100
2, 69600, Note_on_c, 0, 99, 100
2, 69600, Note_on_c, 0, 85, 100
2, 69600, Note_on_c, 0, 86, 100
2, 69600, Note_on_c, 0, 74, 100
2, 69840, Note_on_c, 0, 97, 0
2, 69840, Note_on_c, 0, 99, 0
2, 69840, Note_on_c, 0, 85, 0
2, 69840, Note_on_c, 0, 86, 0
2, 69840, Note_on_c, 0, 74, 0
2, 70080, Note_on_c, 0, 99, 100
2, 70080, Note_on_c, 0, 97, 100
2, 70080, Note_on_c, 0, 86, 100
2, 70080, Note_on_c, 0, 85, 100
2, 70080, Note_on_c, 0, 74, 100
2, 70320, Note_on_c, 0, 99, 0
2, 70320, Note_on_c, 0, 97, 0
2, 70320, Note_on_c, 0, 86, 0
2, 70320, Note_on_c, 0, 85, 0
2, 70320, Note_on_c, 0, 74, 0
2, 70560, Note_on_c, 0, 97, 100
2, 70560, Note_on_c, 0, 99, 100
2, 70560, Note_on_c, 0, 85, 100
2, 70560, Note_on_c, 0, 86, 100
2, 70560, Note_on_c, 0, 74, 100
2, 70800, Note_on_c, 0, 97, 0
2, 70800, Note_on_c, 0, 99, 0
2, 70800, Note_on_c, 0, 85, 0
2, 70800, Note_on_c, 0, 86, 0
2, 70800, Note_on_c, 0, 74, 0
2, 71040, Note_on_c, 0, 96, 100
2, 71040, Note_on_c, 0, 98, 100
2, 71040, Note_on_c, 0, 84, 100
2, 71040, Note_on_c, 0, 85, 100
2, 71040, Note_on_c, 0, 72, 100
2, 71040, Note_on_c, 0, 60, 100
2, 71280, Note_on_c, 0, 96, 0
2, 71280, Note_on_c, 0, 98, 0
2, 71280, Note_on_c, 0, 84, 0
2, 71280, Note_on_c, 0, 85, 0
2, 71280, Note_on_c, 0, 72, 0
2, 71280, Note_on_c, 0, 60, 0
2, 71520, Note_on_c, 0, 96, 100
2, 71520, Note_on_c, 0, 98, 100
2, 71520, Note_on_c, 0, 84, 100
2, 71520, Note_on_c, 0, 85, 100
2, 71520, Note_on_c, 0, 72, 100
2, 71760, Note_on_c, 0, 96, 0
2, 71760, Note_on_c, 0, 98, 0
2, 71760, Note_on_c, 0, 84, 0
2, 71760, Note_on_c, 0, 85, 0
2, 71760, Note_on_c, 0, 72, 0
2, 72000, Note_on_c, 0, 98, 100
2, 72000, Note_on_c, 0, 96, 100
2, 72000, Note_on_c, 0, 85, 100
2, 72000, Note_on_c, 0, 84, 100
2, 72000, Note_on_c, 0, 72, 100
2, 72240, Note_on_c, 0, 98, 0
2, 72240, Note_on_c, 0, 96, 0
2, 72240, Note_on_c, 0, 85, 0
2, 72240, Note_on_c, 0, 84, 0
2, 72240, Note_on_c, 0, 72, 0
2, 72480, Note_on_c, 0, 96, 100
2, 72480, Note_on_c, 0, 98, 100
2, 72480, Note_on_c, 0, 84, 100
2, 72480, Note_on_c, 0, 85, 100
2, 72480, Note_on_c, 0, 72, 100
2, 72720, Note_on_c, 0, 96, 0
2, 72720, Note_on_c, 0, 98, 0
2, 72720, Note_on_c, 0, 84, 0
2, 72720, Note_on_c, 0, 85, 0
2, 72720, Note_on_c, 0, 72, 0
2, 72960, Note_on_c, 0, 97, 100
2, 72960, Note_on_c, 0, 98, 100
2, 72960, Note_on_c, 0, 84, 100
2, 72960, Note_on_c, 0, 86, 100
2, 72960, Note_on_c, 0, 73, 100
2, 72960, Note_on_c, 0, 61, 100
2, 73200, Note_on_c, 0, 97, 0
2, 73200, Note_on_c, 0, 98, 0
2, 73200, Note_on_c, 0, 84, 0
2, 73200, Note_on_c, 0, 86, 0
2, 73200, Note_on_c, 0, 73, 0
2, 73200, Note_on_c, 0, 61, 0
2, 73440, Note_on_c, 0, 97, 100
2, 73440, Note_on_c, 0, 98, 100
2, 73440, Note_on_c, 0, 84, 100
2, 73440, Note_on_c, 0, 86, 100
2, 73440, Note_on_c, 0, 73, 100
2, 73680, Note_on_c, 0, 97, 0
2, 73680, Note_on_c, 0, 98, 0
2, 73680, Note_on_c, 0, 84, 0
2, 73680, Note_on_c, 0, 86, 0
2, 73680, Note_on_c, 0, 73, 0
2, 73920, Note_on_c, 0, 98, 100
2, 73920, Note_on_c, 0, 97, 100
2, 73920, Note_on_c, 0, 86, 100
2, 73920, Note_on_c, 0, 84, 100
2, 73920, Note_on_c, 0, 73, 100
2, 74160, Note_on_c, 0, 98, 0
2, 74160, Note_on_c, 0, 97, 0
2, 74160, Note_on_c, 0, 86, 0
2, 74160, Note_on_c, 0, 84, 0
2, 74160, Note_on_c, 0, 73, 0
2, 74400, Note_on_c, 0, 97, 100
2, 74400, Note_on_c, 0, 98, 100
2, 74400, Note_on_c, 0, 84, 100
2, 74400, Note_on_c, 0, 86, 100
2, 74400, Note_on_c, 0, 73, 100
2, 74640, Note_on_c, 0, 97, 0
2, 74640, Note_on_c, 0, 98, 0
2, 74640, Note_on_c, 0, 84, 0
2, 74640, Note_on_c, 0, 86, 0
2, 74640, Note_on_c, 0, 73, 0
2, 74850, Note_on_c, 0, 106, 100
2, 74850, Note_on_c, 0, 94, 100
2, 74850, Note_on_c, 0, 70, 100
2, 74850, Note_on_c, 0, 82, 100
2, 74880, Note_on_c, 0, 96, 100
2, 74880, Note_on_c, 0, 84, 100
2, 74880, Note_on_c, 0, 72, 100
2, 74880, Note_on_c, 0, 60, 100
2, 75120, Note_on_c, 0, 96, 0
2, 75120, Note_on_c, 0, 84, 0
2, 75120, Note_on_c, 0, 72, 0
2, 75120, Note_on_c, 0, 60, 0
2, 75120, Note_on_c, 0, 97, 100
2, 75120, Note_on_c, 0, 85, 100
2, 75360, Note_on_c, 0, 97, 0
2, 75360, Note_on_c, 0, 85, 0
2, 75360, Note_on_c, 0, 98, 100
2, 75360, Note_on_c, 0, 86, 100
2, 75360, Note_on_c, 0, 73, 100
2, 75600, Note_on_c, 0, 98, 0
2, 75600, Note_on_c, 0, 86, 0
2, 75600, Note_on_c, 0, 73, 0
2, 75600, Note_on_c, 0, 99, 100
2, 75840, Note_on_c, 0, 99, 0
2, 75840, Note_on_c, 0, 100, 100
2, 75840, Note_on_c, 0, 87, 100
2, 75840, Note_on_c, 0, 74, 100
2, 75840, Note_on_c, 0, 62, 100
2, 76080, Note_on_c, 0, 100, 0
2, 76080, Note_on_c, 0, 87, 0
2, 76080, Note_on_c, 0, 74, 0
2, 76080, Note_on_c, 0, 62, 0
2, 76080, Note_on_c, 0, 99, 100
2, 76080, Note_on_c, 0, 86, 100
2, 76320, Note_on_c, 0, 99, 0
2, 76320, Note_on_c, 0, 86, 0
2, 76320, Note_on_c, 0, 98, 100
2, 76320, Note_on_c, 0, 85, 100
2, 76320, Note_on_c, 0, 73, 100
2, 76560, Note_on_c, 0, 98, 0
2, 76560, Note_on_c, 0, 85, 0
2, 76560, Note_on_c, 0, 73, 0
2, 76560, Note_on_c, 0, 97, 100
2, 76770, Note_on_c, 0, 105, 0
2, 76770, Note_on_c, 0, 93, 0
2, 76770, Note_on_c, 0, 69, 0
2, 76770, Note_on_c, 0, 81, 0
2, 76800, Note_on_c, 0, 97, 0
2, 76800, Note_on_c, 0, 97, 100
2, 76800, Note_on_c, 0, 99, 100
2, 76800, Note_on_c, 0, 85, 100
2, 76800, Note_on_c, 0, 86, 100
2, 76800, Note_on_c, 0, 74, 100
2, 76800, Note_on_c, 0, 62, 100
2, 77040, Note_on_c, 0, 97, 0
2, 77040, Note_on_c, 0, 99, 0
2, 77040, Note_on_c, 0, 85, 0
2, 77040, Note_on_c, 0, 86, 0
2, 77040, Note_on_c, 0, 74, 0
2, 77040, Note_on_c, 0, 62, 0
2, 77280, Note_on_c, 0, 97, 100
2, 77280, Note_on_c, 0, 99, 100
2, 77280, Note_on_c, 0, 85, 100
2, 77280, Note_on_c, 0, 86, 100
2, 77280, Note_on_c, 0, 74, 100
2, 77520, Note_on_c, 0, 97, 0
2, 77520, Note_on_c, 0, 99, 0
2, 77520, Note_on_c, 0, 85, 0
2, 77520, Note_on_c, 0, 86, 0
2, 77520, Note_on_c, 0, 74, 0
2, 77760, Note_on_c, 0, 99, 100
2, 77760, Note_on_c, 0, 97, 100
2, 77760, Note_on_c, 0, 86, 100
2, 77760, Note_on_c, 0, 85, 100
2, 77760, Note_on_c, 0, 74, 100
2, 78000, Note_on_c, 0, 99, 0
2, 78000, Note_on_c, 0, 97, 0
2, 78000, Note_on_c, 0, 86, 0
2, 78000, Note_on_c, 0, 85, 0
2, 78000, Note_on_c, 0, 74, 0
2, 78240, Note_on_c, 0, 97, 100
2, 78240, Note_on_c, 0, 99, 100
2, 78240, Note_on_c, 0, 85, 100
2, 78240, Note_on_c, 0, 86, 100
2, 78240, Note_on_c, 0, 74, 100
2, 78480, Note_on_c, 0, 97, 0
2, 78480, Note_on_c, 0, 99, 0
2, 78480, Note_on_c, 0, 85, 0
2, 78480, Note_on_c, 0, 86, 0
2, 78480, Note_on_c, 0, 74, 0
2, 78720, Note_on_c, 0, 96, 100
2, 78720, Note_on_c, 0, 98, 100
2, 78720, Note_on_c, 0, 84, 100
2, 78720, Note_on_c, 0, 85, 100
2, 78720, Note_on_c, 0, 72, 100
2, 78720, Note_on_c, 0, 60, 100
2, 78960, Note_on_c, 0, 96, 0
2, 78960, Note_on_c, 0, 98, 0
2, 78960, Note_on_c, 0, 84, 0
2, 78960, Note_on_c, 0, 85, 0
2, 78960, Note_on_c, 0, 72, 0
2, 78960, Note_on_c, 0, 60, 0
2, 79200, Note_on_c, 0, 96, 100
2, 79200, Note_on_c, 0, 98, 100
2, 79200, Note_on_c, 0, 84, 100
2, 79200, Note_on_c, 0, 85, 100
2, 79200, Note_on_c, 0, 72, 100
2, 79440, Note_on_c, 0, 96, 0
2, 79440, Note_on_c, 0, 98, 0
2, 79440, Note_on_c, 0, 84, 0
2, 79440, Note_on_c, 0, 85, 0
2, 79440, Note_on_c, 0, 72, 0
2, 79680, Note_on_c, 0, 98, 100
2, 79680, Note_on_c, 0, 96, 100
2, 79680, Note_on_c, 0, 85, 100
2, 79680, Note_on_c, 0, 84, 100
2, 79680, Note_on_c, 0, 72, 100
2, 79920, Note_on_c, 0, 98, 0
2, 79920, Note_on_c, 0, 96, 0
2, 79920, Note_on_c, 0, 85, 0
2, 79920, Note_on_c, 0, 84, 0
2, 79920, Note_on_c, 0, 72, 0
2, 80160, Note_on_c, 0, 96, 100
2, 80160, Note_on_c, 0, 98, 100
2, 80160, Note_on_c, 0, 84, 100
2, 80160, Note_on_c, 0, 85, 100
2, 80160, Note_on_c, 0, 72, 100
2, 80400, Note_on_c, 0, 96, 0
2, 80400, Note_on_c, 0, 98, 0
2, 80400, Note_on_c, 0, 84, 0
2, 80400, Note_on_c, 0, 85, 0
2, 80400, Note_on_c, 0, 72, 0
2, 80640, Note_on_c, 0, 97, 100
2, 80640, Note_on_c, 0, 98, 100
2, 80640, Note_on_c, 0, 84, 100
2, 80640, Note_on_c, 0, 86, 100
2, 80640, Note_on_c, 0, 73, 100
2, 80640, Note_on_c, 0, 61, 100
2, 80880, Note_on_c, 0, 97, 0
2, 80880, Note_on_c, 0, 98, 0
2, 80880, Note_on_c, 0, 84, 0
2, 80880, Note_on_c, 0, 86, 0
2, 80880, Note_on_c, 0, 73, 0
2, 80880, Note_on_c, 0, 61, 0
2, 81120, Note_on_c, 0, 97, 100
2, 81120, Note_on_c, 0, 98, 100
2, 81120, Note_on_c, 0, 84, 100
2, 81120, Note_on_c, 0, 86, 100
2, 81120, Note_on_c, 0, 73, 100
2, 81360, Note_on_c, 0, 97, 0
2, 81360, Note_on_c, 0, 98, 0
2, 81360, Note_on_c, 0, 84, 0
2, 81360, Note_on_c, 0, 86, 0
2, 81360, Note_on_c, 0, 73, 0
2, 81600, Note_on_c, 0, 98, 100
2, 81600, Note_on_c, 0, 97, 100
2, 81600, Note_on_c, 0, 86, 100
2, 81600, Note_on_c, 0, 84, 100
2, 81600, Note_on_c, 0, 73, 100
2, 81840, Note_on_c, 0, 98, 0
2, 81840, Note_on_c, 0, 97, 0
2, 81840, Note_on_c, 0, 86, 0
2, 81840, Note_on_c, 0, 84, 0
2, 81840, Note_on_c, 0, 73, 0
2, 82080, Note_on_c, 0, 97, 100
2, 82080, Note_on_c, 0, 98, 100
2, 82080, Note_on_c, 0, 84, 100
2, 82080, Note_on_c, 0, 86, 100
2, 82080, Note_on_c, 0, 73, 100
2, 82320, Note_on_c, 0, 97, 0
2, 82320, Note_on_c, 0, 98, 0
2, 82320, Note_on_c, 0, 84, 0
2, 82320, Note_on_c, 0, 86, 0
2, 82320, Note_on_c, 0, 73, 0
2, 82530, Note_on_c, 0, 105, 100
2, 82530, Note_on_c, 0, 93, 100
2, 82530, Note_on_c, 0, 69, 100
2, 82530, Note_on_c, 0, 81, 100
2, 82560, Note_on_c, 0, 100, 100
2, 82560, Note_on_c, 0, 99, 100
2, 82560, Note_on_c, 0, 87, 100
2, 82560, Note_on_c, 0, 86, 100
2, 82560, Note_on_c, 0, 74, 100
2, 82560, Note_on_c, 0, 62, 100
2, 82800, Note_on_c, 0, 100, 0
2, 82800, Note_on_c, 0, 99, 0
2, 82800, Note_on_c, 0, 87, 0
2, 82800, Note_on_c, 0, 86, 0
2, 82800, Note_on_c, 0, 74, 0
2, 82800, Note_on_c, 0, 62, 0
2, 83010, Note_on_c, 0, 103, 100
2, 83010, Note_on_c, 0, 91, 100
2, 83010, Note_on_c, 0, 79, 100
2, 83010, Note_on_c, 0, 67, 100
2, 83040, Note_on_c, 0, 100, 100
2, 83040, Note_on_c, 0, 88, 100
2, 83040, Note_on_c, 0, 73, 100
2, 83040, Note_on_c, 0, 61, 100
2, 83280, Note_on_c, 0, 100, 0
2, 83280, Note_on_c, 0, 88, 0
2, 83520, Note_on_c, 0, 98, 100
2, 83520, Note_on_c, 0, 87, 100
2, 83760, Note_on_c, 0, 98, 0
2, 83760, Note_on_c, 0, 87, 0
2, 84000, Note_on_c, 0, 96, 100
2, 84000, Note_on_c, 0, 86, 100
2, 84240, Note_on_c, 0, 73, 0
2, 84240, Note_on_c, 0, 61, 0
2, 84240, Note_on_c, 0, 96, 0
2, 84240, Note_on_c, 0, 86, 0
2, 84450, Note_on_c, 0, 106, 0
2, 84450, Note_on_c, 0, 94, 0
2, 84450, Note_on_c, 0, 70, 0
2, 84450, Note_on_c, 0, 82, 0
2, 84450, Note_on_c, 0, 103, 0
2, 84450, Note_on_c, 0, 91, 0
2, 84450, Note_on_c, 0, 79, 0
2, 84450, Note_on_c, 0, 67, 0
2, 84480, Note_on_c, 0, 97, 100
2, 84480, Note_on_c, 0, 99, 100
2, 84480, Note_on_c, 0, 85, 100
2, 84480, Note_on_c, 0, 86, 100
2, 84480, Note_on_c, 0, 74, 100
2, 84480, Note_on_c, 0, 62, 100
2, 84720, Note_on_c, 0, 97, 0
2, 84720, Note_on_c, 0, 99, 0
2, 84720, Note_on_c, 0, 85, 0
2, 84720, Note_on_c, 0, 86, 0
2, 84720, Note_on_c, 0, 74, 0
2, 84720, Note_on_c, 0, 62, 0
2, 84960, Note_on_c, 0, 97, 100
2, 84960, Note_on_c, 0, 99, 100
2, 84960, Note_on_c, 0, 85, 100
2, 84960, Note_on_c, 0, 86, 100
2, 84960, Note_on_c, 0, 74, 100
2, 84960, Note_on_c, 0, 108, 100
2, 85200, Note_on_c, 0, 97, 0
2, 85200, Note_on_c, 0, 99, 0
2, 85200, Note_on_c, 0, 85, 0
2, 85200, Note_on_c, 0, 86, 0
2, 85200, Note_on_c, 0, 74, 0
2, 85200, Note_on_c, 0, 108, 0
2, 85440, Note_on_c, 0, 99, 100
2, 85440, Note_on_c, 0, 97, 100
2, 85440, Note_on_c, 0, 86, 100
2, 85440, Note_on_c, 0, 85, 100
2, 85440, Note_on_c, 0, 74, 100
2, 85440, Note_on_c, 0, 108, 100
2, 85680, Note_on_c, 0, 99, 0
2, 85680, Note_on_c, 0, 97, 0
2, 85680, Note_on_c, 0, 86, 0
2, 85680, Note_on_c, 0, 85, 0
2, 85680, Note_on_c, 0, 74, 0
2, 85680, Note_on_c, 0, 108, 0
2, 85920, Note_on_c, 0, 97, 100
2, 85920, Note_on_c, 0, 99, 100
2, 85920, Note_on_c, 0, 85, 100
2, 85920, Note_on_c, 0, 86, 100
2, 85920, Note_on_c, 0, 74, 100
2, 85920, Note_on_c, 0, 108, 100
2, 86160, Note_on_c, 0, 97, 0
2, 86160, Note_on_c, 0, 99, 0
2, 86160, Note_on_c, 0, 85, 0
2, 86160, Note_on_c, 0, 86, 0
2, 86160, Note_on_c, 0, 74, 0
2, 86160, Note_on_c, 0, 108, 0
2, 86400, Note_on_c, 0, 96, 100
2, 86400, Note_on_c, 0, 98, 100
2, 86400, Note_on_c, 0, 84, 100
2, 86400, Note_on_c, 0, 85, 100
2, 86400, Note_on_c, 0, 72, 100
2, 86400, Note_on_c, 0, 60, 100
2, 86400, Note_on_c, 0, 108, 100
2, 86640, Note_on_c, 0, 96, 0
2, 86640, Note_on_c, 0, 98, 0
2, 86640, Note_on_c, 0, 84, 0
2, 86640, Note_on_c, 0, 85, 0
2, 86640, Note_on_c, 0, 72, 0
2, 86640, Note_on_c, 0, 60, 0
2, 86880, Note_on_c, 0, 108, 0
2, 86880, Note_on_c, 0, 96, 100
2, 86880, Note_on_c, 0, 98, 100
2, 86880, Note_on_c, 0, 84, 100
2, 86880, Note_on_c, 0, 85, 100
2, 86880, Note_on_c, 0, 72, 100
2, 87120, Note_on_c, 0, 96, 0
2, 87120, Note_on_c, 0, 98, 0
2, 87120, Note_on_c, 0, 84, 0
2, 87120, Note_on_c, 0, 85, 0
2, 87120, Note_on_c, 0, 72, 0
2, 87360, Note_on_c, 0, 98, 100
2, 87360, Note_on_c, 0, 96, 100
2, 87360, Note_on_c, 0, 85, 100
2, 87360, Note_on_c, 0, 84, 100
2, 87360, Note_on_c, 0, 72, 100
2, 87600, Note_on_c, 0, 98, 0
2, 87600, Note_on_c, 0, 96, 0
2, 87600, Note_on_c, 0, 85, 0
2, 87600, Note_on_c, 0, 84, 0
2, 87600, Note_on_c, 0, 72, 0
2, 87840, Note_on_c, 0, 96, 100
2, 87840, Note_on_c, 0, 98, 100
2, 87840, Note_on_c, 0, 84, 100
2, 87840, Note_on_c, 0, 85, 100
2, 87840, Note_on_c, 0, 72, 100
2, 88080, Note_on_c, 0, 96, 0
2, 88080, Note_on_c, 0, 98, 0
2, 88080, Note_on_c, 0, 84, 0
2, 88080, Note_on_c, 0, 85, 0
2, 88080, Note_on_c, 0, 72, 0
2, 88320, Note_on_c, 0, 97, 100
2, 88320, Note_on_c, 0, 98, 100
2, 88320, Note_on_c, 0, 84, 100
2, 88320, Note_on_c, 0, 86, 100
2, 88320, Note_on_c, 0, 73, 100
2, 88320, Note_on_c, 0, 61, 100
2, 88560, Note_on_c, 0, 97, 0
2, 88560, Note_on_c, 0, 98, 0
2, 88560, Note_on_c, 0, 84, 0
2, 88560, Note_on_c, 0, 86, 0
2, 88560, Note_on_c, 0, 73, 0
2, 88560, Note_on_c, 0, 61, 0
2, 88800, Note_on_c, 0, 97, 100
2, 88800, Note_on_c, 0, 98, 100
2, 88800, Note_on_c, 0, 84, 100
2, 88800, Note_on_c, 0, 86, 100
2, 88800, Note_on_c, 0, 73, 100
2, 88800, Note_on_c, 0, 108, 100
2, 89040, Note_on_c, 0, 97, 0
2, 89040, Note_on_c, 0, 98, 0
2, 89040, Note_on_c, 0, 84, 0
2, 89040, Note_on_c, 0, 86, 0
2, 89040, Note_on_c, 0, 73, 0
2, 89040, Note_on_c, 0, 108, 0
2, 89280, Note_on_c, 0, 98, 100
2, 89280, Note_on_c, 0, 97, 100
2, 89280, Note_on_c, 0, 86, 100
2, 89280, Note_on_c, 0, 84, 100
2, 89280, Note_on_c, 0, 73, 100
2, 89280, Note_on_c, 0, 108, 100
2, 89520, Note_on_c, 0, 98, 0
2, 89520, Note_on_c, 0, 97, 0
2, 89520, Note_on_c, 0, 86, 0
2, 89520, Note_on_c, 0, 84, 0
2, 89520, Note_on_c, 0, 73, 0
2, 89520, Note_on_c, 0, 108, 0
2, 89760, Note_on_c, 0, 97, 100
2, 89760, Note_on_c, 0, 98, 100
2, 89760, Note_on_c, 0, 84, 100
2, 89760, Note_on_c, 0, 86, 100
2, 89760, Note_on_c, 0, 73, 100
2, 89760, Note_on_c, 0, 108, 100
2, 90000, Note_on_c, 0, 97, 0
2, 90000, Note_on_c, 0, 98, 0
2, 90000, Note_on_c, 0, 84, 0
2, 90000, Note_on_c, 0, 86, 0
2, 90000, Note_on_c, 0, 73, 0
2, 90000, Note_on_c, 0, 108, 0
2, 90240, Note_on_c, 0, 100, 100
2, 90240, Note_on_c, 0, 99, 100
2, 90240, Note_on_c, 0, 87, 100
2, 90240, Note_on_c, 0, 86, 100
2, 90240, Note_on_c, 0, 74, 100
2, 90240, Note_on_c, 0, 62, 100
2, 90240, Note_on_c, 0, 108, 100
2, 90480, Note_on_c, 0, 100, 0
2, 90480, Note_on_c, 0, 99, 0
2, 90480, Note_on_c, 0, 87, 0
2, 90480, Note_on_c, 0, 86, 0
2, 90480, Note_on_c, 0, 74, 0
2, 90480, Note_on_c, 0, 62, 0
2, 90480, Note_on_c, 0, 108, 0
2, 90720, Note_on_c, 0, 108, 100
2, 91170, Note_on_c, 0, 106, 100
2, 91170, Note_on_c, 0, 94, 100
2, 91170, Note_on_c, 0, 70, 100
2, 91170, Note_on_c, 0, 82, 100
2, 91200, Note_on_c, 0, 108, 0
2, 91200, Note_on_c, 0, 99, 100
2, 91200, Note_on_c, 0, 98, 100
2, 91200, Note_on_c, 0, 88, 100
2, 91200, Note_on_c, 0, 73, 100
2, 91200, Note_on_c, 0, 61, 100
2, 91440, Note_on_c, 0, 99, 0
2, 91440, Note_on_c, 0, 98, 0
2, 91440, Note_on_c, 0, 88, 0
2, 91440, Note_on_c, 0, 73, 0
2, 91440, Note_on_c, 0, 61, 0
2, 92130, Note_on_c, 0, 105, 0
2, 92130, Note_on_c, 0, 93, 0
2, 92130, Note_on_c, 0, 69, 0
2, 92130, Note_on_c, 0, 81, 0
2, 92160, Note_on_c, 0, 97, 100
2, 92160, Note_on_c, 0, 99, 100
2, 92160, Note_on_c, 0, 85, 100
2, 92160, Note_on_c, 0, 86, 100
2, 92160, Note_on_c, 0, 74, 100
2, 92160, Note_on_c, 0, 62, 100
2, 92400, Note_on_c, 0, 97, 0
2, 92400, Note_on_c, 0, 99, 0
2, 92400, Note_on_c, 0, 85, 0
2, 92400, Note_on_c, 0, 86, 0
2, 92400, Note_on_c, 0, 74, 0
2, 92400, Note_on_c, 0, 62, 0
2, 92640, Note_on_c, 0, 97, 100
2, 92640, Note_on_c, 0, 99, 100
2, 92640, Note_on_c, 0, 85, 100
2, 92640, Note_on_c, 0, 86, 100
2, 92640, Note_on_c, 0, 74, 100
2, 92640, Note_on_c, 0, 108, 100
2, 92880, Note_on_c, 0, 97, 0
2, 92880, Note_on_c, 0, 99, 0
2, 92880, Note_on_c, 0, 85, 0
2, 92880, Note_on_c, 0, 86, 0
2, 92880, Note_on_c, 0, 74, 0
2, 92880, Note_on_c, 0, 108, 0
2, 93120, Note_on_c, 0, 99, 100
2, 93120, Note_on_c, 0, 97, 100
2, 93120, Note_on_c, 0, 86, 100
2, 93120, Note_on_c, 0, 85, 100
2, 93120, Note_on_c, 0, 74, 100
2, 93120, Note_on_c, 0, 108, 100
2, 93360, Note_on_c, 0, 99, 0
2, 93360, Note_on_c, 0, 97, 0
2, 93360, Note_on_c, 0, 86, 0
2, 93360, Note_on_c, 0, 85, 0
2, 93360, Note_on_c, 0, 74, 0
2, 93360, Note_on_c, 0, 108, 0
2, 93600, Note_on_c, 0, 97, 100
2, 93600, Note_on_c, 0, 99, 100
2, 93600, Note_on_c, 0, 85, 100
2, 93600, Note_on_c, 0, 86, 100
2, 93600, Note_on_c, 0, 74, 100
2, 93600, Note_on_c, 0, 108, 100
2, 93840, Note_on_c, 0, 97, 0
2, 93840, Note_on_c, 0, 99, 0
2, 93840, Note_on_c, 0, 85, 0
2, 93840, Note_on_c, 0, 86, 0
2, 93840, Note_on_c, 0, 74, 0
2, 93840, Note_on_c, 0, 108, 0
2, 94080, Note_on_c, 0, 96, 100
2, 94080, Note_on_c, 0, 98, 100
2, 94080, Note_on_c, 0, 84, 100
2, 94080, Note_on_c, 0, 85, 100
2, 94080, Note_on_c, 0, 72, 100
2, 94080, Note_on_c, 0, 60, 100
2, 94080, Note_on_c, 0, 108, 100
2, 94320, Note_on_c, 0, 96, 0
2, 94320, Note_on_c, 0, 98, 0
2, 94320, Note_on_c, 0, 84, 0
2, 94320, Note_on_c, 0, 85, 0
2, 94320, Note_on_c, 0, 72, 0
2, 94320, Note_on_c, 0, 60, 0
2, 94320, Note_on_c, 0, 108, 0
2, 94560, Note_on_c, 0, 96, 100
2, 94560, Note_on_c, 0, 98, 100
2, 94560, Note_on_c, 0, 84, 100
2, 94560, Note_on_c, 0, 85, 100
2, 94560, Note_on_c, 0, 72, 100
2, 94800, Note_on_c, 0, 96, 0
2, 94800, Note_on_c, 0, 98, 0
2, 94800, Note_on_c, 0, 84, 0
2, 94800, Note_on_c, 0, 85, 0
2, 94800, Note_on_c, 0, 72, 0
2, 95040, Note_on_c, 0, 98, 100
2, 95040, Note_on_c, 0, 96, 100
2, 95040, Note_on_c, 0, 85, 100
2, 95040, Note_on_c, 0, 84, 100
2, 95040, Note_on_c, 0, 72, 100
2, 95280, Note_on_c, 0, 98, 0
2, 95280, Note_on_c, 0, 96, 0
2, 95280, Note_on_c, 0, 85, 0
2, 95280, Note_on_c, 0, 84, 0
2, 95280, Note_on_c, 0, 72, 0
2, 95520, Note_on_c, 0, 96, 100
2, 95520, Note_on_c, 0, 98, 100
2, 95520, Note_on_c, 0, 84, 100
2, 95520, Note_on_c, 0, 85, 100
2, 95520, Note_on_c, 0, 72, 100
2, 95760, Note_on_c, 0, 96, 0
2, 95760, Note_on_c, 0, 98, 0
2, 95760, Note_on_c, 0, 84, 0
2, 95760, Note_on_c, 0, 85, 0
2, 95760, Note_on_c, 0, 72, 0
2, 96000, Note_on_c, 0, 97, 100
2, 96000, Note_on_c, 0, 98, 100
2, 96000, Note_on_c, 0, 84, 100
2, 96000, Note_on_c, 0, 86, 100
2, 96000, Note_on_c, 0, 73, 100
2, 96000, Note_on_c, 0, 61, 100
2, 96240, Note_on_c, 0, 97, 0
2, 96240, Note_on_c, 0, 98, 0
2, 96240, Note_on_c, 0, 84, 0
2, 96240, Note_on_c, 0, 86, 0
2, 96240, Note_on_c, 0, 73, 0
2, 96240, Note_on_c, 0, 61, 0
2, 96480, Note_on_c, 0, 97, 100
2, 96480, Note_on_c, 0, 98, 100
2, 96480, Note_on_c, 0, 84, 100
2, 96480, Note_on_c, 0, 86, 100
2, 96480, Note_on_c, 0, 73, 100
2, 96720, Note_on_c, 0, 97, 0
2, 96720, Note_on_c, 0, 98, 0
2, 96720, Note_on_c, 0, 84, 0
2, 96720, Note_on_c, 0, 86, 0
2, 96720, Note_on_c, 0, 73, 0
2, 96960, Note_on_c, 0, 98, 100
2, 96960, Note_on_c, 0, 97, 100
2, 96960, Note_on_c, 0, 86, 100
2, 96960, Note_on_c, 0, 84, 100
2, 96960, Note_on_c, 0, 73, 100
2, 96960, Note_on_c, 0, 108, 100
2, 97200, Note_on_c, 0, 98, 0
2, 97200, Note_on_c, 0, 97, 0
2, 97200, Note_on_c, 0, 86, 0
2, 97200, Note_on_c, 0, 84, 0
2, 97200, Note_on_c, 0, 73, 0
2, 97200, Note_on_c, 0, 108, 0
2, 97440, Note_on_c, 0, 97, 100
2, 97440, Note_on_c, 0, 98, 100
2, 97440, Note_on_c, 0, 84, 100
2, 97440, Note_on_c, 0, 86, 100
2, 97440, Note_on_c, 0, 73, 100
2, 97440, Note_on_c, 0, 108, 100
2, 97680, Note_on_c, 0, 97, 0
2, 97680, Note_on_c, 0, 98, 0
2, 97680, Note_on_c, 0, 84, 0
2, 97680, Note_on_c, 0, 86, 0
2, 97680, Note_on_c, 0, 73, 0
2, 97680, Note_on_c, 0, 108, 0
2, 97920, Note_on_c, 0, 100, 100
2, 97920, Note_on_c, 0, 99, 100
2, 97920, Note_on_c, 0, 87, 100
2, 97920, Note_on_c, 0, 86, 100
2, 97920, Note_on_c, 0, 74, 100
2, 97920, Note_on_c, 0, 62, 100
2, 97920, Note_on_c, 0, 108, 100
2, 98160, Note_on_c, 0, 100, 0
2, 98160, Note_on_c, 0, 99, 0
2, 98160, Note_on_c, 0, 87, 0
2, 98160, Note_on_c, 0, 86, 0
2, 98160, Note_on_c, 0, 74, 0
2, 98160, Note_on_c, 0, 62, 0
2, 98160, Note_on_c, 0, 108, 0
2, 98370, Note_on_c, 0, 105, 100
2, 98370, Note_on_c, 0, 93, 100
2, 98370, Note_on_c, 0, 69, 100
2, 98370, Note_on_c, 0, 81, 100
2, 98370, Note_on_c, 0, 103, 100
2, 98370, Note_on_c, 0, 91, 100
2, 98370, Note_on_c, 0, 79, 100
2, 98370, Note_on_c, 0, 67, 100
2, 98400, Note_on_c, 0, 97, 100
2, 98400, Note_on_c, 0, 84, 100
2, 98400, Note_on_c, 0, 72, 100
2, 98400, Note_on_c, 0, 60, 100
2, 98400, Note_on_c, 0, 108, 100
2, 98640, Note_on_c, 0, 97, 0
2, 98640, Note_on_c, 0, 84, 0
2, 98640, Note_on_c, 0, 108, 0
2, 98640, Note_on_c, 0, 98, 100
2, 98880, Note_on_c, 0, 98, 0
2, 98880, Note_on_c, 0, 99, 100
2, 98880, Note_on_c, 0, 108, 100
2, 99120, Note_on_c, 0, 99, 0
2, 99120, Note_on_c, 0, 100, 100
2, 99120, Note_on_c, 0, 86, 100
2, 99360, Note_on_c, 0, 72, 0
2, 99360, Note_on_c, 0, 60, 0
2, 99360, Note_on_c, 0, 108, 0
2, 99360, Note_on_c, 0, 100, 0
2, 99360, Note_on_c, 0, 86, 0
2, 99570, Note_on_c, 0, 103, 0
2, 99570, Note_on_c, 0, 91, 0
2, 99570, Note_on_c, 0, 79, 0
2, 99570, Note_on_c, 0, 67, 0
2, 99810, Note_on_c, 0, 106, 0
2, 99810, Note_on_c, 0, 94, 0
2, 99810, Note_on_c, 0, 70, 0
2, 99810, Note_on_c, 0, 82, 0
2, 99840, Note_on_c, 0, 97, 100
2, 99840, Note_on_c, 0, 99, 100
2, 99840, Note_on_c, 0, 85, 100
2, 99840, Note_on_c, 0, 86, 100
2, 99840, Note_on_c, 0, 74, 100
2, 99840, Note_on_c, 0, 62, 100
2, 100080, Note_on_c, 0, 97, 0
2, 100080, Note_on_c, 0, 99, 0
2, 100080, Note_on_c, 0, 85, 0
2, 100080, Note_on_c, 0, 86, 0
2, 100080, Note_on_c, 0, 74, 0
2, 100080, Note_on_c, 0, 62, 0
2, 100320, Note_on_c, 0, 97, 100
2, 100320, Note_on_c, 0, 99, 100
2, 100320, Note_on_c, 0, 85, 100
2, 100320, Note_on_c, 0, 86, 100
2, 100320, Note_on_c, 0, 74, 100
2, 100320, Note_on_c, 0, 108, 100
2, 100560, Note_on_c, 0, 97, 0
2, 100560, Note_on_c, 0, 99, 0
2, 100560, Note_on_c, 0, 85, 0
2, 100560, Note_on_c, 0, 86, 0
2, 100560, Note_on_c, 0, 74, 0
2, 100560, Note_on_c, 0, 108, 0
2, 100800, Note_on_c, 0, 99, 100
2, 100800, Note_on_c, 0, 97, 100
2, 100800, Note_on_c, 0, 86, 100
2, 100800, Note_on_c, 0, 85, 100
2, 100800, Note_on_c, 0, 74, 100
2, 100800, Note_on_c, 0, 108, 100
2, 101040, Note_on_c, 0, 99, 0
2, 101040, Note_on_c, 0, 97, 0
2, 101040, Note_on_c, 0, 86, 0
2, 101040, Note_on_c, 0, 85, 0
2, 101040, Note_on_c, 0, 74, 0
2, 101040, Note_on_c, 0, 108, 0
2, 101280, Note_on_c, 0, 97, 100
2, 101280, Note_on_c, 0, 99, 100
2, 101280, Note_on_c, 0, 85, 100
2, 101280, Note_on_c, 0, 86, 100
2, 101280, Note_on_c, 0, 74, 100
2, 101280, Note_on_c, 0, 108, 100
2, 101520, Note_on_c, 0, 97, 0
2, 101520, Note_on_c, 0, 99, 0
2, 101520, Note_on_c, 0, 85, 0
2, 101520, Note_on_c, 0, 86, 0
2, 101520, Note_on_c, 0, 74, 0
2, 101520, Note_on_c, 0, 108, 0
2, 101760, Note_on_c, 0, 96, 100
2, 101760, Note_on_c, 0, 98, 100
2, 101760, Note_on_c, 0, 84, 100
2, 101760, Note_on_c, 0, 85, 100
2, 101760, Note_on_c, 0, 72, 100
2, 101760, Note_on_c, 0, 60, 100
2, 101760, Note_on_c, 0, 108, 100
2, 102000, Note_on_c, 0, 96, 0
2, 102000, Note_on_c, 0, 98, 0
2, 102000, Note_on_c, 0, 84, 0
2, 102000, Note_on_c, 0, 85, 0
2, 102000, Note_on_c, 0, 72, 0
2, 102000, Note_on_c, 0, 60, 0
2, 102240, Note_on_c, 0, 108, 0
2, 102240, Note_on_c, 0, 96, 100
2, 102240, Note_on_c, 0, 98, 100
2, 102240, Note_on_c, 0, 84, 100
2, 102240, Note_on_c, 0, 85, 100
2, 102240, Note_on_c, 0, 72, 100
2, 102480, Note_on_c, 0, 96, 0
2, 102480, Note_on_c, 0, 98, 0
2, 102480, Note_on_c, 0, 84, 0
2, 102480, Note_on_c, 0, 85, 0
2, 102480, Note_on_c, 0, 72, 0
2, 102720, Note_on_c, 0, 98, 100
2, 102720, Note_on_c, 0, 96, 100
2, 102720, Note_on_c, 0, 85, 100
2, 102720, Note_on_c, 0, 84, 100
2, 102720, Note_on_c, 0, 72, 100
2, 102960, Note_on_c, 0, 98, 0
2, 102960, Note_on_c, 0, 96, 0
2, 102960, Note_on_c, 0, 85, 0
2, 102960, Note_on_c, 0, 84, 0
2, 102960, Note_on_c, 0, 72, 0
2, 103200, Note_on_c, 0, 96, 100
2, 103200, Note_on_c, 0, 98, 100
2, 103200, Note_on_c, 0, 84, 100
2, 103200, Note_on_c, 0, 85, 100
2, 103200, Note_on_c, 0, 72, 100
2, 103440, Note_on_c, 0, 96, 0
2, 103440, Note_on_c, 0, 98, 0
2, 103440, Note_on_c, 0, 84, 0
2, 103440, Note_on_c, 0, 85, 0
2, 103440, Note_on_c, 0, 72, 0
2, 103680, Note_on_c, 0, 97, 100
2, 103680, Note_on_c, 0, 98, 100
2, 103680, Note_on_c, 0, 84, 100
2, 103680, Note_on_c, 0, 86, 100
2, 103680, Note_on_c, 0, 73, 100
2, 103680, Note_on_c, 0, 61, 100
2, 103920, Note_on_c, 0, 97, 0
2, 103920, Note_on_c, 0, 98, 0
2, 103920, Note_on_c, 0, 84, 0
2, 103920, Note_on_c, 0, 86, 0
2, 103920, Note_on_c, 0, 73, 0
2, 103920, Note_on_c, 0, 61, 0
2, 104160, Note_on_c, 0, 97, 100
2, 104160, Note_on_c, 0, 98, 100
2, 104160, Note_on_c, 0, 84, 100
2, 104160, Note_on_c, 0, 86, 100
2, 104160, Note_on_c, 0, 73, 100
2, 104400, Note_on_c, 0, 97, 0
2, 104400, Note_on_c, 0, 98, 0
2, 104400, Note_on_c, 0, 84, 0
2, 104400, Note_on_c, 0, 86, 0
2, 104400, Note_on_c, 0, 73, 0
2, 104640, Note_on_c, 0, 98, 100
2, 104640, Note_on_c, 0, 97, 100
2, 104640, Note_on_c, 0, 86, 100
2, 104640, Note_on_c, 0, 84, 100
2, 104640, Note_on_c, 0, 73, 100
2, 104640, Note_on_c, 0, 108, 100
2, 104880, Note_on_c, 0, 98, 0
2, 104880, Note_on_c, 0, 97, 0
2, 104880, Note_on_c, 0, 86, 0
2, 104880, Note_on_c, 0, 84, 0
2, 104880, Note_on_c, 0, 73, 0
2, 104880, Note_on_c, 0, 108, 0
2, 105120, Note_on_c, 0, 97, 100
2, 105120, Note_on_c, 0, 98, 100
2, 105120, Note_on_c, 0, 84, 100
2, 105120, Note_on_c, 0, 86, 100
2, 105120, Note_on_c, 0, 73, 100
2, 105120, Note_on_c, 0, 108, 100
2, 105360, Note_on_c, 0, 97, 0
2, 105360, Note_on_c, 0, 98, 0
2, 105360, Note_on_c, 0, 84, 0
2, 105360, Note_on_c, 0, 86, 0
2, 105360, Note_on_c, 0, 73, 0
2, 105360, Note_on_c, 0, 108, 0
2, 105600, Note_on_c, 0, 100, 100
2, 105600, Note_on_c, 0, 99, 100
2, 105600, Note_on_c, 0, 87, 100
2, 105600, Note_on_c, 0, 86, 100
2, 105600, Note_on_c, 0, 74, 100
2, 105600, Note_on_c, 0, 62, 100
2, 105600, Note_on_c, 0, 108, 100
2, 105840, Note_on_c, 0, 100, 0
2, 105840, Note_on_c, 0, 99, 0
2, 105840, Note_on_c, 0, 87, 0
2, 105840, Note_on_c, 0, 86, 0
2, 105840, Note_on_c, 0, 74, 0
2, 105840, Note_on_c, 0, 62, 0
2, 105840, Note_on_c, 0, 108, 0
2, 106050, Note_on_c, 0, 106, 100
2, 106050, Note_on_c, 0, 94, 100
2, 106050, Note_on_c, 0, 70, 100
2, 106050, Note_on_c, 0, 82, 100
2, 106080, Note_on_c, 0, 100, 100
2, 106080, Note_on_c, 0, 88, 100
2, 106080, Note_on_c, 0, 74, 100
2, 106080, Note_on_c, 0, 62, 100
2, 106080, Note_on_c, 0, 108, 100
2, 106240, Note_on_c, 0, 100, 0
2, 106240, Note_on_c, 0, 88, 0
2, 106240, Note_on_c, 0, 99, 100
2, 106320, Note_on_c, 0, 108, 0
2, 106400, Note_on_c, 0, 99, 0
2, 106400, Note_on_c, 0, 98, 100
2, 106560, Note_on_c, 0, 98, 0
2, 106560, Note_on_c, 0, 100, 100
2, 106560, Note_on_c, 0, 88, 100
2, 106560, Note_on_c, 0, 108, 100
2, 106800, Note_on_c, 0, 100, 0
2, 106800, Note_on_c, 0, 88, 0
2, 106800, Note_on_c, 0, 108, 0
2, 106800, Note_on_c, 0, 99, 100
2, 107040, Note_on_c, 0, 99, 0
2, 107040, Note_on_c, 0, 98, 100
2, 107040, Note_on_c, 0, 108, 100
2, 107280, Note_on_c, 0, 74, 0
2, 107280, Note_on_c, 0, 62, 0
2, 107280, Note_on_c, 0, 98, 0
2, 107490, Note_on_c, 0, 105, 0
2, 107490, Note_on_c, 0, 93, 0
2, 107490, Note_on_c, 0, 69, 0
2, 107490, Note_on_c, 0, 81, 0
2, 107520, Note_on_c, 0, 97, 100
2, 107520, Note_on_c, 0, 99, 100
2, 107520, Note_on_c, 0, 85, 100
2, 107520, Note_on_c, 0, 86, 100
2, 107520, Note_on_c, 0, 74, 100
2, 107520, Note_on_c, 0, 62, 100
2, 107760, Note_on_c, 0, 108, 0
2, 107760, Note_on_c, 0, 97, 0
2, 107760, Note_on_c, 0, 99, 0
2, 107760, Note_on_c, 0, 85, 0
2, 107760, Note_on_c, 0, 86, 0
2, 107760, Note_on_c, 0, 74, 0
2, 107760, Note_on_c, 0, 62, 0
2, 108000, Note_on_c, 0, 97, 100
2, 108000, Note_on_c, 0, 99, 100
2, 108000, Note_on_c, 0, 85, 100
2, 108000, Note_on_c, 0, 86, 100
2, 108000, Note_on_c, 0, 74, 100
2, 108000, Note_on_c, 0, 108, 100
2, 108240, Note_on_c, 0, 97, 0
2, 108240, Note_on_c, 0, 99, 0
2, 108240, Note_on_c, 0, 85, 0
2, 108240, Note_on_c, 0, 86, 0
2, 108240, Note_on_c, 0, 74, 0
2, 108240, Note_on_c, 0, 108, 0
2, 108480, Note_on_c, 0, 99, 100
2, 108480, Note_on_c, 0, 97, 100
2, 108480, Note_on_c, 0, 86, 100
2, 108480, Note_on_c, 0, 85, 100
2, 108480, Note_on_c, 0, 74, 100
2, 108480, Note_on_c, 0, 108, 100
2, 108720, Note_on_c, 0, 99, 0
2, 108720, Note_on_c, 0, 97, 0
2, 108720, Note_on_c, 0, 86, 0
2, 108720, Note_on_c, 0, 85, 0
2, 108720, Note_on_c, 0, 74, 0
2, 108720, Note_on_c, 0, 108, 0
2, 108960, Note_on_c, 0, 97, 100
2, 108960, Note_on_c, 0, 99, 100
2, 108960, Note_on_c, 0, 85, 100
2, 108960, Note_on_c, 0, 86, 100
2, 108960, Note_on_c, 0, 74, 100
2, 108960, Note_on_c, 0, 108, 100
2, 109200, Note_on_c, 0, 97, 0
2, 109200, Note_on_c, 0, 99, 0
2, 109200, Note_on_c, 0, 85, 0
2, 109200, Note_on_c, 0, 86, 0
2, 109200, Note_on_c, 0, 74, 0
2, 109200, Note_on_c, 0, 108, 0
2, 109440, Note_on_c, 0, 96, 100
2, 109440, Note_on_c, 0, 98, 100
2, 109440, Note_on_c, 0, 84, 100
2, 109440, Note_on_c, 0, 85, 100
2, 109440, Note_on_c, 0, 72, 100
2, 109440, Note_on_c, 0, 60, 100
2, 109440, Note_on_c, 0, 108, 100
2, 109680, Note_on_c, 0, 96, 0
2, 109680, Note_on_c, 0, 98, 0
2, 109680, Note_on_c, 0, 84, 0
2, 109680, Note_on_c, 0, 85, 0
2, 109680, Note_on_c, 0, 72, 0
2, 109680, Note_on_c, 0, 60, 0
2, 109920, Note_on_c, 0, 96, 100
2, 109920, Note_on_c, 0, 98, 100
2, 109920, Note_on_c, 0, 84, 100
2, 109920, Note_on_c, 0, 85, 100
2, 109920, Note_on_c, 0, 72, 100
2, 110160, Note_on_c, 0, 108, 0
2, 110160, Note_on_c, 0, 96, 0
2, 110160, Note_on_c, 0, 98, 0
2, 110160, Note_on_c, 0, 84, 0
2, 110160, Note_on_c, 0, 85, 0
2, 110160, Note_on_c, 0, 72, 0
2, 110400, Note_on_c, 0, 98, 100
2, 110400, Note_on_c, 0, 96, 100
2, 110400, Note_on_c, 0, 85, 100
2, 110400, Note_on_c, 0, 84, 100
2, 110400, Note_on_c, 0, 72, 100
2, 110640, Note_on_c, 0, 98, 0
2, 110640, Note_on_c, 0, 96, 0
2, 110640, Note_on_c, 0, 85, 0
2, 110640, Note_on_c, 0, 84, 0
2, 110640, Note_on_c, 0, 72, 0
2, 110880, Note_on_c, 0, 96, 100
2, 110880, Note_on_c, 0, 98, 100
2, 110880, Note_on_c, 0, 84, 100
2, 110880, Note_on_c, 0, 85, 100
2, 110880, Note_on_c, 0, 72, 100
2, 111120, Note_on_c, 0, 96, 0
2, 111120, Note_on_c, 0, 98, 0
2, 111120, Note_on_c, 0, 84, 0
2, 111120, Note_on_c, 0, 85, 0
2, 111120, Note_on_c, 0, 72, 0
2, 111360, Note_on_c, 0, 97, 100
2, 111360, Note_on_c, 0, 98, 100
2, 111360, Note_on_c, 0, 84, 100
2, 111360, Note_on_c, 0, 86, 100
2, 111360, Note_on_c, 0, 73, 100
2, 111360, Note_on_c, 0, 61, 100
2, 111600, Note_on_c, 0, 97, 0
2, 111600, Note_on_c, 0, 98, 0
2, 111600, Note_on_c, 0, 84, 0
2, 111600, Note_on_c, 0, 86, 0
2, 111600, Note_on_c, 0, 73, 0
2, 111600, Note_on_c, 0, 61, 0
2, 111840, Note_on_c, 0, 97, 100
2, 111840, Note_on_c, 0, 98, 100
2, 111840, Note_on_c, 0, 84, 100
2, 111840, Note_on_c, 0, 86, 100
2, 111840, Note_on_c, 0, 73, 100
2, 111840, Note_on_c, 0, 108, 100
2, 112080, Note_on_c, 0, 97, 0
2, 112080, Note_on_c, 0, 98, 0
2, 112080, Note_on_c, 0, 84, 0
2, 112080, Note_on_c, 0, 86, 0
2, 112080, Note_on_c, 0, 73, 0
2, 112080, Note_on_c, 0, 108, 0
2, 112320, Note_on_c, 0, 98, 100
2, 112320, Note_on_c, 0, 97, 100
2, 112320, Note_on_c, 0, 86, 100
2, 112320, Note_on_c, 0, 84, 100
2, 112320, Note_on_c, 0, 73, 100
2, 112320, Note_on_c, 0, 108, 100
2, 112560, Note_on_c, 0, 98, 0
2, 112560, Note_on_c, 0, 97, 0
2, 112560, Note_on_c, 0, 86, 0
2, 112560, Note_on_c, 0, 84, 0
2, 112560, Note_on_c, 0, 73, 0
2, 112560, Note_on_c, 0, 108, 0
2, 112800, Note_on_c, 0, 97, 100
2, 112800, Note_on_c, 0, 98, 100
2, 112800, Note_on_c, 0, 84, 100
2, 112800, Note_on_c, 0, 86, 100
2, 112800, Note_on_c, 0, 73, 100
2, 112800, Note_on_c, 0, 108, 100
2, 113040, Note_on_c, 0, 97, 0
2, 113040, Note_on_c, 0, 98, 0
2, 113040, Note_on_c, 0, 84, 0
2, 113040, Note_on_c, 0, 86, 0
2, 113040, Note_on_c, 0, 73, 0
2, 113040, Note_on_c, 0, 108, 0
2, 113280, Note_on_c, 0, 100, 100
2, 113280, Note_on_c, 0, 99, 100
2, 113280, Note_on_c, 0, 87, 100
2, 113280, Note_on_c, 0, 86, 100
2, 113280, Note_on_c, 0, 74, 100
2, 113280, Note_on_c, 0, 62, 100
2, 113280, Note_on_c, 0, 108, 100
2, 113520, Note_on_c, 0, 108, 0
2, 113760, Note_on_c, 0, 108, 100
2, 114000, Note_on_c, 0, 108, 0
2, 114240, Note_on_c, 0, 108, 100
2, 114480, Note_on_c, 0, 108, 0
2, 114720, Note_on_c, 0, 100, 0
2, 114720, Note_on_c, 0, 99, 0
2, 114720, Note_on_c, 0, 108, 100
2, 114960, Note_on_c, 0, 87, 0
2, 114960, Note_on_c, 0, 86, 0
2, 114960, Note_on_c, 0, 74, 0
2, 114960, Note_on_c, 0, 62, 0
2, 114960, Note_on_c, 0, 108, 0
2, 115170, Note_on_c, 0, 103, 100
2, 115170, Note_on_c, 0, 91, 100
2, 115170, Note_on_c, 0, 79, 100
2, 115170, Note_on_c, 0, 67, 100
2, 115170, Note_on_c, 0, 105, 100
2, 115170, Note_on_c, 0, 93, 100
2, 115170, Note_on_c, 0, 69, 100
2, 115170, Note_on_c, 0, 81, 100
2, 115200, Note_on_c, 0, 96, 100
2, 115200, Note_on_c, 0, 98, 100
2, 115200, Note_on_c, 0, 84, 100
2, 115200, Note_on_c, 0, 86, 100
2, 115200, Note_on_c, 0, 72, 100
2, 115200, Note_on_c, 0, 60, 100
2, 115200, Note_on_c, 0, 108, 100
2, 115680, Note_on_c, 0, 108, 0
2, 121890, Note_on_c, 0, 103, 0
2, 121890, Note_on_c, 0, 91, 0
2, 121890, Note_on_c, 0, 79, 0
2, 121890, Note_on_c, 0, 67, 0
2, 121920, Note_on_c, 0, 96, 0
2, 121920, Note_on_c, 0, 98, 0
2, 121920, Note_on_c, 0, 84, 0
2, 121920, Note_on_c, 0, 86, 0
2, 121920, Note_on_c, 0, 72, 0
2, 121920, Note_on_c, 0, 60, 0
2, 121920, Note_on_c, 0, 99, 100
2, 121920, Note_on_c, 0, 87, 100
2, 121920, Note_on_c, 0, 74, 100
2, 122160, Note_on_c, 0, 87, 0
2, 122160, Note_on_c, 0, 74, 0
2, 122850, Note_on_c, 0, 106, 0
2, 122850, Note_on_c, 0, 94, 0
2, 122850, Note_on_c, 0, 70, 0
2, 122850, Note_on_c, 0, 82, 0
2, 122880, Note_on_c, 0, 99, 0
2, 122880, Note_on_c, 0, 97, 100
2, 122880, Note_on_c, 0, 73, 100
2, 122880, Note_on_c, 0, 60, 100
2, 122880, Note_on_c, 0, 85, 100
2, 123360, Note_on_c, 0, 108, 100
2, 123600, Note_on_c, 0, 108, 0
2, 123840, Note_on_c, 0, 108, 100
2, 124080, Note_on_c, 0, 108, 0
2, 124320, Note_on_c, 0, 108, 100
2, 124560, Note_on_c, 0, 97, 0
2, 124560, Note_on_c, 0, 73, 0
2, 124560, Note_on_c, 0, 60, 0
2, 124560, Note_on_c, 0, 85, 0
2, 124560, Note_on_c, 0, 108, 0
2, 124800, Note_on_c, 0, 75, 100
2, 124800, Note_on_c, 0, 62, 100
2, 124800, Note_on_c, 0, 99, 100
2, 124800, Note_on_c, 0, 88, 100
2, 124800, Note_on_c, 0, 108, 100
2, 125040, Note_on_c, 0, 99, 0
2, 125040, Note_on_c, 0, 100, 100
2, 125280, Note_on_c, 0, 108, 0
2, 125760, Note_on_c, 0, 108, 100
2, 126000, Note_on_c, 0, 108, 0
2, 126240, Note_on_c, 0, 108, 100
2, 126480, Note_on_c, 0, 75, 0
2, 126480, Note_on_c, 0, 62, 0
2, 126480, Note_on_c, 0, 88, 0
2, 126480, Note_on_c, 0, 100, 0
2, 126480, Note_on_c, 0, 108, 0
2, 126720, Note_on_c, 0, 99, 100
2, 126720, Note_on_c, 0, 75, 100
2, 126720, Note_on_c, 0, 61, 100
2, 126720, Note_on_c, 0, 87, 100
2, 126720, Note_on_c, 0, 108, 100
2, 126960, Note_on_c, 0, 99, 0
2, 126960, Note_on_c, 0, 75, 0
2, 126960, Note_on_c, 0, 61, 0
2, 126960, Note_on_c, 0, 87, 0
2, 126960, Note_on_c, 0, 108, 0
2, 127200, Note_on_c, 0, 108, 100
2, 127440, Note_on_c, 0, 108, 0
2, 127680, Note_on_c, 0, 98, 100
2, 127680, Note_on_c, 0, 74, 100
2, 127680, Note_on_c, 0, 60, 100
2, 127680, Note_on_c, 0, 86, 100
2, 127680, Note_on_c, 0, 108, 100
2, 127920, Note_on_c, 0, 98, 0
2, 127920, Note_on_c, 0, 74, 0
2, 127920, Note_on_c, 0, 60, 0
2, 127920, Note_on_c, 0, 86, 0
2, 127920, Note_on_c, 0, 108, 0
2, 128160, Note_on_c, 0, 108, 100
2, 128640, Note_on_c, 0, 97, 100
2, 128640, Note_on_c, 0, 73, 100
2, 128640, Note_on_c, 0, 61, 100
2, 128640, Note_on_c, 0, 85, 100
2, 128880, Note_on_c, 0, 97, 0
2, 128880, Note_on_c, 0, 73, 0
2, 128880, Note_on_c, 0, 61, 0
2, 128880, Note_on_c, 0, 85, 0
2, 129120, Note_on_c, 0, 108, 0
2, 129600, Note_on_c, 0, 96, 100
2, 129600, Note_on_c, 0, 72, 100
2, 129600, Note_on_c, 0, 60, 100
2, 129600, Note_on_c, 0, 84, 100
2, 129840, Note_on_c, 0, 96, 0
2, 129840, Note_on_c, 0, 72, 0
2, 129840, Note_on_c, 0, 60, 0
2, 129840, Note_on_c, 0, 84, 0
2, 130530, Note_on_c, 0, 105, 0
2, 130530, Note_on_c, 0, 93, 0
2, 130530, Note_on_c, 0, 69, 0
2, 130530, Note_on_c, 0, 81, 0
2, 130530, Note_on_c, 0, 106, 100
2, 130530, Note_on_c, 0, 94, 100
2, 130530, Note_on_c, 0, 70, 100
2, 130530, Note_on_c, 0, 82, 100
2, 130560, Note_on_c, 0, 97, 100
2, 130560, Note_on_c, 0, 73, 100
2, 130560, Note_on_c, 0, 60, 100
2, 130560, Note_on_c, 0, 85, 100
2, 131040, Note_on_c, 0, 108, 100
2, 131280, Note_on_c, 0, 108, 0
2, 131520, Note_on_c, 0, 108, 100
2, 131760, Note_on_c, 0, 108, 0
2, 132000, Note_on_c, 0, 108, 100
2, 132240, Note_on_c, 0, 97, 0
2, 132240, Note_on_c, 0, 73, 0
2, 132240, Note_on_c, 0, 60, 0
2, 132240, Note_on_c, 0, 85, 0
2, 132240, Note_on_c, 0, 108, 0
2, 132480, Note_on_c, 0, 99, 100
2, 132480, Note_on_c, 0, 75, 100
2, 132480, Note_on_c, 0, 62, 100
2, 132480, Note_on_c, 0, 88, 100
2, 132480, Note_on_c, 0, 108, 100
2, 132720, Note_on_c, 0, 99, 0
2, 132720, Note_on_c, 0, 100, 100
2, 132960, Note_on_c, 0, 108, 0
2, 133440, Note_on_c, 0, 108, 100
2, 133680, Note_on_c, 0, 108, 0
2, 133920, Note_on_c, 0, 108, 100
2, 134160, Note_on_c, 0, 75, 0
2, 134160, Note_on_c, 0, 62, 0
2, 134160, Note_on_c, 0, 88, 0
2, 134160, Note_on_c, 0, 100, 0
2, 134160, Note_on_c, 0, 108, 0
2, 134400, Note_on_c, 0, 99, 100
2, 134400, Note_on_c, 0, 75, 100
2, 134400, Note_on_c, 0, 61, 100
2, 134400, Note_on_c, 0, 87, 100
2, 134400, Note_on_c, 0, 108, 100
2, 134640, Note_on_c, 0, 99, 0
2, 134640, Note_on_c, 0, 75, 0
2, 134640, Note_on_c, 0, 61, 0
2, 134640, Note_on_c, 0, 87, 0
2, 134640, Note_on_c, 0, 108, 0
2, 134880, Note_on_c, 0, 108, 100
2, 135120, Note_on_c, 0, 108, 0
2, 135360, Note_on_c, 0, 98, 100
2, 135360, Note_on_c, 0, 74, 100
2, 135360, Note_on_c, 0, 60, 100
2, 135360, Note_on_c, 0, 86, 100
2, 135360, Note_on_c, 0, 108, 100
2, 135600, Note_on_c, 0, 98, 0
2, 135600, Note_on_c, 0, 74, 0
2, 135600, Note_on_c, 0, 60, 0
2, 135600, Note_on_c, 0, 86, 0
2, 135600, Note_on_c, 0, 108, 0
2, 135840, Note_on_c, 0, 108, 100
2, 136320, Note_on_c, 0, 97, 100
2, 136320, Note_on_c, 0, 73, 100
2, 136320, Note_on_c, 0, 61, 100
2, 136320, Note_on_c, 0, 85, 100
2, 136560, Note_on_c, 0, 97, 0
2, 136560, Note_on_c, 0, 73, 0
2, 136560, Note_on_c, 0, 61, 0
2, 136560, Note_on_c, 0, 85, 0
2, 136800, Note_on_c, 0, 108, 0
2, 137280, Note_on_c, 0, 96, 100
2, 137280, Note_on_c, 0, 72, 100
2, 137280, Note_on_c, 0, 60, 100
2, 137280, Note_on_c, 0, 84, 100
2, 137520, Note_on_c, 0, 96, 0
2, 137520, Note_on_c, 0, 72, 0
2, 137520, Note_on_c, 0, 60, 0
2, 137520, Note_on_c, 0, 84, 0
2, 138210, Note_on_c, 0, 106, 0
2, 138210, Note_on_c, 0, 94, 0
2, 138210, Note_on_c, 0, 70, 0
2, 138210, Note_on_c, 0, 82, 0
2, 138210, Note_on_c, 0, 105, 100
2, 138210, Note_on_c, 0, 93, 100
2, 138210, Note_on_c, 0, 69, 100
2, 138210, Note_on_c, 0, 81, 100
2, 138240, Note_on_c, 0, 97, 100
2, 138240, Note_on_c, 0, 73, 100
2, 138240, Note_on_c, 0, 60, 100
2, 138240, Note_on_c, 0, 85, 100
2, 138720, Note_on_c, 0, 108, 100
2, 138960, Note_on_c, 0, 108, 0
2, 139200, Note_on_c, 0, 108, 100
2, 139440, Note_on_c, 0, 108, 0
2, 139680, Note_on_c, 0, 108, 100
2, 139920, Note_on_c, 0, 97, 0
2, 139920, Note_on_c, 0, 73, 0
2, 139920, Note_on_c, 0, 60, 0
2, 139920, Note_on_c, 0, 85, 0
2, 139920, Note_on_c, 0, 108, 0
2, 140160, Note_on_c, 0, 99, 100
2, 140160, Note_on_c, 0, 75, 100
2, 140160, Note_on_c, 0, 62, 100
2, 140160, Note_on_c, 0, 88, 100
2, 140160, Note_on_c, 0, 108, 100
2, 140400, Note_on_c, 0, 99, 0
2, 140400, Note_on_c, 0, 100, 100
2, 140640, Note_on_c, 0, 108, 0
2, 141120, Note_on_c, 0, 108, 100
2, 141360, Note_on_c, 0, 108, 0
2, 141600, Note_on_c, 0, 108, 100
2, 141840, Note_on_c, 0, 75, 0
2, 141840, Note_on_c, 0, 62, 0
2, 141840, Note_on_c, 0, 88, 0
2, 141840, Note_on_c, 0, 100, 0
2, 141840, Note_on_c, 0, 108, 0
2, 142080, Note_on_c, 0, 99, 100
2, 142080, Note_on_c, 0, 75, 100
2, 142080, Note_on_c, 0, 61, 100
2, 142080, Note_on_c, 0, 87, 100
2, 142080, Note_on_c, 0, 108, 100
2, 142320, Note_on_c, 0, 99, 0
2, 142320, Note_on_c, 0, 75, 0
2, 142320, Note_on_c, 0, 61, 0
2, 142320, Note_on_c, 0, 87, 0
2, 142320, Note_on_c, 0, 108, 0
2, 142560, Note_on_c, 0, 108, 100
2, 142800, Note_on_c, 0, 108, 0
2, 143040, Note_on_c, 0, 98, 100
2, 143040, Note_on_c, 0, 74, 100
2, 143040, Note_on_c, 0, 60, 100
2, 143040, Note_on_c, 0, 86, 100
2, 143040, Note_on_c, 0, 108, 100
2, 143280, Note_on_c, 0, 98, 0
2, 143280, Note_on_c, 0, 74, 0
2, 143280, Note_on_c, 0, 60, 0
2, 143280, Note_on_c, 0, 86, 0
2, 143280, Note_on_c, 0, 108, 0
2, 143520, Note_on_c, 0, 108, 100
2, 144000, Note_on_c, 0, 97, 100
2, 144000, Note_on_c, 0, 73, 100
2, 144000, Note_on_c, 0, 61, 100
2, 144000, Note_on_c, 0, 85, 100
2, 144240, Note_on_c, 0, 97, 0
2, 144240, Note_on_c, 0, 73, 0
2, 144240, Note_on_c, 0, 61, 0
2, 144240, Note_on_c, 0, 85, 0
2, 144480, Note_on_c, 0, 108, 0
2, 144960, Note_on_c, 0, 96, 100
2, 144960, Note_on_c, 0, 72, 100
2, 144960, Note_on_c, 0, 60, 100
2, 144960, Note_on_c, 0, 84, 100
2, 145200, Note_on_c, 0, 96, 0
2, 145200, Note_on_c, 0, 72, 0
2, 145200, Note_on_c, 0, 60, 0
2, 145200, Note_on_c, 0, 84, 0
2, 145890, Note_on_c, 0, 105, 0
2, 145890, Note_on_c, 0, 93, 0
2, 145890, Note_on_c, 0, 69, 0
2, 145890, Note_on_c, 0, 81, 0
2, 145890, Note_on_c, 0, 106, 100
2, 145890, Note_on_c, 0, 94, 100
2, 145890, Note_on_c, 0, 70, 100
2, 145890, Note_on_c, 0, 82, 100
2, 145920, Note_on_c, 0, 97, 100
2, 145920, Note_on_c, 0, 73, 100
2, 145920, Note_on_c, 0, 60, 100
2, 145920, Note_on_c, 0, 85, 100
2, 146400, Note_on_c, 0, 108, 100
2, 146640, Note_on_c, 0, 108, 0
2, 146880, Note_on_c, 0, 108, 100
2, 147120, Note_on_c, 0, 108, 0
2, 147360, Note_on_c, 0, 108, 100
2, 147600, Note_on_c, 0, 97, 0
2, 147600, Note_on_c, 0, 73, 0
2, 147600, Note_on_c, 0, 60, 0
2, 147600, Note_on_c, 0, 85, 0
2, 147600, Note_on_c, 0, 108, 0
2, 147840, Note_on_c, 0, 99, 100
2, 147840, Note_on_c, 0, 75, 100
2, 147840, Note_on_c, 0, 62, 100
2, 147840, Note_on_c, 0, 88, 100
2, 147840, Note_on_c, 0, 108, 100
2, 148080, Note_on_c, 0, 99, 0
2, 148080, Note_on_c, 0, 100, 100
2, 148320, Note_on_c, 0, 108, 0
2, 148800, Note_on_c, 0, 108, 100
2, 149040, Note_on_c, 0, 108, 0
2, 149280, Note_on_c, 0, 108, 100
2, 149520, Note_on_c, 0, 75, 0
2, 149520, Note_on_c, 0, 62, 0
2, 149520, Note_on_c, 0, 88, 0
2, 149520, Note_on_c, 0, 100, 0
2, 149520, Note_on_c, 0, 108, 0
2, 149760, Note_on_c, 0, 99, 100
2, 149760, Note_on_c, 0, 75, 100
2, 149760, Note_on_c, 0, 61, 100
2, 149760, Note_on_c, 0, 87, 100
2, 149760, Note_on_c, 0, 108, 100
2, 150000, Note_on_c, 0, 99, 0
2, 150000, Note_on_c, 0, 75, 0
2, 150000, Note_on_c, 0, 61, 0
2, 150000, Note_on_c, 0, 87, 0
2, 150000, Note_on_c, 0, 108, 0
2, 150240, Note_on_c, 0, 108, 100
2, 150480, Note_on_c, 0, 108, 0
2, 150720, Note_on_c, 0, 98, 100
2, 150720, Note_on_c, 0, 74, 100
2, 150720, Note_on_c, 0, 60, 100
2, 150720, Note_on_c, 0, 86, 100
2, 150720, Note_on_c, 0, 108, 100
2, 150960, Note_on_c, 0, 98, 0
2, 150960, Note_on_c, 0, 74, 0
2, 150960, Note_on_c, 0, 60, 0
2, 150960, Note_on_c, 0, 86, 0
2, 150960, Note_on_c, 0, 108, 0
2, 151200, Note_on_c, 0, 108, 100
2, 151680, Note_on_c, 0, 97, 100
2, 151680, Note_on_c, 0, 73, 100
2, 151680, Note_on_c, 0, 61, 100
2, 151680, Note_on_c, 0, 85, 100
2, 151920, Note_on_c, 0, 97, 0
2, 151920, Note_on_c, 0, 73, 0
2, 151920, Note_on_c, 0, 61, 0
2, 151920, Note_on_c, 0, 85, 0
2, 152160, Note_on_c, 0, 108, 0
2, 152640, Note_on_c, 0, 96, 100
2, 152640, Note_on_c, 0, 72, 100
2, 152640, Note_on_c, 0, 60, 100
2, 152640, Note_on_c, 0, 84, 100
2, 152880, Note_on_c, 0, 96, 0
2, 152880, Note_on_c, 0, 72, 0
2, 152880, Note_on_c, 0, 60, 0
2, 152880, Note_on_c, 0, 84, 0
2, 153570, Note_on_c, 0, 106, 0
2, 153570, Note_on_c, 0, 94, 0
2, 153570, Note_on_c, 0, 70, 0
2, 153570, Note_on_c, 0, 82, 0
2, 153570, Note_on_c, 0, 105, 100
2, 153570, Note_on_c, 0, 93, 100
2, 153570, Note_on_c, 0, 69, 100
2, 153570, Note_on_c, 0, 81, 100
2, 153600, Note_on_c, 0, 96, 100
2, 153600, Note_on_c, 0, 98, 100
2, 153600, Note_on_c, 0, 84, 100
2, 153600, Note_on_c, 0, 86, 100
2, 153600, Note_on_c, 0, 72, 100
2, 153600, Note_on_c, 0, 73, 100
2, 153600, Note_on_c, 0, 60, 100
2, 153840, Note_on_c, 0, 96, 0
2, 153840, Note_on_c, 0, 98, 0
2, 153840, Note_on_c, 0, 84, 0
2, 153840, Note_on_c, 0, 86, 0
2, 153840, Note_on_c, 0, 72, 0
2, 153840, Note_on_c, 0, 73, 0
2, 153840, Note_on_c, 0, 60, 0
2, 155490, Note_on_c, 0, 105, 0
2, 155490, Note_on_c, 0, 93, 0
2, 155490, Note_on_c, 0, 69, 0
2, 155490, Note_on_c, 0, 81, 0
2, 155490, Note_on_c, 0, 106, 100
2, 155490, Note_on_c, 0, 94, 100
2, 155490, Note_on_c, 0, 70, 100
2, 155490, Note_on_c, 0, 82, 100
2, 155520, Note_on_c, 0, 96, 100
2, 155520, Note_on_c, 0, 98, 100
2, 155520, Note_on_c, 0, 84, 100
2, 155520, Note_on_c, 0, 86, 100
2, 155520, Note_on_c, 0, 72, 100
2, 155520, Note_on_c, 0, 73, 100
2, 155520, Note_on_c, 0, 60, 100
2, 155520, Note_on_c, 0, 108, 100
2, 155760, Note_on_c, 0, 96, 0
2, 155760, Note_on_c, 0, 98, 0
2, 155760, Note_on_c, 0, 84, 0
2, 155760, Note_on_c, 0, 86, 0
2, 155760, Note_on_c, 0, 72, 0
2, 155760, Note_on_c, 0, 73, 0
2, 155760, Note_on_c, 0, 60, 0
2, 156000, Note_on_c, 0, 108, 0
2, 157410, Note_on_c, 0, 106, 0
2, 157410, Note_on_c, 0, 94, 0
2, 157410, Note_on_c, 0, 70, 0
2, 157410, Note_on_c, 0, 82, 0
2, 157410, Note_on_c, 0, 105, 100
2, 157410, Note_on_c, 0, 93, 100
2, 157410, Note_on_c, 0, 69, 100
2, 157410, Note_on_c, 0, 81, 100
2, 157440, Note_on_c, 0, 96, 100
2, 157440, Note_on_c, 0, 98, 100
2, 157440, Note_on_c, 0, 84, 100
2, 157440, Note_on_c, 0, 86, 100
2, 157440, Note_on_c, 0, 72, 100
2, 157440, Note_on_c, 0, 73, 100
2, 157440, Note_on_c, 0, 60, 100
2, 157440, Note_on_c, 0, 108, 100
2, 157680, Note_on_c, 0, 96, 0
2, 157680, Note_on_c, 0, 98, 0
2, 157680, Note_on_c, 0, 84, 0
2, 157680, Note_on_c, 0, 86, 0
2, 157680, Note_on_c, 0, 72, 0
2, 157680, Note_on_c, 0, 73, 0
2, 157680, Note_on_c, 0, 60, 0
2, 157920, Note_on_c, 0, 108, 0
2, 159330, Note_on_c, 0, 105, 0
2, 159330, Note_on_c, 0, 93, 0
2, 159330, Note_on_c, 0, 69, 0
2, 159330, Note_on_c, 0, 81, 0
2, 159330, Note_on_c, 0, 106, 100
2, 159330, Note_on_c, 0, 94, 100
2, 159330, Note_on_c, 0, 70, 100
2, 159330, Note_on_c, 0, 82, 100
2, 159360, Note_on_c, 0, 96, 100
2, 159360, Note_on_c, 0, 98, 100
2, 159360, Note_on_c, 0, 84, 100
2, 159360, Note_on_c, 0, 86, 100
2, 159360, Note_on_c, 0, 72, 100
2, 159360, Note_on_c, 0, 73, 100
2, 159360, Note_on_c, 0, 60, 100
2, 159360, Note_on_c, 0, 108, 100
2, 159600, Note_on_c, 0, 96, 0
2, 159600, Note_on_c, 0, 98, 0
2, 159600, Note_on_c, 0, 84, 0
2, 159600, Note_on_c, 0, 86, 0
2, 159600, Note_on_c, 0, 72, 0
2, 159600, Note_on_c, 0, 73, 0
2, 159600, Note_on_c, 0, 60, 0
2, 159840, Note_on_c, 0, 108, 0
2, 160000, Note_on_c, 0, 96, 100
2, 160000, Note_on_c, 0, 84, 100
2, 160000, Note_on_c, 0, 72, 100
2, 160240, Note_on_c, 0, 96, 0
2, 160240, Note_on_c, 0, 84, 0
2, 160240, Note_on_c, 0, 72, 0
2, 160640, Note_on_c, 0, 96, 100
2, 160640, Note_on_c, 0, 84, 100
2, 160880, Note_on_c, 0, 96, 0
2, 160880, Note_on_c, 0, 84, 0
2, 161250, Note_on_c, 0, 106, 0
2, 161250, Note_on_c, 0, 94, 0
2, 161250, Note_on_c, 0, 70, 0
2, 161250, Note_on_c, 0, 82, 0
2, 161250, Note_on_c, 0, 105, 100
2, 161250, Note_on_c, 0, 93, 100
2, 161250, Note_on_c, 0, 69, 100
2, 161250, Note_on_c, 0, 81, 100
2, 161280, Note_on_c, 0, 96, 100
2, 161280, Note_on_c, 0, 98, 100
2, 161280, Note_on_c, 0, 84, 100
2, 161280, Note_on_c, 0, 86, 100
2, 161280, Note_on_c, 0, 72, 100
2, 161280, Note_on_c, 0, 73, 100
2, 161280, Note_on_c, 0, 60, 100
2, 161280, Note_on_c, 0, 108, 100
2, 161520, Note_on_c, 0, 96, 0
2, 161520, Note_on_c, 0, 98, 0
2, 161520, Note_on_c, 0, 84, 0
2, 161520, Note_on_c, 0, 86, 0
2, 161520, Note_on_c, 0, 72, 0
2, 161520, Note_on_c, 0, 73, 0
2, 161520, Note_on_c, 0, 60, 0
2, 161760, Note_on_c, 0, 108, 0
2, 161920, Note_on_c, 0, 96, 100
2, 161920, Note_on_c, 0, 84, 100
2, 161920, Note_on_c, 0, 72, 100
2, 162160, Note_on_c, 0, 96, 0
2, 162160, Note_on_c, 0, 84, 0
2, 162160, Note_on_c, 0, 72, 0
2, 162560, Note_on_c, 0, 96, 100
2, 162560, Note_on_c, 0, 84, 100
2, 162800, Note_on_c, 0, 96, 0
2, 162800, Note_on_c, 0, 84, 0
2, 163170, Note_on_c, 0, 106, 100
2, 163170, Note_on_c, 0, 94, 100
2, 163170, Note_on_c, 0, 70, 100
2, 163170, Note_on_c, 0, 82, 100
2, 163200, Note_on_c, 0, 96, 100
2, 163200, Note_on_c, 0, 98, 100
2, 163200, Note_on_c, 0, 84, 100
2, 163200, Note_on_c, 0, 86, 100
2, 163200, Note_on_c, 0, 72, 100
2, 163200, Note_on_c, 0, 73, 100
2, 163200, Note_on_c, 0, 60, 100
2, 163200, Note_on_c, 0, 108, 100
2, 163440, Note_on_c, 0, 96, 0
2, 163440, Note_on_c, 0, 98, 0
2, 163440, Note_on_c, 0, 84, 0
2, 163440, Note_on_c, 0, 86, 0
2, 163440, Note_on_c, 0, 72, 0
2, 163440, Note_on_c, 0, 73, 0
2, 163440, Note_on_c, 0, 60, 0
2, 163680, Note_on_c, 0, 108, 0
2, 163840, Note_on_c, 0, 96, 100
2, 163840, Note_on_c, 0, 84, 100
2, 163840, Note_on_c, 0, 72, 100
2, 164080, Note_on_c, 0, 96, 0
2, 164080, Note_on_c, 0, 84, 0
2, 164080, Note_on_c, 0, 72, 0
2, 164480, Note_on_c, 0, 96, 100
2, 164480, Note_on_c, 0, 84, 100
2, 164720, Note_on_c, 0, 96, 0
2, 164720, Note_on_c, 0, 84, 0
2, 165120, Note_on_c, 0, 98, 100
2, 165120, Note_on_c, 0, 85, 100
2, 165120, Note_on_c, 0, 72, 100
2, 165120, Note_on_c, 0, 60, 100
2, 165120, Note_on_c, 0, 108, 100
2, 165600, Note_on_c, 0, 108, 0
2, 167280, Note_on_c, 0, 98, 0
2, 167280, Note_on_c, 0, 85, 0
2, 167280, Note_on_c, 0, 72, 0
2, 167280, Note_on_c, 0, 60, 0
2, 167520, Note_on_c, 0, 87, 100
2, 167520, Note_on_c, 0, 74, 100
2, 167520, Note_on_c, 0, 99, 100
2, 167520, Note_on_c, 0, 62, 100
2, 167760, Note_on_c, 0, 99, 0
2, 167760, Note_on_c, 0, 100, 100
2, 168720, Note_on_c, 0, 87, 0
2, 168720, Note_on_c, 0, 74, 0
2, 168720, Note_on_c, 0, 62, 0
2, 168720, Note_on_c, 0, 100, 0
2, 168960, Note_on_c, 0, 99, 100
2, 168960, Note_on_c, 0, 86, 100
2, 168960, Note_on_c, 0, 73, 100
2, 168960, Note_on_c, 0, 61, 100
2, 172560, Note_on_c, 0, 99, 0
2, 172560, Note_on_c, 0, 86, 0
2, 172560, Note_on_c, 0, 73, 0
2, 172560, Note_on_c, 0, 61, 0
2, 172800, Note_on_c, 0, 97, 100
2, 172800, Note_on_c, 0, 84, 100
2, 172800, Note_on_c, 0, 72, 100
2, 172800, Note_on_c, 0, 60, 100
2, 174960, Note_on_c, 0, 97, 0
2, 174960, Note_on_c, 0, 84, 0
2, 174960, Note_on_c, 0, 72, 0
2, 174960, Note_on_c, 0, 60, 0
2, 175200, Note_on_c, 0, 86, 100
2, 175200, Note_on_c, 0, 74, 100
2, 175200, Note_on_c, 0, 98, 100
2, 175200, Note_on_c, 0, 62, 100
2, 175440, Note_on_c, 0, 98, 0
2, 175440, Note_on_c, 0, 99, 100
2, 176400, Note_on_c, 0, 86, 0
2, 176400, Note_on_c, 0, 74, 0
2, 176400, Note_on_c, 0, 62, 0
2, 176400, Note_on_c, 0, 99, 0
2, 176640, Note_on_c, 0, 98, 100
2, 176640, Note_on_c, 0, 85, 100
2, 176640, Note_on_c, 0, 73, 100
2, 176640, Note_on_c, 0, 61, 100
2, 178320, Note_on_c, 0, 98, 0
2, 178320, Note_on_c, 0, 85, 0
2, 178320, Note_on_c, 0, 73, 0
2, 178320, Note_on_c, 0, 61, 0
2, 178560, Note_on_c, 0, 97, 100
2, 178560, Note_on_c, 0, 84, 100
2, 178560, Note_on_c, 0, 72, 100
2, 178560, Note_on_c, 0, 60, 100
2, 180240, Note_on_c, 0, 97, 0
2, 180240, Note_on_c, 0, 84, 0
2, 180240, Note_on_c, 0, 72, 0
2, 180240, Note_on_c, 0, 60, 0
2, 180450, Note_on_c, 0, 103, 100
2, 180450, Note_on_c, 0, 91, 100
2, 180450, Note_on_c, 0, 79, 100
2, 180450, Note_on_c, 0, 67, 100
2, 180480, Note_on_c, 0, 98, 100
2, 180480, Note_on_c, 0, 85, 100
2, 180480, Note_on_c, 0, 72, 100
2, 180480, Note_on_c, 0, 60, 100
2, 182640, Note_on_c, 0, 98, 0
2, 182640, Note_on_c, 0, 85, 0
2, 182640, Note_on_c, 0, 72, 0
2, 182640, Note_on_c, 0, 60, 0
2, 182880, Note_on_c, 0, 99, 100
2, 182880, Note_on_c, 0, 87, 100
2, 182880, Note_on_c, 0, 74, 100
2, 182880, Note_on_c, 0, 62, 100
2, 183120, Note_on_c, 0, 99, 0
2, 183120, Note_on_c, 0, 100, 100
2, 184080, Note_on_c, 0, 87, 0
2, 184080, Note_on_c, 0, 74, 0
2, 184080, Note_on_c, 0, 62, 0
2, 184080, Note_on_c, 0, 100, 0
2, 184320, Note_on_c, 0, 99, 100
2, 184320, Note_on_c, 0, 86, 100
2, 184320, Note_on_c, 0, 73, 100
2, 184320, Note_on_c, 0, 61, 100
2, 187920, Note_on_c, 0, 99, 0
2, 187920, Note_on_c, 0, 86, 0
2, 187920, Note_on_c, 0, 73, 0
2, 187920, Note_on_c, 0, 61, 0
2, 188130, Note_on_c, 0, 103, 0
2, 188130, Note_on_c, 0, 91, 0
2, 188130, Note_on_c, 0, 79, 0
2, 188130, Note_on_c, 0, 67, 0
2, 188160, Note_on_c, 0, 97, 100
2, 188160, Note_on_c, 0, 84, 100
2, 188160, Note_on_c, 0, 72, 100
2, 188160, Note_on_c, 0, 60, 100
2, 190320, Note_on_c, 0, 97, 0
2, 190320, Note_on_c, 0, 84, 0
2, 190320, Note_on_c, 0, 72, 0
2, 190320, Note_on_c, 0, 60, 0
2, 190560, Note_on_c, 0, 98, 100
2, 190560, Note_on_c, 0, 86, 100
2, 190560, Note_on_c, 0, 74, 100
2, 190560, Note_on_c, 0, 62, 100
2, 190800, Note_on_c, 0, 98, 0
2, 190800, Note_on_c, 0, 99, 100
2, 191760, Note_on_c, 0, 86, 0
2, 191760, Note_on_c, 0, 74, 0
2, 191760, Note_on_c, 0, 62, 0
2, 191760, Note_on_c, 0, 99, 0
2, 192000, Note_on_c, 0, 98, 100
2, 192000, Note_on_c, 0, 85, 100
2, 192000, Note_on_c, 0, 73, 100
2, 192000, Note_on_c, 0, 61, 100
2, 193680, Note_on_c, 0, 98, 0
2, 193680, Note_on_c, 0, 85, 0
2, 193680, Note_on_c, 0, 73, 0
2, 193680, Note_on_c, 0, 61, 0
2, 193920, Note_on_c, 0, 97, 100
2, 193920, Note_on_c, 0, 84, 100
2, 193920, Note_on_c, 0, 72, 100
2, 193920, Note_on_c, 0, 60, 100
2, 195600, Note_on_c, 0, 97, 0
2, 195600, Note_on_c, 0, 84, 0
2, 195600, Note_on_c, 0, 72, 0
2, 195600, Note_on_c, 0, 60, 0
2, 195810, Note_on_c, 0, 105, 0
2, 195810, Note_on_c, 0, 93, 0
2, 195810, Note_on_c, 0, 69, 0
2, 195810, Note_on_c, 0, 81, 0
2, 195840, Note_on_c, 0, 96, 100
2, 195840, Note_on_c, 0, 84, 100
2, 195840, Note_on_c, 0, 72, 100
2, 195840, Note_on_c, 0, 60, 100
2, 196080, Note_on_c, 0, 60, 0
2, 197520, Note_on_c, 0, 96, 0
2, 197520, Note_on_c, 0, 84, 0
2, 197520, Note_on_c, 0, 72, 0
2, 197760, Note_on_c, 0, 98, 100
2, 197760, Note_on_c, 0, 85, 100
2, 197760, Note_on_c, 0, 73, 100
2, 197760, Note_on_c, 0, 61, 100
2, 200400, Note_on_c, 0, 98, 0
2, 200400, Note_on_c, 0, 85, 0
2, 200400, Note_on_c, 0, 73, 0
2, 200400, Note_on_c, 0, 61, 0
2, 200640, Note_on_c, 0, 98, 100
2, 200640, Note_on_c, 0, 85, 100
2, 200640, Note_on_c, 0, 73, 100
2, 200880, Note_on_c, 0, 98, 0
2, 200880, Note_on_c, 0, 85, 0
2, 200880, Note_on_c, 0, 73, 0
2, 201120, Note_on_c, 0, 99, 100
2, 201360, Note_on_c, 0, 99, 0
2, 201600, Note_on_c, 0, 100, 100
2, 201600, Note_on_c, 0, 87, 100
2, 201600, Note_on_c, 0, 74, 100
2, 201600, Note_on_c, 0, 62, 100
2, 201840, Note_on_c, 0, 100, 0
2, 201840, Note_on_c, 0, 87, 0
2, 201840, Note_on_c, 0, 74, 0
2, 201840, Note_on_c, 0, 62, 0
2, 202080, Note_on_c, 0, 99, 100
2, 202080, Note_on_c, 0, 86, 100
2, 202320, Note_on_c, 0, 99, 0
2, 202320, Note_on_c, 0, 86, 0
2, 202560, Note_on_c, 0, 98, 100
2, 202560, Note_on_c, 0, 85, 100
2, 202800, Note_on_c, 0, 98, 0
2, 202800, Note_on_c, 0, 85, 0
2, 203040, Note_on_c, 0, 97, 100
2, 203280, Note_on_c, 0, 97, 0
2, 203520, Note_on_c, 0, 98, 100
2, 203520, Note_on_c, 0, 85, 100
2, 203520, Note_on_c, 0, 73, 100
2, 203520, Note_on_c, 0, 61, 100
2, 203760, Note_on_c, 0, 98, 0
2, 203760, Note_on_c, 0, 85, 0
2, 203760, Note_on_c, 0, 73, 0
2, 203760, Note_on_c, 0, 61, 0
2, 204480, Note_on_c, 0, 98, 100
2, 204480, Note_on_c, 0, 85, 100
2, 204480, Note_on_c, 0, 73, 100
2, 204480, Note_on_c, 0, 61, 100
2, 204720, Note_on_c, 0, 98, 0
2, 204720, Note_on_c, 0, 85, 0
2, 204720, Note_on_c, 0, 73, 0
2, 204720, Note_on_c, 0, 61, 0
2, 204960, Note_on_c, 0, 99, 100
2, 204960, Note_on_c, 0, 86, 100
2, 205200, Note_on_c, 0, 99, 0
2, 205200, Note_on_c, 0, 86, 0
2, 205440, Note_on_c, 0, 98, 100
2, 205440, Note_on_c, 0, 85, 100
2, 205440, Note_on_c, 0, 73, 100
2, 205440, Note_on_c, 0, 61, 100
2, 209040, Note_on_c, 0, 98, 0
2, 209040, Note_on_c, 0, 85, 0
2, 209040, Note_on_c, 0, 73, 0
2, 209040, Note_on_c, 0, 61, 0
2, 209280, Note_on_c, 0, 98, 100
2, 209280, Note_on_c, 0, 85, 100
2, 209280, Note_on_c, 0, 73, 100
2, 209280, Note_on_c, 0, 61, 100
2, 209520, Note_on_c, 0, 98, 0
2, 209520, Note_on_c, 0, 85, 0
2, 209520, Note_on_c, 0, 73, 0
2, 209520, Note_on_c, 0, 61, 0
2, 209760, Note_on_c, 0, 99, 100
2, 209760, Note_on_c, 0, 86, 100
2, 210000, Note_on_c, 0, 99, 0
2, 210000, Note_on_c, 0, 86, 0
2, 210240, Note_on_c, 0, 98, 100
2, 210240, Note_on_c, 0, 85, 100
2, 210240, Note_on_c, 0, 72, 100
2, 210480, Note_on_c, 0, 98, 0
2, 210480, Note_on_c, 0, 85, 0
2, 210480, Note_on_c, 0, 72, 0
2, 210720, Note_on_c, 0, 97, 100
2, 210960, Note_on_c, 0, 97, 0
2, 211170, Note_on_c, 0, 106, 0
2, 211170, Note_on_c, 0, 94, 0
2, 211170, Note_on_c, 0, 70, 0
2, 211170, Note_on_c, 0, 82, 0
2, 211170, Note_on_c, 0, 105, 100
2, 211170, Note_on_c, 0, 93, 100
2, 211170, Note_on_c, 0, 69, 100
2, 211170, Note_on_c, 0, 81, 100
2, 211200, Note_on_c, 0, 96, 100
2, 211200, Note_on_c, 0, 84, 100
2, 211200, Note_on_c, 0, 72, 100
2, 211200, Note_on_c, 0, 60, 100
2, 211440, Note_on_c, 0, 60, 0
2, 212880, Note_on_c, 0, 96, 0
2, 212880, Note_on_c, 0, 84, 0
2, 212880, Note_on_c, 0, 72, 0
2, 213120, Note_on_c, 0, 98, 100
2, 213120, Note_on_c, 0, 85, 100
2, 213120, Note_on_c, 0, 73, 100
2, 213120, Note_on_c, 0, 61, 100
2, 215760, Note_on_c, 0, 98, 0
2, 215760, Note_on_c, 0, 85, 0
2, 215760, Note_on_c, 0, 73, 0
2, 215760, Note_on_c, 0, 61, 0
2, 216000, Note_on_c, 0, 98, 100
2, 216000, Note_on_c, 0, 85, 100
2, 216000, Note_on_c, 0, 73, 100
2, 216240, Note_on_c, 0, 98, 0
2, 216240, Note_on_c, 0, 85, 0
2, 216240, Note_on_c, 0, 73, 0
2, 216480, Note_on_c, 0, 99, 100
2, 216720, Note_on_c, 0, 99, 0
2, 216960, Note_on_c, 0, 100, 100
2, 216960, Note_on_c, 0, 87, 100
2, 216960, Note_on_c, 0, 74, 100
2, 216960, Note_on_c, 0, 62, 100
2, 217200, Note_on_c, 0, 100, 0
2, 217200, Note_on_c, 0, 87, 0
2, 217200, Note_on_c, 0, 74, 0
2, 217200, Note_on_c, 0, 62, 0
2, 217440, Note_on_c, 0, 99, 100
2, 217440, Note_on_c, 0, 86, 100
2, 217680, Note_on_c, 0, 99, 0
2, 217680, Note_on_c, 0, 86, 0
2, 217920, Note_on_c, 0, 98, 100
2, 217920, Note_on_c, 0, 85, 100
2, 217920, Note_on_c, 0, 73, 100
2, 218160, Note_on_c, 0, 98, 0
2, 218160, Note_on_c, 0, 85, 0
2, 218160, Note_on_c, 0, 73, 0
2, 218400, Note_on_c, 0, 97, 100
2, 218640, Note_on_c, 0, 97, 0
2, 218880, Note_on_c, 0, 98, 100
2, 218880, Note_on_c, 0, 85, 100
2, 218880, Note_on_c, 0, 73, 100
2, 218880, Note_on_c, 0, 61, 100
2, 219120, Note_on_c, 0, 98, 0
2, 219120, Note_on_c, 0, 85, 0
2, 219120, Note_on_c, 0, 73, 0
2, 219120, Note_on_c, 0, 61, 0
2, 219840, Note_on_c, 0, 98, 100
2, 219840, Note_on_c, 0, 85, 100
2, 219840, Note_on_c, 0, 73, 100
2, 219840, Note_on_c, 0, 62, 100
2, 220080, Note_on_c, 0, 98, 0
2, 220080, Note_on_c, 0, 85, 0
2, 220080, Note_on_c, 0, 73, 0
2, 220080, Note_on_c, 0, 62, 0
2, 220320, Note_on_c, 0, 99, 100
2, 220320, Note_on_c, 0, 86, 100
2, 220560, Note_on_c, 0, 99, 0
2, 220560, Note_on_c, 0, 86, 0
2, 220800, Note_on_c, 0, 98, 100
2, 220800, Note_on_c, 0, 85, 100
2, 220800, Note_on_c, 0, 74, 100
2, 221040, Note_on_c, 0, 98, 0
2, 221040, Note_on_c, 0, 85, 0
2, 221040, Note_on_c, 0, 74, 0
2, 221760, Note_on_c, 0, 98, 100
2, 221760, Note_on_c, 0, 85, 100
2, 221760, Note_on_c, 0, 73, 100
2, 221760, Note_on_c, 0, 60, 100
2, 222000, Note_on_c, 0, 98, 0
2, 222000, Note_on_c, 0, 85, 0
2, 222000, Note_on_c, 0, 73, 0
2, 222000, Note_on_c, 0, 60, 0
2, 222240, Note_on_c, 0, 97, 100
2, 222240, Note_on_c, 0, 84, 100
2, 222480, Note_on_c, 0, 97, 0
2, 222480, Note_on_c, 0, 84, 0
2, 222720, Note_on_c, 0, 98, 100
2, 222720, Note_on_c, 0, 85, 100
2, 222720, Note_on_c, 0, 72, 100
2, 222960, Note_on_c, 0, 98, 0
2, 222960, Note_on_c, 0, 85, 0
2, 222960, Note_on_c, 0, 72, 0
2, 223650, Note_on_c, 0, 106, 100
2, 223650, Note_on_c, 0, 94, 100
2, 223650, Note_on_c, 0, 70, 100
2, 223650, Note_on_c, 0, 82, 100
2, 223680, Note_on_c, 0, 98, 100
2, 223680, Note_on_c, 0, 85, 100
2, 223680, Note_on_c, 0, 73, 100
2, 223680, Note_on_c, 0, 60, 100
2, 223920, Note_on_c, 0, 98, 0
2, 223920, Note_on_c, 0, 85, 0
2, 223920, Note_on_c, 0, 73, 0
2, 223920, Note_on_c, 0, 60, 0
2, 224160, Note_on_c, 0, 97, 100
2, 224160, Note_on_c, 0, 84, 100
2, 224400, Note_on_c, 0, 97, 0
2, 224400, Note_on_c, 0, 84, 0
2, 224640, Note_on_c, 0, 98, 100
2, 224640, Note_on_c, 0, 85, 100
2, 224640, Note_on_c, 0, 72, 100
2, 224880, Note_on_c, 0, 98, 0
2, 224880, Note_on_c, 0, 85, 0
2, 224880, Note_on_c, 0, 72, 0
2, 225120, Note_on_c, 0, 99, 100
2, 225120, Note_on_c, 0, 86, 100
2, 225360, Note_on_c, 0, 99, 0
2, 225360, Note_on_c, 0, 86, 0
2, 225600, Note_on_c, 0, 98, 100
2, 225600, Note_on_c, 0, 85, 100
2, 225600, Note_on_c, 0, 73, 100
2, 225600, Note_on_c, 0, 61, 100
2, 225840, Note_on_c, 0, 98, 0
2, 225840, Note_on_c, 0, 85, 0
2, 225840, Note_on_c, 0, 73, 0
2, 225840, Note_on_c, 0, 61, 0
2, 226080, Note_on_c, 0, 97, 100
2, 226320, Note_on_c, 0, 97, 0
2, 226560, Note_on_c, 0, 97, 100
2, 226560, Note_on_c, 0, 99, 100
2, 226560, Note_on_c, 0, 84, 100
2, 226560, Note_on_c, 0, 86, 100
2, 226560, Note_on_c, 0, 72, 100
2, 226560, Note_on_c, 0, 60, 100
2, 226800, Note_on_c, 0, 97, 0
2, 226800, Note_on_c, 0, 99, 0
2, 226800, Note_on_c, 0, 84, 0
2, 226800, Note_on_c, 0, 86, 0
2, 226800, Note_on_c, 0, 72, 0
2, 226800, Note_on_c, 0, 60, 0
2, 227040, Note_on_c, 0, 97, 100
2, 227040, Note_on_c, 0, 99, 100
2, 227040, Note_on_c, 0, 84, 100
2, 227040, Note_on_c, 0, 86, 100
2, 227040, Note_on_c, 0, 72, 100
2, 227040, Note_on_c, 0, 60, 100
2, 227040, Note_on_c, 0, 108, 100
2, 227280, Note_on_c, 0, 97, 0
2, 227280, Note_on_c, 0, 99, 0
2, 227280, Note_on_c, 0, 84, 0
2, 227280, Note_on_c, 0, 86, 0
2, 227280, Note_on_c, 0, 72, 0
2, 227280, Note_on_c, 0, 60, 0
2, 227280, Note_on_c, 0, 108, 0
2, 227520, Note_on_c, 0, 96, 100
2, 227520, Note_on_c, 0, 108, 100
2, 227760, Note_on_c, 0, 96, 0
2, 227760, Note_on_c, 0, 108, 0
2, 228000, Note_on_c, 0, 97, 100
2, 228000, Note_on_c, 0, 99, 100
2, 228000, Note_on_c, 0, 84, 100
2, 228000, Note_on_c, 0, 86, 100
2, 228000, Note_on_c, 0, 72, 100
2, 228000, Note_on_c, 0, 108, 100
2, 228240, Note_on_c, 0, 97, 0
2, 228240, Note_on_c, 0, 99, 0
2, 228240, Note_on_c, 0, 84, 0
2, 228240, Note_on_c, 0, 86, 0
2, 228240, Note_on_c, 0, 72, 0
2, 228240, Note_on_c, 0, 108, 0
2, 228480, Note_on_c, 0, 98, 100
2, 228480, Note_on_c, 0, 99, 100
2, 228480, Note_on_c, 0, 85, 100
2, 228480, Note_on_c, 0, 86, 100
2, 228480, Note_on_c, 0, 73, 100
2, 228480, Note_on_c, 0, 61, 100
2, 228480, Note_on_c, 0, 108, 100
2, 228720, Note_on_c, 0, 98, 0
2, 228720, Note_on_c, 0, 99, 0
2, 228720, Note_on_c, 0, 85, 0
2, 228720, Note_on_c, 0, 86, 0
2, 228720, Note_on_c, 0, 73, 0
2, 228720, Note_on_c, 0, 61, 0
2, 228720, Note_on_c, 0, 108, 0
2, 228960, Note_on_c, 0, 98, 100
2, 228960, Note_on_c, 0, 99, 100
2, 228960, Note_on_c, 0, 85, 100
2, 228960, Note_on_c, 0, 86, 100
2, 228960, Note_on_c, 0, 73, 100
2, 228960, Note_on_c, 0, 61, 100
2, 229200, Note_on_c, 0, 98, 0
2, 229200, Note_on_c, 0, 99, 0
2, 229200, Note_on_c, 0, 85, 0
2, 229200, Note_on_c, 0, 86, 0
2, 229200, Note_on_c, 0, 73, 0
2, 229200, Note_on_c, 0, 61, 0
2, 229440, Note_on_c, 0, 96, 100
2, 229680, Note_on_c, 0, 96, 0
2, 229920, Note_on_c, 0, 98, 100
2, 229920, Note_on_c, 0, 99, 100
2, 229920, Note_on_c, 0, 85, 100
2, 229920, Note_on_c, 0, 86, 100
2, 229920, Note_on_c, 0, 73, 100
2, 230160, Note_on_c, 0, 98, 0
2, 230160, Note_on_c, 0, 99, 0
2, 230160, Note_on_c, 0, 85, 0
2, 230160, Note_on_c, 0, 86, 0
2, 230160, Note_on_c, 0, 73, 0
2, 230370, Note_on_c, 0, 103, 100
2, 230370, Note_on_c, 0, 91, 100
2, 230370, Note_on_c, 0, 79, 100
2, 230370, Note_on_c, 0, 67, 100
2, 230400, Note_on_c, 0, 99, 100
2, 230400, Note_on_c, 0, 100, 100
2, 230400, Note_on_c, 0, 86, 100
2, 230400, Note_on_c, 0, 87, 100
2, 230400, Note_on_c, 0, 74, 100
2, 230400, Note_on_c, 0, 62, 100
2, 230640, Note_on_c, 0, 99, 0
2, 230640, Note_on_c, 0, 100, 0
2, 230640, Note_on_c, 0, 86, 0
2, 230640, Note_on_c, 0, 87, 0
2, 230640, Note_on_c, 0, 74, 0
2, 230640, Note_on_c, 0, 62, 0
2, 230880, Note_on_c, 0, 99, 100
2, 230880, Note_on_c, 0, 100, 100
2, 230880, Note_on_c, 0, 86, 100
2, 230880, Note_on_c, 0, 87, 100
2, 230880, Note_on_c, 0, 74, 100
2, 230880, Note_on_c, 0, 62, 100
2, 230880, Note_on_c, 0, 108, 100
2, 231120, Note_on_c, 0, 99, 0
2, 231120, Note_on_c, 0, 100, 0
2, 231120, Note_on_c, 0, 86, 0
2, 231120, Note_on_c, 0, 87, 0
2, 231120, Note_on_c, 0, 74, 0
2, 231120, Note_on_c, 0, 62, 0
2, 231120, Note_on_c, 0, 108, 0
2, 231360, Note_on_c, 0, 96, 100
2, 231360, Note_on_c, 0, 108, 100
2, 231600, Note_on_c, 0, 96, 0
2, 231600, Note_on_c, 0, 108, 0
2, 231840, Note_on_c, 0, 99, 100
2, 231840, Note_on_c, 0, 100, 100
2, 231840, Note_on_c, 0, 86, 100
2, 231840, Note_on_c, 0, 87, 100
2, 231840, Note_on_c, 0, 74, 100
2, 231840, Note_on_c, 0, 108, 100
2, 232080, Note_on_c, 0, 99, 0
2, 232080, Note_on_c, 0, 100, 0
2, 232080, Note_on_c, 0, 86, 0
2, 232080, Note_on_c, 0, 87, 0
2, 232080, Note_on_c, 0, 74, 0
2, 232080, Note_on_c, 0, 108, 0
2, 232320, Note_on_c, 0, 96, 100
2, 232320, Note_on_c, 0, 98, 100
2, 232320, Note_on_c, 0, 84, 100
2, 232320, Note_on_c, 0, 86, 100
2, 232320, Note_on_c, 0, 72, 100
2, 232320, Note_on_c, 0, 60, 100
2, 232320, Note_on_c, 0, 108, 100
2, 232530, Note_on_c, 0, 103, 0
2, 232530, Note_on_c, 0, 91, 0
2, 232530, Note_on_c, 0, 79, 0
2, 232530, Note_on_c, 0, 67, 0
2, 232560, Note_on_c, 0, 96, 0
2, 232560, Note_on_c, 0, 98, 0
2, 232560, Note_on_c, 0, 84, 0
2, 232560, Note_on_c, 0, 86, 0
2, 232560, Note_on_c, 0, 72, 0
2, 232560, Note_on_c, 0, 60, 0
2, 232560, Note_on_c, 0, 108, 0
2, 232800, Note_on_c, 0, 108, 100
2, 233040, Note_on_c, 0, 108, 0
2, 233280, Note_on_c, 0, 108, 100
2, 233520, Note_on_c, 0, 108, 0
2, 234210, Note_on_c, 0, 105, 0
2, 234210, Note_on_c, 0, 93, 0
2, 234210, Note_on_c, 0, 69, 0
2, 234210, Note_on_c, 0, 81, 0
2, 234240, Note_on_c, 0, 99, 100
2, 234240, Note_on_c, 0, 87, 100
2, 234240, Note_on_c, 0, 74, 100
2, 234240, Note_on_c, 0, 62, 100
2, 234480, Note_on_c, 0, 99, 0
2, 234480, Note_on_c, 0, 87, 0
2, 234480, Note_on_c, 0, 74, 0
2, 234480, Note_on_c, 0, 62, 0
2, 234720, Note_on_c, 0, 99, 100
2, 234720, Note_on_c, 0, 87, 100
2, 234720, Note_on_c, 0, 74, 100
2, 234720, Note_on_c, 0, 62, 100
2, 234720, Note_on_c, 0, 108, 100
2, 234960, Note_on_c, 0, 99, 0
2, 234960, Note_on_c, 0, 87, 0
2, 234960, Note_on_c, 0, 74, 0
2, 234960, Note_on_c, 0, 62, 0
2, 234960, Note_on_c, 0, 108, 0
2, 235200, Note_on_c, 0, 108, 100
2, 235440, Note_on_c, 0, 108, 0
2, 235680, Note_on_c, 0, 99, 100
2, 235680, Note_on_c, 0, 87, 100
2, 235680, Note_on_c, 0, 74, 100
2, 235680, Note_on_c, 0, 108, 100
2, 235920, Note_on_c, 0, 99, 0
2, 235920, Note_on_c, 0, 87, 0
2, 235920, Note_on_c, 0, 74, 0
2, 235920, Note_on_c, 0, 108, 0
2, 236160, Note_on_c, 0, 97, 100
2, 236160, Note_on_c, 0, 85, 100
2, 236160, Note_on_c, 0, 72, 100
2, 236160, Note_on_c, 0, 60, 100
2, 236160, Note_on_c, 0, 108, 100
2, 236400, Note_on_c, 0, 97, 0
2, 236400, Note_on_c, 0, 85, 0
2, 236400, Note_on_c, 0, 72, 0
2, 236400, Note_on_c, 0, 60, 0
2, 236400, Note_on_c, 0, 108, 0
2, 236640, Note_on_c, 0, 97, 100
2, 236640, Note_on_c, 0, 85, 100
2, 236640, Note_on_c, 0, 72, 100
2, 236640, Note_on_c, 0, 60, 100
2, 236880, Note_on_c, 0, 97, 0
2, 236880, Note_on_c, 0, 85, 0
2, 236880, Note_on_c, 0, 72, 0
2, 236880, Note_on_c, 0, 60, 0
2, 237600, Note_on_c, 0, 97, 100
2, 237600, Note_on_c, 0, 85, 100
2, 237600, Note_on_c, 0, 72, 100
2, 237840, Note_on_c, 0, 97, 0
2, 237840, Note_on_c, 0, 85, 0
2, 237840, Note_on_c, 0, 72, 0
2, 238080, Note_on_c, 0, 98, 100
2, 238080, Note_on_c, 0, 86, 100
2, 238080, Note_on_c, 0, 73, 100
2, 238080, Note_on_c, 0, 61, 100
2, 238320, Note_on_c, 0, 98, 0
2, 238320, Note_on_c, 0, 86, 0
2, 238320, Note_on_c, 0, 73, 0
2, 238320, Note_on_c, 0, 61, 0
2, 238560, Note_on_c, 0, 98, 100
2, 238560, Note_on_c, 0, 86, 100
2, 238560, Note_on_c, 0, 73, 100
2, 238560, Note_on_c, 0, 61, 100
2, 238560, Note_on_c, 0, 108, 100
2, 238800, Note_on_c, 0, 98, 0
2, 238800, Note_on_c, 0, 86, 0
2, 238800, Note_on_c, 0, 73, 0
2, 238800, Note_on_c, 0, 61, 0
2, 238800, Note_on_c, 0, 108, 0
2, 239040, Note_on_c, 0, 108, 100
2, 239280, Note_on_c, 0, 108, 0
2, 239520, Note_on_c, 0, 98, 100
2, 239520, Note_on_c, 0, 86, 100
2, 239520, Note_on_c, 0, 73, 100
2, 239520, Note_on_c, 0, 108, 100
2, 239760, Note_on_c, 0, 98, 0
2, 239760, Note_on_c, 0, 86, 0
2, 239760, Note_on_c, 0, 73, 0
2, 239760, Note_on_c, 0, 108, 0
2, 240000, Note_on_c, 0, 96, 100
2, 240000, Note_on_c, 0, 84, 100
2, 240000, Note_on_c, 0, 72, 100
2, 240000, Note_on_c, 0, 60, 100
2, 240000, Note_on_c, 0, 108, 100
2, 240240, Note_on_c, 0, 96, 0
2, 240240, Note_on_c, 0, 84, 0
2, 240240, Note_on_c, 0, 72, 0
2, 240240, Note_on_c, 0, 60, 0
2, 240240, Note_on_c, 0, 108, 0
2, 240480, Note_on_c, 0, 108, 100
2, 240720, Note_on_c, 0, 108, 0
2, 240960, Note_on_c, 0, 108, 100
2, 241200, Note_on_c, 0, 108, 0
2, 241890, Note_on_c, 0, 106, 0
2, 241890, Note_on_c, 0, 94, 0
2, 241890, Note_on_c, 0, 70, 0
2, 241890, Note_on_c, 0, 82, 0
2, 241890, Note_on_c, 0, 105, 100
2, 241890, Note_on_c, 0, 93, 100
2, 241890, Note_on_c, 0, 69, 100
2, 241890, Note_on_c, 0, 81, 100
2, 241920, Note_on_c, 0, 98, 100
2, 241920, Note_on_c, 0, 85, 100
2, 241920, Note_on_c, 0, 72, 100
2, 241920, Note_on_c, 0, 60, 100
2, 242160, Note_on_c, 0, 98, 0
2, 242160, Note_on_c, 0, 85, 0
2, 242160, Note_on_c, 0, 72, 0
2, 242160, Note_on_c, 0, 60, 0
2, 242400, Note_on_c, 0, 98, 100
2, 242400, Note_on_c, 0, 85, 100
2, 242400, Note_on_c, 0, 72, 100
2, 242400, Note_on_c, 0, 60, 100
2, 242400, Note_on_c, 0, 108, 100
2, 242640, Note_on_c, 0, 98, 0
2, 242640, Note_on_c, 0, 85, 0
2, 242640, Note_on_c, 0, 72, 0
2, 242640, Note_on_c, 0, 60, 0
2, 242640, Note_on_c, 0, 108, 0
2, 242880, Note_on_c, 0, 96, 100
2, 242880, Note_on_c, 0, 84, 100
2, 242880, Note_on_c, 0, 108, 100
2, 243120, Note_on_c, 0, 96, 0
2, 243120, Note_on_c, 0, 84, 0
2, 243120, Note_on_c, 0, 108, 0
2, 243360, Note_on_c, 0, 98, 100
2, 243360, Note_on_c, 0, 85, 100
2, 243360, Note_on_c, 0, 72, 100
2, 243360, Note_on_c, 0, 108, 100
2, 243600, Note_on_c, 0, 98, 0
2, 243600, Note_on_c, 0, 85, 0
2, 243600, Note_on_c, 0, 72, 0
2, 243600, Note_on_c, 0, 108, 0
2, 243840, Note_on_c, 0, 99, 100
2, 243840, Note_on_c, 0, 86, 100
2, 243840, Note_on_c, 0, 73, 100
2, 243840, Note_on_c, 0, 61, 100
2, 243840, Note_on_c, 0, 108, 100
2, 244080, Note_on_c, 0, 99, 0
2, 244080, Note_on_c, 0, 86, 0
2, 244080, Note_on_c, 0, 73, 0
2, 244080, Note_on_c, 0, 61, 0
2, 244080, Note_on_c, 0, 108, 0
2, 244320, Note_on_c, 0, 99, 100
2, 244320, Note_on_c, 0, 86, 100
2, 244320, Note_on_c, 0, 73, 100
2, 244320, Note_on_c, 0, 61, 100
2, 244560, Note_on_c, 0, 99, 0
2, 244560, Note_on_c, 0, 86, 0
2, 244560, Note_on_c, 0, 73, 0
2, 244560, Note_on_c, 0, 61, 0
2, 244800, Note_on_c, 0, 96, 100
2, 244800, Note_on_c, 0, 84, 100
2, 245040, Note_on_c, 0, 96, 0
2, 245040, Note_on_c, 0, 84, 0
2, 245280, Note_on_c, 0, 99, 100
2, 245280, Note_on_c, 0, 86, 100
2, 245280, Note_on_c, 0, 73, 100
2, 245520, Note_on_c, 0, 99, 0
2, 245520, Note_on_c, 0, 86, 0
2, 245520, Note_on_c, 0, 73, 0
2, 245760, Note_on_c, 0, 100, 100
2, 245760, Note_on_c, 0, 87, 100
2, 245760, Note_on_c, 0, 74, 100
2, 245760, Note_on_c, 0, 62, 100
2, 246000, Note_on_c, 0, 100, 0
2, 246000, Note_on_c, 0, 87, 0
2, 246000, Note_on_c, 0, 74, 0
2, 246000, Note_on_c, 0, 62, 0
2, 246240, Note_on_c, 0, 100, 100
2, 246240, Note_on_c, 0, 87, 100
2, 246240, Note_on_c, 0, 74, 100
2, 246240, Note_on_c, 0, 62, 100
2, 246240, Note_on_c, 0, 108, 100
2, 246480, Note_on_c, 0, 100, 0
2, 246480, Note_on_c, 0, 87, 0
2, 246480, Note_on_c, 0, 74, 0
2, 246480, Note_on_c, 0, 62, 0
2, 246480, Note_on_c, 0, 108, 0
2, 246720, Note_on_c, 0, 96, 100
2, 246720, Note_on_c, 0, 84, 100
2, 246720, Note_on_c, 0, 108, 100
2, 246960, Note_on_c, 0, 96, 0
2, 246960, Note_on_c, 0, 84, 0
2, 246960, Note_on_c, 0, 108, 0
2, 247200, Note_on_c, 0, 100, 100
2, 247200, Note_on_c, 0, 87, 100
2, 247200, Note_on_c, 0, 74, 100
2, 247200, Note_on_c, 0, 108, 100
2, 247440, Note_on_c, 0, 100, 0
2, 247440, Note_on_c, 0, 87, 0
2, 247440, Note_on_c, 0, 74, 0
2, 247440, Note_on_c, 0, 108, 0
2, 247680, Note_on_c, 0, 96, 100
2, 247680, Note_on_c, 0, 98, 100
2, 247680, Note_on_c, 0, 84, 100
2, 247680, Note_on_c, 0, 72, 100
2, 247680, Note_on_c, 0, 60, 100
2, 247680, Note_on_c, 0, 108, 100
2, 247920, Note_on_c, 0, 96, 0
2, 247920, Note_on_c, 0, 98, 0
2, 247920, Note_on_c, 0, 84, 0
2, 247920, Note_on_c, 0, 72, 0
2, 247920, Note_on_c, 0, 60, 0
2, 247920, Note_on_c, 0, 108, 0
2, 248160, Note_on_c, 0, 108, 100
2, 248400, Note_on_c, 0, 108, 0
2, 248640, Note_on_c, 0, 108, 100
2, 248880, Note_on_c, 0, 108, 0
2, 249570, Note_on_c, 0, 105, 0
2, 249570, Note_on_c, 0, 93, 0
2, 249570, Note_on_c, 0, 69, 0
2, 249570, Note_on_c, 0, 81, 0
2, 249570, Note_on_c, 0, 106, 100
2, 249570, Note_on_c, 0, 94, 100
2, 249570, Note_on_c, 0, 70, 100
2, 249570, Note_on_c, 0, 82, 100
2, 249600, Note_on_c, 0, 99, 100
2, 249600, Note_on_c, 0, 87, 100
2, 249600, Note_on_c, 0, 74, 100
2, 249600, Note_on_c, 0, 62, 100
2, 249840, Note_on_c, 0, 99, 0
2, 249840, Note_on_c, 0, 87, 0
2, 249840, Note_on_c, 0, 74, 0
2, 249840, Note_on_c, 0, 62, 0
2, 250080, Note_on_c, 0, 99, 100
2, 250080, Note_on_c, 0, 87, 100
2, 250080, Note_on_c, 0, 74, 100
2, 250080, Note_on_c, 0, 62, 100
2, 250080, Note_on_c, 0, 108, 100
2, 250320, Note_on_c, 0, 99, 0
2, 250320, Note_on_c, 0, 87, 0
2, 250320, Note_on_c, 0, 74, 0
2, 250320, Note_on_c, 0, 62, 0
2, 250320, Note_on_c, 0, 108, 0
2, 250560, Note_on_c, 0, 108, 100
2, 250800, Note_on_c, 0, 108, 0
2, 251040, Note_on_c, 0, 99, 100
2, 251040, Note_on_c, 0, 87, 100
2, 251040, Note_on_c, 0, 74, 100
2, 251040, Note_on_c, 0, 108, 100
2, 251280, Note_on_c, 0, 99, 0
2, 251280, Note_on_c, 0, 87, 0
2, 251280, Note_on_c, 0, 74, 0
2, 251280, Note_on_c, 0, 108, 0
2, 251520, Note_on_c, 0, 97, 100
2, 251520, Note_on_c, 0, 85, 100
2, 251520, Note_on_c, 0, 72, 100
2, 251520, Note_on_c, 0, 60, 100
2, 251520, Note_on_c, 0, 108, 100
2, 251760, Note_on_c, 0, 97, 0
2, 251760, Note_on_c, 0, 85, 0
2, 251760, Note_on_c, 0, 72, 0
2, 251760, Note_on_c, 0, 60, 0
2, 251760, Note_on_c, 0, 108, 0
2, 252000, Note_on_c, 0, 97, 100
2, 252000, Note_on_c, 0, 85, 100
2, 252000, Note_on_c, 0, 72, 100
2, 252000, Note_on_c, 0, 60, 100
2, 252240, Note_on_c, 0, 97, 0
2, 252240, Note_on_c, 0, 85, 0
2, 252240, Note_on_c, 0, 72, 0
2, 252240, Note_on_c, 0, 60, 0
2, 252960, Note_on_c, 0, 97, 100
2, 252960, Note_on_c, 0, 85, 100
2, 252960, Note_on_c, 0, 72, 100
2, 253200, Note_on_c, 0, 97, 0
2, 253200, Note_on_c, 0, 85, 0
2, 253200, Note_on_c, 0, 72, 0
2, 253440, Note_on_c, 0, 98, 100
2, 253440, Note_on_c, 0, 86, 100
2, 253440, Note_on_c, 0, 73, 100
2, 253440, Note_on_c, 0, 61, 100
2, 253680, Note_on_c, 0, 98, 0
2, 253680, Note_on_c, 0, 86, 0
2, 253680, Note_on_c, 0, 73, 0
2, 253680, Note_on_c, 0, 61, 0
2, 253920, Note_on_c, 0, 98, 100
2, 253920, Note_on_c, 0, 86, 100
2, 253920, Note_on_c, 0, 73, 100
2, 253920, Note_on_c, 0, 61, 100
2, 253920, Note_on_c, 0, 108, 100
2, 254160, Note_on_c, 0, 98, 0
2, 254160, Note_on_c, 0, 86, 0
2, 254160, Note_on_c, 0, 73, 0
2, 254160, Note_on_c, 0, 61, 0
2, 254160, Note_on_c, 0, 108, 0
2, 254400, Note_on_c, 0, 108, 100
2, 254640, Note_on_c, 0, 108, 0
2, 254880, Note_on_c, 0, 98, 100
2, 254880, Note_on_c, 0, 86, 100
2, 254880, Note_on_c, 0, 73, 100
2, 254880, Note_on_c, 0, 108, 100
2, 255120, Note_on_c, 0, 98, 0
2, 255120, Note_on_c, 0, 86, 0
2, 255120, Note_on_c, 0, 73, 0
2, 255120, Note_on_c, 0, 108, 0
2, 255360, Note_on_c, 0, 96, 100
2, 255360, Note_on_c, 0, 84, 100
2, 255360, Note_on_c, 0, 72, 100
2, 255360, Note_on_c, 0, 60, 100
2, 255360, Note_on_c, 0, 108, 100
2, 255600, Note_on_c, 0, 96, 0
2, 255600, Note_on_c, 0, 84, 0
2, 255600, Note_on_c, 0, 72, 0
2, 255600, Note_on_c, 0, 60, 0
2, 255600, Note_on_c, 0, 108, 0
2, 255840, Note_on_c, 0, 108, 100
2, 256080, Note_on_c, 0, 108, 0
2, 256320, Note_on_c, 0, 108, 100
2, 256560, Note_on_c, 0, 108, 0
2, 256800, Note_on_c, 0, 108, 100
2, 257040, Note_on_c, 0, 108, 0
2, 257250, Note_on_c, 0, 106, 0
2, 257250, Note_on_c, 0, 94, 0
2, 257250, Note_on_c, 0, 70, 0
2, 257250, Note_on_c, 0, 82, 0
2, 257250, Note_on_c, 0, 105, 100
2, 257250, Note_on_c, 0, 93, 100
2, 257250, Note_on_c, 0, 69, 100
2, 257250, Note_on_c, 0, 81, 100
2, 257280, Note_on_c, 0, 98, 100
2, 257280, Note_on_c, 0, 85, 100
2, 257280, Note_on_c, 0, 73, 100
2, 257280, Note_on_c, 0, 99, 100
2, 257280, Note_on_c, 0, 61, 100
2, 257280, Note_on_c, 0, 108, 100
2, 257520, Note_on_c, 0, 98, 0
2, 257520, Note_on_c, 0, 85, 0
2, 257520, Note_on_c, 0, 73, 0
2, 257520, Note_on_c, 0, 99, 0
2, 257520, Note_on_c, 0, 61, 0
2, 257520, Note_on_c, 0, 108, 0
2, 258240, Note_on_c, 0, 98, 100
2, 258240, Note_on_c, 0, 85, 100
2, 258240, Note_on_c, 0, 73, 100
2, 258240, Note_on_c, 0, 99, 100
2, 258240, Note_on_c, 0, 61, 100
2, 258480, Note_on_c, 0, 98, 0
2, 258480, Note_on_c, 0, 85, 0
2, 258480, Note_on_c, 0, 73, 0
2, 258480, Note_on_c, 0, 99, 0
2, 258480, Note_on_c, 0, 61, 0
2, 259200, Note_on_c, 0, 98, 100
2, 259200, Note_on_c, 0, 85, 100
2, 259200, Note_on_c, 0, 73, 100
2, 259200, Note_on_c, 0, 99, 100
2, 259200, Note_on_c, 0, 61, 100
2, 259440, Note_on_c, 0, 98, 0
2, 259440, Note_on_c, 0, 85, 0
2, 259440, Note_on_c, 0, 73, 0
2, 259440, Note_on_c, 0, 99, 0
2, 259440, Note_on_c, 0, 61, 0
2, 260160, Note_on_c, 0, 98, 100
2, 260160, Note_on_c, 0, 85, 100
2, 260160, Note_on_c, 0, 74, 100
2, 260160, Note_on_c, 0, 99, 100
2, 260160, Note_on_c, 0, 62, 100
2, 260400, Note_on_c, 0, 98, 0
2, 260400, Note_on_c, 0, 85, 0
2, 260400, Note_on_c, 0, 74, 0
2, 260400, Note_on_c, 0, 99, 0
2, 260400, Note_on_c, 0, 62, 0
2, 260640, Note_on_c, 0, 100, 100
2, 260640, Note_on_c, 0, 86, 100
2, 260880, Note_on_c, 0, 100, 0
2, 260880, Note_on_c, 0, 86, 0
2, 261120, Note_on_c, 0, 97, 100
2, 261120, Note_on_c, 0, 84, 100
2, 261120, Note_on_c, 0, 72, 100
2, 261120, Note_on_c, 0, 98, 100
2, 261120, Note_on_c, 0, 60, 100
2, 261360, Note_on_c, 0, 97, 0
2, 261360, Note_on_c, 0, 84, 0
2, 261360, Note_on_c, 0, 72, 0
2, 261360, Note_on_c, 0, 98, 0
2, 261360, Note_on_c, 0, 60, 0
2, 262080, Note_on_c, 0, 97, 100
2, 262080, Note_on_c, 0, 84, 100
2, 262080, Note_on_c, 0, 72, 100
2, 262080, Note_on_c, 0, 98, 100
2, 262080, Note_on_c, 0, 60, 100
2, 262320, Note_on_c, 0, 97, 0
2, 262320, Note_on_c, 0, 84, 0
2, 262320, Note_on_c, 0, 72, 0
2, 262320, Note_on_c, 0, 98, 0
2, 262320, Note_on_c, 0, 60, 0
2, 263010, Note_on_c, 0, 106, 100
2, 263010, Note_on_c, 0, 94, 100
2, 263010, Note_on_c, 0, 70, 100
2, 263010, Note_on_c, 0, 82, 100
2, 263010, Note_on_c, 0, 103, 100
2, 263010, Note_on_c, 0, 91, 100
2, 263010, Note_on_c, 0, 79, 100
2, 263010, Note_on_c, 0, 67, 100
2, 263040, Note_on_c, 0, 97, 100
2, 263040, Note_on_c, 0, 84, 100
2, 263040, Note_on_c, 0, 72, 100
2, 263040, Note_on_c, 0, 60, 100
2, 263280, Note_on_c, 0, 97, 0
2, 263280, Note_on_c, 0, 84, 0
2, 263280, Note_on_c, 0, 72, 0
2, 263280, Note_on_c, 0, 60, 0
2, 263520, Note_on_c, 0, 98, 100
2, 263520, Note_on_c, 0, 85, 100
2, 263760, Note_on_c, 0, 98, 0
2, 263760, Note_on_c, 0, 85, 0
2, 264000, Note_on_c, 0, 99, 100
2, 264000, Note_on_c, 0, 86, 100
2, 264000, Note_on_c, 0, 73, 100
2, 264240, Note_on_c, 0, 99, 0
2, 264240, Note_on_c, 0, 86, 0
2, 264240, Note_on_c, 0, 73, 0
2, 264480, Note_on_c, 0, 100, 100
2, 264480, Note_on_c, 0, 87, 100
2, 264720, Note_on_c, 0, 100, 0
2, 264720, Note_on_c, 0, 87, 0
2, 264930, Note_on_c, 0, 105, 0
2, 264930, Note_on_c, 0, 93, 0
2, 264930, Note_on_c, 0, 69, 0
2, 264930, Note_on_c, 0, 81, 0
2, 264930, Note_on_c, 0, 103, 0
2, 264930, Note_on_c, 0, 91, 0
2, 264930, Note_on_c, 0, 79, 0
2, 264930, Note_on_c, 0, 67, 0
2, 264960, Note_on_c, 0, 98, 100
2, 264960, Note_on_c, 0, 99, 100
2, 264960, Note_on_c, 0, 85, 100
2, 264960, Note_on_c, 0, 73, 100
2, 264960, Note_on_c, 0, 61, 100
2, 265200, Note_on_c, 0, 98, 0
2, 265200, Note_on_c, 0, 99, 0
2, 265200, Note_on_c, 0, 85, 0
2, 265200, Note_on_c, 0, 73, 0
2, 265200, Note_on_c, 0, 61, 0
2, 265920, Note_on_c, 0, 98, 100
2, 265920, Note_on_c, 0, 99, 100
2, 265920, Note_on_c, 0, 85, 100
2, 265920, Note_on_c, 0, 73, 100
2, 265920, Note_on_c, 0, 61, 100
2, 266160, Note_on_c, 0, 98, 0
2, 266160, Note_on_c, 0, 99, 0
2, 266160, Note_on_c, 0, 85, 0
2, 266160, Note_on_c, 0, 73, 0
2, 266160, Note_on_c, 0, 61, 0
2, 266880, Note_on_c, 0, 98, 100
2, 266880, Note_on_c, 0, 99, 100
2, 266880, Note_on_c, 0, 85, 100
2, 266880, Note_on_c, 0, 73, 100
2, 266880, Note_on_c, 0, 61, 100
2, 267120, Note_on_c, 0, 98, 0
2, 267120, Note_on_c, 0, 99, 0
2, 267120, Note_on_c, 0, 85, 0
2, 267120, Note_on_c, 0, 73, 0
2, 267120, Note_on_c, 0, 61, 0
2, 267840, Note_on_c, 0, 98, 100
2, 267840, Note_on_c, 0, 99, 100
2, 267840, Note_on_c, 0, 85, 100
2, 267840, Note_on_c, 0, 74, 100
2, 267840, Note_on_c, 0, 62, 100
2, 268080, Note_on_c, 0, 98, 0
2, 268080, Note_on_c, 0, 99, 0
2, 268080, Note_on_c, 0, 85, 0
2, 268080, Note_on_c, 0, 74, 0
2, 268080, Note_on_c, 0, 62, 0
2, 268320, Note_on_c, 0, 100, 100
2, 268320, Note_on_c, 0, 86, 100
2, 268560, Note_on_c, 0, 100, 0
2, 268560, Note_on_c, 0, 86, 0
2, 268800, Note_on_c, 0, 97, 100
2, 268800, Note_on_c, 0, 98, 100
2, 268800, Note_on_c, 0, 84, 100
2, 268800, Note_on_c, 0, 72, 100
2, 268800, Note_on_c, 0, 60, 100
2, 269040, Note_on_c, 0, 97, 0
2, 269040, Note_on_c, 0, 98, 0
2, 269040, Note_on_c, 0, 84, 0
2, 269040, Note_on_c, 0, 72, 0
2, 269040, Note_on_c, 0, 60, 0
2, 269760, Note_on_c, 0, 97, 100
2, 269760, Note_on_c, 0, 98, 100
2, 269760, Note_on_c, 0, 84, 100
2, 269760, Note_on_c, 0, 72, 100
2, 269760, Note_on_c, 0, 60, 100
2, 270000, Note_on_c, 0, 97, 0
2, 270000, Note_on_c, 0, 98, 0
2, 270000, Note_on_c, 0, 84, 0
2, 270000, Note_on_c, 0, 72, 0
2, 270000, Note_on_c, 0, 60, 0
2, 270690, Note_on_c, 0, 105, 100
2, 270690, Note_on_c, 0, 93, 100
2, 270690, Note_on_c, 0, 69, 100
2, 270690, Note_on_c, 0, 81, 100
2, 270720, Note_on_c, 0, 97, 100
2, 270720, Note_on_c, 0, 84, 100
2, 270720, Note_on_c, 0, 72, 100
2, 270720, Note_on_c, 0, 60, 100
2, 270960, Note_on_c, 0, 97, 0
2, 270960, Note_on_c, 0, 84, 0
2, 270960, Note_on_c, 0, 72, 0
2, 270960, Note_on_c, 0, 60, 0
2, 271200, Note_on_c, 0, 98, 100
2, 271200, Note_on_c, 0, 85, 100
2, 271440, Note_on_c, 0, 98, 0
2, 271440, Note_on_c, 0, 85, 0
2, 271680, Note_on_c, 0, 99, 100
2, 271680, Note_on_c, 0, 86, 100
2, 271680, Note_on_c, 0, 73, 100
2, 271920, Note_on_c, 0, 99, 0
2, 271920, Note_on_c, 0, 86, 0
2, 271920, Note_on_c, 0, 73, 0
2, 272160, Note_on_c, 0, 100, 100
2, 272160, Note_on_c, 0, 87, 100
2, 272400, Note_on_c, 0, 100, 0
2, 272400, Note_on_c, 0, 87, 0
2, 272610, Note_on_c, 0, 106, 0
2, 272610, Note_on_c, 0, 94, 0
2, 272610, Note_on_c, 0, 70, 0
2, 272610, Note_on_c, 0, 82, 0
2, 272640, Note_on_c, 0, 97, 100
2, 272640, Note_on_c, 0, 99, 100
2, 272640, Note_on_c, 0, 85, 100
2, 272640, Note_on_c, 0, 86, 100
2, 272640, Note_on_c, 0, 74, 100
2, 272640, Note_on_c, 0, 62, 100
2, 272880, Note_on_c, 0, 97, 0
2, 272880, Note_on_c, 0, 99, 0
2, 272880, Note_on_c, 0, 85, 0
2, 272880, Note_on_c, 0, 86, 0
2, 272880, Note_on_c, 0, 74, 0
2, 272880, Note_on_c, 0, 62, 0
2, 273120, Note_on_c, 0, 97, 100
2, 273120, Note_on_c, 0, 99, 100
2, 273120, Note_on_c, 0, 85, 100
2, 273120, Note_on_c, 0, 86, 100
2, 273120, Note_on_c, 0, 74, 100
2, 273120, Note_on_c, 0, 108, 100
2, 273360, Note_on_c, 0, 97, 0
2, 273360, Note_on_c, 0, 99, 0
2, 273360, Note_on_c, 0, 85, 0
2, 273360, Note_on_c, 0, 86, 0
2, 273360, Note_on_c, 0, 74, 0
2, 273360, Note_on_c, 0, 108, 0
2, 273600, Note_on_c, 0, 99, 100
2, 273600, Note_on_c, 0, 97, 100
2, 273600, Note_on_c, 0, 86, 100
2, 273600, Note_on_c, 0, 85, 100
2, 273600, Note_on_c, 0, 74, 100
2, 273600, Note_on_c, 0, 62, 100
2, 273600, Note_on_c, 0, 108, 100
2, 273840, Note_on_c, 0, 99, 0
2, 273840, Note_on_c, 0, 97, 0
2, 273840, Note_on_c, 0, 86, 0
2, 273840, Note_on_c, 0, 85, 0
2, 273840, Note_on_c, 0, 74, 0
2, 273840, Note_on_c, 0, 62, 0
2, 273840, Note_on_c, 0, 108, 0
2, 274080, Note_on_c, 0, 97, 100
2, 274080, Note_on_c, 0, 99, 100
2, 274080, Note_on_c, 0, 85, 100
2, 274080, Note_on_c, 0, 86, 100
2, 274080, Note_on_c, 0, 74, 100
2, 274080, Note_on_c, 0, 108, 100
2, 274320, Note_on_c, 0, 97, 0
2, 274320, Note_on_c, 0, 99, 0
2, 274320, Note_on_c, 0, 85, 0
2, 274320, Note_on_c, 0, 86, 0
2, 274320, Note_on_c, 0, 74, 0
2, 274320, Note_on_c, 0, 108, 0
2, 274560, Note_on_c, 0, 96, 100
2, 274560, Note_on_c, 0, 98, 100
2, 274560, Note_on_c, 0, 84, 100
2, 274560, Note_on_c, 0, 85, 100
2, 274560, Note_on_c, 0, 72, 100
2, 274560, Note_on_c, 0, 60, 100
2, 274560, Note_on_c, 0, 108, 100
2, 274800, Note_on_c, 0, 96, 0
2, 274800, Note_on_c, 0, 98, 0
2, 274800, Note_on_c, 0, 84, 0
2, 274800, Note_on_c, 0, 85, 0
2, 274800, Note_on_c, 0, 72, 0
2, 274800, Note_on_c, 0, 60, 0
2, 274800, Note_on_c, 0, 108, 0
2, 275040, Note_on_c, 0, 96, 100
2, 275040, Note_on_c, 0, 98, 100
2, 275040, Note_on_c, 0, 84, 100
2, 275040, Note_on_c, 0, 85, 100
2, 275040, Note_on_c, 0, 72, 100
2, 275280, Note_on_c, 0, 96, 0
2, 275280, Note_on_c, 0, 98, 0
2, 275280, Note_on_c, 0, 84, 0
2, 275280, Note_on_c, 0, 85, 0
2, 275280, Note_on_c, 0, 72, 0
2, 275520, Note_on_c, 0, 98, 100
2, 275520, Note_on_c, 0, 96, 100
2, 275520, Note_on_c, 0, 85, 100
2, 275520, Note_on_c, 0, 84, 100
2, 275520, Note_on_c, 0, 72, 100
2, 275520, Note_on_c, 0, 60, 100
2, 275760, Note_on_c, 0, 98, 0
2, 275760, Note_on_c, 0, 96, 0
2, 275760, Note_on_c, 0, 85, 0
2, 275760, Note_on_c, 0, 84, 0
2, 275760, Note_on_c, 0, 72, 0
2, 275760, Note_on_c, 0, 60, 0
2, 276000, Note_on_c, 0, 96, 100
2, 276000, Note_on_c, 0, 98, 100
2, 276000, Note_on_c, 0, 84, 100
2, 276000, Note_on_c, 0, 85, 100
2, 276000, Note_on_c, 0, 72, 100
2, 276240, Note_on_c, 0, 96, 0
2, 276240, Note_on_c, 0, 98, 0
2, 276240, Note_on_c, 0, 84, 0
2, 276240, Note_on_c, 0, 85, 0
2, 276240, Note_on_c, 0, 72, 0
2, 276480, Note_on_c, 0, 97, 100
2, 276480, Note_on_c, 0, 98, 100
2, 276480, Note_on_c, 0, 84, 100
2, 276480, Note_on_c, 0, 86, 100
2, 276480, Note_on_c, 0, 73, 100
2, 276480, Note_on_c, 0, 61, 100
2, 276720, Note_on_c, 0, 97, 0
2, 276720, Note_on_c, 0, 98, 0
2, 276720, Note_on_c, 0, 84, 0
2, 276720, Note_on_c, 0, 86, 0
2, 276720, Note_on_c, 0, 73, 0
2, 276720, Note_on_c, 0, 61, 0
2, 276960, Note_on_c, 0, 97, 100
2, 276960, Note_on_c, 0, 98, 100
2, 276960, Note_on_c, 0, 84, 100
2, 276960, Note_on_c, 0, 86, 100
2, 276960, Note_on_c, 0, 73, 100
2, 276960, Note_on_c, 0, 108, 100
2, 277200, Note_on_c, 0, 97, 0
2, 277200, Note_on_c, 0, 98, 0
2, 277200, Note_on_c, 0, 84, 0
2, 277200, Note_on_c, 0, 86, 0
2, 277200, Note_on_c, 0, 73, 0
2, 277200, Note_on_c, 0, 108, 0
2, 277440, Note_on_c, 0, 98, 100
2, 277440, Note_on_c, 0, 97, 100
2, 277440, Note_on_c, 0, 86, 100
2, 277440, Note_on_c, 0, 84, 100
2, 277440, Note_on_c, 0, 73, 100
2, 277440, Note_on_c, 0, 61, 100
2, 277440, Note_on_c, 0, 108, 100
2, 277680, Note_on_c, 0, 98, 0
2, 277680, Note_on_c, 0, 97, 0
2, 277680, Note_on_c, 0, 86, 0
2, 277680, Note_on_c, 0, 84, 0
2, 277680, Note_on_c, 0, 73, 0
2, 277680, Note_on_c, 0, 61, 0
2, 277680, Note_on_c, 0, 108, 0
2, 277920, Note_on_c, 0, 97, 100
2, 277920, Note_on_c, 0, 98, 100
2, 277920, Note_on_c, 0, 84, 100
2, 277920, Note_on_c, 0, 86, 100
2, 277920, Note_on_c, 0, 73, 100
2, 277920, Note_on_c, 0, 108, 100
2, 278160, Note_on_c, 0, 97, 0
2, 278160, Note_on_c, 0, 98, 0
2, 278160, Note_on_c, 0, 84, 0
2, 278160, Note_on_c, 0, 86, 0
2, 278160, Note_on_c, 0, 73, 0
2, 278160, Note_on_c, 0, 108, 0
2, 278400, Note_on_c, 0, 100, 100
2, 278400, Note_on_c, 0, 99, 100
2, 278400, Note_on_c, 0, 87, 100
2, 278400, Note_on_c, 0, 86, 100
2, 278400, Note_on_c, 0, 74, 100
2, 278400, Note_on_c, 0, 62, 100
2, 278400, Note_on_c, 0, 108, 100
2, 278640, Note_on_c, 0, 100, 0
2, 278640, Note_on_c, 0, 99, 0
2, 278640, Note_on_c, 0, 87, 0
2, 278640, Note_on_c, 0, 86, 0
2, 278640, Note_on_c, 0, 74, 0
2, 278640, Note_on_c, 0, 62, 0
2, 278640, Note_on_c, 0, 108, 0
2, 278850, Note_on_c, 0, 106, 100
2, 278850, Note_on_c, 0, 94, 100
2, 278850, Note_on_c, 0, 70, 100
2, 278850, Note_on_c, 0, 82, 100
2, 278880, Note_on_c, 0, 108, 100
2, 279120, Note_on_c, 0, 108, 0
2, 279360, Note_on_c, 0, 99, 100
2, 279360, Note_on_c, 0, 98, 100
2, 279360, Note_on_c, 0, 88, 100
2, 279360, Note_on_c, 0, 73, 100
2, 279360, Note_on_c, 0, 61, 100
2, 279600, Note_on_c, 0, 99, 0
2, 279600, Note_on_c, 0, 98, 0
2, 279600, Note_on_c, 0, 88, 0
2, 279600, Note_on_c, 0, 73, 0
2, 279600, Note_on_c, 0, 61, 0
2, 280290, Note_on_c, 0, 105, 0
2, 280290, Note_on_c, 0, 93, 0
2, 280290, Note_on_c, 0, 69, 0
2, 280290, Note_on_c, 0, 81, 0
2, 280320, Note_on_c, 0, 97, 100
2, 280320, Note_on_c, 0, 99, 100
2, 280320, Note_on_c, 0, 85, 100
2, 280320, Note_on_c, 0, 86, 100
2, 280320, Note_on_c, 0, 74, 100
2, 280320, Note_on_c, 0, 62, 100
2, 280560, Note_on_c, 0, 97, 0
2, 280560, Note_on_c, 0, 99, 0
2, 280560, Note_on_c, 0, 85, 0
2, 280560, Note_on_c, 0, 86, 0
2, 280560, Note_on_c, 0, 74, 0
2, 280560, Note_on_c, 0, 62, 0
2, 280800, Note_on_c, 0, 97, 100
2, 280800, Note_on_c, 0, 99, 100
2, 280800, Note_on_c, 0, 85, 100
2, 280800, Note_on_c, 0, 86, 100
2, 280800, Note_on_c, 0, 74, 100
2, 280800, Note_on_c, 0, 108, 100
2, 281040, Note_on_c, 0, 97, 0
2, 281040, Note_on_c, 0, 99, 0
2, 281040, Note_on_c, 0, 85, 0
2, 281040, Note_on_c, 0, 86, 0
2, 281040, Note_on_c, 0, 74, 0
2, 281040, Note_on_c, 0, 108, 0
2, 281280, Note_on_c, 0, 99, 100
2, 281280, Note_on_c, 0, 97, 100
2, 281280, Note_on_c, 0, 86, 100
2, 281280, Note_on_c, 0, 85, 100
2, 281280, Note_on_c, 0, 74, 100
2, 281280, Note_on_c, 0, 62, 100
2, 281280, Note_on_c, 0, 108, 100
2, 281520, Note_on_c, 0, 99, 0
2, 281520, Note_on_c, 0, 97, 0
2, 281520, Note_on_c, 0, 86, 0
2, 281520, Note_on_c, 0, 85, 0
2, 281520, Note_on_c, 0, 74, 0
2, 281520, Note_on_c, 0, 62, 0
2, 281520, Note_on_c, 0, 108, 0
2, 281760, Note_on_c, 0, 97, 100
2, 281760, Note_on_c, 0, 99, 100
2, 281760, Note_on_c, 0, 85, 100
2, 281760, Note_on_c, 0, 86, 100
2, 281760, Note_on_c, 0, 74, 100
2, 281760, Note_on_c, 0, 108, 100
2, 282000, Note_on_c, 0, 97, 0
2, 282000, Note_on_c, 0, 99, 0
2, 282000, Note_on_c, 0, 85, 0
2, 282000, Note_on_c, 0, 86, 0
2, 282000, Note_on_c, 0, 74, 0
2, 282000, Note_on_c, 0, 108, 0
2, 282240, Note_on_c, 0, 96, 100
2, 282240, Note_on_c, 0, 98, 100
2, 282240, Note_on_c, 0, 84, 100
2, 282240, Note_on_c, 0, 85, 100
2, 282240, Note_on_c, 0, 72, 100
2, 282240, Note_on_c, 0, 60, 100
2, 282240, Note_on_c, 0, 108, 100
2, 282480, Note_on_c, 0, 96, 0
2, 282480, Note_on_c, 0, 98, 0
2, 282480, Note_on_c, 0, 84, 0
2, 282480, Note_on_c, 0, 85, 0
2, 282480, Note_on_c, 0, 72, 0
2, 282480, Note_on_c, 0, 60, 0
2, 282480, Note_on_c, 0, 108, 0
2, 282720, Note_on_c, 0, 96, 100
2, 282720, Note_on_c, 0, 98, 100
2, 282720, Note_on_c, 0, 84, 100
2, 282720, Note_on_c, 0, 85, 100
2, 282720, Note_on_c, 0, 72, 100
2, 282960, Note_on_c, 0, 96, 0
2, 282960, Note_on_c, 0, 98, 0
2, 282960, Note_on_c, 0, 84, 0
2, 282960, Note_on_c, 0, 85, 0
2, 282960, Note_on_c, 0, 72, 0
2, 283200, Note_on_c, 0, 98, 100
2, 283200, Note_on_c, 0, 96, 100
2, 283200, Note_on_c, 0, 85, 100
2, 283200, Note_on_c, 0, 84, 100
2, 283200, Note_on_c, 0, 72, 100
2, 283200, Note_on_c, 0, 60, 100
2, 283440, Note_on_c, 0, 98, 0
2, 283440, Note_on_c, 0, 96, 0
2, 283440, Note_on_c, 0, 85, 0
2, 283440, Note_on_c, 0, 84, 0
2, 283440, Note_on_c, 0, 72, 0
2, 283440, Note_on_c, 0, 60, 0
2, 283680, Note_on_c, 0, 96, 100
2, 283680, Note_on_c, 0, 98, 100
2, 283680, Note_on_c, 0, 84, 100
2, 283680, Note_on_c, 0, 85, 100
2, 283680, Note_on_c, 0, 72, 100
2, 283920, Note_on_c, 0, 96, 0
2, 283920, Note_on_c, 0, 98, 0
2, 283920, Note_on_c, 0, 84, 0
2, 283920, Note_on_c, 0, 85, 0
2, 283920, Note_on_c, 0, 72, 0
2, 284160, Note_on_c, 0, 97, 100
2, 284160, Note_on_c, 0, 98, 100
2, 284160, Note_on_c, 0, 84, 100
2, 284160, Note_on_c, 0, 86, 100
2, 284160, Note_on_c, 0, 73, 100
2, 284160, Note_on_c, 0, 61, 100
2, 284400, Note_on_c, 0, 97, 0
2, 284400, Note_on_c, 0, 98, 0
2, 284400, Note_on_c, 0, 84, 0
2, 284400, Note_on_c, 0, 86, 0
2, 284400, Note_on_c, 0, 73, 0
2, 284400, Note_on_c, 0, 61, 0
2, 284640, Note_on_c, 0, 97, 100
2, 284640, Note_on_c, 0, 98, 100
2, 284640, Note_on_c, 0, 84, 100
2, 284640, Note_on_c, 0, 86, 100
2, 284640, Note_on_c, 0, 73, 100
2, 284880, Note_on_c, 0, 97, 0
2, 284880, Note_on_c, 0, 98, 0
2, 284880, Note_on_c, 0, 84, 0
2, 284880, Note_on_c, 0, 86, 0
2, 284880, Note_on_c, 0, 73, 0
2, 285120, Note_on_c, 0, 98, 100
2, 285120, Note_on_c, 0, 97, 100
2, 285120, Note_on_c, 0, 86, 100
2, 285120, Note_on_c, 0, 84, 100
2, 285120, Note_on_c, 0, 73, 100
2, 285120, Note_on_c, 0, 61, 100
2, 285360, Note_on_c, 0, 98, 0
2, 285360, Note_on_c, 0, 97, 0
2, 285360, Note_on_c, 0, 86, 0
2, 285360, Note_on_c, 0, 84, 0
2, 285360, Note_on_c, 0, 73, 0
2, 285360, Note_on_c, 0, 61, 0
2, 285600, Note_on_c, 0, 97, 100
2, 285600, Note_on_c, 0, 98, 100
2, 285600, Note_on_c, 0, 84, 100
2, 285600, Note_on_c, 0, 86, 100
2, 285600, Note_on_c, 0, 73, 100
2, 285600, Note_on_c, 0, 108, 100
2, 285840, Note_on_c, 0, 97, 0
2, 285840, Note_on_c, 0, 98, 0
2, 285840, Note_on_c, 0, 84, 0
2, 285840, Note_on_c, 0, 86, 0
2, 285840, Note_on_c, 0, 73, 0
2, 285840, Note_on_c, 0, 108, 0
2, 286080, Note_on_c, 0, 100, 100
2, 286080, Note_on_c, 0, 99, 100
2, 286080, Note_on_c, 0, 87, 100
2, 286080, Note_on_c, 0, 86, 100
2, 286080, Note_on_c, 0, 74, 100
2, 286080, Note_on_c, 0, 62, 100
2, 286080, Note_on_c, 0, 108, 100
2, 286320, Note_on_c, 0, 100, 0
2, 286320, Note_on_c, 0, 99, 0
2, 286320, Note_on_c, 0, 87, 0
2, 286320, Note_on_c, 0, 86, 0
2, 286320, Note_on_c, 0, 74, 0
2, 286320, Note_on_c, 0, 62, 0
2, 286320, Note_on_c, 0, 108, 0
2, 286530, Note_on_c, 0, 103, 100
2, 286530, Note_on_c, 0, 91, 100
2, 286530, Note_on_c, 0, 79, 100
2, 286530, Note_on_c, 0, 67, 100
2, 286530, Note_on_c, 0, 105, 100
2, 286530, Note_on_c, 0, 93, 100
2, 286530, Note_on_c, 0, 69, 100
2, 286530, Note_on_c, 0, 81, 100
2, 286560, Note_on_c, 0, 100, 100
2, 286560, Note_on_c, 0, 87, 100
2, 286560, Note_on_c, 0, 73, 100
2, 286560, Note_on_c, 0, 61, 100
2, 286560, Note_on_c, 0, 108, 100
2, 286800, Note_on_c, 0, 100, 0
2, 286800, Note_on_c, 0, 87, 0
2, 286800, Note_on_c, 0, 108, 0
2, 287040, Note_on_c, 0, 97, 100
2, 287040, Note_on_c, 0, 85, 100
2, 287040, Note_on_c, 0, 108, 100
2, 287280, Note_on_c, 0, 73, 0
2, 287280, Note_on_c, 0, 61, 0
2, 287280, Note_on_c, 0, 97, 0
2, 287280, Note_on_c, 0, 85, 0
2, 287280, Note_on_c, 0, 108, 0
2, 287490, Note_on_c, 0, 103, 0
2, 287490, Note_on_c, 0, 91, 0
2, 287490, Note_on_c, 0, 79, 0
2, 287490, Note_on_c, 0, 67, 0
2, 287970, Note_on_c, 0, 106, 0
2, 287970, Note_on_c, 0, 94, 0
2, 287970, Note_on_c, 0, 70, 0
2, 287970, Note_on_c, 0, 82, 0
2, 288000, Note_on_c, 0, 97, 100
2, 288000, Note_on_c, 0, 99, 100
2, 288000, Note_on_c, 0, 85, 100
2, 288000, Note_on_c, 0, 86, 100
2, 288000, Note_on_c, 0, 74, 100
2, 288000, Note_on_c, 0, 62, 100
2, 288240, Note_on_c, 0, 97, 0
2, 288240, Note_on_c, 0, 99, 0
2, 288240, Note_on_c, 0, 85, 0
2, 288240, Note_on_c, 0, 86, 0
2, 288240, Note_on_c, 0, 74, 0
2, 288240, Note_on_c, 0, 62, 0
2, 288480, Note_on_c, 0, 97, 100
2, 288480, Note_on_c, 0, 99, 100
2, 288480, Note_on_c, 0, 85, 100
2, 288480, Note_on_c, 0, 86, 100
2, 288480, Note_on_c, 0, 74, 100
2, 288480, Note_on_c, 0, 108, 100
2, 288720, Note_on_c, 0, 97, 0
2, 288720, Note_on_c, 0, 99, 0
2, 288720, Note_on_c, 0, 85, 0
2, 288720, Note_on_c, 0, 86, 0
2, 288720, Note_on_c, 0, 74, 0
2, 288720, Note_on_c, 0, 108, 0
2, 288960, Note_on_c, 0, 99, 100
2, 288960, Note_on_c, 0, 97, 100
2, 288960, Note_on_c, 0, 86, 100
2, 288960, Note_on_c, 0, 85, 100
2, 288960, Note_on_c, 0, 74, 100
2, 288960, Note_on_c, 0, 62, 100
2, 288960, Note_on_c, 0, 108, 100
2, 289200, Note_on_c, 0, 99, 0
2, 289200, Note_on_c, 0, 97, 0
2, 289200, Note_on_c, 0, 86, 0
2, 289200, Note_on_c, 0, 85, 0
2, 289200, Note_on_c, 0, 74, 0
2, 289200, Note_on_c, 0, 62, 0
2, 289200, Note_on_c, 0, 108, 0
2, 289440, Note_on_c, 0, 97, 100
2, 289440, Note_on_c, 0, 99, 100
2, 289440, Note_on_c, 0, 85, 100
2, 289440, Note_on_c, 0, 86, 100
2, 289440, Note_on_c, 0, 74, 100
2, 289440, Note_on_c, 0, 108, 100
2, 289680, Note_on_c, 0, 97, 0
2, 289680, Note_on_c, 0, 99, 0
2, 289680, Note_on_c, 0, 85, 0
2, 289680, Note_on_c, 0, 86, 0
2, 289680, Note_on_c, 0, 74, 0
2, 289680, Note_on_c, 0, 108, 0
2, 289920, Note_on_c, 0, 96, 100
2, 289920, Note_on_c, 0, 98, 100
2, 289920, Note_on_c, 0, 84, 100
2, 289920, Note_on_c, 0, 85, 100
2, 289920, Note_on_c, 0, 72, 100
2, 289920, Note_on_c, 0, 60, 100
2, 289920, Note_on_c, 0, 108, 100
2, 290160, Note_on_c, 0, 96, 0
2, 290160, Note_on_c, 0, 98, 0
2, 290160, Note_on_c, 0, 84, 0
2, 290160, Note_on_c, 0, 85, 0
2, 290160, Note_on_c, 0, 72, 0
2, 290160, Note_on_c, 0, 60, 0
2, 290160, Note_on_c, 0, 108, 0
2, 290400, Note_on_c, 0, 96, 100
2, 290400, Note_on_c, 0, 98, 100
2, 290400, Note_on_c, 0, 84, 100
2, 290400, Note_on_c, 0, 85, 100
2, 290400, Note_on_c, 0, 72, 100
2, 290640, Note_on_c, 0, 96, 0
2, 290640, Note_on_c, 0, 98, 0
2, 290640, Note_on_c, 0, 84, 0
2, 290640, Note_on_c, 0, 85, 0
2, 290640, Note_on_c, 0, 72, 0
2, 290880, Note_on_c, 0, 98, 100
2, 290880, Note_on_c, 0, 96, 100
2, 290880, Note_on_c, 0, 85, 100
2, 290880, Note_on_c, 0, 84, 100
2, 290880, Note_on_c, 0, 72, 100
2, 290880, Note_on_c, 0, 60, 100
2, 291120, Note_on_c, 0, 98, 0
2, 291120, Note_on_c, 0, 96, 0
2, 291120, Note_on_c, 0, 85, 0
2, 291120, Note_on_c, 0, 84, 0
2, 291120, Note_on_c, 0, 72, 0
2, 291120, Note_on_c, 0, 60, 0
2, 291360, Note_on_c, 0, 96, 100
2, 291360, Note_on_c, 0, 98, 100
2, 291360, Note_on_c, 0, 84, 100
2, 291360, Note_on_c, 0, 85, 100
2, 291360, Note_on_c, 0, 72, 100
2, 291600, Note_on_c, 0, 96, 0
2, 291600, Note_on_c, 0, 98, 0
2, 291600, Note_on_c, 0, 84, 0
2, 291600, Note_on_c, 0, 85, 0
2, 291600, Note_on_c, 0, 72, 0
2, 291840, Note_on_c, 0, 97, 100
2, 291840, Note_on_c, 0, 98, 100
2, 291840, Note_on_c, 0, 84, 100
2, 291840, Note_on_c, 0, 86, 100
2, 291840, Note_on_c, 0, 73, 100
2, 291840, Note_on_c, 0, 61, 100
2, 292080, Note_on_c, 0, 97, 0
2, 292080, Note_on_c, 0, 98, 0
2, 292080, Note_on_c, 0, 84, 0
2, 292080, Note_on_c, 0, 86, 0
2, 292080, Note_on_c, 0, 73, 0
2, 292080, Note_on_c, 0, 61, 0
2, 292320, Note_on_c, 0, 97, 100
2, 292320, Note_on_c, 0, 98, 100
2, 292320, Note_on_c, 0, 84, 100
2, 292320, Note_on_c, 0, 86, 100
2, 292320, Note_on_c, 0, 73, 100
2, 292560, Note_on_c, 0, 97, 0
2, 292560, Note_on_c, 0, 98, 0
2, 292560, Note_on_c, 0, 84, 0
2, 292560, Note_on_c, 0, 86, 0
2, 292560, Note_on_c, 0, 73, 0
2, 292800, Note_on_c, 0, 98, 100
2, 292800, Note_on_c, 0, 97, 100
2, 292800, Note_on_c, 0, 86, 100
2, 292800, Note_on_c, 0, 84, 100
2, 292800, Note_on_c, 0, 73, 100
2, 292800, Note_on_c, 0, 61, 100
2, 293040, Note_on_c, 0, 98, 0
2, 293040, Note_on_c, 0, 97, 0
2, 293040, Note_on_c, 0, 86, 0
2, 293040, Note_on_c, 0, 84, 0
2, 293040, Note_on_c, 0, 73, 0
2, 293040, Note_on_c, 0, 61, 0
2, 293280, Note_on_c, 0, 97, 100
2, 293280, Note_on_c, 0, 98, 100
2, 293280, Note_on_c, 0, 84, 100
2, 293280, Note_on_c, 0, 86, 100
2, 293280, Note_on_c, 0, 73, 100
2, 293280, Note_on_c, 0, 108, 100
2, 293520, Note_on_c, 0, 97, 0
2, 293520, Note_on_c, 0, 98, 0
2, 293520, Note_on_c, 0, 84, 0
2, 293520, Note_on_c, 0, 86, 0
2, 293520, Note_on_c, 0, 73, 0
2, 293520, Note_on_c, 0, 108, 0
2, 293760, Note_on_c, 0, 100, 100
2, 293760, Note_on_c, 0, 99, 100
2, 293760, Note_on_c, 0, 87, 100
2, 293760, Note_on_c, 0, 86, 100
2, 293760, Note_on_c, 0, 74, 100
2, 293760, Note_on_c, 0, 62, 100
2, 293760, Note_on_c, 0, 108, 100
2, 294000, Note_on_c, 0, 100, 0
2, 294000, Note_on_c, 0, 99, 0
2, 294000, Note_on_c, 0, 87, 0
2, 294000, Note_on_c, 0, 86, 0
2, 294000, Note_on_c, 0, 74, 0
2, 294000, Note_on_c, 0, 62, 0
2, 294000, Note_on_c, 0, 108, 0
2, 294240, Note_on_c, 0, 108, 100
2, 294480, Note_on_c, 0, 108, 0
2, 294690, Note_on_c, 0, 106, 100
2, 294690, Note_on_c, 0, 94, 100
2, 294690, Note_on_c, 0, 70, 100
2, 294690, Note_on_c, 0, 82, 100
2, 294720, Note_on_c, 0, 100, 100
2, 294720, Note_on_c, 0, 87, 100
2, 294720, Note_on_c, 0, 74, 100
2, 294720, Note_on_c, 0, 62, 100
2, 294720, Note_on_c, 0, 108, 100
2, 294960, Note_on_c, 0, 100, 0
2, 294960, Note_on_c, 0, 87, 0
2, 294960, Note_on_c, 0, 74, 0
2, 294960, Note_on_c, 0, 62, 0
2, 294960, Note_on_c, 0, 108, 0
2, 295650, Note_on_c, 0, 105, 0
2, 295650, Note_on_c, 0, 93, 0
2, 295650, Note_on_c, 0, 69, 0
2, 295650, Note_on_c, 0, 81, 0
2, 295680, Note_on_c, 0, 97, 100
2, 295680, Note_on_c, 0, 99, 100
2, 295680, Note_on_c, 0, 85, 100
2, 295680, Note_on_c, 0, 86, 100
2, 295680, Note_on_c, 0, 74, 100
2, 295680, Note_on_c, 0, 62, 100
2, 295920, Note_on_c, 0, 97, 0
2, 295920, Note_on_c, 0, 99, 0
2, 295920, Note_on_c, 0, 85, 0
2, 295920, Note_on_c, 0, 86, 0
2, 295920, Note_on_c, 0, 74, 0
2, 295920, Note_on_c, 0, 62, 0
2, 296160, Note_on_c, 0, 97, 100
2, 296160, Note_on_c, 0, 99, 100
2, 296160, Note_on_c, 0, 85, 100
2, 296160, Note_on_c, 0, 86, 100
2, 296160, Note_on_c, 0, 74, 100
2, 296160, Note_on_c, 0, 108, 100
2, 296400, Note_on_c, 0, 97, 0
2, 296400, Note_on_c, 0, 99, 0
2, 296400, Note_on_c, 0, 85, 0
2, 296400, Note_on_c, 0, 86, 0
2, 296400, Note_on_c, 0, 74, 0
2, 296400, Note_on_c, 0, 108, 0
2, 296640, Note_on_c, 0, 99, 100
2, 296640, Note_on_c, 0, 97, 100
2, 296640, Note_on_c, 0, 86, 100
2, 296640, Note_on_c, 0, 85, 100
2, 296640, Note_on_c, 0, 74, 100
2, 296640, Note_on_c, 0, 62, 100
2, 296640, Note_on_c, 0, 108, 100
2, 296880, Note_on_c, 0, 99, 0
2, 296880, Note_on_c, 0, 97, 0
2, 296880, Note_on_c, 0, 86, 0
2, 296880, Note_on_c, 0, 85, 0
2, 296880, Note_on_c, 0, 74, 0
2, 296880, Note_on_c, 0, 62, 0
2, 296880, Note_on_c, 0, 108, 0
2, 297120, Note_on_c, 0, 97, 100
2, 297120, Note_on_c, 0, 99, 100
2, 297120, Note_on_c, 0, 85, 100
2, 297120, Note_on_c, 0, 86, 100
2, 297120, Note_on_c, 0, 74, 100
2, 297120, Note_on_c, 0, 108, 100
2, 297360, Note_on_c, 0, 97, 0
2, 297360, Note_on_c, 0, 99, 0
2, 297360, Note_on_c, 0, 85, 0
2, 297360, Note_on_c, 0, 86, 0
2, 297360, Note_on_c, 0, 74, 0
2, 297360, Note_on_c, 0, 108, 0
2, 297600, Note_on_c, 0, 96, 100
2, 297600, Note_on_c, 0, 98, 100
2, 297600, Note_on_c, 0, 84, 100
2, 297600, Note_on_c, 0, 85, 100
2, 297600, Note_on_c, 0, 72, 100
2, 297600, Note_on_c, 0, 60, 100
2, 297600, Note_on_c, 0, 108, 100
2, 297840, Note_on_c, 0, 96, 0
2, 297840, Note_on_c, 0, 98, 0
2, 297840, Note_on_c, 0, 84, 0
2, 297840, Note_on_c, 0, 85, 0
2, 297840, Note_on_c, 0, 72, 0
2, 297840, Note_on_c, 0, 60, 0
2, 297840, Note_on_c, 0, 108, 0
2, 298080, Note_on_c, 0, 96, 100
2, 298080, Note_on_c, 0, 98, 100
2, 298080, Note_on_c, 0, 84, 100
2, 298080, Note_on_c, 0, 85, 100
2, 298080, Note_on_c, 0, 72, 100
2, 298320, Note_on_c, 0, 96, 0
2, 298320, Note_on_c, 0, 98, 0
2, 298320, Note_on_c, 0, 84, 0
2, 298320, Note_on_c, 0, 85, 0
2, 298320, Note_on_c, 0, 72, 0
2, 298560, Note_on_c, 0, 98, 100
2, 298560, Note_on_c, 0, 96, 100
2, 298560, Note_on_c, 0, 85, 100
2, 298560, Note_on_c, 0, 84, 100
2, 298560, Note_on_c, 0, 72, 100
2, 298560, Note_on_c, 0, 60, 100
2, 298800, Note_on_c, 0, 98, 0
2, 298800, Note_on_c, 0, 96, 0
2, 298800, Note_on_c, 0, 85, 0
2, 298800, Note_on_c, 0, 84, 0
2, 298800, Note_on_c, 0, 72, 0
2, 298800, Note_on_c, 0, 60, 0
2, 299040, Note_on_c, 0, 96, 100
2, 299040, Note_on_c, 0, 98, 100
2, 299040, Note_on_c, 0, 84, 100
2, 299040, Note_on_c, 0, 85, 100
2, 299040, Note_on_c, 0, 72, 100
2, 299280, Note_on_c, 0, 96, 0
2, 299280, Note_on_c, 0, 98, 0
2, 299280, Note_on_c, 0, 84, 0
2, 299280, Note_on_c, 0, 85, 0
2, 299280, Note_on_c, 0, 72, 0
2, 299520, Note_on_c, 0, 97, 100
2, 299520, Note_on_c, 0, 98, 100
2, 299520, Note_on_c, 0, 84, 100
2, 299520, Note_on_c, 0, 86, 100
2, 299520, Note_on_c, 0, 73, 100
2, 299520, Note_on_c, 0, 61, 100
2, 299760, Note_on_c, 0, 97, 0
2, 299760, Note_on_c, 0, 98, 0
2, 299760, Note_on_c, 0, 84, 0
2, 299760, Note_on_c, 0, 86, 0
2, 299760, Note_on_c, 0, 73, 0
2, 299760, Note_on_c, 0, 61, 0
2, 300000, Note_on_c, 0, 97, 100
2, 300000, Note_on_c, 0, 98, 100
2, 300000, Note_on_c, 0, 84, 100
2, 300000, Note_on_c, 0, 86, 100
2, 300000, Note_on_c, 0, 73, 100
2, 300000, Note_on_c, 0, 108, 100
2, 300240, Note_on_c, 0, 97, 0
2, 300240, Note_on_c, 0, 98, 0
2, 300240, Note_on_c, 0, 84, 0
2, 300240, Note_on_c, 0, 86, 0
2, 300240, Note_on_c, 0, 73, 0
2, 300240, Note_on_c, 0, 108, 0
2, 300480, Note_on_c, 0, 98, 100
2, 300480, Note_on_c, 0, 97, 100
2, 300480, Note_on_c, 0, 86, 100
2, 300480, Note_on_c, 0, 84, 100
2, 300480, Note_on_c, 0, 73, 100
2, 300480, Note_on_c, 0, 61, 100
2, 300480, Note_on_c, 0, 108, 100
2, 300720, Note_on_c, 0, 98, 0
2, 300720, Note_on_c, 0, 97, 0
2, 300720, Note_on_c, 0, 86, 0
2, 300720, Note_on_c, 0, 84, 0
2, 300720, Note_on_c, 0, 73, 0
2, 300720, Note_on_c, 0, 61, 0
2, 300720, Note_on_c, 0, 108, 0
2, 300960, Note_on_c, 0, 97, 100
2, 300960, Note_on_c, 0, 98, 100
2, 300960, Note_on_c, 0, 84, 100
2, 300960, Note_on_c, 0, 86, 100
2, 300960, Note_on_c, 0, 73, 100
2, 300960, Note_on_c, 0, 108, 100
2, 301200, Note_on_c, 0, 97, 0
2, 301200, Note_on_c, 0, 98, 0
2, 301200, Note_on_c, 0, 84, 0
2, 301200, Note_on_c, 0, 86, 0
2, 301200, Note_on_c, 0, 73, 0
2, 301200, Note_on_c, 0, 108, 0
2, 301440, Note_on_c, 0, 100, 100
2, 301440, Note_on_c, 0, 99, 100
2, 301440, Note_on_c, 0, 87, 100
2, 301440, Note_on_c, 0, 86, 100
2, 301440, Note_on_c, 0, 74, 100
2, 301440, Note_on_c, 0, 62, 100
2, 301440, Note_on_c, 0, 108, 100
2, 301680, Note_on_c, 0, 108, 0
2, 301920, Note_on_c, 0, 108, 100
2, 302160, Note_on_c, 0, 108, 0
2, 302400, Note_on_c, 0, 108, 100
2, 302640, Note_on_c, 0, 108, 0
2, 302880, Note_on_c, 0, 100, 0
2, 302880, Note_on_c, 0, 99, 0
2, 302880, Note_on_c, 0, 108, 100
2, 303120, Note_on_c, 0, 87, 0
2, 303120, Note_on_c, 0, 86, 0
2, 303120, Note_on_c, 0, 74, 0
2, 303120, Note_on_c, 0, 62, 0
2, 303120, Note_on_c, 0, 108, 0
2, 303330, Note_on_c, 0, 103, 100
2, 303330, Note_on_c, 0, 91, 100
2, 303330, Note_on_c, 0, 79, 100
2, 303330, Note_on_c, 0, 67, 100
2, 303330, Note_on_c, 0, 105, 100
2, 303330, Note_on_c, 0, 93, 100
2, 303330, Note_on_c, 0, 69, 100
2, 303330, Note_on_c, 0, 81, 100
2, 303360, Note_on_c, 0, 96, 100
2, 303360, Note_on_c, 0, 98, 100
2, 303360, Note_on_c, 0, 84, 100
2, 303360, Note_on_c, 0, 86, 100
2, 303360, Note_on_c, 0, 72, 100
2, 303360, Note_on_c, 0, 60, 100
2, 303360, Note_on_c, 0, 108, 100
2, 303600, Note_on_c, 0, 108, 0
2, 310050, Note_on_c, 0, 103, 0
2, 310050, Note_on_c, 0, 91, 0
2, 310050, Note_on_c, 0, 79, 0
2, 310050, Note_on_c, 0, 67, 0
2, 310080, Note_on_c, 0, 96, 0
2, 310080, Note_on_c, 0, 98, 0
2, 310080, Note_on_c, 0, 84, 0
2, 310080, Note_on_c, 0, 86, 0
2, 310080, Note_on_c, 0, 72, 0
2, 310080, Note_on_c, 0, 60, 0
2, 310080, Note_on_c, 0, 99, 100
2, 310080, Note_on_c, 0, 87, 100
2, 310080, Note_on_c, 0, 74, 100
2, 310080, Note_on_c, 0, 62, 100
2, 310320, Note_on_c, 0, 87, 0
2, 310320, Note_on_c, 0, 74, 0
2, 310320, Note_on_c, 0, 62, 0
2, 310800, Note_on_c, 0, 99, 0
2, 311010, Note_on_c, 0, 106, 0
2, 311010, Note_on_c, 0, 94, 0
2, 311010, Note_on_c, 0, 70, 0
2, 311010, Note_on_c, 0, 82, 0
2, 311040, Note_on_c, 0, 97, 100
2, 311040, Note_on_c, 0, 73, 100
2, 311040, Note_on_c, 0, 60, 100
2, 311040, Note_on_c, 0, 85, 100
2, 311520, Note_on_c, 0, 108, 100
2, 311760, Note_on_c, 0, 108, 0
2, 312000, Note_on_c, 0, 108, 100
2, 312240, Note_on_c, 0, 108, 0
2, 312480, Note_on_c, 0, 108, 100
2, 312720, Note_on_c, 0, 97, 0
2, 312720, Note_on_c, 0, 73, 0
2, 312720, Note_on_c, 0, 60, 0
2, 312720, Note_on_c, 0, 85, 0
2, 312720, Note_on_c, 0, 108, 0
2, 312960, Note_on_c, 0, 99, 100
2, 312960, Note_on_c, 0, 75, 100
2, 312960, Note_on_c, 0, 62, 100
2, 312960, Note_on_c, 0, 88, 100
2, 312960, Note_on_c, 0, 108, 100
2, 313200, Note_on_c, 0, 99, 0
2, 313200, Note_on_c, 0, 100, 100
2, 313440, Note_on_c, 0, 108, 0
2, 313920, Note_on_c, 0, 108, 100
2, 314160, Note_on_c, 0, 108, 0
2, 314400, Note_on_c, 0, 108, 100
2, 314640, Note_on_c, 0, 75, 0
2, 314640, Note_on_c, 0, 62, 0
2, 314640, Note_on_c, 0, 88, 0
2, 314640, Note_on_c, 0, 100, 0
2, 314640, Note_on_c, 0, 108, 0
2, 314880, Note_on_c, 0, 99, 100
2, 314880, Note_on_c, 0, 75, 100
2, 314880, Note_on_c, 0, 61, 100
2, 314880, Note_on_c, 0, 87, 100
2, 314880, Note_on_c, 0, 108, 100
2, 315120, Note_on_c, 0, 99, 0
2, 315120, Note_on_c, 0, 75, 0
2, 315120, Note_on_c, 0, 61, 0
2, 315120, Note_on_c, 0, 87, 0
2, 315120, Note_on_c, 0, 108, 0
2, 315360, Note_on_c, 0, 108, 100
2, 315600, Note_on_c, 0, 108, 0
2, 315840, Note_on_c, 0, 98, 100
2, 315840, Note_on_c, 0, 74, 100
2, 315840, Note_on_c, 0, 60, 100
2, 315840, Note_on_c, 0, 86, 100
2, 315840, Note_on_c, 0, 108, 100
2, 316080, Note_on_c, 0, 98, 0
2, 316080, Note_on_c, 0, 74, 0
2, 316080, Note_on_c, 0, 60, 0
2, 316080, Note_on_c, 0, 86, 0
2, 316080, Note_on_c, 0, 108, 0
2, 316320, Note_on_c, 0, 108, 100
2, 316800, Note_on_c, 0, 97, 100
2, 316800, Note_on_c, 0, 73, 100
2, 316800, Note_on_c, 0, 61, 100
2, 316800, Note_on_c, 0, 85, 100
2, 317040, Note_on_c, 0, 97, 0
2, 317040, Note_on_c, 0, 73, 0
2, 317040, Note_on_c, 0, 61, 0
2, 317040, Note_on_c, 0, 85, 0
2, 317280, Note_on_c, 0, 108, 0
2, 317760, Note_on_c, 0, 96, 100
2, 317760, Note_on_c, 0, 72, 100
2, 317760, Note_on_c, 0, 60, 100
2, 317760, Note_on_c, 0, 84, 100
2, 318000, Note_on_c, 0, 96, 0
2, 318000, Note_on_c, 0, 72, 0
2, 318000, Note_on_c, 0, 60, 0
2, 318000, Note_on_c, 0, 84, 0
2, 318690, Note_on_c, 0, 105, 0
2, 318690, Note_on_c, 0, 93, 0
2, 318690, Note_on_c, 0, 69, 0
2, 318690, Note_on_c, 0, 81, 0
2, 318690, Note_on_c, 0, 106, 100
2, 318690, Note_on_c, 0, 94, 100
2, 318690, Note_on_c, 0, 70, 100
2, 318690, Note_on_c, 0, 82, 100
2, 318720, Note_on_c, 0, 97, 100
2, 318720, Note_on_c, 0, 73, 100
2, 318720, Note_on_c, 0, 60, 100
2, 318720, Note_on_c, 0, 85, 100
2, 319200, Note_on_c, 0, 108, 100
2, 319440, Note_on_c, 0, 108, 0
2, 319680, Note_on_c, 0, 108, 100
2, 319920, Note_on_c, 0, 108, 0
2, 320160, Note_on_c, 0, 108, 100
2, 320400, Note_on_c, 0, 97, 0
2, 320400, Note_on_c, 0, 73, 0
2, 320400, Note_on_c, 0, 60, 0
2, 320400, Note_on_c, 0, 85, 0
2, 320400, Note_on_c, 0, 108, 0
2, 320640, Note_on_c, 0, 99, 100
2, 320640, Note_on_c, 0, 75, 100
2, 320640, Note_on_c, 0, 62, 100
2, 320640, Note_on_c, 0, 88, 100
2, 320640, Note_on_c, 0, 108, 100
2, 320880, Note_on_c, 0, 99, 0
2, 320880, Note_on_c, 0, 100, 100
2, 321120, Note_on_c, 0, 108, 0
2, 321600, Note_on_c, 0, 108, 100
2, 321840, Note_on_c, 0, 108, 0
2, 322080, Note_on_c, 0, 108, 100
2, 322320, Note_on_c, 0, 75, 0
2, 322320, Note_on_c, 0, 62, 0
2, 322320, Note_on_c, 0, 88, 0
2, 322320, Note_on_c, 0, 100, 0
2, 322320, Note_on_c, 0, 108, 0
2, 322560, Note_on_c, 0, 99, 100
2, 322560, Note_on_c, 0, 75, 100
2, 322560, Note_on_c, 0, 61, 100
2, 322560, Note_on_c, 0, 87, 100
2, 322560, Note_on_c, 0, 108, 100
2, 322800, Note_on_c, 0, 99, 0
2, 322800, Note_on_c, 0, 75, 0
2, 322800, Note_on_c, 0, 61, 0
2, 322800, Note_on_c, 0, 87, 0
2, 322800, Note_on_c, 0, 108, 0
2, 323040, Note_on_c, 0, 108, 100
2, 323280, Note_on_c, 0, 108, 0
2, 323520, Note_on_c, 0, 98, 100
2, 323520, Note_on_c, 0, 74, 100
2, 323520, Note_on_c, 0, 60, 100
2, 323520, Note_on_c, 0, 86, 100
2, 323520, Note_on_c, 0, 108, 100
2, 323760, Note_on_c, 0, 98, 0
2, 323760, Note_on_c, 0, 74, 0
2, 323760, Note_on_c, 0, 60, 0
2, 323760, Note_on_c, 0, 86, 0
2, 323760, Note_on_c, 0, 108, 0
2, 324000, Note_on_c, 0, 108, 100
2, 324480, Note_on_c, 0, 97, 100
2, 324480, Note_on_c, 0, 73, 100
2, 324480, Note_on_c, 0, 61, 100
2, 324480, Note_on_c, 0, 85, 100
2, 324720, Note_on_c, 0, 97, 0
2, 324720, Note_on_c, 0, 73, 0
2, 324720, Note_on_c, 0, 61, 0
2, 324720, Note_on_c, 0, 85, 0
2, 324960, Note_on_c, 0, 108, 0
2, 325440, Note_on_c, 0, 96, 100
2, 325440, Note_on_c, 0, 72, 100
2, 325440, Note_on_c, 0, 60, 100
2, 325440, Note_on_c, 0, 84, 100
2, 325680, Note_on_c, 0, 96, 0
2, 325680, Note_on_c, 0, 72, 0
2, 325680, Note_on_c, 0, 60, 0
2, 325680, Note_on_c, 0, 84, 0
2, 326370, Note_on_c, 0, 106, 0
2, 326370, Note_on_c, 0, 94, 0
2, 326370, Note_on_c, 0, 70, 0
2, 326370, Note_on_c, 0, 82, 0
2, 326370, Note_on_c, 0, 105, 100
2, 326370, Note_on_c, 0, 93, 100
2, 326370, Note_on_c, 0, 69, 100
2, 326370, Note_on_c, 0, 81, 100
2, 326400, Note_on_c, 0, 97, 100
2, 326400, Note_on_c, 0, 73, 100
2, 326400, Note_on_c, 0, 60, 100
2, 326400, Note_on_c, 0, 85, 100
2, 326880, Note_on_c, 0, 108, 100
2, 327120, Note_on_c, 0, 108, 0
2, 327360, Note_on_c, 0, 108, 100
2, 327600, Note_on_c, 0, 108, 0
2, 327840, Note_on_c, 0, 108, 100
2, 328080, Note_on_c, 0, 97, 0
2, 328080, Note_on_c, 0, 73, 0
2, 328080, Note_on_c, 0, 60, 0
2, 328080, Note_on_c, 0, 85, 0
2, 328080, Note_on_c, 0, 108, 0
2, 328320, Note_on_c, 0, 99, 100
2, 328320, Note_on_c, 0, 75, 100
2, 328320, Note_on_c, 0, 62, 100
2, 328320, Note_on_c, 0, 88, 100
2, 328320, Note_on_c, 0, 108, 100
2, 328560, Note_on_c, 0, 99, 0
2, 328560, Note_on_c, 0, 100, 100
2, 328800, Note_on_c, 0, 108, 0
2, 329280, Note_on_c, 0, 108, 100
2, 329520, Note_on_c, 0, 108, 0
2, 329760, Note_on_c, 0, 108, 100
2, 330000, Note_on_c, 0, 75, 0
2, 330000, Note_on_c, 0, 62, 0
2, 330000, Note_on_c, 0, 88, 0
2, 330000, Note_on_c, 0, 100, 0
2, 330000, Note_on_c, 0, 108, 0
2, 330240, Note_on_c, 0, 99, 100
2, 330240, Note_on_c, 0, 75, 100
2, 330240, Note_on_c, 0, 61, 100
2, 330240, Note_on_c, 0, 87, 100
2, 330240, Note_on_c, 0, 108, 100
2, 330480, Note_on_c, 0, 99, 0
2, 330480, Note_on_c, 0, 75, 0
2, 330480, Note_on_c, 0, 61, 0
2, 330480, Note_on_c, 0, 87, 0
2, 330480, Note_on_c, 0, 108, 0
2, 330720, Note_on_c, 0, 108, 100
2, 330960, Note_on_c, 0, 108, 0
2, 331200, Note_on_c, 0, 98, 100
2, 331200, Note_on_c, 0, 74, 100
2, 331200, Note_on_c, 0, 60, 100
2, 331200, Note_on_c, 0, 86, 100
2, 331200, Note_on_c, 0, 108, 100
2, 331440, Note_on_c, 0, 98, 0
2, 331440, Note_on_c, 0, 74, 0
2, 331440, Note_on_c, 0, 60, 0
2, 331440, Note_on_c, 0, 86, 0
2, 331440, Note_on_c, 0, 108, 0
2, 331680, Note_on_c, 0, 108, 100
2, 332160, Note_on_c, 0, 97, 100
2, 332160, Note_on_c, 0, 73, 100
2, 332160, Note_on_c, 0, 61, 100
2, 332160, Note_on_c, 0, 85, 100
2, 332400, Note_on_c, 0, 97, 0
2, 332400, Note_on_c, 0, 73, 0
2, 332400, Note_on_c, 0, 61, 0
2, 332400, Note_on_c, 0, 85, 0
2, 332640, Note_on_c, 0, 108, 0
2, 333120, Note_on_c, 0, 96, 100
2, 333120, Note_on_c, 0, 72, 100
2, 333120, Note_on_c, 0, 60, 100
2, 333120, Note_on_c, 0, 84, 100
2, 333360, Note_on_c, 0, 96, 0
2, 333360, Note_on_c, 0, 72, 0
2, 333360, Note_on_c, 0, 60, 0
2, 333360, Note_on_c, 0, 84, 0
2, 334050, Note_on_c, 0, 105, 0
2, 334050, Note_on_c, 0, 93, 0
2, 334050, Note_on_c, 0, 69, 0
2, 334050, Note_on_c, 0, 81, 0
2, 334050, Note_on_c, 0, 106, 100
2, 334050, Note_on_c, 0, 94, 100
2, 334050, Note_on_c, 0, 70, 100
2, 334050, Note_on_c, 0, 82, 100
2, 334080, Note_on_c, 0, 97, 100
2, 334080, Note_on_c, 0, 73, 100
2, 334080, Note_on_c, 0, 60, 100
2, 334080, Note_on_c, 0, 85, 100
2, 334560, Note_on_c, 0, 108, 100
2, 334800, Note_on_c, 0, 108, 0
2, 335040, Note_on_c, 0, 108, 100
2, 335280, Note_on_c, 0, 108, 0
2, 335520, Note_on_c, 0, 108, 100
2, 335760, Note_on_c, 0, 97, 0
2, 335760, Note_on_c, 0, 73, 0
2, 335760, Note_on_c, 0, 60, 0
2, 335760, Note_on_c, 0, 85, 0
2, 335760, Note_on_c, 0, 108, 0
2, 336000, Note_on_c, 0, 99, 100
2, 336000, Note_on_c, 0, 75, 100
2, 336000, Note_on_c, 0, 62, 100
2, 336000, Note_on_c, 0, 88, 100
2, 336000, Note_on_c, 0, 108, 100
2, 336240, Note_on_c, 0, 99, 0
2, 336240, Note_on_c, 0, 100, 100
2, 336480, Note_on_c, 0, 108, 0
2, 336960, Note_on_c, 0, 108, 100
2, 337200, Note_on_c, 0, 108, 0
2, 337440, Note_on_c, 0, 108, 100
2, 337680, Note_on_c, 0, 75, 0
2, 337680, Note_on_c, 0, 62, 0
2, 337680, Note_on_c, 0, 88, 0
2, 337680, Note_on_c, 0, 100, 0
2, 337680, Note_on_c, 0, 108, 0
2, 337920, Note_on_c, 0, 99, 100
2, 337920, Note_on_c, 0, 75, 100
2, 337920, Note_on_c, 0, 61, 100
2, 337920, Note_on_c, 0, 87, 100
2, 337920, Note_on_c, 0, 108, 100
2, 338160, Note_on_c, 0, 99, 0
2, 338160, Note_on_c, 0, 75, 0
2, 338160, Note_on_c, 0, 61, 0
2, 338160, Note_on_c, 0, 87, 0
2, 338160, Note_on_c, 0, 108, 0
2, 338400, Note_on_c, 0, 108, 100
2, 338640, Note_on_c, 0, 108, 0
2, 338880, Note_on_c, 0, 98, 100
2, 338880, Note_on_c, 0, 74, 100
2, 338880, Note_on_c, 0, 60, 100
2, 338880, Note_on_c, 0, 86, 100
2, 338880, Note_on_c, 0, 108, 100
2, 339120, Note_on_c, 0, 98, 0
2, 339120, Note_on_c, 0, 74, 0
2, 339120, Note_on_c, 0, 60, 0
2, 339120, Note_on_c, 0, 86, 0
2, 339120, Note_on_c, 0, 108, 0
2, 339360, Note_on_c, 0, 108, 100
2, 339840, Note_on_c, 0, 97, 100
2, 339840, Note_on_c, 0, 73, 100
2, 339840, Note_on_c, 0, 61, 100
2, 339840, Note_on_c, 0, 85, 100
2, 340080, Note_on_c, 0, 97, 0
2, 340080, Note_on_c, 0, 73, 0
2, 340080, Note_on_c, 0, 61, 0
2, 340080, Note_on_c, 0, 85, 0
2, 340320, Note_on_c, 0, 108, 0
2, 340800, Note_on_c, 0, 96, 100
2, 340800, Note_on_c, 0, 72, 100
2, 340800, Note_on_c, 0, 60, 100
2, 340800, Note_on_c, 0, 84, 100
2, 341040, Note_on_c, 0, 96, 0
2, 341040, Note_on_c, 0, 72, 0
2, 341040, Note_on_c, 0, 60, 0
2, 341040, Note_on_c, 0, 84, 0
2, 341730, Note_on_c, 0, 106, 0
2, 341730, Note_on_c, 0, 94, 0
2, 341730, Note_on_c, 0, 70, 0
2, 341730, Note_on_c, 0, 82, 0
2, 341730, Note_on_c, 0, 105, 100
2, 341730, Note_on_c, 0, 93, 100
2, 341730, Note_on_c, 0, 69, 100
2, 341730, Note_on_c, 0, 81, 100
2, 341760, Note_on_c, 0, 97, 100
2, 341760, Note_on_c, 0, 98, 100
2, 341760, Note_on_c, 0, 84, 100
2, 341760, Note_on_c, 0, 72, 100
2, 341760, Note_on_c, 0, 61, 100
2, 343440, Note_on_c, 0, 97, 0
2, 343440, Note_on_c, 0, 98, 0
2, 343440, Note_on_c, 0, 84, 0
2, 343440, Note_on_c, 0, 72, 0
2, 343440, Note_on_c, 0, 61, 0
2, 343650, Note_on_c, 0, 105, 0
2, 343650, Note_on_c, 0, 93, 0
2, 343650, Note_on_c, 0, 69, 0
2, 343650, Note_on_c, 0, 81, 0
2, 343650, Note_on_c, 0, 106, 100
2, 343650, Note_on_c, 0, 94, 100
2, 343650, Note_on_c, 0, 70, 100
2, 343650, Note_on_c, 0, 82, 100
2, 343680, Note_on_c, 0, 97, 100
2, 343680, Note_on_c, 0, 98, 100
2, 343680, Note_on_c, 0, 84, 100
2, 343680, Note_on_c, 0, 72, 100
2, 343680, Note_on_c, 0, 61, 100
2, 343680, Note_on_c, 0, 108, 100
2, 344160, Note_on_c, 0, 108, 0
2, 345360, Note_on_c, 0, 97, 0
2, 345360, Note_on_c, 0, 98, 0
2, 345360, Note_on_c, 0, 84, 0
2, 345360, Note_on_c, 0, 72, 0
2, 345360, Note_on_c, 0, 61, 0
2, 345570, Note_on_c, 0, 106, 0
2, 345570, Note_on_c, 0, 94, 0
2, 345570, Note_on_c, 0, 70, 0
2, 345570, Note_on_c, 0, 82, 0
2, 345570, Note_on_c, 0, 105, 100
2, 345570, Note_on_c, 0, 93, 100
2, 345570, Note_on_c, 0, 69, 100
2, 345570, Note_on_c, 0, 81, 100
2, 345600, Note_on_c, 0, 97, 100
2, 345600, Note_on_c, 0, 98, 100
2, 345600, Note_on_c, 0, 84, 100
2, 345600, Note_on_c, 0, 72, 100
2, 345600, Note_on_c, 0, 61, 100
2, 345600, Note_on_c, 0, 108, 100
2, 346080, Note_on_c, 0, 108, 0
2, 347280, Note_on_c, 0, 97, 0
2, 347280, Note_on_c, 0, 98, 0
2, 347280, Note_on_c, 0, 84, 0
2, 347280, Note_on_c, 0, 72, 0
2, 347280, Note_on_c, 0, 61, 0
2, 347490, Note_on_c, 0, 105, 0
2, 347490, Note_on_c, 0, 93, 0
2, 347490, Note_on_c, 0, 69, 0
2, 347490, Note_on_c, 0, 81, 0
2, 347490, Note_on_c, 0, 106, 100
2, 347490, Note_on_c, 0, 94, 100
2, 347490, Note_on_c, 0, 70, 100
2, 347490, Note_on_c, 0, 82, 100
2, 347490, Note_on_c, 0, 103, 100
2, 347490, Note_on_c, 0, 91, 100
2, 347490, Note_on_c, 0, 79, 100
2, 347490, Note_on_c, 0, 67, 100
2, 347520, Note_on_c, 0, 97, 100
2, 347520, Note_on_c, 0, 98, 100
2, 347520, Note_on_c, 0, 84, 100
2, 347520, Note_on_c, 0, 72, 100
2, 347520, Note_on_c, 0, 61, 100
2, 347520, Note_on_c, 0, 108, 100
2, 348000, Note_on_c, 0, 108, 0
2, 349200, Note_on_c, 0, 103, 0
2, 349200, Note_on_c, 0, 91, 0
2, 349200, Note_on_c, 0, 79, 0
2, 349200, Note_on_c, 0, 67, 0
2, 349200, Note_on_c, 0, 97, 0
2, 349200, Note_on_c, 0, 98, 0
2, 349200, Note_on_c, 0, 84, 0
2, 349200, Note_on_c, 0, 72, 0
2, 349200, Note_on_c, 0, 61, 0
2, 349410, Note_on_c, 0, 106, 0
2, 349410, Note_on_c, 0, 94, 0
2, 349410, Note_on_c, 0, 70, 0
2, 349410, Note_on_c, 0, 82, 0
2, 349410, Note_on_c, 0, 105, 100
2, 349410, Note_on_c, 0, 93, 100
2, 349410, Note_on_c, 0, 69, 100
2, 349410, Note_on_c, 0, 81, 100
2, 349440, Note_on_c, 0, 97, 100
2, 349440, Note_on_c, 0, 99, 100
2, 349440, Note_on_c, 0, 84, 100
2, 349440, Note_on_c, 0, 85, 100
2, 349440, Note_on_c, 0, 72, 100
2, 349440, Note_on_c, 0, 73, 100
2, 349440, Note_on_c, 0, 61, 100
2, 349440, Note_on_c, 0, 108, 100
2, 349920, Note_on_c, 0, 108, 0
2, 351120, Note_on_c, 0, 97, 0
2, 351120, Note_on_c, 0, 99, 0
2, 351120, Note_on_c, 0, 84, 0
2, 351120, Note_on_c, 0, 85, 0
2, 351120, Note_on_c, 0, 72, 0
2, 351120, Note_on_c, 0, 73, 0
2, 351120, Note_on_c, 0, 61, 0
2, 351330, Note_on_c, 0, 105, 0
2, 351330, Note_on_c, 0, 93, 0
2, 351330, Note_on_c, 0, 69, 0
2, 351330, Note_on_c, 0, 81, 0
2, 351330, Note_on_c, 0, 106, 100
2, 351330, Note_on_c, 0, 94, 100
2, 351330, Note_on_c, 0, 70, 100
2, 351330, Note_on_c, 0, 82, 100
2, 351330, Note_on_c, 0, 103, 100
2, 351330, Note_on_c, 0, 91, 100
2, 351330, Note_on_c, 0, 79, 100
2, 351330, Note_on_c, 0, 67, 100
2, 351360, Note_on_c, 0, 97, 100
2, 351360, Note_on_c, 0, 100, 100
2, 351360, Note_on_c, 0, 84, 100
2, 351360, Note_on_c, 0, 86, 100
2, 351360, Note_on_c, 0, 72, 100
2, 351360, Note_on_c, 0, 73, 100
2, 351360, Note_on_c, 0, 61, 100
2, 351360, Note_on_c, 0, 108, 100
2, 351840, Note_on_c, 0, 108, 0
2, 353010, Note_on_c, 0, 103, 0
2, 353010, Note_on_c, 0, 91, 0
2, 353010, Note_on_c, 0, 79, 0
2, 353010, Note_on_c, 0, 67, 0
2, 353040, Note_on_c, 0, 97, 0
2, 353040, Note_on_c, 0, 100, 0
2, 353040, Note_on_c, 0, 84, 0
2, 353040, Note_on_c, 0, 86, 0
2, 353040, Note_on_c, 0, 72, 0
2, 353040, Note_on_c, 0, 73, 0
2, 353040, Note_on_c, 0, 61, 0
2, 353250, Note_on_c, 0, 106, 0
2, 353250, Note_on_c, 0, 94, 0
2, 353250, Note_on_c, 0, 70, 0
2, 353250, Note_on_c, 0, 82, 0
2, 353250, Note_on_c, 0, 105, 100
2, 353250, Note_on_c, 0, 93, 100
2, 353250, Note_on_c, 0, 69, 100
2, 353250, Note_on_c, 0, 81, 100
2, 353280, Note_on_c, 0, 99, 100
2, 353280, Note_on_c, 0, 86, 100
2, 353280, Note_on_c, 0, 73, 100
2, 353280, Note_on_c, 0, 61, 100
2, 353280, Note_on_c, 0, 108, 100
2, 353520, Note_on_c, 0, 99, 0
2, 353520, Note_on_c, 0, 86, 0
2, 353520, Note_on_c, 0, 73, 0
2, 353520, Note_on_c, 0, 61, 0
2, 353520, Note_on_c, 0, 98, 100
2, 353760, Note_on_c, 0, 108, 0
2, 353760, Note_on_c, 0, 98, 0
2, 353760, Note_on_c, 0, 97, 100
2, 353760, Note_on_c, 0, 85, 100
2, 354000, Note_on_c, 0, 97, 0
2, 354000, Note_on_c, 0, 85, 0
2, 354000, Note_on_c, 0, 98, 100
2, 354240, Note_on_c, 0, 98, 0
2, 354240, Note_on_c, 0, 99, 100
2, 354240, Note_on_c, 0, 86, 100
2, 354240, Note_on_c, 0, 73, 100
2, 354480, Note_on_c, 0, 99, 0
2, 354480, Note_on_c, 0, 86, 0
2, 354480, Note_on_c, 0, 73, 0
2, 354480, Note_on_c, 0, 98, 100
2, 354720, Note_on_c, 0, 98, 0
2, 354720, Note_on_c, 0, 97, 100
2, 354720, Note_on_c, 0, 85, 100
2, 354960, Note_on_c, 0, 97, 0
2, 354960, Note_on_c, 0, 85, 0
2, 354960, Note_on_c, 0, 98, 100
2, 355200, Note_on_c, 0, 98, 0
2, 355200, Note_on_c, 0, 99, 100
2, 355200, Note_on_c, 0, 86, 100
2, 355200, Note_on_c, 0, 73, 100
2, 355200, Note_on_c, 0, 61, 100
2, 355440, Note_on_c, 0, 99, 0
2, 355440, Note_on_c, 0, 86, 0
2, 355440, Note_on_c, 0, 73, 0
2, 355440, Note_on_c, 0, 61, 0
2, 355680, Note_on_c, 0, 100, 100
2, 355680, Note_on_c, 0, 87, 100
2, 355680, Note_on_c, 0, 74, 100
2, 355920, Note_on_c, 0, 100, 0
2, 355920, Note_on_c, 0, 87, 0
2, 355920, Note_on_c, 0, 74, 0
2, 356160, Note_on_c, 0, 99, 100
2, 356160, Note_on_c, 0, 86, 100
2, 356160, Note_on_c, 0, 73, 100
2, 356160, Note_on_c, 0, 60, 100
2, 356400, Note_on_c, 0, 99, 0
2, 356400, Note_on_c, 0, 86, 0
2, 356400, Note_on_c, 0, 73, 0
2, 356400, Note_on_c, 0, 60, 0
2, 356400, Note_on_c, 0, 98, 100
2, 356640, Note_on_c, 0, 98, 0
2, 356640, Note_on_c, 0, 97, 100
2, 356640, Note_on_c, 0, 85, 100
2, 356880, Note_on_c, 0, 97, 0
2, 356880, Note_on_c, 0, 85, 0
2, 357090, Note_on_c, 0, 105, 0
2, 357090, Note_on_c, 0, 93, 0
2, 357090, Note_on_c, 0, 69, 0
2, 357090, Note_on_c, 0, 81, 0
2, 357090, Note_on_c, 0, 106, 100
2, 357090, Note_on_c, 0, 94, 100
2, 357090, Note_on_c, 0, 70, 100
2, 357090, Note_on_c, 0, 82, 100
2, 357120, Note_on_c, 0, 96, 100
2, 357120, Note_on_c, 0, 84, 100
2, 357120, Note_on_c, 0, 72, 100
2, 357120, Note_on_c, 0, 60, 100
2, 357360, Note_on_c, 0, 96, 0
2, 357360, Note_on_c, 0, 84, 0
2, 357360, Note_on_c, 0, 72, 0
2, 357360, Note_on_c, 0, 60, 0
2, 357360, Note_on_c, 0, 97, 100
2, 357600, Note_on_c, 0, 97, 0
2, 357600, Note_on_c, 0, 98, 100
2, 357600, Note_on_c, 0, 86, 100
2, 357840, Note_on_c, 0, 98, 0
2, 357840, Note_on_c, 0, 86, 0
2, 357840, Note_on_c, 0, 99, 100
2, 358080, Note_on_c, 0, 99, 0
2, 358080, Note_on_c, 0, 97, 100
2, 358080, Note_on_c, 0, 85, 100
2, 358080, Note_on_c, 0, 73, 100
2, 358320, Note_on_c, 0, 97, 0
2, 358320, Note_on_c, 0, 85, 0
2, 358320, Note_on_c, 0, 73, 0
2, 358320, Note_on_c, 0, 98, 100
2, 358560, Note_on_c, 0, 98, 0
2, 358560, Note_on_c, 0, 99, 100
2, 358560, Note_on_c, 0, 86, 100
2, 358800, Note_on_c, 0, 99, 0
2, 358800, Note_on_c, 0, 86, 0
2, 359040, Note_on_c, 0, 99, 100
2, 359040, Note_on_c, 0, 86, 100
2, 359040, Note_on_c, 0, 73, 100
2, 359040, Note_on_c, 0, 61, 100
2, 359280, Note_on_c, 0, 99, 0
2, 359280, Note_on_c, 0, 86, 0
2, 359280, Note_on_c, 0, 73, 0
2, 359280, Note_on_c, 0, 61, 0
2, 359520, Note_on_c, 0, 100, 100
2, 359520, Note_on_c, 0, 87, 100
2, 359520, Note_on_c, 0, 74, 100
2, 359760, Note_on_c, 0, 100, 0
2, 359760, Note_on_c, 0, 87, 0
2, 359760, Note_on_c, 0, 74, 0
2, 360000, Note_on_c, 0, 100, 100
2, 360000, Note_on_c, 0, 87, 100
2, 360000, Note_on_c, 0, 74, 100
2, 360000, Note_on_c, 0, 62, 100
2, 360240, Note_on_c, 0, 100, 0
2, 360240, Note_on_c, 0, 87, 0
2, 360240, Note_on_c, 0, 74, 0
2, 360240, Note_on_c, 0, 62, 0
2, 360240, Note_on_c, 0, 99, 100
2, 360480, Note_on_c, 0, 99, 0
2, 360480, Note_on_c, 0, 98, 100
2, 360480, Note_on_c, 0, 86, 100
2, 360720, Note_on_c, 0, 98, 0
2, 360720, Note_on_c, 0, 86, 0
2, 360930, Note_on_c, 0, 106, 0
2, 360930, Note_on_c, 0, 94, 0
2, 360930, Note_on_c, 0, 70, 0
2, 360930, Note_on_c, 0, 82, 0
2, 360930, Note_on_c, 0, 105, 100
2, 360930, Note_on_c, 0, 93, 100
2, 360930, Note_on_c, 0, 69, 100
2, 360930, Note_on_c, 0, 81, 100
2, 360960, Note_on_c, 0, 96, 100
2, 360960, Note_on_c, 0, 84, 100
2, 360960, Note_on_c, 0, 72, 100
2, 360960, Note_on_c, 0, 60, 100
2, 361200, Note_on_c, 0, 96, 0
2, 361200, Note_on_c, 0, 84, 0
2, 361200, Note_on_c, 0, 72, 0
2, 361200, Note_on_c, 0, 60, 0
2, 361200, Note_on_c, 0, 97, 100
2, 361440, Note_on_c, 0, 97, 0
2, 361440, Note_on_c, 0, 98, 100
2, 361440, Note_on_c, 0, 85, 100
2, 361680, Note_on_c, 0, 98, 0
2, 361680, Note_on_c, 0, 85, 0
2, 361680, Note_on_c, 0, 97, 100
2, 361920, Note_on_c, 0, 97, 0
2, 361920, Note_on_c, 0, 98, 100
2, 361920, Note_on_c, 0, 85, 100
2, 362160, Note_on_c, 0, 98, 0
2, 362160, Note_on_c, 0, 85, 0
2, 362160, Note_on_c, 0, 99, 100
2, 362160, Note_on_c, 0, 86, 100
2, 362400, Note_on_c, 0, 99, 0
2, 362400, Note_on_c, 0, 86, 0
2, 362400, Note_on_c, 0, 96, 100
2, 362400, Note_on_c, 0, 84, 100
2, 362400, Note_on_c, 0, 72, 100
2, 362400, Note_on_c, 0, 60, 100
2, 362640, Note_on_c, 0, 96, 0
2, 362640, Note_on_c, 0, 84, 0
2, 362640, Note_on_c, 0, 72, 0
2, 362640, Note_on_c, 0, 60, 0
2, 362640, Note_on_c, 0, 97, 100
2, 362880, Note_on_c, 0, 97, 0
2, 362880, Note_on_c, 0, 98, 100
2, 362880, Note_on_c, 0, 85, 100
2, 363120, Note_on_c, 0, 98, 0
2, 363120, Note_on_c, 0, 85, 0
2, 363120, Note_on_c, 0, 97, 100
2, 363360, Note_on_c, 0, 97, 0
2, 363360, Note_on_c, 0, 98, 100
2, 363360, Note_on_c, 0, 85, 100
2, 363600, Note_on_c, 0, 98, 0
2, 363600, Note_on_c, 0, 85, 0
2, 363600, Note_on_c, 0, 99, 100
2, 363600, Note_on_c, 0, 86, 100
2, 363810, Note_on_c, 0, 105, 0
2, 363810, Note_on_c, 0, 93, 0
2, 363810, Note_on_c, 0, 69, 0
2, 363810, Note_on_c, 0, 81, 0
2, 363810, Note_on_c, 0, 106, 100
2, 363810, Note_on_c, 0, 94, 100
2, 363810, Note_on_c, 0, 70, 100
2, 363810, Note_on_c, 0, 82, 100
2, 363840, Note_on_c, 0, 99, 0
2, 363840, Note_on_c, 0, 86, 0
2, 363840, Note_on_c, 0, 97, 100
2, 363840, Note_on_c, 0, 85, 100
2, 363840, Note_on_c, 0, 73, 100
2, 363840, Note_on_c, 0, 61, 100
2, 364080, Note_on_c, 0, 97, 0
2, 364080, Note_on_c, 0, 85, 0
2, 364080, Note_on_c, 0, 73, 0
2, 364080, Note_on_c, 0, 61, 0
2, 364080, Note_on_c, 0, 98, 100
2, 364320, Note_on_c, 0, 98, 0
2, 364320, Note_on_c, 0, 99, 100
2, 364320, Note_on_c, 0, 86, 100
2, 364560, Note_on_c, 0, 99, 0
2, 364560, Note_on_c, 0, 86, 0
2, 364560, Note_on_c, 0, 98, 100
2, 364800, Note_on_c, 0, 98, 0
2, 364800, Note_on_c, 0, 99, 100
2, 364800, Note_on_c, 0, 86, 100
2, 365040, Note_on_c, 0, 99, 0
2, 365040, Note_on_c, 0, 86, 0
2, 365040, Note_on_c, 0, 100, 100
2, 365040, Note_on_c, 0, 87, 100
2, 365280, Note_on_c, 0, 100, 0
2, 365280, Note_on_c, 0, 87, 0
2, 365280, Note_on_c, 0, 97, 100
2, 365280, Note_on_c, 0, 85, 100
2, 365280, Note_on_c, 0, 73, 100
2, 365280, Note_on_c, 0, 61, 100
2, 365520, Note_on_c, 0, 97, 0
2, 365520, Note_on_c, 0, 85, 0
2, 365520, Note_on_c, 0, 73, 0
2, 365520, Note_on_c, 0, 61, 0
2, 365520, Note_on_c, 0, 98, 100
2, 365760, Note_on_c, 0, 98, 0
2, 365760, Note_on_c, 0, 99, 100
2, 365760, Note_on_c, 0, 86, 100
2, 366000, Note_on_c, 0, 99, 0
2, 366000, Note_on_c, 0, 86, 0
2, 366000, Note_on_c, 0, 98, 100
2, 366240, Note_on_c, 0, 98, 0
2, 366240, Note_on_c, 0, 99, 100
2, 366240, Note_on_c, 0, 86, 100
2, 366480, Note_on_c, 0, 99, 0
2, 366480, Note_on_c, 0, 86, 0
2, 366480, Note_on_c, 0, 100, 100
2, 366480, Note_on_c, 0, 87, 100
2, 366690, Note_on_c, 0, 106, 0
2, 366690, Note_on_c, 0, 94, 0
2, 366690, Note_on_c, 0, 70, 0
2, 366690, Note_on_c, 0, 82, 0
2, 366690, Note_on_c, 0, 105, 100
2, 366690, Note_on_c, 0, 93, 100
2, 366690, Note_on_c, 0, 69, 100
2, 366690, Note_on_c, 0, 81, 100
2, 366720, Note_on_c, 0, 100, 0
2, 366720, Note_on_c, 0, 87, 0
2, 366720, Note_on_c, 0, 96, 100
2, 366720, Note_on_c, 0, 84, 100
2, 366720, Note_on_c, 0, 74, 100
2, 366720, Note_on_c, 0, 62, 100
2, 366960, Note_on_c, 0, 96, 0
2, 366960, Note_on_c, 0, 84, 0
2, 366960, Note_on_c, 0, 74, 0
2, 366960, Note_on_c, 0, 62, 0
2, 366960, Note_on_c, 0, 97, 100
2, 367200, Note_on_c, 0, 97, 0
2, 367200, Note_on_c, 0, 98, 100
2, 367200, Note_on_c, 0, 86, 100
2, 367440, Note_on_c, 0, 98, 0
2, 367440, Note_on_c, 0, 86, 0
2, 367440, Note_on_c, 0, 97, 100
2, 367680, Note_on_c, 0, 97, 0
2, 367680, Note_on_c, 0, 98, 100
2, 367680, Note_on_c, 0, 86, 100
2, 367920, Note_on_c, 0, 98, 0
2, 367920, Note_on_c, 0, 86, 0
2, 367920, Note_on_c, 0, 99, 100
2, 368160, Note_on_c, 0, 99, 0
2, 368160, Note_on_c, 0, 98, 100
2, 368160, Note_on_c, 0, 86, 100
2, 368400, Note_on_c, 0, 98, 0
2, 368400, Note_on_c, 0, 86, 0
2, 368400, Note_on_c, 0, 99, 100
2, 368610, Note_on_c, 0, 106, 100
2, 368610, Note_on_c, 0, 94, 100
2, 368610, Note_on_c, 0, 70, 100
2, 368610, Note_on_c, 0, 82, 100
2, 368610, Note_on_c, 0, 103, 100
2, 368610, Note_on_c, 0, 91, 100
2, 368610, Note_on_c, 0, 79, 100
2, 368610, Note_on_c, 0, 67, 100
2, 368640, Note_on_c, 0, 99, 0
2, 368640, Note_on_c, 0, 100, 100
2, 368640, Note_on_c, 0, 88, 100
2, 368640, Note_on_c, 0, 74, 100
2, 368640, Note_on_c, 0, 62, 100
2, 369600, Note_on_c, 0, 100, 0
2, 369600, Note_on_c, 0, 88, 0
2, 369600, Note_on_c, 0, 74, 0
2, 369600, Note_on_c, 0, 100, 100
2, 369600, Note_on_c, 0, 88, 100
2, 369600, Note_on_c, 0, 74, 100
2, 370530, Note_on_c, 0, 105, 0
2, 370530, Note_on_c, 0, 93, 0
2, 370530, Note_on_c, 0, 69, 0
2, 370530, Note_on_c, 0, 81, 0
2, 370530, Note_on_c, 0, 103, 0
2, 370530, Note_on_c, 0, 91, 0
2, 370530, Note_on_c, 0, 79, 0
2, 370530, Note_on_c, 0, 67, 0
2, 370560, Note_on_c, 0, 62, 0
2, 370560, Note_on_c, 0, 100, 0
2, 370560, Note_on_c, 0, 88, 0
2, 370560, Note_on_c, 0, 74, 0
2, 370560, Note_on_c, 0, 99, 100
2, 370560, Note_on_c, 0, 87, 100
2, 370560, Note_on_c, 0, 74, 100
2, 370560, Note_on_c, 0, 62, 100
2, 370800, Note_on_c, 0, 99, 0
2, 370800, Note_on_c, 0, 87, 0
2, 370800, Note_on_c, 0, 74, 0
2, 370800, Note_on_c, 0, 62, 0
2, 370880, Note_on_c, 0, 98, 100
2, 370880, Note_on_c, 0, 86, 100
2, 371120, Note_on_c, 0, 98, 0
2, 371120, Note_on_c, 0, 86, 0
2, 371200, Note_on_c, 0, 97, 100
2, 371200, Note_on_c, 0, 85, 100
2, 371440, Note_on_c, 0, 97, 0
2, 371440, Note_on_c, 0, 85, 0
2, 371520, Note_on_c, 0, 99, 100
2, 371520, Note_on_c, 0, 87, 100
2, 371520, Note_on_c, 0, 74, 100
2, 371520, Note_on_c, 0, 62, 100
2, 371760, Note_on_c, 0, 99, 0
2, 371760, Note_on_c, 0, 87, 0
2, 371760, Note_on_c, 0, 74, 0
2, 371760, Note_on_c, 0, 62, 0
2, 371840, Note_on_c, 0, 98, 100
2, 371840, Note_on_c, 0, 86, 100
2, 372080, Note_on_c, 0, 98, 0
2, 372080, Note_on_c, 0, 86, 0
2, 372160, Note_on_c, 0, 97, 100
2, 372160, Note_on_c, 0, 85, 100
2, 372400, Note_on_c, 0, 97, 0
2, 372400, Note_on_c, 0, 85, 0
2, 372450, Note_on_c, 0, 106, 0
2, 372450, Note_on_c, 0, 94, 0
2, 372450, Note_on_c, 0, 70, 0
2, 372450, Note_on_c, 0, 82, 0
2, 372450, Note_on_c, 0, 105, 100
2, 372450, Note_on_c, 0, 93, 100
2, 372450, Note_on_c, 0, 69, 100
2, 372450, Note_on_c, 0, 81, 100
2, 372480, Note_on_c, 0, 99, 100
2, 372480, Note_on_c, 0, 87, 100
2, 372480, Note_on_c, 0, 74, 100
2, 372480, Note_on_c, 0, 62, 100
2, 372720, Note_on_c, 0, 99, 0
2, 372720, Note_on_c, 0, 87, 0
2, 372720, Note_on_c, 0, 74, 0
2, 372720, Note_on_c, 0, 62, 0
2, 372800, Note_on_c, 0, 98, 100
2, 372800, Note_on_c, 0, 86, 100
2, 373040, Note_on_c, 0, 98, 0
2, 373040, Note_on_c, 0, 86, 0
2, 373120, Note_on_c, 0, 97, 100
2, 373120, Note_on_c, 0, 85, 100
2, 373360, Note_on_c, 0, 97, 0
2, 373360, Note_on_c, 0, 85, 0
2, 373440, Note_on_c, 0, 99, 100
2, 373440, Note_on_c, 0, 86, 100
2, 373440, Note_on_c, 0, 73, 100
2, 373440, Note_on_c, 0, 61, 100
2, 373680, Note_on_c, 0, 99, 0
2, 373680, Note_on_c, 0, 86, 0
2, 373680, Note_on_c, 0, 73, 0
2, 373680, Note_on_c, 0, 61, 0
2, 373920, Note_on_c, 0, 100, 100
2, 373920, Note_on_c, 0, 87, 100
2, 374160, Note_on_c, 0, 100, 0
2, 374160, Note_on_c, 0, 87, 0
2, 374370, Note_on_c, 0, 105, 0
2, 374370, Note_on_c, 0, 93, 0
2, 374370, Note_on_c, 0, 69, 0
2, 374370, Note_on_c, 0, 81, 0
2, 374370, Note_on_c, 0, 106, 100
2, 374370, Note_on_c, 0, 94, 100
2, 374370, Note_on_c, 0, 70, 100
2, 374370, Note_on_c, 0, 82, 100
2, 374400, Note_on_c, 0, 99, 100
2, 374400, Note_on_c, 0, 87, 100
2, 374400, Note_on_c, 0, 74, 100
2, 374400, Note_on_c, 0, 62, 100
2, 374640, Note_on_c, 0, 99, 0
2, 374640, Note_on_c, 0, 87, 0
2, 374640, Note_on_c, 0, 74, 0
2, 374640, Note_on_c, 0, 62, 0
2, 374720, Note_on_c, 0, 98, 100
2, 374720, Note_on_c, 0, 86, 100
2, 374960, Note_on_c, 0, 98, 0
2, 374960, Note_on_c, 0, 86, 0
2, 375040, Note_on_c, 0, 97, 100
2, 375040, Note_on_c, 0, 85, 100
2, 375280, Note_on_c, 0, 97, 0
2, 375280, Note_on_c, 0, 85, 0
2, 375360, Note_on_c, 0, 99, 100
2, 375360, Note_on_c, 0, 87, 100
2, 375360, Note_on_c, 0, 74, 100
2, 375360, Note_on_c, 0, 62, 100
2, 375600, Note_on_c, 0, 99, 0
2, 375600, Note_on_c, 0, 87, 0
2, 375600, Note_on_c, 0, 74, 0
2, 375600, Note_on_c, 0, 62, 0
2, 375680, Note_on_c, 0, 98, 100
2, 375680, Note_on_c, 0, 86, 100
2, 375920, Note_on_c, 0, 98, 0
2, 375920, Note_on_c, 0, 86, 0
2, 376000, Note_on_c, 0, 97, 100
2, 376000, Note_on_c, 0, 85, 100
2, 376240, Note_on_c, 0, 97, 0
2, 376240, Note_on_c, 0, 85, 0
2, 376290, Note_on_c, 0, 106, 0
2, 376290, Note_on_c, 0, 94, 0
2, 376290, Note_on_c, 0, 70, 0
2, 376290, Note_on_c, 0, 82, 0
2, 376290, Note_on_c, 0, 105, 100
2, 376290, Note_on_c, 0, 93, 100
2, 376290, Note_on_c, 0, 69, 100
2, 376290, Note_on_c, 0, 81, 100
2, 376320, Note_on_c, 0, 100, 100
2, 376320, Note_on_c, 0, 87, 100
2, 376320, Note_on_c, 0, 74, 100
2, 376320, Note_on_c, 0, 62, 100
2, 376560, Note_on_c, 0, 100, 0
2, 376560, Note_on_c, 0, 87, 0
2, 376560, Note_on_c, 0, 74, 0
2, 376560, Note_on_c, 0, 62, 0
2, 376560, Note_on_c, 0, 99, 100
2, 376800, Note_on_c, 0, 99, 0
2, 376800, Note_on_c, 0, 98, 100
2, 376800, Note_on_c, 0, 86, 100
2, 377040, Note_on_c, 0, 98, 0
2, 377040, Note_on_c, 0, 86, 0
2, 377040, Note_on_c, 0, 97, 100
2, 377280, Note_on_c, 0, 97, 0
2, 377280, Note_on_c, 0, 98, 100
2, 377280, Note_on_c, 0, 85, 100
2, 377280, Note_on_c, 0, 73, 100
2, 377520, Note_on_c, 0, 98, 0
2, 377520, Note_on_c, 0, 85, 0
2, 377520, Note_on_c, 0, 73, 0
2, 377520, Note_on_c, 0, 97, 100
2, 377760, Note_on_c, 0, 97, 0
2, 377760, Note_on_c, 0, 96, 100
2, 377760, Note_on_c, 0, 84, 100
2, 378000, Note_on_c, 0, 96, 0
2, 378000, Note_on_c, 0, 84, 0
2, 378000, Note_on_c, 0, 97, 100
2, 378210, Note_on_c, 0, 105, 0
2, 378210, Note_on_c, 0, 93, 0
2, 378210, Note_on_c, 0, 69, 0
2, 378210, Note_on_c, 0, 81, 0
2, 378210, Note_on_c, 0, 106, 100
2, 378210, Note_on_c, 0, 94, 100
2, 378210, Note_on_c, 0, 70, 100
2, 378210, Note_on_c, 0, 82, 100
2, 378240, Note_on_c, 0, 97, 0
2, 378240, Note_on_c, 0, 96, 100
2, 378240, Note_on_c, 0, 85, 100
2, 378240, Note_on_c, 0, 72, 100
2, 378240, Note_on_c, 0, 60, 100
2, 378480, Note_on_c, 0, 96, 0
2, 378480, Note_on_c, 0, 85, 0
2, 378480, Note_on_c, 0, 72, 0
2, 378480, Note_on_c, 0, 60, 0
2, 378480, Note_on_c, 0, 97, 100
2, 378720, Note_on_c, 0, 97, 0
2, 378720, Note_on_c, 0, 98, 100
2, 378720, Note_on_c, 0, 86, 100
2, 378960, Note_on_c, 0, 98, 0
2, 378960, Note_on_c, 0, 86, 0
2, 378960, Note_on_c, 0, 99, 100
2, 379200, Note_on_c, 0, 99, 0
2, 379200, Note_on_c, 0, 97, 100
2, 379200, Note_on_c, 0, 85, 100
2, 379200, Note_on_c, 0, 73, 100
2, 379440, Note_on_c, 0, 97, 0
2, 379440, Note_on_c, 0, 85, 0
2, 379440, Note_on_c, 0, 73, 0
2, 379440, Note_on_c, 0, 98, 100
2, 379680, Note_on_c, 0, 98, 0
2, 379680, Note_on_c, 0, 99, 100
2, 379680, Note_on_c, 0, 86, 100
2, 379920, Note_on_c, 0, 99, 0
2, 379920, Note_on_c, 0, 86, 0
2, 379920, Note_on_c, 0, 98, 100
2, 380160, Note_on_c, 0, 98, 0
2, 380160, Note_on_c, 0, 99, 100
2, 380160, Note_on_c, 0, 86, 100
2, 380160, Note_on_c, 0, 73, 100
2, 380160, Note_on_c, 0, 61, 100
2, 380400, Note_on_c, 0, 99, 0
2, 380400, Note_on_c, 0, 86, 0
2, 380400, Note_on_c, 0, 73, 0
2, 380400, Note_on_c, 0, 61, 0
2, 380640, Note_on_c, 0, 100, 100
2, 380640, Note_on_c, 0, 87, 100
2, 380640, Note_on_c, 0, 74, 100
2, 380640, Note_on_c, 0, 62, 100
2, 380880, Note_on_c, 0, 100, 0
2, 380880, Note_on_c, 0, 87, 0
2, 380880, Note_on_c, 0, 74, 0
2, 381090, Note_on_c, 0, 105, 100
2, 381090, Note_on_c, 0, 93, 100
2, 381090, Note_on_c, 0, 69, 100
2, 381090, Note_on_c, 0, 81, 100
2, 381120, Note_on_c, 0, 99, 100
2, 381120, Note_on_c, 0, 86, 100
2, 381360, Note_on_c, 0, 99, 0
2, 381360, Note_on_c, 0, 86, 0
2, 381360, Note_on_c, 0, 100, 100
2, 381360, Note_on_c, 0, 87, 100
2, 381360, Note_on_c, 0, 74, 100
2, 381600, Note_on_c, 0, 100, 0
2, 381600, Note_on_c, 0, 87, 0
2, 381600, Note_on_c, 0, 74, 0
2, 381840, Note_on_c, 0, 99, 100
2, 381840, Note_on_c, 0, 86, 100
2, 382080, Note_on_c, 0, 99, 0
2, 382080, Note_on_c, 0, 86, 0
2, 382080, Note_on_c, 0, 100, 100
2, 382080, Note_on_c, 0, 87, 100
2, 382080, Note_on_c, 0, 74, 100
2, 382320, Note_on_c, 0, 100, 0
2, 382320, Note_on_c, 0, 87, 0
2, 382320, Note_on_c, 0, 74, 0
2, 382560, Note_on_c, 0, 99, 100
2, 382560, Note_on_c, 0, 86, 100
2, 382800, Note_on_c, 0, 99, 0
2, 382800, Note_on_c, 0, 86, 0
2, 382800, Note_on_c, 0, 100, 100
2, 382800, Note_on_c, 0, 87, 100
2, 382800, Note_on_c, 0, 74, 100
2, 383040, Note_on_c, 0, 100, 0
2, 383040, Note_on_c, 0, 87, 0
2, 383040, Note_on_c, 0, 74, 0
2, 383280, Note_on_c, 0, 99, 100
2, 383280, Note_on_c, 0, 86, 100
2, 383520, Note_on_c, 0, 99, 0
2, 383520, Note_on_c, 0, 86, 0
2, 383520, Note_on_c, 0, 100, 100
2, 383520, Note_on_c, 0, 87, 100
2, 383520, Note_on_c, 0, 74, 100
2, 383760, Note_on_c, 0, 62, 0
2, 383760, Note_on_c, 0, 100, 0
2, 383760, Note_on_c, 0, 87, 0
2, 383760, Note_on_c, 0, 74, 0
2, 384000, Note_on_c, 0, 98, 100
2, 384000, Note_on_c, 0, 85, 100
2, 384000, Note_on_c, 0, 72, 100
2, 384000, Note_on_c, 0, 60, 100
2, 386160, Note_on_c, 0, 98, 0
2, 386160, Note_on_c, 0, 85, 0
2, 386160, Note_on_c, 0, 72, 0
2, 386160, Note_on_c, 0, 60, 0
2, 386400, Note_on_c, 0, 99, 100
2, 386400, Note_on_c, 0, 87, 100
2, 386400, Note_on_c, 0, 74, 100
2, 386400, Note_on_c, 0, 62, 100
2, 386640, Note_on_c, 0, 99, 0
2, 386640, Note_on_c, 0, 100, 100
2, 387600, Note_on_c, 0, 87, 0
2, 387600, Note_on_c, 0, 74, 0
2, 387600, Note_on_c, 0, 62, 0
2, 387600, Note_on_c, 0, 100, 0
2, 387840, Note_on_c, 0, 99, 100
2, 387840, Note_on_c, 0, 86, 100
2, 387840, Note_on_c, 0, 73, 100
2, 387840, Note_on_c, 0, 61, 100
2, 391440, Note_on_c, 0, 99, 0
2, 391440, Note_on_c, 0, 86, 0
2, 391440, Note_on_c, 0, 73, 0
2, 391440, Note_on_c, 0, 61, 0
2, 391680, Note_on_c, 0, 97, 100
2, 391680, Note_on_c, 0, 84, 100
2, 391680, Note_on_c, 0, 72, 100
2, 391680, Note_on_c, 0, 60, 100
2, 393840, Note_on_c, 0, 97, 0
2, 393840, Note_on_c, 0, 84, 0
2, 393840, Note_on_c, 0, 72, 0
2, 393840, Note_on_c, 0, 60, 0
2, 394080, Note_on_c, 0, 98, 100
2, 394080, Note_on_c, 0, 86, 100
2, 394080, Note_on_c, 0, 74, 100
2, 394080, Note_on_c, 0, 62, 100
2, 394320, Note_on_c, 0, 98, 0
2, 394320, Note_on_c, 0, 99, 100
2, 395280, Note_on_c, 0, 86, 0
2, 395280, Note_on_c, 0, 74, 0
2, 395280, Note_on_c, 0, 62, 0
2, 395280, Note_on_c, 0, 99, 0
2, 395520, Note_on_c, 0, 98, 100
2, 395520, Note_on_c, 0, 85, 100
2, 395520, Note_on_c, 0, 73, 100
2, 395520, Note_on_c, 0, 61, 100
2, 397200, Note_on_c, 0, 98, 0
2, 397200, Note_on_c, 0, 85, 0
2, 397200, Note_on_c, 0, 73, 0
2, 397200, Note_on_c, 0, 61, 0
2, 397440, Note_on_c, 0, 97, 100
2, 397440, Note_on_c, 0, 84, 100
2, 397440, Note_on_c, 0, 72, 100
2, 397440, Note_on_c, 0, 60, 100
2, 399120, Note_on_c, 0, 97, 0
2, 399120, Note_on_c, 0, 84, 0
2, 399120, Note_on_c, 0, 72, 0
2, 399120, Note_on_c, 0, 60, 0
2, 399360, Note_on_c, 0, 98, 100
2, 399360, Note_on_c, 0, 85, 100
2, 399360, Note_on_c, 0, 72, 100
2, 399360, Note_on_c, 0, 60, 100
2, 401520, Note_on_c, 0, 98, 0
2, 401520, Note_on_c, 0, 85, 0
2, 401520, Note_on_c, 0, 72, 0
2, 401520, Note_on_c, 0, 60, 0
2, 401760, Note_on_c, 0, 99, 100
2, 401760, Note_on_c, 0, 87, 100
2, 401760, Note_on_c, 0, 74, 100
2, 401760, Note_on_c, 0, 62, 100
2, 402000, Note_on_c, 0, 99, 0
2, 402000, Note_on_c, 0, 100, 100
2, 402960, Note_on_c, 0, 87, 0
2, 402960, Note_on_c, 0, 74, 0
2, 402960, Note_on_c, 0, 62, 0
2, 402960, Note_on_c, 0, 100, 0
2, 403200, Note_on_c, 0, 99, 100
2, 403200, Note_on_c, 0, 86, 100
2, 403200, Note_on_c, 0, 73, 100
2, 403200, Note_on_c, 0, 61, 100
2, 406800, Note_on_c, 0, 99, 0
2, 406800, Note_on_c, 0, 86, 0
2, 406800, Note_on_c, 0, 73, 0
2, 406800, Note_on_c, 0, 61, 0
2, 407010, Note_on_c, 0, 103, 100
2, 407010, Note_on_c, 0, 91, 100
2, 407010, Note_on_c, 0, 79, 100
2, 407010, Note_on_c, 0, 67, 100
2, 407040, Note_on_c, 0, 97, 100
2, 407040, Note_on_c, 0, 84, 100
2, 407040, Note_on_c, 0, 72, 100
2, 407040, Note_on_c, 0, 60, 100
2, 409200, Note_on_c, 0, 97, 0
2, 409200, Note_on_c, 0, 84, 0
2, 409200, Note_on_c, 0, 72, 0
2, 409200, Note_on_c, 0, 60, 0
2, 409440, Note_on_c, 0, 98, 100
2, 409440, Note_on_c, 0, 86, 100
2, 409440, Note_on_c, 0, 74, 100
2, 409440, Note_on_c, 0, 62, 100
2, 409680, Note_on_c, 0, 98, 0
2, 409680, Note_on_c, 0, 99, 100
2, 410640, Note_on_c, 0, 86, 0
2, 410640, Note_on_c, 0, 74, 0
2, 410640, Note_on_c, 0, 62, 0
2, 410640, Note_on_c, 0, 99, 0
2, 410880, Note_on_c, 0, 98, 100
2, 410880, Note_on_c, 0, 85, 100
2, 410880, Note_on_c, 0, 73, 100
2, 410880, Note_on_c, 0, 61, 100
2, 412560, Note_on_c, 0, 98, 0
2, 412560, Note_on_c, 0, 85, 0
2, 412560, Note_on_c, 0, 73, 0
2, 412560, Note_on_c, 0, 61, 0
2, 412800, Note_on_c, 0, 97, 100
2, 412800, Note_on_c, 0, 84, 100
2, 412800, Note_on_c, 0, 72, 100
2, 412800, Note_on_c, 0, 60, 100
2, 414480, Note_on_c, 0, 97, 0
2, 414480, Note_on_c, 0, 84, 0
2, 414480, Note_on_c, 0, 72, 0
2, 414480, Note_on_c, 0, 60, 0
2, 414690, Note_on_c, 0, 106, 0
2, 414690, Note_on_c, 0, 94, 0
2, 414690, Note_on_c, 0, 70, 0
2, 414690, Note_on_c, 0, 82, 0
2, 414690, Note_on_c, 0, 103, 0
2, 414690, Note_on_c, 0, 91, 0
2, 414690, Note_on_c, 0, 79, 0
2, 414690, Note_on_c, 0, 67, 0
2, 414720, Note_on_c, 0, 97, 100
2, 414720, Note_on_c, 0, 84, 100
2, 414720, Note_on_c, 0, 72, 100
2, 414720, Note_on_c, 0, 60, 100
2, 414960, Note_on_c, 0, 97, 0
2, 414960, Note_on_c, 0, 84, 0
2, 414960, Note_on_c, 0, 72, 0
2, 414960, Note_on_c, 0, 60, 0
2, 415200, Note_on_c, 0, 98, 100
2, 415200, Note_on_c, 0, 85, 100
2, 415200, Note_on_c, 0, 73, 100
2, 415200, Note_on_c, 0, 108, 100
2, 415440, Note_on_c, 0, 98, 0
2, 415440, Note_on_c, 0, 85, 0
2, 415440, Note_on_c, 0, 73, 0
2, 415440, Note_on_c, 0, 108, 0
2, 415680, Note_on_c, 0, 99, 100
2, 415680, Note_on_c, 0, 86, 100
2, 415680, Note_on_c, 0, 74, 100
2, 415680, Note_on_c, 0, 61, 100
2, 415680, Note_on_c, 0, 108, 100
2, 415920, Note_on_c, 0, 99, 0
2, 415920, Note_on_c, 0, 86, 0
2, 415920, Note_on_c, 0, 74, 0
2, 415920, Note_on_c, 0, 61, 0
2, 415920, Note_on_c, 0, 108, 0
2, 416160, Note_on_c, 0, 97, 100
2, 416160, Note_on_c, 0, 108, 100
2, 416400, Note_on_c, 0, 97, 0
2, 416400, Note_on_c, 0, 108, 0
2, 416640, Note_on_c, 0, 100, 100
2, 416640, Note_on_c, 0, 87, 100
2, 416640, Note_on_c, 0, 74, 100
2, 416640, Note_on_c, 0, 62, 100
2, 416640, Note_on_c, 0, 108, 100
2, 416880, Note_on_c, 0, 100, 0
2, 416880, Note_on_c, 0, 87, 0
2, 416880, Note_on_c, 0, 74, 0
2, 416880, Note_on_c, 0, 62, 0
2, 417120, Note_on_c, 0, 99, 100
2, 417120, Note_on_c, 0, 86, 100
2, 417120, Note_on_c, 0, 73, 100
2, 417360, Note_on_c, 0, 108, 0
2, 417360, Note_on_c, 0, 99, 0
2, 417360, Note_on_c, 0, 86, 0
2, 417360, Note_on_c, 0, 73, 0
2, 417600, Note_on_c, 0, 97, 100
2, 417600, Note_on_c, 0, 85, 100
2, 417600, Note_on_c, 0, 72, 100
2, 417600, Note_on_c, 0, 60, 100
2, 417840, Note_on_c, 0, 97, 0
2, 417840, Note_on_c, 0, 85, 0
2, 417840, Note_on_c, 0, 72, 0
2, 417840, Note_on_c, 0, 60, 0
2, 418080, Note_on_c, 0, 98, 100
2, 418320, Note_on_c, 0, 98, 0
2, 418560, Note_on_c, 0, 96, 100
2, 418560, Note_on_c, 0, 84, 100
2, 418560, Note_on_c, 0, 72, 100
2, 418560, Note_on_c, 0, 60, 100
2, 418800, Note_on_c, 0, 96, 0
2, 418800, Note_on_c, 0, 84, 0
2, 418800, Note_on_c, 0, 72, 0
2, 418800, Note_on_c, 0, 60, 0
2, 419040, Note_on_c, 0, 97, 100
2, 419040, Note_on_c, 0, 85, 100
2, 419040, Note_on_c, 0, 73, 100
2, 419040, Note_on_c, 0, 108, 100
2, 419280, Note_on_c, 0, 97, 0
2, 419280, Note_on_c, 0, 85, 0
2, 419280, Note_on_c, 0, 73, 0
2, 419280, Note_on_c, 0, 108, 0
2, 419520, Note_on_c, 0, 98, 100
2, 419520, Note_on_c, 0, 86, 100
2, 419520, Note_on_c, 0, 74, 100
2, 419520, Note_on_c, 0, 61, 100
2, 419520, Note_on_c, 0, 108, 100
2, 419760, Note_on_c, 0, 98, 0
2, 419760, Note_on_c, 0, 86, 0
2, 419760, Note_on_c, 0, 74, 0
2, 419760, Note_on_c, 0, 61, 0
2, 419760, Note_on_c, 0, 108, 0
2, 420000, Note_on_c, 0, 97, 100
2, 420000, Note_on_c, 0, 108, 100
2, 420240, Note_on_c, 0, 97, 0
2, 420240, Note_on_c, 0, 108, 0
2, 420480, Note_on_c, 0, 96, 100
2, 420480, Note_on_c, 0, 84, 100
2, 420480, Note_on_c, 0, 72, 100
2, 420480, Note_on_c, 0, 60, 100
2, 420480, Note_on_c, 0, 108, 100
2, 420720, Note_on_c, 0, 96, 0
2, 420720, Note_on_c, 0, 84, 0
2, 420720, Note_on_c, 0, 72, 0
2, 420720, Note_on_c, 0, 60, 0
2, 420720, Note_on_c, 0, 108, 0
2, 420960, Note_on_c, 0, 108, 100
2, 421440, Note_on_c, 0, 108, 0
2, 422370, Note_on_c, 0, 105, 0
2, 422370, Note_on_c, 0, 93, 0
2, 422370, Note_on_c, 0, 69, 0
2, 422370, Note_on_c, 0, 81, 0
2, 422370, Note_on_c, 0, 106, 100
2, 422370, Note_on_c, 0, 94, 100
2, 422370, Note_on_c, 0, 70, 100
2, 422370, Note_on_c, 0, 82, 100
2, 422400, Note_on_c, 0, 97, 100
2, 422400, Note_on_c, 0, 84, 100
2, 422400, Note_on_c, 0, 72, 100
2, 422400, Note_on_c, 0, 60, 100
2, 422640, Note_on_c, 0, 97, 0
2, 422640, Note_on_c, 0, 84, 0
2, 422640, Note_on_c, 0, 72, 0
2, 422640, Note_on_c, 0, 60, 0
2, 422880, Note_on_c, 0, 98, 100
2, 422880, Note_on_c, 0, 85, 100
2, 422880, Note_on_c, 0, 73, 100
2, 422880, Note_on_c, 0, 108, 100
2, 423120, Note_on_c, 0, 98, 0
2, 423120, Note_on_c, 0, 85, 0
2, 423120, Note_on_c, 0, 73, 0
2, 423120, Note_on_c, 0, 108, 0
2, 423360, Note_on_c, 0, 99, 100
2, 423360, Note_on_c, 0, 86, 100
2, 423360, Note_on_c, 0, 74, 100
2, 423360, Note_on_c, 0, 61, 100
2, 423360, Note_on_c, 0, 108, 100
2, 423600, Note_on_c, 0, 99, 0
2, 423600, Note_on_c, 0, 86, 0
2, 423600, Note_on_c, 0, 74, 0
2, 423600, Note_on_c, 0, 61, 0
2, 423600, Note_on_c, 0, 108, 0
2, 423840, Note_on_c, 0, 97, 100
2, 423840, Note_on_c, 0, 108, 100
2, 424080, Note_on_c, 0, 97, 0
2, 424080, Note_on_c, 0, 108, 0
2, 424320, Note_on_c, 0, 100, 100
2, 424320, Note_on_c, 0, 87, 100
2, 424320, Note_on_c, 0, 74, 100
2, 424320, Note_on_c, 0, 62, 100
2, 424320, Note_on_c, 0, 108, 100
2, 424560, Note_on_c, 0, 100, 0
2, 424560, Note_on_c, 0, 87, 0
2, 424560, Note_on_c, 0, 74, 0
2, 424560, Note_on_c, 0, 62, 0
2, 424800, Note_on_c, 0, 108, 0
2, 424800, Note_on_c, 0, 99, 100
2, 424800, Note_on_c, 0, 86, 100
2, 424800, Note_on_c, 0, 73, 100
2, 425040, Note_on_c, 0, 99, 0
2, 425040, Note_on_c, 0, 86, 0
2, 425040, Note_on_c, 0, 73, 0
2, 425280, Note_on_c, 0, 97, 100
2, 425280, Note_on_c, 0, 85, 100
2, 425280, Note_on_c, 0, 72, 100
2, 425280, Note_on_c, 0, 60, 100
2, 425520, Note_on_c, 0, 97, 0
2, 425520, Note_on_c, 0, 85, 0
2, 425520, Note_on_c, 0, 72, 0
2, 425520, Note_on_c, 0, 60, 0
2, 425760, Note_on_c, 0, 98, 100
2, 426000, Note_on_c, 0, 98, 0
2, 426240, Note_on_c, 0, 96, 100
2, 426240, Note_on_c, 0, 84, 100
2, 426240, Note_on_c, 0, 72, 100
2, 426240, Note_on_c, 0, 60, 100
2, 426480, Note_on_c, 0, 96, 0
2, 426480, Note_on_c, 0, 84, 0
2, 426480, Note_on_c, 0, 72, 0
2, 426480, Note_on_c, 0, 60, 0
2, 426720, Note_on_c, 0, 97, 100
2, 426720, Note_on_c, 0, 85, 100
2, 426720, Note_on_c, 0, 73, 100
2, 426960, Note_on_c, 0, 97, 0
2, 426960, Note_on_c, 0, 85, 0
2, 426960, Note_on_c, 0, 73, 0
2, 427200, Note_on_c, 0, 98, 100
2, 427200, Note_on_c, 0, 86, 100
2, 427200, Note_on_c, 0, 74, 100
2, 427200, Note_on_c, 0, 61, 100
2, 427200, Note_on_c, 0, 108, 100
2, 427440, Note_on_c, 0, 98, 0
2, 427440, Note_on_c, 0, 86, 0
2, 427440, Note_on_c, 0, 74, 0
2, 427440, Note_on_c, 0, 61, 0
2, 427440, Note_on_c, 0, 108, 0
2, 427680, Note_on_c, 0, 97, 100
2, 427680, Note_on_c, 0, 108, 100
2, 427920, Note_on_c, 0, 97, 0
2, 427920, Note_on_c, 0, 108, 0
2, 428160, Note_on_c, 0, 96, 100
2, 428160, Note_on_c, 0, 84, 100
2, 428160, Note_on_c, 0, 72, 100
2, 428160, Note_on_c, 0, 60, 100
2, 428160, Note_on_c, 0, 108, 100
2, 428400, Note_on_c, 0, 96, 0
2, 428400, Note_on_c, 0, 84, 0
2, 428400, Note_on_c, 0, 72, 0
2, 428400, Note_on_c, 0, 60, 0
2, 428400, Note_on_c, 0, 108, 0
2, 428640, Note_on_c, 0, 108, 100
2, 428880, Note_on_c, 0, 108, 0
2, 429120, Note_on_c, 0, 108, 100
2, 429360, Note_on_c, 0, 108, 0
2, 430050, Note_on_c, 0, 106, 0
2, 430050, Note_on_c, 0, 94, 0
2, 430050, Note_on_c, 0, 70, 0
2, 430050, Note_on_c, 0, 82, 0
2, 430050, Note_on_c, 0, 105, 100
2, 430050, Note_on_c, 0, 93, 100
2, 430050, Note_on_c, 0, 69, 100
2, 430050, Note_on_c, 0, 81, 100
2, 430080, Note_on_c, 0, 97, 100
2, 430080, Note_on_c, 0, 84, 100
2, 430080, Note_on_c, 0, 72, 100
2, 430080, Note_on_c, 0, 60, 100
2, 430320, Note_on_c, 0, 97, 0
2, 430320, Note_on_c, 0, 84, 0
2, 430320, Note_on_c, 0, 72, 0
2, 430320, Note_on_c, 0, 60, 0
2, 430560, Note_on_c, 0, 98, 100
2, 430560, Note_on_c, 0, 85, 100
2, 430560, Note_on_c, 0, 73, 100
2, 430560, Note_on_c, 0, 108, 100
2, 430800, Note_on_c, 0, 98, 0
2, 430800, Note_on_c, 0, 85, 0
2, 430800, Note_on_c, 0, 73, 0
2, 430800, Note_on_c, 0, 108, 0
2, 431040, Note_on_c, 0, 99, 100
2, 431040, Note_on_c, 0, 86, 100
2, 431040, Note_on_c, 0, 74, 100
2, 431040, Note_on_c, 0, 61, 100
2, 431040, Note_on_c, 0, 108, 100
2, 431280, Note_on_c, 0, 99, 0
2, 431280, Note_on_c, 0, 86, 0
2, 431280, Note_on_c, 0, 74, 0
2, 431280, Note_on_c, 0, 61, 0
2, 431280, Note_on_c, 0, 108, 0
2, 431520, Note_on_c, 0, 97, 100
2, 431520, Note_on_c, 0, 108, 100
2, 431760, Note_on_c, 0, 97, 0
2, 431760, Note_on_c, 0, 108, 0
2, 432000, Note_on_c, 0, 100, 100
2, 432000, Note_on_c, 0, 87, 100
2, 432000, Note_on_c, 0, 74, 100
2, 432000, Note_on_c, 0, 62, 100
2, 432000, Note_on_c, 0, 108, 100
2, 432240, Note_on_c, 0, 100, 0
2, 432240, Note_on_c, 0, 87, 0
2, 432240, Note_on_c, 0, 74, 0
2, 432240, Note_on_c, 0, 62, 0
2, 432480, Note_on_c, 0, 108, 0
2, 432480, Note_on_c, 0, 99, 100
2, 432480, Note_on_c, 0, 86, 100
2, 432480, Note_on_c, 0, 73, 100
2, 432720, Note_on_c, 0, 99, 0
2, 432720, Note_on_c, 0, 86, 0
2, 432720, Note_on_c, 0, 73, 0
2, 432960, Note_on_c, 0, 97, 100
2, 432960, Note_on_c, 0, 85, 100
2, 432960, Note_on_c, 0, 72, 100
2, 432960, Note_on_c, 0, 60, 100
2, 433200, Note_on_c, 0, 97, 0
2, 433200, Note_on_c, 0, 85, 0
2, 433200, Note_on_c, 0, 72, 0
2, 433200, Note_on_c, 0, 60, 0
2, 433440, Note_on_c, 0, 98, 100
2, 433680, Note_on_c, 0, 98, 0
2, 433920, Note_on_c, 0, 96, 100
2, 433920, Note_on_c, 0, 84, 100
2, 433920, Note_on_c, 0, 72, 100
2, 433920, Note_on_c, 0, 60, 100
2, 434160, Note_on_c, 0, 96, 0
2, 434160, Note_on_c, 0, 84, 0
2, 434160, Note_on_c, 0, 72, 0
2, 434160, Note_on_c, 0, 60, 0
2, 434400, Note_on_c, 0, 97, 100
2, 434400, Note_on_c, 0, 85, 100
2, 434400, Note_on_c, 0, 73, 100
2, 434400, Note_on_c, 0, 108, 100
2, 434640, Note_on_c, 0, 97, 0
2, 434640, Note_on_c, 0, 85, 0
2, 434640, Note_on_c, 0, 73, 0
2, 434640, Note_on_c, 0, 108, 0
2, 434880, Note_on_c, 0, 98, 100
2, 434880, Note_on_c, 0, 86, 100
2, 434880, Note_on_c, 0, 74, 100
2, 434880, Note_on_c, 0, 61, 100
2, 434880, Note_on_c, 0, 108, 100
2, 435120, Note_on_c, 0, 98, 0
2, 435120, Note_on_c, 0, 86, 0
2, 435120, Note_on_c, 0, 74, 0
2, 435120, Note_on_c, 0, 61, 0
2, 435120, Note_on_c, 0, 108, 0
2, 435360, Note_on_c, 0, 97, 100
2, 435360, Note_on_c, 0, 108, 100
2, 435600, Note_on_c, 0, 97, 0
2, 435600, Note_on_c, 0, 108, 0
2, 435840, Note_on_c, 0, 96, 100
2, 435840, Note_on_c, 0, 84, 100
2, 435840, Note_on_c, 0, 72, 100
2, 435840, Note_on_c, 0, 60, 100
2, 435840, Note_on_c, 0, 108, 100
2, 436080, Note_on_c, 0, 96, 0
2, 436080, Note_on_c, 0, 84, 0
2, 436080, Note_on_c, 0, 72, 0
2, 436080, Note_on_c, 0, 60, 0
2, 436080, Note_on_c, 0, 108, 0
2, 436320, Note_on_c, 0, 108, 100
2, 436560, Note_on_c, 0, 108, 0
2, 437730, Note_on_c, 0, 105, 0
2, 437730, Note_on_c, 0, 93, 0
2, 437730, Note_on_c, 0, 69, 0
2, 437730, Note_on_c, 0, 81, 0
2, 437730, Note_on_c, 0, 106, 100
2, 437730, Note_on_c, 0, 94, 100
2, 437730, Note_on_c, 0, 70, 100
2, 437730, Note_on_c, 0, 82, 100
2, 437760, Note_on_c, 0, 97, 100
2, 437760, Note_on_c, 0, 84, 100
2, 437760, Note_on_c, 0, 72, 100
2, 437760, Note_on_c, 0, 60, 100
2, 438000, Note_on_c, 0, 97, 0
2, 438000, Note_on_c, 0, 84, 0
2, 438000, Note_on_c, 0, 72, 0
2, 438000, Note_on_c, 0, 60, 0
2, 438240, Note_on_c, 0, 98, 100
2, 438240, Note_on_c, 0, 85, 100
2, 438240, Note_on_c, 0, 73, 100
2, 438240, Note_on_c, 0, 108, 100
2, 438480, Note_on_c, 0, 98, 0
2, 438480, Note_on_c, 0, 85, 0
2, 438480, Note_on_c, 0, 73, 0
2, 438480, Note_on_c, 0, 108, 0
2, 438720, Note_on_c, 0, 99, 100
2, 438720, Note_on_c, 0, 86, 100
2, 438720, Note_on_c, 0, 74, 100
2, 438720, Note_on_c, 0, 61, 100
2, 438720, Note_on_c, 0, 108, 100
2, 438960, Note_on_c, 0, 99, 0
2, 438960, Note_on_c, 0, 86, 0
2, 438960, Note_on_c, 0, 74, 0
2, 438960, Note_on_c, 0, 61, 0
2, 438960, Note_on_c, 0, 108, 0
2, 439200, Note_on_c, 0, 97, 100
2, 439200, Note_on_c, 0, 108, 100
2, 439440, Note_on_c, 0, 97, 0
2, 439440, Note_on_c, 0, 108, 0
2, 439680, Note_on_c, 0, 100, 100
2, 439680, Note_on_c, 0, 87, 100
2, 439680, Note_on_c, 0, 74, 100
2, 439680, Note_on_c, 0, 62, 100
2, 439680, Note_on_c, 0, 108, 100
2, 439920, Note_on_c, 0, 100, 0
2, 439920, Note_on_c, 0, 87, 0
2, 439920, Note_on_c, 0, 74, 0
2, 439920, Note_on_c, 0, 62, 0
2, 440160, Note_on_c, 0, 108, 0
2, 440160, Note_on_c, 0, 99, 100
2, 440160, Note_on_c, 0, 86, 100
2, 440160, Note_on_c, 0, 73, 100
2, 440400, Note_on_c, 0, 99, 0
2, 440400, Note_on_c, 0, 86, 0
2, 440400, Note_on_c, 0, 73, 0
2, 440640, Note_on_c, 0, 97, 100
2, 440640, Note_on_c, 0, 85, 100
2, 440640, Note_on_c, 0, 72, 100
2, 440640, Note_on_c, 0, 60, 100
2, 440880, Note_on_c, 0, 97, 0
2, 440880, Note_on_c, 0, 85, 0
2, 440880, Note_on_c, 0, 72, 0
2, 440880, Note_on_c, 0, 60, 0
2, 441120, Note_on_c, 0, 98, 100
2, 441360, Note_on_c, 0, 98, 0
2, 441600, Note_on_c, 0, 96, 100
2, 441600, Note_on_c, 0, 84, 100
2, 441600, Note_on_c, 0, 72, 100
2, 441600, Note_on_c, 0, 60, 100
2, 441840, Note_on_c, 0, 96, 0
2, 441840, Note_on_c, 0, 84, 0
2, 441840, Note_on_c, 0, 72, 0
2, 441840, Note_on_c, 0, 60, 0
2, 442080, Note_on_c, 0, 97, 100
2, 442080, Note_on_c, 0, 85, 100
2, 442080, Note_on_c, 0, 73, 100
2, 442080, Note_on_c, 0, 108, 100
2, 442320, Note_on_c, 0, 97, 0
2, 442320, Note_on_c, 0, 85, 0
2, 442320, Note_on_c, 0, 73, 0
2, 442320, Note_on_c, 0, 108, 0
2, 442560, Note_on_c, 0, 98, 100
2, 442560, Note_on_c, 0, 86, 100
2, 442560, Note_on_c, 0, 74, 100
2, 442560, Note_on_c, 0, 61, 100
2, 442560, Note_on_c, 0, 108, 100
2, 442800, Note_on_c, 0, 98, 0
2, 442800, Note_on_c, 0, 86, 0
2, 442800, Note_on_c, 0, 74, 0
2, 442800, Note_on_c, 0, 61, 0
2, 442800, Note_on_c, 0, 108, 0
2, 443040, Note_on_c, 0, 97, 100
2, 443040, Note_on_c, 0, 108, 100
2, 443280, Note_on_c, 0, 97, 0
2, 443280, Note_on_c, 0, 108, 0
2, 443520, Note_on_c, 0, 96, 100
2, 443520, Note_on_c, 0, 84, 100
2, 443520, Note_on_c, 0, 72, 100
2, 443520, Note_on_c, 0, 60, 100
2, 443520, Note_on_c, 0, 108, 100
2, 443760, Note_on_c, 0, 96, 0
2, 443760, Note_on_c, 0, 84, 0
2, 443760, Note_on_c, 0, 72, 0
2, 443760, Note_on_c, 0, 60, 0
2, 443760, Note_on_c, 0, 108, 0
2, 444000, Note_on_c, 0, 108, 100
2, 444240, Note_on_c, 0, 108, 0
2, 444480, Note_on_c, 0, 108, 100
2, 444720, Note_on_c, 0, 108, 0
2, 444960, Note_on_c, 0, 108, 100
2, 445200, Note_on_c, 0, 108, 0
2, 445410, Note_on_c, 0, 106, 0
2, 445410, Note_on_c, 0, 94, 0
2, 445410, Note_on_c, 0, 70, 0
2, 445410, Note_on_c, 0, 82, 0
2, 445410, Note_on_c, 0, 105, 100
2, 445410, Note_on_c, 0, 93, 100
2, 445410, Note_on_c, 0, 69, 100
2, 445410, Note_on_c, 0, 81, 100
2, 445440, Note_on_c, 0, 84, 100
2, 445440, Note_on_c, 0, 86, 100
2, 445440, Note_on_c, 0, 72, 100
2, 445440, Note_on_c, 0, 60, 100
2, 445440, Note_on_c, 0, 108, 100
2, 445440, Note_on_c, 0, 99, 100
2, 445440, Note_on_c, 0, 97, 100
2, 445680, Note_on_c, 0, 84, 0
2, 445680, Note_on_c, 0, 86, 0
2, 445680, Note_on_c, 0, 72, 0
2, 445680, Note_on_c, 0, 60, 0
2, 445680, Note_on_c, 0, 108, 0
2, 445680, Note_on_c, 0, 99, 0
2, 445680, Note_on_c, 0, 97, 0
2, 445920, Note_on_c, 0, 84, 100
2, 445920, Note_on_c, 0, 86, 100
2, 445920, Note_on_c, 0, 72, 100
2, 445920, Note_on_c, 0, 60, 100
2, 445920, Note_on_c, 0, 108, 100
2, 445920, Note_on_c, 0, 99, 100
2, 445920, Note_on_c, 0, 97, 100
2, 446160, Note_on_c, 0, 84, 0
2, 446160, Note_on_c, 0, 86, 0
2, 446160, Note_on_c, 0, 72, 0
2, 446160, Note_on_c, 0, 60, 0
2, 446160, Note_on_c, 0, 108, 0
2, 446160, Note_on_c, 0, 99, 0
2, 446160, Note_on_c, 0, 97, 0
2, 446400, Note_on_c, 0, 108, 100
2, 446400, Note_on_c, 0, 96, 100
2, 446640, Note_on_c, 0, 108, 0
2, 446640, Note_on_c, 0, 96, 0
2, 446880, Note_on_c, 0, 84, 100
2, 446880, Note_on_c, 0, 86, 100
2, 446880, Note_on_c, 0, 72, 100
2, 446880, Note_on_c, 0, 108, 100
2, 446880, Note_on_c, 0, 97, 100
2, 446880, Note_on_c, 0, 99, 100
2, 447120, Note_on_c, 0, 84, 0
2, 447120, Note_on_c, 0, 86, 0
2, 447120, Note_on_c, 0, 72, 0
2, 447120, Note_on_c, 0, 108, 0
2, 447120, Note_on_c, 0, 97, 0
2, 447120, Note_on_c, 0, 99, 0
2, 447360, Note_on_c, 0, 85, 100
2, 447360, Note_on_c, 0, 86, 100
2, 447360, Note_on_c, 0, 73, 100
2, 447360, Note_on_c, 0, 61, 100
2, 447360, Note_on_c, 0, 108, 100
2, 447360, Note_on_c, 0, 98, 100
2, 447360, Note_on_c, 0, 99, 100
2, 447600, Note_on_c, 0, 85, 0
2, 447600, Note_on_c, 0, 86, 0
2, 447600, Note_on_c, 0, 73, 0
2, 447600, Note_on_c, 0, 61, 0
2, 447600, Note_on_c, 0, 98, 0
2, 447600, Note_on_c, 0, 99, 0
2, 447840, Note_on_c, 0, 108, 0
2, 447840, Note_on_c, 0, 85, 100
2, 447840, Note_on_c, 0, 86, 100
2, 447840, Note_on_c, 0, 73, 100
2, 447840, Note_on_c, 0, 61, 100
2, 447840, Note_on_c, 0, 98, 100
2, 447840, Note_on_c, 0, 99, 100
2, 448080, Note_on_c, 0, 85, 0
2, 448080, Note_on_c, 0, 86, 0
2, 448080, Note_on_c, 0, 73, 0
2, 448080, Note_on_c, 0, 61, 0
2, 448080, Note_on_c, 0, 98, 0
2, 448080, Note_on_c, 0, 99, 0
2, 448320, Note_on_c, 0, 96, 100
2, 448560, Note_on_c, 0, 96, 0
2, 448800, Note_on_c, 0, 85, 100
2, 448800, Note_on_c, 0, 86, 100
2, 448800, Note_on_c, 0, 73, 100
2, 448800, Note_on_c, 0, 98, 100
2, 448800, Note_on_c, 0, 99, 100
2, 449040, Note_on_c, 0, 85, 0
2, 449040, Note_on_c, 0, 86, 0
2, 449040, Note_on_c, 0, 73, 0
2, 449040, Note_on_c, 0, 98, 0
2, 449040, Note_on_c, 0, 99, 0
2, 449280, Note_on_c, 0, 86, 100
2, 449280, Note_on_c, 0, 87, 100
2, 449280, Note_on_c, 0, 74, 100
2, 449280, Note_on_c, 0, 62, 100
2, 449280, Note_on_c, 0, 99, 100
2, 449280, Note_on_c, 0, 100, 100
2, 449520, Note_on_c, 0, 86, 0
2, 449520, Note_on_c, 0, 87, 0
2, 449520, Note_on_c, 0, 74, 0
2, 449520, Note_on_c, 0, 62, 0
2, 449520, Note_on_c, 0, 99, 0
2, 449520, Note_on_c, 0, 100, 0
2, 449760, Note_on_c, 0, 86, 100
2, 449760, Note_on_c, 0, 87, 100
2, 449760, Note_on_c, 0, 74, 100
2, 449760, Note_on_c, 0, 62, 100
2, 449760, Note_on_c, 0, 108, 100
2, 449760, Note_on_c, 0, 99, 100
2, 449760, Note_on_c, 0, 100, 100
2, 450000, Note_on_c, 0, 86, 0
2, 450000, Note_on_c, 0, 87, 0
2, 450000, Note_on_c, 0, 74, 0
2, 450000, Note_on_c, 0, 62, 0
2, 450000, Note_on_c, 0, 108, 0
2, 450000, Note_on_c, 0, 99, 0
2, 450000, Note_on_c, 0, 100, 0
2, 450240, Note_on_c, 0, 108, 100
2, 450240, Note_on_c, 0, 96, 100
2, 450480, Note_on_c, 0, 108, 0
2, 450480, Note_on_c, 0, 96, 0
2, 450720, Note_on_c, 0, 86, 100
2, 450720, Note_on_c, 0, 87, 100
2, 450720, Note_on_c, 0, 74, 100
2, 450720, Note_on_c, 0, 108, 100
2, 450720, Note_on_c, 0, 99, 100
2, 450720, Note_on_c, 0, 100, 100
2, 450960, Note_on_c, 0, 86, 0
2, 450960, Note_on_c, 0, 87, 0
2, 450960, Note_on_c, 0, 74, 0
2, 450960, Note_on_c, 0, 108, 0
2, 450960, Note_on_c, 0, 99, 0
2, 450960, Note_on_c, 0, 100, 0
2, 451200, Note_on_c, 0, 84, 100
2, 451200, Note_on_c, 0, 86, 100
2, 451200, Note_on_c, 0, 72, 100
2, 451200, Note_on_c, 0, 60, 100
2, 451200, Note_on_c, 0, 108, 100
2, 451200, Note_on_c, 0, 96, 100
2, 451200, Note_on_c, 0, 98, 100
2, 451440, Note_on_c, 0, 84, 0
2, 451440, Note_on_c, 0, 86, 0
2, 451440, Note_on_c, 0, 72, 0
2, 451440, Note_on_c, 0, 60, 0
2, 451440, Note_on_c, 0, 108, 0
2, 451440, Note_on_c, 0, 96, 0
2, 451440, Note_on_c, 0, 98, 0
2, 451650, Note_on_c, 0, 106, 100
2, 451650, Note_on_c, 0, 94, 100
2, 451650, Note_on_c, 0, 70, 100
2, 451650, Note_on_c, 0, 82, 100
2, 451680, Note_on_c, 0, 108, 100
2, 451920, Note_on_c, 0, 108, 0
2, 452160, Note_on_c, 0, 100, 100
2, 452160, Note_on_c, 0, 99, 100
2, 452160, Note_on_c, 0, 87, 100
2, 452160, Note_on_c, 0, 86, 100
2, 452160, Note_on_c, 0, 74, 100
2, 452160, Note_on_c, 0, 62, 100
2, 452400, Note_on_c, 0, 100, 0
2, 452400, Note_on_c, 0, 99, 0
2, 452400, Note_on_c, 0, 87, 0
2, 452400, Note_on_c, 0, 86, 0
2, 452400, Note_on_c, 0, 74, 0
2, 452400, Note_on_c, 0, 62, 0
2, 453090, Note_on_c, 0, 105, 0
2, 453090, Note_on_c, 0, 93, 0
2, 453090, Note_on_c, 0, 69, 0
2, 453090, Note_on_c, 0, 81, 0
2, 453120, Note_on_c, 0, 97, 100
2, 453120, Note_on_c, 0, 99, 100
2, 453120, Note_on_c, 0, 84, 100
2, 453120, Note_on_c, 0, 86, 100
2, 453120, Note_on_c, 0, 72, 100
2, 453120, Note_on_c, 0, 60, 100
2, 453360, Note_on_c, 0, 97, 0
2, 453360, Note_on_c, 0, 99, 0
2, 453360, Note_on_c, 0, 84, 0
2, 453360, Note_on_c, 0, 86, 0
2, 453360, Note_on_c, 0, 72, 0
2, 453360, Note_on_c, 0, 60, 0
2, 453600, Note_on_c, 0, 97, 100
2, 453600, Note_on_c, 0, 99, 100
2, 453600, Note_on_c, 0, 84, 100
2, 453600, Note_on_c, 0, 86, 100
2, 453600, Note_on_c, 0, 72, 100
2, 453600, Note_on_c, 0, 60, 100
2, 453600, Note_on_c, 0, 108, 100
2, 453840, Note_on_c, 0, 97, 0
2, 453840, Note_on_c, 0, 99, 0
2, 453840, Note_on_c, 0, 84, 0
2, 453840, Note_on_c, 0, 86, 0
2, 453840, Note_on_c, 0, 72, 0
2, 453840, Note_on_c, 0, 60, 0
2, 453840, Note_on_c, 0, 108, 0
2, 454080, Note_on_c, 0, 96, 100
2, 454080, Note_on_c, 0, 108, 100
2, 454320, Note_on_c, 0, 96, 0
2, 454320, Note_on_c, 0, 108, 0
2, 454560, Note_on_c, 0, 97, 100
2, 454560, Note_on_c, 0, 99, 100
2, 454560, Note_on_c, 0, 84, 100
2, 454560, Note_on_c, 0, 86, 100
2, 454560, Note_on_c, 0, 72, 100
2, 454560, Note_on_c, 0, 108, 100
2, 454800, Note_on_c, 0, 97, 0
2, 454800, Note_on_c, 0, 99, 0
2, 454800, Note_on_c, 0, 84, 0
2, 454800, Note_on_c, 0, 86, 0
2, 454800, Note_on_c, 0, 72, 0
2, 454800, Note_on_c, 0, 108, 0
2, 455040, Note_on_c, 0, 98, 100
2, 455040, Note_on_c, 0, 99, 100
2, 455040, Note_on_c, 0, 85, 100
2, 455040, Note_on_c, 0, 86, 100
2, 455040, Note_on_c, 0, 73, 100
2, 455040, Note_on_c, 0, 61, 100
2, 455040, Note_on_c, 0, 108, 100
2, 455280, Note_on_c, 0, 98, 0
2, 455280, Note_on_c, 0, 99, 0
2, 455280, Note_on_c, 0, 85, 0
2, 455280, Note_on_c, 0, 86, 0
2, 455280, Note_on_c, 0, 73, 0
2, 455280, Note_on_c, 0, 61, 0
2, 455520, Note_on_c, 0, 108, 0
2, 455520, Note_on_c, 0, 98, 100
2, 455520, Note_on_c, 0, 99, 100
2, 455520, Note_on_c, 0, 85, 100
2, 455520, Note_on_c, 0, 86, 100
2, 455520, Note_on_c, 0, 73, 100
2, 455520, Note_on_c, 0, 61, 100
2, 455760, Note_on_c, 0, 98, 0
2, 455760, Note_on_c, 0, 99, 0
2, 455760, Note_on_c, 0, 85, 0
2, 455760, Note_on_c, 0, 86, 0
2, 455760, Note_on_c, 0, 73, 0
2, 455760, Note_on_c, 0, 61, 0
2, 456000, Note_on_c, 0, 96, 100
2, 456240, Note_on_c, 0, 96, 0
2, 456480, Note_on_c, 0, 98, 100
2, 456480, Note_on_c, 0, 99, 100
2, 456480, Note_on_c, 0, 85, 100
2, 456480, Note_on_c, 0, 86, 100
2, 456480, Note_on_c, 0, 73, 100
2, 456720, Note_on_c, 0, 98, 0
2, 456720, Note_on_c, 0, 99, 0
2, 456720, Note_on_c, 0, 85, 0
2, 456720, Note_on_c, 0, 86, 0
2, 456720, Note_on_c, 0, 73, 0
2, 456960, Note_on_c, 0, 99, 100
2, 456960, Note_on_c, 0, 100, 100
2, 456960, Note_on_c, 0, 86, 100
2, 456960, Note_on_c, 0, 87, 100
2, 456960, Note_on_c, 0, 74, 100
2, 456960, Note_on_c, 0, 62, 100
2, 457200, Note_on_c, 0, 99, 0
2, 457200, Note_on_c, 0, 100, 0
2, 457200, Note_on_c, 0, 86, 0
2, 457200, Note_on_c, 0, 87, 0
2, 457200, Note_on_c, 0, 74, 0
2, 457200, Note_on_c, 0, 62, 0
2, 457440, Note_on_c, 0, 99, 100
2, 457440, Note_on_c, 0, 100, 100
2, 457440, Note_on_c, 0, 86, 100
2, 457440, Note_on_c, 0, 87, 100
2, 457440, Note_on_c, 0, 74, 100
2, 457440, Note_on_c, 0, 62, 100
2, 457680, Note_on_c, 0, 99, 0
2, 457680, Note_on_c, 0, 100, 0
2, 457680, Note_on_c, 0, 86, 0
2, 457680, Note_on_c, 0, 87, 0
2, 457680, Note_on_c, 0, 74, 0
2, 457680, Note_on_c, 0, 62, 0
2, 457920, Note_on_c, 0, 96, 100
2, 458160, Note_on_c, 0, 96, 0
2, 458400, Note_on_c, 0, 99, 100
2, 458400, Note_on_c, 0, 100, 100
2, 458400, Note_on_c, 0, 86, 100
2, 458400, Note_on_c, 0, 87, 100
2, 458400, Note_on_c, 0, 74, 100
2, 458400, Note_on_c, 0, 108, 100
2, 458640, Note_on_c, 0, 99, 0
2, 458640, Note_on_c, 0, 100, 0
2, 458640, Note_on_c, 0, 86, 0
2, 458640, Note_on_c, 0, 87, 0
2, 458640, Note_on_c, 0, 74, 0
2, 458640, Note_on_c, 0, 108, 0
2, 458880, Note_on_c, 0, 96, 100
2, 458880, Note_on_c, 0, 98, 100
2, 458880, Note_on_c, 0, 84, 100
2, 458880, Note_on_c, 0, 86, 100
2, 458880, Note_on_c, 0, 72, 100
2, 458880, Note_on_c, 0, 60, 100
2, 458880, Note_on_c, 0, 108, 100
2, 459120, Note_on_c, 0, 96, 0
2, 459120, Note_on_c, 0, 98, 0
2, 459120, Note_on_c, 0, 84, 0
2, 459120, Note_on_c, 0, 86, 0
2, 459120, Note_on_c, 0, 72, 0
2, 459120, Note_on_c, 0, 60, 0
2, 459120, Note_on_c, 0, 108, 0
2, 459330, Note_on_c, 0, 103, 100
2, 459330, Note_on_c, 0, 91, 100
2, 459330, Note_on_c, 0, 79, 100
2, 459330, Note_on_c, 0, 67, 100
2, 459330, Note_on_c, 0, 105, 100
2, 459330, Note_on_c, 0, 93, 100
2, 459330, Note_on_c, 0, 69, 100
2, 459330, Note_on_c, 0, 81, 100
2, 459360, Note_on_c, 0, 100, 100
2, 459360, Note_on_c, 0, 87, 100
2, 459360, Note_on_c, 0, 73, 100
2, 459360, Note_on_c, 0, 61, 100
2, 459360, Note_on_c, 0, 108, 100
2, 459600, Note_on_c, 0, 100, 0
2, 459600, Note_on_c, 0, 87, 0
2, 459600, Note_on_c, 0, 108, 0
2, 459840, Note_on_c, 0, 98, 100
2, 459840, Note_on_c, 0, 86, 100
2, 459840, Note_on_c, 0, 108, 100
2, 460080, Note_on_c, 0, 98, 0
2, 460080, Note_on_c, 0, 86, 0
2, 460320, Note_on_c, 0, 108, 0
2, 460320, Note_on_c, 0, 96, 100
2, 460320, Note_on_c, 0, 85, 100
2, 460530, Note_on_c, 0, 103, 0
2, 460530, Note_on_c, 0, 91, 0
2, 460530, Note_on_c, 0, 79, 0
2, 460530, Note_on_c, 0, 67, 0
2, 460560, Note_on_c, 0, 73, 0
2, 460560, Note_on_c, 0, 61, 0
2, 460560, Note_on_c, 0, 96, 0
2, 460560, Note_on_c, 0, 85, 0
2, 460770, Note_on_c, 0, 106, 0
2, 460770, Note_on_c, 0, 94, 0
2, 460770, Note_on_c, 0, 70, 0
2, 460770, Note_on_c, 0, 82, 0
2, 460800, Note_on_c, 0, 97, 100
2, 460800, Note_on_c, 0, 99, 100
2, 460800, Note_on_c, 0, 84, 100
2, 460800, Note_on_c, 0, 86, 100
2, 460800, Note_on_c, 0, 72, 100
2, 460800, Note_on_c, 0, 60, 100
2, 461040, Note_on_c, 0, 97, 0
2, 461040, Note_on_c, 0, 99, 0
2, 461040, Note_on_c, 0, 84, 0
2, 461040, Note_on_c, 0, 86, 0
2, 461040, Note_on_c, 0, 72, 0
2, 461040, Note_on_c, 0, 60, 0
2, 461280, Note_on_c, 0, 97, 100
2, 461280, Note_on_c, 0, 99, 100
2, 461280, Note_on_c, 0, 84, 100
2, 461280, Note_on_c, 0, 86, 100
2, 461280, Note_on_c, 0, 72, 100
2, 461280, Note_on_c, 0, 60, 100
2, 461280, Note_on_c, 0, 108, 100
2, 461520, Note_on_c, 0, 97, 0
2, 461520, Note_on_c, 0, 99, 0
2, 461520, Note_on_c, 0, 84, 0
2, 461520, Note_on_c, 0, 86, 0
2, 461520, Note_on_c, 0, 72, 0
2, 461520, Note_on_c, 0, 60, 0
2, 461520, Note_on_c, 0, 108, 0
2, 461760, Note_on_c, 0, 96, 100
2, 461760, Note_on_c, 0, 108, 100
2, 462000, Note_on_c, 0, 96, 0
2, 462000, Note_on_c, 0, 108, 0
2, 462240, Note_on_c, 0, 97, 100
2, 462240, Note_on_c, 0, 99, 100
2, 462240, Note_on_c, 0, 84, 100
2, 462240, Note_on_c, 0, 86, 100
2, 462240, Note_on_c, 0, 72, 100
2, 462240, Note_on_c, 0, 108, 100
2, 462480, Note_on_c, 0, 97, 0
2, 462480, Note_on_c, 0, 99, 0
2, 462480, Note_on_c, 0, 84, 0
2, 462480, Note_on_c, 0, 86, 0
2, 462480, Note_on_c, 0, 72, 0
2, 462480, Note_on_c, 0, 108, 0
2, 462720, Note_on_c, 0, 98, 100
2, 462720, Note_on_c, 0, 99, 100
2, 462720, Note_on_c, 0, 85, 100
2, 462720, Note_on_c, 0, 86, 100
2, 462720, Note_on_c, 0, 73, 100
2, 462720, Note_on_c, 0, 61, 100
2, 462720, Note_on_c, 0, 108, 100
2, 462960, Note_on_c, 0, 98, 0
2, 462960, Note_on_c, 0, 99, 0
2, 462960, Note_on_c, 0, 85, 0
2, 462960, Note_on_c, 0, 86, 0
2, 462960, Note_on_c, 0, 73, 0
2, 462960, Note_on_c, 0, 61, 0
2, 463200, Note_on_c, 0, 108, 0
2, 463200, Note_on_c, 0, 98, 100
2, 463200, Note_on_c, 0, 99, 100
2, 463200, Note_on_c, 0, 85, 100
2, 463200, Note_on_c, 0, 86, 100
2, 463200, Note_on_c, 0, 73, 100
2, 463200, Note_on_c, 0, 61, 100
2, 463440, Note_on_c, 0, 98, 0
2, 463440, Note_on_c, 0, 99, 0
2, 463440, Note_on_c, 0, 85, 0
2, 463440, Note_on_c, 0, 86, 0
2, 463440, Note_on_c, 0, 73, 0
2, 463440, Note_on_c, 0, 61, 0
2, 463680, Note_on_c, 0, 96, 100
2, 463920, Note_on_c, 0, 96, 0
2, 464160, Note_on_c, 0, 98, 100
2, 464160, Note_on_c, 0, 99, 100
2, 464160, Note_on_c, 0, 85, 100
2, 464160, Note_on_c, 0, 86, 100
2, 464160, Note_on_c, 0, 73, 100
2, 464400, Note_on_c, 0, 98, 0
2, 464400, Note_on_c, 0, 99, 0
2, 464400, Note_on_c, 0, 85, 0
2, 464400, Note_on_c, 0, 86, 0
2, 464400, Note_on_c, 0, 73, 0
2, 464640, Note_on_c, 0, 99, 100
2, 464640, Note_on_c, 0, 100, 100
2, 464640, Note_on_c, 0, 86, 100
2, 464640, Note_on_c, 0, 87, 100
2, 464640, Note_on_c, 0, 74, 100
2, 464640, Note_on_c, 0, 62, 100
2, 464880, Note_on_c, 0, 99, 0
2, 464880, Note_on_c, 0, 100, 0
2, 464880, Note_on_c, 0, 86, 0
2, 464880, Note_on_c, 0, 87, 0
2, 464880, Note_on_c, 0, 74, 0
2, 464880, Note_on_c, 0, 62, 0
2, 465120, Note_on_c, 0, 99, 100
2, 465120, Note_on_c, 0, 100, 100
2, 465120, Note_on_c, 0, 86, 100
2, 465120, Note_on_c, 0, 87, 100
2, 465120, Note_on_c, 0, 74, 100
2, 465120, Note_on_c, 0, 62, 100
2, 465360, Note_on_c, 0, 99, 0
2, 465360, Note_on_c, 0, 100, 0
2, 465360, Note_on_c, 0, 86, 0
2, 465360, Note_on_c, 0, 87, 0
2, 465360, Note_on_c, 0, 74, 0
2, 465360, Note_on_c, 0, 62, 0
2, 465600, Note_on_c, 0, 96, 100
2, 465840, Note_on_c, 0, 96, 0
2, 466080, Note_on_c, 0, 99, 100
2, 466080, Note_on_c, 0, 100, 100
2, 466080, Note_on_c, 0, 86, 100
2, 466080, Note_on_c, 0, 87, 100
2, 466080, Note_on_c, 0, 74, 100
2, 466080, Note_on_c, 0, 108, 100
2, 466320, Note_on_c, 0, 99, 0
2, 466320, Note_on_c, 0, 100, 0
2, 466320, Note_on_c, 0, 86, 0
2, 466320, Note_on_c, 0, 87, 0
2, 466320, Note_on_c, 0, 74, 0
2, 466320, Note_on_c, 0, 108, 0
2, 466560, Note_on_c, 0, 96, 100
2, 466560, Note_on_c, 0, 98, 100
2, 466560, Note_on_c, 0, 84, 100
2, 466560, Note_on_c, 0, 86, 100
2, 466560, Note_on_c, 0, 72, 100
2, 466560, Note_on_c, 0, 60, 100
2, 466560, Note_on_c, 0, 108, 100
2, 466800, Note_on_c, 0, 96, 0
2, 466800, Note_on_c, 0, 98, 0
2, 466800, Note_on_c, 0, 84, 0
2, 466800, Note_on_c, 0, 86, 0
2, 466800, Note_on_c, 0, 72, 0
2, 466800, Note_on_c, 0, 60, 0
2, 466800, Note_on_c, 0, 108, 0
2, 467010, Note_on_c, 0, 103, 100
2, 467010, Note_on_c, 0, 91, 100
2, 467010, Note_on_c, 0, 79, 100
2, 467010, Note_on_c, 0, 67, 100
2, 467010, Note_on_c, 0, 106, 100
2, 467010, Note_on_c, 0, 94, 100
2, 467010, Note_on_c, 0, 70, 100
2, 467010, Note_on_c, 0, 82, 100
2, 467040, Note_on_c, 0, 97, 100
2, 467040, Note_on_c, 0, 85, 100
2, 467040, Note_on_c, 0, 73, 100
2, 467040, Note_on_c, 0, 61, 100
2, 467040, Note_on_c, 0, 108, 100
2, 467280, Note_on_c, 0, 97, 0
2, 467280, Note_on_c, 0, 85, 0
2, 467280, Note_on_c, 0, 73, 0
2, 467280, Note_on_c, 0, 61, 0
2, 467280, Note_on_c, 0, 108, 0
2, 467280, Note_on_c, 0, 98, 100
2, 467520, Note_on_c, 0, 98, 0
2, 467520, Note_on_c, 0, 99, 100
2, 467520, Note_on_c, 0, 87, 100
2, 467520, Note_on_c, 0, 74, 100
2, 467520, Note_on_c, 0, 108, 100
2, 467760, Note_on_c, 0, 99, 0
2, 467760, Note_on_c, 0, 87, 0
2, 467760, Note_on_c, 0, 74, 0
2, 467760, Note_on_c, 0, 108, 0
2, 467760, Note_on_c, 0, 98, 100
2, 468000, Note_on_c, 0, 98, 0
2, 468000, Note_on_c, 0, 97, 100
2, 468000, Note_on_c, 0, 85, 100
2, 468240, Note_on_c, 0, 97, 0
2, 468240, Note_on_c, 0, 85, 0
2, 468240, Note_on_c, 0, 96, 100
2, 468450, Note_on_c, 0, 105, 0
2, 468450, Note_on_c, 0, 93, 0
2, 468450, Note_on_c, 0, 69, 0
2, 468450, Note_on_c, 0, 81, 0
2, 468450, Note_on_c, 0, 103, 0
2, 468450, Note_on_c, 0, 91, 0
2, 468450, Note_on_c, 0, 79, 0
2, 468450, Note_on_c, 0, 67, 0
2, 468480, Note_on_c, 0, 96, 0
2, 468480, Note_on_c, 0, 97, 100
2, 468480, Note_on_c, 0, 99, 100
2, 468480, Note_on_c, 0, 84, 100
2, 468480, Note_on_c, 0, 86, 100
2, 468480, Note_on_c, 0, 72, 100
2, 468480, Note_on_c, 0, 60, 100
2, 468720, Note_on_c, 0, 97, 0
2, 468720, Note_on_c, 0, 99, 0
2, 468720, Note_on_c, 0, 84, 0
2, 468720, Note_on_c, 0, 86, 0
2, 468720, Note_on_c, 0, 72, 0
2, 468720, Note_on_c, 0, 60, 0
2, 468960, Note_on_c, 0, 97, 100
2, 468960, Note_on_c, 0, 99, 100
2, 468960, Note_on_c, 0, 84, 100
2, 468960, Note_on_c, 0, 86, 100
2, 468960, Note_on_c, 0, 72, 100
2, 468960, Note_on_c, 0, 60, 100
2, 468960, Note_on_c, 0, 108, 100
2, 469200, Note_on_c, 0, 97, 0
2, 469200, Note_on_c, 0, 99, 0
2, 469200, Note_on_c, 0, 84, 0
2, 469200, Note_on_c, 0, 86, 0
2, 469200, Note_on_c, 0, 72, 0
2, 469200, Note_on_c, 0, 60, 0
2, 469200, Note_on_c, 0, 108, 0
2, 469440, Note_on_c, 0, 96, 100
2, 469440, Note_on_c, 0, 108, 100
2, 469680, Note_on_c, 0, 96, 0
2, 469680, Note_on_c, 0, 108, 0
2, 469920, Note_on_c, 0, 97, 100
2, 469920, Note_on_c, 0, 99, 100
2, 469920, Note_on_c, 0, 84, 100
2, 469920, Note_on_c, 0, 86, 100
2, 469920, Note_on_c, 0, 72, 100
2, 469920, Note_on_c, 0, 108, 100
2, 470160, Note_on_c, 0, 97, 0
2, 470160, Note_on_c, 0, 99, 0
2, 470160, Note_on_c, 0, 84, 0
2, 470160, Note_on_c, 0, 86, 0
2, 470160, Note_on_c, 0, 72, 0
2, 470160, Note_on_c, 0, 108, 0
2, 470400, Note_on_c, 0, 98, 100
2, 470400, Note_on_c, 0, 99, 100
2, 470400, Note_on_c, 0, 85, 100
2, 470400, Note_on_c, 0, 86, 100
2, 470400, Note_on_c, 0, 73, 100
2, 470400, Note_on_c, 0, 61, 100
2, 470400, Note_on_c, 0, 108, 100
2, 470640, Note_on_c, 0, 98, 0
2, 470640, Note_on_c, 0, 99, 0
2, 470640, Note_on_c, 0, 85, 0
2, 470640, Note_on_c, 0, 86, 0
2, 470640, Note_on_c, 0, 73, 0
2, 470640, Note_on_c, 0, 61, 0
2, 470880, Note_on_c, 0, 108, 0
2, 470880, Note_on_c, 0, 98, 100
2, 470880, Note_on_c, 0, 99, 100
2, 470880, Note_on_c, 0, 85, 100
2, 470880, Note_on_c, 0, 86, 100
2, 470880, Note_on_c, 0, 73, 100
2, 470880, Note_on_c, 0, 61, 100
2, 471120, Note_on_c, 0, 98, 0
2, 471120, Note_on_c, 0, 99, 0
2, 471120, Note_on_c, 0, 85, 0
2, 471120, Note_on_c, 0, 86, 0
2, 471120, Note_on_c, 0, 73, 0
2, 471120, Note_on_c, 0, 61, 0
2, 471360, Note_on_c, 0, 96, 100
2, 471600, Note_on_c, 0, 96, 0
2, 471840, Note_on_c, 0, 98, 100
2, 471840, Note_on_c, 0, 99, 100
2, 471840, Note_on_c, 0, 85, 100
2, 471840, Note_on_c, 0, 86, 100
2, 471840, Note_on_c, 0, 73, 100
2, 472080, Note_on_c, 0, 98, 0
2, 472080, Note_on_c, 0, 99, 0
2, 472080, Note_on_c, 0, 85, 0
2, 472080, Note_on_c, 0, 86, 0
2, 472080, Note_on_c, 0, 73, 0
2, 472320, Note_on_c, 0, 99, 100
2, 472320, Note_on_c, 0, 100, 100
2, 472320, Note_on_c, 0, 86, 100
2, 472320, Note_on_c, 0, 87, 100
2, 472320, Note_on_c, 0, 74, 100
2, 472320, Note_on_c, 0, 62, 100
2, 472560, Note_on_c, 0, 99, 0
2, 472560, Note_on_c, 0, 100, 0
2, 472560, Note_on_c, 0, 86, 0
2, 472560, Note_on_c, 0, 87, 0
2, 472560, Note_on_c, 0, 74, 0
2, 472560, Note_on_c, 0, 62, 0
2, 472800, Note_on_c, 0, 99, 100
2, 472800, Note_on_c, 0, 100, 100
2, 472800, Note_on_c, 0, 86, 100
2, 472800, Note_on_c, 0, 87, 100
2, 472800, Note_on_c, 0, 74, 100
2, 472800, Note_on_c, 0, 62, 100
2, 472800, Note_on_c, 0, 108, 100
2, 473040, Note_on_c, 0, 99, 0
2, 473040, Note_on_c, 0, 100, 0
2, 473040, Note_on_c, 0, 86, 0
2, 473040, Note_on_c, 0, 87, 0
2, 473040, Note_on_c, 0, 74, 0
2, 473040, Note_on_c, 0, 62, 0
2, 473040, Note_on_c, 0, 108, 0
2, 473280, Note_on_c, 0, 96, 100
2, 473280, Note_on_c, 0, 108, 100
2, 473520, Note_on_c, 0, 96, 0
2, 473520, Note_on_c, 0, 108, 0
2, 473760, Note_on_c, 0, 99, 100
2, 473760, Note_on_c, 0, 100, 100
2, 473760, Note_on_c, 0, 86, 100
2, 473760, Note_on_c, 0, 87, 100
2, 473760, Note_on_c, 0, 74, 100
2, 473760, Note_on_c, 0, 108, 100
2, 474000, Note_on_c, 0, 99, 0
2, 474000, Note_on_c, 0, 100, 0
2, 474000, Note_on_c, 0, 86, 0
2, 474000, Note_on_c, 0, 87, 0
2, 474000, Note_on_c, 0, 74, 0
2, 474000, Note_on_c, 0, 108, 0
2, 474240, Note_on_c, 0, 98, 100
2, 474240, Note_on_c, 0, 100, 100
2, 474240, Note_on_c, 0, 85, 100
2, 474240, Note_on_c, 0, 87, 100
2, 474240, Note_on_c, 0, 74, 100
2, 474240, Note_on_c, 0, 62, 100
2, 474240, Note_on_c, 0, 108, 100
2, 474480, Note_on_c, 0, 108, 0
2, 474720, Note_on_c, 0, 108, 100
2, 474960, Note_on_c, 0, 108, 0
2, 475200, Note_on_c, 0, 108, 100
2, 475440, Note_on_c, 0, 108, 0
2, 475680, Note_on_c, 0, 108, 100
2, 475920, Note_on_c, 0, 98, 0
2, 475920, Note_on_c, 0, 100, 0
2, 475920, Note_on_c, 0, 85, 0
2, 475920, Note_on_c, 0, 87, 0
2, 475920, Note_on_c, 0, 74, 0
2, 475920, Note_on_c, 0, 62, 0
2, 475920, Note_on_c, 0, 108, 0
2, 476130, Note_on_c, 0, 105, 100
2, 476130, Note_on_c, 0, 93, 100
2, 476130, Note_on_c, 0, 69, 100
2, 476130, Note_on_c, 0, 81, 100
2, 476160, Note_on_c, 0, 96, 100
2, 476160, Note_on_c, 0, 98, 100
2, 476160, Note_on_c, 0, 84, 100
2, 476160, Note_on_c, 0, 72, 100
2, 476160, Note_on_c, 0, 85, 100
2, 476160, Note_on_c, 0, 60, 100
2, 476160, Note_on_c, 0, 108, 100
2, 477120, Note_on_c, 0, 108, 0
2, 477600, Note_on_c, 0, 96, 0
2, 477600, Note_on_c, 0, 98, 0
2, 477600, Note_on_c, 0, 96, 100
2, 477600, Note_on_c, 0, 98, 100
2, 477840, Note_on_c, 0, 84, 0
2, 477840, Note_on_c, 0, 72, 0
2, 477840, Note_on_c, 0, 85, 0
2, 477840, Note_on_c, 0, 60, 0
2, 477840, Note_on_c, 0, 96, 0
2, 477840, Note_on_c, 0, 98, 0
2, 478080, Note_on_c, 0, 97, 100
2, 478080, Note_on_c, 0, 99, 100
2, 478080, Note_on_c, 0, 85, 100
2, 478080, Note_on_c, 0, 73, 100
2, 478080, Note_on_c, 0, 61, 100
2, 479520, Note_on_c, 0, 97, 0
2, 479520, Note_on_c, 0, 99, 0
2, 479520, Note_on_c, 0, 97, 100
2, 479520, Note_on_c, 0, 99, 100
2, 479760, Note_on_c, 0, 73, 0
2, 479760, Note_on_c, 0, 61, 0
2, 479760, Note_on_c, 0, 97, 0
2, 479760, Note_on_c, 0, 99, 0
2, 480000, Note_on_c, 0, 85, 0
2, 480000, Note_on_c, 0, 97, 100
2, 480000, Note_on_c, 0, 99, 100
2, 480000, Note_on_c, 0, 85, 100
2, 480000, Note_on_c, 0, 73, 100
2, 480000, Note_on_c, 0, 61, 100
2, 480240, Note_on_c, 0, 73, 0
2, 480240, Note_on_c, 0, 61, 0
2, 480720, Note_on_c, 0, 97, 0
2, 480720, Note_on_c, 0, 99, 0
2, 480720, Note_on_c, 0, 85, 0
2, 480960, Note_on_c, 0, 100, 100
2, 480960, Note_on_c, 0, 98, 100
2, 480960, Note_on_c, 0, 74, 100
2, 480960, Note_on_c, 0, 86, 100
2, 480960, Note_on_c, 0, 85, 100
2, 480960, Note_on_c, 0, 62, 100
2, 481200, Note_on_c, 0, 74, 0
2, 481200, Note_on_c, 0, 62, 0
2, 481920, Note_on_c, 0, 100, 0
2, 481920, Note_on_c, 0, 98, 0
2, 481920, Note_on_c, 0, 86, 0
2, 481920, Note_on_c, 0, 85, 0
2, 481920, Note_on_c, 0, 100, 100
2, 481920, Note_on_c, 0, 98, 100
2, 481920, Note_on_c, 0, 74, 100
2, 481920, Note_on_c, 0, 86, 100
2, 481920, Note_on_c, 0, 85, 100
2, 481920, Note_on_c, 0, 62, 100
2, 483600, Note_on_c, 0, 100, 0
2, 483600, Note_on_c, 0, 98, 0
2, 483600, Note_on_c, 0, 74, 0
2, 483600, Note_on_c, 0, 86, 0
2, 483600, Note_on_c, 0, 85, 0
2, 483600, Note_on_c, 0, 62, 0
2, 483840, Note_on_c, 0, 87, 100
2, 483840, Note_on_c, 0, 74, 100
2, 483840, Note_on_c, 0, 100, 100
2, 483840, Note_on_c, 0, 99, 100
2, 483840, Note_on_c, 0, 62, 100
2, 484080, Note_on_c, 0, 87, 0
2, 484080, Note_on_c, 0, 74, 0
2, 484080, Note_on_c, 0, 100, 0
2, 484080, Note_on_c, 0, 99, 0
2, 484080, Note_on_c, 0, 62, 0
2, 484320, Note_on_c, 0, 99, 100
2, 484320, Note_on_c, 0, 98, 100
2, 484320, Note_on_c, 0, 86, 100
2, 484560, Note_on_c, 0, 99, 0
2, 484560, Note_on_c, 0, 98, 0
2, 484560, Note_on_c, 0, 86, 0
2, 484800, Note_on_c, 0, 100, 100
2, 484800, Note_on_c, 0, 87, 100
2, 484800, Note_on_c, 0, 74, 100
2, 484800, Note_on_c, 0, 99, 100
2, 484800, Note_on_c, 0, 62, 100
2, 485040, Note_on_c, 0, 100, 0
2, 485040, Note_on_c, 0, 87, 0
2, 485040, Note_on_c, 0, 74, 0
2, 485040, Note_on_c, 0, 99, 0
2, 485040, Note_on_c, 0, 62, 0
2, 485280, Note_on_c, 0, 99, 100
2, 485280, Note_on_c, 0, 98, 100
2, 485280, Note_on_c, 0, 86, 100
2, 485520, Note_on_c, 0, 99, 0
2, 485520, Note_on_c, 0, 98, 0
2, 485520, Note_on_c, 0, 86, 0
2, 485760, Note_on_c, 0, 100, 100
2, 485760, Note_on_c, 0, 87, 100
2, 485760, Note_on_c, 0, 74, 100
2, 485760, Note_on_c, 0, 99, 100
2, 485760, Note_on_c, 0, 62, 100
2, 486000, Note_on_c, 0, 74, 0
2, 486000, Note_on_c, 0, 62, 0
2, 486480, Note_on_c, 0, 100, 0
2, 486480, Note_on_c, 0, 87, 0
2, 486480, Note_on_c, 0, 99, 0
2, 486720, Note_on_c, 0, 100, 100
2, 486720, Note_on_c, 0, 98, 100
2, 486720, Note_on_c, 0, 85, 100
2, 486720, Note_on_c, 0, 73, 100
2, 486720, Note_on_c, 0, 86, 100
2, 486720, Note_on_c, 0, 61, 100
2, 486960, Note_on_c, 0, 73, 0
2, 486960, Note_on_c, 0, 61, 0
2, 487680, Note_on_c, 0, 100, 0
2, 487680, Note_on_c, 0, 98, 0
2, 487680, Note_on_c, 0, 85, 0
2, 487680, Note_on_c, 0, 86, 0
2, 487680, Note_on_c, 0, 100, 100
2, 487680, Note_on_c, 0, 98, 100
2, 487680, Note_on_c, 0, 85, 100
2, 487680, Note_on_c, 0, 73, 100
2, 487680, Note_on_c, 0, 86, 100
2, 487680, Note_on_c, 0, 61, 100
2, 487920, Note_on_c, 0, 73, 0
2, 487920, Note_on_c, 0, 61, 0
2, 488400, Note_on_c, 0, 100, 0
2, 488400, Note_on_c, 0, 98, 0
2, 488400, Note_on_c, 0, 85, 0
2, 488400, Note_on_c, 0, 86, 0
2, 488640, Note_on_c, 0, 99, 100
2, 488640, Note_on_c, 0, 97, 100
2, 488640, Note_on_c, 0, 85, 100
2, 488640, Note_on_c, 0, 72, 100
2, 488640, Note_on_c, 0, 60, 100
2, 488880, Note_on_c, 0, 72, 0
2, 488880, Note_on_c, 0, 60, 0
2, 489600, Note_on_c, 0, 99, 0
2, 489600, Note_on_c, 0, 97, 0
2, 489600, Note_on_c, 0, 85, 0
2, 489600, Note_on_c, 0, 99, 100
2, 489600, Note_on_c, 0, 97, 100
2, 489600, Note_on_c, 0, 85, 100
2, 489600, Note_on_c, 0, 72, 100
2, 489600, Note_on_c, 0, 60, 100
2, 491280, Note_on_c, 0, 99, 0
2, 491280, Note_on_c, 0, 97, 0
2, 491280, Note_on_c, 0, 85, 0
2, 491280, Note_on_c, 0, 72, 0
2, 491280, Note_on_c, 0, 60, 0
2, 491520, Note_on_c, 0, 96, 127
2, 491520, Note_on_c, 0, 72, 127
2, 491520, Note_on_c, 0, 84, 127
2, 491520, Note_on_c, 0, 98, 100
2, 491520, Note_on_c, 0, 60, 127
2, 499200, Note_on_c, 0, 96, 0
2, 499200, Note_on_c, 0, 72, 0
2, 499200, Note_on_c, 0, 84, 0
2, 499200, Note_on_c, 0, 98, 0
2, 499200, Note_on_c, 0, 60, 0
2, 499200, Note_on_c, 0, 96, 100
2, 499200, Note_on_c, 0, 84, 100
2, 499200, Note_on_c, 0, 72, 100
2, 499200, Note_on_c, 0, 60, 100
2, 499440, Note_on_c, 0, 96, 0
2, 499440, Note_on_c, 0, 84, 0
2, 499440, Note_on_c, 0, 72, 0
2, 499440, Note_on_c, 0, 60, 0
2, 500130, Note_on_c, 0, 106, 0
2, 500130, Note_on_c, 0, 94, 0
2, 500130, Note_on_c, 0, 70, 0
2, 500130, Note_on_c, 0, 82, 0
2, 500130, Note_on_c, 0, 105, 0
2, 500130, Note_on_c, 0, 93, 0
2, 500130, Note_on_c, 0, 69, 0
2, 500130, Note_on_c, 0, 81, 0
2, 500130, End_track
3, 0, Start_track
3, 0, Title_t, "EVENTS"
3, 0, Text_t, "sing_off"
3, 0, Text_t, "[verse]"
3, 0, Text_t, "[lighting ()]"
3, 0, Text_t, "bass_off"
3, 0, Text_t, "[crowd_half_tempo]"
3, 0, Text_t, "[half_tempo]"
3, 0, Text_t, "bass_half_tempo"
3, 7680, Text_t, "[music_start]"
3, 7680, Text_t, "[verse]"
3, 7680, Text_t, "[music_start]"
3, 38400, Text_t, "sing_on"
3, 69120, Text_t, "bass_on"
3, 71040, Text_t, "[lighting ()]"
3, 82560, Text_t, "[lighting ()]"
3, 84480, Text_t, "sing_on"
3, 115200, Text_t, "[lighting ()]"
3, 115200, Text_t, "[chorus]"
3, 115200, Text_t, "[crowd_normal_tempo]"
3, 115200, Text_t, "bass_normal_tempo"
3, 115200, Text_t, "[normal_tempo]"
3, 116160, Text_t, "[lighting ()]"
3, 120960, Text_t, "[lighting ()]"
3, 122880, Text_t, "wail_off"
3, 122880, Text_t, "[verse]"
3, 122880, Text_t, "sing_on"
3, 122880, Text_t, "[lighting ()]"
3, 122880, Text_t, "[crowd_half_tempo]"
3, 122880, Text_t, "bass_half_tempo"
3, 122880, Text_t, "[half_tempo]"
3, 153600, Text_t, "bass_off"
3, 153600, Text_t, "[lighting (flare)]"
3, 163200, Text_t, "[lighting ()]"
3, 165120, Text_t, "[chorus]"
3, 165120, Text_t, "bass_on"
3, 165120, Text_t, "[lighting ()]"
3, 167040, Text_t, "[lighting ()]"
3, 226560, Text_t, "[verse]"
3, 226560, Text_t, "sing_on"
3, 257280, Text_t, "[lighting ()]"
3, 259200, Text_t, "[lighting ()]"
3, 272640, Text_t, "sing_on"
3, 272640, Text_t, "[lighting ()]"
3, 303360, Text_t, "[chorus]"
3, 303360, Text_t, "[lighting ()]"
3, 303360, Text_t, "[crowd_normal_tempo]"
3, 303360, Text_t, "bass_normal_tempo"
3, 303360, Text_t, "[normal_tempo]"
3, 304320, Text_t, "[lighting ()]"
3, 309120, Text_t, "[lighting ()]"
3, 311040, Text_t, "sing_on"
3, 311040, Text_t, "[verse]"
3, 311040, Text_t, "wail_off"
3, 311040, Text_t, "[lighting ()]"
3, 311040, Text_t, "[crowd_half_tempo]"
3, 311040, Text_t, "bass_half_tempo"
3, 311040, Text_t, "[half_tempo]"
3, 341760, Text_t, "[lighting (flare)]"
3, 341760, Text_t, "bass_off"
3, 351360, Text_t, "[lighting ()]"
3, 353280, Text_t, "[solo]"
3, 353280, Text_t, "solo_on"
3, 353280, Text_t, "bass_on"
3, 353280, Text_t, "[lighting ()]"
3, 355200, Text_t, "[lighting ()]"
3, 384000, Text_t, "solo_off"
3, 384000, Text_t, "[chorus]"
3, 414720, Text_t, "sing_on"
3, 414720, Text_t, "[verse]"
3, 476160, Text_t, "[chorus]"
3, 476160, Text_t, "[lighting ()]"
3, 476160, Text_t, "[crowd_normal_tempo]"
3, 476160, Text_t, "bass_normal_tempo"
3, 476160, Text_t, "[normal_tempo]"
3, 477120, Text_t, "[lighting ()]"
3, 481920, Text_t, "[lighting ()]"
3, 483840, Text_t, "[lighting ()]"
3, 489600, Text_t, "[lighting ()]"
3, 491520, Text_t, "[lighting ()]"
3, 491520, Text_t, "drum_double_tempo"
3, 492480, Text_t, "bass_off"
3, 499200, Text_t, "wail_off"
3, 499200, Text_t, "[lighting (blackout)]"
3, 502080, Text_t, "[lighting (flare)]"
3, 503038, Text_t, "[end]"
3, 503038, End_track
4, 0, Start_track
4, 0, Title_t, "TRIGGERS"
4, 7680, Note_on_c, 0, 70, 100
4, 7920, Note_on_c, 0, 70, 0
4, 9600, Note_on_c, 0, 68, 100
4, 9840, Note_on_c, 0, 68, 0
4, 11520, Note_on_c, 0, 69, 100
4, 11760, Note_on_c, 0, 69, 0
4, 13440, Note_on_c, 0, 70, 100
4, 13680, Note_on_c, 0, 70, 0
4, 15360, Note_on_c, 0, 70, 100
4, 15600, Note_on_c, 0, 70, 0
4, 17280, Note_on_c, 0, 68, 100
4, 17520, Note_on_c, 0, 68, 0
4, 19200, Note_on_c, 0, 69, 100
4, 19440, Note_on_c, 0, 69, 0
4, 21120, Note_on_c, 0, 70, 100
4, 21360, Note_on_c, 0, 70, 0
4, 23040, Note_on_c, 0, 70, 100
4, 23280, Note_on_c, 0, 70, 0
4, 24960, Note_on_c, 0, 68, 100
4, 25200, Note_on_c, 0, 68, 0
4, 26880, Note_on_c, 0, 69, 100
4, 27120, Note_on_c, 0, 69, 0
4, 28800, Note_on_c, 0, 70, 100
4, 29040, Note_on_c, 0, 70, 0
4, 30720, Note_on_c, 0, 70, 100
4, 30960, Note_on_c, 0, 70, 0
4, 32640, Note_on_c, 0, 68, 100
4, 32880, Note_on_c, 0, 68, 0
4, 34560, Note_on_c, 0, 69, 100
4, 34800, Note_on_c, 0, 69, 0
4, 36480, Note_on_c, 0, 70, 100
4, 38160, Note_on_c, 0, 70, 0
4, 38400, Note_on_c, 0, 70, 100
4, 38640, Note_on_c, 0, 70, 0
4, 40320, Note_on_c, 0, 68, 100
4, 40560, Note_on_c, 0, 68, 0
4, 42240, Note_on_c, 0, 69, 100
4, 42480, Note_on_c, 0, 69, 0
4, 44160, Note_on_c, 0, 70, 100
4, 44400, Note_on_c, 0, 70, 0
4, 45120, Note_on_c, 0, 69, 100
4, 45360, Note_on_c, 0, 69, 0
4, 46080, Note_on_c, 0, 70, 100
4, 46320, Note_on_c, 0, 70, 0
4, 48000, Note_on_c, 0, 68, 100
4, 48240, Note_on_c, 0, 68, 0
4, 49920, Note_on_c, 0, 69, 100
4, 50160, Note_on_c, 0, 69, 0
4, 51840, Note_on_c, 0, 70, 100
4, 52080, Note_on_c, 0, 70, 0
4, 52320, Note_on_c, 0, 69, 100
4, 53040, Note_on_c, 0, 69, 0
4, 53760, Note_on_c, 0, 70, 100
4, 54000, Note_on_c, 0, 70, 0
4, 55680, Note_on_c, 0, 68, 100
4, 55920, Note_on_c, 0, 68, 0
4, 57600, Note_on_c, 0, 69, 100
4, 57840, Note_on_c, 0, 69, 0
4, 59520, Note_on_c, 0, 70, 100
4, 59760, Note_on_c, 0, 70, 0
4, 60480, Note_on_c, 0, 70, 100
4, 60720, Note_on_c, 0, 70, 0
4, 61440, Note_on_c, 0, 70, 100
4, 61680, Note_on_c, 0, 70, 0
4, 63360, Note_on_c, 0, 68, 100
4, 63600, Note_on_c, 0, 68, 0
4, 65280, Note_on_c, 0, 69, 100
4, 65520, Note_on_c, 0, 69, 0
4, 67200, Note_on_c, 0, 70, 100
4, 68880, Note_on_c, 0, 70, 0
4, 69120, Note_on_c, 3, 61, 100
4, 69120, Note_on_c, 0, 70, 100
4, 69360, Note_on_c, 3, 61, 0
4, 69360, Note_on_c, 0, 70, 0
4, 71040, Note_on_c, 3, 61, 100
4, 71040, Note_on_c, 0, 68, 100
4, 71280, Note_on_c, 3, 61, 0
4, 71280, Note_on_c, 0, 68, 0
4, 72960, Note_on_c, 3, 61, 100
4, 72960, Note_on_c, 0, 69, 100
4, 73200, Note_on_c, 3, 61, 0
4, 73200, Note_on_c, 0, 69, 0
4, 74880, Note_on_c, 3, 61, 100
4, 74880, Note_on_c, 0, 68, 100
4, 75120, Note_on_c, 3, 61, 0
4, 75120, Note_on_c, 0, 68, 0
4, 75840, Note_on_c, 0, 70, 100
4, 76080, Note_on_c, 0, 70, 0
4, 76800, Note_on_c, 3, 61, 100
4, 76800, Note_on_c, 0, 70, 100
4, 77040, Note_on_c, 3, 61, 0
4, 77040, Note_on_c, 0, 70, 0
4, 78720, Note_on_c, 3, 61, 100
4, 78720, Note_on_c, 0, 68, 100
4, 78960, Note_on_c, 3, 61, 0
4, 78960, Note_on_c, 0, 68, 0
4, 80640, Note_on_c, 3, 61, 100
4, 80640, Note_on_c, 0, 69, 100
4, 80880, Note_on_c, 3, 61, 0
4, 80880, Note_on_c, 0, 69, 0
4, 82560, Note_on_c, 3, 60, 100
4, 82560, Note_on_c, 0, 70, 100
4, 82800, Note_on_c, 3, 60, 0
4, 82800, Note_on_c, 0, 70, 0
4, 83040, Note_on_c, 3, 61, 100
4, 83040, Note_on_c, 0, 69, 100
4, 83280, Note_on_c, 3, 61, 0
4, 83520, Note_on_c, 3, 61, 100
4, 83760, Note_on_c, 3, 61, 0
4, 84000, Note_on_c, 3, 61, 100
4, 84240, Note_on_c, 0, 69, 0
4, 84240, Note_on_c, 3, 61, 0
4, 84480, Note_on_c, 3, 60, 100
4, 84480, Note_on_c, 3, 61, 100
4, 84480, Note_on_c, 0, 70, 100
4, 84720, Note_on_c, 3, 60, 0
4, 84720, Note_on_c, 3, 61, 0
4, 84720, Note_on_c, 0, 70, 0
4, 86400, Note_on_c, 3, 60, 100
4, 86400, Note_on_c, 3, 61, 100
4, 86400, Note_on_c, 0, 68, 100
4, 86640, Note_on_c, 3, 60, 0
4, 86640, Note_on_c, 3, 61, 0
4, 86640, Note_on_c, 0, 68, 0
4, 88320, Note_on_c, 3, 60, 100
4, 88320, Note_on_c, 3, 61, 100
4, 88320, Note_on_c, 0, 69, 100
4, 88560, Note_on_c, 3, 60, 0
4, 88560, Note_on_c, 3, 61, 0
4, 88560, Note_on_c, 0, 69, 0
4, 90240, Note_on_c, 3, 60, 100
4, 90240, Note_on_c, 3, 61, 100
4, 90240, Note_on_c, 0, 70, 100
4, 90480, Note_on_c, 3, 60, 0
4, 90480, Note_on_c, 3, 61, 0
4, 90480, Note_on_c, 0, 70, 0
4, 91200, Note_on_c, 0, 69, 100
4, 91440, Note_on_c, 0, 69, 0
4, 92160, Note_on_c, 3, 60, 100
4, 92160, Note_on_c, 3, 61, 100
4, 92160, Note_on_c, 0, 70, 100
4, 92400, Note_on_c, 3, 60, 0
4, 92400, Note_on_c, 3, 61, 0
4, 92400, Note_on_c, 0, 70, 0
4, 94080, Note_on_c, 3, 60, 100
4, 94080, Note_on_c, 3, 61, 100
4, 94080, Note_on_c, 0, 68, 100
4, 94320, Note_on_c, 3, 60, 0
4, 94320, Note_on_c, 3, 61, 0
4, 94320, Note_on_c, 0, 68, 0
4, 96000, Note_on_c, 3, 60, 100
4, 96000, Note_on_c, 3, 61, 100
4, 96000, Note_on_c, 0, 69, 100
4, 96240, Note_on_c, 3, 60, 0
4, 96240, Note_on_c, 3, 61, 0
4, 96240, Note_on_c, 0, 69, 0
4, 97920, Note_on_c, 3, 60, 100
4, 97920, Note_on_c, 0, 70, 100
4, 98160, Note_on_c, 3, 60, 0
4, 98160, Note_on_c, 0, 70, 0
4, 98400, Note_on_c, 3, 61, 100
4, 98400, Note_on_c, 0, 68, 100
4, 98640, Note_on_c, 3, 61, 0
4, 98880, Note_on_c, 3, 61, 100
4, 99120, Note_on_c, 3, 61, 0
4, 99360, Note_on_c, 0, 68, 0
4, 99360, Note_on_c, 3, 61, 100
4, 99600, Note_on_c, 3, 61, 0
4, 99840, Note_on_c, 3, 60, 100
4, 99840, Note_on_c, 3, 61, 100
4, 99840, Note_on_c, 0, 70, 100
4, 100080, Note_on_c, 3, 60, 0
4, 100080, Note_on_c, 3, 61, 0
4, 100080, Note_on_c, 0, 70, 0
4, 101760, Note_on_c, 3, 60, 100
4, 101760, Note_on_c, 3, 61, 100
4, 101760, Note_on_c, 0, 68, 100
4, 102000, Note_on_c, 3, 60, 0
4, 102000, Note_on_c, 3, 61, 0
4, 102000, Note_on_c, 0, 68, 0
4, 103680, Note_on_c, 3, 60, 100
4, 103680, Note_on_c, 3, 61, 100
4, 103680, Note_on_c, 0, 69, 100
4, 103920, Note_on_c, 3, 60, 0
4, 103920, Note_on_c, 3, 61, 0
4, 103920, Note_on_c, 0, 69, 0
4, 105600, Note_on_c, 3, 60, 100
4, 105600, Note_on_c, 3, 61, 100
4, 105600, Note_on_c, 0, 70, 100
4, 105840, Note_on_c, 3, 60, 0
4, 105840, Note_on_c, 3, 61, 0
4, 105840, Note_on_c, 0, 70, 0
4, 106080, Note_on_c, 0, 70, 100
4, 107280, Note_on_c, 0, 70, 0
4, 107520, Note_on_c, 3, 60, 100
4, 107520, Note_on_c, 3, 61, 100
4, 107520, Note_on_c, 0, 70, 100
4, 107760, Note_on_c, 3, 60, 0
4, 107760, Note_on_c, 3, 61, 0
4, 107760, Note_on_c, 0, 70, 0
4, 109440, Note_on_c, 3, 60, 100
4, 109440, Note_on_c, 3, 61, 100
4, 109440, Note_on_c, 0, 68, 100
4, 109680, Note_on_c, 3, 60, 0
4, 109680, Note_on_c, 3, 61, 0
4, 109680, Note_on_c, 0, 68, 0
4, 111360, Note_on_c, 3, 60, 100
4, 111360, Note_on_c, 3, 61, 100
4, 111360, Note_on_c, 0, 69, 100
4, 111600, Note_on_c, 3, 60, 0
4, 111600, Note_on_c, 3, 61, 0
4, 111600, Note_on_c, 0, 69, 0
4, 113280, Note_on_c, 3, 60, 100
4, 113280, Note_on_c, 0, 70, 100
4, 113520, Note_on_c, 3, 60, 0
4, 113760, Note_on_c, 3, 61, 100
4, 114000, Note_on_c, 3, 61, 0
4, 114240, Note_on_c, 3, 61, 100
4, 114480, Note_on_c, 3, 61, 0
4, 114720, Note_on_c, 3, 61, 100
4, 114960, Note_on_c, 0, 70, 0
4, 114960, Note_on_c, 3, 61, 0
4, 115200, Note_on_c, 3, 60, 100
4, 115200, Note_on_c, 3, 61, 100
4, 115200, Note_on_c, 0, 68, 100
4, 115440, Note_on_c, 3, 60, 0
4, 115440, Note_on_c, 3, 61, 0
4, 117120, Note_on_c, 3, 60, 100
4, 117360, Note_on_c, 3, 60, 0
4, 117600, Note_on_c, 3, 60, 100
4, 117840, Note_on_c, 3, 60, 0
4, 119040, Note_on_c, 3, 60, 100
4, 119280, Note_on_c, 3, 60, 0
4, 120720, Note_on_c, 3, 60, 100
4, 120960, Note_on_c, 3, 60, 0
4, 121680, Note_on_c, 3, 60, 100
4, 121920, Note_on_c, 0, 68, 0
4, 121920, Note_on_c, 3, 60, 0
4, 122400, Note_on_c, 3, 60, 100
4, 122640, Note_on_c, 3, 60, 0
4, 122880, Note_on_c, 3, 60, 100
4, 122880, Note_on_c, 3, 61, 100
4, 122880, Note_on_c, 0, 68, 100
4, 123120, Note_on_c, 3, 60, 0
4, 123120, Note_on_c, 3, 61, 0
4, 123360, Note_on_c, 3, 61, 100
4, 123600, Note_on_c, 3, 61, 0
4, 123840, Note_on_c, 3, 60, 100
4, 123840, Note_on_c, 3, 61, 100
4, 124080, Note_on_c, 3, 60, 0
4, 124080, Note_on_c, 3, 61, 0
4, 124320, Note_on_c, 3, 61, 100
4, 124560, Note_on_c, 0, 68, 0
4, 124560, Note_on_c, 3, 61, 0
4, 124800, Note_on_c, 3, 60, 100
4, 124800, Note_on_c, 3, 61, 100
4, 124800, Note_on_c, 0, 70, 100
4, 125040, Note_on_c, 3, 60, 0
4, 125040, Note_on_c, 3, 61, 0
4, 125280, Note_on_c, 3, 61, 100
4, 125520, Note_on_c, 3, 61, 0
4, 125760, Note_on_c, 3, 60, 100
4, 125760, Note_on_c, 3, 61, 100
4, 126000, Note_on_c, 3, 60, 0
4, 126000, Note_on_c, 3, 61, 0
4, 126240, Note_on_c, 3, 61, 100
4, 126480, Note_on_c, 0, 70, 0
4, 126480, Note_on_c, 3, 61, 0
4, 126720, Note_on_c, 3, 60, 100
4, 126720, Note_on_c, 3, 61, 100
4, 126720, Note_on_c, 0, 69, 100
4, 126960, Note_on_c, 3, 60, 0
4, 126960, Note_on_c, 3, 61, 0
4, 126960, Note_on_c, 0, 69, 0
4, 127200, Note_on_c, 3, 61, 100
4, 127440, Note_on_c, 3, 61, 0
4, 127680, Note_on_c, 3, 60, 100
4, 127680, Note_on_c, 3, 61, 100
4, 127680, Note_on_c, 0, 68, 100
4, 127920, Note_on_c, 3, 60, 0
4, 127920, Note_on_c, 3, 61, 0
4, 127920, Note_on_c, 0, 68, 0
4, 128160, Note_on_c, 3, 61, 100
4, 128400, Note_on_c, 3, 61, 0
4, 128640, Note_on_c, 3, 60, 100
4, 128640, Note_on_c, 3, 61, 100
4, 128640, Note_on_c, 0, 69, 100
4, 128880, Note_on_c, 3, 60, 0
4, 128880, Note_on_c, 3, 61, 0
4, 128880, Note_on_c, 0, 69, 0
4, 129120, Note_on_c, 3, 61, 100
4, 129360, Note_on_c, 3, 61, 0
4, 129600, Note_on_c, 3, 61, 100
4, 129600, Note_on_c, 0, 68, 100
4, 129840, Note_on_c, 3, 61, 0
4, 129840, Note_on_c, 0, 68, 0
4, 130080, Note_on_c, 3, 61, 100
4, 130320, Note_on_c, 3, 61, 0
4, 130560, Note_on_c, 3, 60, 100
4, 130560, Note_on_c, 3, 61, 100
4, 130560, Note_on_c, 0, 68, 100
4, 130800, Note_on_c, 3, 60, 0
4, 130800, Note_on_c, 3, 61, 0
4, 131040, Note_on_c, 3, 61, 100
4, 131280, Note_on_c, 3, 61, 0
4, 131520, Note_on_c, 3, 60, 100
4, 131520, Note_on_c, 3, 61, 100
4, 131760, Note_on_c, 3, 60, 0
4, 131760, Note_on_c, 3, 61, 0
4, 132000, Note_on_c, 3, 61, 100
4, 132240, Note_on_c, 0, 68, 0
4, 132240, Note_on_c, 3, 61, 0
4, 132480, Note_on_c, 3, 60, 100
4, 132480, Note_on_c, 3, 61, 100
4, 132480, Note_on_c, 0, 70, 100
4, 132720, Note_on_c, 3, 60, 0
4, 132720, Note_on_c, 3, 61, 0
4, 132960, Note_on_c, 3, 61, 100
4, 133200, Note_on_c, 3, 61, 0
4, 133440, Note_on_c, 3, 60, 100
4, 133440, Note_on_c, 3, 61, 100
4, 133680, Note_on_c, 3, 60, 0
4, 133680, Note_on_c, 3, 61, 0
4, 133920, Note_on_c, 3, 61, 100
4, 134160, Note_on_c, 0, 70, 0
4, 134160, Note_on_c, 3, 61, 0
4, 134400, Note_on_c, 3, 60, 100
4, 134400, Note_on_c, 3, 61, 100
4, 134400, Note_on_c, 0, 69, 100
4, 134640, Note_on_c, 3, 60, 0
4, 134640, Note_on_c, 3, 61, 0
4, 134640, Note_on_c, 0, 69, 0
4, 134880, Note_on_c, 3, 61, 100
4, 135120, Note_on_c, 3, 61, 0
4, 135360, Note_on_c, 3, 60, 100
4, 135360, Note_on_c, 3, 61, 100
4, 135360, Note_on_c, 0, 68, 100
4, 135600, Note_on_c, 3, 60, 0
4, 135600, Note_on_c, 3, 61, 0
4, 135600, Note_on_c, 0, 68, 0
4, 135840, Note_on_c, 3, 61, 100
4, 136080, Note_on_c, 3, 61, 0
4, 136320, Note_on_c, 3, 60, 100
4, 136320, Note_on_c, 3, 61, 100
4, 136320, Note_on_c, 0, 69, 100
4, 136560, Note_on_c, 3, 60, 0
4, 136560, Note_on_c, 3, 61, 0
4, 136560, Note_on_c, 0, 69, 0
4, 136800, Note_on_c, 3, 61, 100
4, 137040, Note_on_c, 3, 61, 0
4, 137280, Note_on_c, 3, 61, 100
4, 137280, Note_on_c, 0, 68, 100
4, 137520, Note_on_c, 3, 61, 0
4, 137520, Note_on_c, 0, 68, 0
4, 137760, Note_on_c, 3, 61, 100
4, 138000, Note_on_c, 3, 61, 0
4, 138240, Note_on_c, 3, 60, 100
4, 138240, Note_on_c, 3, 61, 100
4, 138240, Note_on_c, 0, 68, 100
4, 138480, Note_on_c, 3, 60, 0
4, 138480, Note_on_c, 3, 61, 0
4, 138720, Note_on_c, 3, 61, 100
4, 138960, Note_on_c, 3, 61, 0
4, 139200, Note_on_c, 3, 60, 100
4, 139200, Note_on_c, 3, 61, 100
4, 139440, Note_on_c, 3, 60, 0
4, 139440, Note_on_c, 3, 61, 0
4, 139680, Note_on_c, 3, 61, 100
4, 139920, Note_on_c, 0, 68, 0
4, 139920, Note_on_c, 3, 61, 0
4, 140160, Note_on_c, 3, 60, 100
4, 140160, Note_on_c, 3, 61, 100
4, 140160, Note_on_c, 0, 70, 100
4, 140400, Note_on_c, 3, 60, 0
4, 140400, Note_on_c, 3, 61, 0
4, 140640, Note_on_c, 3, 61, 100
4, 140880, Note_on_c, 3, 61, 0
4, 141120, Note_on_c, 3, 60, 100
4, 141120, Note_on_c, 3, 61, 100
4, 141360, Note_on_c, 3, 60, 0
4, 141360, Note_on_c, 3, 61, 0
4, 141600, Note_on_c, 3, 61, 100
4, 141840, Note_on_c, 0, 70, 0
4, 141840, Note_on_c, 3, 61, 0
4, 142080, Note_on_c, 3, 60, 100
4, 142080, Note_on_c, 3, 61, 100
4, 142080, Note_on_c, 0, 69, 100
4, 142320, Note_on_c, 3, 60, 0
4, 142320, Note_on_c, 3, 61, 0
4, 142320, Note_on_c, 0, 69, 0
4, 142560, Note_on_c, 3, 61, 100
4, 142800, Note_on_c, 3, 61, 0
4, 143040, Note_on_c, 3, 60, 100
4, 143040, Note_on_c, 3, 61, 100
4, 143040, Note_on_c, 0, 68, 100
4, 143280, Note_on_c, 3, 60, 0
4, 143280, Note_on_c, 3, 61, 0
4, 143280, Note_on_c, 0, 68, 0
4, 143520, Note_on_c, 3, 61, 100
4, 143760, Note_on_c, 3, 61, 0
4, 144000, Note_on_c, 3, 60, 100
4, 144000, Note_on_c, 3, 61, 100
4, 144000, Note_on_c, 0, 69, 100
4, 144240, Note_on_c, 3, 60, 0
4, 144240, Note_on_c, 3, 61, 0
4, 144240, Note_on_c, 0, 69, 0
4, 144480, Note_on_c, 3, 61, 100
4, 144720, Note_on_c, 3, 61, 0
4, 144960, Note_on_c, 3, 61, 100
4, 144960, Note_on_c, 0, 68, 100
4, 145200, Note_on_c, 3, 61, 0
4, 145200, Note_on_c, 0, 68, 0
4, 145440, Note_on_c, 3, 61, 100
4, 145680, Note_on_c, 3, 61, 0
4, 145920, Note_on_c, 3, 60, 100
4, 145920, Note_on_c, 3, 61, 100
4, 145920, Note_on_c, 0, 68, 100
4, 146160, Note_on_c, 3, 60, 0
4, 146160, Note_on_c, 3, 61, 0
4, 146400, Note_on_c, 3, 61, 100
4, 146640, Note_on_c, 3, 61, 0
4, 146880, Note_on_c, 3, 60, 100
4, 146880, Note_on_c, 3, 61, 100
4, 147120, Note_on_c, 3, 60, 0
4, 147120, Note_on_c, 3, 61, 0
4, 147360, Note_on_c, 3, 61, 100
4, 147600, Note_on_c, 0, 68, 0
4, 147600, Note_on_c, 3, 61, 0
4, 147840, Note_on_c, 3, 60, 100
4, 147840, Note_on_c, 3, 61, 100
4, 147840, Note_on_c, 0, 70, 100
4, 148080, Note_on_c, 3, 60, 0
4, 148080, Note_on_c, 3, 61, 0
4, 148320, Note_on_c, 3, 61, 100
4, 148560, Note_on_c, 3, 61, 0
4, 148800, Note_on_c, 3, 60, 100
4, 148800, Note_on_c, 3, 61, 100
4, 149040, Note_on_c, 3, 60, 0
4, 149040, Note_on_c, 3, 61, 0
4, 149280, Note_on_c, 3, 61, 100
4, 149520, Note_on_c, 0, 70, 0
4, 149520, Note_on_c, 3, 61, 0
4, 149760, Note_on_c, 3, 60, 100
4, 149760, Note_on_c, 3, 61, 100
4, 149760, Note_on_c, 0, 69, 100
4, 150000, Note_on_c, 3, 60, 0
4, 150000, Note_on_c, 3, 61, 0
4, 150000, Note_on_c, 0, 69, 0
4, 150240, Note_on_c, 3, 61, 100
4, 150480, Note_on_c, 3, 61, 0
4, 150720, Note_on_c, 3, 60, 100
4, 150720, Note_on_c, 3, 61, 100
4, 150720, Note_on_c, 0, 68, 100
4, 150960, Note_on_c, 3, 60, 0
4, 150960, Note_on_c, 3, 61, 0
4, 150960, Note_on_c, 0, 68, 0
4, 151200, Note_on_c, 3, 61, 100
4, 151440, Note_on_c, 3, 61, 0
4, 151680, Note_on_c, 3, 60, 100
4, 151680, Note_on_c, 3, 61, 100
4, 151680, Note_on_c, 0, 69, 100
4, 151920, Note_on_c, 3, 60, 0
4, 151920, Note_on_c, 3, 61, 0
4, 151920, Note_on_c, 0, 69, 0
4, 152160, Note_on_c, 3, 61, 100
4, 152400, Note_on_c, 3, 61, 0
4, 152640, Note_on_c, 3, 61, 100
4, 152640, Note_on_c, 0, 68, 100
4, 152880, Note_on_c, 3, 61, 0
4, 152880, Note_on_c, 0, 68, 0
4, 153120, Note_on_c, 3, 61, 100
4, 153360, Note_on_c, 3, 61, 0
4, 153600, Note_on_c, 3, 60, 100
4, 153600, Note_on_c, 0, 68, 100
4, 153840, Note_on_c, 3, 60, 0
4, 153840, Note_on_c, 0, 68, 0
4, 155520, Note_on_c, 3, 60, 100
4, 155520, Note_on_c, 0, 68, 100
4, 155760, Note_on_c, 3, 60, 0
4, 155760, Note_on_c, 0, 68, 0
4, 157440, Note_on_c, 3, 60, 100
4, 157440, Note_on_c, 0, 68, 100
4, 157680, Note_on_c, 3, 60, 0
4, 157680, Note_on_c, 0, 68, 0
4, 159360, Note_on_c, 3, 60, 100
4, 159360, Note_on_c, 0, 68, 100
4, 159600, Note_on_c, 3, 60, 0
4, 159600, Note_on_c, 0, 68, 0
4, 161280, Note_on_c, 3, 60, 100
4, 161280, Note_on_c, 0, 68, 100
4, 161520, Note_on_c, 3, 60, 0
4, 161520, Note_on_c, 0, 68, 0
4, 163200, Note_on_c, 3, 60, 100
4, 163200, Note_on_c, 0, 68, 100
4, 163440, Note_on_c, 3, 60, 0
4, 163440, Note_on_c, 0, 68, 0
4, 165120, Note_on_c, 3, 60, 100
4, 165120, Note_on_c, 3, 61, 100
4, 165120, Note_on_c, 0, 68, 100
4, 165360, Note_on_c, 3, 60, 0
4, 165360, Note_on_c, 3, 61, 0
4, 167040, Note_on_c, 3, 60, 100
4, 167040, Note_on_c, 3, 61, 100
4, 167280, Note_on_c, 0, 68, 0
4, 167280, Note_on_c, 3, 60, 0
4, 167280, Note_on_c, 3, 61, 0
4, 167520, Note_on_c, 0, 70, 100
4, 168720, Note_on_c, 0, 70, 0
4, 168960, Note_on_c, 3, 60, 100
4, 168960, Note_on_c, 3, 61, 100
4, 168960, Note_on_c, 0, 69, 100
4, 169200, Note_on_c, 3, 60, 0
4, 169200, Note_on_c, 3, 61, 0
4, 170880, Note_on_c, 3, 60, 100
4, 170880, Note_on_c, 3, 61, 100
4, 171120, Note_on_c, 3, 60, 0
4, 171120, Note_on_c, 3, 61, 0
4, 172560, Note_on_c, 0, 69, 0
4, 172800, Note_on_c, 3, 60, 100
4, 172800, Note_on_c, 3, 61, 100
4, 172800, Note_on_c, 0, 68, 100
4, 173040, Note_on_c, 3, 60, 0
4, 173040, Note_on_c, 3, 61, 0
4, 174720, Note_on_c, 3, 60, 100
4, 174720, Note_on_c, 3, 61, 100
4, 174960, Note_on_c, 0, 68, 0
4, 174960, Note_on_c, 3, 60, 0
4, 174960, Note_on_c, 3, 61, 0
4, 175200, Note_on_c, 0, 70, 100
4, 176400, Note_on_c, 0, 70, 0
4, 176640, Note_on_c, 3, 60, 100
4, 176640, Note_on_c, 3, 61, 100
4, 176640, Note_on_c, 0, 69, 100
4, 176880, Note_on_c, 3, 60, 0
4, 176880, Note_on_c, 3, 61, 0
4, 178320, Note_on_c, 0, 69, 0
4, 178560, Note_on_c, 3, 60, 100
4, 178560, Note_on_c, 0, 68, 100
4, 178800, Note_on_c, 3, 60, 0
4, 179040, Note_on_c, 3, 61, 100
4, 179280, Note_on_c, 3, 61, 0
4, 179520, Note_on_c, 3, 61, 100
4, 179760, Note_on_c, 3, 61, 0
4, 180000, Note_on_c, 3, 61, 100
4, 180240, Note_on_c, 0, 68, 0
4, 180240, Note_on_c, 3, 61, 0
4, 180480, Note_on_c, 3, 60, 100
4, 180480, Note_on_c, 3, 61, 100
4, 180480, Note_on_c, 0, 68, 100
4, 180720, Note_on_c, 3, 60, 0
4, 180720, Note_on_c, 3, 61, 0
4, 182400, Note_on_c, 3, 60, 100
4, 182400, Note_on_c, 3, 61, 100
4, 182640, Note_on_c, 0, 68, 0
4, 182640, Note_on_c, 3, 60, 0
4, 182640, Note_on_c, 3, 61, 0
4, 182880, Note_on_c, 0, 70, 100
4, 184080, Note_on_c, 0, 70, 0
4, 184320, Note_on_c, 3, 60, 100
4, 184320, Note_on_c, 3, 61, 100
4, 184320, Note_on_c, 0, 69, 100
4, 184560, Note_on_c, 3, 60, 0
4, 184560, Note_on_c, 3, 61, 0
4, 186240, Note_on_c, 3, 60, 100
4, 186240, Note_on_c, 3, 61, 100
4, 186480, Note_on_c, 3, 60, 0
4, 186480, Note_on_c, 3, 61, 0
4, 187920, Note_on_c, 0, 69, 0
4, 188160, Note_on_c, 3, 60, 100
4, 188160, Note_on_c, 3, 61, 100
4, 188160, Note_on_c, 0, 68, 100
4, 188400, Note_on_c, 3, 60, 0
4, 188400, Note_on_c, 3, 61, 0
4, 190080, Note_on_c, 3, 60, 100
4, 190080, Note_on_c, 3, 61, 100
4, 190320, Note_on_c, 0, 68, 0
4, 190320, Note_on_c, 3, 60, 0
4, 190320, Note_on_c, 3, 61, 0
4, 190560, Note_on_c, 0, 70, 100
4, 191760, Note_on_c, 0, 70, 0
4, 192000, Note_on_c, 3, 60, 100
4, 192000, Note_on_c, 3, 61, 100
4, 192000, Note_on_c, 0, 69, 100
4, 192240, Note_on_c, 3, 60, 0
4, 192240, Note_on_c, 3, 61, 0
4, 193680, Note_on_c, 0, 69, 0
4, 193920, Note_on_c, 3, 60, 100
4, 193920, Note_on_c, 0, 68, 100
4, 194160, Note_on_c, 3, 60, 0
4, 194400, Note_on_c, 3, 61, 100
4, 194640, Note_on_c, 3, 61, 0
4, 194880, Note_on_c, 3, 61, 100
4, 195120, Note_on_c, 3, 61, 0
4, 195360, Note_on_c, 3, 61, 100
4, 195600, Note_on_c, 0, 68, 0
4, 195600, Note_on_c, 3, 61, 0
4, 195840, Note_on_c, 3, 60, 100
4, 195840, Note_on_c, 3, 61, 100
4, 195840, Note_on_c, 0, 68, 100
4, 196080, Note_on_c, 3, 60, 0
4, 196080, Note_on_c, 3, 61, 0
4, 196080, Note_on_c, 0, 68, 0
4, 197760, Note_on_c, 3, 60, 100
4, 197760, Note_on_c, 3, 61, 100
4, 197760, Note_on_c, 0, 69, 100
4, 198000, Note_on_c, 3, 60, 0
4, 198000, Note_on_c, 3, 61, 0
4, 199680, Note_on_c, 3, 60, 100
4, 199680, Note_on_c, 3, 61, 100
4, 199920, Note_on_c, 3, 60, 0
4, 199920, Note_on_c, 3, 61, 0
4, 200400, Note_on_c, 0, 69, 0
4, 201600, Note_on_c, 3, 60, 100
4, 201600, Note_on_c, 3, 61, 100
4, 201600, Note_on_c, 0, 70, 100
4, 201840, Note_on_c, 3, 60, 0
4, 201840, Note_on_c, 3, 61, 0
4, 201840, Note_on_c, 0, 70, 0
4, 203520, Note_on_c, 3, 60, 100
4, 203520, Note_on_c, 3, 61, 100
4, 203520, Note_on_c, 0, 69, 100
4, 203760, Note_on_c, 3, 60, 0
4, 203760, Note_on_c, 3, 61, 0
4, 203760, Note_on_c, 0, 69, 0
4, 204480, Note_on_c, 0, 69, 100
4, 204720, Note_on_c, 0, 69, 0
4, 205440, Note_on_c, 3, 60, 100
4, 205440, Note_on_c, 3, 61, 100
4, 205440, Note_on_c, 0, 69, 100
4, 205680, Note_on_c, 3, 60, 0
4, 205680, Note_on_c, 3, 61, 0
4, 207360, Note_on_c, 3, 60, 100
4, 207360, Note_on_c, 3, 61, 100
4, 207600, Note_on_c, 3, 60, 0
4, 207600, Note_on_c, 3, 61, 0
4, 209040, Note_on_c, 0, 69, 0
4, 209280, Note_on_c, 3, 60, 100
4, 209280, Note_on_c, 0, 69, 100
4, 209520, Note_on_c, 3, 60, 0
4, 209520, Note_on_c, 0, 69, 0
4, 209760, Note_on_c, 3, 61, 100
4, 210000, Note_on_c, 3, 61, 0
4, 210240, Note_on_c, 3, 61, 100
4, 210480, Note_on_c, 3, 61, 0
4, 210720, Note_on_c, 3, 61, 100
4, 210960, Note_on_c, 3, 61, 0
4, 211200, Note_on_c, 3, 60, 100
4, 211200, Note_on_c, 3, 61, 100
4, 211200, Note_on_c, 0, 68, 100
4, 211440, Note_on_c, 3, 60, 0
4, 211440, Note_on_c, 3, 61, 0
4, 211440, Note_on_c, 0, 68, 0
4, 213120, Note_on_c, 3, 60, 100
4, 213120, Note_on_c, 3, 61, 100
4, 213120, Note_on_c, 0, 69, 100
4, 213360, Note_on_c, 3, 60, 0
4, 213360, Note_on_c, 3, 61, 0
4, 215040, Note_on_c, 3, 60, 100
4, 215040, Note_on_c, 3, 61, 100
4, 215280, Note_on_c, 3, 60, 0
4, 215280, Note_on_c, 3, 61, 0
4, 215760, Note_on_c, 0, 69, 0
4, 216960, Note_on_c, 3, 60, 100
4, 216960, Note_on_c, 3, 61, 100
4, 216960, Note_on_c, 0, 70, 100
4, 217200, Note_on_c, 3, 60, 0
4, 217200, Note_on_c, 3, 61, 0
4, 217200, Note_on_c, 0, 70, 0
4, 218880, Note_on_c, 3, 60, 100
4, 218880, Note_on_c, 3, 61, 100
4, 218880, Note_on_c, 0, 69, 100
4, 219120, Note_on_c, 3, 60, 0
4, 219120, Note_on_c, 3, 61, 0
4, 219120, Note_on_c, 0, 69, 0
4, 219840, Note_on_c, 0, 70, 100
4, 220080, Note_on_c, 0, 70, 0
4, 220800, Note_on_c, 3, 60, 100
4, 220800, Note_on_c, 3, 61, 100
4, 221040, Note_on_c, 3, 60, 0
4, 221040, Note_on_c, 3, 61, 0
4, 221760, Note_on_c, 0, 68, 100
4, 222000, Note_on_c, 0, 68, 0
4, 222720, Note_on_c, 3, 60, 100
4, 222720, Note_on_c, 3, 61, 100
4, 222960, Note_on_c, 3, 60, 0
4, 222960, Note_on_c, 3, 61, 0
4, 223680, Note_on_c, 0, 68, 100
4, 223920, Note_on_c, 0, 68, 0
4, 224640, Note_on_c, 3, 60, 100
4, 224880, Note_on_c, 3, 60, 0
4, 225120, Note_on_c, 3, 61, 100
4, 225360, Note_on_c, 3, 61, 0
4, 225600, Note_on_c, 3, 61, 100
4, 225600, Note_on_c, 0, 69, 100
4, 225840, Note_on_c, 3, 61, 0
4, 225840, Note_on_c, 0, 69, 0
4, 226080, Note_on_c, 3, 61, 100
4, 226320, Note_on_c, 3, 61, 0
4, 226560, Note_on_c, 3, 60, 100
4, 226560, Note_on_c, 3, 61, 100
4, 226560, Note_on_c, 0, 68, 100
4, 226800, Note_on_c, 3, 60, 0
4, 226800, Note_on_c, 3, 61, 0
4, 226800, Note_on_c, 0, 68, 0
4, 227040, Note_on_c, 0, 68, 100
4, 227280, Note_on_c, 0, 68, 0
4, 228480, Note_on_c, 3, 61, 100
4, 228480, Note_on_c, 0, 69, 100
4, 228720, Note_on_c, 3, 61, 0
4, 228720, Note_on_c, 0, 69, 0
4, 228960, Note_on_c, 0, 69, 100
4, 229200, Note_on_c, 0, 69, 0
4, 230400, Note_on_c, 3, 60, 100
4, 230400, Note_on_c, 3, 61, 100
4, 230400, Note_on_c, 0, 70, 100
4, 230640, Note_on_c, 3, 60, 0
4, 230640, Note_on_c, 3, 61, 0
4, 230640, Note_on_c, 0, 70, 0
4, 230880, Note_on_c, 0, 70, 100
4, 231120, Note_on_c, 0, 70, 0
4, 232320, Note_on_c, 3, 60, 100
4, 232320, Note_on_c, 3, 61, 100
4, 232320, Note_on_c, 0, 68, 100
4, 232560, Note_on_c, 3, 60, 0
4, 232560, Note_on_c, 3, 61, 0
4, 232560, Note_on_c, 0, 68, 0
4, 234240, Note_on_c, 3, 60, 100
4, 234240, Note_on_c, 3, 61, 100
4, 234240, Note_on_c, 0, 70, 100
4, 234480, Note_on_c, 3, 60, 0
4, 234480, Note_on_c, 3, 61, 0
4, 234480, Note_on_c, 0, 70, 0
4, 234720, Note_on_c, 0, 70, 100
4, 234960, Note_on_c, 0, 70, 0
4, 236160, Note_on_c, 3, 61, 100
4, 236160, Note_on_c, 0, 68, 100
4, 236400, Note_on_c, 3, 61, 0
4, 236400, Note_on_c, 0, 68, 0
4, 236640, Note_on_c, 0, 68, 100
4, 236880, Note_on_c, 0, 68, 0
4, 238080, Note_on_c, 3, 60, 100
4, 238080, Note_on_c, 3, 61, 100
4, 238080, Note_on_c, 0, 69, 100
4, 238320, Note_on_c, 3, 60, 0
4, 238320, Note_on_c, 3, 61, 0
4, 238320, Note_on_c, 0, 69, 0
4, 238560, Note_on_c, 0, 69, 100
4, 238800, Note_on_c, 0, 69, 0
4, 240000, Note_on_c, 3, 60, 100
4, 240000, Note_on_c, 0, 68, 100
4, 240240, Note_on_c, 3, 60, 0
4, 240240, Note_on_c, 0, 68, 0
4, 240480, Note_on_c, 3, 61, 100
4, 240720, Note_on_c, 3, 61, 0
4, 240960, Note_on_c, 3, 61, 100
4, 241200, Note_on_c, 3, 61, 0
4, 241440, Note_on_c, 3, 61, 100
4, 241680, Note_on_c, 3, 61, 0
4, 241920, Note_on_c, 3, 60, 100
4, 241920, Note_on_c, 3, 61, 100
4, 241920, Note_on_c, 0, 68, 100
4, 242160, Note_on_c, 3, 60, 0
4, 242160, Note_on_c, 3, 61, 0
4, 242160, Note_on_c, 0, 68, 0
4, 242400, Note_on_c, 0, 68, 100
4, 242640, Note_on_c, 0, 68, 0
4, 243840, Note_on_c, 3, 61, 100
4, 243840, Note_on_c, 0, 69, 100
4, 244080, Note_on_c, 3, 61, 0
4, 244080, Note_on_c, 0, 69, 0
4, 244320, Note_on_c, 0, 69, 100
4, 244560, Note_on_c, 0, 69, 0
4, 245760, Note_on_c, 3, 60, 100
4, 245760, Note_on_c, 3, 61, 100
4, 245760, Note_on_c, 0, 70, 100
4, 246000, Note_on_c, 3, 60, 0
4, 246000, Note_on_c, 3, 61, 0
4, 246000, Note_on_c, 0, 70, 0
4, 246240, Note_on_c, 0, 70, 100
4, 246480, Note_on_c, 0, 70, 0
4, 247680, Note_on_c, 3, 60, 100
4, 247680, Note_on_c, 3, 61, 100
4, 247680, Note_on_c, 0, 68, 100
4, 247920, Note_on_c, 3, 60, 0
4, 247920, Note_on_c, 3, 61, 0
4, 247920, Note_on_c, 0, 68, 0
4, 249600, Note_on_c, 3, 60, 100
4, 249600, Note_on_c, 3, 61, 100
4, 249600, Note_on_c, 0, 70, 100
4, 249840, Note_on_c, 3, 60, 0
4, 249840, Note_on_c, 3, 61, 0
4, 249840, Note_on_c, 0, 70, 0
4, 250080, Note_on_c, 0, 70, 100
4, 250320, Note_on_c, 0, 70, 0
4, 251520, Note_on_c, 3, 61, 100
4, 251520, Note_on_c, 0, 68, 100
4, 251760, Note_on_c, 3, 61, 0
4, 251760, Note_on_c, 0, 68, 0
4, 252000, Note_on_c, 0, 68, 100
4, 252240, Note_on_c, 0, 68, 0
4, 253440, Note_on_c, 3, 60, 100
4, 253440, Note_on_c, 3, 61, 100
4, 253440, Note_on_c, 0, 69, 100
4, 253680, Note_on_c, 3, 60, 0
4, 253680, Note_on_c, 3, 61, 0
4, 253680, Note_on_c, 0, 69, 0
4, 253920, Note_on_c, 0, 69, 100
4, 254160, Note_on_c, 0, 69, 0
4, 255360, Note_on_c, 3, 60, 100
4, 255360, Note_on_c, 0, 68, 100
4, 255600, Note_on_c, 3, 60, 0
4, 255600, Note_on_c, 0, 68, 0
4, 255840, Note_on_c, 3, 61, 100
4, 256080, Note_on_c, 3, 61, 0
4, 256320, Note_on_c, 3, 61, 100
4, 256560, Note_on_c, 3, 61, 0
4, 256800, Note_on_c, 3, 61, 100
4, 257040, Note_on_c, 3, 61, 0
4, 257280, Note_on_c, 3, 60, 100
4, 257280, Note_on_c, 3, 61, 100
4, 257280, Note_on_c, 0, 69, 100
4, 257520, Note_on_c, 3, 60, 0
4, 257520, Note_on_c, 3, 61, 0
4, 257520, Note_on_c, 0, 69, 0
4, 257760, Note_on_c, 3, 61, 100
4, 258000, Note_on_c, 3, 61, 0
4, 258240, Note_on_c, 3, 60, 100
4, 258240, Note_on_c, 3, 61, 100
4, 258240, Note_on_c, 0, 69, 100
4, 258480, Note_on_c, 3, 60, 0
4, 258480, Note_on_c, 3, 61, 0
4, 258480, Note_on_c, 0, 69, 0
4, 258720, Note_on_c, 3, 61, 100
4, 258960, Note_on_c, 3, 61, 0
4, 259200, Note_on_c, 3, 60, 100
4, 259200, Note_on_c, 3, 61, 100
4, 259200, Note_on_c, 0, 69, 100
4, 259440, Note_on_c, 3, 60, 0
4, 259440, Note_on_c, 3, 61, 0
4, 259440, Note_on_c, 0, 69, 0
4, 259680, Note_on_c, 3, 61, 100
4, 259920, Note_on_c, 3, 61, 0
4, 260160, Note_on_c, 3, 60, 100
4, 260160, Note_on_c, 3, 61, 100
4, 260160, Note_on_c, 0, 70, 100
4, 260400, Note_on_c, 3, 60, 0
4, 260400, Note_on_c, 3, 61, 0
4, 260400, Note_on_c, 0, 70, 0
4, 260640, Note_on_c, 3, 61, 100
4, 260880, Note_on_c, 3, 61, 0
4, 261120, Note_on_c, 3, 60, 100
4, 261120, Note_on_c, 3, 61, 100
4, 261120, Note_on_c, 0, 68, 100
4, 261360, Note_on_c, 3, 60, 0
4, 261360, Note_on_c, 3, 61, 0
4, 261360, Note_on_c, 0, 68, 0
4, 261600, Note_on_c, 3, 61, 100
4, 261840, Note_on_c, 3, 61, 0
4, 262080, Note_on_c, 3, 60, 100
4, 262080, Note_on_c, 3, 61, 100
4, 262080, Note_on_c, 0, 68, 100
4, 262320, Note_on_c, 3, 60, 0
4, 262320, Note_on_c, 3, 61, 0
4, 262320, Note_on_c, 0, 68, 0
4, 262560, Note_on_c, 3, 61, 100
4, 262800, Note_on_c, 3, 61, 0
4, 263040, Note_on_c, 3, 60, 100
4, 263040, Note_on_c, 3, 61, 100
4, 263040, Note_on_c, 0, 68, 100
4, 263280, Note_on_c, 3, 60, 0
4, 263280, Note_on_c, 3, 61, 0
4, 263280, Note_on_c, 0, 68, 0
4, 263520, Note_on_c, 3, 61, 100
4, 263760, Note_on_c, 3, 61, 0
4, 264000, Note_on_c, 3, 61, 100
4, 264240, Note_on_c, 3, 61, 0
4, 264480, Note_on_c, 3, 61, 100
4, 264720, Note_on_c, 3, 61, 0
4, 264960, Note_on_c, 3, 60, 100
4, 264960, Note_on_c, 3, 61, 100
4, 264960, Note_on_c, 0, 69, 100
4, 265200, Note_on_c, 3, 60, 0
4, 265200, Note_on_c, 3, 61, 0
4, 265200, Note_on_c, 0, 69, 0
4, 265440, Note_on_c, 3, 61, 100
4, 265680, Note_on_c, 3, 61, 0
4, 265920, Note_on_c, 3, 60, 100
4, 265920, Note_on_c, 3, 61, 100
4, 265920, Note_on_c, 0, 69, 100
4, 266160, Note_on_c, 3, 60, 0
4, 266160, Note_on_c, 3, 61, 0
4, 266160, Note_on_c, 0, 69, 0
4, 266400, Note_on_c, 3, 61, 100
4, 266640, Note_on_c, 3, 61, 0
4, 266880, Note_on_c, 3, 60, 100
4, 266880, Note_on_c, 3, 61, 100
4, 266880, Note_on_c, 0, 69, 100
4, 267120, Note_on_c, 3, 60, 0
4, 267120, Note_on_c, 3, 61, 0
4, 267120, Note_on_c, 0, 69, 0
4, 267360, Note_on_c, 3, 61, 100
4, 267600, Note_on_c, 3, 61, 0
4, 267840, Note_on_c, 3, 60, 100
4, 267840, Note_on_c, 3, 61, 100
4, 267840, Note_on_c, 0, 70, 100
4, 268080, Note_on_c, 3, 60, 0
4, 268080, Note_on_c, 3, 61, 0
4, 268080, Note_on_c, 0, 70, 0
4, 268320, Note_on_c, 3, 61, 100
4, 268560, Note_on_c, 3, 61, 0
4, 268800, Note_on_c, 3, 60, 100
4, 268800, Note_on_c, 3, 61, 100
4, 268800, Note_on_c, 0, 68, 100
4, 269040, Note_on_c, 3, 60, 0
4, 269040, Note_on_c, 3, 61, 0
4, 269040, Note_on_c, 0, 68, 0
4, 269280, Note_on_c, 3, 61, 100
4, 269520, Note_on_c, 3, 61, 0
4, 269760, Note_on_c, 3, 60, 100
4, 269760, Note_on_c, 3, 61, 100
4, 269760, Note_on_c, 0, 68, 100
4, 270000, Note_on_c, 3, 60, 0
4, 270000, Note_on_c, 3, 61, 0
4, 270000, Note_on_c, 0, 68, 0
4, 270240, Note_on_c, 3, 61, 100
4, 270480, Note_on_c, 3, 61, 0
4, 270720, Note_on_c, 3, 60, 100
4, 270720, Note_on_c, 3, 61, 100
4, 270720, Note_on_c, 0, 68, 100
4, 270960, Note_on_c, 3, 60, 0
4, 270960, Note_on_c, 3, 61, 0
4, 270960, Note_on_c, 0, 68, 0
4, 271200, Note_on_c, 3, 61, 100
4, 271440, Note_on_c, 3, 61, 0
4, 271680, Note_on_c, 3, 61, 100
4, 271920, Note_on_c, 3, 61, 0
4, 272160, Note_on_c, 3, 61, 100
4, 272400, Note_on_c, 3, 61, 0
4, 272640, Note_on_c, 3, 60, 100
4, 272640, Note_on_c, 3, 61, 100
4, 272640, Note_on_c, 0, 70, 100
4, 272880, Note_on_c, 3, 60, 0
4, 272880, Note_on_c, 3, 61, 0
4, 272880, Note_on_c, 0, 70, 0
4, 273600, Note_on_c, 0, 70, 100
4, 273840, Note_on_c, 0, 70, 0
4, 274560, Note_on_c, 3, 60, 100
4, 274560, Note_on_c, 3, 61, 100
4, 274560, Note_on_c, 0, 68, 100
4, 274800, Note_on_c, 3, 60, 0
4, 274800, Note_on_c, 3, 61, 0
4, 274800, Note_on_c, 0, 68, 0
4, 275520, Note_on_c, 0, 68, 100
4, 275760, Note_on_c, 0, 68, 0
4, 276480, Note_on_c, 3, 60, 100
4, 276480, Note_on_c, 3, 61, 100
4, 276480, Note_on_c, 0, 69, 100
4, 276720, Note_on_c, 3, 60, 0
4, 276720, Note_on_c, 3, 61, 0
4, 276720, Note_on_c, 0, 69, 0
4, 277440, Note_on_c, 0, 69, 100
4, 277680, Note_on_c, 0, 69, 0
4, 278400, Note_on_c, 3, 60, 100
4, 278400, Note_on_c, 3, 61, 100
4, 278400, Note_on_c, 0, 70, 100
4, 278640, Note_on_c, 3, 60, 0
4, 278640, Note_on_c, 3, 61, 0
4, 278640, Note_on_c, 0, 70, 0
4, 279360, Note_on_c, 0, 69, 100
4, 279600, Note_on_c, 0, 69, 0
4, 280320, Note_on_c, 3, 60, 100
4, 280320, Note_on_c, 3, 61, 100
4, 280320, Note_on_c, 0, 70, 100
4, 280560, Note_on_c, 3, 60, 0
4, 280560, Note_on_c, 3, 61, 0
4, 280560, Note_on_c, 0, 70, 0
4, 281280, Note_on_c, 0, 70, 100
4, 281520, Note_on_c, 0, 70, 0
4, 282240, Note_on_c, 3, 60, 100
4, 282240, Note_on_c, 3, 61, 100
4, 282240, Note_on_c, 0, 68, 100
4, 282480, Note_on_c, 3, 60, 0
4, 282480, Note_on_c, 3, 61, 0
4, 282480, Note_on_c, 0, 68, 0
4, 283200, Note_on_c, 0, 68, 100
4, 283440, Note_on_c, 0, 68, 0
4, 284160, Note_on_c, 3, 60, 100
4, 284160, Note_on_c, 3, 61, 100
4, 284160, Note_on_c, 0, 69, 100
4, 284400, Note_on_c, 3, 60, 0
4, 284400, Note_on_c, 3, 61, 0
4, 284400, Note_on_c, 0, 69, 0
4, 285120, Note_on_c, 0, 69, 100
4, 285360, Note_on_c, 0, 69, 0
4, 286080, Note_on_c, 3, 60, 100
4, 286080, Note_on_c, 0, 70, 100
4, 286320, Note_on_c, 3, 60, 0
4, 286320, Note_on_c, 0, 70, 0
4, 286560, Note_on_c, 3, 61, 100
4, 286560, Note_on_c, 0, 69, 100
4, 286800, Note_on_c, 3, 61, 0
4, 287040, Note_on_c, 3, 61, 100
4, 287280, Note_on_c, 0, 69, 0
4, 287280, Note_on_c, 3, 61, 0
4, 287520, Note_on_c, 3, 61, 100
4, 287760, Note_on_c, 3, 61, 0
4, 288000, Note_on_c, 3, 60, 100
4, 288000, Note_on_c, 3, 61, 100
4, 288000, Note_on_c, 0, 70, 100
4, 288240, Note_on_c, 3, 60, 0
4, 288240, Note_on_c, 3, 61, 0
4, 288240, Note_on_c, 0, 70, 0
4, 288960, Note_on_c, 0, 70, 100
4, 289200, Note_on_c, 0, 70, 0
4, 289920, Note_on_c, 3, 60, 100
4, 289920, Note_on_c, 3, 61, 100
4, 289920, Note_on_c, 0, 68, 100
4, 290160, Note_on_c, 3, 60, 0
4, 290160, Note_on_c, 3, 61, 0
4, 290160, Note_on_c, 0, 68, 0
4, 290880, Note_on_c, 0, 68, 100
4, 291120, Note_on_c, 0, 68, 0
4, 291840, Note_on_c, 3, 60, 100
4, 291840, Note_on_c, 3, 61, 100
4, 291840, Note_on_c, 0, 69, 100
4, 292080, Note_on_c, 3, 60, 0
4, 292080, Note_on_c, 3, 61, 0
4, 292080, Note_on_c, 0, 69, 0
4, 292800, Note_on_c, 0, 69, 100
4, 293040, Note_on_c, 0, 69, 0
4, 293760, Note_on_c, 3, 60, 100
4, 293760, Note_on_c, 3, 61, 100
4, 293760, Note_on_c, 0, 70, 100
4, 294000, Note_on_c, 3, 60, 0
4, 294000, Note_on_c, 3, 61, 0
4, 294000, Note_on_c, 0, 70, 0
4, 294720, Note_on_c, 0, 70, 100
4, 294960, Note_on_c, 0, 70, 0
4, 295680, Note_on_c, 3, 60, 100
4, 295680, Note_on_c, 3, 61, 100
4, 295680, Note_on_c, 0, 70, 100
4, 295920, Note_on_c, 3, 60, 0
4, 295920, Note_on_c, 3, 61, 0
4, 295920, Note_on_c, 0, 70, 0
4, 296640, Note_on_c, 0, 70, 100
4, 296880, Note_on_c, 0, 70, 0
4, 297600, Note_on_c, 3, 60, 100
4, 297600, Note_on_c, 3, 61, 100
4, 297600, Note_on_c, 0, 68, 100
4, 297840, Note_on_c, 3, 60, 0
4, 297840, Note_on_c, 3, 61, 0
4, 297840, Note_on_c, 0, 68, 0
4, 298560, Note_on_c, 0, 68, 100
4, 298800, Note_on_c, 0, 68, 0
4, 299520, Note_on_c, 3, 60, 100
4, 299520, Note_on_c, 3, 61, 100
4, 299520, Note_on_c, 0, 69, 100
4, 299760, Note_on_c, 3, 60, 0
4, 299760, Note_on_c, 3, 61, 0
4, 299760, Note_on_c, 0, 69, 0
4, 300480, Note_on_c, 0, 69, 100
4, 300720, Note_on_c, 0, 69, 0
4, 301440, Note_on_c, 3, 60, 100
4, 301440, Note_on_c, 0, 70, 100
4, 301680, Note_on_c, 3, 60, 0
4, 301920, Note_on_c, 3, 61, 100
4, 302160, Note_on_c, 3, 61, 0
4, 302400, Note_on_c, 3, 61, 100
4, 302640, Note_on_c, 3, 61, 0
4, 302880, Note_on_c, 3, 61, 100
4, 303120, Note_on_c, 0, 70, 0
4, 303120, Note_on_c, 3, 61, 0
4, 303360, Note_on_c, 3, 60, 100
4, 303360, Note_on_c, 3, 61, 100
4, 303360, Note_on_c, 0, 68, 100
4, 303600, Note_on_c, 3, 60, 0
4, 303600, Note_on_c, 3, 61, 0
4, 305280, Note_on_c, 3, 60, 100
4, 305520, Note_on_c, 3, 60, 0
4, 305760, Note_on_c, 3, 60, 100
4, 306000, Note_on_c, 3, 60, 0
4, 307200, Note_on_c, 3, 60, 100
4, 307440, Note_on_c, 3, 60, 0
4, 308880, Note_on_c, 3, 60, 100
4, 309120, Note_on_c, 3, 60, 0
4, 309840, Note_on_c, 3, 60, 100
4, 310080, Note_on_c, 0, 68, 0
4, 310080, Note_on_c, 3, 60, 0
4, 310080, Note_on_c, 0, 70, 100
4, 310320, Note_on_c, 0, 70, 0
4, 310560, Note_on_c, 3, 60, 100
4, 310800, Note_on_c, 3, 60, 0
4, 311040, Note_on_c, 3, 60, 100
4, 311040, Note_on_c, 3, 61, 100
4, 311040, Note_on_c, 0, 68, 100
4, 311280, Note_on_c, 3, 60, 0
4, 311280, Note_on_c, 3, 61, 0
4, 311520, Note_on_c, 3, 61, 100
4, 311760, Note_on_c, 3, 61, 0
4, 312000, Note_on_c, 3, 60, 100
4, 312000, Note_on_c, 3, 61, 100
4, 312240, Note_on_c, 3, 60, 0
4, 312240, Note_on_c, 3, 61, 0
4, 312480, Note_on_c, 3, 61, 100
4, 312720, Note_on_c, 0, 68, 0
4, 312720, Note_on_c, 3, 61, 0
4, 312960, Note_on_c, 3, 60, 100
4, 312960, Note_on_c, 3, 61, 100
4, 312960, Note_on_c, 0, 70, 100
4, 313200, Note_on_c, 3, 60, 0
4, 313200, Note_on_c, 3, 61, 0
4, 313440, Note_on_c, 3, 61, 100
4, 313680, Note_on_c, 3, 61, 0
4, 313920, Note_on_c, 3, 60, 100
4, 313920, Note_on_c, 3, 61, 100
4, 314160, Note_on_c, 3, 60, 0
4, 314160, Note_on_c, 3, 61, 0
4, 314400, Note_on_c, 3, 61, 100
4, 314640, Note_on_c, 0, 70, 0
4, 314640, Note_on_c, 3, 61, 0
4, 314880, Note_on_c, 3, 60, 100
4, 314880, Note_on_c, 3, 61, 100
4, 314880, Note_on_c, 0, 69, 100
4, 315120, Note_on_c, 3, 60, 0
4, 315120, Note_on_c, 3, 61, 0
4, 315120, Note_on_c, 0, 69, 0
4, 315360, Note_on_c, 3, 61, 100
4, 315600, Note_on_c, 3, 61, 0
4, 315840, Note_on_c, 3, 60, 100
4, 315840, Note_on_c, 3, 61, 100
4, 315840, Note_on_c, 0, 68, 100
4, 316080, Note_on_c, 3, 60, 0
4, 316080, Note_on_c, 3, 61, 0
4, 316080, Note_on_c, 0, 68, 0
4, 316320, Note_on_c, 3, 61, 100
4, 316560, Note_on_c, 3, 61, 0
4, 316800, Note_on_c, 3, 60, 100
4, 316800, Note_on_c, 3, 61, 100
4, 316800, Note_on_c, 0, 69, 100
4, 317040, Note_on_c, 3, 60, 0
4, 317040, Note_on_c, 3, 61, 0
4, 317040, Note_on_c, 0, 69, 0
4, 317280, Note_on_c, 3, 61, 100
4, 317520, Note_on_c, 3, 61, 0
4, 317760, Note_on_c, 3, 61, 100
4, 317760, Note_on_c, 0, 68, 100
4, 318000, Note_on_c, 3, 61, 0
4, 318000, Note_on_c, 0, 68, 0
4, 318240, Note_on_c, 3, 61, 100
4, 318480, Note_on_c, 3, 61, 0
4, 318720, Note_on_c, 3, 60, 100
4, 318720, Note_on_c, 3, 61, 100
4, 318720, Note_on_c, 0, 68, 100
4, 318960, Note_on_c, 3, 60, 0
4, 318960, Note_on_c, 3, 61, 0
4, 319200, Note_on_c, 3, 61, 100
4, 319440, Note_on_c, 3, 61, 0
4, 319680, Note_on_c, 3, 60, 100
4, 319680, Note_on_c, 3, 61, 100
4, 319920, Note_on_c, 3, 60, 0
4, 319920, Note_on_c, 3, 61, 0
4, 320160, Note_on_c, 3, 61, 100
4, 320400, Note_on_c, 0, 68, 0
4, 320400, Note_on_c, 3, 61, 0
4, 320640, Note_on_c, 3, 60, 100
4, 320640, Note_on_c, 3, 61, 100
4, 320640, Note_on_c, 0, 70, 100
4, 320880, Note_on_c, 3, 60, 0
4, 320880, Note_on_c, 3, 61, 0
4, 321120, Note_on_c, 3, 61, 100
4, 321360, Note_on_c, 3, 61, 0
4, 321600, Note_on_c, 3, 60, 100
4, 321600, Note_on_c, 3, 61, 100
4, 321840, Note_on_c, 3, 60, 0
4, 321840, Note_on_c, 3, 61, 0
4, 322080, Note_on_c, 3, 61, 100
4, 322320, Note_on_c, 0, 70, 0
4, 322320, Note_on_c, 3, 61, 0
4, 322560, Note_on_c, 3, 60, 100
4, 322560, Note_on_c, 3, 61, 100
4, 322560, Note_on_c, 0, 69, 100
4, 322800, Note_on_c, 3, 60, 0
4, 322800, Note_on_c, 3, 61, 0
4, 322800, Note_on_c, 0, 69, 0
4, 323040, Note_on_c, 3, 61, 100
4, 323280, Note_on_c, 3, 61, 0
4, 323520, Note_on_c, 3, 60, 100
4, 323520, Note_on_c, 3, 61, 100
4, 323520, Note_on_c, 0, 68, 100
4, 323760, Note_on_c, 3, 60, 0
4, 323760, Note_on_c, 3, 61, 0
4, 323760, Note_on_c, 0, 68, 0
4, 324000, Note_on_c, 3, 61, 100
4, 324240, Note_on_c, 3, 61, 0
4, 324480, Note_on_c, 3, 60, 100
4, 324480, Note_on_c, 3, 61, 100
4, 324480, Note_on_c, 0, 69, 100
4, 324720, Note_on_c, 3, 60, 0
4, 324720, Note_on_c, 3, 61, 0
4, 324720, Note_on_c, 0, 69, 0
4, 324960, Note_on_c, 3, 61, 100
4, 325200, Note_on_c, 3, 61, 0
4, 325440, Note_on_c, 3, 61, 100
4, 325440, Note_on_c, 0, 68, 100
4, 325680, Note_on_c, 3, 61, 0
4, 325680, Note_on_c, 0, 68, 0
4, 325920, Note_on_c, 3, 61, 100
4, 326160, Note_on_c, 3, 61, 0
4, 326400, Note_on_c, 3, 60, 100
4, 326400, Note_on_c, 3, 61, 100
4, 326400, Note_on_c, 0, 68, 100
4, 326640, Note_on_c, 3, 60, 0
4, 326640, Note_on_c, 3, 61, 0
4, 326880, Note_on_c, 3, 61, 100
4, 327120, Note_on_c, 3, 61, 0
4, 327360, Note_on_c, 3, 60, 100
4, 327360, Note_on_c, 3, 61, 100
4, 327600, Note_on_c, 3, 60, 0
4, 327600, Note_on_c, 3, 61, 0
4, 327840, Note_on_c, 3, 61, 100
4, 328080, Note_on_c, 0, 68, 0
4, 328080, Note_on_c, 3, 61, 0
4, 328320, Note_on_c, 3, 60, 100
4, 328320, Note_on_c, 3, 61, 100
4, 328320, Note_on_c, 0, 70, 100
4, 328560, Note_on_c, 3, 60, 0
4, 328560, Note_on_c, 3, 61, 0
4, 328800, Note_on_c, 3, 61, 100
4, 329040, Note_on_c, 3, 61, 0
4, 329280, Note_on_c, 3, 60, 100
4, 329280, Note_on_c, 3, 61, 100
4, 329520, Note_on_c, 3, 60, 0
4, 329520, Note_on_c, 3, 61, 0
4, 329760, Note_on_c, 3, 61, 100
4, 330000, Note_on_c, 0, 70, 0
4, 330000, Note_on_c, 3, 61, 0
4, 330240, Note_on_c, 3, 60, 100
4, 330240, Note_on_c, 3, 61, 100
4, 330240, Note_on_c, 0, 69, 100
4, 330480, Note_on_c, 3, 60, 0
4, 330480, Note_on_c, 3, 61, 0
4, 330480, Note_on_c, 0, 69, 0
4, 330720, Note_on_c, 3, 61, 100
4, 330960, Note_on_c, 3, 61, 0
4, 331200, Note_on_c, 3, 60, 100
4, 331200, Note_on_c, 3, 61, 100
4, 331200, Note_on_c, 0, 68, 100
4, 331440, Note_on_c, 3, 60, 0
4, 331440, Note_on_c, 3, 61, 0
4, 331440, Note_on_c, 0, 68, 0
4, 331680, Note_on_c, 3, 61, 100
4, 331920, Note_on_c, 3, 61, 0
4, 332160, Note_on_c, 3, 60, 100
4, 332160, Note_on_c, 3, 61, 100
4, 332160, Note_on_c, 0, 69, 100
4, 332400, Note_on_c, 3, 60, 0
4, 332400, Note_on_c, 3, 61, 0
4, 332400, Note_on_c, 0, 69, 0
4, 332640, Note_on_c, 3, 61, 100
4, 332880, Note_on_c, 3, 61, 0
4, 333120, Note_on_c, 3, 61, 100
4, 333120, Note_on_c, 0, 68, 100
4, 333360, Note_on_c, 3, 61, 0
4, 333360, Note_on_c, 0, 68, 0
4, 333600, Note_on_c, 3, 61, 100
4, 333840, Note_on_c, 3, 61, 0
4, 334080, Note_on_c, 3, 60, 100
4, 334080, Note_on_c, 3, 61, 100
4, 334080, Note_on_c, 0, 68, 100
4, 334320, Note_on_c, 3, 60, 0
4, 334320, Note_on_c, 3, 61, 0
4, 334560, Note_on_c, 3, 61, 100
4, 334800, Note_on_c, 3, 61, 0
4, 335040, Note_on_c, 3, 60, 100
4, 335040, Note_on_c, 3, 61, 100
4, 335280, Note_on_c, 3, 60, 0
4, 335280, Note_on_c, 3, 61, 0
4, 335520, Note_on_c, 3, 61, 100
4, 335760, Note_on_c, 0, 68, 0
4, 335760, Note_on_c, 3, 61, 0
4, 336000, Note_on_c, 3, 60, 100
4, 336000, Note_on_c, 3, 61, 100
4, 336000, Note_on_c, 0, 70, 100
4, 336240, Note_on_c, 3, 60, 0
4, 336240, Note_on_c, 3, 61, 0
4, 336480, Note_on_c, 3, 61, 100
4, 336720, Note_on_c, 3, 61, 0
4, 336960, Note_on_c, 3, 60, 100
4, 336960, Note_on_c, 3, 61, 100
4, 337200, Note_on_c, 3, 60, 0
4, 337200, Note_on_c, 3, 61, 0
4, 337440, Note_on_c, 3, 61, 100
4, 337680, Note_on_c, 0, 70, 0
4, 337680, Note_on_c, 3, 61, 0
4, 337920, Note_on_c, 3, 60, 100
4, 337920, Note_on_c, 3, 61, 100
4, 337920, Note_on_c, 0, 69, 100
4, 338160, Note_on_c, 3, 60, 0
4, 338160, Note_on_c, 3, 61, 0
4, 338160, Note_on_c, 0, 69, 0
4, 338400, Note_on_c, 3, 61, 100
4, 338640, Note_on_c, 3, 61, 0
4, 338880, Note_on_c, 3, 60, 100
4, 338880, Note_on_c, 3, 61, 100
4, 338880, Note_on_c, 0, 68, 100
4, 339120, Note_on_c, 3, 60, 0
4, 339120, Note_on_c, 3, 61, 0
4, 339120, Note_on_c, 0, 68, 0
4, 339360, Note_on_c, 3, 61, 100
4, 339600, Note_on_c, 3, 61, 0
4, 339840, Note_on_c, 3, 60, 100
4, 339840, Note_on_c, 3, 61, 100
4, 339840, Note_on_c, 0, 69, 100
4, 340080, Note_on_c, 3, 60, 0
4, 340080, Note_on_c, 3, 61, 0
4, 340080, Note_on_c, 0, 69, 0
4, 340320, Note_on_c, 3, 61, 100
4, 340560, Note_on_c, 3, 61, 0
4, 340800, Note_on_c, 3, 61, 100
4, 340800, Note_on_c, 0, 68, 100
4, 341040, Note_on_c, 3, 61, 0
4, 341040, Note_on_c, 0, 68, 0
4, 341280, Note_on_c, 3, 61, 100
4, 341520, Note_on_c, 3, 61, 0
4, 341760, Note_on_c, 3, 60, 100
4, 341760, Note_on_c, 0, 69, 100
4, 342000, Note_on_c, 3, 60, 0
4, 343440, Note_on_c, 0, 69, 0
4, 343680, Note_on_c, 3, 60, 100
4, 343680, Note_on_c, 0, 69, 100
4, 343920, Note_on_c, 3, 60, 0
4, 345360, Note_on_c, 0, 69, 0
4, 345600, Note_on_c, 3, 60, 100
4, 345600, Note_on_c, 0, 69, 100
4, 345840, Note_on_c, 3, 60, 0
4, 347280, Note_on_c, 0, 69, 0
4, 347520, Note_on_c, 3, 60, 100
4, 347520, Note_on_c, 0, 69, 100
4, 347760, Note_on_c, 3, 60, 0
4, 349200, Note_on_c, 0, 69, 0
4, 349440, Note_on_c, 3, 60, 100
4, 349440, Note_on_c, 0, 69, 100
4, 349680, Note_on_c, 3, 60, 0
4, 351120, Note_on_c, 0, 69, 0
4, 351360, Note_on_c, 3, 60, 100
4, 351360, Note_on_c, 0, 69, 100
4, 351600, Note_on_c, 3, 60, 0
4, 353040, Note_on_c, 0, 69, 0
4, 353280, Note_on_c, 3, 60, 100
4, 353280, Note_on_c, 3, 61, 100
4, 353280, Note_on_c, 0, 69, 100
4, 353520, Note_on_c, 3, 60, 0
4, 353520, Note_on_c, 3, 61, 0
4, 353520, Note_on_c, 0, 69, 0
4, 355200, Note_on_c, 3, 60, 100
4, 355200, Note_on_c, 3, 61, 100
4, 355200, Note_on_c, 0, 69, 100
4, 355440, Note_on_c, 3, 60, 0
4, 355440, Note_on_c, 3, 61, 0
4, 355440, Note_on_c, 0, 69, 0
4, 355680, Note_on_c, 3, 60, 100
4, 355920, Note_on_c, 3, 60, 0
4, 356160, Note_on_c, 0, 68, 100
4, 356400, Note_on_c, 0, 68, 0
4, 357120, Note_on_c, 3, 60, 100
4, 357120, Note_on_c, 3, 61, 100
4, 357120, Note_on_c, 0, 68, 100
4, 357360, Note_on_c, 3, 60, 0
4, 357360, Note_on_c, 3, 61, 0
4, 357360, Note_on_c, 0, 68, 0
4, 359040, Note_on_c, 3, 60, 100
4, 359040, Note_on_c, 3, 61, 100
4, 359040, Note_on_c, 0, 69, 100
4, 359280, Note_on_c, 3, 60, 0
4, 359280, Note_on_c, 3, 61, 0
4, 359280, Note_on_c, 0, 69, 0
4, 359520, Note_on_c, 3, 60, 100
4, 359760, Note_on_c, 3, 60, 0
4, 360000, Note_on_c, 0, 70, 100
4, 360240, Note_on_c, 0, 70, 0
4, 360960, Note_on_c, 3, 60, 100
4, 360960, Note_on_c, 3, 61, 100
4, 360960, Note_on_c, 0, 68, 100
4, 361200, Note_on_c, 3, 60, 0
4, 361200, Note_on_c, 3, 61, 0
4, 361200, Note_on_c, 0, 68, 0
4, 362400, Note_on_c, 0, 68, 100
4, 362640, Note_on_c, 0, 68, 0
4, 362880, Note_on_c, 3, 60, 100
4, 362880, Note_on_c, 3, 61, 100
4, 363120, Note_on_c, 3, 60, 0
4, 363120, Note_on_c, 3, 61, 0
4, 363360, Note_on_c, 3, 60, 100
4, 363600, Note_on_c, 3, 60, 0
4, 363840, Note_on_c, 0, 69, 100
4, 364080, Note_on_c, 0, 69, 0
4, 364800, Note_on_c, 3, 60, 100
4, 364800, Note_on_c, 3, 61, 100
4, 365040, Note_on_c, 3, 60, 0
4, 365040, Note_on_c, 3, 61, 0
4, 365280, Note_on_c, 3, 60, 100
4, 365280, Note_on_c, 0, 69, 100
4, 365520, Note_on_c, 3, 60, 0
4, 365520, Note_on_c, 0, 69, 0
4, 366720, Note_on_c, 3, 60, 100
4, 366720, Note_on_c, 3, 61, 100
4, 366720, Note_on_c, 0, 70, 100
4, 366960, Note_on_c, 3, 60, 0
4, 366960, Note_on_c, 3, 61, 0
4, 366960, Note_on_c, 0, 70, 0
4, 368640, Note_on_c, 3, 60, 100
4, 368640, Note_on_c, 3, 61, 100
4, 368640, Note_on_c, 0, 70, 100
4, 368880, Note_on_c, 3, 60, 0
4, 368880, Note_on_c, 3, 61, 0
4, 370560, Note_on_c, 0, 70, 0
4, 370560, Note_on_c, 3, 60, 100
4, 370560, Note_on_c, 3, 61, 100
4, 370560, Note_on_c, 0, 70, 100
4, 370800, Note_on_c, 3, 60, 0
4, 370800, Note_on_c, 3, 61, 0
4, 370800, Note_on_c, 0, 70, 0
4, 371040, Note_on_c, 3, 60, 100
4, 371280, Note_on_c, 3, 60, 0
4, 371520, Note_on_c, 0, 70, 100
4, 371760, Note_on_c, 0, 70, 0
4, 372480, Note_on_c, 3, 60, 100
4, 372480, Note_on_c, 3, 61, 100
4, 372480, Note_on_c, 0, 70, 100
4, 372720, Note_on_c, 3, 60, 0
4, 372720, Note_on_c, 3, 61, 0
4, 372720, Note_on_c, 0, 70, 0
4, 373440, Note_on_c, 0, 69, 100
4, 373680, Note_on_c, 0, 69, 0
4, 374400, Note_on_c, 3, 60, 100
4, 374400, Note_on_c, 3, 61, 100
4, 374400, Note_on_c, 0, 70, 100
4, 374640, Note_on_c, 3, 60, 0
4, 374640, Note_on_c, 3, 61, 0
4, 374640, Note_on_c, 0, 70, 0
4, 374880, Note_on_c, 3, 60, 100
4, 375120, Note_on_c, 3, 60, 0
4, 375360, Note_on_c, 0, 70, 100
4, 375600, Note_on_c, 0, 70, 0
4, 376320, Note_on_c, 3, 60, 100
4, 376320, Note_on_c, 3, 61, 100
4, 376320, Note_on_c, 0, 70, 100
4, 376560, Note_on_c, 3, 60, 0
4, 376560, Note_on_c, 3, 61, 0
4, 376560, Note_on_c, 0, 70, 0
4, 378240, Note_on_c, 3, 60, 100
4, 378240, Note_on_c, 3, 61, 100
4, 378240, Note_on_c, 0, 68, 100
4, 378480, Note_on_c, 3, 60, 0
4, 378480, Note_on_c, 3, 61, 0
4, 378480, Note_on_c, 0, 68, 0
4, 378720, Note_on_c, 3, 60, 100
4, 378960, Note_on_c, 3, 60, 0
4, 380160, Note_on_c, 3, 60, 100
4, 380160, Note_on_c, 3, 61, 100
4, 380160, Note_on_c, 0, 69, 100
4, 380400, Note_on_c, 3, 60, 0
4, 380400, Note_on_c, 3, 61, 0
4, 380400, Note_on_c, 0, 69, 0
4, 380640, Note_on_c, 3, 60, 100
4, 380640, Note_on_c, 0, 70, 100
4, 380880, Note_on_c, 3, 60, 0
4, 382080, Note_on_c, 3, 60, 100
4, 382080, Note_on_c, 3, 61, 100
4, 382320, Note_on_c, 3, 60, 0
4, 382320, Note_on_c, 3, 61, 0
4, 383760, Note_on_c, 0, 70, 0
4, 384000, Note_on_c, 3, 60, 100
4, 384000, Note_on_c, 3, 61, 100
4, 384000, Note_on_c, 0, 68, 100
4, 384240, Note_on_c, 3, 60, 0
4, 384240, Note_on_c, 3, 61, 0
4, 385920, Note_on_c, 3, 60, 100
4, 385920, Note_on_c, 3, 61, 100
4, 386160, Note_on_c, 0, 68, 0
4, 386160, Note_on_c, 3, 60, 0
4, 386160, Note_on_c, 3, 61, 0
4, 386400, Note_on_c, 3, 60, 100
4, 386400, Note_on_c, 0, 70, 100
4, 386640, Note_on_c, 3, 60, 0
4, 387600, Note_on_c, 0, 70, 0
4, 387840, Note_on_c, 3, 60, 100
4, 387840, Note_on_c, 3, 61, 100
4, 387840, Note_on_c, 0, 69, 100
4, 388080, Note_on_c, 3, 60, 0
4, 388080, Note_on_c, 3, 61, 0
4, 389760, Note_on_c, 3, 60, 100
4, 389760, Note_on_c, 3, 61, 100
4, 390000, Note_on_c, 3, 60, 0
4, 390000, Note_on_c, 3, 61, 0
4, 390240, Note_on_c, 3, 60, 100
4, 390480, Note_on_c, 3, 60, 0
4, 391440, Note_on_c, 0, 69, 0
4, 391680, Note_on_c, 3, 60, 100
4, 391680, Note_on_c, 3, 61, 100
4, 391680, Note_on_c, 0, 68, 100
4, 391920, Note_on_c, 3, 60, 0
4, 391920, Note_on_c, 3, 61, 0
4, 393600, Note_on_c, 3, 60, 100
4, 393600, Note_on_c, 3, 61, 100
4, 393840, Note_on_c, 0, 68, 0
4, 393840, Note_on_c, 3, 60, 0
4, 393840, Note_on_c, 3, 61, 0
4, 394080, Note_on_c, 3, 60, 100
4, 394080, Note_on_c, 0, 70, 100
4, 394320, Note_on_c, 3, 60, 0
4, 395280, Note_on_c, 0, 70, 0
4, 395520, Note_on_c, 3, 60, 100
4, 395520, Note_on_c, 3, 61, 100
4, 395520, Note_on_c, 0, 69, 100
4, 395760, Note_on_c, 3, 60, 0
4, 395760, Note_on_c, 3, 61, 0
4, 396000, Note_on_c, 3, 60, 100
4, 396240, Note_on_c, 3, 60, 0
4, 397200, Note_on_c, 0, 69, 0
4, 397440, Note_on_c, 3, 60, 100
4, 397440, Note_on_c, 3, 61, 100
4, 397440, Note_on_c, 0, 68, 100
4, 397680, Note_on_c, 3, 60, 0
4, 397680, Note_on_c, 3, 61, 0
4, 399120, Note_on_c, 0, 68, 0
4, 399360, Note_on_c, 3, 60, 100
4, 399360, Note_on_c, 3, 61, 100
4, 399360, Note_on_c, 0, 68, 100
4, 399600, Note_on_c, 3, 60, 0
4, 399600, Note_on_c, 3, 61, 0
4, 401280, Note_on_c, 3, 60, 100
4, 401280, Note_on_c, 3, 61, 100
4, 401520, Note_on_c, 0, 68, 0
4, 401520, Note_on_c, 3, 60, 0
4, 401520, Note_on_c, 3, 61, 0
4, 401760, Note_on_c, 3, 60, 100
4, 401760, Note_on_c, 0, 70, 100
4, 402000, Note_on_c, 3, 60, 0
4, 402960, Note_on_c, 0, 70, 0
4, 403200, Note_on_c, 3, 60, 100
4, 403200, Note_on_c, 3, 61, 100
4, 403200, Note_on_c, 0, 69, 100
4, 403440, Note_on_c, 3, 60, 0
4, 403440, Note_on_c, 3, 61, 0
4, 405120, Note_on_c, 3, 60, 100
4, 405120, Note_on_c, 3, 61, 100
4, 405360, Note_on_c, 3, 60, 0
4, 405360, Note_on_c, 3, 61, 0
4, 405600, Note_on_c, 3, 60, 100
4, 405840, Note_on_c, 3, 60, 0
4, 406800, Note_on_c, 0, 69, 0
4, 407040, Note_on_c, 3, 60, 100
4, 407040, Note_on_c, 3, 61, 100
4, 407040, Note_on_c, 0, 68, 100
4, 407280, Note_on_c, 3, 60, 0
4, 407280, Note_on_c, 3, 61, 0
4, 408960, Note_on_c, 3, 60, 100
4, 408960, Note_on_c, 3, 61, 100
4, 409200, Note_on_c, 0, 68, 0
4, 409200, Note_on_c, 3, 60, 0
4, 409200, Note_on_c, 3, 61, 0
4, 409440, Note_on_c, 3, 60, 100
4, 409440, Note_on_c, 0, 70, 100
4, 409680, Note_on_c, 3, 60, 0
4, 410640, Note_on_c, 0, 70, 0
4, 410880, Note_on_c, 3, 60, 100
4, 410880, Note_on_c, 3, 61, 100
4, 410880, Note_on_c, 0, 69, 100
4, 411120, Note_on_c, 3, 60, 0
4, 411120, Note_on_c, 3, 61, 0
4, 411360, Note_on_c, 3, 60, 100
4, 411600, Note_on_c, 3, 60, 0
4, 412560, Note_on_c, 0, 69, 0
4, 412800, Note_on_c, 3, 60, 100
4, 412800, Note_on_c, 3, 61, 100
4, 412800, Note_on_c, 0, 68, 100
4, 413040, Note_on_c, 3, 60, 0
4, 413040, Note_on_c, 3, 61, 0
4, 414480, Note_on_c, 0, 68, 0
4, 414720, Note_on_c, 3, 60, 100
4, 414720, Note_on_c, 3, 61, 100
4, 414720, Note_on_c, 0, 68, 100
4, 414960, Note_on_c, 3, 60, 0
4, 414960, Note_on_c, 3, 61, 0
4, 414960, Note_on_c, 0, 68, 0
4, 415680, Note_on_c, 0, 69, 100
4, 415920, Note_on_c, 0, 69, 0
4, 416640, Note_on_c, 3, 61, 100
4, 416640, Note_on_c, 0, 70, 100
4, 416880, Note_on_c, 3, 61, 0
4, 416880, Note_on_c, 0, 70, 0
4, 417600, Note_on_c, 0, 68, 100
4, 417840, Note_on_c, 0, 68, 0
4, 418560, Note_on_c, 3, 60, 100
4, 418560, Note_on_c, 3, 61, 100
4, 418560, Note_on_c, 0, 68, 100
4, 418800, Note_on_c, 3, 60, 0
4, 418800, Note_on_c, 3, 61, 0
4, 418800, Note_on_c, 0, 68, 0
4, 419520, Note_on_c, 0, 69, 100
4, 419760, Note_on_c, 0, 69, 0
4, 420480, Note_on_c, 3, 60, 100
4, 420480, Note_on_c, 3, 61, 100
4, 420480, Note_on_c, 0, 68, 100
4, 420720, Note_on_c, 3, 60, 0
4, 420720, Note_on_c, 3, 61, 0
4, 420720, Note_on_c, 0, 68, 0
4, 422400, Note_on_c, 3, 60, 100
4, 422400, Note_on_c, 3, 61, 100
4, 422400, Note_on_c, 0, 68, 100
4, 422640, Note_on_c, 3, 60, 0
4, 422640, Note_on_c, 3, 61, 0
4, 422640, Note_on_c, 0, 68, 0
4, 423360, Note_on_c, 0, 69, 100
4, 423600, Note_on_c, 0, 69, 0
4, 424320, Note_on_c, 3, 61, 100
4, 424320, Note_on_c, 0, 70, 100
4, 424560, Note_on_c, 3, 61, 0
4, 424560, Note_on_c, 0, 70, 0
4, 425280, Note_on_c, 0, 68, 100
4, 425520, Note_on_c, 0, 68, 0
4, 426240, Note_on_c, 3, 60, 100
4, 426240, Note_on_c, 3, 61, 100
4, 426240, Note_on_c, 0, 68, 100
4, 426480, Note_on_c, 3, 60, 0
4, 426480, Note_on_c, 3, 61, 0
4, 426480, Note_on_c, 0, 68, 0
4, 427200, Note_on_c, 0, 69, 100
4, 427440, Note_on_c, 0, 69, 0
4, 428160, Note_on_c, 3, 60, 100
4, 428160, Note_on_c, 0, 68, 100
4, 428400, Note_on_c, 3, 60, 0
4, 428400, Note_on_c, 0, 68, 0
4, 428640, Note_on_c, 3, 61, 100
4, 428880, Note_on_c, 3, 61, 0
4, 429120, Note_on_c, 3, 61, 100
4, 429360, Note_on_c, 3, 61, 0
4, 429600, Note_on_c, 3, 61, 100
4, 429840, Note_on_c, 3, 61, 0
4, 430080, Note_on_c, 3, 60, 100
4, 430080, Note_on_c, 3, 61, 100
4, 430080, Note_on_c, 0, 68, 100
4, 430320, Note_on_c, 3, 60, 0
4, 430320, Note_on_c, 3, 61, 0
4, 430320, Note_on_c, 0, 68, 0
4, 431040, Note_on_c, 0, 69, 100
4, 431280, Note_on_c, 0, 69, 0
4, 432000, Note_on_c, 3, 61, 100
4, 432000, Note_on_c, 0, 70, 100
4, 432240, Note_on_c, 3, 61, 0
4, 432240, Note_on_c, 0, 70, 0
4, 432960, Note_on_c, 0, 68, 100
4, 433200, Note_on_c, 0, 68, 0
4, 433920, Note_on_c, 3, 60, 100
4, 433920, Note_on_c, 3, 61, 100
4, 433920, Note_on_c, 0, 68, 100
4, 434160, Note_on_c, 3, 60, 0
4, 434160, Note_on_c, 3, 61, 0
4, 434160, Note_on_c, 0, 68, 0
4, 434880, Note_on_c, 0, 69, 100
4, 435120, Note_on_c, 0, 69, 0
4, 435840, Note_on_c, 3, 60, 100
4, 435840, Note_on_c, 3, 61, 100
4, 435840, Note_on_c, 0, 68, 100
4, 436080, Note_on_c, 3, 60, 0
4, 436080, Note_on_c, 3, 61, 0
4, 436080, Note_on_c, 0, 68, 0
4, 437760, Note_on_c, 3, 60, 100
4, 437760, Note_on_c, 3, 61, 100
4, 437760, Note_on_c, 0, 68, 100
4, 438000, Note_on_c, 3, 60, 0
4, 438000, Note_on_c, 3, 61, 0
4, 438000, Note_on_c, 0, 68, 0
4, 438720, Note_on_c, 0, 69, 100
4, 438960, Note_on_c, 0, 69, 0
4, 439680, Note_on_c, 3, 61, 100
4, 439680, Note_on_c, 0, 70, 100
4, 439920, Note_on_c, 3, 61, 0
4, 439920, Note_on_c, 0, 70, 0
4, 440640, Note_on_c, 0, 68, 100
4, 440880, Note_on_c, 0, 68, 0
4, 441600, Note_on_c, 3, 60, 100
4, 441600, Note_on_c, 3, 61, 100
4, 441600, Note_on_c, 0, 68, 100
4, 441840, Note_on_c, 3, 60, 0
4, 441840, Note_on_c, 3, 61, 0
4, 441840, Note_on_c, 0, 68, 0
4, 442560, Note_on_c, 0, 69, 100
4, 442800, Note_on_c, 0, 69, 0
4, 443520, Note_on_c, 3, 60, 100
4, 443520, Note_on_c, 0, 68, 100
4, 443760, Note_on_c, 3, 60, 0
4, 443760, Note_on_c, 0, 68, 0
4, 444000, Note_on_c, 3, 61, 100
4, 444240, Note_on_c, 3, 61, 0
4, 444480, Note_on_c, 3, 61, 100
4, 444720, Note_on_c, 3, 61, 0
4, 444960, Note_on_c, 3, 61, 100
4, 445200, Note_on_c, 3, 61, 0
4, 445440, Note_on_c, 3, 60, 100
4, 445440, Note_on_c, 3, 61, 100
4, 445440, Note_on_c, 0, 68, 100
4, 445680, Note_on_c, 3, 60, 0
4, 445680, Note_on_c, 3, 61, 0
4, 445680, Note_on_c, 0, 68, 0
4, 445920, Note_on_c, 0, 68, 100
4, 446160, Note_on_c, 0, 68, 0
4, 447360, Note_on_c, 3, 61, 100
4, 447360, Note_on_c, 0, 69, 100
4, 447600, Note_on_c, 3, 61, 0
4, 447600, Note_on_c, 0, 69, 0
4, 447840, Note_on_c, 0, 69, 100
4, 448080, Note_on_c, 0, 69, 0
4, 449280, Note_on_c, 3, 60, 100
4, 449280, Note_on_c, 3, 61, 100
4, 449280, Note_on_c, 0, 70, 100
4, 449520, Note_on_c, 3, 60, 0
4, 449520, Note_on_c, 3, 61, 0
4, 449520, Note_on_c, 0, 70, 0
4, 449760, Note_on_c, 0, 70, 100
4, 450000, Note_on_c, 0, 70, 0
4, 451200, Note_on_c, 3, 60, 100
4, 451200, Note_on_c, 3, 61, 100
4, 451200, Note_on_c, 0, 68, 100
4, 451440, Note_on_c, 3, 60, 0
4, 451440, Note_on_c, 3, 61, 0
4, 451440, Note_on_c, 0, 68, 0
4, 452160, Note_on_c, 0, 70, 100
4, 452400, Note_on_c, 0, 70, 0
4, 453120, Note_on_c, 3, 60, 100
4, 453120, Note_on_c, 3, 61, 100
4, 453120, Note_on_c, 0, 68, 100
4, 453360, Note_on_c, 3, 60, 0
4, 453360, Note_on_c, 3, 61, 0
4, 453360, Note_on_c, 0, 68, 0
4, 453600, Note_on_c, 0, 68, 100
4, 453840, Note_on_c, 0, 68, 0
4, 455040, Note_on_c, 3, 61, 100
4, 455040, Note_on_c, 0, 69, 100
4, 455280, Note_on_c, 3, 61, 0
4, 455280, Note_on_c, 0, 69, 0
4, 455520, Note_on_c, 0, 69, 100
4, 455760, Note_on_c, 0, 69, 0
4, 456960, Note_on_c, 3, 60, 100
4, 456960, Note_on_c, 3, 61, 100
4, 456960, Note_on_c, 0, 70, 100
4, 457200, Note_on_c, 3, 60, 0
4, 457200, Note_on_c, 3, 61, 0
4, 457200, Note_on_c, 0, 70, 0
4, 457440, Note_on_c, 0, 70, 100
4, 457680, Note_on_c, 0, 70, 0
4, 458880, Note_on_c, 3, 60, 100
4, 458880, Note_on_c, 0, 68, 100
4, 459120, Note_on_c, 3, 60, 0
4, 459120, Note_on_c, 0, 68, 0
4, 459360, Note_on_c, 3, 61, 100
4, 459360, Note_on_c, 0, 69, 100
4, 459600, Note_on_c, 3, 61, 0
4, 459840, Note_on_c, 3, 61, 100
4, 460080, Note_on_c, 3, 61, 0
4, 460320, Note_on_c, 3, 61, 100
4, 460560, Note_on_c, 0, 69, 0
4, 460560, Note_on_c, 3, 61, 0
4, 460800, Note_on_c, 3, 60, 100
4, 460800, Note_on_c, 3, 61, 100
4, 460800, Note_on_c, 0, 68, 100
4, 461040, Note_on_c, 3, 60, 0
4, 461040, Note_on_c, 3, 61, 0
4, 461040, Note_on_c, 0, 68, 0
4, 461280, Note_on_c, 0, 68, 100
4, 461520, Note_on_c, 0, 68, 0
4, 462720, Note_on_c, 3, 61, 100
4, 462720, Note_on_c, 0, 69, 100
4, 462960, Note_on_c, 3, 61, 0
4, 462960, Note_on_c, 0, 69, 0
4, 463200, Note_on_c, 0, 69, 100
4, 463440, Note_on_c, 0, 69, 0
4, 464640, Note_on_c, 3, 60, 100
4, 464640, Note_on_c, 3, 61, 100
4, 464640, Note_on_c, 0, 70, 100
4, 464880, Note_on_c, 3, 60, 0
4, 464880, Note_on_c, 3, 61, 0
4, 464880, Note_on_c, 0, 70, 0
4, 465120, Note_on_c, 0, 70, 100
4, 465360, Note_on_c, 0, 70, 0
4, 466560, Note_on_c, 3, 60, 100
4, 466560, Note_on_c, 3, 61, 100
4, 466560, Note_on_c, 0, 68, 100
4, 466800, Note_on_c, 3, 60, 0
4, 466800, Note_on_c, 3, 61, 0
4, 466800, Note_on_c, 0, 68, 0
4, 467040, Note_on_c, 0, 69, 100
4, 467280, Note_on_c, 0, 69, 0
4, 468480, Note_on_c, 3, 60, 100
4, 468480, Note_on_c, 3, 61, 100
4, 468480, Note_on_c, 0, 68, 100
4, 468720, Note_on_c, 3, 60, 0
4, 468720, Note_on_c, 3, 61, 0
4, 468720, Note_on_c, 0, 68, 0
4, 468960, Note_on_c, 0, 68, 100
4, 469200, Note_on_c, 0, 68, 0
4, 470400, Note_on_c, 3, 61, 100
4, 470400, Note_on_c, 0, 69, 100
4, 470640, Note_on_c, 3, 61, 0
4, 470640, Note_on_c, 0, 69, 0
4, 470880, Note_on_c, 0, 69, 100
4, 471120, Note_on_c, 0, 69, 0
4, 472320, Note_on_c, 3, 60, 100
4, 472320, Note_on_c, 3, 61, 100
4, 472320, Note_on_c, 0, 70, 100
4, 472560, Note_on_c, 3, 60, 0
4, 472560, Note_on_c, 3, 61, 0
4, 472560, Note_on_c, 0, 70, 0
4, 472800, Note_on_c, 0, 70, 100
4, 473040, Note_on_c, 0, 70, 0
4, 474240, Note_on_c, 3, 60, 100
4, 474240, Note_on_c, 0, 70, 100
4, 474480, Note_on_c, 3, 60, 0
4, 474720, Note_on_c, 3, 61, 100
4, 474960, Note_on_c, 3, 61, 0
4, 475200, Note_on_c, 3, 61, 100
4, 475440, Note_on_c, 3, 61, 0
4, 475680, Note_on_c, 3, 61, 100
4, 475920, Note_on_c, 0, 70, 0
4, 475920, Note_on_c, 3, 61, 0
4, 476160, Note_on_c, 3, 60, 100
4, 476160, Note_on_c, 3, 61, 100
4, 476160, Note_on_c, 0, 68, 100
4, 476400, Note_on_c, 3, 60, 0
4, 476400, Note_on_c, 3, 61, 0
4, 477840, Note_on_c, 0, 68, 0
4, 478080, Note_on_c, 3, 60, 100
4, 478080, Note_on_c, 3, 61, 100
4, 478080, Note_on_c, 0, 69, 100
4, 478320, Note_on_c, 3, 60, 0
4, 478320, Note_on_c, 3, 61, 0
4, 478560, Note_on_c, 3, 60, 100
4, 478800, Note_on_c, 3, 60, 0
4, 479760, Note_on_c, 0, 69, 0
4, 480000, Note_on_c, 3, 60, 100
4, 480000, Note_on_c, 3, 61, 100
4, 480000, Note_on_c, 0, 69, 100
4, 480240, Note_on_c, 3, 60, 0
4, 480240, Note_on_c, 3, 61, 0
4, 480240, Note_on_c, 0, 69, 0
4, 480960, Note_on_c, 3, 61, 100
4, 480960, Note_on_c, 0, 70, 100
4, 481200, Note_on_c, 3, 61, 0
4, 481200, Note_on_c, 0, 70, 0
4, 481680, Note_on_c, 3, 60, 100
4, 481920, Note_on_c, 3, 60, 0
4, 481920, Note_on_c, 3, 61, 100
4, 481920, Note_on_c, 0, 70, 100
4, 482160, Note_on_c, 3, 61, 0
4, 482640, Note_on_c, 3, 60, 100
4, 482880, Note_on_c, 3, 60, 0
4, 483360, Note_on_c, 3, 60, 100
4, 483600, Note_on_c, 0, 70, 0
4, 483600, Note_on_c, 3, 60, 0
4, 483840, Note_on_c, 3, 60, 100
4, 483840, Note_on_c, 3, 61, 100
4, 483840, Note_on_c, 0, 70, 100
4, 484080, Note_on_c, 3, 60, 0
4, 484080, Note_on_c, 3, 61, 0
4, 484080, Note_on_c, 0, 70, 0
4, 484320, Note_on_c, 3, 61, 100
4, 484560, Note_on_c, 3, 61, 0
4, 484800, Note_on_c, 3, 61, 100
4, 484800, Note_on_c, 0, 70, 100
4, 485040, Note_on_c, 3, 61, 0
4, 485040, Note_on_c, 0, 70, 0
4, 485280, Note_on_c, 3, 61, 100
4, 485520, Note_on_c, 3, 61, 0
4, 485760, Note_on_c, 3, 60, 100
4, 485760, Note_on_c, 3, 61, 100
4, 485760, Note_on_c, 0, 70, 100
4, 486000, Note_on_c, 3, 60, 0
4, 486000, Note_on_c, 3, 61, 0
4, 486000, Note_on_c, 0, 70, 0
4, 486240, Note_on_c, 3, 60, 100
4, 486480, Note_on_c, 3, 60, 0
4, 486720, Note_on_c, 3, 61, 100
4, 486720, Note_on_c, 0, 69, 100
4, 486960, Note_on_c, 3, 61, 0
4, 486960, Note_on_c, 0, 69, 0
4, 487680, Note_on_c, 3, 60, 100
4, 487680, Note_on_c, 3, 61, 100
4, 487680, Note_on_c, 0, 69, 100
4, 487920, Note_on_c, 3, 60, 0
4, 487920, Note_on_c, 3, 61, 0
4, 487920, Note_on_c, 0, 69, 0
4, 488400, Note_on_c, 3, 60, 100
4, 488640, Note_on_c, 3, 60, 0
4, 488640, Note_on_c, 3, 61, 100
4, 488640, Note_on_c, 0, 68, 100
4, 488880, Note_on_c, 3, 61, 0
4, 488880, Note_on_c, 0, 68, 0
4, 489360, Note_on_c, 3, 60, 100
4, 489600, Note_on_c, 3, 60, 0
4, 489600, Note_on_c, 3, 61, 100
4, 489600, Note_on_c, 0, 68, 100
4, 489840, Note_on_c, 3, 61, 0
4, 489840, Note_on_c, 3, 60, 100
4, 490080, Note_on_c, 3, 60, 0
4, 490320, Note_on_c, 3, 60, 100
4, 490560, Note_on_c, 3, 60, 0
4, 490800, Note_on_c, 3, 60, 100
4, 491040, Note_on_c, 3, 60, 0
4, 491280, Note_on_c, 0, 68, 0
4, 491280, Note_on_c, 3, 60, 100
4, 491520, Note_on_c, 3, 60, 0
4, 491520, Note_on_c, 3, 60, 100
4, 491520, Note_on_c, 3, 61, 100
4, 491520, Note_on_c, 0, 68, 127
4, 491760, Note_on_c, 3, 60, 0
4, 491760, Note_on_c, 3, 61, 0
4, 499200, Note_on_c, 0, 68, 0
4, 499200, Note_on_c, 0, 68, 100
4, 499440, Note_on_c, 0, 68, 0
4, 501600, Note_on_c, 3, 60, 100
4, 501840, Note_on_c, 3, 60, 0
4, 501840, End_track
5, 0, Start_track
5, 0, Title_t, "ANIM"
5, 7680, Note_on_c, 4, 44, 100
5, 9360, Note_on_c, 4, 44, 0
5, 9600, Note_on_c, 4, 40, 100
5, 11280, Note_on_c, 4, 40, 0
5, 11520, Note_on_c, 4, 42, 100
5, 13200, Note_on_c, 4, 42, 0
5, 13440, Note_on_c, 4, 49, 100
5, 14400, Note_on_c, 4, 49, 0
5, 15360, Note_on_c, 4, 44, 100
5, 17040, Note_on_c, 4, 44, 0
5, 17280, Note_on_c, 4, 40, 100
5, 18960, Note_on_c, 4, 40, 0
5, 19200, Note_on_c, 4, 42, 100
5, 20880, Note_on_c, 4, 42, 0
5, 21120, Note_on_c, 4, 49, 100
5, 22080, Note_on_c, 4, 49, 0
5, 23040, Note_on_c, 4, 44, 100
5, 24720, Note_on_c, 4, 44, 0
5, 24960, Note_on_c, 4, 40, 100
5, 26640, Note_on_c, 4, 40, 0
5, 26880, Note_on_c, 4, 42, 100
5, 28560, Note_on_c, 4, 42, 0
5, 28800, Note_on_c, 4, 49, 100
5, 29760, Note_on_c, 4, 49, 0
5, 30720, Note_on_c, 4, 44, 100
5, 32400, Note_on_c, 4, 44, 0
5, 32640, Note_on_c, 4, 40, 100
5, 34320, Note_on_c, 4, 40, 0
5, 34560, Note_on_c, 4, 42, 100
5, 36240, Note_on_c, 4, 42, 0
5, 36480, Note_on_c, 4, 49, 100
5, 37440, Note_on_c, 4, 49, 0
5, 38400, Note_on_c, 4, 44, 100
5, 40080, Note_on_c, 4, 44, 0
5, 40320, Note_on_c, 4, 40, 100
5, 42000, Note_on_c, 4, 40, 0
5, 42240, Note_on_c, 4, 42, 100
5, 43920, Note_on_c, 4, 42, 0
5, 44160, Note_on_c, 4, 49, 100
5, 44640, Note_on_c, 4, 49, 0
5, 45120, Note_on_c, 4, 54, 100
5, 45600, Note_on_c, 4, 54, 0
5, 46080, Note_on_c, 4, 44, 100
5, 47760, Note_on_c, 4, 44, 0
5, 48000, Note_on_c, 4, 40, 100
5, 49680, Note_on_c, 4, 40, 0
5, 49920, Note_on_c, 4, 42, 100
5, 51600, Note_on_c, 4, 42, 0
5, 51840, Note_on_c, 4, 49, 100
5, 52320, Note_on_c, 4, 49, 0
5, 52800, Note_on_c, 4, 54, 100
5, 53280, Note_on_c, 4, 54, 0
5, 53760, Note_on_c, 4, 44, 100
5, 55440, Note_on_c, 4, 44, 0
5, 55680, Note_on_c, 4, 40, 100
5, 57360, Note_on_c, 4, 40, 0
5, 57600, Note_on_c, 4, 42, 100
5, 59280, Note_on_c, 4, 42, 0
5, 59520, Note_on_c, 4, 49, 100
5, 60000, Note_on_c, 4, 49, 0
5, 60480, Note_on_c, 4, 54, 100
5, 60960, Note_on_c, 4, 54, 0
5, 61440, Note_on_c, 4, 44, 100
5, 63120, Note_on_c, 4, 44, 0
5, 63360, Note_on_c, 4, 40, 100
5, 65040, Note_on_c, 4, 40, 0
5, 65280, Note_on_c, 4, 42, 100
5, 66960, Note_on_c, 4, 42, 0
5, 67200, Note_on_c, 4, 49, 100
5, 68640, Note_on_c, 4, 49, 0
5, 69120, Note_on_c, 4, 44, 100
5, 70800, Note_on_c, 4, 44, 0
5, 71040, Note_on_c, 4, 40, 100
5, 72720, Note_on_c, 4, 40, 0
5, 72960, Note_on_c, 4, 42, 100
5, 74640, Note_on_c, 4, 42, 0
5, 74880, Note_on_c, 4, 40, 100
5, 75120, Note_on_c, 4, 40, 0
5, 75840, Note_on_c, 4, 54, 100
5, 76080, Note_on_c, 4, 54, 0
5, 76800, Note_on_c, 4, 44, 100
5, 78480, Note_on_c, 4, 44, 0
5, 78720, Note_on_c, 4, 40, 100
5, 80400, Note_on_c, 4, 40, 0
5, 80640, Note_on_c, 4, 42, 100
5, 82320, Note_on_c, 4, 42, 0
5, 82560, Note_on_c, 4, 49, 100
5, 82800, Note_on_c, 4, 49, 0
5, 83040, Note_on_c, 4, 54, 100
5, 83280, Note_on_c, 4, 54, 0
5, 83520, Note_on_c, 4, 50, 100
5, 83760, Note_on_c, 4, 50, 0
5, 84000, Note_on_c, 4, 47, 100
5, 84240, Note_on_c, 4, 47, 0
5, 84480, Note_on_c, 4, 44, 100
5, 86160, Note_on_c, 4, 44, 0
5, 86400, Note_on_c, 4, 40, 100
5, 88080, Note_on_c, 4, 40, 0
5, 88320, Note_on_c, 4, 42, 100
5, 90000, Note_on_c, 4, 42, 0
5, 90240, Note_on_c, 4, 49, 100
5, 90720, Note_on_c, 4, 49, 0
5, 91200, Note_on_c, 4, 54, 100
5, 91680, Note_on_c, 4, 54, 0
5, 92160, Note_on_c, 4, 44, 100
5, 93840, Note_on_c, 4, 44, 0
5, 94080, Note_on_c, 4, 40, 100
5, 95760, Note_on_c, 4, 40, 0
5, 96000, Note_on_c, 4, 42, 100
5, 97680, Note_on_c, 4, 42, 0
5, 97920, Note_on_c, 4, 49, 100
5, 98160, Note_on_c, 4, 49, 0
5, 98880, Note_on_c, 4, 54, 100
5, 99360, Note_on_c, 4, 54, 0
5, 99840, Note_on_c, 4, 44, 100
5, 101520, Note_on_c, 4, 44, 0
5, 101760, Note_on_c, 4, 40, 100
5, 103440, Note_on_c, 4, 40, 0
5, 103680, Note_on_c, 4, 42, 100
5, 105360, Note_on_c, 4, 42, 0
5, 105600, Note_on_c, 4, 49, 100
5, 105840, Note_on_c, 4, 49, 0
5, 106080, Note_on_c, 4, 54, 100
5, 107040, Note_on_c, 4, 54, 0
5, 107520, Note_on_c, 4, 44, 100
5, 109200, Note_on_c, 4, 44, 0
5, 109440, Note_on_c, 4, 40, 100
5, 111120, Note_on_c, 4, 40, 0
5, 111360, Note_on_c, 4, 42, 100
5, 113040, Note_on_c, 4, 42, 0
5, 113280, Note_on_c, 4, 49, 100
5, 114720, Note_on_c, 4, 49, 0
5, 115200, Note_on_c, 4, 44, 100
5, 121440, Note_on_c, 4, 44, 0
5, 121920, Note_on_c, 4, 54, 100
5, 122160, Note_on_c, 4, 54, 0
5, 122880, Note_on_c, 4, 44, 100
5, 124560, Note_on_c, 4, 44, 0
5, 125280, Note_on_c, 4, 52, 100
5, 126480, Note_on_c, 4, 52, 0
5, 126720, Note_on_c, 4, 51, 100
5, 127200, Note_on_c, 4, 51, 0
5, 127680, Note_on_c, 4, 49, 100
5, 128160, Note_on_c, 4, 49, 0
5, 128640, Note_on_c, 4, 47, 100
5, 129120, Note_on_c, 4, 47, 0
5, 129600, Note_on_c, 4, 46, 100
5, 130080, Note_on_c, 4, 46, 0
5, 130560, Note_on_c, 4, 44, 100
5, 132240, Note_on_c, 4, 44, 0
5, 132960, Note_on_c, 4, 52, 100
5, 134160, Note_on_c, 4, 52, 0
5, 134400, Note_on_c, 4, 51, 100
5, 134880, Note_on_c, 4, 51, 0
5, 135360, Note_on_c, 4, 49, 100
5, 135840, Note_on_c, 4, 49, 0
5, 136320, Note_on_c, 4, 47, 100
5, 136800, Note_on_c, 4, 47, 0
5, 137280, Note_on_c, 4, 46, 100
5, 137760, Note_on_c, 4, 46, 0
5, 138240, Note_on_c, 4, 44, 100
5, 139920, Note_on_c, 4, 44, 0
5, 140640, Note_on_c, 4, 52, 100
5, 141840, Note_on_c, 4, 52, 0
5, 142080, Note_on_c, 4, 51, 100
5, 142560, Note_on_c, 4, 51, 0
5, 143040, Note_on_c, 4, 49, 100
5, 143520, Note_on_c, 4, 49, 0
5, 144000, Note_on_c, 4, 47, 100
5, 144480, Note_on_c, 4, 47, 0
5, 144960, Note_on_c, 4, 46, 100
5, 145440, Note_on_c, 4, 46, 0
5, 145920, Note_on_c, 4, 44, 100
5, 147600, Note_on_c, 4, 44, 0
5, 148320, Note_on_c, 4, 52, 100
5, 149520, Note_on_c, 4, 52, 0
5, 149760, Note_on_c, 4, 51, 100
5, 150240, Note_on_c, 4, 51, 0
5, 150720, Note_on_c, 4, 49, 100
5, 151200, Note_on_c, 4, 49, 0
5, 151680, Note_on_c, 4, 47, 100
5, 152160, Note_on_c, 4, 47, 0
5, 152640, Note_on_c, 4, 46, 100
5, 153120, Note_on_c, 4, 46, 0
5, 153600, Note_on_c, 4, 40, 100
5, 164880, Note_on_c, 4, 40, 0
5, 165118, Note_on_c, 4, 47, 100
5, 167038, Note_on_c, 4, 47, 0
5, 167518, Note_on_c, 4, 54, 100
5, 168718, Note_on_c, 4, 54, 0
5, 168958, Note_on_c, 4, 52, 100
5, 172318, Note_on_c, 4, 52, 0
5, 172798, Note_on_c, 4, 42, 100
5, 174718, Note_on_c, 4, 42, 0
5, 175198, Note_on_c, 4, 49, 100
5, 176398, Note_on_c, 4, 49, 0
5, 176638, Note_on_c, 4, 47, 100
5, 178318, Note_on_c, 4, 47, 0
5, 178558, Note_on_c, 4, 45, 100
5, 179998, Note_on_c, 4, 45, 0
5, 180480, Note_on_c, 4, 47, 100
5, 182400, Note_on_c, 4, 47, 0
5, 182880, Note_on_c, 4, 54, 100
5, 184080, Note_on_c, 4, 54, 0
5, 184320, Note_on_c, 4, 52, 100
5, 187680, Note_on_c, 4, 52, 0
5, 188160, Note_on_c, 4, 42, 100
5, 190080, Note_on_c, 4, 42, 0
5, 190560, Note_on_c, 4, 49, 100
5, 191760, Note_on_c, 4, 49, 0
5, 192000, Note_on_c, 4, 47, 100
5, 193680, Note_on_c, 4, 47, 0
5, 193920, Note_on_c, 4, 45, 100
5, 195360, Note_on_c, 4, 45, 0
5, 195840, Note_on_c, 4, 40, 100
5, 197520, Note_on_c, 4, 40, 0
5, 197760, Note_on_c, 4, 47, 100
5, 200880, Note_on_c, 4, 47, 0
5, 201120, Note_on_c, 4, 49, 100
5, 201360, Note_on_c, 4, 49, 0
5, 201600, Note_on_c, 4, 50, 100
5, 201840, Note_on_c, 4, 50, 0
5, 202080, Note_on_c, 4, 49, 100
5, 202320, Note_on_c, 4, 49, 0
5, 202560, Note_on_c, 4, 47, 100
5, 202800, Note_on_c, 4, 47, 0
5, 203040, Note_on_c, 4, 45, 100
5, 203280, Note_on_c, 4, 45, 0
5, 203520, Note_on_c, 4, 47, 100
5, 204720, Note_on_c, 4, 47, 0
5, 204960, Note_on_c, 4, 49, 100
5, 205200, Note_on_c, 4, 49, 0
5, 205440, Note_on_c, 4, 47, 100
5, 209520, Note_on_c, 4, 47, 0
5, 209760, Note_on_c, 4, 49, 100
5, 210000, Note_on_c, 4, 49, 0
5, 210240, Note_on_c, 4, 47, 100
5, 210480, Note_on_c, 4, 47, 0
5, 210720, Note_on_c, 4, 45, 100
5, 210960, Note_on_c, 4, 45, 0
5, 211200, Note_on_c, 4, 40, 100
5, 212880, Note_on_c, 4, 40, 0
5, 213120, Note_on_c, 4, 47, 100
5, 216240, Note_on_c, 4, 47, 0
5, 216480, Note_on_c, 4, 49, 100
5, 216720, Note_on_c, 4, 49, 0
5, 216960, Note_on_c, 4, 50, 100
5, 217200, Note_on_c, 4, 50, 0
5, 217440, Note_on_c, 4, 49, 100
5, 217680, Note_on_c, 4, 49, 0
5, 217920, Note_on_c, 4, 47, 100
5, 218160, Note_on_c, 4, 47, 0
5, 218400, Note_on_c, 4, 45, 100
5, 218640, Note_on_c, 4, 45, 0
5, 218880, Note_on_c, 4, 47, 100
5, 220080, Note_on_c, 4, 47, 0
5, 220320, Note_on_c, 4, 49, 100
5, 220560, Note_on_c, 4, 49, 0
5, 220800, Note_on_c, 4, 47, 100
5, 222000, Note_on_c, 4, 47, 0
5, 222240, Note_on_c, 4, 45, 100
5, 222480, Note_on_c, 4, 45, 0
5, 222720, Note_on_c, 4, 47, 100
5, 223920, Note_on_c, 4, 47, 0
5, 224160, Note_on_c, 4, 45, 100
5, 224400, Note_on_c, 4, 45, 0
5, 224640, Note_on_c, 4, 47, 100
5, 224880, Note_on_c, 4, 47, 0
5, 225120, Note_on_c, 4, 49, 100
5, 225360, Note_on_c, 4, 49, 0
5, 225600, Note_on_c, 4, 47, 100
5, 225840, Note_on_c, 4, 47, 0
5, 226080, Note_on_c, 4, 45, 100
5, 226320, Note_on_c, 4, 45, 0
5, 226560, Note_on_c, 4, 47, 100
5, 228000, Note_on_c, 4, 47, 0
5, 228480, Note_on_c, 4, 48, 100
5, 229920, Note_on_c, 4, 48, 0
5, 230400, Note_on_c, 4, 50, 100
5, 231840, Note_on_c, 4, 50, 0
5, 232320, Note_on_c, 4, 45, 100
5, 233280, Note_on_c, 4, 45, 0
5, 234240, Note_on_c, 4, 52, 100
5, 235680, Note_on_c, 4, 52, 0
5, 236160, Note_on_c, 4, 48, 100
5, 237600, Note_on_c, 4, 48, 0
5, 238080, Note_on_c, 4, 50, 100
5, 239520, Note_on_c, 4, 50, 0
5, 240000, Note_on_c, 4, 45, 100
5, 240960, Note_on_c, 4, 45, 0
5, 241920, Note_on_c, 4, 47, 100
5, 243360, Note_on_c, 4, 47, 0
5, 243840, Note_on_c, 4, 48, 100
5, 245280, Note_on_c, 4, 48, 0
5, 245760, Note_on_c, 4, 50, 100
5, 247200, Note_on_c, 4, 50, 0
5, 247680, Note_on_c, 4, 45, 100
5, 248640, Note_on_c, 4, 45, 0
5, 249600, Note_on_c, 4, 52, 100
5, 251040, Note_on_c, 4, 52, 0
5, 251520, Note_on_c, 4, 48, 100
5, 252960, Note_on_c, 4, 48, 0
5, 253440, Note_on_c, 4, 50, 100
5, 254880, Note_on_c, 4, 50, 0
5, 255360, Note_on_c, 4, 45, 100
5, 256320, Note_on_c, 4, 45, 0
5, 257280, Note_on_c, 4, 43, 100
5, 260400, Note_on_c, 4, 43, 0
5, 260640, Note_on_c, 4, 45, 100
5, 260880, Note_on_c, 4, 45, 0
5, 261120, Note_on_c, 4, 42, 100
5, 263280, Note_on_c, 4, 42, 0
5, 263520, Note_on_c, 4, 44, 100
5, 263760, Note_on_c, 4, 44, 0
5, 264000, Note_on_c, 4, 46, 100
5, 264240, Note_on_c, 4, 46, 0
5, 264480, Note_on_c, 4, 51, 100
5, 264720, Note_on_c, 4, 51, 0
5, 264960, Note_on_c, 4, 43, 100
5, 268080, Note_on_c, 4, 43, 0
5, 268320, Note_on_c, 4, 45, 100
5, 268560, Note_on_c, 4, 45, 0
5, 268800, Note_on_c, 4, 42, 100
5, 270960, Note_on_c, 4, 42, 0
5, 271200, Note_on_c, 4, 44, 100
5, 271440, Note_on_c, 4, 44, 0
5, 271680, Note_on_c, 4, 46, 100
5, 271920, Note_on_c, 4, 46, 0
5, 272160, Note_on_c, 4, 51, 100
5, 272400, Note_on_c, 4, 51, 0
5, 272640, Note_on_c, 4, 44, 100
5, 274320, Note_on_c, 4, 44, 0
5, 274560, Note_on_c, 4, 40, 100
5, 276240, Note_on_c, 4, 40, 0
5, 276480, Note_on_c, 4, 42, 100
5, 278160, Note_on_c, 4, 42, 0
5, 278400, Note_on_c, 4, 49, 100
5, 278880, Note_on_c, 4, 49, 0
5, 279360, Note_on_c, 4, 54, 100
5, 279840, Note_on_c, 4, 54, 0
5, 280320, Note_on_c, 4, 44, 100
5, 282000, Note_on_c, 4, 44, 0
5, 282240, Note_on_c, 4, 40, 100
5, 283920, Note_on_c, 4, 40, 0
5, 284160, Note_on_c, 4, 42, 100
5, 285840, Note_on_c, 4, 42, 0
5, 286080, Note_on_c, 4, 49, 100
5, 286320, Note_on_c, 4, 49, 0
5, 286560, Note_on_c, 4, 54, 100
5, 286800, Note_on_c, 4, 54, 0
5, 287040, Note_on_c, 4, 50, 100
5, 287520, Note_on_c, 4, 50, 0
5, 288000, Note_on_c, 4, 44, 100
5, 289680, Note_on_c, 4, 44, 0
5, 289920, Note_on_c, 4, 40, 100
5, 291600, Note_on_c, 4, 40, 0
5, 291840, Note_on_c, 4, 42, 100
5, 293520, Note_on_c, 4, 42, 0
5, 293760, Note_on_c, 4, 49, 100
5, 294240, Note_on_c, 4, 49, 0
5, 294720, Note_on_c, 4, 54, 100
5, 295200, Note_on_c, 4, 54, 0
5, 295680, Note_on_c, 4, 44, 100
5, 297360, Note_on_c, 4, 44, 0
5, 297600, Note_on_c, 4, 40, 100
5, 299280, Note_on_c, 4, 40, 0
5, 299520, Note_on_c, 4, 42, 100
5, 301200, Note_on_c, 4, 42, 0
5, 301440, Note_on_c, 4, 49, 100
5, 302880, Note_on_c, 4, 49, 0
5, 303360, Note_on_c, 4, 44, 100
5, 309600, Note_on_c, 4, 44, 0
5, 310080, Note_on_c, 4, 54, 100
5, 310320, Note_on_c, 4, 54, 0
5, 311040, Note_on_c, 4, 44, 100
5, 312720, Note_on_c, 4, 44, 0
5, 313440, Note_on_c, 4, 52, 100
5, 314640, Note_on_c, 4, 52, 0
5, 314880, Note_on_c, 4, 51, 100
5, 315360, Note_on_c, 4, 51, 0
5, 315840, Note_on_c, 4, 49, 100
5, 316320, Note_on_c, 4, 49, 0
5, 316800, Note_on_c, 4, 47, 100
5, 317280, Note_on_c, 4, 47, 0
5, 317760, Note_on_c, 4, 46, 100
5, 318240, Note_on_c, 4, 46, 0
5, 318720, Note_on_c, 4, 44, 100
5, 320400, Note_on_c, 4, 44, 0
5, 321120, Note_on_c, 4, 52, 100
5, 322320, Note_on_c, 4, 52, 0
5, 322560, Note_on_c, 4, 51, 100
5, 323040, Note_on_c, 4, 51, 0
5, 323520, Note_on_c, 4, 49, 100
5, 324000, Note_on_c, 4, 49, 0
5, 324480, Note_on_c, 4, 47, 100
5, 324960, Note_on_c, 4, 47, 0
5, 325440, Note_on_c, 4, 46, 100
5, 325920, Note_on_c, 4, 46, 0
5, 326400, Note_on_c, 4, 44, 100
5, 328080, Note_on_c, 4, 44, 0
5, 328800, Note_on_c, 4, 52, 100
5, 330000, Note_on_c, 4, 52, 0
5, 330240, Note_on_c, 4, 51, 100
5, 330720, Note_on_c, 4, 51, 0
5, 331200, Note_on_c, 4, 49, 100
5, 331680, Note_on_c, 4, 49, 0
5, 332160, Note_on_c, 4, 47, 100
5, 332640, Note_on_c, 4, 47, 0
5, 333120, Note_on_c, 4, 46, 100
5, 333600, Note_on_c, 4, 46, 0
5, 334080, Note_on_c, 4, 44, 100
5, 335760, Note_on_c, 4, 44, 0
5, 336480, Note_on_c, 4, 52, 100
5, 337680, Note_on_c, 4, 52, 0
5, 337920, Note_on_c, 4, 51, 100
5, 338400, Note_on_c, 4, 51, 0
5, 338880, Note_on_c, 4, 49, 100
5, 339360, Note_on_c, 4, 49, 0
5, 339840, Note_on_c, 4, 47, 100
5, 340320, Note_on_c, 4, 47, 0
5, 340800, Note_on_c, 4, 46, 100
5, 341280, Note_on_c, 4, 46, 0
5, 341760, Note_on_c, 4, 52, 100
5, 342000, Note_on_c, 4, 52, 0
5, 343200, Note_on_c, 4, 50, 100
5, 343440, Note_on_c, 4, 50, 0
5, 343680, Note_on_c, 4, 52, 100
5, 343920, Note_on_c, 4, 52, 0
5, 345120, Note_on_c, 4, 50, 100
5, 345360, Note_on_c, 4, 50, 0
5, 345600, Note_on_c, 4, 52, 100
5, 345840, Note_on_c, 4, 52, 0
5, 347040, Note_on_c, 4, 50, 100
5, 347280, Note_on_c, 4, 50, 0
5, 347520, Note_on_c, 4, 53, 100
5, 347760, Note_on_c, 4, 53, 0
5, 348960, Note_on_c, 4, 51, 100
5, 349200, Note_on_c, 4, 51, 0
5, 349440, Note_on_c, 4, 54, 100
5, 349680, Note_on_c, 4, 54, 0
5, 350880, Note_on_c, 4, 52, 100
5, 351120, Note_on_c, 4, 52, 0
5, 351360, Note_on_c, 4, 55, 100
5, 351600, Note_on_c, 4, 55, 0
5, 352800, Note_on_c, 4, 53, 100
5, 353040, Note_on_c, 4, 53, 0
5, 353280, Note_on_c, 4, 54, 100
5, 353520, Note_on_c, 4, 54, 0
5, 353520, Note_on_c, 4, 52, 100
5, 353760, Note_on_c, 4, 52, 0
5, 353760, Note_on_c, 4, 50, 100
5, 354000, Note_on_c, 4, 50, 0
5, 354240, Note_on_c, 4, 54, 100
5, 354480, Note_on_c, 4, 54, 0
5, 354480, Note_on_c, 4, 52, 100
5, 354720, Note_on_c, 4, 52, 0
5, 354720, Note_on_c, 4, 50, 100
5, 354960, Note_on_c, 4, 50, 0
5, 355200, Note_on_c, 4, 54, 100
5, 355440, Note_on_c, 4, 54, 0
5, 355680, Note_on_c, 4, 56, 100
5, 355920, Note_on_c, 4, 56, 0
5, 356160, Note_on_c, 4, 54, 100
5, 356400, Note_on_c, 4, 54, 0
5, 356400, Note_on_c, 4, 52, 100
5, 356640, Note_on_c, 4, 52, 0
5, 356640, Note_on_c, 4, 50, 100
5, 356880, Note_on_c, 4, 50, 0
5, 357120, Note_on_c, 4, 44, 100
5, 357360, Note_on_c, 4, 44, 0
5, 357360, Note_on_c, 4, 46, 100
5, 357600, Note_on_c, 4, 46, 0
5, 357600, Note_on_c, 4, 48, 100
5, 357840, Note_on_c, 4, 48, 0
5, 358080, Note_on_c, 4, 50, 100
5, 358320, Note_on_c, 4, 50, 0
5, 358320, Note_on_c, 4, 52, 100
5, 358560, Note_on_c, 4, 52, 0
5, 358560, Note_on_c, 4, 54, 100
5, 358800, Note_on_c, 4, 54, 0
5, 359040, Note_on_c, 4, 56, 100
5, 359280, Note_on_c, 4, 56, 0
5, 359520, Note_on_c, 4, 58, 100
5, 359760, Note_on_c, 4, 58, 0
5, 360000, Note_on_c, 4, 58, 100
5, 360240, Note_on_c, 4, 58, 0
5, 360240, Note_on_c, 4, 56, 100
5, 360480, Note_on_c, 4, 56, 0
5, 360480, Note_on_c, 4, 54, 100
5, 360720, Note_on_c, 4, 54, 0
5, 360960, Note_on_c, 4, 48, 100
5, 361200, Note_on_c, 4, 48, 0
5, 361200, Note_on_c, 4, 50, 100
5, 361440, Note_on_c, 4, 50, 0
5, 361440, Note_on_c, 4, 52, 100
5, 361680, Note_on_c, 4, 52, 0
5, 361920, Note_on_c, 4, 52, 100
5, 362160, Note_on_c, 4, 52, 0
5, 362160, Note_on_c, 4, 54, 100
5, 362400, Note_on_c, 4, 54, 0
5, 362400, Note_on_c, 4, 48, 100
5, 362640, Note_on_c, 4, 48, 0
5, 362640, Note_on_c, 4, 50, 100
5, 362880, Note_on_c, 4, 50, 0
5, 362880, Note_on_c, 4, 52, 100
5, 363120, Note_on_c, 4, 52, 0
5, 363360, Note_on_c, 4, 52, 100
5, 363600, Note_on_c, 4, 52, 0
5, 363600, Note_on_c, 4, 54, 100
5, 363840, Note_on_c, 4, 54, 0
5, 363840, Note_on_c, 4, 50, 100
5, 364080, Note_on_c, 4, 50, 0
5, 364080, Note_on_c, 4, 52, 100
5, 364320, Note_on_c, 4, 52, 0
5, 364320, Note_on_c, 4, 54, 100
5, 364560, Note_on_c, 4, 54, 0
5, 364800, Note_on_c, 4, 54, 100
5, 365040, Note_on_c, 4, 54, 0
5, 365040, Note_on_c, 4, 56, 100
5, 365280, Note_on_c, 4, 56, 0
5, 365280, Note_on_c, 4, 50, 100
5, 365520, Note_on_c, 4, 50, 0
5, 365520, Note_on_c, 4, 52, 100
5, 365760, Note_on_c, 4, 52, 0
5, 365760, Note_on_c, 4, 54, 100
5, 366000, Note_on_c, 4, 54, 0
5, 366240, Note_on_c, 4, 54, 100
5, 366480, Note_on_c, 4, 54, 0
5, 366480, Note_on_c, 4, 56, 100
5, 366720, Note_on_c, 4, 56, 0
5, 366720, Note_on_c, 4, 52, 100
5, 366960, Note_on_c, 4, 52, 0
5, 366960, Note_on_c, 4, 54, 100
5, 367200, Note_on_c, 4, 54, 0
5, 367200, Note_on_c, 4, 56, 100
5, 367440, Note_on_c, 4, 56, 0
5, 367680, Note_on_c, 4, 56, 100
5, 367920, Note_on_c, 4, 56, 0
5, 367920, Note_on_c, 4, 58, 100
5, 368160, Note_on_c, 4, 58, 0
5, 368160, Note_on_c, 4, 56, 100
5, 368400, Note_on_c, 4, 56, 0
5, 368400, Note_on_c, 4, 58, 100
5, 368640, Note_on_c, 4, 58, 0
5, 368640, Note_on_c, 4, 60, 100
5, 369600, Note_on_c, 4, 60, 0
5, 369600, Note_on_c, 4, 60, 100
5, 370080, Note_on_c, 4, 60, 0
5, 370560, Note_on_c, 4, 58, 100
5, 370800, Note_on_c, 4, 58, 0
5, 370880, Note_on_c, 4, 56, 100
5, 371120, Note_on_c, 4, 56, 0
5, 371200, Note_on_c, 4, 54, 100
5, 371440, Note_on_c, 4, 54, 0
5, 371520, Note_on_c, 4, 58, 100
5, 371760, Note_on_c, 4, 58, 0
5, 371840, Note_on_c, 4, 56, 100
5, 372080, Note_on_c, 4, 56, 0
5, 372160, Note_on_c, 4, 54, 100
5, 372400, Note_on_c, 4, 54, 0
5, 372480, Note_on_c, 4, 58, 100
5, 372720, Note_on_c, 4, 58, 0
5, 372800, Note_on_c, 4, 56, 100
5, 373040, Note_on_c, 4, 56, 0
5, 373120, Note_on_c, 4, 54, 100
5, 373360, Note_on_c, 4, 54, 0
5, 373440, Note_on_c, 4, 58, 100
5, 373680, Note_on_c, 4, 58, 0
5, 373920, Note_on_c, 4, 60, 100
5, 374160, Note_on_c, 4, 60, 0
5, 374400, Note_on_c, 4, 58, 100
5, 374640, Note_on_c, 4, 58, 0
5, 374720, Note_on_c, 4, 56, 100
5, 374960, Note_on_c, 4, 56, 0
5, 375040, Note_on_c, 4, 54, 100
5, 375280, Note_on_c, 4, 54, 0
5, 375360, Note_on_c, 4, 58, 100
5, 375600, Note_on_c, 4, 58, 0
5, 375680, Note_on_c, 4, 56, 100
5, 375920, Note_on_c, 4, 56, 0
5, 376000, Note_on_c, 4, 54, 100
5, 376240, Note_on_c, 4, 54, 0
5, 376320, Note_on_c, 4, 60, 100
5, 376560, Note_on_c, 4, 60, 0
5, 376560, Note_on_c, 4, 58, 100
5, 376800, Note_on_c, 4, 58, 0
5, 376800, Note_on_c, 4, 56, 100
5, 377040, Note_on_c, 4, 56, 0
5, 377280, Note_on_c, 4, 56, 100
5, 377520, Note_on_c, 4, 56, 0
5, 377520, Note_on_c, 4, 54, 100
5, 377760, Note_on_c, 4, 54, 0
5, 377760, Note_on_c, 4, 52, 100
5, 378000, Note_on_c, 4, 52, 0
5, 378240, Note_on_c, 4, 50, 100
5, 378480, Note_on_c, 4, 50, 0
5, 378480, Note_on_c, 4, 52, 100
5, 378720, Note_on_c, 4, 52, 0
5, 378720, Note_on_c, 4, 54, 100
5, 378960, Note_on_c, 4, 54, 0
5, 379200, Note_on_c, 4, 52, 100
5, 379440, Note_on_c, 4, 52, 0
5, 379440, Note_on_c, 4, 54, 100
5, 379680, Note_on_c, 4, 54, 0
5, 379680, Note_on_c, 4, 56, 100
5, 379920, Note_on_c, 4, 56, 0
5, 379920, Note_on_c, 4, 54, 100
5, 380160, Note_on_c, 4, 54, 0
5, 380160, Note_on_c, 4, 56, 100
5, 380400, Note_on_c, 4, 56, 0
5, 380640, Note_on_c, 4, 58, 100
5, 380880, Note_on_c, 4, 58, 0
5, 381120, Note_on_c, 4, 56, 100
5, 381360, Note_on_c, 4, 56, 0
5, 381360, Note_on_c, 4, 58, 100
5, 381600, Note_on_c, 4, 58, 0
5, 381840, Note_on_c, 4, 56, 100
5, 382080, Note_on_c, 4, 56, 0
5, 382080, Note_on_c, 4, 58, 100
5, 382320, Note_on_c, 4, 58, 0
5, 382560, Note_on_c, 4, 56, 100
5, 382800, Note_on_c, 4, 56, 0
5, 382800, Note_on_c, 4, 58, 100
5, 383040, Note_on_c, 4, 58, 0
5, 383280, Note_on_c, 4, 56, 100
5, 383520, Note_on_c, 4, 56, 0
5, 383520, Note_on_c, 4, 58, 100
5, 383760, Note_on_c, 4, 58, 0
5, 384000, Note_on_c, 4, 47, 100
5, 385920, Note_on_c, 4, 47, 0
5, 386400, Note_on_c, 4, 54, 100
5, 387600, Note_on_c, 4, 54, 0
5, 387840, Note_on_c, 4, 52, 100
5, 391200, Note_on_c, 4, 52, 0
5, 391680, Note_on_c, 4, 42, 100
5, 393600, Note_on_c, 4, 42, 0
5, 394080, Note_on_c, 4, 49, 100
5, 395280, Note_on_c, 4, 49, 0
5, 395520, Note_on_c, 4, 47, 100
5, 397200, Note_on_c, 4, 47, 0
5, 397440, Note_on_c, 4, 45, 100
5, 398880, Note_on_c, 4, 45, 0
5, 399360, Note_on_c, 4, 47, 100
5, 401280, Note_on_c, 4, 47, 0
5, 401760, Note_on_c, 4, 54, 100
5, 402960, Note_on_c, 4, 54, 0
5, 403200, Note_on_c, 4, 52, 100
5, 406560, Note_on_c, 4, 52, 0
5, 407040, Note_on_c, 4, 42, 100
5, 408960, Note_on_c, 4, 42, 0
5, 409440, Note_on_c, 4, 49, 100
5, 410640, Note_on_c, 4, 49, 0
5, 410880, Note_on_c, 4, 47, 100
5, 412560, Note_on_c, 4, 47, 0
5, 412800, Note_on_c, 4, 45, 100
5, 414240, Note_on_c, 4, 45, 0
5, 414720, Note_on_c, 4, 49, 100
5, 416400, Note_on_c, 4, 49, 0
5, 416640, Note_on_c, 4, 51, 100
5, 418320, Note_on_c, 4, 51, 0
5, 418560, Note_on_c, 4, 47, 100
5, 420240, Note_on_c, 4, 47, 0
5, 420480, Note_on_c, 4, 45, 100
5, 420960, Note_on_c, 4, 45, 0
5, 422400, Note_on_c, 4, 49, 100
5, 424080, Note_on_c, 4, 49, 0
5, 424320, Note_on_c, 4, 51, 100
5, 426000, Note_on_c, 4, 51, 0
5, 426240, Note_on_c, 4, 47, 100
5, 427920, Note_on_c, 4, 47, 0
5, 428160, Note_on_c, 4, 45, 100
5, 428640, Note_on_c, 4, 45, 0
5, 430080, Note_on_c, 4, 49, 100
5, 431760, Note_on_c, 4, 49, 0
5, 432000, Note_on_c, 4, 51, 100
5, 433680, Note_on_c, 4, 51, 0
5, 433920, Note_on_c, 4, 47, 100
5, 435600, Note_on_c, 4, 47, 0
5, 435840, Note_on_c, 4, 45, 100
5, 436320, Note_on_c, 4, 45, 0
5, 437760, Note_on_c, 4, 49, 100
5, 439440, Note_on_c, 4, 49, 0
5, 439680, Note_on_c, 4, 51, 100
5, 441360, Note_on_c, 4, 51, 0
5, 441600, Note_on_c, 4, 47, 100
5, 443280, Note_on_c, 4, 47, 0
5, 443520, Note_on_c, 4, 45, 100
5, 444000, Note_on_c, 4, 45, 0
5, 445440, Note_on_c, 4, 42, 100
5, 447120, Note_on_c, 4, 42, 0
5, 447360, Note_on_c, 4, 44, 100
5, 449040, Note_on_c, 4, 44, 0
5, 449280, Note_on_c, 4, 46, 100
5, 450960, Note_on_c, 4, 46, 0
5, 451200, Note_on_c, 4, 42, 100
5, 451680, Note_on_c, 4, 42, 0
5, 452160, Note_on_c, 4, 54, 100
5, 452640, Note_on_c, 4, 54, 0
5, 453120, Note_on_c, 4, 42, 100
5, 454800, Note_on_c, 4, 42, 0
5, 455040, Note_on_c, 4, 44, 100
5, 456720, Note_on_c, 4, 44, 0
5, 456960, Note_on_c, 4, 46, 100
5, 458640, Note_on_c, 4, 46, 0
5, 458880, Note_on_c, 4, 42, 100
5, 459360, Note_on_c, 4, 42, 0
5, 459360, Note_on_c, 4, 54, 100
5, 459600, Note_on_c, 4, 54, 0
5, 459840, Note_on_c, 4, 50, 100
5, 460080, Note_on_c, 4, 50, 0
5, 460320, Note_on_c, 4, 47, 100
5, 460560, Note_on_c, 4, 47, 0
5, 460800, Note_on_c, 4, 42, 100
5, 462480, Note_on_c, 4, 42, 0
5, 462720, Note_on_c, 4, 44, 100
5, 464400, Note_on_c, 4, 44, 0
5, 464640, Note_on_c, 4, 46, 100
5, 466320, Note_on_c, 4, 46, 0
5, 466560, Note_on_c, 4, 42, 100
5, 467040, Note_on_c, 4, 42, 0
5, 467520, Note_on_c, 4, 54, 100
5, 467760, Note_on_c, 4, 54, 0
5, 468480, Note_on_c, 4, 42, 100
5, 470160, Note_on_c, 4, 42, 0
5, 470400, Note_on_c, 4, 44, 100
5, 472080, Note_on_c, 4, 44, 0
5, 472320, Note_on_c, 4, 46, 100
5, 474000, Note_on_c, 4, 46, 0
5, 474240, Note_on_c, 4, 49, 100
5, 475440, Note_on_c, 4, 49, 0
5, 476160, Note_on_c, 4, 40, 100
5, 477840, Note_on_c, 4, 40, 0
5, 478080, Note_on_c, 4, 43, 100
5, 480720, Note_on_c, 4, 43, 0
5, 480960, Note_on_c, 4, 46, 100
5, 483360, Note_on_c, 4, 46, 0
5, 483840, Note_on_c, 4, 51, 100
5, 484080, Note_on_c, 4, 51, 0
5, 484320, Note_on_c, 4, 50, 100
5, 484560, Note_on_c, 4, 50, 0
5, 484800, Note_on_c, 4, 51, 100
5, 485040, Note_on_c, 4, 51, 0
5, 485280, Note_on_c, 4, 50, 100
5, 485520, Note_on_c, 4, 50, 0
5, 485760, Note_on_c, 4, 51, 100
5, 486000, Note_on_c, 4, 51, 0
5, 486720, Note_on_c, 4, 46, 100
5, 488400, Note_on_c, 4, 46, 0
5, 488640, Note_on_c, 4, 45, 100
5, 490800, Note_on_c, 4, 45, 0
5, 491520, Note_on_c, 4, 40, 127
5, 499920, Note_on_c, 4, 40, 0
5, 499920, End_track
6, 0, Start_track
6, 0, Title_t, "BAND SINGER"
6, 0, Text_t, "[idle]"
6, 0, Text_t, "gtr_off"
6, 0, Text_t, "drum_off"
6, 0, Text_t, "bass_off"
6, 0, Text_t, "crowd_half_tempo"
6, 0, Text_t, "sing_half_tempo"
6, 0, Text_t, "bass_half_tempo"
6, 7680, Text_t, "verse"
6, 7680, Text_t, "gtr_on"
6, 38400, Text_t, "[play]"
6, 69120, Text_t, "bass_on"
6, 71040, Text_t, "[idle]"
6, 82560, Text_t, "drum_normal"
6, 84480, Text_t, "[play]"
6, 115200, Text_t, "wail_on"
6, 115200, Text_t, "chorus"
6, 115200, Text_t, "crowd_normal_tempo"
6, 115200, Text_t, "bass_normal_tempo"
6, 115200, Text_t, "sing_normal_tempo"
6, 116160, Text_t, "[idle]"
6, 120960, Text_t, "drum_allbeat"
6, 122880, Text_t, "wail_off"
6, 122880, Text_t, "verse"
6, 122880, Text_t, "[play]"
6, 122880, Text_t, "drum_double"
6, 122880, Text_t, "crowd_half_tempo"
6, 122880, Text_t, "bass_half_tempo"
6, 122880, Text_t, "sing_half_tempo"
6, 153600, Text_t, "bass_off"
6, 153600, Text_t, "drum_off"
6, 163200, Text_t, "drum_allbeat"
6, 165120, Text_t, "chorus"
6, 165120, Text_t, "bass_on"
6, 165120, Text_t, "drum_normal"
6, 167040, Text_t, "[idle]"
6, 226560, Text_t, "verse"
6, 226560, Text_t, "[play]"
6, 257280, Text_t, "drum_double"
6, 259200, Text_t, "[idle]"
6, 272640, Text_t, "[play]"
6, 272640, Text_t, "drum_normal"
6, 303360, Text_t, "chorus"
6, 303360, Text_t, "wail_on"
6, 303360, Text_t, "crowd_normal_tempo"
6, 303360, Text_t, "bass_normal_tempo"
6, 303360, Text_t, "sing_normal_tempo"
6, 304320, Text_t, "[idle]"
6, 309120, Text_t, "drum_allbeat"
6, 311040, Text_t, "[play]"
6, 311040, Text_t, "verse"
6, 311040, Text_t, "wail_off"
6, 311040, Text_t, "drum_double"
6, 311040, Text_t, "crowd_half_tempo"
6, 311040, Text_t, "bass_half_tempo"
6, 311040, Text_t, "sing_half_tempo"
6, 341760, Text_t, "drum_off"
6, 341760, Text_t, "bass_off"
6, 351360, Text_t, "drum_allbeat"
6, 353280, Text_t, "solo"
6, 353280, Text_t, "solo_on"
6, 353280, Text_t, "bass_on"
6, 353280, Text_t, "drum_normal"
6, 355200, Text_t, "[idle]"
6, 384000, Text_t, "solo_off"
6, 384000, Text_t, "chorus"
6, 414720, Text_t, "[play]"
6, 414720, Text_t, "verse"
6, 476160, Text_t, "chorus"
6, 476160, Text_t, "wail_on"
6, 476160, Text_t, "crowd_normal_tempo"
6, 476160, Text_t, "bass_normal_tempo"
6, 476160, Text_t, "sing_normal_tempo"
6, 477120, Text_t, "[idle]"
6, 481920, Text_t, "drum_allbeat"
6, 483840, Text_t, "drum_normal"
6, 489600, Text_t, "drum_allbeat"
6, 491520, Text_t, "drum_normal"
6, 491520, Text_t, "drum_double_tempo"
6, 492480, Text_t, "bass_off"
6, 499200, Text_t, "wail_off"
6, 499200, Text_t, "gtr_off"
6, 502080, Text_t, "drum_off"
6, 503038, Text_t, "[end]"
6, 503038, End_track
7, 0, Start_track
7, 0, Title_t, "BAND BASS"
7, 0, Text_t, "sing_off"
7, 0, Text_t, "gtr_off"
7, 0, Text_t, "drum_off"
7, 0, Text_t, "[idle]"
7, 0, Text_t, "crowd_half_tempo"
7, 0, Text_t, "sing_half_tempo"
7, 0, Text_t, "bass_half_tempo"
7, 7680, Text_t, "verse"
7, 7680, Text_t, "gtr_on"
7, 38400, Text_t, "sing_on"
7, 69120, Text_t, "[play]"
7, 71040, Text_t, "sing_off"
7, 82560, Text_t, "drum_normal"
7, 84480, Text_t, "sing_on"
7, 115200, Text_t, "wail_on"
7, 115200, Text_t, "chorus"
7, 115200, Text_t, "crowd_normal_tempo"
7, 115200, Text_t, "bass_normal_tempo"
7, 115200, Text_t, "sing_normal_tempo"
7, 116160, Text_t, "sing_off"
7, 120960, Text_t, "drum_allbeat"
7, 122880, Text_t, "wail_off"
7, 122880, Text_t, "verse"
7, 122880, Text_t, "sing_on"
7, 122880, Text_t, "drum_double"
7, 122880, Text_t, "crowd_half_tempo"
7, 122880, Text_t, "bass_half_tempo"
7, 122880, Text_t, "sing_half_tempo"
7, 153600, Text_t, "[idle]"
7, 153600, Text_t, "drum_off"
7, 163200, Text_t, "drum_allbeat"
7, 165120, Text_t, "chorus"
7, 165120, Text_t, "[play]"
7, 165120, Text_t, "drum_normal"
7, 167040, Text_t, "sing_off"
7, 226560, Text_t, "verse"
7, 226560, Text_t, "sing_on"
7, 257280, Text_t, "drum_double"
7, 259200, Text_t, "sing_off"
7, 272640, Text_t, "sing_on"
7, 272640, Text_t, "drum_normal"
7, 303360, Text_t, "chorus"
7, 303360, Text_t, "wail_on"
7, 303360, Text_t, "crowd_normal_tempo"
7, 303360, Text_t, "bass_normal_tempo"
7, 303360, Text_t, "sing_normal_tempo"
7, 304320, Text_t, "sing_off"
7, 309120, Text_t, "drum_allbeat"
7, 311040, Text_t, "sing_on"
7, 311040, Text_t, "verse"
7, 311040, Text_t, "wail_off"
7, 311040, Text_t, "drum_double"
7, 311040, Text_t, "crowd_half_tempo"
7, 311040, Text_t, "bass_half_tempo"
7, 311040, Text_t, "sing_half_tempo"
7, 341760, Text_t, "drum_off"
7, 341760, Text_t, "[idle]"
7, 351360, Text_t, "drum_allbeat"
7, 353280, Text_t, "solo"
7, 353280, Text_t, "solo_on"
7, 353280, Text_t, "[play]"
7, 353280, Text_t, "drum_normal"
7, 355200, Text_t, "sing_off"
7, 384000, Text_t, "solo_off"
7, 384000, Text_t, "chorus"
7, 414720, Text_t, "sing_on"
7, 414720, Text_t, "verse"
7, 476160, Text_t, "chorus"
7, 476160, Text_t, "wail_on"
7, 476160, Text_t, "crowd_normal_tempo"
7, 476160, Text_t, "bass_normal_tempo"
7, 476160, Text_t, "sing_normal_tempo"
7, 477120, Text_t, "sing_off"
7, 481920, Text_t, "drum_allbeat"
7, 483840, Text_t, "drum_normal"
7, 489600, Text_t, "drum_allbeat"
7, 491520, Text_t, "drum_normal"
7, 491520, Text_t, "drum_double_tempo"
7, 492480, Text_t, "[idle]"
7, 499200, Text_t, "wail_off"
7, 499200, Text_t, "gtr_off"
7, 502080, Text_t, "drum_off"
7, 503038, Text_t, "[end]"
7, 503038, End_track
8, 0, Start_track
8, 0, Title_t, "BAND DRUMS"
8, 0, Text_t, "sing_off"
8, 0, Text_t, "gtr_off"
8, 0, Text_t, "[idle]"
8, 0, Text_t, "bass_off"
8, 0, Text_t, "crowd_half_tempo"
8, 0, Text_t, "sing_half_tempo"
8, 0, Text_t, "bass_half_tempo"
8, 7680, Text_t, "verse"
8, 7680, Text_t, "gtr_on"
8, 38400, Text_t, "sing_on"
8, 69120, Text_t, "bass_on"
8, 71040, Text_t, "sing_off"
8, 82560, Text_t, "[nobeat]"
8, 84480, Text_t, "sing_on"
8, 115200, Text_t, "wail_on"
8, 115200, Text_t, "chorus"
8, 115200, Text_t, "crowd_normal_tempo"
8, 115200, Text_t, "bass_normal_tempo"
8, 115200, Text_t, "sing_normal_tempo"
8, 116160, Text_t, "sing_off"
8, 120960, Text_t, "[allbeat]"
8, 122880, Text_t, "wail_off"
8, 122880, Text_t, "verse"
8, 122880, Text_t, "sing_on"
8, 122880, Text_t, "[double_time]"
8, 122880, Text_t, "crowd_half_tempo"
8, 122880, Text_t, "bass_half_tempo"
8, 122880, Text_t, "sing_half_tempo"
8, 153600, Text_t, "bass_off"
8, 153600, Text_t, "[idle]"
8, 163200, Text_t, "[allbeat]"
8, 165120, Text_t, "chorus"
8, 165120, Text_t, "bass_on"
8, 165120, Text_t, "[nobeat]"
8, 167040, Text_t, "sing_off"
8, 226560, Text_t, "verse"
8, 226560, Text_t, "sing_on"
8, 257280, Text_t, "[double_time]"
8, 259200, Text_t, "sing_off"
8, 272640, Text_t, "sing_on"
8, 272640, Text_t, "[nobeat]"
8, 303360, Text_t, "chorus"
8, 303360, Text_t, "wail_on"
8, 303360, Text_t, "crowd_normal_tempo"
8, 303360, Text_t, "bass_normal_tempo"
8, 303360, Text_t, "sing_normal_tempo"
8, 304320, Text_t, "sing_off"
8, 309120, Text_t, "[allbeat]"
8, 311040, Text_t, "sing_on"
8, 311040, Text_t, "verse"
8, 311040, Text_t, "wail_off"
8, 311040, Text_t, "[double_time]"
8, 311040, Text_t, "crowd_half_tempo"
8, 311040, Text_t, "bass_half_tempo"
8, 311040, Text_t, "sing_half_tempo"
8, 341760, Text_t, "[idle]"
8, 341760, Text_t, "bass_off"
8, 351360, Text_t, "[allbeat]"
8, 353280, Text_t, "solo"
8, 353280, Text_t, "solo_on"
8, 353280, Text_t, "bass_on"
8, 353280, Text_t, "[nobeat]"
8, 355200, Text_t, "sing_off"
8, 384000, Text_t, "solo_off"
8, 384000, Text_t, "chorus"
8, 414720, Text_t, "sing_on"
8, 414720, Text_t, "verse"
8, 476160, Text_t, "chorus"
8, 476160, Text_t, "wail_on"
8, 476160, Text_t, "crowd_normal_tempo"
8, 476160, Text_t, "bass_normal_tempo"
8, 476160, Text_t, "sing_normal_tempo"
8, 477120, Text_t, "sing_off"
8, 481920, Text_t, "[allbeat]"
8, 483840, Text_t, "[nobeat]"
8, 489600, Text_t, "[allbeat]"
8, 491520, Text_t, "[nobeat]"
8, 491520, Text_t, "drum_double_tempo"
8, 492480, Text_t, "bass_off"
8, 499200, Text_t, "wail_off"
8, 499200, Text_t, "gtr_off"
8, 502080, Text_t, "[idle]"
8, 503038, Text_t, "[end]"
8, 503038, End_track
0, 0, End_of_file
