0, 0, Header, 1, 8, 960
1, 0, Start_track
1, 0, Title_t, "cavemanrejoice"
1, 0, Time_signature, 4, 2, 24, 8
1, 0, Tempo, 750936
1, 3840, Tempo, 749248
1, 7680, Tempo, 770020
1, 11520, Tempo, 764330
1, 19200, Tempo, 762582
1, 23040, Tempo, 758149
1, 26880, Tempo, 764523
1, 34560, Tempo, 764523
1, 38400, Tempo, 762582
1, 42240, Tempo, 756429
1, 46080, Tempo, 754145
1, 53760, Tempo, 761228
1, 61440, Tempo, 756429
1, 65280, Tempo, 761999
1, 69120, Tempo, 766869
1, 92160, Tempo, 765110
1, 96000, Tempo, 774393
1, 99848, Tempo, 779017
1, 101758, Tempo, 767261
1, 115200, Tempo, 763357
1, 119028, Tempo, 767656
1, 122862, Tempo, 774591
1, 126720, Tempo, 768049
1, 130560, Tempo, 765892
1, 134400, Tempo, 773594
1, 138240, Tempo, 767458
1, 145920, Tempo, 766869
1, 149760, Tempo, 796178
1, 153600, Tempo, 803641
1, 157440, Tempo, 794070
1, 161280, Tempo, 800854
1, 165120, Tempo, 797024
1, 168960, Tempo, 798933
1, 172800, Tempo, 800638
1, 174688, Tempo, 793437
1, 176654, Tempo, 788435
1, 182270, Tempo, 790928
1, 184292, Tempo, 785340
1, 186848, Tempo, 782881
1, 188126, Tempo, 779828
1, 192000, Tempo, 786988
1, 195840, Tempo, 773793
1, 211200, Tempo, 771009
1, 222720, Tempo, 745711
1, 230400, Tempo, 780026
1, 238080, Tempo, 782472
1, 239952, Tempo, 777804
1, 241920, Tempo, 774993
1, 245760, Tempo, 781247
1, 249290, Tempo, 784518
1, 251592, Tempo, 784107
1, 252618, Tempo, 786988
1, 257248, Tempo, 765306
1, 261112, Tempo, 771009
1, 263022, Tempo, 775394
1, 263022, End_track
2, 0, Start_track
2, 0, Title_t, "PART GUITAR"
2, 0, Text_t, "[idle]"
2, 7650, Text_t, "drum_off"
2, 7650, Text_t, "bass_off"
2, 7650, Text_t, "[play]"
2, 7650, Text_t, "sing_off"
2, 7650, Note_on_c, 0, 105, 100
2, 7650, Note_on_c, 0, 93, 100
2, 7650, Note_on_c, 0, 69, 100
2, 7650, Note_on_c, 0, 81, 100
2, 7680, Note_on_c, 0, 96, 100
2, 7680, Note_on_c, 0, 98, 100
2, 7680, Note_on_c, 0, 60, 100
2, 7680, Note_on_c, 0, 84, 100
2, 7680, Note_on_c, 0, 86, 100
2, 7680, Note_on_c, 0, 72, 100
2, 7920, Note_on_c, 0, 96, 0
2, 7920, Note_on_c, 0, 98, 0
2, 7920, Note_on_c, 0, 60, 0
2, 7920, Note_on_c, 0, 84, 0
2, 7920, Note_on_c, 0, 86, 0
2, 7920, Note_on_c, 0, 72, 0
2, 8160, Note_on_c, 0, 96, 100
2, 8160, Note_on_c, 0, 98, 100
2, 8160, Note_on_c, 0, 60, 100
2, 8160, Note_on_c, 0, 84, 100
2, 8160, Note_on_c, 0, 86, 100
2, 8160, Note_on_c, 0, 72, 100
2, 8400, Note_on_c, 0, 96, 0
2, 8400, Note_on_c, 0, 98, 0
2, 8400, Note_on_c, 0, 60, 0
2, 8400, Note_on_c, 0, 84, 0
2, 8400, Note_on_c, 0, 86, 0
2, 8400, Note_on_c, 0, 72, 0
2, 8640, Note_on_c, 0, 97, 100
2, 8640, Note_on_c, 0, 99, 100
2, 8640, Note_on_c, 0, 61, 100
2, 8640, Note_on_c, 0, 85, 100
2, 8640, Note_on_c, 0, 87, 100
2, 8640, Note_on_c, 0, 74, 100
2, 8880, Note_on_c, 0, 97, 0
2, 8880, Note_on_c, 0, 99, 0
2, 8880, Note_on_c, 0, 61, 0
2, 8880, Note_on_c, 0, 85, 0
2, 8880, Note_on_c, 0, 87, 0
2, 8880, Note_on_c, 0, 74, 0
2, 8880, Note_on_c, 0, 96, 100
2, 8880, Note_on_c, 0, 98, 100
2, 8880, Note_on_c, 0, 85, 100
2, 8880, Note_on_c, 0, 86, 100
2, 8880, Note_on_c, 0, 73, 100
2, 9120, Note_on_c, 0, 96, 0
2, 9120, Note_on_c, 0, 98, 0
2, 9120, Note_on_c, 0, 85, 0
2, 9120, Note_on_c, 0, 86, 0
2, 9120, Note_on_c, 0, 73, 0
2, 9120, Note_on_c, 0, 97, 100
2, 9120, Note_on_c, 0, 99, 100
2, 9120, Note_on_c, 0, 61, 100
2, 9120, Note_on_c, 0, 85, 100
2, 9120, Note_on_c, 0, 87, 100
2, 9120, Note_on_c, 0, 74, 100
2, 9360, Note_on_c, 0, 61, 0
2, 9600, Note_on_c, 0, 97, 0
2, 9600, Note_on_c, 0, 99, 0
2, 9600, Note_on_c, 0, 85, 0
2, 9600, Note_on_c, 0, 87, 0
2, 9600, Note_on_c, 0, 74, 0
2, 9840, Note_on_c, 0, 97, 100
2, 9840, Note_on_c, 0, 99, 100
2, 9840, Note_on_c, 0, 61, 100
2, 9840, Note_on_c, 0, 85, 100
2, 9840, Note_on_c, 0, 87, 100
2, 9840, Note_on_c, 0, 74, 100
2, 10080, Note_on_c, 0, 97, 0
2, 10080, Note_on_c, 0, 99, 0
2, 10080, Note_on_c, 0, 61, 0
2, 10080, Note_on_c, 0, 85, 0
2, 10080, Note_on_c, 0, 87, 0
2, 10080, Note_on_c, 0, 74, 0
2, 10080, Note_on_c, 0, 97, 100
2, 10080, Note_on_c, 0, 99, 100
2, 10080, Note_on_c, 0, 85, 100
2, 10080, Note_on_c, 0, 87, 100
2, 10080, Note_on_c, 0, 74, 100
2, 10320, Note_on_c, 0, 97, 0
2, 10320, Note_on_c, 0, 99, 0
2, 10320, Note_on_c, 0, 85, 0
2, 10320, Note_on_c, 0, 87, 0
2, 10320, Note_on_c, 0, 74, 0
2, 10320, Note_on_c, 0, 96, 100
2, 10320, Note_on_c, 0, 98, 100
2, 10320, Note_on_c, 0, 60, 100
2, 10320, Note_on_c, 0, 85, 100
2, 10320, Note_on_c, 0, 86, 100
2, 10320, Note_on_c, 0, 73, 100
2, 10560, Note_on_c, 0, 96, 0
2, 10560, Note_on_c, 0, 98, 0
2, 10560, Note_on_c, 0, 60, 0
2, 10560, Note_on_c, 0, 85, 0
2, 10560, Note_on_c, 0, 86, 0
2, 10560, Note_on_c, 0, 73, 0
2, 10560, Note_on_c, 0, 97, 100
2, 10560, Note_on_c, 0, 99, 100
2, 10560, Note_on_c, 0, 61, 100
2, 10560, Note_on_c, 0, 85, 100
2, 10560, Note_on_c, 0, 87, 100
2, 10560, Note_on_c, 0, 74, 100
2, 10800, Note_on_c, 0, 97, 0
2, 10800, Note_on_c, 0, 99, 0
2, 10800, Note_on_c, 0, 61, 0
2, 10800, Note_on_c, 0, 85, 0
2, 10800, Note_on_c, 0, 87, 0
2, 10800, Note_on_c, 0, 74, 0
2, 11040, Note_on_c, 0, 98, 100
2, 11040, Note_on_c, 0, 100, 100
2, 11040, Note_on_c, 0, 62, 100
2, 11040, Note_on_c, 0, 86, 100
2, 11040, Note_on_c, 0, 88, 100
2, 11040, Note_on_c, 0, 75, 100
2, 11280, Note_on_c, 0, 98, 0
2, 11280, Note_on_c, 0, 100, 0
2, 11280, Note_on_c, 0, 62, 0
2, 11280, Note_on_c, 0, 86, 0
2, 11280, Note_on_c, 0, 88, 0
2, 11280, Note_on_c, 0, 75, 0
2, 11490, Note_on_c, 0, 105, 0
2, 11490, Note_on_c, 0, 93, 0
2, 11490, Note_on_c, 0, 69, 0
2, 11490, Note_on_c, 0, 81, 0
2, 11490, Note_on_c, 0, 106, 100
2, 11490, Note_on_c, 0, 94, 100
2, 11490, Note_on_c, 0, 70, 100
2, 11490, Note_on_c, 0, 82, 100
2, 11520, Note_on_c, 0, 96, 100
2, 11520, Note_on_c, 0, 98, 100
2, 11520, Note_on_c, 0, 60, 100
2, 11520, Note_on_c, 0, 84, 100
2, 11520, Note_on_c, 0, 86, 100
2, 11520, Note_on_c, 0, 72, 100
2, 11760, Note_on_c, 0, 96, 0
2, 11760, Note_on_c, 0, 98, 0
2, 11760, Note_on_c, 0, 60, 0
2, 11760, Note_on_c, 0, 84, 0
2, 11760, Note_on_c, 0, 86, 0
2, 11760, Note_on_c, 0, 72, 0
2, 12000, Note_on_c, 0, 96, 100
2, 12000, Note_on_c, 0, 98, 100
2, 12000, Note_on_c, 0, 60, 100
2, 12000, Note_on_c, 0, 84, 100
2, 12000, Note_on_c, 0, 86, 100
2, 12000, Note_on_c, 0, 72, 100
2, 12240, Note_on_c, 0, 96, 0
2, 12240, Note_on_c, 0, 98, 0
2, 12240, Note_on_c, 0, 60, 0
2, 12240, Note_on_c, 0, 84, 0
2, 12240, Note_on_c, 0, 86, 0
2, 12240, Note_on_c, 0, 72, 0
2, 12480, Note_on_c, 0, 97, 100
2, 12480, Note_on_c, 0, 99, 100
2, 12480, Note_on_c, 0, 61, 100
2, 12480, Note_on_c, 0, 85, 100
2, 12480, Note_on_c, 0, 87, 100
2, 12480, Note_on_c, 0, 74, 100
2, 12720, Note_on_c, 0, 97, 0
2, 12720, Note_on_c, 0, 99, 0
2, 12720, Note_on_c, 0, 61, 0
2, 12720, Note_on_c, 0, 85, 0
2, 12720, Note_on_c, 0, 87, 0
2, 12720, Note_on_c, 0, 74, 0
2, 12720, Note_on_c, 0, 96, 100
2, 12720, Note_on_c, 0, 98, 100
2, 12720, Note_on_c, 0, 85, 100
2, 12720, Note_on_c, 0, 86, 100
2, 12720, Note_on_c, 0, 73, 100
2, 12960, Note_on_c, 0, 96, 0
2, 12960, Note_on_c, 0, 98, 0
2, 12960, Note_on_c, 0, 85, 0
2, 12960, Note_on_c, 0, 86, 0
2, 12960, Note_on_c, 0, 73, 0
2, 12960, Note_on_c, 0, 97, 100
2, 12960, Note_on_c, 0, 99, 100
2, 12960, Note_on_c, 0, 61, 100
2, 12960, Note_on_c, 0, 85, 100
2, 12960, Note_on_c, 0, 87, 100
2, 12960, Note_on_c, 0, 74, 100
2, 13200, Note_on_c, 0, 61, 0
2, 13440, Note_on_c, 0, 97, 0
2, 13440, Note_on_c, 0, 99, 0
2, 13440, Note_on_c, 0, 85, 0
2, 13440, Note_on_c, 0, 87, 0
2, 13440, Note_on_c, 0, 74, 0
2, 13680, Note_on_c, 0, 97, 100
2, 13680, Note_on_c, 0, 99, 100
2, 13680, Note_on_c, 0, 61, 100
2, 13680, Note_on_c, 0, 85, 100
2, 13680, Note_on_c, 0, 87, 100
2, 13680, Note_on_c, 0, 74, 100
2, 13920, Note_on_c, 0, 97, 0
2, 13920, Note_on_c, 0, 99, 0
2, 13920, Note_on_c, 0, 61, 0
2, 13920, Note_on_c, 0, 85, 0
2, 13920, Note_on_c, 0, 87, 0
2, 13920, Note_on_c, 0, 74, 0
2, 13920, Note_on_c, 0, 97, 100
2, 13920, Note_on_c, 0, 99, 100
2, 13920, Note_on_c, 0, 85, 100
2, 13920, Note_on_c, 0, 87, 100
2, 13920, Note_on_c, 0, 74, 100
2, 14160, Note_on_c, 0, 97, 0
2, 14160, Note_on_c, 0, 99, 0
2, 14160, Note_on_c, 0, 85, 0
2, 14160, Note_on_c, 0, 87, 0
2, 14160, Note_on_c, 0, 74, 0
2, 14160, Note_on_c, 0, 96, 100
2, 14160, Note_on_c, 0, 98, 100
2, 14160, Note_on_c, 0, 60, 100
2, 14160, Note_on_c, 0, 85, 100
2, 14160, Note_on_c, 0, 86, 100
2, 14160, Note_on_c, 0, 73, 100
2, 14400, Note_on_c, 0, 96, 0
2, 14400, Note_on_c, 0, 98, 0
2, 14400, Note_on_c, 0, 60, 0
2, 14400, Note_on_c, 0, 85, 0
2, 14400, Note_on_c, 0, 86, 0
2, 14400, Note_on_c, 0, 73, 0
2, 14400, Note_on_c, 0, 97, 100
2, 14400, Note_on_c, 0, 99, 100
2, 14400, Note_on_c, 0, 61, 100
2, 14400, Note_on_c, 0, 85, 100
2, 14400, Note_on_c, 0, 87, 100
2, 14400, Note_on_c, 0, 74, 100
2, 14640, Note_on_c, 0, 97, 0
2, 14640, Note_on_c, 0, 99, 0
2, 14640, Note_on_c, 0, 61, 0
2, 14640, Note_on_c, 0, 85, 0
2, 14640, Note_on_c, 0, 87, 0
2, 14640, Note_on_c, 0, 74, 0
2, 14880, Note_on_c, 0, 98, 100
2, 14880, Note_on_c, 0, 100, 100
2, 14880, Note_on_c, 0, 62, 100
2, 14880, Note_on_c, 0, 86, 100
2, 14880, Note_on_c, 0, 88, 100
2, 14880, Note_on_c, 0, 75, 100
2, 15120, Note_on_c, 0, 98, 0
2, 15120, Note_on_c, 0, 100, 0
2, 15120, Note_on_c, 0, 62, 0
2, 15120, Note_on_c, 0, 86, 0
2, 15120, Note_on_c, 0, 88, 0
2, 15120, Note_on_c, 0, 75, 0
2, 15330, Text_t, "drum_on"
2, 15330, Text_t, "gtr_on"
2, 15330, Text_t, "bass_on"
2, 15330, Text_t, "[verse]"
2, 15330, Note_on_c, 0, 106, 0
2, 15330, Note_on_c, 0, 94, 0
2, 15330, Note_on_c, 0, 70, 0
2, 15330, Note_on_c, 0, 82, 0
2, 15330, Note_on_c, 0, 105, 100
2, 15330, Note_on_c, 0, 93, 100
2, 15330, Note_on_c, 0, 69, 100
2, 15330, Note_on_c, 0, 81, 100
2, 15360, Note_on_c, 0, 96, 100
2, 15360, Note_on_c, 0, 98, 100
2, 15360, Note_on_c, 0, 60, 100
2, 15360, Note_on_c, 0, 84, 100
2, 15360, Note_on_c, 0, 86, 100
2, 15360, Note_on_c, 0, 72, 100
2, 15600, Note_on_c, 0, 96, 0
2, 15600, Note_on_c, 0, 98, 0
2, 15600, Note_on_c, 0, 60, 0
2, 15600, Note_on_c, 0, 84, 0
2, 15600, Note_on_c, 0, 86, 0
2, 15600, Note_on_c, 0, 72, 0
2, 15840, Note_on_c, 0, 96, 100
2, 15840, Note_on_c, 0, 98, 100
2, 15840, Note_on_c, 0, 60, 100
2, 15840, Note_on_c, 0, 84, 100
2, 15840, Note_on_c, 0, 86, 100
2, 15840, Note_on_c, 0, 72, 100
2, 16080, Note_on_c, 0, 96, 0
2, 16080, Note_on_c, 0, 98, 0
2, 16080, Note_on_c, 0, 60, 0
2, 16080, Note_on_c, 0, 84, 0
2, 16080, Note_on_c, 0, 86, 0
2, 16080, Note_on_c, 0, 72, 0
2, 16320, Note_on_c, 0, 97, 100
2, 16320, Note_on_c, 0, 99, 100
2, 16320, Note_on_c, 0, 61, 100
2, 16320, Note_on_c, 0, 85, 100
2, 16320, Note_on_c, 0, 87, 100
2, 16320, Note_on_c, 0, 74, 100
2, 16560, Note_on_c, 0, 97, 0
2, 16560, Note_on_c, 0, 99, 0
2, 16560, Note_on_c, 0, 61, 0
2, 16560, Note_on_c, 0, 85, 0
2, 16560, Note_on_c, 0, 87, 0
2, 16560, Note_on_c, 0, 74, 0
2, 16560, Note_on_c, 0, 96, 100
2, 16560, Note_on_c, 0, 98, 100
2, 16560, Note_on_c, 0, 85, 100
2, 16560, Note_on_c, 0, 86, 100
2, 16560, Note_on_c, 0, 73, 100
2, 16800, Note_on_c, 0, 96, 0
2, 16800, Note_on_c, 0, 98, 0
2, 16800, Note_on_c, 0, 85, 0
2, 16800, Note_on_c, 0, 86, 0
2, 16800, Note_on_c, 0, 73, 0
2, 16800, Note_on_c, 0, 97, 100
2, 16800, Note_on_c, 0, 99, 100
2, 16800, Note_on_c, 0, 61, 100
2, 16800, Note_on_c, 0, 85, 100
2, 16800, Note_on_c, 0, 87, 100
2, 16800, Note_on_c, 0, 74, 100
2, 17040, Note_on_c, 0, 61, 0
2, 17280, Note_on_c, 0, 97, 0
2, 17280, Note_on_c, 0, 99, 0
2, 17280, Note_on_c, 0, 85, 0
2, 17280, Note_on_c, 0, 87, 0
2, 17280, Note_on_c, 0, 74, 0
2, 17520, Note_on_c, 0, 97, 100
2, 17520, Note_on_c, 0, 99, 100
2, 17520, Note_on_c, 0, 61, 100
2, 17520, Note_on_c, 0, 85, 100
2, 17520, Note_on_c, 0, 87, 100
2, 17520, Note_on_c, 0, 74, 100
2, 17760, Note_on_c, 0, 97, 0
2, 17760, Note_on_c, 0, 99, 0
2, 17760, Note_on_c, 0, 61, 0
2, 17760, Note_on_c, 0, 85, 0
2, 17760, Note_on_c, 0, 87, 0
2, 17760, Note_on_c, 0, 74, 0
2, 17760, Note_on_c, 0, 97, 100
2, 17760, Note_on_c, 0, 99, 100
2, 17760, Note_on_c, 0, 85, 100
2, 17760, Note_on_c, 0, 87, 100
2, 17760, Note_on_c, 0, 74, 100
2, 18000, Note_on_c, 0, 97, 0
2, 18000, Note_on_c, 0, 99, 0
2, 18000, Note_on_c, 0, 85, 0
2, 18000, Note_on_c, 0, 87, 0
2, 18000, Note_on_c, 0, 74, 0
2, 18000, Note_on_c, 0, 96, 100
2, 18000, Note_on_c, 0, 98, 100
2, 18000, Note_on_c, 0, 60, 100
2, 18000, Note_on_c, 0, 85, 100
2, 18000, Note_on_c, 0, 86, 100
2, 18000, Note_on_c, 0, 73, 100
2, 18240, Note_on_c, 0, 96, 0
2, 18240, Note_on_c, 0, 98, 0
2, 18240, Note_on_c, 0, 60, 0
2, 18240, Note_on_c, 0, 85, 0
2, 18240, Note_on_c, 0, 86, 0
2, 18240, Note_on_c, 0, 73, 0
2, 18240, Note_on_c, 0, 97, 100
2, 18240, Note_on_c, 0, 99, 100
2, 18240, Note_on_c, 0, 61, 100
2, 18240, Note_on_c, 0, 85, 100
2, 18240, Note_on_c, 0, 87, 100
2, 18240, Note_on_c, 0, 74, 100
2, 18480, Note_on_c, 0, 97, 0
2, 18480, Note_on_c, 0, 99, 0
2, 18480, Note_on_c, 0, 61, 0
2, 18480, Note_on_c, 0, 85, 0
2, 18480, Note_on_c, 0, 87, 0
2, 18480, Note_on_c, 0, 74, 0
2, 18720, Note_on_c, 0, 98, 100
2, 18720, Note_on_c, 0, 100, 100
2, 18720, Note_on_c, 0, 62, 100
2, 18720, Note_on_c, 0, 86, 100
2, 18720, Note_on_c, 0, 88, 100
2, 18720, Note_on_c, 0, 75, 100
2, 18960, Note_on_c, 0, 98, 0
2, 18960, Note_on_c, 0, 100, 0
2, 18960, Note_on_c, 0, 62, 0
2, 18960, Note_on_c, 0, 86, 0
2, 18960, Note_on_c, 0, 88, 0
2, 18960, Note_on_c, 0, 75, 0
2, 19170, Note_on_c, 0, 105, 0
2, 19170, Note_on_c, 0, 93, 0
2, 19170, Note_on_c, 0, 69, 0
2, 19170, Note_on_c, 0, 81, 0
2, 19170, Note_on_c, 0, 106, 100
2, 19170, Note_on_c, 0, 94, 100
2, 19170, Note_on_c, 0, 70, 100
2, 19170, Note_on_c, 0, 82, 100
2, 19200, Note_on_c, 0, 96, 100
2, 19200, Note_on_c, 0, 98, 100
2, 19200, Note_on_c, 0, 60, 100
2, 19200, Note_on_c, 0, 84, 100
2, 19200, Note_on_c, 0, 86, 100
2, 19200, Note_on_c, 0, 72, 100
2, 19440, Note_on_c, 0, 96, 0
2, 19440, Note_on_c, 0, 98, 0
2, 19440, Note_on_c, 0, 60, 0
2, 19440, Note_on_c, 0, 84, 0
2, 19440, Note_on_c, 0, 86, 0
2, 19440, Note_on_c, 0, 72, 0
2, 19680, Note_on_c, 0, 96, 100
2, 19680, Note_on_c, 0, 98, 100
2, 19680, Note_on_c, 0, 60, 100
2, 19680, Note_on_c, 0, 84, 100
2, 19680, Note_on_c, 0, 86, 100
2, 19680, Note_on_c, 0, 72, 100
2, 19920, Note_on_c, 0, 96, 0
2, 19920, Note_on_c, 0, 98, 0
2, 19920, Note_on_c, 0, 60, 0
2, 19920, Note_on_c, 0, 84, 0
2, 19920, Note_on_c, 0, 86, 0
2, 19920, Note_on_c, 0, 72, 0
2, 20160, Note_on_c, 0, 97, 100
2, 20160, Note_on_c, 0, 99, 100
2, 20160, Note_on_c, 0, 61, 100
2, 20160, Note_on_c, 0, 85, 100
2, 20160, Note_on_c, 0, 87, 100
2, 20160, Note_on_c, 0, 74, 100
2, 20400, Note_on_c, 0, 97, 0
2, 20400, Note_on_c, 0, 99, 0
2, 20400, Note_on_c, 0, 61, 0
2, 20400, Note_on_c, 0, 85, 0
2, 20400, Note_on_c, 0, 87, 0
2, 20400, Note_on_c, 0, 74, 0
2, 20400, Note_on_c, 0, 96, 100
2, 20400, Note_on_c, 0, 98, 100
2, 20400, Note_on_c, 0, 85, 100
2, 20400, Note_on_c, 0, 86, 100
2, 20400, Note_on_c, 0, 73, 100
2, 20640, Note_on_c, 0, 96, 0
2, 20640, Note_on_c, 0, 98, 0
2, 20640, Note_on_c, 0, 85, 0
2, 20640, Note_on_c, 0, 86, 0
2, 20640, Note_on_c, 0, 73, 0
2, 20640, Note_on_c, 0, 97, 100
2, 20640, Note_on_c, 0, 99, 100
2, 20640, Note_on_c, 0, 61, 100
2, 20640, Note_on_c, 0, 85, 100
2, 20640, Note_on_c, 0, 87, 100
2, 20640, Note_on_c, 0, 74, 100
2, 20880, Note_on_c, 0, 61, 0
2, 21090, Note_on_c, 0, 106, 0
2, 21090, Note_on_c, 0, 94, 0
2, 21090, Note_on_c, 0, 70, 0
2, 21090, Note_on_c, 0, 82, 0
2, 21090, Note_on_c, 0, 105, 100
2, 21090, Note_on_c, 0, 93, 100
2, 21090, Note_on_c, 0, 69, 100
2, 21090, Note_on_c, 0, 81, 100
2, 21120, Note_on_c, 0, 97, 0
2, 21120, Note_on_c, 0, 99, 0
2, 21120, Note_on_c, 0, 85, 0
2, 21120, Note_on_c, 0, 87, 0
2, 21120, Note_on_c, 0, 74, 0
2, 21360, Note_on_c, 0, 97, 100
2, 21360, Note_on_c, 0, 62, 100
2, 21360, Note_on_c, 0, 85, 100
2, 21360, Note_on_c, 0, 73, 100
2, 21600, Note_on_c, 0, 97, 0
2, 21600, Note_on_c, 0, 62, 0
2, 21600, Note_on_c, 0, 85, 0
2, 21600, Note_on_c, 0, 73, 0
2, 21600, Note_on_c, 0, 97, 100
2, 21600, Note_on_c, 0, 85, 100
2, 21600, Note_on_c, 0, 73, 100
2, 21840, Note_on_c, 0, 97, 0
2, 21840, Note_on_c, 0, 85, 0
2, 21840, Note_on_c, 0, 73, 0
2, 21840, Note_on_c, 0, 97, 100
2, 21840, Note_on_c, 0, 85, 100
2, 21840, Note_on_c, 0, 73, 100
2, 22050, Note_on_c, 0, 105, 0
2, 22050, Note_on_c, 0, 93, 0
2, 22050, Note_on_c, 0, 69, 0
2, 22050, Note_on_c, 0, 81, 0
2, 22050, Note_on_c, 0, 106, 100
2, 22050, Note_on_c, 0, 94, 100
2, 22050, Note_on_c, 0, 70, 100
2, 22050, Note_on_c, 0, 82, 100
2, 22080, Note_on_c, 0, 97, 0
2, 22080, Note_on_c, 0, 85, 0
2, 22080, Note_on_c, 0, 73, 0
2, 22320, Note_on_c, 0, 97, 100
2, 22320, Note_on_c, 0, 62, 100
2, 22320, Note_on_c, 0, 85, 100
2, 22320, Note_on_c, 0, 73, 100
2, 22560, Note_on_c, 0, 97, 0
2, 22560, Note_on_c, 0, 62, 0
2, 22560, Note_on_c, 0, 85, 0
2, 22560, Note_on_c, 0, 73, 0
2, 22560, Note_on_c, 0, 97, 100
2, 22560, Note_on_c, 0, 85, 100
2, 22560, Note_on_c, 0, 73, 100
2, 22560, Note_on_c, 0, 108, 100
2, 22800, Note_on_c, 0, 97, 0
2, 22800, Note_on_c, 0, 85, 0
2, 22800, Note_on_c, 0, 73, 0
2, 22800, Note_on_c, 0, 108, 0
2, 22800, Note_on_c, 0, 97, 100
2, 22800, Note_on_c, 0, 85, 100
2, 22800, Note_on_c, 0, 73, 100
2, 23010, Note_on_c, 0, 106, 0
2, 23010, Note_on_c, 0, 94, 0
2, 23010, Note_on_c, 0, 70, 0
2, 23010, Note_on_c, 0, 82, 0
2, 23010, Note_on_c, 0, 105, 100
2, 23010, Note_on_c, 0, 93, 100
2, 23010, Note_on_c, 0, 69, 100
2, 23010, Note_on_c, 0, 81, 100
2, 23040, Note_on_c, 0, 97, 0
2, 23040, Note_on_c, 0, 85, 0
2, 23040, Note_on_c, 0, 73, 0
2, 23040, Note_on_c, 0, 96, 100
2, 23040, Note_on_c, 0, 98, 100
2, 23040, Note_on_c, 0, 60, 100
2, 23040, Note_on_c, 0, 84, 100
2, 23040, Note_on_c, 0, 86, 100
2, 23040, Note_on_c, 0, 108, 100
2, 23040, Note_on_c, 0, 72, 100
2, 23280, Note_on_c, 0, 96, 0
2, 23280, Note_on_c, 0, 98, 0
2, 23280, Note_on_c, 0, 60, 0
2, 23280, Note_on_c, 0, 84, 0
2, 23280, Note_on_c, 0, 86, 0
2, 23280, Note_on_c, 0, 72, 0
2, 23400, Note_on_c, 0, 108, 0
2, 23520, Note_on_c, 0, 96, 100
2, 23520, Note_on_c, 0, 98, 100
2, 23520, Note_on_c, 0, 60, 100
2, 23520, Note_on_c, 0, 84, 100
2, 23520, Note_on_c, 0, 86, 100
2, 23520, Note_on_c, 0, 108, 100
2, 23520, Note_on_c, 0, 72, 100
2, 23760, Note_on_c, 0, 96, 0
2, 23760, Note_on_c, 0, 98, 0
2, 23760, Note_on_c, 0, 60, 0
2, 23760, Note_on_c, 0, 84, 0
2, 23760, Note_on_c, 0, 86, 0
2, 23760, Note_on_c, 0, 72, 0
2, 23880, Note_on_c, 0, 108, 0
2, 24000, Note_on_c, 0, 97, 100
2, 24000, Note_on_c, 0, 99, 100
2, 24000, Note_on_c, 0, 61, 100
2, 24000, Note_on_c, 0, 85, 100
2, 24000, Note_on_c, 0, 87, 100
2, 24000, Note_on_c, 0, 74, 100
2, 24240, Note_on_c, 0, 97, 0
2, 24240, Note_on_c, 0, 99, 0
2, 24240, Note_on_c, 0, 61, 0
2, 24240, Note_on_c, 0, 85, 0
2, 24240, Note_on_c, 0, 87, 0
2, 24240, Note_on_c, 0, 74, 0
2, 24240, Note_on_c, 0, 96, 100
2, 24240, Note_on_c, 0, 98, 100
2, 24240, Note_on_c, 0, 85, 100
2, 24240, Note_on_c, 0, 86, 100
2, 24240, Note_on_c, 0, 73, 100
2, 24480, Note_on_c, 0, 96, 0
2, 24480, Note_on_c, 0, 98, 0
2, 24480, Note_on_c, 0, 85, 0
2, 24480, Note_on_c, 0, 86, 0
2, 24480, Note_on_c, 0, 73, 0
2, 24480, Note_on_c, 0, 97, 100
2, 24480, Note_on_c, 0, 99, 100
2, 24480, Note_on_c, 0, 61, 100
2, 24480, Note_on_c, 0, 85, 100
2, 24480, Note_on_c, 0, 87, 100
2, 24480, Note_on_c, 0, 74, 100
2, 24720, Note_on_c, 0, 61, 0
2, 24960, Note_on_c, 0, 97, 0
2, 24960, Note_on_c, 0, 99, 0
2, 24960, Note_on_c, 0, 85, 0
2, 24960, Note_on_c, 0, 87, 0
2, 24960, Note_on_c, 0, 74, 0
2, 25200, Note_on_c, 0, 97, 100
2, 25200, Note_on_c, 0, 99, 100
2, 25200, Note_on_c, 0, 61, 100
2, 25200, Note_on_c, 0, 85, 100
2, 25200, Note_on_c, 0, 87, 100
2, 25200, Note_on_c, 0, 74, 100
2, 25440, Note_on_c, 0, 97, 0
2, 25440, Note_on_c, 0, 99, 0
2, 25440, Note_on_c, 0, 61, 0
2, 25440, Note_on_c, 0, 85, 0
2, 25440, Note_on_c, 0, 87, 0
2, 25440, Note_on_c, 0, 74, 0
2, 25440, Note_on_c, 0, 97, 100
2, 25440, Note_on_c, 0, 99, 100
2, 25440, Note_on_c, 0, 85, 100
2, 25440, Note_on_c, 0, 87, 100
2, 25440, Note_on_c, 0, 108, 100
2, 25440, Note_on_c, 0, 74, 100
2, 25620, Note_on_c, 0, 108, 0
2, 25680, Note_on_c, 0, 97, 0
2, 25680, Note_on_c, 0, 99, 0
2, 25680, Note_on_c, 0, 85, 0
2, 25680, Note_on_c, 0, 87, 0
2, 25680, Note_on_c, 0, 74, 0
2, 25680, Note_on_c, 0, 96, 100
2, 25680, Note_on_c, 0, 98, 100
2, 25680, Note_on_c, 0, 60, 100
2, 25680, Note_on_c, 0, 85, 100
2, 25680, Note_on_c, 0, 86, 100
2, 25680, Note_on_c, 0, 108, 100
2, 25680, Note_on_c, 0, 73, 100
2, 25860, Note_on_c, 0, 108, 0
2, 25920, Note_on_c, 0, 96, 0
2, 25920, Note_on_c, 0, 98, 0
2, 25920, Note_on_c, 0, 60, 0
2, 25920, Note_on_c, 0, 85, 0
2, 25920, Note_on_c, 0, 86, 0
2, 25920, Note_on_c, 0, 73, 0
2, 25920, Note_on_c, 0, 97, 100
2, 25920, Note_on_c, 0, 99, 100
2, 25920, Note_on_c, 0, 61, 100
2, 25920, Note_on_c, 0, 85, 100
2, 25920, Note_on_c, 0, 87, 100
2, 25920, Note_on_c, 0, 108, 100
2, 25920, Note_on_c, 0, 74, 100
2, 26160, Note_on_c, 0, 97, 0
2, 26160, Note_on_c, 0, 99, 0
2, 26160, Note_on_c, 0, 61, 0
2, 26160, Note_on_c, 0, 85, 0
2, 26160, Note_on_c, 0, 87, 0
2, 26160, Note_on_c, 0, 74, 0
2, 26280, Note_on_c, 0, 108, 0
2, 26400, Note_on_c, 0, 98, 100
2, 26400, Note_on_c, 0, 100, 100
2, 26400, Note_on_c, 0, 62, 100
2, 26400, Note_on_c, 0, 86, 100
2, 26400, Note_on_c, 0, 88, 100
2, 26400, Note_on_c, 0, 108, 100
2, 26400, Note_on_c, 0, 75, 100
2, 26640, Note_on_c, 0, 98, 0
2, 26640, Note_on_c, 0, 100, 0
2, 26640, Note_on_c, 0, 62, 0
2, 26640, Note_on_c, 0, 86, 0
2, 26640, Note_on_c, 0, 88, 0
2, 26640, Note_on_c, 0, 75, 0
2, 26760, Note_on_c, 0, 108, 0
2, 26850, Note_on_c, 0, 105, 0
2, 26850, Note_on_c, 0, 93, 0
2, 26850, Note_on_c, 0, 69, 0
2, 26850, Note_on_c, 0, 81, 0
2, 26850, Note_on_c, 0, 106, 100
2, 26850, Note_on_c, 0, 94, 100
2, 26850, Note_on_c, 0, 70, 100
2, 26850, Note_on_c, 0, 82, 100
2, 26880, Note_on_c, 0, 96, 100
2, 26880, Note_on_c, 0, 98, 100
2, 26880, Note_on_c, 0, 60, 100
2, 26880, Note_on_c, 0, 84, 100
2, 26880, Note_on_c, 0, 86, 100
2, 26880, Note_on_c, 0, 108, 100
2, 26880, Note_on_c, 0, 72, 100
2, 27120, Note_on_c, 0, 96, 0
2, 27120, Note_on_c, 0, 98, 0
2, 27120, Note_on_c, 0, 60, 0
2, 27120, Note_on_c, 0, 84, 0
2, 27120, Note_on_c, 0, 86, 0
2, 27120, Note_on_c, 0, 72, 0
2, 27240, Note_on_c, 0, 108, 0
2, 27360, Note_on_c, 0, 96, 100
2, 27360, Note_on_c, 0, 98, 100
2, 27360, Note_on_c, 0, 60, 100
2, 27360, Note_on_c, 0, 84, 100
2, 27360, Note_on_c, 0, 86, 100
2, 27360, Note_on_c, 0, 72, 100
2, 27600, Note_on_c, 0, 96, 0
2, 27600, Note_on_c, 0, 98, 0
2, 27600, Note_on_c, 0, 60, 0
2, 27600, Note_on_c, 0, 84, 0
2, 27600, Note_on_c, 0, 86, 0
2, 27600, Note_on_c, 0, 72, 0
2, 27840, Note_on_c, 0, 97, 100
2, 27840, Note_on_c, 0, 99, 100
2, 27840, Note_on_c, 0, 61, 100
2, 27840, Note_on_c, 0, 85, 100
2, 27840, Note_on_c, 0, 87, 100
2, 27840, Note_on_c, 0, 74, 100
2, 28080, Note_on_c, 0, 97, 0
2, 28080, Note_on_c, 0, 99, 0
2, 28080, Note_on_c, 0, 61, 0
2, 28080, Note_on_c, 0, 85, 0
2, 28080, Note_on_c, 0, 87, 0
2, 28080, Note_on_c, 0, 74, 0
2, 28080, Note_on_c, 0, 96, 100
2, 28080, Note_on_c, 0, 98, 100
2, 28080, Note_on_c, 0, 85, 100
2, 28080, Note_on_c, 0, 86, 100
2, 28080, Note_on_c, 0, 73, 100
2, 28320, Note_on_c, 0, 96, 0
2, 28320, Note_on_c, 0, 98, 0
2, 28320, Note_on_c, 0, 85, 0
2, 28320, Note_on_c, 0, 86, 0
2, 28320, Note_on_c, 0, 73, 0
2, 28320, Note_on_c, 0, 97, 100
2, 28320, Note_on_c, 0, 99, 100
2, 28320, Note_on_c, 0, 61, 100
2, 28320, Note_on_c, 0, 85, 100
2, 28320, Note_on_c, 0, 87, 100
2, 28320, Note_on_c, 0, 74, 100
2, 28560, Note_on_c, 0, 61, 0
2, 28800, Note_on_c, 0, 97, 0
2, 28800, Note_on_c, 0, 99, 0
2, 28800, Note_on_c, 0, 85, 0
2, 28800, Note_on_c, 0, 87, 0
2, 28800, Note_on_c, 0, 74, 0
2, 29040, Note_on_c, 0, 97, 100
2, 29040, Note_on_c, 0, 99, 100
2, 29040, Note_on_c, 0, 61, 100
2, 29040, Note_on_c, 0, 85, 100
2, 29040, Note_on_c, 0, 87, 100
2, 29040, Note_on_c, 0, 74, 100
2, 29280, Note_on_c, 0, 97, 0
2, 29280, Note_on_c, 0, 99, 0
2, 29280, Note_on_c, 0, 61, 0
2, 29280, Note_on_c, 0, 85, 0
2, 29280, Note_on_c, 0, 87, 0
2, 29280, Note_on_c, 0, 74, 0
2, 29280, Note_on_c, 0, 97, 100
2, 29280, Note_on_c, 0, 99, 100
2, 29280, Note_on_c, 0, 85, 100
2, 29280, Note_on_c, 0, 87, 100
2, 29280, Note_on_c, 0, 74, 100
2, 29520, Note_on_c, 0, 97, 0
2, 29520, Note_on_c, 0, 99, 0
2, 29520, Note_on_c, 0, 85, 0
2, 29520, Note_on_c, 0, 87, 0
2, 29520, Note_on_c, 0, 74, 0
2, 29520, Note_on_c, 0, 96, 100
2, 29520, Note_on_c, 0, 98, 100
2, 29520, Note_on_c, 0, 60, 100
2, 29520, Note_on_c, 0, 85, 100
2, 29520, Note_on_c, 0, 86, 100
2, 29520, Note_on_c, 0, 73, 100
2, 29730, Text_t, "sing_on"
2, 29760, Note_on_c, 0, 96, 0
2, 29760, Note_on_c, 0, 98, 0
2, 29760, Note_on_c, 0, 60, 0
2, 29760, Note_on_c, 0, 85, 0
2, 29760, Note_on_c, 0, 86, 0
2, 29760, Note_on_c, 0, 73, 0
2, 29760, Note_on_c, 0, 97, 100
2, 29760, Note_on_c, 0, 99, 100
2, 29760, Note_on_c, 0, 61, 100
2, 29760, Note_on_c, 0, 85, 100
2, 29760, Note_on_c, 0, 87, 100
2, 29760, Note_on_c, 0, 74, 100
2, 30000, Note_on_c, 0, 97, 0
2, 30000, Note_on_c, 0, 99, 0
2, 30000, Note_on_c, 0, 61, 0
2, 30000, Note_on_c, 0, 85, 0
2, 30000, Note_on_c, 0, 87, 0
2, 30000, Note_on_c, 0, 74, 0
2, 30240, Note_on_c, 0, 98, 100
2, 30240, Note_on_c, 0, 100, 100
2, 30240, Note_on_c, 0, 62, 100
2, 30240, Note_on_c, 0, 86, 100
2, 30240, Note_on_c, 0, 88, 100
2, 30240, Note_on_c, 0, 108, 100
2, 30240, Note_on_c, 0, 75, 100
2, 30480, Note_on_c, 0, 98, 0
2, 30480, Note_on_c, 0, 100, 0
2, 30480, Note_on_c, 0, 62, 0
2, 30480, Note_on_c, 0, 86, 0
2, 30480, Note_on_c, 0, 88, 0
2, 30480, Note_on_c, 0, 75, 0
2, 30540, Note_on_c, 0, 108, 0
2, 30690, Note_on_c, 0, 106, 0
2, 30690, Note_on_c, 0, 94, 0
2, 30690, Note_on_c, 0, 70, 0
2, 30690, Note_on_c, 0, 82, 0
2, 30690, Note_on_c, 0, 105, 100
2, 30690, Note_on_c, 0, 93, 100
2, 30690, Note_on_c, 0, 69, 100
2, 30690, Note_on_c, 0, 81, 100
2, 30720, Note_on_c, 0, 96, 100
2, 30720, Note_on_c, 0, 98, 100
2, 30720, Note_on_c, 0, 60, 100
2, 30720, Note_on_c, 0, 84, 100
2, 30720, Note_on_c, 0, 86, 100
2, 30720, Note_on_c, 0, 108, 100
2, 30720, Note_on_c, 0, 72, 100
2, 30960, Note_on_c, 0, 96, 0
2, 30960, Note_on_c, 0, 98, 0
2, 30960, Note_on_c, 0, 60, 0
2, 30960, Note_on_c, 0, 84, 0
2, 30960, Note_on_c, 0, 86, 0
2, 30960, Note_on_c, 0, 108, 0
2, 30960, Note_on_c, 0, 72, 0
2, 31200, Note_on_c, 0, 96, 100
2, 31200, Note_on_c, 0, 98, 100
2, 31200, Note_on_c, 0, 60, 100
2, 31200, Note_on_c, 0, 84, 100
2, 31200, Note_on_c, 0, 86, 100
2, 31200, Note_on_c, 0, 108, 100
2, 31200, Note_on_c, 0, 72, 100
2, 31440, Note_on_c, 0, 96, 0
2, 31440, Note_on_c, 0, 98, 0
2, 31440, Note_on_c, 0, 60, 0
2, 31440, Note_on_c, 0, 84, 0
2, 31440, Note_on_c, 0, 86, 0
2, 31440, Note_on_c, 0, 72, 0
2, 31500, Note_on_c, 0, 108, 0
2, 31680, Note_on_c, 0, 97, 100
2, 31680, Note_on_c, 0, 99, 100
2, 31680, Note_on_c, 0, 61, 100
2, 31680, Note_on_c, 0, 85, 100
2, 31680, Note_on_c, 0, 87, 100
2, 31680, Note_on_c, 0, 108, 100
2, 31680, Note_on_c, 0, 74, 100
2, 31860, Note_on_c, 0, 108, 0
2, 31920, Note_on_c, 0, 97, 0
2, 31920, Note_on_c, 0, 99, 0
2, 31920, Note_on_c, 0, 61, 0
2, 31920, Note_on_c, 0, 85, 0
2, 31920, Note_on_c, 0, 87, 0
2, 31920, Note_on_c, 0, 74, 0
2, 31920, Note_on_c, 0, 96, 100
2, 31920, Note_on_c, 0, 98, 100
2, 31920, Note_on_c, 0, 85, 100
2, 31920, Note_on_c, 0, 86, 100
2, 31920, Note_on_c, 0, 108, 100
2, 31920, Note_on_c, 0, 73, 100
2, 32160, Note_on_c, 0, 96, 0
2, 32160, Note_on_c, 0, 98, 0
2, 32160, Note_on_c, 0, 85, 0
2, 32160, Note_on_c, 0, 86, 0
2, 32160, Note_on_c, 0, 73, 0
2, 32160, Note_on_c, 0, 97, 100
2, 32160, Note_on_c, 0, 99, 100
2, 32160, Note_on_c, 0, 61, 100
2, 32160, Note_on_c, 0, 85, 100
2, 32160, Note_on_c, 0, 87, 100
2, 32160, Note_on_c, 0, 74, 100
2, 32220, Note_on_c, 0, 108, 0
2, 32400, Note_on_c, 0, 61, 0
2, 32400, Note_on_c, 0, 108, 100
2, 32640, Note_on_c, 0, 97, 0
2, 32640, Note_on_c, 0, 99, 0
2, 32640, Note_on_c, 0, 85, 0
2, 32640, Note_on_c, 0, 87, 0
2, 32640, Note_on_c, 0, 74, 0
2, 32760, Note_on_c, 0, 108, 0
2, 32880, Note_on_c, 0, 97, 100
2, 32880, Note_on_c, 0, 99, 100
2, 32880, Note_on_c, 0, 61, 100
2, 32880, Note_on_c, 0, 85, 100
2, 32880, Note_on_c, 0, 87, 100
2, 32880, Note_on_c, 0, 108, 100
2, 32880, Note_on_c, 0, 74, 100
2, 33060, Note_on_c, 0, 108, 0
2, 33120, Note_on_c, 0, 97, 0
2, 33120, Note_on_c, 0, 99, 0
2, 33120, Note_on_c, 0, 61, 0
2, 33120, Note_on_c, 0, 85, 0
2, 33120, Note_on_c, 0, 87, 0
2, 33120, Note_on_c, 0, 74, 0
2, 33120, Note_on_c, 0, 97, 100
2, 33120, Note_on_c, 0, 99, 100
2, 33120, Note_on_c, 0, 85, 100
2, 33120, Note_on_c, 0, 87, 100
2, 33120, Note_on_c, 0, 108, 100
2, 33120, Note_on_c, 0, 74, 100
2, 33360, Note_on_c, 0, 97, 0
2, 33360, Note_on_c, 0, 99, 0
2, 33360, Note_on_c, 0, 85, 0
2, 33360, Note_on_c, 0, 87, 0
2, 33360, Note_on_c, 0, 74, 0
2, 33360, Note_on_c, 0, 96, 100
2, 33360, Note_on_c, 0, 98, 100
2, 33360, Note_on_c, 0, 60, 100
2, 33360, Note_on_c, 0, 85, 100
2, 33360, Note_on_c, 0, 86, 100
2, 33360, Note_on_c, 0, 73, 100
2, 33420, Note_on_c, 0, 108, 0
2, 33600, Note_on_c, 0, 96, 0
2, 33600, Note_on_c, 0, 98, 0
2, 33600, Note_on_c, 0, 60, 0
2, 33600, Note_on_c, 0, 85, 0
2, 33600, Note_on_c, 0, 86, 0
2, 33600, Note_on_c, 0, 73, 0
2, 33600, Note_on_c, 0, 97, 100
2, 33600, Note_on_c, 0, 99, 100
2, 33600, Note_on_c, 0, 61, 100
2, 33600, Note_on_c, 0, 85, 100
2, 33600, Note_on_c, 0, 87, 100
2, 33600, Note_on_c, 0, 108, 100
2, 33600, Note_on_c, 0, 74, 100
2, 33840, Note_on_c, 0, 97, 0
2, 33840, Note_on_c, 0, 99, 0
2, 33840, Note_on_c, 0, 61, 0
2, 33840, Note_on_c, 0, 85, 0
2, 33840, Note_on_c, 0, 87, 0
2, 33840, Note_on_c, 0, 108, 0
2, 33840, Note_on_c, 0, 74, 0
2, 34080, Note_on_c, 0, 98, 100
2, 34080, Note_on_c, 0, 100, 100
2, 34080, Note_on_c, 0, 62, 100
2, 34080, Note_on_c, 0, 86, 100
2, 34080, Note_on_c, 0, 88, 100
2, 34080, Note_on_c, 0, 108, 100
2, 34080, Note_on_c, 0, 75, 100
2, 34260, Note_on_c, 0, 108, 0
2, 34320, Note_on_c, 0, 98, 0
2, 34320, Note_on_c, 0, 100, 0
2, 34320, Note_on_c, 0, 62, 0
2, 34320, Note_on_c, 0, 86, 0
2, 34320, Note_on_c, 0, 88, 0
2, 34320, Note_on_c, 0, 75, 0
2, 34320, Note_on_c, 0, 108, 100
2, 34530, Note_on_c, 0, 105, 0
2, 34530, Note_on_c, 0, 93, 0
2, 34530, Note_on_c, 0, 69, 0
2, 34530, Note_on_c, 0, 81, 0
2, 34530, Note_on_c, 0, 106, 100
2, 34530, Note_on_c, 0, 94, 100
2, 34530, Note_on_c, 0, 70, 100
2, 34530, Note_on_c, 0, 82, 100
2, 34560, Note_on_c, 0, 108, 0
2, 34560, Note_on_c, 0, 96, 100
2, 34560, Note_on_c, 0, 98, 100
2, 34560, Note_on_c, 0, 60, 100
2, 34560, Note_on_c, 0, 84, 100
2, 34560, Note_on_c, 0, 86, 100
2, 34560, Note_on_c, 0, 72, 100
2, 34800, Note_on_c, 0, 96, 0
2, 34800, Note_on_c, 0, 98, 0
2, 34800, Note_on_c, 0, 60, 0
2, 34800, Note_on_c, 0, 84, 0
2, 34800, Note_on_c, 0, 86, 0
2, 34800, Note_on_c, 0, 72, 0
2, 35040, Note_on_c, 0, 96, 100
2, 35040, Note_on_c, 0, 98, 100
2, 35040, Note_on_c, 0, 60, 100
2, 35040, Note_on_c, 0, 84, 100
2, 35040, Note_on_c, 0, 86, 100
2, 35040, Note_on_c, 0, 72, 100
2, 35280, Note_on_c, 0, 96, 0
2, 35280, Note_on_c, 0, 98, 0
2, 35280, Note_on_c, 0, 60, 0
2, 35280, Note_on_c, 0, 84, 0
2, 35280, Note_on_c, 0, 86, 0
2, 35280, Note_on_c, 0, 72, 0
2, 35520, Note_on_c, 0, 97, 100
2, 35520, Note_on_c, 0, 99, 100
2, 35520, Note_on_c, 0, 61, 100
2, 35520, Note_on_c, 0, 85, 100
2, 35520, Note_on_c, 0, 87, 100
2, 35520, Note_on_c, 0, 74, 100
2, 35760, Note_on_c, 0, 97, 0
2, 35760, Note_on_c, 0, 99, 0
2, 35760, Note_on_c, 0, 61, 0
2, 35760, Note_on_c, 0, 85, 0
2, 35760, Note_on_c, 0, 87, 0
2, 35760, Note_on_c, 0, 74, 0
2, 35760, Note_on_c, 0, 96, 100
2, 35760, Note_on_c, 0, 98, 100
2, 35760, Note_on_c, 0, 85, 100
2, 35760, Note_on_c, 0, 86, 100
2, 35760, Note_on_c, 0, 73, 100
2, 36000, Note_on_c, 0, 96, 0
2, 36000, Note_on_c, 0, 98, 0
2, 36000, Note_on_c, 0, 85, 0
2, 36000, Note_on_c, 0, 86, 0
2, 36000, Note_on_c, 0, 73, 0
2, 36000, Note_on_c, 0, 97, 100
2, 36000, Note_on_c, 0, 99, 100
2, 36000, Note_on_c, 0, 61, 100
2, 36000, Note_on_c, 0, 85, 100
2, 36000, Note_on_c, 0, 87, 100
2, 36000, Note_on_c, 0, 74, 100
2, 36240, Note_on_c, 0, 97, 0
2, 36240, Note_on_c, 0, 99, 0
2, 36240, Note_on_c, 0, 61, 0
2, 36240, Note_on_c, 0, 85, 0
2, 36240, Note_on_c, 0, 87, 0
2, 36450, Note_on_c, 0, 103, 100
2, 36450, Note_on_c, 0, 67, 100
2, 36450, Note_on_c, 0, 91, 100
2, 36450, Note_on_c, 0, 79, 100
2, 36450, Note_on_c, 0, 105, 100
2, 36450, Note_on_c, 0, 93, 100
2, 36450, Note_on_c, 0, 69, 100
2, 36450, Note_on_c, 0, 81, 100
2, 36480, Note_on_c, 0, 74, 0
2, 36480, Note_on_c, 0, 62, 100
2, 36480, Note_on_c, 0, 100, 100
2, 36480, Note_on_c, 0, 99, 100
2, 36480, Note_on_c, 0, 87, 100
2, 36480, Note_on_c, 0, 75, 100
2, 36720, Note_on_c, 0, 62, 0
2, 36720, Note_on_c, 0, 100, 0
2, 36720, Note_on_c, 0, 99, 0
2, 36720, Note_on_c, 0, 87, 0
2, 36720, Note_on_c, 0, 75, 0
2, 36720, Note_on_c, 0, 100, 100
2, 36720, Note_on_c, 0, 99, 100
2, 36720, Note_on_c, 0, 87, 100
2, 36720, Note_on_c, 0, 75, 100
2, 36960, Note_on_c, 0, 100, 0
2, 36960, Note_on_c, 0, 99, 0
2, 36960, Note_on_c, 0, 87, 0
2, 36960, Note_on_c, 0, 75, 0
2, 36960, Note_on_c, 0, 100, 100
2, 36960, Note_on_c, 0, 99, 100
2, 36960, Note_on_c, 0, 87, 100
2, 36960, Note_on_c, 0, 75, 100
2, 37200, Note_on_c, 0, 100, 0
2, 37200, Note_on_c, 0, 99, 0
2, 37200, Note_on_c, 0, 87, 0
2, 37200, Note_on_c, 0, 75, 0
2, 37200, Note_on_c, 0, 62, 100
2, 37200, Note_on_c, 0, 100, 100
2, 37200, Note_on_c, 0, 99, 100
2, 37200, Note_on_c, 0, 87, 100
2, 37200, Note_on_c, 0, 75, 100
2, 37440, Note_on_c, 0, 62, 0
2, 37440, Note_on_c, 0, 100, 0
2, 37440, Note_on_c, 0, 99, 0
2, 37440, Note_on_c, 0, 87, 0
2, 37440, Note_on_c, 0, 75, 0
2, 37440, Note_on_c, 0, 100, 100
2, 37440, Note_on_c, 0, 99, 100
2, 37440, Note_on_c, 0, 87, 100
2, 37440, Note_on_c, 0, 75, 100
2, 37680, Note_on_c, 0, 100, 0
2, 37680, Note_on_c, 0, 99, 0
2, 37680, Note_on_c, 0, 87, 0
2, 37680, Note_on_c, 0, 75, 0
2, 37680, Note_on_c, 0, 100, 100
2, 37680, Note_on_c, 0, 99, 100
2, 37680, Note_on_c, 0, 87, 100
2, 37680, Note_on_c, 0, 75, 100
2, 37920, Note_on_c, 0, 100, 0
2, 37920, Note_on_c, 0, 99, 0
2, 37920, Note_on_c, 0, 87, 0
2, 37920, Note_on_c, 0, 75, 0
2, 37920, Note_on_c, 0, 62, 100
2, 37920, Note_on_c, 0, 100, 100
2, 37920, Note_on_c, 0, 99, 100
2, 37920, Note_on_c, 0, 87, 100
2, 37920, Note_on_c, 0, 75, 100
2, 37980, Note_on_c, 0, 108, 100
2, 38160, Note_on_c, 0, 62, 0
2, 38160, Note_on_c, 0, 100, 0
2, 38160, Note_on_c, 0, 99, 0
2, 38160, Note_on_c, 0, 87, 0
2, 38160, Note_on_c, 0, 75, 0
2, 38160, Note_on_c, 0, 100, 100
2, 38160, Note_on_c, 0, 99, 100
2, 38160, Note_on_c, 0, 87, 100
2, 38160, Note_on_c, 0, 75, 100
2, 38220, Note_on_c, 0, 108, 0
2, 38370, Note_on_c, 0, 106, 0
2, 38370, Note_on_c, 0, 94, 0
2, 38370, Note_on_c, 0, 70, 0
2, 38370, Note_on_c, 0, 82, 0
2, 38370, Note_on_c, 0, 103, 0
2, 38370, Note_on_c, 0, 67, 0
2, 38370, Note_on_c, 0, 91, 0
2, 38370, Note_on_c, 0, 79, 0
2, 38400, Note_on_c, 0, 100, 0
2, 38400, Note_on_c, 0, 99, 0
2, 38400, Note_on_c, 0, 87, 0
2, 38400, Note_on_c, 0, 75, 0
2, 38400, Note_on_c, 0, 96, 100
2, 38400, Note_on_c, 0, 98, 100
2, 38400, Note_on_c, 0, 60, 100
2, 38400, Note_on_c, 0, 84, 100
2, 38400, Note_on_c, 0, 86, 100
2, 38400, Note_on_c, 0, 108, 100
2, 38400, Note_on_c, 0, 72, 100
2, 38640, Note_on_c, 0, 96, 0
2, 38640, Note_on_c, 0, 98, 0
2, 38640, Note_on_c, 0, 60, 0
2, 38640, Note_on_c, 0, 84, 0
2, 38640, Note_on_c, 0, 86, 0
2, 38640, Note_on_c, 0, 72, 0
2, 38700, Note_on_c, 0, 108, 0
2, 38880, Note_on_c, 0, 96, 100
2, 38880, Note_on_c, 0, 98, 100
2, 38880, Note_on_c, 0, 60, 100
2, 38880, Note_on_c, 0, 84, 100
2, 38880, Note_on_c, 0, 86, 100
2, 38880, Note_on_c, 0, 108, 100
2, 38880, Note_on_c, 0, 72, 100
2, 39120, Note_on_c, 0, 96, 0
2, 39120, Note_on_c, 0, 98, 0
2, 39120, Note_on_c, 0, 60, 0
2, 39120, Note_on_c, 0, 84, 0
2, 39120, Note_on_c, 0, 86, 0
2, 39120, Note_on_c, 0, 72, 0
2, 39180, Note_on_c, 0, 108, 0
2, 39360, Note_on_c, 0, 97, 100
2, 39360, Note_on_c, 0, 99, 100
2, 39360, Note_on_c, 0, 61, 100
2, 39360, Note_on_c, 0, 85, 100
2, 39360, Note_on_c, 0, 87, 100
2, 39360, Note_on_c, 0, 74, 100
2, 39600, Note_on_c, 0, 97, 0
2, 39600, Note_on_c, 0, 99, 0
2, 39600, Note_on_c, 0, 61, 0
2, 39600, Note_on_c, 0, 85, 0
2, 39600, Note_on_c, 0, 87, 0
2, 39600, Note_on_c, 0, 74, 0
2, 39600, Note_on_c, 0, 96, 100
2, 39600, Note_on_c, 0, 98, 100
2, 39600, Note_on_c, 0, 85, 100
2, 39600, Note_on_c, 0, 86, 100
2, 39600, Note_on_c, 0, 73, 100
2, 39840, Note_on_c, 0, 96, 0
2, 39840, Note_on_c, 0, 98, 0
2, 39840, Note_on_c, 0, 85, 0
2, 39840, Note_on_c, 0, 86, 0
2, 39840, Note_on_c, 0, 73, 0
2, 39840, Note_on_c, 0, 97, 100
2, 39840, Note_on_c, 0, 99, 100
2, 39840, Note_on_c, 0, 61, 100
2, 39840, Note_on_c, 0, 85, 100
2, 39840, Note_on_c, 0, 87, 100
2, 39840, Note_on_c, 0, 74, 100
2, 40080, Note_on_c, 0, 61, 0
2, 40320, Note_on_c, 0, 97, 0
2, 40320, Note_on_c, 0, 99, 0
2, 40320, Note_on_c, 0, 85, 0
2, 40320, Note_on_c, 0, 87, 0
2, 40320, Note_on_c, 0, 74, 0
2, 40560, Note_on_c, 0, 97, 100
2, 40560, Note_on_c, 0, 99, 100
2, 40560, Note_on_c, 0, 61, 100
2, 40560, Note_on_c, 0, 85, 100
2, 40560, Note_on_c, 0, 87, 100
2, 40560, Note_on_c, 0, 74, 100
2, 40800, Note_on_c, 0, 97, 0
2, 40800, Note_on_c, 0, 99, 0
2, 40800, Note_on_c, 0, 61, 0
2, 40800, Note_on_c, 0, 85, 0
2, 40800, Note_on_c, 0, 87, 0
2, 40800, Note_on_c, 0, 74, 0
2, 40800, Note_on_c, 0, 97, 100
2, 40800, Note_on_c, 0, 99, 100
2, 40800, Note_on_c, 0, 85, 100
2, 40800, Note_on_c, 0, 87, 100
2, 40800, Note_on_c, 0, 108, 100
2, 40800, Note_on_c, 0, 74, 100
2, 40920, Note_on_c, 0, 108, 0
2, 41040, Note_on_c, 0, 97, 0
2, 41040, Note_on_c, 0, 99, 0
2, 41040, Note_on_c, 0, 85, 0
2, 41040, Note_on_c, 0, 87, 0
2, 41040, Note_on_c, 0, 74, 0
2, 41040, Note_on_c, 0, 96, 100
2, 41040, Note_on_c, 0, 98, 100
2, 41040, Note_on_c, 0, 60, 100
2, 41040, Note_on_c, 0, 85, 100
2, 41040, Note_on_c, 0, 86, 100
2, 41040, Note_on_c, 0, 108, 100
2, 41040, Note_on_c, 0, 73, 100
2, 41160, Note_on_c, 0, 108, 0
2, 41280, Note_on_c, 0, 96, 0
2, 41280, Note_on_c, 0, 98, 0
2, 41280, Note_on_c, 0, 60, 0
2, 41280, Note_on_c, 0, 85, 0
2, 41280, Note_on_c, 0, 86, 0
2, 41280, Note_on_c, 0, 73, 0
2, 41280, Note_on_c, 0, 97, 100
2, 41280, Note_on_c, 0, 99, 100
2, 41280, Note_on_c, 0, 61, 100
2, 41280, Note_on_c, 0, 85, 100
2, 41280, Note_on_c, 0, 87, 100
2, 41280, Note_on_c, 0, 108, 100
2, 41280, Note_on_c, 0, 74, 100
2, 41520, Note_on_c, 0, 97, 0
2, 41520, Note_on_c, 0, 99, 0
2, 41520, Note_on_c, 0, 61, 0
2, 41520, Note_on_c, 0, 85, 0
2, 41520, Note_on_c, 0, 87, 0
2, 41520, Note_on_c, 0, 108, 0
2, 41520, Note_on_c, 0, 74, 0
2, 41640, Note_on_c, 0, 108, 100
2, 41760, Note_on_c, 0, 108, 0
2, 41760, Note_on_c, 0, 98, 100
2, 41760, Note_on_c, 0, 100, 100
2, 41760, Note_on_c, 0, 62, 100
2, 41760, Note_on_c, 0, 86, 100
2, 41760, Note_on_c, 0, 88, 100
2, 41760, Note_on_c, 0, 75, 100
2, 41880, Note_on_c, 0, 108, 100
2, 42000, Note_on_c, 0, 98, 0
2, 42000, Note_on_c, 0, 100, 0
2, 42000, Note_on_c, 0, 62, 0
2, 42000, Note_on_c, 0, 86, 0
2, 42000, Note_on_c, 0, 88, 0
2, 42000, Note_on_c, 0, 75, 0
2, 42120, Note_on_c, 0, 108, 0
2, 42210, Note_on_c, 0, 105, 0
2, 42210, Note_on_c, 0, 93, 0
2, 42210, Note_on_c, 0, 69, 0
2, 42210, Note_on_c, 0, 81, 0
2, 42210, Note_on_c, 0, 106, 100
2, 42210, Note_on_c, 0, 94, 100
2, 42210, Note_on_c, 0, 70, 100
2, 42210, Note_on_c, 0, 82, 100
2, 42240, Note_on_c, 0, 96, 100
2, 42240, Note_on_c, 0, 98, 100
2, 42240, Note_on_c, 0, 60, 100
2, 42240, Note_on_c, 0, 84, 100
2, 42240, Note_on_c, 0, 86, 100
2, 42240, Note_on_c, 0, 72, 100
2, 42480, Note_on_c, 0, 96, 0
2, 42480, Note_on_c, 0, 98, 0
2, 42480, Note_on_c, 0, 60, 0
2, 42480, Note_on_c, 0, 84, 0
2, 42480, Note_on_c, 0, 86, 0
2, 42480, Note_on_c, 0, 72, 0
2, 42720, Note_on_c, 0, 96, 100
2, 42720, Note_on_c, 0, 98, 100
2, 42720, Note_on_c, 0, 60, 100
2, 42720, Note_on_c, 0, 84, 100
2, 42720, Note_on_c, 0, 86, 100
2, 42720, Note_on_c, 0, 72, 100
2, 42960, Note_on_c, 0, 96, 0
2, 42960, Note_on_c, 0, 98, 0
2, 42960, Note_on_c, 0, 60, 0
2, 42960, Note_on_c, 0, 84, 0
2, 42960, Note_on_c, 0, 86, 0
2, 42960, Note_on_c, 0, 72, 0
2, 43200, Note_on_c, 0, 97, 100
2, 43200, Note_on_c, 0, 99, 100
2, 43200, Note_on_c, 0, 61, 100
2, 43200, Note_on_c, 0, 85, 100
2, 43200, Note_on_c, 0, 87, 100
2, 43200, Note_on_c, 0, 74, 100
2, 43440, Note_on_c, 0, 97, 0
2, 43440, Note_on_c, 0, 99, 0
2, 43440, Note_on_c, 0, 61, 0
2, 43440, Note_on_c, 0, 85, 0
2, 43440, Note_on_c, 0, 87, 0
2, 43440, Note_on_c, 0, 74, 0
2, 43440, Note_on_c, 0, 96, 100
2, 43440, Note_on_c, 0, 98, 100
2, 43440, Note_on_c, 0, 85, 100
2, 43440, Note_on_c, 0, 86, 100
2, 43440, Note_on_c, 0, 73, 100
2, 43680, Note_on_c, 0, 96, 0
2, 43680, Note_on_c, 0, 98, 0
2, 43680, Note_on_c, 0, 85, 0
2, 43680, Note_on_c, 0, 86, 0
2, 43680, Note_on_c, 0, 73, 0
2, 43680, Note_on_c, 0, 97, 100
2, 43680, Note_on_c, 0, 99, 100
2, 43680, Note_on_c, 0, 61, 100
2, 43680, Note_on_c, 0, 85, 100
2, 43680, Note_on_c, 0, 87, 100
2, 43680, Note_on_c, 0, 74, 100
2, 43920, Note_on_c, 0, 61, 0
2, 44160, Note_on_c, 0, 97, 0
2, 44160, Note_on_c, 0, 99, 0
2, 44160, Note_on_c, 0, 85, 0
2, 44160, Note_on_c, 0, 87, 0
2, 44160, Note_on_c, 0, 74, 0
2, 44400, Note_on_c, 0, 97, 100
2, 44400, Note_on_c, 0, 99, 100
2, 44400, Note_on_c, 0, 61, 100
2, 44400, Note_on_c, 0, 85, 100
2, 44400, Note_on_c, 0, 87, 100
2, 44400, Note_on_c, 0, 74, 100
2, 44640, Note_on_c, 0, 97, 0
2, 44640, Note_on_c, 0, 99, 0
2, 44640, Note_on_c, 0, 61, 0
2, 44640, Note_on_c, 0, 85, 0
2, 44640, Note_on_c, 0, 87, 0
2, 44640, Note_on_c, 0, 74, 0
2, 44640, Note_on_c, 0, 97, 100
2, 44640, Note_on_c, 0, 99, 100
2, 44640, Note_on_c, 0, 85, 100
2, 44640, Note_on_c, 0, 87, 100
2, 44640, Note_on_c, 0, 74, 100
2, 44880, Note_on_c, 0, 97, 0
2, 44880, Note_on_c, 0, 99, 0
2, 44880, Note_on_c, 0, 85, 0
2, 44880, Note_on_c, 0, 87, 0
2, 44880, Note_on_c, 0, 74, 0
2, 44880, Note_on_c, 0, 96, 100
2, 44880, Note_on_c, 0, 98, 100
2, 44880, Note_on_c, 0, 60, 100
2, 44880, Note_on_c, 0, 85, 100
2, 44880, Note_on_c, 0, 86, 100
2, 44880, Note_on_c, 0, 73, 100
2, 45120, Note_on_c, 0, 96, 0
2, 45120, Note_on_c, 0, 98, 0
2, 45120, Note_on_c, 0, 60, 0
2, 45120, Note_on_c, 0, 85, 0
2, 45120, Note_on_c, 0, 86, 0
2, 45120, Note_on_c, 0, 73, 0
2, 45120, Note_on_c, 0, 97, 100
2, 45120, Note_on_c, 0, 99, 100
2, 45120, Note_on_c, 0, 61, 100
2, 45120, Note_on_c, 0, 85, 100
2, 45120, Note_on_c, 0, 87, 100
2, 45120, Note_on_c, 0, 74, 100
2, 45360, Note_on_c, 0, 97, 0
2, 45360, Note_on_c, 0, 99, 0
2, 45360, Note_on_c, 0, 61, 0
2, 45360, Note_on_c, 0, 85, 0
2, 45360, Note_on_c, 0, 87, 0
2, 45360, Note_on_c, 0, 74, 0
2, 45600, Note_on_c, 0, 98, 100
2, 45600, Note_on_c, 0, 100, 100
2, 45600, Note_on_c, 0, 62, 100
2, 45600, Note_on_c, 0, 86, 100
2, 45600, Note_on_c, 0, 88, 100
2, 45600, Note_on_c, 0, 108, 100
2, 45600, Note_on_c, 0, 75, 100
2, 45840, Note_on_c, 0, 98, 0
2, 45840, Note_on_c, 0, 100, 0
2, 45840, Note_on_c, 0, 62, 0
2, 45840, Note_on_c, 0, 86, 0
2, 45840, Note_on_c, 0, 88, 0
2, 45840, Note_on_c, 0, 75, 0
2, 45960, Note_on_c, 0, 108, 0
2, 46050, Note_on_c, 0, 106, 0
2, 46050, Note_on_c, 0, 94, 0
2, 46050, Note_on_c, 0, 70, 0
2, 46050, Note_on_c, 0, 82, 0
2, 46050, Note_on_c, 0, 105, 100
2, 46050, Note_on_c, 0, 93, 100
2, 46050, Note_on_c, 0, 69, 100
2, 46050, Note_on_c, 0, 81, 100
2, 46080, Note_on_c, 0, 96, 100
2, 46080, Note_on_c, 0, 98, 100
2, 46080, Note_on_c, 0, 60, 100
2, 46080, Note_on_c, 0, 84, 100
2, 46080, Note_on_c, 0, 86, 100
2, 46080, Note_on_c, 0, 108, 100
2, 46080, Note_on_c, 0, 72, 100
2, 46320, Note_on_c, 0, 96, 0
2, 46320, Note_on_c, 0, 98, 0
2, 46320, Note_on_c, 0, 60, 0
2, 46320, Note_on_c, 0, 84, 0
2, 46320, Note_on_c, 0, 86, 0
2, 46320, Note_on_c, 0, 108, 0
2, 46320, Note_on_c, 0, 72, 0
2, 46560, Note_on_c, 0, 96, 100
2, 46560, Note_on_c, 0, 98, 100
2, 46560, Note_on_c, 0, 60, 100
2, 46560, Note_on_c, 0, 84, 100
2, 46560, Note_on_c, 0, 86, 100
2, 46560, Note_on_c, 0, 108, 100
2, 46560, Note_on_c, 0, 72, 100
2, 46800, Note_on_c, 0, 96, 0
2, 46800, Note_on_c, 0, 98, 0
2, 46800, Note_on_c, 0, 60, 0
2, 46800, Note_on_c, 0, 84, 0
2, 46800, Note_on_c, 0, 86, 0
2, 46800, Note_on_c, 0, 108, 0
2, 46800, Note_on_c, 0, 72, 0
2, 47040, Note_on_c, 0, 97, 100
2, 47040, Note_on_c, 0, 99, 100
2, 47040, Note_on_c, 0, 61, 100
2, 47040, Note_on_c, 0, 85, 100
2, 47040, Note_on_c, 0, 87, 100
2, 47040, Note_on_c, 0, 108, 100
2, 47040, Note_on_c, 0, 74, 100
2, 47220, Note_on_c, 0, 108, 0
2, 47280, Note_on_c, 0, 97, 0
2, 47280, Note_on_c, 0, 99, 0
2, 47280, Note_on_c, 0, 61, 0
2, 47280, Note_on_c, 0, 85, 0
2, 47280, Note_on_c, 0, 87, 0
2, 47280, Note_on_c, 0, 74, 0
2, 47280, Note_on_c, 0, 96, 100
2, 47280, Note_on_c, 0, 98, 100
2, 47280, Note_on_c, 0, 85, 100
2, 47280, Note_on_c, 0, 86, 100
2, 47280, Note_on_c, 0, 108, 100
2, 47280, Note_on_c, 0, 73, 100
2, 47460, Note_on_c, 0, 108, 0
2, 47520, Note_on_c, 0, 96, 0
2, 47520, Note_on_c, 0, 98, 0
2, 47520, Note_on_c, 0, 85, 0
2, 47520, Note_on_c, 0, 86, 0
2, 47520, Note_on_c, 0, 73, 0
2, 47520, Note_on_c, 0, 97, 100
2, 47520, Note_on_c, 0, 99, 100
2, 47520, Note_on_c, 0, 61, 100
2, 47520, Note_on_c, 0, 85, 100
2, 47520, Note_on_c, 0, 87, 100
2, 47520, Note_on_c, 0, 108, 100
2, 47520, Note_on_c, 0, 74, 100
2, 47700, Note_on_c, 0, 108, 0
2, 47760, Note_on_c, 0, 61, 0
2, 47760, Note_on_c, 0, 108, 100
2, 48000, Note_on_c, 0, 97, 0
2, 48000, Note_on_c, 0, 99, 0
2, 48000, Note_on_c, 0, 85, 0
2, 48000, Note_on_c, 0, 87, 0
2, 48000, Note_on_c, 0, 74, 0
2, 48120, Note_on_c, 0, 108, 0
2, 48240, Note_on_c, 0, 97, 100
2, 48240, Note_on_c, 0, 99, 100
2, 48240, Note_on_c, 0, 61, 100
2, 48240, Note_on_c, 0, 85, 100
2, 48240, Note_on_c, 0, 87, 100
2, 48240, Note_on_c, 0, 108, 100
2, 48240, Note_on_c, 0, 74, 100
2, 48480, Note_on_c, 0, 97, 0
2, 48480, Note_on_c, 0, 99, 0
2, 48480, Note_on_c, 0, 61, 0
2, 48480, Note_on_c, 0, 85, 0
2, 48480, Note_on_c, 0, 87, 0
2, 48480, Note_on_c, 0, 74, 0
2, 48480, Note_on_c, 0, 97, 100
2, 48480, Note_on_c, 0, 99, 100
2, 48480, Note_on_c, 0, 85, 100
2, 48480, Note_on_c, 0, 87, 100
2, 48480, Note_on_c, 0, 74, 100
2, 48540, Note_on_c, 0, 108, 0
2, 48720, Note_on_c, 0, 97, 0
2, 48720, Note_on_c, 0, 99, 0
2, 48720, Note_on_c, 0, 85, 0
2, 48720, Note_on_c, 0, 87, 0
2, 48720, Note_on_c, 0, 74, 0
2, 48720, Note_on_c, 0, 96, 100
2, 48720, Note_on_c, 0, 98, 100
2, 48720, Note_on_c, 0, 60, 100
2, 48720, Note_on_c, 0, 85, 100
2, 48720, Note_on_c, 0, 86, 100
2, 48720, Note_on_c, 0, 73, 100
2, 48960, Note_on_c, 0, 96, 0
2, 48960, Note_on_c, 0, 98, 0
2, 48960, Note_on_c, 0, 60, 0
2, 48960, Note_on_c, 0, 85, 0
2, 48960, Note_on_c, 0, 86, 0
2, 48960, Note_on_c, 0, 73, 0
2, 48960, Note_on_c, 0, 97, 100
2, 48960, Note_on_c, 0, 99, 100
2, 48960, Note_on_c, 0, 61, 100
2, 48960, Note_on_c, 0, 85, 100
2, 48960, Note_on_c, 0, 87, 100
2, 48960, Note_on_c, 0, 108, 100
2, 48960, Note_on_c, 0, 74, 100
2, 49200, Note_on_c, 0, 97, 0
2, 49200, Note_on_c, 0, 99, 0
2, 49200, Note_on_c, 0, 61, 0
2, 49200, Note_on_c, 0, 85, 0
2, 49200, Note_on_c, 0, 87, 0
2, 49200, Note_on_c, 0, 74, 0
2, 49260, Note_on_c, 0, 108, 0
2, 49440, Note_on_c, 0, 98, 100
2, 49440, Note_on_c, 0, 100, 100
2, 49440, Note_on_c, 0, 62, 100
2, 49440, Note_on_c, 0, 86, 100
2, 49440, Note_on_c, 0, 88, 100
2, 49440, Note_on_c, 0, 108, 100
2, 49440, Note_on_c, 0, 75, 100
2, 49620, Note_on_c, 0, 108, 0
2, 49680, Note_on_c, 0, 98, 0
2, 49680, Note_on_c, 0, 100, 0
2, 49680, Note_on_c, 0, 62, 0
2, 49680, Note_on_c, 0, 86, 0
2, 49680, Note_on_c, 0, 88, 0
2, 49680, Note_on_c, 0, 75, 0
2, 49680, Note_on_c, 0, 108, 100
2, 49890, Note_on_c, 0, 105, 0
2, 49890, Note_on_c, 0, 93, 0
2, 49890, Note_on_c, 0, 69, 0
2, 49890, Note_on_c, 0, 81, 0
2, 49890, Note_on_c, 0, 106, 100
2, 49890, Note_on_c, 0, 94, 100
2, 49890, Note_on_c, 0, 70, 100
2, 49890, Note_on_c, 0, 82, 100
2, 49920, Note_on_c, 0, 96, 100
2, 49920, Note_on_c, 0, 98, 100
2, 49920, Note_on_c, 0, 60, 100
2, 49920, Note_on_c, 0, 84, 100
2, 49920, Note_on_c, 0, 86, 100
2, 49920, Note_on_c, 0, 72, 100
2, 50160, Note_on_c, 0, 96, 0
2, 50160, Note_on_c, 0, 98, 0
2, 50160, Note_on_c, 0, 60, 0
2, 50160, Note_on_c, 0, 84, 0
2, 50160, Note_on_c, 0, 86, 0
2, 50160, Note_on_c, 0, 72, 0
2, 50400, Note_on_c, 0, 96, 100
2, 50400, Note_on_c, 0, 98, 100
2, 50400, Note_on_c, 0, 60, 100
2, 50400, Note_on_c, 0, 84, 100
2, 50400, Note_on_c, 0, 86, 100
2, 50400, Note_on_c, 0, 72, 100
2, 50640, Note_on_c, 0, 108, 0
2, 50640, Note_on_c, 0, 96, 0
2, 50640, Note_on_c, 0, 98, 0
2, 50640, Note_on_c, 0, 60, 0
2, 50640, Note_on_c, 0, 84, 0
2, 50640, Note_on_c, 0, 86, 0
2, 50640, Note_on_c, 0, 72, 0
2, 50880, Note_on_c, 0, 97, 100
2, 50880, Note_on_c, 0, 99, 100
2, 50880, Note_on_c, 0, 61, 100
2, 50880, Note_on_c, 0, 85, 100
2, 50880, Note_on_c, 0, 87, 100
2, 50880, Note_on_c, 0, 74, 100
2, 51120, Note_on_c, 0, 97, 0
2, 51120, Note_on_c, 0, 99, 0
2, 51120, Note_on_c, 0, 61, 0
2, 51120, Note_on_c, 0, 85, 0
2, 51120, Note_on_c, 0, 87, 0
2, 51120, Note_on_c, 0, 74, 0
2, 51120, Note_on_c, 0, 96, 100
2, 51120, Note_on_c, 0, 98, 100
2, 51120, Note_on_c, 0, 85, 100
2, 51120, Note_on_c, 0, 86, 100
2, 51120, Note_on_c, 0, 73, 100
2, 51360, Note_on_c, 0, 96, 0
2, 51360, Note_on_c, 0, 98, 0
2, 51360, Note_on_c, 0, 85, 0
2, 51360, Note_on_c, 0, 86, 0
2, 51360, Note_on_c, 0, 73, 0
2, 51360, Note_on_c, 0, 97, 100
2, 51360, Note_on_c, 0, 99, 100
2, 51360, Note_on_c, 0, 61, 100
2, 51360, Note_on_c, 0, 85, 100
2, 51360, Note_on_c, 0, 87, 100
2, 51360, Note_on_c, 0, 74, 100
2, 51600, Note_on_c, 0, 97, 0
2, 51600, Note_on_c, 0, 99, 0
2, 51600, Note_on_c, 0, 61, 0
2, 51600, Note_on_c, 0, 85, 0
2, 51600, Note_on_c, 0, 87, 0
2, 51810, Note_on_c, 0, 103, 100
2, 51810, Note_on_c, 0, 91, 100
2, 51810, Note_on_c, 0, 79, 100
2, 51810, Note_on_c, 0, 67, 100
2, 51810, Note_on_c, 0, 69, 100
2, 51810, Note_on_c, 0, 105, 100
2, 51810, Note_on_c, 0, 93, 100
2, 51810, Note_on_c, 0, 81, 100
2, 51840, Note_on_c, 0, 74, 0
2, 51840, Note_on_c, 0, 61, 100
2, 51840, Note_on_c, 0, 97, 100
2, 51840, Note_on_c, 0, 73, 100
2, 51840, Note_on_c, 0, 85, 100
2, 52080, Note_on_c, 0, 61, 0
2, 52080, Note_on_c, 0, 97, 0
2, 52080, Note_on_c, 0, 73, 0
2, 52080, Note_on_c, 0, 85, 0
2, 52080, Note_on_c, 0, 99, 100
2, 52080, Note_on_c, 0, 62, 100
2, 52080, Note_on_c, 0, 75, 100
2, 52080, Note_on_c, 0, 87, 100
2, 52800, Note_on_c, 0, 108, 100
2, 53640, Note_on_c, 0, 108, 0
2, 53730, Note_on_c, 0, 103, 0
2, 53730, Note_on_c, 0, 91, 0
2, 53730, Note_on_c, 0, 79, 0
2, 53730, Note_on_c, 0, 67, 0
2, 53760, Note_on_c, 0, 99, 0
2, 53760, Note_on_c, 0, 62, 0
2, 53760, Note_on_c, 0, 75, 0
2, 53760, Note_on_c, 0, 87, 0
2, 53760, Note_on_c, 0, 96, 100
2, 53760, Note_on_c, 0, 84, 100
2, 53760, Note_on_c, 0, 60, 100
2, 53760, Note_on_c, 0, 72, 100
2, 53760, Note_on_c, 0, 108, 100
2, 54000, Note_on_c, 0, 96, 0
2, 54000, Note_on_c, 0, 84, 0
2, 54000, Note_on_c, 0, 60, 0
2, 54000, Note_on_c, 0, 72, 0
2, 54240, Note_on_c, 0, 98, 100
2, 54240, Note_on_c, 0, 86, 100
2, 54240, Note_on_c, 0, 62, 100
2, 54240, Note_on_c, 0, 74, 100
2, 54480, Note_on_c, 0, 98, 0
2, 54480, Note_on_c, 0, 86, 0
2, 54480, Note_on_c, 0, 62, 0
2, 54480, Note_on_c, 0, 74, 0
2, 54660, Note_on_c, 0, 108, 0
2, 54720, Note_on_c, 0, 96, 100
2, 54720, Note_on_c, 0, 84, 100
2, 54720, Note_on_c, 0, 60, 100
2, 54720, Note_on_c, 0, 72, 100
2, 54960, Note_on_c, 0, 96, 0
2, 54960, Note_on_c, 0, 84, 0
2, 54960, Note_on_c, 0, 60, 0
2, 54960, Note_on_c, 0, 72, 0
2, 54960, Note_on_c, 0, 97, 100
2, 54960, Note_on_c, 0, 85, 100
2, 55200, Note_on_c, 0, 97, 0
2, 55200, Note_on_c, 0, 85, 0
2, 55200, Note_on_c, 0, 98, 100
2, 55200, Note_on_c, 0, 86, 100
2, 55200, Note_on_c, 0, 73, 100
2, 55440, Note_on_c, 0, 98, 0
2, 55440, Note_on_c, 0, 86, 0
2, 55440, Note_on_c, 0, 73, 0
2, 55440, Note_on_c, 0, 99, 100
2, 55440, Note_on_c, 0, 87, 100
2, 55440, Note_on_c, 0, 61, 100
2, 55680, Note_on_c, 0, 99, 0
2, 55680, Note_on_c, 0, 87, 0
2, 55680, Note_on_c, 0, 61, 0
2, 55920, Note_on_c, 0, 99, 100
2, 55920, Note_on_c, 0, 87, 100
2, 55920, Note_on_c, 0, 61, 100
2, 55920, Note_on_c, 0, 74, 100
2, 56160, Note_on_c, 0, 99, 0
2, 56160, Note_on_c, 0, 87, 0
2, 56160, Note_on_c, 0, 61, 0
2, 56160, Note_on_c, 0, 74, 0
2, 56160, Note_on_c, 0, 99, 100
2, 56160, Note_on_c, 0, 87, 100
2, 56160, Note_on_c, 0, 74, 100
2, 56160, Note_on_c, 0, 108, 100
2, 56160, Note_on_c, 0, 61, 100
2, 56400, Note_on_c, 0, 99, 0
2, 56400, Note_on_c, 0, 87, 0
2, 56400, Note_on_c, 0, 74, 0
2, 56400, Note_on_c, 0, 61, 0
2, 56400, Note_on_c, 0, 99, 100
2, 56400, Note_on_c, 0, 87, 100
2, 56400, Note_on_c, 0, 74, 100
2, 56520, Note_on_c, 0, 108, 0
2, 56640, Note_on_c, 0, 99, 0
2, 56640, Note_on_c, 0, 87, 0
2, 56640, Note_on_c, 0, 74, 0
2, 56640, Note_on_c, 0, 99, 100
2, 56640, Note_on_c, 0, 87, 100
2, 56640, Note_on_c, 0, 61, 100
2, 56640, Note_on_c, 0, 74, 100
2, 56640, Note_on_c, 0, 108, 100
2, 56880, Note_on_c, 0, 99, 0
2, 56880, Note_on_c, 0, 87, 0
2, 56880, Note_on_c, 0, 61, 0
2, 56880, Note_on_c, 0, 74, 0
2, 56880, Note_on_c, 0, 99, 100
2, 56880, Note_on_c, 0, 100, 100
2, 56880, Note_on_c, 0, 88, 100
2, 56880, Note_on_c, 0, 87, 100
2, 56880, Note_on_c, 0, 75, 100
2, 56880, Note_on_c, 0, 62, 100
2, 56880, Note_on_c, 0, 74, 100
2, 57000, Note_on_c, 0, 108, 0
2, 57120, Note_on_c, 0, 99, 0
2, 57120, Note_on_c, 0, 100, 0
2, 57120, Note_on_c, 0, 88, 0
2, 57120, Note_on_c, 0, 87, 0
2, 57120, Note_on_c, 0, 75, 0
2, 57120, Note_on_c, 0, 62, 0
2, 57120, Note_on_c, 0, 74, 0
2, 57120, Note_on_c, 0, 99, 100
2, 57120, Note_on_c, 0, 100, 100
2, 57120, Note_on_c, 0, 88, 100
2, 57120, Note_on_c, 0, 87, 100
2, 57120, Note_on_c, 0, 62, 100
2, 57120, Note_on_c, 0, 75, 100
2, 57120, Note_on_c, 0, 108, 100
2, 57120, Note_on_c, 0, 74, 100
2, 57300, Note_on_c, 0, 108, 0
2, 57360, Note_on_c, 0, 99, 0
2, 57360, Note_on_c, 0, 100, 0
2, 57360, Note_on_c, 0, 88, 0
2, 57360, Note_on_c, 0, 87, 0
2, 57360, Note_on_c, 0, 62, 0
2, 57360, Note_on_c, 0, 75, 0
2, 57360, Note_on_c, 0, 74, 0
2, 57360, Note_on_c, 0, 99, 100
2, 57360, Note_on_c, 0, 100, 100
2, 57360, Note_on_c, 0, 88, 100
2, 57360, Note_on_c, 0, 87, 100
2, 57360, Note_on_c, 0, 75, 100
2, 57360, Note_on_c, 0, 108, 100
2, 57360, Note_on_c, 0, 74, 100
2, 57570, Note_on_c, 0, 103, 100
2, 57570, Note_on_c, 0, 91, 100
2, 57570, Note_on_c, 0, 67, 100
2, 57570, Note_on_c, 0, 79, 100
2, 57600, Note_on_c, 0, 99, 0
2, 57600, Note_on_c, 0, 100, 0
2, 57600, Note_on_c, 0, 88, 0
2, 57600, Note_on_c, 0, 87, 0
2, 57600, Note_on_c, 0, 75, 0
2, 57600, Note_on_c, 0, 74, 0
2, 57600, Note_on_c, 0, 96, 100
2, 57600, Note_on_c, 0, 84, 100
2, 57600, Note_on_c, 0, 60, 100
2, 57600, Note_on_c, 0, 72, 100
2, 57840, Note_on_c, 0, 108, 0
2, 57840, Note_on_c, 0, 96, 0
2, 57840, Note_on_c, 0, 84, 0
2, 57840, Note_on_c, 0, 60, 0
2, 57840, Note_on_c, 0, 72, 0
2, 58080, Note_on_c, 0, 98, 100
2, 58080, Note_on_c, 0, 86, 100
2, 58080, Note_on_c, 0, 62, 100
2, 58080, Note_on_c, 0, 74, 100
2, 58320, Note_on_c, 0, 98, 0
2, 58320, Note_on_c, 0, 86, 0
2, 58320, Note_on_c, 0, 62, 0
2, 58320, Note_on_c, 0, 74, 0
2, 58560, Note_on_c, 0, 96, 100
2, 58560, Note_on_c, 0, 84, 100
2, 58560, Note_on_c, 0, 60, 100
2, 58560, Note_on_c, 0, 72, 100
2, 58800, Note_on_c, 0, 96, 0
2, 58800, Note_on_c, 0, 84, 0
2, 58800, Note_on_c, 0, 60, 0
2, 58800, Note_on_c, 0, 72, 0
2, 58800, Note_on_c, 0, 97, 100
2, 58800, Note_on_c, 0, 85, 100
2, 59040, Note_on_c, 0, 97, 0
2, 59040, Note_on_c, 0, 85, 0
2, 59040, Note_on_c, 0, 98, 100
2, 59040, Note_on_c, 0, 86, 100
2, 59040, Note_on_c, 0, 73, 100
2, 59280, Note_on_c, 0, 98, 0
2, 59280, Note_on_c, 0, 86, 0
2, 59280, Note_on_c, 0, 73, 0
2, 59280, Note_on_c, 0, 99, 100
2, 59280, Note_on_c, 0, 87, 100
2, 59280, Note_on_c, 0, 61, 100
2, 59490, Note_on_c, 0, 103, 0
2, 59490, Note_on_c, 0, 91, 0
2, 59490, Note_on_c, 0, 67, 0
2, 59490, Note_on_c, 0, 79, 0
2, 59520, Note_on_c, 0, 99, 0
2, 59520, Note_on_c, 0, 87, 0
2, 59520, Note_on_c, 0, 61, 0
2, 59760, Note_on_c, 0, 99, 100
2, 59760, Note_on_c, 0, 100, 100
2, 59760, Note_on_c, 0, 88, 100
2, 59760, Note_on_c, 0, 87, 100
2, 59760, Note_on_c, 0, 75, 100
2, 59760, Note_on_c, 0, 62, 100
2, 59760, Note_on_c, 0, 74, 100
2, 60000, Note_on_c, 0, 99, 0
2, 60000, Note_on_c, 0, 100, 0
2, 60000, Note_on_c, 0, 88, 0
2, 60000, Note_on_c, 0, 87, 0
2, 60000, Note_on_c, 0, 75, 0
2, 60000, Note_on_c, 0, 62, 0
2, 60000, Note_on_c, 0, 74, 0
2, 60000, Note_on_c, 0, 99, 100
2, 60000, Note_on_c, 0, 100, 100
2, 60000, Note_on_c, 0, 88, 100
2, 60000, Note_on_c, 0, 87, 100
2, 60000, Note_on_c, 0, 75, 100
2, 60000, Note_on_c, 0, 62, 100
2, 60000, Note_on_c, 0, 74, 100
2, 60240, Note_on_c, 0, 99, 0
2, 60240, Note_on_c, 0, 100, 0
2, 60240, Note_on_c, 0, 88, 0
2, 60240, Note_on_c, 0, 87, 0
2, 60240, Note_on_c, 0, 75, 0
2, 60240, Note_on_c, 0, 62, 0
2, 60240, Note_on_c, 0, 74, 0
2, 60240, Note_on_c, 0, 99, 100
2, 60240, Note_on_c, 0, 100, 100
2, 60240, Note_on_c, 0, 88, 100
2, 60240, Note_on_c, 0, 87, 100
2, 60240, Note_on_c, 0, 75, 100
2, 60240, Note_on_c, 0, 74, 100
2, 60480, Note_on_c, 0, 99, 0
2, 60480, Note_on_c, 0, 100, 0
2, 60480, Note_on_c, 0, 88, 0
2, 60480, Note_on_c, 0, 87, 0
2, 60480, Note_on_c, 0, 75, 0
2, 60480, Note_on_c, 0, 74, 0
2, 60480, Note_on_c, 0, 99, 100
2, 60480, Note_on_c, 0, 100, 100
2, 60480, Note_on_c, 0, 88, 100
2, 60480, Note_on_c, 0, 87, 100
2, 60480, Note_on_c, 0, 75, 100
2, 60480, Note_on_c, 0, 108, 100
2, 60480, Note_on_c, 0, 62, 100
2, 60480, Note_on_c, 0, 74, 100
2, 60720, Note_on_c, 0, 99, 0
2, 60720, Note_on_c, 0, 100, 0
2, 60720, Note_on_c, 0, 88, 0
2, 60720, Note_on_c, 0, 87, 0
2, 60720, Note_on_c, 0, 75, 0
2, 60720, Note_on_c, 0, 62, 0
2, 60720, Note_on_c, 0, 74, 0
2, 60720, Note_on_c, 0, 99, 100
2, 60720, Note_on_c, 0, 100, 100
2, 60720, Note_on_c, 0, 88, 100
2, 60720, Note_on_c, 0, 87, 100
2, 60720, Note_on_c, 0, 75, 100
2, 60720, Note_on_c, 0, 74, 100
2, 60960, Note_on_c, 0, 99, 0
2, 60960, Note_on_c, 0, 100, 0
2, 60960, Note_on_c, 0, 88, 0
2, 60960, Note_on_c, 0, 87, 0
2, 60960, Note_on_c, 0, 75, 0
2, 60960, Note_on_c, 0, 74, 0
2, 60960, Note_on_c, 0, 99, 100
2, 60960, Note_on_c, 0, 100, 100
2, 60960, Note_on_c, 0, 88, 100
2, 60960, Note_on_c, 0, 87, 100
2, 60960, Note_on_c, 0, 75, 100
2, 60960, Note_on_c, 0, 62, 100
2, 60960, Note_on_c, 0, 74, 100
2, 61200, Note_on_c, 0, 99, 0
2, 61200, Note_on_c, 0, 100, 0
2, 61200, Note_on_c, 0, 88, 0
2, 61200, Note_on_c, 0, 87, 0
2, 61200, Note_on_c, 0, 75, 0
2, 61200, Note_on_c, 0, 62, 0
2, 61200, Note_on_c, 0, 74, 0
2, 61200, Note_on_c, 0, 99, 100
2, 61200, Note_on_c, 0, 100, 100
2, 61200, Note_on_c, 0, 88, 100
2, 61200, Note_on_c, 0, 87, 100
2, 61200, Note_on_c, 0, 75, 100
2, 61200, Note_on_c, 0, 74, 100
2, 61320, Note_on_c, 0, 108, 0
2, 61410, Text_t, "[chorus]"
2, 61410, Text_t, "[lighting (sweep)]"
2, 61440, Note_on_c, 0, 99, 0
2, 61440, Note_on_c, 0, 100, 0
2, 61440, Note_on_c, 0, 88, 0
2, 61440, Note_on_c, 0, 87, 0
2, 61440, Note_on_c, 0, 75, 0
2, 61440, Note_on_c, 0, 74, 0
2, 61440, Note_on_c, 0, 96, 100
2, 61440, Note_on_c, 0, 84, 100
2, 61440, Note_on_c, 0, 60, 100
2, 61440, Note_on_c, 0, 72, 100
2, 61440, Note_on_c, 0, 108, 100
2, 61680, Note_on_c, 0, 96, 0
2, 61680, Note_on_c, 0, 84, 0
2, 61680, Note_on_c, 0, 60, 0
2, 61680, Note_on_c, 0, 72, 0
2, 61920, Note_on_c, 0, 98, 100
2, 61920, Note_on_c, 0, 86, 100
2, 61920, Note_on_c, 0, 62, 100
2, 61920, Note_on_c, 0, 74, 100
2, 62160, Note_on_c, 0, 98, 0
2, 62160, Note_on_c, 0, 86, 0
2, 62160, Note_on_c, 0, 62, 0
2, 62160, Note_on_c, 0, 74, 0
2, 62340, Note_on_c, 0, 108, 0
2, 62400, Note_on_c, 0, 96, 100
2, 62400, Note_on_c, 0, 84, 100
2, 62400, Note_on_c, 0, 60, 100
2, 62400, Note_on_c, 0, 72, 100
2, 62640, Note_on_c, 0, 96, 0
2, 62640, Note_on_c, 0, 84, 0
2, 62640, Note_on_c, 0, 60, 0
2, 62640, Note_on_c, 0, 72, 0
2, 62640, Note_on_c, 0, 97, 100
2, 62640, Note_on_c, 0, 85, 100
2, 62880, Note_on_c, 0, 97, 0
2, 62880, Note_on_c, 0, 85, 0
2, 62880, Note_on_c, 0, 98, 100
2, 62880, Note_on_c, 0, 86, 100
2, 62880, Note_on_c, 0, 73, 100
2, 63120, Note_on_c, 0, 98, 0
2, 63120, Note_on_c, 0, 86, 0
2, 63120, Note_on_c, 0, 73, 0
2, 63120, Note_on_c, 0, 99, 100
2, 63120, Note_on_c, 0, 87, 100
2, 63120, Note_on_c, 0, 61, 100
2, 63360, Note_on_c, 0, 99, 0
2, 63360, Note_on_c, 0, 87, 0
2, 63360, Note_on_c, 0, 61, 0
2, 63600, Note_on_c, 0, 99, 100
2, 63600, Note_on_c, 0, 87, 100
2, 63600, Note_on_c, 0, 61, 100
2, 63600, Note_on_c, 0, 74, 100
2, 63840, Note_on_c, 0, 99, 0
2, 63840, Note_on_c, 0, 87, 0
2, 63840, Note_on_c, 0, 61, 0
2, 63840, Note_on_c, 0, 74, 0
2, 63840, Note_on_c, 0, 99, 100
2, 63840, Note_on_c, 0, 87, 100
2, 63840, Note_on_c, 0, 61, 100
2, 63840, Note_on_c, 0, 74, 100
2, 63840, Note_on_c, 0, 108, 100
2, 64080, Note_on_c, 0, 99, 0
2, 64080, Note_on_c, 0, 87, 0
2, 64080, Note_on_c, 0, 61, 0
2, 64080, Note_on_c, 0, 74, 0
2, 64080, Note_on_c, 0, 99, 100
2, 64080, Note_on_c, 0, 87, 100
2, 64080, Note_on_c, 0, 74, 100
2, 64200, Note_on_c, 0, 108, 0
2, 64320, Note_on_c, 0, 99, 0
2, 64320, Note_on_c, 0, 87, 0
2, 64320, Note_on_c, 0, 74, 0
2, 64320, Note_on_c, 0, 99, 100
2, 64320, Note_on_c, 0, 87, 100
2, 64320, Note_on_c, 0, 61, 100
2, 64320, Note_on_c, 0, 74, 100
2, 64320, Note_on_c, 0, 108, 100
2, 64560, Note_on_c, 0, 99, 0
2, 64560, Note_on_c, 0, 87, 0
2, 64560, Note_on_c, 0, 61, 0
2, 64560, Note_on_c, 0, 74, 0
2, 64560, Note_on_c, 0, 100, 100
2, 64560, Note_on_c, 0, 88, 100
2, 64560, Note_on_c, 0, 62, 100
2, 64560, Note_on_c, 0, 75, 100
2, 64680, Note_on_c, 0, 108, 0
2, 64800, Note_on_c, 0, 100, 0
2, 64800, Note_on_c, 0, 88, 0
2, 64800, Note_on_c, 0, 62, 0
2, 64800, Note_on_c, 0, 75, 0
2, 64800, Note_on_c, 0, 100, 100
2, 64800, Note_on_c, 0, 88, 100
2, 64800, Note_on_c, 0, 62, 100
2, 64800, Note_on_c, 0, 75, 100
2, 64800, Note_on_c, 0, 108, 100
2, 64980, Note_on_c, 0, 108, 0
2, 65040, Note_on_c, 0, 100, 0
2, 65040, Note_on_c, 0, 88, 0
2, 65040, Note_on_c, 0, 62, 0
2, 65040, Note_on_c, 0, 75, 0
2, 65040, Note_on_c, 0, 100, 100
2, 65040, Note_on_c, 0, 88, 100
2, 65040, Note_on_c, 0, 75, 100
2, 65040, Note_on_c, 0, 108, 100
2, 65280, Note_on_c, 0, 100, 0
2, 65280, Note_on_c, 0, 88, 0
2, 65280, Note_on_c, 0, 75, 0
2, 65280, Note_on_c, 0, 96, 100
2, 65280, Note_on_c, 0, 84, 100
2, 65280, Note_on_c, 0, 60, 100
2, 65280, Note_on_c, 0, 72, 100
2, 65520, Note_on_c, 0, 96, 0
2, 65520, Note_on_c, 0, 84, 0
2, 65520, Note_on_c, 0, 60, 0
2, 65520, Note_on_c, 0, 72, 0
2, 65580, Note_on_c, 0, 108, 0
2, 65760, Note_on_c, 0, 98, 100
2, 65760, Note_on_c, 0, 86, 100
2, 65760, Note_on_c, 0, 62, 100
2, 65760, Note_on_c, 0, 74, 100
2, 66000, Note_on_c, 0, 98, 0
2, 66000, Note_on_c, 0, 86, 0
2, 66000, Note_on_c, 0, 62, 0
2, 66000, Note_on_c, 0, 74, 0
2, 66240, Note_on_c, 0, 96, 100
2, 66240, Note_on_c, 0, 84, 100
2, 66240, Note_on_c, 0, 60, 100
2, 66240, Note_on_c, 0, 72, 100
2, 66480, Note_on_c, 0, 96, 0
2, 66480, Note_on_c, 0, 84, 0
2, 66480, Note_on_c, 0, 60, 0
2, 66480, Note_on_c, 0, 72, 0
2, 66480, Note_on_c, 0, 97, 100
2, 66480, Note_on_c, 0, 85, 100
2, 66720, Note_on_c, 0, 97, 0
2, 66720, Note_on_c, 0, 85, 0
2, 66720, Note_on_c, 0, 98, 100
2, 66720, Note_on_c, 0, 86, 100
2, 66720, Note_on_c, 0, 73, 100
2, 66960, Note_on_c, 0, 98, 0
2, 66960, Note_on_c, 0, 86, 0
2, 66960, Note_on_c, 0, 73, 0
2, 66960, Note_on_c, 0, 99, 100
2, 66960, Note_on_c, 0, 87, 100
2, 66960, Note_on_c, 0, 61, 100
2, 67200, Note_on_c, 0, 99, 0
2, 67200, Note_on_c, 0, 87, 0
2, 67200, Note_on_c, 0, 61, 0
2, 67440, Note_on_c, 0, 99, 100
2, 67440, Note_on_c, 0, 100, 100
2, 67440, Note_on_c, 0, 88, 100
2, 67440, Note_on_c, 0, 87, 100
2, 67440, Note_on_c, 0, 62, 100
2, 67440, Note_on_c, 0, 75, 100
2, 67440, Note_on_c, 0, 74, 100
2, 67680, Note_on_c, 0, 99, 0
2, 67680, Note_on_c, 0, 100, 0
2, 67680, Note_on_c, 0, 88, 0
2, 67680, Note_on_c, 0, 87, 0
2, 67680, Note_on_c, 0, 62, 0
2, 67680, Note_on_c, 0, 75, 0
2, 67680, Note_on_c, 0, 74, 0
2, 67680, Note_on_c, 0, 99, 100
2, 67680, Note_on_c, 0, 100, 100
2, 67680, Note_on_c, 0, 88, 100
2, 67680, Note_on_c, 0, 87, 100
2, 67680, Note_on_c, 0, 62, 100
2, 67680, Note_on_c, 0, 75, 100
2, 67680, Note_on_c, 0, 74, 100
2, 67920, Note_on_c, 0, 99, 0
2, 67920, Note_on_c, 0, 100, 0
2, 67920, Note_on_c, 0, 88, 0
2, 67920, Note_on_c, 0, 87, 0
2, 67920, Note_on_c, 0, 62, 0
2, 67920, Note_on_c, 0, 75, 0
2, 67920, Note_on_c, 0, 74, 0
2, 67920, Note_on_c, 0, 99, 100
2, 67920, Note_on_c, 0, 100, 100
2, 67920, Note_on_c, 0, 88, 100
2, 67920, Note_on_c, 0, 87, 100
2, 67920, Note_on_c, 0, 75, 100
2, 67920, Note_on_c, 0, 74, 100
2, 68160, Note_on_c, 0, 99, 0
2, 68160, Note_on_c, 0, 100, 0
2, 68160, Note_on_c, 0, 88, 0
2, 68160, Note_on_c, 0, 87, 0
2, 68160, Note_on_c, 0, 75, 0
2, 68160, Note_on_c, 0, 74, 0
2, 68160, Note_on_c, 0, 99, 100
2, 68160, Note_on_c, 0, 100, 100
2, 68160, Note_on_c, 0, 88, 100
2, 68160, Note_on_c, 0, 87, 100
2, 68160, Note_on_c, 0, 62, 100
2, 68160, Note_on_c, 0, 75, 100
2, 68160, Note_on_c, 0, 74, 100
2, 68400, Note_on_c, 0, 99, 0
2, 68400, Note_on_c, 0, 100, 0
2, 68400, Note_on_c, 0, 88, 0
2, 68400, Note_on_c, 0, 87, 0
2, 68400, Note_on_c, 0, 62, 0
2, 68400, Note_on_c, 0, 75, 0
2, 68400, Note_on_c, 0, 74, 0
2, 68640, Note_on_c, 0, 99, 100
2, 68640, Note_on_c, 0, 100, 100
2, 68640, Note_on_c, 0, 88, 100
2, 68640, Note_on_c, 0, 87, 100
2, 68640, Note_on_c, 0, 62, 100
2, 68640, Note_on_c, 0, 75, 100
2, 68640, Note_on_c, 0, 74, 100
2, 68640, Note_on_c, 0, 108, 100
2, 68880, Note_on_c, 0, 99, 0
2, 68880, Note_on_c, 0, 100, 0
2, 68880, Note_on_c, 0, 88, 0
2, 68880, Note_on_c, 0, 87, 0
2, 68880, Note_on_c, 0, 62, 0
2, 68880, Note_on_c, 0, 75, 0
2, 68880, Note_on_c, 0, 74, 0
2, 68880, Note_on_c, 0, 108, 0
2, 69090, Note_on_c, 0, 106, 0
2, 69090, Note_on_c, 0, 94, 0
2, 69090, Note_on_c, 0, 70, 0
2, 69090, Note_on_c, 0, 82, 0
2, 69120, Note_on_c, 0, 96, 100
2, 69120, Note_on_c, 0, 98, 100
2, 69120, Note_on_c, 0, 60, 100
2, 69120, Note_on_c, 0, 84, 100
2, 69120, Note_on_c, 0, 86, 100
2, 69120, Note_on_c, 0, 108, 100
2, 69120, Note_on_c, 0, 72, 100
2, 69360, Note_on_c, 0, 96, 0
2, 69360, Note_on_c, 0, 98, 0
2, 69360, Note_on_c, 0, 60, 0
2, 69360, Note_on_c, 0, 84, 0
2, 69360, Note_on_c, 0, 86, 0
2, 69360, Note_on_c, 0, 72, 0
2, 69480, Note_on_c, 0, 108, 0
2, 69600, Note_on_c, 0, 96, 100
2, 69600, Note_on_c, 0, 98, 100
2, 69600, Note_on_c, 0, 60, 100
2, 69600, Note_on_c, 0, 84, 100
2, 69600, Note_on_c, 0, 86, 100
2, 69600, Note_on_c, 0, 108, 100
2, 69600, Note_on_c, 0, 72, 100
2, 69840, Note_on_c, 0, 96, 0
2, 69840, Note_on_c, 0, 98, 0
2, 69840, Note_on_c, 0, 60, 0
2, 69840, Note_on_c, 0, 84, 0
2, 69840, Note_on_c, 0, 86, 0
2, 69840, Note_on_c, 0, 72, 0
2, 69960, Note_on_c, 0, 108, 0
2, 70080, Note_on_c, 0, 97, 100
2, 70080, Note_on_c, 0, 99, 100
2, 70080, Note_on_c, 0, 61, 100
2, 70080, Note_on_c, 0, 85, 100
2, 70080, Note_on_c, 0, 87, 100
2, 70080, Note_on_c, 0, 74, 100
2, 70320, Note_on_c, 0, 97, 0
2, 70320, Note_on_c, 0, 99, 0
2, 70320, Note_on_c, 0, 61, 0
2, 70320, Note_on_c, 0, 85, 0
2, 70320, Note_on_c, 0, 87, 0
2, 70320, Note_on_c, 0, 74, 0
2, 70320, Note_on_c, 0, 96, 100
2, 70320, Note_on_c, 0, 98, 100
2, 70320, Note_on_c, 0, 85, 100
2, 70320, Note_on_c, 0, 86, 100
2, 70320, Note_on_c, 0, 73, 100
2, 70560, Note_on_c, 0, 96, 0
2, 70560, Note_on_c, 0, 98, 0
2, 70560, Note_on_c, 0, 85, 0
2, 70560, Note_on_c, 0, 86, 0
2, 70560, Note_on_c, 0, 73, 0
2, 70560, Note_on_c, 0, 97, 100
2, 70560, Note_on_c, 0, 99, 100
2, 70560, Note_on_c, 0, 61, 100
2, 70560, Note_on_c, 0, 85, 100
2, 70560, Note_on_c, 0, 87, 100
2, 70560, Note_on_c, 0, 74, 100
2, 70800, Note_on_c, 0, 61, 0
2, 71040, Note_on_c, 0, 97, 0
2, 71040, Note_on_c, 0, 99, 0
2, 71040, Note_on_c, 0, 85, 0
2, 71040, Note_on_c, 0, 87, 0
2, 71040, Note_on_c, 0, 74, 0
2, 71280, Note_on_c, 0, 97, 100
2, 71280, Note_on_c, 0, 99, 100
2, 71280, Note_on_c, 0, 61, 100
2, 71280, Note_on_c, 0, 85, 100
2, 71280, Note_on_c, 0, 87, 100
2, 71280, Note_on_c, 0, 108, 100
2, 71280, Note_on_c, 0, 74, 100
2, 71400, Note_on_c, 0, 108, 0
2, 71520, Note_on_c, 0, 97, 0
2, 71520, Note_on_c, 0, 99, 0
2, 71520, Note_on_c, 0, 61, 0
2, 71520, Note_on_c, 0, 85, 0
2, 71520, Note_on_c, 0, 87, 0
2, 71520, Note_on_c, 0, 74, 0
2, 71520, Note_on_c, 0, 97, 100
2, 71520, Note_on_c, 0, 99, 100
2, 71520, Note_on_c, 0, 85, 100
2, 71520, Note_on_c, 0, 87, 100
2, 71520, Note_on_c, 0, 108, 100
2, 71520, Note_on_c, 0, 74, 100
2, 71700, Note_on_c, 0, 108, 0
2, 71760, Note_on_c, 0, 97, 0
2, 71760, Note_on_c, 0, 99, 0
2, 71760, Note_on_c, 0, 85, 0
2, 71760, Note_on_c, 0, 87, 0
2, 71760, Note_on_c, 0, 74, 0
2, 71760, Note_on_c, 0, 96, 100
2, 71760, Note_on_c, 0, 98, 100
2, 71760, Note_on_c, 0, 60, 100
2, 71760, Note_on_c, 0, 85, 100
2, 71760, Note_on_c, 0, 86, 100
2, 71760, Note_on_c, 0, 108, 100
2, 71760, Note_on_c, 0, 73, 100
2, 71940, Note_on_c, 0, 108, 0
2, 72000, Note_on_c, 0, 96, 0
2, 72000, Note_on_c, 0, 98, 0
2, 72000, Note_on_c, 0, 60, 0
2, 72000, Note_on_c, 0, 85, 0
2, 72000, Note_on_c, 0, 86, 0
2, 72000, Note_on_c, 0, 73, 0
2, 72000, Note_on_c, 0, 97, 100
2, 72000, Note_on_c, 0, 99, 100
2, 72000, Note_on_c, 0, 61, 100
2, 72000, Note_on_c, 0, 85, 100
2, 72000, Note_on_c, 0, 87, 100
2, 72000, Note_on_c, 0, 108, 100
2, 72000, Note_on_c, 0, 74, 100
2, 72180, Note_on_c, 0, 108, 0
2, 72240, Note_on_c, 0, 97, 0
2, 72240, Note_on_c, 0, 99, 0
2, 72240, Note_on_c, 0, 61, 0
2, 72240, Note_on_c, 0, 85, 0
2, 72240, Note_on_c, 0, 87, 0
2, 72240, Note_on_c, 0, 74, 0
2, 72240, Note_on_c, 0, 108, 100
2, 72480, Note_on_c, 0, 98, 100
2, 72480, Note_on_c, 0, 100, 100
2, 72480, Note_on_c, 0, 62, 100
2, 72480, Note_on_c, 0, 86, 100
2, 72480, Note_on_c, 0, 88, 100
2, 72480, Note_on_c, 0, 75, 100
2, 72540, Note_on_c, 0, 108, 0
2, 72720, Note_on_c, 0, 98, 0
2, 72720, Note_on_c, 0, 100, 0
2, 72720, Note_on_c, 0, 62, 0
2, 72720, Note_on_c, 0, 86, 0
2, 72720, Note_on_c, 0, 88, 0
2, 72720, Note_on_c, 0, 75, 0
2, 72720, Note_on_c, 0, 108, 100
2, 72930, Note_on_c, 0, 69, 0
2, 72930, Note_on_c, 0, 105, 0
2, 72930, Note_on_c, 0, 93, 0
2, 72930, Note_on_c, 0, 81, 0
2, 72930, Note_on_c, 0, 106, 100
2, 72930, Note_on_c, 0, 94, 100
2, 72930, Note_on_c, 0, 70, 100
2, 72930, Note_on_c, 0, 82, 100
2, 72960, Note_on_c, 0, 96, 100
2, 72960, Note_on_c, 0, 98, 100
2, 72960, Note_on_c, 0, 60, 100
2, 72960, Note_on_c, 0, 84, 100
2, 72960, Note_on_c, 0, 86, 100
2, 72960, Note_on_c, 0, 72, 100
2, 73080, Note_on_c, 0, 108, 0
2, 73200, Note_on_c, 0, 96, 0
2, 73200, Note_on_c, 0, 98, 0
2, 73200, Note_on_c, 0, 60, 0
2, 73200, Note_on_c, 0, 84, 0
2, 73200, Note_on_c, 0, 86, 0
2, 73200, Note_on_c, 0, 72, 0
2, 73440, Note_on_c, 0, 96, 100
2, 73440, Note_on_c, 0, 98, 100
2, 73440, Note_on_c, 0, 60, 100
2, 73440, Note_on_c, 0, 84, 100
2, 73440, Note_on_c, 0, 86, 100
2, 73440, Note_on_c, 0, 72, 100
2, 73680, Note_on_c, 0, 96, 0
2, 73680, Note_on_c, 0, 98, 0
2, 73680, Note_on_c, 0, 60, 0
2, 73680, Note_on_c, 0, 84, 0
2, 73680, Note_on_c, 0, 86, 0
2, 73680, Note_on_c, 0, 72, 0
2, 73920, Note_on_c, 0, 97, 100
2, 73920, Note_on_c, 0, 99, 100
2, 73920, Note_on_c, 0, 61, 100
2, 73920, Note_on_c, 0, 85, 100
2, 73920, Note_on_c, 0, 87, 100
2, 73920, Note_on_c, 0, 74, 100
2, 74160, Note_on_c, 0, 97, 0
2, 74160, Note_on_c, 0, 99, 0
2, 74160, Note_on_c, 0, 61, 0
2, 74160, Note_on_c, 0, 85, 0
2, 74160, Note_on_c, 0, 87, 0
2, 74160, Note_on_c, 0, 74, 0
2, 74160, Note_on_c, 0, 96, 100
2, 74160, Note_on_c, 0, 98, 100
2, 74160, Note_on_c, 0, 85, 100
2, 74160, Note_on_c, 0, 86, 100
2, 74160, Note_on_c, 0, 73, 100
2, 74400, Note_on_c, 0, 96, 0
2, 74400, Note_on_c, 0, 98, 0
2, 74400, Note_on_c, 0, 85, 0
2, 74400, Note_on_c, 0, 86, 0
2, 74400, Note_on_c, 0, 73, 0
2, 74400, Note_on_c, 0, 97, 100
2, 74400, Note_on_c, 0, 99, 100
2, 74400, Note_on_c, 0, 61, 100
2, 74400, Note_on_c, 0, 85, 100
2, 74400, Note_on_c, 0, 87, 100
2, 74400, Note_on_c, 0, 74, 100
2, 74640, Note_on_c, 0, 61, 0
2, 74880, Note_on_c, 0, 97, 0
2, 74880, Note_on_c, 0, 99, 0
2, 74880, Note_on_c, 0, 85, 0
2, 74880, Note_on_c, 0, 87, 0
2, 74880, Note_on_c, 0, 74, 0
2, 75120, Note_on_c, 0, 97, 100
2, 75120, Note_on_c, 0, 99, 100
2, 75120, Note_on_c, 0, 61, 100
2, 75120, Note_on_c, 0, 85, 100
2, 75120, Note_on_c, 0, 87, 100
2, 75120, Note_on_c, 0, 74, 100
2, 75360, Note_on_c, 0, 97, 0
2, 75360, Note_on_c, 0, 99, 0
2, 75360, Note_on_c, 0, 61, 0
2, 75360, Note_on_c, 0, 85, 0
2, 75360, Note_on_c, 0, 87, 0
2, 75360, Note_on_c, 0, 74, 0
2, 75360, Note_on_c, 0, 97, 100
2, 75360, Note_on_c, 0, 99, 100
2, 75360, Note_on_c, 0, 85, 100
2, 75360, Note_on_c, 0, 87, 100
2, 75360, Note_on_c, 0, 74, 100
2, 75600, Note_on_c, 0, 97, 0
2, 75600, Note_on_c, 0, 99, 0
2, 75600, Note_on_c, 0, 85, 0
2, 75600, Note_on_c, 0, 87, 0
2, 75600, Note_on_c, 0, 74, 0
2, 75600, Note_on_c, 0, 96, 100
2, 75600, Note_on_c, 0, 98, 100
2, 75600, Note_on_c, 0, 60, 100
2, 75600, Note_on_c, 0, 85, 100
2, 75600, Note_on_c, 0, 86, 100
2, 75600, Note_on_c, 0, 73, 100
2, 75840, Note_on_c, 0, 96, 0
2, 75840, Note_on_c, 0, 98, 0
2, 75840, Note_on_c, 0, 60, 0
2, 75840, Note_on_c, 0, 85, 0
2, 75840, Note_on_c, 0, 86, 0
2, 75840, Note_on_c, 0, 73, 0
2, 75840, Note_on_c, 0, 97, 100
2, 75840, Note_on_c, 0, 99, 100
2, 75840, Note_on_c, 0, 61, 100
2, 75840, Note_on_c, 0, 85, 100
2, 75840, Note_on_c, 0, 87, 100
2, 75840, Note_on_c, 0, 74, 100
2, 76080, Note_on_c, 0, 97, 0
2, 76080, Note_on_c, 0, 99, 0
2, 76080, Note_on_c, 0, 61, 0
2, 76080, Note_on_c, 0, 85, 0
2, 76080, Note_on_c, 0, 87, 0
2, 76080, Note_on_c, 0, 74, 0
2, 76320, Note_on_c, 0, 98, 100
2, 76320, Note_on_c, 0, 100, 100
2, 76320, Note_on_c, 0, 62, 100
2, 76320, Note_on_c, 0, 86, 100
2, 76320, Note_on_c, 0, 88, 100
2, 76320, Note_on_c, 0, 108, 100
2, 76320, Note_on_c, 0, 75, 100
2, 76500, Note_on_c, 0, 108, 0
2, 76560, Note_on_c, 0, 98, 0
2, 76560, Note_on_c, 0, 100, 0
2, 76560, Note_on_c, 0, 62, 0
2, 76560, Note_on_c, 0, 86, 0
2, 76560, Note_on_c, 0, 88, 0
2, 76560, Note_on_c, 0, 75, 0
2, 76560, Note_on_c, 0, 108, 100
2, 76680, Note_on_c, 0, 108, 0
2, 76770, Text_t, "[verse]"
2, 76770, Text_t, "wail_off"
2, 76770, Note_on_c, 0, 106, 0
2, 76770, Note_on_c, 0, 94, 0
2, 76770, Note_on_c, 0, 70, 0
2, 76770, Note_on_c, 0, 82, 0
2, 76770, Note_on_c, 0, 105, 100
2, 76770, Note_on_c, 0, 93, 100
2, 76770, Note_on_c, 0, 69, 100
2, 76770, Note_on_c, 0, 81, 100
2, 76800, Note_on_c, 0, 96, 100
2, 76800, Note_on_c, 0, 98, 100
2, 76800, Note_on_c, 0, 60, 100
2, 76800, Note_on_c, 0, 84, 100
2, 76800, Note_on_c, 0, 86, 100
2, 76800, Note_on_c, 0, 108, 100
2, 76800, Note_on_c, 0, 72, 100
2, 77040, Note_on_c, 0, 96, 0
2, 77040, Note_on_c, 0, 98, 0
2, 77040, Note_on_c, 0, 60, 0
2, 77040, Note_on_c, 0, 84, 0
2, 77040, Note_on_c, 0, 86, 0
2, 77040, Note_on_c, 0, 108, 0
2, 77040, Note_on_c, 0, 72, 0
2, 77280, Note_on_c, 0, 96, 100
2, 77280, Note_on_c, 0, 98, 100
2, 77280, Note_on_c, 0, 60, 100
2, 77280, Note_on_c, 0, 84, 100
2, 77280, Note_on_c, 0, 86, 100
2, 77280, Note_on_c, 0, 108, 100
2, 77280, Note_on_c, 0, 72, 100
2, 77520, Note_on_c, 0, 96, 0
2, 77520, Note_on_c, 0, 98, 0
2, 77520, Note_on_c, 0, 60, 0
2, 77520, Note_on_c, 0, 84, 0
2, 77520, Note_on_c, 0, 86, 0
2, 77520, Note_on_c, 0, 72, 0
2, 77580, Note_on_c, 0, 108, 0
2, 77760, Note_on_c, 0, 97, 100
2, 77760, Note_on_c, 0, 99, 100
2, 77760, Note_on_c, 0, 61, 100
2, 77760, Note_on_c, 0, 85, 100
2, 77760, Note_on_c, 0, 87, 100
2, 77760, Note_on_c, 0, 108, 100
2, 77760, Note_on_c, 0, 74, 100
2, 77940, Note_on_c, 0, 108, 0
2, 78000, Note_on_c, 0, 97, 0
2, 78000, Note_on_c, 0, 99, 0
2, 78000, Note_on_c, 0, 61, 0
2, 78000, Note_on_c, 0, 85, 0
2, 78000, Note_on_c, 0, 87, 0
2, 78000, Note_on_c, 0, 74, 0
2, 78000, Note_on_c, 0, 96, 100
2, 78000, Note_on_c, 0, 98, 100
2, 78000, Note_on_c, 0, 85, 100
2, 78000, Note_on_c, 0, 86, 100
2, 78000, Note_on_c, 0, 108, 100
2, 78000, Note_on_c, 0, 73, 100
2, 78240, Note_on_c, 0, 96, 0
2, 78240, Note_on_c, 0, 98, 0
2, 78240, Note_on_c, 0, 85, 0
2, 78240, Note_on_c, 0, 86, 0
2, 78240, Note_on_c, 0, 73, 0
2, 78240, Note_on_c, 0, 97, 100
2, 78240, Note_on_c, 0, 99, 100
2, 78240, Note_on_c, 0, 61, 100
2, 78240, Note_on_c, 0, 85, 100
2, 78240, Note_on_c, 0, 87, 100
2, 78240, Note_on_c, 0, 74, 100
2, 78300, Note_on_c, 0, 108, 0
2, 78480, Note_on_c, 0, 61, 0
2, 78480, Note_on_c, 0, 108, 100
2, 78720, Note_on_c, 0, 97, 0
2, 78720, Note_on_c, 0, 99, 0
2, 78720, Note_on_c, 0, 85, 0
2, 78720, Note_on_c, 0, 87, 0
2, 78720, Note_on_c, 0, 74, 0
2, 78840, Note_on_c, 0, 108, 0
2, 78960, Note_on_c, 0, 97, 100
2, 78960, Note_on_c, 0, 99, 100
2, 78960, Note_on_c, 0, 61, 100
2, 78960, Note_on_c, 0, 85, 100
2, 78960, Note_on_c, 0, 87, 100
2, 78960, Note_on_c, 0, 108, 100
2, 78960, Note_on_c, 0, 74, 100
2, 79200, Note_on_c, 0, 97, 0
2, 79200, Note_on_c, 0, 99, 0
2, 79200, Note_on_c, 0, 61, 0
2, 79200, Note_on_c, 0, 85, 0
2, 79200, Note_on_c, 0, 87, 0
2, 79200, Note_on_c, 0, 74, 0
2, 79200, Note_on_c, 0, 97, 100
2, 79200, Note_on_c, 0, 99, 100
2, 79200, Note_on_c, 0, 85, 100
2, 79200, Note_on_c, 0, 87, 100
2, 79200, Note_on_c, 0, 74, 100
2, 79320, Note_on_c, 0, 108, 0
2, 79440, Note_on_c, 0, 97, 0
2, 79440, Note_on_c, 0, 99, 0
2, 79440, Note_on_c, 0, 85, 0
2, 79440, Note_on_c, 0, 87, 0
2, 79440, Note_on_c, 0, 74, 0
2, 79440, Note_on_c, 0, 96, 100
2, 79440, Note_on_c, 0, 98, 100
2, 79440, Note_on_c, 0, 60, 100
2, 79440, Note_on_c, 0, 85, 100
2, 79440, Note_on_c, 0, 86, 100
2, 79440, Note_on_c, 0, 108, 100
2, 79440, Note_on_c, 0, 73, 100
2, 79560, Note_on_c, 0, 108, 0
2, 79680, Note_on_c, 0, 96, 0
2, 79680, Note_on_c, 0, 98, 0
2, 79680, Note_on_c, 0, 60, 0
2, 79680, Note_on_c, 0, 85, 0
2, 79680, Note_on_c, 0, 86, 0
2, 79680, Note_on_c, 0, 73, 0
2, 79680, Note_on_c, 0, 97, 100
2, 79680, Note_on_c, 0, 99, 100
2, 79680, Note_on_c, 0, 61, 100
2, 79680, Note_on_c, 0, 85, 100
2, 79680, Note_on_c, 0, 87, 100
2, 79680, Note_on_c, 0, 108, 100
2, 79680, Note_on_c, 0, 74, 100
2, 79920, Note_on_c, 0, 97, 0
2, 79920, Note_on_c, 0, 99, 0
2, 79920, Note_on_c, 0, 61, 0
2, 79920, Note_on_c, 0, 85, 0
2, 79920, Note_on_c, 0, 87, 0
2, 79920, Note_on_c, 0, 74, 0
2, 79980, Note_on_c, 0, 108, 0
2, 80160, Note_on_c, 0, 98, 100
2, 80160, Note_on_c, 0, 100, 100
2, 80160, Note_on_c, 0, 62, 100
2, 80160, Note_on_c, 0, 86, 100
2, 80160, Note_on_c, 0, 88, 100
2, 80160, Note_on_c, 0, 108, 100
2, 80160, Note_on_c, 0, 75, 100
2, 80340, Note_on_c, 0, 108, 0
2, 80400, Note_on_c, 0, 98, 0
2, 80400, Note_on_c, 0, 100, 0
2, 80400, Note_on_c, 0, 62, 0
2, 80400, Note_on_c, 0, 86, 0
2, 80400, Note_on_c, 0, 88, 0
2, 80400, Note_on_c, 0, 75, 0
2, 80400, Note_on_c, 0, 108, 100
2, 80610, Note_on_c, 0, 105, 0
2, 80610, Note_on_c, 0, 93, 0
2, 80610, Note_on_c, 0, 69, 0
2, 80610, Note_on_c, 0, 81, 0
2, 80610, Note_on_c, 0, 106, 100
2, 80610, Note_on_c, 0, 94, 100
2, 80610, Note_on_c, 0, 70, 100
2, 80610, Note_on_c, 0, 82, 100
2, 80640, Note_on_c, 0, 96, 100
2, 80640, Note_on_c, 0, 98, 100
2, 80640, Note_on_c, 0, 60, 100
2, 80640, Note_on_c, 0, 84, 100
2, 80640, Note_on_c, 0, 86, 100
2, 80640, Note_on_c, 0, 72, 100
2, 80820, Note_on_c, 0, 108, 0
2, 80880, Note_on_c, 0, 96, 0
2, 80880, Note_on_c, 0, 98, 0
2, 80880, Note_on_c, 0, 60, 0
2, 80880, Note_on_c, 0, 84, 0
2, 80880, Note_on_c, 0, 86, 0
2, 80880, Note_on_c, 0, 72, 0
2, 81120, Note_on_c, 0, 96, 100
2, 81120, Note_on_c, 0, 98, 100
2, 81120, Note_on_c, 0, 60, 100
2, 81120, Note_on_c, 0, 84, 100
2, 81120, Note_on_c, 0, 86, 100
2, 81120, Note_on_c, 0, 72, 100
2, 81360, Note_on_c, 0, 96, 0
2, 81360, Note_on_c, 0, 98, 0
2, 81360, Note_on_c, 0, 60, 0
2, 81360, Note_on_c, 0, 84, 0
2, 81360, Note_on_c, 0, 86, 0
2, 81360, Note_on_c, 0, 72, 0
2, 81600, Note_on_c, 0, 97, 100
2, 81600, Note_on_c, 0, 99, 100
2, 81600, Note_on_c, 0, 61, 100
2, 81600, Note_on_c, 0, 85, 100
2, 81600, Note_on_c, 0, 87, 100
2, 81600, Note_on_c, 0, 74, 100
2, 81840, Note_on_c, 0, 97, 0
2, 81840, Note_on_c, 0, 99, 0
2, 81840, Note_on_c, 0, 61, 0
2, 81840, Note_on_c, 0, 85, 0
2, 81840, Note_on_c, 0, 87, 0
2, 81840, Note_on_c, 0, 74, 0
2, 81840, Note_on_c, 0, 96, 100
2, 81840, Note_on_c, 0, 98, 100
2, 81840, Note_on_c, 0, 85, 100
2, 81840, Note_on_c, 0, 86, 100
2, 81840, Note_on_c, 0, 73, 100
2, 82080, Note_on_c, 0, 96, 0
2, 82080, Note_on_c, 0, 98, 0
2, 82080, Note_on_c, 0, 85, 0
2, 82080, Note_on_c, 0, 86, 0
2, 82080, Note_on_c, 0, 73, 0
2, 82080, Note_on_c, 0, 97, 100
2, 82080, Note_on_c, 0, 99, 100
2, 82080, Note_on_c, 0, 61, 100
2, 82080, Note_on_c, 0, 85, 100
2, 82080, Note_on_c, 0, 87, 100
2, 82080, Note_on_c, 0, 74, 100
2, 82320, Note_on_c, 0, 61, 0
2, 82530, Note_on_c, 0, 103, 100
2, 82530, Note_on_c, 0, 67, 100
2, 82530, Note_on_c, 0, 79, 100
2, 82530, Note_on_c, 0, 91, 100
2, 82530, Note_on_c, 0, 105, 100
2, 82530, Note_on_c, 0, 93, 100
2, 82530, Note_on_c, 0, 69, 100
2, 82530, Note_on_c, 0, 81, 100
2, 82560, Note_on_c, 0, 97, 0
2, 82560, Note_on_c, 0, 99, 0
2, 82560, Note_on_c, 0, 85, 0
2, 82560, Note_on_c, 0, 87, 0
2, 82560, Note_on_c, 0, 74, 0
2, 82560, Note_on_c, 0, 97, 100
2, 82560, Note_on_c, 0, 62, 100
2, 82560, Note_on_c, 0, 73, 100
2, 82560, Note_on_c, 0, 85, 100
2, 82800, Note_on_c, 0, 97, 0
2, 82800, Note_on_c, 0, 62, 0
2, 82800, Note_on_c, 0, 73, 0
2, 82800, Note_on_c, 0, 85, 0
2, 82800, Note_on_c, 0, 97, 100
2, 82800, Note_on_c, 0, 73, 100
2, 82800, Note_on_c, 0, 85, 100
2, 83040, Note_on_c, 0, 97, 0
2, 83040, Note_on_c, 0, 73, 0
2, 83040, Note_on_c, 0, 85, 0
2, 83040, Note_on_c, 0, 97, 100
2, 83040, Note_on_c, 0, 62, 100
2, 83040, Note_on_c, 0, 73, 100
2, 83040, Note_on_c, 0, 85, 100
2, 83280, Note_on_c, 0, 97, 0
2, 83280, Note_on_c, 0, 62, 0
2, 83280, Note_on_c, 0, 73, 0
2, 83280, Note_on_c, 0, 85, 0
2, 83280, Note_on_c, 0, 97, 100
2, 83280, Note_on_c, 0, 73, 100
2, 83280, Note_on_c, 0, 85, 100
2, 83520, Note_on_c, 0, 97, 0
2, 83520, Note_on_c, 0, 73, 0
2, 83520, Note_on_c, 0, 85, 0
2, 83520, Note_on_c, 0, 62, 100
2, 83520, Note_on_c, 0, 73, 100
2, 83520, Note_on_c, 0, 85, 100
2, 83520, Note_on_c, 0, 97, 100
2, 83760, Note_on_c, 0, 62, 0
2, 83760, Note_on_c, 0, 73, 0
2, 83760, Note_on_c, 0, 85, 0
2, 83760, Note_on_c, 0, 97, 0
2, 83760, Note_on_c, 0, 97, 100
2, 83760, Note_on_c, 0, 73, 100
2, 83760, Note_on_c, 0, 85, 100
2, 84000, Note_on_c, 0, 97, 0
2, 84000, Note_on_c, 0, 73, 0
2, 84000, Note_on_c, 0, 85, 0
2, 84000, Note_on_c, 0, 97, 100
2, 84000, Note_on_c, 0, 62, 100
2, 84000, Note_on_c, 0, 73, 100
2, 84000, Note_on_c, 0, 85, 100
2, 84000, Note_on_c, 0, 108, 100
2, 84240, Note_on_c, 0, 97, 0
2, 84240, Note_on_c, 0, 62, 0
2, 84240, Note_on_c, 0, 73, 0
2, 84240, Note_on_c, 0, 85, 0
2, 84240, Note_on_c, 0, 108, 0
2, 84240, Note_on_c, 0, 97, 100
2, 84240, Note_on_c, 0, 73, 100
2, 84240, Note_on_c, 0, 85, 100
2, 84450, Note_on_c, 0, 106, 0
2, 84450, Note_on_c, 0, 94, 0
2, 84450, Note_on_c, 0, 70, 0
2, 84450, Note_on_c, 0, 82, 0
2, 84450, Note_on_c, 0, 103, 0
2, 84450, Note_on_c, 0, 67, 0
2, 84450, Note_on_c, 0, 79, 0
2, 84450, Note_on_c, 0, 91, 0
2, 84480, Note_on_c, 0, 97, 0
2, 84480, Note_on_c, 0, 73, 0
2, 84480, Note_on_c, 0, 85, 0
2, 84480, Note_on_c, 0, 96, 100
2, 84480, Note_on_c, 0, 98, 100
2, 84480, Note_on_c, 0, 60, 100
2, 84480, Note_on_c, 0, 84, 100
2, 84480, Note_on_c, 0, 86, 100
2, 84480, Note_on_c, 0, 108, 100
2, 84480, Note_on_c, 0, 72, 100
2, 84720, Note_on_c, 0, 96, 0
2, 84720, Note_on_c, 0, 98, 0
2, 84720, Note_on_c, 0, 60, 0
2, 84720, Note_on_c, 0, 84, 0
2, 84720, Note_on_c, 0, 86, 0
2, 84720, Note_on_c, 0, 72, 0
2, 84780, Note_on_c, 0, 108, 0
2, 84960, Note_on_c, 0, 96, 100
2, 84960, Note_on_c, 0, 98, 100
2, 84960, Note_on_c, 0, 60, 100
2, 84960, Note_on_c, 0, 84, 100
2, 84960, Note_on_c, 0, 86, 100
2, 84960, Note_on_c, 0, 108, 100
2, 84960, Note_on_c, 0, 72, 100
2, 85140, Note_on_c, 0, 108, 0
2, 85200, Note_on_c, 0, 96, 0
2, 85200, Note_on_c, 0, 98, 0
2, 85200, Note_on_c, 0, 60, 0
2, 85200, Note_on_c, 0, 84, 0
2, 85200, Note_on_c, 0, 86, 0
2, 85200, Note_on_c, 0, 72, 0
2, 85440, Note_on_c, 0, 97, 100
2, 85440, Note_on_c, 0, 99, 100
2, 85440, Note_on_c, 0, 61, 100
2, 85440, Note_on_c, 0, 85, 100
2, 85440, Note_on_c, 0, 87, 100
2, 85440, Note_on_c, 0, 74, 100
2, 85680, Note_on_c, 0, 97, 0
2, 85680, Note_on_c, 0, 99, 0
2, 85680, Note_on_c, 0, 61, 0
2, 85680, Note_on_c, 0, 85, 0
2, 85680, Note_on_c, 0, 87, 0
2, 85680, Note_on_c, 0, 74, 0
2, 85680, Note_on_c, 0, 96, 100
2, 85680, Note_on_c, 0, 98, 100
2, 85680, Note_on_c, 0, 85, 100
2, 85680, Note_on_c, 0, 86, 100
2, 85680, Note_on_c, 0, 73, 100
2, 85920, Note_on_c, 0, 96, 0
2, 85920, Note_on_c, 0, 98, 0
2, 85920, Note_on_c, 0, 85, 0
2, 85920, Note_on_c, 0, 86, 0
2, 85920, Note_on_c, 0, 73, 0
2, 85920, Note_on_c, 0, 97, 100
2, 85920, Note_on_c, 0, 99, 100
2, 85920, Note_on_c, 0, 61, 100
2, 85920, Note_on_c, 0, 85, 100
2, 85920, Note_on_c, 0, 87, 100
2, 85920, Note_on_c, 0, 74, 100
2, 86160, Note_on_c, 0, 61, 0
2, 86400, Note_on_c, 0, 97, 0
2, 86400, Note_on_c, 0, 99, 0
2, 86400, Note_on_c, 0, 85, 0
2, 86400, Note_on_c, 0, 87, 0
2, 86400, Note_on_c, 0, 74, 0
2, 86640, Note_on_c, 0, 97, 100
2, 86640, Note_on_c, 0, 99, 100
2, 86640, Note_on_c, 0, 61, 100
2, 86640, Note_on_c, 0, 85, 100
2, 86640, Note_on_c, 0, 87, 100
2, 86640, Note_on_c, 0, 74, 100
2, 86880, Note_on_c, 0, 97, 0
2, 86880, Note_on_c, 0, 99, 0
2, 86880, Note_on_c, 0, 61, 0
2, 86880, Note_on_c, 0, 85, 0
2, 86880, Note_on_c, 0, 87, 0
2, 86880, Note_on_c, 0, 74, 0
2, 86880, Note_on_c, 0, 97, 100
2, 86880, Note_on_c, 0, 99, 100
2, 86880, Note_on_c, 0, 85, 100
2, 86880, Note_on_c, 0, 87, 100
2, 86880, Note_on_c, 0, 108, 100
2, 86880, Note_on_c, 0, 74, 100
2, 87000, Note_on_c, 0, 108, 0
2, 87120, Note_on_c, 0, 97, 0
2, 87120, Note_on_c, 0, 99, 0
2, 87120, Note_on_c, 0, 85, 0
2, 87120, Note_on_c, 0, 87, 0
2, 87120, Note_on_c, 0, 74, 0
2, 87120, Note_on_c, 0, 96, 100
2, 87120, Note_on_c, 0, 98, 100
2, 87120, Note_on_c, 0, 60, 100
2, 87120, Note_on_c, 0, 85, 100
2, 87120, Note_on_c, 0, 86, 100
2, 87120, Note_on_c, 0, 108, 100
2, 87120, Note_on_c, 0, 73, 100
2, 87240, Note_on_c, 0, 108, 0
2, 87360, Note_on_c, 0, 96, 0
2, 87360, Note_on_c, 0, 98, 0
2, 87360, Note_on_c, 0, 60, 0
2, 87360, Note_on_c, 0, 85, 0
2, 87360, Note_on_c, 0, 86, 0
2, 87360, Note_on_c, 0, 73, 0
2, 87360, Note_on_c, 0, 97, 100
2, 87360, Note_on_c, 0, 99, 100
2, 87360, Note_on_c, 0, 61, 100
2, 87360, Note_on_c, 0, 85, 100
2, 87360, Note_on_c, 0, 87, 100
2, 87360, Note_on_c, 0, 108, 100
2, 87360, Note_on_c, 0, 74, 100
2, 87540, Note_on_c, 0, 108, 0
2, 87600, Note_on_c, 0, 97, 0
2, 87600, Note_on_c, 0, 99, 0
2, 87600, Note_on_c, 0, 61, 0
2, 87600, Note_on_c, 0, 85, 0
2, 87600, Note_on_c, 0, 87, 0
2, 87600, Note_on_c, 0, 74, 0
2, 87600, Note_on_c, 0, 108, 100
2, 87840, Note_on_c, 0, 98, 100
2, 87840, Note_on_c, 0, 100, 100
2, 87840, Note_on_c, 0, 62, 100
2, 87840, Note_on_c, 0, 86, 100
2, 87840, Note_on_c, 0, 88, 100
2, 87840, Note_on_c, 0, 75, 100
2, 87960, Note_on_c, 0, 108, 0
2, 88080, Note_on_c, 0, 98, 0
2, 88080, Note_on_c, 0, 100, 0
2, 88080, Note_on_c, 0, 62, 0
2, 88080, Note_on_c, 0, 86, 0
2, 88080, Note_on_c, 0, 88, 0
2, 88080, Note_on_c, 0, 75, 0
2, 88080, Note_on_c, 0, 108, 100
2, 88290, Note_on_c, 0, 105, 0
2, 88290, Note_on_c, 0, 93, 0
2, 88290, Note_on_c, 0, 69, 0
2, 88290, Note_on_c, 0, 81, 0
2, 88290, Note_on_c, 0, 106, 100
2, 88290, Note_on_c, 0, 94, 100
2, 88290, Note_on_c, 0, 70, 100
2, 88290, Note_on_c, 0, 82, 100
2, 88320, Note_on_c, 0, 96, 100
2, 88320, Note_on_c, 0, 98, 100
2, 88320, Note_on_c, 0, 60, 100
2, 88320, Note_on_c, 0, 84, 100
2, 88320, Note_on_c, 0, 86, 100
2, 88320, Note_on_c, 0, 72, 100
2, 88560, Note_on_c, 0, 108, 0
2, 88560, Note_on_c, 0, 96, 0
2, 88560, Note_on_c, 0, 98, 0
2, 88560, Note_on_c, 0, 60, 0
2, 88560, Note_on_c, 0, 84, 0
2, 88560, Note_on_c, 0, 86, 0
2, 88560, Note_on_c, 0, 72, 0
2, 88800, Note_on_c, 0, 96, 100
2, 88800, Note_on_c, 0, 98, 100
2, 88800, Note_on_c, 0, 60, 100
2, 88800, Note_on_c, 0, 84, 100
2, 88800, Note_on_c, 0, 86, 100
2, 88800, Note_on_c, 0, 72, 100
2, 89040, Note_on_c, 0, 96, 0
2, 89040, Note_on_c, 0, 98, 0
2, 89040, Note_on_c, 0, 60, 0
2, 89040, Note_on_c, 0, 84, 0
2, 89040, Note_on_c, 0, 86, 0
2, 89040, Note_on_c, 0, 72, 0
2, 89280, Note_on_c, 0, 97, 100
2, 89280, Note_on_c, 0, 99, 100
2, 89280, Note_on_c, 0, 61, 100
2, 89280, Note_on_c, 0, 85, 100
2, 89280, Note_on_c, 0, 87, 100
2, 89280, Note_on_c, 0, 74, 100
2, 89520, Note_on_c, 0, 97, 0
2, 89520, Note_on_c, 0, 99, 0
2, 89520, Note_on_c, 0, 61, 0
2, 89520, Note_on_c, 0, 85, 0
2, 89520, Note_on_c, 0, 87, 0
2, 89520, Note_on_c, 0, 74, 0
2, 89520, Note_on_c, 0, 96, 100
2, 89520, Note_on_c, 0, 98, 100
2, 89520, Note_on_c, 0, 85, 100
2, 89520, Note_on_c, 0, 86, 100
2, 89520, Note_on_c, 0, 73, 100
2, 89760, Note_on_c, 0, 96, 0
2, 89760, Note_on_c, 0, 98, 0
2, 89760, Note_on_c, 0, 85, 0
2, 89760, Note_on_c, 0, 86, 0
2, 89760, Note_on_c, 0, 73, 0
2, 89760, Note_on_c, 0, 97, 100
2, 89760, Note_on_c, 0, 99, 100
2, 89760, Note_on_c, 0, 61, 100
2, 89760, Note_on_c, 0, 85, 100
2, 89760, Note_on_c, 0, 87, 100
2, 89760, Note_on_c, 0, 74, 100
2, 90000, Note_on_c, 0, 61, 0
2, 90240, Note_on_c, 0, 97, 0
2, 90240, Note_on_c, 0, 99, 0
2, 90240, Note_on_c, 0, 85, 0
2, 90240, Note_on_c, 0, 87, 0
2, 90240, Note_on_c, 0, 74, 0
2, 90480, Note_on_c, 0, 97, 100
2, 90480, Note_on_c, 0, 99, 100
2, 90480, Note_on_c, 0, 61, 100
2, 90480, Note_on_c, 0, 85, 100
2, 90480, Note_on_c, 0, 87, 100
2, 90480, Note_on_c, 0, 74, 100
2, 90720, Note_on_c, 0, 97, 0
2, 90720, Note_on_c, 0, 99, 0
2, 90720, Note_on_c, 0, 61, 0
2, 90720, Note_on_c, 0, 85, 0
2, 90720, Note_on_c, 0, 87, 0
2, 90720, Note_on_c, 0, 74, 0
2, 90720, Note_on_c, 0, 97, 100
2, 90720, Note_on_c, 0, 99, 100
2, 90720, Note_on_c, 0, 85, 100
2, 90720, Note_on_c, 0, 87, 100
2, 90720, Note_on_c, 0, 74, 100
2, 90960, Note_on_c, 0, 97, 0
2, 90960, Note_on_c, 0, 99, 0
2, 90960, Note_on_c, 0, 85, 0
2, 90960, Note_on_c, 0, 87, 0
2, 90960, Note_on_c, 0, 74, 0
2, 90960, Note_on_c, 0, 96, 100
2, 90960, Note_on_c, 0, 98, 100
2, 90960, Note_on_c, 0, 60, 100
2, 90960, Note_on_c, 0, 85, 100
2, 90960, Note_on_c, 0, 86, 100
2, 90960, Note_on_c, 0, 73, 100
2, 91200, Note_on_c, 0, 96, 0
2, 91200, Note_on_c, 0, 98, 0
2, 91200, Note_on_c, 0, 60, 0
2, 91200, Note_on_c, 0, 85, 0
2, 91200, Note_on_c, 0, 86, 0
2, 91200, Note_on_c, 0, 73, 0
2, 91200, Note_on_c, 0, 97, 100
2, 91200, Note_on_c, 0, 99, 100
2, 91200, Note_on_c, 0, 61, 100
2, 91200, Note_on_c, 0, 85, 100
2, 91200, Note_on_c, 0, 87, 100
2, 91200, Note_on_c, 0, 74, 100
2, 91440, Note_on_c, 0, 97, 0
2, 91440, Note_on_c, 0, 99, 0
2, 91440, Note_on_c, 0, 61, 0
2, 91440, Note_on_c, 0, 85, 0
2, 91440, Note_on_c, 0, 87, 0
2, 91440, Note_on_c, 0, 74, 0
2, 91680, Note_on_c, 0, 98, 100
2, 91680, Note_on_c, 0, 100, 100
2, 91680, Note_on_c, 0, 62, 100
2, 91680, Note_on_c, 0, 86, 100
2, 91680, Note_on_c, 0, 88, 100
2, 91680, Note_on_c, 0, 108, 100
2, 91680, Note_on_c, 0, 75, 100
2, 91920, Note_on_c, 0, 98, 0
2, 91920, Note_on_c, 0, 100, 0
2, 91920, Note_on_c, 0, 62, 0
2, 91920, Note_on_c, 0, 86, 0
2, 91920, Note_on_c, 0, 88, 0
2, 91920, Note_on_c, 0, 75, 0
2, 92040, Note_on_c, 0, 108, 0
2, 92130, Note_on_c, 0, 106, 0
2, 92130, Note_on_c, 0, 94, 0
2, 92130, Note_on_c, 0, 70, 0
2, 92130, Note_on_c, 0, 82, 0
2, 92130, Note_on_c, 0, 105, 100
2, 92130, Note_on_c, 0, 93, 100
2, 92130, Note_on_c, 0, 69, 100
2, 92130, Note_on_c, 0, 81, 100
2, 92160, Note_on_c, 0, 96, 100
2, 92160, Note_on_c, 0, 98, 100
2, 92160, Note_on_c, 0, 60, 100
2, 92160, Note_on_c, 0, 84, 100
2, 92160, Note_on_c, 0, 86, 100
2, 92160, Note_on_c, 0, 108, 100
2, 92160, Note_on_c, 0, 72, 100
2, 92400, Note_on_c, 0, 96, 0
2, 92400, Note_on_c, 0, 98, 0
2, 92400, Note_on_c, 0, 60, 0
2, 92400, Note_on_c, 0, 84, 0
2, 92400, Note_on_c, 0, 86, 0
2, 92400, Note_on_c, 0, 108, 0
2, 92400, Note_on_c, 0, 72, 0
2, 92640, Note_on_c, 0, 96, 100
2, 92640, Note_on_c, 0, 98, 100
2, 92640, Note_on_c, 0, 60, 100
2, 92640, Note_on_c, 0, 84, 100
2, 92640, Note_on_c, 0, 86, 100
2, 92640, Note_on_c, 0, 108, 100
2, 92640, Note_on_c, 0, 72, 100
2, 92880, Note_on_c, 0, 96, 0
2, 92880, Note_on_c, 0, 98, 0
2, 92880, Note_on_c, 0, 60, 0
2, 92880, Note_on_c, 0, 84, 0
2, 92880, Note_on_c, 0, 86, 0
2, 92880, Note_on_c, 0, 108, 0
2, 92880, Note_on_c, 0, 72, 0
2, 93120, Note_on_c, 0, 97, 100
2, 93120, Note_on_c, 0, 99, 100
2, 93120, Note_on_c, 0, 61, 100
2, 93120, Note_on_c, 0, 85, 100
2, 93120, Note_on_c, 0, 87, 100
2, 93120, Note_on_c, 0, 108, 100
2, 93120, Note_on_c, 0, 74, 100
2, 93300, Note_on_c, 0, 108, 0
2, 93360, Note_on_c, 0, 97, 0
2, 93360, Note_on_c, 0, 99, 0
2, 93360, Note_on_c, 0, 61, 0
2, 93360, Note_on_c, 0, 85, 0
2, 93360, Note_on_c, 0, 87, 0
2, 93360, Note_on_c, 0, 74, 0
2, 93360, Note_on_c, 0, 96, 100
2, 93360, Note_on_c, 0, 98, 100
2, 93360, Note_on_c, 0, 85, 100
2, 93360, Note_on_c, 0, 86, 100
2, 93360, Note_on_c, 0, 108, 100
2, 93360, Note_on_c, 0, 73, 100
2, 93540, Note_on_c, 0, 108, 0
2, 93600, Note_on_c, 0, 96, 0
2, 93600, Note_on_c, 0, 98, 0
2, 93600, Note_on_c, 0, 85, 0
2, 93600, Note_on_c, 0, 86, 0
2, 93600, Note_on_c, 0, 73, 0
2, 93600, Note_on_c, 0, 97, 100
2, 93600, Note_on_c, 0, 99, 100
2, 93600, Note_on_c, 0, 61, 100
2, 93600, Note_on_c, 0, 85, 100
2, 93600, Note_on_c, 0, 87, 100
2, 93600, Note_on_c, 0, 74, 100
2, 93840, Note_on_c, 0, 61, 0
2, 93840, Note_on_c, 0, 108, 100
2, 94080, Note_on_c, 0, 97, 0
2, 94080, Note_on_c, 0, 99, 0
2, 94080, Note_on_c, 0, 85, 0
2, 94080, Note_on_c, 0, 87, 0
2, 94080, Note_on_c, 0, 74, 0
2, 94200, Note_on_c, 0, 108, 0
2, 94320, Note_on_c, 0, 97, 100
2, 94320, Note_on_c, 0, 99, 100
2, 94320, Note_on_c, 0, 61, 100
2, 94320, Note_on_c, 0, 85, 100
2, 94320, Note_on_c, 0, 87, 100
2, 94320, Note_on_c, 0, 108, 100
2, 94320, Note_on_c, 0, 74, 100
2, 94500, Note_on_c, 0, 108, 0
2, 94560, Note_on_c, 0, 97, 0
2, 94560, Note_on_c, 0, 99, 0
2, 94560, Note_on_c, 0, 61, 0
2, 94560, Note_on_c, 0, 85, 0
2, 94560, Note_on_c, 0, 87, 0
2, 94560, Note_on_c, 0, 74, 0
2, 94560, Note_on_c, 0, 97, 100
2, 94560, Note_on_c, 0, 99, 100
2, 94560, Note_on_c, 0, 85, 100
2, 94560, Note_on_c, 0, 87, 100
2, 94560, Note_on_c, 0, 108, 100
2, 94560, Note_on_c, 0, 74, 100
2, 94740, Note_on_c, 0, 108, 0
2, 94800, Note_on_c, 0, 97, 0
2, 94800, Note_on_c, 0, 99, 0
2, 94800, Note_on_c, 0, 85, 0
2, 94800, Note_on_c, 0, 87, 0
2, 94800, Note_on_c, 0, 74, 0
2, 94800, Note_on_c, 0, 96, 100
2, 94800, Note_on_c, 0, 98, 100
2, 94800, Note_on_c, 0, 60, 100
2, 94800, Note_on_c, 0, 85, 100
2, 94800, Note_on_c, 0, 86, 100
2, 94800, Note_on_c, 0, 108, 100
2, 94800, Note_on_c, 0, 73, 100
2, 94920, Note_on_c, 0, 108, 0
2, 95040, Note_on_c, 0, 96, 0
2, 95040, Note_on_c, 0, 98, 0
2, 95040, Note_on_c, 0, 60, 0
2, 95040, Note_on_c, 0, 85, 0
2, 95040, Note_on_c, 0, 86, 0
2, 95040, Note_on_c, 0, 73, 0
2, 95040, Note_on_c, 0, 97, 100
2, 95040, Note_on_c, 0, 99, 100
2, 95040, Note_on_c, 0, 61, 100
2, 95040, Note_on_c, 0, 85, 100
2, 95040, Note_on_c, 0, 87, 100
2, 95040, Note_on_c, 0, 108, 100
2, 95040, Note_on_c, 0, 74, 100
2, 95220, Note_on_c, 0, 108, 0
2, 95280, Note_on_c, 0, 97, 0
2, 95280, Note_on_c, 0, 99, 0
2, 95280, Note_on_c, 0, 61, 0
2, 95280, Note_on_c, 0, 85, 0
2, 95280, Note_on_c, 0, 87, 0
2, 95280, Note_on_c, 0, 74, 0
2, 95280, Note_on_c, 0, 108, 100
2, 95520, Note_on_c, 0, 98, 100
2, 95520, Note_on_c, 0, 100, 100
2, 95520, Note_on_c, 0, 62, 100
2, 95520, Note_on_c, 0, 86, 100
2, 95520, Note_on_c, 0, 88, 100
2, 95520, Note_on_c, 0, 75, 100
2, 95640, Note_on_c, 0, 108, 0
2, 95760, Note_on_c, 0, 98, 0
2, 95760, Note_on_c, 0, 100, 0
2, 95760, Note_on_c, 0, 62, 0
2, 95760, Note_on_c, 0, 86, 0
2, 95760, Note_on_c, 0, 88, 0
2, 95760, Note_on_c, 0, 75, 0
2, 95970, Note_on_c, 0, 105, 0
2, 95970, Note_on_c, 0, 93, 0
2, 95970, Note_on_c, 0, 69, 0
2, 95970, Note_on_c, 0, 81, 0
2, 95970, Note_on_c, 0, 106, 100
2, 95970, Note_on_c, 0, 94, 100
2, 95970, Note_on_c, 0, 70, 100
2, 95970, Note_on_c, 0, 82, 100
2, 96000, Note_on_c, 0, 96, 100
2, 96000, Note_on_c, 0, 98, 100
2, 96000, Note_on_c, 0, 60, 100
2, 96000, Note_on_c, 0, 84, 100
2, 96000, Note_on_c, 0, 86, 100
2, 96000, Note_on_c, 0, 72, 100
2, 96240, Note_on_c, 0, 96, 0
2, 96240, Note_on_c, 0, 98, 0
2, 96240, Note_on_c, 0, 60, 0
2, 96240, Note_on_c, 0, 84, 0
2, 96240, Note_on_c, 0, 86, 0
2, 96240, Note_on_c, 0, 72, 0
2, 96360, Note_on_c, 0, 108, 100
2, 96480, Note_on_c, 0, 96, 100
2, 96480, Note_on_c, 0, 98, 100
2, 96480, Note_on_c, 0, 60, 100
2, 96480, Note_on_c, 0, 84, 100
2, 96480, Note_on_c, 0, 86, 100
2, 96480, Note_on_c, 0, 72, 100
2, 96720, Note_on_c, 0, 96, 0
2, 96720, Note_on_c, 0, 98, 0
2, 96720, Note_on_c, 0, 60, 0
2, 96720, Note_on_c, 0, 84, 0
2, 96720, Note_on_c, 0, 86, 0
2, 96720, Note_on_c, 0, 72, 0
2, 96780, Note_on_c, 0, 108, 0
2, 96960, Note_on_c, 0, 97, 100
2, 96960, Note_on_c, 0, 99, 100
2, 96960, Note_on_c, 0, 61, 100
2, 96960, Note_on_c, 0, 85, 100
2, 96960, Note_on_c, 0, 87, 100
2, 96960, Note_on_c, 0, 74, 100
2, 97200, Note_on_c, 0, 97, 0
2, 97200, Note_on_c, 0, 99, 0
2, 97200, Note_on_c, 0, 61, 0
2, 97200, Note_on_c, 0, 85, 0
2, 97200, Note_on_c, 0, 87, 0
2, 97200, Note_on_c, 0, 74, 0
2, 97200, Note_on_c, 0, 96, 100
2, 97200, Note_on_c, 0, 98, 100
2, 97200, Note_on_c, 0, 85, 100
2, 97200, Note_on_c, 0, 86, 100
2, 97200, Note_on_c, 0, 73, 100
2, 97440, Note_on_c, 0, 96, 0
2, 97440, Note_on_c, 0, 98, 0
2, 97440, Note_on_c, 0, 85, 0
2, 97440, Note_on_c, 0, 86, 0
2, 97440, Note_on_c, 0, 73, 0
2, 97440, Note_on_c, 0, 97, 100
2, 97440, Note_on_c, 0, 99, 100
2, 97440, Note_on_c, 0, 61, 100
2, 97440, Note_on_c, 0, 85, 100
2, 97440, Note_on_c, 0, 87, 100
2, 97440, Note_on_c, 0, 74, 100
2, 97680, Note_on_c, 0, 61, 0
2, 97890, Note_on_c, 0, 69, 100
2, 97890, Note_on_c, 0, 105, 100
2, 97890, Note_on_c, 0, 93, 100
2, 97890, Note_on_c, 0, 81, 100
2, 97890, Note_on_c, 0, 103, 100
2, 97890, Note_on_c, 0, 91, 100
2, 97890, Note_on_c, 0, 79, 100
2, 97890, Note_on_c, 0, 67, 100
2, 97920, Note_on_c, 0, 97, 0
2, 97920, Note_on_c, 0, 99, 0
2, 97920, Note_on_c, 0, 85, 0
2, 97920, Note_on_c, 0, 87, 0
2, 97920, Note_on_c, 0, 74, 0
2, 97920, Note_on_c, 0, 97, 100
2, 97920, Note_on_c, 0, 61, 100
2, 97920, Note_on_c, 0, 73, 100
2, 97920, Note_on_c, 0, 85, 100
2, 98160, Note_on_c, 0, 97, 0
2, 98160, Note_on_c, 0, 61, 0
2, 98160, Note_on_c, 0, 73, 0
2, 98160, Note_on_c, 0, 85, 0
2, 98160, Note_on_c, 0, 97, 100
2, 98160, Note_on_c, 0, 73, 100
2, 98160, Note_on_c, 0, 85, 100
2, 98400, Note_on_c, 0, 97, 0
2, 98400, Note_on_c, 0, 73, 0
2, 98400, Note_on_c, 0, 85, 0
2, 98400, Note_on_c, 0, 99, 100
2, 98400, Note_on_c, 0, 62, 100
2, 98400, Note_on_c, 0, 75, 100
2, 98400, Note_on_c, 0, 87, 100
2, 98880, Note_on_c, 0, 108, 100
2, 99720, Note_on_c, 0, 108, 0
2, 99810, Note_on_c, 0, 103, 0
2, 99810, Note_on_c, 0, 91, 0
2, 99810, Note_on_c, 0, 79, 0
2, 99810, Note_on_c, 0, 67, 0
2, 99840, Note_on_c, 0, 99, 0
2, 99840, Note_on_c, 0, 62, 0
2, 99840, Note_on_c, 0, 75, 0
2, 99840, Note_on_c, 0, 87, 0
2, 99840, Note_on_c, 0, 96, 100
2, 99840, Note_on_c, 0, 84, 100
2, 99840, Note_on_c, 0, 60, 100
2, 99840, Note_on_c, 0, 72, 100
2, 99840, Note_on_c, 0, 108, 100
2, 100080, Note_on_c, 0, 96, 0
2, 100080, Note_on_c, 0, 84, 0
2, 100080, Note_on_c, 0, 60, 0
2, 100080, Note_on_c, 0, 72, 0
2, 100320, Note_on_c, 0, 98, 100
2, 100320, Note_on_c, 0, 86, 100
2, 100320, Note_on_c, 0, 62, 100
2, 100320, Note_on_c, 0, 74, 100
2, 100560, Note_on_c, 0, 98, 0
2, 100560, Note_on_c, 0, 86, 0
2, 100560, Note_on_c, 0, 62, 0
2, 100560, Note_on_c, 0, 74, 0
2, 100740, Note_on_c, 0, 108, 0
2, 100800, Note_on_c, 0, 96, 100
2, 100800, Note_on_c, 0, 84, 100
2, 100800, Note_on_c, 0, 60, 100
2, 100800, Note_on_c, 0, 72, 100
2, 101040, Note_on_c, 0, 96, 0
2, 101040, Note_on_c, 0, 84, 0
2, 101040, Note_on_c, 0, 60, 0
2, 101040, Note_on_c, 0, 72, 0
2, 101040, Note_on_c, 0, 97, 100
2, 101040, Note_on_c, 0, 85, 100
2, 101280, Note_on_c, 0, 97, 0
2, 101280, Note_on_c, 0, 85, 0
2, 101280, Note_on_c, 0, 98, 100
2, 101280, Note_on_c, 0, 86, 100
2, 101280, Note_on_c, 0, 73, 100
2, 101520, Note_on_c, 0, 98, 0
2, 101520, Note_on_c, 0, 86, 0
2, 101520, Note_on_c, 0, 73, 0
2, 101520, Note_on_c, 0, 99, 100
2, 101520, Note_on_c, 0, 87, 100
2, 101520, Note_on_c, 0, 61, 100
2, 101760, Note_on_c, 0, 99, 0
2, 101760, Note_on_c, 0, 87, 0
2, 101760, Note_on_c, 0, 61, 0
2, 102000, Note_on_c, 0, 99, 100
2, 102000, Note_on_c, 0, 87, 100
2, 102000, Note_on_c, 0, 61, 100
2, 102000, Note_on_c, 0, 74, 100
2, 102240, Note_on_c, 0, 99, 0
2, 102240, Note_on_c, 0, 87, 0
2, 102240, Note_on_c, 0, 61, 0
2, 102240, Note_on_c, 0, 74, 0
2, 102240, Note_on_c, 0, 99, 100
2, 102240, Note_on_c, 0, 87, 100
2, 102240, Note_on_c, 0, 74, 100
2, 102240, Note_on_c, 0, 61, 100
2, 102240, Note_on_c, 0, 108, 100
2, 102480, Note_on_c, 0, 99, 0
2, 102480, Note_on_c, 0, 87, 0
2, 102480, Note_on_c, 0, 74, 0
2, 102480, Note_on_c, 0, 61, 0
2, 102480, Note_on_c, 0, 99, 100
2, 102480, Note_on_c, 0, 87, 100
2, 102480, Note_on_c, 0, 74, 100
2, 102600, Note_on_c, 0, 108, 0
2, 102720, Note_on_c, 0, 99, 0
2, 102720, Note_on_c, 0, 87, 0
2, 102720, Note_on_c, 0, 74, 0
2, 102720, Note_on_c, 0, 99, 100
2, 102720, Note_on_c, 0, 87, 100
2, 102720, Note_on_c, 0, 61, 100
2, 102720, Note_on_c, 0, 74, 100
2, 102720, Note_on_c, 0, 108, 100
2, 102960, Note_on_c, 0, 99, 0
2, 102960, Note_on_c, 0, 87, 0
2, 102960, Note_on_c, 0, 61, 0
2, 102960, Note_on_c, 0, 74, 0
2, 102960, Note_on_c, 0, 100, 100
2, 102960, Note_on_c, 0, 88, 100
2, 102960, Note_on_c, 0, 62, 100
2, 102960, Note_on_c, 0, 75, 100
2, 103080, Note_on_c, 0, 108, 0
2, 103200, Note_on_c, 0, 100, 0
2, 103200, Note_on_c, 0, 88, 0
2, 103200, Note_on_c, 0, 62, 0
2, 103200, Note_on_c, 0, 75, 0
2, 103200, Note_on_c, 0, 100, 100
2, 103200, Note_on_c, 0, 88, 100
2, 103200, Note_on_c, 0, 62, 100
2, 103200, Note_on_c, 0, 75, 100
2, 103200, Note_on_c, 0, 108, 100
2, 103380, Note_on_c, 0, 108, 0
2, 103440, Note_on_c, 0, 100, 0
2, 103440, Note_on_c, 0, 88, 0
2, 103440, Note_on_c, 0, 62, 0
2, 103440, Note_on_c, 0, 75, 0
2, 103440, Note_on_c, 0, 100, 100
2, 103440, Note_on_c, 0, 88, 100
2, 103440, Note_on_c, 0, 75, 100
2, 103440, Note_on_c, 0, 108, 100
2, 103680, Note_on_c, 0, 100, 0
2, 103680, Note_on_c, 0, 88, 0
2, 103680, Note_on_c, 0, 75, 0
2, 103680, Note_on_c, 0, 96, 100
2, 103680, Note_on_c, 0, 84, 100
2, 103680, Note_on_c, 0, 60, 100
2, 103680, Note_on_c, 0, 72, 100
2, 103920, Note_on_c, 0, 108, 0
2, 103920, Note_on_c, 0, 96, 0
2, 103920, Note_on_c, 0, 84, 0
2, 103920, Note_on_c, 0, 60, 0
2, 103920, Note_on_c, 0, 72, 0
2, 104160, Note_on_c, 0, 98, 100
2, 104160, Note_on_c, 0, 86, 100
2, 104160, Note_on_c, 0, 62, 100
2, 104160, Note_on_c, 0, 74, 100
2, 104400, Note_on_c, 0, 98, 0
2, 104400, Note_on_c, 0, 86, 0
2, 104400, Note_on_c, 0, 62, 0
2, 104400, Note_on_c, 0, 74, 0
2, 104640, Note_on_c, 0, 96, 100
2, 104640, Note_on_c, 0, 84, 100
2, 104640, Note_on_c, 0, 60, 100
2, 104640, Note_on_c, 0, 72, 100
2, 104880, Note_on_c, 0, 96, 0
2, 104880, Note_on_c, 0, 84, 0
2, 104880, Note_on_c, 0, 60, 0
2, 104880, Note_on_c, 0, 72, 0
2, 104880, Note_on_c, 0, 97, 100
2, 104880, Note_on_c, 0, 85, 100
2, 105120, Note_on_c, 0, 97, 0
2, 105120, Note_on_c, 0, 85, 0
2, 105120, Note_on_c, 0, 98, 100
2, 105120, Note_on_c, 0, 86, 100
2, 105120, Note_on_c, 0, 73, 100
2, 105360, Note_on_c, 0, 98, 0
2, 105360, Note_on_c, 0, 86, 0
2, 105360, Note_on_c, 0, 73, 0
2, 105360, Note_on_c, 0, 99, 100
2, 105360, Note_on_c, 0, 87, 100
2, 105360, Note_on_c, 0, 61, 100
2, 105600, Note_on_c, 0, 99, 0
2, 105600, Note_on_c, 0, 87, 0
2, 105600, Note_on_c, 0, 61, 0
2, 105840, Note_on_c, 0, 99, 100
2, 105840, Note_on_c, 0, 87, 100
2, 105840, Note_on_c, 0, 61, 100
2, 105840, Note_on_c, 0, 74, 100
2, 106080, Note_on_c, 0, 99, 0
2, 106080, Note_on_c, 0, 87, 0
2, 106080, Note_on_c, 0, 61, 0
2, 106080, Note_on_c, 0, 74, 0
2, 106080, Note_on_c, 0, 99, 100
2, 106080, Note_on_c, 0, 87, 100
2, 106080, Note_on_c, 0, 74, 100
2, 106080, Note_on_c, 0, 61, 100
2, 106320, Note_on_c, 0, 99, 0
2, 106320, Note_on_c, 0, 87, 0
2, 106320, Note_on_c, 0, 74, 0
2, 106320, Note_on_c, 0, 61, 0
2, 106320, Note_on_c, 0, 99, 100
2, 106320, Note_on_c, 0, 87, 100
2, 106320, Note_on_c, 0, 74, 100
2, 106500, Note_on_c, 0, 108, 100
2, 106560, Note_on_c, 0, 99, 0
2, 106560, Note_on_c, 0, 87, 0
2, 106560, Note_on_c, 0, 74, 0
2, 106560, Note_on_c, 0, 99, 100
2, 106560, Note_on_c, 0, 87, 100
2, 106560, Note_on_c, 0, 61, 100
2, 106560, Note_on_c, 0, 74, 100
2, 106800, Note_on_c, 0, 99, 0
2, 106800, Note_on_c, 0, 87, 0
2, 106800, Note_on_c, 0, 61, 0
2, 106800, Note_on_c, 0, 74, 0
2, 106800, Note_on_c, 0, 99, 100
2, 106800, Note_on_c, 0, 100, 100
2, 106800, Note_on_c, 0, 88, 100
2, 106800, Note_on_c, 0, 87, 100
2, 106800, Note_on_c, 0, 62, 100
2, 106800, Note_on_c, 0, 75, 100
2, 106800, Note_on_c, 0, 74, 100
2, 107040, Note_on_c, 0, 99, 0
2, 107040, Note_on_c, 0, 100, 0
2, 107040, Note_on_c, 0, 88, 0
2, 107040, Note_on_c, 0, 87, 0
2, 107040, Note_on_c, 0, 62, 0
2, 107040, Note_on_c, 0, 75, 0
2, 107040, Note_on_c, 0, 74, 0
2, 107040, Note_on_c, 0, 99, 100
2, 107040, Note_on_c, 0, 100, 100
2, 107040, Note_on_c, 0, 88, 100
2, 107040, Note_on_c, 0, 87, 100
2, 107040, Note_on_c, 0, 62, 100
2, 107040, Note_on_c, 0, 75, 100
2, 107040, Note_on_c, 0, 74, 100
2, 107280, Note_on_c, 0, 99, 0
2, 107280, Note_on_c, 0, 100, 0
2, 107280, Note_on_c, 0, 88, 0
2, 107280, Note_on_c, 0, 87, 0
2, 107280, Note_on_c, 0, 62, 0
2, 107280, Note_on_c, 0, 75, 0
2, 107280, Note_on_c, 0, 74, 0
2, 107280, Note_on_c, 0, 99, 100
2, 107280, Note_on_c, 0, 100, 100
2, 107280, Note_on_c, 0, 88, 100
2, 107280, Note_on_c, 0, 87, 100
2, 107280, Note_on_c, 0, 75, 100
2, 107280, Note_on_c, 0, 74, 100
2, 107340, Note_on_c, 0, 108, 0
2, 107490, Text_t, "[chorus]"
2, 107490, Text_t, "[lighting (sweep)]"
2, 107520, Note_on_c, 0, 99, 0
2, 107520, Note_on_c, 0, 100, 0
2, 107520, Note_on_c, 0, 88, 0
2, 107520, Note_on_c, 0, 87, 0
2, 107520, Note_on_c, 0, 75, 0
2, 107520, Note_on_c, 0, 74, 0
2, 107520, Note_on_c, 0, 96, 100
2, 107520, Note_on_c, 0, 84, 100
2, 107520, Note_on_c, 0, 60, 100
2, 107520, Note_on_c, 0, 72, 100
2, 107520, Note_on_c, 0, 108, 100
2, 107760, Note_on_c, 0, 96, 0
2, 107760, Note_on_c, 0, 84, 0
2, 107760, Note_on_c, 0, 60, 0
2, 107760, Note_on_c, 0, 72, 0
2, 108000, Note_on_c, 0, 98, 100
2, 108000, Note_on_c, 0, 86, 100
2, 108000, Note_on_c, 0, 62, 100
2, 108000, Note_on_c, 0, 74, 100
2, 108240, Note_on_c, 0, 98, 0
2, 108240, Note_on_c, 0, 86, 0
2, 108240, Note_on_c, 0, 62, 0
2, 108240, Note_on_c, 0, 74, 0
2, 108420, Note_on_c, 0, 108, 0
2, 108480, Note_on_c, 0, 96, 100
2, 108480, Note_on_c, 0, 84, 100
2, 108480, Note_on_c, 0, 60, 100
2, 108480, Note_on_c, 0, 72, 100
2, 108720, Note_on_c, 0, 96, 0
2, 108720, Note_on_c, 0, 84, 0
2, 108720, Note_on_c, 0, 60, 0
2, 108720, Note_on_c, 0, 72, 0
2, 108720, Note_on_c, 0, 97, 100
2, 108720, Note_on_c, 0, 85, 100
2, 108960, Note_on_c, 0, 97, 0
2, 108960, Note_on_c, 0, 85, 0
2, 108960, Note_on_c, 0, 98, 100
2, 108960, Note_on_c, 0, 86, 100
2, 108960, Note_on_c, 0, 73, 100
2, 109200, Note_on_c, 0, 98, 0
2, 109200, Note_on_c, 0, 86, 0
2, 109200, Note_on_c, 0, 73, 0
2, 109200, Note_on_c, 0, 99, 100
2, 109200, Note_on_c, 0, 87, 100
2, 109200, Note_on_c, 0, 61, 100
2, 109440, Note_on_c, 0, 99, 0
2, 109440, Note_on_c, 0, 87, 0
2, 109440, Note_on_c, 0, 61, 0
2, 109680, Note_on_c, 0, 99, 100
2, 109680, Note_on_c, 0, 100, 100
2, 109680, Note_on_c, 0, 88, 100
2, 109680, Note_on_c, 0, 87, 100
2, 109680, Note_on_c, 0, 62, 100
2, 109680, Note_on_c, 0, 75, 100
2, 109680, Note_on_c, 0, 74, 100
2, 109920, Note_on_c, 0, 99, 0
2, 109920, Note_on_c, 0, 100, 0
2, 109920, Note_on_c, 0, 88, 0
2, 109920, Note_on_c, 0, 87, 0
2, 109920, Note_on_c, 0, 62, 0
2, 109920, Note_on_c, 0, 75, 0
2, 109920, Note_on_c, 0, 74, 0
2, 109920, Note_on_c, 0, 99, 100
2, 109920, Note_on_c, 0, 100, 100
2, 109920, Note_on_c, 0, 88, 100
2, 109920, Note_on_c, 0, 87, 100
2, 109920, Note_on_c, 0, 62, 100
2, 109920, Note_on_c, 0, 75, 100
2, 109920, Note_on_c, 0, 74, 100
2, 109920, Note_on_c, 0, 108, 100
2, 110160, Note_on_c, 0, 99, 0
2, 110160, Note_on_c, 0, 100, 0
2, 110160, Note_on_c, 0, 88, 0
2, 110160, Note_on_c, 0, 87, 0
2, 110160, Note_on_c, 0, 62, 0
2, 110160, Note_on_c, 0, 75, 0
2, 110160, Note_on_c, 0, 74, 0
2, 110160, Note_on_c, 0, 99, 100
2, 110160, Note_on_c, 0, 100, 100
2, 110160, Note_on_c, 0, 88, 100
2, 110160, Note_on_c, 0, 87, 100
2, 110160, Note_on_c, 0, 75, 100
2, 110160, Note_on_c, 0, 74, 100
2, 110280, Note_on_c, 0, 108, 0
2, 110400, Note_on_c, 0, 99, 0
2, 110400, Note_on_c, 0, 100, 0
2, 110400, Note_on_c, 0, 88, 0
2, 110400, Note_on_c, 0, 87, 0
2, 110400, Note_on_c, 0, 75, 0
2, 110400, Note_on_c, 0, 74, 0
2, 110400, Note_on_c, 0, 99, 100
2, 110400, Note_on_c, 0, 100, 100
2, 110400, Note_on_c, 0, 88, 100
2, 110400, Note_on_c, 0, 87, 100
2, 110400, Note_on_c, 0, 62, 100
2, 110400, Note_on_c, 0, 75, 100
2, 110400, Note_on_c, 0, 74, 100
2, 110400, Note_on_c, 0, 108, 100
2, 110640, Note_on_c, 0, 99, 0
2, 110640, Note_on_c, 0, 100, 0
2, 110640, Note_on_c, 0, 88, 0
2, 110640, Note_on_c, 0, 87, 0
2, 110640, Note_on_c, 0, 62, 0
2, 110640, Note_on_c, 0, 75, 0
2, 110640, Note_on_c, 0, 74, 0
2, 110640, Note_on_c, 0, 99, 100
2, 110640, Note_on_c, 0, 100, 100
2, 110640, Note_on_c, 0, 88, 100
2, 110640, Note_on_c, 0, 87, 100
2, 110640, Note_on_c, 0, 75, 100
2, 110640, Note_on_c, 0, 74, 100
2, 110760, Note_on_c, 0, 108, 0
2, 110880, Note_on_c, 0, 99, 0
2, 110880, Note_on_c, 0, 100, 0
2, 110880, Note_on_c, 0, 88, 0
2, 110880, Note_on_c, 0, 87, 0
2, 110880, Note_on_c, 0, 75, 0
2, 110880, Note_on_c, 0, 74, 0
2, 110880, Note_on_c, 0, 99, 100
2, 110880, Note_on_c, 0, 100, 100
2, 110880, Note_on_c, 0, 88, 100
2, 110880, Note_on_c, 0, 87, 100
2, 110880, Note_on_c, 0, 62, 100
2, 110880, Note_on_c, 0, 75, 100
2, 110880, Note_on_c, 0, 74, 100
2, 110880, Note_on_c, 0, 108, 100
2, 111060, Note_on_c, 0, 108, 0
2, 111120, Note_on_c, 0, 99, 0
2, 111120, Note_on_c, 0, 100, 0
2, 111120, Note_on_c, 0, 88, 0
2, 111120, Note_on_c, 0, 87, 0
2, 111120, Note_on_c, 0, 62, 0
2, 111120, Note_on_c, 0, 75, 0
2, 111120, Note_on_c, 0, 74, 0
2, 111120, Note_on_c, 0, 99, 100
2, 111120, Note_on_c, 0, 100, 100
2, 111120, Note_on_c, 0, 88, 100
2, 111120, Note_on_c, 0, 87, 100
2, 111120, Note_on_c, 0, 75, 100
2, 111120, Note_on_c, 0, 74, 100
2, 111120, Note_on_c, 0, 108, 100
2, 111360, Note_on_c, 0, 99, 0
2, 111360, Note_on_c, 0, 100, 0
2, 111360, Note_on_c, 0, 88, 0
2, 111360, Note_on_c, 0, 87, 0
2, 111360, Note_on_c, 0, 75, 0
2, 111360, Note_on_c, 0, 74, 0
2, 111360, Note_on_c, 0, 96, 100
2, 111360, Note_on_c, 0, 84, 100
2, 111360, Note_on_c, 0, 60, 100
2, 111360, Note_on_c, 0, 72, 100
2, 111600, Note_on_c, 0, 96, 0
2, 111600, Note_on_c, 0, 84, 0
2, 111600, Note_on_c, 0, 60, 0
2, 111600, Note_on_c, 0, 72, 0
2, 111660, Note_on_c, 0, 108, 0
2, 111840, Note_on_c, 0, 98, 100
2, 111840, Note_on_c, 0, 86, 100
2, 111840, Note_on_c, 0, 62, 100
2, 111840, Note_on_c, 0, 74, 100
2, 112080, Note_on_c, 0, 98, 0
2, 112080, Note_on_c, 0, 86, 0
2, 112080, Note_on_c, 0, 62, 0
2, 112080, Note_on_c, 0, 74, 0
2, 112320, Note_on_c, 0, 96, 100
2, 112320, Note_on_c, 0, 84, 100
2, 112320, Note_on_c, 0, 60, 100
2, 112320, Note_on_c, 0, 72, 100
2, 112560, Note_on_c, 0, 96, 0
2, 112560, Note_on_c, 0, 84, 0
2, 112560, Note_on_c, 0, 60, 0
2, 112560, Note_on_c, 0, 72, 0
2, 112560, Note_on_c, 0, 97, 100
2, 112560, Note_on_c, 0, 85, 100
2, 112800, Note_on_c, 0, 97, 0
2, 112800, Note_on_c, 0, 85, 0
2, 112800, Note_on_c, 0, 98, 100
2, 112800, Note_on_c, 0, 86, 100
2, 112800, Note_on_c, 0, 73, 100
2, 113040, Note_on_c, 0, 98, 0
2, 113040, Note_on_c, 0, 86, 0
2, 113040, Note_on_c, 0, 73, 0
2, 113040, Note_on_c, 0, 99, 100
2, 113040, Note_on_c, 0, 87, 100
2, 113040, Note_on_c, 0, 61, 100
2, 113280, Note_on_c, 0, 99, 0
2, 113280, Note_on_c, 0, 87, 0
2, 113280, Note_on_c, 0, 61, 0
2, 113520, Note_on_c, 0, 99, 100
2, 113520, Note_on_c, 0, 87, 100
2, 113520, Note_on_c, 0, 61, 100
2, 113520, Note_on_c, 0, 74, 100
2, 113760, Note_on_c, 0, 99, 0
2, 113760, Note_on_c, 0, 87, 0
2, 113760, Note_on_c, 0, 61, 0
2, 113760, Note_on_c, 0, 74, 0
2, 113760, Note_on_c, 0, 99, 100
2, 113760, Note_on_c, 0, 87, 100
2, 113760, Note_on_c, 0, 61, 100
2, 113760, Note_on_c, 0, 74, 100
2, 113760, Note_on_c, 0, 108, 100
2, 113880, Note_on_c, 0, 108, 0
2, 114000, Note_on_c, 0, 99, 0
2, 114000, Note_on_c, 0, 87, 0
2, 114000, Note_on_c, 0, 61, 0
2, 114000, Note_on_c, 0, 74, 0
2, 114000, Note_on_c, 0, 99, 100
2, 114000, Note_on_c, 0, 87, 100
2, 114000, Note_on_c, 0, 74, 100
2, 114000, Note_on_c, 0, 108, 100
2, 114120, Note_on_c, 0, 108, 0
2, 114240, Note_on_c, 0, 99, 0
2, 114240, Note_on_c, 0, 87, 0
2, 114240, Note_on_c, 0, 74, 0
2, 114240, Note_on_c, 0, 99, 100
2, 114240, Note_on_c, 0, 87, 100
2, 114240, Note_on_c, 0, 61, 100
2, 114240, Note_on_c, 0, 74, 100
2, 114480, Note_on_c, 0, 99, 0
2, 114480, Note_on_c, 0, 87, 0
2, 114480, Note_on_c, 0, 61, 0
2, 114480, Note_on_c, 0, 74, 0
2, 114480, Note_on_c, 0, 100, 100
2, 114480, Note_on_c, 0, 88, 100
2, 114480, Note_on_c, 0, 62, 100
2, 114480, Note_on_c, 0, 75, 100
2, 114480, Note_on_c, 0, 108, 100
2, 114600, Note_on_c, 0, 108, 0
2, 114720, Note_on_c, 0, 100, 0
2, 114720, Note_on_c, 0, 88, 0
2, 114720, Note_on_c, 0, 62, 0
2, 114720, Note_on_c, 0, 75, 0
2, 114720, Note_on_c, 0, 100, 100
2, 114720, Note_on_c, 0, 88, 100
2, 114720, Note_on_c, 0, 62, 100
2, 114720, Note_on_c, 0, 75, 100
2, 114720, Note_on_c, 0, 108, 100
2, 114840, Note_on_c, 0, 108, 0
2, 114960, Note_on_c, 0, 100, 0
2, 114960, Note_on_c, 0, 88, 0
2, 114960, Note_on_c, 0, 62, 0
2, 114960, Note_on_c, 0, 75, 0
2, 114960, Note_on_c, 0, 100, 100
2, 114960, Note_on_c, 0, 88, 100
2, 114960, Note_on_c, 0, 75, 100
2, 114960, Note_on_c, 0, 108, 100
2, 115080, Note_on_c, 0, 108, 0
2, 115170, Note_on_c, 0, 106, 0
2, 115170, Note_on_c, 0, 94, 0
2, 115170, Note_on_c, 0, 70, 0
2, 115170, Note_on_c, 0, 82, 0
2, 115170, Note_on_c, 0, 103, 100
2, 115170, Note_on_c, 0, 91, 100
2, 115170, Note_on_c, 0, 79, 100
2, 115170, Note_on_c, 0, 67, 100
2, 115200, Note_on_c, 0, 100, 0
2, 115200, Note_on_c, 0, 88, 0
2, 115200, Note_on_c, 0, 75, 0
2, 115200, Note_on_c, 0, 99, 100
2, 115200, Note_on_c, 0, 87, 100
2, 115200, Note_on_c, 0, 75, 100
2, 115200, Note_on_c, 0, 62, 100
2, 115440, Note_on_c, 0, 99, 0
2, 115440, Note_on_c, 0, 87, 0
2, 115440, Note_on_c, 0, 75, 0
2, 115440, Note_on_c, 0, 62, 0
2, 115680, Note_on_c, 0, 99, 100
2, 115680, Note_on_c, 0, 87, 100
2, 115680, Note_on_c, 0, 75, 100
2, 115680, Note_on_c, 0, 62, 100
2, 115920, Note_on_c, 0, 99, 0
2, 115920, Note_on_c, 0, 87, 0
2, 115920, Note_on_c, 0, 75, 0
2, 115920, Note_on_c, 0, 62, 0
2, 116160, Note_on_c, 0, 99, 100
2, 116160, Note_on_c, 0, 87, 100
2, 116160, Note_on_c, 0, 75, 100
2, 116160, Note_on_c, 0, 62, 100
2, 116400, Note_on_c, 0, 99, 0
2, 116400, Note_on_c, 0, 87, 0
2, 116400, Note_on_c, 0, 75, 0
2, 116400, Note_on_c, 0, 62, 0
2, 116640, Note_on_c, 0, 99, 100
2, 116640, Note_on_c, 0, 87, 100
2, 116640, Note_on_c, 0, 75, 100
2, 116640, Note_on_c, 0, 62, 100
2, 116880, Note_on_c, 0, 99, 0
2, 116880, Note_on_c, 0, 87, 0
2, 116880, Note_on_c, 0, 75, 0
2, 116880, Note_on_c, 0, 62, 0
2, 116880, Note_on_c, 0, 99, 100
2, 116880, Note_on_c, 0, 87, 100
2, 116880, Note_on_c, 0, 75, 100
2, 117120, Note_on_c, 0, 99, 0
2, 117120, Note_on_c, 0, 87, 0
2, 117120, Note_on_c, 0, 75, 0
2, 117360, Note_on_c, 0, 99, 100
2, 117360, Note_on_c, 0, 87, 100
2, 117360, Note_on_c, 0, 75, 100
2, 117360, Note_on_c, 0, 62, 100
2, 117600, Note_on_c, 0, 99, 0
2, 117600, Note_on_c, 0, 87, 0
2, 117600, Note_on_c, 0, 75, 0
2, 117600, Note_on_c, 0, 62, 0
2, 117600, Note_on_c, 0, 99, 100
2, 117600, Note_on_c, 0, 87, 100
2, 117600, Note_on_c, 0, 75, 100
2, 117840, Note_on_c, 0, 99, 0
2, 117840, Note_on_c, 0, 87, 0
2, 117840, Note_on_c, 0, 75, 0
2, 118080, Note_on_c, 0, 99, 100
2, 118080, Note_on_c, 0, 87, 100
2, 118080, Note_on_c, 0, 75, 100
2, 118080, Note_on_c, 0, 62, 100
2, 118320, Note_on_c, 0, 99, 0
2, 118320, Note_on_c, 0, 87, 0
2, 118320, Note_on_c, 0, 75, 0
2, 118320, Note_on_c, 0, 62, 0
2, 118560, Note_on_c, 0, 99, 100
2, 118560, Note_on_c, 0, 87, 100
2, 118560, Note_on_c, 0, 75, 100
2, 118560, Note_on_c, 0, 62, 100
2, 118800, Note_on_c, 0, 99, 0
2, 118800, Note_on_c, 0, 87, 0
2, 118800, Note_on_c, 0, 75, 0
2, 118800, Note_on_c, 0, 62, 0
2, 118800, Note_on_c, 0, 99, 100
2, 118800, Note_on_c, 0, 87, 100
2, 118800, Note_on_c, 0, 75, 100
2, 119010, Note_on_c, 0, 69, 0
2, 119010, Note_on_c, 0, 105, 0
2, 119010, Note_on_c, 0, 93, 0
2, 119010, Note_on_c, 0, 81, 0
2, 119010, Note_on_c, 0, 103, 0
2, 119010, Note_on_c, 0, 91, 0
2, 119010, Note_on_c, 0, 79, 0
2, 119010, Note_on_c, 0, 67, 0
2, 119010, Note_on_c, 0, 106, 100
2, 119010, Note_on_c, 0, 94, 100
2, 119010, Note_on_c, 0, 70, 100
2, 119010, Note_on_c, 0, 82, 100
2, 119040, Note_on_c, 0, 99, 0
2, 119040, Note_on_c, 0, 87, 0
2, 119040, Note_on_c, 0, 75, 0
2, 119040, Note_on_c, 0, 100, 100
2, 119040, Note_on_c, 0, 88, 100
2, 119040, Note_on_c, 0, 75, 100
2, 119040, Note_on_c, 0, 62, 100
2, 119280, Note_on_c, 0, 100, 0
2, 119280, Note_on_c, 0, 88, 0
2, 119280, Note_on_c, 0, 75, 0
2, 119280, Note_on_c, 0, 62, 0
2, 119280, Note_on_c, 0, 99, 100
2, 119280, Note_on_c, 0, 87, 100
2, 119520, Note_on_c, 0, 99, 0
2, 119520, Note_on_c, 0, 87, 0
2, 119520, Note_on_c, 0, 98, 100
2, 119520, Note_on_c, 0, 86, 100
2, 119520, Note_on_c, 0, 74, 100
2, 119520, Note_on_c, 0, 61, 100
2, 119760, Note_on_c, 0, 98, 0
2, 119760, Note_on_c, 0, 86, 0
2, 119760, Note_on_c, 0, 74, 0
2, 119760, Note_on_c, 0, 61, 0
2, 119760, Note_on_c, 0, 97, 100
2, 119760, Note_on_c, 0, 85, 100
2, 120000, Note_on_c, 0, 97, 0
2, 120000, Note_on_c, 0, 85, 0
2, 120000, Note_on_c, 0, 99, 100
2, 120000, Note_on_c, 0, 87, 100
2, 120000, Note_on_c, 0, 74, 100
2, 120000, Note_on_c, 0, 61, 100
2, 120240, Note_on_c, 0, 99, 0
2, 120240, Note_on_c, 0, 87, 0
2, 120240, Note_on_c, 0, 74, 0
2, 120240, Note_on_c, 0, 61, 0
2, 120240, Note_on_c, 0, 98, 100
2, 120240, Note_on_c, 0, 86, 100
2, 120480, Note_on_c, 0, 98, 0
2, 120480, Note_on_c, 0, 86, 0
2, 120480, Note_on_c, 0, 97, 100
2, 120480, Note_on_c, 0, 85, 100
2, 120480, Note_on_c, 0, 73, 100
2, 120480, Note_on_c, 0, 60, 100
2, 120720, Note_on_c, 0, 97, 0
2, 120720, Note_on_c, 0, 85, 0
2, 120720, Note_on_c, 0, 73, 0
2, 120720, Note_on_c, 0, 60, 0
2, 120720, Note_on_c, 0, 96, 100
2, 120720, Note_on_c, 0, 84, 100
2, 120930, Note_on_c, 0, 106, 0
2, 120930, Note_on_c, 0, 94, 0
2, 120930, Note_on_c, 0, 70, 0
2, 120930, Note_on_c, 0, 82, 0
2, 120930, Note_on_c, 0, 105, 100
2, 120930, Note_on_c, 0, 93, 100
2, 120930, Note_on_c, 0, 69, 100
2, 120930, Note_on_c, 0, 81, 100
2, 120960, Note_on_c, 0, 96, 0
2, 120960, Note_on_c, 0, 84, 0
2, 120960, Note_on_c, 0, 97, 100
2, 120960, Note_on_c, 0, 98, 100
2, 120960, Note_on_c, 0, 85, 100
2, 120960, Note_on_c, 0, 86, 100
2, 120960, Note_on_c, 0, 73, 100
2, 120960, Note_on_c, 0, 60, 100
2, 121200, Note_on_c, 0, 97, 0
2, 121200, Note_on_c, 0, 98, 0
2, 121200, Note_on_c, 0, 85, 0
2, 121200, Note_on_c, 0, 86, 0
2, 121200, Note_on_c, 0, 73, 0
2, 121200, Note_on_c, 0, 60, 0
2, 121200, Note_on_c, 0, 97, 100
2, 121200, Note_on_c, 0, 98, 100
2, 121200, Note_on_c, 0, 85, 100
2, 121200, Note_on_c, 0, 86, 100
2, 121440, Note_on_c, 0, 97, 0
2, 121440, Note_on_c, 0, 98, 0
2, 121440, Note_on_c, 0, 85, 0
2, 121440, Note_on_c, 0, 86, 0
2, 121440, Note_on_c, 0, 98, 100
2, 121440, Note_on_c, 0, 97, 100
2, 121440, Note_on_c, 0, 86, 100
2, 121440, Note_on_c, 0, 85, 100
2, 121440, Note_on_c, 0, 73, 100
2, 121680, Note_on_c, 0, 98, 0
2, 121680, Note_on_c, 0, 97, 0
2, 121680, Note_on_c, 0, 86, 0
2, 121680, Note_on_c, 0, 85, 0
2, 121680, Note_on_c, 0, 73, 0
2, 121680, Note_on_c, 0, 96, 100
2, 121680, Note_on_c, 0, 84, 100
2, 121680, Note_on_c, 0, 72, 100
2, 121680, Note_on_c, 0, 60, 100
2, 121920, Note_on_c, 0, 96, 0
2, 121920, Note_on_c, 0, 84, 0
2, 121920, Note_on_c, 0, 72, 0
2, 121920, Note_on_c, 0, 60, 0
2, 121920, Note_on_c, 0, 97, 100
2, 121920, Note_on_c, 0, 98, 100
2, 121920, Note_on_c, 0, 85, 100
2, 121920, Note_on_c, 0, 86, 100
2, 121920, Note_on_c, 0, 73, 100
2, 121920, Note_on_c, 0, 60, 100
2, 122160, Note_on_c, 0, 97, 0
2, 122160, Note_on_c, 0, 98, 0
2, 122160, Note_on_c, 0, 85, 0
2, 122160, Note_on_c, 0, 86, 0
2, 122160, Note_on_c, 0, 73, 0
2, 122160, Note_on_c, 0, 60, 0
2, 122370, Note_on_c, 0, 105, 0
2, 122370, Note_on_c, 0, 93, 0
2, 122370, Note_on_c, 0, 69, 0
2, 122370, Note_on_c, 0, 81, 0
2, 122370, Note_on_c, 0, 103, 100
2, 122370, Note_on_c, 0, 91, 100
2, 122370, Note_on_c, 0, 79, 100
2, 122370, Note_on_c, 0, 67, 100
2, 122370, Note_on_c, 0, 106, 100
2, 122370, Note_on_c, 0, 94, 100
2, 122370, Note_on_c, 0, 70, 100
2, 122370, Note_on_c, 0, 82, 100
2, 122400, Note_on_c, 0, 100, 100
2, 122400, Note_on_c, 0, 88, 100
2, 122400, Note_on_c, 0, 62, 100
2, 122400, Note_on_c, 0, 75, 100
2, 122850, Text_t, "solo_on"
2, 122850, Text_t, "sing_off"
2, 122850, Text_t, "wail_off"
2, 122850, Text_t, "[solo]"
2, 123120, Note_on_c, 0, 62, 0
2, 123360, Note_on_c, 0, 100, 0
2, 123360, Note_on_c, 0, 88, 0
2, 123360, Note_on_c, 0, 75, 0
2, 123360, Note_on_c, 0, 98, 100
2, 123360, Note_on_c, 0, 86, 100
2, 123360, Note_on_c, 0, 61, 100
2, 123360, Note_on_c, 0, 74, 100
2, 124080, Note_on_c, 0, 61, 0
2, 124290, Note_on_c, 0, 103, 0
2, 124290, Note_on_c, 0, 91, 0
2, 124290, Note_on_c, 0, 79, 0
2, 124290, Note_on_c, 0, 67, 0
2, 124320, Note_on_c, 0, 98, 0
2, 124320, Note_on_c, 0, 86, 0
2, 124320, Note_on_c, 0, 74, 0
2, 124320, Note_on_c, 0, 99, 100
2, 124320, Note_on_c, 0, 87, 100
2, 124320, Note_on_c, 0, 62, 100
2, 124320, Note_on_c, 0, 75, 100
2, 125520, Note_on_c, 0, 62, 0
2, 125520, Note_on_c, 0, 75, 0
2, 125760, Note_on_c, 0, 99, 0
2, 125760, Note_on_c, 0, 87, 0
2, 125760, Note_on_c, 0, 99, 100
2, 125760, Note_on_c, 0, 87, 100
2, 125760, Note_on_c, 0, 62, 100
2, 125760, Note_on_c, 0, 75, 100
2, 126000, Note_on_c, 0, 99, 0
2, 126000, Note_on_c, 0, 87, 0
2, 126000, Note_on_c, 0, 62, 0
2, 126000, Note_on_c, 0, 75, 0
2, 126000, Note_on_c, 0, 99, 100
2, 126000, Note_on_c, 0, 87, 100
2, 126000, Note_on_c, 0, 75, 100
2, 126240, Note_on_c, 0, 99, 0
2, 126240, Note_on_c, 0, 87, 0
2, 126240, Note_on_c, 0, 98, 100
2, 126240, Note_on_c, 0, 86, 100
2, 126240, Note_on_c, 0, 61, 100
2, 126400, Note_on_c, 0, 98, 0
2, 126400, Note_on_c, 0, 86, 0
2, 126400, Note_on_c, 0, 61, 0
2, 126400, Note_on_c, 0, 97, 100
2, 126400, Note_on_c, 0, 85, 100
2, 126560, Note_on_c, 0, 97, 0
2, 126560, Note_on_c, 0, 85, 0
2, 126560, Note_on_c, 0, 96, 100
2, 126560, Note_on_c, 0, 84, 100
2, 126720, Note_on_c, 0, 75, 0
2, 126720, Note_on_c, 0, 96, 0
2, 126720, Note_on_c, 0, 84, 0
2, 126720, Note_on_c, 0, 98, 100
2, 126720, Note_on_c, 0, 86, 100
2, 126720, Note_on_c, 0, 61, 100
2, 126720, Note_on_c, 0, 74, 100
2, 126960, Note_on_c, 0, 98, 0
2, 126960, Note_on_c, 0, 86, 0
2, 126960, Note_on_c, 0, 61, 0
2, 126960, Note_on_c, 0, 74, 0
2, 126960, Note_on_c, 0, 97, 100
2, 126960, Note_on_c, 0, 85, 100
2, 127200, Note_on_c, 0, 97, 0
2, 127200, Note_on_c, 0, 85, 0
2, 127200, Note_on_c, 0, 96, 100
2, 127200, Note_on_c, 0, 84, 100
2, 127200, Note_on_c, 0, 60, 100
2, 127200, Note_on_c, 0, 73, 100
2, 127440, Note_on_c, 0, 96, 0
2, 127440, Note_on_c, 0, 84, 0
2, 127440, Note_on_c, 0, 60, 0
2, 127440, Note_on_c, 0, 73, 0
2, 127440, Note_on_c, 0, 98, 100
2, 127440, Note_on_c, 0, 86, 100
2, 127440, Note_on_c, 0, 74, 100
2, 127440, Note_on_c, 0, 61, 100
2, 127680, Note_on_c, 0, 98, 0
2, 127680, Note_on_c, 0, 86, 0
2, 127680, Note_on_c, 0, 74, 0
2, 127680, Note_on_c, 0, 61, 0
2, 127680, Note_on_c, 0, 99, 100
2, 127680, Note_on_c, 0, 87, 100
2, 127680, Note_on_c, 0, 75, 100
2, 127680, Note_on_c, 0, 62, 100
2, 127920, Note_on_c, 0, 99, 0
2, 127920, Note_on_c, 0, 87, 0
2, 127920, Note_on_c, 0, 75, 0
2, 127920, Note_on_c, 0, 62, 0
2, 127920, Note_on_c, 0, 99, 100
2, 127920, Note_on_c, 0, 87, 100
2, 127920, Note_on_c, 0, 75, 100
2, 128130, Note_on_c, 0, 106, 0
2, 128130, Note_on_c, 0, 94, 0
2, 128130, Note_on_c, 0, 70, 0
2, 128130, Note_on_c, 0, 82, 0
2, 128130, Note_on_c, 0, 105, 100
2, 128130, Note_on_c, 0, 93, 100
2, 128130, Note_on_c, 0, 69, 100
2, 128130, Note_on_c, 0, 81, 100
2, 128160, Note_on_c, 0, 99, 0
2, 128160, Note_on_c, 0, 87, 0
2, 128160, Note_on_c, 0, 75, 0
2, 128400, Note_on_c, 0, 99, 100
2, 128400, Note_on_c, 0, 87, 100
2, 128400, Note_on_c, 0, 62, 100
2, 128400, Note_on_c, 0, 75, 100
2, 128640, Note_on_c, 0, 99, 0
2, 128640, Note_on_c, 0, 87, 0
2, 128640, Note_on_c, 0, 62, 0
2, 128640, Note_on_c, 0, 75, 0
2, 128640, Note_on_c, 0, 98, 100
2, 128640, Note_on_c, 0, 86, 100
2, 128640, Note_on_c, 0, 74, 100
2, 128880, Note_on_c, 0, 98, 0
2, 128880, Note_on_c, 0, 86, 0
2, 128880, Note_on_c, 0, 74, 0
2, 128960, Note_on_c, 0, 99, 100
2, 128960, Note_on_c, 0, 87, 100
2, 128960, Note_on_c, 0, 62, 100
2, 128960, Note_on_c, 0, 75, 100
2, 129120, Note_on_c, 0, 99, 0
2, 129120, Note_on_c, 0, 87, 0
2, 129120, Note_on_c, 0, 62, 0
2, 129120, Note_on_c, 0, 75, 0
2, 129280, Note_on_c, 0, 99, 100
2, 129280, Note_on_c, 0, 87, 100
2, 129280, Note_on_c, 0, 75, 100
2, 129440, Note_on_c, 0, 99, 0
2, 129440, Note_on_c, 0, 87, 0
2, 129440, Note_on_c, 0, 75, 0
2, 129600, Note_on_c, 0, 99, 100
2, 129600, Note_on_c, 0, 87, 100
2, 129600, Note_on_c, 0, 62, 100
2, 129600, Note_on_c, 0, 75, 100
2, 129760, Note_on_c, 0, 99, 0
2, 129760, Note_on_c, 0, 87, 0
2, 129760, Note_on_c, 0, 62, 0
2, 129760, Note_on_c, 0, 75, 0
2, 129920, Note_on_c, 0, 99, 100
2, 129920, Note_on_c, 0, 87, 100
2, 129920, Note_on_c, 0, 75, 100
2, 130080, Note_on_c, 0, 99, 0
2, 130080, Note_on_c, 0, 87, 0
2, 130080, Note_on_c, 0, 75, 0
2, 130240, Note_on_c, 0, 99, 100
2, 130240, Note_on_c, 0, 87, 100
2, 130240, Note_on_c, 0, 62, 100
2, 130240, Note_on_c, 0, 75, 100
2, 130400, Note_on_c, 0, 99, 0
2, 130400, Note_on_c, 0, 87, 0
2, 130400, Note_on_c, 0, 62, 0
2, 130400, Note_on_c, 0, 75, 0
2, 130400, Note_on_c, 0, 100, 100
2, 130400, Note_on_c, 0, 88, 100
2, 130560, Note_on_c, 0, 100, 0
2, 130560, Note_on_c, 0, 88, 0
2, 130560, Note_on_c, 0, 99, 100
2, 130560, Note_on_c, 0, 87, 100
2, 130560, Note_on_c, 0, 62, 100
2, 130560, Note_on_c, 0, 75, 100
2, 131280, Note_on_c, 0, 62, 0
2, 131280, Note_on_c, 0, 75, 0
2, 131520, Note_on_c, 0, 99, 0
2, 131520, Note_on_c, 0, 87, 0
2, 131520, Note_on_c, 0, 99, 100
2, 131520, Note_on_c, 0, 87, 100
2, 131520, Note_on_c, 0, 62, 100
2, 131520, Note_on_c, 0, 75, 100
2, 131680, Note_on_c, 0, 99, 0
2, 131680, Note_on_c, 0, 87, 0
2, 131680, Note_on_c, 0, 62, 0
2, 131680, Note_on_c, 0, 75, 0
2, 131840, Note_on_c, 0, 99, 100
2, 131840, Note_on_c, 0, 87, 100
2, 131840, Note_on_c, 0, 75, 100
2, 132000, Note_on_c, 0, 99, 0
2, 132000, Note_on_c, 0, 87, 0
2, 132000, Note_on_c, 0, 75, 0
2, 132160, Note_on_c, 0, 99, 100
2, 132160, Note_on_c, 0, 87, 100
2, 132160, Note_on_c, 0, 75, 100
2, 132320, Note_on_c, 0, 99, 0
2, 132320, Note_on_c, 0, 87, 0
2, 132320, Note_on_c, 0, 75, 0
2, 132480, Note_on_c, 0, 98, 100
2, 132480, Note_on_c, 0, 86, 100
2, 132480, Note_on_c, 0, 61, 100
2, 132480, Note_on_c, 0, 74, 100
2, 133200, Note_on_c, 0, 61, 0
2, 133200, Note_on_c, 0, 74, 0
2, 133410, Note_on_c, 0, 105, 0
2, 133410, Note_on_c, 0, 93, 0
2, 133410, Note_on_c, 0, 69, 0
2, 133410, Note_on_c, 0, 81, 0
2, 133410, Note_on_c, 0, 106, 100
2, 133410, Note_on_c, 0, 94, 100
2, 133410, Note_on_c, 0, 70, 100
2, 133410, Note_on_c, 0, 82, 100
2, 133440, Note_on_c, 0, 98, 0
2, 133440, Note_on_c, 0, 86, 0
2, 133440, Note_on_c, 0, 98, 100
2, 133440, Note_on_c, 0, 86, 100
2, 133440, Note_on_c, 0, 61, 100
2, 133440, Note_on_c, 0, 74, 100
2, 133600, Note_on_c, 0, 98, 0
2, 133600, Note_on_c, 0, 86, 0
2, 133600, Note_on_c, 0, 61, 0
2, 133600, Note_on_c, 0, 74, 0
2, 133760, Note_on_c, 0, 97, 100
2, 133760, Note_on_c, 0, 85, 100
2, 133920, Note_on_c, 0, 97, 0
2, 133920, Note_on_c, 0, 85, 0
2, 133920, Note_on_c, 0, 96, 100
2, 133920, Note_on_c, 0, 84, 100
2, 133920, Note_on_c, 0, 72, 100
2, 134080, Note_on_c, 0, 96, 0
2, 134080, Note_on_c, 0, 84, 0
2, 134080, Note_on_c, 0, 72, 0
2, 134160, Note_on_c, 0, 99, 100
2, 134160, Note_on_c, 0, 87, 100
2, 134160, Note_on_c, 0, 75, 100
2, 134400, Note_on_c, 0, 99, 0
2, 134400, Note_on_c, 0, 87, 0
2, 134400, Note_on_c, 0, 75, 0
2, 134400, Note_on_c, 0, 98, 100
2, 134400, Note_on_c, 0, 86, 100
2, 134400, Note_on_c, 0, 62, 100
2, 134400, Note_on_c, 0, 74, 100
2, 134640, Note_on_c, 0, 98, 0
2, 134640, Note_on_c, 0, 86, 0
2, 134640, Note_on_c, 0, 62, 0
2, 134640, Note_on_c, 0, 74, 0
2, 134640, Note_on_c, 0, 97, 100
2, 134640, Note_on_c, 0, 85, 100
2, 134880, Note_on_c, 0, 97, 0
2, 134880, Note_on_c, 0, 85, 0
2, 134880, Note_on_c, 0, 96, 100
2, 134880, Note_on_c, 0, 84, 100
2, 134880, Note_on_c, 0, 60, 100
2, 134880, Note_on_c, 0, 72, 100
2, 135120, Note_on_c, 0, 96, 0
2, 135120, Note_on_c, 0, 84, 0
2, 135120, Note_on_c, 0, 60, 0
2, 135120, Note_on_c, 0, 72, 0
2, 135120, Note_on_c, 0, 99, 100
2, 135120, Note_on_c, 0, 98, 100
2, 135120, Note_on_c, 0, 87, 100
2, 135120, Note_on_c, 0, 86, 100
2, 135120, Note_on_c, 0, 62, 100
2, 135120, Note_on_c, 0, 74, 100
2, 135360, Note_on_c, 0, 99, 0
2, 135360, Note_on_c, 0, 98, 0
2, 135360, Note_on_c, 0, 87, 0
2, 135360, Note_on_c, 0, 86, 0
2, 135360, Note_on_c, 0, 62, 0
2, 135360, Note_on_c, 0, 74, 0
2, 135360, Note_on_c, 0, 99, 100
2, 135360, Note_on_c, 0, 98, 100
2, 135360, Note_on_c, 0, 87, 100
2, 135360, Note_on_c, 0, 86, 100
2, 135360, Note_on_c, 0, 62, 100
2, 135360, Note_on_c, 0, 74, 100
2, 135600, Note_on_c, 0, 99, 0
2, 135600, Note_on_c, 0, 98, 0
2, 135600, Note_on_c, 0, 87, 0
2, 135600, Note_on_c, 0, 86, 0
2, 135600, Note_on_c, 0, 62, 0
2, 135600, Note_on_c, 0, 74, 0
2, 135600, Note_on_c, 0, 97, 100
2, 135600, Note_on_c, 0, 96, 100
2, 135600, Note_on_c, 0, 85, 100
2, 135600, Note_on_c, 0, 84, 100
2, 135600, Note_on_c, 0, 60, 100
2, 135840, Note_on_c, 0, 97, 0
2, 135840, Note_on_c, 0, 96, 0
2, 135840, Note_on_c, 0, 85, 0
2, 135840, Note_on_c, 0, 84, 0
2, 135840, Note_on_c, 0, 60, 0
2, 135840, Note_on_c, 0, 99, 100
2, 135840, Note_on_c, 0, 98, 100
2, 135840, Note_on_c, 0, 87, 100
2, 135840, Note_on_c, 0, 86, 100
2, 135840, Note_on_c, 0, 74, 100
2, 135840, Note_on_c, 0, 62, 100
2, 136080, Note_on_c, 0, 99, 0
2, 136080, Note_on_c, 0, 98, 0
2, 136080, Note_on_c, 0, 87, 0
2, 136080, Note_on_c, 0, 86, 0
2, 136080, Note_on_c, 0, 74, 0
2, 136080, Note_on_c, 0, 62, 0
2, 136080, Note_on_c, 0, 97, 100
2, 136080, Note_on_c, 0, 98, 100
2, 136080, Note_on_c, 0, 85, 100
2, 136080, Note_on_c, 0, 86, 100
2, 136320, Note_on_c, 0, 97, 0
2, 136320, Note_on_c, 0, 98, 0
2, 136320, Note_on_c, 0, 85, 0
2, 136320, Note_on_c, 0, 86, 0
2, 136320, Note_on_c, 0, 97, 100
2, 136320, Note_on_c, 0, 85, 100
2, 136320, Note_on_c, 0, 61, 100
2, 136320, Note_on_c, 0, 73, 100
2, 136800, Note_on_c, 0, 97, 0
2, 136800, Note_on_c, 0, 85, 0
2, 136800, Note_on_c, 0, 61, 0
2, 136800, Note_on_c, 0, 73, 0
2, 136800, Note_on_c, 0, 98, 100
2, 136800, Note_on_c, 0, 86, 100
2, 136800, Note_on_c, 0, 62, 100
2, 136800, Note_on_c, 0, 74, 100
2, 137040, Note_on_c, 0, 98, 0
2, 137040, Note_on_c, 0, 86, 0
2, 137040, Note_on_c, 0, 62, 0
2, 137040, Note_on_c, 0, 74, 0
2, 137250, Note_on_c, 0, 106, 0
2, 137250, Note_on_c, 0, 94, 0
2, 137250, Note_on_c, 0, 70, 0
2, 137250, Note_on_c, 0, 82, 0
2, 137250, Note_on_c, 0, 105, 100
2, 137250, Note_on_c, 0, 93, 100
2, 137250, Note_on_c, 0, 69, 100
2, 137250, Note_on_c, 0, 81, 100
2, 137280, Note_on_c, 0, 99, 100
2, 137280, Note_on_c, 0, 97, 100
2, 137280, Note_on_c, 0, 87, 100
2, 137280, Note_on_c, 0, 85, 100
2, 137280, Note_on_c, 0, 61, 100
2, 137280, Note_on_c, 0, 75, 100
2, 137280, Note_on_c, 0, 74, 100
2, 137400, Note_on_c, 0, 99, 0
2, 137400, Note_on_c, 0, 97, 0
2, 137400, Note_on_c, 0, 87, 0
2, 137400, Note_on_c, 0, 85, 0
2, 137400, Note_on_c, 0, 61, 0
2, 137400, Note_on_c, 0, 75, 0
2, 137400, Note_on_c, 0, 74, 0
2, 137400, Note_on_c, 0, 99, 100
2, 137400, Note_on_c, 0, 97, 100
2, 137400, Note_on_c, 0, 87, 100
2, 137400, Note_on_c, 0, 85, 100
2, 137520, Note_on_c, 0, 99, 0
2, 137520, Note_on_c, 0, 97, 0
2, 137520, Note_on_c, 0, 87, 0
2, 137520, Note_on_c, 0, 85, 0
2, 137520, Note_on_c, 0, 99, 100
2, 137520, Note_on_c, 0, 97, 100
2, 137520, Note_on_c, 0, 87, 100
2, 137520, Note_on_c, 0, 85, 100
2, 137640, Note_on_c, 0, 99, 0
2, 137640, Note_on_c, 0, 97, 0
2, 137640, Note_on_c, 0, 87, 0
2, 137640, Note_on_c, 0, 85, 0
2, 137640, Note_on_c, 0, 99, 100
2, 137640, Note_on_c, 0, 97, 100
2, 137640, Note_on_c, 0, 87, 100
2, 137640, Note_on_c, 0, 85, 100
2, 137760, Note_on_c, 0, 99, 0
2, 137760, Note_on_c, 0, 97, 0
2, 137760, Note_on_c, 0, 87, 0
2, 137760, Note_on_c, 0, 85, 0
2, 137880, Note_on_c, 0, 99, 100
2, 137880, Note_on_c, 0, 97, 100
2, 137880, Note_on_c, 0, 87, 100
2, 137880, Note_on_c, 0, 85, 100
2, 137880, Note_on_c, 0, 61, 100
2, 137880, Note_on_c, 0, 75, 100
2, 137880, Note_on_c, 0, 74, 100
2, 138000, Note_on_c, 0, 99, 0
2, 138000, Note_on_c, 0, 97, 0
2, 138000, Note_on_c, 0, 87, 0
2, 138000, Note_on_c, 0, 85, 0
2, 138000, Note_on_c, 0, 61, 0
2, 138000, Note_on_c, 0, 75, 0
2, 138000, Note_on_c, 0, 74, 0
2, 138240, Note_on_c, 0, 99, 100
2, 138240, Note_on_c, 0, 97, 100
2, 138240, Note_on_c, 0, 87, 100
2, 138240, Note_on_c, 0, 85, 100
2, 138240, Note_on_c, 0, 61, 100
2, 138240, Note_on_c, 0, 75, 100
2, 138240, Note_on_c, 0, 74, 100
2, 138360, Note_on_c, 0, 99, 0
2, 138360, Note_on_c, 0, 97, 0
2, 138360, Note_on_c, 0, 87, 0
2, 138360, Note_on_c, 0, 85, 0
2, 138360, Note_on_c, 0, 61, 0
2, 138360, Note_on_c, 0, 75, 0
2, 138360, Note_on_c, 0, 74, 0
2, 138480, Note_on_c, 0, 97, 100
2, 138480, Note_on_c, 0, 85, 100
2, 138720, Note_on_c, 0, 97, 0
2, 138720, Note_on_c, 0, 85, 0
2, 138720, Note_on_c, 0, 99, 100
2, 138720, Note_on_c, 0, 97, 100
2, 138720, Note_on_c, 0, 87, 100
2, 138720, Note_on_c, 0, 85, 100
2, 138720, Note_on_c, 0, 61, 100
2, 138720, Note_on_c, 0, 75, 100
2, 138720, Note_on_c, 0, 74, 100
2, 138930, Note_on_c, 0, 105, 0
2, 138930, Note_on_c, 0, 93, 0
2, 138930, Note_on_c, 0, 69, 0
2, 138930, Note_on_c, 0, 81, 0
2, 138930, Note_on_c, 0, 106, 100
2, 138930, Note_on_c, 0, 94, 100
2, 138930, Note_on_c, 0, 70, 100
2, 138930, Note_on_c, 0, 82, 100
2, 138960, Note_on_c, 0, 99, 0
2, 138960, Note_on_c, 0, 97, 0
2, 138960, Note_on_c, 0, 87, 0
2, 138960, Note_on_c, 0, 85, 0
2, 138960, Note_on_c, 0, 61, 0
2, 138960, Note_on_c, 0, 75, 0
2, 138960, Note_on_c, 0, 74, 0
2, 138960, Note_on_c, 0, 97, 100
2, 138960, Note_on_c, 0, 85, 100
2, 139200, Note_on_c, 0, 97, 0
2, 139200, Note_on_c, 0, 85, 0
2, 139200, Note_on_c, 0, 99, 100
2, 139200, Note_on_c, 0, 97, 100
2, 139200, Note_on_c, 0, 87, 100
2, 139200, Note_on_c, 0, 85, 100
2, 139200, Note_on_c, 0, 61, 100
2, 139200, Note_on_c, 0, 75, 100
2, 139200, Note_on_c, 0, 74, 100
2, 139440, Note_on_c, 0, 99, 0
2, 139440, Note_on_c, 0, 97, 0
2, 139440, Note_on_c, 0, 87, 0
2, 139440, Note_on_c, 0, 85, 0
2, 139440, Note_on_c, 0, 61, 0
2, 139440, Note_on_c, 0, 75, 0
2, 139440, Note_on_c, 0, 74, 0
2, 139440, Note_on_c, 0, 98, 100
2, 139440, Note_on_c, 0, 86, 100
2, 139680, Note_on_c, 0, 98, 0
2, 139680, Note_on_c, 0, 86, 0
2, 139680, Note_on_c, 0, 97, 100
2, 139680, Note_on_c, 0, 99, 100
2, 139680, Note_on_c, 0, 85, 100
2, 139680, Note_on_c, 0, 87, 100
2, 139680, Note_on_c, 0, 61, 100
2, 139680, Note_on_c, 0, 74, 100
2, 139680, Note_on_c, 0, 75, 100
2, 139920, Note_on_c, 0, 97, 0
2, 139920, Note_on_c, 0, 99, 0
2, 139920, Note_on_c, 0, 85, 0
2, 139920, Note_on_c, 0, 87, 0
2, 139920, Note_on_c, 0, 61, 0
2, 139920, Note_on_c, 0, 74, 0
2, 139920, Note_on_c, 0, 75, 0
2, 139920, Note_on_c, 0, 99, 100
2, 139920, Note_on_c, 0, 87, 100
2, 140160, Note_on_c, 0, 99, 0
2, 140160, Note_on_c, 0, 87, 0
2, 140160, Note_on_c, 0, 98, 100
2, 140160, Note_on_c, 0, 86, 100
2, 140160, Note_on_c, 0, 61, 100
2, 140160, Note_on_c, 0, 74, 100
2, 140400, Note_on_c, 0, 98, 0
2, 140400, Note_on_c, 0, 86, 0
2, 140400, Note_on_c, 0, 61, 0
2, 140400, Note_on_c, 0, 74, 0
2, 140400, Note_on_c, 0, 99, 100
2, 140400, Note_on_c, 0, 87, 100
2, 140640, Note_on_c, 0, 99, 0
2, 140640, Note_on_c, 0, 87, 0
2, 140640, Note_on_c, 0, 98, 100
2, 140640, Note_on_c, 0, 86, 100
2, 140640, Note_on_c, 0, 74, 100
2, 140880, Note_on_c, 0, 98, 0
2, 140880, Note_on_c, 0, 86, 0
2, 140880, Note_on_c, 0, 74, 0
2, 140880, Note_on_c, 0, 99, 100
2, 140880, Note_on_c, 0, 87, 100
2, 140880, Note_on_c, 0, 61, 100
2, 140880, Note_on_c, 0, 75, 100
2, 141360, Note_on_c, 0, 61, 0
2, 141600, Note_on_c, 0, 99, 0
2, 141600, Note_on_c, 0, 87, 0
2, 141600, Note_on_c, 0, 75, 0
2, 141600, Note_on_c, 0, 100, 100
2, 141600, Note_on_c, 0, 88, 100
2, 141600, Note_on_c, 0, 62, 100
2, 141600, Note_on_c, 0, 75, 100
2, 141840, Note_on_c, 0, 100, 0
2, 141840, Note_on_c, 0, 88, 0
2, 141840, Note_on_c, 0, 62, 0
2, 141840, Note_on_c, 0, 75, 0
2, 141840, Note_on_c, 0, 99, 100
2, 141840, Note_on_c, 0, 87, 100
2, 141840, Note_on_c, 0, 61, 100
2, 141840, Note_on_c, 0, 74, 100
2, 142320, Note_on_c, 0, 61, 0
2, 142530, Note_on_c, 0, 106, 0
2, 142530, Note_on_c, 0, 94, 0
2, 142530, Note_on_c, 0, 70, 0
2, 142530, Note_on_c, 0, 82, 0
2, 142530, Note_on_c, 0, 105, 100
2, 142530, Note_on_c, 0, 93, 100
2, 142530, Note_on_c, 0, 69, 100
2, 142530, Note_on_c, 0, 81, 100
2, 142560, Note_on_c, 0, 99, 0
2, 142560, Note_on_c, 0, 87, 0
2, 142560, Note_on_c, 0, 74, 0
2, 142560, Note_on_c, 0, 99, 100
2, 142560, Note_on_c, 0, 87, 100
2, 142560, Note_on_c, 0, 61, 100
2, 142560, Note_on_c, 0, 75, 100
2, 142800, Note_on_c, 0, 99, 0
2, 142800, Note_on_c, 0, 87, 0
2, 142800, Note_on_c, 0, 61, 0
2, 142800, Note_on_c, 0, 75, 0
2, 142800, Note_on_c, 0, 98, 100
2, 142800, Note_on_c, 0, 86, 100
2, 143040, Note_on_c, 0, 98, 0
2, 143040, Note_on_c, 0, 86, 0
2, 143040, Note_on_c, 0, 97, 100
2, 143040, Note_on_c, 0, 99, 100
2, 143040, Note_on_c, 0, 85, 100
2, 143040, Note_on_c, 0, 87, 100
2, 143040, Note_on_c, 0, 61, 100
2, 143040, Note_on_c, 0, 74, 100
2, 143040, Note_on_c, 0, 75, 100
2, 143280, Note_on_c, 0, 97, 0
2, 143280, Note_on_c, 0, 99, 0
2, 143280, Note_on_c, 0, 85, 0
2, 143280, Note_on_c, 0, 87, 0
2, 143280, Note_on_c, 0, 61, 0
2, 143280, Note_on_c, 0, 74, 0
2, 143280, Note_on_c, 0, 75, 0
2, 143280, Note_on_c, 0, 99, 100
2, 143280, Note_on_c, 0, 97, 100
2, 143280, Note_on_c, 0, 87, 100
2, 143280, Note_on_c, 0, 85, 100
2, 143520, Note_on_c, 0, 99, 0
2, 143520, Note_on_c, 0, 97, 0
2, 143520, Note_on_c, 0, 87, 0
2, 143520, Note_on_c, 0, 85, 0
2, 143520, Note_on_c, 0, 99, 100
2, 143520, Note_on_c, 0, 97, 100
2, 143520, Note_on_c, 0, 87, 100
2, 143520, Note_on_c, 0, 85, 100
2, 143520, Note_on_c, 0, 61, 100
2, 143520, Note_on_c, 0, 75, 100
2, 143520, Note_on_c, 0, 74, 100
2, 143760, Note_on_c, 0, 99, 0
2, 143760, Note_on_c, 0, 97, 0
2, 143760, Note_on_c, 0, 87, 0
2, 143760, Note_on_c, 0, 85, 0
2, 143760, Note_on_c, 0, 61, 0
2, 143760, Note_on_c, 0, 75, 0
2, 143760, Note_on_c, 0, 74, 0
2, 143760, Note_on_c, 0, 98, 100
2, 143760, Note_on_c, 0, 86, 100
2, 143760, Note_on_c, 0, 60, 100
2, 144000, Note_on_c, 0, 98, 0
2, 144000, Note_on_c, 0, 86, 0
2, 144000, Note_on_c, 0, 60, 0
2, 144000, Note_on_c, 0, 99, 100
2, 144000, Note_on_c, 0, 97, 100
2, 144000, Note_on_c, 0, 87, 100
2, 144000, Note_on_c, 0, 85, 100
2, 144000, Note_on_c, 0, 61, 100
2, 144000, Note_on_c, 0, 75, 100
2, 144000, Note_on_c, 0, 74, 100
2, 144240, Note_on_c, 0, 99, 0
2, 144240, Note_on_c, 0, 97, 0
2, 144240, Note_on_c, 0, 87, 0
2, 144240, Note_on_c, 0, 85, 0
2, 144240, Note_on_c, 0, 61, 0
2, 144240, Note_on_c, 0, 75, 0
2, 144240, Note_on_c, 0, 74, 0
2, 144240, Note_on_c, 0, 98, 100
2, 144240, Note_on_c, 0, 86, 100
2, 144240, Note_on_c, 0, 60, 100
2, 144480, Note_on_c, 0, 98, 0
2, 144480, Note_on_c, 0, 86, 0
2, 144480, Note_on_c, 0, 60, 0
2, 144480, Note_on_c, 0, 99, 100
2, 144480, Note_on_c, 0, 87, 100
2, 144480, Note_on_c, 0, 61, 100
2, 144720, Note_on_c, 0, 99, 0
2, 144720, Note_on_c, 0, 87, 0
2, 144720, Note_on_c, 0, 61, 0
2, 144720, Note_on_c, 0, 100, 100
2, 144720, Note_on_c, 0, 88, 100
2, 144720, Note_on_c, 0, 62, 100
2, 144720, Note_on_c, 0, 75, 100
2, 145200, Note_on_c, 0, 100, 0
2, 145200, Note_on_c, 0, 88, 0
2, 145200, Note_on_c, 0, 62, 0
2, 145200, Note_on_c, 0, 75, 0
2, 145200, Note_on_c, 0, 99, 100
2, 145200, Note_on_c, 0, 87, 100
2, 145200, Note_on_c, 0, 61, 100
2, 145200, Note_on_c, 0, 74, 100
2, 145320, Note_on_c, 0, 99, 0
2, 145320, Note_on_c, 0, 87, 0
2, 145320, Note_on_c, 0, 61, 0
2, 145320, Note_on_c, 0, 74, 0
2, 145320, Note_on_c, 0, 98, 100
2, 145320, Note_on_c, 0, 86, 100
2, 145440, Note_on_c, 0, 98, 0
2, 145440, Note_on_c, 0, 86, 0
2, 145440, Note_on_c, 0, 99, 100
2, 145440, Note_on_c, 0, 87, 100
2, 145560, Note_on_c, 0, 99, 0
2, 145560, Note_on_c, 0, 87, 0
2, 145680, Note_on_c, 0, 98, 100
2, 145680, Note_on_c, 0, 86, 100
2, 145680, Note_on_c, 0, 60, 100
2, 145680, Note_on_c, 0, 73, 100
2, 145890, Note_on_c, 0, 103, 100
2, 145890, Note_on_c, 0, 91, 100
2, 145890, Note_on_c, 0, 79, 100
2, 145890, Note_on_c, 0, 67, 100
2, 145890, Note_on_c, 0, 106, 100
2, 145890, Note_on_c, 0, 94, 100
2, 145890, Note_on_c, 0, 70, 100
2, 145890, Note_on_c, 0, 82, 100
2, 145920, Note_on_c, 0, 98, 0
2, 145920, Note_on_c, 0, 86, 0
2, 145920, Note_on_c, 0, 60, 0
2, 145920, Note_on_c, 0, 73, 0
2, 145920, Note_on_c, 0, 97, 100
2, 145920, Note_on_c, 0, 96, 100
2, 145920, Note_on_c, 0, 85, 100
2, 145920, Note_on_c, 0, 84, 100
2, 145920, Note_on_c, 0, 60, 100
2, 145920, Note_on_c, 0, 73, 100
2, 145920, Note_on_c, 0, 72, 100
2, 149970, Note_on_c, 0, 105, 0
2, 149970, Note_on_c, 0, 93, 0
2, 149970, Note_on_c, 0, 69, 0
2, 149970, Note_on_c, 0, 81, 0
2, 149970, Note_on_c, 0, 103, 0
2, 149970, Note_on_c, 0, 91, 0
2, 149970, Note_on_c, 0, 79, 0
2, 149970, Note_on_c, 0, 67, 0
2, 150000, Note_on_c, 0, 97, 0
2, 150000, Note_on_c, 0, 96, 0
2, 150000, Note_on_c, 0, 85, 0
2, 150000, Note_on_c, 0, 84, 0
2, 150000, Note_on_c, 0, 60, 0
2, 150000, Note_on_c, 0, 73, 0
2, 150000, Note_on_c, 0, 72, 0
2, 154530, Text_t, "drum_off"
2, 156960, Note_on_c, 0, 97, 100
2, 156960, Note_on_c, 0, 85, 100
2, 156960, Note_on_c, 0, 61, 100
2, 156960, Note_on_c, 0, 73, 100
2, 157200, Note_on_c, 0, 97, 0
2, 157200, Note_on_c, 0, 85, 0
2, 157200, Note_on_c, 0, 61, 0
2, 157200, Note_on_c, 0, 73, 0
2, 157200, Note_on_c, 0, 98, 100
2, 157200, Note_on_c, 0, 86, 100
2, 157200, Note_on_c, 0, 74, 100
2, 157410, Text_t, "gtr_off"
2, 157410, Text_t, "solo_off"
2, 157440, Note_on_c, 0, 98, 0
2, 157440, Note_on_c, 0, 86, 0
2, 157440, Note_on_c, 0, 74, 0
2, 157440, Note_on_c, 0, 97, 100
2, 157440, Note_on_c, 0, 85, 100
2, 157440, Note_on_c, 0, 61, 100
2, 157440, Note_on_c, 0, 73, 100
2, 161040, Note_on_c, 0, 61, 0
2, 161280, Note_on_c, 0, 97, 0
2, 161280, Note_on_c, 0, 85, 0
2, 161280, Note_on_c, 0, 73, 0
2, 161280, Note_on_c, 0, 97, 100
2, 161280, Note_on_c, 0, 85, 100
2, 161280, Note_on_c, 0, 61, 100
2, 161280, Note_on_c, 0, 73, 100
2, 161520, Note_on_c, 0, 97, 0
2, 161520, Note_on_c, 0, 85, 0
2, 161520, Note_on_c, 0, 61, 0
2, 161520, Note_on_c, 0, 73, 0
2, 163170, Note_on_c, 0, 106, 0
2, 163170, Note_on_c, 0, 94, 0
2, 163170, Note_on_c, 0, 70, 0
2, 163170, Note_on_c, 0, 82, 0
2, 163170, Note_on_c, 0, 105, 100
2, 163170, Note_on_c, 0, 93, 100
2, 163170, Note_on_c, 0, 69, 100
2, 163170, Note_on_c, 0, 81, 100
2, 164640, Note_on_c, 0, 97, 100
2, 164640, Note_on_c, 0, 85, 100
2, 164640, Note_on_c, 0, 61, 100
2, 164640, Note_on_c, 0, 73, 100
2, 164880, Note_on_c, 0, 97, 0
2, 164880, Note_on_c, 0, 85, 0
2, 164880, Note_on_c, 0, 61, 0
2, 164880, Note_on_c, 0, 73, 0
2, 164880, Note_on_c, 0, 98, 100
2, 164880, Note_on_c, 0, 86, 100
2, 164880, Note_on_c, 0, 74, 100
2, 165090, Text_t, "gtr_on"
2, 165120, Note_on_c, 0, 98, 0
2, 165120, Note_on_c, 0, 86, 0
2, 165120, Note_on_c, 0, 74, 0
2, 165120, Note_on_c, 0, 97, 100
2, 165120, Note_on_c, 0, 85, 100
2, 165120, Note_on_c, 0, 61, 100
2, 165120, Note_on_c, 0, 73, 100
2, 168480, Note_on_c, 0, 61, 0
2, 168720, Note_on_c, 0, 97, 0
2, 168720, Note_on_c, 0, 85, 0
2, 168720, Note_on_c, 0, 73, 0
2, 168720, Note_on_c, 0, 97, 100
2, 168720, Note_on_c, 0, 85, 100
2, 168720, Note_on_c, 0, 61, 100
2, 168720, Note_on_c, 0, 73, 100
2, 168930, Text_t, "gtr_off"
2, 168960, Note_on_c, 0, 97, 0
2, 168960, Note_on_c, 0, 85, 0
2, 168960, Note_on_c, 0, 61, 0
2, 168960, Note_on_c, 0, 73, 0
2, 170850, Note_on_c, 0, 106, 100
2, 170850, Note_on_c, 0, 94, 100
2, 170850, Note_on_c, 0, 70, 100
2, 170850, Note_on_c, 0, 82, 100
2, 172290, Text_t, "gtr_on"
2, 172290, Note_on_c, 0, 103, 100
2, 172290, Note_on_c, 0, 91, 100
2, 172290, Note_on_c, 0, 79, 100
2, 172290, Note_on_c, 0, 67, 100
2, 172320, Note_on_c, 0, 98, 100
2, 172320, Note_on_c, 0, 86, 100
2, 172320, Note_on_c, 0, 62, 100
2, 172320, Note_on_c, 0, 74, 100
2, 172560, Note_on_c, 0, 98, 0
2, 172560, Note_on_c, 0, 86, 0
2, 172560, Note_on_c, 0, 62, 0
2, 172560, Note_on_c, 0, 74, 0
2, 172560, Note_on_c, 0, 99, 100
2, 172560, Note_on_c, 0, 87, 100
2, 172560, Note_on_c, 0, 75, 100
2, 172800, Note_on_c, 0, 99, 0
2, 172800, Note_on_c, 0, 87, 0
2, 172800, Note_on_c, 0, 75, 0
2, 172800, Note_on_c, 0, 98, 100
2, 172800, Note_on_c, 0, 86, 100
2, 172800, Note_on_c, 0, 62, 100
2, 172800, Note_on_c, 0, 74, 100
2, 176610, Text_t, "gtr_off"
2, 179970, Text_t, "gtr_on"
2, 180240, Note_on_c, 0, 62, 0
2, 180450, Note_on_c, 0, 103, 0
2, 180450, Note_on_c, 0, 91, 0
2, 180450, Note_on_c, 0, 79, 0
2, 180450, Note_on_c, 0, 67, 0
2, 180480, Note_on_c, 0, 98, 0
2, 180480, Note_on_c, 0, 86, 0
2, 180480, Note_on_c, 0, 74, 0
2, 180480, Note_on_c, 0, 97, 100
2, 180480, Note_on_c, 0, 85, 100
2, 180480, Note_on_c, 0, 61, 100
2, 180480, Note_on_c, 0, 73, 100
2, 187440, Note_on_c, 0, 61, 0
2, 187680, Note_on_c, 0, 97, 0
2, 187680, Note_on_c, 0, 85, 0
2, 187680, Note_on_c, 0, 73, 0
2, 187680, Note_on_c, 0, 98, 100
2, 187680, Note_on_c, 0, 86, 100
2, 187680, Note_on_c, 0, 62, 100
2, 187680, Note_on_c, 0, 74, 100
2, 187920, Note_on_c, 0, 98, 0
2, 187920, Note_on_c, 0, 86, 0
2, 187920, Note_on_c, 0, 62, 0
2, 187920, Note_on_c, 0, 74, 0
2, 188130, Note_on_c, 0, 105, 0
2, 188130, Note_on_c, 0, 93, 0
2, 188130, Note_on_c, 0, 69, 0
2, 188130, Note_on_c, 0, 81, 0
2, 188640, Note_on_c, 0, 99, 100
2, 188640, Note_on_c, 0, 87, 100
2, 188640, Note_on_c, 0, 62, 100
2, 188640, Note_on_c, 0, 75, 100
2, 188880, Note_on_c, 0, 99, 0
2, 188880, Note_on_c, 0, 87, 0
2, 188880, Note_on_c, 0, 62, 0
2, 188880, Note_on_c, 0, 75, 0
2, 189120, Note_on_c, 0, 99, 100
2, 189120, Note_on_c, 0, 87, 100
2, 189120, Note_on_c, 0, 62, 100
2, 189120, Note_on_c, 0, 75, 100
2, 189360, Note_on_c, 0, 99, 0
2, 189360, Note_on_c, 0, 87, 0
2, 189360, Note_on_c, 0, 62, 0
2, 189360, Note_on_c, 0, 75, 0
2, 189360, Note_on_c, 0, 98, 100
2, 189360, Note_on_c, 0, 86, 100
2, 189600, Note_on_c, 0, 98, 0
2, 189600, Note_on_c, 0, 86, 0
2, 189600, Note_on_c, 0, 97, 100
2, 189600, Note_on_c, 0, 85, 100
2, 189600, Note_on_c, 0, 73, 100
2, 189840, Note_on_c, 0, 97, 0
2, 189840, Note_on_c, 0, 85, 0
2, 189840, Note_on_c, 0, 73, 0
2, 189840, Note_on_c, 0, 98, 100
2, 189840, Note_on_c, 0, 86, 100
2, 190080, Note_on_c, 0, 98, 0
2, 190080, Note_on_c, 0, 86, 0
2, 190080, Note_on_c, 0, 99, 100
2, 190080, Note_on_c, 0, 87, 100
2, 190080, Note_on_c, 0, 62, 100
2, 190080, Note_on_c, 0, 75, 100
2, 190320, Note_on_c, 0, 99, 0
2, 190320, Note_on_c, 0, 87, 0
2, 190320, Note_on_c, 0, 62, 0
2, 190320, Note_on_c, 0, 75, 0
2, 190560, Note_on_c, 0, 99, 100
2, 190560, Note_on_c, 0, 87, 100
2, 190560, Note_on_c, 0, 75, 100
2, 190560, Note_on_c, 0, 62, 100
2, 190800, Note_on_c, 0, 99, 0
2, 190800, Note_on_c, 0, 87, 0
2, 190800, Note_on_c, 0, 75, 0
2, 190800, Note_on_c, 0, 62, 0
2, 190800, Note_on_c, 0, 96, 100
2, 190800, Note_on_c, 0, 84, 100
2, 190800, Note_on_c, 0, 60, 100
2, 190800, Note_on_c, 0, 72, 100
2, 191040, Note_on_c, 0, 60, 0
2, 191040, Note_on_c, 0, 72, 0
2, 191250, Note_on_c, 0, 106, 0
2, 191250, Note_on_c, 0, 94, 0
2, 191250, Note_on_c, 0, 70, 0
2, 191250, Note_on_c, 0, 82, 0
2, 191250, Note_on_c, 0, 105, 100
2, 191250, Note_on_c, 0, 93, 100
2, 191250, Note_on_c, 0, 69, 100
2, 191250, Note_on_c, 0, 81, 100
2, 191520, Note_on_c, 0, 96, 0
2, 191520, Note_on_c, 0, 84, 0
2, 191520, Note_on_c, 0, 99, 100
2, 191520, Note_on_c, 0, 87, 100
2, 191520, Note_on_c, 0, 75, 100
2, 191520, Note_on_c, 0, 62, 100
2, 191760, Note_on_c, 0, 99, 0
2, 191760, Note_on_c, 0, 87, 0
2, 191760, Note_on_c, 0, 75, 0
2, 191760, Note_on_c, 0, 62, 0
2, 192000, Note_on_c, 0, 99, 100
2, 192000, Note_on_c, 0, 87, 100
2, 192000, Note_on_c, 0, 75, 100
2, 192000, Note_on_c, 0, 62, 100
2, 192240, Note_on_c, 0, 99, 0
2, 192240, Note_on_c, 0, 87, 0
2, 192240, Note_on_c, 0, 75, 0
2, 192240, Note_on_c, 0, 62, 0
2, 192240, Note_on_c, 0, 98, 100
2, 192240, Note_on_c, 0, 86, 100
2, 192480, Note_on_c, 0, 98, 0
2, 192480, Note_on_c, 0, 86, 0
2, 192480, Note_on_c, 0, 97, 100
2, 192480, Note_on_c, 0, 85, 100
2, 192480, Note_on_c, 0, 73, 100
2, 192720, Note_on_c, 0, 97, 0
2, 192720, Note_on_c, 0, 85, 0
2, 192720, Note_on_c, 0, 73, 0
2, 192720, Note_on_c, 0, 98, 100
2, 192720, Note_on_c, 0, 86, 100
2, 192960, Note_on_c, 0, 98, 0
2, 192960, Note_on_c, 0, 86, 0
2, 192960, Note_on_c, 0, 99, 100
2, 192960, Note_on_c, 0, 87, 100
2, 192960, Note_on_c, 0, 75, 100
2, 192960, Note_on_c, 0, 62, 100
2, 193200, Note_on_c, 0, 99, 0
2, 193200, Note_on_c, 0, 87, 0
2, 193200, Note_on_c, 0, 75, 0
2, 193200, Note_on_c, 0, 62, 0
2, 193440, Note_on_c, 0, 99, 100
2, 193440, Note_on_c, 0, 87, 100
2, 193440, Note_on_c, 0, 75, 100
2, 193440, Note_on_c, 0, 62, 100
2, 193680, Note_on_c, 0, 99, 0
2, 193680, Note_on_c, 0, 87, 0
2, 193680, Note_on_c, 0, 75, 0
2, 193680, Note_on_c, 0, 62, 0
2, 193680, Note_on_c, 0, 96, 100
2, 193680, Note_on_c, 0, 84, 100
2, 193680, Note_on_c, 0, 72, 100
2, 193680, Note_on_c, 0, 60, 100
2, 193920, Note_on_c, 0, 72, 0
2, 193920, Note_on_c, 0, 60, 0
2, 194130, Note_on_c, 0, 105, 0
2, 194130, Note_on_c, 0, 93, 0
2, 194130, Note_on_c, 0, 69, 0
2, 194130, Note_on_c, 0, 81, 0
2, 194130, Note_on_c, 0, 106, 100
2, 194130, Note_on_c, 0, 94, 100
2, 194130, Note_on_c, 0, 70, 100
2, 194130, Note_on_c, 0, 82, 100
2, 194400, Note_on_c, 0, 96, 0
2, 194400, Note_on_c, 0, 84, 0
2, 194400, Note_on_c, 0, 99, 100
2, 194400, Note_on_c, 0, 87, 100
2, 194400, Note_on_c, 0, 75, 100
2, 194400, Note_on_c, 0, 62, 100
2, 194640, Note_on_c, 0, 99, 0
2, 194640, Note_on_c, 0, 87, 0
2, 194640, Note_on_c, 0, 75, 0
2, 194640, Note_on_c, 0, 62, 0
2, 194880, Note_on_c, 0, 99, 100
2, 194880, Note_on_c, 0, 87, 100
2, 194880, Note_on_c, 0, 75, 100
2, 194880, Note_on_c, 0, 62, 100
2, 195120, Note_on_c, 0, 99, 0
2, 195120, Note_on_c, 0, 87, 0
2, 195120, Note_on_c, 0, 75, 0
2, 195120, Note_on_c, 0, 62, 0
2, 195120, Note_on_c, 0, 98, 100
2, 195120, Note_on_c, 0, 86, 100
2, 195360, Note_on_c, 0, 98, 0
2, 195360, Note_on_c, 0, 86, 0
2, 195360, Note_on_c, 0, 97, 100
2, 195360, Note_on_c, 0, 85, 100
2, 195360, Note_on_c, 0, 73, 100
2, 195600, Note_on_c, 0, 97, 0
2, 195600, Note_on_c, 0, 85, 0
2, 195600, Note_on_c, 0, 73, 0
2, 195600, Note_on_c, 0, 98, 100
2, 195600, Note_on_c, 0, 86, 100
2, 195810, Text_t, "[verse]"
2, 195840, Note_on_c, 0, 98, 0
2, 195840, Note_on_c, 0, 86, 0
2, 195840, Note_on_c, 0, 99, 100
2, 195840, Note_on_c, 0, 87, 100
2, 195840, Note_on_c, 0, 75, 100
2, 195840, Note_on_c, 0, 62, 100
2, 196080, Note_on_c, 0, 99, 0
2, 196080, Note_on_c, 0, 87, 0
2, 196080, Note_on_c, 0, 75, 0
2, 196080, Note_on_c, 0, 62, 0
2, 196320, Note_on_c, 0, 99, 100
2, 196320, Note_on_c, 0, 87, 100
2, 196320, Note_on_c, 0, 75, 100
2, 196320, Note_on_c, 0, 62, 100
2, 196560, Note_on_c, 0, 99, 0
2, 196560, Note_on_c, 0, 87, 0
2, 196560, Note_on_c, 0, 75, 0
2, 196560, Note_on_c, 0, 62, 0
2, 196560, Note_on_c, 0, 96, 100
2, 196560, Note_on_c, 0, 84, 100
2, 196560, Note_on_c, 0, 72, 100
2, 196560, Note_on_c, 0, 60, 100
2, 196800, Note_on_c, 0, 72, 0
2, 196800, Note_on_c, 0, 60, 0
2, 197010, Note_on_c, 0, 106, 0
2, 197010, Note_on_c, 0, 94, 0
2, 197010, Note_on_c, 0, 70, 0
2, 197010, Note_on_c, 0, 82, 0
2, 197010, Note_on_c, 0, 105, 100
2, 197010, Note_on_c, 0, 93, 100
2, 197010, Note_on_c, 0, 69, 100
2, 197010, Note_on_c, 0, 81, 100
2, 197280, Note_on_c, 0, 96, 0
2, 197280, Note_on_c, 0, 84, 0
2, 197280, Note_on_c, 0, 99, 100
2, 197280, Note_on_c, 0, 87, 100
2, 197280, Note_on_c, 0, 75, 100
2, 197280, Note_on_c, 0, 62, 100
2, 197520, Note_on_c, 0, 99, 0
2, 197520, Note_on_c, 0, 87, 0
2, 197520, Note_on_c, 0, 75, 0
2, 197520, Note_on_c, 0, 62, 0
2, 197760, Note_on_c, 0, 99, 100
2, 197760, Note_on_c, 0, 87, 100
2, 197760, Note_on_c, 0, 75, 100
2, 197760, Note_on_c, 0, 62, 100
2, 198000, Note_on_c, 0, 99, 0
2, 198000, Note_on_c, 0, 87, 0
2, 198000, Note_on_c, 0, 75, 0
2, 198000, Note_on_c, 0, 62, 0
2, 198000, Note_on_c, 0, 98, 100
2, 198000, Note_on_c, 0, 86, 100
2, 198240, Note_on_c, 0, 98, 0
2, 198240, Note_on_c, 0, 86, 0
2, 198240, Note_on_c, 0, 97, 100
2, 198240, Note_on_c, 0, 85, 100
2, 198240, Note_on_c, 0, 73, 100
2, 198480, Note_on_c, 0, 97, 0
2, 198480, Note_on_c, 0, 85, 0
2, 198480, Note_on_c, 0, 73, 0
2, 198480, Note_on_c, 0, 98, 100
2, 198480, Note_on_c, 0, 86, 100
2, 198690, Note_on_c, 0, 106, 100
2, 198690, Note_on_c, 0, 94, 100
2, 198690, Note_on_c, 0, 70, 100
2, 198690, Note_on_c, 0, 82, 100
2, 198720, Note_on_c, 0, 98, 0
2, 198720, Note_on_c, 0, 86, 0
2, 198720, Note_on_c, 0, 99, 100
2, 198720, Note_on_c, 0, 87, 100
2, 198720, Note_on_c, 0, 75, 100
2, 198720, Note_on_c, 0, 62, 100
2, 198960, Note_on_c, 0, 99, 0
2, 198960, Note_on_c, 0, 87, 0
2, 198960, Note_on_c, 0, 75, 0
2, 198960, Note_on_c, 0, 62, 0
2, 198960, Note_on_c, 0, 99, 100
2, 198960, Note_on_c, 0, 87, 100
2, 198960, Note_on_c, 0, 75, 100
2, 199200, Note_on_c, 0, 99, 0
2, 199200, Note_on_c, 0, 87, 0
2, 199200, Note_on_c, 0, 75, 0
2, 199200, Note_on_c, 0, 99, 100
2, 199200, Note_on_c, 0, 87, 100
2, 199200, Note_on_c, 0, 75, 100
2, 199200, Note_on_c, 0, 62, 100
2, 199440, Note_on_c, 0, 99, 0
2, 199440, Note_on_c, 0, 87, 0
2, 199440, Note_on_c, 0, 75, 0
2, 199440, Note_on_c, 0, 62, 0
2, 199440, Note_on_c, 0, 99, 100
2, 199440, Note_on_c, 0, 87, 100
2, 199440, Note_on_c, 0, 75, 100
2, 199650, Note_on_c, 0, 105, 0
2, 199650, Note_on_c, 0, 93, 0
2, 199650, Note_on_c, 0, 69, 0
2, 199650, Note_on_c, 0, 81, 0
2, 199680, Note_on_c, 0, 99, 0
2, 199680, Note_on_c, 0, 87, 0
2, 199680, Note_on_c, 0, 75, 0
2, 199680, Note_on_c, 0, 96, 100
2, 199680, Note_on_c, 0, 60, 100
2, 199680, Note_on_c, 0, 84, 100
2, 199680, Note_on_c, 0, 72, 100
2, 199920, Note_on_c, 0, 96, 0
2, 199920, Note_on_c, 0, 60, 0
2, 199920, Note_on_c, 0, 84, 0
2, 199920, Note_on_c, 0, 72, 0
2, 200144, Note_on_c, 0, 99, 100
2, 200160, Note_on_c, 0, 62, 100
2, 200160, Note_on_c, 0, 87, 100
2, 200160, Note_on_c, 0, 75, 100
2, 200384, Note_on_c, 0, 99, 0
2, 200400, Note_on_c, 0, 62, 0
2, 200400, Note_on_c, 0, 87, 0
2, 200400, Note_on_c, 0, 75, 0
2, 200624, Note_on_c, 0, 99, 100
2, 200640, Note_on_c, 0, 62, 100
2, 200640, Note_on_c, 0, 87, 100
2, 200640, Note_on_c, 0, 75, 100
2, 200864, Note_on_c, 0, 99, 0
2, 200864, Note_on_c, 0, 98, 100
2, 200880, Note_on_c, 0, 62, 0
2, 200880, Note_on_c, 0, 87, 0
2, 200880, Note_on_c, 0, 75, 0
2, 200880, Note_on_c, 0, 86, 100
2, 201104, Note_on_c, 0, 98, 0
2, 201104, Note_on_c, 0, 97, 100
2, 201120, Note_on_c, 0, 86, 0
2, 201120, Note_on_c, 0, 85, 100
2, 201120, Note_on_c, 0, 73, 100
2, 201344, Note_on_c, 0, 97, 0
2, 201344, Note_on_c, 0, 98, 100
2, 201360, Note_on_c, 0, 85, 0
2, 201360, Note_on_c, 0, 73, 0
2, 201360, Note_on_c, 0, 86, 100
2, 201584, Note_on_c, 0, 98, 0
2, 201584, Note_on_c, 0, 99, 100
2, 201600, Note_on_c, 0, 86, 0
2, 201600, Note_on_c, 0, 62, 100
2, 201600, Note_on_c, 0, 87, 100
2, 201600, Note_on_c, 0, 75, 100
2, 201824, Note_on_c, 0, 99, 0
2, 201840, Note_on_c, 0, 62, 0
2, 201840, Note_on_c, 0, 87, 0
2, 201840, Note_on_c, 0, 75, 0
2, 202064, Note_on_c, 0, 99, 100
2, 202080, Note_on_c, 0, 87, 100
2, 202080, Note_on_c, 0, 75, 100
2, 202080, Note_on_c, 0, 62, 100
2, 202304, Note_on_c, 0, 99, 0
2, 202304, Note_on_c, 0, 96, 100
2, 202320, Note_on_c, 0, 87, 0
2, 202320, Note_on_c, 0, 75, 0
2, 202320, Note_on_c, 0, 62, 0
2, 202320, Note_on_c, 0, 60, 100
2, 202320, Note_on_c, 0, 84, 100
2, 202320, Note_on_c, 0, 72, 100
2, 202560, Note_on_c, 0, 60, 0
2, 202560, Note_on_c, 0, 72, 0
2, 202770, Note_on_c, 0, 106, 0
2, 202770, Note_on_c, 0, 94, 0
2, 202770, Note_on_c, 0, 70, 0
2, 202770, Note_on_c, 0, 82, 0
2, 202770, Note_on_c, 0, 105, 100
2, 202770, Note_on_c, 0, 93, 100
2, 202770, Note_on_c, 0, 69, 100
2, 202770, Note_on_c, 0, 81, 100
2, 203024, Note_on_c, 0, 96, 0
2, 203024, Note_on_c, 0, 99, 100
2, 203040, Note_on_c, 0, 84, 0
2, 203040, Note_on_c, 0, 62, 100
2, 203040, Note_on_c, 0, 87, 100
2, 203040, Note_on_c, 0, 75, 100
2, 203264, Note_on_c, 0, 99, 0
2, 203280, Note_on_c, 0, 62, 0
2, 203280, Note_on_c, 0, 87, 0
2, 203280, Note_on_c, 0, 75, 0
2, 203504, Note_on_c, 0, 99, 100
2, 203520, Note_on_c, 0, 62, 100
2, 203520, Note_on_c, 0, 87, 100
2, 203520, Note_on_c, 0, 75, 100
2, 203744, Note_on_c, 0, 99, 0
2, 203744, Note_on_c, 0, 98, 100
2, 203760, Note_on_c, 0, 62, 0
2, 203760, Note_on_c, 0, 87, 0
2, 203760, Note_on_c, 0, 75, 0
2, 203760, Note_on_c, 0, 86, 100
2, 203984, Note_on_c, 0, 98, 0
2, 203984, Note_on_c, 0, 97, 100
2, 204000, Note_on_c, 0, 86, 0
2, 204000, Note_on_c, 0, 85, 100
2, 204000, Note_on_c, 0, 73, 100
2, 204224, Note_on_c, 0, 97, 0
2, 204224, Note_on_c, 0, 98, 100
2, 204240, Note_on_c, 0, 85, 0
2, 204240, Note_on_c, 0, 73, 0
2, 204240, Note_on_c, 0, 86, 100
2, 204464, Note_on_c, 0, 98, 0
2, 204464, Note_on_c, 0, 99, 100
2, 204480, Note_on_c, 0, 86, 0
2, 204480, Note_on_c, 0, 62, 100
2, 204480, Note_on_c, 0, 87, 100
2, 204480, Note_on_c, 0, 75, 100
2, 204704, Note_on_c, 0, 99, 0
2, 204720, Note_on_c, 0, 62, 0
2, 204720, Note_on_c, 0, 87, 0
2, 204720, Note_on_c, 0, 75, 0
2, 204944, Note_on_c, 0, 99, 100
2, 204960, Note_on_c, 0, 87, 100
2, 204960, Note_on_c, 0, 75, 100
2, 205184, Note_on_c, 0, 99, 0
2, 205184, Note_on_c, 0, 96, 100
2, 205200, Note_on_c, 0, 87, 0
2, 205200, Note_on_c, 0, 75, 0
2, 205200, Note_on_c, 0, 60, 100
2, 205200, Note_on_c, 0, 84, 100
2, 205200, Note_on_c, 0, 72, 100
2, 205440, Note_on_c, 0, 60, 0
2, 205440, Note_on_c, 0, 72, 0
2, 205650, Note_on_c, 0, 105, 0
2, 205650, Note_on_c, 0, 93, 0
2, 205650, Note_on_c, 0, 69, 0
2, 205650, Note_on_c, 0, 81, 0
2, 205650, Note_on_c, 0, 106, 100
2, 205650, Note_on_c, 0, 94, 100
2, 205650, Note_on_c, 0, 70, 100
2, 205650, Note_on_c, 0, 82, 100
2, 205904, Note_on_c, 0, 96, 0
2, 205920, Note_on_c, 0, 84, 0
2, 205920, Note_on_c, 0, 99, 100
2, 205920, Note_on_c, 0, 62, 100
2, 205920, Note_on_c, 0, 87, 100
2, 205920, Note_on_c, 0, 75, 100
2, 206160, Note_on_c, 0, 99, 0
2, 206160, Note_on_c, 0, 62, 0
2, 206160, Note_on_c, 0, 87, 0
2, 206160, Note_on_c, 0, 75, 0
2, 206370, Text_t, "drum_allbeat"
2, 206400, Note_on_c, 0, 99, 100
2, 206400, Note_on_c, 0, 62, 100
2, 206400, Note_on_c, 0, 87, 100
2, 206400, Note_on_c, 0, 75, 100
2, 206640, Note_on_c, 0, 99, 0
2, 206640, Note_on_c, 0, 62, 0
2, 206640, Note_on_c, 0, 87, 0
2, 206640, Note_on_c, 0, 75, 0
2, 206640, Note_on_c, 0, 98, 100
2, 206640, Note_on_c, 0, 86, 100
2, 206880, Note_on_c, 0, 98, 0
2, 206880, Note_on_c, 0, 86, 0
2, 206880, Note_on_c, 0, 97, 100
2, 206880, Note_on_c, 0, 85, 100
2, 206880, Note_on_c, 0, 73, 100
2, 207120, Note_on_c, 0, 97, 0
2, 207120, Note_on_c, 0, 85, 0
2, 207120, Note_on_c, 0, 73, 0
2, 207120, Note_on_c, 0, 98, 100
2, 207120, Note_on_c, 0, 86, 100
2, 207330, Text_t, "drum_normal"
2, 207360, Note_on_c, 0, 98, 0
2, 207360, Note_on_c, 0, 86, 0
2, 207360, Note_on_c, 0, 99, 100
2, 207360, Note_on_c, 0, 62, 100
2, 207360, Note_on_c, 0, 87, 100
2, 207360, Note_on_c, 0, 75, 100
2, 207600, Note_on_c, 0, 99, 0
2, 207600, Note_on_c, 0, 62, 0
2, 207600, Note_on_c, 0, 87, 0
2, 207600, Note_on_c, 0, 75, 0
2, 207840, Note_on_c, 0, 99, 100
2, 207840, Note_on_c, 0, 87, 100
2, 207840, Note_on_c, 0, 75, 100
2, 208080, Note_on_c, 0, 99, 0
2, 208080, Note_on_c, 0, 87, 0
2, 208080, Note_on_c, 0, 75, 0
2, 208080, Note_on_c, 0, 96, 100
2, 208080, Note_on_c, 0, 60, 100
2, 208080, Note_on_c, 0, 84, 100
2, 208080, Note_on_c, 0, 72, 100
2, 208320, Note_on_c, 0, 60, 0
2, 208320, Note_on_c, 0, 72, 0
2, 208530, Note_on_c, 0, 106, 0
2, 208530, Note_on_c, 0, 94, 0
2, 208530, Note_on_c, 0, 70, 0
2, 208530, Note_on_c, 0, 82, 0
2, 208530, Note_on_c, 0, 105, 100
2, 208530, Note_on_c, 0, 93, 100
2, 208530, Note_on_c, 0, 69, 100
2, 208530, Note_on_c, 0, 81, 100
2, 208800, Note_on_c, 0, 96, 0
2, 208800, Note_on_c, 0, 84, 0
2, 208800, Note_on_c, 0, 99, 100
2, 208800, Note_on_c, 0, 62, 100
2, 208800, Note_on_c, 0, 87, 100
2, 208800, Note_on_c, 0, 75, 100
2, 209040, Note_on_c, 0, 99, 0
2, 209040, Note_on_c, 0, 62, 0
2, 209040, Note_on_c, 0, 87, 0
2, 209040, Note_on_c, 0, 75, 0
2, 209280, Note_on_c, 0, 99, 100
2, 209280, Note_on_c, 0, 62, 100
2, 209280, Note_on_c, 0, 87, 100
2, 209280, Note_on_c, 0, 75, 100
2, 209520, Note_on_c, 0, 99, 0
2, 209520, Note_on_c, 0, 62, 0
2, 209520, Note_on_c, 0, 87, 0
2, 209520, Note_on_c, 0, 75, 0
2, 209520, Note_on_c, 0, 98, 100
2, 209520, Note_on_c, 0, 86, 100
2, 209760, Note_on_c, 0, 98, 0
2, 209760, Note_on_c, 0, 86, 0
2, 209760, Note_on_c, 0, 97, 100
2, 209760, Note_on_c, 0, 85, 100
2, 209760, Note_on_c, 0, 73, 100
2, 210000, Note_on_c, 0, 97, 0
2, 210000, Note_on_c, 0, 85, 0
2, 210000, Note_on_c, 0, 73, 0
2, 210000, Note_on_c, 0, 98, 100
2, 210000, Note_on_c, 0, 86, 100
2, 210210, Note_on_c, 0, 106, 100
2, 210210, Note_on_c, 0, 94, 100
2, 210210, Note_on_c, 0, 70, 100
2, 210210, Note_on_c, 0, 82, 100
2, 210210, Note_on_c, 0, 103, 100
2, 210210, Note_on_c, 0, 91, 100
2, 210210, Note_on_c, 0, 79, 100
2, 210210, Note_on_c, 0, 67, 100
2, 210240, Note_on_c, 0, 98, 0
2, 210240, Note_on_c, 0, 86, 0
2, 210240, Note_on_c, 0, 99, 100
2, 210240, Note_on_c, 0, 62, 100
2, 210240, Note_on_c, 0, 87, 100
2, 210240, Note_on_c, 0, 75, 100
2, 210480, Note_on_c, 0, 99, 0
2, 210480, Note_on_c, 0, 62, 0
2, 210480, Note_on_c, 0, 87, 0
2, 210480, Note_on_c, 0, 75, 0
2, 210480, Note_on_c, 0, 99, 100
2, 210480, Note_on_c, 0, 87, 100
2, 210480, Note_on_c, 0, 75, 100
2, 210720, Note_on_c, 0, 99, 0
2, 210720, Note_on_c, 0, 87, 0
2, 210720, Note_on_c, 0, 75, 0
2, 210720, Note_on_c, 0, 99, 100
2, 210720, Note_on_c, 0, 62, 100
2, 210720, Note_on_c, 0, 87, 100
2, 210720, Note_on_c, 0, 75, 100
2, 210960, Note_on_c, 0, 99, 0
2, 210960, Note_on_c, 0, 62, 0
2, 210960, Note_on_c, 0, 87, 0
2, 210960, Note_on_c, 0, 75, 0
2, 210960, Note_on_c, 0, 99, 100
2, 210960, Note_on_c, 0, 87, 100
2, 210960, Note_on_c, 0, 75, 100
2, 211170, Note_on_c, 0, 105, 0
2, 211170, Note_on_c, 0, 93, 0
2, 211170, Note_on_c, 0, 69, 0
2, 211170, Note_on_c, 0, 81, 0
2, 211170, Note_on_c, 0, 103, 0
2, 211170, Note_on_c, 0, 91, 0
2, 211170, Note_on_c, 0, 79, 0
2, 211170, Note_on_c, 0, 67, 0
2, 211200, Note_on_c, 0, 99, 0
2, 211200, Note_on_c, 0, 87, 0
2, 211200, Note_on_c, 0, 75, 0
2, 211200, Note_on_c, 0, 96, 100
2, 211200, Note_on_c, 0, 60, 100
2, 211200, Note_on_c, 0, 84, 100
2, 211200, Note_on_c, 0, 72, 100
2, 211440, Note_on_c, 0, 96, 0
2, 211440, Note_on_c, 0, 60, 0
2, 211440, Note_on_c, 0, 84, 0
2, 211440, Note_on_c, 0, 72, 0
2, 211680, Note_on_c, 0, 99, 100
2, 211680, Note_on_c, 0, 62, 100
2, 211680, Note_on_c, 0, 87, 100
2, 211680, Note_on_c, 0, 75, 100
2, 211920, Note_on_c, 0, 99, 0
2, 211920, Note_on_c, 0, 62, 0
2, 211920, Note_on_c, 0, 87, 0
2, 211920, Note_on_c, 0, 75, 0
2, 212160, Note_on_c, 0, 99, 100
2, 212160, Note_on_c, 0, 62, 100
2, 212160, Note_on_c, 0, 87, 100
2, 212160, Note_on_c, 0, 75, 100
2, 212400, Note_on_c, 0, 99, 0
2, 212400, Note_on_c, 0, 62, 0
2, 212400, Note_on_c, 0, 87, 0
2, 212400, Note_on_c, 0, 75, 0
2, 212400, Note_on_c, 0, 98, 100
2, 212400, Note_on_c, 0, 86, 100
2, 212640, Note_on_c, 0, 98, 0
2, 212640, Note_on_c, 0, 86, 0
2, 212640, Note_on_c, 0, 97, 100
2, 212640, Note_on_c, 0, 85, 100
2, 212640, Note_on_c, 0, 73, 100
2, 212880, Note_on_c, 0, 97, 0
2, 212880, Note_on_c, 0, 85, 0
2, 212880, Note_on_c, 0, 73, 0
2, 212880, Note_on_c, 0, 98, 100
2, 212880, Note_on_c, 0, 86, 100
2, 213120, Note_on_c, 0, 98, 0
2, 213120, Note_on_c, 0, 86, 0
2, 213120, Note_on_c, 0, 99, 100
2, 213120, Note_on_c, 0, 62, 100
2, 213120, Note_on_c, 0, 87, 100
2, 213120, Note_on_c, 0, 75, 100
2, 213360, Note_on_c, 0, 99, 0
2, 213360, Note_on_c, 0, 62, 0
2, 213360, Note_on_c, 0, 87, 0
2, 213360, Note_on_c, 0, 75, 0
2, 213600, Note_on_c, 0, 99, 100
2, 213600, Note_on_c, 0, 87, 100
2, 213600, Note_on_c, 0, 75, 100
2, 213840, Note_on_c, 0, 99, 0
2, 213840, Note_on_c, 0, 87, 0
2, 213840, Note_on_c, 0, 75, 0
2, 213840, Note_on_c, 0, 96, 100
2, 213840, Note_on_c, 0, 60, 100
2, 213840, Note_on_c, 0, 84, 100
2, 213840, Note_on_c, 0, 72, 100
2, 214080, Note_on_c, 0, 60, 0
2, 214080, Note_on_c, 0, 72, 0
2, 214290, Note_on_c, 0, 106, 0
2, 214290, Note_on_c, 0, 94, 0
2, 214290, Note_on_c, 0, 70, 0
2, 214290, Note_on_c, 0, 82, 0
2, 214290, Note_on_c, 0, 105, 100
2, 214290, Note_on_c, 0, 93, 100
2, 214290, Note_on_c, 0, 69, 100
2, 214290, Note_on_c, 0, 81, 100
2, 214560, Note_on_c, 0, 96, 0
2, 214560, Note_on_c, 0, 84, 0
2, 214560, Note_on_c, 0, 99, 100
2, 214560, Note_on_c, 0, 62, 100
2, 214560, Note_on_c, 0, 87, 100
2, 214560, Note_on_c, 0, 75, 100
2, 214800, Note_on_c, 0, 99, 0
2, 214800, Note_on_c, 0, 62, 0
2, 214800, Note_on_c, 0, 87, 0
2, 214800, Note_on_c, 0, 75, 0
2, 215040, Note_on_c, 0, 99, 100
2, 215040, Note_on_c, 0, 62, 100
2, 215040, Note_on_c, 0, 87, 100
2, 215040, Note_on_c, 0, 75, 100
2, 215280, Note_on_c, 0, 99, 0
2, 215280, Note_on_c, 0, 62, 0
2, 215280, Note_on_c, 0, 87, 0
2, 215280, Note_on_c, 0, 75, 0
2, 215280, Note_on_c, 0, 98, 100
2, 215280, Note_on_c, 0, 86, 100
2, 215520, Note_on_c, 0, 98, 0
2, 215520, Note_on_c, 0, 86, 0
2, 215520, Note_on_c, 0, 97, 100
2, 215520, Note_on_c, 0, 85, 100
2, 215520, Note_on_c, 0, 73, 100
2, 215760, Note_on_c, 0, 97, 0
2, 215760, Note_on_c, 0, 85, 0
2, 215760, Note_on_c, 0, 73, 0
2, 215760, Note_on_c, 0, 98, 100
2, 215760, Note_on_c, 0, 86, 100
2, 216000, Note_on_c, 0, 98, 0
2, 216000, Note_on_c, 0, 86, 0
2, 216000, Note_on_c, 0, 99, 100
2, 216000, Note_on_c, 0, 62, 100
2, 216000, Note_on_c, 0, 87, 100
2, 216000, Note_on_c, 0, 75, 100
2, 216240, Note_on_c, 0, 99, 0
2, 216240, Note_on_c, 0, 62, 0
2, 216240, Note_on_c, 0, 87, 0
2, 216240, Note_on_c, 0, 75, 0
2, 216480, Note_on_c, 0, 99, 100
2, 216480, Note_on_c, 0, 87, 100
2, 216480, Note_on_c, 0, 75, 100
2, 216720, Note_on_c, 0, 99, 0
2, 216720, Note_on_c, 0, 87, 0
2, 216720, Note_on_c, 0, 75, 0
2, 216720, Note_on_c, 0, 96, 100
2, 216720, Note_on_c, 0, 60, 100
2, 216720, Note_on_c, 0, 84, 100
2, 216720, Note_on_c, 0, 72, 100
2, 216960, Note_on_c, 0, 60, 0
2, 216960, Note_on_c, 0, 72, 0
2, 217170, Note_on_c, 0, 105, 0
2, 217170, Note_on_c, 0, 93, 0
2, 217170, Note_on_c, 0, 69, 0
2, 217170, Note_on_c, 0, 81, 0
2, 217170, Note_on_c, 0, 106, 100
2, 217170, Note_on_c, 0, 94, 100
2, 217170, Note_on_c, 0, 70, 100
2, 217170, Note_on_c, 0, 82, 100
2, 217440, Note_on_c, 0, 96, 0
2, 217440, Note_on_c, 0, 84, 0
2, 217440, Note_on_c, 0, 99, 100
2, 217440, Note_on_c, 0, 62, 100
2, 217440, Note_on_c, 0, 87, 100
2, 217440, Note_on_c, 0, 75, 100
2, 217680, Note_on_c, 0, 99, 0
2, 217680, Note_on_c, 0, 62, 0
2, 217680, Note_on_c, 0, 87, 0
2, 217680, Note_on_c, 0, 75, 0
2, 217920, Note_on_c, 0, 99, 100
2, 217920, Note_on_c, 0, 62, 100
2, 217920, Note_on_c, 0, 87, 100
2, 217920, Note_on_c, 0, 75, 100
2, 218160, Note_on_c, 0, 99, 0
2, 218160, Note_on_c, 0, 62, 0
2, 218160, Note_on_c, 0, 87, 0
2, 218160, Note_on_c, 0, 75, 0
2, 218160, Note_on_c, 0, 98, 100
2, 218160, Note_on_c, 0, 86, 100
2, 218400, Note_on_c, 0, 98, 0
2, 218400, Note_on_c, 0, 86, 0
2, 218400, Note_on_c, 0, 97, 100
2, 218400, Note_on_c, 0, 85, 100
2, 218400, Note_on_c, 0, 73, 100
2, 218640, Note_on_c, 0, 97, 0
2, 218640, Note_on_c, 0, 85, 0
2, 218640, Note_on_c, 0, 73, 0
2, 218640, Note_on_c, 0, 98, 100
2, 218640, Note_on_c, 0, 86, 100
2, 218880, Note_on_c, 0, 98, 0
2, 218880, Note_on_c, 0, 86, 0
2, 218880, Note_on_c, 0, 99, 100
2, 218880, Note_on_c, 0, 62, 100
2, 218880, Note_on_c, 0, 87, 100
2, 218880, Note_on_c, 0, 75, 100
2, 219120, Note_on_c, 0, 99, 0
2, 219120, Note_on_c, 0, 62, 0
2, 219120, Note_on_c, 0, 87, 0
2, 219120, Note_on_c, 0, 75, 0
2, 219360, Note_on_c, 0, 99, 100
2, 219360, Note_on_c, 0, 87, 100
2, 219360, Note_on_c, 0, 75, 100
2, 219600, Note_on_c, 0, 99, 0
2, 219600, Note_on_c, 0, 87, 0
2, 219600, Note_on_c, 0, 75, 0
2, 219600, Note_on_c, 0, 96, 100
2, 219600, Note_on_c, 0, 60, 100
2, 219600, Note_on_c, 0, 84, 100
2, 219600, Note_on_c, 0, 72, 100
2, 219840, Note_on_c, 0, 60, 0
2, 219840, Note_on_c, 0, 72, 0
2, 220050, Note_on_c, 0, 106, 0
2, 220050, Note_on_c, 0, 94, 0
2, 220050, Note_on_c, 0, 70, 0
2, 220050, Note_on_c, 0, 82, 0
2, 220050, Note_on_c, 0, 105, 100
2, 220050, Note_on_c, 0, 93, 100
2, 220050, Note_on_c, 0, 69, 100
2, 220050, Note_on_c, 0, 81, 100
2, 220320, Note_on_c, 0, 96, 0
2, 220320, Note_on_c, 0, 84, 0
2, 220320, Note_on_c, 0, 99, 100
2, 220320, Note_on_c, 0, 62, 100
2, 220320, Note_on_c, 0, 87, 100
2, 220320, Note_on_c, 0, 75, 100
2, 220560, Note_on_c, 0, 99, 0
2, 220560, Note_on_c, 0, 62, 0
2, 220560, Note_on_c, 0, 87, 0
2, 220560, Note_on_c, 0, 75, 0
2, 220800, Note_on_c, 0, 99, 100
2, 220800, Note_on_c, 0, 62, 100
2, 220800, Note_on_c, 0, 87, 100
2, 220800, Note_on_c, 0, 75, 100
2, 221040, Note_on_c, 0, 99, 0
2, 221040, Note_on_c, 0, 62, 0
2, 221040, Note_on_c, 0, 87, 0
2, 221040, Note_on_c, 0, 75, 0
2, 221040, Note_on_c, 0, 98, 100
2, 221040, Note_on_c, 0, 86, 100
2, 221280, Note_on_c, 0, 98, 0
2, 221280, Note_on_c, 0, 86, 0
2, 221280, Note_on_c, 0, 97, 100
2, 221280, Note_on_c, 0, 85, 100
2, 221280, Note_on_c, 0, 73, 100
2, 221520, Note_on_c, 0, 97, 0
2, 221520, Note_on_c, 0, 85, 0
2, 221520, Note_on_c, 0, 73, 0
2, 221520, Note_on_c, 0, 98, 100
2, 221520, Note_on_c, 0, 86, 100
2, 221760, Note_on_c, 0, 98, 0
2, 221760, Note_on_c, 0, 86, 0
2, 221760, Note_on_c, 0, 99, 100
2, 221760, Note_on_c, 0, 62, 100
2, 221760, Note_on_c, 0, 87, 100
2, 221760, Note_on_c, 0, 74, 100
2, 222000, Note_on_c, 0, 99, 0
2, 222000, Note_on_c, 0, 62, 0
2, 222000, Note_on_c, 0, 87, 0
2, 222000, Note_on_c, 0, 74, 0
2, 222000, Note_on_c, 0, 99, 100
2, 222000, Note_on_c, 0, 87, 100
2, 222000, Note_on_c, 0, 74, 100
2, 222240, Note_on_c, 0, 99, 0
2, 222240, Note_on_c, 0, 87, 0
2, 222240, Note_on_c, 0, 74, 0
2, 222240, Note_on_c, 0, 99, 100
2, 222240, Note_on_c, 0, 62, 100
2, 222240, Note_on_c, 0, 87, 100
2, 222240, Note_on_c, 0, 74, 100
2, 222480, Note_on_c, 0, 99, 0
2, 222480, Note_on_c, 0, 62, 0
2, 222480, Note_on_c, 0, 87, 0
2, 222480, Note_on_c, 0, 74, 0
2, 222480, Note_on_c, 0, 99, 100
2, 222480, Note_on_c, 0, 87, 100
2, 222480, Note_on_c, 0, 74, 100
2, 222480, Note_on_c, 0, 97, 100
2, 222690, Note_on_c, 0, 106, 100
2, 222690, Note_on_c, 0, 94, 100
2, 222690, Note_on_c, 0, 70, 100
2, 222690, Note_on_c, 0, 82, 100
2, 222720, Note_on_c, 0, 99, 0
2, 222720, Note_on_c, 0, 87, 0
2, 222720, Note_on_c, 0, 74, 0
2, 222720, Note_on_c, 0, 97, 0
2, 222720, Note_on_c, 0, 99, 100
2, 222720, Note_on_c, 0, 97, 100
2, 222720, Note_on_c, 0, 87, 100
2, 222720, Note_on_c, 0, 85, 100
2, 222720, Note_on_c, 0, 60, 100
2, 222720, Note_on_c, 0, 74, 100
2, 222720, Note_on_c, 0, 72, 100
2, 222960, Note_on_c, 0, 99, 0
2, 222960, Note_on_c, 0, 97, 0
2, 222960, Note_on_c, 0, 87, 0
2, 222960, Note_on_c, 0, 85, 0
2, 222960, Note_on_c, 0, 60, 0
2, 222960, Note_on_c, 0, 74, 0
2, 222960, Note_on_c, 0, 72, 0
2, 222960, Note_on_c, 0, 97, 100
2, 222960, Note_on_c, 0, 99, 100
2, 222960, Note_on_c, 0, 85, 100
2, 222960, Note_on_c, 0, 87, 100
2, 222960, Note_on_c, 0, 72, 100
2, 222960, Note_on_c, 0, 74, 100
2, 223200, Note_on_c, 0, 97, 0
2, 223200, Note_on_c, 0, 99, 0
2, 223200, Note_on_c, 0, 85, 0
2, 223200, Note_on_c, 0, 87, 0
2, 223200, Note_on_c, 0, 72, 0
2, 223200, Note_on_c, 0, 74, 0
2, 223200, Note_on_c, 0, 97, 100
2, 223200, Note_on_c, 0, 99, 100
2, 223200, Note_on_c, 0, 85, 100
2, 223200, Note_on_c, 0, 87, 100
2, 223200, Note_on_c, 0, 60, 100
2, 223200, Note_on_c, 0, 72, 100
2, 223200, Note_on_c, 0, 74, 100
2, 223440, Note_on_c, 0, 97, 0
2, 223440, Note_on_c, 0, 99, 0
2, 223440, Note_on_c, 0, 85, 0
2, 223440, Note_on_c, 0, 87, 0
2, 223440, Note_on_c, 0, 60, 0
2, 223440, Note_on_c, 0, 72, 0
2, 223440, Note_on_c, 0, 74, 0
2, 223440, Note_on_c, 0, 97, 100
2, 223440, Note_on_c, 0, 99, 100
2, 223440, Note_on_c, 0, 85, 100
2, 223440, Note_on_c, 0, 87, 100
2, 223440, Note_on_c, 0, 72, 100
2, 223440, Note_on_c, 0, 74, 100
2, 223680, Note_on_c, 0, 97, 0
2, 223680, Note_on_c, 0, 99, 0
2, 223680, Note_on_c, 0, 85, 0
2, 223680, Note_on_c, 0, 87, 0
2, 223680, Note_on_c, 0, 72, 0
2, 223680, Note_on_c, 0, 74, 0
2, 223680, Note_on_c, 0, 99, 100
2, 223680, Note_on_c, 0, 97, 100
2, 223680, Note_on_c, 0, 87, 100
2, 223680, Note_on_c, 0, 85, 100
2, 223680, Note_on_c, 0, 60, 100
2, 223680, Note_on_c, 0, 74, 100
2, 223680, Note_on_c, 0, 72, 100
2, 223920, Note_on_c, 0, 99, 0
2, 223920, Note_on_c, 0, 97, 0
2, 223920, Note_on_c, 0, 87, 0
2, 223920, Note_on_c, 0, 85, 0
2, 223920, Note_on_c, 0, 60, 0
2, 223920, Note_on_c, 0, 74, 0
2, 223920, Note_on_c, 0, 72, 0
2, 223920, Note_on_c, 0, 97, 100
2, 223920, Note_on_c, 0, 99, 100
2, 223920, Note_on_c, 0, 85, 100
2, 223920, Note_on_c, 0, 87, 100
2, 223920, Note_on_c, 0, 72, 100
2, 223920, Note_on_c, 0, 74, 100
2, 224160, Note_on_c, 0, 97, 0
2, 224160, Note_on_c, 0, 99, 0
2, 224160, Note_on_c, 0, 85, 0
2, 224160, Note_on_c, 0, 87, 0
2, 224160, Note_on_c, 0, 72, 0
2, 224160, Note_on_c, 0, 74, 0
2, 224160, Note_on_c, 0, 97, 100
2, 224160, Note_on_c, 0, 99, 100
2, 224160, Note_on_c, 0, 85, 100
2, 224160, Note_on_c, 0, 87, 100
2, 224160, Note_on_c, 0, 60, 100
2, 224160, Note_on_c, 0, 72, 100
2, 224160, Note_on_c, 0, 74, 100
2, 224400, Note_on_c, 0, 97, 0
2, 224400, Note_on_c, 0, 99, 0
2, 224400, Note_on_c, 0, 85, 0
2, 224400, Note_on_c, 0, 87, 0
2, 224400, Note_on_c, 0, 60, 0
2, 224400, Note_on_c, 0, 72, 0
2, 224400, Note_on_c, 0, 74, 0
2, 224400, Note_on_c, 0, 97, 100
2, 224400, Note_on_c, 0, 99, 100
2, 224400, Note_on_c, 0, 85, 100
2, 224400, Note_on_c, 0, 87, 100
2, 224400, Note_on_c, 0, 72, 100
2, 224400, Note_on_c, 0, 74, 100
2, 224610, Note_on_c, 0, 67, 100
2, 224610, Note_on_c, 0, 103, 100
2, 224610, Note_on_c, 0, 91, 100
2, 224610, Note_on_c, 0, 79, 100
2, 224640, Note_on_c, 0, 97, 0
2, 224640, Note_on_c, 0, 99, 0
2, 224640, Note_on_c, 0, 85, 0
2, 224640, Note_on_c, 0, 87, 0
2, 224640, Note_on_c, 0, 72, 0
2, 224640, Note_on_c, 0, 74, 0
2, 224640, Note_on_c, 0, 100, 100
2, 224640, Note_on_c, 0, 98, 100
2, 224640, Note_on_c, 0, 88, 100
2, 224640, Note_on_c, 0, 86, 100
2, 224640, Note_on_c, 0, 61, 100
2, 224640, Note_on_c, 0, 74, 100
2, 224880, Note_on_c, 0, 100, 0
2, 224880, Note_on_c, 0, 98, 0
2, 224880, Note_on_c, 0, 88, 0
2, 224880, Note_on_c, 0, 86, 0
2, 224880, Note_on_c, 0, 61, 0
2, 224880, Note_on_c, 0, 74, 0
2, 224880, Note_on_c, 0, 98, 100
2, 224880, Note_on_c, 0, 100, 100
2, 224880, Note_on_c, 0, 86, 100
2, 224880, Note_on_c, 0, 88, 100
2, 224880, Note_on_c, 0, 74, 100
2, 225120, Note_on_c, 0, 98, 0
2, 225120, Note_on_c, 0, 100, 0
2, 225120, Note_on_c, 0, 86, 0
2, 225120, Note_on_c, 0, 88, 0
2, 225120, Note_on_c, 0, 74, 0
2, 225120, Note_on_c, 0, 98, 100
2, 225120, Note_on_c, 0, 100, 100
2, 225120, Note_on_c, 0, 86, 100
2, 225120, Note_on_c, 0, 88, 100
2, 225120, Note_on_c, 0, 61, 100
2, 225120, Note_on_c, 0, 74, 100
2, 225360, Note_on_c, 0, 98, 0
2, 225360, Note_on_c, 0, 100, 0
2, 225360, Note_on_c, 0, 86, 0
2, 225360, Note_on_c, 0, 88, 0
2, 225360, Note_on_c, 0, 61, 0
2, 225360, Note_on_c, 0, 74, 0
2, 225360, Note_on_c, 0, 98, 100
2, 225360, Note_on_c, 0, 100, 100
2, 225360, Note_on_c, 0, 86, 100
2, 225360, Note_on_c, 0, 88, 100
2, 225360, Note_on_c, 0, 74, 100
2, 225600, Note_on_c, 0, 98, 0
2, 225600, Note_on_c, 0, 100, 0
2, 225600, Note_on_c, 0, 86, 0
2, 225600, Note_on_c, 0, 88, 0
2, 225600, Note_on_c, 0, 74, 0
2, 225600, Note_on_c, 0, 100, 100
2, 225600, Note_on_c, 0, 98, 100
2, 225600, Note_on_c, 0, 88, 100
2, 225600, Note_on_c, 0, 86, 100
2, 225600, Note_on_c, 0, 61, 100
2, 225600, Note_on_c, 0, 74, 100
2, 225840, Note_on_c, 0, 100, 0
2, 225840, Note_on_c, 0, 98, 0
2, 225840, Note_on_c, 0, 88, 0
2, 225840, Note_on_c, 0, 86, 0
2, 225840, Note_on_c, 0, 61, 0
2, 225840, Note_on_c, 0, 74, 0
2, 225840, Note_on_c, 0, 98, 100
2, 225840, Note_on_c, 0, 100, 100
2, 225840, Note_on_c, 0, 86, 100
2, 225840, Note_on_c, 0, 88, 100
2, 225840, Note_on_c, 0, 74, 100
2, 226080, Note_on_c, 0, 98, 0
2, 226080, Note_on_c, 0, 100, 0
2, 226080, Note_on_c, 0, 86, 0
2, 226080, Note_on_c, 0, 88, 0
2, 226080, Note_on_c, 0, 74, 0
2, 226080, Note_on_c, 0, 98, 100
2, 226080, Note_on_c, 0, 86, 100
2, 226080, Note_on_c, 0, 61, 100
2, 226080, Note_on_c, 0, 73, 100
2, 226320, Note_on_c, 0, 98, 0
2, 226320, Note_on_c, 0, 86, 0
2, 226320, Note_on_c, 0, 61, 0
2, 226320, Note_on_c, 0, 73, 0
2, 226320, Note_on_c, 0, 98, 100
2, 226320, Note_on_c, 0, 86, 100
2, 226320, Note_on_c, 0, 73, 100
2, 226560, Note_on_c, 0, 98, 0
2, 226560, Note_on_c, 0, 86, 0
2, 226560, Note_on_c, 0, 73, 0
2, 226560, Note_on_c, 0, 100, 100
2, 226560, Note_on_c, 0, 88, 100
2, 226560, Note_on_c, 0, 62, 100
2, 226560, Note_on_c, 0, 75, 100
2, 226770, Note_on_c, 0, 105, 0
2, 226770, Note_on_c, 0, 93, 0
2, 226770, Note_on_c, 0, 69, 0
2, 226770, Note_on_c, 0, 81, 0
2, 226770, Note_on_c, 0, 106, 0
2, 226770, Note_on_c, 0, 94, 0
2, 226770, Note_on_c, 0, 70, 0
2, 226770, Note_on_c, 0, 82, 0
2, 226800, Note_on_c, 0, 100, 0
2, 226800, Note_on_c, 0, 88, 0
2, 226800, Note_on_c, 0, 62, 0
2, 226800, Note_on_c, 0, 75, 0
2, 227010, Note_on_c, 0, 67, 0
2, 227010, Note_on_c, 0, 103, 0
2, 227010, Note_on_c, 0, 91, 0
2, 227010, Note_on_c, 0, 79, 0
2, 229410, Note_on_c, 0, 105, 100
2, 229410, Note_on_c, 0, 93, 100
2, 229410, Note_on_c, 0, 69, 100
2, 229410, Note_on_c, 0, 81, 100
2, 229440, Note_on_c, 0, 96, 100
2, 229440, Note_on_c, 0, 108, 100
2, 229680, Note_on_c, 0, 96, 0
2, 230280, Note_on_c, 0, 108, 0
2, 230370, Text_t, "[lighting (sweep)]"
2, 230400, Note_on_c, 0, 96, 100
2, 230400, Note_on_c, 0, 98, 100
2, 230400, Note_on_c, 0, 84, 100
2, 230400, Note_on_c, 0, 86, 100
2, 230400, Note_on_c, 0, 108, 100
2, 230400, Note_on_c, 0, 60, 100
2, 230400, Note_on_c, 0, 72, 100
2, 230640, Note_on_c, 0, 96, 0
2, 230640, Note_on_c, 0, 98, 0
2, 230640, Note_on_c, 0, 84, 0
2, 230640, Note_on_c, 0, 86, 0
2, 230640, Note_on_c, 0, 60, 0
2, 230640, Note_on_c, 0, 72, 0
2, 230880, Note_on_c, 0, 96, 100
2, 230880, Note_on_c, 0, 98, 100
2, 230880, Note_on_c, 0, 84, 100
2, 230880, Note_on_c, 0, 86, 100
2, 230880, Note_on_c, 0, 60, 100
2, 230880, Note_on_c, 0, 72, 100
2, 231120, Note_on_c, 0, 96, 0
2, 231120, Note_on_c, 0, 98, 0
2, 231120, Note_on_c, 0, 84, 0
2, 231120, Note_on_c, 0, 86, 0
2, 231120, Note_on_c, 0, 60, 0
2, 231120, Note_on_c, 0, 72, 0
2, 231300, Note_on_c, 0, 108, 0
2, 231360, Note_on_c, 0, 97, 100
2, 231360, Note_on_c, 0, 99, 100
2, 231360, Note_on_c, 0, 85, 100
2, 231360, Note_on_c, 0, 87, 100
2, 231360, Note_on_c, 0, 61, 100
2, 231360, Note_on_c, 0, 74, 100
2, 231600, Note_on_c, 0, 97, 0
2, 231600, Note_on_c, 0, 99, 0
2, 231600, Note_on_c, 0, 85, 0
2, 231600, Note_on_c, 0, 87, 0
2, 231600, Note_on_c, 0, 61, 0
2, 231600, Note_on_c, 0, 74, 0
2, 231600, Note_on_c, 0, 96, 100
2, 231600, Note_on_c, 0, 98, 100
2, 231600, Note_on_c, 0, 85, 100
2, 231600, Note_on_c, 0, 86, 100
2, 231600, Note_on_c, 0, 73, 100
2, 231840, Note_on_c, 0, 96, 0
2, 231840, Note_on_c, 0, 98, 0
2, 231840, Note_on_c, 0, 85, 0
2, 231840, Note_on_c, 0, 86, 0
2, 231840, Note_on_c, 0, 73, 0
2, 231840, Note_on_c, 0, 97, 100
2, 231840, Note_on_c, 0, 99, 100
2, 231840, Note_on_c, 0, 85, 100
2, 231840, Note_on_c, 0, 87, 100
2, 231840, Note_on_c, 0, 61, 100
2, 231840, Note_on_c, 0, 74, 100
2, 232080, Note_on_c, 0, 61, 0
2, 232320, Note_on_c, 0, 97, 0
2, 232320, Note_on_c, 0, 99, 0
2, 232320, Note_on_c, 0, 85, 0
2, 232320, Note_on_c, 0, 87, 0
2, 232320, Note_on_c, 0, 74, 0
2, 232560, Note_on_c, 0, 97, 100
2, 232560, Note_on_c, 0, 99, 100
2, 232560, Note_on_c, 0, 85, 100
2, 232560, Note_on_c, 0, 87, 100
2, 232560, Note_on_c, 0, 61, 100
2, 232560, Note_on_c, 0, 74, 100
2, 232680, Note_on_c, 0, 108, 100
2, 232800, Note_on_c, 0, 97, 0
2, 232800, Note_on_c, 0, 99, 0
2, 232800, Note_on_c, 0, 85, 0
2, 232800, Note_on_c, 0, 87, 0
2, 232800, Note_on_c, 0, 61, 0
2, 232800, Note_on_c, 0, 74, 0
2, 232800, Note_on_c, 0, 97, 100
2, 232800, Note_on_c, 0, 99, 100
2, 232800, Note_on_c, 0, 85, 100
2, 232800, Note_on_c, 0, 87, 100
2, 232800, Note_on_c, 0, 74, 100
2, 233040, Note_on_c, 0, 108, 0
2, 233040, Note_on_c, 0, 97, 0
2, 233040, Note_on_c, 0, 99, 0
2, 233040, Note_on_c, 0, 85, 0
2, 233040, Note_on_c, 0, 87, 0
2, 233040, Note_on_c, 0, 74, 0
2, 233040, Note_on_c, 0, 96, 100
2, 233040, Note_on_c, 0, 98, 100
2, 233040, Note_on_c, 0, 85, 100
2, 233040, Note_on_c, 0, 86, 100
2, 233040, Note_on_c, 0, 60, 100
2, 233040, Note_on_c, 0, 73, 100
2, 233280, Note_on_c, 0, 96, 0
2, 233280, Note_on_c, 0, 98, 0
2, 233280, Note_on_c, 0, 85, 0
2, 233280, Note_on_c, 0, 86, 0
2, 233280, Note_on_c, 0, 60, 0
2, 233280, Note_on_c, 0, 73, 0
2, 233280, Note_on_c, 0, 97, 100
2, 233280, Note_on_c, 0, 99, 100
2, 233280, Note_on_c, 0, 85, 100
2, 233280, Note_on_c, 0, 87, 100
2, 233280, Note_on_c, 0, 108, 100
2, 233280, Note_on_c, 0, 61, 100
2, 233280, Note_on_c, 0, 74, 100
2, 233520, Note_on_c, 0, 97, 0
2, 233520, Note_on_c, 0, 99, 0
2, 233520, Note_on_c, 0, 85, 0
2, 233520, Note_on_c, 0, 87, 0
2, 233520, Note_on_c, 0, 61, 0
2, 233520, Note_on_c, 0, 74, 0
2, 233640, Note_on_c, 0, 108, 0
2, 233760, Note_on_c, 0, 98, 100
2, 233760, Note_on_c, 0, 100, 100
2, 233760, Note_on_c, 0, 86, 100
2, 233760, Note_on_c, 0, 88, 100
2, 233760, Note_on_c, 0, 108, 100
2, 233760, Note_on_c, 0, 62, 100
2, 233760, Note_on_c, 0, 75, 100
2, 233940, Note_on_c, 0, 108, 0
2, 234000, Note_on_c, 0, 98, 0
2, 234000, Note_on_c, 0, 100, 0
2, 234000, Note_on_c, 0, 86, 0
2, 234000, Note_on_c, 0, 88, 0
2, 234000, Note_on_c, 0, 62, 0
2, 234000, Note_on_c, 0, 75, 0
2, 234000, Note_on_c, 0, 108, 100
2, 234210, Text_t, "gtr_off"
2, 234210, Text_t, "bass_off"
2, 234210, Text_t, "wail_off"
2, 234210, Text_t, "drum_double"
2, 234210, Note_on_c, 0, 105, 0
2, 234210, Note_on_c, 0, 93, 0
2, 234210, Note_on_c, 0, 69, 0
2, 234210, Note_on_c, 0, 81, 0
2, 234210, Note_on_c, 0, 106, 100
2, 234210, Note_on_c, 0, 94, 100
2, 234210, Note_on_c, 0, 70, 100
2, 234210, Note_on_c, 0, 82, 100
2, 234240, Note_on_c, 0, 96, 100
2, 234240, Note_on_c, 0, 98, 100
2, 234240, Note_on_c, 0, 84, 100
2, 234240, Note_on_c, 0, 86, 100
2, 234240, Note_on_c, 0, 60, 100
2, 234240, Note_on_c, 0, 72, 100
2, 234480, Note_on_c, 0, 108, 0
2, 234480, Note_on_c, 0, 96, 0
2, 234480, Note_on_c, 0, 98, 0
2, 234480, Note_on_c, 0, 84, 0
2, 234480, Note_on_c, 0, 86, 0
2, 234480, Note_on_c, 0, 60, 0
2, 234480, Note_on_c, 0, 72, 0
2, 234720, Note_on_c, 0, 96, 100
2, 234720, Note_on_c, 0, 98, 100
2, 234720, Note_on_c, 0, 84, 100
2, 234720, Note_on_c, 0, 86, 100
2, 234720, Note_on_c, 0, 60, 100
2, 234720, Note_on_c, 0, 72, 100
2, 234960, Note_on_c, 0, 96, 0
2, 234960, Note_on_c, 0, 98, 0
2, 234960, Note_on_c, 0, 84, 0
2, 234960, Note_on_c, 0, 86, 0
2, 234960, Note_on_c, 0, 60, 0
2, 234960, Note_on_c, 0, 72, 0
2, 235200, Note_on_c, 0, 97, 100
2, 235200, Note_on_c, 0, 99, 100
2, 235200, Note_on_c, 0, 85, 100
2, 235200, Note_on_c, 0, 87, 100
2, 235200, Note_on_c, 0, 61, 100
2, 235200, Note_on_c, 0, 74, 100
2, 235440, Note_on_c, 0, 97, 0
2, 235440, Note_on_c, 0, 99, 0
2, 235440, Note_on_c, 0, 85, 0
2, 235440, Note_on_c, 0, 87, 0
2, 235440, Note_on_c, 0, 61, 0
2, 235440, Note_on_c, 0, 74, 0
2, 235440, Note_on_c, 0, 96, 100
2, 235440, Note_on_c, 0, 98, 100
2, 235440, Note_on_c, 0, 85, 100
2, 235440, Note_on_c, 0, 86, 100
2, 235440, Note_on_c, 0, 73, 100
2, 235680, Note_on_c, 0, 96, 0
2, 235680, Note_on_c, 0, 98, 0
2, 235680, Note_on_c, 0, 85, 0
2, 235680, Note_on_c, 0, 86, 0
2, 235680, Note_on_c, 0, 73, 0
2, 235680, Note_on_c, 0, 97, 100
2, 235680, Note_on_c, 0, 99, 100
2, 235680, Note_on_c, 0, 85, 100
2, 235680, Note_on_c, 0, 87, 100
2, 235680, Note_on_c, 0, 61, 100
2, 235680, Note_on_c, 0, 74, 100
2, 235920, Note_on_c, 0, 61, 0
2, 236160, Note_on_c, 0, 97, 0
2, 236160, Note_on_c, 0, 99, 0
2, 236160, Note_on_c, 0, 85, 0
2, 236160, Note_on_c, 0, 87, 0
2, 236160, Note_on_c, 0, 74, 0
2, 236400, Note_on_c, 0, 97, 100
2, 236400, Note_on_c, 0, 99, 100
2, 236400, Note_on_c, 0, 85, 100
2, 236400, Note_on_c, 0, 87, 100
2, 236400, Note_on_c, 0, 61, 100
2, 236400, Note_on_c, 0, 74, 100
2, 236640, Note_on_c, 0, 97, 0
2, 236640, Note_on_c, 0, 99, 0
2, 236640, Note_on_c, 0, 85, 0
2, 236640, Note_on_c, 0, 87, 0
2, 236640, Note_on_c, 0, 61, 0
2, 236640, Note_on_c, 0, 74, 0
2, 236640, Note_on_c, 0, 97, 100
2, 236640, Note_on_c, 0, 99, 100
2, 236640, Note_on_c, 0, 85, 100
2, 236640, Note_on_c, 0, 87, 100
2, 236640, Note_on_c, 0, 74, 100
2, 236880, Note_on_c, 0, 97, 0
2, 236880, Note_on_c, 0, 99, 0
2, 236880, Note_on_c, 0, 85, 0
2, 236880, Note_on_c, 0, 87, 0
2, 236880, Note_on_c, 0, 74, 0
2, 236880, Note_on_c, 0, 96, 100
2, 236880, Note_on_c, 0, 98, 100
2, 236880, Note_on_c, 0, 85, 100
2, 236880, Note_on_c, 0, 86, 100
2, 236880, Note_on_c, 0, 60, 100
2, 236880, Note_on_c, 0, 73, 100
2, 237060, Note_on_c, 0, 108, 100
2, 237090, Text_t, "sing_on"
2, 237120, Note_on_c, 0, 96, 0
2, 237120, Note_on_c, 0, 98, 0
2, 237120, Note_on_c, 0, 85, 0
2, 237120, Note_on_c, 0, 86, 0
2, 237120, Note_on_c, 0, 60, 0
2, 237120, Note_on_c, 0, 73, 0
2, 237120, Note_on_c, 0, 97, 100
2, 237120, Note_on_c, 0, 99, 100
2, 237120, Note_on_c, 0, 85, 100
2, 237120, Note_on_c, 0, 87, 100
2, 237120, Note_on_c, 0, 61, 100
2, 237120, Note_on_c, 0, 74, 100
2, 237360, Note_on_c, 0, 97, 0
2, 237360, Note_on_c, 0, 99, 0
2, 237360, Note_on_c, 0, 85, 0
2, 237360, Note_on_c, 0, 87, 0
2, 237360, Note_on_c, 0, 61, 0
2, 237360, Note_on_c, 0, 74, 0
2, 237600, Note_on_c, 0, 98, 100
2, 237600, Note_on_c, 0, 100, 100
2, 237600, Note_on_c, 0, 86, 100
2, 237600, Note_on_c, 0, 88, 100
2, 237600, Note_on_c, 0, 62, 100
2, 237600, Note_on_c, 0, 75, 100
2, 237840, Note_on_c, 0, 98, 0
2, 237840, Note_on_c, 0, 100, 0
2, 237840, Note_on_c, 0, 86, 0
2, 237840, Note_on_c, 0, 88, 0
2, 237840, Note_on_c, 0, 62, 0
2, 237840, Note_on_c, 0, 75, 0
2, 237900, Note_on_c, 0, 108, 0
2, 238050, Text_t, "gtr_on"
2, 238050, Text_t, "bass_on"
2, 238050, Text_t, "[chorus]"
2, 238050, Text_t, "drum_normal"
2, 238050, Note_on_c, 0, 106, 0
2, 238050, Note_on_c, 0, 94, 0
2, 238050, Note_on_c, 0, 70, 0
2, 238050, Note_on_c, 0, 82, 0
2, 238050, Note_on_c, 0, 105, 100
2, 238050, Note_on_c, 0, 93, 100
2, 238050, Note_on_c, 0, 69, 100
2, 238050, Note_on_c, 0, 81, 100
2, 238080, Note_on_c, 0, 96, 100
2, 238080, Note_on_c, 0, 98, 100
2, 238080, Note_on_c, 0, 84, 100
2, 238080, Note_on_c, 0, 86, 100
2, 238080, Note_on_c, 0, 108, 100
2, 238080, Note_on_c, 0, 60, 100
2, 238080, Note_on_c, 0, 72, 100
2, 238320, Note_on_c, 0, 96, 0
2, 238320, Note_on_c, 0, 98, 0
2, 238320, Note_on_c, 0, 84, 0
2, 238320, Note_on_c, 0, 86, 0
2, 238320, Note_on_c, 0, 60, 0
2, 238320, Note_on_c, 0, 72, 0
2, 238560, Note_on_c, 0, 96, 100
2, 238560, Note_on_c, 0, 98, 100
2, 238560, Note_on_c, 0, 84, 100
2, 238560, Note_on_c, 0, 86, 100
2, 238560, Note_on_c, 0, 60, 100
2, 238560, Note_on_c, 0, 72, 100
2, 238800, Note_on_c, 0, 96, 0
2, 238800, Note_on_c, 0, 98, 0
2, 238800, Note_on_c, 0, 84, 0
2, 238800, Note_on_c, 0, 86, 0
2, 238800, Note_on_c, 0, 60, 0
2, 238800, Note_on_c, 0, 72, 0
2, 238980, Note_on_c, 0, 108, 0
2, 239040, Note_on_c, 0, 97, 100
2, 239040, Note_on_c, 0, 99, 100
2, 239040, Note_on_c, 0, 85, 100
2, 239040, Note_on_c, 0, 87, 100
2, 239040, Note_on_c, 0, 61, 100
2, 239040, Note_on_c, 0, 74, 100
2, 239280, Note_on_c, 0, 97, 0
2, 239280, Note_on_c, 0, 99, 0
2, 239280, Note_on_c, 0, 85, 0
2, 239280, Note_on_c, 0, 87, 0
2, 239280, Note_on_c, 0, 61, 0
2, 239280, Note_on_c, 0, 74, 0
2, 239280, Note_on_c, 0, 96, 100
2, 239280, Note_on_c, 0, 98, 100
2, 239280, Note_on_c, 0, 85, 100
2, 239280, Note_on_c, 0, 86, 100
2, 239280, Note_on_c, 0, 73, 100
2, 239520, Note_on_c, 0, 96, 0
2, 239520, Note_on_c, 0, 98, 0
2, 239520, Note_on_c, 0, 85, 0
2, 239520, Note_on_c, 0, 86, 0
2, 239520, Note_on_c, 0, 73, 0
2, 239520, Note_on_c, 0, 97, 100
2, 239520, Note_on_c, 0, 99, 100
2, 239520, Note_on_c, 0, 85, 100
2, 239520, Note_on_c, 0, 87, 100
2, 239520, Note_on_c, 0, 61, 100
2, 239520, Note_on_c, 0, 74, 100
2, 239760, Note_on_c, 0, 61, 0
2, 240000, Note_on_c, 0, 97, 0
2, 240000, Note_on_c, 0, 99, 0
2, 240000, Note_on_c, 0, 85, 0
2, 240000, Note_on_c, 0, 87, 0
2, 240000, Note_on_c, 0, 74, 0
2, 240240, Note_on_c, 0, 97, 100
2, 240240, Note_on_c, 0, 99, 100
2, 240240, Note_on_c, 0, 85, 100
2, 240240, Note_on_c, 0, 87, 100
2, 240240, Note_on_c, 0, 61, 100
2, 240240, Note_on_c, 0, 74, 100
2, 240480, Note_on_c, 0, 97, 0
2, 240480, Note_on_c, 0, 99, 0
2, 240480, Note_on_c, 0, 85, 0
2, 240480, Note_on_c, 0, 87, 0
2, 240480, Note_on_c, 0, 61, 0
2, 240480, Note_on_c, 0, 74, 0
2, 240480, Note_on_c, 0, 97, 100
2, 240480, Note_on_c, 0, 99, 100
2, 240480, Note_on_c, 0, 85, 100
2, 240480, Note_on_c, 0, 87, 100
2, 240480, Note_on_c, 0, 108, 100
2, 240480, Note_on_c, 0, 74, 100
2, 240720, Note_on_c, 0, 97, 0
2, 240720, Note_on_c, 0, 99, 0
2, 240720, Note_on_c, 0, 85, 0
2, 240720, Note_on_c, 0, 87, 0
2, 240720, Note_on_c, 0, 74, 0
2, 240720, Note_on_c, 0, 96, 100
2, 240720, Note_on_c, 0, 98, 100
2, 240720, Note_on_c, 0, 85, 100
2, 240720, Note_on_c, 0, 86, 100
2, 240720, Note_on_c, 0, 60, 100
2, 240720, Note_on_c, 0, 73, 100
2, 240840, Note_on_c, 0, 108, 0
2, 240960, Note_on_c, 0, 96, 0
2, 240960, Note_on_c, 0, 98, 0
2, 240960, Note_on_c, 0, 85, 0
2, 240960, Note_on_c, 0, 86, 0
2, 240960, Note_on_c, 0, 60, 0
2, 240960, Note_on_c, 0, 73, 0
2, 240960, Note_on_c, 0, 97, 100
2, 240960, Note_on_c, 0, 99, 100
2, 240960, Note_on_c, 0, 85, 100
2, 240960, Note_on_c, 0, 87, 100
2, 240960, Note_on_c, 0, 108, 100
2, 240960, Note_on_c, 0, 61, 100
2, 240960, Note_on_c, 0, 74, 100
2, 241200, Note_on_c, 0, 97, 0
2, 241200, Note_on_c, 0, 99, 0
2, 241200, Note_on_c, 0, 85, 0
2, 241200, Note_on_c, 0, 87, 0
2, 241200, Note_on_c, 0, 61, 0
2, 241200, Note_on_c, 0, 74, 0
2, 241320, Note_on_c, 0, 108, 0
2, 241440, Note_on_c, 0, 98, 100
2, 241440, Note_on_c, 0, 100, 100
2, 241440, Note_on_c, 0, 86, 100
2, 241440, Note_on_c, 0, 88, 100
2, 241440, Note_on_c, 0, 108, 100
2, 241440, Note_on_c, 0, 62, 100
2, 241440, Note_on_c, 0, 75, 100
2, 241620, Note_on_c, 0, 108, 0
2, 241680, Note_on_c, 0, 98, 0
2, 241680, Note_on_c, 0, 100, 0
2, 241680, Note_on_c, 0, 86, 0
2, 241680, Note_on_c, 0, 88, 0
2, 241680, Note_on_c, 0, 62, 0
2, 241680, Note_on_c, 0, 75, 0
2, 241680, Note_on_c, 0, 108, 100
2, 241890, Note_on_c, 0, 106, 100
2, 241890, Note_on_c, 0, 94, 100
2, 241890, Note_on_c, 0, 70, 100
2, 241890, Note_on_c, 0, 82, 100
2, 241920, Note_on_c, 0, 96, 100
2, 241920, Note_on_c, 0, 60, 100
2, 241920, Note_on_c, 0, 84, 100
2, 241920, Note_on_c, 0, 72, 100
2, 242220, Note_on_c, 0, 108, 0
2, 242640, Note_on_c, 0, 60, 0
2, 242850, Note_on_c, 0, 103, 100
2, 242850, Note_on_c, 0, 91, 100
2, 242850, Note_on_c, 0, 79, 100
2, 242850, Note_on_c, 0, 67, 100
2, 242880, Note_on_c, 0, 96, 0
2, 242880, Note_on_c, 0, 84, 0
2, 242880, Note_on_c, 0, 72, 0
2, 242880, Note_on_c, 0, 97, 100
2, 242880, Note_on_c, 0, 85, 100
2, 242880, Note_on_c, 0, 62, 100
2, 242880, Note_on_c, 0, 75, 100
2, 243040, Note_on_c, 0, 97, 0
2, 243040, Note_on_c, 0, 85, 0
2, 243040, Note_on_c, 0, 98, 100
2, 243040, Note_on_c, 0, 86, 100
2, 243120, Note_on_c, 0, 62, 0
2, 243120, Note_on_c, 0, 75, 0
2, 243200, Note_on_c, 0, 98, 0
2, 243200, Note_on_c, 0, 86, 0
2, 243200, Note_on_c, 0, 100, 100
2, 243200, Note_on_c, 0, 88, 100
2, 243360, Note_on_c, 0, 100, 0
2, 243360, Note_on_c, 0, 88, 0
2, 243360, Note_on_c, 0, 97, 100
2, 243360, Note_on_c, 0, 85, 100
2, 243360, Note_on_c, 0, 62, 100
2, 243360, Note_on_c, 0, 75, 100
2, 243520, Note_on_c, 0, 97, 0
2, 243520, Note_on_c, 0, 85, 0
2, 243520, Note_on_c, 0, 98, 100
2, 243520, Note_on_c, 0, 86, 100
2, 243600, Note_on_c, 0, 62, 0
2, 243600, Note_on_c, 0, 75, 0
2, 243680, Note_on_c, 0, 98, 0
2, 243680, Note_on_c, 0, 86, 0
2, 243680, Note_on_c, 0, 100, 100
2, 243680, Note_on_c, 0, 88, 100
2, 243840, Note_on_c, 0, 100, 0
2, 243840, Note_on_c, 0, 88, 0
2, 243840, Note_on_c, 0, 97, 100
2, 243840, Note_on_c, 0, 85, 100
2, 243840, Note_on_c, 0, 74, 100
2, 243840, Note_on_c, 0, 61, 100
2, 244000, Note_on_c, 0, 97, 0
2, 244000, Note_on_c, 0, 85, 0
2, 244000, Note_on_c, 0, 98, 100
2, 244000, Note_on_c, 0, 86, 100
2, 244080, Note_on_c, 0, 74, 0
2, 244080, Note_on_c, 0, 61, 0
2, 244160, Note_on_c, 0, 98, 0
2, 244160, Note_on_c, 0, 86, 0
2, 244160, Note_on_c, 0, 99, 100
2, 244160, Note_on_c, 0, 87, 100
2, 244320, Note_on_c, 0, 99, 0
2, 244320, Note_on_c, 0, 87, 0
2, 244320, Note_on_c, 0, 97, 100
2, 244320, Note_on_c, 0, 85, 100
2, 244320, Note_on_c, 0, 74, 100
2, 244320, Note_on_c, 0, 61, 100
2, 244480, Note_on_c, 0, 97, 0
2, 244480, Note_on_c, 0, 85, 0
2, 244480, Note_on_c, 0, 98, 100
2, 244480, Note_on_c, 0, 86, 100
2, 244560, Note_on_c, 0, 74, 0
2, 244560, Note_on_c, 0, 61, 0
2, 244640, Note_on_c, 0, 98, 0
2, 244640, Note_on_c, 0, 86, 0
2, 244640, Note_on_c, 0, 99, 100
2, 244640, Note_on_c, 0, 87, 100
2, 244800, Note_on_c, 0, 99, 0
2, 244800, Note_on_c, 0, 87, 0
2, 244800, Note_on_c, 0, 97, 100
2, 244800, Note_on_c, 0, 85, 100
2, 244800, Note_on_c, 0, 74, 100
2, 244800, Note_on_c, 0, 61, 100
2, 244800, Note_on_c, 0, 108, 100
2, 244960, Note_on_c, 0, 97, 0
2, 244960, Note_on_c, 0, 85, 0
2, 244960, Note_on_c, 0, 98, 100
2, 244960, Note_on_c, 0, 86, 100
2, 245040, Note_on_c, 0, 74, 0
2, 245040, Note_on_c, 0, 61, 0
2, 245120, Note_on_c, 0, 98, 0
2, 245120, Note_on_c, 0, 86, 0
2, 245120, Note_on_c, 0, 99, 100
2, 245120, Note_on_c, 0, 87, 100
2, 245280, Note_on_c, 0, 99, 0
2, 245280, Note_on_c, 0, 87, 0
2, 245280, Note_on_c, 0, 98, 100
2, 245280, Note_on_c, 0, 86, 100
2, 245280, Note_on_c, 0, 61, 100
2, 245280, Note_on_c, 0, 74, 100
2, 245440, Note_on_c, 0, 98, 0
2, 245440, Note_on_c, 0, 86, 0
2, 245490, Note_on_c, 0, 103, 0
2, 245490, Note_on_c, 0, 91, 0
2, 245490, Note_on_c, 0, 79, 0
2, 245490, Note_on_c, 0, 67, 0
2, 245520, Note_on_c, 0, 61, 0
2, 245520, Note_on_c, 0, 74, 0
2, 245640, Note_on_c, 0, 108, 0
2, 245730, Note_on_c, 0, 105, 0
2, 245730, Note_on_c, 0, 93, 0
2, 245730, Note_on_c, 0, 69, 0
2, 245730, Note_on_c, 0, 81, 0
2, 245760, Note_on_c, 0, 96, 100
2, 245760, Note_on_c, 0, 98, 100
2, 245760, Note_on_c, 0, 84, 100
2, 245760, Note_on_c, 0, 86, 100
2, 245760, Note_on_c, 0, 108, 100
2, 245760, Note_on_c, 0, 60, 100
2, 245760, Note_on_c, 0, 72, 100
2, 246000, Note_on_c, 0, 96, 0
2, 246000, Note_on_c, 0, 98, 0
2, 246000, Note_on_c, 0, 84, 0
2, 246000, Note_on_c, 0, 86, 0
2, 246000, Note_on_c, 0, 60, 0
2, 246000, Note_on_c, 0, 72, 0
2, 246240, Note_on_c, 0, 98, 100
2, 246240, Note_on_c, 0, 99, 100
2, 246240, Note_on_c, 0, 86, 100
2, 246240, Note_on_c, 0, 87, 100
2, 246240, Note_on_c, 0, 62, 100
2, 246240, Note_on_c, 0, 75, 100
2, 246480, Note_on_c, 0, 98, 0
2, 246480, Note_on_c, 0, 99, 0
2, 246480, Note_on_c, 0, 86, 0
2, 246480, Note_on_c, 0, 87, 0
2, 246480, Note_on_c, 0, 62, 0
2, 246480, Note_on_c, 0, 75, 0
2, 246720, Note_on_c, 0, 97, 100
2, 246720, Note_on_c, 0, 99, 100
2, 246720, Note_on_c, 0, 85, 100
2, 246720, Note_on_c, 0, 87, 100
2, 246720, Note_on_c, 0, 61, 100
2, 246720, Note_on_c, 0, 74, 100
2, 246840, Note_on_c, 0, 108, 0
2, 246960, Note_on_c, 0, 97, 0
2, 246960, Note_on_c, 0, 99, 0
2, 246960, Note_on_c, 0, 85, 0
2, 246960, Note_on_c, 0, 87, 0
2, 246960, Note_on_c, 0, 61, 0
2, 246960, Note_on_c, 0, 74, 0
2, 246960, Note_on_c, 0, 96, 100
2, 246960, Note_on_c, 0, 98, 100
2, 246960, Note_on_c, 0, 85, 100
2, 246960, Note_on_c, 0, 86, 100
2, 246960, Note_on_c, 0, 73, 100
2, 247200, Note_on_c, 0, 96, 0
2, 247200, Note_on_c, 0, 98, 0
2, 247200, Note_on_c, 0, 85, 0
2, 247200, Note_on_c, 0, 86, 0
2, 247200, Note_on_c, 0, 73, 0
2, 247200, Note_on_c, 0, 97, 100
2, 247200, Note_on_c, 0, 99, 100
2, 247200, Note_on_c, 0, 85, 100
2, 247200, Note_on_c, 0, 87, 100
2, 247200, Note_on_c, 0, 61, 100
2, 247200, Note_on_c, 0, 74, 100
2, 247440, Note_on_c, 0, 61, 0
2, 247680, Note_on_c, 0, 97, 0
2, 247680, Note_on_c, 0, 99, 0
2, 247680, Note_on_c, 0, 85, 0
2, 247680, Note_on_c, 0, 87, 0
2, 247680, Note_on_c, 0, 74, 0
2, 247920, Note_on_c, 0, 97, 100
2, 247920, Note_on_c, 0, 99, 100
2, 247920, Note_on_c, 0, 85, 100
2, 247920, Note_on_c, 0, 87, 100
2, 247920, Note_on_c, 0, 61, 100
2, 247920, Note_on_c, 0, 74, 100
2, 248160, Note_on_c, 0, 97, 0
2, 248160, Note_on_c, 0, 99, 0
2, 248160, Note_on_c, 0, 85, 0
2, 248160, Note_on_c, 0, 87, 0
2, 248160, Note_on_c, 0, 61, 0
2, 248160, Note_on_c, 0, 74, 0
2, 248160, Note_on_c, 0, 97, 100
2, 248160, Note_on_c, 0, 99, 100
2, 248160, Note_on_c, 0, 85, 100
2, 248160, Note_on_c, 0, 87, 100
2, 248160, Note_on_c, 0, 108, 100
2, 248160, Note_on_c, 0, 74, 100
2, 248400, Note_on_c, 0, 97, 0
2, 248400, Note_on_c, 0, 99, 0
2, 248400, Note_on_c, 0, 85, 0
2, 248400, Note_on_c, 0, 87, 0
2, 248400, Note_on_c, 0, 74, 0
2, 248400, Note_on_c, 0, 96, 100
2, 248400, Note_on_c, 0, 98, 100
2, 248400, Note_on_c, 0, 85, 100
2, 248400, Note_on_c, 0, 86, 100
2, 248400, Note_on_c, 0, 60, 100
2, 248400, Note_on_c, 0, 73, 100
2, 248520, Note_on_c, 0, 108, 0
2, 248640, Note_on_c, 0, 96, 0
2, 248640, Note_on_c, 0, 98, 0
2, 248640, Note_on_c, 0, 85, 0
2, 248640, Note_on_c, 0, 86, 0
2, 248640, Note_on_c, 0, 60, 0
2, 248640, Note_on_c, 0, 73, 0
2, 248640, Note_on_c, 0, 97, 100
2, 248640, Note_on_c, 0, 99, 100
2, 248640, Note_on_c, 0, 85, 100
2, 248640, Note_on_c, 0, 87, 100
2, 248640, Note_on_c, 0, 108, 100
2, 248640, Note_on_c, 0, 61, 100
2, 248640, Note_on_c, 0, 74, 100
2, 248880, Note_on_c, 0, 97, 0
2, 248880, Note_on_c, 0, 99, 0
2, 248880, Note_on_c, 0, 85, 0
2, 248880, Note_on_c, 0, 87, 0
2, 248880, Note_on_c, 0, 61, 0
2, 248880, Note_on_c, 0, 74, 0
2, 249000, Note_on_c, 0, 108, 0
2, 249120, Note_on_c, 0, 98, 100
2, 249120, Note_on_c, 0, 100, 100
2, 249120, Note_on_c, 0, 86, 100
2, 249120, Note_on_c, 0, 88, 100
2, 249120, Note_on_c, 0, 108, 100
2, 249120, Note_on_c, 0, 62, 100
2, 249120, Note_on_c, 0, 75, 100
2, 249300, Note_on_c, 0, 108, 0
2, 249360, Note_on_c, 0, 98, 0
2, 249360, Note_on_c, 0, 100, 0
2, 249360, Note_on_c, 0, 86, 0
2, 249360, Note_on_c, 0, 88, 0
2, 249360, Note_on_c, 0, 62, 0
2, 249360, Note_on_c, 0, 75, 0
2, 249360, Note_on_c, 0, 108, 100
2, 249570, Note_on_c, 0, 106, 0
2, 249570, Note_on_c, 0, 94, 0
2, 249570, Note_on_c, 0, 70, 0
2, 249570, Note_on_c, 0, 82, 0
2, 249570, Note_on_c, 0, 105, 100
2, 249570, Note_on_c, 0, 93, 100
2, 249570, Note_on_c, 0, 69, 100
2, 249570, Note_on_c, 0, 81, 100
2, 249600, Note_on_c, 0, 96, 100
2, 249600, Note_on_c, 0, 98, 100
2, 249600, Note_on_c, 0, 60, 100
2, 249600, Note_on_c, 0, 72, 100
2, 249600, Note_on_c, 0, 84, 100
2, 249600, Note_on_c, 0, 86, 100
2, 249840, Note_on_c, 0, 96, 0
2, 249840, Note_on_c, 0, 98, 0
2, 249840, Note_on_c, 0, 60, 0
2, 249840, Note_on_c, 0, 72, 0
2, 249840, Note_on_c, 0, 84, 0
2, 249840, Note_on_c, 0, 86, 0
2, 249960, Note_on_c, 0, 108, 0
2, 250080, Note_on_c, 0, 98, 100
2, 250080, Note_on_c, 0, 99, 100
2, 250080, Note_on_c, 0, 62, 100
2, 250080, Note_on_c, 0, 75, 100
2, 250080, Note_on_c, 0, 86, 100
2, 250080, Note_on_c, 0, 87, 100
2, 250320, Note_on_c, 0, 98, 0
2, 250320, Note_on_c, 0, 99, 0
2, 250320, Note_on_c, 0, 62, 0
2, 250320, Note_on_c, 0, 75, 0
2, 250320, Note_on_c, 0, 86, 0
2, 250320, Note_on_c, 0, 87, 0
2, 250560, Note_on_c, 0, 97, 100
2, 250560, Note_on_c, 0, 99, 100
2, 250560, Note_on_c, 0, 61, 100
2, 250560, Note_on_c, 0, 74, 100
2, 250560, Note_on_c, 0, 85, 100
2, 250560, Note_on_c, 0, 87, 100
2, 250800, Note_on_c, 0, 97, 0
2, 250800, Note_on_c, 0, 99, 0
2, 250800, Note_on_c, 0, 61, 0
2, 250800, Note_on_c, 0, 74, 0
2, 250800, Note_on_c, 0, 85, 0
2, 250800, Note_on_c, 0, 87, 0
2, 250800, Note_on_c, 0, 96, 100
2, 250800, Note_on_c, 0, 98, 100
2, 250800, Note_on_c, 0, 60, 100
2, 250800, Note_on_c, 0, 73, 100
2, 250800, Note_on_c, 0, 85, 100
2, 250800, Note_on_c, 0, 86, 100
2, 251040, Note_on_c, 0, 96, 0
2, 251040, Note_on_c, 0, 98, 0
2, 251040, Note_on_c, 0, 60, 0
2, 251040, Note_on_c, 0, 73, 0
2, 251040, Note_on_c, 0, 85, 0
2, 251040, Note_on_c, 0, 86, 0
2, 251040, Note_on_c, 0, 97, 100
2, 251040, Note_on_c, 0, 99, 100
2, 251040, Note_on_c, 0, 61, 100
2, 251040, Note_on_c, 0, 74, 100
2, 251040, Note_on_c, 0, 85, 100
2, 251040, Note_on_c, 0, 87, 100
2, 251280, Note_on_c, 0, 61, 0
2, 251490, Note_on_c, 0, 106, 100
2, 251490, Note_on_c, 0, 94, 100
2, 251490, Note_on_c, 0, 70, 100
2, 251490, Note_on_c, 0, 82, 100
2, 251520, Note_on_c, 0, 97, 0
2, 251520, Note_on_c, 0, 99, 0
2, 251520, Note_on_c, 0, 74, 0
2, 251520, Note_on_c, 0, 85, 0
2, 251520, Note_on_c, 0, 87, 0
2, 251520, Note_on_c, 0, 100, 100
2, 251520, Note_on_c, 0, 62, 100
2, 251520, Note_on_c, 0, 75, 100
2, 251520, Note_on_c, 0, 88, 100
2, 252420, Note_on_c, 0, 108, 100
2, 252960, Note_on_c, 0, 62, 0
2, 253200, Note_on_c, 0, 75, 0
2, 253260, Note_on_c, 0, 108, 0
2, 253440, Note_on_c, 0, 100, 0
2, 253440, Note_on_c, 0, 88, 0
2, 253440, Note_on_c, 0, 96, 100
2, 253440, Note_on_c, 0, 98, 100
2, 253440, Note_on_c, 0, 60, 100
2, 253440, Note_on_c, 0, 84, 100
2, 253440, Note_on_c, 0, 86, 100
2, 253440, Note_on_c, 0, 108, 100
2, 253440, Note_on_c, 0, 72, 100
2, 253680, Note_on_c, 0, 96, 0
2, 253680, Note_on_c, 0, 98, 0
2, 253680, Note_on_c, 0, 60, 0
2, 253680, Note_on_c, 0, 84, 0
2, 253680, Note_on_c, 0, 86, 0
2, 253680, Note_on_c, 0, 72, 0
2, 253920, Note_on_c, 0, 98, 100
2, 253920, Note_on_c, 0, 99, 100
2, 253920, Note_on_c, 0, 62, 100
2, 253920, Note_on_c, 0, 86, 100
2, 253920, Note_on_c, 0, 87, 100
2, 253920, Note_on_c, 0, 75, 100
2, 254160, Note_on_c, 0, 98, 0
2, 254160, Note_on_c, 0, 99, 0
2, 254160, Note_on_c, 0, 62, 0
2, 254160, Note_on_c, 0, 86, 0
2, 254160, Note_on_c, 0, 87, 0
2, 254160, Note_on_c, 0, 75, 0
2, 254340, Note_on_c, 0, 108, 0
2, 254400, Note_on_c, 0, 97, 100
2, 254400, Note_on_c, 0, 99, 100
2, 254400, Note_on_c, 0, 61, 100
2, 254400, Note_on_c, 0, 85, 100
2, 254400, Note_on_c, 0, 87, 100
2, 254400, Note_on_c, 0, 74, 100
2, 254640, Note_on_c, 0, 97, 0
2, 254640, Note_on_c, 0, 99, 0
2, 254640, Note_on_c, 0, 61, 0
2, 254640, Note_on_c, 0, 85, 0
2, 254640, Note_on_c, 0, 87, 0
2, 254640, Note_on_c, 0, 74, 0
2, 254640, Note_on_c, 0, 96, 100
2, 254640, Note_on_c, 0, 98, 100
2, 254640, Note_on_c, 0, 85, 100
2, 254640, Note_on_c, 0, 86, 100
2, 254640, Note_on_c, 0, 73, 100
2, 254880, Note_on_c, 0, 96, 0
2, 254880, Note_on_c, 0, 98, 0
2, 254880, Note_on_c, 0, 85, 0
2, 254880, Note_on_c, 0, 86, 0
2, 254880, Note_on_c, 0, 73, 0
2, 254880, Note_on_c, 0, 97, 100
2, 254880, Note_on_c, 0, 99, 100
2, 254880, Note_on_c, 0, 61, 100
2, 254880, Note_on_c, 0, 85, 100
2, 254880, Note_on_c, 0, 87, 100
2, 254880, Note_on_c, 0, 74, 100
2, 255120, Note_on_c, 0, 61, 0
2, 255360, Note_on_c, 0, 97, 0
2, 255360, Note_on_c, 0, 99, 0
2, 255360, Note_on_c, 0, 85, 0
2, 255360, Note_on_c, 0, 87, 0
2, 255360, Note_on_c, 0, 74, 0
2, 255600, Note_on_c, 0, 74, 100
2, 255840, Note_on_c, 0, 74, 0
2, 255840, Note_on_c, 0, 97, 100
2, 255840, Note_on_c, 0, 99, 100
2, 255840, Note_on_c, 0, 61, 100
2, 255840, Note_on_c, 0, 85, 100
2, 255840, Note_on_c, 0, 87, 100
2, 255840, Note_on_c, 0, 108, 100
2, 255840, Note_on_c, 0, 74, 100
2, 256080, Note_on_c, 0, 97, 0
2, 256080, Note_on_c, 0, 99, 0
2, 256080, Note_on_c, 0, 61, 0
2, 256080, Note_on_c, 0, 85, 0
2, 256080, Note_on_c, 0, 87, 0
2, 256080, Note_on_c, 0, 74, 0
2, 256080, Note_on_c, 0, 96, 100
2, 256080, Note_on_c, 0, 98, 100
2, 256080, Note_on_c, 0, 60, 100
2, 256080, Note_on_c, 0, 85, 100
2, 256080, Note_on_c, 0, 86, 100
2, 256080, Note_on_c, 0, 73, 100
2, 256200, Note_on_c, 0, 108, 0
2, 256320, Note_on_c, 0, 96, 0
2, 256320, Note_on_c, 0, 98, 0
2, 256320, Note_on_c, 0, 60, 0
2, 256320, Note_on_c, 0, 85, 0
2, 256320, Note_on_c, 0, 86, 0
2, 256320, Note_on_c, 0, 73, 0
2, 256320, Note_on_c, 0, 97, 100
2, 256320, Note_on_c, 0, 99, 100
2, 256320, Note_on_c, 0, 61, 100
2, 256320, Note_on_c, 0, 85, 100
2, 256320, Note_on_c, 0, 87, 100
2, 256320, Note_on_c, 0, 108, 100
2, 256320, Note_on_c, 0, 74, 100
2, 256560, Note_on_c, 0, 97, 0
2, 256560, Note_on_c, 0, 99, 0
2, 256560, Note_on_c, 0, 61, 0
2, 256560, Note_on_c, 0, 85, 0
2, 256560, Note_on_c, 0, 87, 0
2, 256560, Note_on_c, 0, 74, 0
2, 256680, Note_on_c, 0, 108, 0
2, 256800, Note_on_c, 0, 98, 100
2, 256800, Note_on_c, 0, 100, 100
2, 256800, Note_on_c, 0, 62, 100
2, 256800, Note_on_c, 0, 86, 100
2, 256800, Note_on_c, 0, 88, 100
2, 256800, Note_on_c, 0, 108, 100
2, 256800, Note_on_c, 0, 75, 100
2, 256980, Note_on_c, 0, 108, 0
2, 257040, Note_on_c, 0, 98, 0
2, 257040, Note_on_c, 0, 100, 0
2, 257040, Note_on_c, 0, 62, 0
2, 257040, Note_on_c, 0, 86, 0
2, 257040, Note_on_c, 0, 88, 0
2, 257040, Note_on_c, 0, 75, 0
2, 257040, Note_on_c, 0, 108, 100
2, 257280, Note_on_c, 0, 108, 0
2, 257280, Note_on_c, 0, 96, 100
2, 257280, Note_on_c, 0, 98, 100
2, 257280, Note_on_c, 0, 84, 100
2, 257280, Note_on_c, 0, 86, 100
2, 257280, Note_on_c, 0, 60, 100
2, 257280, Note_on_c, 0, 62, 100
2, 257280, Note_on_c, 0, 72, 100
2, 257280, Note_on_c, 0, 74, 100
2, 259680, Note_on_c, 0, 108, 100
2, 259800, Note_on_c, 0, 108, 0
2, 260160, Note_on_c, 0, 108, 100
2, 260280, Note_on_c, 0, 108, 0
2, 260640, Note_on_c, 0, 108, 100
2, 260760, Note_on_c, 0, 108, 0
2, 260880, Note_on_c, 0, 108, 100
2, 261000, Note_on_c, 0, 108, 0
2, 261330, Note_on_c, 0, 105, 0
2, 261330, Note_on_c, 0, 93, 0
2, 261330, Note_on_c, 0, 69, 0
2, 261330, Note_on_c, 0, 81, 0
2, 261330, Note_on_c, 0, 106, 0
2, 261330, Note_on_c, 0, 94, 0
2, 261330, Note_on_c, 0, 70, 0
2, 261330, Note_on_c, 0, 82, 0
2, 261360, Note_on_c, 0, 96, 0
2, 261360, Note_on_c, 0, 98, 0
2, 261360, Note_on_c, 0, 84, 0
2, 261360, Note_on_c, 0, 86, 0
2, 261360, Note_on_c, 0, 60, 0
2, 261360, Note_on_c, 0, 62, 0
2, 261360, Note_on_c, 0, 72, 0
2, 261360, Note_on_c, 0, 74, 0
2, 263520, Note_on_c, 0, 108, 100
2, 263640, Note_on_c, 0, 108, 0
2, 264000, Note_on_c, 0, 108, 100
2, 264120, Note_on_c, 0, 108, 0
2, 264480, Note_on_c, 0, 108, 100
2, 264600, Note_on_c, 0, 108, 0
2, 264720, Note_on_c, 0, 108, 100
2, 264840, Note_on_c, 0, 108, 0
2, 264930, Text_t, "drum_allbeat"
2, 264930, Text_t, "[verse]"
2, 264930, End_track
3, 0, Start_track
3, 0, Title_t, "TRIGGERS"
3, 7680, Note_on_c, 4, 60, 100
3, 7680, Note_on_c, 4, 61, 100
3, 7680, Note_on_c, 0, 68, 100
3, 7920, Note_on_c, 4, 60, 0
3, 7920, Note_on_c, 4, 61, 0
3, 7920, Note_on_c, 0, 68, 0
3, 8160, Note_on_c, 4, 60, 100
3, 8160, Note_on_c, 4, 61, 100
3, 8160, Note_on_c, 0, 68, 100
3, 8400, Note_on_c, 4, 60, 0
3, 8400, Note_on_c, 4, 61, 0
3, 8400, Note_on_c, 0, 68, 0
3, 8640, Note_on_c, 4, 61, 100
3, 8640, Note_on_c, 0, 69, 100
3, 8880, Note_on_c, 4, 61, 0
3, 8880, Note_on_c, 0, 69, 0
3, 8880, Note_on_c, 4, 61, 100
3, 9120, Note_on_c, 4, 61, 0
3, 9120, Note_on_c, 4, 60, 100
3, 9120, Note_on_c, 4, 61, 100
3, 9120, Note_on_c, 0, 69, 100
3, 9360, Note_on_c, 4, 60, 0
3, 9360, Note_on_c, 4, 61, 0
3, 9360, Note_on_c, 0, 69, 0
3, 9840, Note_on_c, 4, 61, 100
3, 9840, Note_on_c, 0, 69, 100
3, 10080, Note_on_c, 4, 61, 0
3, 10080, Note_on_c, 0, 69, 0
3, 10080, Note_on_c, 4, 60, 100
3, 10080, Note_on_c, 4, 61, 100
3, 10320, Note_on_c, 4, 60, 0
3, 10320, Note_on_c, 4, 61, 0
3, 10320, Note_on_c, 4, 61, 100
3, 10320, Note_on_c, 0, 68, 100
3, 10560, Note_on_c, 4, 61, 0
3, 10560, Note_on_c, 0, 68, 0
3, 10560, Note_on_c, 4, 61, 100
3, 10560, Note_on_c, 0, 69, 100
3, 10800, Note_on_c, 4, 61, 0
3, 10800, Note_on_c, 0, 69, 0
3, 11040, Note_on_c, 4, 61, 100
3, 11040, Note_on_c, 0, 70, 100
3, 11280, Note_on_c, 4, 61, 0
3, 11280, Note_on_c, 0, 70, 0
3, 11520, Note_on_c, 4, 60, 100
3, 11520, Note_on_c, 4, 61, 100
3, 11520, Note_on_c, 0, 68, 100
3, 11760, Note_on_c, 4, 60, 0
3, 11760, Note_on_c, 4, 61, 0
3, 11760, Note_on_c, 0, 68, 0
3, 12000, Note_on_c, 4, 60, 100
3, 12000, Note_on_c, 4, 61, 100
3, 12000, Note_on_c, 0, 68, 100
3, 12240, Note_on_c, 4, 60, 0
3, 12240, Note_on_c, 4, 61, 0
3, 12240, Note_on_c, 0, 68, 0
3, 12480, Note_on_c, 4, 61, 100
3, 12480, Note_on_c, 0, 69, 100
3, 12720, Note_on_c, 4, 61, 0
3, 12720, Note_on_c, 0, 69, 0
3, 12720, Note_on_c, 4, 61, 100
3, 12960, Note_on_c, 4, 61, 0
3, 12960, Note_on_c, 4, 60, 100
3, 12960, Note_on_c, 4, 61, 100
3, 12960, Note_on_c, 0, 69, 100
3, 13200, Note_on_c, 4, 60, 0
3, 13200, Note_on_c, 4, 61, 0
3, 13200, Note_on_c, 0, 69, 0
3, 13680, Note_on_c, 4, 61, 100
3, 13680, Note_on_c, 0, 69, 100
3, 13920, Note_on_c, 4, 61, 0
3, 13920, Note_on_c, 0, 69, 0
3, 13920, Note_on_c, 4, 60, 100
3, 13920, Note_on_c, 4, 61, 100
3, 14160, Note_on_c, 4, 60, 0
3, 14160, Note_on_c, 4, 61, 0
3, 14160, Note_on_c, 4, 61, 100
3, 14160, Note_on_c, 0, 68, 100
3, 14400, Note_on_c, 4, 61, 0
3, 14400, Note_on_c, 0, 68, 0
3, 14400, Note_on_c, 4, 61, 100
3, 14400, Note_on_c, 0, 69, 100
3, 14640, Note_on_c, 4, 61, 0
3, 14640, Note_on_c, 0, 69, 0
3, 14880, Note_on_c, 4, 61, 100
3, 14880, Note_on_c, 0, 70, 100
3, 15120, Note_on_c, 4, 61, 0
3, 15120, Note_on_c, 0, 70, 0
3, 15360, Note_on_c, 4, 60, 100
3, 15360, Note_on_c, 4, 61, 100
3, 15360, Note_on_c, 0, 68, 100
3, 15600, Note_on_c, 4, 60, 0
3, 15600, Note_on_c, 4, 61, 0
3, 15600, Note_on_c, 0, 68, 0
3, 15840, Note_on_c, 4, 60, 100
3, 15840, Note_on_c, 4, 61, 100
3, 15840, Note_on_c, 0, 68, 100
3, 16080, Note_on_c, 4, 60, 0
3, 16080, Note_on_c, 4, 61, 0
3, 16080, Note_on_c, 0, 68, 0
3, 16320, Note_on_c, 4, 61, 100
3, 16320, Note_on_c, 0, 69, 100
3, 16560, Note_on_c, 4, 61, 0
3, 16560, Note_on_c, 0, 69, 0
3, 16560, Note_on_c, 4, 61, 100
3, 16800, Note_on_c, 4, 61, 0
3, 16800, Note_on_c, 4, 60, 100
3, 16800, Note_on_c, 4, 61, 100
3, 16800, Note_on_c, 0, 69, 100
3, 17040, Note_on_c, 4, 60, 0
3, 17040, Note_on_c, 4, 61, 0
3, 17040, Note_on_c, 0, 69, 0
3, 17520, Note_on_c, 4, 61, 100
3, 17520, Note_on_c, 0, 69, 100
3, 17760, Note_on_c, 4, 61, 0
3, 17760, Note_on_c, 0, 69, 0
3, 17760, Note_on_c, 4, 60, 100
3, 17760, Note_on_c, 4, 61, 100
3, 18000, Note_on_c, 4, 60, 0
3, 18000, Note_on_c, 4, 61, 0
3, 18000, Note_on_c, 4, 61, 100
3, 18000, Note_on_c, 0, 68, 100
3, 18240, Note_on_c, 4, 61, 0
3, 18240, Note_on_c, 0, 68, 0
3, 18240, Note_on_c, 4, 61, 100
3, 18240, Note_on_c, 0, 69, 100
3, 18480, Note_on_c, 4, 61, 0
3, 18480, Note_on_c, 0, 69, 0
3, 18720, Note_on_c, 4, 61, 100
3, 18720, Note_on_c, 0, 70, 100
3, 18960, Note_on_c, 4, 61, 0
3, 18960, Note_on_c, 0, 70, 0
3, 19200, Note_on_c, 4, 60, 100
3, 19200, Note_on_c, 4, 61, 100
3, 19200, Note_on_c, 0, 68, 100
3, 19440, Note_on_c, 4, 60, 0
3, 19440, Note_on_c, 4, 61, 0
3, 19440, Note_on_c, 0, 68, 0
3, 19680, Note_on_c, 4, 60, 100
3, 19680, Note_on_c, 4, 61, 100
3, 19680, Note_on_c, 0, 68, 100
3, 19920, Note_on_c, 4, 60, 0
3, 19920, Note_on_c, 4, 61, 0
3, 19920, Note_on_c, 0, 68, 0
3, 20160, Note_on_c, 4, 61, 100
3, 20160, Note_on_c, 0, 69, 100
3, 20400, Note_on_c, 4, 61, 0
3, 20400, Note_on_c, 0, 69, 0
3, 20400, Note_on_c, 4, 61, 100
3, 20640, Note_on_c, 4, 61, 0
3, 20640, Note_on_c, 4, 60, 100
3, 20640, Note_on_c, 4, 61, 100
3, 20640, Note_on_c, 0, 69, 100
3, 20880, Note_on_c, 4, 60, 0
3, 20880, Note_on_c, 4, 61, 0
3, 20880, Note_on_c, 0, 69, 0
3, 21360, Note_on_c, 4, 61, 100
3, 21360, Note_on_c, 0, 70, 100
3, 21600, Note_on_c, 4, 61, 0
3, 21600, Note_on_c, 0, 70, 0
3, 21600, Note_on_c, 4, 60, 100
3, 21600, Note_on_c, 4, 61, 100
3, 21840, Note_on_c, 4, 60, 0
3, 21840, Note_on_c, 4, 61, 0
3, 21840, Note_on_c, 4, 61, 100
3, 22080, Note_on_c, 4, 61, 0
3, 22080, Note_on_c, 4, 61, 100
3, 22320, Note_on_c, 4, 61, 0
3, 22320, Note_on_c, 0, 70, 100
3, 22560, Note_on_c, 0, 70, 0
3, 22560, Note_on_c, 4, 61, 100
3, 22800, Note_on_c, 4, 61, 0
3, 23040, Note_on_c, 4, 60, 100
3, 23040, Note_on_c, 4, 61, 100
3, 23040, Note_on_c, 0, 68, 100
3, 23280, Note_on_c, 4, 60, 0
3, 23280, Note_on_c, 4, 61, 0
3, 23280, Note_on_c, 0, 68, 0
3, 23520, Note_on_c, 4, 61, 100
3, 23520, Note_on_c, 0, 68, 100
3, 23760, Note_on_c, 4, 61, 0
3, 23760, Note_on_c, 0, 68, 0
3, 24000, Note_on_c, 4, 61, 100
3, 24000, Note_on_c, 0, 69, 100
3, 24240, Note_on_c, 4, 61, 0
3, 24240, Note_on_c, 0, 69, 0
3, 24240, Note_on_c, 4, 61, 100
3, 24480, Note_on_c, 4, 61, 0
3, 24480, Note_on_c, 4, 61, 100
3, 24480, Note_on_c, 0, 69, 100
3, 24720, Note_on_c, 4, 61, 0
3, 24720, Note_on_c, 0, 69, 0
3, 24960, Note_on_c, 4, 60, 100
3, 25200, Note_on_c, 4, 60, 0
3, 25200, Note_on_c, 4, 61, 100
3, 25200, Note_on_c, 0, 69, 100
3, 25440, Note_on_c, 4, 61, 0
3, 25440, Note_on_c, 0, 69, 0
3, 25440, Note_on_c, 4, 61, 100
3, 25680, Note_on_c, 4, 61, 0
3, 25680, Note_on_c, 4, 61, 100
3, 25680, Note_on_c, 0, 68, 100
3, 25920, Note_on_c, 4, 61, 0
3, 25920, Note_on_c, 0, 68, 0
3, 25920, Note_on_c, 4, 61, 100
3, 25920, Note_on_c, 0, 69, 100
3, 26160, Note_on_c, 4, 61, 0
3, 26160, Note_on_c, 0, 69, 0
3, 26400, Note_on_c, 4, 61, 100
3, 26400, Note_on_c, 0, 70, 100
3, 26640, Note_on_c, 4, 61, 0
3, 26640, Note_on_c, 0, 70, 0
3, 26880, Note_on_c, 4, 60, 100
3, 26880, Note_on_c, 4, 61, 100
3, 26880, Note_on_c, 0, 68, 100
3, 27120, Note_on_c, 4, 60, 0
3, 27120, Note_on_c, 4, 61, 0
3, 27120, Note_on_c, 0, 68, 0
3, 27360, Note_on_c, 4, 61, 100
3, 27360, Note_on_c, 0, 68, 100
3, 27600, Note_on_c, 4, 61, 0
3, 27600, Note_on_c, 0, 68, 0
3, 27840, Note_on_c, 4, 61, 100
3, 27840, Note_on_c, 0, 69, 100
3, 28080, Note_on_c, 4, 61, 0
3, 28080, Note_on_c, 0, 69, 0
3, 28080, Note_on_c, 4, 61, 100
3, 28320, Note_on_c, 4, 61, 0
3, 28320, Note_on_c, 4, 61, 100
3, 28320, Note_on_c, 0, 69, 100
3, 28560, Note_on_c, 4, 61, 0
3, 28560, Note_on_c, 0, 69, 0
3, 28800, Note_on_c, 4, 60, 100
3, 29040, Note_on_c, 4, 60, 0
3, 29040, Note_on_c, 4, 61, 100
3, 29040, Note_on_c, 0, 69, 100
3, 29280, Note_on_c, 4, 61, 0
3, 29280, Note_on_c, 0, 69, 0
3, 29280, Note_on_c, 4, 61, 100
3, 29520, Note_on_c, 4, 61, 0
3, 29520, Note_on_c, 4, 61, 100
3, 29520, Note_on_c, 0, 68, 100
3, 29760, Note_on_c, 4, 61, 0
3, 29760, Note_on_c, 0, 68, 0
3, 29760, Note_on_c, 4, 61, 100
3, 29760, Note_on_c, 0, 69, 100
3, 30000, Note_on_c, 4, 61, 0
3, 30000, Note_on_c, 0, 69, 0
3, 30240, Note_on_c, 4, 61, 100
3, 30240, Note_on_c, 0, 70, 100
3, 30480, Note_on_c, 4, 61, 0
3, 30480, Note_on_c, 0, 70, 0
3, 30720, Note_on_c, 4, 60, 100
3, 30720, Note_on_c, 4, 61, 100
3, 30720, Note_on_c, 0, 68, 100
3, 30960, Note_on_c, 4, 60, 0
3, 30960, Note_on_c, 4, 61, 0
3, 30960, Note_on_c, 0, 68, 0
3, 31200, Note_on_c, 4, 61, 100
3, 31200, Note_on_c, 0, 68, 100
3, 31440, Note_on_c, 4, 61, 0
3, 31440, Note_on_c, 0, 68, 0
3, 31680, Note_on_c, 4, 61, 100
3, 31680, Note_on_c, 0, 69, 100
3, 31920, Note_on_c, 4, 61, 0
3, 31920, Note_on_c, 0, 69, 0
3, 31920, Note_on_c, 4, 61, 100
3, 32160, Note_on_c, 4, 61, 0
3, 32160, Note_on_c, 4, 61, 100
3, 32160, Note_on_c, 0, 69, 100
3, 32400, Note_on_c, 4, 61, 0
3, 32400, Note_on_c, 0, 69, 0
3, 32640, Note_on_c, 4, 60, 100
3, 32880, Note_on_c, 4, 60, 0
3, 32880, Note_on_c, 4, 61, 100
3, 32880, Note_on_c, 0, 69, 100
3, 33120, Note_on_c, 4, 61, 0
3, 33120, Note_on_c, 0, 69, 0
3, 33120, Note_on_c, 4, 61, 100
3, 33360, Note_on_c, 4, 61, 0
3, 33360, Note_on_c, 4, 61, 100
3, 33360, Note_on_c, 0, 68, 100
3, 33600, Note_on_c, 4, 61, 0
3, 33600, Note_on_c, 0, 68, 0
3, 33600, Note_on_c, 4, 61, 100
3, 33600, Note_on_c, 0, 69, 100
3, 33840, Note_on_c, 4, 61, 0
3, 33840, Note_on_c, 0, 69, 0
3, 34080, Note_on_c, 4, 61, 100
3, 34080, Note_on_c, 0, 70, 100
3, 34320, Note_on_c, 4, 61, 0
3, 34320, Note_on_c, 0, 70, 0
3, 34560, Note_on_c, 4, 60, 100
3, 34560, Note_on_c, 4, 61, 100
3, 34560, Note_on_c, 0, 68, 100
3, 34800, Note_on_c, 4, 60, 0
3, 34800, Note_on_c, 4, 61, 0
3, 34800, Note_on_c, 0, 68, 0
3, 35040, Note_on_c, 4, 60, 100
3, 35040, Note_on_c, 4, 61, 100
3, 35040, Note_on_c, 0, 68, 100
3, 35280, Note_on_c, 4, 60, 0
3, 35280, Note_on_c, 4, 61, 0
3, 35280, Note_on_c, 0, 68, 0
3, 35520, Note_on_c, 4, 61, 100
3, 35520, Note_on_c, 0, 69, 100
3, 35760, Note_on_c, 4, 61, 0
3, 35760, Note_on_c, 0, 69, 0
3, 35760, Note_on_c, 4, 61, 100
3, 36000, Note_on_c, 4, 61, 0
3, 36000, Note_on_c, 4, 60, 100
3, 36000, Note_on_c, 4, 61, 100
3, 36000, Note_on_c, 0, 69, 100
3, 36240, Note_on_c, 4, 60, 0
3, 36240, Note_on_c, 4, 61, 0
3, 36240, Note_on_c, 0, 69, 0
3, 36480, Note_on_c, 0, 70, 100
3, 36720, Note_on_c, 0, 70, 0
3, 36720, Note_on_c, 4, 61, 100
3, 36960, Note_on_c, 4, 61, 0
3, 36960, Note_on_c, 4, 60, 100
3, 36960, Note_on_c, 4, 61, 100
3, 37200, Note_on_c, 4, 60, 0
3, 37200, Note_on_c, 4, 61, 0
3, 37200, Note_on_c, 4, 61, 100
3, 37200, Note_on_c, 0, 70, 100
3, 37440, Note_on_c, 4, 61, 0
3, 37440, Note_on_c, 0, 70, 0
3, 37440, Note_on_c, 4, 61, 100
3, 37680, Note_on_c, 4, 61, 0
3, 37920, Note_on_c, 4, 61, 100
3, 37920, Note_on_c, 0, 70, 100
3, 38160, Note_on_c, 4, 61, 0
3, 38160, Note_on_c, 0, 70, 0
3, 38400, Note_on_c, 4, 60, 100
3, 38400, Note_on_c, 4, 61, 100
3, 38400, Note_on_c, 0, 68, 100
3, 38640, Note_on_c, 4, 60, 0
3, 38640, Note_on_c, 4, 61, 0
3, 38640, Note_on_c, 0, 68, 0
3, 38880, Note_on_c, 4, 61, 100
3, 38880, Note_on_c, 0, 68, 100
3, 39120, Note_on_c, 4, 61, 0
3, 39120, Note_on_c, 0, 68, 0
3, 39360, Note_on_c, 4, 61, 100
3, 39360, Note_on_c, 0, 69, 100
3, 39600, Note_on_c, 4, 61, 0
3, 39600, Note_on_c, 0, 69, 0
3, 39600, Note_on_c, 4, 61, 100
3, 39840, Note_on_c, 4, 61, 0
3, 39840, Note_on_c, 4, 61, 100
3, 39840, Note_on_c, 0, 69, 100
3, 40080, Note_on_c, 4, 61, 0
3, 40080, Note_on_c, 0, 69, 0
3, 40320, Note_on_c, 4, 60, 100
3, 40560, Note_on_c, 4, 60, 0
3, 40560, Note_on_c, 4, 61, 100
3, 40560, Note_on_c, 0, 69, 100
3, 40800, Note_on_c, 4, 61, 0
3, 40800, Note_on_c, 0, 69, 0
3, 40800, Note_on_c, 4, 61, 100
3, 41040, Note_on_c, 4, 61, 0
3, 41040, Note_on_c, 4, 61, 100
3, 41040, Note_on_c, 0, 68, 100
3, 41280, Note_on_c, 4, 61, 0
3, 41280, Note_on_c, 0, 68, 0
3, 41280, Note_on_c, 4, 61, 100
3, 41280, Note_on_c, 0, 69, 100
3, 41520, Note_on_c, 4, 61, 0
3, 41520, Note_on_c, 0, 69, 0
3, 41760, Note_on_c, 4, 61, 100
3, 41760, Note_on_c, 0, 70, 100
3, 42000, Note_on_c, 4, 61, 0
3, 42000, Note_on_c, 0, 70, 0
3, 42240, Note_on_c, 4, 60, 100
3, 42240, Note_on_c, 4, 61, 100
3, 42240, Note_on_c, 0, 68, 100
3, 42480, Note_on_c, 4, 60, 0
3, 42480, Note_on_c, 4, 61, 0
3, 42480, Note_on_c, 0, 68, 0
3, 42720, Note_on_c, 4, 61, 100
3, 42720, Note_on_c, 0, 68, 100
3, 42960, Note_on_c, 4, 61, 0
3, 42960, Note_on_c, 0, 68, 0
3, 43200, Note_on_c, 4, 61, 100
3, 43200, Note_on_c, 0, 69, 100
3, 43440, Note_on_c, 4, 61, 0
3, 43440, Note_on_c, 0, 69, 0
3, 43440, Note_on_c, 4, 61, 100
3, 43680, Note_on_c, 4, 61, 0
3, 43680, Note_on_c, 4, 61, 100
3, 43680, Note_on_c, 0, 69, 100
3, 43920, Note_on_c, 4, 61, 0
3, 43920, Note_on_c, 0, 69, 0
3, 44160, Note_on_c, 4, 60, 100
3, 44400, Note_on_c, 4, 60, 0
3, 44400, Note_on_c, 4, 61, 100
3, 44400, Note_on_c, 0, 69, 100
3, 44640, Note_on_c, 4, 61, 0
3, 44640, Note_on_c, 0, 69, 0
3, 44640, Note_on_c, 4, 61, 100
3, 44880, Note_on_c, 4, 61, 0
3, 44880, Note_on_c, 4, 61, 100
3, 44880, Note_on_c, 0, 68, 100
3, 45120, Note_on_c, 4, 61, 0
3, 45120, Note_on_c, 0, 68, 0
3, 45120, Note_on_c, 4, 61, 100
3, 45120, Note_on_c, 0, 69, 100
3, 45360, Note_on_c, 4, 61, 0
3, 45360, Note_on_c, 0, 69, 0
3, 45600, Note_on_c, 4, 61, 100
3, 45600, Note_on_c, 0, 70, 100
3, 45840, Note_on_c, 4, 61, 0
3, 45840, Note_on_c, 0, 70, 0
3, 46080, Note_on_c, 4, 60, 100
3, 46080, Note_on_c, 4, 61, 100
3, 46080, Note_on_c, 0, 68, 100
3, 46320, Note_on_c, 4, 60, 0
3, 46320, Note_on_c, 4, 61, 0
3, 46320, Note_on_c, 0, 68, 0
3, 46560, Note_on_c, 4, 61, 100
3, 46560, Note_on_c, 0, 68, 100
3, 46800, Note_on_c, 4, 61, 0
3, 46800, Note_on_c, 0, 68, 0
3, 47040, Note_on_c, 4, 61, 100
3, 47040, Note_on_c, 0, 69, 100
3, 47280, Note_on_c, 4, 61, 0
3, 47280, Note_on_c, 0, 69, 0
3, 47280, Note_on_c, 4, 61, 100
3, 47520, Note_on_c, 4, 61, 0
3, 47520, Note_on_c, 4, 61, 100
3, 47520, Note_on_c, 0, 69, 100
3, 47760, Note_on_c, 4, 61, 0
3, 47760, Note_on_c, 0, 69, 0
3, 48000, Note_on_c, 4, 60, 100
3, 48240, Note_on_c, 4, 60, 0
3, 48240, Note_on_c, 4, 61, 100
3, 48240, Note_on_c, 0, 69, 100
3, 48480, Note_on_c, 4, 61, 0
3, 48480, Note_on_c, 0, 69, 0
3, 48480, Note_on_c, 4, 61, 100
3, 48720, Note_on_c, 4, 61, 0
3, 48720, Note_on_c, 4, 61, 100
3, 48720, Note_on_c, 0, 68, 100
3, 48960, Note_on_c, 4, 61, 0
3, 48960, Note_on_c, 0, 68, 0
3, 48960, Note_on_c, 4, 61, 100
3, 48960, Note_on_c, 0, 69, 100
3, 49200, Note_on_c, 4, 61, 0
3, 49200, Note_on_c, 0, 69, 0
3, 49440, Note_on_c, 4, 61, 100
3, 49440, Note_on_c, 0, 70, 100
3, 49680, Note_on_c, 4, 61, 0
3, 49680, Note_on_c, 0, 70, 0
3, 49920, Note_on_c, 4, 60, 100
3, 49920, Note_on_c, 4, 61, 100
3, 49920, Note_on_c, 0, 68, 100
3, 50160, Note_on_c, 4, 60, 0
3, 50160, Note_on_c, 4, 61, 0
3, 50160, Note_on_c, 0, 68, 0
3, 50400, Note_on_c, 4, 60, 100
3, 50400, Note_on_c, 4, 61, 100
3, 50400, Note_on_c, 0, 68, 100
3, 50640, Note_on_c, 4, 60, 0
3, 50640, Note_on_c, 4, 61, 0
3, 50640, Note_on_c, 0, 68, 0
3, 50880, Note_on_c, 4, 61, 100
3, 50880, Note_on_c, 0, 69, 100
3, 51120, Note_on_c, 4, 61, 0
3, 51120, Note_on_c, 0, 69, 0
3, 51120, Note_on_c, 4, 61, 100
3, 51360, Note_on_c, 4, 61, 0
3, 51360, Note_on_c, 4, 60, 100
3, 51360, Note_on_c, 4, 61, 100
3, 51360, Note_on_c, 0, 69, 100
3, 51600, Note_on_c, 4, 60, 0
3, 51600, Note_on_c, 4, 61, 0
3, 51600, Note_on_c, 0, 69, 0
3, 51840, Note_on_c, 0, 69, 100
3, 52080, Note_on_c, 0, 69, 0
3, 52080, Note_on_c, 4, 61, 100
3, 52080, Note_on_c, 0, 70, 100
3, 52320, Note_on_c, 4, 61, 0
3, 52320, Note_on_c, 4, 60, 100
3, 52320, Note_on_c, 4, 61, 100
3, 52560, Note_on_c, 4, 60, 0
3, 52560, Note_on_c, 4, 61, 0
3, 52560, Note_on_c, 4, 61, 100
3, 52800, Note_on_c, 4, 61, 0
3, 52800, Note_on_c, 4, 61, 100
3, 53040, Note_on_c, 4, 61, 0
3, 53280, Note_on_c, 4, 61, 100
3, 53520, Note_on_c, 4, 61, 0
3, 53760, Note_on_c, 0, 70, 0
3, 53760, Note_on_c, 4, 60, 100
3, 53760, Note_on_c, 4, 61, 100
3, 53760, Note_on_c, 0, 68, 100
3, 54000, Note_on_c, 4, 60, 0
3, 54000, Note_on_c, 4, 61, 0
3, 54000, Note_on_c, 0, 68, 0
3, 54240, Note_on_c, 4, 61, 100
3, 54240, Note_on_c, 0, 70, 100
3, 54480, Note_on_c, 4, 61, 0
3, 54480, Note_on_c, 0, 70, 0
3, 54720, Note_on_c, 4, 61, 100
3, 54720, Note_on_c, 0, 68, 100
3, 54960, Note_on_c, 4, 61, 0
3, 54960, Note_on_c, 0, 68, 0
3, 54960, Note_on_c, 4, 61, 100
3, 55200, Note_on_c, 4, 61, 0
3, 55200, Note_on_c, 4, 61, 100
3, 55440, Note_on_c, 4, 61, 0
3, 55440, Note_on_c, 4, 61, 100
3, 55440, Note_on_c, 0, 69, 100
3, 55680, Note_on_c, 4, 61, 0
3, 55680, Note_on_c, 0, 69, 0
3, 55680, Note_on_c, 4, 60, 100
3, 55920, Note_on_c, 4, 60, 0
3, 55920, Note_on_c, 4, 61, 100
3, 55920, Note_on_c, 0, 69, 100
3, 56160, Note_on_c, 4, 61, 0
3, 56160, Note_on_c, 0, 69, 0
3, 56160, Note_on_c, 4, 61, 100
3, 56160, Note_on_c, 0, 69, 100
3, 56400, Note_on_c, 4, 61, 0
3, 56400, Note_on_c, 0, 69, 0
3, 56400, Note_on_c, 4, 61, 100
3, 56640, Note_on_c, 4, 61, 0
3, 56640, Note_on_c, 4, 61, 100
3, 56640, Note_on_c, 0, 69, 100
3, 56880, Note_on_c, 4, 61, 0
3, 56880, Note_on_c, 0, 69, 0
3, 56880, Note_on_c, 4, 61, 100
3, 56880, Note_on_c, 0, 70, 100
3, 57120, Note_on_c, 4, 61, 0
3, 57120, Note_on_c, 0, 70, 0
3, 57120, Note_on_c, 4, 61, 100
3, 57120, Note_on_c, 0, 70, 100
3, 57360, Note_on_c, 4, 61, 0
3, 57360, Note_on_c, 0, 70, 0
3, 57360, Note_on_c, 4, 61, 100
3, 57600, Note_on_c, 4, 61, 0
3, 57600, Note_on_c, 4, 60, 100
3, 57600, Note_on_c, 4, 61, 100
3, 57600, Note_on_c, 0, 68, 100
3, 57840, Note_on_c, 4, 60, 0
3, 57840, Note_on_c, 4, 61, 0
3, 57840, Note_on_c, 0, 68, 0
3, 58080, Note_on_c, 4, 61, 100
3, 58080, Note_on_c, 0, 70, 100
3, 58320, Note_on_c, 4, 61, 0
3, 58320, Note_on_c, 0, 70, 0
3, 58560, Note_on_c, 4, 61, 100
3, 58560, Note_on_c, 0, 68, 100
3, 58800, Note_on_c, 4, 61, 0
3, 58800, Note_on_c, 0, 68, 0
3, 58800, Note_on_c, 4, 61, 100
3, 59040, Note_on_c, 4, 61, 0
3, 59040, Note_on_c, 4, 61, 100
3, 59280, Note_on_c, 4, 61, 0
3, 59280, Note_on_c, 4, 61, 100
3, 59280, Note_on_c, 0, 69, 100
3, 59520, Note_on_c, 4, 61, 0
3, 59520, Note_on_c, 0, 69, 0
3, 59520, Note_on_c, 4, 60, 100
3, 59760, Note_on_c, 4, 60, 0
3, 59760, Note_on_c, 4, 61, 100
3, 59760, Note_on_c, 0, 70, 100
3, 60000, Note_on_c, 4, 61, 0
3, 60000, Note_on_c, 0, 70, 0
3, 60000, Note_on_c, 4, 61, 100
3, 60000, Note_on_c, 0, 70, 100
3, 60240, Note_on_c, 4, 61, 0
3, 60240, Note_on_c, 0, 70, 0
3, 60240, Note_on_c, 4, 61, 100
3, 60480, Note_on_c, 4, 61, 0
3, 60480, Note_on_c, 4, 61, 100
3, 60480, Note_on_c, 0, 70, 100
3, 60720, Note_on_c, 4, 61, 0
3, 60720, Note_on_c, 0, 70, 0
3, 60720, Note_on_c, 4, 61, 100
3, 60960, Note_on_c, 4, 61, 0
3, 60960, Note_on_c, 4, 61, 100
3, 60960, Note_on_c, 0, 70, 100
3, 61200, Note_on_c, 4, 61, 0
3, 61200, Note_on_c, 0, 70, 0
3, 61200, Note_on_c, 4, 61, 100
3, 61440, Note_on_c, 4, 61, 0
3, 61440, Note_on_c, 4, 60, 100
3, 61440, Note_on_c, 4, 61, 100
3, 61440, Note_on_c, 0, 68, 100
3, 61680, Note_on_c, 4, 60, 0
3, 61680, Note_on_c, 4, 61, 0
3, 61680, Note_on_c, 0, 68, 0
3, 61920, Note_on_c, 4, 61, 100
3, 61920, Note_on_c, 0, 70, 100
3, 62160, Note_on_c, 4, 61, 0
3, 62160, Note_on_c, 0, 70, 0
3, 62400, Note_on_c, 4, 61, 100
3, 62400, Note_on_c, 0, 68, 100
3, 62640, Note_on_c, 4, 61, 0
3, 62640, Note_on_c, 0, 68, 0
3, 62640, Note_on_c, 4, 61, 100
3, 62880, Note_on_c, 4, 61, 0
3, 62880, Note_on_c, 4, 61, 100
3, 63120, Note_on_c, 4, 61, 0
3, 63120, Note_on_c, 4, 61, 100
3, 63120, Note_on_c, 0, 69, 100
3, 63360, Note_on_c, 4, 61, 0
3, 63360, Note_on_c, 0, 69, 0
3, 63360, Note_on_c, 4, 60, 100
3, 63600, Note_on_c, 4, 60, 0
3, 63600, Note_on_c, 4, 61, 100
3, 63600, Note_on_c, 0, 69, 100
3, 63840, Note_on_c, 4, 61, 0
3, 63840, Note_on_c, 0, 69, 0
3, 63840, Note_on_c, 4, 61, 100
3, 63840, Note_on_c, 0, 69, 100
3, 64080, Note_on_c, 4, 61, 0
3, 64080, Note_on_c, 0, 69, 0
3, 64080, Note_on_c, 4, 61, 100
3, 64320, Note_on_c, 4, 61, 0
3, 64320, Note_on_c, 4, 61, 100
3, 64320, Note_on_c, 0, 69, 100
3, 64560, Note_on_c, 4, 61, 0
3, 64560, Note_on_c, 0, 69, 0
3, 64560, Note_on_c, 4, 61, 100
3, 64560, Note_on_c, 0, 70, 100
3, 64800, Note_on_c, 4, 61, 0
3, 64800, Note_on_c, 0, 70, 0
3, 64800, Note_on_c, 4, 61, 100
3, 64800, Note_on_c, 0, 70, 100
3, 65040, Note_on_c, 4, 61, 0
3, 65040, Note_on_c, 0, 70, 0
3, 65040, Note_on_c, 4, 61, 100
3, 65280, Note_on_c, 4, 61, 0
3, 65280, Note_on_c, 4, 60, 100
3, 65280, Note_on_c, 4, 61, 100
3, 65280, Note_on_c, 0, 68, 100
3, 65520, Note_on_c, 4, 60, 0
3, 65520, Note_on_c, 4, 61, 0
3, 65520, Note_on_c, 0, 68, 0
3, 65760, Note_on_c, 4, 61, 100
3, 65760, Note_on_c, 0, 70, 100
3, 66000, Note_on_c, 4, 61, 0
3, 66000, Note_on_c, 0, 70, 0
3, 66240, Note_on_c, 4, 61, 100
3, 66240, Note_on_c, 0, 68, 100
3, 66480, Note_on_c, 4, 61, 0
3, 66480, Note_on_c, 0, 68, 0
3, 66480, Note_on_c, 4, 61, 100
3, 66720, Note_on_c, 4, 61, 0
3, 66720, Note_on_c, 4, 61, 100
3, 66960, Note_on_c, 4, 61, 0
3, 66960, Note_on_c, 4, 61, 100
3, 66960, Note_on_c, 0, 69, 100
3, 67200, Note_on_c, 4, 61, 0
3, 67200, Note_on_c, 0, 69, 0
3, 67200, Note_on_c, 4, 60, 100
3, 67440, Note_on_c, 4, 60, 0
3, 67440, Note_on_c, 4, 61, 100
3, 67440, Note_on_c, 0, 70, 100
3, 67680, Note_on_c, 4, 61, 0
3, 67680, Note_on_c, 0, 70, 0
3, 67680, Note_on_c, 4, 61, 100
3, 67680, Note_on_c, 0, 70, 100
3, 67920, Note_on_c, 4, 61, 0
3, 67920, Note_on_c, 0, 70, 0
3, 67920, Note_on_c, 4, 61, 100
3, 68160, Note_on_c, 4, 61, 0
3, 68160, Note_on_c, 4, 61, 100
3, 68160, Note_on_c, 0, 70, 100
3, 68400, Note_on_c, 4, 61, 0
3, 68400, Note_on_c, 0, 70, 0
3, 68400, Note_on_c, 4, 61, 100
3, 68640, Note_on_c, 4, 61, 0
3, 68640, Note_on_c, 4, 61, 100
3, 68640, Note_on_c, 0, 70, 100
3, 68880, Note_on_c, 4, 61, 0
3, 68880, Note_on_c, 0, 70, 0
3, 68880, Note_on_c, 4, 61, 100
3, 69120, Note_on_c, 4, 61, 0
3, 69120, Note_on_c, 4, 60, 100
3, 69120, Note_on_c, 4, 61, 100
3, 69120, Note_on_c, 0, 68, 100
3, 69360, Note_on_c, 4, 60, 0
3, 69360, Note_on_c, 4, 61, 0
3, 69360, Note_on_c, 0, 68, 0
3, 69600, Note_on_c, 4, 60, 100
3, 69600, Note_on_c, 4, 61, 100
3, 69600, Note_on_c, 0, 68, 100
3, 69840, Note_on_c, 4, 60, 0
3, 69840, Note_on_c, 4, 61, 0
3, 69840, Note_on_c, 0, 68, 0
3, 70080, Note_on_c, 4, 61, 100
3, 70080, Note_on_c, 0, 69, 100
3, 70320, Note_on_c, 4, 61, 0
3, 70320, Note_on_c, 0, 69, 0
3, 70320, Note_on_c, 4, 61, 100
3, 70560, Note_on_c, 4, 61, 0
3, 70560, Note_on_c, 4, 60, 100
3, 70560, Note_on_c, 4, 61, 100
3, 70560, Note_on_c, 0, 69, 100
3, 70800, Note_on_c, 4, 60, 0
3, 70800, Note_on_c, 4, 61, 0
3, 70800, Note_on_c, 0, 69, 0
3, 71280, Note_on_c, 4, 61, 100
3, 71280, Note_on_c, 0, 69, 100
3, 71520, Note_on_c, 4, 61, 0
3, 71520, Note_on_c, 0, 69, 0
3, 71520, Note_on_c, 4, 60, 100
3, 71520, Note_on_c, 4, 61, 100
3, 71760, Note_on_c, 4, 60, 0
3, 71760, Note_on_c, 4, 61, 0
3, 71760, Note_on_c, 4, 61, 100
3, 71760, Note_on_c, 0, 68, 100
3, 72000, Note_on_c, 4, 61, 0
3, 72000, Note_on_c, 0, 68, 0
3, 72000, Note_on_c, 4, 61, 100
3, 72000, Note_on_c, 0, 69, 100
3, 72240, Note_on_c, 4, 61, 0
3, 72240, Note_on_c, 0, 69, 0
3, 72480, Note_on_c, 4, 61, 100
3, 72480, Note_on_c, 0, 70, 100
3, 72720, Note_on_c, 4, 61, 0
3, 72720, Note_on_c, 0, 70, 0
3, 72960, Note_on_c, 4, 60, 100
3, 72960, Note_on_c, 4, 61, 100
3, 72960, Note_on_c, 0, 68, 100
3, 73200, Note_on_c, 4, 60, 0
3, 73200, Note_on_c, 4, 61, 0
3, 73200, Note_on_c, 0, 68, 0
3, 73440, Note_on_c, 4, 61, 100
3, 73440, Note_on_c, 0, 68, 100
3, 73680, Note_on_c, 4, 61, 0
3, 73680, Note_on_c, 0, 68, 0
3, 73920, Note_on_c, 4, 61, 100
3, 73920, Note_on_c, 0, 69, 100
3, 74160, Note_on_c, 4, 61, 0
3, 74160, Note_on_c, 0, 69, 0
3, 74160, Note_on_c, 4, 61, 100
3, 74400, Note_on_c, 4, 61, 0
3, 74400, Note_on_c, 4, 61, 100
3, 74400, Note_on_c, 0, 69, 100
3, 74640, Note_on_c, 4, 61, 0
3, 74640, Note_on_c, 0, 69, 0
3, 74880, Note_on_c, 4, 60, 100
3, 75120, Note_on_c, 4, 60, 0
3, 75120, Note_on_c, 4, 61, 100
3, 75120, Note_on_c, 0, 69, 100
3, 75360, Note_on_c, 4, 61, 0
3, 75360, Note_on_c, 0, 69, 0
3, 75360, Note_on_c, 4, 61, 100
3, 75600, Note_on_c, 4, 61, 0
3, 75600, Note_on_c, 4, 61, 100
3, 75600, Note_on_c, 0, 68, 100
3, 75840, Note_on_c, 4, 61, 0
3, 75840, Note_on_c, 0, 68, 0
3, 75840, Note_on_c, 4, 61, 100
3, 75840, Note_on_c, 0, 69, 100
3, 76080, Note_on_c, 4, 61, 0
3, 76080, Note_on_c, 0, 69, 0
3, 76320, Note_on_c, 4, 61, 100
3, 76320, Note_on_c, 0, 70, 100
3, 76560, Note_on_c, 4, 61, 0
3, 76560, Note_on_c, 0, 70, 0
3, 76800, Note_on_c, 4, 60, 100
3, 76800, Note_on_c, 4, 61, 100
3, 76800, Note_on_c, 0, 68, 100
3, 77040, Note_on_c, 4, 60, 0
3, 77040, Note_on_c, 4, 61, 0
3, 77040, Note_on_c, 0, 68, 0
3, 77280, Note_on_c, 4, 61, 100
3, 77280, Note_on_c, 0, 68, 100
3, 77520, Note_on_c, 4, 61, 0
3, 77520, Note_on_c, 0, 68, 0
3, 77760, Note_on_c, 4, 61, 100
3, 77760, Note_on_c, 0, 69, 100
3, 78000, Note_on_c, 4, 61, 0
3, 78000, Note_on_c, 0, 69, 0
3, 78000, Note_on_c, 4, 61, 100
3, 78240, Note_on_c, 4, 61, 0
3, 78240, Note_on_c, 4, 61, 100
3, 78240, Note_on_c, 0, 69, 100
3, 78480, Note_on_c, 4, 61, 0
3, 78480, Note_on_c, 0, 69, 0
3, 78720, Note_on_c, 4, 60, 100
3, 78960, Note_on_c, 4, 60, 0
3, 78960, Note_on_c, 4, 61, 100
3, 78960, Note_on_c, 0, 69, 100
3, 79200, Note_on_c, 4, 61, 0
3, 79200, Note_on_c, 0, 69, 0
3, 79200, Note_on_c, 4, 61, 100
3, 79440, Note_on_c, 4, 61, 0
3, 79440, Note_on_c, 4, 61, 100
3, 79440, Note_on_c, 0, 68, 100
3, 79680, Note_on_c, 4, 61, 0
3, 79680, Note_on_c, 0, 68, 0
3, 79680, Note_on_c, 4, 61, 100
3, 79680, Note_on_c, 0, 69, 100
3, 79920, Note_on_c, 4, 61, 0
3, 79920, Note_on_c, 0, 69, 0
3, 80160, Note_on_c, 4, 61, 100
3, 80160, Note_on_c, 0, 70, 100
3, 80400, Note_on_c, 4, 61, 0
3, 80400, Note_on_c, 0, 70, 0
3, 80640, Note_on_c, 4, 60, 100
3, 80640, Note_on_c, 4, 61, 100
3, 80640, Note_on_c, 0, 68, 100
3, 80880, Note_on_c, 4, 60, 0
3, 80880, Note_on_c, 4, 61, 0
3, 80880, Note_on_c, 0, 68, 0
3, 81120, Note_on_c, 4, 60, 100
3, 81120, Note_on_c, 4, 61, 100
3, 81120, Note_on_c, 0, 68, 100
3, 81360, Note_on_c, 4, 60, 0
3, 81360, Note_on_c, 4, 61, 0
3, 81360, Note_on_c, 0, 68, 0
3, 81600, Note_on_c, 4, 61, 100
3, 81600, Note_on_c, 0, 69, 100
3, 81840, Note_on_c, 4, 61, 0
3, 81840, Note_on_c, 0, 69, 0
3, 81840, Note_on_c, 4, 61, 100
3, 82080, Note_on_c, 4, 61, 0
3, 82080, Note_on_c, 4, 60, 100
3, 82080, Note_on_c, 4, 61, 100
3, 82080, Note_on_c, 0, 69, 100
3, 82320, Note_on_c, 4, 60, 0
3, 82320, Note_on_c, 4, 61, 0
3, 82320, Note_on_c, 0, 69, 0
3, 82560, Note_on_c, 0, 70, 100
3, 82800, Note_on_c, 0, 70, 0
3, 82800, Note_on_c, 4, 61, 100
3, 83040, Note_on_c, 4, 61, 0
3, 83040, Note_on_c, 4, 60, 100
3, 83040, Note_on_c, 4, 61, 100
3, 83040, Note_on_c, 0, 70, 100
3, 83280, Note_on_c, 4, 60, 0
3, 83280, Note_on_c, 4, 61, 0
3, 83280, Note_on_c, 0, 70, 0
3, 83280, Note_on_c, 4, 61, 100
3, 83520, Note_on_c, 4, 61, 0
3, 83520, Note_on_c, 4, 61, 100
3, 83520, Note_on_c, 0, 70, 100
3, 83760, Note_on_c, 4, 61, 0
3, 83760, Note_on_c, 0, 70, 0
3, 84000, Note_on_c, 4, 61, 100
3, 84000, Note_on_c, 0, 70, 100
3, 84240, Note_on_c, 4, 61, 0
3, 84240, Note_on_c, 0, 70, 0
3, 84480, Note_on_c, 4, 60, 100
3, 84480, Note_on_c, 4, 61, 100
3, 84480, Note_on_c, 0, 68, 100
3, 84720, Note_on_c, 4, 60, 0
3, 84720, Note_on_c, 4, 61, 0
3, 84720, Note_on_c, 0, 68, 0
3, 84960, Note_on_c, 4, 61, 100
3, 84960, Note_on_c, 0, 68, 100
3, 85200, Note_on_c, 4, 61, 0
3, 85200, Note_on_c, 0, 68, 0
3, 85440, Note_on_c, 4, 61, 100
3, 85440, Note_on_c, 0, 69, 100
3, 85680, Note_on_c, 4, 61, 0
3, 85680, Note_on_c, 0, 69, 0
3, 85680, Note_on_c, 4, 61, 100
3, 85920, Note_on_c, 4, 61, 0
3, 85920, Note_on_c, 4, 61, 100
3, 85920, Note_on_c, 0, 69, 100
3, 86160, Note_on_c, 4, 61, 0
3, 86160, Note_on_c, 0, 69, 0
3, 86400, Note_on_c, 4, 60, 100
3, 86640, Note_on_c, 4, 60, 0
3, 86640, Note_on_c, 4, 61, 100
3, 86640, Note_on_c, 0, 69, 100
3, 86880, Note_on_c, 4, 61, 0
3, 86880, Note_on_c, 0, 69, 0
3, 86880, Note_on_c, 4, 61, 100
3, 87120, Note_on_c, 4, 61, 0
3, 87120, Note_on_c, 4, 61, 100
3, 87120, Note_on_c, 0, 68, 100
3, 87360, Note_on_c, 4, 61, 0
3, 87360, Note_on_c, 0, 68, 0
3, 87360, Note_on_c, 4, 61, 100
3, 87360, Note_on_c, 0, 69, 100
3, 87600, Note_on_c, 4, 61, 0
3, 87600, Note_on_c, 0, 69, 0
3, 87840, Note_on_c, 4, 61, 100
3, 87840, Note_on_c, 0, 70, 100
3, 88080, Note_on_c, 4, 61, 0
3, 88080, Note_on_c, 0, 70, 0
3, 88320, Note_on_c, 4, 60, 100
3, 88320, Note_on_c, 4, 61, 100
3, 88320, Note_on_c, 0, 68, 100
3, 88560, Note_on_c, 4, 60, 0
3, 88560, Note_on_c, 4, 61, 0
3, 88560, Note_on_c, 0, 68, 0
3, 88800, Note_on_c, 4, 61, 100
3, 88800, Note_on_c, 0, 68, 100
3, 89040, Note_on_c, 4, 61, 0
3, 89040, Note_on_c, 0, 68, 0
3, 89280, Note_on_c, 4, 61, 100
3, 89280, Note_on_c, 0, 69, 100
3, 89520, Note_on_c, 4, 61, 0
3, 89520, Note_on_c, 0, 69, 0
3, 89520, Note_on_c, 4, 61, 100
3, 89760, Note_on_c, 4, 61, 0
3, 89760, Note_on_c, 4, 61, 100
3, 89760, Note_on_c, 0, 69, 100
3, 90000, Note_on_c, 4, 61, 0
3, 90000, Note_on_c, 0, 69, 0
3, 90240, Note_on_c, 4, 60, 100
3, 90480, Note_on_c, 4, 60, 0
3, 90480, Note_on_c, 4, 61, 100
3, 90480, Note_on_c, 0, 69, 100
3, 90720, Note_on_c, 4, 61, 0
3, 90720, Note_on_c, 0, 69, 0
3, 90720, Note_on_c, 4, 61, 100
3, 90960, Note_on_c, 4, 61, 0
3, 90960, Note_on_c, 4, 61, 100
3, 90960, Note_on_c, 0, 68, 100
3, 91200, Note_on_c, 4, 61, 0
3, 91200, Note_on_c, 0, 68, 0
3, 91200, Note_on_c, 4, 61, 100
3, 91200, Note_on_c, 0, 69, 100
3, 91440, Note_on_c, 4, 61, 0
3, 91440, Note_on_c, 0, 69, 0
3, 91680, Note_on_c, 4, 61, 100
3, 91680, Note_on_c, 0, 70, 100
3, 91920, Note_on_c, 4, 61, 0
3, 91920, Note_on_c, 0, 70, 0
3, 92160, Note_on_c, 4, 60, 100
3, 92160, Note_on_c, 4, 61, 100
3, 92160, Note_on_c, 0, 68, 100
3, 92400, Note_on_c, 4, 60, 0
3, 92400, Note_on_c, 4, 61, 0
3, 92400, Note_on_c, 0, 68, 0
3, 92640, Note_on_c, 4, 61, 100
3, 92640, Note_on_c, 0, 68, 100
3, 92880, Note_on_c, 4, 61, 0
3, 92880, Note_on_c, 0, 68, 0
3, 93120, Note_on_c, 4, 61, 100
3, 93120, Note_on_c, 0, 69, 100
3, 93360, Note_on_c, 4, 61, 0
3, 93360, Note_on_c, 0, 69, 0
3, 93360, Note_on_c, 4, 61, 100
3, 93600, Note_on_c, 4, 61, 0
3, 93600, Note_on_c, 4, 61, 100
3, 93600, Note_on_c, 0, 69, 100
3, 93840, Note_on_c, 4, 61, 0
3, 93840, Note_on_c, 0, 69, 0
3, 94080, Note_on_c, 4, 60, 100
3, 94320, Note_on_c, 4, 60, 0
3, 94320, Note_on_c, 4, 61, 100
3, 94320, Note_on_c, 0, 69, 100
3, 94560, Note_on_c, 4, 61, 0
3, 94560, Note_on_c, 0, 69, 0
3, 94560, Note_on_c, 4, 61, 100
3, 94800, Note_on_c, 4, 61, 0
3, 94800, Note_on_c, 4, 61, 100
3, 94800, Note_on_c, 0, 68, 100
3, 95040, Note_on_c, 4, 61, 0
3, 95040, Note_on_c, 0, 68, 0
3, 95040, Note_on_c, 4, 61, 100
3, 95040, Note_on_c, 0, 69, 100
3, 95280, Note_on_c, 4, 61, 0
3, 95280, Note_on_c, 0, 69, 0
3, 95520, Note_on_c, 4, 61, 100
3, 95520, Note_on_c, 0, 70, 100
3, 95760, Note_on_c, 4, 61, 0
3, 95760, Note_on_c, 0, 70, 0
3, 96000, Note_on_c, 4, 60, 100
3, 96000, Note_on_c, 4, 61, 100
3, 96000, Note_on_c, 0, 68, 100
3, 96240, Note_on_c, 4, 60, 0
3, 96240, Note_on_c, 4, 61, 0
3, 96240, Note_on_c, 0, 68, 0
3, 96480, Note_on_c, 4, 60, 100
3, 96480, Note_on_c, 4, 61, 100
3, 96480, Note_on_c, 0, 68, 100
3, 96720, Note_on_c, 4, 60, 0
3, 96720, Note_on_c, 4, 61, 0
3, 96720, Note_on_c, 0, 68, 0
3, 96960, Note_on_c, 4, 61, 100
3, 96960, Note_on_c, 0, 69, 100
3, 97200, Note_on_c, 4, 61, 0
3, 97200, Note_on_c, 0, 69, 0
3, 97200, Note_on_c, 4, 61, 100
3, 97440, Note_on_c, 4, 61, 0
3, 97440, Note_on_c, 4, 60, 100
3, 97440, Note_on_c, 4, 61, 100
3, 97440, Note_on_c, 0, 69, 100
3, 97680, Note_on_c, 4, 60, 0
3, 97680, Note_on_c, 4, 61, 0
3, 97680, Note_on_c, 0, 69, 0
3, 97920, Note_on_c, 0, 69, 100
3, 98160, Note_on_c, 0, 69, 0
3, 98160, Note_on_c, 4, 61, 100
3, 98400, Note_on_c, 4, 61, 0
3, 98400, Note_on_c, 4, 60, 100
3, 98400, Note_on_c, 4, 61, 100
3, 98400, Note_on_c, 0, 70, 100
3, 98640, Note_on_c, 4, 60, 0
3, 98640, Note_on_c, 4, 61, 0
3, 98640, Note_on_c, 4, 61, 100
3, 98880, Note_on_c, 4, 61, 0
3, 98880, Note_on_c, 4, 61, 100
3, 99120, Note_on_c, 4, 61, 0
3, 99360, Note_on_c, 4, 61, 100
3, 99600, Note_on_c, 4, 61, 0
3, 99840, Note_on_c, 0, 70, 0
3, 99840, Note_on_c, 4, 60, 100
3, 99840, Note_on_c, 4, 61, 100
3, 99840, Note_on_c, 0, 68, 100
3, 100080, Note_on_c, 4, 60, 0
3, 100080, Note_on_c, 4, 61, 0
3, 100080, Note_on_c, 0, 68, 0
3, 100320, Note_on_c, 4, 61, 100
3, 100320, Note_on_c, 0, 70, 100
3, 100560, Note_on_c, 4, 61, 0
3, 100560, Note_on_c, 0, 70, 0
3, 100800, Note_on_c, 4, 61, 100
3, 100800, Note_on_c, 0, 68, 100
3, 101040, Note_on_c, 4, 61, 0
3, 101040, Note_on_c, 0, 68, 0
3, 101040, Note_on_c, 4, 61, 100
3, 101280, Note_on_c, 4, 61, 0
3, 101280, Note_on_c, 4, 61, 100
3, 101520, Note_on_c, 4, 61, 0
3, 101520, Note_on_c, 4, 61, 100
3, 101520, Note_on_c, 0, 69, 100
3, 101760, Note_on_c, 4, 61, 0
3, 101760, Note_on_c, 0, 69, 0
3, 101760, Note_on_c, 4, 60, 100
3, 102000, Note_on_c, 4, 60, 0
3, 102000, Note_on_c, 4, 61, 100
3, 102000, Note_on_c, 0, 69, 100
3, 102240, Note_on_c, 4, 61, 0
3, 102240, Note_on_c, 0, 69, 0
3, 102240, Note_on_c, 4, 61, 100
3, 102240, Note_on_c, 0, 69, 100
3, 102480, Note_on_c, 4, 61, 0
3, 102480, Note_on_c, 0, 69, 0
3, 102480, Note_on_c, 4, 61, 100
3, 102720, Note_on_c, 4, 61, 0
3, 102720, Note_on_c, 4, 61, 100
3, 102720, Note_on_c, 0, 69, 100
3, 102960, Note_on_c, 4, 61, 0
3, 102960, Note_on_c, 0, 69, 0
3, 102960, Note_on_c, 4, 61, 100
3, 102960, Note_on_c, 0, 70, 100
3, 103200, Note_on_c, 4, 61, 0
3, 103200, Note_on_c, 0, 70, 0
3, 103200, Note_on_c, 4, 61, 100
3, 103200, Note_on_c, 0, 70, 100
3, 103440, Note_on_c, 4, 61, 0
3, 103440, Note_on_c, 0, 70, 0
3, 103440, Note_on_c, 4, 61, 100
3, 103680, Note_on_c, 4, 61, 0
3, 103680, Note_on_c, 4, 60, 100
3, 103680, Note_on_c, 4, 61, 100
3, 103680, Note_on_c, 0, 68, 100
3, 103920, Note_on_c, 4, 60, 0
3, 103920, Note_on_c, 4, 61, 0
3, 103920, Note_on_c, 0, 68, 0
3, 104160, Note_on_c, 4, 61, 100
3, 104160, Note_on_c, 0, 70, 100
3, 104400, Note_on_c, 4, 61, 0
3, 104400, Note_on_c, 0, 70, 0
3, 104640, Note_on_c, 4, 61, 100
3, 104640, Note_on_c, 0, 68, 100
3, 104880, Note_on_c, 4, 61, 0
3, 104880, Note_on_c, 0, 68, 0
3, 104880, Note_on_c, 4, 61, 100
3, 105120, Note_on_c, 4, 61, 0
3, 105120, Note_on_c, 4, 61, 100
3, 105360, Note_on_c, 4, 61, 0
3, 105360, Note_on_c, 4, 61, 100
3, 105360, Note_on_c, 0, 69, 100
3, 105600, Note_on_c, 4, 61, 0
3, 105600, Note_on_c, 0, 69, 0
3, 105600, Note_on_c, 4, 60, 100
3, 105840, Note_on_c, 4, 60, 0
3, 105840, Note_on_c, 4, 61, 100
3, 105840, Note_on_c, 0, 69, 100
3, 106080, Note_on_c, 4, 61, 0
3, 106080, Note_on_c, 0, 69, 0
3, 106080, Note_on_c, 4, 61, 100
3, 106080, Note_on_c, 0, 69, 100
3, 106320, Note_on_c, 4, 61, 0
3, 106320, Note_on_c, 0, 69, 0
3, 106320, Note_on_c, 4, 61, 100
3, 106560, Note_on_c, 4, 61, 0
3, 106560, Note_on_c, 4, 61, 100
3, 106560, Note_on_c, 0, 69, 100
3, 106800, Note_on_c, 4, 61, 0
3, 106800, Note_on_c, 0, 69, 0
3, 106800, Note_on_c, 4, 61, 100
3, 106800, Note_on_c, 0, 70, 100
3, 107040, Note_on_c, 4, 61, 0
3, 107040, Note_on_c, 0, 70, 0
3, 107040, Note_on_c, 4, 61, 100
3, 107040, Note_on_c, 0, 70, 100
3, 107280, Note_on_c, 4, 61, 0
3, 107280, Note_on_c, 0, 70, 0
3, 107280, Note_on_c, 4, 61, 100
3, 107520, Note_on_c, 4, 61, 0
3, 107520, Note_on_c, 4, 60, 100
3, 107520, Note_on_c, 4, 61, 100
3, 107520, Note_on_c, 0, 68, 100
3, 107760, Note_on_c, 4, 60, 0
3, 107760, Note_on_c, 4, 61, 0
3, 107760, Note_on_c, 0, 68, 0
3, 108000, Note_on_c, 4, 61, 100
3, 108000, Note_on_c, 0, 70, 100
3, 108240, Note_on_c, 4, 61, 0
3, 108240, Note_on_c, 0, 70, 0
3, 108480, Note_on_c, 4, 61, 100
3, 108480, Note_on_c, 0, 68, 100
3, 108720, Note_on_c, 4, 61, 0
3, 108720, Note_on_c, 0, 68, 0
3, 108720, Note_on_c, 4, 61, 100
3, 108960, Note_on_c, 4, 61, 0
3, 108960, Note_on_c, 4, 61, 100
3, 109200, Note_on_c, 4, 61, 0
3, 109200, Note_on_c, 4, 61, 100
3, 109200, Note_on_c, 0, 69, 100
3, 109440, Note_on_c, 4, 61, 0
3, 109440, Note_on_c, 0, 69, 0
3, 109440, Note_on_c, 4, 60, 100
3, 109680, Note_on_c, 4, 60, 0
3, 109680, Note_on_c, 4, 61, 100
3, 109680, Note_on_c, 0, 70, 100
3, 109920, Note_on_c, 4, 61, 0
3, 109920, Note_on_c, 0, 70, 0
3, 109920, Note_on_c, 4, 61, 100
3, 109920, Note_on_c, 0, 70, 100
3, 110160, Note_on_c, 4, 61, 0
3, 110160, Note_on_c, 0, 70, 0
3, 110160, Note_on_c, 4, 61, 100
3, 110400, Note_on_c, 4, 61, 0
3, 110400, Note_on_c, 4, 61, 100
3, 110400, Note_on_c, 0, 70, 100
3, 110640, Note_on_c, 4, 61, 0
3, 110640, Note_on_c, 0, 70, 0
3, 110640, Note_on_c, 4, 61, 100
3, 110880, Note_on_c, 4, 61, 0
3, 110880, Note_on_c, 4, 61, 100
3, 110880, Note_on_c, 0, 70, 100
3, 111120, Note_on_c, 4, 61, 0
3, 111120, Note_on_c, 0, 70, 0
3, 111120, Note_on_c, 4, 61, 100
3, 111360, Note_on_c, 4, 61, 0
3, 111360, Note_on_c, 4, 60, 100
3, 111360, Note_on_c, 4, 61, 100
3, 111360, Note_on_c, 0, 68, 100
3, 111600, Note_on_c, 4, 60, 0
3, 111600, Note_on_c, 4, 61, 0
3, 111600, Note_on_c, 0, 68, 0
3, 111840, Note_on_c, 4, 61, 100
3, 111840, Note_on_c, 0, 70, 100
3, 112080, Note_on_c, 4, 61, 0
3, 112080, Note_on_c, 0, 70, 0
3, 112320, Note_on_c, 4, 61, 100
3, 112320, Note_on_c, 0, 68, 100
3, 112560, Note_on_c, 4, 61, 0
3, 112560, Note_on_c, 0, 68, 0
3, 112560, Note_on_c, 4, 61, 100
3, 112800, Note_on_c, 4, 61, 0
3, 112800, Note_on_c, 4, 61, 100
3, 113040, Note_on_c, 4, 61, 0
3, 113040, Note_on_c, 4, 61, 100
3, 113040, Note_on_c, 0, 69, 100
3, 113280, Note_on_c, 4, 61, 0
3, 113280, Note_on_c, 0, 69, 0
3, 113280, Note_on_c, 4, 60, 100
3, 113520, Note_on_c, 4, 60, 0
3, 113520, Note_on_c, 4, 61, 100
3, 113520, Note_on_c, 0, 69, 100
3, 113760, Note_on_c, 4, 61, 0
3, 113760, Note_on_c, 0, 69, 0
3, 113760, Note_on_c, 4, 61, 100
3, 113760, Note_on_c, 0, 69, 100
3, 114000, Note_on_c, 4, 61, 0
3, 114000, Note_on_c, 0, 69, 0
3, 114000, Note_on_c, 4, 61, 100
3, 114240, Note_on_c, 4, 61, 0
3, 114240, Note_on_c, 4, 61, 100
3, 114240, Note_on_c, 0, 69, 100
3, 114480, Note_on_c, 4, 61, 0
3, 114480, Note_on_c, 0, 69, 0
3, 114480, Note_on_c, 4, 61, 100
3, 114480, Note_on_c, 0, 70, 100
3, 114720, Note_on_c, 4, 61, 0
3, 114720, Note_on_c, 0, 70, 0
3, 114720, Note_on_c, 4, 61, 100
3, 114720, Note_on_c, 0, 70, 100
3, 114960, Note_on_c, 4, 61, 0
3, 114960, Note_on_c, 0, 70, 0
3, 114960, Note_on_c, 4, 61, 100
3, 115200, Note_on_c, 4, 61, 0
3, 115200, Note_on_c, 4, 60, 100
3, 115200, Note_on_c, 4, 61, 100
3, 115200, Note_on_c, 0, 70, 100
3, 115440, Note_on_c, 4, 60, 0
3, 115440, Note_on_c, 4, 61, 0
3, 115440, Note_on_c, 0, 70, 0
3, 115680, Note_on_c, 4, 60, 100
3, 115680, Note_on_c, 4, 61, 100
3, 115680, Note_on_c, 0, 70, 100
3, 115920, Note_on_c, 4, 60, 0
3, 115920, Note_on_c, 4, 61, 0
3, 115920, Note_on_c, 0, 70, 0
3, 116160, Note_on_c, 4, 61, 100
3, 116160, Note_on_c, 0, 70, 100
3, 116400, Note_on_c, 4, 61, 0
3, 116400, Note_on_c, 0, 70, 0
3, 116400, Note_on_c, 4, 61, 100
3, 116640, Note_on_c, 4, 61, 0
3, 116640, Note_on_c, 4, 60, 100
3, 116640, Note_on_c, 4, 61, 100
3, 116640, Note_on_c, 0, 70, 100
3, 116880, Note_on_c, 4, 60, 0
3, 116880, Note_on_c, 4, 61, 0
3, 116880, Note_on_c, 0, 70, 0
3, 117360, Note_on_c, 4, 61, 100
3, 117360, Note_on_c, 0, 70, 100
3, 117600, Note_on_c, 4, 61, 0
3, 117600, Note_on_c, 0, 70, 0
3, 117600, Note_on_c, 4, 60, 100
3, 117600, Note_on_c, 4, 61, 100
3, 117840, Note_on_c, 4, 60, 0
3, 117840, Note_on_c, 4, 61, 0
3, 117840, Note_on_c, 4, 61, 100
3, 118080, Note_on_c, 4, 61, 0
3, 118080, Note_on_c, 4, 61, 100
3, 118080, Note_on_c, 0, 70, 100
3, 118320, Note_on_c, 4, 61, 0
3, 118320, Note_on_c, 0, 70, 0
3, 118560, Note_on_c, 4, 61, 100
3, 118560, Note_on_c, 0, 70, 100
3, 118800, Note_on_c, 4, 61, 0
3, 118800, Note_on_c, 0, 70, 0
3, 119040, Note_on_c, 4, 60, 100
3, 119040, Note_on_c, 4, 61, 100
3, 119040, Note_on_c, 0, 70, 100
3, 119280, Note_on_c, 4, 60, 0
3, 119280, Note_on_c, 4, 61, 0
3, 119280, Note_on_c, 0, 70, 0
3, 119520, Note_on_c, 4, 61, 100
3, 119520, Note_on_c, 0, 69, 100
3, 119760, Note_on_c, 4, 61, 0
3, 119760, Note_on_c, 0, 69, 0
3, 120000, Note_on_c, 4, 61, 100
3, 120000, Note_on_c, 0, 69, 100
3, 120240, Note_on_c, 4, 61, 0
3, 120240, Note_on_c, 0, 69, 0
3, 120240, Note_on_c, 4, 61, 100
3, 120480, Note_on_c, 4, 61, 0
3, 120480, Note_on_c, 4, 61, 100
3, 120480, Note_on_c, 0, 68, 100
3, 120720, Note_on_c, 4, 61, 0
3, 120720, Note_on_c, 0, 68, 0
3, 120960, Note_on_c, 4, 60, 100
3, 120960, Note_on_c, 0, 68, 100
3, 121200, Note_on_c, 4, 60, 0
3, 121200, Note_on_c, 0, 68, 0
3, 121200, Note_on_c, 4, 61, 100
3, 121440, Note_on_c, 4, 61, 0
3, 121440, Note_on_c, 4, 61, 100
3, 121680, Note_on_c, 4, 61, 0
3, 121680, Note_on_c, 4, 61, 100
3, 121680, Note_on_c, 0, 68, 100
3, 121920, Note_on_c, 4, 61, 0
3, 121920, Note_on_c, 0, 68, 0
3, 121920, Note_on_c, 4, 61, 100
3, 121920, Note_on_c, 0, 68, 100
3, 122160, Note_on_c, 4, 61, 0
3, 122160, Note_on_c, 0, 68, 0
3, 122400, Note_on_c, 4, 61, 100
3, 122400, Note_on_c, 0, 70, 100
3, 122640, Note_on_c, 4, 61, 0
3, 122880, Note_on_c, 4, 60, 100
3, 122880, Note_on_c, 4, 61, 100
3, 123120, Note_on_c, 0, 70, 0
3, 123120, Note_on_c, 4, 60, 0
3, 123120, Note_on_c, 4, 61, 0
3, 123360, Note_on_c, 4, 60, 100
3, 123360, Note_on_c, 4, 61, 100
3, 123360, Note_on_c, 0, 69, 100
3, 123600, Note_on_c, 4, 60, 0
3, 123600, Note_on_c, 4, 61, 0
3, 123840, Note_on_c, 4, 61, 100
3, 124080, Note_on_c, 0, 69, 0
3, 124080, Note_on_c, 4, 61, 0
3, 124080, Note_on_c, 4, 61, 100
3, 124320, Note_on_c, 4, 61, 0
3, 124320, Note_on_c, 4, 60, 100
3, 124320, Note_on_c, 4, 61, 100
3, 124320, Note_on_c, 0, 70, 100
3, 124560, Note_on_c, 4, 60, 0
3, 124560, Note_on_c, 4, 61, 0
3, 125040, Note_on_c, 4, 61, 100
3, 125280, Note_on_c, 4, 61, 0
3, 125280, Note_on_c, 4, 60, 100
3, 125280, Note_on_c, 4, 61, 100
3, 125520, Note_on_c, 0, 70, 0
3, 125520, Note_on_c, 4, 60, 0
3, 125520, Note_on_c, 4, 61, 0
3, 125520, Note_on_c, 4, 61, 100
3, 125760, Note_on_c, 4, 61, 0
3, 125760, Note_on_c, 4, 61, 100
3, 125760, Note_on_c, 0, 70, 100
3, 126000, Note_on_c, 4, 61, 0
3, 126000, Note_on_c, 0, 70, 0
3, 126240, Note_on_c, 4, 61, 100
3, 126240, Note_on_c, 0, 69, 100
3, 126400, Note_on_c, 0, 69, 0
3, 126480, Note_on_c, 4, 61, 0
3, 126720, Note_on_c, 4, 60, 100
3, 126720, Note_on_c, 4, 61, 100
3, 126720, Note_on_c, 0, 69, 100
3, 126960, Note_on_c, 4, 60, 0
3, 126960, Note_on_c, 4, 61, 0
3, 126960, Note_on_c, 0, 69, 0
3, 127200, Note_on_c, 4, 61, 100
3, 127200, Note_on_c, 0, 68, 100
3, 127440, Note_on_c, 4, 61, 0
3, 127440, Note_on_c, 0, 68, 0
3, 127440, Note_on_c, 0, 69, 100
3, 127680, Note_on_c, 0, 69, 0
3, 127680, Note_on_c, 4, 61, 100
3, 127680, Note_on_c, 0, 70, 100
3, 127920, Note_on_c, 4, 61, 0
3, 127920, Note_on_c, 0, 70, 0
3, 127920, Note_on_c, 4, 61, 100
3, 128160, Note_on_c, 4, 61, 0
3, 128160, Note_on_c, 4, 61, 100
3, 128400, Note_on_c, 4, 61, 0
3, 128400, Note_on_c, 0, 70, 100
3, 128640, Note_on_c, 0, 70, 0
3, 128640, Note_on_c, 4, 60, 100
3, 128880, Note_on_c, 4, 60, 0
3, 128880, Note_on_c, 4, 61, 100
3, 128960, Note_on_c, 0, 70, 100
3, 129120, Note_on_c, 4, 61, 0
3, 129120, Note_on_c, 0, 70, 0
3, 129120, Note_on_c, 4, 61, 100
3, 129360, Note_on_c, 4, 61, 0
3, 129360, Note_on_c, 4, 61, 100
3, 129600, Note_on_c, 4, 61, 0
3, 129600, Note_on_c, 4, 61, 100
3, 129600, Note_on_c, 0, 70, 100
3, 129760, Note_on_c, 0, 70, 0
3, 129840, Note_on_c, 4, 61, 0
3, 130080, Note_on_c, 4, 61, 100
3, 130240, Note_on_c, 0, 70, 100
3, 130320, Note_on_c, 4, 61, 0
3, 130400, Note_on_c, 0, 70, 0
3, 130560, Note_on_c, 4, 60, 100
3, 130560, Note_on_c, 4, 61, 100
3, 130560, Note_on_c, 0, 70, 100
3, 130800, Note_on_c, 4, 60, 0
3, 130800, Note_on_c, 4, 61, 0
3, 131040, Note_on_c, 4, 60, 100
3, 131040, Note_on_c, 4, 61, 100
3, 131280, Note_on_c, 0, 70, 0
3, 131280, Note_on_c, 4, 60, 0
3, 131280, Note_on_c, 4, 61, 0
3, 131520, Note_on_c, 4, 61, 100
3, 131520, Note_on_c, 0, 70, 100
3, 131680, Note_on_c, 0, 70, 0
3, 131760, Note_on_c, 4, 61, 0
3, 131760, Note_on_c, 4, 61, 100
3, 132000, Note_on_c, 4, 61, 0
3, 132000, Note_on_c, 4, 60, 100
3, 132000, Note_on_c, 4, 61, 100
3, 132240, Note_on_c, 4, 60, 0
3, 132240, Note_on_c, 4, 61, 0
3, 132480, Note_on_c, 0, 69, 100
3, 132720, Note_on_c, 4, 61, 100
3, 132960, Note_on_c, 4, 61, 0
3, 132960, Note_on_c, 4, 60, 100
3, 132960, Note_on_c, 4, 61, 100
3, 133200, Note_on_c, 0, 69, 0
3, 133200, Note_on_c, 4, 60, 0
3, 133200, Note_on_c, 4, 61, 0
3, 133200, Note_on_c, 4, 61, 100
3, 133440, Note_on_c, 4, 61, 0
3, 133440, Note_on_c, 4, 61, 100
3, 133440, Note_on_c, 0, 69, 100
3, 133600, Note_on_c, 0, 69, 0
3, 133680, Note_on_c, 4, 61, 0
3, 133920, Note_on_c, 4, 61, 100
3, 134160, Note_on_c, 4, 61, 0
3, 134400, Note_on_c, 4, 60, 100
3, 134400, Note_on_c, 4, 61, 100
3, 134400, Note_on_c, 0, 70, 100
3, 134640, Note_on_c, 4, 60, 0
3, 134640, Note_on_c, 4, 61, 0
3, 134640, Note_on_c, 0, 70, 0
3, 134880, Note_on_c, 4, 61, 100
3, 134880, Note_on_c, 0, 68, 100
3, 135120, Note_on_c, 4, 61, 0
3, 135120, Note_on_c, 0, 68, 0
3, 135120, Note_on_c, 0, 70, 100
3, 135360, Note_on_c, 0, 70, 0
3, 135360, Note_on_c, 4, 61, 100
3, 135360, Note_on_c, 0, 70, 100
3, 135600, Note_on_c, 4, 61, 0
3, 135600, Note_on_c, 0, 70, 0
3, 135600, Note_on_c, 4, 61, 100
3, 135600, Note_on_c, 0, 68, 100
3, 135840, Note_on_c, 4, 61, 0
3, 135840, Note_on_c, 0, 68, 0
3, 135840, Note_on_c, 4, 61, 100
3, 135840, Note_on_c, 0, 70, 100
3, 136080, Note_on_c, 4, 61, 0
3, 136080, Note_on_c, 0, 70, 0
3, 136320, Note_on_c, 4, 60, 100
3, 136320, Note_on_c, 0, 69, 100
3, 136560, Note_on_c, 4, 60, 0
3, 136560, Note_on_c, 4, 61, 100
3, 136800, Note_on_c, 0, 69, 0
3, 136800, Note_on_c, 4, 61, 0
3, 136800, Note_on_c, 4, 61, 100
3, 136800, Note_on_c, 0, 70, 100
3, 137040, Note_on_c, 4, 61, 0
3, 137040, Note_on_c, 0, 70, 0
3, 137040, Note_on_c, 4, 61, 100
3, 137280, Note_on_c, 4, 61, 0
3, 137280, Note_on_c, 4, 61, 100
3, 137280, Note_on_c, 0, 69, 100
3, 137400, Note_on_c, 0, 69, 0
3, 137520, Note_on_c, 4, 61, 0
3, 137760, Note_on_c, 4, 61, 100
3, 137880, Note_on_c, 0, 69, 100
3, 138000, Note_on_c, 4, 61, 0
3, 138000, Note_on_c, 0, 69, 0
3, 138240, Note_on_c, 4, 60, 100
3, 138240, Note_on_c, 4, 61, 100
3, 138240, Note_on_c, 0, 69, 100
3, 138360, Note_on_c, 0, 69, 0
3, 138480, Note_on_c, 4, 60, 0
3, 138480, Note_on_c, 4, 61, 0
3, 138720, Note_on_c, 4, 60, 100
3, 138720, Note_on_c, 4, 61, 100
3, 138720, Note_on_c, 0, 69, 100
3, 138960, Note_on_c, 4, 60, 0
3, 138960, Note_on_c, 4, 61, 0
3, 138960, Note_on_c, 0, 69, 0
3, 139200, Note_on_c, 4, 61, 100
3, 139200, Note_on_c, 0, 69, 100
3, 139440, Note_on_c, 4, 61, 0
3, 139440, Note_on_c, 0, 69, 0
3, 139440, Note_on_c, 4, 61, 100
3, 139680, Note_on_c, 4, 61, 0
3, 139680, Note_on_c, 4, 60, 100
3, 139680, Note_on_c, 4, 61, 100
3, 139680, Note_on_c, 0, 69, 100
3, 139920, Note_on_c, 4, 60, 0
3, 139920, Note_on_c, 4, 61, 0
3, 139920, Note_on_c, 0, 69, 0
3, 140160, Note_on_c, 0, 69, 100
3, 140400, Note_on_c, 0, 69, 0
3, 140400, Note_on_c, 4, 61, 100
3, 140640, Note_on_c, 4, 61, 0
3, 140640, Note_on_c, 4, 60, 100
3, 140640, Note_on_c, 4, 61, 100
3, 140880, Note_on_c, 4, 60, 0
3, 140880, Note_on_c, 4, 61, 0
3, 140880, Note_on_c, 4, 61, 100
3, 140880, Note_on_c, 0, 69, 100
3, 141120, Note_on_c, 4, 61, 0
3, 141120, Note_on_c, 4, 61, 100
3, 141360, Note_on_c, 0, 69, 0
3, 141360, Note_on_c, 4, 61, 0
3, 141600, Note_on_c, 4, 61, 100
3, 141600, Note_on_c, 0, 70, 100
3, 141840, Note_on_c, 4, 61, 0
3, 141840, Note_on_c, 0, 70, 0
3, 141840, Note_on_c, 0, 69, 100
3, 142080, Note_on_c, 4, 60, 100
3, 142080, Note_on_c, 4, 61, 100
3, 142320, Note_on_c, 0, 69, 0
3, 142320, Note_on_c, 4, 60, 0
3, 142320, Note_on_c, 4, 61, 0
3, 142560, Note_on_c, 4, 61, 100
3, 142560, Note_on_c, 0, 69, 100
3, 142800, Note_on_c, 4, 61, 0
3, 142800, Note_on_c, 0, 69, 0
3, 143040, Note_on_c, 4, 61, 100
3, 143040, Note_on_c, 0, 69, 100
3, 143280, Note_on_c, 4, 61, 0
3, 143280, Note_on_c, 0, 69, 0
3, 143280, Note_on_c, 4, 61, 100
3, 143520, Note_on_c, 4, 61, 0
3, 143520, Note_on_c, 4, 61, 100
3, 143520, Note_on_c, 0, 69, 100
3, 143760, Note_on_c, 4, 61, 0
3, 143760, Note_on_c, 0, 69, 0
3, 143760, Note_on_c, 0, 68, 100
3, 144000, Note_on_c, 0, 68, 0
3, 144000, Note_on_c, 4, 60, 100
3, 144000, Note_on_c, 0, 69, 100
3, 144240, Note_on_c, 4, 60, 0
3, 144240, Note_on_c, 0, 69, 0
3, 144240, Note_on_c, 4, 61, 100
3, 144240, Note_on_c, 0, 68, 100
3, 144480, Note_on_c, 4, 61, 0
3, 144480, Note_on_c, 0, 68, 0
3, 144480, Note_on_c, 4, 61, 100
3, 144480, Note_on_c, 0, 69, 100
3, 144720, Note_on_c, 4, 61, 0
3, 144720, Note_on_c, 0, 69, 0
3, 144720, Note_on_c, 4, 61, 100
3, 144720, Note_on_c, 0, 70, 100
3, 144960, Note_on_c, 4, 61, 0
3, 144960, Note_on_c, 4, 61, 100
3, 145200, Note_on_c, 0, 70, 0
3, 145200, Note_on_c, 4, 61, 0
3, 145200, Note_on_c, 0, 69, 100
3, 145320, Note_on_c, 0, 69, 0
3, 145440, Note_on_c, 4, 61, 100
3, 145680, Note_on_c, 4, 61, 0
3, 145680, Note_on_c, 0, 68, 100
3, 145920, Note_on_c, 0, 68, 0
3, 145920, Note_on_c, 4, 60, 100
3, 145920, Note_on_c, 4, 61, 100
3, 145920, Note_on_c, 0, 68, 100
3, 146160, Note_on_c, 4, 60, 0
3, 146160, Note_on_c, 4, 61, 0
3, 146880, Note_on_c, 4, 61, 100
3, 147120, Note_on_c, 4, 61, 0
3, 147840, Note_on_c, 4, 61, 100
3, 148080, Note_on_c, 4, 61, 0
3, 148800, Note_on_c, 4, 61, 100
3, 149040, Note_on_c, 4, 61, 0
3, 149760, Note_on_c, 4, 61, 100
3, 150000, Note_on_c, 0, 68, 0
3, 150000, Note_on_c, 4, 61, 0
3, 150720, Note_on_c, 4, 61, 100
3, 150960, Note_on_c, 4, 61, 0
3, 151680, Note_on_c, 4, 61, 100
3, 151920, Note_on_c, 4, 61, 0
3, 152640, Note_on_c, 4, 61, 100
3, 152880, Note_on_c, 4, 61, 0
3, 153600, Note_on_c, 4, 61, 100
3, 153840, Note_on_c, 4, 61, 0
3, 154560, Note_on_c, 4, 61, 100
3, 154800, Note_on_c, 4, 61, 0
3, 155520, Note_on_c, 4, 61, 100
3, 155760, Note_on_c, 4, 61, 0
3, 156480, Note_on_c, 4, 61, 100
3, 156720, Note_on_c, 4, 61, 0
3, 156960, Note_on_c, 0, 69, 100
3, 157200, Note_on_c, 0, 69, 0
3, 157440, Note_on_c, 4, 61, 100
3, 157440, Note_on_c, 0, 69, 100
3, 157680, Note_on_c, 4, 61, 0
3, 158400, Note_on_c, 4, 61, 100
3, 158640, Note_on_c, 4, 61, 0
3, 159360, Note_on_c, 4, 61, 100
3, 159600, Note_on_c, 4, 61, 0
3, 160320, Note_on_c, 4, 61, 100
3, 160560, Note_on_c, 4, 61, 0
3, 161040, Note_on_c, 0, 69, 0
3, 161280, Note_on_c, 4, 61, 100
3, 161280, Note_on_c, 0, 69, 100
3, 161520, Note_on_c, 4, 61, 0
3, 161520, Note_on_c, 0, 69, 0
3, 162240, Note_on_c, 4, 61, 100
3, 162480, Note_on_c, 4, 61, 0
3, 163200, Note_on_c, 4, 61, 100
3, 163440, Note_on_c, 4, 61, 0
3, 164160, Note_on_c, 4, 61, 100
3, 164400, Note_on_c, 4, 61, 0
3, 164640, Note_on_c, 0, 69, 100
3, 164880, Note_on_c, 0, 69, 0
3, 165120, Note_on_c, 4, 61, 100
3, 165120, Note_on_c, 0, 69, 100
3, 165360, Note_on_c, 4, 61, 0
3, 166080, Note_on_c, 4, 61, 100
3, 166320, Note_on_c, 4, 61, 0
3, 167040, Note_on_c, 4, 61, 100
3, 167280, Note_on_c, 4, 61, 0
3, 168000, Note_on_c, 4, 61, 100
3, 168240, Note_on_c, 4, 61, 0
3, 168480, Note_on_c, 0, 69, 0
3, 168720, Note_on_c, 0, 69, 100
3, 168960, Note_on_c, 0, 69, 0
3, 168960, Note_on_c, 4, 61, 100
3, 169200, Note_on_c, 4, 61, 0
3, 169920, Note_on_c, 4, 61, 100
3, 170160, Note_on_c, 4, 61, 0
3, 170880, Note_on_c, 4, 61, 100
3, 171120, Note_on_c, 4, 61, 0
3, 171840, Note_on_c, 4, 61, 100
3, 172080, Note_on_c, 4, 61, 0
3, 172320, Note_on_c, 0, 70, 100
3, 172560, Note_on_c, 0, 70, 0
3, 172800, Note_on_c, 4, 61, 100
3, 172800, Note_on_c, 0, 70, 100
3, 173040, Note_on_c, 4, 61, 0
3, 173760, Note_on_c, 4, 61, 100
3, 174000, Note_on_c, 4, 61, 0
3, 174720, Note_on_c, 4, 61, 100
3, 174960, Note_on_c, 4, 61, 0
3, 175680, Note_on_c, 4, 61, 100
3, 175920, Note_on_c, 4, 61, 0
3, 176640, Note_on_c, 4, 60, 100
3, 176640, Note_on_c, 4, 61, 100
3, 176880, Note_on_c, 4, 60, 0
3, 176880, Note_on_c, 4, 61, 0
3, 177600, Note_on_c, 4, 61, 100
3, 177840, Note_on_c, 4, 61, 0
3, 178560, Note_on_c, 4, 61, 100
3, 178800, Note_on_c, 4, 61, 0
3, 179520, Note_on_c, 4, 61, 100
3, 179760, Note_on_c, 4, 61, 0
3, 180240, Note_on_c, 0, 70, 0
3, 180480, Note_on_c, 4, 61, 100
3, 180480, Note_on_c, 0, 69, 100
3, 180720, Note_on_c, 4, 61, 0
3, 181440, Note_on_c, 4, 61, 100
3, 181680, Note_on_c, 4, 61, 0
3, 182400, Note_on_c, 4, 61, 100
3, 182640, Note_on_c, 4, 61, 0
3, 183360, Note_on_c, 4, 61, 100
3, 183600, Note_on_c, 4, 61, 0
3, 184320, Note_on_c, 4, 61, 100
3, 184560, Note_on_c, 4, 61, 0
3, 185280, Note_on_c, 4, 61, 100
3, 185520, Note_on_c, 4, 61, 0
3, 186240, Note_on_c, 4, 61, 100
3, 186480, Note_on_c, 4, 61, 0
3, 187200, Note_on_c, 4, 61, 100
3, 187440, Note_on_c, 0, 69, 0
3, 187440, Note_on_c, 4, 61, 0
3, 187680, Note_on_c, 0, 70, 100
3, 187920, Note_on_c, 0, 70, 0
3, 188160, Note_on_c, 4, 60, 100
3, 188160, Note_on_c, 4, 61, 100
3, 188400, Note_on_c, 4, 60, 0
3, 188400, Note_on_c, 4, 61, 0
3, 188640, Note_on_c, 0, 70, 100
3, 188880, Note_on_c, 0, 70, 0
3, 189120, Note_on_c, 4, 60, 100
3, 189120, Note_on_c, 4, 61, 100
3, 189120, Note_on_c, 0, 70, 100
3, 189360, Note_on_c, 4, 60, 0
3, 189360, Note_on_c, 4, 61, 0
3, 189360, Note_on_c, 0, 70, 0
3, 190080, Note_on_c, 4, 60, 100
3, 190080, Note_on_c, 4, 61, 100
3, 190080, Note_on_c, 0, 70, 100
3, 190320, Note_on_c, 4, 60, 0
3, 190320, Note_on_c, 4, 61, 0
3, 190320, Note_on_c, 0, 70, 0
3, 190560, Note_on_c, 0, 70, 100
3, 190800, Note_on_c, 0, 70, 0
3, 190800, Note_on_c, 0, 68, 100
3, 191040, Note_on_c, 0, 68, 0
3, 191040, Note_on_c, 4, 60, 100
3, 191040, Note_on_c, 4, 61, 100
3, 191280, Note_on_c, 4, 60, 0
3, 191280, Note_on_c, 4, 61, 0
3, 191520, Note_on_c, 0, 70, 100
3, 191760, Note_on_c, 0, 70, 0
3, 192000, Note_on_c, 4, 60, 100
3, 192000, Note_on_c, 4, 61, 100
3, 192000, Note_on_c, 0, 70, 100
3, 192240, Note_on_c, 4, 60, 0
3, 192240, Note_on_c, 4, 61, 0
3, 192240, Note_on_c, 0, 70, 0
3, 192960, Note_on_c, 4, 60, 100
3, 192960, Note_on_c, 4, 61, 100
3, 192960, Note_on_c, 0, 70, 100
3, 193200, Note_on_c, 4, 60, 0
3, 193200, Note_on_c, 4, 61, 0
3, 193200, Note_on_c, 0, 70, 0
3, 193440, Note_on_c, 0, 70, 100
3, 193680, Note_on_c, 0, 70, 0
3, 193680, Note_on_c, 0, 68, 100
3, 193920, Note_on_c, 0, 68, 0
3, 193920, Note_on_c, 4, 60, 100
3, 193920, Note_on_c, 4, 61, 100
3, 194160, Note_on_c, 4, 60, 0
3, 194160, Note_on_c, 4, 61, 0
3, 194400, Note_on_c, 0, 70, 100
3, 194640, Note_on_c, 0, 70, 0
3, 194880, Note_on_c, 4, 60, 100
3, 194880, Note_on_c, 4, 61, 100
3, 194880, Note_on_c, 0, 70, 100
3, 195120, Note_on_c, 4, 60, 0
3, 195120, Note_on_c, 4, 61, 0
3, 195120, Note_on_c, 0, 70, 0
3, 195840, Note_on_c, 4, 60, 100
3, 195840, Note_on_c, 4, 61, 100
3, 195840, Note_on_c, 0, 70, 100
3, 196080, Note_on_c, 4, 60, 0
3, 196080, Note_on_c, 4, 61, 0
3, 196080, Note_on_c, 0, 70, 0
3, 196320, Note_on_c, 0, 70, 100
3, 196560, Note_on_c, 0, 70, 0
3, 196560, Note_on_c, 0, 68, 100
3, 196800, Note_on_c, 0, 68, 0
3, 196800, Note_on_c, 4, 60, 100
3, 196800, Note_on_c, 4, 61, 100
3, 197040, Note_on_c, 4, 60, 0
3, 197040, Note_on_c, 4, 61, 0
3, 197280, Note_on_c, 0, 70, 100
3, 197520, Note_on_c, 0, 70, 0
3, 197760, Note_on_c, 4, 60, 100
3, 197760, Note_on_c, 4, 61, 100
3, 197760, Note_on_c, 0, 70, 100
3, 198000, Note_on_c, 4, 60, 0
3, 198000, Note_on_c, 4, 61, 0
3, 198000, Note_on_c, 0, 70, 0
3, 198720, Note_on_c, 4, 61, 100
3, 198720, Note_on_c, 0, 70, 100
3, 198960, Note_on_c, 4, 61, 0
3, 198960, Note_on_c, 0, 70, 0
3, 198960, Note_on_c, 4, 61, 100
3, 199200, Note_on_c, 4, 61, 0
3, 199200, Note_on_c, 4, 61, 100
3, 199200, Note_on_c, 0, 70, 100
3, 199440, Note_on_c, 4, 61, 0
3, 199440, Note_on_c, 0, 70, 0
3, 199440, Note_on_c, 4, 61, 100
3, 199680, Note_on_c, 4, 61, 0
3, 199680, Note_on_c, 4, 60, 100
3, 199680, Note_on_c, 4, 61, 100
3, 199680, Note_on_c, 0, 68, 100
3, 199920, Note_on_c, 4, 60, 0
3, 199920, Note_on_c, 4, 61, 0
3, 199920, Note_on_c, 0, 68, 0
3, 200160, Note_on_c, 4, 61, 100
3, 200160, Note_on_c, 0, 70, 100
3, 200400, Note_on_c, 4, 61, 0
3, 200400, Note_on_c, 0, 70, 0
3, 200640, Note_on_c, 4, 61, 100
3, 200640, Note_on_c, 0, 70, 100
3, 200880, Note_on_c, 4, 61, 0
3, 200880, Note_on_c, 0, 70, 0
3, 200880, Note_on_c, 4, 61, 100
3, 201120, Note_on_c, 4, 61, 0
3, 201120, Note_on_c, 4, 61, 100
3, 201360, Note_on_c, 4, 61, 0
3, 201360, Note_on_c, 4, 61, 100
3, 201600, Note_on_c, 4, 61, 0
3, 201600, Note_on_c, 4, 60, 100
3, 201600, Note_on_c, 4, 61, 100
3, 201600, Note_on_c, 0, 70, 100
3, 201840, Note_on_c, 4, 60, 0
3, 201840, Note_on_c, 4, 61, 0
3, 201840, Note_on_c, 0, 70, 0
3, 202080, Note_on_c, 4, 61, 100
3, 202080, Note_on_c, 0, 70, 100
3, 202320, Note_on_c, 4, 61, 0
3, 202320, Note_on_c, 0, 70, 0
3, 202320, Note_on_c, 4, 61, 100
3, 202320, Note_on_c, 0, 68, 100
3, 202560, Note_on_c, 4, 61, 0
3, 202560, Note_on_c, 0, 68, 0
3, 202800, Note_on_c, 4, 61, 100
3, 203040, Note_on_c, 4, 61, 0
3, 203040, Note_on_c, 4, 61, 100
3, 203040, Note_on_c, 0, 70, 100
3, 203280, Note_on_c, 4, 61, 0
3, 203280, Note_on_c, 0, 70, 0
3, 203520, Note_on_c, 4, 60, 100
3, 203520, Note_on_c, 4, 61, 100
3, 203520, Note_on_c, 0, 70, 100
3, 203760, Note_on_c, 4, 60, 0
3, 203760, Note_on_c, 4, 61, 0
3, 203760, Note_on_c, 0, 70, 0
3, 203760, Note_on_c, 4, 61, 100
3, 204000, Note_on_c, 4, 61, 0
3, 204000, Note_on_c, 4, 61, 100
3, 204240, Note_on_c, 4, 61, 0
3, 204240, Note_on_c, 4, 61, 100
3, 204480, Note_on_c, 4, 61, 0
3, 204480, Note_on_c, 4, 61, 100
3, 204480, Note_on_c, 0, 70, 100
3, 204720, Note_on_c, 4, 61, 0
3, 204720, Note_on_c, 0, 70, 0
3, 204960, Note_on_c, 4, 61, 100
3, 205200, Note_on_c, 4, 61, 0
3, 205200, Note_on_c, 4, 61, 100
3, 205200, Note_on_c, 0, 68, 100
3, 205440, Note_on_c, 4, 61, 0
3, 205440, Note_on_c, 0, 68, 0
3, 205440, Note_on_c, 4, 60, 100
3, 205680, Note_on_c, 4, 60, 0
3, 205680, Note_on_c, 4, 61, 100
3, 205920, Note_on_c, 4, 61, 0
3, 205920, Note_on_c, 4, 61, 100
3, 205920, Note_on_c, 0, 70, 100
3, 206160, Note_on_c, 4, 61, 0
3, 206160, Note_on_c, 0, 70, 0
3, 206400, Note_on_c, 4, 61, 100
3, 206400, Note_on_c, 0, 70, 100
3, 206640, Note_on_c, 4, 61, 0
3, 206640, Note_on_c, 0, 70, 0
3, 206640, Note_on_c, 4, 61, 100
3, 206880, Note_on_c, 4, 61, 0
3, 206880, Note_on_c, 4, 61, 100
3, 207120, Note_on_c, 4, 61, 0
3, 207120, Note_on_c, 4, 61, 100
3, 207360, Note_on_c, 4, 61, 0
3, 207360, Note_on_c, 4, 60, 100
3, 207360, Note_on_c, 4, 61, 100
3, 207360, Note_on_c, 0, 70, 100
3, 207600, Note_on_c, 4, 60, 0
3, 207600, Note_on_c, 4, 61, 0
3, 207600, Note_on_c, 0, 70, 0
3, 207840, Note_on_c, 4, 61, 100
3, 208080, Note_on_c, 4, 61, 0
3, 208080, Note_on_c, 4, 61, 100
3, 208080, Note_on_c, 0, 68, 100
3, 208320, Note_on_c, 4, 61, 0
3, 208320, Note_on_c, 0, 68, 0
3, 208560, Note_on_c, 4, 61, 100
3, 208800, Note_on_c, 4, 61, 0
3, 208800, Note_on_c, 4, 61, 100
3, 208800, Note_on_c, 0, 70, 100
3, 209040, Note_on_c, 4, 61, 0
3, 209040, Note_on_c, 0, 70, 0
3, 209280, Note_on_c, 4, 60, 100
3, 209280, Note_on_c, 4, 61, 100
3, 209280, Note_on_c, 0, 70, 100
3, 209520, Note_on_c, 4, 60, 0
3, 209520, Note_on_c, 4, 61, 0
3, 209520, Note_on_c, 0, 70, 0
3, 209520, Note_on_c, 4, 61, 100
3, 209760, Note_on_c, 4, 61, 0
3, 209760, Note_on_c, 4, 61, 100
3, 210000, Note_on_c, 4, 61, 0
3, 210000, Note_on_c, 4, 61, 100
3, 210240, Note_on_c, 4, 61, 0
3, 210240, Note_on_c, 4, 61, 100
3, 210240, Note_on_c, 0, 70, 100
3, 210480, Note_on_c, 4, 61, 0
3, 210480, Note_on_c, 0, 70, 0
3, 210480, Note_on_c, 4, 60, 100
3, 210480, Note_on_c, 4, 61, 100
3, 210720, Note_on_c, 4, 60, 0
3, 210720, Note_on_c, 4, 61, 0
3, 210720, Note_on_c, 4, 61, 100
3, 210720, Note_on_c, 0, 70, 100
3, 210960, Note_on_c, 4, 61, 0
3, 210960, Note_on_c, 0, 70, 0
3, 210960, Note_on_c, 4, 61, 100
3, 211200, Note_on_c, 4, 61, 0
3, 211200, Note_on_c, 4, 60, 100
3, 211200, Note_on_c, 4, 61, 100
3, 211200, Note_on_c, 0, 68, 100
3, 211440, Note_on_c, 4, 60, 0
3, 211440, Note_on_c, 4, 61, 0
3, 211440, Note_on_c, 0, 68, 0
3, 211680, Note_on_c, 4, 61, 100
3, 211680, Note_on_c, 0, 70, 100
3, 211920, Note_on_c, 4, 61, 0
3, 211920, Note_on_c, 0, 70, 0
3, 212160, Note_on_c, 4, 61, 100
3, 212160, Note_on_c, 0, 70, 100
3, 212400, Note_on_c, 4, 61, 0
3, 212400, Note_on_c, 0, 70, 0
3, 212400, Note_on_c, 4, 61, 100
3, 212640, Note_on_c, 4, 61, 0
3, 212640, Note_on_c, 4, 61, 100
3, 212880, Note_on_c, 4, 61, 0
3, 212880, Note_on_c, 4, 61, 100
3, 213120, Note_on_c, 4, 61, 0
3, 213120, Note_on_c, 4, 60, 100
3, 213120, Note_on_c, 4, 61, 100
3, 213120, Note_on_c, 0, 70, 100
3, 213360, Note_on_c, 4, 60, 0
3, 213360, Note_on_c, 4, 61, 0
3, 213360, Note_on_c, 0, 70, 0
3, 213600, Note_on_c, 4, 61, 100
3, 213840, Note_on_c, 4, 61, 0
3, 213840, Note_on_c, 4, 61, 100
3, 213840, Note_on_c, 0, 68, 100
3, 214080, Note_on_c, 4, 61, 0
3, 214080, Note_on_c, 0, 68, 0
3, 214320, Note_on_c, 4, 61, 100
3, 214560, Note_on_c, 4, 61, 0
3, 214560, Note_on_c, 4, 61, 100
3, 214560, Note_on_c, 0, 70, 100
3, 214800, Note_on_c, 4, 61, 0
3, 214800, Note_on_c, 0, 70, 0
3, 215040, Note_on_c, 4, 60, 100
3, 215040, Note_on_c, 4, 61, 100
3, 215040, Note_on_c, 0, 70, 100
3, 215280, Note_on_c, 4, 60, 0
3, 215280, Note_on_c, 4, 61, 0
3, 215280, Note_on_c, 0, 70, 0
3, 215280, Note_on_c, 4, 61, 100
3, 215520, Note_on_c, 4, 61, 0
3, 215520, Note_on_c, 4, 61, 100
3, 215760, Note_on_c, 4, 61, 0
3, 215760, Note_on_c, 4, 61, 100
3, 216000, Note_on_c, 4, 61, 0
3, 216000, Note_on_c, 4, 61, 100
3, 216000, Note_on_c, 0, 70, 100
3, 216240, Note_on_c, 4, 61, 0
3, 216240, Note_on_c, 0, 70, 0
3, 216480, Note_on_c, 4, 61, 100
3, 216720, Note_on_c, 4, 61, 0
3, 216720, Note_on_c, 4, 61, 100
3, 216720, Note_on_c, 0, 68, 100
3, 216960, Note_on_c, 4, 61, 0
3, 216960, Note_on_c, 0, 68, 0
3, 216960, Note_on_c, 4, 60, 100
3, 217200, Note_on_c, 4, 60, 0
3, 217200, Note_on_c, 4, 61, 100
3, 217440, Note_on_c, 4, 61, 0
3, 217440, Note_on_c, 4, 61, 100
3, 217440, Note_on_c, 0, 70, 100
3, 217680, Note_on_c, 4, 61, 0
3, 217680, Note_on_c, 0, 70, 0
3, 217920, Note_on_c, 4, 61, 100
3, 217920, Note_on_c, 0, 70, 100
3, 218160, Note_on_c, 4, 61, 0
3, 218160, Note_on_c, 0, 70, 0
3, 218160, Note_on_c, 4, 61, 100
3, 218400, Note_on_c, 4, 61, 0
3, 218400, Note_on_c, 4, 61, 100
3, 218640, Note_on_c, 4, 61, 0
3, 218640, Note_on_c, 4, 61, 100
3, 218880, Note_on_c, 4, 61, 0
3, 218880, Note_on_c, 4, 60, 100
3, 218880, Note_on_c, 4, 61, 100
3, 218880, Note_on_c, 0, 70, 100
3, 219120, Note_on_c, 4, 60, 0
3, 219120, Note_on_c, 4, 61, 0
3, 219120, Note_on_c, 0, 70, 0
3, 219360, Note_on_c, 4, 61, 100
3, 219600, Note_on_c, 4, 61, 0
3, 219600, Note_on_c, 4, 61, 100
3, 219600, Note_on_c, 0, 68, 100
3, 219840, Note_on_c, 4, 61, 0
3, 219840, Note_on_c, 0, 68, 0
3, 220080, Note_on_c, 4, 61, 100
3, 220320, Note_on_c, 4, 61, 0
3, 220320, Note_on_c, 4, 61, 100
3, 220320, Note_on_c, 0, 70, 100
3, 220560, Note_on_c, 4, 61, 0
3, 220560, Note_on_c, 0, 70, 0
3, 220800, Note_on_c, 4, 60, 100
3, 220800, Note_on_c, 4, 61, 100
3, 220800, Note_on_c, 0, 70, 100
3, 221040, Note_on_c, 4, 60, 0
3, 221040, Note_on_c, 4, 61, 0
3, 221040, Note_on_c, 0, 70, 0
3, 221040, Note_on_c, 4, 61, 100
3, 221280, Note_on_c, 4, 61, 0
3, 221280, Note_on_c, 4, 61, 100
3, 221520, Note_on_c, 4, 61, 0
3, 221520, Note_on_c, 4, 61, 100
3, 221760, Note_on_c, 4, 61, 0
3, 221760, Note_on_c, 4, 61, 100
3, 221760, Note_on_c, 0, 70, 100
3, 222000, Note_on_c, 4, 61, 0
3, 222000, Note_on_c, 0, 70, 0
3, 222000, Note_on_c, 4, 60, 100
3, 222000, Note_on_c, 4, 61, 100
3, 222240, Note_on_c, 4, 60, 0
3, 222240, Note_on_c, 4, 61, 0
3, 222240, Note_on_c, 4, 61, 100
3, 222240, Note_on_c, 0, 70, 100
3, 222480, Note_on_c, 4, 61, 0
3, 222480, Note_on_c, 0, 70, 0
3, 222480, Note_on_c, 4, 61, 100
3, 222720, Note_on_c, 4, 61, 0
3, 222720, Note_on_c, 4, 60, 100
3, 222720, Note_on_c, 4, 61, 100
3, 222720, Note_on_c, 0, 68, 100
3, 222960, Note_on_c, 4, 60, 0
3, 222960, Note_on_c, 4, 61, 0
3, 222960, Note_on_c, 0, 68, 0
3, 222960, Note_on_c, 4, 61, 100
3, 223200, Note_on_c, 4, 61, 0
3, 223200, Note_on_c, 4, 60, 100
3, 223200, Note_on_c, 4, 61, 100
3, 223200, Note_on_c, 0, 68, 100
3, 223440, Note_on_c, 4, 60, 0
3, 223440, Note_on_c, 4, 61, 0
3, 223440, Note_on_c, 0, 68, 0
3, 223440, Note_on_c, 4, 61, 100
3, 223680, Note_on_c, 4, 61, 0
3, 223680, Note_on_c, 4, 61, 100
3, 223680, Note_on_c, 0, 68, 100
3, 223920, Note_on_c, 4, 61, 0
3, 223920, Note_on_c, 0, 68, 0
3, 223920, Note_on_c, 4, 61, 100
3, 224160, Note_on_c, 4, 61, 0
3, 224160, Note_on_c, 4, 61, 100
3, 224160, Note_on_c, 0, 68, 100
3, 224400, Note_on_c, 4, 61, 0
3, 224400, Note_on_c, 0, 68, 0
3, 224400, Note_on_c, 4, 61, 100
3, 224640, Note_on_c, 4, 61, 0
3, 224640, Note_on_c, 4, 60, 100
3, 224640, Note_on_c, 4, 61, 100
3, 224640, Note_on_c, 0, 69, 100
3, 224880, Note_on_c, 4, 60, 0
3, 224880, Note_on_c, 4, 61, 0
3, 224880, Note_on_c, 0, 69, 0
3, 224880, Note_on_c, 4, 61, 100
3, 225120, Note_on_c, 4, 61, 0
3, 225120, Note_on_c, 4, 60, 100
3, 225120, Note_on_c, 4, 61, 100
3, 225120, Note_on_c, 0, 69, 100
3, 225360, Note_on_c, 4, 60, 0
3, 225360, Note_on_c, 4, 61, 0
3, 225360, Note_on_c, 0, 69, 0
3, 225360, Note_on_c, 4, 61, 100
3, 225600, Note_on_c, 4, 61, 0
3, 225600, Note_on_c, 4, 61, 100
3, 225600, Note_on_c, 0, 69, 100
3, 225840, Note_on_c, 4, 61, 0
3, 225840, Note_on_c, 0, 69, 0
3, 225840, Note_on_c, 4, 61, 100
3, 226080, Note_on_c, 4, 61, 0
3, 226080, Note_on_c, 4, 61, 100
3, 226080, Note_on_c, 0, 69, 100
3, 226320, Note_on_c, 4, 61, 0
3, 226320, Note_on_c, 0, 69, 0
3, 226320, Note_on_c, 4, 61, 100
3, 226560, Note_on_c, 4, 61, 0
3, 226560, Note_on_c, 4, 60, 100
3, 226560, Note_on_c, 4, 61, 100
3, 226560, Note_on_c, 0, 70, 100
3, 226800, Note_on_c, 4, 60, 0
3, 226800, Note_on_c, 4, 61, 0
3, 226800, Note_on_c, 0, 70, 0
3, 230400, Note_on_c, 4, 60, 100
3, 230400, Note_on_c, 4, 61, 100
3, 230400, Note_on_c, 0, 68, 100
3, 230640, Note_on_c, 4, 60, 0
3, 230640, Note_on_c, 4, 61, 0
3, 230640, Note_on_c, 0, 68, 0
3, 230880, Note_on_c, 4, 61, 100
3, 230880, Note_on_c, 0, 68, 100
3, 231120, Note_on_c, 4, 61, 0
3, 231120, Note_on_c, 0, 68, 0
3, 231360, Note_on_c, 4, 61, 100
3, 231360, Note_on_c, 0, 69, 100
3, 231600, Note_on_c, 4, 61, 0
3, 231600, Note_on_c, 0, 69, 0
3, 231600, Note_on_c, 4, 61, 100
3, 231840, Note_on_c, 4, 61, 0
3, 231840, Note_on_c, 4, 61, 100
3, 231840, Note_on_c, 0, 69, 100
3, 232080, Note_on_c, 4, 61, 0
3, 232080, Note_on_c, 0, 69, 0
3, 232320, Note_on_c, 4, 60, 100
3, 232560, Note_on_c, 4, 60, 0
3, 232560, Note_on_c, 4, 61, 100
3, 232560, Note_on_c, 0, 69, 100
3, 232800, Note_on_c, 4, 61, 0
3, 232800, Note_on_c, 0, 69, 0
3, 232800, Note_on_c, 4, 61, 100
3, 233040, Note_on_c, 4, 61, 0
3, 233040, Note_on_c, 4, 61, 100
3, 233040, Note_on_c, 0, 68, 100
3, 233280, Note_on_c, 4, 61, 0
3, 233280, Note_on_c, 0, 68, 0
3, 233280, Note_on_c, 4, 61, 100
3, 233280, Note_on_c, 0, 69, 100
3, 233520, Note_on_c, 4, 61, 0
3, 233520, Note_on_c, 0, 69, 0
3, 233760, Note_on_c, 4, 61, 100
3, 233760, Note_on_c, 0, 70, 100
3, 234000, Note_on_c, 4, 61, 0
3, 234000, Note_on_c, 0, 70, 0
3, 234240, Note_on_c, 4, 60, 100
3, 234240, Note_on_c, 4, 61, 100
3, 234240, Note_on_c, 0, 68, 100
3, 234480, Note_on_c, 4, 60, 0
3, 234480, Note_on_c, 4, 61, 0
3, 234480, Note_on_c, 0, 68, 0
3, 234720, Note_on_c, 4, 61, 100
3, 234720, Note_on_c, 0, 68, 100
3, 234960, Note_on_c, 4, 61, 0
3, 234960, Note_on_c, 0, 68, 0
3, 235200, Note_on_c, 4, 61, 100
3, 235200, Note_on_c, 0, 69, 100
3, 235440, Note_on_c, 4, 61, 0
3, 235440, Note_on_c, 0, 69, 0
3, 235440, Note_on_c, 4, 61, 100
3, 235680, Note_on_c, 4, 61, 0
3, 235680, Note_on_c, 4, 61, 100
3, 235680, Note_on_c, 0, 69, 100
3, 235920, Note_on_c, 4, 61, 0
3, 235920, Note_on_c, 0, 69, 0
3, 236160, Note_on_c, 4, 60, 100
3, 236400, Note_on_c, 4, 60, 0
3, 236400, Note_on_c, 4, 61, 100
3, 236400, Note_on_c, 0, 69, 100
3, 236640, Note_on_c, 4, 61, 0
3, 236640, Note_on_c, 0, 69, 0
3, 236640, Note_on_c, 4, 61, 100
3, 236880, Note_on_c, 4, 61, 0
3, 236880, Note_on_c, 4, 61, 100
3, 236880, Note_on_c, 0, 68, 100
3, 237120, Note_on_c, 4, 61, 0
3, 237120, Note_on_c, 0, 68, 0
3, 237120, Note_on_c, 4, 61, 100
3, 237120, Note_on_c, 0, 69, 100
3, 237360, Note_on_c, 4, 61, 0
3, 237360, Note_on_c, 0, 69, 0
3, 237600, Note_on_c, 4, 61, 100
3, 237600, Note_on_c, 0, 70, 100
3, 237840, Note_on_c, 4, 61, 0
3, 237840, Note_on_c, 0, 70, 0
3, 238080, Note_on_c, 4, 60, 100
3, 238080, Note_on_c, 4, 61, 100
3, 238080, Note_on_c, 0, 68, 100
3, 238320, Note_on_c, 4, 60, 0
3, 238320, Note_on_c, 4, 61, 0
3, 238320, Note_on_c, 0, 68, 0
3, 238560, Note_on_c, 4, 61, 100
3, 238560, Note_on_c, 0, 68, 100
3, 238800, Note_on_c, 4, 61, 0
3, 238800, Note_on_c, 0, 68, 0
3, 239040, Note_on_c, 4, 61, 100
3, 239040, Note_on_c, 0, 69, 100
3, 239280, Note_on_c, 4, 61, 0
3, 239280, Note_on_c, 0, 69, 0
3, 239280, Note_on_c, 4, 61, 100
3, 239520, Note_on_c, 4, 61, 0
3, 239520, Note_on_c, 4, 61, 100
3, 239520, Note_on_c, 0, 69, 100
3, 239760, Note_on_c, 4, 61, 0
3, 239760, Note_on_c, 0, 69, 0
3, 240000, Note_on_c, 4, 60, 100
3, 240240, Note_on_c, 4, 60, 0
3, 240240, Note_on_c, 4, 61, 100
3, 240240, Note_on_c, 0, 69, 100
3, 240480, Note_on_c, 4, 61, 0
3, 240480, Note_on_c, 0, 69, 0
3, 240480, Note_on_c, 4, 61, 100
3, 240720, Note_on_c, 4, 61, 0
3, 240720, Note_on_c, 4, 61, 100
3, 240720, Note_on_c, 0, 68, 100
3, 240960, Note_on_c, 4, 61, 0
3, 240960, Note_on_c, 0, 68, 0
3, 240960, Note_on_c, 4, 61, 100
3, 240960, Note_on_c, 0, 69, 100
3, 241200, Note_on_c, 4, 61, 0
3, 241200, Note_on_c, 0, 69, 0
3, 241440, Note_on_c, 4, 61, 100
3, 241440, Note_on_c, 0, 70, 100
3, 241680, Note_on_c, 4, 61, 0
3, 241680, Note_on_c, 0, 70, 0
3, 241920, Note_on_c, 4, 60, 100
3, 241920, Note_on_c, 4, 61, 100
3, 241920, Note_on_c, 0, 68, 100
3, 242160, Note_on_c, 4, 60, 0
3, 242160, Note_on_c, 4, 61, 0
3, 242400, Note_on_c, 4, 60, 100
3, 242400, Note_on_c, 4, 61, 100
3, 242640, Note_on_c, 0, 68, 0
3, 242640, Note_on_c, 4, 60, 0
3, 242640, Note_on_c, 4, 61, 0
3, 242880, Note_on_c, 4, 61, 100
3, 242880, Note_on_c, 0, 70, 100
3, 243120, Note_on_c, 4, 61, 0
3, 243120, Note_on_c, 0, 70, 0
3, 243120, Note_on_c, 4, 61, 100
3, 243360, Note_on_c, 4, 61, 0
3, 243360, Note_on_c, 4, 60, 100
3, 243360, Note_on_c, 4, 61, 100
3, 243360, Note_on_c, 0, 70, 100
3, 243600, Note_on_c, 4, 60, 0
3, 243600, Note_on_c, 4, 61, 0
3, 243600, Note_on_c, 0, 70, 0
3, 243840, Note_on_c, 0, 69, 100
3, 244080, Note_on_c, 0, 69, 0
3, 244080, Note_on_c, 4, 61, 100
3, 244320, Note_on_c, 4, 61, 0
3, 244320, Note_on_c, 4, 60, 100
3, 244320, Note_on_c, 4, 61, 100
3, 244320, Note_on_c, 0, 69, 100
3, 244560, Note_on_c, 4, 60, 0
3, 244560, Note_on_c, 4, 61, 0
3, 244560, Note_on_c, 0, 69, 0
3, 244560, Note_on_c, 4, 61, 100
3, 244800, Note_on_c, 4, 61, 0
3, 244800, Note_on_c, 4, 61, 100
3, 244800, Note_on_c, 0, 69, 100
3, 245040, Note_on_c, 4, 61, 0
3, 245040, Note_on_c, 0, 69, 0
3, 245280, Note_on_c, 4, 61, 100
3, 245280, Note_on_c, 0, 69, 100
3, 245520, Note_on_c, 4, 61, 0
3, 245520, Note_on_c, 0, 69, 0
3, 245760, Note_on_c, 4, 60, 100
3, 245760, Note_on_c, 4, 61, 100
3, 245760, Note_on_c, 0, 68, 100
3, 246000, Note_on_c, 4, 60, 0
3, 246000, Note_on_c, 4, 61, 0
3, 246000, Note_on_c, 0, 68, 0
3, 246240, Note_on_c, 4, 61, 100
3, 246240, Note_on_c, 0, 70, 100
3, 246480, Note_on_c, 4, 61, 0
3, 246480, Note_on_c, 0, 70, 0
3, 246720, Note_on_c, 4, 61, 100
3, 246720, Note_on_c, 0, 69, 100
3, 246960, Note_on_c, 4, 61, 0
3, 246960, Note_on_c, 0, 69, 0
3, 246960, Note_on_c, 4, 61, 100
3, 247200, Note_on_c, 4, 61, 0
3, 247200, Note_on_c, 4, 61, 100
3, 247200, Note_on_c, 0, 69, 100
3, 247440, Note_on_c, 4, 61, 0
3, 247440, Note_on_c, 0, 69, 0
3, 247680, Note_on_c, 4, 60, 100
3, 247920, Note_on_c, 4, 60, 0
3, 247920, Note_on_c, 4, 61, 100
3, 247920, Note_on_c, 0, 69, 100
3, 248160, Note_on_c, 4, 61, 0
3, 248160, Note_on_c, 0, 69, 0
3, 248160, Note_on_c, 4, 61, 100
3, 248400, Note_on_c, 4, 61, 0
3, 248400, Note_on_c, 4, 61, 100
3, 248400, Note_on_c, 0, 68, 100
3, 248640, Note_on_c, 4, 61, 0
3, 248640, Note_on_c, 0, 68, 0
3, 248640, Note_on_c, 4, 61, 100
3, 248640, Note_on_c, 0, 69, 100
3, 248880, Note_on_c, 4, 61, 0
3, 248880, Note_on_c, 0, 69, 0
3, 249120, Note_on_c, 4, 61, 100
3, 249120, Note_on_c, 0, 70, 100
3, 249360, Note_on_c, 4, 61, 0
3, 249360, Note_on_c, 0, 70, 0
3, 249600, Note_on_c, 4, 60, 100
3, 249600, Note_on_c, 4, 61, 100
3, 249600, Note_on_c, 0, 68, 100
3, 249840, Note_on_c, 4, 60, 0
3, 249840, Note_on_c, 4, 61, 0
3, 249840, Note_on_c, 0, 68, 0
3, 250080, Note_on_c, 4, 60, 100
3, 250080, Note_on_c, 4, 61, 100
3, 250080, Note_on_c, 0, 70, 100
3, 250320, Note_on_c, 4, 60, 0
3, 250320, Note_on_c, 4, 61, 0
3, 250320, Note_on_c, 0, 70, 0
3, 250560, Note_on_c, 4, 61, 100
3, 250560, Note_on_c, 0, 69, 100
3, 250800, Note_on_c, 4, 61, 0
3, 250800, Note_on_c, 0, 69, 0
3, 250800, Note_on_c, 4, 61, 100
3, 250800, Note_on_c, 0, 68, 100
3, 251040, Note_on_c, 4, 61, 0
3, 251040, Note_on_c, 0, 68, 0
3, 251040, Note_on_c, 4, 60, 100
3, 251040, Note_on_c, 4, 61, 100
3, 251040, Note_on_c, 0, 69, 100
3, 251280, Note_on_c, 4, 60, 0
3, 251280, Note_on_c, 4, 61, 0
3, 251280, Note_on_c, 0, 69, 0
3, 251520, Note_on_c, 0, 70, 100
3, 251760, Note_on_c, 4, 61, 100
3, 252000, Note_on_c, 4, 61, 0
3, 252000, Note_on_c, 4, 60, 100
3, 252000, Note_on_c, 4, 61, 100
3, 252240, Note_on_c, 4, 60, 0
3, 252240, Note_on_c, 4, 61, 0
3, 252240, Note_on_c, 4, 61, 100
3, 252480, Note_on_c, 4, 61, 0
3, 252480, Note_on_c, 4, 61, 100
3, 252720, Note_on_c, 4, 61, 0
3, 252720, Note_on_c, 4, 60, 100
3, 252960, Note_on_c, 0, 70, 0
3, 252960, Note_on_c, 4, 60, 0
3, 252960, Note_on_c, 4, 61, 100
3, 253200, Note_on_c, 4, 61, 0
3, 253440, Note_on_c, 4, 60, 100
3, 253440, Note_on_c, 4, 61, 100
3, 253440, Note_on_c, 0, 68, 100
3, 253680, Note_on_c, 4, 60, 0
3, 253680, Note_on_c, 4, 61, 0
3, 253680, Note_on_c, 0, 68, 0
3, 253920, Note_on_c, 4, 61, 100
3, 253920, Note_on_c, 0, 70, 100
3, 254160, Note_on_c, 4, 61, 0
3, 254160, Note_on_c, 0, 70, 0
3, 254400, Note_on_c, 4, 61, 100
3, 254400, Note_on_c, 0, 69, 100
3, 254640, Note_on_c, 4, 61, 0
3, 254640, Note_on_c, 0, 69, 0
3, 254640, Note_on_c, 4, 61, 100
3, 254880, Note_on_c, 4, 61, 0
3, 254880, Note_on_c, 4, 61, 100
3, 254880, Note_on_c, 0, 69, 100
3, 255120, Note_on_c, 4, 61, 0
3, 255120, Note_on_c, 0, 69, 0
3, 255360, Note_on_c, 4, 60, 100
3, 255600, Note_on_c, 4, 60, 0
3, 255600, Note_on_c, 4, 61, 100
3, 255840, Note_on_c, 4, 61, 0
3, 255840, Note_on_c, 4, 61, 100
3, 255840, Note_on_c, 0, 69, 100
3, 256080, Note_on_c, 4, 61, 0
3, 256080, Note_on_c, 0, 69, 0
3, 256080, Note_on_c, 4, 61, 100
3, 256080, Note_on_c, 0, 68, 100
3, 256320, Note_on_c, 4, 61, 0
3, 256320, Note_on_c, 0, 68, 0
3, 256320, Note_on_c, 4, 61, 100
3, 256320, Note_on_c, 0, 69, 100
3, 256560, Note_on_c, 4, 61, 0
3, 256560, Note_on_c, 0, 69, 0
3, 256800, Note_on_c, 4, 61, 100
3, 256800, Note_on_c, 0, 70, 100
3, 257040, Note_on_c, 4, 61, 0
3, 257040, Note_on_c, 0, 70, 0
3, 257280, Note_on_c, 4, 60, 100
3, 257280, Note_on_c, 4, 61, 100
3, 257280, Note_on_c, 0, 68, 100
3, 257280, Note_on_c, 0, 70, 100
3, 257520, Note_on_c, 4, 60, 0
3, 257520, Note_on_c, 4, 61, 0
3, 258240, Note_on_c, 4, 60, 100
3, 258240, Note_on_c, 4, 61, 100
3, 258480, Note_on_c, 4, 60, 0
3, 258480, Note_on_c, 4, 61, 0
3, 259200, Note_on_c, 4, 60, 100
3, 259200, Note_on_c, 4, 61, 100
3, 259440, Note_on_c, 4, 60, 0
3, 259440, Note_on_c, 4, 61, 0
3, 260160, Note_on_c, 4, 60, 100
3, 260160, Note_on_c, 4, 61, 100
3, 260400, Note_on_c, 4, 60, 0
3, 260400, Note_on_c, 4, 61, 0
3, 261120, Note_on_c, 4, 60, 100
3, 261120, Note_on_c, 4, 61, 100
3, 261360, Note_on_c, 0, 68, 0
3, 261360, Note_on_c, 0, 70, 0
3, 261360, Note_on_c, 4, 60, 0
3, 261360, Note_on_c, 4, 61, 0
3, 262080, Note_on_c, 4, 60, 100
3, 262080, Note_on_c, 4, 61, 100
3, 262320, Note_on_c, 4, 60, 0
3, 262320, Note_on_c, 4, 61, 0
3, 263040, Note_on_c, 4, 60, 100
3, 263040, Note_on_c, 4, 61, 100
3, 263280, Note_on_c, 4, 60, 0
3, 263280, Note_on_c, 4, 61, 0
3, 264000, Note_on_c, 4, 60, 100
3, 264000, Note_on_c, 4, 61, 100
3, 264240, Note_on_c, 4, 60, 0
3, 264240, Note_on_c, 4, 61, 0
3, 264960, Note_on_c, 4, 60, 100
3, 264960, Note_on_c, 4, 61, 100
3, 265200, Note_on_c, 4, 60, 0
3, 265200, Note_on_c, 4, 61, 0
3, 265920, Note_on_c, 4, 60, 100
3, 265920, Note_on_c, 4, 61, 100
3, 266160, Note_on_c, 4, 60, 0
3, 266160, Note_on_c, 4, 61, 0
3, 266880, Note_on_c, 4, 60, 100
3, 266880, Note_on_c, 4, 61, 100
3, 267120, Note_on_c, 4, 60, 0
3, 267120, Note_on_c, 4, 61, 0
3, 267840, Note_on_c, 4, 60, 100
3, 267840, Note_on_c, 4, 61, 100
3, 268080, Note_on_c, 4, 60, 0
3, 268080, Note_on_c, 4, 61, 0
3, 268800, Note_on_c, 4, 60, 100
3, 268800, Note_on_c, 4, 61, 100
3, 269040, Note_on_c, 4, 60, 0
3, 269040, Note_on_c, 4, 61, 0
3, 269040, End_track
4, 0, Start_track
4, 0, Title_t, "ANIM"
4, 7680, Note_on_c, 3, 40, 100
4, 8400, Note_on_c, 3, 40, 0
4, 8640, Note_on_c, 3, 43, 100
4, 8880, Note_on_c, 3, 43, 0
4, 8880, Note_on_c, 3, 42, 100
4, 9120, Note_on_c, 3, 42, 0
4, 9120, Note_on_c, 3, 43, 100
4, 10080, Note_on_c, 3, 43, 0
4, 10320, Note_on_c, 3, 42, 100
4, 10560, Note_on_c, 3, 42, 0
4, 10560, Note_on_c, 3, 43, 100
4, 10800, Note_on_c, 3, 43, 0
4, 11040, Note_on_c, 3, 45, 100
4, 11280, Note_on_c, 3, 45, 0
4, 11520, Note_on_c, 3, 40, 100
4, 12240, Note_on_c, 3, 40, 0
4, 12480, Note_on_c, 3, 43, 100
4, 12720, Note_on_c, 3, 43, 0
4, 12720, Note_on_c, 3, 42, 100
4, 12960, Note_on_c, 3, 42, 0
4, 12960, Note_on_c, 3, 43, 100
4, 13920, Note_on_c, 3, 43, 0
4, 14160, Note_on_c, 3, 42, 100
4, 14400, Note_on_c, 3, 42, 0
4, 14400, Note_on_c, 3, 43, 100
4, 14640, Note_on_c, 3, 43, 0
4, 14880, Note_on_c, 3, 45, 100
4, 15120, Note_on_c, 3, 45, 0
4, 15360, Note_on_c, 3, 40, 100
4, 16080, Note_on_c, 3, 40, 0
4, 16320, Note_on_c, 3, 43, 100
4, 16560, Note_on_c, 3, 43, 0
4, 16560, Note_on_c, 3, 42, 100
4, 16800, Note_on_c, 3, 42, 0
4, 16800, Note_on_c, 3, 43, 100
4, 17760, Note_on_c, 3, 43, 0
4, 18000, Note_on_c, 3, 42, 100
4, 18240, Note_on_c, 3, 42, 0
4, 18240, Note_on_c, 3, 43, 100
4, 18480, Note_on_c, 3, 43, 0
4, 18720, Note_on_c, 3, 45, 100
4, 18960, Note_on_c, 3, 45, 0
4, 19200, Note_on_c, 3, 40, 100
4, 19920, Note_on_c, 3, 40, 0
4, 20160, Note_on_c, 3, 43, 100
4, 20400, Note_on_c, 3, 43, 0
4, 20400, Note_on_c, 3, 42, 100
4, 20640, Note_on_c, 3, 42, 0
4, 20640, Note_on_c, 3, 43, 100
4, 21600, Note_on_c, 3, 43, 0
4, 22080, Note_on_c, 3, 41, 100
4, 22320, Note_on_c, 3, 41, 0
4, 23040, Note_on_c, 3, 40, 100
4, 23760, Note_on_c, 3, 40, 0
4, 24000, Note_on_c, 3, 43, 100
4, 24240, Note_on_c, 3, 43, 0
4, 24240, Note_on_c, 3, 42, 100
4, 24480, Note_on_c, 3, 42, 0
4, 24480, Note_on_c, 3, 43, 100
4, 25440, Note_on_c, 3, 43, 0
4, 25680, Note_on_c, 3, 42, 100
4, 25920, Note_on_c, 3, 42, 0
4, 25920, Note_on_c, 3, 43, 100
4, 26160, Note_on_c, 3, 43, 0
4, 26400, Note_on_c, 3, 45, 100
4, 26640, Note_on_c, 3, 45, 0
4, 26880, Note_on_c, 3, 40, 100
4, 27600, Note_on_c, 3, 40, 0
4, 27840, Note_on_c, 3, 43, 100
4, 28080, Note_on_c, 3, 43, 0
4, 28080, Note_on_c, 3, 42, 100
4, 28320, Note_on_c, 3, 42, 0
4, 28320, Note_on_c, 3, 43, 100
4, 29280, Note_on_c, 3, 43, 0
4, 29520, Note_on_c, 3, 42, 100
4, 29760, Note_on_c, 3, 42, 0
4, 29760, Note_on_c, 3, 43, 100
4, 30000, Note_on_c, 3, 43, 0
4, 30240, Note_on_c, 3, 45, 100
4, 30480, Note_on_c, 3, 45, 0
4, 30720, Note_on_c, 3, 40, 100
4, 31440, Note_on_c, 3, 40, 0
4, 31680, Note_on_c, 3, 43, 100
4, 31920, Note_on_c, 3, 43, 0
4, 31920, Note_on_c, 3, 42, 100
4, 32160, Note_on_c, 3, 42, 0
4, 32160, Note_on_c, 3, 43, 100
4, 33120, Note_on_c, 3, 43, 0
4, 33360, Note_on_c, 3, 42, 100
4, 33600, Note_on_c, 3, 42, 0
4, 33600, Note_on_c, 3, 43, 100
4, 33840, Note_on_c, 3, 43, 0
4, 34080, Note_on_c, 3, 45, 100
4, 34320, Note_on_c, 3, 45, 0
4, 34560, Note_on_c, 3, 40, 100
4, 35280, Note_on_c, 3, 40, 0
4, 35520, Note_on_c, 3, 43, 100
4, 35760, Note_on_c, 3, 43, 0
4, 35760, Note_on_c, 3, 42, 100
4, 36000, Note_on_c, 3, 42, 0
4, 36000, Note_on_c, 3, 43, 100
4, 36480, Note_on_c, 3, 43, 0
4, 36960, Note_on_c, 3, 52, 100
4, 37200, Note_on_c, 3, 52, 0
4, 37440, Note_on_c, 3, 41, 100
4, 37680, Note_on_c, 3, 41, 0
4, 37920, Note_on_c, 3, 45, 100
4, 38160, Note_on_c, 3, 45, 0
4, 38400, Note_on_c, 3, 40, 100
4, 39120, Note_on_c, 3, 40, 0
4, 39360, Note_on_c, 3, 43, 100
4, 39600, Note_on_c, 3, 43, 0
4, 39600, Note_on_c, 3, 42, 100
4, 39840, Note_on_c, 3, 42, 0
4, 39840, Note_on_c, 3, 43, 100
4, 40800, Note_on_c, 3, 43, 0
4, 41040, Note_on_c, 3, 42, 100
4, 41280, Note_on_c, 3, 42, 0
4, 41280, Note_on_c, 3, 43, 100
4, 41520, Note_on_c, 3, 43, 0
4, 41760, Note_on_c, 3, 45, 100
4, 42000, Note_on_c, 3, 45, 0
4, 42240, Note_on_c, 3, 40, 100
4, 42960, Note_on_c, 3, 40, 0
4, 43200, Note_on_c, 3, 43, 100
4, 43440, Note_on_c, 3, 43, 0
4, 43440, Note_on_c, 3, 42, 100
4, 43680, Note_on_c, 3, 42, 0
4, 43680, Note_on_c, 3, 43, 100
4, 44640, Note_on_c, 3, 43, 0
4, 44880, Note_on_c, 3, 42, 100
4, 45120, Note_on_c, 3, 42, 0
4, 45120, Note_on_c, 3, 43, 100
4, 45360, Note_on_c, 3, 43, 0
4, 45600, Note_on_c, 3, 45, 100
4, 45840, Note_on_c, 3, 45, 0
4, 46080, Note_on_c, 3, 40, 100
4, 46800, Note_on_c, 3, 40, 0
4, 47040, Note_on_c, 3, 43, 100
4, 47280, Note_on_c, 3, 43, 0
4, 47280, Note_on_c, 3, 42, 100
4, 47520, Note_on_c, 3, 42, 0
4, 47520, Note_on_c, 3, 43, 100
4, 48480, Note_on_c, 3, 43, 0
4, 48720, Note_on_c, 3, 42, 100
4, 48960, Note_on_c, 3, 42, 0
4, 48960, Note_on_c, 3, 43, 100
4, 49200, Note_on_c, 3, 43, 0
4, 49440, Note_on_c, 3, 45, 100
4, 49680, Note_on_c, 3, 45, 0
4, 49920, Note_on_c, 3, 40, 100
4, 50640, Note_on_c, 3, 40, 0
4, 50880, Note_on_c, 3, 43, 100
4, 51120, Note_on_c, 3, 43, 0
4, 51120, Note_on_c, 3, 42, 100
4, 51360, Note_on_c, 3, 42, 0
4, 51360, Note_on_c, 3, 43, 100
4, 52320, Note_on_c, 3, 43, 0
4, 52560, Note_on_c, 3, 47, 100
4, 53520, Note_on_c, 3, 47, 0
4, 53760, Note_on_c, 3, 40, 100
4, 54000, Note_on_c, 3, 40, 0
4, 54240, Note_on_c, 3, 52, 100
4, 54480, Note_on_c, 3, 52, 0
4, 54720, Note_on_c, 3, 43, 100
4, 54960, Note_on_c, 3, 43, 0
4, 55440, Note_on_c, 3, 47, 100
4, 55680, Note_on_c, 3, 47, 0
4, 55920, Note_on_c, 3, 50, 100
4, 57360, Note_on_c, 3, 50, 0
4, 57600, Note_on_c, 3, 40, 100
4, 57840, Note_on_c, 3, 40, 0
4, 58080, Note_on_c, 3, 52, 100
4, 58320, Note_on_c, 3, 52, 0
4, 58560, Note_on_c, 3, 43, 100
4, 58800, Note_on_c, 3, 43, 0
4, 59280, Note_on_c, 3, 47, 100
4, 59520, Note_on_c, 3, 47, 0
4, 59760, Note_on_c, 3, 50, 100
4, 61200, Note_on_c, 3, 50, 0
4, 61440, Note_on_c, 3, 40, 100
4, 61680, Note_on_c, 3, 40, 0
4, 61920, Note_on_c, 3, 52, 100
4, 62160, Note_on_c, 3, 52, 0
4, 62400, Note_on_c, 3, 43, 100
4, 62640, Note_on_c, 3, 43, 0
4, 63120, Note_on_c, 3, 47, 100
4, 63360, Note_on_c, 3, 47, 0
4, 63600, Note_on_c, 3, 50, 100
4, 65040, Note_on_c, 3, 50, 0
4, 65280, Note_on_c, 3, 40, 100
4, 65520, Note_on_c, 3, 40, 0
4, 65760, Note_on_c, 3, 52, 100
4, 66000, Note_on_c, 3, 52, 0
4, 66240, Note_on_c, 3, 43, 100
4, 66480, Note_on_c, 3, 43, 0
4, 66960, Note_on_c, 3, 47, 100
4, 67200, Note_on_c, 3, 47, 0
4, 67440, Note_on_c, 3, 50, 100
4, 68880, Note_on_c, 3, 50, 0
4, 69120, Note_on_c, 3, 40, 100
4, 69840, Note_on_c, 3, 40, 0
4, 70080, Note_on_c, 3, 43, 100
4, 70320, Note_on_c, 3, 43, 0
4, 70320, Note_on_c, 3, 42, 100
4, 70560, Note_on_c, 3, 42, 0
4, 70560, Note_on_c, 3, 43, 100
4, 71520, Note_on_c, 3, 43, 0
4, 71760, Note_on_c, 3, 42, 100
4, 72000, Note_on_c, 3, 42, 0
4, 72000, Note_on_c, 3, 43, 100
4, 72240, Note_on_c, 3, 43, 0
4, 72480, Note_on_c, 3, 45, 100
4, 72720, Note_on_c, 3, 45, 0
4, 72960, Note_on_c, 3, 40, 100
4, 73680, Note_on_c, 3, 40, 0
4, 73920, Note_on_c, 3, 43, 100
4, 74160, Note_on_c, 3, 43, 0
4, 74160, Note_on_c, 3, 42, 100
4, 74400, Note_on_c, 3, 42, 0
4, 74400, Note_on_c, 3, 43, 100
4, 75360, Note_on_c, 3, 43, 0
4, 75600, Note_on_c, 3, 42, 100
4, 75840, Note_on_c, 3, 42, 0
4, 75840, Note_on_c, 3, 43, 100
4, 76080, Note_on_c, 3, 43, 0
4, 76320, Note_on_c, 3, 45, 100
4, 76560, Note_on_c, 3, 45, 0
4, 76800, Note_on_c, 3, 40, 100
4, 77520, Note_on_c, 3, 40, 0
4, 77760, Note_on_c, 3, 43, 100
4, 78000, Note_on_c, 3, 43, 0
4, 78000, Note_on_c, 3, 42, 100
4, 78240, Note_on_c, 3, 42, 0
4, 78240, Note_on_c, 3, 43, 100
4, 79200, Note_on_c, 3, 43, 0
4, 79440, Note_on_c, 3, 42, 100
4, 79680, Note_on_c, 3, 42, 0
4, 79680, Note_on_c, 3, 43, 100
4, 79920, Note_on_c, 3, 43, 0
4, 80160, Note_on_c, 3, 45, 100
4, 80400, Note_on_c, 3, 45, 0
4, 80640, Note_on_c, 3, 40, 100
4, 81360, Note_on_c, 3, 40, 0
4, 81600, Note_on_c, 3, 43, 100
4, 81840, Note_on_c, 3, 43, 0
4, 81840, Note_on_c, 3, 42, 100
4, 82080, Note_on_c, 3, 42, 0
4, 82080, Note_on_c, 3, 43, 100
4, 83040, Note_on_c, 3, 43, 0
4, 83520, Note_on_c, 3, 41, 100
4, 83760, Note_on_c, 3, 41, 0
4, 84480, Note_on_c, 3, 40, 100
4, 85200, Note_on_c, 3, 40, 0
4, 85440, Note_on_c, 3, 43, 100
4, 85680, Note_on_c, 3, 43, 0
4, 85680, Note_on_c, 3, 42, 100
4, 85920, Note_on_c, 3, 42, 0
4, 85920, Note_on_c, 3, 43, 100
4, 86880, Note_on_c, 3, 43, 0
4, 87120, Note_on_c, 3, 42, 100
4, 87360, Note_on_c, 3, 42, 0
4, 87360, Note_on_c, 3, 43, 100
4, 87600, Note_on_c, 3, 43, 0
4, 87840, Note_on_c, 3, 45, 100
4, 88080, Note_on_c, 3, 45, 0
4, 88320, Note_on_c, 3, 40, 100
4, 89040, Note_on_c, 3, 40, 0
4, 89280, Note_on_c, 3, 43, 100
4, 89520, Note_on_c, 3, 43, 0
4, 89520, Note_on_c, 3, 42, 100
4, 89760, Note_on_c, 3, 42, 0
4, 89760, Note_on_c, 3, 43, 100
4, 90720, Note_on_c, 3, 43, 0
4, 90960, Note_on_c, 3, 42, 100
4, 91200, Note_on_c, 3, 42, 0
4, 91200, Note_on_c, 3, 43, 100
4, 91440, Note_on_c, 3, 43, 0
4, 91680, Note_on_c, 3, 45, 100
4, 91920, Note_on_c, 3, 45, 0
4, 92160, Note_on_c, 3, 40, 100
4, 92880, Note_on_c, 3, 40, 0
4, 93120, Note_on_c, 3, 43, 100
4, 93360, Note_on_c, 3, 43, 0
4, 93360, Note_on_c, 3, 42, 100
4, 93600, Note_on_c, 3, 42, 0
4, 93600, Note_on_c, 3, 43, 100
4, 94560, Note_on_c, 3, 43, 0
4, 94800, Note_on_c, 3, 42, 100
4, 95040, Note_on_c, 3, 42, 0
4, 95040, Note_on_c, 3, 43, 100
4, 95280, Note_on_c, 3, 43, 0
4, 95520, Note_on_c, 3, 45, 100
4, 95760, Note_on_c, 3, 45, 0
4, 96000, Note_on_c, 3, 40, 100
4, 96720, Note_on_c, 3, 40, 0
4, 96960, Note_on_c, 3, 43, 100
4, 97200, Note_on_c, 3, 43, 0
4, 97200, Note_on_c, 3, 42, 100
4, 97440, Note_on_c, 3, 42, 0
4, 97440, Note_on_c, 3, 43, 100
4, 98160, Note_on_c, 3, 43, 0
4, 98640, Note_on_c, 3, 50, 100
4, 99120, Note_on_c, 3, 50, 0
4, 99840, Note_on_c, 3, 40, 100
4, 100080, Note_on_c, 3, 40, 0
4, 100320, Note_on_c, 3, 52, 100
4, 100560, Note_on_c, 3, 52, 0
4, 100800, Note_on_c, 3, 43, 100
4, 101040, Note_on_c, 3, 43, 0
4, 101520, Note_on_c, 3, 47, 100
4, 101760, Note_on_c, 3, 47, 0
4, 102000, Note_on_c, 3, 50, 100
4, 103440, Note_on_c, 3, 50, 0
4, 103680, Note_on_c, 3, 40, 100
4, 103920, Note_on_c, 3, 40, 0
4, 104160, Note_on_c, 3, 52, 100
4, 104400, Note_on_c, 3, 52, 0
4, 104640, Note_on_c, 3, 43, 100
4, 104880, Note_on_c, 3, 43, 0
4, 105360, Note_on_c, 3, 47, 100
4, 105600, Note_on_c, 3, 47, 0
4, 105840, Note_on_c, 3, 50, 100
4, 107280, Note_on_c, 3, 50, 0
4, 107520, Note_on_c, 3, 40, 100
4, 107760, Note_on_c, 3, 40, 0
4, 108000, Note_on_c, 3, 52, 100
4, 108240, Note_on_c, 3, 52, 0
4, 108480, Note_on_c, 3, 43, 100
4, 108720, Note_on_c, 3, 43, 0
4, 109200, Note_on_c, 3, 47, 100
4, 109440, Note_on_c, 3, 47, 0
4, 109680, Note_on_c, 3, 50, 100
4, 111120, Note_on_c, 3, 50, 0
4, 111360, Note_on_c, 3, 40, 100
4, 111600, Note_on_c, 3, 40, 0
4, 111840, Note_on_c, 3, 52, 100
4, 112080, Note_on_c, 3, 52, 0
4, 112320, Note_on_c, 3, 43, 100
4, 112560, Note_on_c, 3, 43, 0
4, 113040, Note_on_c, 3, 47, 100
4, 113280, Note_on_c, 3, 47, 0
4, 113520, Note_on_c, 3, 50, 100
4, 114960, Note_on_c, 3, 50, 0
4, 115200, Note_on_c, 3, 56, 100
4, 119040, Note_on_c, 3, 56, 0
4, 119760, Note_on_c, 3, 52, 100
4, 120000, Note_on_c, 3, 52, 0
4, 120000, Note_on_c, 3, 54, 100
4, 120240, Note_on_c, 3, 54, 0
4, 120720, Note_on_c, 3, 50, 100
4, 120960, Note_on_c, 3, 50, 0
4, 120960, Note_on_c, 3, 52, 100
4, 121440, Note_on_c, 3, 52, 0
4, 121680, Note_on_c, 3, 50, 100
4, 121920, Note_on_c, 3, 50, 0
4, 121920, Note_on_c, 3, 52, 100
4, 122160, Note_on_c, 3, 52, 0
4, 122400, Note_on_c, 3, 57, 100
4, 123120, Note_on_c, 3, 57, 0
4, 123360, Note_on_c, 3, 54, 100
4, 124080, Note_on_c, 3, 54, 0
4, 125520, Note_on_c, 3, 56, 100
4, 126240, Note_on_c, 3, 56, 0
4, 126560, Note_on_c, 3, 48, 100
4, 126720, Note_on_c, 3, 48, 0
4, 126720, Note_on_c, 3, 50, 100
4, 126960, Note_on_c, 3, 50, 0
4, 127200, Note_on_c, 3, 48, 100
4, 127440, Note_on_c, 3, 48, 0
4, 127440, Note_on_c, 3, 50, 100
4, 127680, Note_on_c, 3, 50, 0
4, 127680, Note_on_c, 3, 52, 100
4, 128640, Note_on_c, 3, 52, 0
4, 128640, Note_on_c, 3, 50, 100
4, 128880, Note_on_c, 3, 50, 0
4, 128960, Note_on_c, 3, 52, 100
4, 130160, Note_on_c, 3, 52, 0
4, 130400, Note_on_c, 3, 50, 100
4, 130560, Note_on_c, 3, 50, 0
4, 130800, Note_on_c, 3, 52, 100
4, 132320, Note_on_c, 3, 52, 0
4, 132480, Note_on_c, 3, 50, 100
4, 133600, Note_on_c, 3, 50, 0
4, 133760, Note_on_c, 3, 48, 100
4, 133920, Note_on_c, 3, 48, 0
4, 133920, Note_on_c, 3, 47, 100
4, 134080, Note_on_c, 3, 47, 0
4, 134160, Note_on_c, 3, 48, 100
4, 134400, Note_on_c, 3, 48, 0
4, 134400, Note_on_c, 3, 46, 100
4, 134640, Note_on_c, 3, 46, 0
4, 134880, Note_on_c, 3, 43, 100
4, 135120, Note_on_c, 3, 43, 0
4, 135120, Note_on_c, 3, 46, 100
4, 135360, Note_on_c, 3, 46, 0
4, 135600, Note_on_c, 3, 43, 100
4, 135840, Note_on_c, 3, 43, 0
4, 135840, Note_on_c, 3, 46, 100
4, 136080, Note_on_c, 3, 46, 0
4, 136080, Note_on_c, 3, 44, 100
4, 136560, Note_on_c, 3, 44, 0
4, 136800, Note_on_c, 3, 46, 100
4, 137040, Note_on_c, 3, 46, 0
4, 137280, Note_on_c, 3, 48, 100
4, 139440, Note_on_c, 3, 48, 0
4, 139440, Note_on_c, 3, 50, 100
4, 139680, Note_on_c, 3, 50, 0
4, 139920, Note_on_c, 3, 52, 100
4, 140160, Note_on_c, 3, 52, 0
4, 140160, Note_on_c, 3, 50, 100
4, 140400, Note_on_c, 3, 50, 0
4, 140880, Note_on_c, 3, 52, 100
4, 141600, Note_on_c, 3, 52, 0
4, 141600, Note_on_c, 3, 53, 100
4, 141840, Note_on_c, 3, 53, 0
4, 142080, Note_on_c, 3, 52, 100
4, 142800, Note_on_c, 3, 52, 0
4, 142800, Note_on_c, 3, 50, 100
4, 143040, Note_on_c, 3, 50, 0
4, 143040, Note_on_c, 3, 52, 100
4, 143760, Note_on_c, 3, 52, 0
4, 143760, Note_on_c, 3, 50, 100
4, 144000, Note_on_c, 3, 50, 0
4, 144000, Note_on_c, 3, 52, 100
4, 144240, Note_on_c, 3, 52, 0
4, 144240, Note_on_c, 3, 50, 100
4, 144480, Note_on_c, 3, 50, 0
4, 144480, Note_on_c, 3, 52, 100
4, 144720, Note_on_c, 3, 52, 0
4, 144720, Note_on_c, 3, 53, 100
4, 145200, Note_on_c, 3, 53, 0
4, 145200, Note_on_c, 3, 52, 100
4, 145320, Note_on_c, 3, 52, 0
4, 145680, Note_on_c, 3, 50, 100
4, 145920, Note_on_c, 3, 50, 0
4, 145920, Note_on_c, 3, 47, 100
4, 146160, Note_on_c, 3, 47, 0
4, 149760, Note_on_c, 3, 40, 100
4, 156480, Note_on_c, 3, 40, 0
4, 156960, Note_on_c, 3, 50, 100
4, 157200, Note_on_c, 3, 50, 0
4, 157200, Note_on_c, 3, 51, 100
4, 157440, Note_on_c, 3, 51, 0
4, 157680, Note_on_c, 3, 50, 100
4, 160800, Note_on_c, 3, 50, 0
4, 161280, Note_on_c, 3, 40, 100
4, 163680, Note_on_c, 3, 40, 0
4, 164640, Note_on_c, 3, 50, 100
4, 164880, Note_on_c, 3, 50, 0
4, 164880, Note_on_c, 3, 51, 100
4, 165120, Note_on_c, 3, 51, 0
4, 165360, Note_on_c, 3, 50, 100
4, 168480, Note_on_c, 3, 50, 0
4, 168960, Note_on_c, 3, 40, 100
4, 171840, Note_on_c, 3, 40, 0
4, 172320, Note_on_c, 3, 52, 100
4, 172560, Note_on_c, 3, 52, 0
4, 172560, Note_on_c, 3, 53, 100
4, 172800, Note_on_c, 3, 53, 0
4, 173040, Note_on_c, 3, 52, 100
4, 174480, Note_on_c, 3, 52, 0
4, 174720, Note_on_c, 3, 53, 100
4, 174960, Note_on_c, 3, 53, 0
4, 174960, Note_on_c, 3, 52, 100
4, 175200, Note_on_c, 3, 52, 0
4, 175200, Note_on_c, 3, 53, 100
4, 175440, Note_on_c, 3, 53, 0
4, 175440, Note_on_c, 3, 52, 100
4, 175680, Note_on_c, 3, 52, 0
4, 175680, Note_on_c, 3, 53, 100
4, 175920, Note_on_c, 3, 53, 0
4, 175920, Note_on_c, 3, 52, 100
4, 176160, Note_on_c, 3, 52, 0
4, 176160, Note_on_c, 3, 53, 100
4, 176400, Note_on_c, 3, 53, 0
4, 176400, Note_on_c, 3, 52, 100
4, 176640, Note_on_c, 3, 52, 0
4, 176640, Note_on_c, 3, 53, 100
4, 176880, Note_on_c, 3, 53, 0
4, 176880, Note_on_c, 3, 52, 100
4, 177120, Note_on_c, 3, 52, 0
4, 177120, Note_on_c, 3, 53, 100
4, 177360, Note_on_c, 3, 53, 0
4, 177360, Note_on_c, 3, 52, 100
4, 177600, Note_on_c, 3, 52, 0
4, 177600, Note_on_c, 3, 53, 100
4, 177840, Note_on_c, 3, 53, 0
4, 177840, Note_on_c, 3, 52, 100
4, 178080, Note_on_c, 3, 52, 0
4, 178080, Note_on_c, 3, 53, 100
4, 178320, Note_on_c, 3, 53, 0
4, 178320, Note_on_c, 3, 52, 100
4, 178560, Note_on_c, 3, 52, 0
4, 178560, Note_on_c, 3, 53, 100
4, 178800, Note_on_c, 3, 53, 0
4, 178800, Note_on_c, 3, 52, 100
4, 179040, Note_on_c, 3, 52, 0
4, 179040, Note_on_c, 3, 53, 100
4, 179280, Note_on_c, 3, 53, 0
4, 179280, Note_on_c, 3, 52, 100
4, 180000, Note_on_c, 3, 52, 0
4, 180480, Note_on_c, 3, 50, 100
4, 182400, Note_on_c, 3, 50, 0
4, 184320, Note_on_c, 3, 53, 100
4, 187200, Note_on_c, 3, 53, 0
4, 187680, Note_on_c, 3, 41, 100
4, 187920, Note_on_c, 3, 41, 0
4, 188640, Note_on_c, 3, 47, 100
4, 189360, Note_on_c, 3, 47, 0
4, 189360, Note_on_c, 3, 45, 100
4, 189600, Note_on_c, 3, 45, 0
4, 189600, Note_on_c, 3, 44, 100
4, 189840, Note_on_c, 3, 44, 0
4, 189840, Note_on_c, 3, 45, 100
4, 190080, Note_on_c, 3, 45, 0
4, 190080, Note_on_c, 3, 47, 100
4, 190800, Note_on_c, 3, 47, 0
4, 190800, Note_on_c, 3, 40, 100
4, 191280, Note_on_c, 3, 40, 0
4, 191520, Note_on_c, 3, 47, 100
4, 192240, Note_on_c, 3, 47, 0
4, 192240, Note_on_c, 3, 45, 100
4, 192480, Note_on_c, 3, 45, 0
4, 192480, Note_on_c, 3, 44, 100
4, 192720, Note_on_c, 3, 44, 0
4, 192720, Note_on_c, 3, 45, 100
4, 192960, Note_on_c, 3, 45, 0
4, 192960, Note_on_c, 3, 47, 100
4, 193680, Note_on_c, 3, 47, 0
4, 193680, Note_on_c, 3, 40, 100
4, 194160, Note_on_c, 3, 40, 0
4, 194400, Note_on_c, 3, 47, 100
4, 195120, Note_on_c, 3, 47, 0
4, 195120, Note_on_c, 3, 45, 100
4, 195360, Note_on_c, 3, 45, 0
4, 195360, Note_on_c, 3, 44, 100
4, 195600, Note_on_c, 3, 44, 0
4, 195600, Note_on_c, 3, 45, 100
4, 195840, Note_on_c, 3, 45, 0
4, 195840, Note_on_c, 3, 47, 100
4, 196560, Note_on_c, 3, 47, 0
4, 196560, Note_on_c, 3, 40, 100
4, 197040, Note_on_c, 3, 40, 0
4, 197280, Note_on_c, 3, 47, 100
4, 198000, Note_on_c, 3, 47, 0
4, 198000, Note_on_c, 3, 45, 100
4, 198240, Note_on_c, 3, 45, 0
4, 198240, Note_on_c, 3, 44, 100
4, 198480, Note_on_c, 3, 44, 0
4, 198480, Note_on_c, 3, 45, 100
4, 198720, Note_on_c, 3, 45, 0
4, 198720, Note_on_c, 3, 47, 100
4, 199440, Note_on_c, 3, 47, 0
4, 199440, Note_on_c, 3, 40, 100
4, 199920, Note_on_c, 3, 40, 0
4, 200160, Note_on_c, 3, 47, 100
4, 200880, Note_on_c, 3, 47, 0
4, 200880, Note_on_c, 3, 45, 100
4, 201120, Note_on_c, 3, 45, 0
4, 201120, Note_on_c, 3, 44, 100
4, 201360, Note_on_c, 3, 44, 0
4, 201360, Note_on_c, 3, 45, 100
4, 201600, Note_on_c, 3, 45, 0
4, 201600, Note_on_c, 3, 47, 100
4, 202320, Note_on_c, 3, 47, 0
4, 202320, Note_on_c, 3, 40, 100
4, 202800, Note_on_c, 3, 40, 0
4, 203040, Note_on_c, 3, 47, 100
4, 203760, Note_on_c, 3, 47, 0
4, 203760, Note_on_c, 3, 45, 100
4, 204000, Note_on_c, 3, 45, 0
4, 204000, Note_on_c, 3, 44, 100
4, 204240, Note_on_c, 3, 44, 0
4, 204240, Note_on_c, 3, 45, 100
4, 204480, Note_on_c, 3, 45, 0
4, 204480, Note_on_c, 3, 47, 100
4, 205200, Note_on_c, 3, 47, 0
4, 205200, Note_on_c, 3, 40, 100
4, 205680, Note_on_c, 3, 40, 0
4, 205920, Note_on_c, 3, 47, 100
4, 206640, Note_on_c, 3, 47, 0
4, 206640, Note_on_c, 3, 45, 100
4, 206880, Note_on_c, 3, 45, 0
4, 206880, Note_on_c, 3, 44, 100
4, 207120, Note_on_c, 3, 44, 0
4, 207120, Note_on_c, 3, 45, 100
4, 207360, Note_on_c, 3, 45, 0
4, 207360, Note_on_c, 3, 47, 100
4, 208080, Note_on_c, 3, 47, 0
4, 208080, Note_on_c, 3, 40, 100
4, 208560, Note_on_c, 3, 40, 0
4, 208800, Note_on_c, 3, 47, 100
4, 209520, Note_on_c, 3, 47, 0
4, 209520, Note_on_c, 3, 45, 100
4, 209760, Note_on_c, 3, 45, 0
4, 209760, Note_on_c, 3, 44, 100
4, 210000, Note_on_c, 3, 44, 0
4, 210000, Note_on_c, 3, 45, 100
4, 210240, Note_on_c, 3, 45, 0
4, 210240, Note_on_c, 3, 47, 100
4, 210960, Note_on_c, 3, 47, 0
4, 211200, Note_on_c, 3, 40, 100
4, 211440, Note_on_c, 3, 40, 0
4, 211680, Note_on_c, 3, 47, 100
4, 212400, Note_on_c, 3, 47, 0
4, 212400, Note_on_c, 3, 45, 100
4, 212640, Note_on_c, 3, 45, 0
4, 212640, Note_on_c, 3, 44, 100
4, 212880, Note_on_c, 3, 44, 0
4, 212880, Note_on_c, 3, 45, 100
4, 213120, Note_on_c, 3, 45, 0
4, 213120, Note_on_c, 3, 47, 100
4, 213840, Note_on_c, 3, 47, 0
4, 213840, Note_on_c, 3, 40, 100
4, 214320, Note_on_c, 3, 40, 0
4, 214560, Note_on_c, 3, 47, 100
4, 215280, Note_on_c, 3, 47, 0
4, 215280, Note_on_c, 3, 45, 100
4, 215520, Note_on_c, 3, 45, 0
4, 215520, Note_on_c, 3, 44, 100
4, 215760, Note_on_c, 3, 44, 0
4, 215760, Note_on_c, 3, 45, 100
4, 216000, Note_on_c, 3, 45, 0
4, 216000, Note_on_c, 3, 47, 100
4, 216720, Note_on_c, 3, 47, 0
4, 216720, Note_on_c, 3, 40, 100
4, 217200, Note_on_c, 3, 40, 0
4, 217440, Note_on_c, 3, 47, 100
4, 218160, Note_on_c, 3, 47, 0
4, 218160, Note_on_c, 3, 45, 100
4, 218400, Note_on_c, 3, 45, 0
4, 218400, Note_on_c, 3, 44, 100
4, 218640, Note_on_c, 3, 44, 0
4, 218640, Note_on_c, 3, 45, 100
4, 218880, Note_on_c, 3, 45, 0
4, 218880, Note_on_c, 3, 47, 100
4, 219600, Note_on_c, 3, 47, 0
4, 219600, Note_on_c, 3, 40, 100
4, 220080, Note_on_c, 3, 40, 0
4, 220320, Note_on_c, 3, 47, 100
4, 221040, Note_on_c, 3, 47, 0
4, 221040, Note_on_c, 3, 45, 100
4, 221280, Note_on_c, 3, 45, 0
4, 221280, Note_on_c, 3, 44, 100
4, 221520, Note_on_c, 3, 44, 0
4, 221520, Note_on_c, 3, 45, 100
4, 221760, Note_on_c, 3, 45, 0
4, 221760, Note_on_c, 3, 47, 100
4, 222480, Note_on_c, 3, 47, 0
4, 222720, Note_on_c, 3, 50, 100
4, 224400, Note_on_c, 3, 50, 0
4, 224640, Note_on_c, 3, 52, 100
4, 225840, Note_on_c, 3, 52, 0
4, 226080, Note_on_c, 3, 49, 100
4, 226320, Note_on_c, 3, 49, 0
4, 226560, Note_on_c, 3, 56, 100
4, 226800, Note_on_c, 3, 56, 0
4, 227280, Note_on_c, 3, 45, 100
4, 227520, Note_on_c, 3, 45, 0
4, 229440, Note_on_c, 3, 55, 100
4, 229920, Note_on_c, 3, 55, 0
4, 230400, Note_on_c, 3, 40, 100
4, 231120, Note_on_c, 3, 40, 0
4, 231360, Note_on_c, 3, 43, 100
4, 231600, Note_on_c, 3, 43, 0
4, 231600, Note_on_c, 3, 42, 100
4, 231840, Note_on_c, 3, 42, 0
4, 231840, Note_on_c, 3, 43, 100
4, 232800, Note_on_c, 3, 43, 0
4, 233040, Note_on_c, 3, 42, 100
4, 233280, Note_on_c, 3, 42, 0
4, 233280, Note_on_c, 3, 43, 100
4, 233520, Note_on_c, 3, 43, 0
4, 233760, Note_on_c, 3, 45, 100
4, 234000, Note_on_c, 3, 45, 0
4, 234240, Note_on_c, 3, 40, 100
4, 234960, Note_on_c, 3, 40, 0
4, 235200, Note_on_c, 3, 43, 100
4, 235440, Note_on_c, 3, 43, 0
4, 235440, Note_on_c, 3, 42, 100
4, 235680, Note_on_c, 3, 42, 0
4, 235680, Note_on_c, 3, 43, 100
4, 236640, Note_on_c, 3, 43, 0
4, 236880, Note_on_c, 3, 42, 100
4, 237120, Note_on_c, 3, 42, 0
4, 237120, Note_on_c, 3, 43, 100
4, 237360, Note_on_c, 3, 43, 0
4, 237600, Note_on_c, 3, 45, 100
4, 237840, Note_on_c, 3, 45, 0
4, 238080, Note_on_c, 3, 40, 100
4, 238800, Note_on_c, 3, 40, 0
4, 239040, Note_on_c, 3, 43, 100
4, 239280, Note_on_c, 3, 43, 0
4, 239280, Note_on_c, 3, 42, 100
4, 239520, Note_on_c, 3, 42, 0
4, 239520, Note_on_c, 3, 43, 100
4, 240480, Note_on_c, 3, 43, 0
4, 240720, Note_on_c, 3, 42, 100
4, 240960, Note_on_c, 3, 42, 0
4, 240960, Note_on_c, 3, 43, 100
4, 241200, Note_on_c, 3, 43, 0
4, 241440, Note_on_c, 3, 45, 100
4, 241680, Note_on_c, 3, 45, 0
4, 241920, Note_on_c, 3, 40, 100
4, 242640, Note_on_c, 3, 40, 0
4, 242880, Note_on_c, 3, 52, 100
4, 243120, Note_on_c, 3, 52, 0
4, 243120, Note_on_c, 3, 50, 100
4, 243360, Note_on_c, 3, 50, 0
4, 243360, Note_on_c, 3, 54, 100
4, 243600, Note_on_c, 3, 54, 0
4, 243600, Note_on_c, 3, 52, 100
4, 243840, Note_on_c, 3, 52, 0
4, 243840, Note_on_c, 3, 50, 100
4, 244080, Note_on_c, 3, 50, 0
4, 244080, Note_on_c, 3, 54, 100
4, 244320, Note_on_c, 3, 54, 0
4, 244320, Note_on_c, 3, 51, 100
4, 244560, Note_on_c, 3, 51, 0
4, 244560, Note_on_c, 3, 53, 100
4, 244800, Note_on_c, 3, 53, 0
4, 244800, Note_on_c, 3, 50, 100
4, 245040, Note_on_c, 3, 50, 0
4, 245040, Note_on_c, 3, 54, 100
4, 245280, Note_on_c, 3, 54, 0
4, 245280, Note_on_c, 3, 52, 100
4, 245520, Note_on_c, 3, 52, 0
4, 245760, Note_on_c, 3, 40, 100
4, 246480, Note_on_c, 3, 40, 0
4, 246720, Note_on_c, 3, 43, 100
4, 246960, Note_on_c, 3, 43, 0
4, 246960, Note_on_c, 3, 42, 100
4, 247200, Note_on_c, 3, 42, 0
4, 247200, Note_on_c, 3, 43, 100
4, 248160, Note_on_c, 3, 43, 0
4, 248400, Note_on_c, 3, 42, 100
4, 248640, Note_on_c, 3, 42, 0
4, 248640, Note_on_c, 3, 43, 100
4, 248880, Note_on_c, 3, 43, 0
4, 249120, Note_on_c, 3, 45, 100
4, 249360, Note_on_c, 3, 45, 0
4, 249600, Note_on_c, 3, 40, 100
4, 250320, Note_on_c, 3, 40, 0
4, 250560, Note_on_c, 3, 43, 100
4, 250800, Note_on_c, 3, 43, 0
4, 250800, Note_on_c, 3, 42, 100
4, 251040, Note_on_c, 3, 42, 0
4, 251040, Note_on_c, 3, 43, 100
4, 251280, Note_on_c, 3, 43, 0
4, 251520, Note_on_c, 3, 57, 100
4, 251760, Note_on_c, 3, 57, 0
4, 253440, Note_on_c, 3, 40, 100
4, 254160, Note_on_c, 3, 40, 0
4, 254400, Note_on_c, 3, 43, 100
4, 254640, Note_on_c, 3, 43, 0
4, 254640, Note_on_c, 3, 42, 100
4, 254880, Note_on_c, 3, 42, 0
4, 254880, Note_on_c, 3, 43, 100
4, 255840, Note_on_c, 3, 43, 0
4, 256080, Note_on_c, 3, 42, 100
4, 256320, Note_on_c, 3, 42, 0
4, 256320, Note_on_c, 3, 43, 100
4, 256560, Note_on_c, 3, 43, 0
4, 256800, Note_on_c, 3, 45, 100
4, 257040, Note_on_c, 3, 45, 0
4, 257280, Note_on_c, 3, 52, 100
4, 258240, Note_on_c, 3, 52, 0
4, 260880, Note_on_c, 3, 40, 100
4, 261120, Note_on_c, 3, 40, 0
4, 261120, End_track
5, 0, Start_track
5, 0, Title_t, "EVENTS"
5, 0, Text_t, "[verse]"
5, 0, Text_t, "bass_off"
5, 0, Text_t, "[lighting (blackout)]"
5, 0, Text_t, "sing_off"
5, 0, Text_t, "sing_off"
5, 7680, Text_t, "[music_start]"
5, 7680, Text_t, "[lighting ()]"
5, 7680, Text_t, "bass_on"
5, 7680, Text_t, "[verse]"
5, 22080, Text_t, "[lighting ()]"
5, 53760, Text_t, "[chorus]"
5, 53760, Text_t, "[lighting ()]"
5, 69120, Text_t, "[verse]"
5, 69120, Text_t, "wail_off"
5, 99840, Text_t, "[chorus]"
5, 99840, Text_t, "[lighting (sweep)]"
5, 115200, Text_t, "[lighting ()]"
5, 115200, Text_t, "sing_off"
5, 115200, Text_t, "wail_off"
5, 115200, Text_t, "[solo]"
5, 146880, Text_t, "[lighting (flare)]"
5, 149760, Text_t, "[lighting (blackout)]"
5, 149760, Text_t, "solo_off"
5, 157440, Text_t, "[lighting ()]"
5, 161280, Text_t, "[lighting (blackout)]"
5, 164640, Text_t, "[lighting ()]"
5, 168960, Text_t, "[lighting (blackout)]"
5, 172320, Text_t, "[lighting ()]"
5, 188160, Text_t, "[verse]"
5, 198720, Text_t, "[lighting ()]"
5, 199680, Text_t, "drum_normal"
5, 222720, Text_t, "[lighting (sweep)]"
5, 226560, Text_t, "[lighting (blackout)]"
5, 226560, Text_t, "bass_off"
5, 226560, Text_t, "wail_off"
5, 226560, Text_t, ""
5, 229440, Text_t, "sing_on"
5, 230400, Text_t, "[lighting ()]"
5, 230400, Text_t, "bass_on"
5, 230400, Text_t, "[chorus]"
5, 230400, Text_t, "drum_normal"
5, 257280, Text_t, "[lighting ()]"
5, 257280, Text_t, "[verse]"
5, 261120, Text_t, "[lighting (blackout)]"
5, 268800, Text_t, "bass_off"
5, 269760, Text_t, "sing_off"
5, 269760, Text_t, "[lighting (flare)]"
5, 270718, Text_t, "[end]"
5, 270718, End_track
6, 0, Start_track
6, 0, Title_t, "BAND BASS"
6, 0, Text_t, "drum_off"
6, 0, Text_t, "[idle]"
6, 0, Text_t, "gtr_off"
6, 0, Text_t, "sing_off"
6, 7680, Text_t, "drum_on"
6, 7680, Text_t, "gtr_on"
6, 7680, Text_t, "[play]"
6, 7680, Text_t, "[verse]"
6, 22080, Text_t, "sing_on"
6, 53760, Text_t, "[chorus]"
6, 53760, Text_t, "[lighting (sweep)]"
6, 69120, Text_t, "[verse]"
6, 69120, Text_t, "wail_off"
6, 99840, Text_t, "[chorus]"
6, 99840, Text_t, "[lighting (sweep)]"
6, 115200, Text_t, "solo_on"
6, 115200, Text_t, "sing_off"
6, 115200, Text_t, "wail_off"
6, 115200, Text_t, "[solo]"
6, 146880, Text_t, "drum_off"
6, 149760, Text_t, "gtr_off"
6, 149760, Text_t, "solo_off"
6, 157440, Text_t, "gtr_on"
6, 161280, Text_t, "gtr_off"
6, 164640, Text_t, "gtr_on"
6, 168960, Text_t, "gtr_off"
6, 172320, Text_t, "gtr_on"
6, 188160, Text_t, "[verse]"
6, 198720, Text_t, "drum_allbeat"
6, 199680, Text_t, "drum_normal"
6, 222720, Text_t, "[lighting (sweep)]"
6, 226560, Text_t, "gtr_off"
6, 226560, Text_t, "[idle]"
6, 226560, Text_t, "wail_off"
6, 226560, Text_t, "drum_double"
6, 229440, Text_t, "sing_on"
6, 230400, Text_t, "gtr_on"
6, 230400, Text_t, "[play]"
6, 230400, Text_t, "[chorus]"
6, 230400, Text_t, "drum_normal"
6, 257280, Text_t, "drum_allbeat"
6, 257280, Text_t, "[verse]"
6, 261120, Text_t, "gtr_off"
6, 268800, Text_t, "[idle]"
6, 269760, Text_t, "sing_off"
6, 269760, Text_t, "drum_off"
6, 270718, Text_t, "[end]"
6, 270718, End_track
7, 0, Start_track
7, 0, Title_t, "BAND SINGER"
7, 0, Text_t, "drum_off"
7, 0, Text_t, "bass_off"
7, 0, Text_t, "gtr_off"
7, 0, Text_t, "[idle]"
7, 7680, Text_t, "drum_on"
7, 7680, Text_t, "gtr_on"
7, 7680, Text_t, "bass_on"
7, 7680, Text_t, "[verse]"
7, 22080, Text_t, "[play]"
7, 53760, Text_t, "[chorus]"
7, 53760, Text_t, "[lighting (sweep)]"
7, 69120, Text_t, "[verse]"
7, 69120, Text_t, "wail_off"
7, 99840, Text_t, "[chorus]"
7, 99840, Text_t, "[lighting (sweep)]"
7, 115200, Text_t, "solo_on"
7, 115200, Text_t, "[idle]"
7, 115200, Text_t, "wail_off"
7, 115200, Text_t, "[solo]"
7, 146880, Text_t, "drum_off"
7, 149760, Text_t, "gtr_off"
7, 149760, Text_t, "solo_off"
7, 157440, Text_t, "gtr_on"
7, 161280, Text_t, "gtr_off"
7, 164640, Text_t, "gtr_on"
7, 168960, Text_t, "gtr_off"
7, 172320, Text_t, "gtr_on"
7, 188160, Text_t, "[verse]"
7, 198720, Text_t, "drum_allbeat"
7, 199680, Text_t, "drum_normal"
7, 222720, Text_t, "[lighting (sweep)]"
7, 226560, Text_t, "gtr_off"
7, 226560, Text_t, "bass_off"
7, 226560, Text_t, "wail_off"
7, 226560, Text_t, "drum_double"
7, 229440, Text_t, "[play]"
7, 230400, Text_t, "gtr_on"
7, 230400, Text_t, "bass_on"
7, 230400, Text_t, "[chorus]"
7, 230400, Text_t, "drum_normal"
7, 257280, Text_t, "drum_allbeat"
7, 257280, Text_t, "[verse]"
7, 261120, Text_t, "gtr_off"
7, 268800, Text_t, "bass_off"
7, 269760, Text_t, "[idle]"
7, 269760, Text_t, "drum_off"
7, 270718, Text_t, "[end]"
7, 270718, End_track
8, 0, Start_track
8, 0, Title_t, "BAND DRUMS"
8, 0, Text_t, "[idle]"
8, 0, Text_t, "bass_off"
8, 0, Text_t, "gtr_off"
8, 0, Text_t, "sing_off"
8, 7680, Text_t, "[play]"
8, 7680, Text_t, "gtr_on"
8, 7680, Text_t, "bass_on"
8, 7680, Text_t, "[verse]"
8, 22080, Text_t, "sing_on"
8, 53760, Text_t, "[chorus]"
8, 53760, Text_t, "[lighting (sweep)]"
8, 69120, Text_t, "[verse]"
8, 69120, Text_t, "wail_off"
8, 99840, Text_t, "[chorus]"
8, 99840, Text_t, "[lighting (sweep)]"
8, 115200, Text_t, "solo_on"
8, 115200, Text_t, "sing_off"
8, 115200, Text_t, "wail_off"
8, 115200, Text_t, "[solo]"
8, 146880, Text_t, "[idle]"
8, 149760, Text_t, "gtr_off"
8, 149760, Text_t, "solo_off"
8, 157440, Text_t, "gtr_on"
8, 161280, Text_t, "gtr_off"
8, 164640, Text_t, "gtr_on"
8, 168960, Text_t, "gtr_off"
8, 172320, Text_t, "gtr_on"
8, 188160, Text_t, "[verse]"
8, 198720, Text_t, "[allbeat]"
8, 199680, Text_t, "[nobeat]"
8, 222720, Text_t, "[lighting (sweep)]"
8, 226560, Text_t, "gtr_off"
8, 226560, Text_t, "bass_off"
8, 226560, Text_t, "wail_off"
8, 226560, Text_t, "[double_time]"
8, 229440, Text_t, "sing_on"
8, 230400, Text_t, "gtr_on"
8, 230400, Text_t, "bass_on"
8, 230400, Text_t, "[chorus]"
8, 230400, Text_t, "[nobeat]"
8, 257280, Text_t, "[allbeat]"
8, 257280, Text_t, "[verse]"
8, 261120, Text_t, "gtr_off"
8, 268800, Text_t, "bass_off"
8, 269760, Text_t, "sing_off"
8, 269760, Text_t, "[idle]"
8, 270718, Text_t, "[end]"
8, 270718, End_track
0, 0, End_of_file
