0, 0, Header, 1, 8, 960
1, 0, Start_track
1, 0, Title_t, "nooneknows"
1, 0, Time_signature, 4, 2, 24, 8
1, 0, Tempo, 355450
1, 7680, Tempo, 363855
1, 11520, Tempo, 357142
1, 15360, Tempo, 352941
1, 19200, Tempo, 348836
1, 42240, Tempo, 346819
1, 46080, Tempo, 350876
1, 49920, Tempo, 357142
1, 61440, Tempo, 352941
1, 65280, Tempo, 355028
1, 76800, Tempo, 352941
1, 84480, Tempo, 350876
1, 88320, Tempo, 348026
1, 103680, Tempo, 346419
1, 107520, Tempo, 353565
1, 111360, Tempo, 354609
1, 115200, Tempo, 356718
1, 119040, Tempo, 354817
1, 122880, Tempo, 351906
1, 126720, Tempo, 350672
1, 130560, Tempo, 351906
1, 134400, Tempo, 353148
1, 145920, Tempo, 348836
1, 153600, Tempo, 350876
1, 161280, Tempo, 348836
1, 165120, Tempo, 344826
1, 168960, Tempo, 350876
1, 188160, Tempo, 346217
1, 192000, Tempo, 345223
1, 199680, Tempo, 355870
1, 211200, Tempo, 352732
1, 215040, Tempo, 350876
1, 222720, Tempo, 352319
1, 226560, Tempo, 350466
1, 230400, Tempo, 357142
1, 241920, Tempo, 355028
1, 249600, Tempo, 361445
1, 253440, Tempo, 363635
1, 257280, Tempo, 365853
1, 261120, Tempo, 357142
1, 264960, Tempo, 352941
1, 268800, Tempo, 357142
1, 272640, Tempo, 350876
1, 276480, Tempo, 355028
1, 280320, Tempo, 361445
1, 284160, Tempo, 355028
1, 288000, Tempo, 363635
1, 291840, Tempo, 355028
1, 295680, Tempo, 363635
1, 299520, Tempo, 357142
1, 303360, Tempo, 352941
1, 307200, Tempo, 355028
1, 322560, Tempo, 350876
1, 330240, Tempo, 348836
1, 337920, Tempo, 355028
1, 341760, Tempo, 357142
1, 349440, Tempo, 355028
1, 353280, Tempo, 357142
1, 360960, Tempo, 352941
1, 372480, Tempo, 357142
1, 376320, Tempo, 344826
1, 380160, Tempo, 348836
1, 387840, Tempo, 350876
1, 391680, Tempo, 344826
1, 399360, Tempo, 355028
1, 407040, Tempo, 348836
1, 410880, Tempo, 350876
1, 422400, Tempo, 348836
1, 426240, Tempo, 346819
1, 430080, Tempo, 355028
1, 433920, Tempo, 352941
1, 453120, Tempo, 357142
1, 472320, Tempo, 355028
1, 476160, Tempo, 352941
1, 483840, Tempo, 355028
1, 499200, Tempo, 363635
1, 503040, Tempo, 359281
1, 510720, Tempo, 357142
1, 514560, Tempo, 368097
1, 518400, Tempo, 363635
1, 522240, Tempo, 370370
1, 526080, Tempo, 368097
1, 529920, Tempo, 372669
1, 533760, Tempo, 357142
1, 549120, Tempo, 348836
1, 560640, Tempo, 346819
1, 572160, Tempo, 348836
1, 576000, Tempo, 350876
1, 579840, Tempo, 352941
1, 587520, Tempo, 357142
1, 595200, Tempo, 342857
1, 599040, Tempo, 350876
1, 602880, Tempo, 355028
1, 606720, Tempo, 352941
1, 610560, Tempo, 355028
1, 618240, Tempo, 357142
1, 622080, Tempo, 361445
1, 625920, Tempo, 355028
1, 633600, Tempo, 348836
1, 645120, Tempo, 350876
1, 648960, Tempo, 348836
1, 656640, Tempo, 346819
1, 672000, Tempo, 352941
1, 672000, End_track
2, 0, Start_track
2, 0, Title_t, "PART GUITAR"
2, 0, Text_t, "sing_off"
2, 0, Text_t, "[idle]"
2, 0, Text_t, "drum_off"
2, 0, Text_t, "bass_off"
2, 7650, Note_on_c, 0, 69, 100
2, 7650, Note_on_c, 0, 81, 100
2, 7650, Note_on_c, 0, 93, 100
2, 7650, Note_on_c, 0, 105, 100
2, 7680, Text_t, "[chorus]"
2, 7680, Text_t, "[play]"
2, 7680, Text_t, "drum_on"
2, 7680, Text_t, "bass_on"
2, 7680, Text_t, "[section intro]"
2, 7680, Note_on_c, 0, 61, 100
2, 7680, Note_on_c, 0, 62, 100
2, 7680, Note_on_c, 0, 74, 100
2, 7680, Note_on_c, 0, 75, 100
2, 7680, Note_on_c, 0, 86, 100
2, 7680, Note_on_c, 0, 88, 100
2, 7680, Note_on_c, 0, 98, 100
2, 7680, Note_on_c, 0, 100, 100
2, 7680, Note_on_c, 3, 47, 100
2, 7920, Note_on_c, 0, 61, 0
2, 7920, Note_on_c, 0, 62, 0
2, 7920, Note_on_c, 0, 74, 0
2, 7920, Note_on_c, 0, 75, 0
2, 7920, Note_on_c, 0, 86, 0
2, 7920, Note_on_c, 0, 88, 0
2, 7920, Note_on_c, 0, 98, 0
2, 7920, Note_on_c, 0, 100, 0
2, 9570, Note_on_c, 0, 69, 0
2, 9570, Note_on_c, 0, 81, 0
2, 9570, Note_on_c, 0, 93, 0
2, 9570, Note_on_c, 0, 105, 0
2, 9570, Note_on_c, 0, 70, 100
2, 9570, Note_on_c, 0, 82, 100
2, 9570, Note_on_c, 0, 94, 100
2, 9570, Note_on_c, 0, 106, 100
2, 9600, Note_on_c, 0, 61, 100
2, 9600, Note_on_c, 0, 62, 100
2, 9600, Note_on_c, 0, 74, 100
2, 9600, Note_on_c, 0, 75, 100
2, 9600, Note_on_c, 0, 86, 100
2, 9600, Note_on_c, 0, 88, 100
2, 9600, Note_on_c, 0, 98, 100
2, 9600, Note_on_c, 0, 100, 100
2, 9840, Note_on_c, 0, 61, 0
2, 9840, Note_on_c, 0, 62, 0
2, 9840, Note_on_c, 0, 74, 0
2, 9840, Note_on_c, 0, 75, 0
2, 9840, Note_on_c, 0, 86, 0
2, 9840, Note_on_c, 0, 88, 0
2, 9840, Note_on_c, 0, 98, 0
2, 9840, Note_on_c, 0, 100, 0
2, 11490, Note_on_c, 0, 70, 0
2, 11490, Note_on_c, 0, 82, 0
2, 11490, Note_on_c, 0, 94, 0
2, 11490, Note_on_c, 0, 106, 0
2, 11490, Note_on_c, 0, 69, 100
2, 11490, Note_on_c, 0, 81, 100
2, 11490, Note_on_c, 0, 93, 100
2, 11490, Note_on_c, 0, 105, 100
2, 11520, Note_on_c, 0, 61, 100
2, 11520, Note_on_c, 0, 62, 100
2, 11520, Note_on_c, 0, 74, 100
2, 11520, Note_on_c, 0, 75, 100
2, 11520, Note_on_c, 0, 86, 100
2, 11520, Note_on_c, 0, 88, 100
2, 11520, Note_on_c, 0, 98, 100
2, 11520, Note_on_c, 0, 100, 100
2, 11760, Note_on_c, 0, 61, 0
2, 11760, Note_on_c, 0, 62, 0
2, 11760, Note_on_c, 0, 74, 0
2, 11760, Note_on_c, 0, 75, 0
2, 11760, Note_on_c, 0, 86, 0
2, 11760, Note_on_c, 0, 88, 0
2, 11760, Note_on_c, 0, 98, 0
2, 11760, Note_on_c, 0, 100, 0
2, 13410, Note_on_c, 0, 69, 0
2, 13410, Note_on_c, 0, 81, 0
2, 13410, Note_on_c, 0, 93, 0
2, 13410, Note_on_c, 0, 105, 0
2, 13410, Note_on_c, 0, 70, 100
2, 13410, Note_on_c, 0, 82, 100
2, 13410, Note_on_c, 0, 94, 100
2, 13410, Note_on_c, 0, 106, 100
2, 13440, Note_on_c, 0, 61, 100
2, 13440, Note_on_c, 0, 62, 100
2, 13440, Note_on_c, 0, 74, 100
2, 13440, Note_on_c, 0, 75, 100
2, 13440, Note_on_c, 0, 86, 100
2, 13440, Note_on_c, 0, 88, 100
2, 13440, Note_on_c, 0, 98, 100
2, 13440, Note_on_c, 0, 100, 100
2, 13680, Note_on_c, 0, 61, 0
2, 13680, Note_on_c, 0, 62, 0
2, 13680, Note_on_c, 0, 74, 0
2, 13680, Note_on_c, 0, 75, 0
2, 13680, Note_on_c, 0, 86, 0
2, 13680, Note_on_c, 0, 88, 0
2, 13680, Note_on_c, 0, 98, 0
2, 13680, Note_on_c, 0, 100, 0
2, 13920, Note_on_c, 3, 47, 0
2, 14050, Note_on_c, 0, 69, 100
2, 14050, Note_on_c, 0, 81, 100
2, 14050, Note_on_c, 0, 93, 100
2, 14050, Note_on_c, 0, 105, 100
2, 14080, Note_on_c, 0, 97, 100
2, 14160, Note_on_c, 3, 52, 100
2, 14240, Note_on_c, 0, 97, 0
2, 14400, Note_on_c, 3, 52, 0
2, 14400, Note_on_c, 0, 61, 100
2, 14400, Note_on_c, 0, 73, 100
2, 14400, Note_on_c, 0, 86, 100
2, 14400, Note_on_c, 0, 98, 100
2, 15360, Text_t, "[verse]"
2, 15360, Note_on_c, 0, 61, 0
2, 15360, Note_on_c, 0, 73, 0
2, 15360, Note_on_c, 0, 86, 0
2, 15360, Note_on_c, 0, 98, 0
2, 15360, Note_on_c, 0, 60, 100
2, 15360, Note_on_c, 0, 72, 100
2, 15360, Note_on_c, 0, 84, 100
2, 15360, Note_on_c, 0, 96, 100
2, 15360, Note_on_c, 3, 40, 100
2, 15600, Note_on_c, 0, 60, 0
2, 15600, Note_on_c, 0, 72, 0
2, 15600, Note_on_c, 0, 84, 0
2, 15600, Note_on_c, 0, 96, 0
2, 15600, Note_on_c, 3, 40, 0
2, 15810, Note_on_c, 0, 70, 0
2, 15810, Note_on_c, 0, 82, 0
2, 15810, Note_on_c, 0, 94, 0
2, 15810, Note_on_c, 0, 106, 0
2, 16320, Note_on_c, 0, 62, 100
2, 16320, Note_on_c, 0, 72, 100
2, 16320, Note_on_c, 0, 74, 100
2, 16320, Note_on_c, 0, 85, 100
2, 16320, Note_on_c, 0, 87, 100
2, 16320, Note_on_c, 0, 97, 100
2, 16320, Note_on_c, 0, 99, 100
2, 16320, Note_on_c, 3, 49, 100
2, 16560, Note_on_c, 0, 62, 0
2, 16560, Note_on_c, 0, 72, 0
2, 16560, Note_on_c, 0, 74, 0
2, 16560, Note_on_c, 0, 85, 0
2, 16560, Note_on_c, 0, 87, 0
2, 16560, Note_on_c, 0, 97, 0
2, 16560, Note_on_c, 0, 99, 0
2, 17280, Note_on_c, 0, 62, 100
2, 17280, Note_on_c, 0, 74, 100
2, 17280, Note_on_c, 0, 85, 100
2, 17280, Note_on_c, 0, 87, 100
2, 17280, Note_on_c, 0, 97, 100
2, 17280, Note_on_c, 0, 99, 100
2, 17520, Note_on_c, 3, 49, 0
2, 17520, Note_on_c, 0, 62, 0
2, 17520, Note_on_c, 0, 74, 0
2, 17520, Note_on_c, 0, 85, 0
2, 17520, Note_on_c, 0, 87, 0
2, 17520, Note_on_c, 0, 97, 0
2, 17520, Note_on_c, 0, 99, 0
2, 17848, Note_on_c, 0, 86, 100
2, 17920, Note_on_c, 0, 73, 100
2, 17920, Note_on_c, 0, 98, 100
2, 18088, Note_on_c, 0, 86, 0
2, 18160, Note_on_c, 0, 73, 0
2, 18160, Note_on_c, 0, 98, 0
2, 18240, Note_on_c, 0, 60, 100
2, 18240, Note_on_c, 0, 72, 100
2, 18240, Note_on_c, 0, 85, 100
2, 18240, Note_on_c, 0, 97, 100
2, 18240, Note_on_c, 3, 47, 100
2, 18480, Note_on_c, 0, 60, 0
2, 18480, Note_on_c, 0, 72, 0
2, 18480, Note_on_c, 0, 85, 0
2, 18480, Note_on_c, 0, 97, 0
2, 18720, Note_on_c, 3, 47, 0
2, 19200, Note_on_c, 0, 62, 100
2, 19200, Note_on_c, 0, 72, 100
2, 19200, Note_on_c, 0, 74, 100
2, 19200, Note_on_c, 0, 85, 100
2, 19200, Note_on_c, 0, 87, 100
2, 19200, Note_on_c, 0, 97, 100
2, 19200, Note_on_c, 0, 99, 100
2, 19200, Note_on_c, 3, 49, 100
2, 19440, Note_on_c, 0, 62, 0
2, 19440, Note_on_c, 0, 72, 0
2, 19440, Note_on_c, 0, 74, 0
2, 19440, Note_on_c, 0, 85, 0
2, 19440, Note_on_c, 0, 87, 0
2, 19440, Note_on_c, 0, 97, 0
2, 19440, Note_on_c, 0, 99, 0
2, 20160, Note_on_c, 0, 62, 100
2, 20160, Note_on_c, 0, 74, 100
2, 20160, Note_on_c, 0, 85, 100
2, 20160, Note_on_c, 0, 87, 100
2, 20160, Note_on_c, 0, 97, 100
2, 20160, Note_on_c, 0, 99, 100
2, 20400, Note_on_c, 3, 49, 0
2, 20400, Note_on_c, 0, 62, 0
2, 20400, Note_on_c, 0, 74, 0
2, 20400, Note_on_c, 0, 85, 0
2, 20400, Note_on_c, 0, 87, 0
2, 20400, Note_on_c, 0, 97, 0
2, 20400, Note_on_c, 0, 99, 0
2, 20728, Note_on_c, 0, 86, 100
2, 20800, Note_on_c, 0, 73, 100
2, 20800, Note_on_c, 0, 98, 100
2, 20968, Note_on_c, 0, 86, 0
2, 21040, Note_on_c, 0, 73, 0
2, 21040, Note_on_c, 0, 98, 0
2, 21120, Note_on_c, 0, 60, 100
2, 21120, Note_on_c, 0, 72, 100
2, 21120, Note_on_c, 0, 85, 100
2, 21120, Note_on_c, 0, 97, 100
2, 21120, Note_on_c, 3, 47, 100
2, 21360, Note_on_c, 0, 60, 0
2, 21360, Note_on_c, 0, 72, 0
2, 21360, Note_on_c, 0, 85, 0
2, 21360, Note_on_c, 0, 97, 0
2, 21600, Note_on_c, 3, 47, 0
2, 21730, Note_on_c, 0, 70, 100
2, 21730, Note_on_c, 0, 82, 100
2, 21730, Note_on_c, 0, 94, 100
2, 21730, Note_on_c, 0, 106, 100
2, 21760, Note_on_c, 0, 97, 100
2, 21840, Note_on_c, 3, 52, 100
2, 21920, Note_on_c, 0, 97, 0
2, 22080, Note_on_c, 3, 52, 0
2, 22080, Note_on_c, 0, 61, 100
2, 22080, Note_on_c, 0, 73, 100
2, 22080, Note_on_c, 0, 86, 100
2, 22080, Note_on_c, 0, 98, 100
2, 23040, Note_on_c, 0, 61, 0
2, 23040, Note_on_c, 0, 73, 0
2, 23040, Note_on_c, 0, 86, 0
2, 23040, Note_on_c, 0, 98, 0
2, 23040, Note_on_c, 0, 60, 100
2, 23040, Note_on_c, 0, 72, 100
2, 23040, Note_on_c, 0, 84, 100
2, 23040, Note_on_c, 0, 96, 100
2, 23040, Note_on_c, 3, 40, 100
2, 23280, Note_on_c, 0, 60, 0
2, 23280, Note_on_c, 0, 72, 0
2, 23280, Note_on_c, 0, 84, 0
2, 23280, Note_on_c, 0, 96, 0
2, 23280, Note_on_c, 3, 40, 0
2, 23490, Note_on_c, 0, 69, 0
2, 23490, Note_on_c, 0, 81, 0
2, 23490, Note_on_c, 0, 93, 0
2, 23490, Note_on_c, 0, 105, 0
2, 24000, Note_on_c, 0, 62, 100
2, 24000, Note_on_c, 0, 72, 100
2, 24000, Note_on_c, 0, 74, 100
2, 24000, Note_on_c, 0, 85, 100
2, 24000, Note_on_c, 0, 87, 100
2, 24000, Note_on_c, 0, 97, 100
2, 24000, Note_on_c, 0, 99, 100
2, 24000, Note_on_c, 3, 49, 100
2, 24240, Note_on_c, 0, 62, 0
2, 24240, Note_on_c, 0, 72, 0
2, 24240, Note_on_c, 0, 74, 0
2, 24240, Note_on_c, 0, 85, 0
2, 24240, Note_on_c, 0, 87, 0
2, 24240, Note_on_c, 0, 97, 0
2, 24240, Note_on_c, 0, 99, 0
2, 24960, Note_on_c, 0, 62, 100
2, 24960, Note_on_c, 0, 74, 100
2, 24960, Note_on_c, 0, 85, 100
2, 24960, Note_on_c, 0, 87, 100
2, 24960, Note_on_c, 0, 97, 100
2, 24960, Note_on_c, 0, 99, 100
2, 25200, Note_on_c, 3, 49, 0
2, 25200, Note_on_c, 0, 62, 0
2, 25200, Note_on_c, 0, 74, 0
2, 25200, Note_on_c, 0, 85, 0
2, 25200, Note_on_c, 0, 87, 0
2, 25200, Note_on_c, 0, 97, 0
2, 25200, Note_on_c, 0, 99, 0
2, 25526, Note_on_c, 0, 86, 100
2, 25600, Note_on_c, 0, 73, 100
2, 25600, Note_on_c, 0, 98, 100
2, 25766, Note_on_c, 0, 86, 0
2, 25840, Note_on_c, 0, 73, 0
2, 25840, Note_on_c, 0, 98, 0
2, 25920, Note_on_c, 0, 60, 100
2, 25920, Note_on_c, 0, 72, 100
2, 25920, Note_on_c, 0, 85, 100
2, 25920, Note_on_c, 0, 97, 100
2, 25920, Note_on_c, 3, 47, 100
2, 26160, Note_on_c, 0, 60, 0
2, 26160, Note_on_c, 0, 72, 0
2, 26160, Note_on_c, 0, 85, 0
2, 26160, Note_on_c, 0, 97, 0
2, 26400, Note_on_c, 3, 47, 0
2, 26880, Note_on_c, 0, 62, 100
2, 26880, Note_on_c, 0, 72, 100
2, 26880, Note_on_c, 0, 74, 100
2, 26880, Note_on_c, 0, 85, 100
2, 26880, Note_on_c, 0, 87, 100
2, 26880, Note_on_c, 0, 97, 100
2, 26880, Note_on_c, 0, 99, 100
2, 26880, Note_on_c, 3, 49, 100
2, 27120, Note_on_c, 0, 62, 0
2, 27120, Note_on_c, 0, 72, 0
2, 27120, Note_on_c, 0, 74, 0
2, 27120, Note_on_c, 0, 85, 0
2, 27120, Note_on_c, 0, 87, 0
2, 27120, Note_on_c, 0, 97, 0
2, 27120, Note_on_c, 0, 99, 0
2, 27840, Note_on_c, 0, 62, 100
2, 27840, Note_on_c, 0, 74, 100
2, 27840, Note_on_c, 0, 85, 100
2, 27840, Note_on_c, 0, 87, 100
2, 27840, Note_on_c, 0, 97, 100
2, 27840, Note_on_c, 0, 99, 100
2, 28080, Note_on_c, 3, 49, 0
2, 28080, Note_on_c, 0, 62, 0
2, 28080, Note_on_c, 0, 74, 0
2, 28080, Note_on_c, 0, 85, 0
2, 28080, Note_on_c, 0, 87, 0
2, 28080, Note_on_c, 0, 97, 0
2, 28080, Note_on_c, 0, 99, 0
2, 28406, Note_on_c, 0, 86, 100
2, 28480, Note_on_c, 0, 73, 100
2, 28480, Note_on_c, 0, 98, 100
2, 28646, Note_on_c, 0, 86, 0
2, 28720, Note_on_c, 0, 73, 0
2, 28720, Note_on_c, 0, 98, 0
2, 28800, Note_on_c, 0, 60, 100
2, 28800, Note_on_c, 0, 72, 100
2, 28800, Note_on_c, 0, 85, 100
2, 28800, Note_on_c, 0, 97, 100
2, 28800, Note_on_c, 3, 47, 100
2, 29040, Note_on_c, 0, 60, 0
2, 29040, Note_on_c, 0, 72, 0
2, 29040, Note_on_c, 0, 85, 0
2, 29040, Note_on_c, 0, 97, 0
2, 29280, Note_on_c, 3, 47, 0
2, 29410, Note_on_c, 0, 69, 100
2, 29410, Note_on_c, 0, 81, 100
2, 29410, Note_on_c, 0, 93, 100
2, 29410, Note_on_c, 0, 105, 100
2, 29440, Note_on_c, 0, 97, 100
2, 29520, Note_on_c, 3, 52, 100
2, 29680, Note_on_c, 0, 97, 0
2, 29760, Note_on_c, 3, 52, 0
2, 29760, Note_on_c, 0, 61, 100
2, 29760, Note_on_c, 0, 73, 100
2, 29760, Note_on_c, 0, 86, 100
2, 29760, Note_on_c, 0, 98, 100
2, 30720, Note_on_c, 0, 61, 0
2, 30720, Note_on_c, 0, 73, 0
2, 30720, Note_on_c, 0, 86, 0
2, 30720, Note_on_c, 0, 98, 0
2, 30720, Note_on_c, 0, 60, 100
2, 30720, Note_on_c, 0, 72, 100
2, 30720, Note_on_c, 0, 84, 100
2, 30720, Note_on_c, 0, 96, 100
2, 30720, Note_on_c, 3, 40, 100
2, 30960, Note_on_c, 0, 60, 0
2, 30960, Note_on_c, 0, 72, 0
2, 30960, Note_on_c, 0, 84, 0
2, 30960, Note_on_c, 0, 96, 0
2, 30960, Note_on_c, 3, 40, 0
2, 31170, Note_on_c, 0, 70, 0
2, 31170, Note_on_c, 0, 82, 0
2, 31170, Note_on_c, 0, 94, 0
2, 31170, Note_on_c, 0, 106, 0
2, 31680, Note_on_c, 0, 62, 100
2, 31680, Note_on_c, 0, 72, 100
2, 31680, Note_on_c, 0, 74, 100
2, 31680, Note_on_c, 0, 85, 100
2, 31680, Note_on_c, 0, 87, 100
2, 31680, Note_on_c, 0, 97, 100
2, 31680, Note_on_c, 0, 99, 100
2, 31680, Note_on_c, 3, 49, 100
2, 31920, Note_on_c, 0, 62, 0
2, 31920, Note_on_c, 0, 72, 0
2, 31920, Note_on_c, 0, 74, 0
2, 31920, Note_on_c, 0, 85, 0
2, 31920, Note_on_c, 0, 87, 0
2, 31920, Note_on_c, 0, 97, 0
2, 31920, Note_on_c, 0, 99, 0
2, 32640, Note_on_c, 0, 62, 100
2, 32640, Note_on_c, 0, 74, 100
2, 32640, Note_on_c, 0, 85, 100
2, 32640, Note_on_c, 0, 87, 100
2, 32640, Note_on_c, 0, 97, 100
2, 32640, Note_on_c, 0, 99, 100
2, 32880, Note_on_c, 3, 49, 0
2, 32880, Note_on_c, 0, 62, 0
2, 32880, Note_on_c, 0, 74, 0
2, 32880, Note_on_c, 0, 85, 0
2, 32880, Note_on_c, 0, 87, 0
2, 32880, Note_on_c, 0, 97, 0
2, 32880, Note_on_c, 0, 99, 0
2, 33208, Note_on_c, 0, 86, 100
2, 33280, Note_on_c, 0, 73, 100
2, 33280, Note_on_c, 0, 98, 100
2, 33448, Note_on_c, 0, 86, 0
2, 33520, Note_on_c, 0, 73, 0
2, 33520, Note_on_c, 0, 98, 0
2, 33600, Note_on_c, 0, 60, 100
2, 33600, Note_on_c, 0, 72, 100
2, 33600, Note_on_c, 0, 85, 100
2, 33600, Note_on_c, 0, 97, 100
2, 33600, Note_on_c, 3, 47, 100
2, 33840, Note_on_c, 0, 60, 0
2, 33840, Note_on_c, 0, 72, 0
2, 33840, Note_on_c, 0, 85, 0
2, 33840, Note_on_c, 0, 97, 0
2, 34080, Note_on_c, 3, 47, 0
2, 34560, Note_on_c, 0, 62, 100
2, 34560, Note_on_c, 0, 72, 100
2, 34560, Note_on_c, 0, 74, 100
2, 34560, Note_on_c, 0, 85, 100
2, 34560, Note_on_c, 0, 87, 100
2, 34560, Note_on_c, 0, 97, 100
2, 34560, Note_on_c, 0, 99, 100
2, 34560, Note_on_c, 3, 49, 100
2, 34800, Note_on_c, 0, 62, 0
2, 34800, Note_on_c, 0, 72, 0
2, 34800, Note_on_c, 0, 74, 0
2, 34800, Note_on_c, 0, 85, 0
2, 34800, Note_on_c, 0, 87, 0
2, 34800, Note_on_c, 0, 97, 0
2, 34800, Note_on_c, 0, 99, 0
2, 35520, Note_on_c, 0, 62, 100
2, 35520, Note_on_c, 0, 74, 100
2, 35520, Note_on_c, 0, 87, 100
2, 35520, Note_on_c, 0, 97, 100
2, 35520, Note_on_c, 0, 99, 100
2, 35760, Note_on_c, 3, 49, 0
2, 35760, Note_on_c, 0, 62, 0
2, 35760, Note_on_c, 0, 74, 0
2, 35760, Note_on_c, 0, 87, 0
2, 35760, Note_on_c, 0, 97, 0
2, 35760, Note_on_c, 0, 99, 0
2, 36000, Note_on_c, 3, 51, 100
2, 36088, Note_on_c, 0, 88, 100
2, 36160, Note_on_c, 0, 75, 100
2, 36160, Note_on_c, 0, 100, 100
2, 36240, Note_on_c, 3, 51, 0
2, 36328, Note_on_c, 0, 88, 0
2, 36400, Note_on_c, 0, 75, 0
2, 36400, Note_on_c, 0, 100, 0
2, 36480, Note_on_c, 0, 60, 100
2, 36480, Note_on_c, 0, 74, 100
2, 36480, Note_on_c, 0, 87, 100
2, 36480, Note_on_c, 0, 99, 100
2, 36480, Note_on_c, 3, 49, 100
2, 36720, Note_on_c, 0, 60, 0
2, 36720, Note_on_c, 0, 74, 0
2, 36720, Note_on_c, 0, 87, 0
2, 36720, Note_on_c, 0, 99, 0
2, 36960, Note_on_c, 3, 49, 0
2, 37090, Note_on_c, 0, 70, 100
2, 37090, Note_on_c, 0, 82, 100
2, 37090, Note_on_c, 0, 94, 100
2, 37090, Note_on_c, 0, 106, 100
2, 37120, Note_on_c, 0, 97, 100
2, 37200, Note_on_c, 3, 52, 100
2, 37360, Note_on_c, 0, 97, 0
2, 37440, Note_on_c, 3, 52, 0
2, 37440, Note_on_c, 0, 61, 100
2, 37440, Note_on_c, 0, 73, 100
2, 37440, Note_on_c, 0, 86, 100
2, 37440, Note_on_c, 0, 98, 100
2, 38400, Note_on_c, 0, 61, 0
2, 38400, Note_on_c, 0, 73, 0
2, 38400, Note_on_c, 0, 86, 0
2, 38400, Note_on_c, 0, 98, 0
2, 38400, Note_on_c, 0, 60, 100
2, 38400, Note_on_c, 0, 72, 100
2, 38400, Note_on_c, 0, 84, 100
2, 38400, Note_on_c, 0, 96, 100
2, 38400, Note_on_c, 3, 40, 100
2, 38640, Note_on_c, 0, 60, 0
2, 38640, Note_on_c, 0, 72, 0
2, 38640, Note_on_c, 0, 84, 0
2, 38640, Note_on_c, 0, 96, 0
2, 38640, Note_on_c, 3, 40, 0
2, 38850, Note_on_c, 0, 69, 0
2, 38850, Note_on_c, 0, 81, 0
2, 38850, Note_on_c, 0, 93, 0
2, 38850, Note_on_c, 0, 105, 0
2, 39360, Note_on_c, 0, 62, 100
2, 39360, Note_on_c, 0, 72, 100
2, 39360, Note_on_c, 0, 74, 100
2, 39360, Note_on_c, 0, 85, 100
2, 39360, Note_on_c, 0, 87, 100
2, 39360, Note_on_c, 0, 97, 100
2, 39360, Note_on_c, 0, 99, 100
2, 39360, Note_on_c, 3, 49, 100
2, 39600, Note_on_c, 0, 62, 0
2, 39600, Note_on_c, 0, 72, 0
2, 39600, Note_on_c, 0, 74, 0
2, 39600, Note_on_c, 0, 85, 0
2, 39600, Note_on_c, 0, 87, 0
2, 39600, Note_on_c, 0, 97, 0
2, 39600, Note_on_c, 0, 99, 0
2, 40320, Note_on_c, 0, 62, 100
2, 40320, Note_on_c, 0, 74, 100
2, 40320, Note_on_c, 0, 85, 100
2, 40320, Note_on_c, 0, 87, 100
2, 40320, Note_on_c, 0, 97, 100
2, 40320, Note_on_c, 0, 99, 100
2, 40560, Note_on_c, 3, 49, 0
2, 40560, Note_on_c, 0, 62, 0
2, 40560, Note_on_c, 0, 74, 0
2, 40560, Note_on_c, 0, 85, 0
2, 40560, Note_on_c, 0, 87, 0
2, 40560, Note_on_c, 0, 97, 0
2, 40560, Note_on_c, 0, 99, 0
2, 40888, Note_on_c, 0, 86, 100
2, 40960, Note_on_c, 0, 73, 100
2, 40960, Note_on_c, 0, 98, 100
2, 41128, Note_on_c, 0, 86, 0
2, 41200, Note_on_c, 0, 73, 0
2, 41200, Note_on_c, 0, 98, 0
2, 41280, Note_on_c, 0, 60, 100
2, 41280, Note_on_c, 0, 72, 100
2, 41280, Note_on_c, 0, 85, 100
2, 41280, Note_on_c, 0, 97, 100
2, 41280, Note_on_c, 3, 47, 100
2, 41520, Note_on_c, 0, 60, 0
2, 41520, Note_on_c, 0, 72, 0
2, 41520, Note_on_c, 0, 85, 0
2, 41520, Note_on_c, 0, 97, 0
2, 41760, Note_on_c, 3, 47, 0
2, 42050, Note_on_c, 0, 70, 0
2, 42050, Note_on_c, 0, 82, 0
2, 42050, Note_on_c, 0, 94, 0
2, 42050, Note_on_c, 0, 106, 0
2, 42210, Note_on_c, 0, 67, 100
2, 42210, Note_on_c, 0, 69, 100
2, 42210, Note_on_c, 0, 79, 100
2, 42210, Note_on_c, 0, 81, 100
2, 42210, Note_on_c, 0, 91, 100
2, 42210, Note_on_c, 0, 93, 100
2, 42210, Note_on_c, 0, 103, 100
2, 42210, Note_on_c, 0, 105, 100
2, 42240, Note_on_c, 0, 60, 100
2, 42240, Note_on_c, 0, 72, 100
2, 42240, Note_on_c, 0, 84, 100
2, 42240, Note_on_c, 0, 96, 100
2, 42240, Note_on_c, 3, 43, 100
2, 42480, Note_on_c, 0, 60, 0
2, 42480, Note_on_c, 0, 72, 0
2, 42480, Note_on_c, 0, 84, 0
2, 42480, Note_on_c, 0, 96, 0
2, 42480, Note_on_c, 3, 43, 0
2, 43200, Note_on_c, 0, 62, 100
2, 43200, Note_on_c, 0, 75, 100
2, 43200, Note_on_c, 0, 87, 100
2, 43200, Note_on_c, 0, 88, 100
2, 43200, Note_on_c, 0, 99, 100
2, 43200, Note_on_c, 0, 100, 100
2, 43200, Note_on_c, 3, 52, 100
2, 45600, Note_on_c, 3, 52, 0
2, 46050, Note_on_c, 0, 67, 0
2, 46050, Note_on_c, 0, 69, 0
2, 46050, Note_on_c, 0, 79, 0
2, 46050, Note_on_c, 0, 81, 0
2, 46050, Note_on_c, 0, 91, 0
2, 46050, Note_on_c, 0, 93, 0
2, 46050, Note_on_c, 0, 103, 0
2, 46050, Note_on_c, 0, 105, 0
2, 46050, Note_on_c, 0, 70, 100
2, 46050, Note_on_c, 0, 82, 100
2, 46050, Note_on_c, 0, 94, 100
2, 46050, Note_on_c, 0, 106, 100
2, 46080, Text_t, "[section verse_1]"
2, 46080, Note_on_c, 0, 62, 0
2, 46080, Note_on_c, 0, 75, 0
2, 46080, Note_on_c, 0, 87, 0
2, 46080, Note_on_c, 0, 88, 0
2, 46080, Note_on_c, 0, 99, 0
2, 46080, Note_on_c, 0, 100, 0
2, 46080, Note_on_c, 0, 60, 100
2, 46080, Note_on_c, 0, 72, 100
2, 46080, Note_on_c, 0, 84, 100
2, 46080, Note_on_c, 0, 96, 100
2, 46320, Note_on_c, 0, 60, 0
2, 46320, Note_on_c, 0, 72, 0
2, 46320, Note_on_c, 0, 84, 0
2, 46320, Note_on_c, 0, 96, 0
2, 47040, Note_on_c, 0, 62, 100
2, 47040, Note_on_c, 0, 72, 100
2, 47040, Note_on_c, 0, 74, 100
2, 47040, Note_on_c, 0, 85, 100
2, 47040, Note_on_c, 0, 87, 100
2, 47040, Note_on_c, 0, 97, 100
2, 47040, Note_on_c, 0, 99, 100
2, 47040, Note_on_c, 3, 47, 100
2, 47280, Note_on_c, 0, 62, 0
2, 47280, Note_on_c, 0, 72, 0
2, 47280, Note_on_c, 0, 74, 0
2, 47280, Note_on_c, 0, 85, 0
2, 47280, Note_on_c, 0, 87, 0
2, 47280, Note_on_c, 0, 97, 0
2, 47280, Note_on_c, 0, 99, 0
2, 47998, Text_t, "sing_on"
2, 47998, Note_on_c, 3, 47, 0
2, 48000, Note_on_c, 0, 60, 100
2, 48000, Note_on_c, 0, 72, 100
2, 48000, Note_on_c, 0, 84, 100
2, 48000, Note_on_c, 0, 96, 100
2, 48000, Note_on_c, 0, 108, 100
2, 48240, Note_on_c, 0, 60, 0
2, 48240, Note_on_c, 0, 72, 0
2, 48240, Note_on_c, 0, 84, 0
2, 48240, Note_on_c, 0, 96, 0
2, 48540, Note_on_c, 0, 108, 0
2, 48960, Note_on_c, 0, 62, 100
2, 48960, Note_on_c, 0, 72, 100
2, 48960, Note_on_c, 0, 74, 100
2, 48960, Note_on_c, 0, 85, 100
2, 48960, Note_on_c, 0, 87, 100
2, 48960, Note_on_c, 0, 97, 100
2, 48960, Note_on_c, 0, 99, 100
2, 48960, Note_on_c, 0, 108, 100
2, 48960, Note_on_c, 3, 47, 100
2, 49200, Note_on_c, 0, 62, 0
2, 49200, Note_on_c, 0, 72, 0
2, 49200, Note_on_c, 0, 74, 0
2, 49200, Note_on_c, 0, 85, 0
2, 49200, Note_on_c, 0, 87, 0
2, 49200, Note_on_c, 0, 97, 0
2, 49200, Note_on_c, 0, 99, 0
2, 49500, Note_on_c, 0, 108, 0
2, 49920, Note_on_c, 3, 47, 0
2, 49920, Note_on_c, 0, 60, 100
2, 49920, Note_on_c, 0, 72, 100
2, 49920, Note_on_c, 0, 84, 100
2, 49920, Note_on_c, 0, 96, 100
2, 50160, Note_on_c, 0, 60, 0
2, 50160, Note_on_c, 0, 72, 0
2, 50160, Note_on_c, 0, 84, 0
2, 50160, Note_on_c, 0, 96, 0
2, 50880, Note_on_c, 0, 62, 100
2, 50880, Note_on_c, 0, 72, 100
2, 50880, Note_on_c, 0, 74, 100
2, 50880, Note_on_c, 0, 85, 100
2, 50880, Note_on_c, 0, 87, 100
2, 50880, Note_on_c, 0, 97, 100
2, 50880, Note_on_c, 0, 99, 100
2, 50880, Note_on_c, 0, 108, 100
2, 50880, Note_on_c, 3, 47, 100
2, 51120, Note_on_c, 0, 62, 0
2, 51120, Note_on_c, 0, 72, 0
2, 51120, Note_on_c, 0, 74, 0
2, 51120, Note_on_c, 0, 85, 0
2, 51120, Note_on_c, 0, 87, 0
2, 51120, Note_on_c, 0, 97, 0
2, 51120, Note_on_c, 0, 99, 0
2, 51840, Note_on_c, 3, 47, 0
2, 51840, Note_on_c, 0, 60, 100
2, 51840, Note_on_c, 0, 72, 100
2, 51840, Note_on_c, 0, 84, 100
2, 51840, Note_on_c, 0, 96, 100
2, 52080, Note_on_c, 0, 60, 0
2, 52080, Note_on_c, 0, 72, 0
2, 52080, Note_on_c, 0, 84, 0
2, 52080, Note_on_c, 0, 96, 0
2, 52380, Note_on_c, 0, 108, 0
2, 52640, Note_on_c, 0, 108, 100
2, 52800, Note_on_c, 0, 62, 100
2, 52800, Note_on_c, 0, 74, 100
2, 52800, Note_on_c, 0, 87, 100
2, 52800, Note_on_c, 0, 97, 100
2, 52800, Note_on_c, 0, 99, 100
2, 52800, Note_on_c, 3, 47, 100
2, 53040, Note_on_c, 0, 62, 0
2, 53040, Note_on_c, 0, 74, 0
2, 53040, Note_on_c, 0, 87, 0
2, 53040, Note_on_c, 0, 97, 0
2, 53040, Note_on_c, 0, 99, 0
2, 53040, Note_on_c, 3, 47, 0
2, 53280, Note_on_c, 3, 45, 100
2, 53366, Note_on_c, 0, 86, 100
2, 53440, Note_on_c, 0, 61, 100
2, 53440, Note_on_c, 0, 73, 100
2, 53440, Note_on_c, 0, 98, 100
2, 53520, Note_on_c, 3, 45, 0
2, 53606, Note_on_c, 0, 86, 0
2, 53680, Note_on_c, 0, 61, 0
2, 53680, Note_on_c, 0, 73, 0
2, 53680, Note_on_c, 0, 98, 0
2, 53730, Note_on_c, 0, 69, 100
2, 53730, Note_on_c, 0, 81, 100
2, 53730, Note_on_c, 0, 93, 100
2, 53730, Note_on_c, 0, 105, 100
2, 53760, Note_on_c, 0, 62, 100
2, 53760, Note_on_c, 0, 74, 100
2, 53760, Note_on_c, 0, 87, 100
2, 53760, Note_on_c, 0, 97, 100
2, 53760, Note_on_c, 0, 99, 100
2, 53760, Note_on_c, 3, 47, 100
2, 54000, Note_on_c, 0, 62, 0
2, 54000, Note_on_c, 0, 74, 0
2, 54000, Note_on_c, 0, 87, 0
2, 54000, Note_on_c, 0, 97, 0
2, 54000, Note_on_c, 0, 99, 0
2, 54000, Note_on_c, 3, 47, 0
2, 54690, Note_on_c, 0, 70, 0
2, 54690, Note_on_c, 0, 82, 0
2, 54690, Note_on_c, 0, 94, 0
2, 54690, Note_on_c, 0, 106, 0
2, 54720, Note_on_c, 0, 62, 100
2, 54720, Note_on_c, 0, 74, 100
2, 54720, Note_on_c, 0, 85, 100
2, 54720, Note_on_c, 0, 87, 100
2, 54720, Note_on_c, 0, 97, 100
2, 54720, Note_on_c, 0, 99, 100
2, 54720, Note_on_c, 3, 47, 100
2, 54960, Note_on_c, 0, 62, 0
2, 54960, Note_on_c, 0, 74, 0
2, 54960, Note_on_c, 0, 85, 0
2, 54960, Note_on_c, 0, 87, 0
2, 54960, Note_on_c, 0, 97, 0
2, 54960, Note_on_c, 0, 99, 0
2, 55396, Note_on_c, 0, 108, 0
2, 55680, Note_on_c, 3, 47, 0
2, 55680, Note_on_c, 0, 60, 100
2, 55680, Note_on_c, 0, 72, 100
2, 55680, Note_on_c, 0, 84, 100
2, 55680, Note_on_c, 0, 96, 100
2, 55680, Note_on_c, 0, 108, 100
2, 55920, Note_on_c, 0, 60, 0
2, 55920, Note_on_c, 0, 72, 0
2, 55920, Note_on_c, 0, 84, 0
2, 55920, Note_on_c, 0, 96, 0
2, 56160, Note_on_c, 0, 108, 0
2, 56640, Note_on_c, 0, 62, 100
2, 56640, Note_on_c, 0, 72, 100
2, 56640, Note_on_c, 0, 74, 100
2, 56640, Note_on_c, 0, 85, 100
2, 56640, Note_on_c, 0, 87, 100
2, 56640, Note_on_c, 0, 97, 100
2, 56640, Note_on_c, 0, 99, 100
2, 56640, Note_on_c, 0, 108, 100
2, 56640, Note_on_c, 3, 47, 100
2, 56880, Note_on_c, 0, 62, 0
2, 56880, Note_on_c, 0, 72, 0
2, 56880, Note_on_c, 0, 74, 0
2, 56880, Note_on_c, 0, 85, 0
2, 56880, Note_on_c, 0, 87, 0
2, 56880, Note_on_c, 0, 97, 0
2, 56880, Note_on_c, 0, 99, 0
2, 57600, Note_on_c, 3, 47, 0
2, 57600, Note_on_c, 0, 60, 100
2, 57600, Note_on_c, 0, 72, 100
2, 57600, Note_on_c, 0, 84, 100
2, 57600, Note_on_c, 0, 96, 100
2, 57840, Note_on_c, 0, 60, 0
2, 57840, Note_on_c, 0, 72, 0
2, 57840, Note_on_c, 0, 84, 0
2, 57840, Note_on_c, 0, 96, 0
2, 58078, Note_on_c, 0, 108, 0
2, 58240, Note_on_c, 0, 108, 100
2, 58560, Note_on_c, 0, 62, 100
2, 58560, Note_on_c, 0, 72, 100
2, 58560, Note_on_c, 0, 74, 100
2, 58560, Note_on_c, 0, 85, 100
2, 58560, Note_on_c, 0, 87, 100
2, 58560, Note_on_c, 0, 97, 100
2, 58560, Note_on_c, 0, 99, 100
2, 58560, Note_on_c, 3, 47, 100
2, 58800, Note_on_c, 0, 62, 0
2, 58800, Note_on_c, 0, 72, 0
2, 58800, Note_on_c, 0, 74, 0
2, 58800, Note_on_c, 0, 85, 0
2, 58800, Note_on_c, 0, 87, 0
2, 58800, Note_on_c, 0, 97, 0
2, 58800, Note_on_c, 0, 99, 0
2, 59520, Note_on_c, 3, 47, 0
2, 59520, Note_on_c, 0, 60, 100
2, 59520, Note_on_c, 0, 72, 100
2, 59520, Note_on_c, 0, 84, 100
2, 59520, Note_on_c, 0, 96, 100
2, 59760, Note_on_c, 0, 60, 0
2, 59760, Note_on_c, 0, 72, 0
2, 59760, Note_on_c, 0, 84, 0
2, 59760, Note_on_c, 0, 96, 0
2, 60400, Note_on_c, 0, 108, 0
2, 60480, Note_on_c, 0, 62, 100
2, 60480, Note_on_c, 0, 74, 100
2, 60480, Note_on_c, 0, 87, 100
2, 60480, Note_on_c, 0, 97, 100
2, 60480, Note_on_c, 0, 99, 100
2, 60480, Note_on_c, 3, 47, 100
2, 60720, Note_on_c, 0, 62, 0
2, 60720, Note_on_c, 0, 74, 0
2, 60720, Note_on_c, 0, 87, 0
2, 60720, Note_on_c, 0, 97, 0
2, 60720, Note_on_c, 0, 99, 0
2, 60720, Note_on_c, 3, 47, 0
2, 60960, Note_on_c, 3, 45, 100
2, 61048, Note_on_c, 0, 88, 100
2, 61120, Note_on_c, 0, 62, 100
2, 61120, Note_on_c, 0, 75, 100
2, 61120, Note_on_c, 0, 100, 100
2, 61200, Note_on_c, 3, 45, 0
2, 61288, Note_on_c, 0, 88, 0
2, 61360, Note_on_c, 0, 62, 0
2, 61360, Note_on_c, 0, 75, 0
2, 61360, Note_on_c, 0, 100, 0
2, 61410, Note_on_c, 0, 70, 100
2, 61410, Note_on_c, 0, 82, 100
2, 61410, Note_on_c, 0, 94, 100
2, 61410, Note_on_c, 0, 106, 100
2, 61440, Note_on_c, 0, 62, 100
2, 61440, Note_on_c, 0, 74, 100
2, 61440, Note_on_c, 0, 87, 100
2, 61440, Note_on_c, 0, 97, 100
2, 61440, Note_on_c, 0, 99, 100
2, 61440, Note_on_c, 3, 47, 100
2, 61680, Note_on_c, 0, 62, 0
2, 61680, Note_on_c, 0, 74, 0
2, 61680, Note_on_c, 0, 87, 0
2, 61680, Note_on_c, 0, 97, 0
2, 61680, Note_on_c, 0, 99, 0
2, 61680, Note_on_c, 3, 47, 0
2, 62370, Note_on_c, 0, 69, 0
2, 62370, Note_on_c, 0, 81, 0
2, 62370, Note_on_c, 0, 93, 0
2, 62370, Note_on_c, 0, 105, 0
2, 62400, Note_on_c, 0, 62, 100
2, 62400, Note_on_c, 0, 74, 100
2, 62400, Note_on_c, 0, 85, 100
2, 62400, Note_on_c, 0, 87, 100
2, 62400, Note_on_c, 0, 97, 100
2, 62400, Note_on_c, 0, 99, 100
2, 62400, Note_on_c, 3, 47, 100
2, 62640, Note_on_c, 0, 62, 0
2, 62640, Note_on_c, 0, 74, 0
2, 62640, Note_on_c, 0, 85, 0
2, 62640, Note_on_c, 0, 87, 0
2, 62640, Note_on_c, 0, 97, 0
2, 62640, Note_on_c, 0, 99, 0
2, 63360, Note_on_c, 3, 47, 0
2, 63360, Note_on_c, 0, 60, 100
2, 63360, Note_on_c, 0, 72, 100
2, 63360, Note_on_c, 0, 84, 100
2, 63360, Note_on_c, 0, 96, 100
2, 63600, Note_on_c, 0, 60, 0
2, 63600, Note_on_c, 0, 72, 0
2, 63600, Note_on_c, 0, 84, 0
2, 63600, Note_on_c, 0, 96, 0
2, 64320, Note_on_c, 0, 62, 100
2, 64320, Note_on_c, 0, 72, 100
2, 64320, Note_on_c, 0, 74, 100
2, 64320, Note_on_c, 0, 85, 100
2, 64320, Note_on_c, 0, 87, 100
2, 64320, Note_on_c, 0, 97, 100
2, 64320, Note_on_c, 0, 99, 100
2, 64320, Note_on_c, 0, 108, 100
2, 64320, Note_on_c, 3, 47, 100
2, 64560, Note_on_c, 0, 62, 0
2, 64560, Note_on_c, 0, 72, 0
2, 64560, Note_on_c, 0, 74, 0
2, 64560, Note_on_c, 0, 85, 0
2, 64560, Note_on_c, 0, 87, 0
2, 64560, Note_on_c, 0, 97, 0
2, 64560, Note_on_c, 0, 99, 0
2, 64980, Note_on_c, 0, 108, 0
2, 65280, Note_on_c, 3, 47, 0
2, 65280, Note_on_c, 0, 60, 100
2, 65280, Note_on_c, 0, 72, 100
2, 65280, Note_on_c, 0, 84, 100
2, 65280, Note_on_c, 0, 96, 100
2, 65520, Note_on_c, 0, 60, 0
2, 65520, Note_on_c, 0, 72, 0
2, 65520, Note_on_c, 0, 84, 0
2, 65520, Note_on_c, 0, 96, 0
2, 66240, Note_on_c, 0, 62, 100
2, 66240, Note_on_c, 0, 72, 100
2, 66240, Note_on_c, 0, 74, 100
2, 66240, Note_on_c, 0, 85, 100
2, 66240, Note_on_c, 0, 87, 100
2, 66240, Note_on_c, 0, 97, 100
2, 66240, Note_on_c, 0, 99, 100
2, 66240, Note_on_c, 0, 108, 100
2, 66240, Note_on_c, 3, 47, 100
2, 66480, Note_on_c, 0, 62, 0
2, 66480, Note_on_c, 0, 72, 0
2, 66480, Note_on_c, 0, 74, 0
2, 66480, Note_on_c, 0, 85, 0
2, 66480, Note_on_c, 0, 87, 0
2, 66480, Note_on_c, 0, 97, 0
2, 66480, Note_on_c, 0, 99, 0
2, 67200, Note_on_c, 3, 47, 0
2, 67200, Note_on_c, 0, 60, 100
2, 67200, Note_on_c, 0, 72, 100
2, 67200, Note_on_c, 0, 84, 100
2, 67200, Note_on_c, 0, 96, 100
2, 67440, Note_on_c, 0, 60, 0
2, 67440, Note_on_c, 0, 72, 0
2, 67440, Note_on_c, 0, 84, 0
2, 67440, Note_on_c, 0, 96, 0
2, 67980, Note_on_c, 0, 108, 0
2, 68160, Note_on_c, 0, 62, 100
2, 68160, Note_on_c, 0, 74, 100
2, 68160, Note_on_c, 0, 87, 100
2, 68160, Note_on_c, 0, 97, 100
2, 68160, Note_on_c, 0, 99, 100
2, 68160, Note_on_c, 0, 108, 100
2, 68160, Note_on_c, 3, 47, 100
2, 68400, Note_on_c, 0, 62, 0
2, 68400, Note_on_c, 0, 74, 0
2, 68400, Note_on_c, 0, 87, 0
2, 68400, Note_on_c, 0, 97, 0
2, 68400, Note_on_c, 0, 99, 0
2, 68400, Note_on_c, 3, 47, 0
2, 68640, Note_on_c, 3, 45, 100
2, 68728, Note_on_c, 0, 86, 100
2, 68728, Note_on_c, 0, 98, 100
2, 68800, Note_on_c, 0, 61, 100
2, 68800, Note_on_c, 0, 73, 100
2, 68880, Note_on_c, 3, 45, 0
2, 68968, Note_on_c, 0, 86, 0
2, 68968, Note_on_c, 0, 98, 0
2, 69040, Note_on_c, 0, 61, 0
2, 69040, Note_on_c, 0, 73, 0
2, 69090, Note_on_c, 0, 69, 100
2, 69090, Note_on_c, 0, 81, 100
2, 69090, Note_on_c, 0, 93, 100
2, 69090, Note_on_c, 0, 105, 100
2, 69120, Note_on_c, 0, 62, 100
2, 69120, Note_on_c, 0, 74, 100
2, 69120, Note_on_c, 0, 87, 100
2, 69120, Note_on_c, 0, 97, 100
2, 69120, Note_on_c, 0, 99, 100
2, 69120, Note_on_c, 3, 47, 100
2, 69360, Note_on_c, 0, 62, 0
2, 69360, Note_on_c, 0, 74, 0
2, 69360, Note_on_c, 0, 87, 0
2, 69360, Note_on_c, 0, 97, 0
2, 69360, Note_on_c, 0, 99, 0
2, 69360, Note_on_c, 3, 47, 0
2, 69660, Note_on_c, 0, 108, 0
2, 70050, Note_on_c, 0, 70, 0
2, 70050, Note_on_c, 0, 82, 0
2, 70050, Note_on_c, 0, 94, 0
2, 70050, Note_on_c, 0, 106, 0
2, 70080, Note_on_c, 0, 62, 100
2, 70080, Note_on_c, 0, 74, 100
2, 70080, Note_on_c, 0, 85, 100
2, 70080, Note_on_c, 0, 87, 100
2, 70080, Note_on_c, 0, 97, 100
2, 70080, Note_on_c, 0, 99, 100
2, 70080, Note_on_c, 3, 47, 100
2, 70320, Note_on_c, 0, 62, 0
2, 70320, Note_on_c, 0, 74, 0
2, 70320, Note_on_c, 0, 85, 0
2, 70320, Note_on_c, 0, 87, 0
2, 70320, Note_on_c, 0, 97, 0
2, 70320, Note_on_c, 0, 99, 0
2, 71040, Note_on_c, 3, 47, 0
2, 71040, Note_on_c, 0, 60, 100
2, 71040, Note_on_c, 0, 72, 100
2, 71040, Note_on_c, 0, 84, 100
2, 71040, Note_on_c, 0, 96, 100
2, 71280, Note_on_c, 0, 60, 0
2, 71280, Note_on_c, 0, 72, 0
2, 71280, Note_on_c, 0, 84, 0
2, 71280, Note_on_c, 0, 96, 0
2, 72000, Note_on_c, 0, 62, 100
2, 72000, Note_on_c, 0, 72, 100
2, 72000, Note_on_c, 0, 74, 100
2, 72000, Note_on_c, 0, 85, 100
2, 72000, Note_on_c, 0, 87, 100
2, 72000, Note_on_c, 0, 97, 100
2, 72000, Note_on_c, 0, 99, 100
2, 72000, Note_on_c, 0, 108, 100
2, 72000, Note_on_c, 3, 47, 100
2, 72240, Note_on_c, 0, 62, 0
2, 72240, Note_on_c, 0, 72, 0
2, 72240, Note_on_c, 0, 74, 0
2, 72240, Note_on_c, 0, 85, 0
2, 72240, Note_on_c, 0, 87, 0
2, 72240, Note_on_c, 0, 97, 0
2, 72240, Note_on_c, 0, 99, 0
2, 72960, Note_on_c, 3, 47, 0
2, 72960, Note_on_c, 0, 60, 100
2, 72960, Note_on_c, 0, 72, 100
2, 72960, Note_on_c, 0, 84, 100
2, 72960, Note_on_c, 0, 96, 100
2, 73200, Note_on_c, 0, 60, 0
2, 73200, Note_on_c, 0, 72, 0
2, 73200, Note_on_c, 0, 84, 0
2, 73200, Note_on_c, 0, 96, 0
2, 73680, Note_on_c, 0, 108, 0
2, 73920, Note_on_c, 0, 62, 100
2, 73920, Note_on_c, 0, 72, 100
2, 73920, Note_on_c, 0, 74, 100
2, 73920, Note_on_c, 0, 85, 100
2, 73920, Note_on_c, 0, 87, 100
2, 73920, Note_on_c, 0, 97, 100
2, 73920, Note_on_c, 0, 99, 100
2, 73920, Note_on_c, 0, 108, 100
2, 73920, Note_on_c, 3, 47, 100
2, 74160, Note_on_c, 0, 62, 0
2, 74160, Note_on_c, 0, 72, 0
2, 74160, Note_on_c, 0, 74, 0
2, 74160, Note_on_c, 0, 85, 0
2, 74160, Note_on_c, 0, 87, 0
2, 74160, Note_on_c, 0, 97, 0
2, 74160, Note_on_c, 0, 99, 0
2, 74880, Note_on_c, 3, 47, 0
2, 74880, Note_on_c, 0, 60, 100
2, 74880, Note_on_c, 0, 72, 100
2, 74880, Note_on_c, 0, 84, 100
2, 74880, Note_on_c, 0, 96, 100
2, 75120, Note_on_c, 0, 60, 0
2, 75120, Note_on_c, 0, 72, 0
2, 75120, Note_on_c, 0, 84, 0
2, 75120, Note_on_c, 0, 96, 0
2, 75660, Note_on_c, 0, 108, 0
2, 75840, Note_on_c, 0, 62, 100
2, 75840, Note_on_c, 0, 72, 100
2, 75840, Note_on_c, 0, 74, 100
2, 75840, Note_on_c, 0, 85, 100
2, 75840, Note_on_c, 0, 87, 100
2, 75840, Note_on_c, 0, 97, 100
2, 75840, Note_on_c, 0, 99, 100
2, 75840, Note_on_c, 0, 108, 100
2, 75840, Note_on_c, 3, 47, 100
2, 76080, Note_on_c, 0, 62, 0
2, 76080, Note_on_c, 0, 72, 0
2, 76080, Note_on_c, 0, 74, 0
2, 76080, Note_on_c, 0, 85, 0
2, 76080, Note_on_c, 0, 87, 0
2, 76080, Note_on_c, 0, 97, 0
2, 76080, Note_on_c, 0, 99, 0
2, 76408, Note_on_c, 0, 85, 100
2, 76408, Note_on_c, 0, 97, 100
2, 76408, Note_on_c, 0, 99, 100
2, 76480, Note_on_c, 0, 74, 100
2, 76560, Note_on_c, 3, 47, 0
2, 76648, Note_on_c, 0, 85, 0
2, 76648, Note_on_c, 0, 97, 0
2, 76648, Note_on_c, 0, 99, 0
2, 76720, Note_on_c, 0, 74, 0
2, 76770, Note_on_c, 0, 70, 100
2, 76770, Note_on_c, 0, 82, 100
2, 76770, Note_on_c, 0, 94, 100
2, 76770, Note_on_c, 0, 106, 100
2, 76800, Text_t, "sing_off"
2, 76800, Text_t, "[chorus]"
2, 76800, Note_on_c, 0, 60, 100
2, 76800, Note_on_c, 0, 72, 100
2, 76800, Note_on_c, 0, 84, 100
2, 76800, Note_on_c, 0, 85, 100
2, 76800, Note_on_c, 0, 96, 100
2, 76800, Note_on_c, 0, 97, 100
2, 76800, Note_on_c, 3, 43, 100
2, 77040, Note_on_c, 0, 60, 0
2, 77040, Note_on_c, 0, 72, 0
2, 77040, Note_on_c, 0, 84, 0
2, 77040, Note_on_c, 0, 85, 0
2, 77040, Note_on_c, 0, 96, 0
2, 77040, Note_on_c, 0, 97, 0
2, 77760, Note_on_c, 0, 108, 0
2, 77760, Note_on_c, 0, 60, 100
2, 77760, Note_on_c, 0, 72, 100
2, 77760, Note_on_c, 0, 84, 100
2, 77760, Note_on_c, 0, 85, 100
2, 77760, Note_on_c, 0, 96, 100
2, 77760, Note_on_c, 0, 97, 100
2, 78000, Note_on_c, 0, 60, 0
2, 78000, Note_on_c, 0, 72, 0
2, 78000, Note_on_c, 0, 84, 0
2, 78000, Note_on_c, 0, 85, 0
2, 78000, Note_on_c, 0, 96, 0
2, 78000, Note_on_c, 0, 97, 0
2, 78720, Note_on_c, 0, 60, 100
2, 78720, Note_on_c, 0, 72, 100
2, 78720, Note_on_c, 0, 84, 100
2, 78720, Note_on_c, 0, 85, 100
2, 78720, Note_on_c, 0, 96, 100
2, 78720, Note_on_c, 0, 97, 100
2, 78960, Note_on_c, 0, 60, 0
2, 78960, Note_on_c, 0, 72, 0
2, 78960, Note_on_c, 0, 84, 0
2, 78960, Note_on_c, 0, 85, 0
2, 78960, Note_on_c, 0, 96, 0
2, 78960, Note_on_c, 0, 97, 0
2, 79680, Note_on_c, 0, 60, 100
2, 79680, Note_on_c, 0, 72, 100
2, 79680, Note_on_c, 0, 84, 100
2, 79680, Note_on_c, 0, 85, 100
2, 79680, Note_on_c, 0, 96, 100
2, 79680, Note_on_c, 0, 97, 100
2, 79920, Note_on_c, 0, 60, 0
2, 79920, Note_on_c, 0, 72, 0
2, 79920, Note_on_c, 0, 84, 0
2, 79920, Note_on_c, 0, 85, 0
2, 79920, Note_on_c, 0, 96, 0
2, 79920, Note_on_c, 0, 97, 0
2, 80640, Note_on_c, 0, 60, 100
2, 80640, Note_on_c, 0, 72, 100
2, 80640, Note_on_c, 0, 84, 100
2, 80640, Note_on_c, 0, 85, 100
2, 80640, Note_on_c, 0, 96, 100
2, 80640, Note_on_c, 0, 97, 100
2, 80880, Note_on_c, 0, 60, 0
2, 80880, Note_on_c, 0, 72, 0
2, 80880, Note_on_c, 0, 84, 0
2, 80880, Note_on_c, 0, 85, 0
2, 80880, Note_on_c, 0, 96, 0
2, 80880, Note_on_c, 0, 97, 0
2, 81600, Note_on_c, 0, 60, 100
2, 81600, Note_on_c, 0, 72, 100
2, 81600, Note_on_c, 0, 84, 100
2, 81600, Note_on_c, 0, 85, 100
2, 81600, Note_on_c, 0, 96, 100
2, 81600, Note_on_c, 0, 97, 100
2, 81840, Note_on_c, 0, 60, 0
2, 81840, Note_on_c, 0, 72, 0
2, 81840, Note_on_c, 0, 84, 0
2, 81840, Note_on_c, 0, 85, 0
2, 81840, Note_on_c, 0, 96, 0
2, 81840, Note_on_c, 0, 97, 0
2, 82560, Note_on_c, 0, 60, 100
2, 82560, Note_on_c, 0, 72, 100
2, 82560, Note_on_c, 0, 84, 100
2, 82560, Note_on_c, 0, 85, 100
2, 82560, Note_on_c, 0, 96, 100
2, 82560, Note_on_c, 0, 97, 100
2, 82800, Note_on_c, 0, 60, 0
2, 82800, Note_on_c, 0, 72, 0
2, 82800, Note_on_c, 0, 84, 0
2, 82800, Note_on_c, 0, 85, 0
2, 82800, Note_on_c, 0, 96, 0
2, 82800, Note_on_c, 0, 97, 0
2, 83128, Note_on_c, 0, 86, 100
2, 83200, Note_on_c, 0, 73, 100
2, 83200, Note_on_c, 0, 97, 100
2, 83200, Note_on_c, 0, 98, 100
2, 83368, Note_on_c, 0, 86, 0
2, 83440, Note_on_c, 0, 73, 0
2, 83440, Note_on_c, 0, 97, 0
2, 83440, Note_on_c, 0, 98, 0
2, 83520, Note_on_c, 0, 60, 100
2, 83520, Note_on_c, 0, 72, 100
2, 83520, Note_on_c, 0, 84, 100
2, 83520, Note_on_c, 0, 85, 100
2, 83520, Note_on_c, 0, 96, 100
2, 83520, Note_on_c, 0, 97, 100
2, 83760, Note_on_c, 0, 60, 0
2, 83760, Note_on_c, 0, 72, 0
2, 83760, Note_on_c, 0, 84, 0
2, 83760, Note_on_c, 0, 85, 0
2, 83760, Note_on_c, 0, 96, 0
2, 83760, Note_on_c, 0, 97, 0
2, 84000, Note_on_c, 3, 43, 0
2, 84088, Note_on_c, 0, 84, 100
2, 84088, Note_on_c, 0, 85, 100
2, 84160, Note_on_c, 0, 60, 100
2, 84160, Note_on_c, 0, 72, 100
2, 84160, Note_on_c, 0, 96, 100
2, 84160, Note_on_c, 0, 97, 100
2, 84328, Note_on_c, 0, 84, 0
2, 84328, Note_on_c, 0, 85, 0
2, 84400, Note_on_c, 0, 60, 0
2, 84400, Note_on_c, 0, 72, 0
2, 84400, Note_on_c, 0, 96, 0
2, 84400, Note_on_c, 0, 97, 0
2, 84480, Note_on_c, 0, 61, 100
2, 84480, Note_on_c, 0, 73, 100
2, 84480, Note_on_c, 0, 86, 100
2, 84480, Note_on_c, 0, 87, 100
2, 84480, Note_on_c, 0, 98, 100
2, 84480, Note_on_c, 0, 99, 100
2, 84480, Note_on_c, 3, 47, 100
2, 84720, Note_on_c, 0, 61, 0
2, 84720, Note_on_c, 0, 73, 0
2, 84720, Note_on_c, 0, 86, 0
2, 84720, Note_on_c, 0, 87, 0
2, 84720, Note_on_c, 0, 98, 0
2, 84720, Note_on_c, 0, 99, 0
2, 85440, Note_on_c, 0, 61, 100
2, 85440, Note_on_c, 0, 73, 100
2, 85440, Note_on_c, 0, 86, 100
2, 85440, Note_on_c, 0, 87, 100
2, 85440, Note_on_c, 0, 98, 100
2, 85440, Note_on_c, 0, 99, 100
2, 85680, Note_on_c, 0, 61, 0
2, 85680, Note_on_c, 0, 73, 0
2, 85680, Note_on_c, 0, 86, 0
2, 85680, Note_on_c, 0, 87, 0
2, 85680, Note_on_c, 0, 98, 0
2, 85680, Note_on_c, 0, 99, 0
2, 86400, Text_t, "sing_on"
2, 86400, Note_on_c, 0, 61, 100
2, 86400, Note_on_c, 0, 73, 100
2, 86400, Note_on_c, 0, 86, 100
2, 86400, Note_on_c, 0, 87, 100
2, 86400, Note_on_c, 0, 98, 100
2, 86400, Note_on_c, 0, 99, 100
2, 86640, Note_on_c, 0, 61, 0
2, 86640, Note_on_c, 0, 73, 0
2, 86640, Note_on_c, 0, 86, 0
2, 86640, Note_on_c, 0, 87, 0
2, 86640, Note_on_c, 0, 98, 0
2, 86640, Note_on_c, 0, 99, 0
2, 87360, Note_on_c, 0, 61, 100
2, 87360, Note_on_c, 0, 73, 100
2, 87360, Note_on_c, 0, 86, 100
2, 87360, Note_on_c, 0, 87, 100
2, 87360, Note_on_c, 0, 98, 100
2, 87360, Note_on_c, 0, 99, 100
2, 87360, Note_on_c, 0, 108, 100
2, 87600, Note_on_c, 0, 61, 0
2, 87600, Note_on_c, 0, 73, 0
2, 87600, Note_on_c, 0, 86, 0
2, 87600, Note_on_c, 0, 87, 0
2, 87600, Note_on_c, 0, 98, 0
2, 87600, Note_on_c, 0, 99, 0
2, 88320, Note_on_c, 0, 61, 100
2, 88320, Note_on_c, 0, 73, 100
2, 88320, Note_on_c, 0, 86, 100
2, 88320, Note_on_c, 0, 87, 100
2, 88320, Note_on_c, 0, 98, 100
2, 88320, Note_on_c, 0, 99, 100
2, 88560, Note_on_c, 0, 61, 0
2, 88560, Note_on_c, 0, 73, 0
2, 88560, Note_on_c, 0, 86, 0
2, 88560, Note_on_c, 0, 87, 0
2, 88560, Note_on_c, 0, 98, 0
2, 88560, Note_on_c, 0, 99, 0
2, 89100, Note_on_c, 0, 108, 0
2, 89280, Note_on_c, 0, 61, 100
2, 89280, Note_on_c, 0, 73, 100
2, 89280, Note_on_c, 0, 86, 100
2, 89280, Note_on_c, 0, 87, 100
2, 89280, Note_on_c, 0, 98, 100
2, 89280, Note_on_c, 0, 99, 100
2, 89280, Note_on_c, 0, 108, 100
2, 89520, Note_on_c, 0, 61, 0
2, 89520, Note_on_c, 0, 73, 0
2, 89520, Note_on_c, 0, 86, 0
2, 89520, Note_on_c, 0, 87, 0
2, 89520, Note_on_c, 0, 98, 0
2, 89520, Note_on_c, 0, 99, 0
2, 90240, Note_on_c, 0, 61, 100
2, 90240, Note_on_c, 0, 73, 100
2, 90240, Note_on_c, 0, 86, 100
2, 90240, Note_on_c, 0, 87, 100
2, 90240, Note_on_c, 0, 98, 100
2, 90240, Note_on_c, 0, 99, 100
2, 90480, Note_on_c, 0, 61, 0
2, 90480, Note_on_c, 0, 73, 0
2, 90480, Note_on_c, 0, 86, 0
2, 90480, Note_on_c, 0, 87, 0
2, 90480, Note_on_c, 0, 98, 0
2, 90480, Note_on_c, 0, 99, 0
2, 90808, Note_on_c, 0, 86, 100
2, 90880, Note_on_c, 0, 72, 100
2, 90880, Note_on_c, 0, 97, 100
2, 90880, Note_on_c, 0, 98, 100
2, 91020, Note_on_c, 0, 108, 0
2, 91048, Note_on_c, 0, 86, 0
2, 91120, Note_on_c, 0, 72, 0
2, 91120, Note_on_c, 0, 97, 0
2, 91120, Note_on_c, 0, 98, 0
2, 91200, Note_on_c, 0, 61, 100
2, 91200, Note_on_c, 0, 73, 100
2, 91200, Note_on_c, 0, 86, 100
2, 91200, Note_on_c, 0, 87, 100
2, 91200, Note_on_c, 0, 98, 100
2, 91200, Note_on_c, 0, 99, 100
2, 91200, Note_on_c, 0, 108, 100
2, 91440, Note_on_c, 0, 61, 0
2, 91440, Note_on_c, 0, 73, 0
2, 91440, Note_on_c, 0, 86, 0
2, 91440, Note_on_c, 0, 87, 0
2, 91440, Note_on_c, 0, 98, 0
2, 91440, Note_on_c, 0, 99, 0
2, 91680, Note_on_c, 3, 47, 0
2, 91768, Note_on_c, 0, 86, 100
2, 91768, Note_on_c, 0, 87, 100
2, 91840, Note_on_c, 0, 61, 100
2, 91840, Note_on_c, 0, 73, 100
2, 91840, Note_on_c, 0, 98, 100
2, 91840, Note_on_c, 0, 99, 100
2, 92008, Note_on_c, 0, 86, 0
2, 92008, Note_on_c, 0, 87, 0
2, 92080, Note_on_c, 0, 61, 0
2, 92080, Note_on_c, 0, 73, 0
2, 92080, Note_on_c, 0, 98, 0
2, 92080, Note_on_c, 0, 99, 0
2, 92130, Note_on_c, 0, 69, 0
2, 92130, Note_on_c, 0, 81, 0
2, 92130, Note_on_c, 0, 93, 0
2, 92130, Note_on_c, 0, 105, 0
2, 92160, Text_t, "[verse]"
2, 92160, Note_on_c, 0, 60, 100
2, 92160, Note_on_c, 0, 72, 100
2, 92160, Note_on_c, 0, 84, 100
2, 92160, Note_on_c, 0, 96, 100
2, 92400, Note_on_c, 0, 60, 0
2, 92400, Note_on_c, 0, 72, 0
2, 92400, Note_on_c, 0, 84, 0
2, 92400, Note_on_c, 0, 96, 0
2, 93120, Note_on_c, 0, 62, 100
2, 93120, Note_on_c, 0, 72, 100
2, 93120, Note_on_c, 0, 74, 100
2, 93120, Note_on_c, 0, 85, 100
2, 93120, Note_on_c, 0, 87, 100
2, 93120, Note_on_c, 0, 97, 100
2, 93120, Note_on_c, 0, 99, 100
2, 93120, Note_on_c, 3, 49, 100
2, 93180, Note_on_c, 0, 108, 0
2, 93360, Note_on_c, 0, 62, 0
2, 93360, Note_on_c, 0, 72, 0
2, 93360, Note_on_c, 0, 74, 0
2, 93360, Note_on_c, 0, 85, 0
2, 93360, Note_on_c, 0, 87, 0
2, 93360, Note_on_c, 0, 97, 0
2, 93360, Note_on_c, 0, 99, 0
2, 94080, Text_t, "sing_off"
2, 94080, Note_on_c, 0, 62, 100
2, 94080, Note_on_c, 0, 74, 100
2, 94080, Note_on_c, 0, 85, 100
2, 94080, Note_on_c, 0, 87, 100
2, 94080, Note_on_c, 0, 97, 100
2, 94080, Note_on_c, 0, 99, 100
2, 94320, Note_on_c, 3, 49, 0
2, 94320, Note_on_c, 0, 62, 0
2, 94320, Note_on_c, 0, 74, 0
2, 94320, Note_on_c, 0, 85, 0
2, 94320, Note_on_c, 0, 87, 0
2, 94320, Note_on_c, 0, 97, 0
2, 94320, Note_on_c, 0, 99, 0
2, 94648, Note_on_c, 0, 86, 100
2, 94720, Note_on_c, 0, 73, 100
2, 94720, Note_on_c, 0, 98, 100
2, 94888, Note_on_c, 0, 86, 0
2, 94960, Note_on_c, 0, 73, 0
2, 94960, Note_on_c, 0, 98, 0
2, 95040, Note_on_c, 0, 60, 100
2, 95040, Note_on_c, 0, 72, 100
2, 95040, Note_on_c, 0, 85, 100
2, 95040, Note_on_c, 0, 97, 100
2, 95040, Note_on_c, 3, 47, 100
2, 95280, Note_on_c, 0, 60, 0
2, 95280, Note_on_c, 0, 72, 0
2, 95280, Note_on_c, 0, 85, 0
2, 95280, Note_on_c, 0, 97, 0
2, 95520, Note_on_c, 3, 47, 0
2, 96000, Note_on_c, 0, 62, 100
2, 96000, Note_on_c, 0, 72, 100
2, 96000, Note_on_c, 0, 74, 100
2, 96000, Note_on_c, 0, 85, 100
2, 96000, Note_on_c, 0, 87, 100
2, 96000, Note_on_c, 0, 97, 100
2, 96000, Note_on_c, 0, 99, 100
2, 96000, Note_on_c, 3, 49, 100
2, 96240, Note_on_c, 0, 62, 0
2, 96240, Note_on_c, 0, 72, 0
2, 96240, Note_on_c, 0, 74, 0
2, 96240, Note_on_c, 0, 85, 0
2, 96240, Note_on_c, 0, 87, 0
2, 96240, Note_on_c, 0, 97, 0
2, 96240, Note_on_c, 0, 99, 0
2, 96960, Note_on_c, 0, 62, 100
2, 96960, Note_on_c, 0, 74, 100
2, 96960, Note_on_c, 0, 85, 100
2, 96960, Note_on_c, 0, 87, 100
2, 96960, Note_on_c, 0, 97, 100
2, 96960, Note_on_c, 0, 99, 100
2, 97200, Note_on_c, 3, 49, 0
2, 97200, Note_on_c, 0, 62, 0
2, 97200, Note_on_c, 0, 74, 0
2, 97200, Note_on_c, 0, 85, 0
2, 97200, Note_on_c, 0, 87, 0
2, 97200, Note_on_c, 0, 97, 0
2, 97200, Note_on_c, 0, 99, 0
2, 97528, Note_on_c, 0, 86, 100
2, 97600, Note_on_c, 0, 73, 100
2, 97600, Note_on_c, 0, 98, 100
2, 97768, Note_on_c, 0, 86, 0
2, 97840, Note_on_c, 0, 73, 0
2, 97840, Note_on_c, 0, 98, 0
2, 97920, Note_on_c, 0, 60, 100
2, 97920, Note_on_c, 0, 72, 100
2, 97920, Note_on_c, 0, 85, 100
2, 97920, Note_on_c, 0, 97, 100
2, 97920, Note_on_c, 3, 47, 100
2, 98160, Note_on_c, 0, 60, 0
2, 98160, Note_on_c, 0, 72, 0
2, 98160, Note_on_c, 0, 85, 0
2, 98160, Note_on_c, 0, 97, 0
2, 98400, Note_on_c, 3, 47, 0
2, 98530, Note_on_c, 0, 69, 100
2, 98530, Note_on_c, 0, 81, 100
2, 98530, Note_on_c, 0, 93, 100
2, 98530, Note_on_c, 0, 105, 100
2, 98560, Note_on_c, 0, 97, 100
2, 98640, Note_on_c, 3, 52, 100
2, 98800, Note_on_c, 0, 97, 0
2, 98880, Note_on_c, 3, 52, 0
2, 98880, Note_on_c, 0, 61, 100
2, 98880, Note_on_c, 0, 73, 100
2, 98880, Note_on_c, 0, 86, 100
2, 98880, Note_on_c, 0, 98, 100
2, 99840, Note_on_c, 0, 61, 0
2, 99840, Note_on_c, 0, 73, 0
2, 99840, Note_on_c, 0, 86, 0
2, 99840, Note_on_c, 0, 98, 0
2, 99840, Note_on_c, 0, 60, 100
2, 99840, Note_on_c, 0, 72, 100
2, 99840, Note_on_c, 0, 84, 100
2, 99840, Note_on_c, 0, 96, 100
2, 99840, Note_on_c, 3, 40, 100
2, 100080, Note_on_c, 0, 60, 0
2, 100080, Note_on_c, 0, 72, 0
2, 100080, Note_on_c, 0, 84, 0
2, 100080, Note_on_c, 0, 96, 0
2, 100080, Note_on_c, 3, 40, 0
2, 100290, Note_on_c, 0, 70, 0
2, 100290, Note_on_c, 0, 82, 0
2, 100290, Note_on_c, 0, 94, 0
2, 100290, Note_on_c, 0, 106, 0
2, 100800, Note_on_c, 0, 62, 100
2, 100800, Note_on_c, 0, 72, 100
2, 100800, Note_on_c, 0, 74, 100
2, 100800, Note_on_c, 0, 85, 100
2, 100800, Note_on_c, 0, 87, 100
2, 100800, Note_on_c, 0, 97, 100
2, 100800, Note_on_c, 0, 99, 100
2, 100800, Note_on_c, 3, 49, 100
2, 101040, Note_on_c, 0, 62, 0
2, 101040, Note_on_c, 0, 72, 0
2, 101040, Note_on_c, 0, 74, 0
2, 101040, Note_on_c, 0, 85, 0
2, 101040, Note_on_c, 0, 87, 0
2, 101040, Note_on_c, 0, 97, 0
2, 101040, Note_on_c, 0, 99, 0
2, 101760, Note_on_c, 0, 62, 100
2, 101760, Note_on_c, 0, 74, 100
2, 101760, Note_on_c, 0, 85, 100
2, 101760, Note_on_c, 0, 87, 100
2, 101760, Note_on_c, 0, 97, 100
2, 101760, Note_on_c, 0, 99, 100
2, 102000, Note_on_c, 3, 49, 0
2, 102000, Note_on_c, 0, 62, 0
2, 102000, Note_on_c, 0, 74, 0
2, 102000, Note_on_c, 0, 85, 0
2, 102000, Note_on_c, 0, 87, 0
2, 102000, Note_on_c, 0, 97, 0
2, 102000, Note_on_c, 0, 99, 0
2, 102328, Note_on_c, 0, 86, 100
2, 102400, Note_on_c, 0, 73, 100
2, 102400, Note_on_c, 0, 98, 100
2, 102568, Note_on_c, 0, 86, 0
2, 102640, Note_on_c, 0, 73, 0
2, 102640, Note_on_c, 0, 98, 0
2, 102720, Note_on_c, 0, 60, 100
2, 102720, Note_on_c, 0, 72, 100
2, 102720, Note_on_c, 0, 85, 100
2, 102720, Note_on_c, 0, 97, 100
2, 102720, Note_on_c, 3, 47, 100
2, 102960, Note_on_c, 0, 60, 0
2, 102960, Note_on_c, 0, 72, 0
2, 102960, Note_on_c, 0, 85, 0
2, 102960, Note_on_c, 0, 97, 0
2, 103650, Note_on_c, 0, 69, 0
2, 103650, Note_on_c, 0, 81, 0
2, 103650, Note_on_c, 0, 93, 0
2, 103650, Note_on_c, 0, 105, 0
2, 103650, Note_on_c, 0, 67, 100
2, 103650, Note_on_c, 0, 70, 100
2, 103650, Note_on_c, 0, 79, 100
2, 103650, Note_on_c, 0, 82, 100
2, 103650, Note_on_c, 0, 91, 100
2, 103650, Note_on_c, 0, 94, 100
2, 103650, Note_on_c, 0, 103, 100
2, 103650, Note_on_c, 0, 106, 100
2, 103680, Text_t, "HandMap_Solo"
2, 103680, Note_on_c, 0, 60, 100
2, 103680, Note_on_c, 0, 73, 100
2, 103680, Note_on_c, 0, 85, 100
2, 103680, Note_on_c, 0, 97, 100
2, 103920, Note_on_c, 0, 60, 0
2, 103920, Note_on_c, 0, 73, 0
2, 103920, Note_on_c, 0, 85, 0
2, 103920, Note_on_c, 0, 97, 0
2, 104160, Note_on_c, 3, 47, 0
2, 104640, Note_on_c, 0, 61, 100
2, 104640, Note_on_c, 0, 73, 100
2, 104640, Note_on_c, 0, 74, 100
2, 104640, Note_on_c, 0, 85, 100
2, 104640, Note_on_c, 0, 86, 100
2, 104640, Note_on_c, 0, 97, 100
2, 104640, Note_on_c, 0, 98, 100
2, 105120, Note_on_c, 3, 48, 100
2, 105360, Note_on_c, 3, 48, 0
2, 107280, Note_on_c, 3, 51, 100
2, 107490, Note_on_c, 0, 67, 0
2, 107490, Note_on_c, 0, 70, 0
2, 107490, Note_on_c, 0, 79, 0
2, 107490, Note_on_c, 0, 82, 0
2, 107490, Note_on_c, 0, 91, 0
2, 107490, Note_on_c, 0, 94, 0
2, 107490, Note_on_c, 0, 103, 0
2, 107490, Note_on_c, 0, 106, 0
2, 107490, Note_on_c, 0, 69, 100
2, 107490, Note_on_c, 0, 81, 100
2, 107490, Note_on_c, 0, 93, 100
2, 107490, Note_on_c, 0, 105, 100
2, 107520, Text_t, "HandMap_Default"
2, 107520, Text_t, "[section verse_2]"
2, 107520, Note_on_c, 0, 61, 0
2, 107520, Note_on_c, 0, 73, 0
2, 107520, Note_on_c, 0, 74, 0
2, 107520, Note_on_c, 0, 85, 0
2, 107520, Note_on_c, 0, 86, 0
2, 107520, Note_on_c, 0, 97, 0
2, 107520, Note_on_c, 0, 98, 0
2, 107520, Note_on_c, 3, 51, 0
2, 107520, Note_on_c, 0, 60, 100
2, 107520, Note_on_c, 0, 72, 100
2, 107520, Note_on_c, 0, 84, 100
2, 107520, Note_on_c, 0, 96, 100
2, 107760, Note_on_c, 0, 60, 0
2, 107760, Note_on_c, 0, 72, 0
2, 107760, Note_on_c, 0, 84, 0
2, 107760, Note_on_c, 0, 96, 0
2, 108480, Note_on_c, 0, 62, 100
2, 108480, Note_on_c, 0, 72, 100
2, 108480, Note_on_c, 0, 74, 100
2, 108480, Note_on_c, 0, 85, 100
2, 108480, Note_on_c, 0, 87, 100
2, 108480, Note_on_c, 0, 97, 100
2, 108480, Note_on_c, 0, 99, 100
2, 108480, Note_on_c, 3, 47, 100
2, 108720, Note_on_c, 0, 62, 0
2, 108720, Note_on_c, 0, 72, 0
2, 108720, Note_on_c, 0, 74, 0
2, 108720, Note_on_c, 0, 85, 0
2, 108720, Note_on_c, 0, 87, 0
2, 108720, Note_on_c, 0, 97, 0
2, 108720, Note_on_c, 0, 99, 0
2, 109440, Text_t, "sing_on"
2, 109440, Note_on_c, 3, 47, 0
2, 109440, Note_on_c, 0, 60, 100
2, 109440, Note_on_c, 0, 72, 100
2, 109440, Note_on_c, 0, 84, 100
2, 109440, Note_on_c, 0, 96, 100
2, 109440, Note_on_c, 0, 108, 100
2, 109680, Note_on_c, 0, 60, 0
2, 109680, Note_on_c, 0, 72, 0
2, 109680, Note_on_c, 0, 84, 0
2, 109680, Note_on_c, 0, 96, 0
2, 109980, Note_on_c, 0, 108, 0
2, 110400, Note_on_c, 0, 62, 100
2, 110400, Note_on_c, 0, 72, 100
2, 110400, Note_on_c, 0, 74, 100
2, 110400, Note_on_c, 0, 85, 100
2, 110400, Note_on_c, 0, 87, 100
2, 110400, Note_on_c, 0, 97, 100
2, 110400, Note_on_c, 0, 99, 100
2, 110400, Note_on_c, 0, 108, 100
2, 110400, Note_on_c, 3, 47, 100
2, 110640, Note_on_c, 0, 62, 0
2, 110640, Note_on_c, 0, 72, 0
2, 110640, Note_on_c, 0, 74, 0
2, 110640, Note_on_c, 0, 85, 0
2, 110640, Note_on_c, 0, 87, 0
2, 110640, Note_on_c, 0, 97, 0
2, 110640, Note_on_c, 0, 99, 0
2, 110940, Note_on_c, 0, 108, 0
2, 111360, Note_on_c, 3, 47, 0
2, 111360, Note_on_c, 0, 60, 100
2, 111360, Note_on_c, 0, 72, 100
2, 111360, Note_on_c, 0, 84, 100
2, 111360, Note_on_c, 0, 96, 100
2, 111600, Note_on_c, 0, 60, 0
2, 111600, Note_on_c, 0, 72, 0
2, 111600, Note_on_c, 0, 84, 0
2, 111600, Note_on_c, 0, 96, 0
2, 112320, Note_on_c, 0, 62, 100
2, 112320, Note_on_c, 0, 72, 100
2, 112320, Note_on_c, 0, 74, 100
2, 112320, Note_on_c, 0, 85, 100
2, 112320, Note_on_c, 0, 87, 100
2, 112320, Note_on_c, 0, 97, 100
2, 112320, Note_on_c, 0, 99, 100
2, 112320, Note_on_c, 0, 108, 100
2, 112320, Note_on_c, 3, 47, 100
2, 112560, Note_on_c, 0, 62, 0
2, 112560, Note_on_c, 0, 72, 0
2, 112560, Note_on_c, 0, 74, 0
2, 112560, Note_on_c, 0, 85, 0
2, 112560, Note_on_c, 0, 87, 0
2, 112560, Note_on_c, 0, 97, 0
2, 112560, Note_on_c, 0, 99, 0
2, 113280, Note_on_c, 3, 47, 0
2, 113280, Note_on_c, 0, 60, 100
2, 113280, Note_on_c, 0, 72, 100
2, 113280, Note_on_c, 0, 84, 100
2, 113280, Note_on_c, 0, 96, 100
2, 113520, Note_on_c, 0, 60, 0
2, 113520, Note_on_c, 0, 72, 0
2, 113520, Note_on_c, 0, 84, 0
2, 113520, Note_on_c, 0, 96, 0
2, 114000, Note_on_c, 0, 108, 0
2, 114080, Note_on_c, 0, 108, 100
2, 114240, Note_on_c, 0, 62, 100
2, 114240, Note_on_c, 0, 74, 100
2, 114240, Note_on_c, 0, 87, 100
2, 114240, Note_on_c, 0, 97, 100
2, 114240, Note_on_c, 0, 99, 100
2, 114240, Note_on_c, 3, 47, 100
2, 114480, Note_on_c, 0, 62, 0
2, 114480, Note_on_c, 0, 74, 0
2, 114480, Note_on_c, 0, 87, 0
2, 114480, Note_on_c, 0, 97, 0
2, 114480, Note_on_c, 0, 99, 0
2, 114480, Note_on_c, 3, 47, 0
2, 114720, Note_on_c, 3, 45, 100
2, 114808, Note_on_c, 0, 86, 100
2, 114880, Note_on_c, 0, 61, 100
2, 114880, Note_on_c, 0, 73, 100
2, 114880, Note_on_c, 0, 98, 100
2, 114960, Note_on_c, 3, 45, 0
2, 115048, Note_on_c, 0, 86, 0
2, 115120, Note_on_c, 0, 61, 0
2, 115120, Note_on_c, 0, 73, 0
2, 115120, Note_on_c, 0, 98, 0
2, 115170, Note_on_c, 0, 70, 100
2, 115170, Note_on_c, 0, 82, 100
2, 115170, Note_on_c, 0, 94, 100
2, 115170, Note_on_c, 0, 106, 100
2, 115200, Note_on_c, 0, 62, 100
2, 115200, Note_on_c, 0, 74, 100
2, 115200, Note_on_c, 0, 87, 100
2, 115200, Note_on_c, 0, 97, 100
2, 115200, Note_on_c, 0, 99, 100
2, 115200, Note_on_c, 3, 47, 100
2, 115440, Note_on_c, 0, 62, 0
2, 115440, Note_on_c, 0, 74, 0
2, 115440, Note_on_c, 0, 87, 0
2, 115440, Note_on_c, 0, 97, 0
2, 115440, Note_on_c, 0, 99, 0
2, 115440, Note_on_c, 3, 47, 0
2, 116130, Note_on_c, 0, 69, 0
2, 116130, Note_on_c, 0, 81, 0
2, 116130, Note_on_c, 0, 93, 0
2, 116130, Note_on_c, 0, 105, 0
2, 116160, Note_on_c, 0, 62, 100
2, 116160, Note_on_c, 0, 74, 100
2, 116160, Note_on_c, 0, 85, 100
2, 116160, Note_on_c, 0, 87, 100
2, 116160, Note_on_c, 0, 97, 100
2, 116160, Note_on_c, 0, 99, 100
2, 116160, Note_on_c, 3, 47, 100
2, 116400, Note_on_c, 0, 62, 0
2, 116400, Note_on_c, 0, 74, 0
2, 116400, Note_on_c, 0, 85, 0
2, 116400, Note_on_c, 0, 87, 0
2, 116400, Note_on_c, 0, 97, 0
2, 116400, Note_on_c, 0, 99, 0
2, 116840, Note_on_c, 0, 108, 0
2, 117120, Note_on_c, 3, 47, 0
2, 117120, Note_on_c, 0, 60, 100
2, 117120, Note_on_c, 0, 72, 100
2, 117120, Note_on_c, 0, 84, 100
2, 117120, Note_on_c, 0, 96, 100
2, 117120, Note_on_c, 0, 108, 100
2, 117360, Note_on_c, 0, 60, 0
2, 117360, Note_on_c, 0, 72, 0
2, 117360, Note_on_c, 0, 84, 0
2, 117360, Note_on_c, 0, 96, 0
2, 117600, Note_on_c, 0, 108, 0
2, 118080, Note_on_c, 0, 62, 100
2, 118080, Note_on_c, 0, 72, 100
2, 118080, Note_on_c, 0, 74, 100
2, 118080, Note_on_c, 0, 85, 100
2, 118080, Note_on_c, 0, 87, 100
2, 118080, Note_on_c, 0, 97, 100
2, 118080, Note_on_c, 0, 99, 100
2, 118080, Note_on_c, 0, 108, 100
2, 118080, Note_on_c, 3, 47, 100
2, 118320, Note_on_c, 0, 62, 0
2, 118320, Note_on_c, 0, 72, 0
2, 118320, Note_on_c, 0, 74, 0
2, 118320, Note_on_c, 0, 85, 0
2, 118320, Note_on_c, 0, 87, 0
2, 118320, Note_on_c, 0, 97, 0
2, 118320, Note_on_c, 0, 99, 0
2, 119040, Note_on_c, 3, 47, 0
2, 119040, Note_on_c, 0, 60, 100
2, 119040, Note_on_c, 0, 72, 100
2, 119040, Note_on_c, 0, 84, 100
2, 119040, Note_on_c, 0, 96, 100
2, 119280, Note_on_c, 0, 60, 0
2, 119280, Note_on_c, 0, 72, 0
2, 119280, Note_on_c, 0, 84, 0
2, 119280, Note_on_c, 0, 96, 0
2, 119520, Note_on_c, 0, 108, 0
2, 119680, Note_on_c, 0, 108, 100
2, 120000, Note_on_c, 0, 62, 100
2, 120000, Note_on_c, 0, 72, 100
2, 120000, Note_on_c, 0, 74, 100
2, 120000, Note_on_c, 0, 85, 100
2, 120000, Note_on_c, 0, 87, 100
2, 120000, Note_on_c, 0, 97, 100
2, 120000, Note_on_c, 0, 99, 100
2, 120000, Note_on_c, 3, 47, 100
2, 120240, Note_on_c, 0, 62, 0
2, 120240, Note_on_c, 0, 72, 0
2, 120240, Note_on_c, 0, 74, 0
2, 120240, Note_on_c, 0, 85, 0
2, 120240, Note_on_c, 0, 87, 0
2, 120240, Note_on_c, 0, 97, 0
2, 120240, Note_on_c, 0, 99, 0
2, 120960, Note_on_c, 3, 47, 0
2, 120960, Note_on_c, 0, 60, 100
2, 120960, Note_on_c, 0, 72, 100
2, 120960, Note_on_c, 0, 84, 100
2, 120960, Note_on_c, 0, 96, 100
2, 121200, Note_on_c, 0, 60, 0
2, 121200, Note_on_c, 0, 72, 0
2, 121200, Note_on_c, 0, 84, 0
2, 121200, Note_on_c, 0, 96, 0
2, 121840, Note_on_c, 0, 108, 0
2, 121920, Note_on_c, 0, 62, 100
2, 121920, Note_on_c, 0, 74, 100
2, 121920, Note_on_c, 0, 87, 100
2, 121920, Note_on_c, 0, 97, 100
2, 121920, Note_on_c, 0, 99, 100
2, 121920, Note_on_c, 3, 47, 100
2, 122160, Note_on_c, 0, 62, 0
2, 122160, Note_on_c, 0, 74, 0
2, 122160, Note_on_c, 0, 87, 0
2, 122160, Note_on_c, 0, 97, 0
2, 122160, Note_on_c, 0, 99, 0
2, 122160, Note_on_c, 3, 47, 0
2, 122400, Note_on_c, 3, 45, 100
2, 122488, Note_on_c, 0, 88, 100
2, 122560, Note_on_c, 0, 62, 100
2, 122560, Note_on_c, 0, 75, 100
2, 122560, Note_on_c, 0, 100, 100
2, 122640, Note_on_c, 3, 45, 0
2, 122728, Note_on_c, 0, 88, 0
2, 122800, Note_on_c, 0, 62, 0
2, 122800, Note_on_c, 0, 75, 0
2, 122800, Note_on_c, 0, 100, 0
2, 122850, Note_on_c, 0, 69, 100
2, 122850, Note_on_c, 0, 81, 100
2, 122850, Note_on_c, 0, 93, 100
2, 122850, Note_on_c, 0, 105, 100
2, 122880, Note_on_c, 0, 62, 100
2, 122880, Note_on_c, 0, 74, 100
2, 122880, Note_on_c, 0, 87, 100
2, 122880, Note_on_c, 0, 97, 100
2, 122880, Note_on_c, 0, 99, 100
2, 122880, Note_on_c, 3, 47, 100
2, 123120, Note_on_c, 0, 62, 0
2, 123120, Note_on_c, 0, 74, 0
2, 123120, Note_on_c, 0, 87, 0
2, 123120, Note_on_c, 0, 97, 0
2, 123120, Note_on_c, 0, 99, 0
2, 123120, Note_on_c, 3, 47, 0
2, 123810, Note_on_c, 0, 70, 0
2, 123810, Note_on_c, 0, 82, 0
2, 123810, Note_on_c, 0, 94, 0
2, 123810, Note_on_c, 0, 106, 0
2, 123840, Note_on_c, 0, 62, 100
2, 123840, Note_on_c, 0, 74, 100
2, 123840, Note_on_c, 0, 85, 100
2, 123840, Note_on_c, 0, 87, 100
2, 123840, Note_on_c, 0, 97, 100
2, 123840, Note_on_c, 0, 99, 100
2, 123840, Note_on_c, 3, 47, 100
2, 124080, Note_on_c, 0, 62, 0
2, 124080, Note_on_c, 0, 74, 0
2, 124080, Note_on_c, 0, 85, 0
2, 124080, Note_on_c, 0, 87, 0
2, 124080, Note_on_c, 0, 97, 0
2, 124080, Note_on_c, 0, 99, 0
2, 124800, Note_on_c, 3, 47, 0
2, 124800, Note_on_c, 0, 60, 100
2, 124800, Note_on_c, 0, 72, 100
2, 124800, Note_on_c, 0, 84, 100
2, 124800, Note_on_c, 0, 96, 100
2, 125040, Note_on_c, 0, 60, 0
2, 125040, Note_on_c, 0, 72, 0
2, 125040, Note_on_c, 0, 84, 0
2, 125040, Note_on_c, 0, 96, 0
2, 125760, Note_on_c, 0, 62, 100
2, 125760, Note_on_c, 0, 72, 100
2, 125760, Note_on_c, 0, 74, 100
2, 125760, Note_on_c, 0, 85, 100
2, 125760, Note_on_c, 0, 87, 100
2, 125760, Note_on_c, 0, 97, 100
2, 125760, Note_on_c, 0, 99, 100
2, 125760, Note_on_c, 0, 108, 100
2, 125760, Note_on_c, 3, 47, 100
2, 126000, Note_on_c, 0, 62, 0
2, 126000, Note_on_c, 0, 72, 0
2, 126000, Note_on_c, 0, 74, 0
2, 126000, Note_on_c, 0, 85, 0
2, 126000, Note_on_c, 0, 87, 0
2, 126000, Note_on_c, 0, 97, 0
2, 126000, Note_on_c, 0, 99, 0
2, 126720, Note_on_c, 3, 47, 0
2, 126720, Note_on_c, 0, 60, 100
2, 126720, Note_on_c, 0, 72, 100
2, 126720, Note_on_c, 0, 84, 100
2, 126720, Note_on_c, 0, 96, 100
2, 126960, Note_on_c, 0, 60, 0
2, 126960, Note_on_c, 0, 72, 0
2, 126960, Note_on_c, 0, 84, 0
2, 126960, Note_on_c, 0, 96, 0
2, 127500, Note_on_c, 0, 108, 0
2, 127680, Note_on_c, 0, 62, 100
2, 127680, Note_on_c, 0, 72, 100
2, 127680, Note_on_c, 0, 74, 100
2, 127680, Note_on_c, 0, 85, 100
2, 127680, Note_on_c, 0, 87, 100
2, 127680, Note_on_c, 0, 97, 100
2, 127680, Note_on_c, 0, 99, 100
2, 127680, Note_on_c, 0, 108, 100
2, 127680, Note_on_c, 3, 47, 100
2, 127920, Note_on_c, 0, 62, 0
2, 127920, Note_on_c, 0, 72, 0
2, 127920, Note_on_c, 0, 74, 0
2, 127920, Note_on_c, 0, 85, 0
2, 127920, Note_on_c, 0, 87, 0
2, 127920, Note_on_c, 0, 97, 0
2, 127920, Note_on_c, 0, 99, 0
2, 128640, Note_on_c, 3, 47, 0
2, 128640, Note_on_c, 0, 60, 100
2, 128640, Note_on_c, 0, 72, 100
2, 128640, Note_on_c, 0, 84, 100
2, 128640, Note_on_c, 0, 96, 100
2, 128880, Note_on_c, 0, 60, 0
2, 128880, Note_on_c, 0, 72, 0
2, 128880, Note_on_c, 0, 84, 0
2, 128880, Note_on_c, 0, 96, 0
2, 129420, Note_on_c, 0, 108, 0
2, 129600, Note_on_c, 0, 62, 100
2, 129600, Note_on_c, 0, 74, 100
2, 129600, Note_on_c, 0, 87, 100
2, 129600, Note_on_c, 0, 97, 100
2, 129600, Note_on_c, 0, 99, 100
2, 129600, Note_on_c, 0, 108, 100
2, 129600, Note_on_c, 3, 47, 100
2, 129840, Note_on_c, 0, 62, 0
2, 129840, Note_on_c, 0, 74, 0
2, 129840, Note_on_c, 0, 87, 0
2, 129840, Note_on_c, 0, 97, 0
2, 129840, Note_on_c, 0, 99, 0
2, 129840, Note_on_c, 3, 47, 0
2, 130080, Note_on_c, 3, 45, 100
2, 130168, Note_on_c, 0, 86, 100
2, 130240, Note_on_c, 0, 61, 100
2, 130240, Note_on_c, 0, 73, 100
2, 130240, Note_on_c, 0, 98, 100
2, 130320, Note_on_c, 3, 45, 0
2, 130408, Note_on_c, 0, 86, 0
2, 130480, Note_on_c, 0, 61, 0
2, 130480, Note_on_c, 0, 73, 0
2, 130480, Note_on_c, 0, 98, 0
2, 130530, Note_on_c, 0, 70, 100
2, 130530, Note_on_c, 0, 82, 100
2, 130530, Note_on_c, 0, 94, 100
2, 130530, Note_on_c, 0, 106, 100
2, 130560, Note_on_c, 0, 62, 100
2, 130560, Note_on_c, 0, 74, 100
2, 130560, Note_on_c, 0, 87, 100
2, 130560, Note_on_c, 0, 97, 100
2, 130560, Note_on_c, 0, 99, 100
2, 130560, Note_on_c, 3, 47, 100
2, 130680, Note_on_c, 0, 108, 0
2, 130800, Note_on_c, 0, 62, 0
2, 130800, Note_on_c, 0, 74, 0
2, 130800, Note_on_c, 0, 87, 0
2, 130800, Note_on_c, 0, 97, 0
2, 130800, Note_on_c, 0, 99, 0
2, 130800, Note_on_c, 3, 47, 0
2, 131490, Note_on_c, 0, 69, 0
2, 131490, Note_on_c, 0, 81, 0
2, 131490, Note_on_c, 0, 93, 0
2, 131490, Note_on_c, 0, 105, 0
2, 131520, Note_on_c, 0, 62, 100
2, 131520, Note_on_c, 0, 74, 100
2, 131520, Note_on_c, 0, 85, 100
2, 131520, Note_on_c, 0, 87, 100
2, 131520, Note_on_c, 0, 97, 100
2, 131520, Note_on_c, 0, 99, 100
2, 131520, Note_on_c, 3, 47, 100
2, 131760, Note_on_c, 0, 62, 0
2, 131760, Note_on_c, 0, 74, 0
2, 131760, Note_on_c, 0, 85, 0
2, 131760, Note_on_c, 0, 87, 0
2, 131760, Note_on_c, 0, 97, 0
2, 131760, Note_on_c, 0, 99, 0
2, 132480, Note_on_c, 3, 47, 0
2, 132480, Note_on_c, 0, 60, 100
2, 132480, Note_on_c, 0, 72, 100
2, 132480, Note_on_c, 0, 84, 100
2, 132480, Note_on_c, 0, 96, 100
2, 132720, Note_on_c, 0, 60, 0
2, 132720, Note_on_c, 0, 72, 0
2, 132720, Note_on_c, 0, 84, 0
2, 132720, Note_on_c, 0, 96, 0
2, 133440, Note_on_c, 0, 62, 100
2, 133440, Note_on_c, 0, 72, 100
2, 133440, Note_on_c, 0, 74, 100
2, 133440, Note_on_c, 0, 85, 100
2, 133440, Note_on_c, 0, 87, 100
2, 133440, Note_on_c, 0, 97, 100
2, 133440, Note_on_c, 0, 99, 100
2, 133440, Note_on_c, 0, 108, 100
2, 133440, Note_on_c, 3, 47, 100
2, 133680, Note_on_c, 0, 62, 0
2, 133680, Note_on_c, 0, 72, 0
2, 133680, Note_on_c, 0, 74, 0
2, 133680, Note_on_c, 0, 85, 0
2, 133680, Note_on_c, 0, 87, 0
2, 133680, Note_on_c, 0, 97, 0
2, 133680, Note_on_c, 0, 99, 0
2, 134400, Note_on_c, 3, 47, 0
2, 134400, Note_on_c, 0, 60, 100
2, 134400, Note_on_c, 0, 72, 100
2, 134400, Note_on_c, 0, 84, 100
2, 134400, Note_on_c, 0, 96, 100
2, 134640, Note_on_c, 0, 60, 0
2, 134640, Note_on_c, 0, 72, 0
2, 134640, Note_on_c, 0, 84, 0
2, 134640, Note_on_c, 0, 96, 0
2, 135120, Note_on_c, 0, 108, 0
2, 135360, Note_on_c, 0, 62, 100
2, 135360, Note_on_c, 0, 72, 100
2, 135360, Note_on_c, 0, 74, 100
2, 135360, Note_on_c, 0, 85, 100
2, 135360, Note_on_c, 0, 87, 100
2, 135360, Note_on_c, 0, 97, 100
2, 135360, Note_on_c, 0, 99, 100
2, 135360, Note_on_c, 0, 108, 100
2, 135360, Note_on_c, 3, 47, 100
2, 135600, Note_on_c, 0, 62, 0
2, 135600, Note_on_c, 0, 72, 0
2, 135600, Note_on_c, 0, 74, 0
2, 135600, Note_on_c, 0, 85, 0
2, 135600, Note_on_c, 0, 87, 0
2, 135600, Note_on_c, 0, 97, 0
2, 135600, Note_on_c, 0, 99, 0
2, 136320, Note_on_c, 3, 47, 0
2, 136320, Note_on_c, 0, 62, 100
2, 136320, Note_on_c, 0, 74, 100
2, 136320, Note_on_c, 0, 87, 100
2, 136320, Note_on_c, 0, 97, 100
2, 136320, Note_on_c, 0, 99, 100
2, 136560, Note_on_c, 0, 62, 0
2, 136560, Note_on_c, 0, 74, 0
2, 136560, Note_on_c, 0, 87, 0
2, 136560, Note_on_c, 0, 97, 0
2, 136560, Note_on_c, 0, 99, 0
2, 136888, Note_on_c, 0, 86, 100
2, 136960, Note_on_c, 0, 61, 100
2, 136960, Note_on_c, 0, 73, 100
2, 136960, Note_on_c, 0, 98, 100
2, 137040, Note_on_c, 0, 108, 0
2, 137128, Note_on_c, 0, 86, 0
2, 137200, Note_on_c, 0, 61, 0
2, 137200, Note_on_c, 0, 73, 0
2, 137200, Note_on_c, 0, 98, 0
2, 137280, Note_on_c, 0, 62, 100
2, 137280, Note_on_c, 0, 74, 100
2, 137280, Note_on_c, 0, 87, 100
2, 137280, Note_on_c, 0, 97, 100
2, 137280, Note_on_c, 0, 99, 100
2, 137280, Note_on_c, 0, 108, 100
2, 137280, Note_on_c, 3, 47, 100
2, 137520, Note_on_c, 0, 62, 0
2, 137520, Note_on_c, 0, 74, 0
2, 137520, Note_on_c, 0, 87, 0
2, 137520, Note_on_c, 0, 97, 0
2, 137520, Note_on_c, 0, 99, 0
2, 137848, Note_on_c, 0, 85, 100
2, 137920, Note_on_c, 0, 74, 100
2, 137920, Note_on_c, 0, 97, 100
2, 137920, Note_on_c, 0, 99, 100
2, 138000, Note_on_c, 3, 47, 0
2, 138088, Note_on_c, 0, 85, 0
2, 138160, Note_on_c, 0, 74, 0
2, 138160, Note_on_c, 0, 97, 0
2, 138160, Note_on_c, 0, 99, 0
2, 138210, Note_on_c, 0, 69, 100
2, 138210, Note_on_c, 0, 81, 100
2, 138210, Note_on_c, 0, 93, 100
2, 138210, Note_on_c, 0, 105, 100
2, 138240, Text_t, "[chorus]"
2, 138240, Note_on_c, 0, 60, 100
2, 138240, Note_on_c, 0, 72, 100
2, 138240, Note_on_c, 0, 84, 100
2, 138240, Note_on_c, 0, 96, 100
2, 138240, Note_on_c, 0, 97, 100
2, 138240, Note_on_c, 3, 43, 100
2, 138480, Note_on_c, 0, 60, 0
2, 138480, Note_on_c, 0, 72, 0
2, 138480, Note_on_c, 0, 84, 0
2, 138480, Note_on_c, 0, 96, 0
2, 138480, Note_on_c, 0, 97, 0
2, 139200, Note_on_c, 0, 60, 100
2, 139200, Note_on_c, 0, 72, 100
2, 139200, Note_on_c, 0, 73, 100
2, 139200, Note_on_c, 0, 84, 100
2, 139200, Note_on_c, 0, 85, 100
2, 139200, Note_on_c, 0, 96, 100
2, 139200, Note_on_c, 0, 99, 100
2, 139320, Note_on_c, 0, 108, 0
2, 139440, Note_on_c, 0, 60, 0
2, 139440, Note_on_c, 0, 72, 0
2, 139440, Note_on_c, 0, 73, 0
2, 139440, Note_on_c, 0, 84, 0
2, 139440, Note_on_c, 0, 85, 0
2, 139440, Note_on_c, 0, 96, 0
2, 139440, Note_on_c, 0, 99, 0
2, 140160, Text_t, "sing_off"
2, 140160, Note_on_c, 0, 60, 100
2, 140160, Note_on_c, 0, 72, 100
2, 140160, Note_on_c, 0, 84, 100
2, 140160, Note_on_c, 0, 96, 100
2, 140160, Note_on_c, 0, 97, 100
2, 140400, Note_on_c, 0, 60, 0
2, 140400, Note_on_c, 0, 72, 0
2, 140400, Note_on_c, 0, 84, 0
2, 140400, Note_on_c, 0, 96, 0
2, 140400, Note_on_c, 0, 97, 0
2, 141120, Note_on_c, 0, 60, 100
2, 141120, Note_on_c, 0, 72, 100
2, 141120, Note_on_c, 0, 73, 100
2, 141120, Note_on_c, 0, 84, 100
2, 141120, Note_on_c, 0, 85, 100
2, 141120, Note_on_c, 0, 96, 100
2, 141120, Note_on_c, 0, 99, 100
2, 141360, Note_on_c, 0, 60, 0
2, 141360, Note_on_c, 0, 72, 0
2, 141360, Note_on_c, 0, 73, 0
2, 141360, Note_on_c, 0, 84, 0
2, 141360, Note_on_c, 0, 85, 0
2, 141360, Note_on_c, 0, 96, 0
2, 141360, Note_on_c, 0, 99, 0
2, 142080, Note_on_c, 0, 60, 100
2, 142080, Note_on_c, 0, 72, 100
2, 142080, Note_on_c, 0, 84, 100
2, 142080, Note_on_c, 0, 96, 100
2, 142080, Note_on_c, 0, 97, 100
2, 142320, Note_on_c, 0, 60, 0
2, 142320, Note_on_c, 0, 72, 0
2, 142320, Note_on_c, 0, 84, 0
2, 142320, Note_on_c, 0, 96, 0
2, 142320, Note_on_c, 0, 97, 0
2, 143040, Note_on_c, 0, 60, 100
2, 143040, Note_on_c, 0, 72, 100
2, 143040, Note_on_c, 0, 73, 100
2, 143040, Note_on_c, 0, 84, 100
2, 143040, Note_on_c, 0, 85, 100
2, 143040, Note_on_c, 0, 96, 100
2, 143040, Note_on_c, 0, 99, 100
2, 143280, Note_on_c, 0, 60, 0
2, 143280, Note_on_c, 0, 72, 0
2, 143280, Note_on_c, 0, 73, 0
2, 143280, Note_on_c, 0, 84, 0
2, 143280, Note_on_c, 0, 85, 0
2, 143280, Note_on_c, 0, 96, 0
2, 143280, Note_on_c, 0, 99, 0
2, 144000, Note_on_c, 0, 60, 100
2, 144000, Note_on_c, 0, 72, 100
2, 144000, Note_on_c, 0, 84, 100
2, 144000, Note_on_c, 0, 96, 100
2, 144000, Note_on_c, 0, 97, 100
2, 144240, Note_on_c, 0, 60, 0
2, 144240, Note_on_c, 0, 72, 0
2, 144240, Note_on_c, 0, 84, 0
2, 144240, Note_on_c, 0, 96, 0
2, 144240, Note_on_c, 0, 97, 0
2, 144568, Note_on_c, 0, 72, 100
2, 144568, Note_on_c, 0, 73, 100
2, 144568, Note_on_c, 0, 84, 100
2, 144568, Note_on_c, 0, 85, 100
2, 144640, Note_on_c, 0, 96, 100
2, 144640, Note_on_c, 0, 99, 100
2, 144808, Note_on_c, 0, 72, 0
2, 144808, Note_on_c, 0, 73, 0
2, 144808, Note_on_c, 0, 84, 0
2, 144808, Note_on_c, 0, 85, 0
2, 144880, Note_on_c, 0, 96, 0
2, 144880, Note_on_c, 0, 99, 0
2, 144960, Note_on_c, 0, 60, 100
2, 144960, Note_on_c, 0, 72, 100
2, 144960, Note_on_c, 0, 73, 100
2, 144960, Note_on_c, 0, 84, 100
2, 144960, Note_on_c, 0, 85, 100
2, 144960, Note_on_c, 0, 96, 100
2, 144960, Note_on_c, 0, 99, 100
2, 145200, Note_on_c, 0, 60, 0
2, 145200, Note_on_c, 0, 72, 0
2, 145200, Note_on_c, 0, 73, 0
2, 145200, Note_on_c, 0, 84, 0
2, 145200, Note_on_c, 0, 85, 0
2, 145200, Note_on_c, 0, 96, 0
2, 145200, Note_on_c, 0, 99, 0
2, 145440, Note_on_c, 3, 43, 0
2, 145528, Note_on_c, 0, 72, 100
2, 145528, Note_on_c, 0, 73, 100
2, 145528, Note_on_c, 0, 84, 100
2, 145528, Note_on_c, 0, 85, 100
2, 145600, Note_on_c, 0, 60, 100
2, 145600, Note_on_c, 0, 96, 100
2, 145600, Note_on_c, 0, 99, 100
2, 145768, Note_on_c, 0, 72, 0
2, 145768, Note_on_c, 0, 73, 0
2, 145768, Note_on_c, 0, 84, 0
2, 145768, Note_on_c, 0, 85, 0
2, 145840, Note_on_c, 0, 60, 0
2, 145840, Note_on_c, 0, 96, 0
2, 145840, Note_on_c, 0, 99, 0
2, 145920, Note_on_c, 0, 61, 100
2, 145920, Note_on_c, 0, 73, 100
2, 145920, Note_on_c, 0, 86, 100
2, 145920, Note_on_c, 0, 87, 100
2, 145920, Note_on_c, 0, 98, 100
2, 145920, Note_on_c, 0, 99, 100
2, 145920, Note_on_c, 3, 47, 100
2, 146160, Note_on_c, 0, 61, 0
2, 146160, Note_on_c, 0, 73, 0
2, 146160, Note_on_c, 0, 86, 0
2, 146160, Note_on_c, 0, 87, 0
2, 146160, Note_on_c, 0, 98, 0
2, 146160, Note_on_c, 0, 99, 0
2, 146880, Note_on_c, 0, 61, 100
2, 146880, Note_on_c, 0, 73, 100
2, 146880, Note_on_c, 0, 86, 100
2, 146880, Note_on_c, 0, 87, 100
2, 146880, Note_on_c, 0, 98, 100
2, 146880, Note_on_c, 0, 99, 100
2, 147120, Note_on_c, 0, 61, 0
2, 147120, Note_on_c, 0, 73, 0
2, 147120, Note_on_c, 0, 86, 0
2, 147120, Note_on_c, 0, 87, 0
2, 147120, Note_on_c, 0, 98, 0
2, 147120, Note_on_c, 0, 99, 0
2, 147840, Note_on_c, 0, 61, 100
2, 147840, Note_on_c, 0, 73, 100
2, 147840, Note_on_c, 0, 86, 100
2, 147840, Note_on_c, 0, 87, 100
2, 147840, Note_on_c, 0, 98, 100
2, 147840, Note_on_c, 0, 99, 100
2, 148080, Note_on_c, 0, 61, 0
2, 148080, Note_on_c, 0, 73, 0
2, 148080, Note_on_c, 0, 86, 0
2, 148080, Note_on_c, 0, 87, 0
2, 148080, Note_on_c, 0, 98, 0
2, 148080, Note_on_c, 0, 99, 0
2, 148800, Text_t, "sing_on"
2, 148800, Note_on_c, 0, 61, 100
2, 148800, Note_on_c, 0, 73, 100
2, 148800, Note_on_c, 0, 86, 100
2, 148800, Note_on_c, 0, 87, 100
2, 148800, Note_on_c, 0, 98, 100
2, 148800, Note_on_c, 0, 99, 100
2, 148800, Note_on_c, 0, 108, 100
2, 149040, Note_on_c, 0, 61, 0
2, 149040, Note_on_c, 0, 73, 0
2, 149040, Note_on_c, 0, 86, 0
2, 149040, Note_on_c, 0, 87, 0
2, 149040, Note_on_c, 0, 98, 0
2, 149040, Note_on_c, 0, 99, 0
2, 149760, Note_on_c, 0, 61, 100
2, 149760, Note_on_c, 0, 73, 100
2, 149760, Note_on_c, 0, 86, 100
2, 149760, Note_on_c, 0, 87, 100
2, 149760, Note_on_c, 0, 98, 100
2, 149760, Note_on_c, 0, 99, 100
2, 150000, Note_on_c, 0, 61, 0
2, 150000, Note_on_c, 0, 73, 0
2, 150000, Note_on_c, 0, 86, 0
2, 150000, Note_on_c, 0, 87, 0
2, 150000, Note_on_c, 0, 98, 0
2, 150000, Note_on_c, 0, 99, 0
2, 150540, Note_on_c, 0, 108, 0
2, 150720, Note_on_c, 0, 61, 100
2, 150720, Note_on_c, 0, 73, 100
2, 150720, Note_on_c, 0, 86, 100
2, 150720, Note_on_c, 0, 87, 100
2, 150720, Note_on_c, 0, 98, 100
2, 150720, Note_on_c, 0, 99, 100
2, 150720, Note_on_c, 0, 108, 100
2, 150960, Note_on_c, 0, 61, 0
2, 150960, Note_on_c, 0, 73, 0
2, 150960, Note_on_c, 0, 86, 0
2, 150960, Note_on_c, 0, 87, 0
2, 150960, Note_on_c, 0, 98, 0
2, 150960, Note_on_c, 0, 99, 0
2, 151680, Note_on_c, 0, 61, 100
2, 151680, Note_on_c, 0, 73, 100
2, 151680, Note_on_c, 0, 86, 100
2, 151680, Note_on_c, 0, 87, 100
2, 151680, Note_on_c, 0, 98, 100
2, 151680, Note_on_c, 0, 99, 100
2, 151920, Note_on_c, 0, 61, 0
2, 151920, Note_on_c, 0, 73, 0
2, 151920, Note_on_c, 0, 86, 0
2, 151920, Note_on_c, 0, 87, 0
2, 151920, Note_on_c, 0, 98, 0
2, 151920, Note_on_c, 0, 99, 0
2, 152248, Note_on_c, 0, 86, 100
2, 152320, Note_on_c, 0, 72, 100
2, 152320, Note_on_c, 0, 97, 100
2, 152320, Note_on_c, 0, 98, 100
2, 152460, Note_on_c, 0, 108, 0
2, 152488, Note_on_c, 0, 86, 0
2, 152560, Note_on_c, 0, 72, 0
2, 152560, Note_on_c, 0, 97, 0
2, 152560, Note_on_c, 0, 98, 0
2, 152640, Note_on_c, 0, 61, 100
2, 152640, Note_on_c, 0, 73, 100
2, 152640, Note_on_c, 0, 86, 100
2, 152640, Note_on_c, 0, 87, 100
2, 152640, Note_on_c, 0, 98, 100
2, 152640, Note_on_c, 0, 99, 100
2, 152640, Note_on_c, 0, 108, 100
2, 152880, Note_on_c, 0, 61, 0
2, 152880, Note_on_c, 0, 73, 0
2, 152880, Note_on_c, 0, 86, 0
2, 152880, Note_on_c, 0, 87, 0
2, 152880, Note_on_c, 0, 98, 0
2, 152880, Note_on_c, 0, 99, 0
2, 153120, Note_on_c, 3, 47, 0
2, 153208, Note_on_c, 0, 86, 100
2, 153208, Note_on_c, 0, 87, 100
2, 153280, Note_on_c, 0, 61, 100
2, 153280, Note_on_c, 0, 73, 100
2, 153280, Note_on_c, 0, 98, 100
2, 153280, Note_on_c, 0, 99, 100
2, 153448, Note_on_c, 0, 86, 0
2, 153448, Note_on_c, 0, 87, 0
2, 153520, Note_on_c, 0, 61, 0
2, 153520, Note_on_c, 0, 73, 0
2, 153520, Note_on_c, 0, 98, 0
2, 153520, Note_on_c, 0, 99, 0
2, 153570, Note_on_c, 0, 70, 0
2, 153570, Note_on_c, 0, 82, 0
2, 153570, Note_on_c, 0, 94, 0
2, 153570, Note_on_c, 0, 106, 0
2, 153600, Text_t, "[verse]"
2, 153600, Note_on_c, 0, 60, 100
2, 153600, Note_on_c, 0, 72, 100
2, 153600, Note_on_c, 0, 84, 100
2, 153600, Note_on_c, 0, 96, 100
2, 153840, Note_on_c, 0, 60, 0
2, 153840, Note_on_c, 0, 72, 0
2, 153840, Note_on_c, 0, 84, 0
2, 153840, Note_on_c, 0, 96, 0
2, 154560, Note_on_c, 0, 62, 100
2, 154560, Note_on_c, 0, 72, 100
2, 154560, Note_on_c, 0, 74, 100
2, 154560, Note_on_c, 0, 85, 100
2, 154560, Note_on_c, 0, 87, 100
2, 154560, Note_on_c, 0, 97, 100
2, 154560, Note_on_c, 0, 99, 100
2, 154560, Note_on_c, 3, 49, 100
2, 154620, Note_on_c, 0, 108, 0
2, 154800, Note_on_c, 0, 62, 0
2, 154800, Note_on_c, 0, 72, 0
2, 154800, Note_on_c, 0, 74, 0
2, 154800, Note_on_c, 0, 85, 0
2, 154800, Note_on_c, 0, 87, 0
2, 154800, Note_on_c, 0, 97, 0
2, 154800, Note_on_c, 0, 99, 0
2, 155520, Text_t, "sing_off"
2, 155520, Note_on_c, 0, 62, 100
2, 155520, Note_on_c, 0, 74, 100
2, 155520, Note_on_c, 0, 85, 100
2, 155520, Note_on_c, 0, 87, 100
2, 155520, Note_on_c, 0, 97, 100
2, 155520, Note_on_c, 0, 99, 100
2, 155760, Note_on_c, 3, 49, 0
2, 155760, Note_on_c, 0, 62, 0
2, 155760, Note_on_c, 0, 74, 0
2, 155760, Note_on_c, 0, 85, 0
2, 155760, Note_on_c, 0, 87, 0
2, 155760, Note_on_c, 0, 97, 0
2, 155760, Note_on_c, 0, 99, 0
2, 156088, Note_on_c, 0, 86, 100
2, 156160, Note_on_c, 0, 73, 100
2, 156160, Note_on_c, 0, 98, 100
2, 156328, Note_on_c, 0, 86, 0
2, 156400, Note_on_c, 0, 73, 0
2, 156400, Note_on_c, 0, 98, 0
2, 156480, Note_on_c, 0, 60, 100
2, 156480, Note_on_c, 0, 72, 100
2, 156480, Note_on_c, 0, 85, 100
2, 156480, Note_on_c, 0, 97, 100
2, 156480, Note_on_c, 3, 47, 100
2, 156720, Note_on_c, 0, 60, 0
2, 156720, Note_on_c, 0, 72, 0
2, 156720, Note_on_c, 0, 85, 0
2, 156720, Note_on_c, 0, 97, 0
2, 156960, Note_on_c, 3, 47, 0
2, 157440, Note_on_c, 0, 62, 100
2, 157440, Note_on_c, 0, 72, 100
2, 157440, Note_on_c, 0, 74, 100
2, 157440, Note_on_c, 0, 85, 100
2, 157440, Note_on_c, 0, 87, 100
2, 157440, Note_on_c, 0, 97, 100
2, 157440, Note_on_c, 0, 99, 100
2, 157440, Note_on_c, 3, 49, 100
2, 157680, Note_on_c, 0, 62, 0
2, 157680, Note_on_c, 0, 72, 0
2, 157680, Note_on_c, 0, 74, 0
2, 157680, Note_on_c, 0, 85, 0
2, 157680, Note_on_c, 0, 87, 0
2, 157680, Note_on_c, 0, 97, 0
2, 157680, Note_on_c, 0, 99, 0
2, 158400, Note_on_c, 0, 62, 100
2, 158400, Note_on_c, 0, 74, 100
2, 158400, Note_on_c, 0, 85, 100
2, 158400, Note_on_c, 0, 87, 100
2, 158400, Note_on_c, 0, 97, 100
2, 158400, Note_on_c, 0, 99, 100
2, 158640, Note_on_c, 3, 49, 0
2, 158640, Note_on_c, 0, 62, 0
2, 158640, Note_on_c, 0, 74, 0
2, 158640, Note_on_c, 0, 85, 0
2, 158640, Note_on_c, 0, 87, 0
2, 158640, Note_on_c, 0, 97, 0
2, 158640, Note_on_c, 0, 99, 0
2, 158968, Note_on_c, 0, 85, 100
2, 159010, Note_on_c, 0, 70, 100
2, 159010, Note_on_c, 0, 82, 100
2, 159010, Note_on_c, 0, 94, 100
2, 159010, Note_on_c, 0, 106, 100
2, 159040, Note_on_c, 0, 73, 100
2, 159040, Note_on_c, 0, 96, 100
2, 159208, Note_on_c, 0, 85, 0
2, 159280, Note_on_c, 0, 73, 0
2, 159280, Note_on_c, 0, 96, 0
2, 159360, Note_on_c, 0, 60, 100
2, 159360, Note_on_c, 0, 72, 100
2, 159360, Note_on_c, 0, 84, 100
2, 159360, Note_on_c, 0, 97, 100
2, 159360, Note_on_c, 3, 40, 100
2, 159600, Note_on_c, 0, 72, 0
2, 159600, Note_on_c, 0, 84, 0
2, 159600, Note_on_c, 0, 97, 0
2, 159600, Note_on_c, 3, 40, 0
2, 159680, Note_on_c, 0, 85, 100
2, 159680, Note_on_c, 0, 98, 100
2, 159920, Note_on_c, 0, 85, 0
2, 159920, Note_on_c, 0, 98, 0
2, 159928, Note_on_c, 0, 73, 100
2, 160000, Note_on_c, 0, 86, 100
2, 160000, Note_on_c, 0, 99, 100
2, 160160, Note_on_c, 0, 60, 0
2, 160168, Note_on_c, 0, 73, 0
2, 160240, Note_on_c, 0, 86, 0
2, 160240, Note_on_c, 0, 99, 0
2, 160290, Note_on_c, 0, 67, 100
2, 160290, Note_on_c, 0, 79, 100
2, 160290, Note_on_c, 0, 91, 100
2, 160290, Note_on_c, 0, 103, 100
2, 160320, Note_on_c, 0, 61, 100
2, 160320, Note_on_c, 0, 74, 100
2, 160320, Note_on_c, 0, 87, 100
2, 160320, Note_on_c, 0, 100, 100
2, 160320, Note_on_c, 3, 47, 100
2, 160560, Note_on_c, 0, 74, 0
2, 160560, Note_on_c, 0, 87, 0
2, 160560, Note_on_c, 0, 100, 0
2, 160560, Note_on_c, 3, 47, 0
2, 160640, Note_on_c, 0, 86, 100
2, 160640, Note_on_c, 0, 99, 100
2, 160880, Note_on_c, 0, 86, 0
2, 160880, Note_on_c, 0, 99, 0
2, 160888, Note_on_c, 0, 73, 100
2, 160960, Note_on_c, 0, 85, 100
2, 160960, Note_on_c, 0, 98, 100
2, 161120, Note_on_c, 0, 61, 0
2, 161128, Note_on_c, 0, 73, 0
2, 161200, Note_on_c, 0, 85, 0
2, 161200, Note_on_c, 0, 98, 0
2, 161280, Note_on_c, 0, 60, 100
2, 161280, Note_on_c, 0, 72, 100
2, 161280, Note_on_c, 0, 84, 100
2, 161280, Note_on_c, 0, 96, 100
2, 161280, Note_on_c, 3, 40, 100
2, 161490, Note_on_c, 0, 67, 0
2, 161490, Note_on_c, 0, 79, 0
2, 161490, Note_on_c, 0, 91, 0
2, 161490, Note_on_c, 0, 103, 0
2, 161520, Note_on_c, 0, 60, 0
2, 161520, Note_on_c, 0, 72, 0
2, 161520, Note_on_c, 0, 84, 0
2, 161520, Note_on_c, 0, 96, 0
2, 161520, Note_on_c, 3, 40, 0
2, 161570, Note_on_c, 0, 69, 0
2, 161570, Note_on_c, 0, 81, 0
2, 161570, Note_on_c, 0, 93, 0
2, 161570, Note_on_c, 0, 105, 0
2, 162240, Note_on_c, 0, 62, 100
2, 162240, Note_on_c, 0, 72, 100
2, 162240, Note_on_c, 0, 74, 100
2, 162240, Note_on_c, 0, 85, 100
2, 162240, Note_on_c, 0, 87, 100
2, 162240, Note_on_c, 0, 97, 100
2, 162240, Note_on_c, 0, 99, 100
2, 162240, Note_on_c, 3, 49, 100
2, 162480, Note_on_c, 0, 62, 0
2, 162480, Note_on_c, 0, 72, 0
2, 162480, Note_on_c, 0, 74, 0
2, 162480, Note_on_c, 0, 85, 0
2, 162480, Note_on_c, 0, 87, 0
2, 162480, Note_on_c, 0, 97, 0
2, 162480, Note_on_c, 0, 99, 0
2, 163200, Note_on_c, 0, 62, 100
2, 163200, Note_on_c, 0, 74, 100
2, 163200, Note_on_c, 0, 85, 100
2, 163200, Note_on_c, 0, 87, 100
2, 163200, Note_on_c, 0, 97, 100
2, 163200, Note_on_c, 0, 99, 100
2, 163440, Note_on_c, 3, 49, 0
2, 163440, Note_on_c, 0, 62, 0
2, 163440, Note_on_c, 0, 74, 0
2, 163440, Note_on_c, 0, 85, 0
2, 163440, Note_on_c, 0, 87, 0
2, 163440, Note_on_c, 0, 97, 0
2, 163440, Note_on_c, 0, 99, 0
2, 163768, Note_on_c, 0, 86, 100
2, 163840, Note_on_c, 0, 73, 100
2, 163840, Note_on_c, 0, 98, 100
2, 164008, Note_on_c, 0, 86, 0
2, 164080, Note_on_c, 0, 73, 0
2, 164080, Note_on_c, 0, 98, 0
2, 164160, Text_t, "sing_on"
2, 164160, Note_on_c, 0, 60, 100
2, 164160, Note_on_c, 0, 72, 100
2, 164160, Note_on_c, 0, 85, 100
2, 164160, Note_on_c, 0, 97, 100
2, 164160, Note_on_c, 3, 47, 100
2, 164400, Note_on_c, 0, 60, 0
2, 164400, Note_on_c, 0, 72, 0
2, 164400, Note_on_c, 0, 85, 0
2, 164400, Note_on_c, 0, 97, 0
2, 164640, Note_on_c, 3, 47, 0
2, 164800, Note_on_c, 0, 108, 100
2, 165120, Note_on_c, 0, 62, 100
2, 165120, Note_on_c, 0, 72, 100
2, 165120, Note_on_c, 0, 74, 100
2, 165120, Note_on_c, 0, 85, 100
2, 165120, Note_on_c, 0, 87, 100
2, 165120, Note_on_c, 0, 97, 100
2, 165120, Note_on_c, 0, 99, 100
2, 165120, Note_on_c, 3, 49, 100
2, 165360, Note_on_c, 0, 62, 0
2, 165360, Note_on_c, 0, 72, 0
2, 165360, Note_on_c, 0, 74, 0
2, 165360, Note_on_c, 0, 85, 0
2, 165360, Note_on_c, 0, 87, 0
2, 165360, Note_on_c, 0, 97, 0
2, 165360, Note_on_c, 0, 99, 0
2, 165820, Note_on_c, 0, 108, 0
2, 166080, Note_on_c, 0, 62, 100
2, 166080, Note_on_c, 0, 74, 100
2, 166080, Note_on_c, 0, 85, 100
2, 166080, Note_on_c, 0, 87, 100
2, 166080, Note_on_c, 0, 97, 100
2, 166080, Note_on_c, 0, 99, 100
2, 166080, Note_on_c, 0, 108, 100
2, 166320, Note_on_c, 3, 49, 0
2, 166320, Note_on_c, 0, 62, 0
2, 166320, Note_on_c, 0, 74, 0
2, 166320, Note_on_c, 0, 85, 0
2, 166320, Note_on_c, 0, 87, 0
2, 166320, Note_on_c, 0, 97, 0
2, 166320, Note_on_c, 0, 99, 0
2, 166648, Note_on_c, 0, 86, 100
2, 166720, Note_on_c, 0, 73, 100
2, 166720, Note_on_c, 0, 98, 100
2, 166860, Note_on_c, 0, 108, 0
2, 166888, Note_on_c, 0, 86, 0
2, 166960, Note_on_c, 0, 73, 0
2, 166960, Note_on_c, 0, 98, 0
2, 167040, Note_on_c, 0, 60, 100
2, 167040, Note_on_c, 0, 72, 100
2, 167040, Note_on_c, 0, 85, 100
2, 167040, Note_on_c, 0, 97, 100
2, 167040, Note_on_c, 0, 108, 100
2, 167040, Note_on_c, 3, 47, 100
2, 167280, Note_on_c, 0, 60, 0
2, 167280, Note_on_c, 0, 72, 0
2, 167280, Note_on_c, 0, 85, 0
2, 167280, Note_on_c, 0, 97, 0
2, 167520, Note_on_c, 3, 47, 0
2, 167650, Note_on_c, 0, 69, 100
2, 167650, Note_on_c, 0, 81, 100
2, 167650, Note_on_c, 0, 93, 100
2, 167650, Note_on_c, 0, 105, 100
2, 167680, Note_on_c, 0, 97, 100
2, 167760, Note_on_c, 3, 52, 100
2, 167820, Note_on_c, 0, 108, 0
2, 167920, Note_on_c, 0, 97, 0
2, 168000, Note_on_c, 3, 52, 0
2, 168000, Note_on_c, 0, 61, 100
2, 168000, Note_on_c, 0, 73, 100
2, 168000, Note_on_c, 0, 86, 100
2, 168000, Note_on_c, 0, 98, 100
2, 168000, Note_on_c, 0, 108, 100
2, 168660, Note_on_c, 0, 108, 0
2, 168800, Note_on_c, 0, 108, 100
2, 168960, Text_t, "[chorus]"
2, 168960, Note_on_c, 0, 61, 0
2, 168960, Note_on_c, 0, 73, 0
2, 168960, Note_on_c, 0, 86, 0
2, 168960, Note_on_c, 0, 98, 0
2, 168960, Note_on_c, 0, 60, 100
2, 168960, Note_on_c, 0, 72, 100
2, 168960, Note_on_c, 0, 84, 100
2, 168960, Note_on_c, 0, 96, 100
2, 168960, Note_on_c, 0, 97, 100
2, 168960, Note_on_c, 3, 43, 100
2, 169200, Note_on_c, 0, 60, 0
2, 169200, Note_on_c, 0, 72, 0
2, 169200, Note_on_c, 0, 84, 0
2, 169200, Note_on_c, 0, 96, 0
2, 169200, Note_on_c, 0, 97, 0
2, 169640, Note_on_c, 0, 108, 0
2, 169920, Note_on_c, 0, 60, 100
2, 169920, Note_on_c, 0, 72, 100
2, 169920, Note_on_c, 0, 73, 100
2, 169920, Note_on_c, 0, 84, 100
2, 169920, Note_on_c, 0, 85, 100
2, 169920, Note_on_c, 0, 96, 100
2, 169920, Note_on_c, 0, 99, 100
2, 169920, Note_on_c, 0, 108, 100
2, 170160, Note_on_c, 0, 60, 0
2, 170160, Note_on_c, 0, 72, 0
2, 170160, Note_on_c, 0, 73, 0
2, 170160, Note_on_c, 0, 84, 0
2, 170160, Note_on_c, 0, 85, 0
2, 170160, Note_on_c, 0, 96, 0
2, 170160, Note_on_c, 0, 99, 0
2, 170880, Note_on_c, 0, 60, 100
2, 170880, Note_on_c, 0, 72, 100
2, 170880, Note_on_c, 0, 84, 100
2, 170880, Note_on_c, 0, 96, 100
2, 170880, Note_on_c, 0, 97, 100
2, 171120, Note_on_c, 0, 60, 0
2, 171120, Note_on_c, 0, 72, 0
2, 171120, Note_on_c, 0, 84, 0
2, 171120, Note_on_c, 0, 96, 0
2, 171120, Note_on_c, 0, 97, 0
2, 171840, Note_on_c, 0, 60, 100
2, 171840, Note_on_c, 0, 72, 100
2, 171840, Note_on_c, 0, 73, 100
2, 171840, Note_on_c, 0, 84, 100
2, 171840, Note_on_c, 0, 85, 100
2, 171840, Note_on_c, 0, 96, 100
2, 171840, Note_on_c, 0, 99, 100
2, 172080, Note_on_c, 0, 60, 0
2, 172080, Note_on_c, 0, 72, 0
2, 172080, Note_on_c, 0, 73, 0
2, 172080, Note_on_c, 0, 84, 0
2, 172080, Note_on_c, 0, 85, 0
2, 172080, Note_on_c, 0, 96, 0
2, 172080, Note_on_c, 0, 99, 0
2, 172740, Note_on_c, 0, 108, 0
2, 172800, Text_t, "sing_off"
2, 172800, Note_on_c, 0, 60, 100
2, 172800, Note_on_c, 0, 72, 100
2, 172800, Note_on_c, 0, 84, 100
2, 172800, Note_on_c, 0, 96, 100
2, 172800, Note_on_c, 0, 97, 100
2, 173040, Note_on_c, 0, 60, 0
2, 173040, Note_on_c, 0, 72, 0
2, 173040, Note_on_c, 0, 84, 0
2, 173040, Note_on_c, 0, 96, 0
2, 173040, Note_on_c, 0, 97, 0
2, 173760, Note_on_c, 0, 60, 100
2, 173760, Note_on_c, 0, 72, 100
2, 173760, Note_on_c, 0, 73, 100
2, 173760, Note_on_c, 0, 84, 100
2, 173760, Note_on_c, 0, 85, 100
2, 173760, Note_on_c, 0, 96, 100
2, 173760, Note_on_c, 0, 99, 100
2, 174000, Note_on_c, 0, 60, 0
2, 174000, Note_on_c, 0, 72, 0
2, 174000, Note_on_c, 0, 73, 0
2, 174000, Note_on_c, 0, 84, 0
2, 174000, Note_on_c, 0, 85, 0
2, 174000, Note_on_c, 0, 96, 0
2, 174000, Note_on_c, 0, 99, 0
2, 174720, Note_on_c, 0, 60, 100
2, 174720, Note_on_c, 0, 72, 100
2, 174720, Note_on_c, 0, 73, 100
2, 174720, Note_on_c, 0, 84, 100
2, 174720, Note_on_c, 0, 85, 100
2, 174720, Note_on_c, 0, 96, 100
2, 174720, Note_on_c, 0, 99, 100
2, 174960, Note_on_c, 0, 60, 0
2, 174960, Note_on_c, 0, 72, 0
2, 174960, Note_on_c, 0, 73, 0
2, 174960, Note_on_c, 0, 84, 0
2, 174960, Note_on_c, 0, 85, 0
2, 174960, Note_on_c, 0, 96, 0
2, 174960, Note_on_c, 0, 99, 0
2, 175288, Note_on_c, 0, 72, 100
2, 175288, Note_on_c, 0, 86, 100
2, 175360, Note_on_c, 0, 98, 100
2, 175528, Note_on_c, 0, 72, 0
2, 175528, Note_on_c, 0, 86, 0
2, 175600, Note_on_c, 0, 98, 0
2, 175680, Note_on_c, 0, 60, 100
2, 175680, Note_on_c, 0, 72, 100
2, 175680, Note_on_c, 0, 73, 100
2, 175680, Note_on_c, 0, 84, 100
2, 175680, Note_on_c, 0, 85, 100
2, 175680, Note_on_c, 0, 96, 100
2, 175680, Note_on_c, 0, 99, 100
2, 175920, Note_on_c, 0, 60, 0
2, 175920, Note_on_c, 0, 72, 0
2, 175920, Note_on_c, 0, 73, 0
2, 175920, Note_on_c, 0, 84, 0
2, 175920, Note_on_c, 0, 85, 0
2, 175920, Note_on_c, 0, 96, 0
2, 175920, Note_on_c, 0, 99, 0
2, 176160, Note_on_c, 3, 43, 0
2, 176248, Note_on_c, 0, 73, 100
2, 176248, Note_on_c, 0, 84, 100
2, 176248, Note_on_c, 0, 85, 100
2, 176320, Note_on_c, 0, 60, 100
2, 176320, Note_on_c, 0, 96, 100
2, 176320, Note_on_c, 0, 99, 100
2, 176488, Note_on_c, 0, 73, 0
2, 176488, Note_on_c, 0, 84, 0
2, 176488, Note_on_c, 0, 85, 0
2, 176560, Note_on_c, 0, 60, 0
2, 176560, Note_on_c, 0, 96, 0
2, 176560, Note_on_c, 0, 99, 0
2, 176640, Note_on_c, 0, 61, 100
2, 176640, Note_on_c, 0, 73, 100
2, 176640, Note_on_c, 0, 86, 100
2, 176640, Note_on_c, 0, 87, 100
2, 176640, Note_on_c, 0, 98, 100
2, 176640, Note_on_c, 0, 99, 100
2, 176640, Note_on_c, 3, 47, 100
2, 176880, Note_on_c, 0, 61, 0
2, 176880, Note_on_c, 0, 73, 0
2, 176880, Note_on_c, 0, 86, 0
2, 176880, Note_on_c, 0, 87, 0
2, 176880, Note_on_c, 0, 98, 0
2, 176880, Note_on_c, 0, 99, 0
2, 177600, Note_on_c, 0, 61, 100
2, 177600, Note_on_c, 0, 73, 100
2, 177600, Note_on_c, 0, 86, 100
2, 177600, Note_on_c, 0, 87, 100
2, 177600, Note_on_c, 0, 98, 100
2, 177600, Note_on_c, 0, 99, 100
2, 177840, Note_on_c, 0, 61, 0
2, 177840, Note_on_c, 0, 73, 0
2, 177840, Note_on_c, 0, 86, 0
2, 177840, Note_on_c, 0, 87, 0
2, 177840, Note_on_c, 0, 98, 0
2, 177840, Note_on_c, 0, 99, 0
2, 178560, Note_on_c, 0, 61, 100
2, 178560, Note_on_c, 0, 73, 100
2, 178560, Note_on_c, 0, 86, 100
2, 178560, Note_on_c, 0, 87, 100
2, 178560, Note_on_c, 0, 98, 100
2, 178560, Note_on_c, 0, 99, 100
2, 178800, Note_on_c, 0, 61, 0
2, 178800, Note_on_c, 0, 73, 0
2, 178800, Note_on_c, 0, 86, 0
2, 178800, Note_on_c, 0, 87, 0
2, 178800, Note_on_c, 0, 98, 0
2, 178800, Note_on_c, 0, 99, 0
2, 179520, Text_t, "sing_on"
2, 179520, Note_on_c, 0, 61, 100
2, 179520, Note_on_c, 0, 73, 100
2, 179520, Note_on_c, 0, 86, 100
2, 179520, Note_on_c, 0, 87, 100
2, 179520, Note_on_c, 0, 98, 100
2, 179520, Note_on_c, 0, 99, 100
2, 179520, Note_on_c, 0, 108, 100
2, 179760, Note_on_c, 0, 61, 0
2, 179760, Note_on_c, 0, 73, 0
2, 179760, Note_on_c, 0, 86, 0
2, 179760, Note_on_c, 0, 87, 0
2, 179760, Note_on_c, 0, 98, 0
2, 179760, Note_on_c, 0, 99, 0
2, 180480, Note_on_c, 0, 61, 100
2, 180480, Note_on_c, 0, 73, 100
2, 180480, Note_on_c, 0, 86, 100
2, 180480, Note_on_c, 0, 87, 100
2, 180480, Note_on_c, 0, 98, 100
2, 180480, Note_on_c, 0, 99, 100
2, 180720, Note_on_c, 0, 61, 0
2, 180720, Note_on_c, 0, 73, 0
2, 180720, Note_on_c, 0, 86, 0
2, 180720, Note_on_c, 0, 87, 0
2, 180720, Note_on_c, 0, 98, 0
2, 180720, Note_on_c, 0, 99, 0
2, 181200, Note_on_c, 0, 108, 0
2, 181440, Note_on_c, 0, 61, 100
2, 181440, Note_on_c, 0, 73, 100
2, 181440, Note_on_c, 0, 86, 100
2, 181440, Note_on_c, 0, 87, 100
2, 181440, Note_on_c, 0, 98, 100
2, 181440, Note_on_c, 0, 99, 100
2, 181440, Note_on_c, 0, 108, 100
2, 181680, Note_on_c, 0, 61, 0
2, 181680, Note_on_c, 0, 73, 0
2, 181680, Note_on_c, 0, 86, 0
2, 181680, Note_on_c, 0, 87, 0
2, 181680, Note_on_c, 0, 98, 0
2, 181680, Note_on_c, 0, 99, 0
2, 182400, Note_on_c, 0, 61, 100
2, 182400, Note_on_c, 0, 73, 100
2, 182400, Note_on_c, 0, 86, 100
2, 182400, Note_on_c, 0, 87, 100
2, 182400, Note_on_c, 0, 98, 100
2, 182400, Note_on_c, 0, 99, 100
2, 182640, Note_on_c, 0, 61, 0
2, 182640, Note_on_c, 0, 73, 0
2, 182640, Note_on_c, 0, 86, 0
2, 182640, Note_on_c, 0, 87, 0
2, 182640, Note_on_c, 0, 98, 0
2, 182640, Note_on_c, 0, 99, 0
2, 182968, Note_on_c, 0, 86, 100
2, 183040, Note_on_c, 0, 97, 100
2, 183040, Note_on_c, 0, 98, 100
2, 183120, Note_on_c, 0, 108, 0
2, 183120, Note_on_c, 0, 72, 100
2, 183208, Note_on_c, 0, 86, 0
2, 183280, Note_on_c, 0, 97, 0
2, 183280, Note_on_c, 0, 98, 0
2, 183360, Note_on_c, 0, 72, 0
2, 183360, Note_on_c, 0, 61, 100
2, 183360, Note_on_c, 0, 73, 100
2, 183360, Note_on_c, 0, 86, 100
2, 183360, Note_on_c, 0, 87, 100
2, 183360, Note_on_c, 0, 98, 100
2, 183360, Note_on_c, 0, 99, 100
2, 183360, Note_on_c, 0, 108, 100
2, 183600, Note_on_c, 0, 61, 0
2, 183600, Note_on_c, 0, 73, 0
2, 183600, Note_on_c, 0, 86, 0
2, 183600, Note_on_c, 0, 87, 0
2, 183600, Note_on_c, 0, 98, 0
2, 183600, Note_on_c, 0, 99, 0
2, 183928, Note_on_c, 0, 86, 100
2, 183928, Note_on_c, 0, 87, 100
2, 184000, Note_on_c, 0, 61, 100
2, 184000, Note_on_c, 0, 73, 100
2, 184000, Note_on_c, 0, 98, 100
2, 184000, Note_on_c, 0, 99, 100
2, 184168, Note_on_c, 0, 86, 0
2, 184168, Note_on_c, 0, 87, 0
2, 184240, Note_on_c, 0, 61, 0
2, 184240, Note_on_c, 0, 73, 0
2, 184240, Note_on_c, 0, 98, 0
2, 184240, Note_on_c, 0, 99, 0
2, 184290, Note_on_c, 0, 70, 0
2, 184290, Note_on_c, 0, 82, 0
2, 184290, Note_on_c, 0, 94, 0
2, 184290, Note_on_c, 0, 106, 0
2, 184320, Text_t, "[verse]"
2, 184320, Note_on_c, 3, 47, 0
2, 184320, Note_on_c, 0, 60, 100
2, 184320, Note_on_c, 0, 72, 100
2, 184320, Note_on_c, 0, 84, 100
2, 184320, Note_on_c, 0, 96, 100
2, 184560, Note_on_c, 0, 60, 0
2, 184560, Note_on_c, 0, 72, 0
2, 184560, Note_on_c, 0, 84, 0
2, 184560, Note_on_c, 0, 96, 0
2, 185280, Note_on_c, 0, 108, 0
2, 185280, Note_on_c, 0, 62, 100
2, 185280, Note_on_c, 0, 72, 100
2, 185280, Note_on_c, 0, 74, 100
2, 185280, Note_on_c, 0, 85, 100
2, 185280, Note_on_c, 0, 87, 100
2, 185280, Note_on_c, 0, 97, 100
2, 185280, Note_on_c, 0, 99, 100
2, 185280, Note_on_c, 3, 49, 100
2, 185520, Note_on_c, 0, 62, 0
2, 185520, Note_on_c, 0, 72, 0
2, 185520, Note_on_c, 0, 74, 0
2, 185520, Note_on_c, 0, 85, 0
2, 185520, Note_on_c, 0, 87, 0
2, 185520, Note_on_c, 0, 97, 0
2, 185520, Note_on_c, 0, 99, 0
2, 186000, Text_t, "sing_off"
2, 186240, Note_on_c, 0, 62, 100
2, 186240, Note_on_c, 0, 74, 100
2, 186240, Note_on_c, 0, 85, 100
2, 186240, Note_on_c, 0, 87, 100
2, 186240, Note_on_c, 0, 97, 100
2, 186240, Note_on_c, 0, 99, 100
2, 186480, Note_on_c, 3, 49, 0
2, 186480, Note_on_c, 0, 62, 0
2, 186480, Note_on_c, 0, 74, 0
2, 186480, Note_on_c, 0, 85, 0
2, 186480, Note_on_c, 0, 87, 0
2, 186480, Note_on_c, 0, 97, 0
2, 186480, Note_on_c, 0, 99, 0
2, 186808, Note_on_c, 0, 86, 100
2, 186880, Note_on_c, 0, 73, 100
2, 186880, Note_on_c, 0, 98, 100
2, 187048, Note_on_c, 0, 86, 0
2, 187120, Note_on_c, 0, 73, 0
2, 187120, Note_on_c, 0, 98, 0
2, 187200, Note_on_c, 0, 60, 100
2, 187200, Note_on_c, 0, 72, 100
2, 187200, Note_on_c, 0, 85, 100
2, 187200, Note_on_c, 0, 97, 100
2, 187200, Note_on_c, 3, 47, 100
2, 187440, Note_on_c, 0, 60, 0
2, 187440, Note_on_c, 0, 72, 0
2, 187440, Note_on_c, 0, 85, 0
2, 187440, Note_on_c, 0, 97, 0
2, 187680, Note_on_c, 3, 47, 0
2, 188160, Note_on_c, 0, 62, 100
2, 188160, Note_on_c, 0, 72, 100
2, 188160, Note_on_c, 0, 74, 100
2, 188160, Note_on_c, 0, 85, 100
2, 188160, Note_on_c, 0, 87, 100
2, 188160, Note_on_c, 0, 97, 100
2, 188160, Note_on_c, 0, 99, 100
2, 188160, Note_on_c, 3, 49, 100
2, 188400, Note_on_c, 0, 62, 0
2, 188400, Note_on_c, 0, 72, 0
2, 188400, Note_on_c, 0, 74, 0
2, 188400, Note_on_c, 0, 85, 0
2, 188400, Note_on_c, 0, 87, 0
2, 188400, Note_on_c, 0, 97, 0
2, 188400, Note_on_c, 0, 99, 0
2, 189120, Note_on_c, 0, 62, 100
2, 189120, Note_on_c, 0, 74, 100
2, 189120, Note_on_c, 0, 85, 100
2, 189120, Note_on_c, 0, 87, 100
2, 189120, Note_on_c, 0, 97, 100
2, 189120, Note_on_c, 0, 99, 100
2, 189360, Note_on_c, 3, 49, 0
2, 189360, Note_on_c, 0, 62, 0
2, 189360, Note_on_c, 0, 74, 0
2, 189360, Note_on_c, 0, 85, 0
2, 189360, Note_on_c, 0, 87, 0
2, 189360, Note_on_c, 0, 97, 0
2, 189360, Note_on_c, 0, 99, 0
2, 189688, Note_on_c, 0, 85, 100
2, 189730, Note_on_c, 0, 70, 100
2, 189730, Note_on_c, 0, 82, 100
2, 189730, Note_on_c, 0, 94, 100
2, 189730, Note_on_c, 0, 106, 100
2, 189760, Note_on_c, 0, 60, 100
2, 189760, Note_on_c, 0, 73, 100
2, 189760, Note_on_c, 0, 97, 100
2, 189840, Note_on_c, 3, 48, 100
2, 189928, Note_on_c, 0, 85, 0
2, 190000, Note_on_c, 0, 60, 0
2, 190000, Note_on_c, 0, 73, 0
2, 190000, Note_on_c, 0, 97, 0
2, 190080, Note_on_c, 3, 48, 0
2, 190080, Note_on_c, 0, 62, 100
2, 190080, Note_on_c, 0, 74, 100
2, 190080, Note_on_c, 0, 87, 100
2, 190080, Note_on_c, 0, 98, 100
2, 190320, Note_on_c, 0, 87, 0
2, 190560, Note_on_c, 3, 54, 100
2, 190648, Note_on_c, 0, 88, 100
2, 190720, Note_on_c, 0, 74, 0
2, 190720, Note_on_c, 0, 98, 0
2, 190720, Note_on_c, 0, 75, 100
2, 190720, Note_on_c, 0, 100, 100
2, 190800, Note_on_c, 3, 54, 0
2, 190880, Note_on_c, 0, 62, 0
2, 190888, Note_on_c, 0, 88, 0
2, 190960, Note_on_c, 0, 75, 0
2, 190960, Note_on_c, 0, 100, 0
2, 191040, Note_on_c, 0, 61, 100
2, 191040, Note_on_c, 0, 73, 100
2, 191040, Note_on_c, 0, 86, 100
2, 191040, Note_on_c, 0, 97, 100
2, 191280, Note_on_c, 3, 47, 100
2, 191840, Note_on_c, 0, 61, 0
2, 191840, Note_on_c, 0, 73, 0
2, 191840, Note_on_c, 0, 86, 0
2, 191840, Note_on_c, 0, 97, 0
2, 191970, Note_on_c, 0, 69, 0
2, 191970, Note_on_c, 0, 81, 0
2, 191970, Note_on_c, 0, 93, 0
2, 191970, Note_on_c, 0, 105, 0
2, 192000, Note_on_c, 0, 60, 100
2, 192000, Note_on_c, 0, 72, 100
2, 192000, Note_on_c, 0, 84, 100
2, 192000, Note_on_c, 0, 96, 100
2, 192240, Note_on_c, 3, 47, 0
2, 192240, Note_on_c, 0, 60, 0
2, 192240, Note_on_c, 0, 72, 0
2, 192240, Note_on_c, 0, 84, 0
2, 192240, Note_on_c, 0, 96, 0
2, 192960, Note_on_c, 0, 62, 100
2, 192960, Note_on_c, 0, 72, 100
2, 192960, Note_on_c, 0, 74, 100
2, 192960, Note_on_c, 0, 85, 100
2, 192960, Note_on_c, 0, 87, 100
2, 192960, Note_on_c, 0, 97, 100
2, 192960, Note_on_c, 0, 99, 100
2, 192960, Note_on_c, 3, 49, 100
2, 193200, Note_on_c, 0, 62, 0
2, 193200, Note_on_c, 0, 72, 0
2, 193200, Note_on_c, 0, 74, 0
2, 193200, Note_on_c, 0, 85, 0
2, 193200, Note_on_c, 0, 87, 0
2, 193200, Note_on_c, 0, 97, 0
2, 193200, Note_on_c, 0, 99, 0
2, 193920, Note_on_c, 0, 62, 100
2, 193920, Note_on_c, 0, 74, 100
2, 193920, Note_on_c, 0, 85, 100
2, 193920, Note_on_c, 0, 87, 100
2, 193920, Note_on_c, 0, 97, 100
2, 193920, Note_on_c, 0, 99, 100
2, 194160, Note_on_c, 3, 49, 0
2, 194160, Note_on_c, 0, 62, 0
2, 194160, Note_on_c, 0, 74, 0
2, 194160, Note_on_c, 0, 85, 0
2, 194160, Note_on_c, 0, 87, 0
2, 194160, Note_on_c, 0, 97, 0
2, 194160, Note_on_c, 0, 99, 0
2, 194488, Note_on_c, 0, 86, 100
2, 194560, Note_on_c, 0, 73, 100
2, 194560, Note_on_c, 0, 98, 100
2, 194728, Note_on_c, 0, 86, 0
2, 194800, Note_on_c, 0, 73, 0
2, 194800, Note_on_c, 0, 98, 0
2, 194880, Note_on_c, 0, 60, 100
2, 194880, Note_on_c, 0, 72, 100
2, 194880, Note_on_c, 0, 85, 100
2, 194880, Note_on_c, 0, 97, 100
2, 194880, Note_on_c, 3, 47, 100
2, 195120, Note_on_c, 0, 60, 0
2, 195120, Note_on_c, 0, 72, 0
2, 195120, Note_on_c, 0, 85, 0
2, 195120, Note_on_c, 0, 97, 0
2, 195360, Note_on_c, 3, 47, 0
2, 195840, Text_t, "[section chorus_1]"
2, 195840, Note_on_c, 0, 62, 100
2, 195840, Note_on_c, 0, 72, 100
2, 195840, Note_on_c, 0, 74, 100
2, 195840, Note_on_c, 0, 85, 100
2, 195840, Note_on_c, 0, 87, 100
2, 195840, Note_on_c, 0, 97, 100
2, 195840, Note_on_c, 0, 99, 100
2, 195840, Note_on_c, 3, 49, 100
2, 196080, Note_on_c, 0, 62, 0
2, 196080, Note_on_c, 0, 72, 0
2, 196080, Note_on_c, 0, 74, 0
2, 196080, Note_on_c, 0, 85, 0
2, 196080, Note_on_c, 0, 87, 0
2, 196080, Note_on_c, 0, 97, 0
2, 196080, Note_on_c, 0, 99, 0
2, 196800, Note_on_c, 0, 62, 100
2, 196800, Note_on_c, 0, 74, 100
2, 196800, Note_on_c, 0, 85, 100
2, 196800, Note_on_c, 0, 87, 100
2, 196800, Note_on_c, 0, 97, 100
2, 196800, Note_on_c, 0, 99, 100
2, 197040, Note_on_c, 3, 49, 0
2, 197040, Note_on_c, 0, 62, 0
2, 197040, Note_on_c, 0, 74, 0
2, 197040, Note_on_c, 0, 85, 0
2, 197040, Note_on_c, 0, 87, 0
2, 197040, Note_on_c, 0, 97, 0
2, 197040, Note_on_c, 0, 99, 0
2, 197368, Note_on_c, 0, 86, 100
2, 197440, Note_on_c, 0, 73, 100
2, 197440, Note_on_c, 0, 98, 100
2, 197608, Note_on_c, 0, 86, 0
2, 197680, Note_on_c, 0, 73, 0
2, 197680, Note_on_c, 0, 98, 0
2, 197760, Note_on_c, 0, 60, 100
2, 197760, Note_on_c, 0, 72, 100
2, 197760, Note_on_c, 0, 85, 100
2, 197760, Note_on_c, 0, 97, 100
2, 197760, Note_on_c, 3, 47, 100
2, 198000, Note_on_c, 0, 60, 0
2, 198000, Note_on_c, 0, 72, 0
2, 198000, Note_on_c, 0, 85, 0
2, 198000, Note_on_c, 0, 97, 0
2, 198240, Note_on_c, 3, 47, 0
2, 198240, Note_on_c, 0, 108, 100
2, 198370, Note_on_c, 0, 69, 100
2, 198370, Note_on_c, 0, 81, 100
2, 198370, Note_on_c, 0, 93, 100
2, 198370, Note_on_c, 0, 105, 100
2, 198400, Note_on_c, 0, 97, 100
2, 198480, Note_on_c, 3, 52, 100
2, 198520, Note_on_c, 0, 108, 0
2, 198640, Note_on_c, 0, 97, 0
2, 198720, Text_t, "sing_on"
2, 198720, Note_on_c, 3, 52, 0
2, 198720, Note_on_c, 0, 61, 100
2, 198720, Note_on_c, 0, 73, 100
2, 198720, Note_on_c, 0, 86, 100
2, 198720, Note_on_c, 0, 98, 100
2, 198720, Note_on_c, 0, 108, 100
2, 199360, Note_on_c, 0, 86, 0
2, 199480, Note_on_c, 0, 108, 0
2, 199520, Note_on_c, 0, 61, 0
2, 199520, Note_on_c, 0, 73, 0
2, 199650, Note_on_c, 0, 70, 0
2, 199650, Note_on_c, 0, 82, 0
2, 199650, Note_on_c, 0, 94, 0
2, 199650, Note_on_c, 0, 106, 0
2, 199680, Text_t, "[chorus]"
2, 199680, Text_t, "drum_double"
2, 199680, Note_on_c, 0, 98, 0
2, 199680, Note_on_c, 0, 60, 100
2, 199680, Note_on_c, 0, 72, 100
2, 199680, Note_on_c, 0, 84, 100
2, 199680, Note_on_c, 0, 96, 100
2, 199680, Note_on_c, 0, 108, 100
2, 199680, Note_on_c, 3, 46, 100
2, 200320, Note_on_c, 0, 96, 0
2, 200320, Note_on_c, 0, 96, 100
2, 200400, Note_on_c, 3, 46, 0
2, 200480, Note_on_c, 0, 60, 0
2, 200480, Note_on_c, 0, 72, 0
2, 200480, Note_on_c, 0, 96, 0
2, 200640, Note_on_c, 0, 84, 0
2, 200640, Note_on_c, 0, 61, 100
2, 200640, Note_on_c, 0, 73, 100
2, 200640, Note_on_c, 0, 85, 100
2, 200640, Note_on_c, 0, 97, 100
2, 200640, Note_on_c, 3, 48, 100
2, 201280, Note_on_c, 0, 97, 0
2, 201280, Note_on_c, 0, 97, 100
2, 201360, Note_on_c, 3, 48, 0
2, 201400, Note_on_c, 0, 108, 0
2, 201440, Note_on_c, 0, 61, 0
2, 201440, Note_on_c, 0, 73, 0
2, 201440, Note_on_c, 0, 97, 0
2, 201600, Note_on_c, 0, 85, 0
2, 201600, Note_on_c, 0, 62, 100
2, 201600, Note_on_c, 0, 74, 100
2, 201600, Note_on_c, 0, 86, 100
2, 201600, Note_on_c, 0, 98, 100
2, 201600, Note_on_c, 0, 108, 100
2, 201600, Note_on_c, 3, 49, 100
2, 202240, Note_on_c, 0, 98, 0
2, 202240, Note_on_c, 0, 98, 100
2, 202320, Note_on_c, 3, 49, 0
2, 202400, Note_on_c, 0, 62, 0
2, 202400, Note_on_c, 0, 74, 0
2, 202400, Note_on_c, 0, 98, 0
2, 202560, Note_on_c, 0, 86, 0
2, 202560, Note_on_c, 0, 60, 100
2, 202560, Note_on_c, 0, 72, 100
2, 202560, Note_on_c, 0, 85, 100
2, 202560, Note_on_c, 0, 97, 100
2, 202560, Note_on_c, 3, 48, 100
2, 203200, Note_on_c, 0, 97, 0
2, 203200, Note_on_c, 0, 97, 100
2, 203280, Note_on_c, 3, 48, 0
2, 203320, Note_on_c, 0, 108, 0
2, 203360, Note_on_c, 0, 60, 0
2, 203360, Note_on_c, 0, 72, 0
2, 203360, Note_on_c, 0, 97, 0
2, 203520, Note_on_c, 0, 85, 0
2, 203520, Note_on_c, 0, 61, 100
2, 203520, Note_on_c, 0, 74, 100
2, 203520, Note_on_c, 0, 87, 100
2, 203520, Note_on_c, 0, 99, 100
2, 203520, Note_on_c, 0, 108, 100
2, 203520, Note_on_c, 3, 51, 100
2, 204160, Note_on_c, 0, 99, 0
2, 204160, Note_on_c, 0, 99, 100
2, 204238, Note_on_c, 3, 51, 0
2, 204316, Note_on_c, 0, 99, 0
2, 204320, Note_on_c, 0, 61, 0
2, 204320, Note_on_c, 0, 74, 0
2, 204478, Note_on_c, 3, 49, 100
2, 204480, Note_on_c, 0, 87, 0
2, 204480, Note_on_c, 0, 60, 100
2, 204480, Note_on_c, 0, 73, 100
2, 204480, Note_on_c, 0, 86, 100
2, 204480, Note_on_c, 0, 98, 100
2, 205120, Note_on_c, 0, 98, 0
2, 205120, Note_on_c, 0, 98, 100
2, 205154, Note_on_c, 0, 108, 0
2, 205198, Note_on_c, 3, 49, 0
2, 205280, Note_on_c, 0, 98, 0
2, 205282, Note_on_c, 0, 60, 0
2, 205282, Note_on_c, 0, 73, 0
2, 205438, Note_on_c, 3, 53, 100
2, 205440, Note_on_c, 0, 86, 0
2, 205440, Note_on_c, 0, 62, 100
2, 205440, Note_on_c, 0, 75, 100
2, 205440, Note_on_c, 0, 88, 100
2, 205440, Note_on_c, 0, 100, 100
2, 205440, Note_on_c, 0, 108, 100
2, 206080, Note_on_c, 0, 100, 0
2, 206080, Note_on_c, 0, 100, 100
2, 206158, Note_on_c, 3, 53, 0
2, 206240, Note_on_c, 0, 100, 0
2, 206242, Note_on_c, 0, 62, 0
2, 206242, Note_on_c, 0, 75, 0
2, 206398, Note_on_c, 3, 51, 100
2, 206400, Note_on_c, 0, 88, 0
2, 206400, Note_on_c, 0, 61, 100
2, 206400, Note_on_c, 0, 74, 100
2, 206400, Note_on_c, 0, 87, 100
2, 206400, Note_on_c, 0, 99, 100
2, 206640, Note_on_c, 0, 87, 0
2, 206968, Note_on_c, 0, 84, 100
2, 207010, Note_on_c, 0, 70, 100
2, 207010, Note_on_c, 0, 82, 100
2, 207010, Note_on_c, 0, 94, 100
2, 207010, Note_on_c, 0, 106, 100
2, 207040, Note_on_c, 0, 99, 0
2, 207040, Note_on_c, 0, 96, 100
2, 207118, Note_on_c, 3, 51, 0
2, 207128, Note_on_c, 0, 84, 0
2, 207160, Note_on_c, 0, 108, 0
2, 207200, Note_on_c, 0, 74, 0
2, 207200, Note_on_c, 0, 96, 0
2, 207202, Note_on_c, 0, 61, 0
2, 207358, Text_t, "[lighting (sweep)]"
2, 207358, Note_on_c, 3, 43, 100
2, 207360, Text_t, "drum_normal"
2, 207360, Note_on_c, 0, 60, 100
2, 207360, Note_on_c, 0, 72, 100
2, 207360, Note_on_c, 0, 73, 100
2, 207360, Note_on_c, 0, 84, 100
2, 207360, Note_on_c, 0, 85, 100
2, 207360, Note_on_c, 0, 96, 100
2, 207360, Note_on_c, 0, 97, 100
2, 207360, Note_on_c, 0, 108, 100
2, 207480, Note_on_c, 0, 60, 0
2, 207480, Note_on_c, 0, 72, 0
2, 207480, Note_on_c, 0, 73, 0
2, 207600, Note_on_c, 0, 84, 0
2, 207600, Note_on_c, 0, 85, 0
2, 207600, Note_on_c, 0, 96, 0
2, 207600, Note_on_c, 0, 97, 0
2, 207928, Note_on_c, 0, 84, 100
2, 208000, Note_on_c, 0, 96, 100
2, 208168, Note_on_c, 0, 84, 0
2, 208240, Note_on_c, 0, 96, 0
2, 208320, Note_on_c, 0, 60, 100
2, 208320, Note_on_c, 0, 72, 100
2, 208320, Note_on_c, 0, 73, 100
2, 208320, Note_on_c, 0, 84, 100
2, 208320, Note_on_c, 0, 85, 100
2, 208320, Note_on_c, 0, 96, 100
2, 208320, Note_on_c, 0, 97, 100
2, 208440, Note_on_c, 0, 60, 0
2, 208440, Note_on_c, 0, 72, 0
2, 208440, Note_on_c, 0, 73, 0
2, 208560, Note_on_c, 0, 84, 0
2, 208560, Note_on_c, 0, 85, 0
2, 208560, Note_on_c, 0, 96, 0
2, 208560, Note_on_c, 0, 97, 0
2, 208888, Note_on_c, 0, 84, 100
2, 208960, Note_on_c, 0, 96, 100
2, 209128, Note_on_c, 0, 84, 0
2, 209200, Note_on_c, 0, 96, 0
2, 209280, Note_on_c, 0, 60, 100
2, 209280, Note_on_c, 0, 72, 100
2, 209280, Note_on_c, 0, 73, 100
2, 209280, Note_on_c, 0, 84, 100
2, 209280, Note_on_c, 0, 85, 100
2, 209280, Note_on_c, 0, 96, 100
2, 209280, Note_on_c, 0, 97, 100
2, 209400, Note_on_c, 0, 60, 0
2, 209400, Note_on_c, 0, 72, 0
2, 209400, Note_on_c, 0, 73, 0
2, 209520, Note_on_c, 0, 84, 0
2, 209520, Note_on_c, 0, 85, 0
2, 209520, Note_on_c, 0, 96, 0
2, 209520, Note_on_c, 0, 97, 0
2, 209848, Note_on_c, 0, 84, 100
2, 209920, Note_on_c, 0, 96, 100
2, 210088, Note_on_c, 0, 84, 0
2, 210160, Note_on_c, 0, 96, 0
2, 210240, Note_on_c, 0, 60, 100
2, 210240, Note_on_c, 0, 72, 100
2, 210240, Note_on_c, 0, 73, 100
2, 210240, Note_on_c, 0, 84, 100
2, 210240, Note_on_c, 0, 85, 100
2, 210240, Note_on_c, 0, 96, 100
2, 210240, Note_on_c, 0, 97, 100
2, 210280, Note_on_c, 0, 108, 0
2, 210360, Note_on_c, 0, 60, 0
2, 210360, Note_on_c, 0, 72, 0
2, 210360, Note_on_c, 0, 73, 0
2, 210480, Note_on_c, 0, 84, 0
2, 210480, Note_on_c, 0, 85, 0
2, 210480, Note_on_c, 0, 96, 0
2, 210480, Note_on_c, 0, 97, 0
2, 210780, Note_on_c, 0, 67, 100
2, 210780, Note_on_c, 0, 79, 100
2, 210780, Note_on_c, 0, 91, 100
2, 210780, Note_on_c, 0, 103, 100
2, 210808, Note_on_c, 0, 84, 100
2, 210880, Note_on_c, 0, 96, 100
2, 211048, Note_on_c, 0, 84, 0
2, 211120, Note_on_c, 0, 96, 0
2, 211200, Note_on_c, 0, 60, 100
2, 211200, Note_on_c, 0, 72, 100
2, 211200, Note_on_c, 0, 73, 100
2, 211200, Note_on_c, 0, 84, 100
2, 211200, Note_on_c, 0, 85, 100
2, 211200, Note_on_c, 0, 96, 100
2, 211200, Note_on_c, 0, 97, 100
2, 211320, Note_on_c, 0, 60, 0
2, 211320, Note_on_c, 0, 72, 0
2, 211320, Note_on_c, 0, 73, 0
2, 211440, Note_on_c, 0, 84, 0
2, 211440, Note_on_c, 0, 85, 0
2, 211440, Note_on_c, 0, 96, 0
2, 211440, Note_on_c, 0, 97, 0
2, 211768, Note_on_c, 0, 84, 100
2, 211840, Note_on_c, 0, 96, 100
2, 212008, Note_on_c, 0, 84, 0
2, 212080, Note_on_c, 0, 96, 0
2, 212160, Note_on_c, 0, 60, 100
2, 212160, Note_on_c, 0, 72, 100
2, 212160, Note_on_c, 0, 73, 100
2, 212160, Note_on_c, 0, 84, 100
2, 212160, Note_on_c, 0, 85, 100
2, 212160, Note_on_c, 0, 96, 100
2, 212160, Note_on_c, 0, 97, 100
2, 212280, Note_on_c, 0, 60, 0
2, 212280, Note_on_c, 0, 72, 0
2, 212280, Note_on_c, 0, 73, 0
2, 212400, Note_on_c, 0, 84, 0
2, 212400, Note_on_c, 0, 85, 0
2, 212400, Note_on_c, 0, 96, 0
2, 212400, Note_on_c, 0, 97, 0
2, 212728, Note_on_c, 0, 84, 100
2, 212800, Note_on_c, 0, 96, 100
2, 212968, Note_on_c, 0, 84, 0
2, 213040, Note_on_c, 0, 96, 0
2, 213120, Note_on_c, 0, 60, 100
2, 213120, Note_on_c, 0, 72, 100
2, 213120, Note_on_c, 0, 73, 100
2, 213120, Note_on_c, 0, 84, 100
2, 213120, Note_on_c, 0, 85, 100
2, 213120, Note_on_c, 0, 96, 100
2, 213120, Note_on_c, 0, 97, 100
2, 213240, Note_on_c, 0, 60, 0
2, 213240, Note_on_c, 0, 72, 0
2, 213240, Note_on_c, 0, 73, 0
2, 213360, Note_on_c, 0, 84, 0
2, 213360, Note_on_c, 0, 85, 0
2, 213360, Note_on_c, 0, 96, 0
2, 213360, Note_on_c, 0, 97, 0
2, 213600, Note_on_c, 0, 108, 100
2, 213688, Note_on_c, 0, 84, 100
2, 213760, Note_on_c, 0, 96, 100
2, 213880, Note_on_c, 0, 108, 0
2, 213928, Note_on_c, 0, 84, 0
2, 214000, Note_on_c, 0, 96, 0
2, 214080, Note_on_c, 0, 60, 100
2, 214080, Note_on_c, 0, 72, 100
2, 214080, Note_on_c, 0, 73, 100
2, 214080, Note_on_c, 0, 84, 100
2, 214080, Note_on_c, 0, 85, 100
2, 214080, Note_on_c, 0, 96, 100
2, 214080, Note_on_c, 0, 97, 100
2, 214080, Note_on_c, 0, 108, 100
2, 214200, Note_on_c, 0, 60, 0
2, 214200, Note_on_c, 0, 72, 0
2, 214200, Note_on_c, 0, 73, 0
2, 214320, Note_on_c, 0, 84, 0
2, 214320, Note_on_c, 0, 85, 0
2, 214320, Note_on_c, 0, 96, 0
2, 214320, Note_on_c, 0, 97, 0
2, 214440, Note_on_c, 0, 67, 0
2, 214440, Note_on_c, 0, 79, 0
2, 214440, Note_on_c, 0, 91, 0
2, 214440, Note_on_c, 0, 103, 0
2, 214648, Note_on_c, 0, 84, 100
2, 214720, Note_on_c, 0, 96, 100
2, 214770, Note_on_c, 0, 69, 0
2, 214770, Note_on_c, 0, 81, 0
2, 214770, Note_on_c, 0, 93, 0
2, 214770, Note_on_c, 0, 105, 0
2, 214798, Note_on_c, 3, 43, 0
2, 214840, Note_on_c, 0, 108, 0
2, 214888, Note_on_c, 0, 84, 0
2, 214960, Note_on_c, 0, 96, 0
2, 215040, Text_t, "HandMap_AllChords"
2, 215040, Text_t, "drum_double"
2, 215040, Note_on_c, 0, 60, 100
2, 215040, Note_on_c, 0, 72, 100
2, 215040, Note_on_c, 0, 84, 100
2, 215040, Note_on_c, 0, 96, 100
2, 215040, Note_on_c, 0, 108, 100
2, 215040, Note_on_c, 3, 46, 100
2, 215680, Note_on_c, 0, 96, 0
2, 215680, Note_on_c, 0, 96, 100
2, 215760, Note_on_c, 3, 46, 0
2, 215836, Note_on_c, 0, 60, 0
2, 215840, Note_on_c, 0, 72, 0
2, 215840, Note_on_c, 0, 96, 0
2, 216000, Note_on_c, 0, 84, 0
2, 216000, Note_on_c, 0, 61, 100
2, 216000, Note_on_c, 0, 73, 100
2, 216000, Note_on_c, 0, 85, 100
2, 216000, Note_on_c, 0, 97, 100
2, 216000, Note_on_c, 3, 48, 100
2, 216640, Note_on_c, 0, 97, 0
2, 216640, Note_on_c, 0, 97, 100
2, 216720, Note_on_c, 3, 48, 0
2, 216760, Note_on_c, 0, 108, 0
2, 216796, Note_on_c, 0, 61, 0
2, 216800, Note_on_c, 0, 73, 0
2, 216800, Note_on_c, 0, 97, 0
2, 216960, Note_on_c, 0, 85, 0
2, 216960, Note_on_c, 0, 62, 100
2, 216960, Note_on_c, 0, 74, 100
2, 216960, Note_on_c, 0, 86, 100
2, 216960, Note_on_c, 0, 98, 100
2, 216960, Note_on_c, 0, 108, 100
2, 216960, Note_on_c, 3, 49, 100
2, 217600, Note_on_c, 0, 98, 0
2, 217600, Note_on_c, 0, 98, 100
2, 217680, Note_on_c, 3, 49, 0
2, 217756, Note_on_c, 0, 62, 0
2, 217760, Note_on_c, 0, 74, 0
2, 217760, Note_on_c, 0, 98, 0
2, 217920, Note_on_c, 0, 86, 0
2, 217920, Note_on_c, 0, 60, 100
2, 217920, Note_on_c, 0, 72, 100
2, 217920, Note_on_c, 0, 85, 100
2, 217920, Note_on_c, 0, 97, 100
2, 217920, Note_on_c, 3, 48, 100
2, 218560, Note_on_c, 0, 97, 0
2, 218560, Note_on_c, 0, 97, 100
2, 218640, Note_on_c, 3, 48, 0
2, 218680, Note_on_c, 0, 108, 0
2, 218716, Note_on_c, 0, 60, 0
2, 218716, Note_on_c, 0, 97, 0
2, 218720, Note_on_c, 0, 72, 0
2, 218880, Note_on_c, 0, 85, 0
2, 218880, Note_on_c, 0, 61, 100
2, 218880, Note_on_c, 0, 74, 100
2, 218880, Note_on_c, 0, 87, 100
2, 218880, Note_on_c, 0, 99, 100
2, 218880, Note_on_c, 0, 108, 100
2, 218880, Note_on_c, 3, 51, 100
2, 219520, Note_on_c, 0, 99, 0
2, 219520, Note_on_c, 0, 99, 100
2, 219596, Note_on_c, 3, 51, 0
2, 219680, Note_on_c, 0, 61, 0
2, 219680, Note_on_c, 0, 99, 0
2, 219684, Note_on_c, 0, 74, 0
2, 219840, Note_on_c, 0, 87, 0
2, 219840, Note_on_c, 0, 60, 100
2, 219840, Note_on_c, 0, 73, 100
2, 219840, Note_on_c, 0, 86, 100
2, 219840, Note_on_c, 0, 98, 100
2, 219840, Note_on_c, 3, 49, 100
2, 220480, Note_on_c, 0, 98, 0
2, 220480, Note_on_c, 0, 98, 100
2, 220518, Note_on_c, 0, 108, 0
2, 220560, Note_on_c, 3, 49, 0
2, 220640, Note_on_c, 0, 60, 0
2, 220640, Note_on_c, 0, 98, 0
2, 220644, Note_on_c, 0, 73, 0
2, 220800, Note_on_c, 0, 86, 0
2, 220800, Note_on_c, 0, 62, 100
2, 220800, Note_on_c, 0, 75, 100
2, 220800, Note_on_c, 0, 88, 100
2, 220800, Note_on_c, 0, 100, 100
2, 220800, Note_on_c, 0, 108, 100
2, 220800, Note_on_c, 3, 53, 100
2, 221440, Note_on_c, 0, 100, 0
2, 221440, Note_on_c, 0, 100, 100
2, 221520, Note_on_c, 3, 53, 0
2, 221600, Note_on_c, 0, 62, 0
2, 221600, Note_on_c, 0, 100, 0
2, 221604, Note_on_c, 0, 75, 0
2, 221760, Note_on_c, 0, 88, 0
2, 221760, Note_on_c, 0, 61, 100
2, 221760, Note_on_c, 0, 74, 100
2, 221760, Note_on_c, 0, 87, 100
2, 221760, Note_on_c, 0, 99, 100
2, 221760, Note_on_c, 3, 51, 100
2, 222000, Note_on_c, 0, 87, 0
2, 222328, Note_on_c, 0, 84, 100
2, 222370, Note_on_c, 0, 69, 100
2, 222370, Note_on_c, 0, 81, 100
2, 222370, Note_on_c, 0, 93, 100
2, 222370, Note_on_c, 0, 105, 100
2, 222400, Note_on_c, 0, 99, 0
2, 222400, Note_on_c, 0, 96, 100
2, 222480, Note_on_c, 3, 51, 0
2, 222488, Note_on_c, 0, 84, 0
2, 222520, Note_on_c, 0, 108, 0
2, 222560, Note_on_c, 0, 61, 0
2, 222560, Note_on_c, 0, 74, 0
2, 222560, Note_on_c, 0, 96, 0
2, 222720, Text_t, "HandMap_Default"
2, 222720, Text_t, "drum_normal"
2, 222720, Note_on_c, 0, 60, 100
2, 222720, Note_on_c, 0, 72, 100
2, 222720, Note_on_c, 0, 73, 100
2, 222720, Note_on_c, 0, 84, 100
2, 222720, Note_on_c, 0, 85, 100
2, 222720, Note_on_c, 0, 96, 100
2, 222720, Note_on_c, 0, 97, 100
2, 222720, Note_on_c, 0, 108, 100
2, 222720, Note_on_c, 3, 43, 100
2, 222840, Note_on_c, 0, 60, 0
2, 222840, Note_on_c, 0, 72, 0
2, 222840, Note_on_c, 0, 73, 0
2, 222960, Note_on_c, 0, 84, 0
2, 222960, Note_on_c, 0, 85, 0
2, 222960, Note_on_c, 0, 96, 0
2, 222960, Note_on_c, 0, 97, 0
2, 223288, Note_on_c, 0, 84, 100
2, 223360, Note_on_c, 0, 96, 100
2, 223528, Note_on_c, 0, 84, 0
2, 223600, Note_on_c, 0, 96, 0
2, 223680, Note_on_c, 0, 60, 100
2, 223680, Note_on_c, 0, 72, 100
2, 223680, Note_on_c, 0, 73, 100
2, 223680, Note_on_c, 0, 84, 100
2, 223680, Note_on_c, 0, 85, 100
2, 223680, Note_on_c, 0, 96, 100
2, 223680, Note_on_c, 0, 97, 100
2, 223800, Note_on_c, 0, 60, 0
2, 223804, Note_on_c, 0, 72, 0
2, 223804, Note_on_c, 0, 73, 0
2, 223920, Note_on_c, 0, 84, 0
2, 223920, Note_on_c, 0, 85, 0
2, 223920, Note_on_c, 0, 96, 0
2, 223920, Note_on_c, 0, 97, 0
2, 224248, Note_on_c, 0, 84, 100
2, 224320, Note_on_c, 0, 96, 100
2, 224488, Note_on_c, 0, 84, 0
2, 224560, Note_on_c, 0, 96, 0
2, 224640, Note_on_c, 0, 60, 100
2, 224640, Note_on_c, 0, 72, 100
2, 224640, Note_on_c, 0, 73, 100
2, 224640, Note_on_c, 0, 84, 100
2, 224640, Note_on_c, 0, 85, 100
2, 224640, Note_on_c, 0, 96, 100
2, 224640, Note_on_c, 0, 97, 100
2, 224764, Note_on_c, 0, 60, 0
2, 224764, Note_on_c, 0, 72, 0
2, 224764, Note_on_c, 0, 73, 0
2, 224880, Note_on_c, 0, 84, 0
2, 224880, Note_on_c, 0, 85, 0
2, 224880, Note_on_c, 0, 96, 0
2, 224880, Note_on_c, 0, 97, 0
2, 225208, Note_on_c, 0, 84, 100
2, 225280, Note_on_c, 0, 96, 100
2, 225448, Note_on_c, 0, 84, 0
2, 225520, Note_on_c, 0, 96, 0
2, 225600, Note_on_c, 0, 60, 100
2, 225600, Note_on_c, 0, 72, 100
2, 225600, Note_on_c, 0, 73, 100
2, 225600, Note_on_c, 0, 84, 100
2, 225600, Note_on_c, 0, 85, 100
2, 225600, Note_on_c, 0, 96, 100
2, 225600, Note_on_c, 0, 97, 100
2, 225640, Note_on_c, 0, 108, 0
2, 225724, Note_on_c, 0, 60, 0
2, 225724, Note_on_c, 0, 72, 0
2, 225724, Note_on_c, 0, 73, 0
2, 225840, Note_on_c, 0, 84, 0
2, 225840, Note_on_c, 0, 85, 0
2, 225840, Note_on_c, 0, 96, 0
2, 225840, Note_on_c, 0, 97, 0
2, 226168, Note_on_c, 0, 84, 100
2, 226240, Note_on_c, 0, 96, 100
2, 226408, Note_on_c, 0, 84, 0
2, 226480, Note_on_c, 0, 96, 0
2, 226560, Note_on_c, 0, 60, 100
2, 226560, Note_on_c, 0, 72, 100
2, 226560, Note_on_c, 0, 73, 100
2, 226560, Note_on_c, 0, 84, 100
2, 226560, Note_on_c, 0, 85, 100
2, 226560, Note_on_c, 0, 96, 100
2, 226560, Note_on_c, 0, 97, 100
2, 226682, Note_on_c, 0, 60, 0
2, 226682, Note_on_c, 0, 72, 0
2, 226682, Note_on_c, 0, 73, 0
2, 226800, Note_on_c, 0, 84, 0
2, 226800, Note_on_c, 0, 85, 0
2, 226800, Note_on_c, 0, 96, 0
2, 226800, Note_on_c, 0, 97, 0
2, 227128, Note_on_c, 0, 84, 100
2, 227200, Note_on_c, 0, 96, 100
2, 227368, Note_on_c, 0, 84, 0
2, 227440, Note_on_c, 0, 96, 0
2, 227520, Note_on_c, 0, 60, 100
2, 227520, Note_on_c, 0, 72, 100
2, 227520, Note_on_c, 0, 73, 100
2, 227520, Note_on_c, 0, 84, 100
2, 227520, Note_on_c, 0, 85, 100
2, 227520, Note_on_c, 0, 96, 100
2, 227520, Note_on_c, 0, 97, 100
2, 227642, Note_on_c, 0, 60, 0
2, 227642, Note_on_c, 0, 72, 0
2, 227642, Note_on_c, 0, 73, 0
2, 227760, Note_on_c, 0, 84, 0
2, 227760, Note_on_c, 0, 85, 0
2, 227760, Note_on_c, 0, 96, 0
2, 227760, Note_on_c, 0, 97, 0
2, 228088, Note_on_c, 0, 84, 100
2, 228160, Note_on_c, 0, 96, 100
2, 228328, Note_on_c, 0, 84, 0
2, 228400, Note_on_c, 0, 96, 0
2, 228480, Note_on_c, 0, 60, 100
2, 228480, Note_on_c, 0, 72, 100
2, 228480, Note_on_c, 0, 73, 100
2, 228480, Note_on_c, 0, 84, 100
2, 228480, Note_on_c, 0, 85, 100
2, 228480, Note_on_c, 0, 96, 100
2, 228480, Note_on_c, 0, 97, 100
2, 228602, Note_on_c, 0, 60, 0
2, 228602, Note_on_c, 0, 72, 0
2, 228602, Note_on_c, 0, 73, 0
2, 228720, Note_on_c, 0, 84, 0
2, 228720, Note_on_c, 0, 85, 0
2, 228720, Note_on_c, 0, 96, 0
2, 228720, Note_on_c, 0, 97, 0
2, 228960, Note_on_c, 0, 108, 100
2, 229048, Note_on_c, 0, 84, 100
2, 229120, Note_on_c, 0, 96, 100
2, 229240, Note_on_c, 0, 108, 0
2, 229288, Note_on_c, 0, 84, 0
2, 229360, Note_on_c, 0, 96, 0
2, 229440, Note_on_c, 0, 60, 100
2, 229440, Note_on_c, 0, 72, 100
2, 229440, Note_on_c, 0, 73, 100
2, 229440, Note_on_c, 0, 84, 100
2, 229440, Note_on_c, 0, 85, 100
2, 229440, Note_on_c, 0, 96, 100
2, 229440, Note_on_c, 0, 97, 100
2, 229440, Note_on_c, 0, 108, 100
2, 229562, Note_on_c, 0, 60, 0
2, 229562, Note_on_c, 0, 72, 0
2, 229562, Note_on_c, 0, 73, 0
2, 229680, Note_on_c, 0, 84, 0
2, 229680, Note_on_c, 0, 85, 0
2, 229680, Note_on_c, 0, 96, 0
2, 229680, Note_on_c, 0, 97, 0
2, 230008, Note_on_c, 0, 84, 100
2, 230050, Note_on_c, 0, 70, 0
2, 230050, Note_on_c, 0, 82, 0
2, 230050, Note_on_c, 0, 94, 0
2, 230050, Note_on_c, 0, 106, 0
2, 230080, Note_on_c, 0, 96, 100
2, 230160, Note_on_c, 3, 43, 0
2, 230200, Note_on_c, 0, 108, 0
2, 230248, Note_on_c, 0, 84, 0
2, 230320, Note_on_c, 0, 96, 0
2, 230400, Text_t, "HandMap_AllChords"
2, 230400, Text_t, "drum_double"
2, 230400, Note_on_c, 0, 62, 100
2, 230400, Note_on_c, 0, 75, 100
2, 230400, Note_on_c, 0, 87, 100
2, 230400, Note_on_c, 0, 99, 100
2, 230400, Note_on_c, 0, 108, 100
2, 230400, Note_on_c, 3, 49, 100
2, 231040, Note_on_c, 0, 99, 0
2, 231040, Note_on_c, 0, 99, 100
2, 231120, Note_on_c, 3, 49, 0
2, 231200, Note_on_c, 0, 62, 0
2, 231200, Note_on_c, 0, 75, 0
2, 231200, Note_on_c, 0, 99, 0
2, 231360, Note_on_c, 0, 87, 0
2, 231360, Note_on_c, 0, 61, 100
2, 231360, Note_on_c, 0, 74, 100
2, 231360, Note_on_c, 0, 86, 100
2, 231360, Note_on_c, 0, 98, 100
2, 231360, Note_on_c, 3, 48, 100
2, 232000, Note_on_c, 0, 98, 0
2, 232000, Note_on_c, 0, 98, 100
2, 232080, Note_on_c, 3, 48, 0
2, 232120, Note_on_c, 0, 108, 0
2, 232160, Note_on_c, 0, 61, 0
2, 232160, Note_on_c, 0, 74, 0
2, 232160, Note_on_c, 0, 98, 0
2, 232320, Note_on_c, 0, 86, 0
2, 232320, Note_on_c, 0, 60, 100
2, 232320, Note_on_c, 0, 73, 100
2, 232320, Note_on_c, 0, 85, 100
2, 232320, Note_on_c, 0, 97, 100
2, 232320, Note_on_c, 0, 108, 100
2, 232320, Note_on_c, 3, 46, 100
2, 232960, Note_on_c, 0, 97, 0
2, 232960, Note_on_c, 0, 97, 100
2, 233040, Note_on_c, 3, 46, 0
2, 233120, Note_on_c, 0, 60, 0
2, 233120, Note_on_c, 0, 73, 0
2, 233120, Note_on_c, 0, 97, 0
2, 233280, Note_on_c, 0, 85, 0
2, 233280, Note_on_c, 0, 61, 100
2, 233280, Note_on_c, 0, 72, 100
2, 233280, Note_on_c, 0, 84, 100
2, 233280, Note_on_c, 0, 96, 100
2, 233280, Note_on_c, 3, 45, 100
2, 233920, Note_on_c, 0, 96, 0
2, 233920, Note_on_c, 0, 96, 100
2, 234000, Note_on_c, 3, 45, 0
2, 234040, Note_on_c, 0, 108, 0
2, 234080, Note_on_c, 0, 61, 0
2, 234080, Note_on_c, 0, 72, 0
2, 234080, Note_on_c, 0, 96, 0
2, 234240, Note_on_c, 0, 84, 0
2, 234240, Note_on_c, 0, 60, 100
2, 234240, Note_on_c, 0, 73, 100
2, 234240, Note_on_c, 0, 85, 100
2, 234240, Note_on_c, 0, 97, 100
2, 234240, Note_on_c, 0, 108, 100
2, 234240, Note_on_c, 3, 46, 100
2, 234880, Note_on_c, 0, 97, 0
2, 234880, Note_on_c, 0, 97, 100
2, 234960, Note_on_c, 3, 46, 0
2, 235040, Note_on_c, 0, 60, 0
2, 235040, Note_on_c, 0, 73, 0
2, 235040, Note_on_c, 0, 97, 0
2, 235200, Note_on_c, 0, 85, 0
2, 235200, Note_on_c, 0, 61, 100
2, 235200, Note_on_c, 0, 74, 100
2, 235200, Note_on_c, 0, 86, 100
2, 235200, Note_on_c, 0, 98, 100
2, 235200, Note_on_c, 3, 48, 100
2, 235840, Note_on_c, 0, 98, 0
2, 235840, Note_on_c, 0, 98, 100
2, 235878, Note_on_c, 0, 108, 0
2, 235920, Note_on_c, 3, 48, 0
2, 236000, Note_on_c, 0, 61, 0
2, 236000, Note_on_c, 0, 74, 0
2, 236000, Note_on_c, 0, 98, 0
2, 236160, Note_on_c, 0, 86, 0
2, 236160, Note_on_c, 0, 62, 100
2, 236160, Note_on_c, 0, 75, 100
2, 236160, Note_on_c, 0, 87, 100
2, 236160, Note_on_c, 0, 99, 100
2, 236160, Note_on_c, 0, 108, 100
2, 236160, Note_on_c, 3, 49, 100
2, 236800, Note_on_c, 0, 99, 0
2, 236800, Note_on_c, 0, 99, 100
2, 236880, Note_on_c, 3, 49, 0
2, 236960, Note_on_c, 0, 62, 0
2, 236960, Note_on_c, 0, 75, 0
2, 236960, Note_on_c, 0, 99, 0
2, 237120, Note_on_c, 0, 87, 0
2, 237120, Note_on_c, 0, 61, 100
2, 237120, Note_on_c, 0, 74, 100
2, 237120, Note_on_c, 0, 86, 100
2, 237120, Note_on_c, 0, 98, 100
2, 237120, Note_on_c, 3, 48, 100
2, 237360, Note_on_c, 0, 86, 0
2, 237688, Note_on_c, 0, 84, 100
2, 237730, Note_on_c, 0, 70, 100
2, 237730, Note_on_c, 0, 82, 100
2, 237730, Note_on_c, 0, 94, 100
2, 237730, Note_on_c, 0, 106, 100
2, 237760, Note_on_c, 0, 98, 0
2, 237760, Note_on_c, 0, 96, 100
2, 237840, Note_on_c, 3, 48, 0
2, 237880, Note_on_c, 0, 108, 0
2, 237920, Note_on_c, 0, 61, 0
2, 237920, Note_on_c, 0, 74, 0
2, 237928, Note_on_c, 0, 84, 0
2, 238000, Note_on_c, 0, 96, 0
2, 238080, Text_t, "HandMap_Default"
2, 238080, Text_t, "drum_normal"
2, 238080, Note_on_c, 0, 60, 100
2, 238080, Note_on_c, 0, 72, 100
2, 238080, Note_on_c, 0, 73, 100
2, 238080, Note_on_c, 0, 84, 100
2, 238080, Note_on_c, 0, 85, 100
2, 238080, Note_on_c, 0, 96, 100
2, 238080, Note_on_c, 0, 97, 100
2, 238080, Note_on_c, 0, 108, 100
2, 238080, Note_on_c, 3, 43, 100
2, 238200, Note_on_c, 0, 60, 0
2, 238200, Note_on_c, 0, 72, 0
2, 238200, Note_on_c, 0, 73, 0
2, 238320, Note_on_c, 0, 84, 0
2, 238320, Note_on_c, 0, 85, 0
2, 238320, Note_on_c, 0, 96, 0
2, 238320, Note_on_c, 0, 97, 0
2, 238648, Note_on_c, 0, 84, 100
2, 238720, Note_on_c, 0, 96, 100
2, 238888, Note_on_c, 0, 84, 0
2, 238960, Note_on_c, 0, 96, 0
2, 239040, Note_on_c, 0, 60, 100
2, 239040, Note_on_c, 0, 72, 100
2, 239040, Note_on_c, 0, 73, 100
2, 239040, Note_on_c, 0, 84, 100
2, 239040, Note_on_c, 0, 85, 100
2, 239040, Note_on_c, 0, 96, 100
2, 239040, Note_on_c, 0, 97, 100
2, 239160, Note_on_c, 0, 60, 0
2, 239160, Note_on_c, 0, 72, 0
2, 239160, Note_on_c, 0, 73, 0
2, 239280, Note_on_c, 0, 84, 0
2, 239280, Note_on_c, 0, 85, 0
2, 239280, Note_on_c, 0, 96, 0
2, 239280, Note_on_c, 0, 97, 0
2, 239608, Note_on_c, 0, 84, 100
2, 239680, Note_on_c, 0, 96, 100
2, 239848, Note_on_c, 0, 84, 0
2, 239920, Note_on_c, 0, 96, 0
2, 240000, Note_on_c, 0, 60, 100
2, 240000, Note_on_c, 0, 72, 100
2, 240000, Note_on_c, 0, 73, 100
2, 240000, Note_on_c, 0, 84, 100
2, 240000, Note_on_c, 0, 85, 100
2, 240000, Note_on_c, 0, 96, 100
2, 240000, Note_on_c, 0, 97, 100
2, 240120, Note_on_c, 0, 60, 0
2, 240120, Note_on_c, 0, 72, 0
2, 240120, Note_on_c, 0, 73, 0
2, 240240, Note_on_c, 0, 84, 0
2, 240240, Note_on_c, 0, 85, 0
2, 240240, Note_on_c, 0, 96, 0
2, 240240, Note_on_c, 0, 97, 0
2, 240568, Note_on_c, 0, 84, 100
2, 240640, Note_on_c, 0, 96, 100
2, 240808, Note_on_c, 0, 84, 0
2, 240880, Note_on_c, 0, 96, 0
2, 240960, Note_on_c, 0, 60, 100
2, 240960, Note_on_c, 0, 72, 100
2, 240960, Note_on_c, 0, 73, 100
2, 240960, Note_on_c, 0, 84, 100
2, 240960, Note_on_c, 0, 85, 100
2, 240960, Note_on_c, 0, 96, 100
2, 240960, Note_on_c, 0, 97, 100
2, 241000, Note_on_c, 0, 108, 0
2, 241080, Note_on_c, 0, 60, 0
2, 241080, Note_on_c, 0, 72, 0
2, 241080, Note_on_c, 0, 73, 0
2, 241200, Note_on_c, 0, 84, 0
2, 241200, Note_on_c, 0, 85, 0
2, 241200, Note_on_c, 0, 96, 0
2, 241200, Note_on_c, 0, 97, 0
2, 241528, Note_on_c, 0, 84, 100
2, 241600, Note_on_c, 0, 96, 100
2, 241768, Note_on_c, 0, 84, 0
2, 241840, Note_on_c, 0, 96, 0
2, 241920, Note_on_c, 0, 60, 100
2, 241920, Note_on_c, 0, 72, 100
2, 241920, Note_on_c, 0, 73, 100
2, 241920, Note_on_c, 0, 84, 100
2, 241920, Note_on_c, 0, 85, 100
2, 241920, Note_on_c, 0, 96, 100
2, 241920, Note_on_c, 0, 97, 100
2, 242040, Note_on_c, 0, 60, 0
2, 242040, Note_on_c, 0, 72, 0
2, 242040, Note_on_c, 0, 73, 0
2, 242160, Note_on_c, 0, 84, 0
2, 242160, Note_on_c, 0, 85, 0
2, 242160, Note_on_c, 0, 96, 0
2, 242160, Note_on_c, 0, 97, 0
2, 242488, Note_on_c, 0, 84, 100
2, 242560, Note_on_c, 0, 96, 100
2, 242728, Note_on_c, 0, 84, 0
2, 242800, Note_on_c, 0, 96, 0
2, 242880, Note_on_c, 0, 60, 100
2, 242880, Note_on_c, 0, 72, 100
2, 242880, Note_on_c, 0, 73, 100
2, 242880, Note_on_c, 0, 84, 100
2, 242880, Note_on_c, 0, 85, 100
2, 242880, Note_on_c, 0, 96, 100
2, 242880, Note_on_c, 0, 97, 100
2, 243000, Note_on_c, 0, 60, 0
2, 243000, Note_on_c, 0, 72, 0
2, 243000, Note_on_c, 0, 73, 0
2, 243120, Note_on_c, 0, 84, 0
2, 243120, Note_on_c, 0, 85, 0
2, 243120, Note_on_c, 0, 96, 0
2, 243120, Note_on_c, 0, 97, 0
2, 243448, Note_on_c, 0, 84, 100
2, 243520, Note_on_c, 0, 96, 100
2, 243688, Note_on_c, 0, 84, 0
2, 243760, Note_on_c, 0, 96, 0
2, 243840, Note_on_c, 0, 60, 100
2, 243840, Note_on_c, 0, 72, 100
2, 243840, Note_on_c, 0, 73, 100
2, 243840, Note_on_c, 0, 84, 100
2, 243840, Note_on_c, 0, 85, 100
2, 243840, Note_on_c, 0, 96, 100
2, 243840, Note_on_c, 0, 97, 100
2, 243960, Note_on_c, 0, 60, 0
2, 243960, Note_on_c, 0, 72, 0
2, 243960, Note_on_c, 0, 73, 0
2, 244080, Note_on_c, 0, 84, 0
2, 244080, Note_on_c, 0, 85, 0
2, 244080, Note_on_c, 0, 96, 0
2, 244080, Note_on_c, 0, 97, 0
2, 244320, Note_on_c, 0, 108, 100
2, 244408, Note_on_c, 0, 84, 100
2, 244480, Note_on_c, 0, 96, 100
2, 244598, Note_on_c, 0, 108, 0
2, 244648, Note_on_c, 0, 84, 0
2, 244720, Note_on_c, 0, 96, 0
2, 244800, Note_on_c, 0, 60, 100
2, 244800, Note_on_c, 0, 72, 100
2, 244800, Note_on_c, 0, 73, 100
2, 244800, Note_on_c, 0, 84, 100
2, 244800, Note_on_c, 0, 85, 100
2, 244800, Note_on_c, 0, 96, 100
2, 244800, Note_on_c, 0, 97, 100
2, 244800, Note_on_c, 0, 108, 100
2, 244920, Note_on_c, 0, 60, 0
2, 244920, Note_on_c, 0, 72, 0
2, 244920, Note_on_c, 0, 73, 0
2, 245040, Note_on_c, 0, 84, 0
2, 245040, Note_on_c, 0, 85, 0
2, 245040, Note_on_c, 0, 96, 0
2, 245040, Note_on_c, 0, 97, 0
2, 245410, Note_on_c, 0, 69, 0
2, 245410, Note_on_c, 0, 81, 0
2, 245410, Note_on_c, 0, 93, 0
2, 245410, Note_on_c, 0, 105, 0
2, 245440, Note_on_c, 0, 84, 100
2, 245440, Note_on_c, 0, 96, 100
2, 245520, Note_on_c, 3, 43, 0
2, 245558, Note_on_c, 0, 108, 0
2, 245680, Note_on_c, 0, 84, 0
2, 245680, Note_on_c, 0, 96, 0
2, 245760, Text_t, "HandMap_AllChords"
2, 245760, Text_t, "drum_double"
2, 245760, Note_on_c, 0, 60, 100
2, 245760, Note_on_c, 0, 72, 100
2, 245760, Note_on_c, 0, 84, 100
2, 245760, Note_on_c, 0, 96, 100
2, 245760, Note_on_c, 0, 108, 100
2, 245760, Note_on_c, 3, 46, 100
2, 246400, Note_on_c, 0, 96, 0
2, 246400, Note_on_c, 0, 96, 100
2, 246480, Note_on_c, 3, 46, 0
2, 246560, Note_on_c, 0, 60, 0
2, 246560, Note_on_c, 0, 72, 0
2, 246560, Note_on_c, 0, 96, 0
2, 246720, Note_on_c, 0, 84, 0
2, 246720, Note_on_c, 0, 61, 100
2, 246720, Note_on_c, 0, 73, 100
2, 246720, Note_on_c, 0, 85, 100
2, 246720, Note_on_c, 0, 97, 100
2, 246720, Note_on_c, 3, 48, 100
2, 247360, Note_on_c, 0, 97, 0
2, 247360, Note_on_c, 0, 97, 100
2, 247440, Note_on_c, 3, 48, 0
2, 247478, Note_on_c, 0, 108, 0
2, 247520, Note_on_c, 0, 61, 0
2, 247520, Note_on_c, 0, 73, 0
2, 247520, Note_on_c, 0, 97, 0
2, 247680, Note_on_c, 0, 85, 0
2, 247680, Note_on_c, 0, 62, 100
2, 247680, Note_on_c, 0, 74, 100
2, 247680, Note_on_c, 0, 86, 100
2, 247680, Note_on_c, 0, 98, 100
2, 247680, Note_on_c, 0, 108, 100
2, 247680, Note_on_c, 3, 49, 100
2, 248320, Note_on_c, 0, 98, 0
2, 248320, Note_on_c, 0, 98, 100
2, 248400, Note_on_c, 3, 49, 0
2, 248480, Note_on_c, 0, 62, 0
2, 248480, Note_on_c, 0, 74, 0
2, 248480, Note_on_c, 0, 98, 0
2, 248640, Note_on_c, 0, 86, 0
2, 248640, Note_on_c, 0, 60, 100
2, 248640, Note_on_c, 0, 72, 100
2, 248640, Note_on_c, 0, 85, 100
2, 248640, Note_on_c, 0, 97, 100
2, 248640, Note_on_c, 3, 48, 100
2, 249276, Note_on_c, 0, 97, 0
2, 249280, Note_on_c, 0, 97, 100
2, 249360, Note_on_c, 3, 48, 0
2, 249398, Note_on_c, 0, 108, 0
2, 249440, Note_on_c, 0, 60, 0
2, 249440, Note_on_c, 0, 72, 0
2, 249440, Note_on_c, 0, 97, 0
2, 249596, Note_on_c, 0, 85, 0
2, 249600, Note_on_c, 0, 61, 100
2, 249600, Note_on_c, 0, 74, 100
2, 249600, Note_on_c, 0, 87, 100
2, 249600, Note_on_c, 0, 99, 100
2, 249600, Note_on_c, 0, 108, 100
2, 249600, Note_on_c, 3, 51, 100
2, 250240, Note_on_c, 0, 99, 0
2, 250240, Note_on_c, 0, 99, 100
2, 250314, Note_on_c, 3, 51, 0
2, 250400, Note_on_c, 0, 61, 0
2, 250400, Note_on_c, 0, 74, 0
2, 250400, Note_on_c, 0, 99, 0
2, 250560, Note_on_c, 0, 87, 0
2, 250560, Note_on_c, 0, 60, 100
2, 250560, Note_on_c, 0, 73, 100
2, 250560, Note_on_c, 0, 86, 100
2, 250560, Note_on_c, 0, 98, 100
2, 250560, Note_on_c, 3, 49, 100
2, 251200, Note_on_c, 0, 98, 0
2, 251200, Note_on_c, 0, 98, 100
2, 251280, Note_on_c, 3, 49, 0
2, 251360, Note_on_c, 0, 60, 0
2, 251360, Note_on_c, 0, 73, 0
2, 251360, Note_on_c, 0, 98, 0
2, 251398, Note_on_c, 0, 108, 0
2, 251520, Note_on_c, 0, 86, 0
2, 251520, Note_on_c, 0, 62, 100
2, 251520, Note_on_c, 0, 75, 100
2, 251520, Note_on_c, 0, 88, 100
2, 251520, Note_on_c, 0, 100, 100
2, 251520, Note_on_c, 0, 108, 100
2, 251520, Note_on_c, 3, 53, 100
2, 252160, Note_on_c, 0, 100, 0
2, 252160, Note_on_c, 0, 100, 100
2, 252240, Note_on_c, 3, 53, 0
2, 252320, Note_on_c, 0, 62, 0
2, 252320, Note_on_c, 0, 75, 0
2, 252320, Note_on_c, 0, 100, 0
2, 252480, Note_on_c, 0, 88, 0
2, 252480, Note_on_c, 0, 61, 100
2, 252480, Note_on_c, 0, 74, 100
2, 252480, Note_on_c, 0, 87, 100
2, 252480, Note_on_c, 0, 99, 100
2, 252480, Note_on_c, 3, 51, 100
2, 252720, Note_on_c, 0, 87, 0
2, 253048, Note_on_c, 0, 84, 100
2, 253090, Note_on_c, 0, 69, 100
2, 253090, Note_on_c, 0, 81, 100
2, 253090, Note_on_c, 0, 93, 100
2, 253090, Note_on_c, 0, 105, 100
2, 253120, Note_on_c, 0, 99, 0
2, 253120, Note_on_c, 0, 96, 100
2, 253200, Note_on_c, 3, 51, 0
2, 253208, Note_on_c, 0, 84, 0
2, 253240, Note_on_c, 0, 108, 0
2, 253280, Note_on_c, 0, 61, 0
2, 253280, Note_on_c, 0, 74, 0
2, 253280, Note_on_c, 0, 96, 0
2, 253440, Text_t, "HandMap_Default"
2, 253440, Text_t, "drum_normal"
2, 253440, Note_on_c, 0, 60, 100
2, 253440, Note_on_c, 0, 72, 100
2, 253440, Note_on_c, 0, 73, 100
2, 253440, Note_on_c, 0, 84, 100
2, 253440, Note_on_c, 0, 85, 100
2, 253440, Note_on_c, 0, 96, 100
2, 253440, Note_on_c, 0, 97, 100
2, 253440, Note_on_c, 0, 108, 100
2, 253440, Note_on_c, 3, 43, 100
2, 253560, Note_on_c, 0, 60, 0
2, 253560, Note_on_c, 0, 72, 0
2, 253560, Note_on_c, 0, 73, 0
2, 253680, Note_on_c, 0, 84, 0
2, 253680, Note_on_c, 0, 85, 0
2, 253680, Note_on_c, 0, 96, 0
2, 253680, Note_on_c, 0, 97, 0
2, 254008, Note_on_c, 0, 84, 100
2, 254080, Note_on_c, 0, 96, 100
2, 254248, Note_on_c, 0, 84, 0
2, 254320, Note_on_c, 0, 96, 0
2, 254400, Note_on_c, 0, 60, 100
2, 254400, Note_on_c, 0, 72, 100
2, 254400, Note_on_c, 0, 73, 100
2, 254400, Note_on_c, 0, 84, 100
2, 254400, Note_on_c, 0, 85, 100
2, 254400, Note_on_c, 0, 96, 100
2, 254400, Note_on_c, 0, 97, 100
2, 254520, Note_on_c, 0, 60, 0
2, 254520, Note_on_c, 0, 72, 0
2, 254520, Note_on_c, 0, 73, 0
2, 254640, Note_on_c, 0, 84, 0
2, 254640, Note_on_c, 0, 85, 0
2, 254640, Note_on_c, 0, 96, 0
2, 254640, Note_on_c, 0, 97, 0
2, 254968, Note_on_c, 0, 84, 100
2, 255040, Note_on_c, 0, 96, 100
2, 255208, Note_on_c, 0, 84, 0
2, 255280, Note_on_c, 0, 96, 0
2, 255360, Note_on_c, 0, 60, 100
2, 255360, Note_on_c, 0, 72, 100
2, 255360, Note_on_c, 0, 73, 100
2, 255360, Note_on_c, 0, 84, 100
2, 255360, Note_on_c, 0, 85, 100
2, 255360, Note_on_c, 0, 96, 100
2, 255360, Note_on_c, 0, 97, 100
2, 255480, Note_on_c, 0, 60, 0
2, 255480, Note_on_c, 0, 72, 0
2, 255480, Note_on_c, 0, 73, 0
2, 255600, Note_on_c, 0, 84, 0
2, 255600, Note_on_c, 0, 85, 0
2, 255600, Note_on_c, 0, 96, 0
2, 255600, Note_on_c, 0, 97, 0
2, 255928, Note_on_c, 0, 84, 100
2, 256000, Note_on_c, 0, 96, 100
2, 256168, Note_on_c, 0, 84, 0
2, 256240, Note_on_c, 0, 96, 0
2, 256320, Note_on_c, 0, 60, 100
2, 256320, Note_on_c, 0, 72, 100
2, 256320, Note_on_c, 0, 73, 100
2, 256320, Note_on_c, 0, 84, 100
2, 256320, Note_on_c, 0, 85, 100
2, 256320, Note_on_c, 0, 96, 100
2, 256320, Note_on_c, 0, 97, 100
2, 256362, Note_on_c, 0, 108, 0
2, 256440, Note_on_c, 0, 60, 0
2, 256440, Note_on_c, 0, 72, 0
2, 256440, Note_on_c, 0, 73, 0
2, 256560, Note_on_c, 0, 84, 0
2, 256560, Note_on_c, 0, 85, 0
2, 256560, Note_on_c, 0, 96, 0
2, 256560, Note_on_c, 0, 97, 0
2, 256888, Note_on_c, 0, 84, 100
2, 256960, Note_on_c, 0, 96, 100
2, 257128, Note_on_c, 0, 84, 0
2, 257200, Note_on_c, 0, 96, 0
2, 257280, Note_on_c, 0, 60, 100
2, 257280, Note_on_c, 0, 72, 100
2, 257280, Note_on_c, 0, 73, 100
2, 257280, Note_on_c, 0, 84, 100
2, 257280, Note_on_c, 0, 85, 100
2, 257280, Note_on_c, 0, 96, 100
2, 257280, Note_on_c, 0, 97, 100
2, 257400, Note_on_c, 0, 60, 0
2, 257400, Note_on_c, 0, 72, 0
2, 257400, Note_on_c, 0, 73, 0
2, 257520, Note_on_c, 0, 84, 0
2, 257520, Note_on_c, 0, 85, 0
2, 257520, Note_on_c, 0, 96, 0
2, 257520, Note_on_c, 0, 97, 0
2, 257848, Note_on_c, 0, 84, 100
2, 257920, Note_on_c, 0, 96, 100
2, 258088, Note_on_c, 0, 84, 0
2, 258160, Note_on_c, 0, 96, 0
2, 258240, Note_on_c, 0, 60, 100
2, 258240, Note_on_c, 0, 72, 100
2, 258240, Note_on_c, 0, 73, 100
2, 258240, Note_on_c, 0, 84, 100
2, 258240, Note_on_c, 0, 85, 100
2, 258240, Note_on_c, 0, 96, 100
2, 258240, Note_on_c, 0, 97, 100
2, 258360, Note_on_c, 0, 60, 0
2, 258360, Note_on_c, 0, 72, 0
2, 258360, Note_on_c, 0, 73, 0
2, 258480, Note_on_c, 0, 84, 0
2, 258480, Note_on_c, 0, 85, 0
2, 258480, Note_on_c, 0, 96, 0
2, 258480, Note_on_c, 0, 97, 0
2, 258808, Note_on_c, 0, 84, 100
2, 258880, Note_on_c, 0, 96, 100
2, 259048, Note_on_c, 0, 84, 0
2, 259120, Note_on_c, 0, 96, 0
2, 259200, Note_on_c, 0, 60, 100
2, 259200, Note_on_c, 0, 72, 100
2, 259200, Note_on_c, 0, 73, 100
2, 259200, Note_on_c, 0, 84, 100
2, 259200, Note_on_c, 0, 85, 100
2, 259200, Note_on_c, 0, 96, 100
2, 259200, Note_on_c, 0, 97, 100
2, 259320, Note_on_c, 0, 60, 0
2, 259320, Note_on_c, 0, 72, 0
2, 259320, Note_on_c, 0, 73, 0
2, 259440, Note_on_c, 0, 84, 0
2, 259440, Note_on_c, 0, 85, 0
2, 259440, Note_on_c, 0, 96, 0
2, 259440, Note_on_c, 0, 97, 0
2, 259768, Note_on_c, 0, 84, 100
2, 259840, Note_on_c, 0, 96, 100
2, 260008, Note_on_c, 0, 84, 0
2, 260080, Note_on_c, 0, 96, 0
2, 260160, Note_on_c, 0, 60, 100
2, 260160, Note_on_c, 0, 72, 100
2, 260160, Note_on_c, 0, 73, 100
2, 260160, Note_on_c, 0, 84, 100
2, 260160, Note_on_c, 0, 85, 100
2, 260160, Note_on_c, 0, 96, 100
2, 260160, Note_on_c, 0, 97, 100
2, 260280, Note_on_c, 0, 60, 0
2, 260280, Note_on_c, 0, 72, 0
2, 260280, Note_on_c, 0, 73, 0
2, 260400, Note_on_c, 0, 84, 0
2, 260400, Note_on_c, 0, 85, 0
2, 260400, Note_on_c, 0, 96, 0
2, 260400, Note_on_c, 0, 97, 0
2, 260728, Note_on_c, 0, 85, 100
2, 260800, Note_on_c, 0, 97, 100
2, 260880, Note_on_c, 3, 43, 0
2, 260968, Note_on_c, 0, 85, 0
2, 261040, Note_on_c, 0, 97, 0
2, 261120, Text_t, "[verse]"
2, 261120, Text_t, "wail_off"
2, 261120, Note_on_c, 0, 60, 100
2, 261120, Note_on_c, 0, 72, 100
2, 261120, Note_on_c, 0, 84, 100
2, 261120, Note_on_c, 0, 96, 100
2, 261120, Note_on_c, 3, 40, 100
2, 261360, Note_on_c, 0, 60, 0
2, 261360, Note_on_c, 0, 72, 0
2, 261360, Note_on_c, 0, 84, 0
2, 261360, Note_on_c, 0, 96, 0
2, 261360, Note_on_c, 3, 40, 0
2, 261410, Note_on_c, 0, 70, 0
2, 261410, Note_on_c, 0, 82, 0
2, 261410, Note_on_c, 0, 94, 0
2, 261410, Note_on_c, 0, 106, 0
2, 262080, Note_on_c, 0, 62, 100
2, 262080, Note_on_c, 0, 72, 100
2, 262080, Note_on_c, 0, 74, 100
2, 262080, Note_on_c, 0, 85, 100
2, 262080, Note_on_c, 0, 87, 100
2, 262080, Note_on_c, 0, 97, 100
2, 262080, Note_on_c, 0, 99, 100
2, 262080, Note_on_c, 3, 49, 100
2, 262320, Note_on_c, 0, 62, 0
2, 262320, Note_on_c, 0, 72, 0
2, 262320, Note_on_c, 0, 74, 0
2, 262320, Note_on_c, 0, 85, 0
2, 262320, Note_on_c, 0, 87, 0
2, 262320, Note_on_c, 0, 97, 0
2, 262320, Note_on_c, 0, 99, 0
2, 263040, Note_on_c, 0, 62, 100
2, 263040, Note_on_c, 0, 74, 100
2, 263040, Note_on_c, 0, 85, 100
2, 263040, Note_on_c, 0, 87, 100
2, 263040, Note_on_c, 0, 97, 100
2, 263040, Note_on_c, 0, 99, 100
2, 263278, Note_on_c, 0, 85, 0
2, 263278, Note_on_c, 0, 87, 0
2, 263278, Note_on_c, 0, 97, 0
2, 263278, Note_on_c, 0, 99, 0
2, 263280, Note_on_c, 3, 49, 0
2, 263280, Note_on_c, 0, 62, 0
2, 263280, Note_on_c, 0, 74, 0
2, 263608, Note_on_c, 0, 73, 100
2, 263608, Note_on_c, 0, 86, 100
2, 263680, Note_on_c, 0, 98, 100
2, 263848, Note_on_c, 0, 73, 0
2, 263848, Note_on_c, 0, 86, 0
2, 263920, Note_on_c, 0, 98, 0
2, 264000, Note_on_c, 0, 60, 100
2, 264000, Note_on_c, 0, 72, 100
2, 264000, Note_on_c, 0, 85, 100
2, 264000, Note_on_c, 0, 97, 100
2, 264000, Note_on_c, 3, 47, 100
2, 264240, Note_on_c, 0, 60, 0
2, 264240, Note_on_c, 0, 72, 0
2, 264240, Note_on_c, 0, 85, 0
2, 264240, Note_on_c, 0, 97, 0
2, 264480, Note_on_c, 3, 47, 0
2, 264960, Text_t, "sing_off"
2, 264960, Note_on_c, 0, 62, 100
2, 264960, Note_on_c, 0, 72, 100
2, 264960, Note_on_c, 0, 74, 100
2, 264960, Note_on_c, 0, 85, 100
2, 264960, Note_on_c, 0, 87, 100
2, 264960, Note_on_c, 0, 97, 100
2, 264960, Note_on_c, 0, 99, 100
2, 264960, Note_on_c, 3, 49, 100
2, 265200, Note_on_c, 0, 62, 0
2, 265200, Note_on_c, 0, 72, 0
2, 265200, Note_on_c, 0, 74, 0
2, 265200, Note_on_c, 0, 85, 0
2, 265200, Note_on_c, 0, 87, 0
2, 265200, Note_on_c, 0, 97, 0
2, 265200, Note_on_c, 0, 99, 0
2, 265920, Note_on_c, 0, 62, 100
2, 265920, Note_on_c, 0, 74, 100
2, 265920, Note_on_c, 0, 85, 100
2, 265920, Note_on_c, 0, 87, 100
2, 265920, Note_on_c, 0, 97, 100
2, 265920, Note_on_c, 0, 99, 100
2, 266160, Note_on_c, 3, 49, 0
2, 266160, Note_on_c, 0, 62, 0
2, 266160, Note_on_c, 0, 74, 0
2, 266160, Note_on_c, 0, 85, 0
2, 266160, Note_on_c, 0, 87, 0
2, 266160, Note_on_c, 0, 97, 0
2, 266160, Note_on_c, 0, 99, 0
2, 266488, Note_on_c, 0, 73, 100
2, 266488, Note_on_c, 0, 86, 100
2, 266560, Note_on_c, 0, 98, 100
2, 266728, Note_on_c, 0, 73, 0
2, 266728, Note_on_c, 0, 86, 0
2, 266800, Note_on_c, 0, 98, 0
2, 266880, Note_on_c, 0, 60, 100
2, 266880, Note_on_c, 0, 72, 100
2, 266880, Note_on_c, 0, 85, 100
2, 266880, Note_on_c, 0, 97, 100
2, 266880, Note_on_c, 3, 47, 100
2, 267120, Note_on_c, 0, 60, 0
2, 267120, Note_on_c, 0, 72, 0
2, 267120, Note_on_c, 0, 85, 0
2, 267120, Note_on_c, 0, 97, 0
2, 267360, Note_on_c, 3, 47, 0
2, 267490, Note_on_c, 0, 70, 100
2, 267490, Note_on_c, 0, 82, 100
2, 267490, Note_on_c, 0, 94, 100
2, 267490, Note_on_c, 0, 106, 100
2, 267600, Note_on_c, 0, 97, 100
2, 267600, Note_on_c, 3, 52, 100
2, 267840, Note_on_c, 0, 97, 0
2, 267840, Note_on_c, 3, 52, 0
2, 267840, Note_on_c, 0, 61, 100
2, 267840, Note_on_c, 0, 73, 100
2, 267840, Note_on_c, 0, 86, 100
2, 267840, Note_on_c, 0, 98, 100
2, 268800, Note_on_c, 0, 61, 0
2, 268800, Note_on_c, 0, 73, 0
2, 268800, Note_on_c, 0, 86, 0
2, 268800, Note_on_c, 0, 98, 0
2, 268800, Note_on_c, 0, 60, 100
2, 268800, Note_on_c, 0, 72, 100
2, 268800, Note_on_c, 0, 84, 100
2, 268800, Note_on_c, 0, 96, 100
2, 268800, Note_on_c, 3, 40, 100
2, 269040, Note_on_c, 0, 60, 0
2, 269040, Note_on_c, 0, 72, 0
2, 269040, Note_on_c, 0, 84, 0
2, 269040, Note_on_c, 0, 96, 0
2, 269040, Note_on_c, 3, 40, 0
2, 269250, Note_on_c, 0, 69, 0
2, 269250, Note_on_c, 0, 81, 0
2, 269250, Note_on_c, 0, 93, 0
2, 269250, Note_on_c, 0, 105, 0
2, 269760, Note_on_c, 0, 62, 100
2, 269760, Note_on_c, 0, 72, 100
2, 269760, Note_on_c, 0, 74, 100
2, 269760, Note_on_c, 0, 85, 100
2, 269760, Note_on_c, 0, 87, 100
2, 269760, Note_on_c, 0, 97, 100
2, 269760, Note_on_c, 0, 99, 100
2, 269760, Note_on_c, 3, 49, 100
2, 270000, Note_on_c, 0, 62, 0
2, 270000, Note_on_c, 0, 72, 0
2, 270000, Note_on_c, 0, 74, 0
2, 270000, Note_on_c, 0, 85, 0
2, 270000, Note_on_c, 0, 87, 0
2, 270000, Note_on_c, 0, 97, 0
2, 270000, Note_on_c, 0, 99, 0
2, 270720, Note_on_c, 0, 62, 100
2, 270720, Note_on_c, 0, 74, 100
2, 270720, Note_on_c, 0, 85, 100
2, 270720, Note_on_c, 0, 87, 100
2, 270720, Note_on_c, 0, 97, 100
2, 270720, Note_on_c, 0, 99, 100
2, 270960, Note_on_c, 3, 49, 0
2, 270960, Note_on_c, 0, 62, 0
2, 270960, Note_on_c, 0, 74, 0
2, 270960, Note_on_c, 0, 85, 0
2, 270960, Note_on_c, 0, 87, 0
2, 270960, Note_on_c, 0, 97, 0
2, 270960, Note_on_c, 0, 99, 0
2, 271288, Note_on_c, 0, 73, 100
2, 271288, Note_on_c, 0, 86, 100
2, 271360, Note_on_c, 0, 98, 100
2, 271528, Note_on_c, 0, 73, 0
2, 271528, Note_on_c, 0, 86, 0
2, 271600, Note_on_c, 0, 98, 0
2, 271680, Note_on_c, 0, 60, 100
2, 271680, Note_on_c, 0, 72, 100
2, 271680, Note_on_c, 0, 85, 100
2, 271680, Note_on_c, 0, 97, 100
2, 271680, Note_on_c, 3, 47, 100
2, 271920, Note_on_c, 0, 60, 0
2, 271920, Note_on_c, 0, 72, 0
2, 271920, Note_on_c, 0, 85, 0
2, 271920, Note_on_c, 0, 97, 0
2, 272160, Note_on_c, 3, 47, 0
2, 272610, Note_on_c, 0, 70, 0
2, 272610, Note_on_c, 0, 82, 0
2, 272610, Note_on_c, 0, 94, 0
2, 272610, Note_on_c, 0, 106, 0
2, 272610, Note_on_c, 0, 67, 100
2, 272610, Note_on_c, 0, 69, 100
2, 272610, Note_on_c, 0, 79, 100
2, 272610, Note_on_c, 0, 81, 100
2, 272610, Note_on_c, 0, 91, 100
2, 272610, Note_on_c, 0, 93, 100
2, 272610, Note_on_c, 0, 103, 100
2, 272610, Note_on_c, 0, 105, 100
2, 272640, Text_t, "HandMap_Solo"
2, 272640, Note_on_c, 0, 61, 100
2, 272640, Note_on_c, 0, 73, 100
2, 272640, Note_on_c, 0, 84, 100
2, 272640, Note_on_c, 0, 96, 100
2, 272640, Note_on_c, 3, 43, 100
2, 272880, Note_on_c, 0, 61, 0
2, 272880, Note_on_c, 0, 73, 0
2, 272880, Note_on_c, 0, 84, 0
2, 272880, Note_on_c, 0, 96, 0
2, 272880, Note_on_c, 3, 43, 0
2, 273600, Note_on_c, 0, 61, 100
2, 273600, Note_on_c, 0, 73, 100
2, 273600, Note_on_c, 0, 74, 100
2, 273600, Note_on_c, 0, 85, 100
2, 273600, Note_on_c, 0, 86, 100
2, 273600, Note_on_c, 0, 97, 100
2, 273600, Note_on_c, 0, 98, 100
2, 273600, Note_on_c, 3, 49, 100
2, 273840, Note_on_c, 3, 49, 0
2, 276000, Note_on_c, 3, 51, 100
2, 276240, Note_on_c, 3, 51, 0
2, 276450, Note_on_c, 0, 67, 0
2, 276450, Note_on_c, 0, 69, 0
2, 276450, Note_on_c, 0, 79, 0
2, 276450, Note_on_c, 0, 81, 0
2, 276450, Note_on_c, 0, 91, 0
2, 276450, Note_on_c, 0, 93, 0
2, 276450, Note_on_c, 0, 103, 0
2, 276450, Note_on_c, 0, 105, 0
2, 276450, Note_on_c, 0, 70, 100
2, 276450, Note_on_c, 0, 82, 100
2, 276450, Note_on_c, 0, 94, 100
2, 276450, Note_on_c, 0, 106, 100
2, 276480, Text_t, "HandMap_Default"
2, 276480, Text_t, "[section verse_3]"
2, 276480, Note_on_c, 0, 61, 0
2, 276480, Note_on_c, 0, 73, 0
2, 276480, Note_on_c, 0, 74, 0
2, 276480, Note_on_c, 0, 85, 0
2, 276480, Note_on_c, 0, 86, 0
2, 276480, Note_on_c, 0, 97, 0
2, 276480, Note_on_c, 0, 98, 0
2, 276480, Note_on_c, 0, 60, 100
2, 276480, Note_on_c, 0, 72, 100
2, 276480, Note_on_c, 0, 84, 100
2, 276480, Note_on_c, 0, 96, 100
2, 276720, Note_on_c, 0, 60, 0
2, 276720, Note_on_c, 0, 72, 0
2, 276720, Note_on_c, 0, 84, 0
2, 276720, Note_on_c, 0, 96, 0
2, 277440, Note_on_c, 0, 62, 100
2, 277440, Note_on_c, 0, 72, 100
2, 277440, Note_on_c, 0, 74, 100
2, 277440, Note_on_c, 0, 85, 100
2, 277440, Note_on_c, 0, 87, 100
2, 277440, Note_on_c, 0, 97, 100
2, 277440, Note_on_c, 0, 99, 100
2, 277440, Note_on_c, 3, 47, 100
2, 277680, Note_on_c, 0, 62, 0
2, 277680, Note_on_c, 0, 72, 0
2, 277680, Note_on_c, 0, 74, 0
2, 277680, Note_on_c, 0, 85, 0
2, 277680, Note_on_c, 0, 87, 0
2, 277680, Note_on_c, 0, 97, 0
2, 277680, Note_on_c, 0, 99, 0
2, 278400, Text_t, "sing_on"
2, 278400, Note_on_c, 3, 47, 0
2, 278400, Note_on_c, 0, 60, 100
2, 278400, Note_on_c, 0, 72, 100
2, 278400, Note_on_c, 0, 84, 100
2, 278400, Note_on_c, 0, 96, 100
2, 278400, Note_on_c, 0, 108, 100
2, 278640, Note_on_c, 0, 60, 0
2, 278640, Note_on_c, 0, 72, 0
2, 278640, Note_on_c, 0, 84, 0
2, 278640, Note_on_c, 0, 96, 0
2, 278940, Note_on_c, 0, 108, 0
2, 279360, Note_on_c, 0, 62, 100
2, 279360, Note_on_c, 0, 72, 100
2, 279360, Note_on_c, 0, 74, 100
2, 279360, Note_on_c, 0, 85, 100
2, 279360, Note_on_c, 0, 87, 100
2, 279360, Note_on_c, 0, 97, 100
2, 279360, Note_on_c, 0, 99, 100
2, 279360, Note_on_c, 0, 108, 100
2, 279360, Note_on_c, 3, 47, 100
2, 279600, Note_on_c, 0, 62, 0
2, 279600, Note_on_c, 0, 72, 0
2, 279600, Note_on_c, 0, 74, 0
2, 279600, Note_on_c, 0, 85, 0
2, 279600, Note_on_c, 0, 87, 0
2, 279600, Note_on_c, 0, 97, 0
2, 279600, Note_on_c, 0, 99, 0
2, 279900, Note_on_c, 0, 108, 0
2, 280320, Note_on_c, 3, 47, 0
2, 280320, Note_on_c, 0, 60, 100
2, 280320, Note_on_c, 0, 72, 100
2, 280320, Note_on_c, 0, 84, 100
2, 280320, Note_on_c, 0, 96, 100
2, 280560, Note_on_c, 0, 60, 0
2, 280560, Note_on_c, 0, 72, 0
2, 280560, Note_on_c, 0, 84, 0
2, 280560, Note_on_c, 0, 96, 0
2, 281280, Note_on_c, 0, 62, 100
2, 281280, Note_on_c, 0, 72, 100
2, 281280, Note_on_c, 0, 74, 100
2, 281280, Note_on_c, 0, 85, 100
2, 281280, Note_on_c, 0, 87, 100
2, 281280, Note_on_c, 0, 97, 100
2, 281280, Note_on_c, 0, 99, 100
2, 281280, Note_on_c, 0, 108, 100
2, 281280, Note_on_c, 3, 47, 100
2, 281520, Note_on_c, 0, 62, 0
2, 281520, Note_on_c, 0, 72, 0
2, 281520, Note_on_c, 0, 74, 0
2, 281520, Note_on_c, 0, 85, 0
2, 281520, Note_on_c, 0, 87, 0
2, 281520, Note_on_c, 0, 97, 0
2, 281520, Note_on_c, 0, 99, 0
2, 282240, Note_on_c, 3, 47, 0
2, 282240, Note_on_c, 0, 60, 100
2, 282240, Note_on_c, 0, 72, 100
2, 282240, Note_on_c, 0, 84, 100
2, 282240, Note_on_c, 0, 96, 100
2, 282480, Note_on_c, 0, 60, 0
2, 282480, Note_on_c, 0, 72, 0
2, 282480, Note_on_c, 0, 84, 0
2, 282480, Note_on_c, 0, 96, 0
2, 282780, Note_on_c, 0, 108, 0
2, 283200, Note_on_c, 0, 62, 100
2, 283200, Note_on_c, 0, 74, 100
2, 283200, Note_on_c, 0, 87, 100
2, 283200, Note_on_c, 0, 97, 100
2, 283200, Note_on_c, 0, 99, 100
2, 283200, Note_on_c, 0, 108, 100
2, 283200, Note_on_c, 3, 47, 100
2, 283440, Note_on_c, 0, 62, 0
2, 283440, Note_on_c, 0, 74, 0
2, 283440, Note_on_c, 0, 87, 0
2, 283440, Note_on_c, 0, 97, 0
2, 283440, Note_on_c, 0, 99, 0
2, 283440, Note_on_c, 3, 47, 0
2, 283680, Note_on_c, 3, 45, 100
2, 283768, Note_on_c, 0, 86, 100
2, 283840, Note_on_c, 0, 61, 100
2, 283840, Note_on_c, 0, 73, 100
2, 283840, Note_on_c, 0, 98, 100
2, 283920, Note_on_c, 3, 45, 0
2, 284008, Note_on_c, 0, 86, 0
2, 284080, Note_on_c, 0, 61, 0
2, 284080, Note_on_c, 0, 73, 0
2, 284080, Note_on_c, 0, 98, 0
2, 284130, Note_on_c, 0, 69, 100
2, 284130, Note_on_c, 0, 81, 100
2, 284130, Note_on_c, 0, 93, 100
2, 284130, Note_on_c, 0, 105, 100
2, 284160, Note_on_c, 0, 62, 100
2, 284160, Note_on_c, 0, 74, 100
2, 284160, Note_on_c, 0, 87, 100
2, 284160, Note_on_c, 0, 97, 100
2, 284160, Note_on_c, 0, 99, 100
2, 284160, Note_on_c, 3, 47, 100
2, 284400, Note_on_c, 0, 62, 0
2, 284400, Note_on_c, 0, 74, 0
2, 284400, Note_on_c, 0, 87, 0
2, 284400, Note_on_c, 0, 97, 0
2, 284400, Note_on_c, 0, 99, 0
2, 284400, Note_on_c, 3, 47, 0
2, 284640, Note_on_c, 0, 108, 0
2, 285090, Note_on_c, 0, 70, 0
2, 285090, Note_on_c, 0, 82, 0
2, 285090, Note_on_c, 0, 94, 0
2, 285090, Note_on_c, 0, 106, 0
2, 285120, Note_on_c, 0, 62, 100
2, 285120, Note_on_c, 0, 74, 100
2, 285120, Note_on_c, 0, 85, 100
2, 285120, Note_on_c, 0, 87, 100
2, 285120, Note_on_c, 0, 97, 100
2, 285120, Note_on_c, 0, 99, 100
2, 285120, Note_on_c, 3, 47, 100
2, 285360, Note_on_c, 0, 62, 0
2, 285360, Note_on_c, 0, 74, 0
2, 285360, Note_on_c, 0, 85, 0
2, 285360, Note_on_c, 0, 87, 0
2, 285360, Note_on_c, 0, 97, 0
2, 285360, Note_on_c, 0, 99, 0
2, 286080, Note_on_c, 3, 47, 0
2, 286080, Note_on_c, 0, 60, 100
2, 286080, Note_on_c, 0, 72, 100
2, 286080, Note_on_c, 0, 84, 100
2, 286080, Note_on_c, 0, 96, 100
2, 286080, Note_on_c, 0, 108, 100
2, 286320, Note_on_c, 0, 60, 0
2, 286320, Note_on_c, 0, 72, 0
2, 286320, Note_on_c, 0, 84, 0
2, 286320, Note_on_c, 0, 96, 0
2, 286560, Note_on_c, 0, 108, 0
2, 286880, Note_on_c, 0, 108, 100
2, 287040, Note_on_c, 0, 62, 100
2, 287040, Note_on_c, 0, 72, 100
2, 287040, Note_on_c, 0, 74, 100
2, 287040, Note_on_c, 0, 85, 100
2, 287040, Note_on_c, 0, 87, 100
2, 287040, Note_on_c, 0, 97, 100
2, 287040, Note_on_c, 0, 99, 100
2, 287040, Note_on_c, 3, 47, 100
2, 287280, Note_on_c, 0, 62, 0
2, 287280, Note_on_c, 0, 72, 0
2, 287280, Note_on_c, 0, 74, 0
2, 287280, Note_on_c, 0, 85, 0
2, 287280, Note_on_c, 0, 87, 0
2, 287280, Note_on_c, 0, 97, 0
2, 287280, Note_on_c, 0, 99, 0
2, 288000, Note_on_c, 3, 47, 0
2, 288000, Note_on_c, 0, 60, 100
2, 288000, Note_on_c, 0, 72, 100
2, 288000, Note_on_c, 0, 84, 100
2, 288000, Note_on_c, 0, 96, 100
2, 288240, Note_on_c, 0, 60, 0
2, 288240, Note_on_c, 0, 72, 0
2, 288240, Note_on_c, 0, 84, 0
2, 288240, Note_on_c, 0, 96, 0
2, 288320, Note_on_c, 0, 108, 0
2, 288640, Note_on_c, 0, 108, 100
2, 288960, Note_on_c, 0, 62, 100
2, 288960, Note_on_c, 0, 72, 100
2, 288960, Note_on_c, 0, 74, 100
2, 288960, Note_on_c, 0, 85, 100
2, 288960, Note_on_c, 0, 87, 100
2, 288960, Note_on_c, 0, 97, 100
2, 288960, Note_on_c, 0, 99, 100
2, 288960, Note_on_c, 3, 47, 100
2, 289200, Note_on_c, 0, 62, 0
2, 289200, Note_on_c, 0, 72, 0
2, 289200, Note_on_c, 0, 74, 0
2, 289200, Note_on_c, 0, 85, 0
2, 289200, Note_on_c, 0, 87, 0
2, 289200, Note_on_c, 0, 97, 0
2, 289200, Note_on_c, 0, 99, 0
2, 289920, Note_on_c, 3, 47, 0
2, 289920, Note_on_c, 0, 60, 100
2, 289920, Note_on_c, 0, 72, 100
2, 289920, Note_on_c, 0, 84, 100
2, 289920, Note_on_c, 0, 96, 100
2, 290160, Note_on_c, 0, 60, 0
2, 290160, Note_on_c, 0, 72, 0
2, 290160, Note_on_c, 0, 84, 0
2, 290160, Note_on_c, 0, 96, 0
2, 290800, Note_on_c, 0, 108, 0
2, 290880, Note_on_c, 0, 62, 100
2, 290880, Note_on_c, 0, 74, 100
2, 290880, Note_on_c, 0, 87, 100
2, 290880, Note_on_c, 0, 97, 100
2, 290880, Note_on_c, 0, 99, 100
2, 290880, Note_on_c, 3, 47, 100
2, 291120, Note_on_c, 0, 62, 0
2, 291120, Note_on_c, 0, 74, 0
2, 291120, Note_on_c, 0, 87, 0
2, 291120, Note_on_c, 0, 97, 0
2, 291120, Note_on_c, 0, 99, 0
2, 291120, Note_on_c, 3, 47, 0
2, 291360, Note_on_c, 3, 45, 100
2, 291448, Note_on_c, 0, 88, 100
2, 291520, Note_on_c, 0, 62, 100
2, 291520, Note_on_c, 0, 73, 100
2, 291520, Note_on_c, 0, 100, 100
2, 291600, Note_on_c, 3, 45, 0
2, 291688, Note_on_c, 0, 88, 0
2, 291760, Note_on_c, 0, 62, 0
2, 291760, Note_on_c, 0, 73, 0
2, 291760, Note_on_c, 0, 100, 0
2, 291810, Note_on_c, 0, 70, 100
2, 291810, Note_on_c, 0, 82, 100
2, 291810, Note_on_c, 0, 94, 100
2, 291810, Note_on_c, 0, 106, 100
2, 291840, Note_on_c, 0, 62, 100
2, 291840, Note_on_c, 0, 74, 100
2, 291840, Note_on_c, 0, 87, 100
2, 291840, Note_on_c, 0, 97, 100
2, 291840, Note_on_c, 0, 99, 100
2, 291840, Note_on_c, 3, 47, 100
2, 292080, Note_on_c, 0, 62, 0
2, 292080, Note_on_c, 0, 74, 0
2, 292080, Note_on_c, 0, 87, 0
2, 292080, Note_on_c, 0, 97, 0
2, 292080, Note_on_c, 0, 99, 0
2, 292080, Note_on_c, 3, 47, 0
2, 292770, Note_on_c, 0, 69, 0
2, 292770, Note_on_c, 0, 81, 0
2, 292770, Note_on_c, 0, 93, 0
2, 292770, Note_on_c, 0, 105, 0
2, 292800, Note_on_c, 0, 62, 100
2, 292800, Note_on_c, 0, 74, 100
2, 292800, Note_on_c, 0, 85, 100
2, 292800, Note_on_c, 0, 87, 100
2, 292800, Note_on_c, 0, 97, 100
2, 292800, Note_on_c, 0, 99, 100
2, 292800, Note_on_c, 3, 47, 100
2, 293040, Note_on_c, 0, 62, 0
2, 293040, Note_on_c, 0, 74, 0
2, 293040, Note_on_c, 0, 85, 0
2, 293040, Note_on_c, 0, 87, 0
2, 293040, Note_on_c, 0, 97, 0
2, 293040, Note_on_c, 0, 99, 0
2, 293760, Note_on_c, 3, 47, 0
2, 293760, Note_on_c, 0, 60, 100
2, 293760, Note_on_c, 0, 72, 100
2, 293760, Note_on_c, 0, 84, 100
2, 293760, Note_on_c, 0, 96, 100
2, 294000, Note_on_c, 0, 60, 0
2, 294000, Note_on_c, 0, 72, 0
2, 294000, Note_on_c, 0, 84, 0
2, 294000, Note_on_c, 0, 96, 0
2, 294720, Note_on_c, 0, 62, 100
2, 294720, Note_on_c, 0, 72, 100
2, 294720, Note_on_c, 0, 74, 100
2, 294720, Note_on_c, 0, 85, 100
2, 294720, Note_on_c, 0, 87, 100
2, 294720, Note_on_c, 0, 97, 100
2, 294720, Note_on_c, 0, 99, 100
2, 294720, Note_on_c, 0, 108, 100
2, 294720, Note_on_c, 3, 47, 100
2, 294960, Note_on_c, 0, 62, 0
2, 294960, Note_on_c, 0, 72, 0
2, 294960, Note_on_c, 0, 74, 0
2, 294960, Note_on_c, 0, 85, 0
2, 294960, Note_on_c, 0, 87, 0
2, 294960, Note_on_c, 0, 97, 0
2, 294960, Note_on_c, 0, 99, 0
2, 295380, Note_on_c, 0, 108, 0
2, 295680, Note_on_c, 3, 47, 0
2, 295680, Note_on_c, 0, 60, 100
2, 295680, Note_on_c, 0, 72, 100
2, 295680, Note_on_c, 0, 84, 100
2, 295680, Note_on_c, 0, 96, 100
2, 295920, Note_on_c, 0, 60, 0
2, 295920, Note_on_c, 0, 72, 0
2, 295920, Note_on_c, 0, 84, 0
2, 295920, Note_on_c, 0, 96, 0
2, 296640, Note_on_c, 0, 62, 100
2, 296640, Note_on_c, 0, 72, 100
2, 296640, Note_on_c, 0, 74, 100
2, 296640, Note_on_c, 0, 85, 100
2, 296640, Note_on_c, 0, 87, 100
2, 296640, Note_on_c, 0, 97, 100
2, 296640, Note_on_c, 0, 99, 100
2, 296640, Note_on_c, 0, 108, 100
2, 296640, Note_on_c, 3, 47, 100
2, 296880, Note_on_c, 0, 62, 0
2, 296880, Note_on_c, 0, 72, 0
2, 296880, Note_on_c, 0, 74, 0
2, 296880, Note_on_c, 0, 85, 0
2, 296880, Note_on_c, 0, 87, 0
2, 296880, Note_on_c, 0, 97, 0
2, 296880, Note_on_c, 0, 99, 0
2, 297600, Note_on_c, 3, 47, 0
2, 297600, Note_on_c, 0, 60, 100
2, 297600, Note_on_c, 0, 72, 100
2, 297600, Note_on_c, 0, 84, 100
2, 297600, Note_on_c, 0, 96, 100
2, 297840, Note_on_c, 0, 60, 0
2, 297840, Note_on_c, 0, 72, 0
2, 297840, Note_on_c, 0, 84, 0
2, 297840, Note_on_c, 0, 96, 0
2, 298380, Note_on_c, 0, 108, 0
2, 298560, Note_on_c, 0, 62, 100
2, 298560, Note_on_c, 0, 74, 100
2, 298560, Note_on_c, 0, 87, 100
2, 298560, Note_on_c, 0, 97, 100
2, 298560, Note_on_c, 0, 99, 100
2, 298560, Note_on_c, 0, 108, 100
2, 298560, Note_on_c, 3, 47, 100
2, 298800, Note_on_c, 0, 62, 0
2, 298800, Note_on_c, 0, 74, 0
2, 298800, Note_on_c, 0, 87, 0
2, 298800, Note_on_c, 0, 97, 0
2, 298800, Note_on_c, 0, 99, 0
2, 298800, Note_on_c, 3, 47, 0
2, 299040, Note_on_c, 3, 45, 100
2, 299128, Note_on_c, 0, 86, 100
2, 299200, Note_on_c, 0, 61, 100
2, 299200, Note_on_c, 0, 73, 100
2, 299200, Note_on_c, 0, 98, 100
2, 299280, Note_on_c, 3, 45, 0
2, 299368, Note_on_c, 0, 86, 0
2, 299440, Note_on_c, 0, 61, 0
2, 299440, Note_on_c, 0, 73, 0
2, 299440, Note_on_c, 0, 98, 0
2, 299490, Note_on_c, 0, 69, 100
2, 299490, Note_on_c, 0, 81, 100
2, 299490, Note_on_c, 0, 93, 100
2, 299490, Note_on_c, 0, 105, 100
2, 299520, Note_on_c, 0, 62, 100
2, 299520, Note_on_c, 0, 74, 100
2, 299520, Note_on_c, 0, 87, 100
2, 299520, Note_on_c, 0, 97, 100
2, 299520, Note_on_c, 0, 99, 100
2, 299520, Note_on_c, 3, 47, 100
2, 299760, Note_on_c, 0, 62, 0
2, 299760, Note_on_c, 0, 74, 0
2, 299760, Note_on_c, 0, 87, 0
2, 299760, Note_on_c, 0, 97, 0
2, 299760, Note_on_c, 0, 99, 0
2, 299760, Note_on_c, 3, 47, 0
2, 300060, Note_on_c, 0, 108, 0
2, 300450, Note_on_c, 0, 70, 0
2, 300450, Note_on_c, 0, 82, 0
2, 300450, Note_on_c, 0, 94, 0
2, 300450, Note_on_c, 0, 106, 0
2, 300480, Note_on_c, 0, 62, 100
2, 300480, Note_on_c, 0, 74, 100
2, 300480, Note_on_c, 0, 85, 100
2, 300480, Note_on_c, 0, 87, 100
2, 300480, Note_on_c, 0, 97, 100
2, 300480, Note_on_c, 0, 99, 100
2, 300480, Note_on_c, 3, 47, 100
2, 300720, Note_on_c, 0, 62, 0
2, 300720, Note_on_c, 0, 74, 0
2, 300720, Note_on_c, 0, 85, 0
2, 300720, Note_on_c, 0, 87, 0
2, 300720, Note_on_c, 0, 97, 0
2, 300720, Note_on_c, 0, 99, 0
2, 301440, Note_on_c, 3, 47, 0
2, 301440, Note_on_c, 0, 60, 100
2, 301440, Note_on_c, 0, 72, 100
2, 301440, Note_on_c, 0, 84, 100
2, 301440, Note_on_c, 0, 96, 100
2, 301680, Note_on_c, 0, 60, 0
2, 301680, Note_on_c, 0, 72, 0
2, 301680, Note_on_c, 0, 84, 0
2, 301680, Note_on_c, 0, 96, 0
2, 302400, Note_on_c, 0, 62, 100
2, 302400, Note_on_c, 0, 74, 100
2, 302400, Note_on_c, 0, 85, 100
2, 302400, Note_on_c, 0, 87, 100
2, 302400, Note_on_c, 0, 97, 100
2, 302400, Note_on_c, 0, 99, 100
2, 302400, Note_on_c, 0, 108, 100
2, 302400, Note_on_c, 3, 47, 100
2, 302640, Note_on_c, 0, 62, 0
2, 302640, Note_on_c, 0, 74, 0
2, 302640, Note_on_c, 0, 85, 0
2, 302640, Note_on_c, 0, 87, 0
2, 302640, Note_on_c, 0, 97, 0
2, 302640, Note_on_c, 0, 99, 0
2, 302640, Note_on_c, 3, 47, 0
2, 302880, Note_on_c, 3, 45, 100
2, 302968, Note_on_c, 0, 86, 100
2, 303040, Note_on_c, 0, 62, 100
2, 303040, Note_on_c, 0, 73, 100
2, 303040, Note_on_c, 0, 98, 100
2, 303120, Note_on_c, 3, 45, 0
2, 303208, Note_on_c, 0, 86, 0
2, 303280, Note_on_c, 0, 62, 0
2, 303280, Note_on_c, 0, 73, 0
2, 303280, Note_on_c, 0, 98, 0
2, 303360, Note_on_c, 0, 62, 100
2, 303360, Note_on_c, 0, 74, 100
2, 303360, Note_on_c, 0, 87, 100
2, 303360, Note_on_c, 0, 97, 100
2, 303360, Note_on_c, 0, 99, 100
2, 303360, Note_on_c, 3, 47, 100
2, 303600, Note_on_c, 0, 62, 0
2, 303600, Note_on_c, 0, 74, 0
2, 303600, Note_on_c, 0, 87, 0
2, 303600, Note_on_c, 0, 97, 0
2, 303600, Note_on_c, 0, 99, 0
2, 303600, Note_on_c, 3, 47, 0
2, 304080, Note_on_c, 0, 108, 0
2, 304320, Note_on_c, 0, 62, 100
2, 304320, Note_on_c, 0, 74, 100
2, 304320, Note_on_c, 0, 85, 100
2, 304320, Note_on_c, 0, 87, 100
2, 304320, Note_on_c, 0, 97, 100
2, 304320, Note_on_c, 0, 99, 100
2, 304320, Note_on_c, 0, 108, 100
2, 304320, Note_on_c, 3, 47, 100
2, 304560, Note_on_c, 0, 62, 0
2, 304560, Note_on_c, 0, 74, 0
2, 304560, Note_on_c, 0, 85, 0
2, 304560, Note_on_c, 0, 87, 0
2, 304560, Note_on_c, 0, 97, 0
2, 304560, Note_on_c, 0, 99, 0
2, 304560, Note_on_c, 3, 47, 0
2, 304800, Note_on_c, 3, 45, 100
2, 304888, Note_on_c, 0, 86, 100
2, 304960, Note_on_c, 0, 62, 100
2, 304960, Note_on_c, 0, 73, 100
2, 304960, Note_on_c, 0, 98, 100
2, 305040, Note_on_c, 3, 45, 0
2, 305128, Note_on_c, 0, 86, 0
2, 305200, Note_on_c, 0, 62, 0
2, 305200, Note_on_c, 0, 73, 0
2, 305200, Note_on_c, 0, 98, 0
2, 305280, Note_on_c, 0, 62, 100
2, 305280, Note_on_c, 0, 74, 100
2, 305280, Note_on_c, 0, 87, 100
2, 305280, Note_on_c, 0, 97, 100
2, 305280, Note_on_c, 0, 99, 100
2, 305280, Note_on_c, 3, 47, 100
2, 305520, Note_on_c, 0, 62, 0
2, 305520, Note_on_c, 0, 74, 0
2, 305520, Note_on_c, 0, 87, 0
2, 305520, Note_on_c, 0, 97, 0
2, 305520, Note_on_c, 0, 99, 0
2, 305520, Note_on_c, 3, 47, 0
2, 305760, Note_on_c, 3, 45, 100
2, 305848, Note_on_c, 0, 86, 100
2, 305920, Note_on_c, 0, 73, 100
2, 305920, Note_on_c, 0, 98, 100
2, 306000, Note_on_c, 3, 45, 0
2, 306060, Note_on_c, 0, 108, 0
2, 306088, Note_on_c, 0, 86, 0
2, 306160, Note_on_c, 0, 73, 0
2, 306160, Note_on_c, 0, 98, 0
2, 306240, Note_on_c, 0, 62, 100
2, 306240, Note_on_c, 0, 74, 100
2, 306240, Note_on_c, 0, 87, 100
2, 306240, Note_on_c, 0, 97, 100
2, 306240, Note_on_c, 0, 99, 100
2, 306240, Note_on_c, 0, 108, 100
2, 306240, Note_on_c, 3, 47, 100
2, 306480, Note_on_c, 0, 62, 0
2, 306480, Note_on_c, 0, 74, 0
2, 306480, Note_on_c, 0, 87, 0
2, 306480, Note_on_c, 0, 97, 0
2, 306480, Note_on_c, 0, 99, 0
2, 306480, Note_on_c, 3, 47, 0
2, 306808, Note_on_c, 0, 87, 100
2, 306880, Note_on_c, 0, 62, 100
2, 306880, Note_on_c, 0, 99, 100
2, 306960, Note_on_c, 0, 74, 100
2, 307048, Note_on_c, 0, 87, 0
2, 307120, Note_on_c, 0, 62, 0
2, 307120, Note_on_c, 0, 99, 0
2, 307170, Note_on_c, 0, 70, 100
2, 307170, Note_on_c, 0, 82, 100
2, 307170, Note_on_c, 0, 94, 100
2, 307170, Note_on_c, 0, 106, 100
2, 307200, Text_t, "[chorus]"
2, 307200, Note_on_c, 0, 74, 0
2, 307200, Note_on_c, 0, 60, 100
2, 307200, Note_on_c, 0, 72, 100
2, 307200, Note_on_c, 0, 84, 100
2, 307200, Note_on_c, 0, 96, 100
2, 307200, Note_on_c, 0, 97, 100
2, 307200, Note_on_c, 3, 43, 100
2, 307440, Note_on_c, 0, 60, 0
2, 307440, Note_on_c, 0, 72, 0
2, 307440, Note_on_c, 0, 84, 0
2, 307440, Note_on_c, 0, 96, 0
2, 307440, Note_on_c, 0, 97, 0
2, 308160, Note_on_c, 0, 108, 0
2, 308160, Note_on_c, 0, 60, 100
2, 308160, Note_on_c, 0, 72, 100
2, 308160, Note_on_c, 0, 73, 100
2, 308160, Note_on_c, 0, 84, 100
2, 308160, Note_on_c, 0, 85, 100
2, 308160, Note_on_c, 0, 96, 100
2, 308160, Note_on_c, 0, 99, 100
2, 308400, Note_on_c, 0, 60, 0
2, 308400, Note_on_c, 0, 72, 0
2, 308400, Note_on_c, 0, 73, 0
2, 308400, Note_on_c, 0, 84, 0
2, 308400, Note_on_c, 0, 85, 0
2, 308400, Note_on_c, 0, 96, 0
2, 308400, Note_on_c, 0, 99, 0
2, 309120, Text_t, "sing_off"
2, 309120, Note_on_c, 0, 60, 100
2, 309120, Note_on_c, 0, 72, 100
2, 309120, Note_on_c, 0, 84, 100
2, 309120, Note_on_c, 0, 96, 100
2, 309120, Note_on_c, 0, 97, 100
2, 309360, Note_on_c, 0, 60, 0
2, 309360, Note_on_c, 0, 72, 0
2, 309360, Note_on_c, 0, 84, 0
2, 309360, Note_on_c, 0, 96, 0
2, 309360, Note_on_c, 0, 97, 0
2, 310080, Note_on_c, 0, 60, 100
2, 310080, Note_on_c, 0, 72, 100
2, 310080, Note_on_c, 0, 73, 100
2, 310080, Note_on_c, 0, 84, 100
2, 310080, Note_on_c, 0, 85, 100
2, 310080, Note_on_c, 0, 96, 100
2, 310080, Note_on_c, 0, 99, 100
2, 310320, Note_on_c, 0, 60, 0
2, 310320, Note_on_c, 0, 72, 0
2, 310320, Note_on_c, 0, 73, 0
2, 310320, Note_on_c, 0, 84, 0
2, 310320, Note_on_c, 0, 85, 0
2, 310320, Note_on_c, 0, 96, 0
2, 310320, Note_on_c, 0, 99, 0
2, 311040, Note_on_c, 0, 60, 100
2, 311040, Note_on_c, 0, 72, 100
2, 311040, Note_on_c, 0, 84, 100
2, 311040, Note_on_c, 0, 96, 100
2, 311040, Note_on_c, 0, 97, 100
2, 311280, Note_on_c, 0, 60, 0
2, 311280, Note_on_c, 0, 72, 0
2, 311280, Note_on_c, 0, 84, 0
2, 311280, Note_on_c, 0, 96, 0
2, 311280, Note_on_c, 0, 97, 0
2, 312000, Note_on_c, 0, 60, 100
2, 312000, Note_on_c, 0, 72, 100
2, 312000, Note_on_c, 0, 73, 100
2, 312000, Note_on_c, 0, 84, 100
2, 312000, Note_on_c, 0, 85, 100
2, 312000, Note_on_c, 0, 96, 100
2, 312000, Note_on_c, 0, 99, 100
2, 312240, Note_on_c, 0, 60, 0
2, 312240, Note_on_c, 0, 72, 0
2, 312240, Note_on_c, 0, 73, 0
2, 312240, Note_on_c, 0, 84, 0
2, 312240, Note_on_c, 0, 85, 0
2, 312240, Note_on_c, 0, 96, 0
2, 312240, Note_on_c, 0, 99, 0
2, 312960, Note_on_c, 0, 60, 100
2, 312960, Note_on_c, 0, 72, 100
2, 312960, Note_on_c, 0, 84, 100
2, 312960, Note_on_c, 0, 96, 100
2, 312960, Note_on_c, 0, 97, 100
2, 313200, Note_on_c, 0, 60, 0
2, 313200, Note_on_c, 0, 72, 0
2, 313200, Note_on_c, 0, 84, 0
2, 313200, Note_on_c, 0, 96, 0
2, 313200, Note_on_c, 0, 97, 0
2, 313920, Note_on_c, 0, 60, 100
2, 313920, Note_on_c, 0, 72, 100
2, 313920, Note_on_c, 0, 73, 100
2, 313920, Note_on_c, 0, 84, 100
2, 313920, Note_on_c, 0, 85, 100
2, 313920, Note_on_c, 0, 96, 100
2, 313920, Note_on_c, 0, 99, 100
2, 314160, Note_on_c, 0, 60, 0
2, 314160, Note_on_c, 0, 72, 0
2, 314160, Note_on_c, 0, 73, 0
2, 314160, Note_on_c, 0, 84, 0
2, 314160, Note_on_c, 0, 85, 0
2, 314160, Note_on_c, 0, 96, 0
2, 314160, Note_on_c, 0, 99, 0
2, 314400, Note_on_c, 3, 43, 0
2, 314488, Note_on_c, 0, 72, 100
2, 314488, Note_on_c, 0, 73, 100
2, 314488, Note_on_c, 0, 84, 100
2, 314488, Note_on_c, 0, 85, 100
2, 314560, Note_on_c, 0, 60, 100
2, 314560, Note_on_c, 0, 96, 100
2, 314560, Note_on_c, 0, 99, 100
2, 314728, Note_on_c, 0, 72, 0
2, 314728, Note_on_c, 0, 73, 0
2, 314728, Note_on_c, 0, 84, 0
2, 314728, Note_on_c, 0, 85, 0
2, 314800, Note_on_c, 0, 60, 0
2, 314800, Note_on_c, 0, 96, 0
2, 314800, Note_on_c, 0, 99, 0
2, 314880, Note_on_c, 0, 61, 100
2, 314880, Note_on_c, 0, 73, 100
2, 314880, Note_on_c, 0, 86, 100
2, 314880, Note_on_c, 0, 87, 100
2, 314880, Note_on_c, 0, 98, 100
2, 314880, Note_on_c, 0, 99, 100
2, 314880, Note_on_c, 3, 47, 100
2, 315120, Note_on_c, 0, 61, 0
2, 315120, Note_on_c, 0, 73, 0
2, 315120, Note_on_c, 0, 86, 0
2, 315120, Note_on_c, 0, 87, 0
2, 315120, Note_on_c, 0, 98, 0
2, 315120, Note_on_c, 0, 99, 0
2, 315840, Note_on_c, 0, 61, 100
2, 315840, Note_on_c, 0, 73, 100
2, 315840, Note_on_c, 0, 86, 100
2, 315840, Note_on_c, 0, 87, 100
2, 315840, Note_on_c, 0, 98, 100
2, 315840, Note_on_c, 0, 99, 100
2, 316080, Note_on_c, 0, 61, 0
2, 316080, Note_on_c, 0, 73, 0
2, 316080, Note_on_c, 0, 86, 0
2, 316080, Note_on_c, 0, 87, 0
2, 316080, Note_on_c, 0, 98, 0
2, 316080, Note_on_c, 0, 99, 0
2, 316800, Note_on_c, 0, 61, 100
2, 316800, Note_on_c, 0, 73, 100
2, 316800, Note_on_c, 0, 86, 100
2, 316800, Note_on_c, 0, 87, 100
2, 316800, Note_on_c, 0, 98, 100
2, 316800, Note_on_c, 0, 99, 100
2, 317040, Note_on_c, 0, 61, 0
2, 317040, Note_on_c, 0, 73, 0
2, 317040, Note_on_c, 0, 86, 0
2, 317040, Note_on_c, 0, 87, 0
2, 317040, Note_on_c, 0, 98, 0
2, 317040, Note_on_c, 0, 99, 0
2, 317440, Note_on_c, 0, 108, 100
2, 317760, Text_t, "sing_on"
2, 317760, Note_on_c, 0, 61, 100
2, 317760, Note_on_c, 0, 73, 100
2, 317760, Note_on_c, 0, 86, 100
2, 317760, Note_on_c, 0, 87, 100
2, 317760, Note_on_c, 0, 98, 100
2, 317760, Note_on_c, 0, 99, 100
2, 318000, Note_on_c, 0, 61, 0
2, 318000, Note_on_c, 0, 73, 0
2, 318000, Note_on_c, 0, 86, 0
2, 318000, Note_on_c, 0, 87, 0
2, 318000, Note_on_c, 0, 98, 0
2, 318000, Note_on_c, 0, 99, 0
2, 318720, Note_on_c, 0, 61, 100
2, 318720, Note_on_c, 0, 73, 100
2, 318720, Note_on_c, 0, 86, 100
2, 318720, Note_on_c, 0, 87, 100
2, 318720, Note_on_c, 0, 98, 100
2, 318720, Note_on_c, 0, 99, 100
2, 318960, Note_on_c, 0, 61, 0
2, 318960, Note_on_c, 0, 73, 0
2, 318960, Note_on_c, 0, 86, 0
2, 318960, Note_on_c, 0, 87, 0
2, 318960, Note_on_c, 0, 98, 0
2, 318960, Note_on_c, 0, 99, 0
2, 319360, Note_on_c, 0, 108, 0
2, 319680, Note_on_c, 0, 61, 100
2, 319680, Note_on_c, 0, 73, 100
2, 319680, Note_on_c, 0, 86, 100
2, 319680, Note_on_c, 0, 87, 100
2, 319680, Note_on_c, 0, 98, 100
2, 319680, Note_on_c, 0, 99, 100
2, 319680, Note_on_c, 0, 108, 100
2, 319920, Note_on_c, 0, 61, 0
2, 319920, Note_on_c, 0, 73, 0
2, 319920, Note_on_c, 0, 86, 0
2, 319920, Note_on_c, 0, 87, 0
2, 319920, Note_on_c, 0, 98, 0
2, 319920, Note_on_c, 0, 99, 0
2, 320248, Note_on_c, 0, 86, 100
2, 320320, Note_on_c, 0, 72, 100
2, 320320, Note_on_c, 0, 97, 100
2, 320320, Note_on_c, 0, 98, 100
2, 320488, Note_on_c, 0, 86, 0
2, 320560, Note_on_c, 0, 72, 0
2, 320560, Note_on_c, 0, 97, 0
2, 320560, Note_on_c, 0, 98, 0
2, 320640, Note_on_c, 0, 61, 100
2, 320640, Note_on_c, 0, 73, 100
2, 320640, Note_on_c, 0, 86, 100
2, 320640, Note_on_c, 0, 87, 100
2, 320640, Note_on_c, 0, 98, 100
2, 320640, Note_on_c, 0, 99, 100
2, 320880, Note_on_c, 0, 61, 0
2, 320880, Note_on_c, 0, 73, 0
2, 320880, Note_on_c, 0, 86, 0
2, 320880, Note_on_c, 0, 87, 0
2, 320880, Note_on_c, 0, 98, 0
2, 320880, Note_on_c, 0, 99, 0
2, 321208, Note_on_c, 0, 86, 100
2, 321280, Note_on_c, 0, 72, 100
2, 321280, Note_on_c, 0, 97, 100
2, 321280, Note_on_c, 0, 98, 100
2, 321420, Note_on_c, 0, 108, 0
2, 321448, Note_on_c, 0, 86, 0
2, 321520, Note_on_c, 0, 72, 0
2, 321520, Note_on_c, 0, 97, 0
2, 321520, Note_on_c, 0, 98, 0
2, 321600, Note_on_c, 0, 61, 100
2, 321600, Note_on_c, 0, 73, 100
2, 321600, Note_on_c, 0, 86, 100
2, 321600, Note_on_c, 0, 87, 100
2, 321600, Note_on_c, 0, 98, 100
2, 321600, Note_on_c, 0, 99, 100
2, 321600, Note_on_c, 0, 108, 100
2, 321840, Note_on_c, 0, 61, 0
2, 321840, Note_on_c, 0, 73, 0
2, 321840, Note_on_c, 0, 86, 0
2, 321840, Note_on_c, 0, 87, 0
2, 321840, Note_on_c, 0, 98, 0
2, 321840, Note_on_c, 0, 99, 0
2, 322080, Note_on_c, 3, 47, 0
2, 322168, Note_on_c, 0, 86, 100
2, 322168, Note_on_c, 0, 87, 100
2, 322240, Note_on_c, 0, 61, 100
2, 322240, Note_on_c, 0, 73, 100
2, 322240, Note_on_c, 0, 98, 100
2, 322240, Note_on_c, 0, 99, 100
2, 322408, Note_on_c, 0, 86, 0
2, 322408, Note_on_c, 0, 87, 0
2, 322480, Note_on_c, 0, 61, 0
2, 322480, Note_on_c, 0, 73, 0
2, 322480, Note_on_c, 0, 98, 0
2, 322480, Note_on_c, 0, 99, 0
2, 322530, Note_on_c, 0, 69, 0
2, 322530, Note_on_c, 0, 81, 0
2, 322530, Note_on_c, 0, 93, 0
2, 322530, Note_on_c, 0, 105, 0
2, 322560, Text_t, "[verse]"
2, 322560, Note_on_c, 0, 60, 100
2, 322560, Note_on_c, 0, 72, 100
2, 322560, Note_on_c, 0, 84, 100
2, 322560, Note_on_c, 0, 96, 100
2, 322800, Note_on_c, 0, 60, 0
2, 322800, Note_on_c, 0, 72, 0
2, 322800, Note_on_c, 0, 84, 0
2, 322800, Note_on_c, 0, 96, 0
2, 323520, Note_on_c, 0, 62, 100
2, 323520, Note_on_c, 0, 72, 100
2, 323520, Note_on_c, 0, 74, 100
2, 323520, Note_on_c, 0, 85, 100
2, 323520, Note_on_c, 0, 87, 100
2, 323520, Note_on_c, 0, 97, 100
2, 323520, Note_on_c, 0, 99, 100
2, 323520, Note_on_c, 3, 49, 100
2, 323760, Note_on_c, 0, 62, 0
2, 323760, Note_on_c, 0, 72, 0
2, 323760, Note_on_c, 0, 74, 0
2, 323760, Note_on_c, 0, 85, 0
2, 323760, Note_on_c, 0, 87, 0
2, 323760, Note_on_c, 0, 97, 0
2, 323760, Note_on_c, 0, 99, 0
2, 324120, Note_on_c, 0, 108, 0
2, 324480, Text_t, "sing_off"
2, 324480, Note_on_c, 0, 62, 100
2, 324480, Note_on_c, 0, 74, 100
2, 324480, Note_on_c, 0, 85, 100
2, 324480, Note_on_c, 0, 87, 100
2, 324480, Note_on_c, 0, 97, 100
2, 324480, Note_on_c, 0, 99, 100
2, 324720, Note_on_c, 3, 49, 0
2, 324720, Note_on_c, 0, 62, 0
2, 324720, Note_on_c, 0, 74, 0
2, 324720, Note_on_c, 0, 85, 0
2, 324720, Note_on_c, 0, 87, 0
2, 324720, Note_on_c, 0, 97, 0
2, 324720, Note_on_c, 0, 99, 0
2, 325048, Note_on_c, 0, 86, 100
2, 325120, Note_on_c, 0, 73, 100
2, 325120, Note_on_c, 0, 98, 100
2, 325288, Note_on_c, 0, 86, 0
2, 325360, Note_on_c, 0, 73, 0
2, 325360, Note_on_c, 0, 98, 0
2, 325440, Note_on_c, 0, 60, 100
2, 325440, Note_on_c, 0, 72, 100
2, 325440, Note_on_c, 0, 85, 100
2, 325440, Note_on_c, 0, 97, 100
2, 325440, Note_on_c, 3, 47, 100
2, 325680, Note_on_c, 0, 60, 0
2, 325680, Note_on_c, 0, 72, 0
2, 325680, Note_on_c, 0, 85, 0
2, 325680, Note_on_c, 0, 97, 0
2, 325920, Note_on_c, 3, 47, 0
2, 326400, Note_on_c, 0, 62, 100
2, 326400, Note_on_c, 0, 72, 100
2, 326400, Note_on_c, 0, 74, 100
2, 326400, Note_on_c, 0, 85, 100
2, 326400, Note_on_c, 0, 87, 100
2, 326400, Note_on_c, 0, 97, 100
2, 326400, Note_on_c, 0, 99, 100
2, 326400, Note_on_c, 3, 49, 100
2, 326640, Note_on_c, 0, 62, 0
2, 326640, Note_on_c, 0, 72, 0
2, 326640, Note_on_c, 0, 74, 0
2, 326640, Note_on_c, 0, 85, 0
2, 326640, Note_on_c, 0, 87, 0
2, 326640, Note_on_c, 0, 97, 0
2, 326640, Note_on_c, 0, 99, 0
2, 327360, Note_on_c, 0, 62, 100
2, 327360, Note_on_c, 0, 74, 100
2, 327360, Note_on_c, 0, 85, 100
2, 327360, Note_on_c, 0, 87, 100
2, 327360, Note_on_c, 0, 97, 100
2, 327360, Note_on_c, 0, 99, 100
2, 327600, Note_on_c, 3, 49, 0
2, 327600, Note_on_c, 0, 62, 0
2, 327600, Note_on_c, 0, 74, 0
2, 327600, Note_on_c, 0, 85, 0
2, 327600, Note_on_c, 0, 87, 0
2, 327600, Note_on_c, 0, 97, 0
2, 327600, Note_on_c, 0, 99, 0
2, 327928, Note_on_c, 0, 85, 100
2, 327970, Note_on_c, 0, 69, 100
2, 327970, Note_on_c, 0, 81, 100
2, 327970, Note_on_c, 0, 93, 100
2, 327970, Note_on_c, 0, 105, 100
2, 328000, Note_on_c, 0, 73, 100
2, 328000, Note_on_c, 0, 96, 100
2, 328168, Note_on_c, 0, 85, 0
2, 328240, Note_on_c, 0, 73, 0
2, 328240, Note_on_c, 0, 96, 0
2, 328320, Note_on_c, 0, 60, 100
2, 328320, Note_on_c, 0, 72, 100
2, 328320, Note_on_c, 0, 84, 100
2, 328320, Note_on_c, 0, 97, 100
2, 328320, Note_on_c, 3, 40, 100
2, 328560, Note_on_c, 0, 72, 0
2, 328560, Note_on_c, 0, 84, 0
2, 328560, Note_on_c, 0, 97, 0
2, 328560, Note_on_c, 3, 40, 0
2, 328640, Note_on_c, 0, 85, 100
2, 328640, Note_on_c, 0, 98, 100
2, 328880, Note_on_c, 0, 85, 0
2, 328880, Note_on_c, 0, 98, 0
2, 328960, Note_on_c, 0, 73, 100
2, 328960, Note_on_c, 0, 86, 100
2, 328960, Note_on_c, 0, 99, 100
2, 329120, Note_on_c, 0, 60, 0
2, 329128, Note_on_c, 0, 73, 0
2, 329200, Note_on_c, 0, 86, 0
2, 329200, Note_on_c, 0, 99, 0
2, 329280, Note_on_c, 0, 61, 100
2, 329280, Note_on_c, 0, 74, 100
2, 329280, Note_on_c, 0, 87, 100
2, 329280, Note_on_c, 0, 100, 100
2, 329280, Note_on_c, 3, 47, 100
2, 329520, Note_on_c, 0, 74, 0
2, 329520, Note_on_c, 0, 87, 0
2, 329520, Note_on_c, 0, 100, 0
2, 329520, Note_on_c, 3, 47, 0
2, 329600, Note_on_c, 0, 86, 100
2, 329600, Note_on_c, 0, 99, 100
2, 329840, Note_on_c, 0, 86, 0
2, 329840, Note_on_c, 0, 99, 0
2, 329920, Note_on_c, 0, 73, 100
2, 329920, Note_on_c, 0, 85, 100
2, 329920, Note_on_c, 0, 98, 100
2, 330080, Note_on_c, 0, 61, 0
2, 330160, Note_on_c, 0, 73, 0
2, 330160, Note_on_c, 0, 85, 0
2, 330160, Note_on_c, 0, 98, 0
2, 330240, Note_on_c, 0, 60, 100
2, 330240, Note_on_c, 0, 72, 100
2, 330240, Note_on_c, 0, 84, 100
2, 330240, Note_on_c, 0, 96, 100
2, 330240, Note_on_c, 3, 40, 100
2, 330480, Note_on_c, 0, 60, 0
2, 330480, Note_on_c, 0, 72, 0
2, 330480, Note_on_c, 0, 84, 0
2, 330480, Note_on_c, 0, 96, 0
2, 330480, Note_on_c, 3, 40, 0
2, 330530, Note_on_c, 0, 70, 0
2, 330530, Note_on_c, 0, 82, 0
2, 330530, Note_on_c, 0, 94, 0
2, 330530, Note_on_c, 0, 106, 0
2, 331200, Note_on_c, 0, 62, 100
2, 331200, Note_on_c, 0, 72, 100
2, 331200, Note_on_c, 0, 74, 100
2, 331200, Note_on_c, 0, 85, 100
2, 331200, Note_on_c, 0, 87, 100
2, 331200, Note_on_c, 0, 97, 100
2, 331200, Note_on_c, 0, 99, 100
2, 331200, Note_on_c, 3, 49, 100
2, 331440, Note_on_c, 0, 62, 0
2, 331440, Note_on_c, 0, 72, 0
2, 331440, Note_on_c, 0, 74, 0
2, 331440, Note_on_c, 0, 85, 0
2, 331440, Note_on_c, 0, 87, 0
2, 331440, Note_on_c, 0, 97, 0
2, 331440, Note_on_c, 0, 99, 0
2, 332160, Note_on_c, 0, 62, 100
2, 332160, Note_on_c, 0, 74, 100
2, 332160, Note_on_c, 0, 85, 100
2, 332160, Note_on_c, 0, 87, 100
2, 332160, Note_on_c, 0, 97, 100
2, 332160, Note_on_c, 0, 99, 100
2, 332400, Note_on_c, 3, 49, 0
2, 332400, Note_on_c, 0, 62, 0
2, 332400, Note_on_c, 0, 74, 0
2, 332400, Note_on_c, 0, 85, 0
2, 332400, Note_on_c, 0, 87, 0
2, 332400, Note_on_c, 0, 97, 0
2, 332400, Note_on_c, 0, 99, 0
2, 332800, Note_on_c, 0, 73, 100
2, 332800, Note_on_c, 0, 86, 100
2, 332800, Note_on_c, 0, 98, 100
2, 333040, Note_on_c, 0, 73, 0
2, 333040, Note_on_c, 0, 86, 0
2, 333040, Note_on_c, 0, 98, 0
2, 333120, Note_on_c, 0, 60, 100
2, 333120, Note_on_c, 0, 72, 100
2, 333120, Note_on_c, 0, 85, 100
2, 333120, Note_on_c, 0, 97, 100
2, 333120, Note_on_c, 3, 47, 100
2, 333360, Note_on_c, 0, 60, 0
2, 333360, Note_on_c, 0, 72, 0
2, 333360, Note_on_c, 0, 85, 0
2, 333360, Note_on_c, 0, 97, 0
2, 333600, Note_on_c, 3, 47, 0
2, 333890, Note_on_c, 0, 69, 0
2, 333890, Note_on_c, 0, 81, 0
2, 333890, Note_on_c, 0, 93, 0
2, 333890, Note_on_c, 0, 105, 0
2, 334050, Note_on_c, 0, 67, 100
2, 334050, Note_on_c, 0, 70, 100
2, 334050, Note_on_c, 0, 79, 100
2, 334050, Note_on_c, 0, 82, 100
2, 334050, Note_on_c, 0, 91, 100
2, 334050, Note_on_c, 0, 94, 100
2, 334050, Note_on_c, 0, 103, 100
2, 334050, Note_on_c, 0, 106, 100
2, 334080, Note_on_c, 0, 61, 100
2, 334080, Note_on_c, 0, 74, 100
2, 334080, Note_on_c, 0, 86, 100
2, 334080, Note_on_c, 0, 98, 100
2, 334080, Note_on_c, 3, 49, 100
2, 334320, Note_on_c, 0, 61, 0
2, 334320, Note_on_c, 0, 74, 0
2, 334320, Note_on_c, 0, 86, 0
2, 334320, Note_on_c, 0, 98, 0
2, 334560, Note_on_c, 3, 49, 0
2, 335040, Note_on_c, 0, 62, 100
2, 335040, Note_on_c, 0, 75, 100
2, 335040, Note_on_c, 0, 87, 100
2, 335040, Note_on_c, 0, 88, 100
2, 335040, Note_on_c, 0, 99, 100
2, 335040, Note_on_c, 0, 100, 100
2, 335040, Note_on_c, 3, 53, 100
2, 337890, Note_on_c, 0, 67, 0
2, 337890, Note_on_c, 0, 70, 0
2, 337890, Note_on_c, 0, 79, 0
2, 337890, Note_on_c, 0, 82, 0
2, 337890, Note_on_c, 0, 91, 0
2, 337890, Note_on_c, 0, 94, 0
2, 337890, Note_on_c, 0, 103, 0
2, 337890, Note_on_c, 0, 106, 0
2, 337890, Note_on_c, 0, 69, 100
2, 337890, Note_on_c, 0, 81, 100
2, 337890, Note_on_c, 0, 93, 100
2, 337890, Note_on_c, 0, 105, 100
2, 337920, Text_t, "[section verse_4]"
2, 337920, Note_on_c, 0, 62, 0
2, 337920, Note_on_c, 0, 75, 0
2, 337920, Note_on_c, 0, 87, 0
2, 337920, Note_on_c, 0, 88, 0
2, 337920, Note_on_c, 0, 99, 0
2, 337920, Note_on_c, 0, 100, 0
2, 337920, Note_on_c, 3, 53, 0
2, 337920, Note_on_c, 0, 60, 100
2, 337920, Note_on_c, 0, 72, 100
2, 337920, Note_on_c, 0, 84, 100
2, 337920, Note_on_c, 0, 96, 100
2, 338160, Note_on_c, 0, 60, 0
2, 338160, Note_on_c, 0, 72, 0
2, 338160, Note_on_c, 0, 84, 0
2, 338160, Note_on_c, 0, 96, 0
2, 338880, Note_on_c, 0, 62, 100
2, 338880, Note_on_c, 0, 72, 100
2, 338880, Note_on_c, 0, 74, 100
2, 338880, Note_on_c, 0, 85, 100
2, 338880, Note_on_c, 0, 87, 100
2, 338880, Note_on_c, 0, 97, 100
2, 338880, Note_on_c, 0, 99, 100
2, 338880, Note_on_c, 3, 47, 100
2, 339120, Note_on_c, 0, 62, 0
2, 339120, Note_on_c, 0, 72, 0
2, 339120, Note_on_c, 0, 74, 0
2, 339120, Note_on_c, 0, 85, 0
2, 339120, Note_on_c, 0, 87, 0
2, 339120, Note_on_c, 0, 97, 0
2, 339120, Note_on_c, 0, 99, 0
2, 339520, Note_on_c, 0, 108, 100
2, 339840, Text_t, "sing_on"
2, 339840, Note_on_c, 3, 47, 0
2, 339840, Note_on_c, 0, 60, 100
2, 339840, Note_on_c, 0, 72, 100
2, 339840, Note_on_c, 0, 84, 100
2, 339840, Note_on_c, 0, 96, 100
2, 340080, Note_on_c, 0, 60, 0
2, 340080, Note_on_c, 0, 72, 0
2, 340080, Note_on_c, 0, 84, 0
2, 340080, Note_on_c, 0, 96, 0
2, 340600, Note_on_c, 0, 108, 0
2, 340800, Note_on_c, 0, 62, 100
2, 340800, Note_on_c, 0, 72, 100
2, 340800, Note_on_c, 0, 74, 100
2, 340800, Note_on_c, 0, 85, 100
2, 340800, Note_on_c, 0, 87, 100
2, 340800, Note_on_c, 0, 97, 100
2, 340800, Note_on_c, 0, 99, 100
2, 340800, Note_on_c, 0, 108, 100
2, 340800, Note_on_c, 3, 47, 100
2, 341040, Note_on_c, 0, 62, 0
2, 341040, Note_on_c, 0, 72, 0
2, 341040, Note_on_c, 0, 74, 0
2, 341040, Note_on_c, 0, 85, 0
2, 341040, Note_on_c, 0, 87, 0
2, 341040, Note_on_c, 0, 97, 0
2, 341040, Note_on_c, 0, 99, 0
2, 341760, Note_on_c, 3, 47, 0
2, 341760, Note_on_c, 0, 60, 100
2, 341760, Note_on_c, 0, 72, 100
2, 341760, Note_on_c, 0, 84, 100
2, 341760, Note_on_c, 0, 96, 100
2, 342000, Note_on_c, 0, 60, 0
2, 342000, Note_on_c, 0, 72, 0
2, 342000, Note_on_c, 0, 84, 0
2, 342000, Note_on_c, 0, 96, 0
2, 342360, Note_on_c, 0, 108, 0
2, 342720, Note_on_c, 0, 62, 100
2, 342720, Note_on_c, 0, 72, 100
2, 342720, Note_on_c, 0, 74, 100
2, 342720, Note_on_c, 0, 85, 100
2, 342720, Note_on_c, 0, 87, 100
2, 342720, Note_on_c, 0, 97, 100
2, 342720, Note_on_c, 0, 99, 100
2, 342720, Note_on_c, 0, 108, 100
2, 342720, Note_on_c, 3, 47, 100
2, 342960, Note_on_c, 0, 62, 0
2, 342960, Note_on_c, 0, 72, 0
2, 342960, Note_on_c, 0, 74, 0
2, 342960, Note_on_c, 0, 85, 0
2, 342960, Note_on_c, 0, 87, 0
2, 342960, Note_on_c, 0, 97, 0
2, 342960, Note_on_c, 0, 99, 0
2, 343680, Note_on_c, 3, 47, 0
2, 343680, Note_on_c, 0, 60, 100
2, 343680, Note_on_c, 0, 72, 100
2, 343680, Note_on_c, 0, 84, 100
2, 343680, Note_on_c, 0, 96, 100
2, 343920, Note_on_c, 0, 60, 0
2, 343920, Note_on_c, 0, 72, 0
2, 343920, Note_on_c, 0, 84, 0
2, 343920, Note_on_c, 0, 96, 0
2, 344400, Note_on_c, 0, 108, 0
2, 344480, Note_on_c, 0, 108, 100
2, 344640, Note_on_c, 0, 62, 100
2, 344640, Note_on_c, 0, 74, 100
2, 344640, Note_on_c, 0, 87, 100
2, 344640, Note_on_c, 0, 97, 100
2, 344640, Note_on_c, 0, 99, 100
2, 344640, Note_on_c, 3, 47, 100
2, 344880, Note_on_c, 0, 62, 0
2, 344880, Note_on_c, 0, 74, 0
2, 344880, Note_on_c, 0, 87, 0
2, 344880, Note_on_c, 0, 97, 0
2, 344880, Note_on_c, 0, 99, 0
2, 344880, Note_on_c, 3, 47, 0
2, 345120, Note_on_c, 3, 45, 100
2, 345208, Note_on_c, 0, 73, 100
2, 345208, Note_on_c, 0, 86, 100
2, 345280, Note_on_c, 0, 61, 100
2, 345280, Note_on_c, 0, 98, 100
2, 345360, Note_on_c, 3, 45, 0
2, 345448, Note_on_c, 0, 73, 0
2, 345448, Note_on_c, 0, 86, 0
2, 345520, Note_on_c, 0, 61, 0
2, 345520, Note_on_c, 0, 98, 0
2, 345570, Note_on_c, 0, 70, 100
2, 345570, Note_on_c, 0, 82, 100
2, 345570, Note_on_c, 0, 94, 100
2, 345570, Note_on_c, 0, 106, 100
2, 345600, Note_on_c, 0, 62, 100
2, 345600, Note_on_c, 0, 74, 100
2, 345600, Note_on_c, 0, 87, 100
2, 345600, Note_on_c, 0, 97, 100
2, 345600, Note_on_c, 0, 99, 100
2, 345600, Note_on_c, 3, 47, 100
2, 345840, Note_on_c, 0, 62, 0
2, 345840, Note_on_c, 0, 74, 0
2, 345840, Note_on_c, 0, 87, 0
2, 345840, Note_on_c, 0, 97, 0
2, 345840, Note_on_c, 0, 99, 0
2, 345840, Note_on_c, 3, 47, 0
2, 346280, Note_on_c, 0, 108, 0
2, 346530, Note_on_c, 0, 69, 0
2, 346530, Note_on_c, 0, 81, 0
2, 346530, Note_on_c, 0, 93, 0
2, 346530, Note_on_c, 0, 105, 0
2, 346560, Note_on_c, 0, 62, 100
2, 346560, Note_on_c, 0, 74, 100
2, 346560, Note_on_c, 0, 85, 100
2, 346560, Note_on_c, 0, 87, 100
2, 346560, Note_on_c, 0, 97, 100
2, 346560, Note_on_c, 0, 99, 100
2, 346560, Note_on_c, 3, 47, 100
2, 346800, Note_on_c, 0, 62, 0
2, 346800, Note_on_c, 0, 74, 0
2, 346800, Note_on_c, 0, 85, 0
2, 346800, Note_on_c, 0, 87, 0
2, 346800, Note_on_c, 0, 97, 0
2, 346800, Note_on_c, 0, 99, 0
2, 347520, Note_on_c, 3, 47, 0
2, 347520, Note_on_c, 0, 60, 100
2, 347520, Note_on_c, 0, 72, 100
2, 347520, Note_on_c, 0, 84, 100
2, 347520, Note_on_c, 0, 96, 100
2, 347520, Note_on_c, 0, 108, 100
2, 347760, Note_on_c, 0, 60, 0
2, 347760, Note_on_c, 0, 72, 0
2, 347760, Note_on_c, 0, 84, 0
2, 347760, Note_on_c, 0, 96, 0
2, 348000, Note_on_c, 0, 108, 0
2, 348480, Note_on_c, 0, 62, 100
2, 348480, Note_on_c, 0, 72, 100
2, 348480, Note_on_c, 0, 74, 100
2, 348480, Note_on_c, 0, 85, 100
2, 348480, Note_on_c, 0, 87, 100
2, 348480, Note_on_c, 0, 97, 100
2, 348480, Note_on_c, 0, 99, 100
2, 348480, Note_on_c, 0, 108, 100
2, 348480, Note_on_c, 3, 47, 100
2, 348720, Note_on_c, 0, 62, 0
2, 348720, Note_on_c, 0, 72, 0
2, 348720, Note_on_c, 0, 74, 0
2, 348720, Note_on_c, 0, 85, 0
2, 348720, Note_on_c, 0, 87, 0
2, 348720, Note_on_c, 0, 97, 0
2, 348720, Note_on_c, 0, 99, 0
2, 349440, Note_on_c, 3, 47, 0
2, 349440, Note_on_c, 0, 60, 100
2, 349440, Note_on_c, 0, 72, 100
2, 349440, Note_on_c, 0, 84, 100
2, 349440, Note_on_c, 0, 96, 100
2, 349680, Note_on_c, 0, 60, 0
2, 349680, Note_on_c, 0, 72, 0
2, 349680, Note_on_c, 0, 84, 0
2, 349680, Note_on_c, 0, 96, 0
2, 349920, Note_on_c, 0, 108, 0
2, 350080, Note_on_c, 0, 108, 100
2, 350400, Note_on_c, 0, 62, 100
2, 350400, Note_on_c, 0, 72, 100
2, 350400, Note_on_c, 0, 74, 100
2, 350400, Note_on_c, 0, 85, 100
2, 350400, Note_on_c, 0, 87, 100
2, 350400, Note_on_c, 0, 97, 100
2, 350400, Note_on_c, 0, 99, 100
2, 350400, Note_on_c, 3, 47, 100
2, 350640, Note_on_c, 0, 62, 0
2, 350640, Note_on_c, 0, 72, 0
2, 350640, Note_on_c, 0, 74, 0
2, 350640, Note_on_c, 0, 85, 0
2, 350640, Note_on_c, 0, 87, 0
2, 350640, Note_on_c, 0, 97, 0
2, 350640, Note_on_c, 0, 99, 0
2, 351360, Note_on_c, 3, 47, 0
2, 351360, Note_on_c, 0, 60, 100
2, 351360, Note_on_c, 0, 72, 100
2, 351360, Note_on_c, 0, 84, 100
2, 351360, Note_on_c, 0, 96, 100
2, 351600, Note_on_c, 0, 60, 0
2, 351600, Note_on_c, 0, 72, 0
2, 351600, Note_on_c, 0, 84, 0
2, 351600, Note_on_c, 0, 96, 0
2, 352240, Note_on_c, 0, 108, 0
2, 352320, Note_on_c, 0, 62, 100
2, 352320, Note_on_c, 0, 74, 100
2, 352320, Note_on_c, 0, 87, 100
2, 352320, Note_on_c, 0, 97, 100
2, 352320, Note_on_c, 0, 99, 100
2, 352320, Note_on_c, 3, 47, 100
2, 352560, Note_on_c, 0, 62, 0
2, 352560, Note_on_c, 0, 74, 0
2, 352560, Note_on_c, 0, 87, 0
2, 352560, Note_on_c, 0, 97, 0
2, 352560, Note_on_c, 0, 99, 0
2, 352560, Note_on_c, 3, 47, 0
2, 352800, Note_on_c, 3, 45, 100
2, 352886, Note_on_c, 0, 75, 100
2, 352886, Note_on_c, 0, 88, 100
2, 352960, Note_on_c, 0, 62, 100
2, 352960, Note_on_c, 0, 100, 100
2, 353040, Note_on_c, 3, 45, 0
2, 353126, Note_on_c, 0, 75, 0
2, 353126, Note_on_c, 0, 88, 0
2, 353200, Note_on_c, 0, 62, 0
2, 353200, Note_on_c, 0, 100, 0
2, 353250, Note_on_c, 0, 69, 100
2, 353250, Note_on_c, 0, 81, 100
2, 353250, Note_on_c, 0, 93, 100
2, 353250, Note_on_c, 0, 105, 100
2, 353280, Note_on_c, 0, 62, 100
2, 353280, Note_on_c, 0, 74, 100
2, 353280, Note_on_c, 0, 87, 100
2, 353280, Note_on_c, 0, 97, 100
2, 353280, Note_on_c, 0, 99, 100
2, 353280, Note_on_c, 3, 47, 100
2, 353520, Note_on_c, 0, 62, 0
2, 353520, Note_on_c, 0, 74, 0
2, 353520, Note_on_c, 0, 87, 0
2, 353520, Note_on_c, 0, 97, 0
2, 353520, Note_on_c, 0, 99, 0
2, 353520, Note_on_c, 3, 47, 0
2, 354210, Note_on_c, 0, 70, 0
2, 354210, Note_on_c, 0, 82, 0
2, 354210, Note_on_c, 0, 94, 0
2, 354210, Note_on_c, 0, 106, 0
2, 354240, Note_on_c, 0, 62, 100
2, 354240, Note_on_c, 0, 74, 100
2, 354240, Note_on_c, 0, 85, 100
2, 354240, Note_on_c, 0, 87, 100
2, 354240, Note_on_c, 0, 97, 100
2, 354240, Note_on_c, 0, 99, 100
2, 354240, Note_on_c, 3, 47, 100
2, 354480, Note_on_c, 0, 62, 0
2, 354480, Note_on_c, 0, 74, 0
2, 354480, Note_on_c, 0, 85, 0
2, 354480, Note_on_c, 0, 87, 0
2, 354480, Note_on_c, 0, 97, 0
2, 354480, Note_on_c, 0, 99, 0
2, 355200, Note_on_c, 3, 47, 0
2, 355200, Note_on_c, 0, 60, 100
2, 355200, Note_on_c, 0, 72, 100
2, 355200, Note_on_c, 0, 84, 100
2, 355200, Note_on_c, 0, 96, 100
2, 355440, Note_on_c, 0, 60, 0
2, 355440, Note_on_c, 0, 72, 0
2, 355440, Note_on_c, 0, 84, 0
2, 355440, Note_on_c, 0, 96, 0
2, 356160, Note_on_c, 0, 62, 100
2, 356160, Note_on_c, 0, 72, 100
2, 356160, Note_on_c, 0, 74, 100
2, 356160, Note_on_c, 0, 85, 100
2, 356160, Note_on_c, 0, 87, 100
2, 356160, Note_on_c, 0, 97, 100
2, 356160, Note_on_c, 0, 99, 100
2, 356160, Note_on_c, 0, 108, 100
2, 356160, Note_on_c, 3, 47, 100
2, 356400, Note_on_c, 0, 62, 0
2, 356400, Note_on_c, 0, 72, 0
2, 356400, Note_on_c, 0, 74, 0
2, 356400, Note_on_c, 0, 85, 0
2, 356400, Note_on_c, 0, 87, 0
2, 356400, Note_on_c, 0, 97, 0
2, 356400, Note_on_c, 0, 99, 0
2, 357120, Note_on_c, 3, 47, 0
2, 357120, Note_on_c, 0, 60, 100
2, 357120, Note_on_c, 0, 72, 100
2, 357120, Note_on_c, 0, 84, 100
2, 357120, Note_on_c, 0, 96, 100
2, 357360, Note_on_c, 0, 60, 0
2, 357360, Note_on_c, 0, 72, 0
2, 357360, Note_on_c, 0, 84, 0
2, 357360, Note_on_c, 0, 96, 0
2, 357900, Note_on_c, 0, 108, 0
2, 358080, Note_on_c, 0, 62, 100
2, 358080, Note_on_c, 0, 72, 100
2, 358080, Note_on_c, 0, 74, 100
2, 358080, Note_on_c, 0, 85, 100
2, 358080, Note_on_c, 0, 87, 100
2, 358080, Note_on_c, 0, 97, 100
2, 358080, Note_on_c, 0, 99, 100
2, 358080, Note_on_c, 0, 108, 100
2, 358080, Note_on_c, 3, 47, 100
2, 358320, Note_on_c, 0, 62, 0
2, 358320, Note_on_c, 0, 72, 0
2, 358320, Note_on_c, 0, 74, 0
2, 358320, Note_on_c, 0, 85, 0
2, 358320, Note_on_c, 0, 87, 0
2, 358320, Note_on_c, 0, 97, 0
2, 358320, Note_on_c, 0, 99, 0
2, 359040, Note_on_c, 3, 47, 0
2, 359040, Note_on_c, 0, 60, 100
2, 359040, Note_on_c, 0, 72, 100
2, 359040, Note_on_c, 0, 84, 100
2, 359040, Note_on_c, 0, 96, 100
2, 359280, Note_on_c, 0, 60, 0
2, 359280, Note_on_c, 0, 72, 0
2, 359280, Note_on_c, 0, 84, 0
2, 359280, Note_on_c, 0, 96, 0
2, 359820, Note_on_c, 0, 108, 0
2, 360000, Note_on_c, 0, 62, 100
2, 360000, Note_on_c, 0, 74, 100
2, 360000, Note_on_c, 0, 87, 100
2, 360000, Note_on_c, 0, 97, 100
2, 360000, Note_on_c, 0, 99, 100
2, 360000, Note_on_c, 0, 108, 100
2, 360000, Note_on_c, 3, 47, 100
2, 360240, Note_on_c, 0, 62, 0
2, 360240, Note_on_c, 0, 74, 0
2, 360240, Note_on_c, 0, 87, 0
2, 360240, Note_on_c, 0, 97, 0
2, 360240, Note_on_c, 0, 99, 0
2, 360240, Note_on_c, 3, 47, 0
2, 360480, Note_on_c, 3, 45, 100
2, 360568, Note_on_c, 0, 73, 100
2, 360568, Note_on_c, 0, 86, 100
2, 360640, Note_on_c, 0, 61, 100
2, 360640, Note_on_c, 0, 98, 100
2, 360720, Note_on_c, 3, 45, 0
2, 360808, Note_on_c, 0, 73, 0
2, 360808, Note_on_c, 0, 86, 0
2, 360880, Note_on_c, 0, 61, 0
2, 360880, Note_on_c, 0, 98, 0
2, 360930, Note_on_c, 0, 70, 100
2, 360930, Note_on_c, 0, 82, 100
2, 360930, Note_on_c, 0, 94, 100
2, 360930, Note_on_c, 0, 106, 100
2, 360960, Note_on_c, 0, 62, 100
2, 360960, Note_on_c, 0, 74, 100
2, 360960, Note_on_c, 0, 87, 100
2, 360960, Note_on_c, 0, 97, 100
2, 360960, Note_on_c, 0, 99, 100
2, 360960, Note_on_c, 3, 47, 100
2, 361200, Note_on_c, 0, 62, 0
2, 361200, Note_on_c, 0, 74, 0
2, 361200, Note_on_c, 0, 87, 0
2, 361200, Note_on_c, 0, 97, 0
2, 361200, Note_on_c, 0, 99, 0
2, 361200, Note_on_c, 3, 47, 0
2, 361800, Note_on_c, 0, 108, 0
2, 361890, Note_on_c, 0, 69, 0
2, 361890, Note_on_c, 0, 81, 0
2, 361890, Note_on_c, 0, 93, 0
2, 361890, Note_on_c, 0, 105, 0
2, 361920, Note_on_c, 0, 62, 100
2, 361920, Note_on_c, 0, 74, 100
2, 361920, Note_on_c, 0, 85, 100
2, 361920, Note_on_c, 0, 87, 100
2, 361920, Note_on_c, 0, 97, 100
2, 361920, Note_on_c, 0, 99, 100
2, 361920, Note_on_c, 3, 47, 100
2, 362160, Note_on_c, 0, 62, 0
2, 362160, Note_on_c, 0, 74, 0
2, 362160, Note_on_c, 0, 85, 0
2, 362160, Note_on_c, 0, 87, 0
2, 362160, Note_on_c, 0, 97, 0
2, 362160, Note_on_c, 0, 99, 0
2, 362880, Note_on_c, 3, 47, 0
2, 362880, Note_on_c, 0, 60, 100
2, 362880, Note_on_c, 0, 72, 100
2, 362880, Note_on_c, 0, 84, 100
2, 362880, Note_on_c, 0, 96, 100
2, 363120, Note_on_c, 0, 60, 0
2, 363120, Note_on_c, 0, 72, 0
2, 363120, Note_on_c, 0, 84, 0
2, 363120, Note_on_c, 0, 96, 0
2, 363840, Note_on_c, 0, 62, 100
2, 363840, Note_on_c, 0, 72, 100
2, 363840, Note_on_c, 0, 74, 100
2, 363840, Note_on_c, 0, 85, 100
2, 363840, Note_on_c, 0, 87, 100
2, 363840, Note_on_c, 0, 97, 100
2, 363840, Note_on_c, 0, 99, 100
2, 363840, Note_on_c, 0, 108, 100
2, 363840, Note_on_c, 3, 47, 100
2, 364080, Note_on_c, 0, 62, 0
2, 364080, Note_on_c, 0, 72, 0
2, 364080, Note_on_c, 0, 74, 0
2, 364080, Note_on_c, 0, 85, 0
2, 364080, Note_on_c, 0, 87, 0
2, 364080, Note_on_c, 0, 97, 0
2, 364080, Note_on_c, 0, 99, 0
2, 364800, Note_on_c, 3, 47, 0
2, 364800, Note_on_c, 0, 60, 100
2, 364800, Note_on_c, 0, 72, 100
2, 364800, Note_on_c, 0, 84, 100
2, 364800, Note_on_c, 0, 96, 100
2, 365040, Note_on_c, 0, 60, 0
2, 365040, Note_on_c, 0, 72, 0
2, 365040, Note_on_c, 0, 84, 0
2, 365040, Note_on_c, 0, 96, 0
2, 365520, Note_on_c, 0, 108, 0
2, 365760, Note_on_c, 0, 62, 100
2, 365760, Note_on_c, 0, 72, 100
2, 365760, Note_on_c, 0, 74, 100
2, 365760, Note_on_c, 0, 85, 100
2, 365760, Note_on_c, 0, 87, 100
2, 365760, Note_on_c, 0, 97, 100
2, 365760, Note_on_c, 0, 99, 100
2, 365760, Note_on_c, 0, 108, 100
2, 365760, Note_on_c, 3, 47, 100
2, 366000, Note_on_c, 0, 62, 0
2, 366000, Note_on_c, 0, 72, 0
2, 366000, Note_on_c, 0, 74, 0
2, 366000, Note_on_c, 0, 85, 0
2, 366000, Note_on_c, 0, 87, 0
2, 366000, Note_on_c, 0, 97, 0
2, 366000, Note_on_c, 0, 99, 0
2, 366720, Note_on_c, 3, 47, 0
2, 366720, Note_on_c, 0, 60, 100
2, 366720, Note_on_c, 0, 72, 100
2, 366720, Note_on_c, 0, 85, 100
2, 366720, Note_on_c, 0, 87, 100
2, 366720, Note_on_c, 0, 96, 100
2, 366720, Note_on_c, 0, 99, 100
2, 366960, Note_on_c, 0, 60, 0
2, 366960, Note_on_c, 0, 72, 0
2, 366960, Note_on_c, 0, 85, 0
2, 366960, Note_on_c, 0, 87, 0
2, 366960, Note_on_c, 0, 96, 0
2, 366960, Note_on_c, 0, 99, 0
2, 367288, Note_on_c, 0, 87, 100
2, 367360, Note_on_c, 0, 99, 100
2, 367440, Note_on_c, 0, 108, 0
2, 367528, Note_on_c, 0, 87, 0
2, 367600, Note_on_c, 0, 99, 0
2, 367680, Note_on_c, 0, 62, 100
2, 367680, Note_on_c, 0, 72, 100
2, 367680, Note_on_c, 0, 74, 100
2, 367680, Note_on_c, 0, 85, 100
2, 367680, Note_on_c, 0, 87, 100
2, 367680, Note_on_c, 0, 96, 100
2, 367680, Note_on_c, 0, 99, 100
2, 367680, Note_on_c, 0, 108, 100
2, 367680, Note_on_c, 3, 47, 100
2, 367920, Note_on_c, 0, 62, 0
2, 367920, Note_on_c, 0, 72, 0
2, 367920, Note_on_c, 0, 74, 0
2, 367920, Note_on_c, 0, 85, 0
2, 367920, Note_on_c, 0, 87, 0
2, 367920, Note_on_c, 0, 96, 0
2, 367920, Note_on_c, 0, 99, 0
2, 368248, Note_on_c, 0, 87, 100
2, 368320, Note_on_c, 0, 99, 100
2, 368400, Note_on_c, 3, 47, 0
2, 368488, Note_on_c, 0, 87, 0
2, 368560, Note_on_c, 0, 99, 0
2, 368610, Note_on_c, 0, 69, 100
2, 368610, Note_on_c, 0, 81, 100
2, 368610, Note_on_c, 0, 93, 100
2, 368610, Note_on_c, 0, 105, 100
2, 368640, Text_t, "[chorus]"
2, 368640, Note_on_c, 0, 60, 100
2, 368640, Note_on_c, 0, 72, 100
2, 368640, Note_on_c, 0, 84, 100
2, 368640, Note_on_c, 0, 96, 100
2, 368640, Note_on_c, 0, 97, 100
2, 368640, Note_on_c, 3, 43, 100
2, 368880, Note_on_c, 0, 60, 0
2, 368880, Note_on_c, 0, 72, 0
2, 368880, Note_on_c, 0, 84, 0
2, 368880, Note_on_c, 0, 96, 0
2, 368880, Note_on_c, 0, 97, 0
2, 369600, Note_on_c, 0, 60, 100
2, 369600, Note_on_c, 0, 72, 100
2, 369600, Note_on_c, 0, 73, 100
2, 369600, Note_on_c, 0, 84, 100
2, 369600, Note_on_c, 0, 85, 100
2, 369600, Note_on_c, 0, 96, 100
2, 369600, Note_on_c, 0, 99, 100
2, 369720, Note_on_c, 0, 108, 0
2, 369840, Note_on_c, 0, 60, 0
2, 369840, Note_on_c, 0, 72, 0
2, 369840, Note_on_c, 0, 73, 0
2, 369840, Note_on_c, 0, 84, 0
2, 369840, Note_on_c, 0, 85, 0
2, 369840, Note_on_c, 0, 96, 0
2, 369840, Note_on_c, 0, 99, 0
2, 370560, Text_t, "sing_off"
2, 370560, Note_on_c, 0, 60, 100
2, 370560, Note_on_c, 0, 72, 100
2, 370560, Note_on_c, 0, 84, 100
2, 370560, Note_on_c, 0, 96, 100
2, 370560, Note_on_c, 0, 97, 100
2, 370800, Note_on_c, 0, 60, 0
2, 370800, Note_on_c, 0, 72, 0
2, 370800, Note_on_c, 0, 84, 0
2, 370800, Note_on_c, 0, 96, 0
2, 370800, Note_on_c, 0, 97, 0
2, 371520, Note_on_c, 0, 60, 100
2, 371520, Note_on_c, 0, 72, 100
2, 371520, Note_on_c, 0, 73, 100
2, 371520, Note_on_c, 0, 84, 100
2, 371520, Note_on_c, 0, 85, 100
2, 371520, Note_on_c, 0, 96, 100
2, 371520, Note_on_c, 0, 99, 100
2, 371760, Note_on_c, 0, 60, 0
2, 371760, Note_on_c, 0, 72, 0
2, 371760, Note_on_c, 0, 73, 0
2, 371760, Note_on_c, 0, 84, 0
2, 371760, Note_on_c, 0, 85, 0
2, 371760, Note_on_c, 0, 96, 0
2, 371760, Note_on_c, 0, 99, 0
2, 372480, Note_on_c, 0, 60, 100
2, 372480, Note_on_c, 0, 72, 100
2, 372480, Note_on_c, 0, 84, 100
2, 372480, Note_on_c, 0, 96, 100
2, 372480, Note_on_c, 0, 97, 100
2, 372720, Note_on_c, 0, 60, 0
2, 372720, Note_on_c, 0, 72, 0
2, 372720, Note_on_c, 0, 84, 0
2, 372720, Note_on_c, 0, 96, 0
2, 372720, Note_on_c, 0, 97, 0
2, 373440, Note_on_c, 0, 60, 100
2, 373440, Note_on_c, 0, 72, 100
2, 373440, Note_on_c, 0, 73, 100
2, 373440, Note_on_c, 0, 84, 100
2, 373440, Note_on_c, 0, 85, 100
2, 373440, Note_on_c, 0, 96, 100
2, 373440, Note_on_c, 0, 99, 100
2, 373680, Note_on_c, 0, 60, 0
2, 373680, Note_on_c, 0, 72, 0
2, 373680, Note_on_c, 0, 73, 0
2, 373680, Note_on_c, 0, 84, 0
2, 373680, Note_on_c, 0, 85, 0
2, 373680, Note_on_c, 0, 96, 0
2, 373680, Note_on_c, 0, 99, 0
2, 374400, Note_on_c, 0, 60, 100
2, 374400, Note_on_c, 0, 72, 100
2, 374400, Note_on_c, 0, 73, 100
2, 374400, Note_on_c, 0, 84, 100
2, 374400, Note_on_c, 0, 96, 100
2, 374400, Note_on_c, 0, 97, 100
2, 374640, Note_on_c, 0, 60, 0
2, 374640, Note_on_c, 0, 72, 0
2, 374640, Note_on_c, 0, 73, 0
2, 374640, Note_on_c, 0, 84, 0
2, 374640, Note_on_c, 0, 96, 0
2, 374640, Note_on_c, 0, 97, 0
2, 374968, Note_on_c, 0, 72, 100
2, 374968, Note_on_c, 0, 73, 100
2, 374968, Note_on_c, 0, 84, 100
2, 374968, Note_on_c, 0, 85, 100
2, 375040, Note_on_c, 0, 96, 100
2, 375040, Note_on_c, 0, 99, 100
2, 375208, Note_on_c, 0, 72, 0
2, 375208, Note_on_c, 0, 73, 0
2, 375208, Note_on_c, 0, 84, 0
2, 375208, Note_on_c, 0, 85, 0
2, 375280, Note_on_c, 0, 96, 0
2, 375280, Note_on_c, 0, 99, 0
2, 375360, Note_on_c, 0, 60, 100
2, 375360, Note_on_c, 0, 72, 100
2, 375360, Note_on_c, 0, 73, 100
2, 375360, Note_on_c, 0, 84, 100
2, 375360, Note_on_c, 0, 85, 100
2, 375360, Note_on_c, 0, 96, 100
2, 375360, Note_on_c, 0, 99, 100
2, 375600, Note_on_c, 0, 60, 0
2, 375600, Note_on_c, 0, 72, 0
2, 375600, Note_on_c, 0, 73, 0
2, 375600, Note_on_c, 0, 84, 0
2, 375600, Note_on_c, 0, 85, 0
2, 375600, Note_on_c, 0, 96, 0
2, 375600, Note_on_c, 0, 99, 0
2, 375840, Note_on_c, 3, 43, 0
2, 375928, Note_on_c, 0, 72, 100
2, 375928, Note_on_c, 0, 73, 100
2, 375928, Note_on_c, 0, 84, 100
2, 375928, Note_on_c, 0, 85, 100
2, 376000, Note_on_c, 0, 60, 100
2, 376000, Note_on_c, 0, 96, 100
2, 376000, Note_on_c, 0, 99, 100
2, 376168, Note_on_c, 0, 72, 0
2, 376168, Note_on_c, 0, 73, 0
2, 376168, Note_on_c, 0, 84, 0
2, 376168, Note_on_c, 0, 85, 0
2, 376240, Note_on_c, 0, 60, 0
2, 376240, Note_on_c, 0, 96, 0
2, 376240, Note_on_c, 0, 99, 0
2, 376320, Note_on_c, 0, 61, 100
2, 376320, Note_on_c, 0, 73, 100
2, 376320, Note_on_c, 0, 86, 100
2, 376320, Note_on_c, 0, 87, 100
2, 376320, Note_on_c, 0, 98, 100
2, 376320, Note_on_c, 0, 99, 100
2, 376320, Note_on_c, 3, 47, 100
2, 376560, Note_on_c, 0, 61, 0
2, 376560, Note_on_c, 0, 73, 0
2, 376560, Note_on_c, 0, 86, 0
2, 376560, Note_on_c, 0, 87, 0
2, 376560, Note_on_c, 0, 98, 0
2, 376560, Note_on_c, 0, 99, 0
2, 377280, Note_on_c, 0, 61, 100
2, 377280, Note_on_c, 0, 73, 100
2, 377280, Note_on_c, 0, 86, 100
2, 377280, Note_on_c, 0, 87, 100
2, 377280, Note_on_c, 0, 98, 100
2, 377280, Note_on_c, 0, 99, 100
2, 377520, Note_on_c, 0, 61, 0
2, 377520, Note_on_c, 0, 73, 0
2, 377520, Note_on_c, 0, 86, 0
2, 377520, Note_on_c, 0, 87, 0
2, 377520, Note_on_c, 0, 98, 0
2, 377520, Note_on_c, 0, 99, 0
2, 378240, Text_t, "sing_on"
2, 378240, Note_on_c, 0, 61, 100
2, 378240, Note_on_c, 0, 73, 100
2, 378240, Note_on_c, 0, 86, 100
2, 378240, Note_on_c, 0, 87, 100
2, 378240, Note_on_c, 0, 98, 100
2, 378240, Note_on_c, 0, 99, 100
2, 378400, Note_on_c, 0, 108, 100
2, 378480, Note_on_c, 0, 61, 0
2, 378480, Note_on_c, 0, 73, 0
2, 378480, Note_on_c, 0, 86, 0
2, 378480, Note_on_c, 0, 87, 0
2, 378480, Note_on_c, 0, 98, 0
2, 378480, Note_on_c, 0, 99, 0
2, 378880, Note_on_c, 0, 108, 0
2, 379200, Note_on_c, 0, 61, 100
2, 379200, Note_on_c, 0, 73, 100
2, 379200, Note_on_c, 0, 86, 100
2, 379200, Note_on_c, 0, 87, 100
2, 379200, Note_on_c, 0, 98, 100
2, 379200, Note_on_c, 0, 99, 100
2, 379200, Note_on_c, 0, 108, 100
2, 379440, Note_on_c, 0, 61, 0
2, 379440, Note_on_c, 0, 73, 0
2, 379440, Note_on_c, 0, 86, 0
2, 379440, Note_on_c, 0, 87, 0
2, 379440, Note_on_c, 0, 98, 0
2, 379440, Note_on_c, 0, 99, 0
2, 380160, Note_on_c, 0, 61, 100
2, 380160, Note_on_c, 0, 73, 100
2, 380160, Note_on_c, 0, 86, 100
2, 380160, Note_on_c, 0, 87, 100
2, 380160, Note_on_c, 0, 98, 100
2, 380160, Note_on_c, 0, 99, 100
2, 380400, Note_on_c, 0, 61, 0
2, 380400, Note_on_c, 0, 73, 0
2, 380400, Note_on_c, 0, 86, 0
2, 380400, Note_on_c, 0, 87, 0
2, 380400, Note_on_c, 0, 98, 0
2, 380400, Note_on_c, 0, 99, 0
2, 380940, Note_on_c, 0, 108, 0
2, 381120, Note_on_c, 0, 61, 100
2, 381120, Note_on_c, 0, 73, 100
2, 381120, Note_on_c, 0, 86, 100
2, 381120, Note_on_c, 0, 87, 100
2, 381120, Note_on_c, 0, 98, 100
2, 381120, Note_on_c, 0, 99, 100
2, 381120, Note_on_c, 0, 108, 100
2, 381360, Note_on_c, 0, 61, 0
2, 381360, Note_on_c, 0, 73, 0
2, 381360, Note_on_c, 0, 86, 0
2, 381360, Note_on_c, 0, 87, 0
2, 381360, Note_on_c, 0, 98, 0
2, 381360, Note_on_c, 0, 99, 0
2, 381688, Note_on_c, 0, 86, 100
2, 381760, Note_on_c, 0, 61, 100
2, 381760, Note_on_c, 0, 72, 100
2, 381760, Note_on_c, 0, 97, 100
2, 381760, Note_on_c, 0, 98, 100
2, 381928, Note_on_c, 0, 86, 0
2, 382000, Note_on_c, 0, 61, 0
2, 382000, Note_on_c, 0, 72, 0
2, 382000, Note_on_c, 0, 97, 0
2, 382000, Note_on_c, 0, 98, 0
2, 382080, Note_on_c, 0, 61, 100
2, 382080, Note_on_c, 0, 73, 100
2, 382080, Note_on_c, 0, 86, 100
2, 382080, Note_on_c, 0, 87, 100
2, 382080, Note_on_c, 0, 98, 100
2, 382080, Note_on_c, 0, 99, 100
2, 382320, Note_on_c, 0, 61, 0
2, 382320, Note_on_c, 0, 73, 0
2, 382320, Note_on_c, 0, 86, 0
2, 382320, Note_on_c, 0, 87, 0
2, 382320, Note_on_c, 0, 98, 0
2, 382320, Note_on_c, 0, 99, 0
2, 382648, Note_on_c, 0, 86, 100
2, 382720, Note_on_c, 0, 72, 100
2, 382720, Note_on_c, 0, 97, 100
2, 382720, Note_on_c, 0, 98, 100
2, 382860, Note_on_c, 0, 108, 0
2, 382888, Note_on_c, 0, 86, 0
2, 382960, Note_on_c, 0, 72, 0
2, 382960, Note_on_c, 0, 97, 0
2, 382960, Note_on_c, 0, 98, 0
2, 383040, Note_on_c, 0, 61, 100
2, 383040, Note_on_c, 0, 73, 100
2, 383040, Note_on_c, 0, 86, 100
2, 383040, Note_on_c, 0, 87, 100
2, 383040, Note_on_c, 0, 98, 100
2, 383040, Note_on_c, 0, 99, 100
2, 383040, Note_on_c, 0, 108, 100
2, 383280, Note_on_c, 0, 61, 0
2, 383280, Note_on_c, 0, 73, 0
2, 383280, Note_on_c, 0, 86, 0
2, 383280, Note_on_c, 0, 87, 0
2, 383280, Note_on_c, 0, 98, 0
2, 383280, Note_on_c, 0, 99, 0
2, 383520, Note_on_c, 3, 47, 0
2, 383608, Note_on_c, 0, 86, 100
2, 383608, Note_on_c, 0, 87, 100
2, 383680, Note_on_c, 0, 61, 100
2, 383680, Note_on_c, 0, 73, 100
2, 383680, Note_on_c, 0, 98, 100
2, 383680, Note_on_c, 0, 99, 100
2, 383848, Note_on_c, 0, 86, 0
2, 383848, Note_on_c, 0, 87, 0
2, 383920, Note_on_c, 0, 61, 0
2, 383920, Note_on_c, 0, 73, 0
2, 383920, Note_on_c, 0, 98, 0
2, 383920, Note_on_c, 0, 99, 0
2, 383970, Note_on_c, 0, 70, 0
2, 383970, Note_on_c, 0, 82, 0
2, 383970, Note_on_c, 0, 94, 0
2, 383970, Note_on_c, 0, 106, 0
2, 384000, Text_t, "[verse]"
2, 384000, Note_on_c, 0, 60, 100
2, 384000, Note_on_c, 0, 72, 100
2, 384000, Note_on_c, 0, 84, 100
2, 384000, Note_on_c, 0, 96, 100
2, 384240, Note_on_c, 0, 60, 0
2, 384240, Note_on_c, 0, 72, 0
2, 384240, Note_on_c, 0, 84, 0
2, 384240, Note_on_c, 0, 96, 0
2, 384960, Note_on_c, 0, 62, 100
2, 384960, Note_on_c, 0, 72, 100
2, 384960, Note_on_c, 0, 74, 100
2, 384960, Note_on_c, 0, 85, 100
2, 384960, Note_on_c, 0, 87, 100
2, 384960, Note_on_c, 0, 97, 100
2, 384960, Note_on_c, 0, 99, 100
2, 384960, Note_on_c, 3, 49, 100
2, 385200, Note_on_c, 0, 108, 0
2, 385200, Note_on_c, 0, 62, 0
2, 385200, Note_on_c, 0, 72, 0
2, 385200, Note_on_c, 0, 74, 0
2, 385200, Note_on_c, 0, 85, 0
2, 385200, Note_on_c, 0, 87, 0
2, 385200, Note_on_c, 0, 97, 0
2, 385200, Note_on_c, 0, 99, 0
2, 385920, Note_on_c, 0, 62, 100
2, 385920, Note_on_c, 0, 74, 100
2, 385920, Note_on_c, 0, 85, 100
2, 385920, Note_on_c, 0, 87, 100
2, 385920, Note_on_c, 0, 97, 100
2, 385920, Note_on_c, 0, 99, 100
2, 386158, Text_t, "sing_off"
2, 386160, Note_on_c, 3, 49, 0
2, 386160, Note_on_c, 0, 62, 0
2, 386160, Note_on_c, 0, 74, 0
2, 386160, Note_on_c, 0, 85, 0
2, 386160, Note_on_c, 0, 87, 0
2, 386160, Note_on_c, 0, 97, 0
2, 386160, Note_on_c, 0, 99, 0
2, 386488, Note_on_c, 0, 86, 100
2, 386560, Note_on_c, 0, 73, 100
2, 386560, Note_on_c, 0, 98, 100
2, 386728, Note_on_c, 0, 86, 0
2, 386800, Note_on_c, 0, 73, 0
2, 386800, Note_on_c, 0, 98, 0
2, 386880, Note_on_c, 0, 60, 100
2, 386880, Note_on_c, 0, 72, 100
2, 386880, Note_on_c, 0, 85, 100
2, 386880, Note_on_c, 0, 97, 100
2, 386880, Note_on_c, 3, 47, 100
2, 387120, Note_on_c, 0, 60, 0
2, 387120, Note_on_c, 0, 72, 0
2, 387120, Note_on_c, 0, 85, 0
2, 387120, Note_on_c, 0, 97, 0
2, 387360, Note_on_c, 3, 47, 0
2, 387840, Note_on_c, 0, 62, 100
2, 387840, Note_on_c, 0, 72, 100
2, 387840, Note_on_c, 0, 74, 100
2, 387840, Note_on_c, 0, 85, 100
2, 387840, Note_on_c, 0, 87, 100
2, 387840, Note_on_c, 0, 97, 100
2, 387840, Note_on_c, 0, 99, 100
2, 387840, Note_on_c, 3, 49, 100
2, 388080, Note_on_c, 0, 62, 0
2, 388080, Note_on_c, 0, 72, 0
2, 388080, Note_on_c, 0, 74, 0
2, 388080, Note_on_c, 0, 85, 0
2, 388080, Note_on_c, 0, 87, 0
2, 388080, Note_on_c, 0, 97, 0
2, 388080, Note_on_c, 0, 99, 0
2, 388800, Note_on_c, 0, 62, 100
2, 388800, Note_on_c, 0, 74, 100
2, 388800, Note_on_c, 0, 85, 100
2, 388800, Note_on_c, 0, 87, 100
2, 388800, Note_on_c, 0, 97, 100
2, 388800, Note_on_c, 0, 99, 100
2, 389040, Note_on_c, 3, 49, 0
2, 389040, Note_on_c, 0, 62, 0
2, 389040, Note_on_c, 0, 74, 0
2, 389040, Note_on_c, 0, 85, 0
2, 389040, Note_on_c, 0, 87, 0
2, 389040, Note_on_c, 0, 97, 0
2, 389040, Note_on_c, 0, 99, 0
2, 389368, Note_on_c, 0, 86, 100
2, 389440, Note_on_c, 0, 73, 100
2, 389440, Note_on_c, 0, 98, 100
2, 389608, Note_on_c, 0, 86, 0
2, 389680, Note_on_c, 0, 73, 0
2, 389680, Note_on_c, 0, 98, 0
2, 389760, Note_on_c, 0, 60, 100
2, 389760, Note_on_c, 0, 72, 100
2, 389760, Note_on_c, 0, 85, 100
2, 389760, Note_on_c, 0, 97, 100
2, 389760, Note_on_c, 3, 47, 100
2, 390000, Note_on_c, 0, 60, 0
2, 390000, Note_on_c, 0, 72, 0
2, 390000, Note_on_c, 0, 85, 0
2, 390000, Note_on_c, 0, 97, 0
2, 390240, Note_on_c, 3, 47, 0
2, 390370, Note_on_c, 0, 70, 100
2, 390370, Note_on_c, 0, 82, 100
2, 390370, Note_on_c, 0, 94, 100
2, 390370, Note_on_c, 0, 106, 100
2, 390400, Note_on_c, 0, 97, 100
2, 390480, Note_on_c, 3, 52, 100
2, 390640, Note_on_c, 0, 97, 0
2, 390720, Note_on_c, 3, 52, 0
2, 390720, Note_on_c, 0, 61, 100
2, 390720, Note_on_c, 0, 73, 100
2, 390720, Note_on_c, 0, 86, 100
2, 390720, Note_on_c, 0, 98, 100
2, 391680, Note_on_c, 0, 61, 0
2, 391680, Note_on_c, 0, 73, 0
2, 391680, Note_on_c, 0, 86, 0
2, 391680, Note_on_c, 0, 98, 0
2, 391680, Note_on_c, 0, 60, 100
2, 391680, Note_on_c, 0, 72, 100
2, 391680, Note_on_c, 0, 84, 100
2, 391680, Note_on_c, 0, 96, 100
2, 391680, Note_on_c, 3, 40, 100
2, 391920, Note_on_c, 0, 60, 0
2, 391920, Note_on_c, 0, 72, 0
2, 391920, Note_on_c, 0, 84, 0
2, 391920, Note_on_c, 0, 96, 0
2, 391920, Note_on_c, 3, 40, 0
2, 392130, Note_on_c, 0, 69, 0
2, 392130, Note_on_c, 0, 81, 0
2, 392130, Note_on_c, 0, 93, 0
2, 392130, Note_on_c, 0, 105, 0
2, 392640, Note_on_c, 0, 62, 100
2, 392640, Note_on_c, 0, 72, 100
2, 392640, Note_on_c, 0, 74, 100
2, 392640, Note_on_c, 0, 85, 100
2, 392640, Note_on_c, 0, 87, 100
2, 392640, Note_on_c, 0, 97, 100
2, 392640, Note_on_c, 0, 99, 100
2, 392640, Note_on_c, 3, 49, 100
2, 392880, Note_on_c, 0, 62, 0
2, 392880, Note_on_c, 0, 72, 0
2, 392880, Note_on_c, 0, 74, 0
2, 392880, Note_on_c, 0, 85, 0
2, 392880, Note_on_c, 0, 87, 0
2, 392880, Note_on_c, 0, 97, 0
2, 392880, Note_on_c, 0, 99, 0
2, 393600, Note_on_c, 0, 62, 100
2, 393600, Note_on_c, 0, 74, 100
2, 393600, Note_on_c, 0, 85, 100
2, 393600, Note_on_c, 0, 87, 100
2, 393600, Note_on_c, 0, 97, 100
2, 393600, Note_on_c, 0, 99, 100
2, 393840, Note_on_c, 3, 49, 0
2, 393840, Note_on_c, 0, 62, 0
2, 393840, Note_on_c, 0, 74, 0
2, 393840, Note_on_c, 0, 85, 0
2, 393840, Note_on_c, 0, 87, 0
2, 393840, Note_on_c, 0, 97, 0
2, 393840, Note_on_c, 0, 99, 0
2, 394168, Note_on_c, 0, 86, 100
2, 394240, Note_on_c, 0, 73, 100
2, 394240, Note_on_c, 0, 98, 100
2, 394408, Note_on_c, 0, 86, 0
2, 394480, Note_on_c, 0, 73, 0
2, 394480, Note_on_c, 0, 98, 0
2, 394560, Note_on_c, 0, 60, 100
2, 394560, Note_on_c, 0, 72, 100
2, 394560, Note_on_c, 0, 85, 100
2, 394560, Note_on_c, 0, 97, 100
2, 394560, Note_on_c, 3, 47, 100
2, 394798, Note_on_c, 0, 97, 0
2, 394800, Note_on_c, 0, 60, 0
2, 394800, Note_on_c, 0, 72, 0
2, 394800, Note_on_c, 0, 85, 0
2, 395040, Note_on_c, 3, 47, 0
2, 395200, Note_on_c, 0, 108, 100
2, 395520, Text_t, "sing_on"
2, 395520, Note_on_c, 0, 62, 100
2, 395520, Note_on_c, 0, 72, 100
2, 395520, Note_on_c, 0, 74, 100
2, 395520, Note_on_c, 0, 85, 100
2, 395520, Note_on_c, 0, 87, 100
2, 395520, Note_on_c, 0, 97, 100
2, 395520, Note_on_c, 0, 99, 100
2, 395520, Note_on_c, 3, 49, 100
2, 395760, Note_on_c, 0, 62, 0
2, 395760, Note_on_c, 0, 72, 0
2, 395760, Note_on_c, 0, 74, 0
2, 395760, Note_on_c, 0, 85, 0
2, 395760, Note_on_c, 0, 87, 0
2, 395760, Note_on_c, 0, 97, 0
2, 395760, Note_on_c, 0, 99, 0
2, 396220, Note_on_c, 0, 108, 0
2, 396480, Note_on_c, 0, 62, 100
2, 396480, Note_on_c, 0, 74, 100
2, 396480, Note_on_c, 0, 85, 100
2, 396480, Note_on_c, 0, 87, 100
2, 396480, Note_on_c, 0, 97, 100
2, 396480, Note_on_c, 0, 99, 100
2, 396480, Note_on_c, 0, 108, 100
2, 396720, Note_on_c, 3, 49, 0
2, 396720, Note_on_c, 0, 62, 0
2, 396720, Note_on_c, 0, 74, 0
2, 396720, Note_on_c, 0, 85, 0
2, 396720, Note_on_c, 0, 87, 0
2, 396720, Note_on_c, 0, 97, 0
2, 396720, Note_on_c, 0, 99, 0
2, 397048, Note_on_c, 0, 86, 100
2, 397120, Note_on_c, 0, 73, 100
2, 397120, Note_on_c, 0, 98, 100
2, 397260, Note_on_c, 0, 108, 0
2, 397288, Note_on_c, 0, 86, 0
2, 397360, Note_on_c, 0, 73, 0
2, 397360, Note_on_c, 0, 98, 0
2, 397440, Note_on_c, 0, 60, 100
2, 397440, Note_on_c, 0, 72, 100
2, 397440, Note_on_c, 0, 85, 100
2, 397440, Note_on_c, 0, 97, 100
2, 397440, Note_on_c, 0, 108, 100
2, 397440, Note_on_c, 3, 47, 100
2, 397680, Note_on_c, 0, 60, 0
2, 397680, Note_on_c, 0, 72, 0
2, 397680, Note_on_c, 0, 85, 0
2, 397680, Note_on_c, 0, 97, 0
2, 397920, Note_on_c, 3, 47, 0
2, 398050, Note_on_c, 0, 69, 100
2, 398050, Note_on_c, 0, 81, 100
2, 398050, Note_on_c, 0, 93, 100
2, 398050, Note_on_c, 0, 105, 100
2, 398080, Note_on_c, 0, 97, 100
2, 398160, Note_on_c, 3, 52, 100
2, 398220, Note_on_c, 0, 108, 0
2, 398320, Note_on_c, 0, 97, 0
2, 398400, Note_on_c, 3, 52, 0
2, 398400, Note_on_c, 0, 61, 100
2, 398400, Note_on_c, 0, 73, 100
2, 398400, Note_on_c, 0, 86, 100
2, 398400, Note_on_c, 0, 98, 100
2, 398400, Note_on_c, 0, 108, 100
2, 399060, Note_on_c, 0, 108, 0
2, 399200, Note_on_c, 0, 108, 100
2, 399360, Text_t, "[chorus]"
2, 399360, Note_on_c, 0, 61, 0
2, 399360, Note_on_c, 0, 73, 0
2, 399360, Note_on_c, 0, 86, 0
2, 399360, Note_on_c, 0, 98, 0
2, 399360, Note_on_c, 0, 60, 100
2, 399360, Note_on_c, 0, 72, 100
2, 399360, Note_on_c, 0, 84, 100
2, 399360, Note_on_c, 0, 96, 100
2, 399360, Note_on_c, 0, 97, 100
2, 399360, Note_on_c, 3, 43, 100
2, 399600, Note_on_c, 0, 60, 0
2, 399600, Note_on_c, 0, 72, 0
2, 399600, Note_on_c, 0, 84, 0
2, 399600, Note_on_c, 0, 96, 0
2, 399600, Note_on_c, 0, 97, 0
2, 400040, Note_on_c, 0, 108, 0
2, 400320, Note_on_c, 0, 60, 100
2, 400320, Note_on_c, 0, 72, 100
2, 400320, Note_on_c, 0, 84, 100
2, 400320, Note_on_c, 0, 85, 100
2, 400320, Note_on_c, 0, 96, 100
2, 400320, Note_on_c, 0, 99, 100
2, 400320, Note_on_c, 0, 108, 100
2, 400560, Note_on_c, 0, 60, 0
2, 400560, Note_on_c, 0, 72, 0
2, 400560, Note_on_c, 0, 84, 0
2, 400560, Note_on_c, 0, 85, 0
2, 400560, Note_on_c, 0, 96, 0
2, 400560, Note_on_c, 0, 99, 0
2, 401280, Note_on_c, 0, 60, 100
2, 401280, Note_on_c, 0, 72, 100
2, 401280, Note_on_c, 0, 84, 100
2, 401280, Note_on_c, 0, 96, 100
2, 401280, Note_on_c, 0, 97, 100
2, 401520, Note_on_c, 0, 60, 0
2, 401520, Note_on_c, 0, 72, 0
2, 401520, Note_on_c, 0, 84, 0
2, 401520, Note_on_c, 0, 96, 0
2, 401520, Note_on_c, 0, 97, 0
2, 402240, Note_on_c, 0, 60, 100
2, 402240, Note_on_c, 0, 72, 100
2, 402240, Note_on_c, 0, 84, 100
2, 402240, Note_on_c, 0, 85, 100
2, 402240, Note_on_c, 0, 96, 100
2, 402240, Note_on_c, 0, 99, 100
2, 402480, Note_on_c, 0, 60, 0
2, 402480, Note_on_c, 0, 72, 0
2, 402480, Note_on_c, 0, 84, 0
2, 402480, Note_on_c, 0, 85, 0
2, 402480, Note_on_c, 0, 96, 0
2, 402480, Note_on_c, 0, 99, 0
2, 403136, Note_on_c, 0, 108, 0
2, 403200, Note_on_c, 0, 60, 100
2, 403200, Note_on_c, 0, 72, 100
2, 403200, Note_on_c, 0, 84, 100
2, 403200, Note_on_c, 0, 96, 100
2, 403200, Note_on_c, 0, 97, 100
2, 403440, Note_on_c, 0, 60, 0
2, 403440, Note_on_c, 0, 72, 0
2, 403440, Note_on_c, 0, 84, 0
2, 403440, Note_on_c, 0, 96, 0
2, 403440, Note_on_c, 0, 97, 0
2, 404160, Note_on_c, 0, 60, 100
2, 404160, Note_on_c, 0, 72, 100
2, 404160, Note_on_c, 0, 84, 100
2, 404160, Note_on_c, 0, 85, 100
2, 404160, Note_on_c, 0, 96, 100
2, 404160, Note_on_c, 0, 99, 100
2, 404400, Note_on_c, 0, 60, 0
2, 404400, Note_on_c, 0, 72, 0
2, 404400, Note_on_c, 0, 84, 0
2, 404400, Note_on_c, 0, 85, 0
2, 404400, Note_on_c, 0, 96, 0
2, 404400, Note_on_c, 0, 99, 0
2, 405120, Note_on_c, 0, 60, 100
2, 405120, Note_on_c, 0, 72, 100
2, 405120, Note_on_c, 0, 84, 100
2, 405120, Note_on_c, 0, 96, 100
2, 405120, Note_on_c, 0, 97, 100
2, 405360, Note_on_c, 0, 60, 0
2, 405360, Note_on_c, 0, 72, 0
2, 405360, Note_on_c, 0, 84, 0
2, 405360, Note_on_c, 0, 96, 0
2, 405360, Note_on_c, 0, 97, 0
2, 406080, Note_on_c, 0, 60, 100
2, 406080, Note_on_c, 0, 72, 100
2, 406080, Note_on_c, 0, 84, 100
2, 406080, Note_on_c, 0, 85, 100
2, 406080, Note_on_c, 0, 96, 100
2, 406080, Note_on_c, 0, 99, 100
2, 406320, Note_on_c, 0, 60, 0
2, 406320, Note_on_c, 0, 72, 0
2, 406320, Note_on_c, 0, 84, 0
2, 406320, Note_on_c, 0, 85, 0
2, 406320, Note_on_c, 0, 96, 0
2, 406320, Note_on_c, 0, 99, 0
2, 406556, Note_on_c, 3, 43, 0
2, 406646, Note_on_c, 0, 84, 100
2, 406646, Note_on_c, 0, 85, 100
2, 406720, Note_on_c, 0, 60, 100
2, 406720, Note_on_c, 0, 72, 100
2, 406720, Note_on_c, 0, 96, 100
2, 406720, Note_on_c, 0, 99, 100
2, 406886, Note_on_c, 0, 84, 0
2, 406886, Note_on_c, 0, 85, 0
2, 406960, Note_on_c, 0, 60, 0
2, 406960, Note_on_c, 0, 72, 0
2, 406960, Note_on_c, 0, 96, 0
2, 406960, Note_on_c, 0, 99, 0
2, 407010, Note_on_c, 0, 67, 100
2, 407010, Note_on_c, 0, 79, 100
2, 407010, Note_on_c, 0, 91, 100
2, 407010, Note_on_c, 0, 103, 100
2, 407036, Note_on_c, 3, 47, 100
2, 407040, Note_on_c, 0, 61, 100
2, 407040, Note_on_c, 0, 73, 100
2, 407040, Note_on_c, 0, 86, 100
2, 407040, Note_on_c, 0, 87, 100
2, 407040, Note_on_c, 0, 98, 100
2, 407040, Note_on_c, 0, 99, 100
2, 407280, Note_on_c, 0, 61, 0
2, 407280, Note_on_c, 0, 73, 0
2, 407280, Note_on_c, 0, 86, 0
2, 407280, Note_on_c, 0, 87, 0
2, 407280, Note_on_c, 0, 98, 0
2, 407280, Note_on_c, 0, 99, 0
2, 408000, Note_on_c, 0, 61, 100
2, 408000, Note_on_c, 0, 73, 100
2, 408000, Note_on_c, 0, 86, 100
2, 408000, Note_on_c, 0, 87, 100
2, 408000, Note_on_c, 0, 98, 100
2, 408000, Note_on_c, 0, 99, 100
2, 408240, Note_on_c, 0, 61, 0
2, 408240, Note_on_c, 0, 73, 0
2, 408240, Note_on_c, 0, 86, 0
2, 408240, Note_on_c, 0, 87, 0
2, 408240, Note_on_c, 0, 98, 0
2, 408240, Note_on_c, 0, 99, 0
2, 408960, Note_on_c, 0, 61, 100
2, 408960, Note_on_c, 0, 73, 100
2, 408960, Note_on_c, 0, 86, 100
2, 408960, Note_on_c, 0, 87, 100
2, 408960, Note_on_c, 0, 98, 100
2, 408960, Note_on_c, 0, 99, 100
2, 408960, Note_on_c, 0, 108, 100
2, 409200, Note_on_c, 0, 61, 0
2, 409200, Note_on_c, 0, 73, 0
2, 409200, Note_on_c, 0, 86, 0
2, 409200, Note_on_c, 0, 87, 0
2, 409200, Note_on_c, 0, 98, 0
2, 409200, Note_on_c, 0, 99, 0
2, 409680, Note_on_c, 0, 108, 0
2, 409920, Note_on_c, 0, 61, 100
2, 409920, Note_on_c, 0, 73, 100
2, 409920, Note_on_c, 0, 86, 100
2, 409920, Note_on_c, 0, 87, 100
2, 409920, Note_on_c, 0, 98, 100
2, 409920, Note_on_c, 0, 99, 100
2, 409920, Note_on_c, 0, 108, 100
2, 410130, Note_on_c, 0, 67, 0
2, 410130, Note_on_c, 0, 79, 0
2, 410130, Note_on_c, 0, 91, 0
2, 410130, Note_on_c, 0, 103, 0
2, 410160, Note_on_c, 0, 61, 0
2, 410160, Note_on_c, 0, 73, 0
2, 410160, Note_on_c, 0, 86, 0
2, 410160, Note_on_c, 0, 87, 0
2, 410160, Note_on_c, 0, 98, 0
2, 410160, Note_on_c, 0, 99, 0
2, 410488, Note_on_c, 0, 86, 100
2, 410560, Note_on_c, 0, 61, 100
2, 410560, Note_on_c, 0, 72, 100
2, 410560, Note_on_c, 0, 97, 100
2, 410560, Note_on_c, 0, 98, 100
2, 410728, Note_on_c, 0, 86, 0
2, 410800, Note_on_c, 0, 61, 0
2, 410800, Note_on_c, 0, 72, 0
2, 410800, Note_on_c, 0, 97, 0
2, 410800, Note_on_c, 0, 98, 0
2, 410880, Note_on_c, 0, 61, 100
2, 410880, Note_on_c, 0, 73, 100
2, 410880, Note_on_c, 0, 86, 100
2, 410880, Note_on_c, 0, 87, 100
2, 410880, Note_on_c, 0, 98, 100
2, 410880, Note_on_c, 0, 99, 100
2, 411120, Note_on_c, 0, 61, 0
2, 411120, Note_on_c, 0, 73, 0
2, 411120, Note_on_c, 0, 86, 0
2, 411120, Note_on_c, 0, 87, 0
2, 411120, Note_on_c, 0, 98, 0
2, 411120, Note_on_c, 0, 99, 0
2, 411600, Note_on_c, 0, 108, 0
2, 411840, Note_on_c, 0, 61, 100
2, 411840, Note_on_c, 0, 73, 100
2, 411840, Note_on_c, 0, 86, 100
2, 411840, Note_on_c, 0, 87, 100
2, 411840, Note_on_c, 0, 98, 100
2, 411840, Note_on_c, 0, 99, 100
2, 411840, Note_on_c, 0, 108, 100
2, 412080, Note_on_c, 0, 61, 0
2, 412080, Note_on_c, 0, 73, 0
2, 412080, Note_on_c, 0, 86, 0
2, 412080, Note_on_c, 0, 87, 0
2, 412080, Note_on_c, 0, 98, 0
2, 412080, Note_on_c, 0, 99, 0
2, 412408, Note_on_c, 0, 86, 100
2, 412480, Note_on_c, 0, 61, 100
2, 412480, Note_on_c, 0, 72, 100
2, 412480, Note_on_c, 0, 97, 100
2, 412480, Note_on_c, 0, 98, 100
2, 412648, Note_on_c, 0, 86, 0
2, 412720, Note_on_c, 0, 61, 0
2, 412720, Note_on_c, 0, 72, 0
2, 412720, Note_on_c, 0, 97, 0
2, 412720, Note_on_c, 0, 98, 0
2, 412800, Note_on_c, 0, 61, 100
2, 412800, Note_on_c, 0, 73, 100
2, 412800, Note_on_c, 0, 86, 100
2, 412800, Note_on_c, 0, 87, 100
2, 412800, Note_on_c, 0, 98, 100
2, 412800, Note_on_c, 0, 99, 100
2, 413040, Note_on_c, 0, 61, 0
2, 413040, Note_on_c, 0, 73, 0
2, 413040, Note_on_c, 0, 86, 0
2, 413040, Note_on_c, 0, 87, 0
2, 413040, Note_on_c, 0, 98, 0
2, 413040, Note_on_c, 0, 99, 0
2, 413368, Note_on_c, 0, 86, 100
2, 413440, Note_on_c, 0, 72, 100
2, 413440, Note_on_c, 0, 97, 100
2, 413440, Note_on_c, 0, 98, 100
2, 413520, Note_on_c, 0, 108, 0
2, 413608, Note_on_c, 0, 86, 0
2, 413680, Note_on_c, 0, 72, 0
2, 413680, Note_on_c, 0, 97, 0
2, 413680, Note_on_c, 0, 98, 0
2, 413760, Note_on_c, 0, 61, 100
2, 413760, Note_on_c, 0, 73, 100
2, 413760, Note_on_c, 0, 86, 100
2, 413760, Note_on_c, 0, 87, 100
2, 413760, Note_on_c, 0, 98, 100
2, 413760, Note_on_c, 0, 99, 100
2, 413760, Note_on_c, 0, 108, 100
2, 414000, Note_on_c, 0, 61, 0
2, 414000, Note_on_c, 0, 73, 0
2, 414000, Note_on_c, 0, 86, 0
2, 414000, Note_on_c, 0, 87, 0
2, 414000, Note_on_c, 0, 98, 0
2, 414000, Note_on_c, 0, 99, 0
2, 414328, Note_on_c, 0, 86, 100
2, 414328, Note_on_c, 0, 87, 100
2, 414400, Note_on_c, 0, 61, 100
2, 414400, Note_on_c, 0, 73, 100
2, 414400, Note_on_c, 0, 98, 100
2, 414400, Note_on_c, 0, 99, 100
2, 414568, Note_on_c, 0, 86, 0
2, 414568, Note_on_c, 0, 87, 0
2, 414640, Note_on_c, 0, 61, 0
2, 414640, Note_on_c, 0, 73, 0
2, 414640, Note_on_c, 0, 98, 0
2, 414640, Note_on_c, 0, 99, 0
2, 414690, Note_on_c, 0, 70, 0
2, 414690, Note_on_c, 0, 82, 0
2, 414690, Note_on_c, 0, 94, 0
2, 414690, Note_on_c, 0, 106, 0
2, 414718, Note_on_c, 3, 47, 0
2, 414720, Text_t, "[verse]"
2, 414720, Note_on_c, 0, 60, 100
2, 414720, Note_on_c, 0, 72, 100
2, 414720, Note_on_c, 0, 84, 100
2, 414720, Note_on_c, 0, 96, 100
2, 414960, Note_on_c, 0, 60, 0
2, 414960, Note_on_c, 0, 72, 0
2, 414960, Note_on_c, 0, 84, 0
2, 414960, Note_on_c, 0, 96, 0
2, 415680, Note_on_c, 0, 62, 100
2, 415680, Note_on_c, 0, 72, 100
2, 415680, Note_on_c, 0, 74, 100
2, 415680, Note_on_c, 0, 85, 100
2, 415680, Note_on_c, 0, 87, 100
2, 415680, Note_on_c, 0, 97, 100
2, 415680, Note_on_c, 0, 99, 100
2, 415680, Note_on_c, 3, 49, 100
2, 415920, Note_on_c, 0, 62, 0
2, 415920, Note_on_c, 0, 72, 0
2, 415920, Note_on_c, 0, 74, 0
2, 415920, Note_on_c, 0, 85, 0
2, 415920, Note_on_c, 0, 87, 0
2, 415920, Note_on_c, 0, 97, 0
2, 415920, Note_on_c, 0, 99, 0
2, 416160, Note_on_c, 0, 108, 0
2, 416640, Text_t, "sing_off"
2, 416640, Note_on_c, 0, 62, 100
2, 416640, Note_on_c, 0, 74, 100
2, 416640, Note_on_c, 0, 85, 100
2, 416640, Note_on_c, 0, 87, 100
2, 416640, Note_on_c, 0, 97, 100
2, 416640, Note_on_c, 0, 99, 100
2, 416880, Note_on_c, 3, 49, 0
2, 416880, Note_on_c, 0, 62, 0
2, 416880, Note_on_c, 0, 74, 0
2, 416880, Note_on_c, 0, 85, 0
2, 416880, Note_on_c, 0, 87, 0
2, 416880, Note_on_c, 0, 97, 0
2, 416880, Note_on_c, 0, 99, 0
2, 417208, Note_on_c, 0, 86, 100
2, 417280, Note_on_c, 0, 73, 100
2, 417280, Note_on_c, 0, 98, 100
2, 417448, Note_on_c, 0, 86, 0
2, 417520, Note_on_c, 0, 73, 0
2, 417520, Note_on_c, 0, 98, 0
2, 417600, Note_on_c, 0, 60, 100
2, 417600, Note_on_c, 0, 72, 100
2, 417600, Note_on_c, 0, 85, 100
2, 417600, Note_on_c, 0, 97, 100
2, 417600, Note_on_c, 3, 47, 100
2, 417840, Note_on_c, 0, 60, 0
2, 417840, Note_on_c, 0, 72, 0
2, 417840, Note_on_c, 0, 85, 0
2, 417840, Note_on_c, 0, 97, 0
2, 418080, Note_on_c, 3, 47, 0
2, 418560, Note_on_c, 0, 62, 100
2, 418560, Note_on_c, 0, 72, 100
2, 418560, Note_on_c, 0, 74, 100
2, 418560, Note_on_c, 0, 85, 100
2, 418560, Note_on_c, 0, 87, 100
2, 418560, Note_on_c, 0, 97, 100
2, 418560, Note_on_c, 0, 99, 100
2, 418560, Note_on_c, 3, 49, 100
2, 418800, Note_on_c, 0, 62, 0
2, 418800, Note_on_c, 0, 72, 0
2, 418800, Note_on_c, 0, 74, 0
2, 418800, Note_on_c, 0, 85, 0
2, 418800, Note_on_c, 0, 87, 0
2, 418800, Note_on_c, 0, 97, 0
2, 418800, Note_on_c, 0, 99, 0
2, 419520, Note_on_c, 0, 62, 100
2, 419520, Note_on_c, 0, 74, 100
2, 419520, Note_on_c, 0, 85, 100
2, 419520, Note_on_c, 0, 87, 100
2, 419520, Note_on_c, 0, 97, 100
2, 419520, Note_on_c, 0, 99, 100
2, 419760, Note_on_c, 3, 49, 0
2, 419760, Note_on_c, 0, 62, 0
2, 419760, Note_on_c, 0, 74, 0
2, 419760, Note_on_c, 0, 85, 0
2, 419760, Note_on_c, 0, 87, 0
2, 419760, Note_on_c, 0, 97, 0
2, 419760, Note_on_c, 0, 99, 0
2, 420088, Note_on_c, 0, 85, 100
2, 420130, Note_on_c, 0, 70, 100
2, 420130, Note_on_c, 0, 82, 100
2, 420130, Note_on_c, 0, 94, 100
2, 420130, Note_on_c, 0, 106, 100
2, 420160, Note_on_c, 0, 60, 100
2, 420160, Note_on_c, 0, 73, 100
2, 420160, Note_on_c, 0, 97, 100
2, 420240, Note_on_c, 3, 48, 100
2, 420328, Note_on_c, 0, 85, 0
2, 420400, Note_on_c, 0, 60, 0
2, 420400, Note_on_c, 0, 73, 0
2, 420400, Note_on_c, 0, 97, 0
2, 420480, Note_on_c, 3, 48, 0
2, 420480, Note_on_c, 0, 62, 100
2, 420480, Note_on_c, 0, 74, 100
2, 420480, Note_on_c, 0, 87, 100
2, 420480, Note_on_c, 0, 98, 100
2, 420720, Note_on_c, 0, 87, 0
2, 420960, Note_on_c, 3, 54, 100
2, 421048, Note_on_c, 0, 88, 100
2, 421120, Note_on_c, 0, 74, 0
2, 421120, Note_on_c, 0, 98, 0
2, 421120, Note_on_c, 0, 75, 100
2, 421120, Note_on_c, 0, 100, 100
2, 421200, Note_on_c, 3, 54, 0
2, 421280, Note_on_c, 0, 62, 0
2, 421288, Note_on_c, 0, 88, 0
2, 421360, Note_on_c, 0, 75, 0
2, 421360, Note_on_c, 0, 100, 0
2, 421440, Note_on_c, 0, 61, 100
2, 421440, Note_on_c, 0, 73, 100
2, 421440, Note_on_c, 0, 86, 100
2, 421440, Note_on_c, 0, 97, 100
2, 421680, Note_on_c, 3, 47, 100
2, 422240, Note_on_c, 0, 61, 0
2, 422240, Note_on_c, 0, 73, 0
2, 422240, Note_on_c, 0, 86, 0
2, 422240, Note_on_c, 0, 97, 0
2, 422400, Note_on_c, 0, 60, 100
2, 422400, Note_on_c, 0, 72, 100
2, 422400, Note_on_c, 0, 84, 100
2, 422400, Note_on_c, 0, 96, 100
2, 422640, Note_on_c, 3, 47, 0
2, 422640, Note_on_c, 0, 60, 0
2, 422640, Note_on_c, 0, 72, 0
2, 422640, Note_on_c, 0, 84, 0
2, 422640, Note_on_c, 0, 96, 0
2, 422690, Note_on_c, 0, 69, 0
2, 422690, Note_on_c, 0, 81, 0
2, 422690, Note_on_c, 0, 93, 0
2, 422690, Note_on_c, 0, 105, 0
2, 423360, Note_on_c, 0, 62, 100
2, 423360, Note_on_c, 0, 72, 100
2, 423360, Note_on_c, 0, 74, 100
2, 423360, Note_on_c, 0, 85, 100
2, 423360, Note_on_c, 0, 87, 100
2, 423360, Note_on_c, 0, 97, 100
2, 423360, Note_on_c, 0, 99, 100
2, 423360, Note_on_c, 3, 49, 100
2, 423600, Note_on_c, 0, 62, 0
2, 423600, Note_on_c, 0, 72, 0
2, 423600, Note_on_c, 0, 74, 0
2, 423600, Note_on_c, 0, 85, 0
2, 423600, Note_on_c, 0, 87, 0
2, 423600, Note_on_c, 0, 97, 0
2, 423600, Note_on_c, 0, 99, 0
2, 424320, Note_on_c, 0, 62, 100
2, 424320, Note_on_c, 0, 74, 100
2, 424320, Note_on_c, 0, 85, 100
2, 424320, Note_on_c, 0, 87, 100
2, 424320, Note_on_c, 0, 97, 100
2, 424320, Note_on_c, 0, 99, 100
2, 424560, Note_on_c, 3, 49, 0
2, 424560, Note_on_c, 0, 62, 0
2, 424560, Note_on_c, 0, 74, 0
2, 424560, Note_on_c, 0, 85, 0
2, 424560, Note_on_c, 0, 87, 0
2, 424560, Note_on_c, 0, 97, 0
2, 424560, Note_on_c, 0, 99, 0
2, 424888, Note_on_c, 0, 86, 100
2, 424960, Note_on_c, 0, 73, 100
2, 424960, Note_on_c, 0, 98, 100
2, 425128, Note_on_c, 0, 86, 0
2, 425200, Note_on_c, 0, 73, 0
2, 425200, Note_on_c, 0, 98, 0
2, 425280, Note_on_c, 0, 60, 100
2, 425280, Note_on_c, 0, 72, 100
2, 425280, Note_on_c, 0, 85, 100
2, 425280, Note_on_c, 0, 97, 100
2, 425280, Note_on_c, 3, 47, 100
2, 425520, Note_on_c, 0, 60, 0
2, 425520, Note_on_c, 0, 72, 0
2, 425520, Note_on_c, 0, 85, 0
2, 425520, Note_on_c, 0, 97, 0
2, 425760, Note_on_c, 3, 47, 0
2, 426240, Text_t, "[section chorus_2]"
2, 426240, Note_on_c, 0, 62, 100
2, 426240, Note_on_c, 0, 72, 100
2, 426240, Note_on_c, 0, 74, 100
2, 426240, Note_on_c, 0, 85, 100
2, 426240, Note_on_c, 0, 87, 100
2, 426240, Note_on_c, 0, 97, 100
2, 426240, Note_on_c, 0, 99, 100
2, 426240, Note_on_c, 3, 49, 100
2, 426480, Note_on_c, 0, 62, 0
2, 426480, Note_on_c, 0, 72, 0
2, 426480, Note_on_c, 0, 74, 0
2, 426480, Note_on_c, 0, 85, 0
2, 426480, Note_on_c, 0, 87, 0
2, 426480, Note_on_c, 0, 97, 0
2, 426480, Note_on_c, 0, 99, 0
2, 427200, Note_on_c, 0, 62, 100
2, 427200, Note_on_c, 0, 74, 100
2, 427200, Note_on_c, 0, 85, 100
2, 427200, Note_on_c, 0, 87, 100
2, 427200, Note_on_c, 0, 97, 100
2, 427200, Note_on_c, 0, 99, 100
2, 427440, Note_on_c, 3, 49, 0
2, 427440, Note_on_c, 0, 62, 0
2, 427440, Note_on_c, 0, 74, 0
2, 427440, Note_on_c, 0, 85, 0
2, 427440, Note_on_c, 0, 87, 0
2, 427440, Note_on_c, 0, 97, 0
2, 427440, Note_on_c, 0, 99, 0
2, 427768, Note_on_c, 0, 86, 100
2, 427840, Note_on_c, 0, 73, 100
2, 427840, Note_on_c, 0, 98, 100
2, 428008, Note_on_c, 0, 86, 0
2, 428080, Note_on_c, 0, 73, 0
2, 428080, Note_on_c, 0, 98, 0
2, 428160, Text_t, "sing_on"
2, 428160, Note_on_c, 0, 60, 100
2, 428160, Note_on_c, 0, 72, 100
2, 428160, Note_on_c, 0, 85, 100
2, 428160, Note_on_c, 0, 97, 100
2, 428160, Note_on_c, 3, 47, 100
2, 428400, Note_on_c, 0, 60, 0
2, 428400, Note_on_c, 0, 72, 0
2, 428400, Note_on_c, 0, 85, 0
2, 428400, Note_on_c, 0, 97, 0
2, 428640, Note_on_c, 3, 47, 0
2, 428640, Note_on_c, 0, 108, 100
2, 428880, Note_on_c, 3, 52, 100
2, 428920, Note_on_c, 0, 108, 0
2, 429090, Note_on_c, 0, 69, 100
2, 429090, Note_on_c, 0, 81, 100
2, 429090, Note_on_c, 0, 93, 100
2, 429090, Note_on_c, 0, 105, 100
2, 429120, Note_on_c, 3, 52, 0
2, 429120, Note_on_c, 0, 61, 100
2, 429120, Note_on_c, 0, 73, 100
2, 429120, Note_on_c, 0, 86, 100
2, 429120, Note_on_c, 0, 98, 100
2, 429120, Note_on_c, 0, 108, 100
2, 429880, Note_on_c, 0, 108, 0
2, 430050, Note_on_c, 0, 70, 0
2, 430050, Note_on_c, 0, 82, 0
2, 430050, Note_on_c, 0, 94, 0
2, 430050, Note_on_c, 0, 106, 0
2, 430080, Text_t, "[chorus]"
2, 430080, Text_t, "drum_double"
2, 430080, Note_on_c, 0, 61, 0
2, 430080, Note_on_c, 0, 73, 0
2, 430080, Note_on_c, 0, 86, 0
2, 430080, Note_on_c, 0, 98, 0
2, 430080, Note_on_c, 0, 60, 100
2, 430080, Note_on_c, 0, 72, 100
2, 430080, Note_on_c, 0, 84, 100
2, 430080, Note_on_c, 0, 96, 100
2, 430080, Note_on_c, 0, 108, 100
2, 430080, Note_on_c, 3, 46, 100
2, 430720, Note_on_c, 0, 96, 0
2, 430720, Note_on_c, 0, 96, 100
2, 430800, Note_on_c, 3, 46, 0
2, 430880, Note_on_c, 0, 60, 0
2, 430880, Note_on_c, 0, 72, 0
2, 430880, Note_on_c, 0, 96, 0
2, 431040, Note_on_c, 0, 84, 0
2, 431040, Note_on_c, 0, 61, 100
2, 431040, Note_on_c, 0, 73, 100
2, 431040, Note_on_c, 0, 85, 100
2, 431040, Note_on_c, 0, 97, 100
2, 431040, Note_on_c, 3, 48, 100
2, 431680, Note_on_c, 0, 97, 0
2, 431680, Note_on_c, 0, 97, 100
2, 431760, Note_on_c, 3, 48, 0
2, 431800, Note_on_c, 0, 108, 0
2, 431840, Note_on_c, 0, 61, 0
2, 431840, Note_on_c, 0, 73, 0
2, 431840, Note_on_c, 0, 97, 0
2, 432000, Note_on_c, 0, 85, 0
2, 432000, Note_on_c, 0, 62, 100
2, 432000, Note_on_c, 0, 74, 100
2, 432000, Note_on_c, 0, 86, 100
2, 432000, Note_on_c, 0, 98, 100
2, 432000, Note_on_c, 0, 108, 100
2, 432000, Note_on_c, 3, 49, 100
2, 432640, Note_on_c, 0, 98, 0
2, 432640, Note_on_c, 0, 98, 100
2, 432720, Note_on_c, 3, 49, 0
2, 432800, Note_on_c, 0, 62, 0
2, 432800, Note_on_c, 0, 74, 0
2, 432800, Note_on_c, 0, 98, 0
2, 432960, Note_on_c, 0, 86, 0
2, 432960, Note_on_c, 0, 60, 100
2, 432960, Note_on_c, 0, 72, 100
2, 432960, Note_on_c, 0, 85, 100
2, 432960, Note_on_c, 0, 97, 100
2, 432960, Note_on_c, 3, 48, 100
2, 433600, Note_on_c, 0, 97, 0
2, 433600, Note_on_c, 0, 97, 100
2, 433680, Note_on_c, 3, 48, 0
2, 433720, Note_on_c, 0, 108, 0
2, 433760, Note_on_c, 0, 60, 0
2, 433760, Note_on_c, 0, 72, 0
2, 433760, Note_on_c, 0, 97, 0
2, 433920, Note_on_c, 0, 85, 0
2, 433920, Note_on_c, 0, 61, 100
2, 433920, Note_on_c, 0, 74, 100
2, 433920, Note_on_c, 0, 87, 100
2, 433920, Note_on_c, 0, 99, 100
2, 433920, Note_on_c, 0, 108, 100
2, 433920, Note_on_c, 3, 51, 100
2, 434560, Note_on_c, 0, 99, 0
2, 434560, Note_on_c, 0, 99, 100
2, 434636, Note_on_c, 3, 51, 0
2, 434720, Note_on_c, 0, 61, 0
2, 434720, Note_on_c, 0, 74, 0
2, 434720, Note_on_c, 0, 99, 0
2, 434880, Note_on_c, 0, 87, 0
2, 434880, Note_on_c, 0, 60, 100
2, 434880, Note_on_c, 0, 73, 100
2, 434880, Note_on_c, 0, 86, 100
2, 434880, Note_on_c, 0, 98, 100
2, 434880, Note_on_c, 3, 49, 100
2, 435520, Note_on_c, 0, 98, 0
2, 435520, Note_on_c, 0, 98, 100
2, 435560, Note_on_c, 0, 108, 0
2, 435600, Note_on_c, 3, 49, 0
2, 435680, Note_on_c, 0, 60, 0
2, 435680, Note_on_c, 0, 98, 0
2, 435682, Note_on_c, 0, 73, 0
2, 435840, Note_on_c, 0, 86, 0
2, 435840, Note_on_c, 0, 62, 100
2, 435840, Note_on_c, 0, 75, 100
2, 435840, Note_on_c, 0, 88, 100
2, 435840, Note_on_c, 0, 100, 100
2, 435840, Note_on_c, 0, 108, 100
2, 435840, Note_on_c, 3, 53, 100
2, 436480, Note_on_c, 0, 100, 0
2, 436480, Note_on_c, 0, 100, 100
2, 436560, Note_on_c, 3, 53, 0
2, 436640, Note_on_c, 0, 62, 0
2, 436640, Note_on_c, 0, 100, 0
2, 436642, Note_on_c, 0, 75, 0
2, 436800, Note_on_c, 0, 88, 0
2, 436800, Note_on_c, 0, 61, 100
2, 436800, Note_on_c, 0, 74, 100
2, 436800, Note_on_c, 0, 87, 100
2, 436800, Note_on_c, 0, 99, 100
2, 436800, Note_on_c, 3, 51, 100
2, 437040, Note_on_c, 0, 87, 0
2, 437368, Note_on_c, 0, 84, 100
2, 437410, Note_on_c, 0, 70, 100
2, 437410, Note_on_c, 0, 82, 100
2, 437410, Note_on_c, 0, 94, 100
2, 437410, Note_on_c, 0, 106, 100
2, 437440, Note_on_c, 0, 99, 0
2, 437440, Note_on_c, 0, 96, 100
2, 437520, Note_on_c, 3, 51, 0
2, 437528, Note_on_c, 0, 84, 0
2, 437560, Note_on_c, 0, 108, 0
2, 437600, Note_on_c, 0, 61, 0
2, 437600, Note_on_c, 0, 74, 0
2, 437600, Note_on_c, 0, 96, 0
2, 437760, Text_t, "[lighting (sweep)]"
2, 437760, Text_t, "drum_normal"
2, 437760, Note_on_c, 0, 60, 100
2, 437760, Note_on_c, 0, 72, 100
2, 437760, Note_on_c, 0, 73, 100
2, 437760, Note_on_c, 0, 84, 100
2, 437760, Note_on_c, 0, 85, 100
2, 437760, Note_on_c, 0, 96, 100
2, 437760, Note_on_c, 0, 97, 100
2, 437760, Note_on_c, 0, 108, 100
2, 437760, Note_on_c, 3, 43, 100
2, 437880, Note_on_c, 0, 72, 0
2, 437880, Note_on_c, 0, 73, 0
2, 438000, Note_on_c, 0, 60, 0
2, 438000, Note_on_c, 0, 84, 0
2, 438000, Note_on_c, 0, 85, 0
2, 438000, Note_on_c, 0, 96, 0
2, 438000, Note_on_c, 0, 97, 0
2, 438328, Note_on_c, 0, 84, 100
2, 438400, Note_on_c, 0, 96, 100
2, 438568, Note_on_c, 0, 84, 0
2, 438640, Note_on_c, 0, 96, 0
2, 438720, Note_on_c, 0, 60, 100
2, 438720, Note_on_c, 0, 72, 100
2, 438720, Note_on_c, 0, 73, 100
2, 438720, Note_on_c, 0, 84, 100
2, 438720, Note_on_c, 0, 85, 100
2, 438720, Note_on_c, 0, 96, 100
2, 438720, Note_on_c, 0, 97, 100
2, 438840, Note_on_c, 0, 72, 0
2, 438840, Note_on_c, 0, 73, 0
2, 438960, Note_on_c, 0, 60, 0
2, 438960, Note_on_c, 0, 84, 0
2, 438960, Note_on_c, 0, 85, 0
2, 438960, Note_on_c, 0, 96, 0
2, 438960, Note_on_c, 0, 97, 0
2, 439288, Note_on_c, 0, 84, 100
2, 439360, Note_on_c, 0, 96, 100
2, 439528, Note_on_c, 0, 84, 0
2, 439600, Note_on_c, 0, 96, 0
2, 439680, Note_on_c, 0, 60, 100
2, 439680, Note_on_c, 0, 72, 100
2, 439680, Note_on_c, 0, 73, 100
2, 439680, Note_on_c, 0, 84, 100
2, 439680, Note_on_c, 0, 85, 100
2, 439680, Note_on_c, 0, 96, 100
2, 439680, Note_on_c, 0, 97, 100
2, 439800, Note_on_c, 0, 72, 0
2, 439800, Note_on_c, 0, 73, 0
2, 439920, Note_on_c, 0, 60, 0
2, 439920, Note_on_c, 0, 84, 0
2, 439920, Note_on_c, 0, 85, 0
2, 439920, Note_on_c, 0, 96, 0
2, 439920, Note_on_c, 0, 97, 0
2, 440248, Note_on_c, 0, 84, 100
2, 440320, Note_on_c, 0, 96, 100
2, 440488, Note_on_c, 0, 84, 0
2, 440560, Note_on_c, 0, 96, 0
2, 440640, Note_on_c, 0, 60, 100
2, 440640, Note_on_c, 0, 72, 100
2, 440640, Note_on_c, 0, 73, 100
2, 440640, Note_on_c, 0, 84, 100
2, 440640, Note_on_c, 0, 85, 100
2, 440640, Note_on_c, 0, 96, 100
2, 440640, Note_on_c, 0, 97, 100
2, 440680, Note_on_c, 0, 108, 0
2, 440760, Note_on_c, 0, 72, 0
2, 440760, Note_on_c, 0, 73, 0
2, 440880, Note_on_c, 0, 60, 0
2, 440880, Note_on_c, 0, 84, 0
2, 440880, Note_on_c, 0, 85, 0
2, 440880, Note_on_c, 0, 96, 0
2, 440880, Note_on_c, 0, 97, 0
2, 441208, Note_on_c, 0, 84, 100
2, 441280, Note_on_c, 0, 96, 100
2, 441448, Note_on_c, 0, 84, 0
2, 441520, Note_on_c, 0, 96, 0
2, 441600, Note_on_c, 0, 60, 100
2, 441600, Note_on_c, 0, 72, 100
2, 441600, Note_on_c, 0, 73, 100
2, 441600, Note_on_c, 0, 84, 100
2, 441600, Note_on_c, 0, 85, 100
2, 441600, Note_on_c, 0, 96, 100
2, 441600, Note_on_c, 0, 97, 100
2, 441720, Note_on_c, 0, 72, 0
2, 441720, Note_on_c, 0, 73, 0
2, 441840, Note_on_c, 0, 60, 0
2, 441840, Note_on_c, 0, 84, 0
2, 441840, Note_on_c, 0, 85, 0
2, 441840, Note_on_c, 0, 96, 0
2, 441840, Note_on_c, 0, 97, 0
2, 442168, Note_on_c, 0, 84, 100
2, 442240, Note_on_c, 0, 96, 100
2, 442408, Note_on_c, 0, 84, 0
2, 442480, Note_on_c, 0, 96, 0
2, 442560, Note_on_c, 0, 60, 100
2, 442560, Note_on_c, 0, 72, 100
2, 442560, Note_on_c, 0, 73, 100
2, 442560, Note_on_c, 0, 84, 100
2, 442560, Note_on_c, 0, 85, 100
2, 442560, Note_on_c, 0, 96, 100
2, 442560, Note_on_c, 0, 97, 100
2, 442680, Note_on_c, 0, 72, 0
2, 442680, Note_on_c, 0, 73, 0
2, 442800, Note_on_c, 0, 60, 0
2, 442800, Note_on_c, 0, 84, 0
2, 442800, Note_on_c, 0, 85, 0
2, 442800, Note_on_c, 0, 96, 0
2, 442800, Note_on_c, 0, 97, 0
2, 443128, Note_on_c, 0, 84, 100
2, 443200, Note_on_c, 0, 96, 100
2, 443368, Note_on_c, 0, 84, 0
2, 443440, Note_on_c, 0, 96, 0
2, 443520, Note_on_c, 0, 60, 100
2, 443520, Note_on_c, 0, 72, 100
2, 443520, Note_on_c, 0, 73, 100
2, 443520, Note_on_c, 0, 84, 100
2, 443520, Note_on_c, 0, 85, 100
2, 443520, Note_on_c, 0, 96, 100
2, 443520, Note_on_c, 0, 97, 100
2, 443640, Note_on_c, 0, 72, 0
2, 443640, Note_on_c, 0, 73, 0
2, 443760, Note_on_c, 0, 60, 0
2, 443760, Note_on_c, 0, 84, 0
2, 443760, Note_on_c, 0, 85, 0
2, 443760, Note_on_c, 0, 96, 0
2, 443760, Note_on_c, 0, 97, 0
2, 444000, Note_on_c, 0, 108, 100
2, 444088, Note_on_c, 0, 84, 100
2, 444160, Note_on_c, 0, 96, 100
2, 444280, Note_on_c, 0, 108, 0
2, 444328, Note_on_c, 0, 84, 0
2, 444400, Note_on_c, 0, 96, 0
2, 444480, Note_on_c, 0, 60, 100
2, 444480, Note_on_c, 0, 72, 100
2, 444480, Note_on_c, 0, 73, 100
2, 444480, Note_on_c, 0, 84, 100
2, 444480, Note_on_c, 0, 85, 100
2, 444480, Note_on_c, 0, 96, 100
2, 444480, Note_on_c, 0, 97, 100
2, 444480, Note_on_c, 0, 108, 100
2, 444600, Note_on_c, 0, 72, 0
2, 444600, Note_on_c, 0, 73, 0
2, 444720, Note_on_c, 0, 60, 0
2, 444720, Note_on_c, 0, 84, 0
2, 444720, Note_on_c, 0, 85, 0
2, 444720, Note_on_c, 0, 96, 0
2, 444720, Note_on_c, 0, 97, 0
2, 445048, Note_on_c, 0, 84, 100
2, 445120, Note_on_c, 0, 96, 100
2, 445200, Note_on_c, 3, 43, 0
2, 445240, Note_on_c, 0, 108, 0
2, 445288, Note_on_c, 0, 84, 0
2, 445360, Note_on_c, 0, 96, 0
2, 445410, Note_on_c, 0, 69, 0
2, 445410, Note_on_c, 0, 81, 0
2, 445410, Note_on_c, 0, 93, 0
2, 445410, Note_on_c, 0, 105, 0
2, 445440, Text_t, "HandMap_AllChords"
2, 445440, Text_t, "drum_double"
2, 445440, Note_on_c, 0, 60, 100
2, 445440, Note_on_c, 0, 72, 100
2, 445440, Note_on_c, 0, 84, 100
2, 445440, Note_on_c, 0, 96, 100
2, 445440, Note_on_c, 0, 108, 100
2, 445440, Note_on_c, 3, 46, 100
2, 446080, Note_on_c, 0, 96, 0
2, 446080, Note_on_c, 0, 96, 100
2, 446160, Note_on_c, 3, 46, 0
2, 446240, Note_on_c, 0, 60, 0
2, 446240, Note_on_c, 0, 72, 0
2, 446240, Note_on_c, 0, 96, 0
2, 446400, Note_on_c, 0, 84, 0
2, 446400, Note_on_c, 0, 61, 100
2, 446400, Note_on_c, 0, 73, 100
2, 446400, Note_on_c, 0, 85, 100
2, 446400, Note_on_c, 0, 97, 100
2, 446400, Note_on_c, 3, 48, 100
2, 447040, Note_on_c, 0, 97, 0
2, 447040, Note_on_c, 0, 97, 100
2, 447120, Note_on_c, 3, 48, 0
2, 447158, Note_on_c, 0, 108, 0
2, 447200, Note_on_c, 0, 61, 0
2, 447200, Note_on_c, 0, 73, 0
2, 447200, Note_on_c, 0, 97, 0
2, 447360, Note_on_c, 0, 85, 0
2, 447360, Note_on_c, 0, 62, 100
2, 447360, Note_on_c, 0, 74, 100
2, 447360, Note_on_c, 0, 86, 100
2, 447360, Note_on_c, 0, 98, 100
2, 447360, Note_on_c, 0, 108, 100
2, 447360, Note_on_c, 3, 49, 100
2, 448000, Note_on_c, 0, 98, 0
2, 448000, Note_on_c, 0, 98, 100
2, 448080, Note_on_c, 3, 49, 0
2, 448160, Note_on_c, 0, 62, 0
2, 448160, Note_on_c, 0, 74, 0
2, 448160, Note_on_c, 0, 98, 0
2, 448320, Note_on_c, 0, 86, 0
2, 448320, Note_on_c, 0, 60, 100
2, 448320, Note_on_c, 0, 72, 100
2, 448320, Note_on_c, 0, 85, 100
2, 448320, Note_on_c, 0, 97, 100
2, 448320, Note_on_c, 3, 48, 100
2, 448960, Note_on_c, 0, 97, 0
2, 448960, Note_on_c, 0, 97, 100
2, 449040, Note_on_c, 3, 48, 0
2, 449078, Note_on_c, 0, 108, 0
2, 449120, Note_on_c, 0, 60, 0
2, 449120, Note_on_c, 0, 72, 0
2, 449120, Note_on_c, 0, 97, 0
2, 449280, Note_on_c, 0, 85, 0
2, 449280, Note_on_c, 0, 61, 100
2, 449280, Note_on_c, 0, 74, 100
2, 449280, Note_on_c, 0, 87, 100
2, 449280, Note_on_c, 0, 99, 100
2, 449280, Note_on_c, 0, 108, 100
2, 449280, Note_on_c, 3, 51, 100
2, 449920, Note_on_c, 0, 99, 0
2, 449920, Note_on_c, 0, 99, 100
2, 449996, Note_on_c, 3, 51, 0
2, 450080, Note_on_c, 0, 61, 0
2, 450080, Note_on_c, 0, 99, 0
2, 450084, Note_on_c, 0, 74, 0
2, 450240, Note_on_c, 0, 87, 0
2, 450240, Note_on_c, 0, 60, 100
2, 450240, Note_on_c, 0, 73, 100
2, 450240, Note_on_c, 0, 86, 100
2, 450240, Note_on_c, 0, 98, 100
2, 450240, Note_on_c, 3, 49, 100
2, 450880, Note_on_c, 0, 98, 0
2, 450880, Note_on_c, 0, 98, 100
2, 450920, Note_on_c, 0, 108, 0
2, 450960, Note_on_c, 3, 49, 0
2, 451040, Note_on_c, 0, 60, 0
2, 451040, Note_on_c, 0, 98, 0
2, 451044, Note_on_c, 0, 73, 0
2, 451200, Note_on_c, 0, 86, 0
2, 451200, Note_on_c, 0, 62, 100
2, 451200, Note_on_c, 0, 75, 100
2, 451200, Note_on_c, 0, 88, 100
2, 451200, Note_on_c, 0, 100, 100
2, 451200, Note_on_c, 0, 108, 100
2, 451200, Note_on_c, 3, 53, 100
2, 451840, Note_on_c, 0, 100, 0
2, 451840, Note_on_c, 0, 100, 100
2, 451920, Note_on_c, 3, 53, 0
2, 452000, Note_on_c, 0, 62, 0
2, 452000, Note_on_c, 0, 100, 0
2, 452004, Note_on_c, 0, 75, 0
2, 452160, Note_on_c, 0, 88, 0
2, 452160, Note_on_c, 0, 61, 100
2, 452160, Note_on_c, 0, 74, 100
2, 452160, Note_on_c, 0, 87, 100
2, 452160, Note_on_c, 0, 99, 100
2, 452160, Note_on_c, 3, 51, 100
2, 452400, Note_on_c, 0, 87, 0
2, 452728, Note_on_c, 0, 84, 100
2, 452770, Note_on_c, 0, 69, 100
2, 452770, Note_on_c, 0, 81, 100
2, 452770, Note_on_c, 0, 93, 100
2, 452770, Note_on_c, 0, 105, 100
2, 452800, Note_on_c, 0, 99, 0
2, 452800, Note_on_c, 0, 96, 100
2, 452880, Note_on_c, 3, 51, 0
2, 452888, Note_on_c, 0, 84, 0
2, 452920, Note_on_c, 0, 108, 0
2, 452960, Note_on_c, 0, 61, 0
2, 452960, Note_on_c, 0, 74, 0
2, 452960, Note_on_c, 0, 96, 0
2, 453120, Text_t, "HandMap_Default"
2, 453120, Text_t, "drum_normal"
2, 453120, Note_on_c, 0, 60, 100
2, 453120, Note_on_c, 0, 72, 100
2, 453120, Note_on_c, 0, 73, 100
2, 453120, Note_on_c, 0, 84, 100
2, 453120, Note_on_c, 0, 85, 100
2, 453120, Note_on_c, 0, 96, 100
2, 453120, Note_on_c, 0, 97, 100
2, 453120, Note_on_c, 0, 108, 100
2, 453120, Note_on_c, 3, 43, 100
2, 453240, Note_on_c, 0, 72, 0
2, 453240, Note_on_c, 0, 73, 0
2, 453360, Note_on_c, 0, 60, 0
2, 453360, Note_on_c, 0, 84, 0
2, 453360, Note_on_c, 0, 85, 0
2, 453360, Note_on_c, 0, 96, 0
2, 453360, Note_on_c, 0, 97, 0
2, 453688, Note_on_c, 0, 84, 100
2, 453760, Note_on_c, 0, 96, 100
2, 453928, Note_on_c, 0, 84, 0
2, 454000, Note_on_c, 0, 96, 0
2, 454080, Note_on_c, 0, 60, 100
2, 454080, Note_on_c, 0, 72, 100
2, 454080, Note_on_c, 0, 73, 100
2, 454080, Note_on_c, 0, 84, 100
2, 454080, Note_on_c, 0, 85, 100
2, 454080, Note_on_c, 0, 96, 100
2, 454080, Note_on_c, 0, 97, 100
2, 454204, Note_on_c, 0, 72, 0
2, 454204, Note_on_c, 0, 73, 0
2, 454320, Note_on_c, 0, 60, 0
2, 454320, Note_on_c, 0, 84, 0
2, 454320, Note_on_c, 0, 85, 0
2, 454320, Note_on_c, 0, 96, 0
2, 454320, Note_on_c, 0, 97, 0
2, 454648, Note_on_c, 0, 84, 100
2, 454720, Note_on_c, 0, 96, 100
2, 454888, Note_on_c, 0, 84, 0
2, 454960, Note_on_c, 0, 96, 0
2, 455040, Note_on_c, 0, 60, 100
2, 455040, Note_on_c, 0, 72, 100
2, 455040, Note_on_c, 0, 73, 100
2, 455040, Note_on_c, 0, 84, 100
2, 455040, Note_on_c, 0, 85, 100
2, 455040, Note_on_c, 0, 96, 100
2, 455040, Note_on_c, 0, 97, 100
2, 455164, Note_on_c, 0, 72, 0
2, 455164, Note_on_c, 0, 73, 0
2, 455280, Note_on_c, 0, 60, 0
2, 455280, Note_on_c, 0, 84, 0
2, 455280, Note_on_c, 0, 85, 0
2, 455280, Note_on_c, 0, 96, 0
2, 455280, Note_on_c, 0, 97, 0
2, 455608, Note_on_c, 0, 84, 100
2, 455680, Note_on_c, 0, 96, 100
2, 455848, Note_on_c, 0, 84, 0
2, 455920, Note_on_c, 0, 96, 0
2, 456000, Note_on_c, 0, 60, 100
2, 456000, Note_on_c, 0, 72, 100
2, 456000, Note_on_c, 0, 73, 100
2, 456000, Note_on_c, 0, 84, 100
2, 456000, Note_on_c, 0, 85, 100
2, 456000, Note_on_c, 0, 96, 100
2, 456000, Note_on_c, 0, 97, 100
2, 456040, Note_on_c, 0, 108, 0
2, 456124, Note_on_c, 0, 72, 0
2, 456124, Note_on_c, 0, 73, 0
2, 456240, Note_on_c, 0, 60, 0
2, 456240, Note_on_c, 0, 84, 0
2, 456240, Note_on_c, 0, 85, 0
2, 456240, Note_on_c, 0, 96, 0
2, 456240, Note_on_c, 0, 97, 0
2, 456568, Note_on_c, 0, 84, 100
2, 456640, Note_on_c, 0, 96, 100
2, 456808, Note_on_c, 0, 84, 0
2, 456880, Note_on_c, 0, 96, 0
2, 456960, Note_on_c, 0, 60, 100
2, 456960, Note_on_c, 0, 72, 100
2, 456960, Note_on_c, 0, 73, 100
2, 456960, Note_on_c, 0, 84, 100
2, 456960, Note_on_c, 0, 85, 100
2, 456960, Note_on_c, 0, 96, 100
2, 456960, Note_on_c, 0, 97, 100
2, 457084, Note_on_c, 0, 72, 0
2, 457084, Note_on_c, 0, 73, 0
2, 457200, Note_on_c, 0, 60, 0
2, 457200, Note_on_c, 0, 84, 0
2, 457200, Note_on_c, 0, 85, 0
2, 457200, Note_on_c, 0, 96, 0
2, 457200, Note_on_c, 0, 97, 0
2, 457528, Note_on_c, 0, 84, 100
2, 457600, Note_on_c, 0, 96, 100
2, 457768, Note_on_c, 0, 84, 0
2, 457840, Note_on_c, 0, 96, 0
2, 457920, Note_on_c, 0, 60, 100
2, 457920, Note_on_c, 0, 72, 100
2, 457920, Note_on_c, 0, 73, 100
2, 457920, Note_on_c, 0, 84, 100
2, 457920, Note_on_c, 0, 85, 100
2, 457920, Note_on_c, 0, 96, 100
2, 457920, Note_on_c, 0, 97, 100
2, 458044, Note_on_c, 0, 72, 0
2, 458044, Note_on_c, 0, 73, 0
2, 458160, Note_on_c, 0, 60, 0
2, 458160, Note_on_c, 0, 84, 0
2, 458160, Note_on_c, 0, 85, 0
2, 458160, Note_on_c, 0, 96, 0
2, 458160, Note_on_c, 0, 97, 0
2, 458488, Note_on_c, 0, 84, 100
2, 458560, Note_on_c, 0, 96, 100
2, 458728, Note_on_c, 0, 84, 0
2, 458800, Note_on_c, 0, 96, 0
2, 458880, Note_on_c, 0, 60, 100
2, 458880, Note_on_c, 0, 72, 100
2, 458880, Note_on_c, 0, 73, 100
2, 458880, Note_on_c, 0, 84, 100
2, 458880, Note_on_c, 0, 85, 100
2, 458880, Note_on_c, 0, 96, 100
2, 458880, Note_on_c, 0, 97, 100
2, 459004, Note_on_c, 0, 72, 0
2, 459004, Note_on_c, 0, 73, 0
2, 459120, Note_on_c, 0, 60, 0
2, 459120, Note_on_c, 0, 84, 0
2, 459120, Note_on_c, 0, 85, 0
2, 459120, Note_on_c, 0, 96, 0
2, 459120, Note_on_c, 0, 97, 0
2, 459360, Note_on_c, 0, 108, 100
2, 459448, Note_on_c, 0, 84, 100
2, 459520, Note_on_c, 0, 96, 100
2, 459640, Note_on_c, 0, 108, 0
2, 459688, Note_on_c, 0, 84, 0
2, 459760, Note_on_c, 0, 96, 0
2, 459840, Note_on_c, 0, 60, 100
2, 459840, Note_on_c, 0, 72, 100
2, 459840, Note_on_c, 0, 73, 100
2, 459840, Note_on_c, 0, 84, 100
2, 459840, Note_on_c, 0, 85, 100
2, 459840, Note_on_c, 0, 96, 100
2, 459840, Note_on_c, 0, 97, 100
2, 459840, Note_on_c, 0, 108, 100
2, 459964, Note_on_c, 0, 72, 0
2, 459964, Note_on_c, 0, 73, 0
2, 460080, Note_on_c, 0, 60, 0
2, 460080, Note_on_c, 0, 84, 0
2, 460080, Note_on_c, 0, 85, 0
2, 460080, Note_on_c, 0, 96, 0
2, 460080, Note_on_c, 0, 97, 0
2, 460408, Note_on_c, 0, 84, 100
2, 460450, Note_on_c, 0, 70, 0
2, 460450, Note_on_c, 0, 82, 0
2, 460450, Note_on_c, 0, 94, 0
2, 460450, Note_on_c, 0, 106, 0
2, 460480, Note_on_c, 0, 96, 100
2, 460560, Note_on_c, 3, 43, 0
2, 460600, Note_on_c, 0, 108, 0
2, 460648, Note_on_c, 0, 84, 0
2, 460720, Note_on_c, 0, 96, 0
2, 460800, Text_t, "HandMap_AllChords"
2, 460800, Text_t, "drum_double"
2, 460800, Note_on_c, 0, 62, 100
2, 460800, Note_on_c, 0, 75, 100
2, 460800, Note_on_c, 0, 87, 100
2, 460800, Note_on_c, 0, 99, 100
2, 460800, Note_on_c, 0, 108, 100
2, 460800, Note_on_c, 3, 49, 100
2, 461440, Note_on_c, 0, 99, 0
2, 461440, Note_on_c, 0, 99, 100
2, 461520, Note_on_c, 3, 49, 0
2, 461600, Note_on_c, 0, 62, 0
2, 461600, Note_on_c, 0, 75, 0
2, 461600, Note_on_c, 0, 99, 0
2, 461760, Note_on_c, 0, 87, 0
2, 461760, Note_on_c, 0, 61, 100
2, 461760, Note_on_c, 0, 74, 100
2, 461760, Note_on_c, 0, 86, 100
2, 461760, Note_on_c, 0, 98, 100
2, 461760, Note_on_c, 3, 48, 100
2, 462400, Note_on_c, 0, 98, 0
2, 462400, Note_on_c, 0, 98, 100
2, 462480, Note_on_c, 3, 48, 0
2, 462520, Note_on_c, 0, 108, 0
2, 462560, Note_on_c, 0, 61, 0
2, 462560, Note_on_c, 0, 74, 0
2, 462560, Note_on_c, 0, 98, 0
2, 462720, Note_on_c, 0, 86, 0
2, 462720, Note_on_c, 0, 60, 100
2, 462720, Note_on_c, 0, 73, 100
2, 462720, Note_on_c, 0, 85, 100
2, 462720, Note_on_c, 0, 97, 100
2, 462720, Note_on_c, 0, 108, 100
2, 462720, Note_on_c, 3, 46, 100
2, 463360, Note_on_c, 0, 97, 0
2, 463360, Note_on_c, 0, 97, 100
2, 463440, Note_on_c, 3, 46, 0
2, 463520, Note_on_c, 0, 60, 0
2, 463520, Note_on_c, 0, 73, 0
2, 463520, Note_on_c, 0, 97, 0
2, 463680, Note_on_c, 0, 85, 0
2, 463680, Note_on_c, 0, 61, 100
2, 463680, Note_on_c, 0, 72, 100
2, 463680, Note_on_c, 0, 84, 100
2, 463680, Note_on_c, 0, 96, 100
2, 463680, Note_on_c, 3, 45, 100
2, 464320, Note_on_c, 0, 96, 0
2, 464320, Note_on_c, 0, 96, 100
2, 464400, Note_on_c, 3, 45, 0
2, 464440, Note_on_c, 0, 108, 0
2, 464480, Note_on_c, 0, 61, 0
2, 464480, Note_on_c, 0, 72, 0
2, 464480, Note_on_c, 0, 96, 0
2, 464640, Note_on_c, 0, 84, 0
2, 464640, Note_on_c, 0, 60, 100
2, 464640, Note_on_c, 0, 73, 100
2, 464640, Note_on_c, 0, 85, 100
2, 464640, Note_on_c, 0, 97, 100
2, 464640, Note_on_c, 0, 108, 100
2, 464640, Note_on_c, 3, 46, 100
2, 465280, Note_on_c, 0, 97, 0
2, 465280, Note_on_c, 0, 97, 100
2, 465360, Note_on_c, 3, 46, 0
2, 465440, Note_on_c, 0, 60, 0
2, 465440, Note_on_c, 0, 73, 0
2, 465440, Note_on_c, 0, 97, 0
2, 465600, Note_on_c, 0, 85, 0
2, 465600, Note_on_c, 0, 61, 100
2, 465600, Note_on_c, 0, 74, 100
2, 465600, Note_on_c, 0, 86, 100
2, 465600, Note_on_c, 0, 98, 100
2, 465600, Note_on_c, 3, 48, 100
2, 466240, Note_on_c, 0, 98, 0
2, 466240, Note_on_c, 0, 98, 100
2, 466280, Note_on_c, 0, 108, 0
2, 466320, Note_on_c, 3, 48, 0
2, 466400, Note_on_c, 0, 61, 0
2, 466400, Note_on_c, 0, 74, 0
2, 466400, Note_on_c, 0, 98, 0
2, 466560, Note_on_c, 0, 86, 0
2, 466560, Note_on_c, 0, 62, 100
2, 466560, Note_on_c, 0, 75, 100
2, 466560, Note_on_c, 0, 87, 100
2, 466560, Note_on_c, 0, 99, 100
2, 466560, Note_on_c, 0, 108, 100
2, 466560, Note_on_c, 3, 49, 100
2, 467200, Note_on_c, 0, 99, 0
2, 467200, Note_on_c, 0, 99, 100
2, 467280, Note_on_c, 3, 49, 0
2, 467360, Note_on_c, 0, 62, 0
2, 467360, Note_on_c, 0, 75, 0
2, 467360, Note_on_c, 0, 99, 0
2, 467520, Note_on_c, 0, 87, 0
2, 467520, Note_on_c, 0, 61, 100
2, 467520, Note_on_c, 0, 74, 100
2, 467520, Note_on_c, 0, 86, 100
2, 467520, Note_on_c, 0, 98, 100
2, 467520, Note_on_c, 3, 48, 100
2, 467760, Note_on_c, 0, 86, 0
2, 468088, Note_on_c, 0, 84, 100
2, 468130, Note_on_c, 0, 70, 100
2, 468130, Note_on_c, 0, 82, 100
2, 468130, Note_on_c, 0, 94, 100
2, 468130, Note_on_c, 0, 106, 100
2, 468160, Note_on_c, 0, 98, 0
2, 468160, Note_on_c, 0, 96, 100
2, 468240, Note_on_c, 3, 48, 0
2, 468248, Note_on_c, 0, 84, 0
2, 468280, Note_on_c, 0, 108, 0
2, 468320, Note_on_c, 0, 61, 0
2, 468320, Note_on_c, 0, 74, 0
2, 468320, Note_on_c, 0, 96, 0
2, 468480, Text_t, "HandMap_Default"
2, 468480, Text_t, "drum_normal"
2, 468480, Note_on_c, 0, 60, 100
2, 468480, Note_on_c, 0, 72, 100
2, 468480, Note_on_c, 0, 73, 100
2, 468480, Note_on_c, 0, 84, 100
2, 468480, Note_on_c, 0, 85, 100
2, 468480, Note_on_c, 0, 96, 100
2, 468480, Note_on_c, 0, 97, 100
2, 468480, Note_on_c, 0, 108, 100
2, 468480, Note_on_c, 3, 43, 100
2, 468600, Note_on_c, 0, 72, 0
2, 468600, Note_on_c, 0, 73, 0
2, 468720, Note_on_c, 0, 60, 0
2, 468720, Note_on_c, 0, 84, 0
2, 468720, Note_on_c, 0, 85, 0
2, 468720, Note_on_c, 0, 96, 0
2, 468720, Note_on_c, 0, 97, 0
2, 469048, Note_on_c, 0, 84, 100
2, 469120, Note_on_c, 0, 96, 100
2, 469288, Note_on_c, 0, 84, 0
2, 469360, Note_on_c, 0, 96, 0
2, 469440, Note_on_c, 0, 60, 100
2, 469440, Note_on_c, 0, 72, 100
2, 469440, Note_on_c, 0, 73, 100
2, 469440, Note_on_c, 0, 84, 100
2, 469440, Note_on_c, 0, 85, 100
2, 469440, Note_on_c, 0, 96, 100
2, 469440, Note_on_c, 0, 97, 100
2, 469560, Note_on_c, 0, 72, 0
2, 469560, Note_on_c, 0, 73, 0
2, 469680, Note_on_c, 0, 60, 0
2, 469680, Note_on_c, 0, 84, 0
2, 469680, Note_on_c, 0, 85, 0
2, 469680, Note_on_c, 0, 96, 0
2, 469680, Note_on_c, 0, 97, 0
2, 470008, Note_on_c, 0, 84, 100
2, 470080, Note_on_c, 0, 96, 100
2, 470248, Note_on_c, 0, 84, 0
2, 470320, Note_on_c, 0, 96, 0
2, 470400, Note_on_c, 0, 60, 100
2, 470400, Note_on_c, 0, 72, 100
2, 470400, Note_on_c, 0, 73, 100
2, 470400, Note_on_c, 0, 84, 100
2, 470400, Note_on_c, 0, 85, 100
2, 470400, Note_on_c, 0, 96, 100
2, 470400, Note_on_c, 0, 97, 100
2, 470520, Note_on_c, 0, 72, 0
2, 470520, Note_on_c, 0, 73, 0
2, 470640, Note_on_c, 0, 60, 0
2, 470640, Note_on_c, 0, 84, 0
2, 470640, Note_on_c, 0, 85, 0
2, 470640, Note_on_c, 0, 96, 0
2, 470640, Note_on_c, 0, 97, 0
2, 470968, Note_on_c, 0, 84, 100
2, 471040, Note_on_c, 0, 96, 100
2, 471208, Note_on_c, 0, 84, 0
2, 471280, Note_on_c, 0, 96, 0
2, 471360, Note_on_c, 0, 60, 100
2, 471360, Note_on_c, 0, 72, 100
2, 471360, Note_on_c, 0, 73, 100
2, 471360, Note_on_c, 0, 84, 100
2, 471360, Note_on_c, 0, 85, 100
2, 471360, Note_on_c, 0, 96, 100
2, 471360, Note_on_c, 0, 97, 100
2, 471480, Note_on_c, 0, 72, 0
2, 471480, Note_on_c, 0, 73, 0
2, 471600, Note_on_c, 0, 60, 0
2, 471600, Note_on_c, 0, 84, 0
2, 471600, Note_on_c, 0, 85, 0
2, 471600, Note_on_c, 0, 96, 0
2, 471600, Note_on_c, 0, 97, 0
2, 471928, Note_on_c, 0, 84, 100
2, 472000, Note_on_c, 0, 96, 100
2, 472168, Note_on_c, 0, 84, 0
2, 472240, Note_on_c, 0, 96, 0
2, 472320, Note_on_c, 0, 60, 100
2, 472320, Note_on_c, 0, 72, 100
2, 472320, Note_on_c, 0, 73, 100
2, 472320, Note_on_c, 0, 84, 100
2, 472320, Note_on_c, 0, 85, 100
2, 472320, Note_on_c, 0, 96, 100
2, 472320, Note_on_c, 0, 97, 100
2, 472440, Note_on_c, 0, 72, 0
2, 472440, Note_on_c, 0, 73, 0
2, 472560, Note_on_c, 0, 60, 0
2, 472560, Note_on_c, 0, 84, 0
2, 472560, Note_on_c, 0, 85, 0
2, 472560, Note_on_c, 0, 96, 0
2, 472560, Note_on_c, 0, 97, 0
2, 472886, Note_on_c, 0, 84, 100
2, 472960, Note_on_c, 0, 96, 100
2, 473126, Note_on_c, 0, 84, 0
2, 473200, Note_on_c, 0, 96, 0
2, 473280, Note_on_c, 0, 60, 100
2, 473280, Note_on_c, 0, 72, 100
2, 473280, Note_on_c, 0, 73, 100
2, 473280, Note_on_c, 0, 84, 100
2, 473280, Note_on_c, 0, 85, 100
2, 473280, Note_on_c, 0, 96, 100
2, 473280, Note_on_c, 0, 97, 100
2, 473400, Note_on_c, 0, 72, 0
2, 473400, Note_on_c, 0, 73, 0
2, 473520, Note_on_c, 0, 60, 0
2, 473520, Note_on_c, 0, 84, 0
2, 473520, Note_on_c, 0, 85, 0
2, 473520, Note_on_c, 0, 96, 0
2, 473520, Note_on_c, 0, 97, 0
2, 473846, Note_on_c, 0, 84, 100
2, 473880, Note_on_c, 0, 108, 0
2, 473920, Note_on_c, 0, 96, 100
2, 474086, Note_on_c, 0, 84, 0
2, 474160, Note_on_c, 0, 96, 0
2, 474240, Note_on_c, 0, 60, 100
2, 474240, Note_on_c, 0, 72, 100
2, 474240, Note_on_c, 0, 73, 100
2, 474240, Note_on_c, 0, 84, 100
2, 474240, Note_on_c, 0, 85, 100
2, 474240, Note_on_c, 0, 96, 100
2, 474240, Note_on_c, 0, 97, 100
2, 474360, Note_on_c, 0, 72, 0
2, 474360, Note_on_c, 0, 73, 0
2, 474480, Note_on_c, 0, 60, 0
2, 474480, Note_on_c, 0, 84, 0
2, 474480, Note_on_c, 0, 85, 0
2, 474480, Note_on_c, 0, 96, 0
2, 474480, Note_on_c, 0, 97, 0
2, 474806, Note_on_c, 0, 84, 100
2, 474880, Note_on_c, 0, 96, 100
2, 475046, Note_on_c, 0, 84, 0
2, 475120, Note_on_c, 0, 96, 0
2, 475200, Note_on_c, 0, 60, 100
2, 475200, Note_on_c, 0, 72, 100
2, 475200, Note_on_c, 0, 73, 100
2, 475200, Note_on_c, 0, 84, 100
2, 475200, Note_on_c, 0, 85, 100
2, 475200, Note_on_c, 0, 96, 100
2, 475200, Note_on_c, 0, 97, 100
2, 475200, Note_on_c, 0, 108, 100
2, 475320, Note_on_c, 0, 72, 0
2, 475320, Note_on_c, 0, 73, 0
2, 475440, Note_on_c, 0, 60, 0
2, 475440, Note_on_c, 0, 84, 0
2, 475440, Note_on_c, 0, 85, 0
2, 475440, Note_on_c, 0, 96, 0
2, 475440, Note_on_c, 0, 97, 0
2, 475766, Note_on_c, 0, 84, 100
2, 475800, Note_on_c, 0, 108, 0
2, 475840, Note_on_c, 0, 96, 100
2, 475920, Note_on_c, 3, 43, 0
2, 476006, Note_on_c, 0, 84, 0
2, 476080, Note_on_c, 0, 96, 0
2, 476130, Note_on_c, 0, 69, 0
2, 476130, Note_on_c, 0, 81, 0
2, 476130, Note_on_c, 0, 93, 0
2, 476130, Note_on_c, 0, 105, 0
2, 476160, Text_t, "HandMap_AllChords"
2, 476160, Text_t, "drum_double"
2, 476160, Note_on_c, 0, 60, 100
2, 476160, Note_on_c, 0, 72, 100
2, 476160, Note_on_c, 0, 84, 100
2, 476160, Note_on_c, 0, 96, 100
2, 476160, Note_on_c, 0, 108, 100
2, 476160, Note_on_c, 3, 46, 100
2, 476800, Note_on_c, 0, 96, 0
2, 476800, Note_on_c, 0, 96, 100
2, 476880, Note_on_c, 3, 46, 0
2, 476960, Note_on_c, 0, 60, 0
2, 476960, Note_on_c, 0, 72, 0
2, 476960, Note_on_c, 0, 96, 0
2, 477120, Note_on_c, 0, 84, 0
2, 477120, Note_on_c, 0, 61, 100
2, 477120, Note_on_c, 0, 73, 100
2, 477120, Note_on_c, 0, 85, 100
2, 477120, Note_on_c, 0, 97, 100
2, 477120, Note_on_c, 3, 48, 100
2, 477760, Note_on_c, 0, 97, 0
2, 477760, Note_on_c, 0, 97, 100
2, 477840, Note_on_c, 3, 48, 0
2, 477878, Note_on_c, 0, 108, 0
2, 477920, Note_on_c, 0, 61, 0
2, 477920, Note_on_c, 0, 73, 0
2, 477920, Note_on_c, 0, 97, 0
2, 478080, Note_on_c, 0, 85, 0
2, 478080, Note_on_c, 0, 62, 100
2, 478080, Note_on_c, 0, 74, 100
2, 478080, Note_on_c, 0, 86, 100
2, 478080, Note_on_c, 0, 98, 100
2, 478080, Note_on_c, 0, 108, 100
2, 478080, Note_on_c, 3, 49, 100
2, 478720, Note_on_c, 0, 98, 0
2, 478720, Note_on_c, 0, 98, 100
2, 478800, Note_on_c, 3, 49, 0
2, 478880, Note_on_c, 0, 62, 0
2, 478880, Note_on_c, 0, 74, 0
2, 478880, Note_on_c, 0, 98, 0
2, 479040, Note_on_c, 0, 86, 0
2, 479040, Note_on_c, 0, 60, 100
2, 479040, Note_on_c, 0, 72, 100
2, 479040, Note_on_c, 0, 85, 100
2, 479040, Note_on_c, 0, 97, 100
2, 479040, Note_on_c, 3, 48, 100
2, 479680, Note_on_c, 0, 97, 0
2, 479680, Note_on_c, 0, 97, 100
2, 479760, Note_on_c, 3, 48, 0
2, 479798, Note_on_c, 0, 108, 0
2, 479840, Note_on_c, 0, 60, 0
2, 479840, Note_on_c, 0, 72, 0
2, 479840, Note_on_c, 0, 97, 0
2, 480000, Note_on_c, 0, 85, 0
2, 480000, Note_on_c, 0, 61, 100
2, 480000, Note_on_c, 0, 74, 100
2, 480000, Note_on_c, 0, 87, 100
2, 480000, Note_on_c, 0, 99, 100
2, 480000, Note_on_c, 0, 108, 100
2, 480000, Note_on_c, 3, 51, 100
2, 480640, Note_on_c, 0, 99, 0
2, 480640, Note_on_c, 0, 99, 100
2, 480716, Note_on_c, 3, 51, 0
2, 480800, Note_on_c, 0, 61, 0
2, 480800, Note_on_c, 0, 74, 0
2, 480800, Note_on_c, 0, 99, 0
2, 480960, Note_on_c, 0, 87, 0
2, 480960, Note_on_c, 0, 60, 100
2, 480960, Note_on_c, 0, 73, 100
2, 480960, Note_on_c, 0, 86, 100
2, 480960, Note_on_c, 0, 98, 100
2, 480960, Note_on_c, 3, 49, 100
2, 481600, Note_on_c, 0, 98, 0
2, 481600, Note_on_c, 0, 98, 100
2, 481680, Note_on_c, 0, 108, 0
2, 481680, Note_on_c, 3, 49, 0
2, 481760, Note_on_c, 0, 60, 0
2, 481760, Note_on_c, 0, 73, 0
2, 481760, Note_on_c, 0, 98, 0
2, 481920, Note_on_c, 0, 86, 0
2, 481920, Note_on_c, 0, 62, 100
2, 481920, Note_on_c, 0, 75, 100
2, 481920, Note_on_c, 0, 88, 100
2, 481920, Note_on_c, 0, 100, 100
2, 481920, Note_on_c, 0, 108, 100
2, 481920, Note_on_c, 3, 53, 100
2, 482560, Note_on_c, 0, 100, 0
2, 482560, Note_on_c, 0, 100, 100
2, 482640, Note_on_c, 3, 53, 0
2, 482720, Note_on_c, 0, 62, 0
2, 482720, Note_on_c, 0, 75, 0
2, 482720, Note_on_c, 0, 100, 0
2, 482880, Note_on_c, 0, 88, 0
2, 482880, Note_on_c, 0, 61, 100
2, 482880, Note_on_c, 0, 74, 100
2, 482880, Note_on_c, 0, 87, 100
2, 482880, Note_on_c, 0, 99, 100
2, 482880, Note_on_c, 3, 51, 100
2, 483120, Note_on_c, 0, 87, 0
2, 483448, Note_on_c, 0, 84, 100
2, 483490, Note_on_c, 0, 69, 100
2, 483490, Note_on_c, 0, 81, 100
2, 483490, Note_on_c, 0, 93, 100
2, 483490, Note_on_c, 0, 105, 100
2, 483520, Note_on_c, 0, 99, 0
2, 483520, Note_on_c, 0, 96, 100
2, 483600, Note_on_c, 3, 51, 0
2, 483608, Note_on_c, 0, 84, 0
2, 483638, Note_on_c, 0, 108, 0
2, 483680, Note_on_c, 0, 61, 0
2, 483680, Note_on_c, 0, 74, 0
2, 483680, Note_on_c, 0, 96, 0
2, 483840, Text_t, "HandMap_Default"
2, 483840, Text_t, "drum_normal"
2, 483840, Note_on_c, 0, 60, 100
2, 483840, Note_on_c, 0, 72, 100
2, 483840, Note_on_c, 0, 73, 100
2, 483840, Note_on_c, 0, 84, 100
2, 483840, Note_on_c, 0, 85, 100
2, 483840, Note_on_c, 0, 96, 100
2, 483840, Note_on_c, 0, 97, 100
2, 483840, Note_on_c, 0, 108, 100
2, 483840, Note_on_c, 3, 43, 100
2, 483960, Note_on_c, 0, 72, 0
2, 483960, Note_on_c, 0, 73, 0
2, 484080, Note_on_c, 0, 60, 0
2, 484080, Note_on_c, 0, 84, 0
2, 484080, Note_on_c, 0, 85, 0
2, 484080, Note_on_c, 0, 96, 0
2, 484080, Note_on_c, 0, 97, 0
2, 484406, Note_on_c, 0, 84, 100
2, 484480, Note_on_c, 0, 96, 100
2, 484646, Note_on_c, 0, 84, 0
2, 484720, Note_on_c, 0, 96, 0
2, 484800, Note_on_c, 0, 60, 100
2, 484800, Note_on_c, 0, 72, 100
2, 484800, Note_on_c, 0, 73, 100
2, 484800, Note_on_c, 0, 84, 100
2, 484800, Note_on_c, 0, 85, 100
2, 484800, Note_on_c, 0, 96, 100
2, 484800, Note_on_c, 0, 97, 100
2, 484920, Note_on_c, 0, 72, 0
2, 484920, Note_on_c, 0, 73, 0
2, 485040, Note_on_c, 0, 60, 0
2, 485040, Note_on_c, 0, 84, 0
2, 485040, Note_on_c, 0, 85, 0
2, 485040, Note_on_c, 0, 96, 0
2, 485040, Note_on_c, 0, 97, 0
2, 485366, Note_on_c, 0, 84, 100
2, 485440, Note_on_c, 0, 96, 100
2, 485606, Note_on_c, 0, 84, 0
2, 485680, Note_on_c, 0, 96, 0
2, 485760, Note_on_c, 0, 60, 100
2, 485760, Note_on_c, 0, 72, 100
2, 485760, Note_on_c, 0, 73, 100
2, 485760, Note_on_c, 0, 84, 100
2, 485760, Note_on_c, 0, 85, 100
2, 485760, Note_on_c, 0, 96, 100
2, 485760, Note_on_c, 0, 97, 100
2, 485880, Note_on_c, 0, 72, 0
2, 485880, Note_on_c, 0, 73, 0
2, 486000, Note_on_c, 0, 60, 0
2, 486000, Note_on_c, 0, 84, 0
2, 486000, Note_on_c, 0, 85, 0
2, 486000, Note_on_c, 0, 96, 0
2, 486000, Note_on_c, 0, 97, 0
2, 486326, Note_on_c, 0, 84, 100
2, 486400, Note_on_c, 0, 96, 100
2, 486566, Note_on_c, 0, 84, 0
2, 486600, Note_on_c, 0, 108, 0
2, 486640, Note_on_c, 0, 96, 0
2, 486720, Note_on_c, 0, 60, 100
2, 486720, Note_on_c, 0, 72, 100
2, 486720, Note_on_c, 0, 73, 100
2, 486720, Note_on_c, 0, 84, 100
2, 486720, Note_on_c, 0, 85, 100
2, 486720, Note_on_c, 0, 96, 100
2, 486720, Note_on_c, 0, 97, 100
2, 486840, Note_on_c, 0, 72, 0
2, 486840, Note_on_c, 0, 73, 0
2, 486960, Note_on_c, 0, 60, 0
2, 486960, Note_on_c, 0, 84, 0
2, 486960, Note_on_c, 0, 85, 0
2, 486960, Note_on_c, 0, 96, 0
2, 486960, Note_on_c, 0, 97, 0
2, 487230, Note_on_c, 0, 67, 100
2, 487230, Note_on_c, 0, 79, 100
2, 487230, Note_on_c, 0, 91, 100
2, 487230, Note_on_c, 0, 103, 100
2, 487286, Note_on_c, 0, 84, 100
2, 487360, Note_on_c, 0, 96, 100
2, 487526, Note_on_c, 0, 84, 0
2, 487600, Note_on_c, 0, 96, 0
2, 487680, Note_on_c, 0, 60, 100
2, 487680, Note_on_c, 0, 72, 100
2, 487680, Note_on_c, 0, 73, 100
2, 487680, Note_on_c, 0, 84, 100
2, 487680, Note_on_c, 0, 85, 100
2, 487680, Note_on_c, 0, 96, 100
2, 487680, Note_on_c, 0, 97, 100
2, 487680, Note_on_c, 0, 108, 100
2, 487800, Note_on_c, 0, 72, 0
2, 487800, Note_on_c, 0, 73, 0
2, 487920, Note_on_c, 0, 60, 0
2, 487920, Note_on_c, 0, 84, 0
2, 487920, Note_on_c, 0, 85, 0
2, 487920, Note_on_c, 0, 96, 0
2, 487920, Note_on_c, 0, 97, 0
2, 488246, Note_on_c, 0, 84, 100
2, 488320, Note_on_c, 0, 96, 100
2, 488486, Note_on_c, 0, 84, 0
2, 488560, Note_on_c, 0, 96, 0
2, 488640, Note_on_c, 0, 60, 100
2, 488640, Note_on_c, 0, 72, 100
2, 488640, Note_on_c, 0, 73, 100
2, 488640, Note_on_c, 0, 84, 100
2, 488640, Note_on_c, 0, 85, 100
2, 488640, Note_on_c, 0, 96, 100
2, 488640, Note_on_c, 0, 97, 100
2, 488760, Note_on_c, 0, 72, 0
2, 488760, Note_on_c, 0, 73, 0
2, 488880, Note_on_c, 0, 60, 0
2, 488880, Note_on_c, 0, 84, 0
2, 488880, Note_on_c, 0, 85, 0
2, 488880, Note_on_c, 0, 96, 0
2, 488880, Note_on_c, 0, 97, 0
2, 489206, Note_on_c, 0, 84, 100
2, 489280, Note_on_c, 0, 96, 100
2, 489446, Note_on_c, 0, 84, 0
2, 489520, Note_on_c, 0, 96, 0
2, 489600, Note_on_c, 0, 60, 100
2, 489600, Note_on_c, 0, 72, 100
2, 489600, Note_on_c, 0, 73, 100
2, 489600, Note_on_c, 0, 84, 100
2, 489600, Note_on_c, 0, 85, 100
2, 489600, Note_on_c, 0, 96, 100
2, 489600, Note_on_c, 0, 97, 100
2, 489720, Note_on_c, 0, 72, 0
2, 489720, Note_on_c, 0, 73, 0
2, 489840, Note_on_c, 0, 60, 0
2, 489840, Note_on_c, 0, 84, 0
2, 489840, Note_on_c, 0, 85, 0
2, 489840, Note_on_c, 0, 96, 0
2, 489840, Note_on_c, 0, 97, 0
2, 490166, Note_on_c, 0, 84, 100
2, 490240, Note_on_c, 0, 96, 100
2, 490406, Note_on_c, 0, 84, 0
2, 490480, Note_on_c, 0, 96, 0
2, 490560, Note_on_c, 0, 60, 100
2, 490560, Note_on_c, 0, 72, 100
2, 490560, Note_on_c, 0, 73, 100
2, 490560, Note_on_c, 0, 84, 100
2, 490560, Note_on_c, 0, 85, 100
2, 490560, Note_on_c, 0, 96, 100
2, 490560, Note_on_c, 0, 97, 100
2, 490680, Note_on_c, 0, 72, 0
2, 490680, Note_on_c, 0, 73, 0
2, 490800, Note_on_c, 0, 60, 0
2, 490800, Note_on_c, 0, 84, 0
2, 490800, Note_on_c, 0, 85, 0
2, 490800, Note_on_c, 0, 96, 0
2, 490800, Note_on_c, 0, 97, 0
2, 490950, Note_on_c, 0, 67, 0
2, 490950, Note_on_c, 0, 79, 0
2, 490950, Note_on_c, 0, 91, 0
2, 490950, Note_on_c, 0, 103, 0
2, 491126, Note_on_c, 0, 84, 100
2, 491170, Note_on_c, 0, 70, 0
2, 491170, Note_on_c, 0, 82, 0
2, 491170, Note_on_c, 0, 94, 0
2, 491170, Note_on_c, 0, 106, 0
2, 491200, Note_on_c, 0, 96, 100
2, 491280, Note_on_c, 3, 43, 0
2, 491366, Note_on_c, 0, 84, 0
2, 491440, Note_on_c, 0, 96, 0
2, 491520, Text_t, "[section heavy_riff]"
2, 491520, Note_on_c, 0, 60, 100
2, 491520, Note_on_c, 0, 61, 100
2, 491520, Note_on_c, 0, 72, 100
2, 491520, Note_on_c, 0, 74, 100
2, 491520, Note_on_c, 0, 85, 100
2, 491520, Note_on_c, 0, 87, 100
2, 491520, Note_on_c, 0, 97, 100
2, 491520, Note_on_c, 0, 99, 100
2, 491520, Note_on_c, 3, 48, 100
2, 491760, Note_on_c, 0, 60, 0
2, 491760, Note_on_c, 0, 61, 0
2, 491760, Note_on_c, 0, 72, 0
2, 491760, Note_on_c, 0, 74, 0
2, 491760, Note_on_c, 0, 85, 0
2, 491760, Note_on_c, 0, 87, 0
2, 491760, Note_on_c, 0, 97, 0
2, 491760, Note_on_c, 0, 99, 0
2, 492086, Note_on_c, 0, 85, 100
2, 492160, Note_on_c, 0, 97, 100
2, 492326, Note_on_c, 0, 85, 0
2, 492400, Note_on_c, 0, 97, 0
2, 492480, Note_on_c, 0, 60, 100
2, 492480, Note_on_c, 0, 61, 100
2, 492480, Note_on_c, 0, 72, 100
2, 492480, Note_on_c, 0, 74, 100
2, 492480, Note_on_c, 0, 85, 100
2, 492480, Note_on_c, 0, 87, 100
2, 492480, Note_on_c, 0, 97, 100
2, 492480, Note_on_c, 0, 99, 100
2, 492720, Note_on_c, 0, 60, 0
2, 492720, Note_on_c, 0, 61, 0
2, 492720, Note_on_c, 0, 72, 0
2, 492720, Note_on_c, 0, 74, 0
2, 492720, Note_on_c, 0, 85, 0
2, 492720, Note_on_c, 0, 87, 0
2, 492720, Note_on_c, 0, 97, 0
2, 492720, Note_on_c, 0, 99, 0
2, 493046, Note_on_c, 0, 85, 100
2, 493120, Note_on_c, 0, 97, 100
2, 493286, Note_on_c, 0, 85, 0
2, 493360, Note_on_c, 0, 97, 0
2, 493410, Note_on_c, 0, 69, 0
2, 493410, Note_on_c, 0, 81, 0
2, 493410, Note_on_c, 0, 93, 0
2, 493410, Note_on_c, 0, 105, 0
2, 493410, Note_on_c, 0, 70, 100
2, 493410, Note_on_c, 0, 82, 100
2, 493410, Note_on_c, 0, 94, 100
2, 493410, Note_on_c, 0, 106, 100
2, 493440, Note_on_c, 0, 60, 100
2, 493440, Note_on_c, 0, 61, 100
2, 493440, Note_on_c, 0, 72, 100
2, 493440, Note_on_c, 0, 74, 100
2, 493440, Note_on_c, 0, 85, 100
2, 493440, Note_on_c, 0, 87, 100
2, 493440, Note_on_c, 0, 97, 100
2, 493440, Note_on_c, 0, 99, 100
2, 493680, Note_on_c, 0, 60, 0
2, 493680, Note_on_c, 0, 61, 0
2, 493680, Note_on_c, 0, 72, 0
2, 493680, Note_on_c, 0, 74, 0
2, 493680, Note_on_c, 0, 85, 0
2, 493680, Note_on_c, 0, 87, 0
2, 493680, Note_on_c, 0, 97, 0
2, 493680, Note_on_c, 0, 99, 0
2, 494006, Note_on_c, 0, 85, 100
2, 494080, Note_on_c, 0, 97, 100
2, 494246, Note_on_c, 0, 85, 0
2, 494320, Note_on_c, 0, 97, 0
2, 494400, Note_on_c, 0, 60, 100
2, 494400, Note_on_c, 0, 61, 100
2, 494400, Note_on_c, 0, 72, 100
2, 494400, Note_on_c, 0, 74, 100
2, 494400, Note_on_c, 0, 85, 100
2, 494400, Note_on_c, 0, 87, 100
2, 494400, Note_on_c, 0, 97, 100
2, 494400, Note_on_c, 0, 99, 100
2, 494640, Note_on_c, 0, 60, 0
2, 494640, Note_on_c, 0, 61, 0
2, 494640, Note_on_c, 0, 72, 0
2, 494640, Note_on_c, 0, 74, 0
2, 494640, Note_on_c, 0, 85, 0
2, 494640, Note_on_c, 0, 87, 0
2, 494640, Note_on_c, 0, 97, 0
2, 494640, Note_on_c, 0, 99, 0
2, 494966, Note_on_c, 0, 85, 100
2, 495040, Note_on_c, 0, 97, 100
2, 495206, Note_on_c, 0, 85, 0
2, 495280, Note_on_c, 0, 97, 0
2, 495330, Note_on_c, 0, 70, 0
2, 495330, Note_on_c, 0, 82, 0
2, 495330, Note_on_c, 0, 94, 0
2, 495330, Note_on_c, 0, 106, 0
2, 495330, Note_on_c, 0, 69, 100
2, 495330, Note_on_c, 0, 81, 100
2, 495330, Note_on_c, 0, 93, 100
2, 495330, Note_on_c, 0, 105, 100
2, 495360, Note_on_c, 0, 60, 100
2, 495360, Note_on_c, 0, 61, 100
2, 495360, Note_on_c, 0, 72, 100
2, 495360, Note_on_c, 0, 74, 100
2, 495360, Note_on_c, 0, 85, 100
2, 495360, Note_on_c, 0, 87, 100
2, 495360, Note_on_c, 0, 97, 100
2, 495360, Note_on_c, 0, 99, 100
2, 495600, Note_on_c, 0, 60, 0
2, 495600, Note_on_c, 0, 61, 0
2, 495600, Note_on_c, 0, 72, 0
2, 495600, Note_on_c, 0, 74, 0
2, 495600, Note_on_c, 0, 85, 0
2, 495600, Note_on_c, 0, 87, 0
2, 495600, Note_on_c, 0, 97, 0
2, 495600, Note_on_c, 0, 99, 0
2, 495926, Note_on_c, 0, 85, 100
2, 496000, Note_on_c, 0, 97, 100
2, 496166, Note_on_c, 0, 85, 0
2, 496240, Note_on_c, 0, 97, 0
2, 496320, Note_on_c, 0, 60, 100
2, 496320, Note_on_c, 0, 61, 100
2, 496320, Note_on_c, 0, 72, 100
2, 496320, Note_on_c, 0, 74, 100
2, 496320, Note_on_c, 0, 85, 100
2, 496320, Note_on_c, 0, 87, 100
2, 496320, Note_on_c, 0, 97, 100
2, 496320, Note_on_c, 0, 99, 100
2, 496560, Note_on_c, 0, 60, 0
2, 496560, Note_on_c, 0, 61, 0
2, 496560, Note_on_c, 0, 72, 0
2, 496560, Note_on_c, 0, 74, 0
2, 496560, Note_on_c, 0, 85, 0
2, 496560, Note_on_c, 0, 87, 0
2, 496560, Note_on_c, 0, 97, 0
2, 496560, Note_on_c, 0, 99, 0
2, 496886, Note_on_c, 0, 85, 100
2, 496960, Note_on_c, 0, 97, 100
2, 497126, Note_on_c, 0, 85, 0
2, 497200, Note_on_c, 0, 97, 0
2, 497250, Note_on_c, 0, 69, 0
2, 497250, Note_on_c, 0, 81, 0
2, 497250, Note_on_c, 0, 93, 0
2, 497250, Note_on_c, 0, 105, 0
2, 497250, Note_on_c, 0, 70, 100
2, 497250, Note_on_c, 0, 82, 100
2, 497250, Note_on_c, 0, 94, 100
2, 497250, Note_on_c, 0, 106, 100
2, 497280, Note_on_c, 0, 60, 100
2, 497280, Note_on_c, 0, 61, 100
2, 497280, Note_on_c, 0, 72, 100
2, 497280, Note_on_c, 0, 74, 100
2, 497280, Note_on_c, 0, 85, 100
2, 497280, Note_on_c, 0, 87, 100
2, 497280, Note_on_c, 0, 97, 100
2, 497280, Note_on_c, 0, 99, 100
2, 497520, Note_on_c, 0, 60, 0
2, 497520, Note_on_c, 0, 61, 0
2, 497520, Note_on_c, 0, 72, 0
2, 497520, Note_on_c, 0, 74, 0
2, 497520, Note_on_c, 0, 85, 0
2, 497520, Note_on_c, 0, 87, 0
2, 497520, Note_on_c, 0, 97, 0
2, 497520, Note_on_c, 0, 99, 0
2, 497846, Note_on_c, 0, 85, 100
2, 497920, Note_on_c, 0, 97, 100
2, 498086, Note_on_c, 0, 85, 0
2, 498160, Note_on_c, 0, 97, 0
2, 498240, Note_on_c, 0, 60, 100
2, 498240, Note_on_c, 0, 61, 100
2, 498240, Note_on_c, 0, 72, 100
2, 498240, Note_on_c, 0, 74, 100
2, 498240, Note_on_c, 0, 85, 100
2, 498240, Note_on_c, 0, 87, 100
2, 498240, Note_on_c, 0, 97, 100
2, 498240, Note_on_c, 0, 99, 100
2, 498480, Note_on_c, 0, 60, 0
2, 498480, Note_on_c, 0, 61, 0
2, 498480, Note_on_c, 0, 72, 0
2, 498480, Note_on_c, 0, 74, 0
2, 498480, Note_on_c, 0, 85, 0
2, 498480, Note_on_c, 0, 87, 0
2, 498480, Note_on_c, 0, 97, 0
2, 498480, Note_on_c, 0, 99, 0
2, 498806, Note_on_c, 0, 85, 100
2, 498840, Note_on_c, 0, 108, 0
2, 498880, Note_on_c, 0, 97, 100
2, 499046, Note_on_c, 0, 85, 0
2, 499120, Note_on_c, 0, 97, 0
2, 499170, Note_on_c, 0, 70, 0
2, 499170, Note_on_c, 0, 82, 0
2, 499170, Note_on_c, 0, 94, 0
2, 499170, Note_on_c, 0, 106, 0
2, 499170, Note_on_c, 0, 69, 100
2, 499170, Note_on_c, 0, 81, 100
2, 499170, Note_on_c, 0, 93, 100
2, 499170, Note_on_c, 0, 105, 100
2, 499200, Text_t, "sing_off"
2, 499200, Note_on_c, 0, 60, 100
2, 499200, Note_on_c, 0, 61, 100
2, 499200, Note_on_c, 0, 72, 100
2, 499200, Note_on_c, 0, 74, 100
2, 499200, Note_on_c, 0, 85, 100
2, 499200, Note_on_c, 0, 87, 100
2, 499200, Note_on_c, 0, 97, 100
2, 499200, Note_on_c, 0, 99, 100
2, 499440, Note_on_c, 0, 60, 0
2, 499440, Note_on_c, 0, 61, 0
2, 499440, Note_on_c, 0, 72, 0
2, 499440, Note_on_c, 0, 74, 0
2, 499440, Note_on_c, 0, 85, 0
2, 499440, Note_on_c, 0, 87, 0
2, 499440, Note_on_c, 0, 97, 0
2, 499440, Note_on_c, 0, 99, 0
2, 499768, Note_on_c, 0, 85, 100
2, 499840, Note_on_c, 0, 97, 100
2, 500008, Note_on_c, 0, 85, 0
2, 500080, Note_on_c, 0, 97, 0
2, 500160, Note_on_c, 0, 60, 100
2, 500160, Note_on_c, 0, 61, 100
2, 500160, Note_on_c, 0, 72, 100
2, 500160, Note_on_c, 0, 74, 100
2, 500160, Note_on_c, 0, 85, 100
2, 500160, Note_on_c, 0, 87, 100
2, 500160, Note_on_c, 0, 97, 100
2, 500160, Note_on_c, 0, 99, 100
2, 500400, Note_on_c, 0, 60, 0
2, 500400, Note_on_c, 0, 61, 0
2, 500400, Note_on_c, 0, 72, 0
2, 500400, Note_on_c, 0, 74, 0
2, 500400, Note_on_c, 0, 85, 0
2, 500400, Note_on_c, 0, 87, 0
2, 500400, Note_on_c, 0, 97, 0
2, 500400, Note_on_c, 0, 99, 0
2, 500728, Note_on_c, 0, 85, 100
2, 500800, Note_on_c, 0, 97, 100
2, 500968, Note_on_c, 0, 85, 0
2, 501040, Note_on_c, 0, 97, 0
2, 501090, Note_on_c, 0, 69, 0
2, 501090, Note_on_c, 0, 81, 0
2, 501090, Note_on_c, 0, 93, 0
2, 501090, Note_on_c, 0, 105, 0
2, 501090, Note_on_c, 0, 70, 100
2, 501090, Note_on_c, 0, 82, 100
2, 501090, Note_on_c, 0, 94, 100
2, 501090, Note_on_c, 0, 106, 100
2, 501120, Note_on_c, 0, 60, 100
2, 501120, Note_on_c, 0, 61, 100
2, 501120, Note_on_c, 0, 72, 100
2, 501120, Note_on_c, 0, 74, 100
2, 501120, Note_on_c, 0, 85, 100
2, 501120, Note_on_c, 0, 87, 100
2, 501120, Note_on_c, 0, 97, 100
2, 501120, Note_on_c, 0, 99, 100
2, 501360, Note_on_c, 0, 60, 0
2, 501360, Note_on_c, 0, 61, 0
2, 501360, Note_on_c, 0, 72, 0
2, 501360, Note_on_c, 0, 74, 0
2, 501360, Note_on_c, 0, 85, 0
2, 501360, Note_on_c, 0, 87, 0
2, 501360, Note_on_c, 0, 97, 0
2, 501360, Note_on_c, 0, 99, 0
2, 501688, Note_on_c, 0, 85, 100
2, 501760, Note_on_c, 0, 97, 100
2, 501928, Note_on_c, 0, 85, 0
2, 502000, Note_on_c, 0, 97, 0
2, 502080, Note_on_c, 0, 60, 100
2, 502080, Note_on_c, 0, 61, 100
2, 502080, Note_on_c, 0, 72, 100
2, 502080, Note_on_c, 0, 74, 100
2, 502080, Note_on_c, 0, 85, 100
2, 502080, Note_on_c, 0, 87, 100
2, 502080, Note_on_c, 0, 97, 100
2, 502080, Note_on_c, 0, 99, 100
2, 502320, Note_on_c, 0, 60, 0
2, 502320, Note_on_c, 0, 61, 0
2, 502320, Note_on_c, 0, 72, 0
2, 502320, Note_on_c, 0, 74, 0
2, 502320, Note_on_c, 0, 85, 0
2, 502320, Note_on_c, 0, 87, 0
2, 502320, Note_on_c, 0, 97, 0
2, 502320, Note_on_c, 0, 99, 0
2, 502648, Note_on_c, 0, 85, 100
2, 502720, Note_on_c, 0, 97, 100
2, 502800, Note_on_c, 3, 48, 0
2, 502888, Note_on_c, 0, 85, 0
2, 502960, Note_on_c, 0, 97, 0
2, 503010, Note_on_c, 0, 67, 100
2, 503010, Note_on_c, 0, 69, 100
2, 503010, Note_on_c, 0, 79, 100
2, 503010, Note_on_c, 0, 81, 100
2, 503010, Note_on_c, 0, 91, 100
2, 503010, Note_on_c, 0, 93, 100
2, 503010, Note_on_c, 0, 103, 100
2, 503010, Note_on_c, 0, 105, 100
2, 503040, Text_t, "drum_allbeat"
2, 503040, Note_on_c, 0, 60, 100
2, 503040, Note_on_c, 0, 73, 100
2, 503040, Note_on_c, 0, 86, 100
2, 503040, Note_on_c, 0, 96, 100
2, 503040, Note_on_c, 0, 98, 100
2, 503042, Note_on_c, 3, 43, 100
2, 503280, Note_on_c, 0, 60, 0
2, 503280, Note_on_c, 0, 73, 0
2, 503280, Note_on_c, 0, 86, 0
2, 503280, Note_on_c, 0, 96, 0
2, 503280, Note_on_c, 0, 98, 0
2, 503522, Note_on_c, 3, 43, 0
2, 503680, Note_on_c, 0, 61, 100
2, 503680, Note_on_c, 0, 74, 100
2, 503680, Note_on_c, 0, 87, 100
2, 503680, Note_on_c, 0, 97, 100
2, 503680, Note_on_c, 0, 99, 100
2, 503684, Note_on_c, 3, 44, 100
2, 503920, Note_on_c, 0, 61, 0
2, 503920, Note_on_c, 0, 74, 0
2, 503920, Note_on_c, 0, 87, 0
2, 503920, Note_on_c, 0, 97, 0
2, 503920, Note_on_c, 0, 99, 0
2, 504000, Text_t, "drum_half"
2, 504164, Note_on_c, 3, 44, 0
2, 504320, Note_on_c, 0, 62, 100
2, 504320, Note_on_c, 0, 75, 100
2, 504320, Note_on_c, 0, 88, 100
2, 504320, Note_on_c, 0, 98, 100
2, 504320, Note_on_c, 0, 100, 100
2, 504324, Note_on_c, 3, 46, 100
2, 504560, Note_on_c, 0, 62, 0
2, 504560, Note_on_c, 0, 75, 0
2, 504560, Note_on_c, 0, 88, 0
2, 504560, Note_on_c, 0, 98, 0
2, 504560, Note_on_c, 0, 100, 0
2, 504804, Note_on_c, 3, 46, 0
2, 504960, Note_on_c, 0, 61, 100
2, 504960, Note_on_c, 0, 73, 100
2, 504960, Note_on_c, 0, 86, 100
2, 504960, Note_on_c, 0, 96, 100
2, 504960, Note_on_c, 0, 98, 100
2, 504962, Note_on_c, 3, 43, 100
2, 505200, Note_on_c, 0, 61, 0
2, 505200, Note_on_c, 0, 73, 0
2, 505200, Note_on_c, 0, 86, 0
2, 505200, Note_on_c, 0, 96, 0
2, 505200, Note_on_c, 0, 98, 0
2, 505442, Note_on_c, 3, 43, 0
2, 505600, Note_on_c, 0, 60, 100
2, 505600, Note_on_c, 0, 72, 100
2, 505600, Note_on_c, 0, 85, 100
2, 505600, Note_on_c, 0, 96, 100
2, 505600, Note_on_c, 0, 97, 100
2, 505604, Note_on_c, 3, 41, 100
2, 505840, Note_on_c, 0, 60, 0
2, 505840, Note_on_c, 0, 72, 0
2, 505840, Note_on_c, 0, 85, 0
2, 505840, Note_on_c, 0, 96, 0
2, 505840, Note_on_c, 0, 97, 0
2, 506084, Note_on_c, 3, 41, 0
2, 506240, Note_on_c, 0, 61, 100
2, 506240, Note_on_c, 0, 73, 100
2, 506240, Note_on_c, 0, 86, 100
2, 506240, Note_on_c, 0, 96, 100
2, 506240, Note_on_c, 0, 98, 100
2, 506244, Note_on_c, 3, 43, 100
2, 506480, Note_on_c, 0, 61, 0
2, 506480, Note_on_c, 0, 73, 0
2, 506480, Note_on_c, 0, 86, 0
2, 506480, Note_on_c, 0, 96, 0
2, 506480, Note_on_c, 0, 98, 0
2, 506724, Note_on_c, 3, 43, 0
2, 506850, Note_on_c, 0, 67, 0
2, 506850, Note_on_c, 0, 69, 0
2, 506850, Note_on_c, 0, 79, 0
2, 506850, Note_on_c, 0, 81, 0
2, 506850, Note_on_c, 0, 91, 0
2, 506850, Note_on_c, 0, 93, 0
2, 506850, Note_on_c, 0, 103, 0
2, 506850, Note_on_c, 0, 105, 0
2, 506880, Text_t, "drum_normal"
2, 506880, Note_on_c, 0, 60, 100
2, 506880, Note_on_c, 0, 61, 100
2, 506880, Note_on_c, 0, 72, 100
2, 506880, Note_on_c, 0, 74, 100
2, 506880, Note_on_c, 0, 85, 100
2, 506880, Note_on_c, 0, 87, 100
2, 506880, Note_on_c, 0, 97, 100
2, 506880, Note_on_c, 0, 99, 100
2, 506880, Note_on_c, 3, 48, 100
2, 507118, Note_on_c, 0, 97, 0
2, 507118, Note_on_c, 0, 99, 0
2, 507120, Note_on_c, 0, 60, 0
2, 507120, Note_on_c, 0, 61, 0
2, 507120, Note_on_c, 0, 72, 0
2, 507120, Note_on_c, 0, 74, 0
2, 507120, Note_on_c, 0, 85, 0
2, 507120, Note_on_c, 0, 87, 0
2, 507448, Note_on_c, 0, 85, 100
2, 507520, Note_on_c, 0, 97, 100
2, 507688, Note_on_c, 0, 85, 0
2, 507760, Note_on_c, 0, 97, 0
2, 507840, Note_on_c, 0, 60, 100
2, 507840, Note_on_c, 0, 61, 100
2, 507840, Note_on_c, 0, 72, 100
2, 507840, Note_on_c, 0, 74, 100
2, 507840, Note_on_c, 0, 85, 100
2, 507840, Note_on_c, 0, 87, 100
2, 507840, Note_on_c, 0, 97, 100
2, 507840, Note_on_c, 0, 99, 100
2, 508080, Note_on_c, 0, 60, 0
2, 508080, Note_on_c, 0, 61, 0
2, 508080, Note_on_c, 0, 72, 0
2, 508080, Note_on_c, 0, 74, 0
2, 508080, Note_on_c, 0, 85, 0
2, 508080, Note_on_c, 0, 87, 0
2, 508080, Note_on_c, 0, 97, 0
2, 508080, Note_on_c, 0, 99, 0
2, 508408, Note_on_c, 0, 85, 100
2, 508480, Note_on_c, 0, 97, 100
2, 508648, Note_on_c, 0, 85, 0
2, 508720, Note_on_c, 0, 97, 0
2, 508770, Note_on_c, 0, 70, 0
2, 508770, Note_on_c, 0, 82, 0
2, 508770, Note_on_c, 0, 94, 0
2, 508770, Note_on_c, 0, 106, 0
2, 508770, Note_on_c, 0, 69, 100
2, 508770, Note_on_c, 0, 81, 100
2, 508770, Note_on_c, 0, 93, 100
2, 508770, Note_on_c, 0, 105, 100
2, 508800, Note_on_c, 0, 60, 100
2, 508800, Note_on_c, 0, 61, 100
2, 508800, Note_on_c, 0, 72, 100
2, 508800, Note_on_c, 0, 74, 100
2, 508800, Note_on_c, 0, 85, 100
2, 508800, Note_on_c, 0, 87, 100
2, 508800, Note_on_c, 0, 97, 100
2, 508800, Note_on_c, 0, 99, 100
2, 509040, Note_on_c, 0, 60, 0
2, 509040, Note_on_c, 0, 61, 0
2, 509040, Note_on_c, 0, 72, 0
2, 509040, Note_on_c, 0, 74, 0
2, 509040, Note_on_c, 0, 85, 0
2, 509040, Note_on_c, 0, 87, 0
2, 509040, Note_on_c, 0, 97, 0
2, 509040, Note_on_c, 0, 99, 0
2, 509368, Note_on_c, 0, 85, 100
2, 509440, Note_on_c, 0, 97, 100
2, 509608, Note_on_c, 0, 85, 0
2, 509680, Note_on_c, 0, 97, 0
2, 509760, Note_on_c, 0, 60, 100
2, 509760, Note_on_c, 0, 61, 100
2, 509760, Note_on_c, 0, 72, 100
2, 509760, Note_on_c, 0, 74, 100
2, 509760, Note_on_c, 0, 85, 100
2, 509760, Note_on_c, 0, 87, 100
2, 509760, Note_on_c, 0, 97, 100
2, 509760, Note_on_c, 0, 99, 100
2, 510000, Note_on_c, 0, 60, 0
2, 510000, Note_on_c, 0, 61, 0
2, 510000, Note_on_c, 0, 72, 0
2, 510000, Note_on_c, 0, 74, 0
2, 510000, Note_on_c, 0, 85, 0
2, 510000, Note_on_c, 0, 87, 0
2, 510000, Note_on_c, 0, 97, 0
2, 510000, Note_on_c, 0, 99, 0
2, 510328, Note_on_c, 0, 85, 100
2, 510400, Note_on_c, 0, 97, 100
2, 510568, Note_on_c, 0, 85, 0
2, 510640, Note_on_c, 0, 97, 0
2, 510690, Note_on_c, 0, 69, 0
2, 510690, Note_on_c, 0, 81, 0
2, 510690, Note_on_c, 0, 93, 0
2, 510690, Note_on_c, 0, 105, 0
2, 510690, Note_on_c, 0, 70, 100
2, 510690, Note_on_c, 0, 82, 100
2, 510690, Note_on_c, 0, 94, 100
2, 510690, Note_on_c, 0, 106, 100
2, 510720, Note_on_c, 0, 60, 100
2, 510720, Note_on_c, 0, 61, 100
2, 510720, Note_on_c, 0, 72, 100
2, 510720, Note_on_c, 0, 74, 100
2, 510720, Note_on_c, 0, 85, 100
2, 510720, Note_on_c, 0, 87, 100
2, 510720, Note_on_c, 0, 97, 100
2, 510720, Note_on_c, 0, 99, 100
2, 510960, Note_on_c, 0, 60, 0
2, 510960, Note_on_c, 0, 61, 0
2, 510960, Note_on_c, 0, 72, 0
2, 510960, Note_on_c, 0, 74, 0
2, 510960, Note_on_c, 0, 85, 0
2, 510960, Note_on_c, 0, 87, 0
2, 510960, Note_on_c, 0, 97, 0
2, 510960, Note_on_c, 0, 99, 0
2, 511288, Note_on_c, 0, 85, 100
2, 511360, Note_on_c, 0, 97, 100
2, 511528, Note_on_c, 0, 85, 0
2, 511600, Note_on_c, 0, 97, 0
2, 511680, Note_on_c, 0, 60, 100
2, 511680, Note_on_c, 0, 61, 100
2, 511680, Note_on_c, 0, 72, 100
2, 511680, Note_on_c, 0, 74, 100
2, 511680, Note_on_c, 0, 85, 100
2, 511680, Note_on_c, 0, 87, 100
2, 511680, Note_on_c, 0, 97, 100
2, 511680, Note_on_c, 0, 99, 100
2, 511920, Note_on_c, 0, 60, 0
2, 511920, Note_on_c, 0, 61, 0
2, 511920, Note_on_c, 0, 72, 0
2, 511920, Note_on_c, 0, 74, 0
2, 511920, Note_on_c, 0, 85, 0
2, 511920, Note_on_c, 0, 87, 0
2, 511920, Note_on_c, 0, 97, 0
2, 511920, Note_on_c, 0, 99, 0
2, 512248, Note_on_c, 0, 85, 100
2, 512320, Note_on_c, 0, 97, 100
2, 512488, Note_on_c, 0, 85, 0
2, 512560, Note_on_c, 0, 97, 0
2, 512610, Note_on_c, 0, 70, 0
2, 512610, Note_on_c, 0, 82, 0
2, 512610, Note_on_c, 0, 94, 0
2, 512610, Note_on_c, 0, 106, 0
2, 512610, Note_on_c, 0, 69, 100
2, 512610, Note_on_c, 0, 81, 100
2, 512610, Note_on_c, 0, 93, 100
2, 512610, Note_on_c, 0, 105, 100
2, 512640, Note_on_c, 0, 60, 100
2, 512640, Note_on_c, 0, 61, 100
2, 512640, Note_on_c, 0, 72, 100
2, 512640, Note_on_c, 0, 74, 100
2, 512640, Note_on_c, 0, 85, 100
2, 512640, Note_on_c, 0, 87, 100
2, 512640, Note_on_c, 0, 97, 100
2, 512640, Note_on_c, 0, 99, 100
2, 512880, Note_on_c, 0, 60, 0
2, 512880, Note_on_c, 0, 61, 0
2, 512880, Note_on_c, 0, 72, 0
2, 512880, Note_on_c, 0, 74, 0
2, 512880, Note_on_c, 0, 85, 0
2, 512880, Note_on_c, 0, 87, 0
2, 512880, Note_on_c, 0, 97, 0
2, 512880, Note_on_c, 0, 99, 0
2, 513208, Note_on_c, 0, 85, 100
2, 513280, Note_on_c, 0, 97, 100
2, 513448, Note_on_c, 0, 85, 0
2, 513520, Note_on_c, 0, 97, 0
2, 513600, Note_on_c, 0, 60, 100
2, 513600, Note_on_c, 0, 61, 100
2, 513600, Note_on_c, 0, 72, 100
2, 513600, Note_on_c, 0, 74, 100
2, 513600, Note_on_c, 0, 85, 100
2, 513600, Note_on_c, 0, 87, 100
2, 513600, Note_on_c, 0, 97, 100
2, 513600, Note_on_c, 0, 99, 100
2, 513840, Note_on_c, 0, 60, 0
2, 513840, Note_on_c, 0, 61, 0
2, 513840, Note_on_c, 0, 72, 0
2, 513840, Note_on_c, 0, 74, 0
2, 513840, Note_on_c, 0, 85, 0
2, 513840, Note_on_c, 0, 87, 0
2, 513840, Note_on_c, 0, 97, 0
2, 513840, Note_on_c, 0, 99, 0
2, 514168, Note_on_c, 0, 85, 100
2, 514240, Note_on_c, 0, 97, 100
2, 514408, Note_on_c, 0, 85, 0
2, 514480, Note_on_c, 0, 97, 0
2, 514530, Note_on_c, 0, 69, 0
2, 514530, Note_on_c, 0, 81, 0
2, 514530, Note_on_c, 0, 93, 0
2, 514530, Note_on_c, 0, 105, 0
2, 514530, Note_on_c, 0, 70, 100
2, 514530, Note_on_c, 0, 82, 100
2, 514530, Note_on_c, 0, 94, 100
2, 514530, Note_on_c, 0, 106, 100
2, 514560, Note_on_c, 0, 60, 100
2, 514560, Note_on_c, 0, 61, 100
2, 514560, Note_on_c, 0, 72, 100
2, 514560, Note_on_c, 0, 74, 100
2, 514560, Note_on_c, 0, 85, 100
2, 514560, Note_on_c, 0, 87, 100
2, 514560, Note_on_c, 0, 97, 100
2, 514560, Note_on_c, 0, 99, 100
2, 514800, Note_on_c, 0, 60, 0
2, 514800, Note_on_c, 0, 61, 0
2, 514800, Note_on_c, 0, 72, 0
2, 514800, Note_on_c, 0, 74, 0
2, 514800, Note_on_c, 0, 85, 0
2, 514800, Note_on_c, 0, 87, 0
2, 514800, Note_on_c, 0, 97, 0
2, 514800, Note_on_c, 0, 99, 0
2, 515128, Note_on_c, 0, 85, 100
2, 515200, Note_on_c, 0, 97, 100
2, 515368, Note_on_c, 0, 85, 0
2, 515440, Note_on_c, 0, 97, 0
2, 515520, Note_on_c, 0, 60, 100
2, 515520, Note_on_c, 0, 61, 100
2, 515520, Note_on_c, 0, 72, 100
2, 515520, Note_on_c, 0, 74, 100
2, 515520, Note_on_c, 0, 85, 100
2, 515520, Note_on_c, 0, 87, 100
2, 515520, Note_on_c, 0, 97, 100
2, 515520, Note_on_c, 0, 99, 100
2, 515760, Note_on_c, 0, 60, 0
2, 515760, Note_on_c, 0, 61, 0
2, 515760, Note_on_c, 0, 72, 0
2, 515760, Note_on_c, 0, 74, 0
2, 515760, Note_on_c, 0, 85, 0
2, 515760, Note_on_c, 0, 87, 0
2, 515760, Note_on_c, 0, 97, 0
2, 515760, Note_on_c, 0, 99, 0
2, 516088, Note_on_c, 0, 85, 100
2, 516160, Note_on_c, 0, 97, 100
2, 516328, Note_on_c, 0, 85, 0
2, 516400, Note_on_c, 0, 97, 0
2, 516450, Note_on_c, 0, 70, 0
2, 516450, Note_on_c, 0, 82, 0
2, 516450, Note_on_c, 0, 94, 0
2, 516450, Note_on_c, 0, 106, 0
2, 516450, Note_on_c, 0, 69, 100
2, 516450, Note_on_c, 0, 81, 100
2, 516450, Note_on_c, 0, 93, 100
2, 516450, Note_on_c, 0, 105, 100
2, 516480, Note_on_c, 0, 60, 100
2, 516480, Note_on_c, 0, 61, 100
2, 516480, Note_on_c, 0, 72, 100
2, 516480, Note_on_c, 0, 74, 100
2, 516480, Note_on_c, 0, 85, 100
2, 516480, Note_on_c, 0, 87, 100
2, 516480, Note_on_c, 0, 97, 100
2, 516480, Note_on_c, 0, 99, 100
2, 516720, Note_on_c, 0, 60, 0
2, 516720, Note_on_c, 0, 61, 0
2, 516720, Note_on_c, 0, 72, 0
2, 516720, Note_on_c, 0, 74, 0
2, 516720, Note_on_c, 0, 85, 0
2, 516720, Note_on_c, 0, 87, 0
2, 516720, Note_on_c, 0, 97, 0
2, 516720, Note_on_c, 0, 99, 0
2, 517048, Note_on_c, 0, 85, 100
2, 517120, Note_on_c, 0, 97, 100
2, 517288, Note_on_c, 0, 85, 0
2, 517360, Note_on_c, 0, 97, 0
2, 517440, Note_on_c, 0, 60, 100
2, 517440, Note_on_c, 0, 61, 100
2, 517440, Note_on_c, 0, 72, 100
2, 517440, Note_on_c, 0, 74, 100
2, 517440, Note_on_c, 0, 85, 100
2, 517440, Note_on_c, 0, 87, 100
2, 517440, Note_on_c, 0, 97, 100
2, 517440, Note_on_c, 0, 99, 100
2, 517680, Note_on_c, 0, 60, 0
2, 517680, Note_on_c, 0, 61, 0
2, 517680, Note_on_c, 0, 72, 0
2, 517680, Note_on_c, 0, 74, 0
2, 517680, Note_on_c, 0, 85, 0
2, 517680, Note_on_c, 0, 87, 0
2, 517680, Note_on_c, 0, 97, 0
2, 517680, Note_on_c, 0, 99, 0
2, 518008, Note_on_c, 0, 85, 100
2, 518080, Note_on_c, 0, 97, 100
2, 518160, Note_on_c, 3, 48, 0
2, 518248, Note_on_c, 0, 85, 0
2, 518320, Note_on_c, 0, 97, 0
2, 518370, Note_on_c, 0, 70, 100
2, 518370, Note_on_c, 0, 82, 100
2, 518370, Note_on_c, 0, 94, 100
2, 518370, Note_on_c, 0, 106, 100
2, 518400, Text_t, "drum_allbeat"
2, 518400, Note_on_c, 0, 60, 100
2, 518400, Note_on_c, 0, 73, 100
2, 518400, Note_on_c, 0, 86, 100
2, 518400, Note_on_c, 0, 96, 100
2, 518400, Note_on_c, 0, 98, 100
2, 518404, Note_on_c, 3, 43, 100
2, 518640, Note_on_c, 0, 60, 0
2, 518640, Note_on_c, 0, 73, 0
2, 518640, Note_on_c, 0, 86, 0
2, 518640, Note_on_c, 0, 96, 0
2, 518640, Note_on_c, 0, 98, 0
2, 518880, Note_on_c, 3, 43, 0
2, 519040, Note_on_c, 0, 61, 100
2, 519040, Note_on_c, 0, 74, 100
2, 519040, Note_on_c, 0, 87, 100
2, 519040, Note_on_c, 0, 97, 100
2, 519040, Note_on_c, 0, 99, 100
2, 519044, Note_on_c, 3, 44, 100
2, 519280, Note_on_c, 0, 61, 0
2, 519280, Note_on_c, 0, 74, 0
2, 519280, Note_on_c, 0, 87, 0
2, 519280, Note_on_c, 0, 97, 0
2, 519280, Note_on_c, 0, 99, 0
2, 519360, Text_t, "drum_half"
2, 519524, Note_on_c, 3, 44, 0
2, 519680, Note_on_c, 0, 62, 100
2, 519680, Note_on_c, 0, 75, 100
2, 519680, Note_on_c, 0, 88, 100
2, 519680, Note_on_c, 0, 98, 100
2, 519680, Note_on_c, 0, 100, 100
2, 519680, Note_on_c, 3, 46, 100
2, 519920, Note_on_c, 0, 62, 0
2, 519920, Note_on_c, 0, 75, 0
2, 519920, Note_on_c, 0, 88, 0
2, 519920, Note_on_c, 0, 98, 0
2, 519920, Note_on_c, 0, 100, 0
2, 520160, Note_on_c, 3, 46, 0
2, 520320, Note_on_c, 0, 61, 100
2, 520320, Note_on_c, 0, 73, 100
2, 520320, Note_on_c, 0, 86, 100
2, 520320, Note_on_c, 0, 96, 100
2, 520320, Note_on_c, 0, 98, 100
2, 520324, Note_on_c, 3, 43, 100
2, 520560, Note_on_c, 0, 61, 0
2, 520560, Note_on_c, 0, 73, 0
2, 520560, Note_on_c, 0, 86, 0
2, 520560, Note_on_c, 0, 96, 0
2, 520560, Note_on_c, 0, 98, 0
2, 520800, Note_on_c, 3, 43, 0
2, 520960, Note_on_c, 0, 60, 100
2, 520960, Note_on_c, 0, 72, 100
2, 520960, Note_on_c, 0, 85, 100
2, 520960, Note_on_c, 0, 96, 100
2, 520960, Note_on_c, 0, 97, 100
2, 520964, Note_on_c, 3, 41, 100
2, 521200, Note_on_c, 0, 60, 0
2, 521200, Note_on_c, 0, 72, 0
2, 521200, Note_on_c, 0, 85, 0
2, 521200, Note_on_c, 0, 96, 0
2, 521200, Note_on_c, 0, 97, 0
2, 521444, Note_on_c, 3, 41, 0
2, 521600, Note_on_c, 0, 61, 100
2, 521600, Note_on_c, 0, 73, 100
2, 521600, Note_on_c, 0, 86, 100
2, 521600, Note_on_c, 0, 96, 100
2, 521600, Note_on_c, 0, 98, 100
2, 521600, Note_on_c, 3, 43, 100
2, 521840, Note_on_c, 0, 61, 0
2, 521840, Note_on_c, 0, 73, 0
2, 521840, Note_on_c, 0, 86, 0
2, 521840, Note_on_c, 0, 96, 0
2, 521840, Note_on_c, 0, 98, 0
2, 522210, Note_on_c, 0, 69, 0
2, 522210, Note_on_c, 0, 81, 0
2, 522210, Note_on_c, 0, 93, 0
2, 522210, Note_on_c, 0, 105, 0
2, 522240, Text_t, "drum_allbeat"
2, 522240, Note_on_c, 0, 60, 100
2, 522240, Note_on_c, 0, 73, 100
2, 522240, Note_on_c, 0, 86, 100
2, 522240, Note_on_c, 0, 96, 100
2, 522240, Note_on_c, 0, 98, 100
2, 522480, Note_on_c, 0, 60, 0
2, 522480, Note_on_c, 0, 73, 0
2, 522480, Note_on_c, 0, 86, 0
2, 522480, Note_on_c, 0, 96, 0
2, 522480, Note_on_c, 0, 98, 0
2, 522716, Note_on_c, 3, 43, 0
2, 522880, Note_on_c, 0, 61, 100
2, 522880, Note_on_c, 0, 74, 100
2, 522880, Note_on_c, 0, 87, 100
2, 522880, Note_on_c, 0, 97, 100
2, 522880, Note_on_c, 0, 99, 100
2, 522880, Note_on_c, 3, 44, 100
2, 523120, Note_on_c, 0, 61, 0
2, 523120, Note_on_c, 0, 74, 0
2, 523120, Note_on_c, 0, 87, 0
2, 523120, Note_on_c, 0, 97, 0
2, 523120, Note_on_c, 0, 99, 0
2, 523200, Text_t, "drum_half"
2, 523360, Note_on_c, 3, 44, 0
2, 523520, Note_on_c, 0, 62, 100
2, 523520, Note_on_c, 0, 75, 100
2, 523520, Note_on_c, 0, 88, 100
2, 523520, Note_on_c, 0, 98, 100
2, 523520, Note_on_c, 0, 100, 100
2, 523520, Note_on_c, 3, 46, 100
2, 523760, Note_on_c, 0, 62, 0
2, 523760, Note_on_c, 0, 75, 0
2, 523760, Note_on_c, 0, 88, 0
2, 523760, Note_on_c, 0, 98, 0
2, 523760, Note_on_c, 0, 100, 0
2, 524000, Note_on_c, 3, 46, 0
2, 524160, Note_on_c, 0, 61, 100
2, 524160, Note_on_c, 0, 73, 100
2, 524160, Note_on_c, 0, 86, 100
2, 524160, Note_on_c, 0, 96, 100
2, 524160, Note_on_c, 0, 98, 100
2, 524160, Note_on_c, 3, 43, 100
2, 524400, Note_on_c, 0, 61, 0
2, 524400, Note_on_c, 0, 73, 0
2, 524400, Note_on_c, 0, 86, 0
2, 524400, Note_on_c, 0, 96, 0
2, 524400, Note_on_c, 0, 98, 0
2, 524640, Note_on_c, 3, 43, 0
2, 524800, Note_on_c, 0, 60, 100
2, 524800, Note_on_c, 0, 72, 100
2, 524800, Note_on_c, 0, 85, 100
2, 524800, Note_on_c, 0, 96, 100
2, 524800, Note_on_c, 0, 97, 100
2, 524800, Note_on_c, 3, 41, 100
2, 525040, Note_on_c, 0, 60, 0
2, 525040, Note_on_c, 0, 72, 0
2, 525040, Note_on_c, 0, 85, 0
2, 525040, Note_on_c, 0, 96, 0
2, 525040, Note_on_c, 0, 97, 0
2, 525280, Note_on_c, 3, 41, 0
2, 525440, Note_on_c, 0, 61, 100
2, 525440, Note_on_c, 0, 73, 100
2, 525440, Note_on_c, 0, 86, 100
2, 525440, Note_on_c, 0, 96, 100
2, 525440, Note_on_c, 0, 98, 100
2, 525440, Note_on_c, 3, 43, 100
2, 525680, Note_on_c, 0, 61, 0
2, 525680, Note_on_c, 0, 73, 0
2, 525680, Note_on_c, 0, 86, 0
2, 525680, Note_on_c, 0, 96, 0
2, 525680, Note_on_c, 0, 98, 0
2, 526050, Note_on_c, 0, 70, 0
2, 526050, Note_on_c, 0, 82, 0
2, 526050, Note_on_c, 0, 94, 0
2, 526050, Note_on_c, 0, 106, 0
2, 526050, Note_on_c, 0, 69, 100
2, 526050, Note_on_c, 0, 81, 100
2, 526050, Note_on_c, 0, 93, 100
2, 526050, Note_on_c, 0, 105, 100
2, 526080, Text_t, "drum_allbeat"
2, 526080, Note_on_c, 0, 60, 100
2, 526080, Note_on_c, 0, 73, 100
2, 526080, Note_on_c, 0, 86, 100
2, 526080, Note_on_c, 0, 96, 100
2, 526080, Note_on_c, 0, 98, 100
2, 526320, Note_on_c, 0, 60, 0
2, 526320, Note_on_c, 0, 73, 0
2, 526320, Note_on_c, 0, 86, 0
2, 526320, Note_on_c, 0, 96, 0
2, 526320, Note_on_c, 0, 98, 0
2, 526560, Note_on_c, 3, 43, 0
2, 526720, Note_on_c, 0, 61, 100
2, 526720, Note_on_c, 0, 74, 100
2, 526720, Note_on_c, 0, 87, 100
2, 526720, Note_on_c, 0, 97, 100
2, 526720, Note_on_c, 0, 99, 100
2, 526720, Note_on_c, 3, 44, 100
2, 526960, Note_on_c, 0, 61, 0
2, 526960, Note_on_c, 0, 74, 0
2, 526960, Note_on_c, 0, 87, 0
2, 526960, Note_on_c, 0, 97, 0
2, 526960, Note_on_c, 0, 99, 0
2, 527040, Text_t, "drum_half"
2, 527200, Note_on_c, 3, 44, 0
2, 527360, Note_on_c, 0, 62, 100
2, 527360, Note_on_c, 0, 75, 100
2, 527360, Note_on_c, 0, 88, 100
2, 527360, Note_on_c, 0, 98, 100
2, 527360, Note_on_c, 0, 100, 100
2, 527360, Note_on_c, 3, 46, 100
2, 527600, Note_on_c, 0, 62, 0
2, 527600, Note_on_c, 0, 75, 0
2, 527600, Note_on_c, 0, 88, 0
2, 527600, Note_on_c, 0, 98, 0
2, 527600, Note_on_c, 0, 100, 0
2, 527840, Note_on_c, 3, 46, 0
2, 528000, Note_on_c, 0, 61, 100
2, 528000, Note_on_c, 0, 73, 100
2, 528000, Note_on_c, 0, 86, 100
2, 528000, Note_on_c, 0, 96, 100
2, 528000, Note_on_c, 0, 98, 100
2, 528000, Note_on_c, 3, 43, 100
2, 528240, Note_on_c, 0, 61, 0
2, 528240, Note_on_c, 0, 73, 0
2, 528240, Note_on_c, 0, 86, 0
2, 528240, Note_on_c, 0, 96, 0
2, 528240, Note_on_c, 0, 98, 0
2, 528480, Note_on_c, 3, 43, 0
2, 528640, Note_on_c, 0, 60, 100
2, 528640, Note_on_c, 0, 72, 100
2, 528640, Note_on_c, 0, 85, 100
2, 528640, Note_on_c, 0, 96, 100
2, 528640, Note_on_c, 0, 97, 100
2, 528640, Note_on_c, 3, 41, 100
2, 528880, Note_on_c, 0, 60, 0
2, 528880, Note_on_c, 0, 72, 0
2, 528880, Note_on_c, 0, 85, 0
2, 528880, Note_on_c, 0, 96, 0
2, 528880, Note_on_c, 0, 97, 0
2, 529120, Note_on_c, 3, 41, 0
2, 529280, Note_on_c, 0, 61, 100
2, 529280, Note_on_c, 0, 73, 100
2, 529280, Note_on_c, 0, 86, 100
2, 529280, Note_on_c, 0, 96, 100
2, 529280, Note_on_c, 0, 98, 100
2, 529280, Note_on_c, 3, 43, 100
2, 529520, Note_on_c, 0, 61, 0
2, 529520, Note_on_c, 0, 73, 0
2, 529520, Note_on_c, 0, 86, 0
2, 529520, Note_on_c, 0, 96, 0
2, 529520, Note_on_c, 0, 98, 0
2, 529890, Note_on_c, 0, 67, 100
2, 529890, Note_on_c, 0, 70, 100
2, 529890, Note_on_c, 0, 79, 100
2, 529890, Note_on_c, 0, 82, 100
2, 529890, Note_on_c, 0, 91, 100
2, 529890, Note_on_c, 0, 94, 100
2, 529890, Note_on_c, 0, 103, 100
2, 529890, Note_on_c, 0, 106, 100
2, 529920, Text_t, "drum_allbeat"
2, 529920, Note_on_c, 0, 60, 100
2, 529920, Note_on_c, 0, 73, 100
2, 529920, Note_on_c, 0, 86, 100
2, 529920, Note_on_c, 0, 96, 100
2, 529920, Note_on_c, 0, 98, 100
2, 530160, Note_on_c, 0, 60, 0
2, 530160, Note_on_c, 0, 73, 0
2, 530160, Note_on_c, 0, 86, 0
2, 530160, Note_on_c, 0, 96, 0
2, 530160, Note_on_c, 0, 98, 0
2, 530400, Note_on_c, 3, 43, 0
2, 530560, Note_on_c, 0, 61, 100
2, 530560, Note_on_c, 0, 74, 100
2, 530560, Note_on_c, 0, 87, 100
2, 530560, Note_on_c, 0, 97, 100
2, 530560, Note_on_c, 0, 99, 100
2, 530560, Note_on_c, 3, 44, 100
2, 530800, Note_on_c, 0, 61, 0
2, 530800, Note_on_c, 0, 74, 0
2, 530800, Note_on_c, 0, 87, 0
2, 530800, Note_on_c, 0, 97, 0
2, 530800, Note_on_c, 0, 99, 0
2, 530880, Text_t, "drum_half"
2, 531040, Note_on_c, 3, 44, 0
2, 531200, Note_on_c, 0, 62, 100
2, 531200, Note_on_c, 0, 75, 100
2, 531200, Note_on_c, 0, 88, 100
2, 531200, Note_on_c, 0, 98, 100
2, 531200, Note_on_c, 0, 100, 100
2, 531200, Note_on_c, 3, 46, 100
2, 531440, Note_on_c, 0, 62, 0
2, 531440, Note_on_c, 0, 75, 0
2, 531440, Note_on_c, 0, 88, 0
2, 531440, Note_on_c, 0, 98, 0
2, 531440, Note_on_c, 0, 100, 0
2, 531680, Note_on_c, 3, 46, 0
2, 531840, Note_on_c, 0, 61, 100
2, 531840, Note_on_c, 0, 73, 100
2, 531840, Note_on_c, 0, 86, 100
2, 531840, Note_on_c, 0, 96, 100
2, 531840, Note_on_c, 0, 98, 100
2, 531840, Note_on_c, 3, 43, 100
2, 532080, Note_on_c, 0, 61, 0
2, 532080, Note_on_c, 0, 73, 0
2, 532080, Note_on_c, 0, 86, 0
2, 532080, Note_on_c, 0, 96, 0
2, 532080, Note_on_c, 0, 98, 0
2, 532320, Note_on_c, 3, 43, 0
2, 532480, Note_on_c, 0, 60, 100
2, 532480, Note_on_c, 0, 72, 100
2, 532480, Note_on_c, 0, 85, 100
2, 532480, Note_on_c, 0, 96, 100
2, 532480, Note_on_c, 0, 97, 100
2, 532480, Note_on_c, 3, 41, 100
2, 532720, Note_on_c, 0, 60, 0
2, 532720, Note_on_c, 0, 72, 0
2, 532720, Note_on_c, 0, 85, 0
2, 532720, Note_on_c, 0, 96, 0
2, 532720, Note_on_c, 0, 97, 0
2, 532960, Note_on_c, 3, 41, 0
2, 533120, Note_on_c, 0, 61, 100
2, 533120, Note_on_c, 0, 73, 100
2, 533120, Note_on_c, 0, 86, 100
2, 533120, Note_on_c, 0, 96, 100
2, 533120, Note_on_c, 0, 98, 100
2, 533120, Note_on_c, 3, 43, 100
2, 533360, Note_on_c, 0, 61, 0
2, 533360, Note_on_c, 0, 73, 0
2, 533360, Note_on_c, 0, 86, 0
2, 533360, Note_on_c, 0, 96, 0
2, 533360, Note_on_c, 0, 98, 0
2, 533600, Note_on_c, 3, 43, 0
2, 533760, Text_t, "wail_off"
2, 533760, Text_t, "[idle]"
2, 533760, Text_t, "[verse]"
2, 533760, Text_t, "drum_allbeat"
2, 533760, Note_on_c, 0, 62, 100
2, 533760, Note_on_c, 0, 74, 100
2, 533760, Note_on_c, 0, 85, 100
2, 533760, Note_on_c, 0, 87, 100
2, 533760, Note_on_c, 0, 97, 100
2, 533760, Note_on_c, 0, 99, 100
2, 533760, Note_on_c, 3, 48, 100
2, 534000, Note_on_c, 0, 62, 0
2, 534000, Note_on_c, 0, 74, 0
2, 534000, Note_on_c, 0, 85, 0
2, 534000, Note_on_c, 0, 87, 0
2, 534000, Note_on_c, 0, 97, 0
2, 534000, Note_on_c, 0, 99, 0
2, 534690, Note_on_c, 0, 69, 0
2, 534690, Note_on_c, 0, 81, 0
2, 534690, Note_on_c, 0, 93, 0
2, 534690, Note_on_c, 0, 105, 0
2, 534690, Note_on_c, 0, 67, 0
2, 534690, Note_on_c, 0, 70, 0
2, 534690, Note_on_c, 0, 79, 0
2, 534690, Note_on_c, 0, 82, 0
2, 534690, Note_on_c, 0, 91, 0
2, 534690, Note_on_c, 0, 94, 0
2, 534690, Note_on_c, 0, 103, 0
2, 534690, Note_on_c, 0, 106, 0
2, 534720, Text_t, "drum_off"
2, 534720, Note_on_c, 3, 48, 0
2, 535680, Note_on_c, 3, 40, 100
2, 535920, Note_on_c, 3, 40, 0
2, 547200, Note_on_c, 3, 40, 100
2, 547440, Note_on_c, 3, 40, 0
2, 548640, Note_on_c, 3, 48, 100
2, 549090, Note_on_c, 0, 70, 100
2, 549090, Note_on_c, 0, 82, 100
2, 549090, Note_on_c, 0, 94, 100
2, 549090, Note_on_c, 0, 106, 100
2, 549120, Text_t, "[section gtr_solo]"
2, 549120, Text_t, "drum_double"
2, 549120, Text_t, "[play]"
2, 549120, Text_t, "solo_on"
2, 549120, Text_t, "[solo]"
2, 549120, Note_on_c, 0, 60, 100
2, 549120, Note_on_c, 0, 72, 100
2, 549120, Note_on_c, 0, 84, 100
2, 549120, Note_on_c, 0, 96, 100
2, 549360, Note_on_c, 0, 60, 0
2, 549360, Note_on_c, 0, 72, 0
2, 549360, Note_on_c, 0, 84, 0
2, 549360, Note_on_c, 0, 96, 0
2, 549364, Note_on_c, 3, 48, 0
2, 549440, Note_on_c, 0, 85, 100
2, 549440, Note_on_c, 0, 97, 100
2, 549444, Note_on_c, 3, 50, 100
2, 549680, Note_on_c, 0, 85, 0
2, 549680, Note_on_c, 0, 97, 0
2, 549760, Note_on_c, 0, 73, 100
2, 549760, Note_on_c, 0, 85, 100
2, 549760, Note_on_c, 0, 97, 100
2, 550000, Note_on_c, 0, 73, 0
2, 550000, Note_on_c, 0, 85, 0
2, 550000, Note_on_c, 0, 97, 0
2, 550080, Note_on_c, 0, 61, 100
2, 550080, Note_on_c, 0, 73, 100
2, 550080, Note_on_c, 0, 85, 100
2, 550080, Note_on_c, 0, 97, 100
2, 550164, Note_on_c, 3, 50, 0
2, 550320, Note_on_c, 0, 61, 0
2, 550320, Note_on_c, 0, 73, 0
2, 550320, Note_on_c, 0, 85, 0
2, 550320, Note_on_c, 0, 97, 0
2, 550400, Note_on_c, 0, 86, 100
2, 550400, Note_on_c, 0, 98, 100
2, 550404, Note_on_c, 3, 52, 100
2, 550640, Note_on_c, 0, 86, 0
2, 550640, Note_on_c, 0, 98, 0
2, 550720, Note_on_c, 0, 74, 100
2, 550720, Note_on_c, 0, 86, 100
2, 550720, Note_on_c, 0, 98, 100
2, 550960, Note_on_c, 0, 74, 0
2, 550960, Note_on_c, 0, 86, 0
2, 550960, Note_on_c, 0, 98, 0
2, 551040, Note_on_c, 0, 61, 100
2, 551040, Note_on_c, 0, 74, 100
2, 551040, Note_on_c, 0, 86, 100
2, 551040, Note_on_c, 0, 98, 100
2, 551124, Note_on_c, 3, 52, 0
2, 551280, Note_on_c, 0, 61, 0
2, 551280, Note_on_c, 0, 74, 0
2, 551280, Note_on_c, 0, 86, 0
2, 551280, Note_on_c, 0, 98, 0
2, 551360, Note_on_c, 0, 87, 100
2, 551360, Note_on_c, 0, 99, 100
2, 551364, Note_on_c, 3, 54, 100
2, 551600, Note_on_c, 0, 87, 0
2, 551600, Note_on_c, 0, 99, 0
2, 551680, Note_on_c, 0, 75, 100
2, 551680, Note_on_c, 0, 87, 100
2, 551680, Note_on_c, 0, 99, 100
2, 551920, Note_on_c, 0, 75, 0
2, 551920, Note_on_c, 0, 87, 0
2, 551920, Note_on_c, 0, 99, 0
2, 552000, Note_on_c, 0, 62, 100
2, 552000, Note_on_c, 0, 75, 100
2, 552000, Note_on_c, 0, 87, 100
2, 552000, Note_on_c, 0, 99, 100
2, 552084, Note_on_c, 3, 54, 0
2, 552240, Note_on_c, 0, 62, 0
2, 552240, Note_on_c, 0, 75, 0
2, 552240, Note_on_c, 0, 87, 0
2, 552240, Note_on_c, 0, 99, 0
2, 552320, Note_on_c, 0, 88, 100
2, 552320, Note_on_c, 0, 100, 100
2, 552324, Note_on_c, 3, 56, 100
2, 552560, Note_on_c, 0, 88, 0
2, 552560, Note_on_c, 0, 100, 0
2, 552640, Note_on_c, 0, 75, 100
2, 552640, Note_on_c, 0, 88, 100
2, 552640, Note_on_c, 0, 100, 100
2, 552880, Note_on_c, 0, 75, 0
2, 552880, Note_on_c, 0, 88, 0
2, 552880, Note_on_c, 0, 100, 0
2, 552960, Note_on_c, 0, 62, 100
2, 552960, Note_on_c, 0, 75, 100
2, 552960, Note_on_c, 0, 88, 100
2, 552960, Note_on_c, 0, 100, 100
2, 554560, Note_on_c, 0, 62, 0
2, 554720, Note_on_c, 0, 75, 0
2, 554720, Note_on_c, 0, 88, 0
2, 554720, Note_on_c, 0, 100, 0
2, 554724, Note_on_c, 3, 56, 0
2, 554850, Note_on_c, 0, 70, 0
2, 554850, Note_on_c, 0, 82, 0
2, 554850, Note_on_c, 0, 94, 0
2, 554850, Note_on_c, 0, 106, 0
2, 554850, Note_on_c, 0, 69, 100
2, 554850, Note_on_c, 0, 81, 100
2, 554850, Note_on_c, 0, 93, 100
2, 554850, Note_on_c, 0, 105, 100
2, 554880, Note_on_c, 0, 61, 100
2, 554880, Note_on_c, 0, 74, 100
2, 554880, Note_on_c, 0, 87, 100
2, 554880, Note_on_c, 0, 99, 100
2, 554884, Note_on_c, 3, 54, 100
2, 555120, Note_on_c, 0, 61, 0
2, 555120, Note_on_c, 0, 74, 0
2, 555120, Note_on_c, 0, 87, 0
2, 555120, Note_on_c, 0, 99, 0
2, 555124, Note_on_c, 3, 54, 0
2, 555520, Note_on_c, 0, 75, 100
2, 555520, Note_on_c, 0, 88, 100
2, 555520, Note_on_c, 0, 100, 100
2, 555524, Note_on_c, 3, 57, 100
2, 555760, Note_on_c, 0, 75, 0
2, 555760, Note_on_c, 0, 88, 0
2, 555760, Note_on_c, 0, 100, 0
2, 555840, Note_on_c, 0, 62, 100
2, 555840, Note_on_c, 0, 75, 100
2, 555840, Note_on_c, 0, 88, 100
2, 555840, Note_on_c, 0, 100, 100
2, 556004, Note_on_c, 3, 57, 0
2, 556080, Note_on_c, 0, 62, 0
2, 556080, Note_on_c, 0, 75, 0
2, 556080, Note_on_c, 0, 88, 0
2, 556080, Note_on_c, 0, 100, 0
2, 556160, Note_on_c, 0, 87, 100
2, 556160, Note_on_c, 0, 99, 100
2, 556164, Note_on_c, 3, 55, 100
2, 556400, Note_on_c, 0, 87, 0
2, 556400, Note_on_c, 0, 99, 0
2, 556480, Note_on_c, 0, 74, 100
2, 556480, Note_on_c, 0, 87, 100
2, 556480, Note_on_c, 0, 99, 100
2, 556720, Note_on_c, 0, 74, 0
2, 556720, Note_on_c, 0, 87, 0
2, 556720, Note_on_c, 0, 99, 0
2, 556800, Note_on_c, 0, 61, 100
2, 556800, Note_on_c, 0, 74, 100
2, 556800, Note_on_c, 0, 87, 100
2, 556800, Note_on_c, 0, 99, 100
2, 557040, Note_on_c, 0, 61, 0
2, 557040, Note_on_c, 0, 74, 0
2, 557040, Note_on_c, 0, 87, 0
2, 557040, Note_on_c, 0, 99, 0
2, 557044, Note_on_c, 3, 55, 0
2, 557440, Note_on_c, 0, 75, 100
2, 557440, Note_on_c, 0, 88, 100
2, 557440, Note_on_c, 0, 100, 100
2, 557444, Note_on_c, 3, 58, 100
2, 557680, Note_on_c, 0, 75, 0
2, 557680, Note_on_c, 0, 88, 0
2, 557680, Note_on_c, 0, 100, 0
2, 557760, Note_on_c, 0, 62, 100
2, 557760, Note_on_c, 0, 75, 100
2, 557760, Note_on_c, 0, 88, 100
2, 557760, Note_on_c, 0, 100, 100
2, 558000, Note_on_c, 0, 62, 0
2, 558000, Note_on_c, 0, 75, 0
2, 558000, Note_on_c, 0, 88, 0
2, 558000, Note_on_c, 0, 100, 0
2, 558004, Note_on_c, 3, 58, 0
2, 558080, Note_on_c, 0, 86, 100
2, 558080, Note_on_c, 0, 98, 100
2, 558084, Note_on_c, 3, 54, 100
2, 558320, Note_on_c, 0, 86, 0
2, 558320, Note_on_c, 0, 98, 0
2, 558400, Note_on_c, 0, 73, 100
2, 558400, Note_on_c, 0, 86, 100
2, 558400, Note_on_c, 0, 98, 100
2, 558640, Note_on_c, 0, 73, 0
2, 558640, Note_on_c, 0, 86, 0
2, 558640, Note_on_c, 0, 98, 0
2, 558720, Note_on_c, 0, 61, 100
2, 558720, Note_on_c, 0, 73, 100
2, 558720, Note_on_c, 0, 86, 100
2, 558720, Note_on_c, 0, 98, 100
2, 559524, Note_on_c, 3, 54, 0
2, 559680, Note_on_c, 0, 61, 0
2, 559680, Note_on_c, 0, 73, 0
2, 559680, Note_on_c, 0, 86, 0
2, 559680, Note_on_c, 0, 98, 0
2, 559680, Note_on_c, 0, 62, 100
2, 559680, Note_on_c, 0, 74, 100
2, 559680, Note_on_c, 0, 87, 100
2, 559680, Note_on_c, 0, 99, 100
2, 559684, Note_on_c, 3, 56, 100
2, 559920, Note_on_c, 0, 62, 0
2, 559920, Note_on_c, 0, 74, 0
2, 559920, Note_on_c, 0, 87, 0
2, 559920, Note_on_c, 0, 99, 0
2, 559924, Note_on_c, 3, 56, 0
2, 560610, Note_on_c, 0, 69, 0
2, 560610, Note_on_c, 0, 81, 0
2, 560610, Note_on_c, 0, 93, 0
2, 560610, Note_on_c, 0, 105, 0
2, 560610, Note_on_c, 0, 70, 100
2, 560610, Note_on_c, 0, 82, 100
2, 560610, Note_on_c, 0, 94, 100
2, 560610, Note_on_c, 0, 106, 100
2, 560640, Note_on_c, 0, 60, 100
2, 560640, Note_on_c, 0, 72, 100
2, 560640, Note_on_c, 0, 85, 100
2, 560640, Note_on_c, 0, 97, 100
2, 560644, Note_on_c, 3, 50, 100
2, 560880, Note_on_c, 0, 60, 0
2, 560880, Note_on_c, 0, 72, 0
2, 560880, Note_on_c, 0, 85, 0
2, 560880, Note_on_c, 0, 97, 0
2, 560884, Note_on_c, 3, 50, 0
2, 561212, Note_on_c, 3, 52, 100
2, 561280, Note_on_c, 0, 61, 100
2, 561280, Note_on_c, 0, 73, 100
2, 561280, Note_on_c, 0, 86, 100
2, 561280, Note_on_c, 0, 98, 100
2, 563200, Note_on_c, 0, 61, 0
2, 563450, Note_on_c, 0, 70, 0
2, 563450, Note_on_c, 0, 82, 0
2, 563450, Note_on_c, 0, 94, 0
2, 563450, Note_on_c, 0, 106, 0
2, 563452, Note_on_c, 3, 52, 0
2, 563490, Note_on_c, 0, 69, 100
2, 563490, Note_on_c, 0, 81, 100
2, 563490, Note_on_c, 0, 93, 100
2, 563490, Note_on_c, 0, 105, 100
2, 563520, Note_on_c, 0, 73, 0
2, 563520, Note_on_c, 0, 86, 0
2, 563520, Note_on_c, 0, 98, 0
2, 563520, Note_on_c, 0, 62, 100
2, 563520, Note_on_c, 0, 75, 100
2, 563520, Note_on_c, 0, 87, 100
2, 563520, Note_on_c, 0, 99, 100
2, 563524, Note_on_c, 3, 54, 100
2, 563760, Note_on_c, 0, 62, 0
2, 563760, Note_on_c, 0, 75, 0
2, 563760, Note_on_c, 0, 87, 0
2, 563760, Note_on_c, 0, 99, 0
2, 563760, Note_on_c, 0, 88, 100
2, 563760, Note_on_c, 0, 100, 100
2, 563764, Note_on_c, 3, 54, 0
2, 563764, Note_on_c, 3, 56, 100
2, 564000, Note_on_c, 0, 88, 0
2, 564000, Note_on_c, 0, 100, 0
2, 564000, Note_on_c, 0, 87, 100
2, 564000, Note_on_c, 0, 99, 100
2, 564004, Note_on_c, 3, 56, 0
2, 564160, Note_on_c, 0, 62, 100
2, 564160, Note_on_c, 0, 74, 100
2, 564240, Note_on_c, 0, 87, 0
2, 564240, Note_on_c, 0, 99, 0
2, 564240, Note_on_c, 0, 86, 100
2, 564240, Note_on_c, 0, 98, 100
2, 564244, Note_on_c, 3, 52, 100
2, 564400, Note_on_c, 0, 62, 0
2, 564400, Note_on_c, 0, 74, 0
2, 564450, Note_on_c, 0, 67, 100
2, 564450, Note_on_c, 0, 79, 100
2, 564450, Note_on_c, 0, 91, 100
2, 564450, Note_on_c, 0, 103, 100
2, 564480, Note_on_c, 0, 86, 0
2, 564480, Note_on_c, 0, 98, 0
2, 564480, Note_on_c, 0, 61, 100
2, 564480, Note_on_c, 0, 74, 100
2, 564480, Note_on_c, 0, 87, 100
2, 564480, Note_on_c, 0, 99, 100
2, 564484, Note_on_c, 3, 52, 0
2, 564484, Note_on_c, 3, 54, 100
2, 565920, Note_on_c, 0, 61, 0
2, 566240, Note_on_c, 0, 74, 0
2, 566240, Note_on_c, 0, 87, 0
2, 566240, Note_on_c, 0, 99, 0
2, 566244, Note_on_c, 3, 54, 0
2, 566250, Note_on_c, 0, 69, 0
2, 566250, Note_on_c, 0, 81, 0
2, 566250, Note_on_c, 0, 93, 0
2, 566250, Note_on_c, 0, 105, 0
2, 566250, Note_on_c, 0, 67, 0
2, 566250, Note_on_c, 0, 79, 0
2, 566250, Note_on_c, 0, 91, 0
2, 566250, Note_on_c, 0, 103, 0
2, 566370, Note_on_c, 0, 70, 100
2, 566370, Note_on_c, 0, 82, 100
2, 566370, Note_on_c, 0, 94, 100
2, 566370, Note_on_c, 0, 106, 100
2, 566400, Note_on_c, 0, 61, 100
2, 566400, Note_on_c, 0, 74, 100
2, 566400, Note_on_c, 0, 86, 100
2, 566400, Note_on_c, 0, 98, 100
2, 566404, Note_on_c, 3, 52, 100
2, 566640, Note_on_c, 0, 61, 0
2, 566640, Note_on_c, 0, 74, 0
2, 566640, Note_on_c, 0, 86, 0
2, 566640, Note_on_c, 0, 98, 0
2, 566640, Note_on_c, 0, 87, 100
2, 566640, Note_on_c, 0, 99, 100
2, 566644, Note_on_c, 3, 52, 0
2, 566644, Note_on_c, 3, 54, 100
2, 566880, Note_on_c, 0, 87, 0
2, 566880, Note_on_c, 0, 99, 0
2, 566880, Note_on_c, 0, 86, 100
2, 566880, Note_on_c, 0, 98, 100
2, 566884, Note_on_c, 3, 54, 0
2, 567040, Note_on_c, 0, 61, 100
2, 567040, Note_on_c, 0, 73, 100
2, 567120, Note_on_c, 0, 86, 0
2, 567120, Note_on_c, 0, 98, 0
2, 567120, Note_on_c, 0, 85, 100
2, 567120, Note_on_c, 0, 97, 100
2, 567124, Note_on_c, 3, 50, 100
2, 567280, Note_on_c, 0, 61, 0
2, 567280, Note_on_c, 0, 73, 0
2, 567330, Note_on_c, 0, 67, 100
2, 567330, Note_on_c, 0, 79, 100
2, 567330, Note_on_c, 0, 91, 100
2, 567330, Note_on_c, 0, 103, 100
2, 567360, Note_on_c, 0, 85, 0
2, 567360, Note_on_c, 0, 97, 0
2, 567360, Note_on_c, 0, 61, 100
2, 567360, Note_on_c, 0, 73, 100
2, 567360, Note_on_c, 0, 86, 100
2, 567360, Note_on_c, 0, 98, 100
2, 567364, Note_on_c, 3, 50, 0
2, 567364, Note_on_c, 3, 52, 100
2, 568800, Note_on_c, 0, 61, 0
2, 569010, Note_on_c, 0, 70, 0
2, 569010, Note_on_c, 0, 82, 0
2, 569010, Note_on_c, 0, 94, 0
2, 569010, Note_on_c, 0, 106, 0
2, 569120, Note_on_c, 0, 73, 0
2, 569120, Note_on_c, 0, 86, 0
2, 569120, Note_on_c, 0, 98, 0
2, 569124, Note_on_c, 3, 52, 0
2, 569130, Note_on_c, 0, 67, 0
2, 569130, Note_on_c, 0, 79, 0
2, 569130, Note_on_c, 0, 91, 0
2, 569130, Note_on_c, 0, 103, 0
2, 569250, Note_on_c, 0, 69, 100
2, 569250, Note_on_c, 0, 81, 100
2, 569250, Note_on_c, 0, 93, 100
2, 569250, Note_on_c, 0, 105, 100
2, 569280, Note_on_c, 0, 60, 100
2, 569280, Note_on_c, 0, 72, 100
2, 569280, Note_on_c, 0, 85, 100
2, 569280, Note_on_c, 0, 97, 100
2, 569284, Note_on_c, 3, 53, 100
2, 569520, Note_on_c, 0, 60, 0
2, 569520, Note_on_c, 0, 72, 0
2, 569520, Note_on_c, 0, 85, 0
2, 569520, Note_on_c, 0, 97, 0
2, 569520, Note_on_c, 0, 86, 100
2, 569520, Note_on_c, 0, 98, 100
2, 569524, Note_on_c, 3, 53, 0
2, 569760, Note_on_c, 0, 86, 0
2, 569760, Note_on_c, 0, 98, 0
2, 569760, Note_on_c, 0, 85, 100
2, 569760, Note_on_c, 0, 97, 100
2, 569764, Note_on_c, 3, 49, 100
2, 569920, Note_on_c, 0, 60, 100
2, 569920, Note_on_c, 0, 72, 100
2, 570000, Note_on_c, 0, 85, 0
2, 570000, Note_on_c, 0, 97, 0
2, 570000, Note_on_c, 0, 84, 100
2, 570000, Note_on_c, 0, 96, 100
2, 570004, Note_on_c, 3, 49, 0
2, 570004, Note_on_c, 3, 51, 100
2, 570160, Note_on_c, 0, 60, 0
2, 570160, Note_on_c, 0, 72, 0
2, 570240, Note_on_c, 0, 84, 0
2, 570240, Note_on_c, 0, 96, 0
2, 570240, Note_on_c, 0, 60, 100
2, 570240, Note_on_c, 0, 72, 100
2, 570240, Note_on_c, 0, 85, 100
2, 570240, Note_on_c, 0, 97, 100
2, 571890, Note_on_c, 0, 69, 0
2, 571890, Note_on_c, 0, 81, 0
2, 571890, Note_on_c, 0, 93, 0
2, 571890, Note_on_c, 0, 105, 0
2, 571920, Note_on_c, 0, 60, 0
2, 571920, Note_on_c, 0, 85, 0
2, 571920, Note_on_c, 0, 97, 0
2, 572000, Note_on_c, 0, 72, 0
2, 572084, Note_on_c, 3, 51, 0
2, 572130, Note_on_c, 0, 70, 100
2, 572130, Note_on_c, 0, 82, 100
2, 572130, Note_on_c, 0, 94, 100
2, 572130, Note_on_c, 0, 106, 100
2, 572160, Note_on_c, 0, 60, 100
2, 572160, Note_on_c, 0, 73, 100
2, 572160, Note_on_c, 0, 86, 100
2, 572160, Note_on_c, 0, 98, 100
2, 572164, Note_on_c, 3, 49, 100
2, 572400, Note_on_c, 0, 60, 0
2, 572400, Note_on_c, 0, 73, 0
2, 572400, Note_on_c, 0, 86, 0
2, 572400, Note_on_c, 0, 98, 0
2, 572400, Note_on_c, 0, 85, 100
2, 572400, Note_on_c, 0, 97, 100
2, 572404, Note_on_c, 3, 49, 0
2, 572404, Note_on_c, 3, 47, 100
2, 572640, Note_on_c, 0, 85, 0
2, 572640, Note_on_c, 0, 97, 0
2, 572640, Note_on_c, 0, 60, 100
2, 572640, Note_on_c, 0, 72, 100
2, 572640, Note_on_c, 0, 84, 100
2, 572640, Note_on_c, 0, 96, 100
2, 572644, Note_on_c, 3, 47, 0
2, 572644, Note_on_c, 3, 45, 100
2, 572880, Note_on_c, 0, 60, 0
2, 572880, Note_on_c, 0, 72, 0
2, 572880, Note_on_c, 0, 84, 0
2, 572880, Note_on_c, 0, 96, 0
2, 572884, Note_on_c, 3, 45, 0
2, 573440, Note_on_c, 0, 61, 100
2, 573440, Note_on_c, 0, 73, 100
2, 573440, Note_on_c, 0, 85, 100
2, 573440, Note_on_c, 0, 97, 100
2, 573444, Note_on_c, 3, 47, 100
2, 573680, Note_on_c, 0, 61, 0
2, 573680, Note_on_c, 0, 73, 0
2, 573680, Note_on_c, 0, 85, 0
2, 573680, Note_on_c, 0, 97, 0
2, 573684, Note_on_c, 3, 47, 0
2, 574080, Note_on_c, 0, 61, 100
2, 574080, Note_on_c, 0, 74, 100
2, 574080, Note_on_c, 0, 86, 100
2, 574080, Note_on_c, 0, 98, 100
2, 574084, Note_on_c, 3, 49, 100
2, 575520, Note_on_c, 0, 61, 0
2, 575520, Note_on_c, 0, 74, 0
2, 575730, Note_on_c, 0, 70, 0
2, 575730, Note_on_c, 0, 82, 0
2, 575730, Note_on_c, 0, 94, 0
2, 575730, Note_on_c, 0, 106, 0
2, 575970, Note_on_c, 0, 69, 100
2, 575970, Note_on_c, 0, 81, 100
2, 575970, Note_on_c, 0, 93, 100
2, 575970, Note_on_c, 0, 105, 100
2, 576000, Note_on_c, 0, 86, 0
2, 576000, Note_on_c, 0, 98, 0
2, 576000, Note_on_c, 0, 60, 100
2, 576000, Note_on_c, 0, 72, 100
2, 576000, Note_on_c, 0, 84, 100
2, 576000, Note_on_c, 0, 96, 100
2, 576004, Note_on_c, 3, 49, 0
2, 576004, Note_on_c, 3, 45, 100
2, 576240, Note_on_c, 0, 60, 0
2, 576240, Note_on_c, 0, 72, 0
2, 576240, Note_on_c, 0, 84, 0
2, 576240, Note_on_c, 0, 96, 0
2, 576244, Note_on_c, 3, 45, 0
2, 576640, Note_on_c, 0, 61, 100
2, 576640, Note_on_c, 0, 73, 100
2, 576640, Note_on_c, 0, 85, 100
2, 576640, Note_on_c, 0, 97, 100
2, 576644, Note_on_c, 3, 47, 100
2, 576880, Note_on_c, 0, 61, 0
2, 576880, Note_on_c, 0, 73, 0
2, 576880, Note_on_c, 0, 85, 0
2, 576880, Note_on_c, 0, 97, 0
2, 576884, Note_on_c, 3, 47, 0
2, 577280, Note_on_c, 0, 62, 100
2, 577280, Note_on_c, 0, 74, 100
2, 577280, Note_on_c, 0, 86, 100
2, 577280, Note_on_c, 0, 98, 100
2, 577284, Note_on_c, 3, 49, 100
2, 577520, Note_on_c, 0, 62, 0
2, 577520, Note_on_c, 0, 74, 0
2, 577520, Note_on_c, 0, 86, 0
2, 577520, Note_on_c, 0, 98, 0
2, 577524, Note_on_c, 3, 49, 0
2, 577800, Note_on_c, 0, 67, 100
2, 577800, Note_on_c, 0, 79, 100
2, 577800, Note_on_c, 0, 91, 100
2, 577800, Note_on_c, 0, 103, 100
2, 577920, Note_on_c, 0, 62, 100
2, 577920, Note_on_c, 0, 75, 100
2, 577920, Note_on_c, 0, 87, 100
2, 577920, Note_on_c, 0, 99, 100
2, 577924, Note_on_c, 3, 51, 100
2, 578164, Note_on_c, 3, 51, 0
2, 578640, Note_on_c, 3, 52, 100
2, 578880, Note_on_c, 3, 52, 0
2, 579360, Note_on_c, 0, 62, 0
2, 579360, Note_on_c, 0, 75, 0
2, 579360, Note_on_c, 3, 51, 100
2, 579570, Note_on_c, 0, 69, 0
2, 579570, Note_on_c, 0, 81, 0
2, 579570, Note_on_c, 0, 93, 0
2, 579570, Note_on_c, 0, 105, 0
2, 579600, Note_on_c, 3, 51, 0
2, 579690, Note_on_c, 0, 67, 0
2, 579690, Note_on_c, 0, 79, 0
2, 579690, Note_on_c, 0, 91, 0
2, 579690, Note_on_c, 0, 103, 0
2, 579810, Note_on_c, 0, 70, 100
2, 579810, Note_on_c, 0, 82, 100
2, 579810, Note_on_c, 0, 94, 100
2, 579810, Note_on_c, 0, 106, 100
2, 579840, Note_on_c, 0, 87, 0
2, 579840, Note_on_c, 0, 99, 0
2, 579840, Note_on_c, 0, 60, 100
2, 579840, Note_on_c, 0, 72, 100
2, 579840, Note_on_c, 0, 84, 100
2, 579840, Note_on_c, 0, 96, 100
2, 579844, Note_on_c, 3, 45, 100
2, 580080, Note_on_c, 0, 60, 0
2, 580080, Note_on_c, 0, 72, 0
2, 580080, Note_on_c, 0, 84, 0
2, 580080, Note_on_c, 0, 96, 0
2, 580084, Note_on_c, 3, 45, 0
2, 580480, Note_on_c, 0, 61, 100
2, 580480, Note_on_c, 0, 73, 100
2, 580480, Note_on_c, 0, 85, 100
2, 580480, Note_on_c, 0, 97, 100
2, 580484, Note_on_c, 3, 47, 100
2, 580720, Note_on_c, 0, 61, 0
2, 580720, Note_on_c, 0, 73, 0
2, 580720, Note_on_c, 0, 85, 0
2, 580720, Note_on_c, 0, 97, 0
2, 580724, Note_on_c, 3, 47, 0
2, 581120, Note_on_c, 0, 62, 100
2, 581120, Note_on_c, 0, 74, 100
2, 581120, Note_on_c, 0, 86, 100
2, 581120, Note_on_c, 0, 98, 100
2, 581124, Note_on_c, 3, 49, 100
2, 581360, Note_on_c, 0, 62, 0
2, 581360, Note_on_c, 0, 74, 0
2, 581360, Note_on_c, 0, 86, 0
2, 581360, Note_on_c, 0, 98, 0
2, 581364, Note_on_c, 3, 49, 0
2, 581640, Note_on_c, 0, 67, 100
2, 581640, Note_on_c, 0, 79, 100
2, 581640, Note_on_c, 0, 91, 100
2, 581640, Note_on_c, 0, 103, 100
2, 581760, Note_on_c, 0, 62, 100
2, 581760, Note_on_c, 0, 75, 100
2, 581760, Note_on_c, 0, 87, 100
2, 581760, Note_on_c, 0, 99, 100
2, 581764, Note_on_c, 3, 51, 100
2, 582004, Note_on_c, 3, 51, 0
2, 582480, Note_on_c, 3, 52, 100
2, 582720, Note_on_c, 3, 52, 0
2, 583200, Note_on_c, 0, 62, 0
2, 583200, Note_on_c, 0, 75, 0
2, 583200, Note_on_c, 3, 51, 100
2, 583410, Note_on_c, 0, 70, 0
2, 583410, Note_on_c, 0, 82, 0
2, 583410, Note_on_c, 0, 94, 0
2, 583410, Note_on_c, 0, 106, 0
2, 583440, Note_on_c, 3, 51, 0
2, 583530, Note_on_c, 0, 67, 0
2, 583530, Note_on_c, 0, 79, 0
2, 583530, Note_on_c, 0, 91, 0
2, 583530, Note_on_c, 0, 103, 0
2, 583650, Note_on_c, 0, 69, 100
2, 583650, Note_on_c, 0, 81, 100
2, 583650, Note_on_c, 0, 93, 100
2, 583650, Note_on_c, 0, 105, 100
2, 583680, Note_on_c, 0, 87, 0
2, 583680, Note_on_c, 0, 99, 0
2, 583680, Note_on_c, 0, 60, 100
2, 583680, Note_on_c, 0, 72, 100
2, 583680, Note_on_c, 0, 84, 100
2, 583680, Note_on_c, 0, 96, 100
2, 583684, Note_on_c, 3, 45, 100
2, 583920, Note_on_c, 0, 60, 0
2, 583920, Note_on_c, 0, 72, 0
2, 583920, Note_on_c, 0, 84, 0
2, 583920, Note_on_c, 0, 96, 0
2, 583924, Note_on_c, 3, 45, 0
2, 584320, Note_on_c, 0, 61, 100
2, 584320, Note_on_c, 0, 73, 100
2, 584320, Note_on_c, 0, 85, 100
2, 584320, Note_on_c, 0, 97, 100
2, 584324, Note_on_c, 3, 47, 100
2, 584560, Note_on_c, 0, 61, 0
2, 584560, Note_on_c, 0, 73, 0
2, 584560, Note_on_c, 0, 85, 0
2, 584560, Note_on_c, 0, 97, 0
2, 584564, Note_on_c, 3, 47, 0
2, 584960, Note_on_c, 0, 62, 100
2, 584960, Note_on_c, 0, 74, 100
2, 584960, Note_on_c, 0, 86, 100
2, 584960, Note_on_c, 0, 98, 100
2, 584964, Note_on_c, 3, 49, 100
2, 585200, Note_on_c, 0, 62, 0
2, 585200, Note_on_c, 0, 74, 0
2, 585200, Note_on_c, 0, 86, 0
2, 585200, Note_on_c, 0, 98, 0
2, 585204, Note_on_c, 3, 49, 0
2, 585600, Note_on_c, 0, 62, 100
2, 585600, Note_on_c, 0, 75, 100
2, 585600, Note_on_c, 0, 87, 100
2, 585600, Note_on_c, 0, 99, 100
2, 585604, Note_on_c, 3, 51, 100
2, 586324, Note_on_c, 3, 51, 0
2, 586560, Note_on_c, 0, 62, 0
2, 586560, Note_on_c, 0, 75, 0
2, 586560, Note_on_c, 0, 87, 0
2, 586560, Note_on_c, 0, 99, 0
2, 586560, Note_on_c, 0, 60, 100
2, 586560, Note_on_c, 0, 74, 100
2, 586560, Note_on_c, 0, 86, 100
2, 586560, Note_on_c, 0, 98, 100
2, 586564, Note_on_c, 3, 49, 100
2, 586720, Note_on_c, 0, 74, 0
2, 586720, Note_on_c, 0, 86, 0
2, 586720, Note_on_c, 0, 98, 0
2, 586724, Note_on_c, 3, 49, 0
2, 587360, Note_on_c, 0, 60, 0
2, 587370, Note_on_c, 0, 69, 0
2, 587370, Note_on_c, 0, 81, 0
2, 587370, Note_on_c, 0, 93, 0
2, 587370, Note_on_c, 0, 105, 0
2, 587490, Note_on_c, 0, 70, 100
2, 587490, Note_on_c, 0, 82, 100
2, 587490, Note_on_c, 0, 94, 100
2, 587490, Note_on_c, 0, 106, 100
2, 587520, Note_on_c, 0, 62, 100
2, 587520, Note_on_c, 0, 75, 100
2, 587520, Note_on_c, 0, 87, 100
2, 587520, Note_on_c, 0, 100, 100
2, 587524, Note_on_c, 3, 55, 100
2, 587680, Note_on_c, 0, 75, 0
2, 587680, Note_on_c, 0, 87, 0
2, 587680, Note_on_c, 0, 100, 0
2, 587684, Note_on_c, 3, 55, 0
2, 587760, Note_on_c, 0, 62, 0
2, 587840, Note_on_c, 0, 86, 100
2, 587840, Note_on_c, 0, 99, 100
2, 588000, Note_on_c, 0, 86, 0
2, 588000, Note_on_c, 0, 99, 0
2, 588160, Note_on_c, 0, 73, 100
2, 588160, Note_on_c, 0, 85, 100
2, 588160, Note_on_c, 0, 97, 100
2, 588164, Note_on_c, 3, 51, 100
2, 588320, Note_on_c, 0, 73, 0
2, 588320, Note_on_c, 0, 85, 0
2, 588320, Note_on_c, 0, 97, 0
2, 588324, Note_on_c, 3, 51, 0
2, 588480, Note_on_c, 0, 61, 100
2, 588480, Note_on_c, 0, 74, 100
2, 588480, Note_on_c, 0, 86, 100
2, 588480, Note_on_c, 0, 98, 100
2, 588484, Note_on_c, 3, 53, 100
2, 588640, Note_on_c, 0, 74, 0
2, 588640, Note_on_c, 0, 86, 0
2, 588640, Note_on_c, 0, 98, 0
2, 588644, Note_on_c, 3, 53, 0
2, 588720, Note_on_c, 0, 61, 0
2, 588800, Note_on_c, 0, 97, 100
2, 588960, Note_on_c, 0, 97, 0
2, 589120, Note_on_c, 0, 84, 100
2, 589120, Note_on_c, 0, 96, 100
2, 589124, Note_on_c, 3, 49, 100
2, 589280, Note_on_c, 0, 84, 0
2, 589280, Note_on_c, 0, 96, 0
2, 589284, Note_on_c, 3, 49, 0
2, 589410, Note_on_c, 0, 70, 0
2, 589410, Note_on_c, 0, 82, 0
2, 589410, Note_on_c, 0, 94, 0
2, 589410, Note_on_c, 0, 106, 0
2, 589410, Note_on_c, 0, 69, 100
2, 589410, Note_on_c, 0, 81, 100
2, 589410, Note_on_c, 0, 93, 100
2, 589410, Note_on_c, 0, 105, 100
2, 589440, Note_on_c, 0, 62, 100
2, 589440, Note_on_c, 0, 75, 100
2, 589440, Note_on_c, 0, 87, 100
2, 589440, Note_on_c, 0, 100, 100
2, 589444, Note_on_c, 3, 55, 100
2, 589600, Note_on_c, 0, 75, 0
2, 589600, Note_on_c, 0, 87, 0
2, 589600, Note_on_c, 0, 100, 0
2, 589604, Note_on_c, 3, 55, 0
2, 589680, Note_on_c, 0, 62, 0
2, 589760, Note_on_c, 0, 86, 100
2, 589760, Note_on_c, 0, 99, 100
2, 589920, Note_on_c, 0, 86, 0
2, 589920, Note_on_c, 0, 99, 0
2, 590080, Note_on_c, 0, 73, 100
2, 590080, Note_on_c, 0, 85, 100
2, 590080, Note_on_c, 0, 97, 100
2, 590084, Note_on_c, 3, 51, 100
2, 590240, Note_on_c, 0, 73, 0
2, 590240, Note_on_c, 0, 85, 0
2, 590240, Note_on_c, 0, 97, 0
2, 590244, Note_on_c, 3, 51, 0
2, 590400, Note_on_c, 0, 61, 100
2, 590400, Note_on_c, 0, 74, 100
2, 590400, Note_on_c, 0, 86, 100
2, 590400, Note_on_c, 0, 98, 100
2, 590404, Note_on_c, 3, 53, 100
2, 590560, Note_on_c, 0, 74, 0
2, 590560, Note_on_c, 0, 86, 0
2, 590560, Note_on_c, 0, 98, 0
2, 590564, Note_on_c, 3, 53, 0
2, 590640, Note_on_c, 0, 61, 0
2, 590720, Note_on_c, 0, 97, 100
2, 590880, Note_on_c, 0, 97, 0
2, 591040, Note_on_c, 0, 84, 100
2, 591040, Note_on_c, 0, 96, 100
2, 591044, Note_on_c, 3, 49, 100
2, 591200, Note_on_c, 0, 84, 0
2, 591200, Note_on_c, 0, 96, 0
2, 591204, Note_on_c, 3, 49, 0
2, 591330, Note_on_c, 0, 69, 0
2, 591330, Note_on_c, 0, 81, 0
2, 591330, Note_on_c, 0, 93, 0
2, 591330, Note_on_c, 0, 105, 0
2, 591330, Note_on_c, 0, 70, 100
2, 591330, Note_on_c, 0, 82, 100
2, 591330, Note_on_c, 0, 94, 100
2, 591330, Note_on_c, 0, 106, 100
2, 591360, Note_on_c, 0, 62, 100
2, 591360, Note_on_c, 0, 75, 100
2, 591360, Note_on_c, 0, 87, 100
2, 591360, Note_on_c, 0, 100, 100
2, 591364, Note_on_c, 3, 55, 100
2, 591520, Note_on_c, 0, 75, 0
2, 591520, Note_on_c, 0, 87, 0
2, 591520, Note_on_c, 0, 100, 0
2, 591524, Note_on_c, 3, 55, 0
2, 591600, Note_on_c, 0, 62, 0
2, 591680, Note_on_c, 0, 86, 100
2, 591680, Note_on_c, 0, 99, 100
2, 591840, Note_on_c, 0, 86, 0
2, 591840, Note_on_c, 0, 99, 0
2, 592000, Note_on_c, 0, 73, 100
2, 592000, Note_on_c, 0, 85, 100
2, 592000, Note_on_c, 0, 97, 100
2, 592004, Note_on_c, 3, 51, 100
2, 592160, Note_on_c, 0, 73, 0
2, 592160, Note_on_c, 0, 85, 0
2, 592160, Note_on_c, 0, 97, 0
2, 592164, Note_on_c, 3, 51, 0
2, 592290, Note_on_c, 0, 70, 0
2, 592290, Note_on_c, 0, 82, 0
2, 592290, Note_on_c, 0, 94, 0
2, 592290, Note_on_c, 0, 106, 0
2, 592290, Note_on_c, 0, 69, 100
2, 592290, Note_on_c, 0, 81, 100
2, 592290, Note_on_c, 0, 93, 100
2, 592290, Note_on_c, 0, 105, 100
2, 592320, Note_on_c, 0, 61, 100
2, 592320, Note_on_c, 0, 74, 100
2, 592320, Note_on_c, 0, 86, 100
2, 592320, Note_on_c, 0, 98, 100
2, 592324, Note_on_c, 3, 53, 100
2, 592480, Note_on_c, 0, 74, 0
2, 592480, Note_on_c, 0, 86, 0
2, 592480, Note_on_c, 0, 98, 0
2, 592484, Note_on_c, 3, 53, 0
2, 592560, Note_on_c, 0, 61, 0
2, 592640, Note_on_c, 0, 97, 100
2, 592800, Note_on_c, 0, 97, 0
2, 592960, Note_on_c, 0, 84, 100
2, 592960, Note_on_c, 0, 96, 100
2, 592964, Note_on_c, 3, 49, 100
2, 593120, Note_on_c, 0, 84, 0
2, 593120, Note_on_c, 0, 96, 0
2, 593124, Note_on_c, 3, 49, 0
2, 593250, Note_on_c, 0, 69, 0
2, 593250, Note_on_c, 0, 81, 0
2, 593250, Note_on_c, 0, 93, 0
2, 593250, Note_on_c, 0, 105, 0
2, 593250, Note_on_c, 0, 70, 100
2, 593250, Note_on_c, 0, 82, 100
2, 593250, Note_on_c, 0, 94, 100
2, 593250, Note_on_c, 0, 106, 100
2, 593280, Note_on_c, 0, 62, 100
2, 593280, Note_on_c, 0, 75, 100
2, 593280, Note_on_c, 0, 87, 100
2, 593280, Note_on_c, 0, 100, 100
2, 593284, Note_on_c, 3, 55, 100
2, 593440, Note_on_c, 0, 75, 0
2, 593440, Note_on_c, 0, 87, 0
2, 593440, Note_on_c, 0, 100, 0
2, 593444, Note_on_c, 3, 55, 0
2, 593520, Note_on_c, 0, 62, 0
2, 593600, Note_on_c, 0, 86, 100
2, 593600, Note_on_c, 0, 99, 100
2, 593760, Note_on_c, 0, 86, 0
2, 593760, Note_on_c, 0, 99, 0
2, 593920, Note_on_c, 0, 73, 100
2, 593920, Note_on_c, 0, 85, 100
2, 593920, Note_on_c, 0, 97, 100
2, 593924, Note_on_c, 3, 51, 100
2, 594080, Note_on_c, 0, 73, 0
2, 594080, Note_on_c, 0, 85, 0
2, 594080, Note_on_c, 0, 97, 0
2, 594084, Note_on_c, 3, 51, 0
2, 594210, Note_on_c, 0, 70, 0
2, 594210, Note_on_c, 0, 82, 0
2, 594210, Note_on_c, 0, 94, 0
2, 594210, Note_on_c, 0, 106, 0
2, 594210, Note_on_c, 0, 69, 100
2, 594210, Note_on_c, 0, 81, 100
2, 594210, Note_on_c, 0, 93, 100
2, 594210, Note_on_c, 0, 105, 100
2, 594240, Note_on_c, 0, 61, 100
2, 594240, Note_on_c, 0, 74, 100
2, 594240, Note_on_c, 0, 86, 100
2, 594240, Note_on_c, 0, 98, 100
2, 594244, Note_on_c, 3, 53, 100
2, 594400, Note_on_c, 0, 74, 0
2, 594400, Note_on_c, 0, 86, 0
2, 594400, Note_on_c, 0, 98, 0
2, 594404, Note_on_c, 3, 53, 0
2, 594480, Note_on_c, 0, 61, 0
2, 594560, Note_on_c, 0, 97, 100
2, 594720, Note_on_c, 0, 97, 0
2, 594880, Note_on_c, 0, 84, 100
2, 594880, Note_on_c, 0, 96, 100
2, 594884, Note_on_c, 3, 49, 100
2, 595040, Note_on_c, 0, 84, 0
2, 595040, Note_on_c, 0, 96, 0
2, 595044, Note_on_c, 3, 49, 0
2, 595170, Note_on_c, 0, 70, 100
2, 595170, Note_on_c, 0, 82, 100
2, 595170, Note_on_c, 0, 94, 100
2, 595170, Note_on_c, 0, 106, 100
2, 595200, Text_t, "[idle]"
2, 595200, Text_t, "solo_off"
2, 595200, Text_t, "[verse]"
2, 595200, Note_on_c, 0, 62, 100
2, 595200, Note_on_c, 0, 75, 100
2, 595200, Note_on_c, 0, 87, 100
2, 595200, Note_on_c, 0, 99, 100
2, 595204, Note_on_c, 3, 53, 100
2, 595440, Note_on_c, 0, 62, 0
2, 596160, Text_t, "drum_off"
2, 596160, Note_on_c, 0, 75, 0
2, 596160, Note_on_c, 0, 87, 0
2, 596160, Note_on_c, 0, 99, 0
2, 596164, Note_on_c, 3, 53, 0
2, 597090, Note_on_c, 0, 69, 0
2, 597090, Note_on_c, 0, 81, 0
2, 597090, Note_on_c, 0, 93, 0
2, 597090, Note_on_c, 0, 105, 0
2, 597090, Note_on_c, 0, 70, 0
2, 597090, Note_on_c, 0, 82, 0
2, 597090, Note_on_c, 0, 94, 0
2, 597090, Note_on_c, 0, 106, 0
2, 599040, Note_on_c, 3, 40, 100
2, 599280, Note_on_c, 3, 40, 0
2, 610560, Text_t, "[section outro]"
2, 613440, Text_t, "sing_on"
2, 613440, Note_on_c, 0, 108, 100
2, 614880, Note_on_c, 0, 108, 0
2, 615360, Note_on_c, 0, 108, 100
2, 616800, Note_on_c, 0, 108, 0
2, 617120, Note_on_c, 0, 108, 100
2, 620120, Note_on_c, 0, 108, 0
2, 620480, Note_on_c, 0, 108, 100
2, 620960, Note_on_c, 0, 108, 0
2, 621120, Note_on_c, 0, 108, 100
2, 622080, Note_on_c, 3, 40, 100
2, 622320, Note_on_c, 3, 40, 0
2, 622440, Note_on_c, 0, 108, 0
2, 623040, Note_on_c, 0, 108, 100
2, 623970, Note_on_c, 0, 69, 100
2, 623970, Note_on_c, 0, 70, 100
2, 623970, Note_on_c, 0, 81, 100
2, 623970, Note_on_c, 0, 82, 100
2, 623970, Note_on_c, 0, 93, 100
2, 623970, Note_on_c, 0, 94, 100
2, 623970, Note_on_c, 0, 105, 100
2, 623970, Note_on_c, 0, 106, 100
2, 624000, Text_t, "[play]"
2, 624000, Note_on_c, 0, 62, 100
2, 624000, Note_on_c, 0, 74, 100
2, 624000, Note_on_c, 0, 87, 100
2, 624000, Note_on_c, 0, 88, 100
2, 624000, Note_on_c, 0, 99, 100
2, 624000, Note_on_c, 0, 100, 100
2, 624000, Note_on_c, 3, 54, 100
2, 624240, Note_on_c, 0, 62, 0
2, 624240, Note_on_c, 0, 74, 0
2, 624240, Note_on_c, 0, 87, 0
2, 624240, Note_on_c, 0, 88, 0
2, 624240, Note_on_c, 0, 99, 0
2, 624240, Note_on_c, 0, 100, 0
2, 624960, Note_on_c, 3, 54, 0
2, 624960, Note_on_c, 0, 61, 100
2, 624960, Note_on_c, 0, 73, 100
2, 624960, Note_on_c, 0, 86, 100
2, 624960, Note_on_c, 0, 98, 100
2, 625320, Note_on_c, 0, 108, 0
2, 625890, Note_on_c, 0, 69, 0
2, 625890, Note_on_c, 0, 81, 0
2, 625890, Note_on_c, 0, 93, 0
2, 625890, Note_on_c, 0, 105, 0
2, 625920, Text_t, "drum_on"
2, 625920, Note_on_c, 0, 61, 0
2, 625920, Note_on_c, 0, 73, 0
2, 625920, Note_on_c, 0, 86, 0
2, 625920, Note_on_c, 0, 98, 0
2, 625920, Note_on_c, 0, 60, 100
2, 625920, Note_on_c, 0, 72, 100
2, 625920, Note_on_c, 0, 84, 100
2, 625920, Note_on_c, 0, 96, 100
2, 625920, Note_on_c, 3, 40, 100
2, 626160, Note_on_c, 0, 60, 0
2, 626160, Note_on_c, 0, 72, 0
2, 626160, Note_on_c, 0, 84, 0
2, 626160, Note_on_c, 0, 96, 0
2, 626160, Note_on_c, 3, 40, 0
2, 626880, Note_on_c, 0, 62, 100
2, 626880, Note_on_c, 0, 72, 100
2, 626880, Note_on_c, 0, 74, 100
2, 626880, Note_on_c, 0, 85, 100
2, 626880, Note_on_c, 0, 87, 100
2, 626880, Note_on_c, 0, 97, 100
2, 626880, Note_on_c, 0, 99, 100
2, 626880, Note_on_c, 3, 47, 100
2, 627120, Note_on_c, 0, 62, 0
2, 627120, Note_on_c, 0, 72, 0
2, 627120, Note_on_c, 0, 74, 0
2, 627120, Note_on_c, 0, 85, 0
2, 627120, Note_on_c, 0, 87, 0
2, 627120, Note_on_c, 0, 97, 0
2, 627120, Note_on_c, 0, 99, 0
2, 627840, Note_on_c, 3, 47, 0
2, 627840, Note_on_c, 0, 60, 100
2, 627840, Note_on_c, 0, 72, 100
2, 627840, Note_on_c, 0, 84, 100
2, 627840, Note_on_c, 0, 96, 100
2, 628080, Note_on_c, 0, 60, 0
2, 628080, Note_on_c, 0, 72, 0
2, 628080, Note_on_c, 0, 84, 0
2, 628080, Note_on_c, 0, 96, 0
2, 628800, Note_on_c, 0, 62, 100
2, 628800, Note_on_c, 0, 72, 100
2, 628800, Note_on_c, 0, 74, 100
2, 628800, Note_on_c, 0, 85, 100
2, 628800, Note_on_c, 0, 87, 100
2, 628800, Note_on_c, 0, 97, 100
2, 628800, Note_on_c, 0, 99, 100
2, 628800, Note_on_c, 0, 108, 100
2, 628800, Note_on_c, 3, 47, 100
2, 629040, Note_on_c, 0, 62, 0
2, 629040, Note_on_c, 0, 72, 0
2, 629040, Note_on_c, 0, 74, 0
2, 629040, Note_on_c, 0, 85, 0
2, 629040, Note_on_c, 0, 87, 0
2, 629040, Note_on_c, 0, 97, 0
2, 629040, Note_on_c, 0, 99, 0
2, 629760, Note_on_c, 0, 108, 0
2, 629760, Note_on_c, 3, 47, 0
2, 629760, Note_on_c, 0, 60, 100
2, 629760, Note_on_c, 0, 72, 100
2, 629760, Note_on_c, 0, 84, 100
2, 629760, Note_on_c, 0, 96, 100
2, 630000, Note_on_c, 0, 60, 0
2, 630000, Note_on_c, 0, 72, 0
2, 630000, Note_on_c, 0, 84, 0
2, 630000, Note_on_c, 0, 96, 0
2, 630720, Note_on_c, 0, 62, 100
2, 630720, Note_on_c, 0, 72, 100
2, 630720, Note_on_c, 0, 74, 100
2, 630720, Note_on_c, 0, 85, 100
2, 630720, Note_on_c, 0, 87, 100
2, 630720, Note_on_c, 0, 97, 100
2, 630720, Note_on_c, 0, 99, 100
2, 630720, Note_on_c, 0, 108, 100
2, 630720, Note_on_c, 3, 47, 100
2, 630960, Note_on_c, 0, 62, 0
2, 630960, Note_on_c, 0, 72, 0
2, 630960, Note_on_c, 0, 74, 0
2, 630960, Note_on_c, 0, 85, 0
2, 630960, Note_on_c, 0, 87, 0
2, 630960, Note_on_c, 0, 97, 0
2, 630960, Note_on_c, 0, 99, 0
2, 631680, Note_on_c, 3, 47, 0
2, 631680, Note_on_c, 0, 60, 100
2, 631680, Note_on_c, 0, 72, 100
2, 631680, Note_on_c, 0, 84, 100
2, 631680, Note_on_c, 0, 96, 100
2, 631920, Note_on_c, 0, 60, 0
2, 631920, Note_on_c, 0, 72, 0
2, 631920, Note_on_c, 0, 84, 0
2, 631920, Note_on_c, 0, 96, 0
2, 632400, Note_on_c, 0, 108, 0
2, 632640, Note_on_c, 0, 62, 100
2, 632640, Note_on_c, 0, 74, 100
2, 632640, Note_on_c, 0, 87, 100
2, 632640, Note_on_c, 0, 97, 100
2, 632640, Note_on_c, 0, 99, 100
2, 632640, Note_on_c, 0, 108, 100
2, 632640, Note_on_c, 3, 47, 100
2, 632880, Note_on_c, 0, 62, 0
2, 632880, Note_on_c, 0, 74, 0
2, 632880, Note_on_c, 0, 87, 0
2, 632880, Note_on_c, 0, 97, 0
2, 632880, Note_on_c, 0, 99, 0
2, 632880, Note_on_c, 3, 47, 0
2, 633120, Note_on_c, 3, 45, 100
2, 633208, Note_on_c, 0, 86, 100
2, 633280, Note_on_c, 0, 61, 100
2, 633280, Note_on_c, 0, 73, 100
2, 633280, Note_on_c, 0, 98, 100
2, 633360, Note_on_c, 3, 45, 0
2, 633448, Note_on_c, 0, 86, 0
2, 633520, Note_on_c, 0, 61, 0
2, 633520, Note_on_c, 0, 73, 0
2, 633520, Note_on_c, 0, 98, 0
2, 633570, Note_on_c, 0, 69, 100
2, 633570, Note_on_c, 0, 81, 100
2, 633570, Note_on_c, 0, 93, 100
2, 633570, Note_on_c, 0, 105, 100
2, 633600, Note_on_c, 0, 62, 100
2, 633600, Note_on_c, 0, 74, 100
2, 633600, Note_on_c, 0, 87, 100
2, 633600, Note_on_c, 0, 97, 100
2, 633600, Note_on_c, 0, 99, 100
2, 633600, Note_on_c, 3, 47, 100
2, 633840, Note_on_c, 0, 62, 0
2, 633840, Note_on_c, 0, 74, 0
2, 633840, Note_on_c, 0, 87, 0
2, 633840, Note_on_c, 0, 97, 0
2, 633840, Note_on_c, 0, 99, 0
2, 633840, Note_on_c, 3, 47, 0
2, 634050, Note_on_c, 0, 70, 0
2, 634050, Note_on_c, 0, 82, 0
2, 634050, Note_on_c, 0, 94, 0
2, 634050, Note_on_c, 0, 106, 0
2, 634560, Note_on_c, 0, 108, 0
2, 634560, Note_on_c, 0, 62, 100
2, 634560, Note_on_c, 0, 74, 100
2, 634560, Note_on_c, 0, 85, 100
2, 634560, Note_on_c, 0, 87, 100
2, 634560, Note_on_c, 0, 97, 100
2, 634560, Note_on_c, 0, 99, 100
2, 634560, Note_on_c, 3, 47, 100
2, 634800, Note_on_c, 0, 62, 0
2, 634800, Note_on_c, 0, 74, 0
2, 634800, Note_on_c, 0, 85, 0
2, 634800, Note_on_c, 0, 87, 0
2, 634800, Note_on_c, 0, 97, 0
2, 634800, Note_on_c, 0, 99, 0
2, 635520, Note_on_c, 3, 47, 0
2, 635520, Note_on_c, 0, 60, 100
2, 635520, Note_on_c, 0, 72, 100
2, 635520, Note_on_c, 0, 84, 100
2, 635520, Note_on_c, 0, 96, 100
2, 635760, Note_on_c, 0, 60, 0
2, 635760, Note_on_c, 0, 72, 0
2, 635760, Note_on_c, 0, 84, 0
2, 635760, Note_on_c, 0, 96, 0
2, 636480, Note_on_c, 0, 62, 100
2, 636480, Note_on_c, 0, 72, 100
2, 636480, Note_on_c, 0, 74, 100
2, 636480, Note_on_c, 0, 85, 100
2, 636480, Note_on_c, 0, 87, 100
2, 636480, Note_on_c, 0, 97, 100
2, 636480, Note_on_c, 0, 99, 100
2, 636480, Note_on_c, 0, 108, 100
2, 636480, Note_on_c, 3, 47, 100
2, 636720, Note_on_c, 0, 62, 0
2, 636720, Note_on_c, 0, 72, 0
2, 636720, Note_on_c, 0, 74, 0
2, 636720, Note_on_c, 0, 85, 0
2, 636720, Note_on_c, 0, 87, 0
2, 636720, Note_on_c, 0, 97, 0
2, 636720, Note_on_c, 0, 99, 0
2, 637440, Note_on_c, 3, 47, 0
2, 637440, Note_on_c, 0, 60, 100
2, 637440, Note_on_c, 0, 72, 100
2, 637440, Note_on_c, 0, 84, 100
2, 637440, Note_on_c, 0, 96, 100
2, 637680, Note_on_c, 0, 60, 0
2, 637680, Note_on_c, 0, 72, 0
2, 637680, Note_on_c, 0, 84, 0
2, 637680, Note_on_c, 0, 96, 0
2, 638160, Note_on_c, 0, 108, 0
2, 638400, Note_on_c, 0, 62, 100
2, 638400, Note_on_c, 0, 72, 100
2, 638400, Note_on_c, 0, 74, 100
2, 638400, Note_on_c, 0, 85, 100
2, 638400, Note_on_c, 0, 87, 100
2, 638400, Note_on_c, 0, 97, 100
2, 638400, Note_on_c, 0, 99, 100
2, 638400, Note_on_c, 0, 108, 100
2, 638400, Note_on_c, 3, 47, 100
2, 638640, Note_on_c, 0, 62, 0
2, 638640, Note_on_c, 0, 72, 0
2, 638640, Note_on_c, 0, 74, 0
2, 638640, Note_on_c, 0, 85, 0
2, 638640, Note_on_c, 0, 87, 0
2, 638640, Note_on_c, 0, 97, 0
2, 638640, Note_on_c, 0, 99, 0
2, 639360, Note_on_c, 3, 47, 0
2, 639360, Note_on_c, 0, 60, 100
2, 639360, Note_on_c, 0, 72, 100
2, 639360, Note_on_c, 0, 84, 100
2, 639360, Note_on_c, 0, 96, 100
2, 639600, Note_on_c, 0, 60, 0
2, 639600, Note_on_c, 0, 72, 0
2, 639600, Note_on_c, 0, 84, 0
2, 639600, Note_on_c, 0, 96, 0
2, 640080, Note_on_c, 0, 108, 0
2, 640320, Note_on_c, 0, 62, 100
2, 640320, Note_on_c, 0, 72, 100
2, 640320, Note_on_c, 0, 74, 100
2, 640320, Note_on_c, 0, 85, 100
2, 640320, Note_on_c, 0, 87, 100
2, 640320, Note_on_c, 0, 97, 100
2, 640320, Note_on_c, 0, 99, 100
2, 640320, Note_on_c, 0, 108, 100
2, 640320, Note_on_c, 3, 47, 100
2, 640560, Note_on_c, 0, 62, 0
2, 640560, Note_on_c, 0, 72, 0
2, 640560, Note_on_c, 0, 74, 0
2, 640560, Note_on_c, 0, 85, 0
2, 640560, Note_on_c, 0, 87, 0
2, 640560, Note_on_c, 0, 97, 0
2, 640560, Note_on_c, 0, 99, 0
2, 640888, Note_on_c, 0, 87, 100
2, 640960, Note_on_c, 0, 97, 100
2, 640960, Note_on_c, 0, 99, 100
2, 641040, Note_on_c, 3, 47, 0
2, 641128, Note_on_c, 0, 87, 0
2, 641200, Note_on_c, 0, 97, 0
2, 641200, Note_on_c, 0, 99, 0
2, 641250, Note_on_c, 0, 70, 100
2, 641250, Note_on_c, 0, 82, 100
2, 641250, Note_on_c, 0, 94, 100
2, 641250, Note_on_c, 0, 106, 100
2, 641280, Text_t, "[chorus]"
2, 641280, Note_on_c, 0, 60, 100
2, 641280, Note_on_c, 0, 72, 100
2, 641280, Note_on_c, 0, 84, 100
2, 641280, Note_on_c, 0, 96, 100
2, 641280, Note_on_c, 0, 97, 100
2, 641280, Note_on_c, 3, 43, 100
2, 641520, Note_on_c, 0, 60, 0
2, 641520, Note_on_c, 0, 72, 0
2, 641520, Note_on_c, 0, 84, 0
2, 641520, Note_on_c, 0, 96, 0
2, 641520, Note_on_c, 0, 97, 0
2, 642240, Note_on_c, 0, 60, 100
2, 642240, Note_on_c, 0, 72, 100
2, 642240, Note_on_c, 0, 73, 100
2, 642240, Note_on_c, 0, 84, 100
2, 642240, Note_on_c, 0, 85, 100
2, 642240, Note_on_c, 0, 96, 100
2, 642240, Note_on_c, 0, 99, 100
2, 642480, Note_on_c, 0, 60, 0
2, 642480, Note_on_c, 0, 72, 0
2, 642480, Note_on_c, 0, 73, 0
2, 642480, Note_on_c, 0, 84, 0
2, 642480, Note_on_c, 0, 85, 0
2, 642480, Note_on_c, 0, 96, 0
2, 642480, Note_on_c, 0, 99, 0
2, 643200, Text_t, "sing_off"
2, 643200, Note_on_c, 0, 108, 0
2, 643200, Note_on_c, 0, 60, 100
2, 643200, Note_on_c, 0, 72, 100
2, 643200, Note_on_c, 0, 84, 100
2, 643200, Note_on_c, 0, 96, 100
2, 643200, Note_on_c, 0, 97, 100
2, 643440, Note_on_c, 0, 60, 0
2, 643440, Note_on_c, 0, 72, 0
2, 643440, Note_on_c, 0, 84, 0
2, 643440, Note_on_c, 0, 96, 0
2, 643440, Note_on_c, 0, 97, 0
2, 644160, Note_on_c, 0, 60, 100
2, 644160, Note_on_c, 0, 72, 100
2, 644160, Note_on_c, 0, 73, 100
2, 644160, Note_on_c, 0, 84, 100
2, 644160, Note_on_c, 0, 85, 100
2, 644160, Note_on_c, 0, 96, 100
2, 644160, Note_on_c, 0, 99, 100
2, 644400, Note_on_c, 0, 60, 0
2, 644400, Note_on_c, 0, 72, 0
2, 644400, Note_on_c, 0, 73, 0
2, 644400, Note_on_c, 0, 84, 0
2, 644400, Note_on_c, 0, 85, 0
2, 644400, Note_on_c, 0, 96, 0
2, 644400, Note_on_c, 0, 99, 0
2, 645120, Note_on_c, 0, 60, 100
2, 645120, Note_on_c, 0, 72, 100
2, 645120, Note_on_c, 0, 84, 100
2, 645120, Note_on_c, 0, 96, 100
2, 645120, Note_on_c, 0, 97, 100
2, 645360, Note_on_c, 0, 60, 0
2, 645360, Note_on_c, 0, 72, 0
2, 645360, Note_on_c, 0, 84, 0
2, 645360, Note_on_c, 0, 96, 0
2, 645360, Note_on_c, 0, 97, 0
2, 646080, Note_on_c, 0, 60, 100
2, 646080, Note_on_c, 0, 72, 100
2, 646080, Note_on_c, 0, 73, 100
2, 646080, Note_on_c, 0, 84, 100
2, 646080, Note_on_c, 0, 85, 100
2, 646080, Note_on_c, 0, 96, 100
2, 646080, Note_on_c, 0, 99, 100
2, 646320, Note_on_c, 0, 60, 0
2, 646320, Note_on_c, 0, 72, 0
2, 646320, Note_on_c, 0, 73, 0
2, 646320, Note_on_c, 0, 84, 0
2, 646320, Note_on_c, 0, 85, 0
2, 646320, Note_on_c, 0, 96, 0
2, 646320, Note_on_c, 0, 99, 0
2, 647040, Note_on_c, 0, 60, 100
2, 647040, Note_on_c, 0, 72, 100
2, 647040, Note_on_c, 0, 84, 100
2, 647040, Note_on_c, 0, 96, 100
2, 647040, Note_on_c, 0, 97, 100
2, 647280, Note_on_c, 0, 60, 0
2, 647280, Note_on_c, 0, 72, 0
2, 647280, Note_on_c, 0, 84, 0
2, 647280, Note_on_c, 0, 96, 0
2, 647280, Note_on_c, 0, 97, 0
2, 648000, Note_on_c, 0, 60, 100
2, 648000, Note_on_c, 0, 72, 100
2, 648000, Note_on_c, 0, 73, 100
2, 648000, Note_on_c, 0, 84, 100
2, 648000, Note_on_c, 0, 85, 100
2, 648000, Note_on_c, 0, 96, 100
2, 648000, Note_on_c, 0, 99, 100
2, 648240, Note_on_c, 0, 60, 0
2, 648240, Note_on_c, 0, 72, 0
2, 648240, Note_on_c, 0, 73, 0
2, 648240, Note_on_c, 0, 84, 0
2, 648240, Note_on_c, 0, 85, 0
2, 648240, Note_on_c, 0, 96, 0
2, 648240, Note_on_c, 0, 99, 0
2, 648480, Note_on_c, 3, 43, 0
2, 648568, Note_on_c, 0, 84, 100
2, 648568, Note_on_c, 0, 85, 100
2, 648640, Note_on_c, 0, 60, 100
2, 648640, Note_on_c, 0, 72, 100
2, 648640, Note_on_c, 0, 73, 100
2, 648640, Note_on_c, 0, 96, 100
2, 648640, Note_on_c, 0, 99, 100
2, 648808, Note_on_c, 0, 84, 0
2, 648808, Note_on_c, 0, 85, 0
2, 648880, Note_on_c, 0, 60, 0
2, 648880, Note_on_c, 0, 72, 0
2, 648880, Note_on_c, 0, 73, 0
2, 648880, Note_on_c, 0, 96, 0
2, 648880, Note_on_c, 0, 99, 0
2, 648960, Note_on_c, 0, 61, 100
2, 648960, Note_on_c, 0, 73, 100
2, 648960, Note_on_c, 0, 86, 100
2, 648960, Note_on_c, 0, 87, 100
2, 648960, Note_on_c, 0, 98, 100
2, 648960, Note_on_c, 0, 99, 100
2, 648960, Note_on_c, 3, 47, 100
2, 649200, Note_on_c, 0, 61, 0
2, 649200, Note_on_c, 0, 73, 0
2, 649200, Note_on_c, 0, 86, 0
2, 649200, Note_on_c, 0, 87, 0
2, 649200, Note_on_c, 0, 98, 0
2, 649200, Note_on_c, 0, 99, 0
2, 649920, Note_on_c, 0, 61, 100
2, 649920, Note_on_c, 0, 73, 100
2, 649920, Note_on_c, 0, 86, 100
2, 649920, Note_on_c, 0, 87, 100
2, 649920, Note_on_c, 0, 98, 100
2, 649920, Note_on_c, 0, 99, 100
2, 650160, Note_on_c, 0, 61, 0
2, 650160, Note_on_c, 0, 73, 0
2, 650160, Note_on_c, 0, 86, 0
2, 650160, Note_on_c, 0, 87, 0
2, 650160, Note_on_c, 0, 98, 0
2, 650160, Note_on_c, 0, 99, 0
2, 650880, Text_t, "sing_on"
2, 650880, Note_on_c, 0, 61, 100
2, 650880, Note_on_c, 0, 73, 100
2, 650880, Note_on_c, 0, 86, 100
2, 650880, Note_on_c, 0, 87, 100
2, 650880, Note_on_c, 0, 98, 100
2, 650880, Note_on_c, 0, 99, 100
2, 650880, Note_on_c, 0, 108, 100
2, 651120, Note_on_c, 0, 61, 0
2, 651120, Note_on_c, 0, 73, 0
2, 651120, Note_on_c, 0, 86, 0
2, 651120, Note_on_c, 0, 87, 0
2, 651120, Note_on_c, 0, 98, 0
2, 651120, Note_on_c, 0, 99, 0
2, 651360, Note_on_c, 0, 108, 0
2, 651840, Note_on_c, 0, 61, 100
2, 651840, Note_on_c, 0, 73, 100
2, 651840, Note_on_c, 0, 86, 100
2, 651840, Note_on_c, 0, 87, 100
2, 651840, Note_on_c, 0, 98, 100
2, 651840, Note_on_c, 0, 99, 100
2, 651840, Note_on_c, 0, 108, 100
2, 652080, Note_on_c, 0, 61, 0
2, 652080, Note_on_c, 0, 73, 0
2, 652080, Note_on_c, 0, 86, 0
2, 652080, Note_on_c, 0, 87, 0
2, 652080, Note_on_c, 0, 98, 0
2, 652080, Note_on_c, 0, 99, 0
2, 652800, Note_on_c, 0, 61, 100
2, 652800, Note_on_c, 0, 73, 100
2, 652800, Note_on_c, 0, 86, 100
2, 652800, Note_on_c, 0, 87, 100
2, 652800, Note_on_c, 0, 98, 100
2, 652800, Note_on_c, 0, 99, 100
2, 653040, Note_on_c, 0, 61, 0
2, 653040, Note_on_c, 0, 73, 0
2, 653040, Note_on_c, 0, 86, 0
2, 653040, Note_on_c, 0, 87, 0
2, 653040, Note_on_c, 0, 98, 0
2, 653040, Note_on_c, 0, 99, 0
2, 653640, Note_on_c, 0, 108, 0
2, 653760, Note_on_c, 0, 61, 100
2, 653760, Note_on_c, 0, 73, 100
2, 653760, Note_on_c, 0, 86, 100
2, 653760, Note_on_c, 0, 87, 100
2, 653760, Note_on_c, 0, 98, 100
2, 653760, Note_on_c, 0, 99, 100
2, 653760, Note_on_c, 0, 108, 100
2, 654000, Note_on_c, 0, 61, 0
2, 654000, Note_on_c, 0, 73, 0
2, 654000, Note_on_c, 0, 86, 0
2, 654000, Note_on_c, 0, 87, 0
2, 654000, Note_on_c, 0, 98, 0
2, 654000, Note_on_c, 0, 99, 0
2, 654328, Note_on_c, 0, 86, 100
2, 654400, Note_on_c, 0, 72, 100
2, 654400, Note_on_c, 0, 97, 100
2, 654400, Note_on_c, 0, 98, 100
2, 654568, Note_on_c, 0, 86, 0
2, 654640, Note_on_c, 0, 72, 0
2, 654640, Note_on_c, 0, 97, 0
2, 654640, Note_on_c, 0, 98, 0
2, 654720, Note_on_c, 0, 61, 100
2, 654720, Note_on_c, 0, 73, 100
2, 654720, Note_on_c, 0, 86, 100
2, 654720, Note_on_c, 0, 87, 100
2, 654720, Note_on_c, 0, 98, 100
2, 654720, Note_on_c, 0, 99, 100
2, 654960, Note_on_c, 0, 61, 0
2, 654960, Note_on_c, 0, 73, 0
2, 654960, Note_on_c, 0, 86, 0
2, 654960, Note_on_c, 0, 87, 0
2, 654960, Note_on_c, 0, 98, 0
2, 654960, Note_on_c, 0, 99, 0
2, 655288, Note_on_c, 0, 86, 100
2, 655360, Note_on_c, 0, 61, 100
2, 655360, Note_on_c, 0, 72, 100
2, 655360, Note_on_c, 0, 97, 100
2, 655360, Note_on_c, 0, 98, 100
2, 655500, Note_on_c, 0, 108, 0
2, 655528, Note_on_c, 0, 86, 0
2, 655600, Note_on_c, 0, 61, 0
2, 655600, Note_on_c, 0, 72, 0
2, 655600, Note_on_c, 0, 97, 0
2, 655600, Note_on_c, 0, 98, 0
2, 655680, Note_on_c, 0, 61, 100
2, 655680, Note_on_c, 0, 73, 100
2, 655680, Note_on_c, 0, 86, 100
2, 655680, Note_on_c, 0, 87, 100
2, 655680, Note_on_c, 0, 98, 100
2, 655680, Note_on_c, 0, 99, 100
2, 655680, Note_on_c, 0, 108, 100
2, 655920, Note_on_c, 0, 61, 0
2, 655920, Note_on_c, 0, 73, 0
2, 655920, Note_on_c, 0, 86, 0
2, 655920, Note_on_c, 0, 87, 0
2, 655920, Note_on_c, 0, 98, 0
2, 655920, Note_on_c, 0, 99, 0
2, 656160, Note_on_c, 3, 47, 0
2, 656248, Note_on_c, 0, 86, 100
2, 656248, Note_on_c, 0, 87, 100
2, 656320, Note_on_c, 0, 61, 100
2, 656320, Note_on_c, 0, 73, 100
2, 656320, Note_on_c, 0, 98, 100
2, 656320, Note_on_c, 0, 99, 100
2, 656488, Note_on_c, 0, 86, 0
2, 656488, Note_on_c, 0, 87, 0
2, 656560, Note_on_c, 0, 61, 0
2, 656560, Note_on_c, 0, 73, 0
2, 656560, Note_on_c, 0, 98, 0
2, 656560, Note_on_c, 0, 99, 0
2, 656640, Text_t, "[verse]"
2, 656640, Note_on_c, 0, 60, 100
2, 656640, Note_on_c, 0, 72, 100
2, 656640, Note_on_c, 0, 84, 100
2, 656640, Note_on_c, 0, 96, 100
2, 656880, Note_on_c, 0, 60, 0
2, 656880, Note_on_c, 0, 72, 0
2, 656880, Note_on_c, 0, 84, 0
2, 656880, Note_on_c, 0, 96, 0
2, 656930, Note_on_c, 0, 69, 0
2, 656930, Note_on_c, 0, 81, 0
2, 656930, Note_on_c, 0, 93, 0
2, 656930, Note_on_c, 0, 105, 0
2, 657600, Note_on_c, 0, 62, 100
2, 657600, Note_on_c, 0, 72, 100
2, 657600, Note_on_c, 0, 74, 100
2, 657600, Note_on_c, 0, 85, 100
2, 657600, Note_on_c, 0, 87, 100
2, 657600, Note_on_c, 0, 97, 100
2, 657600, Note_on_c, 0, 99, 100
2, 657600, Note_on_c, 3, 49, 100
2, 657840, Note_on_c, 0, 62, 0
2, 657840, Note_on_c, 0, 72, 0
2, 657840, Note_on_c, 0, 74, 0
2, 657840, Note_on_c, 0, 85, 0
2, 657840, Note_on_c, 0, 87, 0
2, 657840, Note_on_c, 0, 97, 0
2, 657840, Note_on_c, 0, 99, 0
2, 658560, Text_t, "sing_off"
2, 658560, Note_on_c, 0, 108, 0
2, 658560, Note_on_c, 0, 62, 100
2, 658560, Note_on_c, 0, 74, 100
2, 658560, Note_on_c, 0, 85, 100
2, 658560, Note_on_c, 0, 87, 100
2, 658560, Note_on_c, 0, 97, 100
2, 658560, Note_on_c, 0, 99, 100
2, 658800, Note_on_c, 3, 49, 0
2, 658800, Note_on_c, 0, 62, 0
2, 658800, Note_on_c, 0, 74, 0
2, 658800, Note_on_c, 0, 85, 0
2, 658800, Note_on_c, 0, 87, 0
2, 658800, Note_on_c, 0, 97, 0
2, 658800, Note_on_c, 0, 99, 0
2, 659128, Note_on_c, 0, 86, 100
2, 659200, Note_on_c, 0, 73, 100
2, 659200, Note_on_c, 0, 98, 100
2, 659368, Note_on_c, 0, 86, 0
2, 659440, Note_on_c, 0, 73, 0
2, 659440, Note_on_c, 0, 98, 0
2, 659520, Note_on_c, 0, 60, 100
2, 659520, Note_on_c, 0, 72, 100
2, 659520, Note_on_c, 0, 85, 100
2, 659520, Note_on_c, 0, 97, 100
2, 659520, Note_on_c, 3, 47, 100
2, 659760, Note_on_c, 0, 60, 0
2, 659760, Note_on_c, 0, 72, 0
2, 659760, Note_on_c, 0, 85, 0
2, 659760, Note_on_c, 0, 97, 0
2, 660000, Note_on_c, 3, 47, 0
2, 660480, Note_on_c, 0, 62, 100
2, 660480, Note_on_c, 0, 72, 100
2, 660480, Note_on_c, 0, 74, 100
2, 660480, Note_on_c, 0, 85, 100
2, 660480, Note_on_c, 0, 87, 100
2, 660480, Note_on_c, 0, 97, 100
2, 660480, Note_on_c, 0, 99, 100
2, 660480, Note_on_c, 3, 49, 100
2, 660720, Note_on_c, 0, 62, 0
2, 660720, Note_on_c, 0, 72, 0
2, 660720, Note_on_c, 0, 74, 0
2, 660720, Note_on_c, 0, 85, 0
2, 660720, Note_on_c, 0, 87, 0
2, 660720, Note_on_c, 0, 97, 0
2, 660720, Note_on_c, 0, 99, 0
2, 661440, Note_on_c, 0, 62, 100
2, 661440, Note_on_c, 0, 74, 100
2, 661440, Note_on_c, 0, 85, 100
2, 661440, Note_on_c, 0, 87, 100
2, 661440, Note_on_c, 0, 97, 100
2, 661440, Note_on_c, 0, 99, 100
2, 661680, Note_on_c, 3, 49, 0
2, 661680, Note_on_c, 0, 62, 0
2, 661680, Note_on_c, 0, 74, 0
2, 661680, Note_on_c, 0, 85, 0
2, 661680, Note_on_c, 0, 87, 0
2, 661680, Note_on_c, 0, 97, 0
2, 661680, Note_on_c, 0, 99, 0
2, 662008, Note_on_c, 0, 86, 100
2, 662080, Note_on_c, 0, 73, 100
2, 662080, Note_on_c, 0, 98, 100
2, 662248, Note_on_c, 0, 86, 0
2, 662320, Note_on_c, 0, 73, 0
2, 662320, Note_on_c, 0, 98, 0
2, 662400, Note_on_c, 0, 60, 100
2, 662400, Note_on_c, 0, 72, 100
2, 662400, Note_on_c, 0, 85, 100
2, 662400, Note_on_c, 0, 97, 100
2, 662400, Note_on_c, 3, 47, 100
2, 662640, Note_on_c, 0, 60, 0
2, 662640, Note_on_c, 0, 72, 0
2, 662640, Note_on_c, 0, 85, 0
2, 662640, Note_on_c, 0, 97, 0
2, 662640, Note_on_c, 3, 47, 0
2, 663120, Note_on_c, 3, 53, 100
2, 663330, Note_on_c, 0, 69, 100
2, 663330, Note_on_c, 0, 81, 100
2, 663330, Note_on_c, 0, 93, 100
2, 663330, Note_on_c, 0, 105, 100
2, 663360, Note_on_c, 0, 62, 100
2, 663360, Note_on_c, 0, 73, 100
2, 663360, Note_on_c, 0, 74, 100
2, 663360, Note_on_c, 0, 86, 100
2, 663360, Note_on_c, 0, 87, 100
2, 663360, Note_on_c, 0, 99, 100
2, 663360, Note_on_c, 0, 100, 100
2, 663600, Note_on_c, 0, 62, 0
2, 664290, Note_on_c, 0, 70, 0
2, 664290, Note_on_c, 0, 82, 0
2, 664290, Note_on_c, 0, 94, 0
2, 664290, Note_on_c, 0, 106, 0
2, 664320, Note_on_c, 3, 53, 0
2, 664320, Note_on_c, 0, 73, 0
2, 664320, Note_on_c, 0, 74, 0
2, 664320, Note_on_c, 0, 86, 0
2, 664320, Note_on_c, 0, 87, 0
2, 664320, Note_on_c, 0, 99, 0
2, 664320, Note_on_c, 0, 100, 0
2, 664320, Note_on_c, 0, 60, 100
2, 664320, Note_on_c, 0, 72, 100
2, 664320, Note_on_c, 0, 84, 100
2, 664320, Note_on_c, 0, 96, 100
2, 664560, Note_on_c, 0, 60, 0
2, 664560, Note_on_c, 0, 72, 0
2, 664560, Note_on_c, 0, 84, 0
2, 664560, Note_on_c, 0, 96, 0
2, 665280, Note_on_c, 0, 62, 100
2, 665280, Note_on_c, 0, 72, 100
2, 665280, Note_on_c, 0, 74, 100
2, 665280, Note_on_c, 0, 85, 100
2, 665280, Note_on_c, 0, 87, 100
2, 665280, Note_on_c, 0, 97, 100
2, 665280, Note_on_c, 0, 99, 100
2, 665280, Note_on_c, 3, 49, 100
2, 665520, Note_on_c, 0, 62, 0
2, 665520, Note_on_c, 0, 72, 0
2, 665520, Note_on_c, 0, 74, 0
2, 665520, Note_on_c, 0, 85, 0
2, 665520, Note_on_c, 0, 87, 0
2, 665520, Note_on_c, 0, 97, 0
2, 665520, Note_on_c, 0, 99, 0
2, 666240, Note_on_c, 0, 62, 100
2, 666240, Note_on_c, 0, 74, 100
2, 666240, Note_on_c, 0, 85, 100
2, 666240, Note_on_c, 0, 87, 100
2, 666240, Note_on_c, 0, 97, 100
2, 666240, Note_on_c, 0, 99, 100
2, 666480, Note_on_c, 3, 49, 0
2, 666480, Note_on_c, 0, 62, 0
2, 666480, Note_on_c, 0, 74, 0
2, 666480, Note_on_c, 0, 85, 0
2, 666480, Note_on_c, 0, 87, 0
2, 666480, Note_on_c, 0, 97, 0
2, 666480, Note_on_c, 0, 99, 0
2, 666808, Note_on_c, 0, 86, 100
2, 666880, Note_on_c, 0, 73, 100
2, 666880, Note_on_c, 0, 98, 100
2, 667048, Note_on_c, 0, 86, 0
2, 667120, Note_on_c, 0, 73, 0
2, 667120, Note_on_c, 0, 98, 0
2, 667200, Text_t, "sing_on"
2, 667200, Note_on_c, 0, 60, 100
2, 667200, Note_on_c, 0, 72, 100
2, 667200, Note_on_c, 0, 85, 100
2, 667200, Note_on_c, 0, 97, 100
2, 667200, Note_on_c, 3, 47, 100
2, 667440, Note_on_c, 0, 60, 0
2, 667440, Note_on_c, 0, 72, 0
2, 667440, Note_on_c, 0, 85, 0
2, 667440, Note_on_c, 0, 97, 0
2, 667680, Note_on_c, 3, 47, 0
2, 668160, Note_on_c, 0, 62, 100
2, 668160, Note_on_c, 0, 72, 100
2, 668160, Note_on_c, 0, 74, 100
2, 668160, Note_on_c, 0, 85, 100
2, 668160, Note_on_c, 0, 87, 100
2, 668160, Note_on_c, 0, 97, 100
2, 668160, Note_on_c, 0, 99, 100
2, 668160, Note_on_c, 0, 108, 100
2, 668160, Note_on_c, 3, 49, 100
2, 668400, Note_on_c, 0, 62, 0
2, 668400, Note_on_c, 0, 72, 0
2, 668400, Note_on_c, 0, 74, 0
2, 668400, Note_on_c, 0, 85, 0
2, 668400, Note_on_c, 0, 87, 0
2, 668400, Note_on_c, 0, 97, 0
2, 668400, Note_on_c, 0, 99, 0
2, 668640, Note_on_c, 0, 108, 0
2, 669120, Note_on_c, 0, 62, 100
2, 669120, Note_on_c, 0, 74, 100
2, 669120, Note_on_c, 0, 85, 100
2, 669120, Note_on_c, 0, 87, 100
2, 669120, Note_on_c, 0, 97, 100
2, 669120, Note_on_c, 0, 99, 100
2, 669120, Note_on_c, 0, 108, 100
2, 669360, Note_on_c, 3, 49, 0
2, 669360, Note_on_c, 0, 62, 0
2, 669360, Note_on_c, 0, 74, 0
2, 669360, Note_on_c, 0, 85, 0
2, 669360, Note_on_c, 0, 87, 0
2, 669360, Note_on_c, 0, 97, 0
2, 669360, Note_on_c, 0, 99, 0
2, 669600, Note_on_c, 0, 108, 0
2, 669688, Note_on_c, 0, 86, 100
2, 669760, Note_on_c, 0, 73, 100
2, 669760, Note_on_c, 0, 98, 100
2, 669928, Note_on_c, 0, 86, 0
2, 670000, Note_on_c, 0, 73, 0
2, 670000, Note_on_c, 0, 98, 0
2, 670080, Note_on_c, 0, 60, 100
2, 670080, Note_on_c, 0, 72, 100
2, 670080, Note_on_c, 0, 85, 100
2, 670080, Note_on_c, 0, 97, 100
2, 670080, Note_on_c, 0, 108, 100
2, 670080, Note_on_c, 3, 47, 100
2, 670320, Note_on_c, 0, 60, 0
2, 670320, Note_on_c, 0, 72, 0
2, 670320, Note_on_c, 0, 85, 0
2, 670320, Note_on_c, 0, 97, 0
2, 670560, Note_on_c, 0, 108, 0
2, 670560, Note_on_c, 3, 47, 0
2, 670800, Note_on_c, 3, 52, 100
2, 671040, Note_on_c, 3, 52, 0
2, 671040, Note_on_c, 0, 61, 100
2, 671040, Note_on_c, 0, 73, 100
2, 671040, Note_on_c, 0, 85, 100
2, 671040, Note_on_c, 0, 97, 100
2, 671040, Note_on_c, 0, 98, 100
2, 671040, Note_on_c, 0, 108, 100
2, 671280, Note_on_c, 0, 61, 0
2, 671280, Note_on_c, 0, 73, 0
2, 671280, Note_on_c, 0, 85, 0
2, 671280, Note_on_c, 0, 97, 0
2, 671280, Note_on_c, 0, 98, 0
2, 671520, Note_on_c, 0, 108, 0
2, 671680, Note_on_c, 0, 97, 100
2, 671680, Note_on_c, 0, 98, 100
2, 671920, Note_on_c, 0, 97, 0
2, 671920, Note_on_c, 0, 98, 0
2, 671970, Note_on_c, 0, 70, 100
2, 671970, Note_on_c, 0, 82, 100
2, 671970, Note_on_c, 0, 94, 100
2, 671970, Note_on_c, 0, 106, 100
2, 672000, Text_t, "[chorus]"
2, 672000, Note_on_c, 0, 60, 100
2, 672000, Note_on_c, 0, 72, 100
2, 672000, Note_on_c, 0, 84, 100
2, 672000, Note_on_c, 0, 96, 100
2, 672000, Note_on_c, 0, 108, 100
2, 672000, Note_on_c, 3, 43, 100
2, 672240, Note_on_c, 0, 60, 0
2, 672240, Note_on_c, 0, 72, 0
2, 672240, Note_on_c, 0, 84, 0
2, 672240, Note_on_c, 0, 96, 0
2, 672720, Note_on_c, 0, 108, 0
2, 672960, Note_on_c, 0, 60, 100
2, 672960, Note_on_c, 0, 72, 100
2, 672960, Note_on_c, 0, 84, 100
2, 672960, Note_on_c, 0, 96, 100
2, 672960, Note_on_c, 0, 108, 100
2, 673200, Note_on_c, 0, 60, 0
2, 673200, Note_on_c, 0, 72, 0
2, 673200, Note_on_c, 0, 84, 0
2, 673200, Note_on_c, 0, 96, 0
2, 673920, Note_on_c, 0, 60, 100
2, 673920, Note_on_c, 0, 72, 100
2, 673920, Note_on_c, 0, 84, 100
2, 673920, Note_on_c, 0, 96, 100
2, 674160, Note_on_c, 0, 60, 0
2, 674160, Note_on_c, 0, 72, 0
2, 674160, Note_on_c, 0, 84, 0
2, 674160, Note_on_c, 0, 96, 0
2, 674880, Note_on_c, 0, 60, 100
2, 674880, Note_on_c, 0, 72, 100
2, 674880, Note_on_c, 0, 84, 100
2, 674880, Note_on_c, 0, 96, 100
2, 675120, Note_on_c, 0, 60, 0
2, 675120, Note_on_c, 0, 72, 0
2, 675120, Note_on_c, 0, 84, 0
2, 675120, Note_on_c, 0, 96, 0
2, 675448, Note_on_c, 0, 84, 100
2, 675520, Note_on_c, 0, 60, 100
2, 675520, Note_on_c, 0, 72, 100
2, 675520, Note_on_c, 0, 96, 100
2, 675688, Note_on_c, 0, 84, 0
2, 675760, Note_on_c, 0, 60, 0
2, 675760, Note_on_c, 0, 72, 0
2, 675760, Note_on_c, 0, 96, 0
2, 675840, Note_on_c, 0, 60, 100
2, 675840, Note_on_c, 0, 72, 100
2, 675840, Note_on_c, 0, 73, 100
2, 675840, Note_on_c, 0, 84, 100
2, 675840, Note_on_c, 0, 85, 100
2, 675840, Note_on_c, 0, 96, 100
2, 675840, Note_on_c, 0, 99, 100
2, 676080, Note_on_c, 0, 108, 0
2, 676080, Note_on_c, 0, 60, 0
2, 676080, Note_on_c, 0, 72, 0
2, 676080, Note_on_c, 0, 73, 0
2, 676080, Note_on_c, 0, 84, 0
2, 676080, Note_on_c, 0, 85, 0
2, 676080, Note_on_c, 0, 96, 0
2, 676080, Note_on_c, 0, 99, 0
2, 676800, Note_on_c, 0, 60, 100
2, 676800, Note_on_c, 0, 72, 100
2, 676800, Note_on_c, 0, 73, 100
2, 676800, Note_on_c, 0, 84, 100
2, 676800, Note_on_c, 0, 85, 100
2, 676800, Note_on_c, 0, 96, 100
2, 676800, Note_on_c, 0, 99, 100
2, 677040, Note_on_c, 0, 60, 0
2, 677040, Note_on_c, 0, 72, 0
2, 677040, Note_on_c, 0, 73, 0
2, 677040, Note_on_c, 0, 84, 0
2, 677040, Note_on_c, 0, 85, 0
2, 677040, Note_on_c, 0, 96, 0
2, 677040, Note_on_c, 0, 99, 0
2, 677368, Note_on_c, 0, 72, 100
2, 677368, Note_on_c, 0, 84, 100
2, 677440, Note_on_c, 0, 60, 100
2, 677440, Note_on_c, 0, 96, 100
2, 677608, Note_on_c, 0, 72, 0
2, 677608, Note_on_c, 0, 84, 0
2, 677680, Note_on_c, 0, 60, 0
2, 677680, Note_on_c, 0, 96, 0
2, 677760, Note_on_c, 0, 60, 100
2, 677760, Note_on_c, 0, 72, 100
2, 677760, Note_on_c, 0, 73, 100
2, 677760, Note_on_c, 0, 84, 100
2, 677760, Note_on_c, 0, 85, 100
2, 677760, Note_on_c, 0, 96, 100
2, 677760, Note_on_c, 0, 99, 100
2, 678000, Note_on_c, 0, 60, 0
2, 678000, Note_on_c, 0, 72, 0
2, 678000, Note_on_c, 0, 73, 0
2, 678000, Note_on_c, 0, 84, 0
2, 678000, Note_on_c, 0, 85, 0
2, 678000, Note_on_c, 0, 96, 0
2, 678000, Note_on_c, 0, 99, 0
2, 678328, Note_on_c, 0, 72, 100
2, 678328, Note_on_c, 0, 73, 100
2, 678328, Note_on_c, 0, 84, 100
2, 678328, Note_on_c, 0, 85, 100
2, 678400, Note_on_c, 0, 96, 100
2, 678400, Note_on_c, 0, 99, 100
2, 678568, Note_on_c, 0, 72, 0
2, 678568, Note_on_c, 0, 73, 0
2, 678568, Note_on_c, 0, 84, 0
2, 678568, Note_on_c, 0, 85, 0
2, 678640, Note_on_c, 0, 96, 0
2, 678640, Note_on_c, 0, 99, 0
2, 678720, Note_on_c, 0, 60, 100
2, 678720, Note_on_c, 0, 72, 100
2, 678720, Note_on_c, 0, 73, 100
2, 678720, Note_on_c, 0, 84, 100
2, 678720, Note_on_c, 0, 85, 100
2, 678720, Note_on_c, 0, 96, 100
2, 678720, Note_on_c, 0, 99, 100
2, 678960, Note_on_c, 0, 60, 0
2, 678960, Note_on_c, 0, 72, 0
2, 678960, Note_on_c, 0, 73, 0
2, 678960, Note_on_c, 0, 84, 0
2, 678960, Note_on_c, 0, 85, 0
2, 678960, Note_on_c, 0, 96, 0
2, 678960, Note_on_c, 0, 99, 0
2, 679200, Note_on_c, 3, 43, 0
2, 679288, Note_on_c, 0, 72, 100
2, 679288, Note_on_c, 0, 73, 100
2, 679288, Note_on_c, 0, 84, 100
2, 679288, Note_on_c, 0, 85, 100
2, 679360, Note_on_c, 0, 60, 100
2, 679360, Note_on_c, 0, 96, 100
2, 679360, Note_on_c, 0, 99, 100
2, 679528, Note_on_c, 0, 72, 0
2, 679528, Note_on_c, 0, 73, 0
2, 679528, Note_on_c, 0, 84, 0
2, 679528, Note_on_c, 0, 85, 0
2, 679600, Note_on_c, 0, 60, 0
2, 679600, Note_on_c, 0, 96, 0
2, 679600, Note_on_c, 0, 99, 0
2, 679680, Note_on_c, 0, 61, 100
2, 679680, Note_on_c, 0, 74, 100
2, 679680, Note_on_c, 0, 86, 100
2, 679680, Note_on_c, 0, 87, 100
2, 679680, Note_on_c, 0, 98, 100
2, 679680, Note_on_c, 0, 99, 100
2, 679680, Note_on_c, 3, 47, 100
2, 679920, Note_on_c, 0, 61, 0
2, 679920, Note_on_c, 0, 74, 0
2, 679920, Note_on_c, 0, 86, 0
2, 679920, Note_on_c, 0, 87, 0
2, 679920, Note_on_c, 0, 98, 0
2, 679920, Note_on_c, 0, 99, 0
2, 680640, Note_on_c, 0, 61, 100
2, 680640, Note_on_c, 0, 74, 100
2, 680640, Note_on_c, 0, 86, 100
2, 680640, Note_on_c, 0, 87, 100
2, 680640, Note_on_c, 0, 98, 100
2, 680640, Note_on_c, 0, 99, 100
2, 680880, Note_on_c, 0, 61, 0
2, 680880, Note_on_c, 0, 74, 0
2, 680880, Note_on_c, 0, 86, 0
2, 680880, Note_on_c, 0, 87, 0
2, 680880, Note_on_c, 0, 98, 0
2, 680880, Note_on_c, 0, 99, 0
2, 681600, Note_on_c, 0, 61, 100
2, 681600, Note_on_c, 0, 74, 100
2, 681600, Note_on_c, 0, 86, 100
2, 681600, Note_on_c, 0, 87, 100
2, 681600, Note_on_c, 0, 98, 100
2, 681600, Note_on_c, 0, 99, 100
2, 681840, Note_on_c, 0, 61, 0
2, 681840, Note_on_c, 0, 74, 0
2, 681840, Note_on_c, 0, 86, 0
2, 681840, Note_on_c, 0, 87, 0
2, 681840, Note_on_c, 0, 98, 0
2, 681840, Note_on_c, 0, 99, 0
2, 682240, Note_on_c, 0, 108, 100
2, 682560, Note_on_c, 0, 61, 100
2, 682560, Note_on_c, 0, 74, 100
2, 682560, Note_on_c, 0, 86, 100
2, 682560, Note_on_c, 0, 87, 100
2, 682560, Note_on_c, 0, 98, 100
2, 682560, Note_on_c, 0, 99, 100
2, 682800, Note_on_c, 0, 61, 0
2, 682800, Note_on_c, 0, 74, 0
2, 682800, Note_on_c, 0, 86, 0
2, 682800, Note_on_c, 0, 87, 0
2, 682800, Note_on_c, 0, 98, 0
2, 682800, Note_on_c, 0, 99, 0
2, 683520, Note_on_c, 0, 61, 100
2, 683520, Note_on_c, 0, 74, 100
2, 683520, Note_on_c, 0, 86, 100
2, 683520, Note_on_c, 0, 87, 100
2, 683520, Note_on_c, 0, 98, 100
2, 683520, Note_on_c, 0, 99, 100
2, 683760, Note_on_c, 0, 61, 0
2, 683760, Note_on_c, 0, 74, 0
2, 683760, Note_on_c, 0, 86, 0
2, 683760, Note_on_c, 0, 87, 0
2, 683760, Note_on_c, 0, 98, 0
2, 683760, Note_on_c, 0, 99, 0
2, 684280, Note_on_c, 0, 108, 0
2, 684480, Note_on_c, 0, 61, 100
2, 684480, Note_on_c, 0, 74, 100
2, 684480, Note_on_c, 0, 86, 100
2, 684480, Note_on_c, 0, 87, 100
2, 684480, Note_on_c, 0, 98, 100
2, 684480, Note_on_c, 0, 99, 100
2, 684480, Note_on_c, 0, 108, 100
2, 684720, Note_on_c, 0, 61, 0
2, 684720, Note_on_c, 0, 74, 0
2, 684720, Note_on_c, 0, 86, 0
2, 684720, Note_on_c, 0, 87, 0
2, 684720, Note_on_c, 0, 98, 0
2, 684720, Note_on_c, 0, 99, 0
2, 685048, Note_on_c, 0, 86, 100
2, 685120, Note_on_c, 0, 61, 100
2, 685120, Note_on_c, 0, 73, 100
2, 685120, Note_on_c, 0, 97, 100
2, 685120, Note_on_c, 0, 98, 100
2, 685288, Note_on_c, 0, 86, 0
2, 685360, Note_on_c, 0, 61, 0
2, 685360, Note_on_c, 0, 73, 0
2, 685360, Note_on_c, 0, 97, 0
2, 685360, Note_on_c, 0, 98, 0
2, 685440, Note_on_c, 0, 61, 100
2, 685440, Note_on_c, 0, 74, 100
2, 685440, Note_on_c, 0, 86, 100
2, 685440, Note_on_c, 0, 87, 100
2, 685440, Note_on_c, 0, 98, 100
2, 685440, Note_on_c, 0, 99, 100
2, 685680, Note_on_c, 0, 61, 0
2, 685680, Note_on_c, 0, 74, 0
2, 685680, Note_on_c, 0, 86, 0
2, 685680, Note_on_c, 0, 87, 0
2, 685680, Note_on_c, 0, 98, 0
2, 685680, Note_on_c, 0, 99, 0
2, 686008, Note_on_c, 0, 86, 100
2, 686080, Note_on_c, 0, 61, 100
2, 686080, Note_on_c, 0, 73, 100
2, 686080, Note_on_c, 0, 97, 100
2, 686080, Note_on_c, 0, 98, 100
2, 686248, Note_on_c, 0, 86, 0
2, 686280, Note_on_c, 0, 108, 0
2, 686320, Note_on_c, 0, 61, 0
2, 686320, Note_on_c, 0, 73, 0
2, 686320, Note_on_c, 0, 97, 0
2, 686320, Note_on_c, 0, 98, 0
2, 686400, Note_on_c, 0, 61, 100
2, 686400, Note_on_c, 0, 74, 100
2, 686400, Note_on_c, 0, 86, 100
2, 686400, Note_on_c, 0, 87, 100
2, 686400, Note_on_c, 0, 98, 100
2, 686400, Note_on_c, 0, 99, 100
2, 686400, Note_on_c, 0, 108, 100
2, 686640, Note_on_c, 0, 61, 0
2, 686640, Note_on_c, 0, 74, 0
2, 686640, Note_on_c, 0, 86, 0
2, 686640, Note_on_c, 0, 87, 0
2, 686640, Note_on_c, 0, 98, 0
2, 686640, Note_on_c, 0, 99, 0
2, 687120, Note_on_c, 3, 47, 0
2, 687330, Note_on_c, 0, 69, 0
2, 687330, Note_on_c, 0, 81, 0
2, 687330, Note_on_c, 0, 93, 0
2, 687330, Note_on_c, 0, 105, 0
2, 687360, Text_t, "[verse]"
2, 687360, Note_on_c, 0, 61, 100
2, 687360, Note_on_c, 0, 62, 100
2, 687360, Note_on_c, 0, 74, 100
2, 687360, Note_on_c, 0, 75, 100
2, 687360, Note_on_c, 0, 86, 100
2, 687360, Note_on_c, 0, 88, 100
2, 687360, Note_on_c, 0, 98, 100
2, 687360, Note_on_c, 0, 100, 100
2, 687360, Note_on_c, 3, 49, 100
2, 687600, Note_on_c, 0, 61, 0
2, 687600, Note_on_c, 0, 62, 0
2, 687600, Note_on_c, 0, 74, 0
2, 687600, Note_on_c, 0, 75, 0
2, 687600, Note_on_c, 0, 86, 0
2, 687600, Note_on_c, 0, 88, 0
2, 687600, Note_on_c, 0, 98, 0
2, 687600, Note_on_c, 0, 100, 0
2, 688560, Note_on_c, 3, 49, 0
2, 688770, Note_on_c, 0, 70, 0
2, 688770, Note_on_c, 0, 82, 0
2, 688770, Note_on_c, 0, 94, 0
2, 688770, Note_on_c, 0, 106, 0
2, 688770, Note_on_c, 0, 69, 100
2, 688770, Note_on_c, 0, 81, 100
2, 688770, Note_on_c, 0, 93, 100
2, 688770, Note_on_c, 0, 105, 100
2, 688800, Note_on_c, 0, 108, 0
2, 689280, Text_t, "sing_off"
2, 689280, Note_on_c, 0, 61, 100
2, 689280, Note_on_c, 0, 62, 100
2, 689280, Note_on_c, 0, 74, 100
2, 689280, Note_on_c, 0, 75, 100
2, 689280, Note_on_c, 0, 86, 100
2, 689280, Note_on_c, 0, 88, 100
2, 689280, Note_on_c, 0, 98, 100
2, 689280, Note_on_c, 0, 100, 100
2, 689280, Note_on_c, 3, 49, 100
2, 689520, Note_on_c, 0, 61, 0
2, 689520, Note_on_c, 0, 62, 0
2, 689520, Note_on_c, 0, 74, 0
2, 689520, Note_on_c, 0, 75, 0
2, 689520, Note_on_c, 0, 86, 0
2, 689520, Note_on_c, 0, 88, 0
2, 689520, Note_on_c, 0, 98, 0
2, 689520, Note_on_c, 0, 100, 0
2, 690480, Note_on_c, 3, 49, 0
2, 690690, Note_on_c, 0, 69, 0
2, 690690, Note_on_c, 0, 81, 0
2, 690690, Note_on_c, 0, 93, 0
2, 690690, Note_on_c, 0, 105, 0
2, 690690, Note_on_c, 0, 70, 100
2, 690690, Note_on_c, 0, 82, 100
2, 690690, Note_on_c, 0, 94, 100
2, 690690, Note_on_c, 0, 106, 100
2, 691200, Note_on_c, 0, 61, 100
2, 691200, Note_on_c, 0, 62, 100
2, 691200, Note_on_c, 0, 74, 100
2, 691200, Note_on_c, 0, 75, 100
2, 691200, Note_on_c, 0, 86, 100
2, 691200, Note_on_c, 0, 88, 100
2, 691200, Note_on_c, 0, 98, 100
2, 691200, Note_on_c, 0, 100, 100
2, 691200, Note_on_c, 3, 49, 100
2, 691440, Note_on_c, 0, 61, 0
2, 691440, Note_on_c, 0, 62, 0
2, 691440, Note_on_c, 0, 74, 0
2, 691440, Note_on_c, 0, 75, 0
2, 691440, Note_on_c, 0, 86, 0
2, 691440, Note_on_c, 0, 88, 0
2, 691440, Note_on_c, 0, 98, 0
2, 691440, Note_on_c, 0, 100, 0
2, 692400, Note_on_c, 3, 49, 0
2, 692610, Note_on_c, 0, 70, 0
2, 692610, Note_on_c, 0, 82, 0
2, 692610, Note_on_c, 0, 94, 0
2, 692610, Note_on_c, 0, 106, 0
2, 692610, Note_on_c, 0, 69, 100
2, 692610, Note_on_c, 0, 81, 100
2, 692610, Note_on_c, 0, 93, 100
2, 692610, Note_on_c, 0, 105, 100
2, 693120, Note_on_c, 0, 61, 100
2, 693120, Note_on_c, 0, 62, 100
2, 693120, Note_on_c, 0, 74, 100
2, 693120, Note_on_c, 0, 75, 100
2, 693120, Note_on_c, 0, 86, 100
2, 693120, Note_on_c, 0, 88, 100
2, 693120, Note_on_c, 0, 98, 100
2, 693120, Note_on_c, 0, 100, 100
2, 693120, Note_on_c, 3, 49, 100
2, 693360, Note_on_c, 0, 61, 0
2, 693360, Note_on_c, 0, 62, 0
2, 693360, Note_on_c, 0, 74, 0
2, 693360, Note_on_c, 0, 75, 0
2, 693360, Note_on_c, 0, 86, 0
2, 693360, Note_on_c, 0, 88, 0
2, 693360, Note_on_c, 0, 98, 0
2, 693360, Note_on_c, 0, 100, 0
2, 694320, Note_on_c, 3, 49, 0
2, 694530, Note_on_c, 0, 70, 100
2, 694530, Note_on_c, 0, 82, 100
2, 694530, Note_on_c, 0, 94, 100
2, 694530, Note_on_c, 0, 106, 100
2, 695040, Note_on_c, 0, 61, 100
2, 695040, Note_on_c, 0, 62, 100
2, 695040, Note_on_c, 0, 74, 100
2, 695040, Note_on_c, 0, 75, 100
2, 695040, Note_on_c, 0, 86, 100
2, 695040, Note_on_c, 0, 88, 100
2, 695040, Note_on_c, 0, 98, 100
2, 695040, Note_on_c, 0, 100, 100
2, 695040, Note_on_c, 3, 49, 100
2, 695280, Note_on_c, 0, 61, 0
2, 695280, Note_on_c, 0, 62, 0
2, 695280, Note_on_c, 0, 74, 0
2, 695280, Note_on_c, 0, 75, 0
2, 695280, Note_on_c, 0, 86, 0
2, 695280, Note_on_c, 0, 88, 0
2, 695280, Note_on_c, 0, 98, 0
2, 695280, Note_on_c, 0, 100, 0
2, 695970, Note_on_c, 0, 69, 0
2, 695970, Note_on_c, 0, 81, 0
2, 695970, Note_on_c, 0, 93, 0
2, 695970, Note_on_c, 0, 105, 0
2, 695970, Note_on_c, 0, 70, 0
2, 695970, Note_on_c, 0, 82, 0
2, 695970, Note_on_c, 0, 94, 0
2, 695970, Note_on_c, 0, 106, 0
2, 696000, Text_t, "[idle]"
2, 696000, Text_t, "bass_off"
2, 696000, Text_t, "drum_off"
2, 696240, Note_on_c, 3, 49, 0
2, 696240, End_track
3, 0, Start_track
3, 0, Title_t, "PART BASS"
3, 7680, Note_on_c, 1, 62, 96
3, 7680, Note_on_c, 1, 74, 96
3, 7680, Note_on_c, 1, 86, 96
3, 7680, Note_on_c, 1, 98, 96
3, 7800, Note_off_c, 1, 62, 0
3, 7800, Note_off_c, 1, 74, 0
3, 7800, Note_off_c, 1, 86, 0
3, 7800, Note_off_c, 1, 98, 0
3, 9600, Note_on_c, 1, 62, 96
3, 9600, Note_on_c, 1, 74, 96
3, 9600, Note_on_c, 1, 86, 96
3, 9600, Note_on_c, 1, 98, 96
3, 9720, Note_off_c, 1, 62, 0
3, 9720, Note_off_c, 1, 74, 0
3, 9720, Note_off_c, 1, 86, 0
3, 9720, Note_off_c, 1, 98, 0
3, 11520, Note_on_c, 1, 62, 96
3, 11520, Note_on_c, 1, 74, 96
3, 11520, Note_on_c, 1, 86, 96
3, 11520, Note_on_c, 1, 98, 96
3, 11640, Note_off_c, 1, 62, 0
3, 11640, Note_off_c, 1, 74, 0
3, 11640, Note_off_c, 1, 86, 0
3, 11640, Note_off_c, 1, 98, 0
3, 13440, Note_on_c, 1, 62, 96
3, 13440, Note_on_c, 1, 74, 96
3, 13440, Note_on_c, 1, 86, 96
3, 13440, Note_on_c, 1, 98, 96
3, 13560, Note_off_c, 1, 62, 0
3, 13560, Note_off_c, 1, 74, 0
3, 13560, Note_off_c, 1, 86, 0
3, 13560, Note_off_c, 1, 98, 0
3, 14400, Note_on_c, 1, 74, 96
3, 14400, Note_on_c, 1, 86, 96
3, 14400, Note_on_c, 1, 98, 96
3, 14640, Note_off_c, 1, 74, 0
3, 14640, Note_off_c, 1, 86, 0
3, 15120, Note_off_c, 1, 98, 0
3, 15360, Note_on_c, 1, 60, 96
3, 15360, Note_on_c, 1, 72, 96
3, 15360, Note_on_c, 1, 84, 96
3, 15360, Note_on_c, 1, 96, 96
3, 15480, Note_off_c, 1, 60, 0
3, 15480, Note_off_c, 1, 72, 0
3, 15480, Note_off_c, 1, 84, 0
3, 15480, Note_off_c, 1, 96, 0
3, 16320, Note_on_c, 1, 74, 96
3, 16320, Note_on_c, 1, 86, 96
3, 16320, Note_on_c, 1, 98, 96
3, 16440, Note_off_c, 1, 74, 0
3, 16440, Note_off_c, 1, 86, 0
3, 16440, Note_off_c, 1, 98, 0
3, 17280, Note_on_c, 1, 60, 96
3, 17280, Note_on_c, 1, 72, 96
3, 17280, Note_on_c, 1, 84, 96
3, 17280, Note_on_c, 1, 96, 96
3, 17400, Note_off_c, 1, 60, 0
3, 17400, Note_off_c, 1, 72, 0
3, 17400, Note_off_c, 1, 84, 0
3, 17400, Note_off_c, 1, 96, 0
3, 18240, Note_on_c, 1, 74, 96
3, 18240, Note_on_c, 1, 86, 96
3, 18240, Note_on_c, 1, 98, 96
3, 18360, Note_off_c, 1, 74, 0
3, 18360, Note_off_c, 1, 86, 0
3, 18360, Note_off_c, 1, 98, 0
3, 19200, Note_on_c, 1, 60, 96
3, 19200, Note_on_c, 1, 72, 96
3, 19200, Note_on_c, 1, 84, 96
3, 19200, Note_on_c, 1, 96, 96
3, 19320, Note_off_c, 1, 60, 0
3, 19320, Note_off_c, 1, 72, 0
3, 19320, Note_off_c, 1, 84, 0
3, 19320, Note_off_c, 1, 96, 0
3, 20160, Note_on_c, 1, 74, 96
3, 20160, Note_on_c, 1, 86, 96
3, 20160, Note_on_c, 1, 98, 96
3, 20280, Note_off_c, 1, 74, 0
3, 20280, Note_off_c, 1, 86, 0
3, 20280, Note_off_c, 1, 98, 0
3, 21120, Note_on_c, 1, 60, 96
3, 21120, Note_on_c, 1, 72, 96
3, 21120, Note_on_c, 1, 84, 96
3, 21120, Note_on_c, 1, 96, 96
3, 21240, Note_off_c, 1, 60, 0
3, 21240, Note_off_c, 1, 72, 0
3, 21240, Note_off_c, 1, 84, 0
3, 21240, Note_off_c, 1, 96, 0
3, 22080, Note_on_c, 1, 74, 96
3, 22080, Note_on_c, 1, 86, 96
3, 22080, Note_on_c, 1, 98, 96
3, 22320, Note_off_c, 1, 74, 0
3, 22320, Note_off_c, 1, 86, 0
3, 22800, Note_off_c, 1, 98, 0
3, 23040, Note_on_c, 1, 60, 96
3, 23040, Note_on_c, 1, 72, 96
3, 23040, Note_on_c, 1, 84, 96
3, 23040, Note_on_c, 1, 96, 96
3, 23160, Note_off_c, 1, 60, 0
3, 23160, Note_off_c, 1, 72, 0
3, 23160, Note_off_c, 1, 84, 0
3, 23160, Note_off_c, 1, 96, 0
3, 24000, Note_on_c, 1, 74, 96
3, 24000, Note_on_c, 1, 86, 96
3, 24000, Note_on_c, 1, 98, 96
3, 24120, Note_off_c, 1, 74, 0
3, 24120, Note_off_c, 1, 86, 0
3, 24120, Note_off_c, 1, 98, 0
3, 24960, Note_on_c, 1, 60, 96
3, 24960, Note_on_c, 1, 72, 96
3, 24960, Note_on_c, 1, 84, 96
3, 24960, Note_on_c, 1, 96, 96
3, 25080, Note_off_c, 1, 60, 0
3, 25080, Note_off_c, 1, 72, 0
3, 25080, Note_off_c, 1, 84, 0
3, 25080, Note_off_c, 1, 96, 0
3, 25920, Note_on_c, 1, 74, 96
3, 25920, Note_on_c, 1, 86, 96
3, 25920, Note_on_c, 1, 98, 96
3, 26040, Note_off_c, 1, 74, 0
3, 26040, Note_off_c, 1, 86, 0
3, 26040, Note_off_c, 1, 98, 0
3, 26880, Note_on_c, 1, 60, 96
3, 26880, Note_on_c, 1, 72, 96
3, 26880, Note_on_c, 1, 84, 96
3, 26880, Note_on_c, 1, 96, 96
3, 27000, Note_off_c, 1, 60, 0
3, 27000, Note_off_c, 1, 72, 0
3, 27000, Note_off_c, 1, 84, 0
3, 27000, Note_off_c, 1, 96, 0
3, 27840, Note_on_c, 1, 74, 96
3, 27840, Note_on_c, 1, 86, 96
3, 27840, Note_on_c, 1, 98, 96
3, 27960, Note_off_c, 1, 74, 0
3, 27960, Note_off_c, 1, 86, 0
3, 27960, Note_off_c, 1, 98, 0
3, 28800, Note_on_c, 1, 60, 96
3, 28800, Note_on_c, 1, 72, 96
3, 28800, Note_on_c, 1, 84, 96
3, 28800, Note_on_c, 1, 96, 96
3, 28920, Note_off_c, 1, 60, 0
3, 28920, Note_off_c, 1, 72, 0
3, 28920, Note_off_c, 1, 84, 0
3, 28920, Note_off_c, 1, 96, 0
3, 29760, Note_on_c, 1, 74, 96
3, 29760, Note_on_c, 1, 86, 96
3, 29760, Note_on_c, 1, 98, 96
3, 30000, Note_off_c, 1, 74, 0
3, 30000, Note_off_c, 1, 86, 0
3, 30480, Note_off_c, 1, 98, 0
3, 30720, Note_on_c, 1, 60, 96
3, 30720, Note_on_c, 1, 72, 96
3, 30720, Note_on_c, 1, 84, 96
3, 30720, Note_on_c, 1, 96, 96
3, 30840, Note_off_c, 1, 60, 0
3, 30840, Note_off_c, 1, 72, 0
3, 30840, Note_off_c, 1, 84, 0
3, 30840, Note_off_c, 1, 96, 0
3, 31680, Note_on_c, 1, 74, 96
3, 31680, Note_on_c, 1, 86, 96
3, 31680, Note_on_c, 1, 98, 96
3, 31800, Note_off_c, 1, 74, 0
3, 31800, Note_off_c, 1, 86, 0
3, 31800, Note_off_c, 1, 98, 0
3, 32640, Note_on_c, 1, 60, 96
3, 32640, Note_on_c, 1, 72, 96
3, 32640, Note_on_c, 1, 84, 96
3, 32640, Note_on_c, 1, 96, 96
3, 32760, Note_off_c, 1, 60, 0
3, 32760, Note_off_c, 1, 72, 0
3, 32760, Note_off_c, 1, 84, 0
3, 32760, Note_off_c, 1, 96, 0
3, 33600, Note_on_c, 1, 74, 96
3, 33600, Note_on_c, 1, 86, 96
3, 33600, Note_on_c, 1, 98, 96
3, 33720, Note_off_c, 1, 74, 0
3, 33720, Note_off_c, 1, 86, 0
3, 33720, Note_off_c, 1, 98, 0
3, 34560, Note_on_c, 1, 60, 96
3, 34560, Note_on_c, 1, 72, 96
3, 34560, Note_on_c, 1, 84, 96
3, 34560, Note_on_c, 1, 96, 96
3, 34680, Note_off_c, 1, 60, 0
3, 34680, Note_off_c, 1, 72, 0
3, 34680, Note_off_c, 1, 84, 0
3, 34680, Note_off_c, 1, 96, 0
3, 35520, Note_on_c, 1, 74, 96
3, 35520, Note_on_c, 1, 86, 96
3, 35520, Note_on_c, 1, 98, 96
3, 35640, Note_off_c, 1, 74, 0
3, 35640, Note_off_c, 1, 86, 0
3, 35640, Note_off_c, 1, 98, 0
3, 36480, Note_on_c, 1, 60, 96
3, 36480, Note_on_c, 1, 72, 96
3, 36480, Note_on_c, 1, 84, 96
3, 36480, Note_on_c, 1, 96, 96
3, 36600, Note_off_c, 1, 60, 0
3, 36600, Note_off_c, 1, 72, 0
3, 36600, Note_off_c, 1, 84, 0
3, 36600, Note_off_c, 1, 96, 0
3, 37440, Note_on_c, 1, 74, 96
3, 37440, Note_on_c, 1, 86, 96
3, 37440, Note_on_c, 1, 98, 96
3, 37680, Note_off_c, 1, 74, 0
3, 37680, Note_off_c, 1, 86, 0
3, 38160, Note_off_c, 1, 98, 0
3, 38400, Note_on_c, 1, 60, 96
3, 38400, Note_on_c, 1, 72, 96
3, 38400, Note_on_c, 1, 84, 96
3, 38400, Note_on_c, 1, 96, 96
3, 38520, Note_off_c, 1, 60, 0
3, 38520, Note_off_c, 1, 72, 0
3, 38520, Note_off_c, 1, 84, 0
3, 38520, Note_off_c, 1, 96, 0
3, 39360, Note_on_c, 1, 74, 96
3, 39360, Note_on_c, 1, 86, 96
3, 39360, Note_on_c, 1, 98, 96
3, 39480, Note_off_c, 1, 74, 0
3, 39480, Note_off_c, 1, 86, 0
3, 39480, Note_off_c, 1, 98, 0
3, 40320, Note_on_c, 1, 60, 96
3, 40320, Note_on_c, 1, 72, 96
3, 40320, Note_on_c, 1, 84, 96
3, 40320, Note_on_c, 1, 96, 96
3, 40440, Note_off_c, 1, 60, 0
3, 40440, Note_off_c, 1, 72, 0
3, 40440, Note_off_c, 1, 84, 0
3, 40440, Note_off_c, 1, 96, 0
3, 41280, Note_on_c, 1, 74, 96
3, 41280, Note_on_c, 1, 86, 96
3, 41280, Note_on_c, 1, 98, 96
3, 41400, Note_off_c, 1, 74, 0
3, 41400, Note_off_c, 1, 86, 0
3, 41400, Note_off_c, 1, 98, 0
3, 42240, Note_on_c, 1, 60, 96
3, 42240, Note_on_c, 1, 72, 96
3, 42240, Note_on_c, 1, 85, 96
3, 42240, Note_on_c, 1, 97, 96
3, 42360, Note_off_c, 1, 60, 0
3, 42360, Note_off_c, 1, 72, 0
3, 42360, Note_off_c, 1, 85, 0
3, 42360, Note_off_c, 1, 97, 0
3, 43200, Note_on_c, 1, 73, 96
3, 43200, Note_on_c, 1, 86, 96
3, 43200, Note_on_c, 1, 98, 96
3, 43320, Note_off_c, 1, 73, 0
3, 43320, Note_off_c, 1, 86, 0
3, 43320, Note_off_c, 1, 98, 0
3, 44160, Note_on_c, 1, 62, 96
3, 44160, Note_on_c, 1, 74, 96
3, 44160, Note_on_c, 1, 87, 96
3, 44160, Note_on_c, 1, 99, 96
3, 44280, Note_off_c, 1, 62, 0
3, 44280, Note_off_c, 1, 74, 0
3, 44280, Note_off_c, 1, 87, 0
3, 44280, Note_off_c, 1, 99, 0
3, 45120, Note_on_c, 1, 75, 96
3, 45120, Note_on_c, 1, 88, 96
3, 45120, Note_on_c, 1, 100, 96
3, 45240, Note_off_c, 1, 75, 0
3, 45240, Note_off_c, 1, 88, 0
3, 45240, Note_off_c, 1, 100, 0
3, 45760, Note_on_c, 1, 100, 96
3, 45880, Note_off_c, 1, 100, 0
3, 46080, Note_on_c, 1, 60, 96
3, 46080, Note_on_c, 1, 72, 96
3, 46080, Note_on_c, 1, 84, 96
3, 46080, Note_on_c, 1, 96, 96
3, 46200, Note_off_c, 1, 60, 0
3, 46200, Note_off_c, 1, 72, 0
3, 46200, Note_off_c, 1, 84, 0
3, 46200, Note_off_c, 1, 96, 0
3, 47040, Note_on_c, 1, 74, 96
3, 47040, Note_on_c, 1, 86, 96
3, 47040, Note_on_c, 1, 98, 96
3, 47160, Note_off_c, 1, 74, 0
3, 47160, Note_off_c, 1, 86, 0
3, 47160, Note_off_c, 1, 98, 0
3, 48000, Note_on_c, 1, 60, 96
3, 48000, Note_on_c, 1, 72, 96
3, 48000, Note_on_c, 1, 84, 96
3, 48000, Note_on_c, 1, 96, 96
3, 48120, Note_off_c, 1, 60, 0
3, 48120, Note_off_c, 1, 72, 0
3, 48120, Note_off_c, 1, 84, 0
3, 48120, Note_off_c, 1, 96, 0
3, 48960, Note_on_c, 1, 74, 96
3, 48960, Note_on_c, 1, 86, 96
3, 48960, Note_on_c, 1, 98, 96
3, 49080, Note_off_c, 1, 74, 0
3, 49080, Note_off_c, 1, 86, 0
3, 49080, Note_off_c, 1, 98, 0
3, 49920, Note_on_c, 1, 60, 96
3, 49920, Note_on_c, 1, 72, 96
3, 49920, Note_on_c, 1, 84, 96
3, 49920, Note_on_c, 1, 96, 96
3, 50040, Note_off_c, 1, 60, 0
3, 50040, Note_off_c, 1, 72, 0
3, 50040, Note_off_c, 1, 84, 0
3, 50040, Note_off_c, 1, 96, 0
3, 50880, Note_on_c, 1, 74, 96
3, 50880, Note_on_c, 1, 86, 96
3, 50880, Note_on_c, 1, 98, 96
3, 51000, Note_off_c, 1, 74, 0
3, 51000, Note_off_c, 1, 86, 0
3, 51000, Note_off_c, 1, 98, 0
3, 51840, Note_on_c, 1, 60, 96
3, 51840, Note_on_c, 1, 72, 96
3, 51840, Note_on_c, 1, 84, 96
3, 51840, Note_on_c, 1, 96, 96
3, 51960, Note_off_c, 1, 60, 0
3, 51960, Note_off_c, 1, 72, 0
3, 51960, Note_off_c, 1, 84, 0
3, 51960, Note_off_c, 1, 96, 0
3, 52320, Note_on_c, 1, 86, 96
3, 52320, Note_on_c, 1, 98, 96
3, 52440, Note_off_c, 1, 86, 0
3, 52440, Note_off_c, 1, 98, 0
3, 52800, Note_on_c, 1, 75, 96
3, 52800, Note_on_c, 1, 87, 96
3, 52800, Note_on_c, 1, 99, 96
3, 52920, Note_off_c, 1, 75, 0
3, 52920, Note_off_c, 1, 87, 0
3, 52920, Note_off_c, 1, 99, 0
3, 53120, Note_on_c, 1, 100, 96
3, 53240, Note_off_c, 1, 100, 0
3, 53440, Note_on_c, 1, 99, 96
3, 53560, Note_off_c, 1, 99, 0
3, 53760, Note_on_c, 1, 60, 96
3, 53760, Note_on_c, 1, 72, 96
3, 53760, Note_on_c, 1, 84, 96
3, 53760, Note_on_c, 1, 96, 96
3, 53880, Note_off_c, 1, 60, 0
3, 53880, Note_off_c, 1, 72, 0
3, 53880, Note_off_c, 1, 84, 0
3, 53880, Note_off_c, 1, 96, 0
3, 54720, Note_on_c, 1, 74, 96
3, 54720, Note_on_c, 1, 86, 96
3, 54720, Note_on_c, 1, 98, 96
3, 54840, Note_off_c, 1, 74, 0
3, 54840, Note_off_c, 1, 86, 0
3, 54840, Note_off_c, 1, 98, 0
3, 55680, Note_on_c, 1, 60, 96
3, 55680, Note_on_c, 1, 72, 96
3, 55680, Note_on_c, 1, 84, 96
3, 55680, Note_on_c, 1, 96, 96
3, 55800, Note_off_c, 1, 60, 0
3, 55800, Note_off_c, 1, 72, 0
3, 55800, Note_off_c, 1, 84, 0
3, 55800, Note_off_c, 1, 96, 0
3, 56640, Note_on_c, 1, 74, 96
3, 56640, Note_on_c, 1, 86, 96
3, 56640, Note_on_c, 1, 98, 96
3, 56760, Note_off_c, 1, 74, 0
3, 56760, Note_off_c, 1, 86, 0
3, 56760, Note_off_c, 1, 98, 0
3, 57600, Note_on_c, 1, 60, 96
3, 57600, Note_on_c, 1, 67, 96
3, 57600, Note_on_c, 1, 72, 96
3, 57600, Note_on_c, 1, 79, 96
3, 57600, Note_on_c, 1, 84, 96
3, 57600, Note_on_c, 1, 91, 96
3, 57600, Note_on_c, 1, 96, 96
3, 57600, Note_on_c, 1, 103, 96
3, 57720, Note_off_c, 1, 60, 0
3, 57720, Note_off_c, 1, 72, 0
3, 57720, Note_off_c, 1, 84, 0
3, 57720, Note_off_c, 1, 96, 0
3, 58560, Note_on_c, 1, 74, 96
3, 58560, Note_on_c, 1, 86, 96
3, 58560, Note_on_c, 1, 98, 96
3, 58680, Note_off_c, 1, 74, 0
3, 58680, Note_off_c, 1, 86, 0
3, 58680, Note_off_c, 1, 98, 0
3, 59520, Note_on_c, 1, 60, 96
3, 59520, Note_on_c, 1, 72, 96
3, 59520, Note_on_c, 1, 84, 96
3, 59520, Note_on_c, 1, 96, 96
3, 59640, Note_off_c, 1, 60, 0
3, 59640, Note_off_c, 1, 72, 0
3, 59640, Note_off_c, 1, 84, 0
3, 59640, Note_off_c, 1, 96, 0
3, 60000, Note_on_c, 1, 86, 96
3, 60000, Note_on_c, 1, 98, 96
3, 60120, Note_off_c, 1, 86, 0
3, 60120, Note_off_c, 1, 98, 0
3, 60480, Note_on_c, 1, 75, 96
3, 60480, Note_on_c, 1, 87, 96
3, 60480, Note_on_c, 1, 99, 96
3, 60600, Note_off_c, 1, 75, 0
3, 60600, Note_off_c, 1, 87, 0
3, 60600, Note_off_c, 1, 99, 0
3, 60800, Note_on_c, 1, 100, 96
3, 60920, Note_off_c, 1, 100, 0
3, 61120, Note_on_c, 1, 99, 96
3, 61240, Note_off_c, 1, 99, 0
3, 61440, Note_off_c, 1, 67, 0
3, 61440, Note_off_c, 1, 79, 0
3, 61440, Note_off_c, 1, 91, 0
3, 61440, Note_off_c, 1, 103, 0
3, 61440, Note_on_c, 1, 60, 96
3, 61440, Note_on_c, 1, 72, 96
3, 61440, Note_on_c, 1, 84, 96
3, 61440, Note_on_c, 1, 96, 96
3, 61560, Note_off_c, 1, 60, 0
3, 61560, Note_off_c, 1, 72, 0
3, 61560, Note_off_c, 1, 84, 0
3, 61560, Note_off_c, 1, 96, 0
3, 62400, Note_on_c, 1, 74, 96
3, 62400, Note_on_c, 1, 86, 96
3, 62400, Note_on_c, 1, 98, 96
3, 62520, Note_off_c, 1, 74, 0
3, 62520, Note_off_c, 1, 86, 0
3, 62520, Note_off_c, 1, 98, 0
3, 63360, Note_on_c, 1, 60, 96
3, 63360, Note_on_c, 1, 72, 96
3, 63360, Note_on_c, 1, 84, 96
3, 63360, Note_on_c, 1, 96, 96
3, 63480, Note_off_c, 1, 60, 0
3, 63480, Note_off_c, 1, 72, 0
3, 63480, Note_off_c, 1, 84, 0
3, 63480, Note_off_c, 1, 96, 0
3, 64320, Note_on_c, 1, 74, 96
3, 64320, Note_on_c, 1, 86, 96
3, 64320, Note_on_c, 1, 98, 96
3, 64440, Note_off_c, 1, 74, 0
3, 64440, Note_off_c, 1, 86, 0
3, 64440, Note_off_c, 1, 98, 0
3, 65280, Note_on_c, 1, 60, 96
3, 65280, Note_on_c, 1, 72, 96
3, 65280, Note_on_c, 1, 84, 96
3, 65280, Note_on_c, 1, 96, 96
3, 65400, Note_off_c, 1, 60, 0
3, 65400, Note_off_c, 1, 72, 0
3, 65400, Note_off_c, 1, 84, 0
3, 65400, Note_off_c, 1, 96, 0
3, 66240, Note_on_c, 1, 74, 96
3, 66240, Note_on_c, 1, 86, 96
3, 66240, Note_on_c, 1, 98, 96
3, 66360, Note_off_c, 1, 74, 0
3, 66360, Note_off_c, 1, 86, 0
3, 66360, Note_off_c, 1, 98, 0
3, 67200, Note_on_c, 1, 60, 96
3, 67200, Note_on_c, 1, 72, 96
3, 67200, Note_on_c, 1, 84, 96
3, 67200, Note_on_c, 1, 96, 96
3, 67320, Note_off_c, 1, 60, 0
3, 67320, Note_off_c, 1, 72, 0
3, 67320, Note_off_c, 1, 84, 0
3, 67320, Note_off_c, 1, 96, 0
3, 67680, Note_on_c, 1, 86, 96
3, 67680, Note_on_c, 1, 98, 96
3, 67800, Note_off_c, 1, 86, 0
3, 67800, Note_off_c, 1, 98, 0
3, 68160, Note_on_c, 1, 75, 96
3, 68160, Note_on_c, 1, 87, 96
3, 68160, Note_on_c, 1, 99, 96
3, 68280, Note_off_c, 1, 75, 0
3, 68280, Note_off_c, 1, 87, 0
3, 68280, Note_off_c, 1, 99, 0
3, 68480, Note_on_c, 1, 100, 96
3, 68600, Note_off_c, 1, 100, 0
3, 68800, Note_on_c, 1, 99, 96
3, 68920, Note_off_c, 1, 99, 0
3, 69120, Note_on_c, 1, 60, 96
3, 69120, Note_on_c, 1, 72, 96
3, 69120, Note_on_c, 1, 84, 96
3, 69120, Note_on_c, 1, 96, 96
3, 69240, Note_off_c, 1, 60, 0
3, 69240, Note_off_c, 1, 72, 0
3, 69240, Note_off_c, 1, 84, 0
3, 69240, Note_off_c, 1, 96, 0
3, 70080, Note_on_c, 1, 74, 96
3, 70080, Note_on_c, 1, 86, 96
3, 70080, Note_on_c, 1, 98, 96
3, 70200, Note_off_c, 1, 74, 0
3, 70200, Note_off_c, 1, 86, 0
3, 70200, Note_off_c, 1, 98, 0
3, 71040, Note_on_c, 1, 60, 96
3, 71040, Note_on_c, 1, 72, 96
3, 71040, Note_on_c, 1, 84, 96
3, 71040, Note_on_c, 1, 96, 96
3, 71160, Note_off_c, 1, 60, 0
3, 71160, Note_off_c, 1, 72, 0
3, 71160, Note_off_c, 1, 84, 0
3, 71160, Note_off_c, 1, 96, 0
3, 72000, Note_on_c, 1, 74, 96
3, 72000, Note_on_c, 1, 86, 96
3, 72000, Note_on_c, 1, 98, 96
3, 72120, Note_off_c, 1, 74, 0
3, 72120, Note_off_c, 1, 86, 0
3, 72120, Note_off_c, 1, 98, 0
3, 72640, Note_on_c, 1, 96, 96
3, 72760, Note_off_c, 1, 96, 0
3, 72960, Note_on_c, 1, 60, 96
3, 72960, Note_on_c, 1, 72, 96
3, 72960, Note_on_c, 1, 85, 96
3, 72960, Note_on_c, 1, 97, 96
3, 73080, Note_off_c, 1, 60, 0
3, 73080, Note_off_c, 1, 72, 0
3, 73080, Note_off_c, 1, 85, 0
3, 73080, Note_off_c, 1, 97, 0
3, 73920, Note_on_c, 1, 73, 96
3, 73920, Note_on_c, 1, 86, 96
3, 73920, Note_on_c, 1, 98, 96
3, 74040, Note_off_c, 1, 73, 0
3, 74040, Note_off_c, 1, 86, 0
3, 74040, Note_off_c, 1, 98, 0
3, 74880, Note_on_c, 1, 62, 96
3, 74880, Note_on_c, 1, 74, 96
3, 74880, Note_on_c, 1, 87, 96
3, 74880, Note_on_c, 1, 99, 96
3, 75000, Note_off_c, 1, 62, 0
3, 75000, Note_off_c, 1, 74, 0
3, 75000, Note_off_c, 1, 87, 0
3, 75000, Note_off_c, 1, 99, 0
3, 75840, Note_on_c, 1, 75, 96
3, 75840, Note_on_c, 1, 88, 96
3, 75840, Note_on_c, 1, 100, 96
3, 75960, Note_off_c, 1, 75, 0
3, 75960, Note_off_c, 1, 88, 0
3, 75960, Note_off_c, 1, 100, 0
3, 76480, Note_on_c, 1, 100, 96
3, 76600, Note_off_c, 1, 100, 0
3, 76800, Note_on_c, 1, 61, 96
3, 76800, Note_on_c, 1, 73, 96
3, 76800, Note_on_c, 1, 85, 96
3, 76800, Note_on_c, 1, 97, 96
3, 76920, Note_off_c, 1, 61, 0
3, 76920, Note_off_c, 1, 73, 0
3, 76920, Note_off_c, 1, 85, 0
3, 76920, Note_off_c, 1, 97, 0
3, 77760, Note_on_c, 1, 73, 96
3, 77760, Note_on_c, 1, 85, 96
3, 77760, Note_on_c, 1, 97, 96
3, 77880, Note_off_c, 1, 73, 0
3, 77880, Note_off_c, 1, 85, 0
3, 77880, Note_off_c, 1, 97, 0
3, 78720, Note_on_c, 1, 61, 96
3, 78720, Note_on_c, 1, 73, 96
3, 78720, Note_on_c, 1, 85, 96
3, 78720, Note_on_c, 1, 97, 96
3, 78840, Note_off_c, 1, 61, 0
3, 78840, Note_off_c, 1, 73, 0
3, 78840, Note_off_c, 1, 85, 0
3, 78840, Note_off_c, 1, 97, 0
3, 79680, Note_on_c, 1, 73, 96
3, 79680, Note_on_c, 1, 85, 96
3, 79680, Note_on_c, 1, 97, 96
3, 79800, Note_off_c, 1, 73, 0
3, 79800, Note_off_c, 1, 85, 0
3, 79800, Note_off_c, 1, 97, 0
3, 80640, Note_on_c, 1, 61, 96
3, 80640, Note_on_c, 1, 73, 96
3, 80640, Note_on_c, 1, 85, 96
3, 80640, Note_on_c, 1, 97, 96
3, 80760, Note_off_c, 1, 61, 0
3, 80760, Note_off_c, 1, 73, 0
3, 80760, Note_off_c, 1, 85, 0
3, 80760, Note_off_c, 1, 97, 0
3, 81600, Note_on_c, 1, 73, 96
3, 81600, Note_on_c, 1, 85, 96
3, 81600, Note_on_c, 1, 97, 96
3, 81720, Note_off_c, 1, 73, 0
3, 81720, Note_off_c, 1, 85, 0
3, 81720, Note_off_c, 1, 97, 0
3, 82560, Note_on_c, 1, 61, 96
3, 82560, Note_on_c, 1, 73, 96
3, 82560, Note_on_c, 1, 85, 96
3, 82560, Note_on_c, 1, 97, 96
3, 82680, Note_off_c, 1, 61, 0
3, 82680, Note_off_c, 1, 73, 0
3, 82680, Note_off_c, 1, 85, 0
3, 82680, Note_off_c, 1, 97, 0
3, 83520, Note_on_c, 1, 73, 96
3, 83520, Note_on_c, 1, 85, 96
3, 83520, Note_on_c, 1, 97, 96
3, 83640, Note_off_c, 1, 73, 0
3, 83640, Note_off_c, 1, 85, 0
3, 83640, Note_off_c, 1, 97, 0
3, 84160, Note_on_c, 1, 97, 96
3, 84280, Note_off_c, 1, 97, 0
3, 84480, Note_on_c, 1, 62, 96
3, 84480, Note_on_c, 1, 75, 96
3, 84480, Note_on_c, 1, 87, 96
3, 84480, Note_on_c, 1, 99, 96
3, 84600, Note_off_c, 1, 62, 0
3, 84600, Note_off_c, 1, 75, 0
3, 84600, Note_off_c, 1, 87, 0
3, 84600, Note_off_c, 1, 99, 0
3, 85440, Note_on_c, 1, 75, 96
3, 85440, Note_on_c, 1, 87, 96
3, 85440, Note_on_c, 1, 99, 96
3, 85560, Note_off_c, 1, 75, 0
3, 85560, Note_off_c, 1, 87, 0
3, 85560, Note_off_c, 1, 99, 0
3, 86400, Note_on_c, 1, 62, 96
3, 86400, Note_on_c, 1, 75, 96
3, 86400, Note_on_c, 1, 87, 96
3, 86400, Note_on_c, 1, 99, 96
3, 86520, Note_off_c, 1, 62, 0
3, 86520, Note_off_c, 1, 75, 0
3, 86520, Note_off_c, 1, 87, 0
3, 86520, Note_off_c, 1, 99, 0
3, 87360, Note_on_c, 1, 75, 96
3, 87360, Note_on_c, 1, 87, 96
3, 87360, Note_on_c, 1, 99, 96
3, 87480, Note_off_c, 1, 75, 0
3, 87480, Note_off_c, 1, 87, 0
3, 87480, Note_off_c, 1, 99, 0
3, 88320, Note_on_c, 1, 62, 96
3, 88320, Note_on_c, 1, 75, 96
3, 88320, Note_on_c, 1, 87, 96
3, 88320, Note_on_c, 1, 99, 96
3, 88440, Note_off_c, 1, 62, 0
3, 88440, Note_off_c, 1, 75, 0
3, 88440, Note_off_c, 1, 87, 0
3, 88440, Note_off_c, 1, 99, 0
3, 89280, Note_on_c, 1, 73, 96
3, 89280, Note_on_c, 1, 85, 96
3, 89280, Note_on_c, 1, 97, 96
3, 89400, Note_off_c, 1, 73, 0
3, 89400, Note_off_c, 1, 85, 0
3, 89400, Note_off_c, 1, 97, 0
3, 90240, Note_on_c, 1, 62, 96
3, 90240, Note_on_c, 1, 75, 96
3, 90240, Note_on_c, 1, 87, 96
3, 90240, Note_on_c, 1, 99, 96
3, 90360, Note_off_c, 1, 62, 0
3, 90360, Note_off_c, 1, 75, 0
3, 90360, Note_off_c, 1, 87, 0
3, 90360, Note_off_c, 1, 99, 0
3, 91200, Note_on_c, 1, 75, 96
3, 91200, Note_on_c, 1, 87, 96
3, 91200, Note_on_c, 1, 99, 96
3, 91320, Note_off_c, 1, 75, 0
3, 91320, Note_off_c, 1, 87, 0
3, 91320, Note_off_c, 1, 99, 0
3, 92160, Note_on_c, 1, 60, 96
3, 92160, Note_on_c, 1, 72, 96
3, 92160, Note_on_c, 1, 84, 96
3, 92160, Note_on_c, 1, 96, 96
3, 92280, Note_off_c, 1, 60, 0
3, 92280, Note_off_c, 1, 72, 0
3, 92280, Note_off_c, 1, 84, 0
3, 92280, Note_off_c, 1, 96, 0
3, 93120, Note_on_c, 1, 74, 96
3, 93120, Note_on_c, 1, 86, 96
3, 93120, Note_on_c, 1, 98, 96
3, 93240, Note_off_c, 1, 74, 0
3, 93240, Note_off_c, 1, 86, 0
3, 93240, Note_off_c, 1, 98, 0
3, 94080, Note_on_c, 1, 60, 96
3, 94080, Note_on_c, 1, 72, 96
3, 94080, Note_on_c, 1, 84, 96
3, 94080, Note_on_c, 1, 96, 96
3, 94200, Note_off_c, 1, 60, 0
3, 94200, Note_off_c, 1, 72, 0
3, 94200, Note_off_c, 1, 84, 0
3, 94200, Note_off_c, 1, 96, 0
3, 95040, Note_on_c, 1, 74, 96
3, 95040, Note_on_c, 1, 86, 96
3, 95040, Note_on_c, 1, 98, 96
3, 95160, Note_off_c, 1, 74, 0
3, 95160, Note_off_c, 1, 86, 0
3, 95160, Note_off_c, 1, 98, 0
3, 96000, Note_on_c, 1, 60, 96
3, 96000, Note_on_c, 1, 72, 96
3, 96000, Note_on_c, 1, 84, 96
3, 96000, Note_on_c, 1, 96, 96
3, 96120, Note_off_c, 1, 60, 0
3, 96120, Note_off_c, 1, 72, 0
3, 96120, Note_off_c, 1, 84, 0
3, 96120, Note_off_c, 1, 96, 0
3, 96960, Note_on_c, 1, 74, 96
3, 96960, Note_on_c, 1, 86, 96
3, 96960, Note_on_c, 1, 98, 96
3, 97080, Note_off_c, 1, 74, 0
3, 97080, Note_off_c, 1, 86, 0
3, 97080, Note_off_c, 1, 98, 0
3, 97920, Note_on_c, 1, 60, 96
3, 97920, Note_on_c, 1, 72, 96
3, 97920, Note_on_c, 1, 84, 96
3, 97920, Note_on_c, 1, 96, 96
3, 98040, Note_off_c, 1, 60, 0
3, 98040, Note_off_c, 1, 72, 0
3, 98040, Note_off_c, 1, 84, 0
3, 98040, Note_off_c, 1, 96, 0
3, 98880, Note_on_c, 1, 74, 96
3, 98880, Note_on_c, 1, 86, 96
3, 98880, Note_on_c, 1, 98, 96
3, 99120, Note_off_c, 1, 74, 0
3, 99120, Note_off_c, 1, 86, 0
3, 99600, Note_off_c, 1, 98, 0
3, 99840, Note_on_c, 1, 60, 96
3, 99840, Note_on_c, 1, 67, 96
3, 99840, Note_on_c, 1, 72, 96
3, 99840, Note_on_c, 1, 79, 96
3, 99840, Note_on_c, 1, 84, 96
3, 99840, Note_on_c, 1, 91, 96
3, 99840, Note_on_c, 1, 96, 96
3, 99840, Note_on_c, 1, 103, 96
3, 99960, Note_off_c, 1, 60, 0
3, 99960, Note_off_c, 1, 72, 0
3, 99960, Note_off_c, 1, 84, 0
3, 99960, Note_off_c, 1, 96, 0
3, 100800, Note_on_c, 1, 74, 96
3, 100800, Note_on_c, 1, 86, 96
3, 100800, Note_on_c, 1, 98, 96
3, 100920, Note_off_c, 1, 74, 0
3, 100920, Note_off_c, 1, 86, 0
3, 100920, Note_off_c, 1, 98, 0
3, 101760, Note_on_c, 1, 60, 96
3, 101760, Note_on_c, 1, 72, 96
3, 101760, Note_on_c, 1, 84, 96
3, 101760, Note_on_c, 1, 96, 96
3, 101880, Note_off_c, 1, 60, 0
3, 101880, Note_off_c, 1, 72, 0
3, 101880, Note_off_c, 1, 84, 0
3, 101880, Note_off_c, 1, 96, 0
3, 102720, Note_on_c, 1, 74, 96
3, 102720, Note_on_c, 1, 86, 96
3, 102720, Note_on_c, 1, 98, 96
3, 102840, Note_off_c, 1, 74, 0
3, 102840, Note_off_c, 1, 86, 0
3, 102840, Note_off_c, 1, 98, 0
3, 103360, Note_on_c, 1, 96, 96
3, 103480, Note_off_c, 1, 96, 0
3, 103680, Note_off_c, 1, 67, 0
3, 103680, Note_off_c, 1, 79, 0
3, 103680, Note_off_c, 1, 91, 0
3, 103680, Note_off_c, 1, 103, 0
3, 103680, Note_on_c, 1, 60, 96
3, 103680, Note_on_c, 1, 72, 96
3, 103680, Note_on_c, 1, 85, 96
3, 103680, Note_on_c, 1, 97, 96
3, 103800, Note_off_c, 1, 60, 0
3, 103800, Note_off_c, 1, 72, 0
3, 103800, Note_off_c, 1, 85, 0
3, 103800, Note_off_c, 1, 97, 0
3, 104640, Note_on_c, 1, 73, 96
3, 104640, Note_on_c, 1, 86, 96
3, 104640, Note_on_c, 1, 98, 96
3, 104760, Note_off_c, 1, 73, 0
3, 104760, Note_off_c, 1, 86, 0
3, 104760, Note_off_c, 1, 98, 0
3, 105600, Note_on_c, 1, 62, 96
3, 105600, Note_on_c, 1, 74, 96
3, 105600, Note_on_c, 1, 87, 96
3, 105600, Note_on_c, 1, 99, 96
3, 105720, Note_off_c, 1, 62, 0
3, 105720, Note_off_c, 1, 74, 0
3, 105720, Note_off_c, 1, 87, 0
3, 105720, Note_off_c, 1, 99, 0
3, 106560, Note_on_c, 1, 75, 96
3, 106560, Note_on_c, 1, 88, 96
3, 106560, Note_on_c, 1, 100, 96
3, 106680, Note_off_c, 1, 75, 0
3, 106680, Note_off_c, 1, 88, 0
3, 106680, Note_off_c, 1, 100, 0
3, 107200, Note_on_c, 1, 100, 96
3, 107320, Note_off_c, 1, 100, 0
3, 107520, Note_on_c, 1, 60, 96
3, 107520, Note_on_c, 1, 72, 96
3, 107520, Note_on_c, 1, 84, 96
3, 107520, Note_on_c, 1, 96, 96
3, 107640, Note_off_c, 1, 60, 0
3, 107640, Note_off_c, 1, 72, 0
3, 107640, Note_off_c, 1, 84, 0
3, 107640, Note_off_c, 1, 96, 0
3, 108480, Note_on_c, 1, 74, 96
3, 108480, Note_on_c, 1, 86, 96
3, 108480, Note_on_c, 1, 98, 96
3, 108600, Note_off_c, 1, 74, 0
3, 108600, Note_off_c, 1, 86, 0
3, 108600, Note_off_c, 1, 98, 0
3, 109440, Note_on_c, 1, 60, 96
3, 109440, Note_on_c, 1, 72, 96
3, 109440, Note_on_c, 1, 84, 96
3, 109440, Note_on_c, 1, 96, 96
3, 109560, Note_off_c, 1, 60, 0
3, 109560, Note_off_c, 1, 72, 0
3, 109560, Note_off_c, 1, 84, 0
3, 109560, Note_off_c, 1, 96, 0
3, 110400, Note_on_c, 1, 74, 96
3, 110400, Note_on_c, 1, 86, 96
3, 110400, Note_on_c, 1, 98, 96
3, 110520, Note_off_c, 1, 74, 0
3, 110520, Note_off_c, 1, 86, 0
3, 110520, Note_off_c, 1, 98, 0
3, 111360, Note_on_c, 1, 60, 96
3, 111360, Note_on_c, 1, 72, 96
3, 111360, Note_on_c, 1, 84, 96
3, 111360, Note_on_c, 1, 96, 96
3, 111480, Note_off_c, 1, 60, 0
3, 111480, Note_off_c, 1, 72, 0
3, 111480, Note_off_c, 1, 84, 0
3, 111480, Note_off_c, 1, 96, 0
3, 112320, Note_on_c, 1, 74, 96
3, 112320, Note_on_c, 1, 86, 96
3, 112320, Note_on_c, 1, 98, 96
3, 112440, Note_off_c, 1, 74, 0
3, 112440, Note_off_c, 1, 86, 0
3, 112440, Note_off_c, 1, 98, 0
3, 113280, Note_on_c, 1, 62, 96
3, 113280, Note_on_c, 1, 74, 96
3, 113280, Note_on_c, 1, 86, 96
3, 113280, Note_on_c, 1, 98, 96
3, 113400, Note_off_c, 1, 62, 0
3, 113400, Note_off_c, 1, 74, 0
3, 113400, Note_off_c, 1, 86, 0
3, 113400, Note_off_c, 1, 98, 0
3, 113760, Note_on_c, 1, 85, 96
3, 113760, Note_on_c, 1, 97, 96
3, 113880, Note_off_c, 1, 85, 0
3, 113880, Note_off_c, 1, 97, 0
3, 114240, Note_on_c, 1, 74, 96
3, 114240, Note_on_c, 1, 86, 96
3, 114240, Note_on_c, 1, 98, 96
3, 114360, Note_off_c, 1, 74, 0
3, 114360, Note_off_c, 1, 86, 0
3, 114360, Note_off_c, 1, 98, 0
3, 114560, Note_on_c, 1, 99, 96
3, 114680, Note_off_c, 1, 99, 0
3, 114880, Note_on_c, 1, 88, 96
3, 114880, Note_on_c, 1, 100, 96
3, 115000, Note_off_c, 1, 88, 0
3, 115000, Note_off_c, 1, 100, 0
3, 115200, Note_on_c, 1, 60, 96
3, 115200, Note_on_c, 1, 72, 96
3, 115200, Note_on_c, 1, 84, 96
3, 115200, Note_on_c, 1, 96, 96
3, 115320, Note_off_c, 1, 60, 0
3, 115320, Note_off_c, 1, 72, 0
3, 115320, Note_off_c, 1, 84, 0
3, 115320, Note_off_c, 1, 96, 0
3, 116160, Note_on_c, 1, 74, 96
3, 116160, Note_on_c, 1, 86, 96
3, 116160, Note_on_c, 1, 98, 96
3, 116280, Note_off_c, 1, 74, 0
3, 116280, Note_off_c, 1, 86, 0
3, 116280, Note_off_c, 1, 98, 0
3, 117120, Note_on_c, 1, 60, 96
3, 117120, Note_on_c, 1, 72, 96
3, 117120, Note_on_c, 1, 84, 96
3, 117120, Note_on_c, 1, 96, 96
3, 117240, Note_off_c, 1, 60, 0
3, 117240, Note_off_c, 1, 72, 0
3, 117240, Note_off_c, 1, 84, 0
3, 117240, Note_off_c, 1, 96, 0
3, 118080, Note_on_c, 1, 74, 96
3, 118080, Note_on_c, 1, 86, 96
3, 118080, Note_on_c, 1, 98, 96
3, 118200, Note_off_c, 1, 74, 0
3, 118200, Note_off_c, 1, 86, 0
3, 118200, Note_off_c, 1, 98, 0
3, 119040, Note_on_c, 1, 60, 96
3, 119040, Note_on_c, 1, 72, 96
3, 119040, Note_on_c, 1, 84, 96
3, 119040, Note_on_c, 1, 96, 96
3, 119160, Note_off_c, 1, 60, 0
3, 119160, Note_off_c, 1, 72, 0
3, 119160, Note_off_c, 1, 84, 0
3, 119160, Note_off_c, 1, 96, 0
3, 120000, Note_on_c, 1, 74, 96
3, 120000, Note_on_c, 1, 86, 96
3, 120000, Note_on_c, 1, 98, 96
3, 120120, Note_off_c, 1, 74, 0
3, 120120, Note_off_c, 1, 86, 0
3, 120120, Note_off_c, 1, 98, 0
3, 120960, Note_on_c, 1, 60, 96
3, 120960, Note_on_c, 1, 72, 96
3, 120960, Note_on_c, 1, 84, 96
3, 120960, Note_on_c, 1, 96, 96
3, 121080, Note_off_c, 1, 60, 0
3, 121080, Note_off_c, 1, 72, 0
3, 121080, Note_off_c, 1, 84, 0
3, 121080, Note_off_c, 1, 96, 0
3, 121440, Note_on_c, 1, 86, 96
3, 121440, Note_on_c, 1, 98, 96
3, 121560, Note_off_c, 1, 86, 0
3, 121560, Note_off_c, 1, 98, 0
3, 121920, Note_on_c, 1, 75, 96
3, 121920, Note_on_c, 1, 87, 96
3, 121920, Note_on_c, 1, 99, 96
3, 122040, Note_off_c, 1, 75, 0
3, 122040, Note_off_c, 1, 87, 0
3, 122040, Note_off_c, 1, 99, 0
3, 122240, Note_on_c, 1, 100, 96
3, 122360, Note_off_c, 1, 100, 0
3, 122560, Note_on_c, 1, 99, 96
3, 122680, Note_off_c, 1, 99, 0
3, 122880, Note_on_c, 1, 60, 96
3, 122880, Note_on_c, 1, 72, 96
3, 122880, Note_on_c, 1, 84, 96
3, 122880, Note_on_c, 1, 96, 96
3, 123000, Note_off_c, 1, 60, 0
3, 123000, Note_off_c, 1, 72, 0
3, 123000, Note_off_c, 1, 84, 0
3, 123000, Note_off_c, 1, 96, 0
3, 123840, Note_on_c, 1, 74, 96
3, 123840, Note_on_c, 1, 86, 96
3, 123840, Note_on_c, 1, 98, 96
3, 123960, Note_off_c, 1, 74, 0
3, 123960, Note_off_c, 1, 86, 0
3, 123960, Note_off_c, 1, 98, 0
3, 124800, Note_on_c, 1, 60, 96
3, 124800, Note_on_c, 1, 72, 96
3, 124800, Note_on_c, 1, 84, 96
3, 124800, Note_on_c, 1, 96, 96
3, 124920, Note_off_c, 1, 60, 0
3, 124920, Note_off_c, 1, 72, 0
3, 124920, Note_off_c, 1, 84, 0
3, 124920, Note_off_c, 1, 96, 0
3, 125760, Note_on_c, 1, 74, 96
3, 125760, Note_on_c, 1, 86, 96
3, 125760, Note_on_c, 1, 98, 96
3, 125880, Note_off_c, 1, 74, 0
3, 125880, Note_off_c, 1, 86, 0
3, 125880, Note_off_c, 1, 98, 0
3, 126720, Note_on_c, 1, 60, 96
3, 126720, Note_on_c, 1, 72, 96
3, 126720, Note_on_c, 1, 84, 96
3, 126720, Note_on_c, 1, 96, 96
3, 126840, Note_off_c, 1, 60, 0
3, 126840, Note_off_c, 1, 72, 0
3, 126840, Note_off_c, 1, 84, 0
3, 126840, Note_off_c, 1, 96, 0
3, 127680, Note_on_c, 1, 74, 96
3, 127680, Note_on_c, 1, 86, 96
3, 127680, Note_on_c, 1, 98, 96
3, 127800, Note_off_c, 1, 74, 0
3, 127800, Note_off_c, 1, 86, 0
3, 127800, Note_off_c, 1, 98, 0
3, 128640, Note_on_c, 1, 60, 96
3, 128640, Note_on_c, 1, 72, 96
3, 128640, Note_on_c, 1, 84, 96
3, 128640, Note_on_c, 1, 96, 96
3, 128760, Note_off_c, 1, 60, 0
3, 128760, Note_off_c, 1, 72, 0
3, 128760, Note_off_c, 1, 84, 0
3, 128760, Note_off_c, 1, 96, 0
3, 129120, Note_on_c, 1, 86, 96
3, 129120, Note_on_c, 1, 98, 96
3, 129240, Note_off_c, 1, 86, 0
3, 129240, Note_off_c, 1, 98, 0
3, 129600, Note_on_c, 1, 75, 96
3, 129600, Note_on_c, 1, 87, 96
3, 129600, Note_on_c, 1, 99, 96
3, 129720, Note_off_c, 1, 75, 0
3, 129720, Note_off_c, 1, 87, 0
3, 129720, Note_off_c, 1, 99, 0
3, 129920, Note_on_c, 1, 100, 96
3, 130040, Note_off_c, 1, 100, 0
3, 130240, Note_on_c, 1, 99, 96
3, 130360, Note_off_c, 1, 99, 0
3, 130560, Note_on_c, 1, 60, 96
3, 130560, Note_on_c, 1, 72, 96
3, 130560, Note_on_c, 1, 84, 96
3, 130560, Note_on_c, 1, 96, 96
3, 130680, Note_off_c, 1, 60, 0
3, 130680, Note_off_c, 1, 72, 0
3, 130680, Note_off_c, 1, 84, 0
3, 130680, Note_off_c, 1, 96, 0
3, 131520, Note_on_c, 1, 74, 96
3, 131520, Note_on_c, 1, 86, 96
3, 131520, Note_on_c, 1, 98, 96
3, 131640, Note_off_c, 1, 74, 0
3, 131640, Note_off_c, 1, 86, 0
3, 131640, Note_off_c, 1, 98, 0
3, 132480, Note_on_c, 1, 60, 96
3, 132480, Note_on_c, 1, 72, 96
3, 132480, Note_on_c, 1, 84, 96
3, 132480, Note_on_c, 1, 96, 96
3, 132600, Note_off_c, 1, 60, 0
3, 132600, Note_off_c, 1, 72, 0
3, 132600, Note_off_c, 1, 84, 0
3, 132600, Note_off_c, 1, 96, 0
3, 133440, Note_on_c, 1, 74, 96
3, 133440, Note_on_c, 1, 86, 96
3, 133440, Note_on_c, 1, 98, 96
3, 133560, Note_off_c, 1, 74, 0
3, 133560, Note_off_c, 1, 86, 0
3, 133560, Note_off_c, 1, 98, 0
3, 134080, Note_on_c, 1, 98, 96
3, 134200, Note_off_c, 1, 98, 0
3, 134400, Note_on_c, 1, 62, 96
3, 134400, Note_on_c, 1, 75, 96
3, 134400, Note_on_c, 1, 88, 96
3, 134400, Note_on_c, 1, 100, 96
3, 134640, Note_off_c, 1, 62, 0
3, 134640, Note_off_c, 1, 75, 0
3, 134640, Note_off_c, 1, 88, 0
3, 135120, Note_off_c, 1, 100, 0
3, 135360, Note_on_c, 1, 74, 96
3, 135360, Note_on_c, 1, 87, 96
3, 135360, Note_on_c, 1, 99, 96
3, 135600, Note_off_c, 1, 74, 0
3, 135600, Note_off_c, 1, 87, 0
3, 136080, Note_off_c, 1, 99, 0
3, 136320, Note_on_c, 1, 61, 96
3, 136320, Note_on_c, 1, 74, 96
3, 136320, Note_on_c, 1, 86, 96
3, 136320, Note_on_c, 1, 98, 96
3, 136440, Note_off_c, 1, 61, 0
3, 136440, Note_off_c, 1, 74, 0
3, 136440, Note_off_c, 1, 86, 0
3, 136440, Note_off_c, 1, 98, 0
3, 136640, Note_on_c, 1, 99, 96
3, 137120, Note_off_c, 1, 99, 0
3, 137280, Note_on_c, 1, 73, 96
3, 137280, Note_on_c, 1, 86, 96
3, 137280, Note_on_c, 1, 98, 96
3, 137400, Note_off_c, 1, 73, 0
3, 137400, Note_off_c, 1, 86, 0
3, 137400, Note_off_c, 1, 98, 0
3, 138240, Note_on_c, 1, 61, 96
3, 138240, Note_on_c, 1, 73, 96
3, 138240, Note_on_c, 1, 85, 96
3, 138240, Note_on_c, 1, 97, 96
3, 138360, Note_off_c, 1, 61, 0
3, 138360, Note_off_c, 1, 73, 0
3, 138360, Note_off_c, 1, 85, 0
3, 138360, Note_off_c, 1, 97, 0
3, 139200, Note_on_c, 1, 73, 96
3, 139200, Note_on_c, 1, 85, 96
3, 139200, Note_on_c, 1, 97, 96
3, 139320, Note_off_c, 1, 73, 0
3, 139320, Note_off_c, 1, 85, 0
3, 139320, Note_off_c, 1, 97, 0
3, 140160, Note_on_c, 1, 61, 96
3, 140160, Note_on_c, 1, 73, 96
3, 140160, Note_on_c, 1, 85, 96
3, 140160, Note_on_c, 1, 97, 96
3, 140280, Note_off_c, 1, 61, 0
3, 140280, Note_off_c, 1, 73, 0
3, 140280, Note_off_c, 1, 85, 0
3, 140280, Note_off_c, 1, 97, 0
3, 141120, Note_on_c, 1, 73, 96
3, 141120, Note_on_c, 1, 85, 96
3, 141120, Note_on_c, 1, 97, 96
3, 141240, Note_off_c, 1, 73, 0
3, 141240, Note_off_c, 1, 85, 0
3, 141240, Note_off_c, 1, 97, 0
3, 142080, Note_on_c, 1, 61, 96
3, 142080, Note_on_c, 1, 67, 96
3, 142080, Note_on_c, 1, 73, 96
3, 142080, Note_on_c, 1, 79, 96
3, 142080, Note_on_c, 1, 85, 96
3, 142080, Note_on_c, 1, 91, 96
3, 142080, Note_on_c, 1, 97, 96
3, 142080, Note_on_c, 1, 103, 96
3, 142200, Note_off_c, 1, 61, 0
3, 142200, Note_off_c, 1, 73, 0
3, 142200, Note_off_c, 1, 85, 0
3, 142200, Note_off_c, 1, 97, 0
3, 143040, Note_on_c, 1, 73, 96
3, 143040, Note_on_c, 1, 85, 96
3, 143040, Note_on_c, 1, 97, 96
3, 143160, Note_off_c, 1, 73, 0
3, 143160, Note_off_c, 1, 85, 0
3, 143160, Note_off_c, 1, 97, 0
3, 144000, Note_on_c, 1, 61, 96
3, 144000, Note_on_c, 1, 73, 96
3, 144000, Note_on_c, 1, 85, 96
3, 144000, Note_on_c, 1, 97, 96
3, 144120, Note_off_c, 1, 61, 0
3, 144120, Note_off_c, 1, 73, 0
3, 144120, Note_off_c, 1, 85, 0
3, 144120, Note_off_c, 1, 97, 0
3, 144960, Note_on_c, 1, 73, 96
3, 144960, Note_on_c, 1, 85, 96
3, 144960, Note_on_c, 1, 97, 96
3, 145080, Note_off_c, 1, 73, 0
3, 145080, Note_off_c, 1, 85, 0
3, 145080, Note_off_c, 1, 97, 0
3, 145600, Note_on_c, 1, 97, 96
3, 145720, Note_off_c, 1, 97, 0
3, 145920, Note_off_c, 1, 67, 0
3, 145920, Note_off_c, 1, 79, 0
3, 145920, Note_off_c, 1, 91, 0
3, 145920, Note_off_c, 1, 103, 0
3, 145920, Note_on_c, 1, 62, 96
3, 145920, Note_on_c, 1, 75, 96
3, 145920, Note_on_c, 1, 87, 96
3, 145920, Note_on_c, 1, 99, 96
3, 146040, Note_off_c, 1, 62, 0
3, 146040, Note_off_c, 1, 75, 0
3, 146040, Note_off_c, 1, 87, 0
3, 146040, Note_off_c, 1, 99, 0
3, 146880, Note_on_c, 1, 75, 96
3, 146880, Note_on_c, 1, 87, 96
3, 146880, Note_on_c, 1, 99, 96
3, 147000, Note_off_c, 1, 75, 0
3, 147000, Note_off_c, 1, 87, 0
3, 147000, Note_off_c, 1, 99, 0
3, 147840, Note_on_c, 1, 62, 96
3, 147840, Note_on_c, 1, 75, 96
3, 147840, Note_on_c, 1, 87, 96
3, 147840, Note_on_c, 1, 99, 96
3, 147960, Note_off_c, 1, 62, 0
3, 147960, Note_off_c, 1, 75, 0
3, 147960, Note_off_c, 1, 87, 0
3, 147960, Note_off_c, 1, 99, 0
3, 148800, Note_on_c, 1, 75, 96
3, 148800, Note_on_c, 1, 87, 96
3, 148800, Note_on_c, 1, 99, 96
3, 148920, Note_off_c, 1, 75, 0
3, 148920, Note_off_c, 1, 87, 0
3, 148920, Note_off_c, 1, 99, 0
3, 149760, Note_on_c, 1, 62, 96
3, 149760, Note_on_c, 1, 75, 96
3, 149760, Note_on_c, 1, 87, 96
3, 149760, Note_on_c, 1, 99, 96
3, 149880, Note_off_c, 1, 62, 0
3, 149880, Note_off_c, 1, 75, 0
3, 149880, Note_off_c, 1, 87, 0
3, 149880, Note_off_c, 1, 99, 0
3, 150720, Note_on_c, 1, 73, 96
3, 150720, Note_on_c, 1, 85, 96
3, 150720, Note_on_c, 1, 97, 96
3, 150840, Note_off_c, 1, 73, 0
3, 150840, Note_off_c, 1, 85, 0
3, 150840, Note_off_c, 1, 97, 0
3, 151680, Note_on_c, 1, 62, 96
3, 151680, Note_on_c, 1, 75, 96
3, 151680, Note_on_c, 1, 87, 96
3, 151680, Note_on_c, 1, 99, 96
3, 151800, Note_off_c, 1, 62, 0
3, 151800, Note_off_c, 1, 75, 0
3, 151800, Note_off_c, 1, 87, 0
3, 151800, Note_off_c, 1, 99, 0
3, 152640, Note_on_c, 1, 75, 96
3, 152640, Note_on_c, 1, 87, 96
3, 152640, Note_on_c, 1, 99, 96
3, 152760, Note_off_c, 1, 75, 0
3, 152760, Note_off_c, 1, 87, 0
3, 152760, Note_off_c, 1, 99, 0
3, 153280, Note_on_c, 1, 99, 96
3, 153400, Note_off_c, 1, 99, 0
3, 153600, Note_on_c, 1, 60, 96
3, 153600, Note_on_c, 1, 72, 96
3, 153600, Note_on_c, 1, 84, 96
3, 153600, Note_on_c, 1, 96, 96
3, 153720, Note_off_c, 1, 60, 0
3, 153720, Note_off_c, 1, 72, 0
3, 153720, Note_off_c, 1, 84, 0
3, 153720, Note_off_c, 1, 96, 0
3, 154560, Note_on_c, 1, 74, 96
3, 154560, Note_on_c, 1, 86, 96
3, 154560, Note_on_c, 1, 98, 96
3, 154680, Note_off_c, 1, 74, 0
3, 154680, Note_off_c, 1, 86, 0
3, 154680, Note_off_c, 1, 98, 0
3, 155520, Note_on_c, 1, 60, 96
3, 155520, Note_on_c, 1, 72, 96
3, 155520, Note_on_c, 1, 84, 96
3, 155520, Note_on_c, 1, 96, 96
3, 155640, Note_off_c, 1, 60, 0
3, 155640, Note_off_c, 1, 72, 0
3, 155640, Note_off_c, 1, 84, 0
3, 155640, Note_off_c, 1, 96, 0
3, 156480, Note_on_c, 1, 74, 96
3, 156480, Note_on_c, 1, 86, 96
3, 156480, Note_on_c, 1, 98, 96
3, 156600, Note_off_c, 1, 74, 0
3, 156600, Note_off_c, 1, 86, 0
3, 156600, Note_off_c, 1, 98, 0
3, 157440, Note_on_c, 1, 60, 96
3, 157440, Note_on_c, 1, 72, 96
3, 157440, Note_on_c, 1, 84, 96
3, 157440, Note_on_c, 1, 96, 96
3, 157560, Note_off_c, 1, 60, 0
3, 157560, Note_off_c, 1, 72, 0
3, 157560, Note_off_c, 1, 84, 0
3, 157560, Note_off_c, 1, 96, 0
3, 158400, Note_on_c, 1, 74, 96
3, 158400, Note_on_c, 1, 86, 96
3, 158400, Note_on_c, 1, 98, 96
3, 158520, Note_off_c, 1, 74, 0
3, 158520, Note_off_c, 1, 86, 0
3, 158520, Note_off_c, 1, 98, 0
3, 159360, Note_on_c, 1, 60, 96
3, 159360, Note_on_c, 1, 72, 96
3, 159360, Note_on_c, 1, 84, 96
3, 159360, Note_on_c, 1, 96, 96
3, 159480, Note_off_c, 1, 60, 0
3, 159480, Note_off_c, 1, 72, 0
3, 159480, Note_off_c, 1, 84, 0
3, 159480, Note_off_c, 1, 96, 0
3, 159840, Note_on_c, 1, 86, 96
3, 159840, Note_on_c, 1, 98, 96
3, 159960, Note_off_c, 1, 86, 0
3, 159960, Note_off_c, 1, 98, 0
3, 160320, Note_on_c, 1, 75, 96
3, 160320, Note_on_c, 1, 87, 96
3, 160320, Note_on_c, 1, 99, 96
3, 160440, Note_off_c, 1, 75, 0
3, 160440, Note_off_c, 1, 87, 0
3, 160440, Note_off_c, 1, 99, 0
3, 160560, Note_on_c, 1, 100, 96
3, 160680, Note_off_c, 1, 100, 0
3, 160800, Note_on_c, 1, 99, 96
3, 160920, Note_off_c, 1, 99, 0
3, 161280, Note_on_c, 1, 60, 96
3, 161280, Note_on_c, 1, 72, 96
3, 161280, Note_on_c, 1, 84, 96
3, 161280, Note_on_c, 1, 96, 96
3, 161400, Note_off_c, 1, 60, 0
3, 161400, Note_off_c, 1, 72, 0
3, 161400, Note_off_c, 1, 84, 0
3, 161400, Note_off_c, 1, 96, 0
3, 162240, Note_on_c, 1, 74, 96
3, 162240, Note_on_c, 1, 86, 96
3, 162240, Note_on_c, 1, 98, 96
3, 162360, Note_off_c, 1, 74, 0
3, 162360, Note_off_c, 1, 86, 0
3, 162360, Note_off_c, 1, 98, 0
3, 163200, Note_on_c, 1, 60, 96
3, 163200, Note_on_c, 1, 72, 96
3, 163200, Note_on_c, 1, 84, 96
3, 163200, Note_on_c, 1, 96, 96
3, 163320, Note_off_c, 1, 60, 0
3, 163320, Note_off_c, 1, 72, 0
3, 163320, Note_off_c, 1, 84, 0
3, 163320, Note_off_c, 1, 96, 0
3, 164160, Note_on_c, 1, 74, 96
3, 164160, Note_on_c, 1, 86, 96
3, 164160, Note_on_c, 1, 98, 96
3, 164280, Note_off_c, 1, 74, 0
3, 164280, Note_off_c, 1, 86, 0
3, 164280, Note_off_c, 1, 98, 0
3, 164800, Note_on_c, 1, 96, 96
3, 164920, Note_off_c, 1, 96, 0
3, 165120, Note_on_c, 1, 62, 96
3, 165120, Note_on_c, 1, 75, 96
3, 165120, Note_on_c, 1, 88, 96
3, 165120, Note_on_c, 1, 100, 96
3, 165360, Note_off_c, 1, 62, 0
3, 165360, Note_off_c, 1, 75, 0
3, 165360, Note_off_c, 1, 88, 0
3, 165920, Note_off_c, 1, 100, 0
3, 166080, Note_on_c, 1, 74, 96
3, 166080, Note_on_c, 1, 87, 96
3, 166080, Note_on_c, 1, 99, 96
3, 166320, Note_off_c, 1, 74, 0
3, 166320, Note_off_c, 1, 87, 0
3, 166880, Note_off_c, 1, 99, 0
3, 167040, Note_on_c, 1, 61, 96
3, 167040, Note_on_c, 1, 74, 96
3, 167040, Note_on_c, 1, 87, 96
3, 167040, Note_on_c, 1, 98, 96
3, 167160, Note_off_c, 1, 98, 0
3, 167280, Note_off_c, 1, 61, 0
3, 167280, Note_off_c, 1, 74, 0
3, 167280, Note_off_c, 1, 87, 0
3, 167280, Note_on_c, 1, 99, 96
3, 167840, Note_off_c, 1, 99, 0
3, 168000, Note_on_c, 1, 73, 96
3, 168000, Note_on_c, 1, 86, 96
3, 168000, Note_on_c, 1, 98, 96
3, 168120, Note_off_c, 1, 73, 0
3, 168120, Note_off_c, 1, 86, 0
3, 168120, Note_off_c, 1, 98, 0
3, 168640, Note_on_c, 1, 98, 96
3, 168760, Note_off_c, 1, 98, 0
3, 168960, Note_on_c, 1, 61, 96
3, 168960, Note_on_c, 1, 73, 96
3, 168960, Note_on_c, 1, 85, 96
3, 168960, Note_on_c, 1, 97, 96
3, 169080, Note_off_c, 1, 61, 0
3, 169080, Note_off_c, 1, 73, 0
3, 169080, Note_off_c, 1, 85, 0
3, 169080, Note_off_c, 1, 97, 0
3, 169920, Note_on_c, 1, 73, 96
3, 169920, Note_on_c, 1, 85, 96
3, 169920, Note_on_c, 1, 97, 96
3, 170040, Note_off_c, 1, 73, 0
3, 170040, Note_off_c, 1, 85, 0
3, 170040, Note_off_c, 1, 97, 0
3, 170880, Note_on_c, 1, 61, 96
3, 170880, Note_on_c, 1, 73, 96
3, 170880, Note_on_c, 1, 85, 96
3, 170880, Note_on_c, 1, 97, 96
3, 171000, Note_off_c, 1, 61, 0
3, 171000, Note_off_c, 1, 73, 0
3, 171000, Note_off_c, 1, 85, 0
3, 171000, Note_off_c, 1, 97, 0
3, 171840, Note_on_c, 1, 73, 96
3, 171840, Note_on_c, 1, 85, 96
3, 171840, Note_on_c, 1, 97, 96
3, 171960, Note_off_c, 1, 73, 0
3, 171960, Note_off_c, 1, 85, 0
3, 171960, Note_off_c, 1, 97, 0
3, 172800, Note_on_c, 1, 61, 96
3, 172800, Note_on_c, 1, 73, 96
3, 172800, Note_on_c, 1, 85, 96
3, 172800, Note_on_c, 1, 97, 96
3, 172920, Note_off_c, 1, 61, 0
3, 172920, Note_off_c, 1, 73, 0
3, 172920, Note_off_c, 1, 85, 0
3, 172920, Note_off_c, 1, 97, 0
3, 173760, Note_on_c, 1, 73, 96
3, 173760, Note_on_c, 1, 85, 96
3, 173760, Note_on_c, 1, 97, 96
3, 173880, Note_off_c, 1, 73, 0
3, 173880, Note_off_c, 1, 85, 0
3, 173880, Note_off_c, 1, 97, 0
3, 174720, Note_on_c, 1, 61, 96
3, 174720, Note_on_c, 1, 73, 96
3, 174720, Note_on_c, 1, 85, 96
3, 174720, Note_on_c, 1, 97, 96
3, 174840, Note_off_c, 1, 61, 0
3, 174840, Note_off_c, 1, 73, 0
3, 174840, Note_off_c, 1, 85, 0
3, 174840, Note_off_c, 1, 97, 0
3, 175680, Note_on_c, 1, 73, 96
3, 175680, Note_on_c, 1, 85, 96
3, 175680, Note_on_c, 1, 97, 96
3, 175800, Note_off_c, 1, 73, 0
3, 175800, Note_off_c, 1, 85, 0
3, 175800, Note_off_c, 1, 97, 0
3, 176320, Note_on_c, 1, 97, 96
3, 176440, Note_off_c, 1, 97, 0
3, 176640, Note_on_c, 1, 62, 96
3, 176640, Note_on_c, 1, 75, 96
3, 176640, Note_on_c, 1, 87, 96
3, 176640, Note_on_c, 1, 99, 96
3, 176760, Note_off_c, 1, 62, 0
3, 176760, Note_off_c, 1, 75, 0
3, 176760, Note_off_c, 1, 87, 0
3, 176760, Note_off_c, 1, 99, 0
3, 177600, Note_on_c, 1, 75, 96
3, 177600, Note_on_c, 1, 87, 96
3, 177600, Note_on_c, 1, 99, 96
3, 177720, Note_off_c, 1, 75, 0
3, 177720, Note_off_c, 1, 87, 0
3, 177720, Note_off_c, 1, 99, 0
3, 178560, Note_on_c, 1, 62, 96
3, 178560, Note_on_c, 1, 75, 96
3, 178560, Note_on_c, 1, 87, 96
3, 178560, Note_on_c, 1, 99, 96
3, 178680, Note_off_c, 1, 62, 0
3, 178680, Note_off_c, 1, 75, 0
3, 178680, Note_off_c, 1, 87, 0
3, 178680, Note_off_c, 1, 99, 0
3, 179520, Note_on_c, 1, 75, 96
3, 179520, Note_on_c, 1, 87, 96
3, 179520, Note_on_c, 1, 99, 96
3, 179640, Note_off_c, 1, 75, 0
3, 179640, Note_off_c, 1, 87, 0
3, 179640, Note_off_c, 1, 99, 0
3, 180480, Note_on_c, 1, 62, 96
3, 180480, Note_on_c, 1, 75, 96
3, 180480, Note_on_c, 1, 87, 96
3, 180480, Note_on_c, 1, 99, 96
3, 180600, Note_off_c, 1, 62, 0
3, 180600, Note_off_c, 1, 75, 0
3, 180600, Note_off_c, 1, 87, 0
3, 180600, Note_off_c, 1, 99, 0
3, 181440, Note_on_c, 1, 73, 96
3, 181440, Note_on_c, 1, 85, 96
3, 181440, Note_on_c, 1, 97, 96
3, 181560, Note_off_c, 1, 73, 0
3, 181560, Note_off_c, 1, 85, 0
3, 181560, Note_off_c, 1, 97, 0
3, 182400, Note_on_c, 1, 62, 96
3, 182400, Note_on_c, 1, 75, 96
3, 182400, Note_on_c, 1, 87, 96
3, 182400, Note_on_c, 1, 99, 96
3, 182520, Note_off_c, 1, 62, 0
3, 182520, Note_off_c, 1, 75, 0
3, 182520, Note_off_c, 1, 87, 0
3, 182520, Note_off_c, 1, 99, 0
3, 183360, Note_on_c, 1, 75, 96
3, 183360, Note_on_c, 1, 87, 96
3, 183360, Note_on_c, 1, 99, 96
3, 183480, Note_off_c, 1, 75, 0
3, 183480, Note_off_c, 1, 87, 0
3, 183480, Note_off_c, 1, 99, 0
3, 183840, Note_on_c, 1, 99, 96
3, 183960, Note_off_c, 1, 99, 0
3, 184320, Note_on_c, 1, 60, 96
3, 184320, Note_on_c, 1, 67, 96
3, 184320, Note_on_c, 1, 72, 96
3, 184320, Note_on_c, 1, 79, 96
3, 184320, Note_on_c, 1, 84, 96
3, 184320, Note_on_c, 1, 91, 96
3, 184320, Note_on_c, 1, 96, 96
3, 184320, Note_on_c, 1, 103, 96
3, 184440, Note_off_c, 1, 60, 0
3, 184440, Note_off_c, 1, 72, 0
3, 184440, Note_off_c, 1, 84, 0
3, 184440, Note_off_c, 1, 96, 0
3, 185280, Note_on_c, 1, 74, 96
3, 185280, Note_on_c, 1, 86, 96
3, 185280, Note_on_c, 1, 98, 96
3, 185400, Note_off_c, 1, 74, 0
3, 185400, Note_off_c, 1, 86, 0
3, 185400, Note_off_c, 1, 98, 0
3, 186240, Note_on_c, 1, 60, 96
3, 186240, Note_on_c, 1, 72, 96
3, 186240, Note_on_c, 1, 84, 96
3, 186240, Note_on_c, 1, 96, 96
3, 186360, Note_off_c, 1, 60, 0
3, 186360, Note_off_c, 1, 72, 0
3, 186360, Note_off_c, 1, 84, 0
3, 186360, Note_off_c, 1, 96, 0
3, 187200, Note_on_c, 1, 74, 96
3, 187200, Note_on_c, 1, 86, 96
3, 187200, Note_on_c, 1, 98, 96
3, 187320, Note_off_c, 1, 74, 0
3, 187320, Note_off_c, 1, 86, 0
3, 187320, Note_off_c, 1, 98, 0
3, 188160, Note_off_c, 1, 67, 0
3, 188160, Note_off_c, 1, 79, 0
3, 188160, Note_off_c, 1, 91, 0
3, 188160, Note_off_c, 1, 103, 0
3, 188160, Note_on_c, 1, 60, 96
3, 188160, Note_on_c, 1, 72, 96
3, 188160, Note_on_c, 1, 84, 96
3, 188160, Note_on_c, 1, 96, 96
3, 188280, Note_off_c, 1, 60, 0
3, 188280, Note_off_c, 1, 72, 0
3, 188280, Note_off_c, 1, 84, 0
3, 188280, Note_off_c, 1, 96, 0
3, 189120, Note_on_c, 1, 74, 96
3, 189120, Note_on_c, 1, 86, 96
3, 189120, Note_on_c, 1, 98, 96
3, 189240, Note_off_c, 1, 74, 0
3, 189240, Note_off_c, 1, 86, 0
3, 189240, Note_off_c, 1, 98, 0
3, 190080, Note_on_c, 1, 60, 96
3, 190080, Note_on_c, 1, 72, 96
3, 190080, Note_on_c, 1, 84, 96
3, 190080, Note_on_c, 1, 96, 96
3, 190200, Note_off_c, 1, 60, 0
3, 190200, Note_off_c, 1, 72, 0
3, 190200, Note_off_c, 1, 84, 0
3, 190200, Note_off_c, 1, 96, 0
3, 191040, Note_on_c, 1, 74, 96
3, 191040, Note_on_c, 1, 86, 96
3, 191040, Note_on_c, 1, 98, 96
3, 191280, Note_off_c, 1, 74, 0
3, 191280, Note_off_c, 1, 86, 0
3, 191760, Note_off_c, 1, 98, 0
3, 192000, Note_on_c, 1, 60, 96
3, 192000, Note_on_c, 1, 72, 96
3, 192000, Note_on_c, 1, 84, 96
3, 192000, Note_on_c, 1, 96, 96
3, 192120, Note_off_c, 1, 60, 0
3, 192120, Note_off_c, 1, 72, 0
3, 192120, Note_off_c, 1, 84, 0
3, 192120, Note_off_c, 1, 96, 0
3, 192960, Note_on_c, 1, 74, 96
3, 192960, Note_on_c, 1, 86, 96
3, 192960, Note_on_c, 1, 98, 96
3, 193080, Note_off_c, 1, 74, 0
3, 193080, Note_off_c, 1, 86, 0
3, 193080, Note_off_c, 1, 98, 0
3, 193920, Note_on_c, 1, 60, 96
3, 193920, Note_on_c, 1, 72, 96
3, 193920, Note_on_c, 1, 84, 96
3, 193920, Note_on_c, 1, 96, 96
3, 194040, Note_off_c, 1, 60, 0
3, 194040, Note_off_c, 1, 72, 0
3, 194040, Note_off_c, 1, 84, 0
3, 194040, Note_off_c, 1, 96, 0
3, 194880, Note_on_c, 1, 74, 96
3, 194880, Note_on_c, 1, 86, 96
3, 194880, Note_on_c, 1, 98, 96
3, 195000, Note_off_c, 1, 74, 0
3, 195000, Note_off_c, 1, 86, 0
3, 195000, Note_off_c, 1, 98, 0
3, 195840, Note_on_c, 1, 60, 96
3, 195840, Note_on_c, 1, 72, 96
3, 195840, Note_on_c, 1, 84, 96
3, 195840, Note_on_c, 1, 96, 96
3, 195960, Note_off_c, 1, 60, 0
3, 195960, Note_off_c, 1, 72, 0
3, 195960, Note_off_c, 1, 84, 0
3, 195960, Note_off_c, 1, 96, 0
3, 196800, Note_on_c, 1, 74, 96
3, 196800, Note_on_c, 1, 86, 96
3, 196800, Note_on_c, 1, 98, 96
3, 196920, Note_off_c, 1, 74, 0
3, 196920, Note_off_c, 1, 86, 0
3, 196920, Note_off_c, 1, 98, 0
3, 197760, Note_on_c, 1, 60, 96
3, 197760, Note_on_c, 1, 72, 96
3, 197760, Note_on_c, 1, 84, 96
3, 197760, Note_on_c, 1, 96, 96
3, 197880, Note_off_c, 1, 60, 0
3, 197880, Note_off_c, 1, 72, 0
3, 197880, Note_off_c, 1, 84, 0
3, 197880, Note_off_c, 1, 96, 0
3, 198720, Note_on_c, 1, 74, 96
3, 198720, Note_on_c, 1, 86, 96
3, 198720, Note_on_c, 1, 98, 96
3, 198840, Note_off_c, 1, 74, 0
3, 198840, Note_off_c, 1, 86, 0
3, 198840, Note_off_c, 1, 98, 0
3, 199680, Note_on_c, 1, 60, 96
3, 199680, Note_on_c, 1, 72, 96
3, 199680, Note_on_c, 1, 84, 96
3, 199680, Note_on_c, 1, 96, 96
3, 199800, Note_off_c, 1, 60, 0
3, 199800, Note_off_c, 1, 72, 0
3, 199800, Note_off_c, 1, 84, 0
3, 199800, Note_off_c, 1, 96, 0
3, 200640, Note_on_c, 1, 73, 96
3, 200640, Note_on_c, 1, 85, 96
3, 200640, Note_on_c, 1, 97, 96
3, 200760, Note_off_c, 1, 73, 0
3, 200760, Note_off_c, 1, 85, 0
3, 200760, Note_off_c, 1, 97, 0
3, 201600, Note_on_c, 1, 61, 96
3, 201600, Note_on_c, 1, 74, 96
3, 201600, Note_on_c, 1, 86, 96
3, 201600, Note_on_c, 1, 98, 96
3, 201720, Note_off_c, 1, 61, 0
3, 201720, Note_off_c, 1, 74, 0
3, 201720, Note_off_c, 1, 86, 0
3, 201720, Note_off_c, 1, 98, 0
3, 202560, Note_on_c, 1, 72, 96
3, 202560, Note_on_c, 1, 85, 96
3, 202560, Note_on_c, 1, 97, 96
3, 202680, Note_off_c, 1, 72, 0
3, 202680, Note_off_c, 1, 85, 0
3, 202680, Note_off_c, 1, 97, 0
3, 203520, Note_on_c, 1, 61, 96
3, 203520, Note_on_c, 1, 74, 96
3, 203520, Note_on_c, 1, 87, 96
3, 203520, Note_on_c, 1, 99, 96
3, 203640, Note_off_c, 1, 61, 0
3, 203640, Note_off_c, 1, 74, 0
3, 203640, Note_off_c, 1, 87, 0
3, 203640, Note_off_c, 1, 99, 0
3, 204480, Note_on_c, 1, 73, 96
3, 204480, Note_on_c, 1, 86, 96
3, 204480, Note_on_c, 1, 98, 96
3, 204600, Note_off_c, 1, 73, 0
3, 204600, Note_off_c, 1, 86, 0
3, 204600, Note_off_c, 1, 98, 0
3, 205440, Note_on_c, 1, 62, 96
3, 205440, Note_on_c, 1, 75, 96
3, 205440, Note_on_c, 1, 88, 96
3, 205440, Note_on_c, 1, 100, 96
3, 205560, Note_off_c, 1, 62, 0
3, 205560, Note_off_c, 1, 75, 0
3, 205560, Note_off_c, 1, 88, 0
3, 205560, Note_off_c, 1, 100, 0
3, 206400, Note_on_c, 1, 74, 96
3, 206400, Note_on_c, 1, 87, 96
3, 206400, Note_on_c, 1, 99, 96
3, 206520, Note_off_c, 1, 74, 0
3, 206520, Note_off_c, 1, 87, 0
3, 206520, Note_off_c, 1, 99, 0
3, 207360, Note_on_c, 1, 61, 96
3, 207360, Note_on_c, 1, 73, 96
3, 207360, Note_on_c, 1, 85, 96
3, 207360, Note_on_c, 1, 97, 96
3, 207480, Note_off_c, 1, 61, 0
3, 207480, Note_off_c, 1, 73, 0
3, 207480, Note_off_c, 1, 85, 0
3, 207480, Note_off_c, 1, 97, 0
3, 208320, Note_on_c, 1, 73, 96
3, 208320, Note_on_c, 1, 85, 96
3, 208320, Note_on_c, 1, 97, 96
3, 208440, Note_off_c, 1, 73, 0
3, 208440, Note_off_c, 1, 85, 0
3, 208440, Note_off_c, 1, 97, 0
3, 208960, Note_on_c, 1, 96, 96
3, 209080, Note_off_c, 1, 96, 0
3, 209280, Note_on_c, 1, 61, 96
3, 209280, Note_on_c, 1, 73, 96
3, 209280, Note_on_c, 1, 85, 96
3, 209280, Note_on_c, 1, 97, 96
3, 209400, Note_off_c, 1, 61, 0
3, 209400, Note_off_c, 1, 73, 0
3, 209400, Note_off_c, 1, 85, 0
3, 209400, Note_off_c, 1, 97, 0
3, 209920, Note_on_c, 1, 96, 96
3, 210040, Note_off_c, 1, 96, 0
3, 210240, Note_on_c, 1, 73, 96
3, 210240, Note_on_c, 1, 85, 96
3, 210240, Note_on_c, 1, 97, 96
3, 210360, Note_off_c, 1, 73, 0
3, 210360, Note_off_c, 1, 85, 0
3, 210360, Note_off_c, 1, 97, 0
3, 210880, Note_on_c, 1, 96, 96
3, 211000, Note_off_c, 1, 96, 0
3, 211200, Note_on_c, 1, 61, 96
3, 211200, Note_on_c, 1, 73, 96
3, 211200, Note_on_c, 1, 85, 96
3, 211200, Note_on_c, 1, 97, 96
3, 211320, Note_off_c, 1, 61, 0
3, 211320, Note_off_c, 1, 73, 0
3, 211320, Note_off_c, 1, 85, 0
3, 211320, Note_off_c, 1, 97, 0
3, 212160, Note_on_c, 1, 73, 96
3, 212160, Note_on_c, 1, 85, 96
3, 212160, Note_on_c, 1, 97, 96
3, 212280, Note_off_c, 1, 73, 0
3, 212280, Note_off_c, 1, 85, 0
3, 212280, Note_off_c, 1, 97, 0
3, 212800, Note_on_c, 1, 96, 96
3, 212920, Note_off_c, 1, 96, 0
3, 213120, Note_on_c, 1, 61, 96
3, 213120, Note_on_c, 1, 73, 96
3, 213120, Note_on_c, 1, 85, 96
3, 213120, Note_on_c, 1, 97, 96
3, 213240, Note_off_c, 1, 61, 0
3, 213240, Note_off_c, 1, 73, 0
3, 213240, Note_off_c, 1, 85, 0
3, 213240, Note_off_c, 1, 97, 0
3, 213760, Note_on_c, 1, 96, 96
3, 213880, Note_off_c, 1, 96, 0
3, 214080, Note_on_c, 1, 73, 96
3, 214080, Note_on_c, 1, 85, 96
3, 214080, Note_on_c, 1, 97, 96
3, 214200, Note_off_c, 1, 73, 0
3, 214200, Note_off_c, 1, 85, 0
3, 214200, Note_off_c, 1, 97, 0
3, 215040, Note_on_c, 1, 60, 96
3, 215040, Note_on_c, 1, 72, 96
3, 215040, Note_on_c, 1, 84, 96
3, 215040, Note_on_c, 1, 96, 96
3, 215160, Note_off_c, 1, 60, 0
3, 215160, Note_off_c, 1, 72, 0
3, 215160, Note_off_c, 1, 84, 0
3, 215160, Note_off_c, 1, 96, 0
3, 216000, Note_on_c, 1, 73, 96
3, 216000, Note_on_c, 1, 85, 96
3, 216000, Note_on_c, 1, 97, 96
3, 216120, Note_off_c, 1, 73, 0
3, 216120, Note_off_c, 1, 85, 0
3, 216120, Note_off_c, 1, 97, 0
3, 216960, Note_on_c, 1, 61, 96
3, 216960, Note_on_c, 1, 74, 96
3, 216960, Note_on_c, 1, 86, 96
3, 216960, Note_on_c, 1, 98, 96
3, 217080, Note_off_c, 1, 61, 0
3, 217080, Note_off_c, 1, 74, 0
3, 217080, Note_off_c, 1, 86, 0
3, 217080, Note_off_c, 1, 98, 0
3, 217920, Note_on_c, 1, 72, 96
3, 217920, Note_on_c, 1, 85, 96
3, 217920, Note_on_c, 1, 97, 96
3, 218040, Note_off_c, 1, 72, 0
3, 218040, Note_off_c, 1, 85, 0
3, 218040, Note_off_c, 1, 97, 0
3, 218880, Note_on_c, 1, 61, 96
3, 218880, Note_on_c, 1, 74, 96
3, 218880, Note_on_c, 1, 87, 96
3, 218880, Note_on_c, 1, 99, 96
3, 219000, Note_off_c, 1, 61, 0
3, 219000, Note_off_c, 1, 74, 0
3, 219000, Note_off_c, 1, 87, 0
3, 219000, Note_off_c, 1, 99, 0
3, 219840, Note_on_c, 1, 73, 96
3, 219840, Note_on_c, 1, 86, 96
3, 219840, Note_on_c, 1, 98, 96
3, 219960, Note_off_c, 1, 73, 0
3, 219960, Note_off_c, 1, 86, 0
3, 219960, Note_off_c, 1, 98, 0
3, 220800, Note_on_c, 1, 62, 96
3, 220800, Note_on_c, 1, 75, 96
3, 220800, Note_on_c, 1, 88, 96
3, 220800, Note_on_c, 1, 100, 96
3, 220920, Note_off_c, 1, 62, 0
3, 220920, Note_off_c, 1, 75, 0
3, 220920, Note_off_c, 1, 88, 0
3, 220920, Note_off_c, 1, 100, 0
3, 221760, Note_on_c, 1, 74, 96
3, 221760, Note_on_c, 1, 87, 96
3, 221760, Note_on_c, 1, 99, 96
3, 221880, Note_off_c, 1, 74, 0
3, 221880, Note_off_c, 1, 87, 0
3, 221880, Note_off_c, 1, 99, 0
3, 222720, Note_on_c, 1, 61, 96
3, 222720, Note_on_c, 1, 73, 96
3, 222720, Note_on_c, 1, 85, 96
3, 222720, Note_on_c, 1, 97, 96
3, 222840, Note_off_c, 1, 61, 0
3, 222840, Note_off_c, 1, 73, 0
3, 222840, Note_off_c, 1, 85, 0
3, 222840, Note_off_c, 1, 97, 0
3, 223680, Note_on_c, 1, 73, 96
3, 223680, Note_on_c, 1, 85, 96
3, 223680, Note_on_c, 1, 97, 96
3, 223800, Note_off_c, 1, 73, 0
3, 223800, Note_off_c, 1, 85, 0
3, 223800, Note_off_c, 1, 97, 0
3, 224640, Note_on_c, 1, 61, 96
3, 224640, Note_on_c, 1, 73, 96
3, 224640, Note_on_c, 1, 85, 96
3, 224640, Note_on_c, 1, 97, 96
3, 224760, Note_off_c, 1, 61, 0
3, 224760, Note_off_c, 1, 73, 0
3, 224760, Note_off_c, 1, 85, 0
3, 224760, Note_off_c, 1, 97, 0
3, 225600, Note_on_c, 1, 73, 96
3, 225600, Note_on_c, 1, 85, 96
3, 225600, Note_on_c, 1, 97, 96
3, 225720, Note_off_c, 1, 73, 0
3, 225720, Note_off_c, 1, 85, 0
3, 225720, Note_off_c, 1, 97, 0
3, 226560, Note_on_c, 1, 61, 96
3, 226560, Note_on_c, 1, 67, 96
3, 226560, Note_on_c, 1, 73, 96
3, 226560, Note_on_c, 1, 79, 96
3, 226560, Note_on_c, 1, 85, 96
3, 226560, Note_on_c, 1, 91, 96
3, 226560, Note_on_c, 1, 97, 96
3, 226560, Note_on_c, 1, 103, 96
3, 226680, Note_off_c, 1, 61, 0
3, 226680, Note_off_c, 1, 73, 0
3, 226680, Note_off_c, 1, 85, 0
3, 226680, Note_off_c, 1, 97, 0
3, 227200, Note_on_c, 1, 96, 96
3, 227320, Note_off_c, 1, 96, 0
3, 227520, Note_on_c, 1, 73, 96
3, 227520, Note_on_c, 1, 85, 96
3, 227520, Note_on_c, 1, 97, 96
3, 227640, Note_off_c, 1, 73, 0
3, 227640, Note_off_c, 1, 85, 0
3, 227640, Note_off_c, 1, 97, 0
3, 228480, Note_on_c, 1, 61, 96
3, 228480, Note_on_c, 1, 73, 96
3, 228480, Note_on_c, 1, 85, 96
3, 228480, Note_on_c, 1, 97, 96
3, 228600, Note_off_c, 1, 61, 0
3, 228600, Note_off_c, 1, 73, 0
3, 228600, Note_off_c, 1, 85, 0
3, 228600, Note_off_c, 1, 97, 0
3, 229440, Note_on_c, 1, 73, 96
3, 229440, Note_on_c, 1, 85, 96
3, 229440, Note_on_c, 1, 97, 96
3, 229560, Note_off_c, 1, 73, 0
3, 229560, Note_off_c, 1, 85, 0
3, 229560, Note_off_c, 1, 97, 0
3, 230400, Note_off_c, 1, 67, 0
3, 230400, Note_off_c, 1, 79, 0
3, 230400, Note_off_c, 1, 91, 0
3, 230400, Note_off_c, 1, 103, 0
3, 230400, Note_on_c, 1, 62, 96
3, 230400, Note_on_c, 1, 75, 96
3, 230400, Note_on_c, 1, 88, 96
3, 230400, Note_on_c, 1, 100, 96
3, 230520, Note_off_c, 1, 62, 0
3, 230520, Note_off_c, 1, 75, 0
3, 230520, Note_off_c, 1, 88, 0
3, 230520, Note_off_c, 1, 100, 0
3, 230720, Note_on_c, 1, 100, 96
3, 230840, Note_off_c, 1, 100, 0
3, 231040, Note_on_c, 1, 75, 96
3, 231040, Note_on_c, 1, 88, 96
3, 231040, Note_on_c, 1, 100, 96
3, 231280, Note_off_c, 1, 75, 0
3, 231280, Note_off_c, 1, 88, 0
3, 231680, Note_off_c, 1, 100, 0
3, 231840, Note_on_c, 1, 88, 96
3, 231840, Note_on_c, 1, 100, 96
3, 231960, Note_off_c, 1, 88, 0
3, 231960, Note_off_c, 1, 100, 0
3, 232320, Note_on_c, 1, 61, 96
3, 232320, Note_on_c, 1, 74, 96
3, 232320, Note_on_c, 1, 87, 96
3, 232320, Note_on_c, 1, 99, 96
3, 232440, Note_off_c, 1, 61, 0
3, 232440, Note_off_c, 1, 74, 0
3, 232440, Note_off_c, 1, 87, 0
3, 232440, Note_off_c, 1, 99, 0
3, 232640, Note_on_c, 1, 99, 96
3, 232760, Note_off_c, 1, 99, 0
3, 232960, Note_on_c, 1, 99, 96
3, 233080, Note_off_c, 1, 99, 0
3, 233280, Note_on_c, 1, 74, 96
3, 233280, Note_on_c, 1, 87, 96
3, 233280, Note_on_c, 1, 99, 96
3, 233400, Note_off_c, 1, 74, 0
3, 233400, Note_off_c, 1, 87, 0
3, 233400, Note_off_c, 1, 99, 0
3, 233600, Note_on_c, 1, 99, 96
3, 233720, Note_off_c, 1, 99, 0
3, 233920, Note_on_c, 1, 99, 96
3, 234040, Note_off_c, 1, 99, 0
3, 234240, Note_on_c, 1, 61, 96
3, 234240, Note_on_c, 1, 73, 96
3, 234240, Note_on_c, 1, 86, 96
3, 234240, Note_on_c, 1, 98, 96
3, 234360, Note_off_c, 1, 61, 0
3, 234360, Note_off_c, 1, 73, 0
3, 234360, Note_off_c, 1, 86, 0
3, 234360, Note_off_c, 1, 98, 0
3, 234880, Note_on_c, 1, 99, 96
3, 235000, Note_off_c, 1, 99, 0
3, 235200, Note_on_c, 1, 73, 96
3, 235200, Note_on_c, 1, 86, 96
3, 235200, Note_on_c, 1, 98, 96
3, 235440, Note_off_c, 1, 73, 0
3, 235440, Note_off_c, 1, 86, 0
3, 235920, Note_off_c, 1, 98, 0
3, 236160, Note_on_c, 1, 61, 96
3, 236160, Note_on_c, 1, 73, 96
3, 236160, Note_on_c, 1, 85, 96
3, 236160, Note_on_c, 1, 97, 96
3, 236280, Note_off_c, 1, 61, 0
3, 236280, Note_off_c, 1, 73, 0
3, 236280, Note_off_c, 1, 85, 0
3, 236280, Note_off_c, 1, 97, 0
3, 236480, Note_on_c, 1, 97, 96
3, 236600, Note_off_c, 1, 97, 0
3, 236800, Note_on_c, 1, 97, 96
3, 236920, Note_off_c, 1, 97, 0
3, 237120, Note_on_c, 0, 60, 96
3, 237120, Note_on_c, 1, 72, 96
3, 237120, Note_on_c, 1, 86, 96
3, 237120, Note_on_c, 1, 98, 96
3, 237240, Note_off_c, 0, 60, 0
3, 237240, Note_off_c, 1, 72, 0
3, 237240, Note_off_c, 1, 86, 0
3, 237240, Note_off_c, 1, 98, 0
3, 237440, Note_on_c, 1, 98, 96
3, 237560, Note_off_c, 1, 98, 0
3, 237760, Note_on_c, 1, 98, 96
3, 237880, Note_off_c, 1, 98, 0
3, 238080, Note_on_c, 1, 61, 96
3, 238080, Note_on_c, 1, 73, 96
3, 238080, Note_on_c, 1, 85, 96
3, 238080, Note_on_c, 1, 97, 96
3, 238200, Note_off_c, 1, 61, 0
3, 238200, Note_off_c, 1, 73, 0
3, 238200, Note_off_c, 1, 85, 0
3, 238200, Note_off_c, 1, 97, 0
3, 239040, Note_on_c, 1, 73, 96
3, 239040, Note_on_c, 1, 85, 96
3, 239040, Note_on_c, 1, 97, 96
3, 239160, Note_off_c, 1, 73, 0
3, 239160, Note_off_c, 1, 85, 0
3, 239160, Note_off_c, 1, 97, 0
3, 239680, Note_on_c, 1, 96, 96
3, 239800, Note_off_c, 1, 96, 0
3, 240000, Note_on_c, 1, 61, 96
3, 240000, Note_on_c, 1, 73, 96
3, 240000, Note_on_c, 1, 85, 96
3, 240000, Note_on_c, 1, 97, 96
3, 240120, Note_off_c, 1, 61, 0
3, 240120, Note_off_c, 1, 73, 0
3, 240120, Note_off_c, 1, 85, 0
3, 240120, Note_off_c, 1, 97, 0
3, 240640, Note_on_c, 1, 96, 96
3, 240760, Note_off_c, 1, 96, 0
3, 240960, Note_on_c, 1, 73, 96
3, 240960, Note_on_c, 1, 85, 96
3, 240960, Note_on_c, 1, 97, 96
3, 241080, Note_off_c, 1, 73, 0
3, 241080, Note_off_c, 1, 85, 0
3, 241080, Note_off_c, 1, 97, 0
3, 241600, Note_on_c, 1, 96, 96
3, 241720, Note_off_c, 1, 96, 0
3, 241920, Note_on_c, 1, 61, 96
3, 241920, Note_on_c, 1, 73, 96
3, 241920, Note_on_c, 1, 85, 96
3, 241920, Note_on_c, 1, 97, 96
3, 242040, Note_off_c, 1, 61, 0
3, 242040, Note_off_c, 1, 73, 0
3, 242040, Note_off_c, 1, 85, 0
3, 242040, Note_off_c, 1, 97, 0
3, 242560, Note_on_c, 1, 96, 96
3, 242680, Note_off_c, 1, 96, 0
3, 242880, Note_on_c, 1, 73, 96
3, 242880, Note_on_c, 1, 85, 96
3, 242880, Note_on_c, 1, 97, 96
3, 243000, Note_off_c, 1, 73, 0
3, 243000, Note_off_c, 1, 85, 0
3, 243000, Note_off_c, 1, 97, 0
3, 243520, Note_on_c, 1, 96, 96
3, 243640, Note_off_c, 1, 96, 0
3, 243840, Note_on_c, 1, 61, 96
3, 243840, Note_on_c, 1, 73, 96
3, 243840, Note_on_c, 1, 85, 96
3, 243840, Note_on_c, 1, 97, 96
3, 243960, Note_off_c, 1, 61, 0
3, 243960, Note_off_c, 1, 73, 0
3, 243960, Note_off_c, 1, 85, 0
3, 243960, Note_off_c, 1, 97, 0
3, 244480, Note_on_c, 1, 96, 96
3, 244600, Note_off_c, 1, 96, 0
3, 244800, Note_on_c, 1, 73, 96
3, 244800, Note_on_c, 1, 85, 96
3, 244800, Note_on_c, 1, 97, 96
3, 244920, Note_off_c, 1, 73, 0
3, 244920, Note_off_c, 1, 85, 0
3, 244920, Note_off_c, 1, 97, 0
3, 245440, Note_on_c, 1, 98, 96
3, 245560, Note_off_c, 1, 98, 0
3, 245760, Note_on_c, 1, 60, 96
3, 245760, Note_on_c, 1, 72, 96
3, 245760, Note_on_c, 1, 85, 96
3, 245760, Note_on_c, 1, 97, 96
3, 245880, Note_off_c, 1, 60, 0
3, 245880, Note_off_c, 1, 72, 0
3, 245880, Note_off_c, 1, 85, 0
3, 245880, Note_off_c, 1, 97, 0
3, 246080, Note_on_c, 1, 97, 96
3, 246200, Note_off_c, 1, 97, 0
3, 246400, Note_on_c, 1, 97, 96
3, 246520, Note_off_c, 1, 97, 0
3, 246720, Note_on_c, 1, 72, 96
3, 246720, Note_on_c, 1, 85, 96
3, 246720, Note_on_c, 1, 97, 96
3, 246840, Note_off_c, 1, 72, 0
3, 246840, Note_off_c, 1, 85, 0
3, 246840, Note_off_c, 1, 97, 0
3, 247040, Note_on_c, 1, 97, 96
3, 247160, Note_off_c, 1, 97, 0
3, 247360, Note_on_c, 1, 96, 96
3, 247480, Note_off_c, 1, 96, 0
3, 247680, Note_on_c, 1, 61, 96
3, 247680, Note_on_c, 1, 73, 96
3, 247680, Note_on_c, 1, 86, 96
3, 247680, Note_on_c, 1, 98, 96
3, 247800, Note_off_c, 1, 61, 0
3, 247800, Note_off_c, 1, 73, 0
3, 247800, Note_off_c, 1, 86, 0
3, 247800, Note_off_c, 1, 98, 0
3, 248000, Note_on_c, 1, 98, 96
3, 248120, Note_off_c, 1, 98, 0
3, 248320, Note_on_c, 1, 98, 96
3, 248440, Note_off_c, 1, 98, 0
3, 248640, Note_on_c, 1, 73, 96
3, 248640, Note_on_c, 1, 86, 96
3, 248640, Note_on_c, 1, 98, 96
3, 248760, Note_off_c, 1, 73, 0
3, 248760, Note_off_c, 1, 86, 0
3, 248760, Note_off_c, 1, 98, 0
3, 248960, Note_on_c, 1, 98, 96
3, 249080, Note_off_c, 1, 98, 0
3, 249280, Note_on_c, 1, 97, 96
3, 249400, Note_off_c, 1, 97, 0
3, 249600, Note_on_c, 1, 61, 96
3, 249600, Note_on_c, 1, 74, 96
3, 249600, Note_on_c, 1, 87, 96
3, 249600, Note_on_c, 1, 99, 96
3, 249720, Note_off_c, 1, 61, 0
3, 249720, Note_off_c, 1, 74, 0
3, 249720, Note_off_c, 1, 87, 0
3, 249720, Note_off_c, 1, 99, 0
3, 249920, Note_on_c, 1, 99, 96
3, 250040, Note_off_c, 1, 99, 0
3, 250240, Note_on_c, 1, 99, 96
3, 250360, Note_off_c, 1, 99, 0
3, 250560, Note_on_c, 1, 74, 96
3, 250560, Note_on_c, 1, 87, 96
3, 250560, Note_on_c, 1, 99, 96
3, 250680, Note_off_c, 1, 74, 0
3, 250680, Note_off_c, 1, 87, 0
3, 250680, Note_off_c, 1, 99, 0
3, 250880, Note_on_c, 1, 99, 96
3, 251000, Note_off_c, 1, 99, 0
3, 251200, Note_on_c, 1, 98, 96
3, 251320, Note_off_c, 1, 98, 0
3, 251520, Note_on_c, 1, 62, 96
3, 251520, Note_on_c, 1, 75, 96
3, 251520, Note_on_c, 1, 88, 96
3, 251520, Note_on_c, 1, 100, 96
3, 251640, Note_off_c, 1, 62, 0
3, 251640, Note_off_c, 1, 75, 0
3, 251640, Note_off_c, 1, 88, 0
3, 251640, Note_off_c, 1, 100, 0
3, 251840, Note_on_c, 1, 100, 96
3, 251960, Note_off_c, 1, 100, 0
3, 252160, Note_on_c, 1, 100, 96
3, 252280, Note_off_c, 1, 100, 0
3, 252480, Note_on_c, 1, 75, 96
3, 252480, Note_on_c, 1, 88, 96
3, 252480, Note_on_c, 1, 100, 96
3, 252720, Note_off_c, 1, 75, 0
3, 252720, Note_off_c, 1, 88, 0
3, 253280, Note_off_c, 1, 100, 0
3, 253440, Note_on_c, 1, 61, 96
3, 253440, Note_on_c, 1, 73, 96
3, 253440, Note_on_c, 1, 85, 96
3, 253440, Note_on_c, 1, 97, 96
3, 253560, Note_off_c, 1, 61, 0
3, 253560, Note_off_c, 1, 73, 0
3, 253560, Note_off_c, 1, 85, 0
3, 253560, Note_off_c, 1, 97, 0
3, 254080, Note_on_c, 1, 96, 96
3, 254200, Note_off_c, 1, 96, 0
3, 254400, Note_on_c, 1, 73, 96
3, 254400, Note_on_c, 1, 85, 96
3, 254400, Note_on_c, 1, 97, 96
3, 254520, Note_off_c, 1, 73, 0
3, 254520, Note_off_c, 1, 85, 0
3, 254520, Note_off_c, 1, 97, 0
3, 255360, Note_on_c, 1, 61, 96
3, 255360, Note_on_c, 1, 73, 96
3, 255360, Note_on_c, 1, 85, 96
3, 255360, Note_on_c, 1, 97, 96
3, 255480, Note_off_c, 1, 61, 0
3, 255480, Note_off_c, 1, 73, 0
3, 255480, Note_off_c, 1, 85, 0
3, 255480, Note_off_c, 1, 97, 0
3, 256320, Note_on_c, 1, 73, 96
3, 256320, Note_on_c, 1, 85, 96
3, 256320, Note_on_c, 1, 97, 96
3, 256440, Note_off_c, 1, 73, 0
3, 256440, Note_off_c, 1, 85, 0
3, 256440, Note_off_c, 1, 97, 0
3, 257280, Note_on_c, 1, 61, 96
3, 257280, Note_on_c, 1, 73, 96
3, 257280, Note_on_c, 1, 85, 96
3, 257280, Note_on_c, 1, 97, 96
3, 257400, Note_off_c, 1, 61, 0
3, 257400, Note_off_c, 1, 73, 0
3, 257400, Note_off_c, 1, 85, 0
3, 257400, Note_off_c, 1, 97, 0
3, 258240, Note_on_c, 1, 73, 96
3, 258240, Note_on_c, 1, 85, 96
3, 258240, Note_on_c, 1, 97, 96
3, 258360, Note_off_c, 1, 73, 0
3, 258360, Note_off_c, 1, 85, 0
3, 258360, Note_off_c, 1, 97, 0
3, 258880, Note_on_c, 1, 96, 96
3, 259000, Note_off_c, 1, 96, 0
3, 259200, Note_on_c, 1, 61, 96
3, 259200, Note_on_c, 1, 73, 96
3, 259200, Note_on_c, 1, 85, 96
3, 259200, Note_on_c, 1, 97, 96
3, 259320, Note_off_c, 1, 61, 0
3, 259320, Note_off_c, 1, 73, 0
3, 259320, Note_off_c, 1, 85, 0
3, 259320, Note_off_c, 1, 97, 0
3, 259840, Note_on_c, 1, 96, 96
3, 259960, Note_off_c, 1, 96, 0
3, 260160, Note_on_c, 1, 73, 96
3, 260160, Note_on_c, 1, 85, 96
3, 260160, Note_on_c, 1, 97, 96
3, 260280, Note_off_c, 1, 73, 0
3, 260280, Note_off_c, 1, 85, 0
3, 260280, Note_off_c, 1, 97, 0
3, 261120, Note_on_c, 1, 60, 96
3, 261120, Note_on_c, 1, 72, 96
3, 261120, Note_on_c, 1, 84, 96
3, 261120, Note_on_c, 1, 96, 96
3, 261240, Note_off_c, 1, 60, 0
3, 261240, Note_off_c, 1, 72, 0
3, 261240, Note_off_c, 1, 84, 0
3, 261240, Note_off_c, 1, 96, 0
3, 262080, Note_on_c, 1, 74, 96
3, 262080, Note_on_c, 1, 86, 96
3, 262080, Note_on_c, 1, 98, 96
3, 262200, Note_off_c, 1, 74, 0
3, 262200, Note_off_c, 1, 86, 0
3, 262200, Note_off_c, 1, 98, 0
3, 263040, Note_on_c, 1, 60, 96
3, 263040, Note_on_c, 1, 72, 96
3, 263040, Note_on_c, 1, 84, 96
3, 263040, Note_on_c, 1, 96, 96
3, 263160, Note_off_c, 1, 60, 0
3, 263160, Note_off_c, 1, 72, 0
3, 263160, Note_off_c, 1, 84, 0
3, 263160, Note_off_c, 1, 96, 0
3, 264000, Note_on_c, 1, 74, 96
3, 264000, Note_on_c, 1, 86, 96
3, 264000, Note_on_c, 1, 98, 96
3, 264120, Note_off_c, 1, 74, 0
3, 264120, Note_off_c, 1, 86, 0
3, 264120, Note_off_c, 1, 98, 0
3, 264960, Note_on_c, 1, 60, 96
3, 264960, Note_on_c, 1, 72, 96
3, 264960, Note_on_c, 1, 84, 96
3, 264960, Note_on_c, 1, 96, 96
3, 265080, Note_off_c, 1, 60, 0
3, 265080, Note_off_c, 1, 72, 0
3, 265080, Note_off_c, 1, 84, 0
3, 265080, Note_off_c, 1, 96, 0
3, 265920, Note_on_c, 1, 74, 96
3, 265920, Note_on_c, 1, 86, 96
3, 265920, Note_on_c, 1, 98, 96
3, 266040, Note_off_c, 1, 74, 0
3, 266040, Note_off_c, 1, 86, 0
3, 266040, Note_off_c, 1, 98, 0
3, 266880, Note_on_c, 1, 60, 96
3, 266880, Note_on_c, 1, 72, 96
3, 266880, Note_on_c, 1, 84, 96
3, 266880, Note_on_c, 1, 96, 96
3, 267000, Note_off_c, 1, 60, 0
3, 267000, Note_off_c, 1, 72, 0
3, 267000, Note_off_c, 1, 84, 0
3, 267000, Note_off_c, 1, 96, 0
3, 267840, Note_on_c, 1, 74, 96
3, 267840, Note_on_c, 1, 86, 96
3, 267840, Note_on_c, 1, 98, 96
3, 268080, Note_off_c, 1, 74, 0
3, 268080, Note_off_c, 1, 86, 0
3, 268560, Note_off_c, 1, 98, 0
3, 268800, Note_on_c, 1, 60, 96
3, 268800, Note_on_c, 1, 67, 96
3, 268800, Note_on_c, 1, 72, 96
3, 268800, Note_on_c, 1, 79, 96
3, 268800, Note_on_c, 1, 84, 96
3, 268800, Note_on_c, 1, 91, 96
3, 268800, Note_on_c, 1, 96, 96
3, 268800, Note_on_c, 1, 103, 96
3, 268920, Note_off_c, 1, 60, 0
3, 268920, Note_off_c, 1, 72, 0
3, 268920, Note_off_c, 1, 84, 0
3, 268920, Note_off_c, 1, 96, 0
3, 269760, Note_on_c, 1, 74, 96
3, 269760, Note_on_c, 1, 86, 96
3, 269760, Note_on_c, 1, 98, 96
3, 269880, Note_off_c, 1, 74, 0
3, 269880, Note_off_c, 1, 86, 0
3, 269880, Note_off_c, 1, 98, 0
3, 270720, Note_on_c, 1, 60, 96
3, 270720, Note_on_c, 1, 72, 96
3, 270720, Note_on_c, 1, 84, 96
3, 270720, Note_on_c, 1, 96, 96
3, 270840, Note_off_c, 1, 60, 0
3, 270840, Note_off_c, 1, 72, 0
3, 270840, Note_off_c, 1, 84, 0
3, 270840, Note_off_c, 1, 96, 0
3, 271680, Note_on_c, 1, 74, 96
3, 271680, Note_on_c, 1, 86, 96
3, 271680, Note_on_c, 1, 98, 96
3, 271800, Note_off_c, 1, 74, 0
3, 271800, Note_off_c, 1, 86, 0
3, 271800, Note_off_c, 1, 98, 0
3, 272320, Note_on_c, 1, 96, 96
3, 272440, Note_off_c, 1, 96, 0
3, 272640, Note_off_c, 1, 67, 0
3, 272640, Note_off_c, 1, 79, 0
3, 272640, Note_off_c, 1, 91, 0
3, 272640, Note_off_c, 1, 103, 0
3, 272640, Note_on_c, 1, 60, 96
3, 272640, Note_on_c, 1, 72, 96
3, 272640, Note_on_c, 1, 85, 96
3, 272640, Note_on_c, 1, 97, 96
3, 272760, Note_off_c, 1, 60, 0
3, 272760, Note_off_c, 1, 72, 0
3, 272760, Note_off_c, 1, 85, 0
3, 272760, Note_off_c, 1, 97, 0
3, 273600, Note_on_c, 1, 73, 96
3, 273600, Note_on_c, 1, 86, 96
3, 273600, Note_on_c, 1, 98, 96
3, 273720, Note_off_c, 1, 73, 0
3, 273720, Note_off_c, 1, 86, 0
3, 273720, Note_off_c, 1, 98, 0
3, 274560, Note_on_c, 1, 62, 96
3, 274560, Note_on_c, 1, 74, 96
3, 274560, Note_on_c, 1, 87, 96
3, 274560, Note_on_c, 1, 99, 96
3, 274680, Note_off_c, 1, 62, 0
3, 274680, Note_off_c, 1, 74, 0
3, 274680, Note_off_c, 1, 87, 0
3, 274680, Note_off_c, 1, 99, 0
3, 275520, Note_on_c, 1, 75, 96
3, 275520, Note_on_c, 1, 88, 96
3, 275520, Note_on_c, 1, 100, 96
3, 275640, Note_off_c, 1, 75, 0
3, 275640, Note_off_c, 1, 88, 0
3, 275640, Note_off_c, 1, 100, 0
3, 276480, Note_on_c, 1, 60, 96
3, 276480, Note_on_c, 1, 72, 96
3, 276480, Note_on_c, 1, 84, 96
3, 276480, Note_on_c, 1, 96, 96
3, 276600, Note_off_c, 1, 60, 0
3, 276600, Note_off_c, 1, 72, 0
3, 276600, Note_off_c, 1, 84, 0
3, 276600, Note_off_c, 1, 96, 0
3, 277440, Note_on_c, 1, 74, 96
3, 277440, Note_on_c, 1, 86, 96
3, 277440, Note_on_c, 1, 98, 96
3, 277560, Note_off_c, 1, 74, 0
3, 277560, Note_off_c, 1, 86, 0
3, 277560, Note_off_c, 1, 98, 0
3, 278400, Note_on_c, 1, 60, 96
3, 278400, Note_on_c, 1, 72, 96
3, 278400, Note_on_c, 1, 84, 96
3, 278400, Note_on_c, 1, 96, 96
3, 278520, Note_off_c, 1, 60, 0
3, 278520, Note_off_c, 1, 72, 0
3, 278520, Note_off_c, 1, 84, 0
3, 278520, Note_off_c, 1, 96, 0
3, 279360, Note_on_c, 1, 74, 96
3, 279360, Note_on_c, 1, 86, 96
3, 279360, Note_on_c, 1, 98, 96
3, 279480, Note_off_c, 1, 74, 0
3, 279480, Note_off_c, 1, 86, 0
3, 279480, Note_off_c, 1, 98, 0
3, 280320, Note_on_c, 1, 60, 96
3, 280320, Note_on_c, 1, 72, 96
3, 280320, Note_on_c, 1, 84, 96
3, 280320, Note_on_c, 1, 96, 96
3, 280440, Note_off_c, 1, 60, 0
3, 280440, Note_off_c, 1, 72, 0
3, 280440, Note_off_c, 1, 84, 0
3, 280440, Note_off_c, 1, 96, 0
3, 281280, Note_on_c, 1, 74, 96
3, 281280, Note_on_c, 1, 86, 96
3, 281280, Note_on_c, 1, 98, 96
3, 281400, Note_off_c, 1, 74, 0
3, 281400, Note_off_c, 1, 86, 0
3, 281400, Note_off_c, 1, 98, 0
3, 282240, Note_on_c, 1, 60, 96
3, 282240, Note_on_c, 1, 72, 96
3, 282240, Note_on_c, 1, 84, 96
3, 282240, Note_on_c, 1, 96, 96
3, 282360, Note_off_c, 1, 60, 0
3, 282360, Note_off_c, 1, 72, 0
3, 282360, Note_off_c, 1, 84, 0
3, 282360, Note_off_c, 1, 96, 0
3, 282720, Note_on_c, 1, 86, 96
3, 282720, Note_on_c, 1, 98, 96
3, 282840, Note_off_c, 1, 86, 0
3, 282840, Note_off_c, 1, 98, 0
3, 283200, Note_on_c, 1, 75, 96
3, 283200, Note_on_c, 1, 87, 96
3, 283200, Note_on_c, 1, 99, 96
3, 283320, Note_off_c, 1, 75, 0
3, 283320, Note_off_c, 1, 87, 0
3, 283320, Note_off_c, 1, 99, 0
3, 283680, Note_on_c, 1, 100, 96
3, 283800, Note_off_c, 1, 100, 0
3, 284160, Note_on_c, 1, 60, 96
3, 284160, Note_on_c, 1, 72, 96
3, 284160, Note_on_c, 1, 84, 96
3, 284160, Note_on_c, 1, 96, 96
3, 284280, Note_off_c, 1, 60, 0
3, 284280, Note_off_c, 1, 72, 0
3, 284280, Note_off_c, 1, 84, 0
3, 284280, Note_off_c, 1, 96, 0
3, 285120, Note_on_c, 1, 74, 96
3, 285120, Note_on_c, 1, 86, 96
3, 285120, Note_on_c, 1, 98, 96
3, 285240, Note_off_c, 1, 74, 0
3, 285240, Note_off_c, 1, 86, 0
3, 285240, Note_off_c, 1, 98, 0
3, 286080, Note_on_c, 1, 60, 96
3, 286080, Note_on_c, 1, 72, 96
3, 286080, Note_on_c, 1, 84, 96
3, 286080, Note_on_c, 1, 96, 96
3, 286200, Note_off_c, 1, 60, 0
3, 286200, Note_off_c, 1, 72, 0
3, 286200, Note_off_c, 1, 84, 0
3, 286200, Note_off_c, 1, 96, 0
3, 287040, Note_on_c, 1, 74, 96
3, 287040, Note_on_c, 1, 86, 96
3, 287040, Note_on_c, 1, 98, 96
3, 287160, Note_off_c, 1, 74, 0
3, 287160, Note_off_c, 1, 86, 0
3, 287160, Note_off_c, 1, 98, 0
3, 288000, Note_on_c, 1, 60, 96
3, 288000, Note_on_c, 1, 72, 96
3, 288000, Note_on_c, 1, 84, 96
3, 288000, Note_on_c, 1, 96, 96
3, 288120, Note_off_c, 1, 60, 0
3, 288120, Note_off_c, 1, 72, 0
3, 288120, Note_off_c, 1, 84, 0
3, 288120, Note_off_c, 1, 96, 0
3, 288960, Note_on_c, 1, 74, 96
3, 288960, Note_on_c, 1, 86, 96
3, 288960, Note_on_c, 1, 98, 96
3, 289080, Note_off_c, 1, 74, 0
3, 289080, Note_off_c, 1, 86, 0
3, 289080, Note_off_c, 1, 98, 0
3, 289920, Note_on_c, 1, 60, 96
3, 289920, Note_on_c, 1, 72, 96
3, 289920, Note_on_c, 1, 84, 96
3, 289920, Note_on_c, 1, 96, 96
3, 290040, Note_off_c, 1, 60, 0
3, 290040, Note_off_c, 1, 72, 0
3, 290040, Note_off_c, 1, 84, 0
3, 290040, Note_off_c, 1, 96, 0
3, 290400, Note_on_c, 1, 86, 96
3, 290400, Note_on_c, 1, 98, 96
3, 290520, Note_off_c, 1, 86, 0
3, 290520, Note_off_c, 1, 98, 0
3, 290880, Note_on_c, 1, 75, 96
3, 290880, Note_on_c, 1, 87, 96
3, 290880, Note_on_c, 1, 99, 96
3, 291000, Note_off_c, 1, 75, 0
3, 291000, Note_off_c, 1, 87, 0
3, 291000, Note_off_c, 1, 99, 0
3, 291200, Note_on_c, 1, 100, 96
3, 291320, Note_off_c, 1, 100, 0
3, 291520, Note_on_c, 1, 99, 96
3, 291640, Note_off_c, 1, 99, 0
3, 291840, Note_on_c, 1, 60, 96
3, 291840, Note_on_c, 1, 72, 96
3, 291840, Note_on_c, 1, 84, 96
3, 291840, Note_on_c, 1, 96, 96
3, 291960, Note_off_c, 1, 60, 0
3, 291960, Note_off_c, 1, 72, 0
3, 291960, Note_off_c, 1, 84, 0
3, 291960, Note_off_c, 1, 96, 0
3, 292800, Note_on_c, 1, 74, 96
3, 292800, Note_on_c, 1, 86, 96
3, 292800, Note_on_c, 1, 98, 96
3, 292920, Note_off_c, 1, 74, 0
3, 292920, Note_off_c, 1, 86, 0
3, 292920, Note_off_c, 1, 98, 0
3, 293760, Note_on_c, 1, 60, 96
3, 293760, Note_on_c, 1, 72, 96
3, 293760, Note_on_c, 1, 84, 96
3, 293760, Note_on_c, 1, 96, 96
3, 293880, Note_off_c, 1, 60, 0
3, 293880, Note_off_c, 1, 72, 0
3, 293880, Note_off_c, 1, 84, 0
3, 293880, Note_off_c, 1, 96, 0
3, 294720, Note_on_c, 1, 74, 96
3, 294720, Note_on_c, 1, 86, 96
3, 294720, Note_on_c, 1, 98, 96
3, 294840, Note_off_c, 1, 74, 0
3, 294840, Note_off_c, 1, 86, 0
3, 294840, Note_off_c, 1, 98, 0
3, 295680, Note_on_c, 1, 60, 96
3, 295680, Note_on_c, 1, 72, 96
3, 295680, Note_on_c, 1, 84, 96
3, 295680, Note_on_c, 1, 96, 96
3, 295800, Note_off_c, 1, 60, 0
3, 295800, Note_off_c, 1, 72, 0
3, 295800, Note_off_c, 1, 84, 0
3, 295800, Note_off_c, 1, 96, 0
3, 296640, Note_on_c, 1, 74, 96
3, 296640, Note_on_c, 1, 86, 96
3, 296640, Note_on_c, 1, 98, 96
3, 296760, Note_off_c, 1, 74, 0
3, 296760, Note_off_c, 1, 86, 0
3, 296760, Note_off_c, 1, 98, 0
3, 297600, Note_on_c, 1, 60, 96
3, 297600, Note_on_c, 1, 72, 96
3, 297600, Note_on_c, 1, 84, 96
3, 297600, Note_on_c, 1, 96, 96
3, 297720, Note_off_c, 1, 60, 0
3, 297720, Note_off_c, 1, 72, 0
3, 297720, Note_off_c, 1, 84, 0
3, 297720, Note_off_c, 1, 96, 0
3, 298080, Note_on_c, 1, 86, 96
3, 298080, Note_on_c, 1, 98, 96
3, 298200, Note_off_c, 1, 86, 0
3, 298200, Note_off_c, 1, 98, 0
3, 298560, Note_on_c, 1, 75, 96
3, 298560, Note_on_c, 1, 87, 96
3, 298560, Note_on_c, 1, 99, 96
3, 298680, Note_off_c, 1, 75, 0
3, 298680, Note_off_c, 1, 87, 0
3, 298680, Note_off_c, 1, 99, 0
3, 298880, Note_on_c, 1, 100, 96
3, 299000, Note_off_c, 1, 100, 0
3, 299200, Note_on_c, 1, 99, 96
3, 299320, Note_off_c, 1, 99, 0
3, 299520, Note_on_c, 1, 60, 96
3, 299520, Note_on_c, 1, 72, 96
3, 299520, Note_on_c, 1, 84, 96
3, 299520, Note_on_c, 1, 96, 96
3, 299640, Note_off_c, 1, 60, 0
3, 299640, Note_off_c, 1, 72, 0
3, 299640, Note_off_c, 1, 84, 0
3, 299640, Note_off_c, 1, 96, 0
3, 300480, Note_on_c, 1, 74, 96
3, 300480, Note_on_c, 1, 86, 96
3, 300480, Note_on_c, 1, 98, 96
3, 300600, Note_off_c, 1, 74, 0
3, 300600, Note_off_c, 1, 86, 0
3, 300600, Note_off_c, 1, 98, 0
3, 301440, Note_on_c, 1, 60, 96
3, 301440, Note_on_c, 1, 72, 96
3, 301440, Note_on_c, 1, 84, 96
3, 301440, Note_on_c, 1, 96, 96
3, 301560, Note_off_c, 1, 60, 0
3, 301560, Note_off_c, 1, 72, 0
3, 301560, Note_off_c, 1, 84, 0
3, 301560, Note_off_c, 1, 96, 0
3, 302400, Note_on_c, 1, 74, 96
3, 302400, Note_on_c, 1, 86, 96
3, 302400, Note_on_c, 1, 98, 96
3, 302520, Note_off_c, 1, 74, 0
3, 302520, Note_off_c, 1, 86, 0
3, 302520, Note_off_c, 1, 98, 0
3, 303040, Note_on_c, 1, 96, 96
3, 303160, Note_off_c, 1, 96, 0
3, 303360, Note_on_c, 1, 62, 96
3, 303360, Note_on_c, 1, 75, 96
3, 303360, Note_on_c, 1, 88, 96
3, 303360, Note_on_c, 1, 100, 96
3, 303600, Note_off_c, 1, 62, 0
3, 303600, Note_off_c, 1, 75, 0
3, 303600, Note_off_c, 1, 88, 0
3, 304080, Note_off_c, 1, 100, 0
3, 304320, Note_on_c, 1, 74, 96
3, 304320, Note_on_c, 1, 87, 96
3, 304320, Note_on_c, 1, 99, 96
3, 304560, Note_off_c, 1, 74, 0
3, 304560, Note_off_c, 1, 87, 0
3, 305120, Note_off_c, 1, 99, 0
3, 305280, Note_on_c, 1, 61, 96
3, 305280, Note_on_c, 1, 73, 96
3, 305280, Note_on_c, 1, 86, 96
3, 305280, Note_on_c, 1, 98, 96
3, 305520, Note_off_c, 1, 61, 0
3, 305520, Note_off_c, 1, 73, 0
3, 305520, Note_off_c, 1, 86, 0
3, 306080, Note_off_c, 1, 98, 0
3, 306240, Note_on_c, 1, 74, 96
3, 306240, Note_on_c, 1, 87, 96
3, 306240, Note_on_c, 1, 99, 96
3, 306360, Note_off_c, 1, 74, 0
3, 306360, Note_off_c, 1, 87, 0
3, 306360, Note_off_c, 1, 99, 0
3, 306880, Note_on_c, 1, 99, 96
3, 307000, Note_off_c, 1, 99, 0
3, 307200, Note_on_c, 1, 61, 96
3, 307200, Note_on_c, 1, 73, 96
3, 307200, Note_on_c, 1, 85, 96
3, 307200, Note_on_c, 1, 97, 96
3, 307320, Note_off_c, 1, 61, 0
3, 307320, Note_off_c, 1, 73, 0
3, 307320, Note_off_c, 1, 85, 0
3, 307320, Note_off_c, 1, 97, 0
3, 308160, Note_on_c, 1, 73, 96
3, 308160, Note_on_c, 1, 85, 96
3, 308160, Note_on_c, 1, 97, 96
3, 308280, Note_off_c, 1, 73, 0
3, 308280, Note_off_c, 1, 85, 0
3, 308280, Note_off_c, 1, 97, 0
3, 309120, Note_on_c, 1, 61, 96
3, 309120, Note_on_c, 1, 73, 96
3, 309120, Note_on_c, 1, 85, 96
3, 309120, Note_on_c, 1, 97, 96
3, 309240, Note_off_c, 1, 61, 0
3, 309240, Note_off_c, 1, 73, 0
3, 309240, Note_off_c, 1, 85, 0
3, 309240, Note_off_c, 1, 97, 0
3, 310080, Note_on_c, 1, 73, 96
3, 310080, Note_on_c, 1, 85, 96
3, 310080, Note_on_c, 1, 97, 96
3, 310200, Note_off_c, 1, 73, 0
3, 310200, Note_off_c, 1, 85, 0
3, 310200, Note_off_c, 1, 97, 0
3, 311040, Note_on_c, 1, 61, 96
3, 311040, Note_on_c, 1, 67, 96
3, 311040, Note_on_c, 1, 73, 96
3, 311040, Note_on_c, 1, 79, 96
3, 311040, Note_on_c, 1, 85, 96
3, 311040, Note_on_c, 1, 91, 96
3, 311040, Note_on_c, 1, 97, 96
3, 311040, Note_on_c, 1, 103, 96
3, 311160, Note_off_c, 1, 61, 0
3, 311160, Note_off_c, 1, 73, 0
3, 311160, Note_off_c, 1, 85, 0
3, 311160, Note_off_c, 1, 97, 0
3, 312000, Note_on_c, 1, 73, 96
3, 312000, Note_on_c, 1, 85, 96
3, 312000, Note_on_c, 1, 97, 96
3, 312120, Note_off_c, 1, 73, 0
3, 312120, Note_off_c, 1, 85, 0
3, 312120, Note_off_c, 1, 97, 0
3, 312960, Note_on_c, 1, 61, 96
3, 312960, Note_on_c, 1, 73, 96
3, 312960, Note_on_c, 1, 85, 96
3, 312960, Note_on_c, 1, 97, 96
3, 313080, Note_off_c, 1, 61, 0
3, 313080, Note_off_c, 1, 73, 0
3, 313080, Note_off_c, 1, 85, 0
3, 313080, Note_off_c, 1, 97, 0
3, 313920, Note_on_c, 1, 73, 96
3, 313920, Note_on_c, 1, 85, 96
3, 313920, Note_on_c, 1, 97, 96
3, 314040, Note_off_c, 1, 73, 0
3, 314040, Note_off_c, 1, 85, 0
3, 314040, Note_off_c, 1, 97, 0
3, 314560, Note_on_c, 1, 97, 96
3, 314680, Note_off_c, 1, 97, 0
3, 314880, Note_off_c, 1, 67, 0
3, 314880, Note_off_c, 1, 79, 0
3, 314880, Note_off_c, 1, 91, 0
3, 314880, Note_off_c, 1, 103, 0
3, 314880, Note_on_c, 1, 62, 96
3, 314880, Note_on_c, 1, 75, 96
3, 314880, Note_on_c, 1, 87, 96
3, 314880, Note_on_c, 1, 99, 96
3, 315000, Note_off_c, 1, 62, 0
3, 315000, Note_off_c, 1, 75, 0
3, 315000, Note_off_c, 1, 87, 0
3, 315000, Note_off_c, 1, 99, 0
3, 315840, Note_on_c, 1, 75, 96
3, 315840, Note_on_c, 1, 87, 96
3, 315840, Note_on_c, 1, 99, 96
3, 315960, Note_off_c, 1, 75, 0
3, 315960, Note_off_c, 1, 87, 0
3, 315960, Note_off_c, 1, 99, 0
3, 316800, Note_on_c, 1, 62, 96
3, 316800, Note_on_c, 1, 75, 96
3, 316800, Note_on_c, 1, 87, 96
3, 316800, Note_on_c, 1, 99, 96
3, 316920, Note_off_c, 1, 62, 0
3, 316920, Note_off_c, 1, 75, 0
3, 316920, Note_off_c, 1, 87, 0
3, 316920, Note_off_c, 1, 99, 0
3, 317760, Note_on_c, 1, 75, 96
3, 317760, Note_on_c, 1, 87, 96
3, 317760, Note_on_c, 1, 99, 96
3, 317880, Note_off_c, 1, 75, 0
3, 317880, Note_off_c, 1, 87, 0
3, 317880, Note_off_c, 1, 99, 0
3, 318720, Note_on_c, 1, 62, 96
3, 318720, Note_on_c, 1, 75, 96
3, 318720, Note_on_c, 1, 87, 96
3, 318720, Note_on_c, 1, 99, 96
3, 318840, Note_off_c, 1, 62, 0
3, 318840, Note_off_c, 1, 75, 0
3, 318840, Note_off_c, 1, 87, 0
3, 318840, Note_off_c, 1, 99, 0
3, 319680, Note_on_c, 1, 73, 96
3, 319680, Note_on_c, 1, 85, 96
3, 319680, Note_on_c, 1, 97, 96
3, 319800, Note_off_c, 1, 73, 0
3, 319800, Note_off_c, 1, 85, 0
3, 319800, Note_off_c, 1, 97, 0
3, 320640, Note_on_c, 1, 62, 96
3, 320640, Note_on_c, 1, 75, 96
3, 320640, Note_on_c, 1, 87, 96
3, 320640, Note_on_c, 1, 99, 96
3, 320760, Note_off_c, 1, 62, 0
3, 320760, Note_off_c, 1, 75, 0
3, 320760, Note_off_c, 1, 87, 0
3, 320760, Note_off_c, 1, 99, 0
3, 321600, Note_on_c, 1, 75, 96
3, 321600, Note_on_c, 1, 87, 96
3, 321600, Note_on_c, 1, 99, 96
3, 321720, Note_off_c, 1, 75, 0
3, 321720, Note_off_c, 1, 87, 0
3, 321720, Note_off_c, 1, 99, 0
3, 322240, Note_on_c, 1, 99, 96
3, 322360, Note_off_c, 1, 99, 0
3, 322560, Note_on_c, 1, 60, 96
3, 322560, Note_on_c, 1, 72, 96
3, 322560, Note_on_c, 1, 84, 96
3, 322560, Note_on_c, 1, 96, 96
3, 322680, Note_off_c, 1, 60, 0
3, 322680, Note_off_c, 1, 72, 0
3, 322680, Note_off_c, 1, 84, 0
3, 322680, Note_off_c, 1, 96, 0
3, 323520, Note_on_c, 1, 74, 96
3, 323520, Note_on_c, 1, 86, 96
3, 323520, Note_on_c, 1, 98, 96
3, 323640, Note_off_c, 1, 74, 0
3, 323640, Note_off_c, 1, 86, 0
3, 323640, Note_off_c, 1, 98, 0
3, 324480, Note_on_c, 1, 60, 96
3, 324480, Note_on_c, 1, 72, 96
3, 324480, Note_on_c, 1, 84, 96
3, 324480, Note_on_c, 1, 96, 96
3, 324600, Note_off_c, 1, 60, 0
3, 324600, Note_off_c, 1, 72, 0
3, 324600, Note_off_c, 1, 84, 0
3, 324600, Note_off_c, 1, 96, 0
3, 325440, Note_on_c, 1, 74, 96
3, 325440, Note_on_c, 1, 86, 96
3, 325440, Note_on_c, 1, 98, 96
3, 325560, Note_off_c, 1, 74, 0
3, 325560, Note_off_c, 1, 86, 0
3, 325560, Note_off_c, 1, 98, 0
3, 326400, Note_on_c, 1, 60, 96
3, 326400, Note_on_c, 1, 72, 96
3, 326400, Note_on_c, 1, 84, 96
3, 326400, Note_on_c, 1, 96, 96
3, 326520, Note_off_c, 1, 60, 0
3, 326520, Note_off_c, 1, 72, 0
3, 326520, Note_off_c, 1, 84, 0
3, 326520, Note_off_c, 1, 96, 0
3, 327360, Note_on_c, 1, 74, 96
3, 327360, Note_on_c, 1, 86, 96
3, 327360, Note_on_c, 1, 98, 96
3, 327480, Note_off_c, 1, 74, 0
3, 327480, Note_off_c, 1, 86, 0
3, 327480, Note_off_c, 1, 98, 0
3, 328320, Note_on_c, 1, 60, 96
3, 328320, Note_on_c, 1, 72, 96
3, 328320, Note_on_c, 1, 84, 96
3, 328320, Note_on_c, 1, 96, 96
3, 328440, Note_off_c, 1, 60, 0
3, 328440, Note_off_c, 1, 72, 0
3, 328440, Note_off_c, 1, 84, 0
3, 328440, Note_off_c, 1, 96, 0
3, 329280, Note_on_c, 1, 74, 96
3, 329280, Note_on_c, 1, 86, 96
3, 329280, Note_on_c, 1, 98, 96
3, 329520, Note_off_c, 1, 74, 0
3, 329520, Note_off_c, 1, 86, 0
3, 330000, Note_off_c, 1, 98, 0
3, 330240, Note_on_c, 1, 60, 96
3, 330240, Note_on_c, 1, 72, 96
3, 330240, Note_on_c, 1, 84, 96
3, 330240, Note_on_c, 1, 96, 96
3, 330360, Note_off_c, 1, 60, 0
3, 330360, Note_off_c, 1, 72, 0
3, 330360, Note_off_c, 1, 84, 0
3, 330360, Note_off_c, 1, 96, 0
3, 331200, Note_on_c, 1, 74, 96
3, 331200, Note_on_c, 1, 86, 96
3, 331200, Note_on_c, 1, 98, 96
3, 331320, Note_off_c, 1, 74, 0
3, 331320, Note_off_c, 1, 86, 0
3, 331320, Note_off_c, 1, 98, 0
3, 332160, Note_on_c, 1, 60, 96
3, 332160, Note_on_c, 1, 72, 96
3, 332160, Note_on_c, 1, 84, 96
3, 332160, Note_on_c, 1, 96, 96
3, 332280, Note_off_c, 1, 60, 0
3, 332280, Note_off_c, 1, 72, 0
3, 332280, Note_off_c, 1, 84, 0
3, 332280, Note_off_c, 1, 96, 0
3, 333120, Note_on_c, 1, 74, 96
3, 333120, Note_on_c, 1, 86, 96
3, 333120, Note_on_c, 1, 98, 96
3, 333240, Note_off_c, 1, 74, 0
3, 333240, Note_off_c, 1, 86, 0
3, 333240, Note_off_c, 1, 98, 0
3, 333760, Note_on_c, 1, 96, 96
3, 333880, Note_off_c, 1, 96, 0
3, 334080, Note_on_c, 1, 60, 96
3, 334080, Note_on_c, 1, 72, 96
3, 334080, Note_on_c, 1, 85, 96
3, 334080, Note_on_c, 1, 97, 96
3, 334200, Note_off_c, 1, 60, 0
3, 334200, Note_off_c, 1, 72, 0
3, 334200, Note_off_c, 1, 85, 0
3, 334200, Note_off_c, 1, 97, 0
3, 335040, Note_on_c, 1, 73, 96
3, 335040, Note_on_c, 1, 86, 96
3, 335040, Note_on_c, 1, 98, 96
3, 335160, Note_off_c, 1, 73, 0
3, 335160, Note_off_c, 1, 86, 0
3, 335160, Note_off_c, 1, 98, 0
3, 336000, Note_on_c, 1, 62, 96
3, 336000, Note_on_c, 1, 74, 96
3, 336000, Note_on_c, 1, 87, 96
3, 336000, Note_on_c, 1, 99, 96
3, 336120, Note_off_c, 1, 62, 0
3, 336120, Note_off_c, 1, 74, 0
3, 336120, Note_off_c, 1, 87, 0
3, 336120, Note_off_c, 1, 99, 0
3, 336960, Note_on_c, 1, 75, 96
3, 336960, Note_on_c, 1, 88, 96
3, 336960, Note_on_c, 1, 100, 96
3, 337080, Note_off_c, 1, 75, 0
3, 337080, Note_off_c, 1, 88, 0
3, 337080, Note_off_c, 1, 100, 0
3, 337600, Note_on_c, 1, 100, 96
3, 337720, Note_off_c, 1, 100, 0
3, 337920, Note_on_c, 1, 60, 96
3, 337920, Note_on_c, 1, 72, 96
3, 337920, Note_on_c, 1, 84, 96
3, 337920, Note_on_c, 1, 96, 96
3, 338040, Note_off_c, 1, 60, 0
3, 338040, Note_off_c, 1, 72, 0
3, 338040, Note_off_c, 1, 84, 0
3, 338040, Note_off_c, 1, 96, 0
3, 338880, Note_on_c, 1, 74, 96
3, 338880, Note_on_c, 1, 86, 96
3, 338880, Note_on_c, 1, 98, 96
3, 339000, Note_off_c, 1, 74, 0
3, 339000, Note_off_c, 1, 86, 0
3, 339000, Note_off_c, 1, 98, 0
3, 339840, Note_on_c, 1, 60, 96
3, 339840, Note_on_c, 1, 72, 96
3, 339840, Note_on_c, 1, 84, 96
3, 339840, Note_on_c, 1, 96, 96
3, 339960, Note_off_c, 1, 60, 0
3, 339960, Note_off_c, 1, 72, 0
3, 339960, Note_off_c, 1, 84, 0
3, 339960, Note_off_c, 1, 96, 0
3, 340800, Note_on_c, 1, 74, 96
3, 340800, Note_on_c, 1, 86, 96
3, 340800, Note_on_c, 1, 98, 96
3, 340920, Note_off_c, 1, 74, 0
3, 340920, Note_off_c, 1, 86, 0
3, 340920, Note_off_c, 1, 98, 0
3, 341760, Note_on_c, 1, 60, 96
3, 341760, Note_on_c, 1, 72, 96
3, 341760, Note_on_c, 1, 84, 96
3, 341760, Note_on_c, 1, 96, 96
3, 341880, Note_off_c, 1, 60, 0
3, 341880, Note_off_c, 1, 72, 0
3, 341880, Note_off_c, 1, 84, 0
3, 341880, Note_off_c, 1, 96, 0
3, 342720, Note_on_c, 1, 74, 96
3, 342720, Note_on_c, 1, 86, 96
3, 342720, Note_on_c, 1, 98, 96
3, 342840, Note_off_c, 1, 74, 0
3, 342840, Note_off_c, 1, 86, 0
3, 342840, Note_off_c, 1, 98, 0
3, 343680, Note_on_c, 1, 60, 96
3, 343680, Note_on_c, 1, 72, 96
3, 343680, Note_on_c, 1, 84, 96
3, 343680, Note_on_c, 1, 96, 96
3, 343800, Note_off_c, 1, 60, 0
3, 343800, Note_off_c, 1, 72, 0
3, 343800, Note_off_c, 1, 84, 0
3, 343800, Note_off_c, 1, 96, 0
3, 344160, Note_on_c, 1, 86, 96
3, 344160, Note_on_c, 1, 98, 96
3, 344280, Note_off_c, 1, 86, 0
3, 344280, Note_off_c, 1, 98, 0
3, 344640, Note_on_c, 1, 75, 96
3, 344640, Note_on_c, 1, 87, 96
3, 344640, Note_on_c, 1, 99, 96
3, 344760, Note_off_c, 1, 75, 0
3, 344760, Note_off_c, 1, 87, 0
3, 344760, Note_off_c, 1, 99, 0
3, 344960, Note_on_c, 1, 100, 96
3, 345080, Note_off_c, 1, 100, 0
3, 345280, Note_on_c, 1, 99, 96
3, 345400, Note_off_c, 1, 99, 0
3, 345600, Note_on_c, 1, 60, 96
3, 345600, Note_on_c, 1, 72, 96
3, 345600, Note_on_c, 1, 84, 96
3, 345600, Note_on_c, 1, 96, 96
3, 345720, Note_off_c, 1, 60, 0
3, 345720, Note_off_c, 1, 72, 0
3, 345720, Note_off_c, 1, 84, 0
3, 345720, Note_off_c, 1, 96, 0
3, 346560, Note_on_c, 1, 74, 96
3, 346560, Note_on_c, 1, 86, 96
3, 346560, Note_on_c, 1, 98, 96
3, 346680, Note_off_c, 1, 74, 0
3, 346680, Note_off_c, 1, 86, 0
3, 346680, Note_off_c, 1, 98, 0
3, 347520, Note_on_c, 1, 60, 96
3, 347520, Note_on_c, 1, 72, 96
3, 347520, Note_on_c, 1, 84, 96
3, 347520, Note_on_c, 1, 96, 96
3, 347640, Note_off_c, 1, 60, 0
3, 347640, Note_off_c, 1, 72, 0
3, 347640, Note_off_c, 1, 84, 0
3, 347640, Note_off_c, 1, 96, 0
3, 348480, Note_on_c, 1, 74, 96
3, 348480, Note_on_c, 1, 86, 96
3, 348480, Note_on_c, 1, 98, 96
3, 348600, Note_off_c, 1, 74, 0
3, 348600, Note_off_c, 1, 86, 0
3, 348600, Note_off_c, 1, 98, 0
3, 349440, Note_on_c, 1, 60, 96
3, 349440, Note_on_c, 1, 72, 96
3, 349440, Note_on_c, 1, 84, 96
3, 349440, Note_on_c, 1, 96, 96
3, 349560, Note_off_c, 1, 60, 0
3, 349560, Note_off_c, 1, 72, 0
3, 349560, Note_off_c, 1, 84, 0
3, 349560, Note_off_c, 1, 96, 0
3, 350400, Note_on_c, 1, 74, 96
3, 350400, Note_on_c, 1, 86, 96
3, 350400, Note_on_c, 1, 98, 96
3, 350520, Note_off_c, 1, 74, 0
3, 350520, Note_off_c, 1, 86, 0
3, 350520, Note_off_c, 1, 98, 0
3, 351360, Note_on_c, 1, 60, 96
3, 351360, Note_on_c, 1, 72, 96
3, 351360, Note_on_c, 1, 84, 96
3, 351360, Note_on_c, 1, 96, 96
3, 351480, Note_off_c, 1, 60, 0
3, 351480, Note_off_c, 1, 72, 0
3, 351480, Note_off_c, 1, 84, 0
3, 351480, Note_off_c, 1, 96, 0
3, 351840, Note_on_c, 1, 86, 96
3, 351840, Note_on_c, 1, 98, 96
3, 351960, Note_off_c, 1, 86, 0
3, 351960, Note_off_c, 1, 98, 0
3, 352320, Note_on_c, 1, 75, 96
3, 352320, Note_on_c, 1, 87, 96
3, 352320, Note_on_c, 1, 99, 96
3, 352440, Note_off_c, 1, 75, 0
3, 352440, Note_off_c, 1, 87, 0
3, 352440, Note_off_c, 1, 99, 0
3, 352640, Note_on_c, 1, 100, 96
3, 352760, Note_off_c, 1, 100, 0
3, 352960, Note_on_c, 1, 99, 96
3, 353080, Note_off_c, 1, 99, 0
3, 353280, Note_on_c, 1, 60, 96
3, 353280, Note_on_c, 1, 67, 96
3, 353280, Note_on_c, 1, 72, 96
3, 353280, Note_on_c, 1, 79, 96
3, 353280, Note_on_c, 1, 84, 96
3, 353280, Note_on_c, 1, 91, 96
3, 353280, Note_on_c, 1, 96, 96
3, 353280, Note_on_c, 1, 103, 96
3, 353400, Note_off_c, 1, 60, 0
3, 353400, Note_off_c, 1, 72, 0
3, 353400, Note_off_c, 1, 84, 0
3, 353400, Note_off_c, 1, 96, 0
3, 354240, Note_on_c, 1, 74, 96
3, 354240, Note_on_c, 1, 86, 96
3, 354240, Note_on_c, 1, 98, 96
3, 354360, Note_off_c, 1, 74, 0
3, 354360, Note_off_c, 1, 86, 0
3, 354360, Note_off_c, 1, 98, 0
3, 355200, Note_on_c, 1, 60, 96
3, 355200, Note_on_c, 1, 72, 96
3, 355200, Note_on_c, 1, 84, 96
3, 355200, Note_on_c, 1, 96, 96
3, 355320, Note_off_c, 1, 60, 0
3, 355320, Note_off_c, 1, 72, 0
3, 355320, Note_off_c, 1, 84, 0
3, 355320, Note_off_c, 1, 96, 0
3, 356160, Note_on_c, 1, 74, 96
3, 356160, Note_on_c, 1, 86, 96
3, 356160, Note_on_c, 1, 98, 96
3, 356280, Note_off_c, 1, 74, 0
3, 356280, Note_off_c, 1, 86, 0
3, 356280, Note_off_c, 1, 98, 0
3, 357120, Note_off_c, 1, 67, 0
3, 357120, Note_off_c, 1, 79, 0
3, 357120, Note_off_c, 1, 91, 0
3, 357120, Note_off_c, 1, 103, 0
3, 357120, Note_on_c, 1, 60, 96
3, 357120, Note_on_c, 1, 72, 96
3, 357120, Note_on_c, 1, 84, 96
3, 357120, Note_on_c, 1, 96, 96
3, 357240, Note_off_c, 1, 60, 0
3, 357240, Note_off_c, 1, 72, 0
3, 357240, Note_off_c, 1, 84, 0
3, 357240, Note_off_c, 1, 96, 0
3, 358080, Note_on_c, 1, 74, 96
3, 358080, Note_on_c, 1, 86, 96
3, 358080, Note_on_c, 1, 98, 96
3, 358200, Note_off_c, 1, 74, 0
3, 358200, Note_off_c, 1, 86, 0
3, 358200, Note_off_c, 1, 98, 0
3, 359040, Note_on_c, 1, 60, 96
3, 359040, Note_on_c, 1, 72, 96
3, 359040, Note_on_c, 1, 84, 96
3, 359040, Note_on_c, 1, 96, 96
3, 359160, Note_off_c, 1, 60, 0
3, 359160, Note_off_c, 1, 72, 0
3, 359160, Note_off_c, 1, 84, 0
3, 359160, Note_off_c, 1, 96, 0
3, 359520, Note_on_c, 1, 86, 96
3, 359520, Note_on_c, 1, 98, 96
3, 359640, Note_off_c, 1, 86, 0
3, 359640, Note_off_c, 1, 98, 0
3, 360000, Note_on_c, 1, 75, 96
3, 360000, Note_on_c, 1, 87, 96
3, 360000, Note_on_c, 1, 99, 96
3, 360120, Note_off_c, 1, 75, 0
3, 360120, Note_off_c, 1, 87, 0
3, 360120, Note_off_c, 1, 99, 0
3, 360320, Note_on_c, 1, 100, 96
3, 360440, Note_off_c, 1, 100, 0
3, 360640, Note_on_c, 1, 99, 96
3, 360760, Note_off_c, 1, 99, 0
3, 360960, Note_on_c, 1, 60, 96
3, 360960, Note_on_c, 1, 72, 96
3, 360960, Note_on_c, 1, 84, 96
3, 360960, Note_on_c, 1, 96, 96
3, 361080, Note_off_c, 1, 60, 0
3, 361080, Note_off_c, 1, 72, 0
3, 361080, Note_off_c, 1, 84, 0
3, 361080, Note_off_c, 1, 96, 0
3, 361920, Note_on_c, 1, 74, 96
3, 361920, Note_on_c, 1, 86, 96
3, 361920, Note_on_c, 1, 98, 96
3, 362040, Note_off_c, 1, 74, 0
3, 362040, Note_off_c, 1, 86, 0
3, 362040, Note_off_c, 1, 98, 0
3, 362880, Note_on_c, 1, 60, 96
3, 362880, Note_on_c, 1, 72, 96
3, 362880, Note_on_c, 1, 84, 96
3, 362880, Note_on_c, 1, 96, 96
3, 363000, Note_off_c, 1, 60, 0
3, 363000, Note_off_c, 1, 72, 0
3, 363000, Note_off_c, 1, 84, 0
3, 363000, Note_off_c, 1, 96, 0
3, 363840, Note_on_c, 1, 74, 96
3, 363840, Note_on_c, 1, 86, 96
3, 363840, Note_on_c, 1, 98, 96
3, 363960, Note_off_c, 1, 74, 0
3, 363960, Note_off_c, 1, 86, 0
3, 363960, Note_off_c, 1, 98, 0
3, 364320, Note_on_c, 1, 84, 96
3, 364320, Note_on_c, 1, 96, 96
3, 364440, Note_off_c, 1, 84, 0
3, 364440, Note_off_c, 1, 96, 0
3, 364800, Note_on_c, 1, 61, 96
3, 364800, Note_on_c, 1, 74, 96
3, 364800, Note_on_c, 1, 87, 96
3, 364800, Note_on_c, 1, 99, 96
3, 365040, Note_off_c, 1, 61, 0
3, 365040, Note_off_c, 1, 74, 0
3, 365040, Note_off_c, 1, 87, 0
3, 365520, Note_off_c, 1, 99, 0
3, 365760, Note_on_c, 1, 73, 96
3, 365760, Note_on_c, 1, 86, 96
3, 365760, Note_on_c, 1, 98, 96
3, 366000, Note_off_c, 1, 73, 0
3, 366000, Note_off_c, 1, 86, 0
3, 366480, Note_off_c, 1, 98, 0
3, 366720, Note_on_c, 1, 62, 96
3, 366720, Note_on_c, 1, 75, 96
3, 366720, Note_on_c, 1, 88, 96
3, 366720, Note_on_c, 1, 100, 96
3, 366960, Note_off_c, 1, 62, 0
3, 366960, Note_off_c, 1, 75, 0
3, 366960, Note_off_c, 1, 88, 0
3, 367520, Note_off_c, 1, 100, 0
3, 367680, Note_on_c, 1, 74, 96
3, 367680, Note_on_c, 1, 87, 96
3, 367680, Note_on_c, 1, 99, 96
3, 367920, Note_off_c, 1, 74, 0
3, 367920, Note_off_c, 1, 87, 0
3, 368480, Note_off_c, 1, 99, 0
3, 368640, Note_on_c, 1, 61, 96
3, 368640, Note_on_c, 1, 73, 96
3, 368640, Note_on_c, 1, 85, 96
3, 368640, Note_on_c, 1, 97, 96
3, 368760, Note_off_c, 1, 61, 0
3, 368760, Note_off_c, 1, 73, 0
3, 368760, Note_off_c, 1, 85, 0
3, 368760, Note_off_c, 1, 97, 0
3, 369600, Note_on_c, 1, 73, 96
3, 369600, Note_on_c, 1, 85, 96
3, 369600, Note_on_c, 1, 97, 96
3, 369720, Note_off_c, 1, 73, 0
3, 369720, Note_off_c, 1, 85, 0
3, 369720, Note_off_c, 1, 97, 0
3, 370560, Note_on_c, 1, 61, 96
3, 370560, Note_on_c, 1, 73, 96
3, 370560, Note_on_c, 1, 85, 96
3, 370560, Note_on_c, 1, 97, 96
3, 370680, Note_off_c, 1, 61, 0
3, 370680, Note_off_c, 1, 73, 0
3, 370680, Note_off_c, 1, 85, 0
3, 370680, Note_off_c, 1, 97, 0
3, 371520, Note_on_c, 1, 73, 96
3, 371520, Note_on_c, 1, 85, 96
3, 371520, Note_on_c, 1, 97, 96
3, 371640, Note_off_c, 1, 73, 0
3, 371640, Note_off_c, 1, 85, 0
3, 371640, Note_off_c, 1, 97, 0
3, 372480, Note_on_c, 1, 61, 96
3, 372480, Note_on_c, 1, 73, 96
3, 372480, Note_on_c, 1, 85, 96
3, 372480, Note_on_c, 1, 97, 96
3, 372600, Note_off_c, 1, 61, 0
3, 372600, Note_off_c, 1, 73, 0
3, 372600, Note_off_c, 1, 85, 0
3, 372600, Note_off_c, 1, 97, 0
3, 373440, Note_on_c, 1, 75, 96
3, 373440, Note_on_c, 1, 88, 96
3, 373440, Note_on_c, 1, 100, 96
3, 373680, Note_off_c, 1, 75, 0
3, 373680, Note_off_c, 1, 88, 0
3, 374240, Note_off_c, 1, 100, 0
3, 374400, Note_on_c, 1, 62, 96
3, 374400, Note_on_c, 1, 74, 96
3, 374400, Note_on_c, 1, 86, 96
3, 374400, Note_on_c, 1, 98, 96
3, 374640, Note_off_c, 1, 62, 0
3, 374640, Note_off_c, 1, 74, 0
3, 374640, Note_off_c, 1, 86, 0
3, 375200, Note_off_c, 1, 98, 0
3, 375360, Note_on_c, 1, 73, 96
3, 375360, Note_on_c, 1, 85, 96
3, 375360, Note_on_c, 1, 97, 96
3, 375600, Note_off_c, 1, 73, 0
3, 375600, Note_off_c, 1, 85, 0
3, 376160, Note_off_c, 1, 97, 0
3, 376320, Note_on_c, 1, 62, 96
3, 376320, Note_on_c, 1, 75, 96
3, 376320, Note_on_c, 1, 87, 96
3, 376320, Note_on_c, 1, 99, 96
3, 376440, Note_off_c, 1, 62, 0
3, 376440, Note_off_c, 1, 75, 0
3, 376440, Note_off_c, 1, 87, 0
3, 376440, Note_off_c, 1, 99, 0
3, 377280, Note_on_c, 1, 75, 96
3, 377280, Note_on_c, 1, 87, 96
3, 377280, Note_on_c, 1, 99, 96
3, 377400, Note_off_c, 1, 75, 0
3, 377400, Note_off_c, 1, 87, 0
3, 377400, Note_off_c, 1, 99, 0
3, 378240, Note_on_c, 1, 62, 96
3, 378240, Note_on_c, 1, 75, 96
3, 378240, Note_on_c, 1, 87, 96
3, 378240, Note_on_c, 1, 99, 96
3, 378360, Note_off_c, 1, 62, 0
3, 378360, Note_off_c, 1, 75, 0
3, 378360, Note_off_c, 1, 87, 0
3, 378360, Note_off_c, 1, 99, 0
3, 379200, Note_on_c, 1, 75, 96
3, 379200, Note_on_c, 1, 87, 96
3, 379200, Note_on_c, 1, 99, 96
3, 379320, Note_off_c, 1, 75, 0
3, 379320, Note_off_c, 1, 87, 0
3, 379320, Note_off_c, 1, 99, 0
3, 380160, Note_on_c, 1, 62, 96
3, 380160, Note_on_c, 1, 75, 96
3, 380160, Note_on_c, 1, 88, 96
3, 380160, Note_on_c, 1, 99, 96
3, 380280, Note_off_c, 1, 62, 0
3, 380280, Note_off_c, 1, 75, 0
3, 380280, Note_off_c, 1, 88, 0
3, 380280, Note_off_c, 1, 99, 0
3, 380480, Note_on_c, 1, 100, 96
3, 380960, Note_off_c, 1, 100, 0
3, 381120, Note_on_c, 1, 75, 96
3, 381120, Note_on_c, 1, 87, 96
3, 381120, Note_on_c, 1, 99, 96
3, 381360, Note_off_c, 1, 75, 0
3, 381360, Note_off_c, 1, 87, 0
3, 381920, Note_off_c, 1, 99, 0
3, 382080, Note_on_c, 1, 61, 96
3, 382080, Note_on_c, 1, 75, 96
3, 382080, Note_on_c, 1, 87, 96
3, 382080, Note_on_c, 1, 98, 96
3, 382200, Note_off_c, 1, 98, 0
3, 382320, Note_off_c, 1, 61, 0
3, 382320, Note_off_c, 1, 75, 0
3, 382320, Note_off_c, 1, 87, 0
3, 382320, Note_on_c, 1, 99, 96
3, 382440, Note_off_c, 1, 99, 0
3, 382800, Note_on_c, 1, 86, 96
3, 382800, Note_on_c, 1, 99, 96
3, 382920, Note_off_c, 1, 99, 0
3, 383040, Note_on_c, 0, 74, 96
3, 383040, Note_off_c, 1, 86, 0
3, 383040, Note_on_c, 1, 98, 96
3, 383160, Note_off_c, 0, 74, 0
3, 383680, Note_off_c, 1, 98, 0
3, 384000, Note_on_c, 1, 60, 96
3, 384000, Note_on_c, 1, 72, 96
3, 384000, Note_on_c, 1, 84, 96
3, 384000, Note_on_c, 1, 96, 96
3, 384120, Note_off_c, 1, 60, 0
3, 384120, Note_off_c, 1, 72, 0
3, 384120, Note_off_c, 1, 84, 0
3, 384120, Note_off_c, 1, 96, 0
3, 384960, Note_on_c, 1, 74, 96
3, 384960, Note_on_c, 1, 86, 96
3, 384960, Note_on_c, 1, 98, 96
3, 385080, Note_off_c, 1, 74, 0
3, 385080, Note_off_c, 1, 86, 0
3, 385080, Note_off_c, 1, 98, 0
3, 385920, Note_on_c, 1, 60, 96
3, 385920, Note_on_c, 1, 72, 96
3, 385920, Note_on_c, 1, 84, 96
3, 385920, Note_on_c, 1, 96, 96
3, 386040, Note_off_c, 1, 60, 0
3, 386040, Note_off_c, 1, 72, 0
3, 386040, Note_off_c, 1, 84, 0
3, 386040, Note_off_c, 1, 96, 0
3, 386880, Note_on_c, 1, 74, 96
3, 386880, Note_on_c, 1, 86, 96
3, 386880, Note_on_c, 1, 98, 96
3, 387000, Note_off_c, 1, 74, 0
3, 387000, Note_off_c, 1, 86, 0
3, 387000, Note_off_c, 1, 98, 0
3, 387840, Note_on_c, 1, 60, 96
3, 387840, Note_on_c, 1, 72, 96
3, 387840, Note_on_c, 1, 84, 96
3, 387840, Note_on_c, 1, 96, 96
3, 387960, Note_off_c, 1, 60, 0
3, 387960, Note_off_c, 1, 72, 0
3, 387960, Note_off_c, 1, 84, 0
3, 387960, Note_off_c, 1, 96, 0
3, 388800, Note_on_c, 1, 74, 96
3, 388800, Note_on_c, 1, 86, 96
3, 388800, Note_on_c, 1, 98, 96
3, 388920, Note_off_c, 1, 74, 0
3, 388920, Note_off_c, 1, 86, 0
3, 388920, Note_off_c, 1, 98, 0
3, 389760, Note_on_c, 1, 60, 96
3, 389760, Note_on_c, 1, 72, 96
3, 389760, Note_on_c, 1, 84, 96
3, 389760, Note_on_c, 1, 96, 96
3, 389880, Note_off_c, 1, 60, 0
3, 389880, Note_off_c, 1, 72, 0
3, 389880, Note_off_c, 1, 84, 0
3, 389880, Note_off_c, 1, 96, 0
3, 390720, Note_on_c, 1, 74, 96
3, 390720, Note_on_c, 1, 86, 96
3, 390720, Note_on_c, 1, 98, 96
3, 390960, Note_off_c, 1, 74, 0
3, 390960, Note_off_c, 1, 86, 0
3, 391440, Note_off_c, 1, 98, 0
3, 391680, Note_on_c, 1, 60, 96
3, 391680, Note_on_c, 1, 72, 96
3, 391680, Note_on_c, 1, 84, 96
3, 391680, Note_on_c, 1, 96, 96
3, 391800, Note_off_c, 1, 60, 0
3, 391800, Note_off_c, 1, 72, 0
3, 391800, Note_off_c, 1, 84, 0
3, 391800, Note_off_c, 1, 96, 0
3, 392640, Note_on_c, 1, 74, 96
3, 392640, Note_on_c, 1, 86, 96
3, 392640, Note_on_c, 1, 98, 96
3, 392760, Note_off_c, 1, 74, 0
3, 392760, Note_off_c, 1, 86, 0
3, 392760, Note_off_c, 1, 98, 0
3, 393600, Note_on_c, 1, 60, 96
3, 393600, Note_on_c, 1, 72, 96
3, 393600, Note_on_c, 1, 84, 96
3, 393600, Note_on_c, 1, 96, 96
3, 393720, Note_off_c, 1, 60, 0
3, 393720, Note_off_c, 1, 72, 0
3, 393720, Note_off_c, 1, 84, 0
3, 393720, Note_off_c, 1, 96, 0
3, 394560, Note_on_c, 1, 74, 96
3, 394560, Note_on_c, 1, 86, 96
3, 394560, Note_on_c, 1, 98, 96
3, 394680, Note_off_c, 1, 74, 0
3, 394680, Note_off_c, 1, 86, 0
3, 394680, Note_off_c, 1, 98, 0
3, 395200, Note_on_c, 1, 96, 96
3, 395320, Note_off_c, 1, 96, 0
3, 395520, Note_on_c, 1, 60, 96
3, 395520, Note_on_c, 1, 67, 96
3, 395520, Note_on_c, 1, 72, 96
3, 395520, Note_on_c, 1, 79, 96
3, 395520, Note_on_c, 1, 85, 96
3, 395520, Note_on_c, 1, 91, 96
3, 395520, Note_on_c, 1, 97, 96
3, 395520, Note_on_c, 1, 103, 96
3, 395640, Note_off_c, 1, 60, 0
3, 395640, Note_off_c, 1, 72, 0
3, 395640, Note_off_c, 1, 85, 0
3, 395640, Note_off_c, 1, 97, 0
3, 396480, Note_on_c, 1, 73, 96
3, 396480, Note_on_c, 1, 86, 96
3, 396480, Note_on_c, 1, 98, 96
3, 396600, Note_off_c, 1, 73, 0
3, 396600, Note_off_c, 1, 86, 0
3, 396600, Note_off_c, 1, 98, 0
3, 397440, Note_on_c, 1, 62, 96
3, 397440, Note_on_c, 1, 74, 96
3, 397440, Note_on_c, 1, 87, 96
3, 397440, Note_on_c, 1, 99, 96
3, 397560, Note_off_c, 1, 62, 0
3, 397560, Note_off_c, 1, 74, 0
3, 397560, Note_off_c, 1, 87, 0
3, 397560, Note_off_c, 1, 99, 0
3, 398400, Note_on_c, 1, 75, 96
3, 398400, Note_on_c, 1, 88, 96
3, 398400, Note_on_c, 1, 100, 96
3, 398520, Note_off_c, 1, 75, 0
3, 398520, Note_off_c, 1, 88, 0
3, 398520, Note_off_c, 1, 100, 0
3, 399040, Note_on_c, 1, 100, 96
3, 399160, Note_off_c, 1, 100, 0
3, 399360, Note_off_c, 1, 67, 0
3, 399360, Note_off_c, 1, 79, 0
3, 399360, Note_off_c, 1, 91, 0
3, 399360, Note_off_c, 1, 103, 0
3, 399360, Note_on_c, 1, 61, 96
3, 399360, Note_on_c, 1, 73, 96
3, 399360, Note_on_c, 1, 85, 96
3, 399360, Note_on_c, 1, 97, 96
3, 399480, Note_off_c, 1, 61, 0
3, 399480, Note_off_c, 1, 73, 0
3, 399480, Note_off_c, 1, 85, 0
3, 399480, Note_off_c, 1, 97, 0
3, 400320, Note_on_c, 1, 73, 96
3, 400320, Note_on_c, 1, 85, 96
3, 400320, Note_on_c, 1, 97, 96
3, 400440, Note_off_c, 1, 73, 0
3, 400440, Note_off_c, 1, 85, 0
3, 400440, Note_off_c, 1, 97, 0
3, 401280, Note_on_c, 1, 61, 96
3, 401280, Note_on_c, 1, 73, 96
3, 401280, Note_on_c, 1, 85, 96
3, 401280, Note_on_c, 1, 97, 96
3, 401400, Note_off_c, 1, 61, 0
3, 401400, Note_off_c, 1, 73, 0
3, 401400, Note_off_c, 1, 85, 0
3, 401400, Note_off_c, 1, 97, 0
3, 402240, Note_on_c, 1, 73, 96
3, 402240, Note_on_c, 1, 85, 96
3, 402240, Note_on_c, 1, 97, 96
3, 402360, Note_off_c, 1, 73, 0
3, 402360, Note_off_c, 1, 85, 0
3, 402360, Note_off_c, 1, 97, 0
3, 403200, Note_on_c, 1, 61, 96
3, 403200, Note_on_c, 1, 73, 96
3, 403200, Note_on_c, 1, 85, 96
3, 403200, Note_on_c, 1, 97, 96
3, 403320, Note_off_c, 1, 61, 0
3, 403320, Note_off_c, 1, 73, 0
3, 403320, Note_off_c, 1, 85, 0
3, 403320, Note_off_c, 1, 97, 0
3, 404160, Note_on_c, 1, 73, 96
3, 404160, Note_on_c, 1, 85, 96
3, 404160, Note_on_c, 1, 97, 96
3, 404280, Note_off_c, 1, 73, 0
3, 404280, Note_off_c, 1, 85, 0
3, 404280, Note_off_c, 1, 97, 0
3, 405120, Note_on_c, 1, 61, 96
3, 405120, Note_on_c, 1, 73, 96
3, 405120, Note_on_c, 1, 85, 96
3, 405120, Note_on_c, 1, 97, 96
3, 405240, Note_off_c, 1, 61, 0
3, 405240, Note_off_c, 1, 73, 0
3, 405240, Note_off_c, 1, 85, 0
3, 405240, Note_off_c, 1, 97, 0
3, 406080, Note_on_c, 1, 73, 96
3, 406080, Note_on_c, 1, 85, 96
3, 406080, Note_on_c, 1, 97, 96
3, 406200, Note_off_c, 1, 73, 0
3, 406200, Note_off_c, 1, 85, 0
3, 406200, Note_off_c, 1, 97, 0
3, 406720, Note_on_c, 1, 97, 96
3, 406840, Note_off_c, 1, 97, 0
3, 407040, Note_on_c, 1, 62, 96
3, 407040, Note_on_c, 1, 75, 96
3, 407040, Note_on_c, 1, 87, 96
3, 407040, Note_on_c, 1, 99, 96
3, 407160, Note_off_c, 1, 62, 0
3, 407160, Note_off_c, 1, 75, 0
3, 407160, Note_off_c, 1, 87, 0
3, 407160, Note_off_c, 1, 99, 0
3, 408000, Note_on_c, 1, 75, 96
3, 408000, Note_on_c, 1, 87, 96
3, 408000, Note_on_c, 1, 99, 96
3, 408120, Note_off_c, 1, 75, 0
3, 408120, Note_off_c, 1, 87, 0
3, 408120, Note_off_c, 1, 99, 0
3, 408960, Note_on_c, 1, 62, 96
3, 408960, Note_on_c, 1, 75, 96
3, 408960, Note_on_c, 1, 87, 96
3, 408960, Note_on_c, 1, 99, 96
3, 409080, Note_off_c, 1, 62, 0
3, 409080, Note_off_c, 1, 75, 0
3, 409080, Note_off_c, 1, 87, 0
3, 409080, Note_off_c, 1, 99, 0
3, 409920, Note_on_c, 1, 75, 96
3, 409920, Note_on_c, 1, 87, 96
3, 409920, Note_on_c, 1, 99, 96
3, 410040, Note_off_c, 1, 75, 0
3, 410040, Note_off_c, 1, 87, 0
3, 410040, Note_off_c, 1, 99, 0
3, 410880, Note_on_c, 1, 62, 96
3, 410880, Note_on_c, 1, 75, 96
3, 410880, Note_on_c, 1, 87, 96
3, 410880, Note_on_c, 1, 99, 96
3, 411000, Note_off_c, 1, 62, 0
3, 411000, Note_off_c, 1, 75, 0
3, 411000, Note_off_c, 1, 87, 0
3, 411000, Note_off_c, 1, 99, 0
3, 411840, Note_on_c, 1, 73, 96
3, 411840, Note_on_c, 1, 85, 96
3, 411840, Note_on_c, 1, 97, 96
3, 411960, Note_off_c, 1, 73, 0
3, 411960, Note_off_c, 1, 85, 0
3, 411960, Note_off_c, 1, 97, 0
3, 412800, Note_on_c, 1, 62, 96
3, 412800, Note_on_c, 1, 75, 96
3, 412800, Note_on_c, 1, 87, 96
3, 412800, Note_on_c, 1, 99, 96
3, 412920, Note_off_c, 1, 62, 0
3, 412920, Note_off_c, 1, 75, 0
3, 412920, Note_off_c, 1, 87, 0
3, 412920, Note_off_c, 1, 99, 0
3, 413760, Note_on_c, 1, 75, 96
3, 413760, Note_on_c, 1, 87, 96
3, 413760, Note_on_c, 1, 99, 96
3, 413880, Note_off_c, 1, 75, 0
3, 413880, Note_off_c, 1, 87, 0
3, 413880, Note_off_c, 1, 99, 0
3, 414400, Note_on_c, 1, 99, 96
3, 414520, Note_off_c, 1, 99, 0
3, 414720, Note_on_c, 1, 60, 96
3, 414720, Note_on_c, 1, 72, 96
3, 414720, Note_on_c, 1, 84, 96
3, 414720, Note_on_c, 1, 96, 96
3, 414840, Note_off_c, 1, 60, 0
3, 414840, Note_off_c, 1, 72, 0
3, 414840, Note_off_c, 1, 84, 0
3, 414840, Note_off_c, 1, 96, 0
3, 415680, Note_on_c, 1, 74, 96
3, 415680, Note_on_c, 1, 86, 96
3, 415680, Note_on_c, 1, 98, 96
3, 415800, Note_off_c, 1, 74, 0
3, 415800, Note_off_c, 1, 86, 0
3, 415800, Note_off_c, 1, 98, 0
3, 416640, Note_on_c, 1, 60, 96
3, 416640, Note_on_c, 1, 72, 96
3, 416640, Note_on_c, 1, 84, 96
3, 416640, Note_on_c, 1, 96, 96
3, 416760, Note_off_c, 1, 60, 0
3, 416760, Note_off_c, 1, 72, 0
3, 416760, Note_off_c, 1, 84, 0
3, 416760, Note_off_c, 1, 96, 0
3, 417600, Note_on_c, 1, 74, 96
3, 417600, Note_on_c, 1, 86, 96
3, 417600, Note_on_c, 1, 98, 96
3, 417720, Note_off_c, 1, 74, 0
3, 417720, Note_off_c, 1, 86, 0
3, 417720, Note_off_c, 1, 98, 0
3, 418560, Note_on_c, 1, 60, 96
3, 418560, Note_on_c, 1, 72, 96
3, 418560, Note_on_c, 1, 84, 96
3, 418560, Note_on_c, 1, 96, 96
3, 418680, Note_off_c, 1, 60, 0
3, 418680, Note_off_c, 1, 72, 0
3, 418680, Note_off_c, 1, 84, 0
3, 418680, Note_off_c, 1, 96, 0
3, 419520, Note_on_c, 1, 74, 96
3, 419520, Note_on_c, 1, 86, 96
3, 419520, Note_on_c, 1, 98, 96
3, 419640, Note_off_c, 1, 74, 0
3, 419640, Note_off_c, 1, 86, 0
3, 419640, Note_off_c, 1, 98, 0
3, 420480, Note_on_c, 1, 60, 96
3, 420480, Note_on_c, 1, 72, 96
3, 420480, Note_on_c, 1, 84, 96
3, 420480, Note_on_c, 1, 96, 96
3, 420600, Note_off_c, 1, 60, 0
3, 420600, Note_off_c, 1, 72, 0
3, 420600, Note_off_c, 1, 84, 0
3, 420600, Note_off_c, 1, 96, 0
3, 421440, Note_on_c, 1, 74, 96
3, 421440, Note_on_c, 1, 86, 96
3, 421440, Note_on_c, 1, 98, 96
3, 421680, Note_off_c, 1, 74, 0
3, 421680, Note_off_c, 1, 86, 0
3, 422160, Note_off_c, 1, 98, 0
3, 422400, Note_on_c, 1, 60, 96
3, 422400, Note_on_c, 1, 72, 96
3, 422400, Note_on_c, 1, 84, 96
3, 422400, Note_on_c, 1, 96, 96
3, 422520, Note_off_c, 1, 60, 0
3, 422520, Note_off_c, 1, 72, 0
3, 422520, Note_off_c, 1, 84, 0
3, 422520, Note_off_c, 1, 96, 0
3, 423360, Note_on_c, 1, 74, 96
3, 423360, Note_on_c, 1, 86, 96
3, 423360, Note_on_c, 1, 98, 96
3, 423480, Note_off_c, 1, 74, 0
3, 423480, Note_off_c, 1, 86, 0
3, 423480, Note_off_c, 1, 98, 0
3, 424320, Note_on_c, 1, 60, 96
3, 424320, Note_on_c, 1, 72, 96
3, 424320, Note_on_c, 1, 84, 96
3, 424320, Note_on_c, 1, 96, 96
3, 424440, Note_off_c, 1, 60, 0
3, 424440, Note_off_c, 1, 72, 0
3, 424440, Note_off_c, 1, 84, 0
3, 424440, Note_off_c, 1, 96, 0
3, 425280, Note_on_c, 1, 74, 96
3, 425280, Note_on_c, 1, 86, 96
3, 425280, Note_on_c, 1, 98, 96
3, 425400, Note_off_c, 1, 74, 0
3, 425400, Note_off_c, 1, 86, 0
3, 425400, Note_off_c, 1, 98, 0
3, 425920, Note_on_c, 1, 96, 96
3, 426040, Note_off_c, 1, 96, 0
3, 426240, Note_on_c, 1, 60, 96
3, 426240, Note_on_c, 1, 72, 96
3, 426240, Note_on_c, 1, 85, 96
3, 426240, Note_on_c, 1, 97, 96
3, 426360, Note_off_c, 1, 60, 0
3, 426360, Note_off_c, 1, 72, 0
3, 426360, Note_off_c, 1, 85, 0
3, 426360, Note_off_c, 1, 97, 0
3, 427200, Note_on_c, 1, 73, 96
3, 427200, Note_on_c, 1, 86, 96
3, 427200, Note_on_c, 1, 98, 96
3, 427320, Note_off_c, 1, 73, 0
3, 427320, Note_off_c, 1, 86, 0
3, 427320, Note_off_c, 1, 98, 0
3, 428160, Note_on_c, 1, 62, 96
3, 428160, Note_on_c, 1, 74, 96
3, 428160, Note_on_c, 1, 87, 96
3, 428160, Note_on_c, 1, 99, 96
3, 428280, Note_off_c, 1, 62, 0
3, 428280, Note_off_c, 1, 74, 0
3, 428280, Note_off_c, 1, 87, 0
3, 428280, Note_off_c, 1, 99, 0
3, 429120, Note_on_c, 1, 75, 96
3, 429120, Note_on_c, 1, 88, 96
3, 429120, Note_on_c, 1, 100, 96
3, 429240, Note_off_c, 1, 75, 0
3, 429240, Note_off_c, 1, 88, 0
3, 429240, Note_off_c, 1, 100, 0
3, 430080, Note_on_c, 1, 60, 96
3, 430080, Note_on_c, 1, 72, 96
3, 430080, Note_on_c, 1, 84, 96
3, 430080, Note_on_c, 1, 96, 96
3, 430200, Note_off_c, 1, 60, 0
3, 430200, Note_off_c, 1, 72, 0
3, 430200, Note_off_c, 1, 84, 0
3, 430200, Note_off_c, 1, 96, 0
3, 431040, Note_on_c, 1, 73, 96
3, 431040, Note_on_c, 1, 85, 96
3, 431040, Note_on_c, 1, 97, 96
3, 431160, Note_off_c, 1, 73, 0
3, 431160, Note_off_c, 1, 85, 0
3, 431160, Note_off_c, 1, 97, 0
3, 432000, Note_on_c, 1, 61, 96
3, 432000, Note_on_c, 1, 74, 96
3, 432000, Note_on_c, 1, 86, 96
3, 432000, Note_on_c, 1, 98, 96
3, 432120, Note_off_c, 1, 61, 0
3, 432120, Note_off_c, 1, 74, 0
3, 432120, Note_off_c, 1, 86, 0
3, 432120, Note_off_c, 1, 98, 0
3, 432960, Note_on_c, 1, 72, 96
3, 432960, Note_on_c, 1, 85, 96
3, 432960, Note_on_c, 1, 97, 96
3, 433080, Note_off_c, 1, 72, 0
3, 433080, Note_off_c, 1, 85, 0
3, 433080, Note_off_c, 1, 97, 0
3, 433920, Note_on_c, 1, 61, 96
3, 433920, Note_on_c, 1, 74, 96
3, 433920, Note_on_c, 1, 87, 96
3, 433920, Note_on_c, 1, 99, 96
3, 434040, Note_off_c, 1, 61, 0
3, 434040, Note_off_c, 1, 74, 0
3, 434040, Note_off_c, 1, 87, 0
3, 434040, Note_off_c, 1, 99, 0
3, 434880, Note_on_c, 1, 73, 96
3, 434880, Note_on_c, 1, 86, 96
3, 434880, Note_on_c, 1, 98, 96
3, 435000, Note_off_c, 1, 73, 0
3, 435000, Note_off_c, 1, 86, 0
3, 435000, Note_off_c, 1, 98, 0
3, 435840, Note_on_c, 1, 62, 96
3, 435840, Note_on_c, 1, 75, 96
3, 435840, Note_on_c, 1, 88, 96
3, 435840, Note_on_c, 1, 100, 96
3, 435960, Note_off_c, 1, 62, 0
3, 435960, Note_off_c, 1, 75, 0
3, 435960, Note_off_c, 1, 88, 0
3, 435960, Note_off_c, 1, 100, 0
3, 436800, Note_on_c, 1, 74, 96
3, 436800, Note_on_c, 1, 87, 96
3, 436800, Note_on_c, 1, 99, 96
3, 436920, Note_off_c, 1, 74, 0
3, 436920, Note_off_c, 1, 87, 0
3, 436920, Note_off_c, 1, 99, 0
3, 437760, Note_on_c, 1, 61, 96
3, 437760, Note_on_c, 1, 67, 96
3, 437760, Note_on_c, 1, 73, 96
3, 437760, Note_on_c, 1, 79, 96
3, 437760, Note_on_c, 1, 85, 96
3, 437760, Note_on_c, 1, 91, 96
3, 437760, Note_on_c, 1, 97, 96
3, 437760, Note_on_c, 1, 103, 96
3, 437880, Note_off_c, 1, 61, 0
3, 437880, Note_off_c, 1, 73, 0
3, 437880, Note_off_c, 1, 85, 0
3, 437880, Note_off_c, 1, 97, 0
3, 438720, Note_on_c, 1, 73, 96
3, 438720, Note_on_c, 1, 85, 96
3, 438720, Note_on_c, 1, 97, 96
3, 438840, Note_off_c, 1, 73, 0
3, 438840, Note_off_c, 1, 85, 0
3, 438840, Note_off_c, 1, 97, 0
3, 439680, Note_on_c, 1, 61, 96
3, 439680, Note_on_c, 1, 73, 96
3, 439680, Note_on_c, 1, 85, 96
3, 439680, Note_on_c, 1, 97, 96
3, 439800, Note_off_c, 1, 61, 0
3, 439800, Note_off_c, 1, 73, 0
3, 439800, Note_off_c, 1, 85, 0
3, 439800, Note_off_c, 1, 97, 0
3, 440640, Note_on_c, 1, 73, 96
3, 440640, Note_on_c, 1, 85, 96
3, 440640, Note_on_c, 1, 97, 96
3, 440760, Note_off_c, 1, 73, 0
3, 440760, Note_off_c, 1, 85, 0
3, 440760, Note_off_c, 1, 97, 0
3, 441120, Note_on_c, 1, 85, 96
3, 441120, Note_on_c, 1, 97, 96
3, 441240, Note_off_c, 1, 85, 0
3, 441240, Note_off_c, 1, 97, 0
3, 441600, Note_off_c, 1, 67, 0
3, 441600, Note_off_c, 1, 79, 0
3, 441600, Note_off_c, 1, 91, 0
3, 441600, Note_off_c, 1, 103, 0
3, 441600, Note_on_c, 1, 62, 96
3, 441600, Note_on_c, 1, 75, 96
3, 441600, Note_on_c, 1, 88, 96
3, 441600, Note_on_c, 1, 100, 96
3, 441720, Note_off_c, 1, 62, 0
3, 441720, Note_off_c, 1, 75, 0
3, 441720, Note_off_c, 1, 88, 0
3, 441720, Note_off_c, 1, 100, 0
3, 442080, Note_on_c, 1, 88, 96
3, 442080, Note_on_c, 1, 100, 96
3, 442200, Note_off_c, 1, 88, 0
3, 442200, Note_off_c, 1, 100, 0
3, 442560, Note_on_c, 1, 75, 96
3, 442560, Note_on_c, 1, 88, 96
3, 442560, Note_on_c, 1, 100, 96
3, 442680, Note_off_c, 1, 75, 0
3, 442680, Note_off_c, 1, 88, 0
3, 442680, Note_off_c, 1, 100, 0
3, 442880, Note_on_c, 1, 100, 96
3, 443000, Note_off_c, 1, 100, 0
3, 443200, Note_on_c, 1, 100, 96
3, 443320, Note_off_c, 1, 100, 0
3, 443520, Note_on_c, 1, 61, 96
3, 443520, Note_on_c, 1, 74, 96
3, 443520, Note_on_c, 1, 87, 96
3, 443520, Note_on_c, 1, 99, 96
3, 443760, Note_off_c, 1, 61, 0
3, 443760, Note_off_c, 1, 74, 0
3, 443760, Note_off_c, 1, 87, 0
3, 444000, Note_off_c, 1, 99, 0
3, 444160, Note_on_c, 1, 98, 96
3, 444280, Note_off_c, 1, 98, 0
3, 444480, Note_on_c, 1, 73, 96
3, 444480, Note_on_c, 1, 86, 96
3, 444480, Note_on_c, 1, 98, 96
3, 444720, Note_off_c, 1, 73, 0
3, 444720, Note_off_c, 1, 86, 0
3, 445120, Note_off_c, 1, 98, 0
3, 445440, Note_on_c, 1, 60, 96
3, 445440, Note_on_c, 1, 72, 96
3, 445440, Note_on_c, 1, 84, 96
3, 445440, Note_on_c, 1, 96, 96
3, 445560, Note_off_c, 1, 60, 0
3, 445560, Note_off_c, 1, 72, 0
3, 445560, Note_off_c, 1, 84, 0
3, 445560, Note_off_c, 1, 96, 0
3, 446400, Note_on_c, 1, 73, 96
3, 446400, Note_on_c, 1, 85, 96
3, 446400, Note_on_c, 1, 97, 96
3, 446520, Note_off_c, 1, 73, 0
3, 446520, Note_off_c, 1, 85, 0
3, 446520, Note_off_c, 1, 97, 0
3, 447360, Note_on_c, 1, 61, 96
3, 447360, Note_on_c, 1, 74, 96
3, 447360, Note_on_c, 1, 86, 96
3, 447360, Note_on_c, 1, 98, 96
3, 447480, Note_off_c, 1, 61, 0
3, 447480, Note_off_c, 1, 74, 0
3, 447480, Note_off_c, 1, 86, 0
3, 447480, Note_off_c, 1, 98, 0
3, 448320, Note_on_c, 1, 72, 96
3, 448320, Note_on_c, 1, 85, 96
3, 448320, Note_on_c, 1, 97, 96
3, 448440, Note_off_c, 1, 72, 0
3, 448440, Note_off_c, 1, 85, 0
3, 448440, Note_off_c, 1, 97, 0
3, 449280, Note_on_c, 1, 61, 96
3, 449280, Note_on_c, 1, 74, 96
3, 449280, Note_on_c, 1, 87, 96
3, 449280, Note_on_c, 1, 99, 96
3, 449400, Note_off_c, 1, 61, 0
3, 449400, Note_off_c, 1, 74, 0
3, 449400, Note_off_c, 1, 87, 0
3, 449400, Note_off_c, 1, 99, 0
3, 450240, Note_on_c, 1, 73, 96
3, 450240, Note_on_c, 1, 86, 96
3, 450240, Note_on_c, 1, 98, 96
3, 450360, Note_off_c, 1, 73, 0
3, 450360, Note_off_c, 1, 86, 0
3, 450360, Note_off_c, 1, 98, 0
3, 451200, Note_on_c, 1, 62, 96
3, 451200, Note_on_c, 1, 75, 96
3, 451200, Note_on_c, 1, 88, 96
3, 451200, Note_on_c, 1, 100, 96
3, 451320, Note_off_c, 1, 62, 0
3, 451320, Note_off_c, 1, 75, 0
3, 451320, Note_off_c, 1, 88, 0
3, 451320, Note_off_c, 1, 100, 0
3, 452160, Note_on_c, 1, 74, 96
3, 452160, Note_on_c, 1, 87, 96
3, 452160, Note_on_c, 1, 99, 96
3, 452280, Note_off_c, 1, 74, 0
3, 452280, Note_off_c, 1, 87, 0
3, 452280, Note_off_c, 1, 99, 0
3, 453120, Note_on_c, 1, 61, 96
3, 453120, Note_on_c, 1, 73, 96
3, 453120, Note_on_c, 1, 85, 96
3, 453120, Note_on_c, 1, 97, 96
3, 453240, Note_off_c, 1, 61, 0
3, 453240, Note_off_c, 1, 73, 0
3, 453240, Note_off_c, 1, 85, 0
3, 453240, Note_off_c, 1, 97, 0
3, 454080, Note_on_c, 1, 73, 96
3, 454080, Note_on_c, 1, 85, 96
3, 454080, Note_on_c, 1, 97, 96
3, 454200, Note_off_c, 1, 73, 0
3, 454200, Note_off_c, 1, 85, 0
3, 454200, Note_off_c, 1, 97, 0
3, 455040, Note_on_c, 1, 61, 96
3, 455040, Note_on_c, 1, 73, 96
3, 455040, Note_on_c, 1, 85, 96
3, 455040, Note_on_c, 1, 97, 96
3, 455160, Note_off_c, 1, 61, 0
3, 455160, Note_off_c, 1, 73, 0
3, 455160, Note_off_c, 1, 85, 0
3, 455160, Note_off_c, 1, 97, 0
3, 455680, Note_on_c, 1, 96, 96
3, 455800, Note_off_c, 1, 96, 0
3, 456000, Note_on_c, 1, 73, 96
3, 456000, Note_on_c, 1, 85, 96
3, 456000, Note_on_c, 1, 97, 96
3, 456120, Note_off_c, 1, 73, 0
3, 456120, Note_off_c, 1, 85, 0
3, 456120, Note_off_c, 1, 97, 0
3, 456640, Note_on_c, 1, 97, 96
3, 456760, Note_off_c, 1, 97, 0
3, 456960, Note_on_c, 1, 62, 96
3, 456960, Note_on_c, 1, 75, 96
3, 456960, Note_on_c, 1, 88, 96
3, 456960, Note_on_c, 1, 100, 96
3, 457200, Note_off_c, 1, 62, 0
3, 457200, Note_off_c, 1, 75, 0
3, 457200, Note_off_c, 1, 88, 0
3, 457760, Note_off_c, 1, 100, 0
3, 457920, Note_on_c, 1, 75, 96
3, 457920, Note_on_c, 1, 88, 96
3, 457920, Note_on_c, 1, 100, 96
3, 458160, Note_off_c, 1, 75, 0
3, 458160, Note_off_c, 1, 88, 0
3, 458720, Note_off_c, 1, 100, 0
3, 458880, Note_on_c, 1, 60, 96
3, 458880, Note_on_c, 1, 72, 96
3, 458880, Note_on_c, 1, 85, 96
3, 458880, Note_on_c, 1, 97, 96
3, 459000, Note_off_c, 1, 60, 0
3, 459000, Note_off_c, 1, 72, 0
3, 459000, Note_off_c, 1, 85, 0
3, 459000, Note_off_c, 1, 97, 0
3, 459200, Note_on_c, 1, 97, 96
3, 459320, Note_off_c, 1, 97, 0
3, 459520, Note_on_c, 1, 97, 96
3, 459640, Note_off_c, 1, 97, 0
3, 459840, Note_on_c, 1, 75, 96
3, 459840, Note_on_c, 1, 88, 96
3, 459840, Note_on_c, 1, 100, 96
3, 460080, Note_off_c, 1, 75, 0
3, 460080, Note_off_c, 1, 88, 0
3, 460640, Note_off_c, 1, 100, 0
3, 460800, Note_on_c, 1, 62, 96
3, 460800, Note_on_c, 1, 75, 96
3, 460800, Note_on_c, 1, 88, 96
3, 460800, Note_on_c, 1, 100, 96
3, 461040, Note_off_c, 1, 62, 0
3, 461040, Note_off_c, 1, 75, 0
3, 461040, Note_off_c, 1, 88, 0
3, 461600, Note_off_c, 1, 100, 0
3, 461760, Note_on_c, 1, 73, 96
3, 461760, Note_on_c, 1, 86, 96
3, 461760, Note_on_c, 1, 98, 96
3, 461880, Note_off_c, 1, 73, 0
3, 461880, Note_off_c, 1, 86, 0
3, 461880, Note_off_c, 1, 98, 0
3, 462400, Note_on_c, 1, 98, 96
3, 462520, Note_off_c, 1, 98, 0
3, 462720, Note_on_c, 1, 61, 96
3, 462720, Note_on_c, 1, 74, 96
3, 462720, Note_on_c, 1, 87, 96
3, 462720, Note_on_c, 1, 99, 96
3, 462840, Note_off_c, 1, 61, 0
3, 462840, Note_off_c, 1, 74, 0
3, 462840, Note_off_c, 1, 87, 0
3, 462840, Note_off_c, 1, 99, 0
3, 463040, Note_on_c, 1, 99, 96
3, 463160, Note_off_c, 1, 99, 0
3, 463360, Note_on_c, 1, 99, 96
3, 463480, Note_off_c, 1, 99, 0
3, 463680, Note_on_c, 1, 74, 96
3, 463680, Note_on_c, 1, 87, 96
3, 463680, Note_on_c, 1, 99, 96
3, 463920, Note_off_c, 1, 74, 0
3, 463920, Note_off_c, 1, 87, 0
3, 464480, Note_off_c, 1, 99, 0
3, 464640, Note_on_c, 1, 61, 96
3, 464640, Note_on_c, 1, 73, 96
3, 464640, Note_on_c, 1, 86, 96
3, 464640, Note_on_c, 1, 98, 96
3, 464760, Note_off_c, 1, 61, 0
3, 464760, Note_off_c, 1, 73, 0
3, 464760, Note_off_c, 1, 86, 0
3, 464760, Note_off_c, 1, 98, 0
3, 464960, Note_on_c, 1, 98, 96
3, 465080, Note_off_c, 1, 98, 0
3, 465280, Note_on_c, 1, 98, 96
3, 465400, Note_off_c, 1, 98, 0
3, 465600, Note_on_c, 1, 72, 96
3, 465600, Note_on_c, 1, 85, 96
3, 465600, Note_on_c, 1, 97, 96
3, 465720, Note_off_c, 1, 72, 0
3, 465720, Note_off_c, 1, 85, 0
3, 465720, Note_off_c, 1, 97, 0
3, 465920, Note_on_c, 1, 97, 96
3, 466040, Note_off_c, 1, 97, 0
3, 466240, Note_on_c, 1, 97, 96
3, 466360, Note_off_c, 1, 97, 0
3, 466560, Note_on_c, 1, 62, 96
3, 466560, Note_on_c, 1, 75, 96
3, 466560, Note_on_c, 1, 87, 96
3, 466560, Note_on_c, 1, 99, 96
3, 466800, Note_off_c, 1, 62, 0
3, 466800, Note_off_c, 1, 75, 0
3, 466800, Note_off_c, 1, 87, 0
3, 467360, Note_off_c, 1, 99, 0
3, 467520, Note_on_c, 1, 74, 96
3, 467520, Note_on_c, 1, 86, 96
3, 467520, Note_on_c, 1, 98, 96
3, 467760, Note_off_c, 1, 74, 0
3, 467760, Note_off_c, 1, 86, 0
3, 468320, Note_off_c, 1, 98, 0
3, 468480, Note_on_c, 1, 61, 96
3, 468480, Note_on_c, 1, 73, 96
3, 468480, Note_on_c, 1, 85, 96
3, 468480, Note_on_c, 1, 97, 96
3, 468600, Note_off_c, 1, 61, 0
3, 468600, Note_off_c, 1, 73, 0
3, 468600, Note_off_c, 1, 85, 0
3, 468600, Note_off_c, 1, 97, 0
3, 469440, Note_on_c, 1, 73, 96
3, 469440, Note_on_c, 1, 85, 96
3, 469440, Note_on_c, 1, 97, 96
3, 469560, Note_off_c, 1, 73, 0
3, 469560, Note_off_c, 1, 85, 0
3, 469560, Note_off_c, 1, 97, 0
3, 470080, Note_on_c, 1, 96, 96
3, 470200, Note_off_c, 1, 96, 0
3, 470400, Note_on_c, 1, 61, 96
3, 470400, Note_on_c, 1, 73, 96
3, 470400, Note_on_c, 1, 85, 96
3, 470400, Note_on_c, 1, 97, 96
3, 470520, Note_off_c, 1, 61, 0
3, 470520, Note_off_c, 1, 73, 0
3, 470520, Note_off_c, 1, 85, 0
3, 470520, Note_off_c, 1, 97, 0
3, 471040, Note_on_c, 1, 96, 96
3, 471160, Note_off_c, 1, 96, 0
3, 471360, Note_on_c, 1, 73, 96
3, 471360, Note_on_c, 1, 85, 96
3, 471360, Note_on_c, 1, 97, 96
3, 471480, Note_off_c, 1, 73, 0
3, 471480, Note_off_c, 1, 85, 0
3, 471480, Note_off_c, 1, 97, 0
3, 472000, Note_on_c, 1, 96, 96
3, 472120, Note_off_c, 1, 96, 0
3, 472320, Note_on_c, 1, 61, 96
3, 472320, Note_on_c, 1, 73, 96
3, 472320, Note_on_c, 1, 85, 96
3, 472320, Note_on_c, 1, 97, 96
3, 472440, Note_off_c, 1, 61, 0
3, 472440, Note_off_c, 1, 73, 0
3, 472440, Note_off_c, 1, 85, 0
3, 472440, Note_off_c, 1, 97, 0
3, 472960, Note_on_c, 1, 96, 96
3, 473080, Note_off_c, 1, 96, 0
3, 473280, Note_on_c, 1, 73, 96
3, 473280, Note_on_c, 1, 85, 96
3, 473280, Note_on_c, 1, 97, 96
3, 473400, Note_off_c, 1, 73, 0
3, 473400, Note_off_c, 1, 85, 0
3, 473400, Note_off_c, 1, 97, 0
3, 473920, Note_on_c, 1, 96, 96
3, 474040, Note_off_c, 1, 96, 0
3, 474240, Note_on_c, 1, 61, 96
3, 474240, Note_on_c, 1, 73, 96
3, 474240, Note_on_c, 1, 85, 96
3, 474240, Note_on_c, 1, 97, 96
3, 474360, Note_off_c, 1, 61, 0
3, 474360, Note_off_c, 1, 73, 0
3, 474360, Note_off_c, 1, 85, 0
3, 474360, Note_off_c, 1, 97, 0
3, 474880, Note_on_c, 1, 96, 96
3, 475000, Note_off_c, 1, 96, 0
3, 475200, Note_on_c, 1, 73, 96
3, 475200, Note_on_c, 1, 85, 96
3, 475200, Note_on_c, 1, 97, 96
3, 475440, Note_off_c, 1, 73, 0
3, 475440, Note_off_c, 1, 85, 0
3, 476000, Note_off_c, 1, 97, 0
3, 476160, Note_on_c, 1, 62, 96
3, 476160, Note_on_c, 1, 75, 96
3, 476160, Note_on_c, 1, 88, 96
3, 476160, Note_on_c, 1, 100, 96
3, 476400, Note_off_c, 1, 62, 0
3, 476400, Note_off_c, 1, 75, 0
3, 476400, Note_off_c, 1, 88, 0
3, 476960, Note_off_c, 1, 100, 0
3, 477120, Note_on_c, 1, 75, 96
3, 477120, Note_on_c, 1, 88, 96
3, 477120, Note_on_c, 1, 100, 96
3, 477360, Note_off_c, 1, 75, 0
3, 477360, Note_off_c, 1, 88, 0
3, 477920, Note_off_c, 1, 100, 0
3, 478080, Note_on_c, 1, 61, 96
3, 478080, Note_on_c, 1, 74, 96
3, 478080, Note_on_c, 1, 87, 96
3, 478080, Note_on_c, 1, 99, 96
3, 478320, Note_off_c, 1, 61, 0
3, 478320, Note_off_c, 1, 74, 0
3, 478320, Note_off_c, 1, 87, 0
3, 478880, Note_off_c, 1, 99, 0
3, 479040, Note_on_c, 1, 74, 96
3, 479040, Note_on_c, 1, 87, 96
3, 479040, Note_on_c, 1, 99, 96
3, 479280, Note_off_c, 1, 74, 0
3, 479280, Note_off_c, 1, 87, 0
3, 479840, Note_off_c, 1, 99, 0
3, 480000, Note_on_c, 1, 61, 96
3, 480000, Note_on_c, 1, 67, 96
3, 480000, Note_on_c, 1, 73, 96
3, 480000, Note_on_c, 1, 79, 96
3, 480000, Note_on_c, 1, 86, 96
3, 480000, Note_on_c, 1, 91, 96
3, 480000, Note_on_c, 1, 97, 96
3, 480000, Note_on_c, 1, 103, 96
3, 480120, Note_off_c, 1, 97, 0
3, 480240, Note_off_c, 1, 61, 0
3, 480240, Note_off_c, 1, 73, 0
3, 480240, Note_off_c, 1, 86, 0
3, 480240, Note_on_c, 1, 98, 96
3, 480360, Note_off_c, 1, 98, 0
3, 480960, Note_on_c, 1, 73, 96
3, 480960, Note_on_c, 1, 86, 96
3, 480960, Note_on_c, 1, 98, 96
3, 481080, Note_off_c, 1, 73, 0
3, 481080, Note_off_c, 1, 86, 0
3, 481080, Note_off_c, 1, 98, 0
3, 481600, Note_on_c, 1, 98, 96
3, 481720, Note_off_c, 1, 98, 0
3, 481920, Note_on_c, 1, 60, 96
3, 481920, Note_on_c, 1, 72, 96
3, 481920, Note_on_c, 1, 85, 96
3, 481920, Note_on_c, 1, 97, 96
3, 482040, Note_off_c, 1, 60, 0
3, 482040, Note_off_c, 1, 72, 0
3, 482040, Note_off_c, 1, 85, 0
3, 482040, Note_off_c, 1, 97, 0
3, 482560, Note_on_c, 1, 99, 96
3, 482680, Note_off_c, 1, 99, 0
3, 482880, Note_on_c, 1, 74, 96
3, 482880, Note_on_c, 1, 86, 96
3, 482880, Note_on_c, 1, 98, 96
3, 483120, Note_off_c, 1, 74, 0
3, 483120, Note_off_c, 1, 86, 0
3, 483680, Note_off_c, 1, 98, 0
3, 483840, Note_off_c, 1, 67, 0
3, 483840, Note_off_c, 1, 79, 0
3, 483840, Note_off_c, 1, 91, 0
3, 483840, Note_off_c, 1, 103, 0
3, 483840, Note_on_c, 1, 61, 96
3, 483840, Note_on_c, 1, 73, 96
3, 483840, Note_on_c, 1, 85, 96
3, 483840, Note_on_c, 1, 97, 96
3, 483960, Note_off_c, 1, 61, 0
3, 483960, Note_off_c, 1, 73, 0
3, 483960, Note_off_c, 1, 85, 0
3, 483960, Note_off_c, 1, 97, 0
3, 484800, Note_on_c, 1, 73, 96
3, 484800, Note_on_c, 1, 85, 96
3, 484800, Note_on_c, 1, 97, 96
3, 484920, Note_off_c, 1, 73, 0
3, 484920, Note_off_c, 1, 85, 0
3, 484920, Note_off_c, 1, 97, 0
3, 485440, Note_on_c, 1, 96, 96
3, 485560, Note_off_c, 1, 96, 0
3, 485760, Note_on_c, 1, 61, 96
3, 485760, Note_on_c, 1, 73, 96
3, 485760, Note_on_c, 1, 85, 96
3, 485760, Note_on_c, 1, 97, 96
3, 485880, Note_off_c, 1, 61, 0
3, 485880, Note_off_c, 1, 73, 0
3, 485880, Note_off_c, 1, 85, 0
3, 485880, Note_off_c, 1, 97, 0
3, 486400, Note_on_c, 1, 96, 96
3, 486520, Note_off_c, 1, 96, 0
3, 486720, Note_on_c, 1, 73, 96
3, 486720, Note_on_c, 1, 85, 96
3, 486720, Note_on_c, 1, 97, 96
3, 486840, Note_off_c, 1, 73, 0
3, 486840, Note_off_c, 1, 85, 0
3, 486840, Note_off_c, 1, 97, 0
3, 487360, Note_on_c, 1, 96, 96
3, 487480, Note_off_c, 1, 96, 0
3, 487680, Note_on_c, 1, 61, 96
3, 487680, Note_on_c, 1, 73, 96
3, 487680, Note_on_c, 1, 85, 96
3, 487680, Note_on_c, 1, 97, 96
3, 487800, Note_off_c, 1, 61, 0
3, 487800, Note_off_c, 1, 73, 0
3, 487800, Note_off_c, 1, 85, 0
3, 487800, Note_off_c, 1, 97, 0
3, 488320, Note_on_c, 1, 96, 96
3, 488440, Note_off_c, 1, 96, 0
3, 488640, Note_on_c, 1, 73, 96
3, 488640, Note_on_c, 1, 85, 96
3, 488640, Note_on_c, 1, 97, 96
3, 488760, Note_off_c, 1, 73, 0
3, 488760, Note_off_c, 1, 85, 0
3, 488760, Note_off_c, 1, 97, 0
3, 489280, Note_on_c, 1, 96, 96
3, 489400, Note_off_c, 1, 96, 0
3, 489600, Note_on_c, 1, 61, 96
3, 489600, Note_on_c, 1, 73, 96
3, 489600, Note_on_c, 1, 85, 96
3, 489600, Note_on_c, 1, 97, 96
3, 489720, Note_off_c, 1, 61, 0
3, 489720, Note_off_c, 1, 73, 0
3, 489720, Note_off_c, 1, 85, 0
3, 489720, Note_off_c, 1, 97, 0
3, 490240, Note_on_c, 1, 96, 96
3, 490360, Note_off_c, 1, 96, 0
3, 490560, Note_on_c, 1, 73, 96
3, 490560, Note_on_c, 1, 85, 96
3, 490560, Note_on_c, 1, 97, 96
3, 490680, Note_off_c, 1, 73, 0
3, 490680, Note_off_c, 1, 85, 0
3, 490680, Note_off_c, 1, 97, 0
3, 491200, Note_on_c, 1, 97, 96
3, 491320, Note_off_c, 1, 97, 0
3, 491520, Note_on_c, 1, 62, 96
3, 491520, Note_on_c, 1, 75, 96
3, 491520, Note_on_c, 1, 88, 96
3, 491520, Note_on_c, 1, 100, 96
3, 491640, Note_off_c, 1, 62, 0
3, 491640, Note_off_c, 1, 75, 0
3, 491640, Note_off_c, 1, 88, 0
3, 491640, Note_off_c, 1, 100, 0
3, 492160, Note_on_c, 1, 100, 96
3, 492280, Note_off_c, 1, 100, 0
3, 492480, Note_on_c, 1, 75, 96
3, 492480, Note_on_c, 1, 88, 96
3, 492480, Note_on_c, 1, 100, 96
3, 492600, Note_off_c, 1, 75, 0
3, 492600, Note_off_c, 1, 88, 0
3, 492600, Note_off_c, 1, 100, 0
3, 492800, Note_on_c, 1, 100, 96
3, 492920, Note_off_c, 1, 100, 0
3, 493120, Note_on_c, 1, 100, 96
3, 493240, Note_off_c, 1, 100, 0
3, 493440, Note_on_c, 1, 62, 96
3, 493440, Note_on_c, 1, 75, 96
3, 493440, Note_on_c, 1, 88, 96
3, 493440, Note_on_c, 1, 100, 96
3, 493680, Note_off_c, 1, 62, 0
3, 493680, Note_off_c, 1, 75, 0
3, 493680, Note_off_c, 1, 88, 0
3, 493920, Note_off_c, 1, 100, 0
3, 494080, Note_on_c, 1, 100, 96
3, 494200, Note_off_c, 1, 100, 0
3, 494400, Note_on_c, 1, 75, 96
3, 494400, Note_on_c, 1, 88, 96
3, 494400, Note_on_c, 1, 100, 96
3, 494520, Note_off_c, 1, 75, 0
3, 494520, Note_off_c, 1, 88, 0
3, 494520, Note_off_c, 1, 100, 0
3, 494720, Note_on_c, 1, 100, 96
3, 494840, Note_off_c, 1, 100, 0
3, 495040, Note_on_c, 1, 100, 96
3, 495160, Note_off_c, 1, 100, 0
3, 495360, Note_on_c, 1, 62, 96
3, 495360, Note_on_c, 1, 75, 96
3, 495360, Note_on_c, 1, 88, 96
3, 495360, Note_on_c, 1, 100, 96
3, 495600, Note_off_c, 1, 62, 0
3, 495600, Note_off_c, 1, 75, 0
3, 495600, Note_off_c, 1, 88, 0
3, 495840, Note_off_c, 1, 100, 0
3, 496000, Note_on_c, 1, 100, 96
3, 496120, Note_off_c, 1, 100, 0
3, 496320, Note_on_c, 1, 75, 96
3, 496320, Note_on_c, 1, 88, 96
3, 496320, Note_on_c, 1, 100, 96
3, 496440, Note_off_c, 1, 75, 0
3, 496440, Note_off_c, 1, 88, 0
3, 496440, Note_off_c, 1, 100, 0
3, 496640, Note_on_c, 1, 100, 96
3, 496760, Note_off_c, 1, 100, 0
3, 496960, Note_on_c, 1, 100, 96
3, 497080, Note_off_c, 1, 100, 0
3, 497280, Note_on_c, 1, 62, 96
3, 497280, Note_on_c, 1, 75, 96
3, 497280, Note_on_c, 1, 88, 96
3, 497280, Note_on_c, 1, 100, 96
3, 497520, Note_off_c, 1, 62, 0
3, 497520, Note_off_c, 1, 75, 0
3, 497520, Note_off_c, 1, 88, 0
3, 497760, Note_off_c, 1, 100, 0
3, 497920, Note_on_c, 1, 100, 96
3, 498040, Note_off_c, 1, 100, 0
3, 498240, Note_on_c, 1, 75, 96
3, 498240, Note_on_c, 1, 88, 96
3, 498240, Note_on_c, 1, 100, 96
3, 498360, Note_off_c, 1, 75, 0
3, 498360, Note_off_c, 1, 88, 0
3, 498360, Note_off_c, 1, 100, 0
3, 498560, Note_on_c, 1, 100, 96
3, 498680, Note_off_c, 1, 100, 0
3, 498880, Note_on_c, 1, 100, 96
3, 499000, Note_off_c, 1, 100, 0
3, 499200, Note_on_c, 1, 62, 96
3, 499200, Note_on_c, 1, 75, 96
3, 499200, Note_on_c, 1, 88, 96
3, 499200, Note_on_c, 1, 100, 96
3, 499440, Note_off_c, 1, 62, 0
3, 499440, Note_off_c, 1, 75, 0
3, 499440, Note_off_c, 1, 88, 0
3, 499680, Note_off_c, 1, 100, 0
3, 499840, Note_on_c, 1, 100, 96
3, 499960, Note_off_c, 1, 100, 0
3, 500160, Note_on_c, 1, 75, 96
3, 500160, Note_on_c, 1, 88, 96
3, 500160, Note_on_c, 1, 100, 96
3, 500280, Note_off_c, 1, 75, 0
3, 500280, Note_off_c, 1, 88, 0
3, 500280, Note_off_c, 1, 100, 0
3, 500480, Note_on_c, 1, 100, 96
3, 500600, Note_off_c, 1, 100, 0
3, 500800, Note_on_c, 1, 100, 96
3, 500920, Note_off_c, 1, 100, 0
3, 501120, Note_on_c, 1, 62, 96
3, 501120, Note_on_c, 1, 75, 96
3, 501120, Note_on_c, 1, 88, 96
3, 501120, Note_on_c, 1, 100, 96
3, 501360, Note_off_c, 1, 62, 0
3, 501360, Note_off_c, 1, 75, 0
3, 501360, Note_off_c, 1, 88, 0
3, 501600, Note_off_c, 1, 100, 0
3, 501760, Note_on_c, 1, 100, 96
3, 501880, Note_off_c, 1, 100, 0
3, 502080, Note_on_c, 1, 75, 96
3, 502080, Note_on_c, 1, 88, 96
3, 502080, Note_on_c, 1, 100, 96
3, 502200, Note_off_c, 1, 75, 0
3, 502200, Note_off_c, 1, 88, 0
3, 502200, Note_off_c, 1, 100, 0
3, 502400, Note_on_c, 1, 100, 96
3, 502520, Note_off_c, 1, 100, 0
3, 502720, Note_on_c, 1, 100, 96
3, 502840, Note_off_c, 1, 100, 0
3, 503040, Note_on_c, 1, 61, 96
3, 503040, Note_on_c, 1, 73, 96
3, 503040, Note_on_c, 1, 85, 96
3, 503040, Note_on_c, 1, 97, 96
3, 503160, Note_off_c, 1, 61, 0
3, 503160, Note_off_c, 1, 73, 0
3, 503160, Note_off_c, 1, 85, 0
3, 503160, Note_off_c, 1, 97, 0
3, 503680, Note_on_c, 1, 74, 96
3, 503680, Note_on_c, 1, 86, 96
3, 503680, Note_on_c, 1, 98, 96
3, 503800, Note_off_c, 1, 74, 0
3, 503800, Note_off_c, 1, 86, 0
3, 503800, Note_off_c, 1, 98, 0
3, 504320, Note_on_c, 1, 87, 96
3, 504320, Note_on_c, 1, 99, 96
3, 504440, Note_off_c, 1, 87, 0
3, 504440, Note_off_c, 1, 99, 0
3, 504960, Note_on_c, 1, 61, 96
3, 504960, Note_on_c, 1, 73, 96
3, 504960, Note_on_c, 1, 85, 96
3, 504960, Note_on_c, 1, 97, 96
3, 505080, Note_off_c, 1, 61, 0
3, 505080, Note_off_c, 1, 73, 0
3, 505080, Note_off_c, 1, 85, 0
3, 505080, Note_off_c, 1, 97, 0
3, 505600, Note_on_c, 1, 84, 96
3, 505600, Note_on_c, 1, 96, 96
3, 505720, Note_off_c, 1, 84, 0
3, 505720, Note_off_c, 1, 96, 0
3, 506240, Note_on_c, 1, 73, 96
3, 506240, Note_on_c, 1, 85, 96
3, 506240, Note_on_c, 1, 97, 96
3, 506360, Note_off_c, 1, 73, 0
3, 506360, Note_off_c, 1, 85, 0
3, 506360, Note_off_c, 1, 97, 0
3, 506880, Note_on_c, 1, 62, 96
3, 506880, Note_on_c, 1, 75, 96
3, 506880, Note_on_c, 1, 88, 96
3, 506880, Note_on_c, 1, 100, 96
3, 507000, Note_off_c, 1, 62, 0
3, 507000, Note_off_c, 1, 75, 0
3, 507000, Note_off_c, 1, 88, 0
3, 507000, Note_off_c, 1, 100, 0
3, 507520, Note_on_c, 1, 100, 96
3, 507640, Note_off_c, 1, 100, 0
3, 507840, Note_on_c, 1, 75, 96
3, 507840, Note_on_c, 1, 88, 96
3, 507840, Note_on_c, 1, 100, 96
3, 507960, Note_off_c, 1, 75, 0
3, 507960, Note_off_c, 1, 88, 0
3, 507960, Note_off_c, 1, 100, 0
3, 508480, Note_on_c, 1, 100, 96
3, 508600, Note_off_c, 1, 100, 0
3, 508800, Note_on_c, 1, 62, 96
3, 508800, Note_on_c, 1, 75, 96
3, 508800, Note_on_c, 1, 88, 96
3, 508800, Note_on_c, 1, 100, 96
3, 508920, Note_off_c, 1, 62, 0
3, 508920, Note_off_c, 1, 75, 0
3, 508920, Note_off_c, 1, 88, 0
3, 508920, Note_off_c, 1, 100, 0
3, 509440, Note_on_c, 1, 100, 96
3, 509560, Note_off_c, 1, 100, 0
3, 509760, Note_on_c, 1, 75, 96
3, 509760, Note_on_c, 1, 88, 96
3, 509760, Note_on_c, 1, 100, 96
3, 509880, Note_off_c, 1, 75, 0
3, 509880, Note_off_c, 1, 88, 0
3, 509880, Note_off_c, 1, 100, 0
3, 510080, Note_on_c, 1, 100, 96
3, 510200, Note_off_c, 1, 100, 0
3, 510400, Note_on_c, 1, 100, 96
3, 510520, Note_off_c, 1, 100, 0
3, 510720, Note_on_c, 1, 62, 96
3, 510720, Note_on_c, 1, 75, 96
3, 510720, Note_on_c, 1, 88, 96
3, 510720, Note_on_c, 1, 100, 96
3, 510960, Note_off_c, 1, 62, 0
3, 510960, Note_off_c, 1, 75, 0
3, 510960, Note_off_c, 1, 88, 0
3, 511200, Note_off_c, 1, 100, 0
3, 511360, Note_on_c, 1, 100, 96
3, 511480, Note_off_c, 1, 100, 0
3, 511680, Note_on_c, 1, 75, 96
3, 511680, Note_on_c, 1, 88, 96
3, 511680, Note_on_c, 1, 100, 96
3, 511800, Note_off_c, 1, 75, 0
3, 511800, Note_off_c, 1, 88, 0
3, 511800, Note_off_c, 1, 100, 0
3, 512000, Note_on_c, 1, 100, 96
3, 512120, Note_off_c, 1, 100, 0
3, 512320, Note_on_c, 1, 100, 96
3, 512440, Note_off_c, 1, 100, 0
3, 512640, Note_on_c, 1, 62, 96
3, 512640, Note_on_c, 1, 75, 96
3, 512640, Note_on_c, 1, 88, 96
3, 512640, Note_on_c, 1, 100, 96
3, 512880, Note_off_c, 1, 62, 0
3, 512880, Note_off_c, 1, 75, 0
3, 512880, Note_off_c, 1, 88, 0
3, 513120, Note_off_c, 1, 100, 0
3, 513280, Note_on_c, 1, 100, 96
3, 513400, Note_off_c, 1, 100, 0
3, 513600, Note_on_c, 1, 75, 96
3, 513600, Note_on_c, 1, 88, 96
3, 513600, Note_on_c, 1, 100, 96
3, 513720, Note_off_c, 1, 75, 0
3, 513720, Note_off_c, 1, 88, 0
3, 513720, Note_off_c, 1, 100, 0
3, 513920, Note_on_c, 1, 100, 96
3, 514040, Note_off_c, 1, 100, 0
3, 514240, Note_on_c, 1, 100, 96
3, 514360, Note_off_c, 1, 100, 0
3, 514560, Note_on_c, 1, 62, 96
3, 514560, Note_on_c, 1, 75, 96
3, 514560, Note_on_c, 1, 88, 96
3, 514560, Note_on_c, 1, 100, 96
3, 514800, Note_off_c, 1, 62, 0
3, 514800, Note_off_c, 1, 75, 0
3, 514800, Note_off_c, 1, 88, 0
3, 515040, Note_off_c, 1, 100, 0
3, 515200, Note_on_c, 1, 100, 96
3, 515320, Note_off_c, 1, 100, 0
3, 515520, Note_on_c, 1, 75, 96
3, 515520, Note_on_c, 1, 88, 96
3, 515520, Note_on_c, 1, 100, 96
3, 515640, Note_off_c, 1, 75, 0
3, 515640, Note_off_c, 1, 88, 0
3, 515640, Note_off_c, 1, 100, 0
3, 515840, Note_on_c, 1, 100, 96
3, 515960, Note_off_c, 1, 100, 0
3, 516160, Note_on_c, 1, 100, 96
3, 516280, Note_off_c, 1, 100, 0
3, 516480, Note_on_c, 1, 62, 96
3, 516480, Note_on_c, 1, 75, 96
3, 516480, Note_on_c, 1, 88, 96
3, 516480, Note_on_c, 1, 100, 96
3, 516720, Note_off_c, 1, 62, 0
3, 516720, Note_off_c, 1, 75, 0
3, 516720, Note_off_c, 1, 88, 0
3, 516960, Note_off_c, 1, 100, 0
3, 517120, Note_on_c, 1, 100, 96
3, 517240, Note_off_c, 1, 100, 0
3, 517440, Note_on_c, 1, 75, 96
3, 517440, Note_on_c, 1, 88, 96
3, 517440, Note_on_c, 1, 100, 96
3, 517560, Note_off_c, 1, 75, 0
3, 517560, Note_off_c, 1, 88, 0
3, 517560, Note_off_c, 1, 100, 0
3, 517760, Note_on_c, 1, 99, 96
3, 517880, Note_off_c, 1, 99, 0
3, 518080, Note_on_c, 1, 98, 96
3, 518200, Note_off_c, 1, 98, 0
3, 518400, Note_on_c, 1, 61, 96
3, 518400, Note_on_c, 1, 73, 96
3, 518400, Note_on_c, 1, 85, 96
3, 518400, Note_on_c, 1, 97, 96
3, 518520, Note_off_c, 1, 61, 0
3, 518520, Note_off_c, 1, 73, 0
3, 518520, Note_off_c, 1, 85, 0
3, 518520, Note_off_c, 1, 97, 0
3, 519040, Note_on_c, 1, 74, 96
3, 519040, Note_on_c, 1, 86, 96
3, 519040, Note_on_c, 1, 98, 96
3, 519160, Note_off_c, 1, 74, 0
3, 519160, Note_off_c, 1, 86, 0
3, 519160, Note_off_c, 1, 98, 0
3, 519680, Note_on_c, 1, 87, 96
3, 519680, Note_on_c, 1, 99, 96
3, 519800, Note_off_c, 1, 87, 0
3, 519800, Note_off_c, 1, 99, 0
3, 520320, Note_on_c, 1, 61, 96
3, 520320, Note_on_c, 1, 73, 96
3, 520320, Note_on_c, 1, 85, 96
3, 520320, Note_on_c, 1, 97, 96
3, 520440, Note_off_c, 1, 61, 0
3, 520440, Note_off_c, 1, 73, 0
3, 520440, Note_off_c, 1, 85, 0
3, 520440, Note_off_c, 1, 97, 0
3, 520960, Note_on_c, 1, 84, 96
3, 520960, Note_on_c, 1, 96, 96
3, 521080, Note_off_c, 1, 84, 0
3, 521080, Note_off_c, 1, 96, 0
3, 521600, Note_on_c, 1, 73, 96
3, 521600, Note_on_c, 1, 85, 96
3, 521600, Note_on_c, 1, 97, 96
3, 521720, Note_off_c, 1, 73, 0
3, 521720, Note_off_c, 1, 85, 0
3, 521720, Note_off_c, 1, 97, 0
3, 522240, Note_on_c, 1, 61, 96
3, 522240, Note_on_c, 1, 67, 96
3, 522240, Note_on_c, 1, 73, 96
3, 522240, Note_on_c, 1, 79, 96
3, 522240, Note_on_c, 1, 85, 96
3, 522240, Note_on_c, 1, 91, 96
3, 522240, Note_on_c, 1, 97, 96
3, 522240, Note_on_c, 1, 103, 96
3, 522360, Note_off_c, 1, 61, 0
3, 522360, Note_off_c, 1, 73, 0
3, 522360, Note_off_c, 1, 85, 0
3, 522360, Note_off_c, 1, 97, 0
3, 522880, Note_on_c, 1, 74, 96
3, 522880, Note_on_c, 1, 86, 96
3, 522880, Note_on_c, 1, 98, 96
3, 523000, Note_off_c, 1, 74, 0
3, 523000, Note_off_c, 1, 86, 0
3, 523000, Note_off_c, 1, 98, 0
3, 523520, Note_on_c, 1, 87, 96
3, 523520, Note_on_c, 1, 99, 96
3, 523640, Note_off_c, 1, 87, 0
3, 523640, Note_off_c, 1, 99, 0
3, 524160, Note_on_c, 1, 61, 96
3, 524160, Note_on_c, 1, 73, 96
3, 524160, Note_on_c, 1, 85, 96
3, 524160, Note_on_c, 1, 97, 96
3, 524280, Note_off_c, 1, 61, 0
3, 524280, Note_off_c, 1, 73, 0
3, 524280, Note_off_c, 1, 85, 0
3, 524280, Note_off_c, 1, 97, 0
3, 524800, Note_on_c, 1, 84, 96
3, 524800, Note_on_c, 1, 96, 96
3, 524920, Note_off_c, 1, 84, 0
3, 524920, Note_off_c, 1, 96, 0
3, 525440, Note_on_c, 1, 73, 96
3, 525440, Note_on_c, 1, 85, 96
3, 525440, Note_on_c, 1, 97, 96
3, 525560, Note_off_c, 1, 73, 0
3, 525560, Note_off_c, 1, 85, 0
3, 525560, Note_off_c, 1, 97, 0
3, 526080, Note_off_c, 1, 67, 0
3, 526080, Note_off_c, 1, 79, 0
3, 526080, Note_off_c, 1, 91, 0
3, 526080, Note_off_c, 1, 103, 0
3, 526080, Note_on_c, 1, 61, 96
3, 526080, Note_on_c, 1, 73, 96
3, 526080, Note_on_c, 1, 85, 96
3, 526080, Note_on_c, 1, 97, 96
3, 526200, Note_off_c, 1, 61, 0
3, 526200, Note_off_c, 1, 73, 0
3, 526200, Note_off_c, 1, 85, 0
3, 526200, Note_off_c, 1, 97, 0
3, 526720, Note_on_c, 1, 74, 96
3, 526720, Note_on_c, 1, 86, 96
3, 526720, Note_on_c, 1, 98, 96
3, 526840, Note_off_c, 1, 74, 0
3, 526840, Note_off_c, 1, 86, 0
3, 526840, Note_off_c, 1, 98, 0
3, 527360, Note_on_c, 1, 87, 96
3, 527360, Note_on_c, 1, 99, 96
3, 527480, Note_off_c, 1, 87, 0
3, 527480, Note_off_c, 1, 99, 0
3, 528000, Note_on_c, 1, 61, 96
3, 528000, Note_on_c, 1, 73, 96
3, 528000, Note_on_c, 1, 85, 96
3, 528000, Note_on_c, 1, 97, 96
3, 528120, Note_off_c, 1, 61, 0
3, 528120, Note_off_c, 1, 73, 0
3, 528120, Note_off_c, 1, 85, 0
3, 528120, Note_off_c, 1, 97, 0
3, 528640, Note_on_c, 1, 84, 96
3, 528640, Note_on_c, 1, 96, 96
3, 528760, Note_off_c, 1, 84, 0
3, 528760, Note_off_c, 1, 96, 0
3, 529280, Note_on_c, 1, 73, 96
3, 529280, Note_on_c, 1, 85, 96
3, 529280, Note_on_c, 1, 97, 96
3, 529400, Note_off_c, 1, 73, 0
3, 529400, Note_off_c, 1, 85, 0
3, 529400, Note_off_c, 1, 97, 0
3, 529920, Note_on_c, 1, 61, 96
3, 529920, Note_on_c, 1, 73, 96
3, 529920, Note_on_c, 1, 85, 96
3, 529920, Note_on_c, 1, 97, 96
3, 530040, Note_off_c, 1, 61, 0
3, 530040, Note_off_c, 1, 73, 0
3, 530040, Note_off_c, 1, 85, 0
3, 530040, Note_off_c, 1, 97, 0
3, 530560, Note_on_c, 1, 74, 96
3, 530560, Note_on_c, 1, 86, 96
3, 530560, Note_on_c, 1, 98, 96
3, 530680, Note_off_c, 1, 74, 0
3, 530680, Note_off_c, 1, 86, 0
3, 530680, Note_off_c, 1, 98, 0
3, 531200, Note_on_c, 1, 87, 96
3, 531200, Note_on_c, 1, 99, 96
3, 531320, Note_off_c, 1, 87, 0
3, 531320, Note_off_c, 1, 99, 0
3, 531840, Note_on_c, 1, 61, 96
3, 531840, Note_on_c, 1, 73, 96
3, 531840, Note_on_c, 1, 85, 96
3, 531840, Note_on_c, 1, 97, 96
3, 531960, Note_off_c, 1, 61, 0
3, 531960, Note_off_c, 1, 73, 0
3, 531960, Note_off_c, 1, 85, 0
3, 531960, Note_off_c, 1, 97, 0
3, 532480, Note_on_c, 1, 84, 96
3, 532480, Note_on_c, 1, 96, 96
3, 532600, Note_off_c, 1, 84, 0
3, 532600, Note_off_c, 1, 96, 0
3, 533120, Note_on_c, 1, 73, 96
3, 533120, Note_on_c, 1, 85, 96
3, 533120, Note_on_c, 1, 97, 96
3, 533240, Note_off_c, 1, 73, 0
3, 533240, Note_off_c, 1, 85, 0
3, 533240, Note_off_c, 1, 97, 0
3, 533760, Note_on_c, 1, 62, 96
3, 533760, Note_on_c, 1, 74, 96
3, 533760, Note_on_c, 1, 86, 96
3, 533760, Note_on_c, 1, 98, 96
3, 533880, Note_off_c, 1, 62, 0
3, 533880, Note_off_c, 1, 74, 0
3, 533880, Note_off_c, 1, 86, 0
3, 533880, Note_off_c, 1, 98, 0
3, 534080, Note_on_c, 1, 98, 96
3, 534200, Note_off_c, 1, 98, 0
3, 534400, Note_on_c, 1, 98, 96
3, 534520, Note_off_c, 1, 98, 0
3, 534720, Note_on_c, 1, 62, 96
3, 534720, Note_on_c, 1, 74, 96
3, 534720, Note_on_c, 1, 86, 96
3, 534720, Note_on_c, 1, 98, 96
3, 534840, Note_off_c, 1, 62, 0
3, 534840, Note_off_c, 1, 74, 0
3, 534840, Note_off_c, 1, 86, 0
3, 534840, Note_off_c, 1, 98, 0
3, 535360, Note_on_c, 1, 98, 96
3, 535480, Note_off_c, 1, 98, 0
3, 535680, Note_on_c, 1, 62, 96
3, 535680, Note_on_c, 1, 74, 96
3, 535680, Note_on_c, 1, 86, 96
3, 535680, Note_on_c, 1, 98, 96
3, 535800, Note_off_c, 1, 62, 0
3, 535800, Note_off_c, 1, 74, 0
3, 535800, Note_off_c, 1, 86, 0
3, 535800, Note_off_c, 1, 98, 0
3, 536320, Note_on_c, 1, 98, 96
3, 536440, Note_off_c, 1, 98, 0
3, 536640, Note_on_c, 1, 74, 96
3, 536640, Note_on_c, 1, 86, 96
3, 536640, Note_on_c, 1, 98, 96
3, 536760, Note_off_c, 1, 74, 0
3, 536760, Note_off_c, 1, 86, 0
3, 536760, Note_off_c, 1, 98, 0
3, 537280, Note_on_c, 1, 98, 96
3, 537400, Note_off_c, 1, 98, 0
3, 537600, Note_on_c, 1, 61, 96
3, 537600, Note_on_c, 1, 73, 96
3, 537600, Note_on_c, 1, 85, 96
3, 537600, Note_on_c, 1, 97, 96
3, 537720, Note_off_c, 1, 61, 0
3, 537720, Note_off_c, 1, 73, 0
3, 537720, Note_off_c, 1, 85, 0
3, 537720, Note_off_c, 1, 97, 0
3, 537920, Note_on_c, 1, 98, 96
3, 538040, Note_off_c, 1, 98, 0
3, 538240, Note_on_c, 1, 98, 96
3, 538360, Note_off_c, 1, 98, 0
3, 538560, Note_on_c, 0, 62, 96
3, 538560, Note_on_c, 1, 74, 96
3, 538560, Note_on_c, 1, 86, 96
3, 538560, Note_on_c, 1, 98, 96
3, 538680, Note_off_c, 0, 62, 0
3, 538680, Note_off_c, 1, 74, 0
3, 538680, Note_off_c, 1, 86, 0
3, 538680, Note_off_c, 1, 98, 0
3, 539200, Note_on_c, 1, 98, 96
3, 539320, Note_off_c, 1, 98, 0
3, 539520, Note_on_c, 1, 62, 96
3, 539520, Note_on_c, 1, 74, 96
3, 539520, Note_on_c, 1, 86, 96
3, 539520, Note_on_c, 1, 98, 96
3, 539640, Note_off_c, 1, 62, 0
3, 539640, Note_off_c, 1, 74, 0
3, 539640, Note_off_c, 1, 86, 0
3, 539640, Note_off_c, 1, 98, 0
3, 540160, Note_on_c, 1, 98, 96
3, 540280, Note_off_c, 1, 98, 0
3, 540480, Note_on_c, 1, 74, 96
3, 540480, Note_on_c, 1, 86, 96
3, 540480, Note_on_c, 1, 98, 96
3, 540600, Note_off_c, 1, 74, 0
3, 540600, Note_off_c, 1, 86, 0
3, 540600, Note_off_c, 1, 98, 0
3, 541120, Note_on_c, 1, 98, 96
3, 541240, Note_off_c, 1, 98, 0
3, 541440, Note_on_c, 1, 61, 96
3, 541440, Note_on_c, 1, 73, 96
3, 541440, Note_on_c, 1, 85, 96
3, 541440, Note_on_c, 1, 97, 96
3, 541560, Note_off_c, 1, 61, 0
3, 541560, Note_off_c, 1, 73, 0
3, 541560, Note_off_c, 1, 85, 0
3, 541560, Note_off_c, 1, 97, 0
3, 541760, Note_on_c, 1, 98, 96
3, 541880, Note_off_c, 1, 98, 0
3, 542080, Note_on_c, 1, 98, 96
3, 542200, Note_off_c, 1, 98, 0
3, 542400, Note_on_c, 1, 74, 96
3, 542400, Note_on_c, 1, 86, 96
3, 542400, Note_on_c, 1, 98, 96
3, 542520, Note_off_c, 1, 74, 0
3, 542520, Note_off_c, 1, 86, 0
3, 542520, Note_off_c, 1, 98, 0
3, 543040, Note_on_c, 1, 98, 96
3, 543160, Note_off_c, 1, 98, 0
3, 543360, Note_on_c, 1, 62, 96
3, 543360, Note_on_c, 1, 75, 96
3, 543360, Note_on_c, 1, 87, 96
3, 543360, Note_on_c, 1, 99, 96
3, 543480, Note_off_c, 1, 62, 0
3, 543480, Note_off_c, 1, 75, 0
3, 543480, Note_off_c, 1, 87, 0
3, 543480, Note_off_c, 1, 99, 0
3, 543680, Note_on_c, 1, 100, 96
3, 543800, Note_off_c, 1, 100, 0
3, 544000, Note_on_c, 1, 100, 96
3, 544120, Note_off_c, 1, 100, 0
3, 544320, Note_on_c, 1, 75, 96
3, 544320, Note_on_c, 1, 88, 96
3, 544320, Note_on_c, 1, 100, 96
3, 544560, Note_off_c, 1, 75, 0
3, 544560, Note_off_c, 1, 88, 0
3, 544800, Note_off_c, 1, 100, 0
3, 544960, Note_on_c, 1, 100, 96
3, 545080, Note_off_c, 1, 100, 0
3, 545280, Note_on_c, 1, 61, 96
3, 545280, Note_on_c, 1, 73, 96
3, 545280, Note_on_c, 1, 85, 96
3, 545280, Note_on_c, 1, 97, 96
3, 545400, Note_off_c, 1, 61, 0
3, 545400, Note_off_c, 1, 73, 0
3, 545400, Note_off_c, 1, 85, 0
3, 545400, Note_off_c, 1, 97, 0
3, 545600, Note_on_c, 1, 98, 96
3, 545720, Note_off_c, 1, 98, 0
3, 545920, Note_on_c, 1, 98, 96
3, 546040, Note_off_c, 1, 98, 0
3, 546240, Note_on_c, 1, 72, 96
3, 546240, Note_on_c, 1, 84, 96
3, 546240, Note_on_c, 1, 96, 96
3, 546480, Note_off_c, 1, 72, 0
3, 546480, Note_off_c, 1, 84, 0
3, 547040, Note_off_c, 1, 96, 0
3, 547200, Note_on_c, 1, 60, 96
3, 547200, Note_on_c, 1, 72, 96
3, 547200, Note_on_c, 1, 84, 96
3, 547200, Note_on_c, 1, 96, 96
3, 547320, Note_off_c, 1, 60, 0
3, 547320, Note_off_c, 1, 72, 0
3, 547320, Note_off_c, 1, 84, 0
3, 547320, Note_off_c, 1, 96, 0
3, 547520, Note_on_c, 1, 97, 96
3, 547640, Note_off_c, 1, 97, 0
3, 547840, Note_on_c, 1, 97, 96
3, 547960, Note_off_c, 1, 97, 0
3, 548160, Note_on_c, 1, 73, 96
3, 548160, Note_on_c, 1, 85, 96
3, 548160, Note_on_c, 1, 97, 96
3, 548400, Note_off_c, 1, 73, 0
3, 548400, Note_off_c, 1, 85, 0
3, 548640, Note_off_c, 1, 97, 0
3, 548800, Note_on_c, 1, 97, 96
3, 548920, Note_off_c, 1, 97, 0
3, 549120, Note_on_c, 1, 62, 96
3, 549120, Note_on_c, 1, 74, 96
3, 549120, Note_on_c, 1, 86, 96
3, 549120, Note_on_c, 1, 98, 96
3, 549240, Note_off_c, 1, 62, 0
3, 549240, Note_off_c, 1, 74, 0
3, 549240, Note_off_c, 1, 86, 0
3, 549240, Note_off_c, 1, 98, 0
3, 549440, Note_on_c, 1, 98, 96
3, 549560, Note_off_c, 1, 98, 0
3, 549760, Note_on_c, 1, 98, 96
3, 549880, Note_off_c, 1, 98, 0
3, 550080, Note_on_c, 1, 62, 96
3, 550080, Note_on_c, 1, 74, 96
3, 550080, Note_on_c, 1, 86, 96
3, 550080, Note_on_c, 1, 98, 96
3, 550200, Note_off_c, 1, 62, 0
3, 550200, Note_off_c, 1, 74, 0
3, 550200, Note_off_c, 1, 86, 0
3, 550200, Note_off_c, 1, 98, 0
3, 550720, Note_on_c, 1, 98, 96
3, 550840, Note_off_c, 1, 98, 0
3, 551040, Note_on_c, 1, 62, 96
3, 551040, Note_on_c, 1, 74, 96
3, 551040, Note_on_c, 1, 86, 96
3, 551040, Note_on_c, 1, 98, 96
3, 551160, Note_off_c, 1, 62, 0
3, 551160, Note_off_c, 1, 74, 0
3, 551160, Note_off_c, 1, 86, 0
3, 551160, Note_off_c, 1, 98, 0
3, 551680, Note_on_c, 1, 98, 96
3, 551800, Note_off_c, 1, 98, 0
3, 552000, Note_on_c, 1, 74, 96
3, 552000, Note_on_c, 1, 86, 96
3, 552000, Note_on_c, 1, 98, 96
3, 552120, Note_off_c, 1, 74, 0
3, 552120, Note_off_c, 1, 86, 0
3, 552120, Note_off_c, 1, 98, 0
3, 552640, Note_on_c, 1, 98, 96
3, 552760, Note_off_c, 1, 98, 0
3, 552960, Note_on_c, 1, 61, 96
3, 552960, Note_on_c, 1, 73, 96
3, 552960, Note_on_c, 1, 85, 96
3, 552960, Note_on_c, 1, 97, 96
3, 553080, Note_off_c, 1, 61, 0
3, 553080, Note_off_c, 1, 73, 0
3, 553080, Note_off_c, 1, 85, 0
3, 553080, Note_off_c, 1, 97, 0
3, 553280, Note_on_c, 1, 98, 96
3, 553400, Note_off_c, 1, 98, 0
3, 553600, Note_on_c, 1, 98, 96
3, 553720, Note_off_c, 1, 98, 0
3, 553920, Note_on_c, 0, 62, 96
3, 553920, Note_on_c, 1, 74, 96
3, 553920, Note_on_c, 1, 86, 96
3, 553920, Note_on_c, 1, 98, 96
3, 554040, Note_off_c, 0, 62, 0
3, 554040, Note_off_c, 1, 74, 0
3, 554040, Note_off_c, 1, 86, 0
3, 554040, Note_off_c, 1, 98, 0
3, 554560, Note_on_c, 1, 98, 96
3, 554680, Note_off_c, 1, 98, 0
3, 554880, Note_on_c, 1, 62, 96
3, 554880, Note_on_c, 1, 74, 96
3, 554880, Note_on_c, 1, 86, 96
3, 554880, Note_on_c, 1, 98, 96
3, 555000, Note_off_c, 1, 62, 0
3, 555000, Note_off_c, 1, 74, 0
3, 555000, Note_off_c, 1, 86, 0
3, 555000, Note_off_c, 1, 98, 0
3, 555520, Note_on_c, 1, 98, 96
3, 555640, Note_off_c, 1, 98, 0
3, 555840, Note_on_c, 1, 74, 96
3, 555840, Note_on_c, 1, 86, 96
3, 555840, Note_on_c, 1, 98, 96
3, 555960, Note_off_c, 1, 74, 0
3, 555960, Note_off_c, 1, 86, 0
3, 555960, Note_off_c, 1, 98, 0
3, 556480, Note_on_c, 1, 98, 96
3, 556600, Note_off_c, 1, 98, 0
3, 556800, Note_on_c, 1, 61, 96
3, 556800, Note_on_c, 1, 73, 96
3, 556800, Note_on_c, 1, 85, 96
3, 556800, Note_on_c, 1, 97, 96
3, 556920, Note_off_c, 1, 61, 0
3, 556920, Note_off_c, 1, 73, 0
3, 556920, Note_off_c, 1, 85, 0
3, 556920, Note_off_c, 1, 97, 0
3, 557120, Note_on_c, 1, 98, 96
3, 557240, Note_off_c, 1, 98, 0
3, 557440, Note_on_c, 1, 98, 96
3, 557560, Note_off_c, 1, 98, 0
3, 557760, Note_on_c, 1, 74, 96
3, 557760, Note_on_c, 1, 86, 96
3, 557760, Note_on_c, 1, 98, 96
3, 557880, Note_off_c, 1, 74, 0
3, 557880, Note_off_c, 1, 86, 0
3, 557880, Note_off_c, 1, 98, 0
3, 558400, Note_on_c, 1, 98, 96
3, 558520, Note_off_c, 1, 98, 0
3, 558720, Note_on_c, 1, 62, 96
3, 558720, Note_on_c, 1, 75, 96
3, 558720, Note_on_c, 1, 87, 96
3, 558720, Note_on_c, 1, 99, 96
3, 558840, Note_off_c, 1, 62, 0
3, 558840, Note_off_c, 1, 75, 0
3, 558840, Note_off_c, 1, 87, 0
3, 558840, Note_off_c, 1, 99, 0
3, 559040, Note_on_c, 1, 100, 96
3, 559160, Note_off_c, 1, 100, 0
3, 559360, Note_on_c, 1, 100, 96
3, 559480, Note_off_c, 1, 100, 0
3, 559680, Note_on_c, 1, 75, 96
3, 559680, Note_on_c, 1, 88, 96
3, 559680, Note_on_c, 1, 100, 96
3, 559920, Note_off_c, 1, 75, 0
3, 559920, Note_off_c, 1, 88, 0
3, 560160, Note_off_c, 1, 100, 0
3, 560320, Note_on_c, 1, 100, 96
3, 560440, Note_off_c, 1, 100, 0
3, 560640, Note_on_c, 1, 61, 96
3, 560640, Note_on_c, 1, 73, 96
3, 560640, Note_on_c, 1, 85, 96
3, 560640, Note_on_c, 1, 97, 96
3, 560760, Note_off_c, 1, 61, 0
3, 560760, Note_off_c, 1, 73, 0
3, 560760, Note_off_c, 1, 85, 0
3, 560760, Note_off_c, 1, 97, 0
3, 560960, Note_on_c, 1, 98, 96
3, 561080, Note_off_c, 1, 98, 0
3, 561280, Note_on_c, 1, 98, 96
3, 561400, Note_off_c, 1, 98, 0
3, 561600, Note_on_c, 1, 74, 96
3, 561600, Note_on_c, 1, 86, 96
3, 561600, Note_on_c, 1, 98, 96
3, 561840, Note_off_c, 1, 74, 0
3, 561840, Note_off_c, 1, 86, 0
3, 562320, Note_off_c, 1, 98, 0
3, 562560, Note_on_c, 1, 61, 96
3, 562560, Note_on_c, 1, 73, 96
3, 562560, Note_on_c, 1, 85, 96
3, 562560, Note_on_c, 1, 97, 96
3, 562680, Note_off_c, 1, 61, 0
3, 562680, Note_off_c, 1, 73, 0
3, 562680, Note_off_c, 1, 85, 0
3, 562680, Note_off_c, 1, 97, 0
3, 562880, Note_on_c, 1, 97, 96
3, 563000, Note_off_c, 1, 97, 0
3, 563200, Note_on_c, 1, 97, 96
3, 563320, Note_off_c, 1, 97, 0
3, 563520, Note_on_c, 1, 73, 96
3, 563520, Note_on_c, 1, 85, 96
3, 563520, Note_on_c, 1, 97, 96
3, 563760, Note_off_c, 1, 73, 0
3, 563760, Note_off_c, 1, 85, 0
3, 564240, Note_off_c, 1, 97, 0
3, 564480, Note_on_c, 1, 62, 96
3, 564480, Note_on_c, 1, 67, 96
3, 564480, Note_on_c, 1, 74, 96
3, 564480, Note_on_c, 1, 79, 96
3, 564480, Note_on_c, 1, 86, 96
3, 564480, Note_on_c, 1, 91, 96
3, 564480, Note_on_c, 1, 98, 96
3, 564480, Note_on_c, 1, 103, 96
3, 564600, Note_off_c, 1, 62, 0
3, 564600, Note_off_c, 1, 74, 0
3, 564600, Note_off_c, 1, 86, 0
3, 564600, Note_off_c, 1, 98, 0
3, 564800, Note_on_c, 1, 98, 96
3, 564920, Note_off_c, 1, 98, 0
3, 565120, Note_on_c, 1, 98, 96
3, 565240, Note_off_c, 1, 98, 0
3, 565440, Note_on_c, 1, 62, 96
3, 565440, Note_on_c, 1, 74, 96
3, 565440, Note_on_c, 1, 86, 96
3, 565440, Note_on_c, 1, 98, 96
3, 565560, Note_off_c, 1, 62, 0
3, 565560, Note_off_c, 1, 74, 0
3, 565560, Note_off_c, 1, 86, 0
3, 565560, Note_off_c, 1, 98, 0
3, 566080, Note_on_c, 1, 98, 96
3, 566200, Note_off_c, 1, 98, 0
3, 566400, Note_on_c, 1, 62, 96
3, 566400, Note_on_c, 1, 74, 96
3, 566400, Note_on_c, 1, 86, 96
3, 566400, Note_on_c, 1, 98, 96
3, 566520, Note_off_c, 1, 62, 0
3, 566520, Note_off_c, 1, 74, 0
3, 566520, Note_off_c, 1, 86, 0
3, 566520, Note_off_c, 1, 98, 0
3, 567040, Note_on_c, 1, 98, 96
3, 567160, Note_off_c, 1, 98, 0
3, 567360, Note_on_c, 1, 74, 96
3, 567360, Note_on_c, 1, 86, 96
3, 567360, Note_on_c, 1, 98, 96
3, 567480, Note_off_c, 1, 74, 0
3, 567480, Note_off_c, 1, 86, 0
3, 567480, Note_off_c, 1, 98, 0
3, 568000, Note_on_c, 1, 98, 96
3, 568120, Note_off_c, 1, 98, 0
3, 568320, Note_off_c, 1, 67, 0
3, 568320, Note_off_c, 1, 79, 0
3, 568320, Note_off_c, 1, 91, 0
3, 568320, Note_off_c, 1, 103, 0
3, 568320, Note_on_c, 1, 61, 96
3, 568320, Note_on_c, 1, 73, 96
3, 568320, Note_on_c, 1, 85, 96
3, 568320, Note_on_c, 1, 97, 96
3, 568440, Note_off_c, 1, 61, 0
3, 568440, Note_off_c, 1, 73, 0
3, 568440, Note_off_c, 1, 85, 0
3, 568440, Note_off_c, 1, 97, 0
3, 568640, Note_on_c, 1, 98, 96
3, 568760, Note_off_c, 1, 98, 0
3, 568960, Note_on_c, 1, 98, 96
3, 569080, Note_off_c, 1, 98, 0
3, 569280, Note_on_c, 0, 62, 96
3, 569280, Note_on_c, 1, 74, 96
3, 569280, Note_on_c, 1, 86, 96
3, 569280, Note_on_c, 1, 98, 96
3, 569400, Note_off_c, 0, 62, 0
3, 569400, Note_off_c, 1, 74, 0
3, 569400, Note_off_c, 1, 86, 0
3, 569400, Note_off_c, 1, 98, 0
3, 569920, Note_on_c, 1, 98, 96
3, 570040, Note_off_c, 1, 98, 0
3, 570240, Note_on_c, 1, 62, 96
3, 570240, Note_on_c, 1, 74, 96
3, 570240, Note_on_c, 1, 86, 96
3, 570240, Note_on_c, 1, 98, 96
3, 570360, Note_off_c, 1, 62, 0
3, 570360, Note_off_c, 1, 74, 0
3, 570360, Note_off_c, 1, 86, 0
3, 570360, Note_off_c, 1, 98, 0
3, 570880, Note_on_c, 1, 98, 96
3, 571000, Note_off_c, 1, 98, 0
3, 571200, Note_on_c, 1, 74, 96
3, 571200, Note_on_c, 1, 86, 96
3, 571200, Note_on_c, 1, 98, 96
3, 571320, Note_off_c, 1, 74, 0
3, 571320, Note_off_c, 1, 86, 0
3, 571320, Note_off_c, 1, 98, 0
3, 571840, Note_on_c, 1, 98, 96
3, 571960, Note_off_c, 1, 98, 0
3, 572160, Note_on_c, 1, 61, 96
3, 572160, Note_on_c, 1, 73, 96
3, 572160, Note_on_c, 1, 85, 96
3, 572160, Note_on_c, 1, 97, 96
3, 572280, Note_off_c, 1, 61, 0
3, 572280, Note_off_c, 1, 73, 0
3, 572280, Note_off_c, 1, 85, 0
3, 572280, Note_off_c, 1, 97, 0
3, 572480, Note_on_c, 1, 98, 96
3, 572600, Note_off_c, 1, 98, 0
3, 572800, Note_on_c, 1, 98, 96
3, 572920, Note_off_c, 1, 98, 0
3, 573120, Note_on_c, 1, 74, 96
3, 573120, Note_on_c, 1, 86, 96
3, 573120, Note_on_c, 1, 98, 96
3, 573240, Note_off_c, 1, 74, 0
3, 573240, Note_off_c, 1, 86, 0
3, 573240, Note_off_c, 1, 98, 0
3, 573760, Note_on_c, 1, 98, 96
3, 573880, Note_off_c, 1, 98, 0
3, 574080, Note_on_c, 1, 62, 96
3, 574080, Note_on_c, 1, 75, 96
3, 574080, Note_on_c, 1, 87, 96
3, 574080, Note_on_c, 1, 99, 96
3, 574200, Note_off_c, 1, 62, 0
3, 574200, Note_off_c, 1, 75, 0
3, 574200, Note_off_c, 1, 87, 0
3, 574200, Note_off_c, 1, 99, 0
3, 574400, Note_on_c, 1, 100, 96
3, 574520, Note_off_c, 1, 100, 0
3, 574720, Note_on_c, 1, 100, 96
3, 574840, Note_off_c, 1, 100, 0
3, 575040, Note_on_c, 1, 75, 96
3, 575040, Note_on_c, 1, 88, 96
3, 575040, Note_on_c, 1, 100, 96
3, 575280, Note_off_c, 1, 75, 0
3, 575280, Note_off_c, 1, 88, 0
3, 575840, Note_off_c, 1, 100, 0
3, 576000, Note_on_c, 1, 61, 96
3, 576000, Note_on_c, 1, 73, 96
3, 576000, Note_on_c, 1, 85, 96
3, 576000, Note_on_c, 1, 97, 96
3, 576120, Note_off_c, 1, 61, 0
3, 576120, Note_off_c, 1, 73, 0
3, 576120, Note_off_c, 1, 85, 0
3, 576120, Note_off_c, 1, 97, 0
3, 576320, Note_on_c, 1, 98, 96
3, 576440, Note_off_c, 1, 98, 0
3, 576640, Note_on_c, 1, 97, 96
3, 576760, Note_off_c, 1, 97, 0
3, 576960, Note_on_c, 1, 74, 96
3, 576960, Note_on_c, 1, 86, 96
3, 576960, Note_on_c, 1, 98, 96
3, 577080, Note_off_c, 1, 74, 0
3, 577080, Note_off_c, 1, 86, 0
3, 577080, Note_off_c, 1, 98, 0
3, 577280, Note_on_c, 1, 98, 96
3, 577400, Note_off_c, 1, 98, 0
3, 577600, Note_on_c, 1, 98, 96
3, 577720, Note_off_c, 1, 98, 0
3, 577920, Note_on_c, 1, 60, 96
3, 577920, Note_on_c, 1, 72, 96
3, 577920, Note_on_c, 1, 84, 96
3, 577920, Note_on_c, 1, 96, 96
3, 578040, Note_off_c, 1, 60, 0
3, 578040, Note_off_c, 1, 72, 0
3, 578040, Note_off_c, 1, 84, 0
3, 578040, Note_off_c, 1, 96, 0
3, 578240, Note_on_c, 1, 97, 96
3, 578360, Note_off_c, 1, 97, 0
3, 578560, Note_on_c, 1, 97, 96
3, 578680, Note_off_c, 1, 97, 0
3, 578880, Note_on_c, 1, 73, 96
3, 578880, Note_on_c, 1, 85, 96
3, 578880, Note_on_c, 1, 97, 96
3, 579120, Note_off_c, 1, 73, 0
3, 579120, Note_off_c, 1, 85, 0
3, 579520, Note_off_c, 1, 97, 0
3, 579840, Note_on_c, 1, 62, 96
3, 579840, Note_on_c, 1, 74, 96
3, 579840, Note_on_c, 1, 86, 96
3, 579840, Note_on_c, 1, 98, 96
3, 579960, Note_off_c, 1, 62, 0
3, 579960, Note_off_c, 1, 74, 0
3, 579960, Note_off_c, 1, 86, 0
3, 579960, Note_off_c, 1, 98, 0
3, 580160, Note_on_c, 1, 98, 96
3, 580280, Note_off_c, 1, 98, 0
3, 580480, Note_on_c, 1, 98, 96
3, 580600, Note_off_c, 1, 98, 0
3, 580800, Note_on_c, 1, 62, 96
3, 580800, Note_on_c, 1, 74, 96
3, 580800, Note_on_c, 1, 86, 96
3, 580800, Note_on_c, 1, 98, 96
3, 580920, Note_off_c, 1, 62, 0
3, 580920, Note_off_c, 1, 74, 0
3, 580920, Note_off_c, 1, 86, 0
3, 580920, Note_off_c, 1, 98, 0
3, 581440, Note_on_c, 1, 98, 96
3, 581560, Note_off_c, 1, 98, 0
3, 581760, Note_on_c, 1, 62, 96
3, 581760, Note_on_c, 1, 74, 96
3, 581760, Note_on_c, 1, 86, 96
3, 581760, Note_on_c, 1, 98, 96
3, 581880, Note_off_c, 1, 62, 0
3, 581880, Note_off_c, 1, 74, 0
3, 581880, Note_off_c, 1, 86, 0
3, 581880, Note_off_c, 1, 98, 0
3, 582400, Note_on_c, 1, 98, 96
3, 582520, Note_off_c, 1, 98, 0
3, 582720, Note_on_c, 1, 74, 96
3, 582720, Note_on_c, 1, 86, 96
3, 582720, Note_on_c, 1, 98, 96
3, 582840, Note_off_c, 1, 74, 0
3, 582840, Note_off_c, 1, 86, 0
3, 582840, Note_off_c, 1, 98, 0
3, 583360, Note_on_c, 1, 98, 96
3, 583480, Note_off_c, 1, 98, 0
3, 583680, Note_on_c, 1, 61, 96
3, 583680, Note_on_c, 1, 73, 96
3, 583680, Note_on_c, 1, 85, 96
3, 583680, Note_on_c, 1, 97, 96
3, 583800, Note_off_c, 1, 61, 0
3, 583800, Note_off_c, 1, 73, 0
3, 583800, Note_off_c, 1, 85, 0
3, 583800, Note_off_c, 1, 97, 0
3, 584000, Note_on_c, 1, 98, 96
3, 584120, Note_off_c, 1, 98, 0
3, 584320, Note_on_c, 1, 98, 96
3, 584440, Note_off_c, 1, 98, 0
3, 584640, Note_on_c, 0, 62, 96
3, 584640, Note_on_c, 1, 74, 96
3, 584640, Note_on_c, 1, 86, 96
3, 584640, Note_on_c, 1, 98, 96
3, 584760, Note_off_c, 0, 62, 0
3, 584760, Note_off_c, 1, 74, 0
3, 584760, Note_off_c, 1, 86, 0
3, 584760, Note_off_c, 1, 98, 0
3, 585280, Note_on_c, 1, 98, 96
3, 585400, Note_off_c, 1, 98, 0
3, 585600, Note_on_c, 1, 62, 96
3, 585600, Note_on_c, 1, 74, 96
3, 585600, Note_on_c, 1, 86, 96
3, 585600, Note_on_c, 1, 98, 96
3, 585720, Note_off_c, 1, 62, 0
3, 585720, Note_off_c, 1, 74, 0
3, 585720, Note_off_c, 1, 86, 0
3, 585720, Note_off_c, 1, 98, 0
3, 586240, Note_on_c, 1, 98, 96
3, 586360, Note_off_c, 1, 98, 0
3, 586560, Note_on_c, 1, 74, 96
3, 586560, Note_on_c, 1, 86, 96
3, 586560, Note_on_c, 1, 98, 96
3, 586680, Note_off_c, 1, 74, 0
3, 586680, Note_off_c, 1, 86, 0
3, 586680, Note_off_c, 1, 98, 0
3, 587200, Note_on_c, 1, 98, 96
3, 587320, Note_off_c, 1, 98, 0
3, 587520, Note_on_c, 1, 62, 96
3, 587520, Note_on_c, 1, 75, 96
3, 587520, Note_on_c, 1, 87, 96
3, 587520, Note_on_c, 1, 98, 96
3, 587640, Note_off_c, 1, 62, 0
3, 587640, Note_off_c, 1, 75, 0
3, 587640, Note_off_c, 1, 87, 0
3, 587640, Note_off_c, 1, 98, 0
3, 587840, Note_on_c, 1, 99, 96
3, 587960, Note_off_c, 1, 99, 0
3, 588160, Note_on_c, 1, 98, 96
3, 588280, Note_off_c, 1, 98, 0
3, 588480, Note_on_c, 1, 74, 96
3, 588480, Note_on_c, 1, 86, 96
3, 588480, Note_on_c, 1, 98, 96
3, 588600, Note_off_c, 1, 74, 0
3, 588600, Note_off_c, 1, 86, 0
3, 588600, Note_off_c, 1, 98, 0
3, 589440, Note_on_c, 1, 62, 96
3, 589440, Note_on_c, 1, 75, 96
3, 589440, Note_on_c, 1, 87, 96
3, 589440, Note_on_c, 1, 98, 96
3, 589560, Note_off_c, 1, 62, 0
3, 589560, Note_off_c, 1, 75, 0
3, 589560, Note_off_c, 1, 87, 0
3, 589560, Note_off_c, 1, 98, 0
3, 589760, Note_on_c, 1, 99, 96
3, 589880, Note_off_c, 1, 99, 0
3, 590080, Note_on_c, 1, 98, 96
3, 590200, Note_off_c, 1, 98, 0
3, 590400, Note_on_c, 1, 73, 96
3, 590400, Note_on_c, 1, 85, 96
3, 590400, Note_on_c, 1, 97, 96
3, 590520, Note_off_c, 1, 73, 0
3, 590520, Note_off_c, 1, 85, 0
3, 590520, Note_off_c, 1, 97, 0
3, 591040, Note_on_c, 1, 97, 96
3, 591160, Note_off_c, 1, 97, 0
3, 591360, Note_on_c, 1, 62, 96
3, 591360, Note_on_c, 1, 75, 96
3, 591360, Note_on_c, 1, 87, 96
3, 591360, Note_on_c, 1, 98, 96
3, 591480, Note_off_c, 1, 62, 0
3, 591480, Note_off_c, 1, 75, 0
3, 591480, Note_off_c, 1, 87, 0
3, 591480, Note_off_c, 1, 98, 0
3, 591680, Note_on_c, 1, 99, 96
3, 591800, Note_off_c, 1, 99, 0
3, 592000, Note_on_c, 1, 98, 96
3, 592120, Note_off_c, 1, 98, 0
3, 592320, Note_on_c, 1, 73, 96
3, 592320, Note_on_c, 1, 85, 96
3, 592320, Note_on_c, 1, 97, 96
3, 592440, Note_off_c, 1, 73, 0
3, 592440, Note_off_c, 1, 85, 0
3, 592440, Note_off_c, 1, 97, 0
3, 592960, Note_on_c, 1, 97, 96
3, 593080, Note_off_c, 1, 97, 0
3, 593280, Note_on_c, 1, 62, 96
3, 593280, Note_on_c, 1, 75, 96
3, 593280, Note_on_c, 1, 87, 96
3, 593280, Note_on_c, 1, 98, 96
3, 593400, Note_off_c, 1, 62, 0
3, 593400, Note_off_c, 1, 75, 0
3, 593400, Note_off_c, 1, 87, 0
3, 593400, Note_off_c, 1, 98, 0
3, 593600, Note_on_c, 1, 99, 96
3, 593720, Note_off_c, 1, 99, 0
3, 593920, Note_on_c, 1, 98, 96
3, 594040, Note_off_c, 1, 98, 0
3, 594240, Note_on_c, 1, 73, 96
3, 594240, Note_on_c, 1, 85, 96
3, 594240, Note_on_c, 1, 97, 96
3, 594360, Note_off_c, 1, 73, 0
3, 594360, Note_off_c, 1, 85, 0
3, 594360, Note_off_c, 1, 97, 0
3, 595200, Note_on_c, 1, 60, 96
3, 595200, Note_on_c, 1, 72, 96
3, 595200, Note_on_c, 1, 84, 96
3, 595200, Note_on_c, 1, 96, 96
3, 595320, Note_off_c, 1, 60, 0
3, 595320, Note_off_c, 1, 72, 0
3, 595320, Note_off_c, 1, 84, 0
3, 595320, Note_off_c, 1, 96, 0
3, 596160, Note_on_c, 1, 74, 96
3, 596160, Note_on_c, 1, 86, 96
3, 596160, Note_on_c, 1, 98, 96
3, 596280, Note_off_c, 1, 74, 0
3, 596280, Note_off_c, 1, 86, 0
3, 596280, Note_off_c, 1, 98, 0
3, 597120, Note_on_c, 1, 60, 96
3, 597120, Note_on_c, 1, 72, 96
3, 597120, Note_on_c, 1, 84, 96
3, 597120, Note_on_c, 1, 96, 96
3, 597240, Note_off_c, 1, 60, 0
3, 597240, Note_off_c, 1, 72, 0
3, 597240, Note_off_c, 1, 84, 0
3, 597240, Note_off_c, 1, 96, 0
3, 598080, Note_on_c, 1, 74, 96
3, 598080, Note_on_c, 1, 86, 96
3, 598080, Note_on_c, 1, 98, 96
3, 598200, Note_off_c, 1, 74, 0
3, 598200, Note_off_c, 1, 86, 0
3, 598200, Note_off_c, 1, 98, 0
3, 599040, Note_on_c, 1, 60, 96
3, 599040, Note_on_c, 1, 72, 96
3, 599040, Note_on_c, 1, 84, 96
3, 599040, Note_on_c, 1, 96, 96
3, 599160, Note_off_c, 1, 60, 0
3, 599160, Note_off_c, 1, 72, 0
3, 599160, Note_off_c, 1, 84, 0
3, 599160, Note_off_c, 1, 96, 0
3, 600000, Note_on_c, 1, 74, 96
3, 600000, Note_on_c, 1, 86, 96
3, 600000, Note_on_c, 1, 98, 96
3, 600120, Note_off_c, 1, 74, 0
3, 600120, Note_off_c, 1, 86, 0
3, 600120, Note_off_c, 1, 98, 0
3, 600960, Note_on_c, 1, 60, 96
3, 600960, Note_on_c, 1, 72, 96
3, 600960, Note_on_c, 1, 84, 96
3, 600960, Note_on_c, 1, 96, 96
3, 601080, Note_off_c, 1, 60, 0
3, 601080, Note_off_c, 1, 72, 0
3, 601080, Note_off_c, 1, 84, 0
3, 601080, Note_off_c, 1, 96, 0
3, 601920, Note_on_c, 1, 74, 96
3, 601920, Note_on_c, 1, 86, 96
3, 601920, Note_on_c, 1, 98, 96
3, 602040, Note_off_c, 1, 74, 0
3, 602040, Note_off_c, 1, 86, 0
3, 602040, Note_off_c, 1, 98, 0
3, 602880, Note_on_c, 1, 60, 96
3, 602880, Note_on_c, 1, 72, 96
3, 602880, Note_on_c, 1, 84, 96
3, 602880, Note_on_c, 1, 96, 96
3, 603000, Note_off_c, 1, 60, 0
3, 603000, Note_off_c, 1, 72, 0
3, 603000, Note_off_c, 1, 84, 0
3, 603000, Note_off_c, 1, 96, 0
3, 603840, Note_on_c, 1, 74, 96
3, 603840, Note_on_c, 1, 86, 96
3, 603840, Note_on_c, 1, 98, 96
3, 603960, Note_off_c, 1, 74, 0
3, 603960, Note_off_c, 1, 86, 0
3, 603960, Note_off_c, 1, 98, 0
3, 604800, Note_on_c, 1, 60, 96
3, 604800, Note_on_c, 1, 72, 96
3, 604800, Note_on_c, 1, 84, 96
3, 604800, Note_on_c, 1, 96, 96
3, 604920, Note_off_c, 1, 60, 0
3, 604920, Note_off_c, 1, 72, 0
3, 604920, Note_off_c, 1, 84, 0
3, 604920, Note_off_c, 1, 96, 0
3, 605760, Note_on_c, 1, 74, 96
3, 605760, Note_on_c, 1, 86, 96
3, 605760, Note_on_c, 1, 98, 96
3, 605880, Note_off_c, 1, 74, 0
3, 605880, Note_off_c, 1, 86, 0
3, 605880, Note_off_c, 1, 98, 0
3, 606720, Note_on_c, 1, 60, 96
3, 606720, Note_on_c, 1, 67, 96
3, 606720, Note_on_c, 1, 72, 96
3, 606720, Note_on_c, 1, 79, 96
3, 606720, Note_on_c, 1, 84, 96
3, 606720, Note_on_c, 1, 91, 96
3, 606720, Note_on_c, 1, 96, 96
3, 606720, Note_on_c, 1, 103, 96
3, 606840, Note_off_c, 1, 60, 0
3, 606840, Note_off_c, 1, 72, 0
3, 606840, Note_off_c, 1, 84, 0
3, 606840, Note_off_c, 1, 96, 0
3, 607680, Note_on_c, 1, 74, 96
3, 607680, Note_on_c, 1, 86, 96
3, 607680, Note_on_c, 1, 98, 96
3, 607800, Note_off_c, 1, 74, 0
3, 607800, Note_off_c, 1, 86, 0
3, 607800, Note_off_c, 1, 98, 0
3, 608640, Note_on_c, 1, 60, 96
3, 608640, Note_on_c, 1, 72, 96
3, 608640, Note_on_c, 1, 84, 96
3, 608640, Note_on_c, 1, 96, 96
3, 608760, Note_off_c, 1, 60, 0
3, 608760, Note_off_c, 1, 72, 0
3, 608760, Note_off_c, 1, 84, 0
3, 608760, Note_off_c, 1, 96, 0
3, 609600, Note_on_c, 1, 74, 96
3, 609600, Note_on_c, 1, 86, 96
3, 609600, Note_on_c, 1, 98, 96
3, 609720, Note_off_c, 1, 74, 0
3, 609720, Note_off_c, 1, 86, 0
3, 609720, Note_off_c, 1, 98, 0
3, 610560, Note_off_c, 1, 67, 0
3, 610560, Note_off_c, 1, 79, 0
3, 610560, Note_off_c, 1, 91, 0
3, 610560, Note_off_c, 1, 103, 0
3, 610560, Note_on_c, 1, 60, 96
3, 610560, Note_on_c, 1, 72, 96
3, 610560, Note_on_c, 1, 84, 96
3, 610560, Note_on_c, 1, 96, 96
3, 610680, Note_off_c, 1, 60, 0
3, 610680, Note_off_c, 1, 72, 0
3, 610680, Note_off_c, 1, 84, 0
3, 610680, Note_off_c, 1, 96, 0
3, 611520, Note_on_c, 1, 74, 96
3, 611520, Note_on_c, 1, 86, 96
3, 611520, Note_on_c, 1, 98, 96
3, 611640, Note_off_c, 1, 74, 0
3, 611640, Note_off_c, 1, 86, 0
3, 611640, Note_off_c, 1, 98, 0
3, 612480, Note_on_c, 1, 60, 96
3, 612480, Note_on_c, 1, 72, 96
3, 612480, Note_on_c, 1, 84, 96
3, 612480, Note_on_c, 1, 96, 96
3, 612600, Note_off_c, 1, 60, 0
3, 612600, Note_off_c, 1, 72, 0
3, 612600, Note_off_c, 1, 84, 0
3, 612600, Note_off_c, 1, 96, 0
3, 613440, Note_on_c, 1, 74, 96
3, 613440, Note_on_c, 1, 86, 96
3, 613440, Note_on_c, 1, 98, 96
3, 613560, Note_off_c, 1, 74, 0
3, 613560, Note_off_c, 1, 86, 0
3, 613560, Note_off_c, 1, 98, 0
3, 614400, Note_on_c, 1, 60, 96
3, 614400, Note_on_c, 1, 72, 96
3, 614400, Note_on_c, 1, 84, 96
3, 614400, Note_on_c, 1, 96, 96
3, 614520, Note_off_c, 1, 60, 0
3, 614520, Note_off_c, 1, 72, 0
3, 614520, Note_off_c, 1, 84, 0
3, 614520, Note_off_c, 1, 96, 0
3, 615360, Note_on_c, 1, 74, 96
3, 615360, Note_on_c, 1, 86, 96
3, 615360, Note_on_c, 1, 98, 96
3, 615480, Note_off_c, 1, 74, 0
3, 615480, Note_off_c, 1, 86, 0
3, 615480, Note_off_c, 1, 98, 0
3, 616320, Note_on_c, 1, 60, 96
3, 616320, Note_on_c, 1, 72, 96
3, 616320, Note_on_c, 1, 84, 96
3, 616320, Note_on_c, 1, 96, 96
3, 616440, Note_off_c, 1, 60, 0
3, 616440, Note_off_c, 1, 72, 0
3, 616440, Note_off_c, 1, 84, 0
3, 616440, Note_off_c, 1, 96, 0
3, 617280, Note_on_c, 1, 74, 96
3, 617280, Note_on_c, 1, 86, 96
3, 617280, Note_on_c, 1, 98, 96
3, 617400, Note_off_c, 1, 74, 0
3, 617400, Note_off_c, 1, 86, 0
3, 617400, Note_off_c, 1, 98, 0
3, 618240, Note_on_c, 1, 60, 96
3, 618240, Note_on_c, 1, 72, 96
3, 618240, Note_on_c, 1, 84, 96
3, 618240, Note_on_c, 1, 96, 96
3, 618360, Note_off_c, 1, 60, 0
3, 618360, Note_off_c, 1, 72, 0
3, 618360, Note_off_c, 1, 84, 0
3, 618360, Note_off_c, 1, 96, 0
3, 619200, Note_on_c, 1, 74, 96
3, 619200, Note_on_c, 1, 86, 96
3, 619200, Note_on_c, 1, 98, 96
3, 619320, Note_off_c, 1, 74, 0
3, 619320, Note_off_c, 1, 86, 0
3, 619320, Note_off_c, 1, 98, 0
3, 620160, Note_on_c, 1, 60, 96
3, 620160, Note_on_c, 1, 72, 96
3, 620160, Note_on_c, 1, 84, 96
3, 620160, Note_on_c, 1, 96, 96
3, 620280, Note_off_c, 1, 60, 0
3, 620280, Note_off_c, 1, 72, 0
3, 620280, Note_off_c, 1, 84, 0
3, 620280, Note_off_c, 1, 96, 0
3, 621120, Note_on_c, 1, 74, 96
3, 621120, Note_on_c, 1, 86, 96
3, 621120, Note_on_c, 1, 98, 96
3, 621240, Note_off_c, 1, 74, 0
3, 621240, Note_off_c, 1, 86, 0
3, 621240, Note_off_c, 1, 98, 0
3, 622080, Note_on_c, 1, 60, 96
3, 622080, Note_on_c, 1, 72, 96
3, 622080, Note_on_c, 1, 84, 96
3, 622080, Note_on_c, 1, 96, 96
3, 622200, Note_off_c, 1, 60, 0
3, 622200, Note_off_c, 1, 72, 0
3, 622200, Note_off_c, 1, 84, 0
3, 622200, Note_off_c, 1, 96, 0
3, 623040, Note_on_c, 1, 74, 96
3, 623040, Note_on_c, 1, 86, 96
3, 623040, Note_on_c, 1, 98, 96
3, 623160, Note_off_c, 1, 74, 0
3, 623160, Note_off_c, 1, 86, 0
3, 623160, Note_off_c, 1, 98, 0
3, 624000, Note_on_c, 1, 60, 96
3, 624000, Note_on_c, 1, 72, 96
3, 624000, Note_on_c, 1, 84, 96
3, 624000, Note_on_c, 1, 96, 96
3, 624120, Note_off_c, 1, 60, 0
3, 624120, Note_off_c, 1, 72, 0
3, 624120, Note_off_c, 1, 84, 0
3, 624120, Note_off_c, 1, 96, 0
3, 624960, Note_on_c, 1, 74, 96
3, 624960, Note_on_c, 1, 86, 96
3, 624960, Note_on_c, 1, 98, 96
3, 625200, Note_off_c, 1, 74, 0
3, 625200, Note_off_c, 1, 86, 0
3, 625680, Note_off_c, 1, 98, 0
3, 625920, Note_on_c, 1, 60, 96
3, 625920, Note_on_c, 1, 72, 96
3, 625920, Note_on_c, 1, 84, 96
3, 625920, Note_on_c, 1, 96, 96
3, 626040, Note_off_c, 1, 60, 0
3, 626040, Note_off_c, 1, 72, 0
3, 626040, Note_off_c, 1, 84, 0
3, 626040, Note_off_c, 1, 96, 0
3, 626880, Note_on_c, 1, 74, 96
3, 626880, Note_on_c, 1, 86, 96
3, 626880, Note_on_c, 1, 98, 96
3, 627000, Note_off_c, 1, 74, 0
3, 627000, Note_off_c, 1, 86, 0
3, 627000, Note_off_c, 1, 98, 0
3, 627840, Note_on_c, 1, 60, 96
3, 627840, Note_on_c, 1, 72, 96
3, 627840, Note_on_c, 1, 84, 96
3, 627840, Note_on_c, 1, 96, 96
3, 627960, Note_off_c, 1, 60, 0
3, 627960, Note_off_c, 1, 72, 0
3, 627960, Note_off_c, 1, 84, 0
3, 627960, Note_off_c, 1, 96, 0
3, 628800, Note_on_c, 1, 74, 96
3, 628800, Note_on_c, 1, 86, 96
3, 628800, Note_on_c, 1, 98, 96
3, 628920, Note_off_c, 1, 74, 0
3, 628920, Note_off_c, 1, 86, 0
3, 628920, Note_off_c, 1, 98, 0
3, 629760, Note_on_c, 1, 60, 96
3, 629760, Note_on_c, 1, 72, 96
3, 629760, Note_on_c, 1, 84, 96
3, 629760, Note_on_c, 1, 96, 96
3, 629880, Note_off_c, 1, 60, 0
3, 629880, Note_off_c, 1, 72, 0
3, 629880, Note_off_c, 1, 84, 0
3, 629880, Note_off_c, 1, 96, 0
3, 630720, Note_on_c, 1, 74, 96
3, 630720, Note_on_c, 1, 86, 96
3, 630720, Note_on_c, 1, 98, 96
3, 630840, Note_off_c, 1, 74, 0
3, 630840, Note_off_c, 1, 86, 0
3, 630840, Note_off_c, 1, 98, 0
3, 631680, Note_on_c, 1, 60, 96
3, 631680, Note_on_c, 1, 72, 96
3, 631680, Note_on_c, 1, 84, 96
3, 631680, Note_on_c, 1, 96, 96
3, 631800, Note_off_c, 1, 60, 0
3, 631800, Note_off_c, 1, 72, 0
3, 631800, Note_off_c, 1, 84, 0
3, 631800, Note_off_c, 1, 96, 0
3, 632640, Note_on_c, 1, 74, 96
3, 632640, Note_on_c, 1, 86, 96
3, 632640, Note_on_c, 1, 98, 96
3, 632760, Note_off_c, 1, 74, 0
3, 632760, Note_off_c, 1, 86, 0
3, 632760, Note_off_c, 1, 98, 0
3, 633600, Note_on_c, 1, 60, 96
3, 633600, Note_on_c, 1, 72, 96
3, 633600, Note_on_c, 1, 84, 96
3, 633600, Note_on_c, 1, 96, 96
3, 633720, Note_off_c, 1, 60, 0
3, 633720, Note_off_c, 1, 72, 0
3, 633720, Note_off_c, 1, 84, 0
3, 633720, Note_off_c, 1, 96, 0
3, 634560, Note_on_c, 1, 74, 96
3, 634560, Note_on_c, 1, 86, 96
3, 634560, Note_on_c, 1, 98, 96
3, 634680, Note_off_c, 1, 74, 0
3, 634680, Note_off_c, 1, 86, 0
3, 634680, Note_off_c, 1, 98, 0
3, 635520, Note_on_c, 1, 60, 96
3, 635520, Note_on_c, 1, 72, 96
3, 635520, Note_on_c, 1, 84, 96
3, 635520, Note_on_c, 1, 96, 96
3, 635640, Note_off_c, 1, 60, 0
3, 635640, Note_off_c, 1, 72, 0
3, 635640, Note_off_c, 1, 84, 0
3, 635640, Note_off_c, 1, 96, 0
3, 636480, Note_on_c, 1, 74, 96
3, 636480, Note_on_c, 1, 86, 96
3, 636480, Note_on_c, 1, 98, 96
3, 636600, Note_off_c, 1, 74, 0
3, 636600, Note_off_c, 1, 86, 0
3, 636600, Note_off_c, 1, 98, 0
3, 637120, Note_on_c, 1, 96, 96
3, 637240, Note_off_c, 1, 96, 0
3, 637440, Note_on_c, 1, 60, 96
3, 637440, Note_on_c, 1, 72, 96
3, 637440, Note_on_c, 1, 85, 96
3, 637440, Note_on_c, 1, 97, 96
3, 637560, Note_off_c, 1, 60, 0
3, 637560, Note_off_c, 1, 72, 0
3, 637560, Note_off_c, 1, 85, 0
3, 637560, Note_off_c, 1, 97, 0
3, 638400, Note_on_c, 1, 73, 96
3, 638400, Note_on_c, 1, 86, 96
3, 638400, Note_on_c, 1, 98, 96
3, 638520, Note_off_c, 1, 73, 0
3, 638520, Note_off_c, 1, 86, 0
3, 638520, Note_off_c, 1, 98, 0
3, 639360, Note_on_c, 1, 62, 96
3, 639360, Note_on_c, 1, 74, 96
3, 639360, Note_on_c, 1, 87, 96
3, 639360, Note_on_c, 1, 99, 96
3, 639480, Note_off_c, 1, 62, 0
3, 639480, Note_off_c, 1, 74, 0
3, 639480, Note_off_c, 1, 87, 0
3, 639480, Note_off_c, 1, 99, 0
3, 640320, Note_on_c, 1, 75, 96
3, 640320, Note_on_c, 1, 88, 96
3, 640320, Note_on_c, 1, 100, 96
3, 640440, Note_off_c, 1, 75, 0
3, 640440, Note_off_c, 1, 88, 0
3, 640440, Note_off_c, 1, 100, 0
3, 640960, Note_on_c, 1, 100, 96
3, 641080, Note_off_c, 1, 100, 0
3, 641280, Note_on_c, 1, 61, 96
3, 641280, Note_on_c, 1, 73, 96
3, 641280, Note_on_c, 1, 85, 96
3, 641280, Note_on_c, 1, 97, 96
3, 641400, Note_off_c, 1, 61, 0
3, 641400, Note_off_c, 1, 73, 0
3, 641400, Note_off_c, 1, 85, 0
3, 641400, Note_off_c, 1, 97, 0
3, 642240, Note_on_c, 1, 73, 96
3, 642240, Note_on_c, 1, 85, 96
3, 642240, Note_on_c, 1, 97, 96
3, 642360, Note_off_c, 1, 73, 0
3, 642360, Note_off_c, 1, 85, 0
3, 642360, Note_off_c, 1, 97, 0
3, 643200, Note_on_c, 1, 61, 96
3, 643200, Note_on_c, 1, 73, 96
3, 643200, Note_on_c, 1, 85, 96
3, 643200, Note_on_c, 1, 97, 96
3, 643320, Note_off_c, 1, 61, 0
3, 643320, Note_off_c, 1, 73, 0
3, 643320, Note_off_c, 1, 85, 0
3, 643320, Note_off_c, 1, 97, 0
3, 644160, Note_on_c, 1, 73, 96
3, 644160, Note_on_c, 1, 85, 96
3, 644160, Note_on_c, 1, 97, 96
3, 644280, Note_off_c, 1, 73, 0
3, 644280, Note_off_c, 1, 85, 0
3, 644280, Note_off_c, 1, 97, 0
3, 645120, Note_on_c, 1, 61, 96
3, 645120, Note_on_c, 1, 73, 96
3, 645120, Note_on_c, 1, 85, 96
3, 645120, Note_on_c, 1, 97, 96
3, 645240, Note_off_c, 1, 61, 0
3, 645240, Note_off_c, 1, 73, 0
3, 645240, Note_off_c, 1, 85, 0
3, 645240, Note_off_c, 1, 97, 0
3, 646080, Note_on_c, 1, 75, 96
3, 646080, Note_on_c, 1, 88, 96
3, 646080, Note_on_c, 1, 100, 96
3, 646200, Note_off_c, 1, 75, 0
3, 646200, Note_off_c, 1, 88, 0
3, 646200, Note_off_c, 1, 100, 0
3, 647040, Note_on_c, 1, 62, 96
3, 647040, Note_on_c, 1, 74, 96
3, 647040, Note_on_c, 1, 86, 96
3, 647040, Note_on_c, 1, 98, 96
3, 647160, Note_off_c, 1, 62, 0
3, 647160, Note_off_c, 1, 74, 0
3, 647160, Note_off_c, 1, 86, 0
3, 647160, Note_off_c, 1, 98, 0
3, 648000, Note_on_c, 1, 73, 96
3, 648000, Note_on_c, 1, 85, 96
3, 648000, Note_on_c, 1, 97, 96
3, 648120, Note_off_c, 1, 73, 0
3, 648120, Note_off_c, 1, 85, 0
3, 648120, Note_off_c, 1, 97, 0
3, 648640, Note_on_c, 1, 97, 96
3, 648760, Note_off_c, 1, 97, 0
3, 648960, Note_on_c, 1, 62, 96
3, 648960, Note_on_c, 1, 75, 96
3, 648960, Note_on_c, 1, 87, 96
3, 648960, Note_on_c, 1, 99, 96
3, 649080, Note_off_c, 1, 62, 0
3, 649080, Note_off_c, 1, 75, 0
3, 649080, Note_off_c, 1, 87, 0
3, 649080, Note_off_c, 1, 99, 0
3, 649920, Note_on_c, 1, 75, 96
3, 649920, Note_on_c, 1, 87, 96
3, 649920, Note_on_c, 1, 99, 96
3, 650040, Note_off_c, 1, 75, 0
3, 650040, Note_off_c, 1, 87, 0
3, 650040, Note_off_c, 1, 99, 0
3, 650880, Note_on_c, 1, 62, 96
3, 650880, Note_on_c, 1, 75, 96
3, 650880, Note_on_c, 1, 87, 96
3, 650880, Note_on_c, 1, 99, 96
3, 651000, Note_off_c, 1, 62, 0
3, 651000, Note_off_c, 1, 75, 0
3, 651000, Note_off_c, 1, 87, 0
3, 651000, Note_off_c, 1, 99, 0
3, 651840, Note_on_c, 1, 75, 96
3, 651840, Note_on_c, 1, 87, 96
3, 651840, Note_on_c, 1, 99, 96
3, 651960, Note_off_c, 1, 75, 0
3, 651960, Note_off_c, 1, 87, 0
3, 651960, Note_off_c, 1, 99, 0
3, 652800, Note_on_c, 1, 62, 96
3, 652800, Note_on_c, 1, 75, 96
3, 652800, Note_on_c, 1, 88, 96
3, 652800, Note_on_c, 1, 99, 96
3, 652920, Note_off_c, 1, 62, 0
3, 652920, Note_off_c, 1, 75, 0
3, 652920, Note_off_c, 1, 88, 0
3, 652920, Note_off_c, 1, 99, 0
3, 653120, Note_on_c, 1, 100, 96
3, 653600, Note_off_c, 1, 100, 0
3, 653760, Note_on_c, 1, 75, 96
3, 653760, Note_on_c, 1, 87, 96
3, 653760, Note_on_c, 1, 99, 96
3, 654000, Note_off_c, 1, 75, 0
3, 654000, Note_off_c, 1, 87, 0
3, 654560, Note_off_c, 1, 99, 0
3, 654720, Note_on_c, 1, 61, 96
3, 654720, Note_on_c, 1, 75, 96
3, 654720, Note_on_c, 1, 87, 96
3, 654720, Note_on_c, 1, 98, 96
3, 654840, Note_off_c, 1, 98, 0
3, 654960, Note_off_c, 1, 61, 0
3, 654960, Note_off_c, 1, 75, 0
3, 654960, Note_off_c, 1, 87, 0
3, 654960, Note_on_c, 1, 99, 96
3, 655520, Note_off_c, 1, 99, 0
3, 655680, Note_on_c, 1, 74, 96
3, 655680, Note_on_c, 1, 86, 96
3, 655680, Note_on_c, 1, 98, 96
3, 655800, Note_off_c, 1, 74, 0
3, 655800, Note_off_c, 1, 86, 0
3, 656520, Note_off_c, 1, 98, 0
3, 656640, Note_on_c, 1, 60, 96
3, 656640, Note_on_c, 1, 72, 96
3, 656640, Note_on_c, 1, 84, 96
3, 656640, Note_on_c, 1, 96, 96
3, 656760, Note_off_c, 1, 60, 0
3, 656760, Note_off_c, 1, 72, 0
3, 656760, Note_off_c, 1, 84, 0
3, 656760, Note_off_c, 1, 96, 0
3, 657600, Note_on_c, 1, 74, 96
3, 657600, Note_on_c, 1, 86, 96
3, 657600, Note_on_c, 1, 98, 96
3, 657720, Note_off_c, 1, 74, 0
3, 657720, Note_off_c, 1, 86, 0
3, 657720, Note_off_c, 1, 98, 0
3, 658560, Note_on_c, 1, 60, 96
3, 658560, Note_on_c, 1, 72, 96
3, 658560, Note_on_c, 1, 84, 96
3, 658560, Note_on_c, 1, 96, 96
3, 658680, Note_off_c, 1, 60, 0
3, 658680, Note_off_c, 1, 72, 0
3, 658680, Note_off_c, 1, 84, 0
3, 658680, Note_off_c, 1, 96, 0
3, 659520, Note_on_c, 1, 74, 96
3, 659520, Note_on_c, 1, 86, 96
3, 659520, Note_on_c, 1, 98, 96
3, 659640, Note_off_c, 1, 74, 0
3, 659640, Note_off_c, 1, 86, 0
3, 659640, Note_off_c, 1, 98, 0
3, 660480, Note_on_c, 1, 60, 96
3, 660480, Note_on_c, 1, 72, 96
3, 660480, Note_on_c, 1, 84, 96
3, 660480, Note_on_c, 1, 96, 96
3, 660600, Note_off_c, 1, 60, 0
3, 660600, Note_off_c, 1, 72, 0
3, 660600, Note_off_c, 1, 84, 0
3, 660600, Note_off_c, 1, 96, 0
3, 661440, Note_on_c, 1, 74, 96
3, 661440, Note_on_c, 1, 86, 96
3, 661440, Note_on_c, 1, 98, 96
3, 661560, Note_off_c, 1, 74, 0
3, 661560, Note_off_c, 1, 86, 0
3, 661560, Note_off_c, 1, 98, 0
3, 662400, Note_on_c, 1, 60, 96
3, 662400, Note_on_c, 1, 72, 96
3, 662400, Note_on_c, 1, 84, 96
3, 662400, Note_on_c, 1, 96, 96
3, 662520, Note_off_c, 1, 60, 0
3, 662520, Note_off_c, 1, 72, 0
3, 662520, Note_off_c, 1, 84, 0
3, 662520, Note_off_c, 1, 96, 0
3, 663360, Note_on_c, 1, 74, 96
3, 663360, Note_on_c, 1, 86, 96
3, 663360, Note_on_c, 1, 98, 96
3, 663600, Note_off_c, 1, 74, 0
3, 663600, Note_off_c, 1, 86, 0
3, 664080, Note_off_c, 1, 98, 0
3, 664320, Note_on_c, 1, 60, 96
3, 664320, Note_on_c, 1, 72, 96
3, 664320, Note_on_c, 1, 84, 96
3, 664320, Note_on_c, 1, 96, 96
3, 664440, Note_off_c, 1, 60, 0
3, 664440, Note_off_c, 1, 72, 0
3, 664440, Note_off_c, 1, 84, 0
3, 664440, Note_off_c, 1, 96, 0
3, 665280, Note_on_c, 1, 74, 96
3, 665280, Note_on_c, 1, 86, 96
3, 665280, Note_on_c, 1, 98, 96
3, 665400, Note_off_c, 1, 74, 0
3, 665400, Note_off_c, 1, 86, 0
3, 665400, Note_off_c, 1, 98, 0
3, 666240, Note_on_c, 1, 60, 96
3, 666240, Note_on_c, 1, 72, 96
3, 666240, Note_on_c, 1, 84, 96
3, 666240, Note_on_c, 1, 96, 96
3, 666360, Note_off_c, 1, 60, 0
3, 666360, Note_off_c, 1, 72, 0
3, 666360, Note_off_c, 1, 84, 0
3, 666360, Note_off_c, 1, 96, 0
3, 667200, Note_on_c, 1, 74, 96
3, 667200, Note_on_c, 1, 86, 96
3, 667200, Note_on_c, 1, 98, 96
3, 667320, Note_off_c, 1, 74, 0
3, 667320, Note_off_c, 1, 86, 0
3, 667320, Note_off_c, 1, 98, 0
3, 667840, Note_on_c, 1, 96, 96
3, 667960, Note_off_c, 1, 96, 0
3, 668160, Note_on_c, 1, 62, 96
3, 668160, Note_on_c, 1, 75, 96
3, 668160, Note_on_c, 1, 88, 96
3, 668160, Note_on_c, 1, 100, 96
3, 668280, Note_off_c, 1, 62, 0
3, 668280, Note_off_c, 1, 75, 0
3, 668280, Note_off_c, 1, 88, 0
3, 668280, Note_off_c, 1, 100, 0
3, 669120, Note_on_c, 1, 75, 96
3, 669120, Note_on_c, 1, 87, 96
3, 669120, Note_on_c, 1, 99, 96
3, 669240, Note_off_c, 1, 75, 0
3, 669240, Note_off_c, 1, 87, 0
3, 669240, Note_off_c, 1, 99, 0
3, 670080, Note_on_c, 1, 61, 96
3, 670080, Note_on_c, 1, 74, 96
3, 670080, Note_on_c, 1, 86, 96
3, 670080, Note_on_c, 1, 98, 96
3, 670200, Note_off_c, 1, 61, 0
3, 670200, Note_off_c, 1, 74, 0
3, 670200, Note_off_c, 1, 86, 0
3, 670200, Note_off_c, 1, 98, 0
3, 670720, Note_on_c, 1, 99, 96
3, 670840, Note_off_c, 1, 99, 0
3, 671040, Note_on_c, 1, 74, 96
3, 671040, Note_on_c, 1, 86, 96
3, 671040, Note_on_c, 1, 98, 96
3, 671160, Note_off_c, 1, 74, 0
3, 671160, Note_off_c, 1, 86, 0
3, 671160, Note_off_c, 1, 98, 0
3, 671680, Note_on_c, 1, 98, 96
3, 671800, Note_off_c, 1, 98, 0
3, 672000, Note_on_c, 1, 61, 96
3, 672000, Note_on_c, 1, 73, 96
3, 672000, Note_on_c, 1, 85, 96
3, 672000, Note_on_c, 1, 97, 96
3, 672120, Note_off_c, 1, 61, 0
3, 672120, Note_off_c, 1, 73, 0
3, 672120, Note_off_c, 1, 85, 0
3, 672120, Note_off_c, 1, 97, 0
3, 672960, Note_on_c, 1, 73, 96
3, 672960, Note_on_c, 1, 85, 96
3, 672960, Note_on_c, 1, 97, 96
3, 673080, Note_off_c, 1, 73, 0
3, 673080, Note_off_c, 1, 85, 0
3, 673080, Note_off_c, 1, 97, 0
3, 673920, Note_on_c, 1, 61, 96
3, 673920, Note_on_c, 1, 73, 96
3, 673920, Note_on_c, 1, 85, 96
3, 673920, Note_on_c, 1, 97, 96
3, 674040, Note_off_c, 1, 61, 0
3, 674040, Note_off_c, 1, 73, 0
3, 674040, Note_off_c, 1, 85, 0
3, 674040, Note_off_c, 1, 97, 0
3, 674880, Note_on_c, 1, 73, 96
3, 674880, Note_on_c, 1, 85, 96
3, 674880, Note_on_c, 1, 97, 96
3, 675000, Note_off_c, 1, 73, 0
3, 675000, Note_off_c, 1, 85, 0
3, 675000, Note_off_c, 1, 97, 0
3, 675840, Note_on_c, 1, 61, 96
3, 675840, Note_on_c, 1, 73, 96
3, 675840, Note_on_c, 1, 85, 96
3, 675840, Note_on_c, 1, 97, 96
3, 675960, Note_off_c, 1, 61, 0
3, 675960, Note_off_c, 1, 73, 0
3, 675960, Note_off_c, 1, 85, 0
3, 675960, Note_off_c, 1, 97, 0
3, 676800, Note_on_c, 1, 73, 96
3, 676800, Note_on_c, 1, 85, 96
3, 676800, Note_on_c, 1, 97, 96
3, 676920, Note_off_c, 1, 73, 0
3, 676920, Note_off_c, 1, 85, 0
3, 676920, Note_off_c, 1, 97, 0
3, 677760, Note_on_c, 1, 61, 96
3, 677760, Note_on_c, 1, 73, 96
3, 677760, Note_on_c, 1, 85, 96
3, 677760, Note_on_c, 1, 97, 96
3, 677880, Note_off_c, 1, 61, 0
3, 677880, Note_off_c, 1, 73, 0
3, 677880, Note_off_c, 1, 85, 0
3, 677880, Note_off_c, 1, 97, 0
3, 678720, Note_on_c, 1, 73, 96
3, 678720, Note_on_c, 1, 85, 96
3, 678720, Note_on_c, 1, 97, 96
3, 678840, Note_off_c, 1, 73, 0
3, 678840, Note_off_c, 1, 85, 0
3, 678840, Note_off_c, 1, 97, 0
3, 679360, Note_on_c, 1, 97, 96
3, 679480, Note_off_c, 1, 97, 0
3, 679680, Note_on_c, 1, 62, 96
3, 679680, Note_on_c, 1, 75, 96
3, 679680, Note_on_c, 1, 87, 96
3, 679680, Note_on_c, 1, 99, 96
3, 679800, Note_off_c, 1, 62, 0
3, 679800, Note_off_c, 1, 75, 0
3, 679800, Note_off_c, 1, 87, 0
3, 679800, Note_off_c, 1, 99, 0
3, 680640, Note_on_c, 1, 75, 96
3, 680640, Note_on_c, 1, 87, 96
3, 680640, Note_on_c, 1, 99, 96
3, 680760, Note_off_c, 1, 75, 0
3, 680760, Note_off_c, 1, 87, 0
3, 680760, Note_off_c, 1, 99, 0
3, 681600, Note_on_c, 1, 62, 96
3, 681600, Note_on_c, 1, 75, 96
3, 681600, Note_on_c, 1, 87, 96
3, 681600, Note_on_c, 1, 99, 96
3, 681720, Note_off_c, 1, 62, 0
3, 681720, Note_off_c, 1, 75, 0
3, 681720, Note_off_c, 1, 87, 0
3, 681720, Note_off_c, 1, 99, 0
3, 682560, Note_on_c, 1, 75, 96
3, 682560, Note_on_c, 1, 87, 96
3, 682560, Note_on_c, 1, 99, 96
3, 682680, Note_off_c, 1, 75, 0
3, 682680, Note_off_c, 1, 87, 0
3, 682680, Note_off_c, 1, 99, 0
3, 683520, Note_on_c, 1, 62, 96
3, 683520, Note_on_c, 1, 75, 96
3, 683520, Note_on_c, 1, 87, 96
3, 683520, Note_on_c, 1, 99, 96
3, 683640, Note_off_c, 1, 62, 0
3, 683640, Note_off_c, 1, 75, 0
3, 683640, Note_off_c, 1, 87, 0
3, 683640, Note_off_c, 1, 99, 0
3, 684480, Note_on_c, 1, 73, 96
3, 684480, Note_on_c, 1, 85, 96
3, 684480, Note_on_c, 1, 97, 96
3, 684600, Note_off_c, 1, 73, 0
3, 684600, Note_off_c, 1, 85, 0
3, 684600, Note_off_c, 1, 97, 0
3, 685440, Note_on_c, 1, 62, 96
3, 685440, Note_on_c, 1, 75, 96
3, 685440, Note_on_c, 1, 87, 96
3, 685440, Note_on_c, 1, 99, 96
3, 685560, Note_off_c, 1, 62, 0
3, 685560, Note_off_c, 1, 75, 0
3, 685560, Note_off_c, 1, 87, 0
3, 685560, Note_off_c, 1, 99, 0
3, 686400, Note_on_c, 1, 75, 96
3, 686400, Note_on_c, 1, 87, 96
3, 686400, Note_on_c, 1, 99, 96
3, 686520, Note_off_c, 1, 75, 0
3, 686520, Note_off_c, 1, 87, 0
3, 686520, Note_off_c, 1, 99, 0
3, 687360, Note_on_c, 1, 62, 96
3, 687360, Note_on_c, 1, 74, 96
3, 687360, Note_on_c, 1, 86, 96
3, 687360, Note_on_c, 1, 98, 96
3, 687480, Note_off_c, 1, 62, 0
3, 687480, Note_off_c, 1, 74, 0
3, 687480, Note_off_c, 1, 86, 0
3, 687480, Note_off_c, 1, 98, 0
3, 689280, Note_on_c, 1, 62, 96
3, 689280, Note_on_c, 1, 74, 96
3, 689280, Note_on_c, 1, 86, 96
3, 689280, Note_on_c, 1, 98, 96
3, 689400, Note_off_c, 1, 62, 0
3, 689400, Note_off_c, 1, 74, 0
3, 689400, Note_off_c, 1, 86, 0
3, 689400, Note_off_c, 1, 98, 0
3, 691200, Note_on_c, 1, 62, 96
3, 691200, Note_on_c, 1, 74, 96
3, 691200, Note_on_c, 1, 86, 96
3, 691200, Note_on_c, 1, 98, 96
3, 691320, Note_off_c, 1, 62, 0
3, 691320, Note_off_c, 1, 74, 0
3, 691320, Note_off_c, 1, 86, 0
3, 691320, Note_off_c, 1, 98, 0
3, 693120, Note_on_c, 1, 62, 96
3, 693120, Note_on_c, 1, 74, 96
3, 693120, Note_on_c, 1, 86, 96
3, 693120, Note_on_c, 1, 98, 96
3, 693240, Note_off_c, 1, 62, 0
3, 693240, Note_off_c, 1, 74, 0
3, 693240, Note_off_c, 1, 86, 0
3, 693240, Note_off_c, 1, 98, 0
3, 695040, Note_on_c, 1, 62, 96
3, 695040, Note_on_c, 1, 74, 96
3, 695040, Note_on_c, 1, 86, 96
3, 695040, Note_on_c, 1, 98, 96
3, 695280, Note_off_c, 1, 62, 0
3, 695280, Note_off_c, 1, 74, 0
3, 695280, Note_off_c, 1, 86, 0
3, 695998, Note_off_c, 1, 98, 0
3, 695998, End_track
4, 0, Start_track
4, 0, Title_t, "EVENTS"
4, 0, Text_t, "sing_off"
4, 0, Text_t, "[verse]"
4, 0, Text_t, "[lighting (flare)]"
4, 0, Text_t, "bass_off"
4, 7680, Text_t, "[music_start]"
4, 7680, Text_t, "[lighting ()]"
4, 7680, Text_t, "drum_on"
4, 7680, Text_t, "bass_on"
4, 7680, Text_t, "[section intro]"
4, 15360, Text_t, "[verse]"
4, 46080, Text_t, "[section verse_1]"
4, 47998, Text_t, "[lighting ()]"
4, 76800, Text_t, "sing_off"
4, 76800, Text_t, "[chorus]"
4, 86400, Text_t, "[lighting ()]"
4, 92160, Text_t, "[verse]"
4, 94080, Text_t, "[lighting ()]"
4, 107520, Text_t, "[section verse_2]"
4, 109440, Text_t, "[lighting ()]"
4, 138240, Text_t, "[chorus]"
4, 140160, Text_t, "[lighting ()]"
4, 148800, Text_t, "sing_on"
4, 153600, Text_t, "[verse]"
4, 155520, Text_t, "[lighting ()]"
4, 164160, Text_t, "sing_on"
4, 168960, Text_t, "[chorus]"
4, 172800, Text_t, "[lighting ()]"
4, 179520, Text_t, "sing_on"
4, 184320, Text_t, "[verse]"
4, 186000, Text_t, "[lighting ()]"
4, 195840, Text_t, "[section chorus_1]"
4, 198720, Text_t, "sing_on"
4, 199680, Text_t, "[chorus]"
4, 207358, Text_t, "[lighting (sweep)]"
4, 207360, Text_t, "[lighting ()]"
4, 215040, Text_t, "[lighting (color1)]"
4, 222720, Text_t, "[lighting ()]"
4, 230400, Text_t, "[lighting (color2)]"
4, 238080, Text_t, "[lighting ()]"
4, 245760, Text_t, "[lighting (color1)]"
4, 253440, Text_t, "[lighting ()]"
4, 261120, Text_t, "[verse]"
4, 261120, Text_t, "wail_off"
4, 264960, Text_t, "[lighting ()]"
4, 276480, Text_t, "[section verse_3]"
4, 278400, Text_t, "sing_on"
4, 307200, Text_t, "[chorus]"
4, 309120, Text_t, "[lighting ()]"
4, 317760, Text_t, "sing_on"
4, 322560, Text_t, "[verse]"
4, 324480, Text_t, "[lighting ()]"
4, 337920, Text_t, "[section verse_4]"
4, 339840, Text_t, "sing_on"
4, 368640, Text_t, "[chorus]"
4, 370560, Text_t, "[lighting ()]"
4, 378240, Text_t, "sing_on"
4, 384000, Text_t, "[verse]"
4, 386158, Text_t, "[lighting ()]"
4, 395520, Text_t, "sing_on"
4, 399360, Text_t, "[chorus]"
4, 414720, Text_t, "[verse]"
4, 416640, Text_t, "[lighting ()]"
4, 426240, Text_t, "[section chorus_2]"
4, 428160, Text_t, "sing_on"
4, 430080, Text_t, "[chorus]"
4, 437760, Text_t, "[lighting (sweep)]"
4, 437760, Text_t, "drum_normal"
4, 445440, Text_t, "[lighting (color2)]"
4, 453120, Text_t, "[lighting ()]"
4, 460800, Text_t, "[lighting (color1)]"
4, 468480, Text_t, "[lighting ()]"
4, 476160, Text_t, "[lighting (color2)]"
4, 483840, Text_t, "[lighting ()]"
4, 491520, Text_t, "[section heavy_riff]"
4, 499200, Text_t, "[lighting ()]"
4, 503040, Text_t, "[lighting (color1)]"
4, 518400, Text_t, "[lighting (sweep)]"
4, 519360, Text_t, "[lighting (color2)]"
4, 526080, Text_t, "[lighting (sweep)]"
4, 527040, Text_t, "[lighting (color1)]"
4, 530880, Text_t, "[lighting ()]"
4, 533760, Text_t, "wail_off"
4, 533760, Text_t, "[lighting (blackout)]"
4, 533760, Text_t, "[verse]"
4, 549120, Text_t, "[section gtr_solo]"
4, 549120, Text_t, "[lighting ()]"
4, 549120, Text_t, "solo_on"
4, 549120, Text_t, "[solo]"
4, 595200, Text_t, "solo_off"
4, 596160, Text_t, "[lighting (flare)]"
4, 610560, Text_t, "[lighting (color1)]"
4, 613440, Text_t, "[lighting (color2)]"
4, 624000, Text_t, "[lighting ()]"
4, 625920, Text_t, "[lighting (sweep)]"
4, 641280, Text_t, "[chorus]"
4, 643200, Text_t, "[lighting (color1)]"
4, 650880, Text_t, "[lighting ()]"
4, 656640, Text_t, "[verse]"
4, 658560, Text_t, "[lighting (color2)]"
4, 667200, Text_t, "[lighting ()]"
4, 672000, Text_t, "[chorus]"
4, 687360, Text_t, "[verse]"
4, 689280, Text_t, "[lighting ()]"
4, 696000, Text_t, "[lighting (blackout)]"
4, 696000, Text_t, "bass_off"
4, 698878, Text_t, "[end]"
4, 698878, End_track
5, 0, Start_track
5, 0, Title_t, "TRIGGERS"
5, 7680, Note_on_c, 4, 60, 100
5, 7680, Note_on_c, 4, 61, 100
5, 7680, Note_on_c, 0, 69, 100
5, 7680, Note_on_c, 0, 70, 100
5, 7920, Note_on_c, 4, 60, 0
5, 7920, Note_on_c, 4, 61, 0
5, 7920, Note_on_c, 0, 69, 0
5, 7920, Note_on_c, 0, 70, 0
5, 9600, Note_on_c, 4, 60, 100
5, 9600, Note_on_c, 4, 61, 100
5, 9600, Note_on_c, 0, 69, 100
5, 9600, Note_on_c, 0, 70, 100
5, 9840, Note_on_c, 4, 60, 0
5, 9840, Note_on_c, 4, 61, 0
5, 9840, Note_on_c, 0, 69, 0
5, 9840, Note_on_c, 0, 70, 0
5, 11520, Note_on_c, 4, 60, 100
5, 11520, Note_on_c, 4, 61, 100
5, 11520, Note_on_c, 0, 69, 100
5, 11520, Note_on_c, 0, 70, 100
5, 11760, Note_on_c, 4, 60, 0
5, 11760, Note_on_c, 4, 61, 0
5, 11760, Note_on_c, 0, 69, 0
5, 11760, Note_on_c, 0, 70, 0
5, 13440, Note_on_c, 4, 60, 100
5, 13440, Note_on_c, 4, 61, 100
5, 13440, Note_on_c, 0, 69, 100
5, 13440, Note_on_c, 0, 70, 100
5, 13680, Note_on_c, 4, 60, 0
5, 13680, Note_on_c, 4, 61, 0
5, 13680, Note_on_c, 0, 69, 0
5, 13680, Note_on_c, 0, 70, 0
5, 14400, Note_on_c, 4, 61, 100
5, 14400, Note_on_c, 0, 69, 100
5, 14640, Note_on_c, 4, 61, 0
5, 15360, Note_on_c, 0, 69, 0
5, 15360, Note_on_c, 4, 60, 100
5, 15360, Note_on_c, 4, 61, 100
5, 15360, Note_on_c, 0, 68, 100
5, 15600, Note_on_c, 4, 60, 0
5, 15600, Note_on_c, 4, 61, 0
5, 15600, Note_on_c, 0, 68, 0
5, 16320, Note_on_c, 4, 61, 100
5, 16320, Note_on_c, 0, 70, 100
5, 16560, Note_on_c, 4, 61, 0
5, 16560, Note_on_c, 0, 70, 0
5, 17280, Note_on_c, 4, 60, 100
5, 17280, Note_on_c, 4, 61, 100
5, 17280, Note_on_c, 0, 70, 100
5, 17520, Note_on_c, 4, 60, 0
5, 17520, Note_on_c, 4, 61, 0
5, 17520, Note_on_c, 0, 70, 0
5, 18240, Note_on_c, 4, 61, 100
5, 18240, Note_on_c, 0, 68, 100
5, 18480, Note_on_c, 4, 61, 0
5, 18480, Note_on_c, 0, 68, 0
5, 19200, Note_on_c, 4, 60, 100
5, 19200, Note_on_c, 4, 61, 100
5, 19200, Note_on_c, 0, 70, 100
5, 19440, Note_on_c, 4, 60, 0
5, 19440, Note_on_c, 4, 61, 0
5, 19440, Note_on_c, 0, 70, 0
5, 20160, Note_on_c, 4, 61, 100
5, 20160, Note_on_c, 0, 70, 100
5, 20400, Note_on_c, 4, 61, 0
5, 20400, Note_on_c, 0, 70, 0
5, 21120, Note_on_c, 4, 60, 100
5, 21120, Note_on_c, 4, 61, 100
5, 21120, Note_on_c, 0, 68, 100
5, 21360, Note_on_c, 4, 60, 0
5, 21360, Note_on_c, 4, 61, 0
5, 21360, Note_on_c, 0, 68, 0
5, 22080, Note_on_c, 4, 61, 100
5, 22080, Note_on_c, 0, 69, 100
5, 22320, Note_on_c, 4, 61, 0
5, 23040, Note_on_c, 0, 69, 0
5, 23040, Note_on_c, 4, 60, 100
5, 23040, Note_on_c, 4, 61, 100
5, 23040, Note_on_c, 0, 68, 100
5, 23280, Note_on_c, 4, 60, 0
5, 23280, Note_on_c, 4, 61, 0
5, 23280, Note_on_c, 0, 68, 0
5, 24000, Note_on_c, 4, 61, 100
5, 24000, Note_on_c, 0, 70, 100
5, 24240, Note_on_c, 4, 61, 0
5, 24240, Note_on_c, 0, 70, 0
5, 24960, Note_on_c, 4, 60, 100
5, 24960, Note_on_c, 4, 61, 100
5, 24960, Note_on_c, 0, 70, 100
5, 25200, Note_on_c, 4, 60, 0
5, 25200, Note_on_c, 4, 61, 0
5, 25200, Note_on_c, 0, 70, 0
5, 25920, Note_on_c, 4, 61, 100
5, 25920, Note_on_c, 0, 68, 100
5, 26160, Note_on_c, 4, 61, 0
5, 26160, Note_on_c, 0, 68, 0
5, 26880, Note_on_c, 4, 60, 100
5, 26880, Note_on_c, 4, 61, 100
5, 26880, Note_on_c, 0, 70, 100
5, 27120, Note_on_c, 4, 60, 0
5, 27120, Note_on_c, 4, 61, 0
5, 27120, Note_on_c, 0, 70, 0
5, 27840, Note_on_c, 4, 61, 100
5, 27840, Note_on_c, 0, 70, 100
5, 28080, Note_on_c, 4, 61, 0
5, 28080, Note_on_c, 0, 70, 0
5, 28800, Note_on_c, 4, 60, 100
5, 28800, Note_on_c, 4, 61, 100
5, 28800, Note_on_c, 0, 68, 100
5, 29040, Note_on_c, 4, 60, 0
5, 29040, Note_on_c, 4, 61, 0
5, 29040, Note_on_c, 0, 68, 0
5, 29760, Note_on_c, 4, 61, 100
5, 29760, Note_on_c, 0, 69, 100
5, 30000, Note_on_c, 4, 61, 0
5, 30720, Note_on_c, 0, 69, 0
5, 30720, Note_on_c, 4, 60, 100
5, 30720, Note_on_c, 4, 61, 100
5, 30720, Note_on_c, 0, 68, 100
5, 30960, Note_on_c, 4, 60, 0
5, 30960, Note_on_c, 4, 61, 0
5, 30960, Note_on_c, 0, 68, 0
5, 31680, Note_on_c, 4, 61, 100
5, 31680, Note_on_c, 0, 70, 100
5, 31920, Note_on_c, 4, 61, 0
5, 31920, Note_on_c, 0, 70, 0
5, 32640, Note_on_c, 4, 60, 100
5, 32640, Note_on_c, 4, 61, 100
5, 32640, Note_on_c, 0, 70, 100
5, 32880, Note_on_c, 4, 60, 0
5, 32880, Note_on_c, 4, 61, 0
5, 32880, Note_on_c, 0, 70, 0
5, 33600, Note_on_c, 4, 61, 100
5, 33600, Note_on_c, 0, 68, 100
5, 33840, Note_on_c, 4, 61, 0
5, 33840, Note_on_c, 0, 68, 0
5, 34560, Note_on_c, 4, 60, 100
5, 34560, Note_on_c, 4, 61, 100
5, 34560, Note_on_c, 0, 70, 100
5, 34800, Note_on_c, 4, 60, 0
5, 34800, Note_on_c, 4, 61, 0
5, 34800, Note_on_c, 0, 70, 0
5, 35520, Note_on_c, 4, 61, 100
5, 35520, Note_on_c, 0, 70, 100
5, 35760, Note_on_c, 4, 61, 0
5, 35760, Note_on_c, 0, 70, 0
5, 36480, Note_on_c, 4, 60, 100
5, 36480, Note_on_c, 4, 61, 100
5, 36480, Note_on_c, 0, 68, 100
5, 36720, Note_on_c, 4, 60, 0
5, 36720, Note_on_c, 4, 61, 0
5, 36720, Note_on_c, 0, 68, 0
5, 37440, Note_on_c, 4, 61, 100
5, 37440, Note_on_c, 0, 69, 100
5, 37680, Note_on_c, 4, 61, 0
5, 38400, Note_on_c, 0, 69, 0
5, 38400, Note_on_c, 4, 60, 100
5, 38400, Note_on_c, 4, 61, 100
5, 38400, Note_on_c, 0, 68, 100
5, 38640, Note_on_c, 4, 60, 0
5, 38640, Note_on_c, 4, 61, 0
5, 38640, Note_on_c, 0, 68, 0
5, 39360, Note_on_c, 4, 61, 100
5, 39360, Note_on_c, 0, 70, 100
5, 39600, Note_on_c, 4, 61, 0
5, 39600, Note_on_c, 0, 70, 0
5, 40320, Note_on_c, 4, 60, 100
5, 40320, Note_on_c, 4, 61, 100
5, 40320, Note_on_c, 0, 70, 100
5, 40560, Note_on_c, 4, 60, 0
5, 40560, Note_on_c, 4, 61, 0
5, 40560, Note_on_c, 0, 70, 0
5, 41280, Note_on_c, 4, 61, 100
5, 41280, Note_on_c, 0, 68, 100
5, 41520, Note_on_c, 4, 61, 0
5, 41520, Note_on_c, 0, 68, 0
5, 42240, Note_on_c, 4, 60, 100
5, 42240, Note_on_c, 4, 61, 100
5, 42240, Note_on_c, 0, 68, 100
5, 42480, Note_on_c, 4, 60, 0
5, 42480, Note_on_c, 4, 61, 0
5, 42480, Note_on_c, 0, 68, 0
5, 43200, Note_on_c, 4, 61, 100
5, 43200, Note_on_c, 0, 70, 100
5, 43440, Note_on_c, 4, 61, 0
5, 44160, Note_on_c, 4, 60, 100
5, 44160, Note_on_c, 4, 61, 100
5, 44400, Note_on_c, 4, 60, 0
5, 44400, Note_on_c, 4, 61, 0
5, 45120, Note_on_c, 4, 61, 100
5, 45360, Note_on_c, 4, 61, 0
5, 46080, Note_on_c, 0, 70, 0
5, 46080, Note_on_c, 4, 60, 100
5, 46080, Note_on_c, 4, 61, 100
5, 46080, Note_on_c, 0, 68, 100
5, 46320, Note_on_c, 4, 60, 0
5, 46320, Note_on_c, 4, 61, 0
5, 46320, Note_on_c, 0, 68, 0
5, 47040, Note_on_c, 4, 61, 100
5, 47040, Note_on_c, 0, 70, 100
5, 47280, Note_on_c, 4, 61, 0
5, 47280, Note_on_c, 0, 70, 0
5, 48000, Note_on_c, 4, 60, 100
5, 48000, Note_on_c, 4, 61, 100
5, 48000, Note_on_c, 0, 68, 100
5, 48240, Note_on_c, 4, 60, 0
5, 48240, Note_on_c, 4, 61, 0
5, 48240, Note_on_c, 0, 68, 0
5, 48960, Note_on_c, 4, 61, 100
5, 48960, Note_on_c, 0, 70, 100
5, 49200, Note_on_c, 4, 61, 0
5, 49200, Note_on_c, 0, 70, 0
5, 49920, Note_on_c, 4, 60, 100
5, 49920, Note_on_c, 4, 61, 100
5, 49920, Note_on_c, 0, 68, 100
5, 50160, Note_on_c, 4, 60, 0
5, 50160, Note_on_c, 4, 61, 0
5, 50160, Note_on_c, 0, 68, 0
5, 50880, Note_on_c, 4, 61, 100
5, 50880, Note_on_c, 0, 70, 100
5, 51120, Note_on_c, 4, 61, 0
5, 51120, Note_on_c, 0, 70, 0
5, 51840, Note_on_c, 4, 60, 100
5, 51840, Note_on_c, 4, 61, 100
5, 51840, Note_on_c, 0, 68, 100
5, 52080, Note_on_c, 4, 60, 0
5, 52080, Note_on_c, 4, 61, 0
5, 52080, Note_on_c, 0, 68, 0
5, 52320, Note_on_c, 4, 61, 100
5, 52560, Note_on_c, 4, 61, 0
5, 52800, Note_on_c, 4, 61, 100
5, 52800, Note_on_c, 0, 70, 100
5, 53040, Note_on_c, 4, 61, 0
5, 53040, Note_on_c, 0, 70, 0
5, 53120, Note_on_c, 4, 61, 100
5, 53360, Note_on_c, 4, 61, 0
5, 53440, Note_on_c, 4, 61, 100
5, 53440, Note_on_c, 0, 69, 100
5, 53680, Note_on_c, 4, 61, 0
5, 53680, Note_on_c, 0, 69, 0
5, 53760, Note_on_c, 4, 60, 100
5, 53760, Note_on_c, 4, 61, 100
5, 53760, Note_on_c, 0, 70, 100
5, 54000, Note_on_c, 4, 60, 0
5, 54000, Note_on_c, 4, 61, 0
5, 54000, Note_on_c, 0, 70, 0
5, 54720, Note_on_c, 4, 61, 100
5, 54720, Note_on_c, 0, 70, 100
5, 54960, Note_on_c, 4, 61, 0
5, 54960, Note_on_c, 0, 70, 0
5, 55680, Note_on_c, 4, 60, 100
5, 55680, Note_on_c, 4, 61, 100
5, 55680, Note_on_c, 0, 68, 100
5, 55920, Note_on_c, 4, 60, 0
5, 55920, Note_on_c, 4, 61, 0
5, 55920, Note_on_c, 0, 68, 0
5, 56640, Note_on_c, 4, 61, 100
5, 56640, Note_on_c, 0, 70, 100
5, 56880, Note_on_c, 4, 61, 0
5, 56880, Note_on_c, 0, 70, 0
5, 57600, Note_on_c, 4, 60, 100
5, 57600, Note_on_c, 4, 61, 100
5, 57600, Note_on_c, 0, 68, 100
5, 57840, Note_on_c, 4, 60, 0
5, 57840, Note_on_c, 4, 61, 0
5, 57840, Note_on_c, 0, 68, 0
5, 58560, Note_on_c, 4, 61, 100
5, 58560, Note_on_c, 0, 70, 100
5, 58800, Note_on_c, 4, 61, 0
5, 58800, Note_on_c, 0, 70, 0
5, 59520, Note_on_c, 4, 60, 100
5, 59520, Note_on_c, 4, 61, 100
5, 59520, Note_on_c, 0, 68, 100
5, 59760, Note_on_c, 4, 60, 0
5, 59760, Note_on_c, 4, 61, 0
5, 59760, Note_on_c, 0, 68, 0
5, 60000, Note_on_c, 4, 61, 100
5, 60240, Note_on_c, 4, 61, 0
5, 60480, Note_on_c, 4, 61, 100
5, 60480, Note_on_c, 0, 70, 100
5, 60720, Note_on_c, 4, 61, 0
5, 60720, Note_on_c, 0, 70, 0
5, 60800, Note_on_c, 4, 61, 100
5, 61040, Note_on_c, 4, 61, 0
5, 61120, Note_on_c, 4, 61, 100
5, 61120, Note_on_c, 0, 70, 100
5, 61360, Note_on_c, 4, 61, 0
5, 61360, Note_on_c, 0, 70, 0
5, 61440, Note_on_c, 4, 60, 100
5, 61440, Note_on_c, 4, 61, 100
5, 61440, Note_on_c, 0, 70, 100
5, 61680, Note_on_c, 4, 60, 0
5, 61680, Note_on_c, 4, 61, 0
5, 61680, Note_on_c, 0, 70, 0
5, 62400, Note_on_c, 4, 61, 100
5, 62400, Note_on_c, 0, 70, 100
5, 62640, Note_on_c, 4, 61, 0
5, 62640, Note_on_c, 0, 70, 0
5, 63360, Note_on_c, 4, 60, 100
5, 63360, Note_on_c, 4, 61, 100
5, 63360, Note_on_c, 0, 68, 100
5, 63600, Note_on_c, 4, 60, 0
5, 63600, Note_on_c, 4, 61, 0
5, 63600, Note_on_c, 0, 68, 0
5, 64320, Note_on_c, 4, 61, 100
5, 64320, Note_on_c, 0, 70, 100
5, 64560, Note_on_c, 4, 61, 0
5, 64560, Note_on_c, 0, 70, 0
5, 65280, Note_on_c, 4, 60, 100
5, 65280, Note_on_c, 4, 61, 100
5, 65280, Note_on_c, 0, 68, 100
5, 65520, Note_on_c, 4, 60, 0
5, 65520, Note_on_c, 4, 61, 0
5, 65520, Note_on_c, 0, 68, 0
5, 66240, Note_on_c, 4, 61, 100
5, 66240, Note_on_c, 0, 70, 100
5, 66480, Note_on_c, 4, 61, 0
5, 66480, Note_on_c, 0, 70, 0
5, 67200, Note_on_c, 4, 60, 100
5, 67200, Note_on_c, 4, 61, 100
5, 67200, Note_on_c, 0, 68, 100
5, 67440, Note_on_c, 4, 60, 0
5, 67440, Note_on_c, 4, 61, 0
5, 67440, Note_on_c, 0, 68, 0
5, 68160, Note_on_c, 4, 61, 100
5, 68160, Note_on_c, 0, 70, 100
5, 68400, Note_on_c, 4, 61, 0
5, 68400, Note_on_c, 0, 70, 0
5, 68480, Note_on_c, 4, 61, 100
5, 68720, Note_on_c, 4, 61, 0
5, 68800, Note_on_c, 4, 61, 100
5, 68800, Note_on_c, 0, 69, 100
5, 69040, Note_on_c, 4, 61, 0
5, 69040, Note_on_c, 0, 69, 0
5, 69120, Note_on_c, 4, 60, 100
5, 69120, Note_on_c, 4, 61, 100
5, 69120, Note_on_c, 0, 70, 100
5, 69360, Note_on_c, 4, 60, 0
5, 69360, Note_on_c, 4, 61, 0
5, 69360, Note_on_c, 0, 70, 0
5, 70080, Note_on_c, 4, 61, 100
5, 70080, Note_on_c, 0, 70, 100
5, 70320, Note_on_c, 4, 61, 0
5, 70320, Note_on_c, 0, 70, 0
5, 71040, Note_on_c, 4, 60, 100
5, 71040, Note_on_c, 4, 61, 100
5, 71040, Note_on_c, 0, 68, 100
5, 71280, Note_on_c, 4, 60, 0
5, 71280, Note_on_c, 4, 61, 0
5, 71280, Note_on_c, 0, 68, 0
5, 72000, Note_on_c, 4, 61, 100
5, 72000, Note_on_c, 0, 70, 100
5, 72240, Note_on_c, 4, 61, 0
5, 72240, Note_on_c, 0, 70, 0
5, 72960, Note_on_c, 4, 60, 100
5, 72960, Note_on_c, 4, 61, 100
5, 72960, Note_on_c, 0, 68, 100
5, 73200, Note_on_c, 4, 60, 0
5, 73200, Note_on_c, 4, 61, 0
5, 73200, Note_on_c, 0, 68, 0
5, 73920, Note_on_c, 4, 61, 100
5, 73920, Note_on_c, 0, 70, 100
5, 74160, Note_on_c, 4, 61, 0
5, 74160, Note_on_c, 0, 70, 0
5, 74880, Note_on_c, 4, 60, 100
5, 74880, Note_on_c, 4, 61, 100
5, 74880, Note_on_c, 0, 68, 100
5, 75120, Note_on_c, 4, 60, 0
5, 75120, Note_on_c, 4, 61, 0
5, 75120, Note_on_c, 0, 68, 0
5, 75840, Note_on_c, 4, 61, 100
5, 75840, Note_on_c, 0, 70, 100
5, 76080, Note_on_c, 4, 61, 0
5, 76080, Note_on_c, 0, 70, 0
5, 76800, Note_on_c, 4, 60, 100
5, 76800, Note_on_c, 4, 61, 100
5, 76800, Note_on_c, 0, 68, 100
5, 77040, Note_on_c, 4, 60, 0
5, 77040, Note_on_c, 4, 61, 0
5, 77040, Note_on_c, 0, 68, 0
5, 77760, Note_on_c, 4, 61, 100
5, 77760, Note_on_c, 0, 68, 100
5, 78000, Note_on_c, 4, 61, 0
5, 78000, Note_on_c, 0, 68, 0
5, 78720, Note_on_c, 4, 60, 100
5, 78720, Note_on_c, 4, 61, 100
5, 78720, Note_on_c, 0, 68, 100
5, 78960, Note_on_c, 4, 60, 0
5, 78960, Note_on_c, 4, 61, 0
5, 78960, Note_on_c, 0, 68, 0
5, 79680, Note_on_c, 4, 61, 100
5, 79680, Note_on_c, 0, 68, 100
5, 79920, Note_on_c, 4, 61, 0
5, 79920, Note_on_c, 0, 68, 0
5, 80640, Note_on_c, 4, 60, 100
5, 80640, Note_on_c, 4, 61, 100
5, 80640, Note_on_c, 0, 68, 100
5, 80880, Note_on_c, 4, 60, 0
5, 80880, Note_on_c, 4, 61, 0
5, 80880, Note_on_c, 0, 68, 0
5, 81600, Note_on_c, 4, 61, 100
5, 81600, Note_on_c, 0, 68, 100
5, 81840, Note_on_c, 4, 61, 0
5, 81840, Note_on_c, 0, 68, 0
5, 82560, Note_on_c, 4, 60, 100
5, 82560, Note_on_c, 4, 61, 100
5, 82560, Note_on_c, 0, 68, 100
5, 82800, Note_on_c, 4, 60, 0
5, 82800, Note_on_c, 4, 61, 0
5, 82800, Note_on_c, 0, 68, 0
5, 83520, Note_on_c, 4, 61, 100
5, 83520, Note_on_c, 0, 68, 100
5, 83760, Note_on_c, 4, 61, 0
5, 83760, Note_on_c, 0, 68, 0
5, 84160, Note_on_c, 0, 68, 100
5, 84400, Note_on_c, 0, 68, 0
5, 84480, Note_on_c, 4, 60, 100
5, 84480, Note_on_c, 4, 61, 100
5, 84480, Note_on_c, 0, 69, 100
5, 84720, Note_on_c, 4, 60, 0
5, 84720, Note_on_c, 4, 61, 0
5, 84720, Note_on_c, 0, 69, 0
5, 85440, Note_on_c, 4, 61, 100
5, 85440, Note_on_c, 0, 69, 100
5, 85680, Note_on_c, 4, 61, 0
5, 85680, Note_on_c, 0, 69, 0
5, 86400, Note_on_c, 4, 60, 100
5, 86400, Note_on_c, 4, 61, 100
5, 86400, Note_on_c, 0, 69, 100
5, 86640, Note_on_c, 4, 60, 0
5, 86640, Note_on_c, 4, 61, 0
5, 86640, Note_on_c, 0, 69, 0
5, 87360, Note_on_c, 4, 61, 100
5, 87360, Note_on_c, 0, 69, 100
5, 87600, Note_on_c, 4, 61, 0
5, 87600, Note_on_c, 0, 69, 0
5, 88320, Note_on_c, 4, 60, 100
5, 88320, Note_on_c, 4, 61, 100
5, 88320, Note_on_c, 0, 69, 100
5, 88560, Note_on_c, 4, 60, 0
5, 88560, Note_on_c, 4, 61, 0
5, 88560, Note_on_c, 0, 69, 0
5, 89280, Note_on_c, 4, 61, 100
5, 89280, Note_on_c, 0, 69, 100
5, 89520, Note_on_c, 4, 61, 0
5, 89520, Note_on_c, 0, 69, 0
5, 90240, Note_on_c, 4, 60, 100
5, 90240, Note_on_c, 4, 61, 100
5, 90240, Note_on_c, 0, 69, 100
5, 90480, Note_on_c, 4, 60, 0
5, 90480, Note_on_c, 4, 61, 0
5, 90480, Note_on_c, 0, 69, 0
5, 91200, Note_on_c, 4, 61, 100
5, 91200, Note_on_c, 0, 69, 100
5, 91440, Note_on_c, 4, 61, 0
5, 91440, Note_on_c, 0, 69, 0
5, 91840, Note_on_c, 0, 69, 100
5, 92080, Note_on_c, 0, 69, 0
5, 92160, Note_on_c, 4, 60, 100
5, 92160, Note_on_c, 4, 61, 100
5, 92160, Note_on_c, 0, 68, 100
5, 92400, Note_on_c, 4, 60, 0
5, 92400, Note_on_c, 4, 61, 0
5, 92400, Note_on_c, 0, 68, 0
5, 93120, Note_on_c, 4, 61, 100
5, 93120, Note_on_c, 0, 70, 100
5, 93360, Note_on_c, 4, 61, 0
5, 93360, Note_on_c, 0, 70, 0
5, 94080, Note_on_c, 4, 60, 100
5, 94080, Note_on_c, 4, 61, 100
5, 94080, Note_on_c, 0, 70, 100
5, 94320, Note_on_c, 4, 60, 0
5, 94320, Note_on_c, 4, 61, 0
5, 94320, Note_on_c, 0, 70, 0
5, 95040, Note_on_c, 4, 61, 100
5, 95040, Note_on_c, 0, 68, 100
5, 95280, Note_on_c, 4, 61, 0
5, 95280, Note_on_c, 0, 68, 0
5, 96000, Note_on_c, 4, 60, 100
5, 96000, Note_on_c, 4, 61, 100
5, 96000, Note_on_c, 0, 70, 100
5, 96240, Note_on_c, 4, 60, 0
5, 96240, Note_on_c, 4, 61, 0
5, 96240, Note_on_c, 0, 70, 0
5, 96960, Note_on_c, 4, 61, 100
5, 96960, Note_on_c, 0, 70, 100
5, 97200, Note_on_c, 4, 61, 0
5, 97200, Note_on_c, 0, 70, 0
5, 97920, Note_on_c, 4, 60, 100
5, 97920, Note_on_c, 4, 61, 100
5, 97920, Note_on_c, 0, 68, 100
5, 98160, Note_on_c, 4, 60, 0
5, 98160, Note_on_c, 4, 61, 0
5, 98160, Note_on_c, 0, 68, 0
5, 98880, Note_on_c, 4, 61, 100
5, 98880, Note_on_c, 0, 69, 100
5, 99120, Note_on_c, 4, 61, 0
5, 99840, Note_on_c, 0, 69, 0
5, 99840, Note_on_c, 4, 60, 100
5, 99840, Note_on_c, 4, 61, 100
5, 99840, Note_on_c, 0, 68, 100
5, 100080, Note_on_c, 4, 60, 0
5, 100080, Note_on_c, 4, 61, 0
5, 100080, Note_on_c, 0, 68, 0
5, 100800, Note_on_c, 4, 61, 100
5, 100800, Note_on_c, 0, 70, 100
5, 101040, Note_on_c, 4, 61, 0
5, 101040, Note_on_c, 0, 70, 0
5, 101760, Note_on_c, 4, 60, 100
5, 101760, Note_on_c, 4, 61, 100
5, 101760, Note_on_c, 0, 70, 100
5, 102000, Note_on_c, 4, 60, 0
5, 102000, Note_on_c, 4, 61, 0
5, 102000, Note_on_c, 0, 70, 0
5, 102720, Note_on_c, 4, 61, 100
5, 102720, Note_on_c, 0, 68, 100
5, 102960, Note_on_c, 4, 61, 0
5, 102960, Note_on_c, 0, 68, 0
5, 103360, Note_on_c, 4, 61, 100
5, 103600, Note_on_c, 4, 61, 0
5, 103680, Note_on_c, 4, 60, 100
5, 103680, Note_on_c, 4, 61, 100
5, 103680, Note_on_c, 0, 68, 100
5, 103920, Note_on_c, 4, 60, 0
5, 103920, Note_on_c, 4, 61, 0
5, 103920, Note_on_c, 0, 68, 0
5, 104640, Note_on_c, 4, 61, 100
5, 104640, Note_on_c, 0, 69, 100
5, 104880, Note_on_c, 4, 61, 0
5, 105600, Note_on_c, 4, 60, 100
5, 105600, Note_on_c, 4, 61, 100
5, 105840, Note_on_c, 4, 60, 0
5, 105840, Note_on_c, 4, 61, 0
5, 106560, Note_on_c, 4, 61, 100
5, 106800, Note_on_c, 4, 61, 0
5, 107520, Note_on_c, 0, 69, 0
5, 107520, Note_on_c, 4, 60, 100
5, 107520, Note_on_c, 4, 61, 100
5, 107520, Note_on_c, 0, 68, 100
5, 107760, Note_on_c, 4, 60, 0
5, 107760, Note_on_c, 4, 61, 0
5, 107760, Note_on_c, 0, 68, 0
5, 108480, Note_on_c, 4, 61, 100
5, 108480, Note_on_c, 0, 70, 100
5, 108720, Note_on_c, 4, 61, 0
5, 108720, Note_on_c, 0, 70, 0
5, 109440, Note_on_c, 4, 60, 100
5, 109440, Note_on_c, 4, 61, 100
5, 109440, Note_on_c, 0, 68, 100
5, 109680, Note_on_c, 4, 60, 0
5, 109680, Note_on_c, 4, 61, 0
5, 109680, Note_on_c, 0, 68, 0
5, 110400, Note_on_c, 4, 61, 100
5, 110400, Note_on_c, 0, 70, 100
5, 110640, Note_on_c, 4, 61, 0
5, 110640, Note_on_c, 0, 70, 0
5, 111360, Note_on_c, 4, 60, 100
5, 111360, Note_on_c, 4, 61, 100
5, 111360, Note_on_c, 0, 68, 100
5, 111600, Note_on_c, 4, 60, 0
5, 111600, Note_on_c, 4, 61, 0
5, 111600, Note_on_c, 0, 68, 0
5, 112320, Note_on_c, 4, 61, 100
5, 112320, Note_on_c, 0, 70, 100
5, 112560, Note_on_c, 4, 61, 0
5, 112560, Note_on_c, 0, 70, 0
5, 113280, Note_on_c, 4, 60, 100
5, 113280, Note_on_c, 4, 61, 100
5, 113280, Note_on_c, 0, 68, 100
5, 113520, Note_on_c, 4, 60, 0
5, 113520, Note_on_c, 4, 61, 0
5, 113520, Note_on_c, 0, 68, 0
5, 113920, Note_on_c, 4, 61, 100
5, 114160, Note_on_c, 4, 61, 0
5, 114240, Note_on_c, 4, 61, 100
5, 114240, Note_on_c, 0, 70, 100
5, 114480, Note_on_c, 4, 61, 0
5, 114480, Note_on_c, 0, 70, 0
5, 114560, Note_on_c, 4, 61, 100
5, 114800, Note_on_c, 4, 61, 0
5, 114880, Note_on_c, 4, 61, 100
5, 114880, Note_on_c, 0, 69, 100
5, 115120, Note_on_c, 4, 61, 0
5, 115120, Note_on_c, 0, 69, 0
5, 115200, Note_on_c, 4, 60, 100
5, 115200, Note_on_c, 4, 61, 100
5, 115200, Note_on_c, 0, 70, 100
5, 115440, Note_on_c, 4, 60, 0
5, 115440, Note_on_c, 4, 61, 0
5, 115440, Note_on_c, 0, 70, 0
5, 116160, Note_on_c, 4, 61, 100
5, 116160, Note_on_c, 0, 70, 100
5, 116400, Note_on_c, 4, 61, 0
5, 116400, Note_on_c, 0, 70, 0
5, 117120, Note_on_c, 4, 60, 100
5, 117120, Note_on_c, 4, 61, 100
5, 117120, Note_on_c, 0, 68, 100
5, 117360, Note_on_c, 4, 60, 0
5, 117360, Note_on_c, 4, 61, 0
5, 117360, Note_on_c, 0, 68, 0
5, 118080, Note_on_c, 4, 61, 100
5, 118080, Note_on_c, 0, 70, 100
5, 118320, Note_on_c, 4, 61, 0
5, 118320, Note_on_c, 0, 70, 0
5, 119040, Note_on_c, 4, 60, 100
5, 119040, Note_on_c, 4, 61, 100
5, 119040, Note_on_c, 0, 68, 100
5, 119280, Note_on_c, 4, 60, 0
5, 119280, Note_on_c, 4, 61, 0
5, 119280, Note_on_c, 0, 68, 0
5, 120000, Note_on_c, 4, 61, 100
5, 120000, Note_on_c, 0, 70, 100
5, 120240, Note_on_c, 4, 61, 0
5, 120240, Note_on_c, 0, 70, 0
5, 120960, Note_on_c, 4, 60, 100
5, 120960, Note_on_c, 4, 61, 100
5, 120960, Note_on_c, 0, 68, 100
5, 121200, Note_on_c, 4, 60, 0
5, 121200, Note_on_c, 4, 61, 0
5, 121200, Note_on_c, 0, 68, 0
5, 121600, Note_on_c, 4, 61, 100
5, 121840, Note_on_c, 4, 61, 0
5, 121920, Note_on_c, 4, 61, 100
5, 121920, Note_on_c, 0, 70, 100
5, 122160, Note_on_c, 4, 61, 0
5, 122160, Note_on_c, 0, 70, 0
5, 122240, Note_on_c, 4, 61, 100
5, 122480, Note_on_c, 4, 61, 0
5, 122560, Note_on_c, 4, 61, 100
5, 122560, Note_on_c, 0, 70, 100
5, 122800, Note_on_c, 4, 61, 0
5, 122800, Note_on_c, 0, 70, 0
5, 122880, Note_on_c, 4, 60, 100
5, 122880, Note_on_c, 4, 61, 100
5, 122880, Note_on_c, 0, 70, 100
5, 123120, Note_on_c, 4, 60, 0
5, 123120, Note_on_c, 4, 61, 0
5, 123120, Note_on_c, 0, 70, 0
5, 123840, Note_on_c, 4, 61, 100
5, 123840, Note_on_c, 0, 70, 100
5, 124080, Note_on_c, 4, 61, 0
5, 124080, Note_on_c, 0, 70, 0
5, 124800, Note_on_c, 4, 60, 100
5, 124800, Note_on_c, 4, 61, 100
5, 124800, Note_on_c, 0, 68, 100
5, 125040, Note_on_c, 4, 60, 0
5, 125040, Note_on_c, 4, 61, 0
5, 125040, Note_on_c, 0, 68, 0
5, 125760, Note_on_c, 4, 61, 100
5, 125760, Note_on_c, 0, 70, 100
5, 126000, Note_on_c, 4, 61, 0
5, 126000, Note_on_c, 0, 70, 0
5, 126720, Note_on_c, 4, 60, 100
5, 126720, Note_on_c, 4, 61, 100
5, 126720, Note_on_c, 0, 68, 100
5, 126960, Note_on_c, 4, 60, 0
5, 126960, Note_on_c, 4, 61, 0
5, 126960, Note_on_c, 0, 68, 0
5, 127680, Note_on_c, 4, 61, 100
5, 127680, Note_on_c, 0, 70, 100
5, 127920, Note_on_c, 4, 61, 0
5, 127920, Note_on_c, 0, 70, 0
5, 128640, Note_on_c, 4, 60, 100
5, 128640, Note_on_c, 4, 61, 100
5, 128640, Note_on_c, 0, 68, 100
5, 128880, Note_on_c, 4, 60, 0
5, 128880, Note_on_c, 4, 61, 0
5, 128880, Note_on_c, 0, 68, 0
5, 129280, Note_on_c, 4, 61, 100
5, 129520, Note_on_c, 4, 61, 0
5, 129600, Note_on_c, 4, 61, 100
5, 129600, Note_on_c, 0, 70, 100
5, 129840, Note_on_c, 4, 61, 0
5, 129840, Note_on_c, 0, 70, 0
5, 129920, Note_on_c, 4, 61, 100
5, 130160, Note_on_c, 4, 61, 0
5, 130240, Note_on_c, 4, 61, 100
5, 130240, Note_on_c, 0, 69, 100
5, 130480, Note_on_c, 4, 61, 0
5, 130480, Note_on_c, 0, 69, 0
5, 130560, Note_on_c, 4, 60, 100
5, 130560, Note_on_c, 4, 61, 100
5, 130560, Note_on_c, 0, 70, 100
5, 130800, Note_on_c, 4, 60, 0
5, 130800, Note_on_c, 4, 61, 0
5, 130800, Note_on_c, 0, 70, 0
5, 131520, Note_on_c, 4, 61, 100
5, 131520, Note_on_c, 0, 70, 100
5, 131760, Note_on_c, 4, 61, 0
5, 131760, Note_on_c, 0, 70, 0
5, 132480, Note_on_c, 4, 60, 100
5, 132480, Note_on_c, 4, 61, 100
5, 132480, Note_on_c, 0, 68, 100
5, 132720, Note_on_c, 4, 60, 0
5, 132720, Note_on_c, 4, 61, 0
5, 132720, Note_on_c, 0, 68, 0
5, 133440, Note_on_c, 4, 61, 100
5, 133440, Note_on_c, 0, 70, 100
5, 133680, Note_on_c, 4, 61, 0
5, 133680, Note_on_c, 0, 70, 0
5, 134400, Note_on_c, 4, 60, 100
5, 134400, Note_on_c, 4, 61, 100
5, 134400, Note_on_c, 0, 68, 100
5, 134640, Note_on_c, 4, 60, 0
5, 134640, Note_on_c, 4, 61, 0
5, 134640, Note_on_c, 0, 68, 0
5, 135360, Note_on_c, 4, 61, 100
5, 135360, Note_on_c, 0, 70, 100
5, 135600, Note_on_c, 4, 61, 0
5, 135600, Note_on_c, 0, 70, 0
5, 136320, Note_on_c, 4, 60, 100
5, 136320, Note_on_c, 4, 61, 100
5, 136320, Note_on_c, 0, 70, 100
5, 136560, Note_on_c, 4, 60, 0
5, 136560, Note_on_c, 4, 61, 0
5, 136560, Note_on_c, 0, 70, 0
5, 136960, Note_on_c, 0, 69, 100
5, 137200, Note_on_c, 0, 69, 0
5, 137280, Note_on_c, 4, 61, 100
5, 137280, Note_on_c, 0, 70, 100
5, 137520, Note_on_c, 4, 61, 0
5, 137520, Note_on_c, 0, 70, 0
5, 138240, Note_on_c, 4, 60, 100
5, 138240, Note_on_c, 4, 61, 100
5, 138240, Note_on_c, 0, 68, 100
5, 138480, Note_on_c, 4, 60, 0
5, 138480, Note_on_c, 4, 61, 0
5, 138480, Note_on_c, 0, 68, 0
5, 139200, Note_on_c, 4, 61, 100
5, 139200, Note_on_c, 0, 68, 100
5, 139440, Note_on_c, 4, 61, 0
5, 139440, Note_on_c, 0, 68, 0
5, 140160, Note_on_c, 4, 60, 100
5, 140160, Note_on_c, 4, 61, 100
5, 140160, Note_on_c, 0, 68, 100
5, 140400, Note_on_c, 4, 60, 0
5, 140400, Note_on_c, 4, 61, 0
5, 140400, Note_on_c, 0, 68, 0
5, 141120, Note_on_c, 4, 61, 100
5, 141120, Note_on_c, 0, 68, 100
5, 141360, Note_on_c, 4, 61, 0
5, 141360, Note_on_c, 0, 68, 0
5, 142080, Note_on_c, 4, 60, 100
5, 142080, Note_on_c, 4, 61, 100
5, 142080, Note_on_c, 0, 68, 100
5, 142320, Note_on_c, 4, 60, 0
5, 142320, Note_on_c, 4, 61, 0
5, 142320, Note_on_c, 0, 68, 0
5, 143040, Note_on_c, 4, 61, 100
5, 143040, Note_on_c, 0, 68, 100
5, 143280, Note_on_c, 4, 61, 0
5, 143280, Note_on_c, 0, 68, 0
5, 144000, Note_on_c, 4, 60, 100
5, 144000, Note_on_c, 4, 61, 100
5, 144000, Note_on_c, 0, 68, 100
5, 144240, Note_on_c, 4, 60, 0
5, 144240, Note_on_c, 4, 61, 0
5, 144240, Note_on_c, 0, 68, 0
5, 144960, Note_on_c, 4, 61, 100
5, 144960, Note_on_c, 0, 68, 100
5, 145200, Note_on_c, 4, 61, 0
5, 145200, Note_on_c, 0, 68, 0
5, 145600, Note_on_c, 0, 68, 100
5, 145840, Note_on_c, 0, 68, 0
5, 145920, Note_on_c, 4, 60, 100
5, 145920, Note_on_c, 4, 61, 100
5, 145920, Note_on_c, 0, 69, 100
5, 146160, Note_on_c, 4, 60, 0
5, 146160, Note_on_c, 4, 61, 0
5, 146160, Note_on_c, 0, 69, 0
5, 146880, Note_on_c, 4, 61, 100
5, 146880, Note_on_c, 0, 69, 100
5, 147120, Note_on_c, 4, 61, 0
5, 147120, Note_on_c, 0, 69, 0
5, 147840, Note_on_c, 4, 60, 100
5, 147840, Note_on_c, 4, 61, 100
5, 147840, Note_on_c, 0, 69, 100
5, 148080, Note_on_c, 4, 60, 0
5, 148080, Note_on_c, 4, 61, 0
5, 148080, Note_on_c, 0, 69, 0
5, 148800, Note_on_c, 4, 61, 100
5, 148800, Note_on_c, 0, 69, 100
5, 149040, Note_on_c, 4, 61, 0
5, 149040, Note_on_c, 0, 69, 0
5, 149760, Note_on_c, 4, 60, 100
5, 149760, Note_on_c, 4, 61, 100
5, 149760, Note_on_c, 0, 69, 100
5, 150000, Note_on_c, 4, 60, 0
5, 150000, Note_on_c, 4, 61, 0
5, 150000, Note_on_c, 0, 69, 0
5, 150720, Note_on_c, 4, 61, 100
5, 150720, Note_on_c, 0, 69, 100
5, 150960, Note_on_c, 4, 61, 0
5, 150960, Note_on_c, 0, 69, 0
5, 151680, Note_on_c, 4, 60, 100
5, 151680, Note_on_c, 4, 61, 100
5, 151680, Note_on_c, 0, 69, 100
5, 151920, Note_on_c, 4, 60, 0
5, 151920, Note_on_c, 4, 61, 0
5, 151920, Note_on_c, 0, 69, 0
5, 152640, Note_on_c, 4, 61, 100
5, 152640, Note_on_c, 0, 69, 100
5, 152880, Note_on_c, 4, 61, 0
5, 152880, Note_on_c, 0, 69, 0
5, 153280, Note_on_c, 0, 69, 100
5, 153520, Note_on_c, 0, 69, 0
5, 153600, Note_on_c, 4, 60, 100
5, 153600, Note_on_c, 4, 61, 100
5, 153600, Note_on_c, 0, 68, 100
5, 153840, Note_on_c, 4, 60, 0
5, 153840, Note_on_c, 4, 61, 0
5, 153840, Note_on_c, 0, 68, 0
5, 154560, Note_on_c, 4, 61, 100
5, 154560, Note_on_c, 0, 70, 100
5, 154800, Note_on_c, 4, 61, 0
5, 154800, Note_on_c, 0, 70, 0
5, 155520, Note_on_c, 4, 60, 100
5, 155520, Note_on_c, 4, 61, 100
5, 155520, Note_on_c, 0, 70, 100
5, 155760, Note_on_c, 4, 60, 0
5, 155760, Note_on_c, 4, 61, 0
5, 155760, Note_on_c, 0, 70, 0
5, 156480, Note_on_c, 4, 61, 100
5, 156480, Note_on_c, 0, 68, 100
5, 156720, Note_on_c, 4, 61, 0
5, 156720, Note_on_c, 0, 68, 0
5, 157440, Note_on_c, 4, 60, 100
5, 157440, Note_on_c, 4, 61, 100
5, 157440, Note_on_c, 0, 70, 100
5, 157680, Note_on_c, 4, 60, 0
5, 157680, Note_on_c, 4, 61, 0
5, 157680, Note_on_c, 0, 70, 0
5, 158400, Note_on_c, 4, 61, 100
5, 158400, Note_on_c, 0, 70, 100
5, 158640, Note_on_c, 4, 61, 0
5, 158640, Note_on_c, 0, 70, 0
5, 159360, Note_on_c, 4, 60, 100
5, 159360, Note_on_c, 4, 61, 100
5, 159360, Note_on_c, 0, 68, 100
5, 159600, Note_on_c, 4, 60, 0
5, 159600, Note_on_c, 4, 61, 0
5, 160160, Note_on_c, 0, 68, 0
5, 160320, Note_on_c, 4, 61, 100
5, 160320, Note_on_c, 0, 69, 100
5, 160560, Note_on_c, 4, 61, 0
5, 160640, Note_on_c, 4, 61, 100
5, 160880, Note_on_c, 4, 61, 0
5, 160960, Note_on_c, 4, 61, 100
5, 161120, Note_on_c, 0, 69, 0
5, 161200, Note_on_c, 4, 61, 0
5, 161280, Note_on_c, 4, 60, 100
5, 161280, Note_on_c, 4, 61, 100
5, 161280, Note_on_c, 0, 68, 100
5, 161520, Note_on_c, 4, 60, 0
5, 161520, Note_on_c, 4, 61, 0
5, 161520, Note_on_c, 0, 68, 0
5, 162240, Note_on_c, 4, 61, 100
5, 162240, Note_on_c, 0, 70, 100
5, 162480, Note_on_c, 4, 61, 0
5, 162480, Note_on_c, 0, 70, 0
5, 163200, Note_on_c, 4, 60, 100
5, 163200, Note_on_c, 4, 61, 100
5, 163200, Note_on_c, 0, 70, 100
5, 163440, Note_on_c, 4, 60, 0
5, 163440, Note_on_c, 4, 61, 0
5, 163440, Note_on_c, 0, 70, 0
5, 164160, Note_on_c, 4, 61, 100
5, 164160, Note_on_c, 0, 68, 100
5, 164400, Note_on_c, 4, 61, 0
5, 164400, Note_on_c, 0, 68, 0
5, 164800, Note_on_c, 4, 61, 100
5, 165040, Note_on_c, 4, 61, 0
5, 165120, Note_on_c, 4, 60, 100
5, 165120, Note_on_c, 4, 61, 100
5, 165120, Note_on_c, 0, 70, 100
5, 165360, Note_on_c, 4, 60, 0
5, 165360, Note_on_c, 4, 61, 0
5, 165360, Note_on_c, 0, 70, 0
5, 166080, Note_on_c, 4, 61, 100
5, 166080, Note_on_c, 0, 70, 100
5, 166320, Note_on_c, 4, 61, 0
5, 166320, Note_on_c, 0, 70, 0
5, 167040, Note_on_c, 4, 60, 100
5, 167040, Note_on_c, 4, 61, 100
5, 167040, Note_on_c, 0, 68, 100
5, 167280, Note_on_c, 4, 60, 0
5, 167280, Note_on_c, 4, 61, 0
5, 167280, Note_on_c, 0, 68, 0
5, 168000, Note_on_c, 4, 61, 100
5, 168000, Note_on_c, 0, 69, 100
5, 168240, Note_on_c, 4, 61, 0
5, 168960, Note_on_c, 0, 69, 0
5, 168960, Note_on_c, 4, 60, 100
5, 168960, Note_on_c, 4, 61, 100
5, 168960, Note_on_c, 0, 68, 100
5, 169200, Note_on_c, 4, 60, 0
5, 169200, Note_on_c, 4, 61, 0
5, 169200, Note_on_c, 0, 68, 0
5, 169920, Note_on_c, 4, 61, 100
5, 169920, Note_on_c, 0, 68, 100
5, 170160, Note_on_c, 4, 61, 0
5, 170160, Note_on_c, 0, 68, 0
5, 170880, Note_on_c, 4, 60, 100
5, 170880, Note_on_c, 4, 61, 100
5, 170880, Note_on_c, 0, 68, 100
5, 171120, Note_on_c, 4, 60, 0
5, 171120, Note_on_c, 4, 61, 0
5, 171120, Note_on_c, 0, 68, 0
5, 171840, Note_on_c, 4, 61, 100
5, 171840, Note_on_c, 0, 68, 100
5, 172080, Note_on_c, 4, 61, 0
5, 172080, Note_on_c, 0, 68, 0
5, 172800, Note_on_c, 4, 60, 100
5, 172800, Note_on_c, 4, 61, 100
5, 172800, Note_on_c, 0, 68, 100
5, 173040, Note_on_c, 4, 60, 0
5, 173040, Note_on_c, 4, 61, 0
5, 173040, Note_on_c, 0, 68, 0
5, 173760, Note_on_c, 4, 61, 100
5, 173760, Note_on_c, 0, 68, 100
5, 174000, Note_on_c, 4, 61, 0
5, 174000, Note_on_c, 0, 68, 0
5, 174720, Note_on_c, 4, 60, 100
5, 174720, Note_on_c, 4, 61, 100
5, 174720, Note_on_c, 0, 68, 100
5, 174960, Note_on_c, 4, 60, 0
5, 174960, Note_on_c, 4, 61, 0
5, 174960, Note_on_c, 0, 68, 0
5, 175680, Note_on_c, 4, 61, 100
5, 175680, Note_on_c, 0, 68, 100
5, 175920, Note_on_c, 4, 61, 0
5, 175920, Note_on_c, 0, 68, 0
5, 176320, Note_on_c, 0, 68, 100
5, 176560, Note_on_c, 0, 68, 0
5, 176640, Note_on_c, 4, 60, 100
5, 176640, Note_on_c, 4, 61, 100
5, 176640, Note_on_c, 0, 69, 100
5, 176880, Note_on_c, 4, 60, 0
5, 176880, Note_on_c, 4, 61, 0
5, 176880, Note_on_c, 0, 69, 0
5, 177600, Note_on_c, 4, 61, 100
5, 177600, Note_on_c, 0, 69, 100
5, 177840, Note_on_c, 4, 61, 0
5, 177840, Note_on_c, 0, 69, 0
5, 178560, Note_on_c, 4, 60, 100
5, 178560, Note_on_c, 4, 61, 100
5, 178560, Note_on_c, 0, 69, 100
5, 178800, Note_on_c, 4, 60, 0
5, 178800, Note_on_c, 4, 61, 0
5, 178800, Note_on_c, 0, 69, 0
5, 179520, Note_on_c, 4, 61, 100
5, 179520, Note_on_c, 0, 69, 100
5, 179760, Note_on_c, 4, 61, 0
5, 179760, Note_on_c, 0, 69, 0
5, 180480, Note_on_c, 4, 60, 100
5, 180480, Note_on_c, 4, 61, 100
5, 180480, Note_on_c, 0, 69, 100
5, 180720, Note_on_c, 4, 60, 0
5, 180720, Note_on_c, 4, 61, 0
5, 180720, Note_on_c, 0, 69, 0
5, 181440, Note_on_c, 4, 61, 100
5, 181440, Note_on_c, 0, 69, 100
5, 181680, Note_on_c, 4, 61, 0
5, 181680, Note_on_c, 0, 69, 0
5, 182400, Note_on_c, 4, 60, 100
5, 182400, Note_on_c, 4, 61, 100
5, 182400, Note_on_c, 0, 69, 100
5, 182640, Note_on_c, 4, 60, 0
5, 182640, Note_on_c, 4, 61, 0
5, 182640, Note_on_c, 0, 69, 0
5, 183360, Note_on_c, 4, 61, 100
5, 183360, Note_on_c, 0, 69, 100
5, 183600, Note_on_c, 4, 61, 0
5, 183600, Note_on_c, 0, 69, 0
5, 184000, Note_on_c, 0, 69, 100
5, 184240, Note_on_c, 0, 69, 0
5, 184320, Note_on_c, 4, 60, 100
5, 184320, Note_on_c, 4, 61, 100
5, 184320, Note_on_c, 0, 68, 100
5, 184560, Note_on_c, 4, 60, 0
5, 184560, Note_on_c, 4, 61, 0
5, 184560, Note_on_c, 0, 68, 0
5, 185280, Note_on_c, 4, 61, 100
5, 185280, Note_on_c, 0, 70, 100
5, 185520, Note_on_c, 4, 61, 0
5, 185520, Note_on_c, 0, 70, 0
5, 186240, Note_on_c, 4, 60, 100
5, 186240, Note_on_c, 4, 61, 100
5, 186240, Note_on_c, 0, 70, 100
5, 186480, Note_on_c, 4, 60, 0
5, 186480, Note_on_c, 4, 61, 0
5, 186480, Note_on_c, 0, 70, 0
5, 187200, Note_on_c, 4, 61, 100
5, 187200, Note_on_c, 0, 68, 100
5, 187440, Note_on_c, 4, 61, 0
5, 187440, Note_on_c, 0, 68, 0
5, 188160, Note_on_c, 4, 60, 100
5, 188160, Note_on_c, 4, 61, 100
5, 188160, Note_on_c, 0, 70, 100
5, 188400, Note_on_c, 4, 60, 0
5, 188400, Note_on_c, 4, 61, 0
5, 188400, Note_on_c, 0, 70, 0
5, 189120, Note_on_c, 4, 61, 100
5, 189120, Note_on_c, 0, 70, 100
5, 189360, Note_on_c, 4, 61, 0
5, 189360, Note_on_c, 0, 70, 0
5, 189760, Note_on_c, 0, 68, 100
5, 190000, Note_on_c, 0, 68, 0
5, 190080, Note_on_c, 4, 60, 100
5, 190080, Note_on_c, 4, 61, 100
5, 190080, Note_on_c, 0, 70, 100
5, 190320, Note_on_c, 4, 60, 0
5, 190320, Note_on_c, 4, 61, 0
5, 190880, Note_on_c, 0, 70, 0
5, 191040, Note_on_c, 4, 61, 100
5, 191040, Note_on_c, 0, 69, 100
5, 191280, Note_on_c, 4, 61, 0
5, 191840, Note_on_c, 0, 69, 0
5, 192000, Note_on_c, 4, 60, 100
5, 192000, Note_on_c, 4, 61, 100
5, 192000, Note_on_c, 0, 68, 100
5, 192240, Note_on_c, 4, 60, 0
5, 192240, Note_on_c, 4, 61, 0
5, 192240, Note_on_c, 0, 68, 0
5, 192960, Note_on_c, 4, 61, 100
5, 192960, Note_on_c, 0, 70, 100
5, 193200, Note_on_c, 4, 61, 0
5, 193200, Note_on_c, 0, 70, 0
5, 193920, Note_on_c, 4, 60, 100
5, 193920, Note_on_c, 4, 61, 100
5, 193920, Note_on_c, 0, 70, 100
5, 194160, Note_on_c, 4, 60, 0
5, 194160, Note_on_c, 4, 61, 0
5, 194160, Note_on_c, 0, 70, 0
5, 194880, Note_on_c, 4, 61, 100
5, 194880, Note_on_c, 0, 68, 100
5, 195120, Note_on_c, 4, 61, 0
5, 195120, Note_on_c, 0, 68, 0
5, 195840, Note_on_c, 4, 60, 100
5, 195840, Note_on_c, 4, 61, 100
5, 195840, Note_on_c, 0, 70, 100
5, 196080, Note_on_c, 4, 60, 0
5, 196080, Note_on_c, 4, 61, 0
5, 196080, Note_on_c, 0, 70, 0
5, 196800, Note_on_c, 4, 61, 100
5, 196800, Note_on_c, 0, 70, 100
5, 197040, Note_on_c, 4, 61, 0
5, 197040, Note_on_c, 0, 70, 0
5, 197760, Note_on_c, 4, 60, 100
5, 197760, Note_on_c, 4, 61, 100
5, 197760, Note_on_c, 0, 68, 100
5, 198000, Note_on_c, 4, 60, 0
5, 198000, Note_on_c, 4, 61, 0
5, 198000, Note_on_c, 0, 68, 0
5, 198720, Note_on_c, 4, 61, 100
5, 198720, Note_on_c, 0, 69, 100
5, 198960, Note_on_c, 4, 61, 0
5, 199520, Note_on_c, 0, 69, 0
5, 199680, Note_on_c, 4, 60, 100
5, 199680, Note_on_c, 4, 61, 100
5, 199680, Note_on_c, 0, 68, 100
5, 199920, Note_on_c, 4, 60, 0
5, 199920, Note_on_c, 4, 61, 0
5, 200480, Note_on_c, 0, 68, 0
5, 200640, Note_on_c, 4, 61, 100
5, 200640, Note_on_c, 0, 69, 100
5, 200880, Note_on_c, 4, 61, 0
5, 201440, Note_on_c, 0, 69, 0
5, 201600, Note_on_c, 4, 60, 100
5, 201600, Note_on_c, 4, 61, 100
5, 201600, Note_on_c, 0, 70, 100
5, 201840, Note_on_c, 4, 60, 0
5, 201840, Note_on_c, 4, 61, 0
5, 202400, Note_on_c, 0, 70, 0
5, 202560, Note_on_c, 4, 61, 100
5, 202560, Note_on_c, 0, 68, 100
5, 202800, Note_on_c, 4, 61, 0
5, 203360, Note_on_c, 0, 68, 0
5, 203520, Note_on_c, 4, 60, 100
5, 203520, Note_on_c, 4, 61, 100
5, 203520, Note_on_c, 0, 69, 100
5, 203760, Note_on_c, 4, 60, 0
5, 203760, Note_on_c, 4, 61, 0
5, 204320, Note_on_c, 0, 69, 0
5, 204480, Note_on_c, 4, 61, 100
5, 204480, Note_on_c, 0, 68, 100
5, 204720, Note_on_c, 4, 61, 0
5, 205282, Note_on_c, 0, 68, 0
5, 205440, Note_on_c, 4, 61, 100
5, 205440, Note_on_c, 0, 70, 100
5, 205680, Note_on_c, 4, 61, 0
5, 206242, Note_on_c, 0, 70, 0
5, 206400, Note_on_c, 4, 61, 100
5, 206400, Note_on_c, 0, 69, 100
5, 206640, Note_on_c, 4, 61, 0
5, 207202, Note_on_c, 0, 69, 0
5, 207360, Note_on_c, 4, 60, 100
5, 207360, Note_on_c, 4, 61, 100
5, 207360, Note_on_c, 0, 68, 100
5, 207480, Note_on_c, 0, 68, 0
5, 207600, Note_on_c, 4, 60, 0
5, 207600, Note_on_c, 4, 61, 0
5, 208320, Note_on_c, 4, 61, 100
5, 208320, Note_on_c, 0, 68, 100
5, 208440, Note_on_c, 0, 68, 0
5, 208560, Note_on_c, 4, 61, 0
5, 208960, Note_on_c, 4, 61, 100
5, 209200, Note_on_c, 4, 61, 0
5, 209280, Note_on_c, 4, 60, 100
5, 209280, Note_on_c, 4, 61, 100
5, 209280, Note_on_c, 0, 68, 100
5, 209400, Note_on_c, 0, 68, 0
5, 209520, Note_on_c, 4, 60, 0
5, 209520, Note_on_c, 4, 61, 0
5, 209920, Note_on_c, 4, 61, 100
5, 210160, Note_on_c, 4, 61, 0
5, 210240, Note_on_c, 4, 61, 100
5, 210240, Note_on_c, 0, 68, 100
5, 210360, Note_on_c, 0, 68, 0
5, 210480, Note_on_c, 4, 61, 0
5, 210880, Note_on_c, 4, 61, 100
5, 211120, Note_on_c, 4, 61, 0
5, 211200, Note_on_c, 4, 60, 100
5, 211200, Note_on_c, 4, 61, 100
5, 211200, Note_on_c, 0, 68, 100
5, 211320, Note_on_c, 0, 68, 0
5, 211440, Note_on_c, 4, 60, 0
5, 211440, Note_on_c, 4, 61, 0
5, 212160, Note_on_c, 4, 61, 100
5, 212160, Note_on_c, 0, 68, 100
5, 212280, Note_on_c, 0, 68, 0
5, 212400, Note_on_c, 4, 61, 0
5, 212800, Note_on_c, 4, 61, 100
5, 213040, Note_on_c, 4, 61, 0
5, 213120, Note_on_c, 4, 60, 100
5, 213120, Note_on_c, 4, 61, 100
5, 213120, Note_on_c, 0, 68, 100
5, 213240, Note_on_c, 0, 68, 0
5, 213360, Note_on_c, 4, 60, 0
5, 213360, Note_on_c, 4, 61, 0
5, 213760, Note_on_c, 4, 61, 100
5, 214000, Note_on_c, 4, 61, 0
5, 214080, Note_on_c, 4, 61, 100
5, 214080, Note_on_c, 0, 68, 100
5, 214200, Note_on_c, 0, 68, 0
5, 214320, Note_on_c, 4, 61, 0
5, 215040, Note_on_c, 4, 60, 100
5, 215040, Note_on_c, 4, 61, 100
5, 215040, Note_on_c, 0, 68, 100
5, 215280, Note_on_c, 4, 60, 0
5, 215280, Note_on_c, 4, 61, 0
5, 215836, Note_on_c, 0, 68, 0
5, 216000, Note_on_c, 4, 61, 100
5, 216000, Note_on_c, 0, 69, 100
5, 216240, Note_on_c, 4, 61, 0
5, 216796, Note_on_c, 0, 69, 0
5, 216960, Note_on_c, 4, 60, 100
5, 216960, Note_on_c, 4, 61, 100
5, 216960, Note_on_c, 0, 70, 100
5, 217200, Note_on_c, 4, 60, 0
5, 217200, Note_on_c, 4, 61, 0
5, 217756, Note_on_c, 0, 70, 0
5, 217920, Note_on_c, 4, 61, 100
5, 217920, Note_on_c, 0, 68, 100
5, 218160, Note_on_c, 4, 61, 0
5, 218716, Note_on_c, 0, 68, 0
5, 218880, Note_on_c, 4, 60, 100
5, 218880, Note_on_c, 4, 61, 100
5, 218880, Note_on_c, 0, 69, 100
5, 219120, Note_on_c, 4, 60, 0
5, 219120, Note_on_c, 4, 61, 0
5, 219680, Note_on_c, 0, 69, 0
5, 219840, Note_on_c, 4, 61, 100
5, 219840, Note_on_c, 0, 68, 100
5, 220080, Note_on_c, 4, 61, 0
5, 220640, Note_on_c, 0, 68, 0
5, 220800, Note_on_c, 4, 61, 100
5, 220800, Note_on_c, 0, 70, 100
5, 221040, Note_on_c, 4, 61, 0
5, 221600, Note_on_c, 0, 70, 0
5, 221760, Note_on_c, 4, 61, 100
5, 221760, Note_on_c, 0, 69, 100
5, 222000, Note_on_c, 4, 61, 0
5, 222560, Note_on_c, 0, 69, 0
5, 222720, Note_on_c, 4, 60, 100
5, 222720, Note_on_c, 4, 61, 100
5, 222720, Note_on_c, 0, 68, 100
5, 222840, Note_on_c, 0, 68, 0
5, 222960, Note_on_c, 4, 60, 0
5, 222960, Note_on_c, 4, 61, 0
5, 223360, Note_on_c, 4, 61, 100
5, 223600, Note_on_c, 4, 61, 0
5, 223680, Note_on_c, 4, 61, 100
5, 223680, Note_on_c, 0, 68, 100
5, 223800, Note_on_c, 0, 68, 0
5, 223920, Note_on_c, 4, 61, 0
5, 224320, Note_on_c, 4, 61, 100
5, 224560, Note_on_c, 4, 61, 0
5, 224640, Note_on_c, 4, 60, 100
5, 224640, Note_on_c, 4, 61, 100
5, 224640, Note_on_c, 0, 68, 100
5, 224764, Note_on_c, 0, 68, 0
5, 224880, Note_on_c, 4, 60, 0
5, 224880, Note_on_c, 4, 61, 0
5, 225280, Note_on_c, 4, 61, 100
5, 225520, Note_on_c, 4, 61, 0
5, 225600, Note_on_c, 4, 61, 100
5, 225600, Note_on_c, 0, 68, 100
5, 225724, Note_on_c, 0, 68, 0
5, 225840, Note_on_c, 4, 61, 0
5, 226240, Note_on_c, 4, 61, 100
5, 226480, Note_on_c, 4, 61, 0
5, 226560, Note_on_c, 4, 60, 100
5, 226560, Note_on_c, 4, 61, 100
5, 226560, Note_on_c, 0, 68, 100
5, 226682, Note_on_c, 0, 68, 0
5, 226800, Note_on_c, 4, 60, 0
5, 226800, Note_on_c, 4, 61, 0
5, 227200, Note_on_c, 4, 61, 100
5, 227440, Note_on_c, 4, 61, 0
5, 227520, Note_on_c, 4, 61, 100
5, 227520, Note_on_c, 0, 68, 100
5, 227642, Note_on_c, 0, 68, 0
5, 227760, Note_on_c, 4, 61, 0
5, 228160, Note_on_c, 4, 61, 100
5, 228400, Note_on_c, 4, 61, 0
5, 228480, Note_on_c, 4, 60, 100
5, 228480, Note_on_c, 4, 61, 100
5, 228480, Note_on_c, 0, 68, 100
5, 228602, Note_on_c, 0, 68, 0
5, 228720, Note_on_c, 4, 60, 0
5, 228720, Note_on_c, 4, 61, 0
5, 229120, Note_on_c, 4, 61, 100
5, 229360, Note_on_c, 4, 61, 0
5, 229440, Note_on_c, 4, 61, 100
5, 229440, Note_on_c, 0, 68, 100
5, 229562, Note_on_c, 0, 68, 0
5, 229680, Note_on_c, 4, 61, 0
5, 230400, Note_on_c, 4, 60, 100
5, 230400, Note_on_c, 4, 61, 100
5, 230400, Note_on_c, 0, 70, 100
5, 230640, Note_on_c, 4, 60, 0
5, 230640, Note_on_c, 4, 61, 0
5, 231200, Note_on_c, 0, 70, 0
5, 231360, Note_on_c, 4, 61, 100
5, 231360, Note_on_c, 0, 69, 100
5, 231600, Note_on_c, 4, 61, 0
5, 232160, Note_on_c, 0, 69, 0
5, 232320, Note_on_c, 4, 60, 100
5, 232320, Note_on_c, 4, 61, 100
5, 232320, Note_on_c, 0, 68, 100
5, 232560, Note_on_c, 4, 60, 0
5, 232560, Note_on_c, 4, 61, 0
5, 233120, Note_on_c, 0, 68, 0
5, 233280, Note_on_c, 4, 61, 100
5, 233280, Note_on_c, 0, 69, 100
5, 233520, Note_on_c, 4, 61, 0
5, 234080, Note_on_c, 0, 69, 0
5, 234240, Note_on_c, 4, 60, 100
5, 234240, Note_on_c, 4, 61, 100
5, 234240, Note_on_c, 0, 68, 100
5, 234480, Note_on_c, 4, 60, 0
5, 234480, Note_on_c, 4, 61, 0
5, 235040, Note_on_c, 0, 68, 0
5, 235200, Note_on_c, 4, 61, 100
5, 235200, Note_on_c, 0, 69, 100
5, 235440, Note_on_c, 4, 61, 0
5, 236000, Note_on_c, 0, 69, 0
5, 236160, Note_on_c, 4, 60, 100
5, 236160, Note_on_c, 4, 61, 100
5, 236160, Note_on_c, 0, 70, 100
5, 236400, Note_on_c, 4, 60, 0
5, 236400, Note_on_c, 4, 61, 0
5, 236960, Note_on_c, 0, 70, 0
5, 237120, Note_on_c, 4, 61, 100
5, 237120, Note_on_c, 0, 69, 100
5, 237360, Note_on_c, 4, 61, 0
5, 237920, Note_on_c, 0, 69, 0
5, 238080, Note_on_c, 4, 60, 100
5, 238080, Note_on_c, 4, 61, 100
5, 238080, Note_on_c, 0, 68, 100
5, 238200, Note_on_c, 0, 68, 0
5, 238320, Note_on_c, 4, 60, 0
5, 238320, Note_on_c, 4, 61, 0
5, 238720, Note_on_c, 4, 61, 100
5, 238960, Note_on_c, 4, 61, 0
5, 239040, Note_on_c, 4, 61, 100
5, 239040, Note_on_c, 0, 68, 100
5, 239160, Note_on_c, 0, 68, 0
5, 239280, Note_on_c, 4, 61, 0
5, 239680, Note_on_c, 4, 61, 100
5, 239920, Note_on_c, 4, 61, 0
5, 240000, Note_on_c, 4, 60, 100
5, 240000, Note_on_c, 4, 61, 100
5, 240000, Note_on_c, 0, 68, 100
5, 240120, Note_on_c, 0, 68, 0
5, 240240, Note_on_c, 4, 60, 0
5, 240240, Note_on_c, 4, 61, 0
5, 240640, Note_on_c, 4, 61, 100
5, 240880, Note_on_c, 4, 61, 0
5, 240960, Note_on_c, 4, 61, 100
5, 240960, Note_on_c, 0, 68, 100
5, 241080, Note_on_c, 0, 68, 0
5, 241200, Note_on_c, 4, 61, 0
5, 241600, Note_on_c, 4, 61, 100
5, 241840, Note_on_c, 4, 61, 0
5, 241920, Note_on_c, 4, 60, 100
5, 241920, Note_on_c, 4, 61, 100
5, 241920, Note_on_c, 0, 68, 100
5, 242040, Note_on_c, 0, 68, 0
5, 242160, Note_on_c, 4, 60, 0
5, 242160, Note_on_c, 4, 61, 0
5, 242560, Note_on_c, 4, 61, 100
5, 242800, Note_on_c, 4, 61, 0
5, 242880, Note_on_c, 4, 61, 100
5, 242880, Note_on_c, 0, 68, 100
5, 243000, Note_on_c, 0, 68, 0
5, 243120, Note_on_c, 4, 61, 0
5, 243520, Note_on_c, 4, 61, 100
5, 243760, Note_on_c, 4, 61, 0
5, 243840, Note_on_c, 4, 60, 100
5, 243840, Note_on_c, 4, 61, 100
5, 243840, Note_on_c, 0, 68, 100
5, 243960, Note_on_c, 0, 68, 0
5, 244080, Note_on_c, 4, 60, 0
5, 244080, Note_on_c, 4, 61, 0
5, 244480, Note_on_c, 4, 61, 100
5, 244720, Note_on_c, 4, 61, 0
5, 244800, Note_on_c, 4, 61, 100
5, 244800, Note_on_c, 0, 68, 100
5, 244920, Note_on_c, 0, 68, 0
5, 245040, Note_on_c, 4, 61, 0
5, 245760, Note_on_c, 4, 60, 100
5, 245760, Note_on_c, 4, 61, 100
5, 245760, Note_on_c, 0, 68, 100
5, 246000, Note_on_c, 4, 60, 0
5, 246000, Note_on_c, 4, 61, 0
5, 246560, Note_on_c, 0, 68, 0
5, 246720, Note_on_c, 4, 60, 100
5, 246720, Note_on_c, 4, 61, 100
5, 246720, Note_on_c, 0, 69, 100
5, 246960, Note_on_c, 4, 60, 0
5, 246960, Note_on_c, 4, 61, 0
5, 247520, Note_on_c, 0, 69, 0
5, 247680, Note_on_c, 4, 60, 100
5, 247680, Note_on_c, 4, 61, 100
5, 247680, Note_on_c, 0, 70, 100
5, 247920, Note_on_c, 4, 60, 0
5, 247920, Note_on_c, 4, 61, 0
5, 248480, Note_on_c, 0, 70, 0
5, 248640, Note_on_c, 4, 60, 100
5, 248640, Note_on_c, 4, 61, 100
5, 248640, Note_on_c, 0, 68, 100
5, 248880, Note_on_c, 4, 60, 0
5, 248880, Note_on_c, 4, 61, 0
5, 249440, Note_on_c, 0, 68, 0
5, 249600, Note_on_c, 4, 60, 100
5, 249600, Note_on_c, 4, 61, 100
5, 249600, Note_on_c, 0, 69, 100
5, 249840, Note_on_c, 4, 60, 0
5, 249840, Note_on_c, 4, 61, 0
5, 250400, Note_on_c, 0, 69, 0
5, 250560, Note_on_c, 4, 60, 100
5, 250560, Note_on_c, 4, 61, 100
5, 250560, Note_on_c, 0, 68, 100
5, 250800, Note_on_c, 4, 60, 0
5, 250800, Note_on_c, 4, 61, 0
5, 251360, Note_on_c, 0, 68, 0
5, 251520, Note_on_c, 4, 60, 100
5, 251520, Note_on_c, 4, 61, 100
5, 251520, Note_on_c, 0, 70, 100
5, 251760, Note_on_c, 4, 60, 0
5, 251760, Note_on_c, 4, 61, 0
5, 252320, Note_on_c, 0, 70, 0
5, 252480, Note_on_c, 4, 60, 100
5, 252480, Note_on_c, 4, 61, 100
5, 252480, Note_on_c, 0, 69, 100
5, 252720, Note_on_c, 4, 60, 0
5, 252720, Note_on_c, 4, 61, 0
5, 253280, Note_on_c, 0, 69, 0
5, 253440, Note_on_c, 4, 60, 100
5, 253440, Note_on_c, 4, 61, 100
5, 253440, Note_on_c, 0, 68, 100
5, 253560, Note_on_c, 0, 68, 0
5, 253680, Note_on_c, 4, 60, 0
5, 253680, Note_on_c, 4, 61, 0
5, 254080, Note_on_c, 4, 61, 100
5, 254320, Note_on_c, 4, 61, 0
5, 254400, Note_on_c, 4, 61, 100
5, 254400, Note_on_c, 0, 68, 100
5, 254520, Note_on_c, 0, 68, 0
5, 254640, Note_on_c, 4, 61, 0
5, 255040, Note_on_c, 4, 61, 100
5, 255280, Note_on_c, 4, 61, 0
5, 255360, Note_on_c, 4, 60, 100
5, 255360, Note_on_c, 4, 61, 100
5, 255360, Note_on_c, 0, 68, 100
5, 255480, Note_on_c, 0, 68, 0
5, 255600, Note_on_c, 4, 60, 0
5, 255600, Note_on_c, 4, 61, 0
5, 256000, Note_on_c, 4, 61, 100
5, 256240, Note_on_c, 4, 61, 0
5, 256320, Note_on_c, 4, 61, 100
5, 256320, Note_on_c, 0, 68, 100
5, 256440, Note_on_c, 0, 68, 0
5, 256560, Note_on_c, 4, 61, 0
5, 256960, Note_on_c, 4, 61, 100
5, 257200, Note_on_c, 4, 61, 0
5, 257280, Note_on_c, 4, 60, 100
5, 257280, Note_on_c, 4, 61, 100
5, 257280, Note_on_c, 0, 68, 100
5, 257400, Note_on_c, 0, 68, 0
5, 257520, Note_on_c, 4, 60, 0
5, 257520, Note_on_c, 4, 61, 0
5, 257920, Note_on_c, 4, 61, 100
5, 258160, Note_on_c, 4, 61, 0
5, 258240, Note_on_c, 4, 61, 100
5, 258240, Note_on_c, 0, 68, 100
5, 258360, Note_on_c, 0, 68, 0
5, 258480, Note_on_c, 4, 61, 0
5, 258880, Note_on_c, 4, 61, 100
5, 259120, Note_on_c, 4, 61, 0
5, 259200, Note_on_c, 4, 60, 100
5, 259200, Note_on_c, 4, 61, 100
5, 259200, Note_on_c, 0, 68, 100
5, 259320, Note_on_c, 0, 68, 0
5, 259440, Note_on_c, 4, 60, 0
5, 259440, Note_on_c, 4, 61, 0
5, 259840, Note_on_c, 4, 61, 100
5, 260080, Note_on_c, 4, 61, 0
5, 260160, Note_on_c, 4, 61, 100
5, 260160, Note_on_c, 0, 68, 100
5, 260280, Note_on_c, 0, 68, 0
5, 260400, Note_on_c, 4, 61, 0
5, 261120, Note_on_c, 4, 60, 100
5, 261120, Note_on_c, 4, 61, 100
5, 261120, Note_on_c, 0, 68, 100
5, 261360, Note_on_c, 4, 60, 0
5, 261360, Note_on_c, 4, 61, 0
5, 261360, Note_on_c, 0, 68, 0
5, 262080, Note_on_c, 4, 61, 100
5, 262080, Note_on_c, 0, 70, 100
5, 262320, Note_on_c, 4, 61, 0
5, 262320, Note_on_c, 0, 70, 0
5, 263040, Note_on_c, 4, 60, 100
5, 263040, Note_on_c, 4, 61, 100
5, 263040, Note_on_c, 0, 70, 100
5, 263280, Note_on_c, 4, 60, 0
5, 263280, Note_on_c, 4, 61, 0
5, 263280, Note_on_c, 0, 70, 0
5, 264000, Note_on_c, 4, 61, 100
5, 264000, Note_on_c, 0, 68, 100
5, 264240, Note_on_c, 4, 61, 0
5, 264240, Note_on_c, 0, 68, 0
5, 264960, Note_on_c, 4, 60, 100
5, 264960, Note_on_c, 4, 61, 100
5, 264960, Note_on_c, 0, 70, 100
5, 265200, Note_on_c, 4, 60, 0
5, 265200, Note_on_c, 4, 61, 0
5, 265200, Note_on_c, 0, 70, 0
5, 265920, Note_on_c, 4, 61, 100
5, 265920, Note_on_c, 0, 70, 100
5, 266160, Note_on_c, 4, 61, 0
5, 266160, Note_on_c, 0, 70, 0
5, 266880, Note_on_c, 4, 60, 100
5, 266880, Note_on_c, 4, 61, 100
5, 266880, Note_on_c, 0, 68, 100
5, 267120, Note_on_c, 4, 60, 0
5, 267120, Note_on_c, 4, 61, 0
5, 267120, Note_on_c, 0, 68, 0
5, 267840, Note_on_c, 4, 61, 100
5, 267840, Note_on_c, 0, 69, 100
5, 268080, Note_on_c, 4, 61, 0
5, 268800, Note_on_c, 0, 69, 0
5, 268800, Note_on_c, 4, 60, 100
5, 268800, Note_on_c, 4, 61, 100
5, 268800, Note_on_c, 0, 68, 100
5, 269040, Note_on_c, 4, 60, 0
5, 269040, Note_on_c, 4, 61, 0
5, 269040, Note_on_c, 0, 68, 0
5, 269760, Note_on_c, 4, 61, 100
5, 269760, Note_on_c, 0, 70, 100
5, 270000, Note_on_c, 4, 61, 0
5, 270000, Note_on_c, 0, 70, 0
5, 270720, Note_on_c, 4, 60, 100
5, 270720, Note_on_c, 4, 61, 100
5, 270720, Note_on_c, 0, 70, 100
5, 270960, Note_on_c, 4, 60, 0
5, 270960, Note_on_c, 4, 61, 0
5, 270960, Note_on_c, 0, 70, 0
5, 271680, Note_on_c, 4, 61, 100
5, 271680, Note_on_c, 0, 68, 100
5, 271920, Note_on_c, 4, 61, 0
5, 271920, Note_on_c, 0, 68, 0
5, 272320, Note_on_c, 4, 61, 100
5, 272560, Note_on_c, 4, 61, 0
5, 272640, Note_on_c, 4, 60, 100
5, 272640, Note_on_c, 4, 61, 100
5, 272640, Note_on_c, 0, 69, 100
5, 272880, Note_on_c, 4, 60, 0
5, 272880, Note_on_c, 4, 61, 0
5, 272880, Note_on_c, 0, 69, 0
5, 273600, Note_on_c, 4, 61, 100
5, 273600, Note_on_c, 0, 69, 100
5, 273840, Note_on_c, 4, 61, 0
5, 274560, Note_on_c, 4, 60, 100
5, 274560, Note_on_c, 4, 61, 100
5, 274800, Note_on_c, 4, 60, 0
5, 274800, Note_on_c, 4, 61, 0
5, 275520, Note_on_c, 4, 61, 100
5, 275760, Note_on_c, 4, 61, 0
5, 276480, Note_on_c, 0, 69, 0
5, 276480, Note_on_c, 4, 60, 100
5, 276480, Note_on_c, 4, 61, 100
5, 276480, Note_on_c, 0, 68, 100
5, 276720, Note_on_c, 4, 60, 0
5, 276720, Note_on_c, 4, 61, 0
5, 276720, Note_on_c, 0, 68, 0
5, 277440, Note_on_c, 4, 61, 100
5, 277440, Note_on_c, 0, 70, 100
5, 277680, Note_on_c, 4, 61, 0
5, 277680, Note_on_c, 0, 70, 0
5, 278400, Note_on_c, 4, 60, 100
5, 278400, Note_on_c, 4, 61, 100
5, 278400, Note_on_c, 0, 68, 100
5, 278640, Note_on_c, 4, 60, 0
5, 278640, Note_on_c, 4, 61, 0
5, 278640, Note_on_c, 0, 68, 0
5, 279360, Note_on_c, 4, 61, 100
5, 279360, Note_on_c, 0, 70, 100
5, 279600, Note_on_c, 4, 61, 0
5, 279600, Note_on_c, 0, 70, 0
5, 280320, Note_on_c, 4, 60, 100
5, 280320, Note_on_c, 4, 61, 100
5, 280320, Note_on_c, 0, 68, 100
5, 280560, Note_on_c, 4, 60, 0
5, 280560, Note_on_c, 4, 61, 0
5, 280560, Note_on_c, 0, 68, 0
5, 281280, Note_on_c, 4, 61, 100
5, 281280, Note_on_c, 0, 70, 100
5, 281520, Note_on_c, 4, 61, 0
5, 281520, Note_on_c, 0, 70, 0
5, 282240, Note_on_c, 4, 60, 100
5, 282240, Note_on_c, 4, 61, 100
5, 282240, Note_on_c, 0, 68, 100
5, 282480, Note_on_c, 4, 60, 0
5, 282480, Note_on_c, 4, 61, 0
5, 282480, Note_on_c, 0, 68, 0
5, 283200, Note_on_c, 4, 61, 100
5, 283200, Note_on_c, 0, 70, 100
5, 283440, Note_on_c, 4, 61, 0
5, 283440, Note_on_c, 0, 70, 0
5, 283840, Note_on_c, 4, 61, 100
5, 283840, Note_on_c, 0, 69, 100
5, 284080, Note_on_c, 4, 61, 0
5, 284080, Note_on_c, 0, 69, 0
5, 284160, Note_on_c, 4, 60, 100
5, 284160, Note_on_c, 4, 61, 100
5, 284160, Note_on_c, 0, 70, 100
5, 284400, Note_on_c, 4, 60, 0
5, 284400, Note_on_c, 4, 61, 0
5, 284400, Note_on_c, 0, 70, 0
5, 285120, Note_on_c, 4, 61, 100
5, 285120, Note_on_c, 0, 70, 100
5, 285360, Note_on_c, 4, 61, 0
5, 285360, Note_on_c, 0, 70, 0
5, 286080, Note_on_c, 4, 60, 100
5, 286080, Note_on_c, 4, 61, 100
5, 286080, Note_on_c, 0, 68, 100
5, 286320, Note_on_c, 4, 60, 0
5, 286320, Note_on_c, 4, 61, 0
5, 286320, Note_on_c, 0, 68, 0
5, 287040, Note_on_c, 4, 61, 100
5, 287040, Note_on_c, 0, 70, 100
5, 287280, Note_on_c, 4, 61, 0
5, 287280, Note_on_c, 0, 70, 0
5, 288000, Note_on_c, 4, 60, 100
5, 288000, Note_on_c, 4, 61, 100
5, 288000, Note_on_c, 0, 68, 100
5, 288240, Note_on_c, 4, 60, 0
5, 288240, Note_on_c, 4, 61, 0
5, 288240, Note_on_c, 0, 68, 0
5, 288960, Note_on_c, 4, 61, 100
5, 288960, Note_on_c, 0, 70, 100
5, 289200, Note_on_c, 4, 61, 0
5, 289200, Note_on_c, 0, 70, 0
5, 289920, Note_on_c, 4, 60, 100
5, 289920, Note_on_c, 4, 61, 100
5, 289920, Note_on_c, 0, 68, 100
5, 290160, Note_on_c, 4, 60, 0
5, 290160, Note_on_c, 4, 61, 0
5, 290160, Note_on_c, 0, 68, 0
5, 290560, Note_on_c, 4, 61, 100
5, 290800, Note_on_c, 4, 61, 0
5, 290880, Note_on_c, 4, 61, 100
5, 290880, Note_on_c, 0, 70, 100
5, 291120, Note_on_c, 4, 61, 0
5, 291120, Note_on_c, 0, 70, 0
5, 291200, Note_on_c, 4, 61, 100
5, 291440, Note_on_c, 4, 61, 0
5, 291520, Note_on_c, 4, 61, 100
5, 291520, Note_on_c, 0, 70, 100
5, 291760, Note_on_c, 4, 61, 0
5, 291760, Note_on_c, 0, 70, 0
5, 291840, Note_on_c, 4, 60, 100
5, 291840, Note_on_c, 4, 61, 100
5, 291840, Note_on_c, 0, 70, 100
5, 292080, Note_on_c, 4, 60, 0
5, 292080, Note_on_c, 4, 61, 0
5, 292080, Note_on_c, 0, 70, 0
5, 292800, Note_on_c, 4, 61, 100
5, 292800, Note_on_c, 0, 70, 100
5, 293040, Note_on_c, 4, 61, 0
5, 293040, Note_on_c, 0, 70, 0
5, 293760, Note_on_c, 4, 60, 100
5, 293760, Note_on_c, 4, 61, 100
5, 293760, Note_on_c, 0, 68, 100
5, 294000, Note_on_c, 4, 60, 0
5, 294000, Note_on_c, 4, 61, 0
5, 294000, Note_on_c, 0, 68, 0
5, 294720, Note_on_c, 4, 61, 100
5, 294720, Note_on_c, 0, 70, 100
5, 294960, Note_on_c, 4, 61, 0
5, 294960, Note_on_c, 0, 70, 0
5, 295680, Note_on_c, 4, 60, 100
5, 295680, Note_on_c, 4, 61, 100
5, 295680, Note_on_c, 0, 68, 100
5, 295920, Note_on_c, 4, 60, 0
5, 295920, Note_on_c, 4, 61, 0
5, 295920, Note_on_c, 0, 68, 0
5, 296640, Note_on_c, 4, 61, 100
5, 296640, Note_on_c, 0, 70, 100
5, 296880, Note_on_c, 4, 61, 0
5, 296880, Note_on_c, 0, 70, 0
5, 297600, Note_on_c, 4, 60, 100
5, 297600, Note_on_c, 4, 61, 100
5, 297600, Note_on_c, 0, 68, 100
5, 297840, Note_on_c, 4, 60, 0
5, 297840, Note_on_c, 4, 61, 0
5, 297840, Note_on_c, 0, 68, 0
5, 298560, Note_on_c, 4, 61, 100
5, 298560, Note_on_c, 0, 70, 100
5, 298800, Note_on_c, 4, 61, 0
5, 298800, Note_on_c, 0, 70, 0
5, 298880, Note_on_c, 4, 61, 100
5, 299120, Note_on_c, 4, 61, 0
5, 299200, Note_on_c, 4, 61, 100
5, 299200, Note_on_c, 0, 69, 100
5, 299440, Note_on_c, 4, 61, 0
5, 299440, Note_on_c, 0, 69, 0
5, 299520, Note_on_c, 4, 60, 100
5, 299520, Note_on_c, 4, 61, 100
5, 299520, Note_on_c, 0, 70, 100
5, 299760, Note_on_c, 4, 60, 0
5, 299760, Note_on_c, 4, 61, 0
5, 299760, Note_on_c, 0, 70, 0
5, 300480, Note_on_c, 4, 61, 100
5, 300480, Note_on_c, 0, 70, 100
5, 300720, Note_on_c, 4, 61, 0
5, 300720, Note_on_c, 0, 70, 0
5, 301440, Note_on_c, 4, 60, 100
5, 301440, Note_on_c, 4, 61, 100
5, 301440, Note_on_c, 0, 68, 100
5, 301680, Note_on_c, 4, 60, 0
5, 301680, Note_on_c, 4, 61, 0
5, 301680, Note_on_c, 0, 68, 0
5, 302400, Note_on_c, 4, 61, 100
5, 302400, Note_on_c, 0, 70, 100
5, 302640, Note_on_c, 4, 61, 0
5, 302640, Note_on_c, 0, 70, 0
5, 303040, Note_on_c, 4, 61, 100
5, 303040, Note_on_c, 0, 70, 100
5, 303280, Note_on_c, 4, 61, 0
5, 303280, Note_on_c, 0, 70, 0
5, 303360, Note_on_c, 4, 60, 100
5, 303360, Note_on_c, 4, 61, 100
5, 303360, Note_on_c, 0, 70, 100
5, 303600, Note_on_c, 4, 60, 0
5, 303600, Note_on_c, 4, 61, 0
5, 303600, Note_on_c, 0, 70, 0
5, 304320, Note_on_c, 4, 61, 100
5, 304320, Note_on_c, 0, 70, 100
5, 304560, Note_on_c, 4, 61, 0
5, 304560, Note_on_c, 0, 70, 0
5, 304960, Note_on_c, 0, 70, 100
5, 305200, Note_on_c, 0, 70, 0
5, 305280, Note_on_c, 4, 60, 100
5, 305280, Note_on_c, 4, 61, 100
5, 305280, Note_on_c, 0, 70, 100
5, 305520, Note_on_c, 4, 60, 0
5, 305520, Note_on_c, 4, 61, 0
5, 305520, Note_on_c, 0, 70, 0
5, 306240, Note_on_c, 4, 61, 100
5, 306240, Note_on_c, 0, 70, 100
5, 306480, Note_on_c, 4, 61, 0
5, 306480, Note_on_c, 0, 70, 0
5, 306880, Note_on_c, 0, 70, 100
5, 307120, Note_on_c, 0, 70, 0
5, 307200, Note_on_c, 4, 60, 100
5, 307200, Note_on_c, 4, 61, 100
5, 307200, Note_on_c, 0, 68, 100
5, 307440, Note_on_c, 4, 60, 0
5, 307440, Note_on_c, 4, 61, 0
5, 307440, Note_on_c, 0, 68, 0
5, 308160, Note_on_c, 4, 61, 100
5, 308160, Note_on_c, 0, 68, 100
5, 308400, Note_on_c, 4, 61, 0
5, 308400, Note_on_c, 0, 68, 0
5, 309120, Note_on_c, 4, 60, 100
5, 309120, Note_on_c, 4, 61, 100
5, 309120, Note_on_c, 0, 68, 100
5, 309360, Note_on_c, 4, 60, 0
5, 309360, Note_on_c, 4, 61, 0
5, 309360, Note_on_c, 0, 68, 0
5, 310080, Note_on_c, 4, 61, 100
5, 310080, Note_on_c, 0, 68, 100
5, 310320, Note_on_c, 4, 61, 0
5, 310320, Note_on_c, 0, 68, 0
5, 311040, Note_on_c, 4, 60, 100
5, 311040, Note_on_c, 4, 61, 100
5, 311040, Note_on_c, 0, 68, 100
5, 311280, Note_on_c, 4, 60, 0
5, 311280, Note_on_c, 4, 61, 0
5, 311280, Note_on_c, 0, 68, 0
5, 312000, Note_on_c, 4, 61, 100
5, 312000, Note_on_c, 0, 68, 100
5, 312240, Note_on_c, 4, 61, 0
5, 312240, Note_on_c, 0, 68, 0
5, 312960, Note_on_c, 4, 60, 100
5, 312960, Note_on_c, 4, 61, 100
5, 312960, Note_on_c, 0, 68, 100
5, 313200, Note_on_c, 4, 60, 0
5, 313200, Note_on_c, 4, 61, 0
5, 313200, Note_on_c, 0, 68, 0
5, 313920, Note_on_c, 4, 61, 100
5, 313920, Note_on_c, 0, 68, 100
5, 314160, Note_on_c, 4, 61, 0
5, 314160, Note_on_c, 0, 68, 0
5, 314560, Note_on_c, 4, 61, 100
5, 314560, Note_on_c, 0, 68, 100
5, 314800, Note_on_c, 4, 61, 0
5, 314800, Note_on_c, 0, 68, 0
5, 314880, Note_on_c, 4, 60, 100
5, 314880, Note_on_c, 4, 61, 100
5, 314880, Note_on_c, 0, 69, 100
5, 315120, Note_on_c, 4, 60, 0
5, 315120, Note_on_c, 4, 61, 0
5, 315120, Note_on_c, 0, 69, 0
5, 315840, Note_on_c, 4, 61, 100
5, 315840, Note_on_c, 0, 69, 100
5, 316080, Note_on_c, 4, 61, 0
5, 316080, Note_on_c, 0, 69, 0
5, 316800, Note_on_c, 4, 60, 100
5, 316800, Note_on_c, 4, 61, 100
5, 316800, Note_on_c, 0, 69, 100
5, 317040, Note_on_c, 4, 60, 0
5, 317040, Note_on_c, 4, 61, 0
5, 317040, Note_on_c, 0, 69, 0
5, 317760, Note_on_c, 4, 61, 100
5, 317760, Note_on_c, 0, 69, 100
5, 318000, Note_on_c, 4, 61, 0
5, 318000, Note_on_c, 0, 69, 0
5, 318720, Note_on_c, 4, 60, 100
5, 318720, Note_on_c, 4, 61, 100
5, 318720, Note_on_c, 0, 69, 100
5, 318960, Note_on_c, 4, 60, 0
5, 318960, Note_on_c, 4, 61, 0
5, 318960, Note_on_c, 0, 69, 0
5, 319680, Note_on_c, 4, 61, 100
5, 319680, Note_on_c, 0, 69, 100
5, 319920, Note_on_c, 4, 61, 0
5, 319920, Note_on_c, 0, 69, 0
5, 320640, Note_on_c, 4, 60, 100
5, 320640, Note_on_c, 4, 61, 100
5, 320640, Note_on_c, 0, 69, 100
5, 320880, Note_on_c, 4, 60, 0
5, 320880, Note_on_c, 4, 61, 0
5, 320880, Note_on_c, 0, 69, 0
5, 321600, Note_on_c, 4, 61, 100
5, 321600, Note_on_c, 0, 69, 100
5, 321840, Note_on_c, 4, 61, 0
5, 321840, Note_on_c, 0, 69, 0
5, 322240, Note_on_c, 0, 69, 100
5, 322480, Note_on_c, 0, 69, 0
5, 322560, Note_on_c, 4, 60, 100
5, 322560, Note_on_c, 4, 61, 100
5, 322560, Note_on_c, 0, 68, 100
5, 322800, Note_on_c, 4, 60, 0
5, 322800, Note_on_c, 4, 61, 0
5, 322800, Note_on_c, 0, 68, 0
5, 323520, Note_on_c, 4, 61, 100
5, 323520, Note_on_c, 0, 70, 100
5, 323760, Note_on_c, 4, 61, 0
5, 323760, Note_on_c, 0, 70, 0
5, 324480, Note_on_c, 4, 60, 100
5, 324480, Note_on_c, 4, 61, 100
5, 324480, Note_on_c, 0, 70, 100
5, 324720, Note_on_c, 4, 60, 0
5, 324720, Note_on_c, 4, 61, 0
5, 324720, Note_on_c, 0, 70, 0
5, 325440, Note_on_c, 4, 61, 100
5, 325440, Note_on_c, 0, 68, 100
5, 325680, Note_on_c, 4, 61, 0
5, 325680, Note_on_c, 0, 68, 0
5, 326400, Note_on_c, 4, 60, 100
5, 326400, Note_on_c, 4, 61, 100
5, 326400, Note_on_c, 0, 70, 100
5, 326640, Note_on_c, 4, 60, 0
5, 326640, Note_on_c, 4, 61, 0
5, 326640, Note_on_c, 0, 70, 0
5, 327360, Note_on_c, 4, 61, 100
5, 327360, Note_on_c, 0, 70, 100
5, 327600, Note_on_c, 4, 61, 0
5, 327600, Note_on_c, 0, 70, 0
5, 328320, Note_on_c, 4, 60, 100
5, 328320, Note_on_c, 4, 61, 100
5, 328320, Note_on_c, 0, 68, 100
5, 328560, Note_on_c, 4, 60, 0
5, 328560, Note_on_c, 4, 61, 0
5, 329120, Note_on_c, 0, 68, 0
5, 329280, Note_on_c, 4, 61, 100
5, 329280, Note_on_c, 0, 69, 100
5, 329520, Note_on_c, 4, 61, 0
5, 330080, Note_on_c, 0, 69, 0
5, 330240, Note_on_c, 4, 60, 100
5, 330240, Note_on_c, 4, 61, 100
5, 330240, Note_on_c, 0, 68, 100
5, 330480, Note_on_c, 4, 60, 0
5, 330480, Note_on_c, 4, 61, 0
5, 330480, Note_on_c, 0, 68, 0
5, 331200, Note_on_c, 4, 61, 100
5, 331200, Note_on_c, 0, 70, 100
5, 331440, Note_on_c, 4, 61, 0
5, 331440, Note_on_c, 0, 70, 0
5, 332160, Note_on_c, 4, 60, 100
5, 332160, Note_on_c, 4, 61, 100
5, 332160, Note_on_c, 0, 70, 100
5, 332400, Note_on_c, 4, 60, 0
5, 332400, Note_on_c, 4, 61, 0
5, 332400, Note_on_c, 0, 70, 0
5, 333120, Note_on_c, 4, 61, 100
5, 333120, Note_on_c, 0, 68, 100
5, 333360, Note_on_c, 4, 61, 0
5, 333360, Note_on_c, 0, 68, 0
5, 333760, Note_on_c, 4, 61, 100
5, 334000, Note_on_c, 4, 61, 0
5, 334080, Note_on_c, 4, 60, 100
5, 334080, Note_on_c, 4, 61, 100
5, 334080, Note_on_c, 0, 69, 100
5, 334320, Note_on_c, 4, 60, 0
5, 334320, Note_on_c, 4, 61, 0
5, 334320, Note_on_c, 0, 69, 0
5, 335040, Note_on_c, 4, 61, 100
5, 335040, Note_on_c, 0, 70, 100
5, 335280, Note_on_c, 4, 61, 0
5, 336000, Note_on_c, 4, 60, 100
5, 336000, Note_on_c, 4, 61, 100
5, 336240, Note_on_c, 4, 60, 0
5, 336240, Note_on_c, 4, 61, 0
5, 336960, Note_on_c, 4, 61, 100
5, 337200, Note_on_c, 4, 61, 0
5, 337920, Note_on_c, 0, 70, 0
5, 337920, Note_on_c, 4, 60, 100
5, 337920, Note_on_c, 4, 61, 100
5, 337920, Note_on_c, 0, 68, 100
5, 338160, Note_on_c, 4, 60, 0
5, 338160, Note_on_c, 4, 61, 0
5, 338160, Note_on_c, 0, 68, 0
5, 338880, Note_on_c, 4, 61, 100
5, 338880, Note_on_c, 0, 70, 100
5, 339120, Note_on_c, 4, 61, 0
5, 339120, Note_on_c, 0, 70, 0
5, 339840, Note_on_c, 4, 60, 100
5, 339840, Note_on_c, 4, 61, 100
5, 339840, Note_on_c, 0, 68, 100
5, 340080, Note_on_c, 4, 60, 0
5, 340080, Note_on_c, 4, 61, 0
5, 340080, Note_on_c, 0, 68, 0
5, 340800, Note_on_c, 4, 61, 100
5, 340800, Note_on_c, 0, 70, 100
5, 341040, Note_on_c, 4, 61, 0
5, 341040, Note_on_c, 0, 70, 0
5, 341760, Note_on_c, 4, 60, 100
5, 341760, Note_on_c, 4, 61, 100
5, 341760, Note_on_c, 0, 68, 100
5, 342000, Note_on_c, 4, 60, 0
5, 342000, Note_on_c, 4, 61, 0
5, 342000, Note_on_c, 0, 68, 0
5, 342720, Note_on_c, 4, 61, 100
5, 342720, Note_on_c, 0, 70, 100
5, 342960, Note_on_c, 4, 61, 0
5, 342960, Note_on_c, 0, 70, 0
5, 343680, Note_on_c, 4, 60, 100
5, 343680, Note_on_c, 4, 61, 100
5, 343680, Note_on_c, 0, 68, 100
5, 343920, Note_on_c, 4, 60, 0
5, 343920, Note_on_c, 4, 61, 0
5, 343920, Note_on_c, 0, 68, 0
5, 344320, Note_on_c, 4, 61, 100
5, 344560, Note_on_c, 4, 61, 0
5, 344640, Note_on_c, 4, 61, 100
5, 344640, Note_on_c, 0, 70, 100
5, 344880, Note_on_c, 4, 61, 0
5, 344880, Note_on_c, 0, 70, 0
5, 344960, Note_on_c, 4, 61, 100
5, 345200, Note_on_c, 4, 61, 0
5, 345280, Note_on_c, 4, 61, 100
5, 345280, Note_on_c, 0, 69, 100
5, 345520, Note_on_c, 4, 61, 0
5, 345520, Note_on_c, 0, 69, 0
5, 345600, Note_on_c, 4, 60, 100
5, 345600, Note_on_c, 4, 61, 100
5, 345600, Note_on_c, 0, 70, 100
5, 345840, Note_on_c, 4, 60, 0
5, 345840, Note_on_c, 4, 61, 0
5, 345840, Note_on_c, 0, 70, 0
5, 346560, Note_on_c, 4, 61, 100
5, 346560, Note_on_c, 0, 70, 100
5, 346800, Note_on_c, 4, 61, 0
5, 346800, Note_on_c, 0, 70, 0
5, 347520, Note_on_c, 4, 60, 100
5, 347520, Note_on_c, 4, 61, 100
5, 347520, Note_on_c, 0, 68, 100
5, 347760, Note_on_c, 4, 60, 0
5, 347760, Note_on_c, 4, 61, 0
5, 347760, Note_on_c, 0, 68, 0
5, 348480, Note_on_c, 4, 61, 100
5, 348480, Note_on_c, 0, 70, 100
5, 348720, Note_on_c, 4, 61, 0
5, 348720, Note_on_c, 0, 70, 0
5, 349440, Note_on_c, 4, 60, 100
5, 349440, Note_on_c, 4, 61, 100
5, 349440, Note_on_c, 0, 68, 100
5, 349680, Note_on_c, 4, 60, 0
5, 349680, Note_on_c, 4, 61, 0
5, 349680, Note_on_c, 0, 68, 0
5, 350400, Note_on_c, 4, 61, 100
5, 350400, Note_on_c, 0, 70, 100
5, 350640, Note_on_c, 4, 61, 0
5, 350640, Note_on_c, 0, 70, 0
5, 351360, Note_on_c, 4, 60, 100
5, 351360, Note_on_c, 4, 61, 100
5, 351360, Note_on_c, 0, 68, 100
5, 351600, Note_on_c, 4, 60, 0
5, 351600, Note_on_c, 4, 61, 0
5, 351600, Note_on_c, 0, 68, 0
5, 352000, Note_on_c, 4, 61, 100
5, 352240, Note_on_c, 4, 61, 0
5, 352320, Note_on_c, 4, 61, 100
5, 352320, Note_on_c, 0, 70, 100
5, 352560, Note_on_c, 4, 61, 0
5, 352560, Note_on_c, 0, 70, 0
5, 352640, Note_on_c, 4, 61, 100
5, 352880, Note_on_c, 4, 61, 0
5, 352960, Note_on_c, 4, 61, 100
5, 352960, Note_on_c, 0, 70, 100
5, 353200, Note_on_c, 4, 61, 0
5, 353200, Note_on_c, 0, 70, 0
5, 353280, Note_on_c, 4, 60, 100
5, 353280, Note_on_c, 4, 61, 100
5, 353280, Note_on_c, 0, 70, 100
5, 353520, Note_on_c, 4, 60, 0
5, 353520, Note_on_c, 4, 61, 0
5, 353520, Note_on_c, 0, 70, 0
5, 354240, Note_on_c, 4, 61, 100
5, 354240, Note_on_c, 0, 70, 100
5, 354480, Note_on_c, 4, 61, 0
5, 354480, Note_on_c, 0, 70, 0
5, 355200, Note_on_c, 4, 60, 100
5, 355200, Note_on_c, 4, 61, 100
5, 355200, Note_on_c, 0, 68, 100
5, 355440, Note_on_c, 4, 60, 0
5, 355440, Note_on_c, 4, 61, 0
5, 355440, Note_on_c, 0, 68, 0
5, 356160, Note_on_c, 4, 61, 100
5, 356160, Note_on_c, 0, 70, 100
5, 356400, Note_on_c, 4, 61, 0
5, 356400, Note_on_c, 0, 70, 0
5, 357120, Note_on_c, 4, 60, 100
5, 357120, Note_on_c, 4, 61, 100
5, 357120, Note_on_c, 0, 68, 100
5, 357360, Note_on_c, 4, 60, 0
5, 357360, Note_on_c, 4, 61, 0
5, 357360, Note_on_c, 0, 68, 0
5, 358080, Note_on_c, 4, 61, 100
5, 358080, Note_on_c, 0, 70, 100
5, 358320, Note_on_c, 4, 61, 0
5, 358320, Note_on_c, 0, 70, 0
5, 359040, Note_on_c, 4, 60, 100
5, 359040, Note_on_c, 4, 61, 100
5, 359040, Note_on_c, 0, 68, 100
5, 359280, Note_on_c, 4, 60, 0
5, 359280, Note_on_c, 4, 61, 0
5, 359280, Note_on_c, 0, 68, 0
5, 360000, Note_on_c, 4, 61, 100
5, 360000, Note_on_c, 0, 70, 100
5, 360240, Note_on_c, 4, 61, 0
5, 360240, Note_on_c, 0, 70, 0
5, 360320, Note_on_c, 4, 61, 100
5, 360560, Note_on_c, 4, 61, 0
5, 360640, Note_on_c, 4, 61, 100
5, 360640, Note_on_c, 0, 69, 100
5, 360880, Note_on_c, 4, 61, 0
5, 360880, Note_on_c, 0, 69, 0
5, 360960, Note_on_c, 4, 60, 100
5, 360960, Note_on_c, 4, 61, 100
5, 360960, Note_on_c, 0, 70, 100
5, 361200, Note_on_c, 4, 60, 0
5, 361200, Note_on_c, 4, 61, 0
5, 361200, Note_on_c, 0, 70, 0
5, 361920, Note_on_c, 4, 61, 100
5, 361920, Note_on_c, 0, 70, 100
5, 362160, Note_on_c, 4, 61, 0
5, 362160, Note_on_c, 0, 70, 0
5, 362880, Note_on_c, 4, 60, 100
5, 362880, Note_on_c, 4, 61, 100
5, 362880, Note_on_c, 0, 68, 100
5, 363120, Note_on_c, 4, 60, 0
5, 363120, Note_on_c, 4, 61, 0
5, 363120, Note_on_c, 0, 68, 0
5, 363840, Note_on_c, 4, 61, 100
5, 363840, Note_on_c, 0, 70, 100
5, 364080, Note_on_c, 4, 61, 0
5, 364080, Note_on_c, 0, 70, 0
5, 364800, Note_on_c, 4, 60, 100
5, 364800, Note_on_c, 4, 61, 100
5, 364800, Note_on_c, 0, 68, 100
5, 365040, Note_on_c, 4, 60, 0
5, 365040, Note_on_c, 4, 61, 0
5, 365040, Note_on_c, 0, 68, 0
5, 365760, Note_on_c, 4, 61, 100
5, 365760, Note_on_c, 0, 70, 100
5, 366000, Note_on_c, 4, 61, 0
5, 366000, Note_on_c, 0, 70, 0
5, 366720, Note_on_c, 4, 60, 100
5, 366720, Note_on_c, 4, 61, 100
5, 366720, Note_on_c, 0, 68, 100
5, 366960, Note_on_c, 4, 60, 0
5, 366960, Note_on_c, 4, 61, 0
5, 366960, Note_on_c, 0, 68, 0
5, 367680, Note_on_c, 4, 61, 100
5, 367680, Note_on_c, 0, 70, 100
5, 367920, Note_on_c, 4, 61, 0
5, 367920, Note_on_c, 0, 70, 0
5, 368640, Note_on_c, 4, 60, 100
5, 368640, Note_on_c, 4, 61, 100
5, 368640, Note_on_c, 0, 68, 100
5, 368880, Note_on_c, 4, 60, 0
5, 368880, Note_on_c, 4, 61, 0
5, 368880, Note_on_c, 0, 68, 0
5, 369600, Note_on_c, 4, 61, 100
5, 369600, Note_on_c, 0, 68, 100
5, 369840, Note_on_c, 4, 61, 0
5, 369840, Note_on_c, 0, 68, 0
5, 370560, Note_on_c, 4, 60, 100
5, 370560, Note_on_c, 4, 61, 100
5, 370560, Note_on_c, 0, 68, 100
5, 370800, Note_on_c, 4, 60, 0
5, 370800, Note_on_c, 4, 61, 0
5, 370800, Note_on_c, 0, 68, 0
5, 371520, Note_on_c, 4, 61, 100
5, 371520, Note_on_c, 0, 68, 100
5, 371760, Note_on_c, 4, 61, 0
5, 371760, Note_on_c, 0, 68, 0
5, 372480, Note_on_c, 4, 60, 100
5, 372480, Note_on_c, 4, 61, 100
5, 372480, Note_on_c, 0, 68, 100
5, 372720, Note_on_c, 4, 60, 0
5, 372720, Note_on_c, 4, 61, 0
5, 372720, Note_on_c, 0, 68, 0
5, 373440, Note_on_c, 4, 61, 100
5, 373440, Note_on_c, 0, 68, 100
5, 373680, Note_on_c, 4, 61, 0
5, 373680, Note_on_c, 0, 68, 0
5, 374400, Note_on_c, 4, 60, 100
5, 374400, Note_on_c, 4, 61, 100
5, 374400, Note_on_c, 0, 68, 100
5, 374640, Note_on_c, 4, 60, 0
5, 374640, Note_on_c, 4, 61, 0
5, 374640, Note_on_c, 0, 68, 0
5, 375360, Note_on_c, 4, 61, 100
5, 375360, Note_on_c, 0, 68, 100
5, 375600, Note_on_c, 4, 61, 0
5, 375600, Note_on_c, 0, 68, 0
5, 376000, Note_on_c, 0, 68, 100
5, 376240, Note_on_c, 0, 68, 0
5, 376320, Note_on_c, 4, 60, 100
5, 376320, Note_on_c, 4, 61, 100
5, 376320, Note_on_c, 0, 69, 100
5, 376560, Note_on_c, 4, 60, 0
5, 376560, Note_on_c, 4, 61, 0
5, 376560, Note_on_c, 0, 69, 0
5, 377280, Note_on_c, 4, 61, 100
5, 377280, Note_on_c, 0, 69, 100
5, 377520, Note_on_c, 4, 61, 0
5, 377520, Note_on_c, 0, 69, 0
5, 378240, Note_on_c, 4, 60, 100
5, 378240, Note_on_c, 4, 61, 100
5, 378240, Note_on_c, 0, 69, 100
5, 378480, Note_on_c, 4, 60, 0
5, 378480, Note_on_c, 4, 61, 0
5, 378480, Note_on_c, 0, 69, 0
5, 379200, Note_on_c, 4, 61, 100
5, 379200, Note_on_c, 0, 69, 100
5, 379440, Note_on_c, 4, 61, 0
5, 379440, Note_on_c, 0, 69, 0
5, 380160, Note_on_c, 4, 60, 100
5, 380160, Note_on_c, 4, 61, 100
5, 380160, Note_on_c, 0, 69, 100
5, 380400, Note_on_c, 4, 60, 0
5, 380400, Note_on_c, 4, 61, 0
5, 380400, Note_on_c, 0, 69, 0
5, 381120, Note_on_c, 4, 61, 100
5, 381120, Note_on_c, 0, 69, 100
5, 381360, Note_on_c, 4, 61, 0
5, 381360, Note_on_c, 0, 69, 0
5, 381760, Note_on_c, 0, 69, 100
5, 382000, Note_on_c, 0, 69, 0
5, 382080, Note_on_c, 4, 60, 100
5, 382080, Note_on_c, 4, 61, 100
5, 382080, Note_on_c, 0, 69, 100
5, 382320, Note_on_c, 4, 60, 0
5, 382320, Note_on_c, 4, 61, 0
5, 382320, Note_on_c, 0, 69, 0
5, 383040, Note_on_c, 4, 61, 100
5, 383040, Note_on_c, 0, 69, 100
5, 383280, Note_on_c, 4, 61, 0
5, 383280, Note_on_c, 0, 69, 0
5, 383680, Note_on_c, 0, 69, 100
5, 383920, Note_on_c, 0, 69, 0
5, 384000, Note_on_c, 4, 60, 100
5, 384000, Note_on_c, 4, 61, 100
5, 384000, Note_on_c, 0, 68, 100
5, 384240, Note_on_c, 4, 60, 0
5, 384240, Note_on_c, 4, 61, 0
5, 384240, Note_on_c, 0, 68, 0
5, 384960, Note_on_c, 4, 61, 100
5, 384960, Note_on_c, 0, 70, 100
5, 385200, Note_on_c, 4, 61, 0
5, 385200, Note_on_c, 0, 70, 0
5, 385920, Note_on_c, 4, 60, 100
5, 385920, Note_on_c, 4, 61, 100
5, 385920, Note_on_c, 0, 70, 100
5, 386160, Note_on_c, 4, 60, 0
5, 386160, Note_on_c, 4, 61, 0
5, 386160, Note_on_c, 0, 70, 0
5, 386880, Note_on_c, 4, 61, 100
5, 386880, Note_on_c, 0, 68, 100
5, 387120, Note_on_c, 4, 61, 0
5, 387120, Note_on_c, 0, 68, 0
5, 387840, Note_on_c, 4, 60, 100
5, 387840, Note_on_c, 4, 61, 100
5, 387840, Note_on_c, 0, 70, 100
5, 388080, Note_on_c, 4, 60, 0
5, 388080, Note_on_c, 4, 61, 0
5, 388080, Note_on_c, 0, 70, 0
5, 388800, Note_on_c, 4, 61, 100
5, 388800, Note_on_c, 0, 70, 100
5, 389040, Note_on_c, 4, 61, 0
5, 389040, Note_on_c, 0, 70, 0
5, 389760, Note_on_c, 4, 60, 100
5, 389760, Note_on_c, 4, 61, 100
5, 389760, Note_on_c, 0, 68, 100
5, 390000, Note_on_c, 4, 60, 0
5, 390000, Note_on_c, 4, 61, 0
5, 390000, Note_on_c, 0, 68, 0
5, 390720, Note_on_c, 4, 61, 100
5, 390720, Note_on_c, 0, 69, 100
5, 390960, Note_on_c, 4, 61, 0
5, 391680, Note_on_c, 0, 69, 0
5, 391680, Note_on_c, 4, 60, 100
5, 391680, Note_on_c, 4, 61, 100
5, 391680, Note_on_c, 0, 68, 100
5, 391920, Note_on_c, 4, 60, 0
5, 391920, Note_on_c, 4, 61, 0
5, 391920, Note_on_c, 0, 68, 0
5, 392640, Note_on_c, 4, 61, 100
5, 392640, Note_on_c, 0, 70, 100
5, 392880, Note_on_c, 4, 61, 0
5, 392880, Note_on_c, 0, 70, 0
5, 393600, Note_on_c, 4, 60, 100
5, 393600, Note_on_c, 4, 61, 100
5, 393600, Note_on_c, 0, 70, 100
5, 393840, Note_on_c, 4, 60, 0
5, 393840, Note_on_c, 4, 61, 0
5, 393840, Note_on_c, 0, 70, 0
5, 394560, Note_on_c, 4, 61, 100
5, 394560, Note_on_c, 0, 68, 100
5, 394800, Note_on_c, 4, 61, 0
5, 394800, Note_on_c, 0, 68, 0
5, 395520, Note_on_c, 4, 60, 100
5, 395520, Note_on_c, 4, 61, 100
5, 395520, Note_on_c, 0, 70, 100
5, 395760, Note_on_c, 4, 60, 0
5, 395760, Note_on_c, 4, 61, 0
5, 395760, Note_on_c, 0, 70, 0
5, 396480, Note_on_c, 4, 61, 100
5, 396480, Note_on_c, 0, 70, 100
5, 396720, Note_on_c, 4, 61, 0
5, 396720, Note_on_c, 0, 70, 0
5, 397440, Note_on_c, 4, 60, 100
5, 397440, Note_on_c, 4, 61, 100
5, 397440, Note_on_c, 0, 68, 100
5, 397680, Note_on_c, 4, 60, 0
5, 397680, Note_on_c, 4, 61, 0
5, 397680, Note_on_c, 0, 68, 0
5, 398400, Note_on_c, 4, 61, 100
5, 398400, Note_on_c, 0, 69, 100
5, 398640, Note_on_c, 4, 61, 0
5, 399360, Note_on_c, 0, 69, 0
5, 399360, Note_on_c, 4, 60, 100
5, 399360, Note_on_c, 4, 61, 100
5, 399360, Note_on_c, 0, 68, 100
5, 399600, Note_on_c, 4, 60, 0
5, 399600, Note_on_c, 4, 61, 0
5, 399600, Note_on_c, 0, 68, 0
5, 400320, Note_on_c, 4, 61, 100
5, 400320, Note_on_c, 0, 68, 100
5, 400560, Note_on_c, 4, 61, 0
5, 400560, Note_on_c, 0, 68, 0
5, 401280, Note_on_c, 4, 60, 100
5, 401280, Note_on_c, 4, 61, 100
5, 401280, Note_on_c, 0, 68, 100
5, 401520, Note_on_c, 4, 60, 0
5, 401520, Note_on_c, 4, 61, 0
5, 401520, Note_on_c, 0, 68, 0
5, 402240, Note_on_c, 4, 61, 100
5, 402240, Note_on_c, 0, 68, 100
5, 402480, Note_on_c, 4, 61, 0
5, 402480, Note_on_c, 0, 68, 0
5, 403200, Note_on_c, 4, 60, 100
5, 403200, Note_on_c, 4, 61, 100
5, 403200, Note_on_c, 0, 68, 100
5, 403440, Note_on_c, 4, 60, 0
5, 403440, Note_on_c, 4, 61, 0
5, 403440, Note_on_c, 0, 68, 0
5, 404160, Note_on_c, 4, 61, 100
5, 404160, Note_on_c, 0, 68, 100
5, 404400, Note_on_c, 4, 61, 0
5, 404400, Note_on_c, 0, 68, 0
5, 405120, Note_on_c, 4, 60, 100
5, 405120, Note_on_c, 4, 61, 100
5, 405120, Note_on_c, 0, 68, 100
5, 405360, Note_on_c, 4, 60, 0
5, 405360, Note_on_c, 4, 61, 0
5, 405360, Note_on_c, 0, 68, 0
5, 406080, Note_on_c, 4, 61, 100
5, 406080, Note_on_c, 0, 68, 100
5, 406320, Note_on_c, 4, 61, 0
5, 406320, Note_on_c, 0, 68, 0
5, 406720, Note_on_c, 4, 61, 100
5, 406720, Note_on_c, 0, 68, 100
5, 406960, Note_on_c, 4, 61, 0
5, 406960, Note_on_c, 0, 68, 0
5, 407040, Note_on_c, 4, 60, 100
5, 407040, Note_on_c, 4, 61, 100
5, 407040, Note_on_c, 0, 69, 100
5, 407280, Note_on_c, 4, 60, 0
5, 407280, Note_on_c, 4, 61, 0
5, 407280, Note_on_c, 0, 69, 0
5, 408000, Note_on_c, 4, 61, 100
5, 408000, Note_on_c, 0, 69, 100
5, 408240, Note_on_c, 4, 61, 0
5, 408240, Note_on_c, 0, 69, 0
5, 408960, Note_on_c, 4, 60, 100
5, 408960, Note_on_c, 4, 61, 100
5, 408960, Note_on_c, 0, 69, 100
5, 409200, Note_on_c, 4, 60, 0
5, 409200, Note_on_c, 4, 61, 0
5, 409200, Note_on_c, 0, 69, 0
5, 409920, Note_on_c, 4, 61, 100
5, 409920, Note_on_c, 0, 69, 100
5, 410160, Note_on_c, 4, 61, 0
5, 410160, Note_on_c, 0, 69, 0
5, 410560, Note_on_c, 0, 69, 100
5, 410800, Note_on_c, 0, 69, 0
5, 410880, Note_on_c, 4, 60, 100
5, 410880, Note_on_c, 4, 61, 100
5, 410880, Note_on_c, 0, 69, 100
5, 411120, Note_on_c, 4, 60, 0
5, 411120, Note_on_c, 4, 61, 0
5, 411120, Note_on_c, 0, 69, 0
5, 411840, Note_on_c, 4, 61, 100
5, 411840, Note_on_c, 0, 69, 100
5, 412080, Note_on_c, 4, 61, 0
5, 412080, Note_on_c, 0, 69, 0
5, 412480, Note_on_c, 0, 69, 100
5, 412720, Note_on_c, 0, 69, 0
5, 412800, Note_on_c, 4, 60, 100
5, 412800, Note_on_c, 4, 61, 100
5, 412800, Note_on_c, 0, 69, 100
5, 413040, Note_on_c, 4, 60, 0
5, 413040, Note_on_c, 4, 61, 0
5, 413040, Note_on_c, 0, 69, 0
5, 413760, Note_on_c, 4, 61, 100
5, 413760, Note_on_c, 0, 69, 100
5, 414000, Note_on_c, 4, 61, 0
5, 414000, Note_on_c, 0, 69, 0
5, 414400, Note_on_c, 0, 69, 100
5, 414640, Note_on_c, 0, 69, 0
5, 414720, Note_on_c, 4, 60, 100
5, 414720, Note_on_c, 4, 61, 100
5, 414720, Note_on_c, 0, 68, 100
5, 414960, Note_on_c, 4, 60, 0
5, 414960, Note_on_c, 4, 61, 0
5, 414960, Note_on_c, 0, 68, 0
5, 415680, Note_on_c, 4, 61, 100
5, 415680, Note_on_c, 0, 70, 100
5, 415920, Note_on_c, 4, 61, 0
5, 415920, Note_on_c, 0, 70, 0
5, 416640, Note_on_c, 4, 60, 100
5, 416640, Note_on_c, 4, 61, 100
5, 416640, Note_on_c, 0, 70, 100
5, 416880, Note_on_c, 4, 60, 0
5, 416880, Note_on_c, 4, 61, 0
5, 416880, Note_on_c, 0, 70, 0
5, 417600, Note_on_c, 4, 61, 100
5, 417600, Note_on_c, 0, 68, 100
5, 417840, Note_on_c, 4, 61, 0
5, 417840, Note_on_c, 0, 68, 0
5, 418560, Note_on_c, 4, 60, 100
5, 418560, Note_on_c, 4, 61, 100
5, 418560, Note_on_c, 0, 70, 100
5, 418800, Note_on_c, 4, 60, 0
5, 418800, Note_on_c, 4, 61, 0
5, 418800, Note_on_c, 0, 70, 0
5, 419520, Note_on_c, 4, 61, 100
5, 419520, Note_on_c, 0, 70, 100
5, 419760, Note_on_c, 4, 61, 0
5, 419760, Note_on_c, 0, 70, 0
5, 420160, Note_on_c, 0, 68, 100
5, 420400, Note_on_c, 0, 68, 0
5, 420480, Note_on_c, 4, 60, 100
5, 420480, Note_on_c, 4, 61, 100
5, 420480, Note_on_c, 0, 70, 100
5, 420720, Note_on_c, 4, 60, 0
5, 420720, Note_on_c, 4, 61, 0
5, 421280, Note_on_c, 0, 70, 0
5, 421440, Note_on_c, 4, 61, 100
5, 421440, Note_on_c, 0, 69, 100
5, 421680, Note_on_c, 4, 61, 0
5, 422240, Note_on_c, 0, 69, 0
5, 422400, Note_on_c, 4, 60, 100
5, 422400, Note_on_c, 4, 61, 100
5, 422400, Note_on_c, 0, 68, 100
5, 422640, Note_on_c, 4, 60, 0
5, 422640, Note_on_c, 4, 61, 0
5, 422640, Note_on_c, 0, 68, 0
5, 423360, Note_on_c, 4, 61, 100
5, 423360, Note_on_c, 0, 70, 100
5, 423600, Note_on_c, 4, 61, 0
5, 423600, Note_on_c, 0, 70, 0
5, 424320, Note_on_c, 4, 60, 100
5, 424320, Note_on_c, 4, 61, 100
5, 424320, Note_on_c, 0, 70, 100
5, 424560, Note_on_c, 4, 60, 0
5, 424560, Note_on_c, 4, 61, 0
5, 424560, Note_on_c, 0, 70, 0
5, 425280, Note_on_c, 4, 61, 100
5, 425280, Note_on_c, 0, 68, 100
5, 425520, Note_on_c, 4, 61, 0
5, 425520, Note_on_c, 0, 68, 0
5, 426240, Note_on_c, 4, 60, 100
5, 426240, Note_on_c, 4, 61, 100
5, 426240, Note_on_c, 0, 70, 100
5, 426480, Note_on_c, 4, 60, 0
5, 426480, Note_on_c, 4, 61, 0
5, 426480, Note_on_c, 0, 70, 0
5, 427200, Note_on_c, 4, 61, 100
5, 427200, Note_on_c, 0, 70, 100
5, 427440, Note_on_c, 4, 61, 0
5, 427440, Note_on_c, 0, 70, 0
5, 428160, Note_on_c, 4, 60, 100
5, 428160, Note_on_c, 4, 61, 100
5, 428160, Note_on_c, 0, 68, 100
5, 428400, Note_on_c, 4, 60, 0
5, 428400, Note_on_c, 4, 61, 0
5, 428400, Note_on_c, 0, 68, 0
5, 429120, Note_on_c, 4, 61, 100
5, 429120, Note_on_c, 0, 69, 100
5, 429360, Note_on_c, 4, 61, 0
5, 430080, Note_on_c, 0, 69, 0
5, 430080, Note_on_c, 4, 60, 100
5, 430080, Note_on_c, 4, 61, 100
5, 430080, Note_on_c, 0, 68, 100
5, 430320, Note_on_c, 4, 60, 0
5, 430320, Note_on_c, 4, 61, 0
5, 430880, Note_on_c, 0, 68, 0
5, 431040, Note_on_c, 4, 61, 100
5, 431040, Note_on_c, 0, 69, 100
5, 431280, Note_on_c, 4, 61, 0
5, 431840, Note_on_c, 0, 69, 0
5, 432000, Note_on_c, 4, 60, 100
5, 432000, Note_on_c, 4, 61, 100
5, 432000, Note_on_c, 0, 70, 100
5, 432240, Note_on_c, 4, 60, 0
5, 432240, Note_on_c, 4, 61, 0
5, 432800, Note_on_c, 0, 70, 0
5, 432960, Note_on_c, 4, 61, 100
5, 432960, Note_on_c, 0, 68, 100
5, 433200, Note_on_c, 4, 61, 0
5, 433760, Note_on_c, 0, 68, 0
5, 433920, Note_on_c, 4, 60, 100
5, 433920, Note_on_c, 4, 61, 100
5, 433920, Note_on_c, 0, 69, 100
5, 434160, Note_on_c, 4, 60, 0
5, 434160, Note_on_c, 4, 61, 0
5, 434720, Note_on_c, 0, 69, 0
5, 434880, Note_on_c, 4, 61, 100
5, 434880, Note_on_c, 0, 68, 100
5, 435120, Note_on_c, 4, 61, 0
5, 435680, Note_on_c, 0, 68, 0
5, 435840, Note_on_c, 4, 61, 100
5, 435840, Note_on_c, 0, 70, 100
5, 436080, Note_on_c, 4, 61, 0
5, 436640, Note_on_c, 0, 70, 0
5, 436800, Note_on_c, 4, 61, 100
5, 436800, Note_on_c, 0, 69, 100
5, 437040, Note_on_c, 4, 61, 0
5, 437600, Note_on_c, 0, 69, 0
5, 437760, Note_on_c, 4, 60, 100
5, 437760, Note_on_c, 4, 61, 100
5, 437760, Note_on_c, 0, 68, 100
5, 438000, Note_on_c, 4, 60, 0
5, 438000, Note_on_c, 4, 61, 0
5, 438000, Note_on_c, 0, 68, 0
5, 438720, Note_on_c, 4, 61, 100
5, 438720, Note_on_c, 0, 68, 100
5, 438960, Note_on_c, 4, 61, 0
5, 438960, Note_on_c, 0, 68, 0
5, 439680, Note_on_c, 4, 60, 100
5, 439680, Note_on_c, 4, 61, 100
5, 439680, Note_on_c, 0, 68, 100
5, 439920, Note_on_c, 4, 60, 0
5, 439920, Note_on_c, 4, 61, 0
5, 439920, Note_on_c, 0, 68, 0
5, 440640, Note_on_c, 4, 61, 100
5, 440640, Note_on_c, 0, 68, 100
5, 440880, Note_on_c, 4, 61, 0
5, 440880, Note_on_c, 0, 68, 0
5, 441600, Note_on_c, 4, 60, 100
5, 441600, Note_on_c, 4, 61, 100
5, 441600, Note_on_c, 0, 68, 100
5, 441840, Note_on_c, 4, 60, 0
5, 441840, Note_on_c, 4, 61, 0
5, 441840, Note_on_c, 0, 68, 0
5, 442560, Note_on_c, 4, 61, 100
5, 442560, Note_on_c, 0, 68, 100
5, 442800, Note_on_c, 4, 61, 0
5, 442800, Note_on_c, 0, 68, 0
5, 443520, Note_on_c, 4, 60, 100
5, 443520, Note_on_c, 4, 61, 100
5, 443520, Note_on_c, 0, 68, 100
5, 443760, Note_on_c, 4, 60, 0
5, 443760, Note_on_c, 4, 61, 0
5, 443760, Note_on_c, 0, 68, 0
5, 444480, Note_on_c, 4, 61, 100
5, 444480, Note_on_c, 0, 68, 100
5, 444720, Note_on_c, 4, 61, 0
5, 444720, Note_on_c, 0, 68, 0
5, 445440, Note_on_c, 4, 60, 100
5, 445440, Note_on_c, 4, 61, 100
5, 445440, Note_on_c, 0, 68, 100
5, 445680, Note_on_c, 4, 60, 0
5, 445680, Note_on_c, 4, 61, 0
5, 446240, Note_on_c, 0, 68, 0
5, 446400, Note_on_c, 4, 61, 100
5, 446400, Note_on_c, 0, 69, 100
5, 446640, Note_on_c, 4, 61, 0
5, 447200, Note_on_c, 0, 69, 0
5, 447360, Note_on_c, 4, 60, 100
5, 447360, Note_on_c, 4, 61, 100
5, 447360, Note_on_c, 0, 70, 100
5, 447600, Note_on_c, 4, 60, 0
5, 447600, Note_on_c, 4, 61, 0
5, 448160, Note_on_c, 0, 70, 0
5, 448320, Note_on_c, 4, 61, 100
5, 448320, Note_on_c, 0, 68, 100
5, 448560, Note_on_c, 4, 61, 0
5, 449120, Note_on_c, 0, 68, 0
5, 449280, Note_on_c, 4, 60, 100
5, 449280, Note_on_c, 4, 61, 100
5, 449280, Note_on_c, 0, 69, 100
5, 449520, Note_on_c, 4, 60, 0
5, 449520, Note_on_c, 4, 61, 0
5, 450080, Note_on_c, 0, 69, 0
5, 450240, Note_on_c, 4, 61, 100
5, 450240, Note_on_c, 0, 68, 100
5, 450480, Note_on_c, 4, 61, 0
5, 451040, Note_on_c, 0, 68, 0
5, 451200, Note_on_c, 4, 61, 100
5, 451200, Note_on_c, 0, 70, 100
5, 451440, Note_on_c, 4, 61, 0
5, 452000, Note_on_c, 0, 70, 0
5, 452160, Note_on_c, 4, 61, 100
5, 452160, Note_on_c, 0, 69, 100
5, 452400, Note_on_c, 4, 61, 0
5, 452960, Note_on_c, 0, 69, 0
5, 453120, Note_on_c, 4, 60, 100
5, 453120, Note_on_c, 4, 61, 100
5, 453120, Note_on_c, 0, 68, 100
5, 453360, Note_on_c, 4, 60, 0
5, 453360, Note_on_c, 4, 61, 0
5, 453360, Note_on_c, 0, 68, 0
5, 454080, Note_on_c, 4, 61, 100
5, 454080, Note_on_c, 0, 68, 100
5, 454320, Note_on_c, 4, 61, 0
5, 454320, Note_on_c, 0, 68, 0
5, 455040, Note_on_c, 4, 60, 100
5, 455040, Note_on_c, 4, 61, 100
5, 455040, Note_on_c, 0, 68, 100
5, 455280, Note_on_c, 4, 60, 0
5, 455280, Note_on_c, 4, 61, 0
5, 455280, Note_on_c, 0, 68, 0
5, 456000, Note_on_c, 4, 61, 100
5, 456000, Note_on_c, 0, 68, 100
5, 456240, Note_on_c, 4, 61, 0
5, 456240, Note_on_c, 0, 68, 0
5, 456960, Note_on_c, 4, 60, 100
5, 456960, Note_on_c, 4, 61, 100
5, 456960, Note_on_c, 0, 68, 100
5, 457200, Note_on_c, 4, 60, 0
5, 457200, Note_on_c, 4, 61, 0
5, 457200, Note_on_c, 0, 68, 0
5, 457920, Note_on_c, 4, 61, 100
5, 457920, Note_on_c, 0, 68, 100
5, 458160, Note_on_c, 4, 61, 0
5, 458160, Note_on_c, 0, 68, 0
5, 458880, Note_on_c, 4, 60, 100
5, 458880, Note_on_c, 4, 61, 100
5, 458880, Note_on_c, 0, 68, 100
5, 459120, Note_on_c, 4, 60, 0
5, 459120, Note_on_c, 4, 61, 0
5, 459120, Note_on_c, 0, 68, 0
5, 459840, Note_on_c, 4, 61, 100
5, 459840, Note_on_c, 0, 68, 100
5, 460080, Note_on_c, 4, 61, 0
5, 460080, Note_on_c, 0, 68, 0
5, 460800, Note_on_c, 4, 60, 100
5, 460800, Note_on_c, 4, 61, 100
5, 460800, Note_on_c, 0, 70, 100
5, 461040, Note_on_c, 4, 60, 0
5, 461040, Note_on_c, 4, 61, 0
5, 461600, Note_on_c, 0, 70, 0
5, 461760, Note_on_c, 4, 61, 100
5, 461760, Note_on_c, 0, 69, 100
5, 462000, Note_on_c, 4, 61, 0
5, 462560, Note_on_c, 0, 69, 0
5, 462720, Note_on_c, 4, 61, 100
5, 462720, Note_on_c, 0, 68, 100
5, 462960, Note_on_c, 4, 61, 0
5, 463520, Note_on_c, 0, 68, 0
5, 463680, Note_on_c, 4, 61, 100
5, 463680, Note_on_c, 0, 69, 100
5, 463920, Note_on_c, 4, 61, 0
5, 464480, Note_on_c, 0, 69, 0
5, 464640, Note_on_c, 4, 61, 100
5, 464640, Note_on_c, 0, 68, 100
5, 464880, Note_on_c, 4, 61, 0
5, 465440, Note_on_c, 0, 68, 0
5, 465600, Note_on_c, 4, 61, 100
5, 465600, Note_on_c, 0, 69, 100
5, 465840, Note_on_c, 4, 61, 0
5, 466400, Note_on_c, 0, 69, 0
5, 466560, Note_on_c, 4, 61, 100
5, 466560, Note_on_c, 0, 70, 100
5, 466800, Note_on_c, 4, 61, 0
5, 467360, Note_on_c, 0, 70, 0
5, 467520, Note_on_c, 4, 61, 100
5, 467520, Note_on_c, 0, 69, 100
5, 467760, Note_on_c, 4, 61, 0
5, 468320, Note_on_c, 0, 69, 0
5, 468480, Note_on_c, 4, 60, 100
5, 468480, Note_on_c, 4, 61, 100
5, 468480, Note_on_c, 0, 68, 100
5, 468720, Note_on_c, 4, 60, 0
5, 468720, Note_on_c, 4, 61, 0
5, 468720, Note_on_c, 0, 68, 0
5, 469440, Note_on_c, 4, 61, 100
5, 469440, Note_on_c, 0, 68, 100
5, 469680, Note_on_c, 4, 61, 0
5, 469680, Note_on_c, 0, 68, 0
5, 470080, Note_on_c, 4, 61, 100
5, 470320, Note_on_c, 4, 61, 0
5, 470400, Note_on_c, 4, 60, 100
5, 470400, Note_on_c, 4, 61, 100
5, 470400, Note_on_c, 0, 68, 100
5, 470640, Note_on_c, 4, 60, 0
5, 470640, Note_on_c, 4, 61, 0
5, 470640, Note_on_c, 0, 68, 0
5, 471040, Note_on_c, 4, 61, 100
5, 471280, Note_on_c, 4, 61, 0
5, 471360, Note_on_c, 4, 61, 100
5, 471360, Note_on_c, 0, 68, 100
5, 471600, Note_on_c, 4, 61, 0
5, 471600, Note_on_c, 0, 68, 0
5, 472000, Note_on_c, 4, 61, 100
5, 472240, Note_on_c, 4, 61, 0
5, 472320, Note_on_c, 4, 60, 100
5, 472320, Note_on_c, 4, 61, 100
5, 472320, Note_on_c, 0, 68, 100
5, 472560, Note_on_c, 4, 60, 0
5, 472560, Note_on_c, 4, 61, 0
5, 472560, Note_on_c, 0, 68, 0
5, 472960, Note_on_c, 4, 61, 100
5, 473200, Note_on_c, 4, 61, 0
5, 473280, Note_on_c, 4, 61, 100
5, 473280, Note_on_c, 0, 68, 100
5, 473520, Note_on_c, 4, 61, 0
5, 473520, Note_on_c, 0, 68, 0
5, 473920, Note_on_c, 4, 61, 100
5, 474160, Note_on_c, 4, 61, 0
5, 474240, Note_on_c, 4, 60, 100
5, 474240, Note_on_c, 4, 61, 100
5, 474240, Note_on_c, 0, 68, 100
5, 474480, Note_on_c, 4, 60, 0
5, 474480, Note_on_c, 4, 61, 0
5, 474480, Note_on_c, 0, 68, 0
5, 474880, Note_on_c, 4, 61, 100
5, 475120, Note_on_c, 4, 61, 0
5, 475200, Note_on_c, 4, 61, 100
5, 475200, Note_on_c, 0, 68, 100
5, 475440, Note_on_c, 4, 61, 0
5, 475440, Note_on_c, 0, 68, 0
5, 476160, Note_on_c, 4, 60, 100
5, 476160, Note_on_c, 4, 61, 100
5, 476160, Note_on_c, 0, 68, 100
5, 476400, Note_on_c, 4, 60, 0
5, 476400, Note_on_c, 4, 61, 0
5, 476960, Note_on_c, 0, 68, 0
5, 477120, Note_on_c, 0, 69, 100
5, 477760, Note_on_c, 4, 60, 100
5, 477920, Note_on_c, 0, 69, 0
5, 478000, Note_on_c, 4, 60, 0
5, 478080, Note_on_c, 4, 61, 100
5, 478080, Note_on_c, 0, 70, 100
5, 478320, Note_on_c, 4, 61, 0
5, 478880, Note_on_c, 0, 70, 0
5, 479040, Note_on_c, 0, 68, 100
5, 479680, Note_on_c, 4, 60, 100
5, 479840, Note_on_c, 0, 68, 0
5, 479920, Note_on_c, 4, 60, 0
5, 480000, Note_on_c, 4, 61, 100
5, 480000, Note_on_c, 0, 69, 100
5, 480240, Note_on_c, 4, 61, 0
5, 480800, Note_on_c, 0, 69, 0
5, 480960, Note_on_c, 0, 68, 100
5, 481600, Note_on_c, 4, 60, 100
5, 481760, Note_on_c, 0, 68, 0
5, 481840, Note_on_c, 4, 60, 0
5, 481920, Note_on_c, 4, 61, 100
5, 481920, Note_on_c, 0, 70, 100
5, 482160, Note_on_c, 4, 61, 0
5, 482720, Note_on_c, 0, 70, 0
5, 482880, Note_on_c, 0, 69, 100
5, 483680, Note_on_c, 0, 69, 0
5, 483840, Note_on_c, 4, 60, 100
5, 483840, Note_on_c, 4, 61, 100
5, 483840, Note_on_c, 0, 68, 100
5, 484080, Note_on_c, 4, 60, 0
5, 484080, Note_on_c, 4, 61, 0
5, 484080, Note_on_c, 0, 68, 0
5, 484800, Note_on_c, 4, 61, 100
5, 484800, Note_on_c, 0, 68, 100
5, 485040, Note_on_c, 4, 61, 0
5, 485040, Note_on_c, 0, 68, 0
5, 485440, Note_on_c, 4, 61, 100
5, 485680, Note_on_c, 4, 61, 0
5, 485760, Note_on_c, 4, 60, 100
5, 485760, Note_on_c, 4, 61, 100
5, 485760, Note_on_c, 0, 68, 100
5, 486000, Note_on_c, 4, 60, 0
5, 486000, Note_on_c, 4, 61, 0
5, 486000, Note_on_c, 0, 68, 0
5, 486720, Note_on_c, 4, 61, 100
5, 486720, Note_on_c, 0, 68, 100
5, 486960, Note_on_c, 4, 61, 0
5, 486960, Note_on_c, 0, 68, 0
5, 487360, Note_on_c, 4, 61, 100
5, 487600, Note_on_c, 4, 61, 0
5, 487680, Note_on_c, 4, 60, 100
5, 487680, Note_on_c, 4, 61, 100
5, 487680, Note_on_c, 0, 68, 100
5, 487920, Note_on_c, 4, 60, 0
5, 487920, Note_on_c, 4, 61, 0
5, 487920, Note_on_c, 0, 68, 0
5, 488320, Note_on_c, 4, 61, 100
5, 488560, Note_on_c, 4, 61, 0
5, 488640, Note_on_c, 4, 61, 100
5, 488640, Note_on_c, 0, 68, 100
5, 488880, Note_on_c, 4, 61, 0
5, 488880, Note_on_c, 0, 68, 0
5, 489280, Note_on_c, 4, 61, 100
5, 489520, Note_on_c, 4, 61, 0
5, 489600, Note_on_c, 4, 60, 100
5, 489600, Note_on_c, 4, 61, 100
5, 489600, Note_on_c, 0, 68, 100
5, 489840, Note_on_c, 4, 60, 0
5, 489840, Note_on_c, 4, 61, 0
5, 489840, Note_on_c, 0, 68, 0
5, 490240, Note_on_c, 4, 61, 100
5, 490480, Note_on_c, 4, 61, 0
5, 490560, Note_on_c, 4, 61, 100
5, 490560, Note_on_c, 0, 68, 100
5, 490800, Note_on_c, 4, 61, 0
5, 490800, Note_on_c, 0, 68, 0
5, 491520, Note_on_c, 4, 60, 100
5, 491520, Note_on_c, 4, 61, 100
5, 491520, Note_on_c, 0, 68, 100
5, 491520, Note_on_c, 0, 69, 100
5, 491760, Note_on_c, 4, 60, 0
5, 491760, Note_on_c, 4, 61, 0
5, 491760, Note_on_c, 0, 68, 0
5, 491760, Note_on_c, 0, 69, 0
5, 492480, Note_on_c, 4, 60, 100
5, 492480, Note_on_c, 4, 61, 100
5, 492480, Note_on_c, 0, 68, 100
5, 492480, Note_on_c, 0, 69, 100
5, 492720, Note_on_c, 4, 60, 0
5, 492720, Note_on_c, 4, 61, 0
5, 492720, Note_on_c, 0, 68, 0
5, 492720, Note_on_c, 0, 69, 0
5, 493440, Note_on_c, 4, 60, 100
5, 493440, Note_on_c, 4, 61, 100
5, 493440, Note_on_c, 0, 68, 100
5, 493440, Note_on_c, 0, 69, 100
5, 493680, Note_on_c, 4, 60, 0
5, 493680, Note_on_c, 4, 61, 0
5, 493680, Note_on_c, 0, 68, 0
5, 493680, Note_on_c, 0, 69, 0
5, 494400, Note_on_c, 4, 61, 100
5, 494400, Note_on_c, 0, 68, 100
5, 494400, Note_on_c, 0, 69, 100
5, 494640, Note_on_c, 4, 61, 0
5, 494640, Note_on_c, 0, 68, 0
5, 494640, Note_on_c, 0, 69, 0
5, 494720, Note_on_c, 4, 60, 100
5, 494960, Note_on_c, 4, 60, 0
5, 495040, Note_on_c, 4, 61, 100
5, 495280, Note_on_c, 4, 61, 0
5, 495360, Note_on_c, 4, 60, 100
5, 495360, Note_on_c, 4, 61, 100
5, 495360, Note_on_c, 0, 68, 100
5, 495360, Note_on_c, 0, 69, 100
5, 495600, Note_on_c, 4, 60, 0
5, 495600, Note_on_c, 4, 61, 0
5, 495600, Note_on_c, 0, 68, 0
5, 495600, Note_on_c, 0, 69, 0
5, 496000, Note_on_c, 4, 60, 100
5, 496000, Note_on_c, 4, 61, 100
5, 496240, Note_on_c, 4, 60, 0
5, 496240, Note_on_c, 4, 61, 0
5, 496320, Note_on_c, 4, 61, 100
5, 496320, Note_on_c, 0, 68, 100
5, 496320, Note_on_c, 0, 69, 100
5, 496560, Note_on_c, 4, 61, 0
5, 496560, Note_on_c, 0, 68, 0
5, 496560, Note_on_c, 0, 69, 0
5, 496640, Note_on_c, 4, 60, 100
5, 496880, Note_on_c, 4, 60, 0
5, 496960, Note_on_c, 4, 61, 100
5, 497200, Note_on_c, 4, 61, 0
5, 497280, Note_on_c, 4, 60, 100
5, 497280, Note_on_c, 4, 61, 100
5, 497280, Note_on_c, 0, 68, 100
5, 497280, Note_on_c, 0, 69, 100
5, 497520, Note_on_c, 4, 60, 0
5, 497520, Note_on_c, 4, 61, 0
5, 497520, Note_on_c, 0, 68, 0
5, 497520, Note_on_c, 0, 69, 0
5, 497920, Note_on_c, 4, 60, 100
5, 497920, Note_on_c, 4, 61, 100
5, 498160, Note_on_c, 4, 60, 0
5, 498160, Note_on_c, 4, 61, 0
5, 498240, Note_on_c, 4, 61, 100
5, 498240, Note_on_c, 0, 68, 100
5, 498240, Note_on_c, 0, 69, 100
5, 498480, Note_on_c, 4, 61, 0
5, 498480, Note_on_c, 0, 68, 0
5, 498480, Note_on_c, 0, 69, 0
5, 498560, Note_on_c, 4, 60, 100
5, 498800, Note_on_c, 4, 60, 0
5, 498880, Note_on_c, 4, 61, 100
5, 499120, Note_on_c, 4, 61, 0
5, 499200, Note_on_c, 4, 60, 100
5, 499200, Note_on_c, 4, 61, 100
5, 499200, Note_on_c, 0, 68, 100
5, 499200, Note_on_c, 0, 69, 100
5, 499440, Note_on_c, 4, 60, 0
5, 499440, Note_on_c, 4, 61, 0
5, 499440, Note_on_c, 0, 68, 0
5, 499440, Note_on_c, 0, 69, 0
5, 499840, Note_on_c, 4, 60, 100
5, 499840, Note_on_c, 4, 61, 100
5, 500080, Note_on_c, 4, 60, 0
5, 500080, Note_on_c, 4, 61, 0
5, 500160, Note_on_c, 4, 61, 100
5, 500160, Note_on_c, 0, 68, 100
5, 500160, Note_on_c, 0, 69, 100
5, 500400, Note_on_c, 4, 61, 0
5, 500400, Note_on_c, 0, 68, 0
5, 500400, Note_on_c, 0, 69, 0
5, 500480, Note_on_c, 4, 60, 100
5, 500720, Note_on_c, 4, 60, 0
5, 500800, Note_on_c, 4, 61, 100
5, 501040, Note_on_c, 4, 61, 0
5, 501120, Note_on_c, 4, 60, 100
5, 501120, Note_on_c, 4, 61, 100
5, 501120, Note_on_c, 0, 68, 100
5, 501120, Note_on_c, 0, 69, 100
5, 501360, Note_on_c, 4, 60, 0
5, 501360, Note_on_c, 4, 61, 0
5, 501360, Note_on_c, 0, 68, 0
5, 501360, Note_on_c, 0, 69, 0
5, 501760, Note_on_c, 4, 60, 100
5, 501760, Note_on_c, 4, 61, 100
5, 502000, Note_on_c, 4, 60, 0
5, 502000, Note_on_c, 4, 61, 0
5, 502080, Note_on_c, 4, 61, 100
5, 502080, Note_on_c, 0, 68, 100
5, 502080, Note_on_c, 0, 69, 100
5, 502320, Note_on_c, 4, 61, 0
5, 502320, Note_on_c, 0, 68, 0
5, 502320, Note_on_c, 0, 69, 0
5, 502400, Note_on_c, 4, 60, 100
5, 502640, Note_on_c, 4, 60, 0
5, 503040, Note_on_c, 4, 61, 100
5, 503040, Note_on_c, 0, 68, 100
5, 503280, Note_on_c, 4, 61, 0
5, 503280, Note_on_c, 0, 68, 0
5, 503680, Note_on_c, 4, 61, 100
5, 503680, Note_on_c, 0, 69, 100
5, 503920, Note_on_c, 4, 61, 0
5, 503920, Note_on_c, 0, 69, 0
5, 504320, Note_on_c, 4, 61, 100
5, 504320, Note_on_c, 0, 70, 100
5, 504560, Note_on_c, 4, 61, 0
5, 504560, Note_on_c, 0, 70, 0
5, 504960, Note_on_c, 4, 61, 100
5, 504960, Note_on_c, 0, 69, 100
5, 505200, Note_on_c, 4, 61, 0
5, 505200, Note_on_c, 0, 69, 0
5, 505600, Note_on_c, 4, 61, 100
5, 505600, Note_on_c, 0, 68, 100
5, 505840, Note_on_c, 4, 61, 0
5, 505840, Note_on_c, 0, 68, 0
5, 506240, Note_on_c, 4, 61, 100
5, 506240, Note_on_c, 0, 69, 100
5, 506480, Note_on_c, 4, 61, 0
5, 506480, Note_on_c, 0, 69, 0
5, 506880, Note_on_c, 4, 60, 100
5, 506880, Note_on_c, 4, 61, 100
5, 506880, Note_on_c, 0, 68, 100
5, 506880, Note_on_c, 0, 69, 100
5, 507120, Note_on_c, 4, 60, 0
5, 507120, Note_on_c, 4, 61, 0
5, 507120, Note_on_c, 0, 68, 0
5, 507120, Note_on_c, 0, 69, 0
5, 507520, Note_on_c, 4, 61, 100
5, 507760, Note_on_c, 4, 61, 0
5, 507840, Note_on_c, 4, 61, 100
5, 507840, Note_on_c, 0, 68, 100
5, 507840, Note_on_c, 0, 69, 100
5, 508080, Note_on_c, 4, 61, 0
5, 508080, Note_on_c, 0, 68, 0
5, 508080, Note_on_c, 0, 69, 0
5, 508480, Note_on_c, 4, 61, 100
5, 508720, Note_on_c, 4, 61, 0
5, 508800, Note_on_c, 4, 60, 100
5, 508800, Note_on_c, 4, 61, 100
5, 508800, Note_on_c, 0, 68, 100
5, 508800, Note_on_c, 0, 69, 100
5, 509040, Note_on_c, 4, 60, 0
5, 509040, Note_on_c, 4, 61, 0
5, 509040, Note_on_c, 0, 68, 0
5, 509040, Note_on_c, 0, 69, 0
5, 509440, Note_on_c, 4, 61, 100
5, 509680, Note_on_c, 4, 61, 0
5, 509760, Note_on_c, 4, 61, 100
5, 509760, Note_on_c, 0, 68, 100
5, 509760, Note_on_c, 0, 69, 100
5, 510000, Note_on_c, 4, 61, 0
5, 510000, Note_on_c, 0, 68, 0
5, 510000, Note_on_c, 0, 69, 0
5, 510080, Note_on_c, 4, 60, 100
5, 510320, Note_on_c, 4, 60, 0
5, 510400, Note_on_c, 4, 61, 100
5, 510640, Note_on_c, 4, 61, 0
5, 510720, Note_on_c, 4, 60, 100
5, 510720, Note_on_c, 4, 61, 100
5, 510720, Note_on_c, 0, 68, 100
5, 510720, Note_on_c, 0, 69, 100
5, 510960, Note_on_c, 4, 60, 0
5, 510960, Note_on_c, 4, 61, 0
5, 510960, Note_on_c, 0, 68, 0
5, 510960, Note_on_c, 0, 69, 0
5, 511360, Note_on_c, 4, 60, 100
5, 511360, Note_on_c, 4, 61, 100
5, 511600, Note_on_c, 4, 60, 0
5, 511600, Note_on_c, 4, 61, 0
5, 511680, Note_on_c, 4, 61, 100
5, 511680, Note_on_c, 0, 68, 100
5, 511680, Note_on_c, 0, 69, 100
5, 511920, Note_on_c, 4, 61, 0
5, 511920, Note_on_c, 0, 68, 0
5, 511920, Note_on_c, 0, 69, 0
5, 512000, Note_on_c, 4, 60, 100
5, 512240, Note_on_c, 4, 60, 0
5, 512320, Note_on_c, 4, 61, 100
5, 512560, Note_on_c, 4, 61, 0
5, 512640, Note_on_c, 4, 60, 100
5, 512640, Note_on_c, 4, 61, 100
5, 512640, Note_on_c, 0, 68, 100
5, 512640, Note_on_c, 0, 69, 100
5, 512880, Note_on_c, 4, 60, 0
5, 512880, Note_on_c, 4, 61, 0
5, 512880, Note_on_c, 0, 68, 0
5, 512880, Note_on_c, 0, 69, 0
5, 513280, Note_on_c, 4, 60, 100
5, 513280, Note_on_c, 4, 61, 100
5, 513520, Note_on_c, 4, 60, 0
5, 513520, Note_on_c, 4, 61, 0
5, 513600, Note_on_c, 4, 61, 100
5, 513600, Note_on_c, 0, 68, 100
5, 513600, Note_on_c, 0, 69, 100
5, 513840, Note_on_c, 4, 61, 0
5, 513840, Note_on_c, 0, 68, 0
5, 513840, Note_on_c, 0, 69, 0
5, 513920, Note_on_c, 4, 60, 100
5, 514160, Note_on_c, 4, 60, 0
5, 514240, Note_on_c, 4, 61, 100
5, 514480, Note_on_c, 4, 61, 0
5, 514560, Note_on_c, 4, 60, 100
5, 514560, Note_on_c, 4, 61, 100
5, 514560, Note_on_c, 0, 68, 100
5, 514560, Note_on_c, 0, 69, 100
5, 514800, Note_on_c, 4, 60, 0
5, 514800, Note_on_c, 4, 61, 0
5, 514800, Note_on_c, 0, 68, 0
5, 514800, Note_on_c, 0, 69, 0
5, 515200, Note_on_c, 4, 60, 100
5, 515200, Note_on_c, 4, 61, 100
5, 515440, Note_on_c, 4, 60, 0
5, 515440, Note_on_c, 4, 61, 0
5, 515520, Note_on_c, 4, 61, 100
5, 515520, Note_on_c, 0, 68, 100
5, 515520, Note_on_c, 0, 69, 100
5, 515760, Note_on_c, 4, 61, 0
5, 515760, Note_on_c, 0, 68, 0
5, 515760, Note_on_c, 0, 69, 0
5, 515840, Note_on_c, 4, 60, 100
5, 516080, Note_on_c, 4, 60, 0
5, 516160, Note_on_c, 4, 61, 100
5, 516400, Note_on_c, 4, 61, 0
5, 516480, Note_on_c, 4, 60, 100
5, 516480, Note_on_c, 4, 61, 100
5, 516480, Note_on_c, 0, 68, 100
5, 516480, Note_on_c, 0, 69, 100
5, 516720, Note_on_c, 4, 60, 0
5, 516720, Note_on_c, 4, 61, 0
5, 516720, Note_on_c, 0, 68, 0
5, 516720, Note_on_c, 0, 69, 0
5, 517120, Note_on_c, 4, 60, 100
5, 517120, Note_on_c, 4, 61, 100
5, 517360, Note_on_c, 4, 60, 0
5, 517360, Note_on_c, 4, 61, 0
5, 517440, Note_on_c, 4, 61, 100
5, 517440, Note_on_c, 0, 68, 100
5, 517440, Note_on_c, 0, 69, 100
5, 517680, Note_on_c, 4, 61, 0
5, 517680, Note_on_c, 0, 68, 0
5, 517680, Note_on_c, 0, 69, 0
5, 517760, Note_on_c, 4, 60, 100
5, 518000, Note_on_c, 4, 60, 0
5, 518400, Note_on_c, 4, 61, 100
5, 518400, Note_on_c, 0, 68, 100
5, 518640, Note_on_c, 4, 61, 0
5, 518640, Note_on_c, 0, 68, 0
5, 519040, Note_on_c, 4, 61, 100
5, 519040, Note_on_c, 0, 69, 100
5, 519280, Note_on_c, 4, 61, 0
5, 519280, Note_on_c, 0, 69, 0
5, 519680, Note_on_c, 4, 61, 100
5, 519680, Note_on_c, 0, 70, 100
5, 519920, Note_on_c, 4, 61, 0
5, 519920, Note_on_c, 0, 70, 0
5, 520320, Note_on_c, 4, 61, 100
5, 520320, Note_on_c, 0, 69, 100
5, 520560, Note_on_c, 4, 61, 0
5, 520560, Note_on_c, 0, 69, 0
5, 520960, Note_on_c, 4, 61, 100
5, 520960, Note_on_c, 0, 68, 100
5, 521200, Note_on_c, 4, 61, 0
5, 521200, Note_on_c, 0, 68, 0
5, 521600, Note_on_c, 4, 61, 100
5, 521600, Note_on_c, 0, 69, 100
5, 521840, Note_on_c, 4, 61, 0
5, 521840, Note_on_c, 0, 69, 0
5, 522240, Note_on_c, 4, 61, 100
5, 522240, Note_on_c, 0, 68, 100
5, 522480, Note_on_c, 4, 61, 0
5, 522480, Note_on_c, 0, 68, 0
5, 522880, Note_on_c, 4, 61, 100
5, 522880, Note_on_c, 0, 69, 100
5, 523120, Note_on_c, 4, 61, 0
5, 523120, Note_on_c, 0, 69, 0
5, 523520, Note_on_c, 4, 61, 100
5, 523520, Note_on_c, 0, 70, 100
5, 523760, Note_on_c, 4, 61, 0
5, 523760, Note_on_c, 0, 70, 0
5, 524160, Note_on_c, 4, 61, 100
5, 524160, Note_on_c, 0, 69, 100
5, 524400, Note_on_c, 4, 61, 0
5, 524400, Note_on_c, 0, 69, 0
5, 524800, Note_on_c, 4, 61, 100
5, 524800, Note_on_c, 0, 68, 100
5, 525040, Note_on_c, 4, 61, 0
5, 525040, Note_on_c, 0, 68, 0
5, 525440, Note_on_c, 4, 61, 100
5, 525440, Note_on_c, 0, 69, 100
5, 525680, Note_on_c, 4, 61, 0
5, 525680, Note_on_c, 0, 69, 0
5, 526080, Note_on_c, 4, 61, 100
5, 526080, Note_on_c, 0, 68, 100
5, 526320, Note_on_c, 4, 61, 0
5, 526320, Note_on_c, 0, 68, 0
5, 526720, Note_on_c, 4, 61, 100
5, 526720, Note_on_c, 0, 69, 100
5, 526960, Note_on_c, 4, 61, 0
5, 526960, Note_on_c, 0, 69, 0
5, 527360, Note_on_c, 4, 61, 100
5, 527360, Note_on_c, 0, 70, 100
5, 527600, Note_on_c, 4, 61, 0
5, 527600, Note_on_c, 0, 70, 0
5, 528000, Note_on_c, 4, 61, 100
5, 528000, Note_on_c, 0, 69, 100
5, 528240, Note_on_c, 4, 61, 0
5, 528240, Note_on_c, 0, 69, 0
5, 528640, Note_on_c, 4, 61, 100
5, 528640, Note_on_c, 0, 68, 100
5, 528880, Note_on_c, 4, 61, 0
5, 528880, Note_on_c, 0, 68, 0
5, 529280, Note_on_c, 4, 61, 100
5, 529280, Note_on_c, 0, 69, 100
5, 529520, Note_on_c, 4, 61, 0
5, 529520, Note_on_c, 0, 69, 0
5, 529920, Note_on_c, 4, 61, 100
5, 529920, Note_on_c, 0, 68, 100
5, 530160, Note_on_c, 4, 61, 0
5, 530160, Note_on_c, 0, 68, 0
5, 530240, Note_on_c, 4, 60, 100
5, 530480, Note_on_c, 4, 60, 0
5, 530560, Note_on_c, 4, 61, 100
5, 530560, Note_on_c, 0, 69, 100
5, 530800, Note_on_c, 4, 61, 0
5, 530800, Note_on_c, 0, 69, 0
5, 530880, Note_on_c, 4, 60, 100
5, 531120, Note_on_c, 4, 60, 0
5, 531200, Note_on_c, 4, 61, 100
5, 531200, Note_on_c, 0, 70, 100
5, 531440, Note_on_c, 4, 61, 0
5, 531440, Note_on_c, 0, 70, 0
5, 531520, Note_on_c, 4, 60, 100
5, 531760, Note_on_c, 4, 60, 0
5, 531840, Note_on_c, 4, 61, 100
5, 531840, Note_on_c, 0, 69, 100
5, 532080, Note_on_c, 4, 61, 0
5, 532080, Note_on_c, 0, 69, 0
5, 532160, Note_on_c, 4, 60, 100
5, 532400, Note_on_c, 4, 60, 0
5, 532480, Note_on_c, 4, 61, 100
5, 532480, Note_on_c, 0, 68, 100
5, 532720, Note_on_c, 4, 61, 0
5, 532720, Note_on_c, 0, 68, 0
5, 532800, Note_on_c, 4, 60, 100
5, 533040, Note_on_c, 4, 60, 0
5, 533120, Note_on_c, 4, 61, 100
5, 533120, Note_on_c, 0, 69, 100
5, 533360, Note_on_c, 4, 61, 0
5, 533360, Note_on_c, 0, 69, 0
5, 533440, Note_on_c, 4, 60, 100
5, 533680, Note_on_c, 4, 60, 0
5, 533760, Note_on_c, 4, 61, 100
5, 533760, Note_on_c, 0, 70, 100
5, 534000, Note_on_c, 4, 61, 0
5, 534000, Note_on_c, 0, 70, 0
5, 534080, Note_on_c, 4, 61, 100
5, 534320, Note_on_c, 4, 61, 0
5, 534400, Note_on_c, 4, 61, 100
5, 534640, Note_on_c, 4, 61, 0
5, 534720, Note_on_c, 4, 61, 100
5, 534960, Note_on_c, 4, 61, 0
5, 535360, Note_on_c, 4, 61, 100
5, 535600, Note_on_c, 4, 61, 0
5, 535680, Note_on_c, 4, 61, 100
5, 535920, Note_on_c, 4, 61, 0
5, 536000, Note_on_c, 4, 61, 100
5, 536240, Note_on_c, 4, 61, 0
5, 536320, Note_on_c, 4, 61, 100
5, 536560, Note_on_c, 4, 61, 0
5, 536640, Note_on_c, 4, 61, 100
5, 536880, Note_on_c, 4, 61, 0
5, 537280, Note_on_c, 4, 61, 100
5, 537520, Note_on_c, 4, 61, 0
5, 537600, Note_on_c, 4, 61, 100
5, 537840, Note_on_c, 4, 61, 0
5, 537920, Note_on_c, 4, 61, 100
5, 538160, Note_on_c, 4, 61, 0
5, 538240, Note_on_c, 4, 61, 100
5, 538480, Note_on_c, 4, 61, 0
5, 538560, Note_on_c, 4, 61, 100
5, 538800, Note_on_c, 4, 61, 0
5, 539200, Note_on_c, 4, 61, 100
5, 539440, Note_on_c, 4, 61, 0
5, 539520, Note_on_c, 4, 61, 100
5, 539760, Note_on_c, 4, 61, 0
5, 539840, Note_on_c, 4, 61, 100
5, 540080, Note_on_c, 4, 61, 0
5, 540160, Note_on_c, 4, 61, 100
5, 540400, Note_on_c, 4, 61, 0
5, 540480, Note_on_c, 4, 61, 100
5, 540720, Note_on_c, 4, 61, 0
5, 541120, Note_on_c, 4, 61, 100
5, 541360, Note_on_c, 4, 61, 0
5, 541440, Note_on_c, 4, 61, 100
5, 541680, Note_on_c, 4, 61, 0
5, 541760, Note_on_c, 4, 61, 100
5, 542000, Note_on_c, 4, 61, 0
5, 542080, Note_on_c, 4, 61, 100
5, 542320, Note_on_c, 4, 61, 0
5, 542400, Note_on_c, 4, 61, 100
5, 542640, Note_on_c, 4, 61, 0
5, 543040, Note_on_c, 4, 61, 100
5, 543280, Note_on_c, 4, 61, 0
5, 543360, Note_on_c, 4, 61, 100
5, 543600, Note_on_c, 4, 61, 0
5, 543680, Note_on_c, 4, 61, 100
5, 543920, Note_on_c, 4, 61, 0
5, 544000, Note_on_c, 4, 61, 100
5, 544240, Note_on_c, 4, 61, 0
5, 544320, Note_on_c, 4, 61, 100
5, 544560, Note_on_c, 4, 61, 0
5, 544960, Note_on_c, 4, 61, 100
5, 545200, Note_on_c, 4, 61, 0
5, 545280, Note_on_c, 4, 61, 100
5, 545520, Note_on_c, 4, 61, 0
5, 545600, Note_on_c, 4, 61, 100
5, 545840, Note_on_c, 4, 61, 0
5, 545920, Note_on_c, 4, 61, 100
5, 546160, Note_on_c, 4, 61, 0
5, 546240, Note_on_c, 4, 61, 100
5, 546480, Note_on_c, 4, 61, 0
5, 546880, Note_on_c, 4, 61, 100
5, 547120, Note_on_c, 4, 61, 0
5, 547200, Note_on_c, 4, 61, 100
5, 547440, Note_on_c, 4, 61, 0
5, 547520, Note_on_c, 4, 61, 100
5, 547760, Note_on_c, 4, 61, 0
5, 547840, Note_on_c, 4, 61, 100
5, 548080, Note_on_c, 4, 61, 0
5, 548160, Note_on_c, 4, 61, 100
5, 548400, Note_on_c, 4, 61, 0
5, 548800, Note_on_c, 4, 61, 100
5, 549040, Note_on_c, 4, 61, 0
5, 549120, Note_on_c, 4, 60, 100
5, 549120, Note_on_c, 4, 61, 100
5, 549120, Note_on_c, 0, 68, 100
5, 549360, Note_on_c, 4, 60, 0
5, 549360, Note_on_c, 4, 61, 0
5, 549360, Note_on_c, 0, 68, 0
5, 549440, Note_on_c, 4, 61, 100
5, 549680, Note_on_c, 4, 61, 0
5, 549760, Note_on_c, 4, 61, 100
5, 550000, Note_on_c, 4, 61, 0
5, 550080, Note_on_c, 4, 60, 100
5, 550080, Note_on_c, 4, 61, 100
5, 550080, Note_on_c, 0, 69, 100
5, 550320, Note_on_c, 4, 60, 0
5, 550320, Note_on_c, 4, 61, 0
5, 550320, Note_on_c, 0, 69, 0
5, 550720, Note_on_c, 4, 61, 100
5, 550960, Note_on_c, 4, 61, 0
5, 551040, Note_on_c, 4, 60, 100
5, 551040, Note_on_c, 4, 61, 100
5, 551040, Note_on_c, 0, 69, 100
5, 551280, Note_on_c, 4, 60, 0
5, 551280, Note_on_c, 4, 61, 0
5, 551280, Note_on_c, 0, 69, 0
5, 551360, Note_on_c, 4, 61, 100
5, 551600, Note_on_c, 4, 61, 0
5, 551680, Note_on_c, 4, 61, 100
5, 551920, Note_on_c, 4, 61, 0
5, 552000, Note_on_c, 4, 60, 100
5, 552000, Note_on_c, 4, 61, 100
5, 552000, Note_on_c, 0, 70, 100
5, 552240, Note_on_c, 4, 60, 0
5, 552240, Note_on_c, 4, 61, 0
5, 552240, Note_on_c, 0, 70, 0
5, 552640, Note_on_c, 4, 61, 100
5, 552880, Note_on_c, 4, 61, 0
5, 552960, Note_on_c, 4, 60, 100
5, 552960, Note_on_c, 4, 61, 100
5, 552960, Note_on_c, 0, 70, 100
5, 553200, Note_on_c, 4, 60, 0
5, 553200, Note_on_c, 4, 61, 0
5, 553280, Note_on_c, 4, 61, 100
5, 553520, Note_on_c, 4, 61, 0
5, 553600, Note_on_c, 4, 61, 100
5, 553840, Note_on_c, 4, 61, 0
5, 553920, Note_on_c, 4, 60, 100
5, 553920, Note_on_c, 4, 61, 100
5, 554160, Note_on_c, 4, 60, 0
5, 554160, Note_on_c, 4, 61, 0
5, 554560, Note_on_c, 0, 70, 0
5, 554560, Note_on_c, 4, 61, 100
5, 554800, Note_on_c, 4, 61, 0
5, 554880, Note_on_c, 4, 60, 100
5, 554880, Note_on_c, 4, 61, 100
5, 554880, Note_on_c, 0, 69, 100
5, 555120, Note_on_c, 4, 60, 0
5, 555120, Note_on_c, 4, 61, 0
5, 555120, Note_on_c, 0, 69, 0
5, 555200, Note_on_c, 4, 61, 100
5, 555440, Note_on_c, 4, 61, 0
5, 555520, Note_on_c, 4, 61, 100
5, 555760, Note_on_c, 4, 61, 0
5, 555840, Note_on_c, 4, 60, 100
5, 555840, Note_on_c, 4, 61, 100
5, 555840, Note_on_c, 0, 70, 100
5, 556080, Note_on_c, 4, 60, 0
5, 556080, Note_on_c, 4, 61, 0
5, 556080, Note_on_c, 0, 70, 0
5, 556480, Note_on_c, 4, 61, 100
5, 556720, Note_on_c, 4, 61, 0
5, 556800, Note_on_c, 4, 60, 100
5, 556800, Note_on_c, 4, 61, 100
5, 556800, Note_on_c, 0, 69, 100
5, 557040, Note_on_c, 4, 60, 0
5, 557040, Note_on_c, 4, 61, 0
5, 557040, Note_on_c, 0, 69, 0
5, 557120, Note_on_c, 4, 61, 100
5, 557360, Note_on_c, 4, 61, 0
5, 557440, Note_on_c, 4, 61, 100
5, 557680, Note_on_c, 4, 61, 0
5, 557760, Note_on_c, 4, 60, 100
5, 557760, Note_on_c, 4, 61, 100
5, 557760, Note_on_c, 0, 70, 100
5, 558000, Note_on_c, 4, 60, 0
5, 558000, Note_on_c, 4, 61, 0
5, 558000, Note_on_c, 0, 70, 0
5, 558400, Note_on_c, 4, 61, 100
5, 558640, Note_on_c, 4, 61, 0
5, 558720, Note_on_c, 4, 60, 100
5, 558720, Note_on_c, 4, 61, 100
5, 558720, Note_on_c, 0, 69, 100
5, 558960, Note_on_c, 4, 60, 0
5, 558960, Note_on_c, 4, 61, 0
5, 559040, Note_on_c, 4, 61, 100
5, 559280, Note_on_c, 4, 61, 0
5, 559360, Note_on_c, 4, 61, 100
5, 559600, Note_on_c, 4, 61, 0
5, 559680, Note_on_c, 0, 69, 0
5, 559680, Note_on_c, 4, 60, 100
5, 559680, Note_on_c, 4, 61, 100
5, 559680, Note_on_c, 0, 70, 100
5, 559920, Note_on_c, 4, 60, 0
5, 559920, Note_on_c, 4, 61, 0
5, 559920, Note_on_c, 0, 70, 0
5, 560320, Note_on_c, 4, 61, 100
5, 560560, Note_on_c, 4, 61, 0
5, 560640, Note_on_c, 4, 60, 100
5, 560640, Note_on_c, 4, 61, 100
5, 560640, Note_on_c, 0, 68, 100
5, 560880, Note_on_c, 4, 60, 0
5, 560880, Note_on_c, 4, 61, 0
5, 560880, Note_on_c, 0, 68, 0
5, 560960, Note_on_c, 4, 61, 100
5, 561200, Note_on_c, 4, 61, 0
5, 561280, Note_on_c, 4, 61, 100
5, 561280, Note_on_c, 0, 69, 100
5, 561520, Note_on_c, 4, 61, 0
5, 561600, Note_on_c, 4, 60, 100
5, 561600, Note_on_c, 4, 61, 100
5, 561840, Note_on_c, 4, 60, 0
5, 561840, Note_on_c, 4, 61, 0
5, 562240, Note_on_c, 4, 61, 100
5, 562480, Note_on_c, 4, 61, 0
5, 562560, Note_on_c, 4, 60, 100
5, 562560, Note_on_c, 4, 61, 100
5, 562800, Note_on_c, 4, 60, 0
5, 562800, Note_on_c, 4, 61, 0
5, 562880, Note_on_c, 4, 61, 100
5, 563120, Note_on_c, 4, 61, 0
5, 563200, Note_on_c, 0, 69, 0
5, 563200, Note_on_c, 4, 61, 100
5, 563440, Note_on_c, 4, 61, 0
5, 563520, Note_on_c, 4, 60, 100
5, 563520, Note_on_c, 4, 61, 100
5, 563520, Note_on_c, 0, 70, 100
5, 563760, Note_on_c, 4, 60, 0
5, 563760, Note_on_c, 4, 61, 0
5, 563760, Note_on_c, 0, 70, 0
5, 564160, Note_on_c, 4, 61, 100
5, 564160, Note_on_c, 0, 70, 100
5, 564400, Note_on_c, 4, 61, 0
5, 564400, Note_on_c, 0, 70, 0
5, 564480, Note_on_c, 4, 60, 100
5, 564480, Note_on_c, 4, 61, 100
5, 564480, Note_on_c, 0, 69, 100
5, 564720, Note_on_c, 4, 60, 0
5, 564720, Note_on_c, 4, 61, 0
5, 564800, Note_on_c, 4, 61, 100
5, 565040, Note_on_c, 4, 61, 0
5, 565120, Note_on_c, 4, 61, 100
5, 565360, Note_on_c, 4, 61, 0
5, 565440, Note_on_c, 4, 60, 100
5, 565440, Note_on_c, 4, 61, 100
5, 565680, Note_on_c, 4, 60, 0
5, 565680, Note_on_c, 4, 61, 0
5, 565920, Note_on_c, 0, 69, 0
5, 566080, Note_on_c, 4, 61, 100
5, 566320, Note_on_c, 4, 61, 0
5, 566400, Note_on_c, 4, 60, 100
5, 566400, Note_on_c, 4, 61, 100
5, 566400, Note_on_c, 0, 69, 100
5, 566640, Note_on_c, 4, 60, 0
5, 566640, Note_on_c, 4, 61, 0
5, 566640, Note_on_c, 0, 69, 0
5, 566720, Note_on_c, 4, 61, 100
5, 566960, Note_on_c, 4, 61, 0
5, 567040, Note_on_c, 4, 61, 100
5, 567040, Note_on_c, 0, 69, 100
5, 567280, Note_on_c, 4, 61, 0
5, 567280, Note_on_c, 0, 69, 0
5, 567360, Note_on_c, 4, 60, 100
5, 567360, Note_on_c, 4, 61, 100
5, 567360, Note_on_c, 0, 69, 100
5, 567600, Note_on_c, 4, 60, 0
5, 567600, Note_on_c, 4, 61, 0
5, 568000, Note_on_c, 4, 61, 100
5, 568240, Note_on_c, 4, 61, 0
5, 568320, Note_on_c, 4, 60, 100
5, 568320, Note_on_c, 4, 61, 100
5, 568560, Note_on_c, 4, 60, 0
5, 568560, Note_on_c, 4, 61, 0
5, 568640, Note_on_c, 4, 61, 100
5, 568800, Note_on_c, 0, 69, 0
5, 568880, Note_on_c, 4, 61, 0
5, 568960, Note_on_c, 4, 61, 100
5, 569200, Note_on_c, 4, 61, 0
5, 569280, Note_on_c, 4, 60, 100
5, 569280, Note_on_c, 4, 61, 100
5, 569280, Note_on_c, 0, 68, 100
5, 569520, Note_on_c, 4, 60, 0
5, 569520, Note_on_c, 4, 61, 0
5, 569520, Note_on_c, 0, 68, 0
5, 569920, Note_on_c, 4, 61, 100
5, 569920, Note_on_c, 0, 68, 100
5, 570160, Note_on_c, 4, 61, 0
5, 570160, Note_on_c, 0, 68, 0
5, 570240, Note_on_c, 4, 60, 100
5, 570240, Note_on_c, 4, 61, 100
5, 570240, Note_on_c, 0, 68, 100
5, 570480, Note_on_c, 4, 60, 0
5, 570480, Note_on_c, 4, 61, 0
5, 570560, Note_on_c, 4, 61, 100
5, 570800, Note_on_c, 4, 61, 0
5, 570880, Note_on_c, 4, 61, 100
5, 571120, Note_on_c, 4, 61, 0
5, 571200, Note_on_c, 4, 60, 100
5, 571200, Note_on_c, 4, 61, 100
5, 571440, Note_on_c, 4, 60, 0
5, 571440, Note_on_c, 4, 61, 0
5, 571840, Note_on_c, 4, 61, 100
5, 571920, Note_on_c, 0, 68, 0
5, 572080, Note_on_c, 4, 61, 0
5, 572160, Note_on_c, 4, 60, 100
5, 572160, Note_on_c, 4, 61, 100
5, 572160, Note_on_c, 0, 68, 100
5, 572400, Note_on_c, 4, 60, 0
5, 572400, Note_on_c, 4, 61, 0
5, 572400, Note_on_c, 0, 68, 0
5, 572480, Note_on_c, 4, 61, 100
5, 572640, Note_on_c, 0, 68, 100
5, 572720, Note_on_c, 4, 61, 0
5, 572800, Note_on_c, 4, 61, 100
5, 572880, Note_on_c, 0, 68, 0
5, 573040, Note_on_c, 4, 61, 0
5, 573120, Note_on_c, 4, 60, 100
5, 573120, Note_on_c, 4, 61, 100
5, 573360, Note_on_c, 4, 60, 0
5, 573360, Note_on_c, 4, 61, 0
5, 573440, Note_on_c, 0, 69, 100
5, 573680, Note_on_c, 0, 69, 0
5, 573760, Note_on_c, 4, 61, 100
5, 574000, Note_on_c, 4, 61, 0
5, 574080, Note_on_c, 4, 60, 100
5, 574080, Note_on_c, 4, 61, 100
5, 574080, Note_on_c, 0, 69, 100
5, 574320, Note_on_c, 4, 60, 0
5, 574320, Note_on_c, 4, 61, 0
5, 574400, Note_on_c, 4, 61, 100
5, 574640, Note_on_c, 4, 61, 0
5, 574720, Note_on_c, 4, 61, 100
5, 574960, Note_on_c, 4, 61, 0
5, 575040, Note_on_c, 4, 60, 100
5, 575040, Note_on_c, 4, 61, 100
5, 575280, Note_on_c, 4, 60, 0
5, 575280, Note_on_c, 4, 61, 0
5, 575520, Note_on_c, 0, 69, 0
5, 575680, Note_on_c, 4, 61, 100
5, 575920, Note_on_c, 4, 61, 0
5, 576000, Note_on_c, 4, 60, 100
5, 576000, Note_on_c, 4, 61, 100
5, 576000, Note_on_c, 0, 68, 100
5, 576240, Note_on_c, 4, 60, 0
5, 576240, Note_on_c, 4, 61, 0
5, 576240, Note_on_c, 0, 68, 0
5, 576320, Note_on_c, 4, 61, 100
5, 576560, Note_on_c, 4, 61, 0
5, 576640, Note_on_c, 4, 61, 100
5, 576640, Note_on_c, 0, 69, 100
5, 576880, Note_on_c, 4, 61, 0
5, 576880, Note_on_c, 0, 69, 0
5, 576960, Note_on_c, 4, 60, 100
5, 576960, Note_on_c, 4, 61, 100
5, 577200, Note_on_c, 4, 60, 0
5, 577200, Note_on_c, 4, 61, 0
5, 577280, Note_on_c, 0, 70, 100
5, 577520, Note_on_c, 0, 70, 0
5, 577600, Note_on_c, 4, 61, 100
5, 577840, Note_on_c, 4, 61, 0
5, 577920, Note_on_c, 4, 60, 100
5, 577920, Note_on_c, 4, 61, 100
5, 577920, Note_on_c, 0, 70, 100
5, 578160, Note_on_c, 4, 60, 0
5, 578160, Note_on_c, 4, 61, 0
5, 578240, Note_on_c, 4, 61, 100
5, 578480, Note_on_c, 4, 61, 0
5, 578560, Note_on_c, 4, 61, 100
5, 578800, Note_on_c, 4, 61, 0
5, 578880, Note_on_c, 4, 60, 100
5, 578880, Note_on_c, 4, 61, 100
5, 579120, Note_on_c, 4, 60, 0
5, 579120, Note_on_c, 4, 61, 0
5, 579360, Note_on_c, 0, 70, 0
5, 579520, Note_on_c, 4, 61, 100
5, 579760, Note_on_c, 4, 61, 0
5, 579840, Note_on_c, 4, 60, 100
5, 579840, Note_on_c, 4, 61, 100
5, 579840, Note_on_c, 0, 68, 100
5, 580080, Note_on_c, 4, 60, 0
5, 580080, Note_on_c, 4, 61, 0
5, 580080, Note_on_c, 0, 68, 0
5, 580160, Note_on_c, 4, 61, 100
5, 580400, Note_on_c, 4, 61, 0
5, 580480, Note_on_c, 4, 61, 100
5, 580480, Note_on_c, 0, 69, 100
5, 580720, Note_on_c, 4, 61, 0
5, 580720, Note_on_c, 0, 69, 0
5, 580800, Note_on_c, 4, 60, 100
5, 580800, Note_on_c, 4, 61, 100
5, 581040, Note_on_c, 4, 60, 0
5, 581040, Note_on_c, 4, 61, 0
5, 581120, Note_on_c, 0, 70, 100
5, 581360, Note_on_c, 0, 70, 0
5, 581440, Note_on_c, 4, 61, 100
5, 581680, Note_on_c, 4, 61, 0
5, 581760, Note_on_c, 4, 60, 100
5, 581760, Note_on_c, 4, 61, 100
5, 581760, Note_on_c, 0, 70, 100
5, 582000, Note_on_c, 4, 60, 0
5, 582000, Note_on_c, 4, 61, 0
5, 582080, Note_on_c, 4, 61, 100
5, 582320, Note_on_c, 4, 61, 0
5, 582400, Note_on_c, 4, 61, 100
5, 582640, Note_on_c, 4, 61, 0
5, 582720, Note_on_c, 4, 60, 100
5, 582720, Note_on_c, 4, 61, 100
5, 582960, Note_on_c, 4, 60, 0
5, 582960, Note_on_c, 4, 61, 0
5, 583200, Note_on_c, 0, 70, 0
5, 583360, Note_on_c, 4, 61, 100
5, 583600, Note_on_c, 4, 61, 0
5, 583680, Note_on_c, 4, 60, 100
5, 583680, Note_on_c, 4, 61, 100
5, 583680, Note_on_c, 0, 68, 100
5, 583920, Note_on_c, 4, 60, 0
5, 583920, Note_on_c, 4, 61, 0
5, 583920, Note_on_c, 0, 68, 0
5, 584000, Note_on_c, 4, 61, 100
5, 584240, Note_on_c, 4, 61, 0
5, 584320, Note_on_c, 4, 61, 100
5, 584320, Note_on_c, 0, 69, 100
5, 584560, Note_on_c, 4, 61, 0
5, 584560, Note_on_c, 0, 69, 0
5, 584640, Note_on_c, 4, 60, 100
5, 584640, Note_on_c, 4, 61, 100
5, 584880, Note_on_c, 4, 60, 0
5, 584880, Note_on_c, 4, 61, 0
5, 584960, Note_on_c, 0, 70, 100
5, 585200, Note_on_c, 0, 70, 0
5, 585280, Note_on_c, 4, 61, 100
5, 585520, Note_on_c, 4, 61, 0
5, 585600, Note_on_c, 4, 60, 100
5, 585600, Note_on_c, 4, 61, 100
5, 585600, Note_on_c, 0, 70, 100
5, 585840, Note_on_c, 4, 60, 0
5, 585840, Note_on_c, 4, 61, 0
5, 585920, Note_on_c, 4, 61, 100
5, 586160, Note_on_c, 4, 61, 0
5, 586240, Note_on_c, 4, 61, 100
5, 586480, Note_on_c, 4, 61, 0
5, 586560, Note_on_c, 0, 70, 0
5, 586560, Note_on_c, 4, 60, 100
5, 586560, Note_on_c, 4, 61, 100
5, 586560, Note_on_c, 0, 68, 100
5, 586800, Note_on_c, 4, 60, 0
5, 586800, Note_on_c, 4, 61, 0
5, 587200, Note_on_c, 4, 61, 100
5, 587360, Note_on_c, 0, 68, 0
5, 587440, Note_on_c, 4, 61, 0
5, 587520, Note_on_c, 4, 60, 100
5, 587520, Note_on_c, 4, 61, 100
5, 587520, Note_on_c, 0, 70, 100
5, 587760, Note_on_c, 4, 60, 0
5, 587760, Note_on_c, 4, 61, 0
5, 587760, Note_on_c, 0, 70, 0
5, 587840, Note_on_c, 4, 61, 100
5, 588080, Note_on_c, 4, 61, 0
5, 588160, Note_on_c, 4, 61, 100
5, 588400, Note_on_c, 4, 61, 0
5, 588480, Note_on_c, 4, 60, 100
5, 588480, Note_on_c, 4, 61, 100
5, 588480, Note_on_c, 0, 69, 100
5, 588720, Note_on_c, 4, 60, 0
5, 588720, Note_on_c, 4, 61, 0
5, 588720, Note_on_c, 0, 69, 0
5, 589120, Note_on_c, 4, 61, 100
5, 589360, Note_on_c, 4, 61, 0
5, 589440, Note_on_c, 4, 60, 100
5, 589440, Note_on_c, 4, 61, 100
5, 589440, Note_on_c, 0, 70, 100
5, 589680, Note_on_c, 4, 60, 0
5, 589680, Note_on_c, 4, 61, 0
5, 589680, Note_on_c, 0, 70, 0
5, 589760, Note_on_c, 4, 61, 100
5, 590000, Note_on_c, 4, 61, 0
5, 590080, Note_on_c, 4, 61, 100
5, 590320, Note_on_c, 4, 61, 0
5, 590400, Note_on_c, 4, 60, 100
5, 590400, Note_on_c, 4, 61, 100
5, 590400, Note_on_c, 0, 69, 100
5, 590640, Note_on_c, 4, 60, 0
5, 590640, Note_on_c, 4, 61, 0
5, 590640, Note_on_c, 0, 69, 0
5, 591040, Note_on_c, 4, 61, 100
5, 591280, Note_on_c, 4, 61, 0
5, 591360, Note_on_c, 4, 60, 100
5, 591360, Note_on_c, 4, 61, 100
5, 591360, Note_on_c, 0, 70, 100
5, 591600, Note_on_c, 4, 60, 0
5, 591600, Note_on_c, 4, 61, 0
5, 591600, Note_on_c, 0, 70, 0
5, 591680, Note_on_c, 4, 61, 100
5, 591920, Note_on_c, 4, 61, 0
5, 592000, Note_on_c, 4, 61, 100
5, 592240, Note_on_c, 4, 61, 0
5, 592320, Note_on_c, 4, 60, 100
5, 592320, Note_on_c, 4, 61, 100
5, 592320, Note_on_c, 0, 69, 100
5, 592560, Note_on_c, 4, 60, 0
5, 592560, Note_on_c, 4, 61, 0
5, 592560, Note_on_c, 0, 69, 0
5, 592960, Note_on_c, 4, 61, 100
5, 593200, Note_on_c, 4, 61, 0
5, 593280, Note_on_c, 4, 60, 100
5, 593280, Note_on_c, 4, 61, 100
5, 593280, Note_on_c, 0, 70, 100
5, 593520, Note_on_c, 4, 60, 0
5, 593520, Note_on_c, 4, 61, 0
5, 593520, Note_on_c, 0, 70, 0
5, 593600, Note_on_c, 4, 61, 100
5, 593840, Note_on_c, 4, 61, 0
5, 593920, Note_on_c, 4, 61, 100
5, 594160, Note_on_c, 4, 61, 0
5, 594240, Note_on_c, 4, 60, 100
5, 594240, Note_on_c, 4, 61, 100
5, 594240, Note_on_c, 0, 69, 100
5, 594480, Note_on_c, 4, 60, 0
5, 594480, Note_on_c, 4, 61, 0
5, 594480, Note_on_c, 0, 69, 0
5, 595200, Note_on_c, 4, 60, 100
5, 595200, Note_on_c, 4, 61, 100
5, 595200, Note_on_c, 0, 70, 100
5, 595440, Note_on_c, 4, 60, 0
5, 595440, Note_on_c, 4, 61, 0
5, 595440, Note_on_c, 0, 70, 0
5, 596160, Note_on_c, 4, 61, 100
5, 596400, Note_on_c, 4, 61, 0
5, 597120, Note_on_c, 4, 61, 100
5, 597360, Note_on_c, 4, 61, 0
5, 598080, Note_on_c, 4, 61, 100
5, 598320, Note_on_c, 4, 61, 0
5, 599040, Note_on_c, 4, 61, 100
5, 599280, Note_on_c, 4, 61, 0
5, 600000, Note_on_c, 4, 61, 100
5, 600240, Note_on_c, 4, 61, 0
5, 600960, Note_on_c, 4, 61, 100
5, 601200, Note_on_c, 4, 61, 0
5, 601920, Note_on_c, 4, 61, 100
5, 602160, Note_on_c, 4, 61, 0
5, 602880, Note_on_c, 4, 61, 100
5, 603120, Note_on_c, 4, 61, 0
5, 603840, Note_on_c, 4, 61, 100
5, 604080, Note_on_c, 4, 61, 0
5, 604800, Note_on_c, 4, 61, 100
5, 605040, Note_on_c, 4, 61, 0
5, 605760, Note_on_c, 4, 61, 100
5, 606000, Note_on_c, 4, 61, 0
5, 606720, Note_on_c, 4, 61, 100
5, 606960, Note_on_c, 4, 61, 0
5, 607680, Note_on_c, 4, 61, 100
5, 607920, Note_on_c, 4, 61, 0
5, 608640, Note_on_c, 4, 61, 100
5, 608880, Note_on_c, 4, 61, 0
5, 609600, Note_on_c, 4, 61, 100
5, 609840, Note_on_c, 4, 61, 0
5, 610560, Note_on_c, 4, 61, 100
5, 610800, Note_on_c, 4, 61, 0
5, 611520, Note_on_c, 4, 61, 100
5, 611760, Note_on_c, 4, 61, 0
5, 612480, Note_on_c, 4, 61, 100
5, 612720, Note_on_c, 4, 61, 0
5, 613440, Note_on_c, 4, 61, 100
5, 613680, Note_on_c, 4, 61, 0
5, 614400, Note_on_c, 4, 61, 100
5, 614640, Note_on_c, 4, 61, 0
5, 615360, Note_on_c, 4, 61, 100
5, 615600, Note_on_c, 4, 61, 0
5, 616320, Note_on_c, 4, 61, 100
5, 616560, Note_on_c, 4, 61, 0
5, 617280, Note_on_c, 4, 61, 100
5, 617520, Note_on_c, 4, 61, 0
5, 618240, Note_on_c, 4, 61, 100
5, 618480, Note_on_c, 4, 61, 0
5, 619200, Note_on_c, 4, 61, 100
5, 619440, Note_on_c, 4, 61, 0
5, 620160, Note_on_c, 4, 61, 100
5, 620400, Note_on_c, 4, 61, 0
5, 621120, Note_on_c, 4, 61, 100
5, 621360, Note_on_c, 4, 61, 0
5, 622080, Note_on_c, 4, 61, 100
5, 622320, Note_on_c, 4, 61, 0
5, 623040, Note_on_c, 4, 61, 100
5, 623280, Note_on_c, 4, 61, 0
5, 624000, Note_on_c, 4, 61, 100
5, 624000, Note_on_c, 0, 70, 100
5, 624240, Note_on_c, 4, 61, 0
5, 624240, Note_on_c, 0, 70, 0
5, 624960, Note_on_c, 4, 61, 100
5, 624960, Note_on_c, 0, 69, 100
5, 625200, Note_on_c, 4, 61, 0
5, 625920, Note_on_c, 0, 69, 0
5, 625920, Note_on_c, 4, 60, 100
5, 625920, Note_on_c, 4, 61, 100
5, 625920, Note_on_c, 0, 68, 100
5, 626160, Note_on_c, 4, 60, 0
5, 626160, Note_on_c, 4, 61, 0
5, 626160, Note_on_c, 0, 68, 0
5, 626880, Note_on_c, 4, 61, 100
5, 626880, Note_on_c, 0, 70, 100
5, 627120, Note_on_c, 4, 61, 0
5, 627120, Note_on_c, 0, 70, 0
5, 627840, Note_on_c, 4, 61, 100
5, 627840, Note_on_c, 0, 68, 100
5, 628080, Note_on_c, 4, 61, 0
5, 628080, Note_on_c, 0, 68, 0
5, 628800, Note_on_c, 4, 61, 100
5, 628800, Note_on_c, 0, 70, 100
5, 629040, Note_on_c, 4, 61, 0
5, 629040, Note_on_c, 0, 70, 0
5, 629760, Note_on_c, 4, 60, 100
5, 629760, Note_on_c, 4, 61, 100
5, 629760, Note_on_c, 0, 68, 100
5, 630000, Note_on_c, 4, 60, 0
5, 630000, Note_on_c, 4, 61, 0
5, 630000, Note_on_c, 0, 68, 0
5, 630720, Note_on_c, 4, 61, 100
5, 630720, Note_on_c, 0, 70, 100
5, 630960, Note_on_c, 4, 61, 0
5, 630960, Note_on_c, 0, 70, 0
5, 631680, Note_on_c, 4, 60, 100
5, 631680, Note_on_c, 4, 61, 100
5, 631680, Note_on_c, 0, 68, 100
5, 631920, Note_on_c, 4, 60, 0
5, 631920, Note_on_c, 4, 61, 0
5, 631920, Note_on_c, 0, 68, 0
5, 632640, Note_on_c, 4, 61, 100
5, 632640, Note_on_c, 0, 70, 100
5, 632880, Note_on_c, 4, 61, 0
5, 632880, Note_on_c, 0, 70, 0
5, 633280, Note_on_c, 0, 69, 100
5, 633520, Note_on_c, 0, 69, 0
5, 633600, Note_on_c, 4, 60, 100
5, 633600, Note_on_c, 4, 61, 100
5, 633600, Note_on_c, 0, 70, 100
5, 633840, Note_on_c, 4, 60, 0
5, 633840, Note_on_c, 4, 61, 0
5, 633840, Note_on_c, 0, 70, 0
5, 634560, Note_on_c, 4, 61, 100
5, 634560, Note_on_c, 0, 70, 100
5, 634800, Note_on_c, 4, 61, 0
5, 634800, Note_on_c, 0, 70, 0
5, 635520, Note_on_c, 4, 60, 100
5, 635520, Note_on_c, 4, 61, 100
5, 635520, Note_on_c, 0, 68, 100
5, 635760, Note_on_c, 4, 60, 0
5, 635760, Note_on_c, 4, 61, 0
5, 635760, Note_on_c, 0, 68, 0
5, 636480, Note_on_c, 4, 61, 100
5, 636480, Note_on_c, 0, 70, 100
5, 636720, Note_on_c, 4, 61, 0
5, 636720, Note_on_c, 0, 70, 0
5, 637120, Note_on_c, 4, 61, 100
5, 637360, Note_on_c, 4, 61, 0
5, 637440, Note_on_c, 4, 60, 100
5, 637440, Note_on_c, 4, 61, 100
5, 637440, Note_on_c, 0, 68, 100
5, 637680, Note_on_c, 4, 60, 0
5, 637680, Note_on_c, 4, 61, 0
5, 637680, Note_on_c, 0, 68, 0
5, 638400, Note_on_c, 4, 61, 100
5, 638400, Note_on_c, 0, 70, 100
5, 638640, Note_on_c, 4, 61, 0
5, 638640, Note_on_c, 0, 70, 0
5, 639360, Note_on_c, 4, 60, 100
5, 639360, Note_on_c, 4, 61, 100
5, 639360, Note_on_c, 0, 68, 100
5, 639600, Note_on_c, 4, 60, 0
5, 639600, Note_on_c, 4, 61, 0
5, 639600, Note_on_c, 0, 68, 0
5, 640320, Note_on_c, 4, 61, 100
5, 640320, Note_on_c, 0, 70, 100
5, 640560, Note_on_c, 4, 61, 0
5, 640560, Note_on_c, 0, 70, 0
5, 641280, Note_on_c, 4, 60, 100
5, 641280, Note_on_c, 4, 61, 100
5, 641280, Note_on_c, 0, 68, 100
5, 641520, Note_on_c, 4, 60, 0
5, 641520, Note_on_c, 4, 61, 0
5, 641520, Note_on_c, 0, 68, 0
5, 642240, Note_on_c, 4, 61, 100
5, 642240, Note_on_c, 0, 68, 100
5, 642480, Note_on_c, 4, 61, 0
5, 642480, Note_on_c, 0, 68, 0
5, 643200, Note_on_c, 4, 60, 100
5, 643200, Note_on_c, 4, 61, 100
5, 643200, Note_on_c, 0, 68, 100
5, 643440, Note_on_c, 4, 60, 0
5, 643440, Note_on_c, 4, 61, 0
5, 643440, Note_on_c, 0, 68, 0
5, 644160, Note_on_c, 4, 61, 100
5, 644160, Note_on_c, 0, 68, 100
5, 644400, Note_on_c, 4, 61, 0
5, 644400, Note_on_c, 0, 68, 0
5, 645120, Note_on_c, 4, 60, 100
5, 645120, Note_on_c, 4, 61, 100
5, 645120, Note_on_c, 0, 68, 100
5, 645360, Note_on_c, 4, 60, 0
5, 645360, Note_on_c, 4, 61, 0
5, 645360, Note_on_c, 0, 68, 0
5, 646080, Note_on_c, 4, 61, 100
5, 646080, Note_on_c, 0, 68, 100
5, 646320, Note_on_c, 4, 61, 0
5, 646320, Note_on_c, 0, 68, 0
5, 647040, Note_on_c, 4, 60, 100
5, 647040, Note_on_c, 4, 61, 100
5, 647040, Note_on_c, 0, 68, 100
5, 647280, Note_on_c, 4, 60, 0
5, 647280, Note_on_c, 4, 61, 0
5, 647280, Note_on_c, 0, 68, 0
5, 648000, Note_on_c, 4, 61, 100
5, 648000, Note_on_c, 0, 68, 100
5, 648240, Note_on_c, 4, 61, 0
5, 648240, Note_on_c, 0, 68, 0
5, 648640, Note_on_c, 0, 68, 100
5, 648880, Note_on_c, 0, 68, 0
5, 648960, Note_on_c, 4, 60, 100
5, 648960, Note_on_c, 4, 61, 100
5, 648960, Note_on_c, 0, 69, 100
5, 649200, Note_on_c, 4, 60, 0
5, 649200, Note_on_c, 4, 61, 0
5, 649200, Note_on_c, 0, 69, 0
5, 649920, Note_on_c, 4, 61, 100
5, 649920, Note_on_c, 0, 69, 100
5, 650160, Note_on_c, 4, 61, 0
5, 650160, Note_on_c, 0, 69, 0
5, 650880, Note_on_c, 4, 60, 100
5, 650880, Note_on_c, 4, 61, 100
5, 650880, Note_on_c, 0, 69, 100
5, 651120, Note_on_c, 4, 60, 0
5, 651120, Note_on_c, 4, 61, 0
5, 651120, Note_on_c, 0, 69, 0
5, 651840, Note_on_c, 4, 61, 100
5, 651840, Note_on_c, 0, 69, 100
5, 652080, Note_on_c, 4, 61, 0
5, 652080, Note_on_c, 0, 69, 0
5, 652800, Note_on_c, 4, 60, 100
5, 652800, Note_on_c, 4, 61, 100
5, 652800, Note_on_c, 0, 69, 100
5, 653040, Note_on_c, 4, 60, 0
5, 653040, Note_on_c, 4, 61, 0
5, 653040, Note_on_c, 0, 69, 0
5, 653760, Note_on_c, 4, 61, 100
5, 653760, Note_on_c, 0, 69, 100
5, 654000, Note_on_c, 4, 61, 0
5, 654000, Note_on_c, 0, 69, 0
5, 654720, Note_on_c, 4, 60, 100
5, 654720, Note_on_c, 4, 61, 100
5, 654720, Note_on_c, 0, 69, 100
5, 654960, Note_on_c, 4, 60, 0
5, 654960, Note_on_c, 4, 61, 0
5, 654960, Note_on_c, 0, 69, 0
5, 655360, Note_on_c, 0, 69, 100
5, 655600, Note_on_c, 0, 69, 0
5, 655680, Note_on_c, 4, 61, 100
5, 655680, Note_on_c, 0, 69, 100
5, 655920, Note_on_c, 4, 61, 0
5, 655920, Note_on_c, 0, 69, 0
5, 656320, Note_on_c, 0, 69, 100
5, 656560, Note_on_c, 0, 69, 0
5, 656640, Note_on_c, 4, 60, 100
5, 656640, Note_on_c, 4, 61, 100
5, 656640, Note_on_c, 0, 68, 100
5, 656880, Note_on_c, 4, 60, 0
5, 656880, Note_on_c, 4, 61, 0
5, 656880, Note_on_c, 0, 68, 0
5, 657600, Note_on_c, 4, 61, 100
5, 657600, Note_on_c, 0, 70, 100
5, 657840, Note_on_c, 4, 61, 0
5, 657840, Note_on_c, 0, 70, 0
5, 658560, Note_on_c, 4, 60, 100
5, 658560, Note_on_c, 4, 61, 100
5, 658560, Note_on_c, 0, 70, 100
5, 658800, Note_on_c, 4, 60, 0
5, 658800, Note_on_c, 4, 61, 0
5, 658800, Note_on_c, 0, 70, 0
5, 659520, Note_on_c, 4, 61, 100
5, 659520, Note_on_c, 0, 68, 100
5, 659760, Note_on_c, 4, 61, 0
5, 659760, Note_on_c, 0, 68, 0
5, 660480, Note_on_c, 4, 60, 100
5, 660480, Note_on_c, 4, 61, 100
5, 660480, Note_on_c, 0, 70, 100
5, 660720, Note_on_c, 4, 60, 0
5, 660720, Note_on_c, 4, 61, 0
5, 660720, Note_on_c, 0, 70, 0
5, 661440, Note_on_c, 4, 61, 100
5, 661440, Note_on_c, 0, 70, 100
5, 661680, Note_on_c, 4, 61, 0
5, 661680, Note_on_c, 0, 70, 0
5, 662400, Note_on_c, 4, 60, 100
5, 662400, Note_on_c, 4, 61, 100
5, 662400, Note_on_c, 0, 68, 100
5, 662640, Note_on_c, 4, 60, 0
5, 662640, Note_on_c, 4, 61, 0
5, 662640, Note_on_c, 0, 68, 0
5, 663360, Note_on_c, 4, 61, 100
5, 663360, Note_on_c, 0, 70, 100
5, 663600, Note_on_c, 4, 61, 0
5, 663600, Note_on_c, 0, 70, 0
5, 664320, Note_on_c, 4, 60, 100
5, 664320, Note_on_c, 4, 61, 100
5, 664320, Note_on_c, 0, 68, 100
5, 664560, Note_on_c, 4, 60, 0
5, 664560, Note_on_c, 4, 61, 0
5, 664560, Note_on_c, 0, 68, 0
5, 665280, Note_on_c, 4, 61, 100
5, 665280, Note_on_c, 0, 70, 100
5, 665520, Note_on_c, 4, 61, 0
5, 665520, Note_on_c, 0, 70, 0
5, 666240, Note_on_c, 4, 60, 100
5, 666240, Note_on_c, 4, 61, 100
5, 666240, Note_on_c, 0, 70, 100
5, 666480, Note_on_c, 4, 60, 0
5, 666480, Note_on_c, 4, 61, 0
5, 666480, Note_on_c, 0, 70, 0
5, 667200, Note_on_c, 4, 61, 100
5, 667200, Note_on_c, 0, 68, 100
5, 667440, Note_on_c, 4, 61, 0
5, 667440, Note_on_c, 0, 68, 0
5, 668160, Note_on_c, 4, 60, 100
5, 668160, Note_on_c, 4, 61, 100
5, 668160, Note_on_c, 0, 70, 100
5, 668400, Note_on_c, 4, 60, 0
5, 668400, Note_on_c, 4, 61, 0
5, 668400, Note_on_c, 0, 70, 0
5, 669120, Note_on_c, 4, 61, 100
5, 669120, Note_on_c, 0, 70, 100
5, 669360, Note_on_c, 4, 61, 0
5, 669360, Note_on_c, 0, 70, 0
5, 670080, Note_on_c, 4, 60, 100
5, 670080, Note_on_c, 4, 61, 100
5, 670080, Note_on_c, 0, 68, 100
5, 670320, Note_on_c, 4, 60, 0
5, 670320, Note_on_c, 4, 61, 0
5, 670320, Note_on_c, 0, 68, 0
5, 671040, Note_on_c, 4, 61, 100
5, 671040, Note_on_c, 0, 69, 100
5, 671280, Note_on_c, 4, 61, 0
5, 671280, Note_on_c, 0, 69, 0
5, 672000, Note_on_c, 4, 60, 100
5, 672000, Note_on_c, 4, 61, 100
5, 672000, Note_on_c, 0, 68, 100
5, 672240, Note_on_c, 4, 60, 0
5, 672240, Note_on_c, 4, 61, 0
5, 672240, Note_on_c, 0, 68, 0
5, 672960, Note_on_c, 4, 61, 100
5, 672960, Note_on_c, 0, 68, 100
5, 673200, Note_on_c, 4, 61, 0
5, 673200, Note_on_c, 0, 68, 0
5, 673920, Note_on_c, 4, 60, 100
5, 673920, Note_on_c, 4, 61, 100
5, 673920, Note_on_c, 0, 68, 100
5, 674160, Note_on_c, 4, 60, 0
5, 674160, Note_on_c, 4, 61, 0
5, 674160, Note_on_c, 0, 68, 0
5, 674880, Note_on_c, 4, 61, 100
5, 674880, Note_on_c, 0, 68, 100
5, 675120, Note_on_c, 4, 61, 0
5, 675120, Note_on_c, 0, 68, 0
5, 675520, Note_on_c, 0, 68, 100
5, 675760, Note_on_c, 0, 68, 0
5, 675840, Note_on_c, 4, 60, 100
5, 675840, Note_on_c, 4, 61, 100
5, 675840, Note_on_c, 0, 68, 100
5, 676080, Note_on_c, 4, 60, 0
5, 676080, Note_on_c, 4, 61, 0
5, 676080, Note_on_c, 0, 68, 0
5, 676800, Note_on_c, 4, 61, 100
5, 676800, Note_on_c, 0, 68, 100
5, 677040, Note_on_c, 4, 61, 0
5, 677040, Note_on_c, 0, 68, 0
5, 677440, Note_on_c, 0, 68, 100
5, 677680, Note_on_c, 0, 68, 0
5, 677760, Note_on_c, 4, 60, 100
5, 677760, Note_on_c, 4, 61, 100
5, 677760, Note_on_c, 0, 68, 100
5, 678000, Note_on_c, 4, 60, 0
5, 678000, Note_on_c, 4, 61, 0
5, 678000, Note_on_c, 0, 68, 0
5, 678720, Note_on_c, 4, 61, 100
5, 678720, Note_on_c, 0, 68, 100
5, 678960, Note_on_c, 4, 61, 0
5, 678960, Note_on_c, 0, 68, 0
5, 679360, Note_on_c, 4, 61, 100
5, 679360, Note_on_c, 0, 68, 100
5, 679600, Note_on_c, 4, 61, 0
5, 679600, Note_on_c, 0, 68, 0
5, 679680, Note_on_c, 4, 60, 100
5, 679680, Note_on_c, 4, 61, 100
5, 679680, Note_on_c, 0, 69, 100
5, 679920, Note_on_c, 4, 60, 0
5, 679920, Note_on_c, 4, 61, 0
5, 679920, Note_on_c, 0, 69, 0
5, 680640, Note_on_c, 4, 61, 100
5, 680640, Note_on_c, 0, 69, 100
5, 680880, Note_on_c, 4, 61, 0
5, 680880, Note_on_c, 0, 69, 0
5, 681600, Note_on_c, 4, 60, 100
5, 681600, Note_on_c, 4, 61, 100
5, 681600, Note_on_c, 0, 69, 100
5, 681840, Note_on_c, 4, 60, 0
5, 681840, Note_on_c, 4, 61, 0
5, 681840, Note_on_c, 0, 69, 0
5, 682560, Note_on_c, 4, 61, 100
5, 682560, Note_on_c, 0, 69, 100
5, 682800, Note_on_c, 4, 61, 0
5, 682800, Note_on_c, 0, 69, 0
5, 683520, Note_on_c, 4, 60, 100
5, 683520, Note_on_c, 4, 61, 100
5, 683520, Note_on_c, 0, 69, 100
5, 683760, Note_on_c, 4, 60, 0
5, 683760, Note_on_c, 4, 61, 0
5, 683760, Note_on_c, 0, 69, 0
5, 684480, Note_on_c, 4, 61, 100
5, 684480, Note_on_c, 0, 69, 100
5, 684720, Note_on_c, 4, 61, 0
5, 684720, Note_on_c, 0, 69, 0
5, 685120, Note_on_c, 0, 69, 100
5, 685360, Note_on_c, 0, 69, 0
5, 685440, Note_on_c, 4, 60, 100
5, 685440, Note_on_c, 4, 61, 100
5, 685440, Note_on_c, 0, 69, 100
5, 685680, Note_on_c, 4, 60, 0
5, 685680, Note_on_c, 4, 61, 0
5, 685680, Note_on_c, 0, 69, 0
5, 686080, Note_on_c, 0, 69, 100
5, 686320, Note_on_c, 0, 69, 0
5, 686400, Note_on_c, 4, 61, 100
5, 686400, Note_on_c, 0, 69, 100
5, 686640, Note_on_c, 4, 61, 0
5, 686640, Note_on_c, 0, 69, 0
5, 687360, Note_on_c, 4, 60, 100
5, 687360, Note_on_c, 4, 61, 100
5, 687360, Note_on_c, 0, 69, 100
5, 687360, Note_on_c, 0, 70, 100
5, 687600, Note_on_c, 4, 60, 0
5, 687600, Note_on_c, 4, 61, 0
5, 687600, Note_on_c, 0, 69, 0
5, 687600, Note_on_c, 0, 70, 0
5, 689280, Note_on_c, 4, 60, 100
5, 689280, Note_on_c, 4, 61, 100
5, 689280, Note_on_c, 0, 69, 100
5, 689280, Note_on_c, 0, 70, 100
5, 689520, Note_on_c, 4, 60, 0
5, 689520, Note_on_c, 4, 61, 0
5, 689520, Note_on_c, 0, 69, 0
5, 689520, Note_on_c, 0, 70, 0
5, 691200, Note_on_c, 4, 60, 100
5, 691200, Note_on_c, 4, 61, 100
5, 691200, Note_on_c, 0, 69, 100
5, 691200, Note_on_c, 0, 70, 100
5, 691440, Note_on_c, 4, 60, 0
5, 691440, Note_on_c, 4, 61, 0
5, 691440, Note_on_c, 0, 69, 0
5, 691440, Note_on_c, 0, 70, 0
5, 693120, Note_on_c, 4, 60, 100
5, 693120, Note_on_c, 4, 61, 100
5, 693120, Note_on_c, 0, 69, 100
5, 693120, Note_on_c, 0, 70, 100
5, 693360, Note_on_c, 4, 60, 0
5, 693360, Note_on_c, 4, 61, 0
5, 693360, Note_on_c, 0, 69, 0
5, 693360, Note_on_c, 0, 70, 0
5, 695040, Note_on_c, 4, 60, 100
5, 695040, Note_on_c, 4, 61, 100
5, 695040, Note_on_c, 0, 69, 100
5, 695040, Note_on_c, 0, 70, 100
5, 695280, Note_on_c, 4, 60, 0
5, 695280, Note_on_c, 4, 61, 0
5, 695280, Note_on_c, 0, 69, 0
5, 695280, Note_on_c, 0, 70, 0
5, 695280, End_track
6, 0, Start_track
6, 0, Title_t, "BAND BASS"
6, 0, Text_t, "sing_off"
6, 0, Text_t, "gtr_off"
6, 0, Text_t, "drum_off"
6, 0, Text_t, "[idle]"
6, 7680, Text_t, "[chorus]"
6, 7680, Text_t, "gtr_on"
6, 7680, Text_t, "drum_on"
6, 7680, Text_t, "[play]"
6, 7680, Text_t, "[section intro]"
6, 15360, Text_t, "[verse]"
6, 46080, Text_t, "[section verse_1]"
6, 47998, Text_t, "sing_on"
6, 76800, Text_t, "sing_off"
6, 76800, Text_t, "[chorus]"
6, 86400, Text_t, "sing_on"
6, 92160, Text_t, "[verse]"
6, 94080, Text_t, "sing_off"
6, 107520, Text_t, "[section verse_2]"
6, 109440, Text_t, "sing_on"
6, 138240, Text_t, "[chorus]"
6, 140160, Text_t, "sing_off"
6, 148800, Text_t, "sing_on"
6, 153600, Text_t, "[verse]"
6, 155520, Text_t, "sing_off"
6, 164160, Text_t, "sing_on"
6, 168960, Text_t, "[chorus]"
6, 172800, Text_t, "sing_off"
6, 179520, Text_t, "sing_on"
6, 184320, Text_t, "[verse]"
6, 186000, Text_t, "sing_off"
6, 195840, Text_t, "[section chorus_1]"
6, 198720, Text_t, "sing_on"
6, 199680, Text_t, "[chorus]"
6, 199680, Text_t, "drum_double"
6, 207358, Text_t, "[lighting (sweep)]"
6, 207360, Text_t, "drum_normal"
6, 215040, Text_t, "drum_double"
6, 222720, Text_t, "drum_normal"
6, 230400, Text_t, "drum_double"
6, 238080, Text_t, "drum_normal"
6, 245760, Text_t, "drum_double"
6, 253440, Text_t, "drum_normal"
6, 261120, Text_t, "[verse]"
6, 261120, Text_t, "wail_off"
6, 264960, Text_t, "sing_off"
6, 276480, Text_t, "[section verse_3]"
6, 278400, Text_t, "sing_on"
6, 307200, Text_t, "[chorus]"
6, 309120, Text_t, "sing_off"
6, 317760, Text_t, "sing_on"
6, 322560, Text_t, "[verse]"
6, 324480, Text_t, "sing_off"
6, 337920, Text_t, "[section verse_4]"
6, 339840, Text_t, "sing_on"
6, 368640, Text_t, "[chorus]"
6, 370560, Text_t, "sing_off"
6, 378240, Text_t, "sing_on"
6, 384000, Text_t, "[verse]"
6, 386158, Text_t, "sing_off"
6, 395520, Text_t, "sing_on"
6, 399360, Text_t, "[chorus]"
6, 414720, Text_t, "[verse]"
6, 416640, Text_t, "sing_off"
6, 426240, Text_t, "[section chorus_2]"
6, 428160, Text_t, "sing_on"
6, 430080, Text_t, "[chorus]"
6, 430080, Text_t, "drum_double"
6, 437760, Text_t, "[lighting (sweep)]"
6, 437760, Text_t, "drum_normal"
6, 445440, Text_t, "drum_double"
6, 453120, Text_t, "drum_normal"
6, 460800, Text_t, "drum_double"
6, 468480, Text_t, "drum_normal"
6, 476160, Text_t, "drum_double"
6, 483840, Text_t, "drum_normal"
6, 491520, Text_t, "[section heavy_riff]"
6, 499200, Text_t, "sing_off"
6, 503040, Text_t, "drum_allbeat"
6, 504000, Text_t, "drum_half"
6, 506880, Text_t, "drum_normal"
6, 518400, Text_t, "drum_allbeat"
6, 519360, Text_t, "drum_half"
6, 522240, Text_t, "drum_allbeat"
6, 523200, Text_t, "drum_half"
6, 526080, Text_t, "drum_allbeat"
6, 527040, Text_t, "drum_half"
6, 529920, Text_t, "drum_allbeat"
6, 530880, Text_t, "drum_half"
6, 533760, Text_t, "wail_off"
6, 533760, Text_t, "gtr_off"
6, 533760, Text_t, "[verse]"
6, 533760, Text_t, "drum_allbeat"
6, 534720, Text_t, "drum_off"
6, 549120, Text_t, "[section gtr_solo]"
6, 549120, Text_t, "drum_double"
6, 549120, Text_t, "gtr_on"
6, 549120, Text_t, "solo_on"
6, 549120, Text_t, "[solo]"
6, 595200, Text_t, "gtr_off"
6, 595200, Text_t, "solo_off"
6, 595200, Text_t, "[verse]"
6, 596160, Text_t, "drum_off"
6, 610560, Text_t, "[section outro]"
6, 613440, Text_t, "sing_on"
6, 624000, Text_t, "gtr_on"
6, 625920, Text_t, "drum_on"
6, 641280, Text_t, "[chorus]"
6, 643200, Text_t, "sing_off"
6, 650880, Text_t, "sing_on"
6, 656640, Text_t, "[verse]"
6, 658560, Text_t, "sing_off"
6, 667200, Text_t, "sing_on"
6, 672000, Text_t, "[chorus]"
6, 687360, Text_t, "[verse]"
6, 689280, Text_t, "sing_off"
6, 696000, Text_t, "gtr_off"
6, 696000, Text_t, "[idle]"
6, 696000, Text_t, "drum_off"
6, 698878, Text_t, "[end]"
6, 698878, End_track
7, 0, Start_track
7, 0, Title_t, "BAND SINGER"
7, 0, Text_t, "[idle]"
7, 0, Text_t, "gtr_off"
7, 0, Text_t, "drum_off"
7, 0, Text_t, "bass_off"
7, 7680, Text_t, "[chorus]"
7, 7680, Text_t, "gtr_on"
7, 7680, Text_t, "drum_on"
7, 7680, Text_t, "bass_on"
7, 7680, Text_t, "[section intro]"
7, 15360, Text_t, "[verse]"
7, 46080, Text_t, "[section verse_1]"
7, 47998, Text_t, "[play]"
7, 76800, Text_t, "[idle]"
7, 76800, Text_t, "[chorus]"
7, 86400, Text_t, "[play]"
7, 92160, Text_t, "[verse]"
7, 94080, Text_t, "[idle]"
7, 107520, Text_t, "[section verse_2]"
7, 109440, Text_t, "[play]"
7, 138240, Text_t, "[chorus]"
7, 140160, Text_t, "[idle]"
7, 148800, Text_t, "[play]"
7, 153600, Text_t, "[verse]"
7, 155520, Text_t, "[idle]"
7, 164160, Text_t, "[play]"
7, 168960, Text_t, "[chorus]"
7, 172800, Text_t, "[idle]"
7, 179520, Text_t, "[play]"
7, 184320, Text_t, "[verse]"
7, 186000, Text_t, "[idle]"
7, 195840, Text_t, "[section chorus_1]"
7, 198720, Text_t, "[play]"
7, 199680, Text_t, "[chorus]"
7, 199680, Text_t, "drum_double"
7, 207358, Text_t, "[lighting (sweep)]"
7, 207360, Text_t, "drum_normal"
7, 215040, Text_t, "drum_double"
7, 222720, Text_t, "drum_normal"
7, 230400, Text_t, "drum_double"
7, 238080, Text_t, "drum_normal"
7, 245760, Text_t, "drum_double"
7, 253440, Text_t, "drum_normal"
7, 261120, Text_t, "[verse]"
7, 261120, Text_t, "wail_off"
7, 264960, Text_t, "[idle]"
7, 276480, Text_t, "[section verse_3]"
7, 278400, Text_t, "[play]"
7, 307200, Text_t, "[chorus]"
7, 309120, Text_t, "[idle]"
7, 317760, Text_t, "[play]"
7, 322560, Text_t, "[verse]"
7, 324480, Text_t, "[idle]"
7, 337920, Text_t, "[section verse_4]"
7, 339840, Text_t, "[play]"
7, 368640, Text_t, "[chorus]"
7, 370560, Text_t, "[idle]"
7, 378240, Text_t, "[play]"
7, 384000, Text_t, "[verse]"
7, 386158, Text_t, "[idle]"
7, 395520, Text_t, "[play]"
7, 399360, Text_t, "[chorus]"
7, 414720, Text_t, "[verse]"
7, 416640, Text_t, "[idle]"
7, 426240, Text_t, "[section chorus_2]"
7, 428160, Text_t, "[play]"
7, 430080, Text_t, "[chorus]"
7, 430080, Text_t, "drum_double"
7, 437760, Text_t, "[lighting (sweep)]"
7, 437760, Text_t, "drum_normal"
7, 445440, Text_t, "drum_double"
7, 453120, Text_t, "drum_normal"
7, 460800, Text_t, "drum_double"
7, 468480, Text_t, "drum_normal"
7, 476160, Text_t, "drum_double"
7, 483840, Text_t, "drum_normal"
7, 491520, Text_t, "[section heavy_riff]"
7, 499200, Text_t, "[idle]"
7, 503040, Text_t, "drum_allbeat"
7, 504000, Text_t, "drum_half"
7, 506880, Text_t, "drum_normal"
7, 518400, Text_t, "drum_allbeat"
7, 519360, Text_t, "drum_half"
7, 522240, Text_t, "drum_allbeat"
7, 523200, Text_t, "drum_half"
7, 526080, Text_t, "drum_allbeat"
7, 527040, Text_t, "drum_half"
7, 529920, Text_t, "drum_allbeat"
7, 530880, Text_t, "drum_half"
7, 533760, Text_t, "wail_off"
7, 533760, Text_t, "gtr_off"
7, 533760, Text_t, "[verse]"
7, 533760, Text_t, "drum_allbeat"
7, 534720, Text_t, "drum_off"
7, 549120, Text_t, "[section gtr_solo]"
7, 549120, Text_t, "drum_double"
7, 549120, Text_t, "gtr_on"
7, 549120, Text_t, "solo_on"
7, 549120, Text_t, "[solo]"
7, 595200, Text_t, "gtr_off"
7, 595200, Text_t, "solo_off"
7, 595200, Text_t, "[verse]"
7, 596160, Text_t, "drum_off"
7, 610560, Text_t, "[section outro]"
7, 613440, Text_t, "[play]"
7, 624000, Text_t, "gtr_on"
7, 625920, Text_t, "drum_on"
7, 641280, Text_t, "[chorus]"
7, 643200, Text_t, "[idle]"
7, 650880, Text_t, "[play]"
7, 656640, Text_t, "[verse]"
7, 658560, Text_t, "[idle]"
7, 667200, Text_t, "[play]"
7, 672000, Text_t, "[chorus]"
7, 687360, Text_t, "[verse]"
7, 689280, Text_t, "[idle]"
7, 696000, Text_t, "gtr_off"
7, 696000, Text_t, "bass_off"
7, 696000, Text_t, "drum_off"
7, 698878, Text_t, "[end]"
7, 698878, End_track
8, 0, Start_track
8, 0, Title_t, "BAND DRUMS"
8, 0, Text_t, "sing_off"
8, 0, Text_t, "gtr_off"
8, 0, Text_t, "[idle]"
8, 0, Text_t, "bass_off"
8, 7680, Text_t, "[chorus]"
8, 7680, Text_t, "gtr_on"
8, 7680, Text_t, "[play]"
8, 7680, Text_t, "bass_on"
8, 7680, Text_t, "[section intro]"
8, 15360, Text_t, "[verse]"
8, 46080, Text_t, "[section verse_1]"
8, 47998, Text_t, "sing_on"
8, 76800, Text_t, "sing_off"
8, 76800, Text_t, "[chorus]"
8, 86400, Text_t, "sing_on"
8, 92160, Text_t, "[verse]"
8, 94080, Text_t, "sing_off"
8, 107520, Text_t, "[section verse_2]"
8, 109440, Text_t, "sing_on"
8, 138240, Text_t, "[chorus]"
8, 140160, Text_t, "sing_off"
8, 148800, Text_t, "sing_on"
8, 153600, Text_t, "[verse]"
8, 155520, Text_t, "sing_off"
8, 164160, Text_t, "sing_on"
8, 168960, Text_t, "[chorus]"
8, 172800, Text_t, "sing_off"
8, 179520, Text_t, "sing_on"
8, 184320, Text_t, "[verse]"
8, 186000, Text_t, "sing_off"
8, 195840, Text_t, "[section chorus_1]"
8, 198720, Text_t, "sing_on"
8, 199680, Text_t, "[chorus]"
8, 199680, Text_t, "[double_time]"
8, 207358, Text_t, "[lighting (sweep)]"
8, 207360, Text_t, "[nobeat]"
8, 215040, Text_t, "[double_time]"
8, 222720, Text_t, "[nobeat]"
8, 230400, Text_t, "[double_time]"
8, 238080, Text_t, "[nobeat]"
8, 245760, Text_t, "[double_time]"
8, 253440, Text_t, "[nobeat]"
8, 261120, Text_t, "[verse]"
8, 261120, Text_t, "wail_off"
8, 264960, Text_t, "sing_off"
8, 276480, Text_t, "[section verse_3]"
8, 278400, Text_t, "sing_on"
8, 307200, Text_t, "[chorus]"
8, 309120, Text_t, "sing_off"
8, 317760, Text_t, "sing_on"
8, 322560, Text_t, "[verse]"
8, 324480, Text_t, "sing_off"
8, 337920, Text_t, "[section verse_4]"
8, 339840, Text_t, "sing_on"
8, 368640, Text_t, "[chorus]"
8, 370560, Text_t, "sing_off"
8, 378240, Text_t, "sing_on"
8, 384000, Text_t, "[verse]"
8, 386158, Text_t, "sing_off"
8, 395520, Text_t, "sing_on"
8, 399360, Text_t, "[chorus]"
8, 414720, Text_t, "[verse]"
8, 416640, Text_t, "sing_off"
8, 426240, Text_t, "[section chorus_2]"
8, 428160, Text_t, "sing_on"
8, 430080, Text_t, "[chorus]"
8, 430080, Text_t, "[double_time]"
8, 437760, Text_t, "[lighting (sweep)]"
8, 437760, Text_t, "[nobeat]"
8, 445440, Text_t, "[double_time]"
8, 453120, Text_t, "[nobeat]"
8, 460800, Text_t, "[double_time]"
8, 468480, Text_t, "[nobeat]"
8, 476160, Text_t, "[double_time]"
8, 483840, Text_t, "[nobeat]"
8, 491520, Text_t, "[section heavy_riff]"
8, 499200, Text_t, "sing_off"
8, 503040, Text_t, "[allbeat]"
8, 504000, Text_t, "[half_time]"
8, 506880, Text_t, "[nobeat]"
8, 518400, Text_t, "[allbeat]"
8, 519360, Text_t, "[half_time]"
8, 522240, Text_t, "[allbeat]"
8, 523200, Text_t, "[half_time]"
8, 526080, Text_t, "[allbeat]"
8, 527040, Text_t, "[half_time]"
8, 529920, Text_t, "[allbeat]"
8, 530880, Text_t, "[half_time]"
8, 533760, Text_t, "wail_off"
8, 533760, Text_t, "gtr_off"
8, 533760, Text_t, "[verse]"
8, 533760, Text_t, "[allbeat]"
8, 534720, Text_t, "[idle]"
8, 549120, Text_t, "[section gtr_solo]"
8, 549120, Text_t, "[double_time]"
8, 549120, Text_t, "gtr_on"
8, 549120, Text_t, "solo_on"
8, 549120, Text_t, "[solo]"
8, 595200, Text_t, "gtr_off"
8, 595200, Text_t, "solo_off"
8, 595200, Text_t, "[verse]"
8, 596160, Text_t, "[idle]"
8, 610560, Text_t, "[section outro]"
8, 613440, Text_t, "sing_on"
8, 624000, Text_t, "gtr_on"
8, 625920, Text_t, "[play]"
8, 641280, Text_t, "[chorus]"
8, 643200, Text_t, "sing_off"
8, 650880, Text_t, "sing_on"
8, 656640, Text_t, "[verse]"
8, 658560, Text_t, "sing_off"
8, 667200, Text_t, "sing_on"
8, 672000, Text_t, "[chorus]"
8, 687360, Text_t, "[verse]"
8, 689280, Text_t, "sing_off"
8, 696000, Text_t, "gtr_off"
8, 696000, Text_t, "bass_off"
8, 696000, Text_t, "[idle]"
8, 698878, Text_t, "[end]"
8, 698878, End_track
0, 0, End_of_file
