0, 0, Header, 1, 8, 960
1, 0, Start_track
1, 0, Title_t, "callout"
1, 0, Time_signature, 4, 2, 24, 8
1, 0, Tempo, 259739
1, 7680, Tempo, 252099
1, 11520, Tempo, 260868
1, 15360, Tempo, 266665
1, 19200, Tempo, 260868
1, 23040, Tempo, 257510
1, 26880, Tempo, 259739
1, 30720, Tempo, 264317
1, 34560, Tempo, 271492
1, 38400, Tempo, 245901
1, 42240, Tempo, 264317
1, 49920, Tempo, 262008
1, 53760, Tempo, 255317
1, 61440, Tempo, 262008
1, 65280, Tempo, 260868
1, 76800, Tempo, 266665
1, 84480, Tempo, 257510
1, 99840, Tempo, 266665
1, 103680, Tempo, 257510
1, 107520, Tempo, 263157
1, 115200, Tempo, 257510
1, 122880, Tempo, 260868
1, 130560, Tempo, 266665
1, 138240, Tempo, 260868
1, 145920, Tempo, 259739
1, 157440, Tempo, 253163
1, 161280, Tempo, 266665
1, 165120, Tempo, 260868
1, 168960, Tempo, 265486
1, 172800, Tempo, 260868
1, 195840, Tempo, 258619
1, 207360, Tempo, 263157
1, 211200, Tempo, 269057
1, 215040, Tempo, 257510
1, 222720, Tempo, 259739
1, 245760, Tempo, 260868
1, 253440, Tempo, 262008
1, 261120, Tempo, 260868
1, 268800, Tempo, 258619
1, 276480, Tempo, 259739
1, 284160, Tempo, 266665
1, 291840, Tempo, 262008
1, 307200, Tempo, 254236
1, 314880, Tempo, 269057
1, 318720, Tempo, 260868
1, 337920, Tempo, 262008
1, 353280, Tempo, 258619
1, 357120, Tempo, 256410
1, 360960, Tempo, 270269
1, 364800, Tempo, 269057
1, 368640, Tempo, 248962
1, 372480, Tempo, 251046
1, 376320, Tempo, 260868
1, 407040, Tempo, 258619
1, 414720, Tempo, 262008
1, 422400, Tempo, 264317
1, 430080, Tempo, 260868
1, 433920, Tempo, 259739
1, 437760, Tempo, 258619
1, 441600, Tempo, 263157
1, 445440, Tempo, 267856
1, 449280, Tempo, 265486
1, 453120, Tempo, 255317
1, 456960, Tempo, 265486
1, 460800, Tempo, 259739
1, 468480, Tempo, 263157
1, 472320, Tempo, 256410
1, 476160, Tempo, 263157
1, 480000, Tempo, 262008
1, 483840, Tempo, 254236
1, 491520, Tempo, 266665
1, 495360, Tempo, 252099
1, 499200, Tempo, 262008
1, 506880, Tempo, 263157
1, 510720, Tempo, 254236
1, 514560, Tempo, 260868
1, 522240, Tempo, 264317
1, 529920, Tempo, 266665
1, 537600, Tempo, 262008
1, 545280, Tempo, 254236
1, 552960, Tempo, 262008
1, 568320, Tempo, 259739
1, 576000, Tempo, 262008
1, 583680, Tempo, 259739
1, 591360, Tempo, 260868
1, 599040, Tempo, 263157
1, 618240, Tempo, 258619
1, 625920, Tempo, 260868
1, 633600, Tempo, 258619
1, 648960, Tempo, 259739
1, 652800, Tempo, 265486
1, 664320, Tempo, 258619
1, 668160, Tempo, 259739
1, 672000, Tempo, 263157
1, 675840, Tempo, 256410
1, 679680, Tempo, 260868
1, 687360, Tempo, 258619
1, 691200, Tempo, 264317
1, 695040, Tempo, 257510
1, 698880, Tempo, 262008
1, 710400, Tempo, 266665
1, 714240, Tempo, 270269
1, 714240, End_track
2, 0, Start_track
2, 0, Title_t, "PART GUITAR"
2, 0, Text_t, "[idle]"
2, 7650, Text_t, "[play]"
2, 7650, Text_t, "drum_off"
2, 7650, Text_t, "bass_off"
2, 7650, Text_t, "sing_off"
2, 7650, Text_t, "bass_half_tempo"
2, 7650, Text_t, "[crowd_half_tempo]"
2, 7650, Text_t, "drum_half_tempo"
2, 7650, Text_t, "gtr_half_tempo"
2, 7650, Text_t, "[half_tempo]"
2, 7650, Text_t, "[music_start]"
2, 7650, Note_on_c, 0, 105, 100
2, 7650, Note_on_c, 0, 93, 100
2, 7650, Note_on_c, 0, 69, 100
2, 7650, Note_on_c, 0, 81, 100
2, 7680, Note_on_c, 0, 100, 100
2, 7680, Note_on_c, 0, 98, 100
2, 7680, Note_on_c, 0, 88, 100
2, 7680, Note_on_c, 0, 86, 100
2, 7680, Note_on_c, 0, 75, 100
2, 7680, Note_on_c, 0, 62, 100
2, 7920, Note_on_c, 0, 100, 0
2, 7920, Note_on_c, 0, 98, 0
2, 7920, Note_on_c, 0, 88, 0
2, 7920, Note_on_c, 0, 86, 0
2, 7920, Note_on_c, 0, 75, 0
2, 7920, Note_on_c, 0, 62, 0
2, 9120, Note_on_c, 0, 100, 100
2, 9120, Note_on_c, 0, 98, 100
2, 9120, Note_on_c, 0, 88, 100
2, 9120, Note_on_c, 0, 86, 100
2, 9120, Note_on_c, 0, 75, 100
2, 9120, Note_on_c, 0, 62, 100
2, 9360, Note_on_c, 0, 100, 0
2, 9360, Note_on_c, 0, 98, 0
2, 9360, Note_on_c, 0, 88, 0
2, 9360, Note_on_c, 0, 86, 0
2, 9360, Note_on_c, 0, 75, 0
2, 9360, Note_on_c, 0, 62, 0
2, 10560, Note_on_c, 0, 100, 100
2, 10560, Note_on_c, 0, 98, 100
2, 10560, Note_on_c, 0, 88, 100
2, 10560, Note_on_c, 0, 86, 100
2, 10560, Note_on_c, 0, 75, 100
2, 10560, Note_on_c, 0, 62, 100
2, 10800, Note_on_c, 0, 100, 0
2, 10800, Note_on_c, 0, 98, 0
2, 10800, Note_on_c, 0, 88, 0
2, 10800, Note_on_c, 0, 86, 0
2, 10800, Note_on_c, 0, 75, 0
2, 10800, Note_on_c, 0, 62, 0
2, 11520, Note_on_c, 0, 97, 100
2, 11520, Note_on_c, 0, 99, 100
2, 11520, Note_on_c, 0, 85, 100
2, 11520, Note_on_c, 0, 87, 100
2, 11520, Note_on_c, 0, 73, 100
2, 11520, Note_on_c, 0, 74, 100
2, 11520, Note_on_c, 0, 61, 100
2, 11760, Note_on_c, 0, 97, 0
2, 11760, Note_on_c, 0, 99, 0
2, 11760, Note_on_c, 0, 85, 0
2, 11760, Note_on_c, 0, 87, 0
2, 11760, Note_on_c, 0, 73, 0
2, 11760, Note_on_c, 0, 74, 0
2, 11760, Note_on_c, 0, 61, 0
2, 12960, Note_on_c, 0, 99, 100
2, 12960, Note_on_c, 0, 98, 100
2, 12960, Note_on_c, 0, 87, 100
2, 12960, Note_on_c, 0, 86, 100
2, 12960, Note_on_c, 0, 74, 100
2, 12960, Note_on_c, 0, 62, 100
2, 13200, Note_on_c, 0, 99, 0
2, 13200, Note_on_c, 0, 98, 0
2, 13200, Note_on_c, 0, 87, 0
2, 13200, Note_on_c, 0, 86, 0
2, 13200, Note_on_c, 0, 74, 0
2, 13200, Note_on_c, 0, 62, 0
2, 14400, Note_on_c, 0, 96, 100
2, 14400, Note_on_c, 0, 97, 100
2, 14400, Note_on_c, 0, 84, 100
2, 14400, Note_on_c, 0, 85, 100
2, 14400, Note_on_c, 0, 72, 100
2, 14400, Note_on_c, 0, 60, 100
2, 14640, Note_on_c, 0, 96, 0
2, 14640, Note_on_c, 0, 97, 0
2, 14640, Note_on_c, 0, 84, 0
2, 14640, Note_on_c, 0, 85, 0
2, 14640, Note_on_c, 0, 72, 0
2, 14640, Note_on_c, 0, 60, 0
2, 15330, Text_t, "[play]"
2, 15330, Text_t, "bass_on"
2, 15330, Text_t, "drum_double"
2, 15330, Text_t, "[chorus]"
2, 15330, Text_t, "[lighting (sweep)]"
2, 15360, Note_on_c, 0, 96, 100
2, 15360, Note_on_c, 0, 98, 100
2, 15360, Note_on_c, 0, 84, 100
2, 15360, Note_on_c, 0, 86, 100
2, 15360, Note_on_c, 0, 72, 100
2, 15360, Note_on_c, 0, 73, 100
2, 15360, Note_on_c, 0, 60, 100
2, 15600, Note_on_c, 0, 96, 0
2, 15600, Note_on_c, 0, 98, 0
2, 15600, Note_on_c, 0, 84, 0
2, 15600, Note_on_c, 0, 86, 0
2, 15600, Note_on_c, 0, 72, 0
2, 15600, Note_on_c, 0, 73, 0
2, 15600, Note_on_c, 0, 60, 0
2, 16800, Note_on_c, 0, 96, 100
2, 16800, Note_on_c, 0, 98, 100
2, 16800, Note_on_c, 0, 84, 100
2, 16800, Note_on_c, 0, 86, 100
2, 16800, Note_on_c, 0, 72, 100
2, 16800, Note_on_c, 0, 73, 100
2, 16800, Note_on_c, 0, 60, 100
2, 17040, Note_on_c, 0, 96, 0
2, 17040, Note_on_c, 0, 98, 0
2, 17040, Note_on_c, 0, 84, 0
2, 17040, Note_on_c, 0, 86, 0
2, 17040, Note_on_c, 0, 72, 0
2, 17040, Note_on_c, 0, 73, 0
2, 17040, Note_on_c, 0, 60, 0
2, 18240, Note_on_c, 0, 96, 100
2, 18240, Note_on_c, 0, 98, 100
2, 18240, Note_on_c, 0, 84, 100
2, 18240, Note_on_c, 0, 86, 100
2, 18240, Note_on_c, 0, 72, 100
2, 18240, Note_on_c, 0, 73, 100
2, 18240, Note_on_c, 0, 60, 100
2, 18480, Note_on_c, 0, 96, 0
2, 18480, Note_on_c, 0, 98, 0
2, 18480, Note_on_c, 0, 84, 0
2, 18480, Note_on_c, 0, 86, 0
2, 18480, Note_on_c, 0, 72, 0
2, 18480, Note_on_c, 0, 73, 0
2, 18480, Note_on_c, 0, 60, 0
2, 19200, Note_on_c, 0, 97, 100
2, 19200, Note_on_c, 0, 98, 100
2, 19200, Note_on_c, 0, 85, 100
2, 19200, Note_on_c, 0, 86, 100
2, 19200, Note_on_c, 0, 73, 100
2, 19200, Note_on_c, 0, 61, 100
2, 19440, Note_on_c, 0, 97, 0
2, 19440, Note_on_c, 0, 98, 0
2, 19440, Note_on_c, 0, 85, 0
2, 19440, Note_on_c, 0, 86, 0
2, 19440, Note_on_c, 0, 73, 0
2, 19440, Note_on_c, 0, 61, 0
2, 20640, Note_on_c, 0, 97, 100
2, 20640, Note_on_c, 0, 98, 100
2, 20640, Note_on_c, 0, 85, 100
2, 20640, Note_on_c, 0, 86, 100
2, 20640, Note_on_c, 0, 73, 100
2, 20640, Note_on_c, 0, 61, 100
2, 20880, Note_on_c, 0, 97, 0
2, 20880, Note_on_c, 0, 98, 0
2, 20880, Note_on_c, 0, 85, 0
2, 20880, Note_on_c, 0, 86, 0
2, 20880, Note_on_c, 0, 73, 0
2, 20880, Note_on_c, 0, 61, 0
2, 22080, Note_on_c, 0, 97, 100
2, 22080, Note_on_c, 0, 98, 100
2, 22080, Note_on_c, 0, 85, 100
2, 22080, Note_on_c, 0, 86, 100
2, 22080, Note_on_c, 0, 73, 100
2, 22080, Note_on_c, 0, 61, 100
2, 22320, Note_on_c, 0, 97, 0
2, 22320, Note_on_c, 0, 98, 0
2, 22320, Note_on_c, 0, 85, 0
2, 22320, Note_on_c, 0, 86, 0
2, 22320, Note_on_c, 0, 73, 0
2, 22320, Note_on_c, 0, 61, 0
2, 23010, Note_on_c, 0, 106, 100
2, 23010, Note_on_c, 0, 94, 100
2, 23010, Note_on_c, 0, 70, 100
2, 23010, Note_on_c, 0, 82, 100
2, 23040, Note_on_c, 0, 100, 100
2, 23040, Note_on_c, 0, 98, 100
2, 23040, Note_on_c, 0, 88, 100
2, 23040, Note_on_c, 0, 86, 100
2, 23040, Note_on_c, 0, 75, 100
2, 23040, Note_on_c, 0, 62, 100
2, 23280, Note_on_c, 0, 100, 0
2, 23280, Note_on_c, 0, 98, 0
2, 23280, Note_on_c, 0, 88, 0
2, 23280, Note_on_c, 0, 86, 0
2, 23280, Note_on_c, 0, 75, 0
2, 23280, Note_on_c, 0, 62, 0
2, 23970, Note_on_c, 0, 103, 100
2, 23970, Note_on_c, 0, 91, 100
2, 23970, Note_on_c, 0, 79, 100
2, 23970, Note_on_c, 0, 67, 100
2, 24000, Note_on_c, 0, 98, 100
2, 24000, Note_on_c, 0, 86, 100
2, 24000, Note_on_c, 0, 75, 100
2, 24000, Note_on_c, 0, 62, 100
2, 24240, Note_on_c, 0, 98, 0
2, 24240, Note_on_c, 0, 86, 0
2, 24240, Note_on_c, 0, 75, 0
2, 24240, Note_on_c, 0, 62, 0
2, 24480, Note_on_c, 0, 98, 100
2, 24480, Note_on_c, 0, 86, 100
2, 24480, Note_on_c, 0, 75, 100
2, 24720, Note_on_c, 0, 98, 0
2, 24720, Note_on_c, 0, 86, 0
2, 24720, Note_on_c, 0, 75, 0
2, 24960, Note_on_c, 0, 98, 100
2, 24960, Note_on_c, 0, 86, 100
2, 24960, Note_on_c, 0, 75, 100
2, 24960, Note_on_c, 0, 62, 100
2, 25200, Note_on_c, 0, 98, 0
2, 25200, Note_on_c, 0, 86, 0
2, 25200, Note_on_c, 0, 75, 0
2, 25200, Note_on_c, 0, 62, 0
2, 25440, Note_on_c, 0, 98, 100
2, 25440, Note_on_c, 0, 86, 100
2, 25440, Note_on_c, 0, 75, 100
2, 25680, Note_on_c, 0, 98, 0
2, 25680, Note_on_c, 0, 86, 0
2, 25680, Note_on_c, 0, 75, 0
2, 25920, Note_on_c, 0, 98, 100
2, 25920, Note_on_c, 0, 86, 100
2, 25920, Note_on_c, 0, 75, 100
2, 25920, Note_on_c, 0, 62, 100
2, 26160, Note_on_c, 0, 98, 0
2, 26160, Note_on_c, 0, 86, 0
2, 26160, Note_on_c, 0, 75, 0
2, 26160, Note_on_c, 0, 62, 0
2, 26400, Note_on_c, 0, 98, 100
2, 26640, Note_on_c, 0, 98, 0
2, 26850, Note_on_c, 0, 105, 0
2, 26850, Note_on_c, 0, 93, 0
2, 26850, Note_on_c, 0, 69, 0
2, 26850, Note_on_c, 0, 81, 0
2, 26850, Note_on_c, 0, 103, 0
2, 26850, Note_on_c, 0, 91, 0
2, 26850, Note_on_c, 0, 79, 0
2, 26850, Note_on_c, 0, 67, 0
2, 26880, Note_on_c, 0, 97, 100
2, 26880, Note_on_c, 0, 99, 100
2, 26880, Note_on_c, 0, 85, 100
2, 26880, Note_on_c, 0, 87, 100
2, 26880, Note_on_c, 0, 73, 100
2, 26880, Note_on_c, 0, 74, 100
2, 26880, Note_on_c, 0, 61, 100
2, 27120, Note_on_c, 0, 97, 0
2, 27120, Note_on_c, 0, 99, 0
2, 27120, Note_on_c, 0, 85, 0
2, 27120, Note_on_c, 0, 87, 0
2, 27120, Note_on_c, 0, 73, 0
2, 27120, Note_on_c, 0, 74, 0
2, 27120, Note_on_c, 0, 61, 0
2, 28320, Note_on_c, 0, 99, 100
2, 28320, Note_on_c, 0, 98, 100
2, 28320, Note_on_c, 0, 87, 100
2, 28320, Note_on_c, 0, 86, 100
2, 28320, Note_on_c, 0, 74, 100
2, 28320, Note_on_c, 0, 62, 100
2, 28560, Note_on_c, 0, 99, 0
2, 28560, Note_on_c, 0, 98, 0
2, 28560, Note_on_c, 0, 87, 0
2, 28560, Note_on_c, 0, 86, 0
2, 28560, Note_on_c, 0, 74, 0
2, 28560, Note_on_c, 0, 62, 0
2, 29760, Note_on_c, 0, 96, 100
2, 29760, Note_on_c, 0, 97, 100
2, 29760, Note_on_c, 0, 84, 100
2, 29760, Note_on_c, 0, 85, 100
2, 29760, Note_on_c, 0, 72, 100
2, 29760, Note_on_c, 0, 60, 100
2, 30000, Note_on_c, 0, 96, 0
2, 30000, Note_on_c, 0, 97, 0
2, 30000, Note_on_c, 0, 84, 0
2, 30000, Note_on_c, 0, 85, 0
2, 30000, Note_on_c, 0, 72, 0
2, 30000, Note_on_c, 0, 60, 0
2, 30720, Note_on_c, 0, 96, 100
2, 30720, Note_on_c, 0, 98, 100
2, 30720, Note_on_c, 0, 84, 100
2, 30720, Note_on_c, 0, 86, 100
2, 30720, Note_on_c, 0, 72, 100
2, 30720, Note_on_c, 0, 73, 100
2, 30720, Note_on_c, 0, 60, 100
2, 30960, Note_on_c, 0, 96, 0
2, 30960, Note_on_c, 0, 98, 0
2, 30960, Note_on_c, 0, 84, 0
2, 30960, Note_on_c, 0, 86, 0
2, 30960, Note_on_c, 0, 72, 0
2, 30960, Note_on_c, 0, 73, 0
2, 30960, Note_on_c, 0, 60, 0
2, 32160, Note_on_c, 0, 96, 100
2, 32160, Note_on_c, 0, 98, 100
2, 32160, Note_on_c, 0, 84, 100
2, 32160, Note_on_c, 0, 86, 100
2, 32160, Note_on_c, 0, 72, 100
2, 32160, Note_on_c, 0, 73, 100
2, 32160, Note_on_c, 0, 60, 100
2, 32400, Note_on_c, 0, 96, 0
2, 32400, Note_on_c, 0, 98, 0
2, 32400, Note_on_c, 0, 84, 0
2, 32400, Note_on_c, 0, 86, 0
2, 32400, Note_on_c, 0, 72, 0
2, 32400, Note_on_c, 0, 73, 0
2, 32400, Note_on_c, 0, 60, 0
2, 33600, Note_on_c, 0, 96, 100
2, 33600, Note_on_c, 0, 98, 100
2, 33600, Note_on_c, 0, 84, 100
2, 33600, Note_on_c, 0, 86, 100
2, 33600, Note_on_c, 0, 72, 100
2, 33600, Note_on_c, 0, 73, 100
2, 33600, Note_on_c, 0, 60, 100
2, 33840, Note_on_c, 0, 96, 0
2, 33840, Note_on_c, 0, 98, 0
2, 33840, Note_on_c, 0, 84, 0
2, 33840, Note_on_c, 0, 86, 0
2, 33840, Note_on_c, 0, 72, 0
2, 33840, Note_on_c, 0, 73, 0
2, 33840, Note_on_c, 0, 60, 0
2, 34560, Note_on_c, 0, 99, 100
2, 34560, Note_on_c, 0, 87, 100
2, 34560, Note_on_c, 0, 73, 100
2, 34560, Note_on_c, 0, 61, 100
2, 34800, Note_on_c, 0, 99, 0
2, 34800, Note_on_c, 0, 87, 0
2, 34800, Note_on_c, 0, 73, 0
2, 34800, Note_on_c, 0, 61, 0
2, 35520, Note_on_c, 0, 99, 100
2, 35520, Note_on_c, 0, 87, 100
2, 35520, Note_on_c, 0, 74, 100
2, 35520, Note_on_c, 0, 62, 100
2, 35760, Note_on_c, 0, 99, 0
2, 35760, Note_on_c, 0, 87, 0
2, 35760, Note_on_c, 0, 74, 0
2, 35760, Note_on_c, 0, 62, 0
2, 36480, Note_on_c, 0, 98, 100
2, 36480, Note_on_c, 0, 86, 100
2, 36480, Note_on_c, 0, 73, 100
2, 36480, Note_on_c, 0, 61, 100
2, 36720, Note_on_c, 0, 98, 0
2, 36720, Note_on_c, 0, 86, 0
2, 36720, Note_on_c, 0, 73, 0
2, 36720, Note_on_c, 0, 61, 0
2, 37440, Note_on_c, 0, 97, 100
2, 37440, Note_on_c, 0, 85, 100
2, 37440, Note_on_c, 0, 72, 100
2, 37440, Note_on_c, 0, 60, 100
2, 37680, Note_on_c, 0, 97, 0
2, 37680, Note_on_c, 0, 85, 0
2, 37680, Note_on_c, 0, 72, 0
2, 37680, Note_on_c, 0, 60, 0
2, 38370, Note_on_c, 0, 106, 0
2, 38370, Note_on_c, 0, 94, 0
2, 38370, Note_on_c, 0, 70, 0
2, 38370, Note_on_c, 0, 82, 0
2, 38370, Note_on_c, 0, 105, 100
2, 38370, Note_on_c, 0, 93, 100
2, 38370, Note_on_c, 0, 69, 100
2, 38370, Note_on_c, 0, 81, 100
2, 39360, Note_on_c, 0, 100, 100
2, 39360, Note_on_c, 0, 98, 100
2, 39360, Note_on_c, 0, 88, 100
2, 39360, Note_on_c, 0, 86, 100
2, 39360, Note_on_c, 0, 75, 100
2, 39360, Note_on_c, 0, 62, 100
2, 39600, Note_on_c, 0, 100, 0
2, 39600, Note_on_c, 0, 98, 0
2, 39600, Note_on_c, 0, 88, 0
2, 39600, Note_on_c, 0, 86, 0
2, 39600, Note_on_c, 0, 75, 0
2, 39600, Note_on_c, 0, 62, 0
2, 42240, Note_on_c, 0, 97, 100
2, 42240, Note_on_c, 0, 99, 100
2, 42240, Note_on_c, 0, 85, 100
2, 42240, Note_on_c, 0, 87, 100
2, 42240, Note_on_c, 0, 73, 100
2, 42240, Note_on_c, 0, 74, 100
2, 42240, Note_on_c, 0, 61, 100
2, 42480, Note_on_c, 0, 97, 0
2, 42480, Note_on_c, 0, 99, 0
2, 42480, Note_on_c, 0, 85, 0
2, 42480, Note_on_c, 0, 87, 0
2, 42480, Note_on_c, 0, 73, 0
2, 42480, Note_on_c, 0, 74, 0
2, 42480, Note_on_c, 0, 61, 0
2, 43680, Note_on_c, 0, 99, 100
2, 43680, Note_on_c, 0, 98, 100
2, 43680, Note_on_c, 0, 87, 100
2, 43680, Note_on_c, 0, 86, 100
2, 43680, Note_on_c, 0, 74, 100
2, 43680, Note_on_c, 0, 62, 100
2, 43920, Note_on_c, 0, 99, 0
2, 43920, Note_on_c, 0, 98, 0
2, 43920, Note_on_c, 0, 87, 0
2, 43920, Note_on_c, 0, 86, 0
2, 43920, Note_on_c, 0, 74, 0
2, 43920, Note_on_c, 0, 62, 0
2, 45120, Note_on_c, 0, 96, 100
2, 45120, Note_on_c, 0, 97, 100
2, 45120, Note_on_c, 0, 84, 100
2, 45120, Note_on_c, 0, 85, 100
2, 45120, Note_on_c, 0, 72, 100
2, 45120, Note_on_c, 0, 60, 100
2, 45360, Note_on_c, 0, 96, 0
2, 45360, Note_on_c, 0, 97, 0
2, 45360, Note_on_c, 0, 84, 0
2, 45360, Note_on_c, 0, 85, 0
2, 45360, Note_on_c, 0, 72, 0
2, 45360, Note_on_c, 0, 60, 0
2, 46080, Note_on_c, 0, 96, 100
2, 46080, Note_on_c, 0, 98, 100
2, 46080, Note_on_c, 0, 84, 100
2, 46080, Note_on_c, 0, 86, 100
2, 46080, Note_on_c, 0, 72, 100
2, 46080, Note_on_c, 0, 73, 100
2, 46080, Note_on_c, 0, 60, 100
2, 46320, Note_on_c, 0, 96, 0
2, 46320, Note_on_c, 0, 98, 0
2, 46320, Note_on_c, 0, 84, 0
2, 46320, Note_on_c, 0, 86, 0
2, 46320, Note_on_c, 0, 72, 0
2, 46320, Note_on_c, 0, 73, 0
2, 46320, Note_on_c, 0, 60, 0
2, 47520, Note_on_c, 0, 96, 100
2, 47520, Note_on_c, 0, 98, 100
2, 47520, Note_on_c, 0, 84, 100
2, 47520, Note_on_c, 0, 86, 100
2, 47520, Note_on_c, 0, 72, 100
2, 47520, Note_on_c, 0, 73, 100
2, 47520, Note_on_c, 0, 60, 100
2, 47760, Note_on_c, 0, 96, 0
2, 47760, Note_on_c, 0, 98, 0
2, 47760, Note_on_c, 0, 84, 0
2, 47760, Note_on_c, 0, 86, 0
2, 47760, Note_on_c, 0, 72, 0
2, 47760, Note_on_c, 0, 73, 0
2, 47760, Note_on_c, 0, 60, 0
2, 48960, Note_on_c, 0, 96, 100
2, 48960, Note_on_c, 0, 98, 100
2, 48960, Note_on_c, 0, 84, 100
2, 48960, Note_on_c, 0, 86, 100
2, 48960, Note_on_c, 0, 72, 100
2, 48960, Note_on_c, 0, 73, 100
2, 48960, Note_on_c, 0, 60, 100
2, 49200, Note_on_c, 0, 96, 0
2, 49200, Note_on_c, 0, 98, 0
2, 49200, Note_on_c, 0, 84, 0
2, 49200, Note_on_c, 0, 86, 0
2, 49200, Note_on_c, 0, 72, 0
2, 49200, Note_on_c, 0, 73, 0
2, 49200, Note_on_c, 0, 60, 0
2, 49920, Note_on_c, 0, 97, 100
2, 49920, Note_on_c, 0, 98, 100
2, 49920, Note_on_c, 0, 85, 100
2, 49920, Note_on_c, 0, 86, 100
2, 49920, Note_on_c, 0, 73, 100
2, 49920, Note_on_c, 0, 61, 100
2, 50160, Note_on_c, 0, 97, 0
2, 50160, Note_on_c, 0, 98, 0
2, 50160, Note_on_c, 0, 85, 0
2, 50160, Note_on_c, 0, 86, 0
2, 50160, Note_on_c, 0, 73, 0
2, 50160, Note_on_c, 0, 61, 0
2, 51360, Note_on_c, 0, 97, 100
2, 51360, Note_on_c, 0, 98, 100
2, 51360, Note_on_c, 0, 85, 100
2, 51360, Note_on_c, 0, 86, 100
2, 51360, Note_on_c, 0, 73, 100
2, 51360, Note_on_c, 0, 61, 100
2, 51600, Note_on_c, 0, 97, 0
2, 51600, Note_on_c, 0, 98, 0
2, 51600, Note_on_c, 0, 85, 0
2, 51600, Note_on_c, 0, 86, 0
2, 51600, Note_on_c, 0, 73, 0
2, 51600, Note_on_c, 0, 61, 0
2, 52800, Note_on_c, 0, 97, 100
2, 52800, Note_on_c, 0, 98, 100
2, 52800, Note_on_c, 0, 85, 100
2, 52800, Note_on_c, 0, 86, 100
2, 52800, Note_on_c, 0, 73, 100
2, 52800, Note_on_c, 0, 61, 100
2, 53040, Note_on_c, 0, 97, 0
2, 53040, Note_on_c, 0, 98, 0
2, 53040, Note_on_c, 0, 85, 0
2, 53040, Note_on_c, 0, 86, 0
2, 53040, Note_on_c, 0, 73, 0
2, 53040, Note_on_c, 0, 61, 0
2, 53730, Note_on_c, 0, 106, 100
2, 53730, Note_on_c, 0, 94, 100
2, 53730, Note_on_c, 0, 70, 100
2, 53730, Note_on_c, 0, 82, 100
2, 53760, Note_on_c, 0, 100, 100
2, 53760, Note_on_c, 0, 98, 100
2, 53760, Note_on_c, 0, 88, 100
2, 53760, Note_on_c, 0, 86, 100
2, 53760, Note_on_c, 0, 75, 100
2, 53760, Note_on_c, 0, 62, 100
2, 54000, Note_on_c, 0, 100, 0
2, 54000, Note_on_c, 0, 98, 0
2, 54000, Note_on_c, 0, 88, 0
2, 54000, Note_on_c, 0, 86, 0
2, 54000, Note_on_c, 0, 75, 0
2, 54000, Note_on_c, 0, 62, 0
2, 54690, Note_on_c, 0, 103, 100
2, 54690, Note_on_c, 0, 91, 100
2, 54690, Note_on_c, 0, 79, 100
2, 54690, Note_on_c, 0, 67, 100
2, 54720, Note_on_c, 0, 98, 100
2, 54720, Note_on_c, 0, 86, 100
2, 54720, Note_on_c, 0, 75, 100
2, 54720, Note_on_c, 0, 62, 100
2, 54960, Note_on_c, 0, 98, 0
2, 54960, Note_on_c, 0, 86, 0
2, 54960, Note_on_c, 0, 75, 0
2, 54960, Note_on_c, 0, 62, 0
2, 55200, Note_on_c, 0, 98, 100
2, 55200, Note_on_c, 0, 86, 100
2, 55200, Note_on_c, 0, 75, 100
2, 55440, Note_on_c, 0, 98, 0
2, 55440, Note_on_c, 0, 86, 0
2, 55440, Note_on_c, 0, 75, 0
2, 55680, Note_on_c, 0, 98, 100
2, 55680, Note_on_c, 0, 86, 100
2, 55680, Note_on_c, 0, 75, 100
2, 55680, Note_on_c, 0, 62, 100
2, 55920, Note_on_c, 0, 98, 0
2, 55920, Note_on_c, 0, 86, 0
2, 55920, Note_on_c, 0, 75, 0
2, 55920, Note_on_c, 0, 62, 0
2, 56160, Note_on_c, 0, 98, 100
2, 56160, Note_on_c, 0, 86, 100
2, 56160, Note_on_c, 0, 75, 100
2, 56400, Note_on_c, 0, 98, 0
2, 56400, Note_on_c, 0, 86, 0
2, 56400, Note_on_c, 0, 75, 0
2, 56640, Note_on_c, 0, 98, 100
2, 56640, Note_on_c, 0, 86, 100
2, 56640, Note_on_c, 0, 75, 100
2, 56640, Note_on_c, 0, 62, 100
2, 56880, Note_on_c, 0, 98, 0
2, 56880, Note_on_c, 0, 86, 0
2, 56880, Note_on_c, 0, 75, 0
2, 56880, Note_on_c, 0, 62, 0
2, 57120, Note_on_c, 0, 98, 100
2, 57360, Note_on_c, 0, 98, 0
2, 57570, Note_on_c, 0, 105, 0
2, 57570, Note_on_c, 0, 93, 0
2, 57570, Note_on_c, 0, 69, 0
2, 57570, Note_on_c, 0, 81, 0
2, 57570, Note_on_c, 0, 103, 0
2, 57570, Note_on_c, 0, 91, 0
2, 57570, Note_on_c, 0, 79, 0
2, 57570, Note_on_c, 0, 67, 0
2, 57600, Note_on_c, 0, 97, 100
2, 57600, Note_on_c, 0, 99, 100
2, 57600, Note_on_c, 0, 85, 100
2, 57600, Note_on_c, 0, 87, 100
2, 57600, Note_on_c, 0, 73, 100
2, 57600, Note_on_c, 0, 74, 100
2, 57600, Note_on_c, 0, 61, 100
2, 57840, Note_on_c, 0, 97, 0
2, 57840, Note_on_c, 0, 99, 0
2, 57840, Note_on_c, 0, 85, 0
2, 57840, Note_on_c, 0, 87, 0
2, 57840, Note_on_c, 0, 73, 0
2, 57840, Note_on_c, 0, 74, 0
2, 57840, Note_on_c, 0, 61, 0
2, 59040, Note_on_c, 0, 99, 100
2, 59040, Note_on_c, 0, 98, 100
2, 59040, Note_on_c, 0, 87, 100
2, 59040, Note_on_c, 0, 86, 100
2, 59040, Note_on_c, 0, 74, 100
2, 59040, Note_on_c, 0, 62, 100
2, 59280, Note_on_c, 0, 99, 0
2, 59280, Note_on_c, 0, 98, 0
2, 59280, Note_on_c, 0, 87, 0
2, 59280, Note_on_c, 0, 86, 0
2, 59280, Note_on_c, 0, 74, 0
2, 59280, Note_on_c, 0, 62, 0
2, 60480, Note_on_c, 0, 96, 100
2, 60480, Note_on_c, 0, 97, 100
2, 60480, Note_on_c, 0, 84, 100
2, 60480, Note_on_c, 0, 85, 100
2, 60480, Note_on_c, 0, 72, 100
2, 60480, Note_on_c, 0, 60, 100
2, 60720, Note_on_c, 0, 96, 0
2, 60720, Note_on_c, 0, 97, 0
2, 60720, Note_on_c, 0, 84, 0
2, 60720, Note_on_c, 0, 85, 0
2, 60720, Note_on_c, 0, 72, 0
2, 60720, Note_on_c, 0, 60, 0
2, 61440, Note_on_c, 0, 96, 100
2, 61440, Note_on_c, 0, 98, 100
2, 61440, Note_on_c, 0, 84, 100
2, 61440, Note_on_c, 0, 86, 100
2, 61440, Note_on_c, 0, 72, 100
2, 61440, Note_on_c, 0, 73, 100
2, 61440, Note_on_c, 0, 60, 100
2, 61680, Note_on_c, 0, 96, 0
2, 61680, Note_on_c, 0, 98, 0
2, 61680, Note_on_c, 0, 84, 0
2, 61680, Note_on_c, 0, 86, 0
2, 61680, Note_on_c, 0, 72, 0
2, 61680, Note_on_c, 0, 73, 0
2, 61680, Note_on_c, 0, 60, 0
2, 62880, Note_on_c, 0, 96, 100
2, 62880, Note_on_c, 0, 98, 100
2, 62880, Note_on_c, 0, 84, 100
2, 62880, Note_on_c, 0, 86, 100
2, 62880, Note_on_c, 0, 72, 100
2, 62880, Note_on_c, 0, 73, 100
2, 62880, Note_on_c, 0, 60, 100
2, 63120, Note_on_c, 0, 96, 0
2, 63120, Note_on_c, 0, 98, 0
2, 63120, Note_on_c, 0, 84, 0
2, 63120, Note_on_c, 0, 86, 0
2, 63120, Note_on_c, 0, 72, 0
2, 63120, Note_on_c, 0, 73, 0
2, 63120, Note_on_c, 0, 60, 0
2, 64320, Note_on_c, 0, 96, 100
2, 64320, Note_on_c, 0, 98, 100
2, 64320, Note_on_c, 0, 84, 100
2, 64320, Note_on_c, 0, 86, 100
2, 64320, Note_on_c, 0, 72, 100
2, 64320, Note_on_c, 0, 73, 100
2, 64320, Note_on_c, 0, 60, 100
2, 64560, Note_on_c, 0, 96, 0
2, 64560, Note_on_c, 0, 98, 0
2, 64560, Note_on_c, 0, 84, 0
2, 64560, Note_on_c, 0, 86, 0
2, 64560, Note_on_c, 0, 72, 0
2, 64560, Note_on_c, 0, 73, 0
2, 64560, Note_on_c, 0, 60, 0
2, 65280, Note_on_c, 0, 97, 100
2, 65280, Note_on_c, 0, 98, 100
2, 65280, Note_on_c, 0, 85, 100
2, 65280, Note_on_c, 0, 86, 100
2, 65280, Note_on_c, 0, 73, 100
2, 65280, Note_on_c, 0, 61, 100
2, 65520, Note_on_c, 0, 97, 0
2, 65520, Note_on_c, 0, 98, 0
2, 65520, Note_on_c, 0, 85, 0
2, 65520, Note_on_c, 0, 86, 0
2, 65520, Note_on_c, 0, 73, 0
2, 65520, Note_on_c, 0, 61, 0
2, 66720, Note_on_c, 0, 97, 100
2, 66720, Note_on_c, 0, 98, 100
2, 66720, Note_on_c, 0, 85, 100
2, 66720, Note_on_c, 0, 86, 100
2, 66720, Note_on_c, 0, 73, 100
2, 66720, Note_on_c, 0, 61, 100
2, 66960, Note_on_c, 0, 97, 0
2, 66960, Note_on_c, 0, 98, 0
2, 66960, Note_on_c, 0, 85, 0
2, 66960, Note_on_c, 0, 86, 0
2, 66960, Note_on_c, 0, 73, 0
2, 66960, Note_on_c, 0, 61, 0
2, 68160, Note_on_c, 0, 97, 100
2, 68160, Note_on_c, 0, 98, 100
2, 68160, Note_on_c, 0, 85, 100
2, 68160, Note_on_c, 0, 86, 100
2, 68160, Note_on_c, 0, 73, 100
2, 68160, Note_on_c, 0, 61, 100
2, 68400, Note_on_c, 0, 97, 0
2, 68400, Note_on_c, 0, 98, 0
2, 68400, Note_on_c, 0, 85, 0
2, 68400, Note_on_c, 0, 86, 0
2, 68400, Note_on_c, 0, 73, 0
2, 68400, Note_on_c, 0, 61, 0
2, 69090, Note_on_c, 0, 103, 100
2, 69090, Note_on_c, 0, 91, 100
2, 69090, Note_on_c, 0, 79, 100
2, 69090, Note_on_c, 0, 67, 100
2, 69090, Note_on_c, 0, 105, 100
2, 69090, Note_on_c, 0, 93, 100
2, 69090, Note_on_c, 0, 69, 100
2, 69090, Note_on_c, 0, 81, 100
2, 69120, Note_on_c, 0, 99, 100
2, 69120, Note_on_c, 0, 98, 100
2, 69120, Note_on_c, 0, 87, 100
2, 69120, Note_on_c, 0, 86, 100
2, 69120, Note_on_c, 0, 74, 100
2, 69120, Note_on_c, 0, 62, 100
2, 69720, Note_on_c, 0, 108, 100
2, 70200, Note_on_c, 0, 108, 0
2, 70680, Note_on_c, 0, 108, 100
2, 71160, Note_on_c, 0, 108, 0
2, 71640, Note_on_c, 0, 108, 100
2, 72360, Note_on_c, 0, 108, 0
2, 72600, Note_on_c, 0, 108, 100
2, 72840, Note_on_c, 0, 108, 0
2, 73080, Note_on_c, 0, 108, 100
2, 73800, Note_on_c, 0, 108, 0
2, 74040, Note_on_c, 0, 108, 100
2, 74760, Note_on_c, 0, 108, 0
2, 75000, Note_on_c, 0, 108, 100
2, 75720, Note_on_c, 0, 108, 0
2, 75960, Note_on_c, 0, 108, 100
2, 76770, Text_t, "sing_on"
2, 76770, Text_t, "[verse]"
2, 76770, Text_t, "[lighting ()]"
2, 77160, Note_on_c, 0, 108, 0
2, 77400, Note_on_c, 0, 108, 100
2, 78120, Note_on_c, 0, 108, 0
2, 78360, Note_on_c, 0, 108, 100
2, 78600, Note_on_c, 0, 108, 0
2, 78840, Note_on_c, 0, 108, 100
2, 79410, Note_on_c, 0, 103, 0
2, 79410, Note_on_c, 0, 91, 0
2, 79410, Note_on_c, 0, 79, 0
2, 79410, Note_on_c, 0, 67, 0
2, 79440, Note_on_c, 0, 99, 0
2, 79440, Note_on_c, 0, 98, 0
2, 79440, Note_on_c, 0, 87, 0
2, 79440, Note_on_c, 0, 86, 0
2, 79440, Note_on_c, 0, 74, 0
2, 79440, Note_on_c, 0, 62, 0
2, 79680, Note_on_c, 0, 99, 100
2, 79680, Note_on_c, 0, 87, 100
2, 79680, Note_on_c, 0, 74, 100
2, 79680, Note_on_c, 0, 62, 100
2, 79800, Note_on_c, 0, 108, 0
2, 79920, Note_on_c, 0, 87, 0
2, 79920, Note_on_c, 0, 74, 0
2, 79920, Note_on_c, 0, 62, 0
2, 80280, Note_on_c, 0, 108, 100
2, 81000, Note_on_c, 0, 108, 0
2, 81240, Note_on_c, 0, 108, 100
2, 81720, Note_on_c, 0, 108, 0
2, 82200, Note_on_c, 0, 108, 100
2, 82440, Note_on_c, 0, 108, 0
2, 82680, Note_on_c, 0, 108, 100
2, 83280, Note_on_c, 0, 99, 0
2, 83490, Note_on_c, 0, 106, 0
2, 83490, Note_on_c, 0, 94, 0
2, 83490, Note_on_c, 0, 70, 0
2, 83490, Note_on_c, 0, 82, 0
2, 83520, Note_on_c, 0, 98, 100
2, 83640, Note_on_c, 0, 108, 0
2, 83760, Note_on_c, 0, 98, 0
2, 84120, Note_on_c, 0, 108, 100
2, 84480, Note_on_c, 0, 100, 100
2, 84480, Note_on_c, 0, 98, 100
2, 84480, Note_on_c, 0, 88, 100
2, 84480, Note_on_c, 0, 86, 100
2, 84480, Note_on_c, 0, 75, 100
2, 84480, Note_on_c, 0, 62, 100
2, 84720, Note_on_c, 0, 100, 0
2, 84720, Note_on_c, 0, 98, 0
2, 84720, Note_on_c, 0, 88, 0
2, 84720, Note_on_c, 0, 86, 0
2, 84720, Note_on_c, 0, 75, 0
2, 84720, Note_on_c, 0, 62, 0
2, 85320, Note_on_c, 0, 108, 0
2, 85920, Note_on_c, 0, 100, 100
2, 85920, Note_on_c, 0, 98, 100
2, 85920, Note_on_c, 0, 88, 100
2, 85920, Note_on_c, 0, 86, 100
2, 85920, Note_on_c, 0, 75, 100
2, 85920, Note_on_c, 0, 62, 100
2, 86160, Note_on_c, 0, 100, 0
2, 86160, Note_on_c, 0, 98, 0
2, 86160, Note_on_c, 0, 88, 0
2, 86160, Note_on_c, 0, 86, 0
2, 86160, Note_on_c, 0, 75, 0
2, 86160, Note_on_c, 0, 62, 0
2, 87360, Note_on_c, 0, 100, 100
2, 87360, Note_on_c, 0, 98, 100
2, 87360, Note_on_c, 0, 88, 100
2, 87360, Note_on_c, 0, 86, 100
2, 87360, Note_on_c, 0, 75, 100
2, 87360, Note_on_c, 0, 62, 100
2, 87600, Note_on_c, 0, 100, 0
2, 87600, Note_on_c, 0, 98, 0
2, 87600, Note_on_c, 0, 88, 0
2, 87600, Note_on_c, 0, 86, 0
2, 87600, Note_on_c, 0, 75, 0
2, 87600, Note_on_c, 0, 62, 0
2, 89280, Note_on_c, 0, 100, 100
2, 89280, Note_on_c, 0, 98, 100
2, 89280, Note_on_c, 0, 88, 100
2, 89280, Note_on_c, 0, 86, 100
2, 89280, Note_on_c, 0, 75, 100
2, 89280, Note_on_c, 0, 62, 100
2, 89520, Note_on_c, 0, 100, 0
2, 89520, Note_on_c, 0, 98, 0
2, 89520, Note_on_c, 0, 88, 0
2, 89520, Note_on_c, 0, 86, 0
2, 89520, Note_on_c, 0, 75, 0
2, 89520, Note_on_c, 0, 62, 0
2, 90240, Note_on_c, 0, 100, 100
2, 90240, Note_on_c, 0, 98, 100
2, 90240, Note_on_c, 0, 88, 100
2, 90240, Note_on_c, 0, 86, 100
2, 90240, Note_on_c, 0, 75, 100
2, 90240, Note_on_c, 0, 62, 100
2, 90480, Note_on_c, 0, 100, 0
2, 90480, Note_on_c, 0, 98, 0
2, 90480, Note_on_c, 0, 88, 0
2, 90480, Note_on_c, 0, 86, 0
2, 90480, Note_on_c, 0, 75, 0
2, 90480, Note_on_c, 0, 62, 0
2, 91200, Note_on_c, 0, 98, 100
2, 91200, Note_on_c, 0, 86, 100
2, 91200, Note_on_c, 0, 75, 100
2, 91200, Note_on_c, 0, 62, 100
2, 91440, Note_on_c, 0, 98, 0
2, 91440, Note_on_c, 0, 86, 0
2, 91440, Note_on_c, 0, 75, 0
2, 91440, Note_on_c, 0, 62, 0
2, 92130, Text_t, "sing_off"
2, 92130, Text_t, "[lighting (sweep)]"
2, 92160, Note_on_c, 0, 100, 100
2, 92160, Note_on_c, 0, 98, 100
2, 92160, Note_on_c, 0, 88, 100
2, 92160, Note_on_c, 0, 86, 100
2, 92160, Note_on_c, 0, 75, 100
2, 92160, Note_on_c, 0, 62, 100
2, 92400, Note_on_c, 0, 100, 0
2, 92400, Note_on_c, 0, 98, 0
2, 92400, Note_on_c, 0, 88, 0
2, 92400, Note_on_c, 0, 86, 0
2, 92400, Note_on_c, 0, 75, 0
2, 92400, Note_on_c, 0, 62, 0
2, 93600, Note_on_c, 0, 100, 100
2, 93600, Note_on_c, 0, 98, 100
2, 93600, Note_on_c, 0, 88, 100
2, 93600, Note_on_c, 0, 86, 100
2, 93600, Note_on_c, 0, 75, 100
2, 93600, Note_on_c, 0, 62, 100
2, 93840, Note_on_c, 0, 100, 0
2, 93840, Note_on_c, 0, 98, 0
2, 93840, Note_on_c, 0, 88, 0
2, 93840, Note_on_c, 0, 86, 0
2, 93840, Note_on_c, 0, 75, 0
2, 93840, Note_on_c, 0, 62, 0
2, 95040, Note_on_c, 0, 100, 100
2, 95040, Note_on_c, 0, 98, 100
2, 95040, Note_on_c, 0, 88, 100
2, 95040, Note_on_c, 0, 86, 100
2, 95040, Note_on_c, 0, 75, 100
2, 95040, Note_on_c, 0, 62, 100
2, 95280, Note_on_c, 0, 100, 0
2, 95280, Note_on_c, 0, 98, 0
2, 95280, Note_on_c, 0, 88, 0
2, 95280, Note_on_c, 0, 86, 0
2, 95280, Note_on_c, 0, 75, 0
2, 95280, Note_on_c, 0, 62, 0
2, 96960, Note_on_c, 0, 100, 100
2, 96960, Note_on_c, 0, 98, 100
2, 96960, Note_on_c, 0, 88, 100
2, 96960, Note_on_c, 0, 86, 100
2, 96960, Note_on_c, 0, 75, 100
2, 96960, Note_on_c, 0, 62, 100
2, 97200, Note_on_c, 0, 100, 0
2, 97200, Note_on_c, 0, 98, 0
2, 97200, Note_on_c, 0, 88, 0
2, 97200, Note_on_c, 0, 86, 0
2, 97200, Note_on_c, 0, 75, 0
2, 97200, Note_on_c, 0, 62, 0
2, 97920, Note_on_c, 0, 100, 100
2, 97920, Note_on_c, 0, 98, 100
2, 97920, Note_on_c, 0, 88, 100
2, 97920, Note_on_c, 0, 86, 100
2, 97920, Note_on_c, 0, 75, 100
2, 97920, Note_on_c, 0, 62, 100
2, 98160, Note_on_c, 0, 100, 0
2, 98160, Note_on_c, 0, 98, 0
2, 98160, Note_on_c, 0, 88, 0
2, 98160, Note_on_c, 0, 86, 0
2, 98160, Note_on_c, 0, 75, 0
2, 98160, Note_on_c, 0, 62, 0
2, 98880, Note_on_c, 0, 98, 100
2, 98880, Note_on_c, 0, 86, 100
2, 98880, Note_on_c, 0, 75, 100
2, 98880, Note_on_c, 0, 62, 100
2, 99120, Note_on_c, 0, 98, 0
2, 99120, Note_on_c, 0, 86, 0
2, 99120, Note_on_c, 0, 75, 0
2, 99120, Note_on_c, 0, 62, 0
2, 99810, Note_on_c, 0, 103, 100
2, 99810, Note_on_c, 0, 91, 100
2, 99810, Note_on_c, 0, 79, 100
2, 99810, Note_on_c, 0, 67, 100
2, 99810, Note_on_c, 0, 106, 100
2, 99810, Note_on_c, 0, 94, 100
2, 99810, Note_on_c, 0, 70, 100
2, 99810, Note_on_c, 0, 82, 100
2, 99840, Note_on_c, 0, 99, 100
2, 99840, Note_on_c, 0, 98, 100
2, 99840, Note_on_c, 0, 87, 100
2, 99840, Note_on_c, 0, 86, 100
2, 99840, Note_on_c, 0, 74, 100
2, 99840, Note_on_c, 0, 62, 100
2, 100440, Note_on_c, 0, 108, 100
2, 101160, Note_on_c, 0, 108, 0
2, 101400, Note_on_c, 0, 108, 100
2, 101640, Note_on_c, 0, 108, 0
2, 101880, Note_on_c, 0, 108, 100
2, 102600, Note_on_c, 0, 108, 0
2, 102840, Note_on_c, 0, 108, 100
2, 104520, Note_on_c, 0, 108, 0
2, 104760, Note_on_c, 0, 108, 100
2, 105480, Note_on_c, 0, 108, 0
2, 105720, Note_on_c, 0, 108, 100
2, 106440, Note_on_c, 0, 108, 0
2, 106680, Note_on_c, 0, 108, 100
2, 107490, Text_t, "sing_on"
2, 107490, Text_t, "[lighting ()]"
2, 107880, Note_on_c, 0, 108, 0
2, 108120, Note_on_c, 0, 108, 100
2, 108840, Note_on_c, 0, 108, 0
2, 109080, Note_on_c, 0, 108, 100
2, 109320, Note_on_c, 0, 108, 0
2, 109560, Note_on_c, 0, 108, 100
2, 110280, Note_on_c, 0, 108, 0
2, 110520, Note_on_c, 0, 108, 100
2, 111720, Note_on_c, 0, 108, 0
2, 111960, Note_on_c, 0, 108, 100
2, 112680, Note_on_c, 0, 108, 0
2, 112920, Note_on_c, 0, 108, 100
2, 113160, Note_on_c, 0, 108, 0
2, 113250, Note_on_c, 0, 105, 0
2, 113250, Note_on_c, 0, 93, 0
2, 113250, Note_on_c, 0, 69, 0
2, 113250, Note_on_c, 0, 81, 0
2, 113250, Note_on_c, 0, 103, 0
2, 113250, Note_on_c, 0, 91, 0
2, 113250, Note_on_c, 0, 79, 0
2, 113250, Note_on_c, 0, 67, 0
2, 113280, Note_on_c, 0, 99, 0
2, 113280, Note_on_c, 0, 98, 0
2, 113280, Note_on_c, 0, 87, 0
2, 113280, Note_on_c, 0, 86, 0
2, 113280, Note_on_c, 0, 74, 0
2, 113280, Note_on_c, 0, 62, 0
2, 113400, Note_on_c, 0, 108, 100
2, 113760, Note_on_c, 0, 98, 100
2, 113760, Note_on_c, 0, 86, 100
2, 113760, Note_on_c, 0, 74, 100
2, 113760, Note_on_c, 0, 62, 100
2, 114000, Note_on_c, 0, 98, 0
2, 114000, Note_on_c, 0, 86, 0
2, 114000, Note_on_c, 0, 74, 0
2, 114000, Note_on_c, 0, 62, 0
2, 114600, Note_on_c, 0, 108, 0
2, 114840, Note_on_c, 0, 108, 100
2, 115200, Note_on_c, 0, 100, 100
2, 115200, Note_on_c, 0, 98, 100
2, 115200, Note_on_c, 0, 88, 100
2, 115200, Note_on_c, 0, 86, 100
2, 115200, Note_on_c, 0, 75, 100
2, 115200, Note_on_c, 0, 62, 100
2, 115440, Note_on_c, 0, 100, 0
2, 115440, Note_on_c, 0, 98, 0
2, 115440, Note_on_c, 0, 88, 0
2, 115440, Note_on_c, 0, 86, 0
2, 115440, Note_on_c, 0, 75, 0
2, 115440, Note_on_c, 0, 62, 0
2, 116040, Note_on_c, 0, 108, 0
2, 116640, Note_on_c, 0, 100, 100
2, 116640, Note_on_c, 0, 98, 100
2, 116640, Note_on_c, 0, 88, 100
2, 116640, Note_on_c, 0, 86, 100
2, 116640, Note_on_c, 0, 75, 100
2, 116640, Note_on_c, 0, 62, 100
2, 116880, Note_on_c, 0, 100, 0
2, 116880, Note_on_c, 0, 98, 0
2, 116880, Note_on_c, 0, 88, 0
2, 116880, Note_on_c, 0, 86, 0
2, 116880, Note_on_c, 0, 75, 0
2, 116880, Note_on_c, 0, 62, 0
2, 118080, Note_on_c, 0, 100, 100
2, 118080, Note_on_c, 0, 98, 100
2, 118080, Note_on_c, 0, 88, 100
2, 118080, Note_on_c, 0, 86, 100
2, 118080, Note_on_c, 0, 75, 100
2, 118080, Note_on_c, 0, 62, 100
2, 118320, Note_on_c, 0, 100, 0
2, 118320, Note_on_c, 0, 98, 0
2, 118320, Note_on_c, 0, 88, 0
2, 118320, Note_on_c, 0, 86, 0
2, 118320, Note_on_c, 0, 75, 0
2, 118320, Note_on_c, 0, 62, 0
2, 120000, Note_on_c, 0, 100, 100
2, 120000, Note_on_c, 0, 98, 100
2, 120000, Note_on_c, 0, 88, 100
2, 120000, Note_on_c, 0, 86, 100
2, 120000, Note_on_c, 0, 75, 100
2, 120000, Note_on_c, 0, 62, 100
2, 120240, Note_on_c, 0, 100, 0
2, 120240, Note_on_c, 0, 98, 0
2, 120240, Note_on_c, 0, 88, 0
2, 120240, Note_on_c, 0, 86, 0
2, 120240, Note_on_c, 0, 75, 0
2, 120240, Note_on_c, 0, 62, 0
2, 120960, Note_on_c, 0, 100, 100
2, 120960, Note_on_c, 0, 98, 100
2, 120960, Note_on_c, 0, 88, 100
2, 120960, Note_on_c, 0, 86, 100
2, 120960, Note_on_c, 0, 75, 100
2, 120960, Note_on_c, 0, 62, 100
2, 121200, Note_on_c, 0, 100, 0
2, 121200, Note_on_c, 0, 98, 0
2, 121200, Note_on_c, 0, 88, 0
2, 121200, Note_on_c, 0, 86, 0
2, 121200, Note_on_c, 0, 75, 0
2, 121200, Note_on_c, 0, 62, 0
2, 121920, Note_on_c, 0, 98, 100
2, 121920, Note_on_c, 0, 86, 100
2, 121920, Note_on_c, 0, 75, 100
2, 121920, Note_on_c, 0, 62, 100
2, 122160, Note_on_c, 0, 98, 0
2, 122160, Note_on_c, 0, 86, 0
2, 122160, Note_on_c, 0, 75, 0
2, 122160, Note_on_c, 0, 62, 0
2, 122850, Text_t, "[lighting (sweep)]"
2, 122880, Note_on_c, 0, 100, 100
2, 122880, Note_on_c, 0, 98, 100
2, 122880, Note_on_c, 0, 88, 100
2, 122880, Note_on_c, 0, 86, 100
2, 122880, Note_on_c, 0, 75, 100
2, 122880, Note_on_c, 0, 62, 100
2, 123120, Note_on_c, 0, 100, 0
2, 123120, Note_on_c, 0, 98, 0
2, 123120, Note_on_c, 0, 88, 0
2, 123120, Note_on_c, 0, 86, 0
2, 123120, Note_on_c, 0, 75, 0
2, 123120, Note_on_c, 0, 62, 0
2, 124320, Note_on_c, 0, 100, 100
2, 124320, Note_on_c, 0, 98, 100
2, 124320, Note_on_c, 0, 88, 100
2, 124320, Note_on_c, 0, 86, 100
2, 124320, Note_on_c, 0, 75, 100
2, 124320, Note_on_c, 0, 62, 100
2, 124560, Note_on_c, 0, 100, 0
2, 124560, Note_on_c, 0, 98, 0
2, 124560, Note_on_c, 0, 88, 0
2, 124560, Note_on_c, 0, 86, 0
2, 124560, Note_on_c, 0, 75, 0
2, 124560, Note_on_c, 0, 62, 0
2, 125760, Note_on_c, 0, 100, 100
2, 125760, Note_on_c, 0, 98, 100
2, 125760, Note_on_c, 0, 88, 100
2, 125760, Note_on_c, 0, 86, 100
2, 125760, Note_on_c, 0, 75, 100
2, 125760, Note_on_c, 0, 62, 100
2, 126000, Note_on_c, 0, 100, 0
2, 126000, Note_on_c, 0, 98, 0
2, 126000, Note_on_c, 0, 88, 0
2, 126000, Note_on_c, 0, 86, 0
2, 126000, Note_on_c, 0, 75, 0
2, 126000, Note_on_c, 0, 62, 0
2, 126690, Text_t, "sing_off"
2, 126690, Note_on_c, 0, 103, 100
2, 126690, Note_on_c, 0, 91, 100
2, 126690, Note_on_c, 0, 79, 100
2, 126690, Note_on_c, 0, 67, 100
2, 126690, Note_on_c, 0, 105, 100
2, 126690, Note_on_c, 0, 93, 100
2, 126690, Note_on_c, 0, 69, 100
2, 126690, Note_on_c, 0, 81, 100
2, 126720, Note_on_c, 0, 98, 100
2, 126720, Note_on_c, 0, 86, 100
2, 126720, Note_on_c, 0, 74, 100
2, 126720, Note_on_c, 0, 61, 100
2, 130050, Note_on_c, 0, 103, 0
2, 130050, Note_on_c, 0, 91, 0
2, 130050, Note_on_c, 0, 79, 0
2, 130050, Note_on_c, 0, 67, 0
2, 130080, Note_on_c, 0, 98, 0
2, 130080, Note_on_c, 0, 86, 0
2, 130080, Note_on_c, 0, 74, 0
2, 130080, Note_on_c, 0, 61, 0
2, 130530, Note_on_c, 0, 106, 0
2, 130530, Note_on_c, 0, 94, 0
2, 130530, Note_on_c, 0, 70, 0
2, 130530, Note_on_c, 0, 82, 0
2, 130560, Note_on_c, 0, 99, 100
2, 130560, Note_on_c, 0, 98, 100
2, 130560, Note_on_c, 0, 87, 100
2, 130560, Note_on_c, 0, 86, 100
2, 130560, Note_on_c, 0, 74, 100
2, 130560, Note_on_c, 0, 62, 100
2, 130800, Note_on_c, 0, 99, 0
2, 130800, Note_on_c, 0, 98, 0
2, 130800, Note_on_c, 0, 87, 0
2, 130800, Note_on_c, 0, 86, 0
2, 130800, Note_on_c, 0, 74, 0
2, 130800, Note_on_c, 0, 62, 0
2, 131160, Note_on_c, 0, 108, 100
2, 131520, Note_on_c, 0, 99, 100
2, 131520, Note_on_c, 0, 98, 100
2, 131520, Note_on_c, 0, 87, 100
2, 131520, Note_on_c, 0, 86, 100
2, 131520, Note_on_c, 0, 74, 100
2, 131520, Note_on_c, 0, 62, 100
2, 131760, Note_on_c, 0, 99, 0
2, 131760, Note_on_c, 0, 98, 0
2, 131760, Note_on_c, 0, 87, 0
2, 131760, Note_on_c, 0, 86, 0
2, 131760, Note_on_c, 0, 74, 0
2, 131760, Note_on_c, 0, 62, 0
2, 131880, Note_on_c, 0, 108, 0
2, 132120, Note_on_c, 0, 108, 100
2, 132360, Note_on_c, 0, 108, 0
2, 132480, Note_on_c, 0, 99, 100
2, 132480, Note_on_c, 0, 98, 100
2, 132480, Note_on_c, 0, 87, 100
2, 132480, Note_on_c, 0, 86, 100
2, 132480, Note_on_c, 0, 74, 100
2, 132480, Note_on_c, 0, 62, 100
2, 132600, Note_on_c, 0, 108, 100
2, 132720, Note_on_c, 0, 99, 0
2, 132720, Note_on_c, 0, 98, 0
2, 132720, Note_on_c, 0, 87, 0
2, 132720, Note_on_c, 0, 86, 0
2, 132720, Note_on_c, 0, 74, 0
2, 132720, Note_on_c, 0, 62, 0
2, 132960, Note_on_c, 0, 99, 100
2, 132960, Note_on_c, 0, 98, 100
2, 132960, Note_on_c, 0, 87, 100
2, 132960, Note_on_c, 0, 86, 100
2, 132960, Note_on_c, 0, 74, 100
2, 133200, Note_on_c, 0, 99, 0
2, 133200, Note_on_c, 0, 98, 0
2, 133200, Note_on_c, 0, 87, 0
2, 133200, Note_on_c, 0, 86, 0
2, 133200, Note_on_c, 0, 74, 0
2, 133320, Note_on_c, 0, 108, 0
2, 133440, Note_on_c, 0, 99, 100
2, 133440, Note_on_c, 0, 98, 100
2, 133560, Note_on_c, 0, 108, 100
2, 133680, Note_on_c, 0, 99, 0
2, 133680, Note_on_c, 0, 98, 0
2, 133920, Note_on_c, 0, 98, 100
2, 133920, Note_on_c, 0, 97, 100
2, 133920, Note_on_c, 0, 86, 100
2, 133920, Note_on_c, 0, 85, 100
2, 133920, Note_on_c, 0, 73, 100
2, 133920, Note_on_c, 0, 61, 100
2, 134160, Note_on_c, 0, 98, 0
2, 134160, Note_on_c, 0, 97, 0
2, 134160, Note_on_c, 0, 86, 0
2, 134160, Note_on_c, 0, 85, 0
2, 134160, Note_on_c, 0, 73, 0
2, 134160, Note_on_c, 0, 61, 0
2, 134520, Note_on_c, 0, 108, 0
2, 134760, Note_on_c, 0, 108, 100
2, 135360, Note_on_c, 0, 98, 100
2, 135360, Note_on_c, 0, 97, 100
2, 135360, Note_on_c, 0, 86, 100
2, 135360, Note_on_c, 0, 85, 100
2, 135360, Note_on_c, 0, 73, 100
2, 135360, Note_on_c, 0, 61, 100
2, 135600, Note_on_c, 0, 98, 0
2, 135600, Note_on_c, 0, 97, 0
2, 135600, Note_on_c, 0, 86, 0
2, 135600, Note_on_c, 0, 85, 0
2, 135600, Note_on_c, 0, 73, 0
2, 135600, Note_on_c, 0, 61, 0
2, 135720, Note_on_c, 0, 108, 0
2, 135960, Note_on_c, 0, 108, 100
2, 136320, Note_on_c, 0, 98, 100
2, 136320, Note_on_c, 0, 97, 100
2, 136320, Note_on_c, 0, 86, 100
2, 136320, Note_on_c, 0, 85, 100
2, 136320, Note_on_c, 0, 73, 100
2, 136320, Note_on_c, 0, 61, 100
2, 136440, Note_on_c, 0, 108, 0
2, 136560, Note_on_c, 0, 98, 0
2, 136560, Note_on_c, 0, 97, 0
2, 136560, Note_on_c, 0, 86, 0
2, 136560, Note_on_c, 0, 85, 0
2, 136560, Note_on_c, 0, 73, 0
2, 136560, Note_on_c, 0, 61, 0
2, 136680, Note_on_c, 0, 108, 100
2, 137280, Note_on_c, 0, 98, 100
2, 137280, Note_on_c, 0, 97, 100
2, 137280, Note_on_c, 0, 86, 100
2, 137280, Note_on_c, 0, 85, 100
2, 137280, Note_on_c, 0, 73, 100
2, 137280, Note_on_c, 0, 61, 100
2, 137520, Note_on_c, 0, 98, 0
2, 137520, Note_on_c, 0, 97, 0
2, 137520, Note_on_c, 0, 86, 0
2, 137520, Note_on_c, 0, 85, 0
2, 137520, Note_on_c, 0, 73, 0
2, 137520, Note_on_c, 0, 61, 0
2, 137640, Note_on_c, 0, 108, 0
2, 137880, Note_on_c, 0, 108, 100
2, 138120, Note_on_c, 0, 108, 0
2, 138210, Text_t, "sing_on"
2, 138210, Text_t, "[lighting ()]"
2, 138240, Note_on_c, 0, 100, 100
2, 138240, Note_on_c, 0, 98, 100
2, 138240, Note_on_c, 0, 88, 100
2, 138240, Note_on_c, 0, 86, 100
2, 138240, Note_on_c, 0, 75, 100
2, 138240, Note_on_c, 0, 62, 100
2, 138360, Note_on_c, 0, 108, 100
2, 138480, Note_on_c, 0, 100, 0
2, 138480, Note_on_c, 0, 98, 0
2, 138480, Note_on_c, 0, 88, 0
2, 138480, Note_on_c, 0, 86, 0
2, 138480, Note_on_c, 0, 75, 0
2, 138480, Note_on_c, 0, 62, 0
2, 139080, Note_on_c, 0, 108, 0
2, 139200, Note_on_c, 0, 100, 100
2, 139200, Note_on_c, 0, 98, 100
2, 139200, Note_on_c, 0, 88, 100
2, 139200, Note_on_c, 0, 86, 100
2, 139200, Note_on_c, 0, 75, 100
2, 139200, Note_on_c, 0, 62, 100
2, 139320, Note_on_c, 0, 108, 100
2, 139440, Note_on_c, 0, 100, 0
2, 139440, Note_on_c, 0, 98, 0
2, 139440, Note_on_c, 0, 88, 0
2, 139440, Note_on_c, 0, 86, 0
2, 139440, Note_on_c, 0, 75, 0
2, 139440, Note_on_c, 0, 62, 0
2, 140040, Note_on_c, 0, 108, 0
2, 140160, Note_on_c, 0, 100, 100
2, 140160, Note_on_c, 0, 98, 100
2, 140160, Note_on_c, 0, 88, 100
2, 140160, Note_on_c, 0, 86, 100
2, 140160, Note_on_c, 0, 75, 100
2, 140160, Note_on_c, 0, 62, 100
2, 140280, Note_on_c, 0, 108, 100
2, 140400, Note_on_c, 0, 100, 0
2, 140400, Note_on_c, 0, 98, 0
2, 140400, Note_on_c, 0, 88, 0
2, 140400, Note_on_c, 0, 86, 0
2, 140400, Note_on_c, 0, 75, 0
2, 140400, Note_on_c, 0, 62, 0
2, 140640, Note_on_c, 0, 100, 100
2, 140640, Note_on_c, 0, 98, 100
2, 140640, Note_on_c, 0, 88, 100
2, 140640, Note_on_c, 0, 86, 100
2, 140640, Note_on_c, 0, 75, 100
2, 140880, Note_on_c, 0, 100, 0
2, 140880, Note_on_c, 0, 98, 0
2, 140880, Note_on_c, 0, 88, 0
2, 140880, Note_on_c, 0, 86, 0
2, 140880, Note_on_c, 0, 75, 0
2, 141000, Note_on_c, 0, 108, 0
2, 141120, Note_on_c, 0, 100, 100
2, 141120, Note_on_c, 0, 98, 100
2, 141240, Note_on_c, 0, 108, 100
2, 141360, Note_on_c, 0, 100, 0
2, 141360, Note_on_c, 0, 98, 0
2, 141480, Note_on_c, 0, 108, 0
2, 141600, Note_on_c, 0, 99, 100
2, 141600, Note_on_c, 0, 97, 100
2, 141600, Note_on_c, 0, 87, 100
2, 141600, Note_on_c, 0, 85, 100
2, 141600, Note_on_c, 0, 73, 100
2, 141600, Note_on_c, 0, 74, 100
2, 141600, Note_on_c, 0, 61, 100
2, 141840, Note_on_c, 0, 99, 0
2, 141840, Note_on_c, 0, 97, 0
2, 141840, Note_on_c, 0, 87, 0
2, 141840, Note_on_c, 0, 85, 0
2, 141840, Note_on_c, 0, 73, 0
2, 141840, Note_on_c, 0, 74, 0
2, 141840, Note_on_c, 0, 61, 0
2, 143040, Note_on_c, 0, 99, 100
2, 143040, Note_on_c, 0, 97, 100
2, 143040, Note_on_c, 0, 87, 100
2, 143040, Note_on_c, 0, 85, 100
2, 143040, Note_on_c, 0, 73, 100
2, 143040, Note_on_c, 0, 74, 100
2, 143040, Note_on_c, 0, 61, 100
2, 143280, Note_on_c, 0, 99, 0
2, 143280, Note_on_c, 0, 97, 0
2, 143280, Note_on_c, 0, 87, 0
2, 143280, Note_on_c, 0, 85, 0
2, 143280, Note_on_c, 0, 73, 0
2, 143280, Note_on_c, 0, 74, 0
2, 143280, Note_on_c, 0, 61, 0
2, 144000, Note_on_c, 0, 99, 100
2, 144000, Note_on_c, 0, 97, 100
2, 144000, Note_on_c, 0, 87, 100
2, 144000, Note_on_c, 0, 85, 100
2, 144000, Note_on_c, 0, 73, 100
2, 144000, Note_on_c, 0, 74, 100
2, 144000, Note_on_c, 0, 61, 100
2, 144120, Note_on_c, 0, 108, 100
2, 144240, Note_on_c, 0, 99, 0
2, 144240, Note_on_c, 0, 97, 0
2, 144240, Note_on_c, 0, 87, 0
2, 144240, Note_on_c, 0, 85, 0
2, 144240, Note_on_c, 0, 73, 0
2, 144240, Note_on_c, 0, 74, 0
2, 144240, Note_on_c, 0, 61, 0
2, 144360, Note_on_c, 0, 108, 0
2, 144600, Note_on_c, 0, 108, 100
2, 144960, Note_on_c, 0, 99, 100
2, 144960, Note_on_c, 0, 97, 100
2, 144960, Note_on_c, 0, 87, 100
2, 144960, Note_on_c, 0, 85, 100
2, 144960, Note_on_c, 0, 73, 100
2, 144960, Note_on_c, 0, 74, 100
2, 144960, Note_on_c, 0, 61, 100
2, 145200, Note_on_c, 0, 99, 0
2, 145200, Note_on_c, 0, 97, 0
2, 145200, Note_on_c, 0, 87, 0
2, 145200, Note_on_c, 0, 85, 0
2, 145200, Note_on_c, 0, 73, 0
2, 145200, Note_on_c, 0, 74, 0
2, 145200, Note_on_c, 0, 61, 0
2, 145320, Note_on_c, 0, 108, 0
2, 145560, Note_on_c, 0, 108, 100
2, 145890, Note_on_c, 0, 105, 0
2, 145890, Note_on_c, 0, 93, 0
2, 145890, Note_on_c, 0, 69, 0
2, 145890, Note_on_c, 0, 81, 0
2, 145890, Note_on_c, 0, 106, 100
2, 145890, Note_on_c, 0, 94, 100
2, 145890, Note_on_c, 0, 70, 100
2, 145890, Note_on_c, 0, 82, 100
2, 145920, Note_on_c, 0, 99, 100
2, 145920, Note_on_c, 0, 98, 100
2, 145920, Note_on_c, 0, 87, 100
2, 145920, Note_on_c, 0, 86, 100
2, 145920, Note_on_c, 0, 74, 100
2, 145920, Note_on_c, 0, 62, 100
2, 146160, Note_on_c, 0, 99, 0
2, 146160, Note_on_c, 0, 98, 0
2, 146160, Note_on_c, 0, 87, 0
2, 146160, Note_on_c, 0, 86, 0
2, 146160, Note_on_c, 0, 74, 0
2, 146160, Note_on_c, 0, 62, 0
2, 146280, Note_on_c, 0, 108, 0
2, 146520, Note_on_c, 0, 108, 100
2, 146760, Note_on_c, 0, 108, 0
2, 146880, Note_on_c, 0, 99, 100
2, 146880, Note_on_c, 0, 98, 100
2, 146880, Note_on_c, 0, 87, 100
2, 146880, Note_on_c, 0, 86, 100
2, 146880, Note_on_c, 0, 74, 100
2, 146880, Note_on_c, 0, 62, 100
2, 147000, Note_on_c, 0, 108, 100
2, 147120, Note_on_c, 0, 99, 0
2, 147120, Note_on_c, 0, 98, 0
2, 147120, Note_on_c, 0, 87, 0
2, 147120, Note_on_c, 0, 86, 0
2, 147120, Note_on_c, 0, 74, 0
2, 147120, Note_on_c, 0, 62, 0
2, 147720, Note_on_c, 0, 108, 0
2, 147840, Note_on_c, 0, 99, 100
2, 147840, Note_on_c, 0, 98, 100
2, 147840, Note_on_c, 0, 87, 100
2, 147840, Note_on_c, 0, 86, 100
2, 147840, Note_on_c, 0, 74, 100
2, 147840, Note_on_c, 0, 62, 100
2, 147960, Note_on_c, 0, 108, 100
2, 148080, Note_on_c, 0, 99, 0
2, 148080, Note_on_c, 0, 98, 0
2, 148080, Note_on_c, 0, 87, 0
2, 148080, Note_on_c, 0, 86, 0
2, 148080, Note_on_c, 0, 74, 0
2, 148080, Note_on_c, 0, 62, 0
2, 148320, Note_on_c, 0, 99, 100
2, 148320, Note_on_c, 0, 98, 100
2, 148320, Note_on_c, 0, 87, 100
2, 148320, Note_on_c, 0, 86, 100
2, 148320, Note_on_c, 0, 74, 100
2, 148560, Note_on_c, 0, 99, 0
2, 148560, Note_on_c, 0, 98, 0
2, 148560, Note_on_c, 0, 87, 0
2, 148560, Note_on_c, 0, 86, 0
2, 148560, Note_on_c, 0, 74, 0
2, 148680, Note_on_c, 0, 108, 0
2, 148800, Note_on_c, 0, 99, 100
2, 148800, Note_on_c, 0, 98, 100
2, 148920, Note_on_c, 0, 108, 100
2, 149040, Note_on_c, 0, 99, 0
2, 149040, Note_on_c, 0, 98, 0
2, 149280, Note_on_c, 0, 98, 100
2, 149280, Note_on_c, 0, 97, 100
2, 149280, Note_on_c, 0, 86, 100
2, 149280, Note_on_c, 0, 85, 100
2, 149280, Note_on_c, 0, 73, 100
2, 149280, Note_on_c, 0, 61, 100
2, 149520, Note_on_c, 0, 98, 0
2, 149520, Note_on_c, 0, 97, 0
2, 149520, Note_on_c, 0, 86, 0
2, 149520, Note_on_c, 0, 85, 0
2, 149520, Note_on_c, 0, 73, 0
2, 149520, Note_on_c, 0, 61, 0
2, 150120, Note_on_c, 0, 108, 0
2, 150360, Note_on_c, 0, 108, 100
2, 150600, Note_on_c, 0, 108, 0
2, 150720, Note_on_c, 0, 98, 100
2, 150720, Note_on_c, 0, 97, 100
2, 150720, Note_on_c, 0, 86, 100
2, 150720, Note_on_c, 0, 85, 100
2, 150720, Note_on_c, 0, 73, 100
2, 150720, Note_on_c, 0, 61, 100
2, 150840, Note_on_c, 0, 108, 100
2, 150960, Note_on_c, 0, 98, 0
2, 150960, Note_on_c, 0, 97, 0
2, 150960, Note_on_c, 0, 86, 0
2, 150960, Note_on_c, 0, 85, 0
2, 150960, Note_on_c, 0, 73, 0
2, 150960, Note_on_c, 0, 61, 0
2, 151560, Note_on_c, 0, 108, 0
2, 151680, Note_on_c, 0, 98, 100
2, 151680, Note_on_c, 0, 97, 100
2, 151680, Note_on_c, 0, 86, 100
2, 151680, Note_on_c, 0, 85, 100
2, 151680, Note_on_c, 0, 73, 100
2, 151680, Note_on_c, 0, 61, 100
2, 151800, Note_on_c, 0, 108, 100
2, 151920, Note_on_c, 0, 98, 0
2, 151920, Note_on_c, 0, 97, 0
2, 151920, Note_on_c, 0, 86, 0
2, 151920, Note_on_c, 0, 85, 0
2, 151920, Note_on_c, 0, 73, 0
2, 151920, Note_on_c, 0, 61, 0
2, 152160, Note_on_c, 0, 98, 100
2, 152160, Note_on_c, 0, 97, 100
2, 152160, Note_on_c, 0, 86, 100
2, 152160, Note_on_c, 0, 85, 100
2, 152400, Note_on_c, 0, 98, 0
2, 152400, Note_on_c, 0, 97, 0
2, 152400, Note_on_c, 0, 86, 0
2, 152400, Note_on_c, 0, 85, 0
2, 152640, Note_on_c, 0, 98, 100
2, 152640, Note_on_c, 0, 97, 100
2, 152640, Note_on_c, 0, 73, 100
2, 152640, Note_on_c, 0, 61, 100
2, 152880, Note_on_c, 0, 98, 0
2, 152880, Note_on_c, 0, 97, 0
2, 152880, Note_on_c, 0, 73, 0
2, 152880, Note_on_c, 0, 61, 0
2, 153600, Note_on_c, 0, 99, 100
2, 153600, Note_on_c, 0, 97, 100
2, 153600, Note_on_c, 0, 87, 100
2, 153600, Note_on_c, 0, 85, 100
2, 153600, Note_on_c, 0, 75, 100
2, 153600, Note_on_c, 0, 62, 100
2, 153720, Note_on_c, 0, 108, 0
2, 153840, Note_on_c, 0, 99, 0
2, 153840, Note_on_c, 0, 97, 0
2, 153840, Note_on_c, 0, 87, 0
2, 153840, Note_on_c, 0, 85, 0
2, 153840, Note_on_c, 0, 75, 0
2, 153840, Note_on_c, 0, 62, 0
2, 154200, Note_on_c, 0, 108, 100
2, 154560, Note_on_c, 0, 99, 100
2, 154560, Note_on_c, 0, 97, 100
2, 154560, Note_on_c, 0, 87, 100
2, 154560, Note_on_c, 0, 85, 100
2, 154560, Note_on_c, 0, 75, 100
2, 154560, Note_on_c, 0, 62, 100
2, 154800, Note_on_c, 0, 99, 0
2, 154800, Note_on_c, 0, 97, 0
2, 154800, Note_on_c, 0, 87, 0
2, 154800, Note_on_c, 0, 85, 0
2, 154800, Note_on_c, 0, 75, 0
2, 154800, Note_on_c, 0, 62, 0
2, 155400, Note_on_c, 0, 108, 0
2, 155520, Note_on_c, 0, 99, 100
2, 155520, Note_on_c, 0, 97, 100
2, 155520, Note_on_c, 0, 87, 100
2, 155520, Note_on_c, 0, 85, 100
2, 155520, Note_on_c, 0, 75, 100
2, 155520, Note_on_c, 0, 62, 100
2, 155760, Note_on_c, 0, 99, 0
2, 155760, Note_on_c, 0, 97, 0
2, 155760, Note_on_c, 0, 87, 0
2, 155760, Note_on_c, 0, 85, 0
2, 155760, Note_on_c, 0, 75, 0
2, 155760, Note_on_c, 0, 62, 0
2, 156000, Note_on_c, 0, 99, 100
2, 156000, Note_on_c, 0, 97, 100
2, 156000, Note_on_c, 0, 87, 100
2, 156000, Note_on_c, 0, 85, 100
2, 156000, Note_on_c, 0, 75, 100
2, 156240, Note_on_c, 0, 99, 0
2, 156240, Note_on_c, 0, 97, 0
2, 156240, Note_on_c, 0, 87, 0
2, 156240, Note_on_c, 0, 85, 0
2, 156240, Note_on_c, 0, 75, 0
2, 156480, Note_on_c, 0, 99, 100
2, 156480, Note_on_c, 0, 97, 100
2, 156480, Note_on_c, 0, 87, 100
2, 156480, Note_on_c, 0, 85, 100
2, 156720, Note_on_c, 0, 99, 0
2, 156720, Note_on_c, 0, 97, 0
2, 156720, Note_on_c, 0, 87, 0
2, 156720, Note_on_c, 0, 85, 0
2, 156960, Note_on_c, 0, 73, 100
2, 156960, Note_on_c, 0, 74, 100
2, 156960, Note_on_c, 0, 61, 100
2, 157200, Note_on_c, 0, 73, 0
2, 157200, Note_on_c, 0, 74, 0
2, 157200, Note_on_c, 0, 61, 0
2, 157440, Note_on_c, 0, 99, 100
2, 157440, Note_on_c, 0, 97, 100
2, 157440, Note_on_c, 0, 87, 100
2, 157440, Note_on_c, 0, 85, 100
2, 157560, Note_on_c, 0, 108, 100
2, 157680, Note_on_c, 0, 99, 0
2, 157680, Note_on_c, 0, 97, 0
2, 157680, Note_on_c, 0, 87, 0
2, 157680, Note_on_c, 0, 85, 0
2, 157800, Note_on_c, 0, 108, 0
2, 158040, Note_on_c, 0, 108, 100
2, 158400, Note_on_c, 0, 99, 100
2, 158400, Note_on_c, 0, 97, 100
2, 158400, Note_on_c, 0, 87, 100
2, 158400, Note_on_c, 0, 85, 100
2, 158400, Note_on_c, 0, 73, 100
2, 158400, Note_on_c, 0, 74, 100
2, 158400, Note_on_c, 0, 61, 100
2, 158640, Note_on_c, 0, 99, 0
2, 158640, Note_on_c, 0, 97, 0
2, 158640, Note_on_c, 0, 87, 0
2, 158640, Note_on_c, 0, 85, 0
2, 158640, Note_on_c, 0, 73, 0
2, 158640, Note_on_c, 0, 74, 0
2, 158640, Note_on_c, 0, 61, 0
2, 158760, Note_on_c, 0, 108, 0
2, 159000, Note_on_c, 0, 108, 100
2, 159240, Note_on_c, 0, 108, 0
2, 159360, Note_on_c, 0, 99, 100
2, 159360, Note_on_c, 0, 87, 100
2, 159360, Note_on_c, 0, 74, 100
2, 159360, Note_on_c, 0, 62, 100
2, 159480, Note_on_c, 0, 108, 100
2, 159600, Note_on_c, 0, 99, 0
2, 159600, Note_on_c, 0, 87, 0
2, 159600, Note_on_c, 0, 74, 0
2, 159600, Note_on_c, 0, 62, 0
2, 160200, Note_on_c, 0, 108, 0
2, 160290, Note_on_c, 0, 105, 100
2, 160290, Note_on_c, 0, 93, 100
2, 160290, Note_on_c, 0, 69, 100
2, 160290, Note_on_c, 0, 81, 100
2, 160320, Note_on_c, 0, 98, 100
2, 160320, Note_on_c, 0, 86, 100
2, 160320, Note_on_c, 0, 73, 100
2, 160320, Note_on_c, 0, 61, 100
2, 160440, Note_on_c, 0, 108, 100
2, 160560, Note_on_c, 0, 98, 0
2, 160560, Note_on_c, 0, 86, 0
2, 160560, Note_on_c, 0, 73, 0
2, 160560, Note_on_c, 0, 61, 0
2, 160680, Note_on_c, 0, 108, 0
2, 160920, Note_on_c, 0, 108, 100
2, 161280, Note_on_c, 0, 100, 100
2, 161280, Note_on_c, 0, 98, 100
2, 161280, Note_on_c, 0, 88, 100
2, 161280, Note_on_c, 0, 86, 100
2, 161280, Note_on_c, 0, 75, 100
2, 161280, Note_on_c, 0, 62, 100
2, 161520, Note_on_c, 0, 100, 0
2, 161520, Note_on_c, 0, 98, 0
2, 161520, Note_on_c, 0, 88, 0
2, 161520, Note_on_c, 0, 86, 0
2, 161520, Note_on_c, 0, 75, 0
2, 161520, Note_on_c, 0, 62, 0
2, 162120, Note_on_c, 0, 108, 0
2, 162240, Note_on_c, 0, 100, 100
2, 162240, Note_on_c, 0, 98, 100
2, 162240, Note_on_c, 0, 88, 100
2, 162240, Note_on_c, 0, 86, 100
2, 162240, Note_on_c, 0, 75, 100
2, 162240, Note_on_c, 0, 62, 100
2, 162480, Note_on_c, 0, 100, 0
2, 162480, Note_on_c, 0, 98, 0
2, 162480, Note_on_c, 0, 88, 0
2, 162480, Note_on_c, 0, 86, 0
2, 162480, Note_on_c, 0, 75, 0
2, 162480, Note_on_c, 0, 62, 0
2, 164160, Note_on_c, 0, 100, 100
2, 164160, Note_on_c, 0, 98, 100
2, 164160, Note_on_c, 0, 88, 100
2, 164160, Note_on_c, 0, 86, 100
2, 164160, Note_on_c, 0, 75, 100
2, 164160, Note_on_c, 0, 62, 100
2, 164400, Note_on_c, 0, 100, 0
2, 164400, Note_on_c, 0, 98, 0
2, 164400, Note_on_c, 0, 88, 0
2, 164400, Note_on_c, 0, 86, 0
2, 164400, Note_on_c, 0, 75, 0
2, 164400, Note_on_c, 0, 62, 0
2, 165720, Note_on_c, 0, 108, 100
2, 166080, Note_on_c, 0, 100, 100
2, 166080, Note_on_c, 0, 98, 100
2, 166080, Note_on_c, 0, 88, 100
2, 166080, Note_on_c, 0, 86, 100
2, 166080, Note_on_c, 0, 75, 100
2, 166080, Note_on_c, 0, 62, 100
2, 166320, Note_on_c, 0, 100, 0
2, 166320, Note_on_c, 0, 98, 0
2, 166320, Note_on_c, 0, 88, 0
2, 166320, Note_on_c, 0, 86, 0
2, 166320, Note_on_c, 0, 75, 0
2, 166320, Note_on_c, 0, 62, 0
2, 166440, Note_on_c, 0, 108, 0
2, 166680, Note_on_c, 0, 108, 100
2, 166920, Note_on_c, 0, 108, 0
2, 167040, Note_on_c, 0, 100, 100
2, 167040, Note_on_c, 0, 98, 100
2, 167040, Note_on_c, 0, 88, 100
2, 167040, Note_on_c, 0, 86, 100
2, 167040, Note_on_c, 0, 75, 100
2, 167040, Note_on_c, 0, 62, 100
2, 167160, Note_on_c, 0, 108, 100
2, 167280, Note_on_c, 0, 100, 0
2, 167280, Note_on_c, 0, 98, 0
2, 167280, Note_on_c, 0, 88, 0
2, 167280, Note_on_c, 0, 86, 0
2, 167280, Note_on_c, 0, 75, 0
2, 167280, Note_on_c, 0, 62, 0
2, 167520, Note_on_c, 0, 100, 100
2, 167520, Note_on_c, 0, 98, 100
2, 167520, Note_on_c, 0, 88, 100
2, 167520, Note_on_c, 0, 86, 100
2, 167520, Note_on_c, 0, 75, 100
2, 167760, Note_on_c, 0, 100, 0
2, 167760, Note_on_c, 0, 98, 0
2, 167760, Note_on_c, 0, 88, 0
2, 167760, Note_on_c, 0, 86, 0
2, 167760, Note_on_c, 0, 75, 0
2, 168000, Note_on_c, 0, 100, 100
2, 168000, Note_on_c, 0, 98, 100
2, 168000, Note_on_c, 0, 88, 100
2, 168000, Note_on_c, 0, 86, 100
2, 168000, Note_on_c, 0, 75, 100
2, 168000, Note_on_c, 0, 62, 100
2, 168120, Note_on_c, 0, 108, 0
2, 168240, Note_on_c, 0, 100, 0
2, 168240, Note_on_c, 0, 98, 0
2, 168240, Note_on_c, 0, 88, 0
2, 168240, Note_on_c, 0, 86, 0
2, 168240, Note_on_c, 0, 75, 0
2, 168240, Note_on_c, 0, 62, 0
2, 168360, Note_on_c, 0, 108, 100
2, 168930, Text_t, "[chorus]"
2, 168930, Text_t, "[lighting (sweep)]"
2, 168960, Note_on_c, 0, 99, 100
2, 168960, Note_on_c, 0, 97, 100
2, 168960, Note_on_c, 0, 87, 100
2, 168960, Note_on_c, 0, 85, 100
2, 168960, Note_on_c, 0, 74, 100
2, 168960, Note_on_c, 0, 73, 100
2, 168960, Note_on_c, 0, 61, 100
2, 169200, Note_on_c, 0, 99, 0
2, 169200, Note_on_c, 0, 97, 0
2, 169200, Note_on_c, 0, 87, 0
2, 169200, Note_on_c, 0, 85, 0
2, 169200, Note_on_c, 0, 74, 0
2, 169200, Note_on_c, 0, 73, 0
2, 169200, Note_on_c, 0, 61, 0
2, 169320, Note_on_c, 0, 108, 0
2, 169560, Note_on_c, 0, 108, 100
2, 169800, Note_on_c, 0, 108, 0
2, 169920, Note_on_c, 0, 99, 100
2, 169920, Note_on_c, 0, 97, 100
2, 169920, Note_on_c, 0, 87, 100
2, 169920, Note_on_c, 0, 85, 100
2, 169920, Note_on_c, 0, 74, 100
2, 169920, Note_on_c, 0, 73, 100
2, 169920, Note_on_c, 0, 61, 100
2, 170040, Note_on_c, 0, 108, 100
2, 170160, Note_on_c, 0, 99, 0
2, 170160, Note_on_c, 0, 97, 0
2, 170160, Note_on_c, 0, 87, 0
2, 170160, Note_on_c, 0, 85, 0
2, 170160, Note_on_c, 0, 74, 0
2, 170160, Note_on_c, 0, 73, 0
2, 170160, Note_on_c, 0, 61, 0
2, 171000, Note_on_c, 0, 108, 0
2, 171840, Note_on_c, 0, 99, 100
2, 171840, Note_on_c, 0, 97, 100
2, 171840, Note_on_c, 0, 87, 100
2, 171840, Note_on_c, 0, 85, 100
2, 171840, Note_on_c, 0, 74, 100
2, 171840, Note_on_c, 0, 73, 100
2, 171840, Note_on_c, 0, 61, 100
2, 172080, Note_on_c, 0, 99, 0
2, 172080, Note_on_c, 0, 97, 0
2, 172080, Note_on_c, 0, 87, 0
2, 172080, Note_on_c, 0, 85, 0
2, 172080, Note_on_c, 0, 74, 0
2, 172080, Note_on_c, 0, 73, 0
2, 172080, Note_on_c, 0, 61, 0
2, 173400, Note_on_c, 0, 108, 100
2, 173760, Note_on_c, 0, 99, 100
2, 173760, Note_on_c, 0, 97, 100
2, 173760, Note_on_c, 0, 87, 100
2, 173760, Note_on_c, 0, 85, 100
2, 173760, Note_on_c, 0, 74, 100
2, 173760, Note_on_c, 0, 73, 100
2, 173760, Note_on_c, 0, 61, 100
2, 174000, Note_on_c, 0, 99, 0
2, 174000, Note_on_c, 0, 97, 0
2, 174000, Note_on_c, 0, 87, 0
2, 174000, Note_on_c, 0, 85, 0
2, 174000, Note_on_c, 0, 74, 0
2, 174000, Note_on_c, 0, 73, 0
2, 174000, Note_on_c, 0, 61, 0
2, 174120, Note_on_c, 0, 108, 0
2, 174360, Note_on_c, 0, 108, 100
2, 174600, Note_on_c, 0, 108, 0
2, 174720, Note_on_c, 0, 99, 100
2, 174720, Note_on_c, 0, 97, 100
2, 174720, Note_on_c, 0, 87, 100
2, 174720, Note_on_c, 0, 85, 100
2, 174720, Note_on_c, 0, 74, 100
2, 174720, Note_on_c, 0, 73, 100
2, 174720, Note_on_c, 0, 61, 100
2, 174840, Note_on_c, 0, 108, 100
2, 174960, Note_on_c, 0, 99, 0
2, 174960, Note_on_c, 0, 97, 0
2, 174960, Note_on_c, 0, 87, 0
2, 174960, Note_on_c, 0, 85, 0
2, 174960, Note_on_c, 0, 74, 0
2, 174960, Note_on_c, 0, 73, 0
2, 174960, Note_on_c, 0, 61, 0
2, 175200, Note_on_c, 0, 99, 100
2, 175200, Note_on_c, 0, 97, 100
2, 175200, Note_on_c, 0, 87, 100
2, 175200, Note_on_c, 0, 85, 100
2, 175200, Note_on_c, 0, 74, 100
2, 175200, Note_on_c, 0, 73, 100
2, 175440, Note_on_c, 0, 99, 0
2, 175440, Note_on_c, 0, 97, 0
2, 175440, Note_on_c, 0, 87, 0
2, 175440, Note_on_c, 0, 85, 0
2, 175440, Note_on_c, 0, 74, 0
2, 175440, Note_on_c, 0, 73, 0
2, 175560, Note_on_c, 0, 108, 0
2, 175680, Note_on_c, 0, 99, 100
2, 175680, Note_on_c, 0, 97, 100
2, 175680, Note_on_c, 0, 87, 100
2, 175680, Note_on_c, 0, 85, 100
2, 175680, Note_on_c, 0, 74, 100
2, 175680, Note_on_c, 0, 73, 100
2, 175680, Note_on_c, 0, 61, 100
2, 175800, Note_on_c, 0, 108, 100
2, 175920, Note_on_c, 0, 99, 0
2, 175920, Note_on_c, 0, 97, 0
2, 175920, Note_on_c, 0, 87, 0
2, 175920, Note_on_c, 0, 85, 0
2, 175920, Note_on_c, 0, 74, 0
2, 175920, Note_on_c, 0, 73, 0
2, 175920, Note_on_c, 0, 61, 0
2, 176640, Note_on_c, 0, 100, 100
2, 176640, Note_on_c, 0, 98, 100
2, 176640, Note_on_c, 0, 88, 100
2, 176640, Note_on_c, 0, 86, 100
2, 176640, Note_on_c, 0, 75, 100
2, 176640, Note_on_c, 0, 62, 100
2, 176880, Note_on_c, 0, 100, 0
2, 176880, Note_on_c, 0, 98, 0
2, 176880, Note_on_c, 0, 88, 0
2, 176880, Note_on_c, 0, 86, 0
2, 176880, Note_on_c, 0, 75, 0
2, 176880, Note_on_c, 0, 62, 0
2, 177000, Note_on_c, 0, 108, 0
2, 177600, Note_on_c, 0, 100, 100
2, 177600, Note_on_c, 0, 98, 100
2, 177600, Note_on_c, 0, 88, 100
2, 177600, Note_on_c, 0, 86, 100
2, 177600, Note_on_c, 0, 75, 100
2, 177600, Note_on_c, 0, 62, 100
2, 177840, Note_on_c, 0, 100, 0
2, 177840, Note_on_c, 0, 98, 0
2, 177840, Note_on_c, 0, 88, 0
2, 177840, Note_on_c, 0, 86, 0
2, 177840, Note_on_c, 0, 75, 0
2, 177840, Note_on_c, 0, 62, 0
2, 179520, Note_on_c, 0, 100, 100
2, 179520, Note_on_c, 0, 98, 100
2, 179520, Note_on_c, 0, 88, 100
2, 179520, Note_on_c, 0, 86, 100
2, 179520, Note_on_c, 0, 75, 100
2, 179520, Note_on_c, 0, 62, 100
2, 179760, Note_on_c, 0, 100, 0
2, 179760, Note_on_c, 0, 98, 0
2, 179760, Note_on_c, 0, 88, 0
2, 179760, Note_on_c, 0, 86, 0
2, 179760, Note_on_c, 0, 75, 0
2, 179760, Note_on_c, 0, 62, 0
2, 180600, Note_on_c, 0, 108, 100
2, 180840, Note_on_c, 0, 108, 0
2, 181080, Note_on_c, 0, 108, 100
2, 181440, Note_on_c, 0, 100, 100
2, 181440, Note_on_c, 0, 98, 100
2, 181440, Note_on_c, 0, 88, 100
2, 181440, Note_on_c, 0, 86, 100
2, 181440, Note_on_c, 0, 75, 100
2, 181440, Note_on_c, 0, 62, 100
2, 181680, Note_on_c, 0, 100, 0
2, 181680, Note_on_c, 0, 98, 0
2, 181680, Note_on_c, 0, 88, 0
2, 181680, Note_on_c, 0, 86, 0
2, 181680, Note_on_c, 0, 75, 0
2, 181680, Note_on_c, 0, 62, 0
2, 181800, Note_on_c, 0, 108, 0
2, 182040, Note_on_c, 0, 108, 100
2, 182280, Note_on_c, 0, 108, 0
2, 182400, Note_on_c, 0, 100, 100
2, 182400, Note_on_c, 0, 98, 100
2, 182400, Note_on_c, 0, 88, 100
2, 182400, Note_on_c, 0, 86, 100
2, 182400, Note_on_c, 0, 75, 100
2, 182400, Note_on_c, 0, 62, 100
2, 182520, Note_on_c, 0, 108, 100
2, 182640, Note_on_c, 0, 100, 0
2, 182640, Note_on_c, 0, 98, 0
2, 182640, Note_on_c, 0, 88, 0
2, 182640, Note_on_c, 0, 86, 0
2, 182640, Note_on_c, 0, 75, 0
2, 182640, Note_on_c, 0, 62, 0
2, 182880, Note_on_c, 0, 100, 100
2, 182880, Note_on_c, 0, 98, 100
2, 182880, Note_on_c, 0, 88, 100
2, 182880, Note_on_c, 0, 86, 100
2, 182880, Note_on_c, 0, 75, 100
2, 183120, Note_on_c, 0, 100, 0
2, 183120, Note_on_c, 0, 98, 0
2, 183120, Note_on_c, 0, 88, 0
2, 183120, Note_on_c, 0, 86, 0
2, 183120, Note_on_c, 0, 75, 0
2, 183360, Note_on_c, 0, 100, 100
2, 183360, Note_on_c, 0, 98, 100
2, 183360, Note_on_c, 0, 88, 100
2, 183360, Note_on_c, 0, 86, 100
2, 183360, Note_on_c, 0, 75, 100
2, 183360, Note_on_c, 0, 62, 100
2, 183480, Note_on_c, 0, 108, 0
2, 183600, Note_on_c, 0, 100, 0
2, 183600, Note_on_c, 0, 98, 0
2, 183600, Note_on_c, 0, 88, 0
2, 183600, Note_on_c, 0, 86, 0
2, 183600, Note_on_c, 0, 75, 0
2, 183600, Note_on_c, 0, 62, 0
2, 183720, Note_on_c, 0, 108, 100
2, 184320, Note_on_c, 0, 98, 100
2, 184320, Note_on_c, 0, 97, 100
2, 184320, Note_on_c, 0, 86, 100
2, 184320, Note_on_c, 0, 85, 100
2, 184320, Note_on_c, 0, 73, 100
2, 184320, Note_on_c, 0, 61, 100
2, 184560, Note_on_c, 0, 98, 0
2, 184560, Note_on_c, 0, 97, 0
2, 184560, Note_on_c, 0, 86, 0
2, 184560, Note_on_c, 0, 85, 0
2, 184560, Note_on_c, 0, 73, 0
2, 184560, Note_on_c, 0, 61, 0
2, 185280, Note_on_c, 0, 98, 100
2, 185280, Note_on_c, 0, 97, 100
2, 185280, Note_on_c, 0, 86, 100
2, 185280, Note_on_c, 0, 85, 100
2, 185280, Note_on_c, 0, 73, 100
2, 185280, Note_on_c, 0, 61, 100
2, 185520, Note_on_c, 0, 98, 0
2, 185520, Note_on_c, 0, 97, 0
2, 185520, Note_on_c, 0, 86, 0
2, 185520, Note_on_c, 0, 85, 0
2, 185520, Note_on_c, 0, 73, 0
2, 185520, Note_on_c, 0, 61, 0
2, 185880, Note_on_c, 0, 108, 0
2, 187200, Note_on_c, 0, 98, 100
2, 187200, Note_on_c, 0, 97, 100
2, 187200, Note_on_c, 0, 86, 100
2, 187200, Note_on_c, 0, 85, 100
2, 187200, Note_on_c, 0, 73, 100
2, 187200, Note_on_c, 0, 61, 100
2, 187440, Note_on_c, 0, 98, 0
2, 187440, Note_on_c, 0, 97, 0
2, 187440, Note_on_c, 0, 86, 0
2, 187440, Note_on_c, 0, 85, 0
2, 187440, Note_on_c, 0, 73, 0
2, 187440, Note_on_c, 0, 61, 0
2, 188760, Note_on_c, 0, 108, 100
2, 189120, Note_on_c, 0, 98, 100
2, 189120, Note_on_c, 0, 97, 100
2, 189120, Note_on_c, 0, 86, 100
2, 189120, Note_on_c, 0, 85, 100
2, 189120, Note_on_c, 0, 73, 100
2, 189120, Note_on_c, 0, 61, 100
2, 189240, Note_on_c, 0, 108, 0
2, 189360, Note_on_c, 0, 98, 0
2, 189360, Note_on_c, 0, 97, 0
2, 189360, Note_on_c, 0, 86, 0
2, 189360, Note_on_c, 0, 85, 0
2, 189360, Note_on_c, 0, 73, 0
2, 189360, Note_on_c, 0, 61, 0
2, 189720, Note_on_c, 0, 108, 100
2, 189960, Note_on_c, 0, 108, 0
2, 190080, Note_on_c, 0, 98, 100
2, 190080, Note_on_c, 0, 97, 100
2, 190080, Note_on_c, 0, 86, 100
2, 190080, Note_on_c, 0, 85, 100
2, 190080, Note_on_c, 0, 73, 100
2, 190080, Note_on_c, 0, 61, 100
2, 190200, Note_on_c, 0, 108, 100
2, 190320, Note_on_c, 0, 98, 0
2, 190320, Note_on_c, 0, 97, 0
2, 190320, Note_on_c, 0, 86, 0
2, 190320, Note_on_c, 0, 85, 0
2, 190320, Note_on_c, 0, 73, 0
2, 190320, Note_on_c, 0, 61, 0
2, 190560, Note_on_c, 0, 98, 100
2, 190560, Note_on_c, 0, 97, 100
2, 190560, Note_on_c, 0, 86, 100
2, 190560, Note_on_c, 0, 85, 100
2, 190560, Note_on_c, 0, 73, 100
2, 190800, Note_on_c, 0, 98, 0
2, 190800, Note_on_c, 0, 97, 0
2, 190800, Note_on_c, 0, 86, 0
2, 190800, Note_on_c, 0, 85, 0
2, 190800, Note_on_c, 0, 73, 0
2, 190920, Note_on_c, 0, 108, 0
2, 191040, Note_on_c, 0, 98, 100
2, 191040, Note_on_c, 0, 97, 100
2, 191040, Note_on_c, 0, 86, 100
2, 191040, Note_on_c, 0, 85, 100
2, 191040, Note_on_c, 0, 73, 100
2, 191040, Note_on_c, 0, 61, 100
2, 191160, Note_on_c, 0, 108, 100
2, 191280, Note_on_c, 0, 98, 0
2, 191280, Note_on_c, 0, 97, 0
2, 191280, Note_on_c, 0, 86, 0
2, 191280, Note_on_c, 0, 85, 0
2, 191280, Note_on_c, 0, 73, 0
2, 191280, Note_on_c, 0, 61, 0
2, 192000, Note_on_c, 0, 100, 100
2, 192000, Note_on_c, 0, 98, 100
2, 192000, Note_on_c, 0, 88, 100
2, 192000, Note_on_c, 0, 86, 100
2, 192000, Note_on_c, 0, 75, 100
2, 192000, Note_on_c, 0, 62, 100
2, 192240, Note_on_c, 0, 100, 0
2, 192240, Note_on_c, 0, 98, 0
2, 192240, Note_on_c, 0, 88, 0
2, 192240, Note_on_c, 0, 86, 0
2, 192240, Note_on_c, 0, 75, 0
2, 192240, Note_on_c, 0, 62, 0
2, 192360, Note_on_c, 0, 108, 0
2, 192960, Note_on_c, 0, 100, 100
2, 192960, Note_on_c, 0, 98, 100
2, 192960, Note_on_c, 0, 88, 100
2, 192960, Note_on_c, 0, 86, 100
2, 192960, Note_on_c, 0, 75, 100
2, 192960, Note_on_c, 0, 62, 100
2, 193200, Note_on_c, 0, 100, 0
2, 193200, Note_on_c, 0, 98, 0
2, 193200, Note_on_c, 0, 88, 0
2, 193200, Note_on_c, 0, 86, 0
2, 193200, Note_on_c, 0, 75, 0
2, 193200, Note_on_c, 0, 62, 0
2, 194880, Note_on_c, 0, 100, 100
2, 194880, Note_on_c, 0, 98, 100
2, 194880, Note_on_c, 0, 88, 100
2, 194880, Note_on_c, 0, 86, 100
2, 194880, Note_on_c, 0, 75, 100
2, 194880, Note_on_c, 0, 62, 100
2, 195120, Note_on_c, 0, 100, 0
2, 195120, Note_on_c, 0, 98, 0
2, 195120, Note_on_c, 0, 88, 0
2, 195120, Note_on_c, 0, 86, 0
2, 195120, Note_on_c, 0, 75, 0
2, 195120, Note_on_c, 0, 62, 0
2, 196440, Note_on_c, 0, 108, 100
2, 196800, Note_on_c, 0, 100, 100
2, 196800, Note_on_c, 0, 98, 100
2, 196800, Note_on_c, 0, 88, 100
2, 196800, Note_on_c, 0, 86, 100
2, 196800, Note_on_c, 0, 75, 100
2, 196800, Note_on_c, 0, 62, 100
2, 197040, Note_on_c, 0, 100, 0
2, 197040, Note_on_c, 0, 98, 0
2, 197040, Note_on_c, 0, 88, 0
2, 197040, Note_on_c, 0, 86, 0
2, 197040, Note_on_c, 0, 75, 0
2, 197040, Note_on_c, 0, 62, 0
2, 197160, Note_on_c, 0, 108, 0
2, 197400, Note_on_c, 0, 108, 100
2, 197640, Note_on_c, 0, 108, 0
2, 197760, Note_on_c, 0, 100, 100
2, 197760, Note_on_c, 0, 98, 100
2, 197760, Note_on_c, 0, 88, 100
2, 197760, Note_on_c, 0, 86, 100
2, 197760, Note_on_c, 0, 75, 100
2, 197760, Note_on_c, 0, 62, 100
2, 197880, Note_on_c, 0, 108, 100
2, 198000, Note_on_c, 0, 100, 0
2, 198000, Note_on_c, 0, 98, 0
2, 198000, Note_on_c, 0, 88, 0
2, 198000, Note_on_c, 0, 86, 0
2, 198000, Note_on_c, 0, 75, 0
2, 198000, Note_on_c, 0, 62, 0
2, 198240, Note_on_c, 0, 100, 100
2, 198240, Note_on_c, 0, 98, 100
2, 198240, Note_on_c, 0, 88, 100
2, 198240, Note_on_c, 0, 86, 100
2, 198240, Note_on_c, 0, 75, 100
2, 198480, Note_on_c, 0, 100, 0
2, 198480, Note_on_c, 0, 98, 0
2, 198480, Note_on_c, 0, 88, 0
2, 198480, Note_on_c, 0, 86, 0
2, 198480, Note_on_c, 0, 75, 0
2, 198720, Note_on_c, 0, 100, 100
2, 198720, Note_on_c, 0, 98, 100
2, 198720, Note_on_c, 0, 88, 100
2, 198720, Note_on_c, 0, 86, 100
2, 198720, Note_on_c, 0, 75, 100
2, 198720, Note_on_c, 0, 62, 100
2, 198840, Note_on_c, 0, 108, 0
2, 198960, Note_on_c, 0, 100, 0
2, 198960, Note_on_c, 0, 98, 0
2, 198960, Note_on_c, 0, 88, 0
2, 198960, Note_on_c, 0, 86, 0
2, 198960, Note_on_c, 0, 75, 0
2, 198960, Note_on_c, 0, 62, 0
2, 199080, Note_on_c, 0, 108, 100
2, 199650, Note_on_c, 0, 103, 100
2, 199650, Note_on_c, 0, 91, 100
2, 199650, Note_on_c, 0, 79, 100
2, 199650, Note_on_c, 0, 67, 100
2, 199680, Note_on_c, 0, 99, 100
2, 199680, Note_on_c, 0, 97, 100
2, 199680, Note_on_c, 0, 87, 100
2, 199680, Note_on_c, 0, 85, 100
2, 199680, Note_on_c, 0, 74, 100
2, 199680, Note_on_c, 0, 73, 100
2, 199680, Note_on_c, 0, 61, 100
2, 199920, Note_on_c, 0, 99, 0
2, 199920, Note_on_c, 0, 97, 0
2, 199920, Note_on_c, 0, 87, 0
2, 199920, Note_on_c, 0, 85, 0
2, 199920, Note_on_c, 0, 74, 0
2, 199920, Note_on_c, 0, 73, 0
2, 199920, Note_on_c, 0, 61, 0
2, 200280, Note_on_c, 0, 108, 0
2, 200520, Note_on_c, 0, 108, 100
2, 200640, Note_on_c, 0, 99, 100
2, 200640, Note_on_c, 0, 97, 100
2, 200640, Note_on_c, 0, 87, 100
2, 200640, Note_on_c, 0, 85, 100
2, 200640, Note_on_c, 0, 74, 100
2, 200640, Note_on_c, 0, 73, 100
2, 200640, Note_on_c, 0, 61, 100
2, 200880, Note_on_c, 0, 99, 0
2, 200880, Note_on_c, 0, 97, 0
2, 200880, Note_on_c, 0, 87, 0
2, 200880, Note_on_c, 0, 85, 0
2, 200880, Note_on_c, 0, 74, 0
2, 200880, Note_on_c, 0, 73, 0
2, 200880, Note_on_c, 0, 61, 0
2, 201720, Note_on_c, 0, 108, 0
2, 201960, Note_on_c, 0, 108, 100
2, 202560, Note_on_c, 0, 99, 100
2, 202560, Note_on_c, 0, 97, 100
2, 202560, Note_on_c, 0, 87, 100
2, 202560, Note_on_c, 0, 85, 100
2, 202560, Note_on_c, 0, 74, 100
2, 202560, Note_on_c, 0, 73, 100
2, 202560, Note_on_c, 0, 61, 100
2, 202800, Note_on_c, 0, 99, 0
2, 202800, Note_on_c, 0, 97, 0
2, 202800, Note_on_c, 0, 87, 0
2, 202800, Note_on_c, 0, 85, 0
2, 202800, Note_on_c, 0, 74, 0
2, 202800, Note_on_c, 0, 73, 0
2, 202800, Note_on_c, 0, 61, 0
2, 203400, Note_on_c, 0, 108, 0
2, 204120, Note_on_c, 0, 108, 100
2, 204480, Note_on_c, 0, 99, 100
2, 204480, Note_on_c, 0, 97, 100
2, 204480, Note_on_c, 0, 87, 100
2, 204480, Note_on_c, 0, 85, 100
2, 204480, Note_on_c, 0, 74, 100
2, 204480, Note_on_c, 0, 73, 100
2, 204480, Note_on_c, 0, 61, 100
2, 204720, Note_on_c, 0, 99, 0
2, 204720, Note_on_c, 0, 97, 0
2, 204720, Note_on_c, 0, 87, 0
2, 204720, Note_on_c, 0, 85, 0
2, 204720, Note_on_c, 0, 74, 0
2, 204720, Note_on_c, 0, 73, 0
2, 204720, Note_on_c, 0, 61, 0
2, 204840, Note_on_c, 0, 108, 0
2, 205080, Note_on_c, 0, 108, 100
2, 205320, Note_on_c, 0, 108, 0
2, 205440, Note_on_c, 0, 99, 100
2, 205440, Note_on_c, 0, 97, 100
2, 205440, Note_on_c, 0, 87, 100
2, 205440, Note_on_c, 0, 85, 100
2, 205440, Note_on_c, 0, 74, 100
2, 205440, Note_on_c, 0, 73, 100
2, 205440, Note_on_c, 0, 61, 100
2, 205560, Note_on_c, 0, 108, 100
2, 205680, Note_on_c, 0, 99, 0
2, 205680, Note_on_c, 0, 97, 0
2, 205680, Note_on_c, 0, 87, 0
2, 205680, Note_on_c, 0, 85, 0
2, 205680, Note_on_c, 0, 74, 0
2, 205680, Note_on_c, 0, 73, 0
2, 205680, Note_on_c, 0, 61, 0
2, 205920, Note_on_c, 0, 99, 100
2, 205920, Note_on_c, 0, 97, 100
2, 205920, Note_on_c, 0, 87, 100
2, 205920, Note_on_c, 0, 85, 100
2, 205920, Note_on_c, 0, 74, 100
2, 205920, Note_on_c, 0, 73, 100
2, 206040, Note_on_c, 0, 108, 0
2, 206160, Note_on_c, 0, 99, 0
2, 206160, Note_on_c, 0, 97, 0
2, 206160, Note_on_c, 0, 87, 0
2, 206160, Note_on_c, 0, 85, 0
2, 206160, Note_on_c, 0, 74, 0
2, 206160, Note_on_c, 0, 73, 0
2, 206400, Note_on_c, 0, 99, 100
2, 206400, Note_on_c, 0, 97, 100
2, 206400, Note_on_c, 0, 87, 100
2, 206400, Note_on_c, 0, 85, 100
2, 206400, Note_on_c, 0, 74, 100
2, 206400, Note_on_c, 0, 73, 100
2, 206400, Note_on_c, 0, 61, 100
2, 206640, Note_on_c, 0, 99, 0
2, 206640, Note_on_c, 0, 97, 0
2, 206640, Note_on_c, 0, 87, 0
2, 206640, Note_on_c, 0, 85, 0
2, 206640, Note_on_c, 0, 74, 0
2, 206640, Note_on_c, 0, 73, 0
2, 206640, Note_on_c, 0, 61, 0
2, 206850, Note_on_c, 0, 103, 0
2, 206850, Note_on_c, 0, 91, 0
2, 206850, Note_on_c, 0, 79, 0
2, 206850, Note_on_c, 0, 67, 0
2, 207330, Note_on_c, 0, 106, 0
2, 207330, Note_on_c, 0, 94, 0
2, 207330, Note_on_c, 0, 70, 0
2, 207330, Note_on_c, 0, 82, 0
2, 207360, Note_on_c, 0, 100, 100
2, 207360, Note_on_c, 0, 98, 100
2, 207360, Note_on_c, 0, 88, 100
2, 207360, Note_on_c, 0, 86, 100
2, 207360, Note_on_c, 0, 75, 100
2, 207360, Note_on_c, 0, 62, 100
2, 207600, Note_on_c, 0, 100, 0
2, 207600, Note_on_c, 0, 98, 0
2, 207600, Note_on_c, 0, 88, 0
2, 207600, Note_on_c, 0, 86, 0
2, 207600, Note_on_c, 0, 75, 0
2, 207600, Note_on_c, 0, 62, 0
2, 208920, Note_on_c, 0, 108, 100
2, 209160, Note_on_c, 0, 108, 0
2, 209250, Note_on_c, 0, 105, 0
2, 209250, Note_on_c, 0, 93, 0
2, 209250, Note_on_c, 0, 69, 0
2, 209250, Note_on_c, 0, 81, 0
2, 209250, Note_on_c, 0, 106, 100
2, 209250, Note_on_c, 0, 94, 100
2, 209250, Note_on_c, 0, 70, 100
2, 209250, Note_on_c, 0, 82, 100
2, 209280, Note_on_c, 0, 98, 100
2, 209280, Note_on_c, 0, 97, 100
2, 209280, Note_on_c, 0, 86, 100
2, 209280, Note_on_c, 0, 85, 100
2, 209280, Note_on_c, 0, 73, 100
2, 209280, Note_on_c, 0, 61, 100
2, 209400, Note_on_c, 0, 108, 100
2, 209520, Note_on_c, 0, 98, 0
2, 209520, Note_on_c, 0, 97, 0
2, 209520, Note_on_c, 0, 86, 0
2, 209520, Note_on_c, 0, 85, 0
2, 209520, Note_on_c, 0, 73, 0
2, 209520, Note_on_c, 0, 61, 0
2, 210600, Note_on_c, 0, 108, 0
2, 210840, Note_on_c, 0, 108, 100
2, 211170, Note_on_c, 0, 106, 0
2, 211170, Note_on_c, 0, 94, 0
2, 211170, Note_on_c, 0, 70, 0
2, 211170, Note_on_c, 0, 82, 0
2, 211170, Note_on_c, 0, 105, 100
2, 211170, Note_on_c, 0, 93, 100
2, 211170, Note_on_c, 0, 69, 100
2, 211170, Note_on_c, 0, 81, 100
2, 211200, Note_on_c, 0, 99, 100
2, 211200, Note_on_c, 0, 98, 100
2, 211200, Note_on_c, 0, 87, 100
2, 211200, Note_on_c, 0, 86, 100
2, 211200, Note_on_c, 0, 74, 100
2, 211200, Note_on_c, 0, 62, 100
2, 211440, Note_on_c, 0, 99, 0
2, 211440, Note_on_c, 0, 98, 0
2, 211440, Note_on_c, 0, 87, 0
2, 211440, Note_on_c, 0, 86, 0
2, 211440, Note_on_c, 0, 74, 0
2, 211440, Note_on_c, 0, 62, 0
2, 212040, Note_on_c, 0, 108, 0
2, 212760, Note_on_c, 0, 108, 100
2, 213090, Note_on_c, 0, 105, 0
2, 213090, Note_on_c, 0, 93, 0
2, 213090, Note_on_c, 0, 69, 0
2, 213090, Note_on_c, 0, 81, 0
2, 213090, Note_on_c, 0, 106, 100
2, 213090, Note_on_c, 0, 94, 100
2, 213090, Note_on_c, 0, 70, 100
2, 213090, Note_on_c, 0, 82, 100
2, 213120, Note_on_c, 0, 99, 100
2, 213120, Note_on_c, 0, 97, 100
2, 213120, Note_on_c, 0, 87, 100
2, 213120, Note_on_c, 0, 85, 100
2, 213120, Note_on_c, 0, 74, 100
2, 213120, Note_on_c, 0, 73, 100
2, 213120, Note_on_c, 0, 61, 100
2, 213360, Note_on_c, 0, 99, 0
2, 213360, Note_on_c, 0, 97, 0
2, 213360, Note_on_c, 0, 87, 0
2, 213360, Note_on_c, 0, 85, 0
2, 213360, Note_on_c, 0, 74, 0
2, 213360, Note_on_c, 0, 73, 0
2, 213360, Note_on_c, 0, 61, 0
2, 213480, Note_on_c, 0, 108, 0
2, 213720, Note_on_c, 0, 108, 100
2, 213960, Note_on_c, 0, 108, 0
2, 214200, Note_on_c, 0, 108, 100
2, 215010, Text_t, "drum_allbeat"
2, 215010, Note_on_c, 0, 106, 0
2, 215010, Note_on_c, 0, 94, 0
2, 215010, Note_on_c, 0, 70, 0
2, 215010, Note_on_c, 0, 82, 0
2, 215010, Note_on_c, 0, 105, 100
2, 215010, Note_on_c, 0, 93, 100
2, 215010, Note_on_c, 0, 69, 100
2, 215010, Note_on_c, 0, 81, 100
2, 215040, Note_on_c, 0, 100, 100
2, 215040, Note_on_c, 0, 98, 100
2, 215040, Note_on_c, 0, 88, 100
2, 215040, Note_on_c, 0, 86, 100
2, 215040, Note_on_c, 0, 75, 100
2, 215040, Note_on_c, 0, 62, 100
2, 215160, Note_on_c, 0, 108, 0
2, 215280, Note_on_c, 0, 100, 0
2, 215280, Note_on_c, 0, 98, 0
2, 215280, Note_on_c, 0, 88, 0
2, 215280, Note_on_c, 0, 86, 0
2, 215280, Note_on_c, 0, 75, 0
2, 215280, Note_on_c, 0, 62, 0
2, 216000, Note_on_c, 0, 100, 100
2, 216000, Note_on_c, 0, 98, 100
2, 216000, Note_on_c, 0, 88, 100
2, 216000, Note_on_c, 0, 86, 100
2, 216000, Note_on_c, 0, 75, 100
2, 216000, Note_on_c, 0, 62, 100
2, 216240, Note_on_c, 0, 100, 0
2, 216240, Note_on_c, 0, 98, 0
2, 216240, Note_on_c, 0, 88, 0
2, 216240, Note_on_c, 0, 86, 0
2, 216240, Note_on_c, 0, 75, 0
2, 216240, Note_on_c, 0, 62, 0
2, 216960, Note_on_c, 0, 100, 100
2, 216960, Note_on_c, 0, 98, 100
2, 216960, Note_on_c, 0, 88, 100
2, 216960, Note_on_c, 0, 86, 100
2, 216960, Note_on_c, 0, 75, 100
2, 216960, Note_on_c, 0, 62, 100
2, 217200, Note_on_c, 0, 100, 0
2, 217200, Note_on_c, 0, 98, 0
2, 217200, Note_on_c, 0, 88, 0
2, 217200, Note_on_c, 0, 86, 0
2, 217200, Note_on_c, 0, 75, 0
2, 217200, Note_on_c, 0, 62, 0
2, 217440, Note_on_c, 0, 100, 100
2, 217440, Note_on_c, 0, 98, 100
2, 217440, Note_on_c, 0, 88, 100
2, 217440, Note_on_c, 0, 86, 100
2, 217440, Note_on_c, 0, 75, 100
2, 217680, Note_on_c, 0, 100, 0
2, 217680, Note_on_c, 0, 98, 0
2, 217680, Note_on_c, 0, 88, 0
2, 217680, Note_on_c, 0, 86, 0
2, 217680, Note_on_c, 0, 75, 0
2, 217920, Note_on_c, 0, 100, 100
2, 217920, Note_on_c, 0, 98, 100
2, 218130, Note_on_c, 0, 105, 0
2, 218130, Note_on_c, 0, 93, 0
2, 218130, Note_on_c, 0, 69, 0
2, 218130, Note_on_c, 0, 81, 0
2, 218130, Note_on_c, 0, 106, 100
2, 218130, Note_on_c, 0, 94, 100
2, 218130, Note_on_c, 0, 70, 100
2, 218130, Note_on_c, 0, 82, 100
2, 218160, Note_on_c, 0, 100, 0
2, 218160, Note_on_c, 0, 98, 0
2, 218400, Note_on_c, 0, 99, 100
2, 218400, Note_on_c, 0, 97, 100
2, 218400, Note_on_c, 0, 87, 100
2, 218400, Note_on_c, 0, 85, 100
2, 218400, Note_on_c, 0, 74, 100
2, 218400, Note_on_c, 0, 73, 100
2, 218400, Note_on_c, 0, 61, 100
2, 218640, Note_on_c, 0, 99, 0
2, 218640, Note_on_c, 0, 97, 0
2, 218640, Note_on_c, 0, 87, 0
2, 218640, Note_on_c, 0, 85, 0
2, 218640, Note_on_c, 0, 74, 0
2, 218640, Note_on_c, 0, 73, 0
2, 218640, Note_on_c, 0, 61, 0
2, 219840, Note_on_c, 0, 99, 100
2, 219840, Note_on_c, 0, 97, 100
2, 219840, Note_on_c, 0, 87, 100
2, 219840, Note_on_c, 0, 85, 100
2, 219840, Note_on_c, 0, 74, 100
2, 219840, Note_on_c, 0, 73, 100
2, 219840, Note_on_c, 0, 61, 100
2, 220080, Note_on_c, 0, 99, 0
2, 220080, Note_on_c, 0, 97, 0
2, 220080, Note_on_c, 0, 87, 0
2, 220080, Note_on_c, 0, 85, 0
2, 220080, Note_on_c, 0, 74, 0
2, 220080, Note_on_c, 0, 73, 0
2, 220080, Note_on_c, 0, 61, 0
2, 220800, Note_on_c, 0, 99, 100
2, 220800, Note_on_c, 0, 97, 100
2, 220800, Note_on_c, 0, 87, 100
2, 220800, Note_on_c, 0, 85, 100
2, 220800, Note_on_c, 0, 74, 100
2, 220800, Note_on_c, 0, 73, 100
2, 220800, Note_on_c, 0, 61, 100
2, 221040, Note_on_c, 0, 99, 0
2, 221040, Note_on_c, 0, 97, 0
2, 221040, Note_on_c, 0, 87, 0
2, 221040, Note_on_c, 0, 85, 0
2, 221040, Note_on_c, 0, 74, 0
2, 221040, Note_on_c, 0, 73, 0
2, 221040, Note_on_c, 0, 61, 0
2, 221280, Note_on_c, 0, 99, 100
2, 221280, Note_on_c, 0, 97, 100
2, 221280, Note_on_c, 0, 87, 100
2, 221280, Note_on_c, 0, 85, 100
2, 221280, Note_on_c, 0, 74, 100
2, 221280, Note_on_c, 0, 73, 100
2, 221520, Note_on_c, 0, 99, 0
2, 221520, Note_on_c, 0, 97, 0
2, 221520, Note_on_c, 0, 87, 0
2, 221520, Note_on_c, 0, 85, 0
2, 221520, Note_on_c, 0, 74, 0
2, 221520, Note_on_c, 0, 73, 0
2, 221760, Note_on_c, 0, 99, 100
2, 221760, Note_on_c, 0, 97, 100
2, 221760, Note_on_c, 0, 87, 100
2, 221760, Note_on_c, 0, 85, 100
2, 221760, Note_on_c, 0, 74, 100
2, 221760, Note_on_c, 0, 73, 100
2, 221760, Note_on_c, 0, 61, 100
2, 222000, Note_on_c, 0, 99, 0
2, 222000, Note_on_c, 0, 97, 0
2, 222000, Note_on_c, 0, 87, 0
2, 222000, Note_on_c, 0, 85, 0
2, 222000, Note_on_c, 0, 74, 0
2, 222000, Note_on_c, 0, 73, 0
2, 222000, Note_on_c, 0, 61, 0
2, 222690, Text_t, "drum_double"
2, 222690, Note_on_c, 0, 106, 0
2, 222690, Note_on_c, 0, 94, 0
2, 222690, Note_on_c, 0, 70, 0
2, 222690, Note_on_c, 0, 82, 0
2, 222690, Note_on_c, 0, 105, 100
2, 222690, Note_on_c, 0, 93, 100
2, 222690, Note_on_c, 0, 69, 100
2, 222690, Note_on_c, 0, 81, 100
2, 222720, Note_on_c, 0, 99, 100
2, 222720, Note_on_c, 0, 98, 100
2, 222720, Note_on_c, 0, 87, 100
2, 222720, Note_on_c, 0, 86, 100
2, 222720, Note_on_c, 0, 74, 100
2, 222720, Note_on_c, 0, 61, 100
2, 222960, Note_on_c, 0, 99, 0
2, 222960, Note_on_c, 0, 98, 0
2, 222960, Note_on_c, 0, 87, 0
2, 222960, Note_on_c, 0, 86, 0
2, 222960, Note_on_c, 0, 74, 0
2, 222960, Note_on_c, 0, 61, 0
2, 223320, Note_on_c, 0, 108, 100
2, 224040, Note_on_c, 0, 108, 0
2, 224160, Note_on_c, 0, 99, 100
2, 224160, Note_on_c, 0, 98, 100
2, 224160, Note_on_c, 0, 87, 100
2, 224160, Note_on_c, 0, 86, 100
2, 224160, Note_on_c, 0, 74, 100
2, 224160, Note_on_c, 0, 61, 100
2, 224280, Note_on_c, 0, 108, 100
2, 224400, Note_on_c, 0, 99, 0
2, 224400, Note_on_c, 0, 98, 0
2, 224400, Note_on_c, 0, 87, 0
2, 224400, Note_on_c, 0, 86, 0
2, 224400, Note_on_c, 0, 74, 0
2, 224400, Note_on_c, 0, 61, 0
2, 224520, Note_on_c, 0, 108, 0
2, 224760, Note_on_c, 0, 108, 100
2, 225480, Note_on_c, 0, 108, 0
2, 225600, Note_on_c, 0, 99, 100
2, 225600, Note_on_c, 0, 98, 100
2, 225600, Note_on_c, 0, 87, 100
2, 225600, Note_on_c, 0, 86, 100
2, 225600, Note_on_c, 0, 74, 100
2, 225600, Note_on_c, 0, 61, 100
2, 225720, Note_on_c, 0, 108, 100
2, 225840, Note_on_c, 0, 99, 0
2, 225840, Note_on_c, 0, 98, 0
2, 225840, Note_on_c, 0, 87, 0
2, 225840, Note_on_c, 0, 86, 0
2, 225840, Note_on_c, 0, 74, 0
2, 225840, Note_on_c, 0, 61, 0
2, 226680, Note_on_c, 0, 108, 0
2, 227160, Note_on_c, 0, 108, 100
2, 227520, Note_on_c, 0, 99, 100
2, 227520, Note_on_c, 0, 98, 100
2, 227520, Note_on_c, 0, 87, 100
2, 227520, Note_on_c, 0, 86, 100
2, 227520, Note_on_c, 0, 74, 100
2, 227520, Note_on_c, 0, 61, 100
2, 227760, Note_on_c, 0, 99, 0
2, 227760, Note_on_c, 0, 98, 0
2, 227760, Note_on_c, 0, 87, 0
2, 227760, Note_on_c, 0, 86, 0
2, 227760, Note_on_c, 0, 74, 0
2, 227760, Note_on_c, 0, 61, 0
2, 227880, Note_on_c, 0, 108, 0
2, 228120, Note_on_c, 0, 108, 100
2, 228360, Note_on_c, 0, 108, 0
2, 228480, Note_on_c, 0, 99, 100
2, 228480, Note_on_c, 0, 98, 100
2, 228480, Note_on_c, 0, 87, 100
2, 228480, Note_on_c, 0, 86, 100
2, 228480, Note_on_c, 0, 74, 100
2, 228480, Note_on_c, 0, 61, 100
2, 228600, Note_on_c, 0, 108, 100
2, 228720, Note_on_c, 0, 99, 0
2, 228720, Note_on_c, 0, 98, 0
2, 228720, Note_on_c, 0, 87, 0
2, 228720, Note_on_c, 0, 86, 0
2, 228720, Note_on_c, 0, 74, 0
2, 228720, Note_on_c, 0, 61, 0
2, 229320, Note_on_c, 0, 108, 0
2, 229440, Note_on_c, 0, 99, 100
2, 229440, Note_on_c, 0, 98, 100
2, 229440, Note_on_c, 0, 87, 100
2, 229440, Note_on_c, 0, 86, 100
2, 229440, Note_on_c, 0, 74, 100
2, 229440, Note_on_c, 0, 61, 100
2, 229560, Note_on_c, 0, 108, 100
2, 229680, Note_on_c, 0, 99, 0
2, 229680, Note_on_c, 0, 98, 0
2, 229680, Note_on_c, 0, 87, 0
2, 229680, Note_on_c, 0, 86, 0
2, 229680, Note_on_c, 0, 74, 0
2, 229680, Note_on_c, 0, 61, 0
2, 230370, Text_t, "[verse]"
2, 230370, Text_t, "[lighting ()]"
2, 230400, Note_on_c, 0, 99, 100
2, 230400, Note_on_c, 0, 98, 100
2, 230400, Note_on_c, 0, 87, 100
2, 230400, Note_on_c, 0, 86, 100
2, 230400, Note_on_c, 0, 74, 100
2, 230400, Note_on_c, 0, 61, 100
2, 230640, Note_on_c, 0, 99, 0
2, 230640, Note_on_c, 0, 98, 0
2, 230640, Note_on_c, 0, 87, 0
2, 230640, Note_on_c, 0, 86, 0
2, 230640, Note_on_c, 0, 74, 0
2, 230640, Note_on_c, 0, 61, 0
2, 230760, Note_on_c, 0, 108, 0
2, 231000, Note_on_c, 0, 108, 100
2, 231720, Note_on_c, 0, 108, 0
2, 231840, Note_on_c, 0, 99, 100
2, 231840, Note_on_c, 0, 98, 100
2, 231840, Note_on_c, 0, 87, 100
2, 231840, Note_on_c, 0, 86, 100
2, 231840, Note_on_c, 0, 74, 100
2, 231840, Note_on_c, 0, 61, 100
2, 231960, Note_on_c, 0, 108, 100
2, 232080, Note_on_c, 0, 99, 0
2, 232080, Note_on_c, 0, 98, 0
2, 232080, Note_on_c, 0, 87, 0
2, 232080, Note_on_c, 0, 86, 0
2, 232080, Note_on_c, 0, 74, 0
2, 232080, Note_on_c, 0, 61, 0
2, 232200, Note_on_c, 0, 108, 0
2, 232440, Note_on_c, 0, 108, 100
2, 233280, Note_on_c, 0, 99, 100
2, 233280, Note_on_c, 0, 98, 100
2, 233280, Note_on_c, 0, 87, 100
2, 233280, Note_on_c, 0, 86, 100
2, 233280, Note_on_c, 0, 74, 100
2, 233280, Note_on_c, 0, 61, 100
2, 233400, Note_on_c, 0, 108, 0
2, 233520, Note_on_c, 0, 99, 0
2, 233520, Note_on_c, 0, 98, 0
2, 233520, Note_on_c, 0, 87, 0
2, 233520, Note_on_c, 0, 86, 0
2, 233520, Note_on_c, 0, 74, 0
2, 233520, Note_on_c, 0, 61, 0
2, 233880, Note_on_c, 0, 108, 100
2, 234600, Note_on_c, 0, 108, 0
2, 234840, Note_on_c, 0, 108, 100
2, 235200, Note_on_c, 0, 99, 100
2, 235200, Note_on_c, 0, 98, 100
2, 235200, Note_on_c, 0, 87, 100
2, 235200, Note_on_c, 0, 86, 100
2, 235200, Note_on_c, 0, 74, 100
2, 235200, Note_on_c, 0, 61, 100
2, 235320, Note_on_c, 0, 108, 0
2, 235440, Note_on_c, 0, 99, 0
2, 235440, Note_on_c, 0, 98, 0
2, 235440, Note_on_c, 0, 87, 0
2, 235440, Note_on_c, 0, 86, 0
2, 235440, Note_on_c, 0, 74, 0
2, 235440, Note_on_c, 0, 61, 0
2, 235800, Note_on_c, 0, 108, 100
2, 236040, Note_on_c, 0, 108, 0
2, 236160, Note_on_c, 0, 99, 100
2, 236160, Note_on_c, 0, 98, 100
2, 236160, Note_on_c, 0, 87, 100
2, 236160, Note_on_c, 0, 86, 100
2, 236160, Note_on_c, 0, 74, 100
2, 236160, Note_on_c, 0, 61, 100
2, 236280, Note_on_c, 0, 108, 100
2, 236400, Note_on_c, 0, 99, 0
2, 236400, Note_on_c, 0, 98, 0
2, 236400, Note_on_c, 0, 87, 0
2, 236400, Note_on_c, 0, 86, 0
2, 236400, Note_on_c, 0, 74, 0
2, 236400, Note_on_c, 0, 61, 0
2, 237120, Note_on_c, 0, 99, 100
2, 237120, Note_on_c, 0, 98, 100
2, 237120, Note_on_c, 0, 87, 100
2, 237120, Note_on_c, 0, 86, 100
2, 237120, Note_on_c, 0, 74, 100
2, 237120, Note_on_c, 0, 61, 100
2, 237240, Note_on_c, 0, 108, 0
2, 237360, Note_on_c, 0, 99, 0
2, 237360, Note_on_c, 0, 98, 0
2, 237360, Note_on_c, 0, 87, 0
2, 237360, Note_on_c, 0, 86, 0
2, 237360, Note_on_c, 0, 74, 0
2, 237360, Note_on_c, 0, 61, 0
2, 237720, Note_on_c, 0, 108, 100
2, 238050, Note_on_c, 0, 106, 100
2, 238050, Note_on_c, 0, 94, 100
2, 238050, Note_on_c, 0, 70, 100
2, 238050, Note_on_c, 0, 82, 100
2, 238080, Note_on_c, 0, 98, 100
2, 238080, Note_on_c, 0, 100, 100
2, 238080, Note_on_c, 0, 86, 100
2, 238080, Note_on_c, 0, 88, 100
2, 238080, Note_on_c, 0, 75, 100
2, 238080, Note_on_c, 0, 62, 100
2, 238320, Note_on_c, 0, 98, 0
2, 238320, Note_on_c, 0, 100, 0
2, 238320, Note_on_c, 0, 86, 0
2, 238320, Note_on_c, 0, 88, 0
2, 238320, Note_on_c, 0, 75, 0
2, 238320, Note_on_c, 0, 62, 0
2, 238920, Note_on_c, 0, 108, 0
2, 239520, Note_on_c, 0, 98, 100
2, 239520, Note_on_c, 0, 100, 100
2, 239520, Note_on_c, 0, 86, 100
2, 239520, Note_on_c, 0, 88, 100
2, 239520, Note_on_c, 0, 75, 100
2, 239520, Note_on_c, 0, 62, 100
2, 239760, Note_on_c, 0, 98, 0
2, 239760, Note_on_c, 0, 100, 0
2, 239760, Note_on_c, 0, 86, 0
2, 239760, Note_on_c, 0, 88, 0
2, 239760, Note_on_c, 0, 75, 0
2, 239760, Note_on_c, 0, 62, 0
2, 240960, Note_on_c, 0, 98, 100
2, 240960, Note_on_c, 0, 100, 100
2, 240960, Note_on_c, 0, 86, 100
2, 240960, Note_on_c, 0, 88, 100
2, 240960, Note_on_c, 0, 75, 100
2, 240960, Note_on_c, 0, 62, 100
2, 241200, Note_on_c, 0, 98, 0
2, 241200, Note_on_c, 0, 100, 0
2, 241200, Note_on_c, 0, 86, 0
2, 241200, Note_on_c, 0, 88, 0
2, 241200, Note_on_c, 0, 75, 0
2, 241200, Note_on_c, 0, 62, 0
2, 242880, Note_on_c, 0, 98, 100
2, 242880, Note_on_c, 0, 100, 100
2, 242880, Note_on_c, 0, 86, 100
2, 242880, Note_on_c, 0, 88, 100
2, 242880, Note_on_c, 0, 75, 100
2, 242880, Note_on_c, 0, 62, 100
2, 243120, Note_on_c, 0, 98, 0
2, 243120, Note_on_c, 0, 100, 0
2, 243120, Note_on_c, 0, 86, 0
2, 243120, Note_on_c, 0, 88, 0
2, 243120, Note_on_c, 0, 75, 0
2, 243120, Note_on_c, 0, 62, 0
2, 243840, Note_on_c, 0, 98, 100
2, 243840, Note_on_c, 0, 100, 100
2, 243840, Note_on_c, 0, 86, 100
2, 243840, Note_on_c, 0, 88, 100
2, 243840, Note_on_c, 0, 75, 100
2, 243840, Note_on_c, 0, 62, 100
2, 244080, Note_on_c, 0, 98, 0
2, 244080, Note_on_c, 0, 100, 0
2, 244080, Note_on_c, 0, 86, 0
2, 244080, Note_on_c, 0, 88, 0
2, 244080, Note_on_c, 0, 75, 0
2, 244080, Note_on_c, 0, 62, 0
2, 244800, Note_on_c, 0, 98, 100
2, 244800, Note_on_c, 0, 86, 100
2, 244800, Note_on_c, 0, 75, 100
2, 244800, Note_on_c, 0, 62, 100
2, 245040, Note_on_c, 0, 98, 0
2, 245040, Note_on_c, 0, 86, 0
2, 245040, Note_on_c, 0, 75, 0
2, 245040, Note_on_c, 0, 62, 0
2, 245730, Text_t, "[lighting (sweep)]"
2, 245760, Note_on_c, 0, 98, 100
2, 245760, Note_on_c, 0, 100, 100
2, 245760, Note_on_c, 0, 86, 100
2, 245760, Note_on_c, 0, 88, 100
2, 245760, Note_on_c, 0, 75, 100
2, 245760, Note_on_c, 0, 62, 100
2, 246000, Note_on_c, 0, 98, 0
2, 246000, Note_on_c, 0, 100, 0
2, 246000, Note_on_c, 0, 86, 0
2, 246000, Note_on_c, 0, 88, 0
2, 246000, Note_on_c, 0, 75, 0
2, 246000, Note_on_c, 0, 62, 0
2, 247200, Note_on_c, 0, 98, 100
2, 247200, Note_on_c, 0, 100, 100
2, 247200, Note_on_c, 0, 86, 100
2, 247200, Note_on_c, 0, 88, 100
2, 247200, Note_on_c, 0, 75, 100
2, 247200, Note_on_c, 0, 62, 100
2, 247440, Note_on_c, 0, 98, 0
2, 247440, Note_on_c, 0, 100, 0
2, 247440, Note_on_c, 0, 86, 0
2, 247440, Note_on_c, 0, 88, 0
2, 247440, Note_on_c, 0, 75, 0
2, 247440, Note_on_c, 0, 62, 0
2, 248640, Note_on_c, 0, 98, 100
2, 248640, Note_on_c, 0, 100, 100
2, 248640, Note_on_c, 0, 86, 100
2, 248640, Note_on_c, 0, 88, 100
2, 248640, Note_on_c, 0, 75, 100
2, 248640, Note_on_c, 0, 62, 100
2, 248880, Note_on_c, 0, 98, 0
2, 248880, Note_on_c, 0, 100, 0
2, 248880, Note_on_c, 0, 86, 0
2, 248880, Note_on_c, 0, 88, 0
2, 248880, Note_on_c, 0, 75, 0
2, 248880, Note_on_c, 0, 62, 0
2, 249570, Text_t, "sing_off"
2, 250560, Note_on_c, 0, 99, 100
2, 250560, Note_on_c, 0, 87, 100
2, 250560, Note_on_c, 0, 74, 100
2, 250560, Note_on_c, 0, 61, 100
2, 250800, Note_on_c, 0, 99, 0
2, 250800, Note_on_c, 0, 87, 0
2, 250800, Note_on_c, 0, 74, 0
2, 250800, Note_on_c, 0, 61, 0
2, 251520, Note_on_c, 0, 98, 100
2, 251520, Note_on_c, 0, 86, 100
2, 251520, Note_on_c, 0, 73, 100
2, 251520, Note_on_c, 0, 60, 100
2, 251760, Note_on_c, 0, 98, 0
2, 251760, Note_on_c, 0, 86, 0
2, 251760, Note_on_c, 0, 73, 0
2, 251760, Note_on_c, 0, 60, 0
2, 252480, Note_on_c, 0, 99, 100
2, 252480, Note_on_c, 0, 87, 100
2, 252480, Note_on_c, 0, 74, 100
2, 252720, Note_on_c, 0, 99, 0
2, 252720, Note_on_c, 0, 87, 0
2, 252720, Note_on_c, 0, 74, 0
2, 253410, Note_on_c, 0, 105, 0
2, 253410, Note_on_c, 0, 93, 0
2, 253410, Note_on_c, 0, 69, 0
2, 253410, Note_on_c, 0, 81, 0
2, 253440, Note_on_c, 0, 99, 100
2, 253440, Note_on_c, 0, 98, 100
2, 253440, Note_on_c, 0, 87, 100
2, 253440, Note_on_c, 0, 86, 100
2, 253440, Note_on_c, 0, 74, 100
2, 253440, Note_on_c, 0, 61, 100
2, 253680, Note_on_c, 0, 99, 0
2, 253680, Note_on_c, 0, 98, 0
2, 253680, Note_on_c, 0, 87, 0
2, 253680, Note_on_c, 0, 86, 0
2, 253680, Note_on_c, 0, 74, 0
2, 253680, Note_on_c, 0, 61, 0
2, 254040, Note_on_c, 0, 108, 100
2, 254760, Note_on_c, 0, 108, 0
2, 254880, Note_on_c, 0, 99, 100
2, 254880, Note_on_c, 0, 98, 100
2, 254880, Note_on_c, 0, 87, 100
2, 254880, Note_on_c, 0, 86, 100
2, 254880, Note_on_c, 0, 74, 100
2, 254880, Note_on_c, 0, 61, 100
2, 255000, Note_on_c, 0, 108, 100
2, 255120, Note_on_c, 0, 99, 0
2, 255120, Note_on_c, 0, 98, 0
2, 255120, Note_on_c, 0, 87, 0
2, 255120, Note_on_c, 0, 86, 0
2, 255120, Note_on_c, 0, 74, 0
2, 255120, Note_on_c, 0, 61, 0
2, 255240, Note_on_c, 0, 108, 0
2, 255480, Note_on_c, 0, 108, 100
2, 256200, Note_on_c, 0, 108, 0
2, 256320, Note_on_c, 0, 99, 100
2, 256320, Note_on_c, 0, 98, 100
2, 256320, Note_on_c, 0, 87, 100
2, 256320, Note_on_c, 0, 86, 100
2, 256320, Note_on_c, 0, 74, 100
2, 256320, Note_on_c, 0, 61, 100
2, 256440, Note_on_c, 0, 108, 100
2, 256560, Note_on_c, 0, 99, 0
2, 256560, Note_on_c, 0, 98, 0
2, 256560, Note_on_c, 0, 87, 0
2, 256560, Note_on_c, 0, 86, 0
2, 256560, Note_on_c, 0, 74, 0
2, 256560, Note_on_c, 0, 61, 0
2, 257640, Note_on_c, 0, 108, 0
2, 257880, Note_on_c, 0, 108, 100
2, 258240, Note_on_c, 0, 99, 100
2, 258240, Note_on_c, 0, 98, 100
2, 258240, Note_on_c, 0, 87, 100
2, 258240, Note_on_c, 0, 86, 100
2, 258240, Note_on_c, 0, 74, 100
2, 258240, Note_on_c, 0, 61, 100
2, 258480, Note_on_c, 0, 99, 0
2, 258480, Note_on_c, 0, 98, 0
2, 258480, Note_on_c, 0, 87, 0
2, 258480, Note_on_c, 0, 86, 0
2, 258480, Note_on_c, 0, 74, 0
2, 258480, Note_on_c, 0, 61, 0
2, 258600, Note_on_c, 0, 108, 0
2, 258840, Note_on_c, 0, 108, 100
2, 259080, Note_on_c, 0, 108, 0
2, 259200, Note_on_c, 0, 99, 100
2, 259200, Note_on_c, 0, 98, 100
2, 259200, Note_on_c, 0, 87, 100
2, 259200, Note_on_c, 0, 86, 100
2, 259200, Note_on_c, 0, 74, 100
2, 259200, Note_on_c, 0, 61, 100
2, 259320, Note_on_c, 0, 108, 100
2, 259440, Note_on_c, 0, 99, 0
2, 259440, Note_on_c, 0, 98, 0
2, 259440, Note_on_c, 0, 87, 0
2, 259440, Note_on_c, 0, 86, 0
2, 259440, Note_on_c, 0, 74, 0
2, 259440, Note_on_c, 0, 61, 0
2, 260040, Note_on_c, 0, 108, 0
2, 260160, Note_on_c, 0, 99, 100
2, 260160, Note_on_c, 0, 98, 100
2, 260160, Note_on_c, 0, 87, 100
2, 260160, Note_on_c, 0, 86, 100
2, 260160, Note_on_c, 0, 74, 100
2, 260160, Note_on_c, 0, 61, 100
2, 260280, Note_on_c, 0, 108, 100
2, 260400, Note_on_c, 0, 99, 0
2, 260400, Note_on_c, 0, 98, 0
2, 260400, Note_on_c, 0, 87, 0
2, 260400, Note_on_c, 0, 86, 0
2, 260400, Note_on_c, 0, 74, 0
2, 260400, Note_on_c, 0, 61, 0
2, 261090, Text_t, "sing_on"
2, 261090, Text_t, "[lighting ()]"
2, 261120, Note_on_c, 0, 99, 100
2, 261120, Note_on_c, 0, 98, 100
2, 261120, Note_on_c, 0, 87, 100
2, 261120, Note_on_c, 0, 86, 100
2, 261120, Note_on_c, 0, 74, 100
2, 261120, Note_on_c, 0, 61, 100
2, 261360, Note_on_c, 0, 99, 0
2, 261360, Note_on_c, 0, 98, 0
2, 261360, Note_on_c, 0, 87, 0
2, 261360, Note_on_c, 0, 86, 0
2, 261360, Note_on_c, 0, 74, 0
2, 261360, Note_on_c, 0, 61, 0
2, 261480, Note_on_c, 0, 108, 0
2, 261720, Note_on_c, 0, 108, 100
2, 262200, Note_on_c, 0, 108, 0
2, 262560, Note_on_c, 0, 99, 100
2, 262560, Note_on_c, 0, 98, 100
2, 262560, Note_on_c, 0, 87, 100
2, 262560, Note_on_c, 0, 86, 100
2, 262560, Note_on_c, 0, 74, 100
2, 262560, Note_on_c, 0, 61, 100
2, 262680, Note_on_c, 0, 108, 100
2, 262800, Note_on_c, 0, 99, 0
2, 262800, Note_on_c, 0, 98, 0
2, 262800, Note_on_c, 0, 87, 0
2, 262800, Note_on_c, 0, 86, 0
2, 262800, Note_on_c, 0, 74, 0
2, 262800, Note_on_c, 0, 61, 0
2, 262920, Note_on_c, 0, 108, 0
2, 263160, Note_on_c, 0, 108, 100
2, 263880, Note_on_c, 0, 108, 0
2, 264000, Note_on_c, 0, 99, 100
2, 264000, Note_on_c, 0, 98, 100
2, 264000, Note_on_c, 0, 87, 100
2, 264000, Note_on_c, 0, 86, 100
2, 264000, Note_on_c, 0, 74, 100
2, 264000, Note_on_c, 0, 61, 100
2, 264120, Note_on_c, 0, 108, 100
2, 264240, Note_on_c, 0, 99, 0
2, 264240, Note_on_c, 0, 98, 0
2, 264240, Note_on_c, 0, 87, 0
2, 264240, Note_on_c, 0, 86, 0
2, 264240, Note_on_c, 0, 74, 0
2, 264240, Note_on_c, 0, 61, 0
2, 265320, Note_on_c, 0, 108, 0
2, 265560, Note_on_c, 0, 108, 100
2, 265920, Note_on_c, 0, 99, 100
2, 265920, Note_on_c, 0, 98, 100
2, 265920, Note_on_c, 0, 87, 100
2, 265920, Note_on_c, 0, 86, 100
2, 265920, Note_on_c, 0, 74, 100
2, 265920, Note_on_c, 0, 61, 100
2, 266160, Note_on_c, 0, 99, 0
2, 266160, Note_on_c, 0, 98, 0
2, 266160, Note_on_c, 0, 87, 0
2, 266160, Note_on_c, 0, 86, 0
2, 266160, Note_on_c, 0, 74, 0
2, 266160, Note_on_c, 0, 61, 0
2, 266280, Note_on_c, 0, 108, 0
2, 266520, Note_on_c, 0, 108, 100
2, 266760, Note_on_c, 0, 108, 0
2, 266880, Note_on_c, 0, 99, 100
2, 266880, Note_on_c, 0, 98, 100
2, 266880, Note_on_c, 0, 87, 100
2, 266880, Note_on_c, 0, 86, 100
2, 266880, Note_on_c, 0, 74, 100
2, 266880, Note_on_c, 0, 61, 100
2, 267000, Note_on_c, 0, 108, 100
2, 267120, Note_on_c, 0, 99, 0
2, 267120, Note_on_c, 0, 98, 0
2, 267120, Note_on_c, 0, 87, 0
2, 267120, Note_on_c, 0, 86, 0
2, 267120, Note_on_c, 0, 74, 0
2, 267120, Note_on_c, 0, 61, 0
2, 267840, Note_on_c, 0, 99, 100
2, 267840, Note_on_c, 0, 98, 100
2, 267840, Note_on_c, 0, 87, 100
2, 267840, Note_on_c, 0, 86, 100
2, 267840, Note_on_c, 0, 74, 100
2, 267840, Note_on_c, 0, 61, 100
2, 268080, Note_on_c, 0, 99, 0
2, 268080, Note_on_c, 0, 98, 0
2, 268080, Note_on_c, 0, 87, 0
2, 268080, Note_on_c, 0, 86, 0
2, 268080, Note_on_c, 0, 74, 0
2, 268080, Note_on_c, 0, 61, 0
2, 268200, Note_on_c, 0, 108, 0
2, 268440, Note_on_c, 0, 108, 100
2, 268770, Note_on_c, 0, 103, 100
2, 268770, Note_on_c, 0, 91, 100
2, 268770, Note_on_c, 0, 79, 100
2, 268770, Note_on_c, 0, 67, 100
2, 268770, Note_on_c, 0, 105, 100
2, 268770, Note_on_c, 0, 93, 100
2, 268770, Note_on_c, 0, 69, 100
2, 268770, Note_on_c, 0, 81, 100
2, 268800, Note_on_c, 0, 98, 100
2, 268800, Note_on_c, 0, 100, 100
2, 268800, Note_on_c, 0, 86, 100
2, 268800, Note_on_c, 0, 88, 100
2, 268800, Note_on_c, 0, 75, 100
2, 268800, Note_on_c, 0, 62, 100
2, 269040, Note_on_c, 0, 98, 0
2, 269040, Note_on_c, 0, 100, 0
2, 269040, Note_on_c, 0, 86, 0
2, 269040, Note_on_c, 0, 88, 0
2, 269040, Note_on_c, 0, 75, 0
2, 269040, Note_on_c, 0, 62, 0
2, 269640, Note_on_c, 0, 108, 0
2, 270240, Note_on_c, 0, 98, 100
2, 270240, Note_on_c, 0, 100, 100
2, 270240, Note_on_c, 0, 86, 100
2, 270240, Note_on_c, 0, 88, 100
2, 270240, Note_on_c, 0, 75, 100
2, 270240, Note_on_c, 0, 62, 100
2, 270480, Note_on_c, 0, 98, 0
2, 270480, Note_on_c, 0, 100, 0
2, 270480, Note_on_c, 0, 86, 0
2, 270480, Note_on_c, 0, 88, 0
2, 270480, Note_on_c, 0, 75, 0
2, 270480, Note_on_c, 0, 62, 0
2, 271680, Note_on_c, 0, 98, 100
2, 271680, Note_on_c, 0, 100, 100
2, 271680, Note_on_c, 0, 86, 100
2, 271680, Note_on_c, 0, 88, 100
2, 271680, Note_on_c, 0, 75, 100
2, 271680, Note_on_c, 0, 62, 100
2, 271920, Note_on_c, 0, 98, 0
2, 271920, Note_on_c, 0, 100, 0
2, 271920, Note_on_c, 0, 86, 0
2, 271920, Note_on_c, 0, 88, 0
2, 271920, Note_on_c, 0, 75, 0
2, 271920, Note_on_c, 0, 62, 0
2, 273600, Note_on_c, 0, 98, 100
2, 273600, Note_on_c, 0, 100, 100
2, 273600, Note_on_c, 0, 86, 100
2, 273600, Note_on_c, 0, 88, 100
2, 273600, Note_on_c, 0, 75, 100
2, 273600, Note_on_c, 0, 62, 100
2, 273840, Note_on_c, 0, 98, 0
2, 273840, Note_on_c, 0, 100, 0
2, 273840, Note_on_c, 0, 86, 0
2, 273840, Note_on_c, 0, 88, 0
2, 273840, Note_on_c, 0, 75, 0
2, 273840, Note_on_c, 0, 62, 0
2, 274560, Note_on_c, 0, 98, 100
2, 274560, Note_on_c, 0, 100, 100
2, 274560, Note_on_c, 0, 86, 100
2, 274560, Note_on_c, 0, 88, 100
2, 274560, Note_on_c, 0, 75, 100
2, 274560, Note_on_c, 0, 62, 100
2, 274800, Note_on_c, 0, 98, 0
2, 274800, Note_on_c, 0, 100, 0
2, 274800, Note_on_c, 0, 86, 0
2, 274800, Note_on_c, 0, 88, 0
2, 274800, Note_on_c, 0, 75, 0
2, 274800, Note_on_c, 0, 62, 0
2, 275520, Note_on_c, 0, 98, 100
2, 275520, Note_on_c, 0, 86, 100
2, 275760, Note_on_c, 0, 98, 0
2, 275760, Note_on_c, 0, 86, 0
2, 276450, Text_t, "sing_off"
2, 276450, Text_t, "[lighting (sweep)]"
2, 276480, Note_on_c, 0, 98, 100
2, 276480, Note_on_c, 0, 100, 100
2, 276480, Note_on_c, 0, 86, 100
2, 276480, Note_on_c, 0, 88, 100
2, 276480, Note_on_c, 0, 75, 100
2, 276480, Note_on_c, 0, 62, 100
2, 276720, Note_on_c, 0, 98, 0
2, 276720, Note_on_c, 0, 100, 0
2, 276720, Note_on_c, 0, 86, 0
2, 276720, Note_on_c, 0, 88, 0
2, 276720, Note_on_c, 0, 75, 0
2, 276720, Note_on_c, 0, 62, 0
2, 277920, Note_on_c, 0, 98, 100
2, 277920, Note_on_c, 0, 100, 100
2, 277920, Note_on_c, 0, 86, 100
2, 277920, Note_on_c, 0, 88, 100
2, 277920, Note_on_c, 0, 75, 100
2, 277920, Note_on_c, 0, 62, 100
2, 278160, Note_on_c, 0, 98, 0
2, 278160, Note_on_c, 0, 100, 0
2, 278160, Note_on_c, 0, 86, 0
2, 278160, Note_on_c, 0, 88, 0
2, 278160, Note_on_c, 0, 75, 0
2, 278160, Note_on_c, 0, 62, 0
2, 279360, Note_on_c, 0, 98, 100
2, 279360, Note_on_c, 0, 100, 100
2, 279360, Note_on_c, 0, 86, 100
2, 279360, Note_on_c, 0, 88, 100
2, 279360, Note_on_c, 0, 75, 100
2, 279360, Note_on_c, 0, 62, 100
2, 279600, Note_on_c, 0, 98, 0
2, 279600, Note_on_c, 0, 100, 0
2, 279600, Note_on_c, 0, 86, 0
2, 279600, Note_on_c, 0, 88, 0
2, 279600, Note_on_c, 0, 75, 0
2, 279600, Note_on_c, 0, 62, 0
2, 279810, Note_on_c, 0, 103, 0
2, 279810, Note_on_c, 0, 91, 0
2, 279810, Note_on_c, 0, 79, 0
2, 279810, Note_on_c, 0, 67, 0
2, 281280, Note_on_c, 0, 99, 100
2, 281280, Note_on_c, 0, 87, 100
2, 281280, Note_on_c, 0, 74, 100
2, 281280, Note_on_c, 0, 61, 100
2, 281520, Note_on_c, 0, 99, 0
2, 281520, Note_on_c, 0, 87, 0
2, 281520, Note_on_c, 0, 74, 0
2, 281520, Note_on_c, 0, 61, 0
2, 282240, Note_on_c, 0, 98, 100
2, 282240, Note_on_c, 0, 86, 100
2, 282240, Note_on_c, 0, 73, 100
2, 282240, Note_on_c, 0, 60, 100
2, 282480, Note_on_c, 0, 98, 0
2, 282480, Note_on_c, 0, 86, 0
2, 282480, Note_on_c, 0, 73, 0
2, 282480, Note_on_c, 0, 60, 0
2, 283200, Note_on_c, 0, 99, 100
2, 283200, Note_on_c, 0, 87, 100
2, 283200, Note_on_c, 0, 74, 100
2, 283440, Note_on_c, 0, 99, 0
2, 283440, Note_on_c, 0, 87, 0
2, 283440, Note_on_c, 0, 74, 0
2, 284130, Note_on_c, 0, 106, 0
2, 284130, Note_on_c, 0, 94, 0
2, 284130, Note_on_c, 0, 70, 0
2, 284130, Note_on_c, 0, 82, 0
2, 284160, Note_on_c, 0, 100, 100
2, 284160, Note_on_c, 0, 88, 100
2, 284160, Note_on_c, 0, 75, 100
2, 284160, Note_on_c, 0, 62, 100
2, 284400, Note_on_c, 0, 100, 0
2, 284400, Note_on_c, 0, 88, 0
2, 284400, Note_on_c, 0, 75, 0
2, 284400, Note_on_c, 0, 62, 0
2, 284760, Note_on_c, 0, 108, 100
2, 285120, Note_on_c, 0, 100, 100
2, 285120, Note_on_c, 0, 88, 100
2, 285120, Note_on_c, 0, 75, 100
2, 285120, Note_on_c, 0, 62, 100
2, 285360, Note_on_c, 0, 100, 0
2, 285360, Note_on_c, 0, 88, 0
2, 285360, Note_on_c, 0, 75, 0
2, 285360, Note_on_c, 0, 62, 0
2, 285480, Note_on_c, 0, 108, 0
2, 285720, Note_on_c, 0, 108, 100
2, 285960, Note_on_c, 0, 108, 0
2, 286080, Note_on_c, 0, 100, 100
2, 286080, Note_on_c, 0, 88, 100
2, 286080, Note_on_c, 0, 75, 100
2, 286080, Note_on_c, 0, 62, 100
2, 286200, Note_on_c, 0, 108, 100
2, 286320, Note_on_c, 0, 100, 0
2, 286320, Note_on_c, 0, 88, 0
2, 286320, Note_on_c, 0, 75, 0
2, 286320, Note_on_c, 0, 62, 0
2, 286920, Note_on_c, 0, 108, 0
2, 287040, Note_on_c, 0, 99, 100
2, 287040, Note_on_c, 0, 87, 100
2, 287160, Note_on_c, 0, 108, 100
2, 287280, Note_on_c, 0, 99, 0
2, 287280, Note_on_c, 0, 87, 0
2, 287520, Note_on_c, 0, 98, 100
2, 287520, Note_on_c, 0, 86, 100
2, 287520, Note_on_c, 0, 73, 100
2, 287520, Note_on_c, 0, 60, 100
2, 287760, Note_on_c, 0, 98, 0
2, 287760, Note_on_c, 0, 86, 0
2, 287760, Note_on_c, 0, 73, 0
2, 287760, Note_on_c, 0, 60, 0
2, 288120, Note_on_c, 0, 108, 0
2, 288360, Note_on_c, 0, 108, 100
2, 288480, Note_on_c, 0, 98, 100
2, 288480, Note_on_c, 0, 86, 100
2, 288720, Note_on_c, 0, 98, 0
2, 288720, Note_on_c, 0, 86, 0
2, 288960, Note_on_c, 0, 98, 100
2, 288960, Note_on_c, 0, 86, 100
2, 288960, Note_on_c, 0, 73, 100
2, 288960, Note_on_c, 0, 60, 100
2, 289200, Note_on_c, 0, 98, 0
2, 289200, Note_on_c, 0, 86, 0
2, 289200, Note_on_c, 0, 73, 0
2, 289200, Note_on_c, 0, 60, 0
2, 289320, Note_on_c, 0, 108, 0
2, 289560, Note_on_c, 0, 108, 100
2, 289920, Note_on_c, 0, 98, 100
2, 289920, Note_on_c, 0, 86, 100
2, 289920, Note_on_c, 0, 73, 100
2, 289920, Note_on_c, 0, 60, 100
2, 290040, Note_on_c, 0, 108, 0
2, 290160, Note_on_c, 0, 98, 0
2, 290160, Note_on_c, 0, 86, 0
2, 290160, Note_on_c, 0, 73, 0
2, 290160, Note_on_c, 0, 60, 0
2, 290280, Note_on_c, 0, 108, 100
2, 290880, Note_on_c, 0, 99, 100
2, 290880, Note_on_c, 0, 87, 100
2, 290880, Note_on_c, 0, 74, 100
2, 290880, Note_on_c, 0, 61, 100
2, 291000, Note_on_c, 0, 108, 0
2, 291120, Note_on_c, 0, 99, 0
2, 291120, Note_on_c, 0, 87, 0
2, 291120, Note_on_c, 0, 74, 0
2, 291120, Note_on_c, 0, 61, 0
2, 291480, Note_on_c, 0, 108, 100
2, 291720, Note_on_c, 0, 108, 0
2, 291810, Text_t, "sing_on"
2, 291810, Text_t, "[lighting ()]"
2, 291840, Note_on_c, 0, 100, 100
2, 291840, Note_on_c, 0, 88, 100
2, 291840, Note_on_c, 0, 75, 100
2, 291840, Note_on_c, 0, 62, 100
2, 291960, Note_on_c, 0, 108, 100
2, 292080, Note_on_c, 0, 100, 0
2, 292080, Note_on_c, 0, 88, 0
2, 292080, Note_on_c, 0, 75, 0
2, 292080, Note_on_c, 0, 62, 0
2, 292680, Note_on_c, 0, 108, 0
2, 292800, Note_on_c, 0, 99, 100
2, 292800, Note_on_c, 0, 87, 100
2, 292800, Note_on_c, 0, 74, 100
2, 292800, Note_on_c, 0, 61, 100
2, 292920, Note_on_c, 0, 108, 100
2, 293040, Note_on_c, 0, 99, 0
2, 293040, Note_on_c, 0, 87, 0
2, 293040, Note_on_c, 0, 74, 0
2, 293040, Note_on_c, 0, 61, 0
2, 293640, Note_on_c, 0, 108, 0
2, 293760, Note_on_c, 0, 98, 100
2, 293760, Note_on_c, 0, 86, 100
2, 293760, Note_on_c, 0, 73, 100
2, 293760, Note_on_c, 0, 60, 100
2, 293880, Note_on_c, 0, 108, 100
2, 294000, Note_on_c, 0, 98, 0
2, 294000, Note_on_c, 0, 86, 0
2, 294000, Note_on_c, 0, 73, 0
2, 294000, Note_on_c, 0, 60, 0
2, 294600, Note_on_c, 0, 108, 0
2, 294720, Note_on_c, 0, 99, 100
2, 294720, Note_on_c, 0, 87, 100
2, 294720, Note_on_c, 0, 74, 100
2, 294840, Note_on_c, 0, 108, 100
2, 294960, Note_on_c, 0, 99, 0
2, 294960, Note_on_c, 0, 87, 0
2, 294960, Note_on_c, 0, 74, 0
2, 295080, Note_on_c, 0, 108, 0
2, 295680, Note_on_c, 0, 99, 100
2, 295680, Note_on_c, 0, 87, 100
2, 295680, Note_on_c, 0, 74, 100
2, 295680, Note_on_c, 0, 61, 100
2, 295920, Note_on_c, 0, 61, 0
2, 297570, Note_on_c, 0, 105, 0
2, 297570, Note_on_c, 0, 93, 0
2, 297570, Note_on_c, 0, 69, 0
2, 297570, Note_on_c, 0, 81, 0
2, 297570, Note_on_c, 0, 106, 100
2, 297570, Note_on_c, 0, 94, 100
2, 297570, Note_on_c, 0, 70, 100
2, 297570, Note_on_c, 0, 82, 100
2, 297600, Note_on_c, 0, 99, 0
2, 297720, Note_on_c, 0, 108, 100
2, 297960, Note_on_c, 0, 108, 0
2, 298080, Note_on_c, 0, 87, 0
2, 298080, Note_on_c, 0, 74, 0
2, 298080, Note_on_c, 0, 99, 100
2, 298200, Note_on_c, 0, 108, 100
2, 298320, Note_on_c, 0, 99, 0
2, 298560, Note_on_c, 0, 100, 100
2, 298560, Note_on_c, 0, 88, 100
2, 298560, Note_on_c, 0, 75, 100
2, 298560, Note_on_c, 0, 62, 100
2, 298800, Note_on_c, 0, 100, 0
2, 298800, Note_on_c, 0, 88, 0
2, 298800, Note_on_c, 0, 75, 0
2, 298800, Note_on_c, 0, 62, 0
2, 298920, Note_on_c, 0, 108, 0
2, 299160, Note_on_c, 0, 108, 100
2, 299520, Note_on_c, 0, 100, 100
2, 299520, Note_on_c, 0, 88, 100
2, 299520, Note_on_c, 0, 75, 100
2, 299520, Note_on_c, 0, 62, 100
2, 299760, Note_on_c, 0, 100, 0
2, 299760, Note_on_c, 0, 88, 0
2, 299760, Note_on_c, 0, 75, 0
2, 299760, Note_on_c, 0, 62, 0
2, 299880, Note_on_c, 0, 108, 0
2, 300120, Note_on_c, 0, 108, 100
2, 300360, Note_on_c, 0, 108, 0
2, 300480, Note_on_c, 0, 100, 100
2, 300480, Note_on_c, 0, 88, 100
2, 300480, Note_on_c, 0, 75, 100
2, 300480, Note_on_c, 0, 62, 100
2, 300600, Note_on_c, 0, 108, 100
2, 300720, Note_on_c, 0, 100, 0
2, 300720, Note_on_c, 0, 88, 0
2, 300720, Note_on_c, 0, 75, 0
2, 300720, Note_on_c, 0, 62, 0
2, 301320, Note_on_c, 0, 108, 0
2, 301440, Note_on_c, 0, 100, 100
2, 301440, Note_on_c, 0, 88, 100
2, 301440, Note_on_c, 0, 75, 100
2, 301440, Note_on_c, 0, 62, 100
2, 301560, Note_on_c, 0, 108, 100
2, 301680, Note_on_c, 0, 100, 0
2, 301680, Note_on_c, 0, 88, 0
2, 301680, Note_on_c, 0, 75, 0
2, 301680, Note_on_c, 0, 62, 0
2, 301920, Note_on_c, 0, 99, 100
2, 301920, Note_on_c, 0, 87, 100
2, 302160, Note_on_c, 0, 99, 0
2, 302160, Note_on_c, 0, 87, 0
2, 302520, Note_on_c, 0, 108, 0
2, 302880, Note_on_c, 0, 98, 100
2, 302880, Note_on_c, 0, 86, 100
2, 302880, Note_on_c, 0, 73, 100
2, 302880, Note_on_c, 0, 60, 100
2, 303000, Note_on_c, 0, 108, 100
2, 303120, Note_on_c, 0, 98, 0
2, 303120, Note_on_c, 0, 86, 0
2, 303120, Note_on_c, 0, 73, 0
2, 303120, Note_on_c, 0, 60, 0
2, 303240, Note_on_c, 0, 108, 0
2, 303480, Note_on_c, 0, 108, 100
2, 304200, Note_on_c, 0, 108, 0
2, 304320, Note_on_c, 0, 99, 100
2, 304320, Note_on_c, 0, 87, 100
2, 304320, Note_on_c, 0, 74, 100
2, 304320, Note_on_c, 0, 61, 100
2, 304560, Note_on_c, 0, 99, 0
2, 304560, Note_on_c, 0, 87, 0
2, 304560, Note_on_c, 0, 74, 0
2, 304560, Note_on_c, 0, 61, 0
2, 304680, Note_on_c, 0, 108, 100
2, 305280, Note_on_c, 0, 100, 100
2, 305280, Note_on_c, 0, 88, 100
2, 305280, Note_on_c, 0, 75, 100
2, 305280, Note_on_c, 0, 62, 100
2, 305520, Note_on_c, 0, 100, 0
2, 305520, Note_on_c, 0, 88, 0
2, 305520, Note_on_c, 0, 75, 0
2, 305520, Note_on_c, 0, 62, 0
2, 306120, Note_on_c, 0, 108, 0
2, 306240, Note_on_c, 0, 98, 100
2, 306240, Note_on_c, 0, 86, 100
2, 306240, Note_on_c, 0, 73, 100
2, 306240, Note_on_c, 0, 60, 100
2, 306360, Note_on_c, 0, 108, 100
2, 306480, Note_on_c, 0, 98, 0
2, 306480, Note_on_c, 0, 86, 0
2, 306480, Note_on_c, 0, 73, 0
2, 306480, Note_on_c, 0, 60, 0
2, 307200, Note_on_c, 0, 99, 100
2, 307200, Note_on_c, 0, 87, 100
2, 307200, Note_on_c, 0, 74, 100
2, 307200, Note_on_c, 0, 61, 100
2, 307440, Note_on_c, 0, 99, 0
2, 307440, Note_on_c, 0, 87, 0
2, 307440, Note_on_c, 0, 74, 0
2, 307440, Note_on_c, 0, 61, 0
2, 307800, Note_on_c, 0, 108, 0
2, 308160, Note_on_c, 0, 99, 100
2, 308160, Note_on_c, 0, 87, 100
2, 308160, Note_on_c, 0, 74, 100
2, 308400, Note_on_c, 0, 99, 0
2, 308400, Note_on_c, 0, 87, 0
2, 308400, Note_on_c, 0, 74, 0
2, 309600, Note_on_c, 0, 99, 100
2, 309600, Note_on_c, 0, 87, 100
2, 309840, Note_on_c, 0, 99, 0
2, 309840, Note_on_c, 0, 87, 0
2, 310080, Note_on_c, 0, 99, 100
2, 310080, Note_on_c, 0, 87, 100
2, 310080, Note_on_c, 0, 74, 100
2, 310080, Note_on_c, 0, 61, 100
2, 310320, Note_on_c, 0, 99, 0
2, 310320, Note_on_c, 0, 87, 0
2, 310320, Note_on_c, 0, 74, 0
2, 310320, Note_on_c, 0, 61, 0
2, 311040, Note_on_c, 0, 99, 100
2, 311040, Note_on_c, 0, 87, 100
2, 311040, Note_on_c, 0, 74, 100
2, 311040, Note_on_c, 0, 61, 100
2, 311160, Note_on_c, 0, 108, 100
2, 311280, Note_on_c, 0, 99, 0
2, 311280, Note_on_c, 0, 87, 0
2, 311280, Note_on_c, 0, 74, 0
2, 311280, Note_on_c, 0, 61, 0
2, 311400, Note_on_c, 0, 108, 0
2, 311640, Note_on_c, 0, 108, 100
2, 312000, Note_on_c, 0, 98, 100
2, 312000, Note_on_c, 0, 86, 100
2, 312000, Note_on_c, 0, 73, 100
2, 312000, Note_on_c, 0, 60, 100
2, 312240, Note_on_c, 0, 98, 0
2, 312240, Note_on_c, 0, 86, 0
2, 312240, Note_on_c, 0, 73, 0
2, 312240, Note_on_c, 0, 60, 0
2, 312360, Note_on_c, 0, 108, 0
2, 312600, Note_on_c, 0, 108, 100
2, 312840, Note_on_c, 0, 108, 0
2, 312960, Note_on_c, 0, 97, 100
2, 312960, Note_on_c, 0, 85, 100
2, 312960, Note_on_c, 0, 72, 100
2, 313080, Note_on_c, 0, 108, 100
2, 313200, Note_on_c, 0, 97, 0
2, 313200, Note_on_c, 0, 85, 0
2, 313200, Note_on_c, 0, 72, 0
2, 313800, Note_on_c, 0, 108, 0
2, 313920, Note_on_c, 0, 98, 100
2, 313920, Note_on_c, 0, 86, 100
2, 313920, Note_on_c, 0, 73, 100
2, 313920, Note_on_c, 0, 61, 100
2, 314040, Note_on_c, 0, 108, 100
2, 314160, Note_on_c, 0, 98, 0
2, 314160, Note_on_c, 0, 86, 0
2, 314160, Note_on_c, 0, 73, 0
2, 314160, Note_on_c, 0, 61, 0
2, 314280, Note_on_c, 0, 108, 0
2, 314520, Note_on_c, 0, 108, 100
2, 314850, Note_on_c, 0, 105, 100
2, 314850, Note_on_c, 0, 93, 100
2, 314850, Note_on_c, 0, 69, 100
2, 314850, Note_on_c, 0, 81, 100
2, 314880, Note_on_c, 0, 100, 100
2, 314880, Note_on_c, 0, 98, 100
2, 314880, Note_on_c, 0, 88, 100
2, 314880, Note_on_c, 0, 86, 100
2, 314880, Note_on_c, 0, 75, 100
2, 314880, Note_on_c, 0, 62, 100
2, 315120, Note_on_c, 0, 100, 0
2, 315120, Note_on_c, 0, 98, 0
2, 315120, Note_on_c, 0, 88, 0
2, 315120, Note_on_c, 0, 86, 0
2, 315120, Note_on_c, 0, 75, 0
2, 315120, Note_on_c, 0, 62, 0
2, 315720, Note_on_c, 0, 108, 0
2, 315840, Note_on_c, 0, 100, 100
2, 315840, Note_on_c, 0, 98, 100
2, 315840, Note_on_c, 0, 88, 100
2, 315840, Note_on_c, 0, 86, 100
2, 315840, Note_on_c, 0, 75, 100
2, 315840, Note_on_c, 0, 62, 100
2, 316080, Note_on_c, 0, 100, 0
2, 316080, Note_on_c, 0, 98, 0
2, 316080, Note_on_c, 0, 88, 0
2, 316080, Note_on_c, 0, 86, 0
2, 316080, Note_on_c, 0, 75, 0
2, 316080, Note_on_c, 0, 62, 0
2, 317760, Note_on_c, 0, 100, 100
2, 317760, Note_on_c, 0, 98, 100
2, 317760, Note_on_c, 0, 88, 100
2, 317760, Note_on_c, 0, 86, 100
2, 317760, Note_on_c, 0, 75, 100
2, 317760, Note_on_c, 0, 62, 100
2, 318000, Note_on_c, 0, 100, 0
2, 318000, Note_on_c, 0, 98, 0
2, 318000, Note_on_c, 0, 88, 0
2, 318000, Note_on_c, 0, 86, 0
2, 318000, Note_on_c, 0, 75, 0
2, 318000, Note_on_c, 0, 62, 0
2, 319320, Note_on_c, 0, 108, 100
2, 319680, Note_on_c, 0, 100, 100
2, 319680, Note_on_c, 0, 98, 100
2, 319680, Note_on_c, 0, 88, 100
2, 319680, Note_on_c, 0, 86, 100
2, 319680, Note_on_c, 0, 75, 100
2, 319680, Note_on_c, 0, 62, 100
2, 319920, Note_on_c, 0, 100, 0
2, 319920, Note_on_c, 0, 98, 0
2, 319920, Note_on_c, 0, 88, 0
2, 319920, Note_on_c, 0, 86, 0
2, 319920, Note_on_c, 0, 75, 0
2, 319920, Note_on_c, 0, 62, 0
2, 320040, Note_on_c, 0, 108, 0
2, 320280, Note_on_c, 0, 108, 100
2, 320520, Note_on_c, 0, 108, 0
2, 320640, Note_on_c, 0, 100, 100
2, 320640, Note_on_c, 0, 98, 100
2, 320640, Note_on_c, 0, 88, 100
2, 320640, Note_on_c, 0, 86, 100
2, 320640, Note_on_c, 0, 75, 100
2, 320640, Note_on_c, 0, 62, 100
2, 320760, Note_on_c, 0, 108, 100
2, 320880, Note_on_c, 0, 100, 0
2, 320880, Note_on_c, 0, 98, 0
2, 320880, Note_on_c, 0, 88, 0
2, 320880, Note_on_c, 0, 86, 0
2, 320880, Note_on_c, 0, 75, 0
2, 320880, Note_on_c, 0, 62, 0
2, 321120, Note_on_c, 0, 100, 100
2, 321120, Note_on_c, 0, 98, 100
2, 321120, Note_on_c, 0, 88, 100
2, 321120, Note_on_c, 0, 86, 100
2, 321120, Note_on_c, 0, 75, 100
2, 321360, Note_on_c, 0, 100, 0
2, 321360, Note_on_c, 0, 98, 0
2, 321360, Note_on_c, 0, 88, 0
2, 321360, Note_on_c, 0, 86, 0
2, 321360, Note_on_c, 0, 75, 0
2, 321600, Note_on_c, 0, 100, 100
2, 321600, Note_on_c, 0, 98, 100
2, 321600, Note_on_c, 0, 88, 100
2, 321600, Note_on_c, 0, 86, 100
2, 321600, Note_on_c, 0, 75, 100
2, 321600, Note_on_c, 0, 62, 100
2, 321720, Note_on_c, 0, 108, 0
2, 321840, Note_on_c, 0, 100, 0
2, 321840, Note_on_c, 0, 98, 0
2, 321840, Note_on_c, 0, 88, 0
2, 321840, Note_on_c, 0, 86, 0
2, 321840, Note_on_c, 0, 75, 0
2, 321840, Note_on_c, 0, 62, 0
2, 321960, Note_on_c, 0, 108, 100
2, 322530, Text_t, "[chorus]"
2, 322530, Text_t, "[lighting (sweep)]"
2, 322560, Note_on_c, 0, 99, 100
2, 322560, Note_on_c, 0, 97, 100
2, 322560, Note_on_c, 0, 87, 100
2, 322560, Note_on_c, 0, 85, 100
2, 322560, Note_on_c, 0, 74, 100
2, 322560, Note_on_c, 0, 73, 100
2, 322560, Note_on_c, 0, 61, 100
2, 322800, Note_on_c, 0, 99, 0
2, 322800, Note_on_c, 0, 97, 0
2, 322800, Note_on_c, 0, 87, 0
2, 322800, Note_on_c, 0, 85, 0
2, 322800, Note_on_c, 0, 74, 0
2, 322800, Note_on_c, 0, 73, 0
2, 322800, Note_on_c, 0, 61, 0
2, 322920, Note_on_c, 0, 108, 0
2, 323160, Note_on_c, 0, 108, 100
2, 323400, Note_on_c, 0, 108, 0
2, 323520, Note_on_c, 0, 99, 100
2, 323520, Note_on_c, 0, 97, 100
2, 323520, Note_on_c, 0, 87, 100
2, 323520, Note_on_c, 0, 85, 100
2, 323520, Note_on_c, 0, 74, 100
2, 323520, Note_on_c, 0, 73, 100
2, 323520, Note_on_c, 0, 61, 100
2, 323640, Note_on_c, 0, 108, 100
2, 323760, Note_on_c, 0, 99, 0
2, 323760, Note_on_c, 0, 97, 0
2, 323760, Note_on_c, 0, 87, 0
2, 323760, Note_on_c, 0, 85, 0
2, 323760, Note_on_c, 0, 74, 0
2, 323760, Note_on_c, 0, 73, 0
2, 323760, Note_on_c, 0, 61, 0
2, 324600, Note_on_c, 0, 108, 0
2, 325440, Note_on_c, 0, 99, 100
2, 325440, Note_on_c, 0, 97, 100
2, 325440, Note_on_c, 0, 87, 100
2, 325440, Note_on_c, 0, 85, 100
2, 325440, Note_on_c, 0, 74, 100
2, 325440, Note_on_c, 0, 73, 100
2, 325440, Note_on_c, 0, 61, 100
2, 325680, Note_on_c, 0, 99, 0
2, 325680, Note_on_c, 0, 97, 0
2, 325680, Note_on_c, 0, 87, 0
2, 325680, Note_on_c, 0, 85, 0
2, 325680, Note_on_c, 0, 74, 0
2, 325680, Note_on_c, 0, 73, 0
2, 325680, Note_on_c, 0, 61, 0
2, 327000, Note_on_c, 0, 108, 100
2, 327360, Note_on_c, 0, 99, 100
2, 327360, Note_on_c, 0, 97, 100
2, 327360, Note_on_c, 0, 87, 100
2, 327360, Note_on_c, 0, 85, 100
2, 327360, Note_on_c, 0, 74, 100
2, 327360, Note_on_c, 0, 73, 100
2, 327360, Note_on_c, 0, 61, 100
2, 327600, Note_on_c, 0, 99, 0
2, 327600, Note_on_c, 0, 97, 0
2, 327600, Note_on_c, 0, 87, 0
2, 327600, Note_on_c, 0, 85, 0
2, 327600, Note_on_c, 0, 74, 0
2, 327600, Note_on_c, 0, 73, 0
2, 327600, Note_on_c, 0, 61, 0
2, 327720, Note_on_c, 0, 108, 0
2, 327960, Note_on_c, 0, 108, 100
2, 328200, Note_on_c, 0, 108, 0
2, 328320, Note_on_c, 0, 99, 100
2, 328320, Note_on_c, 0, 97, 100
2, 328320, Note_on_c, 0, 87, 100
2, 328320, Note_on_c, 0, 85, 100
2, 328320, Note_on_c, 0, 74, 100
2, 328320, Note_on_c, 0, 73, 100
2, 328320, Note_on_c, 0, 61, 100
2, 328440, Note_on_c, 0, 108, 100
2, 328560, Note_on_c, 0, 99, 0
2, 328560, Note_on_c, 0, 97, 0
2, 328560, Note_on_c, 0, 87, 0
2, 328560, Note_on_c, 0, 85, 0
2, 328560, Note_on_c, 0, 74, 0
2, 328560, Note_on_c, 0, 73, 0
2, 328560, Note_on_c, 0, 61, 0
2, 328800, Note_on_c, 0, 99, 100
2, 328800, Note_on_c, 0, 97, 100
2, 328800, Note_on_c, 0, 87, 100
2, 328800, Note_on_c, 0, 85, 100
2, 328800, Note_on_c, 0, 74, 100
2, 328800, Note_on_c, 0, 73, 100
2, 329040, Note_on_c, 0, 99, 0
2, 329040, Note_on_c, 0, 97, 0
2, 329040, Note_on_c, 0, 87, 0
2, 329040, Note_on_c, 0, 85, 0
2, 329040, Note_on_c, 0, 74, 0
2, 329040, Note_on_c, 0, 73, 0
2, 329160, Note_on_c, 0, 108, 0
2, 329280, Note_on_c, 0, 99, 100
2, 329280, Note_on_c, 0, 97, 100
2, 329280, Note_on_c, 0, 87, 100
2, 329280, Note_on_c, 0, 85, 100
2, 329280, Note_on_c, 0, 74, 100
2, 329280, Note_on_c, 0, 73, 100
2, 329280, Note_on_c, 0, 61, 100
2, 329400, Note_on_c, 0, 108, 100
2, 329520, Note_on_c, 0, 99, 0
2, 329520, Note_on_c, 0, 97, 0
2, 329520, Note_on_c, 0, 87, 0
2, 329520, Note_on_c, 0, 85, 0
2, 329520, Note_on_c, 0, 74, 0
2, 329520, Note_on_c, 0, 73, 0
2, 329520, Note_on_c, 0, 61, 0
2, 330240, Note_on_c, 0, 100, 100
2, 330240, Note_on_c, 0, 98, 100
2, 330240, Note_on_c, 0, 88, 100
2, 330240, Note_on_c, 0, 86, 100
2, 330240, Note_on_c, 0, 75, 100
2, 330240, Note_on_c, 0, 62, 100
2, 330480, Note_on_c, 0, 100, 0
2, 330480, Note_on_c, 0, 98, 0
2, 330480, Note_on_c, 0, 88, 0
2, 330480, Note_on_c, 0, 86, 0
2, 330480, Note_on_c, 0, 75, 0
2, 330480, Note_on_c, 0, 62, 0
2, 330600, Note_on_c, 0, 108, 0
2, 331200, Note_on_c, 0, 100, 100
2, 331200, Note_on_c, 0, 98, 100
2, 331200, Note_on_c, 0, 88, 100
2, 331200, Note_on_c, 0, 86, 100
2, 331200, Note_on_c, 0, 75, 100
2, 331200, Note_on_c, 0, 62, 100
2, 331440, Note_on_c, 0, 100, 0
2, 331440, Note_on_c, 0, 98, 0
2, 331440, Note_on_c, 0, 88, 0
2, 331440, Note_on_c, 0, 86, 0
2, 331440, Note_on_c, 0, 75, 0
2, 331440, Note_on_c, 0, 62, 0
2, 333120, Note_on_c, 0, 100, 100
2, 333120, Note_on_c, 0, 98, 100
2, 333120, Note_on_c, 0, 88, 100
2, 333120, Note_on_c, 0, 86, 100
2, 333120, Note_on_c, 0, 75, 100
2, 333120, Note_on_c, 0, 62, 100
2, 333360, Note_on_c, 0, 100, 0
2, 333360, Note_on_c, 0, 98, 0
2, 333360, Note_on_c, 0, 88, 0
2, 333360, Note_on_c, 0, 86, 0
2, 333360, Note_on_c, 0, 75, 0
2, 333360, Note_on_c, 0, 62, 0
2, 334200, Note_on_c, 0, 108, 100
2, 334440, Note_on_c, 0, 108, 0
2, 334680, Note_on_c, 0, 108, 100
2, 335040, Note_on_c, 0, 100, 100
2, 335040, Note_on_c, 0, 98, 100
2, 335040, Note_on_c, 0, 88, 100
2, 335040, Note_on_c, 0, 86, 100
2, 335040, Note_on_c, 0, 75, 100
2, 335040, Note_on_c, 0, 62, 100
2, 335280, Note_on_c, 0, 100, 0
2, 335280, Note_on_c, 0, 98, 0
2, 335280, Note_on_c, 0, 88, 0
2, 335280, Note_on_c, 0, 86, 0
2, 335280, Note_on_c, 0, 75, 0
2, 335280, Note_on_c, 0, 62, 0
2, 335400, Note_on_c, 0, 108, 0
2, 335640, Note_on_c, 0, 108, 100
2, 335880, Note_on_c, 0, 108, 0
2, 336000, Note_on_c, 0, 100, 100
2, 336000, Note_on_c, 0, 98, 100
2, 336000, Note_on_c, 0, 88, 100
2, 336000, Note_on_c, 0, 86, 100
2, 336000, Note_on_c, 0, 75, 100
2, 336000, Note_on_c, 0, 62, 100
2, 336120, Note_on_c, 0, 108, 100
2, 336240, Note_on_c, 0, 100, 0
2, 336240, Note_on_c, 0, 98, 0
2, 336240, Note_on_c, 0, 88, 0
2, 336240, Note_on_c, 0, 86, 0
2, 336240, Note_on_c, 0, 75, 0
2, 336240, Note_on_c, 0, 62, 0
2, 336480, Note_on_c, 0, 100, 100
2, 336480, Note_on_c, 0, 98, 100
2, 336480, Note_on_c, 0, 88, 100
2, 336480, Note_on_c, 0, 86, 100
2, 336480, Note_on_c, 0, 75, 100
2, 336720, Note_on_c, 0, 100, 0
2, 336720, Note_on_c, 0, 98, 0
2, 336720, Note_on_c, 0, 88, 0
2, 336720, Note_on_c, 0, 86, 0
2, 336720, Note_on_c, 0, 75, 0
2, 336960, Note_on_c, 0, 100, 100
2, 336960, Note_on_c, 0, 98, 100
2, 336960, Note_on_c, 0, 88, 100
2, 336960, Note_on_c, 0, 86, 100
2, 336960, Note_on_c, 0, 75, 100
2, 336960, Note_on_c, 0, 62, 100
2, 337080, Note_on_c, 0, 108, 0
2, 337200, Note_on_c, 0, 100, 0
2, 337200, Note_on_c, 0, 98, 0
2, 337200, Note_on_c, 0, 88, 0
2, 337200, Note_on_c, 0, 86, 0
2, 337200, Note_on_c, 0, 75, 0
2, 337200, Note_on_c, 0, 62, 0
2, 337320, Note_on_c, 0, 108, 100
2, 337920, Note_on_c, 0, 98, 100
2, 337920, Note_on_c, 0, 97, 100
2, 337920, Note_on_c, 0, 86, 100
2, 337920, Note_on_c, 0, 85, 100
2, 337920, Note_on_c, 0, 73, 100
2, 337920, Note_on_c, 0, 61, 100
2, 338160, Note_on_c, 0, 98, 0
2, 338160, Note_on_c, 0, 97, 0
2, 338160, Note_on_c, 0, 86, 0
2, 338160, Note_on_c, 0, 85, 0
2, 338160, Note_on_c, 0, 73, 0
2, 338160, Note_on_c, 0, 61, 0
2, 338880, Note_on_c, 0, 98, 100
2, 338880, Note_on_c, 0, 97, 100
2, 338880, Note_on_c, 0, 86, 100
2, 338880, Note_on_c, 0, 85, 100
2, 338880, Note_on_c, 0, 73, 100
2, 338880, Note_on_c, 0, 61, 100
2, 339120, Note_on_c, 0, 98, 0
2, 339120, Note_on_c, 0, 97, 0
2, 339120, Note_on_c, 0, 86, 0
2, 339120, Note_on_c, 0, 85, 0
2, 339120, Note_on_c, 0, 73, 0
2, 339120, Note_on_c, 0, 61, 0
2, 339480, Note_on_c, 0, 108, 0
2, 340800, Note_on_c, 0, 98, 100
2, 340800, Note_on_c, 0, 97, 100
2, 340800, Note_on_c, 0, 86, 100
2, 340800, Note_on_c, 0, 85, 100
2, 340800, Note_on_c, 0, 73, 100
2, 340800, Note_on_c, 0, 61, 100
2, 341040, Note_on_c, 0, 98, 0
2, 341040, Note_on_c, 0, 97, 0
2, 341040, Note_on_c, 0, 86, 0
2, 341040, Note_on_c, 0, 85, 0
2, 341040, Note_on_c, 0, 73, 0
2, 341040, Note_on_c, 0, 61, 0
2, 342360, Note_on_c, 0, 108, 100
2, 342720, Note_on_c, 0, 98, 100
2, 342720, Note_on_c, 0, 97, 100
2, 342720, Note_on_c, 0, 86, 100
2, 342720, Note_on_c, 0, 85, 100
2, 342720, Note_on_c, 0, 73, 100
2, 342720, Note_on_c, 0, 61, 100
2, 342840, Note_on_c, 0, 108, 0
2, 342960, Note_on_c, 0, 98, 0
2, 342960, Note_on_c, 0, 97, 0
2, 342960, Note_on_c, 0, 86, 0
2, 342960, Note_on_c, 0, 85, 0
2, 342960, Note_on_c, 0, 73, 0
2, 342960, Note_on_c, 0, 61, 0
2, 343320, Note_on_c, 0, 108, 100
2, 343560, Note_on_c, 0, 108, 0
2, 343680, Note_on_c, 0, 98, 100
2, 343680, Note_on_c, 0, 97, 100
2, 343680, Note_on_c, 0, 86, 100
2, 343680, Note_on_c, 0, 85, 100
2, 343680, Note_on_c, 0, 73, 100
2, 343680, Note_on_c, 0, 61, 100
2, 343800, Note_on_c, 0, 108, 100
2, 343920, Note_on_c, 0, 98, 0
2, 343920, Note_on_c, 0, 97, 0
2, 343920, Note_on_c, 0, 86, 0
2, 343920, Note_on_c, 0, 85, 0
2, 343920, Note_on_c, 0, 73, 0
2, 343920, Note_on_c, 0, 61, 0
2, 344160, Note_on_c, 0, 98, 100
2, 344160, Note_on_c, 0, 97, 100
2, 344160, Note_on_c, 0, 86, 100
2, 344160, Note_on_c, 0, 85, 100
2, 344160, Note_on_c, 0, 73, 100
2, 344400, Note_on_c, 0, 98, 0
2, 344400, Note_on_c, 0, 97, 0
2, 344400, Note_on_c, 0, 86, 0
2, 344400, Note_on_c, 0, 85, 0
2, 344400, Note_on_c, 0, 73, 0
2, 344520, Note_on_c, 0, 108, 0
2, 344640, Note_on_c, 0, 98, 100
2, 344640, Note_on_c, 0, 97, 100
2, 344640, Note_on_c, 0, 86, 100
2, 344640, Note_on_c, 0, 85, 100
2, 344640, Note_on_c, 0, 73, 100
2, 344640, Note_on_c, 0, 61, 100
2, 344760, Note_on_c, 0, 108, 100
2, 344880, Note_on_c, 0, 98, 0
2, 344880, Note_on_c, 0, 97, 0
2, 344880, Note_on_c, 0, 86, 0
2, 344880, Note_on_c, 0, 85, 0
2, 344880, Note_on_c, 0, 73, 0
2, 344880, Note_on_c, 0, 61, 0
2, 345600, Note_on_c, 0, 100, 100
2, 345600, Note_on_c, 0, 98, 100
2, 345600, Note_on_c, 0, 88, 100
2, 345600, Note_on_c, 0, 86, 100
2, 345600, Note_on_c, 0, 75, 100
2, 345600, Note_on_c, 0, 62, 100
2, 345840, Note_on_c, 0, 100, 0
2, 345840, Note_on_c, 0, 98, 0
2, 345840, Note_on_c, 0, 88, 0
2, 345840, Note_on_c, 0, 86, 0
2, 345840, Note_on_c, 0, 75, 0
2, 345840, Note_on_c, 0, 62, 0
2, 345960, Note_on_c, 0, 108, 0
2, 346560, Note_on_c, 0, 100, 100
2, 346560, Note_on_c, 0, 98, 100
2, 346560, Note_on_c, 0, 88, 100
2, 346560, Note_on_c, 0, 86, 100
2, 346560, Note_on_c, 0, 75, 100
2, 346560, Note_on_c, 0, 62, 100
2, 346800, Note_on_c, 0, 100, 0
2, 346800, Note_on_c, 0, 98, 0
2, 346800, Note_on_c, 0, 88, 0
2, 346800, Note_on_c, 0, 86, 0
2, 346800, Note_on_c, 0, 75, 0
2, 346800, Note_on_c, 0, 62, 0
2, 348480, Note_on_c, 0, 100, 100
2, 348480, Note_on_c, 0, 98, 100
2, 348480, Note_on_c, 0, 88, 100
2, 348480, Note_on_c, 0, 86, 100
2, 348480, Note_on_c, 0, 75, 100
2, 348480, Note_on_c, 0, 62, 100
2, 348720, Note_on_c, 0, 100, 0
2, 348720, Note_on_c, 0, 98, 0
2, 348720, Note_on_c, 0, 88, 0
2, 348720, Note_on_c, 0, 86, 0
2, 348720, Note_on_c, 0, 75, 0
2, 348720, Note_on_c, 0, 62, 0
2, 350040, Note_on_c, 0, 108, 100
2, 350400, Note_on_c, 0, 100, 100
2, 350400, Note_on_c, 0, 98, 100
2, 350400, Note_on_c, 0, 88, 100
2, 350400, Note_on_c, 0, 86, 100
2, 350400, Note_on_c, 0, 75, 100
2, 350400, Note_on_c, 0, 62, 100
2, 350640, Note_on_c, 0, 100, 0
2, 350640, Note_on_c, 0, 98, 0
2, 350640, Note_on_c, 0, 88, 0
2, 350640, Note_on_c, 0, 86, 0
2, 350640, Note_on_c, 0, 75, 0
2, 350640, Note_on_c, 0, 62, 0
2, 350760, Note_on_c, 0, 108, 0
2, 351000, Note_on_c, 0, 108, 100
2, 351240, Note_on_c, 0, 108, 0
2, 351360, Note_on_c, 0, 100, 100
2, 351360, Note_on_c, 0, 98, 100
2, 351360, Note_on_c, 0, 88, 100
2, 351360, Note_on_c, 0, 86, 100
2, 351360, Note_on_c, 0, 75, 100
2, 351360, Note_on_c, 0, 62, 100
2, 351480, Note_on_c, 0, 108, 100
2, 351600, Note_on_c, 0, 100, 0
2, 351600, Note_on_c, 0, 98, 0
2, 351600, Note_on_c, 0, 88, 0
2, 351600, Note_on_c, 0, 86, 0
2, 351600, Note_on_c, 0, 75, 0
2, 351600, Note_on_c, 0, 62, 0
2, 351840, Note_on_c, 0, 100, 100
2, 351840, Note_on_c, 0, 98, 100
2, 351840, Note_on_c, 0, 88, 100
2, 351840, Note_on_c, 0, 86, 100
2, 351840, Note_on_c, 0, 75, 100
2, 352080, Note_on_c, 0, 100, 0
2, 352080, Note_on_c, 0, 98, 0
2, 352080, Note_on_c, 0, 88, 0
2, 352080, Note_on_c, 0, 86, 0
2, 352080, Note_on_c, 0, 75, 0
2, 352320, Note_on_c, 0, 100, 100
2, 352320, Note_on_c, 0, 98, 100
2, 352320, Note_on_c, 0, 88, 100
2, 352320, Note_on_c, 0, 86, 100
2, 352320, Note_on_c, 0, 75, 100
2, 352320, Note_on_c, 0, 62, 100
2, 352440, Note_on_c, 0, 108, 0
2, 352560, Note_on_c, 0, 100, 0
2, 352560, Note_on_c, 0, 98, 0
2, 352560, Note_on_c, 0, 88, 0
2, 352560, Note_on_c, 0, 86, 0
2, 352560, Note_on_c, 0, 75, 0
2, 352560, Note_on_c, 0, 62, 0
2, 352680, Note_on_c, 0, 108, 100
2, 353250, Note_on_c, 0, 103, 100
2, 353250, Note_on_c, 0, 91, 100
2, 353250, Note_on_c, 0, 79, 100
2, 353250, Note_on_c, 0, 67, 100
2, 353280, Note_on_c, 0, 99, 100
2, 353280, Note_on_c, 0, 97, 100
2, 353280, Note_on_c, 0, 87, 100
2, 353280, Note_on_c, 0, 85, 100
2, 353280, Note_on_c, 0, 74, 100
2, 353280, Note_on_c, 0, 73, 100
2, 353280, Note_on_c, 0, 61, 100
2, 353520, Note_on_c, 0, 99, 0
2, 353520, Note_on_c, 0, 97, 0
2, 353520, Note_on_c, 0, 87, 0
2, 353520, Note_on_c, 0, 85, 0
2, 353520, Note_on_c, 0, 74, 0
2, 353520, Note_on_c, 0, 73, 0
2, 353520, Note_on_c, 0, 61, 0
2, 353880, Note_on_c, 0, 108, 0
2, 354120, Note_on_c, 0, 108, 100
2, 354240, Note_on_c, 0, 99, 100
2, 354240, Note_on_c, 0, 97, 100
2, 354240, Note_on_c, 0, 87, 100
2, 354240, Note_on_c, 0, 85, 100
2, 354240, Note_on_c, 0, 74, 100
2, 354240, Note_on_c, 0, 73, 100
2, 354240, Note_on_c, 0, 61, 100
2, 354480, Note_on_c, 0, 99, 0
2, 354480, Note_on_c, 0, 97, 0
2, 354480, Note_on_c, 0, 87, 0
2, 354480, Note_on_c, 0, 85, 0
2, 354480, Note_on_c, 0, 74, 0
2, 354480, Note_on_c, 0, 73, 0
2, 354480, Note_on_c, 0, 61, 0
2, 355320, Note_on_c, 0, 108, 0
2, 355560, Note_on_c, 0, 108, 100
2, 356160, Note_on_c, 0, 99, 100
2, 356160, Note_on_c, 0, 97, 100
2, 356160, Note_on_c, 0, 87, 100
2, 356160, Note_on_c, 0, 85, 100
2, 356160, Note_on_c, 0, 74, 100
2, 356160, Note_on_c, 0, 73, 100
2, 356160, Note_on_c, 0, 61, 100
2, 356400, Note_on_c, 0, 99, 0
2, 356400, Note_on_c, 0, 97, 0
2, 356400, Note_on_c, 0, 87, 0
2, 356400, Note_on_c, 0, 85, 0
2, 356400, Note_on_c, 0, 74, 0
2, 356400, Note_on_c, 0, 73, 0
2, 356400, Note_on_c, 0, 61, 0
2, 357000, Note_on_c, 0, 108, 0
2, 357720, Note_on_c, 0, 108, 100
2, 358080, Note_on_c, 0, 99, 100
2, 358080, Note_on_c, 0, 97, 100
2, 358080, Note_on_c, 0, 87, 100
2, 358080, Note_on_c, 0, 85, 100
2, 358080, Note_on_c, 0, 74, 100
2, 358080, Note_on_c, 0, 73, 100
2, 358080, Note_on_c, 0, 61, 100
2, 358320, Note_on_c, 0, 99, 0
2, 358320, Note_on_c, 0, 97, 0
2, 358320, Note_on_c, 0, 87, 0
2, 358320, Note_on_c, 0, 85, 0
2, 358320, Note_on_c, 0, 74, 0
2, 358320, Note_on_c, 0, 73, 0
2, 358320, Note_on_c, 0, 61, 0
2, 358440, Note_on_c, 0, 108, 0
2, 358680, Note_on_c, 0, 108, 100
2, 358920, Note_on_c, 0, 108, 0
2, 359040, Note_on_c, 0, 99, 100
2, 359040, Note_on_c, 0, 97, 100
2, 359040, Note_on_c, 0, 87, 100
2, 359040, Note_on_c, 0, 85, 100
2, 359040, Note_on_c, 0, 74, 100
2, 359040, Note_on_c, 0, 73, 100
2, 359040, Note_on_c, 0, 61, 100
2, 359160, Note_on_c, 0, 108, 100
2, 359280, Note_on_c, 0, 99, 0
2, 359280, Note_on_c, 0, 97, 0
2, 359280, Note_on_c, 0, 87, 0
2, 359280, Note_on_c, 0, 85, 0
2, 359280, Note_on_c, 0, 74, 0
2, 359280, Note_on_c, 0, 73, 0
2, 359280, Note_on_c, 0, 61, 0
2, 359520, Note_on_c, 0, 99, 100
2, 359520, Note_on_c, 0, 97, 100
2, 359520, Note_on_c, 0, 87, 100
2, 359520, Note_on_c, 0, 85, 100
2, 359520, Note_on_c, 0, 74, 100
2, 359520, Note_on_c, 0, 73, 100
2, 359640, Note_on_c, 0, 108, 0
2, 359760, Note_on_c, 0, 99, 0
2, 359760, Note_on_c, 0, 97, 0
2, 359760, Note_on_c, 0, 87, 0
2, 359760, Note_on_c, 0, 85, 0
2, 359760, Note_on_c, 0, 74, 0
2, 359760, Note_on_c, 0, 73, 0
2, 360000, Note_on_c, 0, 99, 100
2, 360000, Note_on_c, 0, 97, 100
2, 360000, Note_on_c, 0, 87, 100
2, 360000, Note_on_c, 0, 85, 100
2, 360000, Note_on_c, 0, 74, 100
2, 360000, Note_on_c, 0, 73, 100
2, 360000, Note_on_c, 0, 61, 100
2, 360240, Note_on_c, 0, 99, 0
2, 360240, Note_on_c, 0, 97, 0
2, 360240, Note_on_c, 0, 87, 0
2, 360240, Note_on_c, 0, 85, 0
2, 360240, Note_on_c, 0, 74, 0
2, 360240, Note_on_c, 0, 73, 0
2, 360240, Note_on_c, 0, 61, 0
2, 360450, Note_on_c, 0, 103, 0
2, 360450, Note_on_c, 0, 91, 0
2, 360450, Note_on_c, 0, 79, 0
2, 360450, Note_on_c, 0, 67, 0
2, 360930, Note_on_c, 0, 105, 0
2, 360930, Note_on_c, 0, 93, 0
2, 360930, Note_on_c, 0, 69, 0
2, 360930, Note_on_c, 0, 81, 0
2, 360960, Note_on_c, 0, 100, 100
2, 360960, Note_on_c, 0, 98, 100
2, 360960, Note_on_c, 0, 88, 100
2, 360960, Note_on_c, 0, 86, 100
2, 360960, Note_on_c, 0, 75, 100
2, 360960, Note_on_c, 0, 62, 100
2, 361200, Note_on_c, 0, 100, 0
2, 361200, Note_on_c, 0, 98, 0
2, 361200, Note_on_c, 0, 88, 0
2, 361200, Note_on_c, 0, 86, 0
2, 361200, Note_on_c, 0, 75, 0
2, 361200, Note_on_c, 0, 62, 0
2, 362040, Note_on_c, 0, 108, 100
2, 362280, Note_on_c, 0, 108, 0
2, 362520, Note_on_c, 0, 108, 100
2, 362760, Note_on_c, 0, 108, 0
2, 362850, Note_on_c, 0, 106, 0
2, 362850, Note_on_c, 0, 94, 0
2, 362850, Note_on_c, 0, 70, 0
2, 362850, Note_on_c, 0, 82, 0
2, 362850, Note_on_c, 0, 105, 100
2, 362850, Note_on_c, 0, 93, 100
2, 362850, Note_on_c, 0, 69, 100
2, 362850, Note_on_c, 0, 81, 100
2, 362880, Note_on_c, 0, 98, 100
2, 362880, Note_on_c, 0, 97, 100
2, 362880, Note_on_c, 0, 86, 100
2, 362880, Note_on_c, 0, 85, 100
2, 362880, Note_on_c, 0, 73, 100
2, 362880, Note_on_c, 0, 61, 100
2, 363000, Note_on_c, 0, 108, 100
2, 363120, Note_on_c, 0, 98, 0
2, 363120, Note_on_c, 0, 97, 0
2, 363120, Note_on_c, 0, 86, 0
2, 363120, Note_on_c, 0, 85, 0
2, 363120, Note_on_c, 0, 73, 0
2, 363120, Note_on_c, 0, 61, 0
2, 364200, Note_on_c, 0, 108, 0
2, 364440, Note_on_c, 0, 108, 100
2, 364770, Note_on_c, 0, 105, 0
2, 364770, Note_on_c, 0, 93, 0
2, 364770, Note_on_c, 0, 69, 0
2, 364770, Note_on_c, 0, 81, 0
2, 364770, Note_on_c, 0, 106, 100
2, 364770, Note_on_c, 0, 94, 100
2, 364770, Note_on_c, 0, 70, 100
2, 364770, Note_on_c, 0, 82, 100
2, 364800, Note_on_c, 0, 99, 100
2, 364800, Note_on_c, 0, 98, 100
2, 364800, Note_on_c, 0, 87, 100
2, 364800, Note_on_c, 0, 86, 100
2, 364800, Note_on_c, 0, 74, 100
2, 364800, Note_on_c, 0, 62, 100
2, 365040, Note_on_c, 0, 99, 0
2, 365040, Note_on_c, 0, 98, 0
2, 365040, Note_on_c, 0, 87, 0
2, 365040, Note_on_c, 0, 86, 0
2, 365040, Note_on_c, 0, 74, 0
2, 365040, Note_on_c, 0, 62, 0
2, 365640, Note_on_c, 0, 108, 0
2, 366360, Note_on_c, 0, 108, 100
2, 366600, Note_on_c, 0, 108, 0
2, 366690, Note_on_c, 0, 106, 0
2, 366690, Note_on_c, 0, 94, 0
2, 366690, Note_on_c, 0, 70, 0
2, 366690, Note_on_c, 0, 82, 0
2, 366690, Note_on_c, 0, 105, 100
2, 366690, Note_on_c, 0, 93, 100
2, 366690, Note_on_c, 0, 69, 100
2, 366690, Note_on_c, 0, 81, 100
2, 366720, Note_on_c, 0, 99, 100
2, 366720, Note_on_c, 0, 97, 100
2, 366720, Note_on_c, 0, 87, 100
2, 366720, Note_on_c, 0, 85, 100
2, 366720, Note_on_c, 0, 74, 100
2, 366720, Note_on_c, 0, 73, 100
2, 366720, Note_on_c, 0, 61, 100
2, 366840, Note_on_c, 0, 108, 100
2, 366960, Note_on_c, 0, 99, 0
2, 366960, Note_on_c, 0, 97, 0
2, 366960, Note_on_c, 0, 87, 0
2, 366960, Note_on_c, 0, 85, 0
2, 366960, Note_on_c, 0, 74, 0
2, 366960, Note_on_c, 0, 73, 0
2, 366960, Note_on_c, 0, 61, 0
2, 367560, Note_on_c, 0, 108, 0
2, 367800, Note_on_c, 0, 108, 100
2, 368610, Text_t, "drum_allbeat"
2, 368610, Note_on_c, 0, 105, 0
2, 368610, Note_on_c, 0, 93, 0
2, 368610, Note_on_c, 0, 69, 0
2, 368610, Note_on_c, 0, 81, 0
2, 368610, Note_on_c, 0, 106, 100
2, 368610, Note_on_c, 0, 94, 100
2, 368610, Note_on_c, 0, 70, 100
2, 368610, Note_on_c, 0, 82, 100
2, 368640, Note_on_c, 0, 100, 100
2, 368640, Note_on_c, 0, 98, 100
2, 368640, Note_on_c, 0, 88, 100
2, 368640, Note_on_c, 0, 86, 100
2, 368640, Note_on_c, 0, 75, 100
2, 368640, Note_on_c, 0, 62, 100
2, 368880, Note_on_c, 0, 100, 0
2, 368880, Note_on_c, 0, 98, 0
2, 368880, Note_on_c, 0, 88, 0
2, 368880, Note_on_c, 0, 86, 0
2, 368880, Note_on_c, 0, 75, 0
2, 368880, Note_on_c, 0, 62, 0
2, 369600, Note_on_c, 0, 100, 100
2, 369600, Note_on_c, 0, 98, 100
2, 369600, Note_on_c, 0, 88, 100
2, 369600, Note_on_c, 0, 86, 100
2, 369600, Note_on_c, 0, 75, 100
2, 369600, Note_on_c, 0, 62, 100
2, 369840, Note_on_c, 0, 100, 0
2, 369840, Note_on_c, 0, 98, 0
2, 369840, Note_on_c, 0, 88, 0
2, 369840, Note_on_c, 0, 86, 0
2, 369840, Note_on_c, 0, 75, 0
2, 369840, Note_on_c, 0, 62, 0
2, 369960, Note_on_c, 0, 108, 0
2, 370560, Note_on_c, 0, 100, 100
2, 370560, Note_on_c, 0, 98, 100
2, 370560, Note_on_c, 0, 88, 100
2, 370560, Note_on_c, 0, 86, 100
2, 370560, Note_on_c, 0, 75, 100
2, 370560, Note_on_c, 0, 62, 100
2, 370800, Note_on_c, 0, 100, 0
2, 370800, Note_on_c, 0, 98, 0
2, 370800, Note_on_c, 0, 88, 0
2, 370800, Note_on_c, 0, 86, 0
2, 370800, Note_on_c, 0, 75, 0
2, 370800, Note_on_c, 0, 62, 0
2, 371040, Note_on_c, 0, 100, 100
2, 371040, Note_on_c, 0, 98, 100
2, 371040, Note_on_c, 0, 88, 100
2, 371040, Note_on_c, 0, 86, 100
2, 371040, Note_on_c, 0, 75, 100
2, 371280, Note_on_c, 0, 100, 0
2, 371280, Note_on_c, 0, 98, 0
2, 371280, Note_on_c, 0, 88, 0
2, 371280, Note_on_c, 0, 86, 0
2, 371280, Note_on_c, 0, 75, 0
2, 371520, Note_on_c, 0, 100, 100
2, 371520, Note_on_c, 0, 98, 100
2, 371520, Note_on_c, 0, 88, 100
2, 371520, Note_on_c, 0, 86, 100
2, 371760, Note_on_c, 0, 100, 0
2, 371760, Note_on_c, 0, 98, 0
2, 371760, Note_on_c, 0, 88, 0
2, 371760, Note_on_c, 0, 86, 0
2, 372000, Note_on_c, 0, 99, 100
2, 372000, Note_on_c, 0, 97, 100
2, 372000, Note_on_c, 0, 87, 100
2, 372000, Note_on_c, 0, 85, 100
2, 372000, Note_on_c, 0, 74, 100
2, 372000, Note_on_c, 0, 73, 100
2, 372000, Note_on_c, 0, 61, 100
2, 372240, Note_on_c, 0, 99, 0
2, 372240, Note_on_c, 0, 97, 0
2, 372240, Note_on_c, 0, 87, 0
2, 372240, Note_on_c, 0, 85, 0
2, 372240, Note_on_c, 0, 74, 0
2, 372240, Note_on_c, 0, 73, 0
2, 372240, Note_on_c, 0, 61, 0
2, 372450, Note_on_c, 0, 106, 0
2, 372450, Note_on_c, 0, 94, 0
2, 372450, Note_on_c, 0, 70, 0
2, 372450, Note_on_c, 0, 82, 0
2, 372450, Note_on_c, 0, 105, 100
2, 372450, Note_on_c, 0, 93, 100
2, 372450, Note_on_c, 0, 69, 100
2, 372450, Note_on_c, 0, 81, 100
2, 373440, Note_on_c, 0, 99, 100
2, 373440, Note_on_c, 0, 97, 100
2, 373440, Note_on_c, 0, 87, 100
2, 373440, Note_on_c, 0, 85, 100
2, 373440, Note_on_c, 0, 74, 100
2, 373440, Note_on_c, 0, 73, 100
2, 373440, Note_on_c, 0, 61, 100
2, 373680, Note_on_c, 0, 99, 0
2, 373680, Note_on_c, 0, 97, 0
2, 373680, Note_on_c, 0, 87, 0
2, 373680, Note_on_c, 0, 85, 0
2, 373680, Note_on_c, 0, 74, 0
2, 373680, Note_on_c, 0, 73, 0
2, 373680, Note_on_c, 0, 61, 0
2, 374400, Note_on_c, 0, 99, 100
2, 374400, Note_on_c, 0, 97, 100
2, 374400, Note_on_c, 0, 87, 100
2, 374400, Note_on_c, 0, 85, 100
2, 374400, Note_on_c, 0, 74, 100
2, 374400, Note_on_c, 0, 73, 100
2, 374400, Note_on_c, 0, 61, 100
2, 374640, Note_on_c, 0, 99, 0
2, 374640, Note_on_c, 0, 97, 0
2, 374640, Note_on_c, 0, 87, 0
2, 374640, Note_on_c, 0, 85, 0
2, 374640, Note_on_c, 0, 74, 0
2, 374640, Note_on_c, 0, 73, 0
2, 374640, Note_on_c, 0, 61, 0
2, 374880, Note_on_c, 0, 99, 100
2, 374880, Note_on_c, 0, 97, 100
2, 374880, Note_on_c, 0, 87, 100
2, 374880, Note_on_c, 0, 85, 100
2, 374880, Note_on_c, 0, 74, 100
2, 374880, Note_on_c, 0, 73, 100
2, 375120, Note_on_c, 0, 99, 0
2, 375120, Note_on_c, 0, 97, 0
2, 375120, Note_on_c, 0, 87, 0
2, 375120, Note_on_c, 0, 85, 0
2, 375120, Note_on_c, 0, 74, 0
2, 375120, Note_on_c, 0, 73, 0
2, 375360, Note_on_c, 0, 99, 100
2, 375360, Note_on_c, 0, 97, 100
2, 375360, Note_on_c, 0, 87, 100
2, 375360, Note_on_c, 0, 85, 100
2, 375360, Note_on_c, 0, 74, 100
2, 375360, Note_on_c, 0, 73, 100
2, 375360, Note_on_c, 0, 61, 100
2, 375600, Note_on_c, 0, 99, 0
2, 375600, Note_on_c, 0, 97, 0
2, 375600, Note_on_c, 0, 87, 0
2, 375600, Note_on_c, 0, 85, 0
2, 375600, Note_on_c, 0, 74, 0
2, 375600, Note_on_c, 0, 73, 0
2, 375600, Note_on_c, 0, 61, 0
2, 376290, Text_t, "drum_double"
2, 376290, Note_on_c, 0, 105, 0
2, 376290, Note_on_c, 0, 93, 0
2, 376290, Note_on_c, 0, 69, 0
2, 376290, Note_on_c, 0, 81, 0
2, 376290, Note_on_c, 0, 106, 100
2, 376290, Note_on_c, 0, 94, 100
2, 376290, Note_on_c, 0, 70, 100
2, 376290, Note_on_c, 0, 82, 100
2, 376320, Note_on_c, 0, 97, 100
2, 376320, Note_on_c, 0, 85, 100
2, 376320, Note_on_c, 0, 73, 100
2, 376320, Note_on_c, 0, 60, 100
2, 376560, Note_on_c, 0, 97, 0
2, 376560, Note_on_c, 0, 85, 0
2, 376560, Note_on_c, 0, 73, 0
2, 376560, Note_on_c, 0, 60, 0
2, 377760, Note_on_c, 0, 98, 100
2, 377760, Note_on_c, 0, 86, 100
2, 377760, Note_on_c, 0, 74, 100
2, 377760, Note_on_c, 0, 61, 100
2, 378000, Note_on_c, 0, 98, 0
2, 378000, Note_on_c, 0, 86, 0
2, 378000, Note_on_c, 0, 74, 0
2, 378000, Note_on_c, 0, 61, 0
2, 379200, Note_on_c, 0, 99, 100
2, 379200, Note_on_c, 0, 87, 100
2, 379200, Note_on_c, 0, 75, 100
2, 379200, Note_on_c, 0, 62, 100
2, 379440, Note_on_c, 0, 99, 0
2, 379440, Note_on_c, 0, 87, 0
2, 379440, Note_on_c, 0, 75, 0
2, 379440, Note_on_c, 0, 62, 0
2, 379680, Note_on_c, 0, 100, 100
2, 379680, Note_on_c, 0, 88, 100
2, 379920, Note_on_c, 0, 100, 0
2, 379920, Note_on_c, 0, 88, 0
2, 380130, Text_t, "sing_off"
2, 380160, Note_on_c, 0, 99, 100
2, 380160, Note_on_c, 0, 87, 100
2, 380400, Note_on_c, 0, 99, 0
2, 380400, Note_on_c, 0, 87, 0
2, 380640, Note_on_c, 0, 98, 100
2, 380640, Note_on_c, 0, 86, 100
2, 380640, Note_on_c, 0, 74, 100
2, 380880, Note_on_c, 0, 98, 0
2, 380880, Note_on_c, 0, 86, 0
2, 380880, Note_on_c, 0, 74, 0
2, 381120, Note_on_c, 0, 97, 100
2, 381120, Note_on_c, 0, 85, 100
2, 381120, Note_on_c, 0, 73, 100
2, 381120, Note_on_c, 0, 60, 100
2, 381360, Note_on_c, 0, 97, 0
2, 381360, Note_on_c, 0, 85, 0
2, 381360, Note_on_c, 0, 73, 0
2, 381360, Note_on_c, 0, 60, 0
2, 382080, Note_on_c, 0, 99, 100
2, 382080, Note_on_c, 0, 87, 100
2, 382080, Note_on_c, 0, 75, 100
2, 382080, Note_on_c, 0, 62, 100
2, 382320, Note_on_c, 0, 99, 0
2, 382320, Note_on_c, 0, 87, 0
2, 382320, Note_on_c, 0, 75, 0
2, 382320, Note_on_c, 0, 62, 0
2, 383040, Note_on_c, 0, 97, 100
2, 383040, Note_on_c, 0, 85, 100
2, 383040, Note_on_c, 0, 73, 100
2, 383280, Note_on_c, 0, 97, 0
2, 383280, Note_on_c, 0, 85, 0
2, 383280, Note_on_c, 0, 73, 0
2, 383970, Text_t, "[solo]"
2, 383970, Text_t, "solo_on"
2, 383970, Text_t, "[lighting ()]"
2, 383970, Note_on_c, 0, 106, 0
2, 383970, Note_on_c, 0, 94, 0
2, 383970, Note_on_c, 0, 70, 0
2, 383970, Note_on_c, 0, 82, 0
2, 383970, Note_on_c, 0, 105, 100
2, 383970, Note_on_c, 0, 93, 100
2, 383970, Note_on_c, 0, 69, 100
2, 383970, Note_on_c, 0, 81, 100
2, 384000, Note_on_c, 0, 96, 100
2, 384000, Note_on_c, 0, 84, 100
2, 384000, Note_on_c, 0, 72, 100
2, 384000, Note_on_c, 0, 60, 100
2, 384240, Note_on_c, 0, 96, 0
2, 384240, Note_on_c, 0, 84, 0
2, 384240, Note_on_c, 0, 72, 0
2, 384240, Note_on_c, 0, 60, 0
2, 385440, Note_on_c, 0, 97, 100
2, 385440, Note_on_c, 0, 85, 100
2, 385440, Note_on_c, 0, 73, 100
2, 385440, Note_on_c, 0, 61, 100
2, 385680, Note_on_c, 0, 97, 0
2, 385680, Note_on_c, 0, 85, 0
2, 385680, Note_on_c, 0, 73, 0
2, 385680, Note_on_c, 0, 61, 0
2, 386400, Note_on_c, 0, 98, 100
2, 386400, Note_on_c, 0, 86, 100
2, 386400, Note_on_c, 0, 74, 100
2, 386640, Note_on_c, 0, 98, 0
2, 386640, Note_on_c, 0, 86, 0
2, 386640, Note_on_c, 0, 74, 0
2, 387840, Note_on_c, 0, 99, 100
2, 387840, Note_on_c, 0, 87, 100
2, 387840, Note_on_c, 0, 75, 100
2, 387840, Note_on_c, 0, 62, 100
2, 388080, Note_on_c, 0, 62, 0
2, 390240, Note_on_c, 0, 99, 0
2, 390240, Note_on_c, 0, 87, 0
2, 390240, Note_on_c, 0, 75, 0
2, 390690, Note_on_c, 0, 105, 0
2, 390690, Note_on_c, 0, 93, 0
2, 390690, Note_on_c, 0, 69, 0
2, 390690, Note_on_c, 0, 81, 0
2, 390690, Note_on_c, 0, 106, 100
2, 390690, Note_on_c, 0, 94, 100
2, 390690, Note_on_c, 0, 70, 100
2, 390690, Note_on_c, 0, 82, 100
2, 390720, Note_on_c, 0, 96, 100
2, 390720, Note_on_c, 0, 84, 100
2, 390720, Note_on_c, 0, 72, 100
2, 390960, Note_on_c, 0, 96, 0
2, 390960, Note_on_c, 0, 84, 0
2, 390960, Note_on_c, 0, 72, 0
2, 391680, Note_on_c, 0, 97, 100
2, 391680, Note_on_c, 0, 85, 100
2, 391680, Note_on_c, 0, 73, 100
2, 391680, Note_on_c, 0, 60, 100
2, 391920, Note_on_c, 0, 97, 0
2, 391920, Note_on_c, 0, 85, 0
2, 391920, Note_on_c, 0, 73, 0
2, 391920, Note_on_c, 0, 60, 0
2, 393120, Note_on_c, 0, 98, 100
2, 393120, Note_on_c, 0, 86, 100
2, 393120, Note_on_c, 0, 74, 100
2, 393120, Note_on_c, 0, 61, 100
2, 393360, Note_on_c, 0, 98, 0
2, 393360, Note_on_c, 0, 86, 0
2, 393360, Note_on_c, 0, 74, 0
2, 393360, Note_on_c, 0, 61, 0
2, 394560, Note_on_c, 0, 97, 100
2, 394560, Note_on_c, 0, 85, 100
2, 394560, Note_on_c, 0, 73, 100
2, 394560, Note_on_c, 0, 60, 100
2, 394800, Note_on_c, 0, 97, 0
2, 394800, Note_on_c, 0, 85, 0
2, 394800, Note_on_c, 0, 73, 0
2, 394800, Note_on_c, 0, 60, 0
2, 395520, Note_on_c, 0, 99, 100
2, 395520, Note_on_c, 0, 87, 100
2, 395520, Note_on_c, 0, 75, 100
2, 395520, Note_on_c, 0, 62, 100
2, 395760, Note_on_c, 0, 99, 0
2, 395760, Note_on_c, 0, 87, 0
2, 395760, Note_on_c, 0, 75, 0
2, 395760, Note_on_c, 0, 62, 0
2, 396960, Note_on_c, 0, 98, 100
2, 396960, Note_on_c, 0, 86, 100
2, 396960, Note_on_c, 0, 74, 100
2, 396960, Note_on_c, 0, 61, 100
2, 397200, Note_on_c, 0, 98, 0
2, 397200, Note_on_c, 0, 86, 0
2, 397200, Note_on_c, 0, 74, 0
2, 397200, Note_on_c, 0, 61, 0
2, 398370, Note_on_c, 0, 106, 0
2, 398370, Note_on_c, 0, 94, 0
2, 398370, Note_on_c, 0, 70, 0
2, 398370, Note_on_c, 0, 82, 0
2, 398370, Note_on_c, 0, 105, 100
2, 398370, Note_on_c, 0, 93, 100
2, 398370, Note_on_c, 0, 69, 100
2, 398370, Note_on_c, 0, 81, 100
2, 398400, Note_on_c, 0, 97, 100
2, 398400, Note_on_c, 0, 85, 100
2, 398400, Note_on_c, 0, 72, 100
2, 398400, Note_on_c, 0, 60, 100
2, 398640, Note_on_c, 0, 97, 0
2, 398640, Note_on_c, 0, 85, 0
2, 398640, Note_on_c, 0, 72, 0
2, 398640, Note_on_c, 0, 60, 0
2, 399330, Note_on_c, 0, 103, 100
2, 399330, Note_on_c, 0, 91, 100
2, 399330, Note_on_c, 0, 79, 100
2, 399330, Note_on_c, 0, 67, 100
2, 399360, Note_on_c, 0, 98, 100
2, 399360, Note_on_c, 0, 86, 100
2, 399360, Note_on_c, 0, 73, 100
2, 399600, Note_on_c, 0, 98, 0
2, 399600, Note_on_c, 0, 86, 0
2, 399600, Note_on_c, 0, 73, 0
2, 400800, Note_on_c, 0, 99, 100
2, 400800, Note_on_c, 0, 87, 100
2, 400800, Note_on_c, 0, 74, 100
2, 400800, Note_on_c, 0, 61, 100
2, 401040, Note_on_c, 0, 99, 0
2, 401040, Note_on_c, 0, 87, 0
2, 401040, Note_on_c, 0, 74, 0
2, 401040, Note_on_c, 0, 61, 0
2, 402240, Note_on_c, 0, 98, 100
2, 402240, Note_on_c, 0, 86, 100
2, 402240, Note_on_c, 0, 73, 100
2, 402240, Note_on_c, 0, 60, 100
2, 402480, Note_on_c, 0, 98, 0
2, 402480, Note_on_c, 0, 86, 0
2, 402480, Note_on_c, 0, 73, 0
2, 402480, Note_on_c, 0, 60, 0
2, 403200, Note_on_c, 0, 100, 100
2, 403200, Note_on_c, 0, 88, 100
2, 403200, Note_on_c, 0, 75, 100
2, 403200, Note_on_c, 0, 62, 100
2, 405810, Note_on_c, 0, 103, 0
2, 405810, Note_on_c, 0, 91, 0
2, 405810, Note_on_c, 0, 79, 0
2, 405810, Note_on_c, 0, 67, 0
2, 405840, Note_on_c, 0, 100, 0
2, 405840, Note_on_c, 0, 88, 0
2, 405840, Note_on_c, 0, 75, 0
2, 405840, Note_on_c, 0, 62, 0
2, 406080, Note_on_c, 0, 99, 100
2, 406080, Note_on_c, 0, 87, 100
2, 406080, Note_on_c, 0, 74, 100
2, 406320, Note_on_c, 0, 99, 0
2, 406320, Note_on_c, 0, 87, 0
2, 406320, Note_on_c, 0, 74, 0
2, 407010, Note_on_c, 0, 105, 0
2, 407010, Note_on_c, 0, 93, 0
2, 407010, Note_on_c, 0, 69, 0
2, 407010, Note_on_c, 0, 81, 0
2, 407010, Note_on_c, 0, 106, 100
2, 407010, Note_on_c, 0, 94, 100
2, 407010, Note_on_c, 0, 70, 100
2, 407010, Note_on_c, 0, 82, 100
2, 407040, Note_on_c, 0, 97, 100
2, 407040, Note_on_c, 0, 85, 100
2, 407040, Note_on_c, 0, 73, 100
2, 407040, Note_on_c, 0, 60, 100
2, 407280, Note_on_c, 0, 97, 0
2, 407280, Note_on_c, 0, 85, 0
2, 407280, Note_on_c, 0, 73, 0
2, 407280, Note_on_c, 0, 60, 0
2, 408480, Note_on_c, 0, 98, 100
2, 408720, Note_on_c, 0, 98, 0
2, 408720, Note_on_c, 0, 99, 100
2, 408720, Note_on_c, 0, 87, 100
2, 408720, Note_on_c, 0, 75, 100
2, 408720, Note_on_c, 0, 62, 100
2, 408960, Note_on_c, 0, 99, 0
2, 408960, Note_on_c, 0, 87, 0
2, 408960, Note_on_c, 0, 75, 0
2, 408960, Note_on_c, 0, 62, 0
2, 409920, Note_on_c, 0, 99, 100
2, 409920, Note_on_c, 0, 87, 100
2, 409920, Note_on_c, 0, 75, 100
2, 409920, Note_on_c, 0, 62, 100
2, 410160, Note_on_c, 0, 99, 0
2, 410160, Note_on_c, 0, 87, 0
2, 410160, Note_on_c, 0, 75, 0
2, 410160, Note_on_c, 0, 62, 0
2, 410400, Note_on_c, 0, 100, 100
2, 410400, Note_on_c, 0, 88, 100
2, 410640, Note_on_c, 0, 100, 0
2, 410640, Note_on_c, 0, 88, 0
2, 410880, Note_on_c, 0, 99, 100
2, 410880, Note_on_c, 0, 87, 100
2, 411120, Note_on_c, 0, 99, 0
2, 411120, Note_on_c, 0, 87, 0
2, 411360, Note_on_c, 0, 98, 100
2, 411360, Note_on_c, 0, 86, 100
2, 411360, Note_on_c, 0, 74, 100
2, 411360, Note_on_c, 0, 61, 100
2, 411600, Note_on_c, 0, 98, 0
2, 411600, Note_on_c, 0, 86, 0
2, 411600, Note_on_c, 0, 74, 0
2, 411600, Note_on_c, 0, 61, 0
2, 411840, Note_on_c, 0, 97, 100
2, 411840, Note_on_c, 0, 85, 100
2, 411840, Note_on_c, 0, 73, 100
2, 412080, Note_on_c, 0, 97, 0
2, 412080, Note_on_c, 0, 85, 0
2, 412080, Note_on_c, 0, 73, 0
2, 412800, Note_on_c, 0, 98, 100
2, 412800, Note_on_c, 0, 86, 100
2, 412800, Note_on_c, 0, 74, 100
2, 412800, Note_on_c, 0, 61, 100
2, 413040, Note_on_c, 0, 98, 0
2, 413040, Note_on_c, 0, 86, 0
2, 413040, Note_on_c, 0, 74, 0
2, 413040, Note_on_c, 0, 61, 0
2, 413760, Note_on_c, 0, 97, 100
2, 413760, Note_on_c, 0, 85, 100
2, 413760, Note_on_c, 0, 73, 100
2, 414000, Note_on_c, 0, 97, 0
2, 414000, Note_on_c, 0, 85, 0
2, 414000, Note_on_c, 0, 73, 0
2, 414690, Note_on_c, 0, 106, 0
2, 414690, Note_on_c, 0, 94, 0
2, 414690, Note_on_c, 0, 70, 0
2, 414690, Note_on_c, 0, 82, 0
2, 414690, Note_on_c, 0, 105, 100
2, 414690, Note_on_c, 0, 93, 100
2, 414690, Note_on_c, 0, 69, 100
2, 414690, Note_on_c, 0, 81, 100
2, 414720, Note_on_c, 0, 84, 100
2, 414720, Note_on_c, 0, 72, 100
2, 414720, Note_on_c, 0, 60, 100
2, 414720, Note_on_c, 0, 97, 100
2, 414960, Note_on_c, 0, 84, 0
2, 414960, Note_on_c, 0, 72, 0
2, 414960, Note_on_c, 0, 60, 0
2, 414960, Note_on_c, 0, 97, 0
2, 414960, Note_on_c, 0, 96, 100
2, 415200, Note_on_c, 0, 96, 0
2, 416160, Note_on_c, 0, 97, 100
2, 416160, Note_on_c, 0, 85, 100
2, 416160, Note_on_c, 0, 73, 100
2, 416160, Note_on_c, 0, 61, 100
2, 416400, Note_on_c, 0, 97, 0
2, 416400, Note_on_c, 0, 85, 0
2, 416400, Note_on_c, 0, 73, 0
2, 416400, Note_on_c, 0, 61, 0
2, 417600, Note_on_c, 0, 98, 100
2, 417600, Note_on_c, 0, 86, 100
2, 417600, Note_on_c, 0, 74, 100
2, 417600, Note_on_c, 0, 62, 100
2, 417840, Note_on_c, 0, 98, 0
2, 417840, Note_on_c, 0, 86, 0
2, 417840, Note_on_c, 0, 74, 0
2, 418560, Note_on_c, 0, 99, 100
2, 418560, Note_on_c, 0, 87, 100
2, 418560, Note_on_c, 0, 75, 100
2, 421200, Note_on_c, 0, 99, 0
2, 421200, Note_on_c, 0, 87, 0
2, 421200, Note_on_c, 0, 75, 0
2, 421410, Note_on_c, 0, 105, 0
2, 421410, Note_on_c, 0, 93, 0
2, 421410, Note_on_c, 0, 69, 0
2, 421410, Note_on_c, 0, 81, 0
2, 421410, Note_on_c, 0, 106, 100
2, 421410, Note_on_c, 0, 94, 100
2, 421410, Note_on_c, 0, 70, 100
2, 421410, Note_on_c, 0, 82, 100
2, 421440, Note_on_c, 0, 62, 0
2, 421440, Note_on_c, 0, 98, 100
2, 421440, Note_on_c, 0, 86, 100
2, 421440, Note_on_c, 0, 74, 100
2, 421680, Note_on_c, 0, 98, 0
2, 421680, Note_on_c, 0, 86, 0
2, 421680, Note_on_c, 0, 74, 0
2, 422400, Note_on_c, 0, 99, 100
2, 422400, Note_on_c, 0, 87, 100
2, 422400, Note_on_c, 0, 75, 100
2, 422400, Note_on_c, 0, 62, 100
2, 422640, Note_on_c, 0, 99, 0
2, 422640, Note_on_c, 0, 87, 0
2, 422640, Note_on_c, 0, 75, 0
2, 422640, Note_on_c, 0, 62, 0
2, 423840, Note_on_c, 0, 99, 100
2, 423840, Note_on_c, 0, 87, 100
2, 423840, Note_on_c, 0, 75, 100
2, 423840, Note_on_c, 0, 62, 100
2, 424080, Note_on_c, 0, 99, 0
2, 424080, Note_on_c, 0, 87, 0
2, 424080, Note_on_c, 0, 75, 0
2, 424080, Note_on_c, 0, 62, 0
2, 424320, Note_on_c, 0, 100, 100
2, 424320, Note_on_c, 0, 88, 100
2, 424560, Note_on_c, 0, 100, 0
2, 424560, Note_on_c, 0, 88, 0
2, 424800, Note_on_c, 0, 99, 100
2, 424800, Note_on_c, 0, 87, 100
2, 425040, Note_on_c, 0, 99, 0
2, 425040, Note_on_c, 0, 87, 0
2, 426210, Note_on_c, 0, 103, 100
2, 426210, Note_on_c, 0, 91, 100
2, 426210, Note_on_c, 0, 79, 100
2, 426210, Note_on_c, 0, 67, 100
2, 426240, Note_on_c, 0, 98, 100
2, 426240, Note_on_c, 0, 86, 100
2, 426240, Note_on_c, 0, 74, 100
2, 426240, Note_on_c, 0, 62, 100
2, 427920, Note_on_c, 0, 98, 0
2, 427920, Note_on_c, 0, 86, 0
2, 427920, Note_on_c, 0, 74, 0
2, 427920, Note_on_c, 0, 62, 0
2, 428160, Note_on_c, 0, 97, 100
2, 428160, Note_on_c, 0, 85, 100
2, 428160, Note_on_c, 0, 73, 100
2, 428160, Note_on_c, 0, 61, 100
2, 429840, Note_on_c, 0, 97, 0
2, 429840, Note_on_c, 0, 85, 0
2, 429840, Note_on_c, 0, 73, 0
2, 429840, Note_on_c, 0, 61, 0
2, 430050, Note_on_c, 0, 106, 0
2, 430050, Note_on_c, 0, 94, 0
2, 430050, Note_on_c, 0, 70, 0
2, 430050, Note_on_c, 0, 82, 0
2, 430050, Note_on_c, 0, 103, 0
2, 430050, Note_on_c, 0, 91, 0
2, 430050, Note_on_c, 0, 79, 0
2, 430050, Note_on_c, 0, 67, 0
2, 430050, Note_on_c, 0, 105, 100
2, 430050, Note_on_c, 0, 93, 100
2, 430050, Note_on_c, 0, 69, 100
2, 430050, Note_on_c, 0, 81, 100
2, 430080, Note_on_c, 0, 99, 100
2, 430080, Note_on_c, 0, 87, 100
2, 430080, Note_on_c, 0, 74, 100
2, 430080, Note_on_c, 0, 62, 100
2, 430320, Note_on_c, 0, 99, 0
2, 430320, Note_on_c, 0, 87, 0
2, 430320, Note_on_c, 0, 74, 0
2, 430320, Note_on_c, 0, 62, 0
2, 430560, Note_on_c, 0, 100, 100
2, 430560, Note_on_c, 0, 88, 100
2, 430800, Note_on_c, 0, 100, 0
2, 430800, Note_on_c, 0, 88, 0
2, 431520, Note_on_c, 0, 99, 100
2, 431520, Note_on_c, 0, 87, 100
2, 431520, Note_on_c, 0, 74, 100
2, 431520, Note_on_c, 0, 62, 100
2, 431760, Note_on_c, 0, 99, 0
2, 431760, Note_on_c, 0, 87, 0
2, 431760, Note_on_c, 0, 74, 0
2, 431760, Note_on_c, 0, 62, 0
2, 432960, Note_on_c, 0, 99, 100
2, 432960, Note_on_c, 0, 87, 100
2, 432960, Note_on_c, 0, 74, 100
2, 432960, Note_on_c, 0, 62, 100
2, 433200, Note_on_c, 0, 99, 0
2, 433200, Note_on_c, 0, 87, 0
2, 433200, Note_on_c, 0, 74, 0
2, 433200, Note_on_c, 0, 62, 0
2, 433440, Note_on_c, 0, 100, 100
2, 433440, Note_on_c, 0, 88, 100
2, 433680, Note_on_c, 0, 100, 0
2, 433680, Note_on_c, 0, 88, 0
2, 433920, Note_on_c, 0, 99, 100
2, 433920, Note_on_c, 0, 87, 100
2, 433920, Note_on_c, 0, 74, 100
2, 433920, Note_on_c, 0, 62, 100
2, 435600, Note_on_c, 0, 99, 0
2, 435600, Note_on_c, 0, 87, 0
2, 435600, Note_on_c, 0, 74, 0
2, 435600, Note_on_c, 0, 62, 0
2, 435840, Note_on_c, 0, 98, 100
2, 435840, Note_on_c, 0, 86, 100
2, 435840, Note_on_c, 0, 73, 100
2, 435840, Note_on_c, 0, 61, 100
2, 436080, Note_on_c, 0, 98, 0
2, 436080, Note_on_c, 0, 86, 0
2, 436080, Note_on_c, 0, 73, 0
2, 436080, Note_on_c, 0, 61, 0
2, 436800, Note_on_c, 0, 96, 100
2, 436800, Note_on_c, 0, 84, 100
2, 436800, Note_on_c, 0, 72, 100
2, 436800, Note_on_c, 0, 60, 100
2, 437040, Note_on_c, 0, 96, 0
2, 437040, Note_on_c, 0, 84, 0
2, 437040, Note_on_c, 0, 72, 0
2, 437040, Note_on_c, 0, 60, 0
2, 437760, Note_on_c, 0, 97, 100
2, 437760, Note_on_c, 0, 85, 100
2, 437760, Note_on_c, 0, 73, 100
2, 437760, Note_on_c, 0, 61, 100
2, 440610, Note_on_c, 0, 105, 0
2, 440610, Note_on_c, 0, 93, 0
2, 440610, Note_on_c, 0, 69, 0
2, 440610, Note_on_c, 0, 81, 0
2, 440640, Note_on_c, 0, 97, 0
2, 440640, Note_on_c, 0, 85, 0
2, 440640, Note_on_c, 0, 73, 0
2, 440640, Note_on_c, 0, 61, 0
2, 441570, Note_on_c, 0, 106, 100
2, 441570, Note_on_c, 0, 94, 100
2, 441570, Note_on_c, 0, 70, 100
2, 441570, Note_on_c, 0, 82, 100
2, 441600, Note_on_c, 0, 97, 100
2, 441600, Note_on_c, 0, 99, 100
2, 441600, Note_on_c, 0, 85, 100
2, 441600, Note_on_c, 0, 87, 100
2, 441600, Note_on_c, 0, 73, 100
2, 441600, Note_on_c, 0, 74, 100
2, 441600, Note_on_c, 0, 61, 100
2, 441840, Note_on_c, 0, 97, 0
2, 441840, Note_on_c, 0, 99, 0
2, 441840, Note_on_c, 0, 85, 0
2, 441840, Note_on_c, 0, 87, 0
2, 441840, Note_on_c, 0, 73, 0
2, 441840, Note_on_c, 0, 74, 0
2, 441840, Note_on_c, 0, 61, 0
2, 443040, Note_on_c, 0, 99, 100
2, 443040, Note_on_c, 0, 98, 100
2, 443040, Note_on_c, 0, 87, 100
2, 443040, Note_on_c, 0, 86, 100
2, 443040, Note_on_c, 0, 74, 100
2, 443040, Note_on_c, 0, 62, 100
2, 443280, Note_on_c, 0, 99, 0
2, 443280, Note_on_c, 0, 98, 0
2, 443280, Note_on_c, 0, 87, 0
2, 443280, Note_on_c, 0, 86, 0
2, 443280, Note_on_c, 0, 74, 0
2, 443280, Note_on_c, 0, 62, 0
2, 444480, Note_on_c, 0, 96, 100
2, 444480, Note_on_c, 0, 97, 100
2, 444480, Note_on_c, 0, 84, 100
2, 444480, Note_on_c, 0, 85, 100
2, 444480, Note_on_c, 0, 72, 100
2, 444480, Note_on_c, 0, 60, 100
2, 444720, Note_on_c, 0, 96, 0
2, 444720, Note_on_c, 0, 97, 0
2, 444720, Note_on_c, 0, 84, 0
2, 444720, Note_on_c, 0, 85, 0
2, 444720, Note_on_c, 0, 72, 0
2, 444720, Note_on_c, 0, 60, 0
2, 445410, Text_t, "solo_off"
2, 445440, Note_on_c, 0, 96, 100
2, 445440, Note_on_c, 0, 98, 100
2, 445440, Note_on_c, 0, 84, 100
2, 445440, Note_on_c, 0, 86, 100
2, 445440, Note_on_c, 0, 72, 100
2, 445440, Note_on_c, 0, 73, 100
2, 445440, Note_on_c, 0, 60, 100
2, 445680, Note_on_c, 0, 96, 0
2, 445680, Note_on_c, 0, 98, 0
2, 445680, Note_on_c, 0, 84, 0
2, 445680, Note_on_c, 0, 86, 0
2, 445680, Note_on_c, 0, 72, 0
2, 445680, Note_on_c, 0, 73, 0
2, 445680, Note_on_c, 0, 60, 0
2, 446880, Note_on_c, 0, 96, 100
2, 446880, Note_on_c, 0, 98, 100
2, 446880, Note_on_c, 0, 84, 100
2, 446880, Note_on_c, 0, 86, 100
2, 446880, Note_on_c, 0, 72, 100
2, 446880, Note_on_c, 0, 73, 100
2, 446880, Note_on_c, 0, 60, 100
2, 447120, Note_on_c, 0, 96, 0
2, 447120, Note_on_c, 0, 98, 0
2, 447120, Note_on_c, 0, 84, 0
2, 447120, Note_on_c, 0, 86, 0
2, 447120, Note_on_c, 0, 72, 0
2, 447120, Note_on_c, 0, 73, 0
2, 447120, Note_on_c, 0, 60, 0
2, 448320, Note_on_c, 0, 96, 100
2, 448320, Note_on_c, 0, 98, 100
2, 448320, Note_on_c, 0, 84, 100
2, 448320, Note_on_c, 0, 86, 100
2, 448320, Note_on_c, 0, 72, 100
2, 448320, Note_on_c, 0, 73, 100
2, 448320, Note_on_c, 0, 60, 100
2, 448560, Note_on_c, 0, 96, 0
2, 448560, Note_on_c, 0, 98, 0
2, 448560, Note_on_c, 0, 84, 0
2, 448560, Note_on_c, 0, 86, 0
2, 448560, Note_on_c, 0, 72, 0
2, 448560, Note_on_c, 0, 73, 0
2, 448560, Note_on_c, 0, 60, 0
2, 449280, Note_on_c, 0, 97, 100
2, 449280, Note_on_c, 0, 98, 100
2, 449280, Note_on_c, 0, 85, 100
2, 449280, Note_on_c, 0, 86, 100
2, 449280, Note_on_c, 0, 73, 100
2, 449280, Note_on_c, 0, 61, 100
2, 449520, Note_on_c, 0, 97, 0
2, 449520, Note_on_c, 0, 98, 0
2, 449520, Note_on_c, 0, 85, 0
2, 449520, Note_on_c, 0, 86, 0
2, 449520, Note_on_c, 0, 73, 0
2, 449520, Note_on_c, 0, 61, 0
2, 450720, Note_on_c, 0, 97, 100
2, 450720, Note_on_c, 0, 98, 100
2, 450720, Note_on_c, 0, 85, 100
2, 450720, Note_on_c, 0, 86, 100
2, 450720, Note_on_c, 0, 73, 100
2, 450720, Note_on_c, 0, 61, 100
2, 450960, Note_on_c, 0, 97, 0
2, 450960, Note_on_c, 0, 98, 0
2, 450960, Note_on_c, 0, 85, 0
2, 450960, Note_on_c, 0, 86, 0
2, 450960, Note_on_c, 0, 73, 0
2, 450960, Note_on_c, 0, 61, 0
2, 452160, Note_on_c, 0, 97, 100
2, 452160, Note_on_c, 0, 98, 100
2, 452160, Note_on_c, 0, 85, 100
2, 452160, Note_on_c, 0, 86, 100
2, 452160, Note_on_c, 0, 73, 100
2, 452160, Note_on_c, 0, 61, 100
2, 452400, Note_on_c, 0, 97, 0
2, 452400, Note_on_c, 0, 98, 0
2, 452400, Note_on_c, 0, 85, 0
2, 452400, Note_on_c, 0, 86, 0
2, 452400, Note_on_c, 0, 73, 0
2, 452400, Note_on_c, 0, 61, 0
2, 453090, Note_on_c, 0, 106, 0
2, 453090, Note_on_c, 0, 94, 0
2, 453090, Note_on_c, 0, 70, 0
2, 453090, Note_on_c, 0, 82, 0
2, 453090, Note_on_c, 0, 105, 100
2, 453090, Note_on_c, 0, 93, 100
2, 453090, Note_on_c, 0, 69, 100
2, 453090, Note_on_c, 0, 81, 100
2, 454080, Note_on_c, 0, 99, 100
2, 454080, Note_on_c, 0, 87, 100
2, 454080, Note_on_c, 0, 74, 100
2, 454080, Note_on_c, 0, 61, 100
2, 456000, Note_on_c, 0, 99, 0
2, 456000, Note_on_c, 0, 87, 0
2, 456000, Note_on_c, 0, 74, 0
2, 456000, Note_on_c, 0, 61, 0
2, 456960, Note_on_c, 0, 99, 100
2, 456960, Note_on_c, 0, 87, 100
2, 456960, Note_on_c, 0, 74, 100
2, 456960, Note_on_c, 0, 61, 100
2, 457200, Note_on_c, 0, 99, 0
2, 457200, Note_on_c, 0, 87, 0
2, 457200, Note_on_c, 0, 74, 0
2, 457200, Note_on_c, 0, 61, 0
2, 458400, Note_on_c, 0, 97, 100
2, 458400, Note_on_c, 0, 85, 100
2, 458400, Note_on_c, 0, 72, 100
2, 458400, Note_on_c, 0, 60, 100
2, 458640, Note_on_c, 0, 97, 0
2, 458640, Note_on_c, 0, 85, 0
2, 458640, Note_on_c, 0, 72, 0
2, 458640, Note_on_c, 0, 60, 0
2, 459840, Note_on_c, 0, 99, 100
2, 459840, Note_on_c, 0, 87, 100
2, 459840, Note_on_c, 0, 74, 100
2, 459840, Note_on_c, 0, 61, 100
2, 460080, Note_on_c, 0, 99, 0
2, 460080, Note_on_c, 0, 87, 0
2, 460080, Note_on_c, 0, 74, 0
2, 460080, Note_on_c, 0, 61, 0
2, 460800, Note_on_c, 0, 100, 100
2, 460800, Note_on_c, 0, 88, 100
2, 460800, Note_on_c, 0, 75, 100
2, 460800, Note_on_c, 0, 62, 100
2, 463680, Note_on_c, 0, 100, 0
2, 463680, Note_on_c, 0, 88, 0
2, 463680, Note_on_c, 0, 75, 0
2, 463680, Note_on_c, 0, 62, 0
2, 464640, Note_on_c, 0, 99, 100
2, 464640, Note_on_c, 0, 87, 100
2, 464640, Note_on_c, 0, 75, 100
2, 464640, Note_on_c, 0, 62, 100
2, 464880, Note_on_c, 0, 99, 0
2, 464880, Note_on_c, 0, 87, 0
2, 464880, Note_on_c, 0, 75, 0
2, 464880, Note_on_c, 0, 62, 0
2, 466080, Note_on_c, 0, 98, 100
2, 466080, Note_on_c, 0, 86, 100
2, 466080, Note_on_c, 0, 74, 100
2, 466080, Note_on_c, 0, 61, 100
2, 466320, Note_on_c, 0, 98, 0
2, 466320, Note_on_c, 0, 86, 0
2, 466320, Note_on_c, 0, 74, 0
2, 466320, Note_on_c, 0, 61, 0
2, 467520, Note_on_c, 0, 97, 100
2, 467520, Note_on_c, 0, 85, 100
2, 467520, Note_on_c, 0, 73, 100
2, 467520, Note_on_c, 0, 60, 100
2, 467760, Note_on_c, 0, 97, 0
2, 467760, Note_on_c, 0, 85, 0
2, 467760, Note_on_c, 0, 73, 0
2, 467760, Note_on_c, 0, 60, 0
2, 468450, Note_on_c, 0, 105, 0
2, 468450, Note_on_c, 0, 93, 0
2, 468450, Note_on_c, 0, 69, 0
2, 468450, Note_on_c, 0, 81, 0
2, 468450, Note_on_c, 0, 106, 100
2, 468450, Note_on_c, 0, 94, 100
2, 468450, Note_on_c, 0, 70, 100
2, 468450, Note_on_c, 0, 82, 100
2, 469440, Note_on_c, 0, 96, 100
2, 469440, Note_on_c, 0, 84, 100
2, 469440, Note_on_c, 0, 72, 100
2, 469440, Note_on_c, 0, 60, 100
2, 470880, Note_on_c, 0, 96, 0
2, 470880, Note_on_c, 0, 84, 0
2, 470880, Note_on_c, 0, 72, 0
2, 470880, Note_on_c, 0, 60, 0
2, 472320, Note_on_c, 0, 99, 100
2, 472320, Note_on_c, 0, 87, 100
2, 472320, Note_on_c, 0, 74, 100
2, 472320, Note_on_c, 0, 61, 100
2, 472560, Note_on_c, 0, 99, 0
2, 472560, Note_on_c, 0, 87, 0
2, 472560, Note_on_c, 0, 74, 0
2, 472560, Note_on_c, 0, 61, 0
2, 473760, Note_on_c, 0, 97, 100
2, 473760, Note_on_c, 0, 85, 100
2, 473760, Note_on_c, 0, 72, 100
2, 473760, Note_on_c, 0, 60, 100
2, 474000, Note_on_c, 0, 97, 0
2, 474000, Note_on_c, 0, 85, 0
2, 474000, Note_on_c, 0, 72, 0
2, 474000, Note_on_c, 0, 60, 0
2, 475200, Note_on_c, 0, 99, 100
2, 475200, Note_on_c, 0, 87, 100
2, 475200, Note_on_c, 0, 74, 100
2, 475200, Note_on_c, 0, 61, 100
2, 475440, Note_on_c, 0, 99, 0
2, 475440, Note_on_c, 0, 87, 0
2, 475440, Note_on_c, 0, 74, 0
2, 475440, Note_on_c, 0, 61, 0
2, 476160, Note_on_c, 0, 100, 100
2, 476160, Note_on_c, 0, 88, 100
2, 476160, Note_on_c, 0, 75, 100
2, 476160, Note_on_c, 0, 62, 100
2, 478560, Note_on_c, 0, 100, 0
2, 478560, Note_on_c, 0, 88, 0
2, 478560, Note_on_c, 0, 75, 0
2, 478560, Note_on_c, 0, 62, 0
2, 480000, Note_on_c, 0, 99, 100
2, 480000, Note_on_c, 0, 87, 100
2, 480000, Note_on_c, 0, 75, 100
2, 480000, Note_on_c, 0, 62, 100
2, 480240, Note_on_c, 0, 99, 0
2, 480240, Note_on_c, 0, 87, 0
2, 480240, Note_on_c, 0, 75, 0
2, 480240, Note_on_c, 0, 62, 0
2, 481440, Note_on_c, 0, 98, 100
2, 481440, Note_on_c, 0, 86, 100
2, 481440, Note_on_c, 0, 74, 100
2, 481440, Note_on_c, 0, 61, 100
2, 481680, Note_on_c, 0, 98, 0
2, 481680, Note_on_c, 0, 86, 0
2, 481680, Note_on_c, 0, 74, 0
2, 481680, Note_on_c, 0, 61, 0
2, 482880, Note_on_c, 0, 97, 100
2, 482880, Note_on_c, 0, 85, 100
2, 482880, Note_on_c, 0, 73, 100
2, 482880, Note_on_c, 0, 60, 100
2, 483120, Note_on_c, 0, 97, 0
2, 483120, Note_on_c, 0, 85, 0
2, 483120, Note_on_c, 0, 73, 0
2, 483120, Note_on_c, 0, 60, 0
2, 483840, Note_on_c, 0, 96, 100
2, 483840, Note_on_c, 0, 84, 100
2, 483840, Note_on_c, 0, 72, 100
2, 483840, Note_on_c, 0, 60, 100
2, 486210, Note_on_c, 0, 106, 0
2, 486210, Note_on_c, 0, 94, 0
2, 486210, Note_on_c, 0, 70, 0
2, 486210, Note_on_c, 0, 82, 0
2, 486240, Note_on_c, 0, 96, 0
2, 486240, Note_on_c, 0, 84, 0
2, 486240, Note_on_c, 0, 72, 0
2, 486240, Note_on_c, 0, 60, 0
2, 487650, Note_on_c, 0, 105, 100
2, 487650, Note_on_c, 0, 93, 100
2, 487650, Note_on_c, 0, 69, 100
2, 487650, Note_on_c, 0, 81, 100
2, 487680, Note_on_c, 0, 99, 100
2, 487680, Note_on_c, 0, 87, 100
2, 487680, Note_on_c, 0, 74, 100
2, 487680, Note_on_c, 0, 61, 100
2, 487920, Note_on_c, 0, 99, 0
2, 487920, Note_on_c, 0, 87, 0
2, 487920, Note_on_c, 0, 74, 0
2, 487920, Note_on_c, 0, 61, 0
2, 489120, Note_on_c, 0, 97, 100
2, 489120, Note_on_c, 0, 85, 100
2, 489120, Note_on_c, 0, 72, 100
2, 489120, Note_on_c, 0, 60, 100
2, 489360, Note_on_c, 0, 97, 0
2, 489360, Note_on_c, 0, 85, 0
2, 489360, Note_on_c, 0, 72, 0
2, 489360, Note_on_c, 0, 60, 0
2, 490560, Note_on_c, 0, 99, 100
2, 490560, Note_on_c, 0, 87, 100
2, 490560, Note_on_c, 0, 74, 100
2, 490560, Note_on_c, 0, 61, 100
2, 490800, Note_on_c, 0, 99, 0
2, 490800, Note_on_c, 0, 87, 0
2, 490800, Note_on_c, 0, 74, 0
2, 490800, Note_on_c, 0, 61, 0
2, 491520, Note_on_c, 0, 100, 100
2, 491520, Note_on_c, 0, 88, 100
2, 491520, Note_on_c, 0, 75, 100
2, 491520, Note_on_c, 0, 62, 100
2, 493920, Note_on_c, 0, 100, 0
2, 493920, Note_on_c, 0, 88, 0
2, 493920, Note_on_c, 0, 75, 0
2, 493920, Note_on_c, 0, 62, 0
2, 495330, Note_on_c, 0, 103, 100
2, 495330, Note_on_c, 0, 91, 100
2, 495330, Note_on_c, 0, 79, 100
2, 495330, Note_on_c, 0, 67, 100
2, 495330, Note_on_c, 0, 106, 100
2, 495330, Note_on_c, 0, 94, 100
2, 495330, Note_on_c, 0, 70, 100
2, 495330, Note_on_c, 0, 82, 100
2, 495360, Note_on_c, 0, 100, 100
2, 495360, Note_on_c, 0, 99, 100
2, 495360, Note_on_c, 0, 88, 100
2, 495360, Note_on_c, 0, 87, 100
2, 495360, Note_on_c, 0, 75, 100
2, 495360, Note_on_c, 0, 62, 100
2, 497280, Note_on_c, 0, 100, 0
2, 497280, Note_on_c, 0, 99, 0
2, 497280, Note_on_c, 0, 88, 0
2, 497280, Note_on_c, 0, 87, 0
2, 497280, Note_on_c, 0, 75, 0
2, 498240, Note_on_c, 0, 98, 100
2, 498240, Note_on_c, 0, 86, 100
2, 498240, Note_on_c, 0, 73, 100
2, 498450, Note_on_c, 0, 103, 0
2, 498450, Note_on_c, 0, 91, 0
2, 498450, Note_on_c, 0, 79, 0
2, 498450, Note_on_c, 0, 67, 0
2, 498480, Note_on_c, 0, 62, 0
2, 498480, Note_on_c, 0, 98, 0
2, 498480, Note_on_c, 0, 86, 0
2, 498480, Note_on_c, 0, 73, 0
2, 499170, Note_on_c, 0, 105, 0
2, 499170, Note_on_c, 0, 93, 0
2, 499170, Note_on_c, 0, 69, 0
2, 499170, Note_on_c, 0, 81, 0
2, 499200, Note_on_c, 0, 99, 100
2, 499200, Note_on_c, 0, 87, 100
2, 499200, Note_on_c, 0, 74, 100
2, 499200, Note_on_c, 0, 61, 100
2, 499440, Note_on_c, 0, 61, 0
2, 499800, Note_on_c, 0, 108, 100
2, 500280, Note_on_c, 0, 108, 0
2, 500400, Note_on_c, 0, 99, 0
2, 500400, Note_on_c, 0, 87, 0
2, 500400, Note_on_c, 0, 74, 0
2, 500640, Note_on_c, 0, 100, 100
2, 500640, Note_on_c, 0, 88, 100
2, 500640, Note_on_c, 0, 75, 100
2, 500640, Note_on_c, 0, 62, 100
2, 500760, Note_on_c, 0, 108, 100
2, 500880, Note_on_c, 0, 62, 0
2, 501240, Note_on_c, 0, 108, 0
2, 501720, Note_on_c, 0, 108, 100
2, 501840, Note_on_c, 0, 100, 0
2, 501840, Note_on_c, 0, 88, 0
2, 501840, Note_on_c, 0, 75, 0
2, 502080, Note_on_c, 0, 87, 100
2, 502080, Note_on_c, 0, 74, 100
2, 502080, Note_on_c, 0, 61, 100
2, 502080, Note_on_c, 0, 98, 100
2, 502320, Note_on_c, 0, 61, 0
2, 502320, Note_on_c, 0, 98, 0
2, 502320, Note_on_c, 0, 99, 100
2, 502440, Note_on_c, 0, 108, 0
2, 502680, Note_on_c, 0, 108, 100
2, 502920, Note_on_c, 0, 108, 0
2, 503160, Note_on_c, 0, 108, 100
2, 503760, Note_on_c, 0, 87, 0
2, 503760, Note_on_c, 0, 74, 0
2, 503760, Note_on_c, 0, 99, 0
2, 503880, Note_on_c, 0, 108, 0
2, 504000, Note_on_c, 0, 100, 100
2, 504000, Note_on_c, 0, 88, 100
2, 504000, Note_on_c, 0, 75, 100
2, 504000, Note_on_c, 0, 62, 100
2, 504120, Note_on_c, 0, 108, 100
2, 504240, Note_on_c, 0, 62, 0
2, 504720, Note_on_c, 0, 100, 0
2, 504720, Note_on_c, 0, 88, 0
2, 504720, Note_on_c, 0, 75, 0
2, 504840, Note_on_c, 0, 108, 0
2, 504960, Note_on_c, 0, 99, 100
2, 504960, Note_on_c, 0, 87, 100
2, 504960, Note_on_c, 0, 74, 100
2, 504960, Note_on_c, 0, 61, 100
2, 505080, Note_on_c, 0, 108, 100
2, 505200, Note_on_c, 0, 61, 0
2, 505800, Note_on_c, 0, 108, 0
2, 506040, Note_on_c, 0, 108, 100
2, 506638, Note_on_c, 0, 99, 0
2, 506638, Note_on_c, 0, 87, 0
2, 506638, Note_on_c, 0, 74, 0
2, 506850, Text_t, "[verse]"
2, 506850, Text_t, "sing_on"
2, 506880, Note_on_c, 0, 99, 100
2, 506880, Note_on_c, 0, 87, 100
2, 506880, Note_on_c, 0, 74, 100
2, 506880, Note_on_c, 0, 61, 100
2, 507120, Note_on_c, 0, 61, 0
2, 507240, Note_on_c, 0, 108, 0
2, 507480, Note_on_c, 0, 108, 100
2, 508080, Note_on_c, 0, 99, 0
2, 508080, Note_on_c, 0, 87, 0
2, 508080, Note_on_c, 0, 74, 0
2, 508200, Note_on_c, 0, 108, 0
2, 508320, Note_on_c, 0, 100, 100
2, 508320, Note_on_c, 0, 88, 100
2, 508320, Note_on_c, 0, 75, 100
2, 508320, Note_on_c, 0, 62, 100
2, 508440, Note_on_c, 0, 108, 100
2, 508560, Note_on_c, 0, 62, 0
2, 508680, Note_on_c, 0, 108, 0
2, 508920, Note_on_c, 0, 108, 100
2, 509520, Note_on_c, 0, 100, 0
2, 509520, Note_on_c, 0, 88, 0
2, 509520, Note_on_c, 0, 75, 0
2, 509760, Note_on_c, 0, 87, 100
2, 509760, Note_on_c, 0, 74, 100
2, 509760, Note_on_c, 0, 61, 100
2, 509760, Note_on_c, 0, 98, 100
2, 509880, Note_on_c, 0, 108, 0
2, 510000, Note_on_c, 0, 61, 0
2, 510000, Note_on_c, 0, 98, 0
2, 510000, Note_on_c, 0, 99, 100
2, 510360, Note_on_c, 0, 108, 100
2, 511080, Note_on_c, 0, 108, 0
2, 511320, Note_on_c, 0, 108, 100
2, 511440, Note_on_c, 0, 87, 0
2, 511440, Note_on_c, 0, 74, 0
2, 511440, Note_on_c, 0, 99, 0
2, 511680, Note_on_c, 0, 100, 100
2, 511680, Note_on_c, 0, 88, 100
2, 511680, Note_on_c, 0, 75, 100
2, 511680, Note_on_c, 0, 62, 100
2, 511800, Note_on_c, 0, 108, 0
2, 511920, Note_on_c, 0, 62, 0
2, 512280, Note_on_c, 0, 108, 100
2, 512400, Note_on_c, 0, 100, 0
2, 512400, Note_on_c, 0, 88, 0
2, 512400, Note_on_c, 0, 75, 0
2, 512520, Note_on_c, 0, 108, 0
2, 512640, Note_on_c, 0, 99, 100
2, 512640, Note_on_c, 0, 87, 100
2, 512640, Note_on_c, 0, 74, 100
2, 512640, Note_on_c, 0, 61, 100
2, 512760, Note_on_c, 0, 108, 100
2, 512880, Note_on_c, 0, 61, 0
2, 513720, Note_on_c, 0, 108, 0
2, 514200, Note_on_c, 0, 108, 100
2, 514320, Note_on_c, 0, 99, 0
2, 514320, Note_on_c, 0, 87, 0
2, 514320, Note_on_c, 0, 74, 0
2, 514530, Note_on_c, 0, 106, 0
2, 514530, Note_on_c, 0, 94, 0
2, 514530, Note_on_c, 0, 70, 0
2, 514530, Note_on_c, 0, 82, 0
2, 514530, Note_on_c, 0, 105, 100
2, 514530, Note_on_c, 0, 93, 100
2, 514530, Note_on_c, 0, 69, 100
2, 514530, Note_on_c, 0, 81, 100
2, 514560, Note_on_c, 0, 98, 100
2, 514560, Note_on_c, 0, 86, 100
2, 514560, Note_on_c, 0, 73, 100
2, 514560, Note_on_c, 0, 60, 100
2, 514800, Note_on_c, 0, 60, 0
2, 515400, Note_on_c, 0, 108, 0
2, 515760, Note_on_c, 0, 98, 0
2, 515760, Note_on_c, 0, 86, 0
2, 515760, Note_on_c, 0, 73, 0
2, 516000, Note_on_c, 0, 100, 100
2, 516000, Note_on_c, 0, 88, 100
2, 516000, Note_on_c, 0, 75, 100
2, 516000, Note_on_c, 0, 62, 100
2, 516240, Note_on_c, 0, 62, 0
2, 517200, Note_on_c, 0, 100, 0
2, 517200, Note_on_c, 0, 88, 0
2, 517200, Note_on_c, 0, 75, 0
2, 517440, Note_on_c, 0, 98, 100
2, 517440, Note_on_c, 0, 86, 100
2, 517440, Note_on_c, 0, 73, 100
2, 517440, Note_on_c, 0, 60, 100
2, 517680, Note_on_c, 0, 60, 0
2, 519120, Note_on_c, 0, 98, 0
2, 519120, Note_on_c, 0, 86, 0
2, 519120, Note_on_c, 0, 73, 0
2, 519360, Note_on_c, 0, 100, 100
2, 519360, Note_on_c, 0, 88, 100
2, 519360, Note_on_c, 0, 75, 100
2, 519360, Note_on_c, 0, 62, 100
2, 519600, Note_on_c, 0, 62, 0
2, 520080, Note_on_c, 0, 100, 0
2, 520080, Note_on_c, 0, 88, 0
2, 520080, Note_on_c, 0, 75, 0
2, 520320, Note_on_c, 0, 98, 100
2, 520320, Note_on_c, 0, 86, 100
2, 520320, Note_on_c, 0, 73, 100
2, 520320, Note_on_c, 0, 60, 100
2, 520560, Note_on_c, 0, 60, 0
2, 521040, Note_on_c, 0, 98, 0
2, 521040, Note_on_c, 0, 86, 0
2, 521040, Note_on_c, 0, 73, 0
2, 521280, Note_on_c, 0, 100, 100
2, 521280, Note_on_c, 0, 88, 100
2, 521280, Note_on_c, 0, 75, 100
2, 521280, Note_on_c, 0, 62, 100
2, 521520, Note_on_c, 0, 62, 0
2, 522000, Note_on_c, 0, 100, 0
2, 522000, Note_on_c, 0, 88, 0
2, 522000, Note_on_c, 0, 75, 0
2, 522210, Text_t, "sing_off"
2, 522210, Note_on_c, 0, 105, 0
2, 522210, Note_on_c, 0, 93, 0
2, 522210, Note_on_c, 0, 69, 0
2, 522210, Note_on_c, 0, 81, 0
2, 522210, Note_on_c, 0, 106, 100
2, 522210, Note_on_c, 0, 94, 100
2, 522210, Note_on_c, 0, 70, 100
2, 522210, Note_on_c, 0, 82, 100
2, 522240, Note_on_c, 0, 98, 100
2, 522240, Note_on_c, 0, 86, 100
2, 522240, Note_on_c, 0, 73, 100
2, 522240, Note_on_c, 0, 60, 100
2, 522480, Note_on_c, 0, 60, 0
2, 523440, Note_on_c, 0, 98, 0
2, 523440, Note_on_c, 0, 86, 0
2, 523440, Note_on_c, 0, 73, 0
2, 523680, Note_on_c, 0, 100, 100
2, 523680, Note_on_c, 0, 88, 100
2, 523680, Note_on_c, 0, 75, 100
2, 523680, Note_on_c, 0, 62, 100
2, 523920, Note_on_c, 0, 62, 0
2, 524880, Note_on_c, 0, 100, 0
2, 524880, Note_on_c, 0, 88, 0
2, 524880, Note_on_c, 0, 75, 0
2, 525120, Note_on_c, 0, 98, 100
2, 525120, Note_on_c, 0, 86, 100
2, 525120, Note_on_c, 0, 73, 100
2, 525120, Note_on_c, 0, 60, 100
2, 525360, Note_on_c, 0, 60, 0
2, 526800, Note_on_c, 0, 98, 0
2, 526800, Note_on_c, 0, 86, 0
2, 526800, Note_on_c, 0, 73, 0
2, 527040, Note_on_c, 0, 100, 100
2, 527040, Note_on_c, 0, 88, 100
2, 527040, Note_on_c, 0, 75, 100
2, 527040, Note_on_c, 0, 62, 100
2, 527280, Note_on_c, 0, 62, 0
2, 527760, Note_on_c, 0, 100, 0
2, 527760, Note_on_c, 0, 88, 0
2, 527760, Note_on_c, 0, 75, 0
2, 528000, Note_on_c, 0, 98, 100
2, 528000, Note_on_c, 0, 86, 100
2, 528000, Note_on_c, 0, 73, 100
2, 528000, Note_on_c, 0, 60, 100
2, 528240, Note_on_c, 0, 60, 0
2, 528720, Note_on_c, 0, 98, 0
2, 528720, Note_on_c, 0, 86, 0
2, 528720, Note_on_c, 0, 73, 0
2, 528960, Note_on_c, 0, 100, 100
2, 528960, Note_on_c, 0, 88, 100
2, 528960, Note_on_c, 0, 75, 100
2, 528960, Note_on_c, 0, 62, 100
2, 529200, Note_on_c, 0, 62, 0
2, 529680, Note_on_c, 0, 100, 0
2, 529680, Note_on_c, 0, 88, 0
2, 529680, Note_on_c, 0, 75, 0
2, 529890, Note_on_c, 0, 106, 0
2, 529890, Note_on_c, 0, 94, 0
2, 529890, Note_on_c, 0, 70, 0
2, 529890, Note_on_c, 0, 82, 0
2, 529890, Note_on_c, 0, 103, 100
2, 529890, Note_on_c, 0, 91, 100
2, 529890, Note_on_c, 0, 79, 100
2, 529890, Note_on_c, 0, 67, 100
2, 529890, Note_on_c, 0, 105, 100
2, 529890, Note_on_c, 0, 93, 100
2, 529890, Note_on_c, 0, 69, 100
2, 529890, Note_on_c, 0, 81, 100
2, 529920, Note_on_c, 0, 87, 100
2, 529920, Note_on_c, 0, 74, 100
2, 529920, Note_on_c, 0, 61, 100
2, 529920, Note_on_c, 0, 98, 100
2, 530160, Note_on_c, 0, 61, 0
2, 530160, Note_on_c, 0, 98, 0
2, 530160, Note_on_c, 0, 99, 100
2, 530520, Note_on_c, 0, 108, 100
2, 531120, Note_on_c, 0, 87, 0
2, 531120, Note_on_c, 0, 74, 0
2, 531120, Note_on_c, 0, 99, 0
2, 531240, Note_on_c, 0, 108, 0
2, 531360, Note_on_c, 0, 100, 100
2, 531360, Note_on_c, 0, 88, 100
2, 531360, Note_on_c, 0, 75, 100
2, 531360, Note_on_c, 0, 62, 100
2, 531480, Note_on_c, 0, 108, 100
2, 531600, Note_on_c, 0, 62, 0
2, 531720, Note_on_c, 0, 108, 0
2, 531960, Note_on_c, 0, 108, 100
2, 532560, Note_on_c, 0, 100, 0
2, 532560, Note_on_c, 0, 88, 0
2, 532560, Note_on_c, 0, 75, 0
2, 532680, Note_on_c, 0, 108, 0
2, 532800, Note_on_c, 0, 99, 100
2, 532800, Note_on_c, 0, 87, 100
2, 532800, Note_on_c, 0, 74, 100
2, 532800, Note_on_c, 0, 61, 100
2, 532920, Note_on_c, 0, 108, 100
2, 533040, Note_on_c, 0, 61, 0
2, 534480, Note_on_c, 0, 99, 0
2, 534480, Note_on_c, 0, 87, 0
2, 534480, Note_on_c, 0, 74, 0
2, 534600, Note_on_c, 0, 108, 0
2, 534720, Note_on_c, 0, 100, 100
2, 534720, Note_on_c, 0, 88, 100
2, 534720, Note_on_c, 0, 75, 100
2, 534720, Note_on_c, 0, 62, 100
2, 534840, Note_on_c, 0, 108, 100
2, 534960, Note_on_c, 0, 62, 0
2, 535440, Note_on_c, 0, 100, 0
2, 535440, Note_on_c, 0, 88, 0
2, 535440, Note_on_c, 0, 75, 0
2, 535560, Note_on_c, 0, 108, 0
2, 535650, Note_on_c, 0, 103, 0
2, 535650, Note_on_c, 0, 91, 0
2, 535650, Note_on_c, 0, 79, 0
2, 535650, Note_on_c, 0, 67, 0
2, 535680, Note_on_c, 0, 99, 100
2, 535680, Note_on_c, 0, 87, 100
2, 535680, Note_on_c, 0, 74, 100
2, 535680, Note_on_c, 0, 61, 100
2, 535800, Note_on_c, 0, 108, 100
2, 535920, Note_on_c, 0, 61, 0
2, 536400, Note_on_c, 0, 99, 0
2, 536400, Note_on_c, 0, 87, 0
2, 536400, Note_on_c, 0, 74, 0
2, 536520, Note_on_c, 0, 108, 0
2, 536640, Note_on_c, 0, 100, 100
2, 536640, Note_on_c, 0, 88, 100
2, 536640, Note_on_c, 0, 75, 100
2, 536640, Note_on_c, 0, 62, 100
2, 536760, Note_on_c, 0, 108, 100
2, 536880, Note_on_c, 0, 62, 0
2, 537360, Note_on_c, 0, 100, 0
2, 537360, Note_on_c, 0, 88, 0
2, 537360, Note_on_c, 0, 75, 0
2, 537570, Text_t, "sing_on"
2, 537600, Note_on_c, 0, 99, 100
2, 537600, Note_on_c, 0, 87, 100
2, 537600, Note_on_c, 0, 74, 100
2, 537600, Note_on_c, 0, 61, 100
2, 537840, Note_on_c, 0, 61, 0
2, 537960, Note_on_c, 0, 108, 0
2, 538200, Note_on_c, 0, 108, 100
2, 538320, Note_on_c, 0, 99, 0
2, 538320, Note_on_c, 0, 87, 0
2, 538320, Note_on_c, 0, 74, 0
2, 538560, Note_on_c, 0, 100, 100
2, 538560, Note_on_c, 0, 88, 100
2, 538560, Note_on_c, 0, 75, 100
2, 538560, Note_on_c, 0, 62, 100
2, 538800, Note_on_c, 0, 62, 0
2, 538920, Note_on_c, 0, 108, 0
2, 539160, Note_on_c, 0, 108, 100
2, 539400, Note_on_c, 0, 108, 0
2, 539640, Note_on_c, 0, 108, 100
2, 539760, Note_on_c, 0, 100, 0
2, 539760, Note_on_c, 0, 88, 0
2, 539760, Note_on_c, 0, 75, 0
2, 540000, Note_on_c, 0, 99, 100
2, 540000, Note_on_c, 0, 87, 100
2, 540000, Note_on_c, 0, 74, 100
2, 540000, Note_on_c, 0, 61, 100
2, 540240, Note_on_c, 0, 61, 0
2, 540360, Note_on_c, 0, 108, 0
2, 540600, Note_on_c, 0, 108, 100
2, 541680, Note_on_c, 0, 99, 0
2, 541680, Note_on_c, 0, 87, 0
2, 541680, Note_on_c, 0, 74, 0
2, 541800, Note_on_c, 0, 108, 0
2, 541920, Note_on_c, 0, 100, 100
2, 541920, Note_on_c, 0, 88, 100
2, 541920, Note_on_c, 0, 75, 100
2, 541920, Note_on_c, 0, 62, 100
2, 542040, Note_on_c, 0, 108, 100
2, 542160, Note_on_c, 0, 62, 0
2, 542640, Note_on_c, 0, 100, 0
2, 542640, Note_on_c, 0, 88, 0
2, 542640, Note_on_c, 0, 75, 0
2, 542760, Note_on_c, 0, 108, 0
2, 542880, Note_on_c, 0, 99, 100
2, 542880, Note_on_c, 0, 87, 100
2, 542880, Note_on_c, 0, 74, 100
2, 542880, Note_on_c, 0, 61, 100
2, 543000, Note_on_c, 0, 108, 100
2, 543120, Note_on_c, 0, 61, 0
2, 543240, Note_on_c, 0, 108, 0
2, 543480, Note_on_c, 0, 108, 100
2, 543600, Note_on_c, 0, 99, 0
2, 543600, Note_on_c, 0, 87, 0
2, 543600, Note_on_c, 0, 74, 0
2, 543840, Note_on_c, 0, 100, 100
2, 543840, Note_on_c, 0, 88, 100
2, 543840, Note_on_c, 0, 75, 100
2, 543840, Note_on_c, 0, 62, 100
2, 544080, Note_on_c, 0, 62, 0
2, 544680, Note_on_c, 0, 108, 0
2, 544920, Note_on_c, 0, 108, 100
2, 545040, Note_on_c, 0, 100, 0
2, 545040, Note_on_c, 0, 88, 0
2, 545040, Note_on_c, 0, 75, 0
2, 545250, Note_on_c, 0, 105, 0
2, 545250, Note_on_c, 0, 93, 0
2, 545250, Note_on_c, 0, 69, 0
2, 545250, Note_on_c, 0, 81, 0
2, 545250, Note_on_c, 0, 106, 100
2, 545250, Note_on_c, 0, 94, 100
2, 545250, Note_on_c, 0, 70, 100
2, 545250, Note_on_c, 0, 82, 100
2, 545280, Note_on_c, 0, 98, 100
2, 545280, Note_on_c, 0, 86, 100
2, 545280, Note_on_c, 0, 73, 100
2, 545280, Note_on_c, 0, 60, 100
2, 545520, Note_on_c, 0, 60, 0
2, 546480, Note_on_c, 0, 98, 0
2, 546480, Note_on_c, 0, 86, 0
2, 546480, Note_on_c, 0, 73, 0
2, 546720, Note_on_c, 0, 100, 100
2, 546720, Note_on_c, 0, 88, 100
2, 546720, Note_on_c, 0, 75, 100
2, 546720, Note_on_c, 0, 62, 100
2, 546960, Note_on_c, 0, 62, 0
2, 547080, Note_on_c, 0, 108, 0
2, 547920, Note_on_c, 0, 100, 0
2, 547920, Note_on_c, 0, 88, 0
2, 547920, Note_on_c, 0, 75, 0
2, 548160, Note_on_c, 0, 98, 100
2, 548160, Note_on_c, 0, 86, 100
2, 548160, Note_on_c, 0, 73, 100
2, 548160, Note_on_c, 0, 60, 100
2, 548400, Note_on_c, 0, 60, 0
2, 549840, Note_on_c, 0, 98, 0
2, 549840, Note_on_c, 0, 86, 0
2, 549840, Note_on_c, 0, 73, 0
2, 550080, Note_on_c, 0, 100, 100
2, 550080, Note_on_c, 0, 88, 100
2, 550080, Note_on_c, 0, 75, 100
2, 550080, Note_on_c, 0, 62, 100
2, 550320, Note_on_c, 0, 62, 0
2, 550800, Note_on_c, 0, 100, 0
2, 550800, Note_on_c, 0, 88, 0
2, 550800, Note_on_c, 0, 75, 0
2, 551040, Note_on_c, 0, 98, 100
2, 551040, Note_on_c, 0, 86, 100
2, 551040, Note_on_c, 0, 73, 100
2, 551040, Note_on_c, 0, 60, 100
2, 551280, Note_on_c, 0, 60, 0
2, 551760, Note_on_c, 0, 98, 0
2, 551760, Note_on_c, 0, 86, 0
2, 551760, Note_on_c, 0, 73, 0
2, 552000, Note_on_c, 0, 100, 100
2, 552000, Note_on_c, 0, 88, 100
2, 552000, Note_on_c, 0, 75, 100
2, 552000, Note_on_c, 0, 62, 100
2, 552240, Note_on_c, 0, 62, 0
2, 552720, Note_on_c, 0, 100, 0
2, 552720, Note_on_c, 0, 88, 0
2, 552720, Note_on_c, 0, 75, 0
2, 552930, Text_t, "sing_off"
2, 552930, Note_on_c, 0, 106, 0
2, 552930, Note_on_c, 0, 94, 0
2, 552930, Note_on_c, 0, 70, 0
2, 552930, Note_on_c, 0, 82, 0
2, 552930, Note_on_c, 0, 103, 100
2, 552930, Note_on_c, 0, 91, 100
2, 552930, Note_on_c, 0, 79, 100
2, 552930, Note_on_c, 0, 67, 100
2, 552930, Note_on_c, 0, 105, 100
2, 552930, Note_on_c, 0, 93, 100
2, 552930, Note_on_c, 0, 69, 100
2, 552930, Note_on_c, 0, 81, 100
2, 552960, Note_on_c, 0, 98, 100
2, 552960, Note_on_c, 0, 86, 100
2, 552960, Note_on_c, 0, 73, 100
2, 552960, Note_on_c, 0, 60, 100
2, 553200, Note_on_c, 0, 60, 0
2, 554160, Note_on_c, 0, 98, 0
2, 554160, Note_on_c, 0, 86, 0
2, 554160, Note_on_c, 0, 73, 0
2, 554400, Note_on_c, 0, 100, 100
2, 554400, Note_on_c, 0, 88, 100
2, 554400, Note_on_c, 0, 75, 100
2, 554400, Note_on_c, 0, 62, 100
2, 554640, Note_on_c, 0, 62, 0
2, 555600, Note_on_c, 0, 100, 0
2, 555600, Note_on_c, 0, 88, 0
2, 555600, Note_on_c, 0, 75, 0
2, 555840, Note_on_c, 0, 98, 100
2, 555840, Note_on_c, 0, 86, 100
2, 555840, Note_on_c, 0, 73, 100
2, 555840, Note_on_c, 0, 60, 100
2, 556080, Note_on_c, 0, 60, 0
2, 556558, Note_on_c, 0, 98, 0
2, 556558, Note_on_c, 0, 86, 0
2, 556558, Note_on_c, 0, 73, 0
2, 556770, Note_on_c, 0, 106, 100
2, 556770, Note_on_c, 0, 94, 100
2, 556770, Note_on_c, 0, 70, 100
2, 556770, Note_on_c, 0, 82, 100
2, 556800, Note_on_c, 0, 98, 100
2, 556800, Note_on_c, 0, 86, 100
2, 556800, Note_on_c, 0, 73, 100
2, 556800, Note_on_c, 0, 60, 100
2, 559920, Note_on_c, 0, 98, 0
2, 559920, Note_on_c, 0, 86, 0
2, 559920, Note_on_c, 0, 73, 0
2, 559920, Note_on_c, 0, 60, 0
2, 560130, Note_on_c, 0, 103, 0
2, 560130, Note_on_c, 0, 91, 0
2, 560130, Note_on_c, 0, 79, 0
2, 560130, Note_on_c, 0, 67, 0
2, 560640, Note_on_c, 0, 100, 100
2, 560640, Note_on_c, 0, 88, 100
2, 560640, Note_on_c, 0, 75, 100
2, 560640, Note_on_c, 0, 62, 100
2, 560880, Note_on_c, 0, 100, 0
2, 560880, Note_on_c, 0, 88, 0
2, 560880, Note_on_c, 0, 75, 0
2, 560880, Note_on_c, 0, 62, 0
2, 561240, Note_on_c, 0, 108, 100
2, 561600, Note_on_c, 0, 100, 100
2, 561600, Note_on_c, 0, 88, 100
2, 561600, Note_on_c, 0, 75, 100
2, 561600, Note_on_c, 0, 62, 100
2, 561840, Note_on_c, 0, 100, 0
2, 561840, Note_on_c, 0, 88, 0
2, 561840, Note_on_c, 0, 75, 0
2, 561840, Note_on_c, 0, 62, 0
2, 561960, Note_on_c, 0, 108, 0
2, 562200, Note_on_c, 0, 108, 100
2, 562440, Note_on_c, 0, 108, 0
2, 562560, Note_on_c, 0, 100, 100
2, 562560, Note_on_c, 0, 88, 100
2, 562560, Note_on_c, 0, 75, 100
2, 562560, Note_on_c, 0, 62, 100
2, 562680, Note_on_c, 0, 108, 100
2, 562800, Note_on_c, 0, 100, 0
2, 562800, Note_on_c, 0, 88, 0
2, 562800, Note_on_c, 0, 75, 0
2, 562800, Note_on_c, 0, 62, 0
2, 563400, Note_on_c, 0, 108, 0
2, 563520, Note_on_c, 0, 99, 100
2, 563520, Note_on_c, 0, 87, 100
2, 563640, Note_on_c, 0, 108, 100
2, 563760, Note_on_c, 0, 99, 0
2, 563760, Note_on_c, 0, 87, 0
2, 564000, Note_on_c, 0, 98, 100
2, 564000, Note_on_c, 0, 86, 100
2, 564000, Note_on_c, 0, 73, 100
2, 564000, Note_on_c, 0, 60, 100
2, 564240, Note_on_c, 0, 98, 0
2, 564240, Note_on_c, 0, 86, 0
2, 564240, Note_on_c, 0, 73, 0
2, 564240, Note_on_c, 0, 60, 0
2, 564600, Note_on_c, 0, 108, 0
2, 564840, Note_on_c, 0, 108, 100
2, 564960, Note_on_c, 0, 98, 100
2, 564960, Note_on_c, 0, 86, 100
2, 565200, Note_on_c, 0, 98, 0
2, 565200, Note_on_c, 0, 86, 0
2, 565440, Note_on_c, 0, 98, 100
2, 565440, Note_on_c, 0, 86, 100
2, 565440, Note_on_c, 0, 73, 100
2, 565440, Note_on_c, 0, 60, 100
2, 565680, Note_on_c, 0, 98, 0
2, 565680, Note_on_c, 0, 86, 0
2, 565680, Note_on_c, 0, 73, 0
2, 565680, Note_on_c, 0, 60, 0
2, 565800, Note_on_c, 0, 108, 0
2, 566040, Note_on_c, 0, 108, 100
2, 566400, Note_on_c, 0, 98, 100
2, 566400, Note_on_c, 0, 86, 100
2, 566400, Note_on_c, 0, 73, 100
2, 566400, Note_on_c, 0, 60, 100
2, 566520, Note_on_c, 0, 108, 0
2, 566640, Note_on_c, 0, 98, 0
2, 566640, Note_on_c, 0, 86, 0
2, 566640, Note_on_c, 0, 73, 0
2, 566640, Note_on_c, 0, 60, 0
2, 566760, Note_on_c, 0, 108, 100
2, 567360, Note_on_c, 0, 99, 100
2, 567360, Note_on_c, 0, 87, 100
2, 567360, Note_on_c, 0, 74, 100
2, 567360, Note_on_c, 0, 61, 100
2, 567600, Note_on_c, 0, 99, 0
2, 567600, Note_on_c, 0, 87, 0
2, 567600, Note_on_c, 0, 74, 0
2, 567600, Note_on_c, 0, 61, 0
2, 567720, Note_on_c, 0, 108, 0
2, 567960, Note_on_c, 0, 108, 100
2, 568200, Note_on_c, 0, 108, 0
2, 568290, Text_t, "sing_on"
2, 568320, Note_on_c, 0, 100, 100
2, 568320, Note_on_c, 0, 88, 100
2, 568320, Note_on_c, 0, 75, 100
2, 568320, Note_on_c, 0, 62, 100
2, 568440, Note_on_c, 0, 108, 100
2, 568560, Note_on_c, 0, 100, 0
2, 568560, Note_on_c, 0, 88, 0
2, 568560, Note_on_c, 0, 75, 0
2, 568560, Note_on_c, 0, 62, 0
2, 569160, Note_on_c, 0, 108, 0
2, 569280, Note_on_c, 0, 99, 100
2, 569280, Note_on_c, 0, 87, 100
2, 569280, Note_on_c, 0, 74, 100
2, 569400, Note_on_c, 0, 108, 100
2, 569520, Note_on_c, 0, 99, 0
2, 569520, Note_on_c, 0, 87, 0
2, 569520, Note_on_c, 0, 74, 0
2, 570120, Note_on_c, 0, 108, 0
2, 570360, Note_on_c, 0, 108, 100
2, 570720, Note_on_c, 0, 98, 100
2, 570720, Note_on_c, 0, 86, 100
2, 570720, Note_on_c, 0, 73, 100
2, 570720, Note_on_c, 0, 60, 100
2, 570960, Note_on_c, 0, 98, 0
2, 570960, Note_on_c, 0, 86, 0
2, 570960, Note_on_c, 0, 73, 0
2, 570960, Note_on_c, 0, 60, 0
2, 571080, Note_on_c, 0, 108, 0
2, 571200, Note_on_c, 0, 98, 100
2, 571200, Note_on_c, 0, 86, 100
2, 571320, Note_on_c, 0, 108, 100
2, 571440, Note_on_c, 0, 98, 0
2, 571440, Note_on_c, 0, 86, 0
2, 572040, Note_on_c, 0, 108, 0
2, 572160, Note_on_c, 0, 99, 100
2, 572160, Note_on_c, 0, 87, 100
2, 572160, Note_on_c, 0, 74, 100
2, 572160, Note_on_c, 0, 61, 100
2, 572400, Note_on_c, 0, 99, 0
2, 572400, Note_on_c, 0, 87, 0
2, 572400, Note_on_c, 0, 74, 0
2, 572400, Note_on_c, 0, 61, 0
2, 573600, Note_on_c, 0, 99, 100
2, 573600, Note_on_c, 0, 87, 100
2, 573600, Note_on_c, 0, 74, 100
2, 573600, Note_on_c, 0, 61, 100
2, 573840, Note_on_c, 0, 99, 0
2, 573840, Note_on_c, 0, 87, 0
2, 573840, Note_on_c, 0, 74, 0
2, 573840, Note_on_c, 0, 61, 0
2, 574200, Note_on_c, 0, 108, 100
2, 574440, Note_on_c, 0, 108, 0
2, 574680, Note_on_c, 0, 108, 100
2, 575040, Note_on_c, 0, 99, 100
2, 575040, Note_on_c, 0, 87, 100
2, 575040, Note_on_c, 0, 74, 100
2, 575040, Note_on_c, 0, 61, 100
2, 575280, Note_on_c, 0, 99, 0
2, 575280, Note_on_c, 0, 87, 0
2, 575280, Note_on_c, 0, 74, 0
2, 575280, Note_on_c, 0, 61, 0
2, 575400, Note_on_c, 0, 108, 0
2, 575490, Note_on_c, 0, 105, 0
2, 575490, Note_on_c, 0, 93, 0
2, 575490, Note_on_c, 0, 69, 0
2, 575490, Note_on_c, 0, 81, 0
2, 575520, Note_on_c, 0, 100, 100
2, 575640, Note_on_c, 0, 108, 100
2, 575760, Note_on_c, 0, 100, 0
2, 576000, Note_on_c, 0, 100, 100
2, 576000, Note_on_c, 0, 88, 100
2, 576000, Note_on_c, 0, 75, 100
2, 576000, Note_on_c, 0, 62, 100
2, 576240, Note_on_c, 0, 100, 0
2, 576240, Note_on_c, 0, 88, 0
2, 576240, Note_on_c, 0, 75, 0
2, 576240, Note_on_c, 0, 62, 0
2, 576360, Note_on_c, 0, 108, 0
2, 576600, Note_on_c, 0, 108, 100
2, 576840, Note_on_c, 0, 108, 0
2, 576960, Note_on_c, 0, 100, 100
2, 576960, Note_on_c, 0, 88, 100
2, 576960, Note_on_c, 0, 75, 100
2, 576960, Note_on_c, 0, 62, 100
2, 577080, Note_on_c, 0, 108, 100
2, 577200, Note_on_c, 0, 100, 0
2, 577200, Note_on_c, 0, 88, 0
2, 577200, Note_on_c, 0, 75, 0
2, 577200, Note_on_c, 0, 62, 0
2, 577800, Note_on_c, 0, 108, 0
2, 577920, Note_on_c, 0, 100, 100
2, 577920, Note_on_c, 0, 88, 100
2, 577920, Note_on_c, 0, 75, 100
2, 577920, Note_on_c, 0, 62, 100
2, 578040, Note_on_c, 0, 108, 100
2, 578160, Note_on_c, 0, 100, 0
2, 578160, Note_on_c, 0, 88, 0
2, 578160, Note_on_c, 0, 75, 0
2, 578160, Note_on_c, 0, 62, 0
2, 578760, Note_on_c, 0, 108, 0
2, 579000, Note_on_c, 0, 108, 100
2, 579360, Note_on_c, 0, 98, 100
2, 579360, Note_on_c, 0, 86, 100
2, 579360, Note_on_c, 0, 73, 100
2, 579360, Note_on_c, 0, 60, 100
2, 579600, Note_on_c, 0, 98, 0
2, 579600, Note_on_c, 0, 86, 0
2, 579600, Note_on_c, 0, 73, 0
2, 579600, Note_on_c, 0, 60, 0
2, 580200, Note_on_c, 0, 108, 0
2, 580440, Note_on_c, 0, 108, 100
2, 580680, Note_on_c, 0, 108, 0
2, 580800, Note_on_c, 0, 99, 100
2, 580800, Note_on_c, 0, 87, 100
2, 580800, Note_on_c, 0, 74, 100
2, 580800, Note_on_c, 0, 61, 100
2, 580920, Note_on_c, 0, 108, 100
2, 581040, Note_on_c, 0, 99, 0
2, 581040, Note_on_c, 0, 87, 0
2, 581040, Note_on_c, 0, 74, 0
2, 581040, Note_on_c, 0, 61, 0
2, 581640, Note_on_c, 0, 108, 0
2, 581760, Note_on_c, 0, 100, 100
2, 581760, Note_on_c, 0, 88, 100
2, 581760, Note_on_c, 0, 75, 100
2, 581760, Note_on_c, 0, 62, 100
2, 581880, Note_on_c, 0, 108, 100
2, 582000, Note_on_c, 0, 100, 0
2, 582000, Note_on_c, 0, 88, 0
2, 582000, Note_on_c, 0, 75, 0
2, 582000, Note_on_c, 0, 62, 0
2, 582210, Note_on_c, 0, 106, 0
2, 582210, Note_on_c, 0, 94, 0
2, 582210, Note_on_c, 0, 70, 0
2, 582210, Note_on_c, 0, 82, 0
2, 582210, Note_on_c, 0, 105, 100
2, 582210, Note_on_c, 0, 93, 100
2, 582210, Note_on_c, 0, 69, 100
2, 582210, Note_on_c, 0, 81, 100
2, 582720, Note_on_c, 0, 97, 100
2, 582720, Note_on_c, 0, 85, 100
2, 582720, Note_on_c, 0, 72, 100
2, 582960, Note_on_c, 0, 97, 0
2, 582960, Note_on_c, 0, 85, 0
2, 582960, Note_on_c, 0, 72, 0
2, 583680, Note_on_c, 0, 98, 100
2, 583680, Note_on_c, 0, 86, 100
2, 583680, Note_on_c, 0, 73, 100
2, 583680, Note_on_c, 0, 60, 100
2, 583800, Note_on_c, 0, 108, 0
2, 583920, Note_on_c, 0, 98, 0
2, 583920, Note_on_c, 0, 86, 0
2, 583920, Note_on_c, 0, 73, 0
2, 583920, Note_on_c, 0, 60, 0
2, 584280, Note_on_c, 0, 108, 100
2, 584640, Note_on_c, 0, 98, 100
2, 584640, Note_on_c, 0, 86, 100
2, 584640, Note_on_c, 0, 73, 100
2, 584640, Note_on_c, 0, 60, 100
2, 584880, Note_on_c, 0, 98, 0
2, 584880, Note_on_c, 0, 86, 0
2, 584880, Note_on_c, 0, 73, 0
2, 584880, Note_on_c, 0, 60, 0
2, 585600, Note_on_c, 0, 99, 100
2, 585600, Note_on_c, 0, 87, 100
2, 585600, Note_on_c, 0, 74, 100
2, 585600, Note_on_c, 0, 61, 100
2, 585840, Note_on_c, 0, 99, 0
2, 585840, Note_on_c, 0, 87, 0
2, 585840, Note_on_c, 0, 74, 0
2, 585840, Note_on_c, 0, 61, 0
2, 586560, Note_on_c, 0, 99, 100
2, 586560, Note_on_c, 0, 87, 100
2, 586560, Note_on_c, 0, 74, 100
2, 586560, Note_on_c, 0, 61, 100
2, 586800, Note_on_c, 0, 99, 0
2, 586800, Note_on_c, 0, 87, 0
2, 586800, Note_on_c, 0, 74, 0
2, 586800, Note_on_c, 0, 61, 0
2, 587520, Note_on_c, 0, 96, 100
2, 587520, Note_on_c, 0, 84, 100
2, 587520, Note_on_c, 0, 72, 100
2, 587520, Note_on_c, 0, 60, 100
2, 587760, Note_on_c, 0, 96, 0
2, 587760, Note_on_c, 0, 84, 0
2, 587760, Note_on_c, 0, 72, 0
2, 587760, Note_on_c, 0, 60, 0
2, 588480, Note_on_c, 0, 96, 100
2, 588480, Note_on_c, 0, 84, 100
2, 588480, Note_on_c, 0, 72, 100
2, 588480, Note_on_c, 0, 60, 100
2, 588720, Note_on_c, 0, 96, 0
2, 588720, Note_on_c, 0, 84, 0
2, 588720, Note_on_c, 0, 72, 0
2, 588720, Note_on_c, 0, 60, 0
2, 589440, Note_on_c, 0, 97, 100
2, 589440, Note_on_c, 0, 85, 100
2, 589440, Note_on_c, 0, 73, 100
2, 589440, Note_on_c, 0, 61, 100
2, 589680, Note_on_c, 0, 97, 0
2, 589680, Note_on_c, 0, 85, 0
2, 589680, Note_on_c, 0, 73, 0
2, 589680, Note_on_c, 0, 61, 0
2, 590400, Note_on_c, 0, 97, 100
2, 590400, Note_on_c, 0, 85, 100
2, 590400, Note_on_c, 0, 73, 100
2, 590400, Note_on_c, 0, 61, 100
2, 590640, Note_on_c, 0, 97, 0
2, 590640, Note_on_c, 0, 85, 0
2, 590640, Note_on_c, 0, 73, 0
2, 590640, Note_on_c, 0, 61, 0
2, 591330, Note_on_c, 0, 106, 100
2, 591330, Note_on_c, 0, 94, 100
2, 591330, Note_on_c, 0, 70, 100
2, 591330, Note_on_c, 0, 82, 100
2, 591360, Note_on_c, 0, 98, 100
2, 591360, Note_on_c, 0, 86, 100
2, 591360, Note_on_c, 0, 74, 100
2, 591360, Note_on_c, 0, 60, 100
2, 591600, Note_on_c, 0, 98, 0
2, 591600, Note_on_c, 0, 86, 0
2, 591600, Note_on_c, 0, 74, 0
2, 591600, Note_on_c, 0, 60, 0
2, 592320, Note_on_c, 0, 98, 100
2, 592320, Note_on_c, 0, 86, 100
2, 592320, Note_on_c, 0, 74, 100
2, 592320, Note_on_c, 0, 60, 100
2, 592560, Note_on_c, 0, 98, 0
2, 592560, Note_on_c, 0, 86, 0
2, 592560, Note_on_c, 0, 74, 0
2, 592560, Note_on_c, 0, 60, 0
2, 592800, Note_on_c, 0, 98, 100
2, 593040, Note_on_c, 0, 98, 0
2, 593280, Note_on_c, 0, 99, 100
2, 593280, Note_on_c, 0, 87, 100
2, 593280, Note_on_c, 0, 75, 100
2, 593280, Note_on_c, 0, 61, 100
2, 593520, Note_on_c, 0, 99, 0
2, 593520, Note_on_c, 0, 87, 0
2, 593520, Note_on_c, 0, 75, 0
2, 593520, Note_on_c, 0, 61, 0
2, 594240, Note_on_c, 0, 99, 100
2, 594240, Note_on_c, 0, 87, 100
2, 594240, Note_on_c, 0, 75, 100
2, 594240, Note_on_c, 0, 61, 100
2, 594480, Note_on_c, 0, 99, 0
2, 594480, Note_on_c, 0, 87, 0
2, 594480, Note_on_c, 0, 75, 0
2, 594480, Note_on_c, 0, 61, 0
2, 595080, Note_on_c, 0, 108, 0
2, 595200, Note_on_c, 0, 99, 100
2, 595200, Note_on_c, 0, 87, 100
2, 595200, Note_on_c, 0, 75, 100
2, 595200, Note_on_c, 0, 62, 100
2, 595440, Note_on_c, 0, 99, 0
2, 595440, Note_on_c, 0, 87, 0
2, 595440, Note_on_c, 0, 75, 0
2, 595440, Note_on_c, 0, 62, 0
2, 595800, Note_on_c, 0, 108, 100
2, 596160, Note_on_c, 0, 99, 100
2, 596160, Note_on_c, 0, 87, 100
2, 596160, Note_on_c, 0, 75, 100
2, 596160, Note_on_c, 0, 62, 100
2, 596400, Note_on_c, 0, 99, 0
2, 596400, Note_on_c, 0, 87, 0
2, 596400, Note_on_c, 0, 75, 0
2, 596400, Note_on_c, 0, 62, 0
2, 596520, Note_on_c, 0, 108, 0
2, 596760, Note_on_c, 0, 108, 100
2, 597000, Note_on_c, 0, 108, 0
2, 597120, Note_on_c, 0, 99, 100
2, 597120, Note_on_c, 0, 87, 100
2, 597120, Note_on_c, 0, 75, 100
2, 597120, Note_on_c, 0, 62, 100
2, 597240, Note_on_c, 0, 108, 100
2, 597360, Note_on_c, 0, 99, 0
2, 597360, Note_on_c, 0, 87, 0
2, 597360, Note_on_c, 0, 75, 0
2, 597360, Note_on_c, 0, 62, 0
2, 598080, Note_on_c, 0, 100, 100
2, 598080, Note_on_c, 0, 88, 100
2, 598200, Note_on_c, 0, 108, 0
2, 598320, Note_on_c, 0, 100, 0
2, 598320, Note_on_c, 0, 88, 0
2, 598440, Note_on_c, 0, 108, 100
2, 599010, Note_on_c, 0, 103, 100
2, 599010, Note_on_c, 0, 91, 100
2, 599010, Note_on_c, 0, 79, 100
2, 599040, Note_on_c, 0, 100, 100
2, 599040, Note_on_c, 0, 98, 100
2, 599040, Note_on_c, 0, 88, 100
2, 599040, Note_on_c, 0, 86, 100
2, 599040, Note_on_c, 0, 75, 100
2, 599040, Note_on_c, 0, 62, 100
2, 599280, Note_on_c, 0, 100, 0
2, 599280, Note_on_c, 0, 98, 0
2, 599280, Note_on_c, 0, 88, 0
2, 599280, Note_on_c, 0, 86, 0
2, 599280, Note_on_c, 0, 75, 0
2, 599280, Note_on_c, 0, 62, 0
2, 599640, Note_on_c, 0, 108, 0
2, 600000, Note_on_c, 0, 100, 100
2, 600000, Note_on_c, 0, 98, 100
2, 600000, Note_on_c, 0, 88, 100
2, 600000, Note_on_c, 0, 86, 100
2, 600000, Note_on_c, 0, 75, 100
2, 600000, Note_on_c, 0, 62, 100
2, 600240, Note_on_c, 0, 100, 0
2, 600240, Note_on_c, 0, 98, 0
2, 600240, Note_on_c, 0, 88, 0
2, 600240, Note_on_c, 0, 86, 0
2, 600240, Note_on_c, 0, 75, 0
2, 600240, Note_on_c, 0, 62, 0
2, 601920, Note_on_c, 0, 100, 100
2, 601920, Note_on_c, 0, 98, 100
2, 601920, Note_on_c, 0, 88, 100
2, 601920, Note_on_c, 0, 86, 100
2, 601920, Note_on_c, 0, 75, 100
2, 601920, Note_on_c, 0, 62, 100
2, 602130, Note_on_c, 0, 103, 0
2, 602160, Note_on_c, 0, 100, 0
2, 602160, Note_on_c, 0, 98, 0
2, 602160, Note_on_c, 0, 88, 0
2, 602160, Note_on_c, 0, 86, 0
2, 602160, Note_on_c, 0, 75, 0
2, 602160, Note_on_c, 0, 62, 0
2, 602370, Note_on_c, 0, 91, 0
2, 602370, Note_on_c, 0, 79, 0
2, 603480, Note_on_c, 0, 108, 100
2, 603840, Note_on_c, 0, 100, 100
2, 603840, Note_on_c, 0, 98, 100
2, 603840, Note_on_c, 0, 88, 100
2, 603840, Note_on_c, 0, 86, 100
2, 603840, Note_on_c, 0, 75, 100
2, 603840, Note_on_c, 0, 62, 100
2, 604080, Note_on_c, 0, 100, 0
2, 604080, Note_on_c, 0, 98, 0
2, 604080, Note_on_c, 0, 88, 0
2, 604080, Note_on_c, 0, 86, 0
2, 604080, Note_on_c, 0, 75, 0
2, 604080, Note_on_c, 0, 62, 0
2, 604200, Note_on_c, 0, 108, 0
2, 604440, Note_on_c, 0, 108, 100
2, 604680, Note_on_c, 0, 108, 0
2, 604800, Note_on_c, 0, 100, 100
2, 604800, Note_on_c, 0, 98, 100
2, 604800, Note_on_c, 0, 88, 100
2, 604800, Note_on_c, 0, 86, 100
2, 604800, Note_on_c, 0, 75, 100
2, 604800, Note_on_c, 0, 62, 100
2, 604920, Note_on_c, 0, 108, 100
2, 605040, Note_on_c, 0, 100, 0
2, 605040, Note_on_c, 0, 98, 0
2, 605040, Note_on_c, 0, 88, 0
2, 605040, Note_on_c, 0, 86, 0
2, 605040, Note_on_c, 0, 75, 0
2, 605040, Note_on_c, 0, 62, 0
2, 605280, Note_on_c, 0, 100, 100
2, 605280, Note_on_c, 0, 98, 100
2, 605280, Note_on_c, 0, 88, 100
2, 605280, Note_on_c, 0, 86, 100
2, 605280, Note_on_c, 0, 75, 100
2, 605520, Note_on_c, 0, 100, 0
2, 605520, Note_on_c, 0, 98, 0
2, 605520, Note_on_c, 0, 88, 0
2, 605520, Note_on_c, 0, 86, 0
2, 605520, Note_on_c, 0, 75, 0
2, 605640, Note_on_c, 0, 108, 0
2, 605760, Note_on_c, 0, 100, 100
2, 605760, Note_on_c, 0, 98, 100
2, 605760, Note_on_c, 0, 88, 100
2, 605760, Note_on_c, 0, 86, 100
2, 605760, Note_on_c, 0, 75, 100
2, 605760, Note_on_c, 0, 62, 100
2, 605880, Note_on_c, 0, 108, 100
2, 606000, Note_on_c, 0, 100, 0
2, 606000, Note_on_c, 0, 98, 0
2, 606000, Note_on_c, 0, 88, 0
2, 606000, Note_on_c, 0, 86, 0
2, 606000, Note_on_c, 0, 75, 0
2, 606000, Note_on_c, 0, 62, 0
2, 606690, Text_t, "[chorus]"
2, 606690, Text_t, "[lighting (sweep)]"
2, 606720, Note_on_c, 0, 99, 100
2, 606720, Note_on_c, 0, 97, 100
2, 606720, Note_on_c, 0, 87, 100
2, 606720, Note_on_c, 0, 85, 100
2, 606720, Note_on_c, 0, 74, 100
2, 606720, Note_on_c, 0, 73, 100
2, 606720, Note_on_c, 0, 61, 100
2, 606960, Note_on_c, 0, 99, 0
2, 606960, Note_on_c, 0, 97, 0
2, 606960, Note_on_c, 0, 87, 0
2, 606960, Note_on_c, 0, 85, 0
2, 606960, Note_on_c, 0, 74, 0
2, 606960, Note_on_c, 0, 73, 0
2, 606960, Note_on_c, 0, 61, 0
2, 607200, Note_on_c, 0, 108, 0
2, 607320, Note_on_c, 0, 108, 100
2, 607680, Note_on_c, 0, 108, 0
2, 607680, Note_on_c, 0, 99, 100
2, 607680, Note_on_c, 0, 97, 100
2, 607680, Note_on_c, 0, 87, 100
2, 607680, Note_on_c, 0, 85, 100
2, 607680, Note_on_c, 0, 74, 100
2, 607680, Note_on_c, 0, 73, 100
2, 607680, Note_on_c, 0, 61, 100
2, 607800, Note_on_c, 0, 108, 100
2, 607920, Note_on_c, 0, 99, 0
2, 607920, Note_on_c, 0, 97, 0
2, 607920, Note_on_c, 0, 87, 0
2, 607920, Note_on_c, 0, 85, 0
2, 607920, Note_on_c, 0, 74, 0
2, 607920, Note_on_c, 0, 73, 0
2, 607920, Note_on_c, 0, 61, 0
2, 608520, Note_on_c, 0, 108, 0
2, 609600, Note_on_c, 0, 99, 100
2, 609600, Note_on_c, 0, 97, 100
2, 609600, Note_on_c, 0, 87, 100
2, 609600, Note_on_c, 0, 85, 100
2, 609600, Note_on_c, 0, 74, 100
2, 609600, Note_on_c, 0, 73, 100
2, 609600, Note_on_c, 0, 61, 100
2, 609840, Note_on_c, 0, 99, 0
2, 609840, Note_on_c, 0, 97, 0
2, 609840, Note_on_c, 0, 87, 0
2, 609840, Note_on_c, 0, 85, 0
2, 609840, Note_on_c, 0, 74, 0
2, 609840, Note_on_c, 0, 73, 0
2, 609840, Note_on_c, 0, 61, 0
2, 611160, Note_on_c, 0, 108, 100
2, 611520, Note_on_c, 0, 99, 100
2, 611520, Note_on_c, 0, 97, 100
2, 611520, Note_on_c, 0, 87, 100
2, 611520, Note_on_c, 0, 85, 100
2, 611520, Note_on_c, 0, 74, 100
2, 611520, Note_on_c, 0, 73, 100
2, 611520, Note_on_c, 0, 61, 100
2, 611760, Note_on_c, 0, 99, 0
2, 611760, Note_on_c, 0, 97, 0
2, 611760, Note_on_c, 0, 87, 0
2, 611760, Note_on_c, 0, 85, 0
2, 611760, Note_on_c, 0, 74, 0
2, 611760, Note_on_c, 0, 73, 0
2, 611760, Note_on_c, 0, 61, 0
2, 611880, Note_on_c, 0, 108, 0
2, 612120, Note_on_c, 0, 108, 100
2, 612360, Note_on_c, 0, 108, 0
2, 612480, Note_on_c, 0, 99, 100
2, 612480, Note_on_c, 0, 97, 100
2, 612480, Note_on_c, 0, 87, 100
2, 612480, Note_on_c, 0, 85, 100
2, 612480, Note_on_c, 0, 74, 100
2, 612480, Note_on_c, 0, 73, 100
2, 612480, Note_on_c, 0, 61, 100
2, 612600, Note_on_c, 0, 108, 100
2, 612720, Note_on_c, 0, 99, 0
2, 612720, Note_on_c, 0, 97, 0
2, 612720, Note_on_c, 0, 87, 0
2, 612720, Note_on_c, 0, 85, 0
2, 612720, Note_on_c, 0, 74, 0
2, 612720, Note_on_c, 0, 73, 0
2, 612720, Note_on_c, 0, 61, 0
2, 612960, Note_on_c, 0, 99, 100
2, 612960, Note_on_c, 0, 97, 100
2, 612960, Note_on_c, 0, 87, 100
2, 612960, Note_on_c, 0, 85, 100
2, 612960, Note_on_c, 0, 74, 100
2, 612960, Note_on_c, 0, 73, 100
2, 613200, Note_on_c, 0, 99, 0
2, 613200, Note_on_c, 0, 97, 0
2, 613200, Note_on_c, 0, 87, 0
2, 613200, Note_on_c, 0, 85, 0
2, 613200, Note_on_c, 0, 74, 0
2, 613200, Note_on_c, 0, 73, 0
2, 613320, Note_on_c, 0, 108, 0
2, 613440, Note_on_c, 0, 99, 100
2, 613440, Note_on_c, 0, 97, 100
2, 613440, Note_on_c, 0, 87, 100
2, 613440, Note_on_c, 0, 85, 100
2, 613440, Note_on_c, 0, 74, 100
2, 613440, Note_on_c, 0, 73, 100
2, 613440, Note_on_c, 0, 61, 100
2, 613560, Note_on_c, 0, 108, 100
2, 613680, Note_on_c, 0, 99, 0
2, 613680, Note_on_c, 0, 97, 0
2, 613680, Note_on_c, 0, 87, 0
2, 613680, Note_on_c, 0, 85, 0
2, 613680, Note_on_c, 0, 74, 0
2, 613680, Note_on_c, 0, 73, 0
2, 613680, Note_on_c, 0, 61, 0
2, 614400, Note_on_c, 0, 100, 100
2, 614400, Note_on_c, 0, 98, 100
2, 614400, Note_on_c, 0, 88, 100
2, 614400, Note_on_c, 0, 86, 100
2, 614400, Note_on_c, 0, 75, 100
2, 614400, Note_on_c, 0, 62, 100
2, 614640, Note_on_c, 0, 100, 0
2, 614640, Note_on_c, 0, 98, 0
2, 614640, Note_on_c, 0, 88, 0
2, 614640, Note_on_c, 0, 86, 0
2, 614640, Note_on_c, 0, 75, 0
2, 614640, Note_on_c, 0, 62, 0
2, 615360, Note_on_c, 0, 100, 100
2, 615360, Note_on_c, 0, 98, 100
2, 615360, Note_on_c, 0, 88, 100
2, 615360, Note_on_c, 0, 86, 100
2, 615360, Note_on_c, 0, 75, 100
2, 615360, Note_on_c, 0, 62, 100
2, 615600, Note_on_c, 0, 100, 0
2, 615600, Note_on_c, 0, 98, 0
2, 615600, Note_on_c, 0, 88, 0
2, 615600, Note_on_c, 0, 86, 0
2, 615600, Note_on_c, 0, 75, 0
2, 615600, Note_on_c, 0, 62, 0
2, 615720, Note_on_c, 0, 108, 0
2, 617280, Note_on_c, 0, 100, 100
2, 617280, Note_on_c, 0, 98, 100
2, 617280, Note_on_c, 0, 88, 100
2, 617280, Note_on_c, 0, 86, 100
2, 617280, Note_on_c, 0, 75, 100
2, 617280, Note_on_c, 0, 62, 100
2, 617520, Note_on_c, 0, 100, 0
2, 617520, Note_on_c, 0, 98, 0
2, 617520, Note_on_c, 0, 88, 0
2, 617520, Note_on_c, 0, 86, 0
2, 617520, Note_on_c, 0, 75, 0
2, 617520, Note_on_c, 0, 62, 0
2, 618360, Note_on_c, 0, 108, 100
2, 618600, Note_on_c, 0, 108, 0
2, 618840, Note_on_c, 0, 108, 100
2, 619200, Note_on_c, 0, 100, 100
2, 619200, Note_on_c, 0, 98, 100
2, 619200, Note_on_c, 0, 88, 100
2, 619200, Note_on_c, 0, 86, 100
2, 619200, Note_on_c, 0, 75, 100
2, 619200, Note_on_c, 0, 62, 100
2, 619440, Note_on_c, 0, 100, 0
2, 619440, Note_on_c, 0, 98, 0
2, 619440, Note_on_c, 0, 88, 0
2, 619440, Note_on_c, 0, 86, 0
2, 619440, Note_on_c, 0, 75, 0
2, 619440, Note_on_c, 0, 62, 0
2, 619560, Note_on_c, 0, 108, 0
2, 619800, Note_on_c, 0, 108, 100
2, 620040, Note_on_c, 0, 108, 0
2, 620160, Note_on_c, 0, 100, 100
2, 620160, Note_on_c, 0, 98, 100
2, 620160, Note_on_c, 0, 88, 100
2, 620160, Note_on_c, 0, 86, 100
2, 620160, Note_on_c, 0, 75, 100
2, 620160, Note_on_c, 0, 62, 100
2, 620280, Note_on_c, 0, 108, 100
2, 620400, Note_on_c, 0, 100, 0
2, 620400, Note_on_c, 0, 98, 0
2, 620400, Note_on_c, 0, 88, 0
2, 620400, Note_on_c, 0, 86, 0
2, 620400, Note_on_c, 0, 75, 0
2, 620400, Note_on_c, 0, 62, 0
2, 620640, Note_on_c, 0, 100, 100
2, 620640, Note_on_c, 0, 98, 100
2, 620640, Note_on_c, 0, 88, 100
2, 620640, Note_on_c, 0, 86, 100
2, 620640, Note_on_c, 0, 75, 100
2, 620880, Note_on_c, 0, 100, 0
2, 620880, Note_on_c, 0, 98, 0
2, 620880, Note_on_c, 0, 88, 0
2, 620880, Note_on_c, 0, 86, 0
2, 620880, Note_on_c, 0, 75, 0
2, 621120, Note_on_c, 0, 100, 100
2, 621120, Note_on_c, 0, 98, 100
2, 621120, Note_on_c, 0, 88, 100
2, 621120, Note_on_c, 0, 86, 100
2, 621120, Note_on_c, 0, 75, 100
2, 621120, Note_on_c, 0, 62, 100
2, 621240, Note_on_c, 0, 108, 0
2, 621360, Note_on_c, 0, 100, 0
2, 621360, Note_on_c, 0, 98, 0
2, 621360, Note_on_c, 0, 88, 0
2, 621360, Note_on_c, 0, 86, 0
2, 621360, Note_on_c, 0, 75, 0
2, 621360, Note_on_c, 0, 62, 0
2, 621480, Note_on_c, 0, 108, 100
2, 622080, Note_on_c, 0, 98, 100
2, 622080, Note_on_c, 0, 97, 100
2, 622080, Note_on_c, 0, 86, 100
2, 622080, Note_on_c, 0, 85, 100
2, 622080, Note_on_c, 0, 73, 100
2, 622080, Note_on_c, 0, 61, 100
2, 622320, Note_on_c, 0, 98, 0
2, 622320, Note_on_c, 0, 97, 0
2, 622320, Note_on_c, 0, 86, 0
2, 622320, Note_on_c, 0, 85, 0
2, 622320, Note_on_c, 0, 73, 0
2, 622320, Note_on_c, 0, 61, 0
2, 623040, Note_on_c, 0, 98, 100
2, 623040, Note_on_c, 0, 97, 100
2, 623040, Note_on_c, 0, 86, 100
2, 623040, Note_on_c, 0, 85, 100
2, 623040, Note_on_c, 0, 73, 100
2, 623040, Note_on_c, 0, 61, 100
2, 623280, Note_on_c, 0, 98, 0
2, 623280, Note_on_c, 0, 97, 0
2, 623280, Note_on_c, 0, 86, 0
2, 623280, Note_on_c, 0, 85, 0
2, 623280, Note_on_c, 0, 73, 0
2, 623280, Note_on_c, 0, 61, 0
2, 623640, Note_on_c, 0, 108, 0
2, 624960, Note_on_c, 0, 98, 100
2, 624960, Note_on_c, 0, 97, 100
2, 624960, Note_on_c, 0, 86, 100
2, 624960, Note_on_c, 0, 85, 100
2, 624960, Note_on_c, 0, 73, 100
2, 624960, Note_on_c, 0, 61, 100
2, 625200, Note_on_c, 0, 98, 0
2, 625200, Note_on_c, 0, 97, 0
2, 625200, Note_on_c, 0, 86, 0
2, 625200, Note_on_c, 0, 85, 0
2, 625200, Note_on_c, 0, 73, 0
2, 625200, Note_on_c, 0, 61, 0
2, 626520, Note_on_c, 0, 108, 100
2, 626880, Note_on_c, 0, 98, 100
2, 626880, Note_on_c, 0, 97, 100
2, 626880, Note_on_c, 0, 86, 100
2, 626880, Note_on_c, 0, 85, 100
2, 626880, Note_on_c, 0, 73, 100
2, 626880, Note_on_c, 0, 61, 100
2, 627000, Note_on_c, 0, 108, 0
2, 627120, Note_on_c, 0, 98, 0
2, 627120, Note_on_c, 0, 97, 0
2, 627120, Note_on_c, 0, 86, 0
2, 627120, Note_on_c, 0, 85, 0
2, 627120, Note_on_c, 0, 73, 0
2, 627120, Note_on_c, 0, 61, 0
2, 627480, Note_on_c, 0, 108, 100
2, 627720, Note_on_c, 0, 108, 0
2, 627840, Note_on_c, 0, 98, 100
2, 627840, Note_on_c, 0, 97, 100
2, 627840, Note_on_c, 0, 86, 100
2, 627840, Note_on_c, 0, 85, 100
2, 627840, Note_on_c, 0, 73, 100
2, 627840, Note_on_c, 0, 61, 100
2, 627960, Note_on_c, 0, 108, 100
2, 628080, Note_on_c, 0, 98, 0
2, 628080, Note_on_c, 0, 97, 0
2, 628080, Note_on_c, 0, 86, 0
2, 628080, Note_on_c, 0, 85, 0
2, 628080, Note_on_c, 0, 73, 0
2, 628080, Note_on_c, 0, 61, 0
2, 628320, Note_on_c, 0, 98, 100
2, 628320, Note_on_c, 0, 97, 100
2, 628320, Note_on_c, 0, 86, 100
2, 628320, Note_on_c, 0, 85, 100
2, 628320, Note_on_c, 0, 73, 100
2, 628560, Note_on_c, 0, 98, 0
2, 628560, Note_on_c, 0, 97, 0
2, 628560, Note_on_c, 0, 86, 0
2, 628560, Note_on_c, 0, 85, 0
2, 628560, Note_on_c, 0, 73, 0
2, 628680, Note_on_c, 0, 108, 0
2, 628800, Note_on_c, 0, 98, 100
2, 628800, Note_on_c, 0, 97, 100
2, 628800, Note_on_c, 0, 86, 100
2, 628800, Note_on_c, 0, 85, 100
2, 628800, Note_on_c, 0, 73, 100
2, 628800, Note_on_c, 0, 61, 100
2, 628920, Note_on_c, 0, 108, 100
2, 629040, Note_on_c, 0, 98, 0
2, 629040, Note_on_c, 0, 97, 0
2, 629040, Note_on_c, 0, 86, 0
2, 629040, Note_on_c, 0, 85, 0
2, 629040, Note_on_c, 0, 73, 0
2, 629040, Note_on_c, 0, 61, 0
2, 629760, Note_on_c, 0, 100, 100
2, 629760, Note_on_c, 0, 98, 100
2, 629760, Note_on_c, 0, 88, 100
2, 629760, Note_on_c, 0, 86, 100
2, 629760, Note_on_c, 0, 75, 100
2, 629760, Note_on_c, 0, 62, 100
2, 630000, Note_on_c, 0, 100, 0
2, 630000, Note_on_c, 0, 98, 0
2, 630000, Note_on_c, 0, 88, 0
2, 630000, Note_on_c, 0, 86, 0
2, 630000, Note_on_c, 0, 75, 0
2, 630000, Note_on_c, 0, 62, 0
2, 630120, Note_on_c, 0, 108, 0
2, 630720, Note_on_c, 0, 100, 100
2, 630720, Note_on_c, 0, 98, 100
2, 630720, Note_on_c, 0, 88, 100
2, 630720, Note_on_c, 0, 86, 100
2, 630720, Note_on_c, 0, 75, 100
2, 630720, Note_on_c, 0, 62, 100
2, 630960, Note_on_c, 0, 100, 0
2, 630960, Note_on_c, 0, 98, 0
2, 630960, Note_on_c, 0, 88, 0
2, 630960, Note_on_c, 0, 86, 0
2, 630960, Note_on_c, 0, 75, 0
2, 630960, Note_on_c, 0, 62, 0
2, 632640, Note_on_c, 0, 100, 100
2, 632640, Note_on_c, 0, 98, 100
2, 632640, Note_on_c, 0, 88, 100
2, 632640, Note_on_c, 0, 86, 100
2, 632640, Note_on_c, 0, 75, 100
2, 632640, Note_on_c, 0, 62, 100
2, 632880, Note_on_c, 0, 100, 0
2, 632880, Note_on_c, 0, 98, 0
2, 632880, Note_on_c, 0, 88, 0
2, 632880, Note_on_c, 0, 86, 0
2, 632880, Note_on_c, 0, 75, 0
2, 632880, Note_on_c, 0, 62, 0
2, 634200, Note_on_c, 0, 108, 100
2, 634560, Note_on_c, 0, 100, 100
2, 634560, Note_on_c, 0, 98, 100
2, 634560, Note_on_c, 0, 88, 100
2, 634560, Note_on_c, 0, 86, 100
2, 634560, Note_on_c, 0, 75, 100
2, 634560, Note_on_c, 0, 62, 100
2, 634800, Note_on_c, 0, 100, 0
2, 634800, Note_on_c, 0, 98, 0
2, 634800, Note_on_c, 0, 88, 0
2, 634800, Note_on_c, 0, 86, 0
2, 634800, Note_on_c, 0, 75, 0
2, 634800, Note_on_c, 0, 62, 0
2, 634920, Note_on_c, 0, 108, 0
2, 635160, Note_on_c, 0, 108, 100
2, 635400, Note_on_c, 0, 108, 0
2, 635520, Note_on_c, 0, 100, 100
2, 635520, Note_on_c, 0, 98, 100
2, 635520, Note_on_c, 0, 88, 100
2, 635520, Note_on_c, 0, 86, 100
2, 635520, Note_on_c, 0, 75, 100
2, 635520, Note_on_c, 0, 62, 100
2, 635640, Note_on_c, 0, 108, 100
2, 635760, Note_on_c, 0, 100, 0
2, 635760, Note_on_c, 0, 98, 0
2, 635760, Note_on_c, 0, 88, 0
2, 635760, Note_on_c, 0, 86, 0
2, 635760, Note_on_c, 0, 75, 0
2, 635760, Note_on_c, 0, 62, 0
2, 636000, Note_on_c, 0, 100, 100
2, 636000, Note_on_c, 0, 98, 100
2, 636000, Note_on_c, 0, 88, 100
2, 636000, Note_on_c, 0, 86, 100
2, 636000, Note_on_c, 0, 75, 100
2, 636240, Note_on_c, 0, 100, 0
2, 636240, Note_on_c, 0, 98, 0
2, 636240, Note_on_c, 0, 88, 0
2, 636240, Note_on_c, 0, 86, 0
2, 636240, Note_on_c, 0, 75, 0
2, 636480, Note_on_c, 0, 100, 100
2, 636480, Note_on_c, 0, 98, 100
2, 636480, Note_on_c, 0, 88, 100
2, 636480, Note_on_c, 0, 86, 100
2, 636480, Note_on_c, 0, 75, 100
2, 636480, Note_on_c, 0, 62, 100
2, 636600, Note_on_c, 0, 108, 0
2, 636720, Note_on_c, 0, 100, 0
2, 636720, Note_on_c, 0, 98, 0
2, 636720, Note_on_c, 0, 88, 0
2, 636720, Note_on_c, 0, 86, 0
2, 636720, Note_on_c, 0, 75, 0
2, 636720, Note_on_c, 0, 62, 0
2, 636840, Note_on_c, 0, 108, 100
2, 637440, Note_on_c, 0, 99, 100
2, 637440, Note_on_c, 0, 97, 100
2, 637440, Note_on_c, 0, 87, 100
2, 637440, Note_on_c, 0, 85, 100
2, 637440, Note_on_c, 0, 74, 100
2, 637440, Note_on_c, 0, 73, 100
2, 637440, Note_on_c, 0, 61, 100
2, 637680, Note_on_c, 0, 99, 0
2, 637680, Note_on_c, 0, 97, 0
2, 637680, Note_on_c, 0, 87, 0
2, 637680, Note_on_c, 0, 85, 0
2, 637680, Note_on_c, 0, 74, 0
2, 637680, Note_on_c, 0, 73, 0
2, 637680, Note_on_c, 0, 61, 0
2, 638040, Note_on_c, 0, 108, 0
2, 638280, Note_on_c, 0, 108, 100
2, 638400, Note_on_c, 0, 99, 100
2, 638400, Note_on_c, 0, 97, 100
2, 638400, Note_on_c, 0, 87, 100
2, 638400, Note_on_c, 0, 85, 100
2, 638400, Note_on_c, 0, 74, 100
2, 638400, Note_on_c, 0, 73, 100
2, 638400, Note_on_c, 0, 61, 100
2, 638640, Note_on_c, 0, 99, 0
2, 638640, Note_on_c, 0, 97, 0
2, 638640, Note_on_c, 0, 87, 0
2, 638640, Note_on_c, 0, 85, 0
2, 638640, Note_on_c, 0, 74, 0
2, 638640, Note_on_c, 0, 73, 0
2, 638640, Note_on_c, 0, 61, 0
2, 639480, Note_on_c, 0, 108, 0
2, 639720, Note_on_c, 0, 108, 100
2, 640320, Note_on_c, 0, 99, 100
2, 640320, Note_on_c, 0, 97, 100
2, 640320, Note_on_c, 0, 87, 100
2, 640320, Note_on_c, 0, 85, 100
2, 640320, Note_on_c, 0, 74, 100
2, 640320, Note_on_c, 0, 73, 100
2, 640320, Note_on_c, 0, 61, 100
2, 640560, Note_on_c, 0, 99, 0
2, 640560, Note_on_c, 0, 97, 0
2, 640560, Note_on_c, 0, 87, 0
2, 640560, Note_on_c, 0, 85, 0
2, 640560, Note_on_c, 0, 74, 0
2, 640560, Note_on_c, 0, 73, 0
2, 640560, Note_on_c, 0, 61, 0
2, 641160, Note_on_c, 0, 108, 0
2, 641880, Note_on_c, 0, 108, 100
2, 642240, Note_on_c, 0, 99, 100
2, 642240, Note_on_c, 0, 97, 100
2, 642240, Note_on_c, 0, 87, 100
2, 642240, Note_on_c, 0, 85, 100
2, 642240, Note_on_c, 0, 74, 100
2, 642240, Note_on_c, 0, 73, 100
2, 642240, Note_on_c, 0, 61, 100
2, 642480, Note_on_c, 0, 99, 0
2, 642480, Note_on_c, 0, 97, 0
2, 642480, Note_on_c, 0, 87, 0
2, 642480, Note_on_c, 0, 85, 0
2, 642480, Note_on_c, 0, 74, 0
2, 642480, Note_on_c, 0, 73, 0
2, 642480, Note_on_c, 0, 61, 0
2, 642600, Note_on_c, 0, 108, 0
2, 642840, Note_on_c, 0, 108, 100
2, 643080, Note_on_c, 0, 108, 0
2, 643200, Note_on_c, 0, 99, 100
2, 643200, Note_on_c, 0, 97, 100
2, 643200, Note_on_c, 0, 87, 100
2, 643200, Note_on_c, 0, 85, 100
2, 643200, Note_on_c, 0, 74, 100
2, 643200, Note_on_c, 0, 73, 100
2, 643200, Note_on_c, 0, 61, 100
2, 643320, Note_on_c, 0, 108, 100
2, 643440, Note_on_c, 0, 99, 0
2, 643440, Note_on_c, 0, 97, 0
2, 643440, Note_on_c, 0, 87, 0
2, 643440, Note_on_c, 0, 85, 0
2, 643440, Note_on_c, 0, 74, 0
2, 643440, Note_on_c, 0, 73, 0
2, 643440, Note_on_c, 0, 61, 0
2, 643680, Note_on_c, 0, 99, 100
2, 643680, Note_on_c, 0, 97, 100
2, 643680, Note_on_c, 0, 87, 100
2, 643680, Note_on_c, 0, 85, 100
2, 643680, Note_on_c, 0, 74, 100
2, 643680, Note_on_c, 0, 73, 100
2, 643800, Note_on_c, 0, 108, 0
2, 643920, Note_on_c, 0, 99, 0
2, 643920, Note_on_c, 0, 97, 0
2, 643920, Note_on_c, 0, 87, 0
2, 643920, Note_on_c, 0, 85, 0
2, 643920, Note_on_c, 0, 74, 0
2, 643920, Note_on_c, 0, 73, 0
2, 644160, Note_on_c, 0, 99, 100
2, 644160, Note_on_c, 0, 97, 100
2, 644160, Note_on_c, 0, 87, 100
2, 644160, Note_on_c, 0, 85, 100
2, 644160, Note_on_c, 0, 74, 100
2, 644160, Note_on_c, 0, 73, 100
2, 644160, Note_on_c, 0, 61, 100
2, 644400, Note_on_c, 0, 99, 0
2, 644400, Note_on_c, 0, 97, 0
2, 644400, Note_on_c, 0, 87, 0
2, 644400, Note_on_c, 0, 85, 0
2, 644400, Note_on_c, 0, 74, 0
2, 644400, Note_on_c, 0, 73, 0
2, 644400, Note_on_c, 0, 61, 0
2, 645120, Note_on_c, 0, 100, 100
2, 645120, Note_on_c, 0, 98, 100
2, 645120, Note_on_c, 0, 88, 100
2, 645120, Note_on_c, 0, 86, 100
2, 645120, Note_on_c, 0, 75, 100
2, 645120, Note_on_c, 0, 62, 100
2, 645360, Note_on_c, 0, 100, 0
2, 645360, Note_on_c, 0, 98, 0
2, 645360, Note_on_c, 0, 88, 0
2, 645360, Note_on_c, 0, 86, 0
2, 645360, Note_on_c, 0, 75, 0
2, 645360, Note_on_c, 0, 62, 0
2, 646200, Note_on_c, 0, 108, 100
2, 646440, Note_on_c, 0, 108, 0
2, 646680, Note_on_c, 0, 108, 100
2, 646920, Note_on_c, 0, 108, 0
2, 647040, Note_on_c, 0, 98, 100
2, 647040, Note_on_c, 0, 97, 100
2, 647040, Note_on_c, 0, 86, 100
2, 647040, Note_on_c, 0, 85, 100
2, 647040, Note_on_c, 0, 73, 100
2, 647040, Note_on_c, 0, 61, 100
2, 647160, Note_on_c, 0, 108, 100
2, 647280, Note_on_c, 0, 98, 0
2, 647280, Note_on_c, 0, 97, 0
2, 647280, Note_on_c, 0, 86, 0
2, 647280, Note_on_c, 0, 85, 0
2, 647280, Note_on_c, 0, 73, 0
2, 647280, Note_on_c, 0, 61, 0
2, 648360, Note_on_c, 0, 108, 0
2, 648600, Note_on_c, 0, 108, 100
2, 648960, Note_on_c, 0, 99, 100
2, 648960, Note_on_c, 0, 98, 100
2, 648960, Note_on_c, 0, 87, 100
2, 648960, Note_on_c, 0, 86, 100
2, 648960, Note_on_c, 0, 74, 100
2, 648960, Note_on_c, 0, 62, 100
2, 649200, Note_on_c, 0, 99, 0
2, 649200, Note_on_c, 0, 98, 0
2, 649200, Note_on_c, 0, 87, 0
2, 649200, Note_on_c, 0, 86, 0
2, 649200, Note_on_c, 0, 74, 0
2, 649200, Note_on_c, 0, 62, 0
2, 649800, Note_on_c, 0, 108, 0
2, 650520, Note_on_c, 0, 108, 100
2, 650760, Note_on_c, 0, 108, 0
2, 650880, Note_on_c, 0, 99, 100
2, 650880, Note_on_c, 0, 97, 100
2, 650880, Note_on_c, 0, 87, 100
2, 650880, Note_on_c, 0, 85, 100
2, 650880, Note_on_c, 0, 74, 100
2, 650880, Note_on_c, 0, 73, 100
2, 650880, Note_on_c, 0, 61, 100
2, 651000, Note_on_c, 0, 108, 100
2, 651120, Note_on_c, 0, 99, 0
2, 651120, Note_on_c, 0, 97, 0
2, 651120, Note_on_c, 0, 87, 0
2, 651120, Note_on_c, 0, 85, 0
2, 651120, Note_on_c, 0, 74, 0
2, 651120, Note_on_c, 0, 73, 0
2, 651120, Note_on_c, 0, 61, 0
2, 651720, Note_on_c, 0, 108, 0
2, 651960, Note_on_c, 0, 108, 100
2, 652770, Text_t, "drum_allbeat"
2, 652800, Note_on_c, 0, 100, 100
2, 652800, Note_on_c, 0, 98, 100
2, 652800, Note_on_c, 0, 88, 100
2, 652800, Note_on_c, 0, 86, 100
2, 652800, Note_on_c, 0, 75, 100
2, 652800, Note_on_c, 0, 62, 100
2, 653040, Note_on_c, 0, 100, 0
2, 653040, Note_on_c, 0, 98, 0
2, 653040, Note_on_c, 0, 88, 0
2, 653040, Note_on_c, 0, 86, 0
2, 653040, Note_on_c, 0, 75, 0
2, 653040, Note_on_c, 0, 62, 0
2, 653760, Note_on_c, 0, 100, 100
2, 653760, Note_on_c, 0, 98, 100
2, 653760, Note_on_c, 0, 88, 100
2, 653760, Note_on_c, 0, 86, 100
2, 653760, Note_on_c, 0, 75, 100
2, 653760, Note_on_c, 0, 62, 100
2, 654000, Note_on_c, 0, 100, 0
2, 654000, Note_on_c, 0, 98, 0
2, 654000, Note_on_c, 0, 88, 0
2, 654000, Note_on_c, 0, 86, 0
2, 654000, Note_on_c, 0, 75, 0
2, 654000, Note_on_c, 0, 62, 0
2, 654120, Note_on_c, 0, 108, 0
2, 654720, Note_on_c, 0, 100, 100
2, 654720, Note_on_c, 0, 98, 100
2, 654720, Note_on_c, 0, 88, 100
2, 654720, Note_on_c, 0, 86, 100
2, 654720, Note_on_c, 0, 75, 100
2, 654720, Note_on_c, 0, 62, 100
2, 654960, Note_on_c, 0, 100, 0
2, 654960, Note_on_c, 0, 98, 0
2, 654960, Note_on_c, 0, 88, 0
2, 654960, Note_on_c, 0, 86, 0
2, 654960, Note_on_c, 0, 75, 0
2, 654960, Note_on_c, 0, 62, 0
2, 655200, Note_on_c, 0, 100, 100
2, 655200, Note_on_c, 0, 98, 100
2, 655200, Note_on_c, 0, 88, 100
2, 655200, Note_on_c, 0, 86, 100
2, 655200, Note_on_c, 0, 75, 100
2, 655440, Note_on_c, 0, 100, 0
2, 655440, Note_on_c, 0, 98, 0
2, 655440, Note_on_c, 0, 88, 0
2, 655440, Note_on_c, 0, 86, 0
2, 655440, Note_on_c, 0, 75, 0
2, 655680, Note_on_c, 0, 100, 100
2, 655680, Note_on_c, 0, 98, 100
2, 655920, Note_on_c, 0, 100, 0
2, 655920, Note_on_c, 0, 98, 0
2, 656160, Note_on_c, 0, 99, 100
2, 656160, Note_on_c, 0, 97, 100
2, 656160, Note_on_c, 0, 87, 100
2, 656160, Note_on_c, 0, 85, 100
2, 656160, Note_on_c, 0, 74, 100
2, 656160, Note_on_c, 0, 73, 100
2, 656160, Note_on_c, 0, 61, 100
2, 656400, Note_on_c, 0, 99, 0
2, 656400, Note_on_c, 0, 97, 0
2, 656400, Note_on_c, 0, 87, 0
2, 656400, Note_on_c, 0, 85, 0
2, 656400, Note_on_c, 0, 74, 0
2, 656400, Note_on_c, 0, 73, 0
2, 656400, Note_on_c, 0, 61, 0
2, 657240, Note_on_c, 0, 108, 100
2, 657600, Note_on_c, 0, 99, 100
2, 657600, Note_on_c, 0, 97, 100
2, 657600, Note_on_c, 0, 87, 100
2, 657600, Note_on_c, 0, 85, 100
2, 657600, Note_on_c, 0, 74, 100
2, 657600, Note_on_c, 0, 73, 100
2, 657600, Note_on_c, 0, 61, 100
2, 657840, Note_on_c, 0, 99, 0
2, 657840, Note_on_c, 0, 97, 0
2, 657840, Note_on_c, 0, 87, 0
2, 657840, Note_on_c, 0, 85, 0
2, 657840, Note_on_c, 0, 74, 0
2, 657840, Note_on_c, 0, 73, 0
2, 657840, Note_on_c, 0, 61, 0
2, 657960, Note_on_c, 0, 108, 0
2, 658200, Note_on_c, 0, 108, 100
2, 658440, Note_on_c, 0, 108, 0
2, 658560, Note_on_c, 0, 99, 100
2, 658560, Note_on_c, 0, 97, 100
2, 658560, Note_on_c, 0, 87, 100
2, 658560, Note_on_c, 0, 85, 100
2, 658560, Note_on_c, 0, 74, 100
2, 658560, Note_on_c, 0, 73, 100
2, 658560, Note_on_c, 0, 61, 100
2, 658680, Note_on_c, 0, 108, 100
2, 658800, Note_on_c, 0, 99, 0
2, 658800, Note_on_c, 0, 97, 0
2, 658800, Note_on_c, 0, 87, 0
2, 658800, Note_on_c, 0, 85, 0
2, 658800, Note_on_c, 0, 74, 0
2, 658800, Note_on_c, 0, 73, 0
2, 658800, Note_on_c, 0, 61, 0
2, 659040, Note_on_c, 0, 99, 100
2, 659040, Note_on_c, 0, 97, 100
2, 659040, Note_on_c, 0, 87, 100
2, 659040, Note_on_c, 0, 85, 100
2, 659040, Note_on_c, 0, 74, 100
2, 659040, Note_on_c, 0, 73, 100
2, 659280, Note_on_c, 0, 99, 0
2, 659280, Note_on_c, 0, 97, 0
2, 659280, Note_on_c, 0, 87, 0
2, 659280, Note_on_c, 0, 85, 0
2, 659280, Note_on_c, 0, 74, 0
2, 659280, Note_on_c, 0, 73, 0
2, 659400, Note_on_c, 0, 108, 0
2, 659520, Note_on_c, 0, 99, 100
2, 659520, Note_on_c, 0, 97, 100
2, 659520, Note_on_c, 0, 87, 100
2, 659520, Note_on_c, 0, 85, 100
2, 659520, Note_on_c, 0, 74, 100
2, 659520, Note_on_c, 0, 73, 100
2, 659520, Note_on_c, 0, 61, 100
2, 659640, Note_on_c, 0, 108, 100
2, 659760, Note_on_c, 0, 99, 0
2, 659760, Note_on_c, 0, 97, 0
2, 659760, Note_on_c, 0, 87, 0
2, 659760, Note_on_c, 0, 85, 0
2, 659760, Note_on_c, 0, 74, 0
2, 659760, Note_on_c, 0, 73, 0
2, 659760, Note_on_c, 0, 61, 0
2, 660480, Note_on_c, 0, 98, 100
2, 660480, Note_on_c, 0, 100, 100
2, 660480, Note_on_c, 0, 86, 100
2, 660480, Note_on_c, 0, 88, 100
2, 660480, Note_on_c, 0, 75, 100
2, 660480, Note_on_c, 0, 62, 100
2, 660720, Note_on_c, 0, 98, 0
2, 660720, Note_on_c, 0, 100, 0
2, 660720, Note_on_c, 0, 86, 0
2, 660720, Note_on_c, 0, 88, 0
2, 660720, Note_on_c, 0, 75, 0
2, 660720, Note_on_c, 0, 62, 0
2, 660840, Note_on_c, 0, 108, 0
2, 661440, Note_on_c, 0, 98, 100
2, 661440, Note_on_c, 0, 100, 100
2, 661440, Note_on_c, 0, 86, 100
2, 661440, Note_on_c, 0, 88, 100
2, 661440, Note_on_c, 0, 75, 100
2, 661440, Note_on_c, 0, 62, 100
2, 661680, Note_on_c, 0, 98, 0
2, 661680, Note_on_c, 0, 100, 0
2, 661680, Note_on_c, 0, 86, 0
2, 661680, Note_on_c, 0, 88, 0
2, 661680, Note_on_c, 0, 75, 0
2, 661680, Note_on_c, 0, 62, 0
2, 663360, Note_on_c, 0, 98, 100
2, 663360, Note_on_c, 0, 100, 100
2, 663360, Note_on_c, 0, 86, 100
2, 663360, Note_on_c, 0, 88, 100
2, 663360, Note_on_c, 0, 75, 100
2, 663360, Note_on_c, 0, 62, 100
2, 663600, Note_on_c, 0, 98, 0
2, 663600, Note_on_c, 0, 100, 0
2, 663600, Note_on_c, 0, 86, 0
2, 663600, Note_on_c, 0, 88, 0
2, 663600, Note_on_c, 0, 75, 0
2, 663600, Note_on_c, 0, 62, 0
2, 664290, Note_on_c, 0, 105, 0
2, 664290, Note_on_c, 0, 93, 0
2, 664290, Note_on_c, 0, 69, 0
2, 664290, Note_on_c, 0, 81, 0
2, 664920, Note_on_c, 0, 108, 100
2, 665280, Note_on_c, 0, 97, 100
2, 665280, Note_on_c, 0, 85, 100
2, 665280, Note_on_c, 0, 72, 100
2, 665280, Note_on_c, 0, 60, 100
2, 665520, Note_on_c, 0, 97, 0
2, 665520, Note_on_c, 0, 85, 0
2, 665520, Note_on_c, 0, 72, 0
2, 665520, Note_on_c, 0, 60, 0
2, 665640, Note_on_c, 0, 108, 0
2, 665880, Note_on_c, 0, 108, 100
2, 666120, Note_on_c, 0, 108, 0
2, 666240, Note_on_c, 0, 98, 100
2, 666240, Note_on_c, 0, 86, 100
2, 666240, Note_on_c, 0, 73, 100
2, 666240, Note_on_c, 0, 61, 100
2, 666360, Note_on_c, 0, 108, 100
2, 666480, Note_on_c, 0, 98, 0
2, 666480, Note_on_c, 0, 86, 0
2, 666480, Note_on_c, 0, 73, 0
2, 666480, Note_on_c, 0, 61, 0
2, 666720, Note_on_c, 0, 99, 100
2, 666720, Note_on_c, 0, 87, 100
2, 666720, Note_on_c, 0, 74, 100
2, 666960, Note_on_c, 0, 99, 0
2, 666960, Note_on_c, 0, 87, 0
2, 666960, Note_on_c, 0, 74, 0
2, 667080, Note_on_c, 0, 108, 0
2, 667200, Note_on_c, 0, 98, 100
2, 667200, Note_on_c, 0, 86, 100
2, 667200, Note_on_c, 0, 73, 100
2, 667320, Note_on_c, 0, 108, 100
2, 667440, Note_on_c, 0, 98, 0
2, 667440, Note_on_c, 0, 86, 0
2, 667440, Note_on_c, 0, 73, 0
2, 667680, Note_on_c, 0, 96, 100
2, 667680, Note_on_c, 0, 84, 100
2, 667920, Note_on_c, 0, 96, 0
2, 667920, Note_on_c, 0, 84, 0
2, 668130, Text_t, "[lighting ()]"
2, 668130, Text_t, "drum_double"
2, 668160, Note_on_c, 0, 98, 100
2, 668160, Note_on_c, 0, 86, 100
2, 668160, Note_on_c, 0, 73, 100
2, 668160, Note_on_c, 0, 61, 100
2, 668640, Note_on_c, 0, 108, 0
2, 668760, Note_on_c, 0, 108, 100
2, 669120, Note_on_c, 0, 108, 0
2, 669240, Note_on_c, 0, 108, 100
2, 669960, Note_on_c, 0, 108, 0
2, 672600, Note_on_c, 0, 108, 100
2, 672720, Note_on_c, 0, 98, 0
2, 672720, Note_on_c, 0, 86, 0
2, 672720, Note_on_c, 0, 73, 0
2, 672720, Note_on_c, 0, 61, 0
2, 672930, Note_on_c, 0, 106, 0
2, 672930, Note_on_c, 0, 94, 0
2, 672930, Note_on_c, 0, 70, 0
2, 672930, Note_on_c, 0, 82, 0
2, 672930, Note_on_c, 0, 105, 100
2, 672930, Note_on_c, 0, 93, 100
2, 672930, Note_on_c, 0, 69, 100
2, 672930, Note_on_c, 0, 81, 100
2, 672960, Note_on_c, 0, 98, 100
2, 672960, Note_on_c, 0, 86, 100
2, 672960, Note_on_c, 0, 73, 100
2, 672960, Note_on_c, 0, 61, 100
2, 673200, Note_on_c, 0, 98, 0
2, 673200, Note_on_c, 0, 86, 0
2, 673200, Note_on_c, 0, 73, 0
2, 673200, Note_on_c, 0, 61, 0
2, 673320, Note_on_c, 0, 108, 0
2, 673440, Note_on_c, 0, 99, 100
2, 673560, Note_on_c, 0, 108, 100
2, 673680, Note_on_c, 0, 99, 0
2, 673800, Note_on_c, 0, 108, 0
2, 673920, Note_on_c, 0, 99, 100
2, 673920, Note_on_c, 0, 87, 100
2, 673920, Note_on_c, 0, 74, 100
2, 673920, Note_on_c, 0, 62, 100
2, 674040, Note_on_c, 0, 108, 100
2, 674160, Note_on_c, 0, 99, 0
2, 674160, Note_on_c, 0, 87, 0
2, 674160, Note_on_c, 0, 74, 0
2, 674160, Note_on_c, 0, 62, 0
2, 674400, Note_on_c, 0, 100, 100
2, 674400, Note_on_c, 0, 88, 100
2, 674400, Note_on_c, 0, 75, 100
2, 674640, Note_on_c, 0, 100, 0
2, 674640, Note_on_c, 0, 88, 0
2, 674640, Note_on_c, 0, 75, 0
2, 674760, Note_on_c, 0, 108, 0
2, 674880, Note_on_c, 0, 99, 100
2, 674880, Note_on_c, 0, 87, 100
2, 674880, Note_on_c, 0, 74, 100
2, 675000, Note_on_c, 0, 108, 100
2, 675120, Note_on_c, 0, 99, 0
2, 675120, Note_on_c, 0, 87, 0
2, 675120, Note_on_c, 0, 74, 0
2, 675360, Note_on_c, 0, 97, 100
2, 675360, Note_on_c, 0, 85, 100
2, 675600, Note_on_c, 0, 97, 0
2, 675600, Note_on_c, 0, 85, 0
2, 675840, Note_on_c, 0, 98, 100
2, 675840, Note_on_c, 0, 86, 100
2, 675840, Note_on_c, 0, 73, 100
2, 675840, Note_on_c, 0, 61, 100
2, 677160, Note_on_c, 0, 108, 0
2, 679800, Note_on_c, 0, 108, 100
2, 680040, Note_on_c, 0, 108, 0
2, 680280, Note_on_c, 0, 108, 100
2, 680400, Note_on_c, 0, 98, 0
2, 680400, Note_on_c, 0, 86, 0
2, 680400, Note_on_c, 0, 73, 0
2, 680400, Note_on_c, 0, 61, 0
2, 680610, Note_on_c, 0, 105, 0
2, 680610, Note_on_c, 0, 93, 0
2, 680610, Note_on_c, 0, 69, 0
2, 680610, Note_on_c, 0, 81, 0
2, 680610, Note_on_c, 0, 106, 100
2, 680610, Note_on_c, 0, 94, 100
2, 680610, Note_on_c, 0, 70, 100
2, 680610, Note_on_c, 0, 82, 100
2, 680640, Note_on_c, 0, 99, 100
2, 680640, Note_on_c, 0, 87, 100
2, 680640, Note_on_c, 0, 74, 100
2, 680640, Note_on_c, 0, 61, 100
2, 680880, Note_on_c, 0, 99, 0
2, 680880, Note_on_c, 0, 87, 0
2, 680880, Note_on_c, 0, 74, 0
2, 680880, Note_on_c, 0, 61, 0
2, 681000, Note_on_c, 0, 108, 0
2, 681240, Note_on_c, 0, 108, 100
2, 681480, Note_on_c, 0, 108, 0
2, 681600, Note_on_c, 0, 100, 100
2, 681600, Note_on_c, 0, 88, 100
2, 681600, Note_on_c, 0, 75, 100
2, 681600, Note_on_c, 0, 62, 100
2, 681720, Note_on_c, 0, 108, 100
2, 681840, Note_on_c, 0, 100, 0
2, 681840, Note_on_c, 0, 88, 0
2, 681840, Note_on_c, 0, 75, 0
2, 681840, Note_on_c, 0, 62, 0
2, 682560, Note_on_c, 0, 99, 100
2, 682560, Note_on_c, 0, 87, 100
2, 682560, Note_on_c, 0, 74, 100
2, 682680, Note_on_c, 0, 108, 0
2, 682800, Note_on_c, 0, 99, 0
2, 682800, Note_on_c, 0, 87, 0
2, 682800, Note_on_c, 0, 74, 0
2, 682920, Note_on_c, 0, 108, 100
2, 683520, Note_on_c, 0, 98, 100
2, 683520, Note_on_c, 0, 86, 100
2, 683520, Note_on_c, 0, 73, 100
2, 683520, Note_on_c, 0, 61, 100
2, 685080, Note_on_c, 0, 108, 0
2, 686160, Note_on_c, 0, 98, 0
2, 686160, Note_on_c, 0, 86, 0
2, 686160, Note_on_c, 0, 73, 0
2, 686160, Note_on_c, 0, 61, 0
2, 686400, Note_on_c, 0, 97, 100
2, 686400, Note_on_c, 0, 85, 100
2, 686400, Note_on_c, 0, 72, 100
2, 686400, Note_on_c, 0, 60, 100
2, 686640, Note_on_c, 0, 72, 0
2, 686640, Note_on_c, 0, 60, 0
2, 687960, Note_on_c, 0, 108, 100
2, 688080, Note_on_c, 0, 97, 0
2, 688080, Note_on_c, 0, 85, 0
2, 688290, Note_on_c, 0, 106, 0
2, 688290, Note_on_c, 0, 94, 0
2, 688290, Note_on_c, 0, 70, 0
2, 688290, Note_on_c, 0, 82, 0
2, 688290, Note_on_c, 0, 105, 100
2, 688290, Note_on_c, 0, 93, 100
2, 688290, Note_on_c, 0, 69, 100
2, 688290, Note_on_c, 0, 81, 100
2, 688320, Note_on_c, 0, 96, 100
2, 688320, Note_on_c, 0, 84, 100
2, 688320, Note_on_c, 0, 72, 100
2, 688320, Note_on_c, 0, 60, 100
2, 688440, Note_on_c, 0, 108, 0
2, 688560, Note_on_c, 0, 96, 0
2, 688560, Note_on_c, 0, 84, 0
2, 688560, Note_on_c, 0, 72, 0
2, 688560, Note_on_c, 0, 60, 0
2, 688800, Note_on_c, 0, 97, 100
2, 688920, Note_on_c, 0, 108, 100
2, 689040, Note_on_c, 0, 97, 0
2, 689160, Note_on_c, 0, 108, 0
2, 689280, Note_on_c, 0, 98, 100
2, 689280, Note_on_c, 0, 86, 100
2, 689280, Note_on_c, 0, 73, 100
2, 689280, Note_on_c, 0, 61, 100
2, 689400, Note_on_c, 0, 108, 100
2, 689520, Note_on_c, 0, 98, 0
2, 689520, Note_on_c, 0, 86, 0
2, 689520, Note_on_c, 0, 73, 0
2, 689520, Note_on_c, 0, 61, 0
2, 689760, Note_on_c, 0, 99, 100
2, 689760, Note_on_c, 0, 87, 100
2, 689760, Note_on_c, 0, 74, 100
2, 690000, Note_on_c, 0, 99, 0
2, 690000, Note_on_c, 0, 87, 0
2, 690000, Note_on_c, 0, 74, 0
2, 690120, Note_on_c, 0, 108, 0
2, 690240, Note_on_c, 0, 98, 100
2, 690240, Note_on_c, 0, 86, 100
2, 690240, Note_on_c, 0, 73, 100
2, 690360, Note_on_c, 0, 108, 100
2, 690480, Note_on_c, 0, 98, 0
2, 690480, Note_on_c, 0, 86, 0
2, 690480, Note_on_c, 0, 73, 0
2, 690720, Note_on_c, 0, 97, 100
2, 690720, Note_on_c, 0, 85, 100
2, 690960, Note_on_c, 0, 97, 0
2, 690960, Note_on_c, 0, 85, 0
2, 691200, Note_on_c, 0, 98, 100
2, 691200, Note_on_c, 0, 86, 100
2, 691200, Note_on_c, 0, 73, 100
2, 691200, Note_on_c, 0, 61, 100
2, 691800, Note_on_c, 0, 108, 0
2, 695280, Note_on_c, 0, 98, 0
2, 695280, Note_on_c, 0, 86, 0
2, 695280, Note_on_c, 0, 73, 0
2, 695280, Note_on_c, 0, 61, 0
2, 695490, Note_on_c, 0, 105, 0
2, 695490, Note_on_c, 0, 93, 0
2, 695490, Note_on_c, 0, 69, 0
2, 695490, Note_on_c, 0, 81, 0
2, 695490, Note_on_c, 0, 106, 100
2, 695490, Note_on_c, 0, 94, 100
2, 695490, Note_on_c, 0, 70, 100
2, 695490, Note_on_c, 0, 82, 100
2, 695520, Note_on_c, 0, 98, 100
2, 695520, Note_on_c, 0, 86, 100
2, 695520, Note_on_c, 0, 73, 100
2, 695520, Note_on_c, 0, 61, 100
2, 695640, Note_on_c, 0, 108, 100
2, 695760, Note_on_c, 0, 98, 0
2, 695760, Note_on_c, 0, 86, 0
2, 695760, Note_on_c, 0, 73, 0
2, 695760, Note_on_c, 0, 61, 0
2, 696000, Note_on_c, 0, 99, 100
2, 696000, Note_on_c, 0, 87, 100
2, 696000, Note_on_c, 0, 74, 100
2, 696240, Note_on_c, 0, 99, 0
2, 696240, Note_on_c, 0, 87, 0
2, 696240, Note_on_c, 0, 74, 0
2, 696360, Note_on_c, 0, 108, 0
2, 696480, Note_on_c, 0, 98, 100
2, 696480, Note_on_c, 0, 86, 100
2, 696480, Note_on_c, 0, 73, 100
2, 696600, Note_on_c, 0, 108, 100
2, 696720, Note_on_c, 0, 98, 0
2, 696720, Note_on_c, 0, 86, 0
2, 696720, Note_on_c, 0, 73, 0
2, 696840, Note_on_c, 0, 108, 0
2, 697080, Note_on_c, 0, 108, 100
2, 697920, Note_on_c, 0, 98, 100
2, 697920, Note_on_c, 0, 86, 100
2, 697920, Note_on_c, 0, 73, 100
2, 698040, Note_on_c, 0, 108, 0
2, 698160, Note_on_c, 0, 98, 0
2, 698160, Note_on_c, 0, 86, 0
2, 698160, Note_on_c, 0, 73, 0
2, 698280, Note_on_c, 0, 108, 100
2, 698880, Note_on_c, 0, 97, 100
2, 698880, Note_on_c, 0, 85, 100
2, 698880, Note_on_c, 0, 72, 100
2, 698880, Note_on_c, 0, 60, 100
2, 699480, Note_on_c, 0, 108, 0
2, 699720, Note_on_c, 0, 108, 100
2, 700920, Note_on_c, 0, 108, 0
2, 701040, Note_on_c, 0, 97, 0
2, 701040, Note_on_c, 0, 85, 0
2, 701040, Note_on_c, 0, 72, 0
2, 701040, Note_on_c, 0, 60, 0
2, 701160, Note_on_c, 0, 108, 100
2, 701280, Note_on_c, 0, 98, 100
2, 701280, Note_on_c, 0, 86, 100
2, 701280, Note_on_c, 0, 73, 100
2, 701280, Note_on_c, 0, 61, 100
2, 702600, Note_on_c, 0, 108, 0
2, 703320, Note_on_c, 0, 108, 100
2, 703440, Note_on_c, 0, 98, 0
2, 703440, Note_on_c, 0, 86, 0
2, 703440, Note_on_c, 0, 73, 0
2, 703440, Note_on_c, 0, 61, 0
2, 703680, Note_on_c, 0, 99, 100
2, 703680, Note_on_c, 0, 87, 100
2, 703680, Note_on_c, 0, 74, 100
2, 703680, Note_on_c, 0, 62, 100
2, 703920, Note_on_c, 0, 99, 0
2, 703920, Note_on_c, 0, 87, 0
2, 703920, Note_on_c, 0, 74, 0
2, 703920, Note_on_c, 0, 62, 0
2, 704040, Note_on_c, 0, 108, 0
2, 704280, Note_on_c, 0, 108, 100
2, 704400, Note_on_c, 0, 100, 100
2, 704400, Note_on_c, 0, 88, 100
2, 704400, Note_on_c, 0, 75, 100
2, 704520, Note_on_c, 0, 108, 0
2, 704640, Note_on_c, 0, 100, 0
2, 704640, Note_on_c, 0, 88, 0
2, 704640, Note_on_c, 0, 75, 0
2, 704760, Note_on_c, 0, 108, 100
2, 705120, Note_on_c, 0, 99, 100
2, 705120, Note_on_c, 0, 87, 100
2, 705120, Note_on_c, 0, 74, 100
2, 705240, Note_on_c, 0, 108, 0
2, 705360, Note_on_c, 0, 99, 0
2, 705360, Note_on_c, 0, 87, 0
2, 705360, Note_on_c, 0, 74, 0
2, 706530, Note_on_c, 0, 106, 0
2, 706530, Note_on_c, 0, 94, 0
2, 706530, Note_on_c, 0, 70, 0
2, 706530, Note_on_c, 0, 82, 0
2, 706530, Note_on_c, 0, 105, 100
2, 706530, Note_on_c, 0, 93, 100
2, 706530, Note_on_c, 0, 69, 100
2, 706530, Note_on_c, 0, 81, 100
2, 706560, Note_on_c, 0, 98, 100
2, 706560, Note_on_c, 0, 100, 100
2, 706560, Note_on_c, 0, 86, 100
2, 706560, Note_on_c, 0, 88, 100
2, 706560, Note_on_c, 0, 75, 100
2, 706560, Note_on_c, 0, 62, 100
2, 706800, Note_on_c, 0, 98, 0
2, 706800, Note_on_c, 0, 100, 0
2, 706800, Note_on_c, 0, 86, 0
2, 706800, Note_on_c, 0, 88, 0
2, 706800, Note_on_c, 0, 75, 0
2, 706800, Note_on_c, 0, 62, 0
2, 707640, Note_on_c, 0, 108, 100
2, 707880, Note_on_c, 0, 108, 0
2, 708120, Note_on_c, 0, 108, 100
2, 708360, Note_on_c, 0, 108, 0
2, 708450, Note_on_c, 0, 105, 0
2, 708450, Note_on_c, 0, 93, 0
2, 708450, Note_on_c, 0, 69, 0
2, 708450, Note_on_c, 0, 81, 0
2, 708450, Note_on_c, 0, 106, 100
2, 708450, Note_on_c, 0, 94, 100
2, 708450, Note_on_c, 0, 70, 100
2, 708450, Note_on_c, 0, 82, 100
2, 708480, Note_on_c, 0, 97, 100
2, 708480, Note_on_c, 0, 98, 100
2, 708480, Note_on_c, 0, 85, 100
2, 708480, Note_on_c, 0, 86, 100
2, 708480, Note_on_c, 0, 73, 100
2, 708480, Note_on_c, 0, 61, 100
2, 708600, Note_on_c, 0, 108, 100
2, 708720, Note_on_c, 0, 97, 0
2, 708720, Note_on_c, 0, 98, 0
2, 708720, Note_on_c, 0, 85, 0
2, 708720, Note_on_c, 0, 86, 0
2, 708720, Note_on_c, 0, 73, 0
2, 708720, Note_on_c, 0, 61, 0
2, 709800, Note_on_c, 0, 108, 0
2, 710040, Note_on_c, 0, 108, 100
2, 710370, Note_on_c, 0, 106, 0
2, 710370, Note_on_c, 0, 94, 0
2, 710370, Note_on_c, 0, 70, 0
2, 710370, Note_on_c, 0, 82, 0
2, 710370, Note_on_c, 0, 105, 100
2, 710370, Note_on_c, 0, 93, 100
2, 710370, Note_on_c, 0, 69, 100
2, 710370, Note_on_c, 0, 81, 100
2, 710400, Note_on_c, 0, 98, 100
2, 710400, Note_on_c, 0, 99, 100
2, 710400, Note_on_c, 0, 86, 100
2, 710400, Note_on_c, 0, 87, 100
2, 710400, Note_on_c, 0, 74, 100
2, 710400, Note_on_c, 0, 62, 100
2, 710640, Note_on_c, 0, 98, 0
2, 710640, Note_on_c, 0, 99, 0
2, 710640, Note_on_c, 0, 86, 0
2, 710640, Note_on_c, 0, 87, 0
2, 710640, Note_on_c, 0, 74, 0
2, 710640, Note_on_c, 0, 62, 0
2, 711240, Note_on_c, 0, 108, 0
2, 711960, Note_on_c, 0, 108, 100
2, 712200, Note_on_c, 0, 108, 0
2, 712290, Note_on_c, 0, 105, 0
2, 712290, Note_on_c, 0, 93, 0
2, 712290, Note_on_c, 0, 69, 0
2, 712290, Note_on_c, 0, 81, 0
2, 712290, Note_on_c, 0, 106, 100
2, 712290, Note_on_c, 0, 94, 100
2, 712290, Note_on_c, 0, 70, 100
2, 712290, Note_on_c, 0, 82, 100
2, 712320, Note_on_c, 0, 97, 100
2, 712320, Note_on_c, 0, 99, 100
2, 712320, Note_on_c, 0, 85, 100
2, 712320, Note_on_c, 0, 87, 100
2, 712320, Note_on_c, 0, 73, 100
2, 712320, Note_on_c, 0, 74, 100
2, 712320, Note_on_c, 0, 61, 100
2, 712440, Note_on_c, 0, 108, 100
2, 712560, Note_on_c, 0, 97, 0
2, 712560, Note_on_c, 0, 99, 0
2, 712560, Note_on_c, 0, 85, 0
2, 712560, Note_on_c, 0, 87, 0
2, 712560, Note_on_c, 0, 73, 0
2, 712560, Note_on_c, 0, 74, 0
2, 712560, Note_on_c, 0, 61, 0
2, 713160, Note_on_c, 0, 108, 0
2, 713400, Note_on_c, 0, 108, 100
2, 714210, Text_t, "[lighting (sweep)]"
2, 714210, Text_t, "drum_allbeat"
2, 714210, Note_on_c, 0, 105, 100
2, 714210, Note_on_c, 0, 93, 100
2, 714210, Note_on_c, 0, 69, 100
2, 714210, Note_on_c, 0, 81, 100
2, 714240, Note_on_c, 0, 100, 100
2, 714240, Note_on_c, 0, 98, 100
2, 714240, Note_on_c, 0, 88, 100
2, 714240, Note_on_c, 0, 86, 100
2, 714240, Note_on_c, 0, 75, 100
2, 714240, Note_on_c, 0, 62, 100
2, 714480, Note_on_c, 0, 100, 0
2, 714480, Note_on_c, 0, 98, 0
2, 714480, Note_on_c, 0, 88, 0
2, 714480, Note_on_c, 0, 86, 0
2, 714480, Note_on_c, 0, 75, 0
2, 714480, Note_on_c, 0, 62, 0
2, 715200, Note_on_c, 0, 98, 100
2, 715200, Note_on_c, 0, 100, 100
2, 715200, Note_on_c, 0, 86, 100
2, 715200, Note_on_c, 0, 88, 100
2, 715200, Note_on_c, 0, 75, 100
2, 715200, Note_on_c, 0, 62, 100
2, 715440, Note_on_c, 0, 98, 0
2, 715440, Note_on_c, 0, 100, 0
2, 715440, Note_on_c, 0, 86, 0
2, 715440, Note_on_c, 0, 88, 0
2, 715440, Note_on_c, 0, 75, 0
2, 715440, Note_on_c, 0, 62, 0
2, 715560, Note_on_c, 0, 108, 0
2, 716160, Note_on_c, 0, 98, 100
2, 716160, Note_on_c, 0, 100, 100
2, 716160, Note_on_c, 0, 86, 100
2, 716160, Note_on_c, 0, 88, 100
2, 716160, Note_on_c, 0, 75, 100
2, 716160, Note_on_c, 0, 62, 100
2, 716400, Note_on_c, 0, 98, 0
2, 716400, Note_on_c, 0, 100, 0
2, 716400, Note_on_c, 0, 86, 0
2, 716400, Note_on_c, 0, 88, 0
2, 716400, Note_on_c, 0, 75, 0
2, 716400, Note_on_c, 0, 62, 0
2, 717120, Note_on_c, 0, 98, 100
2, 717120, Note_on_c, 0, 100, 100
2, 717120, Note_on_c, 0, 86, 100
2, 717120, Note_on_c, 0, 88, 100
2, 717120, Note_on_c, 0, 75, 100
2, 717120, Note_on_c, 0, 62, 100
2, 717360, Note_on_c, 0, 98, 0
2, 717360, Note_on_c, 0, 100, 0
2, 717360, Note_on_c, 0, 86, 0
2, 717360, Note_on_c, 0, 88, 0
2, 717360, Note_on_c, 0, 75, 0
2, 717360, Note_on_c, 0, 62, 0
2, 718080, Note_on_c, 0, 98, 100
2, 718080, Note_on_c, 0, 100, 100
2, 718080, Note_on_c, 0, 86, 100
2, 718080, Note_on_c, 0, 88, 100
2, 718080, Note_on_c, 0, 75, 100
2, 718080, Note_on_c, 0, 62, 100
2, 720930, Note_on_c, 0, 106, 0
2, 720930, Note_on_c, 0, 94, 0
2, 720930, Note_on_c, 0, 70, 0
2, 720930, Note_on_c, 0, 82, 0
2, 720930, Note_on_c, 0, 105, 0
2, 720930, Note_on_c, 0, 93, 0
2, 720930, Note_on_c, 0, 69, 0
2, 720930, Note_on_c, 0, 81, 0
2, 720958, Note_on_c, 0, 98, 0
2, 720958, Note_on_c, 0, 100, 0
2, 720958, Note_on_c, 0, 86, 0
2, 720958, Note_on_c, 0, 88, 0
2, 720958, Note_on_c, 0, 75, 0
2, 720958, Note_on_c, 0, 62, 0
2, 720958, End_track
3, 0, Start_track
3, 0, Title_t, "TRIGGERS"
3, 7680, Note_on_c, 4, 60, 100
3, 7680, Note_on_c, 4, 61, 100
3, 7680, Note_on_c, 0, 70, 100
3, 7920, Note_on_c, 4, 60, 0
3, 7920, Note_on_c, 4, 61, 0
3, 7920, Note_on_c, 0, 70, 0
3, 9120, Note_on_c, 0, 70, 100
3, 9360, Note_on_c, 0, 70, 0
3, 9600, Note_on_c, 4, 60, 100
3, 9840, Note_on_c, 4, 60, 0
3, 10080, Note_on_c, 4, 60, 100
3, 10320, Note_on_c, 4, 60, 0
3, 10560, Note_on_c, 0, 70, 100
3, 10800, Note_on_c, 0, 70, 0
3, 11520, Note_on_c, 4, 60, 100
3, 11520, Note_on_c, 4, 61, 100
3, 11520, Note_on_c, 0, 69, 100
3, 11760, Note_on_c, 4, 60, 0
3, 11760, Note_on_c, 4, 61, 0
3, 11760, Note_on_c, 0, 69, 0
3, 12960, Note_on_c, 4, 60, 100
3, 12960, Note_on_c, 4, 61, 100
3, 12960, Note_on_c, 0, 70, 100
3, 13200, Note_on_c, 4, 60, 0
3, 13200, Note_on_c, 4, 61, 0
3, 13200, Note_on_c, 0, 70, 0
3, 13920, Note_on_c, 4, 60, 100
3, 13920, Note_on_c, 4, 61, 100
3, 14160, Note_on_c, 4, 60, 0
3, 14160, Note_on_c, 4, 61, 0
3, 14400, Note_on_c, 0, 68, 100
3, 14640, Note_on_c, 0, 68, 0
3, 15360, Note_on_c, 4, 60, 100
3, 15360, Note_on_c, 4, 61, 100
3, 15360, Note_on_c, 0, 68, 100
3, 15600, Note_on_c, 4, 60, 0
3, 15600, Note_on_c, 4, 61, 0
3, 15600, Note_on_c, 0, 68, 0
3, 16800, Note_on_c, 4, 61, 100
3, 16800, Note_on_c, 0, 68, 100
3, 17040, Note_on_c, 4, 61, 0
3, 17040, Note_on_c, 0, 68, 0
3, 17280, Note_on_c, 4, 60, 100
3, 17520, Note_on_c, 4, 60, 0
3, 17760, Note_on_c, 4, 60, 100
3, 18000, Note_on_c, 4, 60, 0
3, 18240, Note_on_c, 4, 61, 100
3, 18240, Note_on_c, 0, 68, 100
3, 18480, Note_on_c, 4, 61, 0
3, 18480, Note_on_c, 0, 68, 0
3, 19200, Note_on_c, 4, 60, 100
3, 19200, Note_on_c, 4, 61, 100
3, 19200, Note_on_c, 0, 69, 100
3, 19440, Note_on_c, 4, 60, 0
3, 19440, Note_on_c, 4, 61, 0
3, 19440, Note_on_c, 0, 69, 0
3, 20640, Note_on_c, 4, 61, 100
3, 20640, Note_on_c, 0, 69, 100
3, 20880, Note_on_c, 4, 61, 0
3, 20880, Note_on_c, 0, 69, 0
3, 21120, Note_on_c, 4, 60, 100
3, 21360, Note_on_c, 4, 60, 0
3, 21600, Note_on_c, 4, 60, 100
3, 21840, Note_on_c, 4, 60, 0
3, 22080, Note_on_c, 4, 61, 100
3, 22080, Note_on_c, 0, 69, 100
3, 22320, Note_on_c, 4, 61, 0
3, 22320, Note_on_c, 0, 69, 0
3, 23040, Note_on_c, 4, 60, 100
3, 23040, Note_on_c, 4, 61, 100
3, 23040, Note_on_c, 0, 70, 100
3, 23280, Note_on_c, 4, 60, 0
3, 23280, Note_on_c, 4, 61, 0
3, 23280, Note_on_c, 0, 70, 0
3, 24000, Note_on_c, 0, 70, 100
3, 24240, Note_on_c, 0, 70, 0
3, 24960, Note_on_c, 4, 60, 100
3, 24960, Note_on_c, 0, 70, 100
3, 25200, Note_on_c, 4, 60, 0
3, 25200, Note_on_c, 0, 70, 0
3, 25440, Note_on_c, 4, 60, 100
3, 25680, Note_on_c, 4, 60, 0
3, 25920, Note_on_c, 0, 70, 100
3, 26160, Note_on_c, 0, 70, 0
3, 26880, Note_on_c, 4, 60, 100
3, 26880, Note_on_c, 4, 61, 100
3, 26880, Note_on_c, 0, 69, 100
3, 27120, Note_on_c, 4, 60, 0
3, 27120, Note_on_c, 4, 61, 0
3, 27120, Note_on_c, 0, 69, 0
3, 28320, Note_on_c, 4, 60, 100
3, 28320, Note_on_c, 4, 61, 100
3, 28320, Note_on_c, 0, 70, 100
3, 28560, Note_on_c, 4, 60, 0
3, 28560, Note_on_c, 4, 61, 0
3, 28560, Note_on_c, 0, 70, 0
3, 29280, Note_on_c, 4, 60, 100
3, 29280, Note_on_c, 4, 61, 100
3, 29520, Note_on_c, 4, 60, 0
3, 29520, Note_on_c, 4, 61, 0
3, 29760, Note_on_c, 0, 68, 100
3, 30000, Note_on_c, 0, 68, 0
3, 30720, Note_on_c, 4, 60, 100
3, 30720, Note_on_c, 4, 61, 100
3, 30720, Note_on_c, 0, 68, 100
3, 30960, Note_on_c, 4, 60, 0
3, 30960, Note_on_c, 4, 61, 0
3, 30960, Note_on_c, 0, 68, 0
3, 32160, Note_on_c, 4, 61, 100
3, 32160, Note_on_c, 0, 68, 100
3, 32400, Note_on_c, 4, 61, 0
3, 32400, Note_on_c, 0, 68, 0
3, 32640, Note_on_c, 4, 60, 100
3, 32880, Note_on_c, 4, 60, 0
3, 33120, Note_on_c, 4, 60, 100
3, 33360, Note_on_c, 4, 60, 0
3, 33600, Note_on_c, 4, 61, 100
3, 33600, Note_on_c, 0, 68, 100
3, 33840, Note_on_c, 4, 61, 0
3, 33840, Note_on_c, 0, 68, 0
3, 34560, Note_on_c, 4, 60, 100
3, 34560, Note_on_c, 4, 61, 100
3, 34560, Note_on_c, 0, 69, 100
3, 34800, Note_on_c, 4, 60, 0
3, 34800, Note_on_c, 4, 61, 0
3, 34800, Note_on_c, 0, 69, 0
3, 35520, Note_on_c, 4, 61, 100
3, 35520, Note_on_c, 0, 70, 100
3, 35760, Note_on_c, 4, 61, 0
3, 35760, Note_on_c, 0, 70, 0
3, 36480, Note_on_c, 4, 60, 100
3, 36480, Note_on_c, 4, 61, 100
3, 36480, Note_on_c, 0, 69, 100
3, 36720, Note_on_c, 4, 60, 0
3, 36720, Note_on_c, 4, 61, 0
3, 36720, Note_on_c, 0, 69, 0
3, 36960, Note_on_c, 4, 60, 100
3, 37200, Note_on_c, 4, 60, 0
3, 37440, Note_on_c, 4, 61, 100
3, 37440, Note_on_c, 0, 68, 100
3, 37680, Note_on_c, 4, 61, 0
3, 37680, Note_on_c, 0, 68, 0
3, 38400, Note_on_c, 4, 60, 100
3, 38640, Note_on_c, 4, 60, 0
3, 38880, Note_on_c, 4, 60, 100
3, 39120, Note_on_c, 4, 60, 0
3, 39360, Note_on_c, 4, 61, 100
3, 39360, Note_on_c, 0, 70, 100
3, 39600, Note_on_c, 4, 61, 0
3, 39600, Note_on_c, 0, 70, 0
3, 40320, Note_on_c, 4, 60, 100
3, 40560, Note_on_c, 4, 60, 0
3, 40800, Note_on_c, 4, 60, 100
3, 41040, Note_on_c, 4, 60, 0
3, 42240, Note_on_c, 4, 60, 100
3, 42240, Note_on_c, 4, 61, 100
3, 42240, Note_on_c, 0, 69, 100
3, 42480, Note_on_c, 4, 60, 0
3, 42480, Note_on_c, 4, 61, 0
3, 42480, Note_on_c, 0, 69, 0
3, 43680, Note_on_c, 4, 60, 100
3, 43680, Note_on_c, 4, 61, 100
3, 43680, Note_on_c, 0, 70, 100
3, 43920, Note_on_c, 4, 60, 0
3, 43920, Note_on_c, 4, 61, 0
3, 43920, Note_on_c, 0, 70, 0
3, 44640, Note_on_c, 4, 60, 100
3, 44640, Note_on_c, 4, 61, 100
3, 44880, Note_on_c, 4, 60, 0
3, 44880, Note_on_c, 4, 61, 0
3, 45120, Note_on_c, 0, 68, 100
3, 45360, Note_on_c, 0, 68, 0
3, 46080, Note_on_c, 4, 60, 100
3, 46080, Note_on_c, 4, 61, 100
3, 46080, Note_on_c, 0, 68, 100
3, 46320, Note_on_c, 4, 60, 0
3, 46320, Note_on_c, 4, 61, 0
3, 46320, Note_on_c, 0, 68, 0
3, 47520, Note_on_c, 4, 61, 100
3, 47520, Note_on_c, 0, 68, 100
3, 47760, Note_on_c, 4, 61, 0
3, 47760, Note_on_c, 0, 68, 0
3, 48000, Note_on_c, 4, 60, 100
3, 48240, Note_on_c, 4, 60, 0
3, 48480, Note_on_c, 4, 60, 100
3, 48720, Note_on_c, 4, 60, 0
3, 48960, Note_on_c, 4, 61, 100
3, 48960, Note_on_c, 0, 68, 100
3, 49200, Note_on_c, 4, 61, 0
3, 49200, Note_on_c, 0, 68, 0
3, 49920, Note_on_c, 4, 60, 100
3, 49920, Note_on_c, 4, 61, 100
3, 49920, Note_on_c, 0, 69, 100
3, 50160, Note_on_c, 4, 60, 0
3, 50160, Note_on_c, 4, 61, 0
3, 50160, Note_on_c, 0, 69, 0
3, 51360, Note_on_c, 4, 61, 100
3, 51360, Note_on_c, 0, 69, 100
3, 51600, Note_on_c, 4, 61, 0
3, 51600, Note_on_c, 0, 69, 0
3, 51840, Note_on_c, 4, 60, 100
3, 52080, Note_on_c, 4, 60, 0
3, 52320, Note_on_c, 4, 60, 100
3, 52560, Note_on_c, 4, 60, 0
3, 52800, Note_on_c, 4, 61, 100
3, 52800, Note_on_c, 0, 69, 100
3, 53040, Note_on_c, 4, 61, 0
3, 53040, Note_on_c, 0, 69, 0
3, 53760, Note_on_c, 4, 60, 100
3, 53760, Note_on_c, 4, 61, 100
3, 53760, Note_on_c, 0, 70, 100
3, 54000, Note_on_c, 4, 60, 0
3, 54000, Note_on_c, 4, 61, 0
3, 54000, Note_on_c, 0, 70, 0
3, 54720, Note_on_c, 0, 70, 100
3, 54960, Note_on_c, 0, 70, 0
3, 55680, Note_on_c, 4, 60, 100
3, 55680, Note_on_c, 0, 70, 100
3, 55920, Note_on_c, 4, 60, 0
3, 55920, Note_on_c, 0, 70, 0
3, 56160, Note_on_c, 4, 60, 100
3, 56400, Note_on_c, 4, 60, 0
3, 56640, Note_on_c, 0, 70, 100
3, 56880, Note_on_c, 0, 70, 0
3, 57600, Note_on_c, 4, 60, 100
3, 57600, Note_on_c, 4, 61, 100
3, 57600, Note_on_c, 0, 69, 100
3, 57840, Note_on_c, 4, 60, 0
3, 57840, Note_on_c, 4, 61, 0
3, 57840, Note_on_c, 0, 69, 0
3, 59040, Note_on_c, 4, 60, 100
3, 59040, Note_on_c, 4, 61, 100
3, 59040, Note_on_c, 0, 70, 100
3, 59280, Note_on_c, 4, 60, 0
3, 59280, Note_on_c, 4, 61, 0
3, 59280, Note_on_c, 0, 70, 0
3, 60000, Note_on_c, 4, 60, 100
3, 60000, Note_on_c, 4, 61, 100
3, 60240, Note_on_c, 4, 60, 0
3, 60240, Note_on_c, 4, 61, 0
3, 60480, Note_on_c, 0, 68, 100
3, 60720, Note_on_c, 0, 68, 0
3, 61440, Note_on_c, 4, 60, 100
3, 61440, Note_on_c, 4, 61, 100
3, 61440, Note_on_c, 0, 68, 100
3, 61680, Note_on_c, 4, 60, 0
3, 61680, Note_on_c, 4, 61, 0
3, 61680, Note_on_c, 0, 68, 0
3, 62880, Note_on_c, 4, 61, 100
3, 62880, Note_on_c, 0, 68, 100
3, 63120, Note_on_c, 4, 61, 0
3, 63120, Note_on_c, 0, 68, 0
3, 63360, Note_on_c, 4, 60, 100
3, 63600, Note_on_c, 4, 60, 0
3, 63840, Note_on_c, 4, 60, 100
3, 64080, Note_on_c, 4, 60, 0
3, 64320, Note_on_c, 4, 61, 100
3, 64320, Note_on_c, 0, 68, 100
3, 64560, Note_on_c, 4, 61, 0
3, 64560, Note_on_c, 0, 68, 0
3, 65280, Note_on_c, 4, 60, 100
3, 65280, Note_on_c, 4, 61, 100
3, 65280, Note_on_c, 0, 69, 100
3, 65520, Note_on_c, 4, 60, 0
3, 65520, Note_on_c, 4, 61, 0
3, 65520, Note_on_c, 0, 69, 0
3, 66720, Note_on_c, 4, 61, 100
3, 66720, Note_on_c, 0, 69, 100
3, 66960, Note_on_c, 4, 61, 0
3, 66960, Note_on_c, 0, 69, 0
3, 67200, Note_on_c, 4, 60, 100
3, 67440, Note_on_c, 4, 60, 0
3, 67680, Note_on_c, 4, 60, 100
3, 67920, Note_on_c, 4, 60, 0
3, 68160, Note_on_c, 4, 61, 100
3, 68160, Note_on_c, 0, 69, 100
3, 68400, Note_on_c, 4, 61, 0
3, 68400, Note_on_c, 0, 69, 0
3, 69120, Note_on_c, 4, 60, 100
3, 69120, Note_on_c, 4, 61, 100
3, 69120, Note_on_c, 0, 70, 100
3, 69360, Note_on_c, 4, 60, 0
3, 69360, Note_on_c, 4, 61, 0
3, 70560, Note_on_c, 4, 60, 100
3, 70560, Note_on_c, 4, 61, 100
3, 70800, Note_on_c, 4, 60, 0
3, 70800, Note_on_c, 4, 61, 0
3, 71520, Note_on_c, 4, 60, 100
3, 71760, Note_on_c, 4, 60, 0
3, 72000, Note_on_c, 4, 61, 100
3, 72240, Note_on_c, 4, 61, 0
3, 73440, Note_on_c, 4, 60, 100
3, 73680, Note_on_c, 4, 60, 0
3, 73920, Note_on_c, 4, 61, 100
3, 74160, Note_on_c, 4, 61, 0
3, 74880, Note_on_c, 4, 60, 100
3, 74880, Note_on_c, 4, 61, 100
3, 75120, Note_on_c, 4, 60, 0
3, 75120, Note_on_c, 4, 61, 0
3, 75840, Note_on_c, 4, 61, 100
3, 76080, Note_on_c, 4, 61, 0
3, 76800, Note_on_c, 4, 60, 100
3, 76800, Note_on_c, 4, 61, 100
3, 77040, Note_on_c, 4, 60, 0
3, 77040, Note_on_c, 4, 61, 0
3, 78240, Note_on_c, 4, 60, 100
3, 78240, Note_on_c, 4, 61, 100
3, 78480, Note_on_c, 4, 60, 0
3, 78480, Note_on_c, 4, 61, 0
3, 79200, Note_on_c, 4, 60, 100
3, 79440, Note_on_c, 0, 70, 0
3, 79440, Note_on_c, 4, 60, 0
3, 79680, Note_on_c, 4, 61, 100
3, 79680, Note_on_c, 0, 70, 100
3, 79920, Note_on_c, 4, 61, 0
3, 79920, Note_on_c, 0, 70, 0
3, 81120, Note_on_c, 4, 60, 100
3, 81360, Note_on_c, 4, 60, 0
3, 81600, Note_on_c, 4, 61, 100
3, 81840, Note_on_c, 4, 61, 0
3, 82560, Note_on_c, 4, 60, 100
3, 82560, Note_on_c, 4, 61, 100
3, 82800, Note_on_c, 4, 60, 0
3, 82800, Note_on_c, 4, 61, 0
3, 83520, Note_on_c, 4, 61, 100
3, 83760, Note_on_c, 4, 61, 0
3, 84480, Note_on_c, 4, 60, 100
3, 84480, Note_on_c, 4, 61, 100
3, 84480, Note_on_c, 0, 70, 100
3, 84720, Note_on_c, 4, 60, 0
3, 84720, Note_on_c, 4, 61, 0
3, 84720, Note_on_c, 0, 70, 0
3, 85920, Note_on_c, 4, 60, 100
3, 85920, Note_on_c, 4, 61, 100
3, 85920, Note_on_c, 0, 70, 100
3, 86160, Note_on_c, 4, 60, 0
3, 86160, Note_on_c, 4, 61, 0
3, 86160, Note_on_c, 0, 70, 0
3, 87360, Note_on_c, 4, 60, 100
3, 87360, Note_on_c, 4, 61, 100
3, 87360, Note_on_c, 0, 70, 100
3, 87600, Note_on_c, 4, 60, 0
3, 87600, Note_on_c, 4, 61, 0
3, 87600, Note_on_c, 0, 70, 0
3, 88800, Note_on_c, 4, 60, 100
3, 89040, Note_on_c, 4, 60, 0
3, 89280, Note_on_c, 4, 61, 100
3, 89280, Note_on_c, 0, 70, 100
3, 89520, Note_on_c, 4, 61, 0
3, 89520, Note_on_c, 0, 70, 0
3, 90240, Note_on_c, 4, 60, 100
3, 90240, Note_on_c, 4, 61, 100
3, 90240, Note_on_c, 0, 70, 100
3, 90480, Note_on_c, 4, 60, 0
3, 90480, Note_on_c, 4, 61, 0
3, 90480, Note_on_c, 0, 70, 0
3, 91200, Note_on_c, 4, 61, 100
3, 91200, Note_on_c, 0, 70, 100
3, 91440, Note_on_c, 4, 61, 0
3, 91440, Note_on_c, 0, 70, 0
3, 92160, Note_on_c, 4, 60, 100
3, 92160, Note_on_c, 4, 61, 100
3, 92160, Note_on_c, 0, 70, 100
3, 92400, Note_on_c, 4, 60, 0
3, 92400, Note_on_c, 4, 61, 0
3, 92400, Note_on_c, 0, 70, 0
3, 93600, Note_on_c, 4, 60, 100
3, 93600, Note_on_c, 4, 61, 100
3, 93600, Note_on_c, 0, 70, 100
3, 93840, Note_on_c, 4, 60, 0
3, 93840, Note_on_c, 4, 61, 0
3, 93840, Note_on_c, 0, 70, 0
3, 95040, Note_on_c, 4, 60, 100
3, 95040, Note_on_c, 4, 61, 100
3, 95040, Note_on_c, 0, 70, 100
3, 95280, Note_on_c, 4, 60, 0
3, 95280, Note_on_c, 4, 61, 0
3, 95280, Note_on_c, 0, 70, 0
3, 96480, Note_on_c, 4, 60, 100
3, 96720, Note_on_c, 4, 60, 0
3, 96960, Note_on_c, 4, 61, 100
3, 96960, Note_on_c, 0, 70, 100
3, 97200, Note_on_c, 4, 61, 0
3, 97200, Note_on_c, 0, 70, 0
3, 97920, Note_on_c, 4, 60, 100
3, 97920, Note_on_c, 4, 61, 100
3, 97920, Note_on_c, 0, 70, 100
3, 98160, Note_on_c, 4, 60, 0
3, 98160, Note_on_c, 4, 61, 0
3, 98160, Note_on_c, 0, 70, 0
3, 98880, Note_on_c, 4, 61, 100
3, 98880, Note_on_c, 0, 70, 100
3, 99120, Note_on_c, 4, 61, 0
3, 99120, Note_on_c, 0, 70, 0
3, 99840, Note_on_c, 4, 60, 100
3, 99840, Note_on_c, 4, 61, 100
3, 99840, Note_on_c, 0, 70, 100
3, 100080, Note_on_c, 4, 60, 0
3, 100080, Note_on_c, 4, 61, 0
3, 101280, Note_on_c, 4, 60, 100
3, 101280, Note_on_c, 4, 61, 100
3, 101520, Note_on_c, 4, 60, 0
3, 101520, Note_on_c, 4, 61, 0
3, 102240, Note_on_c, 4, 60, 100
3, 102480, Note_on_c, 4, 60, 0
3, 102720, Note_on_c, 4, 61, 100
3, 102960, Note_on_c, 4, 61, 0
3, 103680, Note_on_c, 4, 60, 100
3, 103920, Note_on_c, 4, 60, 0
3, 104160, Note_on_c, 4, 60, 100
3, 104400, Note_on_c, 4, 60, 0
3, 104640, Note_on_c, 4, 61, 100
3, 104880, Note_on_c, 4, 61, 0
3, 105600, Note_on_c, 4, 60, 100
3, 105600, Note_on_c, 4, 61, 100
3, 105840, Note_on_c, 4, 60, 0
3, 105840, Note_on_c, 4, 61, 0
3, 106560, Note_on_c, 4, 61, 100
3, 106800, Note_on_c, 4, 61, 0
3, 107520, Note_on_c, 4, 60, 100
3, 107520, Note_on_c, 4, 61, 100
3, 107760, Note_on_c, 4, 60, 0
3, 107760, Note_on_c, 4, 61, 0
3, 108960, Note_on_c, 4, 60, 100
3, 108960, Note_on_c, 4, 61, 100
3, 109200, Note_on_c, 4, 60, 0
3, 109200, Note_on_c, 4, 61, 0
3, 109920, Note_on_c, 4, 60, 100
3, 110160, Note_on_c, 4, 60, 0
3, 110400, Note_on_c, 4, 61, 100
3, 110640, Note_on_c, 4, 61, 0
3, 111840, Note_on_c, 4, 60, 100
3, 112080, Note_on_c, 4, 60, 0
3, 112320, Note_on_c, 4, 61, 100
3, 112560, Note_on_c, 4, 61, 0
3, 113280, Note_on_c, 0, 70, 0
3, 113280, Note_on_c, 4, 60, 100
3, 113280, Note_on_c, 4, 61, 100
3, 113520, Note_on_c, 4, 60, 0
3, 113520, Note_on_c, 4, 61, 0
3, 113760, Note_on_c, 0, 70, 100
3, 114000, Note_on_c, 0, 70, 0
3, 114240, Note_on_c, 4, 61, 100
3, 114480, Note_on_c, 4, 61, 0
3, 115200, Note_on_c, 4, 60, 100
3, 115200, Note_on_c, 4, 61, 100
3, 115200, Note_on_c, 0, 70, 100
3, 115440, Note_on_c, 4, 60, 0
3, 115440, Note_on_c, 4, 61, 0
3, 115440, Note_on_c, 0, 70, 0
3, 116640, Note_on_c, 4, 60, 100
3, 116640, Note_on_c, 4, 61, 100
3, 116640, Note_on_c, 0, 70, 100
3, 116880, Note_on_c, 4, 60, 0
3, 116880, Note_on_c, 4, 61, 0
3, 116880, Note_on_c, 0, 70, 0
3, 118080, Note_on_c, 4, 60, 100
3, 118080, Note_on_c, 4, 61, 100
3, 118080, Note_on_c, 0, 70, 100
3, 118320, Note_on_c, 4, 60, 0
3, 118320, Note_on_c, 4, 61, 0
3, 118320, Note_on_c, 0, 70, 0
3, 119520, Note_on_c, 4, 60, 100
3, 119760, Note_on_c, 4, 60, 0
3, 120000, Note_on_c, 4, 61, 100
3, 120000, Note_on_c, 0, 70, 100
3, 120240, Note_on_c, 4, 61, 0
3, 120240, Note_on_c, 0, 70, 0
3, 120960, Note_on_c, 4, 60, 100
3, 120960, Note_on_c, 4, 61, 100
3, 120960, Note_on_c, 0, 70, 100
3, 121200, Note_on_c, 4, 60, 0
3, 121200, Note_on_c, 4, 61, 0
3, 121200, Note_on_c, 0, 70, 0
3, 121920, Note_on_c, 4, 61, 100
3, 121920, Note_on_c, 0, 70, 100
3, 122160, Note_on_c, 4, 61, 0
3, 122160, Note_on_c, 0, 70, 0
3, 122880, Note_on_c, 4, 60, 100
3, 122880, Note_on_c, 4, 61, 100
3, 122880, Note_on_c, 0, 70, 100
3, 123120, Note_on_c, 4, 60, 0
3, 123120, Note_on_c, 4, 61, 0
3, 123120, Note_on_c, 0, 70, 0
3, 124320, Note_on_c, 4, 60, 100
3, 124320, Note_on_c, 4, 61, 100
3, 124320, Note_on_c, 0, 70, 100
3, 124560, Note_on_c, 4, 60, 0
3, 124560, Note_on_c, 4, 61, 0
3, 124560, Note_on_c, 0, 70, 0
3, 125760, Note_on_c, 4, 60, 100
3, 125760, Note_on_c, 4, 61, 100
3, 125760, Note_on_c, 0, 70, 100
3, 126000, Note_on_c, 4, 60, 0
3, 126000, Note_on_c, 4, 61, 0
3, 126000, Note_on_c, 0, 70, 0
3, 126720, Note_on_c, 4, 61, 100
3, 126720, Note_on_c, 0, 69, 100
3, 126960, Note_on_c, 4, 61, 0
3, 127200, Note_on_c, 4, 60, 100
3, 127440, Note_on_c, 4, 60, 0
3, 127680, Note_on_c, 4, 61, 100
3, 127920, Note_on_c, 4, 61, 0
3, 128640, Note_on_c, 4, 60, 100
3, 128640, Note_on_c, 4, 61, 100
3, 128880, Note_on_c, 4, 60, 0
3, 128880, Note_on_c, 4, 61, 0
3, 129600, Note_on_c, 4, 61, 100
3, 129840, Note_on_c, 4, 61, 0
3, 130080, Note_on_c, 0, 69, 0
3, 130560, Note_on_c, 4, 60, 100
3, 130560, Note_on_c, 4, 61, 100
3, 130560, Note_on_c, 0, 70, 100
3, 130800, Note_on_c, 4, 60, 0
3, 130800, Note_on_c, 4, 61, 0
3, 130800, Note_on_c, 0, 70, 0
3, 131520, Note_on_c, 4, 61, 100
3, 131520, Note_on_c, 0, 70, 100
3, 131760, Note_on_c, 4, 61, 0
3, 131760, Note_on_c, 0, 70, 0
3, 132480, Note_on_c, 4, 60, 100
3, 132480, Note_on_c, 4, 61, 100
3, 132480, Note_on_c, 0, 70, 100
3, 132720, Note_on_c, 4, 60, 0
3, 132720, Note_on_c, 4, 61, 0
3, 132720, Note_on_c, 0, 70, 0
3, 132960, Note_on_c, 4, 60, 100
3, 132960, Note_on_c, 4, 61, 100
3, 133200, Note_on_c, 4, 60, 0
3, 133200, Note_on_c, 4, 61, 0
3, 133440, Note_on_c, 4, 61, 100
3, 133680, Note_on_c, 4, 61, 0
3, 133920, Note_on_c, 4, 60, 100
3, 133920, Note_on_c, 4, 61, 100
3, 133920, Note_on_c, 0, 69, 100
3, 134160, Note_on_c, 4, 60, 0
3, 134160, Note_on_c, 4, 61, 0
3, 134160, Note_on_c, 0, 69, 0
3, 134880, Note_on_c, 4, 60, 100
3, 135120, Note_on_c, 4, 60, 0
3, 135360, Note_on_c, 4, 61, 100
3, 135360, Note_on_c, 0, 69, 100
3, 135600, Note_on_c, 4, 61, 0
3, 135600, Note_on_c, 0, 69, 0
3, 136320, Note_on_c, 4, 60, 100
3, 136320, Note_on_c, 4, 61, 100
3, 136320, Note_on_c, 0, 69, 100
3, 136560, Note_on_c, 4, 60, 0
3, 136560, Note_on_c, 4, 61, 0
3, 136560, Note_on_c, 0, 69, 0
3, 136800, Note_on_c, 4, 60, 100
3, 137040, Note_on_c, 4, 60, 0
3, 137280, Note_on_c, 4, 61, 100
3, 137280, Note_on_c, 0, 69, 100
3, 137520, Note_on_c, 4, 61, 0
3, 137520, Note_on_c, 0, 69, 0
3, 138240, Note_on_c, 4, 60, 100
3, 138240, Note_on_c, 4, 61, 100
3, 138240, Note_on_c, 0, 70, 100
3, 138480, Note_on_c, 4, 60, 0
3, 138480, Note_on_c, 4, 61, 0
3, 138480, Note_on_c, 0, 70, 0
3, 139200, Note_on_c, 4, 61, 100
3, 139200, Note_on_c, 0, 70, 100
3, 139440, Note_on_c, 4, 61, 0
3, 139440, Note_on_c, 0, 70, 0
3, 140160, Note_on_c, 4, 60, 100
3, 140160, Note_on_c, 4, 61, 100
3, 140160, Note_on_c, 0, 70, 100
3, 140400, Note_on_c, 4, 60, 0
3, 140400, Note_on_c, 4, 61, 0
3, 140400, Note_on_c, 0, 70, 0
3, 140640, Note_on_c, 4, 60, 100
3, 140640, Note_on_c, 4, 61, 100
3, 140880, Note_on_c, 4, 60, 0
3, 140880, Note_on_c, 4, 61, 0
3, 141120, Note_on_c, 4, 61, 100
3, 141360, Note_on_c, 4, 61, 0
3, 141600, Note_on_c, 4, 60, 100
3, 141600, Note_on_c, 4, 61, 100
3, 141600, Note_on_c, 0, 69, 100
3, 141840, Note_on_c, 4, 60, 0
3, 141840, Note_on_c, 4, 61, 0
3, 141840, Note_on_c, 0, 69, 0
3, 142560, Note_on_c, 4, 60, 100
3, 142800, Note_on_c, 4, 60, 0
3, 143040, Note_on_c, 4, 61, 100
3, 143040, Note_on_c, 0, 69, 100
3, 143280, Note_on_c, 4, 61, 0
3, 143280, Note_on_c, 0, 69, 0
3, 144000, Note_on_c, 4, 60, 100
3, 144000, Note_on_c, 4, 61, 100
3, 144000, Note_on_c, 0, 69, 100
3, 144240, Note_on_c, 4, 60, 0
3, 144240, Note_on_c, 4, 61, 0
3, 144240, Note_on_c, 0, 69, 0
3, 144480, Note_on_c, 4, 60, 100
3, 144720, Note_on_c, 4, 60, 0
3, 144960, Note_on_c, 4, 61, 100
3, 144960, Note_on_c, 0, 69, 100
3, 145200, Note_on_c, 4, 61, 0
3, 145200, Note_on_c, 0, 69, 0
3, 145920, Note_on_c, 4, 60, 100
3, 145920, Note_on_c, 4, 61, 100
3, 145920, Note_on_c, 0, 70, 100
3, 146160, Note_on_c, 4, 60, 0
3, 146160, Note_on_c, 4, 61, 0
3, 146160, Note_on_c, 0, 70, 0
3, 146880, Note_on_c, 4, 61, 100
3, 146880, Note_on_c, 0, 70, 100
3, 147120, Note_on_c, 4, 61, 0
3, 147120, Note_on_c, 0, 70, 0
3, 147840, Note_on_c, 4, 60, 100
3, 147840, Note_on_c, 4, 61, 100
3, 147840, Note_on_c, 0, 70, 100
3, 148080, Note_on_c, 4, 60, 0
3, 148080, Note_on_c, 4, 61, 0
3, 148080, Note_on_c, 0, 70, 0
3, 148320, Note_on_c, 4, 60, 100
3, 148320, Note_on_c, 4, 61, 100
3, 148560, Note_on_c, 4, 60, 0
3, 148560, Note_on_c, 4, 61, 0
3, 148800, Note_on_c, 4, 61, 100
3, 149040, Note_on_c, 4, 61, 0
3, 149280, Note_on_c, 4, 60, 100
3, 149280, Note_on_c, 4, 61, 100
3, 149280, Note_on_c, 0, 69, 100
3, 149520, Note_on_c, 4, 60, 0
3, 149520, Note_on_c, 4, 61, 0
3, 149520, Note_on_c, 0, 69, 0
3, 150240, Note_on_c, 4, 60, 100
3, 150480, Note_on_c, 4, 60, 0
3, 150720, Note_on_c, 4, 61, 100
3, 150720, Note_on_c, 0, 69, 100
3, 150960, Note_on_c, 4, 61, 0
3, 150960, Note_on_c, 0, 69, 0
3, 151680, Note_on_c, 4, 60, 100
3, 151680, Note_on_c, 4, 61, 100
3, 151680, Note_on_c, 0, 69, 100
3, 151920, Note_on_c, 4, 60, 0
3, 151920, Note_on_c, 4, 61, 0
3, 151920, Note_on_c, 0, 69, 0
3, 152160, Note_on_c, 4, 60, 100
3, 152400, Note_on_c, 4, 60, 0
3, 152640, Note_on_c, 4, 61, 100
3, 152640, Note_on_c, 0, 69, 100
3, 152880, Note_on_c, 4, 61, 0
3, 152880, Note_on_c, 0, 69, 0
3, 153120, Note_on_c, 4, 60, 100
3, 153360, Note_on_c, 4, 60, 0
3, 153600, Note_on_c, 4, 60, 100
3, 153600, Note_on_c, 4, 61, 100
3, 153600, Note_on_c, 0, 70, 100
3, 153840, Note_on_c, 4, 60, 0
3, 153840, Note_on_c, 4, 61, 0
3, 153840, Note_on_c, 0, 70, 0
3, 154560, Note_on_c, 4, 61, 100
3, 154560, Note_on_c, 0, 70, 100
3, 154800, Note_on_c, 4, 61, 0
3, 154800, Note_on_c, 0, 70, 0
3, 155520, Note_on_c, 4, 60, 100
3, 155520, Note_on_c, 4, 61, 100
3, 155520, Note_on_c, 0, 70, 100
3, 155760, Note_on_c, 4, 60, 0
3, 155760, Note_on_c, 4, 61, 0
3, 155760, Note_on_c, 0, 70, 0
3, 156000, Note_on_c, 4, 60, 100
3, 156000, Note_on_c, 4, 61, 100
3, 156240, Note_on_c, 4, 60, 0
3, 156240, Note_on_c, 4, 61, 0
3, 156480, Note_on_c, 4, 61, 100
3, 156720, Note_on_c, 4, 61, 0
3, 156960, Note_on_c, 4, 60, 100
3, 156960, Note_on_c, 4, 61, 100
3, 156960, Note_on_c, 0, 69, 100
3, 157200, Note_on_c, 4, 60, 0
3, 157200, Note_on_c, 4, 61, 0
3, 157200, Note_on_c, 0, 69, 0
3, 157440, Note_on_c, 4, 60, 100
3, 157440, Note_on_c, 4, 61, 100
3, 157680, Note_on_c, 4, 60, 0
3, 157680, Note_on_c, 4, 61, 0
3, 158400, Note_on_c, 4, 61, 100
3, 158400, Note_on_c, 0, 69, 100
3, 158640, Note_on_c, 4, 61, 0
3, 158640, Note_on_c, 0, 69, 0
3, 159360, Note_on_c, 4, 60, 100
3, 159360, Note_on_c, 4, 61, 100
3, 159360, Note_on_c, 0, 70, 100
3, 159600, Note_on_c, 4, 60, 0
3, 159600, Note_on_c, 4, 61, 0
3, 159600, Note_on_c, 0, 70, 0
3, 159840, Note_on_c, 4, 60, 100
3, 160080, Note_on_c, 4, 60, 0
3, 160320, Note_on_c, 4, 61, 100
3, 160320, Note_on_c, 0, 69, 100
3, 160560, Note_on_c, 4, 61, 0
3, 160560, Note_on_c, 0, 69, 0
3, 161280, Note_on_c, 4, 60, 100
3, 161280, Note_on_c, 4, 61, 100
3, 161280, Note_on_c, 0, 70, 100
3, 161520, Note_on_c, 4, 60, 0
3, 161520, Note_on_c, 4, 61, 0
3, 161520, Note_on_c, 0, 70, 0
3, 162240, Note_on_c, 4, 61, 100
3, 162240, Note_on_c, 0, 70, 100
3, 162480, Note_on_c, 4, 61, 0
3, 162480, Note_on_c, 0, 70, 0
3, 163200, Note_on_c, 4, 60, 100
3, 163440, Note_on_c, 4, 60, 0
3, 163680, Note_on_c, 4, 60, 100
3, 163920, Note_on_c, 4, 60, 0
3, 164160, Note_on_c, 4, 61, 100
3, 164160, Note_on_c, 0, 70, 100
3, 164400, Note_on_c, 4, 61, 0
3, 164400, Note_on_c, 0, 70, 0
3, 165120, Note_on_c, 4, 60, 100
3, 165360, Note_on_c, 4, 60, 0
3, 166080, Note_on_c, 4, 61, 100
3, 166080, Note_on_c, 0, 70, 100
3, 166320, Note_on_c, 4, 61, 0
3, 166320, Note_on_c, 0, 70, 0
3, 167040, Note_on_c, 4, 60, 100
3, 167040, Note_on_c, 4, 61, 100
3, 167040, Note_on_c, 0, 70, 100
3, 167280, Note_on_c, 4, 60, 0
3, 167280, Note_on_c, 4, 61, 0
3, 167280, Note_on_c, 0, 70, 0
3, 167520, Note_on_c, 4, 60, 100
3, 167760, Note_on_c, 4, 60, 0
3, 168000, Note_on_c, 4, 61, 100
3, 168000, Note_on_c, 0, 70, 100
3, 168240, Note_on_c, 4, 61, 0
3, 168240, Note_on_c, 0, 70, 0
3, 168960, Note_on_c, 4, 60, 100
3, 168960, Note_on_c, 4, 61, 100
3, 168960, Note_on_c, 0, 69, 100
3, 169200, Note_on_c, 4, 60, 0
3, 169200, Note_on_c, 4, 61, 0
3, 169200, Note_on_c, 0, 69, 0
3, 169920, Note_on_c, 4, 61, 100
3, 169920, Note_on_c, 0, 69, 100
3, 170160, Note_on_c, 4, 61, 0
3, 170160, Note_on_c, 0, 69, 0
3, 170880, Note_on_c, 4, 60, 100
3, 171120, Note_on_c, 4, 60, 0
3, 171360, Note_on_c, 4, 60, 100
3, 171600, Note_on_c, 4, 60, 0
3, 171840, Note_on_c, 4, 61, 100
3, 171840, Note_on_c, 0, 69, 100
3, 172080, Note_on_c, 4, 61, 0
3, 172080, Note_on_c, 0, 69, 0
3, 172800, Note_on_c, 4, 60, 100
3, 173040, Note_on_c, 4, 60, 0
3, 173760, Note_on_c, 4, 61, 100
3, 173760, Note_on_c, 0, 69, 100
3, 174000, Note_on_c, 4, 61, 0
3, 174000, Note_on_c, 0, 69, 0
3, 174720, Note_on_c, 4, 60, 100
3, 174720, Note_on_c, 4, 61, 100
3, 174720, Note_on_c, 0, 69, 100
3, 174960, Note_on_c, 4, 60, 0
3, 174960, Note_on_c, 4, 61, 0
3, 174960, Note_on_c, 0, 69, 0
3, 175200, Note_on_c, 4, 60, 100
3, 175440, Note_on_c, 4, 60, 0
3, 175680, Note_on_c, 4, 61, 100
3, 175680, Note_on_c, 0, 69, 100
3, 175920, Note_on_c, 4, 61, 0
3, 175920, Note_on_c, 0, 69, 0
3, 176640, Note_on_c, 4, 60, 100
3, 176640, Note_on_c, 4, 61, 100
3, 176640, Note_on_c, 0, 70, 100
3, 176880, Note_on_c, 4, 60, 0
3, 176880, Note_on_c, 4, 61, 0
3, 176880, Note_on_c, 0, 70, 0
3, 177600, Note_on_c, 4, 61, 100
3, 177600, Note_on_c, 0, 70, 100
3, 177840, Note_on_c, 4, 61, 0
3, 177840, Note_on_c, 0, 70, 0
3, 178560, Note_on_c, 4, 60, 100
3, 178800, Note_on_c, 4, 60, 0
3, 179040, Note_on_c, 4, 60, 100
3, 179280, Note_on_c, 4, 60, 0
3, 179520, Note_on_c, 4, 61, 100
3, 179520, Note_on_c, 0, 70, 100
3, 179760, Note_on_c, 4, 61, 0
3, 179760, Note_on_c, 0, 70, 0
3, 180480, Note_on_c, 4, 60, 100
3, 180720, Note_on_c, 4, 60, 0
3, 181440, Note_on_c, 4, 61, 100
3, 181440, Note_on_c, 0, 70, 100
3, 181680, Note_on_c, 4, 61, 0
3, 181680, Note_on_c, 0, 70, 0
3, 182400, Note_on_c, 4, 60, 100
3, 182400, Note_on_c, 4, 61, 100
3, 182400, Note_on_c, 0, 70, 100
3, 182640, Note_on_c, 4, 60, 0
3, 182640, Note_on_c, 4, 61, 0
3, 182640, Note_on_c, 0, 70, 0
3, 182880, Note_on_c, 4, 60, 100
3, 183120, Note_on_c, 4, 60, 0
3, 183360, Note_on_c, 4, 61, 100
3, 183360, Note_on_c, 0, 70, 100
3, 183600, Note_on_c, 4, 61, 0
3, 183600, Note_on_c, 0, 70, 0
3, 184320, Note_on_c, 4, 60, 100
3, 184320, Note_on_c, 4, 61, 100
3, 184320, Note_on_c, 0, 69, 100
3, 184560, Note_on_c, 4, 60, 0
3, 184560, Note_on_c, 4, 61, 0
3, 184560, Note_on_c, 0, 69, 0
3, 185280, Note_on_c, 4, 61, 100
3, 185280, Note_on_c, 0, 69, 100
3, 185520, Note_on_c, 4, 61, 0
3, 185520, Note_on_c, 0, 69, 0
3, 186240, Note_on_c, 4, 60, 100
3, 186480, Note_on_c, 4, 60, 0
3, 186720, Note_on_c, 4, 60, 100
3, 186960, Note_on_c, 4, 60, 0
3, 187200, Note_on_c, 4, 61, 100
3, 187200, Note_on_c, 0, 69, 100
3, 187440, Note_on_c, 4, 61, 0
3, 187440, Note_on_c, 0, 69, 0
3, 188160, Note_on_c, 4, 60, 100
3, 188400, Note_on_c, 4, 60, 0
3, 189120, Note_on_c, 4, 61, 100
3, 189120, Note_on_c, 0, 69, 100
3, 189360, Note_on_c, 4, 61, 0
3, 189360, Note_on_c, 0, 69, 0
3, 190080, Note_on_c, 4, 60, 100
3, 190080, Note_on_c, 4, 61, 100
3, 190080, Note_on_c, 0, 69, 100
3, 190320, Note_on_c, 4, 60, 0
3, 190320, Note_on_c, 4, 61, 0
3, 190320, Note_on_c, 0, 69, 0
3, 190560, Note_on_c, 4, 60, 100
3, 190800, Note_on_c, 4, 60, 0
3, 191040, Note_on_c, 4, 61, 100
3, 191040, Note_on_c, 0, 69, 100
3, 191280, Note_on_c, 4, 61, 0
3, 191280, Note_on_c, 0, 69, 0
3, 192000, Note_on_c, 4, 60, 100
3, 192000, Note_on_c, 4, 61, 100
3, 192000, Note_on_c, 0, 70, 100
3, 192240, Note_on_c, 4, 60, 0
3, 192240, Note_on_c, 4, 61, 0
3, 192240, Note_on_c, 0, 70, 0
3, 192960, Note_on_c, 4, 61, 100
3, 192960, Note_on_c, 0, 70, 100
3, 193200, Note_on_c, 4, 61, 0
3, 193200, Note_on_c, 0, 70, 0
3, 193920, Note_on_c, 4, 60, 100
3, 194160, Note_on_c, 4, 60, 0
3, 194400, Note_on_c, 4, 60, 100
3, 194640, Note_on_c, 4, 60, 0
3, 194880, Note_on_c, 4, 61, 100
3, 194880, Note_on_c, 0, 70, 100
3, 195120, Note_on_c, 4, 61, 0
3, 195120, Note_on_c, 0, 70, 0
3, 195840, Note_on_c, 4, 60, 100
3, 196080, Note_on_c, 4, 60, 0
3, 196800, Note_on_c, 4, 61, 100
3, 196800, Note_on_c, 0, 70, 100
3, 197040, Note_on_c, 4, 61, 0
3, 197040, Note_on_c, 0, 70, 0
3, 197760, Note_on_c, 4, 60, 100
3, 197760, Note_on_c, 4, 61, 100
3, 197760, Note_on_c, 0, 70, 100
3, 198000, Note_on_c, 4, 60, 0
3, 198000, Note_on_c, 4, 61, 0
3, 198000, Note_on_c, 0, 70, 0
3, 198240, Note_on_c, 4, 60, 100
3, 198480, Note_on_c, 4, 60, 0
3, 198720, Note_on_c, 4, 61, 100
3, 198720, Note_on_c, 0, 70, 100
3, 198960, Note_on_c, 4, 61, 0
3, 198960, Note_on_c, 0, 70, 0
3, 199680, Note_on_c, 4, 60, 100
3, 199680, Note_on_c, 4, 61, 100
3, 199680, Note_on_c, 0, 69, 100
3, 199920, Note_on_c, 4, 60, 0
3, 199920, Note_on_c, 4, 61, 0
3, 199920, Note_on_c, 0, 69, 0
3, 200640, Note_on_c, 4, 61, 100
3, 200640, Note_on_c, 0, 69, 100
3, 200880, Note_on_c, 4, 61, 0
3, 200880, Note_on_c, 0, 69, 0
3, 201600, Note_on_c, 4, 60, 100
3, 201840, Note_on_c, 4, 60, 0
3, 202080, Note_on_c, 4, 60, 100
3, 202320, Note_on_c, 4, 60, 0
3, 202560, Note_on_c, 4, 61, 100
3, 202560, Note_on_c, 0, 69, 100
3, 202800, Note_on_c, 4, 61, 0
3, 202800, Note_on_c, 0, 69, 0
3, 203520, Note_on_c, 4, 60, 100
3, 203760, Note_on_c, 4, 60, 0
3, 204480, Note_on_c, 4, 61, 100
3, 204480, Note_on_c, 0, 69, 100
3, 204720, Note_on_c, 4, 61, 0
3, 204720, Note_on_c, 0, 69, 0
3, 205440, Note_on_c, 4, 60, 100
3, 205440, Note_on_c, 4, 61, 100
3, 205440, Note_on_c, 0, 69, 100
3, 205680, Note_on_c, 4, 60, 0
3, 205680, Note_on_c, 4, 61, 0
3, 205680, Note_on_c, 0, 69, 0
3, 205920, Note_on_c, 4, 60, 100
3, 206160, Note_on_c, 4, 60, 0
3, 206400, Note_on_c, 4, 61, 100
3, 206400, Note_on_c, 0, 69, 100
3, 206640, Note_on_c, 4, 61, 0
3, 206640, Note_on_c, 0, 69, 0
3, 207360, Note_on_c, 4, 60, 100
3, 207360, Note_on_c, 4, 61, 100
3, 207360, Note_on_c, 0, 70, 100
3, 207600, Note_on_c, 4, 60, 0
3, 207600, Note_on_c, 4, 61, 0
3, 207600, Note_on_c, 0, 70, 0
3, 209280, Note_on_c, 4, 60, 100
3, 209280, Note_on_c, 4, 61, 100
3, 209280, Note_on_c, 0, 69, 100
3, 209520, Note_on_c, 4, 60, 0
3, 209520, Note_on_c, 4, 61, 0
3, 209520, Note_on_c, 0, 69, 0
3, 211200, Note_on_c, 4, 60, 100
3, 211200, Note_on_c, 4, 61, 100
3, 211200, Note_on_c, 0, 70, 100
3, 211440, Note_on_c, 4, 60, 0
3, 211440, Note_on_c, 4, 61, 0
3, 211440, Note_on_c, 0, 70, 0
3, 213120, Note_on_c, 4, 60, 100
3, 213120, Note_on_c, 4, 61, 100
3, 213120, Note_on_c, 0, 69, 100
3, 213360, Note_on_c, 4, 60, 0
3, 213360, Note_on_c, 4, 61, 0
3, 213360, Note_on_c, 0, 69, 0
3, 215040, Note_on_c, 4, 60, 100
3, 215040, Note_on_c, 4, 61, 100
3, 215040, Note_on_c, 0, 70, 100
3, 215280, Note_on_c, 4, 60, 0
3, 215280, Note_on_c, 4, 61, 0
3, 215280, Note_on_c, 0, 70, 0
3, 216000, Note_on_c, 4, 61, 100
3, 216000, Note_on_c, 0, 70, 100
3, 216240, Note_on_c, 4, 61, 0
3, 216240, Note_on_c, 0, 70, 0
3, 216960, Note_on_c, 4, 60, 100
3, 216960, Note_on_c, 4, 61, 100
3, 216960, Note_on_c, 0, 70, 100
3, 217200, Note_on_c, 4, 60, 0
3, 217200, Note_on_c, 4, 61, 0
3, 217200, Note_on_c, 0, 70, 0
3, 217440, Note_on_c, 4, 60, 100
3, 217440, Note_on_c, 4, 61, 100
3, 217680, Note_on_c, 4, 60, 0
3, 217680, Note_on_c, 4, 61, 0
3, 217920, Note_on_c, 4, 61, 100
3, 218160, Note_on_c, 4, 61, 0
3, 218400, Note_on_c, 4, 61, 100
3, 218400, Note_on_c, 0, 69, 100
3, 218640, Note_on_c, 4, 61, 0
3, 218640, Note_on_c, 0, 69, 0
3, 218880, Note_on_c, 4, 60, 100
3, 219120, Note_on_c, 4, 60, 0
3, 219360, Note_on_c, 4, 60, 100
3, 219600, Note_on_c, 4, 60, 0
3, 219840, Note_on_c, 4, 61, 100
3, 219840, Note_on_c, 0, 69, 100
3, 220080, Note_on_c, 4, 61, 0
3, 220080, Note_on_c, 0, 69, 0
3, 220800, Note_on_c, 4, 60, 100
3, 220800, Note_on_c, 4, 61, 100
3, 220800, Note_on_c, 0, 69, 100
3, 221040, Note_on_c, 4, 60, 0
3, 221040, Note_on_c, 4, 61, 0
3, 221040, Note_on_c, 0, 69, 0
3, 221760, Note_on_c, 4, 60, 100
3, 221760, Note_on_c, 4, 61, 100
3, 221760, Note_on_c, 0, 69, 100
3, 222000, Note_on_c, 4, 60, 0
3, 222000, Note_on_c, 4, 61, 0
3, 222000, Note_on_c, 0, 69, 0
3, 222720, Note_on_c, 4, 60, 100
3, 222720, Note_on_c, 4, 61, 100
3, 222720, Note_on_c, 0, 69, 100
3, 222960, Note_on_c, 4, 60, 0
3, 222960, Note_on_c, 4, 61, 0
3, 222960, Note_on_c, 0, 69, 0
3, 224160, Note_on_c, 4, 60, 100
3, 224160, Note_on_c, 4, 61, 100
3, 224160, Note_on_c, 0, 69, 100
3, 224400, Note_on_c, 4, 60, 0
3, 224400, Note_on_c, 4, 61, 0
3, 224400, Note_on_c, 0, 69, 0
3, 225120, Note_on_c, 4, 60, 100
3, 225360, Note_on_c, 4, 60, 0
3, 225600, Note_on_c, 4, 61, 100
3, 225600, Note_on_c, 0, 69, 100
3, 225840, Note_on_c, 4, 61, 0
3, 225840, Note_on_c, 0, 69, 0
3, 227040, Note_on_c, 4, 60, 100
3, 227280, Note_on_c, 4, 60, 0
3, 227520, Note_on_c, 4, 61, 100
3, 227520, Note_on_c, 0, 69, 100
3, 227760, Note_on_c, 4, 61, 0
3, 227760, Note_on_c, 0, 69, 0
3, 228480, Note_on_c, 4, 60, 100
3, 228480, Note_on_c, 4, 61, 100
3, 228480, Note_on_c, 0, 69, 100
3, 228720, Note_on_c, 4, 60, 0
3, 228720, Note_on_c, 4, 61, 0
3, 228720, Note_on_c, 0, 69, 0
3, 229440, Note_on_c, 4, 61, 100
3, 229440, Note_on_c, 0, 69, 100
3, 229680, Note_on_c, 4, 61, 0
3, 229680, Note_on_c, 0, 69, 0
3, 230400, Note_on_c, 4, 60, 100
3, 230400, Note_on_c, 4, 61, 100
3, 230400, Note_on_c, 0, 69, 100
3, 230640, Note_on_c, 4, 60, 0
3, 230640, Note_on_c, 4, 61, 0
3, 230640, Note_on_c, 0, 69, 0
3, 231840, Note_on_c, 4, 60, 100
3, 231840, Note_on_c, 4, 61, 100
3, 231840, Note_on_c, 0, 69, 100
3, 232080, Note_on_c, 4, 60, 0
3, 232080, Note_on_c, 4, 61, 0
3, 232080, Note_on_c, 0, 69, 0
3, 232800, Note_on_c, 4, 60, 100
3, 233040, Note_on_c, 4, 60, 0
3, 233280, Note_on_c, 4, 61, 100
3, 233280, Note_on_c, 0, 69, 100
3, 233520, Note_on_c, 4, 61, 0
3, 233520, Note_on_c, 0, 69, 0
3, 234720, Note_on_c, 4, 60, 100
3, 234960, Note_on_c, 4, 60, 0
3, 235200, Note_on_c, 4, 61, 100
3, 235200, Note_on_c, 0, 69, 100
3, 235440, Note_on_c, 4, 61, 0
3, 235440, Note_on_c, 0, 69, 0
3, 236160, Note_on_c, 4, 60, 100
3, 236160, Note_on_c, 4, 61, 100
3, 236160, Note_on_c, 0, 69, 100
3, 236400, Note_on_c, 4, 60, 0
3, 236400, Note_on_c, 4, 61, 0
3, 236400, Note_on_c, 0, 69, 0
3, 237120, Note_on_c, 4, 61, 100
3, 237120, Note_on_c, 0, 69, 100
3, 237360, Note_on_c, 4, 61, 0
3, 237360, Note_on_c, 0, 69, 0
3, 238080, Note_on_c, 4, 60, 100
3, 238080, Note_on_c, 4, 61, 100
3, 238080, Note_on_c, 0, 70, 100
3, 238320, Note_on_c, 4, 60, 0
3, 238320, Note_on_c, 4, 61, 0
3, 238320, Note_on_c, 0, 70, 0
3, 239520, Note_on_c, 4, 60, 100
3, 239520, Note_on_c, 4, 61, 100
3, 239520, Note_on_c, 0, 70, 100
3, 239760, Note_on_c, 4, 60, 0
3, 239760, Note_on_c, 4, 61, 0
3, 239760, Note_on_c, 0, 70, 0
3, 240960, Note_on_c, 4, 60, 100
3, 240960, Note_on_c, 4, 61, 100
3, 240960, Note_on_c, 0, 70, 100
3, 241200, Note_on_c, 4, 60, 0
3, 241200, Note_on_c, 4, 61, 0
3, 241200, Note_on_c, 0, 70, 0
3, 242400, Note_on_c, 4, 60, 100
3, 242640, Note_on_c, 4, 60, 0
3, 242880, Note_on_c, 4, 61, 100
3, 242880, Note_on_c, 0, 70, 100
3, 243120, Note_on_c, 4, 61, 0
3, 243120, Note_on_c, 0, 70, 0
3, 243840, Note_on_c, 4, 60, 100
3, 243840, Note_on_c, 4, 61, 100
3, 243840, Note_on_c, 0, 70, 100
3, 244080, Note_on_c, 4, 60, 0
3, 244080, Note_on_c, 4, 61, 0
3, 244080, Note_on_c, 0, 70, 0
3, 244800, Note_on_c, 4, 61, 100
3, 244800, Note_on_c, 0, 70, 100
3, 245040, Note_on_c, 4, 61, 0
3, 245040, Note_on_c, 0, 70, 0
3, 245760, Note_on_c, 4, 60, 100
3, 245760, Note_on_c, 4, 61, 100
3, 245760, Note_on_c, 0, 70, 100
3, 246000, Note_on_c, 4, 60, 0
3, 246000, Note_on_c, 4, 61, 0
3, 246000, Note_on_c, 0, 70, 0
3, 247200, Note_on_c, 4, 60, 100
3, 247200, Note_on_c, 4, 61, 100
3, 247200, Note_on_c, 0, 70, 100
3, 247440, Note_on_c, 4, 60, 0
3, 247440, Note_on_c, 4, 61, 0
3, 247440, Note_on_c, 0, 70, 0
3, 248640, Note_on_c, 4, 60, 100
3, 248640, Note_on_c, 4, 61, 100
3, 248640, Note_on_c, 0, 70, 100
3, 248880, Note_on_c, 4, 60, 0
3, 248880, Note_on_c, 4, 61, 0
3, 248880, Note_on_c, 0, 70, 0
3, 250080, Note_on_c, 4, 60, 100
3, 250320, Note_on_c, 4, 60, 0
3, 250560, Note_on_c, 4, 61, 100
3, 250560, Note_on_c, 0, 69, 100
3, 250800, Note_on_c, 4, 61, 0
3, 250800, Note_on_c, 0, 69, 0
3, 251520, Note_on_c, 4, 60, 100
3, 251520, Note_on_c, 4, 61, 100
3, 251520, Note_on_c, 0, 68, 100
3, 251760, Note_on_c, 4, 60, 0
3, 251760, Note_on_c, 4, 61, 0
3, 251760, Note_on_c, 0, 68, 0
3, 252480, Note_on_c, 4, 61, 100
3, 252720, Note_on_c, 4, 61, 0
3, 253440, Note_on_c, 4, 60, 100
3, 253440, Note_on_c, 4, 61, 100
3, 253440, Note_on_c, 0, 69, 100
3, 253680, Note_on_c, 4, 60, 0
3, 253680, Note_on_c, 4, 61, 0
3, 253680, Note_on_c, 0, 69, 0
3, 254880, Note_on_c, 4, 60, 100
3, 254880, Note_on_c, 4, 61, 100
3, 254880, Note_on_c, 0, 69, 100
3, 255120, Note_on_c, 4, 60, 0
3, 255120, Note_on_c, 4, 61, 0
3, 255120, Note_on_c, 0, 69, 0
3, 255840, Note_on_c, 4, 60, 100
3, 256080, Note_on_c, 4, 60, 0
3, 256320, Note_on_c, 4, 61, 100
3, 256320, Note_on_c, 0, 69, 100
3, 256560, Note_on_c, 4, 61, 0
3, 256560, Note_on_c, 0, 69, 0
3, 257760, Note_on_c, 4, 60, 100
3, 258000, Note_on_c, 4, 60, 0
3, 258240, Note_on_c, 4, 61, 100
3, 258240, Note_on_c, 0, 69, 100
3, 258480, Note_on_c, 4, 61, 0
3, 258480, Note_on_c, 0, 69, 0
3, 259200, Note_on_c, 4, 60, 100
3, 259200, Note_on_c, 4, 61, 100
3, 259200, Note_on_c, 0, 69, 100
3, 259440, Note_on_c, 4, 60, 0
3, 259440, Note_on_c, 4, 61, 0
3, 259440, Note_on_c, 0, 69, 0
3, 260160, Note_on_c, 4, 61, 100
3, 260160, Note_on_c, 0, 69, 100
3, 260400, Note_on_c, 4, 61, 0
3, 260400, Note_on_c, 0, 69, 0
3, 261120, Note_on_c, 4, 60, 100
3, 261120, Note_on_c, 4, 61, 100
3, 261120, Note_on_c, 0, 69, 100
3, 261360, Note_on_c, 4, 60, 0
3, 261360, Note_on_c, 4, 61, 0
3, 261360, Note_on_c, 0, 69, 0
3, 262560, Note_on_c, 4, 60, 100
3, 262560, Note_on_c, 4, 61, 100
3, 262560, Note_on_c, 0, 69, 100
3, 262800, Note_on_c, 4, 60, 0
3, 262800, Note_on_c, 4, 61, 0
3, 262800, Note_on_c, 0, 69, 0
3, 263520, Note_on_c, 4, 60, 100
3, 263760, Note_on_c, 4, 60, 0
3, 264000, Note_on_c, 4, 61, 100
3, 264000, Note_on_c, 0, 69, 100
3, 264240, Note_on_c, 4, 61, 0
3, 264240, Note_on_c, 0, 69, 0
3, 265440, Note_on_c, 4, 60, 100
3, 265680, Note_on_c, 4, 60, 0
3, 265920, Note_on_c, 4, 61, 100
3, 265920, Note_on_c, 0, 69, 100
3, 266160, Note_on_c, 4, 61, 0
3, 266160, Note_on_c, 0, 69, 0
3, 266880, Note_on_c, 4, 60, 100
3, 266880, Note_on_c, 4, 61, 100
3, 266880, Note_on_c, 0, 69, 100
3, 267120, Note_on_c, 4, 60, 0
3, 267120, Note_on_c, 4, 61, 0
3, 267120, Note_on_c, 0, 69, 0
3, 267360, Note_on_c, 4, 61, 100
3, 267600, Note_on_c, 4, 61, 0
3, 267840, Note_on_c, 4, 61, 100
3, 267840, Note_on_c, 0, 69, 100
3, 268080, Note_on_c, 4, 61, 0
3, 268080, Note_on_c, 0, 69, 0
3, 268320, Note_on_c, 4, 61, 100
3, 268560, Note_on_c, 4, 61, 0
3, 268800, Note_on_c, 4, 60, 100
3, 268800, Note_on_c, 4, 61, 100
3, 268800, Note_on_c, 0, 70, 100
3, 269040, Note_on_c, 4, 60, 0
3, 269040, Note_on_c, 4, 61, 0
3, 269040, Note_on_c, 0, 70, 0
3, 270240, Note_on_c, 4, 60, 100
3, 270240, Note_on_c, 4, 61, 100
3, 270240, Note_on_c, 0, 70, 100
3, 270480, Note_on_c, 4, 60, 0
3, 270480, Note_on_c, 4, 61, 0
3, 270480, Note_on_c, 0, 70, 0
3, 271680, Note_on_c, 4, 60, 100
3, 271680, Note_on_c, 4, 61, 100
3, 271680, Note_on_c, 0, 70, 100
3, 271920, Note_on_c, 4, 60, 0
3, 271920, Note_on_c, 4, 61, 0
3, 271920, Note_on_c, 0, 70, 0
3, 273120, Note_on_c, 4, 60, 100
3, 273360, Note_on_c, 4, 60, 0
3, 273600, Note_on_c, 4, 61, 100
3, 273600, Note_on_c, 0, 70, 100
3, 273840, Note_on_c, 4, 61, 0
3, 273840, Note_on_c, 0, 70, 0
3, 274560, Note_on_c, 4, 60, 100
3, 274560, Note_on_c, 4, 61, 100
3, 274560, Note_on_c, 0, 70, 100
3, 274800, Note_on_c, 4, 60, 0
3, 274800, Note_on_c, 4, 61, 0
3, 274800, Note_on_c, 0, 70, 0
3, 275520, Note_on_c, 4, 61, 100
3, 275760, Note_on_c, 4, 61, 0
3, 276480, Note_on_c, 4, 60, 100
3, 276480, Note_on_c, 4, 61, 100
3, 276480, Note_on_c, 0, 70, 100
3, 276720, Note_on_c, 4, 60, 0
3, 276720, Note_on_c, 4, 61, 0
3, 276720, Note_on_c, 0, 70, 0
3, 277920, Note_on_c, 4, 60, 100
3, 277920, Note_on_c, 4, 61, 100
3, 277920, Note_on_c, 0, 70, 100
3, 278160, Note_on_c, 4, 60, 0
3, 278160, Note_on_c, 4, 61, 0
3, 278160, Note_on_c, 0, 70, 0
3, 279360, Note_on_c, 4, 60, 100
3, 279360, Note_on_c, 4, 61, 100
3, 279360, Note_on_c, 0, 70, 100
3, 279600, Note_on_c, 4, 60, 0
3, 279600, Note_on_c, 4, 61, 0
3, 279600, Note_on_c, 0, 70, 0
3, 280320, Note_on_c, 4, 61, 100
3, 280560, Note_on_c, 4, 61, 0
3, 280800, Note_on_c, 4, 60, 100
3, 281040, Note_on_c, 4, 60, 0
3, 281280, Note_on_c, 4, 61, 100
3, 281280, Note_on_c, 0, 69, 100
3, 281520, Note_on_c, 4, 61, 0
3, 281520, Note_on_c, 0, 69, 0
3, 282240, Note_on_c, 4, 60, 100
3, 282240, Note_on_c, 4, 61, 100
3, 282240, Note_on_c, 0, 68, 100
3, 282480, Note_on_c, 4, 60, 0
3, 282480, Note_on_c, 4, 61, 0
3, 282480, Note_on_c, 0, 68, 0
3, 283200, Note_on_c, 4, 61, 100
3, 283440, Note_on_c, 4, 61, 0
3, 284160, Note_on_c, 4, 60, 100
3, 284160, Note_on_c, 4, 61, 100
3, 284160, Note_on_c, 0, 70, 100
3, 284400, Note_on_c, 4, 60, 0
3, 284400, Note_on_c, 4, 61, 0
3, 284400, Note_on_c, 0, 70, 0
3, 285120, Note_on_c, 4, 61, 100
3, 285120, Note_on_c, 0, 70, 100
3, 285360, Note_on_c, 4, 61, 0
3, 285360, Note_on_c, 0, 70, 0
3, 286080, Note_on_c, 4, 60, 100
3, 286080, Note_on_c, 4, 61, 100
3, 286080, Note_on_c, 0, 70, 100
3, 286320, Note_on_c, 4, 60, 0
3, 286320, Note_on_c, 4, 61, 0
3, 286320, Note_on_c, 0, 70, 0
3, 286560, Note_on_c, 4, 60, 100
3, 286560, Note_on_c, 4, 61, 100
3, 286800, Note_on_c, 4, 60, 0
3, 286800, Note_on_c, 4, 61, 0
3, 287040, Note_on_c, 4, 61, 100
3, 287280, Note_on_c, 4, 61, 0
3, 287520, Note_on_c, 4, 60, 100
3, 287520, Note_on_c, 4, 61, 100
3, 287520, Note_on_c, 0, 68, 100
3, 287760, Note_on_c, 4, 60, 0
3, 287760, Note_on_c, 4, 61, 0
3, 287760, Note_on_c, 0, 68, 0
3, 288480, Note_on_c, 4, 60, 100
3, 288720, Note_on_c, 4, 60, 0
3, 288960, Note_on_c, 4, 61, 100
3, 288960, Note_on_c, 0, 68, 100
3, 289200, Note_on_c, 4, 61, 0
3, 289200, Note_on_c, 0, 68, 0
3, 289920, Note_on_c, 4, 60, 100
3, 289920, Note_on_c, 4, 61, 100
3, 289920, Note_on_c, 0, 68, 100
3, 290160, Note_on_c, 4, 60, 0
3, 290160, Note_on_c, 4, 61, 0
3, 290160, Note_on_c, 0, 68, 0
3, 290400, Note_on_c, 4, 60, 100
3, 290640, Note_on_c, 4, 60, 0
3, 290880, Note_on_c, 4, 61, 100
3, 290880, Note_on_c, 0, 69, 100
3, 291120, Note_on_c, 4, 61, 0
3, 291120, Note_on_c, 0, 69, 0
3, 291840, Note_on_c, 4, 60, 100
3, 291840, Note_on_c, 4, 61, 100
3, 291840, Note_on_c, 0, 70, 100
3, 292080, Note_on_c, 4, 60, 0
3, 292080, Note_on_c, 4, 61, 0
3, 292080, Note_on_c, 0, 70, 0
3, 292800, Note_on_c, 4, 61, 100
3, 292800, Note_on_c, 0, 69, 100
3, 293040, Note_on_c, 4, 61, 0
3, 293040, Note_on_c, 0, 69, 0
3, 293760, Note_on_c, 4, 60, 100
3, 293760, Note_on_c, 4, 61, 100
3, 293760, Note_on_c, 0, 68, 100
3, 294000, Note_on_c, 4, 60, 0
3, 294000, Note_on_c, 4, 61, 0
3, 294000, Note_on_c, 0, 68, 0
3, 294240, Note_on_c, 4, 60, 100
3, 294240, Note_on_c, 4, 61, 100
3, 294480, Note_on_c, 4, 60, 0
3, 294480, Note_on_c, 4, 61, 0
3, 294720, Note_on_c, 4, 61, 100
3, 294960, Note_on_c, 4, 61, 0
3, 295200, Note_on_c, 4, 60, 100
3, 295200, Note_on_c, 4, 61, 100
3, 295440, Note_on_c, 4, 60, 0
3, 295440, Note_on_c, 4, 61, 0
3, 295680, Note_on_c, 0, 69, 100
3, 295920, Note_on_c, 0, 69, 0
3, 296160, Note_on_c, 4, 60, 100
3, 296400, Note_on_c, 4, 60, 0
3, 296640, Note_on_c, 4, 61, 100
3, 296880, Note_on_c, 4, 61, 0
3, 297600, Note_on_c, 4, 60, 100
3, 297600, Note_on_c, 4, 61, 100
3, 297840, Note_on_c, 4, 60, 0
3, 297840, Note_on_c, 4, 61, 0
3, 298080, Note_on_c, 4, 60, 100
3, 298320, Note_on_c, 4, 60, 0
3, 298560, Note_on_c, 4, 61, 100
3, 298560, Note_on_c, 0, 70, 100
3, 298800, Note_on_c, 4, 61, 0
3, 298800, Note_on_c, 0, 70, 0
3, 299520, Note_on_c, 4, 60, 100
3, 299520, Note_on_c, 4, 61, 100
3, 299520, Note_on_c, 0, 70, 100
3, 299760, Note_on_c, 4, 60, 0
3, 299760, Note_on_c, 4, 61, 0
3, 299760, Note_on_c, 0, 70, 0
3, 300480, Note_on_c, 4, 61, 100
3, 300480, Note_on_c, 0, 70, 100
3, 300720, Note_on_c, 4, 61, 0
3, 300720, Note_on_c, 0, 70, 0
3, 301440, Note_on_c, 4, 60, 100
3, 301440, Note_on_c, 4, 61, 100
3, 301440, Note_on_c, 0, 70, 100
3, 301680, Note_on_c, 4, 60, 0
3, 301680, Note_on_c, 4, 61, 0
3, 301680, Note_on_c, 0, 70, 0
3, 301920, Note_on_c, 4, 60, 100
3, 301920, Note_on_c, 4, 61, 100
3, 302160, Note_on_c, 4, 60, 0
3, 302160, Note_on_c, 4, 61, 0
3, 302400, Note_on_c, 4, 61, 100
3, 302640, Note_on_c, 4, 61, 0
3, 302880, Note_on_c, 4, 60, 100
3, 302880, Note_on_c, 4, 61, 100
3, 302880, Note_on_c, 0, 68, 100
3, 303120, Note_on_c, 4, 60, 0
3, 303120, Note_on_c, 4, 61, 0
3, 303120, Note_on_c, 0, 68, 0
3, 303840, Note_on_c, 4, 60, 100
3, 304080, Note_on_c, 4, 60, 0
3, 304320, Note_on_c, 4, 61, 100
3, 304320, Note_on_c, 0, 69, 100
3, 304560, Note_on_c, 4, 61, 0
3, 304560, Note_on_c, 0, 69, 0
3, 305280, Note_on_c, 4, 60, 100
3, 305280, Note_on_c, 4, 61, 100
3, 305280, Note_on_c, 0, 70, 100
3, 305520, Note_on_c, 4, 60, 0
3, 305520, Note_on_c, 4, 61, 0
3, 305520, Note_on_c, 0, 70, 0
3, 305760, Note_on_c, 4, 60, 100
3, 306000, Note_on_c, 4, 60, 0
3, 306240, Note_on_c, 4, 61, 100
3, 306240, Note_on_c, 0, 68, 100
3, 306480, Note_on_c, 4, 61, 0
3, 306480, Note_on_c, 0, 68, 0
3, 306720, Note_on_c, 4, 60, 100
3, 306960, Note_on_c, 4, 60, 0
3, 307200, Note_on_c, 4, 60, 100
3, 307200, Note_on_c, 4, 61, 100
3, 307200, Note_on_c, 0, 69, 100
3, 307440, Note_on_c, 4, 60, 0
3, 307440, Note_on_c, 4, 61, 0
3, 307440, Note_on_c, 0, 69, 0
3, 308160, Note_on_c, 4, 61, 100
3, 308400, Note_on_c, 4, 61, 0
3, 309120, Note_on_c, 4, 60, 100
3, 309120, Note_on_c, 4, 61, 100
3, 309360, Note_on_c, 4, 60, 0
3, 309360, Note_on_c, 4, 61, 0
3, 309600, Note_on_c, 4, 60, 100
3, 309600, Note_on_c, 4, 61, 100
3, 309840, Note_on_c, 4, 60, 0
3, 309840, Note_on_c, 4, 61, 0
3, 310080, Note_on_c, 4, 61, 100
3, 310080, Note_on_c, 0, 69, 100
3, 310320, Note_on_c, 4, 61, 0
3, 310320, Note_on_c, 0, 69, 0
3, 310560, Note_on_c, 4, 61, 100
3, 310800, Note_on_c, 4, 61, 0
3, 311040, Note_on_c, 4, 60, 100
3, 311040, Note_on_c, 0, 69, 100
3, 311280, Note_on_c, 4, 60, 0
3, 311280, Note_on_c, 0, 69, 0
3, 312000, Note_on_c, 4, 61, 100
3, 312000, Note_on_c, 0, 68, 100
3, 312240, Note_on_c, 4, 61, 0
3, 312240, Note_on_c, 0, 68, 0
3, 312960, Note_on_c, 4, 60, 100
3, 312960, Note_on_c, 4, 61, 100
3, 313200, Note_on_c, 4, 60, 0
3, 313200, Note_on_c, 4, 61, 0
3, 313440, Note_on_c, 4, 60, 100
3, 313680, Note_on_c, 4, 60, 0
3, 313920, Note_on_c, 4, 61, 100
3, 313920, Note_on_c, 0, 69, 100
3, 314160, Note_on_c, 4, 61, 0
3, 314160, Note_on_c, 0, 69, 0
3, 314880, Note_on_c, 4, 60, 100
3, 314880, Note_on_c, 4, 61, 100
3, 314880, Note_on_c, 0, 70, 100
3, 315120, Note_on_c, 4, 60, 0
3, 315120, Note_on_c, 4, 61, 0
3, 315120, Note_on_c, 0, 70, 0
3, 315840, Note_on_c, 4, 61, 100
3, 315840, Note_on_c, 0, 70, 100
3, 316080, Note_on_c, 4, 61, 0
3, 316080, Note_on_c, 0, 70, 0
3, 316800, Note_on_c, 4, 60, 100
3, 317040, Note_on_c, 4, 60, 0
3, 317280, Note_on_c, 4, 60, 100
3, 317520, Note_on_c, 4, 60, 0
3, 317760, Note_on_c, 4, 61, 100
3, 317760, Note_on_c, 0, 70, 100
3, 318000, Note_on_c, 4, 61, 0
3, 318000, Note_on_c, 0, 70, 0
3, 318720, Note_on_c, 4, 60, 100
3, 318960, Note_on_c, 4, 60, 0
3, 319680, Note_on_c, 4, 61, 100
3, 319680, Note_on_c, 0, 70, 100
3, 319920, Note_on_c, 4, 61, 0
3, 319920, Note_on_c, 0, 70, 0
3, 320640, Note_on_c, 4, 60, 100
3, 320640, Note_on_c, 4, 61, 100
3, 320640, Note_on_c, 0, 70, 100
3, 320880, Note_on_c, 4, 60, 0
3, 320880, Note_on_c, 4, 61, 0
3, 320880, Note_on_c, 0, 70, 0
3, 321120, Note_on_c, 4, 60, 100
3, 321360, Note_on_c, 4, 60, 0
3, 321600, Note_on_c, 4, 61, 100
3, 321600, Note_on_c, 0, 70, 100
3, 321840, Note_on_c, 4, 61, 0
3, 321840, Note_on_c, 0, 70, 0
3, 322560, Note_on_c, 4, 60, 100
3, 322560, Note_on_c, 4, 61, 100
3, 322560, Note_on_c, 0, 69, 100
3, 322800, Note_on_c, 4, 60, 0
3, 322800, Note_on_c, 4, 61, 0
3, 322800, Note_on_c, 0, 69, 0
3, 323520, Note_on_c, 4, 61, 100
3, 323520, Note_on_c, 0, 69, 100
3, 323760, Note_on_c, 4, 61, 0
3, 323760, Note_on_c, 0, 69, 0
3, 324480, Note_on_c, 4, 60, 100
3, 324720, Note_on_c, 4, 60, 0
3, 324960, Note_on_c, 4, 60, 100
3, 325200, Note_on_c, 4, 60, 0
3, 325440, Note_on_c, 4, 61, 100
3, 325440, Note_on_c, 0, 69, 100
3, 325680, Note_on_c, 4, 61, 0
3, 325680, Note_on_c, 0, 69, 0
3, 326400, Note_on_c, 4, 60, 100
3, 326640, Note_on_c, 4, 60, 0
3, 327360, Note_on_c, 4, 61, 100
3, 327360, Note_on_c, 0, 69, 100
3, 327600, Note_on_c, 4, 61, 0
3, 327600, Note_on_c, 0, 69, 0
3, 328320, Note_on_c, 4, 60, 100
3, 328320, Note_on_c, 4, 61, 100
3, 328320, Note_on_c, 0, 69, 100
3, 328560, Note_on_c, 4, 60, 0
3, 328560, Note_on_c, 4, 61, 0
3, 328560, Note_on_c, 0, 69, 0
3, 328800, Note_on_c, 4, 60, 100
3, 329040, Note_on_c, 4, 60, 0
3, 329280, Note_on_c, 4, 61, 100
3, 329280, Note_on_c, 0, 69, 100
3, 329520, Note_on_c, 4, 61, 0
3, 329520, Note_on_c, 0, 69, 0
3, 330240, Note_on_c, 4, 60, 100
3, 330240, Note_on_c, 4, 61, 100
3, 330240, Note_on_c, 0, 70, 100
3, 330480, Note_on_c, 4, 60, 0
3, 330480, Note_on_c, 4, 61, 0
3, 330480, Note_on_c, 0, 70, 0
3, 331200, Note_on_c, 4, 61, 100
3, 331200, Note_on_c, 0, 70, 100
3, 331440, Note_on_c, 4, 61, 0
3, 331440, Note_on_c, 0, 70, 0
3, 332160, Note_on_c, 4, 60, 100
3, 332400, Note_on_c, 4, 60, 0
3, 332640, Note_on_c, 4, 60, 100
3, 332880, Note_on_c, 4, 60, 0
3, 333120, Note_on_c, 4, 61, 100
3, 333120, Note_on_c, 0, 70, 100
3, 333360, Note_on_c, 4, 61, 0
3, 333360, Note_on_c, 0, 70, 0
3, 334080, Note_on_c, 4, 60, 100
3, 334320, Note_on_c, 4, 60, 0
3, 335040, Note_on_c, 4, 61, 100
3, 335040, Note_on_c, 0, 70, 100
3, 335280, Note_on_c, 4, 61, 0
3, 335280, Note_on_c, 0, 70, 0
3, 336000, Note_on_c, 4, 60, 100
3, 336000, Note_on_c, 4, 61, 100
3, 336000, Note_on_c, 0, 70, 100
3, 336240, Note_on_c, 4, 60, 0
3, 336240, Note_on_c, 4, 61, 0
3, 336240, Note_on_c, 0, 70, 0
3, 336480, Note_on_c, 4, 60, 100
3, 336720, Note_on_c, 4, 60, 0
3, 336960, Note_on_c, 4, 61, 100
3, 336960, Note_on_c, 0, 70, 100
3, 337200, Note_on_c, 4, 61, 0
3, 337200, Note_on_c, 0, 70, 0
3, 337920, Note_on_c, 4, 60, 100
3, 337920, Note_on_c, 4, 61, 100
3, 337920, Note_on_c, 0, 69, 100
3, 338160, Note_on_c, 4, 60, 0
3, 338160, Note_on_c, 4, 61, 0
3, 338160, Note_on_c, 0, 69, 0
3, 338880, Note_on_c, 4, 61, 100
3, 338880, Note_on_c, 0, 69, 100
3, 339120, Note_on_c, 4, 61, 0
3, 339120, Note_on_c, 0, 69, 0
3, 339840, Note_on_c, 4, 60, 100
3, 340080, Note_on_c, 4, 60, 0
3, 340320, Note_on_c, 4, 60, 100
3, 340560, Note_on_c, 4, 60, 0
3, 340800, Note_on_c, 4, 61, 100
3, 340800, Note_on_c, 0, 69, 100
3, 341040, Note_on_c, 4, 61, 0
3, 341040, Note_on_c, 0, 69, 0
3, 341760, Note_on_c, 4, 60, 100
3, 342000, Note_on_c, 4, 60, 0
3, 342720, Note_on_c, 4, 61, 100
3, 342720, Note_on_c, 0, 69, 100
3, 342960, Note_on_c, 4, 61, 0
3, 342960, Note_on_c, 0, 69, 0
3, 343680, Note_on_c, 4, 60, 100
3, 343680, Note_on_c, 4, 61, 100
3, 343680, Note_on_c, 0, 69, 100
3, 343920, Note_on_c, 4, 60, 0
3, 343920, Note_on_c, 4, 61, 0
3, 343920, Note_on_c, 0, 69, 0
3, 344160, Note_on_c, 4, 60, 100
3, 344400, Note_on_c, 4, 60, 0
3, 344640, Note_on_c, 4, 61, 100
3, 344640, Note_on_c, 0, 69, 100
3, 344880, Note_on_c, 4, 61, 0
3, 344880, Note_on_c, 0, 69, 0
3, 345600, Note_on_c, 4, 60, 100
3, 345600, Note_on_c, 4, 61, 100
3, 345600, Note_on_c, 0, 70, 100
3, 345840, Note_on_c, 4, 60, 0
3, 345840, Note_on_c, 4, 61, 0
3, 345840, Note_on_c, 0, 70, 0
3, 346560, Note_on_c, 4, 61, 100
3, 346560, Note_on_c, 0, 70, 100
3, 346800, Note_on_c, 4, 61, 0
3, 346800, Note_on_c, 0, 70, 0
3, 347520, Note_on_c, 4, 60, 100
3, 347760, Note_on_c, 4, 60, 0
3, 348000, Note_on_c, 4, 60, 100
3, 348240, Note_on_c, 4, 60, 0
3, 348480, Note_on_c, 4, 61, 100
3, 348480, Note_on_c, 0, 70, 100
3, 348720, Note_on_c, 4, 61, 0
3, 348720, Note_on_c, 0, 70, 0
3, 349440, Note_on_c, 4, 60, 100
3, 349680, Note_on_c, 4, 60, 0
3, 350400, Note_on_c, 4, 61, 100
3, 350400, Note_on_c, 0, 70, 100
3, 350640, Note_on_c, 4, 61, 0
3, 350640, Note_on_c, 0, 70, 0
3, 351360, Note_on_c, 4, 60, 100
3, 351360, Note_on_c, 4, 61, 100
3, 351360, Note_on_c, 0, 70, 100
3, 351600, Note_on_c, 4, 60, 0
3, 351600, Note_on_c, 4, 61, 0
3, 351600, Note_on_c, 0, 70, 0
3, 351840, Note_on_c, 4, 60, 100
3, 352080, Note_on_c, 4, 60, 0
3, 352320, Note_on_c, 4, 61, 100
3, 352320, Note_on_c, 0, 70, 100
3, 352560, Note_on_c, 4, 61, 0
3, 352560, Note_on_c, 0, 70, 0
3, 353280, Note_on_c, 4, 60, 100
3, 353280, Note_on_c, 4, 61, 100
3, 353280, Note_on_c, 0, 69, 100
3, 353520, Note_on_c, 4, 60, 0
3, 353520, Note_on_c, 4, 61, 0
3, 353520, Note_on_c, 0, 69, 0
3, 354240, Note_on_c, 4, 61, 100
3, 354240, Note_on_c, 0, 69, 100
3, 354480, Note_on_c, 4, 61, 0
3, 354480, Note_on_c, 0, 69, 0
3, 355200, Note_on_c, 4, 60, 100
3, 355440, Note_on_c, 4, 60, 0
3, 355680, Note_on_c, 4, 60, 100
3, 355920, Note_on_c, 4, 60, 0
3, 356160, Note_on_c, 4, 61, 100
3, 356160, Note_on_c, 0, 69, 100
3, 356400, Note_on_c, 4, 61, 0
3, 356400, Note_on_c, 0, 69, 0
3, 357120, Note_on_c, 4, 60, 100
3, 357360, Note_on_c, 4, 60, 0
3, 358080, Note_on_c, 4, 61, 100
3, 358080, Note_on_c, 0, 69, 100
3, 358320, Note_on_c, 4, 61, 0
3, 358320, Note_on_c, 0, 69, 0
3, 359040, Note_on_c, 4, 60, 100
3, 359040, Note_on_c, 4, 61, 100
3, 359040, Note_on_c, 0, 69, 100
3, 359280, Note_on_c, 4, 60, 0
3, 359280, Note_on_c, 4, 61, 0
3, 359280, Note_on_c, 0, 69, 0
3, 359520, Note_on_c, 4, 60, 100
3, 359760, Note_on_c, 4, 60, 0
3, 360000, Note_on_c, 4, 61, 100
3, 360000, Note_on_c, 0, 69, 100
3, 360240, Note_on_c, 4, 61, 0
3, 360240, Note_on_c, 0, 69, 0
3, 360960, Note_on_c, 4, 60, 100
3, 360960, Note_on_c, 4, 61, 100
3, 360960, Note_on_c, 0, 70, 100
3, 361200, Note_on_c, 4, 60, 0
3, 361200, Note_on_c, 4, 61, 0
3, 361200, Note_on_c, 0, 70, 0
3, 362880, Note_on_c, 4, 60, 100
3, 362880, Note_on_c, 4, 61, 100
3, 362880, Note_on_c, 0, 69, 100
3, 363120, Note_on_c, 4, 60, 0
3, 363120, Note_on_c, 4, 61, 0
3, 363120, Note_on_c, 0, 69, 0
3, 364800, Note_on_c, 4, 60, 100
3, 364800, Note_on_c, 4, 61, 100
3, 364800, Note_on_c, 0, 70, 100
3, 365040, Note_on_c, 4, 60, 0
3, 365040, Note_on_c, 4, 61, 0
3, 365040, Note_on_c, 0, 70, 0
3, 366720, Note_on_c, 4, 60, 100
3, 366720, Note_on_c, 4, 61, 100
3, 366720, Note_on_c, 0, 69, 100
3, 366960, Note_on_c, 4, 60, 0
3, 366960, Note_on_c, 4, 61, 0
3, 366960, Note_on_c, 0, 69, 0
3, 368640, Note_on_c, 4, 60, 100
3, 368640, Note_on_c, 4, 61, 100
3, 368640, Note_on_c, 0, 70, 100
3, 368880, Note_on_c, 4, 60, 0
3, 368880, Note_on_c, 4, 61, 0
3, 368880, Note_on_c, 0, 70, 0
3, 369600, Note_on_c, 4, 61, 100
3, 369600, Note_on_c, 0, 70, 100
3, 369840, Note_on_c, 4, 61, 0
3, 369840, Note_on_c, 0, 70, 0
3, 370560, Note_on_c, 4, 60, 100
3, 370560, Note_on_c, 4, 61, 100
3, 370560, Note_on_c, 0, 70, 100
3, 370800, Note_on_c, 4, 60, 0
3, 370800, Note_on_c, 4, 61, 0
3, 370800, Note_on_c, 0, 70, 0
3, 371040, Note_on_c, 4, 60, 100
3, 371040, Note_on_c, 4, 61, 100
3, 371280, Note_on_c, 4, 60, 0
3, 371280, Note_on_c, 4, 61, 0
3, 371520, Note_on_c, 4, 61, 100
3, 371760, Note_on_c, 4, 61, 0
3, 372000, Note_on_c, 4, 61, 100
3, 372000, Note_on_c, 0, 69, 100
3, 372240, Note_on_c, 4, 61, 0
3, 372240, Note_on_c, 0, 69, 0
3, 372480, Note_on_c, 4, 60, 100
3, 372720, Note_on_c, 4, 60, 0
3, 372960, Note_on_c, 4, 60, 100
3, 373200, Note_on_c, 4, 60, 0
3, 373440, Note_on_c, 4, 61, 100
3, 373440, Note_on_c, 0, 69, 100
3, 373680, Note_on_c, 4, 61, 0
3, 373680, Note_on_c, 0, 69, 0
3, 374400, Note_on_c, 4, 60, 100
3, 374400, Note_on_c, 4, 61, 100
3, 374400, Note_on_c, 0, 69, 100
3, 374640, Note_on_c, 4, 60, 0
3, 374640, Note_on_c, 4, 61, 0
3, 374640, Note_on_c, 0, 69, 0
3, 375360, Note_on_c, 4, 60, 100
3, 375360, Note_on_c, 4, 61, 100
3, 375360, Note_on_c, 0, 69, 100
3, 375600, Note_on_c, 4, 60, 0
3, 375600, Note_on_c, 4, 61, 0
3, 375600, Note_on_c, 0, 69, 0
3, 376320, Note_on_c, 4, 60, 100
3, 376320, Note_on_c, 4, 61, 100
3, 376320, Note_on_c, 0, 68, 100
3, 376560, Note_on_c, 4, 60, 0
3, 376560, Note_on_c, 4, 61, 0
3, 376560, Note_on_c, 0, 68, 0
3, 377760, Note_on_c, 4, 60, 100
3, 377760, Note_on_c, 4, 61, 100
3, 377760, Note_on_c, 0, 69, 100
3, 378000, Note_on_c, 4, 60, 0
3, 378000, Note_on_c, 4, 61, 0
3, 378000, Note_on_c, 0, 69, 0
3, 378720, Note_on_c, 4, 60, 100
3, 378960, Note_on_c, 4, 60, 0
3, 379200, Note_on_c, 4, 61, 100
3, 379200, Note_on_c, 0, 70, 100
3, 379440, Note_on_c, 4, 61, 0
3, 379440, Note_on_c, 0, 70, 0
3, 380640, Note_on_c, 4, 60, 100
3, 380880, Note_on_c, 4, 60, 0
3, 381120, Note_on_c, 4, 61, 100
3, 381120, Note_on_c, 0, 68, 100
3, 381360, Note_on_c, 4, 61, 0
3, 381360, Note_on_c, 0, 68, 0
3, 382080, Note_on_c, 4, 60, 100
3, 382080, Note_on_c, 4, 61, 100
3, 382080, Note_on_c, 0, 70, 100
3, 382320, Note_on_c, 4, 60, 0
3, 382320, Note_on_c, 4, 61, 0
3, 382320, Note_on_c, 0, 70, 0
3, 383040, Note_on_c, 4, 61, 100
3, 383280, Note_on_c, 4, 61, 0
3, 384000, Note_on_c, 4, 60, 100
3, 384000, Note_on_c, 4, 61, 100
3, 384000, Note_on_c, 0, 68, 100
3, 384240, Note_on_c, 4, 60, 0
3, 384240, Note_on_c, 4, 61, 0
3, 384240, Note_on_c, 0, 68, 0
3, 385440, Note_on_c, 4, 60, 100
3, 385440, Note_on_c, 4, 61, 100
3, 385440, Note_on_c, 0, 69, 100
3, 385680, Note_on_c, 4, 60, 0
3, 385680, Note_on_c, 4, 61, 0
3, 385680, Note_on_c, 0, 69, 0
3, 386400, Note_on_c, 4, 60, 100
3, 386640, Note_on_c, 4, 60, 0
3, 386880, Note_on_c, 4, 61, 100
3, 387120, Note_on_c, 4, 61, 0
3, 387840, Note_on_c, 0, 70, 100
3, 388080, Note_on_c, 0, 70, 0
3, 388320, Note_on_c, 4, 60, 100
3, 388560, Note_on_c, 4, 60, 0
3, 388800, Note_on_c, 4, 61, 100
3, 389040, Note_on_c, 4, 61, 0
3, 389760, Note_on_c, 4, 60, 100
3, 389760, Note_on_c, 4, 61, 100
3, 390000, Note_on_c, 4, 60, 0
3, 390000, Note_on_c, 4, 61, 0
3, 390720, Note_on_c, 4, 61, 100
3, 390960, Note_on_c, 4, 61, 0
3, 391680, Note_on_c, 4, 60, 100
3, 391680, Note_on_c, 4, 61, 100
3, 391680, Note_on_c, 0, 68, 100
3, 391920, Note_on_c, 4, 60, 0
3, 391920, Note_on_c, 4, 61, 0
3, 391920, Note_on_c, 0, 68, 0
3, 393120, Note_on_c, 4, 60, 100
3, 393120, Note_on_c, 4, 61, 100
3, 393120, Note_on_c, 0, 69, 100
3, 393360, Note_on_c, 4, 60, 0
3, 393360, Note_on_c, 4, 61, 0
3, 393360, Note_on_c, 0, 69, 0
3, 394080, Note_on_c, 4, 60, 100
3, 394320, Note_on_c, 4, 60, 0
3, 394560, Note_on_c, 4, 61, 100
3, 394560, Note_on_c, 0, 68, 100
3, 394800, Note_on_c, 4, 61, 0
3, 394800, Note_on_c, 0, 68, 0
3, 395520, Note_on_c, 0, 70, 100
3, 395760, Note_on_c, 0, 70, 0
3, 396000, Note_on_c, 4, 60, 100
3, 396240, Note_on_c, 4, 60, 0
3, 396480, Note_on_c, 4, 61, 100
3, 396720, Note_on_c, 4, 61, 0
3, 396960, Note_on_c, 0, 69, 100
3, 397200, Note_on_c, 0, 69, 0
3, 397440, Note_on_c, 4, 60, 100
3, 397440, Note_on_c, 4, 61, 100
3, 397680, Note_on_c, 4, 60, 0
3, 397680, Note_on_c, 4, 61, 0
3, 398400, Note_on_c, 4, 61, 100
3, 398400, Note_on_c, 0, 68, 100
3, 398640, Note_on_c, 4, 61, 0
3, 398640, Note_on_c, 0, 68, 0
3, 399360, Note_on_c, 4, 60, 100
3, 399360, Note_on_c, 4, 61, 100
3, 399600, Note_on_c, 4, 60, 0
3, 399600, Note_on_c, 4, 61, 0
3, 400800, Note_on_c, 4, 60, 100
3, 400800, Note_on_c, 4, 61, 100
3, 400800, Note_on_c, 0, 69, 100
3, 401040, Note_on_c, 4, 60, 0
3, 401040, Note_on_c, 4, 61, 0
3, 401040, Note_on_c, 0, 69, 0
3, 401760, Note_on_c, 4, 60, 100
3, 402000, Note_on_c, 4, 60, 0
3, 402240, Note_on_c, 4, 61, 100
3, 402240, Note_on_c, 0, 68, 100
3, 402480, Note_on_c, 4, 61, 0
3, 402480, Note_on_c, 0, 68, 0
3, 403200, Note_on_c, 0, 70, 100
3, 404160, Note_on_c, 4, 61, 100
3, 404400, Note_on_c, 4, 61, 0
3, 405120, Note_on_c, 4, 61, 100
3, 405360, Note_on_c, 4, 61, 0
3, 405840, Note_on_c, 0, 70, 0
3, 406080, Note_on_c, 4, 61, 100
3, 406320, Note_on_c, 4, 61, 0
3, 407040, Note_on_c, 4, 60, 100
3, 407040, Note_on_c, 4, 61, 100
3, 407040, Note_on_c, 0, 68, 100
3, 407280, Note_on_c, 4, 60, 0
3, 407280, Note_on_c, 4, 61, 0
3, 407280, Note_on_c, 0, 68, 0
3, 408480, Note_on_c, 4, 60, 100
3, 408480, Note_on_c, 4, 61, 100
3, 408720, Note_on_c, 4, 60, 0
3, 408720, Note_on_c, 4, 61, 0
3, 408720, Note_on_c, 0, 70, 100
3, 408960, Note_on_c, 0, 70, 0
3, 409440, Note_on_c, 4, 60, 100
3, 409680, Note_on_c, 4, 60, 0
3, 409920, Note_on_c, 4, 61, 100
3, 409920, Note_on_c, 0, 70, 100
3, 410160, Note_on_c, 4, 61, 0
3, 410160, Note_on_c, 0, 70, 0
3, 411360, Note_on_c, 4, 60, 100
3, 411360, Note_on_c, 0, 69, 100
3, 411600, Note_on_c, 4, 60, 0
3, 411600, Note_on_c, 0, 69, 0
3, 411840, Note_on_c, 4, 61, 100
3, 412080, Note_on_c, 4, 61, 0
3, 412800, Note_on_c, 4, 60, 100
3, 412800, Note_on_c, 4, 61, 100
3, 412800, Note_on_c, 0, 69, 100
3, 413040, Note_on_c, 4, 60, 0
3, 413040, Note_on_c, 4, 61, 0
3, 413040, Note_on_c, 0, 69, 0
3, 413760, Note_on_c, 4, 61, 100
3, 414000, Note_on_c, 4, 61, 0
3, 414720, Note_on_c, 4, 60, 100
3, 414720, Note_on_c, 4, 61, 100
3, 414720, Note_on_c, 0, 68, 100
3, 414960, Note_on_c, 4, 60, 0
3, 414960, Note_on_c, 4, 61, 0
3, 414960, Note_on_c, 0, 68, 0
3, 416160, Note_on_c, 4, 60, 100
3, 416160, Note_on_c, 4, 61, 100
3, 416160, Note_on_c, 0, 69, 100
3, 416400, Note_on_c, 4, 60, 0
3, 416400, Note_on_c, 4, 61, 0
3, 416400, Note_on_c, 0, 69, 0
3, 417120, Note_on_c, 4, 60, 100
3, 417360, Note_on_c, 4, 60, 0
3, 417600, Note_on_c, 4, 61, 100
3, 417600, Note_on_c, 0, 70, 100
3, 417840, Note_on_c, 4, 61, 0
3, 418560, Note_on_c, 4, 60, 100
3, 418560, Note_on_c, 4, 61, 100
3, 418800, Note_on_c, 4, 60, 0
3, 418800, Note_on_c, 4, 61, 0
3, 419040, Note_on_c, 4, 60, 100
3, 419280, Note_on_c, 4, 60, 0
3, 419520, Note_on_c, 4, 61, 100
3, 419760, Note_on_c, 4, 61, 0
3, 420480, Note_on_c, 4, 60, 100
3, 420480, Note_on_c, 4, 61, 100
3, 420720, Note_on_c, 4, 60, 0
3, 420720, Note_on_c, 4, 61, 0
3, 421440, Note_on_c, 0, 70, 0
3, 421440, Note_on_c, 4, 61, 100
3, 421680, Note_on_c, 4, 61, 0
3, 422400, Note_on_c, 4, 60, 100
3, 422400, Note_on_c, 4, 61, 100
3, 422400, Note_on_c, 0, 70, 100
3, 422640, Note_on_c, 4, 60, 0
3, 422640, Note_on_c, 4, 61, 0
3, 422640, Note_on_c, 0, 70, 0
3, 423840, Note_on_c, 4, 60, 100
3, 423840, Note_on_c, 4, 61, 100
3, 423840, Note_on_c, 0, 70, 100
3, 424080, Note_on_c, 4, 60, 0
3, 424080, Note_on_c, 4, 61, 0
3, 424080, Note_on_c, 0, 70, 0
3, 424800, Note_on_c, 4, 60, 100
3, 425040, Note_on_c, 4, 60, 0
3, 425280, Note_on_c, 4, 61, 100
3, 425520, Note_on_c, 4, 61, 0
3, 426240, Note_on_c, 4, 60, 100
3, 426240, Note_on_c, 4, 61, 100
3, 426240, Note_on_c, 0, 70, 100
3, 426480, Note_on_c, 4, 60, 0
3, 426480, Note_on_c, 4, 61, 0
3, 427680, Note_on_c, 4, 60, 100
3, 427680, Note_on_c, 4, 61, 100
3, 427920, Note_on_c, 0, 70, 0
3, 427920, Note_on_c, 4, 60, 0
3, 427920, Note_on_c, 4, 61, 0
3, 428160, Note_on_c, 0, 69, 100
3, 428640, Note_on_c, 4, 60, 100
3, 428880, Note_on_c, 4, 60, 0
3, 429120, Note_on_c, 4, 61, 100
3, 429360, Note_on_c, 4, 61, 0
3, 429840, Note_on_c, 0, 69, 0
3, 430080, Note_on_c, 4, 60, 100
3, 430080, Note_on_c, 4, 61, 100
3, 430080, Note_on_c, 0, 70, 100
3, 430320, Note_on_c, 4, 60, 0
3, 430320, Note_on_c, 4, 61, 0
3, 430320, Note_on_c, 0, 70, 0
3, 431520, Note_on_c, 4, 60, 100
3, 431520, Note_on_c, 4, 61, 100
3, 431520, Note_on_c, 0, 70, 100
3, 431760, Note_on_c, 4, 60, 0
3, 431760, Note_on_c, 4, 61, 0
3, 431760, Note_on_c, 0, 70, 0
3, 432480, Note_on_c, 4, 60, 100
3, 432720, Note_on_c, 4, 60, 0
3, 432960, Note_on_c, 4, 61, 100
3, 432960, Note_on_c, 0, 70, 100
3, 433200, Note_on_c, 4, 61, 0
3, 433200, Note_on_c, 0, 70, 0
3, 433920, Note_on_c, 4, 60, 100
3, 433920, Note_on_c, 4, 61, 100
3, 433920, Note_on_c, 0, 70, 100
3, 434160, Note_on_c, 4, 60, 0
3, 434160, Note_on_c, 4, 61, 0
3, 434400, Note_on_c, 4, 60, 100
3, 434640, Note_on_c, 4, 60, 0
3, 435360, Note_on_c, 4, 61, 100
3, 435600, Note_on_c, 0, 70, 0
3, 435600, Note_on_c, 4, 61, 0
3, 435840, Note_on_c, 4, 60, 100
3, 435840, Note_on_c, 0, 69, 100
3, 436080, Note_on_c, 4, 60, 0
3, 436080, Note_on_c, 0, 69, 0
3, 436320, Note_on_c, 4, 60, 100
3, 436560, Note_on_c, 4, 60, 0
3, 436800, Note_on_c, 4, 61, 100
3, 436800, Note_on_c, 0, 68, 100
3, 437040, Note_on_c, 4, 61, 0
3, 437040, Note_on_c, 0, 68, 0
3, 437760, Note_on_c, 4, 60, 100
3, 437760, Note_on_c, 4, 61, 100
3, 437760, Note_on_c, 0, 69, 100
3, 438000, Note_on_c, 4, 60, 0
3, 438000, Note_on_c, 4, 61, 0
3, 439680, Note_on_c, 4, 60, 100
3, 439920, Note_on_c, 4, 60, 0
3, 440160, Note_on_c, 4, 60, 100
3, 440400, Note_on_c, 4, 60, 0
3, 440640, Note_on_c, 0, 69, 0
3, 441600, Note_on_c, 4, 60, 100
3, 441600, Note_on_c, 4, 61, 100
3, 441600, Note_on_c, 0, 69, 100
3, 441840, Note_on_c, 4, 60, 0
3, 441840, Note_on_c, 4, 61, 0
3, 441840, Note_on_c, 0, 69, 0
3, 443040, Note_on_c, 4, 60, 100
3, 443040, Note_on_c, 4, 61, 100
3, 443040, Note_on_c, 0, 70, 100
3, 443280, Note_on_c, 4, 60, 0
3, 443280, Note_on_c, 4, 61, 0
3, 443280, Note_on_c, 0, 70, 0
3, 444000, Note_on_c, 4, 60, 100
3, 444000, Note_on_c, 4, 61, 100
3, 444240, Note_on_c, 4, 60, 0
3, 444240, Note_on_c, 4, 61, 0
3, 444480, Note_on_c, 0, 68, 100
3, 444720, Note_on_c, 0, 68, 0
3, 445440, Note_on_c, 4, 60, 100
3, 445440, Note_on_c, 4, 61, 100
3, 445440, Note_on_c, 0, 68, 100
3, 445680, Note_on_c, 4, 60, 0
3, 445680, Note_on_c, 4, 61, 0
3, 445680, Note_on_c, 0, 68, 0
3, 446880, Note_on_c, 4, 61, 100
3, 446880, Note_on_c, 0, 68, 100
3, 447120, Note_on_c, 4, 61, 0
3, 447120, Note_on_c, 0, 68, 0
3, 447360, Note_on_c, 4, 60, 100
3, 447600, Note_on_c, 4, 60, 0
3, 447840, Note_on_c, 4, 60, 100
3, 448080, Note_on_c, 4, 60, 0
3, 448320, Note_on_c, 4, 61, 100
3, 448320, Note_on_c, 0, 68, 100
3, 448560, Note_on_c, 4, 61, 0
3, 448560, Note_on_c, 0, 68, 0
3, 449280, Note_on_c, 4, 60, 100
3, 449280, Note_on_c, 4, 61, 100
3, 449280, Note_on_c, 0, 69, 100
3, 449520, Note_on_c, 4, 60, 0
3, 449520, Note_on_c, 4, 61, 0
3, 449520, Note_on_c, 0, 69, 0
3, 450720, Note_on_c, 4, 61, 100
3, 450720, Note_on_c, 0, 69, 100
3, 450960, Note_on_c, 4, 61, 0
3, 450960, Note_on_c, 0, 69, 0
3, 451200, Note_on_c, 4, 60, 100
3, 451440, Note_on_c, 4, 60, 0
3, 451680, Note_on_c, 4, 60, 100
3, 451920, Note_on_c, 4, 60, 0
3, 452160, Note_on_c, 4, 61, 100
3, 452160, Note_on_c, 0, 69, 100
3, 452400, Note_on_c, 4, 61, 0
3, 452400, Note_on_c, 0, 69, 0
3, 453120, Note_on_c, 4, 60, 100
3, 453360, Note_on_c, 4, 60, 0
3, 453600, Note_on_c, 4, 60, 100
3, 453840, Note_on_c, 4, 60, 0
3, 454080, Note_on_c, 4, 61, 100
3, 454080, Note_on_c, 0, 69, 100
3, 454320, Note_on_c, 4, 61, 0
3, 455040, Note_on_c, 4, 60, 100
3, 455280, Note_on_c, 4, 60, 0
3, 455520, Note_on_c, 4, 60, 100
3, 455760, Note_on_c, 4, 60, 0
3, 456000, Note_on_c, 0, 69, 0
3, 456960, Note_on_c, 4, 60, 100
3, 456960, Note_on_c, 4, 61, 100
3, 456960, Note_on_c, 0, 69, 100
3, 457200, Note_on_c, 4, 60, 0
3, 457200, Note_on_c, 4, 61, 0
3, 457200, Note_on_c, 0, 69, 0
3, 458400, Note_on_c, 4, 60, 100
3, 458400, Note_on_c, 4, 61, 100
3, 458400, Note_on_c, 0, 68, 100
3, 458640, Note_on_c, 4, 60, 0
3, 458640, Note_on_c, 4, 61, 0
3, 458640, Note_on_c, 0, 68, 0
3, 459360, Note_on_c, 4, 60, 100
3, 459360, Note_on_c, 4, 61, 100
3, 459600, Note_on_c, 4, 60, 0
3, 459600, Note_on_c, 4, 61, 0
3, 459840, Note_on_c, 0, 69, 100
3, 460080, Note_on_c, 0, 69, 0
3, 460800, Note_on_c, 4, 60, 100
3, 460800, Note_on_c, 4, 61, 100
3, 460800, Note_on_c, 0, 70, 100
3, 461040, Note_on_c, 4, 60, 0
3, 461040, Note_on_c, 4, 61, 0
3, 462240, Note_on_c, 4, 61, 100
3, 462480, Note_on_c, 4, 61, 0
3, 462720, Note_on_c, 4, 60, 100
3, 462960, Note_on_c, 4, 60, 0
3, 463200, Note_on_c, 4, 60, 100
3, 463440, Note_on_c, 4, 60, 0
3, 463680, Note_on_c, 0, 70, 0
3, 463680, Note_on_c, 4, 61, 100
3, 463920, Note_on_c, 4, 61, 0
3, 464640, Note_on_c, 4, 60, 100
3, 464640, Note_on_c, 4, 61, 100
3, 464640, Note_on_c, 0, 70, 100
3, 464880, Note_on_c, 4, 60, 0
3, 464880, Note_on_c, 4, 61, 0
3, 464880, Note_on_c, 0, 70, 0
3, 465600, Note_on_c, 4, 61, 100
3, 465840, Note_on_c, 4, 61, 0
3, 466080, Note_on_c, 0, 69, 100
3, 466320, Note_on_c, 0, 69, 0
3, 466560, Note_on_c, 4, 60, 100
3, 466560, Note_on_c, 4, 61, 100
3, 466800, Note_on_c, 4, 60, 0
3, 466800, Note_on_c, 4, 61, 0
3, 467040, Note_on_c, 4, 60, 100
3, 467280, Note_on_c, 4, 60, 0
3, 467520, Note_on_c, 4, 61, 100
3, 467520, Note_on_c, 0, 68, 100
3, 467760, Note_on_c, 4, 61, 0
3, 467760, Note_on_c, 0, 68, 0
3, 468480, Note_on_c, 4, 60, 100
3, 468720, Note_on_c, 4, 60, 0
3, 468960, Note_on_c, 4, 60, 100
3, 469200, Note_on_c, 4, 60, 0
3, 469440, Note_on_c, 4, 61, 100
3, 469440, Note_on_c, 0, 68, 100
3, 469680, Note_on_c, 4, 61, 0
3, 470400, Note_on_c, 4, 60, 100
3, 470640, Note_on_c, 4, 60, 0
3, 470880, Note_on_c, 0, 68, 0
3, 470880, Note_on_c, 4, 60, 100
3, 471120, Note_on_c, 4, 60, 0
3, 472320, Note_on_c, 4, 60, 100
3, 472320, Note_on_c, 4, 61, 100
3, 472320, Note_on_c, 0, 69, 100
3, 472560, Note_on_c, 4, 60, 0
3, 472560, Note_on_c, 4, 61, 0
3, 472560, Note_on_c, 0, 69, 0
3, 473760, Note_on_c, 4, 60, 100
3, 473760, Note_on_c, 4, 61, 100
3, 473760, Note_on_c, 0, 68, 100
3, 474000, Note_on_c, 4, 60, 0
3, 474000, Note_on_c, 4, 61, 0
3, 474000, Note_on_c, 0, 68, 0
3, 474720, Note_on_c, 4, 60, 100
3, 474720, Note_on_c, 4, 61, 100
3, 474960, Note_on_c, 4, 60, 0
3, 474960, Note_on_c, 4, 61, 0
3, 475200, Note_on_c, 0, 69, 100
3, 475440, Note_on_c, 0, 69, 0
3, 476160, Note_on_c, 4, 60, 100
3, 476160, Note_on_c, 4, 61, 100
3, 476160, Note_on_c, 0, 70, 100
3, 476400, Note_on_c, 4, 60, 0
3, 476400, Note_on_c, 4, 61, 0
3, 477600, Note_on_c, 4, 61, 100
3, 477840, Note_on_c, 4, 61, 0
3, 478080, Note_on_c, 4, 60, 100
3, 478320, Note_on_c, 4, 60, 0
3, 478560, Note_on_c, 0, 70, 0
3, 478560, Note_on_c, 4, 60, 100
3, 478800, Note_on_c, 4, 60, 0
3, 479040, Note_on_c, 4, 61, 100
3, 479280, Note_on_c, 4, 61, 0
3, 480000, Note_on_c, 4, 60, 100
3, 480000, Note_on_c, 4, 61, 100
3, 480000, Note_on_c, 0, 70, 100
3, 480240, Note_on_c, 4, 60, 0
3, 480240, Note_on_c, 4, 61, 0
3, 480240, Note_on_c, 0, 70, 0
3, 481440, Note_on_c, 4, 61, 100
3, 481440, Note_on_c, 0, 69, 100
3, 481680, Note_on_c, 4, 61, 0
3, 481680, Note_on_c, 0, 69, 0
3, 481920, Note_on_c, 4, 60, 100
3, 482160, Note_on_c, 4, 60, 0
3, 482400, Note_on_c, 4, 60, 100
3, 482640, Note_on_c, 4, 60, 0
3, 482880, Note_on_c, 4, 61, 100
3, 482880, Note_on_c, 0, 68, 100
3, 483120, Note_on_c, 4, 61, 0
3, 483120, Note_on_c, 0, 68, 0
3, 483840, Note_on_c, 4, 60, 100
3, 483840, Note_on_c, 4, 61, 100
3, 483840, Note_on_c, 0, 68, 100
3, 484080, Note_on_c, 4, 60, 0
3, 484080, Note_on_c, 4, 61, 0
3, 485760, Note_on_c, 4, 60, 100
3, 486000, Note_on_c, 4, 60, 0
3, 486240, Note_on_c, 0, 68, 0
3, 486240, Note_on_c, 4, 60, 100
3, 486480, Note_on_c, 4, 60, 0
3, 487680, Note_on_c, 4, 60, 100
3, 487680, Note_on_c, 4, 61, 100
3, 487680, Note_on_c, 0, 69, 100
3, 487920, Note_on_c, 4, 60, 0
3, 487920, Note_on_c, 4, 61, 0
3, 487920, Note_on_c, 0, 69, 0
3, 489120, Note_on_c, 4, 60, 100
3, 489120, Note_on_c, 4, 61, 100
3, 489120, Note_on_c, 0, 68, 100
3, 489360, Note_on_c, 4, 60, 0
3, 489360, Note_on_c, 4, 61, 0
3, 489360, Note_on_c, 0, 68, 0
3, 490080, Note_on_c, 4, 60, 100
3, 490080, Note_on_c, 4, 61, 100
3, 490320, Note_on_c, 4, 60, 0
3, 490320, Note_on_c, 4, 61, 0
3, 490560, Note_on_c, 0, 69, 100
3, 490800, Note_on_c, 0, 69, 0
3, 491520, Note_on_c, 4, 60, 100
3, 491520, Note_on_c, 4, 61, 100
3, 491520, Note_on_c, 0, 70, 100
3, 491760, Note_on_c, 4, 60, 0
3, 491760, Note_on_c, 4, 61, 0
3, 492960, Note_on_c, 4, 61, 100
3, 493200, Note_on_c, 4, 61, 0
3, 493440, Note_on_c, 4, 60, 100
3, 493680, Note_on_c, 4, 60, 0
3, 493920, Note_on_c, 0, 70, 0
3, 493920, Note_on_c, 4, 60, 100
3, 494160, Note_on_c, 4, 60, 0
3, 494400, Note_on_c, 4, 61, 100
3, 494640, Note_on_c, 4, 61, 0
3, 495360, Note_on_c, 4, 60, 100
3, 495360, Note_on_c, 4, 61, 100
3, 495360, Note_on_c, 0, 70, 100
3, 495600, Note_on_c, 4, 60, 0
3, 495600, Note_on_c, 4, 61, 0
3, 496800, Note_on_c, 4, 61, 100
3, 497040, Note_on_c, 4, 61, 0
3, 497280, Note_on_c, 4, 60, 100
3, 497520, Note_on_c, 4, 60, 0
3, 497760, Note_on_c, 4, 60, 100
3, 498000, Note_on_c, 4, 60, 0
3, 498240, Note_on_c, 4, 61, 100
3, 498480, Note_on_c, 0, 70, 0
3, 498480, Note_on_c, 4, 61, 0
3, 499200, Note_on_c, 4, 60, 100
3, 499200, Note_on_c, 4, 61, 100
3, 499200, Note_on_c, 0, 69, 100
3, 499440, Note_on_c, 4, 60, 0
3, 499440, Note_on_c, 4, 61, 0
3, 499440, Note_on_c, 0, 69, 0
3, 500640, Note_on_c, 4, 60, 100
3, 500640, Note_on_c, 4, 61, 100
3, 500640, Note_on_c, 0, 70, 100
3, 500880, Note_on_c, 4, 60, 0
3, 500880, Note_on_c, 4, 61, 0
3, 500880, Note_on_c, 0, 70, 0
3, 501600, Note_on_c, 4, 60, 100
3, 501840, Note_on_c, 4, 60, 0
3, 502080, Note_on_c, 4, 61, 100
3, 502080, Note_on_c, 0, 69, 100
3, 502320, Note_on_c, 4, 61, 0
3, 502320, Note_on_c, 0, 69, 0
3, 503520, Note_on_c, 4, 60, 100
3, 503760, Note_on_c, 4, 60, 0
3, 504000, Note_on_c, 4, 61, 100
3, 504000, Note_on_c, 0, 70, 100
3, 504240, Note_on_c, 4, 61, 0
3, 504240, Note_on_c, 0, 70, 0
3, 504960, Note_on_c, 4, 60, 100
3, 504960, Note_on_c, 4, 61, 100
3, 504960, Note_on_c, 0, 69, 100
3, 505200, Note_on_c, 4, 60, 0
3, 505200, Note_on_c, 4, 61, 0
3, 505200, Note_on_c, 0, 69, 0
3, 505920, Note_on_c, 4, 61, 100
3, 506160, Note_on_c, 4, 61, 0
3, 506880, Note_on_c, 4, 60, 100
3, 506880, Note_on_c, 4, 61, 100
3, 506880, Note_on_c, 0, 69, 100
3, 507120, Note_on_c, 4, 60, 0
3, 507120, Note_on_c, 4, 61, 0
3, 507120, Note_on_c, 0, 69, 0
3, 508320, Note_on_c, 4, 60, 100
3, 508320, Note_on_c, 4, 61, 100
3, 508320, Note_on_c, 0, 70, 100
3, 508560, Note_on_c, 4, 60, 0
3, 508560, Note_on_c, 4, 61, 0
3, 508560, Note_on_c, 0, 70, 0
3, 509280, Note_on_c, 4, 60, 100
3, 509520, Note_on_c, 4, 60, 0
3, 509760, Note_on_c, 4, 61, 100
3, 509760, Note_on_c, 0, 69, 100
3, 510000, Note_on_c, 4, 61, 0
3, 510000, Note_on_c, 0, 69, 0
3, 511200, Note_on_c, 4, 60, 100
3, 511440, Note_on_c, 4, 60, 0
3, 511680, Note_on_c, 4, 61, 100
3, 511680, Note_on_c, 0, 70, 100
3, 511920, Note_on_c, 4, 61, 0
3, 511920, Note_on_c, 0, 70, 0
3, 512640, Note_on_c, 4, 60, 100
3, 512640, Note_on_c, 4, 61, 100
3, 512640, Note_on_c, 0, 69, 100
3, 512880, Note_on_c, 4, 60, 0
3, 512880, Note_on_c, 4, 61, 0
3, 512880, Note_on_c, 0, 69, 0
3, 513120, Note_on_c, 4, 60, 100
3, 513360, Note_on_c, 4, 60, 0
3, 513600, Note_on_c, 4, 61, 100
3, 513840, Note_on_c, 4, 61, 0
3, 514560, Note_on_c, 4, 60, 100
3, 514560, Note_on_c, 4, 61, 100
3, 514560, Note_on_c, 0, 68, 100
3, 514800, Note_on_c, 4, 60, 0
3, 514800, Note_on_c, 4, 61, 0
3, 514800, Note_on_c, 0, 68, 0
3, 516000, Note_on_c, 4, 60, 100
3, 516000, Note_on_c, 4, 61, 100
3, 516000, Note_on_c, 0, 70, 100
3, 516240, Note_on_c, 4, 60, 0
3, 516240, Note_on_c, 4, 61, 0
3, 516240, Note_on_c, 0, 70, 0
3, 517440, Note_on_c, 4, 60, 100
3, 517440, Note_on_c, 4, 61, 100
3, 517440, Note_on_c, 0, 68, 100
3, 517680, Note_on_c, 4, 60, 0
3, 517680, Note_on_c, 4, 61, 0
3, 517680, Note_on_c, 0, 68, 0
3, 518880, Note_on_c, 4, 60, 100
3, 519120, Note_on_c, 4, 60, 0
3, 519360, Note_on_c, 4, 61, 100
3, 519360, Note_on_c, 0, 70, 100
3, 519600, Note_on_c, 4, 61, 0
3, 519600, Note_on_c, 0, 70, 0
3, 520320, Note_on_c, 4, 60, 100
3, 520320, Note_on_c, 4, 61, 100
3, 520320, Note_on_c, 0, 68, 100
3, 520560, Note_on_c, 4, 60, 0
3, 520560, Note_on_c, 4, 61, 0
3, 520560, Note_on_c, 0, 68, 0
3, 521280, Note_on_c, 4, 61, 100
3, 521280, Note_on_c, 0, 70, 100
3, 521520, Note_on_c, 4, 61, 0
3, 521520, Note_on_c, 0, 70, 0
3, 522240, Note_on_c, 4, 60, 100
3, 522240, Note_on_c, 4, 61, 100
3, 522240, Note_on_c, 0, 68, 100
3, 522480, Note_on_c, 4, 60, 0
3, 522480, Note_on_c, 4, 61, 0
3, 522480, Note_on_c, 0, 68, 0
3, 523680, Note_on_c, 4, 60, 100
3, 523680, Note_on_c, 4, 61, 100
3, 523680, Note_on_c, 0, 70, 100
3, 523920, Note_on_c, 4, 60, 0
3, 523920, Note_on_c, 4, 61, 0
3, 523920, Note_on_c, 0, 70, 0
3, 525120, Note_on_c, 4, 60, 100
3, 525120, Note_on_c, 4, 61, 100
3, 525120, Note_on_c, 0, 68, 100
3, 525360, Note_on_c, 4, 60, 0
3, 525360, Note_on_c, 4, 61, 0
3, 525360, Note_on_c, 0, 68, 0
3, 526560, Note_on_c, 4, 60, 100
3, 526800, Note_on_c, 4, 60, 0
3, 527040, Note_on_c, 4, 61, 100
3, 527040, Note_on_c, 0, 70, 100
3, 527280, Note_on_c, 4, 61, 0
3, 527280, Note_on_c, 0, 70, 0
3, 528000, Note_on_c, 4, 60, 100
3, 528000, Note_on_c, 4, 61, 100
3, 528000, Note_on_c, 0, 68, 100
3, 528240, Note_on_c, 4, 60, 0
3, 528240, Note_on_c, 4, 61, 0
3, 528240, Note_on_c, 0, 68, 0
3, 528960, Note_on_c, 4, 61, 100
3, 528960, Note_on_c, 0, 70, 100
3, 529200, Note_on_c, 4, 61, 0
3, 529200, Note_on_c, 0, 70, 0
3, 529920, Note_on_c, 4, 60, 100
3, 529920, Note_on_c, 4, 61, 100
3, 529920, Note_on_c, 0, 69, 100
3, 530160, Note_on_c, 4, 60, 0
3, 530160, Note_on_c, 4, 61, 0
3, 530160, Note_on_c, 0, 69, 0
3, 531360, Note_on_c, 4, 60, 100
3, 531360, Note_on_c, 4, 61, 100
3, 531360, Note_on_c, 0, 70, 100
3, 531600, Note_on_c, 4, 60, 0
3, 531600, Note_on_c, 4, 61, 0
3, 531600, Note_on_c, 0, 70, 0
3, 532320, Note_on_c, 4, 60, 100
3, 532560, Note_on_c, 4, 60, 0
3, 532800, Note_on_c, 4, 61, 100
3, 532800, Note_on_c, 0, 69, 100
3, 533040, Note_on_c, 4, 61, 0
3, 533040, Note_on_c, 0, 69, 0
3, 534240, Note_on_c, 4, 60, 100
3, 534480, Note_on_c, 4, 60, 0
3, 534720, Note_on_c, 4, 61, 100
3, 534720, Note_on_c, 0, 70, 100
3, 534960, Note_on_c, 4, 61, 0
3, 534960, Note_on_c, 0, 70, 0
3, 535680, Note_on_c, 4, 60, 100
3, 535680, Note_on_c, 4, 61, 100
3, 535680, Note_on_c, 0, 69, 100
3, 535920, Note_on_c, 4, 60, 0
3, 535920, Note_on_c, 4, 61, 0
3, 535920, Note_on_c, 0, 69, 0
3, 536640, Note_on_c, 4, 61, 100
3, 536640, Note_on_c, 0, 70, 100
3, 536880, Note_on_c, 4, 61, 0
3, 536880, Note_on_c, 0, 70, 0
3, 537600, Note_on_c, 4, 60, 100
3, 537600, Note_on_c, 4, 61, 100
3, 537600, Note_on_c, 0, 69, 100
3, 537840, Note_on_c, 4, 60, 0
3, 537840, Note_on_c, 4, 61, 0
3, 537840, Note_on_c, 0, 69, 0
3, 538080, Note_on_c, 4, 60, 100
3, 538320, Note_on_c, 4, 60, 0
3, 538560, Note_on_c, 0, 70, 100
3, 538800, Note_on_c, 0, 70, 0
3, 539040, Note_on_c, 4, 60, 100
3, 539040, Note_on_c, 4, 61, 100
3, 539280, Note_on_c, 4, 60, 0
3, 539280, Note_on_c, 4, 61, 0
3, 540000, Note_on_c, 4, 60, 100
3, 540000, Note_on_c, 0, 69, 100
3, 540240, Note_on_c, 4, 60, 0
3, 540240, Note_on_c, 0, 69, 0
3, 540480, Note_on_c, 4, 61, 100
3, 540720, Note_on_c, 4, 61, 0
3, 540960, Note_on_c, 4, 60, 100
3, 541200, Note_on_c, 4, 60, 0
3, 541440, Note_on_c, 4, 60, 100
3, 541680, Note_on_c, 4, 60, 0
3, 541920, Note_on_c, 4, 60, 100
3, 541920, Note_on_c, 0, 70, 100
3, 542160, Note_on_c, 4, 60, 0
3, 542160, Note_on_c, 0, 70, 0
3, 542400, Note_on_c, 4, 61, 100
3, 542640, Note_on_c, 4, 61, 0
3, 542880, Note_on_c, 0, 69, 100
3, 543120, Note_on_c, 0, 69, 0
3, 543360, Note_on_c, 4, 60, 100
3, 543360, Note_on_c, 4, 61, 100
3, 543600, Note_on_c, 4, 60, 0
3, 543600, Note_on_c, 4, 61, 0
3, 543840, Note_on_c, 4, 60, 100
3, 543840, Note_on_c, 0, 70, 100
3, 544080, Note_on_c, 4, 60, 0
3, 544080, Note_on_c, 0, 70, 0
3, 544320, Note_on_c, 4, 61, 100
3, 544560, Note_on_c, 4, 61, 0
3, 545280, Note_on_c, 4, 60, 100
3, 545280, Note_on_c, 4, 61, 100
3, 545280, Note_on_c, 0, 68, 100
3, 545520, Note_on_c, 4, 60, 0
3, 545520, Note_on_c, 4, 61, 0
3, 545520, Note_on_c, 0, 68, 0
3, 546720, Note_on_c, 4, 60, 100
3, 546720, Note_on_c, 4, 61, 100
3, 546720, Note_on_c, 0, 70, 100
3, 546960, Note_on_c, 4, 60, 0
3, 546960, Note_on_c, 4, 61, 0
3, 546960, Note_on_c, 0, 70, 0
3, 548160, Note_on_c, 4, 60, 100
3, 548160, Note_on_c, 4, 61, 100
3, 548160, Note_on_c, 0, 68, 100
3, 548400, Note_on_c, 4, 60, 0
3, 548400, Note_on_c, 4, 61, 0
3, 548400, Note_on_c, 0, 68, 0
3, 549600, Note_on_c, 4, 60, 100
3, 549840, Note_on_c, 4, 60, 0
3, 550080, Note_on_c, 4, 61, 100
3, 550080, Note_on_c, 0, 70, 100
3, 550320, Note_on_c, 4, 61, 0
3, 550320, Note_on_c, 0, 70, 0
3, 551040, Note_on_c, 4, 60, 100
3, 551040, Note_on_c, 4, 61, 100
3, 551040, Note_on_c, 0, 68, 100
3, 551280, Note_on_c, 4, 60, 0
3, 551280, Note_on_c, 4, 61, 0
3, 551280, Note_on_c, 0, 68, 0
3, 552000, Note_on_c, 4, 61, 100
3, 552000, Note_on_c, 0, 70, 100
3, 552240, Note_on_c, 4, 61, 0
3, 552240, Note_on_c, 0, 70, 0
3, 552960, Note_on_c, 4, 60, 100
3, 552960, Note_on_c, 4, 61, 100
3, 552960, Note_on_c, 0, 68, 100
3, 553200, Note_on_c, 4, 60, 0
3, 553200, Note_on_c, 4, 61, 0
3, 553200, Note_on_c, 0, 68, 0
3, 554400, Note_on_c, 4, 60, 100
3, 554400, Note_on_c, 4, 61, 100
3, 554400, Note_on_c, 0, 70, 100
3, 554640, Note_on_c, 4, 60, 0
3, 554640, Note_on_c, 4, 61, 0
3, 554640, Note_on_c, 0, 70, 0
3, 555840, Note_on_c, 4, 60, 100
3, 555840, Note_on_c, 4, 61, 100
3, 555840, Note_on_c, 0, 68, 100
3, 556080, Note_on_c, 4, 60, 0
3, 556080, Note_on_c, 4, 61, 0
3, 556080, Note_on_c, 0, 68, 0
3, 556800, Note_on_c, 4, 61, 100
3, 556800, Note_on_c, 0, 68, 100
3, 557040, Note_on_c, 4, 61, 0
3, 557280, Note_on_c, 4, 60, 100
3, 557520, Note_on_c, 4, 60, 0
3, 557760, Note_on_c, 4, 61, 100
3, 558000, Note_on_c, 4, 61, 0
3, 558720, Note_on_c, 4, 60, 100
3, 558720, Note_on_c, 4, 61, 100
3, 558960, Note_on_c, 4, 60, 0
3, 558960, Note_on_c, 4, 61, 0
3, 559680, Note_on_c, 4, 61, 100
3, 559920, Note_on_c, 0, 68, 0
3, 559920, Note_on_c, 4, 61, 0
3, 560640, Note_on_c, 4, 60, 100
3, 560640, Note_on_c, 4, 61, 100
3, 560640, Note_on_c, 0, 70, 100
3, 560880, Note_on_c, 4, 60, 0
3, 560880, Note_on_c, 4, 61, 0
3, 560880, Note_on_c, 0, 70, 0
3, 561600, Note_on_c, 4, 61, 100
3, 561600, Note_on_c, 0, 70, 100
3, 561840, Note_on_c, 4, 61, 0
3, 561840, Note_on_c, 0, 70, 0
3, 562560, Note_on_c, 4, 60, 100
3, 562560, Note_on_c, 4, 61, 100
3, 562560, Note_on_c, 0, 70, 100
3, 562800, Note_on_c, 4, 60, 0
3, 562800, Note_on_c, 4, 61, 0
3, 562800, Note_on_c, 0, 70, 0
3, 563040, Note_on_c, 4, 60, 100
3, 563040, Note_on_c, 4, 61, 100
3, 563280, Note_on_c, 4, 60, 0
3, 563280, Note_on_c, 4, 61, 0
3, 563520, Note_on_c, 4, 61, 100
3, 563760, Note_on_c, 4, 61, 0
3, 564000, Note_on_c, 4, 60, 100
3, 564000, Note_on_c, 4, 61, 100
3, 564000, Note_on_c, 0, 68, 100
3, 564240, Note_on_c, 4, 60, 0
3, 564240, Note_on_c, 4, 61, 0
3, 564240, Note_on_c, 0, 68, 0
3, 564960, Note_on_c, 4, 60, 100
3, 565200, Note_on_c, 4, 60, 0
3, 565440, Note_on_c, 4, 61, 100
3, 565440, Note_on_c, 0, 68, 100
3, 565680, Note_on_c, 4, 61, 0
3, 565680, Note_on_c, 0, 68, 0
3, 566400, Note_on_c, 4, 60, 100
3, 566400, Note_on_c, 4, 61, 100
3, 566400, Note_on_c, 0, 68, 100
3, 566640, Note_on_c, 4, 60, 0
3, 566640, Note_on_c, 4, 61, 0
3, 566640, Note_on_c, 0, 68, 0
3, 566880, Note_on_c, 4, 60, 100
3, 567120, Note_on_c, 4, 60, 0
3, 567360, Note_on_c, 4, 61, 100
3, 567360, Note_on_c, 0, 69, 100
3, 567600, Note_on_c, 4, 61, 0
3, 567600, Note_on_c, 0, 69, 0
3, 568320, Note_on_c, 4, 60, 100
3, 568320, Note_on_c, 4, 61, 100
3, 568320, Note_on_c, 0, 70, 100
3, 568560, Note_on_c, 4, 60, 0
3, 568560, Note_on_c, 4, 61, 0
3, 568560, Note_on_c, 0, 70, 0
3, 569280, Note_on_c, 4, 61, 100
3, 569520, Note_on_c, 4, 61, 0
3, 570240, Note_on_c, 4, 60, 100
3, 570240, Note_on_c, 4, 61, 100
3, 570480, Note_on_c, 4, 60, 0
3, 570480, Note_on_c, 4, 61, 0
3, 570720, Note_on_c, 4, 60, 100
3, 570720, Note_on_c, 4, 61, 100
3, 570720, Note_on_c, 0, 68, 100
3, 570960, Note_on_c, 4, 60, 0
3, 570960, Note_on_c, 4, 61, 0
3, 570960, Note_on_c, 0, 68, 0
3, 571200, Note_on_c, 4, 61, 100
3, 571440, Note_on_c, 4, 61, 0
3, 571680, Note_on_c, 4, 60, 100
3, 571680, Note_on_c, 4, 61, 100
3, 571920, Note_on_c, 4, 60, 0
3, 571920, Note_on_c, 4, 61, 0
3, 572160, Note_on_c, 0, 69, 100
3, 572400, Note_on_c, 0, 69, 0
3, 572640, Note_on_c, 4, 60, 100
3, 572880, Note_on_c, 4, 60, 0
3, 573120, Note_on_c, 4, 61, 100
3, 573360, Note_on_c, 4, 61, 0
3, 573600, Note_on_c, 0, 69, 100
3, 573840, Note_on_c, 0, 69, 0
3, 574080, Note_on_c, 4, 60, 100
3, 574080, Note_on_c, 4, 61, 100
3, 574320, Note_on_c, 4, 60, 0
3, 574320, Note_on_c, 4, 61, 0
3, 574560, Note_on_c, 4, 60, 100
3, 574800, Note_on_c, 4, 60, 0
3, 575040, Note_on_c, 4, 61, 100
3, 575040, Note_on_c, 0, 69, 100
3, 575280, Note_on_c, 4, 61, 0
3, 575280, Note_on_c, 0, 69, 0
3, 576000, Note_on_c, 4, 60, 100
3, 576000, Note_on_c, 4, 61, 100
3, 576000, Note_on_c, 0, 70, 100
3, 576240, Note_on_c, 4, 60, 0
3, 576240, Note_on_c, 4, 61, 0
3, 576240, Note_on_c, 0, 70, 0
3, 576960, Note_on_c, 4, 61, 100
3, 576960, Note_on_c, 0, 70, 100
3, 577200, Note_on_c, 4, 61, 0
3, 577200, Note_on_c, 0, 70, 0
3, 577920, Note_on_c, 4, 60, 100
3, 577920, Note_on_c, 4, 61, 100
3, 577920, Note_on_c, 0, 70, 100
3, 578160, Note_on_c, 4, 60, 0
3, 578160, Note_on_c, 4, 61, 0
3, 578160, Note_on_c, 0, 70, 0
3, 578400, Note_on_c, 4, 60, 100
3, 578400, Note_on_c, 4, 61, 100
3, 578640, Note_on_c, 4, 60, 0
3, 578640, Note_on_c, 4, 61, 0
3, 578880, Note_on_c, 4, 61, 100
3, 579120, Note_on_c, 4, 61, 0
3, 579360, Note_on_c, 4, 60, 100
3, 579360, Note_on_c, 4, 61, 100
3, 579360, Note_on_c, 0, 68, 100
3, 579600, Note_on_c, 4, 60, 0
3, 579600, Note_on_c, 4, 61, 0
3, 579600, Note_on_c, 0, 68, 0
3, 580320, Note_on_c, 4, 60, 100
3, 580560, Note_on_c, 4, 60, 0
3, 580800, Note_on_c, 4, 61, 100
3, 580800, Note_on_c, 0, 69, 100
3, 581040, Note_on_c, 4, 61, 0
3, 581040, Note_on_c, 0, 69, 0
3, 581760, Note_on_c, 4, 60, 100
3, 581760, Note_on_c, 4, 61, 100
3, 581760, Note_on_c, 0, 70, 100
3, 582000, Note_on_c, 4, 60, 0
3, 582000, Note_on_c, 4, 61, 0
3, 582000, Note_on_c, 0, 70, 0
3, 582240, Note_on_c, 4, 60, 100
3, 582480, Note_on_c, 4, 60, 0
3, 582720, Note_on_c, 4, 61, 100
3, 582960, Note_on_c, 4, 61, 0
3, 583200, Note_on_c, 4, 60, 100
3, 583440, Note_on_c, 4, 60, 0
3, 583680, Note_on_c, 4, 60, 100
3, 583680, Note_on_c, 4, 61, 100
3, 583680, Note_on_c, 0, 68, 100
3, 583920, Note_on_c, 4, 60, 0
3, 583920, Note_on_c, 4, 61, 0
3, 583920, Note_on_c, 0, 68, 0
3, 584640, Note_on_c, 4, 61, 100
3, 584640, Note_on_c, 0, 68, 100
3, 584880, Note_on_c, 4, 61, 0
3, 584880, Note_on_c, 0, 68, 0
3, 585600, Note_on_c, 4, 60, 100
3, 585600, Note_on_c, 4, 61, 100
3, 585600, Note_on_c, 0, 69, 100
3, 585840, Note_on_c, 4, 60, 0
3, 585840, Note_on_c, 4, 61, 0
3, 585840, Note_on_c, 0, 69, 0
3, 586080, Note_on_c, 4, 60, 100
3, 586320, Note_on_c, 4, 60, 0
3, 586560, Note_on_c, 4, 61, 100
3, 586560, Note_on_c, 0, 69, 100
3, 586800, Note_on_c, 4, 61, 0
3, 586800, Note_on_c, 0, 69, 0
3, 587520, Note_on_c, 4, 60, 100
3, 587520, Note_on_c, 4, 61, 100
3, 587520, Note_on_c, 0, 68, 100
3, 587760, Note_on_c, 4, 60, 0
3, 587760, Note_on_c, 4, 61, 0
3, 587760, Note_on_c, 0, 68, 0
3, 588480, Note_on_c, 4, 61, 100
3, 588480, Note_on_c, 0, 68, 100
3, 588720, Note_on_c, 4, 61, 0
3, 588720, Note_on_c, 0, 68, 0
3, 589440, Note_on_c, 4, 60, 100
3, 589440, Note_on_c, 4, 61, 100
3, 589440, Note_on_c, 0, 69, 100
3, 589680, Note_on_c, 4, 60, 0
3, 589680, Note_on_c, 4, 61, 0
3, 589680, Note_on_c, 0, 69, 0
3, 589920, Note_on_c, 4, 60, 100
3, 590160, Note_on_c, 4, 60, 0
3, 590400, Note_on_c, 4, 61, 100
3, 590400, Note_on_c, 0, 69, 100
3, 590640, Note_on_c, 4, 61, 0
3, 590640, Note_on_c, 0, 69, 0
3, 591360, Note_on_c, 4, 60, 100
3, 591360, Note_on_c, 4, 61, 100
3, 591360, Note_on_c, 0, 68, 100
3, 591600, Note_on_c, 4, 60, 0
3, 591600, Note_on_c, 4, 61, 0
3, 591600, Note_on_c, 0, 68, 0
3, 592320, Note_on_c, 4, 60, 100
3, 592320, Note_on_c, 4, 61, 100
3, 592320, Note_on_c, 0, 68, 100
3, 592560, Note_on_c, 4, 60, 0
3, 592560, Note_on_c, 4, 61, 0
3, 592560, Note_on_c, 0, 68, 0
3, 593280, Note_on_c, 4, 60, 100
3, 593280, Note_on_c, 4, 61, 100
3, 593280, Note_on_c, 0, 69, 100
3, 593520, Note_on_c, 4, 60, 0
3, 593520, Note_on_c, 4, 61, 0
3, 593520, Note_on_c, 0, 69, 0
3, 594240, Note_on_c, 4, 60, 100
3, 594240, Note_on_c, 4, 61, 100
3, 594240, Note_on_c, 0, 69, 100
3, 594480, Note_on_c, 4, 60, 0
3, 594480, Note_on_c, 4, 61, 0
3, 594480, Note_on_c, 0, 69, 0
3, 595200, Note_on_c, 4, 60, 100
3, 595200, Note_on_c, 4, 61, 100
3, 595200, Note_on_c, 0, 70, 100
3, 595440, Note_on_c, 4, 60, 0
3, 595440, Note_on_c, 4, 61, 0
3, 595440, Note_on_c, 0, 70, 0
3, 596160, Note_on_c, 4, 60, 100
3, 596160, Note_on_c, 4, 61, 100
3, 596160, Note_on_c, 0, 70, 100
3, 596400, Note_on_c, 4, 60, 0
3, 596400, Note_on_c, 4, 61, 0
3, 596400, Note_on_c, 0, 70, 0
3, 597120, Note_on_c, 4, 60, 100
3, 597120, Note_on_c, 4, 61, 100
3, 597120, Note_on_c, 0, 70, 100
3, 597360, Note_on_c, 4, 60, 0
3, 597360, Note_on_c, 4, 61, 0
3, 597360, Note_on_c, 0, 70, 0
3, 598080, Note_on_c, 4, 60, 100
3, 598080, Note_on_c, 4, 61, 100
3, 598320, Note_on_c, 4, 60, 0
3, 598320, Note_on_c, 4, 61, 0
3, 599040, Note_on_c, 4, 60, 100
3, 599040, Note_on_c, 4, 61, 100
3, 599040, Note_on_c, 0, 70, 100
3, 599280, Note_on_c, 4, 60, 0
3, 599280, Note_on_c, 4, 61, 0
3, 599280, Note_on_c, 0, 70, 0
3, 600000, Note_on_c, 4, 61, 100
3, 600000, Note_on_c, 0, 70, 100
3, 600240, Note_on_c, 4, 61, 0
3, 600240, Note_on_c, 0, 70, 0
3, 600960, Note_on_c, 4, 60, 100
3, 601200, Note_on_c, 4, 60, 0
3, 601440, Note_on_c, 4, 60, 100
3, 601680, Note_on_c, 4, 60, 0
3, 601920, Note_on_c, 4, 61, 100
3, 601920, Note_on_c, 0, 70, 100
3, 602160, Note_on_c, 4, 61, 0
3, 602160, Note_on_c, 0, 70, 0
3, 602880, Note_on_c, 4, 60, 100
3, 603120, Note_on_c, 4, 60, 0
3, 603840, Note_on_c, 4, 61, 100
3, 603840, Note_on_c, 0, 70, 100
3, 604080, Note_on_c, 4, 61, 0
3, 604080, Note_on_c, 0, 70, 0
3, 604800, Note_on_c, 4, 60, 100
3, 604800, Note_on_c, 4, 61, 100
3, 604800, Note_on_c, 0, 70, 100
3, 605040, Note_on_c, 4, 60, 0
3, 605040, Note_on_c, 4, 61, 0
3, 605040, Note_on_c, 0, 70, 0
3, 605280, Note_on_c, 4, 60, 100
3, 605520, Note_on_c, 4, 60, 0
3, 605760, Note_on_c, 4, 61, 100
3, 605760, Note_on_c, 0, 70, 100
3, 606000, Note_on_c, 4, 61, 0
3, 606000, Note_on_c, 0, 70, 0
3, 606720, Note_on_c, 4, 60, 100
3, 606720, Note_on_c, 4, 61, 100
3, 606720, Note_on_c, 0, 69, 100
3, 606960, Note_on_c, 4, 60, 0
3, 606960, Note_on_c, 4, 61, 0
3, 606960, Note_on_c, 0, 69, 0
3, 607680, Note_on_c, 4, 61, 100
3, 607680, Note_on_c, 0, 69, 100
3, 607920, Note_on_c, 4, 61, 0
3, 607920, Note_on_c, 0, 69, 0
3, 608640, Note_on_c, 4, 60, 100
3, 608880, Note_on_c, 4, 60, 0
3, 609120, Note_on_c, 4, 60, 100
3, 609360, Note_on_c, 4, 60, 0
3, 609600, Note_on_c, 4, 61, 100
3, 609600, Note_on_c, 0, 69, 100
3, 609840, Note_on_c, 4, 61, 0
3, 609840, Note_on_c, 0, 69, 0
3, 610560, Note_on_c, 4, 60, 100
3, 610800, Note_on_c, 4, 60, 0
3, 611520, Note_on_c, 4, 61, 100
3, 611520, Note_on_c, 0, 69, 100
3, 611760, Note_on_c, 4, 61, 0
3, 611760, Note_on_c, 0, 69, 0
3, 612480, Note_on_c, 4, 60, 100
3, 612480, Note_on_c, 4, 61, 100
3, 612480, Note_on_c, 0, 69, 100
3, 612720, Note_on_c, 4, 60, 0
3, 612720, Note_on_c, 4, 61, 0
3, 612720, Note_on_c, 0, 69, 0
3, 612960, Note_on_c, 4, 60, 100
3, 613200, Note_on_c, 4, 60, 0
3, 613440, Note_on_c, 4, 61, 100
3, 613440, Note_on_c, 0, 69, 100
3, 613680, Note_on_c, 4, 61, 0
3, 613680, Note_on_c, 0, 69, 0
3, 614400, Note_on_c, 4, 60, 100
3, 614400, Note_on_c, 4, 61, 100
3, 614400, Note_on_c, 0, 70, 100
3, 614640, Note_on_c, 4, 60, 0
3, 614640, Note_on_c, 4, 61, 0
3, 614640, Note_on_c, 0, 70, 0
3, 615360, Note_on_c, 4, 61, 100
3, 615360, Note_on_c, 0, 70, 100
3, 615600, Note_on_c, 4, 61, 0
3, 615600, Note_on_c, 0, 70, 0
3, 616320, Note_on_c, 4, 60, 100
3, 616560, Note_on_c, 4, 60, 0
3, 616800, Note_on_c, 4, 60, 100
3, 617040, Note_on_c, 4, 60, 0
3, 617280, Note_on_c, 4, 61, 100
3, 617280, Note_on_c, 0, 70, 100
3, 617520, Note_on_c, 4, 61, 0
3, 617520, Note_on_c, 0, 70, 0
3, 618240, Note_on_c, 4, 60, 100
3, 618480, Note_on_c, 4, 60, 0
3, 619200, Note_on_c, 4, 61, 100
3, 619200, Note_on_c, 0, 70, 100
3, 619440, Note_on_c, 4, 61, 0
3, 619440, Note_on_c, 0, 70, 0
3, 620160, Note_on_c, 4, 60, 100
3, 620160, Note_on_c, 4, 61, 100
3, 620160, Note_on_c, 0, 70, 100
3, 620400, Note_on_c, 4, 60, 0
3, 620400, Note_on_c, 4, 61, 0
3, 620400, Note_on_c, 0, 70, 0
3, 620640, Note_on_c, 4, 60, 100
3, 620880, Note_on_c, 4, 60, 0
3, 621120, Note_on_c, 4, 61, 100
3, 621120, Note_on_c, 0, 70, 100
3, 621360, Note_on_c, 4, 61, 0
3, 621360, Note_on_c, 0, 70, 0
3, 622080, Note_on_c, 4, 60, 100
3, 622080, Note_on_c, 4, 61, 100
3, 622080, Note_on_c, 0, 69, 100
3, 622320, Note_on_c, 4, 60, 0
3, 622320, Note_on_c, 4, 61, 0
3, 622320, Note_on_c, 0, 69, 0
3, 623040, Note_on_c, 4, 61, 100
3, 623040, Note_on_c, 0, 69, 100
3, 623280, Note_on_c, 4, 61, 0
3, 623280, Note_on_c, 0, 69, 0
3, 624000, Note_on_c, 4, 60, 100
3, 624240, Note_on_c, 4, 60, 0
3, 624480, Note_on_c, 4, 60, 100
3, 624720, Note_on_c, 4, 60, 0
3, 624960, Note_on_c, 4, 61, 100
3, 624960, Note_on_c, 0, 69, 100
3, 625200, Note_on_c, 4, 61, 0
3, 625200, Note_on_c, 0, 69, 0
3, 625920, Note_on_c, 4, 60, 100
3, 626160, Note_on_c, 4, 60, 0
3, 626880, Note_on_c, 4, 61, 100
3, 626880, Note_on_c, 0, 69, 100
3, 627120, Note_on_c, 4, 61, 0
3, 627120, Note_on_c, 0, 69, 0
3, 627840, Note_on_c, 4, 60, 100
3, 627840, Note_on_c, 4, 61, 100
3, 627840, Note_on_c, 0, 69, 100
3, 628080, Note_on_c, 4, 60, 0
3, 628080, Note_on_c, 4, 61, 0
3, 628080, Note_on_c, 0, 69, 0
3, 628320, Note_on_c, 4, 60, 100
3, 628560, Note_on_c, 4, 60, 0
3, 628800, Note_on_c, 4, 61, 100
3, 628800, Note_on_c, 0, 69, 100
3, 629040, Note_on_c, 4, 61, 0
3, 629040, Note_on_c, 0, 69, 0
3, 629760, Note_on_c, 4, 60, 100
3, 629760, Note_on_c, 4, 61, 100
3, 629760, Note_on_c, 0, 70, 100
3, 630000, Note_on_c, 4, 60, 0
3, 630000, Note_on_c, 4, 61, 0
3, 630000, Note_on_c, 0, 70, 0
3, 630720, Note_on_c, 4, 61, 100
3, 630720, Note_on_c, 0, 70, 100
3, 630960, Note_on_c, 4, 61, 0
3, 630960, Note_on_c, 0, 70, 0
3, 631680, Note_on_c, 4, 60, 100
3, 631920, Note_on_c, 4, 60, 0
3, 632160, Note_on_c, 4, 60, 100
3, 632400, Note_on_c, 4, 60, 0
3, 632640, Note_on_c, 4, 61, 100
3, 632640, Note_on_c, 0, 70, 100
3, 632880, Note_on_c, 4, 61, 0
3, 632880, Note_on_c, 0, 70, 0
3, 633600, Note_on_c, 4, 60, 100
3, 633840, Note_on_c, 4, 60, 0
3, 634560, Note_on_c, 4, 61, 100
3, 634560, Note_on_c, 0, 70, 100
3, 634800, Note_on_c, 4, 61, 0
3, 634800, Note_on_c, 0, 70, 0
3, 635520, Note_on_c, 4, 60, 100
3, 635520, Note_on_c, 4, 61, 100
3, 635520, Note_on_c, 0, 70, 100
3, 635760, Note_on_c, 4, 60, 0
3, 635760, Note_on_c, 4, 61, 0
3, 635760, Note_on_c, 0, 70, 0
3, 636000, Note_on_c, 4, 60, 100
3, 636240, Note_on_c, 4, 60, 0
3, 636480, Note_on_c, 4, 61, 100
3, 636480, Note_on_c, 0, 70, 100
3, 636720, Note_on_c, 4, 61, 0
3, 636720, Note_on_c, 0, 70, 0
3, 637440, Note_on_c, 4, 60, 100
3, 637440, Note_on_c, 4, 61, 100
3, 637440, Note_on_c, 0, 69, 100
3, 637680, Note_on_c, 4, 60, 0
3, 637680, Note_on_c, 4, 61, 0
3, 637680, Note_on_c, 0, 69, 0
3, 638400, Note_on_c, 4, 61, 100
3, 638400, Note_on_c, 0, 69, 100
3, 638640, Note_on_c, 4, 61, 0
3, 638640, Note_on_c, 0, 69, 0
3, 639360, Note_on_c, 4, 60, 100
3, 639600, Note_on_c, 4, 60, 0
3, 639840, Note_on_c, 4, 60, 100
3, 640080, Note_on_c, 4, 60, 0
3, 640320, Note_on_c, 4, 61, 100
3, 640320, Note_on_c, 0, 69, 100
3, 640560, Note_on_c, 4, 61, 0
3, 640560, Note_on_c, 0, 69, 0
3, 641280, Note_on_c, 4, 60, 100
3, 641520, Note_on_c, 4, 60, 0
3, 642240, Note_on_c, 4, 61, 100
3, 642240, Note_on_c, 0, 69, 100
3, 642480, Note_on_c, 4, 61, 0
3, 642480, Note_on_c, 0, 69, 0
3, 643200, Note_on_c, 4, 60, 100
3, 643200, Note_on_c, 4, 61, 100
3, 643200, Note_on_c, 0, 69, 100
3, 643440, Note_on_c, 4, 60, 0
3, 643440, Note_on_c, 4, 61, 0
3, 643440, Note_on_c, 0, 69, 0
3, 643680, Note_on_c, 4, 60, 100
3, 643920, Note_on_c, 4, 60, 0
3, 644160, Note_on_c, 4, 61, 100
3, 644160, Note_on_c, 0, 69, 100
3, 644400, Note_on_c, 4, 61, 0
3, 644400, Note_on_c, 0, 69, 0
3, 645120, Note_on_c, 4, 60, 100
3, 645120, Note_on_c, 4, 61, 100
3, 645120, Note_on_c, 0, 70, 100
3, 645360, Note_on_c, 4, 60, 0
3, 645360, Note_on_c, 4, 61, 0
3, 645360, Note_on_c, 0, 70, 0
3, 647040, Note_on_c, 4, 60, 100
3, 647040, Note_on_c, 4, 61, 100
3, 647040, Note_on_c, 0, 69, 100
3, 647280, Note_on_c, 4, 60, 0
3, 647280, Note_on_c, 4, 61, 0
3, 647280, Note_on_c, 0, 69, 0
3, 648960, Note_on_c, 4, 60, 100
3, 648960, Note_on_c, 4, 61, 100
3, 648960, Note_on_c, 0, 70, 100
3, 649200, Note_on_c, 4, 60, 0
3, 649200, Note_on_c, 4, 61, 0
3, 649200, Note_on_c, 0, 70, 0
3, 650880, Note_on_c, 4, 60, 100
3, 650880, Note_on_c, 4, 61, 100
3, 650880, Note_on_c, 0, 69, 100
3, 651120, Note_on_c, 4, 60, 0
3, 651120, Note_on_c, 4, 61, 0
3, 651120, Note_on_c, 0, 69, 0
3, 652800, Note_on_c, 4, 60, 100
3, 652800, Note_on_c, 4, 61, 100
3, 652800, Note_on_c, 0, 70, 100
3, 653040, Note_on_c, 4, 60, 0
3, 653040, Note_on_c, 4, 61, 0
3, 653040, Note_on_c, 0, 70, 0
3, 653760, Note_on_c, 4, 61, 100
3, 653760, Note_on_c, 0, 70, 100
3, 654000, Note_on_c, 4, 61, 0
3, 654000, Note_on_c, 0, 70, 0
3, 654720, Note_on_c, 4, 61, 100
3, 654720, Note_on_c, 0, 70, 100
3, 654960, Note_on_c, 4, 61, 0
3, 654960, Note_on_c, 0, 70, 0
3, 655200, Note_on_c, 4, 61, 100
3, 655440, Note_on_c, 4, 61, 0
3, 655680, Note_on_c, 4, 61, 100
3, 655920, Note_on_c, 4, 61, 0
3, 656160, Note_on_c, 4, 61, 100
3, 656160, Note_on_c, 0, 69, 100
3, 656400, Note_on_c, 4, 61, 0
3, 656400, Note_on_c, 0, 69, 0
3, 657600, Note_on_c, 4, 61, 100
3, 657600, Note_on_c, 0, 69, 100
3, 657840, Note_on_c, 4, 61, 0
3, 657840, Note_on_c, 0, 69, 0
3, 658560, Note_on_c, 4, 61, 100
3, 658560, Note_on_c, 0, 69, 100
3, 658800, Note_on_c, 4, 61, 0
3, 658800, Note_on_c, 0, 69, 0
3, 659520, Note_on_c, 4, 61, 100
3, 659520, Note_on_c, 0, 69, 100
3, 659760, Note_on_c, 4, 61, 0
3, 659760, Note_on_c, 0, 69, 0
3, 660480, Note_on_c, 4, 60, 100
3, 660480, Note_on_c, 4, 61, 100
3, 660480, Note_on_c, 0, 70, 100
3, 660720, Note_on_c, 4, 60, 0
3, 660720, Note_on_c, 4, 61, 0
3, 660720, Note_on_c, 0, 70, 0
3, 661440, Note_on_c, 4, 61, 100
3, 661440, Note_on_c, 0, 70, 100
3, 661680, Note_on_c, 4, 61, 0
3, 661680, Note_on_c, 0, 70, 0
3, 662400, Note_on_c, 4, 60, 100
3, 662640, Note_on_c, 4, 60, 0
3, 662880, Note_on_c, 4, 60, 100
3, 663120, Note_on_c, 4, 60, 0
3, 663360, Note_on_c, 4, 61, 100
3, 663360, Note_on_c, 0, 70, 100
3, 663600, Note_on_c, 4, 61, 0
3, 663600, Note_on_c, 0, 70, 0
3, 664320, Note_on_c, 4, 60, 100
3, 664560, Note_on_c, 4, 60, 0
3, 665280, Note_on_c, 4, 61, 100
3, 665280, Note_on_c, 0, 68, 100
3, 665520, Note_on_c, 4, 61, 0
3, 665520, Note_on_c, 0, 68, 0
3, 666240, Note_on_c, 4, 60, 100
3, 666240, Note_on_c, 4, 61, 100
3, 666240, Note_on_c, 0, 69, 100
3, 666480, Note_on_c, 4, 60, 0
3, 666480, Note_on_c, 4, 61, 0
3, 666480, Note_on_c, 0, 69, 0
3, 666720, Note_on_c, 4, 60, 100
3, 666960, Note_on_c, 4, 60, 0
3, 667200, Note_on_c, 4, 61, 100
3, 667440, Note_on_c, 4, 61, 0
3, 668160, Note_on_c, 4, 60, 100
3, 668160, Note_on_c, 4, 61, 100
3, 668160, Note_on_c, 0, 69, 100
3, 668400, Note_on_c, 4, 60, 0
3, 668400, Note_on_c, 4, 61, 0
3, 669120, Note_on_c, 4, 61, 100
3, 669360, Note_on_c, 4, 61, 0
3, 670080, Note_on_c, 4, 60, 100
3, 670320, Note_on_c, 4, 60, 0
3, 670560, Note_on_c, 4, 60, 100
3, 670800, Note_on_c, 4, 60, 0
3, 671040, Note_on_c, 4, 61, 100
3, 671280, Note_on_c, 4, 61, 0
3, 672000, Note_on_c, 4, 60, 100
3, 672240, Note_on_c, 4, 60, 0
3, 672720, Note_on_c, 0, 69, 0
3, 672960, Note_on_c, 4, 61, 100
3, 672960, Note_on_c, 0, 69, 100
3, 673200, Note_on_c, 4, 61, 0
3, 673200, Note_on_c, 0, 69, 0
3, 673920, Note_on_c, 4, 60, 100
3, 673920, Note_on_c, 4, 61, 100
3, 673920, Note_on_c, 0, 70, 100
3, 674160, Note_on_c, 4, 60, 0
3, 674160, Note_on_c, 4, 61, 0
3, 674160, Note_on_c, 0, 70, 0
3, 674400, Note_on_c, 4, 60, 100
3, 674640, Note_on_c, 4, 60, 0
3, 674880, Note_on_c, 4, 61, 100
3, 675120, Note_on_c, 4, 61, 0
3, 675840, Note_on_c, 4, 60, 100
3, 675840, Note_on_c, 4, 61, 100
3, 675840, Note_on_c, 0, 69, 100
3, 676080, Note_on_c, 4, 60, 0
3, 676080, Note_on_c, 4, 61, 0
3, 676800, Note_on_c, 4, 61, 100
3, 677040, Note_on_c, 4, 61, 0
3, 677760, Note_on_c, 4, 60, 100
3, 678000, Note_on_c, 4, 60, 0
3, 678240, Note_on_c, 4, 60, 100
3, 678480, Note_on_c, 4, 60, 0
3, 678720, Note_on_c, 4, 61, 100
3, 678960, Note_on_c, 4, 61, 0
3, 679680, Note_on_c, 4, 60, 100
3, 679920, Note_on_c, 4, 60, 0
3, 680400, Note_on_c, 0, 69, 0
3, 680640, Note_on_c, 4, 61, 100
3, 680640, Note_on_c, 0, 69, 100
3, 680880, Note_on_c, 4, 61, 0
3, 680880, Note_on_c, 0, 69, 0
3, 681600, Note_on_c, 4, 60, 100
3, 681600, Note_on_c, 4, 61, 100
3, 681600, Note_on_c, 0, 70, 100
3, 681840, Note_on_c, 4, 60, 0
3, 681840, Note_on_c, 4, 61, 0
3, 681840, Note_on_c, 0, 70, 0
3, 682080, Note_on_c, 4, 60, 100
3, 682320, Note_on_c, 4, 60, 0
3, 682560, Note_on_c, 4, 61, 100
3, 682800, Note_on_c, 4, 61, 0
3, 683520, Note_on_c, 4, 60, 100
3, 683520, Note_on_c, 4, 61, 100
3, 683520, Note_on_c, 0, 69, 100
3, 683760, Note_on_c, 4, 60, 0
3, 683760, Note_on_c, 4, 61, 0
3, 684480, Note_on_c, 4, 61, 100
3, 684720, Note_on_c, 4, 61, 0
3, 685440, Note_on_c, 4, 60, 100
3, 685680, Note_on_c, 4, 60, 0
3, 685920, Note_on_c, 4, 60, 100
3, 686160, Note_on_c, 0, 69, 0
3, 686160, Note_on_c, 4, 60, 0
3, 686400, Note_on_c, 4, 61, 100
3, 686400, Note_on_c, 0, 68, 100
3, 686640, Note_on_c, 4, 61, 0
3, 686640, Note_on_c, 0, 68, 0
3, 687360, Note_on_c, 4, 60, 100
3, 687600, Note_on_c, 4, 60, 0
3, 688320, Note_on_c, 4, 61, 100
3, 688320, Note_on_c, 0, 68, 100
3, 688560, Note_on_c, 4, 61, 0
3, 688560, Note_on_c, 0, 68, 0
3, 689280, Note_on_c, 4, 60, 100
3, 689280, Note_on_c, 4, 61, 100
3, 689280, Note_on_c, 0, 69, 100
3, 689520, Note_on_c, 4, 60, 0
3, 689520, Note_on_c, 4, 61, 0
3, 689520, Note_on_c, 0, 69, 0
3, 689760, Note_on_c, 4, 60, 100
3, 690000, Note_on_c, 4, 60, 0
3, 690240, Note_on_c, 4, 61, 100
3, 690480, Note_on_c, 4, 61, 0
3, 691200, Note_on_c, 4, 60, 100
3, 691200, Note_on_c, 4, 61, 100
3, 691200, Note_on_c, 0, 69, 100
3, 691440, Note_on_c, 4, 60, 0
3, 691440, Note_on_c, 4, 61, 0
3, 692160, Note_on_c, 4, 61, 100
3, 692400, Note_on_c, 4, 61, 0
3, 693120, Note_on_c, 4, 60, 100
3, 693360, Note_on_c, 4, 60, 0
3, 693600, Note_on_c, 4, 60, 100
3, 693840, Note_on_c, 4, 60, 0
3, 694080, Note_on_c, 4, 61, 100
3, 694320, Note_on_c, 4, 61, 0
3, 695040, Note_on_c, 4, 60, 100
3, 695280, Note_on_c, 0, 69, 0
3, 695280, Note_on_c, 4, 60, 0
3, 695520, Note_on_c, 0, 69, 100
3, 695760, Note_on_c, 0, 69, 0
3, 696000, Note_on_c, 4, 61, 100
3, 696240, Note_on_c, 4, 61, 0
3, 696960, Note_on_c, 4, 60, 100
3, 696960, Note_on_c, 4, 61, 100
3, 697200, Note_on_c, 4, 60, 0
3, 697200, Note_on_c, 4, 61, 0
3, 697440, Note_on_c, 4, 60, 100
3, 697680, Note_on_c, 4, 60, 0
3, 697920, Note_on_c, 4, 61, 100
3, 698160, Note_on_c, 4, 61, 0
3, 698880, Note_on_c, 4, 60, 100
3, 698880, Note_on_c, 4, 61, 100
3, 698880, Note_on_c, 0, 68, 100
3, 699120, Note_on_c, 4, 60, 0
3, 699120, Note_on_c, 4, 61, 0
3, 699840, Note_on_c, 4, 61, 100
3, 700080, Note_on_c, 4, 61, 0
3, 700800, Note_on_c, 4, 60, 100
3, 701040, Note_on_c, 0, 68, 0
3, 701040, Note_on_c, 4, 60, 0
3, 701280, Note_on_c, 4, 60, 100
3, 701280, Note_on_c, 0, 69, 100
3, 701520, Note_on_c, 4, 60, 0
3, 701760, Note_on_c, 4, 61, 100
3, 702000, Note_on_c, 4, 61, 0
3, 702720, Note_on_c, 4, 60, 100
3, 702960, Note_on_c, 4, 60, 0
3, 703440, Note_on_c, 0, 69, 0
3, 703680, Note_on_c, 4, 61, 100
3, 703680, Note_on_c, 0, 70, 100
3, 703920, Note_on_c, 4, 61, 0
3, 703920, Note_on_c, 0, 70, 0
3, 704640, Note_on_c, 4, 60, 100
3, 704640, Note_on_c, 4, 61, 100
3, 704880, Note_on_c, 4, 60, 0
3, 704880, Note_on_c, 4, 61, 0
3, 705120, Note_on_c, 4, 60, 100
3, 705360, Note_on_c, 4, 60, 0
3, 705600, Note_on_c, 4, 61, 100
3, 705840, Note_on_c, 4, 61, 0
3, 706560, Note_on_c, 4, 61, 100
3, 706560, Note_on_c, 0, 70, 100
3, 706800, Note_on_c, 4, 61, 0
3, 706800, Note_on_c, 0, 70, 0
3, 707520, Note_on_c, 4, 60, 100
3, 707760, Note_on_c, 4, 60, 0
3, 708480, Note_on_c, 4, 61, 100
3, 708480, Note_on_c, 0, 69, 100
3, 708720, Note_on_c, 4, 61, 0
3, 708720, Note_on_c, 0, 69, 0
3, 709440, Note_on_c, 4, 60, 100
3, 709680, Note_on_c, 4, 60, 0
3, 710400, Note_on_c, 4, 61, 100
3, 710400, Note_on_c, 0, 70, 100
3, 710640, Note_on_c, 4, 61, 0
3, 710640, Note_on_c, 0, 70, 0
3, 711360, Note_on_c, 4, 60, 100
3, 711600, Note_on_c, 4, 60, 0
3, 712320, Note_on_c, 4, 61, 100
3, 712320, Note_on_c, 0, 69, 100
3, 712560, Note_on_c, 4, 61, 0
3, 712560, Note_on_c, 0, 69, 0
3, 713280, Note_on_c, 4, 60, 100
3, 713520, Note_on_c, 4, 60, 0
3, 714240, Note_on_c, 4, 61, 100
3, 714240, Note_on_c, 0, 70, 100
3, 714480, Note_on_c, 4, 61, 0
3, 714480, Note_on_c, 0, 70, 0
3, 715200, Note_on_c, 4, 60, 100
3, 715200, Note_on_c, 4, 61, 100
3, 715200, Note_on_c, 0, 70, 100
3, 715440, Note_on_c, 4, 60, 0
3, 715440, Note_on_c, 4, 61, 0
3, 715440, Note_on_c, 0, 70, 0
3, 715680, Note_on_c, 4, 60, 100
3, 715920, Note_on_c, 4, 60, 0
3, 716160, Note_on_c, 4, 61, 100
3, 716160, Note_on_c, 0, 70, 100
3, 716400, Note_on_c, 4, 61, 0
3, 716400, Note_on_c, 0, 70, 0
3, 717120, Note_on_c, 4, 60, 100
3, 717120, Note_on_c, 4, 61, 100
3, 717120, Note_on_c, 0, 70, 100
3, 717360, Note_on_c, 4, 60, 0
3, 717360, Note_on_c, 4, 61, 0
3, 717360, Note_on_c, 0, 70, 0
3, 717600, Note_on_c, 4, 60, 100
3, 717840, Note_on_c, 4, 60, 0
3, 718080, Note_on_c, 4, 61, 100
3, 718080, Note_on_c, 0, 70, 100
3, 718320, Note_on_c, 4, 61, 0
3, 719040, Note_on_c, 0, 70, 0
3, 719040, End_track
4, 0, Start_track
4, 0, Title_t, "EVENTS"
4, 0, Text_t, "gtr_off"
4, 0, Text_t, "[verse]"
4, 0, Text_t, "bass_off"
4, 0, Text_t, "sing_off"
4, 0, Text_t, "bass_half_tempo"
4, 0, Text_t, "[crowd_half_tempo]"
4, 0, Text_t, "drum_half_tempo"
4, 0, Text_t, "gtr_half_tempo"
4, 0, Text_t, "[half_tempo]"
4, 7680, Text_t, "gtr_on"
4, 7680, Text_t, "bass_on"
4, 7680, Text_t, "[lighting ()]"
4, 7680, Text_t, "[chorus]"
4, 7680, Text_t, "[lighting (sweep)]"
4, 69120, Text_t, "sing_on"
4, 69120, Text_t, "[verse]"
4, 69120, Text_t, "[lighting ()]"
4, 84480, Text_t, "sing_off"
4, 84480, Text_t, "[lighting (sweep)]"
4, 99840, Text_t, "sing_on"
4, 99840, Text_t, "[lighting ()]"
4, 115200, Text_t, "[lighting (sweep)]"
4, 119040, Text_t, "sing_off"
4, 130560, Text_t, "sing_on"
4, 130560, Text_t, "[lighting ()]"
4, 161280, Text_t, "[chorus]"
4, 161280, Text_t, "[lighting (sweep)]"
4, 207360, Text_t, "[lighting (color1)]"
4, 215040, Text_t, "[lighting ()]"
4, 222720, Text_t, "[verse]"
4, 222720, Text_t, "[lighting ()]"
4, 238080, Text_t, "[lighting (sweep)]"
4, 241920, Text_t, "sing_off"
4, 253440, Text_t, "sing_on"
4, 253440, Text_t, "[lighting ()]"
4, 268800, Text_t, "sing_off"
4, 268800, Text_t, "[lighting (sweep)]"
4, 284160, Text_t, "sing_on"
4, 284160, Text_t, "[lighting ()]"
4, 314880, Text_t, "[chorus]"
4, 314880, Text_t, "[lighting (sweep)]"
4, 360960, Text_t, "[lighting (color2)]"
4, 368640, Text_t, "[lighting ()]"
4, 372480, Text_t, "sing_off"
4, 376320, Text_t, "[solo]"
4, 376320, Text_t, "solo_on"
4, 376320, Text_t, "[lighting ()]"
4, 437760, Text_t, "solo_off"
4, 499200, Text_t, "[verse]"
4, 499200, Text_t, "sing_on"
4, 514560, Text_t, "sing_off"
4, 529920, Text_t, "sing_on"
4, 545280, Text_t, "sing_off"
4, 560640, Text_t, "sing_on"
4, 599040, Text_t, "[chorus]"
4, 599040, Text_t, "[lighting (sweep)]"
4, 645120, Text_t, "[lighting (color1)]"
4, 660480, Text_t, "[lighting (color2)]"
4, 660480, Text_t, "[lighting ()]"
4, 706560, Text_t, "[lighting (sweep)]"
4, 706560, Text_t, "[lighting ()]"
4, 718080, Text_t, "gtr_off"
4, 718080, Text_t, "sing_off"
4, 718080, Text_t, "bass_off"
4, 718080, Text_t, "[lighting ()]"
4, 719040, Text_t, "[lighting (flare)]"
4, 723838, Text_t, "[end]"
4, 723838, End_track
5, 0, Start_track
5, 0, Title_t, "BAND BASS"
5, 0, Text_t, "gtr_off"
5, 0, Text_t, "drum_off"
5, 0, Text_t, "[idle]"
5, 0, Text_t, "sing_off"
5, 0, Text_t, "bass_half_tempo"
5, 0, Text_t, "[crowd_half_tempo]"
5, 0, Text_t, "drum_half_tempo"
5, 0, Text_t, "gtr_half_tempo"
5, 0, Text_t, "[half_tempo]"
5, 7680, Text_t, "gtr_on"
5, 7680, Text_t, "[play]"
5, 7680, Text_t, "drum_double"
5, 7680, Text_t, "[chorus]"
5, 7680, Text_t, "[lighting (sweep)]"
5, 69120, Text_t, "sing_on"
5, 69120, Text_t, "[verse]"
5, 69120, Text_t, "[lighting ()]"
5, 84480, Text_t, "sing_off"
5, 84480, Text_t, "[lighting (sweep)]"
5, 99840, Text_t, "sing_on"
5, 99840, Text_t, "[lighting ()]"
5, 115200, Text_t, "[lighting (sweep)]"
5, 119040, Text_t, "sing_off"
5, 130560, Text_t, "sing_on"
5, 130560, Text_t, "[lighting ()]"
5, 161280, Text_t, "[chorus]"
5, 161280, Text_t, "[lighting (sweep)]"
5, 207360, Text_t, "drum_allbeat"
5, 215040, Text_t, "drum_double"
5, 222720, Text_t, "[verse]"
5, 222720, Text_t, "[lighting ()]"
5, 238080, Text_t, "[lighting (sweep)]"
5, 241920, Text_t, "sing_off"
5, 253440, Text_t, "sing_on"
5, 253440, Text_t, "[lighting ()]"
5, 268800, Text_t, "sing_off"
5, 268800, Text_t, "[lighting (sweep)]"
5, 284160, Text_t, "sing_on"
5, 284160, Text_t, "[lighting ()]"
5, 314880, Text_t, "[chorus]"
5, 314880, Text_t, "[lighting (sweep)]"
5, 360960, Text_t, "drum_allbeat"
5, 368640, Text_t, "drum_double"
5, 372480, Text_t, "sing_off"
5, 376320, Text_t, "[solo]"
5, 376320, Text_t, "solo_on"
5, 376320, Text_t, "[lighting ()]"
5, 437760, Text_t, "solo_off"
5, 499200, Text_t, "[verse]"
5, 499200, Text_t, "sing_on"
5, 514560, Text_t, "sing_off"
5, 529920, Text_t, "sing_on"
5, 545280, Text_t, "sing_off"
5, 560640, Text_t, "sing_on"
5, 599040, Text_t, "[chorus]"
5, 599040, Text_t, "[lighting (sweep)]"
5, 645120, Text_t, "drum_allbeat"
5, 660480, Text_t, "[lighting ()]"
5, 660480, Text_t, "drum_double"
5, 706560, Text_t, "[lighting (sweep)]"
5, 706560, Text_t, "drum_allbeat"
5, 718080, Text_t, "gtr_off"
5, 718080, Text_t, "sing_off"
5, 718080, Text_t, "[idle]"
5, 718080, Text_t, "[lighting ()]"
5, 719040, Text_t, "drum_off"
5, 723838, Text_t, "[end]"
5, 723838, End_track
6, 0, Start_track
6, 0, Title_t, "BAND DRUMS"
6, 0, Text_t, "gtr_off"
6, 0, Text_t, "[idle]"
6, 0, Text_t, "bass_off"
6, 0, Text_t, "sing_off"
6, 0, Text_t, "bass_half_tempo"
6, 0, Text_t, "[crowd_half_tempo]"
6, 0, Text_t, "drum_half_tempo"
6, 0, Text_t, "gtr_half_tempo"
6, 0, Text_t, "[half_tempo]"
6, 7680, Text_t, "gtr_on"
6, 7680, Text_t, "bass_on"
6, 7680, Text_t, "[double_time]"
6, 7680, Text_t, "[chorus]"
6, 7680, Text_t, "[lighting (sweep)]"
6, 69120, Text_t, "sing_on"
6, 69120, Text_t, "[verse]"
6, 69120, Text_t, "[lighting ()]"
6, 84480, Text_t, "sing_off"
6, 84480, Text_t, "[lighting (sweep)]"
6, 99840, Text_t, "sing_on"
6, 99840, Text_t, "[lighting ()]"
6, 115200, Text_t, "[lighting (sweep)]"
6, 119040, Text_t, "sing_off"
6, 130560, Text_t, "sing_on"
6, 130560, Text_t, "[lighting ()]"
6, 161280, Text_t, "[chorus]"
6, 161280, Text_t, "[lighting (sweep)]"
6, 207360, Text_t, "[allbeat]"
6, 215040, Text_t, "[double_time]"
6, 222720, Text_t, "[verse]"
6, 222720, Text_t, "[lighting ()]"
6, 238080, Text_t, "[lighting (sweep)]"
6, 241920, Text_t, "sing_off"
6, 253440, Text_t, "sing_on"
6, 253440, Text_t, "[lighting ()]"
6, 268800, Text_t, "sing_off"
6, 268800, Text_t, "[lighting (sweep)]"
6, 284160, Text_t, "sing_on"
6, 284160, Text_t, "[lighting ()]"
6, 314880, Text_t, "[chorus]"
6, 314880, Text_t, "[lighting (sweep)]"
6, 360960, Text_t, "[allbeat]"
6, 368640, Text_t, "[double_time]"
6, 372480, Text_t, "sing_off"
6, 376320, Text_t, "[solo]"
6, 376320, Text_t, "solo_on"
6, 376320, Text_t, "[lighting ()]"
6, 437760, Text_t, "solo_off"
6, 499200, Text_t, "[verse]"
6, 499200, Text_t, "sing_on"
6, 514560, Text_t, "sing_off"
6, 529920, Text_t, "sing_on"
6, 545280, Text_t, "sing_off"
6, 560640, Text_t, "sing_on"
6, 599040, Text_t, "[chorus]"
6, 599040, Text_t, "[lighting (sweep)]"
6, 645120, Text_t, "[allbeat]"
6, 660480, Text_t, "[lighting ()]"
6, 660480, Text_t, "[double_time]"
6, 706560, Text_t, "[lighting (sweep)]"
6, 706560, Text_t, "[allbeat]"
6, 718080, Text_t, "gtr_off"
6, 718080, Text_t, "sing_off"
6, 718080, Text_t, "bass_off"
6, 718080, Text_t, "[lighting ()]"
6, 719040, Text_t, "[idle]"
6, 723838, Text_t, "[end]"
6, 723838, End_track
7, 0, Start_track
7, 0, Title_t, "BAND SINGER"
7, 0, Text_t, "gtr_off"
7, 0, Text_t, "drum_off"
7, 0, Text_t, "bass_off"
7, 0, Text_t, "[idle]"
7, 0, Text_t, "bass_half_tempo"
7, 0, Text_t, "[crowd_half_tempo]"
7, 0, Text_t, "drum_half_tempo"
7, 0, Text_t, "gtr_half_tempo"
7, 0, Text_t, "[half_tempo]"
7, 7680, Text_t, "gtr_on"
7, 7680, Text_t, "bass_on"
7, 7680, Text_t, "drum_double"
7, 7680, Text_t, "[chorus]"
7, 7680, Text_t, "[lighting (sweep)]"
7, 69120, Text_t, "[play]"
7, 69120, Text_t, "[verse]"
7, 69120, Text_t, "[lighting ()]"
7, 84480, Text_t, "[idle]"
7, 84480, Text_t, "[lighting (sweep)]"
7, 99840, Text_t, "[play]"
7, 99840, Text_t, "[lighting ()]"
7, 115200, Text_t, "[lighting (sweep)]"
7, 119040, Text_t, "[idle]"
7, 130560, Text_t, "[play]"
7, 130560, Text_t, "[lighting ()]"
7, 161280, Text_t, "[chorus]"
7, 161280, Text_t, "[lighting (sweep)]"
7, 207360, Text_t, "drum_allbeat"
7, 215040, Text_t, "drum_double"
7, 222720, Text_t, "[verse]"
7, 222720, Text_t, "[lighting ()]"
7, 238080, Text_t, "[lighting (sweep)]"
7, 241920, Text_t, "[idle]"
7, 253440, Text_t, "[play]"
7, 253440, Text_t, "[lighting ()]"
7, 268800, Text_t, "[idle]"
7, 268800, Text_t, "[lighting (sweep)]"
7, 284160, Text_t, "[play]"
7, 284160, Text_t, "[lighting ()]"
7, 314880, Text_t, "[chorus]"
7, 314880, Text_t, "[lighting (sweep)]"
7, 360960, Text_t, "drum_allbeat"
7, 368640, Text_t, "drum_double"
7, 372480, Text_t, "[idle]"
7, 376320, Text_t, "[solo]"
7, 376320, Text_t, "solo_on"
7, 376320, Text_t, "[lighting ()]"
7, 437760, Text_t, "solo_off"
7, 499200, Text_t, "[verse]"
7, 499200, Text_t, "[play]"
7, 514560, Text_t, "[idle]"
7, 529920, Text_t, "[play]"
7, 545280, Text_t, "[idle]"
7, 560640, Text_t, "[play]"
7, 599040, Text_t, "[chorus]"
7, 599040, Text_t, "[lighting (sweep)]"
7, 645120, Text_t, "drum_allbeat"
7, 660480, Text_t, "[lighting ()]"
7, 660480, Text_t, "drum_double"
7, 706560, Text_t, "[lighting (sweep)]"
7, 706560, Text_t, "drum_allbeat"
7, 718080, Text_t, "gtr_off"
7, 718080, Text_t, "[idle]"
7, 718080, Text_t, "bass_off"
7, 718080, Text_t, "[lighting ()]"
7, 719040, Text_t, "drum_off"
7, 723838, Text_t, "[end]"
7, 723838, End_track
8, 0, Start_track
8, 0, Title_t, "ANIM"
8, 7680, Note_on_c, 5, 52, 100
8, 7920, Note_on_c, 5, 52, 0
8, 8640, Note_on_c, 5, 40, 100
8, 10320, Note_on_c, 5, 40, 0
8, 11520, Note_on_c, 5, 47, 100
8, 12480, Note_on_c, 5, 47, 0
8, 12960, Note_on_c, 5, 49, 100
8, 13920, Note_on_c, 5, 49, 0
8, 14400, Note_on_c, 5, 42, 100
8, 14880, Note_on_c, 5, 42, 0
8, 15360, Note_on_c, 5, 44, 100
8, 18720, Note_on_c, 5, 44, 0
8, 19200, Note_on_c, 5, 45, 100
8, 22560, Note_on_c, 5, 45, 0
8, 23040, Note_on_c, 5, 52, 100
8, 23520, Note_on_c, 5, 52, 0
8, 24480, Note_on_c, 5, 45, 100
8, 26160, Note_on_c, 5, 45, 0
8, 26880, Note_on_c, 5, 47, 100
8, 27840, Note_on_c, 5, 47, 0
8, 28320, Note_on_c, 5, 49, 100
8, 29280, Note_on_c, 5, 49, 0
8, 29760, Note_on_c, 5, 42, 100
8, 30240, Note_on_c, 5, 42, 0
8, 30720, Note_on_c, 5, 44, 100
8, 34080, Note_on_c, 5, 44, 0
8, 34560, Note_on_c, 5, 45, 100
8, 36000, Note_on_c, 5, 45, 0
8, 36480, Note_on_c, 5, 44, 100
8, 36960, Note_on_c, 5, 44, 0
8, 37440, Note_on_c, 5, 42, 100
8, 37920, Note_on_c, 5, 42, 0
8, 39360, Note_on_c, 5, 52, 100
8, 39840, Note_on_c, 5, 52, 0
8, 40800, Note_on_c, 5, 40, 100
8, 41520, Note_on_c, 5, 40, 0
8, 42240, Note_on_c, 5, 47, 100
8, 43200, Note_on_c, 5, 47, 0
8, 43680, Note_on_c, 5, 49, 100
8, 44640, Note_on_c, 5, 49, 0
8, 45120, Note_on_c, 5, 42, 100
8, 45600, Note_on_c, 5, 42, 0
8, 46080, Note_on_c, 5, 44, 100
8, 49440, Note_on_c, 5, 44, 0
8, 49920, Note_on_c, 5, 45, 100
8, 53280, Note_on_c, 5, 45, 0
8, 53760, Note_on_c, 5, 52, 100
8, 54240, Note_on_c, 5, 52, 0
8, 55200, Note_on_c, 5, 45, 100
8, 56880, Note_on_c, 5, 45, 0
8, 57600, Note_on_c, 5, 47, 100
8, 58560, Note_on_c, 5, 47, 0
8, 59040, Note_on_c, 5, 49, 100
8, 60000, Note_on_c, 5, 49, 0
8, 60480, Note_on_c, 5, 42, 100
8, 60960, Note_on_c, 5, 42, 0
8, 61440, Note_on_c, 5, 44, 100
8, 64800, Note_on_c, 5, 44, 0
8, 65280, Note_on_c, 5, 45, 100
8, 68640, Note_on_c, 5, 45, 0
8, 69120, Note_on_c, 5, 44, 100
8, 83760, Note_on_c, 5, 44, 0
8, 84480, Note_on_c, 5, 47, 100
8, 99120, Note_on_c, 5, 47, 0
8, 99840, Note_on_c, 5, 44, 100
8, 114480, Note_on_c, 5, 44, 0
8, 115200, Note_on_c, 5, 47, 100
8, 126000, Note_on_c, 5, 47, 0
8, 126720, Note_on_c, 5, 52, 100
8, 126960, Note_on_c, 5, 52, 0
8, 129600, Note_on_c, 5, 40, 100
8, 129840, Note_on_c, 5, 40, 0
8, 130560, Note_on_c, 5, 44, 100
8, 133440, Note_on_c, 5, 44, 0
8, 133920, Note_on_c, 5, 40, 100
8, 137280, Note_on_c, 5, 40, 0
8, 137760, Note_on_c, 5, 47, 100
8, 141120, Note_on_c, 5, 47, 0
8, 141600, Note_on_c, 5, 42, 100
8, 145440, Note_on_c, 5, 42, 0
8, 145920, Note_on_c, 5, 44, 100
8, 148800, Note_on_c, 5, 44, 0
8, 149280, Note_on_c, 5, 40, 100
8, 153120, Note_on_c, 5, 40, 0
8, 153600, Note_on_c, 5, 42, 100
8, 160080, Note_on_c, 5, 42, 0
8, 161280, Note_on_c, 5, 52, 100
8, 167520, Note_on_c, 5, 52, 0
8, 168960, Note_on_c, 5, 47, 100
8, 175200, Note_on_c, 5, 47, 0
8, 176640, Note_on_c, 5, 52, 100
8, 182880, Note_on_c, 5, 52, 0
8, 184320, Note_on_c, 5, 45, 100
8, 190560, Note_on_c, 5, 45, 0
8, 192000, Note_on_c, 5, 52, 100
8, 198240, Note_on_c, 5, 52, 0
8, 199680, Note_on_c, 5, 47, 100
8, 205920, Note_on_c, 5, 47, 0
8, 207360, Note_on_c, 5, 52, 100
8, 208560, Note_on_c, 5, 52, 0
8, 209280, Note_on_c, 5, 45, 100
8, 210480, Note_on_c, 5, 45, 0
8, 211200, Note_on_c, 5, 49, 100
8, 212400, Note_on_c, 5, 49, 0
8, 213120, Note_on_c, 5, 47, 100
8, 214320, Note_on_c, 5, 47, 0
8, 215040, Note_on_c, 5, 52, 100
8, 217680, Note_on_c, 5, 52, 0
8, 218400, Note_on_c, 5, 47, 100
8, 222000, Note_on_c, 5, 47, 0
8, 222720, Note_on_c, 5, 49, 100
8, 236880, Note_on_c, 5, 49, 0
8, 238080, Note_on_c, 5, 51, 100
8, 249600, Text_t, "HandMap_AllChords"
8, 250080, Note_on_c, 5, 51, 0
8, 250560, Note_on_c, 5, 47, 100
8, 251040, Note_on_c, 5, 47, 0
8, 251520, Note_on_c, 5, 45, 100
8, 252000, Note_on_c, 5, 45, 0
8, 252480, Note_on_c, 5, 47, 100
8, 252960, Note_on_c, 5, 47, 0
8, 253440, Note_on_c, 5, 49, 100
8, 267600, Note_on_c, 5, 49, 0
8, 268800, Note_on_c, 5, 51, 100
8, 279840, Note_on_c, 5, 51, 0
8, 280320, Note_on_c, 5, 47, 100
8, 280800, Note_on_c, 5, 47, 0
8, 281280, Note_on_c, 5, 45, 100
8, 281760, Note_on_c, 5, 45, 0
8, 282240, Note_on_c, 5, 47, 100
8, 282720, Note_on_c, 5, 47, 0
8, 283680, Note_on_c, 5, 49, 100
8, 286080, Note_on_c, 5, 49, 0
8, 286560, Note_on_c, 5, 47, 100
8, 287040, Note_on_c, 5, 47, 0
8, 287520, Note_on_c, 5, 45, 100
8, 290400, Note_on_c, 5, 45, 0
8, 290880, Note_on_c, 5, 47, 100
8, 291360, Note_on_c, 5, 47, 0
8, 291840, Note_on_c, 5, 49, 100
8, 292320, Note_on_c, 5, 49, 0
8, 292800, Note_on_c, 5, 47, 100
8, 293280, Note_on_c, 5, 47, 0
8, 293760, Note_on_c, 5, 45, 100
8, 294240, Note_on_c, 5, 45, 0
8, 294720, Note_on_c, 5, 47, 100
8, 298080, Note_on_c, 5, 47, 0
8, 299040, Note_on_c, 5, 49, 100
8, 301440, Note_on_c, 5, 49, 0
8, 301920, Note_on_c, 5, 47, 100
8, 302400, Note_on_c, 5, 47, 0
8, 302880, Note_on_c, 5, 45, 100
8, 303840, Note_on_c, 5, 45, 0
8, 304320, Note_on_c, 5, 47, 100
8, 304800, Note_on_c, 5, 47, 0
8, 305280, Note_on_c, 5, 49, 100
8, 305760, Note_on_c, 5, 49, 0
8, 306240, Note_on_c, 5, 45, 100
8, 306720, Note_on_c, 5, 45, 0
8, 307200, Note_on_c, 5, 47, 100
8, 311520, Note_on_c, 5, 47, 0
8, 312000, Note_on_c, 5, 45, 100
8, 312480, Note_on_c, 5, 45, 0
8, 312960, Note_on_c, 5, 44, 100
8, 313440, Note_on_c, 5, 44, 0
8, 313920, Note_on_c, 5, 45, 100
8, 314400, Note_on_c, 5, 45, 0
8, 314880, Text_t, "HandMap_Default"
8, 314880, Note_on_c, 5, 52, 100
8, 321120, Note_on_c, 5, 52, 0
8, 322560, Note_on_c, 5, 47, 100
8, 328800, Note_on_c, 5, 47, 0
8, 330240, Note_on_c, 5, 52, 100
8, 336480, Note_on_c, 5, 52, 0
8, 337920, Note_on_c, 5, 45, 100
8, 344160, Note_on_c, 5, 45, 0
8, 345600, Note_on_c, 5, 52, 100
8, 351840, Note_on_c, 5, 52, 0
8, 353280, Note_on_c, 5, 47, 100
8, 359520, Note_on_c, 5, 47, 0
8, 360960, Note_on_c, 5, 52, 100
8, 362160, Note_on_c, 5, 52, 0
8, 362880, Note_on_c, 5, 45, 100
8, 364080, Note_on_c, 5, 45, 0
8, 364800, Note_on_c, 5, 49, 100
8, 366000, Note_on_c, 5, 49, 0
8, 366720, Note_on_c, 5, 47, 100
8, 367920, Note_on_c, 5, 47, 0
8, 368640, Note_on_c, 5, 52, 100
8, 371280, Note_on_c, 5, 52, 0
8, 372000, Note_on_c, 5, 47, 100
8, 375600, Note_on_c, 5, 47, 0
8, 376320, Note_on_c, 5, 44, 100
8, 376560, Note_on_c, 5, 44, 0
8, 377760, Note_on_c, 5, 46, 100
8, 378000, Note_on_c, 5, 46, 0
8, 379200, Note_on_c, 5, 48, 100
8, 379440, Note_on_c, 5, 48, 0
8, 379680, Note_on_c, 5, 50, 100
8, 379920, Note_on_c, 5, 50, 0
8, 380160, Note_on_c, 5, 48, 100
8, 380400, Note_on_c, 5, 48, 0
8, 380640, Note_on_c, 5, 46, 100
8, 380880, Note_on_c, 5, 46, 0
8, 381120, Note_on_c, 5, 44, 100
8, 381360, Note_on_c, 5, 44, 0
8, 382080, Note_on_c, 5, 48, 100
8, 382320, Note_on_c, 5, 48, 0
8, 383040, Note_on_c, 5, 44, 100
8, 383280, Note_on_c, 5, 44, 0
8, 384000, Note_on_c, 5, 40, 100
8, 384240, Note_on_c, 5, 40, 0
8, 385440, Note_on_c, 5, 41, 100
8, 385680, Note_on_c, 5, 41, 0
8, 386400, Note_on_c, 5, 43, 100
8, 386640, Note_on_c, 5, 43, 0
8, 387840, Note_on_c, 5, 45, 100
8, 390000, Note_on_c, 5, 45, 0
8, 390720, Note_on_c, 5, 42, 100
8, 390960, Note_on_c, 5, 42, 0
8, 391680, Note_on_c, 5, 44, 100
8, 391920, Note_on_c, 5, 44, 0
8, 393120, Note_on_c, 5, 46, 100
8, 393360, Note_on_c, 5, 46, 0
8, 394560, Note_on_c, 5, 44, 100
8, 394800, Note_on_c, 5, 44, 0
8, 395520, Note_on_c, 5, 48, 100
8, 395760, Note_on_c, 5, 48, 0
8, 396960, Note_on_c, 5, 46, 100
8, 397200, Note_on_c, 5, 46, 0
8, 398400, Note_on_c, 5, 44, 100
8, 398640, Note_on_c, 5, 44, 0
8, 399360, Note_on_c, 5, 49, 100
8, 399600, Note_on_c, 5, 49, 0
8, 400800, Note_on_c, 5, 51, 100
8, 401040, Note_on_c, 5, 51, 0
8, 402240, Note_on_c, 5, 49, 100
8, 402480, Note_on_c, 5, 49, 0
8, 403200, Note_on_c, 5, 53, 100
8, 405600, Note_on_c, 5, 53, 0
8, 406080, Note_on_c, 5, 51, 100
8, 406320, Note_on_c, 5, 51, 0
8, 407040, Note_on_c, 5, 44, 100
8, 407280, Note_on_c, 5, 44, 0
8, 408480, Note_on_c, 5, 46, 100
8, 408720, Note_on_c, 5, 46, 0
8, 408720, Note_on_c, 5, 48, 100
8, 408960, Note_on_c, 5, 48, 0
8, 409920, Note_on_c, 5, 48, 100
8, 410160, Note_on_c, 5, 48, 0
8, 410400, Note_on_c, 5, 50, 100
8, 410640, Note_on_c, 5, 50, 0
8, 410880, Note_on_c, 5, 48, 100
8, 411120, Note_on_c, 5, 48, 0
8, 411360, Note_on_c, 5, 46, 100
8, 411600, Note_on_c, 5, 46, 0
8, 411840, Note_on_c, 5, 44, 100
8, 412080, Note_on_c, 5, 44, 0
8, 412800, Note_on_c, 5, 46, 100
8, 413040, Note_on_c, 5, 46, 0
8, 413760, Note_on_c, 5, 44, 100
8, 414000, Note_on_c, 5, 44, 0
8, 414720, Note_on_c, 5, 44, 100
8, 414960, Note_on_c, 5, 44, 0
8, 414960, Note_on_c, 5, 40, 100
8, 415200, Note_on_c, 5, 40, 0
8, 416160, Note_on_c, 5, 41, 100
8, 416400, Note_on_c, 5, 41, 0
8, 417600, Note_on_c, 5, 43, 100
8, 417840, Note_on_c, 5, 43, 0
8, 418560, Note_on_c, 5, 45, 100
8, 420960, Note_on_c, 5, 45, 0
8, 421440, Note_on_c, 5, 47, 100
8, 421680, Note_on_c, 5, 47, 0
8, 422400, Note_on_c, 5, 49, 100
8, 422640, Note_on_c, 5, 49, 0
8, 423840, Note_on_c, 5, 49, 100
8, 424080, Note_on_c, 5, 49, 0
8, 424320, Note_on_c, 5, 51, 100
8, 424560, Note_on_c, 5, 51, 0
8, 424800, Note_on_c, 5, 49, 100
8, 425040, Note_on_c, 5, 49, 0
8, 426240, Note_on_c, 5, 49, 100
8, 427680, Note_on_c, 5, 49, 0
8, 428160, Note_on_c, 5, 47, 100
8, 429600, Note_on_c, 5, 47, 0
8, 430080, Note_on_c, 5, 44, 100
8, 430320, Note_on_c, 5, 44, 0
8, 430560, Note_on_c, 5, 46, 100
8, 430800, Note_on_c, 5, 46, 0
8, 431520, Note_on_c, 5, 44, 100
8, 431760, Note_on_c, 5, 44, 0
8, 432960, Note_on_c, 5, 44, 100
8, 433200, Note_on_c, 5, 44, 0
8, 433440, Note_on_c, 5, 46, 100
8, 433680, Note_on_c, 5, 46, 0
8, 433920, Note_on_c, 5, 44, 100
8, 435360, Note_on_c, 5, 44, 0
8, 435840, Note_on_c, 5, 42, 100
8, 436080, Note_on_c, 5, 42, 0
8, 436800, Note_on_c, 5, 40, 100
8, 437040, Note_on_c, 5, 40, 0
8, 437760, Note_on_c, 5, 42, 100
8, 440400, Note_on_c, 5, 42, 0
8, 441600, Note_on_c, 5, 47, 100
8, 442560, Note_on_c, 5, 47, 0
8, 443040, Note_on_c, 5, 49, 100
8, 444000, Note_on_c, 5, 49, 0
8, 444480, Note_on_c, 5, 42, 100
8, 444960, Note_on_c, 5, 42, 0
8, 445440, Note_on_c, 5, 44, 100
8, 448800, Note_on_c, 5, 44, 0
8, 449280, Note_on_c, 5, 45, 100
8, 452640, Note_on_c, 5, 45, 0
8, 454080, Note_on_c, 5, 51, 100
8, 457920, Note_on_c, 5, 51, 0
8, 458400, Note_on_c, 5, 49, 100
8, 459360, Note_on_c, 5, 49, 0
8, 459840, Note_on_c, 5, 51, 100
8, 460320, Note_on_c, 5, 51, 0
8, 460800, Note_on_c, 5, 54, 100
8, 464160, Note_on_c, 5, 54, 0
8, 464640, Note_on_c, 5, 52, 100
8, 465600, Note_on_c, 5, 52, 0
8, 466080, Note_on_c, 5, 51, 100
8, 467040, Note_on_c, 5, 51, 0
8, 467520, Note_on_c, 5, 49, 100
8, 468960, Note_on_c, 5, 49, 0
8, 469440, Note_on_c, 5, 47, 100
8, 471840, Note_on_c, 5, 47, 0
8, 472320, Note_on_c, 5, 51, 100
8, 473280, Note_on_c, 5, 51, 0
8, 473760, Note_on_c, 5, 49, 100
8, 474720, Note_on_c, 5, 49, 0
8, 475200, Note_on_c, 5, 51, 100
8, 475680, Note_on_c, 5, 51, 0
8, 476160, Note_on_c, 5, 54, 100
8, 479520, Note_on_c, 5, 54, 0
8, 480000, Note_on_c, 5, 52, 100
8, 480960, Note_on_c, 5, 52, 0
8, 481440, Note_on_c, 5, 51, 100
8, 482400, Note_on_c, 5, 51, 0
8, 482880, Note_on_c, 5, 49, 100
8, 483360, Note_on_c, 5, 49, 0
8, 483840, Note_on_c, 5, 47, 100
8, 487200, Note_on_c, 5, 47, 0
8, 487680, Note_on_c, 5, 51, 100
8, 488640, Note_on_c, 5, 51, 0
8, 489120, Note_on_c, 5, 49, 100
8, 490080, Note_on_c, 5, 49, 0
8, 490560, Note_on_c, 5, 51, 100
8, 491040, Note_on_c, 5, 51, 0
8, 491520, Note_on_c, 5, 54, 100
8, 494880, Note_on_c, 5, 54, 0
8, 495360, Note_on_c, 5, 56, 100
8, 496800, Note_on_c, 5, 56, 0
8, 497280, Note_on_c, 5, 54, 100
8, 498240, Note_on_c, 5, 54, 0
8, 499200, Note_on_c, 5, 56, 100
8, 500400, Note_on_c, 5, 56, 0
8, 500640, Note_on_c, 5, 57, 100
8, 501840, Note_on_c, 5, 57, 0
8, 502080, Note_on_c, 5, 56, 100
8, 503760, Note_on_c, 5, 56, 0
8, 504000, Note_on_c, 5, 57, 100
8, 504720, Note_on_c, 5, 57, 0
8, 504960, Note_on_c, 5, 56, 100
8, 506640, Note_on_c, 5, 56, 0
8, 506880, Note_on_c, 5, 56, 100
8, 508080, Note_on_c, 5, 56, 0
8, 508320, Note_on_c, 5, 57, 100
8, 509520, Note_on_c, 5, 57, 0
8, 509760, Note_on_c, 5, 56, 100
8, 511440, Note_on_c, 5, 56, 0
8, 511680, Note_on_c, 5, 57, 100
8, 512400, Note_on_c, 5, 57, 0
8, 512640, Note_on_c, 5, 56, 100
8, 513840, Note_on_c, 5, 56, 0
8, 514560, Note_on_c, 5, 53, 100
8, 515760, Note_on_c, 5, 53, 0
8, 516000, Note_on_c, 5, 54, 100
8, 517200, Note_on_c, 5, 54, 0
8, 517440, Note_on_c, 5, 53, 100
8, 519120, Note_on_c, 5, 53, 0
8, 519360, Note_on_c, 5, 54, 100
8, 520080, Note_on_c, 5, 54, 0
8, 520320, Note_on_c, 5, 53, 100
8, 521040, Note_on_c, 5, 53, 0
8, 521280, Note_on_c, 5, 54, 100
8, 522000, Note_on_c, 5, 54, 0
8, 522240, Note_on_c, 5, 53, 100
8, 523440, Note_on_c, 5, 53, 0
8, 523680, Note_on_c, 5, 54, 100
8, 524880, Note_on_c, 5, 54, 0
8, 525120, Note_on_c, 5, 53, 100
8, 526800, Note_on_c, 5, 53, 0
8, 527040, Note_on_c, 5, 54, 100
8, 527760, Note_on_c, 5, 54, 0
8, 528000, Note_on_c, 5, 53, 100
8, 528720, Note_on_c, 5, 53, 0
8, 528960, Note_on_c, 5, 54, 100
8, 529680, Note_on_c, 5, 54, 0
8, 529920, Note_on_c, 5, 56, 100
8, 531120, Note_on_c, 5, 56, 0
8, 531360, Note_on_c, 5, 57, 100
8, 532560, Note_on_c, 5, 57, 0
8, 532800, Note_on_c, 5, 56, 100
8, 534480, Note_on_c, 5, 56, 0
8, 534720, Note_on_c, 5, 57, 100
8, 535440, Note_on_c, 5, 57, 0
8, 535680, Note_on_c, 5, 56, 100
8, 536400, Note_on_c, 5, 56, 0
8, 536640, Note_on_c, 5, 57, 100
8, 537360, Note_on_c, 5, 57, 0
8, 537600, Note_on_c, 5, 56, 100
8, 538320, Note_on_c, 5, 56, 0
8, 538560, Note_on_c, 5, 57, 100
8, 539760, Note_on_c, 5, 57, 0
8, 540000, Note_on_c, 5, 56, 100
8, 541680, Note_on_c, 5, 56, 0
8, 541920, Note_on_c, 5, 57, 100
8, 542640, Note_on_c, 5, 57, 0
8, 542880, Note_on_c, 5, 56, 100
8, 543600, Note_on_c, 5, 56, 0
8, 543840, Note_on_c, 5, 57, 100
8, 544560, Note_on_c, 5, 57, 0
8, 545280, Note_on_c, 5, 53, 100
8, 546480, Note_on_c, 5, 53, 0
8, 546720, Note_on_c, 5, 54, 100
8, 547920, Note_on_c, 5, 54, 0
8, 548160, Note_on_c, 5, 53, 100
8, 549840, Note_on_c, 5, 53, 0
8, 550080, Note_on_c, 5, 54, 100
8, 550800, Note_on_c, 5, 54, 0
8, 551040, Note_on_c, 5, 53, 100
8, 551760, Note_on_c, 5, 53, 0
8, 552000, Note_on_c, 5, 54, 100
8, 552720, Note_on_c, 5, 54, 0
8, 552960, Note_on_c, 5, 53, 100
8, 554160, Note_on_c, 5, 53, 0
8, 554400, Note_on_c, 5, 54, 100
8, 555600, Note_on_c, 5, 54, 0
8, 555840, Note_on_c, 5, 53, 100
8, 556560, Note_on_c, 5, 53, 0
8, 556800, Text_t, "HandMap_AllChords"
8, 558720, Note_on_c, 5, 40, 100
8, 558960, Note_on_c, 5, 40, 0
8, 560640, Note_on_c, 5, 49, 100
8, 562560, Note_on_c, 5, 49, 0
8, 563040, Note_on_c, 5, 47, 100
8, 563520, Note_on_c, 5, 47, 0
8, 564000, Note_on_c, 5, 45, 100
8, 566880, Note_on_c, 5, 45, 0
8, 567360, Note_on_c, 5, 47, 100
8, 567840, Note_on_c, 5, 47, 0
8, 568320, Note_on_c, 5, 49, 100
8, 568800, Note_on_c, 5, 49, 0
8, 569280, Note_on_c, 5, 47, 100
8, 569760, Note_on_c, 5, 47, 0
8, 570240, Note_on_c, 5, 45, 100
8, 571200, Note_on_c, 5, 45, 0
8, 571680, Note_on_c, 5, 47, 100
8, 575520, Note_on_c, 5, 47, 0
8, 576000, Note_on_c, 5, 49, 100
8, 578880, Note_on_c, 5, 49, 0
8, 579360, Note_on_c, 5, 45, 100
8, 580320, Note_on_c, 5, 45, 0
8, 580800, Note_on_c, 5, 47, 100
8, 581280, Note_on_c, 5, 47, 0
8, 581760, Note_on_c, 5, 49, 100
8, 582240, Note_on_c, 5, 49, 0
8, 582720, Note_on_c, 5, 45, 100
8, 583200, Note_on_c, 5, 45, 0
8, 583680, Note_on_c, 5, 47, 100
8, 585120, Note_on_c, 5, 47, 0
8, 585600, Note_on_c, 5, 49, 100
8, 587040, Note_on_c, 5, 49, 0
8, 587520, Note_on_c, 5, 47, 100
8, 588960, Note_on_c, 5, 47, 0
8, 589440, Note_on_c, 5, 49, 100
8, 590880, Note_on_c, 5, 49, 0
8, 591360, Note_on_c, 5, 51, 100
8, 591840, Note_on_c, 5, 51, 0
8, 592320, Note_on_c, 5, 55, 100
8, 598080, Note_on_c, 5, 55, 0
8, 599040, Text_t, "HandMap_Default"
8, 599040, Note_on_c, 5, 52, 100
8, 605520, Note_on_c, 5, 52, 0
8, 606720, Note_on_c, 5, 47, 100
8, 613200, Note_on_c, 5, 47, 0
8, 614400, Note_on_c, 5, 52, 100
8, 620880, Note_on_c, 5, 52, 0
8, 622080, Note_on_c, 5, 45, 100
8, 628560, Note_on_c, 5, 45, 0
8, 629760, Note_on_c, 5, 52, 100
8, 636240, Note_on_c, 5, 52, 0
8, 637440, Note_on_c, 5, 47, 100
8, 643920, Note_on_c, 5, 47, 0
8, 645120, Note_on_c, 5, 52, 100
8, 646320, Note_on_c, 5, 52, 0
8, 647040, Note_on_c, 5, 45, 100
8, 648240, Note_on_c, 5, 45, 0
8, 648960, Note_on_c, 5, 49, 100
8, 650160, Note_on_c, 5, 49, 0
8, 650880, Note_on_c, 5, 47, 100
8, 652080, Note_on_c, 5, 47, 0
8, 652800, Note_on_c, 5, 52, 100
8, 655440, Note_on_c, 5, 52, 0
8, 656160, Note_on_c, 5, 47, 100
8, 659760, Note_on_c, 5, 47, 0
8, 660480, Note_on_c, 5, 52, 100
8, 663840, Note_on_c, 5, 52, 0
8, 665280, Note_on_c, 5, 49, 100
8, 665520, Note_on_c, 5, 49, 0
8, 666720, Note_on_c, 5, 51, 100
8, 666960, Note_on_c, 5, 51, 0
8, 667680, Note_on_c, 5, 48, 100
8, 667920, Note_on_c, 5, 48, 0
8, 668160, Note_on_c, 5, 50, 100
8, 672720, Note_on_c, 5, 50, 0
8, 672960, Note_on_c, 5, 50, 100
8, 673200, Note_on_c, 5, 50, 0
8, 674400, Note_on_c, 5, 53, 100
8, 674640, Note_on_c, 5, 53, 0
8, 675360, Note_on_c, 5, 50, 100
8, 675600, Note_on_c, 5, 50, 0
8, 675840, Note_on_c, 5, 52, 100
8, 680400, Note_on_c, 5, 52, 0
8, 680640, Note_on_c, 5, 54, 100
8, 680880, Note_on_c, 5, 54, 0
8, 681600, Note_on_c, 5, 56, 100
8, 681840, Note_on_c, 5, 56, 0
8, 682560, Note_on_c, 5, 54, 100
8, 682800, Note_on_c, 5, 54, 0
8, 683520, Note_on_c, 5, 52, 100
8, 685920, Note_on_c, 5, 52, 0
8, 686400, Note_on_c, 5, 49, 100
8, 688080, Note_on_c, 5, 49, 0
8, 688320, Note_on_c, 5, 50, 100
8, 688560, Note_on_c, 5, 50, 0
8, 689760, Note_on_c, 5, 53, 100
8, 690000, Note_on_c, 5, 53, 0
8, 690720, Note_on_c, 5, 51, 100
8, 690960, Note_on_c, 5, 51, 0
8, 691200, Note_on_c, 5, 52, 100
8, 695040, Note_on_c, 5, 52, 0
8, 695520, Note_on_c, 5, 53, 100
8, 695760, Note_on_c, 5, 53, 0
8, 696000, Note_on_c, 5, 54, 100
8, 696240, Note_on_c, 5, 54, 0
8, 696480, Note_on_c, 5, 53, 100
8, 698160, Note_on_c, 5, 53, 0
8, 698880, Note_on_c, 5, 51, 100
8, 700800, Note_on_c, 5, 51, 0
8, 701280, Note_on_c, 5, 52, 100
8, 703200, Note_on_c, 5, 52, 0
8, 703680, Note_on_c, 5, 54, 100
8, 703920, Note_on_c, 5, 54, 0
8, 704400, Note_on_c, 5, 55, 100
8, 704640, Note_on_c, 5, 55, 0
8, 705120, Note_on_c, 5, 54, 100
8, 705360, Note_on_c, 5, 54, 0
8, 706560, Note_on_c, 5, 52, 100
8, 707760, Note_on_c, 5, 52, 0
8, 708480, Note_on_c, 5, 45, 100
8, 709680, Note_on_c, 5, 45, 0
8, 710400, Note_on_c, 5, 49, 100
8, 711600, Note_on_c, 5, 49, 0
8, 712320, Note_on_c, 5, 47, 100
8, 713520, Note_on_c, 5, 47, 0
8, 714240, Note_on_c, 5, 52, 100
8, 719040, Note_on_c, 5, 52, 0
8, 720960, Note_on_c, 5, 40, 100
8, 721440, Note_on_c, 5, 40, 0
8, 721440, End_track
0, 0, End_of_file
