0, 0, Header, 1, 8, 960
1, 0, Start_track
1, 0, Title_t, "godzilla"
1, 0, Time_signature, 4, 2, 24, 8
1, 0, Tempo, 659340
1, 7680, Tempo, 655736
1, 15360, Tempo, 652172
1, 23040, Tempo, 659340
1, 26880, Tempo, 652172
1, 34560, Tempo, 659340
1, 46080, Tempo, 652172
1, 49920, Tempo, 659340
1, 53760, Tempo, 655736
1, 65280, Tempo, 652172
1, 69120, Tempo, 659340
1, 80640, Tempo, 652172
1, 84480, Tempo, 659340
1, 92160, Tempo, 652172
1, 99840, Tempo, 655736
1, 111360, Tempo, 659340
1, 115200, Tempo, 666665
1, 122880, Tempo, 670391
1, 126720, Tempo, 666665
1, 130560, Tempo, 674157
1, 134400, Tempo, 662983
1, 142080, Tempo, 659340
1, 145920, Tempo, 662983
1, 149760, Tempo, 655736
1, 157440, Tempo, 659340
1, 161280, Tempo, 655736
1, 165120, Tempo, 650758
1, 168960, Tempo, 659340
1, 172800, Tempo, 652172
1, 176640, Tempo, 659340
1, 180480, Tempo, 648648
1, 188160, Tempo, 645160
1, 199680, Tempo, 641709
1, 207360, Tempo, 638297
1, 211200, Tempo, 645160
1, 215040, Tempo, 638297
1, 222720, Time_signature, 3, 2, 24, 8
1, 222720, Tempo, 634920
1, 225600, Time_signature, 4, 2, 24, 8
1, 225600, Tempo, 648648
1, 237120, Tempo, 652172
1, 240960, Tempo, 648648
1, 244800, Tempo, 652172
1, 256320, Tempo, 648648
1, 260160, Tempo, 652172
1, 264000, Tempo, 659340
1, 267840, Tempo, 648648
1, 271680, Tempo, 655736
1, 279360, Tempo, 659340
1, 283200, Tempo, 655736
1, 287040, Tempo, 659340
1, 290880, Tempo, 662983
1, 298560, Tempo, 631578
1, 302400, Tempo, 666665
1, 306240, Tempo, 662983
1, 310080, Tempo, 652172
1, 313920, Tempo, 645160
1, 317760, Tempo, 662983
1, 321600, Tempo, 655736
1, 321600, End_track
2, 0, Start_track
2, 0, Title_t, "PART GUITAR"
2, 0, Text_t, "[idle]"
2, 7650, Text_t, "[play]"
2, 7650, Text_t, "drum_off"
2, 7650, Text_t, "bass_off"
2, 7650, Text_t, "singf_off"
2, 7650, Note_on_c, 0, 105, 100
2, 7650, Note_on_c, 0, 93, 100
2, 7650, Note_on_c, 0, 69, 100
2, 7650, Note_on_c, 0, 81, 100
2, 7680, Note_on_c, 0, 96, 100
2, 7680, Note_on_c, 0, 98, 100
2, 7680, Note_on_c, 0, 84, 100
2, 7680, Note_on_c, 0, 86, 100
2, 7680, Note_on_c, 0, 72, 100
2, 7680, Note_on_c, 0, 60, 100
2, 7680, Note_on_c, 0, 74, 100
2, 8640, Note_on_c, 0, 96, 0
2, 8640, Note_on_c, 0, 98, 0
2, 8640, Note_on_c, 0, 84, 0
2, 8640, Note_on_c, 0, 86, 0
2, 8640, Note_on_c, 0, 72, 0
2, 8640, Note_on_c, 0, 60, 0
2, 8640, Note_on_c, 0, 74, 0
2, 10080, Note_on_c, 0, 97, 100
2, 10080, Note_on_c, 0, 99, 100
2, 10080, Note_on_c, 0, 86, 100
2, 10080, Note_on_c, 0, 73, 100
2, 10080, Note_on_c, 0, 61, 100
2, 10320, Note_on_c, 0, 97, 0
2, 10320, Note_on_c, 0, 99, 0
2, 10320, Note_on_c, 0, 86, 0
2, 10320, Note_on_c, 0, 73, 0
2, 10320, Note_on_c, 0, 61, 0
2, 10560, Note_on_c, 0, 98, 100
2, 10560, Note_on_c, 0, 99, 100
2, 10560, Note_on_c, 0, 87, 100
2, 10560, Note_on_c, 0, 74, 100
2, 10560, Note_on_c, 0, 62, 100
2, 10800, Note_on_c, 0, 98, 0
2, 10800, Note_on_c, 0, 99, 0
2, 10800, Note_on_c, 0, 87, 0
2, 10800, Note_on_c, 0, 74, 0
2, 10800, Note_on_c, 0, 62, 0
2, 11040, Note_on_c, 0, 96, 100
2, 11040, Note_on_c, 0, 98, 100
2, 11040, Note_on_c, 0, 85, 100
2, 11040, Note_on_c, 0, 72, 100
2, 11040, Note_on_c, 0, 60, 100
2, 11280, Note_on_c, 0, 96, 0
2, 11280, Note_on_c, 0, 98, 0
2, 11280, Note_on_c, 0, 85, 0
2, 11280, Note_on_c, 0, 72, 0
2, 11280, Note_on_c, 0, 60, 0
2, 11490, Note_on_c, 0, 106, 100
2, 11490, Note_on_c, 0, 94, 100
2, 11490, Note_on_c, 0, 70, 100
2, 11490, Note_on_c, 0, 82, 100
2, 11520, Note_on_c, 0, 97, 100
2, 11520, Note_on_c, 0, 99, 100
2, 11520, Note_on_c, 0, 85, 100
2, 11520, Note_on_c, 0, 87, 100
2, 11520, Note_on_c, 0, 73, 100
2, 11520, Note_on_c, 0, 61, 100
2, 11520, Note_on_c, 0, 75, 100
2, 12450, Note_on_c, 0, 105, 0
2, 12450, Note_on_c, 0, 93, 0
2, 12450, Note_on_c, 0, 69, 0
2, 12450, Note_on_c, 0, 81, 0
2, 12480, Note_on_c, 0, 97, 0
2, 12480, Note_on_c, 0, 99, 0
2, 12480, Note_on_c, 0, 85, 0
2, 12480, Note_on_c, 0, 87, 0
2, 12480, Note_on_c, 0, 73, 0
2, 12480, Note_on_c, 0, 61, 0
2, 12480, Note_on_c, 0, 75, 0
2, 13920, Note_on_c, 0, 98, 100
2, 13920, Note_on_c, 0, 100, 100
2, 13920, Note_on_c, 0, 87, 100
2, 13920, Note_on_c, 0, 74, 100
2, 13920, Note_on_c, 0, 61, 100
2, 14160, Note_on_c, 0, 98, 0
2, 14160, Note_on_c, 0, 100, 0
2, 14160, Note_on_c, 0, 87, 0
2, 14160, Note_on_c, 0, 74, 0
2, 14160, Note_on_c, 0, 61, 0
2, 14400, Note_on_c, 0, 99, 100
2, 14400, Note_on_c, 0, 100, 100
2, 14400, Note_on_c, 0, 88, 100
2, 14400, Note_on_c, 0, 75, 100
2, 14400, Note_on_c, 0, 62, 100
2, 14640, Note_on_c, 0, 99, 0
2, 14640, Note_on_c, 0, 100, 0
2, 14640, Note_on_c, 0, 88, 0
2, 14640, Note_on_c, 0, 75, 0
2, 14640, Note_on_c, 0, 62, 0
2, 14880, Note_on_c, 0, 97, 100
2, 14880, Note_on_c, 0, 99, 100
2, 14880, Note_on_c, 0, 86, 100
2, 14880, Note_on_c, 0, 73, 100
2, 14880, Note_on_c, 0, 61, 100
2, 15120, Note_on_c, 0, 97, 0
2, 15120, Note_on_c, 0, 99, 0
2, 15120, Note_on_c, 0, 86, 0
2, 15120, Note_on_c, 0, 73, 0
2, 15120, Note_on_c, 0, 61, 0
2, 15330, Text_t, "[play]"
2, 15330, Text_t, "bass_on"
2, 15330, Text_t, "[verse]"
2, 15330, Note_on_c, 0, 105, 100
2, 15330, Note_on_c, 0, 93, 100
2, 15330, Note_on_c, 0, 69, 100
2, 15330, Note_on_c, 0, 81, 100
2, 15360, Note_on_c, 0, 96, 100
2, 15360, Note_on_c, 0, 98, 100
2, 15360, Note_on_c, 0, 84, 100
2, 15360, Note_on_c, 0, 86, 100
2, 15360, Note_on_c, 0, 72, 100
2, 15360, Note_on_c, 0, 60, 100
2, 15360, Note_on_c, 0, 74, 100
2, 16290, Note_on_c, 0, 106, 0
2, 16290, Note_on_c, 0, 94, 0
2, 16290, Note_on_c, 0, 70, 0
2, 16290, Note_on_c, 0, 82, 0
2, 16320, Note_on_c, 0, 96, 0
2, 16320, Note_on_c, 0, 98, 0
2, 16320, Note_on_c, 0, 84, 0
2, 16320, Note_on_c, 0, 86, 0
2, 16320, Note_on_c, 0, 72, 0
2, 16320, Note_on_c, 0, 60, 0
2, 16320, Note_on_c, 0, 74, 0
2, 17760, Note_on_c, 0, 97, 100
2, 17760, Note_on_c, 0, 99, 100
2, 17760, Note_on_c, 0, 86, 100
2, 17760, Note_on_c, 0, 73, 100
2, 17760, Note_on_c, 0, 61, 100
2, 18000, Note_on_c, 0, 97, 0
2, 18000, Note_on_c, 0, 99, 0
2, 18000, Note_on_c, 0, 86, 0
2, 18000, Note_on_c, 0, 73, 0
2, 18000, Note_on_c, 0, 61, 0
2, 18240, Note_on_c, 0, 98, 100
2, 18240, Note_on_c, 0, 99, 100
2, 18240, Note_on_c, 0, 87, 100
2, 18240, Note_on_c, 0, 74, 100
2, 18240, Note_on_c, 0, 62, 100
2, 18480, Note_on_c, 0, 98, 0
2, 18480, Note_on_c, 0, 99, 0
2, 18480, Note_on_c, 0, 87, 0
2, 18480, Note_on_c, 0, 74, 0
2, 18480, Note_on_c, 0, 62, 0
2, 18720, Note_on_c, 0, 96, 100
2, 18720, Note_on_c, 0, 98, 100
2, 18720, Note_on_c, 0, 85, 100
2, 18720, Note_on_c, 0, 72, 100
2, 18720, Note_on_c, 0, 60, 100
2, 18960, Note_on_c, 0, 96, 0
2, 18960, Note_on_c, 0, 98, 0
2, 18960, Note_on_c, 0, 85, 0
2, 18960, Note_on_c, 0, 72, 0
2, 18960, Note_on_c, 0, 60, 0
2, 19170, Note_on_c, 0, 106, 100
2, 19170, Note_on_c, 0, 94, 100
2, 19170, Note_on_c, 0, 70, 100
2, 19170, Note_on_c, 0, 82, 100
2, 19200, Note_on_c, 0, 97, 100
2, 19200, Note_on_c, 0, 99, 100
2, 19200, Note_on_c, 0, 85, 100
2, 19200, Note_on_c, 0, 87, 100
2, 19200, Note_on_c, 0, 73, 100
2, 19200, Note_on_c, 0, 75, 100
2, 19200, Note_on_c, 0, 61, 100
2, 20130, Note_on_c, 0, 105, 0
2, 20130, Note_on_c, 0, 93, 0
2, 20130, Note_on_c, 0, 69, 0
2, 20130, Note_on_c, 0, 81, 0
2, 20160, Note_on_c, 0, 97, 0
2, 20160, Note_on_c, 0, 99, 0
2, 20160, Note_on_c, 0, 85, 0
2, 20160, Note_on_c, 0, 87, 0
2, 20160, Note_on_c, 0, 73, 0
2, 20160, Note_on_c, 0, 75, 0
2, 20160, Note_on_c, 0, 61, 0
2, 21600, Note_on_c, 0, 98, 100
2, 21600, Note_on_c, 0, 100, 100
2, 21600, Note_on_c, 0, 87, 100
2, 21600, Note_on_c, 0, 74, 100
2, 21600, Note_on_c, 0, 61, 100
2, 21840, Note_on_c, 0, 98, 0
2, 21840, Note_on_c, 0, 100, 0
2, 21840, Note_on_c, 0, 87, 0
2, 21840, Note_on_c, 0, 74, 0
2, 21840, Note_on_c, 0, 61, 0
2, 22080, Note_on_c, 0, 99, 100
2, 22080, Note_on_c, 0, 100, 100
2, 22080, Note_on_c, 0, 88, 100
2, 22080, Note_on_c, 0, 75, 100
2, 22080, Note_on_c, 0, 62, 100
2, 22320, Note_on_c, 0, 99, 0
2, 22320, Note_on_c, 0, 100, 0
2, 22320, Note_on_c, 0, 88, 0
2, 22320, Note_on_c, 0, 75, 0
2, 22320, Note_on_c, 0, 62, 0
2, 22560, Note_on_c, 0, 97, 100
2, 22560, Note_on_c, 0, 99, 100
2, 22560, Note_on_c, 0, 86, 100
2, 22560, Note_on_c, 0, 73, 100
2, 22560, Note_on_c, 0, 61, 100
2, 22800, Note_on_c, 0, 97, 0
2, 22800, Note_on_c, 0, 99, 0
2, 22800, Note_on_c, 0, 86, 0
2, 22800, Note_on_c, 0, 73, 0
2, 22800, Note_on_c, 0, 61, 0
2, 23040, Note_on_c, 0, 96, 100
2, 23040, Note_on_c, 0, 98, 100
2, 23040, Note_on_c, 0, 84, 100
2, 23040, Note_on_c, 0, 86, 100
2, 23040, Note_on_c, 0, 72, 100
2, 23040, Note_on_c, 0, 60, 100
2, 23280, Note_on_c, 0, 72, 0
2, 23760, Note_on_c, 0, 84, 0
2, 23760, Note_on_c, 0, 86, 0
2, 23970, Note_on_c, 0, 106, 0
2, 23970, Note_on_c, 0, 94, 0
2, 23970, Note_on_c, 0, 70, 0
2, 23970, Note_on_c, 0, 82, 0
2, 23970, Note_on_c, 0, 103, 100
2, 23970, Note_on_c, 0, 91, 100
2, 23970, Note_on_c, 0, 79, 100
2, 23970, Note_on_c, 0, 67, 100
2, 23970, Note_on_c, 0, 105, 100
2, 23970, Note_on_c, 0, 93, 100
2, 23970, Note_on_c, 0, 69, 100
2, 23970, Note_on_c, 0, 81, 100
2, 24000, Note_on_c, 0, 96, 0
2, 24000, Note_on_c, 0, 98, 0
2, 24000, Note_on_c, 0, 60, 0
2, 24000, Note_on_c, 0, 99, 100
2, 24000, Note_on_c, 0, 86, 100
2, 24000, Note_on_c, 0, 74, 100
2, 24000, Note_on_c, 0, 62, 100
2, 24240, Note_on_c, 0, 99, 0
2, 24240, Note_on_c, 0, 86, 0
2, 24240, Note_on_c, 0, 74, 0
2, 24240, Note_on_c, 0, 100, 100
2, 24240, Note_on_c, 0, 87, 100
2, 24240, Note_on_c, 0, 75, 100
2, 24480, Note_on_c, 0, 100, 0
2, 24480, Note_on_c, 0, 87, 0
2, 24480, Note_on_c, 0, 75, 0
2, 24480, Note_on_c, 0, 99, 100
2, 24480, Note_on_c, 0, 86, 100
2, 24480, Note_on_c, 0, 74, 100
2, 24960, Note_on_c, 0, 62, 0
2, 25200, Note_on_c, 0, 86, 0
2, 25200, Note_on_c, 0, 74, 0
2, 25410, Note_on_c, 0, 103, 0
2, 25410, Note_on_c, 0, 91, 0
2, 25410, Note_on_c, 0, 79, 0
2, 25410, Note_on_c, 0, 67, 0
2, 25410, Note_on_c, 0, 105, 0
2, 25410, Note_on_c, 0, 93, 0
2, 25410, Note_on_c, 0, 69, 0
2, 25410, Note_on_c, 0, 81, 0
2, 25410, Note_on_c, 0, 106, 100
2, 25410, Note_on_c, 0, 94, 100
2, 25410, Note_on_c, 0, 70, 100
2, 25410, Note_on_c, 0, 82, 100
2, 25440, Note_on_c, 0, 99, 0
2, 25440, Note_on_c, 0, 97, 100
2, 25440, Note_on_c, 0, 99, 100
2, 25440, Note_on_c, 0, 86, 100
2, 25440, Note_on_c, 0, 73, 100
2, 25440, Note_on_c, 0, 61, 100
2, 25680, Note_on_c, 0, 97, 0
2, 25680, Note_on_c, 0, 99, 0
2, 25680, Note_on_c, 0, 86, 0
2, 25680, Note_on_c, 0, 73, 0
2, 25680, Note_on_c, 0, 61, 0
2, 25920, Note_on_c, 0, 98, 100
2, 25920, Note_on_c, 0, 99, 100
2, 25920, Note_on_c, 0, 87, 100
2, 25920, Note_on_c, 0, 74, 100
2, 25920, Note_on_c, 0, 62, 100
2, 26160, Note_on_c, 0, 98, 0
2, 26160, Note_on_c, 0, 99, 0
2, 26160, Note_on_c, 0, 87, 0
2, 26160, Note_on_c, 0, 74, 0
2, 26160, Note_on_c, 0, 62, 0
2, 26400, Note_on_c, 0, 96, 100
2, 26400, Note_on_c, 0, 98, 100
2, 26400, Note_on_c, 0, 85, 100
2, 26400, Note_on_c, 0, 72, 100
2, 26400, Note_on_c, 0, 60, 100
2, 26640, Note_on_c, 0, 96, 0
2, 26640, Note_on_c, 0, 98, 0
2, 26640, Note_on_c, 0, 85, 0
2, 26640, Note_on_c, 0, 72, 0
2, 26640, Note_on_c, 0, 60, 0
2, 26880, Note_on_c, 0, 97, 100
2, 26880, Note_on_c, 0, 99, 100
2, 26880, Note_on_c, 0, 85, 100
2, 26880, Note_on_c, 0, 87, 100
2, 26880, Note_on_c, 0, 73, 100
2, 26880, Note_on_c, 0, 61, 100
2, 27120, Note_on_c, 0, 73, 0
2, 27600, Note_on_c, 0, 85, 0
2, 27600, Note_on_c, 0, 87, 0
2, 27810, Note_on_c, 0, 106, 0
2, 27810, Note_on_c, 0, 94, 0
2, 27810, Note_on_c, 0, 70, 0
2, 27810, Note_on_c, 0, 82, 0
2, 27810, Note_on_c, 0, 105, 100
2, 27810, Note_on_c, 0, 93, 100
2, 27810, Note_on_c, 0, 69, 100
2, 27810, Note_on_c, 0, 81, 100
2, 27840, Note_on_c, 0, 97, 0
2, 27840, Note_on_c, 0, 99, 0
2, 27840, Note_on_c, 0, 61, 0
2, 27840, Note_on_c, 0, 99, 100
2, 27840, Note_on_c, 0, 86, 100
2, 27840, Note_on_c, 0, 74, 100
2, 27840, Note_on_c, 0, 62, 100
2, 28080, Note_on_c, 0, 99, 0
2, 28080, Note_on_c, 0, 86, 0
2, 28080, Note_on_c, 0, 74, 0
2, 28080, Note_on_c, 0, 100, 100
2, 28080, Note_on_c, 0, 87, 100
2, 28080, Note_on_c, 0, 75, 100
2, 28320, Note_on_c, 0, 100, 0
2, 28320, Note_on_c, 0, 87, 0
2, 28320, Note_on_c, 0, 75, 0
2, 28320, Note_on_c, 0, 99, 100
2, 28320, Note_on_c, 0, 86, 100
2, 28320, Note_on_c, 0, 74, 100
2, 28770, Text_t, "drum_double"
2, 28800, Note_on_c, 0, 62, 0
2, 29040, Note_on_c, 0, 86, 0
2, 29040, Note_on_c, 0, 74, 0
2, 29250, Note_on_c, 0, 105, 0
2, 29250, Note_on_c, 0, 93, 0
2, 29250, Note_on_c, 0, 69, 0
2, 29250, Note_on_c, 0, 81, 0
2, 29250, Note_on_c, 0, 106, 100
2, 29250, Note_on_c, 0, 94, 100
2, 29250, Note_on_c, 0, 70, 100
2, 29250, Note_on_c, 0, 82, 100
2, 29280, Note_on_c, 0, 99, 0
2, 29280, Note_on_c, 0, 98, 100
2, 29280, Note_on_c, 0, 100, 100
2, 29280, Note_on_c, 0, 87, 100
2, 29280, Note_on_c, 0, 74, 100
2, 29280, Note_on_c, 0, 61, 100
2, 29520, Note_on_c, 0, 98, 0
2, 29520, Note_on_c, 0, 100, 0
2, 29520, Note_on_c, 0, 87, 0
2, 29520, Note_on_c, 0, 74, 0
2, 29520, Note_on_c, 0, 61, 0
2, 29760, Note_on_c, 0, 99, 100
2, 29760, Note_on_c, 0, 100, 100
2, 29760, Note_on_c, 0, 88, 100
2, 29760, Note_on_c, 0, 75, 100
2, 29760, Note_on_c, 0, 62, 100
2, 30000, Note_on_c, 0, 99, 0
2, 30000, Note_on_c, 0, 100, 0
2, 30000, Note_on_c, 0, 88, 0
2, 30000, Note_on_c, 0, 75, 0
2, 30000, Note_on_c, 0, 62, 0
2, 30240, Note_on_c, 0, 97, 100
2, 30240, Note_on_c, 0, 99, 100
2, 30240, Note_on_c, 0, 86, 100
2, 30240, Note_on_c, 0, 73, 100
2, 30240, Note_on_c, 0, 61, 100
2, 30480, Note_on_c, 0, 97, 0
2, 30480, Note_on_c, 0, 99, 0
2, 30480, Note_on_c, 0, 86, 0
2, 30480, Note_on_c, 0, 73, 0
2, 30480, Note_on_c, 0, 61, 0
2, 30690, Text_t, "[lighting (sweep)]"
2, 30690, Text_t, "drum_normal"
2, 30690, Note_on_c, 0, 106, 0
2, 30690, Note_on_c, 0, 94, 0
2, 30690, Note_on_c, 0, 70, 0
2, 30690, Note_on_c, 0, 82, 0
2, 30690, Note_on_c, 0, 105, 100
2, 30690, Note_on_c, 0, 93, 100
2, 30690, Note_on_c, 0, 69, 100
2, 30690, Note_on_c, 0, 81, 100
2, 30720, Note_on_c, 0, 96, 100
2, 30720, Note_on_c, 0, 98, 100
2, 30720, Note_on_c, 0, 84, 100
2, 30720, Note_on_c, 0, 86, 100
2, 30720, Note_on_c, 0, 72, 100
2, 30720, Note_on_c, 0, 60, 100
2, 30960, Note_on_c, 0, 72, 0
2, 31440, Note_on_c, 0, 84, 0
2, 31440, Note_on_c, 0, 86, 0
2, 31650, Note_on_c, 0, 105, 0
2, 31650, Note_on_c, 0, 93, 0
2, 31650, Note_on_c, 0, 69, 0
2, 31650, Note_on_c, 0, 81, 0
2, 31650, Note_on_c, 0, 106, 100
2, 31650, Note_on_c, 0, 94, 100
2, 31650, Note_on_c, 0, 70, 100
2, 31650, Note_on_c, 0, 82, 100
2, 31650, Note_on_c, 0, 103, 100
2, 31650, Note_on_c, 0, 91, 100
2, 31650, Note_on_c, 0, 79, 100
2, 31650, Note_on_c, 0, 67, 100
2, 31680, Note_on_c, 0, 96, 0
2, 31680, Note_on_c, 0, 98, 0
2, 31680, Note_on_c, 0, 60, 0
2, 31680, Note_on_c, 0, 99, 100
2, 31680, Note_on_c, 0, 86, 100
2, 31680, Note_on_c, 0, 74, 100
2, 31680, Note_on_c, 0, 62, 100
2, 31920, Note_on_c, 0, 99, 0
2, 31920, Note_on_c, 0, 86, 0
2, 31920, Note_on_c, 0, 74, 0
2, 31920, Note_on_c, 0, 100, 100
2, 31920, Note_on_c, 0, 87, 100
2, 31920, Note_on_c, 0, 75, 100
2, 32160, Note_on_c, 0, 100, 0
2, 32160, Note_on_c, 0, 87, 0
2, 32160, Note_on_c, 0, 75, 0
2, 32160, Note_on_c, 0, 99, 100
2, 32160, Note_on_c, 0, 86, 100
2, 32160, Note_on_c, 0, 74, 100
2, 32610, Note_on_c, 0, 67, 0
2, 32640, Note_on_c, 0, 62, 0
2, 32850, Note_on_c, 0, 91, 0
2, 32850, Note_on_c, 0, 79, 0
2, 32880, Note_on_c, 0, 86, 0
2, 32880, Note_on_c, 0, 74, 0
2, 33090, Note_on_c, 0, 106, 0
2, 33090, Note_on_c, 0, 94, 0
2, 33090, Note_on_c, 0, 70, 0
2, 33090, Note_on_c, 0, 82, 0
2, 33090, Note_on_c, 0, 103, 0
2, 33090, Note_on_c, 0, 105, 100
2, 33090, Note_on_c, 0, 93, 100
2, 33090, Note_on_c, 0, 69, 100
2, 33090, Note_on_c, 0, 81, 100
2, 33120, Note_on_c, 0, 99, 0
2, 33120, Note_on_c, 0, 97, 100
2, 33120, Note_on_c, 0, 99, 100
2, 33120, Note_on_c, 0, 86, 100
2, 33120, Note_on_c, 0, 73, 100
2, 33120, Note_on_c, 0, 61, 100
2, 33360, Note_on_c, 0, 97, 0
2, 33360, Note_on_c, 0, 99, 0
2, 33360, Note_on_c, 0, 86, 0
2, 33360, Note_on_c, 0, 73, 0
2, 33360, Note_on_c, 0, 61, 0
2, 33600, Note_on_c, 0, 98, 100
2, 33600, Note_on_c, 0, 99, 100
2, 33600, Note_on_c, 0, 87, 100
2, 33600, Note_on_c, 0, 74, 100
2, 33600, Note_on_c, 0, 62, 100
2, 33840, Note_on_c, 0, 98, 0
2, 33840, Note_on_c, 0, 99, 0
2, 33840, Note_on_c, 0, 87, 0
2, 33840, Note_on_c, 0, 74, 0
2, 33840, Note_on_c, 0, 62, 0
2, 34080, Note_on_c, 0, 96, 100
2, 34080, Note_on_c, 0, 98, 100
2, 34080, Note_on_c, 0, 85, 100
2, 34080, Note_on_c, 0, 72, 100
2, 34080, Note_on_c, 0, 60, 100
2, 34320, Note_on_c, 0, 96, 0
2, 34320, Note_on_c, 0, 98, 0
2, 34320, Note_on_c, 0, 85, 0
2, 34320, Note_on_c, 0, 72, 0
2, 34320, Note_on_c, 0, 60, 0
2, 34560, Note_on_c, 0, 97, 100
2, 34560, Note_on_c, 0, 99, 100
2, 34560, Note_on_c, 0, 85, 100
2, 34560, Note_on_c, 0, 87, 100
2, 34560, Note_on_c, 0, 73, 100
2, 34560, Note_on_c, 0, 61, 100
2, 34800, Note_on_c, 0, 73, 0
2, 35280, Note_on_c, 0, 85, 0
2, 35280, Note_on_c, 0, 87, 0
2, 35490, Note_on_c, 0, 105, 0
2, 35490, Note_on_c, 0, 93, 0
2, 35490, Note_on_c, 0, 69, 0
2, 35490, Note_on_c, 0, 81, 0
2, 35490, Note_on_c, 0, 106, 100
2, 35490, Note_on_c, 0, 94, 100
2, 35490, Note_on_c, 0, 70, 100
2, 35490, Note_on_c, 0, 82, 100
2, 35520, Note_on_c, 0, 97, 0
2, 35520, Note_on_c, 0, 99, 0
2, 35520, Note_on_c, 0, 61, 0
2, 35520, Note_on_c, 0, 99, 100
2, 35520, Note_on_c, 0, 86, 100
2, 35520, Note_on_c, 0, 74, 100
2, 35520, Note_on_c, 0, 62, 100
2, 35760, Note_on_c, 0, 99, 0
2, 35760, Note_on_c, 0, 86, 0
2, 35760, Note_on_c, 0, 74, 0
2, 35760, Note_on_c, 0, 100, 100
2, 35760, Note_on_c, 0, 87, 100
2, 35760, Note_on_c, 0, 75, 100
2, 36000, Note_on_c, 0, 100, 0
2, 36000, Note_on_c, 0, 87, 0
2, 36000, Note_on_c, 0, 75, 0
2, 36000, Note_on_c, 0, 99, 100
2, 36000, Note_on_c, 0, 86, 100
2, 36000, Note_on_c, 0, 74, 100
2, 36480, Note_on_c, 0, 62, 0
2, 36720, Note_on_c, 0, 86, 0
2, 36720, Note_on_c, 0, 74, 0
2, 36930, Note_on_c, 0, 106, 0
2, 36930, Note_on_c, 0, 94, 0
2, 36930, Note_on_c, 0, 70, 0
2, 36930, Note_on_c, 0, 82, 0
2, 36930, Note_on_c, 0, 105, 100
2, 36930, Note_on_c, 0, 93, 100
2, 36930, Note_on_c, 0, 69, 100
2, 36930, Note_on_c, 0, 81, 100
2, 36960, Note_on_c, 0, 99, 0
2, 36960, Note_on_c, 0, 98, 100
2, 36960, Note_on_c, 0, 100, 100
2, 36960, Note_on_c, 0, 87, 100
2, 36960, Note_on_c, 0, 74, 100
2, 36960, Note_on_c, 0, 61, 100
2, 37200, Note_on_c, 0, 98, 0
2, 37200, Note_on_c, 0, 100, 0
2, 37200, Note_on_c, 0, 87, 0
2, 37200, Note_on_c, 0, 74, 0
2, 37200, Note_on_c, 0, 61, 0
2, 37440, Note_on_c, 0, 99, 100
2, 37440, Note_on_c, 0, 100, 100
2, 37440, Note_on_c, 0, 88, 100
2, 37440, Note_on_c, 0, 75, 100
2, 37440, Note_on_c, 0, 62, 100
2, 37680, Note_on_c, 0, 99, 0
2, 37680, Note_on_c, 0, 100, 0
2, 37680, Note_on_c, 0, 88, 0
2, 37680, Note_on_c, 0, 75, 0
2, 37680, Note_on_c, 0, 62, 0
2, 37920, Note_on_c, 0, 97, 100
2, 37920, Note_on_c, 0, 99, 100
2, 37920, Note_on_c, 0, 86, 100
2, 37920, Note_on_c, 0, 73, 100
2, 37920, Note_on_c, 0, 108, 100
2, 37920, Note_on_c, 0, 61, 100
2, 38040, Note_on_c, 0, 108, 0
2, 38160, Note_on_c, 0, 97, 0
2, 38160, Note_on_c, 0, 99, 0
2, 38160, Note_on_c, 0, 86, 0
2, 38160, Note_on_c, 0, 73, 0
2, 38160, Note_on_c, 0, 61, 0
2, 38160, Note_on_c, 0, 108, 100
2, 38280, Note_on_c, 0, 108, 0
2, 38370, Note_on_c, 0, 105, 0
2, 38370, Note_on_c, 0, 93, 0
2, 38370, Note_on_c, 0, 69, 0
2, 38370, Note_on_c, 0, 81, 0
2, 38370, Note_on_c, 0, 106, 100
2, 38370, Note_on_c, 0, 94, 100
2, 38370, Note_on_c, 0, 70, 100
2, 38370, Note_on_c, 0, 82, 100
2, 38400, Note_on_c, 0, 96, 100
2, 38400, Note_on_c, 0, 98, 100
2, 38400, Note_on_c, 0, 84, 100
2, 38400, Note_on_c, 0, 86, 100
2, 38400, Note_on_c, 0, 72, 100
2, 38400, Note_on_c, 0, 108, 100
2, 38400, Note_on_c, 0, 74, 100
2, 38400, Note_on_c, 0, 60, 100
2, 38520, Note_on_c, 0, 108, 0
2, 38640, Note_on_c, 0, 108, 100
2, 38760, Note_on_c, 0, 108, 0
2, 38880, Note_on_c, 0, 108, 100
2, 39120, Note_on_c, 0, 108, 0
2, 39360, Note_on_c, 0, 96, 0
2, 39360, Note_on_c, 0, 98, 0
2, 39360, Note_on_c, 0, 84, 0
2, 39360, Note_on_c, 0, 86, 0
2, 39360, Note_on_c, 0, 72, 0
2, 39360, Note_on_c, 0, 74, 0
2, 39360, Note_on_c, 0, 60, 0
2, 39360, Note_on_c, 0, 108, 100
2, 39480, Note_on_c, 0, 108, 0
2, 39600, Note_on_c, 0, 108, 100
2, 39720, Note_on_c, 0, 108, 0
2, 39840, Note_on_c, 0, 108, 100
2, 39960, Note_on_c, 0, 108, 0
2, 40080, Note_on_c, 0, 108, 100
2, 40200, Note_on_c, 0, 108, 0
2, 40320, Note_on_c, 0, 108, 100
2, 40440, Note_on_c, 0, 108, 0
2, 40560, Note_on_c, 0, 108, 100
2, 40680, Note_on_c, 0, 108, 0
2, 40800, Note_on_c, 0, 97, 100
2, 40800, Note_on_c, 0, 99, 100
2, 40800, Note_on_c, 0, 86, 100
2, 40800, Note_on_c, 0, 73, 100
2, 40800, Note_on_c, 0, 61, 100
2, 40800, Note_on_c, 0, 108, 100
2, 41040, Note_on_c, 0, 97, 0
2, 41040, Note_on_c, 0, 99, 0
2, 41040, Note_on_c, 0, 86, 0
2, 41040, Note_on_c, 0, 73, 0
2, 41040, Note_on_c, 0, 61, 0
2, 41040, Note_on_c, 0, 108, 0
2, 41280, Note_on_c, 0, 98, 100
2, 41280, Note_on_c, 0, 99, 100
2, 41280, Note_on_c, 0, 87, 100
2, 41280, Note_on_c, 0, 74, 100
2, 41280, Note_on_c, 0, 62, 100
2, 41280, Note_on_c, 0, 108, 100
2, 41520, Note_on_c, 0, 98, 0
2, 41520, Note_on_c, 0, 99, 0
2, 41520, Note_on_c, 0, 87, 0
2, 41520, Note_on_c, 0, 74, 0
2, 41520, Note_on_c, 0, 62, 0
2, 41520, Note_on_c, 0, 108, 0
2, 41760, Note_on_c, 0, 96, 100
2, 41760, Note_on_c, 0, 98, 100
2, 41760, Note_on_c, 0, 85, 100
2, 41760, Note_on_c, 0, 72, 100
2, 41760, Note_on_c, 0, 108, 100
2, 41760, Note_on_c, 0, 60, 100
2, 42000, Note_on_c, 0, 96, 0
2, 42000, Note_on_c, 0, 98, 0
2, 42000, Note_on_c, 0, 85, 0
2, 42000, Note_on_c, 0, 72, 0
2, 42000, Note_on_c, 0, 108, 0
2, 42000, Note_on_c, 0, 60, 0
2, 42210, Note_on_c, 0, 105, 100
2, 42210, Note_on_c, 0, 93, 100
2, 42210, Note_on_c, 0, 69, 100
2, 42210, Note_on_c, 0, 81, 100
2, 42240, Note_on_c, 0, 97, 100
2, 42240, Note_on_c, 0, 99, 100
2, 42240, Note_on_c, 0, 85, 100
2, 42240, Note_on_c, 0, 87, 100
2, 42240, Note_on_c, 0, 73, 100
2, 42240, Note_on_c, 0, 61, 100
2, 42240, Note_on_c, 0, 108, 100
2, 42240, Note_on_c, 0, 75, 100
2, 42480, Note_on_c, 0, 108, 0
2, 42720, Note_on_c, 0, 108, 100
2, 42960, Note_on_c, 0, 108, 0
2, 43170, Note_on_c, 0, 106, 0
2, 43170, Note_on_c, 0, 94, 0
2, 43170, Note_on_c, 0, 70, 0
2, 43170, Note_on_c, 0, 82, 0
2, 43200, Note_on_c, 0, 97, 0
2, 43200, Note_on_c, 0, 99, 0
2, 43200, Note_on_c, 0, 85, 0
2, 43200, Note_on_c, 0, 87, 0
2, 43200, Note_on_c, 0, 73, 0
2, 43200, Note_on_c, 0, 61, 0
2, 43200, Note_on_c, 0, 75, 0
2, 43200, Note_on_c, 0, 108, 100
2, 43320, Note_on_c, 0, 108, 0
2, 43440, Note_on_c, 0, 108, 100
2, 43560, Note_on_c, 0, 108, 0
2, 43680, Note_on_c, 0, 108, 100
2, 43920, Note_on_c, 0, 108, 0
2, 44130, Text_t, "drum_double"
2, 44160, Note_on_c, 0, 108, 100
2, 44400, Note_on_c, 0, 108, 0
2, 44640, Note_on_c, 0, 98, 100
2, 44640, Note_on_c, 0, 100, 100
2, 44640, Note_on_c, 0, 87, 100
2, 44640, Note_on_c, 0, 74, 100
2, 44640, Note_on_c, 0, 61, 100
2, 44640, Note_on_c, 0, 108, 100
2, 44880, Note_on_c, 0, 98, 0
2, 44880, Note_on_c, 0, 100, 0
2, 44880, Note_on_c, 0, 87, 0
2, 44880, Note_on_c, 0, 74, 0
2, 44880, Note_on_c, 0, 61, 0
2, 44880, Note_on_c, 0, 108, 0
2, 45090, Text_t, "sing_on"
2, 45120, Note_on_c, 0, 99, 100
2, 45120, Note_on_c, 0, 100, 100
2, 45120, Note_on_c, 0, 88, 100
2, 45120, Note_on_c, 0, 75, 100
2, 45120, Note_on_c, 0, 62, 100
2, 45120, Note_on_c, 0, 108, 100
2, 45360, Note_on_c, 0, 99, 0
2, 45360, Note_on_c, 0, 100, 0
2, 45360, Note_on_c, 0, 88, 0
2, 45360, Note_on_c, 0, 75, 0
2, 45360, Note_on_c, 0, 62, 0
2, 45600, Note_on_c, 0, 97, 100
2, 45600, Note_on_c, 0, 99, 100
2, 45600, Note_on_c, 0, 86, 100
2, 45600, Note_on_c, 0, 73, 100
2, 45600, Note_on_c, 0, 61, 100
2, 45720, Note_on_c, 0, 108, 0
2, 45840, Note_on_c, 0, 97, 0
2, 45840, Note_on_c, 0, 99, 0
2, 45840, Note_on_c, 0, 86, 0
2, 45840, Note_on_c, 0, 73, 0
2, 45840, Note_on_c, 0, 61, 0
2, 46050, Text_t, "wail_off"
2, 46050, Text_t, "drum_normal"
2, 46080, Note_on_c, 0, 96, 100
2, 46080, Note_on_c, 0, 98, 100
2, 46080, Note_on_c, 0, 84, 100
2, 46080, Note_on_c, 0, 86, 100
2, 46080, Note_on_c, 0, 72, 100
2, 46080, Note_on_c, 0, 60, 100
2, 46080, Note_on_c, 0, 108, 100
2, 46290, Note_on_c, 0, 106, 100
2, 46320, Note_on_c, 0, 96, 0
2, 46320, Note_on_c, 0, 98, 0
2, 46320, Note_on_c, 0, 84, 0
2, 46320, Note_on_c, 0, 86, 0
2, 46320, Note_on_c, 0, 72, 0
2, 46320, Note_on_c, 0, 60, 0
2, 46320, Note_on_c, 0, 97, 100
2, 46530, Note_on_c, 0, 93, 0
2, 46530, Note_on_c, 0, 69, 0
2, 46530, Note_on_c, 0, 81, 0
2, 46530, Note_on_c, 0, 103, 100
2, 46530, Note_on_c, 0, 91, 100
2, 46530, Note_on_c, 0, 79, 100
2, 46530, Note_on_c, 0, 67, 100
2, 46530, Note_on_c, 0, 94, 100
2, 46530, Note_on_c, 0, 70, 100
2, 46530, Note_on_c, 0, 82, 100
2, 46560, Note_on_c, 0, 85, 100
2, 46560, Note_on_c, 0, 73, 100
2, 46560, Note_on_c, 0, 61, 100
2, 47040, Note_on_c, 0, 108, 0
2, 49680, Note_on_c, 0, 85, 0
2, 49680, Note_on_c, 0, 73, 0
2, 49680, Note_on_c, 0, 61, 0
2, 49920, Note_on_c, 0, 97, 0
2, 49920, Note_on_c, 0, 100, 100
2, 49920, Note_on_c, 0, 87, 100
2, 49920, Note_on_c, 0, 74, 100
2, 49920, Note_on_c, 0, 62, 100
2, 53520, Note_on_c, 0, 87, 0
2, 53520, Note_on_c, 0, 74, 0
2, 53520, Note_on_c, 0, 62, 0
2, 53730, Note_on_c, 0, 106, 0
2, 53730, Note_on_c, 0, 103, 0
2, 53730, Note_on_c, 0, 91, 0
2, 53730, Note_on_c, 0, 79, 0
2, 53730, Note_on_c, 0, 67, 0
2, 53730, Note_on_c, 0, 94, 0
2, 53730, Note_on_c, 0, 70, 0
2, 53730, Note_on_c, 0, 82, 0
2, 53730, Note_on_c, 0, 93, 100
2, 53730, Note_on_c, 0, 69, 100
2, 53730, Note_on_c, 0, 81, 100
2, 53760, Note_on_c, 0, 100, 0
2, 53760, Note_on_c, 0, 96, 100
2, 53760, Note_on_c, 0, 98, 100
2, 53760, Note_on_c, 0, 84, 100
2, 53760, Note_on_c, 0, 86, 100
2, 53760, Note_on_c, 0, 72, 100
2, 53760, Note_on_c, 0, 60, 100
2, 53760, Note_on_c, 0, 108, 100
2, 53760, Note_on_c, 0, 74, 100
2, 54000, Note_on_c, 0, 108, 0
2, 54240, Note_on_c, 0, 108, 100
2, 54480, Note_on_c, 0, 108, 0
2, 54720, Note_on_c, 0, 96, 0
2, 54720, Note_on_c, 0, 98, 0
2, 54720, Note_on_c, 0, 84, 0
2, 54720, Note_on_c, 0, 86, 0
2, 54720, Note_on_c, 0, 72, 0
2, 54720, Note_on_c, 0, 60, 0
2, 54720, Note_on_c, 0, 74, 0
2, 54720, Note_on_c, 0, 108, 100
2, 54840, Note_on_c, 0, 108, 0
2, 54960, Note_on_c, 0, 108, 100
2, 55080, Note_on_c, 0, 108, 0
2, 55200, Note_on_c, 0, 108, 100
2, 55440, Note_on_c, 0, 108, 0
2, 55650, Text_t, "sing_off"
2, 55680, Note_on_c, 0, 108, 100
2, 55920, Note_on_c, 0, 108, 0
2, 56160, Note_on_c, 0, 97, 100
2, 56160, Note_on_c, 0, 99, 100
2, 56160, Note_on_c, 0, 86, 100
2, 56160, Note_on_c, 0, 73, 100
2, 56160, Note_on_c, 0, 108, 100
2, 56160, Note_on_c, 0, 61, 100
2, 56400, Note_on_c, 0, 97, 0
2, 56400, Note_on_c, 0, 99, 0
2, 56400, Note_on_c, 0, 86, 0
2, 56400, Note_on_c, 0, 73, 0
2, 56400, Note_on_c, 0, 108, 0
2, 56400, Note_on_c, 0, 61, 0
2, 56640, Note_on_c, 0, 98, 100
2, 56640, Note_on_c, 0, 99, 100
2, 56640, Note_on_c, 0, 87, 100
2, 56640, Note_on_c, 0, 74, 100
2, 56640, Note_on_c, 0, 108, 100
2, 56640, Note_on_c, 0, 62, 100
2, 56880, Note_on_c, 0, 98, 0
2, 56880, Note_on_c, 0, 99, 0
2, 56880, Note_on_c, 0, 87, 0
2, 56880, Note_on_c, 0, 74, 0
2, 56880, Note_on_c, 0, 62, 0
2, 57120, Note_on_c, 0, 96, 100
2, 57120, Note_on_c, 0, 98, 100
2, 57120, Note_on_c, 0, 85, 100
2, 57120, Note_on_c, 0, 72, 100
2, 57120, Note_on_c, 0, 60, 100
2, 57360, Note_on_c, 0, 108, 0
2, 57360, Note_on_c, 0, 96, 0
2, 57360, Note_on_c, 0, 98, 0
2, 57360, Note_on_c, 0, 85, 0
2, 57360, Note_on_c, 0, 72, 0
2, 57360, Note_on_c, 0, 60, 0
2, 57570, Note_on_c, 0, 106, 100
2, 57570, Note_on_c, 0, 94, 100
2, 57570, Note_on_c, 0, 70, 100
2, 57570, Note_on_c, 0, 82, 100
2, 57600, Note_on_c, 0, 97, 100
2, 57600, Note_on_c, 0, 99, 100
2, 57600, Note_on_c, 0, 85, 100
2, 57600, Note_on_c, 0, 87, 100
2, 57600, Note_on_c, 0, 73, 100
2, 57600, Note_on_c, 0, 108, 100
2, 57600, Note_on_c, 0, 75, 100
2, 57600, Note_on_c, 0, 61, 100
2, 57840, Note_on_c, 0, 108, 0
2, 58080, Note_on_c, 0, 108, 100
2, 58200, Note_on_c, 0, 108, 0
2, 58320, Note_on_c, 0, 108, 100
2, 58530, Note_on_c, 0, 105, 0
2, 58530, Note_on_c, 0, 93, 0
2, 58530, Note_on_c, 0, 69, 0
2, 58530, Note_on_c, 0, 81, 0
2, 58560, Note_on_c, 0, 97, 0
2, 58560, Note_on_c, 0, 99, 0
2, 58560, Note_on_c, 0, 85, 0
2, 58560, Note_on_c, 0, 87, 0
2, 58560, Note_on_c, 0, 73, 0
2, 58560, Note_on_c, 0, 75, 0
2, 58560, Note_on_c, 0, 61, 0
2, 58560, Note_on_c, 0, 108, 0
2, 59040, Note_on_c, 0, 108, 100
2, 59280, Note_on_c, 0, 108, 0
2, 59490, Text_t, "drum_double"
2, 59520, Note_on_c, 0, 108, 100
2, 59760, Note_on_c, 0, 108, 0
2, 60000, Note_on_c, 0, 98, 100
2, 60000, Note_on_c, 0, 100, 100
2, 60000, Note_on_c, 0, 87, 100
2, 60000, Note_on_c, 0, 74, 100
2, 60000, Note_on_c, 0, 108, 100
2, 60000, Note_on_c, 0, 61, 100
2, 60240, Note_on_c, 0, 98, 0
2, 60240, Note_on_c, 0, 100, 0
2, 60240, Note_on_c, 0, 87, 0
2, 60240, Note_on_c, 0, 74, 0
2, 60240, Note_on_c, 0, 108, 0
2, 60240, Note_on_c, 0, 61, 0
2, 60480, Note_on_c, 0, 99, 100
2, 60480, Note_on_c, 0, 100, 100
2, 60480, Note_on_c, 0, 88, 100
2, 60480, Note_on_c, 0, 75, 100
2, 60480, Note_on_c, 0, 108, 100
2, 60480, Note_on_c, 0, 62, 100
2, 60600, Note_on_c, 0, 108, 0
2, 60720, Note_on_c, 0, 99, 0
2, 60720, Note_on_c, 0, 100, 0
2, 60720, Note_on_c, 0, 88, 0
2, 60720, Note_on_c, 0, 75, 0
2, 60720, Note_on_c, 0, 62, 0
2, 60720, Note_on_c, 0, 108, 100
2, 60960, Note_on_c, 0, 108, 0
2, 60960, Note_on_c, 0, 97, 100
2, 60960, Note_on_c, 0, 99, 100
2, 60960, Note_on_c, 0, 86, 100
2, 60960, Note_on_c, 0, 73, 100
2, 60960, Note_on_c, 0, 61, 100
2, 61200, Note_on_c, 0, 97, 0
2, 61200, Note_on_c, 0, 99, 0
2, 61200, Note_on_c, 0, 86, 0
2, 61200, Note_on_c, 0, 73, 0
2, 61200, Note_on_c, 0, 61, 0
2, 61410, Text_t, "sing_on"
2, 61410, Text_t, "drum_normal"
2, 61440, Note_on_c, 0, 96, 100
2, 61440, Note_on_c, 0, 98, 100
2, 61440, Note_on_c, 0, 84, 100
2, 61440, Note_on_c, 0, 86, 100
2, 61440, Note_on_c, 0, 72, 100
2, 61440, Note_on_c, 0, 108, 100
2, 61440, Note_on_c, 0, 60, 100
2, 61680, Note_on_c, 0, 96, 0
2, 61680, Note_on_c, 0, 98, 0
2, 61680, Note_on_c, 0, 84, 0
2, 61680, Note_on_c, 0, 86, 0
2, 61680, Note_on_c, 0, 72, 0
2, 61890, Note_on_c, 0, 106, 0
2, 61890, Note_on_c, 0, 94, 0
2, 61890, Note_on_c, 0, 70, 0
2, 61890, Note_on_c, 0, 82, 0
2, 61890, Note_on_c, 0, 105, 100
2, 61890, Note_on_c, 0, 93, 100
2, 61890, Note_on_c, 0, 69, 100
2, 61890, Note_on_c, 0, 81, 100
2, 61920, Note_on_c, 0, 99, 100
2, 61920, Note_on_c, 0, 87, 100
2, 61920, Note_on_c, 0, 74, 100
2, 62040, Note_on_c, 0, 108, 0
2, 62160, Note_on_c, 0, 99, 0
2, 62160, Note_on_c, 0, 87, 0
2, 62160, Note_on_c, 0, 74, 0
2, 62160, Note_on_c, 0, 99, 100
2, 62160, Note_on_c, 0, 87, 100
2, 62400, Note_on_c, 0, 60, 0
2, 62400, Note_on_c, 0, 99, 0
2, 62400, Note_on_c, 0, 87, 0
2, 62400, Note_on_c, 0, 99, 100
2, 62400, Note_on_c, 0, 87, 100
2, 62400, Note_on_c, 0, 74, 100
2, 62640, Note_on_c, 0, 99, 0
2, 62640, Note_on_c, 0, 87, 0
2, 62640, Note_on_c, 0, 74, 0
2, 62640, Note_on_c, 0, 100, 100
2, 62880, Note_on_c, 0, 100, 0
2, 62880, Note_on_c, 0, 100, 100
2, 62880, Note_on_c, 0, 88, 100
2, 62880, Note_on_c, 0, 75, 100
2, 62880, Note_on_c, 0, 62, 100
2, 63120, Note_on_c, 0, 100, 0
2, 63120, Note_on_c, 0, 88, 0
2, 63120, Note_on_c, 0, 75, 0
2, 63120, Note_on_c, 0, 62, 0
2, 63120, Note_on_c, 0, 100, 100
2, 63120, Note_on_c, 0, 88, 100
2, 63360, Note_on_c, 0, 100, 0
2, 63360, Note_on_c, 0, 88, 0
2, 63360, Note_on_c, 0, 100, 100
2, 63360, Note_on_c, 0, 88, 100
2, 63360, Note_on_c, 0, 75, 100
2, 63600, Note_on_c, 0, 100, 0
2, 63600, Note_on_c, 0, 88, 0
2, 63600, Note_on_c, 0, 75, 0
2, 63600, Note_on_c, 0, 99, 100
2, 63840, Note_on_c, 0, 99, 0
2, 63840, Note_on_c, 0, 99, 100
2, 63840, Note_on_c, 0, 87, 100
2, 63840, Note_on_c, 0, 74, 100
2, 63840, Note_on_c, 0, 61, 100
2, 64080, Note_on_c, 0, 99, 0
2, 64080, Note_on_c, 0, 87, 0
2, 64080, Note_on_c, 0, 74, 0
2, 64080, Note_on_c, 0, 61, 0
2, 64080, Note_on_c, 0, 99, 100
2, 64080, Note_on_c, 0, 87, 100
2, 64320, Note_on_c, 0, 99, 0
2, 64320, Note_on_c, 0, 87, 0
2, 64320, Note_on_c, 0, 98, 100
2, 64320, Note_on_c, 0, 86, 100
2, 64320, Note_on_c, 0, 73, 100
2, 64320, Note_on_c, 0, 60, 100
2, 64560, Note_on_c, 0, 98, 0
2, 64560, Note_on_c, 0, 86, 0
2, 64560, Note_on_c, 0, 73, 0
2, 64560, Note_on_c, 0, 60, 0
2, 64560, Note_on_c, 0, 99, 100
2, 64800, Note_on_c, 0, 99, 0
2, 64800, Note_on_c, 0, 100, 100
2, 64800, Note_on_c, 0, 88, 100
2, 65040, Note_on_c, 0, 100, 0
2, 65040, Note_on_c, 0, 88, 0
2, 65040, Note_on_c, 0, 99, 100
2, 65040, Note_on_c, 0, 87, 100
2, 65040, Note_on_c, 0, 74, 100
2, 65040, Note_on_c, 0, 62, 100
2, 65280, Note_on_c, 0, 87, 0
2, 65280, Note_on_c, 0, 74, 0
2, 65280, Note_on_c, 0, 62, 0
2, 65760, Note_on_c, 0, 99, 0
2, 65760, Note_on_c, 0, 98, 100
2, 65760, Note_on_c, 0, 87, 100
2, 65760, Note_on_c, 0, 73, 100
2, 66000, Note_on_c, 0, 98, 0
2, 66000, Note_on_c, 0, 87, 0
2, 66000, Note_on_c, 0, 73, 0
2, 66000, Note_on_c, 0, 97, 100
2, 66000, Note_on_c, 0, 86, 100
2, 66240, Note_on_c, 0, 97, 0
2, 66240, Note_on_c, 0, 86, 0
2, 66240, Note_on_c, 0, 99, 100
2, 66240, Note_on_c, 0, 87, 100
2, 66240, Note_on_c, 0, 74, 100
2, 66240, Note_on_c, 0, 62, 100
2, 66480, Note_on_c, 0, 99, 0
2, 66480, Note_on_c, 0, 87, 0
2, 66480, Note_on_c, 0, 74, 0
2, 66480, Note_on_c, 0, 62, 0
2, 66480, Note_on_c, 0, 98, 100
2, 66480, Note_on_c, 0, 86, 100
2, 66720, Note_on_c, 0, 98, 0
2, 66720, Note_on_c, 0, 86, 0
2, 66720, Note_on_c, 0, 97, 100
2, 66720, Note_on_c, 0, 85, 100
2, 66720, Note_on_c, 0, 73, 100
2, 66720, Note_on_c, 0, 61, 100
2, 67650, Note_on_c, 0, 105, 0
2, 67650, Note_on_c, 0, 93, 0
2, 67650, Note_on_c, 0, 69, 0
2, 67650, Note_on_c, 0, 81, 0
2, 67650, Note_on_c, 0, 106, 100
2, 67650, Note_on_c, 0, 94, 100
2, 67650, Note_on_c, 0, 70, 100
2, 67650, Note_on_c, 0, 82, 100
2, 67680, Note_on_c, 0, 97, 0
2, 67680, Note_on_c, 0, 85, 0
2, 67680, Note_on_c, 0, 73, 0
2, 67680, Note_on_c, 0, 61, 0
2, 67680, Note_on_c, 0, 96, 100
2, 67680, Note_on_c, 0, 84, 100
2, 67680, Note_on_c, 0, 72, 100
2, 67920, Note_on_c, 0, 96, 0
2, 67920, Note_on_c, 0, 84, 0
2, 67920, Note_on_c, 0, 72, 0
2, 67920, Note_on_c, 0, 96, 100
2, 67920, Note_on_c, 0, 84, 100
2, 68160, Note_on_c, 0, 96, 0
2, 68160, Note_on_c, 0, 84, 0
2, 68160, Note_on_c, 0, 96, 100
2, 68160, Note_on_c, 0, 84, 100
2, 68160, Note_on_c, 0, 72, 100
2, 68400, Note_on_c, 0, 96, 0
2, 68400, Note_on_c, 0, 84, 0
2, 68400, Note_on_c, 0, 72, 0
2, 68640, Note_on_c, 0, 96, 100
2, 68640, Note_on_c, 0, 84, 100
2, 68640, Note_on_c, 0, 72, 100
2, 68640, Note_on_c, 0, 60, 100
2, 68880, Note_on_c, 0, 96, 0
2, 68880, Note_on_c, 0, 84, 0
2, 68880, Note_on_c, 0, 72, 0
2, 68880, Note_on_c, 0, 60, 0
2, 68880, Note_on_c, 0, 97, 100
2, 68880, Note_on_c, 0, 85, 100
2, 68880, Note_on_c, 0, 108, 100
2, 69000, Note_on_c, 0, 108, 0
2, 69120, Note_on_c, 0, 97, 0
2, 69120, Note_on_c, 0, 85, 0
2, 69120, Note_on_c, 0, 97, 100
2, 69120, Note_on_c, 0, 85, 100
2, 69120, Note_on_c, 0, 73, 100
2, 69120, Note_on_c, 0, 61, 100
2, 69120, Note_on_c, 0, 108, 100
2, 69360, Note_on_c, 0, 108, 0
2, 69600, Note_on_c, 0, 108, 100
2, 69720, Note_on_c, 0, 108, 0
2, 69840, Note_on_c, 0, 108, 100
2, 69960, Note_on_c, 0, 108, 0
2, 70080, Note_on_c, 0, 108, 100
2, 70320, Note_on_c, 0, 108, 0
2, 70560, Note_on_c, 0, 108, 100
2, 70680, Note_on_c, 0, 108, 0
2, 70800, Note_on_c, 0, 97, 0
2, 70800, Note_on_c, 0, 85, 0
2, 70800, Note_on_c, 0, 73, 0
2, 70800, Note_on_c, 0, 61, 0
2, 70800, Note_on_c, 0, 108, 100
2, 70920, Note_on_c, 0, 108, 0
2, 71010, Text_t, "sing_off"
2, 71010, Note_on_c, 0, 106, 0
2, 71010, Note_on_c, 0, 94, 0
2, 71010, Note_on_c, 0, 70, 0
2, 71010, Note_on_c, 0, 82, 0
2, 71040, Note_on_c, 0, 108, 100
2, 71160, Note_on_c, 0, 108, 0
2, 71280, Note_on_c, 0, 108, 100
2, 71400, Note_on_c, 0, 108, 0
2, 71490, Note_on_c, 0, 105, 100
2, 71490, Note_on_c, 0, 93, 100
2, 71490, Note_on_c, 0, 69, 100
2, 71490, Note_on_c, 0, 81, 100
2, 71520, Note_on_c, 0, 97, 100
2, 71520, Note_on_c, 0, 99, 100
2, 71520, Note_on_c, 0, 86, 100
2, 71520, Note_on_c, 0, 73, 100
2, 71520, Note_on_c, 0, 108, 100
2, 71520, Note_on_c, 0, 61, 100
2, 71760, Note_on_c, 0, 97, 0
2, 71760, Note_on_c, 0, 99, 0
2, 71760, Note_on_c, 0, 86, 0
2, 71760, Note_on_c, 0, 73, 0
2, 71760, Note_on_c, 0, 108, 0
2, 71760, Note_on_c, 0, 61, 0
2, 72000, Note_on_c, 0, 98, 100
2, 72000, Note_on_c, 0, 99, 100
2, 72000, Note_on_c, 0, 87, 100
2, 72000, Note_on_c, 0, 74, 100
2, 72000, Note_on_c, 0, 108, 100
2, 72000, Note_on_c, 0, 62, 100
2, 72240, Note_on_c, 0, 98, 0
2, 72240, Note_on_c, 0, 99, 0
2, 72240, Note_on_c, 0, 87, 0
2, 72240, Note_on_c, 0, 74, 0
2, 72240, Note_on_c, 0, 108, 0
2, 72240, Note_on_c, 0, 62, 0
2, 72480, Note_on_c, 0, 96, 100
2, 72480, Note_on_c, 0, 98, 100
2, 72480, Note_on_c, 0, 85, 100
2, 72480, Note_on_c, 0, 72, 100
2, 72480, Note_on_c, 0, 108, 100
2, 72480, Note_on_c, 0, 60, 100
2, 72600, Note_on_c, 0, 108, 0
2, 72720, Note_on_c, 0, 96, 0
2, 72720, Note_on_c, 0, 98, 0
2, 72720, Note_on_c, 0, 85, 0
2, 72720, Note_on_c, 0, 72, 0
2, 72720, Note_on_c, 0, 60, 0
2, 72720, Note_on_c, 0, 108, 100
2, 72840, Note_on_c, 0, 108, 0
2, 72960, Note_on_c, 0, 97, 100
2, 72960, Note_on_c, 0, 99, 100
2, 72960, Note_on_c, 0, 85, 100
2, 72960, Note_on_c, 0, 87, 100
2, 72960, Note_on_c, 0, 73, 100
2, 72960, Note_on_c, 0, 108, 100
2, 72960, Note_on_c, 0, 61, 100
2, 73200, Note_on_c, 0, 108, 0
2, 73440, Note_on_c, 0, 108, 100
2, 73560, Note_on_c, 0, 108, 0
2, 73680, Note_on_c, 0, 108, 100
2, 73800, Note_on_c, 0, 108, 0
2, 73890, Note_on_c, 0, 105, 0
2, 73890, Note_on_c, 0, 93, 0
2, 73890, Note_on_c, 0, 69, 0
2, 73890, Note_on_c, 0, 81, 0
2, 73920, Note_on_c, 0, 97, 0
2, 73920, Note_on_c, 0, 99, 0
2, 73920, Note_on_c, 0, 85, 0
2, 73920, Note_on_c, 0, 87, 0
2, 73920, Note_on_c, 0, 73, 0
2, 73920, Note_on_c, 0, 61, 0
2, 73920, Note_on_c, 0, 108, 100
2, 74040, Note_on_c, 0, 108, 0
2, 74160, Note_on_c, 0, 108, 100
2, 74280, Note_on_c, 0, 108, 0
2, 74400, Note_on_c, 0, 108, 100
2, 74520, Note_on_c, 0, 108, 0
2, 74640, Note_on_c, 0, 108, 100
2, 74760, Note_on_c, 0, 108, 0
2, 74850, Text_t, "drum_double"
2, 74880, Note_on_c, 0, 108, 100
2, 75000, Note_on_c, 0, 108, 0
2, 75120, Note_on_c, 0, 108, 100
2, 75240, Note_on_c, 0, 108, 0
2, 75330, Note_on_c, 0, 106, 100
2, 75330, Note_on_c, 0, 94, 100
2, 75330, Note_on_c, 0, 70, 100
2, 75330, Note_on_c, 0, 82, 100
2, 75360, Note_on_c, 0, 98, 100
2, 75360, Note_on_c, 0, 100, 100
2, 75360, Note_on_c, 0, 87, 100
2, 75360, Note_on_c, 0, 74, 100
2, 75360, Note_on_c, 0, 108, 100
2, 75360, Note_on_c, 0, 61, 100
2, 75600, Note_on_c, 0, 98, 0
2, 75600, Note_on_c, 0, 100, 0
2, 75600, Note_on_c, 0, 87, 0
2, 75600, Note_on_c, 0, 74, 0
2, 75600, Note_on_c, 0, 108, 0
2, 75600, Note_on_c, 0, 61, 0
2, 75810, Text_t, "sing_on"
2, 75840, Note_on_c, 0, 99, 100
2, 75840, Note_on_c, 0, 100, 100
2, 75840, Note_on_c, 0, 88, 100
2, 75840, Note_on_c, 0, 75, 100
2, 75840, Note_on_c, 0, 108, 100
2, 75840, Note_on_c, 0, 62, 100
2, 76080, Note_on_c, 0, 99, 0
2, 76080, Note_on_c, 0, 100, 0
2, 76080, Note_on_c, 0, 88, 0
2, 76080, Note_on_c, 0, 75, 0
2, 76080, Note_on_c, 0, 62, 0
2, 76320, Note_on_c, 0, 97, 100
2, 76320, Note_on_c, 0, 99, 100
2, 76320, Note_on_c, 0, 86, 100
2, 76320, Note_on_c, 0, 73, 100
2, 76320, Note_on_c, 0, 61, 100
2, 76560, Note_on_c, 0, 97, 0
2, 76560, Note_on_c, 0, 99, 0
2, 76560, Note_on_c, 0, 86, 0
2, 76560, Note_on_c, 0, 73, 0
2, 76560, Note_on_c, 0, 61, 0
2, 76770, Text_t, "drum_normal"
2, 76800, Note_on_c, 0, 96, 100
2, 76800, Note_on_c, 0, 84, 100
2, 76800, Note_on_c, 0, 72, 100
2, 76800, Note_on_c, 0, 86, 100
2, 76800, Note_on_c, 0, 98, 100
2, 76800, Note_on_c, 0, 60, 100
2, 77010, Note_on_c, 0, 106, 0
2, 77010, Note_on_c, 0, 94, 0
2, 77010, Note_on_c, 0, 70, 0
2, 77010, Note_on_c, 0, 82, 0
2, 77010, Note_on_c, 0, 105, 100
2, 77010, Note_on_c, 0, 93, 100
2, 77010, Note_on_c, 0, 69, 100
2, 77010, Note_on_c, 0, 81, 100
2, 77010, Note_on_c, 0, 67, 100
2, 77010, Note_on_c, 0, 103, 100
2, 77010, Note_on_c, 0, 91, 100
2, 77040, Note_on_c, 0, 96, 0
2, 77040, Note_on_c, 0, 84, 0
2, 77040, Note_on_c, 0, 72, 0
2, 77040, Note_on_c, 0, 86, 0
2, 77040, Note_on_c, 0, 98, 0
2, 77040, Note_on_c, 0, 60, 0
2, 77040, Note_on_c, 0, 84, 100
2, 77040, Note_on_c, 0, 96, 100
2, 77250, Note_on_c, 0, 79, 100
2, 77280, Note_on_c, 0, 84, 0
2, 77280, Note_on_c, 0, 96, 0
2, 77280, Note_on_c, 0, 85, 100
2, 77280, Note_on_c, 0, 73, 100
2, 77280, Note_on_c, 0, 97, 100
2, 77280, Note_on_c, 0, 61, 100
2, 77440, Note_on_c, 0, 97, 0
2, 77440, Note_on_c, 0, 98, 100
2, 77520, Note_on_c, 0, 85, 0
2, 77520, Note_on_c, 0, 73, 0
2, 77520, Note_on_c, 0, 61, 0
2, 77520, Note_on_c, 0, 86, 100
2, 77600, Note_on_c, 0, 98, 0
2, 77600, Note_on_c, 0, 98, 100
2, 77640, Note_on_c, 0, 108, 0
2, 77760, Note_on_c, 0, 86, 0
2, 77760, Note_on_c, 0, 98, 0
2, 77760, Note_on_c, 0, 98, 100
2, 77920, Note_on_c, 0, 98, 0
2, 77920, Note_on_c, 0, 99, 100
2, 78000, Note_on_c, 0, 87, 100
2, 78000, Note_on_c, 0, 74, 100
2, 78000, Note_on_c, 0, 62, 100
2, 78080, Note_on_c, 0, 99, 0
2, 78080, Note_on_c, 0, 100, 100
2, 78210, Note_on_c, 0, 91, 0
2, 78240, Note_on_c, 0, 87, 0
2, 78240, Note_on_c, 0, 74, 0
2, 78240, Note_on_c, 0, 62, 0
2, 78320, Note_on_c, 0, 100, 0
2, 78450, Note_on_c, 0, 103, 0
2, 78480, Note_on_c, 0, 84, 100
2, 78480, Note_on_c, 0, 72, 100
2, 78480, Note_on_c, 0, 60, 100
2, 78480, Note_on_c, 0, 96, 100
2, 78720, Note_on_c, 0, 84, 0
2, 78720, Note_on_c, 0, 72, 0
2, 78720, Note_on_c, 0, 60, 0
2, 78720, Note_on_c, 0, 96, 0
2, 78720, Note_on_c, 0, 85, 100
2, 78720, Note_on_c, 0, 97, 100
2, 78880, Note_on_c, 0, 97, 0
2, 78880, Note_on_c, 0, 98, 100
2, 78960, Note_on_c, 0, 85, 0
2, 78960, Note_on_c, 0, 86, 100
2, 78960, Note_on_c, 0, 74, 100
2, 79040, Note_on_c, 0, 98, 0
2, 79040, Note_on_c, 0, 98, 100
2, 79200, Note_on_c, 0, 86, 0
2, 79200, Note_on_c, 0, 74, 0
2, 79200, Note_on_c, 0, 98, 0
2, 79200, Note_on_c, 0, 98, 100
2, 79360, Note_on_c, 0, 98, 0
2, 79360, Note_on_c, 0, 99, 100
2, 79440, Note_on_c, 0, 87, 100
2, 79440, Note_on_c, 0, 75, 100
2, 79440, Note_on_c, 0, 62, 100
2, 79520, Note_on_c, 0, 99, 0
2, 79520, Note_on_c, 0, 100, 100
2, 80130, Note_on_c, 0, 67, 0
2, 80160, Note_on_c, 0, 87, 0
2, 80160, Note_on_c, 0, 75, 0
2, 80160, Note_on_c, 0, 62, 0
2, 80160, Note_on_c, 0, 100, 0
2, 80160, Note_on_c, 0, 86, 100
2, 80160, Note_on_c, 0, 74, 100
2, 80160, Note_on_c, 0, 99, 100
2, 80370, Note_on_c, 0, 79, 0
2, 80400, Note_on_c, 0, 86, 0
2, 80400, Note_on_c, 0, 74, 0
2, 80400, Note_on_c, 0, 99, 0
2, 80610, Note_on_c, 0, 105, 0
2, 80610, Note_on_c, 0, 93, 0
2, 80610, Note_on_c, 0, 69, 0
2, 80610, Note_on_c, 0, 81, 0
2, 80850, Note_on_c, 0, 106, 100
2, 80850, Note_on_c, 0, 94, 100
2, 80850, Note_on_c, 0, 70, 100
2, 80850, Note_on_c, 0, 82, 100
2, 80880, Note_on_c, 0, 84, 100
2, 80880, Note_on_c, 0, 72, 100
2, 80880, Note_on_c, 0, 60, 100
2, 80880, Note_on_c, 0, 96, 100
2, 81120, Note_on_c, 0, 84, 0
2, 81120, Note_on_c, 0, 72, 0
2, 81120, Note_on_c, 0, 60, 0
2, 81120, Note_on_c, 0, 96, 0
2, 81120, Note_on_c, 0, 85, 100
2, 81120, Note_on_c, 0, 97, 100
2, 81280, Note_on_c, 0, 85, 0
2, 81280, Note_on_c, 0, 97, 0
2, 81280, Note_on_c, 0, 86, 100
2, 81280, Note_on_c, 0, 98, 100
2, 81440, Note_on_c, 0, 86, 0
2, 81440, Note_on_c, 0, 98, 0
2, 81440, Note_on_c, 0, 87, 100
2, 81440, Note_on_c, 0, 74, 100
2, 81440, Note_on_c, 0, 99, 100
2, 81600, Note_on_c, 0, 87, 0
2, 81600, Note_on_c, 0, 74, 0
2, 81600, Note_on_c, 0, 99, 0
2, 81600, Note_on_c, 0, 97, 100
2, 81760, Note_on_c, 0, 97, 0
2, 81760, Note_on_c, 0, 85, 100
2, 81760, Note_on_c, 0, 98, 100
2, 81920, Note_on_c, 0, 85, 0
2, 81920, Note_on_c, 0, 98, 0
2, 81920, Note_on_c, 0, 86, 100
2, 81920, Note_on_c, 0, 99, 100
2, 82080, Note_on_c, 0, 86, 0
2, 82080, Note_on_c, 0, 99, 0
2, 82080, Note_on_c, 0, 87, 100
2, 82080, Note_on_c, 0, 75, 100
2, 82080, Note_on_c, 0, 62, 100
2, 82080, Note_on_c, 0, 100, 100
2, 82240, Note_on_c, 0, 100, 0
2, 82240, Note_on_c, 0, 99, 100
2, 82320, Note_on_c, 0, 87, 0
2, 82320, Note_on_c, 0, 75, 0
2, 82320, Note_on_c, 0, 62, 0
2, 82320, Note_on_c, 0, 86, 100
2, 82400, Note_on_c, 0, 99, 0
2, 82400, Note_on_c, 0, 100, 100
2, 82560, Note_on_c, 0, 86, 0
2, 82560, Note_on_c, 0, 87, 100
2, 82560, Note_on_c, 0, 75, 100
2, 82800, Note_on_c, 0, 87, 0
2, 82800, Note_on_c, 0, 75, 0
2, 83040, Note_on_c, 0, 100, 0
2, 83040, Note_on_c, 0, 99, 100
2, 83040, Note_on_c, 0, 86, 100
2, 83040, Note_on_c, 0, 74, 100
2, 83040, Note_on_c, 0, 61, 100
2, 83200, Note_on_c, 0, 99, 0
2, 83200, Note_on_c, 0, 86, 0
2, 83200, Note_on_c, 0, 74, 0
2, 83200, Note_on_c, 0, 61, 0
2, 83200, Note_on_c, 0, 98, 100
2, 83280, Note_on_c, 0, 85, 100
2, 83360, Note_on_c, 0, 98, 0
2, 83360, Note_on_c, 0, 99, 100
2, 83520, Note_on_c, 0, 85, 0
2, 83520, Note_on_c, 0, 99, 0
2, 83520, Note_on_c, 0, 98, 100
2, 83520, Note_on_c, 0, 86, 100
2, 83520, Note_on_c, 0, 74, 100
2, 83680, Note_on_c, 0, 98, 0
2, 83760, Note_on_c, 0, 86, 0
2, 83760, Note_on_c, 0, 74, 0
2, 84000, Note_on_c, 0, 97, 100
2, 84000, Note_on_c, 0, 85, 100
2, 84000, Note_on_c, 0, 73, 100
2, 84000, Note_on_c, 0, 60, 100
2, 84240, Note_on_c, 0, 97, 0
2, 84240, Note_on_c, 0, 85, 0
2, 84240, Note_on_c, 0, 73, 0
2, 84240, Note_on_c, 0, 60, 0
2, 84450, Note_on_c, 0, 105, 100
2, 84450, Note_on_c, 0, 93, 100
2, 84450, Note_on_c, 0, 69, 100
2, 84450, Note_on_c, 0, 81, 100
2, 84480, Note_on_c, 0, 98, 100
2, 84480, Note_on_c, 0, 86, 100
2, 84480, Note_on_c, 0, 74, 100
2, 84480, Note_on_c, 0, 61, 100
2, 84480, Note_on_c, 0, 108, 100
2, 85680, Note_on_c, 0, 108, 0
2, 85920, Note_on_c, 0, 98, 0
2, 85920, Note_on_c, 0, 86, 0
2, 85920, Note_on_c, 0, 74, 0
2, 85920, Note_on_c, 0, 61, 0
2, 85920, Note_on_c, 0, 98, 100
2, 85920, Note_on_c, 0, 86, 100
2, 85920, Note_on_c, 0, 74, 100
2, 85920, Note_on_c, 0, 108, 100
2, 86080, Note_on_c, 0, 98, 0
2, 86080, Note_on_c, 0, 86, 0
2, 86080, Note_on_c, 0, 74, 0
2, 86370, Text_t, "sing_off"
2, 86400, Note_on_c, 0, 108, 0
2, 86610, Note_on_c, 0, 67, 100
2, 86640, Note_on_c, 0, 100, 100
2, 86640, Note_on_c, 0, 87, 100
2, 86640, Note_on_c, 0, 75, 100
2, 86640, Note_on_c, 0, 62, 100
2, 86880, Note_on_c, 0, 100, 0
2, 86880, Note_on_c, 0, 87, 0
2, 86880, Note_on_c, 0, 75, 0
2, 86880, Note_on_c, 0, 62, 0
2, 86880, Note_on_c, 0, 99, 100
2, 86880, Note_on_c, 0, 86, 100
2, 87040, Note_on_c, 0, 99, 0
2, 87040, Note_on_c, 0, 98, 100
2, 87120, Note_on_c, 0, 86, 0
2, 87120, Note_on_c, 0, 85, 100
2, 87120, Note_on_c, 0, 73, 100
2, 87200, Note_on_c, 0, 98, 0
2, 87200, Note_on_c, 0, 97, 100
2, 87360, Note_on_c, 0, 85, 0
2, 87360, Note_on_c, 0, 73, 0
2, 87360, Note_on_c, 0, 97, 0
2, 87360, Note_on_c, 0, 98, 100
2, 87360, Note_on_c, 0, 86, 100
2, 87570, Note_on_c, 0, 103, 100
2, 87570, Note_on_c, 0, 91, 100
2, 87570, Note_on_c, 0, 79, 100
2, 87600, Note_on_c, 0, 98, 0
2, 87600, Note_on_c, 0, 86, 0
2, 87600, Note_on_c, 0, 99, 100
2, 87600, Note_on_c, 0, 87, 100
2, 87600, Note_on_c, 0, 74, 100
2, 87600, Note_on_c, 0, 61, 100
2, 87840, Note_on_c, 0, 99, 0
2, 87840, Note_on_c, 0, 87, 0
2, 87840, Note_on_c, 0, 74, 0
2, 87840, Note_on_c, 0, 61, 0
2, 87840, Note_on_c, 0, 98, 100
2, 87840, Note_on_c, 0, 86, 100
2, 87840, Note_on_c, 0, 108, 100
2, 88080, Note_on_c, 0, 98, 0
2, 88080, Note_on_c, 0, 86, 0
2, 88080, Note_on_c, 0, 108, 0
2, 88080, Note_on_c, 0, 97, 100
2, 88080, Note_on_c, 0, 85, 100
2, 88080, Note_on_c, 0, 73, 100
2, 88320, Note_on_c, 0, 97, 0
2, 88320, Note_on_c, 0, 85, 0
2, 88320, Note_on_c, 0, 73, 0
2, 88320, Note_on_c, 0, 96, 100
2, 88320, Note_on_c, 0, 84, 100
2, 88320, Note_on_c, 0, 72, 100
2, 88320, Note_on_c, 0, 60, 100
2, 88320, Note_on_c, 0, 108, 100
2, 88560, Note_on_c, 0, 108, 0
2, 88800, Note_on_c, 0, 108, 100
2, 89160, Note_on_c, 0, 108, 0
2, 89280, Note_on_c, 0, 108, 100
2, 89520, Note_on_c, 0, 108, 0
2, 89760, Note_on_c, 0, 108, 100
2, 89880, Note_on_c, 0, 108, 0
2, 90000, Note_on_c, 0, 96, 0
2, 90000, Note_on_c, 0, 84, 0
2, 90000, Note_on_c, 0, 72, 0
2, 90000, Note_on_c, 0, 60, 0
2, 90000, Note_on_c, 0, 108, 100
2, 90210, Text_t, "drum_double"
2, 90210, Note_on_c, 0, 106, 0
2, 90210, Note_on_c, 0, 94, 0
2, 90210, Note_on_c, 0, 70, 0
2, 90210, Note_on_c, 0, 82, 0
2, 90210, Note_on_c, 0, 105, 0
2, 90210, Note_on_c, 0, 93, 0
2, 90210, Note_on_c, 0, 69, 0
2, 90210, Note_on_c, 0, 81, 0
2, 90210, Note_on_c, 0, 67, 0
2, 90210, Note_on_c, 0, 103, 0
2, 90210, Note_on_c, 0, 91, 0
2, 90210, Note_on_c, 0, 79, 0
2, 90360, Note_on_c, 0, 108, 0
2, 90720, Note_on_c, 0, 108, 100
2, 90960, Note_on_c, 0, 108, 0
2, 91200, Note_on_c, 0, 108, 100
2, 91440, Note_on_c, 0, 108, 0
2, 91680, Note_on_c, 0, 108, 100
2, 91920, Note_on_c, 0, 108, 0
2, 92130, Text_t, "sing_on"
2, 92130, Text_t, "[chorus]"
2, 92130, Text_t, "drum_normal"
2, 92160, Note_on_c, 0, 108, 100
2, 92280, Note_on_c, 0, 108, 0
2, 92400, Note_on_c, 0, 108, 100
2, 92610, Note_on_c, 0, 106, 100
2, 92610, Note_on_c, 0, 94, 100
2, 92610, Note_on_c, 0, 70, 100
2, 92610, Note_on_c, 0, 82, 100
2, 92640, Note_on_c, 0, 108, 0
2, 92640, Note_on_c, 0, 100, 100
2, 92640, Note_on_c, 0, 88, 100
2, 92640, Note_on_c, 0, 74, 100
2, 92640, Note_on_c, 0, 61, 100
2, 92880, Note_on_c, 0, 100, 0
2, 92880, Note_on_c, 0, 88, 0
2, 92880, Note_on_c, 0, 74, 0
2, 92880, Note_on_c, 0, 99, 100
2, 92880, Note_on_c, 0, 87, 100
2, 92880, Note_on_c, 0, 73, 100
2, 93600, Note_on_c, 0, 61, 0
2, 93600, Note_on_c, 0, 99, 0
2, 93600, Note_on_c, 0, 87, 0
2, 93600, Note_on_c, 0, 73, 0
2, 93600, Note_on_c, 0, 100, 100
2, 93600, Note_on_c, 0, 88, 100
2, 93600, Note_on_c, 0, 74, 100
2, 93840, Note_on_c, 0, 100, 0
2, 93840, Note_on_c, 0, 88, 0
2, 93840, Note_on_c, 0, 74, 0
2, 93840, Note_on_c, 0, 99, 100
2, 93840, Note_on_c, 0, 87, 100
2, 93840, Note_on_c, 0, 73, 100
2, 93840, Note_on_c, 0, 61, 100
2, 94080, Note_on_c, 0, 99, 0
2, 94080, Note_on_c, 0, 87, 0
2, 94080, Note_on_c, 0, 73, 0
2, 94080, Note_on_c, 0, 61, 0
2, 94080, Note_on_c, 0, 98, 100
2, 94080, Note_on_c, 0, 86, 100
2, 94320, Note_on_c, 0, 98, 0
2, 94320, Note_on_c, 0, 86, 0
2, 94320, Note_on_c, 0, 97, 100
2, 94320, Note_on_c, 0, 85, 100
2, 94560, Note_on_c, 0, 97, 0
2, 94560, Note_on_c, 0, 85, 0
2, 94560, Note_on_c, 0, 99, 100
2, 94560, Note_on_c, 0, 87, 100
2, 94560, Note_on_c, 0, 74, 100
2, 94560, Note_on_c, 0, 62, 100
2, 94560, Note_on_c, 0, 108, 100
2, 94800, Note_on_c, 0, 99, 0
2, 94800, Note_on_c, 0, 87, 0
2, 94800, Note_on_c, 0, 74, 0
2, 94800, Note_on_c, 0, 62, 0
2, 95040, Note_on_c, 0, 98, 100
2, 95040, Note_on_c, 0, 86, 100
2, 95040, Note_on_c, 0, 73, 100
2, 95040, Note_on_c, 0, 61, 100
2, 95280, Note_on_c, 0, 98, 0
2, 95280, Note_on_c, 0, 86, 0
2, 95280, Note_on_c, 0, 73, 0
2, 95280, Note_on_c, 0, 61, 0
2, 95490, Note_on_c, 0, 106, 0
2, 95490, Note_on_c, 0, 94, 0
2, 95490, Note_on_c, 0, 70, 0
2, 95490, Note_on_c, 0, 82, 0
2, 95490, Note_on_c, 0, 105, 100
2, 95490, Note_on_c, 0, 93, 100
2, 95490, Note_on_c, 0, 69, 100
2, 95490, Note_on_c, 0, 81, 100
2, 95520, Note_on_c, 0, 97, 100
2, 95520, Note_on_c, 0, 85, 100
2, 95520, Note_on_c, 0, 72, 100
2, 95520, Note_on_c, 0, 60, 100
2, 95760, Note_on_c, 0, 97, 0
2, 95760, Note_on_c, 0, 85, 0
2, 95760, Note_on_c, 0, 72, 0
2, 95760, Note_on_c, 0, 60, 0
2, 95760, Note_on_c, 0, 96, 100
2, 95760, Note_on_c, 0, 84, 100
2, 96000, Note_on_c, 0, 108, 0
2, 96000, Note_on_c, 0, 96, 0
2, 96000, Note_on_c, 0, 84, 0
2, 96000, Note_on_c, 0, 96, 100
2, 96000, Note_on_c, 0, 72, 100
2, 96000, Note_on_c, 0, 60, 100
2, 96240, Note_on_c, 0, 96, 0
2, 96240, Note_on_c, 0, 72, 0
2, 96240, Note_on_c, 0, 60, 0
2, 96240, Note_on_c, 0, 97, 100
2, 96240, Note_on_c, 0, 85, 100
2, 96480, Note_on_c, 0, 97, 0
2, 96480, Note_on_c, 0, 85, 0
2, 96480, Note_on_c, 0, 96, 100
2, 96720, Note_on_c, 0, 96, 0
2, 96720, Note_on_c, 0, 97, 100
2, 96720, Note_on_c, 0, 85, 100
2, 96720, Note_on_c, 0, 72, 100
2, 96960, Note_on_c, 0, 97, 0
2, 96960, Note_on_c, 0, 85, 0
2, 96960, Note_on_c, 0, 72, 0
2, 96960, Note_on_c, 0, 97, 100
2, 96960, Note_on_c, 0, 85, 100
2, 96960, Note_on_c, 0, 72, 100
2, 96960, Note_on_c, 0, 60, 100
2, 97200, Note_on_c, 0, 97, 0
2, 97200, Note_on_c, 0, 85, 0
2, 97200, Note_on_c, 0, 72, 0
2, 97200, Note_on_c, 0, 60, 0
2, 97200, Note_on_c, 0, 96, 100
2, 97440, Note_on_c, 0, 96, 0
2, 97440, Note_on_c, 0, 97, 100
2, 97440, Note_on_c, 0, 85, 100
2, 97440, Note_on_c, 0, 72, 100
2, 97440, Note_on_c, 0, 60, 100
2, 97680, Note_on_c, 0, 97, 0
2, 97680, Note_on_c, 0, 85, 0
2, 97680, Note_on_c, 0, 72, 0
2, 97680, Note_on_c, 0, 60, 0
2, 97680, Note_on_c, 0, 97, 100
2, 97680, Note_on_c, 0, 85, 100
2, 97680, Note_on_c, 0, 72, 100
2, 97920, Note_on_c, 0, 97, 0
2, 97920, Note_on_c, 0, 85, 0
2, 97920, Note_on_c, 0, 72, 0
2, 97920, Note_on_c, 0, 98, 100
2, 97920, Note_on_c, 0, 86, 100
2, 97920, Note_on_c, 0, 73, 100
2, 97920, Note_on_c, 0, 61, 100
2, 98160, Note_on_c, 0, 98, 0
2, 98160, Note_on_c, 0, 86, 0
2, 98160, Note_on_c, 0, 73, 0
2, 98160, Note_on_c, 0, 61, 0
2, 98400, Note_on_c, 0, 98, 100
2, 98400, Note_on_c, 0, 86, 100
2, 98400, Note_on_c, 0, 73, 100
2, 98400, Note_on_c, 0, 61, 100
2, 98640, Note_on_c, 0, 98, 0
2, 98640, Note_on_c, 0, 86, 0
2, 98640, Note_on_c, 0, 73, 0
2, 98640, Note_on_c, 0, 61, 0
2, 98640, Note_on_c, 0, 99, 100
2, 98640, Note_on_c, 0, 87, 100
2, 98640, Note_on_c, 0, 74, 100
2, 98880, Note_on_c, 0, 99, 0
2, 98880, Note_on_c, 0, 87, 0
2, 98880, Note_on_c, 0, 74, 0
2, 99120, Note_on_c, 0, 100, 100
2, 99120, Note_on_c, 0, 88, 100
2, 99360, Note_on_c, 0, 100, 0
2, 99360, Note_on_c, 0, 88, 0
2, 99360, Note_on_c, 0, 99, 100
2, 99360, Note_on_c, 0, 87, 100
2, 99360, Note_on_c, 0, 74, 100
2, 99360, Note_on_c, 0, 62, 100
2, 99480, Note_on_c, 0, 99, 0
2, 99480, Note_on_c, 0, 87, 0
2, 99480, Note_on_c, 0, 74, 0
2, 99480, Note_on_c, 0, 100, 100
2, 99600, Note_on_c, 0, 62, 0
2, 99600, Note_on_c, 0, 100, 0
2, 99600, Note_on_c, 0, 99, 100
2, 99840, Note_on_c, 0, 99, 0
2, 99840, Note_on_c, 0, 99, 100
2, 99840, Note_on_c, 0, 87, 100
2, 99840, Note_on_c, 0, 74, 100
2, 99840, Note_on_c, 0, 62, 100
2, 99840, Note_on_c, 0, 108, 100
2, 101160, Note_on_c, 0, 108, 0
2, 101280, Note_on_c, 0, 108, 100
2, 101730, Note_on_c, 0, 105, 0
2, 101730, Note_on_c, 0, 93, 0
2, 101730, Note_on_c, 0, 69, 0
2, 101730, Note_on_c, 0, 81, 0
2, 101730, Note_on_c, 0, 106, 100
2, 101730, Note_on_c, 0, 94, 100
2, 101730, Note_on_c, 0, 70, 100
2, 101730, Note_on_c, 0, 82, 100
2, 101760, Note_on_c, 0, 99, 0
2, 101760, Note_on_c, 0, 87, 0
2, 101760, Note_on_c, 0, 74, 0
2, 101760, Note_on_c, 0, 62, 0
2, 101760, Note_on_c, 0, 108, 0
2, 101970, Note_on_c, 0, 103, 100
2, 101970, Note_on_c, 0, 91, 100
2, 101970, Note_on_c, 0, 79, 100
2, 101970, Note_on_c, 0, 67, 100
2, 102000, Note_on_c, 0, 100, 100
2, 102000, Note_on_c, 0, 88, 100
2, 102000, Note_on_c, 0, 75, 100
2, 102000, Note_on_c, 0, 62, 100
2, 102120, Note_on_c, 0, 100, 0
2, 102120, Note_on_c, 0, 88, 0
2, 102120, Note_on_c, 0, 75, 0
2, 102120, Note_on_c, 0, 62, 0
2, 102120, Note_on_c, 0, 99, 100
2, 102120, Note_on_c, 0, 87, 100
2, 102240, Note_on_c, 0, 99, 0
2, 102240, Note_on_c, 0, 87, 0
2, 102240, Note_on_c, 0, 98, 100
2, 102240, Note_on_c, 0, 86, 100
2, 102360, Note_on_c, 0, 98, 0
2, 102360, Note_on_c, 0, 86, 0
2, 102720, Note_on_c, 0, 99, 100
2, 102720, Note_on_c, 0, 86, 100
2, 102720, Note_on_c, 0, 74, 100
2, 102720, Note_on_c, 0, 61, 100
2, 102960, Note_on_c, 0, 99, 0
2, 102960, Note_on_c, 0, 86, 0
2, 102960, Note_on_c, 0, 74, 0
2, 102960, Note_on_c, 0, 61, 0
2, 102960, Note_on_c, 0, 98, 100
2, 102960, Note_on_c, 0, 85, 100
2, 103080, Note_on_c, 0, 98, 0
2, 103080, Note_on_c, 0, 85, 0
2, 103080, Note_on_c, 0, 99, 100
2, 103200, Note_on_c, 0, 99, 0
2, 103200, Note_on_c, 0, 98, 100
2, 103200, Note_on_c, 0, 86, 100
2, 103200, Note_on_c, 0, 73, 100
2, 103440, Note_on_c, 0, 98, 0
2, 103440, Note_on_c, 0, 86, 0
2, 103440, Note_on_c, 0, 73, 0
2, 103440, Note_on_c, 0, 97, 100
2, 103440, Note_on_c, 0, 85, 100
2, 103680, Note_on_c, 0, 97, 0
2, 103680, Note_on_c, 0, 85, 0
2, 103680, Note_on_c, 0, 96, 100
2, 103680, Note_on_c, 0, 84, 100
2, 103680, Note_on_c, 0, 72, 100
2, 103680, Note_on_c, 0, 60, 100
2, 103680, Note_on_c, 0, 108, 100
2, 103920, Note_on_c, 0, 108, 0
2, 104160, Note_on_c, 0, 108, 100
2, 104520, Note_on_c, 0, 108, 0
2, 104640, Note_on_c, 0, 108, 100
2, 104880, Note_on_c, 0, 108, 0
2, 105120, Note_on_c, 0, 108, 100
2, 105240, Note_on_c, 0, 108, 0
2, 105360, Note_on_c, 0, 108, 100
2, 105570, Text_t, "drum_double"
2, 105720, Note_on_c, 0, 108, 0
2, 106080, Note_on_c, 0, 108, 100
2, 106320, Note_on_c, 0, 108, 0
2, 106530, Note_on_c, 0, 103, 0
2, 106530, Note_on_c, 0, 91, 0
2, 106530, Note_on_c, 0, 79, 0
2, 106530, Note_on_c, 0, 67, 0
2, 106560, Note_on_c, 0, 96, 0
2, 106560, Note_on_c, 0, 84, 0
2, 106560, Note_on_c, 0, 72, 0
2, 106560, Note_on_c, 0, 60, 0
2, 106560, Note_on_c, 0, 108, 100
2, 106800, Note_on_c, 0, 108, 0
2, 107040, Note_on_c, 0, 108, 100
2, 107280, Note_on_c, 0, 108, 0
2, 107490, Text_t, "drum_normal"
2, 107490, Note_on_c, 0, 105, 100
2, 107490, Note_on_c, 0, 93, 100
2, 107490, Note_on_c, 0, 69, 100
2, 107490, Note_on_c, 0, 81, 100
2, 107520, Note_on_c, 0, 100, 100
2, 107520, Note_on_c, 0, 98, 100
2, 107520, Note_on_c, 0, 87, 100
2, 107520, Note_on_c, 0, 86, 100
2, 107520, Note_on_c, 0, 74, 100
2, 107520, Note_on_c, 0, 62, 100
2, 107520, Note_on_c, 0, 108, 100
2, 107520, Note_on_c, 0, 73, 100
2, 107640, Note_on_c, 0, 108, 0
2, 107760, Note_on_c, 0, 100, 0
2, 107760, Note_on_c, 0, 98, 0
2, 107760, Note_on_c, 0, 87, 0
2, 107760, Note_on_c, 0, 86, 0
2, 107760, Note_on_c, 0, 74, 0
2, 107760, Note_on_c, 0, 62, 0
2, 107760, Note_on_c, 0, 73, 0
2, 107760, Note_on_c, 0, 108, 100
2, 108000, Note_on_c, 0, 108, 0
2, 108000, Note_on_c, 0, 100, 100
2, 108000, Note_on_c, 0, 98, 100
2, 108000, Note_on_c, 0, 87, 100
2, 108000, Note_on_c, 0, 86, 100
2, 108000, Note_on_c, 0, 74, 100
2, 108000, Note_on_c, 0, 73, 100
2, 108240, Note_on_c, 0, 100, 0
2, 108240, Note_on_c, 0, 98, 0
2, 108240, Note_on_c, 0, 87, 0
2, 108240, Note_on_c, 0, 86, 0
2, 108240, Note_on_c, 0, 74, 0
2, 108240, Note_on_c, 0, 73, 0
2, 108480, Note_on_c, 0, 100, 100
2, 108480, Note_on_c, 0, 98, 100
2, 108480, Note_on_c, 0, 87, 100
2, 108480, Note_on_c, 0, 86, 100
2, 108480, Note_on_c, 0, 74, 100
2, 108480, Note_on_c, 0, 62, 100
2, 108480, Note_on_c, 0, 73, 100
2, 108720, Note_on_c, 0, 100, 0
2, 108720, Note_on_c, 0, 98, 0
2, 108720, Note_on_c, 0, 87, 0
2, 108720, Note_on_c, 0, 86, 0
2, 108720, Note_on_c, 0, 74, 0
2, 108720, Note_on_c, 0, 62, 0
2, 108720, Note_on_c, 0, 73, 0
2, 108720, Note_on_c, 0, 100, 100
2, 108720, Note_on_c, 0, 98, 100
2, 108720, Note_on_c, 0, 87, 100
2, 108720, Note_on_c, 0, 86, 100
2, 108720, Note_on_c, 0, 74, 100
2, 108720, Note_on_c, 0, 73, 100
2, 108960, Note_on_c, 0, 100, 0
2, 108960, Note_on_c, 0, 98, 0
2, 108960, Note_on_c, 0, 87, 0
2, 108960, Note_on_c, 0, 86, 0
2, 108960, Note_on_c, 0, 74, 0
2, 108960, Note_on_c, 0, 73, 0
2, 108960, Note_on_c, 0, 99, 100
2, 108960, Note_on_c, 0, 98, 100
2, 108960, Note_on_c, 0, 87, 100
2, 108960, Note_on_c, 0, 86, 100
2, 108960, Note_on_c, 0, 74, 100
2, 108960, Note_on_c, 0, 61, 100
2, 108960, Note_on_c, 0, 73, 100
2, 109200, Note_on_c, 0, 99, 0
2, 109200, Note_on_c, 0, 98, 0
2, 109200, Note_on_c, 0, 87, 0
2, 109200, Note_on_c, 0, 86, 0
2, 109200, Note_on_c, 0, 74, 0
2, 109200, Note_on_c, 0, 61, 0
2, 109200, Note_on_c, 0, 73, 0
2, 109440, Note_on_c, 0, 100, 100
2, 109440, Note_on_c, 0, 98, 100
2, 109440, Note_on_c, 0, 87, 100
2, 109440, Note_on_c, 0, 86, 100
2, 109440, Note_on_c, 0, 74, 100
2, 109440, Note_on_c, 0, 62, 100
2, 109440, Note_on_c, 0, 73, 100
2, 109680, Note_on_c, 0, 100, 0
2, 109680, Note_on_c, 0, 98, 0
2, 109680, Note_on_c, 0, 87, 0
2, 109680, Note_on_c, 0, 86, 0
2, 109680, Note_on_c, 0, 74, 0
2, 109680, Note_on_c, 0, 62, 0
2, 109680, Note_on_c, 0, 73, 0
2, 109920, Note_on_c, 0, 99, 100
2, 109920, Note_on_c, 0, 98, 100
2, 109920, Note_on_c, 0, 87, 100
2, 109920, Note_on_c, 0, 86, 100
2, 109920, Note_on_c, 0, 74, 100
2, 109920, Note_on_c, 0, 108, 100
2, 109920, Note_on_c, 0, 73, 100
2, 110160, Note_on_c, 0, 99, 0
2, 110160, Note_on_c, 0, 98, 0
2, 110160, Note_on_c, 0, 87, 0
2, 110160, Note_on_c, 0, 86, 0
2, 110160, Note_on_c, 0, 74, 0
2, 110160, Note_on_c, 0, 73, 0
2, 110400, Note_on_c, 0, 100, 100
2, 110400, Note_on_c, 0, 98, 100
2, 110400, Note_on_c, 0, 87, 100
2, 110400, Note_on_c, 0, 86, 100
2, 110400, Note_on_c, 0, 74, 100
2, 110400, Note_on_c, 0, 62, 100
2, 110400, Note_on_c, 0, 73, 100
2, 110640, Note_on_c, 0, 100, 0
2, 110640, Note_on_c, 0, 98, 0
2, 110640, Note_on_c, 0, 87, 0
2, 110640, Note_on_c, 0, 86, 0
2, 110640, Note_on_c, 0, 74, 0
2, 110640, Note_on_c, 0, 62, 0
2, 110640, Note_on_c, 0, 73, 0
2, 110640, Note_on_c, 0, 100, 100
2, 110640, Note_on_c, 0, 98, 100
2, 110640, Note_on_c, 0, 87, 100
2, 110640, Note_on_c, 0, 86, 100
2, 110640, Note_on_c, 0, 74, 100
2, 110640, Note_on_c, 0, 73, 100
2, 110880, Note_on_c, 0, 100, 0
2, 110880, Note_on_c, 0, 98, 0
2, 110880, Note_on_c, 0, 87, 0
2, 110880, Note_on_c, 0, 86, 0
2, 110880, Note_on_c, 0, 74, 0
2, 110880, Note_on_c, 0, 73, 0
2, 110880, Note_on_c, 0, 99, 100
2, 110880, Note_on_c, 0, 98, 100
2, 110880, Note_on_c, 0, 87, 100
2, 110880, Note_on_c, 0, 86, 100
2, 110880, Note_on_c, 0, 74, 100
2, 110880, Note_on_c, 0, 61, 100
2, 110880, Note_on_c, 0, 73, 100
2, 111120, Note_on_c, 0, 99, 0
2, 111120, Note_on_c, 0, 98, 0
2, 111120, Note_on_c, 0, 87, 0
2, 111120, Note_on_c, 0, 86, 0
2, 111120, Note_on_c, 0, 74, 0
2, 111120, Note_on_c, 0, 61, 0
2, 111120, Note_on_c, 0, 73, 0
2, 111330, Note_on_c, 0, 106, 0
2, 111330, Note_on_c, 0, 94, 0
2, 111330, Note_on_c, 0, 70, 0
2, 111330, Note_on_c, 0, 82, 0
2, 111360, Note_on_c, 0, 108, 0
2, 111600, Note_on_c, 0, 96, 100
2, 111600, Note_on_c, 0, 84, 100
2, 111600, Note_on_c, 0, 72, 100
2, 111600, Note_on_c, 0, 60, 100
2, 111840, Note_on_c, 0, 96, 0
2, 111840, Note_on_c, 0, 84, 0
2, 111840, Note_on_c, 0, 72, 0
2, 111840, Note_on_c, 0, 60, 0
2, 111840, Note_on_c, 0, 97, 100
2, 111840, Note_on_c, 0, 85, 100
2, 112080, Note_on_c, 0, 97, 0
2, 112080, Note_on_c, 0, 85, 0
2, 112080, Note_on_c, 0, 98, 100
2, 112080, Note_on_c, 0, 86, 100
2, 112320, Note_on_c, 0, 98, 0
2, 112320, Note_on_c, 0, 86, 0
2, 112320, Note_on_c, 0, 96, 100
2, 112320, Note_on_c, 0, 84, 100
2, 112320, Note_on_c, 0, 73, 100
2, 112320, Note_on_c, 0, 61, 100
2, 112560, Note_on_c, 0, 96, 0
2, 112560, Note_on_c, 0, 84, 0
2, 112560, Note_on_c, 0, 73, 0
2, 112560, Note_on_c, 0, 61, 0
2, 112560, Note_on_c, 0, 97, 100
2, 112560, Note_on_c, 0, 85, 100
2, 112800, Note_on_c, 0, 97, 0
2, 112800, Note_on_c, 0, 85, 0
2, 112800, Note_on_c, 0, 98, 100
2, 112800, Note_on_c, 0, 86, 100
2, 113040, Note_on_c, 0, 98, 0
2, 113040, Note_on_c, 0, 86, 0
2, 113040, Note_on_c, 0, 99, 100
2, 113040, Note_on_c, 0, 87, 100
2, 113040, Note_on_c, 0, 74, 100
2, 113040, Note_on_c, 0, 61, 100
2, 113760, Note_on_c, 0, 99, 0
2, 113760, Note_on_c, 0, 87, 0
2, 113760, Note_on_c, 0, 74, 0
2, 113760, Note_on_c, 0, 61, 0
2, 113760, Note_on_c, 0, 98, 100
2, 113760, Note_on_c, 0, 86, 100
2, 113760, Note_on_c, 0, 73, 100
2, 114000, Note_on_c, 0, 98, 0
2, 114000, Note_on_c, 0, 86, 0
2, 114000, Note_on_c, 0, 73, 0
2, 114000, Note_on_c, 0, 99, 100
2, 114000, Note_on_c, 0, 87, 100
2, 114000, Note_on_c, 0, 74, 100
2, 114240, Note_on_c, 0, 99, 0
2, 114240, Note_on_c, 0, 87, 0
2, 114240, Note_on_c, 0, 74, 0
2, 114240, Note_on_c, 0, 100, 100
2, 114240, Note_on_c, 0, 88, 100
2, 114240, Note_on_c, 0, 75, 100
2, 114240, Note_on_c, 0, 62, 100
2, 114400, Note_on_c, 0, 100, 0
2, 114400, Note_on_c, 0, 88, 0
2, 114400, Note_on_c, 0, 75, 0
2, 114400, Note_on_c, 0, 62, 0
2, 114400, Note_on_c, 0, 99, 100
2, 114400, Note_on_c, 0, 87, 100
2, 114560, Note_on_c, 0, 99, 0
2, 114560, Note_on_c, 0, 87, 0
2, 114560, Note_on_c, 0, 98, 100
2, 114720, Note_on_c, 0, 98, 0
2, 114720, Note_on_c, 0, 97, 100
2, 114720, Note_on_c, 0, 86, 100
2, 114720, Note_on_c, 0, 73, 100
2, 114960, Note_on_c, 0, 97, 0
2, 114960, Note_on_c, 0, 86, 0
2, 114960, Note_on_c, 0, 73, 0
2, 115170, Note_on_c, 0, 105, 0
2, 115170, Note_on_c, 0, 93, 0
2, 115170, Note_on_c, 0, 69, 0
2, 115170, Note_on_c, 0, 81, 0
2, 115650, Note_on_c, 0, 106, 100
2, 115650, Note_on_c, 0, 94, 100
2, 115650, Note_on_c, 0, 70, 100
2, 115650, Note_on_c, 0, 82, 100
2, 115680, Note_on_c, 0, 99, 100
2, 115680, Note_on_c, 0, 88, 100
2, 115680, Note_on_c, 0, 75, 100
2, 115680, Note_on_c, 0, 62, 100
2, 115800, Note_on_c, 0, 99, 0
2, 115800, Note_on_c, 0, 100, 100
2, 115920, Note_on_c, 0, 88, 0
2, 115920, Note_on_c, 0, 75, 0
2, 116040, Note_on_c, 0, 100, 0
2, 116160, Note_on_c, 0, 99, 100
2, 116160, Note_on_c, 0, 87, 100
2, 116160, Note_on_c, 0, 74, 100
2, 117120, Note_on_c, 0, 62, 0
2, 117120, Note_on_c, 0, 99, 0
2, 117120, Note_on_c, 0, 87, 0
2, 117120, Note_on_c, 0, 74, 0
2, 117120, Note_on_c, 0, 100, 100
2, 117120, Note_on_c, 0, 88, 100
2, 117120, Note_on_c, 0, 75, 100
2, 117120, Note_on_c, 0, 62, 100
2, 117280, Note_on_c, 0, 100, 0
2, 117280, Note_on_c, 0, 88, 0
2, 117280, Note_on_c, 0, 75, 0
2, 117280, Note_on_c, 0, 62, 0
2, 117280, Note_on_c, 0, 99, 100
2, 117360, Note_on_c, 0, 74, 100
2, 117440, Note_on_c, 0, 99, 0
2, 117440, Note_on_c, 0, 100, 100
2, 117440, Note_on_c, 0, 88, 100
2, 117600, Note_on_c, 0, 74, 0
2, 117600, Note_on_c, 0, 100, 0
2, 117600, Note_on_c, 0, 88, 0
2, 117600, Note_on_c, 0, 99, 100
2, 117600, Note_on_c, 0, 74, 100
2, 117760, Note_on_c, 0, 99, 0
2, 117760, Note_on_c, 0, 74, 0
2, 117760, Note_on_c, 0, 98, 100
2, 117760, Note_on_c, 0, 86, 100
2, 117920, Note_on_c, 0, 98, 0
2, 117920, Note_on_c, 0, 86, 0
2, 117920, Note_on_c, 0, 99, 100
2, 118080, Note_on_c, 0, 99, 0
2, 118080, Note_on_c, 0, 98, 100
2, 118080, Note_on_c, 0, 85, 100
2, 118080, Note_on_c, 0, 73, 100
2, 118080, Note_on_c, 0, 61, 100
2, 118240, Note_on_c, 0, 98, 0
2, 118240, Note_on_c, 0, 85, 0
2, 118240, Note_on_c, 0, 73, 0
2, 118240, Note_on_c, 0, 61, 0
2, 118240, Note_on_c, 0, 97, 100
2, 118320, Note_on_c, 0, 72, 100
2, 118400, Note_on_c, 0, 97, 0
2, 118400, Note_on_c, 0, 98, 100
2, 118400, Note_on_c, 0, 86, 100
2, 118560, Note_on_c, 0, 72, 0
2, 118560, Note_on_c, 0, 98, 0
2, 118560, Note_on_c, 0, 86, 0
2, 118560, Note_on_c, 0, 97, 100
2, 118560, Note_on_c, 0, 72, 100
2, 118720, Note_on_c, 0, 97, 0
2, 118720, Note_on_c, 0, 72, 0
2, 118720, Note_on_c, 0, 96, 100
2, 118720, Note_on_c, 0, 84, 100
2, 118880, Note_on_c, 0, 96, 0
2, 118880, Note_on_c, 0, 84, 0
2, 118880, Note_on_c, 0, 97, 100
2, 119010, Text_t, "sing_off"
2, 119040, Note_on_c, 0, 97, 0
2, 119040, Note_on_c, 0, 98, 100
2, 119040, Note_on_c, 0, 86, 100
2, 119040, Note_on_c, 0, 73, 100
2, 119040, Note_on_c, 0, 61, 100
2, 119200, Note_on_c, 0, 98, 0
2, 119200, Note_on_c, 0, 86, 0
2, 119200, Note_on_c, 0, 73, 0
2, 119200, Note_on_c, 0, 61, 0
2, 119200, Note_on_c, 0, 97, 100
2, 119360, Note_on_c, 0, 97, 0
2, 119360, Note_on_c, 0, 96, 100
2, 119360, Note_on_c, 0, 84, 100
2, 119520, Note_on_c, 0, 96, 0
2, 119520, Note_on_c, 0, 84, 0
2, 119520, Note_on_c, 0, 98, 100
2, 119520, Note_on_c, 0, 74, 100
2, 119520, Note_on_c, 0, 62, 100
2, 119680, Note_on_c, 0, 98, 0
2, 119680, Note_on_c, 0, 74, 0
2, 119680, Note_on_c, 0, 97, 100
2, 119680, Note_on_c, 0, 86, 100
2, 119760, Note_on_c, 0, 62, 0
2, 119840, Note_on_c, 0, 97, 0
2, 119840, Note_on_c, 0, 86, 0
2, 119840, Note_on_c, 0, 98, 100
2, 120000, Note_on_c, 0, 98, 0
2, 120000, Note_on_c, 0, 97, 100
2, 120000, Note_on_c, 0, 85, 100
2, 120000, Note_on_c, 0, 73, 100
2, 120000, Note_on_c, 0, 61, 100
2, 120160, Note_on_c, 0, 97, 0
2, 120160, Note_on_c, 0, 85, 0
2, 120160, Note_on_c, 0, 73, 0
2, 120160, Note_on_c, 0, 61, 0
2, 120160, Note_on_c, 0, 96, 100
2, 120320, Note_on_c, 0, 96, 0
2, 120320, Note_on_c, 0, 99, 100
2, 120320, Note_on_c, 0, 87, 100
2, 120480, Note_on_c, 0, 99, 0
2, 120480, Note_on_c, 0, 87, 0
2, 120480, Note_on_c, 0, 98, 100
2, 120480, Note_on_c, 0, 74, 100
2, 120480, Note_on_c, 0, 62, 100
2, 120640, Note_on_c, 0, 98, 0
2, 120640, Note_on_c, 0, 74, 0
2, 120640, Note_on_c, 0, 97, 100
2, 120640, Note_on_c, 0, 85, 100
2, 120720, Note_on_c, 0, 62, 0
2, 120800, Note_on_c, 0, 97, 0
2, 120800, Note_on_c, 0, 85, 0
2, 120800, Note_on_c, 0, 98, 100
2, 120960, Note_on_c, 0, 98, 0
2, 120960, Note_on_c, 0, 97, 100
2, 120960, Note_on_c, 0, 84, 100
2, 120960, Note_on_c, 0, 72, 100
2, 120960, Note_on_c, 0, 61, 100
2, 121120, Note_on_c, 0, 97, 0
2, 121120, Note_on_c, 0, 84, 0
2, 121120, Note_on_c, 0, 72, 0
2, 121120, Note_on_c, 0, 61, 0
2, 121120, Note_on_c, 0, 96, 100
2, 121280, Note_on_c, 0, 96, 0
2, 121280, Note_on_c, 0, 98, 100
2, 121280, Note_on_c, 0, 86, 100
2, 121440, Note_on_c, 0, 98, 0
2, 121440, Note_on_c, 0, 86, 0
2, 121440, Note_on_c, 0, 97, 100
2, 121440, Note_on_c, 0, 73, 100
2, 121600, Note_on_c, 0, 97, 0
2, 121600, Note_on_c, 0, 73, 0
2, 121600, Note_on_c, 0, 96, 100
2, 121600, Note_on_c, 0, 84, 100
2, 121760, Note_on_c, 0, 96, 0
2, 121760, Note_on_c, 0, 84, 0
2, 121760, Note_on_c, 0, 97, 100
2, 121890, Text_t, "drum_double"
2, 121920, Note_on_c, 0, 97, 0
2, 121920, Note_on_c, 0, 98, 100
2, 121920, Note_on_c, 0, 85, 100
2, 121920, Note_on_c, 0, 72, 100
2, 121920, Note_on_c, 0, 61, 100
2, 122080, Note_on_c, 0, 98, 0
2, 122080, Note_on_c, 0, 85, 0
2, 122080, Note_on_c, 0, 72, 0
2, 122080, Note_on_c, 0, 61, 0
2, 122080, Note_on_c, 0, 97, 100
2, 122240, Note_on_c, 0, 97, 0
2, 122240, Note_on_c, 0, 98, 100
2, 122240, Note_on_c, 0, 86, 100
2, 122400, Note_on_c, 0, 98, 0
2, 122400, Note_on_c, 0, 86, 0
2, 122400, Note_on_c, 0, 97, 100
2, 122400, Note_on_c, 0, 85, 100
2, 122400, Note_on_c, 0, 73, 100
2, 122400, Note_on_c, 0, 61, 100
2, 122640, Note_on_c, 0, 61, 0
2, 122850, Text_t, "[solo]"
2, 122850, Text_t, "solo_on"
2, 122850, Text_t, "drum_normal"
2, 122880, Note_on_c, 0, 97, 0
2, 122880, Note_on_c, 0, 85, 0
2, 122880, Note_on_c, 0, 73, 0
2, 122880, Note_on_c, 0, 96, 100
2, 122880, Note_on_c, 0, 84, 100
2, 122880, Note_on_c, 0, 72, 100
2, 122880, Note_on_c, 0, 60, 100
2, 123330, Note_on_c, 0, 106, 0
2, 123330, Note_on_c, 0, 94, 0
2, 123330, Note_on_c, 0, 70, 0
2, 123330, Note_on_c, 0, 82, 0
2, 123520, Note_on_c, 0, 96, 0
2, 123520, Note_on_c, 0, 84, 0
2, 123520, Note_on_c, 0, 72, 0
2, 123520, Note_on_c, 0, 60, 0
2, 123570, Note_on_c, 0, 105, 100
2, 123570, Note_on_c, 0, 93, 100
2, 123570, Note_on_c, 0, 69, 100
2, 123570, Note_on_c, 0, 81, 100
2, 123680, Note_on_c, 0, 96, 100
2, 123840, Note_on_c, 0, 96, 0
2, 123840, Note_on_c, 0, 97, 100
2, 123840, Note_on_c, 0, 85, 100
2, 123840, Note_on_c, 0, 72, 100
2, 123840, Note_on_c, 0, 60, 100
2, 124000, Note_on_c, 0, 97, 0
2, 124000, Note_on_c, 0, 85, 0
2, 124000, Note_on_c, 0, 72, 0
2, 124000, Note_on_c, 0, 60, 0
2, 124000, Note_on_c, 0, 98, 100
2, 124160, Note_on_c, 0, 98, 0
2, 124160, Note_on_c, 0, 99, 100
2, 124320, Note_on_c, 0, 99, 0
2, 124320, Note_on_c, 0, 97, 100
2, 124320, Note_on_c, 0, 86, 100
2, 124320, Note_on_c, 0, 73, 100
2, 124480, Note_on_c, 0, 97, 0
2, 124480, Note_on_c, 0, 86, 0
2, 124480, Note_on_c, 0, 73, 0
2, 124480, Note_on_c, 0, 98, 100
2, 124640, Note_on_c, 0, 98, 0
2, 124640, Note_on_c, 0, 99, 100
2, 124800, Note_on_c, 0, 99, 0
2, 124800, Note_on_c, 0, 97, 100
2, 124800, Note_on_c, 0, 87, 100
2, 124800, Note_on_c, 0, 74, 100
2, 124800, Note_on_c, 0, 61, 100
2, 124960, Note_on_c, 0, 97, 0
2, 124960, Note_on_c, 0, 87, 0
2, 124960, Note_on_c, 0, 74, 0
2, 124960, Note_on_c, 0, 61, 0
2, 124960, Note_on_c, 0, 98, 100
2, 125120, Note_on_c, 0, 98, 0
2, 125120, Note_on_c, 0, 99, 100
2, 125280, Note_on_c, 0, 99, 0
2, 125280, Note_on_c, 0, 100, 100
2, 125280, Note_on_c, 0, 88, 100
2, 125280, Note_on_c, 0, 75, 100
2, 125760, Note_on_c, 0, 100, 0
2, 125760, Note_on_c, 0, 88, 0
2, 125760, Note_on_c, 0, 75, 0
2, 125760, Note_on_c, 0, 100, 100
2, 125760, Note_on_c, 0, 88, 100
2, 125760, Note_on_c, 0, 75, 100
2, 125760, Note_on_c, 0, 62, 100
2, 125920, Note_on_c, 0, 100, 0
2, 125920, Note_on_c, 0, 88, 0
2, 125920, Note_on_c, 0, 75, 0
2, 125920, Note_on_c, 0, 62, 0
2, 125920, Note_on_c, 0, 98, 100
2, 126080, Note_on_c, 0, 98, 0
2, 126080, Note_on_c, 0, 99, 100
2, 126080, Note_on_c, 0, 87, 100
2, 126240, Note_on_c, 0, 99, 0
2, 126240, Note_on_c, 0, 87, 0
2, 126240, Note_on_c, 0, 75, 100
2, 126400, Note_on_c, 0, 75, 0
2, 126400, Note_on_c, 0, 100, 100
2, 126400, Note_on_c, 0, 88, 100
2, 126560, Note_on_c, 0, 100, 0
2, 126560, Note_on_c, 0, 88, 0
2, 126720, Note_on_c, 0, 87, 100
2, 126720, Note_on_c, 0, 74, 100
2, 126720, Note_on_c, 0, 61, 100
2, 126720, Note_on_c, 0, 99, 100
2, 126880, Note_on_c, 0, 87, 0
2, 126880, Note_on_c, 0, 74, 0
2, 126880, Note_on_c, 0, 61, 0
2, 126960, Note_on_c, 0, 99, 0
2, 126960, Note_on_c, 0, 98, 100
2, 127040, Note_on_c, 0, 86, 100
2, 127040, Note_on_c, 0, 73, 100
2, 127080, Note_on_c, 0, 98, 0
2, 127080, Note_on_c, 0, 97, 100
2, 127200, Note_on_c, 0, 86, 0
2, 127200, Note_on_c, 0, 73, 0
2, 127200, Note_on_c, 0, 97, 0
2, 127200, Note_on_c, 0, 87, 100
2, 127200, Note_on_c, 0, 98, 100
2, 127360, Note_on_c, 0, 87, 0
2, 127360, Note_on_c, 0, 98, 0
2, 127360, Note_on_c, 0, 86, 100
2, 127360, Note_on_c, 0, 97, 100
2, 127520, Note_on_c, 0, 86, 0
2, 127520, Note_on_c, 0, 97, 0
2, 127520, Note_on_c, 0, 98, 100
2, 127680, Note_on_c, 0, 98, 0
2, 127680, Note_on_c, 0, 86, 100
2, 127680, Note_on_c, 0, 73, 100
2, 127680, Note_on_c, 0, 97, 100
2, 127840, Note_on_c, 0, 86, 0
2, 127840, Note_on_c, 0, 73, 0
2, 127920, Note_on_c, 0, 97, 0
2, 127920, Note_on_c, 0, 100, 100
2, 128000, Note_on_c, 0, 88, 100
2, 128000, Note_on_c, 0, 75, 100
2, 128000, Note_on_c, 0, 62, 100
2, 128160, Note_on_c, 0, 100, 0
2, 128160, Note_on_c, 0, 88, 0
2, 128160, Note_on_c, 0, 75, 0
2, 128160, Note_on_c, 0, 62, 0
2, 128160, Note_on_c, 0, 87, 100
2, 128160, Note_on_c, 0, 99, 100
2, 128320, Note_on_c, 0, 87, 0
2, 128400, Note_on_c, 0, 99, 0
2, 128610, Text_t, "drum_double"
2, 128640, Note_on_c, 0, 99, 100
2, 128640, Note_on_c, 0, 86, 100
2, 128640, Note_on_c, 0, 73, 100
2, 128760, Note_on_c, 0, 99, 0
2, 128760, Note_on_c, 0, 86, 0
2, 128760, Note_on_c, 0, 73, 0
2, 128760, Note_on_c, 0, 98, 100
2, 128880, Note_on_c, 0, 98, 0
2, 128880, Note_on_c, 0, 97, 100
2, 128880, Note_on_c, 0, 87, 100
2, 129000, Note_on_c, 0, 97, 0
2, 129000, Note_on_c, 0, 87, 0
2, 129000, Note_on_c, 0, 99, 100
2, 129120, Note_on_c, 0, 99, 0
2, 129120, Note_on_c, 0, 97, 100
2, 129120, Note_on_c, 0, 85, 100
2, 129120, Note_on_c, 0, 72, 100
2, 129120, Note_on_c, 0, 60, 100
2, 129280, Note_on_c, 0, 97, 0
2, 129280, Note_on_c, 0, 85, 0
2, 129280, Note_on_c, 0, 72, 0
2, 129280, Note_on_c, 0, 60, 0
2, 129360, Note_on_c, 0, 100, 100
2, 129440, Note_on_c, 0, 88, 100
2, 129560, Note_on_c, 0, 88, 0
2, 129600, Note_on_c, 0, 100, 0
2, 129600, Note_on_c, 0, 99, 100
2, 129600, Note_on_c, 0, 87, 100
2, 129600, Note_on_c, 0, 74, 100
2, 129600, Note_on_c, 0, 62, 100
2, 130240, Note_on_c, 0, 99, 0
2, 130240, Note_on_c, 0, 87, 0
2, 130240, Note_on_c, 0, 74, 0
2, 130240, Note_on_c, 0, 62, 0
2, 130240, Note_on_c, 0, 98, 100
2, 130240, Note_on_c, 0, 86, 100
2, 130240, Note_on_c, 0, 73, 100
2, 130400, Note_on_c, 0, 98, 0
2, 130400, Note_on_c, 0, 86, 0
2, 130400, Note_on_c, 0, 73, 0
2, 130400, Note_on_c, 0, 97, 100
2, 130530, Text_t, "drum_normal"
2, 130530, Note_on_c, 0, 103, 100
2, 130530, Note_on_c, 0, 91, 100
2, 130530, Note_on_c, 0, 79, 100
2, 130530, Note_on_c, 0, 67, 100
2, 130530, Note_on_c, 0, 70, 100
2, 130530, Note_on_c, 0, 106, 100
2, 130530, Note_on_c, 0, 94, 100
2, 130530, Note_on_c, 0, 82, 100
2, 130560, Note_on_c, 0, 97, 0
2, 130560, Note_on_c, 0, 96, 100
2, 130560, Note_on_c, 0, 84, 100
2, 130560, Note_on_c, 0, 72, 100
2, 130560, Note_on_c, 0, 60, 100
2, 130800, Note_on_c, 0, 60, 0
2, 131040, Note_on_c, 0, 96, 0
2, 131040, Note_on_c, 0, 84, 0
2, 131040, Note_on_c, 0, 72, 0
2, 131040, Note_on_c, 0, 96, 100
2, 131040, Note_on_c, 0, 84, 100
2, 131040, Note_on_c, 0, 72, 100
2, 131520, Note_on_c, 0, 96, 0
2, 131520, Note_on_c, 0, 84, 0
2, 131520, Note_on_c, 0, 72, 0
2, 131520, Note_on_c, 0, 96, 100
2, 131520, Note_on_c, 0, 84, 100
2, 131520, Note_on_c, 0, 72, 100
2, 131520, Note_on_c, 0, 60, 100
2, 131760, Note_on_c, 0, 60, 0
2, 132000, Note_on_c, 0, 96, 0
2, 132000, Note_on_c, 0, 84, 0
2, 132000, Note_on_c, 0, 72, 0
2, 132000, Note_on_c, 0, 96, 100
2, 132000, Note_on_c, 0, 84, 100
2, 132000, Note_on_c, 0, 72, 100
2, 132480, Note_on_c, 0, 96, 0
2, 132480, Note_on_c, 0, 84, 0
2, 132480, Note_on_c, 0, 72, 0
2, 132480, Note_on_c, 0, 99, 100
2, 132480, Note_on_c, 0, 86, 100
2, 132480, Note_on_c, 0, 73, 100
2, 132480, Note_on_c, 0, 61, 100
2, 133200, Note_on_c, 0, 99, 0
2, 133200, Note_on_c, 0, 86, 0
2, 133200, Note_on_c, 0, 73, 0
2, 133200, Note_on_c, 0, 99, 100
2, 133200, Note_on_c, 0, 86, 100
2, 133200, Note_on_c, 0, 73, 100
2, 133680, Note_on_c, 0, 61, 0
2, 133920, Note_on_c, 0, 99, 0
2, 133920, Note_on_c, 0, 86, 0
2, 133920, Note_on_c, 0, 73, 0
2, 133920, Note_on_c, 0, 100, 100
2, 133920, Note_on_c, 0, 87, 100
2, 133920, Note_on_c, 0, 74, 100
2, 133920, Note_on_c, 0, 62, 100
2, 134130, Note_on_c, 0, 103, 0
2, 134130, Note_on_c, 0, 91, 0
2, 134130, Note_on_c, 0, 79, 0
2, 134130, Note_on_c, 0, 67, 0
2, 134160, Note_on_c, 0, 100, 0
2, 134160, Note_on_c, 0, 87, 0
2, 134160, Note_on_c, 0, 74, 0
2, 134160, Note_on_c, 0, 62, 0
2, 134370, Note_on_c, 0, 105, 0
2, 134370, Note_on_c, 0, 93, 0
2, 134370, Note_on_c, 0, 69, 0
2, 134370, Note_on_c, 0, 81, 0
2, 134400, Note_on_c, 0, 96, 100
2, 134400, Note_on_c, 0, 84, 100
2, 134400, Note_on_c, 0, 72, 100
2, 134640, Note_on_c, 0, 96, 0
2, 134640, Note_on_c, 0, 84, 0
2, 134640, Note_on_c, 0, 72, 0
2, 134880, Note_on_c, 0, 99, 100
2, 134880, Note_on_c, 0, 98, 100
2, 134880, Note_on_c, 0, 86, 100
2, 134880, Note_on_c, 0, 74, 100
2, 134880, Note_on_c, 0, 61, 100
2, 135120, Note_on_c, 0, 99, 0
2, 135120, Note_on_c, 0, 98, 0
2, 135120, Note_on_c, 0, 86, 0
2, 135120, Note_on_c, 0, 74, 0
2, 135120, Note_on_c, 0, 61, 0
2, 135360, Note_on_c, 0, 99, 100
2, 135360, Note_on_c, 0, 98, 100
2, 135360, Note_on_c, 0, 86, 100
2, 135360, Note_on_c, 0, 74, 100
2, 135360, Note_on_c, 0, 61, 100
2, 135600, Note_on_c, 0, 99, 0
2, 135600, Note_on_c, 0, 98, 0
2, 135600, Note_on_c, 0, 86, 0
2, 135600, Note_on_c, 0, 74, 0
2, 135600, Note_on_c, 0, 61, 0
2, 135600, Note_on_c, 0, 99, 100
2, 135600, Note_on_c, 0, 98, 100
2, 135600, Note_on_c, 0, 86, 100
2, 135600, Note_on_c, 0, 74, 100
2, 135840, Note_on_c, 0, 99, 0
2, 135840, Note_on_c, 0, 98, 0
2, 135840, Note_on_c, 0, 86, 0
2, 135840, Note_on_c, 0, 74, 0
2, 135840, Note_on_c, 0, 97, 100
2, 135840, Note_on_c, 0, 85, 100
2, 135840, Note_on_c, 0, 73, 100
2, 136080, Note_on_c, 0, 97, 0
2, 136080, Note_on_c, 0, 85, 0
2, 136080, Note_on_c, 0, 73, 0
2, 136080, Note_on_c, 0, 98, 100
2, 136080, Note_on_c, 0, 86, 100
2, 136080, Note_on_c, 0, 74, 100
2, 136290, Text_t, "drum_double"
2, 136320, Note_on_c, 0, 98, 0
2, 136320, Note_on_c, 0, 86, 0
2, 136320, Note_on_c, 0, 74, 0
2, 136560, Note_on_c, 0, 96, 100
2, 136560, Note_on_c, 0, 84, 100
2, 136560, Note_on_c, 0, 72, 100
2, 136560, Note_on_c, 0, 60, 100
2, 136800, Note_on_c, 0, 96, 0
2, 136800, Note_on_c, 0, 84, 0
2, 136800, Note_on_c, 0, 72, 0
2, 136800, Note_on_c, 0, 60, 0
2, 136800, Note_on_c, 0, 97, 100
2, 136800, Note_on_c, 0, 85, 100
2, 136800, Note_on_c, 0, 73, 100
2, 137040, Note_on_c, 0, 97, 0
2, 137040, Note_on_c, 0, 85, 0
2, 137040, Note_on_c, 0, 73, 0
2, 137040, Note_on_c, 0, 98, 100
2, 137040, Note_on_c, 0, 86, 100
2, 137280, Note_on_c, 0, 98, 0
2, 137280, Note_on_c, 0, 86, 0
2, 137280, Note_on_c, 0, 99, 100
2, 137280, Note_on_c, 0, 87, 100
2, 137280, Note_on_c, 0, 74, 100
2, 137280, Note_on_c, 0, 62, 100
2, 138000, Note_on_c, 0, 62, 0
2, 138210, Text_t, "drum_normal"
2, 138210, Note_on_c, 0, 70, 0
2, 138210, Note_on_c, 0, 106, 0
2, 138210, Note_on_c, 0, 94, 0
2, 138210, Note_on_c, 0, 82, 0
2, 138210, Note_on_c, 0, 105, 100
2, 138210, Note_on_c, 0, 93, 100
2, 138210, Note_on_c, 0, 69, 100
2, 138210, Note_on_c, 0, 81, 100
2, 138240, Note_on_c, 0, 99, 0
2, 138240, Note_on_c, 0, 87, 0
2, 138240, Note_on_c, 0, 74, 0
2, 138240, Note_on_c, 0, 85, 100
2, 138240, Note_on_c, 0, 73, 100
2, 138240, Note_on_c, 0, 60, 100
2, 138240, Note_on_c, 0, 97, 100
2, 138720, Note_on_c, 0, 85, 0
2, 138720, Note_on_c, 0, 73, 0
2, 138720, Note_on_c, 0, 60, 0
2, 138720, Note_on_c, 0, 97, 0
2, 138720, Note_on_c, 0, 87, 100
2, 138720, Note_on_c, 0, 74, 100
2, 138720, Note_on_c, 0, 98, 100
2, 138960, Note_on_c, 0, 87, 0
2, 138960, Note_on_c, 0, 74, 0
2, 138960, Note_on_c, 0, 98, 0
2, 138960, Note_on_c, 0, 86, 100
2, 138960, Note_on_c, 0, 97, 100
2, 139200, Note_on_c, 0, 86, 0
2, 139200, Note_on_c, 0, 97, 0
2, 139200, Note_on_c, 0, 87, 100
2, 139200, Note_on_c, 0, 74, 100
2, 139200, Note_on_c, 0, 61, 100
2, 139200, Note_on_c, 0, 98, 100
2, 139440, Note_on_c, 0, 87, 0
2, 139440, Note_on_c, 0, 74, 0
2, 139440, Note_on_c, 0, 61, 0
2, 139440, Note_on_c, 0, 98, 0
2, 139440, Note_on_c, 0, 86, 100
2, 139440, Note_on_c, 0, 97, 100
2, 139680, Note_on_c, 0, 86, 0
2, 139680, Note_on_c, 0, 97, 0
2, 139680, Note_on_c, 0, 87, 100
2, 139680, Note_on_c, 0, 74, 100
2, 139680, Note_on_c, 0, 98, 100
2, 139920, Note_on_c, 0, 87, 0
2, 139920, Note_on_c, 0, 74, 0
2, 139920, Note_on_c, 0, 98, 0
2, 139920, Note_on_c, 0, 86, 100
2, 139920, Note_on_c, 0, 97, 100
2, 140160, Note_on_c, 0, 86, 0
2, 140160, Note_on_c, 0, 97, 0
2, 140160, Note_on_c, 0, 87, 100
2, 140160, Note_on_c, 0, 74, 100
2, 140160, Note_on_c, 0, 61, 100
2, 140160, Note_on_c, 0, 98, 100
2, 140400, Note_on_c, 0, 87, 0
2, 140400, Note_on_c, 0, 74, 0
2, 140400, Note_on_c, 0, 61, 0
2, 140400, Note_on_c, 0, 98, 0
2, 140400, Note_on_c, 0, 86, 100
2, 140400, Note_on_c, 0, 97, 100
2, 140610, Note_on_c, 0, 105, 0
2, 140610, Note_on_c, 0, 93, 0
2, 140610, Note_on_c, 0, 69, 0
2, 140610, Note_on_c, 0, 81, 0
2, 140610, Note_on_c, 0, 106, 100
2, 140610, Note_on_c, 0, 94, 100
2, 140610, Note_on_c, 0, 70, 100
2, 140610, Note_on_c, 0, 82, 100
2, 140640, Note_on_c, 0, 86, 0
2, 140640, Note_on_c, 0, 97, 0
2, 140640, Note_on_c, 0, 88, 100
2, 140640, Note_on_c, 0, 75, 100
2, 140640, Note_on_c, 0, 99, 100
2, 140880, Note_on_c, 0, 88, 0
2, 140880, Note_on_c, 0, 75, 0
2, 140880, Note_on_c, 0, 99, 0
2, 140880, Note_on_c, 0, 87, 100
2, 140880, Note_on_c, 0, 98, 100
2, 141120, Note_on_c, 0, 87, 0
2, 141120, Note_on_c, 0, 98, 0
2, 141120, Note_on_c, 0, 88, 100
2, 141120, Note_on_c, 0, 75, 100
2, 141120, Note_on_c, 0, 62, 100
2, 141120, Note_on_c, 0, 99, 100
2, 141360, Note_on_c, 0, 88, 0
2, 141360, Note_on_c, 0, 75, 0
2, 141360, Note_on_c, 0, 62, 0
2, 141360, Note_on_c, 0, 99, 0
2, 141360, Note_on_c, 0, 100, 100
2, 141600, Note_on_c, 0, 100, 0
2, 141600, Note_on_c, 0, 100, 100
2, 141600, Note_on_c, 0, 88, 100
2, 141600, Note_on_c, 0, 75, 100
2, 141600, Note_on_c, 0, 62, 100
2, 141840, Note_on_c, 0, 100, 0
2, 141840, Note_on_c, 0, 88, 0
2, 141840, Note_on_c, 0, 75, 0
2, 141840, Note_on_c, 0, 62, 0
2, 141840, Note_on_c, 0, 99, 100
2, 141840, Note_on_c, 0, 87, 100
2, 142080, Note_on_c, 0, 99, 0
2, 142080, Note_on_c, 0, 87, 0
2, 142080, Note_on_c, 0, 100, 100
2, 142080, Note_on_c, 0, 88, 100
2, 142080, Note_on_c, 0, 75, 100
2, 142080, Note_on_c, 0, 62, 100
2, 142320, Note_on_c, 0, 100, 0
2, 142320, Note_on_c, 0, 88, 0
2, 142320, Note_on_c, 0, 75, 0
2, 142320, Note_on_c, 0, 62, 0
2, 142320, Note_on_c, 0, 99, 100
2, 142560, Note_on_c, 0, 99, 0
2, 142560, Note_on_c, 0, 100, 100
2, 142560, Note_on_c, 0, 88, 100
2, 142560, Note_on_c, 0, 75, 100
2, 142560, Note_on_c, 0, 62, 100
2, 142800, Note_on_c, 0, 100, 0
2, 142800, Note_on_c, 0, 88, 0
2, 142800, Note_on_c, 0, 75, 0
2, 142800, Note_on_c, 0, 62, 0
2, 142800, Note_on_c, 0, 99, 100
2, 143040, Note_on_c, 0, 99, 0
2, 143040, Note_on_c, 0, 100, 100
2, 143040, Note_on_c, 0, 88, 100
2, 143040, Note_on_c, 0, 75, 100
2, 143040, Note_on_c, 0, 62, 100
2, 143280, Note_on_c, 0, 100, 0
2, 143280, Note_on_c, 0, 88, 0
2, 143280, Note_on_c, 0, 75, 0
2, 143280, Note_on_c, 0, 62, 0
2, 143280, Note_on_c, 0, 99, 100
2, 143520, Note_on_c, 0, 99, 0
2, 143520, Note_on_c, 0, 100, 100
2, 143520, Note_on_c, 0, 88, 100
2, 143520, Note_on_c, 0, 75, 100
2, 143520, Note_on_c, 0, 62, 100
2, 143760, Note_on_c, 0, 100, 0
2, 143760, Note_on_c, 0, 88, 0
2, 143760, Note_on_c, 0, 75, 0
2, 143760, Note_on_c, 0, 62, 0
2, 143760, Note_on_c, 0, 99, 100
2, 143970, Text_t, "drum_double"
2, 144000, Note_on_c, 0, 99, 0
2, 144000, Note_on_c, 0, 100, 100
2, 144000, Note_on_c, 0, 88, 100
2, 144000, Note_on_c, 0, 75, 100
2, 144000, Note_on_c, 0, 62, 100
2, 144240, Note_on_c, 0, 100, 0
2, 144240, Note_on_c, 0, 88, 0
2, 144240, Note_on_c, 0, 75, 0
2, 144240, Note_on_c, 0, 62, 0
2, 144240, Note_on_c, 0, 99, 100
2, 144480, Note_on_c, 0, 99, 0
2, 144480, Note_on_c, 0, 100, 100
2, 144480, Note_on_c, 0, 88, 100
2, 144480, Note_on_c, 0, 75, 100
2, 144480, Note_on_c, 0, 62, 100
2, 144720, Note_on_c, 0, 100, 0
2, 144720, Note_on_c, 0, 88, 0
2, 144720, Note_on_c, 0, 75, 0
2, 144720, Note_on_c, 0, 62, 0
2, 144720, Note_on_c, 0, 99, 100
2, 144960, Note_on_c, 0, 99, 0
2, 144960, Note_on_c, 0, 100, 100
2, 144960, Note_on_c, 0, 88, 100
2, 144960, Note_on_c, 0, 75, 100
2, 144960, Note_on_c, 0, 62, 100
2, 145200, Note_on_c, 0, 100, 0
2, 145200, Note_on_c, 0, 88, 0
2, 145200, Note_on_c, 0, 75, 0
2, 145200, Note_on_c, 0, 62, 0
2, 145200, Note_on_c, 0, 99, 100
2, 145440, Note_on_c, 0, 99, 0
2, 145440, Note_on_c, 0, 100, 100
2, 145440, Note_on_c, 0, 88, 100
2, 145440, Note_on_c, 0, 75, 100
2, 145440, Note_on_c, 0, 62, 100
2, 145680, Note_on_c, 0, 100, 0
2, 145680, Note_on_c, 0, 88, 0
2, 145680, Note_on_c, 0, 75, 0
2, 145680, Note_on_c, 0, 62, 0
2, 145680, Note_on_c, 0, 99, 100
2, 145890, Text_t, "drum_normal"
2, 145890, Note_on_c, 0, 69, 100
2, 145890, Note_on_c, 0, 105, 100
2, 145890, Note_on_c, 0, 93, 100
2, 145890, Note_on_c, 0, 81, 100
2, 145920, Note_on_c, 0, 99, 0
2, 145920, Note_on_c, 0, 99, 100
2, 145920, Note_on_c, 0, 87, 100
2, 145920, Note_on_c, 0, 74, 100
2, 145920, Note_on_c, 0, 61, 100
2, 145920, Note_on_c, 0, 108, 100
2, 147120, Note_on_c, 0, 108, 0
2, 147360, Note_on_c, 0, 108, 100
2, 147840, Note_on_c, 0, 61, 0
2, 147840, Note_on_c, 0, 108, 0
2, 148080, Note_on_c, 0, 99, 0
2, 148080, Note_on_c, 0, 87, 0
2, 148080, Note_on_c, 0, 74, 0
2, 148080, Note_on_c, 0, 87, 100
2, 148080, Note_on_c, 0, 75, 100
2, 148080, Note_on_c, 0, 62, 100
2, 148080, Note_on_c, 0, 100, 100
2, 148320, Note_on_c, 0, 87, 0
2, 148320, Note_on_c, 0, 75, 0
2, 148320, Note_on_c, 0, 62, 0
2, 148320, Note_on_c, 0, 100, 0
2, 148320, Note_on_c, 0, 86, 100
2, 148320, Note_on_c, 0, 99, 100
2, 148480, Note_on_c, 0, 99, 0
2, 148480, Note_on_c, 0, 98, 100
2, 148560, Note_on_c, 0, 86, 0
2, 148560, Note_on_c, 0, 85, 100
2, 148560, Note_on_c, 0, 73, 100
2, 148640, Note_on_c, 0, 98, 0
2, 148640, Note_on_c, 0, 97, 100
2, 148800, Note_on_c, 0, 85, 0
2, 148800, Note_on_c, 0, 73, 0
2, 148800, Note_on_c, 0, 97, 0
2, 148800, Note_on_c, 0, 84, 100
2, 148800, Note_on_c, 0, 98, 100
2, 149040, Note_on_c, 0, 84, 0
2, 149040, Note_on_c, 0, 98, 0
2, 149040, Note_on_c, 0, 87, 100
2, 149040, Note_on_c, 0, 74, 100
2, 149040, Note_on_c, 0, 61, 100
2, 149040, Note_on_c, 0, 99, 100
2, 149280, Note_on_c, 0, 87, 0
2, 149280, Note_on_c, 0, 74, 0
2, 149280, Note_on_c, 0, 61, 0
2, 149280, Note_on_c, 0, 99, 0
2, 149280, Note_on_c, 0, 86, 100
2, 149280, Note_on_c, 0, 108, 100
2, 149280, Note_on_c, 0, 98, 100
2, 149520, Note_on_c, 0, 86, 0
2, 149520, Note_on_c, 0, 108, 0
2, 149520, Note_on_c, 0, 98, 0
2, 149520, Note_on_c, 0, 85, 100
2, 149520, Note_on_c, 0, 73, 100
2, 149520, Note_on_c, 0, 97, 100
2, 149730, Text_t, "drum_allbeat"
2, 149760, Note_on_c, 0, 85, 0
2, 149760, Note_on_c, 0, 73, 0
2, 149760, Note_on_c, 0, 97, 0
2, 149760, Note_on_c, 0, 96, 100
2, 149760, Note_on_c, 0, 84, 100
2, 149760, Note_on_c, 0, 72, 100
2, 149760, Note_on_c, 0, 60, 100
2, 149760, Note_on_c, 0, 108, 100
2, 150000, Note_on_c, 0, 108, 0
2, 150240, Note_on_c, 0, 108, 100
2, 150600, Note_on_c, 0, 108, 0
2, 150720, Note_on_c, 0, 108, 100
2, 150960, Note_on_c, 0, 108, 0
2, 151200, Note_on_c, 0, 108, 100
2, 151320, Note_on_c, 0, 108, 0
2, 151440, Note_on_c, 0, 108, 100
2, 151650, Note_on_c, 0, 106, 0
2, 151650, Note_on_c, 0, 94, 0
2, 151650, Note_on_c, 0, 70, 0
2, 151650, Note_on_c, 0, 82, 0
2, 151650, Note_on_c, 0, 69, 0
2, 151650, Note_on_c, 0, 105, 0
2, 151650, Note_on_c, 0, 93, 0
2, 151650, Note_on_c, 0, 81, 0
2, 151680, Note_on_c, 0, 96, 0
2, 151680, Note_on_c, 0, 84, 0
2, 151680, Note_on_c, 0, 72, 0
2, 151680, Note_on_c, 0, 60, 0
2, 151800, Note_on_c, 0, 108, 0
2, 152160, Note_on_c, 0, 108, 100
2, 152400, Note_on_c, 0, 108, 0
2, 152640, Note_on_c, 0, 108, 100
2, 152880, Note_on_c, 0, 108, 0
2, 153120, Note_on_c, 0, 108, 100
2, 153360, Note_on_c, 0, 108, 0
2, 153570, Text_t, "solo_off"
2, 153570, Text_t, "[chorus]"
2, 153570, Text_t, "sing_on"
2, 153570, Text_t, "drum_normal"
2, 153600, Note_on_c, 0, 108, 100
2, 153720, Note_on_c, 0, 108, 0
2, 153810, Note_on_c, 0, 105, 100
2, 153810, Note_on_c, 0, 93, 100
2, 153810, Note_on_c, 0, 69, 100
2, 153810, Note_on_c, 0, 81, 100
2, 153840, Note_on_c, 0, 87, 100
2, 153840, Note_on_c, 0, 75, 100
2, 153840, Note_on_c, 0, 62, 100
2, 153840, Note_on_c, 0, 108, 100
2, 153840, Note_on_c, 0, 100, 100
2, 154080, Note_on_c, 0, 87, 0
2, 154080, Note_on_c, 0, 75, 0
2, 154080, Note_on_c, 0, 62, 0
2, 154080, Note_on_c, 0, 108, 0
2, 154080, Note_on_c, 0, 100, 0
2, 154080, Note_on_c, 0, 99, 100
2, 154320, Note_on_c, 0, 99, 0
2, 154320, Note_on_c, 0, 98, 100
2, 154400, Note_on_c, 0, 86, 100
2, 154560, Note_on_c, 0, 98, 0
2, 154560, Note_on_c, 0, 86, 0
2, 154560, Note_on_c, 0, 87, 100
2, 154560, Note_on_c, 0, 74, 100
2, 154560, Note_on_c, 0, 61, 100
2, 154560, Note_on_c, 0, 99, 100
2, 154800, Note_on_c, 0, 87, 0
2, 154800, Note_on_c, 0, 74, 0
2, 154800, Note_on_c, 0, 61, 0
2, 154800, Note_on_c, 0, 99, 0
2, 154800, Note_on_c, 0, 86, 100
2, 154800, Note_on_c, 0, 98, 100
2, 155040, Note_on_c, 0, 86, 0
2, 155040, Note_on_c, 0, 98, 0
2, 155040, Note_on_c, 0, 85, 100
2, 155040, Note_on_c, 0, 73, 100
2, 155040, Note_on_c, 0, 97, 100
2, 155280, Note_on_c, 0, 85, 0
2, 155280, Note_on_c, 0, 73, 0
2, 155280, Note_on_c, 0, 97, 0
2, 155280, Note_on_c, 0, 84, 100
2, 155280, Note_on_c, 0, 96, 100
2, 155520, Note_on_c, 0, 84, 0
2, 155520, Note_on_c, 0, 96, 0
2, 155520, Note_on_c, 0, 86, 100
2, 155520, Note_on_c, 0, 74, 100
2, 155520, Note_on_c, 0, 60, 100
2, 155520, Note_on_c, 0, 98, 100
2, 155760, Note_on_c, 0, 86, 0
2, 155760, Note_on_c, 0, 74, 0
2, 155760, Note_on_c, 0, 60, 0
2, 155760, Note_on_c, 0, 98, 0
2, 155760, Note_on_c, 0, 85, 100
2, 155760, Note_on_c, 0, 97, 100
2, 156000, Note_on_c, 0, 85, 0
2, 156000, Note_on_c, 0, 97, 0
2, 156000, Note_on_c, 0, 86, 100
2, 156000, Note_on_c, 0, 74, 100
2, 156000, Note_on_c, 0, 108, 100
2, 156000, Note_on_c, 0, 98, 100
2, 156000, Note_on_c, 0, 61, 100
2, 156120, Note_on_c, 0, 86, 0
2, 156120, Note_on_c, 0, 74, 0
2, 156120, Note_on_c, 0, 98, 0
2, 156120, Note_on_c, 0, 99, 100
2, 156240, Note_on_c, 0, 61, 0
2, 156360, Note_on_c, 0, 99, 0
2, 156480, Note_on_c, 0, 86, 100
2, 156480, Note_on_c, 0, 73, 100
2, 156480, Note_on_c, 0, 99, 100
2, 156720, Note_on_c, 0, 86, 0
2, 156720, Note_on_c, 0, 73, 0
2, 156720, Note_on_c, 0, 99, 0
2, 156720, Note_on_c, 0, 85, 100
2, 156720, Note_on_c, 0, 98, 100
2, 156960, Note_on_c, 0, 85, 0
2, 156960, Note_on_c, 0, 98, 0
2, 156960, Note_on_c, 0, 84, 100
2, 156960, Note_on_c, 0, 72, 100
2, 156960, Note_on_c, 0, 60, 100
2, 156960, Note_on_c, 0, 97, 100
2, 157200, Note_on_c, 0, 84, 0
2, 157200, Note_on_c, 0, 72, 0
2, 157200, Note_on_c, 0, 60, 0
2, 157200, Note_on_c, 0, 97, 0
2, 157200, Note_on_c, 0, 96, 100
2, 157440, Note_on_c, 0, 108, 0
2, 157440, Note_on_c, 0, 96, 0
2, 157440, Note_on_c, 0, 98, 100
2, 157440, Note_on_c, 0, 86, 100
2, 157440, Note_on_c, 0, 73, 100
2, 157680, Note_on_c, 0, 98, 0
2, 157680, Note_on_c, 0, 86, 0
2, 157680, Note_on_c, 0, 73, 0
2, 157680, Note_on_c, 0, 97, 100
2, 157680, Note_on_c, 0, 85, 100
2, 157920, Note_on_c, 0, 97, 0
2, 157920, Note_on_c, 0, 85, 0
2, 157920, Note_on_c, 0, 99, 100
2, 157920, Note_on_c, 0, 87, 100
2, 157920, Note_on_c, 0, 74, 100
2, 157920, Note_on_c, 0, 62, 100
2, 158130, Note_on_c, 0, 105, 0
2, 158130, Note_on_c, 0, 93, 0
2, 158130, Note_on_c, 0, 69, 0
2, 158130, Note_on_c, 0, 81, 0
2, 158130, Note_on_c, 0, 106, 100
2, 158130, Note_on_c, 0, 94, 100
2, 158130, Note_on_c, 0, 70, 100
2, 158130, Note_on_c, 0, 82, 100
2, 158160, Note_on_c, 0, 99, 0
2, 158160, Note_on_c, 0, 87, 0
2, 158160, Note_on_c, 0, 74, 0
2, 158160, Note_on_c, 0, 62, 0
2, 158160, Note_on_c, 0, 96, 100
2, 158400, Note_on_c, 0, 96, 0
2, 158400, Note_on_c, 0, 97, 100
2, 158400, Note_on_c, 0, 84, 100
2, 158400, Note_on_c, 0, 73, 100
2, 158400, Note_on_c, 0, 61, 100
2, 158640, Note_on_c, 0, 97, 0
2, 158640, Note_on_c, 0, 84, 0
2, 158640, Note_on_c, 0, 73, 0
2, 158640, Note_on_c, 0, 61, 0
2, 158640, Note_on_c, 0, 98, 100
2, 158640, Note_on_c, 0, 85, 100
2, 158880, Note_on_c, 0, 98, 0
2, 158880, Note_on_c, 0, 85, 0
2, 158880, Note_on_c, 0, 99, 100
2, 158880, Note_on_c, 0, 86, 100
2, 158880, Note_on_c, 0, 74, 100
2, 159120, Note_on_c, 0, 99, 0
2, 159120, Note_on_c, 0, 86, 0
2, 159120, Note_on_c, 0, 74, 0
2, 159120, Note_on_c, 0, 100, 100
2, 159120, Note_on_c, 0, 87, 100
2, 159120, Note_on_c, 0, 75, 100
2, 159120, Note_on_c, 0, 62, 100
2, 159360, Note_on_c, 0, 100, 0
2, 159360, Note_on_c, 0, 87, 0
2, 159360, Note_on_c, 0, 75, 0
2, 159360, Note_on_c, 0, 62, 0
2, 159600, Note_on_c, 0, 98, 100
2, 159600, Note_on_c, 0, 86, 100
2, 159600, Note_on_c, 0, 74, 100
2, 159840, Note_on_c, 0, 98, 0
2, 159840, Note_on_c, 0, 86, 0
2, 159840, Note_on_c, 0, 74, 0
2, 159840, Note_on_c, 0, 99, 100
2, 159840, Note_on_c, 0, 87, 100
2, 159840, Note_on_c, 0, 75, 100
2, 159840, Note_on_c, 0, 62, 100
2, 160080, Note_on_c, 0, 99, 0
2, 160080, Note_on_c, 0, 87, 0
2, 160080, Note_on_c, 0, 75, 0
2, 160080, Note_on_c, 0, 62, 0
2, 160080, Note_on_c, 0, 100, 100
2, 160080, Note_on_c, 0, 88, 100
2, 160320, Note_on_c, 0, 100, 0
2, 160320, Note_on_c, 0, 88, 0
2, 160320, Note_on_c, 0, 99, 100
2, 160320, Note_on_c, 0, 87, 100
2, 160530, Note_on_c, 0, 103, 100
2, 160530, Note_on_c, 0, 91, 100
2, 160530, Note_on_c, 0, 79, 100
2, 160530, Note_on_c, 0, 67, 100
2, 160560, Note_on_c, 0, 99, 0
2, 160560, Note_on_c, 0, 87, 0
2, 160560, Note_on_c, 0, 98, 100
2, 160560, Note_on_c, 0, 86, 100
2, 160560, Note_on_c, 0, 74, 100
2, 160560, Note_on_c, 0, 61, 100
2, 160800, Note_on_c, 0, 98, 0
2, 160800, Note_on_c, 0, 86, 0
2, 160800, Note_on_c, 0, 74, 0
2, 160800, Note_on_c, 0, 61, 0
2, 160800, Note_on_c, 0, 97, 100
2, 160800, Note_on_c, 0, 85, 100
2, 160800, Note_on_c, 0, 73, 100
2, 161040, Note_on_c, 0, 97, 0
2, 161040, Note_on_c, 0, 85, 0
2, 161040, Note_on_c, 0, 73, 0
2, 161040, Note_on_c, 0, 96, 100
2, 161280, Note_on_c, 0, 96, 0
2, 161280, Note_on_c, 0, 86, 100
2, 161280, Note_on_c, 0, 74, 100
2, 161280, Note_on_c, 0, 61, 100
2, 161280, Note_on_c, 0, 108, 100
2, 161280, Note_on_c, 0, 98, 100
2, 162480, Note_on_c, 0, 108, 0
2, 162720, Note_on_c, 0, 108, 100
2, 163170, Note_on_c, 0, 106, 0
2, 163170, Note_on_c, 0, 94, 0
2, 163170, Note_on_c, 0, 70, 0
2, 163170, Note_on_c, 0, 82, 0
2, 163170, Note_on_c, 0, 103, 0
2, 163170, Note_on_c, 0, 91, 0
2, 163170, Note_on_c, 0, 79, 0
2, 163170, Note_on_c, 0, 67, 0
2, 163200, Note_on_c, 0, 86, 0
2, 163200, Note_on_c, 0, 74, 0
2, 163200, Note_on_c, 0, 61, 0
2, 163200, Note_on_c, 0, 98, 0
2, 163410, Note_on_c, 0, 105, 100
2, 163410, Note_on_c, 0, 93, 100
2, 163410, Note_on_c, 0, 69, 100
2, 163410, Note_on_c, 0, 81, 100
2, 163440, Note_on_c, 0, 100, 100
2, 163440, Note_on_c, 0, 88, 100
2, 163440, Note_on_c, 0, 74, 100
2, 163440, Note_on_c, 0, 62, 100
2, 163560, Note_on_c, 0, 108, 0
2, 163680, Note_on_c, 0, 100, 0
2, 163680, Note_on_c, 0, 88, 0
2, 163680, Note_on_c, 0, 74, 0
2, 163680, Note_on_c, 0, 62, 0
2, 163680, Note_on_c, 0, 99, 100
2, 163680, Note_on_c, 0, 87, 100
2, 163840, Note_on_c, 0, 99, 0
2, 163840, Note_on_c, 0, 87, 0
2, 163840, Note_on_c, 0, 98, 100
2, 164000, Note_on_c, 0, 98, 0
2, 164000, Note_on_c, 0, 97, 100
2, 164160, Note_on_c, 0, 97, 0
2, 164160, Note_on_c, 0, 98, 100
2, 164160, Note_on_c, 0, 86, 100
2, 164400, Note_on_c, 0, 98, 0
2, 164400, Note_on_c, 0, 86, 0
2, 164400, Note_on_c, 0, 99, 100
2, 164400, Note_on_c, 0, 87, 100
2, 164400, Note_on_c, 0, 73, 100
2, 164400, Note_on_c, 0, 61, 100
2, 164640, Note_on_c, 0, 99, 0
2, 164640, Note_on_c, 0, 87, 0
2, 164640, Note_on_c, 0, 73, 0
2, 164640, Note_on_c, 0, 61, 0
2, 164640, Note_on_c, 0, 98, 100
2, 164640, Note_on_c, 0, 86, 100
2, 164880, Note_on_c, 0, 98, 0
2, 164880, Note_on_c, 0, 86, 0
2, 164880, Note_on_c, 0, 97, 100
2, 164880, Note_on_c, 0, 85, 100
2, 165090, Text_t, "sing_off"
2, 165120, Note_on_c, 0, 97, 0
2, 165120, Note_on_c, 0, 85, 0
2, 165120, Note_on_c, 0, 96, 100
2, 165120, Note_on_c, 0, 84, 100
2, 165120, Note_on_c, 0, 72, 100
2, 165120, Note_on_c, 0, 60, 100
2, 165120, Note_on_c, 0, 108, 100
2, 165360, Note_on_c, 0, 108, 0
2, 165600, Note_on_c, 0, 108, 100
2, 165960, Note_on_c, 0, 108, 0
2, 166080, Note_on_c, 0, 108, 100
2, 166320, Note_on_c, 0, 108, 0
2, 166560, Note_on_c, 0, 108, 100
2, 166680, Note_on_c, 0, 108, 0
2, 166800, Note_on_c, 0, 108, 100
2, 167160, Note_on_c, 0, 108, 0
2, 167520, Note_on_c, 0, 108, 100
2, 167760, Note_on_c, 0, 108, 0
2, 168000, Note_on_c, 0, 108, 100
2, 168240, Note_on_c, 0, 108, 0
2, 168480, Note_on_c, 0, 108, 100
2, 168720, Note_on_c, 0, 108, 0
2, 168930, Text_t, "sing_on"
2, 168930, Note_on_c, 0, 105, 0
2, 168930, Note_on_c, 0, 93, 0
2, 168930, Note_on_c, 0, 69, 0
2, 168930, Note_on_c, 0, 81, 0
2, 168960, Note_on_c, 0, 96, 0
2, 168960, Note_on_c, 0, 84, 0
2, 168960, Note_on_c, 0, 72, 0
2, 168960, Note_on_c, 0, 60, 0
2, 168960, Note_on_c, 0, 108, 100
2, 169080, Note_on_c, 0, 108, 0
2, 169170, Note_on_c, 0, 106, 100
2, 169170, Note_on_c, 0, 94, 100
2, 169170, Note_on_c, 0, 70, 100
2, 169170, Note_on_c, 0, 82, 100
2, 169200, Note_on_c, 0, 100, 100
2, 169200, Note_on_c, 0, 99, 100
2, 169200, Note_on_c, 0, 88, 100
2, 169200, Note_on_c, 0, 87, 100
2, 169200, Note_on_c, 0, 75, 100
2, 169200, Note_on_c, 0, 62, 100
2, 169200, Note_on_c, 0, 108, 100
2, 169440, Note_on_c, 0, 108, 0
2, 169920, Note_on_c, 0, 100, 0
2, 169920, Note_on_c, 0, 99, 0
2, 169920, Note_on_c, 0, 88, 0
2, 169920, Note_on_c, 0, 87, 0
2, 169920, Note_on_c, 0, 75, 0
2, 169920, Note_on_c, 0, 62, 0
2, 169920, Note_on_c, 0, 99, 100
2, 169920, Note_on_c, 0, 87, 100
2, 169920, Note_on_c, 0, 75, 100
2, 169920, Note_on_c, 0, 62, 100
2, 170160, Note_on_c, 0, 99, 0
2, 170160, Note_on_c, 0, 87, 0
2, 170160, Note_on_c, 0, 75, 0
2, 170160, Note_on_c, 0, 62, 0
2, 170160, Note_on_c, 0, 100, 100
2, 170160, Note_on_c, 0, 88, 100
2, 170400, Note_on_c, 0, 100, 0
2, 170400, Note_on_c, 0, 88, 0
2, 170400, Note_on_c, 0, 100, 100
2, 170400, Note_on_c, 0, 88, 100
2, 170640, Note_on_c, 0, 100, 0
2, 170640, Note_on_c, 0, 88, 0
2, 170640, Note_on_c, 0, 99, 100
2, 170640, Note_on_c, 0, 86, 100
2, 170640, Note_on_c, 0, 74, 100
2, 170640, Note_on_c, 0, 61, 100
2, 170880, Note_on_c, 0, 86, 0
2, 170880, Note_on_c, 0, 74, 0
2, 170880, Note_on_c, 0, 61, 0
2, 171360, Note_on_c, 0, 99, 0
2, 171360, Note_on_c, 0, 97, 100
2, 171360, Note_on_c, 0, 85, 100
2, 171360, Note_on_c, 0, 73, 100
2, 171360, Note_on_c, 0, 60, 100
2, 171360, Note_on_c, 0, 108, 100
2, 171600, Note_on_c, 0, 97, 0
2, 171600, Note_on_c, 0, 85, 0
2, 171600, Note_on_c, 0, 73, 0
2, 171600, Note_on_c, 0, 60, 0
2, 171600, Note_on_c, 0, 96, 100
2, 171600, Note_on_c, 0, 84, 100
2, 171840, Note_on_c, 0, 96, 0
2, 171840, Note_on_c, 0, 84, 0
2, 171840, Note_on_c, 0, 97, 100
2, 171840, Note_on_c, 0, 85, 100
2, 171840, Note_on_c, 0, 73, 100
2, 171840, Note_on_c, 0, 60, 100
2, 172080, Note_on_c, 0, 97, 0
2, 172080, Note_on_c, 0, 85, 0
2, 172080, Note_on_c, 0, 73, 0
2, 172080, Note_on_c, 0, 60, 0
2, 172080, Note_on_c, 0, 99, 100
2, 172080, Note_on_c, 0, 86, 100
2, 172320, Note_on_c, 0, 99, 0
2, 172320, Note_on_c, 0, 86, 0
2, 172320, Note_on_c, 0, 97, 100
2, 172320, Note_on_c, 0, 85, 100
2, 172320, Note_on_c, 0, 73, 100
2, 172560, Note_on_c, 0, 97, 0
2, 172560, Note_on_c, 0, 85, 0
2, 172560, Note_on_c, 0, 73, 0
2, 172560, Note_on_c, 0, 96, 100
2, 172560, Note_on_c, 0, 84, 100
2, 172560, Note_on_c, 0, 72, 100
2, 172800, Note_on_c, 0, 108, 0
2, 172800, Note_on_c, 0, 96, 0
2, 172800, Note_on_c, 0, 84, 0
2, 172800, Note_on_c, 0, 72, 0
2, 172800, Note_on_c, 0, 97, 100
2, 172800, Note_on_c, 0, 85, 100
2, 172800, Note_on_c, 0, 73, 100
2, 172800, Note_on_c, 0, 60, 100
2, 173040, Note_on_c, 0, 97, 0
2, 173040, Note_on_c, 0, 85, 0
2, 173040, Note_on_c, 0, 73, 0
2, 173040, Note_on_c, 0, 60, 0
2, 173250, Note_on_c, 0, 106, 0
2, 173250, Note_on_c, 0, 94, 0
2, 173250, Note_on_c, 0, 70, 0
2, 173250, Note_on_c, 0, 82, 0
2, 173250, Note_on_c, 0, 105, 100
2, 173250, Note_on_c, 0, 93, 100
2, 173250, Note_on_c, 0, 69, 100
2, 173250, Note_on_c, 0, 81, 100
2, 173280, Note_on_c, 0, 97, 100
2, 173280, Note_on_c, 0, 85, 100
2, 173280, Note_on_c, 0, 73, 100
2, 173280, Note_on_c, 0, 60, 100
2, 173520, Note_on_c, 0, 97, 0
2, 173520, Note_on_c, 0, 85, 0
2, 173520, Note_on_c, 0, 73, 0
2, 173520, Note_on_c, 0, 60, 0
2, 173760, Note_on_c, 0, 99, 100
2, 173760, Note_on_c, 0, 86, 100
2, 173760, Note_on_c, 0, 74, 100
2, 173760, Note_on_c, 0, 61, 100
2, 174000, Note_on_c, 0, 99, 0
2, 174000, Note_on_c, 0, 86, 0
2, 174000, Note_on_c, 0, 74, 0
2, 174000, Note_on_c, 0, 61, 0
2, 174000, Note_on_c, 0, 97, 100
2, 174000, Note_on_c, 0, 85, 100
2, 174240, Note_on_c, 0, 97, 0
2, 174240, Note_on_c, 0, 85, 0
2, 174240, Note_on_c, 0, 97, 100
2, 174240, Note_on_c, 0, 85, 100
2, 174240, Note_on_c, 0, 73, 100
2, 174480, Note_on_c, 0, 97, 0
2, 174480, Note_on_c, 0, 85, 0
2, 174480, Note_on_c, 0, 73, 0
2, 174480, Note_on_c, 0, 96, 100
2, 174480, Note_on_c, 0, 84, 100
2, 174480, Note_on_c, 0, 72, 100
2, 174720, Note_on_c, 0, 96, 0
2, 174720, Note_on_c, 0, 84, 0
2, 174720, Note_on_c, 0, 72, 0
2, 174720, Note_on_c, 0, 97, 100
2, 174720, Note_on_c, 0, 85, 100
2, 174720, Note_on_c, 0, 73, 100
2, 174720, Note_on_c, 0, 60, 100
2, 174930, Note_on_c, 0, 105, 0
2, 174930, Note_on_c, 0, 93, 0
2, 174930, Note_on_c, 0, 69, 0
2, 174930, Note_on_c, 0, 81, 0
2, 174960, Note_on_c, 0, 97, 0
2, 174960, Note_on_c, 0, 85, 0
2, 174960, Note_on_c, 0, 73, 0
2, 174960, Note_on_c, 0, 60, 0
2, 175170, Note_on_c, 0, 106, 100
2, 175170, Note_on_c, 0, 94, 100
2, 175170, Note_on_c, 0, 70, 100
2, 175170, Note_on_c, 0, 82, 100
2, 175200, Note_on_c, 0, 97, 100
2, 175200, Note_on_c, 0, 85, 100
2, 175200, Note_on_c, 0, 73, 100
2, 175200, Note_on_c, 0, 60, 100
2, 175440, Note_on_c, 0, 97, 0
2, 175440, Note_on_c, 0, 85, 0
2, 175440, Note_on_c, 0, 73, 0
2, 175440, Note_on_c, 0, 60, 0
2, 175680, Note_on_c, 0, 100, 100
2, 175680, Note_on_c, 0, 87, 100
2, 175680, Note_on_c, 0, 74, 100
2, 175680, Note_on_c, 0, 61, 100
2, 175920, Note_on_c, 0, 100, 0
2, 175920, Note_on_c, 0, 87, 0
2, 175920, Note_on_c, 0, 74, 0
2, 175920, Note_on_c, 0, 61, 0
2, 175920, Note_on_c, 0, 99, 100
2, 175920, Note_on_c, 0, 86, 100
2, 176160, Note_on_c, 0, 99, 0
2, 176160, Note_on_c, 0, 86, 0
2, 176160, Note_on_c, 0, 97, 100
2, 176160, Note_on_c, 0, 85, 100
2, 176160, Note_on_c, 0, 73, 100
2, 176400, Note_on_c, 0, 97, 0
2, 176400, Note_on_c, 0, 85, 0
2, 176400, Note_on_c, 0, 73, 0
2, 176400, Note_on_c, 0, 96, 100
2, 176400, Note_on_c, 0, 84, 100
2, 176640, Note_on_c, 0, 96, 0
2, 176640, Note_on_c, 0, 84, 0
2, 176640, Note_on_c, 0, 97, 100
2, 176640, Note_on_c, 0, 85, 100
2, 176640, Note_on_c, 0, 73, 100
2, 176640, Note_on_c, 0, 61, 100
2, 180450, Text_t, "sing_off"
2, 180450, Note_on_c, 0, 106, 0
2, 180450, Note_on_c, 0, 94, 0
2, 180450, Note_on_c, 0, 70, 0
2, 180450, Note_on_c, 0, 82, 0
2, 180450, Note_on_c, 0, 103, 100
2, 180450, Note_on_c, 0, 91, 100
2, 180450, Note_on_c, 0, 79, 100
2, 180450, Note_on_c, 0, 67, 100
2, 180450, Note_on_c, 0, 105, 100
2, 180450, Note_on_c, 0, 93, 100
2, 180450, Note_on_c, 0, 69, 100
2, 180450, Note_on_c, 0, 81, 100
2, 180480, Note_on_c, 0, 97, 0
2, 180480, Note_on_c, 0, 85, 0
2, 180480, Note_on_c, 0, 73, 0
2, 180480, Note_on_c, 0, 61, 0
2, 180480, Note_on_c, 0, 98, 100
2, 180480, Note_on_c, 0, 86, 100
2, 180480, Note_on_c, 0, 72, 100
2, 180480, Note_on_c, 0, 60, 100
2, 180720, Note_on_c, 0, 98, 0
2, 180720, Note_on_c, 0, 86, 0
2, 180720, Note_on_c, 0, 72, 0
2, 180720, Note_on_c, 0, 60, 0
2, 180720, Note_on_c, 0, 99, 100
2, 180720, Note_on_c, 0, 87, 100
2, 180960, Note_on_c, 0, 99, 0
2, 180960, Note_on_c, 0, 87, 0
2, 180960, Note_on_c, 0, 100, 100
2, 180960, Note_on_c, 0, 88, 100
2, 180960, Note_on_c, 0, 74, 100
2, 180960, Note_on_c, 0, 62, 100
2, 181200, Note_on_c, 0, 100, 0
2, 181200, Note_on_c, 0, 88, 0
2, 181200, Note_on_c, 0, 74, 0
2, 181200, Note_on_c, 0, 62, 0
2, 181440, Note_on_c, 0, 100, 100
2, 181440, Note_on_c, 0, 88, 100
2, 181440, Note_on_c, 0, 74, 100
2, 181440, Note_on_c, 0, 62, 100
2, 181650, Note_on_c, 0, 103, 0
2, 181650, Note_on_c, 0, 91, 0
2, 181650, Note_on_c, 0, 79, 0
2, 181650, Note_on_c, 0, 67, 0
2, 181680, Note_on_c, 0, 100, 0
2, 181680, Note_on_c, 0, 88, 0
2, 181680, Note_on_c, 0, 74, 0
2, 181680, Note_on_c, 0, 62, 0
2, 183090, Note_on_c, 0, 105, 0
2, 183090, Note_on_c, 0, 93, 0
2, 183090, Note_on_c, 0, 69, 0
2, 183090, Note_on_c, 0, 81, 0
2, 183330, Note_on_c, 0, 106, 100
2, 183330, Note_on_c, 0, 94, 100
2, 183330, Note_on_c, 0, 70, 100
2, 183330, Note_on_c, 0, 82, 100
2, 183360, Note_on_c, 0, 100, 100
2, 183360, Note_on_c, 0, 88, 100
2, 183360, Note_on_c, 0, 75, 100
2, 183360, Note_on_c, 0, 62, 100
2, 183600, Note_on_c, 0, 100, 0
2, 183600, Note_on_c, 0, 88, 0
2, 183600, Note_on_c, 0, 75, 0
2, 183600, Note_on_c, 0, 62, 0
2, 183600, Note_on_c, 0, 99, 100
2, 183600, Note_on_c, 0, 87, 100
2, 183840, Note_on_c, 0, 99, 0
2, 183840, Note_on_c, 0, 87, 0
2, 183840, Note_on_c, 0, 98, 100
2, 183840, Note_on_c, 0, 86, 100
2, 184080, Note_on_c, 0, 98, 0
2, 184080, Note_on_c, 0, 86, 0
2, 184080, Note_on_c, 0, 99, 100
2, 184080, Note_on_c, 0, 87, 100
2, 184080, Note_on_c, 0, 74, 100
2, 184080, Note_on_c, 0, 61, 100
2, 184290, Text_t, "[verse]"
2, 184320, Note_on_c, 0, 99, 0
2, 184320, Note_on_c, 0, 87, 0
2, 184320, Note_on_c, 0, 74, 0
2, 184320, Note_on_c, 0, 61, 0
2, 184800, Note_on_c, 0, 98, 100
2, 184800, Note_on_c, 0, 86, 100
2, 184800, Note_on_c, 0, 73, 100
2, 184800, Note_on_c, 0, 60, 100
2, 185040, Note_on_c, 0, 98, 0
2, 185040, Note_on_c, 0, 86, 0
2, 185040, Note_on_c, 0, 73, 0
2, 185040, Note_on_c, 0, 60, 0
2, 185280, Note_on_c, 0, 97, 100
2, 185280, Note_on_c, 0, 85, 100
2, 185280, Note_on_c, 0, 73, 100
2, 185280, Note_on_c, 0, 60, 100
2, 185520, Note_on_c, 0, 97, 0
2, 185520, Note_on_c, 0, 85, 0
2, 185520, Note_on_c, 0, 73, 0
2, 185520, Note_on_c, 0, 60, 0
2, 185520, Note_on_c, 0, 96, 100
2, 185520, Note_on_c, 0, 84, 100
2, 185520, Note_on_c, 0, 72, 100
2, 185760, Note_on_c, 0, 96, 0
2, 185760, Note_on_c, 0, 84, 0
2, 185760, Note_on_c, 0, 72, 0
2, 186210, Note_on_c, 0, 106, 0
2, 186210, Note_on_c, 0, 94, 0
2, 186210, Note_on_c, 0, 70, 0
2, 186210, Note_on_c, 0, 82, 0
2, 186690, Note_on_c, 0, 105, 100
2, 186690, Note_on_c, 0, 93, 100
2, 186690, Note_on_c, 0, 69, 100
2, 186690, Note_on_c, 0, 81, 100
2, 186720, Note_on_c, 0, 98, 100
2, 186720, Note_on_c, 0, 96, 100
2, 186720, Note_on_c, 0, 85, 100
2, 186720, Note_on_c, 0, 84, 100
2, 186720, Note_on_c, 0, 73, 100
2, 186720, Note_on_c, 0, 61, 100
2, 186960, Note_on_c, 0, 98, 0
2, 186960, Note_on_c, 0, 96, 0
2, 186960, Note_on_c, 0, 85, 0
2, 186960, Note_on_c, 0, 84, 0
2, 186960, Note_on_c, 0, 73, 0
2, 186960, Note_on_c, 0, 61, 0
2, 186960, Note_on_c, 0, 99, 100
2, 186960, Note_on_c, 0, 96, 100
2, 186960, Note_on_c, 0, 86, 100
2, 186960, Note_on_c, 0, 84, 100
2, 186960, Note_on_c, 0, 74, 100
2, 187200, Note_on_c, 0, 99, 0
2, 187200, Note_on_c, 0, 96, 0
2, 187200, Note_on_c, 0, 86, 0
2, 187200, Note_on_c, 0, 84, 0
2, 187200, Note_on_c, 0, 74, 0
2, 187410, Note_on_c, 0, 105, 0
2, 187410, Note_on_c, 0, 93, 0
2, 187410, Note_on_c, 0, 69, 0
2, 187410, Note_on_c, 0, 81, 0
2, 187650, Note_on_c, 0, 106, 100
2, 187650, Note_on_c, 0, 94, 100
2, 187650, Note_on_c, 0, 70, 100
2, 187650, Note_on_c, 0, 82, 100
2, 187680, Note_on_c, 0, 98, 100
2, 187680, Note_on_c, 0, 96, 100
2, 187680, Note_on_c, 0, 85, 100
2, 187680, Note_on_c, 0, 84, 100
2, 187680, Note_on_c, 0, 73, 100
2, 187680, Note_on_c, 0, 61, 100
2, 187920, Note_on_c, 0, 98, 0
2, 187920, Note_on_c, 0, 96, 0
2, 187920, Note_on_c, 0, 85, 0
2, 187920, Note_on_c, 0, 84, 0
2, 187920, Note_on_c, 0, 73, 0
2, 187920, Note_on_c, 0, 61, 0
2, 187920, Note_on_c, 0, 99, 100
2, 187920, Note_on_c, 0, 96, 100
2, 187920, Note_on_c, 0, 86, 100
2, 187920, Note_on_c, 0, 84, 100
2, 187920, Note_on_c, 0, 74, 100
2, 188160, Note_on_c, 0, 99, 0
2, 188160, Note_on_c, 0, 96, 0
2, 188160, Note_on_c, 0, 86, 0
2, 188160, Note_on_c, 0, 84, 0
2, 188160, Note_on_c, 0, 74, 0
2, 189570, Note_on_c, 0, 106, 0
2, 189570, Note_on_c, 0, 94, 0
2, 189570, Note_on_c, 0, 70, 0
2, 189570, Note_on_c, 0, 82, 0
2, 190050, Note_on_c, 0, 105, 100
2, 190050, Note_on_c, 0, 93, 100
2, 190050, Note_on_c, 0, 69, 100
2, 190050, Note_on_c, 0, 81, 100
2, 190080, Note_on_c, 0, 96, 100
2, 190080, Note_on_c, 0, 98, 100
2, 190080, Note_on_c, 0, 84, 100
2, 190080, Note_on_c, 0, 86, 100
2, 190080, Note_on_c, 0, 72, 100
2, 190080, Note_on_c, 0, 60, 100
2, 190080, Note_on_c, 0, 74, 100
2, 190320, Note_on_c, 0, 96, 0
2, 190320, Note_on_c, 0, 98, 0
2, 190320, Note_on_c, 0, 84, 0
2, 190320, Note_on_c, 0, 86, 0
2, 190320, Note_on_c, 0, 72, 0
2, 190320, Note_on_c, 0, 60, 0
2, 190320, Note_on_c, 0, 74, 0
2, 191760, Note_on_c, 0, 96, 100
2, 191760, Note_on_c, 0, 98, 100
2, 191760, Note_on_c, 0, 84, 100
2, 191760, Note_on_c, 0, 86, 100
2, 191760, Note_on_c, 0, 72, 100
2, 191760, Note_on_c, 0, 74, 100
2, 192000, Note_on_c, 0, 96, 0
2, 192000, Note_on_c, 0, 98, 0
2, 192000, Note_on_c, 0, 84, 0
2, 192000, Note_on_c, 0, 86, 0
2, 192000, Note_on_c, 0, 72, 0
2, 192000, Note_on_c, 0, 74, 0
2, 192000, Note_on_c, 0, 96, 100
2, 192000, Note_on_c, 0, 98, 100
2, 192000, Note_on_c, 0, 84, 100
2, 192000, Note_on_c, 0, 86, 100
2, 192000, Note_on_c, 0, 72, 100
2, 192000, Note_on_c, 0, 60, 100
2, 192000, Note_on_c, 0, 74, 100
2, 192240, Note_on_c, 0, 96, 0
2, 192240, Note_on_c, 0, 98, 0
2, 192240, Note_on_c, 0, 84, 0
2, 192240, Note_on_c, 0, 86, 0
2, 192240, Note_on_c, 0, 72, 0
2, 192240, Note_on_c, 0, 60, 0
2, 192240, Note_on_c, 0, 74, 0
2, 193890, Note_on_c, 0, 105, 0
2, 193890, Note_on_c, 0, 93, 0
2, 193890, Note_on_c, 0, 69, 0
2, 193890, Note_on_c, 0, 81, 0
2, 193890, Note_on_c, 0, 106, 100
2, 193890, Note_on_c, 0, 94, 100
2, 193890, Note_on_c, 0, 70, 100
2, 193890, Note_on_c, 0, 82, 100
2, 193920, Note_on_c, 0, 96, 100
2, 193920, Note_on_c, 0, 98, 100
2, 193920, Note_on_c, 0, 84, 100
2, 193920, Note_on_c, 0, 86, 100
2, 193920, Note_on_c, 0, 72, 100
2, 193920, Note_on_c, 0, 60, 100
2, 193920, Note_on_c, 0, 74, 100
2, 194160, Note_on_c, 0, 96, 0
2, 194160, Note_on_c, 0, 98, 0
2, 194160, Note_on_c, 0, 84, 0
2, 194160, Note_on_c, 0, 86, 0
2, 194160, Note_on_c, 0, 72, 0
2, 194160, Note_on_c, 0, 60, 0
2, 194160, Note_on_c, 0, 74, 0
2, 195600, Note_on_c, 0, 96, 100
2, 195600, Note_on_c, 0, 98, 100
2, 195600, Note_on_c, 0, 84, 100
2, 195600, Note_on_c, 0, 86, 100
2, 195600, Note_on_c, 0, 72, 100
2, 195600, Note_on_c, 0, 74, 100
2, 195810, Text_t, "sing_on"
2, 195840, Note_on_c, 0, 96, 0
2, 195840, Note_on_c, 0, 98, 0
2, 195840, Note_on_c, 0, 84, 0
2, 195840, Note_on_c, 0, 86, 0
2, 195840, Note_on_c, 0, 72, 0
2, 195840, Note_on_c, 0, 74, 0
2, 195840, Note_on_c, 0, 96, 100
2, 195840, Note_on_c, 0, 98, 100
2, 195840, Note_on_c, 0, 84, 100
2, 195840, Note_on_c, 0, 86, 100
2, 195840, Note_on_c, 0, 72, 100
2, 195840, Note_on_c, 0, 60, 100
2, 195840, Note_on_c, 0, 74, 100
2, 196080, Note_on_c, 0, 96, 0
2, 196080, Note_on_c, 0, 98, 0
2, 196080, Note_on_c, 0, 84, 0
2, 196080, Note_on_c, 0, 86, 0
2, 196080, Note_on_c, 0, 72, 0
2, 196080, Note_on_c, 0, 60, 0
2, 196080, Note_on_c, 0, 74, 0
2, 197730, Note_on_c, 0, 106, 0
2, 197730, Note_on_c, 0, 94, 0
2, 197730, Note_on_c, 0, 70, 0
2, 197730, Note_on_c, 0, 82, 0
2, 197730, Note_on_c, 0, 105, 100
2, 197730, Note_on_c, 0, 93, 100
2, 197730, Note_on_c, 0, 69, 100
2, 197730, Note_on_c, 0, 81, 100
2, 197760, Note_on_c, 0, 96, 100
2, 197760, Note_on_c, 0, 98, 100
2, 197760, Note_on_c, 0, 84, 100
2, 197760, Note_on_c, 0, 86, 100
2, 197760, Note_on_c, 0, 72, 100
2, 197760, Note_on_c, 0, 60, 100
2, 197760, Note_on_c, 0, 74, 100
2, 198000, Note_on_c, 0, 96, 0
2, 198000, Note_on_c, 0, 98, 0
2, 198000, Note_on_c, 0, 84, 0
2, 198000, Note_on_c, 0, 86, 0
2, 198000, Note_on_c, 0, 72, 0
2, 198000, Note_on_c, 0, 60, 0
2, 198000, Note_on_c, 0, 74, 0
2, 199440, Note_on_c, 0, 96, 100
2, 199440, Note_on_c, 0, 98, 100
2, 199440, Note_on_c, 0, 84, 100
2, 199440, Note_on_c, 0, 86, 100
2, 199440, Note_on_c, 0, 72, 100
2, 199440, Note_on_c, 0, 74, 100
2, 199680, Note_on_c, 0, 96, 0
2, 199680, Note_on_c, 0, 98, 0
2, 199680, Note_on_c, 0, 84, 0
2, 199680, Note_on_c, 0, 86, 0
2, 199680, Note_on_c, 0, 72, 0
2, 199680, Note_on_c, 0, 74, 0
2, 199680, Note_on_c, 0, 96, 100
2, 199680, Note_on_c, 0, 98, 100
2, 199680, Note_on_c, 0, 84, 100
2, 199680, Note_on_c, 0, 86, 100
2, 199680, Note_on_c, 0, 72, 100
2, 199680, Note_on_c, 0, 60, 100
2, 199680, Note_on_c, 0, 74, 100
2, 199920, Note_on_c, 0, 96, 0
2, 199920, Note_on_c, 0, 98, 0
2, 199920, Note_on_c, 0, 84, 0
2, 199920, Note_on_c, 0, 86, 0
2, 199920, Note_on_c, 0, 72, 0
2, 199920, Note_on_c, 0, 60, 0
2, 199920, Note_on_c, 0, 74, 0
2, 201570, Note_on_c, 0, 105, 0
2, 201570, Note_on_c, 0, 93, 0
2, 201570, Note_on_c, 0, 69, 0
2, 201570, Note_on_c, 0, 81, 0
2, 202050, Note_on_c, 0, 106, 100
2, 202050, Note_on_c, 0, 94, 100
2, 202050, Note_on_c, 0, 70, 100
2, 202050, Note_on_c, 0, 82, 100
2, 202080, Note_on_c, 0, 98, 100
2, 202080, Note_on_c, 0, 96, 100
2, 202080, Note_on_c, 0, 85, 100
2, 202080, Note_on_c, 0, 84, 100
2, 202080, Note_on_c, 0, 74, 100
2, 202080, Note_on_c, 0, 61, 100
2, 202320, Note_on_c, 0, 98, 0
2, 202320, Note_on_c, 0, 96, 0
2, 202320, Note_on_c, 0, 85, 0
2, 202320, Note_on_c, 0, 84, 0
2, 202320, Note_on_c, 0, 74, 0
2, 202320, Note_on_c, 0, 61, 0
2, 202320, Note_on_c, 0, 99, 100
2, 202320, Note_on_c, 0, 96, 100
2, 202320, Note_on_c, 0, 86, 100
2, 202320, Note_on_c, 0, 84, 100
2, 202320, Note_on_c, 0, 75, 100
2, 202560, Note_on_c, 0, 99, 0
2, 202560, Note_on_c, 0, 96, 0
2, 202560, Note_on_c, 0, 86, 0
2, 202560, Note_on_c, 0, 84, 0
2, 202560, Note_on_c, 0, 75, 0
2, 203010, Note_on_c, 0, 106, 0
2, 203010, Note_on_c, 0, 94, 0
2, 203010, Note_on_c, 0, 70, 0
2, 203010, Note_on_c, 0, 82, 0
2, 203010, Note_on_c, 0, 105, 100
2, 203010, Note_on_c, 0, 93, 100
2, 203010, Note_on_c, 0, 69, 100
2, 203010, Note_on_c, 0, 81, 100
2, 203040, Note_on_c, 0, 98, 100
2, 203040, Note_on_c, 0, 96, 100
2, 203040, Note_on_c, 0, 85, 100
2, 203040, Note_on_c, 0, 84, 100
2, 203040, Note_on_c, 0, 74, 100
2, 203040, Note_on_c, 0, 61, 100
2, 203280, Note_on_c, 0, 98, 0
2, 203280, Note_on_c, 0, 96, 0
2, 203280, Note_on_c, 0, 85, 0
2, 203280, Note_on_c, 0, 84, 0
2, 203280, Note_on_c, 0, 74, 0
2, 203280, Note_on_c, 0, 61, 0
2, 203280, Note_on_c, 0, 99, 100
2, 203280, Note_on_c, 0, 96, 100
2, 203280, Note_on_c, 0, 86, 100
2, 203280, Note_on_c, 0, 84, 100
2, 203280, Note_on_c, 0, 75, 100
2, 203520, Note_on_c, 0, 99, 0
2, 203520, Note_on_c, 0, 96, 0
2, 203520, Note_on_c, 0, 86, 0
2, 203520, Note_on_c, 0, 84, 0
2, 203520, Note_on_c, 0, 75, 0
2, 205410, Note_on_c, 0, 105, 0
2, 205410, Note_on_c, 0, 93, 0
2, 205410, Note_on_c, 0, 69, 0
2, 205410, Note_on_c, 0, 81, 0
2, 205410, Note_on_c, 0, 106, 100
2, 205410, Note_on_c, 0, 94, 100
2, 205410, Note_on_c, 0, 70, 100
2, 205410, Note_on_c, 0, 82, 100
2, 205440, Note_on_c, 0, 96, 100
2, 205440, Note_on_c, 0, 98, 100
2, 205440, Note_on_c, 0, 84, 100
2, 205440, Note_on_c, 0, 86, 100
2, 205440, Note_on_c, 0, 72, 100
2, 205440, Note_on_c, 0, 60, 100
2, 205440, Note_on_c, 0, 74, 100
2, 205680, Note_on_c, 0, 96, 0
2, 205680, Note_on_c, 0, 98, 0
2, 205680, Note_on_c, 0, 84, 0
2, 205680, Note_on_c, 0, 86, 0
2, 205680, Note_on_c, 0, 72, 0
2, 205680, Note_on_c, 0, 60, 0
2, 205680, Note_on_c, 0, 74, 0
2, 207330, Note_on_c, 0, 106, 0
2, 207330, Note_on_c, 0, 94, 0
2, 207330, Note_on_c, 0, 70, 0
2, 207330, Note_on_c, 0, 82, 0
2, 207330, Note_on_c, 0, 105, 100
2, 207330, Note_on_c, 0, 93, 100
2, 207330, Note_on_c, 0, 69, 100
2, 207330, Note_on_c, 0, 81, 100
2, 207360, Note_on_c, 0, 96, 100
2, 207360, Note_on_c, 0, 98, 100
2, 207360, Note_on_c, 0, 84, 100
2, 207360, Note_on_c, 0, 86, 100
2, 207360, Note_on_c, 0, 72, 100
2, 207360, Note_on_c, 0, 60, 100
2, 207360, Note_on_c, 0, 74, 100
2, 207600, Note_on_c, 0, 96, 0
2, 207600, Note_on_c, 0, 98, 0
2, 207600, Note_on_c, 0, 84, 0
2, 207600, Note_on_c, 0, 86, 0
2, 207600, Note_on_c, 0, 72, 0
2, 207600, Note_on_c, 0, 60, 0
2, 207600, Note_on_c, 0, 74, 0
2, 209010, Note_on_c, 0, 105, 0
2, 209010, Note_on_c, 0, 93, 0
2, 209010, Note_on_c, 0, 69, 0
2, 209010, Note_on_c, 0, 81, 0
2, 209010, Note_on_c, 0, 106, 100
2, 209010, Note_on_c, 0, 94, 100
2, 209010, Note_on_c, 0, 70, 100
2, 209010, Note_on_c, 0, 82, 100
2, 209040, Note_on_c, 0, 96, 100
2, 209040, Note_on_c, 0, 98, 100
2, 209040, Note_on_c, 0, 84, 100
2, 209040, Note_on_c, 0, 86, 100
2, 209040, Note_on_c, 0, 72, 100
2, 209040, Note_on_c, 0, 74, 100
2, 209250, Note_on_c, 0, 106, 0
2, 209250, Note_on_c, 0, 94, 0
2, 209250, Note_on_c, 0, 70, 0
2, 209250, Note_on_c, 0, 82, 0
2, 209250, Note_on_c, 0, 105, 100
2, 209250, Note_on_c, 0, 93, 100
2, 209250, Note_on_c, 0, 69, 100
2, 209250, Note_on_c, 0, 81, 100
2, 209280, Note_on_c, 0, 96, 0
2, 209280, Note_on_c, 0, 98, 0
2, 209280, Note_on_c, 0, 84, 0
2, 209280, Note_on_c, 0, 86, 0
2, 209280, Note_on_c, 0, 72, 0
2, 209280, Note_on_c, 0, 74, 0
2, 209280, Note_on_c, 0, 96, 100
2, 209280, Note_on_c, 0, 98, 100
2, 209280, Note_on_c, 0, 84, 100
2, 209280, Note_on_c, 0, 86, 100
2, 209280, Note_on_c, 0, 72, 100
2, 209280, Note_on_c, 0, 60, 100
2, 209280, Note_on_c, 0, 74, 100
2, 209520, Note_on_c, 0, 96, 0
2, 209520, Note_on_c, 0, 98, 0
2, 209520, Note_on_c, 0, 84, 0
2, 209520, Note_on_c, 0, 86, 0
2, 209520, Note_on_c, 0, 72, 0
2, 209520, Note_on_c, 0, 60, 0
2, 209520, Note_on_c, 0, 74, 0
2, 211170, Note_on_c, 0, 105, 0
2, 211170, Note_on_c, 0, 93, 0
2, 211170, Note_on_c, 0, 69, 0
2, 211170, Note_on_c, 0, 81, 0
2, 211170, Note_on_c, 0, 106, 100
2, 211170, Note_on_c, 0, 94, 100
2, 211170, Note_on_c, 0, 70, 100
2, 211170, Note_on_c, 0, 82, 100
2, 211200, Note_on_c, 0, 96, 100
2, 211200, Note_on_c, 0, 98, 100
2, 211200, Note_on_c, 0, 84, 100
2, 211200, Note_on_c, 0, 86, 100
2, 211200, Note_on_c, 0, 72, 100
2, 211200, Note_on_c, 0, 60, 100
2, 211200, Note_on_c, 0, 74, 100
2, 211440, Note_on_c, 0, 96, 0
2, 211440, Note_on_c, 0, 98, 0
2, 211440, Note_on_c, 0, 84, 0
2, 211440, Note_on_c, 0, 86, 0
2, 211440, Note_on_c, 0, 72, 0
2, 211440, Note_on_c, 0, 60, 0
2, 211440, Note_on_c, 0, 74, 0
2, 213090, Text_t, "drum_double"
2, 213090, Note_on_c, 0, 106, 0
2, 213090, Note_on_c, 0, 94, 0
2, 213090, Note_on_c, 0, 70, 0
2, 213090, Note_on_c, 0, 82, 0
2, 213090, Note_on_c, 0, 105, 100
2, 213090, Note_on_c, 0, 93, 100
2, 213090, Note_on_c, 0, 69, 100
2, 213090, Note_on_c, 0, 81, 100
2, 213120, Note_on_c, 0, 96, 100
2, 213120, Note_on_c, 0, 98, 100
2, 213120, Note_on_c, 0, 84, 100
2, 213120, Note_on_c, 0, 86, 100
2, 213120, Note_on_c, 0, 72, 100
2, 213120, Note_on_c, 0, 60, 100
2, 213120, Note_on_c, 0, 74, 100
2, 213360, Note_on_c, 0, 96, 0
2, 213360, Note_on_c, 0, 98, 0
2, 213360, Note_on_c, 0, 84, 0
2, 213360, Note_on_c, 0, 86, 0
2, 213360, Note_on_c, 0, 72, 0
2, 213360, Note_on_c, 0, 60, 0
2, 213360, Note_on_c, 0, 74, 0
2, 215010, Text_t, "drum_normal"
2, 215010, Note_on_c, 0, 105, 0
2, 215010, Note_on_c, 0, 93, 0
2, 215010, Note_on_c, 0, 69, 0
2, 215010, Note_on_c, 0, 81, 0
2, 215010, Note_on_c, 0, 106, 100
2, 215010, Note_on_c, 0, 94, 100
2, 215010, Note_on_c, 0, 70, 100
2, 215010, Note_on_c, 0, 82, 100
2, 215040, Note_on_c, 0, 96, 100
2, 215040, Note_on_c, 0, 98, 100
2, 215040, Note_on_c, 0, 84, 100
2, 215040, Note_on_c, 0, 86, 100
2, 215040, Note_on_c, 0, 72, 100
2, 215040, Note_on_c, 0, 60, 100
2, 215040, Note_on_c, 0, 74, 100
2, 215280, Note_on_c, 0, 96, 0
2, 215280, Note_on_c, 0, 98, 0
2, 215280, Note_on_c, 0, 84, 0
2, 215280, Note_on_c, 0, 86, 0
2, 215280, Note_on_c, 0, 72, 0
2, 215280, Note_on_c, 0, 60, 0
2, 215280, Note_on_c, 0, 74, 0
2, 216690, Note_on_c, 0, 106, 0
2, 216690, Note_on_c, 0, 94, 0
2, 216690, Note_on_c, 0, 70, 0
2, 216690, Note_on_c, 0, 82, 0
2, 216690, Note_on_c, 0, 105, 100
2, 216690, Note_on_c, 0, 93, 100
2, 216690, Note_on_c, 0, 69, 100
2, 216690, Note_on_c, 0, 81, 100
2, 216720, Note_on_c, 0, 96, 100
2, 216720, Note_on_c, 0, 98, 100
2, 216720, Note_on_c, 0, 84, 100
2, 216720, Note_on_c, 0, 86, 100
2, 216720, Note_on_c, 0, 72, 100
2, 216720, Note_on_c, 0, 74, 100
2, 216930, Note_on_c, 0, 105, 0
2, 216930, Note_on_c, 0, 93, 0
2, 216930, Note_on_c, 0, 69, 0
2, 216930, Note_on_c, 0, 81, 0
2, 216930, Note_on_c, 0, 106, 100
2, 216930, Note_on_c, 0, 94, 100
2, 216930, Note_on_c, 0, 70, 100
2, 216930, Note_on_c, 0, 82, 100
2, 216960, Note_on_c, 0, 96, 0
2, 216960, Note_on_c, 0, 98, 0
2, 216960, Note_on_c, 0, 84, 0
2, 216960, Note_on_c, 0, 86, 0
2, 216960, Note_on_c, 0, 72, 0
2, 216960, Note_on_c, 0, 74, 0
2, 216960, Note_on_c, 0, 96, 100
2, 216960, Note_on_c, 0, 98, 100
2, 216960, Note_on_c, 0, 84, 100
2, 216960, Note_on_c, 0, 86, 100
2, 216960, Note_on_c, 0, 72, 100
2, 216960, Note_on_c, 0, 60, 100
2, 216960, Note_on_c, 0, 74, 100
2, 217200, Note_on_c, 0, 96, 0
2, 217200, Note_on_c, 0, 98, 0
2, 217200, Note_on_c, 0, 84, 0
2, 217200, Note_on_c, 0, 86, 0
2, 217200, Note_on_c, 0, 72, 0
2, 217200, Note_on_c, 0, 60, 0
2, 217200, Note_on_c, 0, 74, 0
2, 218610, Note_on_c, 0, 106, 0
2, 218610, Note_on_c, 0, 94, 0
2, 218610, Note_on_c, 0, 70, 0
2, 218610, Note_on_c, 0, 82, 0
2, 218610, Note_on_c, 0, 103, 100
2, 218610, Note_on_c, 0, 91, 100
2, 218610, Note_on_c, 0, 79, 100
2, 218610, Note_on_c, 0, 67, 100
2, 218610, Note_on_c, 0, 105, 100
2, 218610, Note_on_c, 0, 93, 100
2, 218610, Note_on_c, 0, 69, 100
2, 218610, Note_on_c, 0, 81, 100
2, 218640, Note_on_c, 0, 96, 100
2, 218640, Note_on_c, 0, 84, 100
2, 218640, Note_on_c, 0, 72, 100
2, 218880, Note_on_c, 0, 96, 0
2, 218880, Note_on_c, 0, 84, 0
2, 218880, Note_on_c, 0, 72, 0
2, 218880, Note_on_c, 0, 97, 100
2, 218880, Note_on_c, 0, 85, 100
2, 218880, Note_on_c, 0, 73, 100
2, 218880, Note_on_c, 0, 61, 100
2, 219120, Note_on_c, 0, 97, 0
2, 219120, Note_on_c, 0, 85, 0
2, 219120, Note_on_c, 0, 73, 0
2, 219120, Note_on_c, 0, 61, 0
2, 219120, Note_on_c, 0, 98, 100
2, 219120, Note_on_c, 0, 86, 100
2, 219360, Note_on_c, 0, 98, 0
2, 219360, Note_on_c, 0, 86, 0
2, 219360, Note_on_c, 0, 99, 100
2, 219600, Note_on_c, 0, 99, 0
2, 219600, Note_on_c, 0, 100, 100
2, 219600, Note_on_c, 0, 87, 100
2, 219600, Note_on_c, 0, 75, 100
2, 219600, Note_on_c, 0, 62, 100
2, 220290, Note_on_c, 0, 103, 0
2, 220290, Note_on_c, 0, 91, 0
2, 220290, Note_on_c, 0, 79, 0
2, 220290, Note_on_c, 0, 67, 0
2, 220320, Note_on_c, 0, 100, 0
2, 220320, Note_on_c, 0, 87, 0
2, 220320, Note_on_c, 0, 75, 0
2, 220320, Note_on_c, 0, 62, 0
2, 220320, Note_on_c, 0, 98, 100
2, 220560, Note_on_c, 0, 98, 0
2, 220560, Note_on_c, 0, 96, 100
2, 220560, Note_on_c, 0, 84, 100
2, 220560, Note_on_c, 0, 72, 100
2, 220800, Note_on_c, 0, 96, 0
2, 220800, Note_on_c, 0, 84, 0
2, 220800, Note_on_c, 0, 72, 0
2, 220800, Note_on_c, 0, 97, 100
2, 220800, Note_on_c, 0, 85, 100
2, 220800, Note_on_c, 0, 73, 100
2, 220800, Note_on_c, 0, 61, 100
2, 221040, Note_on_c, 0, 97, 0
2, 221040, Note_on_c, 0, 85, 0
2, 221040, Note_on_c, 0, 73, 0
2, 221040, Note_on_c, 0, 61, 0
2, 221040, Note_on_c, 0, 98, 100
2, 221040, Note_on_c, 0, 86, 100
2, 221280, Note_on_c, 0, 98, 0
2, 221280, Note_on_c, 0, 86, 0
2, 221280, Note_on_c, 0, 99, 100
2, 221280, Note_on_c, 0, 87, 100
2, 221280, Note_on_c, 0, 75, 100
2, 221280, Note_on_c, 0, 62, 100
2, 221520, Note_on_c, 0, 99, 0
2, 221520, Note_on_c, 0, 87, 0
2, 221520, Note_on_c, 0, 75, 0
2, 221520, Note_on_c, 0, 99, 100
2, 221520, Note_on_c, 0, 87, 100
2, 221520, Note_on_c, 0, 75, 100
2, 221730, Note_on_c, 0, 105, 0
2, 221730, Note_on_c, 0, 93, 0
2, 221730, Note_on_c, 0, 69, 0
2, 221730, Note_on_c, 0, 81, 0
2, 221760, Note_on_c, 0, 62, 0
2, 221760, Note_on_c, 0, 99, 0
2, 221760, Note_on_c, 0, 87, 0
2, 221760, Note_on_c, 0, 75, 0
2, 222450, Note_on_c, 0, 106, 100
2, 222450, Note_on_c, 0, 94, 100
2, 222450, Note_on_c, 0, 70, 100
2, 222450, Note_on_c, 0, 82, 100
2, 222480, Note_on_c, 0, 96, 100
2, 222480, Note_on_c, 0, 84, 100
2, 222480, Note_on_c, 0, 72, 100
2, 222720, Note_on_c, 0, 96, 0
2, 222720, Note_on_c, 0, 84, 0
2, 222720, Note_on_c, 0, 72, 0
2, 222720, Note_on_c, 0, 97, 100
2, 222720, Note_on_c, 0, 85, 100
2, 222720, Note_on_c, 0, 73, 100
2, 222720, Note_on_c, 0, 61, 100
2, 222960, Note_on_c, 0, 97, 0
2, 222960, Note_on_c, 0, 85, 0
2, 222960, Note_on_c, 0, 73, 0
2, 222960, Note_on_c, 0, 61, 0
2, 222960, Note_on_c, 0, 98, 100
2, 222960, Note_on_c, 0, 86, 100
2, 223200, Note_on_c, 0, 98, 0
2, 223200, Note_on_c, 0, 86, 0
2, 223200, Note_on_c, 0, 99, 100
2, 223440, Note_on_c, 0, 99, 0
2, 223440, Note_on_c, 0, 100, 100
2, 223440, Note_on_c, 0, 87, 100
2, 223440, Note_on_c, 0, 75, 100
2, 223440, Note_on_c, 0, 62, 100
2, 224160, Note_on_c, 0, 100, 0
2, 224160, Note_on_c, 0, 87, 0
2, 224160, Note_on_c, 0, 75, 0
2, 224160, Note_on_c, 0, 62, 0
2, 224160, Note_on_c, 0, 99, 100
2, 224160, Note_on_c, 0, 86, 100
2, 224160, Note_on_c, 0, 74, 100
2, 224400, Note_on_c, 0, 99, 0
2, 224400, Note_on_c, 0, 86, 0
2, 224400, Note_on_c, 0, 74, 0
2, 224400, Note_on_c, 0, 98, 100
2, 224400, Note_on_c, 0, 85, 100
2, 224640, Note_on_c, 0, 98, 0
2, 224640, Note_on_c, 0, 85, 0
2, 224640, Note_on_c, 0, 99, 100
2, 224640, Note_on_c, 0, 87, 100
2, 224640, Note_on_c, 0, 73, 100
2, 224640, Note_on_c, 0, 61, 100
2, 224880, Note_on_c, 0, 99, 0
2, 224880, Note_on_c, 0, 87, 0
2, 224880, Note_on_c, 0, 73, 0
2, 224880, Note_on_c, 0, 61, 0
2, 224880, Note_on_c, 0, 98, 100
2, 224880, Note_on_c, 0, 86, 100
2, 225120, Note_on_c, 0, 98, 0
2, 225120, Note_on_c, 0, 86, 0
2, 225120, Note_on_c, 0, 97, 100
2, 225120, Note_on_c, 0, 85, 100
2, 225330, Note_on_c, 0, 105, 100
2, 225330, Note_on_c, 0, 93, 100
2, 225330, Note_on_c, 0, 69, 100
2, 225330, Note_on_c, 0, 81, 100
2, 225360, Note_on_c, 0, 97, 0
2, 225360, Note_on_c, 0, 85, 0
2, 225360, Note_on_c, 0, 96, 100
2, 225360, Note_on_c, 0, 84, 100
2, 225360, Note_on_c, 0, 72, 100
2, 225360, Note_on_c, 0, 60, 100
2, 225600, Note_on_c, 0, 108, 100
2, 226920, Note_on_c, 0, 108, 0
2, 227040, Note_on_c, 0, 108, 100
2, 227490, Note_on_c, 0, 106, 0
2, 227490, Note_on_c, 0, 94, 0
2, 227490, Note_on_c, 0, 70, 0
2, 227490, Note_on_c, 0, 82, 0
2, 227520, Note_on_c, 0, 96, 0
2, 227520, Note_on_c, 0, 84, 0
2, 227520, Note_on_c, 0, 72, 0
2, 227520, Note_on_c, 0, 60, 0
2, 227520, Note_on_c, 0, 108, 0
2, 227760, Note_on_c, 0, 99, 100
2, 227760, Note_on_c, 0, 87, 100
2, 227760, Note_on_c, 0, 74, 100
2, 227760, Note_on_c, 0, 61, 100
2, 228000, Note_on_c, 0, 61, 0
2, 228480, Note_on_c, 0, 99, 0
2, 228480, Note_on_c, 0, 87, 0
2, 228480, Note_on_c, 0, 74, 0
2, 228480, Note_on_c, 0, 99, 100
2, 228480, Note_on_c, 0, 87, 100
2, 228480, Note_on_c, 0, 74, 100
2, 228480, Note_on_c, 0, 61, 100
2, 228720, Note_on_c, 0, 61, 0
2, 228960, Note_on_c, 0, 108, 100
2, 229200, Note_on_c, 0, 99, 0
2, 229200, Note_on_c, 0, 87, 0
2, 229200, Note_on_c, 0, 74, 0
2, 229200, Note_on_c, 0, 108, 0
2, 229200, Note_on_c, 0, 99, 100
2, 229200, Note_on_c, 0, 87, 100
2, 229200, Note_on_c, 0, 74, 100
2, 229200, Note_on_c, 0, 61, 100
2, 229440, Note_on_c, 0, 74, 0
2, 229440, Note_on_c, 0, 61, 0
2, 229440, Note_on_c, 0, 108, 100
2, 229680, Note_on_c, 0, 99, 0
2, 229680, Note_on_c, 0, 87, 0
2, 229680, Note_on_c, 0, 108, 0
2, 229680, Note_on_c, 0, 98, 100
2, 229680, Note_on_c, 0, 86, 100
2, 229800, Note_on_c, 0, 98, 0
2, 229800, Note_on_c, 0, 86, 0
2, 229800, Note_on_c, 0, 97, 100
2, 229920, Note_on_c, 0, 97, 0
2, 229920, Note_on_c, 0, 96, 100
2, 229920, Note_on_c, 0, 84, 100
2, 229920, Note_on_c, 0, 72, 100
2, 229920, Note_on_c, 0, 60, 100
2, 229920, Note_on_c, 0, 108, 100
2, 230280, Note_on_c, 0, 108, 0
2, 230520, Note_on_c, 0, 108, 100
2, 230760, Note_on_c, 0, 108, 0
2, 230880, Note_on_c, 0, 108, 100
2, 231000, Note_on_c, 0, 108, 0
2, 231120, Note_on_c, 0, 108, 100
2, 231330, Note_on_c, 0, 105, 0
2, 231330, Note_on_c, 0, 93, 0
2, 231330, Note_on_c, 0, 69, 0
2, 231330, Note_on_c, 0, 81, 0
2, 231360, Note_on_c, 0, 96, 0
2, 231360, Note_on_c, 0, 84, 0
2, 231360, Note_on_c, 0, 72, 0
2, 231360, Note_on_c, 0, 60, 0
2, 231480, Note_on_c, 0, 108, 0
2, 231570, Note_on_c, 0, 106, 100
2, 231570, Note_on_c, 0, 94, 100
2, 231570, Note_on_c, 0, 70, 100
2, 231570, Note_on_c, 0, 82, 100
2, 231680, Note_on_c, 0, 99, 100
2, 231680, Note_on_c, 0, 87, 100
2, 231680, Note_on_c, 0, 74, 100
2, 231680, Note_on_c, 0, 61, 100
2, 231840, Note_on_c, 0, 108, 100
2, 231920, Note_on_c, 0, 61, 0
2, 232080, Note_on_c, 0, 108, 0
2, 232290, Text_t, "drum_double"
2, 232320, Note_on_c, 0, 108, 100
2, 232400, Note_on_c, 0, 99, 0
2, 232400, Note_on_c, 0, 87, 0
2, 232400, Note_on_c, 0, 74, 0
2, 232400, Note_on_c, 0, 99, 100
2, 232400, Note_on_c, 0, 87, 100
2, 232400, Note_on_c, 0, 74, 100
2, 232400, Note_on_c, 0, 61, 100
2, 232560, Note_on_c, 0, 108, 0
2, 232640, Note_on_c, 0, 61, 0
2, 232800, Note_on_c, 0, 108, 100
2, 233040, Note_on_c, 0, 108, 0
2, 233120, Note_on_c, 0, 99, 0
2, 233120, Note_on_c, 0, 87, 0
2, 233120, Note_on_c, 0, 74, 0
2, 233120, Note_on_c, 0, 100, 100
2, 233120, Note_on_c, 0, 88, 100
2, 233120, Note_on_c, 0, 75, 100
2, 233120, Note_on_c, 0, 62, 100
2, 233250, Text_t, "drum_normal"
2, 233250, Text_t, "[chorus]"
2, 233280, Note_on_c, 0, 108, 100
2, 233340, Note_on_c, 0, 108, 0
2, 233360, Note_on_c, 0, 62, 0
2, 233460, Note_on_c, 0, 108, 100
2, 233700, Note_on_c, 0, 108, 0
2, 233760, Note_on_c, 0, 100, 0
2, 233760, Note_on_c, 0, 88, 0
2, 233760, Note_on_c, 0, 75, 0
2, 233760, Note_on_c, 0, 99, 100
2, 233760, Note_on_c, 0, 87, 100
2, 233760, Note_on_c, 0, 74, 100
2, 233760, Note_on_c, 0, 61, 100
2, 234000, Note_on_c, 0, 99, 0
2, 234000, Note_on_c, 0, 87, 0
2, 234000, Note_on_c, 0, 74, 0
2, 234000, Note_on_c, 0, 61, 0
2, 234000, Note_on_c, 0, 98, 100
2, 234000, Note_on_c, 0, 86, 100
2, 234240, Note_on_c, 0, 98, 0
2, 234240, Note_on_c, 0, 86, 0
2, 234240, Note_on_c, 0, 97, 100
2, 234240, Note_on_c, 0, 85, 100
2, 234240, Note_on_c, 0, 73, 100
2, 234240, Note_on_c, 0, 61, 100
2, 235680, Note_on_c, 0, 108, 100
2, 236160, Note_on_c, 0, 97, 0
2, 236160, Note_on_c, 0, 85, 0
2, 236160, Note_on_c, 0, 73, 0
2, 236160, Note_on_c, 0, 61, 0
2, 236160, Note_on_c, 0, 99, 100
2, 236160, Note_on_c, 0, 87, 100
2, 236160, Note_on_c, 0, 75, 100
2, 236400, Note_on_c, 0, 99, 0
2, 236400, Note_on_c, 0, 87, 0
2, 236400, Note_on_c, 0, 75, 0
2, 236400, Note_on_c, 0, 97, 100
2, 236400, Note_on_c, 0, 85, 100
2, 236400, Note_on_c, 0, 73, 100
2, 237090, Note_on_c, 0, 106, 0
2, 237090, Note_on_c, 0, 94, 0
2, 237090, Note_on_c, 0, 70, 0
2, 237090, Note_on_c, 0, 82, 0
2, 237090, Note_on_c, 0, 105, 100
2, 237090, Note_on_c, 0, 93, 100
2, 237090, Note_on_c, 0, 69, 100
2, 237090, Note_on_c, 0, 81, 100
2, 237120, Note_on_c, 0, 97, 0
2, 237120, Note_on_c, 0, 85, 0
2, 237120, Note_on_c, 0, 73, 0
2, 237120, Note_on_c, 0, 100, 100
2, 237120, Note_on_c, 0, 88, 100
2, 237120, Note_on_c, 0, 75, 100
2, 237120, Note_on_c, 0, 62, 100
2, 237240, Note_on_c, 0, 108, 0
2, 237360, Note_on_c, 0, 75, 0
2, 237360, Note_on_c, 0, 62, 0
2, 237600, Note_on_c, 0, 100, 0
2, 237600, Note_on_c, 0, 88, 0
2, 237600, Note_on_c, 0, 100, 100
2, 237600, Note_on_c, 0, 88, 100
2, 237600, Note_on_c, 0, 75, 100
2, 237840, Note_on_c, 0, 75, 0
2, 238080, Note_on_c, 0, 100, 0
2, 238080, Note_on_c, 0, 88, 0
2, 238080, Note_on_c, 0, 99, 100
2, 238080, Note_on_c, 0, 87, 100
2, 238080, Note_on_c, 0, 74, 100
2, 238080, Note_on_c, 0, 61, 100
2, 238320, Note_on_c, 0, 99, 0
2, 238320, Note_on_c, 0, 87, 0
2, 238320, Note_on_c, 0, 74, 0
2, 238320, Note_on_c, 0, 61, 0
2, 238320, Note_on_c, 0, 98, 100
2, 238320, Note_on_c, 0, 86, 100
2, 238560, Note_on_c, 0, 98, 0
2, 238560, Note_on_c, 0, 86, 0
2, 238560, Note_on_c, 0, 97, 100
2, 238560, Note_on_c, 0, 85, 100
2, 238560, Note_on_c, 0, 73, 100
2, 238800, Note_on_c, 0, 97, 0
2, 238800, Note_on_c, 0, 85, 0
2, 238800, Note_on_c, 0, 73, 0
2, 238800, Note_on_c, 0, 96, 100
2, 239040, Note_on_c, 0, 96, 0
2, 239040, Note_on_c, 0, 97, 100
2, 239040, Note_on_c, 0, 85, 100
2, 239040, Note_on_c, 0, 73, 100
2, 239040, Note_on_c, 0, 60, 100
2, 239280, Note_on_c, 0, 97, 0
2, 239280, Note_on_c, 0, 85, 0
2, 239280, Note_on_c, 0, 73, 0
2, 239280, Note_on_c, 0, 60, 0
2, 239520, Note_on_c, 0, 97, 100
2, 239520, Note_on_c, 0, 85, 100
2, 239520, Note_on_c, 0, 73, 100
2, 239760, Note_on_c, 0, 97, 0
2, 239760, Note_on_c, 0, 85, 0
2, 239760, Note_on_c, 0, 73, 0
2, 239760, Note_on_c, 0, 96, 100
2, 239970, Note_on_c, 0, 103, 100
2, 239970, Note_on_c, 0, 91, 100
2, 239970, Note_on_c, 0, 79, 100
2, 239970, Note_on_c, 0, 67, 100
2, 240000, Note_on_c, 0, 96, 0
2, 240000, Note_on_c, 0, 97, 100
2, 240000, Note_on_c, 0, 85, 100
2, 240000, Note_on_c, 0, 73, 100
2, 240000, Note_on_c, 0, 62, 100
2, 240240, Note_on_c, 0, 97, 0
2, 240240, Note_on_c, 0, 85, 0
2, 240240, Note_on_c, 0, 73, 0
2, 240240, Note_on_c, 0, 62, 0
2, 240240, Note_on_c, 0, 99, 100
2, 240240, Note_on_c, 0, 87, 100
2, 240240, Note_on_c, 0, 74, 100
2, 240480, Note_on_c, 0, 99, 0
2, 240480, Note_on_c, 0, 87, 0
2, 240480, Note_on_c, 0, 74, 0
2, 240480, Note_on_c, 0, 98, 100
2, 240480, Note_on_c, 0, 86, 100
2, 240480, Note_on_c, 0, 73, 100
2, 240480, Note_on_c, 0, 61, 100
2, 240720, Note_on_c, 0, 98, 0
2, 240720, Note_on_c, 0, 86, 0
2, 240720, Note_on_c, 0, 73, 0
2, 240720, Note_on_c, 0, 61, 0
2, 240720, Note_on_c, 0, 97, 100
2, 240720, Note_on_c, 0, 85, 100
2, 240960, Note_on_c, 0, 97, 0
2, 240960, Note_on_c, 0, 85, 0
2, 240960, Note_on_c, 0, 96, 100
2, 240960, Note_on_c, 0, 84, 100
2, 240960, Note_on_c, 0, 72, 100
2, 240960, Note_on_c, 0, 60, 100
2, 240960, Note_on_c, 0, 108, 100
2, 242280, Note_on_c, 0, 108, 0
2, 242400, Note_on_c, 0, 108, 100
2, 242850, Note_on_c, 0, 105, 0
2, 242850, Note_on_c, 0, 93, 0
2, 242850, Note_on_c, 0, 69, 0
2, 242850, Note_on_c, 0, 81, 0
2, 242850, Note_on_c, 0, 103, 0
2, 242850, Note_on_c, 0, 91, 0
2, 242850, Note_on_c, 0, 79, 0
2, 242850, Note_on_c, 0, 67, 0
2, 242850, Note_on_c, 0, 106, 100
2, 242850, Note_on_c, 0, 94, 100
2, 242850, Note_on_c, 0, 70, 100
2, 242850, Note_on_c, 0, 82, 100
2, 242880, Note_on_c, 0, 96, 0
2, 242880, Note_on_c, 0, 84, 0
2, 242880, Note_on_c, 0, 72, 0
2, 242880, Note_on_c, 0, 60, 0
2, 242880, Note_on_c, 0, 108, 0
2, 243120, Note_on_c, 0, 100, 100
2, 243120, Note_on_c, 0, 88, 100
2, 243120, Note_on_c, 0, 75, 100
2, 243120, Note_on_c, 0, 62, 100
2, 243360, Note_on_c, 0, 100, 0
2, 243360, Note_on_c, 0, 88, 0
2, 243360, Note_on_c, 0, 75, 0
2, 243360, Note_on_c, 0, 62, 0
2, 243360, Note_on_c, 0, 97, 100
2, 243360, Note_on_c, 0, 85, 100
2, 243360, Note_on_c, 0, 72, 100
2, 243600, Note_on_c, 0, 97, 0
2, 243600, Note_on_c, 0, 85, 0
2, 243600, Note_on_c, 0, 72, 0
2, 243600, Note_on_c, 0, 97, 100
2, 243840, Note_on_c, 0, 97, 0
2, 243840, Note_on_c, 0, 99, 100
2, 243840, Note_on_c, 0, 87, 100
2, 243840, Note_on_c, 0, 74, 100
2, 243840, Note_on_c, 0, 61, 100
2, 244080, Note_on_c, 0, 99, 0
2, 244080, Note_on_c, 0, 87, 0
2, 244080, Note_on_c, 0, 74, 0
2, 244080, Note_on_c, 0, 61, 0
2, 244080, Note_on_c, 0, 97, 100
2, 244080, Note_on_c, 0, 85, 100
2, 244080, Note_on_c, 0, 72, 100
2, 244320, Note_on_c, 0, 85, 0
2, 244320, Note_on_c, 0, 72, 0
2, 244560, Note_on_c, 0, 97, 0
2, 244560, Note_on_c, 0, 98, 100
2, 244560, Note_on_c, 0, 86, 100
2, 244560, Note_on_c, 0, 73, 100
2, 244560, Note_on_c, 0, 60, 100
2, 244800, Note_on_c, 0, 98, 0
2, 244800, Note_on_c, 0, 86, 0
2, 244800, Note_on_c, 0, 73, 0
2, 244800, Note_on_c, 0, 60, 0
2, 244800, Note_on_c, 0, 96, 100
2, 244800, Note_on_c, 0, 84, 100
2, 244800, Note_on_c, 0, 108, 100
2, 244800, Note_on_c, 0, 72, 100
2, 245040, Note_on_c, 0, 96, 0
2, 245040, Note_on_c, 0, 84, 0
2, 245040, Note_on_c, 0, 108, 0
2, 245040, Note_on_c, 0, 72, 0
2, 245040, Note_on_c, 0, 96, 100
2, 245280, Note_on_c, 0, 96, 0
2, 245280, Note_on_c, 0, 97, 100
2, 245280, Note_on_c, 0, 85, 100
2, 245280, Note_on_c, 0, 72, 100
2, 245280, Note_on_c, 0, 108, 100
2, 245280, Note_on_c, 0, 60, 100
2, 245520, Note_on_c, 0, 97, 0
2, 245520, Note_on_c, 0, 85, 0
2, 245520, Note_on_c, 0, 72, 0
2, 245520, Note_on_c, 0, 60, 0
2, 245640, Note_on_c, 0, 108, 0
2, 245760, Note_on_c, 0, 97, 100
2, 245760, Note_on_c, 0, 98, 100
2, 245760, Note_on_c, 0, 86, 100
2, 245760, Note_on_c, 0, 73, 100
2, 245760, Note_on_c, 0, 61, 100
2, 245760, Note_on_c, 0, 108, 100
2, 246000, Note_on_c, 0, 108, 0
2, 246240, Note_on_c, 0, 97, 0
2, 246240, Note_on_c, 0, 98, 0
2, 246240, Note_on_c, 0, 98, 100
2, 246240, Note_on_c, 0, 108, 100
2, 246360, Note_on_c, 0, 108, 0
2, 246480, Note_on_c, 0, 86, 0
2, 246480, Note_on_c, 0, 73, 0
2, 246480, Note_on_c, 0, 61, 0
2, 246480, Note_on_c, 0, 98, 0
2, 246480, Note_on_c, 0, 108, 100
2, 246560, Note_on_c, 0, 99, 100
2, 246560, Note_on_c, 0, 87, 100
2, 246690, Text_t, "drum_double"
2, 246720, Note_on_c, 0, 99, 0
2, 246720, Note_on_c, 0, 87, 0
2, 246720, Note_on_c, 0, 98, 100
2, 246720, Note_on_c, 0, 86, 100
2, 246840, Note_on_c, 0, 108, 0
2, 246880, Note_on_c, 0, 98, 0
2, 246880, Note_on_c, 0, 86, 0
2, 246880, Note_on_c, 0, 97, 100
2, 247040, Note_on_c, 0, 97, 0
2, 247040, Note_on_c, 0, 96, 100
2, 247040, Note_on_c, 0, 84, 100
2, 247200, Note_on_c, 0, 96, 0
2, 247200, Note_on_c, 0, 84, 0
2, 247200, Note_on_c, 0, 98, 100
2, 247200, Note_on_c, 0, 86, 100
2, 247200, Note_on_c, 0, 74, 100
2, 247200, Note_on_c, 0, 62, 100
2, 247200, Note_on_c, 0, 108, 100
2, 247440, Note_on_c, 0, 98, 0
2, 247440, Note_on_c, 0, 86, 0
2, 247440, Note_on_c, 0, 74, 0
2, 247440, Note_on_c, 0, 62, 0
2, 247440, Note_on_c, 0, 108, 0
2, 247440, Note_on_c, 0, 96, 100
2, 247680, Note_on_c, 0, 96, 0
2, 247680, Note_on_c, 0, 96, 100
2, 247680, Note_on_c, 0, 84, 100
2, 247680, Note_on_c, 0, 72, 100
2, 247680, Note_on_c, 0, 108, 100
2, 247920, Note_on_c, 0, 96, 0
2, 247920, Note_on_c, 0, 84, 0
2, 247920, Note_on_c, 0, 72, 0
2, 247920, Note_on_c, 0, 108, 0
2, 248130, Note_on_c, 0, 106, 0
2, 248130, Note_on_c, 0, 94, 0
2, 248130, Note_on_c, 0, 70, 0
2, 248130, Note_on_c, 0, 82, 0
2, 248160, Note_on_c, 0, 108, 100
2, 248370, Note_on_c, 0, 105, 100
2, 248370, Note_on_c, 0, 93, 100
2, 248370, Note_on_c, 0, 69, 100
2, 248370, Note_on_c, 0, 81, 100
2, 248400, Note_on_c, 0, 108, 0
2, 248400, Note_on_c, 0, 96, 100
2, 248400, Note_on_c, 0, 85, 100
2, 248520, Note_on_c, 0, 96, 0
2, 248520, Note_on_c, 0, 97, 100
2, 248610, Text_t, "drum_normal"
2, 248640, Note_on_c, 0, 85, 0
2, 248640, Note_on_c, 0, 73, 100
2, 248640, Note_on_c, 0, 61, 100
2, 248640, Note_on_c, 0, 108, 100
2, 248760, Note_on_c, 0, 97, 0
2, 248760, Note_on_c, 0, 108, 0
2, 248880, Note_on_c, 0, 73, 0
2, 248880, Note_on_c, 0, 61, 0
2, 248880, Note_on_c, 0, 97, 100
2, 248880, Note_on_c, 0, 85, 100
2, 248880, Note_on_c, 0, 108, 100
2, 249120, Note_on_c, 0, 97, 0
2, 249120, Note_on_c, 0, 85, 0
2, 249120, Note_on_c, 0, 108, 0
2, 249120, Note_on_c, 0, 97, 100
2, 249120, Note_on_c, 0, 85, 100
2, 249120, Note_on_c, 0, 73, 100
2, 249360, Note_on_c, 0, 97, 0
2, 249360, Note_on_c, 0, 85, 0
2, 249360, Note_on_c, 0, 73, 0
2, 249360, Note_on_c, 0, 97, 100
2, 249360, Note_on_c, 0, 85, 100
2, 249600, Note_on_c, 0, 97, 0
2, 249600, Note_on_c, 0, 85, 0
2, 249600, Note_on_c, 0, 99, 100
2, 249600, Note_on_c, 0, 100, 100
2, 249600, Note_on_c, 0, 87, 100
2, 249600, Note_on_c, 0, 74, 100
2, 249600, Note_on_c, 0, 62, 100
2, 250080, Note_on_c, 0, 99, 0
2, 250080, Note_on_c, 0, 100, 0
2, 250080, Note_on_c, 0, 87, 0
2, 250080, Note_on_c, 0, 74, 0
2, 250080, Note_on_c, 0, 62, 0
2, 250080, Note_on_c, 0, 97, 100
2, 250080, Note_on_c, 0, 85, 100
2, 250080, Note_on_c, 0, 72, 100
2, 250290, Note_on_c, 0, 105, 0
2, 250290, Note_on_c, 0, 93, 0
2, 250290, Note_on_c, 0, 69, 0
2, 250290, Note_on_c, 0, 81, 0
2, 250290, Note_on_c, 0, 106, 100
2, 250290, Note_on_c, 0, 94, 100
2, 250290, Note_on_c, 0, 82, 100
2, 250290, Note_on_c, 0, 70, 100
2, 250320, Note_on_c, 0, 97, 0
2, 250320, Note_on_c, 0, 85, 0
2, 250320, Note_on_c, 0, 72, 0
2, 250320, Note_on_c, 0, 96, 100
2, 250320, Note_on_c, 0, 84, 100
2, 250560, Note_on_c, 0, 96, 0
2, 250560, Note_on_c, 0, 84, 0
2, 250560, Note_on_c, 0, 97, 100
2, 250560, Note_on_c, 0, 85, 100
2, 250560, Note_on_c, 0, 73, 100
2, 250560, Note_on_c, 0, 61, 100
2, 250800, Note_on_c, 0, 97, 0
2, 250800, Note_on_c, 0, 85, 0
2, 250800, Note_on_c, 0, 73, 0
2, 250800, Note_on_c, 0, 61, 0
2, 250800, Note_on_c, 0, 97, 100
2, 250800, Note_on_c, 0, 85, 100
2, 251040, Note_on_c, 0, 97, 0
2, 251040, Note_on_c, 0, 85, 0
2, 251040, Note_on_c, 0, 97, 100
2, 251040, Note_on_c, 0, 85, 100
2, 251040, Note_on_c, 0, 73, 100
2, 251040, Note_on_c, 0, 108, 100
2, 251280, Note_on_c, 0, 97, 0
2, 251280, Note_on_c, 0, 85, 0
2, 251280, Note_on_c, 0, 73, 0
2, 251280, Note_on_c, 0, 97, 100
2, 251280, Note_on_c, 0, 85, 100
2, 251520, Note_on_c, 0, 97, 0
2, 251520, Note_on_c, 0, 85, 0
2, 251520, Note_on_c, 0, 99, 100
2, 251520, Note_on_c, 0, 100, 100
2, 251520, Note_on_c, 0, 87, 100
2, 251520, Note_on_c, 0, 74, 100
2, 251520, Note_on_c, 0, 62, 100
2, 252000, Note_on_c, 0, 99, 0
2, 252000, Note_on_c, 0, 100, 0
2, 252000, Note_on_c, 0, 87, 0
2, 252000, Note_on_c, 0, 74, 0
2, 252000, Note_on_c, 0, 62, 0
2, 252210, Note_on_c, 0, 106, 0
2, 252210, Note_on_c, 0, 94, 0
2, 252210, Note_on_c, 0, 82, 0
2, 252210, Note_on_c, 0, 70, 0
2, 252210, Note_on_c, 0, 105, 100
2, 252210, Note_on_c, 0, 93, 100
2, 252210, Note_on_c, 0, 81, 100
2, 252210, Note_on_c, 0, 69, 100
2, 252240, Note_on_c, 0, 100, 100
2, 252360, Note_on_c, 0, 87, 100
2, 252360, Note_on_c, 0, 75, 100
2, 252360, Note_on_c, 0, 62, 100
2, 252480, Note_on_c, 0, 108, 0
2, 252480, Note_on_c, 0, 100, 0
2, 252600, Note_on_c, 0, 87, 0
2, 252600, Note_on_c, 0, 75, 0
2, 252600, Note_on_c, 0, 62, 0
2, 252600, Note_on_c, 0, 99, 100
2, 252720, Note_on_c, 0, 99, 0
2, 252720, Note_on_c, 0, 85, 100
2, 252720, Note_on_c, 0, 98, 100
2, 252840, Note_on_c, 0, 85, 0
2, 252840, Note_on_c, 0, 98, 0
2, 252840, Note_on_c, 0, 97, 100
2, 252960, Note_on_c, 0, 97, 0
2, 252960, Note_on_c, 0, 86, 100
2, 252960, Note_on_c, 0, 74, 100
2, 252960, Note_on_c, 0, 99, 100
2, 253200, Note_on_c, 0, 86, 0
2, 253200, Note_on_c, 0, 74, 0
2, 253200, Note_on_c, 0, 99, 0
2, 253440, Note_on_c, 0, 98, 100
2, 253440, Note_on_c, 0, 85, 100
2, 253440, Note_on_c, 0, 73, 100
2, 253440, Note_on_c, 0, 61, 100
2, 253680, Note_on_c, 0, 98, 0
2, 253680, Note_on_c, 0, 85, 0
2, 253680, Note_on_c, 0, 73, 0
2, 253680, Note_on_c, 0, 61, 0
2, 253920, Note_on_c, 0, 99, 100
2, 253920, Note_on_c, 0, 86, 100
2, 253920, Note_on_c, 0, 74, 100
2, 254160, Note_on_c, 0, 99, 0
2, 254160, Note_on_c, 0, 86, 0
2, 254160, Note_on_c, 0, 74, 0
2, 254160, Note_on_c, 0, 98, 100
2, 254160, Note_on_c, 0, 85, 100
2, 254400, Note_on_c, 0, 98, 0
2, 254400, Note_on_c, 0, 85, 0
2, 254400, Note_on_c, 0, 97, 100
2, 254400, Note_on_c, 0, 84, 100
2, 254400, Note_on_c, 0, 72, 100
2, 254400, Note_on_c, 0, 60, 100
2, 254640, Note_on_c, 0, 97, 0
2, 254640, Note_on_c, 0, 84, 0
2, 254640, Note_on_c, 0, 72, 0
2, 254640, Note_on_c, 0, 60, 0
2, 254640, Note_on_c, 0, 96, 100
2, 254850, Note_on_c, 0, 105, 0
2, 254850, Note_on_c, 0, 93, 0
2, 254850, Note_on_c, 0, 81, 0
2, 254850, Note_on_c, 0, 69, 0
2, 254850, Note_on_c, 0, 106, 100
2, 254850, Note_on_c, 0, 94, 100
2, 254850, Note_on_c, 0, 70, 100
2, 254850, Note_on_c, 0, 82, 100
2, 254880, Note_on_c, 0, 96, 0
2, 254880, Note_on_c, 0, 99, 100
2, 254880, Note_on_c, 0, 87, 100
2, 254880, Note_on_c, 0, 75, 100
2, 254880, Note_on_c, 0, 62, 100
2, 256080, Note_on_c, 0, 87, 0
2, 256080, Note_on_c, 0, 75, 0
2, 256080, Note_on_c, 0, 62, 0
2, 256290, Note_on_c, 0, 106, 0
2, 256290, Note_on_c, 0, 94, 0
2, 256290, Note_on_c, 0, 70, 0
2, 256290, Note_on_c, 0, 82, 0
2, 256290, Note_on_c, 0, 105, 100
2, 256290, Note_on_c, 0, 93, 100
2, 256290, Note_on_c, 0, 69, 100
2, 256290, Note_on_c, 0, 81, 100
2, 256320, Note_on_c, 0, 99, 0
2, 256320, Note_on_c, 0, 96, 100
2, 256320, Note_on_c, 0, 98, 100
2, 256320, Note_on_c, 0, 84, 100
2, 256320, Note_on_c, 0, 86, 100
2, 256320, Note_on_c, 0, 72, 100
2, 256320, Note_on_c, 0, 60, 100
2, 256560, Note_on_c, 0, 72, 0
2, 257040, Note_on_c, 0, 84, 0
2, 257040, Note_on_c, 0, 86, 0
2, 257250, Note_on_c, 0, 105, 0
2, 257250, Note_on_c, 0, 93, 0
2, 257250, Note_on_c, 0, 69, 0
2, 257250, Note_on_c, 0, 81, 0
2, 257250, Note_on_c, 0, 106, 100
2, 257250, Note_on_c, 0, 94, 100
2, 257250, Note_on_c, 0, 70, 100
2, 257250, Note_on_c, 0, 82, 100
2, 257250, Note_on_c, 0, 103, 100
2, 257250, Note_on_c, 0, 91, 100
2, 257250, Note_on_c, 0, 79, 100
2, 257250, Note_on_c, 0, 67, 100
2, 257280, Note_on_c, 0, 96, 0
2, 257280, Note_on_c, 0, 98, 0
2, 257280, Note_on_c, 0, 60, 0
2, 257280, Note_on_c, 0, 99, 100
2, 257280, Note_on_c, 0, 86, 100
2, 257280, Note_on_c, 0, 74, 100
2, 257280, Note_on_c, 0, 62, 100
2, 257520, Note_on_c, 0, 99, 0
2, 257520, Note_on_c, 0, 86, 0
2, 257520, Note_on_c, 0, 74, 0
2, 257520, Note_on_c, 0, 100, 100
2, 257520, Note_on_c, 0, 87, 100
2, 257520, Note_on_c, 0, 75, 100
2, 257760, Note_on_c, 0, 100, 0
2, 257760, Note_on_c, 0, 87, 0
2, 257760, Note_on_c, 0, 75, 0
2, 257760, Note_on_c, 0, 99, 100
2, 257760, Note_on_c, 0, 86, 100
2, 257760, Note_on_c, 0, 74, 100
2, 258210, Note_on_c, 0, 67, 0
2, 258240, Note_on_c, 0, 62, 0
2, 258450, Note_on_c, 0, 91, 0
2, 258450, Note_on_c, 0, 79, 0
2, 258480, Note_on_c, 0, 86, 0
2, 258480, Note_on_c, 0, 74, 0
2, 258690, Note_on_c, 0, 106, 0
2, 258690, Note_on_c, 0, 94, 0
2, 258690, Note_on_c, 0, 70, 0
2, 258690, Note_on_c, 0, 82, 0
2, 258690, Note_on_c, 0, 103, 0
2, 258690, Note_on_c, 0, 105, 100
2, 258690, Note_on_c, 0, 93, 100
2, 258690, Note_on_c, 0, 69, 100
2, 258690, Note_on_c, 0, 81, 100
2, 258720, Note_on_c, 0, 99, 0
2, 258720, Note_on_c, 0, 97, 100
2, 258720, Note_on_c, 0, 99, 100
2, 258720, Note_on_c, 0, 86, 100
2, 258720, Note_on_c, 0, 73, 100
2, 258720, Note_on_c, 0, 61, 100
2, 258960, Note_on_c, 0, 97, 0
2, 258960, Note_on_c, 0, 99, 0
2, 258960, Note_on_c, 0, 86, 0
2, 258960, Note_on_c, 0, 73, 0
2, 258960, Note_on_c, 0, 61, 0
2, 259200, Note_on_c, 0, 98, 100
2, 259200, Note_on_c, 0, 99, 100
2, 259200, Note_on_c, 0, 87, 100
2, 259200, Note_on_c, 0, 74, 100
2, 259200, Note_on_c, 0, 62, 100
2, 259440, Note_on_c, 0, 98, 0
2, 259440, Note_on_c, 0, 99, 0
2, 259440, Note_on_c, 0, 87, 0
2, 259440, Note_on_c, 0, 74, 0
2, 259440, Note_on_c, 0, 62, 0
2, 259680, Note_on_c, 0, 96, 100
2, 259680, Note_on_c, 0, 98, 100
2, 259680, Note_on_c, 0, 85, 100
2, 259680, Note_on_c, 0, 72, 100
2, 259680, Note_on_c, 0, 60, 100
2, 259920, Note_on_c, 0, 96, 0
2, 259920, Note_on_c, 0, 98, 0
2, 259920, Note_on_c, 0, 85, 0
2, 259920, Note_on_c, 0, 72, 0
2, 259920, Note_on_c, 0, 60, 0
2, 260160, Note_on_c, 0, 97, 100
2, 260160, Note_on_c, 0, 99, 100
2, 260160, Note_on_c, 0, 85, 100
2, 260160, Note_on_c, 0, 87, 100
2, 260160, Note_on_c, 0, 73, 100
2, 260160, Note_on_c, 0, 61, 100
2, 260400, Note_on_c, 0, 73, 0
2, 260880, Note_on_c, 0, 85, 0
2, 260880, Note_on_c, 0, 87, 0
2, 261090, Text_t, "sing_off"
2, 261090, Note_on_c, 0, 105, 0
2, 261090, Note_on_c, 0, 93, 0
2, 261090, Note_on_c, 0, 69, 0
2, 261090, Note_on_c, 0, 81, 0
2, 261090, Note_on_c, 0, 106, 100
2, 261090, Note_on_c, 0, 94, 100
2, 261090, Note_on_c, 0, 70, 100
2, 261090, Note_on_c, 0, 82, 100
2, 261120, Note_on_c, 0, 97, 0
2, 261120, Note_on_c, 0, 99, 0
2, 261120, Note_on_c, 0, 61, 0
2, 261120, Note_on_c, 0, 99, 100
2, 261120, Note_on_c, 0, 86, 100
2, 261120, Note_on_c, 0, 74, 100
2, 261120, Note_on_c, 0, 62, 100
2, 261360, Note_on_c, 0, 99, 0
2, 261360, Note_on_c, 0, 86, 0
2, 261360, Note_on_c, 0, 74, 0
2, 261360, Note_on_c, 0, 100, 100
2, 261360, Note_on_c, 0, 87, 100
2, 261360, Note_on_c, 0, 75, 100
2, 261600, Note_on_c, 0, 100, 0
2, 261600, Note_on_c, 0, 87, 0
2, 261600, Note_on_c, 0, 75, 0
2, 261600, Note_on_c, 0, 99, 100
2, 261600, Note_on_c, 0, 86, 100
2, 261600, Note_on_c, 0, 74, 100
2, 262050, Text_t, "drum_double"
2, 262080, Note_on_c, 0, 62, 0
2, 262320, Note_on_c, 0, 86, 0
2, 262320, Note_on_c, 0, 74, 0
2, 262530, Note_on_c, 0, 106, 0
2, 262530, Note_on_c, 0, 94, 0
2, 262530, Note_on_c, 0, 70, 0
2, 262530, Note_on_c, 0, 82, 0
2, 262530, Note_on_c, 0, 105, 100
2, 262530, Note_on_c, 0, 93, 100
2, 262530, Note_on_c, 0, 69, 100
2, 262530, Note_on_c, 0, 81, 100
2, 262560, Note_on_c, 0, 99, 0
2, 262560, Note_on_c, 0, 98, 100
2, 262560, Note_on_c, 0, 100, 100
2, 262560, Note_on_c, 0, 87, 100
2, 262560, Note_on_c, 0, 74, 100
2, 262560, Note_on_c, 0, 61, 100
2, 262800, Note_on_c, 0, 98, 0
2, 262800, Note_on_c, 0, 100, 0
2, 262800, Note_on_c, 0, 87, 0
2, 262800, Note_on_c, 0, 74, 0
2, 262800, Note_on_c, 0, 61, 0
2, 263040, Note_on_c, 0, 99, 100
2, 263040, Note_on_c, 0, 100, 100
2, 263040, Note_on_c, 0, 88, 100
2, 263040, Note_on_c, 0, 75, 100
2, 263040, Note_on_c, 0, 62, 100
2, 263280, Note_on_c, 0, 99, 0
2, 263280, Note_on_c, 0, 100, 0
2, 263280, Note_on_c, 0, 88, 0
2, 263280, Note_on_c, 0, 75, 0
2, 263280, Note_on_c, 0, 62, 0
2, 263520, Note_on_c, 0, 97, 100
2, 263520, Note_on_c, 0, 99, 100
2, 263520, Note_on_c, 0, 86, 100
2, 263520, Note_on_c, 0, 73, 100
2, 263520, Note_on_c, 0, 61, 100
2, 263760, Note_on_c, 0, 97, 0
2, 263760, Note_on_c, 0, 99, 0
2, 263760, Note_on_c, 0, 86, 0
2, 263760, Note_on_c, 0, 73, 0
2, 263760, Note_on_c, 0, 61, 0
2, 263970, Text_t, "[verse]"
2, 263970, Text_t, "[lighting (sweep)]"
2, 263970, Text_t, "drum_normal"
2, 263970, Note_on_c, 0, 105, 0
2, 263970, Note_on_c, 0, 93, 0
2, 263970, Note_on_c, 0, 69, 0
2, 263970, Note_on_c, 0, 81, 0
2, 263970, Note_on_c, 0, 106, 100
2, 263970, Note_on_c, 0, 94, 100
2, 263970, Note_on_c, 0, 70, 100
2, 263970, Note_on_c, 0, 82, 100
2, 264000, Note_on_c, 0, 96, 100
2, 264000, Note_on_c, 0, 98, 100
2, 264000, Note_on_c, 0, 84, 100
2, 264000, Note_on_c, 0, 86, 100
2, 264000, Note_on_c, 0, 72, 100
2, 264000, Note_on_c, 0, 60, 100
2, 264240, Note_on_c, 0, 72, 0
2, 264720, Note_on_c, 0, 84, 0
2, 264720, Note_on_c, 0, 86, 0
2, 264930, Note_on_c, 0, 106, 0
2, 264930, Note_on_c, 0, 94, 0
2, 264930, Note_on_c, 0, 70, 0
2, 264930, Note_on_c, 0, 82, 0
2, 264930, Note_on_c, 0, 105, 100
2, 264930, Note_on_c, 0, 93, 100
2, 264930, Note_on_c, 0, 69, 100
2, 264930, Note_on_c, 0, 81, 100
2, 264960, Note_on_c, 0, 96, 0
2, 264960, Note_on_c, 0, 98, 0
2, 264960, Note_on_c, 0, 60, 0
2, 264960, Note_on_c, 0, 99, 100
2, 264960, Note_on_c, 0, 86, 100
2, 264960, Note_on_c, 0, 74, 100
2, 264960, Note_on_c, 0, 62, 100
2, 265200, Note_on_c, 0, 99, 0
2, 265200, Note_on_c, 0, 86, 0
2, 265200, Note_on_c, 0, 74, 0
2, 265200, Note_on_c, 0, 100, 100
2, 265200, Note_on_c, 0, 87, 100
2, 265200, Note_on_c, 0, 75, 100
2, 265440, Note_on_c, 0, 100, 0
2, 265440, Note_on_c, 0, 87, 0
2, 265440, Note_on_c, 0, 75, 0
2, 265440, Note_on_c, 0, 99, 100
2, 265440, Note_on_c, 0, 86, 100
2, 265440, Note_on_c, 0, 74, 100
2, 265920, Note_on_c, 0, 62, 0
2, 266160, Note_on_c, 0, 86, 0
2, 266160, Note_on_c, 0, 74, 0
2, 266370, Note_on_c, 0, 105, 0
2, 266370, Note_on_c, 0, 93, 0
2, 266370, Note_on_c, 0, 69, 0
2, 266370, Note_on_c, 0, 81, 0
2, 266370, Note_on_c, 0, 106, 100
2, 266370, Note_on_c, 0, 94, 100
2, 266370, Note_on_c, 0, 70, 100
2, 266370, Note_on_c, 0, 82, 100
2, 266400, Note_on_c, 0, 99, 0
2, 266400, Note_on_c, 0, 97, 100
2, 266400, Note_on_c, 0, 99, 100
2, 266400, Note_on_c, 0, 86, 100
2, 266400, Note_on_c, 0, 73, 100
2, 266400, Note_on_c, 0, 61, 100
2, 266640, Note_on_c, 0, 97, 0
2, 266640, Note_on_c, 0, 99, 0
2, 266640, Note_on_c, 0, 86, 0
2, 266640, Note_on_c, 0, 73, 0
2, 266640, Note_on_c, 0, 61, 0
2, 266880, Note_on_c, 0, 98, 100
2, 266880, Note_on_c, 0, 99, 100
2, 266880, Note_on_c, 0, 87, 100
2, 266880, Note_on_c, 0, 74, 100
2, 266880, Note_on_c, 0, 62, 100
2, 267120, Note_on_c, 0, 98, 0
2, 267120, Note_on_c, 0, 99, 0
2, 267120, Note_on_c, 0, 87, 0
2, 267120, Note_on_c, 0, 74, 0
2, 267120, Note_on_c, 0, 62, 0
2, 267360, Note_on_c, 0, 96, 100
2, 267360, Note_on_c, 0, 98, 100
2, 267360, Note_on_c, 0, 85, 100
2, 267360, Note_on_c, 0, 72, 100
2, 267360, Note_on_c, 0, 60, 100
2, 267600, Note_on_c, 0, 96, 0
2, 267600, Note_on_c, 0, 98, 0
2, 267600, Note_on_c, 0, 85, 0
2, 267600, Note_on_c, 0, 72, 0
2, 267600, Note_on_c, 0, 60, 0
2, 267840, Note_on_c, 0, 97, 100
2, 267840, Note_on_c, 0, 99, 100
2, 267840, Note_on_c, 0, 85, 100
2, 267840, Note_on_c, 0, 87, 100
2, 267840, Note_on_c, 0, 73, 100
2, 267840, Note_on_c, 0, 61, 100
2, 268080, Note_on_c, 0, 73, 0
2, 268080, Note_on_c, 0, 61, 0
2, 268560, Note_on_c, 0, 85, 0
2, 268560, Note_on_c, 0, 87, 0
2, 268770, Note_on_c, 0, 106, 0
2, 268770, Note_on_c, 0, 94, 0
2, 268770, Note_on_c, 0, 70, 0
2, 268770, Note_on_c, 0, 82, 0
2, 268770, Note_on_c, 0, 105, 100
2, 268770, Note_on_c, 0, 93, 100
2, 268770, Note_on_c, 0, 69, 100
2, 268770, Note_on_c, 0, 81, 100
2, 268770, Note_on_c, 0, 103, 100
2, 268770, Note_on_c, 0, 91, 100
2, 268770, Note_on_c, 0, 79, 100
2, 268770, Note_on_c, 0, 67, 100
2, 268800, Note_on_c, 0, 97, 0
2, 268800, Note_on_c, 0, 99, 0
2, 268800, Note_on_c, 0, 99, 100
2, 268800, Note_on_c, 0, 86, 100
2, 268800, Note_on_c, 0, 74, 100
2, 268800, Note_on_c, 0, 62, 100
2, 269040, Note_on_c, 0, 99, 0
2, 269040, Note_on_c, 0, 86, 0
2, 269040, Note_on_c, 0, 74, 0
2, 269040, Note_on_c, 0, 100, 100
2, 269040, Note_on_c, 0, 87, 100
2, 269040, Note_on_c, 0, 75, 100
2, 269280, Note_on_c, 0, 100, 0
2, 269280, Note_on_c, 0, 87, 0
2, 269280, Note_on_c, 0, 75, 0
2, 269280, Note_on_c, 0, 99, 100
2, 269280, Note_on_c, 0, 86, 100
2, 269280, Note_on_c, 0, 74, 100
2, 269730, Note_on_c, 0, 67, 0
2, 269760, Note_on_c, 0, 62, 0
2, 269970, Note_on_c, 0, 91, 0
2, 269970, Note_on_c, 0, 79, 0
2, 270000, Note_on_c, 0, 86, 0
2, 270000, Note_on_c, 0, 74, 0
2, 270210, Note_on_c, 0, 105, 0
2, 270210, Note_on_c, 0, 93, 0
2, 270210, Note_on_c, 0, 69, 0
2, 270210, Note_on_c, 0, 81, 0
2, 270210, Note_on_c, 0, 103, 0
2, 270210, Note_on_c, 0, 106, 100
2, 270210, Note_on_c, 0, 94, 100
2, 270210, Note_on_c, 0, 70, 100
2, 270210, Note_on_c, 0, 82, 100
2, 270240, Note_on_c, 0, 99, 0
2, 270240, Note_on_c, 0, 98, 100
2, 270240, Note_on_c, 0, 100, 100
2, 270240, Note_on_c, 0, 87, 100
2, 270240, Note_on_c, 0, 74, 100
2, 270240, Note_on_c, 0, 61, 100
2, 270480, Note_on_c, 0, 98, 0
2, 270480, Note_on_c, 0, 100, 0
2, 270480, Note_on_c, 0, 87, 0
2, 270480, Note_on_c, 0, 74, 0
2, 270480, Note_on_c, 0, 61, 0
2, 270720, Note_on_c, 0, 99, 100
2, 270720, Note_on_c, 0, 100, 100
2, 270720, Note_on_c, 0, 88, 100
2, 270720, Note_on_c, 0, 75, 100
2, 270720, Note_on_c, 0, 62, 100
2, 270960, Note_on_c, 0, 99, 0
2, 270960, Note_on_c, 0, 100, 0
2, 270960, Note_on_c, 0, 88, 0
2, 270960, Note_on_c, 0, 75, 0
2, 270960, Note_on_c, 0, 62, 0
2, 271200, Note_on_c, 0, 97, 100
2, 271200, Note_on_c, 0, 99, 100
2, 271200, Note_on_c, 0, 86, 100
2, 271200, Note_on_c, 0, 73, 100
2, 271200, Note_on_c, 0, 61, 100
2, 271440, Note_on_c, 0, 97, 0
2, 271440, Note_on_c, 0, 99, 0
2, 271440, Note_on_c, 0, 86, 0
2, 271440, Note_on_c, 0, 73, 0
2, 271440, Note_on_c, 0, 61, 0
2, 271650, Note_on_c, 0, 106, 0
2, 271650, Note_on_c, 0, 94, 0
2, 271650, Note_on_c, 0, 70, 0
2, 271650, Note_on_c, 0, 82, 0
2, 271650, Note_on_c, 0, 105, 100
2, 271650, Note_on_c, 0, 93, 100
2, 271650, Note_on_c, 0, 69, 100
2, 271650, Note_on_c, 0, 81, 100
2, 271680, Note_on_c, 0, 96, 100
2, 271680, Note_on_c, 0, 98, 100
2, 271680, Note_on_c, 0, 84, 100
2, 271680, Note_on_c, 0, 86, 100
2, 271680, Note_on_c, 0, 72, 100
2, 271680, Note_on_c, 0, 60, 100
2, 271680, Note_on_c, 0, 108, 100
2, 271680, Note_on_c, 0, 74, 100
2, 271800, Note_on_c, 0, 108, 0
2, 271920, Note_on_c, 0, 108, 100
2, 272040, Note_on_c, 0, 108, 0
2, 272160, Note_on_c, 0, 108, 100
2, 272280, Note_on_c, 0, 108, 0
2, 272640, Note_on_c, 0, 96, 0
2, 272640, Note_on_c, 0, 98, 0
2, 272640, Note_on_c, 0, 84, 0
2, 272640, Note_on_c, 0, 86, 0
2, 272640, Note_on_c, 0, 72, 0
2, 272640, Note_on_c, 0, 60, 0
2, 272640, Note_on_c, 0, 74, 0
2, 272640, Note_on_c, 0, 108, 100
2, 272880, Note_on_c, 0, 108, 0
2, 273120, Note_on_c, 0, 108, 100
2, 273480, Note_on_c, 0, 108, 0
2, 273600, Note_on_c, 0, 108, 100
2, 273720, Note_on_c, 0, 108, 0
2, 273840, Note_on_c, 0, 108, 100
2, 273960, Note_on_c, 0, 108, 0
2, 274080, Note_on_c, 0, 97, 100
2, 274080, Note_on_c, 0, 99, 100
2, 274080, Note_on_c, 0, 86, 100
2, 274080, Note_on_c, 0, 73, 100
2, 274080, Note_on_c, 0, 61, 100
2, 274080, Note_on_c, 0, 108, 100
2, 274320, Note_on_c, 0, 97, 0
2, 274320, Note_on_c, 0, 99, 0
2, 274320, Note_on_c, 0, 86, 0
2, 274320, Note_on_c, 0, 73, 0
2, 274320, Note_on_c, 0, 61, 0
2, 274320, Note_on_c, 0, 108, 0
2, 274560, Note_on_c, 0, 98, 100
2, 274560, Note_on_c, 0, 99, 100
2, 274560, Note_on_c, 0, 87, 100
2, 274560, Note_on_c, 0, 74, 100
2, 274560, Note_on_c, 0, 62, 100
2, 274560, Note_on_c, 0, 108, 100
2, 274800, Note_on_c, 0, 98, 0
2, 274800, Note_on_c, 0, 99, 0
2, 274800, Note_on_c, 0, 87, 0
2, 274800, Note_on_c, 0, 74, 0
2, 274800, Note_on_c, 0, 62, 0
2, 274800, Note_on_c, 0, 108, 0
2, 275040, Note_on_c, 0, 96, 100
2, 275040, Note_on_c, 0, 98, 100
2, 275040, Note_on_c, 0, 85, 100
2, 275040, Note_on_c, 0, 72, 100
2, 275040, Note_on_c, 0, 108, 100
2, 275040, Note_on_c, 0, 60, 100
2, 275280, Note_on_c, 0, 96, 0
2, 275280, Note_on_c, 0, 98, 0
2, 275280, Note_on_c, 0, 85, 0
2, 275280, Note_on_c, 0, 72, 0
2, 275280, Note_on_c, 0, 108, 0
2, 275280, Note_on_c, 0, 60, 0
2, 275490, Note_on_c, 0, 106, 100
2, 275490, Note_on_c, 0, 94, 100
2, 275490, Note_on_c, 0, 70, 100
2, 275490, Note_on_c, 0, 82, 100
2, 275520, Note_on_c, 0, 97, 100
2, 275520, Note_on_c, 0, 99, 100
2, 275520, Note_on_c, 0, 85, 100
2, 275520, Note_on_c, 0, 87, 100
2, 275520, Note_on_c, 0, 73, 100
2, 275520, Note_on_c, 0, 61, 100
2, 275520, Note_on_c, 0, 108, 100
2, 275520, Note_on_c, 0, 75, 100
2, 275640, Note_on_c, 0, 108, 0
2, 275760, Note_on_c, 0, 108, 100
2, 275880, Note_on_c, 0, 108, 0
2, 276000, Note_on_c, 0, 108, 100
2, 276240, Note_on_c, 0, 108, 0
2, 276450, Note_on_c, 0, 105, 0
2, 276450, Note_on_c, 0, 93, 0
2, 276450, Note_on_c, 0, 69, 0
2, 276450, Note_on_c, 0, 81, 0
2, 276480, Note_on_c, 0, 97, 0
2, 276480, Note_on_c, 0, 99, 0
2, 276480, Note_on_c, 0, 85, 0
2, 276480, Note_on_c, 0, 87, 0
2, 276480, Note_on_c, 0, 73, 0
2, 276480, Note_on_c, 0, 61, 0
2, 276480, Note_on_c, 0, 75, 0
2, 276480, Note_on_c, 0, 108, 100
2, 276720, Note_on_c, 0, 108, 0
2, 276960, Note_on_c, 0, 108, 100
2, 277200, Note_on_c, 0, 108, 0
2, 277440, Note_on_c, 0, 108, 100
2, 277560, Note_on_c, 0, 108, 0
2, 277680, Note_on_c, 0, 108, 100
2, 277800, Note_on_c, 0, 108, 0
2, 277920, Note_on_c, 0, 98, 100
2, 277920, Note_on_c, 0, 100, 100
2, 277920, Note_on_c, 0, 87, 100
2, 277920, Note_on_c, 0, 74, 100
2, 277920, Note_on_c, 0, 61, 100
2, 277920, Note_on_c, 0, 108, 100
2, 278160, Note_on_c, 0, 98, 0
2, 278160, Note_on_c, 0, 100, 0
2, 278160, Note_on_c, 0, 87, 0
2, 278160, Note_on_c, 0, 74, 0
2, 278160, Note_on_c, 0, 61, 0
2, 278160, Note_on_c, 0, 108, 0
2, 278400, Note_on_c, 0, 99, 100
2, 278400, Note_on_c, 0, 100, 100
2, 278400, Note_on_c, 0, 88, 100
2, 278400, Note_on_c, 0, 75, 100
2, 278400, Note_on_c, 0, 62, 100
2, 278400, Note_on_c, 0, 108, 100
2, 278640, Note_on_c, 0, 99, 0
2, 278640, Note_on_c, 0, 100, 0
2, 278640, Note_on_c, 0, 88, 0
2, 278640, Note_on_c, 0, 75, 0
2, 278640, Note_on_c, 0, 62, 0
2, 278880, Note_on_c, 0, 97, 100
2, 278880, Note_on_c, 0, 99, 100
2, 278880, Note_on_c, 0, 86, 100
2, 278880, Note_on_c, 0, 73, 100
2, 278880, Note_on_c, 0, 61, 100
2, 279120, Note_on_c, 0, 97, 0
2, 279120, Note_on_c, 0, 99, 0
2, 279120, Note_on_c, 0, 86, 0
2, 279120, Note_on_c, 0, 73, 0
2, 279120, Note_on_c, 0, 61, 0
2, 279330, Text_t, "sing_on"
2, 279330, Text_t, "wail_off"
2, 279360, Note_on_c, 0, 96, 100
2, 279360, Note_on_c, 0, 98, 100
2, 279360, Note_on_c, 0, 84, 100
2, 279360, Note_on_c, 0, 86, 100
2, 279360, Note_on_c, 0, 72, 100
2, 279360, Note_on_c, 0, 60, 100
2, 279570, Note_on_c, 0, 103, 100
2, 279570, Note_on_c, 0, 91, 100
2, 279570, Note_on_c, 0, 79, 100
2, 279570, Note_on_c, 0, 67, 100
2, 279570, Note_on_c, 0, 105, 100
2, 279570, Note_on_c, 0, 93, 100
2, 279570, Note_on_c, 0, 69, 100
2, 279570, Note_on_c, 0, 81, 100
2, 279600, Note_on_c, 0, 96, 0
2, 279600, Note_on_c, 0, 98, 0
2, 279600, Note_on_c, 0, 84, 0
2, 279600, Note_on_c, 0, 86, 0
2, 279600, Note_on_c, 0, 72, 0
2, 279600, Note_on_c, 0, 60, 0
2, 279840, Note_on_c, 0, 108, 0
2, 279840, Note_on_c, 0, 99, 100
2, 279840, Note_on_c, 0, 87, 100
2, 279840, Note_on_c, 0, 74, 100
2, 279840, Note_on_c, 0, 61, 100
2, 281760, Note_on_c, 0, 108, 100
2, 282000, Note_on_c, 0, 108, 0
2, 282240, Note_on_c, 0, 108, 100
2, 282360, Note_on_c, 0, 108, 0
2, 282480, Note_on_c, 0, 108, 100
2, 282720, Note_on_c, 0, 108, 0
2, 282960, Note_on_c, 0, 87, 0
2, 282960, Note_on_c, 0, 74, 0
2, 282960, Note_on_c, 0, 61, 0
2, 283200, Note_on_c, 0, 99, 0
2, 283200, Note_on_c, 0, 100, 100
2, 283200, Note_on_c, 0, 88, 100
2, 283200, Note_on_c, 0, 75, 100
2, 283200, Note_on_c, 0, 62, 100
2, 286800, Note_on_c, 0, 88, 0
2, 286800, Note_on_c, 0, 75, 0
2, 286800, Note_on_c, 0, 62, 0
2, 287010, Note_on_c, 0, 106, 0
2, 287010, Note_on_c, 0, 94, 0
2, 287010, Note_on_c, 0, 70, 0
2, 287010, Note_on_c, 0, 82, 0
2, 287010, Note_on_c, 0, 103, 0
2, 287010, Note_on_c, 0, 91, 0
2, 287010, Note_on_c, 0, 79, 0
2, 287010, Note_on_c, 0, 67, 0
2, 287040, Note_on_c, 0, 100, 0
2, 287040, Note_on_c, 0, 96, 100
2, 287040, Note_on_c, 0, 98, 100
2, 287040, Note_on_c, 0, 84, 100
2, 287040, Note_on_c, 0, 86, 100
2, 287040, Note_on_c, 0, 72, 100
2, 287040, Note_on_c, 0, 60, 100
2, 287040, Note_on_c, 0, 108, 100
2, 287040, Note_on_c, 0, 74, 100
2, 287160, Note_on_c, 0, 108, 0
2, 287280, Note_on_c, 0, 108, 100
2, 287400, Note_on_c, 0, 108, 0
2, 287520, Note_on_c, 0, 108, 100
2, 287640, Note_on_c, 0, 108, 0
2, 288000, Note_on_c, 0, 96, 0
2, 288000, Note_on_c, 0, 98, 0
2, 288000, Note_on_c, 0, 84, 0
2, 288000, Note_on_c, 0, 86, 0
2, 288000, Note_on_c, 0, 72, 0
2, 288000, Note_on_c, 0, 60, 0
2, 288000, Note_on_c, 0, 74, 0
2, 288000, Note_on_c, 0, 108, 100
2, 288240, Note_on_c, 0, 108, 0
2, 288480, Note_on_c, 0, 108, 100
2, 288840, Note_on_c, 0, 108, 0
2, 288960, Note_on_c, 0, 108, 100
2, 289080, Note_on_c, 0, 108, 0
2, 289200, Note_on_c, 0, 108, 100
2, 289320, Note_on_c, 0, 108, 0
2, 289440, Note_on_c, 0, 97, 100
2, 289440, Note_on_c, 0, 99, 100
2, 289440, Note_on_c, 0, 86, 100
2, 289440, Note_on_c, 0, 73, 100
2, 289440, Note_on_c, 0, 61, 100
2, 289440, Note_on_c, 0, 108, 100
2, 289680, Note_on_c, 0, 97, 0
2, 289680, Note_on_c, 0, 99, 0
2, 289680, Note_on_c, 0, 86, 0
2, 289680, Note_on_c, 0, 73, 0
2, 289680, Note_on_c, 0, 61, 0
2, 289680, Note_on_c, 0, 108, 0
2, 289920, Note_on_c, 0, 98, 100
2, 289920, Note_on_c, 0, 99, 100
2, 289920, Note_on_c, 0, 87, 100
2, 289920, Note_on_c, 0, 74, 100
2, 289920, Note_on_c, 0, 62, 100
2, 289920, Note_on_c, 0, 108, 100
2, 290160, Note_on_c, 0, 98, 0
2, 290160, Note_on_c, 0, 99, 0
2, 290160, Note_on_c, 0, 87, 0
2, 290160, Note_on_c, 0, 74, 0
2, 290160, Note_on_c, 0, 62, 0
2, 290160, Note_on_c, 0, 108, 0
2, 290400, Note_on_c, 0, 96, 100
2, 290400, Note_on_c, 0, 98, 100
2, 290400, Note_on_c, 0, 85, 100
2, 290400, Note_on_c, 0, 72, 100
2, 290400, Note_on_c, 0, 108, 100
2, 290400, Note_on_c, 0, 60, 100
2, 290640, Note_on_c, 0, 96, 0
2, 290640, Note_on_c, 0, 98, 0
2, 290640, Note_on_c, 0, 85, 0
2, 290640, Note_on_c, 0, 72, 0
2, 290640, Note_on_c, 0, 108, 0
2, 290640, Note_on_c, 0, 60, 0
2, 290850, Note_on_c, 0, 106, 100
2, 290850, Note_on_c, 0, 94, 100
2, 290850, Note_on_c, 0, 70, 100
2, 290850, Note_on_c, 0, 82, 100
2, 290880, Note_on_c, 0, 97, 100
2, 290880, Note_on_c, 0, 99, 100
2, 290880, Note_on_c, 0, 85, 100
2, 290880, Note_on_c, 0, 87, 100
2, 290880, Note_on_c, 0, 73, 100
2, 290880, Note_on_c, 0, 61, 100
2, 290880, Note_on_c, 0, 108, 100
2, 290880, Note_on_c, 0, 75, 100
2, 291000, Note_on_c, 0, 108, 0
2, 291120, Note_on_c, 0, 108, 100
2, 291240, Note_on_c, 0, 108, 0
2, 291360, Note_on_c, 0, 108, 100
2, 291600, Note_on_c, 0, 108, 0
2, 291810, Text_t, "drum_allbeat"
2, 291810, Note_on_c, 0, 105, 0
2, 291810, Note_on_c, 0, 93, 0
2, 291810, Note_on_c, 0, 69, 0
2, 291810, Note_on_c, 0, 81, 0
2, 291840, Note_on_c, 0, 97, 0
2, 291840, Note_on_c, 0, 99, 0
2, 291840, Note_on_c, 0, 85, 0
2, 291840, Note_on_c, 0, 87, 0
2, 291840, Note_on_c, 0, 73, 0
2, 291840, Note_on_c, 0, 61, 0
2, 291840, Note_on_c, 0, 75, 0
2, 291840, Note_on_c, 0, 108, 100
2, 292080, Note_on_c, 0, 108, 0
2, 292320, Note_on_c, 0, 108, 100
2, 292560, Note_on_c, 0, 108, 0
2, 292800, Note_on_c, 0, 108, 100
2, 292920, Note_on_c, 0, 108, 0
2, 293040, Note_on_c, 0, 108, 100
2, 293160, Note_on_c, 0, 108, 0
2, 293280, Note_on_c, 0, 98, 100
2, 293280, Note_on_c, 0, 100, 100
2, 293280, Note_on_c, 0, 87, 100
2, 293280, Note_on_c, 0, 74, 100
2, 293280, Note_on_c, 0, 61, 100
2, 293280, Note_on_c, 0, 108, 100
2, 293520, Note_on_c, 0, 98, 0
2, 293520, Note_on_c, 0, 100, 0
2, 293520, Note_on_c, 0, 87, 0
2, 293520, Note_on_c, 0, 74, 0
2, 293520, Note_on_c, 0, 61, 0
2, 293520, Note_on_c, 0, 108, 0
2, 293760, Note_on_c, 0, 99, 100
2, 293760, Note_on_c, 0, 100, 100
2, 293760, Note_on_c, 0, 88, 100
2, 293760, Note_on_c, 0, 75, 100
2, 293760, Note_on_c, 0, 62, 100
2, 293760, Note_on_c, 0, 108, 100
2, 294000, Note_on_c, 0, 99, 0
2, 294000, Note_on_c, 0, 100, 0
2, 294000, Note_on_c, 0, 88, 0
2, 294000, Note_on_c, 0, 75, 0
2, 294000, Note_on_c, 0, 62, 0
2, 294240, Note_on_c, 0, 97, 100
2, 294240, Note_on_c, 0, 99, 100
2, 294240, Note_on_c, 0, 86, 100
2, 294240, Note_on_c, 0, 73, 100
2, 294240, Note_on_c, 0, 61, 100
2, 294480, Note_on_c, 0, 97, 0
2, 294480, Note_on_c, 0, 99, 0
2, 294480, Note_on_c, 0, 86, 0
2, 294480, Note_on_c, 0, 73, 0
2, 294480, Note_on_c, 0, 61, 0
2, 294690, Text_t, "drum_normal"
2, 294720, Note_on_c, 0, 96, 100
2, 294720, Note_on_c, 0, 98, 100
2, 294720, Note_on_c, 0, 84, 100
2, 294720, Note_on_c, 0, 86, 100
2, 294720, Note_on_c, 0, 72, 100
2, 294720, Note_on_c, 0, 60, 100
2, 294960, Note_on_c, 0, 96, 0
2, 294960, Note_on_c, 0, 98, 0
2, 294960, Note_on_c, 0, 84, 0
2, 294960, Note_on_c, 0, 86, 0
2, 294960, Note_on_c, 0, 72, 0
2, 294960, Note_on_c, 0, 60, 0
2, 295170, Note_on_c, 0, 105, 100
2, 295170, Note_on_c, 0, 93, 100
2, 295170, Note_on_c, 0, 69, 100
2, 295170, Note_on_c, 0, 81, 100
2, 295200, Note_on_c, 0, 99, 100
2, 295200, Note_on_c, 0, 87, 100
2, 295200, Note_on_c, 0, 74, 100
2, 295200, Note_on_c, 0, 61, 100
2, 295320, Note_on_c, 0, 108, 0
2, 297120, Note_on_c, 0, 108, 100
2, 297360, Note_on_c, 0, 108, 0
2, 297600, Note_on_c, 0, 108, 100
2, 297720, Note_on_c, 0, 108, 0
2, 297840, Note_on_c, 0, 108, 100
2, 298080, Note_on_c, 0, 108, 0
2, 298320, Note_on_c, 0, 87, 0
2, 298320, Note_on_c, 0, 74, 0
2, 298320, Note_on_c, 0, 61, 0
2, 298560, Note_on_c, 0, 99, 0
2, 298560, Note_on_c, 0, 100, 100
2, 298560, Note_on_c, 0, 88, 100
2, 298560, Note_on_c, 0, 75, 100
2, 298560, Note_on_c, 0, 62, 100
2, 302160, Note_on_c, 0, 88, 0
2, 302160, Note_on_c, 0, 75, 0
2, 302160, Note_on_c, 0, 62, 0
2, 302370, Note_on_c, 0, 106, 0
2, 302370, Note_on_c, 0, 94, 0
2, 302370, Note_on_c, 0, 70, 0
2, 302370, Note_on_c, 0, 82, 0
2, 302400, Note_on_c, 0, 100, 0
2, 302400, Note_on_c, 0, 96, 100
2, 302400, Note_on_c, 0, 98, 100
2, 302400, Note_on_c, 0, 84, 100
2, 302400, Note_on_c, 0, 86, 100
2, 302400, Note_on_c, 0, 72, 100
2, 302400, Note_on_c, 0, 60, 100
2, 302400, Note_on_c, 0, 108, 100
2, 302400, Note_on_c, 0, 74, 100
2, 302520, Note_on_c, 0, 108, 0
2, 302640, Note_on_c, 0, 108, 100
2, 302760, Note_on_c, 0, 108, 0
2, 302880, Note_on_c, 0, 108, 100
2, 303000, Note_on_c, 0, 108, 0
2, 303360, Note_on_c, 0, 96, 0
2, 303360, Note_on_c, 0, 98, 0
2, 303360, Note_on_c, 0, 84, 0
2, 303360, Note_on_c, 0, 86, 0
2, 303360, Note_on_c, 0, 72, 0
2, 303360, Note_on_c, 0, 60, 0
2, 303360, Note_on_c, 0, 74, 0
2, 303360, Note_on_c, 0, 108, 100
2, 303600, Note_on_c, 0, 108, 0
2, 303840, Note_on_c, 0, 108, 100
2, 304200, Note_on_c, 0, 108, 0
2, 304320, Note_on_c, 0, 108, 100
2, 304440, Note_on_c, 0, 108, 0
2, 304560, Note_on_c, 0, 108, 100
2, 304680, Note_on_c, 0, 108, 0
2, 304800, Note_on_c, 0, 97, 100
2, 304800, Note_on_c, 0, 99, 100
2, 304800, Note_on_c, 0, 86, 100
2, 304800, Note_on_c, 0, 73, 100
2, 304800, Note_on_c, 0, 61, 100
2, 304800, Note_on_c, 0, 108, 100
2, 305040, Note_on_c, 0, 97, 0
2, 305040, Note_on_c, 0, 99, 0
2, 305040, Note_on_c, 0, 86, 0
2, 305040, Note_on_c, 0, 73, 0
2, 305040, Note_on_c, 0, 61, 0
2, 305040, Note_on_c, 0, 108, 0
2, 305280, Note_on_c, 0, 98, 100
2, 305280, Note_on_c, 0, 99, 100
2, 305280, Note_on_c, 0, 87, 100
2, 305280, Note_on_c, 0, 74, 100
2, 305280, Note_on_c, 0, 62, 100
2, 305280, Note_on_c, 0, 108, 100
2, 305520, Note_on_c, 0, 98, 0
2, 305520, Note_on_c, 0, 99, 0
2, 305520, Note_on_c, 0, 87, 0
2, 305520, Note_on_c, 0, 74, 0
2, 305520, Note_on_c, 0, 62, 0
2, 305520, Note_on_c, 0, 108, 0
2, 305760, Note_on_c, 0, 96, 100
2, 305760, Note_on_c, 0, 98, 100
2, 305760, Note_on_c, 0, 85, 100
2, 305760, Note_on_c, 0, 72, 100
2, 305760, Note_on_c, 0, 108, 100
2, 305760, Note_on_c, 0, 60, 100
2, 306000, Note_on_c, 0, 96, 0
2, 306000, Note_on_c, 0, 98, 0
2, 306000, Note_on_c, 0, 85, 0
2, 306000, Note_on_c, 0, 72, 0
2, 306000, Note_on_c, 0, 108, 0
2, 306000, Note_on_c, 0, 60, 0
2, 306210, Text_t, "drum_allbeat"
2, 306210, Note_on_c, 0, 106, 100
2, 306210, Note_on_c, 0, 94, 100
2, 306210, Note_on_c, 0, 70, 100
2, 306210, Note_on_c, 0, 82, 100
2, 306240, Note_on_c, 0, 97, 100
2, 306240, Note_on_c, 0, 99, 100
2, 306240, Note_on_c, 0, 85, 100
2, 306240, Note_on_c, 0, 87, 100
2, 306240, Note_on_c, 0, 73, 100
2, 306240, Note_on_c, 0, 61, 100
2, 306240, Note_on_c, 0, 108, 100
2, 306240, Note_on_c, 0, 75, 100
2, 306360, Note_on_c, 0, 108, 0
2, 306480, Note_on_c, 0, 108, 100
2, 306600, Note_on_c, 0, 108, 0
2, 306720, Note_on_c, 0, 108, 100
2, 306960, Note_on_c, 0, 108, 0
2, 307170, Note_on_c, 0, 105, 0
2, 307170, Note_on_c, 0, 93, 0
2, 307170, Note_on_c, 0, 69, 0
2, 307170, Note_on_c, 0, 81, 0
2, 307200, Note_on_c, 0, 97, 0
2, 307200, Note_on_c, 0, 99, 0
2, 307200, Note_on_c, 0, 85, 0
2, 307200, Note_on_c, 0, 87, 0
2, 307200, Note_on_c, 0, 73, 0
2, 307200, Note_on_c, 0, 61, 0
2, 307200, Note_on_c, 0, 75, 0
2, 307200, Note_on_c, 0, 108, 100
2, 307440, Note_on_c, 0, 108, 0
2, 307680, Note_on_c, 0, 108, 100
2, 307920, Note_on_c, 0, 108, 0
2, 308160, Note_on_c, 0, 108, 100
2, 308280, Note_on_c, 0, 108, 0
2, 308400, Note_on_c, 0, 108, 100
2, 308520, Note_on_c, 0, 108, 0
2, 308640, Note_on_c, 0, 98, 100
2, 308640, Note_on_c, 0, 100, 100
2, 308640, Note_on_c, 0, 87, 100
2, 308640, Note_on_c, 0, 74, 100
2, 308640, Note_on_c, 0, 61, 100
2, 308640, Note_on_c, 0, 108, 100
2, 308880, Note_on_c, 0, 98, 0
2, 308880, Note_on_c, 0, 100, 0
2, 308880, Note_on_c, 0, 87, 0
2, 308880, Note_on_c, 0, 74, 0
2, 308880, Note_on_c, 0, 61, 0
2, 308880, Note_on_c, 0, 108, 0
2, 309120, Note_on_c, 0, 99, 100
2, 309120, Note_on_c, 0, 100, 100
2, 309120, Note_on_c, 0, 88, 100
2, 309120, Note_on_c, 0, 75, 100
2, 309120, Note_on_c, 0, 62, 100
2, 309120, Note_on_c, 0, 108, 100
2, 309360, Note_on_c, 0, 99, 0
2, 309360, Note_on_c, 0, 100, 0
2, 309360, Note_on_c, 0, 88, 0
2, 309360, Note_on_c, 0, 75, 0
2, 309360, Note_on_c, 0, 62, 0
2, 309600, Note_on_c, 0, 97, 100
2, 309600, Note_on_c, 0, 99, 100
2, 309600, Note_on_c, 0, 86, 100
2, 309600, Note_on_c, 0, 73, 100
2, 309600, Note_on_c, 0, 61, 100
2, 309840, Note_on_c, 0, 97, 0
2, 309840, Note_on_c, 0, 99, 0
2, 309840, Note_on_c, 0, 86, 0
2, 309840, Note_on_c, 0, 73, 0
2, 309840, Note_on_c, 0, 61, 0
2, 310050, Text_t, "drum_normal"
2, 310080, Note_on_c, 0, 96, 100
2, 310080, Note_on_c, 0, 98, 100
2, 310080, Note_on_c, 0, 84, 100
2, 310080, Note_on_c, 0, 86, 100
2, 310080, Note_on_c, 0, 72, 100
2, 310080, Note_on_c, 0, 60, 100
2, 310320, Note_on_c, 0, 96, 0
2, 310320, Note_on_c, 0, 98, 0
2, 310320, Note_on_c, 0, 84, 0
2, 310320, Note_on_c, 0, 86, 0
2, 310320, Note_on_c, 0, 72, 0
2, 310320, Note_on_c, 0, 60, 0
2, 310530, Note_on_c, 0, 105, 100
2, 310530, Note_on_c, 0, 93, 100
2, 310530, Note_on_c, 0, 69, 100
2, 310530, Note_on_c, 0, 81, 100
2, 310560, Note_on_c, 0, 108, 0
2, 310560, Note_on_c, 0, 99, 100
2, 310560, Note_on_c, 0, 87, 100
2, 310560, Note_on_c, 0, 74, 100
2, 310560, Note_on_c, 0, 61, 100
2, 312480, Note_on_c, 0, 108, 100
2, 312720, Note_on_c, 0, 108, 0
2, 312960, Note_on_c, 0, 108, 100
2, 313080, Note_on_c, 0, 108, 0
2, 313200, Note_on_c, 0, 108, 100
2, 313440, Note_on_c, 0, 108, 0
2, 313680, Note_on_c, 0, 87, 0
2, 313680, Note_on_c, 0, 74, 0
2, 313680, Note_on_c, 0, 61, 0
2, 313920, Note_on_c, 0, 99, 0
2, 313920, Note_on_c, 0, 100, 100
2, 313920, Note_on_c, 0, 88, 100
2, 313920, Note_on_c, 0, 75, 100
2, 313920, Note_on_c, 0, 62, 100
2, 317520, Note_on_c, 0, 88, 0
2, 317520, Note_on_c, 0, 75, 0
2, 317520, Note_on_c, 0, 62, 0
2, 317730, Note_on_c, 0, 106, 0
2, 317730, Note_on_c, 0, 94, 0
2, 317730, Note_on_c, 0, 70, 0
2, 317730, Note_on_c, 0, 82, 0
2, 317760, Note_on_c, 0, 100, 0
2, 317760, Note_on_c, 0, 96, 100
2, 317760, Note_on_c, 0, 98, 100
2, 317760, Note_on_c, 0, 84, 100
2, 317760, Note_on_c, 0, 86, 100
2, 317760, Note_on_c, 0, 72, 100
2, 317760, Note_on_c, 0, 60, 100
2, 317760, Note_on_c, 0, 108, 100
2, 317760, Note_on_c, 0, 74, 100
2, 317880, Note_on_c, 0, 108, 0
2, 318000, Note_on_c, 0, 108, 100
2, 318120, Note_on_c, 0, 108, 0
2, 318240, Note_on_c, 0, 108, 100
2, 318360, Note_on_c, 0, 108, 0
2, 318720, Note_on_c, 0, 96, 0
2, 318720, Note_on_c, 0, 98, 0
2, 318720, Note_on_c, 0, 84, 0
2, 318720, Note_on_c, 0, 86, 0
2, 318720, Note_on_c, 0, 72, 0
2, 318720, Note_on_c, 0, 60, 0
2, 318720, Note_on_c, 0, 74, 0
2, 318720, Note_on_c, 0, 108, 100
2, 318960, Note_on_c, 0, 108, 0
2, 319200, Note_on_c, 0, 108, 100
2, 319560, Note_on_c, 0, 108, 0
2, 319650, Text_t, "drum_double"
2, 319680, Note_on_c, 0, 108, 100
2, 319800, Note_on_c, 0, 108, 0
2, 319920, Note_on_c, 0, 108, 100
2, 320040, Note_on_c, 0, 108, 0
2, 320160, Note_on_c, 0, 97, 100
2, 320160, Note_on_c, 0, 99, 100
2, 320160, Note_on_c, 0, 86, 100
2, 320160, Note_on_c, 0, 73, 100
2, 320160, Note_on_c, 0, 61, 100
2, 320160, Note_on_c, 0, 108, 100
2, 320400, Note_on_c, 0, 97, 0
2, 320400, Note_on_c, 0, 99, 0
2, 320400, Note_on_c, 0, 86, 0
2, 320400, Note_on_c, 0, 73, 0
2, 320400, Note_on_c, 0, 61, 0
2, 320400, Note_on_c, 0, 108, 0
2, 320640, Note_on_c, 0, 98, 100
2, 320640, Note_on_c, 0, 99, 100
2, 320640, Note_on_c, 0, 87, 100
2, 320640, Note_on_c, 0, 74, 100
2, 320640, Note_on_c, 0, 62, 100
2, 320640, Note_on_c, 0, 108, 100
2, 320880, Note_on_c, 0, 98, 0
2, 320880, Note_on_c, 0, 99, 0
2, 320880, Note_on_c, 0, 87, 0
2, 320880, Note_on_c, 0, 74, 0
2, 320880, Note_on_c, 0, 62, 0
2, 320880, Note_on_c, 0, 108, 0
2, 321120, Note_on_c, 0, 96, 100
2, 321120, Note_on_c, 0, 98, 100
2, 321120, Note_on_c, 0, 85, 100
2, 321120, Note_on_c, 0, 72, 100
2, 321120, Note_on_c, 0, 108, 100
2, 321120, Note_on_c, 0, 60, 100
2, 321360, Note_on_c, 0, 96, 0
2, 321360, Note_on_c, 0, 98, 0
2, 321360, Note_on_c, 0, 85, 0
2, 321360, Note_on_c, 0, 72, 0
2, 321360, Note_on_c, 0, 108, 0
2, 321360, Note_on_c, 0, 60, 0
2, 321570, Note_on_c, 0, 106, 100
2, 321570, Note_on_c, 0, 94, 100
2, 321570, Note_on_c, 0, 70, 100
2, 321570, Note_on_c, 0, 82, 100
2, 321600, Note_on_c, 0, 97, 100
2, 321600, Note_on_c, 0, 99, 100
2, 321600, Note_on_c, 0, 85, 100
2, 321600, Note_on_c, 0, 87, 100
2, 321600, Note_on_c, 0, 73, 100
2, 321600, Note_on_c, 0, 61, 100
2, 321600, Note_on_c, 0, 108, 100
2, 321600, Note_on_c, 0, 75, 100
2, 321720, Note_on_c, 0, 108, 0
2, 321840, Note_on_c, 0, 108, 100
2, 321960, Note_on_c, 0, 108, 0
2, 322080, Note_on_c, 0, 108, 100
2, 322320, Note_on_c, 0, 108, 0
2, 322530, Note_on_c, 0, 105, 0
2, 322530, Note_on_c, 0, 93, 0
2, 322530, Note_on_c, 0, 69, 0
2, 322530, Note_on_c, 0, 81, 0
2, 322560, Note_on_c, 0, 97, 0
2, 322560, Note_on_c, 0, 99, 0
2, 322560, Note_on_c, 0, 85, 0
2, 322560, Note_on_c, 0, 87, 0
2, 322560, Note_on_c, 0, 73, 0
2, 322560, Note_on_c, 0, 61, 0
2, 322560, Note_on_c, 0, 75, 0
2, 322560, Note_on_c, 0, 108, 100
2, 322800, Note_on_c, 0, 108, 0
2, 323040, Note_on_c, 0, 108, 100
2, 323280, Note_on_c, 0, 108, 0
2, 323520, Note_on_c, 0, 108, 100
2, 323640, Note_on_c, 0, 108, 0
2, 323760, Note_on_c, 0, 108, 100
2, 323880, Note_on_c, 0, 108, 0
2, 324000, Note_on_c, 0, 98, 100
2, 324000, Note_on_c, 0, 100, 100
2, 324000, Note_on_c, 0, 87, 100
2, 324000, Note_on_c, 0, 74, 100
2, 324000, Note_on_c, 0, 61, 100
2, 324000, Note_on_c, 0, 108, 100
2, 324240, Note_on_c, 0, 98, 0
2, 324240, Note_on_c, 0, 100, 0
2, 324240, Note_on_c, 0, 87, 0
2, 324240, Note_on_c, 0, 74, 0
2, 324240, Note_on_c, 0, 61, 0
2, 324240, Note_on_c, 0, 108, 0
2, 324480, Note_on_c, 0, 99, 100
2, 324480, Note_on_c, 0, 100, 100
2, 324480, Note_on_c, 0, 88, 100
2, 324480, Note_on_c, 0, 75, 100
2, 324480, Note_on_c, 0, 62, 100
2, 324480, Note_on_c, 0, 108, 100
2, 324720, Note_on_c, 0, 99, 0
2, 324720, Note_on_c, 0, 100, 0
2, 324720, Note_on_c, 0, 88, 0
2, 324720, Note_on_c, 0, 75, 0
2, 324720, Note_on_c, 0, 62, 0
2, 324960, Note_on_c, 0, 97, 100
2, 324960, Note_on_c, 0, 99, 100
2, 324960, Note_on_c, 0, 86, 100
2, 324960, Note_on_c, 0, 73, 100
2, 324960, Note_on_c, 0, 61, 100
2, 325200, Note_on_c, 0, 97, 0
2, 325200, Note_on_c, 0, 99, 0
2, 325200, Note_on_c, 0, 86, 0
2, 325200, Note_on_c, 0, 73, 0
2, 325200, Note_on_c, 0, 61, 0
2, 325410, Text_t, "drum_normal"
2, 325410, Note_on_c, 0, 105, 100
2, 325410, Note_on_c, 0, 93, 100
2, 325410, Note_on_c, 0, 69, 100
2, 325410, Note_on_c, 0, 81, 100
2, 325440, Note_on_c, 0, 96, 100
2, 325440, Note_on_c, 0, 98, 100
2, 325440, Note_on_c, 0, 84, 100
2, 325440, Note_on_c, 0, 86, 100
2, 325440, Note_on_c, 0, 72, 100
2, 325440, Note_on_c, 0, 60, 100
2, 325440, Note_on_c, 0, 74, 100
2, 325920, Note_on_c, 0, 108, 0
2, 326370, Note_on_c, 0, 106, 0
2, 326370, Note_on_c, 0, 94, 0
2, 326370, Note_on_c, 0, 70, 0
2, 326370, Note_on_c, 0, 82, 0
2, 326370, Note_on_c, 0, 105, 0
2, 326370, Note_on_c, 0, 93, 0
2, 326370, Note_on_c, 0, 69, 0
2, 326370, Note_on_c, 0, 81, 0
2, 326400, Note_on_c, 0, 96, 0
2, 326400, Note_on_c, 0, 98, 0
2, 326400, Note_on_c, 0, 84, 0
2, 326400, Note_on_c, 0, 86, 0
2, 326400, Note_on_c, 0, 72, 0
2, 326400, Note_on_c, 0, 60, 0
2, 326400, Note_on_c, 0, 74, 0
2, 327840, Note_on_c, 0, 108, 100
2, 328080, Note_on_c, 0, 108, 0
2, 328320, Note_on_c, 0, 108, 100
2, 328440, Note_on_c, 0, 108, 0
2, 328560, Note_on_c, 0, 108, 100
2, 328800, Note_on_c, 0, 108, 0
2, 328800, End_track
3, 0, Start_track
3, 0, Title_t, "ANIM"
3, 7680, Note_on_c, 3, 40, 100
3, 9600, Note_on_c, 3, 40, 0
3, 10080, Note_on_c, 3, 45, 100
3, 10320, Note_on_c, 3, 45, 0
3, 10560, Note_on_c, 3, 47, 100
3, 10800, Note_on_c, 3, 47, 0
3, 11040, Note_on_c, 3, 42, 100
3, 11280, Note_on_c, 3, 42, 0
3, 11520, Note_on_c, 3, 43, 100
3, 13440, Note_on_c, 3, 43, 0
3, 13920, Note_on_c, 3, 49, 100
3, 14160, Note_on_c, 3, 49, 0
3, 14400, Note_on_c, 3, 50, 100
3, 14640, Note_on_c, 3, 50, 0
3, 14880, Note_on_c, 3, 43, 100
3, 15120, Note_on_c, 3, 43, 0
3, 15360, Note_on_c, 3, 40, 100
3, 17280, Note_on_c, 3, 40, 0
3, 17760, Note_on_c, 3, 45, 100
3, 18000, Note_on_c, 3, 45, 0
3, 18240, Note_on_c, 3, 47, 100
3, 18480, Note_on_c, 3, 47, 0
3, 18720, Note_on_c, 3, 42, 100
3, 18960, Note_on_c, 3, 42, 0
3, 19200, Note_on_c, 3, 43, 100
3, 21120, Note_on_c, 3, 43, 0
3, 21600, Note_on_c, 3, 49, 100
3, 21840, Note_on_c, 3, 49, 0
3, 22080, Note_on_c, 3, 50, 100
3, 22320, Note_on_c, 3, 50, 0
3, 22560, Note_on_c, 3, 43, 100
3, 22800, Note_on_c, 3, 43, 0
3, 23040, Note_on_c, 3, 40, 100
3, 23760, Note_on_c, 3, 40, 0
3, 24000, Note_on_c, 3, 52, 100
3, 24240, Note_on_c, 3, 52, 0
3, 24240, Note_on_c, 3, 54, 100
3, 24480, Note_on_c, 3, 54, 0
3, 24480, Note_on_c, 3, 52, 100
3, 25200, Note_on_c, 3, 52, 0
3, 25440, Note_on_c, 3, 45, 100
3, 25680, Note_on_c, 3, 45, 0
3, 25920, Note_on_c, 3, 47, 100
3, 26160, Note_on_c, 3, 47, 0
3, 26400, Note_on_c, 3, 42, 100
3, 26640, Note_on_c, 3, 42, 0
3, 26880, Note_on_c, 3, 43, 100
3, 27600, Note_on_c, 3, 43, 0
3, 27840, Note_on_c, 3, 52, 100
3, 28080, Note_on_c, 3, 52, 0
3, 28080, Note_on_c, 3, 54, 100
3, 28320, Note_on_c, 3, 54, 0
3, 28320, Note_on_c, 3, 52, 100
3, 29040, Note_on_c, 3, 52, 0
3, 29280, Note_on_c, 3, 49, 100
3, 29520, Note_on_c, 3, 49, 0
3, 29760, Note_on_c, 3, 50, 100
3, 30000, Note_on_c, 3, 50, 0
3, 30240, Note_on_c, 3, 43, 100
3, 30480, Note_on_c, 3, 43, 0
3, 30720, Note_on_c, 3, 40, 100
3, 31440, Note_on_c, 3, 40, 0
3, 31680, Note_on_c, 3, 52, 100
3, 31920, Note_on_c, 3, 52, 0
3, 31920, Note_on_c, 3, 54, 100
3, 32160, Note_on_c, 3, 54, 0
3, 32160, Note_on_c, 3, 52, 100
3, 32880, Note_on_c, 3, 52, 0
3, 33120, Note_on_c, 3, 45, 100
3, 33360, Note_on_c, 3, 45, 0
3, 33600, Note_on_c, 3, 47, 100
3, 33840, Note_on_c, 3, 47, 0
3, 34080, Note_on_c, 3, 42, 100
3, 34320, Note_on_c, 3, 42, 0
3, 34560, Note_on_c, 3, 43, 100
3, 35280, Note_on_c, 3, 43, 0
3, 35520, Note_on_c, 3, 52, 100
3, 35760, Note_on_c, 3, 52, 0
3, 35760, Note_on_c, 3, 54, 100
3, 36000, Note_on_c, 3, 54, 0
3, 36000, Note_on_c, 3, 52, 100
3, 36720, Note_on_c, 3, 52, 0
3, 36960, Note_on_c, 3, 49, 100
3, 37200, Note_on_c, 3, 49, 0
3, 37440, Note_on_c, 3, 50, 100
3, 37680, Note_on_c, 3, 50, 0
3, 37920, Note_on_c, 3, 43, 100
3, 38160, Note_on_c, 3, 43, 0
3, 38400, Note_on_c, 3, 40, 100
3, 40320, Note_on_c, 3, 40, 0
3, 40800, Note_on_c, 3, 45, 100
3, 41040, Note_on_c, 3, 45, 0
3, 41280, Note_on_c, 3, 47, 100
3, 41520, Note_on_c, 3, 47, 0
3, 41760, Note_on_c, 3, 42, 100
3, 42000, Note_on_c, 3, 42, 0
3, 42240, Note_on_c, 3, 43, 100
3, 44160, Note_on_c, 3, 43, 0
3, 44640, Note_on_c, 3, 49, 100
3, 44880, Note_on_c, 3, 49, 0
3, 45120, Note_on_c, 3, 50, 100
3, 45360, Note_on_c, 3, 50, 0
3, 45600, Note_on_c, 3, 43, 100
3, 45840, Note_on_c, 3, 43, 0
3, 46560, Note_on_c, 3, 40, 100
3, 47040, Note_on_c, 3, 40, 0
3, 49440, Note_on_c, 3, 53, 100
3, 49500, Note_on_c, 3, 53, 0
3, 49920, Note_on_c, 3, 57, 100
3, 49980, Note_on_c, 3, 57, 0
3, 50400, Note_on_c, 3, 53, 100
3, 50460, Note_on_c, 3, 53, 0
3, 53520, Note_on_c, 3, 40, 100
3, 55680, Note_on_c, 3, 40, 0
3, 56160, Note_on_c, 3, 45, 100
3, 56400, Note_on_c, 3, 45, 0
3, 56640, Note_on_c, 3, 47, 100
3, 56880, Note_on_c, 3, 47, 0
3, 57120, Note_on_c, 3, 42, 100
3, 57360, Note_on_c, 3, 42, 0
3, 57600, Note_on_c, 3, 43, 100
3, 59520, Note_on_c, 3, 43, 0
3, 60000, Note_on_c, 3, 49, 100
3, 60240, Note_on_c, 3, 49, 0
3, 60480, Note_on_c, 3, 50, 100
3, 60720, Note_on_c, 3, 50, 0
3, 60960, Note_on_c, 3, 43, 100
3, 61200, Note_on_c, 3, 43, 0
3, 61920, Note_on_c, 3, 52, 100
3, 62400, Note_on_c, 3, 52, 0
3, 62640, Note_on_c, 3, 54, 100
3, 63360, Note_on_c, 3, 54, 0
3, 63600, Note_on_c, 3, 52, 100
3, 64080, Note_on_c, 3, 52, 0
3, 64320, Note_on_c, 3, 50, 100
3, 64560, Note_on_c, 3, 50, 0
3, 64560, Note_on_c, 3, 52, 100
3, 64800, Note_on_c, 3, 52, 0
3, 64800, Note_on_c, 3, 54, 100
3, 65040, Note_on_c, 3, 54, 0
3, 65040, Note_on_c, 3, 52, 100
3, 65280, Note_on_c, 3, 52, 0
3, 65280, Note_on_c, 3, 50, 100
3, 65520, Note_on_c, 3, 50, 0
3, 65760, Note_on_c, 3, 52, 100
3, 66000, Note_on_c, 3, 52, 0
3, 66000, Note_on_c, 3, 50, 100
3, 66240, Note_on_c, 3, 50, 0
3, 66240, Note_on_c, 3, 52, 100
3, 66480, Note_on_c, 3, 52, 0
3, 66480, Note_on_c, 3, 50, 100
3, 66720, Note_on_c, 3, 50, 0
3, 66720, Note_on_c, 3, 48, 100
3, 67440, Note_on_c, 3, 48, 0
3, 67680, Note_on_c, 3, 40, 100
3, 68400, Note_on_c, 3, 40, 0
3, 68880, Note_on_c, 3, 42, 100
3, 70800, Note_on_c, 3, 42, 0
3, 71520, Note_on_c, 3, 45, 100
3, 71760, Note_on_c, 3, 45, 0
3, 72000, Note_on_c, 3, 47, 100
3, 72240, Note_on_c, 3, 47, 0
3, 72480, Note_on_c, 3, 42, 100
3, 72720, Note_on_c, 3, 42, 0
3, 72960, Note_on_c, 3, 43, 100
3, 74880, Note_on_c, 3, 43, 0
3, 75360, Note_on_c, 3, 49, 100
3, 75600, Note_on_c, 3, 49, 0
3, 75840, Note_on_c, 3, 50, 100
3, 76080, Note_on_c, 3, 50, 0
3, 76320, Note_on_c, 3, 43, 100
3, 76560, Note_on_c, 3, 43, 0
3, 76800, Note_on_c, 3, 44, 100
3, 77040, Note_on_c, 3, 44, 0
3, 77280, Note_on_c, 3, 46, 100
3, 77520, Note_on_c, 3, 46, 0
3, 77520, Note_on_c, 3, 48, 100
3, 77640, Note_on_c, 3, 48, 0
3, 77760, Note_on_c, 3, 50, 100
3, 78000, Note_on_c, 3, 50, 0
3, 78000, Note_on_c, 3, 52, 100
3, 78240, Note_on_c, 3, 52, 0
3, 78480, Note_on_c, 3, 44, 100
3, 78720, Note_on_c, 3, 44, 0
3, 78720, Note_on_c, 3, 46, 100
3, 78960, Note_on_c, 3, 46, 0
3, 78960, Note_on_c, 3, 48, 100
3, 79200, Note_on_c, 3, 48, 0
3, 79320, Note_on_c, 3, 50, 100
3, 79440, Note_on_c, 3, 50, 0
3, 79440, Note_on_c, 3, 52, 100
3, 80160, Note_on_c, 3, 52, 0
3, 80160, Note_on_c, 3, 50, 100
3, 80400, Note_on_c, 3, 50, 0
3, 80880, Note_on_c, 3, 44, 100
3, 81120, Note_on_c, 3, 44, 0
3, 81120, Note_on_c, 3, 46, 100
3, 81280, Note_on_c, 3, 46, 0
3, 81280, Note_on_c, 3, 48, 100
3, 81440, Note_on_c, 3, 48, 0
3, 81440, Note_on_c, 3, 50, 100
3, 81600, Note_on_c, 3, 50, 0
3, 81600, Note_on_c, 3, 48, 100
3, 81760, Note_on_c, 3, 48, 0
3, 81760, Note_on_c, 3, 50, 100
3, 81920, Note_on_c, 3, 50, 0
3, 81920, Note_on_c, 3, 52, 100
3, 82080, Note_on_c, 3, 52, 0
3, 82080, Note_on_c, 3, 54, 100
3, 82320, Note_on_c, 3, 54, 0
3, 82320, Note_on_c, 3, 52, 100
3, 82560, Note_on_c, 3, 52, 0
3, 82560, Note_on_c, 3, 54, 100
3, 82800, Note_on_c, 3, 54, 0
3, 83040, Note_on_c, 3, 52, 100
3, 83200, Note_on_c, 3, 52, 0
3, 83200, Note_on_c, 3, 50, 100
3, 83360, Note_on_c, 3, 50, 0
3, 83360, Note_on_c, 3, 52, 100
3, 83520, Note_on_c, 3, 52, 0
3, 83520, Note_on_c, 3, 50, 100
3, 83680, Note_on_c, 3, 50, 0
3, 84000, Note_on_c, 3, 48, 100
3, 84240, Note_on_c, 3, 48, 0
3, 84480, Note_on_c, 3, 49, 100
3, 85920, Note_on_c, 3, 49, 0
3, 86640, Note_on_c, 3, 53, 100
3, 86880, Note_on_c, 3, 53, 0
3, 86880, Note_on_c, 3, 51, 100
3, 87040, Note_on_c, 3, 51, 0
3, 87040, Note_on_c, 3, 49, 100
3, 87200, Note_on_c, 3, 49, 0
3, 87200, Note_on_c, 3, 47, 100
3, 87360, Note_on_c, 3, 47, 0
3, 87360, Note_on_c, 3, 49, 100
3, 87600, Note_on_c, 3, 49, 0
3, 87600, Note_on_c, 3, 47, 100
3, 87840, Note_on_c, 3, 47, 0
3, 87840, Note_on_c, 3, 45, 100
3, 88080, Note_on_c, 3, 45, 0
3, 88080, Note_on_c, 3, 43, 100
3, 88320, Note_on_c, 3, 43, 0
3, 88320, Note_on_c, 3, 41, 100
3, 91920, Note_on_c, 3, 41, 0
3, 92640, Note_on_c, 3, 51, 100
3, 92880, Note_on_c, 3, 51, 0
3, 92880, Note_on_c, 3, 49, 100
3, 93600, Note_on_c, 3, 49, 0
3, 93600, Note_on_c, 3, 51, 100
3, 93840, Note_on_c, 3, 51, 0
3, 93840, Note_on_c, 3, 49, 100
3, 94080, Note_on_c, 3, 49, 0
3, 94080, Note_on_c, 3, 47, 100
3, 94320, Note_on_c, 3, 47, 0
3, 94320, Note_on_c, 3, 45, 100
3, 94560, Note_on_c, 3, 45, 0
3, 94560, Note_on_c, 3, 49, 100
3, 94800, Note_on_c, 3, 49, 0
3, 95040, Note_on_c, 3, 47, 100
3, 95280, Note_on_c, 3, 47, 0
3, 95520, Note_on_c, 3, 45, 100
3, 95760, Note_on_c, 3, 45, 0
3, 95760, Note_on_c, 3, 43, 100
3, 96000, Note_on_c, 3, 43, 0
3, 96240, Note_on_c, 3, 45, 100
3, 96480, Note_on_c, 3, 45, 0
3, 96480, Note_on_c, 3, 43, 100
3, 96720, Note_on_c, 3, 43, 0
3, 96720, Note_on_c, 3, 45, 100
3, 96960, Note_on_c, 3, 45, 0
3, 97200, Note_on_c, 3, 43, 100
3, 97440, Note_on_c, 3, 43, 0
3, 97440, Note_on_c, 3, 45, 100
3, 97680, Note_on_c, 3, 45, 0
3, 97920, Note_on_c, 3, 47, 100
3, 98160, Note_on_c, 3, 47, 0
3, 98400, Note_on_c, 3, 47, 100
3, 98640, Note_on_c, 3, 47, 0
3, 98640, Note_on_c, 3, 49, 100
3, 98880, Note_on_c, 3, 49, 0
3, 99120, Note_on_c, 3, 51, 100
3, 99360, Note_on_c, 3, 51, 0
3, 99360, Note_on_c, 3, 49, 100
3, 99480, Note_on_c, 3, 49, 0
3, 99480, Note_on_c, 3, 51, 100
3, 99600, Note_on_c, 3, 51, 0
3, 99600, Note_on_c, 3, 49, 100
3, 99840, Note_on_c, 3, 49, 0
3, 99840, Note_on_c, 3, 49, 100
3, 101760, Note_on_c, 3, 49, 0
3, 102000, Note_on_c, 3, 53, 100
3, 102120, Note_on_c, 3, 53, 0
3, 102120, Note_on_c, 3, 51, 100
3, 102240, Note_on_c, 3, 51, 0
3, 102240, Note_on_c, 3, 49, 100
3, 102360, Note_on_c, 3, 49, 0
3, 102720, Note_on_c, 3, 49, 100
3, 102960, Note_on_c, 3, 49, 0
3, 102960, Note_on_c, 3, 47, 100
3, 103080, Note_on_c, 3, 47, 0
3, 103080, Note_on_c, 3, 49, 100
3, 103200, Note_on_c, 3, 49, 0
3, 103200, Note_on_c, 3, 47, 100
3, 103440, Note_on_c, 3, 47, 0
3, 103440, Note_on_c, 3, 45, 100
3, 103680, Note_on_c, 3, 45, 0
3, 103680, Note_on_c, 3, 43, 100
3, 106560, Note_on_c, 3, 43, 0
3, 107520, Note_on_c, 3, 45, 100
3, 108720, Note_on_c, 3, 45, 0
3, 108960, Note_on_c, 3, 43, 100
3, 109200, Note_on_c, 3, 43, 0
3, 109440, Note_on_c, 3, 45, 100
3, 109680, Note_on_c, 3, 45, 0
3, 109920, Note_on_c, 3, 43, 100
3, 110160, Note_on_c, 3, 43, 0
3, 110400, Note_on_c, 3, 45, 100
3, 110640, Note_on_c, 3, 45, 0
3, 110880, Note_on_c, 3, 43, 100
3, 111120, Note_on_c, 3, 43, 0
3, 111600, Note_on_c, 3, 44, 100
3, 111840, Note_on_c, 3, 44, 0
3, 111840, Note_on_c, 3, 46, 100
3, 112080, Note_on_c, 3, 46, 0
3, 112080, Note_on_c, 3, 48, 100
3, 112320, Note_on_c, 3, 48, 0
3, 112320, Note_on_c, 3, 46, 100
3, 112560, Note_on_c, 3, 46, 0
3, 112560, Note_on_c, 3, 48, 100
3, 112800, Note_on_c, 3, 48, 0
3, 112800, Note_on_c, 3, 50, 100
3, 113040, Note_on_c, 3, 50, 0
3, 113040, Note_on_c, 3, 52, 100
3, 113760, Note_on_c, 3, 52, 0
3, 113760, Note_on_c, 3, 50, 100
3, 114000, Note_on_c, 3, 50, 0
3, 114000, Note_on_c, 3, 52, 100
3, 114240, Note_on_c, 3, 52, 0
3, 114240, Note_on_c, 3, 54, 100
3, 114400, Note_on_c, 3, 54, 0
3, 114400, Note_on_c, 3, 52, 100
3, 114560, Note_on_c, 3, 52, 0
3, 114560, Note_on_c, 3, 50, 100
3, 114720, Note_on_c, 3, 50, 0
3, 114720, Note_on_c, 3, 48, 100
3, 115440, Note_on_c, 3, 48, 0
3, 115800, Note_on_c, 3, 56, 100
3, 116040, Note_on_c, 3, 56, 0
3, 116160, Note_on_c, 3, 54, 100
3, 117120, Note_on_c, 3, 54, 0
3, 117120, Note_on_c, 3, 56, 100
3, 117280, Note_on_c, 3, 56, 0
3, 117280, Note_on_c, 3, 54, 100
3, 117440, Note_on_c, 3, 54, 0
3, 117440, Note_on_c, 3, 56, 100
3, 117600, Note_on_c, 3, 56, 0
3, 117600, Note_on_c, 3, 54, 100
3, 117760, Note_on_c, 3, 54, 0
3, 117760, Note_on_c, 3, 52, 100
3, 117920, Note_on_c, 3, 52, 0
3, 117920, Note_on_c, 3, 54, 100
3, 118080, Note_on_c, 3, 54, 0
3, 118080, Note_on_c, 3, 52, 100
3, 118240, Note_on_c, 3, 52, 0
3, 118240, Note_on_c, 3, 50, 100
3, 118400, Note_on_c, 3, 50, 0
3, 118400, Note_on_c, 3, 52, 100
3, 118560, Note_on_c, 3, 52, 0
3, 118560, Note_on_c, 3, 50, 100
3, 118720, Note_on_c, 3, 50, 0
3, 118720, Note_on_c, 3, 48, 100
3, 118880, Note_on_c, 3, 48, 0
3, 118880, Note_on_c, 3, 50, 100
3, 119040, Note_on_c, 3, 50, 0
3, 119040, Note_on_c, 3, 48, 100
3, 119200, Note_on_c, 3, 48, 0
3, 119200, Note_on_c, 3, 46, 100
3, 119360, Note_on_c, 3, 46, 0
3, 119360, Note_on_c, 3, 44, 100
3, 119520, Note_on_c, 3, 44, 0
3, 119520, Note_on_c, 3, 48, 100
3, 119680, Note_on_c, 3, 48, 0
3, 119680, Note_on_c, 3, 46, 100
3, 119840, Note_on_c, 3, 46, 0
3, 119840, Note_on_c, 3, 48, 100
3, 120000, Note_on_c, 3, 48, 0
3, 120000, Note_on_c, 3, 46, 100
3, 120160, Note_on_c, 3, 46, 0
3, 120160, Note_on_c, 3, 44, 100
3, 120320, Note_on_c, 3, 44, 0
3, 120320, Note_on_c, 3, 50, 100
3, 120480, Note_on_c, 3, 50, 0
3, 120480, Note_on_c, 3, 48, 100
3, 120640, Note_on_c, 3, 48, 0
3, 120640, Note_on_c, 3, 46, 100
3, 120800, Note_on_c, 3, 46, 0
3, 120800, Note_on_c, 3, 48, 100
3, 120960, Note_on_c, 3, 48, 0
3, 120960, Note_on_c, 3, 46, 100
3, 121120, Note_on_c, 3, 46, 0
3, 121120, Note_on_c, 3, 44, 100
3, 121280, Note_on_c, 3, 44, 0
3, 121280, Note_on_c, 3, 48, 100
3, 121440, Note_on_c, 3, 48, 0
3, 121440, Note_on_c, 3, 46, 100
3, 121600, Note_on_c, 3, 46, 0
3, 121600, Note_on_c, 3, 44, 100
3, 121760, Note_on_c, 3, 44, 0
3, 121760, Note_on_c, 3, 46, 100
3, 121920, Note_on_c, 3, 46, 0
3, 121920, Note_on_c, 3, 48, 100
3, 122080, Note_on_c, 3, 48, 0
3, 122080, Note_on_c, 3, 46, 100
3, 122240, Note_on_c, 3, 46, 0
3, 122240, Note_on_c, 3, 48, 100
3, 122400, Note_on_c, 3, 48, 0
3, 122400, Note_on_c, 3, 46, 100
3, 122880, Note_on_c, 3, 46, 0
3, 122880, Note_on_c, 3, 44, 100
3, 123520, Note_on_c, 3, 44, 0
3, 123680, Note_on_c, 3, 40, 100
3, 123840, Note_on_c, 3, 40, 0
3, 123840, Note_on_c, 3, 42, 100
3, 124000, Note_on_c, 3, 42, 0
3, 124000, Note_on_c, 3, 44, 100
3, 124160, Note_on_c, 3, 44, 0
3, 124160, Note_on_c, 3, 46, 100
3, 124320, Note_on_c, 3, 46, 0
3, 124320, Note_on_c, 3, 44, 100
3, 124480, Note_on_c, 3, 44, 0
3, 124480, Note_on_c, 3, 46, 100
3, 124640, Note_on_c, 3, 46, 0
3, 124640, Note_on_c, 3, 48, 100
3, 124800, Note_on_c, 3, 48, 0
3, 124800, Note_on_c, 3, 46, 100
3, 124960, Note_on_c, 3, 46, 0
3, 124960, Note_on_c, 3, 48, 100
3, 125120, Note_on_c, 3, 48, 0
3, 125120, Note_on_c, 3, 50, 100
3, 125280, Note_on_c, 3, 50, 0
3, 125280, Note_on_c, 3, 52, 100
3, 125760, Note_on_c, 3, 52, 0
3, 125920, Note_on_c, 3, 46, 100
3, 126080, Note_on_c, 3, 46, 0
3, 126080, Note_on_c, 3, 48, 100
3, 126240, Note_on_c, 3, 48, 0
3, 126400, Note_on_c, 3, 50, 100
3, 126560, Note_on_c, 3, 50, 0
3, 126720, Note_on_c, 3, 50, 100
3, 126880, Note_on_c, 3, 50, 0
3, 126880, Note_on_c, 3, 48, 100
3, 127040, Note_on_c, 3, 48, 0
3, 127040, Note_on_c, 3, 46, 100
3, 127200, Note_on_c, 3, 46, 0
3, 127200, Note_on_c, 3, 48, 100
3, 127360, Note_on_c, 3, 48, 0
3, 127360, Note_on_c, 3, 46, 100
3, 127520, Note_on_c, 3, 46, 0
3, 127520, Note_on_c, 3, 48, 100
3, 127680, Note_on_c, 3, 48, 0
3, 127680, Note_on_c, 3, 46, 100
3, 127840, Note_on_c, 3, 46, 0
3, 128000, Note_on_c, 3, 50, 100
3, 128160, Note_on_c, 3, 50, 0
3, 128160, Note_on_c, 3, 48, 100
3, 128320, Note_on_c, 3, 48, 0
3, 128640, Note_on_c, 3, 48, 100
3, 128760, Note_on_c, 3, 48, 0
3, 128760, Note_on_c, 3, 46, 100
3, 128880, Note_on_c, 3, 46, 0
3, 128880, Note_on_c, 3, 44, 100
3, 129000, Note_on_c, 3, 44, 0
3, 129000, Note_on_c, 3, 48, 100
3, 129120, Note_on_c, 3, 48, 0
3, 129120, Note_on_c, 3, 44, 100
3, 129280, Note_on_c, 3, 44, 0
3, 129440, Note_on_c, 3, 50, 100
3, 129560, Note_on_c, 3, 50, 0
3, 129600, Note_on_c, 3, 48, 100
3, 130240, Note_on_c, 3, 48, 0
3, 130240, Note_on_c, 3, 44, 100
3, 130400, Note_on_c, 3, 44, 0
3, 130400, Note_on_c, 3, 42, 100
3, 130560, Text_t, "HandMap_Solo"
3, 130560, Note_on_c, 3, 42, 0
3, 130560, Note_on_c, 3, 40, 100
3, 132240, Note_on_c, 3, 40, 0
3, 132480, Note_on_c, 3, 52, 100
3, 133680, Note_on_c, 3, 52, 0
3, 133920, Note_on_c, 3, 54, 100
3, 134160, Note_on_c, 3, 54, 0
3, 134400, Note_on_c, 3, 44, 100
3, 134640, Note_on_c, 3, 44, 0
3, 134880, Note_on_c, 3, 48, 100
3, 135120, Note_on_c, 3, 48, 0
3, 135360, Note_on_c, 3, 48, 100
3, 135600, Note_on_c, 3, 48, 0
3, 135840, Note_on_c, 3, 46, 100
3, 136080, Note_on_c, 3, 46, 0
3, 136080, Note_on_c, 3, 48, 100
3, 136320, Note_on_c, 3, 48, 0
3, 136560, Note_on_c, 3, 44, 100
3, 136800, Note_on_c, 3, 44, 0
3, 136800, Note_on_c, 3, 46, 100
3, 137040, Note_on_c, 3, 46, 0
3, 137040, Note_on_c, 3, 48, 100
3, 137280, Note_on_c, 3, 48, 0
3, 137280, Note_on_c, 3, 50, 100
3, 138240, Note_on_c, 3, 50, 0
3, 138240, Note_on_c, 3, 48, 100
3, 138720, Note_on_c, 3, 48, 0
3, 138720, Note_on_c, 3, 52, 100
3, 138960, Note_on_c, 3, 52, 0
3, 138960, Note_on_c, 3, 50, 100
3, 139200, Note_on_c, 3, 50, 0
3, 139200, Note_on_c, 3, 52, 100
3, 139440, Note_on_c, 3, 52, 0
3, 139440, Note_on_c, 3, 50, 100
3, 139680, Note_on_c, 3, 50, 0
3, 139680, Note_on_c, 3, 52, 100
3, 139920, Note_on_c, 3, 52, 0
3, 139920, Note_on_c, 3, 50, 100
3, 140160, Note_on_c, 3, 50, 0
3, 140160, Note_on_c, 3, 52, 100
3, 140400, Note_on_c, 3, 52, 0
3, 140400, Note_on_c, 3, 50, 100
3, 140640, Note_on_c, 3, 50, 0
3, 140640, Note_on_c, 3, 56, 100
3, 140880, Note_on_c, 3, 56, 0
3, 140880, Note_on_c, 3, 54, 100
3, 141120, Note_on_c, 3, 54, 0
3, 141120, Note_on_c, 3, 56, 100
3, 141840, Note_on_c, 3, 56, 0
3, 141840, Note_on_c, 3, 54, 100
3, 142080, Note_on_c, 3, 54, 0
3, 142080, Note_on_c, 3, 56, 100
3, 142320, Note_on_c, 3, 56, 0
3, 142320, Note_on_c, 3, 54, 100
3, 142560, Note_on_c, 3, 54, 0
3, 142560, Note_on_c, 3, 56, 100
3, 142800, Note_on_c, 3, 56, 0
3, 142800, Note_on_c, 3, 54, 100
3, 143040, Note_on_c, 3, 54, 0
3, 143040, Note_on_c, 3, 56, 100
3, 143280, Note_on_c, 3, 56, 0
3, 143280, Note_on_c, 3, 54, 100
3, 143520, Note_on_c, 3, 54, 0
3, 143520, Note_on_c, 3, 56, 100
3, 143760, Note_on_c, 3, 56, 0
3, 143760, Note_on_c, 3, 54, 100
3, 144000, Note_on_c, 3, 54, 0
3, 144000, Note_on_c, 3, 56, 100
3, 144240, Note_on_c, 3, 56, 0
3, 144240, Note_on_c, 3, 54, 100
3, 144480, Note_on_c, 3, 54, 0
3, 144480, Note_on_c, 3, 56, 100
3, 144720, Note_on_c, 3, 56, 0
3, 144720, Note_on_c, 3, 54, 100
3, 144960, Note_on_c, 3, 54, 0
3, 144960, Note_on_c, 3, 56, 100
3, 145200, Note_on_c, 3, 56, 0
3, 145200, Note_on_c, 3, 54, 100
3, 145440, Note_on_c, 3, 54, 0
3, 145440, Note_on_c, 3, 56, 100
3, 145680, Note_on_c, 3, 56, 0
3, 145680, Note_on_c, 3, 54, 100
3, 148080, Note_on_c, 3, 54, 0
3, 148080, Note_on_c, 3, 52, 100
3, 148320, Note_on_c, 3, 52, 0
3, 148320, Note_on_c, 3, 50, 100
3, 148560, Note_on_c, 3, 50, 0
3, 148560, Note_on_c, 3, 48, 100
3, 148800, Note_on_c, 3, 48, 0
3, 148800, Note_on_c, 3, 46, 100
3, 149040, Note_on_c, 3, 46, 0
3, 149040, Note_on_c, 3, 49, 100
3, 149280, Note_on_c, 3, 49, 0
3, 149280, Note_on_c, 3, 47, 100
3, 149520, Note_on_c, 3, 47, 0
3, 149520, Note_on_c, 3, 45, 100
3, 149760, Note_on_c, 3, 45, 0
3, 149760, Note_on_c, 3, 43, 100
3, 153360, Note_on_c, 3, 43, 0
3, 153840, Note_on_c, 3, 54, 100
3, 154080, Note_on_c, 3, 54, 0
3, 154080, Note_on_c, 3, 52, 100
3, 154320, Note_on_c, 3, 52, 0
3, 154400, Note_on_c, 3, 50, 100
3, 154560, Note_on_c, 3, 50, 0
3, 154560, Note_on_c, 3, 52, 100
3, 154800, Note_on_c, 3, 52, 0
3, 154800, Note_on_c, 3, 50, 100
3, 155040, Note_on_c, 3, 50, 0
3, 155040, Note_on_c, 3, 48, 100
3, 155280, Note_on_c, 3, 48, 0
3, 155280, Note_on_c, 3, 46, 100
3, 155520, Note_on_c, 3, 46, 0
3, 155520, Note_on_c, 3, 48, 100
3, 155760, Note_on_c, 3, 48, 0
3, 155760, Note_on_c, 3, 46, 100
3, 156000, Note_on_c, 3, 46, 0
3, 156000, Note_on_c, 3, 48, 100
3, 156120, Note_on_c, 3, 48, 0
3, 156120, Note_on_c, 3, 50, 100
3, 156240, Note_on_c, 3, 50, 0
3, 156480, Note_on_c, 3, 50, 100
3, 156720, Note_on_c, 3, 50, 0
3, 156720, Note_on_c, 3, 48, 100
3, 156960, Note_on_c, 3, 48, 0
3, 156960, Note_on_c, 3, 44, 100
3, 157200, Note_on_c, 3, 44, 0
3, 157200, Note_on_c, 3, 48, 100
3, 157440, Note_on_c, 3, 48, 0
3, 157440, Note_on_c, 3, 46, 100
3, 157680, Note_on_c, 3, 46, 0
3, 157680, Note_on_c, 3, 44, 100
3, 157920, Note_on_c, 3, 44, 0
3, 157920, Note_on_c, 3, 48, 100
3, 158160, Note_on_c, 3, 48, 0
3, 158160, Note_on_c, 3, 42, 100
3, 158400, Note_on_c, 3, 42, 0
3, 158400, Note_on_c, 3, 44, 100
3, 158640, Note_on_c, 3, 44, 0
3, 158640, Note_on_c, 3, 46, 100
3, 158880, Note_on_c, 3, 46, 0
3, 158880, Note_on_c, 3, 48, 100
3, 159120, Note_on_c, 3, 48, 0
3, 159120, Note_on_c, 3, 50, 100
3, 159360, Note_on_c, 3, 50, 0
3, 159600, Note_on_c, 3, 52, 100
3, 159840, Note_on_c, 3, 52, 0
3, 159840, Note_on_c, 3, 54, 100
3, 160080, Note_on_c, 3, 54, 0
3, 160080, Note_on_c, 3, 56, 100
3, 160320, Note_on_c, 3, 56, 0
3, 160320, Note_on_c, 3, 54, 100
3, 160560, Note_on_c, 3, 54, 0
3, 160560, Note_on_c, 3, 52, 100
3, 160800, Note_on_c, 3, 52, 0
3, 160800, Note_on_c, 3, 50, 100
3, 161040, Note_on_c, 3, 50, 0
3, 161040, Note_on_c, 3, 48, 100
3, 161280, Note_on_c, 3, 48, 0
3, 161280, Note_on_c, 3, 50, 100
3, 161520, Note_on_c, 3, 50, 0
3, 161760, Note_on_c, 3, 52, 100
3, 163200, Note_on_c, 3, 52, 0
3, 163440, Note_on_c, 3, 48, 100
3, 163680, Note_on_c, 3, 48, 0
3, 163680, Note_on_c, 3, 46, 100
3, 163840, Note_on_c, 3, 46, 0
3, 163840, Note_on_c, 3, 44, 100
3, 164000, Note_on_c, 3, 44, 0
3, 164000, Note_on_c, 3, 42, 100
3, 164160, Note_on_c, 3, 42, 0
3, 164160, Note_on_c, 3, 44, 100
3, 164400, Note_on_c, 3, 44, 0
3, 164400, Note_on_c, 3, 46, 100
3, 164640, Note_on_c, 3, 46, 0
3, 164640, Note_on_c, 3, 44, 100
3, 164880, Note_on_c, 3, 44, 0
3, 164880, Note_on_c, 3, 42, 100
3, 165120, Note_on_c, 3, 42, 0
3, 165120, Note_on_c, 3, 40, 100
3, 168960, Note_on_c, 3, 40, 0
3, 169200, Note_on_c, 3, 51, 100
3, 169920, Note_on_c, 3, 51, 0
3, 169920, Note_on_c, 3, 49, 100
3, 170160, Note_on_c, 3, 49, 0
3, 170160, Note_on_c, 3, 51, 100
3, 170400, Note_on_c, 3, 51, 0
3, 170640, Note_on_c, 3, 49, 100
3, 170760, Note_on_c, 3, 49, 0
3, 170760, Note_on_c, 3, 47, 100
3, 171240, Note_on_c, 3, 47, 0
3, 171360, Note_on_c, 3, 45, 100
3, 171600, Note_on_c, 3, 45, 0
3, 171600, Note_on_c, 3, 43, 100
3, 171840, Note_on_c, 3, 43, 0
3, 171840, Note_on_c, 3, 45, 100
3, 172080, Note_on_c, 3, 45, 0
3, 172080, Note_on_c, 3, 47, 100
3, 172320, Note_on_c, 3, 47, 0
3, 172320, Note_on_c, 3, 45, 100
3, 172560, Note_on_c, 3, 45, 0
3, 172560, Note_on_c, 3, 43, 100
3, 172800, Note_on_c, 3, 43, 0
3, 172800, Note_on_c, 3, 45, 100
3, 173040, Note_on_c, 3, 45, 0
3, 173280, Note_on_c, 3, 45, 100
3, 173520, Note_on_c, 3, 45, 0
3, 173760, Note_on_c, 3, 47, 100
3, 174000, Note_on_c, 3, 47, 0
3, 174000, Note_on_c, 3, 45, 100
3, 174240, Note_on_c, 3, 45, 0
3, 174480, Note_on_c, 3, 43, 100
3, 174720, Note_on_c, 3, 43, 0
3, 174720, Note_on_c, 3, 45, 100
3, 174960, Note_on_c, 3, 45, 0
3, 175200, Note_on_c, 3, 45, 100
3, 175440, Note_on_c, 3, 45, 0
3, 175680, Note_on_c, 3, 49, 100
3, 175920, Note_on_c, 3, 49, 0
3, 175920, Note_on_c, 3, 47, 100
3, 176160, Note_on_c, 3, 47, 0
3, 176160, Note_on_c, 3, 45, 100
3, 176400, Note_on_c, 3, 45, 0
3, 176400, Note_on_c, 3, 43, 100
3, 176640, Note_on_c, 3, 43, 0
3, 176640, Note_on_c, 3, 45, 100
3, 180240, Note_on_c, 3, 45, 0
3, 180480, Text_t, "HandMap_Default"
3, 180480, Note_on_c, 3, 47, 100
3, 180720, Note_on_c, 3, 47, 0
3, 180720, Note_on_c, 3, 50, 100
3, 180960, Note_on_c, 3, 50, 0
3, 180960, Note_on_c, 3, 52, 100
3, 181680, Note_on_c, 3, 52, 0
3, 182160, Note_on_c, 3, 40, 100
3, 182400, Note_on_c, 3, 40, 0
3, 183120, Note_on_c, 3, 50, 100
3, 183600, Note_on_c, 3, 50, 0
3, 183600, Note_on_c, 3, 47, 100
3, 183840, Note_on_c, 3, 47, 0
3, 183840, Note_on_c, 3, 45, 100
3, 184080, Note_on_c, 3, 45, 0
3, 184080, Note_on_c, 3, 47, 100
3, 184320, Note_on_c, 3, 47, 0
3, 184800, Note_on_c, 3, 43, 100
3, 185040, Note_on_c, 3, 43, 0
3, 185280, Note_on_c, 3, 42, 100
3, 185520, Note_on_c, 3, 42, 0
3, 185520, Note_on_c, 3, 40, 100
3, 186240, Note_on_c, 3, 40, 0
3, 186720, Note_on_c, 3, 46, 100
3, 186960, Note_on_c, 3, 46, 0
3, 186960, Note_on_c, 3, 47, 100
3, 187440, Note_on_c, 3, 47, 0
3, 187680, Note_on_c, 3, 46, 100
3, 187920, Note_on_c, 3, 46, 0
3, 187920, Note_on_c, 3, 47, 100
3, 188640, Note_on_c, 3, 47, 0
3, 189600, Note_on_c, 3, 40, 100
3, 201120, Note_on_c, 3, 40, 0
3, 202080, Note_on_c, 3, 46, 100
3, 202320, Note_on_c, 3, 46, 0
3, 202320, Note_on_c, 3, 47, 100
3, 202800, Note_on_c, 3, 47, 0
3, 203040, Note_on_c, 3, 46, 100
3, 203280, Note_on_c, 3, 46, 0
3, 203280, Note_on_c, 3, 47, 100
3, 204000, Note_on_c, 3, 47, 0
3, 204960, Note_on_c, 3, 40, 100
3, 217920, Note_on_c, 3, 40, 0
3, 218640, Note_on_c, 3, 44, 100
3, 218880, Note_on_c, 3, 44, 0
3, 218880, Note_on_c, 3, 46, 100
3, 219120, Note_on_c, 3, 46, 0
3, 219120, Note_on_c, 3, 48, 100
3, 219360, Note_on_c, 3, 48, 0
3, 219360, Note_on_c, 3, 50, 100
3, 219600, Note_on_c, 3, 50, 0
3, 219600, Note_on_c, 3, 52, 100
3, 220080, Note_on_c, 3, 52, 0
3, 220320, Note_on_c, 3, 48, 100
3, 220560, Note_on_c, 3, 48, 0
3, 220560, Note_on_c, 3, 44, 100
3, 220800, Note_on_c, 3, 44, 0
3, 220800, Note_on_c, 3, 46, 100
3, 221040, Note_on_c, 3, 46, 0
3, 221040, Note_on_c, 3, 48, 100
3, 221280, Note_on_c, 3, 48, 0
3, 221280, Note_on_c, 3, 50, 100
3, 221760, Note_on_c, 3, 50, 0
3, 222480, Note_on_c, 3, 44, 100
3, 222720, Note_on_c, 3, 44, 0
3, 222720, Note_on_c, 3, 46, 100
3, 222960, Note_on_c, 3, 46, 0
3, 222960, Note_on_c, 3, 48, 100
3, 223200, Note_on_c, 3, 48, 0
3, 223200, Note_on_c, 3, 50, 100
3, 223440, Note_on_c, 3, 50, 0
3, 223440, Note_on_c, 3, 52, 100
3, 223920, Note_on_c, 3, 52, 0
3, 224160, Note_on_c, 3, 50, 100
3, 224400, Note_on_c, 3, 50, 0
3, 224400, Note_on_c, 3, 48, 100
3, 224640, Note_on_c, 3, 48, 0
3, 224640, Note_on_c, 3, 46, 100
3, 224880, Note_on_c, 3, 46, 0
3, 224880, Note_on_c, 3, 44, 100
3, 225120, Note_on_c, 3, 44, 0
3, 225120, Note_on_c, 3, 42, 100
3, 225360, Note_on_c, 3, 42, 0
3, 225360, Note_on_c, 3, 40, 100
3, 227520, Note_on_c, 3, 40, 0
3, 227760, Note_on_c, 3, 50, 100
3, 229680, Note_on_c, 3, 50, 0
3, 229680, Note_on_c, 3, 48, 100
3, 229800, Note_on_c, 3, 48, 0
3, 229800, Note_on_c, 3, 46, 100
3, 229920, Note_on_c, 3, 46, 0
3, 229920, Note_on_c, 3, 44, 100
3, 231360, Note_on_c, 3, 44, 0
3, 231680, Note_on_c, 3, 50, 100
3, 232880, Note_on_c, 3, 50, 0
3, 233120, Note_on_c, 3, 52, 100
3, 233600, Note_on_c, 3, 52, 0
3, 233760, Note_on_c, 3, 50, 100
3, 234000, Note_on_c, 3, 50, 0
3, 234000, Note_on_c, 3, 48, 100
3, 234240, Note_on_c, 3, 48, 0
3, 234240, Note_on_c, 3, 46, 100
3, 235920, Note_on_c, 3, 46, 0
3, 236160, Note_on_c, 3, 50, 100
3, 236400, Note_on_c, 3, 50, 0
3, 236400, Note_on_c, 3, 46, 100
3, 236880, Note_on_c, 3, 46, 0
3, 237120, Note_on_c, 3, 52, 100
3, 237840, Note_on_c, 3, 52, 0
3, 238080, Note_on_c, 3, 50, 100
3, 238320, Note_on_c, 3, 50, 0
3, 238320, Note_on_c, 3, 48, 100
3, 238560, Note_on_c, 3, 48, 0
3, 238560, Note_on_c, 3, 46, 100
3, 238800, Note_on_c, 3, 46, 0
3, 238800, Note_on_c, 3, 44, 100
3, 239040, Note_on_c, 3, 44, 0
3, 239040, Note_on_c, 3, 46, 100
3, 239280, Note_on_c, 3, 46, 0
3, 239520, Note_on_c, 3, 46, 100
3, 239760, Note_on_c, 3, 46, 0
3, 239760, Note_on_c, 3, 44, 100
3, 240000, Note_on_c, 3, 44, 0
3, 240000, Note_on_c, 3, 46, 100
3, 240240, Note_on_c, 3, 46, 0
3, 240240, Note_on_c, 3, 50, 100
3, 240480, Note_on_c, 3, 50, 0
3, 240480, Note_on_c, 3, 48, 100
3, 240720, Note_on_c, 3, 48, 0
3, 240720, Note_on_c, 3, 46, 100
3, 240960, Text_t, "HandMap_Solo"
3, 240960, Note_on_c, 3, 46, 0
3, 240960, Note_on_c, 3, 44, 100
3, 242880, Note_on_c, 3, 44, 0
3, 243120, Note_on_c, 3, 54, 100
3, 243360, Note_on_c, 3, 54, 0
3, 243840, Note_on_c, 3, 52, 100
3, 244080, Note_on_c, 3, 52, 0
3, 244560, Note_on_c, 3, 50, 100
3, 244800, Note_on_c, 3, 50, 0
3, 244800, Note_on_c, 3, 44, 100
3, 245040, Note_on_c, 3, 44, 0
3, 245280, Note_on_c, 3, 46, 100
3, 245520, Note_on_c, 3, 46, 0
3, 245760, Note_on_c, 3, 46, 100
3, 246000, Note_on_c, 3, 46, 0
3, 246240, Note_on_c, 3, 48, 100
3, 246480, Note_on_c, 3, 48, 0
3, 246560, Note_on_c, 3, 50, 100
3, 246720, Note_on_c, 3, 50, 0
3, 246720, Note_on_c, 3, 48, 100
3, 246880, Note_on_c, 3, 48, 0
3, 246880, Note_on_c, 3, 46, 100
3, 247040, Note_on_c, 3, 46, 0
3, 247040, Note_on_c, 3, 44, 100
3, 247200, Note_on_c, 3, 44, 0
3, 247200, Note_on_c, 3, 48, 100
3, 247440, Note_on_c, 3, 48, 0
3, 247440, Note_on_c, 3, 44, 100
3, 247920, Note_on_c, 3, 44, 0
3, 248400, Note_on_c, 3, 44, 100
3, 248520, Note_on_c, 3, 44, 0
3, 248520, Note_on_c, 3, 46, 100
3, 249360, Note_on_c, 3, 46, 0
3, 249600, Note_on_c, 3, 50, 100
3, 249840, Note_on_c, 3, 50, 0
3, 250080, Note_on_c, 3, 46, 100
3, 250320, Note_on_c, 3, 46, 0
3, 250320, Note_on_c, 3, 44, 100
3, 250560, Note_on_c, 3, 44, 0
3, 250560, Note_on_c, 3, 46, 100
3, 251280, Note_on_c, 3, 46, 0
3, 251520, Note_on_c, 3, 50, 100
3, 251760, Note_on_c, 3, 50, 0
3, 252360, Note_on_c, 3, 52, 100
3, 252480, Text_t, "HandMap_Default"
3, 252600, Note_on_c, 3, 52, 0
3, 252720, Note_on_c, 3, 50, 100
3, 252840, Note_on_c, 3, 50, 0
3, 252840, Note_on_c, 3, 48, 100
3, 252960, Note_on_c, 3, 48, 0
3, 252960, Note_on_c, 3, 50, 100
3, 253200, Note_on_c, 3, 50, 0
3, 253440, Note_on_c, 3, 48, 100
3, 253680, Note_on_c, 3, 48, 0
3, 253920, Note_on_c, 3, 50, 100
3, 254160, Note_on_c, 3, 50, 0
3, 254160, Note_on_c, 3, 48, 100
3, 254400, Note_on_c, 3, 48, 0
3, 254400, Note_on_c, 3, 46, 100
3, 254520, Note_on_c, 3, 46, 0
3, 254520, Note_on_c, 3, 44, 100
3, 254760, Note_on_c, 3, 44, 0
3, 254880, Note_on_c, 3, 51, 100
3, 255120, Note_on_c, 3, 51, 0
3, 255840, Note_on_c, 3, 54, 100
3, 256080, Note_on_c, 3, 54, 0
3, 256320, Note_on_c, 3, 40, 100
3, 257040, Note_on_c, 3, 40, 0
3, 257280, Note_on_c, 3, 52, 100
3, 257520, Note_on_c, 3, 52, 0
3, 257520, Note_on_c, 3, 54, 100
3, 257760, Note_on_c, 3, 54, 0
3, 257760, Note_on_c, 3, 52, 100
3, 258480, Note_on_c, 3, 52, 0
3, 258720, Note_on_c, 3, 45, 100
3, 258960, Note_on_c, 3, 45, 0
3, 259200, Note_on_c, 3, 47, 100
3, 259440, Note_on_c, 3, 47, 0
3, 259680, Note_on_c, 3, 42, 100
3, 259920, Note_on_c, 3, 42, 0
3, 260160, Note_on_c, 3, 43, 100
3, 260880, Note_on_c, 3, 43, 0
3, 261120, Note_on_c, 3, 52, 100
3, 261360, Note_on_c, 3, 52, 0
3, 261360, Note_on_c, 3, 54, 100
3, 261600, Note_on_c, 3, 54, 0
3, 261600, Note_on_c, 3, 52, 100
3, 262320, Note_on_c, 3, 52, 0
3, 262560, Note_on_c, 3, 49, 100
3, 262800, Note_on_c, 3, 49, 0
3, 263040, Note_on_c, 3, 50, 100
3, 263280, Note_on_c, 3, 50, 0
3, 263520, Note_on_c, 3, 43, 100
3, 263760, Note_on_c, 3, 43, 0
3, 264000, Note_on_c, 3, 40, 100
3, 264720, Note_on_c, 3, 40, 0
3, 264960, Note_on_c, 3, 52, 100
3, 265200, Note_on_c, 3, 52, 0
3, 265200, Note_on_c, 3, 54, 100
3, 265440, Note_on_c, 3, 54, 0
3, 265440, Note_on_c, 3, 52, 100
3, 266160, Note_on_c, 3, 52, 0
3, 266400, Note_on_c, 3, 45, 100
3, 266640, Note_on_c, 3, 45, 0
3, 266880, Note_on_c, 3, 47, 100
3, 267120, Note_on_c, 3, 47, 0
3, 267360, Note_on_c, 3, 42, 100
3, 267600, Note_on_c, 3, 42, 0
3, 267840, Note_on_c, 3, 43, 100
3, 268560, Note_on_c, 3, 43, 0
3, 268800, Note_on_c, 3, 52, 100
3, 269040, Note_on_c, 3, 52, 0
3, 269040, Note_on_c, 3, 54, 100
3, 269280, Note_on_c, 3, 54, 0
3, 269280, Note_on_c, 3, 52, 100
3, 270000, Note_on_c, 3, 52, 0
3, 270240, Note_on_c, 3, 49, 100
3, 270480, Note_on_c, 3, 49, 0
3, 270720, Note_on_c, 3, 50, 100
3, 270960, Note_on_c, 3, 50, 0
3, 271200, Note_on_c, 3, 43, 100
3, 271440, Note_on_c, 3, 43, 0
3, 271680, Note_on_c, 3, 40, 100
3, 273600, Note_on_c, 3, 40, 0
3, 274080, Note_on_c, 3, 45, 100
3, 274320, Note_on_c, 3, 45, 0
3, 274560, Note_on_c, 3, 47, 100
3, 274800, Note_on_c, 3, 47, 0
3, 275040, Note_on_c, 3, 42, 100
3, 275280, Note_on_c, 3, 42, 0
3, 275520, Note_on_c, 3, 43, 100
3, 277440, Note_on_c, 3, 43, 0
3, 277920, Note_on_c, 3, 49, 100
3, 278160, Note_on_c, 3, 49, 0
3, 278400, Note_on_c, 3, 50, 100
3, 278640, Note_on_c, 3, 50, 0
3, 278880, Note_on_c, 3, 43, 100
3, 279120, Note_on_c, 3, 43, 0
3, 279840, Note_on_c, 3, 50, 100
3, 282480, Note_on_c, 3, 50, 0
3, 283200, Note_on_c, 3, 52, 100
3, 286560, Note_on_c, 3, 52, 0
3, 287040, Note_on_c, 3, 40, 100
3, 288960, Note_on_c, 3, 40, 0
3, 289440, Note_on_c, 3, 45, 100
3, 289680, Note_on_c, 3, 45, 0
3, 289920, Note_on_c, 3, 47, 100
3, 290160, Note_on_c, 3, 47, 0
3, 290400, Note_on_c, 3, 42, 100
3, 290640, Note_on_c, 3, 42, 0
3, 290880, Note_on_c, 3, 43, 100
3, 292800, Note_on_c, 3, 43, 0
3, 293280, Note_on_c, 3, 49, 100
3, 293520, Note_on_c, 3, 49, 0
3, 293760, Note_on_c, 3, 50, 100
3, 294000, Note_on_c, 3, 50, 0
3, 294240, Note_on_c, 3, 43, 100
3, 294480, Note_on_c, 3, 43, 0
3, 295200, Note_on_c, 3, 50, 100
3, 297840, Note_on_c, 3, 50, 0
3, 298560, Note_on_c, 3, 52, 100
3, 301920, Note_on_c, 3, 52, 0
3, 302400, Note_on_c, 3, 40, 100
3, 304320, Note_on_c, 3, 40, 0
3, 304800, Note_on_c, 3, 45, 100
3, 305040, Note_on_c, 3, 45, 0
3, 305280, Note_on_c, 3, 47, 100
3, 305520, Note_on_c, 3, 47, 0
3, 305760, Note_on_c, 3, 42, 100
3, 306000, Note_on_c, 3, 42, 0
3, 306240, Note_on_c, 3, 43, 100
3, 308160, Note_on_c, 3, 43, 0
3, 308640, Note_on_c, 3, 49, 100
3, 308880, Note_on_c, 3, 49, 0
3, 309120, Note_on_c, 3, 50, 100
3, 309360, Note_on_c, 3, 50, 0
3, 309600, Note_on_c, 3, 43, 100
3, 309840, Note_on_c, 3, 43, 0
3, 310560, Note_on_c, 3, 50, 100
3, 313200, Note_on_c, 3, 50, 0
3, 313920, Note_on_c, 3, 52, 100
3, 317280, Note_on_c, 3, 52, 0
3, 317760, Note_on_c, 3, 40, 100
3, 319680, Note_on_c, 3, 40, 0
3, 320160, Note_on_c, 3, 45, 100
3, 320400, Note_on_c, 3, 45, 0
3, 320640, Note_on_c, 3, 47, 100
3, 320880, Note_on_c, 3, 47, 0
3, 321120, Note_on_c, 3, 42, 100
3, 321360, Note_on_c, 3, 42, 0
3, 321600, Note_on_c, 3, 43, 100
3, 323520, Note_on_c, 3, 43, 0
3, 324000, Note_on_c, 3, 49, 100
3, 324240, Note_on_c, 3, 49, 0
3, 324480, Note_on_c, 3, 50, 100
3, 324720, Note_on_c, 3, 50, 0
3, 324960, Note_on_c, 3, 43, 100
3, 325200, Note_on_c, 3, 43, 0
3, 325440, Note_on_c, 3, 40, 100
3, 326880, Note_on_c, 3, 40, 0
3, 326880, End_track
4, 0, Start_track
4, 0, Title_t, "EVENTS"
4, 0, Text_t, "[verse]"
4, 0, Text_t, "[lighting (blackout)]"
4, 0, Text_t, "bass_off"
4, 0, Text_t, "sing_off"
4, 7680, Text_t, "[music_start]"
4, 7680, Text_t, "bass_on"
4, 7680, Text_t, "[lighting ()]"
4, 21120, Text_t, "[lighting ()]"
4, 23040, Text_t, ""
4, 23040, Text_t, "[lighting ()]"
4, 36480, Text_t, "[lighting (color1)]"
4, 37440, Text_t, "[lighting (sweep)]"
4, 38400, Text_t, "wail_off"
4, 38400, Text_t, "[lighting ()]"
4, 48000, Text_t, "[lighting (flare)]"
4, 51840, Text_t, "[lighting ()]"
4, 53760, Text_t, "sing_on"
4, 53760, Text_t, "[lighting ()]"
4, 63360, Text_t, "[lighting (flare)]"
4, 67200, Text_t, "[lighting (color1)]"
4, 68160, Text_t, "[lighting (sweep)]"
4, 69120, Text_t, "[lighting ()]"
4, 78720, Text_t, "[lighting ()]"
4, 82560, Text_t, "[lighting (flare)]"
4, 84480, Text_t, "[lighting ()]"
4, 84480, Text_t, "[chorus]"
4, 84480, Text_t, "[lighting ()]"
4, 97920, Text_t, "[lighting ()]"
4, 99840, Text_t, "[lighting (color2)]"
4, 111360, Text_t, "[lighting (sweep)]"
4, 114240, Text_t, "[lighting ()]"
4, 115200, Text_t, "[solo]"
4, 115200, Text_t, "solo_on"
4, 120960, Text_t, "[lighting ()]"
4, 122880, Text_t, "[lighting (color1)]"
4, 128640, Text_t, "[lighting ()]"
4, 130560, Text_t, "[lighting (color2)]"
4, 136320, Text_t, "[lighting ()]"
4, 138240, Text_t, "[lighting (color1)]"
4, 142080, Text_t, "[lighting ()]"
4, 145920, Text_t, "solo_off"
4, 145920, Text_t, "[chorus]"
4, 145920, Text_t, "sing_on"
4, 145920, Text_t, ""
4, 157440, Text_t, "[lighting ()]"
4, 161280, Text_t, "[lighting (flare)]"
4, 172800, Text_t, "[lighting ()]"
4, 176640, Text_t, "[verse]"
4, 188160, Text_t, "[lighting (sweep)]"
4, 205440, Text_t, "[lighting ()]"
4, 207360, Text_t, "[lighting (color2)]"
4, 224640, Text_t, "[lighting ()]"
4, 225600, Text_t, "[lighting (color2)]"
4, 225600, Text_t, "[chorus]"
4, 239040, Text_t, "[lighting ()]"
4, 240960, Text_t, "[lighting (color2)]"
4, 253440, Text_t, "[lighting (flare)]"
4, 254400, Text_t, "[lighting ()]"
4, 256320, Text_t, "[verse]"
4, 256320, Text_t, "[lighting (sweep)]"
4, 256320, Text_t, "[lighting (color2)]"
4, 271680, Text_t, "sing_on"
4, 271680, Text_t, "[lighting (flare)]"
4, 284160, Text_t, "[lighting ()]"
4, 287040, Text_t, "[lighting (color2)]"
4, 298560, Text_t, "[lighting ()]"
4, 302400, Text_t, "[lighting (color2)]"
4, 312000, Text_t, "[lighting ()]"
4, 317760, Text_t, "[lighting (color2)]"
4, 326400, Text_t, "[lighting (blackout)]"
4, 326400, Text_t, "bass_off"
4, 327360, Text_t, "[lighting (flare)]"
4, 328800, Text_t, "[lighting ()]"
4, 329278, Text_t, "[end]"
4, 329278, End_track
5, 0, Start_track
5, 0, Title_t, "TRIGGERS"
5, 0, Note_on_c, 4, 60, 100
5, 240, Note_on_c, 4, 60, 0
5, 960, Note_on_c, 4, 60, 100
5, 1200, Note_on_c, 4, 60, 0
5, 1920, Note_on_c, 4, 60, 100
5, 2160, Note_on_c, 4, 60, 0
5, 2880, Note_on_c, 4, 60, 100
5, 3120, Note_on_c, 4, 60, 0
5, 3840, Note_on_c, 4, 60, 100
5, 4080, Note_on_c, 4, 60, 0
5, 4800, Note_on_c, 4, 60, 100
5, 5040, Note_on_c, 4, 60, 0
5, 5760, Note_on_c, 4, 60, 100
5, 6000, Note_on_c, 4, 60, 0
5, 6720, Note_on_c, 4, 60, 100
5, 6960, Note_on_c, 4, 60, 0
5, 7680, Note_on_c, 4, 60, 100
5, 7680, Note_on_c, 4, 61, 100
5, 7680, Note_on_c, 0, 68, 100
5, 7920, Note_on_c, 4, 60, 0
5, 7920, Note_on_c, 4, 61, 0
5, 8640, Note_on_c, 0, 68, 0
5, 8640, Note_on_c, 4, 60, 100
5, 8880, Note_on_c, 4, 60, 0
5, 9600, Note_on_c, 4, 60, 100
5, 9840, Note_on_c, 4, 60, 0
5, 10080, Note_on_c, 4, 61, 100
5, 10080, Note_on_c, 0, 69, 100
5, 10320, Note_on_c, 4, 61, 0
5, 10320, Note_on_c, 0, 69, 0
5, 10560, Note_on_c, 4, 60, 100
5, 10560, Note_on_c, 4, 61, 100
5, 10560, Note_on_c, 0, 70, 100
5, 10800, Note_on_c, 4, 60, 0
5, 10800, Note_on_c, 4, 61, 0
5, 10800, Note_on_c, 0, 70, 0
5, 11040, Note_on_c, 4, 61, 100
5, 11040, Note_on_c, 0, 68, 100
5, 11280, Note_on_c, 4, 61, 0
5, 11280, Note_on_c, 0, 68, 0
5, 11520, Note_on_c, 4, 60, 100
5, 11520, Note_on_c, 4, 61, 100
5, 11520, Note_on_c, 0, 69, 100
5, 11760, Note_on_c, 4, 60, 0
5, 11760, Note_on_c, 4, 61, 0
5, 12480, Note_on_c, 0, 69, 0
5, 12480, Note_on_c, 4, 60, 100
5, 12720, Note_on_c, 4, 60, 0
5, 13440, Note_on_c, 4, 60, 100
5, 13680, Note_on_c, 4, 60, 0
5, 13920, Note_on_c, 4, 61, 100
5, 13920, Note_on_c, 0, 69, 100
5, 14160, Note_on_c, 4, 61, 0
5, 14160, Note_on_c, 0, 69, 0
5, 14400, Note_on_c, 4, 60, 100
5, 14400, Note_on_c, 4, 61, 100
5, 14400, Note_on_c, 0, 70, 100
5, 14640, Note_on_c, 4, 60, 0
5, 14640, Note_on_c, 4, 61, 0
5, 14640, Note_on_c, 0, 70, 0
5, 14880, Note_on_c, 4, 61, 100
5, 14880, Note_on_c, 0, 69, 100
5, 15120, Note_on_c, 4, 61, 0
5, 15120, Note_on_c, 0, 69, 0
5, 15360, Note_on_c, 4, 60, 100
5, 15360, Note_on_c, 4, 61, 100
5, 15360, Note_on_c, 0, 68, 100
5, 15600, Note_on_c, 4, 60, 0
5, 15600, Note_on_c, 4, 61, 0
5, 16320, Note_on_c, 0, 68, 0
5, 16320, Note_on_c, 4, 60, 100
5, 16560, Note_on_c, 4, 60, 0
5, 17280, Note_on_c, 4, 60, 100
5, 17520, Note_on_c, 4, 60, 0
5, 17760, Note_on_c, 4, 61, 100
5, 17760, Note_on_c, 0, 69, 100
5, 18000, Note_on_c, 4, 61, 0
5, 18000, Note_on_c, 0, 69, 0
5, 18240, Note_on_c, 4, 60, 100
5, 18240, Note_on_c, 4, 61, 100
5, 18240, Note_on_c, 0, 70, 100
5, 18480, Note_on_c, 4, 60, 0
5, 18480, Note_on_c, 4, 61, 0
5, 18480, Note_on_c, 0, 70, 0
5, 18720, Note_on_c, 4, 61, 100
5, 18720, Note_on_c, 0, 68, 100
5, 18960, Note_on_c, 4, 61, 0
5, 18960, Note_on_c, 0, 68, 0
5, 19200, Note_on_c, 4, 60, 100
5, 19200, Note_on_c, 4, 61, 100
5, 19200, Note_on_c, 0, 69, 100
5, 19440, Note_on_c, 4, 60, 0
5, 19440, Note_on_c, 4, 61, 0
5, 20160, Note_on_c, 0, 69, 0
5, 20160, Note_on_c, 4, 60, 100
5, 20400, Note_on_c, 4, 60, 0
5, 21120, Note_on_c, 4, 60, 100
5, 21360, Note_on_c, 4, 60, 0
5, 21600, Note_on_c, 4, 61, 100
5, 21600, Note_on_c, 0, 69, 100
5, 21840, Note_on_c, 4, 61, 0
5, 21840, Note_on_c, 0, 69, 0
5, 22080, Note_on_c, 4, 60, 100
5, 22080, Note_on_c, 4, 61, 100
5, 22080, Note_on_c, 0, 70, 100
5, 22320, Note_on_c, 4, 60, 0
5, 22320, Note_on_c, 4, 61, 0
5, 22320, Note_on_c, 0, 70, 0
5, 22560, Note_on_c, 4, 61, 100
5, 22560, Note_on_c, 0, 69, 100
5, 22800, Note_on_c, 4, 61, 0
5, 22800, Note_on_c, 0, 69, 0
5, 23040, Note_on_c, 4, 60, 100
5, 23040, Note_on_c, 4, 61, 100
5, 23040, Note_on_c, 0, 68, 100
5, 23280, Note_on_c, 4, 60, 0
5, 23280, Note_on_c, 4, 61, 0
5, 24000, Note_on_c, 0, 68, 0
5, 24000, Note_on_c, 0, 70, 100
5, 24960, Note_on_c, 0, 70, 0
5, 24960, Note_on_c, 4, 60, 100
5, 25200, Note_on_c, 4, 60, 0
5, 25440, Note_on_c, 4, 60, 100
5, 25440, Note_on_c, 4, 61, 100
5, 25440, Note_on_c, 0, 69, 100
5, 25680, Note_on_c, 4, 60, 0
5, 25680, Note_on_c, 4, 61, 0
5, 25680, Note_on_c, 0, 69, 0
5, 25920, Note_on_c, 4, 61, 100
5, 25920, Note_on_c, 0, 70, 100
5, 26160, Note_on_c, 4, 61, 0
5, 26160, Note_on_c, 0, 70, 0
5, 26400, Note_on_c, 4, 61, 100
5, 26400, Note_on_c, 0, 68, 100
5, 26640, Note_on_c, 4, 61, 0
5, 26640, Note_on_c, 0, 68, 0
5, 26880, Note_on_c, 4, 60, 100
5, 26880, Note_on_c, 4, 61, 100
5, 26880, Note_on_c, 0, 69, 100
5, 27120, Note_on_c, 4, 60, 0
5, 27120, Note_on_c, 4, 61, 0
5, 27360, Note_on_c, 4, 60, 100
5, 27600, Note_on_c, 4, 60, 0
5, 27840, Note_on_c, 0, 69, 0
5, 27840, Note_on_c, 0, 70, 100
5, 28800, Note_on_c, 0, 70, 0
5, 28800, Note_on_c, 4, 60, 100
5, 29040, Note_on_c, 4, 60, 0
5, 29280, Note_on_c, 4, 60, 100
5, 29280, Note_on_c, 4, 61, 100
5, 29280, Note_on_c, 0, 69, 100
5, 29520, Note_on_c, 4, 60, 0
5, 29520, Note_on_c, 4, 61, 0
5, 29520, Note_on_c, 0, 69, 0
5, 29760, Note_on_c, 4, 61, 100
5, 29760, Note_on_c, 0, 70, 100
5, 30000, Note_on_c, 4, 61, 0
5, 30000, Note_on_c, 0, 70, 0
5, 30240, Note_on_c, 4, 61, 100
5, 30240, Note_on_c, 0, 69, 100
5, 30480, Note_on_c, 4, 61, 0
5, 30480, Note_on_c, 0, 69, 0
5, 30720, Note_on_c, 4, 60, 100
5, 30720, Note_on_c, 4, 61, 100
5, 30720, Note_on_c, 0, 68, 100
5, 30960, Note_on_c, 4, 60, 0
5, 30960, Note_on_c, 4, 61, 0
5, 31680, Note_on_c, 0, 68, 0
5, 31680, Note_on_c, 0, 70, 100
5, 32640, Note_on_c, 0, 70, 0
5, 32640, Note_on_c, 4, 60, 100
5, 32880, Note_on_c, 4, 60, 0
5, 33120, Note_on_c, 4, 60, 100
5, 33120, Note_on_c, 4, 61, 100
5, 33120, Note_on_c, 0, 69, 100
5, 33360, Note_on_c, 4, 60, 0
5, 33360, Note_on_c, 4, 61, 0
5, 33360, Note_on_c, 0, 69, 0
5, 33600, Note_on_c, 4, 61, 100
5, 33600, Note_on_c, 0, 70, 100
5, 33840, Note_on_c, 4, 61, 0
5, 33840, Note_on_c, 0, 70, 0
5, 34080, Note_on_c, 4, 61, 100
5, 34080, Note_on_c, 0, 68, 100
5, 34320, Note_on_c, 4, 61, 0
5, 34320, Note_on_c, 0, 68, 0
5, 34560, Note_on_c, 4, 60, 100
5, 34560, Note_on_c, 4, 61, 100
5, 34560, Note_on_c, 0, 69, 100
5, 34800, Note_on_c, 4, 60, 0
5, 34800, Note_on_c, 4, 61, 0
5, 35040, Note_on_c, 4, 60, 100
5, 35280, Note_on_c, 4, 60, 0
5, 35520, Note_on_c, 0, 69, 0
5, 35520, Note_on_c, 0, 70, 100
5, 35760, Note_on_c, 4, 60, 100
5, 36000, Note_on_c, 4, 60, 0
5, 36480, Note_on_c, 0, 70, 0
5, 36720, Note_on_c, 4, 60, 100
5, 36960, Note_on_c, 4, 60, 0
5, 36960, Note_on_c, 4, 61, 100
5, 36960, Note_on_c, 0, 69, 100
5, 37200, Note_on_c, 4, 61, 0
5, 37200, Note_on_c, 0, 69, 0
5, 37440, Note_on_c, 4, 61, 100
5, 37440, Note_on_c, 0, 70, 100
5, 37680, Note_on_c, 4, 61, 0
5, 37680, Note_on_c, 0, 70, 0
5, 37920, Note_on_c, 4, 61, 100
5, 37920, Note_on_c, 0, 69, 100
5, 38160, Note_on_c, 4, 61, 0
5, 38160, Note_on_c, 0, 69, 0
5, 38400, Note_on_c, 4, 60, 100
5, 38400, Note_on_c, 4, 61, 100
5, 38400, Note_on_c, 0, 68, 100
5, 38640, Note_on_c, 4, 60, 0
5, 38640, Note_on_c, 4, 61, 0
5, 39360, Note_on_c, 0, 68, 0
5, 40320, Note_on_c, 4, 60, 100
5, 40560, Note_on_c, 4, 60, 0
5, 40800, Note_on_c, 4, 60, 100
5, 40800, Note_on_c, 4, 61, 100
5, 40800, Note_on_c, 0, 69, 100
5, 41040, Note_on_c, 4, 60, 0
5, 41040, Note_on_c, 4, 61, 0
5, 41040, Note_on_c, 0, 69, 0
5, 41280, Note_on_c, 4, 61, 100
5, 41280, Note_on_c, 0, 70, 100
5, 41520, Note_on_c, 4, 61, 0
5, 41520, Note_on_c, 0, 70, 0
5, 41760, Note_on_c, 4, 61, 100
5, 41760, Note_on_c, 0, 68, 100
5, 42000, Note_on_c, 4, 61, 0
5, 42000, Note_on_c, 0, 68, 0
5, 42240, Note_on_c, 4, 60, 100
5, 42240, Note_on_c, 4, 61, 100
5, 42240, Note_on_c, 0, 69, 100
5, 42480, Note_on_c, 4, 60, 0
5, 42480, Note_on_c, 4, 61, 0
5, 42720, Note_on_c, 4, 60, 100
5, 42960, Note_on_c, 4, 60, 0
5, 43200, Note_on_c, 0, 69, 0
5, 43440, Note_on_c, 4, 60, 100
5, 43680, Note_on_c, 4, 60, 0
5, 44400, Note_on_c, 4, 60, 100
5, 44640, Note_on_c, 4, 60, 0
5, 44640, Note_on_c, 4, 61, 100
5, 44640, Note_on_c, 0, 69, 100
5, 44880, Note_on_c, 4, 61, 0
5, 44880, Note_on_c, 0, 69, 0
5, 45120, Note_on_c, 4, 61, 100
5, 45120, Note_on_c, 0, 70, 100
5, 45360, Note_on_c, 4, 61, 0
5, 45360, Note_on_c, 0, 70, 0
5, 45600, Note_on_c, 4, 61, 100
5, 45600, Note_on_c, 0, 69, 100
5, 45840, Note_on_c, 4, 61, 0
5, 45840, Note_on_c, 0, 69, 0
5, 46080, Note_on_c, 4, 60, 100
5, 46080, Note_on_c, 4, 61, 100
5, 46080, Note_on_c, 0, 68, 100
5, 46320, Note_on_c, 4, 60, 0
5, 46320, Note_on_c, 4, 61, 0
5, 46320, Note_on_c, 0, 68, 0
5, 46560, Note_on_c, 0, 69, 100
5, 48000, Note_on_c, 4, 60, 100
5, 48240, Note_on_c, 4, 60, 0
5, 48480, Note_on_c, 4, 60, 100
5, 48480, Note_on_c, 4, 61, 100
5, 48720, Note_on_c, 4, 60, 0
5, 48720, Note_on_c, 4, 61, 0
5, 48960, Note_on_c, 4, 61, 100
5, 49200, Note_on_c, 4, 61, 0
5, 49440, Note_on_c, 4, 61, 100
5, 49680, Note_on_c, 0, 69, 0
5, 49680, Note_on_c, 4, 61, 0
5, 49920, Note_on_c, 4, 60, 100
5, 49920, Note_on_c, 4, 61, 100
5, 49920, Note_on_c, 0, 70, 100
5, 50160, Note_on_c, 4, 60, 0
5, 50160, Note_on_c, 4, 61, 0
5, 50400, Note_on_c, 4, 60, 100
5, 50640, Note_on_c, 4, 60, 0
5, 51120, Note_on_c, 4, 60, 100
5, 51360, Note_on_c, 4, 60, 0
5, 52080, Note_on_c, 4, 60, 100
5, 52320, Note_on_c, 4, 60, 0
5, 52320, Note_on_c, 4, 61, 100
5, 52560, Note_on_c, 4, 61, 0
5, 52800, Note_on_c, 4, 61, 100
5, 53040, Note_on_c, 4, 61, 0
5, 53280, Note_on_c, 4, 61, 100
5, 53520, Note_on_c, 0, 70, 0
5, 53520, Note_on_c, 4, 61, 0
5, 53760, Note_on_c, 4, 60, 100
5, 53760, Note_on_c, 4, 61, 100
5, 53760, Note_on_c, 0, 68, 100
5, 54000, Note_on_c, 4, 60, 0
5, 54000, Note_on_c, 4, 61, 0
5, 54720, Note_on_c, 0, 68, 0
5, 55680, Note_on_c, 4, 60, 100
5, 55920, Note_on_c, 4, 60, 0
5, 56160, Note_on_c, 4, 60, 100
5, 56160, Note_on_c, 4, 61, 100
5, 56160, Note_on_c, 0, 69, 100
5, 56400, Note_on_c, 4, 60, 0
5, 56400, Note_on_c, 4, 61, 0
5, 56400, Note_on_c, 0, 69, 0
5, 56640, Note_on_c, 4, 61, 100
5, 56640, Note_on_c, 0, 70, 100
5, 56880, Note_on_c, 4, 61, 0
5, 56880, Note_on_c, 0, 70, 0
5, 57120, Note_on_c, 4, 61, 100
5, 57120, Note_on_c, 0, 68, 100
5, 57360, Note_on_c, 4, 61, 0
5, 57360, Note_on_c, 0, 68, 0
5, 57600, Note_on_c, 4, 60, 100
5, 57600, Note_on_c, 4, 61, 100
5, 57600, Note_on_c, 0, 69, 100
5, 57840, Note_on_c, 4, 60, 0
5, 57840, Note_on_c, 4, 61, 0
5, 58080, Note_on_c, 4, 60, 100
5, 58320, Note_on_c, 4, 60, 0
5, 58560, Note_on_c, 0, 69, 0
5, 60000, Note_on_c, 4, 60, 100
5, 60000, Note_on_c, 4, 61, 100
5, 60000, Note_on_c, 0, 69, 100
5, 60240, Note_on_c, 4, 60, 0
5, 60240, Note_on_c, 4, 61, 0
5, 60240, Note_on_c, 0, 69, 0
5, 60480, Note_on_c, 4, 61, 100
5, 60480, Note_on_c, 0, 70, 100
5, 60720, Note_on_c, 4, 61, 0
5, 60720, Note_on_c, 0, 70, 0
5, 60960, Note_on_c, 4, 61, 100
5, 60960, Note_on_c, 0, 69, 100
5, 61200, Note_on_c, 4, 61, 0
5, 61200, Note_on_c, 0, 69, 0
5, 61440, Note_on_c, 4, 60, 100
5, 61440, Note_on_c, 4, 61, 100
5, 61440, Note_on_c, 0, 68, 100
5, 61680, Note_on_c, 4, 60, 0
5, 61680, Note_on_c, 4, 61, 0
5, 62400, Note_on_c, 0, 68, 0
5, 62880, Note_on_c, 0, 70, 100
5, 63120, Note_on_c, 0, 70, 0
5, 63360, Note_on_c, 4, 60, 100
5, 63600, Note_on_c, 4, 60, 0
5, 63840, Note_on_c, 4, 60, 100
5, 63840, Note_on_c, 4, 61, 100
5, 63840, Note_on_c, 0, 69, 100
5, 64080, Note_on_c, 4, 60, 0
5, 64080, Note_on_c, 4, 61, 0
5, 64080, Note_on_c, 0, 69, 0
5, 64320, Note_on_c, 4, 61, 100
5, 64320, Note_on_c, 0, 68, 100
5, 64560, Note_on_c, 4, 61, 0
5, 64560, Note_on_c, 0, 68, 0
5, 64800, Note_on_c, 4, 61, 100
5, 65040, Note_on_c, 4, 61, 0
5, 65040, Note_on_c, 0, 70, 100
5, 65280, Note_on_c, 0, 70, 0
5, 65280, Note_on_c, 4, 60, 100
5, 65280, Note_on_c, 4, 61, 100
5, 65520, Note_on_c, 4, 60, 0
5, 65520, Note_on_c, 4, 61, 0
5, 65760, Note_on_c, 4, 60, 100
5, 66000, Note_on_c, 4, 60, 0
5, 66240, Note_on_c, 0, 70, 100
5, 66480, Note_on_c, 0, 70, 0
5, 66480, Note_on_c, 4, 60, 100
5, 66720, Note_on_c, 4, 60, 0
5, 66720, Note_on_c, 0, 69, 100
5, 67440, Note_on_c, 4, 60, 100
5, 67680, Note_on_c, 0, 69, 0
5, 67680, Note_on_c, 4, 60, 0
5, 67680, Note_on_c, 4, 61, 100
5, 67920, Note_on_c, 4, 61, 0
5, 68160, Note_on_c, 4, 61, 100
5, 68400, Note_on_c, 4, 61, 0
5, 68640, Note_on_c, 4, 61, 100
5, 68640, Note_on_c, 0, 68, 100
5, 68880, Note_on_c, 4, 61, 0
5, 68880, Note_on_c, 0, 68, 0
5, 69120, Note_on_c, 4, 60, 100
5, 69120, Note_on_c, 4, 61, 100
5, 69120, Note_on_c, 0, 69, 100
5, 69360, Note_on_c, 4, 60, 0
5, 69360, Note_on_c, 4, 61, 0
5, 69600, Note_on_c, 4, 60, 100
5, 69840, Note_on_c, 4, 60, 0
5, 70800, Note_on_c, 0, 69, 0
5, 71040, Note_on_c, 4, 60, 100
5, 71280, Note_on_c, 4, 60, 0
5, 71520, Note_on_c, 4, 60, 100
5, 71520, Note_on_c, 4, 61, 100
5, 71520, Note_on_c, 0, 69, 100
5, 71760, Note_on_c, 4, 60, 0
5, 71760, Note_on_c, 4, 61, 0
5, 71760, Note_on_c, 0, 69, 0
5, 72000, Note_on_c, 4, 61, 100
5, 72000, Note_on_c, 0, 70, 100
5, 72240, Note_on_c, 4, 61, 0
5, 72240, Note_on_c, 0, 70, 0
5, 72480, Note_on_c, 4, 61, 100
5, 72480, Note_on_c, 0, 68, 100
5, 72720, Note_on_c, 4, 61, 0
5, 72720, Note_on_c, 0, 68, 0
5, 72960, Note_on_c, 4, 60, 100
5, 72960, Note_on_c, 4, 61, 100
5, 72960, Note_on_c, 0, 69, 100
5, 73200, Note_on_c, 4, 60, 0
5, 73200, Note_on_c, 4, 61, 0
5, 73440, Note_on_c, 4, 60, 100
5, 73680, Note_on_c, 4, 60, 0
5, 73920, Note_on_c, 0, 69, 0
5, 74880, Note_on_c, 4, 60, 100
5, 75120, Note_on_c, 4, 60, 0
5, 75360, Note_on_c, 4, 60, 100
5, 75360, Note_on_c, 4, 61, 100
5, 75360, Note_on_c, 0, 69, 100
5, 75600, Note_on_c, 4, 60, 0
5, 75600, Note_on_c, 4, 61, 0
5, 75600, Note_on_c, 0, 69, 0
5, 75840, Note_on_c, 4, 61, 100
5, 75840, Note_on_c, 0, 70, 100
5, 76080, Note_on_c, 4, 61, 0
5, 76080, Note_on_c, 0, 70, 0
5, 76320, Note_on_c, 4, 61, 100
5, 76320, Note_on_c, 0, 69, 100
5, 76560, Note_on_c, 4, 61, 0
5, 76560, Note_on_c, 0, 69, 0
5, 76800, Note_on_c, 4, 60, 100
5, 76800, Note_on_c, 4, 61, 100
5, 76800, Note_on_c, 0, 68, 100
5, 77040, Note_on_c, 4, 60, 0
5, 77040, Note_on_c, 4, 61, 0
5, 77040, Note_on_c, 0, 68, 0
5, 77280, Note_on_c, 0, 69, 100
5, 77520, Note_on_c, 0, 69, 0
5, 78000, Note_on_c, 0, 70, 100
5, 78240, Note_on_c, 0, 70, 0
5, 78480, Note_on_c, 0, 68, 100
5, 78720, Note_on_c, 0, 68, 0
5, 79200, Note_on_c, 4, 60, 100
5, 79200, Note_on_c, 4, 61, 100
5, 79440, Note_on_c, 4, 60, 0
5, 79440, Note_on_c, 4, 61, 0
5, 79440, Note_on_c, 0, 70, 100
5, 79680, Note_on_c, 4, 61, 100
5, 79920, Note_on_c, 4, 61, 0
5, 80160, Note_on_c, 0, 70, 0
5, 80160, Note_on_c, 4, 61, 100
5, 80400, Note_on_c, 4, 61, 0
5, 80640, Note_on_c, 4, 60, 100
5, 80640, Note_on_c, 4, 61, 100
5, 80880, Note_on_c, 4, 60, 0
5, 80880, Note_on_c, 4, 61, 0
5, 80880, Note_on_c, 0, 68, 100
5, 81120, Note_on_c, 0, 68, 0
5, 81120, Note_on_c, 4, 60, 100
5, 81360, Note_on_c, 4, 60, 0
5, 81840, Note_on_c, 4, 60, 100
5, 82080, Note_on_c, 4, 60, 0
5, 82080, Note_on_c, 0, 70, 100
5, 82320, Note_on_c, 0, 70, 0
5, 82800, Note_on_c, 4, 60, 100
5, 83040, Note_on_c, 4, 60, 0
5, 83040, Note_on_c, 4, 61, 100
5, 83040, Note_on_c, 0, 69, 100
5, 83200, Note_on_c, 0, 69, 0
5, 83280, Note_on_c, 4, 61, 0
5, 83520, Note_on_c, 4, 61, 100
5, 83760, Note_on_c, 4, 61, 0
5, 83760, Note_on_c, 4, 60, 100
5, 84000, Note_on_c, 4, 60, 0
5, 84000, Note_on_c, 4, 61, 100
5, 84000, Note_on_c, 0, 68, 100
5, 84240, Note_on_c, 4, 61, 0
5, 84240, Note_on_c, 0, 68, 0
5, 84480, Note_on_c, 4, 60, 100
5, 84480, Note_on_c, 4, 61, 100
5, 84480, Note_on_c, 0, 69, 100
5, 84720, Note_on_c, 4, 60, 0
5, 84720, Note_on_c, 4, 61, 0
5, 84960, Note_on_c, 4, 60, 100
5, 84960, Note_on_c, 4, 61, 100
5, 85200, Note_on_c, 4, 60, 0
5, 85200, Note_on_c, 4, 61, 0
5, 85440, Note_on_c, 4, 61, 100
5, 85680, Note_on_c, 4, 61, 0
5, 85920, Note_on_c, 0, 69, 0
5, 86400, Note_on_c, 4, 60, 100
5, 86400, Note_on_c, 4, 61, 100
5, 86640, Note_on_c, 4, 60, 0
5, 86640, Note_on_c, 4, 61, 0
5, 86640, Note_on_c, 0, 70, 100
5, 86880, Note_on_c, 0, 70, 0
5, 86880, Note_on_c, 4, 60, 100
5, 87120, Note_on_c, 4, 60, 0
5, 87360, Note_on_c, 4, 61, 100
5, 87600, Note_on_c, 4, 61, 0
5, 87600, Note_on_c, 0, 69, 100
5, 87840, Note_on_c, 0, 69, 0
5, 87840, Note_on_c, 4, 60, 100
5, 87840, Note_on_c, 4, 61, 100
5, 88080, Note_on_c, 4, 60, 0
5, 88080, Note_on_c, 4, 61, 0
5, 88320, Note_on_c, 4, 60, 100
5, 88320, Note_on_c, 4, 61, 100
5, 88320, Note_on_c, 0, 68, 100
5, 88560, Note_on_c, 4, 60, 0
5, 88560, Note_on_c, 4, 61, 0
5, 88800, Note_on_c, 4, 60, 100
5, 88800, Note_on_c, 4, 61, 100
5, 89040, Note_on_c, 4, 60, 0
5, 89040, Note_on_c, 4, 61, 0
5, 89280, Note_on_c, 4, 61, 100
5, 89520, Note_on_c, 4, 61, 0
5, 90000, Note_on_c, 0, 68, 0
5, 90240, Note_on_c, 4, 60, 100
5, 90240, Note_on_c, 4, 61, 100
5, 90480, Note_on_c, 4, 60, 0
5, 90480, Note_on_c, 4, 61, 0
5, 90720, Note_on_c, 4, 60, 100
5, 90720, Note_on_c, 4, 61, 100
5, 90960, Note_on_c, 4, 60, 0
5, 90960, Note_on_c, 4, 61, 0
5, 91200, Note_on_c, 4, 61, 100
5, 91440, Note_on_c, 4, 61, 0
5, 91680, Note_on_c, 4, 61, 100
5, 91920, Note_on_c, 4, 61, 0
5, 92160, Note_on_c, 4, 60, 100
5, 92160, Note_on_c, 4, 61, 100
5, 92400, Note_on_c, 4, 60, 0
5, 92400, Note_on_c, 4, 61, 0
5, 92640, Note_on_c, 4, 61, 100
5, 92640, Note_on_c, 4, 60, 100
5, 92640, Note_on_c, 0, 69, 100
5, 92880, Note_on_c, 4, 61, 0
5, 92880, Note_on_c, 4, 60, 0
5, 93120, Note_on_c, 4, 61, 100
5, 93360, Note_on_c, 4, 61, 0
5, 93600, Note_on_c, 0, 69, 0
5, 93840, Note_on_c, 0, 69, 100
5, 94080, Note_on_c, 0, 69, 0
5, 94080, Note_on_c, 4, 60, 100
5, 94080, Note_on_c, 4, 61, 100
5, 94320, Note_on_c, 4, 60, 0
5, 94320, Note_on_c, 4, 61, 0
5, 94560, Note_on_c, 4, 60, 100
5, 94560, Note_on_c, 0, 70, 100
5, 94800, Note_on_c, 4, 60, 0
5, 94800, Note_on_c, 0, 70, 0
5, 95040, Note_on_c, 4, 61, 100
5, 95040, Note_on_c, 0, 69, 100
5, 95280, Note_on_c, 4, 61, 0
5, 95280, Note_on_c, 0, 69, 0
5, 95520, Note_on_c, 4, 61, 100
5, 95520, Note_on_c, 0, 68, 100
5, 95760, Note_on_c, 4, 61, 0
5, 95760, Note_on_c, 0, 68, 0
5, 96000, Note_on_c, 4, 60, 100
5, 96000, Note_on_c, 4, 61, 100
5, 96000, Note_on_c, 0, 68, 100
5, 96240, Note_on_c, 4, 60, 0
5, 96240, Note_on_c, 4, 61, 0
5, 96240, Note_on_c, 0, 68, 0
5, 96480, Note_on_c, 4, 60, 100
5, 96480, Note_on_c, 4, 61, 100
5, 96720, Note_on_c, 4, 60, 0
5, 96720, Note_on_c, 4, 61, 0
5, 96960, Note_on_c, 4, 61, 100
5, 96960, Note_on_c, 0, 68, 100
5, 97200, Note_on_c, 4, 61, 0
5, 97200, Note_on_c, 0, 68, 0
5, 97440, Note_on_c, 0, 68, 100
5, 97680, Note_on_c, 0, 68, 0
5, 97680, Note_on_c, 4, 61, 100
5, 97920, Note_on_c, 4, 61, 0
5, 97920, Note_on_c, 4, 61, 100
5, 97920, Note_on_c, 0, 69, 100
5, 98160, Note_on_c, 4, 61, 0
5, 98160, Note_on_c, 0, 69, 0
5, 98160, Note_on_c, 4, 60, 100
5, 98400, Note_on_c, 4, 60, 0
5, 98400, Note_on_c, 4, 61, 100
5, 98400, Note_on_c, 0, 69, 100
5, 98640, Note_on_c, 4, 61, 0
5, 98640, Note_on_c, 0, 69, 0
5, 98880, Note_on_c, 4, 61, 100
5, 99120, Note_on_c, 4, 61, 0
5, 99120, Note_on_c, 4, 60, 100
5, 99360, Note_on_c, 4, 60, 0
5, 99360, Note_on_c, 4, 61, 100
5, 99360, Note_on_c, 0, 70, 100
5, 99600, Note_on_c, 4, 61, 0
5, 99600, Note_on_c, 0, 70, 0
5, 99840, Note_on_c, 4, 60, 100
5, 99840, Note_on_c, 4, 61, 100
5, 99840, Note_on_c, 0, 70, 100
5, 100080, Note_on_c, 4, 60, 0
5, 100080, Note_on_c, 4, 61, 0
5, 100320, Note_on_c, 4, 60, 100
5, 100320, Note_on_c, 4, 61, 100
5, 100560, Note_on_c, 4, 60, 0
5, 100560, Note_on_c, 4, 61, 0
5, 100800, Note_on_c, 4, 61, 100
5, 101040, Note_on_c, 4, 61, 0
5, 101760, Note_on_c, 0, 70, 0
5, 101760, Note_on_c, 4, 60, 100
5, 101760, Note_on_c, 4, 61, 100
5, 102000, Note_on_c, 4, 60, 0
5, 102000, Note_on_c, 4, 61, 0
5, 102000, Note_on_c, 0, 70, 100
5, 102120, Note_on_c, 0, 70, 0
5, 102240, Note_on_c, 4, 60, 100
5, 102480, Note_on_c, 4, 60, 0
5, 102720, Note_on_c, 4, 61, 100
5, 102720, Note_on_c, 0, 69, 100
5, 102960, Note_on_c, 4, 61, 0
5, 102960, Note_on_c, 0, 69, 0
5, 103200, Note_on_c, 4, 61, 100
5, 103200, Note_on_c, 4, 60, 100
5, 103440, Note_on_c, 4, 61, 0
5, 103440, Note_on_c, 4, 60, 0
5, 103680, Note_on_c, 4, 60, 100
5, 103680, Note_on_c, 4, 61, 100
5, 103680, Note_on_c, 0, 68, 100
5, 103920, Note_on_c, 4, 60, 0
5, 103920, Note_on_c, 4, 61, 0
5, 104160, Note_on_c, 4, 60, 100
5, 104160, Note_on_c, 4, 61, 100
5, 104400, Note_on_c, 4, 60, 0
5, 104400, Note_on_c, 4, 61, 0
5, 104640, Note_on_c, 4, 61, 100
5, 104880, Note_on_c, 4, 61, 0
5, 105600, Note_on_c, 4, 60, 100
5, 105600, Note_on_c, 4, 61, 100
5, 105840, Note_on_c, 4, 60, 0
5, 105840, Note_on_c, 4, 61, 0
5, 106080, Note_on_c, 4, 61, 100
5, 106320, Note_on_c, 4, 61, 0
5, 106560, Note_on_c, 0, 68, 0
5, 106560, Note_on_c, 4, 61, 100
5, 106800, Note_on_c, 4, 61, 0
5, 107040, Note_on_c, 4, 61, 100
5, 107280, Note_on_c, 4, 61, 0
5, 107520, Note_on_c, 4, 60, 100
5, 107520, Note_on_c, 4, 61, 100
5, 107520, Note_on_c, 0, 70, 100
5, 107760, Note_on_c, 4, 60, 0
5, 107760, Note_on_c, 4, 61, 0
5, 107760, Note_on_c, 0, 70, 0
5, 108000, Note_on_c, 4, 61, 100
5, 108000, Note_on_c, 4, 60, 100
5, 108240, Note_on_c, 4, 61, 0
5, 108240, Note_on_c, 4, 60, 0
5, 108480, Note_on_c, 4, 61, 100
5, 108480, Note_on_c, 0, 70, 100
5, 108720, Note_on_c, 4, 61, 0
5, 108720, Note_on_c, 0, 70, 0
5, 108960, Note_on_c, 0, 69, 100
5, 109200, Note_on_c, 0, 69, 0
5, 109440, Note_on_c, 4, 60, 100
5, 109440, Note_on_c, 4, 61, 100
5, 109440, Note_on_c, 0, 70, 100
5, 109680, Note_on_c, 4, 60, 0
5, 109680, Note_on_c, 4, 61, 0
5, 109680, Note_on_c, 0, 70, 0
5, 109920, Note_on_c, 4, 60, 100
5, 110160, Note_on_c, 4, 60, 0
5, 110400, Note_on_c, 4, 61, 100
5, 110400, Note_on_c, 0, 70, 100
5, 110640, Note_on_c, 4, 61, 0
5, 110640, Note_on_c, 0, 70, 0
5, 110880, Note_on_c, 4, 61, 100
5, 110880, Note_on_c, 0, 69, 100
5, 111120, Note_on_c, 4, 61, 0
5, 111120, Note_on_c, 0, 69, 0
5, 111360, Note_on_c, 4, 60, 100
5, 111360, Note_on_c, 4, 61, 100
5, 111600, Note_on_c, 4, 60, 0
5, 111600, Note_on_c, 4, 61, 0
5, 111600, Note_on_c, 0, 68, 100
5, 111840, Note_on_c, 0, 68, 0
5, 111840, Note_on_c, 4, 60, 100
5, 111840, Note_on_c, 4, 61, 100
5, 112080, Note_on_c, 4, 60, 0
5, 112080, Note_on_c, 4, 61, 0
5, 112320, Note_on_c, 4, 61, 100
5, 112320, Note_on_c, 0, 69, 100
5, 112560, Note_on_c, 4, 61, 0
5, 112560, Note_on_c, 0, 69, 0
5, 113040, Note_on_c, 0, 69, 100
5, 113280, Note_on_c, 4, 60, 100
5, 113280, Note_on_c, 4, 61, 100
5, 113520, Note_on_c, 4, 60, 0
5, 113520, Note_on_c, 4, 61, 0
5, 113760, Note_on_c, 0, 69, 0
5, 113760, Note_on_c, 4, 60, 100
5, 113760, Note_on_c, 4, 61, 100
5, 114000, Note_on_c, 4, 60, 0
5, 114000, Note_on_c, 4, 61, 0
5, 114000, Note_on_c, 4, 61, 100
5, 114240, Note_on_c, 4, 61, 0
5, 114240, Note_on_c, 4, 61, 100
5, 114240, Note_on_c, 0, 70, 100
5, 114400, Note_on_c, 0, 70, 0
5, 114480, Note_on_c, 4, 61, 0
5, 114720, Note_on_c, 4, 61, 100
5, 114960, Note_on_c, 4, 61, 0
5, 115200, Note_on_c, 4, 60, 100
5, 115200, Note_on_c, 4, 61, 100
5, 115440, Note_on_c, 4, 60, 0
5, 115440, Note_on_c, 4, 61, 0
5, 115680, Note_on_c, 0, 70, 100
5, 117120, Note_on_c, 0, 70, 0
5, 117120, Note_on_c, 4, 60, 100
5, 117120, Note_on_c, 0, 70, 100
5, 117280, Note_on_c, 0, 70, 0
5, 117360, Note_on_c, 4, 60, 0
5, 117600, Note_on_c, 4, 60, 100
5, 117600, Note_on_c, 4, 61, 100
5, 117840, Note_on_c, 4, 60, 0
5, 117840, Note_on_c, 4, 61, 0
5, 118080, Note_on_c, 4, 61, 100
5, 118080, Note_on_c, 0, 69, 100
5, 118240, Note_on_c, 0, 69, 0
5, 118320, Note_on_c, 4, 61, 0
5, 118560, Note_on_c, 4, 61, 100
5, 118800, Note_on_c, 4, 61, 0
5, 119040, Note_on_c, 4, 60, 100
5, 119040, Note_on_c, 4, 61, 100
5, 119040, Note_on_c, 0, 69, 100
5, 119200, Note_on_c, 0, 69, 0
5, 119280, Note_on_c, 4, 60, 0
5, 119280, Note_on_c, 4, 61, 0
5, 119520, Note_on_c, 4, 60, 100
5, 119520, Note_on_c, 0, 70, 100
5, 119760, Note_on_c, 4, 60, 0
5, 119760, Note_on_c, 0, 70, 0
5, 120000, Note_on_c, 0, 69, 100
5, 120160, Note_on_c, 0, 69, 0
5, 120240, Note_on_c, 4, 60, 100
5, 120480, Note_on_c, 4, 60, 0
5, 120480, Note_on_c, 0, 70, 100
5, 120720, Note_on_c, 0, 70, 0
5, 120960, Note_on_c, 0, 69, 100
5, 121120, Note_on_c, 0, 69, 0
5, 121200, Note_on_c, 4, 60, 100
5, 121440, Note_on_c, 4, 60, 0
5, 121440, Note_on_c, 4, 61, 100
5, 121680, Note_on_c, 4, 61, 0
5, 121920, Note_on_c, 4, 61, 100
5, 121920, Note_on_c, 0, 69, 100
5, 122080, Note_on_c, 0, 69, 0
5, 122160, Note_on_c, 4, 61, 0
5, 122400, Note_on_c, 4, 61, 100
5, 122400, Note_on_c, 0, 69, 100
5, 122640, Note_on_c, 4, 61, 0
5, 122640, Note_on_c, 0, 69, 0
5, 122880, Note_on_c, 4, 60, 100
5, 122880, Note_on_c, 4, 61, 100
5, 122880, Note_on_c, 0, 68, 100
5, 123120, Note_on_c, 4, 60, 0
5, 123120, Note_on_c, 4, 61, 0
5, 123520, Note_on_c, 0, 68, 0
5, 123840, Note_on_c, 0, 68, 100
5, 124000, Note_on_c, 0, 68, 0
5, 124800, Note_on_c, 0, 69, 100
5, 124960, Note_on_c, 0, 69, 0
5, 125280, Note_on_c, 4, 60, 100
5, 125280, Note_on_c, 4, 61, 100
5, 125520, Note_on_c, 4, 60, 0
5, 125520, Note_on_c, 4, 61, 0
5, 125760, Note_on_c, 4, 61, 100
5, 125760, Note_on_c, 0, 70, 100
5, 125920, Note_on_c, 0, 70, 0
5, 126000, Note_on_c, 4, 61, 0
5, 126240, Note_on_c, 4, 61, 100
5, 126480, Note_on_c, 4, 61, 0
5, 126720, Note_on_c, 4, 60, 100
5, 126720, Note_on_c, 4, 61, 100
5, 126720, Note_on_c, 0, 69, 100
5, 126880, Note_on_c, 0, 69, 0
5, 126960, Note_on_c, 4, 60, 0
5, 126960, Note_on_c, 4, 61, 0
5, 127200, Note_on_c, 4, 60, 100
5, 127440, Note_on_c, 4, 60, 0
5, 127920, Note_on_c, 4, 60, 100
5, 128000, Note_on_c, 0, 70, 100
5, 128160, Note_on_c, 4, 60, 0
5, 128160, Note_on_c, 0, 70, 0
5, 129120, Note_on_c, 4, 61, 100
5, 129120, Note_on_c, 0, 68, 100
5, 129280, Note_on_c, 0, 68, 0
5, 129360, Note_on_c, 4, 61, 0
5, 129600, Note_on_c, 4, 61, 100
5, 129600, Note_on_c, 0, 70, 100
5, 129840, Note_on_c, 4, 61, 0
5, 130080, Note_on_c, 4, 61, 100
5, 130240, Note_on_c, 0, 70, 0
5, 130320, Note_on_c, 4, 61, 0
5, 130560, Note_on_c, 4, 60, 100
5, 130560, Note_on_c, 4, 61, 100
5, 130560, Note_on_c, 0, 68, 100
5, 130800, Note_on_c, 4, 60, 0
5, 130800, Note_on_c, 4, 61, 0
5, 130800, Note_on_c, 0, 68, 0
5, 131520, Note_on_c, 0, 68, 100
5, 131760, Note_on_c, 0, 68, 0
5, 132480, Note_on_c, 0, 69, 100
5, 132960, Note_on_c, 4, 60, 100
5, 132960, Note_on_c, 4, 61, 100
5, 133200, Note_on_c, 4, 60, 0
5, 133200, Note_on_c, 4, 61, 0
5, 133440, Note_on_c, 4, 61, 100
5, 133680, Note_on_c, 0, 69, 0
5, 133680, Note_on_c, 4, 61, 0
5, 133920, Note_on_c, 4, 61, 100
5, 133920, Note_on_c, 0, 70, 100
5, 134160, Note_on_c, 4, 61, 0
5, 134160, Note_on_c, 0, 70, 0
5, 134400, Note_on_c, 4, 61, 100
5, 134400, Note_on_c, 4, 60, 100
5, 134640, Note_on_c, 4, 61, 0
5, 134640, Note_on_c, 4, 60, 0
5, 134880, Note_on_c, 4, 60, 100
5, 134880, Note_on_c, 0, 69, 100
5, 135120, Note_on_c, 4, 60, 0
5, 135120, Note_on_c, 0, 69, 0
5, 135360, Note_on_c, 0, 69, 100
5, 135600, Note_on_c, 0, 69, 0
5, 135600, Note_on_c, 4, 60, 100
5, 135840, Note_on_c, 4, 60, 0
5, 136560, Note_on_c, 0, 68, 100
5, 136800, Note_on_c, 0, 68, 0
5, 136800, Note_on_c, 4, 61, 100
5, 137040, Note_on_c, 4, 61, 0
5, 137280, Note_on_c, 4, 61, 100
5, 137280, Note_on_c, 0, 70, 100
5, 137520, Note_on_c, 4, 61, 0
5, 137760, Note_on_c, 4, 61, 100
5, 138000, Note_on_c, 0, 70, 0
5, 138000, Note_on_c, 4, 61, 0
5, 138240, Note_on_c, 4, 60, 100
5, 138240, Note_on_c, 4, 61, 100
5, 138240, Note_on_c, 0, 68, 100
5, 138480, Note_on_c, 4, 60, 0
5, 138480, Note_on_c, 4, 61, 0
5, 138720, Note_on_c, 0, 68, 0
5, 139200, Note_on_c, 0, 69, 100
5, 139440, Note_on_c, 0, 69, 0
5, 140160, Note_on_c, 0, 69, 100
5, 140400, Note_on_c, 0, 69, 0
5, 140640, Note_on_c, 4, 60, 100
5, 140640, Note_on_c, 4, 61, 100
5, 140880, Note_on_c, 4, 60, 0
5, 140880, Note_on_c, 4, 61, 0
5, 141120, Note_on_c, 4, 61, 100
5, 141120, Note_on_c, 0, 70, 100
5, 141360, Note_on_c, 4, 61, 0
5, 141360, Note_on_c, 0, 70, 0
5, 141600, Note_on_c, 4, 61, 100
5, 141600, Note_on_c, 0, 70, 100
5, 141840, Note_on_c, 4, 61, 0
5, 141840, Note_on_c, 0, 70, 0
5, 142080, Note_on_c, 4, 61, 100
5, 142080, Note_on_c, 0, 70, 100
5, 142320, Note_on_c, 4, 61, 0
5, 142320, Note_on_c, 0, 70, 0
5, 142560, Note_on_c, 4, 60, 100
5, 142560, Note_on_c, 0, 70, 100
5, 142800, Note_on_c, 4, 60, 0
5, 142800, Note_on_c, 0, 70, 0
5, 143040, Note_on_c, 0, 70, 100
5, 143280, Note_on_c, 0, 70, 0
5, 143280, Note_on_c, 4, 60, 100
5, 143520, Note_on_c, 4, 60, 0
5, 143520, Note_on_c, 0, 70, 100
5, 143760, Note_on_c, 0, 70, 0
5, 144000, Note_on_c, 0, 70, 100
5, 144240, Note_on_c, 0, 70, 0
5, 144480, Note_on_c, 4, 61, 100
5, 144480, Note_on_c, 0, 70, 100
5, 144720, Note_on_c, 4, 61, 0
5, 144720, Note_on_c, 0, 70, 0
5, 144960, Note_on_c, 4, 61, 100
5, 144960, Note_on_c, 0, 70, 100
5, 145200, Note_on_c, 4, 61, 0
5, 145200, Note_on_c, 0, 70, 0
5, 145440, Note_on_c, 4, 61, 100
5, 145440, Note_on_c, 0, 70, 100
5, 145680, Note_on_c, 4, 61, 0
5, 145680, Note_on_c, 0, 70, 0
5, 145920, Note_on_c, 4, 60, 100
5, 145920, Note_on_c, 4, 61, 100
5, 145920, Note_on_c, 0, 69, 100
5, 146160, Note_on_c, 4, 60, 0
5, 146160, Note_on_c, 4, 61, 0
5, 146400, Note_on_c, 4, 61, 100
5, 146640, Note_on_c, 4, 61, 0
5, 146880, Note_on_c, 4, 61, 100
5, 147120, Note_on_c, 4, 61, 0
5, 147840, Note_on_c, 0, 69, 0
5, 147840, Note_on_c, 4, 60, 100
5, 147840, Note_on_c, 4, 61, 100
5, 148080, Note_on_c, 4, 60, 0
5, 148080, Note_on_c, 4, 61, 0
5, 148080, Note_on_c, 0, 70, 100
5, 148320, Note_on_c, 0, 70, 0
5, 148320, Note_on_c, 4, 60, 100
5, 148560, Note_on_c, 4, 60, 0
5, 148800, Note_on_c, 4, 61, 100
5, 149040, Note_on_c, 4, 61, 0
5, 149040, Note_on_c, 0, 69, 100
5, 149280, Note_on_c, 0, 69, 0
5, 149280, Note_on_c, 4, 61, 100
5, 149520, Note_on_c, 4, 61, 0
5, 149760, Note_on_c, 4, 60, 100
5, 149760, Note_on_c, 4, 61, 100
5, 149760, Note_on_c, 0, 68, 100
5, 150000, Note_on_c, 4, 60, 0
5, 150000, Note_on_c, 4, 61, 0
5, 150240, Note_on_c, 4, 60, 100
5, 150240, Note_on_c, 4, 61, 100
5, 150480, Note_on_c, 4, 60, 0
5, 150480, Note_on_c, 4, 61, 0
5, 150720, Note_on_c, 4, 61, 100
5, 150960, Note_on_c, 4, 61, 0
5, 151680, Note_on_c, 0, 68, 0
5, 151680, Note_on_c, 4, 60, 100
5, 151680, Note_on_c, 4, 61, 100
5, 151920, Note_on_c, 4, 60, 0
5, 151920, Note_on_c, 4, 61, 0
5, 152160, Note_on_c, 4, 60, 100
5, 152160, Note_on_c, 4, 61, 100
5, 152400, Note_on_c, 4, 60, 0
5, 152400, Note_on_c, 4, 61, 0
5, 152640, Note_on_c, 4, 61, 100
5, 152880, Note_on_c, 4, 61, 0
5, 153120, Note_on_c, 4, 61, 100
5, 153360, Note_on_c, 4, 61, 0
5, 153600, Note_on_c, 4, 60, 100
5, 153600, Note_on_c, 4, 61, 100
5, 153840, Note_on_c, 4, 60, 0
5, 153840, Note_on_c, 4, 61, 0
5, 153840, Note_on_c, 0, 70, 100
5, 154080, Note_on_c, 0, 70, 0
5, 154080, Note_on_c, 4, 60, 100
5, 154080, Note_on_c, 4, 61, 100
5, 154320, Note_on_c, 4, 60, 0
5, 154320, Note_on_c, 4, 61, 0
5, 154560, Note_on_c, 4, 61, 100
5, 154560, Note_on_c, 0, 69, 100
5, 154800, Note_on_c, 4, 61, 0
5, 154800, Note_on_c, 0, 69, 0
5, 155520, Note_on_c, 4, 60, 100
5, 155520, Note_on_c, 4, 61, 100
5, 155520, Note_on_c, 0, 68, 100
5, 155760, Note_on_c, 4, 60, 0
5, 155760, Note_on_c, 4, 61, 0
5, 155760, Note_on_c, 0, 68, 0
5, 156000, Note_on_c, 4, 60, 100
5, 156000, Note_on_c, 0, 69, 100
5, 156240, Note_on_c, 4, 60, 0
5, 156240, Note_on_c, 0, 69, 0
5, 156480, Note_on_c, 4, 61, 100
5, 156720, Note_on_c, 4, 61, 0
5, 156960, Note_on_c, 4, 61, 100
5, 156960, Note_on_c, 0, 68, 100
5, 157200, Note_on_c, 4, 61, 0
5, 157200, Note_on_c, 0, 68, 0
5, 157440, Note_on_c, 4, 60, 100
5, 157440, Note_on_c, 4, 61, 100
5, 157680, Note_on_c, 4, 60, 0
5, 157680, Note_on_c, 4, 61, 0
5, 157920, Note_on_c, 4, 60, 100
5, 157920, Note_on_c, 4, 61, 100
5, 157920, Note_on_c, 0, 70, 100
5, 158160, Note_on_c, 4, 60, 0
5, 158160, Note_on_c, 4, 61, 0
5, 158160, Note_on_c, 0, 70, 0
5, 158400, Note_on_c, 4, 61, 100
5, 158400, Note_on_c, 0, 69, 100
5, 158640, Note_on_c, 4, 61, 0
5, 158640, Note_on_c, 0, 69, 0
5, 159120, Note_on_c, 0, 70, 100
5, 159360, Note_on_c, 0, 70, 0
5, 159360, Note_on_c, 4, 60, 100
5, 159360, Note_on_c, 4, 61, 100
5, 159600, Note_on_c, 4, 60, 0
5, 159600, Note_on_c, 4, 61, 0
5, 159840, Note_on_c, 4, 60, 100
5, 159840, Note_on_c, 4, 61, 100
5, 159840, Note_on_c, 0, 70, 100
5, 160080, Note_on_c, 4, 60, 0
5, 160080, Note_on_c, 4, 61, 0
5, 160080, Note_on_c, 0, 70, 0
5, 160320, Note_on_c, 4, 61, 100
5, 160560, Note_on_c, 4, 61, 0
5, 160560, Note_on_c, 0, 69, 100
5, 160800, Note_on_c, 0, 69, 0
5, 161280, Note_on_c, 4, 60, 100
5, 161280, Note_on_c, 4, 61, 100
5, 161280, Note_on_c, 0, 69, 100
5, 161520, Note_on_c, 4, 60, 0
5, 161520, Note_on_c, 4, 61, 0
5, 161760, Note_on_c, 4, 60, 100
5, 161760, Note_on_c, 4, 61, 100
5, 162000, Note_on_c, 4, 60, 0
5, 162000, Note_on_c, 4, 61, 0
5, 162240, Note_on_c, 4, 61, 100
5, 162480, Note_on_c, 4, 61, 0
5, 163200, Note_on_c, 0, 69, 0
5, 163200, Note_on_c, 4, 60, 100
5, 163200, Note_on_c, 4, 61, 100
5, 163440, Note_on_c, 4, 60, 0
5, 163440, Note_on_c, 4, 61, 0
5, 163440, Note_on_c, 0, 70, 100
5, 163680, Note_on_c, 0, 70, 0
5, 163680, Note_on_c, 4, 60, 100
5, 163920, Note_on_c, 4, 60, 0
5, 164160, Note_on_c, 4, 61, 100
5, 164400, Note_on_c, 4, 61, 0
5, 164400, Note_on_c, 0, 69, 100
5, 164640, Note_on_c, 0, 69, 0
5, 164640, Note_on_c, 4, 61, 100
5, 164880, Note_on_c, 4, 61, 0
5, 165120, Note_on_c, 4, 60, 100
5, 165120, Note_on_c, 4, 61, 100
5, 165120, Note_on_c, 0, 68, 100
5, 165360, Note_on_c, 4, 60, 0
5, 165360, Note_on_c, 4, 61, 0
5, 165600, Note_on_c, 4, 60, 100
5, 165600, Note_on_c, 4, 61, 100
5, 165840, Note_on_c, 4, 60, 0
5, 165840, Note_on_c, 4, 61, 0
5, 166080, Note_on_c, 4, 61, 100
5, 166320, Note_on_c, 4, 61, 0
5, 167040, Note_on_c, 4, 60, 100
5, 167040, Note_on_c, 4, 61, 100
5, 167280, Note_on_c, 4, 60, 0
5, 167280, Note_on_c, 4, 61, 0
5, 167520, Note_on_c, 4, 60, 100
5, 167520, Note_on_c, 4, 61, 100
5, 167760, Note_on_c, 4, 60, 0
5, 167760, Note_on_c, 4, 61, 0
5, 168000, Note_on_c, 4, 61, 100
5, 168240, Note_on_c, 4, 61, 0
5, 168480, Note_on_c, 4, 61, 100
5, 168720, Note_on_c, 4, 61, 0
5, 168960, Note_on_c, 0, 68, 0
5, 168960, Note_on_c, 4, 60, 100
5, 168960, Note_on_c, 4, 61, 100
5, 169200, Note_on_c, 4, 60, 0
5, 169200, Note_on_c, 4, 61, 0
5, 169200, Note_on_c, 0, 70, 100
5, 169440, Note_on_c, 4, 60, 100
5, 169440, Note_on_c, 4, 61, 100
5, 169680, Note_on_c, 4, 60, 0
5, 169680, Note_on_c, 4, 61, 0
5, 169920, Note_on_c, 0, 70, 0
5, 169920, Note_on_c, 4, 61, 100
5, 169920, Note_on_c, 0, 70, 100
5, 170160, Note_on_c, 4, 61, 0
5, 170160, Note_on_c, 0, 70, 0
5, 170640, Note_on_c, 0, 69, 100
5, 170880, Note_on_c, 0, 69, 0
5, 170880, Note_on_c, 4, 60, 100
5, 170880, Note_on_c, 4, 61, 100
5, 171120, Note_on_c, 4, 60, 0
5, 171120, Note_on_c, 4, 61, 0
5, 171360, Note_on_c, 4, 60, 100
5, 171360, Note_on_c, 0, 68, 100
5, 171600, Note_on_c, 4, 60, 0
5, 171600, Note_on_c, 0, 68, 0
5, 171840, Note_on_c, 4, 61, 100
5, 171840, Note_on_c, 0, 68, 100
5, 172080, Note_on_c, 4, 61, 0
5, 172080, Note_on_c, 0, 68, 0
5, 172320, Note_on_c, 4, 61, 100
5, 172560, Note_on_c, 4, 61, 0
5, 172800, Note_on_c, 4, 60, 100
5, 172800, Note_on_c, 4, 61, 100
5, 172800, Note_on_c, 0, 68, 100
5, 173040, Note_on_c, 4, 60, 0
5, 173040, Note_on_c, 4, 61, 0
5, 173040, Note_on_c, 0, 68, 0
5, 173280, Note_on_c, 4, 60, 100
5, 173280, Note_on_c, 4, 61, 100
5, 173280, Note_on_c, 0, 68, 100
5, 173520, Note_on_c, 4, 60, 0
5, 173520, Note_on_c, 4, 61, 0
5, 173520, Note_on_c, 0, 68, 0
5, 173760, Note_on_c, 4, 61, 100
5, 173760, Note_on_c, 0, 69, 100
5, 174000, Note_on_c, 4, 61, 0
5, 174000, Note_on_c, 0, 69, 0
5, 174000, Note_on_c, 4, 60, 100
5, 174240, Note_on_c, 4, 60, 0
5, 174720, Note_on_c, 4, 61, 100
5, 174720, Note_on_c, 0, 68, 100
5, 174960, Note_on_c, 4, 61, 0
5, 174960, Note_on_c, 0, 68, 0
5, 174960, Note_on_c, 4, 60, 100
5, 175200, Note_on_c, 4, 60, 0
5, 175200, Note_on_c, 4, 61, 100
5, 175200, Note_on_c, 0, 68, 100
5, 175440, Note_on_c, 4, 61, 0
5, 175440, Note_on_c, 0, 68, 0
5, 175680, Note_on_c, 4, 61, 100
5, 175680, Note_on_c, 0, 69, 100
5, 175920, Note_on_c, 4, 61, 0
5, 175920, Note_on_c, 0, 69, 0
5, 176160, Note_on_c, 4, 61, 100
5, 176400, Note_on_c, 4, 61, 0
5, 176640, Note_on_c, 4, 60, 100
5, 176640, Note_on_c, 4, 61, 100
5, 176640, Note_on_c, 0, 69, 100
5, 176880, Note_on_c, 4, 60, 0
5, 176880, Note_on_c, 4, 61, 0
5, 179040, Note_on_c, 4, 60, 100
5, 179280, Note_on_c, 4, 60, 0
5, 179520, Note_on_c, 4, 61, 100
5, 179760, Note_on_c, 4, 61, 0
5, 180480, Note_on_c, 0, 69, 0
5, 180480, Note_on_c, 4, 60, 100
5, 180480, Note_on_c, 4, 61, 100
5, 180480, Note_on_c, 0, 68, 100
5, 180720, Note_on_c, 4, 60, 0
5, 180720, Note_on_c, 4, 61, 0
5, 180720, Note_on_c, 0, 68, 0
5, 180720, Note_on_c, 4, 61, 100
5, 180960, Note_on_c, 4, 61, 0
5, 180960, Note_on_c, 4, 61, 100
5, 180960, Note_on_c, 0, 70, 100
5, 181200, Note_on_c, 4, 61, 0
5, 181200, Note_on_c, 0, 70, 0
5, 181440, Note_on_c, 4, 61, 100
5, 181440, Note_on_c, 0, 70, 100
5, 181680, Note_on_c, 4, 61, 0
5, 181680, Note_on_c, 0, 70, 0
5, 182880, Note_on_c, 4, 60, 100
5, 183120, Note_on_c, 4, 60, 0
5, 183360, Note_on_c, 4, 61, 100
5, 183360, Note_on_c, 0, 70, 100
5, 183600, Note_on_c, 4, 61, 0
5, 183600, Note_on_c, 0, 70, 0
5, 183600, Note_on_c, 4, 61, 100
5, 183840, Note_on_c, 4, 61, 0
5, 183840, Note_on_c, 4, 61, 100
5, 184080, Note_on_c, 4, 61, 0
5, 184080, Note_on_c, 4, 61, 100
5, 184080, Note_on_c, 0, 69, 100
5, 184320, Note_on_c, 4, 61, 0
5, 184320, Note_on_c, 0, 69, 0
5, 184320, Note_on_c, 4, 60, 100
5, 184560, Note_on_c, 4, 60, 0
5, 184800, Note_on_c, 4, 61, 100
5, 184800, Note_on_c, 0, 68, 100
5, 185040, Note_on_c, 4, 61, 0
5, 185040, Note_on_c, 0, 68, 0
5, 185280, Note_on_c, 4, 61, 100
5, 185280, Note_on_c, 0, 68, 100
5, 185520, Note_on_c, 4, 61, 0
5, 185520, Note_on_c, 0, 68, 0
5, 185520, Note_on_c, 4, 61, 100
5, 185760, Note_on_c, 4, 61, 0
5, 186720, Note_on_c, 4, 60, 100
5, 186720, Note_on_c, 4, 61, 100
5, 186720, Note_on_c, 0, 69, 100
5, 186960, Note_on_c, 4, 60, 0
5, 186960, Note_on_c, 4, 61, 0
5, 186960, Note_on_c, 0, 69, 0
5, 186960, Note_on_c, 4, 61, 100
5, 187200, Note_on_c, 4, 61, 0
5, 187440, Note_on_c, 4, 60, 100
5, 187680, Note_on_c, 4, 60, 0
5, 187680, Note_on_c, 4, 61, 100
5, 187680, Note_on_c, 0, 69, 100
5, 187920, Note_on_c, 4, 61, 0
5, 187920, Note_on_c, 0, 69, 0
5, 187920, Note_on_c, 4, 61, 100
5, 188160, Note_on_c, 4, 61, 0
5, 188160, Note_on_c, 4, 60, 100
5, 188400, Note_on_c, 4, 60, 0
5, 188640, Note_on_c, 4, 61, 100
5, 188880, Note_on_c, 4, 61, 0
5, 190080, Note_on_c, 4, 61, 100
5, 190080, Note_on_c, 0, 68, 100
5, 190320, Note_on_c, 4, 61, 0
5, 190320, Note_on_c, 0, 68, 0
5, 190560, Note_on_c, 4, 60, 100
5, 190800, Note_on_c, 4, 60, 0
5, 191760, Note_on_c, 4, 61, 100
5, 192000, Note_on_c, 4, 61, 0
5, 192000, Note_on_c, 4, 60, 100
5, 192000, Note_on_c, 4, 61, 100
5, 192000, Note_on_c, 0, 68, 100
5, 192240, Note_on_c, 4, 60, 0
5, 192240, Note_on_c, 4, 61, 0
5, 192240, Note_on_c, 0, 68, 0
5, 192480, Note_on_c, 4, 60, 100
5, 192720, Note_on_c, 4, 60, 0
5, 193920, Note_on_c, 4, 61, 100
5, 193920, Note_on_c, 0, 68, 100
5, 194160, Note_on_c, 4, 61, 0
5, 194160, Note_on_c, 0, 68, 0
5, 194400, Note_on_c, 4, 60, 100
5, 194640, Note_on_c, 4, 60, 0
5, 195600, Note_on_c, 4, 60, 100
5, 195600, Note_on_c, 4, 61, 100
5, 195840, Note_on_c, 4, 60, 0
5, 195840, Note_on_c, 4, 61, 0
5, 195840, Note_on_c, 4, 60, 100
5, 195840, Note_on_c, 4, 61, 100
5, 195840, Note_on_c, 0, 68, 100
5, 196080, Note_on_c, 4, 60, 0
5, 196080, Note_on_c, 4, 61, 0
5, 196080, Note_on_c, 0, 68, 0
5, 197760, Note_on_c, 4, 61, 100
5, 197760, Note_on_c, 0, 68, 100
5, 198000, Note_on_c, 4, 61, 0
5, 198000, Note_on_c, 0, 68, 0
5, 198240, Note_on_c, 4, 60, 100
5, 198480, Note_on_c, 4, 60, 0
5, 199440, Note_on_c, 4, 61, 100
5, 199680, Note_on_c, 4, 61, 0
5, 199680, Note_on_c, 4, 61, 100
5, 199680, Note_on_c, 0, 68, 100
5, 199920, Note_on_c, 4, 61, 0
5, 199920, Note_on_c, 0, 68, 0
5, 200160, Note_on_c, 4, 60, 100
5, 200400, Note_on_c, 4, 60, 0
5, 200880, Note_on_c, 4, 60, 100
5, 201120, Note_on_c, 4, 60, 0
5, 201600, Note_on_c, 4, 61, 100
5, 201840, Note_on_c, 4, 61, 0
5, 201840, Note_on_c, 4, 60, 100
5, 202080, Note_on_c, 4, 60, 0
5, 202080, Note_on_c, 4, 61, 100
5, 202080, Note_on_c, 0, 69, 100
5, 202320, Note_on_c, 4, 61, 0
5, 202320, Note_on_c, 0, 69, 0
5, 202320, Note_on_c, 4, 60, 100
5, 202320, Note_on_c, 4, 61, 100
5, 202560, Note_on_c, 4, 60, 0
5, 202560, Note_on_c, 4, 61, 0
5, 203040, Note_on_c, 4, 61, 100
5, 203040, Note_on_c, 0, 69, 100
5, 203280, Note_on_c, 4, 61, 0
5, 203280, Note_on_c, 0, 69, 0
5, 203280, Note_on_c, 4, 61, 100
5, 203520, Note_on_c, 4, 61, 0
5, 203520, Note_on_c, 4, 60, 100
5, 203760, Note_on_c, 4, 60, 0
5, 205200, Note_on_c, 4, 61, 100
5, 205440, Note_on_c, 4, 61, 0
5, 205440, Note_on_c, 4, 61, 100
5, 205440, Note_on_c, 0, 68, 100
5, 205680, Note_on_c, 4, 61, 0
5, 205680, Note_on_c, 0, 68, 0
5, 205680, Note_on_c, 4, 60, 100
5, 205920, Note_on_c, 4, 60, 0
5, 206640, Note_on_c, 4, 60, 100
5, 206880, Note_on_c, 4, 60, 0
5, 207360, Note_on_c, 4, 60, 100
5, 207360, Note_on_c, 4, 61, 100
5, 207360, Note_on_c, 0, 68, 100
5, 207600, Note_on_c, 4, 60, 0
5, 207600, Note_on_c, 4, 61, 0
5, 207600, Note_on_c, 0, 68, 0
5, 207840, Note_on_c, 4, 60, 100
5, 208080, Note_on_c, 4, 60, 0
5, 209040, Note_on_c, 4, 60, 100
5, 209040, Note_on_c, 4, 61, 100
5, 209280, Note_on_c, 4, 60, 0
5, 209280, Note_on_c, 4, 61, 0
5, 209280, Note_on_c, 4, 61, 100
5, 209280, Note_on_c, 0, 68, 100
5, 209520, Note_on_c, 4, 61, 0
5, 209520, Note_on_c, 0, 68, 0
5, 210000, Note_on_c, 4, 60, 100
5, 210240, Note_on_c, 4, 60, 0
5, 211200, Note_on_c, 4, 61, 100
5, 211200, Note_on_c, 0, 68, 100
5, 211440, Note_on_c, 4, 61, 0
5, 211440, Note_on_c, 0, 68, 0
5, 212880, Note_on_c, 4, 61, 100
5, 212880, Note_on_c, 4, 60, 100
5, 213120, Note_on_c, 4, 61, 0
5, 213120, Note_on_c, 4, 60, 0
5, 213120, Note_on_c, 4, 61, 100
5, 213120, Note_on_c, 0, 68, 100
5, 213360, Note_on_c, 4, 61, 0
5, 213360, Note_on_c, 0, 68, 0
5, 213600, Note_on_c, 4, 60, 100
5, 213840, Note_on_c, 4, 60, 0
5, 215040, Note_on_c, 4, 60, 100
5, 215040, Note_on_c, 4, 61, 100
5, 215040, Note_on_c, 0, 68, 100
5, 215280, Note_on_c, 4, 60, 0
5, 215280, Note_on_c, 4, 61, 0
5, 215280, Note_on_c, 0, 68, 0
5, 215760, Note_on_c, 4, 60, 100
5, 216000, Note_on_c, 4, 60, 0
5, 216720, Note_on_c, 4, 60, 100
5, 216720, Note_on_c, 4, 61, 100
5, 216960, Note_on_c, 4, 60, 0
5, 216960, Note_on_c, 4, 61, 0
5, 216960, Note_on_c, 4, 60, 100
5, 216960, Note_on_c, 4, 61, 100
5, 216960, Note_on_c, 0, 68, 100
5, 217200, Note_on_c, 4, 60, 0
5, 217200, Note_on_c, 4, 61, 0
5, 217200, Note_on_c, 0, 68, 0
5, 217680, Note_on_c, 4, 60, 100
5, 217920, Note_on_c, 4, 60, 0
5, 218160, Note_on_c, 4, 60, 100
5, 218400, Note_on_c, 4, 60, 0
5, 218880, Note_on_c, 4, 60, 100
5, 218880, Note_on_c, 4, 61, 100
5, 218880, Note_on_c, 0, 69, 100
5, 219120, Note_on_c, 4, 60, 0
5, 219120, Note_on_c, 4, 61, 0
5, 219120, Note_on_c, 0, 69, 0
5, 219600, Note_on_c, 4, 60, 100
5, 219600, Note_on_c, 0, 70, 100
5, 219840, Note_on_c, 4, 60, 0
5, 220320, Note_on_c, 0, 70, 0
5, 220560, Note_on_c, 4, 60, 100
5, 220560, Note_on_c, 4, 61, 100
5, 220800, Note_on_c, 4, 60, 0
5, 220800, Note_on_c, 4, 61, 0
5, 220800, Note_on_c, 4, 60, 100
5, 220800, Note_on_c, 4, 61, 100
5, 220800, Note_on_c, 0, 69, 100
5, 221040, Note_on_c, 4, 60, 0
5, 221040, Note_on_c, 4, 61, 0
5, 221040, Note_on_c, 0, 69, 0
5, 221280, Note_on_c, 0, 70, 100
5, 221520, Note_on_c, 4, 60, 100
5, 221760, Note_on_c, 0, 70, 0
5, 221760, Note_on_c, 4, 60, 0
5, 222480, Note_on_c, 4, 60, 100
5, 222720, Note_on_c, 4, 60, 0
5, 222720, Note_on_c, 4, 60, 100
5, 222720, Note_on_c, 4, 61, 100
5, 222720, Note_on_c, 0, 69, 100
5, 222960, Note_on_c, 4, 60, 0
5, 222960, Note_on_c, 4, 61, 0
5, 222960, Note_on_c, 0, 69, 0
5, 223440, Note_on_c, 4, 60, 100
5, 223440, Note_on_c, 0, 70, 100
5, 223680, Note_on_c, 4, 60, 0
5, 224160, Note_on_c, 0, 70, 0
5, 224400, Note_on_c, 4, 60, 100
5, 224400, Note_on_c, 4, 61, 100
5, 224640, Note_on_c, 4, 60, 0
5, 224640, Note_on_c, 4, 61, 0
5, 224640, Note_on_c, 4, 60, 100
5, 224640, Note_on_c, 4, 61, 100
5, 224640, Note_on_c, 0, 69, 100
5, 224880, Note_on_c, 4, 60, 0
5, 224880, Note_on_c, 4, 61, 0
5, 224880, Note_on_c, 0, 69, 0
5, 225360, Note_on_c, 4, 60, 100
5, 225360, Note_on_c, 4, 61, 100
5, 225360, Note_on_c, 0, 68, 100
5, 225600, Note_on_c, 4, 60, 0
5, 225600, Note_on_c, 4, 61, 0
5, 226080, Note_on_c, 4, 60, 100
5, 226080, Note_on_c, 4, 61, 100
5, 226320, Note_on_c, 4, 60, 0
5, 226320, Note_on_c, 4, 61, 0
5, 226560, Note_on_c, 4, 61, 100
5, 226800, Note_on_c, 4, 61, 0
5, 227520, Note_on_c, 0, 68, 0
5, 227520, Note_on_c, 4, 60, 100
5, 227520, Note_on_c, 4, 61, 100
5, 227760, Note_on_c, 4, 60, 0
5, 227760, Note_on_c, 4, 61, 0
5, 227760, Note_on_c, 0, 69, 100
5, 228000, Note_on_c, 0, 69, 0
5, 228000, Note_on_c, 4, 60, 100
5, 228240, Note_on_c, 4, 60, 0
5, 228480, Note_on_c, 4, 61, 100
5, 228480, Note_on_c, 0, 69, 100
5, 228720, Note_on_c, 4, 61, 0
5, 228720, Note_on_c, 0, 69, 0
5, 228960, Note_on_c, 4, 61, 100
5, 228960, Note_on_c, 4, 60, 100
5, 229200, Note_on_c, 4, 61, 0
5, 229200, Note_on_c, 4, 60, 0
5, 229200, Note_on_c, 0, 69, 100
5, 229440, Note_on_c, 0, 69, 0
5, 229440, Note_on_c, 4, 60, 100
5, 229440, Note_on_c, 4, 61, 100
5, 229680, Note_on_c, 4, 60, 0
5, 229680, Note_on_c, 4, 61, 0
5, 229920, Note_on_c, 4, 60, 100
5, 229920, Note_on_c, 4, 61, 100
5, 229920, Note_on_c, 0, 68, 100
5, 230160, Note_on_c, 4, 60, 0
5, 230160, Note_on_c, 4, 61, 0
5, 230400, Note_on_c, 4, 61, 100
5, 230640, Note_on_c, 4, 61, 0
5, 231360, Note_on_c, 0, 68, 0
5, 231360, Note_on_c, 4, 60, 100
5, 231360, Note_on_c, 4, 61, 100
5, 231600, Note_on_c, 4, 60, 0
5, 231600, Note_on_c, 4, 61, 0
5, 231680, Note_on_c, 0, 69, 100
5, 231840, Note_on_c, 4, 60, 100
5, 231840, Note_on_c, 4, 61, 100
5, 231920, Note_on_c, 0, 69, 0
5, 232080, Note_on_c, 4, 60, 0
5, 232080, Note_on_c, 4, 61, 0
5, 232320, Note_on_c, 4, 61, 100
5, 232400, Note_on_c, 0, 69, 100
5, 232560, Note_on_c, 4, 61, 0
5, 232640, Note_on_c, 0, 69, 0
5, 232800, Note_on_c, 4, 61, 100
5, 233040, Note_on_c, 4, 61, 0
5, 233040, Note_on_c, 4, 61, 100
5, 233120, Note_on_c, 0, 70, 100
5, 233280, Note_on_c, 4, 61, 0
5, 233280, Note_on_c, 4, 60, 100
5, 233280, Note_on_c, 4, 61, 100
5, 233360, Note_on_c, 0, 70, 0
5, 233520, Note_on_c, 4, 60, 0
5, 233520, Note_on_c, 4, 61, 0
5, 233760, Note_on_c, 4, 60, 100
5, 233760, Note_on_c, 4, 61, 100
5, 233760, Note_on_c, 0, 69, 100
5, 234000, Note_on_c, 4, 60, 0
5, 234000, Note_on_c, 4, 61, 0
5, 234000, Note_on_c, 0, 69, 0
5, 234240, Note_on_c, 4, 61, 100
5, 234240, Note_on_c, 0, 69, 100
5, 234480, Note_on_c, 4, 61, 0
5, 235200, Note_on_c, 4, 60, 100
5, 235200, Note_on_c, 4, 61, 100
5, 235440, Note_on_c, 4, 60, 0
5, 235440, Note_on_c, 4, 61, 0
5, 235680, Note_on_c, 4, 60, 100
5, 235920, Note_on_c, 4, 60, 0
5, 236160, Note_on_c, 0, 69, 0
5, 236160, Note_on_c, 4, 61, 100
5, 236400, Note_on_c, 4, 61, 0
5, 236640, Note_on_c, 4, 61, 100
5, 236880, Note_on_c, 4, 61, 0
5, 237120, Note_on_c, 4, 60, 100
5, 237120, Note_on_c, 4, 61, 100
5, 237120, Note_on_c, 0, 70, 100
5, 237360, Note_on_c, 4, 60, 0
5, 237360, Note_on_c, 4, 61, 0
5, 237360, Note_on_c, 0, 70, 0
5, 237600, Note_on_c, 4, 60, 100
5, 237600, Note_on_c, 4, 61, 100
5, 237840, Note_on_c, 4, 60, 0
5, 237840, Note_on_c, 4, 61, 0
5, 238080, Note_on_c, 4, 61, 100
5, 238080, Note_on_c, 0, 69, 100
5, 238320, Note_on_c, 4, 61, 0
5, 238320, Note_on_c, 0, 69, 0
5, 238320, Note_on_c, 4, 60, 100
5, 238320, Note_on_c, 4, 61, 100
5, 238560, Note_on_c, 4, 60, 0
5, 238560, Note_on_c, 4, 61, 0
5, 238560, Note_on_c, 4, 61, 100
5, 238800, Note_on_c, 4, 61, 0
5, 239040, Note_on_c, 4, 61, 100
5, 239040, Note_on_c, 0, 68, 100
5, 239280, Note_on_c, 4, 61, 0
5, 239280, Note_on_c, 0, 68, 0
5, 239280, Note_on_c, 4, 60, 100
5, 239520, Note_on_c, 4, 60, 0
5, 239520, Note_on_c, 4, 61, 100
5, 239760, Note_on_c, 4, 61, 0
5, 240000, Note_on_c, 4, 61, 100
5, 240000, Note_on_c, 0, 70, 100
5, 240240, Note_on_c, 4, 61, 0
5, 240240, Note_on_c, 0, 70, 0
5, 240240, Note_on_c, 4, 60, 100
5, 240480, Note_on_c, 4, 60, 0
5, 240480, Note_on_c, 4, 61, 100
5, 240480, Note_on_c, 0, 69, 100
5, 240720, Note_on_c, 4, 61, 0
5, 240720, Note_on_c, 0, 69, 0
5, 240960, Note_on_c, 4, 60, 100
5, 240960, Note_on_c, 4, 61, 100
5, 240960, Note_on_c, 0, 68, 100
5, 241200, Note_on_c, 4, 60, 0
5, 241200, Note_on_c, 4, 61, 0
5, 241440, Note_on_c, 4, 60, 100
5, 241440, Note_on_c, 4, 61, 100
5, 241680, Note_on_c, 4, 60, 0
5, 241680, Note_on_c, 4, 61, 0
5, 241920, Note_on_c, 4, 61, 100
5, 242160, Note_on_c, 4, 61, 0
5, 242880, Note_on_c, 0, 68, 0
5, 242880, Note_on_c, 4, 60, 100
5, 242880, Note_on_c, 4, 61, 100
5, 243120, Note_on_c, 4, 60, 0
5, 243120, Note_on_c, 4, 61, 0
5, 243120, Note_on_c, 0, 70, 100
5, 243360, Note_on_c, 0, 70, 0
5, 243360, Note_on_c, 4, 60, 100
5, 243600, Note_on_c, 4, 60, 0
5, 243840, Note_on_c, 4, 61, 100
5, 243840, Note_on_c, 0, 69, 100
5, 244080, Note_on_c, 4, 61, 0
5, 244080, Note_on_c, 0, 69, 0
5, 244320, Note_on_c, 4, 61, 100
5, 244320, Note_on_c, 4, 60, 100
5, 244560, Note_on_c, 4, 61, 0
5, 244560, Note_on_c, 4, 60, 0
5, 244560, Note_on_c, 0, 68, 100
5, 244800, Note_on_c, 0, 68, 0
5, 244800, Note_on_c, 4, 60, 100
5, 244800, Note_on_c, 4, 61, 100
5, 245040, Note_on_c, 4, 60, 0
5, 245040, Note_on_c, 4, 61, 0
5, 245280, Note_on_c, 4, 60, 100
5, 245280, Note_on_c, 4, 61, 100
5, 245280, Note_on_c, 0, 68, 100
5, 245520, Note_on_c, 4, 60, 0
5, 245520, Note_on_c, 4, 61, 0
5, 245520, Note_on_c, 0, 68, 0
5, 245760, Note_on_c, 4, 61, 100
5, 245760, Note_on_c, 0, 69, 100
5, 246000, Note_on_c, 4, 61, 0
5, 246480, Note_on_c, 0, 69, 0
5, 246720, Note_on_c, 4, 60, 100
5, 246720, Note_on_c, 4, 61, 100
5, 246960, Note_on_c, 4, 60, 0
5, 246960, Note_on_c, 4, 61, 0
5, 247200, Note_on_c, 4, 60, 100
5, 247200, Note_on_c, 4, 61, 100
5, 247200, Note_on_c, 0, 70, 100
5, 247440, Note_on_c, 4, 60, 0
5, 247440, Note_on_c, 4, 61, 0
5, 247440, Note_on_c, 0, 70, 0
5, 247680, Note_on_c, 4, 61, 100
5, 247920, Note_on_c, 4, 61, 0
5, 248160, Note_on_c, 4, 61, 100
5, 248400, Note_on_c, 4, 61, 0
5, 248400, Note_on_c, 4, 61, 100
5, 248640, Note_on_c, 4, 61, 0
5, 248640, Note_on_c, 4, 60, 100
5, 248640, Note_on_c, 4, 61, 100
5, 248640, Note_on_c, 0, 69, 100
5, 248880, Note_on_c, 4, 60, 0
5, 248880, Note_on_c, 4, 61, 0
5, 248880, Note_on_c, 0, 69, 0
5, 249120, Note_on_c, 4, 60, 100
5, 249120, Note_on_c, 4, 61, 100
5, 249360, Note_on_c, 4, 60, 0
5, 249360, Note_on_c, 4, 61, 0
5, 249600, Note_on_c, 4, 61, 100
5, 249600, Note_on_c, 0, 70, 100
5, 249840, Note_on_c, 4, 61, 0
5, 250080, Note_on_c, 0, 70, 0
5, 250560, Note_on_c, 4, 60, 100
5, 250560, Note_on_c, 4, 61, 100
5, 250560, Note_on_c, 0, 69, 100
5, 250800, Note_on_c, 4, 60, 0
5, 250800, Note_on_c, 4, 61, 0
5, 250800, Note_on_c, 0, 69, 0
5, 251040, Note_on_c, 4, 60, 100
5, 251280, Note_on_c, 4, 60, 0
5, 251520, Note_on_c, 4, 61, 100
5, 251520, Note_on_c, 0, 70, 100
5, 251760, Note_on_c, 4, 61, 0
5, 252000, Note_on_c, 0, 70, 0
5, 252000, Note_on_c, 4, 61, 100
5, 252240, Note_on_c, 4, 61, 0
5, 252360, Note_on_c, 0, 70, 100
5, 252480, Note_on_c, 4, 60, 100
5, 252480, Note_on_c, 4, 61, 100
5, 252600, Note_on_c, 0, 70, 0
5, 252720, Note_on_c, 4, 60, 0
5, 252720, Note_on_c, 4, 61, 0
5, 252960, Note_on_c, 4, 60, 100
5, 252960, Note_on_c, 4, 61, 100
5, 253200, Note_on_c, 4, 60, 0
5, 253200, Note_on_c, 4, 61, 0
5, 253440, Note_on_c, 4, 61, 100
5, 253440, Note_on_c, 0, 69, 100
5, 253680, Note_on_c, 4, 61, 0
5, 253680, Note_on_c, 0, 69, 0
5, 253680, Note_on_c, 4, 60, 100
5, 253920, Note_on_c, 4, 60, 0
5, 254400, Note_on_c, 4, 61, 100
5, 254400, Note_on_c, 0, 68, 100
5, 254640, Note_on_c, 4, 61, 0
5, 254640, Note_on_c, 0, 68, 0
5, 254640, Note_on_c, 4, 60, 100
5, 254880, Note_on_c, 4, 60, 0
5, 254880, Note_on_c, 4, 61, 100
5, 254880, Note_on_c, 0, 70, 100
5, 255120, Note_on_c, 4, 61, 0
5, 255120, Note_on_c, 4, 61, 100
5, 255360, Note_on_c, 4, 61, 0
5, 255360, Note_on_c, 4, 61, 100
5, 255600, Note_on_c, 4, 61, 0
5, 255840, Note_on_c, 4, 61, 100
5, 256080, Note_on_c, 0, 70, 0
5, 256080, Note_on_c, 4, 61, 0
5, 256320, Note_on_c, 4, 60, 100
5, 256320, Note_on_c, 4, 61, 100
5, 256320, Note_on_c, 0, 68, 100
5, 256560, Note_on_c, 4, 60, 0
5, 256560, Note_on_c, 4, 61, 0
5, 257280, Note_on_c, 0, 68, 0
5, 257280, Note_on_c, 0, 70, 100
5, 258240, Note_on_c, 0, 70, 0
5, 258720, Note_on_c, 4, 60, 100
5, 258720, Note_on_c, 4, 61, 100
5, 258720, Note_on_c, 0, 69, 100
5, 258960, Note_on_c, 4, 60, 0
5, 258960, Note_on_c, 4, 61, 0
5, 258960, Note_on_c, 0, 69, 0
5, 259200, Note_on_c, 4, 61, 100
5, 259200, Note_on_c, 0, 70, 100
5, 259440, Note_on_c, 4, 61, 0
5, 259440, Note_on_c, 0, 70, 0
5, 259680, Note_on_c, 4, 61, 100
5, 259680, Note_on_c, 0, 68, 100
5, 259920, Note_on_c, 4, 61, 0
5, 259920, Note_on_c, 0, 68, 0
5, 260160, Note_on_c, 4, 60, 100
5, 260160, Note_on_c, 4, 61, 100
5, 260160, Note_on_c, 0, 69, 100
5, 260400, Note_on_c, 4, 60, 0
5, 260400, Note_on_c, 4, 61, 0
5, 260640, Note_on_c, 4, 60, 100
5, 260880, Note_on_c, 4, 60, 0
5, 261120, Note_on_c, 0, 69, 0
5, 261120, Note_on_c, 0, 70, 100
5, 261600, Note_on_c, 4, 60, 100
5, 261840, Note_on_c, 4, 60, 0
5, 262080, Note_on_c, 0, 70, 0
5, 262080, Note_on_c, 4, 60, 100
5, 262320, Note_on_c, 4, 60, 0
5, 262560, Note_on_c, 4, 60, 100
5, 262560, Note_on_c, 4, 61, 100
5, 262560, Note_on_c, 0, 69, 100
5, 262800, Note_on_c, 4, 60, 0
5, 262800, Note_on_c, 4, 61, 0
5, 262800, Note_on_c, 0, 69, 0
5, 263040, Note_on_c, 4, 61, 100
5, 263040, Note_on_c, 0, 70, 100
5, 263280, Note_on_c, 4, 61, 0
5, 263280, Note_on_c, 0, 70, 0
5, 263520, Note_on_c, 4, 61, 100
5, 263520, Note_on_c, 0, 69, 100
5, 263760, Note_on_c, 4, 61, 0
5, 263760, Note_on_c, 0, 69, 0
5, 264000, Note_on_c, 4, 60, 100
5, 264000, Note_on_c, 4, 61, 100
5, 264000, Note_on_c, 0, 68, 100
5, 264240, Note_on_c, 4, 60, 0
5, 264240, Note_on_c, 4, 61, 0
5, 264960, Note_on_c, 0, 68, 0
5, 264960, Note_on_c, 0, 70, 100
5, 265920, Note_on_c, 0, 70, 0
5, 266400, Note_on_c, 4, 60, 100
5, 266400, Note_on_c, 4, 61, 100
5, 266400, Note_on_c, 0, 69, 100
5, 266640, Note_on_c, 4, 60, 0
5, 266640, Note_on_c, 4, 61, 0
5, 266640, Note_on_c, 0, 69, 0
5, 266880, Note_on_c, 4, 61, 100
5, 266880, Note_on_c, 0, 70, 100
5, 267120, Note_on_c, 4, 61, 0
5, 267120, Note_on_c, 0, 70, 0
5, 267360, Note_on_c, 4, 61, 100
5, 267360, Note_on_c, 0, 68, 100
5, 267600, Note_on_c, 4, 61, 0
5, 267600, Note_on_c, 0, 68, 0
5, 267840, Note_on_c, 4, 61, 100
5, 267840, Note_on_c, 0, 69, 100
5, 268080, Note_on_c, 4, 61, 0
5, 268080, Note_on_c, 0, 69, 0
5, 268320, Note_on_c, 4, 60, 100
5, 268560, Note_on_c, 4, 60, 0
5, 268800, Note_on_c, 0, 70, 100
5, 269040, Note_on_c, 4, 60, 100
5, 269280, Note_on_c, 4, 60, 0
5, 269760, Note_on_c, 0, 70, 0
5, 270240, Note_on_c, 4, 61, 100
5, 270240, Note_on_c, 0, 69, 100
5, 270480, Note_on_c, 4, 61, 0
5, 270480, Note_on_c, 0, 69, 0
5, 270720, Note_on_c, 4, 61, 100
5, 270720, Note_on_c, 0, 70, 100
5, 270960, Note_on_c, 4, 61, 0
5, 270960, Note_on_c, 0, 70, 0
5, 271200, Note_on_c, 4, 61, 100
5, 271200, Note_on_c, 0, 69, 100
5, 271440, Note_on_c, 4, 61, 0
5, 271440, Note_on_c, 0, 69, 0
5, 271680, Note_on_c, 4, 60, 100
5, 271680, Note_on_c, 4, 61, 100
5, 271680, Note_on_c, 0, 68, 100
5, 271920, Note_on_c, 4, 60, 0
5, 271920, Note_on_c, 4, 61, 0
5, 272640, Note_on_c, 0, 68, 0
5, 273600, Note_on_c, 4, 60, 100
5, 273840, Note_on_c, 4, 60, 0
5, 274080, Note_on_c, 4, 60, 100
5, 274080, Note_on_c, 4, 61, 100
5, 274080, Note_on_c, 0, 69, 100
5, 274320, Note_on_c, 4, 60, 0
5, 274320, Note_on_c, 4, 61, 0
5, 274320, Note_on_c, 0, 69, 0
5, 274560, Note_on_c, 4, 61, 100
5, 274560, Note_on_c, 0, 70, 100
5, 274800, Note_on_c, 4, 61, 0
5, 274800, Note_on_c, 0, 70, 0
5, 275040, Note_on_c, 4, 61, 100
5, 275040, Note_on_c, 0, 68, 100
5, 275280, Note_on_c, 4, 61, 0
5, 275280, Note_on_c, 0, 68, 0
5, 275520, Note_on_c, 4, 60, 100
5, 275520, Note_on_c, 4, 61, 100
5, 275520, Note_on_c, 0, 69, 100
5, 275760, Note_on_c, 4, 60, 0
5, 275760, Note_on_c, 4, 61, 0
5, 276000, Note_on_c, 4, 60, 100
5, 276240, Note_on_c, 4, 60, 0
5, 276480, Note_on_c, 0, 69, 0
5, 276720, Note_on_c, 4, 60, 100
5, 276960, Note_on_c, 4, 60, 0
5, 277440, Note_on_c, 4, 60, 100
5, 277680, Note_on_c, 4, 60, 0
5, 277920, Note_on_c, 4, 60, 100
5, 277920, Note_on_c, 4, 61, 100
5, 277920, Note_on_c, 0, 69, 100
5, 278160, Note_on_c, 4, 60, 0
5, 278160, Note_on_c, 4, 61, 0
5, 278160, Note_on_c, 0, 69, 0
5, 278400, Note_on_c, 4, 61, 100
5, 278400, Note_on_c, 0, 70, 100
5, 278640, Note_on_c, 4, 61, 0
5, 278640, Note_on_c, 0, 70, 0
5, 278880, Note_on_c, 4, 61, 100
5, 278880, Note_on_c, 0, 69, 100
5, 279120, Note_on_c, 4, 61, 0
5, 279120, Note_on_c, 0, 69, 0
5, 279360, Note_on_c, 4, 60, 100
5, 279360, Note_on_c, 4, 61, 100
5, 279360, Note_on_c, 0, 68, 100
5, 279600, Note_on_c, 4, 60, 0
5, 279600, Note_on_c, 4, 61, 0
5, 279600, Note_on_c, 0, 68, 0
5, 279840, Note_on_c, 0, 69, 100
5, 281760, Note_on_c, 4, 60, 100
5, 281760, Note_on_c, 4, 61, 100
5, 282000, Note_on_c, 4, 60, 0
5, 282000, Note_on_c, 4, 61, 0
5, 282240, Note_on_c, 4, 61, 100
5, 282480, Note_on_c, 4, 61, 0
5, 282720, Note_on_c, 4, 61, 100
5, 282960, Note_on_c, 0, 69, 0
5, 282960, Note_on_c, 4, 61, 0
5, 283200, Note_on_c, 4, 60, 100
5, 283200, Note_on_c, 4, 61, 100
5, 283200, Note_on_c, 0, 70, 100
5, 283440, Note_on_c, 4, 60, 0
5, 283440, Note_on_c, 4, 61, 0
5, 283680, Note_on_c, 4, 60, 100
5, 283920, Note_on_c, 4, 60, 0
5, 284400, Note_on_c, 4, 60, 100
5, 284640, Note_on_c, 4, 60, 0
5, 285600, Note_on_c, 4, 61, 100
5, 285840, Note_on_c, 4, 61, 0
5, 286080, Note_on_c, 4, 61, 100
5, 286320, Note_on_c, 4, 61, 0
5, 286560, Note_on_c, 4, 61, 100
5, 286800, Note_on_c, 0, 70, 0
5, 286800, Note_on_c, 4, 61, 0
5, 287040, Note_on_c, 4, 60, 100
5, 287040, Note_on_c, 4, 61, 100
5, 287040, Note_on_c, 0, 68, 100
5, 287280, Note_on_c, 4, 60, 0
5, 287280, Note_on_c, 4, 61, 0
5, 288000, Note_on_c, 0, 68, 0
5, 288960, Note_on_c, 4, 60, 100
5, 289200, Note_on_c, 4, 60, 0
5, 289440, Note_on_c, 4, 60, 100
5, 289440, Note_on_c, 4, 61, 100
5, 289440, Note_on_c, 0, 69, 100
5, 289680, Note_on_c, 4, 60, 0
5, 289680, Note_on_c, 4, 61, 0
5, 289680, Note_on_c, 0, 69, 0
5, 289920, Note_on_c, 4, 61, 100
5, 289920, Note_on_c, 0, 70, 100
5, 290160, Note_on_c, 4, 61, 0
5, 290160, Note_on_c, 0, 70, 0
5, 290400, Note_on_c, 4, 61, 100
5, 290400, Note_on_c, 0, 68, 100
5, 290640, Note_on_c, 4, 61, 0
5, 290640, Note_on_c, 0, 68, 0
5, 290880, Note_on_c, 4, 60, 100
5, 290880, Note_on_c, 4, 61, 100
5, 290880, Note_on_c, 0, 69, 100
5, 291120, Note_on_c, 4, 60, 0
5, 291120, Note_on_c, 4, 61, 0
5, 291360, Note_on_c, 4, 60, 100
5, 291600, Note_on_c, 4, 60, 0
5, 291840, Note_on_c, 0, 69, 0
5, 293280, Note_on_c, 4, 60, 100
5, 293280, Note_on_c, 4, 61, 100
5, 293280, Note_on_c, 0, 69, 100
5, 293520, Note_on_c, 4, 60, 0
5, 293520, Note_on_c, 4, 61, 0
5, 293520, Note_on_c, 0, 69, 0
5, 293760, Note_on_c, 4, 61, 100
5, 293760, Note_on_c, 0, 70, 100
5, 294000, Note_on_c, 4, 61, 0
5, 294000, Note_on_c, 0, 70, 0
5, 294240, Note_on_c, 4, 61, 100
5, 294240, Note_on_c, 0, 69, 100
5, 294480, Note_on_c, 4, 61, 0
5, 294480, Note_on_c, 0, 69, 0
5, 294720, Note_on_c, 4, 60, 100
5, 294720, Note_on_c, 4, 61, 100
5, 294720, Note_on_c, 0, 68, 100
5, 294960, Note_on_c, 4, 60, 0
5, 294960, Note_on_c, 4, 61, 0
5, 294960, Note_on_c, 0, 68, 0
5, 295200, Note_on_c, 0, 69, 100
5, 296640, Note_on_c, 4, 60, 100
5, 296880, Note_on_c, 4, 60, 0
5, 297120, Note_on_c, 4, 60, 100
5, 297120, Note_on_c, 4, 61, 100
5, 297360, Note_on_c, 4, 60, 0
5, 297360, Note_on_c, 4, 61, 0
5, 297600, Note_on_c, 4, 61, 100
5, 297840, Note_on_c, 4, 61, 0
5, 298080, Note_on_c, 4, 61, 100
5, 298320, Note_on_c, 0, 69, 0
5, 298320, Note_on_c, 4, 61, 0
5, 298560, Note_on_c, 4, 61, 100
5, 298560, Note_on_c, 0, 70, 100
5, 298800, Note_on_c, 4, 61, 0
5, 298800, Note_on_c, 4, 60, 100
5, 299040, Note_on_c, 4, 60, 0
5, 299760, Note_on_c, 4, 60, 100
5, 300000, Note_on_c, 4, 60, 0
5, 300960, Note_on_c, 4, 61, 100
5, 301200, Note_on_c, 4, 61, 0
5, 301440, Note_on_c, 4, 61, 100
5, 301680, Note_on_c, 4, 61, 0
5, 301920, Note_on_c, 4, 61, 100
5, 302160, Note_on_c, 0, 70, 0
5, 302160, Note_on_c, 4, 61, 0
5, 302400, Note_on_c, 4, 60, 100
5, 302400, Note_on_c, 4, 61, 100
5, 302400, Note_on_c, 0, 68, 100
5, 302640, Note_on_c, 4, 60, 0
5, 302640, Note_on_c, 4, 61, 0
5, 303360, Note_on_c, 0, 68, 0
5, 304320, Note_on_c, 4, 60, 100
5, 304560, Note_on_c, 4, 60, 0
5, 304800, Note_on_c, 4, 60, 100
5, 304800, Note_on_c, 4, 61, 100
5, 304800, Note_on_c, 0, 69, 100
5, 305040, Note_on_c, 4, 60, 0
5, 305040, Note_on_c, 4, 61, 0
5, 305040, Note_on_c, 0, 69, 0
5, 305280, Note_on_c, 4, 61, 100
5, 305280, Note_on_c, 0, 70, 100
5, 305520, Note_on_c, 4, 61, 0
5, 305520, Note_on_c, 0, 70, 0
5, 305760, Note_on_c, 4, 61, 100
5, 305760, Note_on_c, 0, 68, 100
5, 306000, Note_on_c, 4, 61, 0
5, 306000, Note_on_c, 0, 68, 0
5, 306240, Note_on_c, 4, 60, 100
5, 306240, Note_on_c, 4, 61, 100
5, 306240, Note_on_c, 0, 69, 100
5, 306480, Note_on_c, 4, 60, 0
5, 306480, Note_on_c, 4, 61, 0
5, 306720, Note_on_c, 4, 60, 100
5, 306960, Note_on_c, 4, 60, 0
5, 307200, Note_on_c, 0, 69, 0
5, 307440, Note_on_c, 4, 60, 100
5, 307680, Note_on_c, 4, 60, 0
5, 308400, Note_on_c, 4, 60, 100
5, 308640, Note_on_c, 4, 60, 0
5, 308640, Note_on_c, 4, 61, 100
5, 308640, Note_on_c, 0, 69, 100
5, 308880, Note_on_c, 4, 61, 0
5, 308880, Note_on_c, 0, 69, 0
5, 308880, Note_on_c, 4, 60, 100
5, 309120, Note_on_c, 4, 60, 0
5, 309120, Note_on_c, 4, 61, 100
5, 309120, Note_on_c, 0, 70, 100
5, 309360, Note_on_c, 4, 61, 0
5, 309360, Note_on_c, 0, 70, 0
5, 309600, Note_on_c, 4, 61, 100
5, 309600, Note_on_c, 0, 69, 100
5, 309840, Note_on_c, 4, 61, 0
5, 309840, Note_on_c, 0, 69, 0
5, 310080, Note_on_c, 4, 60, 100
5, 310080, Note_on_c, 4, 61, 100
5, 310080, Note_on_c, 0, 68, 100
5, 310320, Note_on_c, 4, 60, 0
5, 310320, Note_on_c, 4, 61, 0
5, 310320, Note_on_c, 0, 68, 0
5, 310560, Note_on_c, 4, 60, 100
5, 310560, Note_on_c, 0, 69, 100
5, 310800, Note_on_c, 4, 60, 0
5, 311280, Note_on_c, 4, 60, 100
5, 311520, Note_on_c, 4, 60, 0
5, 312240, Note_on_c, 4, 60, 100
5, 312480, Note_on_c, 4, 60, 0
5, 312480, Note_on_c, 4, 61, 100
5, 312720, Note_on_c, 4, 61, 0
5, 312720, Note_on_c, 4, 60, 100
5, 312960, Note_on_c, 4, 60, 0
5, 312960, Note_on_c, 4, 61, 100
5, 313200, Note_on_c, 4, 61, 0
5, 313200, Note_on_c, 4, 60, 100
5, 313440, Note_on_c, 4, 60, 0
5, 313440, Note_on_c, 4, 61, 100
5, 313680, Note_on_c, 0, 69, 0
5, 313680, Note_on_c, 4, 61, 0
5, 313920, Note_on_c, 4, 61, 100
5, 313920, Note_on_c, 0, 70, 100
5, 314160, Note_on_c, 4, 61, 0
5, 314640, Note_on_c, 4, 60, 100
5, 314880, Note_on_c, 4, 60, 0
5, 316080, Note_on_c, 4, 60, 100
5, 316320, Note_on_c, 4, 60, 0
5, 316320, Note_on_c, 4, 61, 100
5, 316560, Note_on_c, 4, 61, 0
5, 316800, Note_on_c, 4, 61, 100
5, 317040, Note_on_c, 4, 61, 0
5, 317280, Note_on_c, 4, 61, 100
5, 317520, Note_on_c, 0, 70, 0
5, 317520, Note_on_c, 4, 61, 0
5, 317760, Note_on_c, 4, 60, 100
5, 317760, Note_on_c, 4, 61, 100
5, 317760, Note_on_c, 0, 68, 100
5, 318000, Note_on_c, 4, 60, 0
5, 318000, Note_on_c, 4, 61, 0
5, 318720, Note_on_c, 0, 68, 0
5, 319680, Note_on_c, 4, 60, 100
5, 319920, Note_on_c, 4, 60, 0
5, 320160, Note_on_c, 4, 60, 100
5, 320160, Note_on_c, 4, 61, 100
5, 320160, Note_on_c, 0, 69, 100
5, 320400, Note_on_c, 4, 60, 0
5, 320400, Note_on_c, 4, 61, 0
5, 320400, Note_on_c, 0, 69, 0
5, 320640, Note_on_c, 4, 61, 100
5, 320640, Note_on_c, 0, 70, 100
5, 320880, Note_on_c, 4, 61, 0
5, 320880, Note_on_c, 0, 70, 0
5, 321120, Note_on_c, 4, 61, 100
5, 321120, Note_on_c, 0, 68, 100
5, 321360, Note_on_c, 4, 61, 0
5, 321360, Note_on_c, 0, 68, 0
5, 321600, Note_on_c, 4, 60, 100
5, 321600, Note_on_c, 4, 61, 100
5, 321600, Note_on_c, 0, 69, 100
5, 321840, Note_on_c, 4, 60, 0
5, 321840, Note_on_c, 4, 61, 0
5, 322080, Note_on_c, 4, 60, 100
5, 322320, Note_on_c, 4, 60, 0
5, 322560, Note_on_c, 0, 69, 0
5, 323520, Note_on_c, 4, 60, 100
5, 323760, Note_on_c, 4, 60, 0
5, 324000, Note_on_c, 4, 60, 100
5, 324000, Note_on_c, 4, 61, 100
5, 324000, Note_on_c, 0, 69, 100
5, 324240, Note_on_c, 4, 60, 0
5, 324240, Note_on_c, 4, 61, 0
5, 324240, Note_on_c, 0, 69, 0
5, 324480, Note_on_c, 4, 61, 100
5, 324480, Note_on_c, 0, 70, 100
5, 324720, Note_on_c, 4, 61, 0
5, 324720, Note_on_c, 0, 70, 0
5, 324720, Note_on_c, 4, 60, 100
5, 324960, Note_on_c, 4, 60, 0
5, 324960, Note_on_c, 4, 61, 100
5, 324960, Note_on_c, 0, 69, 100
5, 325200, Note_on_c, 4, 61, 0
5, 325200, Note_on_c, 0, 69, 0
5, 325440, Note_on_c, 4, 60, 100
5, 325440, Note_on_c, 4, 61, 100
5, 325440, Note_on_c, 0, 68, 100
5, 325680, Note_on_c, 4, 60, 0
5, 325680, Note_on_c, 4, 61, 0
5, 325920, Note_on_c, 4, 60, 100
5, 326160, Note_on_c, 4, 60, 0
5, 326400, Note_off_c, 0, 68, 0
5, 326400, End_track
6, 0, Start_track
6, 0, Title_t, "BAND BASS"
6, 0, Text_t, "gtr_off"
6, 0, Text_t, "drum_off"
6, 0, Text_t, "[idle]"
6, 0, Text_t, "singf_off"
6, 7680, Text_t, "gtr_on"
6, 7680, Text_t, "[play]"
6, 7680, Text_t, "[verse]"
6, 21120, Text_t, "drum_double"
6, 23040, Text_t, "[lighting (sweep)]"
6, 23040, Text_t, "drum_normal"
6, 36480, Text_t, "drum_double"
6, 37440, Text_t, "sing_on"
6, 38400, Text_t, "wail_off"
6, 38400, Text_t, "drum_normal"
6, 48000, Text_t, "sing_off"
6, 51840, Text_t, "drum_double"
6, 53760, Text_t, "sing_on"
6, 53760, Text_t, "drum_normal"
6, 63360, Text_t, "sing_off"
6, 67200, Text_t, "drum_double"
6, 68160, Text_t, "sing_on"
6, 69120, Text_t, "drum_normal"
6, 78720, Text_t, "sing_off"
6, 82560, Text_t, "drum_double"
6, 84480, Text_t, "sing_on"
6, 84480, Text_t, "[chorus]"
6, 84480, Text_t, "drum_normal"
6, 97920, Text_t, "drum_double"
6, 99840, Text_t, "drum_normal"
6, 111360, Text_t, "sing_off"
6, 114240, Text_t, "drum_double"
6, 115200, Text_t, "[solo]"
6, 115200, Text_t, "solo_on"
6, 115200, Text_t, "drum_normal"
6, 120960, Text_t, "drum_double"
6, 122880, Text_t, "drum_normal"
6, 128640, Text_t, "drum_double"
6, 130560, Text_t, "drum_normal"
6, 136320, Text_t, "drum_double"
6, 138240, Text_t, "drum_normal"
6, 142080, Text_t, "drum_allbeat"
6, 145920, Text_t, "solo_off"
6, 145920, Text_t, "[chorus]"
6, 145920, Text_t, "sing_on"
6, 145920, Text_t, "drum_normal"
6, 157440, Text_t, "sing_off"
6, 161280, Text_t, "sing_on"
6, 172800, Text_t, "sing_off"
6, 176640, Text_t, "[verse]"
6, 188160, Text_t, "sing_on"
6, 205440, Text_t, "drum_double"
6, 207360, Text_t, "drum_normal"
6, 224640, Text_t, "drum_double"
6, 225600, Text_t, "drum_normal"
6, 225600, Text_t, "[chorus]"
6, 239040, Text_t, "drum_double"
6, 240960, Text_t, "drum_normal"
6, 253440, Text_t, "sing_off"
6, 254400, Text_t, "drum_double"
6, 256320, Text_t, "[verse]"
6, 256320, Text_t, "[lighting (sweep)]"
6, 256320, Text_t, "drum_normal"
6, 271680, Text_t, "sing_on"
6, 271680, Text_t, "wail_off"
6, 284160, Text_t, "drum_allbeat"
6, 287040, Text_t, "drum_normal"
6, 298560, Text_t, "drum_allbeat"
6, 302400, Text_t, "drum_normal"
6, 312000, Text_t, "drum_double"
6, 317760, Text_t, "drum_normal"
6, 326400, Text_t, "gtr_off"
6, 326400, Text_t, "[idle]"
6, 327360, Text_t, "drum_off"
6, 328800, Text_t, "sing_off"
6, 329278, Text_t, "[end]"
6, 329278, End_track
7, 0, Start_track
7, 0, Title_t, "BAND SINGER"
7, 0, Text_t, "gtr_off"
7, 0, Text_t, "drum_off"
7, 0, Text_t, "bass_off"
7, 0, Text_t, "[idle]"
7, 7680, Text_t, "gtr_on"
7, 7680, Text_t, "bass_on"
7, 7680, Text_t, "[verse]"
7, 21120, Text_t, "drum_double"
7, 23040, Text_t, "[lighting (sweep)]"
7, 23040, Text_t, "drum_normal"
7, 36480, Text_t, "drum_double"
7, 37440, Text_t, "[play]"
7, 38400, Text_t, "wail_off"
7, 38400, Text_t, "drum_normal"
7, 48000, Text_t, "[idle]"
7, 51840, Text_t, "drum_double"
7, 53760, Text_t, "[play]"
7, 53760, Text_t, "drum_normal"
7, 63360, Text_t, "[idle]"
7, 67200, Text_t, "drum_double"
7, 68160, Text_t, "[play]"
7, 69120, Text_t, "drum_normal"
7, 78720, Text_t, "[idle]"
7, 82560, Text_t, "drum_double"
7, 84480, Text_t, "[play]"
7, 84480, Text_t, "[chorus]"
7, 84480, Text_t, "drum_normal"
7, 97920, Text_t, "drum_double"
7, 99840, Text_t, "drum_normal"
7, 111360, Text_t, "[idle]"
7, 114240, Text_t, "drum_double"
7, 115200, Text_t, "[solo]"
7, 115200, Text_t, "solo_on"
7, 115200, Text_t, "drum_normal"
7, 120960, Text_t, "drum_double"
7, 122880, Text_t, "drum_normal"
7, 128640, Text_t, "drum_double"
7, 130560, Text_t, "drum_normal"
7, 136320, Text_t, "drum_double"
7, 138240, Text_t, "drum_normal"
7, 142080, Text_t, "drum_allbeat"
7, 145920, Text_t, "solo_off"
7, 145920, Text_t, "[chorus]"
7, 145920, Text_t, "[play]"
7, 145920, Text_t, "drum_normal"
7, 157440, Text_t, "[idle]"
7, 161280, Text_t, "[play]"
7, 172800, Text_t, "[idle]"
7, 176640, Text_t, "[verse]"
7, 188160, Text_t, "[play]"
7, 205440, Text_t, "drum_double"
7, 207360, Text_t, "drum_normal"
7, 224640, Text_t, "drum_double"
7, 225600, Text_t, "drum_normal"
7, 225600, Text_t, "[chorus]"
7, 239040, Text_t, "drum_double"
7, 240960, Text_t, "drum_normal"
7, 253440, Text_t, "[idle]"
7, 254400, Text_t, "drum_double"
7, 256320, Text_t, "[verse]"
7, 256320, Text_t, "[lighting (sweep)]"
7, 256320, Text_t, "drum_normal"
7, 271680, Text_t, "[play]"
7, 271680, Text_t, "wail_off"
7, 284160, Text_t, "drum_allbeat"
7, 287040, Text_t, "drum_normal"
7, 298560, Text_t, "drum_allbeat"
7, 302400, Text_t, "drum_normal"
7, 312000, Text_t, "drum_double"
7, 317760, Text_t, "drum_normal"
7, 326400, Text_t, "gtr_off"
7, 326400, Text_t, "bass_off"
7, 327360, Text_t, "drum_off"
7, 328800, Text_t, "[idle]"
7, 329278, Text_t, "[end]"
7, 329278, End_track
8, 0, Start_track
8, 0, Title_t, "BAND DRUMS"
8, 0, Text_t, "gtr_off"
8, 0, Text_t, "[idle]"
8, 0, Text_t, "bass_off"
8, 0, Text_t, "singf_off"
8, 7680, Text_t, "gtr_on"
8, 7680, Text_t, "bass_on"
8, 7680, Text_t, "[verse]"
8, 21120, Text_t, "[double_time]"
8, 23040, Text_t, "[lighting (sweep)]"
8, 23040, Text_t, "[nobeat]"
8, 36480, Text_t, "[double_time]"
8, 37440, Text_t, "sing_on"
8, 38400, Text_t, "wail_off"
8, 38400, Text_t, "[nobeat]"
8, 48000, Text_t, "sing_off"
8, 51840, Text_t, "[double_time]"
8, 53760, Text_t, "sing_on"
8, 53760, Text_t, "[nobeat]"
8, 63360, Text_t, "sing_off"
8, 67200, Text_t, "[double_time]"
8, 68160, Text_t, "sing_on"
8, 69120, Text_t, "[nobeat]"
8, 78720, Text_t, "sing_off"
8, 82560, Text_t, "[double_time]"
8, 84480, Text_t, "sing_on"
8, 84480, Text_t, "[chorus]"
8, 84480, Text_t, "[nobeat]"
8, 97920, Text_t, "[double_time]"
8, 99840, Text_t, "[nobeat]"
8, 111360, Text_t, "sing_off"
8, 114240, Text_t, "[double_time]"
8, 115200, Text_t, "[solo]"
8, 115200, Text_t, "solo_on"
8, 115200, Text_t, "[nobeat]"
8, 120960, Text_t, "[double_time]"
8, 122880, Text_t, "[nobeat]"
8, 128640, Text_t, "[double_time]"
8, 130560, Text_t, "[nobeat]"
8, 136320, Text_t, "[double_time]"
8, 138240, Text_t, "[nobeat]"
8, 142080, Text_t, "[allbeat]"
8, 145920, Text_t, "solo_off"
8, 145920, Text_t, "[chorus]"
8, 145920, Text_t, "sing_on"
8, 145920, Text_t, "[nobeat]"
8, 157440, Text_t, "sing_off"
8, 161280, Text_t, "sing_on"
8, 172800, Text_t, "sing_off"
8, 176640, Text_t, "[verse]"
8, 188160, Text_t, "sing_on"
8, 205440, Text_t, "[double_time]"
8, 207360, Text_t, "[nobeat]"
8, 224640, Text_t, "[double_time]"
8, 225600, Text_t, "[nobeat]"
8, 225600, Text_t, "[chorus]"
8, 239040, Text_t, "[double_time]"
8, 240960, Text_t, "[nobeat]"
8, 253440, Text_t, "sing_off"
8, 254400, Text_t, "[double_time]"
8, 256320, Text_t, "[verse]"
8, 256320, Text_t, "[lighting (sweep)]"
8, 256320, Text_t, "[nobeat]"
8, 271680, Text_t, "sing_on"
8, 271680, Text_t, "wail_off"
8, 284160, Text_t, "[allbeat]"
8, 287040, Text_t, "[nobeat]"
8, 298560, Text_t, "[allbeat]"
8, 302400, Text_t, "[nobeat]"
8, 312000, Text_t, "[double_time]"
8, 317760, Text_t, "[nobeat]"
8, 326400, Text_t, "gtr_off"
8, 326400, Text_t, "bass_off"
8, 327360, Text_t, "[idle]"
8, 328800, Text_t, "sing_off"
8, 329278, Text_t, "[end]"
8, 329278, End_track
0, 0, End_of_file
