0, 0, Header, 1, 8, 960
1, 0, Start_track
1, 0, Title_t, "iloverockandroll"
1, 0, Time_signature, 4, 2, 24, 8
1, 0, Tempo, 631578
1, 7680, Tempo, 625000
1, 11520, Tempo, 606060
1, 15360, Tempo, 612244
1, 19200, Time_signature, 3, 2, 24, 8
1, 19200, Tempo, 612244
1, 22080, Time_signature, 4, 2, 24, 8
1, 22080, Tempo, 625000
1, 25920, Tempo, 618556
1, 29760, Tempo, 625000
1, 45120, Tempo, 621761
1, 48960, Time_signature, 2, 2, 24, 8
1, 48960, Tempo, 621761
1, 50880, Time_signature, 4, 2, 24, 8
1, 50880, Tempo, 645160
1, 62400, Tempo, 634920
1, 73920, Tempo, 625000
1, 81600, Time_signature, 3, 2, 24, 8
1, 81600, Tempo, 625000
1, 84480, Time_signature, 4, 2, 24, 8
1, 84480, Tempo, 638297
1, 88320, Tempo, 631578
1, 111360, Time_signature, 2, 2, 24, 8
1, 111360, Tempo, 631578
1, 113280, Time_signature, 4, 2, 24, 8
1, 113280, Tempo, 659340
1, 117120, Tempo, 652172
1, 128640, Tempo, 638297
1, 136320, Tempo, 618556
1, 140160, Tempo, 625000
1, 144000, Time_signature, 3, 2, 24, 8
1, 144000, Tempo, 625000
1, 146880, Time_signature, 4, 2, 24, 8
1, 146880, Tempo, 638297
1, 154560, Tempo, 631578
1, 169920, Tempo, 638297
1, 173760, Time_signature, 2, 2, 24, 8
1, 173760, Tempo, 638297
1, 175680, Time_signature, 4, 2, 24, 8
1, 175680, Tempo, 652172
1, 187200, Tempo, 645160
1, 194880, Tempo, 638297
1, 202560, Tempo, 645160
1, 210240, Tempo, 638297
1, 214080, Tempo, 618556
1, 221760, Time_signature, 3, 2, 24, 8
1, 221760, Tempo, 618556
1, 224640, Time_signature, 4, 2, 24, 8
1, 224640, Tempo, 625000
1, 228480, Tempo, 618556
1, 236160, Time_signature, 3, 2, 24, 8
1, 236160, Tempo, 618556
1, 239040, Time_signature, 4, 2, 24, 8
1, 239040, Tempo, 615383
1, 246720, Tempo, 618556
1, 250560, Time_signature, 3, 2, 24, 8
1, 250560, Tempo, 625000
1, 253440, Time_signature, 4, 2, 24, 8
1, 253440, Tempo, 621761
1, 261120, Tempo, 618556
1, 264960, Time_signature, 3, 2, 24, 8
1, 264960, Tempo, 618556
1, 267840, Time_signature, 4, 2, 24, 8
1, 267840, Tempo, 618556
1, 267840, End_track
2, 0, Start_track
2, 0, Title_t, "PART GUITAR"
2, 0, Text_t, "[idle]"
2, 0, Text_t, "drum_off"
2, 0, Text_t, "bass_off"
2, 0, Text_t, "sing_off"
2, 5760, Text_t, "drum_allbeat"
2, 7650, Note_on_c, 0, 105, 100
2, 7650, Note_on_c, 0, 93, 100
2, 7650, Note_on_c, 0, 69, 100
2, 7650, Note_on_c, 0, 81, 100
2, 7650, Text_t, "[play]"
2, 7680, Text_t, "bass_on"
2, 7680, Text_t, "[chorus]"
2, 7680, Text_t, "drum_normal"
2, 7680, Note_on_c, 0, 96, 100
2, 7680, Note_on_c, 0, 98, 100
2, 7680, Note_on_c, 0, 84, 100
2, 7680, Note_on_c, 0, 86, 100
2, 7680, Note_on_c, 0, 72, 100
2, 7680, Note_on_c, 0, 73, 100
2, 7680, Note_on_c, 0, 60, 100
2, 7920, Note_on_c, 0, 96, 0
2, 7920, Note_on_c, 0, 98, 0
2, 7920, Note_on_c, 0, 84, 0
2, 7920, Note_on_c, 0, 86, 0
2, 7920, Note_on_c, 0, 72, 0
2, 7920, Note_on_c, 0, 73, 0
2, 7920, Note_on_c, 0, 60, 0
2, 8160, Note_on_c, 0, 96, 100
2, 8160, Note_on_c, 0, 98, 100
2, 8160, Note_on_c, 0, 84, 100
2, 8160, Note_on_c, 0, 86, 100
2, 8160, Note_on_c, 0, 72, 100
2, 8160, Note_on_c, 0, 73, 100
2, 8160, Note_on_c, 0, 60, 100
2, 8400, Note_on_c, 0, 96, 0
2, 8400, Note_on_c, 0, 98, 0
2, 8400, Note_on_c, 0, 84, 0
2, 8400, Note_on_c, 0, 86, 0
2, 8400, Note_on_c, 0, 72, 0
2, 8400, Note_on_c, 0, 73, 0
2, 8400, Note_on_c, 0, 60, 0
2, 9600, Note_on_c, 0, 96, 100
2, 9600, Note_on_c, 0, 98, 100
2, 9600, Note_on_c, 0, 84, 100
2, 9600, Note_on_c, 0, 86, 100
2, 9600, Note_on_c, 0, 72, 100
2, 9600, Note_on_c, 0, 73, 100
2, 9600, Note_on_c, 0, 60, 100
2, 9840, Note_on_c, 0, 96, 0
2, 9840, Note_on_c, 0, 98, 0
2, 9840, Note_on_c, 0, 84, 0
2, 9840, Note_on_c, 0, 86, 0
2, 9840, Note_on_c, 0, 72, 0
2, 9840, Note_on_c, 0, 73, 0
2, 9840, Note_on_c, 0, 60, 0
2, 10080, Note_on_c, 0, 96, 100
2, 10080, Note_on_c, 0, 98, 100
2, 10080, Note_on_c, 0, 84, 100
2, 10080, Note_on_c, 0, 86, 100
2, 10080, Note_on_c, 0, 72, 100
2, 10080, Note_on_c, 0, 73, 100
2, 10080, Note_on_c, 0, 60, 100
2, 10320, Note_on_c, 0, 96, 0
2, 10320, Note_on_c, 0, 98, 0
2, 10320, Note_on_c, 0, 84, 0
2, 10320, Note_on_c, 0, 86, 0
2, 10320, Note_on_c, 0, 72, 0
2, 10320, Note_on_c, 0, 73, 0
2, 10320, Note_on_c, 0, 60, 0
2, 10800, Note_on_c, 0, 97, 100
2, 10800, Note_on_c, 0, 85, 100
2, 10800, Note_on_c, 0, 72, 100
2, 11040, Note_on_c, 0, 72, 0
2, 11520, Note_on_c, 0, 97, 0
2, 11520, Note_on_c, 0, 85, 0
2, 11520, Note_on_c, 0, 97, 100
2, 11520, Note_on_c, 0, 99, 100
2, 11520, Note_on_c, 0, 85, 100
2, 11520, Note_on_c, 0, 86, 100
2, 11520, Note_on_c, 0, 73, 100
2, 11520, Note_on_c, 0, 61, 100
2, 11760, Note_on_c, 0, 97, 0
2, 11760, Note_on_c, 0, 99, 0
2, 11760, Note_on_c, 0, 85, 0
2, 11760, Note_on_c, 0, 86, 0
2, 11760, Note_on_c, 0, 73, 0
2, 11760, Note_on_c, 0, 61, 0
2, 12000, Note_on_c, 0, 97, 100
2, 12000, Note_on_c, 0, 99, 100
2, 12000, Note_on_c, 0, 85, 100
2, 12000, Note_on_c, 0, 86, 100
2, 12000, Note_on_c, 0, 73, 100
2, 12000, Note_on_c, 0, 61, 100
2, 12240, Note_on_c, 0, 97, 0
2, 12240, Note_on_c, 0, 99, 0
2, 12240, Note_on_c, 0, 85, 0
2, 12240, Note_on_c, 0, 86, 0
2, 12240, Note_on_c, 0, 73, 0
2, 12240, Note_on_c, 0, 61, 0
2, 13440, Note_on_c, 0, 98, 100
2, 13440, Note_on_c, 0, 100, 100
2, 13440, Note_on_c, 0, 85, 100
2, 13440, Note_on_c, 0, 87, 100
2, 13440, Note_on_c, 0, 73, 100
2, 13440, Note_on_c, 0, 74, 100
2, 13440, Note_on_c, 0, 62, 100
2, 13680, Note_on_c, 0, 98, 0
2, 13680, Note_on_c, 0, 100, 0
2, 13680, Note_on_c, 0, 85, 0
2, 13680, Note_on_c, 0, 87, 0
2, 13680, Note_on_c, 0, 73, 0
2, 13680, Note_on_c, 0, 74, 0
2, 13680, Note_on_c, 0, 62, 0
2, 13920, Note_on_c, 0, 98, 100
2, 13920, Note_on_c, 0, 100, 100
2, 13920, Note_on_c, 0, 85, 100
2, 13920, Note_on_c, 0, 87, 100
2, 13920, Note_on_c, 0, 73, 100
2, 13920, Note_on_c, 0, 74, 100
2, 13920, Note_on_c, 0, 62, 100
2, 14160, Note_on_c, 0, 98, 0
2, 14160, Note_on_c, 0, 100, 0
2, 14160, Note_on_c, 0, 85, 0
2, 14160, Note_on_c, 0, 87, 0
2, 14160, Note_on_c, 0, 73, 0
2, 14160, Note_on_c, 0, 74, 0
2, 14160, Note_on_c, 0, 62, 0
2, 14370, Note_on_c, 0, 105, 0
2, 14370, Note_on_c, 0, 93, 0
2, 14370, Note_on_c, 0, 69, 0
2, 14370, Note_on_c, 0, 81, 0
2, 14610, Note_on_c, 0, 106, 100
2, 14610, Note_on_c, 0, 94, 100
2, 14610, Note_on_c, 0, 70, 100
2, 14610, Note_on_c, 0, 82, 100
2, 14640, Note_on_c, 0, 97, 100
2, 14640, Note_on_c, 0, 85, 100
2, 14640, Note_on_c, 0, 72, 100
2, 14880, Note_on_c, 0, 72, 0
2, 15360, Note_on_c, 0, 97, 0
2, 15360, Note_on_c, 0, 85, 0
2, 15360, Note_on_c, 0, 96, 100
2, 15360, Note_on_c, 0, 98, 100
2, 15360, Note_on_c, 0, 84, 100
2, 15360, Note_on_c, 0, 86, 100
2, 15360, Note_on_c, 0, 72, 100
2, 15360, Note_on_c, 0, 73, 100
2, 15360, Note_on_c, 0, 60, 100
2, 15600, Note_on_c, 0, 96, 0
2, 15600, Note_on_c, 0, 98, 0
2, 15600, Note_on_c, 0, 84, 0
2, 15600, Note_on_c, 0, 86, 0
2, 15600, Note_on_c, 0, 72, 0
2, 15600, Note_on_c, 0, 73, 0
2, 15600, Note_on_c, 0, 60, 0
2, 15840, Note_on_c, 0, 96, 100
2, 15840, Note_on_c, 0, 98, 100
2, 15840, Note_on_c, 0, 84, 100
2, 15840, Note_on_c, 0, 86, 100
2, 15840, Note_on_c, 0, 72, 100
2, 15840, Note_on_c, 0, 73, 100
2, 15840, Note_on_c, 0, 60, 100
2, 16080, Note_on_c, 0, 96, 0
2, 16080, Note_on_c, 0, 98, 0
2, 16080, Note_on_c, 0, 84, 0
2, 16080, Note_on_c, 0, 86, 0
2, 16080, Note_on_c, 0, 72, 0
2, 16080, Note_on_c, 0, 73, 0
2, 16080, Note_on_c, 0, 60, 0
2, 17280, Note_on_c, 0, 96, 100
2, 17280, Note_on_c, 0, 98, 100
2, 17280, Note_on_c, 0, 84, 100
2, 17280, Note_on_c, 0, 86, 100
2, 17280, Note_on_c, 0, 72, 100
2, 17280, Note_on_c, 0, 73, 100
2, 17280, Note_on_c, 0, 60, 100
2, 17520, Note_on_c, 0, 96, 0
2, 17520, Note_on_c, 0, 98, 0
2, 17520, Note_on_c, 0, 84, 0
2, 17520, Note_on_c, 0, 86, 0
2, 17520, Note_on_c, 0, 72, 0
2, 17520, Note_on_c, 0, 73, 0
2, 17520, Note_on_c, 0, 60, 0
2, 17760, Note_on_c, 0, 96, 100
2, 17760, Note_on_c, 0, 98, 100
2, 17760, Note_on_c, 0, 84, 100
2, 17760, Note_on_c, 0, 86, 100
2, 17760, Note_on_c, 0, 72, 100
2, 17760, Note_on_c, 0, 73, 100
2, 17760, Note_on_c, 0, 60, 100
2, 18000, Note_on_c, 0, 96, 0
2, 18000, Note_on_c, 0, 98, 0
2, 18000, Note_on_c, 0, 84, 0
2, 18000, Note_on_c, 0, 86, 0
2, 18000, Note_on_c, 0, 72, 0
2, 18000, Note_on_c, 0, 73, 0
2, 18000, Note_on_c, 0, 60, 0
2, 18480, Note_on_c, 0, 97, 100
2, 18480, Note_on_c, 0, 85, 100
2, 18480, Note_on_c, 0, 72, 100
2, 18720, Note_on_c, 0, 72, 0
2, 19200, Note_on_c, 0, 97, 0
2, 19200, Note_on_c, 0, 85, 0
2, 19200, Note_on_c, 0, 97, 100
2, 19200, Note_on_c, 0, 99, 100
2, 19200, Note_on_c, 0, 85, 100
2, 19200, Note_on_c, 0, 86, 100
2, 19200, Note_on_c, 0, 73, 100
2, 19200, Note_on_c, 0, 61, 100
2, 19440, Note_on_c, 0, 97, 0
2, 19440, Note_on_c, 0, 99, 0
2, 19440, Note_on_c, 0, 85, 0
2, 19440, Note_on_c, 0, 86, 0
2, 19440, Note_on_c, 0, 73, 0
2, 19440, Note_on_c, 0, 61, 0
2, 19680, Note_on_c, 0, 97, 100
2, 19680, Note_on_c, 0, 99, 100
2, 19680, Note_on_c, 0, 85, 100
2, 19680, Note_on_c, 0, 86, 100
2, 19680, Note_on_c, 0, 73, 100
2, 19680, Note_on_c, 0, 61, 100
2, 19920, Note_on_c, 0, 97, 0
2, 19920, Note_on_c, 0, 99, 0
2, 19920, Note_on_c, 0, 85, 0
2, 19920, Note_on_c, 0, 86, 0
2, 19920, Note_on_c, 0, 73, 0
2, 19920, Note_on_c, 0, 61, 0
2, 21090, Note_on_c, 0, 105, 100
2, 21090, Note_on_c, 0, 93, 100
2, 21090, Note_on_c, 0, 69, 100
2, 21090, Note_on_c, 0, 81, 100
2, 21120, Note_on_c, 0, 98, 100
2, 21120, Note_on_c, 0, 100, 100
2, 21120, Note_on_c, 0, 85, 100
2, 21120, Note_on_c, 0, 87, 100
2, 21120, Note_on_c, 0, 73, 100
2, 21120, Note_on_c, 0, 74, 100
2, 21120, Note_on_c, 0, 62, 100
2, 21360, Note_on_c, 0, 98, 0
2, 21360, Note_on_c, 0, 100, 0
2, 21360, Note_on_c, 0, 85, 0
2, 21360, Note_on_c, 0, 87, 0
2, 21360, Note_on_c, 0, 73, 0
2, 21360, Note_on_c, 0, 74, 0
2, 21360, Note_on_c, 0, 62, 0
2, 21600, Note_on_c, 0, 97, 100
2, 21600, Note_on_c, 0, 85, 100
2, 21840, Note_on_c, 0, 97, 0
2, 21840, Note_on_c, 0, 85, 0
2, 22080, Text_t, "[verse]"
2, 22080, Note_on_c, 0, 96, 100
2, 22080, Note_on_c, 0, 98, 100
2, 22080, Note_on_c, 0, 84, 100
2, 22080, Note_on_c, 0, 86, 100
2, 22080, Note_on_c, 0, 72, 100
2, 22080, Note_on_c, 0, 73, 100
2, 22080, Note_on_c, 0, 60, 100
2, 22320, Note_on_c, 0, 96, 0
2, 22320, Note_on_c, 0, 98, 0
2, 22320, Note_on_c, 0, 84, 0
2, 22320, Note_on_c, 0, 86, 0
2, 22320, Note_on_c, 0, 72, 0
2, 22320, Note_on_c, 0, 73, 0
2, 22320, Note_on_c, 0, 60, 0
2, 22560, Note_on_c, 0, 96, 100
2, 22560, Note_on_c, 0, 98, 100
2, 22560, Note_on_c, 0, 84, 100
2, 22560, Note_on_c, 0, 86, 100
2, 22560, Note_on_c, 0, 72, 100
2, 22560, Note_on_c, 0, 73, 100
2, 22560, Note_on_c, 0, 60, 100
2, 22800, Note_on_c, 0, 96, 0
2, 22800, Note_on_c, 0, 98, 0
2, 22800, Note_on_c, 0, 84, 0
2, 22800, Note_on_c, 0, 86, 0
2, 22800, Note_on_c, 0, 72, 0
2, 22800, Note_on_c, 0, 73, 0
2, 22800, Note_on_c, 0, 60, 0
2, 25920, Note_on_c, 0, 96, 100
2, 25920, Note_on_c, 0, 98, 100
2, 25920, Note_on_c, 0, 84, 100
2, 25920, Note_on_c, 0, 86, 100
2, 25920, Note_on_c, 0, 72, 100
2, 25920, Note_on_c, 0, 73, 100
2, 25920, Note_on_c, 0, 60, 100
2, 26160, Note_on_c, 0, 96, 0
2, 26160, Note_on_c, 0, 98, 0
2, 26160, Note_on_c, 0, 84, 0
2, 26160, Note_on_c, 0, 86, 0
2, 26160, Note_on_c, 0, 72, 0
2, 26160, Note_on_c, 0, 73, 0
2, 26160, Note_on_c, 0, 60, 0
2, 26400, Note_on_c, 0, 96, 100
2, 26400, Note_on_c, 0, 98, 100
2, 26400, Note_on_c, 0, 84, 100
2, 26400, Note_on_c, 0, 86, 100
2, 26400, Note_on_c, 0, 72, 100
2, 26400, Note_on_c, 0, 73, 100
2, 26400, Note_on_c, 0, 60, 100
2, 26640, Note_on_c, 0, 96, 0
2, 26640, Note_on_c, 0, 98, 0
2, 26640, Note_on_c, 0, 84, 0
2, 26640, Note_on_c, 0, 86, 0
2, 26640, Note_on_c, 0, 72, 0
2, 26640, Note_on_c, 0, 73, 0
2, 26640, Note_on_c, 0, 60, 0
2, 27810, Note_on_c, 0, 103, 100
2, 27810, Note_on_c, 0, 91, 100
2, 27810, Note_on_c, 0, 79, 100
2, 27810, Note_on_c, 0, 67, 100
2, 27840, Note_on_c, 0, 100, 100
2, 27840, Note_on_c, 0, 87, 100
2, 27840, Note_on_c, 0, 74, 100
2, 27840, Note_on_c, 0, 62, 100
2, 28080, Note_on_c, 0, 100, 0
2, 28080, Note_on_c, 0, 87, 0
2, 28080, Note_on_c, 0, 74, 0
2, 28080, Note_on_c, 0, 62, 0
2, 28080, Note_on_c, 0, 99, 100
2, 28080, Note_on_c, 0, 86, 100
2, 28320, Note_on_c, 0, 99, 0
2, 28320, Note_on_c, 0, 86, 0
2, 28320, Note_on_c, 0, 98, 100
2, 28320, Note_on_c, 0, 85, 100
2, 28560, Note_on_c, 0, 98, 0
2, 28560, Note_on_c, 0, 85, 0
2, 28800, Note_on_c, 0, 97, 100
2, 28800, Note_on_c, 0, 85, 100
2, 28800, Note_on_c, 0, 73, 100
2, 28800, Note_on_c, 0, 61, 100
2, 29040, Note_on_c, 0, 97, 0
2, 29040, Note_on_c, 0, 85, 0
2, 29040, Note_on_c, 0, 73, 0
2, 29040, Note_on_c, 0, 61, 0
2, 29040, Note_on_c, 0, 96, 100
2, 29040, Note_on_c, 0, 84, 100
2, 29040, Note_on_c, 0, 72, 100
2, 29280, Note_on_c, 0, 96, 0
2, 29280, Note_on_c, 0, 84, 0
2, 29280, Note_on_c, 0, 72, 0
2, 29600, Note_on_c, 0, 108, 100
2, 29660, Note_on_c, 0, 108, 0
2, 29730, Note_on_c, 0, 106, 0
2, 29730, Note_on_c, 0, 94, 0
2, 29730, Note_on_c, 0, 70, 0
2, 29730, Note_on_c, 0, 82, 0
2, 29730, Note_on_c, 0, 103, 0
2, 29730, Note_on_c, 0, 91, 0
2, 29730, Note_on_c, 0, 79, 0
2, 29730, Note_on_c, 0, 67, 0
2, 29760, Text_t, "sing_on"
2, 29760, Note_on_c, 0, 96, 100
2, 29760, Note_on_c, 0, 98, 100
2, 29760, Note_on_c, 0, 84, 100
2, 29760, Note_on_c, 0, 86, 100
2, 29760, Note_on_c, 0, 72, 100
2, 29760, Note_on_c, 0, 73, 100
2, 29760, Note_on_c, 0, 60, 100
2, 29760, Note_on_c, 0, 108, 100
2, 30000, Note_on_c, 0, 96, 0
2, 30000, Note_on_c, 0, 98, 0
2, 30000, Note_on_c, 0, 84, 0
2, 30000, Note_on_c, 0, 86, 0
2, 30000, Note_on_c, 0, 72, 0
2, 30000, Note_on_c, 0, 73, 0
2, 30000, Note_on_c, 0, 60, 0
2, 30080, Note_on_c, 0, 108, 0
2, 30240, Note_on_c, 0, 96, 100
2, 30240, Note_on_c, 0, 98, 100
2, 30240, Note_on_c, 0, 84, 100
2, 30240, Note_on_c, 0, 86, 100
2, 30240, Note_on_c, 0, 72, 100
2, 30240, Note_on_c, 0, 73, 100
2, 30240, Note_on_c, 0, 60, 100
2, 30240, Note_on_c, 0, 108, 100
2, 30480, Note_on_c, 0, 96, 0
2, 30480, Note_on_c, 0, 98, 0
2, 30480, Note_on_c, 0, 84, 0
2, 30480, Note_on_c, 0, 86, 0
2, 30480, Note_on_c, 0, 72, 0
2, 30480, Note_on_c, 0, 73, 0
2, 30480, Note_on_c, 0, 60, 0
2, 30560, Note_on_c, 0, 108, 0
2, 30720, Note_on_c, 0, 108, 100
2, 31040, Note_on_c, 0, 108, 0
2, 31200, Note_on_c, 0, 108, 100
2, 31360, Note_on_c, 0, 108, 0
2, 31440, Note_on_c, 0, 108, 100
2, 32000, Note_on_c, 0, 108, 0
2, 32160, Note_on_c, 0, 108, 100
2, 32320, Note_on_c, 0, 108, 0
2, 32400, Note_on_c, 0, 108, 100
2, 32480, Note_on_c, 0, 108, 0
2, 32640, Note_on_c, 0, 108, 100
2, 32800, Note_on_c, 0, 108, 0
2, 32880, Note_on_c, 0, 108, 100
2, 32960, Note_on_c, 0, 108, 0
2, 33120, Note_on_c, 0, 108, 100
2, 33440, Note_on_c, 0, 108, 0
2, 33600, Note_on_c, 0, 96, 100
2, 33600, Note_on_c, 0, 98, 100
2, 33600, Note_on_c, 0, 84, 100
2, 33600, Note_on_c, 0, 86, 100
2, 33600, Note_on_c, 0, 72, 100
2, 33600, Note_on_c, 0, 73, 100
2, 33600, Note_on_c, 0, 60, 100
2, 33600, Note_on_c, 0, 108, 100
2, 33840, Note_on_c, 0, 96, 0
2, 33840, Note_on_c, 0, 98, 0
2, 33840, Note_on_c, 0, 84, 0
2, 33840, Note_on_c, 0, 86, 0
2, 33840, Note_on_c, 0, 72, 0
2, 33840, Note_on_c, 0, 73, 0
2, 33840, Note_on_c, 0, 60, 0
2, 34080, Note_on_c, 0, 96, 100
2, 34080, Note_on_c, 0, 98, 100
2, 34080, Note_on_c, 0, 84, 100
2, 34080, Note_on_c, 0, 86, 100
2, 34080, Note_on_c, 0, 72, 100
2, 34080, Note_on_c, 0, 73, 100
2, 34080, Note_on_c, 0, 60, 100
2, 34320, Note_on_c, 0, 96, 0
2, 34320, Note_on_c, 0, 98, 0
2, 34320, Note_on_c, 0, 84, 0
2, 34320, Note_on_c, 0, 86, 0
2, 34320, Note_on_c, 0, 72, 0
2, 34320, Note_on_c, 0, 73, 0
2, 34320, Note_on_c, 0, 60, 0
2, 34560, Note_on_c, 0, 108, 0
2, 35520, Note_on_c, 0, 100, 100
2, 35520, Note_on_c, 0, 87, 100
2, 35520, Note_on_c, 0, 74, 100
2, 35520, Note_on_c, 0, 62, 100
2, 35760, Note_on_c, 0, 100, 0
2, 35760, Note_on_c, 0, 87, 0
2, 35760, Note_on_c, 0, 74, 0
2, 35760, Note_on_c, 0, 62, 0
2, 35760, Note_on_c, 0, 99, 100
2, 35760, Note_on_c, 0, 86, 100
2, 36000, Note_on_c, 0, 99, 0
2, 36000, Note_on_c, 0, 86, 0
2, 36000, Note_on_c, 0, 98, 100
2, 36000, Note_on_c, 0, 85, 100
2, 36240, Note_on_c, 0, 98, 0
2, 36240, Note_on_c, 0, 85, 0
2, 36480, Note_on_c, 0, 97, 100
2, 36480, Note_on_c, 0, 85, 100
2, 36480, Note_on_c, 0, 73, 100
2, 36480, Note_on_c, 0, 61, 100
2, 36720, Note_on_c, 0, 97, 0
2, 36720, Note_on_c, 0, 85, 0
2, 36720, Note_on_c, 0, 73, 0
2, 36720, Note_on_c, 0, 61, 0
2, 36720, Note_on_c, 0, 96, 100
2, 36720, Note_on_c, 0, 84, 100
2, 36720, Note_on_c, 0, 72, 100
2, 36960, Note_on_c, 0, 96, 0
2, 36960, Note_on_c, 0, 84, 0
2, 36960, Note_on_c, 0, 72, 0
2, 37200, Note_on_c, 0, 108, 100
2, 37322, Note_on_c, 0, 108, 0
2, 37410, Note_on_c, 0, 105, 0
2, 37410, Note_on_c, 0, 93, 0
2, 37410, Note_on_c, 0, 69, 0
2, 37410, Note_on_c, 0, 81, 0
2, 37410, Note_on_c, 0, 106, 100
2, 37410, Note_on_c, 0, 94, 100
2, 37410, Note_on_c, 0, 70, 100
2, 37410, Note_on_c, 0, 82, 100
2, 37440, Note_on_c, 0, 96, 100
2, 37440, Note_on_c, 0, 98, 100
2, 37440, Note_on_c, 0, 84, 100
2, 37440, Note_on_c, 0, 86, 100
2, 37440, Note_on_c, 0, 72, 100
2, 37440, Note_on_c, 0, 73, 100
2, 37440, Note_on_c, 0, 60, 100
2, 37440, Note_on_c, 0, 108, 100
2, 37680, Note_on_c, 0, 96, 0
2, 37680, Note_on_c, 0, 98, 0
2, 37680, Note_on_c, 0, 84, 0
2, 37680, Note_on_c, 0, 86, 0
2, 37680, Note_on_c, 0, 72, 0
2, 37680, Note_on_c, 0, 73, 0
2, 37680, Note_on_c, 0, 60, 0
2, 37804, Note_on_c, 0, 108, 0
2, 37920, Note_on_c, 0, 96, 100
2, 37920, Note_on_c, 0, 98, 100
2, 37920, Note_on_c, 0, 84, 100
2, 37920, Note_on_c, 0, 86, 100
2, 37920, Note_on_c, 0, 72, 100
2, 37920, Note_on_c, 0, 73, 100
2, 37920, Note_on_c, 0, 60, 100
2, 37920, Note_on_c, 0, 108, 100
2, 38160, Note_on_c, 0, 96, 0
2, 38160, Note_on_c, 0, 98, 0
2, 38160, Note_on_c, 0, 84, 0
2, 38160, Note_on_c, 0, 86, 0
2, 38160, Note_on_c, 0, 72, 0
2, 38160, Note_on_c, 0, 73, 0
2, 38160, Note_on_c, 0, 60, 0
2, 38280, Note_on_c, 0, 108, 0
2, 38400, Note_on_c, 0, 108, 100
2, 38760, Note_on_c, 0, 108, 0
2, 38880, Note_on_c, 0, 108, 100
2, 39000, Note_on_c, 0, 108, 0
2, 39120, Note_on_c, 0, 108, 100
2, 39480, Note_on_c, 0, 108, 0
2, 39600, Note_on_c, 0, 108, 100
2, 39720, Note_on_c, 0, 108, 0
2, 39840, Note_on_c, 0, 108, 100
2, 40230, Note_on_c, 0, 108, 0
2, 40320, Note_on_c, 0, 108, 100
2, 40462, Note_on_c, 0, 108, 0
2, 40560, Note_on_c, 0, 108, 100
2, 41160, Note_on_c, 0, 108, 0
2, 41280, Note_on_c, 0, 98, 100
2, 41280, Note_on_c, 0, 100, 100
2, 41280, Note_on_c, 0, 85, 100
2, 41280, Note_on_c, 0, 87, 100
2, 41280, Note_on_c, 0, 73, 100
2, 41280, Note_on_c, 0, 74, 100
2, 41280, Note_on_c, 0, 62, 100
2, 41320, Note_on_c, 0, 108, 100
2, 41520, Note_on_c, 0, 98, 0
2, 41520, Note_on_c, 0, 100, 0
2, 41520, Note_on_c, 0, 85, 0
2, 41520, Note_on_c, 0, 87, 0
2, 41520, Note_on_c, 0, 73, 0
2, 41520, Note_on_c, 0, 74, 0
2, 41520, Note_on_c, 0, 62, 0
2, 41760, Note_on_c, 0, 98, 100
2, 41760, Note_on_c, 0, 100, 100
2, 41760, Note_on_c, 0, 85, 100
2, 41760, Note_on_c, 0, 87, 100
2, 41760, Note_on_c, 0, 73, 100
2, 41760, Note_on_c, 0, 74, 100
2, 41760, Note_on_c, 0, 62, 100
2, 42000, Note_on_c, 0, 98, 0
2, 42000, Note_on_c, 0, 100, 0
2, 42000, Note_on_c, 0, 85, 0
2, 42000, Note_on_c, 0, 87, 0
2, 42000, Note_on_c, 0, 73, 0
2, 42000, Note_on_c, 0, 74, 0
2, 42000, Note_on_c, 0, 62, 0
2, 42340, Note_on_c, 0, 108, 0
2, 43200, Note_on_c, 0, 100, 100
2, 43200, Note_on_c, 0, 87, 100
2, 43200, Note_on_c, 0, 74, 100
2, 43200, Note_on_c, 0, 62, 100
2, 43440, Note_on_c, 0, 100, 0
2, 43440, Note_on_c, 0, 87, 0
2, 43440, Note_on_c, 0, 74, 0
2, 43440, Note_on_c, 0, 62, 0
2, 43440, Note_on_c, 0, 99, 100
2, 43440, Note_on_c, 0, 86, 100
2, 43680, Note_on_c, 0, 99, 0
2, 43680, Note_on_c, 0, 86, 0
2, 43680, Note_on_c, 0, 98, 100
2, 43680, Note_on_c, 0, 85, 100
2, 43920, Note_on_c, 0, 98, 0
2, 43920, Note_on_c, 0, 85, 0
2, 44160, Note_on_c, 0, 97, 100
2, 44160, Note_on_c, 0, 85, 100
2, 44160, Note_on_c, 0, 73, 100
2, 44160, Note_on_c, 0, 61, 100
2, 44400, Note_on_c, 0, 97, 0
2, 44400, Note_on_c, 0, 85, 0
2, 44400, Note_on_c, 0, 73, 0
2, 44400, Note_on_c, 0, 61, 0
2, 44400, Note_on_c, 0, 96, 100
2, 44400, Note_on_c, 0, 84, 100
2, 44400, Note_on_c, 0, 72, 100
2, 44640, Note_on_c, 0, 96, 0
2, 44640, Note_on_c, 0, 84, 0
2, 44640, Note_on_c, 0, 72, 0
2, 45090, Note_on_c, 0, 106, 0
2, 45090, Note_on_c, 0, 94, 0
2, 45090, Note_on_c, 0, 70, 0
2, 45090, Note_on_c, 0, 82, 0
2, 45090, Note_on_c, 0, 105, 100
2, 45090, Note_on_c, 0, 93, 100
2, 45090, Note_on_c, 0, 69, 100
2, 45090, Note_on_c, 0, 81, 100
2, 45120, Note_on_c, 0, 97, 100
2, 45120, Note_on_c, 0, 99, 100
2, 45120, Note_on_c, 0, 85, 100
2, 45120, Note_on_c, 0, 86, 100
2, 45120, Note_on_c, 0, 73, 100
2, 45120, Note_on_c, 0, 61, 100
2, 45120, Note_on_c, 0, 108, 100
2, 45360, Note_on_c, 0, 97, 0
2, 45360, Note_on_c, 0, 99, 0
2, 45360, Note_on_c, 0, 85, 0
2, 45360, Note_on_c, 0, 86, 0
2, 45360, Note_on_c, 0, 73, 0
2, 45360, Note_on_c, 0, 61, 0
2, 45510, Note_on_c, 0, 108, 0
2, 45600, Note_on_c, 0, 97, 100
2, 45600, Note_on_c, 0, 99, 100
2, 45600, Note_on_c, 0, 85, 100
2, 45600, Note_on_c, 0, 86, 100
2, 45600, Note_on_c, 0, 73, 100
2, 45600, Note_on_c, 0, 61, 100
2, 45600, Note_on_c, 0, 108, 100
2, 45732, Note_on_c, 0, 108, 0
2, 45840, Note_on_c, 0, 97, 0
2, 45840, Note_on_c, 0, 99, 0
2, 45840, Note_on_c, 0, 85, 0
2, 45840, Note_on_c, 0, 86, 0
2, 45840, Note_on_c, 0, 73, 0
2, 45840, Note_on_c, 0, 61, 0
2, 45840, Note_on_c, 0, 108, 100
2, 46200, Note_on_c, 0, 108, 0
2, 46320, Note_on_c, 0, 108, 100
2, 46530, Note_on_c, 0, 105, 0
2, 46530, Note_on_c, 0, 93, 0
2, 46530, Note_on_c, 0, 69, 0
2, 46530, Note_on_c, 0, 81, 0
2, 47010, Note_on_c, 0, 106, 100
2, 47010, Note_on_c, 0, 94, 100
2, 47010, Note_on_c, 0, 70, 100
2, 47010, Note_on_c, 0, 82, 100
2, 47040, Note_on_c, 0, 98, 100
2, 47040, Note_on_c, 0, 100, 100
2, 47040, Note_on_c, 0, 85, 100
2, 47040, Note_on_c, 0, 87, 100
2, 47040, Note_on_c, 0, 73, 100
2, 47040, Note_on_c, 0, 74, 100
2, 47040, Note_on_c, 0, 62, 100
2, 47280, Note_on_c, 0, 98, 0
2, 47280, Note_on_c, 0, 100, 0
2, 47280, Note_on_c, 0, 85, 0
2, 47280, Note_on_c, 0, 87, 0
2, 47280, Note_on_c, 0, 73, 0
2, 47280, Note_on_c, 0, 74, 0
2, 47280, Note_on_c, 0, 62, 0
2, 47520, Note_on_c, 0, 98, 100
2, 47520, Note_on_c, 0, 100, 100
2, 47520, Note_on_c, 0, 85, 100
2, 47520, Note_on_c, 0, 87, 100
2, 47520, Note_on_c, 0, 73, 100
2, 47520, Note_on_c, 0, 74, 100
2, 47520, Note_on_c, 0, 62, 100
2, 47760, Note_on_c, 0, 98, 0
2, 47760, Note_on_c, 0, 100, 0
2, 47760, Note_on_c, 0, 85, 0
2, 47760, Note_on_c, 0, 87, 0
2, 47760, Note_on_c, 0, 73, 0
2, 47760, Note_on_c, 0, 74, 0
2, 47760, Note_on_c, 0, 62, 0
2, 48072, Note_on_c, 0, 108, 0
2, 48450, Note_on_c, 0, 106, 0
2, 48450, Note_on_c, 0, 94, 0
2, 48450, Note_on_c, 0, 70, 0
2, 48450, Note_on_c, 0, 82, 0
2, 48930, Note_on_c, 0, 105, 100
2, 48930, Note_on_c, 0, 93, 100
2, 48930, Note_on_c, 0, 69, 100
2, 48930, Note_on_c, 0, 81, 100
2, 48960, Note_on_c, 0, 60, 100
2, 48960, Note_on_c, 0, 96, 100
2, 48960, Note_on_c, 0, 98, 100
2, 48960, Note_on_c, 0, 84, 100
2, 48960, Note_on_c, 0, 86, 100
2, 48960, Note_on_c, 0, 73, 100
2, 48960, Note_on_c, 0, 72, 100
2, 48960, Note_on_c, 0, 108, 100
2, 49200, Note_on_c, 0, 60, 0
2, 49200, Note_on_c, 0, 96, 0
2, 49200, Note_on_c, 0, 98, 0
2, 49200, Note_on_c, 0, 84, 0
2, 49200, Note_on_c, 0, 86, 0
2, 49200, Note_on_c, 0, 73, 0
2, 49200, Note_on_c, 0, 72, 0
2, 49200, Note_on_c, 0, 108, 0
2, 49294, Note_on_c, 0, 108, 100
2, 49344, Note_on_c, 0, 108, 0
2, 49440, Note_on_c, 0, 60, 100
2, 49440, Note_on_c, 0, 96, 100
2, 49440, Note_on_c, 0, 98, 100
2, 49440, Note_on_c, 0, 84, 100
2, 49440, Note_on_c, 0, 86, 100
2, 49440, Note_on_c, 0, 73, 100
2, 49440, Note_on_c, 0, 72, 100
2, 49440, Note_on_c, 0, 108, 100
2, 49680, Note_on_c, 0, 60, 0
2, 49680, Note_on_c, 0, 96, 0
2, 49680, Note_on_c, 0, 98, 0
2, 49680, Note_on_c, 0, 84, 0
2, 49680, Note_on_c, 0, 86, 0
2, 49680, Note_on_c, 0, 73, 0
2, 49680, Note_on_c, 0, 72, 0
2, 49826, Note_on_c, 0, 108, 0
2, 49920, Note_on_c, 0, 108, 100
2, 50280, Note_on_c, 0, 108, 0
2, 50400, Note_on_c, 0, 108, 100
2, 50760, Note_on_c, 0, 108, 0
2, 50850, Note_on_c, 0, 103, 100
2, 50850, Note_on_c, 0, 91, 100
2, 50850, Note_on_c, 0, 79, 100
2, 50850, Note_on_c, 0, 67, 100
2, 50850, Note_on_c, 0, 106, 100
2, 50850, Note_on_c, 0, 94, 100
2, 50850, Note_on_c, 0, 70, 100
2, 50850, Note_on_c, 0, 82, 100
2, 50880, Text_t, "[idle]"
2, 50880, Text_t, "bass_off"
2, 50880, Note_on_c, 0, 97, 100
2, 50880, Note_on_c, 0, 99, 100
2, 50880, Note_on_c, 0, 85, 100
2, 50880, Note_on_c, 0, 87, 100
2, 50880, Note_on_c, 0, 72, 100
2, 50880, Note_on_c, 0, 74, 100
2, 50880, Note_on_c, 0, 61, 100
2, 50880, Note_on_c, 0, 108, 100
2, 53648, Note_on_c, 0, 108, 0
2, 54000, Note_on_c, 0, 108, 100
2, 54160, Note_on_c, 0, 108, 0
2, 54240, Note_on_c, 0, 108, 100
2, 54360, Note_on_c, 0, 108, 0
2, 54480, Note_on_c, 0, 108, 100
2, 54600, Note_on_c, 0, 108, 0
2, 54720, Note_on_c, 0, 108, 100
2, 55060, Note_on_c, 0, 108, 0
2, 55200, Note_on_c, 0, 108, 100
2, 55500, Note_on_c, 0, 108, 0
2, 55680, Note_on_c, 0, 108, 100
2, 55800, Note_on_c, 0, 108, 0
2, 55920, Note_on_c, 0, 108, 100
2, 56040, Note_on_c, 0, 108, 0
2, 56160, Note_on_c, 0, 108, 100
2, 56280, Note_on_c, 0, 108, 0
2, 56400, Note_on_c, 0, 108, 100
2, 57204, Note_on_c, 0, 108, 0
2, 57360, Note_on_c, 0, 108, 100
2, 57940, Note_on_c, 0, 108, 0
2, 58080, Note_on_c, 0, 108, 100
2, 58440, Note_on_c, 0, 108, 0
2, 58560, Note_on_c, 0, 108, 100
2, 59372, Note_on_c, 0, 108, 0
2, 59520, Note_on_c, 0, 108, 100
2, 60240, Note_on_c, 0, 108, 0
2, 60450, Note_on_c, 0, 105, 0
2, 60450, Note_on_c, 0, 93, 0
2, 60450, Note_on_c, 0, 69, 0
2, 60450, Note_on_c, 0, 81, 0
2, 60450, Note_on_c, 0, 103, 0
2, 60450, Note_on_c, 0, 91, 0
2, 60450, Note_on_c, 0, 79, 0
2, 60450, Note_on_c, 0, 67, 0
2, 60450, Note_on_c, 0, 106, 0
2, 60450, Note_on_c, 0, 94, 0
2, 60450, Note_on_c, 0, 70, 0
2, 60450, Note_on_c, 0, 82, 0
2, 60480, Note_on_c, 0, 97, 0
2, 60480, Note_on_c, 0, 99, 0
2, 60480, Note_on_c, 0, 85, 0
2, 60480, Note_on_c, 0, 87, 0
2, 60480, Note_on_c, 0, 72, 0
2, 60480, Note_on_c, 0, 74, 0
2, 60480, Note_on_c, 0, 61, 0
2, 60480, Note_on_c, 0, 108, 100
2, 61274, Note_on_c, 0, 108, 0
2, 61680, Note_on_c, 0, 108, 100
2, 61834, Note_on_c, 0, 108, 0
2, 61920, Note_on_c, 0, 108, 100
2, 62074, Note_on_c, 0, 108, 0
2, 62160, Note_on_c, 0, 108, 100
2, 62220, Note_on_c, 0, 108, 0
2, 62400, Note_on_c, 0, 108, 100
2, 62766, Note_on_c, 0, 108, 0
2, 62880, Note_on_c, 0, 108, 100
2, 63120, Note_on_c, 0, 108, 0
2, 63360, Note_on_c, 0, 108, 100
2, 63540, Note_on_c, 0, 108, 0
2, 63600, Note_on_c, 0, 108, 100
2, 63734, Note_on_c, 0, 108, 0
2, 63840, Note_on_c, 0, 108, 100
2, 63900, Note_on_c, 0, 108, 0
2, 64016, Note_on_c, 0, 108, 100
2, 64938, Note_on_c, 0, 108, 0
2, 65040, Note_on_c, 0, 108, 100
2, 65100, Note_on_c, 0, 108, 0
2, 65152, Note_on_c, 0, 108, 100
2, 65638, Note_on_c, 0, 108, 0
2, 65760, Note_on_c, 0, 108, 100
2, 66120, Note_on_c, 0, 108, 0
2, 66210, Note_on_c, 0, 106, 100
2, 66210, Note_on_c, 0, 94, 100
2, 66210, Note_on_c, 0, 70, 100
2, 66210, Note_on_c, 0, 82, 100
2, 66240, Text_t, "[play]"
2, 66240, Text_t, "bass_on"
2, 66240, Text_t, "drum_allbeat"
2, 66240, Note_on_c, 0, 100, 100
2, 66240, Note_on_c, 0, 98, 100
2, 66240, Note_on_c, 0, 87, 100
2, 66240, Note_on_c, 0, 85, 100
2, 66240, Note_on_c, 0, 74, 100
2, 66240, Note_on_c, 0, 73, 100
2, 66240, Note_on_c, 0, 62, 100
2, 66240, Note_on_c, 0, 108, 100
2, 66480, Note_on_c, 0, 100, 0
2, 66480, Note_on_c, 0, 98, 0
2, 66480, Note_on_c, 0, 87, 0
2, 66480, Note_on_c, 0, 85, 0
2, 66480, Note_on_c, 0, 74, 0
2, 66480, Note_on_c, 0, 73, 0
2, 66480, Note_on_c, 0, 62, 0
2, 66720, Note_on_c, 0, 100, 100
2, 66720, Note_on_c, 0, 98, 100
2, 66720, Note_on_c, 0, 87, 100
2, 66720, Note_on_c, 0, 85, 100
2, 66720, Note_on_c, 0, 73, 100
2, 66720, Note_on_c, 0, 74, 100
2, 66720, Note_on_c, 0, 62, 100
2, 66960, Note_on_c, 0, 100, 0
2, 66960, Note_on_c, 0, 98, 0
2, 66960, Note_on_c, 0, 87, 0
2, 66960, Note_on_c, 0, 85, 0
2, 66960, Note_on_c, 0, 73, 0
2, 66960, Note_on_c, 0, 74, 0
2, 66960, Note_on_c, 0, 62, 0
2, 67020, Note_on_c, 0, 108, 0
2, 67200, Note_on_c, 0, 100, 100
2, 67200, Note_on_c, 0, 98, 100
2, 67200, Note_on_c, 0, 87, 100
2, 67200, Note_on_c, 0, 85, 100
2, 67200, Note_on_c, 0, 73, 100
2, 67200, Note_on_c, 0, 74, 100
2, 67200, Note_on_c, 0, 62, 100
2, 67200, Note_on_c, 0, 108, 100
2, 67440, Note_on_c, 0, 100, 0
2, 67440, Note_on_c, 0, 98, 0
2, 67440, Note_on_c, 0, 87, 0
2, 67440, Note_on_c, 0, 85, 0
2, 67440, Note_on_c, 0, 73, 0
2, 67440, Note_on_c, 0, 74, 0
2, 67440, Note_on_c, 0, 62, 0
2, 67680, Note_on_c, 0, 100, 100
2, 67680, Note_on_c, 0, 98, 100
2, 67680, Note_on_c, 0, 87, 100
2, 67680, Note_on_c, 0, 85, 100
2, 67680, Note_on_c, 0, 73, 100
2, 67680, Note_on_c, 0, 74, 100
2, 67680, Note_on_c, 0, 62, 100
2, 67920, Note_on_c, 0, 100, 0
2, 67920, Note_on_c, 0, 98, 0
2, 67920, Note_on_c, 0, 87, 0
2, 67920, Note_on_c, 0, 85, 0
2, 67920, Note_on_c, 0, 73, 0
2, 67920, Note_on_c, 0, 74, 0
2, 67920, Note_on_c, 0, 62, 0
2, 68060, Note_on_c, 0, 108, 0
2, 68160, Note_on_c, 0, 100, 100
2, 68160, Note_on_c, 0, 98, 100
2, 68160, Note_on_c, 0, 87, 100
2, 68160, Note_on_c, 0, 85, 100
2, 68160, Note_on_c, 0, 73, 100
2, 68160, Note_on_c, 0, 74, 100
2, 68160, Note_on_c, 0, 62, 100
2, 68160, Note_on_c, 0, 108, 100
2, 68400, Note_on_c, 0, 100, 0
2, 68400, Note_on_c, 0, 98, 0
2, 68400, Note_on_c, 0, 87, 0
2, 68400, Note_on_c, 0, 85, 0
2, 68400, Note_on_c, 0, 73, 0
2, 68400, Note_on_c, 0, 74, 0
2, 68400, Note_on_c, 0, 62, 0
2, 68640, Note_on_c, 0, 100, 100
2, 68640, Note_on_c, 0, 98, 100
2, 68640, Note_on_c, 0, 87, 100
2, 68640, Note_on_c, 0, 85, 100
2, 68640, Note_on_c, 0, 73, 100
2, 68640, Note_on_c, 0, 74, 100
2, 68640, Note_on_c, 0, 62, 100
2, 68880, Note_on_c, 0, 100, 0
2, 68880, Note_on_c, 0, 98, 0
2, 68880, Note_on_c, 0, 87, 0
2, 68880, Note_on_c, 0, 85, 0
2, 68880, Note_on_c, 0, 73, 0
2, 68880, Note_on_c, 0, 74, 0
2, 68880, Note_on_c, 0, 62, 0
2, 69000, Note_on_c, 0, 108, 0
2, 69120, Note_on_c, 0, 100, 100
2, 69120, Note_on_c, 0, 98, 100
2, 69120, Note_on_c, 0, 87, 100
2, 69120, Note_on_c, 0, 85, 100
2, 69120, Note_on_c, 0, 73, 100
2, 69120, Note_on_c, 0, 74, 100
2, 69120, Note_on_c, 0, 62, 100
2, 69120, Note_on_c, 0, 108, 100
2, 69240, Note_on_c, 0, 108, 0
2, 69360, Note_on_c, 0, 100, 0
2, 69360, Note_on_c, 0, 98, 0
2, 69360, Note_on_c, 0, 87, 0
2, 69360, Note_on_c, 0, 85, 0
2, 69360, Note_on_c, 0, 73, 0
2, 69360, Note_on_c, 0, 74, 0
2, 69360, Note_on_c, 0, 62, 0
2, 69360, Note_on_c, 0, 108, 100
2, 69600, Note_on_c, 0, 100, 100
2, 69600, Note_on_c, 0, 98, 100
2, 69600, Note_on_c, 0, 87, 100
2, 69600, Note_on_c, 0, 85, 100
2, 69600, Note_on_c, 0, 73, 100
2, 69600, Note_on_c, 0, 74, 100
2, 69600, Note_on_c, 0, 62, 100
2, 69840, Note_on_c, 0, 100, 0
2, 69840, Note_on_c, 0, 98, 0
2, 69840, Note_on_c, 0, 87, 0
2, 69840, Note_on_c, 0, 85, 0
2, 69840, Note_on_c, 0, 73, 0
2, 69840, Note_on_c, 0, 74, 0
2, 69840, Note_on_c, 0, 62, 0
2, 69906, Note_on_c, 0, 108, 0
2, 70050, Note_on_c, 0, 105, 100
2, 70050, Note_on_c, 0, 93, 100
2, 70050, Note_on_c, 0, 69, 100
2, 70050, Note_on_c, 0, 81, 100
2, 70080, Text_t, "[chorus]"
2, 70080, Text_t, "[lighting (sweep)]"
2, 70080, Text_t, "drum_normal"
2, 70080, Note_on_c, 0, 96, 100
2, 70080, Note_on_c, 0, 98, 100
2, 70080, Note_on_c, 0, 84, 100
2, 70080, Note_on_c, 0, 86, 100
2, 70080, Note_on_c, 0, 72, 100
2, 70080, Note_on_c, 0, 73, 100
2, 70080, Note_on_c, 0, 60, 100
2, 70080, Note_on_c, 0, 108, 100
2, 70320, Note_on_c, 0, 96, 0
2, 70320, Note_on_c, 0, 98, 0
2, 70320, Note_on_c, 0, 84, 0
2, 70320, Note_on_c, 0, 86, 0
2, 70320, Note_on_c, 0, 72, 0
2, 70320, Note_on_c, 0, 73, 0
2, 70320, Note_on_c, 0, 60, 0
2, 70560, Note_on_c, 0, 96, 100
2, 70560, Note_on_c, 0, 98, 100
2, 70560, Note_on_c, 0, 84, 100
2, 70560, Note_on_c, 0, 86, 100
2, 70560, Note_on_c, 0, 72, 100
2, 70560, Note_on_c, 0, 73, 100
2, 70560, Note_on_c, 0, 60, 100
2, 70800, Note_on_c, 0, 96, 0
2, 70800, Note_on_c, 0, 98, 0
2, 70800, Note_on_c, 0, 84, 0
2, 70800, Note_on_c, 0, 86, 0
2, 70800, Note_on_c, 0, 72, 0
2, 70800, Note_on_c, 0, 73, 0
2, 70800, Note_on_c, 0, 60, 0
2, 70950, Note_on_c, 0, 108, 0
2, 71040, Note_on_c, 0, 108, 100
2, 71880, Note_on_c, 0, 108, 0
2, 72000, Note_on_c, 0, 96, 100
2, 72000, Note_on_c, 0, 98, 100
2, 72000, Note_on_c, 0, 84, 100
2, 72000, Note_on_c, 0, 86, 100
2, 72000, Note_on_c, 0, 72, 100
2, 72000, Note_on_c, 0, 73, 100
2, 72000, Note_on_c, 0, 60, 100
2, 72000, Note_on_c, 0, 108, 100
2, 72240, Note_on_c, 0, 96, 0
2, 72240, Note_on_c, 0, 98, 0
2, 72240, Note_on_c, 0, 84, 0
2, 72240, Note_on_c, 0, 86, 0
2, 72240, Note_on_c, 0, 72, 0
2, 72240, Note_on_c, 0, 73, 0
2, 72240, Note_on_c, 0, 60, 0
2, 72360, Note_on_c, 0, 108, 0
2, 72480, Note_on_c, 0, 96, 100
2, 72480, Note_on_c, 0, 98, 100
2, 72480, Note_on_c, 0, 84, 100
2, 72480, Note_on_c, 0, 86, 100
2, 72480, Note_on_c, 0, 72, 100
2, 72480, Note_on_c, 0, 73, 100
2, 72480, Note_on_c, 0, 60, 100
2, 72480, Note_on_c, 0, 108, 100
2, 72592, Note_on_c, 0, 108, 0
2, 72720, Note_on_c, 0, 96, 0
2, 72720, Note_on_c, 0, 98, 0
2, 72720, Note_on_c, 0, 84, 0
2, 72720, Note_on_c, 0, 86, 0
2, 72720, Note_on_c, 0, 72, 0
2, 72720, Note_on_c, 0, 73, 0
2, 72720, Note_on_c, 0, 60, 0
2, 72720, Note_on_c, 0, 108, 100
2, 73088, Note_on_c, 0, 108, 0
2, 73200, Note_on_c, 0, 97, 100
2, 73200, Note_on_c, 0, 85, 100
2, 73200, Note_on_c, 0, 72, 100
2, 73440, Note_on_c, 0, 72, 0
2, 73716, Note_on_c, 0, 108, 100
2, 73800, Note_on_c, 0, 108, 0
2, 73920, Note_on_c, 0, 97, 0
2, 73920, Note_on_c, 0, 85, 0
2, 73920, Note_on_c, 0, 97, 100
2, 73920, Note_on_c, 0, 99, 100
2, 73920, Note_on_c, 0, 85, 100
2, 73920, Note_on_c, 0, 86, 100
2, 73920, Note_on_c, 0, 73, 100
2, 73920, Note_on_c, 0, 61, 100
2, 73920, Note_on_c, 0, 108, 100
2, 74040, Note_on_c, 0, 108, 0
2, 74160, Note_on_c, 0, 97, 0
2, 74160, Note_on_c, 0, 99, 0
2, 74160, Note_on_c, 0, 85, 0
2, 74160, Note_on_c, 0, 86, 0
2, 74160, Note_on_c, 0, 73, 0
2, 74160, Note_on_c, 0, 61, 0
2, 74160, Note_on_c, 0, 108, 100
2, 74280, Note_on_c, 0, 108, 0
2, 74400, Note_on_c, 0, 97, 100
2, 74400, Note_on_c, 0, 99, 100
2, 74400, Note_on_c, 0, 85, 100
2, 74400, Note_on_c, 0, 86, 100
2, 74400, Note_on_c, 0, 73, 100
2, 74400, Note_on_c, 0, 61, 100
2, 74400, Note_on_c, 0, 108, 100
2, 74520, Note_on_c, 0, 108, 0
2, 74640, Note_on_c, 0, 97, 0
2, 74640, Note_on_c, 0, 99, 0
2, 74640, Note_on_c, 0, 85, 0
2, 74640, Note_on_c, 0, 86, 0
2, 74640, Note_on_c, 0, 73, 0
2, 74640, Note_on_c, 0, 61, 0
2, 74640, Note_on_c, 0, 108, 100
2, 74760, Note_on_c, 0, 108, 0
2, 74880, Note_on_c, 0, 108, 100
2, 75000, Note_on_c, 0, 108, 0
2, 75360, Note_on_c, 0, 108, 100
2, 75480, Note_on_c, 0, 108, 0
2, 75600, Note_on_c, 0, 108, 100
2, 75658, Note_on_c, 0, 108, 0
2, 75840, Note_on_c, 0, 98, 100
2, 75840, Note_on_c, 0, 100, 100
2, 75840, Note_on_c, 0, 85, 100
2, 75840, Note_on_c, 0, 87, 100
2, 75840, Note_on_c, 0, 73, 100
2, 75840, Note_on_c, 0, 74, 100
2, 75840, Note_on_c, 0, 62, 100
2, 75840, Note_on_c, 0, 108, 100
2, 75968, Note_on_c, 0, 108, 0
2, 76080, Note_on_c, 0, 98, 0
2, 76080, Note_on_c, 0, 100, 0
2, 76080, Note_on_c, 0, 85, 0
2, 76080, Note_on_c, 0, 87, 0
2, 76080, Note_on_c, 0, 73, 0
2, 76080, Note_on_c, 0, 74, 0
2, 76080, Note_on_c, 0, 62, 0
2, 76080, Note_on_c, 0, 108, 100
2, 76320, Note_on_c, 0, 98, 100
2, 76320, Note_on_c, 0, 100, 100
2, 76320, Note_on_c, 0, 85, 100
2, 76320, Note_on_c, 0, 87, 100
2, 76320, Note_on_c, 0, 73, 100
2, 76320, Note_on_c, 0, 74, 100
2, 76320, Note_on_c, 0, 62, 100
2, 76424, Note_on_c, 0, 108, 0
2, 76560, Note_on_c, 0, 98, 0
2, 76560, Note_on_c, 0, 100, 0
2, 76560, Note_on_c, 0, 85, 0
2, 76560, Note_on_c, 0, 87, 0
2, 76560, Note_on_c, 0, 73, 0
2, 76560, Note_on_c, 0, 74, 0
2, 76560, Note_on_c, 0, 62, 0
2, 76560, Note_on_c, 0, 108, 100
2, 76920, Note_on_c, 0, 108, 0
2, 77040, Note_on_c, 0, 108, 100
2, 77390, Note_on_c, 0, 108, 0
2, 77760, Note_on_c, 0, 96, 100
2, 77760, Note_on_c, 0, 98, 100
2, 77760, Note_on_c, 0, 84, 100
2, 77760, Note_on_c, 0, 86, 100
2, 77760, Note_on_c, 0, 72, 100
2, 77760, Note_on_c, 0, 73, 100
2, 77760, Note_on_c, 0, 60, 100
2, 77760, Note_on_c, 0, 108, 100
2, 78000, Note_on_c, 0, 96, 0
2, 78000, Note_on_c, 0, 98, 0
2, 78000, Note_on_c, 0, 84, 0
2, 78000, Note_on_c, 0, 86, 0
2, 78000, Note_on_c, 0, 72, 0
2, 78000, Note_on_c, 0, 73, 0
2, 78000, Note_on_c, 0, 60, 0
2, 78240, Note_on_c, 0, 96, 100
2, 78240, Note_on_c, 0, 98, 100
2, 78240, Note_on_c, 0, 84, 100
2, 78240, Note_on_c, 0, 86, 100
2, 78240, Note_on_c, 0, 72, 100
2, 78240, Note_on_c, 0, 73, 100
2, 78240, Note_on_c, 0, 60, 100
2, 78480, Note_on_c, 0, 96, 0
2, 78480, Note_on_c, 0, 98, 0
2, 78480, Note_on_c, 0, 84, 0
2, 78480, Note_on_c, 0, 86, 0
2, 78480, Note_on_c, 0, 72, 0
2, 78480, Note_on_c, 0, 73, 0
2, 78480, Note_on_c, 0, 60, 0
2, 78600, Note_on_c, 0, 108, 0
2, 78720, Note_on_c, 0, 108, 100
2, 79560, Note_on_c, 0, 108, 0
2, 79680, Note_on_c, 0, 96, 100
2, 79680, Note_on_c, 0, 98, 100
2, 79680, Note_on_c, 0, 84, 100
2, 79680, Note_on_c, 0, 86, 100
2, 79680, Note_on_c, 0, 72, 100
2, 79680, Note_on_c, 0, 73, 100
2, 79680, Note_on_c, 0, 60, 100
2, 79680, Note_on_c, 0, 108, 100
2, 79920, Note_on_c, 0, 96, 0
2, 79920, Note_on_c, 0, 98, 0
2, 79920, Note_on_c, 0, 84, 0
2, 79920, Note_on_c, 0, 86, 0
2, 79920, Note_on_c, 0, 72, 0
2, 79920, Note_on_c, 0, 73, 0
2, 79920, Note_on_c, 0, 60, 0
2, 80040, Note_on_c, 0, 108, 0
2, 80160, Note_on_c, 0, 96, 100
2, 80160, Note_on_c, 0, 98, 100
2, 80160, Note_on_c, 0, 84, 100
2, 80160, Note_on_c, 0, 86, 100
2, 80160, Note_on_c, 0, 72, 100
2, 80160, Note_on_c, 0, 73, 100
2, 80160, Note_on_c, 0, 60, 100
2, 80160, Note_on_c, 0, 108, 100
2, 80272, Note_on_c, 0, 108, 0
2, 80400, Note_on_c, 0, 96, 0
2, 80400, Note_on_c, 0, 98, 0
2, 80400, Note_on_c, 0, 84, 0
2, 80400, Note_on_c, 0, 86, 0
2, 80400, Note_on_c, 0, 72, 0
2, 80400, Note_on_c, 0, 73, 0
2, 80400, Note_on_c, 0, 60, 0
2, 80400, Note_on_c, 0, 108, 100
2, 80768, Note_on_c, 0, 108, 0
2, 80880, Note_on_c, 0, 97, 100
2, 80880, Note_on_c, 0, 85, 100
2, 80880, Note_on_c, 0, 72, 100
2, 81120, Note_on_c, 0, 72, 0
2, 81354, Note_on_c, 0, 108, 100
2, 81496, Note_on_c, 0, 108, 0
2, 81600, Note_on_c, 0, 97, 0
2, 81600, Note_on_c, 0, 85, 0
2, 81600, Note_on_c, 0, 97, 100
2, 81600, Note_on_c, 0, 99, 100
2, 81600, Note_on_c, 0, 85, 100
2, 81600, Note_on_c, 0, 86, 100
2, 81600, Note_on_c, 0, 73, 100
2, 81600, Note_on_c, 0, 61, 100
2, 81600, Note_on_c, 0, 108, 100
2, 81760, Note_on_c, 0, 108, 0
2, 81840, Note_on_c, 0, 97, 0
2, 81840, Note_on_c, 0, 99, 0
2, 81840, Note_on_c, 0, 85, 0
2, 81840, Note_on_c, 0, 86, 0
2, 81840, Note_on_c, 0, 73, 0
2, 81840, Note_on_c, 0, 61, 0
2, 81840, Note_on_c, 0, 108, 100
2, 81960, Note_on_c, 0, 108, 0
2, 82080, Note_on_c, 0, 97, 100
2, 82080, Note_on_c, 0, 99, 100
2, 82080, Note_on_c, 0, 85, 100
2, 82080, Note_on_c, 0, 86, 100
2, 82080, Note_on_c, 0, 73, 100
2, 82080, Note_on_c, 0, 61, 100
2, 82080, Note_on_c, 0, 108, 100
2, 82240, Note_on_c, 0, 108, 0
2, 82320, Note_on_c, 0, 97, 0
2, 82320, Note_on_c, 0, 99, 0
2, 82320, Note_on_c, 0, 85, 0
2, 82320, Note_on_c, 0, 86, 0
2, 82320, Note_on_c, 0, 73, 0
2, 82320, Note_on_c, 0, 61, 0
2, 82320, Note_on_c, 0, 108, 100
2, 82440, Note_on_c, 0, 108, 0
2, 82560, Note_on_c, 0, 108, 100
2, 82680, Note_on_c, 0, 108, 0
2, 83040, Note_on_c, 0, 108, 100
2, 83394, Note_on_c, 0, 108, 0
2, 83490, Note_on_c, 0, 103, 100
2, 83490, Note_on_c, 0, 91, 100
2, 83490, Note_on_c, 0, 79, 100
2, 83490, Note_on_c, 0, 67, 100
2, 83520, Note_on_c, 0, 98, 100
2, 83520, Note_on_c, 0, 100, 100
2, 83520, Note_on_c, 0, 85, 100
2, 83520, Note_on_c, 0, 87, 100
2, 83520, Note_on_c, 0, 73, 100
2, 83520, Note_on_c, 0, 74, 100
2, 83520, Note_on_c, 0, 62, 100
2, 83520, Note_on_c, 0, 108, 100
2, 83760, Note_on_c, 0, 98, 0
2, 83760, Note_on_c, 0, 100, 0
2, 83760, Note_on_c, 0, 85, 0
2, 83760, Note_on_c, 0, 87, 0
2, 83760, Note_on_c, 0, 73, 0
2, 83760, Note_on_c, 0, 74, 0
2, 83760, Note_on_c, 0, 62, 0
2, 83884, Note_on_c, 0, 108, 0
2, 84000, Note_on_c, 0, 97, 100
2, 84000, Note_on_c, 0, 85, 100
2, 84012, Note_on_c, 0, 108, 100
2, 84240, Note_on_c, 0, 97, 0
2, 84240, Note_on_c, 0, 85, 0
2, 84372, Note_on_c, 0, 108, 0
2, 84480, Text_t, "sing_off"
2, 84480, Text_t, "[verse]"
2, 84480, Text_t, "wail_off"
2, 84480, Note_on_c, 0, 96, 100
2, 84480, Note_on_c, 0, 98, 100
2, 84480, Note_on_c, 0, 84, 100
2, 84480, Note_on_c, 0, 86, 100
2, 84480, Note_on_c, 0, 72, 100
2, 84480, Note_on_c, 0, 73, 100
2, 84480, Note_on_c, 0, 60, 100
2, 84510, Note_on_c, 0, 108, 100
2, 84720, Note_on_c, 0, 96, 0
2, 84720, Note_on_c, 0, 98, 0
2, 84720, Note_on_c, 0, 84, 0
2, 84720, Note_on_c, 0, 86, 0
2, 84720, Note_on_c, 0, 72, 0
2, 84720, Note_on_c, 0, 73, 0
2, 84720, Note_on_c, 0, 60, 0
2, 84848, Note_on_c, 0, 108, 0
2, 84960, Note_on_c, 0, 96, 100
2, 84960, Note_on_c, 0, 98, 100
2, 84960, Note_on_c, 0, 84, 100
2, 84960, Note_on_c, 0, 86, 100
2, 84960, Note_on_c, 0, 72, 100
2, 84960, Note_on_c, 0, 73, 100
2, 84960, Note_on_c, 0, 60, 100
2, 85200, Note_on_c, 0, 96, 0
2, 85200, Note_on_c, 0, 98, 0
2, 85200, Note_on_c, 0, 84, 0
2, 85200, Note_on_c, 0, 86, 0
2, 85200, Note_on_c, 0, 72, 0
2, 85200, Note_on_c, 0, 73, 0
2, 85200, Note_on_c, 0, 60, 0
2, 85410, Note_on_c, 0, 106, 0
2, 85410, Note_on_c, 0, 94, 0
2, 85410, Note_on_c, 0, 70, 0
2, 85410, Note_on_c, 0, 82, 0
2, 85410, Note_on_c, 0, 105, 0
2, 85410, Note_on_c, 0, 93, 0
2, 85410, Note_on_c, 0, 69, 0
2, 85410, Note_on_c, 0, 81, 0
2, 85410, Note_on_c, 0, 103, 0
2, 85410, Note_on_c, 0, 91, 0
2, 85410, Note_on_c, 0, 79, 0
2, 85410, Note_on_c, 0, 67, 0
2, 87394, Note_on_c, 0, 108, 100
2, 88218, Note_on_c, 0, 108, 0
2, 88290, Note_on_c, 0, 105, 100
2, 88290, Note_on_c, 0, 93, 100
2, 88290, Note_on_c, 0, 69, 100
2, 88290, Note_on_c, 0, 81, 100
2, 88320, Note_on_c, 0, 96, 100
2, 88320, Note_on_c, 0, 98, 100
2, 88320, Note_on_c, 0, 84, 100
2, 88320, Note_on_c, 0, 86, 100
2, 88320, Note_on_c, 0, 72, 100
2, 88320, Note_on_c, 0, 73, 100
2, 88320, Note_on_c, 0, 60, 100
2, 88560, Note_on_c, 0, 96, 0
2, 88560, Note_on_c, 0, 98, 0
2, 88560, Note_on_c, 0, 84, 0
2, 88560, Note_on_c, 0, 86, 0
2, 88560, Note_on_c, 0, 72, 0
2, 88560, Note_on_c, 0, 73, 0
2, 88560, Note_on_c, 0, 60, 0
2, 88800, Note_on_c, 0, 96, 100
2, 88800, Note_on_c, 0, 98, 100
2, 88800, Note_on_c, 0, 84, 100
2, 88800, Note_on_c, 0, 86, 100
2, 88800, Note_on_c, 0, 72, 100
2, 88800, Note_on_c, 0, 73, 100
2, 88800, Note_on_c, 0, 60, 100
2, 89040, Note_on_c, 0, 96, 0
2, 89040, Note_on_c, 0, 98, 0
2, 89040, Note_on_c, 0, 84, 0
2, 89040, Note_on_c, 0, 86, 0
2, 89040, Note_on_c, 0, 72, 0
2, 89040, Note_on_c, 0, 73, 0
2, 89040, Note_on_c, 0, 60, 0
2, 90210, Note_on_c, 0, 103, 100
2, 90210, Note_on_c, 0, 91, 100
2, 90210, Note_on_c, 0, 79, 100
2, 90210, Note_on_c, 0, 67, 100
2, 90240, Note_on_c, 0, 100, 100
2, 90240, Note_on_c, 0, 87, 100
2, 90240, Note_on_c, 0, 74, 100
2, 90240, Note_on_c, 0, 62, 100
2, 90480, Note_on_c, 0, 100, 0
2, 90480, Note_on_c, 0, 87, 0
2, 90480, Note_on_c, 0, 74, 0
2, 90480, Note_on_c, 0, 62, 0
2, 90480, Note_on_c, 0, 99, 100
2, 90480, Note_on_c, 0, 86, 100
2, 90720, Note_on_c, 0, 99, 0
2, 90720, Note_on_c, 0, 86, 0
2, 90720, Note_on_c, 0, 98, 100
2, 90720, Note_on_c, 0, 85, 100
2, 90960, Note_on_c, 0, 98, 0
2, 90960, Note_on_c, 0, 85, 0
2, 91200, Note_on_c, 0, 97, 100
2, 91200, Note_on_c, 0, 85, 100
2, 91200, Note_on_c, 0, 73, 100
2, 91200, Note_on_c, 0, 61, 100
2, 91440, Note_on_c, 0, 97, 0
2, 91440, Note_on_c, 0, 85, 0
2, 91440, Note_on_c, 0, 73, 0
2, 91440, Note_on_c, 0, 61, 0
2, 91440, Note_on_c, 0, 96, 100
2, 91440, Note_on_c, 0, 84, 100
2, 91440, Note_on_c, 0, 72, 100
2, 91680, Note_on_c, 0, 96, 0
2, 91680, Note_on_c, 0, 84, 0
2, 91680, Note_on_c, 0, 72, 0
2, 92014, Note_on_c, 0, 108, 100
2, 92074, Note_on_c, 0, 108, 0
2, 92130, Note_on_c, 0, 105, 0
2, 92130, Note_on_c, 0, 93, 0
2, 92130, Note_on_c, 0, 69, 0
2, 92130, Note_on_c, 0, 81, 0
2, 92130, Note_on_c, 0, 103, 0
2, 92130, Note_on_c, 0, 91, 0
2, 92130, Note_on_c, 0, 79, 0
2, 92130, Note_on_c, 0, 67, 0
2, 92130, Note_on_c, 0, 106, 100
2, 92130, Note_on_c, 0, 94, 100
2, 92130, Note_on_c, 0, 70, 100
2, 92130, Note_on_c, 0, 82, 100
2, 92160, Text_t, "sing_on"
2, 92160, Note_on_c, 0, 96, 100
2, 92160, Note_on_c, 0, 98, 100
2, 92160, Note_on_c, 0, 84, 100
2, 92160, Note_on_c, 0, 86, 100
2, 92160, Note_on_c, 0, 72, 100
2, 92160, Note_on_c, 0, 73, 100
2, 92160, Note_on_c, 0, 60, 100
2, 92184, Note_on_c, 0, 108, 100
2, 92400, Note_on_c, 0, 96, 0
2, 92400, Note_on_c, 0, 98, 0
2, 92400, Note_on_c, 0, 84, 0
2, 92400, Note_on_c, 0, 86, 0
2, 92400, Note_on_c, 0, 72, 0
2, 92400, Note_on_c, 0, 73, 0
2, 92400, Note_on_c, 0, 60, 0
2, 92586, Note_on_c, 0, 108, 0
2, 92640, Note_on_c, 0, 96, 100
2, 92640, Note_on_c, 0, 98, 100
2, 92640, Note_on_c, 0, 84, 100
2, 92640, Note_on_c, 0, 86, 100
2, 92640, Note_on_c, 0, 72, 100
2, 92640, Note_on_c, 0, 73, 100
2, 92640, Note_on_c, 0, 60, 100
2, 92640, Note_on_c, 0, 108, 100
2, 92880, Note_on_c, 0, 96, 0
2, 92880, Note_on_c, 0, 98, 0
2, 92880, Note_on_c, 0, 84, 0
2, 92880, Note_on_c, 0, 86, 0
2, 92880, Note_on_c, 0, 72, 0
2, 92880, Note_on_c, 0, 73, 0
2, 92880, Note_on_c, 0, 60, 0
2, 92880, Note_on_c, 0, 108, 0
2, 92964, Note_on_c, 0, 108, 100
2, 93024, Note_on_c, 0, 108, 0
2, 93120, Note_on_c, 0, 108, 100
2, 93528, Note_on_c, 0, 108, 0
2, 93600, Note_on_c, 0, 108, 100
2, 93780, Note_on_c, 0, 108, 0
2, 93840, Note_on_c, 0, 108, 100
2, 94454, Note_on_c, 0, 108, 0
2, 94560, Note_on_c, 0, 108, 100
2, 94952, Note_on_c, 0, 108, 0
2, 95040, Note_on_c, 0, 108, 100
2, 95162, Note_on_c, 0, 108, 0
2, 95280, Note_on_c, 0, 108, 100
2, 95402, Note_on_c, 0, 108, 0
2, 95520, Note_on_c, 0, 108, 100
2, 95880, Note_on_c, 0, 108, 0
2, 96000, Note_on_c, 0, 96, 100
2, 96000, Note_on_c, 0, 98, 100
2, 96000, Note_on_c, 0, 84, 100
2, 96000, Note_on_c, 0, 86, 100
2, 96000, Note_on_c, 0, 72, 100
2, 96000, Note_on_c, 0, 73, 100
2, 96000, Note_on_c, 0, 60, 100
2, 96000, Note_on_c, 0, 108, 100
2, 96240, Note_on_c, 0, 96, 0
2, 96240, Note_on_c, 0, 98, 0
2, 96240, Note_on_c, 0, 84, 0
2, 96240, Note_on_c, 0, 86, 0
2, 96240, Note_on_c, 0, 72, 0
2, 96240, Note_on_c, 0, 73, 0
2, 96240, Note_on_c, 0, 60, 0
2, 96480, Note_on_c, 0, 96, 100
2, 96480, Note_on_c, 0, 98, 100
2, 96480, Note_on_c, 0, 84, 100
2, 96480, Note_on_c, 0, 86, 100
2, 96480, Note_on_c, 0, 72, 100
2, 96480, Note_on_c, 0, 73, 100
2, 96480, Note_on_c, 0, 60, 100
2, 96720, Note_on_c, 0, 96, 0
2, 96720, Note_on_c, 0, 98, 0
2, 96720, Note_on_c, 0, 84, 0
2, 96720, Note_on_c, 0, 86, 0
2, 96720, Note_on_c, 0, 72, 0
2, 96720, Note_on_c, 0, 73, 0
2, 96720, Note_on_c, 0, 60, 0
2, 96794, Note_on_c, 0, 108, 0
2, 97890, Note_on_c, 0, 103, 100
2, 97890, Note_on_c, 0, 91, 100
2, 97890, Note_on_c, 0, 79, 100
2, 97890, Note_on_c, 0, 67, 100
2, 97920, Note_on_c, 0, 100, 100
2, 97920, Note_on_c, 0, 87, 100
2, 97920, Note_on_c, 0, 74, 100
2, 97920, Note_on_c, 0, 62, 100
2, 98160, Note_on_c, 0, 100, 0
2, 98160, Note_on_c, 0, 87, 0
2, 98160, Note_on_c, 0, 74, 0
2, 98160, Note_on_c, 0, 62, 0
2, 98160, Note_on_c, 0, 99, 100
2, 98160, Note_on_c, 0, 86, 100
2, 98400, Note_on_c, 0, 99, 0
2, 98400, Note_on_c, 0, 86, 0
2, 98400, Note_on_c, 0, 98, 100
2, 98400, Note_on_c, 0, 85, 100
2, 98640, Note_on_c, 0, 98, 0
2, 98640, Note_on_c, 0, 85, 0
2, 98880, Note_on_c, 0, 97, 100
2, 98880, Note_on_c, 0, 85, 100
2, 98880, Note_on_c, 0, 73, 100
2, 98880, Note_on_c, 0, 61, 100
2, 99120, Note_on_c, 0, 97, 0
2, 99120, Note_on_c, 0, 85, 0
2, 99120, Note_on_c, 0, 73, 0
2, 99120, Note_on_c, 0, 61, 0
2, 99120, Note_on_c, 0, 96, 100
2, 99120, Note_on_c, 0, 84, 100
2, 99120, Note_on_c, 0, 72, 100
2, 99360, Note_on_c, 0, 96, 0
2, 99360, Note_on_c, 0, 84, 0
2, 99360, Note_on_c, 0, 72, 0
2, 99600, Note_on_c, 0, 108, 100
2, 99720, Note_on_c, 0, 108, 0
2, 99810, Note_on_c, 0, 106, 0
2, 99810, Note_on_c, 0, 94, 0
2, 99810, Note_on_c, 0, 70, 0
2, 99810, Note_on_c, 0, 82, 0
2, 99810, Note_on_c, 0, 103, 0
2, 99810, Note_on_c, 0, 91, 0
2, 99810, Note_on_c, 0, 79, 0
2, 99810, Note_on_c, 0, 67, 0
2, 99810, Note_on_c, 0, 105, 100
2, 99810, Note_on_c, 0, 93, 100
2, 99810, Note_on_c, 0, 69, 100
2, 99810, Note_on_c, 0, 81, 100
2, 99840, Note_on_c, 0, 96, 100
2, 99840, Note_on_c, 0, 98, 100
2, 99840, Note_on_c, 0, 84, 100
2, 99840, Note_on_c, 0, 86, 100
2, 99840, Note_on_c, 0, 72, 100
2, 99840, Note_on_c, 0, 73, 100
2, 99840, Note_on_c, 0, 60, 100
2, 99840, Note_on_c, 0, 108, 100
2, 100080, Note_on_c, 0, 96, 0
2, 100080, Note_on_c, 0, 98, 0
2, 100080, Note_on_c, 0, 84, 0
2, 100080, Note_on_c, 0, 86, 0
2, 100080, Note_on_c, 0, 72, 0
2, 100080, Note_on_c, 0, 73, 0
2, 100080, Note_on_c, 0, 60, 0
2, 100242, Note_on_c, 0, 108, 0
2, 100320, Note_on_c, 0, 96, 100
2, 100320, Note_on_c, 0, 98, 100
2, 100320, Note_on_c, 0, 84, 100
2, 100320, Note_on_c, 0, 86, 100
2, 100320, Note_on_c, 0, 72, 100
2, 100320, Note_on_c, 0, 73, 100
2, 100320, Note_on_c, 0, 60, 100
2, 100320, Note_on_c, 0, 108, 100
2, 100560, Note_on_c, 0, 96, 0
2, 100560, Note_on_c, 0, 98, 0
2, 100560, Note_on_c, 0, 84, 0
2, 100560, Note_on_c, 0, 86, 0
2, 100560, Note_on_c, 0, 72, 0
2, 100560, Note_on_c, 0, 73, 0
2, 100560, Note_on_c, 0, 60, 0
2, 100714, Note_on_c, 0, 108, 0
2, 100800, Note_on_c, 0, 108, 100
2, 100994, Note_on_c, 0, 108, 0
2, 101060, Note_on_c, 0, 108, 100
2, 101254, Note_on_c, 0, 108, 0
2, 101314, Note_on_c, 0, 108, 100
2, 101674, Note_on_c, 0, 108, 0
2, 101772, Note_on_c, 0, 108, 100
2, 102012, Note_on_c, 0, 108, 0
2, 102240, Note_on_c, 0, 108, 100
2, 102360, Note_on_c, 0, 108, 0
2, 102464, Note_on_c, 0, 108, 100
2, 102628, Note_on_c, 0, 108, 0
2, 102720, Note_on_c, 0, 108, 100
2, 103136, Note_on_c, 0, 108, 0
2, 103204, Note_on_c, 0, 108, 100
2, 103564, Note_on_c, 0, 108, 0
2, 103670, Note_on_c, 0, 108, 100
2, 103680, Note_on_c, 0, 98, 100
2, 103680, Note_on_c, 0, 100, 100
2, 103680, Note_on_c, 0, 85, 100
2, 103680, Note_on_c, 0, 87, 100
2, 103680, Note_on_c, 0, 73, 100
2, 103680, Note_on_c, 0, 74, 100
2, 103680, Note_on_c, 0, 62, 100
2, 103920, Note_on_c, 0, 98, 0
2, 103920, Note_on_c, 0, 100, 0
2, 103920, Note_on_c, 0, 85, 0
2, 103920, Note_on_c, 0, 87, 0
2, 103920, Note_on_c, 0, 73, 0
2, 103920, Note_on_c, 0, 74, 0
2, 103920, Note_on_c, 0, 62, 0
2, 104160, Note_on_c, 0, 98, 100
2, 104160, Note_on_c, 0, 100, 100
2, 104160, Note_on_c, 0, 85, 100
2, 104160, Note_on_c, 0, 87, 100
2, 104160, Note_on_c, 0, 73, 100
2, 104160, Note_on_c, 0, 74, 100
2, 104160, Note_on_c, 0, 62, 100
2, 104358, Note_on_c, 0, 108, 0
2, 104400, Note_on_c, 0, 98, 0
2, 104400, Note_on_c, 0, 100, 0
2, 104400, Note_on_c, 0, 85, 0
2, 104400, Note_on_c, 0, 87, 0
2, 104400, Note_on_c, 0, 73, 0
2, 104400, Note_on_c, 0, 74, 0
2, 104400, Note_on_c, 0, 62, 0
2, 105600, Note_on_c, 0, 100, 100
2, 105600, Note_on_c, 0, 87, 100
2, 105600, Note_on_c, 0, 74, 100
2, 105600, Note_on_c, 0, 62, 100
2, 105840, Note_on_c, 0, 100, 0
2, 105840, Note_on_c, 0, 87, 0
2, 105840, Note_on_c, 0, 74, 0
2, 105840, Note_on_c, 0, 62, 0
2, 105840, Note_on_c, 0, 99, 100
2, 105840, Note_on_c, 0, 86, 100
2, 106080, Note_on_c, 0, 99, 0
2, 106080, Note_on_c, 0, 86, 0
2, 106080, Note_on_c, 0, 98, 100
2, 106080, Note_on_c, 0, 85, 100
2, 106320, Note_on_c, 0, 98, 0
2, 106320, Note_on_c, 0, 85, 0
2, 106560, Note_on_c, 0, 97, 100
2, 106560, Note_on_c, 0, 85, 100
2, 106560, Note_on_c, 0, 73, 100
2, 106560, Note_on_c, 0, 61, 100
2, 106800, Note_on_c, 0, 97, 0
2, 106800, Note_on_c, 0, 85, 0
2, 106800, Note_on_c, 0, 73, 0
2, 106800, Note_on_c, 0, 61, 0
2, 106800, Note_on_c, 0, 96, 100
2, 106800, Note_on_c, 0, 84, 100
2, 106800, Note_on_c, 0, 72, 100
2, 107040, Note_on_c, 0, 96, 0
2, 107040, Note_on_c, 0, 84, 0
2, 107040, Note_on_c, 0, 72, 0
2, 107280, Note_on_c, 0, 108, 100
2, 107432, Note_on_c, 0, 108, 0
2, 107490, Note_on_c, 0, 105, 0
2, 107490, Note_on_c, 0, 93, 0
2, 107490, Note_on_c, 0, 69, 0
2, 107490, Note_on_c, 0, 81, 0
2, 107490, Note_on_c, 0, 106, 100
2, 107490, Note_on_c, 0, 94, 100
2, 107490, Note_on_c, 0, 70, 100
2, 107490, Note_on_c, 0, 82, 100
2, 107520, Note_on_c, 0, 97, 100
2, 107520, Note_on_c, 0, 99, 100
2, 107520, Note_on_c, 0, 85, 100
2, 107520, Note_on_c, 0, 86, 100
2, 107520, Note_on_c, 0, 73, 100
2, 107520, Note_on_c, 0, 61, 100
2, 107536, Note_on_c, 0, 108, 100
2, 107760, Note_on_c, 0, 97, 0
2, 107760, Note_on_c, 0, 99, 0
2, 107760, Note_on_c, 0, 85, 0
2, 107760, Note_on_c, 0, 86, 0
2, 107760, Note_on_c, 0, 73, 0
2, 107760, Note_on_c, 0, 61, 0
2, 107940, Note_on_c, 0, 108, 0
2, 108000, Note_on_c, 0, 97, 100
2, 108000, Note_on_c, 0, 99, 100
2, 108000, Note_on_c, 0, 85, 100
2, 108000, Note_on_c, 0, 86, 100
2, 108000, Note_on_c, 0, 73, 100
2, 108000, Note_on_c, 0, 61, 100
2, 108036, Note_on_c, 0, 108, 100
2, 108216, Note_on_c, 0, 108, 0
2, 108240, Note_on_c, 0, 97, 0
2, 108240, Note_on_c, 0, 99, 0
2, 108240, Note_on_c, 0, 85, 0
2, 108240, Note_on_c, 0, 86, 0
2, 108240, Note_on_c, 0, 73, 0
2, 108240, Note_on_c, 0, 61, 0
2, 108340, Note_on_c, 0, 108, 100
2, 108412, Note_on_c, 0, 108, 0
2, 108516, Note_on_c, 0, 108, 100
2, 108756, Note_on_c, 0, 108, 0
2, 108960, Note_on_c, 0, 108, 100
2, 109080, Note_on_c, 0, 108, 0
2, 109170, Note_on_c, 0, 108, 100
2, 109410, Note_on_c, 0, 106, 0
2, 109410, Note_on_c, 0, 94, 0
2, 109410, Note_on_c, 0, 70, 0
2, 109410, Note_on_c, 0, 82, 0
2, 109410, Note_on_c, 0, 105, 100
2, 109410, Note_on_c, 0, 93, 100
2, 109410, Note_on_c, 0, 69, 100
2, 109410, Note_on_c, 0, 81, 100
2, 109440, Note_on_c, 0, 98, 100
2, 109440, Note_on_c, 0, 100, 100
2, 109440, Note_on_c, 0, 85, 100
2, 109440, Note_on_c, 0, 87, 100
2, 109440, Note_on_c, 0, 73, 100
2, 109440, Note_on_c, 0, 74, 100
2, 109440, Note_on_c, 0, 62, 100
2, 109680, Note_on_c, 0, 98, 0
2, 109680, Note_on_c, 0, 100, 0
2, 109680, Note_on_c, 0, 85, 0
2, 109680, Note_on_c, 0, 87, 0
2, 109680, Note_on_c, 0, 73, 0
2, 109680, Note_on_c, 0, 74, 0
2, 109680, Note_on_c, 0, 62, 0
2, 109920, Note_on_c, 0, 98, 100
2, 109920, Note_on_c, 0, 100, 100
2, 109920, Note_on_c, 0, 85, 100
2, 109920, Note_on_c, 0, 87, 100
2, 109920, Note_on_c, 0, 73, 100
2, 109920, Note_on_c, 0, 74, 100
2, 109920, Note_on_c, 0, 62, 100
2, 110160, Note_on_c, 0, 98, 0
2, 110160, Note_on_c, 0, 100, 0
2, 110160, Note_on_c, 0, 85, 0
2, 110160, Note_on_c, 0, 87, 0
2, 110160, Note_on_c, 0, 73, 0
2, 110160, Note_on_c, 0, 74, 0
2, 110160, Note_on_c, 0, 62, 0
2, 110340, Note_on_c, 0, 108, 0
2, 110916, Note_on_c, 0, 108, 100
2, 111238, Note_on_c, 0, 108, 0
2, 111330, Note_on_c, 0, 105, 0
2, 111330, Note_on_c, 0, 93, 0
2, 111330, Note_on_c, 0, 69, 0
2, 111330, Note_on_c, 0, 81, 0
2, 111330, Note_on_c, 0, 106, 100
2, 111330, Note_on_c, 0, 94, 100
2, 111330, Note_on_c, 0, 70, 100
2, 111330, Note_on_c, 0, 82, 100
2, 111360, Note_on_c, 0, 60, 100
2, 111360, Note_on_c, 0, 96, 100
2, 111360, Note_on_c, 0, 98, 100
2, 111360, Note_on_c, 0, 84, 100
2, 111360, Note_on_c, 0, 86, 100
2, 111360, Note_on_c, 0, 73, 100
2, 111360, Note_on_c, 0, 72, 100
2, 111360, Note_on_c, 0, 108, 100
2, 111600, Note_on_c, 0, 60, 0
2, 111600, Note_on_c, 0, 96, 0
2, 111600, Note_on_c, 0, 98, 0
2, 111600, Note_on_c, 0, 84, 0
2, 111600, Note_on_c, 0, 86, 0
2, 111600, Note_on_c, 0, 73, 0
2, 111600, Note_on_c, 0, 72, 0
2, 111756, Note_on_c, 0, 108, 0
2, 111840, Note_on_c, 0, 60, 100
2, 111840, Note_on_c, 0, 96, 100
2, 111840, Note_on_c, 0, 98, 100
2, 111840, Note_on_c, 0, 84, 100
2, 111840, Note_on_c, 0, 86, 100
2, 111840, Note_on_c, 0, 72, 100
2, 111840, Note_on_c, 0, 73, 100
2, 111840, Note_on_c, 0, 108, 100
2, 112080, Note_on_c, 0, 60, 0
2, 112080, Note_on_c, 0, 96, 0
2, 112080, Note_on_c, 0, 98, 0
2, 112080, Note_on_c, 0, 84, 0
2, 112080, Note_on_c, 0, 86, 0
2, 112080, Note_on_c, 0, 72, 0
2, 112080, Note_on_c, 0, 73, 0
2, 112200, Note_on_c, 0, 108, 0
2, 112362, Note_on_c, 0, 108, 100
2, 112698, Note_on_c, 0, 108, 0
2, 112800, Note_on_c, 0, 108, 100
2, 113040, Note_on_c, 0, 108, 0
2, 113250, Note_on_c, 0, 103, 100
2, 113250, Note_on_c, 0, 91, 100
2, 113250, Note_on_c, 0, 79, 100
2, 113250, Note_on_c, 0, 67, 100
2, 113250, Note_on_c, 0, 105, 100
2, 113250, Note_on_c, 0, 93, 100
2, 113250, Note_on_c, 0, 69, 100
2, 113250, Note_on_c, 0, 81, 100
2, 113280, Text_t, "[idle]"
2, 113280, Text_t, "bass_off"
2, 113280, Note_on_c, 0, 97, 100
2, 113280, Note_on_c, 0, 99, 100
2, 113280, Note_on_c, 0, 85, 100
2, 113280, Note_on_c, 0, 87, 100
2, 113280, Note_on_c, 0, 72, 100
2, 113280, Note_on_c, 0, 74, 100
2, 113280, Note_on_c, 0, 61, 100
2, 113280, Note_on_c, 0, 108, 100
2, 116298, Note_on_c, 0, 108, 0
2, 117120, Note_on_c, 0, 108, 100
2, 117480, Note_on_c, 0, 108, 0
2, 117600, Note_on_c, 0, 108, 100
2, 117954, Note_on_c, 0, 108, 0
2, 118080, Note_on_c, 0, 108, 100
2, 118440, Note_on_c, 0, 108, 0
2, 118560, Note_on_c, 0, 108, 100
2, 118678, Note_on_c, 0, 108, 0
2, 118800, Note_on_c, 0, 108, 100
2, 119820, Note_on_c, 0, 108, 0
2, 120008, Note_on_c, 0, 108, 100
2, 120406, Note_on_c, 0, 108, 0
2, 120514, Note_on_c, 0, 108, 100
2, 120874, Note_on_c, 0, 108, 0
2, 120960, Note_on_c, 0, 108, 100
2, 121778, Note_on_c, 0, 108, 0
2, 121920, Note_on_c, 0, 108, 100
2, 122778, Note_on_c, 0, 108, 0
2, 122880, Note_on_c, 0, 108, 100
2, 123810, Note_on_c, 0, 106, 0
2, 123810, Note_on_c, 0, 94, 0
2, 123810, Note_on_c, 0, 70, 0
2, 123810, Note_on_c, 0, 82, 0
2, 123810, Note_on_c, 0, 103, 0
2, 123810, Note_on_c, 0, 91, 0
2, 123810, Note_on_c, 0, 79, 0
2, 123810, Note_on_c, 0, 67, 0
2, 123810, Note_on_c, 0, 105, 0
2, 123810, Note_on_c, 0, 93, 0
2, 123810, Note_on_c, 0, 69, 0
2, 123810, Note_on_c, 0, 81, 0
2, 123840, Note_on_c, 0, 97, 0
2, 123840, Note_on_c, 0, 99, 0
2, 123840, Note_on_c, 0, 85, 0
2, 123840, Note_on_c, 0, 87, 0
2, 123840, Note_on_c, 0, 72, 0
2, 123840, Note_on_c, 0, 74, 0
2, 123840, Note_on_c, 0, 61, 0
2, 123948, Note_on_c, 0, 108, 0
2, 124080, Note_on_c, 0, 108, 100
2, 124200, Note_on_c, 0, 108, 0
2, 124320, Note_on_c, 0, 108, 100
2, 124440, Note_on_c, 0, 108, 0
2, 124560, Note_on_c, 0, 108, 100
2, 124680, Note_on_c, 0, 108, 0
2, 124800, Note_on_c, 0, 108, 100
2, 125170, Note_on_c, 0, 108, 0
2, 125280, Note_on_c, 0, 108, 100
2, 125626, Note_on_c, 0, 108, 0
2, 125760, Note_on_c, 0, 108, 100
2, 126098, Note_on_c, 0, 108, 0
2, 126240, Note_on_c, 0, 108, 100
2, 126360, Note_on_c, 0, 108, 0
2, 126480, Note_on_c, 0, 108, 100
2, 127380, Note_on_c, 0, 108, 0
2, 127674, Note_on_c, 0, 108, 100
2, 128026, Note_on_c, 0, 108, 0
2, 128160, Note_on_c, 0, 108, 100
2, 128472, Note_on_c, 0, 108, 0
2, 128610, Note_on_c, 0, 105, 100
2, 128610, Note_on_c, 0, 93, 100
2, 128610, Note_on_c, 0, 69, 100
2, 128610, Note_on_c, 0, 81, 100
2, 128640, Text_t, "[play]"
2, 128640, Text_t, "bass_on"
2, 128640, Text_t, "drum_allbeat"
2, 128640, Note_on_c, 0, 100, 100
2, 128640, Note_on_c, 0, 98, 100
2, 128640, Note_on_c, 0, 87, 100
2, 128640, Note_on_c, 0, 85, 100
2, 128640, Note_on_c, 0, 73, 100
2, 128640, Note_on_c, 0, 74, 100
2, 128640, Note_on_c, 0, 62, 100
2, 128640, Note_on_c, 0, 108, 100
2, 128880, Note_on_c, 0, 100, 0
2, 128880, Note_on_c, 0, 98, 0
2, 128880, Note_on_c, 0, 87, 0
2, 128880, Note_on_c, 0, 85, 0
2, 128880, Note_on_c, 0, 73, 0
2, 128880, Note_on_c, 0, 74, 0
2, 128880, Note_on_c, 0, 62, 0
2, 129120, Note_on_c, 0, 100, 100
2, 129120, Note_on_c, 0, 98, 100
2, 129120, Note_on_c, 0, 87, 100
2, 129120, Note_on_c, 0, 85, 100
2, 129120, Note_on_c, 0, 73, 100
2, 129120, Note_on_c, 0, 74, 100
2, 129120, Note_on_c, 0, 62, 100
2, 129360, Note_on_c, 0, 100, 0
2, 129360, Note_on_c, 0, 98, 0
2, 129360, Note_on_c, 0, 87, 0
2, 129360, Note_on_c, 0, 85, 0
2, 129360, Note_on_c, 0, 73, 0
2, 129360, Note_on_c, 0, 74, 0
2, 129360, Note_on_c, 0, 62, 0
2, 129432, Note_on_c, 0, 108, 0
2, 129600, Note_on_c, 0, 100, 100
2, 129600, Note_on_c, 0, 98, 100
2, 129600, Note_on_c, 0, 87, 100
2, 129600, Note_on_c, 0, 85, 100
2, 129600, Note_on_c, 0, 73, 100
2, 129600, Note_on_c, 0, 74, 100
2, 129600, Note_on_c, 0, 62, 100
2, 129600, Note_on_c, 0, 108, 100
2, 129840, Note_on_c, 0, 100, 0
2, 129840, Note_on_c, 0, 98, 0
2, 129840, Note_on_c, 0, 87, 0
2, 129840, Note_on_c, 0, 85, 0
2, 129840, Note_on_c, 0, 73, 0
2, 129840, Note_on_c, 0, 74, 0
2, 129840, Note_on_c, 0, 62, 0
2, 130080, Note_on_c, 0, 100, 100
2, 130080, Note_on_c, 0, 98, 100
2, 130080, Note_on_c, 0, 87, 100
2, 130080, Note_on_c, 0, 85, 100
2, 130080, Note_on_c, 0, 73, 100
2, 130080, Note_on_c, 0, 74, 100
2, 130080, Note_on_c, 0, 62, 100
2, 130320, Note_on_c, 0, 100, 0
2, 130320, Note_on_c, 0, 98, 0
2, 130320, Note_on_c, 0, 87, 0
2, 130320, Note_on_c, 0, 85, 0
2, 130320, Note_on_c, 0, 73, 0
2, 130320, Note_on_c, 0, 74, 0
2, 130320, Note_on_c, 0, 62, 0
2, 130426, Note_on_c, 0, 108, 0
2, 130560, Note_on_c, 0, 100, 100
2, 130560, Note_on_c, 0, 98, 100
2, 130560, Note_on_c, 0, 87, 100
2, 130560, Note_on_c, 0, 85, 100
2, 130560, Note_on_c, 0, 73, 100
2, 130560, Note_on_c, 0, 74, 100
2, 130560, Note_on_c, 0, 62, 100
2, 130560, Note_on_c, 0, 108, 100
2, 130800, Note_on_c, 0, 100, 0
2, 130800, Note_on_c, 0, 98, 0
2, 130800, Note_on_c, 0, 87, 0
2, 130800, Note_on_c, 0, 85, 0
2, 130800, Note_on_c, 0, 73, 0
2, 130800, Note_on_c, 0, 74, 0
2, 130800, Note_on_c, 0, 62, 0
2, 131040, Note_on_c, 0, 100, 100
2, 131040, Note_on_c, 0, 98, 100
2, 131040, Note_on_c, 0, 87, 100
2, 131040, Note_on_c, 0, 85, 100
2, 131040, Note_on_c, 0, 73, 100
2, 131040, Note_on_c, 0, 74, 100
2, 131040, Note_on_c, 0, 62, 100
2, 131280, Note_on_c, 0, 100, 0
2, 131280, Note_on_c, 0, 98, 0
2, 131280, Note_on_c, 0, 87, 0
2, 131280, Note_on_c, 0, 85, 0
2, 131280, Note_on_c, 0, 73, 0
2, 131280, Note_on_c, 0, 74, 0
2, 131280, Note_on_c, 0, 62, 0
2, 131390, Note_on_c, 0, 108, 0
2, 131520, Note_on_c, 0, 100, 100
2, 131520, Note_on_c, 0, 98, 100
2, 131520, Note_on_c, 0, 87, 100
2, 131520, Note_on_c, 0, 85, 100
2, 131520, Note_on_c, 0, 73, 100
2, 131520, Note_on_c, 0, 74, 100
2, 131520, Note_on_c, 0, 62, 100
2, 131520, Note_on_c, 0, 108, 100
2, 131640, Note_on_c, 0, 108, 0
2, 131760, Note_on_c, 0, 100, 0
2, 131760, Note_on_c, 0, 98, 0
2, 131760, Note_on_c, 0, 87, 0
2, 131760, Note_on_c, 0, 85, 0
2, 131760, Note_on_c, 0, 73, 0
2, 131760, Note_on_c, 0, 74, 0
2, 131760, Note_on_c, 0, 62, 0
2, 131760, Note_on_c, 0, 108, 100
2, 132000, Note_on_c, 0, 100, 100
2, 132000, Note_on_c, 0, 98, 100
2, 132000, Note_on_c, 0, 87, 100
2, 132000, Note_on_c, 0, 85, 100
2, 132000, Note_on_c, 0, 73, 100
2, 132000, Note_on_c, 0, 74, 100
2, 132000, Note_on_c, 0, 62, 100
2, 132240, Note_on_c, 0, 100, 0
2, 132240, Note_on_c, 0, 98, 0
2, 132240, Note_on_c, 0, 87, 0
2, 132240, Note_on_c, 0, 85, 0
2, 132240, Note_on_c, 0, 73, 0
2, 132240, Note_on_c, 0, 74, 0
2, 132240, Note_on_c, 0, 62, 0
2, 132360, Note_on_c, 0, 108, 0
2, 132450, Note_on_c, 0, 106, 100
2, 132450, Note_on_c, 0, 94, 100
2, 132450, Note_on_c, 0, 70, 100
2, 132450, Note_on_c, 0, 82, 100
2, 132480, Text_t, "[chorus]"
2, 132480, Text_t, "[lighting (sweep)]"
2, 132480, Text_t, "drum_normal"
2, 132480, Note_on_c, 0, 96, 100
2, 132480, Note_on_c, 0, 98, 100
2, 132480, Note_on_c, 0, 84, 100
2, 132480, Note_on_c, 0, 86, 100
2, 132480, Note_on_c, 0, 72, 100
2, 132480, Note_on_c, 0, 73, 100
2, 132480, Note_on_c, 0, 60, 100
2, 132480, Note_on_c, 0, 108, 100
2, 132720, Note_on_c, 0, 96, 0
2, 132720, Note_on_c, 0, 98, 0
2, 132720, Note_on_c, 0, 84, 0
2, 132720, Note_on_c, 0, 86, 0
2, 132720, Note_on_c, 0, 72, 0
2, 132720, Note_on_c, 0, 73, 0
2, 132720, Note_on_c, 0, 60, 0
2, 132960, Note_on_c, 0, 96, 100
2, 132960, Note_on_c, 0, 98, 100
2, 132960, Note_on_c, 0, 84, 100
2, 132960, Note_on_c, 0, 86, 100
2, 132960, Note_on_c, 0, 72, 100
2, 132960, Note_on_c, 0, 73, 100
2, 132960, Note_on_c, 0, 60, 100
2, 133200, Note_on_c, 0, 96, 0
2, 133200, Note_on_c, 0, 98, 0
2, 133200, Note_on_c, 0, 84, 0
2, 133200, Note_on_c, 0, 86, 0
2, 133200, Note_on_c, 0, 72, 0
2, 133200, Note_on_c, 0, 73, 0
2, 133200, Note_on_c, 0, 60, 0
2, 133350, Note_on_c, 0, 108, 0
2, 133440, Note_on_c, 0, 108, 100
2, 134280, Note_on_c, 0, 108, 0
2, 134400, Note_on_c, 0, 96, 100
2, 134400, Note_on_c, 0, 98, 100
2, 134400, Note_on_c, 0, 84, 100
2, 134400, Note_on_c, 0, 86, 100
2, 134400, Note_on_c, 0, 72, 100
2, 134400, Note_on_c, 0, 73, 100
2, 134400, Note_on_c, 0, 60, 100
2, 134400, Note_on_c, 0, 108, 100
2, 134640, Note_on_c, 0, 96, 0
2, 134640, Note_on_c, 0, 98, 0
2, 134640, Note_on_c, 0, 84, 0
2, 134640, Note_on_c, 0, 86, 0
2, 134640, Note_on_c, 0, 72, 0
2, 134640, Note_on_c, 0, 73, 0
2, 134640, Note_on_c, 0, 60, 0
2, 134760, Note_on_c, 0, 108, 0
2, 134880, Note_on_c, 0, 96, 100
2, 134880, Note_on_c, 0, 98, 100
2, 134880, Note_on_c, 0, 84, 100
2, 134880, Note_on_c, 0, 86, 100
2, 134880, Note_on_c, 0, 72, 100
2, 134880, Note_on_c, 0, 73, 100
2, 134880, Note_on_c, 0, 60, 100
2, 134880, Note_on_c, 0, 108, 100
2, 134992, Note_on_c, 0, 108, 0
2, 135120, Note_on_c, 0, 96, 0
2, 135120, Note_on_c, 0, 98, 0
2, 135120, Note_on_c, 0, 84, 0
2, 135120, Note_on_c, 0, 86, 0
2, 135120, Note_on_c, 0, 72, 0
2, 135120, Note_on_c, 0, 73, 0
2, 135120, Note_on_c, 0, 60, 0
2, 135120, Note_on_c, 0, 108, 100
2, 135586, Note_on_c, 0, 108, 0
2, 135600, Note_on_c, 0, 97, 100
2, 135600, Note_on_c, 0, 85, 100
2, 135600, Note_on_c, 0, 72, 100
2, 135840, Note_on_c, 0, 72, 0
2, 136040, Note_on_c, 0, 108, 100
2, 136160, Note_on_c, 0, 108, 0
2, 136320, Note_on_c, 0, 97, 0
2, 136320, Note_on_c, 0, 85, 0
2, 136320, Note_on_c, 0, 97, 100
2, 136320, Note_on_c, 0, 99, 100
2, 136320, Note_on_c, 0, 85, 100
2, 136320, Note_on_c, 0, 86, 100
2, 136320, Note_on_c, 0, 73, 100
2, 136320, Note_on_c, 0, 61, 100
2, 136320, Note_on_c, 0, 108, 100
2, 136440, Note_on_c, 0, 108, 0
2, 136560, Note_on_c, 0, 97, 0
2, 136560, Note_on_c, 0, 99, 0
2, 136560, Note_on_c, 0, 85, 0
2, 136560, Note_on_c, 0, 86, 0
2, 136560, Note_on_c, 0, 73, 0
2, 136560, Note_on_c, 0, 61, 0
2, 136560, Note_on_c, 0, 108, 100
2, 136680, Note_on_c, 0, 108, 0
2, 136800, Note_on_c, 0, 97, 100
2, 136800, Note_on_c, 0, 99, 100
2, 136800, Note_on_c, 0, 85, 100
2, 136800, Note_on_c, 0, 86, 100
2, 136800, Note_on_c, 0, 73, 100
2, 136800, Note_on_c, 0, 61, 100
2, 136800, Note_on_c, 0, 108, 100
2, 136920, Note_on_c, 0, 108, 0
2, 136996, Note_on_c, 0, 108, 100
2, 137040, Note_on_c, 0, 97, 0
2, 137040, Note_on_c, 0, 99, 0
2, 137040, Note_on_c, 0, 85, 0
2, 137040, Note_on_c, 0, 86, 0
2, 137040, Note_on_c, 0, 73, 0
2, 137040, Note_on_c, 0, 61, 0
2, 137116, Note_on_c, 0, 108, 0
2, 137182, Note_on_c, 0, 108, 100
2, 137346, Note_on_c, 0, 108, 0
2, 137760, Note_on_c, 0, 108, 100
2, 137882, Note_on_c, 0, 108, 0
2, 138000, Note_on_c, 0, 108, 100
2, 138060, Note_on_c, 0, 108, 0
2, 138240, Note_on_c, 0, 98, 100
2, 138240, Note_on_c, 0, 100, 100
2, 138240, Note_on_c, 0, 85, 100
2, 138240, Note_on_c, 0, 87, 100
2, 138240, Note_on_c, 0, 73, 100
2, 138240, Note_on_c, 0, 74, 100
2, 138240, Note_on_c, 0, 62, 100
2, 138240, Note_on_c, 0, 108, 100
2, 138360, Note_on_c, 0, 108, 0
2, 138480, Note_on_c, 0, 98, 0
2, 138480, Note_on_c, 0, 100, 0
2, 138480, Note_on_c, 0, 85, 0
2, 138480, Note_on_c, 0, 87, 0
2, 138480, Note_on_c, 0, 73, 0
2, 138480, Note_on_c, 0, 74, 0
2, 138480, Note_on_c, 0, 62, 0
2, 138480, Note_on_c, 0, 108, 100
2, 138720, Note_on_c, 0, 98, 100
2, 138720, Note_on_c, 0, 100, 100
2, 138720, Note_on_c, 0, 85, 100
2, 138720, Note_on_c, 0, 87, 100
2, 138720, Note_on_c, 0, 73, 100
2, 138720, Note_on_c, 0, 74, 100
2, 138720, Note_on_c, 0, 62, 100
2, 138834, Note_on_c, 0, 108, 0
2, 138960, Note_on_c, 0, 98, 0
2, 138960, Note_on_c, 0, 100, 0
2, 138960, Note_on_c, 0, 85, 0
2, 138960, Note_on_c, 0, 87, 0
2, 138960, Note_on_c, 0, 73, 0
2, 138960, Note_on_c, 0, 74, 0
2, 138960, Note_on_c, 0, 62, 0
2, 138960, Note_on_c, 0, 108, 100
2, 139330, Note_on_c, 0, 108, 0
2, 139440, Note_on_c, 0, 108, 100
2, 139800, Note_on_c, 0, 108, 0
2, 140160, Note_on_c, 0, 96, 100
2, 140160, Note_on_c, 0, 98, 100
2, 140160, Note_on_c, 0, 84, 100
2, 140160, Note_on_c, 0, 86, 100
2, 140160, Note_on_c, 0, 72, 100
2, 140160, Note_on_c, 0, 73, 100
2, 140160, Note_on_c, 0, 60, 100
2, 140160, Note_on_c, 0, 108, 100
2, 140400, Note_on_c, 0, 96, 0
2, 140400, Note_on_c, 0, 98, 0
2, 140400, Note_on_c, 0, 84, 0
2, 140400, Note_on_c, 0, 86, 0
2, 140400, Note_on_c, 0, 72, 0
2, 140400, Note_on_c, 0, 73, 0
2, 140400, Note_on_c, 0, 60, 0
2, 140640, Note_on_c, 0, 96, 100
2, 140640, Note_on_c, 0, 98, 100
2, 140640, Note_on_c, 0, 84, 100
2, 140640, Note_on_c, 0, 86, 100
2, 140640, Note_on_c, 0, 72, 100
2, 140640, Note_on_c, 0, 73, 100
2, 140640, Note_on_c, 0, 60, 100
2, 140880, Note_on_c, 0, 96, 0
2, 140880, Note_on_c, 0, 98, 0
2, 140880, Note_on_c, 0, 84, 0
2, 140880, Note_on_c, 0, 86, 0
2, 140880, Note_on_c, 0, 72, 0
2, 140880, Note_on_c, 0, 73, 0
2, 140880, Note_on_c, 0, 60, 0
2, 141000, Note_on_c, 0, 108, 0
2, 141120, Note_on_c, 0, 108, 100
2, 141960, Note_on_c, 0, 108, 0
2, 142080, Note_on_c, 0, 96, 100
2, 142080, Note_on_c, 0, 98, 100
2, 142080, Note_on_c, 0, 84, 100
2, 142080, Note_on_c, 0, 86, 100
2, 142080, Note_on_c, 0, 72, 100
2, 142080, Note_on_c, 0, 73, 100
2, 142080, Note_on_c, 0, 60, 100
2, 142080, Note_on_c, 0, 108, 100
2, 142320, Note_on_c, 0, 96, 0
2, 142320, Note_on_c, 0, 98, 0
2, 142320, Note_on_c, 0, 84, 0
2, 142320, Note_on_c, 0, 86, 0
2, 142320, Note_on_c, 0, 72, 0
2, 142320, Note_on_c, 0, 73, 0
2, 142320, Note_on_c, 0, 60, 0
2, 142448, Note_on_c, 0, 108, 0
2, 142560, Note_on_c, 0, 96, 100
2, 142560, Note_on_c, 0, 98, 100
2, 142560, Note_on_c, 0, 84, 100
2, 142560, Note_on_c, 0, 86, 100
2, 142560, Note_on_c, 0, 72, 100
2, 142560, Note_on_c, 0, 73, 100
2, 142560, Note_on_c, 0, 60, 100
2, 142560, Note_on_c, 0, 108, 100
2, 142680, Note_on_c, 0, 108, 0
2, 142800, Note_on_c, 0, 96, 0
2, 142800, Note_on_c, 0, 98, 0
2, 142800, Note_on_c, 0, 84, 0
2, 142800, Note_on_c, 0, 86, 0
2, 142800, Note_on_c, 0, 72, 0
2, 142800, Note_on_c, 0, 73, 0
2, 142800, Note_on_c, 0, 60, 0
2, 142800, Note_on_c, 0, 108, 100
2, 143176, Note_on_c, 0, 108, 0
2, 143280, Note_on_c, 0, 97, 100
2, 143280, Note_on_c, 0, 85, 100
2, 143280, Note_on_c, 0, 72, 100
2, 143520, Note_on_c, 0, 72, 0
2, 143754, Note_on_c, 0, 108, 100
2, 143896, Note_on_c, 0, 108, 0
2, 144000, Note_on_c, 0, 97, 0
2, 144000, Note_on_c, 0, 85, 0
2, 144000, Note_on_c, 0, 97, 100
2, 144000, Note_on_c, 0, 99, 100
2, 144000, Note_on_c, 0, 85, 100
2, 144000, Note_on_c, 0, 86, 100
2, 144000, Note_on_c, 0, 73, 100
2, 144000, Note_on_c, 0, 61, 100
2, 144000, Note_on_c, 0, 108, 100
2, 144120, Note_on_c, 0, 108, 0
2, 144240, Note_on_c, 0, 97, 0
2, 144240, Note_on_c, 0, 99, 0
2, 144240, Note_on_c, 0, 85, 0
2, 144240, Note_on_c, 0, 86, 0
2, 144240, Note_on_c, 0, 73, 0
2, 144240, Note_on_c, 0, 61, 0
2, 144240, Note_on_c, 0, 108, 100
2, 144360, Note_on_c, 0, 108, 0
2, 144480, Note_on_c, 0, 97, 100
2, 144480, Note_on_c, 0, 99, 100
2, 144480, Note_on_c, 0, 85, 100
2, 144480, Note_on_c, 0, 86, 100
2, 144480, Note_on_c, 0, 73, 100
2, 144480, Note_on_c, 0, 61, 100
2, 144480, Note_on_c, 0, 108, 100
2, 144600, Note_on_c, 0, 108, 0
2, 144720, Note_on_c, 0, 97, 0
2, 144720, Note_on_c, 0, 99, 0
2, 144720, Note_on_c, 0, 85, 0
2, 144720, Note_on_c, 0, 86, 0
2, 144720, Note_on_c, 0, 73, 0
2, 144720, Note_on_c, 0, 61, 0
2, 144720, Note_on_c, 0, 108, 100
2, 144840, Note_on_c, 0, 108, 0
2, 144960, Note_on_c, 0, 108, 100
2, 145080, Note_on_c, 0, 108, 0
2, 145440, Note_on_c, 0, 108, 100
2, 145794, Note_on_c, 0, 108, 0
2, 145920, Note_on_c, 0, 98, 100
2, 145920, Note_on_c, 0, 100, 100
2, 145920, Note_on_c, 0, 85, 100
2, 145920, Note_on_c, 0, 87, 100
2, 145920, Note_on_c, 0, 73, 100
2, 145920, Note_on_c, 0, 74, 100
2, 145920, Note_on_c, 0, 62, 100
2, 145920, Note_on_c, 0, 108, 100
2, 146160, Note_on_c, 0, 98, 0
2, 146160, Note_on_c, 0, 100, 0
2, 146160, Note_on_c, 0, 85, 0
2, 146160, Note_on_c, 0, 87, 0
2, 146160, Note_on_c, 0, 73, 0
2, 146160, Note_on_c, 0, 74, 0
2, 146160, Note_on_c, 0, 62, 0
2, 146284, Note_on_c, 0, 108, 0
2, 146400, Note_on_c, 0, 97, 100
2, 146400, Note_on_c, 0, 85, 100
2, 146412, Note_on_c, 0, 108, 100
2, 146640, Note_on_c, 0, 97, 0
2, 146640, Note_on_c, 0, 85, 0
2, 146772, Note_on_c, 0, 108, 0
2, 146880, Text_t, "sing_off"
2, 146880, Text_t, "[verse]"
2, 146880, Text_t, "wail_off"
2, 146880, Note_on_c, 0, 96, 100
2, 146880, Note_on_c, 0, 98, 100
2, 146880, Note_on_c, 0, 84, 100
2, 146880, Note_on_c, 0, 86, 100
2, 146880, Note_on_c, 0, 72, 100
2, 146880, Note_on_c, 0, 73, 100
2, 146880, Note_on_c, 0, 60, 100
2, 146910, Note_on_c, 0, 108, 100
2, 147120, Note_on_c, 0, 96, 0
2, 147120, Note_on_c, 0, 98, 0
2, 147120, Note_on_c, 0, 84, 0
2, 147120, Note_on_c, 0, 86, 0
2, 147120, Note_on_c, 0, 72, 0
2, 147120, Note_on_c, 0, 73, 0
2, 147120, Note_on_c, 0, 60, 0
2, 147312, Note_on_c, 0, 108, 0
2, 147360, Note_on_c, 0, 96, 100
2, 147360, Note_on_c, 0, 98, 100
2, 147360, Note_on_c, 0, 84, 100
2, 147360, Note_on_c, 0, 86, 100
2, 147360, Note_on_c, 0, 72, 100
2, 147360, Note_on_c, 0, 73, 100
2, 147360, Note_on_c, 0, 60, 100
2, 147600, Note_on_c, 0, 96, 0
2, 147600, Note_on_c, 0, 98, 0
2, 147600, Note_on_c, 0, 84, 0
2, 147600, Note_on_c, 0, 86, 0
2, 147600, Note_on_c, 0, 72, 0
2, 147600, Note_on_c, 0, 73, 0
2, 147600, Note_on_c, 0, 60, 0
2, 147810, Note_on_c, 0, 105, 0
2, 147810, Note_on_c, 0, 93, 0
2, 147810, Note_on_c, 0, 69, 0
2, 147810, Note_on_c, 0, 81, 0
2, 147810, Note_on_c, 0, 106, 0
2, 147810, Note_on_c, 0, 94, 0
2, 147810, Note_on_c, 0, 70, 0
2, 147810, Note_on_c, 0, 82, 0
2, 149838, Note_on_c, 0, 108, 100
2, 150662, Note_on_c, 0, 108, 0
2, 150690, Note_on_c, 0, 106, 100
2, 150690, Note_on_c, 0, 94, 100
2, 150690, Note_on_c, 0, 70, 100
2, 150690, Note_on_c, 0, 82, 100
2, 150720, Note_on_c, 0, 96, 100
2, 150720, Note_on_c, 0, 98, 100
2, 150720, Note_on_c, 0, 84, 100
2, 150720, Note_on_c, 0, 86, 100
2, 150720, Note_on_c, 0, 72, 100
2, 150720, Note_on_c, 0, 73, 100
2, 150720, Note_on_c, 0, 60, 100
2, 150960, Note_on_c, 0, 96, 0
2, 150960, Note_on_c, 0, 98, 0
2, 150960, Note_on_c, 0, 84, 0
2, 150960, Note_on_c, 0, 86, 0
2, 150960, Note_on_c, 0, 72, 0
2, 150960, Note_on_c, 0, 73, 0
2, 150960, Note_on_c, 0, 60, 0
2, 151200, Note_on_c, 0, 96, 100
2, 151200, Note_on_c, 0, 98, 100
2, 151200, Note_on_c, 0, 84, 100
2, 151200, Note_on_c, 0, 86, 100
2, 151200, Note_on_c, 0, 72, 100
2, 151200, Note_on_c, 0, 73, 100
2, 151200, Note_on_c, 0, 60, 100
2, 151440, Note_on_c, 0, 96, 0
2, 151440, Note_on_c, 0, 98, 0
2, 151440, Note_on_c, 0, 84, 0
2, 151440, Note_on_c, 0, 86, 0
2, 151440, Note_on_c, 0, 72, 0
2, 151440, Note_on_c, 0, 73, 0
2, 151440, Note_on_c, 0, 60, 0
2, 152640, Note_on_c, 0, 100, 100
2, 152640, Note_on_c, 0, 87, 100
2, 152640, Note_on_c, 0, 74, 100
2, 152640, Note_on_c, 0, 62, 100
2, 152880, Note_on_c, 0, 100, 0
2, 152880, Note_on_c, 0, 87, 0
2, 152880, Note_on_c, 0, 74, 0
2, 152880, Note_on_c, 0, 62, 0
2, 152880, Note_on_c, 0, 99, 100
2, 152880, Note_on_c, 0, 86, 100
2, 153120, Note_on_c, 0, 99, 0
2, 153120, Note_on_c, 0, 86, 0
2, 153120, Note_on_c, 0, 98, 100
2, 153120, Note_on_c, 0, 85, 100
2, 153360, Note_on_c, 0, 98, 0
2, 153360, Note_on_c, 0, 85, 0
2, 153600, Note_on_c, 0, 97, 100
2, 153600, Note_on_c, 0, 85, 100
2, 153600, Note_on_c, 0, 73, 100
2, 153600, Note_on_c, 0, 61, 100
2, 153840, Note_on_c, 0, 97, 0
2, 153840, Note_on_c, 0, 85, 0
2, 153840, Note_on_c, 0, 73, 0
2, 153840, Note_on_c, 0, 61, 0
2, 153840, Note_on_c, 0, 96, 100
2, 153840, Note_on_c, 0, 84, 100
2, 153840, Note_on_c, 0, 72, 100
2, 154080, Note_on_c, 0, 96, 0
2, 154080, Note_on_c, 0, 84, 0
2, 154080, Note_on_c, 0, 72, 0
2, 154530, Note_on_c, 0, 106, 0
2, 154530, Note_on_c, 0, 94, 0
2, 154530, Note_on_c, 0, 70, 0
2, 154530, Note_on_c, 0, 82, 0
2, 154530, Note_on_c, 0, 105, 100
2, 154530, Note_on_c, 0, 93, 100
2, 154530, Note_on_c, 0, 69, 100
2, 154530, Note_on_c, 0, 81, 100
2, 154560, Text_t, "[solo]"
2, 154560, Text_t, "solo_on"
2, 154560, Note_on_c, 0, 96, 100
2, 154560, Note_on_c, 0, 84, 100
2, 154560, Note_on_c, 0, 72, 100
2, 154560, Note_on_c, 0, 60, 100
2, 155280, Note_on_c, 0, 72, 0
2, 155280, Note_on_c, 0, 60, 0
2, 155520, Note_on_c, 0, 96, 0
2, 155520, Note_on_c, 0, 84, 0
2, 155970, Note_on_c, 0, 103, 100
2, 155970, Note_on_c, 0, 91, 100
2, 155970, Note_on_c, 0, 79, 100
2, 155970, Note_on_c, 0, 67, 100
2, 156000, Note_on_c, 0, 96, 100
2, 156000, Note_on_c, 0, 84, 100
2, 156000, Note_on_c, 0, 72, 100
2, 156000, Note_on_c, 0, 60, 100
2, 156240, Note_on_c, 0, 96, 0
2, 156240, Note_on_c, 0, 84, 0
2, 156240, Note_on_c, 0, 72, 0
2, 156240, Note_on_c, 0, 60, 0
2, 156240, Note_on_c, 0, 96, 100
2, 156480, Note_on_c, 0, 96, 0
2, 156480, Note_on_c, 0, 98, 100
2, 156480, Note_on_c, 0, 86, 100
2, 156480, Note_on_c, 0, 73, 100
2, 156480, Note_on_c, 0, 61, 100
2, 156720, Note_on_c, 0, 98, 0
2, 156720, Note_on_c, 0, 86, 0
2, 156720, Note_on_c, 0, 73, 0
2, 156720, Note_on_c, 0, 61, 0
2, 156960, Note_on_c, 0, 98, 100
2, 156960, Note_on_c, 0, 86, 100
2, 156960, Note_on_c, 0, 73, 100
2, 157200, Note_on_c, 0, 98, 0
2, 157200, Note_on_c, 0, 86, 0
2, 157200, Note_on_c, 0, 73, 0
2, 157200, Note_on_c, 0, 97, 100
2, 157200, Note_on_c, 0, 85, 100
2, 157440, Note_on_c, 0, 97, 0
2, 157440, Note_on_c, 0, 85, 0
2, 157440, Note_on_c, 0, 96, 100
2, 157440, Note_on_c, 0, 84, 100
2, 157440, Note_on_c, 0, 72, 100
2, 157440, Note_on_c, 0, 60, 100
2, 157680, Note_on_c, 0, 84, 0
2, 157680, Note_on_c, 0, 72, 0
2, 157680, Note_on_c, 0, 60, 0
2, 158370, Note_on_c, 0, 103, 0
2, 158370, Note_on_c, 0, 91, 0
2, 158370, Note_on_c, 0, 79, 0
2, 158370, Note_on_c, 0, 67, 0
2, 158400, Note_on_c, 0, 96, 0
2, 158400, Note_on_c, 0, 99, 100
2, 158400, Note_on_c, 0, 98, 100
2, 158400, Note_on_c, 0, 87, 100
2, 158400, Note_on_c, 0, 86, 100
2, 158400, Note_on_c, 0, 74, 100
2, 158400, Note_on_c, 0, 62, 100
2, 158640, Note_on_c, 0, 99, 0
2, 158640, Note_on_c, 0, 98, 0
2, 158640, Note_on_c, 0, 87, 0
2, 158640, Note_on_c, 0, 86, 0
2, 158640, Note_on_c, 0, 74, 0
2, 158640, Note_on_c, 0, 62, 0
2, 159120, Note_on_c, 0, 98, 100
2, 159120, Note_on_c, 0, 97, 100
2, 159120, Note_on_c, 0, 86, 100
2, 159360, Note_on_c, 0, 98, 0
2, 159360, Note_on_c, 0, 97, 0
2, 159360, Note_on_c, 0, 86, 0
2, 159360, Note_on_c, 0, 99, 100
2, 159360, Note_on_c, 0, 98, 100
2, 159360, Note_on_c, 0, 87, 100
2, 159360, Note_on_c, 0, 74, 100
2, 159360, Note_on_c, 0, 62, 100
2, 160290, Note_on_c, 0, 105, 0
2, 160290, Note_on_c, 0, 93, 0
2, 160290, Note_on_c, 0, 69, 0
2, 160290, Note_on_c, 0, 81, 0
2, 160320, Note_on_c, 0, 99, 0
2, 160320, Note_on_c, 0, 98, 0
2, 160320, Note_on_c, 0, 87, 0
2, 160320, Note_on_c, 0, 74, 0
2, 160320, Note_on_c, 0, 62, 0
2, 160770, Note_on_c, 0, 106, 100
2, 160770, Note_on_c, 0, 94, 100
2, 160770, Note_on_c, 0, 70, 100
2, 160770, Note_on_c, 0, 82, 100
2, 160800, Note_on_c, 0, 96, 100
2, 160800, Note_on_c, 0, 84, 100
2, 160800, Note_on_c, 0, 60, 100
2, 160800, Note_on_c, 0, 72, 100
2, 161040, Note_on_c, 0, 96, 0
2, 161040, Note_on_c, 0, 84, 0
2, 161040, Note_on_c, 0, 60, 0
2, 161040, Note_on_c, 0, 72, 0
2, 161280, Note_on_c, 0, 97, 100
2, 161280, Note_on_c, 0, 85, 100
2, 161280, Note_on_c, 0, 73, 100
2, 161520, Note_on_c, 0, 97, 0
2, 161520, Note_on_c, 0, 85, 0
2, 161520, Note_on_c, 0, 73, 0
2, 161760, Note_on_c, 0, 98, 100
2, 161760, Note_on_c, 0, 86, 100
2, 161760, Note_on_c, 0, 74, 100
2, 162000, Note_on_c, 0, 98, 0
2, 162000, Note_on_c, 0, 86, 0
2, 162000, Note_on_c, 0, 74, 0
2, 162210, Note_on_c, 0, 103, 100
2, 162210, Note_on_c, 0, 91, 100
2, 162210, Note_on_c, 0, 79, 100
2, 162210, Note_on_c, 0, 67, 100
2, 162240, Note_on_c, 0, 74, 100
2, 162240, Note_on_c, 0, 61, 100
2, 162240, Note_on_c, 0, 99, 100
2, 162240, Note_on_c, 0, 87, 100
2, 162480, Note_on_c, 0, 61, 0
2, 162960, Note_on_c, 0, 74, 0
2, 163200, Note_on_c, 0, 99, 0
2, 163200, Note_on_c, 0, 87, 0
2, 163200, Note_on_c, 0, 100, 100
2, 163200, Note_on_c, 0, 88, 100
2, 163200, Note_on_c, 0, 75, 100
2, 163200, Note_on_c, 0, 62, 100
2, 163440, Note_on_c, 0, 100, 0
2, 163440, Note_on_c, 0, 88, 0
2, 163440, Note_on_c, 0, 75, 0
2, 163440, Note_on_c, 0, 62, 0
2, 163680, Note_on_c, 0, 74, 100
2, 163680, Note_on_c, 0, 61, 100
2, 163680, Note_on_c, 0, 99, 100
2, 163680, Note_on_c, 0, 87, 100
2, 163920, Note_on_c, 0, 61, 0
2, 164400, Note_on_c, 0, 74, 0
2, 164640, Note_on_c, 0, 99, 0
2, 164640, Note_on_c, 0, 87, 0
2, 164640, Note_on_c, 0, 100, 100
2, 164640, Note_on_c, 0, 88, 100
2, 164640, Note_on_c, 0, 75, 100
2, 164640, Note_on_c, 0, 62, 100
2, 164880, Note_on_c, 0, 100, 0
2, 164880, Note_on_c, 0, 88, 0
2, 164880, Note_on_c, 0, 75, 0
2, 164880, Note_on_c, 0, 62, 0
2, 165090, Note_on_c, 0, 103, 0
2, 165090, Note_on_c, 0, 91, 0
2, 165090, Note_on_c, 0, 79, 0
2, 165090, Note_on_c, 0, 67, 0
2, 165120, Note_on_c, 0, 99, 100
2, 165120, Note_on_c, 0, 87, 100
2, 165120, Note_on_c, 0, 74, 100
2, 165120, Note_on_c, 0, 61, 100
2, 165360, Note_on_c, 0, 99, 0
2, 165360, Note_on_c, 0, 87, 0
2, 165360, Note_on_c, 0, 74, 0
2, 165360, Note_on_c, 0, 61, 0
2, 165360, Note_on_c, 0, 98, 100
2, 165600, Note_on_c, 0, 98, 0
2, 165600, Note_on_c, 0, 97, 100
2, 165600, Note_on_c, 0, 85, 100
2, 165840, Note_on_c, 0, 97, 0
2, 165840, Note_on_c, 0, 85, 0
2, 165840, Note_on_c, 0, 96, 100
2, 165840, Note_on_c, 0, 84, 100
2, 166080, Note_on_c, 0, 96, 0
2, 166080, Note_on_c, 0, 84, 0
2, 166080, Note_on_c, 0, 62, 100
2, 166080, Note_on_c, 0, 97, 100
2, 166080, Note_on_c, 0, 85, 100
2, 166080, Note_on_c, 0, 73, 100
2, 166320, Note_on_c, 0, 97, 0
2, 166320, Note_on_c, 0, 85, 0
2, 166320, Note_on_c, 0, 73, 0
2, 166320, Note_on_c, 0, 98, 100
2, 166320, Note_on_c, 0, 86, 100
2, 166320, Note_on_c, 0, 74, 100
2, 167250, Note_on_c, 0, 106, 0
2, 167250, Note_on_c, 0, 94, 0
2, 167250, Note_on_c, 0, 70, 0
2, 167250, Note_on_c, 0, 82, 0
2, 167280, Note_on_c, 0, 98, 0
2, 167280, Note_on_c, 0, 86, 0
2, 167280, Note_on_c, 0, 74, 0
2, 167490, Note_on_c, 0, 105, 100
2, 167490, Note_on_c, 0, 93, 100
2, 167490, Note_on_c, 0, 69, 100
2, 167490, Note_on_c, 0, 81, 100
2, 167520, Note_on_c, 0, 62, 0
2, 167520, Note_on_c, 0, 96, 100
2, 167520, Note_on_c, 0, 84, 100
2, 167520, Note_on_c, 0, 72, 100
2, 167520, Note_on_c, 0, 60, 100
2, 167760, Note_on_c, 0, 96, 0
2, 167760, Note_on_c, 0, 84, 0
2, 167760, Note_on_c, 0, 72, 0
2, 167760, Note_on_c, 0, 60, 0
2, 167760, Note_on_c, 0, 96, 100
2, 168000, Note_on_c, 0, 96, 0
2, 168000, Note_on_c, 0, 96, 100
2, 168000, Note_on_c, 0, 84, 100
2, 168000, Note_on_c, 0, 72, 100
2, 168000, Note_on_c, 0, 60, 100
2, 168240, Note_on_c, 0, 96, 0
2, 168240, Note_on_c, 0, 84, 0
2, 168240, Note_on_c, 0, 72, 0
2, 168240, Note_on_c, 0, 60, 0
2, 168240, Note_on_c, 0, 97, 100
2, 168480, Note_on_c, 0, 97, 0
2, 168480, Note_on_c, 0, 98, 100
2, 168480, Note_on_c, 0, 86, 100
2, 168480, Note_on_c, 0, 73, 100
2, 168720, Note_on_c, 0, 98, 0
2, 168720, Note_on_c, 0, 86, 0
2, 168720, Note_on_c, 0, 73, 0
2, 168960, Note_on_c, 0, 75, 100
2, 168960, Note_on_c, 0, 62, 100
2, 168960, Note_on_c, 0, 100, 100
2, 168960, Note_on_c, 0, 88, 100
2, 169200, Note_on_c, 0, 75, 0
2, 169200, Note_on_c, 0, 62, 0
2, 169200, Note_on_c, 0, 100, 0
2, 169200, Note_on_c, 0, 88, 0
2, 169440, Note_on_c, 0, 99, 100
2, 169440, Note_on_c, 0, 87, 100
2, 169440, Note_on_c, 0, 74, 100
2, 169680, Note_on_c, 0, 99, 0
2, 169680, Note_on_c, 0, 87, 0
2, 169680, Note_on_c, 0, 74, 0
2, 169680, Note_on_c, 0, 99, 100
2, 169740, Note_on_c, 0, 108, 100
2, 169800, Note_on_c, 0, 108, 0
2, 169920, Text_t, "solo_off"
2, 169920, Text_t, "sing_on"
2, 169920, Text_t, "[verse]"
2, 169920, Note_on_c, 0, 99, 0
2, 169920, Note_on_c, 0, 62, 100
2, 169920, Note_on_c, 0, 99, 100
2, 169920, Note_on_c, 0, 87, 100
2, 169920, Note_on_c, 0, 74, 100
2, 169936, Note_on_c, 0, 108, 100
2, 170160, Note_on_c, 0, 62, 0
2, 170160, Note_on_c, 0, 99, 0
2, 170160, Note_on_c, 0, 87, 0
2, 170160, Note_on_c, 0, 74, 0
2, 170160, Note_on_c, 0, 98, 100
2, 170328, Note_on_c, 0, 108, 0
2, 170370, Note_on_c, 0, 105, 0
2, 170370, Note_on_c, 0, 93, 0
2, 170370, Note_on_c, 0, 69, 0
2, 170370, Note_on_c, 0, 81, 0
2, 170370, Note_on_c, 0, 106, 100
2, 170370, Note_on_c, 0, 94, 100
2, 170370, Note_on_c, 0, 70, 100
2, 170370, Note_on_c, 0, 82, 100
2, 170400, Note_on_c, 0, 98, 0
2, 170400, Note_on_c, 0, 98, 100
2, 170400, Note_on_c, 0, 86, 100
2, 170400, Note_on_c, 0, 73, 100
2, 170438, Note_on_c, 0, 108, 100
2, 170606, Note_on_c, 0, 108, 0
2, 170640, Note_on_c, 0, 98, 0
2, 170640, Note_on_c, 0, 86, 0
2, 170640, Note_on_c, 0, 73, 0
2, 170640, Note_on_c, 0, 98, 100
2, 170740, Note_on_c, 0, 108, 100
2, 170800, Note_on_c, 0, 108, 0
2, 170880, Note_on_c, 0, 98, 0
2, 170880, Note_on_c, 0, 61, 100
2, 170880, Note_on_c, 0, 98, 100
2, 170880, Note_on_c, 0, 86, 100
2, 170880, Note_on_c, 0, 73, 100
2, 170918, Note_on_c, 0, 108, 100
2, 171086, Note_on_c, 0, 108, 0
2, 171120, Note_on_c, 0, 61, 0
2, 171120, Note_on_c, 0, 98, 0
2, 171120, Note_on_c, 0, 86, 0
2, 171120, Note_on_c, 0, 73, 0
2, 171120, Note_on_c, 0, 97, 100
2, 171330, Note_on_c, 0, 106, 0
2, 171330, Note_on_c, 0, 94, 0
2, 171330, Note_on_c, 0, 70, 0
2, 171330, Note_on_c, 0, 82, 0
2, 171330, Note_on_c, 0, 105, 100
2, 171330, Note_on_c, 0, 93, 100
2, 171330, Note_on_c, 0, 69, 100
2, 171330, Note_on_c, 0, 81, 100
2, 171360, Note_on_c, 0, 97, 0
2, 171360, Note_on_c, 0, 97, 100
2, 171360, Note_on_c, 0, 85, 100
2, 171360, Note_on_c, 0, 108, 100
2, 171360, Note_on_c, 0, 72, 100
2, 171480, Note_on_c, 0, 108, 0
2, 171570, Note_on_c, 0, 108, 100
2, 171600, Note_on_c, 0, 97, 0
2, 171600, Note_on_c, 0, 85, 0
2, 171600, Note_on_c, 0, 72, 0
2, 171600, Note_on_c, 0, 97, 100
2, 171840, Note_on_c, 0, 97, 0
2, 171840, Note_on_c, 0, 60, 100
2, 171840, Note_on_c, 0, 97, 100
2, 171840, Note_on_c, 0, 85, 100
2, 171840, Note_on_c, 0, 72, 100
2, 172080, Note_on_c, 0, 60, 0
2, 172080, Note_on_c, 0, 97, 0
2, 172080, Note_on_c, 0, 85, 0
2, 172080, Note_on_c, 0, 72, 0
2, 172080, Note_on_c, 0, 96, 100
2, 172290, Note_on_c, 0, 105, 0
2, 172290, Note_on_c, 0, 93, 0
2, 172290, Note_on_c, 0, 69, 0
2, 172290, Note_on_c, 0, 81, 0
2, 172290, Note_on_c, 0, 106, 100
2, 172290, Note_on_c, 0, 94, 100
2, 172290, Note_on_c, 0, 70, 100
2, 172290, Note_on_c, 0, 82, 100
2, 172320, Note_on_c, 0, 96, 0
2, 172320, Note_on_c, 0, 96, 100
2, 172320, Note_on_c, 0, 75, 100
2, 172320, Note_on_c, 0, 87, 100
2, 172560, Note_on_c, 0, 96, 0
2, 172560, Note_on_c, 0, 75, 0
2, 172560, Note_on_c, 0, 87, 0
2, 172560, Note_on_c, 0, 96, 100
2, 172740, Note_on_c, 0, 108, 0
2, 172800, Note_on_c, 0, 96, 0
2, 172800, Note_on_c, 0, 62, 100
2, 172800, Note_on_c, 0, 96, 100
2, 172800, Note_on_c, 0, 75, 100
2, 172800, Note_on_c, 0, 87, 100
2, 173040, Note_on_c, 0, 62, 0
2, 173040, Note_on_c, 0, 96, 0
2, 173040, Note_on_c, 0, 75, 0
2, 173040, Note_on_c, 0, 87, 0
2, 173040, Note_on_c, 0, 100, 100
2, 173250, Note_on_c, 0, 106, 0
2, 173250, Note_on_c, 0, 94, 0
2, 173250, Note_on_c, 0, 70, 0
2, 173250, Note_on_c, 0, 82, 0
2, 173250, Note_on_c, 0, 105, 100
2, 173250, Note_on_c, 0, 93, 100
2, 173250, Note_on_c, 0, 69, 100
2, 173250, Note_on_c, 0, 81, 100
2, 173280, Note_on_c, 0, 100, 0
2, 173280, Note_on_c, 0, 74, 100
2, 173280, Note_on_c, 0, 100, 100
2, 173280, Note_on_c, 0, 86, 100
2, 173318, Note_on_c, 0, 108, 100
2, 173520, Note_on_c, 0, 74, 0
2, 173520, Note_on_c, 0, 100, 0
2, 173520, Note_on_c, 0, 86, 0
2, 173520, Note_on_c, 0, 100, 100
2, 173664, Note_on_c, 0, 108, 0
2, 173760, Note_on_c, 0, 100, 0
2, 173760, Note_on_c, 0, 61, 100
2, 173760, Note_on_c, 0, 108, 100
2, 173760, Note_on_c, 0, 100, 100
2, 173760, Note_on_c, 0, 74, 100
2, 173760, Note_on_c, 0, 86, 100
2, 174000, Note_on_c, 0, 61, 0
2, 174000, Note_on_c, 0, 100, 0
2, 174000, Note_on_c, 0, 74, 0
2, 174000, Note_on_c, 0, 86, 0
2, 174000, Note_on_c, 0, 99, 100
2, 174120, Note_on_c, 0, 108, 0
2, 174210, Note_on_c, 0, 105, 0
2, 174210, Note_on_c, 0, 93, 0
2, 174210, Note_on_c, 0, 69, 0
2, 174210, Note_on_c, 0, 81, 0
2, 174210, Note_on_c, 0, 106, 100
2, 174210, Note_on_c, 0, 94, 100
2, 174210, Note_on_c, 0, 70, 100
2, 174210, Note_on_c, 0, 82, 100
2, 174240, Note_on_c, 0, 99, 0
2, 174240, Note_on_c, 0, 108, 100
2, 174240, Note_on_c, 0, 99, 100
2, 174240, Note_on_c, 0, 73, 100
2, 174240, Note_on_c, 0, 85, 100
2, 174480, Note_on_c, 0, 99, 0
2, 174480, Note_on_c, 0, 73, 0
2, 174480, Note_on_c, 0, 85, 0
2, 174480, Note_on_c, 0, 99, 100
2, 174624, Note_on_c, 0, 108, 0
2, 174720, Note_on_c, 0, 99, 0
2, 174720, Note_on_c, 0, 60, 100
2, 174720, Note_on_c, 0, 99, 100
2, 174720, Note_on_c, 0, 73, 100
2, 174720, Note_on_c, 0, 85, 100
2, 174762, Note_on_c, 0, 108, 100
2, 174960, Note_on_c, 0, 60, 0
2, 174960, Note_on_c, 0, 99, 0
2, 174960, Note_on_c, 0, 73, 0
2, 174960, Note_on_c, 0, 85, 0
2, 174960, Note_on_c, 0, 98, 100
2, 175122, Note_on_c, 0, 108, 0
2, 175170, Note_on_c, 0, 105, 100
2, 175170, Note_on_c, 0, 93, 100
2, 175170, Note_on_c, 0, 69, 100
2, 175170, Note_on_c, 0, 81, 100
2, 175200, Note_on_c, 0, 98, 0
2, 175200, Note_on_c, 0, 108, 100
2, 175200, Note_on_c, 0, 72, 100
2, 175200, Note_on_c, 0, 97, 100
2, 175200, Note_on_c, 0, 85, 100
2, 175440, Note_on_c, 0, 72, 0
2, 175440, Note_on_c, 0, 97, 0
2, 175440, Note_on_c, 0, 85, 0
2, 175440, Note_on_c, 0, 96, 100
2, 175440, Note_on_c, 0, 84, 100
2, 175484, Note_on_c, 0, 108, 0
2, 175650, Note_on_c, 0, 103, 100
2, 175650, Note_on_c, 0, 91, 100
2, 175650, Note_on_c, 0, 79, 100
2, 175650, Note_on_c, 0, 67, 100
2, 175680, Text_t, "[idle]"
2, 175680, Text_t, "bass_off"
2, 175680, Note_on_c, 0, 96, 0
2, 175680, Note_on_c, 0, 84, 0
2, 175680, Note_on_c, 0, 97, 100
2, 175680, Note_on_c, 0, 85, 100
2, 175680, Note_on_c, 0, 73, 100
2, 175680, Note_on_c, 0, 61, 100
2, 175680, Note_on_c, 0, 108, 100
2, 177524, Note_on_c, 0, 108, 0
2, 177682, Note_on_c, 0, 108, 100
2, 178462, Note_on_c, 0, 108, 0
2, 178620, Note_on_c, 0, 108, 100
2, 179386, Note_on_c, 0, 108, 0
2, 179520, Note_on_c, 0, 108, 100
2, 179880, Note_on_c, 0, 108, 0
2, 180000, Note_on_c, 0, 108, 100
2, 180352, Note_on_c, 0, 108, 0
2, 180480, Note_on_c, 0, 108, 100
2, 180840, Note_on_c, 0, 108, 0
2, 180960, Note_on_c, 0, 108, 100
2, 181080, Note_on_c, 0, 108, 0
2, 181200, Note_on_c, 0, 108, 100
2, 182304, Note_on_c, 0, 108, 0
2, 182408, Note_on_c, 0, 108, 100
2, 182836, Note_on_c, 0, 108, 0
2, 182916, Note_on_c, 0, 108, 100
2, 183240, Note_on_c, 0, 108, 0
2, 183330, Note_on_c, 0, 106, 0
2, 183330, Note_on_c, 0, 94, 0
2, 183330, Note_on_c, 0, 70, 0
2, 183330, Note_on_c, 0, 82, 0
2, 183330, Note_on_c, 0, 105, 0
2, 183330, Note_on_c, 0, 93, 0
2, 183330, Note_on_c, 0, 69, 0
2, 183330, Note_on_c, 0, 81, 0
2, 183330, Note_on_c, 0, 103, 0
2, 183330, Note_on_c, 0, 91, 0
2, 183330, Note_on_c, 0, 79, 0
2, 183330, Note_on_c, 0, 67, 0
2, 183360, Note_on_c, 0, 97, 0
2, 183360, Note_on_c, 0, 85, 0
2, 183360, Note_on_c, 0, 73, 0
2, 183360, Note_on_c, 0, 61, 0
2, 183360, Note_on_c, 0, 108, 100
2, 184140, Note_on_c, 0, 108, 0
2, 184320, Note_on_c, 0, 108, 100
2, 185178, Note_on_c, 0, 108, 0
2, 185280, Note_on_c, 0, 108, 100
2, 186348, Note_on_c, 0, 108, 0
2, 186480, Note_on_c, 0, 108, 100
2, 186654, Note_on_c, 0, 108, 0
2, 186720, Note_on_c, 0, 108, 100
2, 186894, Note_on_c, 0, 108, 0
2, 186960, Note_on_c, 0, 108, 100
2, 187134, Note_on_c, 0, 108, 0
2, 187200, Note_on_c, 0, 108, 100
2, 187570, Note_on_c, 0, 108, 0
2, 187680, Note_on_c, 0, 108, 100
2, 187840, Note_on_c, 0, 108, 0
2, 187932, Note_on_c, 0, 108, 100
2, 188538, Note_on_c, 0, 108, 0
2, 188640, Note_on_c, 0, 108, 100
2, 188984, Note_on_c, 0, 108, 0
2, 189128, Note_on_c, 0, 108, 100
2, 189272, Note_on_c, 0, 108, 0
2, 189372, Note_on_c, 0, 108, 100
2, 189534, Note_on_c, 0, 108, 0
2, 189626, Note_on_c, 0, 108, 100
2, 189954, Note_on_c, 0, 108, 0
2, 190074, Note_on_c, 0, 108, 100
2, 190250, Note_on_c, 0, 108, 0
2, 190332, Note_on_c, 0, 108, 100
2, 190932, Note_on_c, 0, 108, 0
2, 191040, Note_on_c, 0, 108, 100
2, 191832, Note_on_c, 0, 108, 0
2, 192000, Note_on_c, 0, 108, 100
2, 192292, Note_on_c, 0, 108, 0
2, 192412, Note_on_c, 0, 108, 100
2, 192520, Note_on_c, 0, 108, 0
2, 192648, Note_on_c, 0, 108, 100
2, 193428, Note_on_c, 0, 108, 0
2, 193920, Note_on_c, 0, 108, 100
2, 194034, Note_on_c, 0, 108, 0
2, 194160, Note_on_c, 0, 108, 100
2, 194730, Note_on_c, 0, 108, 0
2, 194850, Note_on_c, 0, 106, 100
2, 194850, Note_on_c, 0, 105, 100
2, 194850, Note_on_c, 0, 94, 100
2, 194850, Note_on_c, 0, 93, 100
2, 194850, Note_on_c, 0, 70, 100
2, 194850, Note_on_c, 0, 69, 100
2, 194850, Note_on_c, 0, 82, 100
2, 194850, Note_on_c, 0, 81, 100
2, 194880, Text_t, "[chorus]"
2, 194880, Text_t, "[play]"
2, 194880, Text_t, "bass_on"
2, 194880, Note_on_c, 0, 96, 100
2, 194880, Note_on_c, 0, 84, 100
2, 194880, Note_on_c, 0, 72, 100
2, 194880, Note_on_c, 0, 60, 100
2, 194880, Note_on_c, 0, 108, 100
2, 195120, Note_on_c, 0, 96, 0
2, 195120, Note_on_c, 0, 84, 0
2, 195120, Note_on_c, 0, 72, 0
2, 195120, Note_on_c, 0, 60, 0
2, 195360, Note_on_c, 0, 96, 100
2, 195360, Note_on_c, 0, 84, 100
2, 195360, Note_on_c, 0, 72, 100
2, 195360, Note_on_c, 0, 60, 100
2, 195600, Note_on_c, 0, 96, 0
2, 195600, Note_on_c, 0, 84, 0
2, 195600, Note_on_c, 0, 72, 0
2, 195600, Note_on_c, 0, 60, 0
2, 195660, Note_on_c, 0, 108, 0
2, 195840, Note_on_c, 0, 96, 100
2, 195840, Note_on_c, 0, 84, 100
2, 195840, Note_on_c, 0, 72, 100
2, 195840, Note_on_c, 0, 60, 100
2, 195840, Note_on_c, 0, 108, 100
2, 196080, Note_on_c, 0, 96, 0
2, 196080, Note_on_c, 0, 84, 0
2, 196080, Note_on_c, 0, 72, 0
2, 196080, Note_on_c, 0, 60, 0
2, 196320, Note_on_c, 0, 96, 100
2, 196320, Note_on_c, 0, 84, 100
2, 196320, Note_on_c, 0, 72, 100
2, 196320, Note_on_c, 0, 60, 100
2, 196560, Note_on_c, 0, 96, 0
2, 196560, Note_on_c, 0, 84, 0
2, 196560, Note_on_c, 0, 72, 0
2, 196560, Note_on_c, 0, 60, 0
2, 196730, Note_on_c, 0, 108, 0
2, 196800, Note_on_c, 0, 96, 100
2, 196800, Note_on_c, 0, 84, 100
2, 196800, Note_on_c, 0, 72, 100
2, 196800, Note_on_c, 0, 60, 100
2, 196800, Note_on_c, 0, 108, 100
2, 197040, Note_on_c, 0, 96, 0
2, 197040, Note_on_c, 0, 84, 0
2, 197040, Note_on_c, 0, 72, 0
2, 197040, Note_on_c, 0, 60, 0
2, 197150, Note_on_c, 0, 108, 0
2, 197280, Note_on_c, 0, 96, 100
2, 197280, Note_on_c, 0, 84, 100
2, 197280, Note_on_c, 0, 72, 100
2, 197280, Note_on_c, 0, 60, 100
2, 197280, Note_on_c, 0, 108, 100
2, 197384, Note_on_c, 0, 108, 0
2, 197520, Note_on_c, 0, 96, 0
2, 197520, Note_on_c, 0, 84, 0
2, 197520, Note_on_c, 0, 72, 0
2, 197520, Note_on_c, 0, 60, 0
2, 197520, Note_on_c, 0, 108, 100
2, 197760, Note_on_c, 0, 96, 100
2, 197760, Note_on_c, 0, 84, 100
2, 197760, Note_on_c, 0, 72, 100
2, 197760, Note_on_c, 0, 60, 100
2, 197880, Note_on_c, 0, 108, 0
2, 198000, Note_on_c, 0, 96, 0
2, 198000, Note_on_c, 0, 84, 0
2, 198000, Note_on_c, 0, 72, 0
2, 198000, Note_on_c, 0, 60, 0
2, 198240, Note_on_c, 0, 96, 100
2, 198240, Note_on_c, 0, 84, 100
2, 198240, Note_on_c, 0, 72, 100
2, 198240, Note_on_c, 0, 60, 100
2, 198440, Note_on_c, 0, 108, 100
2, 198480, Note_on_c, 0, 96, 0
2, 198480, Note_on_c, 0, 84, 0
2, 198480, Note_on_c, 0, 72, 0
2, 198480, Note_on_c, 0, 60, 0
2, 198654, Note_on_c, 0, 108, 0
2, 198720, Note_on_c, 0, 97, 100
2, 198720, Note_on_c, 0, 85, 100
2, 198720, Note_on_c, 0, 73, 100
2, 198720, Note_on_c, 0, 61, 100
2, 198720, Note_on_c, 0, 108, 100
2, 198872, Note_on_c, 0, 108, 0
2, 198960, Note_on_c, 0, 97, 0
2, 198960, Note_on_c, 0, 85, 0
2, 198960, Note_on_c, 0, 73, 0
2, 198960, Note_on_c, 0, 61, 0
2, 198960, Note_on_c, 0, 108, 100
2, 199112, Note_on_c, 0, 108, 0
2, 199200, Note_on_c, 0, 97, 100
2, 199200, Note_on_c, 0, 85, 100
2, 199200, Note_on_c, 0, 73, 100
2, 199200, Note_on_c, 0, 61, 100
2, 199200, Note_on_c, 0, 108, 100
2, 199324, Note_on_c, 0, 108, 0
2, 199396, Note_on_c, 0, 108, 100
2, 199440, Note_on_c, 0, 97, 0
2, 199440, Note_on_c, 0, 85, 0
2, 199440, Note_on_c, 0, 73, 0
2, 199440, Note_on_c, 0, 61, 0
2, 199510, Note_on_c, 0, 108, 0
2, 199580, Note_on_c, 0, 108, 100
2, 199680, Note_on_c, 0, 97, 100
2, 199680, Note_on_c, 0, 85, 100
2, 199680, Note_on_c, 0, 73, 100
2, 199680, Note_on_c, 0, 61, 100
2, 199700, Note_on_c, 0, 108, 0
2, 199920, Note_on_c, 0, 97, 0
2, 199920, Note_on_c, 0, 85, 0
2, 199920, Note_on_c, 0, 73, 0
2, 199920, Note_on_c, 0, 61, 0
2, 200160, Note_on_c, 0, 97, 100
2, 200160, Note_on_c, 0, 85, 100
2, 200160, Note_on_c, 0, 73, 100
2, 200160, Note_on_c, 0, 61, 100
2, 200160, Note_on_c, 0, 108, 100
2, 200340, Note_on_c, 0, 108, 0
2, 200400, Note_on_c, 0, 97, 0
2, 200400, Note_on_c, 0, 85, 0
2, 200400, Note_on_c, 0, 73, 0
2, 200400, Note_on_c, 0, 61, 0
2, 200400, Note_on_c, 0, 108, 100
2, 200520, Note_on_c, 0, 108, 0
2, 200640, Note_on_c, 0, 98, 100
2, 200640, Note_on_c, 0, 74, 100
2, 200640, Note_on_c, 0, 62, 100
2, 200640, Note_on_c, 0, 108, 100
2, 200640, Note_on_c, 0, 86, 100
2, 200778, Note_on_c, 0, 108, 0
2, 200880, Note_on_c, 0, 98, 0
2, 200880, Note_on_c, 0, 74, 0
2, 200880, Note_on_c, 0, 62, 0
2, 200880, Note_on_c, 0, 86, 0
2, 200880, Note_on_c, 0, 108, 100
2, 201120, Note_on_c, 0, 98, 100
2, 201120, Note_on_c, 0, 74, 100
2, 201120, Note_on_c, 0, 62, 100
2, 201120, Note_on_c, 0, 86, 100
2, 201230, Note_on_c, 0, 108, 0
2, 201360, Note_on_c, 0, 98, 0
2, 201360, Note_on_c, 0, 74, 0
2, 201360, Note_on_c, 0, 62, 0
2, 201360, Note_on_c, 0, 86, 0
2, 201360, Note_on_c, 0, 108, 100
2, 201600, Note_on_c, 0, 98, 100
2, 201600, Note_on_c, 0, 74, 100
2, 201600, Note_on_c, 0, 62, 100
2, 201600, Note_on_c, 0, 86, 100
2, 201728, Note_on_c, 0, 108, 0
2, 201840, Note_on_c, 0, 98, 0
2, 201840, Note_on_c, 0, 74, 0
2, 201840, Note_on_c, 0, 62, 0
2, 201840, Note_on_c, 0, 86, 0
2, 201840, Note_on_c, 0, 108, 100
2, 202080, Note_on_c, 0, 74, 100
2, 202080, Note_on_c, 0, 62, 100
2, 202080, Note_on_c, 0, 98, 100
2, 202080, Note_on_c, 0, 86, 100
2, 202200, Note_on_c, 0, 108, 0
2, 202320, Note_on_c, 0, 74, 0
2, 202320, Note_on_c, 0, 62, 0
2, 202320, Note_on_c, 0, 98, 0
2, 202320, Note_on_c, 0, 86, 0
2, 202560, Note_on_c, 0, 96, 100
2, 202560, Note_on_c, 0, 84, 100
2, 202560, Note_on_c, 0, 72, 100
2, 202560, Note_on_c, 0, 60, 100
2, 202560, Note_on_c, 0, 108, 100
2, 202800, Note_on_c, 0, 96, 0
2, 202800, Note_on_c, 0, 84, 0
2, 202800, Note_on_c, 0, 72, 0
2, 202800, Note_on_c, 0, 60, 0
2, 203040, Note_on_c, 0, 96, 100
2, 203040, Note_on_c, 0, 84, 100
2, 203040, Note_on_c, 0, 72, 100
2, 203040, Note_on_c, 0, 60, 100
2, 203280, Note_on_c, 0, 96, 0
2, 203280, Note_on_c, 0, 84, 0
2, 203280, Note_on_c, 0, 72, 0
2, 203280, Note_on_c, 0, 60, 0
2, 203430, Note_on_c, 0, 108, 0
2, 203520, Note_on_c, 0, 96, 100
2, 203520, Note_on_c, 0, 84, 100
2, 203520, Note_on_c, 0, 72, 100
2, 203520, Note_on_c, 0, 60, 100
2, 203520, Note_on_c, 0, 108, 100
2, 203760, Note_on_c, 0, 96, 0
2, 203760, Note_on_c, 0, 84, 0
2, 203760, Note_on_c, 0, 72, 0
2, 203760, Note_on_c, 0, 60, 0
2, 204000, Note_on_c, 0, 96, 100
2, 204000, Note_on_c, 0, 84, 100
2, 204000, Note_on_c, 0, 72, 100
2, 204000, Note_on_c, 0, 60, 100
2, 204240, Note_on_c, 0, 96, 0
2, 204240, Note_on_c, 0, 84, 0
2, 204240, Note_on_c, 0, 72, 0
2, 204240, Note_on_c, 0, 60, 0
2, 204412, Note_on_c, 0, 108, 0
2, 204480, Note_on_c, 0, 96, 100
2, 204480, Note_on_c, 0, 84, 100
2, 204480, Note_on_c, 0, 72, 100
2, 204480, Note_on_c, 0, 60, 100
2, 204480, Note_on_c, 0, 108, 100
2, 204720, Note_on_c, 0, 96, 0
2, 204720, Note_on_c, 0, 84, 0
2, 204720, Note_on_c, 0, 72, 0
2, 204720, Note_on_c, 0, 60, 0
2, 204848, Note_on_c, 0, 108, 0
2, 204960, Note_on_c, 0, 96, 100
2, 204960, Note_on_c, 0, 84, 100
2, 204960, Note_on_c, 0, 72, 100
2, 204960, Note_on_c, 0, 60, 100
2, 204960, Note_on_c, 0, 108, 100
2, 205080, Note_on_c, 0, 108, 0
2, 205200, Note_on_c, 0, 96, 0
2, 205200, Note_on_c, 0, 84, 0
2, 205200, Note_on_c, 0, 72, 0
2, 205200, Note_on_c, 0, 60, 0
2, 205200, Note_on_c, 0, 108, 100
2, 205440, Note_on_c, 0, 96, 100
2, 205440, Note_on_c, 0, 84, 100
2, 205440, Note_on_c, 0, 72, 100
2, 205440, Note_on_c, 0, 60, 100
2, 205666, Note_on_c, 0, 108, 0
2, 205680, Note_on_c, 0, 96, 0
2, 205680, Note_on_c, 0, 84, 0
2, 205680, Note_on_c, 0, 72, 0
2, 205680, Note_on_c, 0, 60, 0
2, 205920, Note_on_c, 0, 96, 100
2, 205920, Note_on_c, 0, 84, 100
2, 205920, Note_on_c, 0, 72, 100
2, 205920, Note_on_c, 0, 60, 100
2, 206154, Note_on_c, 0, 108, 100
2, 206160, Note_on_c, 0, 96, 0
2, 206160, Note_on_c, 0, 84, 0
2, 206160, Note_on_c, 0, 72, 0
2, 206160, Note_on_c, 0, 60, 0
2, 206296, Note_on_c, 0, 108, 0
2, 206400, Note_on_c, 0, 97, 100
2, 206400, Note_on_c, 0, 85, 100
2, 206400, Note_on_c, 0, 73, 100
2, 206400, Note_on_c, 0, 61, 100
2, 206400, Note_on_c, 0, 108, 100
2, 206520, Note_on_c, 0, 108, 0
2, 206640, Note_on_c, 0, 97, 0
2, 206640, Note_on_c, 0, 85, 0
2, 206640, Note_on_c, 0, 73, 0
2, 206640, Note_on_c, 0, 61, 0
2, 206640, Note_on_c, 0, 108, 100
2, 206760, Note_on_c, 0, 108, 0
2, 206880, Note_on_c, 0, 97, 100
2, 206880, Note_on_c, 0, 85, 100
2, 206880, Note_on_c, 0, 73, 100
2, 206880, Note_on_c, 0, 61, 100
2, 206880, Note_on_c, 0, 108, 100
2, 207000, Note_on_c, 0, 108, 0
2, 207120, Note_on_c, 0, 97, 0
2, 207120, Note_on_c, 0, 85, 0
2, 207120, Note_on_c, 0, 73, 0
2, 207120, Note_on_c, 0, 61, 0
2, 207120, Note_on_c, 0, 108, 100
2, 207240, Note_on_c, 0, 108, 0
2, 207360, Note_on_c, 0, 97, 100
2, 207360, Note_on_c, 0, 85, 100
2, 207360, Note_on_c, 0, 73, 100
2, 207360, Note_on_c, 0, 61, 100
2, 207360, Note_on_c, 0, 108, 100
2, 207556, Note_on_c, 0, 108, 0
2, 207600, Note_on_c, 0, 97, 0
2, 207600, Note_on_c, 0, 85, 0
2, 207600, Note_on_c, 0, 73, 0
2, 207600, Note_on_c, 0, 61, 0
2, 207840, Note_on_c, 0, 97, 100
2, 207840, Note_on_c, 0, 85, 100
2, 207840, Note_on_c, 0, 73, 100
2, 207840, Note_on_c, 0, 61, 100
2, 207840, Note_on_c, 0, 108, 100
2, 208080, Note_on_c, 0, 97, 0
2, 208080, Note_on_c, 0, 85, 0
2, 208080, Note_on_c, 0, 73, 0
2, 208080, Note_on_c, 0, 61, 0
2, 208194, Note_on_c, 0, 108, 0
2, 208320, Note_on_c, 0, 98, 100
2, 208320, Note_on_c, 0, 74, 100
2, 208320, Note_on_c, 0, 62, 100
2, 208320, Note_on_c, 0, 108, 100
2, 208320, Note_on_c, 0, 86, 100
2, 208560, Note_on_c, 0, 98, 0
2, 208560, Note_on_c, 0, 74, 0
2, 208560, Note_on_c, 0, 62, 0
2, 208560, Note_on_c, 0, 86, 0
2, 208684, Note_on_c, 0, 108, 0
2, 208800, Note_on_c, 0, 74, 100
2, 208800, Note_on_c, 0, 62, 100
2, 208800, Note_on_c, 0, 98, 100
2, 208800, Note_on_c, 0, 86, 100
2, 208812, Note_on_c, 0, 108, 100
2, 209040, Note_on_c, 0, 74, 0
2, 209040, Note_on_c, 0, 62, 0
2, 209040, Note_on_c, 0, 98, 0
2, 209040, Note_on_c, 0, 86, 0
2, 209172, Note_on_c, 0, 108, 0
2, 209280, Note_on_c, 0, 96, 100
2, 209280, Note_on_c, 0, 84, 100
2, 209280, Note_on_c, 0, 72, 100
2, 209280, Note_on_c, 0, 60, 100
2, 209310, Note_on_c, 0, 108, 100
2, 209520, Note_on_c, 0, 96, 0
2, 209520, Note_on_c, 0, 84, 0
2, 209520, Note_on_c, 0, 72, 0
2, 209520, Note_on_c, 0, 60, 0
2, 209712, Note_on_c, 0, 108, 0
2, 210210, Note_on_c, 0, 103, 100
2, 210210, Note_on_c, 0, 91, 100
2, 210210, Note_on_c, 0, 79, 100
2, 210210, Note_on_c, 0, 67, 100
2, 210240, Note_on_c, 0, 96, 100
2, 210240, Note_on_c, 0, 98, 100
2, 210240, Note_on_c, 0, 84, 100
2, 210240, Note_on_c, 0, 86, 100
2, 210240, Note_on_c, 0, 72, 100
2, 210240, Note_on_c, 0, 73, 100
2, 210240, Note_on_c, 0, 60, 100
2, 210240, Note_on_c, 0, 108, 100
2, 210480, Note_on_c, 0, 96, 0
2, 210480, Note_on_c, 0, 98, 0
2, 210480, Note_on_c, 0, 84, 0
2, 210480, Note_on_c, 0, 86, 0
2, 210480, Note_on_c, 0, 72, 0
2, 210480, Note_on_c, 0, 73, 0
2, 210480, Note_on_c, 0, 60, 0
2, 210720, Note_on_c, 0, 96, 100
2, 210720, Note_on_c, 0, 98, 100
2, 210720, Note_on_c, 0, 84, 100
2, 210720, Note_on_c, 0, 86, 100
2, 210720, Note_on_c, 0, 72, 100
2, 210720, Note_on_c, 0, 73, 100
2, 210720, Note_on_c, 0, 60, 100
2, 210930, Note_on_c, 0, 103, 0
2, 210930, Note_on_c, 0, 91, 0
2, 210930, Note_on_c, 0, 79, 0
2, 210930, Note_on_c, 0, 67, 0
2, 210960, Note_on_c, 0, 96, 0
2, 210960, Note_on_c, 0, 98, 0
2, 210960, Note_on_c, 0, 84, 0
2, 210960, Note_on_c, 0, 86, 0
2, 210960, Note_on_c, 0, 72, 0
2, 210960, Note_on_c, 0, 73, 0
2, 210960, Note_on_c, 0, 60, 0
2, 211110, Note_on_c, 0, 108, 0
2, 211170, Note_on_c, 0, 106, 0
2, 211170, Note_on_c, 0, 94, 0
2, 211170, Note_on_c, 0, 70, 0
2, 211170, Note_on_c, 0, 82, 0
2, 211200, Note_on_c, 0, 108, 100
2, 212000, Note_on_c, 0, 108, 0
2, 212160, Note_on_c, 0, 96, 100
2, 212160, Note_on_c, 0, 98, 100
2, 212160, Note_on_c, 0, 84, 100
2, 212160, Note_on_c, 0, 86, 100
2, 212160, Note_on_c, 0, 72, 100
2, 212160, Note_on_c, 0, 73, 100
2, 212160, Note_on_c, 0, 60, 100
2, 212160, Note_on_c, 0, 108, 100
2, 212400, Note_on_c, 0, 96, 0
2, 212400, Note_on_c, 0, 98, 0
2, 212400, Note_on_c, 0, 84, 0
2, 212400, Note_on_c, 0, 86, 0
2, 212400, Note_on_c, 0, 72, 0
2, 212400, Note_on_c, 0, 73, 0
2, 212400, Note_on_c, 0, 60, 0
2, 212528, Note_on_c, 0, 108, 0
2, 212640, Note_on_c, 0, 96, 100
2, 212640, Note_on_c, 0, 98, 100
2, 212640, Note_on_c, 0, 84, 100
2, 212640, Note_on_c, 0, 86, 100
2, 212640, Note_on_c, 0, 72, 100
2, 212640, Note_on_c, 0, 73, 100
2, 212640, Note_on_c, 0, 60, 100
2, 212640, Note_on_c, 0, 108, 100
2, 212760, Note_on_c, 0, 108, 0
2, 212880, Note_on_c, 0, 96, 0
2, 212880, Note_on_c, 0, 98, 0
2, 212880, Note_on_c, 0, 84, 0
2, 212880, Note_on_c, 0, 86, 0
2, 212880, Note_on_c, 0, 72, 0
2, 212880, Note_on_c, 0, 73, 0
2, 212880, Note_on_c, 0, 60, 0
2, 212880, Note_on_c, 0, 108, 100
2, 213346, Note_on_c, 0, 108, 0
2, 213360, Note_on_c, 0, 97, 100
2, 213360, Note_on_c, 0, 85, 100
2, 213360, Note_on_c, 0, 72, 100
2, 213600, Note_on_c, 0, 72, 0
2, 213888, Note_on_c, 0, 108, 100
2, 213948, Note_on_c, 0, 108, 0
2, 214080, Note_on_c, 0, 97, 0
2, 214080, Note_on_c, 0, 85, 0
2, 214080, Note_on_c, 0, 97, 100
2, 214080, Note_on_c, 0, 99, 100
2, 214080, Note_on_c, 0, 86, 100
2, 214080, Note_on_c, 0, 73, 100
2, 214080, Note_on_c, 0, 61, 100
2, 214080, Note_on_c, 0, 108, 100
2, 214080, Note_on_c, 0, 85, 100
2, 214178, Note_on_c, 0, 108, 0
2, 214320, Note_on_c, 0, 97, 0
2, 214320, Note_on_c, 0, 99, 0
2, 214320, Note_on_c, 0, 86, 0
2, 214320, Note_on_c, 0, 73, 0
2, 214320, Note_on_c, 0, 61, 0
2, 214320, Note_on_c, 0, 85, 0
2, 214320, Note_on_c, 0, 108, 100
2, 214418, Note_on_c, 0, 108, 0
2, 214560, Note_on_c, 0, 97, 100
2, 214560, Note_on_c, 0, 99, 100
2, 214560, Note_on_c, 0, 85, 100
2, 214560, Note_on_c, 0, 86, 100
2, 214560, Note_on_c, 0, 73, 100
2, 214560, Note_on_c, 0, 61, 100
2, 214560, Note_on_c, 0, 108, 100
2, 214632, Note_on_c, 0, 108, 0
2, 214756, Note_on_c, 0, 108, 100
2, 214800, Note_on_c, 0, 97, 0
2, 214800, Note_on_c, 0, 99, 0
2, 214800, Note_on_c, 0, 85, 0
2, 214800, Note_on_c, 0, 86, 0
2, 214800, Note_on_c, 0, 73, 0
2, 214800, Note_on_c, 0, 61, 0
2, 214816, Note_on_c, 0, 108, 0
2, 214942, Note_on_c, 0, 108, 100
2, 215106, Note_on_c, 0, 108, 0
2, 215520, Note_on_c, 0, 108, 100
2, 215642, Note_on_c, 0, 108, 0
2, 215760, Note_on_c, 0, 108, 100
2, 215820, Note_on_c, 0, 108, 0
2, 216000, Note_on_c, 0, 98, 100
2, 216000, Note_on_c, 0, 100, 100
2, 216000, Note_on_c, 0, 85, 100
2, 216000, Note_on_c, 0, 87, 100
2, 216000, Note_on_c, 0, 73, 100
2, 216000, Note_on_c, 0, 74, 100
2, 216000, Note_on_c, 0, 62, 100
2, 216000, Note_on_c, 0, 108, 100
2, 216120, Note_on_c, 0, 108, 0
2, 216240, Note_on_c, 0, 98, 0
2, 216240, Note_on_c, 0, 100, 0
2, 216240, Note_on_c, 0, 85, 0
2, 216240, Note_on_c, 0, 87, 0
2, 216240, Note_on_c, 0, 73, 0
2, 216240, Note_on_c, 0, 74, 0
2, 216240, Note_on_c, 0, 62, 0
2, 216240, Note_on_c, 0, 108, 100
2, 216480, Note_on_c, 0, 98, 100
2, 216480, Note_on_c, 0, 100, 100
2, 216480, Note_on_c, 0, 85, 100
2, 216480, Note_on_c, 0, 87, 100
2, 216480, Note_on_c, 0, 73, 100
2, 216480, Note_on_c, 0, 74, 100
2, 216480, Note_on_c, 0, 62, 100
2, 216600, Note_on_c, 0, 108, 0
2, 216720, Note_on_c, 0, 98, 0
2, 216720, Note_on_c, 0, 100, 0
2, 216720, Note_on_c, 0, 85, 0
2, 216720, Note_on_c, 0, 87, 0
2, 216720, Note_on_c, 0, 73, 0
2, 216720, Note_on_c, 0, 74, 0
2, 216720, Note_on_c, 0, 62, 0
2, 216720, Note_on_c, 0, 108, 100
2, 217080, Note_on_c, 0, 108, 0
2, 217200, Note_on_c, 0, 108, 100
2, 217602, Note_on_c, 0, 108, 0
2, 217890, Note_on_c, 0, 106, 100
2, 217890, Note_on_c, 0, 94, 100
2, 217890, Note_on_c, 0, 70, 100
2, 217890, Note_on_c, 0, 82, 100
2, 217920, Note_on_c, 0, 96, 100
2, 217920, Note_on_c, 0, 98, 100
2, 217920, Note_on_c, 0, 84, 100
2, 217920, Note_on_c, 0, 86, 100
2, 217920, Note_on_c, 0, 72, 100
2, 217920, Note_on_c, 0, 73, 100
2, 217920, Note_on_c, 0, 60, 100
2, 217920, Note_on_c, 0, 108, 100
2, 218160, Note_on_c, 0, 96, 0
2, 218160, Note_on_c, 0, 98, 0
2, 218160, Note_on_c, 0, 84, 0
2, 218160, Note_on_c, 0, 86, 0
2, 218160, Note_on_c, 0, 72, 0
2, 218160, Note_on_c, 0, 73, 0
2, 218160, Note_on_c, 0, 60, 0
2, 218400, Note_on_c, 0, 96, 100
2, 218400, Note_on_c, 0, 98, 100
2, 218400, Note_on_c, 0, 84, 100
2, 218400, Note_on_c, 0, 86, 100
2, 218400, Note_on_c, 0, 72, 100
2, 218400, Note_on_c, 0, 73, 100
2, 218400, Note_on_c, 0, 60, 100
2, 218640, Note_on_c, 0, 96, 0
2, 218640, Note_on_c, 0, 98, 0
2, 218640, Note_on_c, 0, 84, 0
2, 218640, Note_on_c, 0, 86, 0
2, 218640, Note_on_c, 0, 72, 0
2, 218640, Note_on_c, 0, 73, 0
2, 218640, Note_on_c, 0, 60, 0
2, 218790, Note_on_c, 0, 108, 0
2, 218850, Note_on_c, 0, 105, 0
2, 218850, Note_on_c, 0, 93, 0
2, 218850, Note_on_c, 0, 69, 0
2, 218850, Note_on_c, 0, 81, 0
2, 218880, Note_on_c, 0, 108, 100
2, 219772, Note_on_c, 0, 108, 0
2, 219840, Note_on_c, 0, 96, 100
2, 219840, Note_on_c, 0, 98, 100
2, 219840, Note_on_c, 0, 84, 100
2, 219840, Note_on_c, 0, 86, 100
2, 219840, Note_on_c, 0, 72, 100
2, 219840, Note_on_c, 0, 73, 100
2, 219840, Note_on_c, 0, 60, 100
2, 219840, Note_on_c, 0, 108, 100
2, 220080, Note_on_c, 0, 96, 0
2, 220080, Note_on_c, 0, 98, 0
2, 220080, Note_on_c, 0, 84, 0
2, 220080, Note_on_c, 0, 86, 0
2, 220080, Note_on_c, 0, 72, 0
2, 220080, Note_on_c, 0, 73, 0
2, 220080, Note_on_c, 0, 60, 0
2, 220208, Note_on_c, 0, 108, 0
2, 220320, Note_on_c, 0, 96, 100
2, 220320, Note_on_c, 0, 98, 100
2, 220320, Note_on_c, 0, 84, 100
2, 220320, Note_on_c, 0, 86, 100
2, 220320, Note_on_c, 0, 72, 100
2, 220320, Note_on_c, 0, 73, 100
2, 220320, Note_on_c, 0, 60, 100
2, 220320, Note_on_c, 0, 108, 100
2, 220440, Note_on_c, 0, 108, 0
2, 220560, Note_on_c, 0, 96, 0
2, 220560, Note_on_c, 0, 98, 0
2, 220560, Note_on_c, 0, 84, 0
2, 220560, Note_on_c, 0, 86, 0
2, 220560, Note_on_c, 0, 72, 0
2, 220560, Note_on_c, 0, 73, 0
2, 220560, Note_on_c, 0, 60, 0
2, 220560, Note_on_c, 0, 108, 100
2, 221026, Note_on_c, 0, 108, 0
2, 221040, Note_on_c, 0, 97, 100
2, 221040, Note_on_c, 0, 85, 100
2, 221040, Note_on_c, 0, 72, 100
2, 221280, Note_on_c, 0, 72, 0
2, 221592, Note_on_c, 0, 108, 100
2, 221692, Note_on_c, 0, 108, 0
2, 221760, Note_on_c, 0, 97, 0
2, 221760, Note_on_c, 0, 85, 0
2, 221760, Note_on_c, 0, 97, 100
2, 221760, Note_on_c, 0, 99, 100
2, 221760, Note_on_c, 0, 85, 100
2, 221760, Note_on_c, 0, 86, 100
2, 221760, Note_on_c, 0, 73, 100
2, 221760, Note_on_c, 0, 61, 100
2, 221760, Note_on_c, 0, 108, 100
2, 221880, Note_on_c, 0, 108, 0
2, 222000, Note_on_c, 0, 97, 0
2, 222000, Note_on_c, 0, 99, 0
2, 222000, Note_on_c, 0, 85, 0
2, 222000, Note_on_c, 0, 86, 0
2, 222000, Note_on_c, 0, 73, 0
2, 222000, Note_on_c, 0, 61, 0
2, 222000, Note_on_c, 0, 108, 100
2, 222120, Note_on_c, 0, 108, 0
2, 222240, Note_on_c, 0, 97, 100
2, 222240, Note_on_c, 0, 99, 100
2, 222240, Note_on_c, 0, 85, 100
2, 222240, Note_on_c, 0, 86, 100
2, 222240, Note_on_c, 0, 73, 100
2, 222240, Note_on_c, 0, 61, 100
2, 222240, Note_on_c, 0, 108, 100
2, 222360, Note_on_c, 0, 108, 0
2, 222480, Note_on_c, 0, 97, 0
2, 222480, Note_on_c, 0, 99, 0
2, 222480, Note_on_c, 0, 85, 0
2, 222480, Note_on_c, 0, 86, 0
2, 222480, Note_on_c, 0, 73, 0
2, 222480, Note_on_c, 0, 61, 0
2, 222480, Note_on_c, 0, 108, 100
2, 222600, Note_on_c, 0, 108, 0
2, 222720, Note_on_c, 0, 108, 100
2, 222916, Note_on_c, 0, 108, 0
2, 223200, Note_on_c, 0, 108, 100
2, 223552, Note_on_c, 0, 108, 0
2, 223680, Note_on_c, 0, 98, 100
2, 223680, Note_on_c, 0, 100, 100
2, 223680, Note_on_c, 0, 85, 100
2, 223680, Note_on_c, 0, 87, 100
2, 223680, Note_on_c, 0, 73, 100
2, 223680, Note_on_c, 0, 74, 100
2, 223680, Note_on_c, 0, 62, 100
2, 223680, Note_on_c, 0, 108, 100
2, 223920, Note_on_c, 0, 98, 0
2, 223920, Note_on_c, 0, 100, 0
2, 223920, Note_on_c, 0, 85, 0
2, 223920, Note_on_c, 0, 87, 0
2, 223920, Note_on_c, 0, 73, 0
2, 223920, Note_on_c, 0, 74, 0
2, 223920, Note_on_c, 0, 62, 0
2, 224042, Note_on_c, 0, 108, 0
2, 224160, Note_on_c, 0, 97, 100
2, 224160, Note_on_c, 0, 85, 100
2, 224172, Note_on_c, 0, 108, 100
2, 224400, Note_on_c, 0, 97, 0
2, 224400, Note_on_c, 0, 85, 0
2, 224532, Note_on_c, 0, 108, 0
2, 224610, Note_on_c, 0, 106, 0
2, 224610, Note_on_c, 0, 94, 0
2, 224610, Note_on_c, 0, 70, 0
2, 224610, Note_on_c, 0, 82, 0
2, 224610, Note_on_c, 0, 105, 100
2, 224610, Note_on_c, 0, 93, 100
2, 224610, Note_on_c, 0, 69, 100
2, 224610, Note_on_c, 0, 81, 100
2, 224640, Note_on_c, 0, 96, 100
2, 224640, Note_on_c, 0, 98, 100
2, 224640, Note_on_c, 0, 84, 100
2, 224640, Note_on_c, 0, 86, 100
2, 224640, Note_on_c, 0, 72, 100
2, 224640, Note_on_c, 0, 73, 100
2, 224640, Note_on_c, 0, 60, 100
2, 224640, Note_on_c, 0, 108, 100
2, 224880, Note_on_c, 0, 96, 0
2, 224880, Note_on_c, 0, 98, 0
2, 224880, Note_on_c, 0, 84, 0
2, 224880, Note_on_c, 0, 86, 0
2, 224880, Note_on_c, 0, 72, 0
2, 224880, Note_on_c, 0, 73, 0
2, 224880, Note_on_c, 0, 60, 0
2, 225120, Note_on_c, 0, 96, 100
2, 225120, Note_on_c, 0, 98, 100
2, 225120, Note_on_c, 0, 84, 100
2, 225120, Note_on_c, 0, 86, 100
2, 225120, Note_on_c, 0, 72, 100
2, 225120, Note_on_c, 0, 73, 100
2, 225120, Note_on_c, 0, 60, 100
2, 225360, Note_on_c, 0, 96, 0
2, 225360, Note_on_c, 0, 98, 0
2, 225360, Note_on_c, 0, 84, 0
2, 225360, Note_on_c, 0, 86, 0
2, 225360, Note_on_c, 0, 72, 0
2, 225360, Note_on_c, 0, 73, 0
2, 225360, Note_on_c, 0, 60, 0
2, 225510, Note_on_c, 0, 108, 0
2, 225600, Note_on_c, 0, 108, 100
2, 226440, Note_on_c, 0, 108, 0
2, 226530, Note_on_c, 0, 105, 0
2, 226530, Note_on_c, 0, 93, 0
2, 226530, Note_on_c, 0, 69, 0
2, 226530, Note_on_c, 0, 81, 0
2, 226530, Note_on_c, 0, 106, 100
2, 226530, Note_on_c, 0, 94, 100
2, 226530, Note_on_c, 0, 70, 100
2, 226530, Note_on_c, 0, 82, 100
2, 226560, Note_on_c, 0, 96, 100
2, 226560, Note_on_c, 0, 98, 100
2, 226560, Note_on_c, 0, 84, 100
2, 226560, Note_on_c, 0, 86, 100
2, 226560, Note_on_c, 0, 72, 100
2, 226560, Note_on_c, 0, 73, 100
2, 226560, Note_on_c, 0, 60, 100
2, 226560, Note_on_c, 0, 108, 100
2, 226800, Note_on_c, 0, 96, 0
2, 226800, Note_on_c, 0, 98, 0
2, 226800, Note_on_c, 0, 84, 0
2, 226800, Note_on_c, 0, 86, 0
2, 226800, Note_on_c, 0, 72, 0
2, 226800, Note_on_c, 0, 73, 0
2, 226800, Note_on_c, 0, 60, 0
2, 226928, Note_on_c, 0, 108, 0
2, 227040, Note_on_c, 0, 96, 100
2, 227040, Note_on_c, 0, 98, 100
2, 227040, Note_on_c, 0, 84, 100
2, 227040, Note_on_c, 0, 86, 100
2, 227040, Note_on_c, 0, 72, 100
2, 227040, Note_on_c, 0, 73, 100
2, 227040, Note_on_c, 0, 60, 100
2, 227040, Note_on_c, 0, 108, 100
2, 227160, Note_on_c, 0, 108, 0
2, 227280, Note_on_c, 0, 96, 0
2, 227280, Note_on_c, 0, 98, 0
2, 227280, Note_on_c, 0, 84, 0
2, 227280, Note_on_c, 0, 86, 0
2, 227280, Note_on_c, 0, 72, 0
2, 227280, Note_on_c, 0, 73, 0
2, 227280, Note_on_c, 0, 60, 0
2, 227280, Note_on_c, 0, 108, 100
2, 227730, Note_on_c, 0, 105, 100
2, 227730, Note_on_c, 0, 93, 100
2, 227730, Note_on_c, 0, 69, 100
2, 227730, Note_on_c, 0, 81, 100
2, 227746, Note_on_c, 0, 108, 0
2, 227760, Note_on_c, 0, 97, 100
2, 227760, Note_on_c, 0, 85, 100
2, 227760, Note_on_c, 0, 72, 100
2, 228000, Note_on_c, 0, 72, 0
2, 228330, Note_on_c, 0, 108, 100
2, 228390, Note_on_c, 0, 108, 0
2, 228450, Note_on_c, 0, 106, 0
2, 228450, Note_on_c, 0, 94, 0
2, 228450, Note_on_c, 0, 70, 0
2, 228450, Note_on_c, 0, 82, 0
2, 228480, Note_on_c, 0, 97, 0
2, 228480, Note_on_c, 0, 85, 0
2, 228480, Note_on_c, 0, 97, 100
2, 228480, Note_on_c, 0, 99, 100
2, 228480, Note_on_c, 0, 85, 100
2, 228480, Note_on_c, 0, 86, 100
2, 228480, Note_on_c, 0, 73, 100
2, 228480, Note_on_c, 0, 61, 100
2, 228480, Note_on_c, 0, 108, 100
2, 228578, Note_on_c, 0, 108, 0
2, 228720, Note_on_c, 0, 97, 0
2, 228720, Note_on_c, 0, 99, 0
2, 228720, Note_on_c, 0, 85, 0
2, 228720, Note_on_c, 0, 86, 0
2, 228720, Note_on_c, 0, 73, 0
2, 228720, Note_on_c, 0, 61, 0
2, 228720, Note_on_c, 0, 108, 100
2, 228818, Note_on_c, 0, 108, 0
2, 228960, Note_on_c, 0, 97, 100
2, 228960, Note_on_c, 0, 99, 100
2, 228960, Note_on_c, 0, 85, 100
2, 228960, Note_on_c, 0, 86, 100
2, 228960, Note_on_c, 0, 73, 100
2, 228960, Note_on_c, 0, 61, 100
2, 228960, Note_on_c, 0, 108, 100
2, 229032, Note_on_c, 0, 108, 0
2, 229156, Note_on_c, 0, 108, 100
2, 229200, Note_on_c, 0, 97, 0
2, 229200, Note_on_c, 0, 99, 0
2, 229200, Note_on_c, 0, 85, 0
2, 229200, Note_on_c, 0, 86, 0
2, 229200, Note_on_c, 0, 73, 0
2, 229200, Note_on_c, 0, 61, 0
2, 229216, Note_on_c, 0, 108, 0
2, 229342, Note_on_c, 0, 108, 100
2, 229506, Note_on_c, 0, 108, 0
2, 229920, Note_on_c, 0, 108, 100
2, 230102, Note_on_c, 0, 108, 0
2, 230160, Note_on_c, 0, 108, 100
2, 230280, Note_on_c, 0, 108, 0
2, 230370, Note_on_c, 0, 105, 0
2, 230370, Note_on_c, 0, 93, 0
2, 230370, Note_on_c, 0, 69, 0
2, 230370, Note_on_c, 0, 81, 0
2, 230370, Note_on_c, 0, 106, 100
2, 230370, Note_on_c, 0, 94, 100
2, 230370, Note_on_c, 0, 70, 100
2, 230370, Note_on_c, 0, 82, 100
2, 230400, Note_on_c, 0, 98, 100
2, 230400, Note_on_c, 0, 100, 100
2, 230400, Note_on_c, 0, 85, 100
2, 230400, Note_on_c, 0, 87, 100
2, 230400, Note_on_c, 0, 73, 100
2, 230400, Note_on_c, 0, 74, 100
2, 230400, Note_on_c, 0, 62, 100
2, 230400, Note_on_c, 0, 108, 100
2, 230580, Note_on_c, 0, 108, 0
2, 230640, Note_on_c, 0, 98, 0
2, 230640, Note_on_c, 0, 100, 0
2, 230640, Note_on_c, 0, 85, 0
2, 230640, Note_on_c, 0, 87, 0
2, 230640, Note_on_c, 0, 73, 0
2, 230640, Note_on_c, 0, 74, 0
2, 230640, Note_on_c, 0, 62, 0
2, 230640, Note_on_c, 0, 108, 100
2, 230880, Note_on_c, 0, 98, 100
2, 230880, Note_on_c, 0, 100, 100
2, 230880, Note_on_c, 0, 85, 100
2, 230880, Note_on_c, 0, 87, 100
2, 230880, Note_on_c, 0, 73, 100
2, 230880, Note_on_c, 0, 74, 100
2, 230880, Note_on_c, 0, 62, 100
2, 231036, Note_on_c, 0, 108, 0
2, 231120, Note_on_c, 0, 98, 0
2, 231120, Note_on_c, 0, 100, 0
2, 231120, Note_on_c, 0, 85, 0
2, 231120, Note_on_c, 0, 87, 0
2, 231120, Note_on_c, 0, 73, 0
2, 231120, Note_on_c, 0, 74, 0
2, 231120, Note_on_c, 0, 62, 0
2, 231120, Note_on_c, 0, 108, 100
2, 231532, Note_on_c, 0, 108, 0
2, 231600, Note_on_c, 0, 108, 100
2, 232002, Note_on_c, 0, 108, 0
2, 232320, Note_on_c, 0, 96, 100
2, 232320, Note_on_c, 0, 98, 100
2, 232320, Note_on_c, 0, 84, 100
2, 232320, Note_on_c, 0, 86, 100
2, 232320, Note_on_c, 0, 72, 100
2, 232320, Note_on_c, 0, 73, 100
2, 232320, Note_on_c, 0, 60, 100
2, 232320, Note_on_c, 0, 108, 100
2, 232560, Note_on_c, 0, 96, 0
2, 232560, Note_on_c, 0, 98, 0
2, 232560, Note_on_c, 0, 84, 0
2, 232560, Note_on_c, 0, 86, 0
2, 232560, Note_on_c, 0, 72, 0
2, 232560, Note_on_c, 0, 73, 0
2, 232560, Note_on_c, 0, 60, 0
2, 232800, Note_on_c, 0, 96, 100
2, 232800, Note_on_c, 0, 98, 100
2, 232800, Note_on_c, 0, 84, 100
2, 232800, Note_on_c, 0, 86, 100
2, 232800, Note_on_c, 0, 72, 100
2, 232800, Note_on_c, 0, 73, 100
2, 232800, Note_on_c, 0, 60, 100
2, 233040, Note_on_c, 0, 96, 0
2, 233040, Note_on_c, 0, 98, 0
2, 233040, Note_on_c, 0, 84, 0
2, 233040, Note_on_c, 0, 86, 0
2, 233040, Note_on_c, 0, 72, 0
2, 233040, Note_on_c, 0, 73, 0
2, 233040, Note_on_c, 0, 60, 0
2, 233160, Note_on_c, 0, 108, 0
2, 233280, Note_on_c, 0, 108, 100
2, 234172, Note_on_c, 0, 108, 0
2, 234210, Note_on_c, 0, 106, 0
2, 234210, Note_on_c, 0, 94, 0
2, 234210, Note_on_c, 0, 70, 0
2, 234210, Note_on_c, 0, 82, 0
2, 234210, Note_on_c, 0, 105, 100
2, 234210, Note_on_c, 0, 93, 100
2, 234210, Note_on_c, 0, 69, 100
2, 234210, Note_on_c, 0, 81, 100
2, 234240, Note_on_c, 0, 96, 100
2, 234240, Note_on_c, 0, 98, 100
2, 234240, Note_on_c, 0, 84, 100
2, 234240, Note_on_c, 0, 86, 100
2, 234240, Note_on_c, 0, 72, 100
2, 234240, Note_on_c, 0, 73, 100
2, 234240, Note_on_c, 0, 60, 100
2, 234240, Note_on_c, 0, 108, 100
2, 234480, Note_on_c, 0, 96, 0
2, 234480, Note_on_c, 0, 98, 0
2, 234480, Note_on_c, 0, 84, 0
2, 234480, Note_on_c, 0, 86, 0
2, 234480, Note_on_c, 0, 72, 0
2, 234480, Note_on_c, 0, 73, 0
2, 234480, Note_on_c, 0, 60, 0
2, 234608, Note_on_c, 0, 108, 0
2, 234720, Note_on_c, 0, 96, 100
2, 234720, Note_on_c, 0, 98, 100
2, 234720, Note_on_c, 0, 84, 100
2, 234720, Note_on_c, 0, 86, 100
2, 234720, Note_on_c, 0, 72, 100
2, 234720, Note_on_c, 0, 73, 100
2, 234720, Note_on_c, 0, 60, 100
2, 234720, Note_on_c, 0, 108, 100
2, 234840, Note_on_c, 0, 108, 0
2, 234960, Note_on_c, 0, 96, 0
2, 234960, Note_on_c, 0, 98, 0
2, 234960, Note_on_c, 0, 84, 0
2, 234960, Note_on_c, 0, 86, 0
2, 234960, Note_on_c, 0, 72, 0
2, 234960, Note_on_c, 0, 73, 0
2, 234960, Note_on_c, 0, 60, 0
2, 234960, Note_on_c, 0, 108, 100
2, 235380, Note_on_c, 0, 108, 0
2, 235410, Note_on_c, 0, 106, 100
2, 235410, Note_on_c, 0, 94, 100
2, 235410, Note_on_c, 0, 70, 100
2, 235410, Note_on_c, 0, 82, 100
2, 235440, Note_on_c, 0, 97, 100
2, 235440, Note_on_c, 0, 85, 100
2, 235440, Note_on_c, 0, 72, 100
2, 235680, Note_on_c, 0, 72, 0
2, 235982, Note_on_c, 0, 108, 100
2, 236042, Note_on_c, 0, 108, 0
2, 236130, Note_on_c, 0, 105, 0
2, 236130, Note_on_c, 0, 93, 0
2, 236130, Note_on_c, 0, 69, 0
2, 236130, Note_on_c, 0, 81, 0
2, 236160, Note_on_c, 0, 97, 0
2, 236160, Note_on_c, 0, 85, 0
2, 236160, Note_on_c, 0, 97, 100
2, 236160, Note_on_c, 0, 99, 100
2, 236160, Note_on_c, 0, 85, 100
2, 236160, Note_on_c, 0, 86, 100
2, 236160, Note_on_c, 0, 73, 100
2, 236160, Note_on_c, 0, 61, 100
2, 236160, Note_on_c, 0, 108, 100
2, 236280, Note_on_c, 0, 108, 0
2, 236400, Note_on_c, 0, 97, 0
2, 236400, Note_on_c, 0, 99, 0
2, 236400, Note_on_c, 0, 85, 0
2, 236400, Note_on_c, 0, 86, 0
2, 236400, Note_on_c, 0, 73, 0
2, 236400, Note_on_c, 0, 61, 0
2, 236400, Note_on_c, 0, 108, 100
2, 236520, Note_on_c, 0, 108, 0
2, 236640, Note_on_c, 0, 97, 100
2, 236640, Note_on_c, 0, 99, 100
2, 236640, Note_on_c, 0, 85, 100
2, 236640, Note_on_c, 0, 86, 100
2, 236640, Note_on_c, 0, 73, 100
2, 236640, Note_on_c, 0, 61, 100
2, 236640, Note_on_c, 0, 108, 100
2, 236760, Note_on_c, 0, 108, 0
2, 236880, Note_on_c, 0, 97, 0
2, 236880, Note_on_c, 0, 99, 0
2, 236880, Note_on_c, 0, 85, 0
2, 236880, Note_on_c, 0, 86, 0
2, 236880, Note_on_c, 0, 73, 0
2, 236880, Note_on_c, 0, 61, 0
2, 236880, Note_on_c, 0, 108, 100
2, 237000, Note_on_c, 0, 108, 0
2, 237120, Note_on_c, 0, 108, 100
2, 237316, Note_on_c, 0, 108, 0
2, 237600, Note_on_c, 0, 108, 100
2, 237928, Note_on_c, 0, 108, 0
2, 238050, Note_on_c, 0, 103, 100
2, 238050, Note_on_c, 0, 91, 100
2, 238050, Note_on_c, 0, 79, 100
2, 238050, Note_on_c, 0, 67, 100
2, 238050, Note_on_c, 0, 105, 100
2, 238050, Note_on_c, 0, 93, 100
2, 238050, Note_on_c, 0, 69, 100
2, 238050, Note_on_c, 0, 81, 100
2, 238080, Note_on_c, 0, 98, 100
2, 238080, Note_on_c, 0, 100, 100
2, 238080, Note_on_c, 0, 85, 100
2, 238080, Note_on_c, 0, 87, 100
2, 238080, Note_on_c, 0, 73, 100
2, 238080, Note_on_c, 0, 74, 100
2, 238080, Note_on_c, 0, 62, 100
2, 238080, Note_on_c, 0, 108, 100
2, 238320, Note_on_c, 0, 98, 0
2, 238320, Note_on_c, 0, 100, 0
2, 238320, Note_on_c, 0, 85, 0
2, 238320, Note_on_c, 0, 87, 0
2, 238320, Note_on_c, 0, 73, 0
2, 238320, Note_on_c, 0, 74, 0
2, 238320, Note_on_c, 0, 62, 0
2, 238418, Note_on_c, 0, 108, 0
2, 238560, Note_on_c, 0, 97, 100
2, 238560, Note_on_c, 0, 85, 100
2, 238572, Note_on_c, 0, 108, 100
2, 238800, Note_on_c, 0, 97, 0
2, 238800, Note_on_c, 0, 85, 0
2, 238906, Note_on_c, 0, 108, 0
2, 239010, Note_on_c, 0, 106, 0
2, 239010, Note_on_c, 0, 94, 0
2, 239010, Note_on_c, 0, 70, 0
2, 239010, Note_on_c, 0, 82, 0
2, 239010, Note_on_c, 0, 103, 0
2, 239010, Note_on_c, 0, 91, 0
2, 239010, Note_on_c, 0, 79, 0
2, 239010, Note_on_c, 0, 67, 0
2, 239040, Text_t, "[lighting (sweep)]"
2, 239040, Note_on_c, 0, 96, 100
2, 239040, Note_on_c, 0, 98, 100
2, 239040, Note_on_c, 0, 84, 100
2, 239040, Note_on_c, 0, 86, 100
2, 239040, Note_on_c, 0, 72, 100
2, 239040, Note_on_c, 0, 73, 100
2, 239040, Note_on_c, 0, 60, 100
2, 239040, Note_on_c, 0, 108, 100
2, 239280, Note_on_c, 0, 96, 0
2, 239280, Note_on_c, 0, 98, 0
2, 239280, Note_on_c, 0, 84, 0
2, 239280, Note_on_c, 0, 86, 0
2, 239280, Note_on_c, 0, 72, 0
2, 239280, Note_on_c, 0, 73, 0
2, 239280, Note_on_c, 0, 60, 0
2, 239490, Note_on_c, 0, 105, 0
2, 239490, Note_on_c, 0, 93, 0
2, 239490, Note_on_c, 0, 69, 0
2, 239490, Note_on_c, 0, 81, 0
2, 239490, Note_on_c, 0, 106, 100
2, 239490, Note_on_c, 0, 94, 100
2, 239490, Note_on_c, 0, 70, 100
2, 239490, Note_on_c, 0, 82, 100
2, 239520, Note_on_c, 0, 96, 100
2, 239520, Note_on_c, 0, 98, 100
2, 239520, Note_on_c, 0, 84, 100
2, 239520, Note_on_c, 0, 86, 100
2, 239520, Note_on_c, 0, 72, 100
2, 239520, Note_on_c, 0, 73, 100
2, 239520, Note_on_c, 0, 60, 100
2, 239760, Note_on_c, 0, 96, 0
2, 239760, Note_on_c, 0, 98, 0
2, 239760, Note_on_c, 0, 84, 0
2, 239760, Note_on_c, 0, 86, 0
2, 239760, Note_on_c, 0, 72, 0
2, 239760, Note_on_c, 0, 73, 0
2, 239760, Note_on_c, 0, 60, 0
2, 239820, Note_on_c, 0, 108, 0
2, 239970, Note_on_c, 0, 106, 0
2, 239970, Note_on_c, 0, 94, 0
2, 239970, Note_on_c, 0, 70, 0
2, 239970, Note_on_c, 0, 82, 0
2, 240000, Note_on_c, 0, 108, 100
2, 240840, Note_on_c, 0, 108, 0
2, 240930, Note_on_c, 0, 106, 100
2, 240930, Note_on_c, 0, 94, 100
2, 240930, Note_on_c, 0, 70, 100
2, 240930, Note_on_c, 0, 82, 100
2, 240960, Note_on_c, 0, 96, 100
2, 240960, Note_on_c, 0, 98, 100
2, 240960, Note_on_c, 0, 84, 100
2, 240960, Note_on_c, 0, 86, 100
2, 240960, Note_on_c, 0, 72, 100
2, 240960, Note_on_c, 0, 73, 100
2, 240960, Note_on_c, 0, 60, 100
2, 240960, Note_on_c, 0, 108, 100
2, 241200, Note_on_c, 0, 96, 0
2, 241200, Note_on_c, 0, 98, 0
2, 241200, Note_on_c, 0, 84, 0
2, 241200, Note_on_c, 0, 86, 0
2, 241200, Note_on_c, 0, 72, 0
2, 241200, Note_on_c, 0, 73, 0
2, 241200, Note_on_c, 0, 60, 0
2, 241328, Note_on_c, 0, 108, 0
2, 241410, Note_on_c, 0, 106, 0
2, 241410, Note_on_c, 0, 94, 0
2, 241410, Note_on_c, 0, 70, 0
2, 241410, Note_on_c, 0, 82, 0
2, 241410, Note_on_c, 0, 105, 100
2, 241410, Note_on_c, 0, 93, 100
2, 241410, Note_on_c, 0, 69, 100
2, 241410, Note_on_c, 0, 81, 100
2, 241440, Note_on_c, 0, 96, 100
2, 241440, Note_on_c, 0, 98, 100
2, 241440, Note_on_c, 0, 84, 100
2, 241440, Note_on_c, 0, 86, 100
2, 241440, Note_on_c, 0, 72, 100
2, 241440, Note_on_c, 0, 73, 100
2, 241440, Note_on_c, 0, 60, 100
2, 241440, Note_on_c, 0, 108, 100
2, 241560, Note_on_c, 0, 108, 0
2, 241680, Note_on_c, 0, 96, 0
2, 241680, Note_on_c, 0, 98, 0
2, 241680, Note_on_c, 0, 84, 0
2, 241680, Note_on_c, 0, 86, 0
2, 241680, Note_on_c, 0, 72, 0
2, 241680, Note_on_c, 0, 73, 0
2, 241680, Note_on_c, 0, 60, 0
2, 241680, Note_on_c, 0, 108, 100
2, 242130, Note_on_c, 0, 106, 100
2, 242130, Note_on_c, 0, 94, 100
2, 242130, Note_on_c, 0, 70, 100
2, 242130, Note_on_c, 0, 82, 100
2, 242146, Note_on_c, 0, 108, 0
2, 242160, Note_on_c, 0, 97, 100
2, 242160, Note_on_c, 0, 85, 100
2, 242160, Note_on_c, 0, 72, 100
2, 242400, Note_on_c, 0, 72, 0
2, 242694, Note_on_c, 0, 108, 100
2, 242754, Note_on_c, 0, 108, 0
2, 242850, Note_on_c, 0, 105, 0
2, 242850, Note_on_c, 0, 93, 0
2, 242850, Note_on_c, 0, 69, 0
2, 242850, Note_on_c, 0, 81, 0
2, 242880, Note_on_c, 0, 97, 0
2, 242880, Note_on_c, 0, 85, 0
2, 242880, Note_on_c, 0, 97, 100
2, 242880, Note_on_c, 0, 99, 100
2, 242880, Note_on_c, 0, 85, 100
2, 242880, Note_on_c, 0, 86, 100
2, 242880, Note_on_c, 0, 73, 100
2, 242880, Note_on_c, 0, 61, 100
2, 242880, Note_on_c, 0, 108, 100
2, 242978, Note_on_c, 0, 108, 0
2, 243120, Note_on_c, 0, 97, 0
2, 243120, Note_on_c, 0, 99, 0
2, 243120, Note_on_c, 0, 85, 0
2, 243120, Note_on_c, 0, 86, 0
2, 243120, Note_on_c, 0, 73, 0
2, 243120, Note_on_c, 0, 61, 0
2, 243120, Note_on_c, 0, 108, 100
2, 243218, Note_on_c, 0, 108, 0
2, 243330, Note_on_c, 0, 106, 0
2, 243330, Note_on_c, 0, 94, 0
2, 243330, Note_on_c, 0, 70, 0
2, 243330, Note_on_c, 0, 82, 0
2, 243330, Note_on_c, 0, 105, 100
2, 243330, Note_on_c, 0, 93, 100
2, 243330, Note_on_c, 0, 69, 100
2, 243330, Note_on_c, 0, 81, 100
2, 243360, Note_on_c, 0, 97, 100
2, 243360, Note_on_c, 0, 99, 100
2, 243360, Note_on_c, 0, 85, 100
2, 243360, Note_on_c, 0, 86, 100
2, 243360, Note_on_c, 0, 73, 100
2, 243360, Note_on_c, 0, 61, 100
2, 243360, Note_on_c, 0, 108, 100
2, 243432, Note_on_c, 0, 108, 0
2, 243556, Note_on_c, 0, 108, 100
2, 243600, Note_on_c, 0, 97, 0
2, 243600, Note_on_c, 0, 99, 0
2, 243600, Note_on_c, 0, 85, 0
2, 243600, Note_on_c, 0, 86, 0
2, 243600, Note_on_c, 0, 73, 0
2, 243600, Note_on_c, 0, 61, 0
2, 243616, Note_on_c, 0, 108, 0
2, 243742, Note_on_c, 0, 108, 100
2, 243810, Note_on_c, 0, 105, 0
2, 243810, Note_on_c, 0, 93, 0
2, 243810, Note_on_c, 0, 69, 0
2, 243810, Note_on_c, 0, 81, 0
2, 243906, Note_on_c, 0, 108, 0
2, 244320, Note_on_c, 0, 108, 100
2, 244442, Note_on_c, 0, 108, 0
2, 244560, Note_on_c, 0, 108, 100
2, 244620, Note_on_c, 0, 108, 0
2, 244770, Note_on_c, 0, 105, 100
2, 244770, Note_on_c, 0, 93, 100
2, 244770, Note_on_c, 0, 69, 100
2, 244770, Note_on_c, 0, 81, 100
2, 244800, Note_on_c, 0, 98, 100
2, 244800, Note_on_c, 0, 100, 100
2, 244800, Note_on_c, 0, 85, 100
2, 244800, Note_on_c, 0, 87, 100
2, 244800, Note_on_c, 0, 73, 100
2, 244800, Note_on_c, 0, 74, 100
2, 244800, Note_on_c, 0, 62, 100
2, 244800, Note_on_c, 0, 108, 100
2, 244980, Note_on_c, 0, 108, 0
2, 245040, Note_on_c, 0, 98, 0
2, 245040, Note_on_c, 0, 100, 0
2, 245040, Note_on_c, 0, 85, 0
2, 245040, Note_on_c, 0, 87, 0
2, 245040, Note_on_c, 0, 73, 0
2, 245040, Note_on_c, 0, 74, 0
2, 245040, Note_on_c, 0, 62, 0
2, 245040, Note_on_c, 0, 108, 100
2, 245250, Note_on_c, 0, 105, 0
2, 245250, Note_on_c, 0, 93, 0
2, 245250, Note_on_c, 0, 69, 0
2, 245250, Note_on_c, 0, 81, 0
2, 245250, Note_on_c, 0, 106, 100
2, 245250, Note_on_c, 0, 94, 100
2, 245250, Note_on_c, 0, 70, 100
2, 245250, Note_on_c, 0, 82, 100
2, 245280, Note_on_c, 0, 98, 100
2, 245280, Note_on_c, 0, 100, 100
2, 245280, Note_on_c, 0, 85, 100
2, 245280, Note_on_c, 0, 87, 100
2, 245280, Note_on_c, 0, 73, 100
2, 245280, Note_on_c, 0, 74, 100
2, 245280, Note_on_c, 0, 62, 100
2, 245436, Note_on_c, 0, 108, 0
2, 245520, Note_on_c, 0, 98, 0
2, 245520, Note_on_c, 0, 100, 0
2, 245520, Note_on_c, 0, 85, 0
2, 245520, Note_on_c, 0, 87, 0
2, 245520, Note_on_c, 0, 73, 0
2, 245520, Note_on_c, 0, 74, 0
2, 245520, Note_on_c, 0, 62, 0
2, 245520, Note_on_c, 0, 108, 100
2, 245730, Note_on_c, 0, 106, 0
2, 245730, Note_on_c, 0, 94, 0
2, 245730, Note_on_c, 0, 70, 0
2, 245730, Note_on_c, 0, 82, 0
2, 245880, Note_on_c, 0, 108, 0
2, 246000, Note_on_c, 0, 108, 100
2, 246402, Note_on_c, 0, 108, 0
2, 246690, Note_on_c, 0, 106, 100
2, 246690, Note_on_c, 0, 94, 100
2, 246690, Note_on_c, 0, 70, 100
2, 246690, Note_on_c, 0, 82, 100
2, 246720, Note_on_c, 0, 96, 100
2, 246720, Note_on_c, 0, 98, 100
2, 246720, Note_on_c, 0, 84, 100
2, 246720, Note_on_c, 0, 86, 100
2, 246720, Note_on_c, 0, 72, 100
2, 246720, Note_on_c, 0, 73, 100
2, 246720, Note_on_c, 0, 60, 100
2, 246720, Note_on_c, 0, 108, 100
2, 246960, Note_on_c, 0, 96, 0
2, 246960, Note_on_c, 0, 98, 0
2, 246960, Note_on_c, 0, 84, 0
2, 246960, Note_on_c, 0, 86, 0
2, 246960, Note_on_c, 0, 72, 0
2, 246960, Note_on_c, 0, 73, 0
2, 246960, Note_on_c, 0, 60, 0
2, 247170, Note_on_c, 0, 106, 0
2, 247170, Note_on_c, 0, 94, 0
2, 247170, Note_on_c, 0, 70, 0
2, 247170, Note_on_c, 0, 82, 0
2, 247170, Note_on_c, 0, 105, 100
2, 247170, Note_on_c, 0, 93, 100
2, 247170, Note_on_c, 0, 69, 100
2, 247170, Note_on_c, 0, 81, 100
2, 247200, Note_on_c, 0, 96, 100
2, 247200, Note_on_c, 0, 98, 100
2, 247200, Note_on_c, 0, 84, 100
2, 247200, Note_on_c, 0, 86, 100
2, 247200, Note_on_c, 0, 72, 100
2, 247200, Note_on_c, 0, 73, 100
2, 247200, Note_on_c, 0, 60, 100
2, 247440, Note_on_c, 0, 96, 0
2, 247440, Note_on_c, 0, 98, 0
2, 247440, Note_on_c, 0, 84, 0
2, 247440, Note_on_c, 0, 86, 0
2, 247440, Note_on_c, 0, 72, 0
2, 247440, Note_on_c, 0, 73, 0
2, 247440, Note_on_c, 0, 60, 0
2, 247590, Note_on_c, 0, 108, 0
2, 247650, Note_on_c, 0, 105, 0
2, 247650, Note_on_c, 0, 93, 0
2, 247650, Note_on_c, 0, 69, 0
2, 247650, Note_on_c, 0, 81, 0
2, 247680, Note_on_c, 0, 108, 100
2, 248520, Note_on_c, 0, 108, 0
2, 248610, Note_on_c, 0, 105, 100
2, 248610, Note_on_c, 0, 93, 100
2, 248610, Note_on_c, 0, 69, 100
2, 248610, Note_on_c, 0, 81, 100
2, 248640, Note_on_c, 0, 96, 100
2, 248640, Note_on_c, 0, 98, 100
2, 248640, Note_on_c, 0, 84, 100
2, 248640, Note_on_c, 0, 86, 100
2, 248640, Note_on_c, 0, 72, 100
2, 248640, Note_on_c, 0, 73, 100
2, 248640, Note_on_c, 0, 60, 100
2, 248640, Note_on_c, 0, 108, 100
2, 248880, Note_on_c, 0, 96, 0
2, 248880, Note_on_c, 0, 98, 0
2, 248880, Note_on_c, 0, 84, 0
2, 248880, Note_on_c, 0, 86, 0
2, 248880, Note_on_c, 0, 72, 0
2, 248880, Note_on_c, 0, 73, 0
2, 248880, Note_on_c, 0, 60, 0
2, 249008, Note_on_c, 0, 108, 0
2, 249090, Note_on_c, 0, 105, 0
2, 249090, Note_on_c, 0, 93, 0
2, 249090, Note_on_c, 0, 69, 0
2, 249090, Note_on_c, 0, 81, 0
2, 249090, Note_on_c, 0, 106, 100
2, 249090, Note_on_c, 0, 94, 100
2, 249090, Note_on_c, 0, 70, 100
2, 249090, Note_on_c, 0, 82, 100
2, 249120, Note_on_c, 0, 96, 100
2, 249120, Note_on_c, 0, 98, 100
2, 249120, Note_on_c, 0, 84, 100
2, 249120, Note_on_c, 0, 86, 100
2, 249120, Note_on_c, 0, 72, 100
2, 249120, Note_on_c, 0, 73, 100
2, 249120, Note_on_c, 0, 60, 100
2, 249120, Note_on_c, 0, 108, 100
2, 249240, Note_on_c, 0, 108, 0
2, 249360, Note_on_c, 0, 96, 0
2, 249360, Note_on_c, 0, 98, 0
2, 249360, Note_on_c, 0, 84, 0
2, 249360, Note_on_c, 0, 86, 0
2, 249360, Note_on_c, 0, 72, 0
2, 249360, Note_on_c, 0, 73, 0
2, 249360, Note_on_c, 0, 60, 0
2, 249360, Note_on_c, 0, 108, 100
2, 249810, Note_on_c, 0, 105, 100
2, 249810, Note_on_c, 0, 93, 100
2, 249810, Note_on_c, 0, 69, 100
2, 249810, Note_on_c, 0, 81, 100
2, 249826, Note_on_c, 0, 108, 0
2, 249840, Note_on_c, 0, 97, 100
2, 249840, Note_on_c, 0, 85, 100
2, 249840, Note_on_c, 0, 72, 100
2, 250080, Note_on_c, 0, 72, 0
2, 250312, Note_on_c, 0, 108, 100
2, 250456, Note_on_c, 0, 108, 0
2, 250530, Note_on_c, 0, 106, 0
2, 250530, Note_on_c, 0, 94, 0
2, 250530, Note_on_c, 0, 70, 0
2, 250530, Note_on_c, 0, 82, 0
2, 250560, Note_on_c, 0, 97, 0
2, 250560, Note_on_c, 0, 85, 0
2, 250560, Note_on_c, 0, 97, 100
2, 250560, Note_on_c, 0, 99, 100
2, 250560, Note_on_c, 0, 85, 100
2, 250560, Note_on_c, 0, 86, 100
2, 250560, Note_on_c, 0, 73, 100
2, 250560, Note_on_c, 0, 61, 100
2, 250560, Note_on_c, 0, 108, 100
2, 250680, Note_on_c, 0, 108, 0
2, 250800, Note_on_c, 0, 97, 0
2, 250800, Note_on_c, 0, 99, 0
2, 250800, Note_on_c, 0, 85, 0
2, 250800, Note_on_c, 0, 86, 0
2, 250800, Note_on_c, 0, 73, 0
2, 250800, Note_on_c, 0, 61, 0
2, 250800, Note_on_c, 0, 108, 100
2, 250920, Note_on_c, 0, 108, 0
2, 251010, Note_on_c, 0, 105, 0
2, 251010, Note_on_c, 0, 93, 0
2, 251010, Note_on_c, 0, 69, 0
2, 251010, Note_on_c, 0, 81, 0
2, 251010, Note_on_c, 0, 106, 100
2, 251010, Note_on_c, 0, 94, 100
2, 251010, Note_on_c, 0, 70, 100
2, 251010, Note_on_c, 0, 82, 100
2, 251040, Note_on_c, 0, 97, 100
2, 251040, Note_on_c, 0, 99, 100
2, 251040, Note_on_c, 0, 85, 100
2, 251040, Note_on_c, 0, 86, 100
2, 251040, Note_on_c, 0, 73, 100
2, 251040, Note_on_c, 0, 61, 100
2, 251040, Note_on_c, 0, 108, 100
2, 251160, Note_on_c, 0, 108, 0
2, 251280, Note_on_c, 0, 97, 0
2, 251280, Note_on_c, 0, 99, 0
2, 251280, Note_on_c, 0, 85, 0
2, 251280, Note_on_c, 0, 86, 0
2, 251280, Note_on_c, 0, 73, 0
2, 251280, Note_on_c, 0, 61, 0
2, 251280, Note_on_c, 0, 108, 100
2, 251400, Note_on_c, 0, 108, 0
2, 251520, Note_on_c, 0, 108, 100
2, 251716, Note_on_c, 0, 108, 0
2, 252000, Note_on_c, 0, 108, 100
2, 252388, Note_on_c, 0, 108, 0
2, 252480, Note_on_c, 0, 98, 100
2, 252480, Note_on_c, 0, 100, 100
2, 252480, Note_on_c, 0, 85, 100
2, 252480, Note_on_c, 0, 87, 100
2, 252480, Note_on_c, 0, 73, 100
2, 252480, Note_on_c, 0, 74, 100
2, 252480, Note_on_c, 0, 62, 100
2, 252480, Note_on_c, 0, 108, 100
2, 252720, Note_on_c, 0, 98, 0
2, 252720, Note_on_c, 0, 100, 0
2, 252720, Note_on_c, 0, 85, 0
2, 252720, Note_on_c, 0, 87, 0
2, 252720, Note_on_c, 0, 73, 0
2, 252720, Note_on_c, 0, 74, 0
2, 252720, Note_on_c, 0, 62, 0
2, 252878, Note_on_c, 0, 108, 0
2, 252930, Note_on_c, 0, 106, 0
2, 252930, Note_on_c, 0, 94, 0
2, 252930, Note_on_c, 0, 70, 0
2, 252930, Note_on_c, 0, 82, 0
2, 252930, Note_on_c, 0, 105, 100
2, 252930, Note_on_c, 0, 93, 100
2, 252930, Note_on_c, 0, 69, 100
2, 252930, Note_on_c, 0, 81, 100
2, 252960, Note_on_c, 0, 97, 100
2, 252960, Note_on_c, 0, 85, 100
2, 252972, Note_on_c, 0, 108, 100
2, 253200, Note_on_c, 0, 97, 0
2, 253200, Note_on_c, 0, 85, 0
2, 253366, Note_on_c, 0, 108, 0
2, 253410, Note_on_c, 0, 106, 100
2, 253410, Note_on_c, 0, 94, 100
2, 253410, Note_on_c, 0, 70, 100
2, 253410, Note_on_c, 0, 82, 100
2, 253440, Note_on_c, 0, 96, 100
2, 253440, Note_on_c, 0, 98, 100
2, 253440, Note_on_c, 0, 84, 100
2, 253440, Note_on_c, 0, 86, 100
2, 253440, Note_on_c, 0, 72, 100
2, 253440, Note_on_c, 0, 73, 100
2, 253440, Note_on_c, 0, 60, 100
2, 253452, Note_on_c, 0, 108, 100
2, 253680, Note_on_c, 0, 96, 0
2, 253680, Note_on_c, 0, 98, 0
2, 253680, Note_on_c, 0, 84, 0
2, 253680, Note_on_c, 0, 86, 0
2, 253680, Note_on_c, 0, 72, 0
2, 253680, Note_on_c, 0, 73, 0
2, 253680, Note_on_c, 0, 60, 0
2, 253920, Note_on_c, 0, 96, 100
2, 253920, Note_on_c, 0, 98, 100
2, 253920, Note_on_c, 0, 84, 100
2, 253920, Note_on_c, 0, 86, 100
2, 253920, Note_on_c, 0, 72, 100
2, 253920, Note_on_c, 0, 73, 100
2, 253920, Note_on_c, 0, 60, 100
2, 254160, Note_on_c, 0, 96, 0
2, 254160, Note_on_c, 0, 98, 0
2, 254160, Note_on_c, 0, 84, 0
2, 254160, Note_on_c, 0, 86, 0
2, 254160, Note_on_c, 0, 72, 0
2, 254160, Note_on_c, 0, 73, 0
2, 254160, Note_on_c, 0, 60, 0
2, 254292, Note_on_c, 0, 108, 0
2, 254412, Note_on_c, 0, 108, 100
2, 255274, Note_on_c, 0, 108, 0
2, 255360, Note_on_c, 0, 96, 100
2, 255360, Note_on_c, 0, 98, 100
2, 255360, Note_on_c, 0, 84, 100
2, 255360, Note_on_c, 0, 86, 100
2, 255360, Note_on_c, 0, 72, 100
2, 255360, Note_on_c, 0, 73, 100
2, 255360, Note_on_c, 0, 60, 100
2, 255372, Note_on_c, 0, 108, 100
2, 255600, Note_on_c, 0, 96, 0
2, 255600, Note_on_c, 0, 98, 0
2, 255600, Note_on_c, 0, 84, 0
2, 255600, Note_on_c, 0, 86, 0
2, 255600, Note_on_c, 0, 72, 0
2, 255600, Note_on_c, 0, 73, 0
2, 255600, Note_on_c, 0, 60, 0
2, 255800, Note_on_c, 0, 108, 0
2, 255840, Note_on_c, 0, 96, 100
2, 255840, Note_on_c, 0, 98, 100
2, 255840, Note_on_c, 0, 84, 100
2, 255840, Note_on_c, 0, 86, 100
2, 255840, Note_on_c, 0, 72, 100
2, 255840, Note_on_c, 0, 73, 100
2, 255840, Note_on_c, 0, 60, 100
2, 255852, Note_on_c, 0, 108, 100
2, 256032, Note_on_c, 0, 108, 0
2, 256080, Note_on_c, 0, 96, 0
2, 256080, Note_on_c, 0, 98, 0
2, 256080, Note_on_c, 0, 84, 0
2, 256080, Note_on_c, 0, 86, 0
2, 256080, Note_on_c, 0, 72, 0
2, 256080, Note_on_c, 0, 73, 0
2, 256080, Note_on_c, 0, 60, 0
2, 256092, Note_on_c, 0, 108, 100
2, 256560, Note_on_c, 0, 108, 0
2, 256560, Note_on_c, 0, 97, 100
2, 256560, Note_on_c, 0, 85, 100
2, 256560, Note_on_c, 0, 72, 100
2, 256800, Note_on_c, 0, 72, 0
2, 257114, Note_on_c, 0, 108, 100
2, 257218, Note_on_c, 0, 108, 0
2, 257280, Note_on_c, 0, 97, 0
2, 257280, Note_on_c, 0, 85, 0
2, 257280, Note_on_c, 0, 97, 100
2, 257280, Note_on_c, 0, 99, 100
2, 257280, Note_on_c, 0, 86, 100
2, 257280, Note_on_c, 0, 73, 100
2, 257280, Note_on_c, 0, 61, 100
2, 257280, Note_on_c, 0, 85, 100
2, 257292, Note_on_c, 0, 108, 100
2, 257452, Note_on_c, 0, 108, 0
2, 257520, Note_on_c, 0, 97, 0
2, 257520, Note_on_c, 0, 99, 0
2, 257520, Note_on_c, 0, 86, 0
2, 257520, Note_on_c, 0, 73, 0
2, 257520, Note_on_c, 0, 61, 0
2, 257520, Note_on_c, 0, 85, 0
2, 257532, Note_on_c, 0, 108, 100
2, 257692, Note_on_c, 0, 108, 0
2, 257760, Note_on_c, 0, 97, 100
2, 257760, Note_on_c, 0, 99, 100
2, 257760, Note_on_c, 0, 85, 100
2, 257760, Note_on_c, 0, 86, 100
2, 257760, Note_on_c, 0, 73, 100
2, 257760, Note_on_c, 0, 61, 100
2, 257772, Note_on_c, 0, 108, 100
2, 257904, Note_on_c, 0, 108, 0
2, 257968, Note_on_c, 0, 108, 100
2, 258000, Note_on_c, 0, 97, 0
2, 258000, Note_on_c, 0, 99, 0
2, 258000, Note_on_c, 0, 85, 0
2, 258000, Note_on_c, 0, 86, 0
2, 258000, Note_on_c, 0, 73, 0
2, 258000, Note_on_c, 0, 61, 0
2, 258088, Note_on_c, 0, 108, 0
2, 258156, Note_on_c, 0, 108, 100
2, 258314, Note_on_c, 0, 108, 0
2, 258732, Note_on_c, 0, 108, 100
2, 258916, Note_on_c, 0, 108, 0
2, 258972, Note_on_c, 0, 108, 100
2, 259092, Note_on_c, 0, 108, 0
2, 259200, Note_on_c, 0, 98, 100
2, 259200, Note_on_c, 0, 100, 100
2, 259200, Note_on_c, 0, 85, 100
2, 259200, Note_on_c, 0, 87, 100
2, 259200, Note_on_c, 0, 73, 100
2, 259200, Note_on_c, 0, 74, 100
2, 259200, Note_on_c, 0, 62, 100
2, 259212, Note_on_c, 0, 108, 100
2, 259332, Note_on_c, 0, 108, 0
2, 259440, Note_on_c, 0, 98, 0
2, 259440, Note_on_c, 0, 100, 0
2, 259440, Note_on_c, 0, 85, 0
2, 259440, Note_on_c, 0, 87, 0
2, 259440, Note_on_c, 0, 73, 0
2, 259440, Note_on_c, 0, 74, 0
2, 259440, Note_on_c, 0, 62, 0
2, 259452, Note_on_c, 0, 108, 100
2, 259680, Note_on_c, 0, 98, 100
2, 259680, Note_on_c, 0, 100, 100
2, 259680, Note_on_c, 0, 85, 100
2, 259680, Note_on_c, 0, 87, 100
2, 259680, Note_on_c, 0, 73, 100
2, 259680, Note_on_c, 0, 74, 100
2, 259680, Note_on_c, 0, 62, 100
2, 259812, Note_on_c, 0, 108, 0
2, 259920, Note_on_c, 0, 98, 0
2, 259920, Note_on_c, 0, 100, 0
2, 259920, Note_on_c, 0, 85, 0
2, 259920, Note_on_c, 0, 87, 0
2, 259920, Note_on_c, 0, 73, 0
2, 259920, Note_on_c, 0, 74, 0
2, 259920, Note_on_c, 0, 62, 0
2, 259932, Note_on_c, 0, 108, 100
2, 260346, Note_on_c, 0, 108, 0
2, 260412, Note_on_c, 0, 108, 100
2, 260814, Note_on_c, 0, 108, 0
2, 261120, Note_on_c, 0, 96, 100
2, 261120, Note_on_c, 0, 98, 100
2, 261120, Note_on_c, 0, 84, 100
2, 261120, Note_on_c, 0, 86, 100
2, 261120, Note_on_c, 0, 72, 100
2, 261120, Note_on_c, 0, 73, 100
2, 261120, Note_on_c, 0, 60, 100
2, 261132, Note_on_c, 0, 108, 100
2, 261360, Note_on_c, 0, 96, 0
2, 261360, Note_on_c, 0, 98, 0
2, 261360, Note_on_c, 0, 84, 0
2, 261360, Note_on_c, 0, 86, 0
2, 261360, Note_on_c, 0, 72, 0
2, 261360, Note_on_c, 0, 73, 0
2, 261360, Note_on_c, 0, 60, 0
2, 261600, Note_on_c, 0, 96, 100
2, 261600, Note_on_c, 0, 98, 100
2, 261600, Note_on_c, 0, 84, 100
2, 261600, Note_on_c, 0, 86, 100
2, 261600, Note_on_c, 0, 72, 100
2, 261600, Note_on_c, 0, 73, 100
2, 261600, Note_on_c, 0, 60, 100
2, 261840, Note_on_c, 0, 96, 0
2, 261840, Note_on_c, 0, 98, 0
2, 261840, Note_on_c, 0, 84, 0
2, 261840, Note_on_c, 0, 86, 0
2, 261840, Note_on_c, 0, 72, 0
2, 261840, Note_on_c, 0, 73, 0
2, 261840, Note_on_c, 0, 60, 0
2, 262002, Note_on_c, 0, 108, 0
2, 262092, Note_on_c, 0, 108, 100
2, 262984, Note_on_c, 0, 108, 0
2, 263040, Note_on_c, 0, 96, 100
2, 263040, Note_on_c, 0, 98, 100
2, 263040, Note_on_c, 0, 84, 100
2, 263040, Note_on_c, 0, 86, 100
2, 263040, Note_on_c, 0, 72, 100
2, 263040, Note_on_c, 0, 73, 100
2, 263040, Note_on_c, 0, 60, 100
2, 263052, Note_on_c, 0, 108, 100
2, 263280, Note_on_c, 0, 96, 0
2, 263280, Note_on_c, 0, 98, 0
2, 263280, Note_on_c, 0, 84, 0
2, 263280, Note_on_c, 0, 86, 0
2, 263280, Note_on_c, 0, 72, 0
2, 263280, Note_on_c, 0, 73, 0
2, 263280, Note_on_c, 0, 60, 0
2, 263420, Note_on_c, 0, 108, 0
2, 263520, Note_on_c, 0, 96, 100
2, 263520, Note_on_c, 0, 98, 100
2, 263520, Note_on_c, 0, 84, 100
2, 263520, Note_on_c, 0, 86, 100
2, 263520, Note_on_c, 0, 72, 100
2, 263520, Note_on_c, 0, 73, 100
2, 263520, Note_on_c, 0, 60, 100
2, 263532, Note_on_c, 0, 108, 100
2, 263652, Note_on_c, 0, 108, 0
2, 263760, Note_on_c, 0, 96, 0
2, 263760, Note_on_c, 0, 98, 0
2, 263760, Note_on_c, 0, 84, 0
2, 263760, Note_on_c, 0, 86, 0
2, 263760, Note_on_c, 0, 72, 0
2, 263760, Note_on_c, 0, 73, 0
2, 263760, Note_on_c, 0, 60, 0
2, 263772, Note_on_c, 0, 108, 100
2, 264240, Note_on_c, 0, 108, 0
2, 264240, Note_on_c, 0, 97, 100
2, 264240, Note_on_c, 0, 85, 100
2, 264240, Note_on_c, 0, 72, 100
2, 264480, Note_on_c, 0, 72, 0
2, 264728, Note_on_c, 0, 108, 100
2, 264866, Note_on_c, 0, 108, 0
2, 264960, Note_on_c, 0, 97, 0
2, 264960, Note_on_c, 0, 85, 0
2, 264960, Note_on_c, 0, 97, 100
2, 264960, Note_on_c, 0, 99, 100
2, 264960, Note_on_c, 0, 85, 100
2, 264960, Note_on_c, 0, 86, 100
2, 264960, Note_on_c, 0, 73, 100
2, 264960, Note_on_c, 0, 61, 100
2, 264972, Note_on_c, 0, 108, 100
2, 265092, Note_on_c, 0, 108, 0
2, 265200, Note_on_c, 0, 97, 0
2, 265200, Note_on_c, 0, 99, 0
2, 265200, Note_on_c, 0, 85, 0
2, 265200, Note_on_c, 0, 86, 0
2, 265200, Note_on_c, 0, 73, 0
2, 265200, Note_on_c, 0, 61, 0
2, 265212, Note_on_c, 0, 108, 100
2, 265332, Note_on_c, 0, 108, 0
2, 265440, Note_on_c, 0, 97, 100
2, 265440, Note_on_c, 0, 99, 100
2, 265440, Note_on_c, 0, 85, 100
2, 265440, Note_on_c, 0, 86, 100
2, 265440, Note_on_c, 0, 73, 100
2, 265440, Note_on_c, 0, 61, 100
2, 265452, Note_on_c, 0, 108, 100
2, 265572, Note_on_c, 0, 108, 0
2, 265680, Note_on_c, 0, 97, 0
2, 265680, Note_on_c, 0, 99, 0
2, 265680, Note_on_c, 0, 85, 0
2, 265680, Note_on_c, 0, 86, 0
2, 265680, Note_on_c, 0, 73, 0
2, 265680, Note_on_c, 0, 61, 0
2, 265692, Note_on_c, 0, 108, 100
2, 265812, Note_on_c, 0, 108, 0
2, 265932, Note_on_c, 0, 108, 100
2, 266130, Note_on_c, 0, 108, 0
2, 266412, Note_on_c, 0, 108, 100
2, 266764, Note_on_c, 0, 108, 0
2, 266880, Note_on_c, 0, 98, 100
2, 266880, Note_on_c, 0, 100, 100
2, 266880, Note_on_c, 0, 85, 100
2, 266880, Note_on_c, 0, 87, 100
2, 266880, Note_on_c, 0, 73, 100
2, 266880, Note_on_c, 0, 74, 100
2, 266880, Note_on_c, 0, 62, 100
2, 266892, Note_on_c, 0, 108, 100
2, 267120, Note_on_c, 0, 98, 0
2, 267120, Note_on_c, 0, 100, 0
2, 267120, Note_on_c, 0, 85, 0
2, 267120, Note_on_c, 0, 87, 0
2, 267120, Note_on_c, 0, 73, 0
2, 267120, Note_on_c, 0, 74, 0
2, 267120, Note_on_c, 0, 62, 0
2, 267254, Note_on_c, 0, 108, 0
2, 267360, Note_on_c, 0, 97, 100
2, 267360, Note_on_c, 0, 85, 100
2, 267384, Note_on_c, 0, 108, 100
2, 267600, Note_on_c, 0, 97, 0
2, 267600, Note_on_c, 0, 85, 0
2, 267744, Note_on_c, 0, 108, 0
2, 267840, Text_t, "[idle]"
2, 267840, Text_t, "bass_off"
2, 267840, Text_t, "sing_off"
2, 267840, Text_t, "wail_off"
2, 267840, Note_on_c, 0, 96, 100
2, 267840, Note_on_c, 0, 98, 100
2, 267840, Note_on_c, 0, 84, 100
2, 267840, Note_on_c, 0, 86, 100
2, 267840, Note_on_c, 0, 72, 100
2, 267840, Note_on_c, 0, 73, 100
2, 267840, Note_on_c, 0, 60, 100
2, 267882, Note_on_c, 0, 108, 100
2, 268284, Note_on_c, 0, 108, 0
2, 268530, Note_on_c, 0, 105, 0
2, 268530, Note_on_c, 0, 93, 0
2, 268530, Note_on_c, 0, 69, 0
2, 268530, Note_on_c, 0, 81, 0
2, 268530, Note_on_c, 0, 106, 0
2, 268530, Note_on_c, 0, 94, 0
2, 268530, Note_on_c, 0, 70, 0
2, 268530, Note_on_c, 0, 82, 0
2, 268560, Note_on_c, 0, 96, 0
2, 268560, Note_on_c, 0, 98, 0
2, 268560, Note_on_c, 0, 84, 0
2, 268560, Note_on_c, 0, 86, 0
2, 268560, Note_on_c, 0, 72, 0
2, 268560, Note_on_c, 0, 73, 0
2, 268560, Note_on_c, 0, 60, 0
2, 268560, End_track
3, 0, Start_track
3, 0, Title_t, "ANIM"
3, 7680, Note_on_c, 3, 40, 100
3, 10560, Note_on_c, 3, 40, 0
3, 10800, Note_on_c, 3, 43, 100
3, 11520, Note_on_c, 3, 43, 0
3, 11520, Note_on_c, 3, 45, 100
3, 12480, Note_on_c, 3, 45, 0
3, 13440, Note_on_c, 3, 47, 100
3, 14400, Note_on_c, 3, 47, 0
3, 14640, Note_on_c, 3, 43, 100
3, 15360, Note_on_c, 3, 43, 0
3, 15360, Note_on_c, 3, 40, 100
3, 18240, Note_on_c, 3, 40, 0
3, 18480, Note_on_c, 3, 43, 100
3, 19200, Note_on_c, 3, 43, 0
3, 19200, Note_on_c, 3, 45, 100
3, 20160, Note_on_c, 3, 45, 0
3, 21120, Note_on_c, 3, 47, 100
3, 21840, Note_on_c, 3, 47, 0
3, 22080, Note_on_c, 3, 40, 100
3, 26880, Note_on_c, 3, 40, 0
3, 27840, Note_on_c, 3, 52, 100
3, 28080, Note_on_c, 3, 52, 0
3, 28080, Note_on_c, 3, 50, 100
3, 28320, Note_on_c, 3, 50, 0
3, 28320, Note_on_c, 3, 48, 100
3, 28560, Note_on_c, 3, 48, 0
3, 28800, Note_on_c, 3, 46, 100
3, 29040, Note_on_c, 3, 46, 0
3, 29040, Note_on_c, 3, 44, 100
3, 29280, Note_on_c, 3, 44, 0
3, 29760, Note_on_c, 3, 40, 100
3, 34560, Note_on_c, 3, 40, 0
3, 35520, Note_on_c, 3, 52, 100
3, 35760, Note_on_c, 3, 52, 0
3, 35760, Note_on_c, 3, 50, 100
3, 36000, Note_on_c, 3, 50, 0
3, 36000, Note_on_c, 3, 48, 100
3, 36240, Note_on_c, 3, 48, 0
3, 36480, Note_on_c, 3, 46, 100
3, 36720, Note_on_c, 3, 46, 0
3, 36720, Note_on_c, 3, 44, 100
3, 36960, Note_on_c, 3, 44, 0
3, 37440, Note_on_c, 3, 40, 100
3, 40320, Note_on_c, 3, 40, 0
3, 41280, Note_on_c, 3, 47, 100
3, 42240, Note_on_c, 3, 47, 0
3, 43200, Note_on_c, 3, 52, 100
3, 43440, Note_on_c, 3, 52, 0
3, 43440, Note_on_c, 3, 50, 100
3, 43680, Note_on_c, 3, 50, 0
3, 43680, Note_on_c, 3, 48, 100
3, 43920, Note_on_c, 3, 48, 0
3, 44160, Note_on_c, 3, 46, 100
3, 44400, Note_on_c, 3, 46, 0
3, 44400, Note_on_c, 3, 44, 100
3, 44640, Note_on_c, 3, 44, 0
3, 45120, Note_on_c, 3, 45, 100
3, 46080, Note_on_c, 3, 45, 0
3, 47040, Note_on_c, 3, 47, 100
3, 48000, Note_on_c, 3, 47, 0
3, 48960, Note_on_c, 3, 40, 100
3, 49920, Note_on_c, 3, 40, 0
3, 50880, Note_on_c, 3, 45, 100
3, 58560, Note_on_c, 3, 45, 0
3, 66240, Note_on_c, 3, 47, 100
3, 69840, Note_on_c, 3, 47, 0
3, 70080, Note_on_c, 3, 40, 100
3, 72960, Note_on_c, 3, 40, 0
3, 73200, Note_on_c, 3, 43, 100
3, 73920, Note_on_c, 3, 43, 0
3, 73920, Note_on_c, 3, 45, 100
3, 74880, Note_on_c, 3, 45, 0
3, 75840, Note_on_c, 3, 47, 100
3, 76800, Note_on_c, 3, 47, 0
3, 77760, Note_on_c, 3, 40, 100
3, 80640, Note_on_c, 3, 40, 0
3, 80880, Note_on_c, 3, 43, 100
3, 81600, Note_on_c, 3, 43, 0
3, 81600, Note_on_c, 3, 45, 100
3, 82560, Note_on_c, 3, 45, 0
3, 83520, Note_on_c, 3, 47, 100
3, 84240, Note_on_c, 3, 47, 0
3, 84480, Note_on_c, 3, 40, 100
3, 89280, Note_on_c, 3, 40, 0
3, 90240, Note_on_c, 3, 52, 100
3, 90480, Note_on_c, 3, 52, 0
3, 90480, Note_on_c, 3, 50, 100
3, 90720, Note_on_c, 3, 50, 0
3, 90720, Note_on_c, 3, 48, 100
3, 90960, Note_on_c, 3, 48, 0
3, 91200, Note_on_c, 3, 46, 100
3, 91440, Note_on_c, 3, 46, 0
3, 91440, Note_on_c, 3, 44, 100
3, 91680, Note_on_c, 3, 44, 0
3, 92160, Note_on_c, 3, 40, 100
3, 96960, Note_on_c, 3, 40, 0
3, 97920, Note_on_c, 3, 52, 100
3, 98160, Note_on_c, 3, 52, 0
3, 98160, Note_on_c, 3, 50, 100
3, 98400, Note_on_c, 3, 50, 0
3, 98400, Note_on_c, 3, 48, 100
3, 98640, Note_on_c, 3, 48, 0
3, 98880, Note_on_c, 3, 46, 100
3, 99120, Note_on_c, 3, 46, 0
3, 99120, Note_on_c, 3, 44, 100
3, 99360, Note_on_c, 3, 44, 0
3, 99840, Note_on_c, 3, 40, 100
3, 102720, Note_on_c, 3, 40, 0
3, 103680, Note_on_c, 3, 47, 100
3, 104640, Note_on_c, 3, 47, 0
3, 105600, Note_on_c, 3, 52, 100
3, 105840, Note_on_c, 3, 52, 0
3, 105840, Note_on_c, 3, 50, 100
3, 106080, Note_on_c, 3, 50, 0
3, 106080, Note_on_c, 3, 48, 100
3, 106320, Note_on_c, 3, 48, 0
3, 106560, Note_on_c, 3, 46, 100
3, 106800, Note_on_c, 3, 46, 0
3, 106800, Note_on_c, 3, 44, 100
3, 107040, Note_on_c, 3, 44, 0
3, 107520, Note_on_c, 3, 45, 100
3, 108480, Note_on_c, 3, 45, 0
3, 109440, Note_on_c, 3, 47, 100
3, 110400, Note_on_c, 3, 47, 0
3, 111360, Note_on_c, 3, 40, 100
3, 112320, Note_on_c, 3, 40, 0
3, 113280, Note_on_c, 3, 45, 100
3, 120960, Note_on_c, 3, 45, 0
3, 128640, Note_on_c, 3, 47, 100
3, 132240, Note_on_c, 3, 47, 0
3, 132480, Note_on_c, 3, 40, 100
3, 135360, Note_on_c, 3, 40, 0
3, 135600, Note_on_c, 3, 43, 100
3, 136320, Note_on_c, 3, 43, 0
3, 136320, Note_on_c, 3, 45, 100
3, 137280, Note_on_c, 3, 45, 0
3, 138240, Note_on_c, 3, 47, 100
3, 139200, Note_on_c, 3, 47, 0
3, 140160, Note_on_c, 3, 40, 100
3, 143040, Note_on_c, 3, 40, 0
3, 143280, Note_on_c, 3, 43, 100
3, 144000, Note_on_c, 3, 43, 0
3, 144000, Note_on_c, 3, 45, 100
3, 144960, Note_on_c, 3, 45, 0
3, 145920, Note_on_c, 3, 47, 100
3, 146640, Note_on_c, 3, 47, 0
3, 146880, Note_on_c, 3, 40, 100
3, 151680, Note_on_c, 3, 40, 0
3, 152640, Note_on_c, 3, 52, 100
3, 152880, Note_on_c, 3, 52, 0
3, 152880, Note_on_c, 3, 50, 100
3, 153120, Note_on_c, 3, 50, 0
3, 153120, Note_on_c, 3, 48, 100
3, 153360, Note_on_c, 3, 48, 0
3, 153600, Note_on_c, 3, 46, 100
3, 153840, Note_on_c, 3, 46, 0
3, 153840, Note_on_c, 3, 44, 100
3, 154080, Note_on_c, 3, 44, 0
3, 154560, Text_t, "HandMap_Solo"
3, 154560, Note_on_c, 3, 40, 100
3, 156240, Note_on_c, 3, 40, 0
3, 156480, Note_on_c, 3, 44, 100
3, 156720, Note_on_c, 3, 44, 0
3, 156960, Note_on_c, 3, 44, 100
3, 157200, Note_on_c, 3, 44, 0
3, 157200, Note_on_c, 3, 42, 100
3, 157440, Note_on_c, 3, 42, 0
3, 157440, Note_on_c, 3, 40, 100
3, 157680, Note_on_c, 3, 40, 0
3, 158400, Note_on_c, 3, 48, 100
3, 158640, Note_on_c, 3, 48, 0
3, 158880, Note_on_c, 3, 46, 100
3, 159120, Note_on_c, 3, 46, 0
3, 159360, Note_on_c, 3, 48, 100
3, 160320, Note_on_c, 3, 48, 0
3, 160800, Note_on_c, 3, 45, 100
3, 161040, Note_on_c, 3, 45, 0
3, 161280, Note_on_c, 3, 47, 100
3, 161520, Note_on_c, 3, 47, 0
3, 161760, Note_on_c, 3, 47, 100
3, 162000, Note_on_c, 3, 47, 0
3, 162240, Note_on_c, 3, 49, 100
3, 162480, Note_on_c, 3, 49, 0
3, 162720, Note_on_c, 3, 52, 100
3, 163200, Note_on_c, 3, 52, 0
3, 163200, Note_on_c, 3, 54, 100
3, 163440, Note_on_c, 3, 54, 0
3, 163680, Note_on_c, 3, 49, 100
3, 163920, Note_on_c, 3, 49, 0
3, 164160, Note_on_c, 3, 52, 100
3, 164640, Note_on_c, 3, 52, 0
3, 164640, Note_on_c, 3, 54, 100
3, 164880, Note_on_c, 3, 54, 0
3, 165120, Note_on_c, 3, 51, 100
3, 165360, Note_on_c, 3, 51, 0
3, 165600, Note_on_c, 3, 48, 100
3, 165840, Note_on_c, 3, 48, 0
3, 165840, Note_on_c, 3, 46, 100
3, 166080, Note_on_c, 3, 46, 0
3, 166080, Note_on_c, 3, 48, 100
3, 166320, Note_on_c, 3, 48, 0
3, 166320, Note_on_c, 3, 50, 100
3, 167280, Note_on_c, 3, 50, 0
3, 167520, Note_on_c, 3, 48, 100
3, 168000, Note_on_c, 3, 48, 0
3, 168240, Note_on_c, 3, 50, 100
3, 168480, Note_on_c, 3, 50, 0
3, 168480, Note_on_c, 3, 52, 100
3, 168720, Note_on_c, 3, 52, 0
3, 168960, Note_on_c, 3, 56, 100
3, 169200, Note_on_c, 3, 56, 0
3, 169440, Note_on_c, 3, 54, 100
3, 169920, Note_on_c, 3, 54, 0
3, 170160, Note_on_c, 3, 52, 100
3, 170880, Note_on_c, 3, 52, 0
3, 171120, Note_on_c, 3, 50, 100
3, 171840, Note_on_c, 3, 50, 0
3, 172080, Note_on_c, 3, 48, 100
3, 172800, Note_on_c, 3, 48, 0
3, 173040, Note_on_c, 3, 46, 100
3, 173760, Note_on_c, 3, 46, 0
3, 174000, Note_on_c, 3, 44, 100
3, 174720, Note_on_c, 3, 44, 0
3, 174960, Note_on_c, 3, 42, 100
3, 175200, Note_on_c, 3, 42, 0
3, 175440, Note_on_c, 3, 40, 100
3, 175680, Note_on_c, 3, 40, 0
3, 175680, Note_on_c, 3, 42, 100
3, 183360, Note_on_c, 3, 42, 0
3, 191040, Text_t, "HandMap_AllChords"
3, 194880, Note_on_c, 3, 40, 100
3, 198480, Note_on_c, 3, 40, 0
3, 198720, Note_on_c, 3, 45, 100
3, 200400, Note_on_c, 3, 45, 0
3, 200640, Note_on_c, 3, 47, 100
3, 202320, Note_on_c, 3, 47, 0
3, 202560, Note_on_c, 3, 40, 100
3, 206160, Note_on_c, 3, 40, 0
3, 206400, Note_on_c, 3, 45, 100
3, 208080, Note_on_c, 3, 45, 0
3, 208320, Note_on_c, 3, 47, 100
3, 208800, Note_on_c, 3, 47, 0
3, 208800, Note_on_c, 3, 40, 100
3, 210240, Text_t, "HandMap_Default"
3, 213120, Note_on_c, 3, 40, 0
3, 213360, Note_on_c, 3, 43, 100
3, 214080, Note_on_c, 3, 43, 0
3, 214080, Note_on_c, 3, 45, 100
3, 215040, Note_on_c, 3, 45, 0
3, 216000, Note_on_c, 3, 47, 100
3, 216960, Note_on_c, 3, 47, 0
3, 217920, Note_on_c, 3, 40, 100
3, 220800, Note_on_c, 3, 40, 0
3, 221040, Note_on_c, 3, 43, 100
3, 221760, Note_on_c, 3, 43, 0
3, 221760, Note_on_c, 3, 45, 100
3, 222720, Note_on_c, 3, 45, 0
3, 223680, Note_on_c, 3, 47, 100
3, 224400, Note_on_c, 3, 47, 0
3, 224640, Note_on_c, 3, 40, 100
3, 227520, Note_on_c, 3, 40, 0
3, 227760, Note_on_c, 3, 43, 100
3, 228480, Note_on_c, 3, 43, 0
3, 228480, Note_on_c, 3, 45, 100
3, 229440, Note_on_c, 3, 45, 0
3, 230400, Note_on_c, 3, 47, 100
3, 231360, Note_on_c, 3, 47, 0
3, 232320, Note_on_c, 3, 40, 100
3, 235200, Note_on_c, 3, 40, 0
3, 235440, Note_on_c, 3, 43, 100
3, 236160, Note_on_c, 3, 43, 0
3, 236160, Note_on_c, 3, 45, 100
3, 237120, Note_on_c, 3, 45, 0
3, 238080, Note_on_c, 3, 47, 100
3, 238800, Note_on_c, 3, 47, 0
3, 239040, Note_on_c, 3, 40, 100
3, 241920, Note_on_c, 3, 40, 0
3, 242160, Note_on_c, 3, 43, 100
3, 242880, Note_on_c, 3, 43, 0
3, 242880, Note_on_c, 3, 45, 100
3, 243840, Note_on_c, 3, 45, 0
3, 244800, Note_on_c, 3, 47, 100
3, 245760, Note_on_c, 3, 47, 0
3, 246720, Note_on_c, 3, 40, 100
3, 249600, Note_on_c, 3, 40, 0
3, 249840, Note_on_c, 3, 43, 100
3, 250560, Note_on_c, 3, 43, 0
3, 250560, Note_on_c, 3, 45, 100
3, 251520, Note_on_c, 3, 45, 0
3, 252480, Note_on_c, 3, 47, 100
3, 253200, Note_on_c, 3, 47, 0
3, 253440, Note_on_c, 3, 40, 100
3, 256320, Note_on_c, 3, 40, 0
3, 256560, Note_on_c, 3, 43, 100
3, 257280, Note_on_c, 3, 43, 0
3, 257280, Note_on_c, 3, 45, 100
3, 258240, Note_on_c, 3, 45, 0
3, 259200, Note_on_c, 3, 47, 100
3, 260160, Note_on_c, 3, 47, 0
3, 261120, Note_on_c, 3, 40, 100
3, 264000, Note_on_c, 3, 40, 0
3, 264240, Note_on_c, 3, 43, 100
3, 264960, Note_on_c, 3, 43, 0
3, 264960, Note_on_c, 3, 45, 100
3, 265920, Note_on_c, 3, 45, 0
3, 266880, Note_on_c, 3, 47, 100
3, 267360, Note_on_c, 3, 47, 0
3, 267360, Note_on_c, 3, 40, 100
3, 267600, Note_on_c, 3, 40, 0
3, 267840, Note_on_c, 3, 52, 100
3, 268080, Note_on_c, 3, 52, 0
3, 268800, Note_on_c, 3, 40, 100
3, 269040, Note_on_c, 3, 40, 0
3, 269040, End_track
4, 0, Start_track
4, 0, Title_t, "EVENTS"
4, 0, Text_t, "[verse]"
4, 0, Text_t, "bass_off"
4, 0, Text_t, "sing_off"
4, 5760, Text_t, "[lighting ()]"
4, 7680, Text_t, "[music_start]"
4, 7680, Text_t, "bass_on"
4, 7680, Text_t, "drum_normal"
4, 22080, Text_t, "[verse]"
4, 29760, Text_t, "[lighting ()]"
4, 50880, Text_t, "[lighting (blackout)]"
4, 50880, Text_t, "bass_off"
4, 66240, Text_t, "[lighting ()]"
4, 66240, Text_t, "bass_on"
4, 70080, Text_t, "[chorus]"
4, 70080, Text_t, "drum_normal"
4, 84480, Text_t, "sing_off"
4, 84480, Text_t, "[verse]"
4, 84480, Text_t, "wail_off"
4, 92160, Text_t, "[lighting ()]"
4, 113280, Text_t, "[lighting (blackout)]"
4, 113280, Text_t, "bass_off"
4, 128640, Text_t, "[lighting ()]"
4, 128640, Text_t, "bass_on"
4, 128640, Text_t, "[lighting ()]"
4, 132480, Text_t, "[chorus]"
4, 132480, Text_t, "drum_normal"
4, 146880, Text_t, "[lighting ()]"
4, 146880, Text_t, "[verse]"
4, 146880, Text_t, "wail_off"
4, 154560, Text_t, "[solo]"
4, 154560, Text_t, "solo_on"
4, 169920, Text_t, "solo_off"
4, 169920, Text_t, "sing_on"
4, 169920, Text_t, "[verse]"
4, 175680, Text_t, "[lighting (blackout)]"
4, 175680, Text_t, "bass_off"
4, 194880, Text_t, "[lighting ()]"
4, 194880, Text_t, "bass_on"
4, 239040, Text_t, "[lighting (sweep)]"
4, 267840, Text_t, "[lighting (blackout)]"
4, 267840, Text_t, "bass_off"
4, 267840, Text_t, "sing_off"
4, 267840, Text_t, "wail_off"
4, 268800, Text_t, "[lighting (flare)]"
4, 270000, Text_t, "[end]"
4, 270000, End_track
5, 0, Start_track
5, 0, Title_t, "TRIGGERS"
5, 7680, Note_on_c, 4, 61, 100
5, 7680, Note_on_c, 4, 60, 100
5, 7680, Note_on_c, 0, 68, 100
5, 7920, Note_on_c, 4, 61, 0
5, 7920, Note_on_c, 4, 60, 0
5, 7920, Note_on_c, 0, 68, 0
5, 8160, Note_on_c, 4, 61, 100
5, 8160, Note_on_c, 4, 60, 100
5, 8160, Note_on_c, 0, 68, 100
5, 8400, Note_on_c, 4, 61, 0
5, 8400, Note_on_c, 4, 60, 0
5, 8400, Note_on_c, 0, 68, 0
5, 9600, Note_on_c, 4, 61, 100
5, 9600, Note_on_c, 4, 60, 100
5, 9600, Note_on_c, 0, 68, 100
5, 9840, Note_on_c, 4, 61, 0
5, 9840, Note_on_c, 4, 60, 0
5, 9840, Note_on_c, 0, 68, 0
5, 10080, Note_on_c, 4, 61, 100
5, 10080, Note_on_c, 4, 60, 100
5, 10080, Note_on_c, 0, 68, 100
5, 10320, Note_on_c, 4, 61, 0
5, 10320, Note_on_c, 4, 60, 0
5, 10320, Note_on_c, 0, 68, 0
5, 10800, Note_on_c, 4, 61, 100
5, 11040, Note_on_c, 4, 61, 0
5, 11520, Note_on_c, 4, 61, 100
5, 11520, Note_on_c, 4, 60, 100
5, 11520, Note_on_c, 0, 69, 100
5, 11760, Note_on_c, 4, 61, 0
5, 11760, Note_on_c, 4, 60, 0
5, 11760, Note_on_c, 0, 69, 0
5, 12000, Note_on_c, 4, 61, 100
5, 12000, Note_on_c, 4, 60, 100
5, 12000, Note_on_c, 0, 69, 100
5, 12240, Note_on_c, 4, 61, 0
5, 12240, Note_on_c, 4, 60, 0
5, 12240, Note_on_c, 0, 69, 0
5, 13440, Note_on_c, 4, 61, 100
5, 13440, Note_on_c, 4, 60, 100
5, 13440, Note_on_c, 0, 70, 100
5, 13680, Note_on_c, 4, 61, 0
5, 13680, Note_on_c, 4, 60, 0
5, 13680, Note_on_c, 0, 70, 0
5, 13920, Note_on_c, 4, 61, 100
5, 13920, Note_on_c, 4, 60, 100
5, 13920, Note_on_c, 0, 70, 100
5, 14160, Note_on_c, 4, 61, 0
5, 14160, Note_on_c, 4, 60, 0
5, 14160, Note_on_c, 0, 70, 0
5, 14640, Note_on_c, 4, 61, 100
5, 14880, Note_on_c, 4, 61, 0
5, 15360, Note_on_c, 4, 61, 100
5, 15360, Note_on_c, 4, 60, 100
5, 15360, Note_on_c, 0, 68, 100
5, 15600, Note_on_c, 4, 61, 0
5, 15600, Note_on_c, 4, 60, 0
5, 15600, Note_on_c, 0, 68, 0
5, 15840, Note_on_c, 4, 61, 100
5, 15840, Note_on_c, 4, 60, 100
5, 15840, Note_on_c, 0, 68, 100
5, 16080, Note_on_c, 4, 61, 0
5, 16080, Note_on_c, 4, 60, 0
5, 16080, Note_on_c, 0, 68, 0
5, 17280, Note_on_c, 4, 61, 100
5, 17280, Note_on_c, 4, 60, 100
5, 17280, Note_on_c, 0, 68, 100
5, 17520, Note_on_c, 4, 61, 0
5, 17520, Note_on_c, 4, 60, 0
5, 17520, Note_on_c, 0, 68, 0
5, 17760, Note_on_c, 4, 61, 100
5, 17760, Note_on_c, 4, 60, 100
5, 17760, Note_on_c, 0, 68, 100
5, 18000, Note_on_c, 4, 61, 0
5, 18000, Note_on_c, 4, 60, 0
5, 18000, Note_on_c, 0, 68, 0
5, 18480, Note_on_c, 4, 61, 100
5, 18720, Note_on_c, 4, 61, 0
5, 19200, Note_on_c, 4, 61, 100
5, 19200, Note_on_c, 4, 60, 100
5, 19200, Note_on_c, 0, 69, 100
5, 19440, Note_on_c, 4, 61, 0
5, 19440, Note_on_c, 4, 60, 0
5, 19440, Note_on_c, 0, 69, 0
5, 19680, Note_on_c, 4, 61, 100
5, 19680, Note_on_c, 4, 60, 100
5, 19680, Note_on_c, 0, 69, 100
5, 19920, Note_on_c, 4, 61, 0
5, 19920, Note_on_c, 4, 60, 0
5, 19920, Note_on_c, 0, 69, 0
5, 21120, Note_on_c, 4, 61, 100
5, 21120, Note_on_c, 4, 60, 100
5, 21120, Note_on_c, 0, 70, 100
5, 21360, Note_on_c, 4, 61, 0
5, 21360, Note_on_c, 4, 60, 0
5, 21360, Note_on_c, 0, 70, 0
5, 21600, Note_on_c, 4, 60, 100
5, 21600, Note_on_c, 4, 61, 100
5, 21840, Note_on_c, 4, 60, 0
5, 21840, Note_on_c, 4, 61, 0
5, 22080, Note_on_c, 4, 61, 100
5, 22080, Note_on_c, 4, 60, 100
5, 22080, Note_on_c, 0, 68, 100
5, 22320, Note_on_c, 4, 61, 0
5, 22320, Note_on_c, 4, 60, 0
5, 22320, Note_on_c, 0, 68, 0
5, 22560, Note_on_c, 4, 61, 100
5, 22560, Note_on_c, 4, 60, 100
5, 22560, Note_on_c, 0, 68, 100
5, 22800, Note_on_c, 4, 61, 0
5, 22800, Note_on_c, 4, 60, 0
5, 22800, Note_on_c, 0, 68, 0
5, 24000, Note_on_c, 4, 60, 100
5, 24240, Note_on_c, 4, 60, 0
5, 24480, Note_on_c, 4, 60, 100
5, 24720, Note_on_c, 4, 60, 0
5, 25920, Note_on_c, 4, 61, 100
5, 25920, Note_on_c, 4, 60, 100
5, 25920, Note_on_c, 0, 68, 100
5, 26160, Note_on_c, 4, 61, 0
5, 26160, Note_on_c, 4, 60, 0
5, 26160, Note_on_c, 0, 68, 0
5, 26400, Note_on_c, 4, 61, 100
5, 26400, Note_on_c, 4, 60, 100
5, 26400, Note_on_c, 0, 68, 100
5, 26640, Note_on_c, 4, 61, 0
5, 26640, Note_on_c, 4, 60, 0
5, 26640, Note_on_c, 0, 68, 0
5, 27840, Note_on_c, 4, 60, 100
5, 27840, Note_on_c, 4, 61, 100
5, 27840, Note_on_c, 0, 70, 100
5, 28080, Note_on_c, 4, 60, 0
5, 28080, Note_on_c, 4, 61, 0
5, 28080, Note_on_c, 0, 70, 0
5, 28080, Note_on_c, 4, 61, 100
5, 28320, Note_on_c, 4, 61, 0
5, 28320, Note_on_c, 4, 60, 100
5, 28320, Note_on_c, 4, 61, 100
5, 28560, Note_on_c, 4, 60, 0
5, 28560, Note_on_c, 4, 61, 0
5, 28800, Note_on_c, 4, 61, 100
5, 28800, Note_on_c, 0, 69, 100
5, 29040, Note_on_c, 4, 61, 0
5, 29040, Note_on_c, 0, 69, 0
5, 29040, Note_on_c, 4, 61, 100
5, 29280, Note_on_c, 4, 61, 0
5, 29760, Note_on_c, 4, 61, 100
5, 29760, Note_on_c, 4, 60, 100
5, 29760, Note_on_c, 0, 68, 100
5, 30000, Note_on_c, 4, 61, 0
5, 30000, Note_on_c, 4, 60, 0
5, 30000, Note_on_c, 0, 68, 0
5, 30240, Note_on_c, 4, 61, 100
5, 30240, Note_on_c, 4, 60, 100
5, 30240, Note_on_c, 0, 68, 100
5, 30480, Note_on_c, 4, 61, 0
5, 30480, Note_on_c, 4, 60, 0
5, 30480, Note_on_c, 0, 68, 0
5, 31680, Note_on_c, 4, 60, 100
5, 31920, Note_on_c, 4, 60, 0
5, 32160, Note_on_c, 4, 60, 100
5, 32400, Note_on_c, 4, 60, 0
5, 33600, Note_on_c, 4, 61, 100
5, 33600, Note_on_c, 4, 60, 100
5, 33600, Note_on_c, 0, 68, 100
5, 33840, Note_on_c, 4, 61, 0
5, 33840, Note_on_c, 4, 60, 0
5, 33840, Note_on_c, 0, 68, 0
5, 34080, Note_on_c, 4, 61, 100
5, 34080, Note_on_c, 4, 60, 100
5, 34080, Note_on_c, 0, 68, 100
5, 34320, Note_on_c, 4, 61, 0
5, 34320, Note_on_c, 4, 60, 0
5, 34320, Note_on_c, 0, 68, 0
5, 35520, Note_on_c, 4, 60, 100
5, 35520, Note_on_c, 4, 61, 100
5, 35520, Note_on_c, 0, 70, 100
5, 35760, Note_on_c, 4, 60, 0
5, 35760, Note_on_c, 4, 61, 0
5, 35760, Note_on_c, 0, 70, 0
5, 35760, Note_on_c, 4, 61, 100
5, 36000, Note_on_c, 4, 61, 0
5, 36000, Note_on_c, 4, 60, 100
5, 36000, Note_on_c, 4, 61, 100
5, 36240, Note_on_c, 4, 60, 0
5, 36240, Note_on_c, 4, 61, 0
5, 36480, Note_on_c, 4, 61, 100
5, 36480, Note_on_c, 0, 69, 100
5, 36720, Note_on_c, 4, 61, 0
5, 36720, Note_on_c, 0, 69, 0
5, 36720, Note_on_c, 4, 61, 100
5, 36960, Note_on_c, 4, 61, 0
5, 37440, Note_on_c, 4, 61, 100
5, 37440, Note_on_c, 4, 60, 100
5, 37440, Note_on_c, 0, 68, 100
5, 37680, Note_on_c, 4, 61, 0
5, 37680, Note_on_c, 4, 60, 0
5, 37680, Note_on_c, 0, 68, 0
5, 37920, Note_on_c, 4, 61, 100
5, 37920, Note_on_c, 4, 60, 100
5, 37920, Note_on_c, 0, 68, 100
5, 38160, Note_on_c, 4, 61, 0
5, 38160, Note_on_c, 4, 60, 0
5, 38160, Note_on_c, 0, 68, 0
5, 39360, Note_on_c, 4, 60, 100
5, 39600, Note_on_c, 4, 60, 0
5, 39840, Note_on_c, 4, 60, 100
5, 40080, Note_on_c, 4, 60, 0
5, 41280, Note_on_c, 4, 61, 100
5, 41280, Note_on_c, 4, 60, 100
5, 41280, Note_on_c, 0, 70, 100
5, 41520, Note_on_c, 4, 61, 0
5, 41520, Note_on_c, 4, 60, 0
5, 41520, Note_on_c, 0, 70, 0
5, 41760, Note_on_c, 4, 61, 100
5, 41760, Note_on_c, 4, 60, 100
5, 41760, Note_on_c, 0, 70, 100
5, 42000, Note_on_c, 4, 61, 0
5, 42000, Note_on_c, 4, 60, 0
5, 42000, Note_on_c, 0, 70, 0
5, 43200, Note_on_c, 4, 60, 100
5, 43200, Note_on_c, 4, 61, 100
5, 43200, Note_on_c, 0, 70, 100
5, 43440, Note_on_c, 4, 60, 0
5, 43440, Note_on_c, 4, 61, 0
5, 43440, Note_on_c, 0, 70, 0
5, 43440, Note_on_c, 4, 61, 100
5, 43680, Note_on_c, 4, 61, 0
5, 43680, Note_on_c, 4, 60, 100
5, 43680, Note_on_c, 4, 61, 100
5, 43920, Note_on_c, 4, 60, 0
5, 43920, Note_on_c, 4, 61, 0
5, 44160, Note_on_c, 4, 61, 100
5, 44160, Note_on_c, 0, 69, 100
5, 44400, Note_on_c, 4, 61, 0
5, 44400, Note_on_c, 0, 69, 0
5, 44400, Note_on_c, 4, 61, 100
5, 44640, Note_on_c, 4, 61, 0
5, 45120, Note_on_c, 4, 61, 100
5, 45120, Note_on_c, 4, 60, 100
5, 45120, Note_on_c, 0, 69, 100
5, 45360, Note_on_c, 4, 61, 0
5, 45360, Note_on_c, 4, 60, 0
5, 45360, Note_on_c, 0, 69, 0
5, 45600, Note_on_c, 4, 61, 100
5, 45600, Note_on_c, 4, 60, 100
5, 45600, Note_on_c, 0, 69, 100
5, 45840, Note_on_c, 4, 61, 0
5, 45840, Note_on_c, 4, 60, 0
5, 45840, Note_on_c, 0, 69, 0
5, 47040, Note_on_c, 4, 61, 100
5, 47040, Note_on_c, 4, 60, 100
5, 47040, Note_on_c, 0, 70, 100
5, 47280, Note_on_c, 4, 61, 0
5, 47280, Note_on_c, 4, 60, 0
5, 47280, Note_on_c, 0, 70, 0
5, 47520, Note_on_c, 4, 61, 100
5, 47520, Note_on_c, 4, 60, 100
5, 47520, Note_on_c, 0, 70, 100
5, 47760, Note_on_c, 4, 61, 0
5, 47760, Note_on_c, 4, 60, 0
5, 47760, Note_on_c, 0, 70, 0
5, 48960, Note_on_c, 4, 61, 100
5, 48960, Note_on_c, 4, 60, 100
5, 48960, Note_on_c, 0, 68, 100
5, 49200, Note_on_c, 4, 61, 0
5, 49200, Note_on_c, 4, 60, 0
5, 49200, Note_on_c, 0, 68, 0
5, 49440, Note_on_c, 4, 61, 100
5, 49440, Note_on_c, 4, 60, 100
5, 49440, Note_on_c, 0, 68, 100
5, 49680, Note_on_c, 4, 61, 0
5, 49680, Note_on_c, 4, 60, 0
5, 49680, Note_on_c, 0, 68, 0
5, 50880, Note_on_c, 4, 61, 100
5, 50880, Note_on_c, 4, 60, 100
5, 50880, Note_on_c, 0, 69, 100
5, 51120, Note_on_c, 4, 61, 0
5, 51120, Note_on_c, 4, 60, 0
5, 51360, Note_on_c, 4, 60, 100
5, 51600, Note_on_c, 4, 60, 0
5, 52800, Note_on_c, 4, 60, 100
5, 53040, Note_on_c, 4, 60, 0
5, 53280, Note_on_c, 4, 60, 100
5, 53520, Note_on_c, 4, 60, 0
5, 54720, Note_on_c, 4, 60, 100
5, 54960, Note_on_c, 4, 60, 0
5, 55200, Note_on_c, 4, 60, 100
5, 55440, Note_on_c, 4, 60, 0
5, 56640, Note_on_c, 4, 60, 100
5, 56880, Note_on_c, 4, 60, 0
5, 57120, Note_on_c, 4, 60, 100
5, 57360, Note_on_c, 4, 60, 0
5, 58560, Note_on_c, 4, 60, 100
5, 58800, Note_on_c, 4, 60, 0
5, 59040, Note_on_c, 4, 60, 100
5, 59280, Note_on_c, 4, 60, 0
5, 60480, Note_on_c, 0, 69, 0
5, 60480, Note_on_c, 4, 60, 100
5, 60720, Note_on_c, 4, 60, 0
5, 60960, Note_on_c, 4, 60, 100
5, 61200, Note_on_c, 4, 60, 0
5, 62400, Note_on_c, 4, 60, 100
5, 62640, Note_on_c, 4, 60, 0
5, 62880, Note_on_c, 4, 60, 100
5, 63120, Note_on_c, 4, 60, 0
5, 64320, Note_on_c, 4, 60, 100
5, 64560, Note_on_c, 4, 60, 0
5, 64800, Note_on_c, 4, 60, 100
5, 65040, Note_on_c, 4, 60, 0
5, 66240, Note_on_c, 4, 61, 100
5, 66240, Note_on_c, 4, 60, 100
5, 66240, Note_on_c, 0, 70, 100
5, 66480, Note_on_c, 4, 61, 0
5, 66480, Note_on_c, 4, 60, 0
5, 66480, Note_on_c, 0, 70, 0
5, 66720, Note_on_c, 4, 61, 100
5, 66720, Note_on_c, 0, 70, 100
5, 66960, Note_on_c, 4, 61, 0
5, 66960, Note_on_c, 0, 70, 0
5, 67200, Note_on_c, 4, 61, 100
5, 67200, Note_on_c, 0, 70, 100
5, 67440, Note_on_c, 4, 61, 0
5, 67440, Note_on_c, 0, 70, 0
5, 67680, Note_on_c, 4, 61, 100
5, 67680, Note_on_c, 0, 70, 100
5, 67920, Note_on_c, 4, 61, 0
5, 67920, Note_on_c, 0, 70, 0
5, 68160, Note_on_c, 4, 61, 100
5, 68160, Note_on_c, 0, 70, 100
5, 68400, Note_on_c, 4, 61, 0
5, 68400, Note_on_c, 0, 70, 0
5, 68640, Note_on_c, 4, 61, 100
5, 68640, Note_on_c, 0, 70, 100
5, 68880, Note_on_c, 4, 61, 0
5, 68880, Note_on_c, 0, 70, 0
5, 69120, Note_on_c, 4, 61, 100
5, 69120, Note_on_c, 0, 70, 100
5, 69360, Note_on_c, 4, 61, 0
5, 69360, Note_on_c, 0, 70, 0
5, 69600, Note_on_c, 4, 61, 100
5, 69600, Note_on_c, 0, 70, 100
5, 69840, Note_on_c, 4, 61, 0
5, 69840, Note_on_c, 0, 70, 0
5, 70080, Note_on_c, 4, 61, 100
5, 70080, Note_on_c, 4, 60, 100
5, 70080, Note_on_c, 0, 68, 100
5, 70320, Note_on_c, 4, 61, 0
5, 70320, Note_on_c, 4, 60, 0
5, 70320, Note_on_c, 0, 68, 0
5, 70560, Note_on_c, 4, 61, 100
5, 70560, Note_on_c, 4, 60, 100
5, 70560, Note_on_c, 0, 68, 100
5, 70800, Note_on_c, 4, 61, 0
5, 70800, Note_on_c, 4, 60, 0
5, 70800, Note_on_c, 0, 68, 0
5, 72000, Note_on_c, 4, 61, 100
5, 72000, Note_on_c, 4, 60, 100
5, 72000, Note_on_c, 0, 68, 100
5, 72240, Note_on_c, 4, 61, 0
5, 72240, Note_on_c, 4, 60, 0
5, 72240, Note_on_c, 0, 68, 0
5, 72480, Note_on_c, 4, 61, 100
5, 72480, Note_on_c, 4, 60, 100
5, 72480, Note_on_c, 0, 68, 100
5, 72720, Note_on_c, 4, 61, 0
5, 72720, Note_on_c, 4, 60, 0
5, 72720, Note_on_c, 0, 68, 0
5, 73200, Note_on_c, 4, 61, 100
5, 73440, Note_on_c, 4, 61, 0
5, 73920, Note_on_c, 4, 61, 100
5, 73920, Note_on_c, 4, 60, 100
5, 73920, Note_on_c, 0, 69, 100
5, 74160, Note_on_c, 4, 61, 0
5, 74160, Note_on_c, 4, 60, 0
5, 74160, Note_on_c, 0, 69, 0
5, 74400, Note_on_c, 4, 61, 100
5, 74400, Note_on_c, 4, 60, 100
5, 74400, Note_on_c, 0, 69, 100
5, 74640, Note_on_c, 4, 61, 0
5, 74640, Note_on_c, 4, 60, 0
5, 74640, Note_on_c, 0, 69, 0
5, 75840, Note_on_c, 4, 61, 100
5, 75840, Note_on_c, 4, 60, 100
5, 75840, Note_on_c, 0, 70, 100
5, 76080, Note_on_c, 4, 61, 0
5, 76080, Note_on_c, 4, 60, 0
5, 76080, Note_on_c, 0, 70, 0
5, 76320, Note_on_c, 4, 61, 100
5, 76320, Note_on_c, 4, 60, 100
5, 76320, Note_on_c, 0, 70, 100
5, 76560, Note_on_c, 4, 61, 0
5, 76560, Note_on_c, 4, 60, 0
5, 76560, Note_on_c, 0, 70, 0
5, 77760, Note_on_c, 4, 61, 100
5, 77760, Note_on_c, 4, 60, 100
5, 77760, Note_on_c, 0, 68, 100
5, 78000, Note_on_c, 4, 61, 0
5, 78000, Note_on_c, 4, 60, 0
5, 78000, Note_on_c, 0, 68, 0
5, 78240, Note_on_c, 4, 61, 100
5, 78240, Note_on_c, 4, 60, 100
5, 78240, Note_on_c, 0, 68, 100
5, 78480, Note_on_c, 4, 61, 0
5, 78480, Note_on_c, 4, 60, 0
5, 78480, Note_on_c, 0, 68, 0
5, 79680, Note_on_c, 4, 61, 100
5, 79680, Note_on_c, 4, 60, 100
5, 79680, Note_on_c, 0, 68, 100
5, 79920, Note_on_c, 4, 61, 0
5, 79920, Note_on_c, 4, 60, 0
5, 79920, Note_on_c, 0, 68, 0
5, 80160, Note_on_c, 4, 61, 100
5, 80160, Note_on_c, 4, 60, 100
5, 80160, Note_on_c, 0, 68, 100
5, 80400, Note_on_c, 4, 61, 0
5, 80400, Note_on_c, 4, 60, 0
5, 80400, Note_on_c, 0, 68, 0
5, 80880, Note_on_c, 4, 61, 100
5, 81120, Note_on_c, 4, 61, 0
5, 81600, Note_on_c, 4, 61, 100
5, 81600, Note_on_c, 4, 60, 100
5, 81600, Note_on_c, 0, 69, 100
5, 81840, Note_on_c, 4, 61, 0
5, 81840, Note_on_c, 4, 60, 0
5, 81840, Note_on_c, 0, 69, 0
5, 82080, Note_on_c, 4, 61, 100
5, 82080, Note_on_c, 4, 60, 100
5, 82080, Note_on_c, 0, 69, 100
5, 82320, Note_on_c, 4, 61, 0
5, 82320, Note_on_c, 4, 60, 0
5, 82320, Note_on_c, 0, 69, 0
5, 83520, Note_on_c, 4, 61, 100
5, 83520, Note_on_c, 4, 60, 100
5, 83520, Note_on_c, 0, 70, 100
5, 83760, Note_on_c, 4, 61, 0
5, 83760, Note_on_c, 4, 60, 0
5, 83760, Note_on_c, 0, 70, 0
5, 84000, Note_on_c, 4, 60, 100
5, 84000, Note_on_c, 4, 61, 100
5, 84240, Note_on_c, 4, 60, 0
5, 84240, Note_on_c, 4, 61, 0
5, 84480, Note_on_c, 4, 61, 100
5, 84480, Note_on_c, 4, 60, 100
5, 84480, Note_on_c, 0, 68, 100
5, 84720, Note_on_c, 4, 61, 0
5, 84720, Note_on_c, 4, 60, 0
5, 84720, Note_on_c, 0, 68, 0
5, 84960, Note_on_c, 4, 61, 100
5, 84960, Note_on_c, 4, 60, 100
5, 84960, Note_on_c, 0, 68, 100
5, 85200, Note_on_c, 4, 61, 0
5, 85200, Note_on_c, 4, 60, 0
5, 85200, Note_on_c, 0, 68, 0
5, 86400, Note_on_c, 4, 60, 100
5, 86640, Note_on_c, 4, 60, 0
5, 86880, Note_on_c, 4, 60, 100
5, 87120, Note_on_c, 4, 60, 0
5, 88320, Note_on_c, 4, 61, 100
5, 88320, Note_on_c, 4, 60, 100
5, 88320, Note_on_c, 0, 68, 100
5, 88560, Note_on_c, 4, 61, 0
5, 88560, Note_on_c, 4, 60, 0
5, 88560, Note_on_c, 0, 68, 0
5, 88800, Note_on_c, 4, 61, 100
5, 88800, Note_on_c, 4, 60, 100
5, 88800, Note_on_c, 0, 68, 100
5, 89040, Note_on_c, 4, 61, 0
5, 89040, Note_on_c, 4, 60, 0
5, 89040, Note_on_c, 0, 68, 0
5, 90240, Note_on_c, 4, 60, 100
5, 90240, Note_on_c, 4, 61, 100
5, 90240, Note_on_c, 0, 70, 100
5, 90480, Note_on_c, 4, 60, 0
5, 90480, Note_on_c, 4, 61, 0
5, 90480, Note_on_c, 0, 70, 0
5, 90480, Note_on_c, 4, 61, 100
5, 90720, Note_on_c, 4, 61, 0
5, 90720, Note_on_c, 4, 60, 100
5, 90720, Note_on_c, 4, 61, 100
5, 90960, Note_on_c, 4, 60, 0
5, 90960, Note_on_c, 4, 61, 0
5, 91200, Note_on_c, 4, 61, 100
5, 91200, Note_on_c, 0, 69, 100
5, 91440, Note_on_c, 4, 61, 0
5, 91440, Note_on_c, 0, 69, 0
5, 91440, Note_on_c, 4, 61, 100
5, 91680, Note_on_c, 4, 61, 0
5, 92160, Note_on_c, 4, 61, 100
5, 92160, Note_on_c, 4, 60, 100
5, 92160, Note_on_c, 0, 68, 100
5, 92400, Note_on_c, 4, 61, 0
5, 92400, Note_on_c, 4, 60, 0
5, 92400, Note_on_c, 0, 68, 0
5, 92640, Note_on_c, 4, 61, 100
5, 92640, Note_on_c, 4, 60, 100
5, 92640, Note_on_c, 0, 68, 100
5, 92880, Note_on_c, 4, 61, 0
5, 92880, Note_on_c, 4, 60, 0
5, 92880, Note_on_c, 0, 68, 0
5, 94080, Note_on_c, 4, 60, 100
5, 94320, Note_on_c, 4, 60, 0
5, 94560, Note_on_c, 4, 60, 100
5, 94800, Note_on_c, 4, 60, 0
5, 96000, Note_on_c, 4, 61, 100
5, 96000, Note_on_c, 4, 60, 100
5, 96000, Note_on_c, 0, 68, 100
5, 96240, Note_on_c, 4, 61, 0
5, 96240, Note_on_c, 4, 60, 0
5, 96240, Note_on_c, 0, 68, 0
5, 96480, Note_on_c, 4, 61, 100
5, 96480, Note_on_c, 4, 60, 100
5, 96480, Note_on_c, 0, 68, 100
5, 96720, Note_on_c, 4, 61, 0
5, 96720, Note_on_c, 4, 60, 0
5, 96720, Note_on_c, 0, 68, 0
5, 97920, Note_on_c, 4, 60, 100
5, 97920, Note_on_c, 4, 61, 100
5, 97920, Note_on_c, 0, 70, 100
5, 98160, Note_on_c, 4, 60, 0
5, 98160, Note_on_c, 4, 61, 0
5, 98160, Note_on_c, 0, 70, 0
5, 98160, Note_on_c, 4, 61, 100
5, 98400, Note_on_c, 4, 61, 0
5, 98400, Note_on_c, 4, 60, 100
5, 98400, Note_on_c, 4, 61, 100
5, 98640, Note_on_c, 4, 60, 0
5, 98640, Note_on_c, 4, 61, 0
5, 98880, Note_on_c, 4, 61, 100
5, 98880, Note_on_c, 0, 69, 100
5, 99120, Note_on_c, 4, 61, 0
5, 99120, Note_on_c, 0, 69, 0
5, 99120, Note_on_c, 4, 61, 100
5, 99360, Note_on_c, 4, 61, 0
5, 99840, Note_on_c, 4, 61, 100
5, 99840, Note_on_c, 4, 60, 100
5, 99840, Note_on_c, 0, 68, 100
5, 100080, Note_on_c, 4, 61, 0
5, 100080, Note_on_c, 4, 60, 0
5, 100080, Note_on_c, 0, 68, 0
5, 100320, Note_on_c, 4, 61, 100
5, 100320, Note_on_c, 4, 60, 100
5, 100320, Note_on_c, 0, 68, 100
5, 100560, Note_on_c, 4, 61, 0
5, 100560, Note_on_c, 4, 60, 0
5, 100560, Note_on_c, 0, 68, 0
5, 101760, Note_on_c, 4, 60, 100
5, 102000, Note_on_c, 4, 60, 0
5, 102240, Note_on_c, 4, 60, 100
5, 102480, Note_on_c, 4, 60, 0
5, 103680, Note_on_c, 4, 61, 100
5, 103680, Note_on_c, 4, 60, 100
5, 103680, Note_on_c, 0, 70, 100
5, 103920, Note_on_c, 4, 61, 0
5, 103920, Note_on_c, 4, 60, 0
5, 103920, Note_on_c, 0, 70, 0
5, 104160, Note_on_c, 4, 61, 100
5, 104160, Note_on_c, 4, 60, 100
5, 104160, Note_on_c, 0, 70, 100
5, 104400, Note_on_c, 4, 61, 0
5, 104400, Note_on_c, 4, 60, 0
5, 104400, Note_on_c, 0, 70, 0
5, 105600, Note_on_c, 4, 60, 100
5, 105600, Note_on_c, 4, 61, 100
5, 105600, Note_on_c, 0, 70, 100
5, 105840, Note_on_c, 4, 60, 0
5, 105840, Note_on_c, 4, 61, 0
5, 105840, Note_on_c, 0, 70, 0
5, 105840, Note_on_c, 4, 61, 100
5, 106080, Note_on_c, 4, 61, 0
5, 106080, Note_on_c, 4, 60, 100
5, 106080, Note_on_c, 4, 61, 100
5, 106320, Note_on_c, 4, 60, 0
5, 106320, Note_on_c, 4, 61, 0
5, 106560, Note_on_c, 4, 61, 100
5, 106560, Note_on_c, 0, 69, 100
5, 106800, Note_on_c, 4, 61, 0
5, 106800, Note_on_c, 0, 69, 0
5, 106800, Note_on_c, 4, 61, 100
5, 107040, Note_on_c, 4, 61, 0
5, 107520, Note_on_c, 4, 61, 100
5, 107520, Note_on_c, 4, 60, 100
5, 107520, Note_on_c, 0, 69, 100
5, 107760, Note_on_c, 4, 61, 0
5, 107760, Note_on_c, 4, 60, 0
5, 107760, Note_on_c, 0, 69, 0
5, 108000, Note_on_c, 4, 61, 100
5, 108000, Note_on_c, 4, 60, 100
5, 108000, Note_on_c, 0, 69, 100
5, 108240, Note_on_c, 4, 61, 0
5, 108240, Note_on_c, 4, 60, 0
5, 108240, Note_on_c, 0, 69, 0
5, 109440, Note_on_c, 4, 61, 100
5, 109440, Note_on_c, 4, 60, 100
5, 109440, Note_on_c, 0, 70, 100
5, 109680, Note_on_c, 4, 61, 0
5, 109680, Note_on_c, 4, 60, 0
5, 109680, Note_on_c, 0, 70, 0
5, 109920, Note_on_c, 4, 61, 100
5, 109920, Note_on_c, 4, 60, 100
5, 109920, Note_on_c, 0, 70, 100
5, 110160, Note_on_c, 4, 61, 0
5, 110160, Note_on_c, 4, 60, 0
5, 110160, Note_on_c, 0, 70, 0
5, 111360, Note_on_c, 4, 61, 100
5, 111360, Note_on_c, 4, 60, 100
5, 111360, Note_on_c, 0, 68, 100
5, 111600, Note_on_c, 4, 61, 0
5, 111600, Note_on_c, 4, 60, 0
5, 111600, Note_on_c, 0, 68, 0
5, 111840, Note_on_c, 4, 61, 100
5, 111840, Note_on_c, 4, 60, 100
5, 111840, Note_on_c, 0, 68, 100
5, 112080, Note_on_c, 4, 61, 0
5, 112080, Note_on_c, 4, 60, 0
5, 112080, Note_on_c, 0, 68, 0
5, 113280, Note_on_c, 4, 61, 100
5, 113280, Note_on_c, 4, 60, 100
5, 113280, Note_on_c, 0, 69, 100
5, 113520, Note_on_c, 4, 61, 0
5, 113520, Note_on_c, 4, 60, 0
5, 113760, Note_on_c, 4, 60, 100
5, 114000, Note_on_c, 4, 60, 0
5, 115200, Note_on_c, 4, 60, 100
5, 115440, Note_on_c, 4, 60, 0
5, 115680, Note_on_c, 4, 60, 100
5, 115920, Note_on_c, 4, 60, 0
5, 117120, Note_on_c, 4, 60, 100
5, 117360, Note_on_c, 4, 60, 0
5, 117600, Note_on_c, 4, 60, 100
5, 117840, Note_on_c, 4, 60, 0
5, 119040, Note_on_c, 4, 60, 100
5, 119280, Note_on_c, 4, 60, 0
5, 119520, Note_on_c, 4, 60, 100
5, 119760, Note_on_c, 4, 60, 0
5, 120960, Note_on_c, 4, 60, 100
5, 121200, Note_on_c, 4, 60, 0
5, 121440, Note_on_c, 4, 60, 100
5, 121680, Note_on_c, 4, 60, 0
5, 122880, Note_on_c, 4, 60, 100
5, 123120, Note_on_c, 4, 60, 0
5, 123360, Note_on_c, 4, 60, 100
5, 123600, Note_on_c, 4, 60, 0
5, 123840, Note_on_c, 0, 69, 0
5, 124800, Note_on_c, 4, 60, 100
5, 125040, Note_on_c, 4, 60, 0
5, 125280, Note_on_c, 4, 60, 100
5, 125520, Note_on_c, 4, 60, 0
5, 126720, Note_on_c, 4, 60, 100
5, 126960, Note_on_c, 4, 60, 0
5, 127200, Note_on_c, 4, 60, 100
5, 127440, Note_on_c, 4, 60, 0
5, 128640, Note_on_c, 4, 61, 100
5, 128640, Note_on_c, 4, 60, 100
5, 128640, Note_on_c, 0, 70, 100
5, 128880, Note_on_c, 4, 61, 0
5, 128880, Note_on_c, 4, 60, 0
5, 128880, Note_on_c, 0, 70, 0
5, 129120, Note_on_c, 4, 61, 100
5, 129120, Note_on_c, 4, 60, 100
5, 129120, Note_on_c, 0, 70, 100
5, 129360, Note_on_c, 4, 61, 0
5, 129360, Note_on_c, 4, 60, 0
5, 129360, Note_on_c, 0, 70, 0
5, 129600, Note_on_c, 4, 61, 100
5, 129600, Note_on_c, 0, 70, 100
5, 129840, Note_on_c, 4, 61, 0
5, 129840, Note_on_c, 0, 70, 0
5, 130080, Note_on_c, 4, 61, 100
5, 130080, Note_on_c, 0, 70, 100
5, 130320, Note_on_c, 4, 61, 0
5, 130320, Note_on_c, 0, 70, 0
5, 130560, Note_on_c, 4, 61, 100
5, 130560, Note_on_c, 0, 70, 100
5, 130800, Note_on_c, 4, 61, 0
5, 130800, Note_on_c, 0, 70, 0
5, 131040, Note_on_c, 4, 61, 100
5, 131040, Note_on_c, 0, 70, 100
5, 131280, Note_on_c, 4, 61, 0
5, 131280, Note_on_c, 0, 70, 0
5, 131520, Note_on_c, 4, 61, 100
5, 131520, Note_on_c, 0, 70, 100
5, 131760, Note_on_c, 4, 61, 0
5, 131760, Note_on_c, 0, 70, 0
5, 132000, Note_on_c, 4, 61, 100
5, 132000, Note_on_c, 0, 70, 100
5, 132240, Note_on_c, 4, 61, 0
5, 132240, Note_on_c, 0, 70, 0
5, 132480, Note_on_c, 4, 61, 100
5, 132480, Note_on_c, 4, 60, 100
5, 132480, Note_on_c, 0, 68, 100
5, 132720, Note_on_c, 4, 61, 0
5, 132720, Note_on_c, 4, 60, 0
5, 132720, Note_on_c, 0, 68, 0
5, 132960, Note_on_c, 4, 61, 100
5, 132960, Note_on_c, 4, 60, 100
5, 132960, Note_on_c, 0, 68, 100
5, 133200, Note_on_c, 4, 61, 0
5, 133200, Note_on_c, 4, 60, 0
5, 133200, Note_on_c, 0, 68, 0
5, 134400, Note_on_c, 4, 61, 100
5, 134400, Note_on_c, 4, 60, 100
5, 134400, Note_on_c, 0, 68, 100
5, 134640, Note_on_c, 4, 61, 0
5, 134640, Note_on_c, 4, 60, 0
5, 134640, Note_on_c, 0, 68, 0
5, 134880, Note_on_c, 4, 61, 100
5, 134880, Note_on_c, 4, 60, 100
5, 134880, Note_on_c, 0, 68, 100
5, 135120, Note_on_c, 4, 61, 0
5, 135120, Note_on_c, 4, 60, 0
5, 135120, Note_on_c, 0, 68, 0
5, 135600, Note_on_c, 4, 61, 100
5, 135840, Note_on_c, 4, 61, 0
5, 136320, Note_on_c, 4, 61, 100
5, 136320, Note_on_c, 4, 60, 100
5, 136320, Note_on_c, 0, 69, 100
5, 136560, Note_on_c, 4, 61, 0
5, 136560, Note_on_c, 4, 60, 0
5, 136560, Note_on_c, 0, 69, 0
5, 136800, Note_on_c, 4, 61, 100
5, 136800, Note_on_c, 4, 60, 100
5, 136800, Note_on_c, 0, 69, 100
5, 137040, Note_on_c, 4, 61, 0
5, 137040, Note_on_c, 4, 60, 0
5, 137040, Note_on_c, 0, 69, 0
5, 138240, Note_on_c, 4, 61, 100
5, 138240, Note_on_c, 4, 60, 100
5, 138240, Note_on_c, 0, 70, 100
5, 138480, Note_on_c, 4, 61, 0
5, 138480, Note_on_c, 4, 60, 0
5, 138480, Note_on_c, 0, 70, 0
5, 138720, Note_on_c, 4, 61, 100
5, 138720, Note_on_c, 4, 60, 100
5, 138720, Note_on_c, 0, 70, 100
5, 138960, Note_on_c, 4, 61, 0
5, 138960, Note_on_c, 4, 60, 0
5, 138960, Note_on_c, 0, 70, 0
5, 140160, Note_on_c, 4, 61, 100
5, 140160, Note_on_c, 4, 60, 100
5, 140160, Note_on_c, 0, 68, 100
5, 140400, Note_on_c, 4, 61, 0
5, 140400, Note_on_c, 4, 60, 0
5, 140400, Note_on_c, 0, 68, 0
5, 140640, Note_on_c, 4, 61, 100
5, 140640, Note_on_c, 4, 60, 100
5, 140640, Note_on_c, 0, 68, 100
5, 140880, Note_on_c, 4, 61, 0
5, 140880, Note_on_c, 4, 60, 0
5, 140880, Note_on_c, 0, 68, 0
5, 142080, Note_on_c, 4, 61, 100
5, 142080, Note_on_c, 4, 60, 100
5, 142080, Note_on_c, 0, 68, 100
5, 142320, Note_on_c, 4, 61, 0
5, 142320, Note_on_c, 4, 60, 0
5, 142320, Note_on_c, 0, 68, 0
5, 142560, Note_on_c, 4, 61, 100
5, 142560, Note_on_c, 4, 60, 100
5, 142560, Note_on_c, 0, 68, 100
5, 142800, Note_on_c, 4, 61, 0
5, 142800, Note_on_c, 4, 60, 0
5, 142800, Note_on_c, 0, 68, 0
5, 143280, Note_on_c, 4, 61, 100
5, 143520, Note_on_c, 4, 61, 0
5, 144000, Note_on_c, 4, 61, 100
5, 144000, Note_on_c, 4, 60, 100
5, 144000, Note_on_c, 0, 69, 100
5, 144240, Note_on_c, 4, 61, 0
5, 144240, Note_on_c, 4, 60, 0
5, 144240, Note_on_c, 0, 69, 0
5, 144480, Note_on_c, 4, 61, 100
5, 144480, Note_on_c, 4, 60, 100
5, 144480, Note_on_c, 0, 69, 100
5, 144720, Note_on_c, 4, 61, 0
5, 144720, Note_on_c, 4, 60, 0
5, 144720, Note_on_c, 0, 69, 0
5, 145920, Note_on_c, 4, 61, 100
5, 145920, Note_on_c, 4, 60, 100
5, 145920, Note_on_c, 0, 70, 100
5, 146160, Note_on_c, 4, 61, 0
5, 146160, Note_on_c, 4, 60, 0
5, 146160, Note_on_c, 0, 70, 0
5, 146400, Note_on_c, 4, 60, 100
5, 146400, Note_on_c, 4, 61, 100
5, 146640, Note_on_c, 4, 60, 0
5, 146640, Note_on_c, 4, 61, 0
5, 146880, Note_on_c, 4, 61, 100
5, 146880, Note_on_c, 4, 60, 100
5, 146880, Note_on_c, 0, 68, 100
5, 147120, Note_on_c, 4, 61, 0
5, 147120, Note_on_c, 4, 60, 0
5, 147120, Note_on_c, 0, 68, 0
5, 147360, Note_on_c, 4, 61, 100
5, 147360, Note_on_c, 4, 60, 100
5, 147360, Note_on_c, 0, 68, 100
5, 147600, Note_on_c, 4, 61, 0
5, 147600, Note_on_c, 4, 60, 0
5, 147600, Note_on_c, 0, 68, 0
5, 148800, Note_on_c, 4, 60, 100
5, 149040, Note_on_c, 4, 60, 0
5, 149280, Note_on_c, 4, 60, 100
5, 149520, Note_on_c, 4, 60, 0
5, 150720, Note_on_c, 4, 61, 100
5, 150720, Note_on_c, 4, 60, 100
5, 150720, Note_on_c, 0, 68, 100
5, 150960, Note_on_c, 4, 61, 0
5, 150960, Note_on_c, 4, 60, 0
5, 150960, Note_on_c, 0, 68, 0
5, 151200, Note_on_c, 4, 61, 100
5, 151200, Note_on_c, 4, 60, 100
5, 151200, Note_on_c, 0, 68, 100
5, 151440, Note_on_c, 4, 61, 0
5, 151440, Note_on_c, 4, 60, 0
5, 151440, Note_on_c, 0, 68, 0
5, 152640, Note_on_c, 4, 60, 100
5, 152640, Note_on_c, 4, 61, 100
5, 152640, Note_on_c, 0, 70, 100
5, 152880, Note_on_c, 4, 60, 0
5, 152880, Note_on_c, 4, 61, 0
5, 152880, Note_on_c, 0, 70, 0
5, 152880, Note_on_c, 4, 61, 100
5, 153120, Note_on_c, 4, 61, 0
5, 153120, Note_on_c, 4, 60, 100
5, 153120, Note_on_c, 4, 61, 100
5, 153360, Note_on_c, 4, 60, 0
5, 153360, Note_on_c, 4, 61, 0
5, 153600, Note_on_c, 4, 61, 100
5, 153600, Note_on_c, 0, 69, 100
5, 153840, Note_on_c, 4, 61, 0
5, 153840, Note_on_c, 0, 69, 0
5, 153840, Note_on_c, 4, 61, 100
5, 154080, Note_on_c, 4, 61, 0
5, 154560, Note_on_c, 4, 60, 100
5, 154560, Note_on_c, 4, 61, 100
5, 154560, Note_on_c, 0, 68, 100
5, 154800, Note_on_c, 4, 60, 0
5, 154800, Note_on_c, 4, 61, 0
5, 155040, Note_on_c, 4, 60, 100
5, 155040, Note_on_c, 4, 61, 100
5, 155280, Note_on_c, 0, 68, 0
5, 155280, Note_on_c, 4, 60, 0
5, 155280, Note_on_c, 4, 61, 0
5, 156000, Note_on_c, 0, 68, 100
5, 156240, Note_on_c, 0, 68, 0
5, 156480, Note_on_c, 4, 60, 100
5, 156480, Note_on_c, 0, 69, 100
5, 156720, Note_on_c, 4, 60, 0
5, 156720, Note_on_c, 0, 69, 0
5, 156960, Note_on_c, 4, 60, 100
5, 157200, Note_on_c, 4, 60, 0
5, 157440, Note_on_c, 0, 68, 100
5, 157680, Note_on_c, 0, 68, 0
5, 158400, Note_on_c, 4, 60, 100
5, 158400, Note_on_c, 4, 61, 100
5, 158400, Note_on_c, 0, 70, 100
5, 158640, Note_on_c, 4, 60, 0
5, 158640, Note_on_c, 4, 61, 0
5, 158640, Note_on_c, 0, 70, 0
5, 158880, Note_on_c, 4, 60, 100
5, 158880, Note_on_c, 4, 61, 100
5, 159120, Note_on_c, 4, 60, 0
5, 159120, Note_on_c, 4, 61, 0
5, 159360, Note_on_c, 0, 70, 100
5, 160320, Note_on_c, 0, 70, 0
5, 160320, Note_on_c, 4, 60, 100
5, 160320, Note_on_c, 4, 61, 100
5, 160560, Note_on_c, 4, 60, 0
5, 160560, Note_on_c, 4, 61, 0
5, 160560, Note_on_c, 4, 61, 100
5, 160800, Note_on_c, 4, 61, 0
5, 160800, Note_on_c, 4, 60, 100
5, 160800, Note_on_c, 4, 61, 100
5, 160800, Note_on_c, 0, 68, 100
5, 161040, Note_on_c, 4, 60, 0
5, 161040, Note_on_c, 4, 61, 0
5, 161040, Note_on_c, 0, 68, 0
5, 161280, Note_on_c, 4, 61, 100
5, 161520, Note_on_c, 4, 61, 0
5, 161520, Note_on_c, 4, 61, 100
5, 161760, Note_on_c, 4, 61, 0
5, 162240, Note_on_c, 4, 60, 100
5, 162240, Note_on_c, 4, 61, 100
5, 162240, Note_on_c, 0, 69, 100
5, 162480, Note_on_c, 4, 60, 0
5, 162480, Note_on_c, 4, 61, 0
5, 162480, Note_on_c, 0, 69, 0
5, 162720, Note_on_c, 4, 60, 100
5, 162720, Note_on_c, 4, 61, 100
5, 162960, Note_on_c, 4, 60, 0
5, 162960, Note_on_c, 4, 61, 0
5, 163200, Note_on_c, 0, 70, 100
5, 163440, Note_on_c, 0, 70, 0
5, 163680, Note_on_c, 0, 69, 100
5, 163920, Note_on_c, 0, 69, 0
5, 164160, Note_on_c, 4, 60, 100
5, 164400, Note_on_c, 4, 60, 0
5, 164640, Note_on_c, 4, 60, 100
5, 164640, Note_on_c, 0, 70, 100
5, 164880, Note_on_c, 4, 60, 0
5, 164880, Note_on_c, 0, 70, 0
5, 165120, Note_on_c, 0, 69, 100
5, 165360, Note_on_c, 0, 69, 0
5, 166080, Note_on_c, 4, 60, 100
5, 166080, Note_on_c, 4, 61, 100
5, 166080, Note_on_c, 0, 70, 100
5, 166320, Note_on_c, 4, 60, 0
5, 166320, Note_on_c, 4, 61, 0
5, 166560, Note_on_c, 4, 60, 100
5, 166560, Note_on_c, 4, 61, 100
5, 166800, Note_on_c, 4, 60, 0
5, 166800, Note_on_c, 4, 61, 0
5, 167520, Note_on_c, 0, 70, 0
5, 167520, Note_on_c, 0, 68, 100
5, 167760, Note_on_c, 0, 68, 0
5, 168000, Note_on_c, 4, 60, 100
5, 168000, Note_on_c, 4, 61, 100
5, 168000, Note_on_c, 0, 68, 100
5, 168240, Note_on_c, 4, 60, 0
5, 168240, Note_on_c, 4, 61, 0
5, 168240, Note_on_c, 0, 68, 0
5, 168240, Note_on_c, 4, 61, 100
5, 168480, Note_on_c, 4, 61, 0
5, 168480, Note_on_c, 4, 60, 100
5, 168480, Note_on_c, 4, 61, 100
5, 168720, Note_on_c, 4, 60, 0
5, 168720, Note_on_c, 4, 61, 0
5, 168960, Note_on_c, 4, 61, 100
5, 168960, Note_on_c, 0, 70, 100
5, 169200, Note_on_c, 4, 61, 0
5, 169200, Note_on_c, 0, 70, 0
5, 169200, Note_on_c, 4, 61, 100
5, 169440, Note_on_c, 4, 61, 0
5, 169920, Note_on_c, 4, 60, 100
5, 169920, Note_on_c, 4, 61, 100
5, 169920, Note_on_c, 0, 70, 100
5, 170160, Note_on_c, 4, 60, 0
5, 170160, Note_on_c, 4, 61, 0
5, 170160, Note_on_c, 0, 70, 0
5, 170400, Note_on_c, 4, 60, 100
5, 170400, Note_on_c, 4, 61, 100
5, 170640, Note_on_c, 4, 60, 0
5, 170640, Note_on_c, 4, 61, 0
5, 170880, Note_on_c, 0, 69, 100
5, 171120, Note_on_c, 0, 69, 0
5, 171840, Note_on_c, 4, 60, 100
5, 171840, Note_on_c, 4, 61, 100
5, 171840, Note_on_c, 0, 68, 100
5, 172080, Note_on_c, 4, 60, 0
5, 172080, Note_on_c, 4, 61, 0
5, 172080, Note_on_c, 0, 68, 0
5, 172320, Note_on_c, 4, 60, 100
5, 172320, Note_on_c, 4, 61, 100
5, 172560, Note_on_c, 4, 60, 0
5, 172560, Note_on_c, 4, 61, 0
5, 172800, Note_on_c, 0, 70, 100
5, 173040, Note_on_c, 0, 70, 0
5, 173760, Note_on_c, 4, 60, 100
5, 173760, Note_on_c, 4, 61, 100
5, 173760, Note_on_c, 0, 69, 100
5, 174000, Note_on_c, 4, 60, 0
5, 174000, Note_on_c, 4, 61, 0
5, 174000, Note_on_c, 0, 69, 0
5, 174240, Note_on_c, 4, 60, 100
5, 174240, Note_on_c, 4, 61, 100
5, 174480, Note_on_c, 4, 60, 0
5, 174480, Note_on_c, 4, 61, 0
5, 174720, Note_on_c, 0, 68, 100
5, 174960, Note_on_c, 0, 68, 0
5, 175680, Note_on_c, 4, 60, 100
5, 175680, Note_on_c, 4, 61, 100
5, 175680, Note_on_c, 0, 69, 100
5, 175920, Note_on_c, 4, 60, 0
5, 175920, Note_on_c, 4, 61, 0
5, 177600, Note_on_c, 4, 60, 100
5, 177840, Note_on_c, 4, 60, 0
5, 178080, Note_on_c, 4, 60, 100
5, 178320, Note_on_c, 4, 60, 0
5, 179520, Note_on_c, 4, 60, 100
5, 179760, Note_on_c, 4, 60, 0
5, 180000, Note_on_c, 4, 60, 100
5, 180240, Note_on_c, 4, 60, 0
5, 181440, Note_on_c, 4, 60, 100
5, 181680, Note_on_c, 4, 60, 0
5, 181920, Note_on_c, 4, 60, 100
5, 182160, Note_on_c, 4, 60, 0
5, 183360, Note_on_c, 0, 69, 0
5, 183360, Note_on_c, 4, 60, 100
5, 183600, Note_on_c, 4, 60, 0
5, 183840, Note_on_c, 4, 60, 100
5, 184080, Note_on_c, 4, 60, 0
5, 185280, Note_on_c, 4, 60, 100
5, 185520, Note_on_c, 4, 60, 0
5, 185760, Note_on_c, 4, 60, 100
5, 186000, Note_on_c, 4, 60, 0
5, 187200, Note_on_c, 4, 60, 100
5, 187440, Note_on_c, 4, 60, 0
5, 187680, Note_on_c, 4, 60, 100
5, 187920, Note_on_c, 4, 60, 0
5, 189120, Note_on_c, 4, 60, 100
5, 189360, Note_on_c, 4, 60, 0
5, 189600, Note_on_c, 4, 60, 100
5, 189840, Note_on_c, 4, 60, 0
5, 191040, Note_on_c, 4, 60, 100
5, 191280, Note_on_c, 4, 60, 0
5, 191520, Note_on_c, 4, 60, 100
5, 191760, Note_on_c, 4, 60, 0
5, 192960, Note_on_c, 4, 60, 100
5, 193200, Note_on_c, 4, 60, 0
5, 193440, Note_on_c, 4, 60, 100
5, 193680, Note_on_c, 4, 60, 0
5, 194880, Note_on_c, 4, 60, 100
5, 194880, Note_on_c, 0, 68, 100
5, 195120, Note_on_c, 4, 60, 0
5, 195120, Note_on_c, 0, 68, 0
5, 195360, Note_on_c, 0, 68, 100
5, 195600, Note_on_c, 0, 68, 0
5, 195840, Note_on_c, 0, 68, 100
5, 196080, Note_on_c, 0, 68, 0
5, 196320, Note_on_c, 0, 68, 100
5, 196560, Note_on_c, 0, 68, 0
5, 196800, Note_on_c, 4, 60, 100
5, 196800, Note_on_c, 0, 68, 100
5, 197040, Note_on_c, 4, 60, 0
5, 197040, Note_on_c, 0, 68, 0
5, 197280, Note_on_c, 4, 60, 100
5, 197280, Note_on_c, 0, 68, 100
5, 197520, Note_on_c, 4, 60, 0
5, 197520, Note_on_c, 0, 68, 0
5, 197760, Note_on_c, 0, 68, 100
5, 198000, Note_on_c, 0, 68, 0
5, 198240, Note_on_c, 0, 68, 100
5, 198480, Note_on_c, 0, 68, 0
5, 198720, Note_on_c, 4, 60, 100
5, 198720, Note_on_c, 0, 69, 100
5, 198960, Note_on_c, 4, 60, 0
5, 198960, Note_on_c, 0, 69, 0
5, 199200, Note_on_c, 4, 60, 100
5, 199200, Note_on_c, 0, 69, 100
5, 199440, Note_on_c, 4, 60, 0
5, 199440, Note_on_c, 0, 69, 0
5, 199680, Note_on_c, 0, 69, 100
5, 199920, Note_on_c, 0, 69, 0
5, 200160, Note_on_c, 0, 69, 100
5, 200400, Note_on_c, 0, 69, 0
5, 200640, Note_on_c, 4, 60, 100
5, 200640, Note_on_c, 0, 70, 100
5, 200880, Note_on_c, 4, 60, 0
5, 200880, Note_on_c, 0, 70, 0
5, 201120, Note_on_c, 4, 60, 100
5, 201120, Note_on_c, 0, 70, 100
5, 201360, Note_on_c, 4, 60, 0
5, 201360, Note_on_c, 0, 70, 0
5, 201600, Note_on_c, 0, 70, 100
5, 201840, Note_on_c, 0, 70, 0
5, 202080, Note_on_c, 0, 70, 100
5, 202320, Note_on_c, 0, 70, 0
5, 202560, Note_on_c, 4, 60, 100
5, 202560, Note_on_c, 0, 68, 100
5, 202800, Note_on_c, 4, 60, 0
5, 202800, Note_on_c, 0, 68, 0
5, 203040, Note_on_c, 4, 60, 100
5, 203040, Note_on_c, 0, 68, 100
5, 203280, Note_on_c, 4, 60, 0
5, 203280, Note_on_c, 0, 68, 0
5, 203520, Note_on_c, 0, 68, 100
5, 203760, Note_on_c, 0, 68, 0
5, 204000, Note_on_c, 0, 68, 100
5, 204240, Note_on_c, 0, 68, 0
5, 204480, Note_on_c, 4, 60, 100
5, 204480, Note_on_c, 0, 68, 100
5, 204720, Note_on_c, 4, 60, 0
5, 204720, Note_on_c, 0, 68, 0
5, 204960, Note_on_c, 4, 60, 100
5, 204960, Note_on_c, 0, 68, 100
5, 205200, Note_on_c, 4, 60, 0
5, 205200, Note_on_c, 0, 68, 0
5, 205440, Note_on_c, 0, 68, 100
5, 205680, Note_on_c, 0, 68, 0
5, 205920, Note_on_c, 0, 68, 100
5, 206160, Note_on_c, 0, 68, 0
5, 206400, Note_on_c, 4, 60, 100
5, 206400, Note_on_c, 0, 69, 100
5, 206640, Note_on_c, 4, 60, 0
5, 206640, Note_on_c, 0, 69, 0
5, 206880, Note_on_c, 4, 60, 100
5, 206880, Note_on_c, 0, 69, 100
5, 207120, Note_on_c, 4, 60, 0
5, 207120, Note_on_c, 0, 69, 0
5, 207360, Note_on_c, 0, 69, 100
5, 207600, Note_on_c, 0, 69, 0
5, 207840, Note_on_c, 0, 69, 100
5, 208080, Note_on_c, 0, 69, 0
5, 208320, Note_on_c, 4, 60, 100
5, 208320, Note_on_c, 0, 70, 100
5, 208560, Note_on_c, 4, 60, 0
5, 208560, Note_on_c, 0, 70, 0
5, 208800, Note_on_c, 4, 60, 100
5, 208800, Note_on_c, 0, 70, 100
5, 209040, Note_on_c, 4, 60, 0
5, 209040, Note_on_c, 0, 70, 0
5, 209280, Note_on_c, 0, 68, 100
5, 209520, Note_on_c, 0, 68, 0
5, 210240, Note_on_c, 4, 61, 100
5, 210240, Note_on_c, 4, 60, 100
5, 210240, Note_on_c, 0, 68, 100
5, 210480, Note_on_c, 4, 61, 0
5, 210480, Note_on_c, 4, 60, 0
5, 210480, Note_on_c, 0, 68, 0
5, 210720, Note_on_c, 4, 61, 100
5, 210720, Note_on_c, 4, 60, 100
5, 210720, Note_on_c, 0, 68, 100
5, 210960, Note_on_c, 4, 61, 0
5, 210960, Note_on_c, 4, 60, 0
5, 210960, Note_on_c, 0, 68, 0
5, 212160, Note_on_c, 4, 61, 100
5, 212160, Note_on_c, 4, 60, 100
5, 212160, Note_on_c, 0, 68, 100
5, 212400, Note_on_c, 4, 61, 0
5, 212400, Note_on_c, 4, 60, 0
5, 212400, Note_on_c, 0, 68, 0
5, 212640, Note_on_c, 4, 61, 100
5, 212640, Note_on_c, 4, 60, 100
5, 212640, Note_on_c, 0, 68, 100
5, 212880, Note_on_c, 4, 61, 0
5, 212880, Note_on_c, 4, 60, 0
5, 212880, Note_on_c, 0, 68, 0
5, 213360, Note_on_c, 4, 61, 100
5, 213600, Note_on_c, 4, 61, 0
5, 214080, Note_on_c, 4, 61, 100
5, 214080, Note_on_c, 4, 60, 100
5, 214080, Note_on_c, 0, 69, 100
5, 214320, Note_on_c, 4, 61, 0
5, 214320, Note_on_c, 4, 60, 0
5, 214320, Note_on_c, 0, 69, 0
5, 214560, Note_on_c, 4, 61, 100
5, 214560, Note_on_c, 4, 60, 100
5, 214560, Note_on_c, 0, 69, 100
5, 214800, Note_on_c, 4, 61, 0
5, 214800, Note_on_c, 4, 60, 0
5, 214800, Note_on_c, 0, 69, 0
5, 216000, Note_on_c, 4, 61, 100
5, 216000, Note_on_c, 4, 60, 100
5, 216000, Note_on_c, 0, 70, 100
5, 216240, Note_on_c, 4, 61, 0
5, 216240, Note_on_c, 4, 60, 0
5, 216240, Note_on_c, 0, 70, 0
5, 216480, Note_on_c, 4, 61, 100
5, 216480, Note_on_c, 4, 60, 100
5, 216480, Note_on_c, 0, 70, 100
5, 216720, Note_on_c, 4, 61, 0
5, 216720, Note_on_c, 4, 60, 0
5, 216720, Note_on_c, 0, 70, 0
5, 217920, Note_on_c, 4, 61, 100
5, 217920, Note_on_c, 4, 60, 100
5, 217920, Note_on_c, 0, 68, 100
5, 218160, Note_on_c, 4, 61, 0
5, 218160, Note_on_c, 4, 60, 0
5, 218160, Note_on_c, 0, 68, 0
5, 218400, Note_on_c, 4, 61, 100
5, 218400, Note_on_c, 4, 60, 100
5, 218400, Note_on_c, 0, 68, 100
5, 218640, Note_on_c, 4, 61, 0
5, 218640, Note_on_c, 4, 60, 0
5, 218640, Note_on_c, 0, 68, 0
5, 219840, Note_on_c, 4, 61, 100
5, 219840, Note_on_c, 4, 60, 100
5, 219840, Note_on_c, 0, 68, 100
5, 220080, Note_on_c, 4, 61, 0
5, 220080, Note_on_c, 4, 60, 0
5, 220080, Note_on_c, 0, 68, 0
5, 220320, Note_on_c, 4, 61, 100
5, 220320, Note_on_c, 4, 60, 100
5, 220320, Note_on_c, 0, 68, 100
5, 220560, Note_on_c, 4, 61, 0
5, 220560, Note_on_c, 4, 60, 0
5, 220560, Note_on_c, 0, 68, 0
5, 221040, Note_on_c, 4, 61, 100
5, 221280, Note_on_c, 4, 61, 0
5, 221760, Note_on_c, 4, 61, 100
5, 221760, Note_on_c, 4, 60, 100
5, 221760, Note_on_c, 0, 69, 100
5, 222000, Note_on_c, 4, 61, 0
5, 222000, Note_on_c, 4, 60, 0
5, 222000, Note_on_c, 0, 69, 0
5, 222240, Note_on_c, 4, 61, 100
5, 222240, Note_on_c, 4, 60, 100
5, 222240, Note_on_c, 0, 69, 100
5, 222480, Note_on_c, 4, 61, 0
5, 222480, Note_on_c, 4, 60, 0
5, 222480, Note_on_c, 0, 69, 0
5, 223680, Note_on_c, 4, 61, 100
5, 223680, Note_on_c, 4, 60, 100
5, 223680, Note_on_c, 0, 70, 100
5, 223920, Note_on_c, 4, 61, 0
5, 223920, Note_on_c, 4, 60, 0
5, 223920, Note_on_c, 0, 70, 0
5, 224160, Note_on_c, 4, 60, 100
5, 224160, Note_on_c, 4, 61, 100
5, 224400, Note_on_c, 4, 60, 0
5, 224400, Note_on_c, 4, 61, 0
5, 224640, Note_on_c, 4, 61, 100
5, 224640, Note_on_c, 4, 60, 100
5, 224640, Note_on_c, 0, 68, 100
5, 224880, Note_on_c, 4, 61, 0
5, 224880, Note_on_c, 4, 60, 0
5, 224880, Note_on_c, 0, 68, 0
5, 225120, Note_on_c, 4, 61, 100
5, 225120, Note_on_c, 4, 60, 100
5, 225120, Note_on_c, 0, 68, 100
5, 225360, Note_on_c, 4, 61, 0
5, 225360, Note_on_c, 4, 60, 0
5, 225360, Note_on_c, 0, 68, 0
5, 226560, Note_on_c, 4, 61, 100
5, 226560, Note_on_c, 4, 60, 100
5, 226560, Note_on_c, 0, 68, 100
5, 226800, Note_on_c, 4, 61, 0
5, 226800, Note_on_c, 4, 60, 0
5, 226800, Note_on_c, 0, 68, 0
5, 227040, Note_on_c, 4, 61, 100
5, 227040, Note_on_c, 4, 60, 100
5, 227040, Note_on_c, 0, 68, 100
5, 227280, Note_on_c, 4, 61, 0
5, 227280, Note_on_c, 4, 60, 0
5, 227280, Note_on_c, 0, 68, 0
5, 227760, Note_on_c, 4, 61, 100
5, 228000, Note_on_c, 4, 61, 0
5, 228480, Note_on_c, 4, 61, 100
5, 228480, Note_on_c, 4, 60, 100
5, 228480, Note_on_c, 0, 69, 100
5, 228720, Note_on_c, 4, 61, 0
5, 228720, Note_on_c, 4, 60, 0
5, 228720, Note_on_c, 0, 69, 0
5, 228960, Note_on_c, 4, 61, 100
5, 228960, Note_on_c, 4, 60, 100
5, 228960, Note_on_c, 0, 69, 100
5, 229200, Note_on_c, 4, 61, 0
5, 229200, Note_on_c, 4, 60, 0
5, 229200, Note_on_c, 0, 69, 0
5, 230400, Note_on_c, 4, 61, 100
5, 230400, Note_on_c, 4, 60, 100
5, 230400, Note_on_c, 0, 70, 100
5, 230640, Note_on_c, 4, 61, 0
5, 230640, Note_on_c, 4, 60, 0
5, 230640, Note_on_c, 0, 70, 0
5, 230880, Note_on_c, 4, 61, 100
5, 230880, Note_on_c, 4, 60, 100
5, 230880, Note_on_c, 0, 70, 100
5, 231120, Note_on_c, 4, 61, 0
5, 231120, Note_on_c, 4, 60, 0
5, 231120, Note_on_c, 0, 70, 0
5, 232320, Note_on_c, 4, 61, 100
5, 232320, Note_on_c, 4, 60, 100
5, 232320, Note_on_c, 0, 68, 100
5, 232560, Note_on_c, 4, 61, 0
5, 232560, Note_on_c, 4, 60, 0
5, 232560, Note_on_c, 0, 68, 0
5, 232800, Note_on_c, 4, 61, 100
5, 232800, Note_on_c, 4, 60, 100
5, 232800, Note_on_c, 0, 68, 100
5, 233040, Note_on_c, 4, 61, 0
5, 233040, Note_on_c, 4, 60, 0
5, 233040, Note_on_c, 0, 68, 0
5, 234240, Note_on_c, 4, 61, 100
5, 234240, Note_on_c, 4, 60, 100
5, 234240, Note_on_c, 0, 68, 100
5, 234480, Note_on_c, 4, 61, 0
5, 234480, Note_on_c, 4, 60, 0
5, 234480, Note_on_c, 0, 68, 0
5, 234720, Note_on_c, 4, 61, 100
5, 234720, Note_on_c, 4, 60, 100
5, 234720, Note_on_c, 0, 68, 100
5, 234960, Note_on_c, 4, 61, 0
5, 234960, Note_on_c, 4, 60, 0
5, 234960, Note_on_c, 0, 68, 0
5, 235440, Note_on_c, 4, 61, 100
5, 235680, Note_on_c, 4, 61, 0
5, 236160, Note_on_c, 4, 61, 100
5, 236160, Note_on_c, 4, 60, 100
5, 236160, Note_on_c, 0, 69, 100
5, 236400, Note_on_c, 4, 61, 0
5, 236400, Note_on_c, 4, 60, 0
5, 236400, Note_on_c, 0, 69, 0
5, 236640, Note_on_c, 4, 61, 100
5, 236640, Note_on_c, 4, 60, 100
5, 236640, Note_on_c, 0, 69, 100
5, 236880, Note_on_c, 4, 61, 0
5, 236880, Note_on_c, 4, 60, 0
5, 236880, Note_on_c, 0, 69, 0
5, 238080, Note_on_c, 4, 61, 100
5, 238080, Note_on_c, 4, 60, 100
5, 238080, Note_on_c, 0, 70, 100
5, 238320, Note_on_c, 4, 61, 0
5, 238320, Note_on_c, 4, 60, 0
5, 238320, Note_on_c, 0, 70, 0
5, 238560, Note_on_c, 4, 60, 100
5, 238560, Note_on_c, 4, 61, 100
5, 238800, Note_on_c, 4, 60, 0
5, 238800, Note_on_c, 4, 61, 0
5, 239040, Note_on_c, 4, 61, 100
5, 239040, Note_on_c, 4, 60, 100
5, 239040, Note_on_c, 0, 68, 100
5, 239280, Note_on_c, 4, 61, 0
5, 239280, Note_on_c, 4, 60, 0
5, 239280, Note_on_c, 0, 68, 0
5, 239520, Note_on_c, 4, 61, 100
5, 239520, Note_on_c, 4, 60, 100
5, 239520, Note_on_c, 0, 68, 100
5, 239760, Note_on_c, 4, 61, 0
5, 239760, Note_on_c, 4, 60, 0
5, 239760, Note_on_c, 0, 68, 0
5, 240960, Note_on_c, 4, 61, 100
5, 240960, Note_on_c, 4, 60, 100
5, 240960, Note_on_c, 0, 68, 100
5, 241200, Note_on_c, 4, 61, 0
5, 241200, Note_on_c, 4, 60, 0
5, 241200, Note_on_c, 0, 68, 0
5, 241440, Note_on_c, 4, 61, 100
5, 241440, Note_on_c, 4, 60, 100
5, 241440, Note_on_c, 0, 68, 100
5, 241680, Note_on_c, 4, 61, 0
5, 241680, Note_on_c, 4, 60, 0
5, 241680, Note_on_c, 0, 68, 0
5, 242160, Note_on_c, 4, 61, 100
5, 242400, Note_on_c, 4, 61, 0
5, 242880, Note_on_c, 4, 61, 100
5, 242880, Note_on_c, 4, 60, 100
5, 242880, Note_on_c, 0, 69, 100
5, 243120, Note_on_c, 4, 61, 0
5, 243120, Note_on_c, 4, 60, 0
5, 243120, Note_on_c, 0, 69, 0
5, 243360, Note_on_c, 4, 61, 100
5, 243360, Note_on_c, 4, 60, 100
5, 243360, Note_on_c, 0, 69, 100
5, 243600, Note_on_c, 4, 61, 0
5, 243600, Note_on_c, 4, 60, 0
5, 243600, Note_on_c, 0, 69, 0
5, 244800, Note_on_c, 4, 61, 100
5, 244800, Note_on_c, 4, 60, 100
5, 244800, Note_on_c, 0, 70, 100
5, 245040, Note_on_c, 4, 61, 0
5, 245040, Note_on_c, 4, 60, 0
5, 245040, Note_on_c, 0, 70, 0
5, 245280, Note_on_c, 4, 61, 100
5, 245280, Note_on_c, 4, 60, 100
5, 245280, Note_on_c, 0, 70, 100
5, 245520, Note_on_c, 4, 61, 0
5, 245520, Note_on_c, 4, 60, 0
5, 245520, Note_on_c, 0, 70, 0
5, 246720, Note_on_c, 4, 61, 100
5, 246720, Note_on_c, 4, 60, 100
5, 246720, Note_on_c, 0, 68, 100
5, 246960, Note_on_c, 4, 61, 0
5, 246960, Note_on_c, 4, 60, 0
5, 246960, Note_on_c, 0, 68, 0
5, 247200, Note_on_c, 4, 61, 100
5, 247200, Note_on_c, 4, 60, 100
5, 247200, Note_on_c, 0, 68, 100
5, 247440, Note_on_c, 4, 61, 0
5, 247440, Note_on_c, 4, 60, 0
5, 247440, Note_on_c, 0, 68, 0
5, 248640, Note_on_c, 4, 61, 100
5, 248640, Note_on_c, 4, 60, 100
5, 248640, Note_on_c, 0, 68, 100
5, 248880, Note_on_c, 4, 61, 0
5, 248880, Note_on_c, 4, 60, 0
5, 248880, Note_on_c, 0, 68, 0
5, 249120, Note_on_c, 4, 61, 100
5, 249120, Note_on_c, 4, 60, 100
5, 249120, Note_on_c, 0, 68, 100
5, 249360, Note_on_c, 4, 61, 0
5, 249360, Note_on_c, 4, 60, 0
5, 249360, Note_on_c, 0, 68, 0
5, 249840, Note_on_c, 4, 61, 100
5, 250080, Note_on_c, 4, 61, 0
5, 250560, Note_on_c, 4, 61, 100
5, 250560, Note_on_c, 4, 60, 100
5, 250560, Note_on_c, 0, 69, 100
5, 250800, Note_on_c, 4, 61, 0
5, 250800, Note_on_c, 4, 60, 0
5, 250800, Note_on_c, 0, 69, 0
5, 251040, Note_on_c, 4, 61, 100
5, 251040, Note_on_c, 4, 60, 100
5, 251040, Note_on_c, 0, 69, 100
5, 251280, Note_on_c, 4, 61, 0
5, 251280, Note_on_c, 4, 60, 0
5, 251280, Note_on_c, 0, 69, 0
5, 252480, Note_on_c, 4, 61, 100
5, 252480, Note_on_c, 4, 60, 100
5, 252480, Note_on_c, 0, 70, 100
5, 252720, Note_on_c, 4, 61, 0
5, 252720, Note_on_c, 4, 60, 0
5, 252720, Note_on_c, 0, 70, 0
5, 252960, Note_on_c, 4, 60, 100
5, 252960, Note_on_c, 4, 61, 100
5, 253200, Note_on_c, 4, 60, 0
5, 253200, Note_on_c, 4, 61, 0
5, 253440, Note_on_c, 4, 61, 100
5, 253440, Note_on_c, 4, 60, 100
5, 253440, Note_on_c, 0, 68, 100
5, 253680, Note_on_c, 4, 61, 0
5, 253680, Note_on_c, 4, 60, 0
5, 253680, Note_on_c, 0, 68, 0
5, 253920, Note_on_c, 4, 61, 100
5, 253920, Note_on_c, 4, 60, 100
5, 253920, Note_on_c, 0, 68, 100
5, 254160, Note_on_c, 4, 61, 0
5, 254160, Note_on_c, 4, 60, 0
5, 254160, Note_on_c, 0, 68, 0
5, 255360, Note_on_c, 4, 61, 100
5, 255360, Note_on_c, 4, 60, 100
5, 255360, Note_on_c, 0, 68, 100
5, 255600, Note_on_c, 4, 61, 0
5, 255600, Note_on_c, 4, 60, 0
5, 255600, Note_on_c, 0, 68, 0
5, 255840, Note_on_c, 4, 61, 100
5, 255840, Note_on_c, 4, 60, 100
5, 255840, Note_on_c, 0, 68, 100
5, 256080, Note_on_c, 4, 61, 0
5, 256080, Note_on_c, 4, 60, 0
5, 256080, Note_on_c, 0, 68, 0
5, 256560, Note_on_c, 4, 61, 100
5, 256800, Note_on_c, 4, 61, 0
5, 257280, Note_on_c, 4, 61, 100
5, 257280, Note_on_c, 4, 60, 100
5, 257280, Note_on_c, 0, 69, 100
5, 257520, Note_on_c, 4, 61, 0
5, 257520, Note_on_c, 4, 60, 0
5, 257520, Note_on_c, 0, 69, 0
5, 257760, Note_on_c, 4, 61, 100
5, 257760, Note_on_c, 4, 60, 100
5, 257760, Note_on_c, 0, 69, 100
5, 258000, Note_on_c, 4, 61, 0
5, 258000, Note_on_c, 4, 60, 0
5, 258000, Note_on_c, 0, 69, 0
5, 259200, Note_on_c, 4, 61, 100
5, 259200, Note_on_c, 4, 60, 100
5, 259200, Note_on_c, 0, 70, 100
5, 259440, Note_on_c, 4, 61, 0
5, 259440, Note_on_c, 4, 60, 0
5, 259440, Note_on_c, 0, 70, 0
5, 259680, Note_on_c, 4, 61, 100
5, 259680, Note_on_c, 4, 60, 100
5, 259680, Note_on_c, 0, 70, 100
5, 259920, Note_on_c, 4, 61, 0
5, 259920, Note_on_c, 4, 60, 0
5, 259920, Note_on_c, 0, 70, 0
5, 261120, Note_on_c, 4, 61, 100
5, 261120, Note_on_c, 4, 60, 100
5, 261120, Note_on_c, 0, 68, 100
5, 261360, Note_on_c, 4, 61, 0
5, 261360, Note_on_c, 4, 60, 0
5, 261360, Note_on_c, 0, 68, 0
5, 261600, Note_on_c, 4, 61, 100
5, 261600, Note_on_c, 4, 60, 100
5, 261600, Note_on_c, 0, 68, 100
5, 261840, Note_on_c, 4, 61, 0
5, 261840, Note_on_c, 4, 60, 0
5, 261840, Note_on_c, 0, 68, 0
5, 263040, Note_on_c, 4, 61, 100
5, 263040, Note_on_c, 4, 60, 100
5, 263040, Note_on_c, 0, 68, 100
5, 263280, Note_on_c, 4, 61, 0
5, 263280, Note_on_c, 4, 60, 0
5, 263280, Note_on_c, 0, 68, 0
5, 263520, Note_on_c, 4, 61, 100
5, 263520, Note_on_c, 4, 60, 100
5, 263520, Note_on_c, 0, 68, 100
5, 263760, Note_on_c, 4, 61, 0
5, 263760, Note_on_c, 4, 60, 0
5, 263760, Note_on_c, 0, 68, 0
5, 264240, Note_on_c, 4, 61, 100
5, 264480, Note_on_c, 4, 61, 0
5, 264960, Note_on_c, 4, 61, 100
5, 264960, Note_on_c, 4, 60, 100
5, 264960, Note_on_c, 0, 69, 100
5, 265200, Note_on_c, 4, 61, 0
5, 265200, Note_on_c, 4, 60, 0
5, 265200, Note_on_c, 0, 69, 0
5, 265440, Note_on_c, 4, 61, 100
5, 265440, Note_on_c, 4, 60, 100
5, 265440, Note_on_c, 0, 69, 100
5, 265680, Note_on_c, 4, 61, 0
5, 265680, Note_on_c, 4, 60, 0
5, 265680, Note_on_c, 0, 69, 0
5, 266880, Note_on_c, 4, 61, 100
5, 266880, Note_on_c, 4, 60, 100
5, 266880, Note_on_c, 0, 70, 100
5, 267120, Note_on_c, 4, 61, 0
5, 267120, Note_on_c, 4, 60, 0
5, 267120, Note_on_c, 0, 70, 0
5, 267360, Note_on_c, 4, 60, 100
5, 267360, Note_on_c, 4, 61, 100
5, 267600, Note_on_c, 4, 60, 0
5, 267600, Note_on_c, 4, 61, 0
5, 267840, Note_on_c, 4, 61, 100
5, 267840, Note_on_c, 4, 60, 100
5, 267840, Note_on_c, 0, 68, 100
5, 268080, Note_on_c, 4, 61, 0
5, 268080, Note_on_c, 4, 60, 0
5, 268560, Note_on_c, 0, 68, 0
5, 268560, End_track
6, 0, Start_track
6, 0, Title_t, "BAND SINGER"
6, 0, Text_t, "gtr_off"
6, 0, Text_t, "drum_off"
6, 0, Text_t, "bass_off"
6, 0, Text_t, "[idle]"
6, 5760, Text_t, "drum_allbeat"
6, 7680, Text_t, "gtr_on"
6, 7680, Text_t, "bass_on"
6, 7680, Text_t, "[chorus]"
6, 7680, Text_t, "drum_normal"
6, 22080, Text_t, "[verse]"
6, 29760, Text_t, "[play]"
6, 50880, Text_t, "gtr_off"
6, 50880, Text_t, "bass_off"
6, 66240, Text_t, "gtr_on"
6, 66240, Text_t, "bass_on"
6, 66240, Text_t, "drum_allbeat"
6, 70080, Text_t, "[chorus]"
6, 70080, Text_t, "[lighting (sweep)]"
6, 70080, Text_t, "drum_normal"
6, 84480, Text_t, "[idle]"
6, 84480, Text_t, "[verse]"
6, 84480, Text_t, "wail_off"
6, 92160, Text_t, "[play]"
6, 113280, Text_t, "gtr_off"
6, 113280, Text_t, "bass_off"
6, 128640, Text_t, "gtr_on"
6, 128640, Text_t, "bass_on"
6, 128640, Text_t, "drum_allbeat"
6, 132480, Text_t, "[chorus]"
6, 132480, Text_t, "[lighting (sweep)]"
6, 132480, Text_t, "drum_normal"
6, 146880, Text_t, "[idle]"
6, 146880, Text_t, "[verse]"
6, 146880, Text_t, "wail_off"
6, 154560, Text_t, "[solo]"
6, 154560, Text_t, "solo_on"
6, 169920, Text_t, "solo_off"
6, 169920, Text_t, "[play]"
6, 169920, Text_t, "[verse]"
6, 175680, Text_t, "gtr_off"
6, 175680, Text_t, "bass_off"
6, 194880, Text_t, "[chorus]"
6, 194880, Text_t, "gtr_on"
6, 194880, Text_t, "bass_on"
6, 239040, Text_t, "[lighting (sweep)]"
6, 267840, Text_t, "gtr_off"
6, 267840, Text_t, "bass_off"
6, 267840, Text_t, "[idle]"
6, 267840, Text_t, "wail_off"
6, 268800, Text_t, "drum_off"
6, 270000, Text_t, "[end]"
6, 270000, End_track
7, 0, Start_track
7, 0, Title_t, "BAND BASS"
7, 0, Text_t, "gtr_off"
7, 0, Text_t, "drum_off"
7, 0, Text_t, "[idle]"
7, 0, Text_t, "sing_off"
7, 5760, Text_t, "drum_allbeat"
7, 7680, Text_t, "gtr_on"
7, 7680, Text_t, "[play]"
7, 7680, Text_t, "[chorus]"
7, 7680, Text_t, "drum_normal"
7, 22080, Text_t, "[verse]"
7, 29760, Text_t, "sing_on"
7, 50880, Text_t, "gtr_off"
7, 50880, Text_t, "[idle]"
7, 66240, Text_t, "gtr_on"
7, 66240, Text_t, "[play]"
7, 66240, Text_t, "drum_allbeat"
7, 70080, Text_t, "[chorus]"
7, 70080, Text_t, "[lighting (sweep)]"
7, 70080, Text_t, "drum_normal"
7, 84480, Text_t, "sing_off"
7, 84480, Text_t, "[verse]"
7, 84480, Text_t, "wail_off"
7, 92160, Text_t, "sing_on"
7, 113280, Text_t, "gtr_off"
7, 113280, Text_t, "[idle]"
7, 128640, Text_t, "gtr_on"
7, 128640, Text_t, "[play]"
7, 128640, Text_t, "drum_allbeat"
7, 132480, Text_t, "[chorus]"
7, 132480, Text_t, "[lighting (sweep)]"
7, 132480, Text_t, "drum_normal"
7, 146880, Text_t, "sing_off"
7, 146880, Text_t, "[verse]"
7, 146880, Text_t, "wail_off"
7, 154560, Text_t, "[solo]"
7, 154560, Text_t, "solo_on"
7, 169920, Text_t, "solo_off"
7, 169920, Text_t, "sing_on"
7, 169920, Text_t, "[verse]"
7, 175680, Text_t, "gtr_off"
7, 175680, Text_t, "[idle]"
7, 194880, Text_t, "[chorus]"
7, 194880, Text_t, "gtr_on"
7, 194880, Text_t, "[play]"
7, 239040, Text_t, "[lighting (sweep)]"
7, 267840, Text_t, "gtr_off"
7, 267840, Text_t, "[idle]"
7, 267840, Text_t, "sing_off"
7, 267840, Text_t, "wail_off"
7, 268800, Text_t, "drum_off"
7, 270000, Text_t, "[end]"
7, 270000, End_track
8, 0, Start_track
8, 0, Title_t, "BAND DRUMS"
8, 0, Text_t, "gtr_off"
8, 0, Text_t, "[idle]"
8, 0, Text_t, "bass_off"
8, 0, Text_t, "sing_off"
8, 5760, Text_t, "[allbeat]"
8, 7680, Text_t, "gtr_on"
8, 7680, Text_t, "bass_on"
8, 7680, Text_t, "[chorus]"
8, 7680, Text_t, "[nobeat]"
8, 22080, Text_t, "[verse]"
8, 29760, Text_t, "sing_on"
8, 50880, Text_t, "gtr_off"
8, 50880, Text_t, "bass_off"
8, 66240, Text_t, "gtr_on"
8, 66240, Text_t, "bass_on"
8, 66240, Text_t, "[allbeat]"
8, 70080, Text_t, "[chorus]"
8, 70080, Text_t, "[lighting (sweep)]"
8, 70080, Text_t, "[nobeat]"
8, 84480, Text_t, "sing_off"
8, 84480, Text_t, "[verse]"
8, 84480, Text_t, "wail_off"
8, 92160, Text_t, "sing_on"
8, 113280, Text_t, "gtr_off"
8, 113280, Text_t, "bass_off"
8, 128640, Text_t, "gtr_on"
8, 128640, Text_t, "bass_on"
8, 128640, Text_t, "[allbeat]"
8, 132480, Text_t, "[chorus]"
8, 132480, Text_t, "[lighting (sweep)]"
8, 132480, Text_t, "[nobeat]"
8, 146880, Text_t, "sing_off"
8, 146880, Text_t, "[verse]"
8, 146880, Text_t, "wail_off"
8, 154560, Text_t, "[solo]"
8, 154560, Text_t, "solo_on"
8, 169920, Text_t, "solo_off"
8, 169920, Text_t, "sing_on"
8, 169920, Text_t, "[verse]"
8, 175680, Text_t, "gtr_off"
8, 175680, Text_t, "bass_off"
8, 194880, Text_t, "[chorus]"
8, 194880, Text_t, "gtr_on"
8, 194880, Text_t, "bass_on"
8, 239040, Text_t, "[lighting (sweep)]"
8, 267840, Text_t, "gtr_off"
8, 267840, Text_t, "bass_off"
8, 267840, Text_t, "sing_off"
8, 267840, Text_t, "wail_off"
8, 268800, Text_t, "[idle]"
8, 270000, Text_t, "[end]"
8, 270000, End_track
0, 0, End_of_file
