0, 0, Header, 1, 8, 960
1, 0, Start_track
1, 0, Title_t, "decontrol"
1, 0, Time_signature, 4, 2, 24, 8
1, 0, Tempo, 569800
1, 7680, Tempo, 574162
1, 11520, Tempo, 568719
1, 15360, Tempo, 571428
1, 19200, Tempo, 579710
1, 23040, Tempo, 560747
1, 26880, Tempo, 571428
1, 30720, Tempo, 574162
1, 38400, Tempo, 289855
1, 42240, Tempo, 285714
1, 57600, Tempo, 284359
1, 76800, Tempo, 288459
1, 84480, Tempo, 287081
1, 96000, Tempo, 285714
1, 111360, Tempo, 283017
1, 122880, Tempo, 285714
1, 142080, Tempo, 287081
1, 161280, Tempo, 283017
1, 168960, Tempo, 285714
1, 268800, Tempo, 287081
1, 280320, Tempo, 284359
1, 299520, Tempo, 292681
1, 303360, Tempo, 288459
1, 307200, Tempo, 284359
1, 326400, Tempo, 285714
1, 330240, Tempo, 284359
1, 334080, Tempo, 287081
1, 341760, Tempo, 285714
1, 345600, Tempo, 283017
1, 353280, Tempo, 287081
1, 368640, Tempo, 285714
1, 387840, Tempo, 287081
1, 399360, Tempo, 286395
1, 414720, Tempo, 284359
1, 418560, Tempo, 282352
1, 422400, Tempo, 285035
1, 441600, Tempo, 285714
1, 449280, Tempo, 291262
1, 453120, Tempo, 281690
1, 456960, Tempo, 285714
1, 472320, Tempo, 287081
1, 476160, Tempo, 280373
1, 483840, Tempo, 576923
1, 491520, Tempo, 560747
1, 495360, Tempo, 571428
1, 499200, Tempo, 288459
1, 506880, Tempo, 291262
1, 510720, Tempo, 285714
1, 522240, Tempo, 284359
1, 533760, Tempo, 279069
1, 537600, Tempo, 288459
1, 541440, Tempo, 292681
1, 545280, Tempo, 284359
1, 549120, Tempo, 281690
1, 556800, Tempo, 292681
1, 560640, Tempo, 291262
1, 564480, Tempo, 272727
1, 568320, Tempo, 288459
1, 572160, Tempo, 300000
1, 576000, Tempo, 280373
1, 583680, Tempo, 285714
1, 587520, Tempo, 294117
1, 591360, Tempo, 272727
1, 595200, Tempo, 292681
1, 599040, Tempo, 281690
1, 602880, Tempo, 285714
1, 606720, Tempo, 287081
1, 614400, Tempo, 285714
1, 618240, Tempo, 283017
1, 625920, Tempo, 292681
1, 629760, Tempo, 285714
1, 629760, End_track
2, 0, Start_track
2, 0, Title_t, "PART GUITAR"
2, 0, Text_t, "[idle]"
2, 7650, Text_t, "sing_off"
2, 7650, Text_t, "[play]"
2, 7650, Text_t, "drum_off"
2, 7650, Note_on_c, 0, 105, 100
2, 7650, Note_on_c, 0, 93, 100
2, 7650, Note_on_c, 0, 69, 100
2, 7650, Note_on_c, 0, 81, 100
2, 7680, Note_on_c, 0, 96, 100
2, 7680, Note_on_c, 0, 98, 100
2, 7680, Note_on_c, 0, 84, 100
2, 7680, Note_on_c, 0, 86, 100
2, 7680, Note_on_c, 0, 72, 100
2, 7680, Note_on_c, 0, 74, 100
2, 7680, Note_on_c, 0, 60, 100
2, 11280, Note_on_c, 0, 72, 0
2, 11280, Note_on_c, 0, 74, 0
2, 11280, Note_on_c, 0, 60, 0
2, 11520, Note_on_c, 0, 96, 0
2, 11520, Note_on_c, 0, 98, 0
2, 11520, Note_on_c, 0, 84, 0
2, 11520, Note_on_c, 0, 86, 0
2, 11520, Note_on_c, 0, 97, 100
2, 11520, Note_on_c, 0, 99, 100
2, 11520, Note_on_c, 0, 85, 100
2, 11520, Note_on_c, 0, 86, 100
2, 11520, Note_on_c, 0, 73, 100
2, 11520, Note_on_c, 0, 74, 100
2, 11520, Note_on_c, 0, 61, 100
2, 15120, Note_on_c, 0, 73, 0
2, 15120, Note_on_c, 0, 74, 0
2, 15120, Note_on_c, 0, 61, 0
2, 15330, Text_t, "[play]"
2, 15330, Text_t, "bass_on"
2, 15330, Text_t, "drum_on"
2, 15330, Text_t, "[verse]"
2, 15360, Note_on_c, 0, 97, 0
2, 15360, Note_on_c, 0, 99, 0
2, 15360, Note_on_c, 0, 85, 0
2, 15360, Note_on_c, 0, 86, 0
2, 15360, Note_on_c, 0, 98, 100
2, 15360, Note_on_c, 0, 100, 100
2, 15360, Note_on_c, 0, 85, 100
2, 15360, Note_on_c, 0, 87, 100
2, 15360, Note_on_c, 0, 73, 100
2, 15360, Note_on_c, 0, 75, 100
2, 15360, Note_on_c, 0, 61, 100
2, 18960, Note_on_c, 0, 73, 0
2, 18960, Note_on_c, 0, 75, 0
2, 18960, Note_on_c, 0, 61, 0
2, 19200, Note_on_c, 0, 98, 0
2, 19200, Note_on_c, 0, 100, 0
2, 19200, Note_on_c, 0, 85, 0
2, 19200, Note_on_c, 0, 87, 0
2, 19200, Note_on_c, 0, 99, 100
2, 19200, Note_on_c, 0, 100, 100
2, 19200, Note_on_c, 0, 86, 100
2, 19200, Note_on_c, 0, 87, 100
2, 19200, Note_on_c, 0, 74, 100
2, 19200, Note_on_c, 0, 75, 100
2, 19200, Note_on_c, 0, 62, 100
2, 20880, Note_on_c, 0, 74, 0
2, 20880, Note_on_c, 0, 75, 0
2, 20880, Note_on_c, 0, 62, 0
2, 21090, Note_on_c, 0, 103, 100
2, 21090, Note_on_c, 0, 91, 100
2, 21090, Note_on_c, 0, 79, 100
2, 21090, Note_on_c, 0, 67, 100
2, 21090, Note_on_c, 0, 106, 100
2, 21090, Note_on_c, 0, 94, 100
2, 21090, Note_on_c, 0, 70, 100
2, 21090, Note_on_c, 0, 82, 100
2, 21120, Note_on_c, 0, 99, 0
2, 21120, Note_on_c, 0, 100, 0
2, 21120, Note_on_c, 0, 86, 0
2, 21120, Note_on_c, 0, 87, 0
2, 21120, Note_on_c, 0, 100, 100
2, 21120, Note_on_c, 0, 98, 100
2, 21120, Note_on_c, 0, 85, 100
2, 21120, Note_on_c, 0, 73, 100
2, 21120, Note_on_c, 0, 61, 100
2, 21360, Note_on_c, 0, 100, 0
2, 21360, Note_on_c, 0, 98, 0
2, 21360, Note_on_c, 0, 85, 0
2, 21360, Note_on_c, 0, 73, 0
2, 21360, Note_on_c, 0, 61, 0
2, 21840, Note_on_c, 0, 100, 100
2, 21840, Note_on_c, 0, 99, 100
2, 21840, Note_on_c, 0, 86, 100
2, 21840, Note_on_c, 0, 74, 100
2, 21840, Note_on_c, 0, 62, 100
2, 22080, Note_on_c, 0, 100, 0
2, 22080, Note_on_c, 0, 99, 0
2, 22080, Note_on_c, 0, 86, 0
2, 22080, Note_on_c, 0, 74, 0
2, 22080, Note_on_c, 0, 62, 0
2, 22560, Note_on_c, 0, 100, 100
2, 22560, Note_on_c, 0, 98, 100
2, 22560, Note_on_c, 0, 85, 100
2, 22560, Note_on_c, 0, 73, 100
2, 22560, Note_on_c, 0, 61, 100
2, 22800, Note_on_c, 0, 100, 0
2, 22800, Note_on_c, 0, 98, 0
2, 22800, Note_on_c, 0, 85, 0
2, 22800, Note_on_c, 0, 73, 0
2, 22800, Note_on_c, 0, 61, 0
2, 23010, Note_on_c, 0, 105, 0
2, 23010, Note_on_c, 0, 93, 0
2, 23010, Note_on_c, 0, 69, 0
2, 23010, Note_on_c, 0, 81, 0
2, 23010, Note_on_c, 0, 103, 0
2, 23010, Note_on_c, 0, 91, 0
2, 23010, Note_on_c, 0, 79, 0
2, 23010, Note_on_c, 0, 67, 0
2, 23040, Note_on_c, 0, 96, 100
2, 23040, Note_on_c, 0, 98, 100
2, 23040, Note_on_c, 0, 84, 100
2, 23040, Note_on_c, 0, 86, 100
2, 23040, Note_on_c, 0, 72, 100
2, 23040, Note_on_c, 0, 74, 100
2, 23040, Note_on_c, 0, 60, 100
2, 26640, Note_on_c, 0, 72, 0
2, 26640, Note_on_c, 0, 74, 0
2, 26640, Note_on_c, 0, 60, 0
2, 26880, Note_on_c, 0, 96, 0
2, 26880, Note_on_c, 0, 98, 0
2, 26880, Note_on_c, 0, 84, 0
2, 26880, Note_on_c, 0, 86, 0
2, 26880, Note_on_c, 0, 97, 100
2, 26880, Note_on_c, 0, 99, 100
2, 26880, Note_on_c, 0, 85, 100
2, 26880, Note_on_c, 0, 86, 100
2, 26880, Note_on_c, 0, 73, 100
2, 26880, Note_on_c, 0, 74, 100
2, 26880, Note_on_c, 0, 61, 100
2, 30480, Note_on_c, 0, 73, 0
2, 30480, Note_on_c, 0, 74, 0
2, 30480, Note_on_c, 0, 61, 0
2, 30720, Note_on_c, 0, 97, 0
2, 30720, Note_on_c, 0, 99, 0
2, 30720, Note_on_c, 0, 85, 0
2, 30720, Note_on_c, 0, 86, 0
2, 30720, Note_on_c, 0, 98, 100
2, 30720, Note_on_c, 0, 100, 100
2, 30720, Note_on_c, 0, 85, 100
2, 30720, Note_on_c, 0, 87, 100
2, 30720, Note_on_c, 0, 73, 100
2, 30720, Note_on_c, 0, 75, 100
2, 30720, Note_on_c, 0, 61, 100
2, 34320, Note_on_c, 0, 73, 0
2, 34320, Note_on_c, 0, 75, 0
2, 34320, Note_on_c, 0, 61, 0
2, 34560, Note_on_c, 0, 98, 0
2, 34560, Note_on_c, 0, 100, 0
2, 34560, Note_on_c, 0, 85, 0
2, 34560, Note_on_c, 0, 87, 0
2, 34560, Note_on_c, 0, 99, 100
2, 34560, Note_on_c, 0, 100, 100
2, 34560, Note_on_c, 0, 86, 100
2, 34560, Note_on_c, 0, 87, 100
2, 34560, Note_on_c, 0, 74, 100
2, 34560, Note_on_c, 0, 75, 100
2, 34560, Note_on_c, 0, 62, 100
2, 37680, Note_on_c, 0, 74, 0
2, 37680, Note_on_c, 0, 75, 0
2, 37680, Note_on_c, 0, 62, 0
2, 37890, Note_on_c, 0, 106, 0
2, 37890, Note_on_c, 0, 94, 0
2, 37890, Note_on_c, 0, 70, 0
2, 37890, Note_on_c, 0, 82, 0
2, 37890, Note_on_c, 0, 105, 100
2, 37890, Note_on_c, 0, 93, 100
2, 37890, Note_on_c, 0, 69, 100
2, 37890, Note_on_c, 0, 81, 100
2, 37920, Note_on_c, 0, 99, 0
2, 37920, Note_on_c, 0, 100, 0
2, 37920, Note_on_c, 0, 86, 0
2, 37920, Note_on_c, 0, 87, 0
2, 37920, Note_on_c, 0, 97, 100
2, 38160, Note_on_c, 0, 97, 0
2, 38160, Note_on_c, 0, 98, 100
2, 38160, Note_on_c, 0, 96, 100
2, 38160, Note_on_c, 0, 86, 100
2, 38160, Note_on_c, 0, 84, 100
2, 38160, Note_on_c, 0, 72, 100
2, 38160, Note_on_c, 0, 60, 100
2, 39120, Note_on_c, 0, 72, 0
2, 39120, Note_on_c, 0, 60, 0
2, 39360, Note_on_c, 0, 98, 0
2, 39360, Note_on_c, 0, 96, 0
2, 39360, Note_on_c, 0, 86, 0
2, 39360, Note_on_c, 0, 84, 0
2, 39360, Note_on_c, 0, 96, 100
2, 39360, Note_on_c, 0, 98, 100
2, 39360, Note_on_c, 0, 84, 100
2, 39360, Note_on_c, 0, 86, 100
2, 39360, Note_on_c, 0, 72, 100
2, 39360, Note_on_c, 0, 60, 100
2, 39600, Note_on_c, 0, 96, 0
2, 39600, Note_on_c, 0, 98, 0
2, 39600, Note_on_c, 0, 84, 0
2, 39600, Note_on_c, 0, 86, 0
2, 39600, Note_on_c, 0, 72, 0
2, 39600, Note_on_c, 0, 60, 0
2, 39840, Note_on_c, 0, 96, 100
2, 39840, Note_on_c, 0, 98, 100
2, 39840, Note_on_c, 0, 84, 100
2, 39840, Note_on_c, 0, 86, 100
2, 39840, Note_on_c, 0, 72, 100
2, 40080, Note_on_c, 0, 96, 0
2, 40080, Note_on_c, 0, 98, 0
2, 40080, Note_on_c, 0, 84, 0
2, 40080, Note_on_c, 0, 86, 0
2, 40080, Note_on_c, 0, 72, 0
2, 40320, Note_on_c, 0, 96, 100
2, 40320, Note_on_c, 0, 98, 100
2, 40320, Note_on_c, 0, 84, 100
2, 40320, Note_on_c, 0, 86, 100
2, 40320, Note_on_c, 0, 72, 100
2, 40320, Note_on_c, 0, 60, 100
2, 40560, Note_on_c, 0, 96, 0
2, 40560, Note_on_c, 0, 98, 0
2, 40560, Note_on_c, 0, 84, 0
2, 40560, Note_on_c, 0, 86, 0
2, 40560, Note_on_c, 0, 72, 0
2, 40560, Note_on_c, 0, 60, 0
2, 40800, Note_on_c, 0, 96, 100
2, 40800, Note_on_c, 0, 98, 100
2, 40800, Note_on_c, 0, 84, 100
2, 40800, Note_on_c, 0, 86, 100
2, 40800, Note_on_c, 0, 72, 100
2, 41040, Note_on_c, 0, 96, 0
2, 41040, Note_on_c, 0, 98, 0
2, 41040, Note_on_c, 0, 84, 0
2, 41040, Note_on_c, 0, 86, 0
2, 41040, Note_on_c, 0, 72, 0
2, 41280, Note_on_c, 0, 96, 100
2, 41280, Note_on_c, 0, 98, 100
2, 41280, Note_on_c, 0, 84, 100
2, 41280, Note_on_c, 0, 86, 100
2, 41280, Note_on_c, 0, 72, 100
2, 41280, Note_on_c, 0, 60, 100
2, 41520, Note_on_c, 0, 96, 0
2, 41520, Note_on_c, 0, 98, 0
2, 41520, Note_on_c, 0, 84, 0
2, 41520, Note_on_c, 0, 86, 0
2, 41520, Note_on_c, 0, 72, 0
2, 41520, Note_on_c, 0, 60, 0
2, 41760, Note_on_c, 0, 96, 100
2, 41760, Note_on_c, 0, 98, 100
2, 41760, Note_on_c, 0, 84, 100
2, 41760, Note_on_c, 0, 86, 100
2, 41760, Note_on_c, 0, 72, 100
2, 42000, Note_on_c, 0, 96, 0
2, 42000, Note_on_c, 0, 98, 0
2, 42000, Note_on_c, 0, 84, 0
2, 42000, Note_on_c, 0, 86, 0
2, 42000, Note_on_c, 0, 72, 0
2, 42240, Note_on_c, 0, 96, 100
2, 42240, Note_on_c, 0, 98, 100
2, 42240, Note_on_c, 0, 84, 100
2, 42240, Note_on_c, 0, 86, 100
2, 42240, Note_on_c, 0, 72, 100
2, 42240, Note_on_c, 0, 60, 100
2, 42480, Note_on_c, 0, 96, 0
2, 42480, Note_on_c, 0, 98, 0
2, 42480, Note_on_c, 0, 84, 0
2, 42480, Note_on_c, 0, 86, 0
2, 42480, Note_on_c, 0, 72, 0
2, 42480, Note_on_c, 0, 60, 0
2, 42720, Note_on_c, 0, 96, 100
2, 42720, Note_on_c, 0, 98, 100
2, 42720, Note_on_c, 0, 84, 100
2, 42720, Note_on_c, 0, 86, 100
2, 42720, Note_on_c, 0, 72, 100
2, 42960, Note_on_c, 0, 96, 0
2, 42960, Note_on_c, 0, 98, 0
2, 42960, Note_on_c, 0, 84, 0
2, 42960, Note_on_c, 0, 86, 0
2, 42960, Note_on_c, 0, 72, 0
2, 43200, Note_on_c, 0, 96, 100
2, 43200, Note_on_c, 0, 98, 100
2, 43200, Note_on_c, 0, 84, 100
2, 43200, Note_on_c, 0, 86, 100
2, 43200, Note_on_c, 0, 72, 100
2, 43200, Note_on_c, 0, 60, 100
2, 43440, Note_on_c, 0, 96, 0
2, 43440, Note_on_c, 0, 98, 0
2, 43440, Note_on_c, 0, 84, 0
2, 43440, Note_on_c, 0, 86, 0
2, 43440, Note_on_c, 0, 72, 0
2, 43440, Note_on_c, 0, 60, 0
2, 43680, Note_on_c, 0, 96, 100
2, 43680, Note_on_c, 0, 98, 100
2, 43680, Note_on_c, 0, 84, 100
2, 43680, Note_on_c, 0, 86, 100
2, 43680, Note_on_c, 0, 72, 100
2, 43920, Note_on_c, 0, 96, 0
2, 43920, Note_on_c, 0, 98, 0
2, 43920, Note_on_c, 0, 84, 0
2, 43920, Note_on_c, 0, 86, 0
2, 43920, Note_on_c, 0, 72, 0
2, 44160, Note_on_c, 0, 96, 100
2, 44160, Note_on_c, 0, 98, 100
2, 44160, Note_on_c, 0, 84, 100
2, 44160, Note_on_c, 0, 86, 100
2, 44160, Note_on_c, 0, 72, 100
2, 44160, Note_on_c, 0, 60, 100
2, 44400, Note_on_c, 0, 96, 0
2, 44400, Note_on_c, 0, 98, 0
2, 44400, Note_on_c, 0, 84, 0
2, 44400, Note_on_c, 0, 86, 0
2, 44400, Note_on_c, 0, 72, 0
2, 44400, Note_on_c, 0, 60, 0
2, 44640, Note_on_c, 0, 96, 100
2, 44640, Note_on_c, 0, 98, 100
2, 44640, Note_on_c, 0, 84, 100
2, 44640, Note_on_c, 0, 86, 100
2, 44640, Note_on_c, 0, 72, 100
2, 44880, Note_on_c, 0, 96, 0
2, 44880, Note_on_c, 0, 98, 0
2, 44880, Note_on_c, 0, 84, 0
2, 44880, Note_on_c, 0, 86, 0
2, 44880, Note_on_c, 0, 72, 0
2, 45120, Note_on_c, 0, 96, 100
2, 45120, Note_on_c, 0, 98, 100
2, 45120, Note_on_c, 0, 84, 100
2, 45120, Note_on_c, 0, 86, 100
2, 45120, Note_on_c, 0, 72, 100
2, 45360, Note_on_c, 0, 96, 0
2, 45360, Note_on_c, 0, 98, 0
2, 45360, Note_on_c, 0, 84, 0
2, 45360, Note_on_c, 0, 86, 0
2, 45360, Note_on_c, 0, 72, 0
2, 45600, Note_on_c, 0, 97, 100
2, 45600, Note_on_c, 0, 99, 100
2, 45600, Note_on_c, 0, 85, 100
2, 45600, Note_on_c, 0, 87, 100
2, 45600, Note_on_c, 0, 73, 100
2, 45600, Note_on_c, 0, 61, 100
2, 46050, Text_t, "[lighting (sweep)]"
2, 46050, Text_t, "drum_double"
2, 46050, Text_t, "bass_half_tempo"
2, 46050, Text_t, "drum_half_tempo"
2, 46050, Text_t, "gtr_half_tempo"
2, 46050, Text_t, "[half_tempo]"
2, 46050, Text_t, "[crowd_half_tempo]"
2, 46320, Note_on_c, 0, 73, 0
2, 46560, Note_on_c, 0, 97, 0
2, 46560, Note_on_c, 0, 99, 0
2, 46560, Note_on_c, 0, 85, 0
2, 46560, Note_on_c, 0, 87, 0
2, 46560, Note_on_c, 0, 61, 0
2, 46560, Note_on_c, 0, 97, 100
2, 46560, Note_on_c, 0, 99, 100
2, 46560, Note_on_c, 0, 85, 100
2, 46560, Note_on_c, 0, 87, 100
2, 46560, Note_on_c, 0, 73, 100
2, 46800, Note_on_c, 0, 97, 0
2, 46800, Note_on_c, 0, 99, 0
2, 46800, Note_on_c, 0, 85, 0
2, 46800, Note_on_c, 0, 87, 0
2, 46800, Note_on_c, 0, 73, 0
2, 47040, Note_on_c, 0, 97, 100
2, 47040, Note_on_c, 0, 99, 100
2, 47040, Note_on_c, 0, 85, 100
2, 47040, Note_on_c, 0, 87, 100
2, 47040, Note_on_c, 0, 73, 100
2, 47040, Note_on_c, 0, 61, 100
2, 47280, Note_on_c, 0, 97, 0
2, 47280, Note_on_c, 0, 99, 0
2, 47280, Note_on_c, 0, 85, 0
2, 47280, Note_on_c, 0, 87, 0
2, 47280, Note_on_c, 0, 73, 0
2, 47280, Note_on_c, 0, 61, 0
2, 47520, Note_on_c, 0, 97, 100
2, 47520, Note_on_c, 0, 99, 100
2, 47520, Note_on_c, 0, 85, 100
2, 47520, Note_on_c, 0, 87, 100
2, 47520, Note_on_c, 0, 73, 100
2, 47760, Note_on_c, 0, 97, 0
2, 47760, Note_on_c, 0, 99, 0
2, 47760, Note_on_c, 0, 85, 0
2, 47760, Note_on_c, 0, 87, 0
2, 47760, Note_on_c, 0, 73, 0
2, 48000, Note_on_c, 0, 97, 100
2, 48000, Note_on_c, 0, 99, 100
2, 48000, Note_on_c, 0, 85, 100
2, 48000, Note_on_c, 0, 87, 100
2, 48000, Note_on_c, 0, 73, 100
2, 48000, Note_on_c, 0, 61, 100
2, 48240, Note_on_c, 0, 97, 0
2, 48240, Note_on_c, 0, 99, 0
2, 48240, Note_on_c, 0, 85, 0
2, 48240, Note_on_c, 0, 87, 0
2, 48240, Note_on_c, 0, 73, 0
2, 48240, Note_on_c, 0, 61, 0
2, 48480, Note_on_c, 0, 97, 100
2, 48480, Note_on_c, 0, 99, 100
2, 48480, Note_on_c, 0, 85, 100
2, 48480, Note_on_c, 0, 87, 100
2, 48480, Note_on_c, 0, 73, 100
2, 48720, Note_on_c, 0, 97, 0
2, 48720, Note_on_c, 0, 99, 0
2, 48720, Note_on_c, 0, 85, 0
2, 48720, Note_on_c, 0, 87, 0
2, 48720, Note_on_c, 0, 73, 0
2, 48960, Note_on_c, 0, 97, 100
2, 48960, Note_on_c, 0, 99, 100
2, 48960, Note_on_c, 0, 85, 100
2, 48960, Note_on_c, 0, 87, 100
2, 48960, Note_on_c, 0, 73, 100
2, 48960, Note_on_c, 0, 61, 100
2, 49200, Note_on_c, 0, 97, 0
2, 49200, Note_on_c, 0, 99, 0
2, 49200, Note_on_c, 0, 85, 0
2, 49200, Note_on_c, 0, 87, 0
2, 49200, Note_on_c, 0, 73, 0
2, 49200, Note_on_c, 0, 61, 0
2, 49440, Note_on_c, 0, 97, 100
2, 49440, Note_on_c, 0, 99, 100
2, 49440, Note_on_c, 0, 85, 100
2, 49440, Note_on_c, 0, 87, 100
2, 49440, Note_on_c, 0, 73, 100
2, 49680, Note_on_c, 0, 97, 0
2, 49680, Note_on_c, 0, 99, 0
2, 49680, Note_on_c, 0, 85, 0
2, 49680, Note_on_c, 0, 87, 0
2, 49680, Note_on_c, 0, 73, 0
2, 49890, Note_on_c, 0, 106, 100
2, 49890, Note_on_c, 0, 94, 100
2, 49890, Note_on_c, 0, 70, 100
2, 49890, Note_on_c, 0, 82, 100
2, 49920, Note_on_c, 0, 98, 100
2, 49920, Note_on_c, 0, 86, 100
2, 49920, Note_on_c, 0, 73, 100
2, 49920, Note_on_c, 0, 62, 100
2, 50160, Note_on_c, 0, 98, 0
2, 50160, Note_on_c, 0, 86, 0
2, 50160, Note_on_c, 0, 73, 0
2, 50160, Note_on_c, 0, 62, 0
2, 50400, Note_on_c, 0, 99, 100
2, 50400, Note_on_c, 0, 87, 100
2, 50400, Note_on_c, 0, 74, 100
2, 50640, Note_on_c, 0, 99, 0
2, 50640, Note_on_c, 0, 87, 0
2, 50640, Note_on_c, 0, 74, 0
2, 50880, Note_on_c, 0, 96, 100
2, 50880, Note_on_c, 0, 98, 100
2, 50880, Note_on_c, 0, 84, 100
2, 50880, Note_on_c, 0, 72, 100
2, 51120, Note_on_c, 0, 96, 0
2, 51120, Note_on_c, 0, 98, 0
2, 51120, Note_on_c, 0, 84, 0
2, 51120, Note_on_c, 0, 72, 0
2, 51360, Note_on_c, 0, 96, 100
2, 51360, Note_on_c, 0, 98, 100
2, 51360, Note_on_c, 0, 84, 100
2, 51360, Note_on_c, 0, 72, 100
2, 51600, Note_on_c, 0, 96, 0
2, 51600, Note_on_c, 0, 98, 0
2, 51600, Note_on_c, 0, 84, 0
2, 51600, Note_on_c, 0, 72, 0
2, 51810, Note_on_c, 0, 105, 0
2, 51810, Note_on_c, 0, 93, 0
2, 51810, Note_on_c, 0, 69, 0
2, 51810, Note_on_c, 0, 81, 0
2, 51840, Note_on_c, 0, 99, 100
2, 51840, Note_on_c, 0, 87, 100
2, 51840, Note_on_c, 0, 74, 100
2, 51840, Note_on_c, 0, 62, 100
2, 52080, Note_on_c, 0, 99, 0
2, 52080, Note_on_c, 0, 87, 0
2, 52080, Note_on_c, 0, 74, 0
2, 52080, Note_on_c, 0, 62, 0
2, 52320, Note_on_c, 0, 98, 100
2, 52320, Note_on_c, 0, 86, 100
2, 52320, Note_on_c, 0, 73, 100
2, 52560, Note_on_c, 0, 98, 0
2, 52560, Note_on_c, 0, 86, 0
2, 52560, Note_on_c, 0, 73, 0
2, 52800, Note_on_c, 0, 97, 100
2, 53040, Note_on_c, 0, 97, 0
2, 53280, Note_on_c, 0, 96, 100
2, 53280, Note_on_c, 0, 98, 100
2, 53280, Note_on_c, 0, 84, 100
2, 53280, Note_on_c, 0, 86, 100
2, 53280, Note_on_c, 0, 72, 100
2, 53280, Note_on_c, 0, 60, 100
2, 54480, Note_on_c, 0, 72, 0
2, 54480, Note_on_c, 0, 60, 0
2, 54720, Note_on_c, 0, 96, 0
2, 54720, Note_on_c, 0, 98, 0
2, 54720, Note_on_c, 0, 84, 0
2, 54720, Note_on_c, 0, 86, 0
2, 54720, Note_on_c, 0, 96, 100
2, 54720, Note_on_c, 0, 98, 100
2, 54720, Note_on_c, 0, 84, 100
2, 54720, Note_on_c, 0, 86, 100
2, 54720, Note_on_c, 0, 72, 100
2, 54720, Note_on_c, 0, 60, 100
2, 54960, Note_on_c, 0, 96, 0
2, 54960, Note_on_c, 0, 98, 0
2, 54960, Note_on_c, 0, 84, 0
2, 54960, Note_on_c, 0, 86, 0
2, 54960, Note_on_c, 0, 72, 0
2, 54960, Note_on_c, 0, 60, 0
2, 55200, Note_on_c, 0, 96, 100
2, 55200, Note_on_c, 0, 98, 100
2, 55200, Note_on_c, 0, 84, 100
2, 55200, Note_on_c, 0, 86, 100
2, 55200, Note_on_c, 0, 72, 100
2, 55440, Note_on_c, 0, 96, 0
2, 55440, Note_on_c, 0, 98, 0
2, 55440, Note_on_c, 0, 84, 0
2, 55440, Note_on_c, 0, 86, 0
2, 55440, Note_on_c, 0, 72, 0
2, 55680, Note_on_c, 0, 96, 100
2, 55680, Note_on_c, 0, 98, 100
2, 55680, Note_on_c, 0, 84, 100
2, 55680, Note_on_c, 0, 86, 100
2, 55680, Note_on_c, 0, 72, 100
2, 55680, Note_on_c, 0, 60, 100
2, 55920, Note_on_c, 0, 96, 0
2, 55920, Note_on_c, 0, 98, 0
2, 55920, Note_on_c, 0, 84, 0
2, 55920, Note_on_c, 0, 86, 0
2, 55920, Note_on_c, 0, 72, 0
2, 55920, Note_on_c, 0, 60, 0
2, 56160, Note_on_c, 0, 96, 100
2, 56160, Note_on_c, 0, 98, 100
2, 56160, Note_on_c, 0, 84, 100
2, 56160, Note_on_c, 0, 86, 100
2, 56160, Note_on_c, 0, 72, 100
2, 56400, Note_on_c, 0, 96, 0
2, 56400, Note_on_c, 0, 98, 0
2, 56400, Note_on_c, 0, 84, 0
2, 56400, Note_on_c, 0, 86, 0
2, 56400, Note_on_c, 0, 72, 0
2, 56640, Note_on_c, 0, 96, 100
2, 56640, Note_on_c, 0, 98, 100
2, 56640, Note_on_c, 0, 84, 100
2, 56640, Note_on_c, 0, 86, 100
2, 56640, Note_on_c, 0, 72, 100
2, 56640, Note_on_c, 0, 60, 100
2, 56880, Note_on_c, 0, 96, 0
2, 56880, Note_on_c, 0, 98, 0
2, 56880, Note_on_c, 0, 84, 0
2, 56880, Note_on_c, 0, 86, 0
2, 56880, Note_on_c, 0, 72, 0
2, 56880, Note_on_c, 0, 60, 0
2, 57120, Note_on_c, 0, 96, 100
2, 57120, Note_on_c, 0, 98, 100
2, 57120, Note_on_c, 0, 84, 100
2, 57120, Note_on_c, 0, 86, 100
2, 57120, Note_on_c, 0, 72, 100
2, 57360, Note_on_c, 0, 96, 0
2, 57360, Note_on_c, 0, 98, 0
2, 57360, Note_on_c, 0, 84, 0
2, 57360, Note_on_c, 0, 86, 0
2, 57360, Note_on_c, 0, 72, 0
2, 57600, Note_on_c, 0, 96, 100
2, 57600, Note_on_c, 0, 98, 100
2, 57600, Note_on_c, 0, 84, 100
2, 57600, Note_on_c, 0, 86, 100
2, 57600, Note_on_c, 0, 72, 100
2, 57600, Note_on_c, 0, 60, 100
2, 57840, Note_on_c, 0, 96, 0
2, 57840, Note_on_c, 0, 98, 0
2, 57840, Note_on_c, 0, 84, 0
2, 57840, Note_on_c, 0, 86, 0
2, 57840, Note_on_c, 0, 72, 0
2, 57840, Note_on_c, 0, 60, 0
2, 58080, Note_on_c, 0, 96, 100
2, 58080, Note_on_c, 0, 98, 100
2, 58080, Note_on_c, 0, 84, 100
2, 58080, Note_on_c, 0, 86, 100
2, 58080, Note_on_c, 0, 72, 100
2, 58320, Note_on_c, 0, 96, 0
2, 58320, Note_on_c, 0, 98, 0
2, 58320, Note_on_c, 0, 84, 0
2, 58320, Note_on_c, 0, 86, 0
2, 58320, Note_on_c, 0, 72, 0
2, 58560, Note_on_c, 0, 96, 100
2, 58560, Note_on_c, 0, 98, 100
2, 58560, Note_on_c, 0, 84, 100
2, 58560, Note_on_c, 0, 86, 100
2, 58560, Note_on_c, 0, 72, 100
2, 58560, Note_on_c, 0, 60, 100
2, 58800, Note_on_c, 0, 96, 0
2, 58800, Note_on_c, 0, 98, 0
2, 58800, Note_on_c, 0, 84, 0
2, 58800, Note_on_c, 0, 86, 0
2, 58800, Note_on_c, 0, 72, 0
2, 58800, Note_on_c, 0, 60, 0
2, 59040, Note_on_c, 0, 96, 100
2, 59040, Note_on_c, 0, 98, 100
2, 59040, Note_on_c, 0, 84, 100
2, 59040, Note_on_c, 0, 86, 100
2, 59040, Note_on_c, 0, 72, 100
2, 59280, Note_on_c, 0, 96, 0
2, 59280, Note_on_c, 0, 98, 0
2, 59280, Note_on_c, 0, 84, 0
2, 59280, Note_on_c, 0, 86, 0
2, 59280, Note_on_c, 0, 72, 0
2, 59520, Note_on_c, 0, 96, 100
2, 59520, Note_on_c, 0, 98, 100
2, 59520, Note_on_c, 0, 84, 100
2, 59520, Note_on_c, 0, 86, 100
2, 59520, Note_on_c, 0, 72, 100
2, 59520, Note_on_c, 0, 60, 100
2, 59760, Note_on_c, 0, 96, 0
2, 59760, Note_on_c, 0, 98, 0
2, 59760, Note_on_c, 0, 84, 0
2, 59760, Note_on_c, 0, 86, 0
2, 59760, Note_on_c, 0, 72, 0
2, 59760, Note_on_c, 0, 60, 0
2, 60000, Note_on_c, 0, 96, 100
2, 60000, Note_on_c, 0, 98, 100
2, 60000, Note_on_c, 0, 84, 100
2, 60000, Note_on_c, 0, 86, 100
2, 60000, Note_on_c, 0, 72, 100
2, 60240, Note_on_c, 0, 96, 0
2, 60240, Note_on_c, 0, 98, 0
2, 60240, Note_on_c, 0, 84, 0
2, 60240, Note_on_c, 0, 86, 0
2, 60240, Note_on_c, 0, 72, 0
2, 60480, Note_on_c, 0, 96, 100
2, 60480, Note_on_c, 0, 98, 100
2, 60480, Note_on_c, 0, 84, 100
2, 60480, Note_on_c, 0, 86, 100
2, 60480, Note_on_c, 0, 72, 100
2, 60720, Note_on_c, 0, 96, 0
2, 60720, Note_on_c, 0, 98, 0
2, 60720, Note_on_c, 0, 84, 0
2, 60720, Note_on_c, 0, 86, 0
2, 60720, Note_on_c, 0, 72, 0
2, 60930, Note_on_c, 0, 103, 100
2, 60930, Note_on_c, 0, 91, 100
2, 60930, Note_on_c, 0, 79, 100
2, 60930, Note_on_c, 0, 67, 100
2, 60930, Note_on_c, 0, 105, 100
2, 60930, Note_on_c, 0, 93, 100
2, 60930, Note_on_c, 0, 69, 100
2, 60930, Note_on_c, 0, 81, 100
2, 60960, Note_on_c, 0, 97, 100
2, 60960, Note_on_c, 0, 85, 100
2, 60960, Note_on_c, 0, 73, 100
2, 60960, Note_on_c, 0, 60, 100
2, 61920, Note_on_c, 0, 97, 0
2, 61920, Note_on_c, 0, 85, 0
2, 61920, Note_on_c, 0, 73, 0
2, 61920, Note_on_c, 0, 60, 0
2, 61920, Note_on_c, 0, 98, 100
2, 61920, Note_on_c, 0, 86, 100
2, 62160, Note_on_c, 0, 98, 0
2, 62160, Note_on_c, 0, 86, 0
2, 62400, Note_on_c, 0, 99, 100
2, 62400, Note_on_c, 0, 87, 100
2, 62400, Note_on_c, 0, 74, 100
2, 62640, Note_on_c, 0, 99, 0
2, 62640, Note_on_c, 0, 87, 0
2, 62640, Note_on_c, 0, 74, 0
2, 62880, Note_on_c, 0, 100, 100
2, 62880, Note_on_c, 0, 88, 100
2, 62880, Note_on_c, 0, 75, 100
2, 62880, Note_on_c, 0, 62, 100
2, 63840, Note_on_c, 0, 100, 0
2, 63840, Note_on_c, 0, 88, 0
2, 63840, Note_on_c, 0, 75, 0
2, 63840, Note_on_c, 0, 62, 0
2, 63840, Note_on_c, 0, 99, 100
2, 63840, Note_on_c, 0, 87, 100
2, 64080, Note_on_c, 0, 99, 0
2, 64080, Note_on_c, 0, 87, 0
2, 64320, Note_on_c, 0, 98, 100
2, 64320, Note_on_c, 0, 86, 100
2, 64320, Note_on_c, 0, 74, 100
2, 64560, Note_on_c, 0, 98, 0
2, 64560, Note_on_c, 0, 86, 0
2, 64560, Note_on_c, 0, 74, 0
2, 64800, Note_on_c, 0, 97, 100
2, 64800, Note_on_c, 0, 85, 100
2, 64800, Note_on_c, 0, 73, 100
2, 64800, Note_on_c, 0, 60, 100
2, 65760, Note_on_c, 0, 97, 0
2, 65760, Note_on_c, 0, 85, 0
2, 65760, Note_on_c, 0, 73, 0
2, 65760, Note_on_c, 0, 60, 0
2, 65760, Note_on_c, 0, 98, 100
2, 65760, Note_on_c, 0, 86, 100
2, 66000, Note_on_c, 0, 98, 0
2, 66000, Note_on_c, 0, 86, 0
2, 66240, Note_on_c, 0, 100, 100
2, 66240, Note_on_c, 0, 88, 100
2, 66240, Note_on_c, 0, 75, 100
2, 66480, Note_on_c, 0, 100, 0
2, 66480, Note_on_c, 0, 88, 0
2, 66480, Note_on_c, 0, 75, 0
2, 66720, Note_on_c, 0, 99, 100
2, 66720, Note_on_c, 0, 87, 100
2, 66720, Note_on_c, 0, 74, 100
2, 66720, Note_on_c, 0, 61, 100
2, 67680, Note_on_c, 0, 99, 0
2, 67680, Note_on_c, 0, 87, 0
2, 67680, Note_on_c, 0, 74, 0
2, 67680, Note_on_c, 0, 61, 0
2, 67680, Note_on_c, 0, 98, 100
2, 67680, Note_on_c, 0, 86, 100
2, 67920, Note_on_c, 0, 98, 0
2, 67920, Note_on_c, 0, 86, 0
2, 68160, Note_on_c, 0, 97, 100
2, 68160, Note_on_c, 0, 85, 100
2, 68160, Note_on_c, 0, 73, 100
2, 68400, Note_on_c, 0, 97, 0
2, 68400, Note_on_c, 0, 85, 0
2, 68400, Note_on_c, 0, 73, 0
2, 68640, Note_on_c, 0, 98, 100
2, 68640, Note_on_c, 0, 86, 100
2, 68640, Note_on_c, 0, 74, 100
2, 68640, Note_on_c, 0, 61, 100
2, 69600, Note_on_c, 0, 98, 0
2, 69600, Note_on_c, 0, 86, 0
2, 69600, Note_on_c, 0, 74, 0
2, 69600, Note_on_c, 0, 61, 0
2, 70050, Note_on_c, 0, 106, 0
2, 70050, Note_on_c, 0, 94, 0
2, 70050, Note_on_c, 0, 70, 0
2, 70050, Note_on_c, 0, 82, 0
2, 70050, Note_on_c, 0, 103, 0
2, 70050, Note_on_c, 0, 91, 0
2, 70050, Note_on_c, 0, 79, 0
2, 70050, Note_on_c, 0, 67, 0
2, 70080, Note_on_c, 0, 96, 100
2, 70080, Note_on_c, 0, 98, 100
2, 70080, Note_on_c, 0, 84, 100
2, 70080, Note_on_c, 0, 86, 100
2, 70080, Note_on_c, 0, 72, 100
2, 70080, Note_on_c, 0, 60, 100
2, 70080, Note_on_c, 0, 108, 100
2, 70320, Note_on_c, 0, 96, 0
2, 70320, Note_on_c, 0, 98, 0
2, 70320, Note_on_c, 0, 84, 0
2, 70320, Note_on_c, 0, 86, 0
2, 70320, Note_on_c, 0, 72, 0
2, 70320, Note_on_c, 0, 60, 0
2, 70560, Note_on_c, 0, 96, 100
2, 70560, Note_on_c, 0, 98, 100
2, 70560, Note_on_c, 0, 84, 100
2, 70560, Note_on_c, 0, 86, 100
2, 70560, Note_on_c, 0, 72, 100
2, 70800, Note_on_c, 0, 108, 0
2, 70800, Note_on_c, 0, 96, 0
2, 70800, Note_on_c, 0, 98, 0
2, 70800, Note_on_c, 0, 84, 0
2, 70800, Note_on_c, 0, 86, 0
2, 70800, Note_on_c, 0, 72, 0
2, 71040, Note_on_c, 0, 96, 100
2, 71040, Note_on_c, 0, 98, 100
2, 71040, Note_on_c, 0, 84, 100
2, 71040, Note_on_c, 0, 86, 100
2, 71040, Note_on_c, 0, 72, 100
2, 71040, Note_on_c, 0, 60, 100
2, 71040, Note_on_c, 0, 108, 100
2, 71280, Note_on_c, 0, 96, 0
2, 71280, Note_on_c, 0, 98, 0
2, 71280, Note_on_c, 0, 84, 0
2, 71280, Note_on_c, 0, 86, 0
2, 71280, Note_on_c, 0, 72, 0
2, 71280, Note_on_c, 0, 60, 0
2, 71520, Note_on_c, 0, 108, 0
2, 71520, Note_on_c, 0, 96, 100
2, 71520, Note_on_c, 0, 98, 100
2, 71520, Note_on_c, 0, 84, 100
2, 71520, Note_on_c, 0, 86, 100
2, 71520, Note_on_c, 0, 72, 100
2, 71760, Note_on_c, 0, 96, 0
2, 71760, Note_on_c, 0, 98, 0
2, 71760, Note_on_c, 0, 84, 0
2, 71760, Note_on_c, 0, 86, 0
2, 71760, Note_on_c, 0, 72, 0
2, 72000, Note_on_c, 0, 96, 100
2, 72000, Note_on_c, 0, 98, 100
2, 72000, Note_on_c, 0, 84, 100
2, 72000, Note_on_c, 0, 86, 100
2, 72000, Note_on_c, 0, 72, 100
2, 72000, Note_on_c, 0, 60, 100
2, 72000, Note_on_c, 0, 108, 100
2, 72240, Note_on_c, 0, 96, 0
2, 72240, Note_on_c, 0, 98, 0
2, 72240, Note_on_c, 0, 84, 0
2, 72240, Note_on_c, 0, 86, 0
2, 72240, Note_on_c, 0, 72, 0
2, 72240, Note_on_c, 0, 60, 0
2, 72480, Note_on_c, 0, 96, 100
2, 72480, Note_on_c, 0, 98, 100
2, 72480, Note_on_c, 0, 84, 100
2, 72480, Note_on_c, 0, 86, 100
2, 72480, Note_on_c, 0, 72, 100
2, 72720, Note_on_c, 0, 108, 0
2, 72720, Note_on_c, 0, 96, 0
2, 72720, Note_on_c, 0, 98, 0
2, 72720, Note_on_c, 0, 84, 0
2, 72720, Note_on_c, 0, 86, 0
2, 72720, Note_on_c, 0, 72, 0
2, 72960, Note_on_c, 0, 96, 100
2, 72960, Note_on_c, 0, 98, 100
2, 72960, Note_on_c, 0, 84, 100
2, 72960, Note_on_c, 0, 86, 100
2, 72960, Note_on_c, 0, 72, 100
2, 72960, Note_on_c, 0, 60, 100
2, 72960, Note_on_c, 0, 108, 100
2, 73200, Note_on_c, 0, 96, 0
2, 73200, Note_on_c, 0, 98, 0
2, 73200, Note_on_c, 0, 84, 0
2, 73200, Note_on_c, 0, 86, 0
2, 73200, Note_on_c, 0, 72, 0
2, 73200, Note_on_c, 0, 60, 0
2, 73440, Note_on_c, 0, 96, 100
2, 73440, Note_on_c, 0, 98, 100
2, 73440, Note_on_c, 0, 84, 100
2, 73440, Note_on_c, 0, 86, 100
2, 73440, Note_on_c, 0, 72, 100
2, 73680, Note_on_c, 0, 96, 0
2, 73680, Note_on_c, 0, 98, 0
2, 73680, Note_on_c, 0, 84, 0
2, 73680, Note_on_c, 0, 86, 0
2, 73680, Note_on_c, 0, 72, 0
2, 73920, Note_on_c, 0, 96, 100
2, 73920, Note_on_c, 0, 98, 100
2, 73920, Note_on_c, 0, 84, 100
2, 73920, Note_on_c, 0, 86, 100
2, 73920, Note_on_c, 0, 72, 100
2, 73920, Note_on_c, 0, 60, 100
2, 74160, Note_on_c, 0, 108, 0
2, 74160, Note_on_c, 0, 96, 0
2, 74160, Note_on_c, 0, 98, 0
2, 74160, Note_on_c, 0, 84, 0
2, 74160, Note_on_c, 0, 86, 0
2, 74160, Note_on_c, 0, 72, 0
2, 74160, Note_on_c, 0, 60, 0
2, 74400, Note_on_c, 0, 96, 100
2, 74400, Note_on_c, 0, 98, 100
2, 74400, Note_on_c, 0, 84, 100
2, 74400, Note_on_c, 0, 86, 100
2, 74400, Note_on_c, 0, 72, 100
2, 74400, Note_on_c, 0, 108, 100
2, 74640, Note_on_c, 0, 96, 0
2, 74640, Note_on_c, 0, 98, 0
2, 74640, Note_on_c, 0, 84, 0
2, 74640, Note_on_c, 0, 86, 0
2, 74640, Note_on_c, 0, 72, 0
2, 74880, Note_on_c, 0, 96, 100
2, 74880, Note_on_c, 0, 98, 100
2, 74880, Note_on_c, 0, 84, 100
2, 74880, Note_on_c, 0, 86, 100
2, 74880, Note_on_c, 0, 72, 100
2, 74880, Note_on_c, 0, 60, 100
2, 75120, Note_on_c, 0, 96, 0
2, 75120, Note_on_c, 0, 98, 0
2, 75120, Note_on_c, 0, 84, 0
2, 75120, Note_on_c, 0, 86, 0
2, 75120, Note_on_c, 0, 72, 0
2, 75120, Note_on_c, 0, 60, 0
2, 75360, Note_on_c, 0, 96, 100
2, 75360, Note_on_c, 0, 98, 100
2, 75360, Note_on_c, 0, 84, 100
2, 75360, Note_on_c, 0, 86, 100
2, 75360, Note_on_c, 0, 72, 100
2, 75600, Note_on_c, 0, 108, 0
2, 75600, Note_on_c, 0, 96, 0
2, 75600, Note_on_c, 0, 98, 0
2, 75600, Note_on_c, 0, 84, 0
2, 75600, Note_on_c, 0, 86, 0
2, 75600, Note_on_c, 0, 72, 0
2, 75840, Note_on_c, 0, 96, 100
2, 75840, Note_on_c, 0, 98, 100
2, 75840, Note_on_c, 0, 84, 100
2, 75840, Note_on_c, 0, 86, 100
2, 75840, Note_on_c, 0, 72, 100
2, 75840, Note_on_c, 0, 108, 100
2, 76080, Note_on_c, 0, 96, 0
2, 76080, Note_on_c, 0, 98, 0
2, 76080, Note_on_c, 0, 84, 0
2, 76080, Note_on_c, 0, 86, 0
2, 76080, Note_on_c, 0, 72, 0
2, 76320, Note_on_c, 0, 97, 100
2, 76320, Note_on_c, 0, 99, 100
2, 76320, Note_on_c, 0, 85, 100
2, 76320, Note_on_c, 0, 87, 100
2, 76320, Note_on_c, 0, 73, 100
2, 76320, Note_on_c, 0, 61, 100
2, 76770, Text_t, "sing_on"
2, 76770, Text_t, "wail_off"
2, 77280, Note_on_c, 0, 108, 0
2, 77520, Note_on_c, 0, 73, 0
2, 77520, Note_on_c, 0, 61, 0
2, 77760, Note_on_c, 0, 97, 0
2, 77760, Note_on_c, 0, 99, 0
2, 77760, Note_on_c, 0, 85, 0
2, 77760, Note_on_c, 0, 87, 0
2, 77760, Note_on_c, 0, 97, 100
2, 77760, Note_on_c, 0, 99, 100
2, 77760, Note_on_c, 0, 85, 100
2, 77760, Note_on_c, 0, 87, 100
2, 77760, Note_on_c, 0, 73, 100
2, 77760, Note_on_c, 0, 61, 100
2, 78000, Note_on_c, 0, 97, 0
2, 78000, Note_on_c, 0, 99, 0
2, 78000, Note_on_c, 0, 85, 0
2, 78000, Note_on_c, 0, 87, 0
2, 78000, Note_on_c, 0, 73, 0
2, 78000, Note_on_c, 0, 61, 0
2, 78240, Note_on_c, 0, 97, 100
2, 78240, Note_on_c, 0, 99, 100
2, 78240, Note_on_c, 0, 85, 100
2, 78240, Note_on_c, 0, 87, 100
2, 78240, Note_on_c, 0, 73, 100
2, 78240, Note_on_c, 0, 108, 100
2, 78480, Note_on_c, 0, 97, 0
2, 78480, Note_on_c, 0, 99, 0
2, 78480, Note_on_c, 0, 85, 0
2, 78480, Note_on_c, 0, 87, 0
2, 78480, Note_on_c, 0, 73, 0
2, 78480, Note_on_c, 0, 108, 0
2, 78720, Note_on_c, 0, 97, 100
2, 78720, Note_on_c, 0, 99, 100
2, 78720, Note_on_c, 0, 85, 100
2, 78720, Note_on_c, 0, 87, 100
2, 78720, Note_on_c, 0, 73, 100
2, 78720, Note_on_c, 0, 61, 100
2, 78720, Note_on_c, 0, 108, 100
2, 78960, Note_on_c, 0, 97, 0
2, 78960, Note_on_c, 0, 99, 0
2, 78960, Note_on_c, 0, 85, 0
2, 78960, Note_on_c, 0, 87, 0
2, 78960, Note_on_c, 0, 73, 0
2, 78960, Note_on_c, 0, 61, 0
2, 79200, Note_on_c, 0, 97, 100
2, 79200, Note_on_c, 0, 99, 100
2, 79200, Note_on_c, 0, 85, 100
2, 79200, Note_on_c, 0, 87, 100
2, 79200, Note_on_c, 0, 73, 100
2, 79440, Note_on_c, 0, 108, 0
2, 79440, Note_on_c, 0, 97, 0
2, 79440, Note_on_c, 0, 99, 0
2, 79440, Note_on_c, 0, 85, 0
2, 79440, Note_on_c, 0, 87, 0
2, 79440, Note_on_c, 0, 73, 0
2, 79680, Note_on_c, 0, 97, 100
2, 79680, Note_on_c, 0, 99, 100
2, 79680, Note_on_c, 0, 85, 100
2, 79680, Note_on_c, 0, 87, 100
2, 79680, Note_on_c, 0, 73, 100
2, 79680, Note_on_c, 0, 61, 100
2, 79680, Note_on_c, 0, 108, 100
2, 79920, Note_on_c, 0, 97, 0
2, 79920, Note_on_c, 0, 99, 0
2, 79920, Note_on_c, 0, 85, 0
2, 79920, Note_on_c, 0, 87, 0
2, 79920, Note_on_c, 0, 73, 0
2, 79920, Note_on_c, 0, 61, 0
2, 80160, Note_on_c, 0, 97, 100
2, 80160, Note_on_c, 0, 99, 100
2, 80160, Note_on_c, 0, 85, 100
2, 80160, Note_on_c, 0, 87, 100
2, 80160, Note_on_c, 0, 73, 100
2, 80400, Note_on_c, 0, 108, 0
2, 80400, Note_on_c, 0, 97, 0
2, 80400, Note_on_c, 0, 99, 0
2, 80400, Note_on_c, 0, 85, 0
2, 80400, Note_on_c, 0, 87, 0
2, 80400, Note_on_c, 0, 73, 0
2, 80640, Note_on_c, 0, 97, 100
2, 80640, Note_on_c, 0, 99, 100
2, 80640, Note_on_c, 0, 85, 100
2, 80640, Note_on_c, 0, 87, 100
2, 80640, Note_on_c, 0, 73, 100
2, 80640, Note_on_c, 0, 61, 100
2, 80640, Note_on_c, 0, 108, 100
2, 80880, Note_on_c, 0, 97, 0
2, 80880, Note_on_c, 0, 99, 0
2, 80880, Note_on_c, 0, 85, 0
2, 80880, Note_on_c, 0, 87, 0
2, 80880, Note_on_c, 0, 73, 0
2, 80880, Note_on_c, 0, 61, 0
2, 81120, Note_on_c, 0, 97, 100
2, 81120, Note_on_c, 0, 99, 100
2, 81120, Note_on_c, 0, 85, 100
2, 81120, Note_on_c, 0, 87, 100
2, 81120, Note_on_c, 0, 73, 100
2, 81360, Note_on_c, 0, 97, 0
2, 81360, Note_on_c, 0, 99, 0
2, 81360, Note_on_c, 0, 85, 0
2, 81360, Note_on_c, 0, 87, 0
2, 81360, Note_on_c, 0, 73, 0
2, 81600, Note_on_c, 0, 97, 100
2, 81600, Note_on_c, 0, 99, 100
2, 81600, Note_on_c, 0, 85, 100
2, 81600, Note_on_c, 0, 87, 100
2, 81600, Note_on_c, 0, 73, 100
2, 81600, Note_on_c, 0, 61, 100
2, 81840, Note_on_c, 0, 108, 0
2, 81840, Note_on_c, 0, 97, 0
2, 81840, Note_on_c, 0, 99, 0
2, 81840, Note_on_c, 0, 85, 0
2, 81840, Note_on_c, 0, 87, 0
2, 81840, Note_on_c, 0, 73, 0
2, 81840, Note_on_c, 0, 61, 0
2, 82080, Note_on_c, 0, 97, 100
2, 82080, Note_on_c, 0, 99, 100
2, 82080, Note_on_c, 0, 85, 100
2, 82080, Note_on_c, 0, 87, 100
2, 82080, Note_on_c, 0, 73, 100
2, 82080, Note_on_c, 0, 108, 100
2, 82320, Note_on_c, 0, 97, 0
2, 82320, Note_on_c, 0, 99, 0
2, 82320, Note_on_c, 0, 85, 0
2, 82320, Note_on_c, 0, 87, 0
2, 82320, Note_on_c, 0, 73, 0
2, 82560, Note_on_c, 0, 97, 100
2, 82560, Note_on_c, 0, 99, 100
2, 82560, Note_on_c, 0, 85, 100
2, 82560, Note_on_c, 0, 87, 100
2, 82560, Note_on_c, 0, 73, 100
2, 82560, Note_on_c, 0, 61, 100
2, 82800, Note_on_c, 0, 97, 0
2, 82800, Note_on_c, 0, 99, 0
2, 82800, Note_on_c, 0, 85, 0
2, 82800, Note_on_c, 0, 87, 0
2, 82800, Note_on_c, 0, 73, 0
2, 82800, Note_on_c, 0, 61, 0
2, 83040, Note_on_c, 0, 97, 100
2, 83040, Note_on_c, 0, 99, 100
2, 83040, Note_on_c, 0, 85, 100
2, 83040, Note_on_c, 0, 87, 100
2, 83040, Note_on_c, 0, 73, 100
2, 83280, Note_on_c, 0, 108, 0
2, 83280, Note_on_c, 0, 97, 0
2, 83280, Note_on_c, 0, 99, 0
2, 83280, Note_on_c, 0, 85, 0
2, 83280, Note_on_c, 0, 87, 0
2, 83280, Note_on_c, 0, 73, 0
2, 83520, Note_on_c, 0, 97, 100
2, 83520, Note_on_c, 0, 99, 100
2, 83520, Note_on_c, 0, 85, 100
2, 83520, Note_on_c, 0, 87, 100
2, 83520, Note_on_c, 0, 73, 100
2, 83520, Note_on_c, 0, 108, 100
2, 83760, Note_on_c, 0, 97, 0
2, 83760, Note_on_c, 0, 99, 0
2, 83760, Note_on_c, 0, 85, 0
2, 83760, Note_on_c, 0, 87, 0
2, 83760, Note_on_c, 0, 73, 0
2, 83970, Note_on_c, 0, 105, 0
2, 83970, Note_on_c, 0, 93, 0
2, 83970, Note_on_c, 0, 69, 0
2, 83970, Note_on_c, 0, 81, 0
2, 83970, Note_on_c, 0, 106, 100
2, 83970, Note_on_c, 0, 94, 100
2, 83970, Note_on_c, 0, 70, 100
2, 83970, Note_on_c, 0, 82, 100
2, 84000, Note_on_c, 0, 96, 100
2, 84000, Note_on_c, 0, 98, 100
2, 84000, Note_on_c, 0, 84, 100
2, 84000, Note_on_c, 0, 86, 100
2, 84000, Note_on_c, 0, 72, 100
2, 84000, Note_on_c, 0, 60, 100
2, 84720, Note_on_c, 0, 108, 0
2, 85200, Note_on_c, 0, 72, 0
2, 85200, Note_on_c, 0, 60, 0
2, 85440, Note_on_c, 0, 96, 0
2, 85440, Note_on_c, 0, 98, 0
2, 85440, Note_on_c, 0, 84, 0
2, 85440, Note_on_c, 0, 86, 0
2, 85440, Note_on_c, 0, 96, 100
2, 85440, Note_on_c, 0, 98, 100
2, 85440, Note_on_c, 0, 84, 100
2, 85440, Note_on_c, 0, 86, 100
2, 85440, Note_on_c, 0, 72, 100
2, 85440, Note_on_c, 0, 60, 100
2, 85440, Note_on_c, 0, 108, 100
2, 85680, Note_on_c, 0, 96, 0
2, 85680, Note_on_c, 0, 98, 0
2, 85680, Note_on_c, 0, 84, 0
2, 85680, Note_on_c, 0, 86, 0
2, 85680, Note_on_c, 0, 72, 0
2, 85680, Note_on_c, 0, 60, 0
2, 85920, Note_on_c, 0, 108, 0
2, 85920, Note_on_c, 0, 96, 100
2, 85920, Note_on_c, 0, 98, 100
2, 85920, Note_on_c, 0, 84, 100
2, 85920, Note_on_c, 0, 86, 100
2, 85920, Note_on_c, 0, 72, 100
2, 86160, Note_on_c, 0, 96, 0
2, 86160, Note_on_c, 0, 98, 0
2, 86160, Note_on_c, 0, 84, 0
2, 86160, Note_on_c, 0, 86, 0
2, 86160, Note_on_c, 0, 72, 0
2, 86400, Note_on_c, 0, 96, 100
2, 86400, Note_on_c, 0, 98, 100
2, 86400, Note_on_c, 0, 84, 100
2, 86400, Note_on_c, 0, 86, 100
2, 86400, Note_on_c, 0, 72, 100
2, 86400, Note_on_c, 0, 60, 100
2, 86400, Note_on_c, 0, 108, 100
2, 86640, Note_on_c, 0, 96, 0
2, 86640, Note_on_c, 0, 98, 0
2, 86640, Note_on_c, 0, 84, 0
2, 86640, Note_on_c, 0, 86, 0
2, 86640, Note_on_c, 0, 72, 0
2, 86640, Note_on_c, 0, 60, 0
2, 86880, Note_on_c, 0, 108, 0
2, 86880, Note_on_c, 0, 96, 100
2, 86880, Note_on_c, 0, 98, 100
2, 86880, Note_on_c, 0, 84, 100
2, 86880, Note_on_c, 0, 86, 100
2, 86880, Note_on_c, 0, 72, 100
2, 87120, Note_on_c, 0, 96, 0
2, 87120, Note_on_c, 0, 98, 0
2, 87120, Note_on_c, 0, 84, 0
2, 87120, Note_on_c, 0, 86, 0
2, 87120, Note_on_c, 0, 72, 0
2, 87360, Note_on_c, 0, 96, 100
2, 87360, Note_on_c, 0, 98, 100
2, 87360, Note_on_c, 0, 84, 100
2, 87360, Note_on_c, 0, 86, 100
2, 87360, Note_on_c, 0, 72, 100
2, 87360, Note_on_c, 0, 60, 100
2, 87360, Note_on_c, 0, 108, 100
2, 87600, Note_on_c, 0, 96, 0
2, 87600, Note_on_c, 0, 98, 0
2, 87600, Note_on_c, 0, 84, 0
2, 87600, Note_on_c, 0, 86, 0
2, 87600, Note_on_c, 0, 72, 0
2, 87600, Note_on_c, 0, 60, 0
2, 87840, Note_on_c, 0, 96, 100
2, 87840, Note_on_c, 0, 98, 100
2, 87840, Note_on_c, 0, 84, 100
2, 87840, Note_on_c, 0, 86, 100
2, 87840, Note_on_c, 0, 72, 100
2, 88080, Note_on_c, 0, 108, 0
2, 88080, Note_on_c, 0, 96, 0
2, 88080, Note_on_c, 0, 98, 0
2, 88080, Note_on_c, 0, 84, 0
2, 88080, Note_on_c, 0, 86, 0
2, 88080, Note_on_c, 0, 72, 0
2, 88320, Note_on_c, 0, 96, 100
2, 88320, Note_on_c, 0, 98, 100
2, 88320, Note_on_c, 0, 84, 100
2, 88320, Note_on_c, 0, 86, 100
2, 88320, Note_on_c, 0, 72, 100
2, 88320, Note_on_c, 0, 60, 100
2, 88320, Note_on_c, 0, 108, 100
2, 88560, Note_on_c, 0, 96, 0
2, 88560, Note_on_c, 0, 98, 0
2, 88560, Note_on_c, 0, 84, 0
2, 88560, Note_on_c, 0, 86, 0
2, 88560, Note_on_c, 0, 72, 0
2, 88560, Note_on_c, 0, 60, 0
2, 88800, Note_on_c, 0, 96, 100
2, 88800, Note_on_c, 0, 98, 100
2, 88800, Note_on_c, 0, 84, 100
2, 88800, Note_on_c, 0, 86, 100
2, 88800, Note_on_c, 0, 72, 100
2, 89040, Note_on_c, 0, 96, 0
2, 89040, Note_on_c, 0, 98, 0
2, 89040, Note_on_c, 0, 84, 0
2, 89040, Note_on_c, 0, 86, 0
2, 89040, Note_on_c, 0, 72, 0
2, 89280, Note_on_c, 0, 96, 100
2, 89280, Note_on_c, 0, 98, 100
2, 89280, Note_on_c, 0, 84, 100
2, 89280, Note_on_c, 0, 86, 100
2, 89280, Note_on_c, 0, 72, 100
2, 89280, Note_on_c, 0, 60, 100
2, 89520, Note_on_c, 0, 108, 0
2, 89520, Note_on_c, 0, 96, 0
2, 89520, Note_on_c, 0, 98, 0
2, 89520, Note_on_c, 0, 84, 0
2, 89520, Note_on_c, 0, 86, 0
2, 89520, Note_on_c, 0, 72, 0
2, 89520, Note_on_c, 0, 60, 0
2, 89760, Note_on_c, 0, 96, 100
2, 89760, Note_on_c, 0, 98, 100
2, 89760, Note_on_c, 0, 84, 100
2, 89760, Note_on_c, 0, 86, 100
2, 89760, Note_on_c, 0, 72, 100
2, 89760, Note_on_c, 0, 108, 100
2, 90000, Note_on_c, 0, 96, 0
2, 90000, Note_on_c, 0, 98, 0
2, 90000, Note_on_c, 0, 84, 0
2, 90000, Note_on_c, 0, 86, 0
2, 90000, Note_on_c, 0, 72, 0
2, 90240, Note_on_c, 0, 96, 100
2, 90240, Note_on_c, 0, 98, 100
2, 90240, Note_on_c, 0, 84, 100
2, 90240, Note_on_c, 0, 86, 100
2, 90240, Note_on_c, 0, 72, 100
2, 90240, Note_on_c, 0, 60, 100
2, 90480, Note_on_c, 0, 96, 0
2, 90480, Note_on_c, 0, 98, 0
2, 90480, Note_on_c, 0, 84, 0
2, 90480, Note_on_c, 0, 86, 0
2, 90480, Note_on_c, 0, 72, 0
2, 90480, Note_on_c, 0, 60, 0
2, 90720, Note_on_c, 0, 96, 100
2, 90720, Note_on_c, 0, 98, 100
2, 90720, Note_on_c, 0, 84, 100
2, 90720, Note_on_c, 0, 86, 100
2, 90720, Note_on_c, 0, 72, 100
2, 90960, Note_on_c, 0, 108, 0
2, 90960, Note_on_c, 0, 96, 0
2, 90960, Note_on_c, 0, 98, 0
2, 90960, Note_on_c, 0, 84, 0
2, 90960, Note_on_c, 0, 86, 0
2, 90960, Note_on_c, 0, 72, 0
2, 91200, Note_on_c, 0, 96, 100
2, 91200, Note_on_c, 0, 98, 100
2, 91200, Note_on_c, 0, 84, 100
2, 91200, Note_on_c, 0, 86, 100
2, 91200, Note_on_c, 0, 72, 100
2, 91200, Note_on_c, 0, 108, 100
2, 91440, Note_on_c, 0, 96, 0
2, 91440, Note_on_c, 0, 98, 0
2, 91440, Note_on_c, 0, 84, 0
2, 91440, Note_on_c, 0, 86, 0
2, 91440, Note_on_c, 0, 72, 0
2, 91650, Note_on_c, 0, 105, 100
2, 91650, Note_on_c, 0, 93, 100
2, 91650, Note_on_c, 0, 69, 100
2, 91650, Note_on_c, 0, 81, 100
2, 91680, Note_on_c, 0, 97, 100
2, 91680, Note_on_c, 0, 85, 100
2, 91680, Note_on_c, 0, 73, 100
2, 91680, Note_on_c, 0, 60, 100
2, 92640, Note_on_c, 0, 97, 0
2, 92640, Note_on_c, 0, 85, 0
2, 92640, Note_on_c, 0, 73, 0
2, 92640, Note_on_c, 0, 60, 0
2, 92640, Note_on_c, 0, 98, 100
2, 92640, Note_on_c, 0, 86, 100
2, 92880, Note_on_c, 0, 108, 0
2, 92880, Note_on_c, 0, 98, 0
2, 92880, Note_on_c, 0, 86, 0
2, 93120, Note_on_c, 0, 99, 100
2, 93120, Note_on_c, 0, 87, 100
2, 93120, Note_on_c, 0, 74, 100
2, 93360, Note_on_c, 0, 99, 0
2, 93360, Note_on_c, 0, 87, 0
2, 93360, Note_on_c, 0, 74, 0
2, 93600, Note_on_c, 0, 100, 100
2, 93600, Note_on_c, 0, 88, 100
2, 93600, Note_on_c, 0, 75, 100
2, 93600, Note_on_c, 0, 62, 100
2, 94080, Note_on_c, 0, 108, 100
2, 94320, Note_on_c, 0, 108, 0
2, 94560, Note_on_c, 0, 100, 0
2, 94560, Note_on_c, 0, 88, 0
2, 94560, Note_on_c, 0, 75, 0
2, 94560, Note_on_c, 0, 62, 0
2, 94560, Note_on_c, 0, 99, 100
2, 94560, Note_on_c, 0, 87, 100
2, 94560, Note_on_c, 0, 108, 100
2, 94800, Note_on_c, 0, 99, 0
2, 94800, Note_on_c, 0, 87, 0
2, 94880, Note_on_c, 0, 108, 0
2, 95040, Note_on_c, 0, 98, 100
2, 95040, Note_on_c, 0, 86, 100
2, 95040, Note_on_c, 0, 74, 100
2, 95040, Note_on_c, 0, 108, 100
2, 95280, Note_on_c, 0, 98, 0
2, 95280, Note_on_c, 0, 86, 0
2, 95280, Note_on_c, 0, 74, 0
2, 95520, Note_on_c, 0, 97, 100
2, 95520, Note_on_c, 0, 85, 100
2, 95520, Note_on_c, 0, 73, 100
2, 95520, Note_on_c, 0, 60, 100
2, 95760, Note_on_c, 0, 108, 0
2, 96000, Note_on_c, 0, 108, 100
2, 96480, Note_on_c, 0, 97, 0
2, 96480, Note_on_c, 0, 85, 0
2, 96480, Note_on_c, 0, 73, 0
2, 96480, Note_on_c, 0, 60, 0
2, 96480, Note_on_c, 0, 98, 100
2, 96480, Note_on_c, 0, 86, 100
2, 96720, Note_on_c, 0, 98, 0
2, 96720, Note_on_c, 0, 86, 0
2, 96960, Note_on_c, 0, 100, 100
2, 96960, Note_on_c, 0, 88, 100
2, 96960, Note_on_c, 0, 75, 100
2, 97200, Note_on_c, 0, 108, 0
2, 97200, Note_on_c, 0, 100, 0
2, 97200, Note_on_c, 0, 88, 0
2, 97200, Note_on_c, 0, 75, 0
2, 97440, Note_on_c, 0, 99, 100
2, 97440, Note_on_c, 0, 87, 100
2, 97440, Note_on_c, 0, 74, 100
2, 97440, Note_on_c, 0, 61, 100
2, 97440, Note_on_c, 0, 108, 100
2, 98400, Note_on_c, 0, 99, 0
2, 98400, Note_on_c, 0, 87, 0
2, 98400, Note_on_c, 0, 74, 0
2, 98400, Note_on_c, 0, 61, 0
2, 98400, Note_on_c, 0, 98, 100
2, 98400, Note_on_c, 0, 86, 100
2, 98640, Note_on_c, 0, 98, 0
2, 98640, Note_on_c, 0, 86, 0
2, 98880, Note_on_c, 0, 97, 100
2, 98880, Note_on_c, 0, 85, 100
2, 98880, Note_on_c, 0, 73, 100
2, 99120, Note_on_c, 0, 97, 0
2, 99120, Note_on_c, 0, 85, 0
2, 99120, Note_on_c, 0, 73, 0
2, 99360, Note_on_c, 0, 98, 100
2, 99360, Note_on_c, 0, 86, 100
2, 99360, Note_on_c, 0, 74, 100
2, 99360, Note_on_c, 0, 61, 100
2, 99810, Note_on_c, 0, 105, 0
2, 99810, Note_on_c, 0, 93, 0
2, 99810, Note_on_c, 0, 69, 0
2, 99810, Note_on_c, 0, 81, 0
2, 99840, Note_on_c, 0, 108, 0
2, 100320, Note_on_c, 0, 98, 0
2, 100320, Note_on_c, 0, 86, 0
2, 100320, Note_on_c, 0, 74, 0
2, 100320, Note_on_c, 0, 61, 0
2, 100800, Note_on_c, 0, 96, 100
2, 100800, Note_on_c, 0, 98, 100
2, 100800, Note_on_c, 0, 84, 100
2, 100800, Note_on_c, 0, 86, 100
2, 100800, Note_on_c, 0, 72, 100
2, 100800, Note_on_c, 0, 60, 100
2, 100800, Note_on_c, 0, 108, 100
2, 101040, Note_on_c, 0, 96, 0
2, 101040, Note_on_c, 0, 98, 0
2, 101040, Note_on_c, 0, 84, 0
2, 101040, Note_on_c, 0, 86, 0
2, 101040, Note_on_c, 0, 72, 0
2, 101040, Note_on_c, 0, 60, 0
2, 101280, Note_on_c, 0, 96, 100
2, 101280, Note_on_c, 0, 98, 100
2, 101280, Note_on_c, 0, 84, 100
2, 101280, Note_on_c, 0, 86, 100
2, 101280, Note_on_c, 0, 72, 100
2, 101520, Note_on_c, 0, 108, 0
2, 101520, Note_on_c, 0, 96, 0
2, 101520, Note_on_c, 0, 98, 0
2, 101520, Note_on_c, 0, 84, 0
2, 101520, Note_on_c, 0, 86, 0
2, 101520, Note_on_c, 0, 72, 0
2, 101760, Note_on_c, 0, 96, 100
2, 101760, Note_on_c, 0, 98, 100
2, 101760, Note_on_c, 0, 84, 100
2, 101760, Note_on_c, 0, 86, 100
2, 101760, Note_on_c, 0, 72, 100
2, 101760, Note_on_c, 0, 60, 100
2, 101760, Note_on_c, 0, 108, 100
2, 102000, Note_on_c, 0, 96, 0
2, 102000, Note_on_c, 0, 98, 0
2, 102000, Note_on_c, 0, 84, 0
2, 102000, Note_on_c, 0, 86, 0
2, 102000, Note_on_c, 0, 72, 0
2, 102000, Note_on_c, 0, 60, 0
2, 102240, Note_on_c, 0, 108, 0
2, 102240, Note_on_c, 0, 96, 100
2, 102240, Note_on_c, 0, 98, 100
2, 102240, Note_on_c, 0, 84, 100
2, 102240, Note_on_c, 0, 86, 100
2, 102240, Note_on_c, 0, 72, 100
2, 102480, Note_on_c, 0, 96, 0
2, 102480, Note_on_c, 0, 98, 0
2, 102480, Note_on_c, 0, 84, 0
2, 102480, Note_on_c, 0, 86, 0
2, 102480, Note_on_c, 0, 72, 0
2, 102720, Note_on_c, 0, 96, 100
2, 102720, Note_on_c, 0, 98, 100
2, 102720, Note_on_c, 0, 84, 100
2, 102720, Note_on_c, 0, 86, 100
2, 102720, Note_on_c, 0, 72, 100
2, 102720, Note_on_c, 0, 60, 100
2, 102720, Note_on_c, 0, 108, 100
2, 102960, Note_on_c, 0, 96, 0
2, 102960, Note_on_c, 0, 98, 0
2, 102960, Note_on_c, 0, 84, 0
2, 102960, Note_on_c, 0, 86, 0
2, 102960, Note_on_c, 0, 72, 0
2, 102960, Note_on_c, 0, 60, 0
2, 103200, Note_on_c, 0, 96, 100
2, 103200, Note_on_c, 0, 98, 100
2, 103200, Note_on_c, 0, 84, 100
2, 103200, Note_on_c, 0, 86, 100
2, 103200, Note_on_c, 0, 72, 100
2, 103440, Note_on_c, 0, 108, 0
2, 103440, Note_on_c, 0, 96, 0
2, 103440, Note_on_c, 0, 98, 0
2, 103440, Note_on_c, 0, 84, 0
2, 103440, Note_on_c, 0, 86, 0
2, 103440, Note_on_c, 0, 72, 0
2, 103680, Note_on_c, 0, 96, 100
2, 103680, Note_on_c, 0, 98, 100
2, 103680, Note_on_c, 0, 84, 100
2, 103680, Note_on_c, 0, 86, 100
2, 103680, Note_on_c, 0, 72, 100
2, 103680, Note_on_c, 0, 60, 100
2, 103680, Note_on_c, 0, 108, 100
2, 103920, Note_on_c, 0, 96, 0
2, 103920, Note_on_c, 0, 98, 0
2, 103920, Note_on_c, 0, 84, 0
2, 103920, Note_on_c, 0, 86, 0
2, 103920, Note_on_c, 0, 72, 0
2, 103920, Note_on_c, 0, 60, 0
2, 104160, Note_on_c, 0, 96, 100
2, 104160, Note_on_c, 0, 98, 100
2, 104160, Note_on_c, 0, 84, 100
2, 104160, Note_on_c, 0, 86, 100
2, 104160, Note_on_c, 0, 72, 100
2, 104400, Note_on_c, 0, 96, 0
2, 104400, Note_on_c, 0, 98, 0
2, 104400, Note_on_c, 0, 84, 0
2, 104400, Note_on_c, 0, 86, 0
2, 104400, Note_on_c, 0, 72, 0
2, 104640, Note_on_c, 0, 96, 100
2, 104640, Note_on_c, 0, 98, 100
2, 104640, Note_on_c, 0, 84, 100
2, 104640, Note_on_c, 0, 86, 100
2, 104640, Note_on_c, 0, 72, 100
2, 104640, Note_on_c, 0, 60, 100
2, 104880, Note_on_c, 0, 108, 0
2, 104880, Note_on_c, 0, 96, 0
2, 104880, Note_on_c, 0, 98, 0
2, 104880, Note_on_c, 0, 84, 0
2, 104880, Note_on_c, 0, 86, 0
2, 104880, Note_on_c, 0, 72, 0
2, 104880, Note_on_c, 0, 60, 0
2, 105120, Note_on_c, 0, 96, 100
2, 105120, Note_on_c, 0, 98, 100
2, 105120, Note_on_c, 0, 84, 100
2, 105120, Note_on_c, 0, 86, 100
2, 105120, Note_on_c, 0, 72, 100
2, 105120, Note_on_c, 0, 108, 100
2, 105360, Note_on_c, 0, 96, 0
2, 105360, Note_on_c, 0, 98, 0
2, 105360, Note_on_c, 0, 84, 0
2, 105360, Note_on_c, 0, 86, 0
2, 105360, Note_on_c, 0, 72, 0
2, 105600, Note_on_c, 0, 96, 100
2, 105600, Note_on_c, 0, 98, 100
2, 105600, Note_on_c, 0, 84, 100
2, 105600, Note_on_c, 0, 86, 100
2, 105600, Note_on_c, 0, 72, 100
2, 105600, Note_on_c, 0, 60, 100
2, 105840, Note_on_c, 0, 96, 0
2, 105840, Note_on_c, 0, 98, 0
2, 105840, Note_on_c, 0, 84, 0
2, 105840, Note_on_c, 0, 86, 0
2, 105840, Note_on_c, 0, 72, 0
2, 105840, Note_on_c, 0, 60, 0
2, 106080, Note_on_c, 0, 96, 100
2, 106080, Note_on_c, 0, 98, 100
2, 106080, Note_on_c, 0, 84, 100
2, 106080, Note_on_c, 0, 86, 100
2, 106080, Note_on_c, 0, 72, 100
2, 106320, Note_on_c, 0, 108, 0
2, 106320, Note_on_c, 0, 96, 0
2, 106320, Note_on_c, 0, 98, 0
2, 106320, Note_on_c, 0, 84, 0
2, 106320, Note_on_c, 0, 86, 0
2, 106320, Note_on_c, 0, 72, 0
2, 106560, Note_on_c, 0, 96, 100
2, 106560, Note_on_c, 0, 98, 100
2, 106560, Note_on_c, 0, 84, 100
2, 106560, Note_on_c, 0, 86, 100
2, 106560, Note_on_c, 0, 72, 100
2, 106560, Note_on_c, 0, 108, 100
2, 106800, Note_on_c, 0, 96, 0
2, 106800, Note_on_c, 0, 98, 0
2, 106800, Note_on_c, 0, 84, 0
2, 106800, Note_on_c, 0, 86, 0
2, 106800, Note_on_c, 0, 72, 0
2, 107040, Note_on_c, 0, 97, 100
2, 107040, Note_on_c, 0, 99, 100
2, 107040, Note_on_c, 0, 85, 100
2, 107040, Note_on_c, 0, 87, 100
2, 107040, Note_on_c, 0, 73, 100
2, 107040, Note_on_c, 0, 61, 100
2, 108000, Note_on_c, 0, 108, 0
2, 108240, Note_on_c, 0, 73, 0
2, 108240, Note_on_c, 0, 61, 0
2, 108480, Note_on_c, 0, 97, 0
2, 108480, Note_on_c, 0, 99, 0
2, 108480, Note_on_c, 0, 85, 0
2, 108480, Note_on_c, 0, 87, 0
2, 108480, Note_on_c, 0, 97, 100
2, 108480, Note_on_c, 0, 99, 100
2, 108480, Note_on_c, 0, 85, 100
2, 108480, Note_on_c, 0, 87, 100
2, 108480, Note_on_c, 0, 73, 100
2, 108480, Note_on_c, 0, 61, 100
2, 108720, Note_on_c, 0, 97, 0
2, 108720, Note_on_c, 0, 99, 0
2, 108720, Note_on_c, 0, 85, 0
2, 108720, Note_on_c, 0, 87, 0
2, 108720, Note_on_c, 0, 73, 0
2, 108720, Note_on_c, 0, 61, 0
2, 108960, Note_on_c, 0, 97, 100
2, 108960, Note_on_c, 0, 99, 100
2, 108960, Note_on_c, 0, 85, 100
2, 108960, Note_on_c, 0, 87, 100
2, 108960, Note_on_c, 0, 73, 100
2, 109200, Note_on_c, 0, 97, 0
2, 109200, Note_on_c, 0, 99, 0
2, 109200, Note_on_c, 0, 85, 0
2, 109200, Note_on_c, 0, 87, 0
2, 109200, Note_on_c, 0, 73, 0
2, 109440, Note_on_c, 0, 97, 100
2, 109440, Note_on_c, 0, 99, 100
2, 109440, Note_on_c, 0, 85, 100
2, 109440, Note_on_c, 0, 87, 100
2, 109440, Note_on_c, 0, 73, 100
2, 109440, Note_on_c, 0, 61, 100
2, 109440, Note_on_c, 0, 108, 100
2, 109680, Note_on_c, 0, 97, 0
2, 109680, Note_on_c, 0, 99, 0
2, 109680, Note_on_c, 0, 85, 0
2, 109680, Note_on_c, 0, 87, 0
2, 109680, Note_on_c, 0, 73, 0
2, 109680, Note_on_c, 0, 61, 0
2, 109920, Note_on_c, 0, 108, 0
2, 109920, Note_on_c, 0, 97, 100
2, 109920, Note_on_c, 0, 99, 100
2, 109920, Note_on_c, 0, 85, 100
2, 109920, Note_on_c, 0, 87, 100
2, 109920, Note_on_c, 0, 73, 100
2, 110160, Note_on_c, 0, 97, 0
2, 110160, Note_on_c, 0, 99, 0
2, 110160, Note_on_c, 0, 85, 0
2, 110160, Note_on_c, 0, 87, 0
2, 110160, Note_on_c, 0, 73, 0
2, 110400, Note_on_c, 0, 97, 100
2, 110400, Note_on_c, 0, 99, 100
2, 110400, Note_on_c, 0, 85, 100
2, 110400, Note_on_c, 0, 87, 100
2, 110400, Note_on_c, 0, 73, 100
2, 110400, Note_on_c, 0, 61, 100
2, 110400, Note_on_c, 0, 108, 100
2, 110640, Note_on_c, 0, 97, 0
2, 110640, Note_on_c, 0, 99, 0
2, 110640, Note_on_c, 0, 85, 0
2, 110640, Note_on_c, 0, 87, 0
2, 110640, Note_on_c, 0, 73, 0
2, 110640, Note_on_c, 0, 61, 0
2, 110880, Note_on_c, 0, 97, 100
2, 110880, Note_on_c, 0, 99, 100
2, 110880, Note_on_c, 0, 85, 100
2, 110880, Note_on_c, 0, 87, 100
2, 110880, Note_on_c, 0, 73, 100
2, 111120, Note_on_c, 0, 108, 0
2, 111120, Note_on_c, 0, 97, 0
2, 111120, Note_on_c, 0, 99, 0
2, 111120, Note_on_c, 0, 85, 0
2, 111120, Note_on_c, 0, 87, 0
2, 111120, Note_on_c, 0, 73, 0
2, 111360, Note_on_c, 0, 97, 100
2, 111360, Note_on_c, 0, 99, 100
2, 111360, Note_on_c, 0, 85, 100
2, 111360, Note_on_c, 0, 87, 100
2, 111360, Note_on_c, 0, 73, 100
2, 111360, Note_on_c, 0, 61, 100
2, 111360, Note_on_c, 0, 108, 100
2, 111600, Note_on_c, 0, 97, 0
2, 111600, Note_on_c, 0, 99, 0
2, 111600, Note_on_c, 0, 85, 0
2, 111600, Note_on_c, 0, 87, 0
2, 111600, Note_on_c, 0, 73, 0
2, 111600, Note_on_c, 0, 61, 0
2, 111840, Note_on_c, 0, 97, 100
2, 111840, Note_on_c, 0, 99, 100
2, 111840, Note_on_c, 0, 85, 100
2, 111840, Note_on_c, 0, 87, 100
2, 111840, Note_on_c, 0, 73, 100
2, 112080, Note_on_c, 0, 97, 0
2, 112080, Note_on_c, 0, 99, 0
2, 112080, Note_on_c, 0, 85, 0
2, 112080, Note_on_c, 0, 87, 0
2, 112080, Note_on_c, 0, 73, 0
2, 112320, Note_on_c, 0, 97, 100
2, 112320, Note_on_c, 0, 99, 100
2, 112320, Note_on_c, 0, 85, 100
2, 112320, Note_on_c, 0, 87, 100
2, 112320, Note_on_c, 0, 73, 100
2, 112320, Note_on_c, 0, 61, 100
2, 112560, Note_on_c, 0, 108, 0
2, 112560, Note_on_c, 0, 97, 0
2, 112560, Note_on_c, 0, 99, 0
2, 112560, Note_on_c, 0, 85, 0
2, 112560, Note_on_c, 0, 87, 0
2, 112560, Note_on_c, 0, 73, 0
2, 112560, Note_on_c, 0, 61, 0
2, 112800, Note_on_c, 0, 97, 100
2, 112800, Note_on_c, 0, 99, 100
2, 112800, Note_on_c, 0, 85, 100
2, 112800, Note_on_c, 0, 87, 100
2, 112800, Note_on_c, 0, 73, 100
2, 112800, Note_on_c, 0, 108, 100
2, 113040, Note_on_c, 0, 97, 0
2, 113040, Note_on_c, 0, 99, 0
2, 113040, Note_on_c, 0, 85, 0
2, 113040, Note_on_c, 0, 87, 0
2, 113040, Note_on_c, 0, 73, 0
2, 113280, Note_on_c, 0, 97, 100
2, 113280, Note_on_c, 0, 99, 100
2, 113280, Note_on_c, 0, 85, 100
2, 113280, Note_on_c, 0, 87, 100
2, 113280, Note_on_c, 0, 73, 100
2, 113280, Note_on_c, 0, 61, 100
2, 113520, Note_on_c, 0, 97, 0
2, 113520, Note_on_c, 0, 99, 0
2, 113520, Note_on_c, 0, 85, 0
2, 113520, Note_on_c, 0, 87, 0
2, 113520, Note_on_c, 0, 73, 0
2, 113520, Note_on_c, 0, 61, 0
2, 113760, Note_on_c, 0, 97, 100
2, 113760, Note_on_c, 0, 99, 100
2, 113760, Note_on_c, 0, 85, 100
2, 113760, Note_on_c, 0, 87, 100
2, 113760, Note_on_c, 0, 73, 100
2, 114000, Note_on_c, 0, 108, 0
2, 114000, Note_on_c, 0, 97, 0
2, 114000, Note_on_c, 0, 99, 0
2, 114000, Note_on_c, 0, 85, 0
2, 114000, Note_on_c, 0, 87, 0
2, 114000, Note_on_c, 0, 73, 0
2, 114240, Note_on_c, 0, 97, 100
2, 114240, Note_on_c, 0, 99, 100
2, 114240, Note_on_c, 0, 85, 100
2, 114240, Note_on_c, 0, 87, 100
2, 114240, Note_on_c, 0, 73, 100
2, 114240, Note_on_c, 0, 108, 100
2, 114480, Note_on_c, 0, 97, 0
2, 114480, Note_on_c, 0, 99, 0
2, 114480, Note_on_c, 0, 85, 0
2, 114480, Note_on_c, 0, 87, 0
2, 114480, Note_on_c, 0, 73, 0
2, 114690, Note_on_c, 0, 106, 0
2, 114690, Note_on_c, 0, 94, 0
2, 114690, Note_on_c, 0, 70, 0
2, 114690, Note_on_c, 0, 82, 0
2, 114690, Note_on_c, 0, 105, 100
2, 114690, Note_on_c, 0, 93, 100
2, 114690, Note_on_c, 0, 69, 100
2, 114690, Note_on_c, 0, 81, 100
2, 114720, Note_on_c, 0, 96, 100
2, 114720, Note_on_c, 0, 98, 100
2, 114720, Note_on_c, 0, 84, 100
2, 114720, Note_on_c, 0, 86, 100
2, 114720, Note_on_c, 0, 72, 100
2, 114720, Note_on_c, 0, 60, 100
2, 115680, Note_on_c, 0, 108, 0
2, 115920, Note_on_c, 0, 72, 0
2, 115920, Note_on_c, 0, 60, 0
2, 116160, Note_on_c, 0, 96, 0
2, 116160, Note_on_c, 0, 98, 0
2, 116160, Note_on_c, 0, 84, 0
2, 116160, Note_on_c, 0, 86, 0
2, 116160, Note_on_c, 0, 96, 100
2, 116160, Note_on_c, 0, 98, 100
2, 116160, Note_on_c, 0, 84, 100
2, 116160, Note_on_c, 0, 86, 100
2, 116160, Note_on_c, 0, 72, 100
2, 116160, Note_on_c, 0, 60, 100
2, 116400, Note_on_c, 0, 96, 0
2, 116400, Note_on_c, 0, 98, 0
2, 116400, Note_on_c, 0, 84, 0
2, 116400, Note_on_c, 0, 86, 0
2, 116400, Note_on_c, 0, 72, 0
2, 116400, Note_on_c, 0, 60, 0
2, 116640, Note_on_c, 0, 96, 100
2, 116640, Note_on_c, 0, 98, 100
2, 116640, Note_on_c, 0, 84, 100
2, 116640, Note_on_c, 0, 86, 100
2, 116640, Note_on_c, 0, 72, 100
2, 116880, Note_on_c, 0, 96, 0
2, 116880, Note_on_c, 0, 98, 0
2, 116880, Note_on_c, 0, 84, 0
2, 116880, Note_on_c, 0, 86, 0
2, 116880, Note_on_c, 0, 72, 0
2, 117120, Note_on_c, 0, 96, 100
2, 117120, Note_on_c, 0, 98, 100
2, 117120, Note_on_c, 0, 84, 100
2, 117120, Note_on_c, 0, 86, 100
2, 117120, Note_on_c, 0, 72, 100
2, 117120, Note_on_c, 0, 60, 100
2, 117120, Note_on_c, 0, 108, 100
2, 117360, Note_on_c, 0, 96, 0
2, 117360, Note_on_c, 0, 98, 0
2, 117360, Note_on_c, 0, 84, 0
2, 117360, Note_on_c, 0, 86, 0
2, 117360, Note_on_c, 0, 72, 0
2, 117360, Note_on_c, 0, 60, 0
2, 117600, Note_on_c, 0, 108, 0
2, 117600, Note_on_c, 0, 96, 100
2, 117600, Note_on_c, 0, 98, 100
2, 117600, Note_on_c, 0, 84, 100
2, 117600, Note_on_c, 0, 86, 100
2, 117600, Note_on_c, 0, 72, 100
2, 117840, Note_on_c, 0, 96, 0
2, 117840, Note_on_c, 0, 98, 0
2, 117840, Note_on_c, 0, 84, 0
2, 117840, Note_on_c, 0, 86, 0
2, 117840, Note_on_c, 0, 72, 0
2, 118080, Note_on_c, 0, 96, 100
2, 118080, Note_on_c, 0, 98, 100
2, 118080, Note_on_c, 0, 84, 100
2, 118080, Note_on_c, 0, 86, 100
2, 118080, Note_on_c, 0, 72, 100
2, 118080, Note_on_c, 0, 60, 100
2, 118080, Note_on_c, 0, 108, 100
2, 118320, Note_on_c, 0, 96, 0
2, 118320, Note_on_c, 0, 98, 0
2, 118320, Note_on_c, 0, 84, 0
2, 118320, Note_on_c, 0, 86, 0
2, 118320, Note_on_c, 0, 72, 0
2, 118320, Note_on_c, 0, 60, 0
2, 118560, Note_on_c, 0, 96, 100
2, 118560, Note_on_c, 0, 98, 100
2, 118560, Note_on_c, 0, 84, 100
2, 118560, Note_on_c, 0, 86, 100
2, 118560, Note_on_c, 0, 72, 100
2, 118800, Note_on_c, 0, 108, 0
2, 118800, Note_on_c, 0, 96, 0
2, 118800, Note_on_c, 0, 98, 0
2, 118800, Note_on_c, 0, 84, 0
2, 118800, Note_on_c, 0, 86, 0
2, 118800, Note_on_c, 0, 72, 0
2, 119040, Note_on_c, 0, 96, 100
2, 119040, Note_on_c, 0, 98, 100
2, 119040, Note_on_c, 0, 84, 100
2, 119040, Note_on_c, 0, 86, 100
2, 119040, Note_on_c, 0, 72, 100
2, 119040, Note_on_c, 0, 60, 100
2, 119040, Note_on_c, 0, 108, 100
2, 119280, Note_on_c, 0, 96, 0
2, 119280, Note_on_c, 0, 98, 0
2, 119280, Note_on_c, 0, 84, 0
2, 119280, Note_on_c, 0, 86, 0
2, 119280, Note_on_c, 0, 72, 0
2, 119280, Note_on_c, 0, 60, 0
2, 119520, Note_on_c, 0, 96, 100
2, 119520, Note_on_c, 0, 98, 100
2, 119520, Note_on_c, 0, 84, 100
2, 119520, Note_on_c, 0, 86, 100
2, 119520, Note_on_c, 0, 72, 100
2, 119760, Note_on_c, 0, 96, 0
2, 119760, Note_on_c, 0, 98, 0
2, 119760, Note_on_c, 0, 84, 0
2, 119760, Note_on_c, 0, 86, 0
2, 119760, Note_on_c, 0, 72, 0
2, 120000, Note_on_c, 0, 96, 100
2, 120000, Note_on_c, 0, 98, 100
2, 120000, Note_on_c, 0, 84, 100
2, 120000, Note_on_c, 0, 86, 100
2, 120000, Note_on_c, 0, 72, 100
2, 120000, Note_on_c, 0, 60, 100
2, 120240, Note_on_c, 0, 108, 0
2, 120240, Note_on_c, 0, 96, 0
2, 120240, Note_on_c, 0, 98, 0
2, 120240, Note_on_c, 0, 84, 0
2, 120240, Note_on_c, 0, 86, 0
2, 120240, Note_on_c, 0, 72, 0
2, 120240, Note_on_c, 0, 60, 0
2, 120480, Note_on_c, 0, 96, 100
2, 120480, Note_on_c, 0, 98, 100
2, 120480, Note_on_c, 0, 84, 100
2, 120480, Note_on_c, 0, 86, 100
2, 120480, Note_on_c, 0, 72, 100
2, 120480, Note_on_c, 0, 108, 100
2, 120720, Note_on_c, 0, 96, 0
2, 120720, Note_on_c, 0, 98, 0
2, 120720, Note_on_c, 0, 84, 0
2, 120720, Note_on_c, 0, 86, 0
2, 120720, Note_on_c, 0, 72, 0
2, 120960, Note_on_c, 0, 96, 100
2, 120960, Note_on_c, 0, 98, 100
2, 120960, Note_on_c, 0, 84, 100
2, 120960, Note_on_c, 0, 86, 100
2, 120960, Note_on_c, 0, 72, 100
2, 120960, Note_on_c, 0, 60, 100
2, 121200, Note_on_c, 0, 96, 0
2, 121200, Note_on_c, 0, 98, 0
2, 121200, Note_on_c, 0, 84, 0
2, 121200, Note_on_c, 0, 86, 0
2, 121200, Note_on_c, 0, 72, 0
2, 121200, Note_on_c, 0, 60, 0
2, 121440, Note_on_c, 0, 96, 100
2, 121440, Note_on_c, 0, 98, 100
2, 121440, Note_on_c, 0, 84, 100
2, 121440, Note_on_c, 0, 86, 100
2, 121440, Note_on_c, 0, 72, 100
2, 121680, Note_on_c, 0, 108, 0
2, 121680, Note_on_c, 0, 96, 0
2, 121680, Note_on_c, 0, 98, 0
2, 121680, Note_on_c, 0, 84, 0
2, 121680, Note_on_c, 0, 86, 0
2, 121680, Note_on_c, 0, 72, 0
2, 121920, Note_on_c, 0, 96, 100
2, 121920, Note_on_c, 0, 98, 100
2, 121920, Note_on_c, 0, 84, 100
2, 121920, Note_on_c, 0, 86, 100
2, 121920, Note_on_c, 0, 72, 100
2, 121920, Note_on_c, 0, 108, 100
2, 122160, Note_on_c, 0, 96, 0
2, 122160, Note_on_c, 0, 98, 0
2, 122160, Note_on_c, 0, 84, 0
2, 122160, Note_on_c, 0, 86, 0
2, 122160, Note_on_c, 0, 72, 0
2, 122370, Note_on_c, 0, 103, 100
2, 122370, Note_on_c, 0, 91, 100
2, 122370, Note_on_c, 0, 79, 100
2, 122370, Note_on_c, 0, 67, 100
2, 122370, Note_on_c, 0, 106, 100
2, 122370, Note_on_c, 0, 94, 100
2, 122370, Note_on_c, 0, 70, 100
2, 122370, Note_on_c, 0, 82, 100
2, 122400, Note_on_c, 0, 97, 100
2, 122400, Note_on_c, 0, 85, 100
2, 122400, Note_on_c, 0, 73, 100
2, 122400, Note_on_c, 0, 60, 100
2, 123360, Note_on_c, 0, 97, 0
2, 123360, Note_on_c, 0, 85, 0
2, 123360, Note_on_c, 0, 73, 0
2, 123360, Note_on_c, 0, 60, 0
2, 123360, Note_on_c, 0, 98, 100
2, 123360, Note_on_c, 0, 86, 100
2, 123600, Note_on_c, 0, 108, 0
2, 123600, Note_on_c, 0, 98, 0
2, 123600, Note_on_c, 0, 86, 0
2, 123840, Note_on_c, 0, 99, 100
2, 123840, Note_on_c, 0, 87, 100
2, 123840, Note_on_c, 0, 74, 100
2, 124080, Note_on_c, 0, 99, 0
2, 124080, Note_on_c, 0, 87, 0
2, 124080, Note_on_c, 0, 74, 0
2, 124320, Note_on_c, 0, 100, 100
2, 124320, Note_on_c, 0, 88, 100
2, 124320, Note_on_c, 0, 75, 100
2, 124320, Note_on_c, 0, 62, 100
2, 124800, Note_on_c, 0, 108, 100
2, 125280, Note_on_c, 0, 100, 0
2, 125280, Note_on_c, 0, 88, 0
2, 125280, Note_on_c, 0, 75, 0
2, 125280, Note_on_c, 0, 62, 0
2, 125280, Note_on_c, 0, 99, 100
2, 125280, Note_on_c, 0, 87, 100
2, 125440, Note_on_c, 0, 108, 0
2, 125520, Note_on_c, 0, 99, 0
2, 125520, Note_on_c, 0, 87, 0
2, 125760, Note_on_c, 0, 98, 100
2, 125760, Note_on_c, 0, 86, 100
2, 125760, Note_on_c, 0, 74, 100
2, 125760, Note_on_c, 0, 108, 100
2, 126000, Note_on_c, 0, 98, 0
2, 126000, Note_on_c, 0, 86, 0
2, 126000, Note_on_c, 0, 74, 0
2, 126240, Note_on_c, 0, 97, 100
2, 126240, Note_on_c, 0, 85, 100
2, 126240, Note_on_c, 0, 73, 100
2, 126240, Note_on_c, 0, 60, 100
2, 126400, Note_on_c, 0, 108, 0
2, 126720, Note_on_c, 0, 108, 100
2, 127200, Note_on_c, 0, 97, 0
2, 127200, Note_on_c, 0, 85, 0
2, 127200, Note_on_c, 0, 73, 0
2, 127200, Note_on_c, 0, 60, 0
2, 127200, Note_on_c, 0, 98, 100
2, 127200, Note_on_c, 0, 86, 100
2, 127440, Note_on_c, 0, 98, 0
2, 127440, Note_on_c, 0, 86, 0
2, 127680, Note_on_c, 0, 100, 100
2, 127680, Note_on_c, 0, 88, 100
2, 127680, Note_on_c, 0, 75, 100
2, 127840, Note_on_c, 0, 108, 0
2, 127920, Note_on_c, 0, 100, 0
2, 127920, Note_on_c, 0, 88, 0
2, 127920, Note_on_c, 0, 75, 0
2, 128160, Note_on_c, 0, 99, 100
2, 128160, Note_on_c, 0, 87, 100
2, 128160, Note_on_c, 0, 74, 100
2, 128160, Note_on_c, 0, 61, 100
2, 128160, Note_on_c, 0, 108, 100
2, 129120, Note_on_c, 0, 99, 0
2, 129120, Note_on_c, 0, 87, 0
2, 129120, Note_on_c, 0, 74, 0
2, 129120, Note_on_c, 0, 61, 0
2, 129120, Note_on_c, 0, 98, 100
2, 129120, Note_on_c, 0, 86, 100
2, 129360, Note_on_c, 0, 98, 0
2, 129360, Note_on_c, 0, 86, 0
2, 129600, Note_on_c, 0, 97, 100
2, 129600, Note_on_c, 0, 85, 100
2, 129600, Note_on_c, 0, 73, 100
2, 129840, Note_on_c, 0, 97, 0
2, 129840, Note_on_c, 0, 85, 0
2, 129840, Note_on_c, 0, 73, 0
2, 130080, Note_on_c, 0, 98, 100
2, 130080, Note_on_c, 0, 86, 100
2, 130080, Note_on_c, 0, 74, 100
2, 130080, Note_on_c, 0, 61, 100
2, 130560, Note_on_c, 0, 108, 0
2, 131010, Note_on_c, 0, 105, 0
2, 131010, Note_on_c, 0, 93, 0
2, 131010, Note_on_c, 0, 69, 0
2, 131010, Note_on_c, 0, 81, 0
2, 131010, Note_on_c, 0, 103, 0
2, 131010, Note_on_c, 0, 91, 0
2, 131010, Note_on_c, 0, 79, 0
2, 131010, Note_on_c, 0, 67, 0
2, 131010, Note_on_c, 0, 106, 0
2, 131010, Note_on_c, 0, 94, 0
2, 131010, Note_on_c, 0, 70, 0
2, 131010, Note_on_c, 0, 82, 0
2, 131040, Note_on_c, 0, 98, 0
2, 131040, Note_on_c, 0, 86, 0
2, 131040, Note_on_c, 0, 74, 0
2, 131040, Note_on_c, 0, 61, 0
2, 131520, Note_on_c, 0, 108, 100
2, 132000, Note_on_c, 0, 108, 0
2, 132480, Note_on_c, 0, 108, 100
2, 133200, Note_on_c, 0, 108, 0
2, 133440, Note_on_c, 0, 108, 100
2, 134240, Note_on_c, 0, 108, 0
2, 134400, Note_on_c, 0, 108, 100
2, 135200, Note_on_c, 0, 108, 0
2, 135360, Note_on_c, 0, 108, 100
2, 136000, Note_on_c, 0, 108, 0
2, 136320, Note_on_c, 0, 108, 100
2, 136640, Note_on_c, 0, 108, 0
2, 136800, Note_on_c, 0, 108, 100
2, 137120, Note_on_c, 0, 108, 0
2, 137600, Note_on_c, 0, 108, 100
2, 137730, Note_on_c, 0, 106, 100
2, 137730, Note_on_c, 0, 94, 100
2, 137730, Note_on_c, 0, 70, 100
2, 137730, Note_on_c, 0, 82, 100
2, 137760, Note_on_c, 0, 97, 100
2, 137760, Note_on_c, 0, 99, 100
2, 137760, Note_on_c, 0, 85, 100
2, 137760, Note_on_c, 0, 87, 100
2, 137760, Note_on_c, 0, 73, 100
2, 137760, Note_on_c, 0, 75, 100
2, 137760, Note_on_c, 0, 61, 100
2, 138210, Text_t, "bass_off"
2, 138210, Text_t, "drum_off"
2, 139040, Note_on_c, 0, 108, 0
2, 139200, Note_on_c, 0, 108, 100
2, 139680, Note_on_c, 0, 108, 0
2, 140160, Note_on_c, 0, 108, 100
2, 140880, Note_on_c, 0, 108, 0
2, 141120, Note_on_c, 0, 108, 100
2, 141360, Note_on_c, 0, 97, 0
2, 141360, Note_on_c, 0, 99, 0
2, 141360, Note_on_c, 0, 85, 0
2, 141360, Note_on_c, 0, 87, 0
2, 141360, Note_on_c, 0, 73, 0
2, 141360, Note_on_c, 0, 75, 0
2, 141360, Note_on_c, 0, 61, 0
2, 141440, Note_on_c, 0, 108, 0
2, 141570, Note_on_c, 0, 106, 0
2, 141570, Note_on_c, 0, 94, 0
2, 141570, Note_on_c, 0, 70, 0
2, 141570, Note_on_c, 0, 82, 0
2, 141570, Note_on_c, 0, 105, 100
2, 141570, Note_on_c, 0, 93, 100
2, 141570, Note_on_c, 0, 69, 100
2, 141570, Note_on_c, 0, 81, 100
2, 141600, Note_on_c, 0, 100, 100
2, 141600, Note_on_c, 0, 98, 100
2, 141600, Note_on_c, 0, 87, 100
2, 141600, Note_on_c, 0, 86, 100
2, 141600, Note_on_c, 0, 75, 100
2, 141600, Note_on_c, 0, 74, 100
2, 141600, Note_on_c, 0, 62, 100
2, 141600, Note_on_c, 0, 108, 100
2, 143040, Note_on_c, 0, 108, 0
2, 143970, Text_t, "drum_double"
2, 144000, Note_on_c, 0, 108, 100
2, 144320, Note_on_c, 0, 108, 0
2, 144480, Note_on_c, 0, 108, 100
2, 144800, Note_on_c, 0, 108, 0
2, 144960, Note_on_c, 0, 108, 100
2, 145200, Note_on_c, 0, 100, 0
2, 145200, Note_on_c, 0, 98, 0
2, 145200, Note_on_c, 0, 87, 0
2, 145200, Note_on_c, 0, 86, 0
2, 145200, Note_on_c, 0, 75, 0
2, 145200, Note_on_c, 0, 74, 0
2, 145200, Note_on_c, 0, 62, 0
2, 145280, Note_on_c, 0, 108, 0
2, 145410, Note_on_c, 0, 105, 0
2, 145410, Note_on_c, 0, 93, 0
2, 145410, Note_on_c, 0, 69, 0
2, 145410, Note_on_c, 0, 81, 0
2, 145410, Note_on_c, 0, 106, 100
2, 145410, Note_on_c, 0, 94, 100
2, 145410, Note_on_c, 0, 70, 100
2, 145410, Note_on_c, 0, 82, 100
2, 145440, Note_on_c, 0, 96, 100
2, 145440, Note_on_c, 0, 98, 100
2, 145440, Note_on_c, 0, 84, 100
2, 145440, Note_on_c, 0, 86, 100
2, 145440, Note_on_c, 0, 72, 100
2, 145440, Note_on_c, 0, 74, 100
2, 145440, Note_on_c, 0, 60, 100
2, 145440, Note_on_c, 0, 108, 100
2, 145890, Text_t, "bass_on"
2, 145890, Text_t, "[chorus]"
2, 146560, Note_on_c, 0, 108, 0
2, 147360, Note_on_c, 0, 108, 100
2, 147680, Note_on_c, 0, 108, 0
2, 147840, Note_on_c, 0, 108, 100
2, 148320, Note_on_c, 0, 108, 0
2, 148800, Note_on_c, 0, 108, 100
2, 149040, Note_on_c, 0, 96, 0
2, 149040, Note_on_c, 0, 98, 0
2, 149040, Note_on_c, 0, 84, 0
2, 149040, Note_on_c, 0, 86, 0
2, 149040, Note_on_c, 0, 72, 0
2, 149040, Note_on_c, 0, 74, 0
2, 149040, Note_on_c, 0, 60, 0
2, 149120, Note_on_c, 0, 108, 0
2, 149250, Note_on_c, 0, 106, 0
2, 149250, Note_on_c, 0, 94, 0
2, 149250, Note_on_c, 0, 70, 0
2, 149250, Note_on_c, 0, 82, 0
2, 149250, Note_on_c, 0, 105, 100
2, 149250, Note_on_c, 0, 93, 100
2, 149250, Note_on_c, 0, 69, 100
2, 149250, Note_on_c, 0, 81, 100
2, 149280, Note_on_c, 0, 97, 100
2, 149280, Note_on_c, 0, 98, 100
2, 149280, Note_on_c, 0, 85, 100
2, 149280, Note_on_c, 0, 86, 100
2, 149280, Note_on_c, 0, 73, 100
2, 149280, Note_on_c, 0, 74, 100
2, 149280, Note_on_c, 0, 61, 100
2, 149280, Note_on_c, 0, 108, 100
2, 150080, Note_on_c, 0, 108, 0
2, 150240, Note_on_c, 0, 108, 100
2, 151040, Note_on_c, 0, 108, 0
2, 151200, Note_on_c, 0, 108, 100
2, 152000, Note_on_c, 0, 108, 0
2, 152160, Note_on_c, 0, 108, 100
2, 152880, Note_on_c, 0, 97, 0
2, 152880, Note_on_c, 0, 98, 0
2, 152880, Note_on_c, 0, 85, 0
2, 152880, Note_on_c, 0, 86, 0
2, 152880, Note_on_c, 0, 73, 0
2, 152880, Note_on_c, 0, 74, 0
2, 152880, Note_on_c, 0, 61, 0
2, 153090, Note_on_c, 0, 105, 0
2, 153090, Note_on_c, 0, 93, 0
2, 153090, Note_on_c, 0, 69, 0
2, 153090, Note_on_c, 0, 81, 0
2, 153090, Note_on_c, 0, 106, 100
2, 153090, Note_on_c, 0, 94, 100
2, 153090, Note_on_c, 0, 70, 100
2, 153090, Note_on_c, 0, 82, 100
2, 153120, Note_on_c, 0, 108, 0
2, 153120, Note_on_c, 0, 97, 100
2, 153120, Note_on_c, 0, 99, 100
2, 153120, Note_on_c, 0, 85, 100
2, 153120, Note_on_c, 0, 87, 100
2, 153120, Note_on_c, 0, 73, 100
2, 153120, Note_on_c, 0, 75, 100
2, 153120, Note_on_c, 0, 61, 100
2, 153600, Note_on_c, 0, 108, 100
2, 155360, Note_on_c, 0, 108, 0
2, 155520, Note_on_c, 0, 108, 100
2, 156720, Note_on_c, 0, 97, 0
2, 156720, Note_on_c, 0, 99, 0
2, 156720, Note_on_c, 0, 85, 0
2, 156720, Note_on_c, 0, 87, 0
2, 156720, Note_on_c, 0, 73, 0
2, 156720, Note_on_c, 0, 75, 0
2, 156720, Note_on_c, 0, 61, 0
2, 156930, Note_on_c, 0, 106, 0
2, 156930, Note_on_c, 0, 94, 0
2, 156930, Note_on_c, 0, 70, 0
2, 156930, Note_on_c, 0, 82, 0
2, 156930, Note_on_c, 0, 105, 100
2, 156930, Note_on_c, 0, 93, 100
2, 156930, Note_on_c, 0, 69, 100
2, 156930, Note_on_c, 0, 81, 100
2, 156960, Note_on_c, 0, 100, 100
2, 156960, Note_on_c, 0, 98, 100
2, 156960, Note_on_c, 0, 87, 100
2, 156960, Note_on_c, 0, 86, 100
2, 156960, Note_on_c, 0, 75, 100
2, 156960, Note_on_c, 0, 74, 100
2, 156960, Note_on_c, 0, 62, 100
2, 157120, Note_on_c, 0, 108, 0
2, 157440, Note_on_c, 0, 108, 100
2, 159040, Note_on_c, 0, 108, 0
2, 159360, Note_on_c, 0, 108, 100
2, 160560, Note_on_c, 0, 100, 0
2, 160560, Note_on_c, 0, 98, 0
2, 160560, Note_on_c, 0, 87, 0
2, 160560, Note_on_c, 0, 86, 0
2, 160560, Note_on_c, 0, 75, 0
2, 160560, Note_on_c, 0, 74, 0
2, 160560, Note_on_c, 0, 62, 0
2, 160770, Note_on_c, 0, 105, 0
2, 160770, Note_on_c, 0, 93, 0
2, 160770, Note_on_c, 0, 69, 0
2, 160770, Note_on_c, 0, 81, 0
2, 160770, Note_on_c, 0, 106, 100
2, 160770, Note_on_c, 0, 94, 100
2, 160770, Note_on_c, 0, 70, 100
2, 160770, Note_on_c, 0, 82, 100
2, 160800, Note_on_c, 0, 96, 100
2, 160800, Note_on_c, 0, 98, 100
2, 160800, Note_on_c, 0, 84, 100
2, 160800, Note_on_c, 0, 86, 100
2, 160800, Note_on_c, 0, 72, 100
2, 160800, Note_on_c, 0, 74, 100
2, 160800, Note_on_c, 0, 61, 100
2, 161120, Note_on_c, 0, 108, 0
2, 161280, Note_on_c, 0, 108, 100
2, 163040, Note_on_c, 0, 108, 0
2, 163200, Note_on_c, 0, 108, 100
2, 164400, Note_on_c, 0, 96, 0
2, 164400, Note_on_c, 0, 98, 0
2, 164400, Note_on_c, 0, 84, 0
2, 164400, Note_on_c, 0, 86, 0
2, 164400, Note_on_c, 0, 72, 0
2, 164400, Note_on_c, 0, 74, 0
2, 164400, Note_on_c, 0, 61, 0
2, 164610, Note_on_c, 0, 105, 100
2, 164610, Note_on_c, 0, 93, 100
2, 164610, Note_on_c, 0, 69, 100
2, 164610, Note_on_c, 0, 81, 100
2, 164640, Note_on_c, 0, 96, 100
2, 164640, Note_on_c, 0, 97, 100
2, 164640, Note_on_c, 0, 84, 100
2, 164640, Note_on_c, 0, 85, 100
2, 164640, Note_on_c, 0, 72, 100
2, 164640, Note_on_c, 0, 73, 100
2, 164640, Note_on_c, 0, 60, 100
2, 164800, Note_on_c, 0, 108, 0
2, 165120, Note_on_c, 0, 108, 100
2, 167520, Note_on_c, 0, 108, 0
2, 168240, Note_on_c, 0, 96, 0
2, 168240, Note_on_c, 0, 97, 0
2, 168240, Note_on_c, 0, 84, 0
2, 168240, Note_on_c, 0, 85, 0
2, 168240, Note_on_c, 0, 72, 0
2, 168240, Note_on_c, 0, 73, 0
2, 168240, Note_on_c, 0, 60, 0
2, 168450, Note_on_c, 0, 106, 0
2, 168450, Note_on_c, 0, 94, 0
2, 168450, Note_on_c, 0, 70, 0
2, 168450, Note_on_c, 0, 82, 0
2, 168480, Note_on_c, 0, 97, 100
2, 168480, Note_on_c, 0, 99, 100
2, 168480, Note_on_c, 0, 85, 100
2, 168480, Note_on_c, 0, 87, 100
2, 168480, Note_on_c, 0, 73, 100
2, 168480, Note_on_c, 0, 75, 100
2, 168480, Note_on_c, 0, 61, 100
2, 169920, Note_on_c, 0, 108, 100
2, 170400, Note_on_c, 0, 108, 0
2, 170880, Note_on_c, 0, 108, 100
2, 171600, Note_on_c, 0, 108, 0
2, 171840, Note_on_c, 0, 108, 100
2, 172080, Note_on_c, 0, 97, 0
2, 172080, Note_on_c, 0, 99, 0
2, 172080, Note_on_c, 0, 85, 0
2, 172080, Note_on_c, 0, 87, 0
2, 172080, Note_on_c, 0, 73, 0
2, 172080, Note_on_c, 0, 75, 0
2, 172080, Note_on_c, 0, 61, 0
2, 172160, Note_on_c, 0, 108, 0
2, 172290, Note_on_c, 0, 105, 0
2, 172290, Note_on_c, 0, 93, 0
2, 172290, Note_on_c, 0, 69, 0
2, 172290, Note_on_c, 0, 81, 0
2, 172290, Note_on_c, 0, 106, 100
2, 172290, Note_on_c, 0, 94, 100
2, 172290, Note_on_c, 0, 70, 100
2, 172290, Note_on_c, 0, 82, 100
2, 172320, Note_on_c, 0, 100, 100
2, 172320, Note_on_c, 0, 98, 100
2, 172320, Note_on_c, 0, 87, 100
2, 172320, Note_on_c, 0, 86, 100
2, 172320, Note_on_c, 0, 75, 100
2, 172320, Note_on_c, 0, 74, 100
2, 172320, Note_on_c, 0, 62, 100
2, 172320, Note_on_c, 0, 108, 100
2, 173440, Note_on_c, 0, 108, 0
2, 173760, Note_on_c, 0, 108, 100
2, 174400, Note_on_c, 0, 108, 0
2, 174720, Note_on_c, 0, 108, 100
2, 175360, Note_on_c, 0, 108, 0
2, 175680, Note_on_c, 0, 108, 100
2, 175920, Note_on_c, 0, 100, 0
2, 175920, Note_on_c, 0, 98, 0
2, 175920, Note_on_c, 0, 87, 0
2, 175920, Note_on_c, 0, 86, 0
2, 175920, Note_on_c, 0, 75, 0
2, 175920, Note_on_c, 0, 74, 0
2, 175920, Note_on_c, 0, 62, 0
2, 176000, Note_on_c, 0, 108, 0
2, 176130, Note_on_c, 0, 105, 100
2, 176130, Note_on_c, 0, 103, 100
2, 176130, Note_on_c, 0, 91, 100
2, 176130, Note_on_c, 0, 81, 100
2, 176130, Note_on_c, 0, 67, 100
2, 176130, Note_on_c, 0, 93, 100
2, 176130, Note_on_c, 0, 69, 100
2, 176130, Note_on_c, 0, 81, 100
2, 176160, Note_on_c, 0, 97, 100
2, 176160, Note_on_c, 0, 85, 100
2, 176160, Note_on_c, 0, 72, 100
2, 176160, Note_on_c, 0, 74, 100
2, 176160, Note_on_c, 0, 60, 100
2, 176160, Note_on_c, 0, 108, 100
2, 176960, Note_on_c, 0, 108, 0
2, 177360, Note_on_c, 0, 97, 0
2, 177360, Note_on_c, 0, 85, 0
2, 177600, Note_on_c, 0, 99, 100
2, 177600, Note_on_c, 0, 87, 100
2, 177600, Note_on_c, 0, 108, 100
2, 178240, Note_on_c, 0, 108, 0
2, 178560, Note_on_c, 0, 108, 100
2, 178800, Note_on_c, 0, 99, 0
2, 178800, Note_on_c, 0, 87, 0
2, 179040, Note_on_c, 0, 97, 100
2, 179040, Note_on_c, 0, 85, 100
2, 179520, Note_on_c, 0, 108, 0
2, 179760, Note_on_c, 0, 72, 0
2, 179760, Note_on_c, 0, 74, 0
2, 179760, Note_on_c, 0, 60, 0
2, 179760, Note_on_c, 0, 97, 0
2, 179760, Note_on_c, 0, 85, 0
2, 180000, Note_on_c, 0, 98, 100
2, 180000, Note_on_c, 0, 86, 100
2, 180000, Note_on_c, 0, 73, 100
2, 180000, Note_on_c, 0, 74, 100
2, 180000, Note_on_c, 0, 61, 100
2, 180480, Note_on_c, 0, 108, 100
2, 181120, Note_on_c, 0, 108, 0
2, 181200, Note_on_c, 0, 98, 0
2, 181200, Note_on_c, 0, 86, 0
2, 181440, Note_on_c, 0, 100, 100
2, 181440, Note_on_c, 0, 88, 100
2, 181440, Note_on_c, 0, 108, 100
2, 181760, Note_on_c, 0, 108, 0
2, 181920, Note_on_c, 0, 108, 100
2, 182640, Note_on_c, 0, 100, 0
2, 182640, Note_on_c, 0, 88, 0
2, 182880, Note_on_c, 0, 108, 0
2, 182880, Note_on_c, 0, 98, 100
2, 182880, Note_on_c, 0, 86, 100
2, 183360, Note_on_c, 0, 108, 100
2, 183600, Note_on_c, 0, 73, 0
2, 183600, Note_on_c, 0, 74, 0
2, 183600, Note_on_c, 0, 61, 0
2, 183600, Note_on_c, 0, 98, 0
2, 183600, Note_on_c, 0, 86, 0
2, 183810, Note_on_c, 0, 106, 0
2, 183810, Note_on_c, 0, 94, 0
2, 183810, Note_on_c, 0, 70, 0
2, 183810, Note_on_c, 0, 82, 0
2, 183810, Note_on_c, 0, 103, 0
2, 183810, Note_on_c, 0, 91, 0
2, 183810, Note_on_c, 0, 81, 0
2, 183810, Note_on_c, 0, 67, 0
2, 183840, Note_on_c, 0, 97, 100
2, 183840, Note_on_c, 0, 99, 100
2, 183840, Note_on_c, 0, 85, 100
2, 183840, Note_on_c, 0, 87, 100
2, 183840, Note_on_c, 0, 73, 100
2, 183840, Note_on_c, 0, 75, 100
2, 183840, Note_on_c, 0, 61, 100
2, 184000, Note_on_c, 0, 108, 0
2, 184320, Note_on_c, 0, 108, 100
2, 185920, Note_on_c, 0, 108, 0
2, 186240, Note_on_c, 0, 108, 100
2, 187440, Note_on_c, 0, 97, 0
2, 187440, Note_on_c, 0, 99, 0
2, 187440, Note_on_c, 0, 85, 0
2, 187440, Note_on_c, 0, 87, 0
2, 187440, Note_on_c, 0, 73, 0
2, 187440, Note_on_c, 0, 75, 0
2, 187440, Note_on_c, 0, 61, 0
2, 187650, Note_on_c, 0, 105, 0
2, 187650, Note_on_c, 0, 93, 0
2, 187650, Note_on_c, 0, 69, 0
2, 187650, Note_on_c, 0, 81, 0
2, 187650, Note_on_c, 0, 106, 100
2, 187650, Note_on_c, 0, 94, 100
2, 187650, Note_on_c, 0, 70, 100
2, 187650, Note_on_c, 0, 82, 100
2, 187680, Note_on_c, 0, 100, 100
2, 187680, Note_on_c, 0, 98, 100
2, 187680, Note_on_c, 0, 87, 100
2, 187680, Note_on_c, 0, 86, 100
2, 187680, Note_on_c, 0, 75, 100
2, 187680, Note_on_c, 0, 74, 100
2, 187680, Note_on_c, 0, 62, 100
2, 188000, Note_on_c, 0, 108, 0
2, 188160, Note_on_c, 0, 108, 100
2, 189920, Note_on_c, 0, 108, 0
2, 190080, Note_on_c, 0, 108, 100
2, 190880, Note_on_c, 0, 108, 0
2, 191280, Note_on_c, 0, 100, 0
2, 191280, Note_on_c, 0, 98, 0
2, 191280, Note_on_c, 0, 87, 0
2, 191280, Note_on_c, 0, 86, 0
2, 191280, Note_on_c, 0, 75, 0
2, 191280, Note_on_c, 0, 74, 0
2, 191280, Note_on_c, 0, 62, 0
2, 191490, Note_on_c, 0, 106, 0
2, 191490, Note_on_c, 0, 94, 0
2, 191490, Note_on_c, 0, 70, 0
2, 191490, Note_on_c, 0, 82, 0
2, 191490, Note_on_c, 0, 105, 100
2, 191490, Note_on_c, 0, 93, 100
2, 191490, Note_on_c, 0, 69, 100
2, 191490, Note_on_c, 0, 81, 100
2, 191520, Note_on_c, 0, 96, 100
2, 191520, Note_on_c, 0, 98, 100
2, 191520, Note_on_c, 0, 84, 100
2, 191520, Note_on_c, 0, 86, 100
2, 191520, Note_on_c, 0, 72, 100
2, 191520, Note_on_c, 0, 74, 100
2, 191520, Note_on_c, 0, 61, 100
2, 192000, Note_on_c, 0, 108, 100
2, 193760, Note_on_c, 0, 108, 0
2, 193920, Note_on_c, 0, 108, 100
2, 195120, Note_on_c, 0, 96, 0
2, 195120, Note_on_c, 0, 98, 0
2, 195120, Note_on_c, 0, 84, 0
2, 195120, Note_on_c, 0, 86, 0
2, 195120, Note_on_c, 0, 72, 0
2, 195120, Note_on_c, 0, 74, 0
2, 195120, Note_on_c, 0, 61, 0
2, 195330, Note_on_c, 0, 106, 100
2, 195330, Note_on_c, 0, 94, 100
2, 195330, Note_on_c, 0, 70, 100
2, 195330, Note_on_c, 0, 82, 100
2, 195360, Note_on_c, 0, 96, 100
2, 195360, Note_on_c, 0, 97, 100
2, 195360, Note_on_c, 0, 84, 100
2, 195360, Note_on_c, 0, 85, 100
2, 195360, Note_on_c, 0, 72, 100
2, 195360, Note_on_c, 0, 73, 100
2, 195360, Note_on_c, 0, 60, 100
2, 195680, Note_on_c, 0, 108, 0
2, 195840, Note_on_c, 0, 108, 100
2, 197280, Note_on_c, 0, 108, 0
2, 197520, Note_on_c, 0, 96, 0
2, 197520, Note_on_c, 0, 97, 0
2, 197520, Note_on_c, 0, 84, 0
2, 197520, Note_on_c, 0, 85, 0
2, 197520, Note_on_c, 0, 72, 0
2, 197520, Note_on_c, 0, 73, 0
2, 197600, Note_on_c, 0, 108, 100
2, 197760, Note_on_c, 0, 99, 100
2, 197760, Note_on_c, 0, 84, 100
2, 197760, Note_on_c, 0, 72, 100
2, 198000, Note_on_c, 0, 99, 0
2, 198000, Note_on_c, 0, 84, 0
2, 198240, Note_on_c, 0, 98, 100
2, 198240, Note_on_c, 0, 84, 100
2, 198480, Note_on_c, 0, 98, 0
2, 198480, Note_on_c, 0, 84, 0
2, 198720, Note_on_c, 0, 97, 100
2, 198720, Note_on_c, 0, 84, 100
2, 198960, Note_on_c, 0, 60, 0
2, 198960, Note_on_c, 0, 72, 0
2, 198960, Note_on_c, 0, 97, 0
2, 198960, Note_on_c, 0, 84, 0
2, 199040, Note_on_c, 0, 108, 0
2, 199170, Note_on_c, 0, 105, 0
2, 199170, Note_on_c, 0, 93, 0
2, 199170, Note_on_c, 0, 69, 0
2, 199170, Note_on_c, 0, 81, 0
2, 199200, Note_on_c, 0, 96, 100
2, 199200, Note_on_c, 0, 98, 100
2, 199200, Note_on_c, 0, 84, 100
2, 199200, Note_on_c, 0, 86, 100
2, 199200, Note_on_c, 0, 72, 100
2, 199200, Note_on_c, 0, 60, 100
2, 199360, Note_on_c, 0, 108, 100
2, 200400, Note_on_c, 0, 72, 0
2, 200400, Note_on_c, 0, 60, 0
2, 200640, Note_on_c, 0, 96, 0
2, 200640, Note_on_c, 0, 98, 0
2, 200640, Note_on_c, 0, 84, 0
2, 200640, Note_on_c, 0, 86, 0
2, 200640, Note_on_c, 0, 96, 100
2, 200640, Note_on_c, 0, 98, 100
2, 200640, Note_on_c, 0, 84, 100
2, 200640, Note_on_c, 0, 86, 100
2, 200640, Note_on_c, 0, 72, 100
2, 200640, Note_on_c, 0, 60, 100
2, 200880, Note_on_c, 0, 96, 0
2, 200880, Note_on_c, 0, 98, 0
2, 200880, Note_on_c, 0, 84, 0
2, 200880, Note_on_c, 0, 86, 0
2, 200880, Note_on_c, 0, 72, 0
2, 200880, Note_on_c, 0, 60, 0
2, 201120, Note_on_c, 0, 96, 100
2, 201120, Note_on_c, 0, 98, 100
2, 201120, Note_on_c, 0, 84, 100
2, 201120, Note_on_c, 0, 86, 100
2, 201120, Note_on_c, 0, 72, 100
2, 201360, Note_on_c, 0, 96, 0
2, 201360, Note_on_c, 0, 98, 0
2, 201360, Note_on_c, 0, 84, 0
2, 201360, Note_on_c, 0, 86, 0
2, 201360, Note_on_c, 0, 72, 0
2, 201440, Note_on_c, 0, 108, 0
2, 201600, Note_on_c, 0, 96, 100
2, 201600, Note_on_c, 0, 98, 100
2, 201600, Note_on_c, 0, 84, 100
2, 201600, Note_on_c, 0, 86, 100
2, 201600, Note_on_c, 0, 72, 100
2, 201600, Note_on_c, 0, 60, 100
2, 201840, Note_on_c, 0, 96, 0
2, 201840, Note_on_c, 0, 98, 0
2, 201840, Note_on_c, 0, 84, 0
2, 201840, Note_on_c, 0, 86, 0
2, 201840, Note_on_c, 0, 72, 0
2, 201840, Note_on_c, 0, 60, 0
2, 202080, Note_on_c, 0, 96, 100
2, 202080, Note_on_c, 0, 98, 100
2, 202080, Note_on_c, 0, 84, 100
2, 202080, Note_on_c, 0, 86, 100
2, 202080, Note_on_c, 0, 72, 100
2, 202320, Note_on_c, 0, 96, 0
2, 202320, Note_on_c, 0, 98, 0
2, 202320, Note_on_c, 0, 84, 0
2, 202320, Note_on_c, 0, 86, 0
2, 202320, Note_on_c, 0, 72, 0
2, 202560, Note_on_c, 0, 96, 100
2, 202560, Note_on_c, 0, 98, 100
2, 202560, Note_on_c, 0, 84, 100
2, 202560, Note_on_c, 0, 86, 100
2, 202560, Note_on_c, 0, 72, 100
2, 202560, Note_on_c, 0, 60, 100
2, 202800, Note_on_c, 0, 96, 0
2, 202800, Note_on_c, 0, 98, 0
2, 202800, Note_on_c, 0, 84, 0
2, 202800, Note_on_c, 0, 86, 0
2, 202800, Note_on_c, 0, 72, 0
2, 202800, Note_on_c, 0, 60, 0
2, 203040, Note_on_c, 0, 96, 100
2, 203040, Note_on_c, 0, 98, 100
2, 203040, Note_on_c, 0, 84, 100
2, 203040, Note_on_c, 0, 86, 100
2, 203040, Note_on_c, 0, 72, 100
2, 203280, Note_on_c, 0, 96, 0
2, 203280, Note_on_c, 0, 98, 0
2, 203280, Note_on_c, 0, 84, 0
2, 203280, Note_on_c, 0, 86, 0
2, 203280, Note_on_c, 0, 72, 0
2, 203520, Note_on_c, 0, 96, 100
2, 203520, Note_on_c, 0, 98, 100
2, 203520, Note_on_c, 0, 84, 100
2, 203520, Note_on_c, 0, 86, 100
2, 203520, Note_on_c, 0, 72, 100
2, 203520, Note_on_c, 0, 60, 100
2, 203760, Note_on_c, 0, 96, 0
2, 203760, Note_on_c, 0, 98, 0
2, 203760, Note_on_c, 0, 84, 0
2, 203760, Note_on_c, 0, 86, 0
2, 203760, Note_on_c, 0, 72, 0
2, 203760, Note_on_c, 0, 60, 0
2, 204000, Note_on_c, 0, 96, 100
2, 204000, Note_on_c, 0, 98, 100
2, 204000, Note_on_c, 0, 84, 100
2, 204000, Note_on_c, 0, 86, 100
2, 204000, Note_on_c, 0, 72, 100
2, 204240, Note_on_c, 0, 96, 0
2, 204240, Note_on_c, 0, 98, 0
2, 204240, Note_on_c, 0, 84, 0
2, 204240, Note_on_c, 0, 86, 0
2, 204240, Note_on_c, 0, 72, 0
2, 204480, Note_on_c, 0, 96, 100
2, 204480, Note_on_c, 0, 98, 100
2, 204480, Note_on_c, 0, 84, 100
2, 204480, Note_on_c, 0, 86, 100
2, 204480, Note_on_c, 0, 72, 100
2, 204480, Note_on_c, 0, 60, 100
2, 204720, Note_on_c, 0, 96, 0
2, 204720, Note_on_c, 0, 98, 0
2, 204720, Note_on_c, 0, 84, 0
2, 204720, Note_on_c, 0, 86, 0
2, 204720, Note_on_c, 0, 72, 0
2, 204720, Note_on_c, 0, 60, 0
2, 204960, Note_on_c, 0, 96, 100
2, 204960, Note_on_c, 0, 98, 100
2, 204960, Note_on_c, 0, 84, 100
2, 204960, Note_on_c, 0, 86, 100
2, 204960, Note_on_c, 0, 72, 100
2, 205200, Note_on_c, 0, 96, 0
2, 205200, Note_on_c, 0, 98, 0
2, 205200, Note_on_c, 0, 84, 0
2, 205200, Note_on_c, 0, 86, 0
2, 205200, Note_on_c, 0, 72, 0
2, 205440, Note_on_c, 0, 96, 100
2, 205440, Note_on_c, 0, 98, 100
2, 205440, Note_on_c, 0, 84, 100
2, 205440, Note_on_c, 0, 86, 100
2, 205440, Note_on_c, 0, 72, 100
2, 205440, Note_on_c, 0, 60, 100
2, 205680, Note_on_c, 0, 96, 0
2, 205680, Note_on_c, 0, 98, 0
2, 205680, Note_on_c, 0, 84, 0
2, 205680, Note_on_c, 0, 86, 0
2, 205680, Note_on_c, 0, 72, 0
2, 205680, Note_on_c, 0, 60, 0
2, 205920, Note_on_c, 0, 96, 100
2, 205920, Note_on_c, 0, 98, 100
2, 205920, Note_on_c, 0, 84, 100
2, 205920, Note_on_c, 0, 86, 100
2, 205920, Note_on_c, 0, 72, 100
2, 206160, Note_on_c, 0, 96, 0
2, 206160, Note_on_c, 0, 98, 0
2, 206160, Note_on_c, 0, 84, 0
2, 206160, Note_on_c, 0, 86, 0
2, 206160, Note_on_c, 0, 72, 0
2, 206400, Note_on_c, 0, 96, 100
2, 206400, Note_on_c, 0, 98, 100
2, 206400, Note_on_c, 0, 84, 100
2, 206400, Note_on_c, 0, 86, 100
2, 206400, Note_on_c, 0, 72, 100
2, 206640, Note_on_c, 0, 96, 0
2, 206640, Note_on_c, 0, 98, 0
2, 206640, Note_on_c, 0, 84, 0
2, 206640, Note_on_c, 0, 86, 0
2, 206640, Note_on_c, 0, 72, 0
2, 206880, Note_on_c, 0, 97, 100
2, 206880, Note_on_c, 0, 99, 100
2, 206880, Note_on_c, 0, 85, 100
2, 206880, Note_on_c, 0, 87, 100
2, 206880, Note_on_c, 0, 73, 100
2, 206880, Note_on_c, 0, 61, 100
2, 207330, Text_t, "[verse]"
2, 207600, Note_on_c, 0, 73, 0
2, 207840, Note_on_c, 0, 97, 0
2, 207840, Note_on_c, 0, 99, 0
2, 207840, Note_on_c, 0, 85, 0
2, 207840, Note_on_c, 0, 87, 0
2, 207840, Note_on_c, 0, 97, 100
2, 207840, Note_on_c, 0, 99, 100
2, 207840, Note_on_c, 0, 85, 100
2, 207840, Note_on_c, 0, 87, 100
2, 207840, Note_on_c, 0, 73, 100
2, 208080, Note_on_c, 0, 61, 0
2, 208080, Note_on_c, 0, 97, 0
2, 208080, Note_on_c, 0, 99, 0
2, 208080, Note_on_c, 0, 85, 0
2, 208080, Note_on_c, 0, 87, 0
2, 208080, Note_on_c, 0, 73, 0
2, 208320, Note_on_c, 0, 97, 100
2, 208320, Note_on_c, 0, 99, 100
2, 208320, Note_on_c, 0, 85, 100
2, 208320, Note_on_c, 0, 87, 100
2, 208320, Note_on_c, 0, 73, 100
2, 208320, Note_on_c, 0, 61, 100
2, 208560, Note_on_c, 0, 97, 0
2, 208560, Note_on_c, 0, 99, 0
2, 208560, Note_on_c, 0, 85, 0
2, 208560, Note_on_c, 0, 87, 0
2, 208560, Note_on_c, 0, 73, 0
2, 208560, Note_on_c, 0, 61, 0
2, 208800, Note_on_c, 0, 97, 100
2, 208800, Note_on_c, 0, 99, 100
2, 208800, Note_on_c, 0, 85, 100
2, 208800, Note_on_c, 0, 87, 100
2, 208800, Note_on_c, 0, 73, 100
2, 209040, Note_on_c, 0, 97, 0
2, 209040, Note_on_c, 0, 99, 0
2, 209040, Note_on_c, 0, 85, 0
2, 209040, Note_on_c, 0, 87, 0
2, 209040, Note_on_c, 0, 73, 0
2, 209250, Text_t, "sing_off"
2, 209280, Note_on_c, 0, 97, 100
2, 209280, Note_on_c, 0, 99, 100
2, 209280, Note_on_c, 0, 85, 100
2, 209280, Note_on_c, 0, 87, 100
2, 209280, Note_on_c, 0, 73, 100
2, 209280, Note_on_c, 0, 61, 100
2, 209520, Note_on_c, 0, 97, 0
2, 209520, Note_on_c, 0, 99, 0
2, 209520, Note_on_c, 0, 85, 0
2, 209520, Note_on_c, 0, 87, 0
2, 209520, Note_on_c, 0, 73, 0
2, 209520, Note_on_c, 0, 61, 0
2, 209760, Note_on_c, 0, 97, 100
2, 209760, Note_on_c, 0, 99, 100
2, 209760, Note_on_c, 0, 85, 100
2, 209760, Note_on_c, 0, 87, 100
2, 209760, Note_on_c, 0, 73, 100
2, 210000, Note_on_c, 0, 97, 0
2, 210000, Note_on_c, 0, 99, 0
2, 210000, Note_on_c, 0, 85, 0
2, 210000, Note_on_c, 0, 87, 0
2, 210000, Note_on_c, 0, 73, 0
2, 210240, Note_on_c, 0, 97, 100
2, 210240, Note_on_c, 0, 99, 100
2, 210240, Note_on_c, 0, 85, 100
2, 210240, Note_on_c, 0, 87, 100
2, 210240, Note_on_c, 0, 73, 100
2, 210240, Note_on_c, 0, 61, 100
2, 210480, Note_on_c, 0, 97, 0
2, 210480, Note_on_c, 0, 99, 0
2, 210480, Note_on_c, 0, 85, 0
2, 210480, Note_on_c, 0, 87, 0
2, 210480, Note_on_c, 0, 73, 0
2, 210480, Note_on_c, 0, 61, 0
2, 210720, Note_on_c, 0, 97, 100
2, 210720, Note_on_c, 0, 99, 100
2, 210720, Note_on_c, 0, 85, 100
2, 210720, Note_on_c, 0, 87, 100
2, 210720, Note_on_c, 0, 73, 100
2, 210960, Note_on_c, 0, 97, 0
2, 210960, Note_on_c, 0, 99, 0
2, 210960, Note_on_c, 0, 85, 0
2, 210960, Note_on_c, 0, 87, 0
2, 210960, Note_on_c, 0, 73, 0
2, 211170, Note_on_c, 0, 105, 100
2, 211170, Note_on_c, 0, 93, 100
2, 211170, Note_on_c, 0, 69, 100
2, 211170, Note_on_c, 0, 81, 100
2, 211200, Note_on_c, 0, 98, 100
2, 211200, Note_on_c, 0, 86, 100
2, 211200, Note_on_c, 0, 73, 100
2, 211200, Note_on_c, 0, 62, 100
2, 211440, Note_on_c, 0, 98, 0
2, 211440, Note_on_c, 0, 86, 0
2, 211440, Note_on_c, 0, 73, 0
2, 211440, Note_on_c, 0, 62, 0
2, 211680, Note_on_c, 0, 99, 100
2, 211680, Note_on_c, 0, 87, 100
2, 211680, Note_on_c, 0, 74, 100
2, 211920, Note_on_c, 0, 99, 0
2, 211920, Note_on_c, 0, 87, 0
2, 211920, Note_on_c, 0, 74, 0
2, 212160, Note_on_c, 0, 96, 100
2, 212160, Note_on_c, 0, 98, 100
2, 212160, Note_on_c, 0, 84, 100
2, 212160, Note_on_c, 0, 72, 100
2, 212400, Note_on_c, 0, 96, 0
2, 212400, Note_on_c, 0, 98, 0
2, 212400, Note_on_c, 0, 84, 0
2, 212400, Note_on_c, 0, 72, 0
2, 212640, Note_on_c, 0, 96, 100
2, 212640, Note_on_c, 0, 98, 100
2, 212640, Note_on_c, 0, 84, 100
2, 212640, Note_on_c, 0, 72, 100
2, 212880, Note_on_c, 0, 96, 0
2, 212880, Note_on_c, 0, 98, 0
2, 212880, Note_on_c, 0, 84, 0
2, 212880, Note_on_c, 0, 72, 0
2, 213090, Note_on_c, 0, 106, 0
2, 213090, Note_on_c, 0, 94, 0
2, 213090, Note_on_c, 0, 70, 0
2, 213090, Note_on_c, 0, 82, 0
2, 213120, Note_on_c, 0, 99, 100
2, 213120, Note_on_c, 0, 87, 100
2, 213120, Note_on_c, 0, 74, 100
2, 213120, Note_on_c, 0, 62, 100
2, 213360, Note_on_c, 0, 99, 0
2, 213360, Note_on_c, 0, 87, 0
2, 213360, Note_on_c, 0, 74, 0
2, 213360, Note_on_c, 0, 62, 0
2, 213600, Note_on_c, 0, 98, 100
2, 213600, Note_on_c, 0, 86, 100
2, 213600, Note_on_c, 0, 73, 100
2, 213840, Note_on_c, 0, 98, 0
2, 213840, Note_on_c, 0, 86, 0
2, 213840, Note_on_c, 0, 73, 0
2, 214080, Note_on_c, 0, 97, 100
2, 214320, Note_on_c, 0, 97, 0
2, 214560, Note_on_c, 0, 96, 100
2, 214560, Note_on_c, 0, 98, 100
2, 214560, Note_on_c, 0, 84, 100
2, 214560, Note_on_c, 0, 86, 100
2, 214560, Note_on_c, 0, 72, 100
2, 214560, Note_on_c, 0, 60, 100
2, 215760, Note_on_c, 0, 72, 0
2, 215760, Note_on_c, 0, 60, 0
2, 216000, Note_on_c, 0, 96, 0
2, 216000, Note_on_c, 0, 98, 0
2, 216000, Note_on_c, 0, 84, 0
2, 216000, Note_on_c, 0, 86, 0
2, 216000, Note_on_c, 0, 96, 100
2, 216000, Note_on_c, 0, 98, 100
2, 216000, Note_on_c, 0, 84, 100
2, 216000, Note_on_c, 0, 86, 100
2, 216000, Note_on_c, 0, 72, 100
2, 216000, Note_on_c, 0, 60, 100
2, 216240, Note_on_c, 0, 96, 0
2, 216240, Note_on_c, 0, 98, 0
2, 216240, Note_on_c, 0, 84, 0
2, 216240, Note_on_c, 0, 86, 0
2, 216240, Note_on_c, 0, 72, 0
2, 216240, Note_on_c, 0, 60, 0
2, 216480, Note_on_c, 0, 96, 100
2, 216480, Note_on_c, 0, 98, 100
2, 216480, Note_on_c, 0, 84, 100
2, 216480, Note_on_c, 0, 86, 100
2, 216480, Note_on_c, 0, 72, 100
2, 216720, Note_on_c, 0, 96, 0
2, 216720, Note_on_c, 0, 98, 0
2, 216720, Note_on_c, 0, 84, 0
2, 216720, Note_on_c, 0, 86, 0
2, 216720, Note_on_c, 0, 72, 0
2, 216960, Note_on_c, 0, 96, 100
2, 216960, Note_on_c, 0, 98, 100
2, 216960, Note_on_c, 0, 84, 100
2, 216960, Note_on_c, 0, 86, 100
2, 216960, Note_on_c, 0, 72, 100
2, 216960, Note_on_c, 0, 60, 100
2, 217200, Note_on_c, 0, 96, 0
2, 217200, Note_on_c, 0, 98, 0
2, 217200, Note_on_c, 0, 84, 0
2, 217200, Note_on_c, 0, 86, 0
2, 217200, Note_on_c, 0, 72, 0
2, 217200, Note_on_c, 0, 60, 0
2, 217440, Note_on_c, 0, 96, 100
2, 217440, Note_on_c, 0, 98, 100
2, 217440, Note_on_c, 0, 84, 100
2, 217440, Note_on_c, 0, 86, 100
2, 217440, Note_on_c, 0, 72, 100
2, 217680, Note_on_c, 0, 96, 0
2, 217680, Note_on_c, 0, 98, 0
2, 217680, Note_on_c, 0, 84, 0
2, 217680, Note_on_c, 0, 86, 0
2, 217680, Note_on_c, 0, 72, 0
2, 217920, Note_on_c, 0, 96, 100
2, 217920, Note_on_c, 0, 98, 100
2, 217920, Note_on_c, 0, 84, 100
2, 217920, Note_on_c, 0, 86, 100
2, 217920, Note_on_c, 0, 72, 100
2, 217920, Note_on_c, 0, 60, 100
2, 218160, Note_on_c, 0, 96, 0
2, 218160, Note_on_c, 0, 98, 0
2, 218160, Note_on_c, 0, 84, 0
2, 218160, Note_on_c, 0, 86, 0
2, 218160, Note_on_c, 0, 72, 0
2, 218160, Note_on_c, 0, 60, 0
2, 218400, Note_on_c, 0, 96, 100
2, 218400, Note_on_c, 0, 98, 100
2, 218400, Note_on_c, 0, 84, 100
2, 218400, Note_on_c, 0, 86, 100
2, 218400, Note_on_c, 0, 72, 100
2, 218640, Note_on_c, 0, 96, 0
2, 218640, Note_on_c, 0, 98, 0
2, 218640, Note_on_c, 0, 84, 0
2, 218640, Note_on_c, 0, 86, 0
2, 218640, Note_on_c, 0, 72, 0
2, 218880, Note_on_c, 0, 96, 100
2, 218880, Note_on_c, 0, 98, 100
2, 218880, Note_on_c, 0, 84, 100
2, 218880, Note_on_c, 0, 86, 100
2, 218880, Note_on_c, 0, 72, 100
2, 218880, Note_on_c, 0, 60, 100
2, 219120, Note_on_c, 0, 96, 0
2, 219120, Note_on_c, 0, 98, 0
2, 219120, Note_on_c, 0, 84, 0
2, 219120, Note_on_c, 0, 86, 0
2, 219120, Note_on_c, 0, 72, 0
2, 219120, Note_on_c, 0, 60, 0
2, 219360, Note_on_c, 0, 96, 100
2, 219360, Note_on_c, 0, 98, 100
2, 219360, Note_on_c, 0, 84, 100
2, 219360, Note_on_c, 0, 86, 100
2, 219360, Note_on_c, 0, 72, 100
2, 219600, Note_on_c, 0, 96, 0
2, 219600, Note_on_c, 0, 98, 0
2, 219600, Note_on_c, 0, 84, 0
2, 219600, Note_on_c, 0, 86, 0
2, 219600, Note_on_c, 0, 72, 0
2, 219840, Note_on_c, 0, 96, 100
2, 219840, Note_on_c, 0, 98, 100
2, 219840, Note_on_c, 0, 84, 100
2, 219840, Note_on_c, 0, 86, 100
2, 219840, Note_on_c, 0, 72, 100
2, 219840, Note_on_c, 0, 60, 100
2, 220080, Note_on_c, 0, 96, 0
2, 220080, Note_on_c, 0, 98, 0
2, 220080, Note_on_c, 0, 84, 0
2, 220080, Note_on_c, 0, 86, 0
2, 220080, Note_on_c, 0, 72, 0
2, 220080, Note_on_c, 0, 60, 0
2, 220320, Note_on_c, 0, 96, 100
2, 220320, Note_on_c, 0, 98, 100
2, 220320, Note_on_c, 0, 84, 100
2, 220320, Note_on_c, 0, 86, 100
2, 220320, Note_on_c, 0, 72, 100
2, 220560, Note_on_c, 0, 96, 0
2, 220560, Note_on_c, 0, 98, 0
2, 220560, Note_on_c, 0, 84, 0
2, 220560, Note_on_c, 0, 86, 0
2, 220560, Note_on_c, 0, 72, 0
2, 220800, Note_on_c, 0, 96, 100
2, 220800, Note_on_c, 0, 98, 100
2, 220800, Note_on_c, 0, 84, 100
2, 220800, Note_on_c, 0, 86, 100
2, 220800, Note_on_c, 0, 72, 100
2, 220800, Note_on_c, 0, 60, 100
2, 221040, Note_on_c, 0, 96, 0
2, 221040, Note_on_c, 0, 98, 0
2, 221040, Note_on_c, 0, 84, 0
2, 221040, Note_on_c, 0, 86, 0
2, 221040, Note_on_c, 0, 72, 0
2, 221040, Note_on_c, 0, 60, 0
2, 221280, Note_on_c, 0, 96, 100
2, 221280, Note_on_c, 0, 98, 100
2, 221280, Note_on_c, 0, 84, 100
2, 221280, Note_on_c, 0, 86, 100
2, 221280, Note_on_c, 0, 72, 100
2, 221520, Note_on_c, 0, 96, 0
2, 221520, Note_on_c, 0, 98, 0
2, 221520, Note_on_c, 0, 84, 0
2, 221520, Note_on_c, 0, 86, 0
2, 221520, Note_on_c, 0, 72, 0
2, 221760, Note_on_c, 0, 96, 100
2, 221760, Note_on_c, 0, 98, 100
2, 221760, Note_on_c, 0, 84, 100
2, 221760, Note_on_c, 0, 86, 100
2, 221760, Note_on_c, 0, 72, 100
2, 222000, Note_on_c, 0, 96, 0
2, 222000, Note_on_c, 0, 98, 0
2, 222000, Note_on_c, 0, 84, 0
2, 222000, Note_on_c, 0, 86, 0
2, 222000, Note_on_c, 0, 72, 0
2, 222210, Note_on_c, 0, 106, 100
2, 222210, Note_on_c, 0, 94, 100
2, 222210, Note_on_c, 0, 70, 100
2, 222210, Note_on_c, 0, 82, 100
2, 222240, Note_on_c, 0, 97, 100
2, 222240, Note_on_c, 0, 85, 100
2, 222240, Note_on_c, 0, 73, 100
2, 222240, Note_on_c, 0, 60, 100
2, 223200, Note_on_c, 0, 97, 0
2, 223200, Note_on_c, 0, 85, 0
2, 223200, Note_on_c, 0, 73, 0
2, 223200, Note_on_c, 0, 60, 0
2, 223200, Note_on_c, 0, 98, 100
2, 223200, Note_on_c, 0, 86, 100
2, 223440, Note_on_c, 0, 98, 0
2, 223440, Note_on_c, 0, 86, 0
2, 223680, Note_on_c, 0, 99, 100
2, 223680, Note_on_c, 0, 87, 100
2, 223680, Note_on_c, 0, 74, 100
2, 223920, Note_on_c, 0, 99, 0
2, 223920, Note_on_c, 0, 87, 0
2, 223920, Note_on_c, 0, 74, 0
2, 224160, Note_on_c, 0, 100, 100
2, 224160, Note_on_c, 0, 88, 100
2, 224160, Note_on_c, 0, 75, 100
2, 224160, Note_on_c, 0, 62, 100
2, 225120, Note_on_c, 0, 100, 0
2, 225120, Note_on_c, 0, 88, 0
2, 225120, Note_on_c, 0, 75, 0
2, 225120, Note_on_c, 0, 62, 0
2, 225120, Note_on_c, 0, 99, 100
2, 225120, Note_on_c, 0, 87, 100
2, 225360, Note_on_c, 0, 99, 0
2, 225360, Note_on_c, 0, 87, 0
2, 225600, Note_on_c, 0, 98, 100
2, 225600, Note_on_c, 0, 86, 100
2, 225600, Note_on_c, 0, 74, 100
2, 225840, Note_on_c, 0, 98, 0
2, 225840, Note_on_c, 0, 86, 0
2, 225840, Note_on_c, 0, 74, 0
2, 226080, Note_on_c, 0, 97, 100
2, 226080, Note_on_c, 0, 85, 100
2, 226080, Note_on_c, 0, 73, 100
2, 226080, Note_on_c, 0, 60, 100
2, 227040, Note_on_c, 0, 97, 0
2, 227040, Note_on_c, 0, 85, 0
2, 227040, Note_on_c, 0, 73, 0
2, 227040, Note_on_c, 0, 60, 0
2, 227040, Note_on_c, 0, 98, 100
2, 227040, Note_on_c, 0, 86, 100
2, 227280, Note_on_c, 0, 98, 0
2, 227280, Note_on_c, 0, 86, 0
2, 227520, Note_on_c, 0, 100, 100
2, 227520, Note_on_c, 0, 88, 100
2, 227520, Note_on_c, 0, 75, 100
2, 227760, Note_on_c, 0, 100, 0
2, 227760, Note_on_c, 0, 88, 0
2, 227760, Note_on_c, 0, 75, 0
2, 228000, Note_on_c, 0, 99, 100
2, 228000, Note_on_c, 0, 87, 100
2, 228000, Note_on_c, 0, 74, 100
2, 228000, Note_on_c, 0, 61, 100
2, 228960, Note_on_c, 0, 99, 0
2, 228960, Note_on_c, 0, 87, 0
2, 228960, Note_on_c, 0, 74, 0
2, 228960, Note_on_c, 0, 61, 0
2, 228960, Note_on_c, 0, 98, 100
2, 228960, Note_on_c, 0, 86, 100
2, 229200, Note_on_c, 0, 98, 0
2, 229200, Note_on_c, 0, 86, 0
2, 229440, Note_on_c, 0, 97, 100
2, 229440, Note_on_c, 0, 85, 100
2, 229440, Note_on_c, 0, 73, 100
2, 229680, Note_on_c, 0, 97, 0
2, 229680, Note_on_c, 0, 85, 0
2, 229680, Note_on_c, 0, 73, 0
2, 229920, Note_on_c, 0, 96, 100
2, 229920, Note_on_c, 0, 84, 100
2, 229920, Note_on_c, 0, 72, 100
2, 229920, Note_on_c, 0, 60, 100
2, 230160, Note_on_c, 0, 96, 0
2, 230160, Note_on_c, 0, 84, 0
2, 230160, Note_on_c, 0, 72, 0
2, 230160, Note_on_c, 0, 60, 0
2, 230370, Note_on_c, 0, 105, 0
2, 230370, Note_on_c, 0, 93, 0
2, 230370, Note_on_c, 0, 69, 0
2, 230370, Note_on_c, 0, 81, 0
2, 230880, Note_on_c, 0, 96, 100
2, 230880, Note_on_c, 0, 84, 100
2, 231120, Note_on_c, 0, 96, 0
2, 231120, Note_on_c, 0, 84, 0
2, 231360, Note_on_c, 0, 98, 100
2, 231360, Note_on_c, 0, 86, 100
2, 231360, Note_on_c, 0, 72, 100
2, 231360, Note_on_c, 0, 60, 100
2, 231360, Note_on_c, 0, 108, 100
2, 231600, Note_on_c, 0, 98, 0
2, 231600, Note_on_c, 0, 86, 0
2, 231600, Note_on_c, 0, 72, 0
2, 231600, Note_on_c, 0, 60, 0
2, 231840, Note_on_c, 0, 96, 100
2, 231840, Note_on_c, 0, 84, 100
2, 232080, Note_on_c, 0, 108, 0
2, 232080, Note_on_c, 0, 96, 0
2, 232080, Note_on_c, 0, 84, 0
2, 232320, Note_on_c, 0, 97, 100
2, 232320, Note_on_c, 0, 85, 100
2, 232320, Note_on_c, 0, 73, 100
2, 232320, Note_on_c, 0, 61, 100
2, 232320, Note_on_c, 0, 108, 100
2, 232560, Note_on_c, 0, 97, 0
2, 232560, Note_on_c, 0, 85, 0
2, 232560, Note_on_c, 0, 73, 0
2, 232560, Note_on_c, 0, 61, 0
2, 232800, Note_on_c, 0, 108, 0
2, 232800, Note_on_c, 0, 98, 100
2, 232800, Note_on_c, 0, 86, 100
2, 232800, Note_on_c, 0, 74, 100
2, 233040, Note_on_c, 0, 98, 0
2, 233040, Note_on_c, 0, 86, 0
2, 233040, Note_on_c, 0, 74, 0
2, 233280, Note_on_c, 0, 96, 100
2, 233280, Note_on_c, 0, 84, 100
2, 233280, Note_on_c, 0, 60, 100
2, 233280, Note_on_c, 0, 72, 100
2, 233280, Note_on_c, 0, 108, 100
2, 233520, Note_on_c, 0, 96, 0
2, 233520, Note_on_c, 0, 84, 0
2, 233520, Note_on_c, 0, 60, 0
2, 233520, Note_on_c, 0, 72, 0
2, 233760, Note_on_c, 0, 96, 100
2, 233760, Note_on_c, 0, 84, 100
2, 234000, Note_on_c, 0, 108, 0
2, 234000, Note_on_c, 0, 96, 0
2, 234000, Note_on_c, 0, 84, 0
2, 234240, Note_on_c, 0, 98, 100
2, 234240, Note_on_c, 0, 86, 100
2, 234240, Note_on_c, 0, 74, 100
2, 234240, Note_on_c, 0, 62, 100
2, 234240, Note_on_c, 0, 108, 100
2, 234480, Note_on_c, 0, 98, 0
2, 234480, Note_on_c, 0, 86, 0
2, 234480, Note_on_c, 0, 74, 0
2, 234480, Note_on_c, 0, 62, 0
2, 234720, Note_on_c, 0, 97, 100
2, 234720, Note_on_c, 0, 85, 100
2, 234960, Note_on_c, 0, 97, 0
2, 234960, Note_on_c, 0, 85, 0
2, 235200, Note_on_c, 0, 96, 100
2, 235200, Note_on_c, 0, 84, 100
2, 235200, Note_on_c, 0, 72, 100
2, 235200, Note_on_c, 0, 60, 100
2, 235440, Note_on_c, 0, 108, 0
2, 235440, Note_on_c, 0, 96, 0
2, 235440, Note_on_c, 0, 84, 0
2, 235440, Note_on_c, 0, 72, 0
2, 235440, Note_on_c, 0, 60, 0
2, 235680, Note_on_c, 0, 99, 100
2, 235680, Note_on_c, 0, 87, 100
2, 235680, Note_on_c, 0, 74, 100
2, 235680, Note_on_c, 0, 108, 100
2, 235920, Note_on_c, 0, 99, 0
2, 235920, Note_on_c, 0, 87, 0
2, 235920, Note_on_c, 0, 74, 0
2, 236160, Note_on_c, 0, 62, 100
2, 236400, Note_on_c, 0, 62, 0
2, 236640, Note_on_c, 0, 98, 100
2, 236640, Note_on_c, 0, 86, 100
2, 236640, Note_on_c, 0, 74, 100
2, 236880, Note_on_c, 0, 108, 0
2, 236880, Note_on_c, 0, 98, 0
2, 236880, Note_on_c, 0, 86, 0
2, 236880, Note_on_c, 0, 74, 0
2, 237120, Note_on_c, 0, 96, 100
2, 237120, Note_on_c, 0, 84, 100
2, 237120, Note_on_c, 0, 108, 100
2, 237360, Note_on_c, 0, 96, 0
2, 237360, Note_on_c, 0, 84, 0
2, 237570, Note_on_c, 0, 106, 0
2, 237570, Note_on_c, 0, 94, 0
2, 237570, Note_on_c, 0, 70, 0
2, 237570, Note_on_c, 0, 82, 0
2, 237570, Note_on_c, 0, 105, 100
2, 237570, Note_on_c, 0, 93, 100
2, 237570, Note_on_c, 0, 69, 100
2, 237570, Note_on_c, 0, 81, 100
2, 237600, Note_on_c, 0, 97, 100
2, 237600, Note_on_c, 0, 85, 100
2, 237600, Note_on_c, 0, 73, 100
2, 237600, Note_on_c, 0, 61, 100
2, 237840, Note_on_c, 0, 97, 0
2, 237840, Note_on_c, 0, 85, 0
2, 237840, Note_on_c, 0, 73, 0
2, 237840, Note_on_c, 0, 61, 0
2, 238050, Text_t, "sing_on"
2, 238560, Note_on_c, 0, 97, 100
2, 238560, Note_on_c, 0, 85, 100
2, 238560, Note_on_c, 0, 73, 100
2, 238800, Note_on_c, 0, 97, 0
2, 238800, Note_on_c, 0, 85, 0
2, 238800, Note_on_c, 0, 73, 0
2, 238880, Note_on_c, 0, 108, 0
2, 239040, Note_on_c, 0, 98, 100
2, 239040, Note_on_c, 0, 86, 100
2, 239040, Note_on_c, 0, 74, 100
2, 239040, Note_on_c, 0, 62, 100
2, 239280, Note_on_c, 0, 98, 0
2, 239280, Note_on_c, 0, 86, 0
2, 239280, Note_on_c, 0, 74, 0
2, 239280, Note_on_c, 0, 62, 0
2, 239520, Note_on_c, 0, 97, 100
2, 239520, Note_on_c, 0, 85, 100
2, 239520, Note_on_c, 0, 73, 100
2, 239760, Note_on_c, 0, 97, 0
2, 239760, Note_on_c, 0, 85, 0
2, 239760, Note_on_c, 0, 73, 0
2, 240000, Note_on_c, 0, 97, 100
2, 240000, Note_on_c, 0, 85, 100
2, 240000, Note_on_c, 0, 61, 100
2, 240000, Note_on_c, 0, 108, 100
2, 240240, Note_on_c, 0, 97, 0
2, 240240, Note_on_c, 0, 85, 0
2, 240240, Note_on_c, 0, 61, 0
2, 240480, Note_on_c, 0, 99, 100
2, 240480, Note_on_c, 0, 87, 100
2, 240480, Note_on_c, 0, 75, 100
2, 240720, Note_on_c, 0, 108, 0
2, 240720, Note_on_c, 0, 99, 0
2, 240720, Note_on_c, 0, 87, 0
2, 240720, Note_on_c, 0, 75, 0
2, 240960, Note_on_c, 0, 97, 100
2, 240960, Note_on_c, 0, 85, 100
2, 240960, Note_on_c, 0, 73, 100
2, 240960, Note_on_c, 0, 61, 100
2, 240960, Note_on_c, 0, 108, 100
2, 241200, Note_on_c, 0, 97, 0
2, 241200, Note_on_c, 0, 85, 0
2, 241200, Note_on_c, 0, 73, 0
2, 241200, Note_on_c, 0, 61, 0
2, 241440, Note_on_c, 0, 97, 100
2, 241440, Note_on_c, 0, 85, 100
2, 241680, Note_on_c, 0, 108, 0
2, 241680, Note_on_c, 0, 97, 0
2, 241680, Note_on_c, 0, 85, 0
2, 241920, Note_on_c, 0, 98, 100
2, 241920, Note_on_c, 0, 86, 100
2, 241920, Note_on_c, 0, 74, 100
2, 241920, Note_on_c, 0, 62, 100
2, 241920, Note_on_c, 0, 108, 100
2, 242160, Note_on_c, 0, 98, 0
2, 242160, Note_on_c, 0, 86, 0
2, 242160, Note_on_c, 0, 74, 0
2, 242160, Note_on_c, 0, 62, 0
2, 242400, Note_on_c, 0, 97, 100
2, 242400, Note_on_c, 0, 85, 100
2, 242640, Note_on_c, 0, 97, 0
2, 242640, Note_on_c, 0, 85, 0
2, 242880, Note_on_c, 0, 98, 100
2, 242880, Note_on_c, 0, 86, 100
2, 242880, Note_on_c, 0, 74, 100
2, 243120, Note_on_c, 0, 108, 0
2, 243120, Note_on_c, 0, 98, 0
2, 243120, Note_on_c, 0, 86, 0
2, 243120, Note_on_c, 0, 74, 0
2, 243360, Note_on_c, 0, 99, 100
2, 243360, Note_on_c, 0, 87, 100
2, 243360, Note_on_c, 0, 75, 100
2, 243360, Note_on_c, 0, 62, 100
2, 243360, Note_on_c, 0, 108, 100
2, 243600, Note_on_c, 0, 99, 0
2, 243600, Note_on_c, 0, 87, 0
2, 243600, Note_on_c, 0, 75, 0
2, 243600, Note_on_c, 0, 62, 0
2, 244320, Note_on_c, 0, 98, 100
2, 244320, Note_on_c, 0, 86, 100
2, 244320, Note_on_c, 0, 74, 100
2, 244320, Note_on_c, 0, 61, 100
2, 244560, Note_on_c, 0, 108, 0
2, 244560, Note_on_c, 0, 98, 0
2, 244560, Note_on_c, 0, 86, 0
2, 244560, Note_on_c, 0, 74, 0
2, 244560, Note_on_c, 0, 61, 0
2, 244800, Note_on_c, 0, 97, 100
2, 244800, Note_on_c, 0, 85, 100
2, 244800, Note_on_c, 0, 73, 100
2, 244800, Note_on_c, 0, 108, 100
2, 245040, Note_on_c, 0, 97, 0
2, 245040, Note_on_c, 0, 85, 0
2, 245040, Note_on_c, 0, 73, 0
2, 245250, Note_on_c, 0, 105, 0
2, 245250, Note_on_c, 0, 93, 0
2, 245250, Note_on_c, 0, 69, 0
2, 245250, Note_on_c, 0, 81, 0
2, 245250, Note_on_c, 0, 106, 100
2, 245250, Note_on_c, 0, 94, 100
2, 245250, Note_on_c, 0, 70, 100
2, 245250, Note_on_c, 0, 82, 100
2, 245280, Note_on_c, 0, 96, 100
2, 245280, Note_on_c, 0, 84, 100
2, 245280, Note_on_c, 0, 72, 100
2, 245280, Note_on_c, 0, 60, 100
2, 245520, Note_on_c, 0, 96, 0
2, 245520, Note_on_c, 0, 84, 0
2, 245520, Note_on_c, 0, 72, 0
2, 245520, Note_on_c, 0, 60, 0
2, 245760, Note_on_c, 0, 96, 100
2, 245760, Note_on_c, 0, 84, 100
2, 246000, Note_on_c, 0, 108, 0
2, 246000, Note_on_c, 0, 96, 0
2, 246000, Note_on_c, 0, 84, 0
2, 246240, Note_on_c, 0, 96, 100
2, 246240, Note_on_c, 0, 84, 100
2, 246240, Note_on_c, 0, 72, 100
2, 246480, Note_on_c, 0, 96, 0
2, 246480, Note_on_c, 0, 84, 0
2, 246480, Note_on_c, 0, 72, 0
2, 246720, Note_on_c, 0, 97, 100
2, 246720, Note_on_c, 0, 85, 100
2, 246720, Note_on_c, 0, 73, 100
2, 246720, Note_on_c, 0, 61, 100
2, 246960, Note_on_c, 0, 97, 0
2, 246960, Note_on_c, 0, 85, 0
2, 246960, Note_on_c, 0, 73, 0
2, 246960, Note_on_c, 0, 61, 0
2, 247200, Note_on_c, 0, 96, 100
2, 247200, Note_on_c, 0, 84, 100
2, 247200, Note_on_c, 0, 108, 100
2, 247440, Note_on_c, 0, 96, 0
2, 247440, Note_on_c, 0, 84, 0
2, 247520, Note_on_c, 0, 108, 0
2, 247680, Note_on_c, 0, 98, 100
2, 247680, Note_on_c, 0, 86, 100
2, 247680, Note_on_c, 0, 73, 100
2, 247680, Note_on_c, 0, 61, 100
2, 247680, Note_on_c, 0, 108, 100
2, 247920, Note_on_c, 0, 98, 0
2, 247920, Note_on_c, 0, 86, 0
2, 247920, Note_on_c, 0, 73, 0
2, 247920, Note_on_c, 0, 61, 0
2, 248160, Note_on_c, 0, 96, 100
2, 248160, Note_on_c, 0, 84, 100
2, 248320, Note_on_c, 0, 108, 0
2, 248400, Note_on_c, 0, 96, 0
2, 248400, Note_on_c, 0, 84, 0
2, 248640, Note_on_c, 0, 96, 100
2, 248640, Note_on_c, 0, 84, 100
2, 248640, Note_on_c, 0, 72, 100
2, 248640, Note_on_c, 0, 60, 100
2, 248640, Note_on_c, 0, 108, 100
2, 248880, Note_on_c, 0, 96, 0
2, 248880, Note_on_c, 0, 84, 0
2, 248880, Note_on_c, 0, 72, 0
2, 248880, Note_on_c, 0, 60, 0
2, 249120, Note_on_c, 0, 96, 100
2, 249120, Note_on_c, 0, 84, 100
2, 249360, Note_on_c, 0, 108, 0
2, 249360, Note_on_c, 0, 96, 0
2, 249360, Note_on_c, 0, 84, 0
2, 249600, Note_on_c, 0, 97, 100
2, 249600, Note_on_c, 0, 85, 100
2, 249600, Note_on_c, 0, 73, 100
2, 249600, Note_on_c, 0, 61, 100
2, 249600, Note_on_c, 0, 108, 100
2, 249840, Note_on_c, 0, 97, 0
2, 249840, Note_on_c, 0, 85, 0
2, 249840, Note_on_c, 0, 73, 0
2, 249840, Note_on_c, 0, 61, 0
2, 250080, Note_on_c, 0, 98, 100
2, 250080, Note_on_c, 0, 86, 100
2, 250320, Note_on_c, 0, 98, 0
2, 250320, Note_on_c, 0, 86, 0
2, 250560, Note_on_c, 0, 96, 100
2, 250560, Note_on_c, 0, 84, 100
2, 250560, Note_on_c, 0, 72, 100
2, 250560, Note_on_c, 0, 60, 100
2, 250800, Note_on_c, 0, 108, 0
2, 250800, Note_on_c, 0, 96, 0
2, 250800, Note_on_c, 0, 84, 0
2, 250800, Note_on_c, 0, 72, 0
2, 250800, Note_on_c, 0, 60, 0
2, 251040, Note_on_c, 0, 97, 100
2, 251040, Note_on_c, 0, 85, 100
2, 251040, Note_on_c, 0, 73, 100
2, 251040, Note_on_c, 0, 108, 100
2, 251280, Note_on_c, 0, 97, 0
2, 251280, Note_on_c, 0, 85, 0
2, 251280, Note_on_c, 0, 73, 0
2, 252000, Note_on_c, 0, 96, 100
2, 252000, Note_on_c, 0, 84, 100
2, 252000, Note_on_c, 0, 72, 100
2, 252000, Note_on_c, 0, 60, 100
2, 252240, Note_on_c, 0, 108, 0
2, 252240, Note_on_c, 0, 96, 0
2, 252240, Note_on_c, 0, 84, 0
2, 252240, Note_on_c, 0, 72, 0
2, 252240, Note_on_c, 0, 60, 0
2, 252480, Note_on_c, 0, 108, 100
2, 252930, Note_on_c, 0, 106, 0
2, 252930, Note_on_c, 0, 94, 0
2, 252930, Note_on_c, 0, 70, 0
2, 252930, Note_on_c, 0, 82, 0
2, 252930, Note_on_c, 0, 105, 100
2, 252930, Note_on_c, 0, 93, 100
2, 252930, Note_on_c, 0, 69, 100
2, 252930, Note_on_c, 0, 81, 100
2, 252960, Note_on_c, 0, 99, 100
2, 252960, Note_on_c, 0, 87, 100
2, 252960, Note_on_c, 0, 74, 100
2, 252960, Note_on_c, 0, 62, 100
2, 253200, Note_on_c, 0, 99, 0
2, 253200, Note_on_c, 0, 87, 0
2, 253200, Note_on_c, 0, 74, 0
2, 253200, Note_on_c, 0, 62, 0
2, 253280, Note_on_c, 0, 98, 100
2, 253440, Note_on_c, 0, 86, 100
2, 253520, Note_on_c, 0, 98, 0
2, 253600, Note_on_c, 0, 97, 100
2, 253680, Note_on_c, 0, 86, 0
2, 253840, Note_on_c, 0, 97, 0
2, 253920, Note_on_c, 0, 96, 100
2, 253920, Note_on_c, 0, 84, 100
2, 253920, Note_on_c, 0, 72, 100
2, 254160, Note_on_c, 0, 108, 0
2, 254160, Note_on_c, 0, 96, 0
2, 254160, Note_on_c, 0, 84, 0
2, 254160, Note_on_c, 0, 72, 0
2, 254400, Note_on_c, 0, 97, 100
2, 254400, Note_on_c, 0, 85, 100
2, 254400, Note_on_c, 0, 73, 100
2, 254400, Note_on_c, 0, 61, 100
2, 254640, Note_on_c, 0, 97, 0
2, 254640, Note_on_c, 0, 85, 0
2, 254640, Note_on_c, 0, 73, 0
2, 254640, Note_on_c, 0, 61, 0
2, 255330, Note_on_c, 0, 106, 100
2, 255330, Note_on_c, 0, 94, 100
2, 255330, Note_on_c, 0, 70, 100
2, 255330, Note_on_c, 0, 82, 100
2, 255360, Note_on_c, 0, 96, 100
2, 255360, Note_on_c, 0, 84, 100
2, 255360, Note_on_c, 0, 72, 100
2, 255360, Note_on_c, 0, 60, 100
2, 255360, Note_on_c, 0, 108, 100
2, 255600, Note_on_c, 0, 96, 0
2, 255600, Note_on_c, 0, 84, 0
2, 255600, Note_on_c, 0, 72, 0
2, 255600, Note_on_c, 0, 60, 0
2, 255840, Note_on_c, 0, 97, 100
2, 255840, Note_on_c, 0, 85, 100
2, 256080, Note_on_c, 0, 97, 0
2, 256080, Note_on_c, 0, 85, 0
2, 256160, Note_on_c, 0, 108, 0
2, 256320, Note_on_c, 0, 99, 100
2, 256320, Note_on_c, 0, 87, 100
2, 256320, Note_on_c, 0, 74, 100
2, 256320, Note_on_c, 0, 108, 100
2, 256560, Note_on_c, 0, 99, 0
2, 256560, Note_on_c, 0, 87, 0
2, 256560, Note_on_c, 0, 74, 0
2, 256640, Note_on_c, 0, 108, 0
2, 256800, Note_on_c, 0, 98, 100
2, 256800, Note_on_c, 0, 86, 100
2, 256800, Note_on_c, 0, 73, 100
2, 256800, Note_on_c, 0, 61, 100
2, 256800, Note_on_c, 0, 108, 100
2, 257040, Note_on_c, 0, 98, 0
2, 257040, Note_on_c, 0, 86, 0
2, 257040, Note_on_c, 0, 73, 0
2, 257040, Note_on_c, 0, 61, 0
2, 257280, Note_on_c, 0, 97, 100
2, 257280, Note_on_c, 0, 85, 100
2, 257520, Note_on_c, 0, 97, 0
2, 257520, Note_on_c, 0, 85, 0
2, 257760, Note_on_c, 0, 96, 100
2, 257760, Note_on_c, 0, 84, 100
2, 257760, Note_on_c, 0, 72, 100
2, 257760, Note_on_c, 0, 60, 100
2, 258000, Note_on_c, 0, 96, 0
2, 258000, Note_on_c, 0, 84, 0
2, 258000, Note_on_c, 0, 72, 0
2, 258000, Note_on_c, 0, 60, 0
2, 258720, Note_on_c, 0, 96, 100
2, 258720, Note_on_c, 0, 85, 100
2, 258720, Note_on_c, 0, 73, 100
2, 258720, Note_on_c, 0, 61, 100
2, 258960, Note_on_c, 0, 96, 0
2, 258960, Note_on_c, 0, 85, 0
2, 258960, Note_on_c, 0, 73, 0
2, 258960, Note_on_c, 0, 61, 0
2, 259040, Note_on_c, 0, 97, 100
2, 259200, Note_on_c, 0, 86, 100
2, 259280, Note_on_c, 0, 97, 0
2, 259360, Note_on_c, 0, 98, 100
2, 259440, Note_on_c, 0, 86, 0
2, 259600, Note_on_c, 0, 98, 0
2, 259680, Note_on_c, 0, 99, 100
2, 259680, Note_on_c, 0, 87, 100
2, 259680, Note_on_c, 0, 74, 100
2, 259680, Note_on_c, 0, 62, 100
2, 259920, Note_on_c, 0, 99, 0
2, 259920, Note_on_c, 0, 87, 0
2, 259920, Note_on_c, 0, 74, 0
2, 259920, Note_on_c, 0, 62, 0
2, 260320, Note_on_c, 0, 108, 0
2, 260640, Note_on_c, 0, 98, 100
2, 260640, Note_on_c, 0, 86, 100
2, 260640, Note_on_c, 0, 74, 100
2, 260640, Note_on_c, 0, 62, 100
2, 261570, Note_on_c, 0, 105, 0
2, 261570, Note_on_c, 0, 93, 0
2, 261570, Note_on_c, 0, 69, 0
2, 261570, Note_on_c, 0, 81, 0
2, 261600, Note_on_c, 0, 98, 0
2, 261600, Note_on_c, 0, 86, 0
2, 261600, Note_on_c, 0, 74, 0
2, 261600, Note_on_c, 0, 62, 0
2, 262080, Note_on_c, 0, 96, 100
2, 262080, Note_on_c, 0, 98, 100
2, 262080, Note_on_c, 0, 84, 100
2, 262080, Note_on_c, 0, 86, 100
2, 262080, Note_on_c, 0, 72, 100
2, 262080, Note_on_c, 0, 60, 100
2, 262080, Note_on_c, 0, 108, 100
2, 262320, Note_on_c, 0, 96, 0
2, 262320, Note_on_c, 0, 98, 0
2, 262320, Note_on_c, 0, 84, 0
2, 262320, Note_on_c, 0, 86, 0
2, 262320, Note_on_c, 0, 72, 0
2, 262320, Note_on_c, 0, 60, 0
2, 262560, Note_on_c, 0, 96, 100
2, 262560, Note_on_c, 0, 98, 100
2, 262560, Note_on_c, 0, 84, 100
2, 262560, Note_on_c, 0, 86, 100
2, 262560, Note_on_c, 0, 72, 100
2, 262800, Note_on_c, 0, 108, 0
2, 262800, Note_on_c, 0, 96, 0
2, 262800, Note_on_c, 0, 98, 0
2, 262800, Note_on_c, 0, 84, 0
2, 262800, Note_on_c, 0, 86, 0
2, 262800, Note_on_c, 0, 72, 0
2, 263040, Note_on_c, 0, 96, 100
2, 263040, Note_on_c, 0, 98, 100
2, 263040, Note_on_c, 0, 84, 100
2, 263040, Note_on_c, 0, 86, 100
2, 263040, Note_on_c, 0, 72, 100
2, 263040, Note_on_c, 0, 60, 100
2, 263040, Note_on_c, 0, 108, 100
2, 263280, Note_on_c, 0, 96, 0
2, 263280, Note_on_c, 0, 98, 0
2, 263280, Note_on_c, 0, 84, 0
2, 263280, Note_on_c, 0, 86, 0
2, 263280, Note_on_c, 0, 72, 0
2, 263280, Note_on_c, 0, 60, 0
2, 263520, Note_on_c, 0, 96, 100
2, 263520, Note_on_c, 0, 98, 100
2, 263520, Note_on_c, 0, 84, 100
2, 263520, Note_on_c, 0, 86, 100
2, 263520, Note_on_c, 0, 72, 100
2, 263680, Note_on_c, 0, 108, 0
2, 263760, Note_on_c, 0, 96, 0
2, 263760, Note_on_c, 0, 98, 0
2, 263760, Note_on_c, 0, 84, 0
2, 263760, Note_on_c, 0, 86, 0
2, 263760, Note_on_c, 0, 72, 0
2, 264000, Note_on_c, 0, 96, 100
2, 264000, Note_on_c, 0, 98, 100
2, 264000, Note_on_c, 0, 84, 100
2, 264000, Note_on_c, 0, 86, 100
2, 264000, Note_on_c, 0, 72, 100
2, 264000, Note_on_c, 0, 60, 100
2, 264000, Note_on_c, 0, 108, 100
2, 264240, Note_on_c, 0, 96, 0
2, 264240, Note_on_c, 0, 98, 0
2, 264240, Note_on_c, 0, 84, 0
2, 264240, Note_on_c, 0, 86, 0
2, 264240, Note_on_c, 0, 72, 0
2, 264240, Note_on_c, 0, 60, 0
2, 264480, Note_on_c, 0, 96, 100
2, 264480, Note_on_c, 0, 98, 100
2, 264480, Note_on_c, 0, 84, 100
2, 264480, Note_on_c, 0, 86, 100
2, 264480, Note_on_c, 0, 72, 100
2, 264720, Note_on_c, 0, 108, 0
2, 264720, Note_on_c, 0, 96, 0
2, 264720, Note_on_c, 0, 98, 0
2, 264720, Note_on_c, 0, 84, 0
2, 264720, Note_on_c, 0, 86, 0
2, 264720, Note_on_c, 0, 72, 0
2, 264960, Note_on_c, 0, 96, 100
2, 264960, Note_on_c, 0, 98, 100
2, 264960, Note_on_c, 0, 84, 100
2, 264960, Note_on_c, 0, 86, 100
2, 264960, Note_on_c, 0, 72, 100
2, 264960, Note_on_c, 0, 60, 100
2, 264960, Note_on_c, 0, 108, 100
2, 265200, Note_on_c, 0, 96, 0
2, 265200, Note_on_c, 0, 98, 0
2, 265200, Note_on_c, 0, 84, 0
2, 265200, Note_on_c, 0, 86, 0
2, 265200, Note_on_c, 0, 72, 0
2, 265200, Note_on_c, 0, 60, 0
2, 265440, Note_on_c, 0, 96, 100
2, 265440, Note_on_c, 0, 98, 100
2, 265440, Note_on_c, 0, 84, 100
2, 265440, Note_on_c, 0, 86, 100
2, 265440, Note_on_c, 0, 72, 100
2, 265680, Note_on_c, 0, 96, 0
2, 265680, Note_on_c, 0, 98, 0
2, 265680, Note_on_c, 0, 84, 0
2, 265680, Note_on_c, 0, 86, 0
2, 265680, Note_on_c, 0, 72, 0
2, 265920, Note_on_c, 0, 96, 100
2, 265920, Note_on_c, 0, 98, 100
2, 265920, Note_on_c, 0, 84, 100
2, 265920, Note_on_c, 0, 86, 100
2, 265920, Note_on_c, 0, 72, 100
2, 265920, Note_on_c, 0, 60, 100
2, 266160, Note_on_c, 0, 108, 0
2, 266160, Note_on_c, 0, 96, 0
2, 266160, Note_on_c, 0, 98, 0
2, 266160, Note_on_c, 0, 84, 0
2, 266160, Note_on_c, 0, 86, 0
2, 266160, Note_on_c, 0, 72, 0
2, 266160, Note_on_c, 0, 60, 0
2, 266400, Note_on_c, 0, 96, 100
2, 266400, Note_on_c, 0, 98, 100
2, 266400, Note_on_c, 0, 84, 100
2, 266400, Note_on_c, 0, 86, 100
2, 266400, Note_on_c, 0, 72, 100
2, 266400, Note_on_c, 0, 108, 100
2, 266640, Note_on_c, 0, 96, 0
2, 266640, Note_on_c, 0, 98, 0
2, 266640, Note_on_c, 0, 84, 0
2, 266640, Note_on_c, 0, 86, 0
2, 266640, Note_on_c, 0, 72, 0
2, 266880, Note_on_c, 0, 96, 100
2, 266880, Note_on_c, 0, 98, 100
2, 266880, Note_on_c, 0, 84, 100
2, 266880, Note_on_c, 0, 86, 100
2, 266880, Note_on_c, 0, 72, 100
2, 266880, Note_on_c, 0, 60, 100
2, 267120, Note_on_c, 0, 96, 0
2, 267120, Note_on_c, 0, 98, 0
2, 267120, Note_on_c, 0, 84, 0
2, 267120, Note_on_c, 0, 86, 0
2, 267120, Note_on_c, 0, 72, 0
2, 267120, Note_on_c, 0, 60, 0
2, 267360, Note_on_c, 0, 96, 100
2, 267360, Note_on_c, 0, 98, 100
2, 267360, Note_on_c, 0, 84, 100
2, 267360, Note_on_c, 0, 86, 100
2, 267360, Note_on_c, 0, 72, 100
2, 267600, Note_on_c, 0, 108, 0
2, 267600, Note_on_c, 0, 96, 0
2, 267600, Note_on_c, 0, 98, 0
2, 267600, Note_on_c, 0, 84, 0
2, 267600, Note_on_c, 0, 86, 0
2, 267600, Note_on_c, 0, 72, 0
2, 267840, Note_on_c, 0, 96, 100
2, 267840, Note_on_c, 0, 98, 100
2, 267840, Note_on_c, 0, 84, 100
2, 267840, Note_on_c, 0, 86, 100
2, 267840, Note_on_c, 0, 72, 100
2, 267840, Note_on_c, 0, 108, 100
2, 268080, Note_on_c, 0, 96, 0
2, 268080, Note_on_c, 0, 98, 0
2, 268080, Note_on_c, 0, 84, 0
2, 268080, Note_on_c, 0, 86, 0
2, 268080, Note_on_c, 0, 72, 0
2, 268290, Note_on_c, 0, 106, 0
2, 268290, Note_on_c, 0, 94, 0
2, 268290, Note_on_c, 0, 70, 0
2, 268290, Note_on_c, 0, 82, 0
2, 268290, Note_on_c, 0, 105, 100
2, 268290, Note_on_c, 0, 93, 100
2, 268290, Note_on_c, 0, 69, 100
2, 268290, Note_on_c, 0, 81, 100
2, 268320, Note_on_c, 0, 97, 100
2, 268320, Note_on_c, 0, 99, 100
2, 268320, Note_on_c, 0, 85, 100
2, 268320, Note_on_c, 0, 87, 100
2, 268320, Note_on_c, 0, 73, 100
2, 268320, Note_on_c, 0, 61, 100
2, 269440, Note_on_c, 0, 108, 0
2, 269520, Note_on_c, 0, 73, 0
2, 269520, Note_on_c, 0, 61, 0
2, 269760, Note_on_c, 0, 97, 0
2, 269760, Note_on_c, 0, 99, 0
2, 269760, Note_on_c, 0, 85, 0
2, 269760, Note_on_c, 0, 87, 0
2, 269760, Note_on_c, 0, 97, 100
2, 269760, Note_on_c, 0, 99, 100
2, 269760, Note_on_c, 0, 85, 100
2, 269760, Note_on_c, 0, 87, 100
2, 269760, Note_on_c, 0, 73, 100
2, 269760, Note_on_c, 0, 61, 100
2, 270000, Note_on_c, 0, 97, 0
2, 270000, Note_on_c, 0, 99, 0
2, 270000, Note_on_c, 0, 85, 0
2, 270000, Note_on_c, 0, 87, 0
2, 270000, Note_on_c, 0, 73, 0
2, 270000, Note_on_c, 0, 61, 0
2, 270240, Note_on_c, 0, 97, 100
2, 270240, Note_on_c, 0, 99, 100
2, 270240, Note_on_c, 0, 85, 100
2, 270240, Note_on_c, 0, 87, 100
2, 270240, Note_on_c, 0, 73, 100
2, 270480, Note_on_c, 0, 97, 0
2, 270480, Note_on_c, 0, 99, 0
2, 270480, Note_on_c, 0, 85, 0
2, 270480, Note_on_c, 0, 87, 0
2, 270480, Note_on_c, 0, 73, 0
2, 270720, Note_on_c, 0, 97, 100
2, 270720, Note_on_c, 0, 99, 100
2, 270720, Note_on_c, 0, 85, 100
2, 270720, Note_on_c, 0, 87, 100
2, 270720, Note_on_c, 0, 73, 100
2, 270720, Note_on_c, 0, 61, 100
2, 270720, Note_on_c, 0, 108, 100
2, 270960, Note_on_c, 0, 97, 0
2, 270960, Note_on_c, 0, 99, 0
2, 270960, Note_on_c, 0, 85, 0
2, 270960, Note_on_c, 0, 87, 0
2, 270960, Note_on_c, 0, 73, 0
2, 270960, Note_on_c, 0, 61, 0
2, 271200, Note_on_c, 0, 108, 0
2, 271200, Note_on_c, 0, 97, 100
2, 271200, Note_on_c, 0, 99, 100
2, 271200, Note_on_c, 0, 85, 100
2, 271200, Note_on_c, 0, 87, 100
2, 271200, Note_on_c, 0, 73, 100
2, 271440, Note_on_c, 0, 97, 0
2, 271440, Note_on_c, 0, 99, 0
2, 271440, Note_on_c, 0, 85, 0
2, 271440, Note_on_c, 0, 87, 0
2, 271440, Note_on_c, 0, 73, 0
2, 271680, Note_on_c, 0, 97, 100
2, 271680, Note_on_c, 0, 99, 100
2, 271680, Note_on_c, 0, 85, 100
2, 271680, Note_on_c, 0, 87, 100
2, 271680, Note_on_c, 0, 73, 100
2, 271680, Note_on_c, 0, 61, 100
2, 271680, Note_on_c, 0, 108, 100
2, 271920, Note_on_c, 0, 97, 0
2, 271920, Note_on_c, 0, 99, 0
2, 271920, Note_on_c, 0, 85, 0
2, 271920, Note_on_c, 0, 87, 0
2, 271920, Note_on_c, 0, 73, 0
2, 271920, Note_on_c, 0, 61, 0
2, 272160, Note_on_c, 0, 97, 100
2, 272160, Note_on_c, 0, 99, 100
2, 272160, Note_on_c, 0, 85, 100
2, 272160, Note_on_c, 0, 87, 100
2, 272160, Note_on_c, 0, 73, 100
2, 272400, Note_on_c, 0, 108, 0
2, 272400, Note_on_c, 0, 97, 0
2, 272400, Note_on_c, 0, 99, 0
2, 272400, Note_on_c, 0, 85, 0
2, 272400, Note_on_c, 0, 87, 0
2, 272400, Note_on_c, 0, 73, 0
2, 272640, Note_on_c, 0, 97, 100
2, 272640, Note_on_c, 0, 99, 100
2, 272640, Note_on_c, 0, 85, 100
2, 272640, Note_on_c, 0, 87, 100
2, 272640, Note_on_c, 0, 73, 100
2, 272640, Note_on_c, 0, 61, 100
2, 272640, Note_on_c, 0, 108, 100
2, 272880, Note_on_c, 0, 97, 0
2, 272880, Note_on_c, 0, 99, 0
2, 272880, Note_on_c, 0, 85, 0
2, 272880, Note_on_c, 0, 87, 0
2, 272880, Note_on_c, 0, 73, 0
2, 272880, Note_on_c, 0, 61, 0
2, 273120, Note_on_c, 0, 97, 100
2, 273120, Note_on_c, 0, 99, 100
2, 273120, Note_on_c, 0, 85, 100
2, 273120, Note_on_c, 0, 87, 100
2, 273120, Note_on_c, 0, 73, 100
2, 273360, Note_on_c, 0, 97, 0
2, 273360, Note_on_c, 0, 99, 0
2, 273360, Note_on_c, 0, 85, 0
2, 273360, Note_on_c, 0, 87, 0
2, 273360, Note_on_c, 0, 73, 0
2, 273600, Note_on_c, 0, 97, 100
2, 273600, Note_on_c, 0, 99, 100
2, 273600, Note_on_c, 0, 85, 100
2, 273600, Note_on_c, 0, 87, 100
2, 273600, Note_on_c, 0, 73, 100
2, 273600, Note_on_c, 0, 61, 100
2, 273840, Note_on_c, 0, 108, 0
2, 273840, Note_on_c, 0, 97, 0
2, 273840, Note_on_c, 0, 99, 0
2, 273840, Note_on_c, 0, 85, 0
2, 273840, Note_on_c, 0, 87, 0
2, 273840, Note_on_c, 0, 73, 0
2, 273840, Note_on_c, 0, 61, 0
2, 274080, Note_on_c, 0, 97, 100
2, 274080, Note_on_c, 0, 99, 100
2, 274080, Note_on_c, 0, 85, 100
2, 274080, Note_on_c, 0, 87, 100
2, 274080, Note_on_c, 0, 73, 100
2, 274080, Note_on_c, 0, 108, 100
2, 274320, Note_on_c, 0, 97, 0
2, 274320, Note_on_c, 0, 99, 0
2, 274320, Note_on_c, 0, 85, 0
2, 274320, Note_on_c, 0, 87, 0
2, 274320, Note_on_c, 0, 73, 0
2, 274560, Note_on_c, 0, 97, 100
2, 274560, Note_on_c, 0, 99, 100
2, 274560, Note_on_c, 0, 85, 100
2, 274560, Note_on_c, 0, 87, 100
2, 274560, Note_on_c, 0, 73, 100
2, 274560, Note_on_c, 0, 61, 100
2, 274800, Note_on_c, 0, 97, 0
2, 274800, Note_on_c, 0, 99, 0
2, 274800, Note_on_c, 0, 85, 0
2, 274800, Note_on_c, 0, 87, 0
2, 274800, Note_on_c, 0, 73, 0
2, 274800, Note_on_c, 0, 61, 0
2, 275040, Note_on_c, 0, 97, 100
2, 275040, Note_on_c, 0, 99, 100
2, 275040, Note_on_c, 0, 85, 100
2, 275040, Note_on_c, 0, 87, 100
2, 275040, Note_on_c, 0, 73, 100
2, 275280, Note_on_c, 0, 108, 0
2, 275280, Note_on_c, 0, 97, 0
2, 275280, Note_on_c, 0, 99, 0
2, 275280, Note_on_c, 0, 85, 0
2, 275280, Note_on_c, 0, 87, 0
2, 275280, Note_on_c, 0, 73, 0
2, 275520, Note_on_c, 0, 97, 100
2, 275520, Note_on_c, 0, 99, 100
2, 275520, Note_on_c, 0, 85, 100
2, 275520, Note_on_c, 0, 87, 100
2, 275520, Note_on_c, 0, 73, 100
2, 275520, Note_on_c, 0, 108, 100
2, 275760, Note_on_c, 0, 97, 0
2, 275760, Note_on_c, 0, 99, 0
2, 275760, Note_on_c, 0, 85, 0
2, 275760, Note_on_c, 0, 87, 0
2, 275760, Note_on_c, 0, 73, 0
2, 275970, Note_on_c, 0, 105, 0
2, 275970, Note_on_c, 0, 93, 0
2, 275970, Note_on_c, 0, 69, 0
2, 275970, Note_on_c, 0, 81, 0
2, 275970, Note_on_c, 0, 106, 100
2, 275970, Note_on_c, 0, 94, 100
2, 275970, Note_on_c, 0, 70, 100
2, 275970, Note_on_c, 0, 82, 100
2, 276000, Note_on_c, 0, 96, 100
2, 276000, Note_on_c, 0, 98, 100
2, 276000, Note_on_c, 0, 84, 100
2, 276000, Note_on_c, 0, 86, 100
2, 276000, Note_on_c, 0, 72, 100
2, 276000, Note_on_c, 0, 60, 100
2, 276960, Note_on_c, 0, 108, 0
2, 277200, Note_on_c, 0, 72, 0
2, 277200, Note_on_c, 0, 60, 0
2, 277440, Note_on_c, 0, 96, 0
2, 277440, Note_on_c, 0, 98, 0
2, 277440, Note_on_c, 0, 84, 0
2, 277440, Note_on_c, 0, 86, 0
2, 277440, Note_on_c, 0, 96, 100
2, 277440, Note_on_c, 0, 98, 100
2, 277440, Note_on_c, 0, 84, 100
2, 277440, Note_on_c, 0, 86, 100
2, 277440, Note_on_c, 0, 72, 100
2, 277440, Note_on_c, 0, 60, 100
2, 277680, Note_on_c, 0, 96, 0
2, 277680, Note_on_c, 0, 98, 0
2, 277680, Note_on_c, 0, 84, 0
2, 277680, Note_on_c, 0, 86, 0
2, 277680, Note_on_c, 0, 72, 0
2, 277680, Note_on_c, 0, 60, 0
2, 277920, Note_on_c, 0, 96, 100
2, 277920, Note_on_c, 0, 98, 100
2, 277920, Note_on_c, 0, 84, 100
2, 277920, Note_on_c, 0, 86, 100
2, 277920, Note_on_c, 0, 72, 100
2, 278160, Note_on_c, 0, 96, 0
2, 278160, Note_on_c, 0, 98, 0
2, 278160, Note_on_c, 0, 84, 0
2, 278160, Note_on_c, 0, 86, 0
2, 278160, Note_on_c, 0, 72, 0
2, 278400, Note_on_c, 0, 96, 100
2, 278400, Note_on_c, 0, 98, 100
2, 278400, Note_on_c, 0, 84, 100
2, 278400, Note_on_c, 0, 86, 100
2, 278400, Note_on_c, 0, 72, 100
2, 278400, Note_on_c, 0, 60, 100
2, 278400, Note_on_c, 0, 108, 100
2, 278640, Note_on_c, 0, 96, 0
2, 278640, Note_on_c, 0, 98, 0
2, 278640, Note_on_c, 0, 84, 0
2, 278640, Note_on_c, 0, 86, 0
2, 278640, Note_on_c, 0, 72, 0
2, 278640, Note_on_c, 0, 60, 0
2, 278880, Note_on_c, 0, 108, 0
2, 278880, Note_on_c, 0, 96, 100
2, 278880, Note_on_c, 0, 98, 100
2, 278880, Note_on_c, 0, 84, 100
2, 278880, Note_on_c, 0, 86, 100
2, 278880, Note_on_c, 0, 72, 100
2, 279120, Note_on_c, 0, 96, 0
2, 279120, Note_on_c, 0, 98, 0
2, 279120, Note_on_c, 0, 84, 0
2, 279120, Note_on_c, 0, 86, 0
2, 279120, Note_on_c, 0, 72, 0
2, 279360, Note_on_c, 0, 96, 100
2, 279360, Note_on_c, 0, 98, 100
2, 279360, Note_on_c, 0, 84, 100
2, 279360, Note_on_c, 0, 86, 100
2, 279360, Note_on_c, 0, 72, 100
2, 279360, Note_on_c, 0, 60, 100
2, 279360, Note_on_c, 0, 108, 100
2, 279600, Note_on_c, 0, 96, 0
2, 279600, Note_on_c, 0, 98, 0
2, 279600, Note_on_c, 0, 84, 0
2, 279600, Note_on_c, 0, 86, 0
2, 279600, Note_on_c, 0, 72, 0
2, 279600, Note_on_c, 0, 60, 0
2, 279840, Note_on_c, 0, 96, 100
2, 279840, Note_on_c, 0, 98, 100
2, 279840, Note_on_c, 0, 84, 100
2, 279840, Note_on_c, 0, 86, 100
2, 279840, Note_on_c, 0, 72, 100
2, 280080, Note_on_c, 0, 108, 0
2, 280080, Note_on_c, 0, 96, 0
2, 280080, Note_on_c, 0, 98, 0
2, 280080, Note_on_c, 0, 84, 0
2, 280080, Note_on_c, 0, 86, 0
2, 280080, Note_on_c, 0, 72, 0
2, 280320, Note_on_c, 0, 96, 100
2, 280320, Note_on_c, 0, 98, 100
2, 280320, Note_on_c, 0, 84, 100
2, 280320, Note_on_c, 0, 86, 100
2, 280320, Note_on_c, 0, 72, 100
2, 280320, Note_on_c, 0, 60, 100
2, 280320, Note_on_c, 0, 108, 100
2, 280560, Note_on_c, 0, 96, 0
2, 280560, Note_on_c, 0, 98, 0
2, 280560, Note_on_c, 0, 84, 0
2, 280560, Note_on_c, 0, 86, 0
2, 280560, Note_on_c, 0, 72, 0
2, 280560, Note_on_c, 0, 60, 0
2, 280800, Note_on_c, 0, 96, 100
2, 280800, Note_on_c, 0, 98, 100
2, 280800, Note_on_c, 0, 84, 100
2, 280800, Note_on_c, 0, 86, 100
2, 280800, Note_on_c, 0, 72, 100
2, 281040, Note_on_c, 0, 96, 0
2, 281040, Note_on_c, 0, 98, 0
2, 281040, Note_on_c, 0, 84, 0
2, 281040, Note_on_c, 0, 86, 0
2, 281040, Note_on_c, 0, 72, 0
2, 281280, Note_on_c, 0, 96, 100
2, 281280, Note_on_c, 0, 98, 100
2, 281280, Note_on_c, 0, 84, 100
2, 281280, Note_on_c, 0, 86, 100
2, 281280, Note_on_c, 0, 72, 100
2, 281280, Note_on_c, 0, 60, 100
2, 281520, Note_on_c, 0, 108, 0
2, 281520, Note_on_c, 0, 96, 0
2, 281520, Note_on_c, 0, 98, 0
2, 281520, Note_on_c, 0, 84, 0
2, 281520, Note_on_c, 0, 86, 0
2, 281520, Note_on_c, 0, 72, 0
2, 281520, Note_on_c, 0, 60, 0
2, 281760, Note_on_c, 0, 96, 100
2, 281760, Note_on_c, 0, 98, 100
2, 281760, Note_on_c, 0, 84, 100
2, 281760, Note_on_c, 0, 86, 100
2, 281760, Note_on_c, 0, 72, 100
2, 281760, Note_on_c, 0, 108, 100
2, 282000, Note_on_c, 0, 96, 0
2, 282000, Note_on_c, 0, 98, 0
2, 282000, Note_on_c, 0, 84, 0
2, 282000, Note_on_c, 0, 86, 0
2, 282000, Note_on_c, 0, 72, 0
2, 282240, Note_on_c, 0, 96, 100
2, 282240, Note_on_c, 0, 98, 100
2, 282240, Note_on_c, 0, 84, 100
2, 282240, Note_on_c, 0, 86, 100
2, 282240, Note_on_c, 0, 72, 100
2, 282240, Note_on_c, 0, 60, 100
2, 282480, Note_on_c, 0, 96, 0
2, 282480, Note_on_c, 0, 98, 0
2, 282480, Note_on_c, 0, 84, 0
2, 282480, Note_on_c, 0, 86, 0
2, 282480, Note_on_c, 0, 72, 0
2, 282480, Note_on_c, 0, 60, 0
2, 282720, Note_on_c, 0, 96, 100
2, 282720, Note_on_c, 0, 98, 100
2, 282720, Note_on_c, 0, 84, 100
2, 282720, Note_on_c, 0, 86, 100
2, 282720, Note_on_c, 0, 72, 100
2, 282960, Note_on_c, 0, 108, 0
2, 282960, Note_on_c, 0, 96, 0
2, 282960, Note_on_c, 0, 98, 0
2, 282960, Note_on_c, 0, 84, 0
2, 282960, Note_on_c, 0, 86, 0
2, 282960, Note_on_c, 0, 72, 0
2, 283200, Note_on_c, 0, 96, 100
2, 283200, Note_on_c, 0, 98, 100
2, 283200, Note_on_c, 0, 84, 100
2, 283200, Note_on_c, 0, 86, 100
2, 283200, Note_on_c, 0, 72, 100
2, 283200, Note_on_c, 0, 108, 100
2, 283440, Note_on_c, 0, 96, 0
2, 283440, Note_on_c, 0, 98, 0
2, 283440, Note_on_c, 0, 84, 0
2, 283440, Note_on_c, 0, 86, 0
2, 283440, Note_on_c, 0, 72, 0
2, 283650, Note_on_c, 0, 105, 100
2, 283650, Note_on_c, 0, 93, 100
2, 283650, Note_on_c, 0, 69, 100
2, 283650, Note_on_c, 0, 81, 100
2, 283680, Note_on_c, 0, 97, 100
2, 283680, Note_on_c, 0, 85, 100
2, 283680, Note_on_c, 0, 73, 100
2, 283680, Note_on_c, 0, 60, 100
2, 284640, Note_on_c, 0, 97, 0
2, 284640, Note_on_c, 0, 85, 0
2, 284640, Note_on_c, 0, 73, 0
2, 284640, Note_on_c, 0, 60, 0
2, 284640, Note_on_c, 0, 98, 100
2, 284640, Note_on_c, 0, 86, 100
2, 284880, Note_on_c, 0, 108, 0
2, 284880, Note_on_c, 0, 98, 0
2, 284880, Note_on_c, 0, 86, 0
2, 285120, Note_on_c, 0, 99, 100
2, 285120, Note_on_c, 0, 87, 100
2, 285120, Note_on_c, 0, 74, 100
2, 285360, Note_on_c, 0, 99, 0
2, 285360, Note_on_c, 0, 87, 0
2, 285360, Note_on_c, 0, 74, 0
2, 285600, Note_on_c, 0, 100, 100
2, 285600, Note_on_c, 0, 88, 100
2, 285600, Note_on_c, 0, 75, 100
2, 285600, Note_on_c, 0, 62, 100
2, 286080, Note_on_c, 0, 108, 100
2, 286560, Note_on_c, 0, 100, 0
2, 286560, Note_on_c, 0, 88, 0
2, 286560, Note_on_c, 0, 75, 0
2, 286560, Note_on_c, 0, 62, 0
2, 286560, Note_on_c, 0, 99, 100
2, 286560, Note_on_c, 0, 87, 100
2, 286800, Note_on_c, 0, 99, 0
2, 286800, Note_on_c, 0, 87, 0
2, 287040, Note_on_c, 0, 98, 100
2, 287040, Note_on_c, 0, 86, 100
2, 287040, Note_on_c, 0, 74, 100
2, 287280, Note_on_c, 0, 98, 0
2, 287280, Note_on_c, 0, 86, 0
2, 287280, Note_on_c, 0, 74, 0
2, 287360, Note_on_c, 0, 108, 0
2, 287520, Note_on_c, 0, 97, 100
2, 287520, Note_on_c, 0, 85, 100
2, 287520, Note_on_c, 0, 73, 100
2, 287520, Note_on_c, 0, 60, 100
2, 287520, Note_on_c, 0, 108, 100
2, 288480, Note_on_c, 0, 97, 0
2, 288480, Note_on_c, 0, 85, 0
2, 288480, Note_on_c, 0, 73, 0
2, 288480, Note_on_c, 0, 60, 0
2, 288480, Note_on_c, 0, 98, 100
2, 288480, Note_on_c, 0, 86, 100
2, 288720, Note_on_c, 0, 98, 0
2, 288720, Note_on_c, 0, 86, 0
2, 288960, Note_on_c, 0, 100, 100
2, 288960, Note_on_c, 0, 88, 100
2, 288960, Note_on_c, 0, 75, 100
2, 289200, Note_on_c, 0, 100, 0
2, 289200, Note_on_c, 0, 88, 0
2, 289200, Note_on_c, 0, 75, 0
2, 289440, Note_on_c, 0, 99, 100
2, 289440, Note_on_c, 0, 87, 100
2, 289440, Note_on_c, 0, 74, 100
2, 289440, Note_on_c, 0, 61, 100
2, 290400, Note_on_c, 0, 99, 0
2, 290400, Note_on_c, 0, 87, 0
2, 290400, Note_on_c, 0, 74, 0
2, 290400, Note_on_c, 0, 61, 0
2, 290400, Note_on_c, 0, 98, 100
2, 290400, Note_on_c, 0, 86, 100
2, 290640, Note_on_c, 0, 98, 0
2, 290640, Note_on_c, 0, 86, 0
2, 290880, Note_on_c, 0, 108, 0
2, 290880, Note_on_c, 0, 97, 100
2, 290880, Note_on_c, 0, 85, 100
2, 290880, Note_on_c, 0, 73, 100
2, 291120, Note_on_c, 0, 97, 0
2, 291120, Note_on_c, 0, 85, 0
2, 291120, Note_on_c, 0, 73, 0
2, 291360, Note_on_c, 0, 98, 100
2, 291360, Note_on_c, 0, 86, 100
2, 291360, Note_on_c, 0, 74, 100
2, 291360, Note_on_c, 0, 61, 100
2, 292560, Note_on_c, 0, 98, 0
2, 292560, Note_on_c, 0, 86, 0
2, 292560, Note_on_c, 0, 74, 0
2, 292560, Note_on_c, 0, 61, 0
2, 292770, Note_on_c, 0, 106, 0
2, 292770, Note_on_c, 0, 94, 0
2, 292770, Note_on_c, 0, 70, 0
2, 292770, Note_on_c, 0, 82, 0
2, 292800, Note_on_c, 0, 108, 100
2, 293280, Note_on_c, 0, 108, 0
2, 293760, Note_on_c, 0, 108, 100
2, 294480, Note_on_c, 0, 108, 0
2, 294720, Note_on_c, 0, 108, 100
2, 295520, Note_on_c, 0, 108, 0
2, 295680, Note_on_c, 0, 108, 100
2, 296480, Note_on_c, 0, 108, 0
2, 296640, Note_on_c, 0, 108, 100
2, 297280, Note_on_c, 0, 108, 0
2, 297600, Note_on_c, 0, 108, 100
2, 297920, Note_on_c, 0, 108, 0
2, 298080, Note_on_c, 0, 108, 100
2, 298400, Note_on_c, 0, 108, 0
2, 298880, Note_on_c, 0, 108, 100
2, 299010, Note_on_c, 0, 103, 100
2, 299010, Note_on_c, 0, 91, 100
2, 299010, Note_on_c, 0, 79, 100
2, 299010, Note_on_c, 0, 67, 100
2, 299040, Note_on_c, 0, 97, 100
2, 299040, Note_on_c, 0, 99, 100
2, 299040, Note_on_c, 0, 85, 100
2, 299040, Note_on_c, 0, 87, 100
2, 299040, Note_on_c, 0, 73, 100
2, 299040, Note_on_c, 0, 75, 100
2, 299040, Note_on_c, 0, 61, 100
2, 299490, Text_t, "bass_off"
2, 299490, Text_t, "drum_off"
2, 300320, Note_on_c, 0, 108, 0
2, 300480, Note_on_c, 0, 108, 100
2, 300960, Note_on_c, 0, 108, 0
2, 301440, Note_on_c, 0, 108, 100
2, 302160, Note_on_c, 0, 108, 0
2, 302400, Note_on_c, 0, 108, 100
2, 302640, Note_on_c, 0, 97, 0
2, 302640, Note_on_c, 0, 99, 0
2, 302640, Note_on_c, 0, 85, 0
2, 302640, Note_on_c, 0, 87, 0
2, 302640, Note_on_c, 0, 73, 0
2, 302640, Note_on_c, 0, 75, 0
2, 302640, Note_on_c, 0, 61, 0
2, 302720, Note_on_c, 0, 108, 0
2, 302850, Note_on_c, 0, 105, 0
2, 302850, Note_on_c, 0, 93, 0
2, 302850, Note_on_c, 0, 69, 0
2, 302850, Note_on_c, 0, 81, 0
2, 302850, Note_on_c, 0, 103, 0
2, 302850, Note_on_c, 0, 91, 0
2, 302850, Note_on_c, 0, 79, 0
2, 302850, Note_on_c, 0, 67, 0
2, 302850, Note_on_c, 0, 106, 100
2, 302850, Note_on_c, 0, 94, 100
2, 302850, Note_on_c, 0, 70, 100
2, 302850, Note_on_c, 0, 82, 100
2, 302880, Note_on_c, 0, 100, 100
2, 302880, Note_on_c, 0, 98, 100
2, 302880, Note_on_c, 0, 87, 100
2, 302880, Note_on_c, 0, 86, 100
2, 302880, Note_on_c, 0, 75, 100
2, 302880, Note_on_c, 0, 74, 100
2, 302880, Note_on_c, 0, 62, 100
2, 302880, Note_on_c, 0, 108, 100
2, 304320, Note_on_c, 0, 108, 0
2, 305250, Text_t, "drum_double"
2, 305280, Note_on_c, 0, 108, 100
2, 305600, Note_on_c, 0, 108, 0
2, 305760, Note_on_c, 0, 108, 100
2, 306080, Note_on_c, 0, 108, 0
2, 306240, Note_on_c, 0, 108, 100
2, 306480, Note_on_c, 0, 100, 0
2, 306480, Note_on_c, 0, 98, 0
2, 306480, Note_on_c, 0, 87, 0
2, 306480, Note_on_c, 0, 86, 0
2, 306480, Note_on_c, 0, 75, 0
2, 306480, Note_on_c, 0, 74, 0
2, 306480, Note_on_c, 0, 62, 0
2, 306560, Note_on_c, 0, 108, 0
2, 306690, Note_on_c, 0, 106, 0
2, 306690, Note_on_c, 0, 94, 0
2, 306690, Note_on_c, 0, 70, 0
2, 306690, Note_on_c, 0, 82, 0
2, 306690, Note_on_c, 0, 105, 100
2, 306690, Note_on_c, 0, 93, 100
2, 306690, Note_on_c, 0, 69, 100
2, 306690, Note_on_c, 0, 81, 100
2, 306720, Note_on_c, 0, 96, 100
2, 306720, Note_on_c, 0, 98, 100
2, 306720, Note_on_c, 0, 84, 100
2, 306720, Note_on_c, 0, 86, 100
2, 306720, Note_on_c, 0, 72, 100
2, 306720, Note_on_c, 0, 74, 100
2, 306720, Note_on_c, 0, 60, 100
2, 306720, Note_on_c, 0, 108, 100
2, 307170, Text_t, "bass_on"
2, 307170, Text_t, "[chorus]"
2, 307840, Note_on_c, 0, 108, 0
2, 308640, Note_on_c, 0, 108, 100
2, 308960, Note_on_c, 0, 108, 0
2, 309120, Note_on_c, 0, 108, 100
2, 309600, Note_on_c, 0, 108, 0
2, 310080, Note_on_c, 0, 108, 100
2, 310320, Note_on_c, 0, 96, 0
2, 310320, Note_on_c, 0, 98, 0
2, 310320, Note_on_c, 0, 84, 0
2, 310320, Note_on_c, 0, 86, 0
2, 310320, Note_on_c, 0, 72, 0
2, 310320, Note_on_c, 0, 74, 0
2, 310320, Note_on_c, 0, 60, 0
2, 310400, Note_on_c, 0, 108, 0
2, 310530, Note_on_c, 0, 105, 0
2, 310530, Note_on_c, 0, 93, 0
2, 310530, Note_on_c, 0, 69, 0
2, 310530, Note_on_c, 0, 81, 0
2, 310530, Note_on_c, 0, 106, 100
2, 310530, Note_on_c, 0, 94, 100
2, 310530, Note_on_c, 0, 70, 100
2, 310530, Note_on_c, 0, 82, 100
2, 310560, Note_on_c, 0, 97, 100
2, 310560, Note_on_c, 0, 98, 100
2, 310560, Note_on_c, 0, 85, 100
2, 310560, Note_on_c, 0, 86, 100
2, 310560, Note_on_c, 0, 73, 100
2, 310560, Note_on_c, 0, 74, 100
2, 310560, Note_on_c, 0, 61, 100
2, 310560, Note_on_c, 0, 108, 100
2, 311360, Note_on_c, 0, 108, 0
2, 311520, Note_on_c, 0, 108, 100
2, 312320, Note_on_c, 0, 108, 0
2, 312480, Note_on_c, 0, 108, 100
2, 313280, Note_on_c, 0, 108, 0
2, 313440, Note_on_c, 0, 108, 100
2, 314160, Note_on_c, 0, 97, 0
2, 314160, Note_on_c, 0, 98, 0
2, 314160, Note_on_c, 0, 85, 0
2, 314160, Note_on_c, 0, 86, 0
2, 314160, Note_on_c, 0, 73, 0
2, 314160, Note_on_c, 0, 74, 0
2, 314160, Note_on_c, 0, 61, 0
2, 314370, Note_on_c, 0, 106, 0
2, 314370, Note_on_c, 0, 94, 0
2, 314370, Note_on_c, 0, 70, 0
2, 314370, Note_on_c, 0, 82, 0
2, 314370, Note_on_c, 0, 105, 100
2, 314370, Note_on_c, 0, 93, 100
2, 314370, Note_on_c, 0, 69, 100
2, 314370, Note_on_c, 0, 81, 100
2, 314400, Note_on_c, 0, 108, 0
2, 314400, Note_on_c, 0, 97, 100
2, 314400, Note_on_c, 0, 99, 100
2, 314400, Note_on_c, 0, 85, 100
2, 314400, Note_on_c, 0, 87, 100
2, 314400, Note_on_c, 0, 73, 100
2, 314400, Note_on_c, 0, 75, 100
2, 314400, Note_on_c, 0, 61, 100
2, 314880, Note_on_c, 0, 108, 100
2, 316640, Note_on_c, 0, 108, 0
2, 316800, Note_on_c, 0, 108, 100
2, 318000, Note_on_c, 0, 97, 0
2, 318000, Note_on_c, 0, 99, 0
2, 318000, Note_on_c, 0, 85, 0
2, 318000, Note_on_c, 0, 87, 0
2, 318000, Note_on_c, 0, 73, 0
2, 318000, Note_on_c, 0, 75, 0
2, 318000, Note_on_c, 0, 61, 0
2, 318210, Note_on_c, 0, 105, 0
2, 318210, Note_on_c, 0, 93, 0
2, 318210, Note_on_c, 0, 69, 0
2, 318210, Note_on_c, 0, 81, 0
2, 318210, Note_on_c, 0, 106, 100
2, 318210, Note_on_c, 0, 94, 100
2, 318210, Note_on_c, 0, 70, 100
2, 318210, Note_on_c, 0, 82, 100
2, 318240, Note_on_c, 0, 100, 100
2, 318240, Note_on_c, 0, 98, 100
2, 318240, Note_on_c, 0, 87, 100
2, 318240, Note_on_c, 0, 86, 100
2, 318240, Note_on_c, 0, 75, 100
2, 318240, Note_on_c, 0, 74, 100
2, 318240, Note_on_c, 0, 62, 100
2, 318400, Note_on_c, 0, 108, 0
2, 318720, Note_on_c, 0, 108, 100
2, 320320, Note_on_c, 0, 108, 0
2, 320640, Note_on_c, 0, 108, 100
2, 321840, Note_on_c, 0, 100, 0
2, 321840, Note_on_c, 0, 98, 0
2, 321840, Note_on_c, 0, 87, 0
2, 321840, Note_on_c, 0, 86, 0
2, 321840, Note_on_c, 0, 75, 0
2, 321840, Note_on_c, 0, 74, 0
2, 321840, Note_on_c, 0, 62, 0
2, 322050, Note_on_c, 0, 106, 0
2, 322050, Note_on_c, 0, 94, 0
2, 322050, Note_on_c, 0, 70, 0
2, 322050, Note_on_c, 0, 82, 0
2, 322050, Note_on_c, 0, 105, 100
2, 322050, Note_on_c, 0, 93, 100
2, 322050, Note_on_c, 0, 69, 100
2, 322050, Note_on_c, 0, 81, 100
2, 322080, Note_on_c, 0, 96, 100
2, 322080, Note_on_c, 0, 98, 100
2, 322080, Note_on_c, 0, 84, 100
2, 322080, Note_on_c, 0, 86, 100
2, 322080, Note_on_c, 0, 72, 100
2, 322080, Note_on_c, 0, 74, 100
2, 322080, Note_on_c, 0, 61, 100
2, 322400, Note_on_c, 0, 108, 0
2, 322560, Note_on_c, 0, 108, 100
2, 324320, Note_on_c, 0, 108, 0
2, 324480, Note_on_c, 0, 108, 100
2, 325680, Note_on_c, 0, 96, 0
2, 325680, Note_on_c, 0, 98, 0
2, 325680, Note_on_c, 0, 84, 0
2, 325680, Note_on_c, 0, 86, 0
2, 325680, Note_on_c, 0, 72, 0
2, 325680, Note_on_c, 0, 74, 0
2, 325680, Note_on_c, 0, 61, 0
2, 325890, Note_on_c, 0, 106, 100
2, 325890, Note_on_c, 0, 94, 100
2, 325890, Note_on_c, 0, 70, 100
2, 325890, Note_on_c, 0, 82, 100
2, 325920, Note_on_c, 0, 96, 100
2, 325920, Note_on_c, 0, 97, 100
2, 325920, Note_on_c, 0, 84, 100
2, 325920, Note_on_c, 0, 85, 100
2, 325920, Note_on_c, 0, 72, 100
2, 325920, Note_on_c, 0, 73, 100
2, 325920, Note_on_c, 0, 60, 100
2, 326080, Note_on_c, 0, 108, 0
2, 326400, Note_on_c, 0, 108, 100
2, 328800, Note_on_c, 0, 108, 0
2, 329520, Note_on_c, 0, 96, 0
2, 329520, Note_on_c, 0, 97, 0
2, 329520, Note_on_c, 0, 84, 0
2, 329520, Note_on_c, 0, 85, 0
2, 329520, Note_on_c, 0, 72, 0
2, 329520, Note_on_c, 0, 73, 0
2, 329520, Note_on_c, 0, 60, 0
2, 329730, Note_on_c, 0, 105, 0
2, 329730, Note_on_c, 0, 93, 0
2, 329730, Note_on_c, 0, 69, 0
2, 329730, Note_on_c, 0, 81, 0
2, 329730, Note_on_c, 0, 103, 100
2, 329730, Note_on_c, 0, 91, 100
2, 329730, Note_on_c, 0, 79, 100
2, 329730, Note_on_c, 0, 67, 100
2, 329760, Note_on_c, 0, 97, 100
2, 329760, Note_on_c, 0, 99, 100
2, 329760, Note_on_c, 0, 85, 100
2, 329760, Note_on_c, 0, 87, 100
2, 329760, Note_on_c, 0, 73, 100
2, 329760, Note_on_c, 0, 75, 100
2, 329760, Note_on_c, 0, 61, 100
2, 331200, Note_on_c, 0, 108, 100
2, 331680, Note_on_c, 0, 108, 0
2, 332160, Note_on_c, 0, 108, 100
2, 332880, Note_on_c, 0, 108, 0
2, 333120, Note_on_c, 0, 108, 100
2, 333360, Note_on_c, 0, 97, 0
2, 333360, Note_on_c, 0, 99, 0
2, 333360, Note_on_c, 0, 85, 0
2, 333360, Note_on_c, 0, 87, 0
2, 333360, Note_on_c, 0, 73, 0
2, 333360, Note_on_c, 0, 75, 0
2, 333360, Note_on_c, 0, 61, 0
2, 333440, Note_on_c, 0, 108, 0
2, 333570, Note_on_c, 0, 106, 0
2, 333570, Note_on_c, 0, 94, 0
2, 333570, Note_on_c, 0, 70, 0
2, 333570, Note_on_c, 0, 82, 0
2, 333570, Note_on_c, 0, 103, 0
2, 333570, Note_on_c, 0, 91, 0
2, 333570, Note_on_c, 0, 79, 0
2, 333570, Note_on_c, 0, 67, 0
2, 333570, Note_on_c, 0, 105, 100
2, 333570, Note_on_c, 0, 93, 100
2, 333570, Note_on_c, 0, 69, 100
2, 333570, Note_on_c, 0, 81, 100
2, 333600, Note_on_c, 0, 100, 100
2, 333600, Note_on_c, 0, 98, 100
2, 333600, Note_on_c, 0, 87, 100
2, 333600, Note_on_c, 0, 86, 100
2, 333600, Note_on_c, 0, 75, 100
2, 333600, Note_on_c, 0, 74, 100
2, 333600, Note_on_c, 0, 62, 100
2, 333600, Note_on_c, 0, 108, 100
2, 334720, Note_on_c, 0, 108, 0
2, 335040, Note_on_c, 0, 108, 100
2, 335680, Note_on_c, 0, 108, 0
2, 336000, Note_on_c, 0, 108, 100
2, 336640, Note_on_c, 0, 108, 0
2, 336960, Note_on_c, 0, 108, 100
2, 337200, Note_on_c, 0, 100, 0
2, 337200, Note_on_c, 0, 98, 0
2, 337200, Note_on_c, 0, 87, 0
2, 337200, Note_on_c, 0, 86, 0
2, 337200, Note_on_c, 0, 75, 0
2, 337200, Note_on_c, 0, 74, 0
2, 337200, Note_on_c, 0, 62, 0
2, 337280, Note_on_c, 0, 108, 0
2, 337410, Note_on_c, 0, 106, 100
2, 337410, Note_on_c, 0, 94, 100
2, 337410, Note_on_c, 0, 70, 100
2, 337410, Note_on_c, 0, 82, 100
2, 337440, Note_on_c, 0, 97, 100
2, 337440, Note_on_c, 0, 85, 100
2, 337440, Note_on_c, 0, 72, 100
2, 337440, Note_on_c, 0, 74, 100
2, 337440, Note_on_c, 0, 60, 100
2, 337440, Note_on_c, 0, 108, 100
2, 338240, Note_on_c, 0, 108, 0
2, 338640, Note_on_c, 0, 97, 0
2, 338640, Note_on_c, 0, 85, 0
2, 338880, Note_on_c, 0, 99, 100
2, 338880, Note_on_c, 0, 87, 100
2, 338880, Note_on_c, 0, 108, 100
2, 339520, Note_on_c, 0, 108, 0
2, 339840, Note_on_c, 0, 108, 100
2, 340080, Note_on_c, 0, 99, 0
2, 340080, Note_on_c, 0, 87, 0
2, 340320, Note_on_c, 0, 97, 100
2, 340320, Note_on_c, 0, 85, 100
2, 340800, Note_on_c, 0, 108, 0
2, 341040, Note_on_c, 0, 72, 0
2, 341040, Note_on_c, 0, 74, 0
2, 341040, Note_on_c, 0, 60, 0
2, 341040, Note_on_c, 0, 97, 0
2, 341040, Note_on_c, 0, 85, 0
2, 341280, Note_on_c, 0, 98, 100
2, 341280, Note_on_c, 0, 86, 100
2, 341280, Note_on_c, 0, 73, 100
2, 341280, Note_on_c, 0, 74, 100
2, 341280, Note_on_c, 0, 61, 100
2, 341760, Note_on_c, 0, 108, 100
2, 342400, Note_on_c, 0, 108, 0
2, 342480, Note_on_c, 0, 98, 0
2, 342480, Note_on_c, 0, 86, 0
2, 342720, Note_on_c, 0, 100, 100
2, 342720, Note_on_c, 0, 88, 100
2, 342720, Note_on_c, 0, 108, 100
2, 343040, Note_on_c, 0, 108, 0
2, 343200, Note_on_c, 0, 108, 100
2, 343920, Note_on_c, 0, 100, 0
2, 343920, Note_on_c, 0, 88, 0
2, 344160, Note_on_c, 0, 108, 0
2, 344160, Note_on_c, 0, 98, 100
2, 344160, Note_on_c, 0, 86, 100
2, 344640, Note_on_c, 0, 108, 100
2, 344880, Note_on_c, 0, 73, 0
2, 344880, Note_on_c, 0, 74, 0
2, 344880, Note_on_c, 0, 61, 0
2, 344880, Note_on_c, 0, 98, 0
2, 344880, Note_on_c, 0, 86, 0
2, 345090, Note_on_c, 0, 105, 0
2, 345090, Note_on_c, 0, 93, 0
2, 345090, Note_on_c, 0, 69, 0
2, 345090, Note_on_c, 0, 81, 0
2, 345120, Note_on_c, 0, 97, 100
2, 345120, Note_on_c, 0, 99, 100
2, 345120, Note_on_c, 0, 85, 100
2, 345120, Note_on_c, 0, 87, 100
2, 345120, Note_on_c, 0, 73, 100
2, 345120, Note_on_c, 0, 75, 100
2, 345120, Note_on_c, 0, 61, 100
2, 345280, Note_on_c, 0, 108, 0
2, 345600, Note_on_c, 0, 108, 100
2, 347200, Note_on_c, 0, 108, 0
2, 347520, Note_on_c, 0, 108, 100
2, 348720, Note_on_c, 0, 97, 0
2, 348720, Note_on_c, 0, 99, 0
2, 348720, Note_on_c, 0, 85, 0
2, 348720, Note_on_c, 0, 87, 0
2, 348720, Note_on_c, 0, 73, 0
2, 348720, Note_on_c, 0, 75, 0
2, 348720, Note_on_c, 0, 61, 0
2, 348930, Note_on_c, 0, 106, 0
2, 348930, Note_on_c, 0, 94, 0
2, 348930, Note_on_c, 0, 70, 0
2, 348930, Note_on_c, 0, 82, 0
2, 348930, Note_on_c, 0, 105, 100
2, 348930, Note_on_c, 0, 93, 100
2, 348930, Note_on_c, 0, 69, 100
2, 348930, Note_on_c, 0, 81, 100
2, 348960, Note_on_c, 0, 100, 100
2, 348960, Note_on_c, 0, 98, 100
2, 348960, Note_on_c, 0, 87, 100
2, 348960, Note_on_c, 0, 86, 100
2, 348960, Note_on_c, 0, 75, 100
2, 348960, Note_on_c, 0, 74, 100
2, 348960, Note_on_c, 0, 62, 100
2, 349280, Note_on_c, 0, 108, 0
2, 349440, Note_on_c, 0, 108, 100
2, 351200, Note_on_c, 0, 108, 0
2, 351360, Note_on_c, 0, 108, 100
2, 352160, Note_on_c, 0, 108, 0
2, 352560, Note_on_c, 0, 100, 0
2, 352560, Note_on_c, 0, 98, 0
2, 352560, Note_on_c, 0, 87, 0
2, 352560, Note_on_c, 0, 86, 0
2, 352560, Note_on_c, 0, 75, 0
2, 352560, Note_on_c, 0, 74, 0
2, 352560, Note_on_c, 0, 62, 0
2, 352770, Note_on_c, 0, 105, 0
2, 352770, Note_on_c, 0, 93, 0
2, 352770, Note_on_c, 0, 69, 0
2, 352770, Note_on_c, 0, 81, 0
2, 352770, Note_on_c, 0, 106, 100
2, 352770, Note_on_c, 0, 94, 100
2, 352770, Note_on_c, 0, 70, 100
2, 352770, Note_on_c, 0, 82, 100
2, 352800, Note_on_c, 0, 96, 100
2, 352800, Note_on_c, 0, 98, 100
2, 352800, Note_on_c, 0, 84, 100
2, 352800, Note_on_c, 0, 86, 100
2, 352800, Note_on_c, 0, 72, 100
2, 352800, Note_on_c, 0, 74, 100
2, 352800, Note_on_c, 0, 61, 100
2, 353280, Note_on_c, 0, 108, 100
2, 355040, Note_on_c, 0, 108, 0
2, 355200, Note_on_c, 0, 108, 100
2, 356400, Note_on_c, 0, 96, 0
2, 356400, Note_on_c, 0, 98, 0
2, 356400, Note_on_c, 0, 84, 0
2, 356400, Note_on_c, 0, 86, 0
2, 356400, Note_on_c, 0, 72, 0
2, 356400, Note_on_c, 0, 74, 0
2, 356400, Note_on_c, 0, 61, 0
2, 356610, Note_on_c, 0, 105, 100
2, 356610, Note_on_c, 0, 93, 100
2, 356610, Note_on_c, 0, 69, 100
2, 356610, Note_on_c, 0, 81, 100
2, 356640, Note_on_c, 0, 96, 100
2, 356640, Note_on_c, 0, 97, 100
2, 356640, Note_on_c, 0, 84, 100
2, 356640, Note_on_c, 0, 85, 100
2, 356640, Note_on_c, 0, 72, 100
2, 356640, Note_on_c, 0, 73, 100
2, 356640, Note_on_c, 0, 60, 100
2, 356960, Note_on_c, 0, 108, 0
2, 357120, Note_on_c, 0, 108, 100
2, 358560, Note_on_c, 0, 108, 0
2, 358800, Note_on_c, 0, 96, 0
2, 358800, Note_on_c, 0, 97, 0
2, 358800, Note_on_c, 0, 84, 0
2, 358800, Note_on_c, 0, 85, 0
2, 358800, Note_on_c, 0, 72, 0
2, 358800, Note_on_c, 0, 73, 0
2, 358880, Note_on_c, 0, 108, 100
2, 359040, Note_on_c, 0, 99, 100
2, 359040, Note_on_c, 0, 84, 100
2, 359040, Note_on_c, 0, 72, 100
2, 359280, Note_on_c, 0, 99, 0
2, 359280, Note_on_c, 0, 84, 0
2, 359280, Note_on_c, 0, 72, 0
2, 359520, Note_on_c, 0, 98, 100
2, 359520, Note_on_c, 0, 84, 100
2, 359520, Note_on_c, 0, 72, 100
2, 359760, Note_on_c, 0, 98, 0
2, 359760, Note_on_c, 0, 84, 0
2, 359760, Note_on_c, 0, 72, 0
2, 360000, Note_on_c, 0, 97, 100
2, 360000, Note_on_c, 0, 84, 100
2, 360000, Note_on_c, 0, 72, 100
2, 360240, Note_on_c, 0, 60, 0
2, 360240, Note_on_c, 0, 97, 0
2, 360240, Note_on_c, 0, 84, 0
2, 360240, Note_on_c, 0, 72, 0
2, 360320, Note_on_c, 0, 108, 0
2, 360480, Note_on_c, 0, 96, 100
2, 360480, Note_on_c, 0, 97, 100
2, 360480, Note_on_c, 0, 84, 100
2, 360480, Note_on_c, 0, 85, 100
2, 360480, Note_on_c, 0, 72, 100
2, 360480, Note_on_c, 0, 73, 100
2, 360480, Note_on_c, 0, 60, 100
2, 360640, Note_on_c, 0, 108, 100
2, 361920, Note_on_c, 0, 96, 0
2, 361920, Note_on_c, 0, 97, 0
2, 361920, Note_on_c, 0, 84, 0
2, 361920, Note_on_c, 0, 85, 0
2, 361920, Note_on_c, 0, 72, 0
2, 361920, Note_on_c, 0, 73, 0
2, 361920, Note_on_c, 0, 60, 0
2, 362720, Note_on_c, 0, 108, 0
2, 368610, Text_t, "[verse]"
2, 368610, Text_t, "[idle]"
2, 368610, Text_t, "drum_off"
2, 372450, Text_t, "sing_off"
2, 383250, Note_on_c, 0, 103, 100
2, 383250, Note_on_c, 0, 91, 100
2, 383250, Note_on_c, 0, 79, 100
2, 383250, Note_on_c, 0, 67, 100
2, 383520, Note_on_c, 0, 97, 100
2, 383520, Note_on_c, 0, 85, 100
2, 383520, Note_on_c, 0, 73, 100
2, 383520, Note_on_c, 0, 60, 100
2, 384480, Note_on_c, 0, 97, 0
2, 384480, Note_on_c, 0, 85, 0
2, 384480, Note_on_c, 0, 73, 0
2, 384480, Note_on_c, 0, 60, 0
2, 384480, Note_on_c, 0, 98, 100
2, 384480, Note_on_c, 0, 86, 100
2, 384720, Note_on_c, 0, 98, 0
2, 384720, Note_on_c, 0, 86, 0
2, 384960, Note_on_c, 0, 99, 100
2, 384960, Note_on_c, 0, 87, 100
2, 384960, Note_on_c, 0, 74, 100
2, 385200, Note_on_c, 0, 99, 0
2, 385200, Note_on_c, 0, 87, 0
2, 385200, Note_on_c, 0, 74, 0
2, 385440, Note_on_c, 0, 100, 100
2, 385440, Note_on_c, 0, 88, 100
2, 385440, Note_on_c, 0, 75, 100
2, 385440, Note_on_c, 0, 62, 100
2, 386400, Note_on_c, 0, 100, 0
2, 386400, Note_on_c, 0, 88, 0
2, 386400, Note_on_c, 0, 75, 0
2, 386400, Note_on_c, 0, 62, 0
2, 386400, Note_on_c, 0, 99, 100
2, 386400, Note_on_c, 0, 87, 100
2, 386640, Note_on_c, 0, 99, 0
2, 386640, Note_on_c, 0, 87, 0
2, 386880, Note_on_c, 0, 98, 100
2, 386880, Note_on_c, 0, 86, 100
2, 386880, Note_on_c, 0, 74, 100
2, 387120, Note_on_c, 0, 98, 0
2, 387120, Note_on_c, 0, 86, 0
2, 387120, Note_on_c, 0, 74, 0
2, 387360, Note_on_c, 0, 97, 100
2, 387360, Note_on_c, 0, 85, 100
2, 387360, Note_on_c, 0, 73, 100
2, 387360, Note_on_c, 0, 60, 100
2, 388320, Note_on_c, 0, 97, 0
2, 388320, Note_on_c, 0, 85, 0
2, 388320, Note_on_c, 0, 73, 0
2, 388320, Note_on_c, 0, 60, 0
2, 388320, Note_on_c, 0, 98, 100
2, 388320, Note_on_c, 0, 86, 100
2, 388560, Note_on_c, 0, 98, 0
2, 388560, Note_on_c, 0, 86, 0
2, 388800, Note_on_c, 0, 100, 100
2, 388800, Note_on_c, 0, 88, 100
2, 388800, Note_on_c, 0, 75, 100
2, 389040, Note_on_c, 0, 100, 0
2, 389040, Note_on_c, 0, 88, 0
2, 389040, Note_on_c, 0, 75, 0
2, 389280, Note_on_c, 0, 99, 100
2, 389280, Note_on_c, 0, 87, 100
2, 389280, Note_on_c, 0, 74, 100
2, 389280, Note_on_c, 0, 61, 100
2, 389730, Text_t, "[play]"
2, 390240, Note_on_c, 0, 99, 0
2, 390240, Note_on_c, 0, 87, 0
2, 390240, Note_on_c, 0, 74, 0
2, 390240, Note_on_c, 0, 61, 0
2, 390240, Note_on_c, 0, 98, 100
2, 390240, Note_on_c, 0, 86, 100
2, 390480, Note_on_c, 0, 98, 0
2, 390480, Note_on_c, 0, 86, 0
2, 390720, Note_on_c, 0, 97, 100
2, 390720, Note_on_c, 0, 85, 100
2, 390720, Note_on_c, 0, 73, 100
2, 390960, Note_on_c, 0, 97, 0
2, 390960, Note_on_c, 0, 85, 0
2, 390960, Note_on_c, 0, 73, 0
2, 391170, Note_on_c, 0, 103, 0
2, 391170, Note_on_c, 0, 91, 0
2, 391170, Note_on_c, 0, 79, 0
2, 391170, Note_on_c, 0, 67, 0
2, 391650, Note_on_c, 0, 106, 0
2, 391650, Note_on_c, 0, 94, 0
2, 391650, Note_on_c, 0, 70, 0
2, 391650, Note_on_c, 0, 82, 0
2, 391680, Note_on_c, 0, 96, 100
2, 391680, Note_on_c, 0, 84, 100
2, 391680, Note_on_c, 0, 72, 100
2, 391680, Note_on_c, 0, 60, 100
2, 391920, Note_on_c, 0, 96, 0
2, 391920, Note_on_c, 0, 84, 0
2, 391920, Note_on_c, 0, 72, 0
2, 391920, Note_on_c, 0, 60, 0
2, 392160, Note_on_c, 0, 97, 100
2, 392160, Note_on_c, 0, 85, 100
2, 392400, Note_on_c, 0, 97, 0
2, 392400, Note_on_c, 0, 85, 0
2, 392640, Note_on_c, 0, 98, 100
2, 392640, Note_on_c, 0, 86, 100
2, 392640, Note_on_c, 0, 74, 100
2, 392880, Note_on_c, 0, 98, 0
2, 392880, Note_on_c, 0, 86, 0
2, 392880, Note_on_c, 0, 74, 0
2, 393120, Note_on_c, 0, 99, 100
2, 393120, Note_on_c, 0, 87, 100
2, 393360, Note_on_c, 0, 99, 0
2, 393360, Note_on_c, 0, 87, 0
2, 393600, Note_on_c, 0, 99, 100
2, 393600, Note_on_c, 0, 88, 100
2, 393600, Note_on_c, 0, 75, 100
2, 393600, Note_on_c, 0, 62, 100
2, 393840, Note_on_c, 0, 99, 0
2, 393840, Note_on_c, 0, 88, 0
2, 393840, Note_on_c, 0, 75, 0
2, 393840, Note_on_c, 0, 62, 0
2, 393840, Note_on_c, 0, 100, 100
2, 394080, Note_on_c, 0, 100, 0
2, 394080, Note_on_c, 0, 99, 100
2, 394080, Note_on_c, 0, 87, 100
2, 394320, Note_on_c, 0, 99, 0
2, 394320, Note_on_c, 0, 87, 0
2, 394560, Note_on_c, 0, 98, 100
2, 394560, Note_on_c, 0, 86, 100
2, 394560, Note_on_c, 0, 74, 100
2, 394560, Note_on_c, 0, 61, 100
2, 395490, Text_t, "drum_double"
2, 396000, Note_on_c, 0, 98, 0
2, 396000, Note_on_c, 0, 86, 0
2, 396000, Note_on_c, 0, 74, 0
2, 396000, Note_on_c, 0, 61, 0
2, 396480, Note_on_c, 0, 96, 100
2, 396480, Note_on_c, 0, 84, 100
2, 396480, Note_on_c, 0, 72, 100
2, 396720, Note_on_c, 0, 96, 0
2, 396720, Note_on_c, 0, 84, 0
2, 396720, Note_on_c, 0, 72, 0
2, 396960, Note_on_c, 0, 97, 100
2, 396960, Note_on_c, 0, 85, 100
2, 397200, Note_on_c, 0, 97, 0
2, 397200, Note_on_c, 0, 85, 0
2, 397440, Note_on_c, 0, 98, 100
2, 397440, Note_on_c, 0, 86, 100
2, 397440, Note_on_c, 0, 74, 100
2, 397440, Note_on_c, 0, 62, 100
2, 397680, Note_on_c, 0, 98, 0
2, 397680, Note_on_c, 0, 86, 0
2, 397680, Note_on_c, 0, 74, 0
2, 397680, Note_on_c, 0, 62, 0
2, 397920, Note_on_c, 0, 99, 100
2, 397920, Note_on_c, 0, 87, 100
2, 398160, Note_on_c, 0, 99, 0
2, 398160, Note_on_c, 0, 87, 0
2, 398400, Note_on_c, 0, 98, 100
2, 398400, Note_on_c, 0, 86, 100
2, 398400, Note_on_c, 0, 74, 100
2, 398400, Note_on_c, 0, 61, 100
2, 399330, Note_on_c, 0, 105, 0
2, 399330, Note_on_c, 0, 93, 0
2, 399330, Note_on_c, 0, 69, 0
2, 399330, Note_on_c, 0, 81, 0
2, 399330, Note_on_c, 0, 106, 100
2, 399330, Note_on_c, 0, 94, 100
2, 399330, Note_on_c, 0, 70, 100
2, 399330, Note_on_c, 0, 82, 100
2, 399360, Note_on_c, 0, 98, 0
2, 399360, Note_on_c, 0, 86, 0
2, 399360, Note_on_c, 0, 74, 0
2, 399360, Note_on_c, 0, 61, 0
2, 399360, Note_on_c, 0, 97, 100
2, 399360, Note_on_c, 0, 85, 100
2, 399360, Note_on_c, 0, 73, 100
2, 399360, Note_on_c, 0, 60, 100
2, 399600, Note_on_c, 0, 97, 0
2, 399600, Note_on_c, 0, 85, 0
2, 399600, Note_on_c, 0, 73, 0
2, 399600, Note_on_c, 0, 60, 0
2, 400320, Note_on_c, 0, 98, 100
2, 400320, Note_on_c, 0, 86, 100
2, 400320, Note_on_c, 0, 74, 100
2, 400560, Note_on_c, 0, 98, 0
2, 400560, Note_on_c, 0, 86, 0
2, 400560, Note_on_c, 0, 74, 0
2, 400800, Note_on_c, 0, 99, 100
2, 400800, Note_on_c, 0, 87, 100
2, 401040, Note_on_c, 0, 99, 0
2, 401040, Note_on_c, 0, 87, 0
2, 401280, Note_on_c, 0, 99, 100
2, 401280, Note_on_c, 0, 88, 100
2, 401280, Note_on_c, 0, 75, 100
2, 401280, Note_on_c, 0, 62, 100
2, 401520, Note_on_c, 0, 99, 0
2, 401520, Note_on_c, 0, 88, 0
2, 401520, Note_on_c, 0, 75, 0
2, 401520, Note_on_c, 0, 62, 0
2, 401520, Note_on_c, 0, 100, 100
2, 401760, Note_on_c, 0, 100, 0
2, 401760, Note_on_c, 0, 99, 100
2, 401760, Note_on_c, 0, 87, 100
2, 402000, Note_on_c, 0, 99, 0
2, 402000, Note_on_c, 0, 87, 0
2, 402240, Note_on_c, 0, 98, 100
2, 402240, Note_on_c, 0, 86, 100
2, 402240, Note_on_c, 0, 74, 100
2, 402240, Note_on_c, 0, 61, 100
2, 403680, Note_on_c, 0, 98, 0
2, 403680, Note_on_c, 0, 86, 0
2, 403680, Note_on_c, 0, 74, 0
2, 403680, Note_on_c, 0, 61, 0
2, 404160, Note_on_c, 0, 97, 100
2, 404160, Note_on_c, 0, 85, 100
2, 404160, Note_on_c, 0, 73, 100
2, 404400, Note_on_c, 0, 97, 0
2, 404400, Note_on_c, 0, 85, 0
2, 404400, Note_on_c, 0, 73, 0
2, 404640, Note_on_c, 0, 98, 100
2, 404640, Note_on_c, 0, 86, 100
2, 404880, Note_on_c, 0, 98, 0
2, 404880, Note_on_c, 0, 86, 0
2, 405120, Note_on_c, 0, 100, 100
2, 405120, Note_on_c, 0, 88, 100
2, 405120, Note_on_c, 0, 75, 100
2, 405120, Note_on_c, 0, 62, 100
2, 405360, Note_on_c, 0, 100, 0
2, 405360, Note_on_c, 0, 88, 0
2, 405360, Note_on_c, 0, 75, 0
2, 405360, Note_on_c, 0, 62, 0
2, 405600, Note_on_c, 0, 99, 100
2, 405600, Note_on_c, 0, 87, 100
2, 405840, Note_on_c, 0, 99, 0
2, 405840, Note_on_c, 0, 87, 0
2, 406080, Note_on_c, 0, 98, 100
2, 406080, Note_on_c, 0, 86, 100
2, 406080, Note_on_c, 0, 74, 100
2, 406080, Note_on_c, 0, 61, 100
2, 407010, Note_on_c, 0, 106, 0
2, 407010, Note_on_c, 0, 94, 0
2, 407010, Note_on_c, 0, 70, 0
2, 407010, Note_on_c, 0, 82, 0
2, 407010, Note_on_c, 0, 105, 100
2, 407010, Note_on_c, 0, 93, 100
2, 407010, Note_on_c, 0, 69, 100
2, 407010, Note_on_c, 0, 81, 100
2, 407040, Note_on_c, 0, 98, 0
2, 407040, Note_on_c, 0, 86, 0
2, 407040, Note_on_c, 0, 74, 0
2, 407040, Note_on_c, 0, 61, 0
2, 407040, Note_on_c, 0, 96, 100
2, 407040, Note_on_c, 0, 84, 100
2, 407040, Note_on_c, 0, 72, 100
2, 407040, Note_on_c, 0, 60, 100
2, 407280, Note_on_c, 0, 96, 0
2, 407280, Note_on_c, 0, 84, 0
2, 407280, Note_on_c, 0, 72, 0
2, 407280, Note_on_c, 0, 60, 0
2, 408000, Note_on_c, 0, 97, 100
2, 408000, Note_on_c, 0, 85, 100
2, 408000, Note_on_c, 0, 73, 100
2, 408240, Note_on_c, 0, 97, 0
2, 408240, Note_on_c, 0, 85, 0
2, 408240, Note_on_c, 0, 73, 0
2, 408480, Note_on_c, 0, 98, 100
2, 408480, Note_on_c, 0, 86, 100
2, 408720, Note_on_c, 0, 98, 0
2, 408720, Note_on_c, 0, 86, 0
2, 408960, Note_on_c, 0, 99, 100
2, 408960, Note_on_c, 0, 88, 100
2, 408960, Note_on_c, 0, 75, 100
2, 408960, Note_on_c, 0, 62, 100
2, 409200, Note_on_c, 0, 99, 0
2, 409200, Note_on_c, 0, 88, 0
2, 409200, Note_on_c, 0, 75, 0
2, 409200, Note_on_c, 0, 62, 0
2, 409200, Note_on_c, 0, 100, 100
2, 409440, Note_on_c, 0, 100, 0
2, 409440, Note_on_c, 0, 99, 100
2, 409440, Note_on_c, 0, 87, 100
2, 409680, Note_on_c, 0, 99, 0
2, 409680, Note_on_c, 0, 87, 0
2, 409920, Note_on_c, 0, 98, 100
2, 409920, Note_on_c, 0, 86, 100
2, 409920, Note_on_c, 0, 74, 100
2, 409920, Note_on_c, 0, 61, 100
2, 411360, Note_on_c, 0, 98, 0
2, 411360, Note_on_c, 0, 86, 0
2, 411360, Note_on_c, 0, 74, 0
2, 411360, Note_on_c, 0, 61, 0
2, 411840, Note_on_c, 0, 96, 100
2, 411840, Note_on_c, 0, 84, 100
2, 411840, Note_on_c, 0, 72, 100
2, 412080, Note_on_c, 0, 96, 0
2, 412080, Note_on_c, 0, 84, 0
2, 412080, Note_on_c, 0, 72, 0
2, 412320, Note_on_c, 0, 97, 100
2, 412320, Note_on_c, 0, 85, 100
2, 412560, Note_on_c, 0, 97, 0
2, 412560, Note_on_c, 0, 85, 0
2, 412800, Note_on_c, 0, 98, 100
2, 412800, Note_on_c, 0, 86, 100
2, 412800, Note_on_c, 0, 74, 100
2, 412800, Note_on_c, 0, 61, 100
2, 413040, Note_on_c, 0, 98, 0
2, 413040, Note_on_c, 0, 86, 0
2, 413040, Note_on_c, 0, 74, 0
2, 413040, Note_on_c, 0, 61, 0
2, 413280, Note_on_c, 0, 99, 100
2, 413280, Note_on_c, 0, 87, 100
2, 413520, Note_on_c, 0, 99, 0
2, 413520, Note_on_c, 0, 87, 0
2, 413760, Note_on_c, 0, 98, 100
2, 413760, Note_on_c, 0, 86, 100
2, 413760, Note_on_c, 0, 74, 100
2, 413760, Note_on_c, 0, 61, 100
2, 414690, Note_on_c, 0, 103, 100
2, 414690, Note_on_c, 0, 91, 100
2, 414690, Note_on_c, 0, 79, 100
2, 414690, Note_on_c, 0, 67, 100
2, 414690, Note_on_c, 0, 106, 100
2, 414690, Note_on_c, 0, 94, 100
2, 414690, Note_on_c, 0, 70, 100
2, 414690, Note_on_c, 0, 82, 100
2, 414720, Note_on_c, 0, 98, 0
2, 414720, Note_on_c, 0, 86, 0
2, 414720, Note_on_c, 0, 74, 0
2, 414720, Note_on_c, 0, 61, 0
2, 414720, Note_on_c, 0, 96, 100
2, 414720, Note_on_c, 0, 84, 100
2, 414720, Note_on_c, 0, 75, 100
2, 414720, Note_on_c, 0, 62, 100
2, 415920, Note_on_c, 0, 75, 0
2, 416160, Note_on_c, 0, 96, 0
2, 416160, Note_on_c, 0, 84, 0
2, 416160, Note_on_c, 0, 97, 100
2, 416160, Note_on_c, 0, 85, 100
2, 416160, Note_on_c, 0, 75, 100
2, 417360, Note_on_c, 0, 75, 0
2, 417600, Note_on_c, 0, 97, 0
2, 417600, Note_on_c, 0, 85, 0
2, 417600, Note_on_c, 0, 97, 100
2, 417600, Note_on_c, 0, 85, 100
2, 417600, Note_on_c, 0, 75, 100
2, 417840, Note_on_c, 0, 62, 0
2, 417840, Note_on_c, 0, 75, 0
2, 418560, Note_on_c, 0, 97, 0
2, 418560, Note_on_c, 0, 85, 0
2, 418560, Note_on_c, 0, 98, 100
2, 418560, Note_on_c, 0, 86, 100
2, 418560, Note_on_c, 0, 75, 100
2, 418560, Note_on_c, 0, 62, 100
2, 419760, Note_on_c, 0, 75, 0
2, 420000, Note_on_c, 0, 98, 0
2, 420000, Note_on_c, 0, 86, 0
2, 420000, Note_on_c, 0, 99, 100
2, 420000, Note_on_c, 0, 87, 100
2, 420000, Note_on_c, 0, 75, 100
2, 421200, Note_on_c, 0, 75, 0
2, 421440, Note_on_c, 0, 99, 0
2, 421440, Note_on_c, 0, 87, 0
2, 421440, Note_on_c, 0, 100, 100
2, 421440, Note_on_c, 0, 88, 100
2, 421440, Note_on_c, 0, 75, 100
2, 421680, Note_on_c, 0, 62, 0
2, 421680, Note_on_c, 0, 75, 0
2, 422400, Note_on_c, 0, 100, 0
2, 422400, Note_on_c, 0, 88, 0
2, 422400, Note_on_c, 0, 100, 100
2, 422400, Note_on_c, 0, 88, 100
2, 422400, Note_on_c, 0, 75, 100
2, 422400, Note_on_c, 0, 62, 100
2, 426000, Note_on_c, 0, 75, 0
2, 426000, Note_on_c, 0, 62, 0
2, 426210, Note_on_c, 0, 105, 0
2, 426210, Note_on_c, 0, 93, 0
2, 426210, Note_on_c, 0, 69, 0
2, 426210, Note_on_c, 0, 81, 0
2, 426210, Note_on_c, 0, 103, 0
2, 426210, Note_on_c, 0, 91, 0
2, 426210, Note_on_c, 0, 79, 0
2, 426210, Note_on_c, 0, 67, 0
2, 426240, Note_on_c, 0, 100, 0
2, 426240, Note_on_c, 0, 88, 0
2, 426240, Note_on_c, 0, 100, 100
2, 426240, Note_on_c, 0, 99, 100
2, 426240, Note_on_c, 0, 88, 100
2, 426240, Note_on_c, 0, 87, 100
2, 426240, Note_on_c, 0, 75, 100
2, 426240, Note_on_c, 0, 74, 100
2, 426240, Note_on_c, 0, 62, 100
2, 429840, Note_on_c, 0, 75, 0
2, 429840, Note_on_c, 0, 74, 0
2, 429840, Note_on_c, 0, 62, 0
2, 430050, Text_t, "[solo]"
2, 430050, Text_t, "solo_on"
2, 430080, Note_on_c, 0, 100, 0
2, 430080, Note_on_c, 0, 99, 0
2, 430080, Note_on_c, 0, 88, 0
2, 430080, Note_on_c, 0, 87, 0
2, 430080, Note_on_c, 0, 99, 100
2, 430080, Note_on_c, 0, 87, 100
2, 430080, Note_on_c, 0, 74, 100
2, 430080, Note_on_c, 0, 61, 100
2, 433680, Note_on_c, 0, 74, 0
2, 433680, Note_on_c, 0, 61, 0
2, 433920, Note_on_c, 0, 99, 0
2, 433920, Note_on_c, 0, 87, 0
2, 433920, Note_on_c, 0, 98, 100
2, 433920, Note_on_c, 0, 86, 100
2, 433920, Note_on_c, 0, 73, 100
2, 433920, Note_on_c, 0, 61, 100
2, 434160, Note_on_c, 0, 98, 0
2, 434160, Note_on_c, 0, 86, 0
2, 434160, Note_on_c, 0, 73, 0
2, 434160, Note_on_c, 0, 61, 0
2, 434400, Note_on_c, 0, 99, 100
2, 434400, Note_on_c, 0, 87, 100
2, 434640, Note_on_c, 0, 99, 0
2, 434640, Note_on_c, 0, 87, 0
2, 434880, Note_on_c, 0, 100, 100
2, 434880, Note_on_c, 0, 88, 100
2, 435120, Note_on_c, 0, 100, 0
2, 435120, Note_on_c, 0, 88, 0
2, 435360, Note_on_c, 0, 99, 100
2, 435360, Note_on_c, 0, 87, 100
2, 435360, Note_on_c, 0, 74, 100
2, 435360, Note_on_c, 0, 62, 100
2, 435600, Note_on_c, 0, 99, 0
2, 435600, Note_on_c, 0, 87, 0
2, 435600, Note_on_c, 0, 74, 0
2, 435600, Note_on_c, 0, 62, 0
2, 436320, Note_on_c, 0, 98, 100
2, 436320, Note_on_c, 0, 86, 100
2, 436320, Note_on_c, 0, 73, 100
2, 436560, Note_on_c, 0, 98, 0
2, 436560, Note_on_c, 0, 86, 0
2, 436560, Note_on_c, 0, 73, 0
2, 436800, Note_on_c, 0, 97, 100
2, 436800, Note_on_c, 0, 85, 100
2, 437040, Note_on_c, 0, 97, 0
2, 437040, Note_on_c, 0, 85, 0
2, 437280, Note_on_c, 0, 96, 100
2, 437280, Note_on_c, 0, 84, 100
2, 437280, Note_on_c, 0, 72, 100
2, 437280, Note_on_c, 0, 60, 100
2, 441360, Note_on_c, 0, 72, 0
2, 441360, Note_on_c, 0, 60, 0
2, 441570, Note_on_c, 0, 106, 0
2, 441570, Note_on_c, 0, 94, 0
2, 441570, Note_on_c, 0, 70, 0
2, 441570, Note_on_c, 0, 82, 0
2, 441570, Note_on_c, 0, 105, 100
2, 441570, Note_on_c, 0, 93, 100
2, 441570, Note_on_c, 0, 69, 100
2, 441570, Note_on_c, 0, 81, 100
2, 441600, Note_on_c, 0, 96, 0
2, 441600, Note_on_c, 0, 84, 0
2, 441600, Note_on_c, 0, 97, 100
2, 441600, Note_on_c, 0, 85, 100
2, 441600, Note_on_c, 0, 73, 100
2, 441600, Note_on_c, 0, 61, 100
2, 441840, Note_on_c, 0, 97, 0
2, 441840, Note_on_c, 0, 85, 0
2, 441840, Note_on_c, 0, 73, 0
2, 441840, Note_on_c, 0, 61, 0
2, 442080, Note_on_c, 0, 98, 100
2, 442080, Note_on_c, 0, 86, 100
2, 442320, Note_on_c, 0, 98, 0
2, 442320, Note_on_c, 0, 86, 0
2, 442560, Note_on_c, 0, 99, 100
2, 442560, Note_on_c, 0, 87, 100
2, 442800, Note_on_c, 0, 99, 0
2, 442800, Note_on_c, 0, 87, 0
2, 443040, Note_on_c, 0, 98, 100
2, 443040, Note_on_c, 0, 86, 100
2, 443040, Note_on_c, 0, 74, 100
2, 443040, Note_on_c, 0, 62, 100
2, 443280, Note_on_c, 0, 98, 0
2, 443280, Note_on_c, 0, 86, 0
2, 443280, Note_on_c, 0, 74, 0
2, 443280, Note_on_c, 0, 62, 0
2, 444000, Note_on_c, 0, 98, 100
2, 444000, Note_on_c, 0, 86, 100
2, 444000, Note_on_c, 0, 73, 100
2, 444240, Note_on_c, 0, 98, 0
2, 444240, Note_on_c, 0, 86, 0
2, 444240, Note_on_c, 0, 73, 0
2, 444480, Note_on_c, 0, 97, 100
2, 444480, Note_on_c, 0, 85, 100
2, 444720, Note_on_c, 0, 97, 0
2, 444720, Note_on_c, 0, 85, 0
2, 444960, Note_on_c, 0, 98, 100
2, 444960, Note_on_c, 0, 86, 100
2, 444960, Note_on_c, 0, 74, 100
2, 444960, Note_on_c, 0, 62, 100
2, 448320, Note_on_c, 0, 98, 0
2, 448320, Note_on_c, 0, 86, 0
2, 448320, Note_on_c, 0, 74, 0
2, 448320, Note_on_c, 0, 62, 0
2, 448320, Note_on_c, 0, 97, 100
2, 448320, Note_on_c, 0, 85, 100
2, 448560, Note_on_c, 0, 97, 0
2, 448560, Note_on_c, 0, 85, 0
2, 448800, Note_on_c, 0, 96, 100
2, 448800, Note_on_c, 0, 84, 100
2, 448800, Note_on_c, 0, 72, 100
2, 448800, Note_on_c, 0, 60, 100
2, 452400, Note_on_c, 0, 72, 0
2, 452400, Note_on_c, 0, 60, 0
2, 452640, Note_on_c, 0, 96, 0
2, 452640, Note_on_c, 0, 84, 0
2, 452640, Note_on_c, 0, 97, 100
2, 452640, Note_on_c, 0, 85, 100
2, 452640, Note_on_c, 0, 72, 100
2, 452640, Note_on_c, 0, 61, 100
2, 452880, Note_on_c, 0, 97, 0
2, 452880, Note_on_c, 0, 85, 0
2, 452880, Note_on_c, 0, 72, 0
2, 452880, Note_on_c, 0, 61, 0
2, 453090, Note_on_c, 0, 105, 0
2, 453090, Note_on_c, 0, 93, 0
2, 453090, Note_on_c, 0, 69, 0
2, 453090, Note_on_c, 0, 81, 0
2, 453570, Note_on_c, 0, 106, 100
2, 453570, Note_on_c, 0, 94, 100
2, 453570, Note_on_c, 0, 70, 100
2, 453570, Note_on_c, 0, 82, 100
2, 453600, Note_on_c, 0, 98, 100
2, 453600, Note_on_c, 0, 86, 100
2, 453600, Note_on_c, 0, 73, 100
2, 453840, Note_on_c, 0, 98, 0
2, 453840, Note_on_c, 0, 86, 0
2, 453840, Note_on_c, 0, 73, 0
2, 454560, Note_on_c, 0, 99, 100
2, 454560, Note_on_c, 0, 87, 100
2, 454560, Note_on_c, 0, 74, 100
2, 454800, Note_on_c, 0, 99, 0
2, 454800, Note_on_c, 0, 87, 0
2, 454800, Note_on_c, 0, 74, 0
2, 455040, Note_on_c, 0, 99, 100
2, 455040, Note_on_c, 0, 87, 100
2, 455040, Note_on_c, 0, 75, 100
2, 455040, Note_on_c, 0, 62, 100
2, 455280, Note_on_c, 0, 99, 0
2, 455280, Note_on_c, 0, 87, 0
2, 455280, Note_on_c, 0, 75, 0
2, 455280, Note_on_c, 0, 62, 0
2, 455354, Note_on_c, 0, 100, 100
2, 455354, Note_on_c, 0, 88, 100
2, 455594, Note_on_c, 0, 100, 0
2, 455594, Note_on_c, 0, 88, 0
2, 455680, Note_on_c, 0, 99, 100
2, 455680, Note_on_c, 0, 87, 100
2, 455920, Note_on_c, 0, 99, 0
2, 455920, Note_on_c, 0, 87, 0
2, 456000, Note_on_c, 0, 98, 100
2, 456240, Note_on_c, 0, 98, 0
2, 456314, Note_on_c, 0, 96, 100
2, 456314, Note_on_c, 0, 84, 100
2, 456314, Note_on_c, 0, 73, 100
2, 456314, Note_on_c, 0, 61, 100
2, 456554, Note_on_c, 0, 96, 0
2, 456554, Note_on_c, 0, 84, 0
2, 456554, Note_on_c, 0, 73, 0
2, 456554, Note_on_c, 0, 61, 0
2, 456640, Note_on_c, 0, 97, 100
2, 456640, Note_on_c, 0, 85, 100
2, 456880, Note_on_c, 0, 97, 0
2, 456880, Note_on_c, 0, 85, 0
2, 456960, Note_on_c, 0, 98, 100
2, 456960, Note_on_c, 0, 86, 100
2, 457200, Note_on_c, 0, 98, 0
2, 457200, Note_on_c, 0, 86, 0
2, 457278, Note_on_c, 0, 99, 100
2, 457518, Note_on_c, 0, 99, 0
2, 457600, Note_on_c, 0, 99, 100
2, 457600, Note_on_c, 0, 87, 100
2, 457600, Note_on_c, 0, 75, 100
2, 457600, Note_on_c, 0, 62, 100
2, 457840, Note_on_c, 0, 99, 0
2, 457840, Note_on_c, 0, 87, 0
2, 457840, Note_on_c, 0, 75, 0
2, 457840, Note_on_c, 0, 62, 0
2, 457920, Note_on_c, 0, 100, 100
2, 457920, Note_on_c, 0, 88, 100
2, 458160, Note_on_c, 0, 100, 0
2, 458160, Note_on_c, 0, 88, 0
2, 458238, Note_on_c, 0, 99, 100
2, 458238, Note_on_c, 0, 87, 100
2, 458478, Note_on_c, 0, 99, 0
2, 458478, Note_on_c, 0, 87, 0
2, 458560, Note_on_c, 0, 98, 100
2, 458800, Note_on_c, 0, 98, 0
2, 458880, Note_on_c, 0, 99, 100
2, 458880, Note_on_c, 0, 87, 100
2, 458880, Note_on_c, 0, 75, 100
2, 458880, Note_on_c, 0, 62, 100
2, 459120, Note_on_c, 0, 99, 0
2, 459120, Note_on_c, 0, 87, 0
2, 459120, Note_on_c, 0, 99, 100
2, 459360, Note_on_c, 0, 99, 0
2, 459360, Note_on_c, 0, 99, 100
2, 459360, Note_on_c, 0, 87, 100
2, 459600, Note_on_c, 0, 99, 0
2, 459600, Note_on_c, 0, 87, 0
2, 459600, Note_on_c, 0, 99, 100
2, 459840, Note_on_c, 0, 99, 0
2, 459840, Note_on_c, 0, 99, 100
2, 459840, Note_on_c, 0, 87, 100
2, 460080, Note_on_c, 0, 99, 0
2, 460080, Note_on_c, 0, 87, 0
2, 460080, Note_on_c, 0, 99, 100
2, 460320, Note_on_c, 0, 99, 0
2, 460320, Note_on_c, 0, 99, 100
2, 460320, Note_on_c, 0, 87, 100
2, 460560, Note_on_c, 0, 75, 0
2, 460560, Note_on_c, 0, 62, 0
2, 460560, Note_on_c, 0, 99, 0
2, 460560, Note_on_c, 0, 87, 0
2, 460560, Note_on_c, 0, 99, 100
2, 460770, Note_on_c, 0, 106, 0
2, 460770, Note_on_c, 0, 94, 0
2, 460770, Note_on_c, 0, 70, 0
2, 460770, Note_on_c, 0, 82, 0
2, 460770, Note_on_c, 0, 105, 100
2, 460770, Note_on_c, 0, 93, 100
2, 460770, Note_on_c, 0, 69, 100
2, 460770, Note_on_c, 0, 81, 100
2, 460800, Note_on_c, 0, 99, 0
2, 460800, Note_on_c, 0, 98, 100
2, 460800, Note_on_c, 0, 86, 100
2, 460800, Note_on_c, 0, 74, 100
2, 460800, Note_on_c, 0, 61, 100
2, 461040, Note_on_c, 0, 98, 0
2, 461040, Note_on_c, 0, 86, 0
2, 461040, Note_on_c, 0, 98, 100
2, 461280, Note_on_c, 0, 98, 0
2, 461280, Note_on_c, 0, 98, 100
2, 461280, Note_on_c, 0, 86, 100
2, 461520, Note_on_c, 0, 98, 0
2, 461520, Note_on_c, 0, 86, 0
2, 461520, Note_on_c, 0, 98, 100
2, 461760, Note_on_c, 0, 98, 0
2, 461760, Note_on_c, 0, 97, 100
2, 461760, Note_on_c, 0, 85, 100
2, 462000, Note_on_c, 0, 97, 0
2, 462000, Note_on_c, 0, 85, 0
2, 462000, Note_on_c, 0, 97, 100
2, 462240, Note_on_c, 0, 97, 0
2, 462240, Note_on_c, 0, 98, 100
2, 462240, Note_on_c, 0, 86, 100
2, 462480, Note_on_c, 0, 74, 0
2, 462480, Note_on_c, 0, 61, 0
2, 462480, Note_on_c, 0, 98, 0
2, 462480, Note_on_c, 0, 86, 0
2, 462480, Note_on_c, 0, 98, 100
2, 462720, Note_on_c, 0, 98, 0
2, 462720, Note_on_c, 0, 97, 100
2, 462720, Note_on_c, 0, 85, 100
2, 462720, Note_on_c, 0, 73, 100
2, 462720, Note_on_c, 0, 60, 100
2, 462960, Note_on_c, 0, 97, 0
2, 462960, Note_on_c, 0, 85, 0
2, 462960, Note_on_c, 0, 97, 100
2, 463200, Note_on_c, 0, 97, 0
2, 463200, Note_on_c, 0, 98, 100
2, 463200, Note_on_c, 0, 86, 100
2, 463440, Note_on_c, 0, 98, 0
2, 463440, Note_on_c, 0, 86, 0
2, 463440, Note_on_c, 0, 98, 100
2, 463680, Note_on_c, 0, 98, 0
2, 463680, Note_on_c, 0, 98, 100
2, 463680, Note_on_c, 0, 86, 100
2, 463920, Note_on_c, 0, 98, 0
2, 463920, Note_on_c, 0, 86, 0
2, 463920, Note_on_c, 0, 97, 100
2, 464160, Note_on_c, 0, 97, 0
2, 464160, Note_on_c, 0, 96, 100
2, 464160, Note_on_c, 0, 84, 100
2, 464400, Note_on_c, 0, 73, 0
2, 464400, Note_on_c, 0, 60, 0
2, 464400, Note_on_c, 0, 96, 0
2, 464400, Note_on_c, 0, 84, 0
2, 464400, Note_on_c, 0, 97, 100
2, 464640, Note_on_c, 0, 97, 0
2, 464640, Note_on_c, 0, 98, 100
2, 464640, Note_on_c, 0, 86, 100
2, 464640, Note_on_c, 0, 74, 100
2, 464640, Note_on_c, 0, 61, 100
2, 464880, Note_on_c, 0, 98, 0
2, 464880, Note_on_c, 0, 86, 0
2, 465120, Note_on_c, 0, 97, 100
2, 465120, Note_on_c, 0, 85, 100
2, 465360, Note_on_c, 0, 97, 0
2, 465360, Note_on_c, 0, 85, 0
2, 465360, Note_on_c, 0, 96, 100
2, 465600, Note_on_c, 0, 96, 0
2, 465600, Note_on_c, 0, 97, 100
2, 465600, Note_on_c, 0, 85, 100
2, 465840, Note_on_c, 0, 97, 0
2, 465840, Note_on_c, 0, 85, 0
2, 465840, Note_on_c, 0, 98, 100
2, 466080, Note_on_c, 0, 98, 0
2, 466320, Note_on_c, 0, 74, 0
2, 466320, Note_on_c, 0, 61, 0
2, 466560, Note_on_c, 0, 97, 100
2, 466560, Note_on_c, 0, 85, 100
2, 466560, Note_on_c, 0, 73, 100
2, 466560, Note_on_c, 0, 60, 100
2, 466800, Note_on_c, 0, 73, 0
2, 467490, Note_on_c, 0, 105, 0
2, 467490, Note_on_c, 0, 93, 0
2, 467490, Note_on_c, 0, 69, 0
2, 467490, Note_on_c, 0, 81, 0
2, 467490, Note_on_c, 0, 106, 100
2, 467490, Note_on_c, 0, 94, 100
2, 467490, Note_on_c, 0, 70, 100
2, 467490, Note_on_c, 0, 82, 100
2, 467520, Note_on_c, 0, 97, 0
2, 467520, Note_on_c, 0, 85, 0
2, 467520, Note_on_c, 0, 96, 100
2, 467520, Note_on_c, 0, 84, 100
2, 467520, Note_on_c, 0, 72, 100
2, 467760, Note_on_c, 0, 96, 0
2, 467760, Note_on_c, 0, 84, 0
2, 467760, Note_on_c, 0, 72, 0
2, 467838, Note_on_c, 0, 97, 100
2, 468000, Note_on_c, 0, 60, 0
2, 468000, Note_on_c, 0, 85, 100
2, 468078, Note_on_c, 0, 97, 0
2, 468160, Note_on_c, 0, 98, 100
2, 468240, Note_on_c, 0, 85, 0
2, 468400, Note_on_c, 0, 98, 0
2, 468480, Note_on_c, 0, 99, 100
2, 468480, Note_on_c, 0, 86, 100
2, 468480, Note_on_c, 0, 73, 100
2, 468480, Note_on_c, 0, 61, 100
2, 468720, Note_on_c, 0, 99, 0
2, 468720, Note_on_c, 0, 86, 0
2, 468720, Note_on_c, 0, 73, 0
2, 468720, Note_on_c, 0, 61, 0
2, 468798, Note_on_c, 0, 98, 100
2, 468960, Note_on_c, 0, 85, 100
2, 469038, Note_on_c, 0, 98, 0
2, 469120, Note_on_c, 0, 97, 100
2, 469200, Note_on_c, 0, 85, 0
2, 469360, Note_on_c, 0, 97, 0
2, 469440, Note_on_c, 0, 96, 100
2, 469440, Note_on_c, 0, 84, 100
2, 469440, Note_on_c, 0, 72, 100
2, 469680, Note_on_c, 0, 96, 0
2, 469680, Note_on_c, 0, 84, 0
2, 469680, Note_on_c, 0, 72, 0
2, 469758, Note_on_c, 0, 97, 100
2, 469920, Note_on_c, 0, 85, 100
2, 469998, Note_on_c, 0, 97, 0
2, 470080, Note_on_c, 0, 98, 100
2, 470160, Note_on_c, 0, 85, 0
2, 470320, Note_on_c, 0, 98, 0
2, 470400, Note_on_c, 0, 99, 100
2, 470400, Note_on_c, 0, 86, 100
2, 470400, Note_on_c, 0, 73, 100
2, 470400, Note_on_c, 0, 61, 100
2, 470640, Note_on_c, 0, 99, 0
2, 470640, Note_on_c, 0, 86, 0
2, 470640, Note_on_c, 0, 73, 0
2, 470640, Note_on_c, 0, 61, 0
2, 470718, Note_on_c, 0, 98, 100
2, 470880, Note_on_c, 0, 85, 100
2, 470958, Note_on_c, 0, 98, 0
2, 471040, Note_on_c, 0, 97, 100
2, 471120, Note_on_c, 0, 85, 0
2, 471280, Note_on_c, 0, 97, 0
2, 471330, Note_on_c, 0, 106, 0
2, 471330, Note_on_c, 0, 94, 0
2, 471330, Note_on_c, 0, 70, 0
2, 471330, Note_on_c, 0, 82, 0
2, 471330, Note_on_c, 0, 105, 100
2, 471330, Note_on_c, 0, 93, 100
2, 471330, Note_on_c, 0, 69, 100
2, 471330, Note_on_c, 0, 81, 100
2, 471360, Note_on_c, 0, 96, 100
2, 471360, Note_on_c, 0, 84, 100
2, 471360, Note_on_c, 0, 72, 100
2, 471600, Note_on_c, 0, 96, 0
2, 471600, Note_on_c, 0, 84, 0
2, 471600, Note_on_c, 0, 72, 0
2, 471678, Note_on_c, 0, 97, 100
2, 471840, Note_on_c, 0, 85, 100
2, 471918, Note_on_c, 0, 97, 0
2, 472000, Note_on_c, 0, 98, 100
2, 472080, Note_on_c, 0, 85, 0
2, 472240, Note_on_c, 0, 98, 0
2, 472320, Note_on_c, 0, 99, 100
2, 472320, Note_on_c, 0, 86, 100
2, 472320, Note_on_c, 0, 73, 100
2, 472320, Note_on_c, 0, 61, 100
2, 472560, Note_on_c, 0, 99, 0
2, 472560, Note_on_c, 0, 86, 0
2, 472560, Note_on_c, 0, 73, 0
2, 472560, Note_on_c, 0, 61, 0
2, 472638, Note_on_c, 0, 98, 100
2, 472800, Note_on_c, 0, 85, 100
2, 472878, Note_on_c, 0, 98, 0
2, 472958, Note_on_c, 0, 97, 100
2, 473040, Note_on_c, 0, 85, 0
2, 473198, Note_on_c, 0, 97, 0
2, 473280, Note_on_c, 0, 96, 100
2, 473280, Note_on_c, 0, 84, 100
2, 473280, Note_on_c, 0, 72, 100
2, 473520, Note_on_c, 0, 96, 0
2, 473520, Note_on_c, 0, 84, 0
2, 473520, Note_on_c, 0, 72, 0
2, 473598, Note_on_c, 0, 97, 100
2, 473760, Note_on_c, 0, 85, 100
2, 473838, Note_on_c, 0, 97, 0
2, 473918, Note_on_c, 0, 98, 100
2, 474000, Note_on_c, 0, 85, 0
2, 474158, Note_on_c, 0, 98, 0
2, 474240, Note_on_c, 0, 99, 100
2, 474240, Note_on_c, 0, 86, 100
2, 474240, Note_on_c, 0, 73, 100
2, 474240, Note_on_c, 0, 61, 100
2, 474480, Note_on_c, 0, 99, 0
2, 474480, Note_on_c, 0, 86, 0
2, 474480, Note_on_c, 0, 73, 0
2, 474480, Note_on_c, 0, 61, 0
2, 474558, Note_on_c, 0, 98, 100
2, 474720, Note_on_c, 0, 85, 100
2, 474798, Note_on_c, 0, 98, 0
2, 474878, Note_on_c, 0, 97, 100
2, 474960, Note_on_c, 0, 85, 0
2, 475118, Note_on_c, 0, 97, 0
2, 475170, Note_on_c, 0, 105, 0
2, 475170, Note_on_c, 0, 93, 0
2, 475170, Note_on_c, 0, 69, 0
2, 475170, Note_on_c, 0, 81, 0
2, 475170, Note_on_c, 0, 106, 100
2, 475170, Note_on_c, 0, 94, 100
2, 475170, Note_on_c, 0, 70, 100
2, 475170, Note_on_c, 0, 82, 100
2, 475200, Note_on_c, 0, 96, 100
2, 475200, Note_on_c, 0, 84, 100
2, 475200, Note_on_c, 0, 72, 100
2, 475440, Note_on_c, 0, 96, 0
2, 475440, Note_on_c, 0, 84, 0
2, 475440, Note_on_c, 0, 72, 0
2, 475518, Note_on_c, 0, 97, 100
2, 475680, Note_on_c, 0, 85, 100
2, 475758, Note_on_c, 0, 97, 0
2, 475838, Note_on_c, 0, 98, 100
2, 475920, Note_on_c, 0, 85, 0
2, 476078, Note_on_c, 0, 98, 0
2, 476160, Note_on_c, 0, 100, 100
2, 476160, Note_on_c, 0, 87, 100
2, 476160, Note_on_c, 0, 74, 100
2, 476160, Note_on_c, 0, 62, 100
2, 476400, Note_on_c, 0, 100, 0
2, 476400, Note_on_c, 0, 87, 0
2, 476400, Note_on_c, 0, 74, 0
2, 476400, Note_on_c, 0, 62, 0
2, 476478, Note_on_c, 0, 98, 100
2, 476640, Note_on_c, 0, 85, 100
2, 476718, Note_on_c, 0, 98, 0
2, 476800, Note_on_c, 0, 97, 100
2, 476880, Note_on_c, 0, 85, 0
2, 477040, Note_on_c, 0, 97, 0
2, 477090, Note_on_c, 0, 106, 0
2, 477090, Note_on_c, 0, 94, 0
2, 477090, Note_on_c, 0, 70, 0
2, 477090, Note_on_c, 0, 82, 0
2, 477090, Note_on_c, 0, 105, 100
2, 477090, Note_on_c, 0, 93, 100
2, 477090, Note_on_c, 0, 69, 100
2, 477090, Note_on_c, 0, 81, 100
2, 477120, Note_on_c, 0, 96, 100
2, 477120, Note_on_c, 0, 84, 100
2, 477120, Note_on_c, 0, 72, 100
2, 477360, Note_on_c, 0, 96, 0
2, 477360, Note_on_c, 0, 84, 0
2, 477360, Note_on_c, 0, 72, 0
2, 477438, Note_on_c, 0, 97, 100
2, 477600, Note_on_c, 0, 85, 100
2, 477678, Note_on_c, 0, 97, 0
2, 477760, Note_on_c, 0, 98, 100
2, 477840, Note_on_c, 0, 85, 0
2, 478000, Note_on_c, 0, 98, 0
2, 478080, Note_on_c, 0, 100, 100
2, 478080, Note_on_c, 0, 87, 100
2, 478080, Note_on_c, 0, 74, 100
2, 478080, Note_on_c, 0, 62, 100
2, 478320, Note_on_c, 0, 100, 0
2, 478320, Note_on_c, 0, 87, 0
2, 478320, Note_on_c, 0, 74, 0
2, 478320, Note_on_c, 0, 62, 0
2, 478398, Note_on_c, 0, 98, 100
2, 478560, Note_on_c, 0, 85, 100
2, 478638, Note_on_c, 0, 98, 0
2, 478720, Note_on_c, 0, 97, 100
2, 478800, Note_on_c, 0, 85, 0
2, 478960, Note_on_c, 0, 97, 0
2, 479010, Note_on_c, 0, 105, 0
2, 479010, Note_on_c, 0, 93, 0
2, 479010, Note_on_c, 0, 69, 0
2, 479010, Note_on_c, 0, 81, 0
2, 479010, Note_on_c, 0, 106, 100
2, 479010, Note_on_c, 0, 94, 100
2, 479010, Note_on_c, 0, 70, 100
2, 479010, Note_on_c, 0, 82, 100
2, 479040, Note_on_c, 0, 96, 100
2, 479040, Note_on_c, 0, 84, 100
2, 479040, Note_on_c, 0, 72, 100
2, 479280, Note_on_c, 0, 96, 0
2, 479280, Note_on_c, 0, 84, 0
2, 479280, Note_on_c, 0, 72, 0
2, 479358, Note_on_c, 0, 97, 100
2, 479520, Note_on_c, 0, 85, 100
2, 479598, Note_on_c, 0, 97, 0
2, 479680, Note_on_c, 0, 98, 100
2, 479760, Note_on_c, 0, 85, 0
2, 479920, Note_on_c, 0, 98, 0
2, 480000, Note_on_c, 0, 99, 100
2, 480000, Note_on_c, 0, 86, 100
2, 480000, Note_on_c, 0, 73, 100
2, 480000, Note_on_c, 0, 61, 100
2, 480240, Note_on_c, 0, 99, 0
2, 480240, Note_on_c, 0, 86, 0
2, 480240, Note_on_c, 0, 73, 0
2, 480240, Note_on_c, 0, 61, 0
2, 480318, Note_on_c, 0, 98, 100
2, 480480, Note_on_c, 0, 85, 100
2, 480558, Note_on_c, 0, 98, 0
2, 480640, Note_on_c, 0, 97, 100
2, 480720, Note_on_c, 0, 85, 0
2, 480880, Note_on_c, 0, 97, 0
2, 480930, Note_on_c, 0, 106, 0
2, 480930, Note_on_c, 0, 94, 0
2, 480930, Note_on_c, 0, 70, 0
2, 480930, Note_on_c, 0, 82, 0
2, 480930, Note_on_c, 0, 105, 100
2, 480930, Note_on_c, 0, 93, 100
2, 480930, Note_on_c, 0, 69, 100
2, 480930, Note_on_c, 0, 81, 100
2, 480960, Note_on_c, 0, 96, 100
2, 480960, Note_on_c, 0, 84, 100
2, 480960, Note_on_c, 0, 72, 100
2, 481200, Note_on_c, 0, 96, 0
2, 481200, Note_on_c, 0, 84, 0
2, 481200, Note_on_c, 0, 72, 0
2, 481278, Note_on_c, 0, 97, 100
2, 481440, Note_on_c, 0, 85, 100
2, 481518, Note_on_c, 0, 97, 0
2, 481600, Note_on_c, 0, 98, 100
2, 481680, Note_on_c, 0, 85, 0
2, 481840, Note_on_c, 0, 98, 0
2, 481920, Note_on_c, 0, 99, 100
2, 481920, Note_on_c, 0, 86, 100
2, 481920, Note_on_c, 0, 73, 100
2, 481920, Note_on_c, 0, 61, 100
2, 482160, Note_on_c, 0, 99, 0
2, 482160, Note_on_c, 0, 86, 0
2, 482160, Note_on_c, 0, 73, 0
2, 482160, Note_on_c, 0, 61, 0
2, 482238, Note_on_c, 0, 98, 100
2, 482400, Note_on_c, 0, 85, 100
2, 482478, Note_on_c, 0, 98, 0
2, 482560, Note_on_c, 0, 97, 100
2, 482640, Note_on_c, 0, 85, 0
2, 482800, Note_on_c, 0, 97, 0
2, 482850, Note_on_c, 0, 106, 100
2, 482850, Note_on_c, 0, 103, 100
2, 482850, Note_on_c, 0, 91, 100
2, 482850, Note_on_c, 0, 94, 100
2, 482850, Note_on_c, 0, 70, 100
2, 482850, Note_on_c, 0, 82, 100
2, 482880, Note_on_c, 0, 96, 100
2, 482880, Note_on_c, 0, 84, 100
2, 483120, Note_on_c, 0, 96, 0
2, 483120, Note_on_c, 0, 84, 0
2, 483330, Note_on_c, 0, 79, 100
2, 483330, Note_on_c, 0, 67, 100
2, 483360, Note_on_c, 0, 99, 100
2, 483360, Note_on_c, 0, 98, 100
2, 483360, Note_on_c, 0, 87, 100
2, 483360, Note_on_c, 0, 86, 100
2, 483360, Note_on_c, 0, 74, 100
2, 483360, Note_on_c, 0, 73, 100
2, 483360, Note_on_c, 0, 62, 100
2, 483840, Note_on_c, 0, 108, 100
2, 484480, Note_on_c, 0, 108, 0
2, 484800, Note_on_c, 0, 108, 100
2, 486880, Note_on_c, 0, 108, 0
2, 490530, Note_on_c, 0, 103, 0
2, 490530, Note_on_c, 0, 91, 0
2, 490560, Note_on_c, 0, 99, 0
2, 490560, Note_on_c, 0, 98, 0
2, 490560, Note_on_c, 0, 87, 0
2, 490560, Note_on_c, 0, 86, 0
2, 490560, Note_on_c, 0, 74, 0
2, 490560, Note_on_c, 0, 73, 0
2, 490560, Note_on_c, 0, 62, 0
2, 491040, Note_on_c, 0, 108, 100
2, 491280, Note_on_c, 0, 108, 0
2, 491280, Note_on_c, 0, 96, 100
2, 491280, Note_on_c, 0, 84, 100
2, 491280, Note_on_c, 0, 72, 100
2, 491280, Note_on_c, 0, 60, 100
2, 491490, Text_t, "[verse]"
2, 491490, Text_t, "[lighting (sweep)]"
2, 491490, Text_t, "bass_normal_tempo"
2, 491490, Text_t, "drum_normal_tempo"
2, 491490, Text_t, "[normal_tempo]"
2, 491490, Text_t, "gtr_normal_tempo"
2, 491490, Text_t, "[crowd_normal_tempo]"
2, 491490, Text_t, "drum_normal"
2, 491490, Note_on_c, 0, 79, 0
2, 491490, Note_on_c, 0, 67, 0
2, 491520, Note_on_c, 0, 96, 0
2, 491520, Note_on_c, 0, 84, 0
2, 491520, Note_on_c, 0, 72, 0
2, 491520, Note_on_c, 0, 60, 0
2, 491520, Note_on_c, 0, 108, 100
2, 491760, Note_on_c, 0, 98, 100
2, 491760, Note_on_c, 0, 86, 100
2, 492000, Note_on_c, 0, 98, 0
2, 492000, Note_on_c, 0, 86, 0
2, 492000, Note_on_c, 0, 99, 100
2, 492000, Note_on_c, 0, 87, 100
2, 492000, Note_on_c, 0, 74, 100
2, 492000, Note_on_c, 0, 62, 100
2, 492160, Note_on_c, 0, 108, 0
2, 492240, Note_on_c, 0, 99, 0
2, 492240, Note_on_c, 0, 87, 0
2, 492240, Note_on_c, 0, 74, 0
2, 492240, Note_on_c, 0, 62, 0
2, 492480, Note_on_c, 0, 98, 100
2, 492480, Note_on_c, 0, 86, 100
2, 492480, Note_on_c, 0, 73, 100
2, 492480, Note_on_c, 0, 61, 100
2, 492480, Note_on_c, 0, 108, 100
2, 492720, Note_on_c, 0, 98, 0
2, 492720, Note_on_c, 0, 86, 0
2, 492720, Note_on_c, 0, 73, 0
2, 492720, Note_on_c, 0, 61, 0
2, 492720, Note_on_c, 0, 97, 100
2, 492720, Note_on_c, 0, 85, 100
2, 492960, Note_on_c, 0, 97, 0
2, 492960, Note_on_c, 0, 85, 0
2, 492960, Note_on_c, 0, 96, 100
2, 492960, Note_on_c, 0, 84, 100
2, 492960, Note_on_c, 0, 72, 100
2, 493200, Note_on_c, 0, 96, 0
2, 493200, Note_on_c, 0, 84, 0
2, 493200, Note_on_c, 0, 72, 0
2, 493200, Note_on_c, 0, 96, 100
2, 493440, Note_on_c, 0, 96, 0
2, 493440, Note_on_c, 0, 99, 100
2, 493440, Note_on_c, 0, 87, 100
2, 493440, Note_on_c, 0, 74, 100
2, 493440, Note_on_c, 0, 62, 100
2, 493680, Note_on_c, 0, 99, 0
2, 493680, Note_on_c, 0, 87, 0
2, 493680, Note_on_c, 0, 74, 0
2, 493680, Note_on_c, 0, 62, 0
2, 493680, Note_on_c, 0, 100, 100
2, 493680, Note_on_c, 0, 88, 100
2, 493920, Note_on_c, 0, 100, 0
2, 493920, Note_on_c, 0, 88, 0
2, 493920, Note_on_c, 0, 96, 100
2, 493920, Note_on_c, 0, 84, 100
2, 493920, Note_on_c, 0, 72, 100
2, 494160, Note_on_c, 0, 96, 0
2, 494160, Note_on_c, 0, 84, 0
2, 494160, Note_on_c, 0, 72, 0
2, 494160, Note_on_c, 0, 99, 100
2, 494160, Note_on_c, 0, 87, 100
2, 494400, Note_on_c, 0, 99, 0
2, 494400, Note_on_c, 0, 87, 0
2, 494640, Note_on_c, 0, 98, 100
2, 494640, Note_on_c, 0, 86, 100
2, 494640, Note_on_c, 0, 73, 100
2, 494640, Note_on_c, 0, 61, 100
2, 494880, Note_on_c, 0, 98, 0
2, 494880, Note_on_c, 0, 86, 0
2, 494880, Note_on_c, 0, 73, 0
2, 494880, Note_on_c, 0, 61, 0
2, 494880, Note_on_c, 0, 99, 100
2, 494880, Note_on_c, 0, 87, 100
2, 495120, Note_on_c, 0, 99, 0
2, 495120, Note_on_c, 0, 87, 0
2, 495120, Note_on_c, 0, 96, 100
2, 495120, Note_on_c, 0, 84, 100
2, 495120, Note_on_c, 0, 72, 100
2, 495120, Note_on_c, 0, 60, 100
2, 495360, Note_on_c, 0, 96, 0
2, 495360, Note_on_c, 0, 84, 0
2, 495360, Note_on_c, 0, 72, 0
2, 495360, Note_on_c, 0, 60, 0
2, 495520, Note_on_c, 0, 108, 0
2, 495600, Note_on_c, 0, 98, 100
2, 495600, Note_on_c, 0, 86, 100
2, 495840, Note_on_c, 0, 98, 0
2, 495840, Note_on_c, 0, 86, 0
2, 495840, Note_on_c, 0, 99, 100
2, 495840, Note_on_c, 0, 87, 100
2, 495840, Note_on_c, 0, 74, 100
2, 495840, Note_on_c, 0, 62, 100
2, 496080, Note_on_c, 0, 99, 0
2, 496080, Note_on_c, 0, 87, 0
2, 496080, Note_on_c, 0, 74, 0
2, 496080, Note_on_c, 0, 62, 0
2, 496320, Note_on_c, 0, 98, 100
2, 496320, Note_on_c, 0, 86, 100
2, 496320, Note_on_c, 0, 73, 100
2, 496320, Note_on_c, 0, 61, 100
2, 496560, Note_on_c, 0, 98, 0
2, 496560, Note_on_c, 0, 86, 0
2, 496560, Note_on_c, 0, 73, 0
2, 496560, Note_on_c, 0, 61, 0
2, 496560, Note_on_c, 0, 97, 100
2, 496560, Note_on_c, 0, 85, 100
2, 496800, Note_on_c, 0, 97, 0
2, 496800, Note_on_c, 0, 85, 0
2, 496800, Note_on_c, 0, 96, 100
2, 496800, Note_on_c, 0, 84, 100
2, 496800, Note_on_c, 0, 72, 100
2, 497040, Note_on_c, 0, 96, 0
2, 497040, Note_on_c, 0, 84, 0
2, 497040, Note_on_c, 0, 72, 0
2, 497040, Note_on_c, 0, 96, 100
2, 497040, Note_on_c, 0, 84, 100
2, 497280, Note_on_c, 0, 96, 0
2, 497280, Note_on_c, 0, 84, 0
2, 497280, Note_on_c, 0, 99, 100
2, 497280, Note_on_c, 0, 86, 100
2, 497280, Note_on_c, 0, 72, 100
2, 497280, Note_on_c, 0, 60, 100
2, 497520, Note_on_c, 0, 99, 0
2, 497520, Note_on_c, 0, 86, 0
2, 497520, Note_on_c, 0, 72, 0
2, 497520, Note_on_c, 0, 60, 0
2, 497520, Note_on_c, 0, 98, 100
2, 497520, Note_on_c, 0, 84, 100
2, 497520, Note_on_c, 0, 72, 100
2, 497760, Note_on_c, 0, 98, 0
2, 497760, Note_on_c, 0, 84, 0
2, 497760, Note_on_c, 0, 72, 0
2, 497760, Note_on_c, 0, 96, 100
2, 497760, Note_on_c, 0, 84, 100
2, 497760, Note_on_c, 0, 72, 100
2, 497760, Note_on_c, 0, 60, 100
2, 498000, Note_on_c, 0, 96, 0
2, 498000, Note_on_c, 0, 84, 0
2, 498000, Note_on_c, 0, 72, 0
2, 498000, Note_on_c, 0, 60, 0
2, 498000, Note_on_c, 0, 97, 100
2, 498000, Note_on_c, 0, 84, 100
2, 498000, Note_on_c, 0, 72, 100
2, 498240, Note_on_c, 0, 97, 0
2, 498240, Note_on_c, 0, 84, 0
2, 498240, Note_on_c, 0, 72, 0
2, 498480, Note_on_c, 0, 97, 100
2, 498480, Note_on_c, 0, 85, 100
2, 498480, Note_on_c, 0, 72, 100
2, 498480, Note_on_c, 0, 60, 100
2, 498720, Note_on_c, 0, 97, 0
2, 498720, Note_on_c, 0, 85, 0
2, 498720, Note_on_c, 0, 72, 0
2, 498720, Note_on_c, 0, 60, 0
2, 498720, Note_on_c, 0, 98, 100
2, 498720, Note_on_c, 0, 86, 100
2, 498720, Note_on_c, 0, 72, 100
2, 498960, Note_on_c, 0, 98, 0
2, 498960, Note_on_c, 0, 86, 0
2, 498960, Note_on_c, 0, 72, 0
2, 498960, Note_on_c, 0, 96, 100
2, 498960, Note_on_c, 0, 84, 100
2, 498960, Note_on_c, 0, 72, 100
2, 498960, Note_on_c, 0, 60, 100
2, 499170, Text_t, "solo_off"
2, 499170, Text_t, "sing_on"
2, 499200, Note_on_c, 0, 96, 0
2, 499200, Note_on_c, 0, 84, 0
2, 499200, Note_on_c, 0, 72, 0
2, 499200, Note_on_c, 0, 60, 0
2, 500160, Note_on_c, 0, 108, 100
2, 500640, Note_on_c, 0, 108, 0
2, 501120, Note_on_c, 0, 108, 100
2, 501840, Note_on_c, 0, 108, 0
2, 502080, Note_on_c, 0, 108, 100
2, 502874, Note_on_c, 0, 108, 0
2, 503040, Note_on_c, 0, 108, 100
2, 503834, Note_on_c, 0, 108, 0
2, 504000, Note_on_c, 0, 108, 100
2, 504638, Note_on_c, 0, 108, 0
2, 504930, Text_t, "drum_allbeat"
2, 504960, Note_on_c, 0, 108, 100
2, 505274, Note_on_c, 0, 108, 0
2, 505440, Note_on_c, 0, 108, 100
2, 505754, Note_on_c, 0, 108, 0
2, 506234, Note_on_c, 0, 108, 100
2, 506400, Note_on_c, 0, 97, 100
2, 506400, Note_on_c, 0, 99, 100
2, 506400, Note_on_c, 0, 85, 100
2, 506400, Note_on_c, 0, 87, 100
2, 506400, Note_on_c, 0, 73, 100
2, 506400, Note_on_c, 0, 75, 100
2, 506400, Note_on_c, 0, 61, 100
2, 506850, Text_t, "bass_off"
2, 506850, Text_t, "wail_off"
2, 506850, Text_t, "bass_half_tempo"
2, 506850, Text_t, "gtr_half_tempo"
2, 506850, Text_t, "drum_half_tempo"
2, 506850, Text_t, "[half_tempo]"
2, 506850, Text_t, "[crowd_half_tempo]"
2, 507676, Note_on_c, 0, 108, 0
2, 507840, Note_on_c, 0, 108, 100
2, 508320, Note_on_c, 0, 108, 0
2, 508770, Text_t, "drum_off"
2, 508800, Note_on_c, 0, 108, 100
2, 509520, Note_on_c, 0, 108, 0
2, 509760, Note_on_c, 0, 108, 100
2, 510000, Note_on_c, 0, 97, 0
2, 510000, Note_on_c, 0, 99, 0
2, 510000, Note_on_c, 0, 85, 0
2, 510000, Note_on_c, 0, 87, 0
2, 510000, Note_on_c, 0, 73, 0
2, 510000, Note_on_c, 0, 75, 0
2, 510000, Note_on_c, 0, 61, 0
2, 510078, Note_on_c, 0, 108, 0
2, 510240, Note_on_c, 0, 100, 100
2, 510240, Note_on_c, 0, 98, 100
2, 510240, Note_on_c, 0, 87, 100
2, 510240, Note_on_c, 0, 86, 100
2, 510240, Note_on_c, 0, 75, 100
2, 510240, Note_on_c, 0, 74, 100
2, 510240, Note_on_c, 0, 62, 100
2, 510240, Note_on_c, 0, 108, 100
2, 511920, Note_on_c, 0, 108, 0
2, 512400, Note_on_c, 0, 108, 100
2, 512610, Text_t, "drum_double"
2, 512960, Note_on_c, 0, 108, 0
2, 513120, Note_on_c, 0, 108, 100
2, 513440, Note_on_c, 0, 108, 0
2, 513600, Note_on_c, 0, 108, 100
2, 513840, Note_on_c, 0, 100, 0
2, 513840, Note_on_c, 0, 98, 0
2, 513840, Note_on_c, 0, 87, 0
2, 513840, Note_on_c, 0, 86, 0
2, 513840, Note_on_c, 0, 75, 0
2, 513840, Note_on_c, 0, 74, 0
2, 513840, Note_on_c, 0, 62, 0
2, 513920, Note_on_c, 0, 108, 0
2, 514080, Note_on_c, 0, 96, 100
2, 514080, Note_on_c, 0, 98, 100
2, 514080, Note_on_c, 0, 84, 100
2, 514080, Note_on_c, 0, 86, 100
2, 514080, Note_on_c, 0, 72, 100
2, 514080, Note_on_c, 0, 74, 100
2, 514080, Note_on_c, 0, 60, 100
2, 514080, Note_on_c, 0, 108, 100
2, 514530, Text_t, "[chorus]"
2, 514530, Text_t, "bass_on"
2, 515200, Note_on_c, 0, 108, 0
2, 516000, Note_on_c, 0, 108, 100
2, 516320, Note_on_c, 0, 108, 0
2, 516480, Note_on_c, 0, 108, 100
2, 516960, Note_on_c, 0, 108, 0
2, 517440, Note_on_c, 0, 108, 100
2, 517680, Note_on_c, 0, 96, 0
2, 517680, Note_on_c, 0, 98, 0
2, 517680, Note_on_c, 0, 84, 0
2, 517680, Note_on_c, 0, 86, 0
2, 517680, Note_on_c, 0, 72, 0
2, 517680, Note_on_c, 0, 74, 0
2, 517680, Note_on_c, 0, 60, 0
2, 517760, Note_on_c, 0, 108, 0
2, 517920, Note_on_c, 0, 97, 100
2, 517920, Note_on_c, 0, 98, 100
2, 517920, Note_on_c, 0, 85, 100
2, 517920, Note_on_c, 0, 86, 100
2, 517920, Note_on_c, 0, 73, 100
2, 517920, Note_on_c, 0, 74, 100
2, 517920, Note_on_c, 0, 61, 100
2, 517920, Note_on_c, 0, 108, 100
2, 518720, Note_on_c, 0, 108, 0
2, 518880, Note_on_c, 0, 108, 100
2, 519680, Note_on_c, 0, 108, 0
2, 519840, Note_on_c, 0, 108, 100
2, 520640, Note_on_c, 0, 108, 0
2, 520800, Note_on_c, 0, 108, 100
2, 521520, Note_on_c, 0, 97, 0
2, 521520, Note_on_c, 0, 98, 0
2, 521520, Note_on_c, 0, 85, 0
2, 521520, Note_on_c, 0, 86, 0
2, 521520, Note_on_c, 0, 73, 0
2, 521520, Note_on_c, 0, 74, 0
2, 521520, Note_on_c, 0, 61, 0
2, 521760, Note_on_c, 0, 108, 0
2, 521760, Note_on_c, 0, 97, 100
2, 521760, Note_on_c, 0, 99, 100
2, 521760, Note_on_c, 0, 85, 100
2, 521760, Note_on_c, 0, 87, 100
2, 521760, Note_on_c, 0, 73, 100
2, 521760, Note_on_c, 0, 75, 100
2, 521760, Note_on_c, 0, 61, 100
2, 522240, Note_on_c, 0, 108, 100
2, 524000, Note_on_c, 0, 108, 0
2, 524160, Note_on_c, 0, 108, 100
2, 525360, Note_on_c, 0, 97, 0
2, 525360, Note_on_c, 0, 99, 0
2, 525360, Note_on_c, 0, 85, 0
2, 525360, Note_on_c, 0, 87, 0
2, 525360, Note_on_c, 0, 73, 0
2, 525360, Note_on_c, 0, 75, 0
2, 525360, Note_on_c, 0, 61, 0
2, 525600, Note_on_c, 0, 100, 100
2, 525600, Note_on_c, 0, 98, 100
2, 525600, Note_on_c, 0, 87, 100
2, 525600, Note_on_c, 0, 86, 100
2, 525600, Note_on_c, 0, 75, 100
2, 525600, Note_on_c, 0, 74, 100
2, 525600, Note_on_c, 0, 62, 100
2, 525760, Note_on_c, 0, 108, 0
2, 526080, Note_on_c, 0, 108, 100
2, 527680, Note_on_c, 0, 108, 0
2, 528000, Note_on_c, 0, 108, 100
2, 529200, Note_on_c, 0, 100, 0
2, 529200, Note_on_c, 0, 98, 0
2, 529200, Note_on_c, 0, 87, 0
2, 529200, Note_on_c, 0, 86, 0
2, 529200, Note_on_c, 0, 75, 0
2, 529200, Note_on_c, 0, 74, 0
2, 529200, Note_on_c, 0, 62, 0
2, 529440, Note_on_c, 0, 96, 100
2, 529440, Note_on_c, 0, 98, 100
2, 529440, Note_on_c, 0, 84, 100
2, 529440, Note_on_c, 0, 86, 100
2, 529440, Note_on_c, 0, 72, 100
2, 529440, Note_on_c, 0, 74, 100
2, 529440, Note_on_c, 0, 61, 100
2, 529760, Note_on_c, 0, 108, 0
2, 529920, Note_on_c, 0, 108, 100
2, 531680, Note_on_c, 0, 108, 0
2, 531840, Note_on_c, 0, 108, 100
2, 533040, Note_on_c, 0, 96, 0
2, 533040, Note_on_c, 0, 98, 0
2, 533040, Note_on_c, 0, 84, 0
2, 533040, Note_on_c, 0, 86, 0
2, 533040, Note_on_c, 0, 72, 0
2, 533040, Note_on_c, 0, 74, 0
2, 533040, Note_on_c, 0, 61, 0
2, 533250, Note_on_c, 0, 106, 0
2, 533250, Note_on_c, 0, 94, 0
2, 533250, Note_on_c, 0, 70, 0
2, 533250, Note_on_c, 0, 82, 0
2, 533280, Note_on_c, 0, 96, 100
2, 533280, Note_on_c, 0, 97, 100
2, 533280, Note_on_c, 0, 84, 100
2, 533280, Note_on_c, 0, 85, 100
2, 533280, Note_on_c, 0, 72, 100
2, 533280, Note_on_c, 0, 73, 100
2, 533280, Note_on_c, 0, 60, 100
2, 533440, Note_on_c, 0, 108, 0
2, 533760, Note_on_c, 0, 108, 100
2, 536160, Note_on_c, 0, 108, 0
2, 536880, Note_on_c, 0, 96, 0
2, 536880, Note_on_c, 0, 97, 0
2, 536880, Note_on_c, 0, 84, 0
2, 536880, Note_on_c, 0, 85, 0
2, 536880, Note_on_c, 0, 72, 0
2, 536880, Note_on_c, 0, 73, 0
2, 536880, Note_on_c, 0, 60, 0
2, 537090, Note_on_c, 0, 105, 0
2, 537090, Note_on_c, 0, 93, 0
2, 537090, Note_on_c, 0, 69, 0
2, 537090, Note_on_c, 0, 81, 0
2, 537090, Note_on_c, 0, 106, 100
2, 537090, Note_on_c, 0, 94, 100
2, 537090, Note_on_c, 0, 70, 100
2, 537090, Note_on_c, 0, 82, 100
2, 537120, Note_on_c, 0, 97, 100
2, 537120, Note_on_c, 0, 99, 100
2, 537120, Note_on_c, 0, 85, 100
2, 537120, Note_on_c, 0, 87, 100
2, 537120, Note_on_c, 0, 73, 100
2, 537120, Note_on_c, 0, 75, 100
2, 537120, Note_on_c, 0, 61, 100
2, 538560, Note_on_c, 0, 108, 100
2, 539040, Note_on_c, 0, 108, 0
2, 539520, Note_on_c, 0, 108, 100
2, 540240, Note_on_c, 0, 108, 0
2, 540480, Note_on_c, 0, 108, 100
2, 540720, Note_on_c, 0, 97, 0
2, 540720, Note_on_c, 0, 99, 0
2, 540720, Note_on_c, 0, 85, 0
2, 540720, Note_on_c, 0, 87, 0
2, 540720, Note_on_c, 0, 73, 0
2, 540720, Note_on_c, 0, 75, 0
2, 540720, Note_on_c, 0, 61, 0
2, 540800, Note_on_c, 0, 108, 0
2, 540930, Note_on_c, 0, 106, 0
2, 540930, Note_on_c, 0, 94, 0
2, 540930, Note_on_c, 0, 70, 0
2, 540930, Note_on_c, 0, 82, 0
2, 540930, Note_on_c, 0, 105, 100
2, 540930, Note_on_c, 0, 93, 100
2, 540930, Note_on_c, 0, 69, 100
2, 540930, Note_on_c, 0, 81, 100
2, 540960, Note_on_c, 0, 100, 100
2, 540960, Note_on_c, 0, 98, 100
2, 540960, Note_on_c, 0, 87, 100
2, 540960, Note_on_c, 0, 86, 100
2, 540960, Note_on_c, 0, 75, 100
2, 540960, Note_on_c, 0, 74, 100
2, 540960, Note_on_c, 0, 62, 100
2, 540960, Note_on_c, 0, 108, 100
2, 542080, Note_on_c, 0, 108, 0
2, 542400, Note_on_c, 0, 108, 100
2, 543040, Note_on_c, 0, 108, 0
2, 543360, Note_on_c, 0, 108, 100
2, 544000, Note_on_c, 0, 108, 0
2, 544320, Note_on_c, 0, 108, 100
2, 544560, Note_on_c, 0, 100, 0
2, 544560, Note_on_c, 0, 98, 0
2, 544560, Note_on_c, 0, 87, 0
2, 544560, Note_on_c, 0, 86, 0
2, 544560, Note_on_c, 0, 75, 0
2, 544560, Note_on_c, 0, 74, 0
2, 544560, Note_on_c, 0, 62, 0
2, 544640, Note_on_c, 0, 108, 0
2, 544770, Note_on_c, 0, 106, 100
2, 544770, Note_on_c, 0, 94, 100
2, 544770, Note_on_c, 0, 70, 100
2, 544770, Note_on_c, 0, 82, 100
2, 544800, Note_on_c, 0, 97, 100
2, 544800, Note_on_c, 0, 85, 100
2, 544800, Note_on_c, 0, 72, 100
2, 544800, Note_on_c, 0, 74, 100
2, 544800, Note_on_c, 0, 60, 100
2, 544800, Note_on_c, 0, 108, 100
2, 545600, Note_on_c, 0, 108, 0
2, 546000, Note_on_c, 0, 97, 0
2, 546000, Note_on_c, 0, 85, 0
2, 546240, Note_on_c, 0, 99, 100
2, 546240, Note_on_c, 0, 87, 100
2, 546240, Note_on_c, 0, 108, 100
2, 546880, Note_on_c, 0, 108, 0
2, 547200, Note_on_c, 0, 108, 100
2, 547440, Note_on_c, 0, 99, 0
2, 547440, Note_on_c, 0, 87, 0
2, 547680, Note_on_c, 0, 97, 100
2, 547680, Note_on_c, 0, 85, 100
2, 548160, Note_on_c, 0, 108, 0
2, 548400, Note_on_c, 0, 72, 0
2, 548400, Note_on_c, 0, 74, 0
2, 548400, Note_on_c, 0, 60, 0
2, 548400, Note_on_c, 0, 97, 0
2, 548400, Note_on_c, 0, 85, 0
2, 548640, Note_on_c, 0, 98, 100
2, 548640, Note_on_c, 0, 86, 100
2, 548640, Note_on_c, 0, 73, 100
2, 548640, Note_on_c, 0, 74, 100
2, 548640, Note_on_c, 0, 61, 100
2, 549120, Note_on_c, 0, 108, 100
2, 549760, Note_on_c, 0, 108, 0
2, 549840, Note_on_c, 0, 98, 0
2, 549840, Note_on_c, 0, 86, 0
2, 550080, Note_on_c, 0, 100, 100
2, 550080, Note_on_c, 0, 88, 100
2, 550080, Note_on_c, 0, 108, 100
2, 550400, Note_on_c, 0, 108, 0
2, 550560, Note_on_c, 0, 108, 100
2, 551280, Note_on_c, 0, 100, 0
2, 551280, Note_on_c, 0, 88, 0
2, 551520, Note_on_c, 0, 108, 0
2, 551520, Note_on_c, 0, 98, 100
2, 551520, Note_on_c, 0, 86, 100
2, 552000, Note_on_c, 0, 108, 100
2, 552240, Note_on_c, 0, 73, 0
2, 552240, Note_on_c, 0, 74, 0
2, 552240, Note_on_c, 0, 61, 0
2, 552240, Note_on_c, 0, 98, 0
2, 552240, Note_on_c, 0, 86, 0
2, 552480, Note_on_c, 0, 97, 100
2, 552480, Note_on_c, 0, 99, 100
2, 552480, Note_on_c, 0, 85, 100
2, 552480, Note_on_c, 0, 87, 100
2, 552480, Note_on_c, 0, 73, 100
2, 552480, Note_on_c, 0, 75, 100
2, 552480, Note_on_c, 0, 61, 100
2, 552640, Note_on_c, 0, 108, 0
2, 552960, Note_on_c, 0, 108, 100
2, 554560, Note_on_c, 0, 108, 0
2, 554880, Note_on_c, 0, 108, 100
2, 556080, Note_on_c, 0, 97, 0
2, 556080, Note_on_c, 0, 99, 0
2, 556080, Note_on_c, 0, 85, 0
2, 556080, Note_on_c, 0, 87, 0
2, 556080, Note_on_c, 0, 73, 0
2, 556080, Note_on_c, 0, 75, 0
2, 556080, Note_on_c, 0, 61, 0
2, 556320, Note_on_c, 0, 100, 100
2, 556320, Note_on_c, 0, 98, 100
2, 556320, Note_on_c, 0, 87, 100
2, 556320, Note_on_c, 0, 86, 100
2, 556320, Note_on_c, 0, 75, 100
2, 556320, Note_on_c, 0, 74, 100
2, 556320, Note_on_c, 0, 62, 100
2, 556640, Note_on_c, 0, 108, 0
2, 556800, Note_on_c, 0, 108, 100
2, 558560, Note_on_c, 0, 108, 0
2, 558720, Note_on_c, 0, 108, 100
2, 559520, Note_on_c, 0, 108, 0
2, 559920, Note_on_c, 0, 100, 0
2, 559920, Note_on_c, 0, 98, 0
2, 559920, Note_on_c, 0, 87, 0
2, 559920, Note_on_c, 0, 86, 0
2, 559920, Note_on_c, 0, 75, 0
2, 559920, Note_on_c, 0, 74, 0
2, 559920, Note_on_c, 0, 62, 0
2, 560160, Note_on_c, 0, 96, 100
2, 560160, Note_on_c, 0, 98, 100
2, 560160, Note_on_c, 0, 84, 100
2, 560160, Note_on_c, 0, 86, 100
2, 560160, Note_on_c, 0, 72, 100
2, 560160, Note_on_c, 0, 74, 100
2, 560160, Note_on_c, 0, 61, 100
2, 560640, Note_on_c, 0, 108, 100
2, 562400, Note_on_c, 0, 108, 0
2, 562560, Note_on_c, 0, 108, 100
2, 563760, Note_on_c, 0, 96, 0
2, 563760, Note_on_c, 0, 98, 0
2, 563760, Note_on_c, 0, 84, 0
2, 563760, Note_on_c, 0, 86, 0
2, 563760, Note_on_c, 0, 72, 0
2, 563760, Note_on_c, 0, 74, 0
2, 563760, Note_on_c, 0, 61, 0
2, 564000, Note_on_c, 0, 96, 100
2, 564000, Note_on_c, 0, 97, 100
2, 564000, Note_on_c, 0, 84, 100
2, 564000, Note_on_c, 0, 85, 100
2, 564000, Note_on_c, 0, 72, 100
2, 564000, Note_on_c, 0, 73, 100
2, 564000, Note_on_c, 0, 60, 100
2, 564320, Note_on_c, 0, 108, 0
2, 564480, Note_on_c, 0, 108, 100
2, 565920, Note_on_c, 0, 108, 0
2, 566160, Note_on_c, 0, 96, 0
2, 566160, Note_on_c, 0, 97, 0
2, 566160, Note_on_c, 0, 84, 0
2, 566160, Note_on_c, 0, 85, 0
2, 566160, Note_on_c, 0, 72, 0
2, 566160, Note_on_c, 0, 73, 0
2, 566240, Note_on_c, 0, 108, 100
2, 566400, Note_on_c, 0, 99, 100
2, 566400, Note_on_c, 0, 84, 100
2, 566400, Note_on_c, 0, 72, 100
2, 566640, Note_on_c, 0, 99, 0
2, 566640, Note_on_c, 0, 84, 0
2, 566640, Note_on_c, 0, 72, 0
2, 566880, Note_on_c, 0, 98, 100
2, 566880, Note_on_c, 0, 84, 100
2, 566880, Note_on_c, 0, 72, 100
2, 567120, Note_on_c, 0, 98, 0
2, 567120, Note_on_c, 0, 84, 0
2, 567120, Note_on_c, 0, 72, 0
2, 567360, Note_on_c, 0, 97, 100
2, 567360, Note_on_c, 0, 84, 100
2, 567360, Note_on_c, 0, 72, 100
2, 567600, Note_on_c, 0, 60, 0
2, 567600, Note_on_c, 0, 97, 0
2, 567600, Note_on_c, 0, 84, 0
2, 567600, Note_on_c, 0, 72, 0
2, 567680, Note_on_c, 0, 108, 0
2, 567810, Note_on_c, 0, 105, 0
2, 567810, Note_on_c, 0, 93, 0
2, 567810, Note_on_c, 0, 69, 0
2, 567810, Note_on_c, 0, 81, 0
2, 567840, Note_on_c, 0, 97, 100
2, 567840, Note_on_c, 0, 99, 100
2, 567840, Note_on_c, 0, 85, 100
2, 567840, Note_on_c, 0, 87, 100
2, 567840, Note_on_c, 0, 73, 100
2, 567840, Note_on_c, 0, 75, 100
2, 567840, Note_on_c, 0, 61, 100
2, 568000, Note_on_c, 0, 108, 100
2, 570080, Note_on_c, 0, 108, 0
2, 571440, Note_on_c, 0, 97, 0
2, 571440, Note_on_c, 0, 99, 0
2, 571440, Note_on_c, 0, 85, 0
2, 571440, Note_on_c, 0, 87, 0
2, 571440, Note_on_c, 0, 73, 0
2, 571440, Note_on_c, 0, 75, 0
2, 571440, Note_on_c, 0, 61, 0
2, 571650, Note_on_c, 0, 106, 0
2, 571650, Note_on_c, 0, 94, 0
2, 571650, Note_on_c, 0, 70, 0
2, 571650, Note_on_c, 0, 82, 0
2, 571650, Note_on_c, 0, 105, 100
2, 571650, Note_on_c, 0, 93, 100
2, 571650, Note_on_c, 0, 69, 100
2, 571650, Note_on_c, 0, 81, 100
2, 571680, Note_on_c, 0, 100, 100
2, 571680, Note_on_c, 0, 98, 100
2, 571680, Note_on_c, 0, 87, 100
2, 571680, Note_on_c, 0, 86, 100
2, 571680, Note_on_c, 0, 75, 100
2, 571680, Note_on_c, 0, 74, 100
2, 571680, Note_on_c, 0, 62, 100
2, 575280, Note_on_c, 0, 100, 0
2, 575280, Note_on_c, 0, 98, 0
2, 575280, Note_on_c, 0, 87, 0
2, 575280, Note_on_c, 0, 86, 0
2, 575280, Note_on_c, 0, 75, 0
2, 575280, Note_on_c, 0, 74, 0
2, 575280, Note_on_c, 0, 62, 0
2, 575490, Note_on_c, 0, 105, 0
2, 575490, Note_on_c, 0, 93, 0
2, 575490, Note_on_c, 0, 69, 0
2, 575490, Note_on_c, 0, 81, 0
2, 575490, Note_on_c, 0, 106, 100
2, 575490, Note_on_c, 0, 94, 100
2, 575490, Note_on_c, 0, 70, 100
2, 575490, Note_on_c, 0, 82, 100
2, 575520, Note_on_c, 0, 96, 100
2, 575520, Note_on_c, 0, 98, 100
2, 575520, Note_on_c, 0, 84, 100
2, 575520, Note_on_c, 0, 86, 100
2, 575520, Note_on_c, 0, 72, 100
2, 575520, Note_on_c, 0, 74, 100
2, 575520, Note_on_c, 0, 60, 100
2, 577760, Note_on_c, 0, 108, 100
2, 579120, Note_on_c, 0, 96, 0
2, 579120, Note_on_c, 0, 98, 0
2, 579120, Note_on_c, 0, 84, 0
2, 579120, Note_on_c, 0, 86, 0
2, 579120, Note_on_c, 0, 72, 0
2, 579120, Note_on_c, 0, 74, 0
2, 579120, Note_on_c, 0, 60, 0
2, 579330, Note_on_c, 0, 106, 0
2, 579330, Note_on_c, 0, 94, 0
2, 579330, Note_on_c, 0, 70, 0
2, 579330, Note_on_c, 0, 82, 0
2, 579330, Note_on_c, 0, 105, 100
2, 579330, Note_on_c, 0, 93, 100
2, 579330, Note_on_c, 0, 69, 100
2, 579330, Note_on_c, 0, 81, 100
2, 579360, Note_on_c, 0, 97, 100
2, 579360, Note_on_c, 0, 98, 100
2, 579360, Note_on_c, 0, 85, 100
2, 579360, Note_on_c, 0, 86, 100
2, 579360, Note_on_c, 0, 73, 100
2, 579360, Note_on_c, 0, 74, 100
2, 579360, Note_on_c, 0, 61, 100
2, 579600, Note_on_c, 0, 108, 0
2, 579840, Note_on_c, 0, 108, 100
2, 581600, Note_on_c, 0, 108, 0
2, 581760, Note_on_c, 0, 108, 100
2, 582960, Note_on_c, 0, 97, 0
2, 582960, Note_on_c, 0, 98, 0
2, 582960, Note_on_c, 0, 85, 0
2, 582960, Note_on_c, 0, 86, 0
2, 582960, Note_on_c, 0, 73, 0
2, 582960, Note_on_c, 0, 74, 0
2, 582960, Note_on_c, 0, 61, 0
2, 583170, Note_on_c, 0, 105, 0
2, 583170, Note_on_c, 0, 93, 0
2, 583170, Note_on_c, 0, 69, 0
2, 583170, Note_on_c, 0, 81, 0
2, 583170, Note_on_c, 0, 106, 100
2, 583170, Note_on_c, 0, 94, 100
2, 583170, Note_on_c, 0, 70, 100
2, 583170, Note_on_c, 0, 82, 100
2, 583200, Note_on_c, 0, 97, 100
2, 583200, Note_on_c, 0, 99, 100
2, 583200, Note_on_c, 0, 85, 100
2, 583200, Note_on_c, 0, 87, 100
2, 583200, Note_on_c, 0, 73, 100
2, 583200, Note_on_c, 0, 75, 100
2, 583200, Note_on_c, 0, 61, 100
2, 583520, Note_on_c, 0, 108, 0
2, 583680, Note_on_c, 0, 108, 100
2, 586800, Note_on_c, 0, 97, 0
2, 586800, Note_on_c, 0, 99, 0
2, 586800, Note_on_c, 0, 85, 0
2, 586800, Note_on_c, 0, 87, 0
2, 586800, Note_on_c, 0, 73, 0
2, 586800, Note_on_c, 0, 75, 0
2, 586800, Note_on_c, 0, 61, 0
2, 587010, Note_on_c, 0, 106, 0
2, 587010, Note_on_c, 0, 94, 0
2, 587010, Note_on_c, 0, 70, 0
2, 587010, Note_on_c, 0, 82, 0
2, 587010, Note_on_c, 0, 105, 100
2, 587010, Note_on_c, 0, 93, 100
2, 587010, Note_on_c, 0, 69, 100
2, 587010, Note_on_c, 0, 81, 100
2, 587040, Note_on_c, 0, 100, 100
2, 587040, Note_on_c, 0, 98, 100
2, 587040, Note_on_c, 0, 87, 100
2, 587040, Note_on_c, 0, 86, 100
2, 587040, Note_on_c, 0, 75, 100
2, 587040, Note_on_c, 0, 74, 100
2, 587040, Note_on_c, 0, 62, 100
2, 587280, Note_on_c, 0, 108, 0
2, 590640, Note_on_c, 0, 100, 0
2, 590640, Note_on_c, 0, 98, 0
2, 590640, Note_on_c, 0, 87, 0
2, 590640, Note_on_c, 0, 86, 0
2, 590640, Note_on_c, 0, 75, 0
2, 590640, Note_on_c, 0, 74, 0
2, 590640, Note_on_c, 0, 62, 0
2, 590850, Note_on_c, 0, 105, 0
2, 590850, Note_on_c, 0, 93, 0
2, 590850, Note_on_c, 0, 69, 0
2, 590850, Note_on_c, 0, 81, 0
2, 590850, Note_on_c, 0, 106, 100
2, 590850, Note_on_c, 0, 94, 100
2, 590850, Note_on_c, 0, 70, 100
2, 590850, Note_on_c, 0, 82, 100
2, 590880, Note_on_c, 0, 96, 100
2, 590880, Note_on_c, 0, 98, 100
2, 590880, Note_on_c, 0, 84, 100
2, 590880, Note_on_c, 0, 86, 100
2, 590880, Note_on_c, 0, 72, 100
2, 590880, Note_on_c, 0, 74, 100
2, 590880, Note_on_c, 0, 61, 100
2, 592960, Note_on_c, 0, 108, 100
2, 594480, Note_on_c, 0, 96, 0
2, 594480, Note_on_c, 0, 98, 0
2, 594480, Note_on_c, 0, 84, 0
2, 594480, Note_on_c, 0, 86, 0
2, 594480, Note_on_c, 0, 72, 0
2, 594480, Note_on_c, 0, 74, 0
2, 594480, Note_on_c, 0, 61, 0
2, 594690, Note_on_c, 0, 106, 0
2, 594690, Note_on_c, 0, 94, 0
2, 594690, Note_on_c, 0, 70, 0
2, 594690, Note_on_c, 0, 82, 0
2, 594690, Note_on_c, 0, 105, 100
2, 594690, Note_on_c, 0, 93, 100
2, 594690, Note_on_c, 0, 69, 100
2, 594690, Note_on_c, 0, 81, 100
2, 594720, Note_on_c, 0, 96, 100
2, 594720, Note_on_c, 0, 97, 100
2, 594720, Note_on_c, 0, 84, 100
2, 594720, Note_on_c, 0, 85, 100
2, 594720, Note_on_c, 0, 72, 100
2, 594720, Note_on_c, 0, 73, 100
2, 594720, Note_on_c, 0, 60, 100
2, 594960, Note_on_c, 0, 108, 0
2, 595200, Note_on_c, 0, 108, 100
2, 596960, Note_on_c, 0, 108, 0
2, 597120, Note_on_c, 0, 108, 100
2, 598320, Note_on_c, 0, 96, 0
2, 598320, Note_on_c, 0, 97, 0
2, 598320, Note_on_c, 0, 84, 0
2, 598320, Note_on_c, 0, 85, 0
2, 598320, Note_on_c, 0, 72, 0
2, 598320, Note_on_c, 0, 73, 0
2, 598320, Note_on_c, 0, 60, 0
2, 598530, Note_on_c, 0, 105, 0
2, 598530, Note_on_c, 0, 93, 0
2, 598530, Note_on_c, 0, 69, 0
2, 598530, Note_on_c, 0, 81, 0
2, 598530, Note_on_c, 0, 106, 100
2, 598530, Note_on_c, 0, 94, 100
2, 598530, Note_on_c, 0, 70, 100
2, 598530, Note_on_c, 0, 82, 100
2, 598560, Note_on_c, 0, 97, 100
2, 598560, Note_on_c, 0, 99, 100
2, 598560, Note_on_c, 0, 85, 100
2, 598560, Note_on_c, 0, 87, 100
2, 598560, Note_on_c, 0, 73, 100
2, 598560, Note_on_c, 0, 75, 100
2, 598560, Note_on_c, 0, 61, 100
2, 598880, Note_on_c, 0, 108, 0
2, 599040, Note_on_c, 0, 108, 100
2, 602160, Note_on_c, 0, 97, 0
2, 602160, Note_on_c, 0, 99, 0
2, 602160, Note_on_c, 0, 85, 0
2, 602160, Note_on_c, 0, 87, 0
2, 602160, Note_on_c, 0, 73, 0
2, 602160, Note_on_c, 0, 75, 0
2, 602160, Note_on_c, 0, 61, 0
2, 602370, Note_on_c, 0, 106, 0
2, 602370, Note_on_c, 0, 94, 0
2, 602370, Note_on_c, 0, 70, 0
2, 602370, Note_on_c, 0, 82, 0
2, 602370, Note_on_c, 0, 105, 100
2, 602370, Note_on_c, 0, 93, 100
2, 602370, Note_on_c, 0, 69, 100
2, 602370, Note_on_c, 0, 81, 100
2, 602400, Note_on_c, 0, 100, 100
2, 602400, Note_on_c, 0, 98, 100
2, 602400, Note_on_c, 0, 87, 100
2, 602400, Note_on_c, 0, 86, 100
2, 602400, Note_on_c, 0, 75, 100
2, 602400, Note_on_c, 0, 74, 100
2, 602400, Note_on_c, 0, 62, 100
2, 604320, Note_on_c, 0, 108, 0
2, 606000, Note_on_c, 0, 100, 0
2, 606000, Note_on_c, 0, 98, 0
2, 606000, Note_on_c, 0, 87, 0
2, 606000, Note_on_c, 0, 86, 0
2, 606000, Note_on_c, 0, 75, 0
2, 606000, Note_on_c, 0, 74, 0
2, 606000, Note_on_c, 0, 62, 0
2, 606210, Note_on_c, 0, 106, 100
2, 606210, Note_on_c, 0, 94, 100
2, 606210, Note_on_c, 0, 70, 100
2, 606210, Note_on_c, 0, 82, 100
2, 606240, Note_on_c, 0, 97, 100
2, 606240, Note_on_c, 0, 85, 100
2, 606240, Note_on_c, 0, 72, 100
2, 606240, Note_on_c, 0, 74, 100
2, 606240, Note_on_c, 0, 60, 100
2, 607440, Note_on_c, 0, 97, 0
2, 607440, Note_on_c, 0, 85, 0
2, 607680, Note_on_c, 0, 99, 100
2, 607680, Note_on_c, 0, 87, 100
2, 608480, Note_on_c, 0, 108, 100
2, 608880, Note_on_c, 0, 99, 0
2, 608880, Note_on_c, 0, 87, 0
2, 609120, Note_on_c, 0, 97, 100
2, 609120, Note_on_c, 0, 85, 100
2, 609840, Note_on_c, 0, 72, 0
2, 609840, Note_on_c, 0, 74, 0
2, 609840, Note_on_c, 0, 60, 0
2, 609840, Note_on_c, 0, 97, 0
2, 609840, Note_on_c, 0, 85, 0
2, 610080, Note_on_c, 0, 98, 100
2, 610080, Note_on_c, 0, 86, 100
2, 610080, Note_on_c, 0, 73, 100
2, 610080, Note_on_c, 0, 74, 100
2, 610080, Note_on_c, 0, 61, 100
2, 610320, Note_on_c, 0, 108, 0
2, 610560, Note_on_c, 0, 108, 100
2, 611280, Note_on_c, 0, 98, 0
2, 611280, Note_on_c, 0, 86, 0
2, 611520, Note_on_c, 0, 100, 100
2, 611520, Note_on_c, 0, 88, 100
2, 612320, Note_on_c, 0, 108, 0
2, 612480, Note_on_c, 0, 108, 100
2, 612720, Note_on_c, 0, 100, 0
2, 612720, Note_on_c, 0, 88, 0
2, 612960, Note_on_c, 0, 98, 100
2, 612960, Note_on_c, 0, 86, 100
2, 613680, Note_on_c, 0, 73, 0
2, 613680, Note_on_c, 0, 74, 0
2, 613680, Note_on_c, 0, 61, 0
2, 613680, Note_on_c, 0, 98, 0
2, 613680, Note_on_c, 0, 86, 0
2, 613890, Note_on_c, 0, 103, 100
2, 613890, Note_on_c, 0, 91, 100
2, 613890, Note_on_c, 0, 81, 100
2, 613890, Note_on_c, 0, 69, 100
2, 613920, Note_on_c, 0, 97, 100
2, 613920, Note_on_c, 0, 99, 100
2, 613920, Note_on_c, 0, 85, 100
2, 613920, Note_on_c, 0, 87, 100
2, 613920, Note_on_c, 0, 73, 100
2, 613920, Note_on_c, 0, 75, 100
2, 613920, Note_on_c, 0, 61, 100
2, 614240, Note_on_c, 0, 108, 0
2, 614400, Note_on_c, 0, 108, 100
2, 617520, Note_on_c, 0, 97, 0
2, 617520, Note_on_c, 0, 99, 0
2, 617520, Note_on_c, 0, 85, 0
2, 617520, Note_on_c, 0, 87, 0
2, 617520, Note_on_c, 0, 73, 0
2, 617520, Note_on_c, 0, 75, 0
2, 617520, Note_on_c, 0, 61, 0
2, 617760, Note_on_c, 0, 100, 100
2, 617760, Note_on_c, 0, 98, 100
2, 617760, Note_on_c, 0, 87, 100
2, 617760, Note_on_c, 0, 86, 100
2, 617760, Note_on_c, 0, 75, 100
2, 617760, Note_on_c, 0, 74, 100
2, 617760, Note_on_c, 0, 62, 100
2, 618000, Note_on_c, 0, 108, 0
2, 621360, Note_on_c, 0, 100, 0
2, 621360, Note_on_c, 0, 98, 0
2, 621360, Note_on_c, 0, 87, 0
2, 621360, Note_on_c, 0, 86, 0
2, 621360, Note_on_c, 0, 75, 0
2, 621360, Note_on_c, 0, 74, 0
2, 621360, Note_on_c, 0, 62, 0
2, 621600, Note_on_c, 0, 96, 100
2, 621600, Note_on_c, 0, 98, 100
2, 621600, Note_on_c, 0, 84, 100
2, 621600, Note_on_c, 0, 86, 100
2, 621600, Note_on_c, 0, 72, 100
2, 621600, Note_on_c, 0, 74, 100
2, 621600, Note_on_c, 0, 61, 100
2, 624960, Note_on_c, 0, 108, 100
2, 625200, Note_on_c, 0, 96, 0
2, 625200, Note_on_c, 0, 98, 0
2, 625200, Note_on_c, 0, 84, 0
2, 625200, Note_on_c, 0, 86, 0
2, 625200, Note_on_c, 0, 72, 0
2, 625200, Note_on_c, 0, 74, 0
2, 625200, Note_on_c, 0, 61, 0
2, 625410, Note_on_c, 0, 69, 0
2, 625410, Note_on_c, 0, 81, 0
2, 625410, Note_on_c, 0, 103, 0
2, 625410, Note_on_c, 0, 91, 0
2, 625440, Note_on_c, 0, 96, 100
2, 625440, Note_on_c, 0, 97, 100
2, 625440, Note_on_c, 0, 84, 100
2, 625440, Note_on_c, 0, 85, 100
2, 625440, Note_on_c, 0, 72, 100
2, 625440, Note_on_c, 0, 73, 100
2, 625440, Note_on_c, 0, 60, 100
2, 626640, Note_on_c, 0, 108, 0
2, 626880, Note_on_c, 0, 108, 100
2, 627600, Note_on_c, 0, 96, 0
2, 627600, Note_on_c, 0, 97, 0
2, 627600, Note_on_c, 0, 84, 0
2, 627600, Note_on_c, 0, 85, 0
2, 627600, Note_on_c, 0, 72, 0
2, 627600, Note_on_c, 0, 73, 0
2, 627840, Note_on_c, 0, 99, 100
2, 627840, Note_on_c, 0, 84, 100
2, 627840, Note_on_c, 0, 72, 100
2, 628080, Note_on_c, 0, 99, 0
2, 628080, Note_on_c, 0, 84, 0
2, 628080, Note_on_c, 0, 72, 0
2, 628320, Note_on_c, 0, 98, 100
2, 628320, Note_on_c, 0, 84, 100
2, 628320, Note_on_c, 0, 72, 100
2, 628560, Note_on_c, 0, 108, 0
2, 628560, Note_on_c, 0, 98, 0
2, 628560, Note_on_c, 0, 84, 0
2, 628560, Note_on_c, 0, 72, 0
2, 628800, Note_on_c, 0, 97, 100
2, 628800, Note_on_c, 0, 84, 100
2, 628800, Note_on_c, 0, 72, 100
2, 629040, Note_on_c, 0, 60, 0
2, 629040, Note_on_c, 0, 97, 0
2, 629040, Note_on_c, 0, 84, 0
2, 629040, Note_on_c, 0, 72, 0
2, 629040, Note_on_c, 0, 108, 100
2, 629280, Note_on_c, 0, 100, 100
2, 629280, Note_on_c, 0, 99, 100
2, 629280, Note_on_c, 0, 87, 100
2, 629280, Note_on_c, 0, 86, 100
2, 629280, Note_on_c, 0, 75, 100
2, 629280, Note_on_c, 0, 62, 100
2, 630720, Note_on_c, 0, 100, 0
2, 630720, Note_on_c, 0, 99, 0
2, 630720, Note_on_c, 0, 87, 0
2, 630720, Note_on_c, 0, 86, 0
2, 630720, Note_on_c, 0, 75, 0
2, 630720, Note_on_c, 0, 62, 0
2, 634800, Note_on_c, 0, 108, 0
2, 635970, Note_on_c, 0, 105, 0
2, 635970, Note_on_c, 0, 93, 0
2, 635970, Note_on_c, 0, 81, 0
2, 635970, Note_on_c, 0, 69, 0
2, 636480, Note_on_c, 0, 98, 100
2, 636480, Note_on_c, 0, 99, 100
2, 636480, Note_on_c, 0, 85, 100
2, 636480, Note_on_c, 0, 86, 100
2, 636480, Note_on_c, 0, 74, 100
2, 636480, Note_on_c, 0, 61, 100
2, 636720, Note_on_c, 0, 98, 0
2, 636720, Note_on_c, 0, 99, 0
2, 636720, Note_on_c, 0, 85, 0
2, 636720, Note_on_c, 0, 86, 0
2, 636720, Note_on_c, 0, 74, 0
2, 636720, Note_on_c, 0, 61, 0
2, 636960, Note_on_c, 0, 100, 100
2, 636960, Note_on_c, 0, 99, 100
2, 636960, Note_on_c, 0, 87, 100
2, 636960, Note_on_c, 0, 86, 100
2, 636960, Note_on_c, 0, 75, 100
2, 636960, Note_on_c, 0, 62, 100
2, 637410, Text_t, "[verse]"
2, 637410, Text_t, "[lighting (sweep)]"
2, 637410, Text_t, "drum_allbeat"
2, 638400, Note_on_c, 0, 100, 0
2, 638400, Note_on_c, 0, 99, 0
2, 638400, Note_on_c, 0, 87, 0
2, 638400, Note_on_c, 0, 86, 0
2, 638400, Note_on_c, 0, 75, 0
2, 638400, Note_on_c, 0, 62, 0
2, 643170, Note_on_c, 0, 106, 0
2, 643170, Note_on_c, 0, 94, 0
2, 643170, Note_on_c, 0, 70, 0
2, 643170, Note_on_c, 0, 82, 0
2, 643170, Note_on_c, 0, 105, 100
2, 643170, Note_on_c, 0, 93, 100
2, 643170, Note_on_c, 0, 69, 100
2, 643170, Note_on_c, 0, 81, 100
2, 644160, Note_on_c, 0, 98, 100
2, 644160, Note_on_c, 0, 99, 100
2, 644160, Note_on_c, 0, 85, 100
2, 644160, Note_on_c, 0, 86, 100
2, 644160, Note_on_c, 0, 74, 100
2, 644160, Note_on_c, 0, 61, 100
2, 644400, Note_on_c, 0, 98, 0
2, 644400, Note_on_c, 0, 99, 0
2, 644400, Note_on_c, 0, 85, 0
2, 644400, Note_on_c, 0, 86, 0
2, 644400, Note_on_c, 0, 74, 0
2, 644400, Note_on_c, 0, 61, 0
2, 644640, Note_on_c, 0, 100, 100
2, 644640, Note_on_c, 0, 99, 100
2, 644640, Note_on_c, 0, 87, 100
2, 644640, Note_on_c, 0, 86, 100
2, 644640, Note_on_c, 0, 75, 100
2, 644640, Note_on_c, 0, 62, 100
2, 645090, Text_t, "sing_off"
2, 646080, Note_on_c, 0, 100, 0
2, 646080, Note_on_c, 0, 99, 0
2, 646080, Note_on_c, 0, 87, 0
2, 646080, Note_on_c, 0, 86, 0
2, 646080, Note_on_c, 0, 75, 0
2, 646080, Note_on_c, 0, 62, 0
2, 650850, Note_on_c, 0, 105, 0
2, 650850, Note_on_c, 0, 93, 0
2, 650850, Note_on_c, 0, 69, 0
2, 650850, Note_on_c, 0, 81, 0
2, 650850, Note_on_c, 0, 106, 100
2, 650850, Note_on_c, 0, 94, 100
2, 650850, Note_on_c, 0, 70, 100
2, 650850, Note_on_c, 0, 82, 100
2, 651840, Note_on_c, 0, 98, 100
2, 651840, Note_on_c, 0, 99, 100
2, 651840, Note_on_c, 0, 85, 100
2, 651840, Note_on_c, 0, 86, 100
2, 651840, Note_on_c, 0, 74, 100
2, 651840, Note_on_c, 0, 61, 100
2, 652080, Note_on_c, 0, 98, 0
2, 652080, Note_on_c, 0, 99, 0
2, 652080, Note_on_c, 0, 85, 0
2, 652080, Note_on_c, 0, 86, 0
2, 652080, Note_on_c, 0, 74, 0
2, 652080, Note_on_c, 0, 61, 0
2, 652320, Note_on_c, 0, 100, 100
2, 652320, Note_on_c, 0, 99, 100
2, 652320, Note_on_c, 0, 87, 100
2, 652320, Note_on_c, 0, 86, 100
2, 652320, Note_on_c, 0, 75, 100
2, 652320, Note_on_c, 0, 62, 100
2, 653760, Note_on_c, 0, 100, 0
2, 653760, Note_on_c, 0, 99, 0
2, 653760, Note_on_c, 0, 87, 0
2, 653760, Note_on_c, 0, 86, 0
2, 653760, Note_on_c, 0, 75, 0
2, 653760, Note_on_c, 0, 62, 0
2, 655650, Note_on_c, 0, 106, 0
2, 655650, Note_on_c, 0, 94, 0
2, 655650, Note_on_c, 0, 70, 0
2, 655650, Note_on_c, 0, 82, 0
2, 655650, Note_on_c, 0, 105, 100
2, 655650, Note_on_c, 0, 93, 100
2, 655650, Note_on_c, 0, 69, 100
2, 655650, Note_on_c, 0, 81, 100
2, 656640, Note_on_c, 0, 96, 100
2, 656640, Note_on_c, 0, 84, 100
2, 656640, Note_on_c, 0, 72, 100
2, 656640, Note_on_c, 0, 60, 100
2, 656880, Note_on_c, 0, 96, 0
2, 656880, Note_on_c, 0, 84, 0
2, 656880, Note_on_c, 0, 72, 0
2, 656880, Note_on_c, 0, 60, 0
2, 657120, Note_on_c, 0, 97, 100
2, 657120, Note_on_c, 0, 85, 100
2, 657360, Note_on_c, 0, 97, 0
2, 657360, Note_on_c, 0, 85, 0
2, 657600, Note_on_c, 0, 98, 100
2, 657600, Note_on_c, 0, 86, 100
2, 657600, Note_on_c, 0, 74, 100
2, 657600, Note_on_c, 0, 61, 100
2, 657840, Note_on_c, 0, 98, 0
2, 657840, Note_on_c, 0, 86, 0
2, 657840, Note_on_c, 0, 74, 0
2, 657840, Note_on_c, 0, 61, 0
2, 658530, Note_on_c, 0, 105, 0
2, 658530, Note_on_c, 0, 93, 0
2, 658530, Note_on_c, 0, 69, 0
2, 658530, Note_on_c, 0, 81, 0
2, 658530, Note_on_c, 0, 106, 100
2, 658530, Note_on_c, 0, 94, 100
2, 658530, Note_on_c, 0, 70, 100
2, 658530, Note_on_c, 0, 82, 100
2, 658560, Note_on_c, 0, 100, 100
2, 658560, Note_on_c, 0, 88, 100
2, 658560, Note_on_c, 0, 75, 100
2, 658560, Note_on_c, 0, 62, 100
2, 658800, Note_on_c, 0, 100, 0
2, 658800, Note_on_c, 0, 88, 0
2, 658800, Note_on_c, 0, 75, 0
2, 658800, Note_on_c, 0, 62, 0
2, 659040, Note_on_c, 0, 99, 100
2, 659040, Note_on_c, 0, 87, 100
2, 659280, Note_on_c, 0, 99, 0
2, 659280, Note_on_c, 0, 87, 0
2, 659520, Note_on_c, 0, 97, 100
2, 659520, Note_on_c, 0, 85, 100
2, 659520, Note_on_c, 0, 73, 100
2, 659760, Note_on_c, 0, 97, 0
2, 659760, Note_on_c, 0, 85, 0
2, 659760, Note_on_c, 0, 73, 0
2, 659970, Note_on_c, 0, 105, 100
2, 659970, Note_on_c, 0, 93, 100
2, 659970, Note_on_c, 0, 69, 100
2, 659970, Note_on_c, 0, 81, 100
2, 660000, Note_on_c, 0, 98, 100
2, 660000, Note_on_c, 0, 86, 100
2, 660000, Note_on_c, 0, 74, 100
2, 660000, Note_on_c, 0, 61, 100
2, 661440, Note_on_c, 0, 98, 0
2, 661440, Note_on_c, 0, 86, 0
2, 661440, Note_on_c, 0, 74, 0
2, 661440, Note_on_c, 0, 61, 0
2, 662370, Text_t, "drum_off"
2, 662370, Note_on_c, 0, 106, 0
2, 662370, Note_on_c, 0, 94, 0
2, 662370, Note_on_c, 0, 70, 0
2, 662370, Note_on_c, 0, 82, 0
2, 662370, Note_on_c, 0, 105, 0
2, 662370, Note_on_c, 0, 93, 0
2, 662370, Note_on_c, 0, 69, 0
2, 662370, Note_on_c, 0, 81, 0
2, 662370, End_track
3, 0, Start_track
3, 0, Title_t, "EVENTS"
3, 0, Text_t, "sing_off"
3, 0, Text_t, "bass_off"
3, 0, Text_t, "[lighting (blackout)]"
3, 0, Text_t, "[verse]"
3, 7680, Text_t, "gtr_on"
3, 7680, Text_t, "[music_start]"
3, 7680, Text_t, "[lighting ()]"
3, 38400, Text_t, "[lighting ()]"
3, 38400, Text_t, "bass_half_tempo"
3, 38400, Text_t, "drum_half_tempo"
3, 38400, Text_t, "gtr_half_tempo"
3, 38400, Text_t, "[half_tempo]"
3, 38400, Text_t, "[crowd_half_tempo]"
3, 69120, Text_t, "sing_on"
3, 69120, Text_t, "wail_off"
3, 130560, Text_t, "bass_off"
3, 130560, Text_t, "[lighting (flare)]"
3, 136320, Text_t, "[lighting (color1)]"
3, 138240, Text_t, "[lighting ()]"
3, 199680, Text_t, "[verse]"
3, 201600, Text_t, "[lighting ()]"
3, 230400, Text_t, "sing_on"
3, 291840, Text_t, "bass_off"
3, 291840, Text_t, "[lighting (flare)]"
3, 297600, Text_t, "[lighting (color2)]"
3, 299520, Text_t, "[lighting ()]"
3, 360960, Text_t, "[lighting (blackout)]"
3, 382080, Text_t, "[lighting (color1)]"
3, 387840, Text_t, "[lighting ()]"
3, 422400, Text_t, "[solo]"
3, 422400, Text_t, "solo_on"
3, 483840, Text_t, "[verse]"
3, 483840, Text_t, "[lighting (sweep)]"
3, 483840, Text_t, "bass_normal_tempo"
3, 483840, Text_t, "drum_normal_tempo"
3, 483840, Text_t, "[normal_tempo]"
3, 483840, Text_t, "gtr_normal_tempo"
3, 483840, Text_t, "[crowd_normal_tempo]"
3, 483840, Text_t, "drum_normal"
3, 491520, Text_t, "solo_off"
3, 491520, Text_t, "sing_on"
3, 497280, Text_t, "[lighting ()]"
3, 499200, Text_t, "bass_off"
3, 499200, Text_t, "wail_off"
3, 499200, Text_t, "bass_half_tempo"
3, 499200, Text_t, "gtr_half_tempo"
3, 499200, Text_t, "drum_half_tempo"
3, 499200, Text_t, "[half_tempo]"
3, 499200, Text_t, "[crowd_half_tempo]"
3, 501120, Text_t, "[lighting (flare)]"
3, 504960, Text_t, "[lighting (color2)]"
3, 506880, Text_t, "[lighting ()]"
3, 506880, Text_t, "bass_on"
3, 629760, Text_t, "[verse]"
3, 637440, Text_t, "[lighting ()]"
3, 654720, Text_t, "[lighting (flare)]"
3, 658560, Text_t, "[lighting ()]"
3, 660480, Text_t, "bass_off"
3, 660480, Text_t, "wail_off"
3, 662400, Text_t, "[lighting (blackout)]"
3, 665278, Text_t, "[end]"
3, 665278, End_track
4, 0, Start_track
4, 0, Title_t, "ANIM"
4, 7680, Note_on_c, 0, 41, 100
4, 11040, Note_on_c, 0, 41, 0
4, 11520, Note_on_c, 0, 44, 100
4, 14880, Note_on_c, 0, 44, 0
4, 15360, Note_on_c, 0, 49, 100
4, 18720, Note_on_c, 0, 49, 0
4, 19200, Note_on_c, 0, 51, 100
4, 20880, Note_on_c, 0, 51, 0
4, 21120, Note_on_c, 0, 49, 100
4, 21600, Note_on_c, 0, 49, 0
4, 21840, Note_on_c, 0, 51, 100
4, 22320, Note_on_c, 0, 51, 0
4, 22560, Note_on_c, 0, 49, 100
4, 22800, Note_on_c, 0, 49, 0
4, 23040, Note_on_c, 0, 41, 100
4, 26400, Note_on_c, 0, 41, 0
4, 26880, Note_on_c, 0, 44, 100
4, 30240, Note_on_c, 0, 44, 0
4, 30720, Note_on_c, 0, 49, 100
4, 34080, Note_on_c, 0, 49, 0
4, 34560, Note_on_c, 0, 51, 100
4, 37440, Note_on_c, 0, 51, 0
4, 37920, Note_on_c, 0, 44, 100
4, 38160, Note_on_c, 0, 44, 0
4, 38400, Note_on_c, 0, 41, 100
4, 45120, Note_on_c, 0, 41, 0
4, 45600, Note_on_c, 0, 44, 100
4, 50160, Note_on_c, 0, 44, 0
4, 50400, Note_on_c, 0, 43, 100
4, 50640, Note_on_c, 0, 43, 0
4, 50880, Note_on_c, 0, 44, 100
4, 52080, Note_on_c, 0, 44, 0
4, 52320, Note_on_c, 0, 43, 100
4, 52560, Note_on_c, 0, 43, 0
4, 52800, Note_on_c, 0, 42, 100
4, 53040, Note_on_c, 0, 42, 0
4, 53280, Note_on_c, 0, 41, 100
4, 60480, Note_on_c, 0, 41, 0
4, 60960, Note_on_c, 0, 46, 100
4, 61680, Note_on_c, 0, 46, 0
4, 61920, Note_on_c, 0, 48, 100
4, 62160, Note_on_c, 0, 48, 0
4, 62400, Note_on_c, 0, 49, 100
4, 62640, Note_on_c, 0, 49, 0
4, 62880, Note_on_c, 0, 51, 100
4, 63600, Note_on_c, 0, 51, 0
4, 63840, Note_on_c, 0, 49, 100
4, 64080, Note_on_c, 0, 49, 0
4, 64320, Note_on_c, 0, 48, 100
4, 64560, Note_on_c, 0, 48, 0
4, 64800, Note_on_c, 0, 46, 100
4, 65520, Note_on_c, 0, 46, 0
4, 65760, Note_on_c, 0, 48, 100
4, 66000, Note_on_c, 0, 48, 0
4, 66240, Note_on_c, 0, 49, 100
4, 66480, Note_on_c, 0, 49, 0
4, 66720, Note_on_c, 0, 48, 100
4, 67440, Note_on_c, 0, 48, 0
4, 67680, Note_on_c, 0, 46, 100
4, 67920, Note_on_c, 0, 46, 0
4, 68160, Note_on_c, 0, 45, 100
4, 68400, Note_on_c, 0, 45, 0
4, 68640, Note_on_c, 0, 46, 100
4, 69120, Note_on_c, 0, 46, 0
4, 69600, Note_on_c, 0, 41, 100
4, 75840, Note_on_c, 0, 41, 0
4, 76320, Note_on_c, 0, 44, 100
4, 83520, Note_on_c, 0, 44, 0
4, 84000, Note_on_c, 0, 41, 100
4, 91200, Note_on_c, 0, 41, 0
4, 91680, Note_on_c, 0, 46, 100
4, 92400, Note_on_c, 0, 46, 0
4, 92640, Note_on_c, 0, 48, 100
4, 92880, Note_on_c, 0, 48, 0
4, 93120, Note_on_c, 0, 49, 100
4, 93360, Note_on_c, 0, 49, 0
4, 93600, Note_on_c, 0, 51, 100
4, 94320, Note_on_c, 0, 51, 0
4, 94560, Note_on_c, 0, 49, 100
4, 94800, Note_on_c, 0, 49, 0
4, 95040, Note_on_c, 0, 48, 100
4, 95280, Note_on_c, 0, 48, 0
4, 95520, Note_on_c, 0, 46, 100
4, 96240, Note_on_c, 0, 46, 0
4, 96480, Note_on_c, 0, 48, 100
4, 96720, Note_on_c, 0, 48, 0
4, 96960, Note_on_c, 0, 49, 100
4, 97200, Note_on_c, 0, 49, 0
4, 97440, Note_on_c, 0, 48, 100
4, 98160, Note_on_c, 0, 48, 0
4, 98400, Note_on_c, 0, 46, 100
4, 98640, Note_on_c, 0, 46, 0
4, 98880, Note_on_c, 0, 45, 100
4, 99120, Note_on_c, 0, 45, 0
4, 99360, Note_on_c, 0, 46, 100
4, 99840, Note_on_c, 0, 46, 0
4, 100320, Note_on_c, 0, 41, 100
4, 106560, Note_on_c, 0, 41, 0
4, 107040, Note_on_c, 0, 44, 100
4, 114240, Note_on_c, 0, 44, 0
4, 114720, Note_on_c, 0, 41, 100
4, 121920, Note_on_c, 0, 41, 0
4, 122400, Note_on_c, 0, 46, 100
4, 123120, Note_on_c, 0, 46, 0
4, 123360, Note_on_c, 0, 48, 100
4, 123600, Note_on_c, 0, 48, 0
4, 123840, Note_on_c, 0, 49, 100
4, 124080, Note_on_c, 0, 49, 0
4, 124320, Note_on_c, 0, 51, 100
4, 125040, Note_on_c, 0, 51, 0
4, 125280, Note_on_c, 0, 49, 100
4, 125520, Note_on_c, 0, 49, 0
4, 125760, Note_on_c, 0, 48, 100
4, 126000, Note_on_c, 0, 48, 0
4, 126240, Note_on_c, 0, 46, 100
4, 126960, Note_on_c, 0, 46, 0
4, 127200, Note_on_c, 0, 48, 100
4, 127440, Note_on_c, 0, 48, 0
4, 127680, Note_on_c, 0, 49, 100
4, 127920, Note_on_c, 0, 49, 0
4, 128160, Note_on_c, 0, 48, 100
4, 128880, Note_on_c, 0, 48, 0
4, 129120, Note_on_c, 0, 46, 100
4, 129360, Note_on_c, 0, 46, 0
4, 129600, Note_on_c, 0, 45, 100
4, 129840, Note_on_c, 0, 45, 0
4, 130080, Note_on_c, 0, 46, 100
4, 130560, Note_on_c, 0, 46, 0
4, 131520, Note_on_c, 0, 40, 100
4, 136560, Note_on_c, 0, 40, 0
4, 137760, Note_on_c, 0, 50, 100
4, 141120, Note_on_c, 0, 50, 0
4, 141600, Note_on_c, 0, 51, 100
4, 144960, Note_on_c, 0, 51, 0
4, 145440, Note_on_c, 0, 46, 100
4, 148800, Note_on_c, 0, 46, 0
4, 149280, Note_on_c, 0, 49, 100
4, 152640, Note_on_c, 0, 49, 0
4, 153120, Note_on_c, 0, 50, 100
4, 156480, Note_on_c, 0, 50, 0
4, 156960, Note_on_c, 0, 51, 100
4, 160320, Note_on_c, 0, 51, 0
4, 160800, Note_on_c, 0, 46, 100
4, 164160, Note_on_c, 0, 46, 0
4, 164640, Note_on_c, 0, 41, 100
4, 168000, Note_on_c, 0, 41, 0
4, 168480, Note_on_c, 0, 50, 100
4, 171840, Note_on_c, 0, 50, 0
4, 172320, Note_on_c, 0, 51, 100
4, 175680, Note_on_c, 0, 51, 0
4, 176160, Note_on_c, 0, 45, 100
4, 177120, Note_on_c, 0, 45, 0
4, 177600, Note_on_c, 0, 49, 100
4, 178560, Note_on_c, 0, 49, 0
4, 179040, Note_on_c, 0, 45, 100
4, 179520, Note_on_c, 0, 45, 0
4, 180000, Note_on_c, 0, 46, 100
4, 180960, Note_on_c, 0, 46, 0
4, 181440, Note_on_c, 0, 50, 100
4, 182400, Note_on_c, 0, 50, 0
4, 182880, Note_on_c, 0, 46, 100
4, 183360, Note_on_c, 0, 46, 0
4, 183840, Note_on_c, 0, 50, 100
4, 187200, Note_on_c, 0, 50, 0
4, 187680, Note_on_c, 0, 51, 100
4, 191040, Note_on_c, 0, 51, 0
4, 191520, Note_on_c, 0, 46, 100
4, 194880, Note_on_c, 0, 46, 0
4, 195360, Note_on_c, 0, 41, 100
4, 197280, Note_on_c, 0, 41, 0
4, 197760, Note_on_c, 0, 48, 100
4, 198000, Note_on_c, 0, 48, 0
4, 198240, Note_on_c, 0, 47, 100
4, 198480, Note_on_c, 0, 47, 0
4, 198720, Note_on_c, 0, 46, 100
4, 198960, Note_on_c, 0, 46, 0
4, 199200, Note_on_c, 0, 41, 100
4, 206400, Note_on_c, 0, 41, 0
4, 206880, Note_on_c, 0, 44, 100
4, 210720, Note_on_c, 0, 44, 0
4, 211200, Note_on_c, 0, 43, 100
4, 211440, Note_on_c, 0, 43, 0
4, 211680, Note_on_c, 0, 44, 100
4, 213360, Note_on_c, 0, 44, 0
4, 213600, Note_on_c, 0, 43, 100
4, 213840, Note_on_c, 0, 43, 0
4, 214080, Note_on_c, 0, 42, 100
4, 214320, Note_on_c, 0, 42, 0
4, 214560, Note_on_c, 0, 41, 100
4, 221760, Note_on_c, 0, 41, 0
4, 222240, Note_on_c, 0, 46, 100
4, 222960, Note_on_c, 0, 46, 0
4, 223200, Note_on_c, 0, 48, 100
4, 223440, Note_on_c, 0, 48, 0
4, 223680, Note_on_c, 0, 49, 100
4, 223920, Note_on_c, 0, 49, 0
4, 224160, Note_on_c, 0, 51, 100
4, 224880, Note_on_c, 0, 51, 0
4, 225120, Note_on_c, 0, 49, 100
4, 225360, Note_on_c, 0, 49, 0
4, 225600, Note_on_c, 0, 48, 100
4, 225840, Note_on_c, 0, 48, 0
4, 226080, Note_on_c, 0, 46, 100
4, 226800, Note_on_c, 0, 46, 0
4, 227040, Note_on_c, 0, 48, 100
4, 227280, Note_on_c, 0, 48, 0
4, 227520, Note_on_c, 0, 49, 100
4, 227760, Note_on_c, 0, 49, 0
4, 228000, Note_on_c, 0, 48, 100
4, 228720, Note_on_c, 0, 48, 0
4, 228960, Note_on_c, 0, 46, 100
4, 229200, Note_on_c, 0, 46, 0
4, 229440, Note_on_c, 0, 45, 100
4, 229680, Note_on_c, 0, 45, 0
4, 229920, Note_on_c, 0, 46, 100
4, 230400, Note_on_c, 0, 46, 0
4, 230880, Note_on_c, 0, 41, 100
4, 231120, Note_on_c, 0, 41, 0
4, 231360, Note_on_c, 0, 44, 100
4, 231600, Note_on_c, 0, 44, 0
4, 231840, Note_on_c, 0, 41, 100
4, 232080, Note_on_c, 0, 41, 0
4, 232320, Note_on_c, 0, 43, 100
4, 232560, Note_on_c, 0, 43, 0
4, 232800, Note_on_c, 0, 44, 100
4, 233040, Note_on_c, 0, 44, 0
4, 233280, Note_on_c, 0, 41, 100
4, 234000, Note_on_c, 0, 41, 0
4, 234240, Note_on_c, 0, 44, 100
4, 234480, Note_on_c, 0, 44, 0
4, 234720, Note_on_c, 0, 43, 100
4, 234960, Note_on_c, 0, 43, 0
4, 235200, Note_on_c, 0, 41, 100
4, 235440, Note_on_c, 0, 41, 0
4, 235680, Note_on_c, 0, 45, 100
4, 235920, Note_on_c, 0, 45, 0
4, 236640, Note_on_c, 0, 44, 100
4, 236880, Note_on_c, 0, 44, 0
4, 237120, Note_on_c, 0, 41, 100
4, 237360, Note_on_c, 0, 41, 0
4, 237600, Note_on_c, 0, 44, 100
4, 238800, Note_on_c, 0, 44, 0
4, 239040, Note_on_c, 0, 46, 100
4, 239280, Note_on_c, 0, 46, 0
4, 239520, Note_on_c, 0, 44, 100
4, 240240, Note_on_c, 0, 44, 0
4, 240480, Note_on_c, 0, 48, 100
4, 240720, Note_on_c, 0, 48, 0
4, 240960, Note_on_c, 0, 44, 100
4, 241680, Note_on_c, 0, 44, 0
4, 241920, Note_on_c, 0, 46, 100
4, 242160, Note_on_c, 0, 46, 0
4, 242400, Note_on_c, 0, 44, 100
4, 242640, Note_on_c, 0, 44, 0
4, 242880, Note_on_c, 0, 46, 100
4, 243120, Note_on_c, 0, 46, 0
4, 243360, Note_on_c, 0, 48, 100
4, 243600, Note_on_c, 0, 48, 0
4, 244320, Note_on_c, 0, 46, 100
4, 244560, Note_on_c, 0, 46, 0
4, 244800, Note_on_c, 0, 44, 100
4, 245040, Note_on_c, 0, 44, 0
4, 245280, Note_on_c, 0, 41, 100
4, 246480, Note_on_c, 0, 41, 0
4, 246720, Note_on_c, 0, 43, 100
4, 246960, Note_on_c, 0, 43, 0
4, 247200, Note_on_c, 0, 41, 100
4, 247440, Note_on_c, 0, 41, 0
4, 247680, Note_on_c, 0, 44, 100
4, 247920, Note_on_c, 0, 44, 0
4, 248160, Note_on_c, 0, 41, 100
4, 249360, Note_on_c, 0, 41, 0
4, 249600, Note_on_c, 0, 43, 100
4, 249840, Note_on_c, 0, 43, 0
4, 250080, Note_on_c, 0, 44, 100
4, 250320, Note_on_c, 0, 44, 0
4, 250560, Note_on_c, 0, 41, 100
4, 250800, Note_on_c, 0, 41, 0
4, 251040, Note_on_c, 0, 43, 100
4, 251280, Note_on_c, 0, 43, 0
4, 252000, Note_on_c, 0, 41, 100
4, 252240, Note_on_c, 0, 41, 0
4, 252960, Note_on_c, 0, 48, 100
4, 253200, Note_on_c, 0, 48, 0
4, 253920, Note_on_c, 0, 44, 100
4, 254160, Note_on_c, 0, 44, 0
4, 254400, Note_on_c, 0, 48, 100
4, 254640, Note_on_c, 0, 48, 0
4, 255360, Note_on_c, 0, 46, 100
4, 255600, Note_on_c, 0, 46, 0
4, 255840, Note_on_c, 0, 48, 100
4, 256080, Note_on_c, 0, 48, 0
4, 256320, Note_on_c, 0, 46, 100
4, 256560, Note_on_c, 0, 46, 0
4, 256800, Note_on_c, 0, 44, 100
4, 257040, Note_on_c, 0, 44, 0
4, 257280, Note_on_c, 0, 43, 100
4, 257520, Note_on_c, 0, 43, 0
4, 257760, Note_on_c, 0, 41, 100
4, 258000, Note_on_c, 0, 41, 0
4, 258720, Note_on_c, 0, 44, 100
4, 258960, Note_on_c, 0, 44, 0
4, 259680, Note_on_c, 0, 48, 100
4, 259920, Note_on_c, 0, 48, 0
4, 260640, Note_on_c, 0, 41, 100
4, 267840, Note_on_c, 0, 41, 0
4, 268320, Note_on_c, 0, 44, 100
4, 275520, Note_on_c, 0, 44, 0
4, 276000, Note_on_c, 0, 41, 100
4, 283200, Note_on_c, 0, 41, 0
4, 283680, Note_on_c, 0, 46, 100
4, 284400, Note_on_c, 0, 46, 0
4, 284640, Note_on_c, 0, 48, 100
4, 284880, Note_on_c, 0, 48, 0
4, 285120, Note_on_c, 0, 49, 100
4, 285360, Note_on_c, 0, 49, 0
4, 285600, Note_on_c, 0, 51, 100
4, 286320, Note_on_c, 0, 51, 0
4, 286560, Note_on_c, 0, 49, 100
4, 286800, Note_on_c, 0, 49, 0
4, 287040, Note_on_c, 0, 48, 100
4, 287280, Note_on_c, 0, 48, 0
4, 287520, Note_on_c, 0, 46, 100
4, 288240, Note_on_c, 0, 46, 0
4, 288480, Note_on_c, 0, 48, 100
4, 288720, Note_on_c, 0, 48, 0
4, 288960, Note_on_c, 0, 49, 100
4, 289200, Note_on_c, 0, 49, 0
4, 289440, Note_on_c, 0, 48, 100
4, 290160, Note_on_c, 0, 48, 0
4, 290400, Note_on_c, 0, 46, 100
4, 290640, Note_on_c, 0, 46, 0
4, 290880, Note_on_c, 0, 45, 100
4, 291120, Note_on_c, 0, 45, 0
4, 291360, Note_on_c, 0, 46, 100
4, 291840, Note_on_c, 0, 46, 0
4, 292800, Note_on_c, 0, 40, 100
4, 298080, Note_on_c, 0, 40, 0
4, 299040, Note_on_c, 0, 50, 100
4, 302400, Note_on_c, 0, 50, 0
4, 302880, Note_on_c, 0, 51, 100
4, 306240, Note_on_c, 0, 51, 0
4, 306720, Note_on_c, 0, 46, 100
4, 310080, Note_on_c, 0, 46, 0
4, 310560, Note_on_c, 0, 49, 100
4, 313920, Note_on_c, 0, 49, 0
4, 314400, Note_on_c, 0, 50, 100
4, 317760, Note_on_c, 0, 50, 0
4, 318240, Note_on_c, 0, 51, 100
4, 321600, Note_on_c, 0, 51, 0
4, 322080, Note_on_c, 0, 46, 100
4, 325440, Note_on_c, 0, 46, 0
4, 325920, Note_on_c, 0, 41, 100
4, 329280, Note_on_c, 0, 41, 0
4, 329760, Note_on_c, 0, 50, 100
4, 333120, Note_on_c, 0, 50, 0
4, 333600, Note_on_c, 0, 51, 100
4, 336960, Note_on_c, 0, 51, 0
4, 337440, Note_on_c, 0, 45, 100
4, 338400, Note_on_c, 0, 45, 0
4, 338880, Note_on_c, 0, 49, 100
4, 339840, Note_on_c, 0, 49, 0
4, 340320, Note_on_c, 0, 45, 100
4, 340800, Note_on_c, 0, 45, 0
4, 341280, Note_on_c, 0, 46, 100
4, 342240, Note_on_c, 0, 46, 0
4, 342720, Note_on_c, 0, 50, 100
4, 343680, Note_on_c, 0, 50, 0
4, 344160, Note_on_c, 0, 46, 100
4, 344640, Note_on_c, 0, 46, 0
4, 345120, Note_on_c, 0, 50, 100
4, 348480, Note_on_c, 0, 50, 0
4, 348960, Note_on_c, 0, 51, 100
4, 352320, Note_on_c, 0, 51, 0
4, 352800, Note_on_c, 0, 46, 100
4, 356160, Note_on_c, 0, 46, 0
4, 356640, Note_on_c, 0, 41, 100
4, 358560, Note_on_c, 0, 41, 0
4, 359040, Note_on_c, 0, 48, 100
4, 359280, Note_on_c, 0, 48, 0
4, 359520, Note_on_c, 0, 47, 100
4, 359760, Note_on_c, 0, 47, 0
4, 360000, Note_on_c, 0, 46, 100
4, 360240, Note_on_c, 0, 46, 0
4, 360480, Note_on_c, 0, 41, 100
4, 362880, Note_on_c, 0, 41, 0
4, 364800, Note_on_c, 0, 40, 100
4, 381600, Note_on_c, 0, 40, 0
4, 383520, Note_on_c, 0, 46, 100
4, 384240, Note_on_c, 0, 46, 0
4, 384480, Note_on_c, 0, 48, 100
4, 384720, Note_on_c, 0, 48, 0
4, 384960, Note_on_c, 0, 49, 100
4, 385200, Note_on_c, 0, 49, 0
4, 385440, Note_on_c, 0, 51, 100
4, 386160, Note_on_c, 0, 51, 0
4, 386400, Note_on_c, 0, 49, 100
4, 386640, Note_on_c, 0, 49, 0
4, 386880, Note_on_c, 0, 48, 100
4, 387120, Note_on_c, 0, 48, 0
4, 387360, Note_on_c, 0, 46, 100
4, 388080, Note_on_c, 0, 46, 0
4, 388320, Note_on_c, 0, 48, 100
4, 388560, Note_on_c, 0, 48, 0
4, 388800, Note_on_c, 0, 49, 100
4, 389040, Note_on_c, 0, 49, 0
4, 389280, Note_on_c, 0, 48, 100
4, 390000, Note_on_c, 0, 48, 0
4, 390240, Note_on_c, 0, 47, 100
4, 390480, Note_on_c, 0, 47, 0
4, 390720, Note_on_c, 0, 46, 100
4, 390960, Note_on_c, 0, 46, 0
4, 391680, Note_on_c, 0, 47, 100
4, 391920, Note_on_c, 0, 47, 0
4, 392160, Note_on_c, 0, 48, 100
4, 392400, Note_on_c, 0, 48, 0
4, 392640, Note_on_c, 0, 49, 100
4, 392880, Note_on_c, 0, 49, 0
4, 393120, Note_on_c, 0, 50, 100
4, 393360, Note_on_c, 0, 50, 0
4, 393840, Note_on_c, 0, 51, 100
4, 394080, Note_on_c, 0, 51, 0
4, 394560, Note_on_c, 0, 49, 100
4, 396000, Note_on_c, 0, 49, 0
4, 396480, Note_on_c, 0, 47, 100
4, 396720, Note_on_c, 0, 47, 0
4, 396960, Note_on_c, 0, 48, 100
4, 397200, Note_on_c, 0, 48, 0
4, 397440, Note_on_c, 0, 49, 100
4, 397680, Note_on_c, 0, 49, 0
4, 397920, Note_on_c, 0, 50, 100
4, 398160, Note_on_c, 0, 50, 0
4, 398400, Note_on_c, 0, 49, 100
4, 399120, Note_on_c, 0, 49, 0
4, 399360, Note_on_c, 0, 48, 100
4, 399600, Note_on_c, 0, 48, 0
4, 400320, Note_on_c, 0, 50, 100
4, 400560, Note_on_c, 0, 50, 0
4, 400800, Note_on_c, 0, 51, 100
4, 401040, Note_on_c, 0, 51, 0
4, 401520, Note_on_c, 0, 52, 100
4, 401760, Note_on_c, 0, 52, 0
4, 402240, Note_on_c, 0, 50, 100
4, 403680, Note_on_c, 0, 50, 0
4, 404160, Note_on_c, 0, 48, 100
4, 404400, Note_on_c, 0, 48, 0
4, 404640, Note_on_c, 0, 50, 100
4, 404880, Note_on_c, 0, 50, 0
4, 405120, Note_on_c, 0, 52, 100
4, 405360, Note_on_c, 0, 52, 0
4, 405600, Note_on_c, 0, 51, 100
4, 405840, Note_on_c, 0, 51, 0
4, 406080, Note_on_c, 0, 50, 100
4, 406800, Note_on_c, 0, 50, 0
4, 407040, Note_on_c, 0, 47, 100
4, 407280, Note_on_c, 0, 47, 0
4, 408000, Note_on_c, 0, 48, 100
4, 408240, Note_on_c, 0, 48, 0
4, 408480, Note_on_c, 0, 49, 100
4, 408720, Note_on_c, 0, 49, 0
4, 409200, Note_on_c, 0, 51, 100
4, 409440, Note_on_c, 0, 51, 0
4, 409920, Note_on_c, 0, 49, 100
4, 411360, Note_on_c, 0, 49, 0
4, 411840, Note_on_c, 0, 47, 100
4, 412080, Note_on_c, 0, 47, 0
4, 412320, Note_on_c, 0, 48, 100
4, 412560, Note_on_c, 0, 48, 0
4, 412800, Note_on_c, 0, 49, 100
4, 413040, Note_on_c, 0, 49, 0
4, 413280, Note_on_c, 0, 50, 100
4, 413520, Note_on_c, 0, 50, 0
4, 413760, Note_on_c, 0, 49, 100
4, 414480, Note_on_c, 0, 49, 0
4, 414720, Note_on_c, 0, 50, 100
4, 415920, Note_on_c, 0, 50, 0
4, 416160, Note_on_c, 0, 52, 100
4, 418320, Note_on_c, 0, 52, 0
4, 418560, Note_on_c, 0, 53, 100
4, 419760, Note_on_c, 0, 53, 0
4, 420000, Note_on_c, 0, 55, 100
4, 421200, Note_on_c, 0, 55, 0
4, 421440, Note_on_c, 0, 57, 100
4, 426240, Note_on_c, 0, 57, 0
4, 430080, Note_on_c, 0, 55, 100
4, 433680, Note_on_c, 0, 55, 0
4, 433920, Note_on_c, 0, 52, 100
4, 434160, Note_on_c, 0, 52, 0
4, 434400, Note_on_c, 0, 54, 100
4, 434640, Note_on_c, 0, 54, 0
4, 434880, Note_on_c, 0, 55, 100
4, 435120, Note_on_c, 0, 55, 0
4, 435360, Note_on_c, 0, 54, 100
4, 435600, Note_on_c, 0, 54, 0
4, 436320, Note_on_c, 0, 52, 100
4, 436560, Note_on_c, 0, 52, 0
4, 436800, Note_on_c, 0, 51, 100
4, 437040, Note_on_c, 0, 51, 0
4, 437280, Note_on_c, 0, 49, 100
4, 441360, Note_on_c, 0, 49, 0
4, 441600, Note_on_c, 0, 51, 100
4, 441840, Note_on_c, 0, 51, 0
4, 442080, Note_on_c, 0, 52, 100
4, 442320, Note_on_c, 0, 52, 0
4, 442560, Note_on_c, 0, 54, 100
4, 442800, Note_on_c, 0, 54, 0
4, 443040, Note_on_c, 0, 52, 100
4, 444240, Note_on_c, 0, 52, 0
4, 444480, Note_on_c, 0, 50, 100
4, 444720, Note_on_c, 0, 50, 0
4, 444960, Note_on_c, 0, 52, 100
4, 448080, Note_on_c, 0, 52, 0
4, 448320, Note_on_c, 0, 51, 100
4, 448560, Note_on_c, 0, 51, 0
4, 448800, Note_on_c, 0, 49, 100
4, 452400, Note_on_c, 0, 49, 0
4, 452640, Note_on_c, 0, 52, 100
4, 452880, Note_on_c, 0, 52, 0
4, 453600, Note_on_c, 0, 54, 100
4, 453840, Note_on_c, 0, 54, 0
4, 454560, Note_on_c, 0, 56, 100
4, 454800, Note_on_c, 0, 56, 0
4, 455354, Note_on_c, 0, 57, 100
4, 455594, Note_on_c, 0, 57, 0
4, 456000, Note_on_c, 0, 55, 100
4, 456240, Note_on_c, 0, 55, 0
4, 456314, Note_on_c, 0, 53, 100
4, 456554, Note_on_c, 0, 53, 0
4, 457278, Note_on_c, 0, 56, 100
4, 457518, Note_on_c, 0, 56, 0
4, 457920, Note_on_c, 0, 57, 100
4, 458160, Note_on_c, 0, 57, 0
4, 458560, Note_on_c, 0, 54, 100
4, 458800, Note_on_c, 0, 54, 0
4, 458880, Note_on_c, 0, 55, 100
4, 460560, Note_on_c, 0, 55, 0
4, 460800, Note_on_c, 0, 53, 100
4, 461520, Note_on_c, 0, 53, 0
4, 461760, Note_on_c, 0, 51, 100
4, 462000, Note_on_c, 0, 51, 0
4, 462240, Note_on_c, 0, 53, 100
4, 462480, Note_on_c, 0, 53, 0
4, 462720, Note_on_c, 0, 51, 100
4, 462960, Note_on_c, 0, 51, 0
4, 463200, Note_on_c, 0, 53, 100
4, 463920, Note_on_c, 0, 53, 0
4, 464160, Note_on_c, 0, 48, 100
4, 464400, Note_on_c, 0, 48, 0
4, 464640, Note_on_c, 0, 51, 100
4, 464880, Note_on_c, 0, 51, 0
4, 465360, Note_on_c, 0, 48, 100
4, 465600, Note_on_c, 0, 48, 0
4, 465840, Note_on_c, 0, 51, 100
4, 466080, Note_on_c, 0, 51, 0
4, 466560, Note_on_c, 0, 47, 100
4, 467280, Note_on_c, 0, 47, 0
4, 467520, Note_on_c, 0, 45, 100
4, 467760, Note_on_c, 0, 45, 0
4, 468480, Note_on_c, 0, 50, 100
4, 468720, Note_on_c, 0, 50, 0
4, 469440, Note_on_c, 0, 44, 100
4, 469680, Note_on_c, 0, 44, 0
4, 470400, Note_on_c, 0, 50, 100
4, 470640, Note_on_c, 0, 50, 0
4, 471360, Note_on_c, 0, 44, 100
4, 471600, Note_on_c, 0, 44, 0
4, 472320, Note_on_c, 0, 51, 100
4, 472560, Note_on_c, 0, 51, 0
4, 473280, Note_on_c, 0, 44, 100
4, 473520, Note_on_c, 0, 44, 0
4, 474240, Note_on_c, 0, 51, 100
4, 474480, Note_on_c, 0, 51, 0
4, 475200, Note_on_c, 0, 44, 100
4, 475440, Note_on_c, 0, 44, 0
4, 476160, Note_on_c, 0, 53, 100
4, 476400, Note_on_c, 0, 53, 0
4, 477120, Note_on_c, 0, 44, 100
4, 477360, Note_on_c, 0, 44, 0
4, 478080, Note_on_c, 0, 53, 100
4, 478320, Note_on_c, 0, 53, 0
4, 479040, Note_on_c, 0, 44, 100
4, 479280, Note_on_c, 0, 44, 0
4, 480000, Note_on_c, 0, 52, 100
4, 480240, Note_on_c, 0, 52, 0
4, 480960, Note_on_c, 0, 44, 100
4, 481200, Note_on_c, 0, 44, 0
4, 481920, Note_on_c, 0, 52, 100
4, 482160, Note_on_c, 0, 52, 0
4, 482880, Note_on_c, 0, 44, 100
4, 483120, Note_on_c, 0, 44, 0
4, 483360, Note_on_c, 0, 52, 100
4, 483840, Note_on_c, 0, 52, 0
4, 490080, Note_on_c, 0, 40, 100
4, 490320, Note_on_c, 0, 40, 0
4, 491280, Note_on_c, 0, 41, 100
4, 491520, Note_on_c, 0, 41, 0
4, 491760, Note_on_c, 0, 48, 100
4, 492000, Note_on_c, 0, 48, 0
4, 492000, Note_on_c, 0, 49, 100
4, 492240, Note_on_c, 0, 49, 0
4, 492480, Note_on_c, 0, 46, 100
4, 492720, Note_on_c, 0, 46, 0
4, 492720, Note_on_c, 0, 44, 100
4, 492960, Note_on_c, 0, 44, 0
4, 492960, Note_on_c, 0, 41, 100
4, 493200, Note_on_c, 0, 41, 0
4, 493440, Note_on_c, 0, 49, 100
4, 493680, Note_on_c, 0, 49, 0
4, 493680, Note_on_c, 0, 51, 100
4, 493920, Note_on_c, 0, 51, 0
4, 493920, Note_on_c, 0, 41, 100
4, 494160, Note_on_c, 0, 41, 0
4, 494160, Note_on_c, 0, 48, 100
4, 494640, Note_on_c, 0, 48, 0
4, 494880, Note_on_c, 0, 49, 100
4, 495120, Note_on_c, 0, 49, 0
4, 495120, Note_on_c, 0, 41, 100
4, 495360, Note_on_c, 0, 41, 0
4, 495600, Note_on_c, 0, 48, 100
4, 495840, Note_on_c, 0, 48, 0
4, 495840, Note_on_c, 0, 49, 100
4, 496080, Note_on_c, 0, 49, 0
4, 496320, Note_on_c, 0, 46, 100
4, 496560, Note_on_c, 0, 46, 0
4, 496560, Note_on_c, 0, 44, 100
4, 496800, Note_on_c, 0, 44, 0
4, 496800, Note_on_c, 0, 41, 100
4, 497040, Note_on_c, 0, 41, 0
4, 497280, Note_on_c, 0, 48, 100
4, 497520, Note_on_c, 0, 48, 0
4, 497520, Note_on_c, 0, 46, 100
4, 497760, Note_on_c, 0, 46, 0
4, 497760, Note_on_c, 0, 41, 100
4, 498000, Note_on_c, 0, 41, 0
4, 498000, Note_on_c, 0, 43, 100
4, 498480, Note_on_c, 0, 43, 0
4, 498720, Note_on_c, 0, 44, 100
4, 498960, Note_on_c, 0, 44, 0
4, 498960, Note_on_c, 0, 41, 100
4, 499200, Note_on_c, 0, 41, 0
4, 500160, Note_on_c, 0, 40, 100
4, 505200, Note_on_c, 0, 40, 0
4, 506400, Note_on_c, 0, 50, 100
4, 509760, Note_on_c, 0, 50, 0
4, 510240, Note_on_c, 0, 51, 100
4, 513600, Note_on_c, 0, 51, 0
4, 514080, Note_on_c, 0, 46, 100
4, 517440, Note_on_c, 0, 46, 0
4, 517920, Note_on_c, 0, 49, 100
4, 521280, Note_on_c, 0, 49, 0
4, 521760, Note_on_c, 0, 50, 100
4, 525120, Note_on_c, 0, 50, 0
4, 525600, Note_on_c, 0, 51, 100
4, 528960, Note_on_c, 0, 51, 0
4, 529440, Note_on_c, 0, 46, 100
4, 532800, Note_on_c, 0, 46, 0
4, 533280, Note_on_c, 0, 41, 100
4, 536640, Note_on_c, 0, 41, 0
4, 537120, Note_on_c, 0, 50, 100
4, 540480, Note_on_c, 0, 50, 0
4, 540960, Note_on_c, 0, 51, 100
4, 544320, Note_on_c, 0, 51, 0
4, 544800, Note_on_c, 0, 45, 100
4, 545760, Note_on_c, 0, 45, 0
4, 546240, Note_on_c, 0, 49, 100
4, 547200, Note_on_c, 0, 49, 0
4, 547680, Note_on_c, 0, 45, 100
4, 548160, Note_on_c, 0, 45, 0
4, 548640, Note_on_c, 0, 46, 100
4, 549600, Note_on_c, 0, 46, 0
4, 550080, Note_on_c, 0, 50, 100
4, 551040, Note_on_c, 0, 50, 0
4, 551520, Note_on_c, 0, 46, 100
4, 552000, Note_on_c, 0, 46, 0
4, 552480, Note_on_c, 0, 50, 100
4, 555840, Note_on_c, 0, 50, 0
4, 556320, Note_on_c, 0, 51, 100
4, 559680, Note_on_c, 0, 51, 0
4, 560160, Note_on_c, 0, 46, 100
4, 563520, Note_on_c, 0, 46, 0
4, 564000, Note_on_c, 0, 41, 100
4, 565920, Note_on_c, 0, 41, 0
4, 566400, Note_on_c, 0, 48, 100
4, 566640, Note_on_c, 0, 48, 0
4, 566880, Note_on_c, 0, 47, 100
4, 567120, Note_on_c, 0, 47, 0
4, 567360, Note_on_c, 0, 46, 100
4, 567600, Note_on_c, 0, 46, 0
4, 567840, Note_on_c, 0, 50, 100
4, 571200, Note_on_c, 0, 50, 0
4, 571680, Note_on_c, 0, 51, 100
4, 575040, Note_on_c, 0, 51, 0
4, 575520, Note_on_c, 0, 46, 100
4, 578880, Note_on_c, 0, 46, 0
4, 579360, Note_on_c, 0, 49, 100
4, 582720, Note_on_c, 0, 49, 0
4, 583200, Note_on_c, 0, 50, 100
4, 586560, Note_on_c, 0, 50, 0
4, 587040, Note_on_c, 0, 51, 100
4, 590400, Note_on_c, 0, 51, 0
4, 590880, Note_on_c, 0, 46, 100
4, 594240, Note_on_c, 0, 46, 0
4, 594720, Note_on_c, 0, 41, 100
4, 598080, Note_on_c, 0, 41, 0
4, 598560, Note_on_c, 0, 50, 100
4, 601920, Note_on_c, 0, 50, 0
4, 602400, Note_on_c, 0, 51, 100
4, 605760, Note_on_c, 0, 51, 0
4, 606240, Note_on_c, 0, 45, 100
4, 607200, Note_on_c, 0, 45, 0
4, 607680, Note_on_c, 0, 49, 100
4, 608640, Note_on_c, 0, 49, 0
4, 609120, Note_on_c, 0, 45, 100
4, 609600, Note_on_c, 0, 45, 0
4, 610080, Note_on_c, 0, 46, 100
4, 611040, Note_on_c, 0, 46, 0
4, 611520, Note_on_c, 0, 50, 100
4, 612480, Note_on_c, 0, 50, 0
4, 612960, Note_on_c, 0, 46, 100
4, 613440, Note_on_c, 0, 46, 0
4, 613920, Note_on_c, 0, 50, 100
4, 617280, Note_on_c, 0, 50, 0
4, 617760, Note_on_c, 0, 51, 100
4, 621120, Note_on_c, 0, 51, 0
4, 621600, Note_on_c, 0, 46, 100
4, 624960, Note_on_c, 0, 46, 0
4, 625440, Note_on_c, 0, 41, 100
4, 627120, Note_on_c, 0, 41, 0
4, 627840, Note_on_c, 0, 48, 100
4, 628080, Note_on_c, 0, 48, 0
4, 628320, Note_on_c, 0, 47, 100
4, 628560, Note_on_c, 0, 47, 0
4, 628800, Note_on_c, 0, 46, 100
4, 629040, Note_on_c, 0, 46, 0
4, 629280, Note_on_c, 0, 50, 100
4, 630240, Note_on_c, 0, 50, 0
4, 631200, Note_on_c, 0, 41, 100
4, 635280, Note_on_c, 0, 41, 0
4, 636480, Note_on_c, 0, 48, 100
4, 636720, Note_on_c, 0, 48, 0
4, 636960, Note_on_c, 0, 50, 100
4, 637920, Note_on_c, 0, 50, 0
4, 638880, Note_on_c, 0, 41, 100
4, 642960, Note_on_c, 0, 41, 0
4, 644160, Note_on_c, 0, 48, 100
4, 644400, Note_on_c, 0, 48, 0
4, 644640, Note_on_c, 0, 50, 100
4, 645600, Note_on_c, 0, 50, 0
4, 646560, Note_on_c, 0, 41, 100
4, 650640, Note_on_c, 0, 41, 0
4, 651840, Note_on_c, 0, 48, 100
4, 652080, Note_on_c, 0, 48, 0
4, 652320, Note_on_c, 0, 50, 100
4, 653280, Note_on_c, 0, 50, 0
4, 654240, Note_on_c, 0, 41, 100
4, 655920, Note_on_c, 0, 41, 0
4, 656640, Note_on_c, 0, 47, 100
4, 656880, Note_on_c, 0, 47, 0
4, 657120, Note_on_c, 0, 49, 100
4, 657360, Note_on_c, 0, 49, 0
4, 657600, Note_on_c, 0, 52, 100
4, 657840, Note_on_c, 0, 52, 0
4, 658560, Note_on_c, 0, 54, 100
4, 658800, Note_on_c, 0, 54, 0
4, 659040, Note_on_c, 0, 53, 100
4, 659280, Note_on_c, 0, 53, 0
4, 659520, Note_on_c, 0, 50, 100
4, 659760, Note_on_c, 0, 50, 0
4, 660000, Note_on_c, 0, 52, 100
4, 661200, Note_on_c, 0, 52, 0
4, 662880, Note_on_c, 0, 40, 100
4, 663840, Note_on_c, 0, 40, 0
4, 663840, End_track
5, 0, Start_track
5, 0, Title_t, "TRIGGERS"
5, 7680, Note_on_c, 0, 60, 100
5, 7680, Note_on_c, 0, 61, 100
5, 7680, Note_on_c, 0, 67, 100
5, 7920, Note_on_c, 0, 60, 0
5, 7920, Note_on_c, 0, 61, 0
5, 11280, Note_on_c, 0, 67, 0
5, 11520, Note_on_c, 0, 60, 100
5, 11520, Note_on_c, 0, 61, 100
5, 11520, Note_on_c, 0, 68, 100
5, 11760, Note_on_c, 0, 60, 0
5, 11760, Note_on_c, 0, 61, 0
5, 15120, Note_on_c, 0, 68, 0
5, 15360, Note_on_c, 0, 60, 100
5, 15360, Note_on_c, 0, 61, 100
5, 15360, Note_on_c, 0, 68, 100
5, 15600, Note_on_c, 0, 60, 0
5, 15600, Note_on_c, 0, 61, 0
5, 18960, Note_on_c, 0, 68, 0
5, 19200, Note_on_c, 0, 60, 100
5, 19200, Note_on_c, 0, 61, 100
5, 19200, Note_on_c, 0, 69, 100
5, 19440, Note_on_c, 0, 60, 0
5, 19440, Note_on_c, 0, 61, 0
5, 20640, Note_on_c, 0, 60, 100
5, 20880, Note_on_c, 0, 69, 0
5, 20880, Note_on_c, 0, 60, 0
5, 20880, Note_on_c, 0, 60, 100
5, 21120, Note_on_c, 0, 60, 0
5, 21120, Note_on_c, 0, 61, 100
5, 21120, Note_on_c, 0, 68, 100
5, 21360, Note_on_c, 0, 61, 0
5, 21360, Note_on_c, 0, 68, 0
5, 21840, Note_on_c, 0, 60, 100
5, 21840, Note_on_c, 0, 61, 100
5, 21840, Note_on_c, 0, 69, 100
5, 22080, Note_on_c, 0, 60, 0
5, 22080, Note_on_c, 0, 61, 0
5, 22080, Note_on_c, 0, 69, 0
5, 22560, Note_on_c, 0, 60, 100
5, 22560, Note_on_c, 0, 61, 100
5, 22560, Note_on_c, 0, 68, 100
5, 22800, Note_on_c, 0, 60, 0
5, 22800, Note_on_c, 0, 61, 0
5, 22800, Note_on_c, 0, 68, 0
5, 23040, Note_on_c, 0, 60, 100
5, 23040, Note_on_c, 0, 61, 100
5, 23040, Note_on_c, 0, 67, 100
5, 23280, Note_on_c, 0, 60, 0
5, 23280, Note_on_c, 0, 61, 0
5, 26640, Note_on_c, 0, 67, 0
5, 26880, Note_on_c, 0, 60, 100
5, 26880, Note_on_c, 0, 61, 100
5, 26880, Note_on_c, 0, 68, 100
5, 27120, Note_on_c, 0, 60, 0
5, 27120, Note_on_c, 0, 61, 0
5, 30480, Note_on_c, 0, 68, 0
5, 30720, Note_on_c, 0, 60, 100
5, 30720, Note_on_c, 0, 61, 100
5, 30720, Note_on_c, 0, 68, 100
5, 30960, Note_on_c, 0, 60, 0
5, 30960, Note_on_c, 0, 61, 0
5, 34320, Note_on_c, 0, 68, 0
5, 34560, Note_on_c, 0, 60, 100
5, 34560, Note_on_c, 0, 61, 100
5, 34560, Note_on_c, 0, 69, 100
5, 34800, Note_on_c, 0, 60, 0
5, 34800, Note_on_c, 0, 61, 0
5, 37680, Note_on_c, 0, 69, 0
5, 37920, Note_on_c, 0, 61, 100
5, 38160, Note_on_c, 0, 61, 0
5, 38160, Note_on_c, 0, 60, 100
5, 38160, Note_on_c, 0, 61, 100
5, 38160, Note_on_c, 0, 67, 100
5, 38400, Note_on_c, 0, 60, 0
5, 38400, Note_on_c, 0, 61, 0
5, 38880, Note_on_c, 0, 60, 100
5, 38880, Note_on_c, 0, 61, 100
5, 39120, Note_on_c, 0, 67, 0
5, 39120, Note_on_c, 0, 60, 0
5, 39120, Note_on_c, 0, 61, 0
5, 39360, Note_on_c, 0, 61, 100
5, 39360, Note_on_c, 0, 67, 100
5, 39600, Note_on_c, 0, 61, 0
5, 39600, Note_on_c, 0, 67, 0
5, 39840, Note_on_c, 0, 61, 100
5, 40080, Note_on_c, 0, 61, 0
5, 40320, Note_on_c, 0, 60, 100
5, 40320, Note_on_c, 0, 61, 100
5, 40320, Note_on_c, 0, 67, 100
5, 40560, Note_on_c, 0, 60, 0
5, 40560, Note_on_c, 0, 61, 0
5, 40560, Note_on_c, 0, 67, 0
5, 40800, Note_on_c, 0, 60, 100
5, 40800, Note_on_c, 0, 61, 100
5, 41040, Note_on_c, 0, 60, 0
5, 41040, Note_on_c, 0, 61, 0
5, 41280, Note_on_c, 0, 61, 100
5, 41280, Note_on_c, 0, 67, 100
5, 41520, Note_on_c, 0, 61, 0
5, 41520, Note_on_c, 0, 67, 0
5, 41760, Note_on_c, 0, 61, 100
5, 42000, Note_on_c, 0, 61, 0
5, 42240, Note_on_c, 0, 60, 100
5, 42240, Note_on_c, 0, 61, 100
5, 42240, Note_on_c, 0, 67, 100
5, 42480, Note_on_c, 0, 60, 0
5, 42480, Note_on_c, 0, 61, 0
5, 42480, Note_on_c, 0, 67, 0
5, 42720, Note_on_c, 0, 60, 100
5, 42720, Note_on_c, 0, 61, 100
5, 42960, Note_on_c, 0, 60, 0
5, 42960, Note_on_c, 0, 61, 0
5, 43200, Note_on_c, 0, 61, 100
5, 43200, Note_on_c, 0, 67, 100
5, 43440, Note_on_c, 0, 61, 0
5, 43440, Note_on_c, 0, 67, 0
5, 43680, Note_on_c, 0, 61, 100
5, 43920, Note_on_c, 0, 61, 0
5, 44160, Note_on_c, 0, 60, 100
5, 44160, Note_on_c, 0, 61, 100
5, 44160, Note_on_c, 0, 67, 100
5, 44400, Note_on_c, 0, 60, 0
5, 44400, Note_on_c, 0, 61, 0
5, 44400, Note_on_c, 0, 67, 0
5, 44640, Note_on_c, 0, 60, 100
5, 44640, Note_on_c, 0, 61, 100
5, 44880, Note_on_c, 0, 60, 0
5, 44880, Note_on_c, 0, 61, 0
5, 45120, Note_on_c, 0, 61, 100
5, 45360, Note_on_c, 0, 61, 0
5, 45600, Note_on_c, 0, 60, 100
5, 45600, Note_on_c, 0, 61, 100
5, 45600, Note_on_c, 0, 68, 100
5, 45840, Note_on_c, 0, 60, 0
5, 45840, Note_on_c, 0, 61, 0
5, 46560, Note_on_c, 0, 68, 0
5, 46560, Note_on_c, 0, 60, 100
5, 46560, Note_on_c, 0, 61, 100
5, 46800, Note_on_c, 0, 60, 0
5, 46800, Note_on_c, 0, 61, 0
5, 47040, Note_on_c, 0, 61, 100
5, 47040, Note_on_c, 0, 68, 100
5, 47280, Note_on_c, 0, 61, 0
5, 47280, Note_on_c, 0, 68, 0
5, 47520, Note_on_c, 0, 61, 100
5, 47760, Note_on_c, 0, 61, 0
5, 48000, Note_on_c, 0, 61, 100
5, 48000, Note_on_c, 0, 60, 100
5, 48000, Note_on_c, 0, 68, 100
5, 48240, Note_on_c, 0, 61, 0
5, 48240, Note_on_c, 0, 60, 0
5, 48240, Note_on_c, 0, 68, 0
5, 48480, Note_on_c, 0, 61, 100
5, 48480, Note_on_c, 0, 60, 100
5, 48720, Note_on_c, 0, 61, 0
5, 48720, Note_on_c, 0, 60, 0
5, 48960, Note_on_c, 0, 61, 100
5, 48960, Note_on_c, 0, 68, 100
5, 49200, Note_on_c, 0, 61, 0
5, 49200, Note_on_c, 0, 68, 0
5, 49440, Note_on_c, 0, 61, 100
5, 49680, Note_on_c, 0, 61, 0
5, 49920, Note_on_c, 0, 61, 100
5, 49920, Note_on_c, 0, 60, 100
5, 49920, Note_on_c, 0, 69, 100
5, 50160, Note_on_c, 0, 61, 0
5, 50160, Note_on_c, 0, 60, 0
5, 50160, Note_on_c, 0, 69, 0
5, 50400, Note_on_c, 0, 61, 100
5, 50400, Note_on_c, 0, 60, 100
5, 50640, Note_on_c, 0, 61, 0
5, 50640, Note_on_c, 0, 60, 0
5, 50880, Note_on_c, 0, 61, 100
5, 51120, Note_on_c, 0, 61, 0
5, 51360, Note_on_c, 0, 61, 100
5, 51600, Note_on_c, 0, 61, 0
5, 51840, Note_on_c, 0, 61, 100
5, 51840, Note_on_c, 0, 60, 100
5, 51840, Note_on_c, 0, 69, 100
5, 52080, Note_on_c, 0, 61, 0
5, 52080, Note_on_c, 0, 60, 0
5, 52080, Note_on_c, 0, 69, 0
5, 52320, Note_on_c, 0, 61, 100
5, 52320, Note_on_c, 0, 60, 100
5, 52560, Note_on_c, 0, 61, 0
5, 52560, Note_on_c, 0, 60, 0
5, 52800, Note_on_c, 0, 61, 100
5, 53040, Note_on_c, 0, 61, 0
5, 53280, Note_on_c, 0, 61, 100
5, 53280, Note_on_c, 0, 60, 100
5, 53280, Note_on_c, 0, 67, 100
5, 53520, Note_on_c, 0, 61, 0
5, 53520, Note_on_c, 0, 60, 0
5, 54240, Note_on_c, 0, 60, 100
5, 54240, Note_on_c, 0, 61, 100
5, 54480, Note_on_c, 0, 67, 0
5, 54480, Note_on_c, 0, 60, 0
5, 54480, Note_on_c, 0, 61, 0
5, 54720, Note_on_c, 0, 61, 100
5, 54720, Note_on_c, 0, 67, 100
5, 54960, Note_on_c, 0, 61, 0
5, 54960, Note_on_c, 0, 67, 0
5, 55200, Note_on_c, 0, 61, 100
5, 55440, Note_on_c, 0, 61, 0
5, 55680, Note_on_c, 0, 61, 100
5, 55680, Note_on_c, 0, 60, 100
5, 55680, Note_on_c, 0, 67, 100
5, 55920, Note_on_c, 0, 61, 0
5, 55920, Note_on_c, 0, 60, 0
5, 55920, Note_on_c, 0, 67, 0
5, 56160, Note_on_c, 0, 61, 100
5, 56160, Note_on_c, 0, 60, 100
5, 56400, Note_on_c, 0, 61, 0
5, 56400, Note_on_c, 0, 60, 0
5, 56640, Note_on_c, 0, 61, 100
5, 56640, Note_on_c, 0, 67, 100
5, 56880, Note_on_c, 0, 61, 0
5, 56880, Note_on_c, 0, 67, 0
5, 57120, Note_on_c, 0, 61, 100
5, 57360, Note_on_c, 0, 61, 0
5, 57600, Note_on_c, 0, 61, 100
5, 57600, Note_on_c, 0, 60, 100
5, 57600, Note_on_c, 0, 67, 100
5, 57840, Note_on_c, 0, 61, 0
5, 57840, Note_on_c, 0, 60, 0
5, 57840, Note_on_c, 0, 67, 0
5, 58080, Note_on_c, 0, 61, 100
5, 58080, Note_on_c, 0, 60, 100
5, 58320, Note_on_c, 0, 61, 0
5, 58320, Note_on_c, 0, 60, 0
5, 58560, Note_on_c, 0, 61, 100
5, 58560, Note_on_c, 0, 67, 100
5, 58800, Note_on_c, 0, 61, 0
5, 58800, Note_on_c, 0, 67, 0
5, 59040, Note_on_c, 0, 61, 100
5, 59280, Note_on_c, 0, 61, 0
5, 59520, Note_on_c, 0, 61, 100
5, 59520, Note_on_c, 0, 60, 100
5, 59520, Note_on_c, 0, 67, 100
5, 59760, Note_on_c, 0, 61, 0
5, 59760, Note_on_c, 0, 60, 0
5, 59760, Note_on_c, 0, 67, 0
5, 59760, Note_on_c, 0, 60, 100
5, 60000, Note_on_c, 0, 60, 0
5, 60000, Note_on_c, 0, 61, 100
5, 60000, Note_on_c, 0, 60, 100
5, 60240, Note_on_c, 0, 61, 0
5, 60240, Note_on_c, 0, 60, 0
5, 60480, Note_on_c, 0, 61, 100
5, 60480, Note_on_c, 0, 60, 100
5, 60720, Note_on_c, 0, 61, 0
5, 60720, Note_on_c, 0, 60, 0
5, 60960, Note_on_c, 0, 61, 100
5, 60960, Note_on_c, 0, 60, 100
5, 60960, Note_on_c, 0, 67, 100
5, 61200, Note_on_c, 0, 61, 0
5, 61200, Note_on_c, 0, 60, 0
5, 61920, Note_on_c, 0, 67, 0
5, 61920, Note_on_c, 0, 60, 100
5, 61920, Note_on_c, 0, 61, 100
5, 62160, Note_on_c, 0, 60, 0
5, 62160, Note_on_c, 0, 61, 0
5, 62400, Note_on_c, 0, 61, 100
5, 62640, Note_on_c, 0, 61, 0
5, 62880, Note_on_c, 0, 60, 100
5, 62880, Note_on_c, 0, 61, 100
5, 62880, Note_on_c, 0, 69, 100
5, 63120, Note_on_c, 0, 60, 0
5, 63120, Note_on_c, 0, 61, 0
5, 63840, Note_on_c, 0, 69, 0
5, 63840, Note_on_c, 0, 60, 100
5, 63840, Note_on_c, 0, 61, 100
5, 64080, Note_on_c, 0, 60, 0
5, 64080, Note_on_c, 0, 61, 0
5, 64320, Note_on_c, 0, 61, 100
5, 64560, Note_on_c, 0, 61, 0
5, 64800, Note_on_c, 0, 60, 100
5, 64800, Note_on_c, 0, 61, 100
5, 64800, Note_on_c, 0, 67, 100
5, 65040, Note_on_c, 0, 60, 0
5, 65040, Note_on_c, 0, 61, 0
5, 65760, Note_on_c, 0, 67, 0
5, 65760, Note_on_c, 0, 60, 100
5, 65760, Note_on_c, 0, 61, 100
5, 66000, Note_on_c, 0, 60, 0
5, 66000, Note_on_c, 0, 61, 0
5, 66240, Note_on_c, 0, 61, 100
5, 66480, Note_on_c, 0, 61, 0
5, 66720, Note_on_c, 0, 60, 100
5, 66720, Note_on_c, 0, 61, 100
5, 66720, Note_on_c, 0, 68, 100
5, 66960, Note_on_c, 0, 60, 0
5, 66960, Note_on_c, 0, 61, 0
5, 67680, Note_on_c, 0, 68, 0
5, 67680, Note_on_c, 0, 60, 100
5, 67680, Note_on_c, 0, 61, 100
5, 67920, Note_on_c, 0, 60, 0
5, 67920, Note_on_c, 0, 61, 0
5, 68640, Note_on_c, 0, 60, 100
5, 68640, Note_on_c, 0, 61, 100
5, 68640, Note_on_c, 0, 68, 100
5, 68880, Note_on_c, 0, 60, 0
5, 68880, Note_on_c, 0, 61, 0
5, 69600, Note_on_c, 0, 68, 0
5, 69600, Note_on_c, 0, 60, 100
5, 69600, Note_on_c, 0, 61, 100
5, 69840, Note_on_c, 0, 60, 0
5, 69840, Note_on_c, 0, 61, 0
5, 70080, Note_on_c, 0, 61, 100
5, 70080, Note_on_c, 0, 67, 100
5, 70320, Note_on_c, 0, 61, 0
5, 70320, Note_on_c, 0, 67, 0
5, 70560, Note_on_c, 0, 61, 100
5, 70800, Note_on_c, 0, 61, 0
5, 71040, Note_on_c, 0, 60, 100
5, 71040, Note_on_c, 0, 61, 100
5, 71040, Note_on_c, 0, 67, 100
5, 71280, Note_on_c, 0, 60, 0
5, 71280, Note_on_c, 0, 61, 0
5, 71280, Note_on_c, 0, 67, 0
5, 71520, Note_on_c, 0, 60, 100
5, 71520, Note_on_c, 0, 61, 100
5, 71760, Note_on_c, 0, 60, 0
5, 71760, Note_on_c, 0, 61, 0
5, 72000, Note_on_c, 0, 61, 100
5, 72000, Note_on_c, 0, 67, 100
5, 72240, Note_on_c, 0, 61, 0
5, 72240, Note_on_c, 0, 67, 0
5, 72480, Note_on_c, 0, 61, 100
5, 72720, Note_on_c, 0, 61, 0
5, 72960, Note_on_c, 0, 60, 100
5, 72960, Note_on_c, 0, 61, 100
5, 72960, Note_on_c, 0, 67, 100
5, 73200, Note_on_c, 0, 60, 0
5, 73200, Note_on_c, 0, 61, 0
5, 73200, Note_on_c, 0, 67, 0
5, 73440, Note_on_c, 0, 60, 100
5, 73440, Note_on_c, 0, 61, 100
5, 73680, Note_on_c, 0, 60, 0
5, 73680, Note_on_c, 0, 61, 0
5, 73920, Note_on_c, 0, 61, 100
5, 73920, Note_on_c, 0, 67, 100
5, 74160, Note_on_c, 0, 61, 0
5, 74160, Note_on_c, 0, 67, 0
5, 74400, Note_on_c, 0, 61, 100
5, 74640, Note_on_c, 0, 61, 0
5, 74880, Note_on_c, 0, 60, 100
5, 74880, Note_on_c, 0, 61, 100
5, 74880, Note_on_c, 0, 67, 100
5, 75120, Note_on_c, 0, 60, 0
5, 75120, Note_on_c, 0, 61, 0
5, 75120, Note_on_c, 0, 67, 0
5, 75360, Note_on_c, 0, 60, 100
5, 75360, Note_on_c, 0, 61, 100
5, 75600, Note_on_c, 0, 60, 0
5, 75600, Note_on_c, 0, 61, 0
5, 75840, Note_on_c, 0, 61, 100
5, 76080, Note_on_c, 0, 61, 0
5, 76320, Note_on_c, 0, 60, 100
5, 76320, Note_on_c, 0, 61, 100
5, 76320, Note_on_c, 0, 68, 100
5, 76560, Note_on_c, 0, 60, 0
5, 76560, Note_on_c, 0, 61, 0
5, 77280, Note_on_c, 0, 60, 100
5, 77280, Note_on_c, 0, 61, 100
5, 77520, Note_on_c, 0, 68, 0
5, 77520, Note_on_c, 0, 60, 0
5, 77520, Note_on_c, 0, 61, 0
5, 77760, Note_on_c, 0, 61, 100
5, 77760, Note_on_c, 0, 68, 100
5, 78000, Note_on_c, 0, 61, 0
5, 78000, Note_on_c, 0, 68, 0
5, 78240, Note_on_c, 0, 61, 100
5, 78480, Note_on_c, 0, 61, 0
5, 78720, Note_on_c, 0, 61, 100
5, 78720, Note_on_c, 0, 60, 100
5, 78720, Note_on_c, 0, 68, 100
5, 78960, Note_on_c, 0, 61, 0
5, 78960, Note_on_c, 0, 60, 0
5, 78960, Note_on_c, 0, 68, 0
5, 79200, Note_on_c, 0, 61, 100
5, 79200, Note_on_c, 0, 60, 100
5, 79440, Note_on_c, 0, 61, 0
5, 79440, Note_on_c, 0, 60, 0
5, 79680, Note_on_c, 0, 61, 100
5, 79680, Note_on_c, 0, 68, 100
5, 79920, Note_on_c, 0, 61, 0
5, 79920, Note_on_c, 0, 68, 0
5, 80160, Note_on_c, 0, 61, 100
5, 80400, Note_on_c, 0, 61, 0
5, 80640, Note_on_c, 0, 61, 100
5, 80640, Note_on_c, 0, 60, 100
5, 80640, Note_on_c, 0, 68, 100
5, 80880, Note_on_c, 0, 61, 0
5, 80880, Note_on_c, 0, 60, 0
5, 80880, Note_on_c, 0, 68, 0
5, 81120, Note_on_c, 0, 61, 100
5, 81120, Note_on_c, 0, 60, 100
5, 81360, Note_on_c, 0, 61, 0
5, 81360, Note_on_c, 0, 60, 0
5, 81600, Note_on_c, 0, 61, 100
5, 81600, Note_on_c, 0, 68, 100
5, 81840, Note_on_c, 0, 61, 0
5, 81840, Note_on_c, 0, 68, 0
5, 82080, Note_on_c, 0, 61, 100
5, 82320, Note_on_c, 0, 61, 0
5, 82560, Note_on_c, 0, 61, 100
5, 82560, Note_on_c, 0, 60, 100
5, 82560, Note_on_c, 0, 68, 100
5, 82800, Note_on_c, 0, 61, 0
5, 82800, Note_on_c, 0, 60, 0
5, 82800, Note_on_c, 0, 68, 0
5, 83040, Note_on_c, 0, 61, 100
5, 83040, Note_on_c, 0, 60, 100
5, 83280, Note_on_c, 0, 61, 0
5, 83280, Note_on_c, 0, 60, 0
5, 83520, Note_on_c, 0, 61, 100
5, 83760, Note_on_c, 0, 61, 0
5, 84000, Note_on_c, 0, 61, 100
5, 84000, Note_on_c, 0, 60, 100
5, 84000, Note_on_c, 0, 67, 100
5, 84240, Note_on_c, 0, 61, 0
5, 84240, Note_on_c, 0, 60, 0
5, 84960, Note_on_c, 0, 60, 100
5, 84960, Note_on_c, 0, 61, 100
5, 85200, Note_on_c, 0, 67, 0
5, 85200, Note_on_c, 0, 60, 0
5, 85200, Note_on_c, 0, 61, 0
5, 85440, Note_on_c, 0, 61, 100
5, 85440, Note_on_c, 0, 67, 100
5, 85680, Note_on_c, 0, 61, 0
5, 85680, Note_on_c, 0, 67, 0
5, 85920, Note_on_c, 0, 61, 100
5, 86160, Note_on_c, 0, 61, 0
5, 86400, Note_on_c, 0, 61, 100
5, 86400, Note_on_c, 0, 60, 100
5, 86400, Note_on_c, 0, 67, 100
5, 86640, Note_on_c, 0, 61, 0
5, 86640, Note_on_c, 0, 60, 0
5, 86640, Note_on_c, 0, 67, 0
5, 86880, Note_on_c, 0, 61, 100
5, 86880, Note_on_c, 0, 60, 100
5, 87120, Note_on_c, 0, 61, 0
5, 87120, Note_on_c, 0, 60, 0
5, 87360, Note_on_c, 0, 61, 100
5, 87360, Note_on_c, 0, 67, 100
5, 87600, Note_on_c, 0, 61, 0
5, 87600, Note_on_c, 0, 67, 0
5, 87840, Note_on_c, 0, 61, 100
5, 88080, Note_on_c, 0, 61, 0
5, 88320, Note_on_c, 0, 61, 100
5, 88320, Note_on_c, 0, 60, 100
5, 88320, Note_on_c, 0, 67, 100
5, 88560, Note_on_c, 0, 61, 0
5, 88560, Note_on_c, 0, 60, 0
5, 88560, Note_on_c, 0, 67, 0
5, 88800, Note_on_c, 0, 61, 100
5, 88800, Note_on_c, 0, 60, 100
5, 89040, Note_on_c, 0, 61, 0
5, 89040, Note_on_c, 0, 60, 0
5, 89280, Note_on_c, 0, 61, 100
5, 89280, Note_on_c, 0, 67, 100
5, 89520, Note_on_c, 0, 61, 0
5, 89520, Note_on_c, 0, 67, 0
5, 89760, Note_on_c, 0, 61, 100
5, 90000, Note_on_c, 0, 61, 0
5, 90240, Note_on_c, 0, 61, 100
5, 90240, Note_on_c, 0, 67, 100
5, 90480, Note_on_c, 0, 61, 0
5, 90480, Note_on_c, 0, 67, 0
5, 90720, Note_on_c, 0, 61, 100
5, 90960, Note_on_c, 0, 61, 0
5, 91200, Note_on_c, 0, 61, 100
5, 91440, Note_on_c, 0, 61, 0
5, 91680, Note_on_c, 0, 61, 100
5, 91680, Note_on_c, 0, 60, 100
5, 91680, Note_on_c, 0, 67, 100
5, 91920, Note_on_c, 0, 61, 0
5, 91920, Note_on_c, 0, 60, 0
5, 92640, Note_on_c, 0, 67, 0
5, 92640, Note_on_c, 0, 60, 100
5, 92640, Note_on_c, 0, 61, 100
5, 92880, Note_on_c, 0, 60, 0
5, 92880, Note_on_c, 0, 61, 0
5, 93120, Note_on_c, 0, 61, 100
5, 93360, Note_on_c, 0, 61, 0
5, 93600, Note_on_c, 0, 60, 100
5, 93600, Note_on_c, 0, 61, 100
5, 93600, Note_on_c, 0, 69, 100
5, 93840, Note_on_c, 0, 60, 0
5, 93840, Note_on_c, 0, 61, 0
5, 94560, Note_on_c, 0, 69, 0
5, 94560, Note_on_c, 0, 60, 100
5, 94560, Note_on_c, 0, 61, 100
5, 94800, Note_on_c, 0, 60, 0
5, 94800, Note_on_c, 0, 61, 0
5, 95040, Note_on_c, 0, 61, 100
5, 95280, Note_on_c, 0, 61, 0
5, 95520, Note_on_c, 0, 60, 100
5, 95520, Note_on_c, 0, 61, 100
5, 95520, Note_on_c, 0, 67, 100
5, 95760, Note_on_c, 0, 60, 0
5, 95760, Note_on_c, 0, 61, 0
5, 96480, Note_on_c, 0, 67, 0
5, 96480, Note_on_c, 0, 60, 100
5, 96480, Note_on_c, 0, 61, 100
5, 96720, Note_on_c, 0, 60, 0
5, 96720, Note_on_c, 0, 61, 0
5, 96960, Note_on_c, 0, 61, 100
5, 97200, Note_on_c, 0, 61, 0
5, 97440, Note_on_c, 0, 60, 100
5, 97440, Note_on_c, 0, 61, 100
5, 97440, Note_on_c, 0, 68, 100
5, 97680, Note_on_c, 0, 60, 0
5, 97680, Note_on_c, 0, 61, 0
5, 98400, Note_on_c, 0, 68, 0
5, 98400, Note_on_c, 0, 60, 100
5, 98400, Note_on_c, 0, 61, 100
5, 98640, Note_on_c, 0, 60, 0
5, 98640, Note_on_c, 0, 61, 0
5, 99360, Note_on_c, 0, 60, 100
5, 99360, Note_on_c, 0, 61, 100
5, 99360, Note_on_c, 0, 68, 100
5, 99600, Note_on_c, 0, 60, 0
5, 99600, Note_on_c, 0, 61, 0
5, 100320, Note_on_c, 0, 68, 0
5, 100320, Note_on_c, 0, 60, 100
5, 100320, Note_on_c, 0, 61, 100
5, 100560, Note_on_c, 0, 60, 0
5, 100560, Note_on_c, 0, 61, 0
5, 100800, Note_on_c, 0, 61, 100
5, 100800, Note_on_c, 0, 67, 100
5, 101040, Note_on_c, 0, 61, 0
5, 101040, Note_on_c, 0, 67, 0
5, 101280, Note_on_c, 0, 61, 100
5, 101520, Note_on_c, 0, 61, 0
5, 101760, Note_on_c, 0, 60, 100
5, 101760, Note_on_c, 0, 61, 100
5, 101760, Note_on_c, 0, 67, 100
5, 102000, Note_on_c, 0, 60, 0
5, 102000, Note_on_c, 0, 61, 0
5, 102000, Note_on_c, 0, 67, 0
5, 102240, Note_on_c, 0, 60, 100
5, 102240, Note_on_c, 0, 61, 100
5, 102480, Note_on_c, 0, 60, 0
5, 102480, Note_on_c, 0, 61, 0
5, 102720, Note_on_c, 0, 61, 100
5, 102720, Note_on_c, 0, 67, 100
5, 102960, Note_on_c, 0, 61, 0
5, 102960, Note_on_c, 0, 67, 0
5, 103200, Note_on_c, 0, 61, 100
5, 103440, Note_on_c, 0, 61, 0
5, 103680, Note_on_c, 0, 60, 100
5, 103680, Note_on_c, 0, 61, 100
5, 103680, Note_on_c, 0, 67, 100
5, 103920, Note_on_c, 0, 60, 0
5, 103920, Note_on_c, 0, 61, 0
5, 103920, Note_on_c, 0, 67, 0
5, 104160, Note_on_c, 0, 60, 100
5, 104160, Note_on_c, 0, 61, 100
5, 104400, Note_on_c, 0, 60, 0
5, 104400, Note_on_c, 0, 61, 0
5, 104640, Note_on_c, 0, 61, 100
5, 104640, Note_on_c, 0, 67, 100
5, 104880, Note_on_c, 0, 61, 0
5, 104880, Note_on_c, 0, 67, 0
5, 105120, Note_on_c, 0, 61, 100
5, 105360, Note_on_c, 0, 61, 0
5, 105600, Note_on_c, 0, 60, 100
5, 105600, Note_on_c, 0, 61, 100
5, 105600, Note_on_c, 0, 67, 100
5, 105840, Note_on_c, 0, 60, 0
5, 105840, Note_on_c, 0, 61, 0
5, 105840, Note_on_c, 0, 67, 0
5, 106080, Note_on_c, 0, 60, 100
5, 106080, Note_on_c, 0, 61, 100
5, 106320, Note_on_c, 0, 60, 0
5, 106320, Note_on_c, 0, 61, 0
5, 106560, Note_on_c, 0, 61, 100
5, 106800, Note_on_c, 0, 61, 0
5, 107040, Note_on_c, 0, 60, 100
5, 107040, Note_on_c, 0, 61, 100
5, 107040, Note_on_c, 0, 68, 100
5, 107280, Note_on_c, 0, 60, 0
5, 107280, Note_on_c, 0, 61, 0
5, 108000, Note_on_c, 0, 60, 100
5, 108000, Note_on_c, 0, 61, 100
5, 108240, Note_on_c, 0, 68, 0
5, 108240, Note_on_c, 0, 60, 0
5, 108240, Note_on_c, 0, 61, 0
5, 108480, Note_on_c, 0, 61, 100
5, 108480, Note_on_c, 0, 68, 100
5, 108720, Note_on_c, 0, 61, 0
5, 108720, Note_on_c, 0, 68, 0
5, 108960, Note_on_c, 0, 61, 100
5, 109200, Note_on_c, 0, 61, 0
5, 109440, Note_on_c, 0, 61, 100
5, 109440, Note_on_c, 0, 60, 100
5, 109440, Note_on_c, 0, 68, 100
5, 109680, Note_on_c, 0, 61, 0
5, 109680, Note_on_c, 0, 60, 0
5, 109680, Note_on_c, 0, 68, 0
5, 109920, Note_on_c, 0, 61, 100
5, 109920, Note_on_c, 0, 60, 100
5, 110160, Note_on_c, 0, 61, 0
5, 110160, Note_on_c, 0, 60, 0
5, 110400, Note_on_c, 0, 61, 100
5, 110400, Note_on_c, 0, 68, 100
5, 110640, Note_on_c, 0, 61, 0
5, 110640, Note_on_c, 0, 68, 0
5, 110880, Note_on_c, 0, 61, 100
5, 111120, Note_on_c, 0, 61, 0
5, 111360, Note_on_c, 0, 61, 100
5, 111360, Note_on_c, 0, 60, 100
5, 111360, Note_on_c, 0, 68, 100
5, 111600, Note_on_c, 0, 61, 0
5, 111600, Note_on_c, 0, 60, 0
5, 111600, Note_on_c, 0, 68, 0
5, 111840, Note_on_c, 0, 61, 100
5, 111840, Note_on_c, 0, 60, 100
5, 112080, Note_on_c, 0, 61, 0
5, 112080, Note_on_c, 0, 60, 0
5, 112320, Note_on_c, 0, 61, 100
5, 112320, Note_on_c, 0, 68, 100
5, 112560, Note_on_c, 0, 61, 0
5, 112560, Note_on_c, 0, 68, 0
5, 112800, Note_on_c, 0, 61, 100
5, 113040, Note_on_c, 0, 61, 0
5, 113280, Note_on_c, 0, 61, 100
5, 113280, Note_on_c, 0, 60, 100
5, 113280, Note_on_c, 0, 68, 100
5, 113520, Note_on_c, 0, 61, 0
5, 113520, Note_on_c, 0, 60, 0
5, 113520, Note_on_c, 0, 68, 0
5, 113760, Note_on_c, 0, 61, 100
5, 113760, Note_on_c, 0, 60, 100
5, 114000, Note_on_c, 0, 61, 0
5, 114000, Note_on_c, 0, 60, 0
5, 114240, Note_on_c, 0, 61, 100
5, 114480, Note_on_c, 0, 61, 0
5, 114720, Note_on_c, 0, 61, 100
5, 114720, Note_on_c, 0, 60, 100
5, 114720, Note_on_c, 0, 67, 100
5, 114960, Note_on_c, 0, 61, 0
5, 114960, Note_on_c, 0, 60, 0
5, 115680, Note_on_c, 0, 60, 100
5, 115680, Note_on_c, 0, 61, 100
5, 115920, Note_on_c, 0, 67, 0
5, 115920, Note_on_c, 0, 60, 0
5, 115920, Note_on_c, 0, 61, 0
5, 116160, Note_on_c, 0, 61, 100
5, 116160, Note_on_c, 0, 67, 100
5, 116400, Note_on_c, 0, 61, 0
5, 116400, Note_on_c, 0, 67, 0
5, 116640, Note_on_c, 0, 61, 100
5, 116880, Note_on_c, 0, 61, 0
5, 117120, Note_on_c, 0, 61, 100
5, 117120, Note_on_c, 0, 60, 100
5, 117120, Note_on_c, 0, 67, 100
5, 117360, Note_on_c, 0, 61, 0
5, 117360, Note_on_c, 0, 60, 0
5, 117360, Note_on_c, 0, 67, 0
5, 117600, Note_on_c, 0, 61, 100
5, 117600, Note_on_c, 0, 60, 100
5, 117840, Note_on_c, 0, 61, 0
5, 117840, Note_on_c, 0, 60, 0
5, 118080, Note_on_c, 0, 61, 100
5, 118080, Note_on_c, 0, 67, 100
5, 118320, Note_on_c, 0, 61, 0
5, 118320, Note_on_c, 0, 67, 0
5, 118560, Note_on_c, 0, 61, 100
5, 118800, Note_on_c, 0, 61, 0
5, 119040, Note_on_c, 0, 61, 100
5, 119040, Note_on_c, 0, 60, 100
5, 119040, Note_on_c, 0, 67, 100
5, 119280, Note_on_c, 0, 61, 0
5, 119280, Note_on_c, 0, 60, 0
5, 119280, Note_on_c, 0, 67, 0
5, 119520, Note_on_c, 0, 61, 100
5, 119520, Note_on_c, 0, 60, 100
5, 119760, Note_on_c, 0, 61, 0
5, 119760, Note_on_c, 0, 60, 0
5, 120000, Note_on_c, 0, 61, 100
5, 120000, Note_on_c, 0, 67, 100
5, 120240, Note_on_c, 0, 61, 0
5, 120240, Note_on_c, 0, 67, 0
5, 120480, Note_on_c, 0, 61, 100
5, 120720, Note_on_c, 0, 61, 0
5, 120960, Note_on_c, 0, 61, 100
5, 120960, Note_on_c, 0, 60, 100
5, 120960, Note_on_c, 0, 67, 100
5, 121200, Note_on_c, 0, 61, 0
5, 121200, Note_on_c, 0, 60, 0
5, 121200, Note_on_c, 0, 67, 0
5, 121440, Note_on_c, 0, 61, 100
5, 121440, Note_on_c, 0, 60, 100
5, 121680, Note_on_c, 0, 61, 0
5, 121680, Note_on_c, 0, 60, 0
5, 121680, Note_on_c, 0, 60, 100
5, 121920, Note_on_c, 0, 60, 0
5, 121920, Note_on_c, 0, 61, 100
5, 122160, Note_on_c, 0, 61, 0
5, 122400, Note_on_c, 0, 61, 100
5, 122400, Note_on_c, 0, 60, 100
5, 122400, Note_on_c, 0, 67, 100
5, 122640, Note_on_c, 0, 61, 0
5, 122640, Note_on_c, 0, 60, 0
5, 123360, Note_on_c, 0, 67, 0
5, 123360, Note_on_c, 0, 60, 100
5, 123360, Note_on_c, 0, 61, 100
5, 123600, Note_on_c, 0, 60, 0
5, 123600, Note_on_c, 0, 61, 0
5, 123840, Note_on_c, 0, 61, 100
5, 124080, Note_on_c, 0, 61, 0
5, 124320, Note_on_c, 0, 60, 100
5, 124320, Note_on_c, 0, 61, 100
5, 124320, Note_on_c, 0, 69, 100
5, 124560, Note_on_c, 0, 60, 0
5, 124560, Note_on_c, 0, 61, 0
5, 125280, Note_on_c, 0, 69, 0
5, 125280, Note_on_c, 0, 60, 100
5, 125280, Note_on_c, 0, 61, 100
5, 125520, Note_on_c, 0, 60, 0
5, 125520, Note_on_c, 0, 61, 0
5, 125760, Note_on_c, 0, 61, 100
5, 126000, Note_on_c, 0, 61, 0
5, 126240, Note_on_c, 0, 60, 100
5, 126240, Note_on_c, 0, 61, 100
5, 126240, Note_on_c, 0, 67, 100
5, 126480, Note_on_c, 0, 60, 0
5, 126480, Note_on_c, 0, 61, 0
5, 127200, Note_on_c, 0, 67, 0
5, 127200, Note_on_c, 0, 60, 100
5, 127200, Note_on_c, 0, 61, 100
5, 127440, Note_on_c, 0, 60, 0
5, 127440, Note_on_c, 0, 61, 0
5, 127680, Note_on_c, 0, 61, 100
5, 127920, Note_on_c, 0, 61, 0
5, 128160, Note_on_c, 0, 60, 100
5, 128160, Note_on_c, 0, 61, 100
5, 128160, Note_on_c, 0, 68, 100
5, 128400, Note_on_c, 0, 60, 0
5, 128400, Note_on_c, 0, 61, 0
5, 129120, Note_on_c, 0, 68, 0
5, 129120, Note_on_c, 0, 60, 100
5, 129120, Note_on_c, 0, 61, 100
5, 129360, Note_on_c, 0, 60, 0
5, 129360, Note_on_c, 0, 61, 0
5, 130080, Note_on_c, 0, 60, 100
5, 130080, Note_on_c, 0, 61, 100
5, 130080, Note_on_c, 0, 68, 100
5, 130320, Note_on_c, 0, 60, 0
5, 130320, Note_on_c, 0, 61, 0
5, 131040, Note_on_c, 0, 68, 0
5, 136800, Note_on_c, 0, 60, 100
5, 137040, Note_on_c, 0, 60, 0
5, 137760, Note_on_c, 0, 60, 100
5, 137760, Note_on_c, 0, 61, 100
5, 137760, Note_on_c, 0, 68, 100
5, 138000, Note_on_c, 0, 60, 0
5, 138000, Note_on_c, 0, 61, 0
5, 138720, Note_on_c, 0, 60, 100
5, 138720, Note_on_c, 0, 61, 100
5, 138960, Note_on_c, 0, 60, 0
5, 138960, Note_on_c, 0, 61, 0
5, 139200, Note_on_c, 0, 61, 100
5, 139440, Note_on_c, 0, 61, 0
5, 139680, Note_on_c, 0, 61, 100
5, 139920, Note_on_c, 0, 61, 0
5, 140160, Note_on_c, 0, 60, 100
5, 140160, Note_on_c, 0, 61, 100
5, 140400, Note_on_c, 0, 60, 0
5, 140400, Note_on_c, 0, 61, 0
5, 140640, Note_on_c, 0, 60, 100
5, 140640, Note_on_c, 0, 61, 100
5, 140880, Note_on_c, 0, 60, 0
5, 140880, Note_on_c, 0, 61, 0
5, 141120, Note_on_c, 0, 61, 100
5, 141360, Note_on_c, 0, 68, 0
5, 141360, Note_on_c, 0, 61, 0
5, 141600, Note_on_c, 0, 61, 100
5, 141600, Note_on_c, 0, 60, 100
5, 141600, Note_on_c, 0, 69, 100
5, 141840, Note_on_c, 0, 61, 0
5, 141840, Note_on_c, 0, 60, 0
5, 142560, Note_on_c, 0, 60, 100
5, 142560, Note_on_c, 0, 61, 100
5, 142800, Note_on_c, 0, 60, 0
5, 142800, Note_on_c, 0, 61, 0
5, 143040, Note_on_c, 0, 61, 100
5, 143280, Note_on_c, 0, 61, 0
5, 143520, Note_on_c, 0, 61, 100
5, 143760, Note_on_c, 0, 61, 0
5, 144000, Note_on_c, 0, 60, 100
5, 144000, Note_on_c, 0, 61, 100
5, 144240, Note_on_c, 0, 60, 0
5, 144240, Note_on_c, 0, 61, 0
5, 144480, Note_on_c, 0, 60, 100
5, 144480, Note_on_c, 0, 61, 100
5, 144720, Note_on_c, 0, 60, 0
5, 144720, Note_on_c, 0, 61, 0
5, 144960, Note_on_c, 0, 61, 100
5, 145200, Note_on_c, 0, 69, 0
5, 145200, Note_on_c, 0, 61, 0
5, 145440, Note_on_c, 0, 60, 100
5, 145440, Note_on_c, 0, 61, 100
5, 145440, Note_on_c, 0, 67, 100
5, 145680, Note_on_c, 0, 60, 0
5, 145680, Note_on_c, 0, 61, 0
5, 146400, Note_on_c, 0, 60, 100
5, 146400, Note_on_c, 0, 61, 100
5, 146640, Note_on_c, 0, 60, 0
5, 146640, Note_on_c, 0, 61, 0
5, 146880, Note_on_c, 0, 61, 100
5, 147120, Note_on_c, 0, 61, 0
5, 147360, Note_on_c, 0, 61, 100
5, 147600, Note_on_c, 0, 61, 0
5, 147840, Note_on_c, 0, 61, 100
5, 147840, Note_on_c, 0, 60, 100
5, 148080, Note_on_c, 0, 61, 0
5, 148080, Note_on_c, 0, 60, 0
5, 148320, Note_on_c, 0, 61, 100
5, 148320, Note_on_c, 0, 60, 100
5, 148560, Note_on_c, 0, 61, 0
5, 148560, Note_on_c, 0, 60, 0
5, 148800, Note_on_c, 0, 61, 100
5, 149040, Note_on_c, 0, 67, 0
5, 149040, Note_on_c, 0, 61, 0
5, 149280, Note_on_c, 0, 61, 100
5, 149280, Note_on_c, 0, 60, 100
5, 149280, Note_on_c, 0, 68, 100
5, 149520, Note_on_c, 0, 61, 0
5, 149520, Note_on_c, 0, 60, 0
5, 150240, Note_on_c, 0, 61, 100
5, 150240, Note_on_c, 0, 60, 100
5, 150480, Note_on_c, 0, 61, 0
5, 150480, Note_on_c, 0, 60, 0
5, 150720, Note_on_c, 0, 61, 100
5, 150960, Note_on_c, 0, 61, 0
5, 151200, Note_on_c, 0, 61, 100
5, 151440, Note_on_c, 0, 61, 0
5, 151680, Note_on_c, 0, 61, 100
5, 151680, Note_on_c, 0, 60, 100
5, 151920, Note_on_c, 0, 61, 0
5, 151920, Note_on_c, 0, 60, 0
5, 152160, Note_on_c, 0, 61, 100
5, 152160, Note_on_c, 0, 60, 100
5, 152400, Note_on_c, 0, 61, 0
5, 152400, Note_on_c, 0, 60, 0
5, 152640, Note_on_c, 0, 61, 100
5, 152880, Note_on_c, 0, 68, 0
5, 152880, Note_on_c, 0, 61, 0
5, 153120, Note_on_c, 0, 61, 100
5, 153120, Note_on_c, 0, 60, 100
5, 153120, Note_on_c, 0, 68, 100
5, 153360, Note_on_c, 0, 61, 0
5, 153360, Note_on_c, 0, 60, 0
5, 154080, Note_on_c, 0, 60, 100
5, 154080, Note_on_c, 0, 61, 100
5, 154320, Note_on_c, 0, 60, 0
5, 154320, Note_on_c, 0, 61, 0
5, 154560, Note_on_c, 0, 61, 100
5, 154800, Note_on_c, 0, 61, 0
5, 155040, Note_on_c, 0, 61, 100
5, 155280, Note_on_c, 0, 61, 0
5, 155520, Note_on_c, 0, 61, 100
5, 155520, Note_on_c, 0, 60, 100
5, 155760, Note_on_c, 0, 61, 0
5, 155760, Note_on_c, 0, 60, 0
5, 156000, Note_on_c, 0, 61, 100
5, 156000, Note_on_c, 0, 60, 100
5, 156240, Note_on_c, 0, 61, 0
5, 156240, Note_on_c, 0, 60, 0
5, 156480, Note_on_c, 0, 61, 100
5, 156720, Note_on_c, 0, 68, 0
5, 156720, Note_on_c, 0, 61, 0
5, 156960, Note_on_c, 0, 61, 100
5, 156960, Note_on_c, 0, 60, 100
5, 156960, Note_on_c, 0, 69, 100
5, 157200, Note_on_c, 0, 61, 0
5, 157200, Note_on_c, 0, 60, 0
5, 157920, Note_on_c, 0, 61, 100
5, 157920, Note_on_c, 0, 60, 100
5, 158160, Note_on_c, 0, 61, 0
5, 158160, Note_on_c, 0, 60, 0
5, 158400, Note_on_c, 0, 61, 100
5, 158640, Note_on_c, 0, 61, 0
5, 158880, Note_on_c, 0, 61, 100
5, 159120, Note_on_c, 0, 61, 0
5, 159360, Note_on_c, 0, 61, 100
5, 159360, Note_on_c, 0, 60, 100
5, 159600, Note_on_c, 0, 61, 0
5, 159600, Note_on_c, 0, 60, 0
5, 159840, Note_on_c, 0, 61, 100
5, 159840, Note_on_c, 0, 60, 100
5, 160080, Note_on_c, 0, 61, 0
5, 160080, Note_on_c, 0, 60, 0
5, 160320, Note_on_c, 0, 61, 100
5, 160560, Note_on_c, 0, 69, 0
5, 160560, Note_on_c, 0, 61, 0
5, 160800, Note_on_c, 0, 61, 100
5, 160800, Note_on_c, 0, 60, 100
5, 160800, Note_on_c, 0, 68, 100
5, 161040, Note_on_c, 0, 61, 0
5, 161040, Note_on_c, 0, 60, 0
5, 161760, Note_on_c, 0, 61, 100
5, 161760, Note_on_c, 0, 60, 100
5, 162000, Note_on_c, 0, 61, 0
5, 162000, Note_on_c, 0, 60, 0
5, 162240, Note_on_c, 0, 61, 100
5, 162480, Note_on_c, 0, 61, 0
5, 163200, Note_on_c, 0, 60, 100
5, 163200, Note_on_c, 0, 61, 100
5, 163440, Note_on_c, 0, 60, 0
5, 163440, Note_on_c, 0, 61, 0
5, 163680, Note_on_c, 0, 60, 100
5, 163680, Note_on_c, 0, 61, 100
5, 163920, Note_on_c, 0, 60, 0
5, 163920, Note_on_c, 0, 61, 0
5, 164160, Note_on_c, 0, 61, 100
5, 164400, Note_on_c, 0, 68, 0
5, 164400, Note_on_c, 0, 61, 0
5, 164640, Note_on_c, 0, 60, 100
5, 164640, Note_on_c, 0, 61, 100
5, 164640, Note_on_c, 0, 67, 100
5, 164880, Note_on_c, 0, 60, 0
5, 164880, Note_on_c, 0, 61, 0
5, 168240, Note_on_c, 0, 67, 0
5, 168480, Note_on_c, 0, 60, 100
5, 168480, Note_on_c, 0, 61, 100
5, 168480, Note_on_c, 0, 68, 100
5, 168720, Note_on_c, 0, 60, 0
5, 168720, Note_on_c, 0, 61, 0
5, 169440, Note_on_c, 0, 60, 100
5, 169440, Note_on_c, 0, 61, 100
5, 169680, Note_on_c, 0, 60, 0
5, 169680, Note_on_c, 0, 61, 0
5, 169920, Note_on_c, 0, 61, 100
5, 170160, Note_on_c, 0, 61, 0
5, 170400, Note_on_c, 0, 61, 100
5, 170640, Note_on_c, 0, 61, 0
5, 170880, Note_on_c, 0, 60, 100
5, 170880, Note_on_c, 0, 61, 100
5, 171120, Note_on_c, 0, 60, 0
5, 171120, Note_on_c, 0, 61, 0
5, 171360, Note_on_c, 0, 60, 100
5, 171360, Note_on_c, 0, 61, 100
5, 171600, Note_on_c, 0, 60, 0
5, 171600, Note_on_c, 0, 61, 0
5, 171840, Note_on_c, 0, 61, 100
5, 172080, Note_on_c, 0, 68, 0
5, 172080, Note_on_c, 0, 61, 0
5, 172320, Note_on_c, 0, 61, 100
5, 172320, Note_on_c, 0, 60, 100
5, 172320, Note_on_c, 0, 69, 100
5, 172560, Note_on_c, 0, 61, 0
5, 172560, Note_on_c, 0, 60, 0
5, 173280, Note_on_c, 0, 60, 100
5, 173280, Note_on_c, 0, 61, 100
5, 173520, Note_on_c, 0, 60, 0
5, 173520, Note_on_c, 0, 61, 0
5, 173760, Note_on_c, 0, 61, 100
5, 174000, Note_on_c, 0, 61, 0
5, 174240, Note_on_c, 0, 61, 100
5, 174480, Note_on_c, 0, 61, 0
5, 174720, Note_on_c, 0, 60, 100
5, 174720, Note_on_c, 0, 61, 100
5, 174960, Note_on_c, 0, 60, 0
5, 174960, Note_on_c, 0, 61, 0
5, 175200, Note_on_c, 0, 60, 100
5, 175200, Note_on_c, 0, 61, 100
5, 175440, Note_on_c, 0, 60, 0
5, 175440, Note_on_c, 0, 61, 0
5, 175680, Note_on_c, 0, 61, 100
5, 175920, Note_on_c, 0, 69, 0
5, 175920, Note_on_c, 0, 61, 0
5, 176160, Note_on_c, 0, 60, 100
5, 176160, Note_on_c, 0, 61, 100
5, 176160, Note_on_c, 0, 67, 100
5, 176400, Note_on_c, 0, 60, 0
5, 176400, Note_on_c, 0, 61, 0
5, 177120, Note_on_c, 0, 60, 100
5, 177120, Note_on_c, 0, 61, 100
5, 177360, Note_on_c, 0, 60, 0
5, 177360, Note_on_c, 0, 61, 0
5, 177600, Note_on_c, 0, 61, 100
5, 177840, Note_on_c, 0, 61, 0
5, 178080, Note_on_c, 0, 61, 100
5, 178320, Note_on_c, 0, 61, 0
5, 178560, Note_on_c, 0, 61, 100
5, 178560, Note_on_c, 0, 60, 100
5, 178800, Note_on_c, 0, 61, 0
5, 178800, Note_on_c, 0, 60, 0
5, 179040, Note_on_c, 0, 61, 100
5, 179040, Note_on_c, 0, 60, 100
5, 179280, Note_on_c, 0, 61, 0
5, 179280, Note_on_c, 0, 60, 0
5, 179520, Note_on_c, 0, 61, 100
5, 179760, Note_on_c, 0, 67, 0
5, 179760, Note_on_c, 0, 61, 0
5, 180000, Note_on_c, 0, 61, 100
5, 180000, Note_on_c, 0, 60, 100
5, 180000, Note_on_c, 0, 68, 100
5, 180240, Note_on_c, 0, 61, 0
5, 180240, Note_on_c, 0, 60, 0
5, 180960, Note_on_c, 0, 61, 100
5, 180960, Note_on_c, 0, 60, 100
5, 181200, Note_on_c, 0, 61, 0
5, 181200, Note_on_c, 0, 60, 0
5, 181440, Note_on_c, 0, 61, 100
5, 181680, Note_on_c, 0, 61, 0
5, 181920, Note_on_c, 0, 61, 100
5, 182160, Note_on_c, 0, 61, 0
5, 182400, Note_on_c, 0, 61, 100
5, 182400, Note_on_c, 0, 60, 100
5, 182640, Note_on_c, 0, 61, 0
5, 182640, Note_on_c, 0, 60, 0
5, 182880, Note_on_c, 0, 61, 100
5, 182880, Note_on_c, 0, 60, 100
5, 183120, Note_on_c, 0, 61, 0
5, 183120, Note_on_c, 0, 60, 0
5, 183360, Note_on_c, 0, 61, 100
5, 183600, Note_on_c, 0, 68, 0
5, 183600, Note_on_c, 0, 61, 0
5, 183840, Note_on_c, 0, 61, 100
5, 183840, Note_on_c, 0, 60, 100
5, 183840, Note_on_c, 0, 68, 100
5, 184080, Note_on_c, 0, 61, 0
5, 184080, Note_on_c, 0, 60, 0
5, 184800, Note_on_c, 0, 60, 100
5, 184800, Note_on_c, 0, 61, 100
5, 185040, Note_on_c, 0, 60, 0
5, 185040, Note_on_c, 0, 61, 0
5, 185280, Note_on_c, 0, 61, 100
5, 185520, Note_on_c, 0, 61, 0
5, 185760, Note_on_c, 0, 61, 100
5, 186000, Note_on_c, 0, 61, 0
5, 186240, Note_on_c, 0, 61, 100
5, 186240, Note_on_c, 0, 60, 100
5, 186480, Note_on_c, 0, 61, 0
5, 186480, Note_on_c, 0, 60, 0
5, 186720, Note_on_c, 0, 61, 100
5, 186720, Note_on_c, 0, 60, 100
5, 186960, Note_on_c, 0, 61, 0
5, 186960, Note_on_c, 0, 60, 0
5, 187200, Note_on_c, 0, 61, 100
5, 187440, Note_on_c, 0, 68, 0
5, 187440, Note_on_c, 0, 61, 0
5, 187680, Note_on_c, 0, 61, 100
5, 187680, Note_on_c, 0, 60, 100
5, 187680, Note_on_c, 0, 69, 100
5, 187920, Note_on_c, 0, 61, 0
5, 187920, Note_on_c, 0, 60, 0
5, 188640, Note_on_c, 0, 61, 100
5, 188640, Note_on_c, 0, 60, 100
5, 188880, Note_on_c, 0, 61, 0
5, 188880, Note_on_c, 0, 60, 0
5, 189120, Note_on_c, 0, 61, 100
5, 189360, Note_on_c, 0, 61, 0
5, 189600, Note_on_c, 0, 61, 100
5, 189840, Note_on_c, 0, 61, 0
5, 190080, Note_on_c, 0, 61, 100
5, 190080, Note_on_c, 0, 60, 100
5, 190320, Note_on_c, 0, 61, 0
5, 190320, Note_on_c, 0, 60, 0
5, 190560, Note_on_c, 0, 61, 100
5, 190560, Note_on_c, 0, 60, 100
5, 190800, Note_on_c, 0, 61, 0
5, 190800, Note_on_c, 0, 60, 0
5, 191040, Note_on_c, 0, 61, 100
5, 191280, Note_on_c, 0, 69, 0
5, 191280, Note_on_c, 0, 61, 0
5, 191520, Note_on_c, 0, 61, 100
5, 191520, Note_on_c, 0, 60, 100
5, 191520, Note_on_c, 0, 68, 100
5, 191760, Note_on_c, 0, 61, 0
5, 191760, Note_on_c, 0, 60, 0
5, 192480, Note_on_c, 0, 61, 100
5, 192480, Note_on_c, 0, 60, 100
5, 192720, Note_on_c, 0, 61, 0
5, 192720, Note_on_c, 0, 60, 0
5, 192960, Note_on_c, 0, 61, 100
5, 193200, Note_on_c, 0, 61, 0
5, 193920, Note_on_c, 0, 60, 100
5, 193920, Note_on_c, 0, 61, 100
5, 194160, Note_on_c, 0, 60, 0
5, 194160, Note_on_c, 0, 61, 0
5, 194400, Note_on_c, 0, 60, 100
5, 194400, Note_on_c, 0, 61, 100
5, 194640, Note_on_c, 0, 60, 0
5, 194640, Note_on_c, 0, 61, 0
5, 194880, Note_on_c, 0, 61, 100
5, 195120, Note_on_c, 0, 68, 0
5, 195120, Note_on_c, 0, 61, 0
5, 195360, Note_on_c, 0, 60, 100
5, 195360, Note_on_c, 0, 61, 100
5, 195360, Note_on_c, 0, 67, 100
5, 195600, Note_on_c, 0, 60, 0
5, 195600, Note_on_c, 0, 61, 0
5, 198960, Note_on_c, 0, 67, 0
5, 199200, Note_on_c, 0, 61, 100
5, 199200, Note_on_c, 0, 60, 100
5, 199200, Note_on_c, 0, 67, 100
5, 199440, Note_on_c, 0, 61, 0
5, 199440, Note_on_c, 0, 60, 0
5, 200160, Note_on_c, 0, 60, 100
5, 200160, Note_on_c, 0, 61, 100
5, 200400, Note_on_c, 0, 67, 0
5, 200400, Note_on_c, 0, 60, 0
5, 200400, Note_on_c, 0, 61, 0
5, 200640, Note_on_c, 0, 61, 100
5, 200640, Note_on_c, 0, 67, 100
5, 200880, Note_on_c, 0, 61, 0
5, 200880, Note_on_c, 0, 67, 0
5, 201120, Note_on_c, 0, 61, 100
5, 201360, Note_on_c, 0, 61, 0
5, 201600, Note_on_c, 0, 60, 100
5, 201600, Note_on_c, 0, 61, 100
5, 201600, Note_on_c, 0, 67, 100
5, 201840, Note_on_c, 0, 60, 0
5, 201840, Note_on_c, 0, 61, 0
5, 201840, Note_on_c, 0, 67, 0
5, 202080, Note_on_c, 0, 60, 100
5, 202080, Note_on_c, 0, 61, 100
5, 202320, Note_on_c, 0, 60, 0
5, 202320, Note_on_c, 0, 61, 0
5, 202560, Note_on_c, 0, 61, 100
5, 202560, Note_on_c, 0, 67, 100
5, 202800, Note_on_c, 0, 61, 0
5, 202800, Note_on_c, 0, 67, 0
5, 203040, Note_on_c, 0, 61, 100
5, 203280, Note_on_c, 0, 61, 0
5, 203520, Note_on_c, 0, 60, 100
5, 203520, Note_on_c, 0, 61, 100
5, 203520, Note_on_c, 0, 67, 100
5, 203760, Note_on_c, 0, 60, 0
5, 203760, Note_on_c, 0, 61, 0
5, 203760, Note_on_c, 0, 67, 0
5, 204000, Note_on_c, 0, 60, 100
5, 204000, Note_on_c, 0, 61, 100
5, 204240, Note_on_c, 0, 60, 0
5, 204240, Note_on_c, 0, 61, 0
5, 204480, Note_on_c, 0, 61, 100
5, 204480, Note_on_c, 0, 67, 100
5, 204720, Note_on_c, 0, 61, 0
5, 204720, Note_on_c, 0, 67, 0
5, 204960, Note_on_c, 0, 61, 100
5, 205200, Note_on_c, 0, 61, 0
5, 205440, Note_on_c, 0, 60, 100
5, 205440, Note_on_c, 0, 61, 100
5, 205440, Note_on_c, 0, 67, 100
5, 205680, Note_on_c, 0, 60, 0
5, 205680, Note_on_c, 0, 61, 0
5, 205680, Note_on_c, 0, 67, 0
5, 205920, Note_on_c, 0, 60, 100
5, 205920, Note_on_c, 0, 61, 100
5, 206160, Note_on_c, 0, 60, 0
5, 206160, Note_on_c, 0, 61, 0
5, 206400, Note_on_c, 0, 61, 100
5, 206640, Note_on_c, 0, 61, 0
5, 206880, Note_on_c, 0, 60, 100
5, 206880, Note_on_c, 0, 61, 100
5, 206880, Note_on_c, 0, 68, 100
5, 207120, Note_on_c, 0, 60, 0
5, 207120, Note_on_c, 0, 61, 0
5, 207840, Note_on_c, 0, 60, 100
5, 207840, Note_on_c, 0, 61, 100
5, 208080, Note_on_c, 0, 68, 0
5, 208080, Note_on_c, 0, 60, 0
5, 208080, Note_on_c, 0, 61, 0
5, 208320, Note_on_c, 0, 61, 100
5, 208320, Note_on_c, 0, 68, 100
5, 208560, Note_on_c, 0, 61, 0
5, 208560, Note_on_c, 0, 68, 0
5, 208800, Note_on_c, 0, 61, 100
5, 209040, Note_on_c, 0, 61, 0
5, 209280, Note_on_c, 0, 61, 100
5, 209280, Note_on_c, 0, 60, 100
5, 209280, Note_on_c, 0, 68, 100
5, 209520, Note_on_c, 0, 61, 0
5, 209520, Note_on_c, 0, 60, 0
5, 209520, Note_on_c, 0, 68, 0
5, 209760, Note_on_c, 0, 61, 100
5, 209760, Note_on_c, 0, 60, 100
5, 210000, Note_on_c, 0, 61, 0
5, 210000, Note_on_c, 0, 60, 0
5, 210240, Note_on_c, 0, 61, 100
5, 210240, Note_on_c, 0, 68, 100
5, 210480, Note_on_c, 0, 61, 0
5, 210480, Note_on_c, 0, 68, 0
5, 210720, Note_on_c, 0, 61, 100
5, 210960, Note_on_c, 0, 61, 0
5, 211200, Note_on_c, 0, 61, 100
5, 211200, Note_on_c, 0, 60, 100
5, 211200, Note_on_c, 0, 69, 100
5, 211440, Note_on_c, 0, 61, 0
5, 211440, Note_on_c, 0, 60, 0
5, 211440, Note_on_c, 0, 69, 0
5, 211680, Note_on_c, 0, 61, 100
5, 211680, Note_on_c, 0, 60, 100
5, 211920, Note_on_c, 0, 61, 0
5, 211920, Note_on_c, 0, 60, 0
5, 212160, Note_on_c, 0, 61, 100
5, 212400, Note_on_c, 0, 61, 0
5, 212640, Note_on_c, 0, 61, 100
5, 212880, Note_on_c, 0, 61, 0
5, 213120, Note_on_c, 0, 61, 100
5, 213120, Note_on_c, 0, 60, 100
5, 213120, Note_on_c, 0, 69, 100
5, 213360, Note_on_c, 0, 61, 0
5, 213360, Note_on_c, 0, 60, 0
5, 213360, Note_on_c, 0, 69, 0
5, 213600, Note_on_c, 0, 61, 100
5, 213600, Note_on_c, 0, 60, 100
5, 213840, Note_on_c, 0, 61, 0
5, 213840, Note_on_c, 0, 60, 0
5, 214080, Note_on_c, 0, 61, 100
5, 214320, Note_on_c, 0, 61, 0
5, 214560, Note_on_c, 0, 61, 100
5, 214560, Note_on_c, 0, 60, 100
5, 214560, Note_on_c, 0, 67, 100
5, 214800, Note_on_c, 0, 61, 0
5, 214800, Note_on_c, 0, 60, 0
5, 215520, Note_on_c, 0, 60, 100
5, 215520, Note_on_c, 0, 61, 100
5, 215760, Note_on_c, 0, 67, 0
5, 215760, Note_on_c, 0, 60, 0
5, 215760, Note_on_c, 0, 61, 0
5, 216000, Note_on_c, 0, 61, 100
5, 216000, Note_on_c, 0, 67, 100
5, 216240, Note_on_c, 0, 61, 0
5, 216240, Note_on_c, 0, 67, 0
5, 216480, Note_on_c, 0, 61, 100
5, 216720, Note_on_c, 0, 61, 0
5, 216960, Note_on_c, 0, 61, 100
5, 216960, Note_on_c, 0, 60, 100
5, 216960, Note_on_c, 0, 67, 100
5, 217200, Note_on_c, 0, 61, 0
5, 217200, Note_on_c, 0, 60, 0
5, 217200, Note_on_c, 0, 67, 0
5, 217440, Note_on_c, 0, 61, 100
5, 217440, Note_on_c, 0, 60, 100
5, 217680, Note_on_c, 0, 61, 0
5, 217680, Note_on_c, 0, 60, 0
5, 217920, Note_on_c, 0, 61, 100
5, 217920, Note_on_c, 0, 67, 100
5, 218160, Note_on_c, 0, 61, 0
5, 218160, Note_on_c, 0, 67, 0
5, 218400, Note_on_c, 0, 61, 100
5, 218640, Note_on_c, 0, 61, 0
5, 218880, Note_on_c, 0, 61, 100
5, 218880, Note_on_c, 0, 60, 100
5, 218880, Note_on_c, 0, 67, 100
5, 219120, Note_on_c, 0, 61, 0
5, 219120, Note_on_c, 0, 60, 0
5, 219120, Note_on_c, 0, 67, 0
5, 219360, Note_on_c, 0, 61, 100
5, 219360, Note_on_c, 0, 60, 100
5, 219600, Note_on_c, 0, 61, 0
5, 219600, Note_on_c, 0, 60, 0
5, 219840, Note_on_c, 0, 61, 100
5, 219840, Note_on_c, 0, 67, 100
5, 220080, Note_on_c, 0, 61, 0
5, 220080, Note_on_c, 0, 67, 0
5, 220320, Note_on_c, 0, 61, 100
5, 220560, Note_on_c, 0, 61, 0
5, 220800, Note_on_c, 0, 61, 100
5, 220800, Note_on_c, 0, 60, 100
5, 220800, Note_on_c, 0, 67, 100
5, 221040, Note_on_c, 0, 61, 0
5, 221040, Note_on_c, 0, 60, 0
5, 221040, Note_on_c, 0, 67, 0
5, 221040, Note_on_c, 0, 60, 100
5, 221280, Note_on_c, 0, 60, 0
5, 221280, Note_on_c, 0, 61, 100
5, 221280, Note_on_c, 0, 60, 100
5, 221520, Note_on_c, 0, 61, 0
5, 221520, Note_on_c, 0, 60, 0
5, 221760, Note_on_c, 0, 61, 100
5, 221760, Note_on_c, 0, 60, 100
5, 222000, Note_on_c, 0, 61, 0
5, 222000, Note_on_c, 0, 60, 0
5, 222240, Note_on_c, 0, 61, 100
5, 222240, Note_on_c, 0, 60, 100
5, 222240, Note_on_c, 0, 67, 100
5, 222480, Note_on_c, 0, 61, 0
5, 222480, Note_on_c, 0, 60, 0
5, 223200, Note_on_c, 0, 67, 0
5, 223200, Note_on_c, 0, 60, 100
5, 223200, Note_on_c, 0, 61, 100
5, 223440, Note_on_c, 0, 60, 0
5, 223440, Note_on_c, 0, 61, 0
5, 223680, Note_on_c, 0, 61, 100
5, 223920, Note_on_c, 0, 61, 0
5, 224160, Note_on_c, 0, 60, 100
5, 224160, Note_on_c, 0, 61, 100
5, 224160, Note_on_c, 0, 69, 100
5, 224400, Note_on_c, 0, 60, 0
5, 224400, Note_on_c, 0, 61, 0
5, 225120, Note_on_c, 0, 69, 0
5, 225120, Note_on_c, 0, 60, 100
5, 225120, Note_on_c, 0, 61, 100
5, 225360, Note_on_c, 0, 60, 0
5, 225360, Note_on_c, 0, 61, 0
5, 225600, Note_on_c, 0, 61, 100
5, 225840, Note_on_c, 0, 61, 0
5, 226080, Note_on_c, 0, 60, 100
5, 226080, Note_on_c, 0, 61, 100
5, 226080, Note_on_c, 0, 67, 100
5, 226320, Note_on_c, 0, 60, 0
5, 226320, Note_on_c, 0, 61, 0
5, 227040, Note_on_c, 0, 67, 0
5, 227040, Note_on_c, 0, 60, 100
5, 227040, Note_on_c, 0, 61, 100
5, 227280, Note_on_c, 0, 60, 0
5, 227280, Note_on_c, 0, 61, 0
5, 227520, Note_on_c, 0, 61, 100
5, 227760, Note_on_c, 0, 61, 0
5, 228000, Note_on_c, 0, 60, 100
5, 228000, Note_on_c, 0, 61, 100
5, 228000, Note_on_c, 0, 68, 100
5, 228240, Note_on_c, 0, 60, 0
5, 228240, Note_on_c, 0, 61, 0
5, 228960, Note_on_c, 0, 68, 0
5, 228960, Note_on_c, 0, 60, 100
5, 228960, Note_on_c, 0, 61, 100
5, 229200, Note_on_c, 0, 60, 0
5, 229200, Note_on_c, 0, 61, 0
5, 229920, Note_on_c, 0, 60, 100
5, 229920, Note_on_c, 0, 61, 100
5, 229920, Note_on_c, 0, 67, 100
5, 230160, Note_on_c, 0, 60, 0
5, 230160, Note_on_c, 0, 61, 0
5, 230160, Note_on_c, 0, 67, 0
5, 230880, Note_on_c, 0, 60, 100
5, 230880, Note_on_c, 0, 61, 100
5, 231120, Note_on_c, 0, 60, 0
5, 231120, Note_on_c, 0, 61, 0
5, 231360, Note_on_c, 0, 61, 100
5, 231360, Note_on_c, 0, 67, 100
5, 231600, Note_on_c, 0, 61, 0
5, 231600, Note_on_c, 0, 67, 0
5, 231840, Note_on_c, 0, 61, 100
5, 232080, Note_on_c, 0, 61, 0
5, 232320, Note_on_c, 0, 60, 100
5, 232320, Note_on_c, 0, 61, 100
5, 232320, Note_on_c, 0, 68, 100
5, 232560, Note_on_c, 0, 60, 0
5, 232560, Note_on_c, 0, 61, 0
5, 232560, Note_on_c, 0, 68, 0
5, 232800, Note_on_c, 0, 60, 100
5, 232800, Note_on_c, 0, 61, 100
5, 233040, Note_on_c, 0, 60, 0
5, 233040, Note_on_c, 0, 61, 0
5, 233280, Note_on_c, 0, 61, 100
5, 233280, Note_on_c, 0, 67, 100
5, 233520, Note_on_c, 0, 61, 0
5, 233520, Note_on_c, 0, 67, 0
5, 233760, Note_on_c, 0, 61, 100
5, 234000, Note_on_c, 0, 61, 0
5, 234240, Note_on_c, 0, 60, 100
5, 234240, Note_on_c, 0, 61, 100
5, 234240, Note_on_c, 0, 69, 100
5, 234480, Note_on_c, 0, 60, 0
5, 234480, Note_on_c, 0, 61, 0
5, 234480, Note_on_c, 0, 69, 0
5, 234720, Note_on_c, 0, 60, 100
5, 234720, Note_on_c, 0, 61, 100
5, 234960, Note_on_c, 0, 60, 0
5, 234960, Note_on_c, 0, 61, 0
5, 235200, Note_on_c, 0, 61, 100
5, 235200, Note_on_c, 0, 67, 100
5, 235440, Note_on_c, 0, 61, 0
5, 235440, Note_on_c, 0, 67, 0
5, 235680, Note_on_c, 0, 61, 100
5, 235920, Note_on_c, 0, 61, 0
5, 236160, Note_on_c, 0, 60, 100
5, 236160, Note_on_c, 0, 61, 100
5, 236160, Note_on_c, 0, 69, 100
5, 236400, Note_on_c, 0, 60, 0
5, 236400, Note_on_c, 0, 61, 0
5, 236400, Note_on_c, 0, 69, 0
5, 236640, Note_on_c, 0, 60, 100
5, 236640, Note_on_c, 0, 61, 100
5, 236880, Note_on_c, 0, 60, 0
5, 236880, Note_on_c, 0, 61, 0
5, 237120, Note_on_c, 0, 61, 100
5, 237360, Note_on_c, 0, 61, 0
5, 237600, Note_on_c, 0, 60, 100
5, 237600, Note_on_c, 0, 61, 100
5, 237600, Note_on_c, 0, 68, 100
5, 237840, Note_on_c, 0, 60, 0
5, 237840, Note_on_c, 0, 61, 0
5, 237840, Note_on_c, 0, 68, 0
5, 238560, Note_on_c, 0, 60, 100
5, 238560, Note_on_c, 0, 61, 100
5, 238800, Note_on_c, 0, 60, 0
5, 238800, Note_on_c, 0, 61, 0
5, 239040, Note_on_c, 0, 61, 100
5, 239040, Note_on_c, 0, 69, 100
5, 239280, Note_on_c, 0, 61, 0
5, 239280, Note_on_c, 0, 69, 0
5, 239520, Note_on_c, 0, 61, 100
5, 239760, Note_on_c, 0, 61, 0
5, 240000, Note_on_c, 0, 61, 100
5, 240000, Note_on_c, 0, 60, 100
5, 240000, Note_on_c, 0, 68, 100
5, 240240, Note_on_c, 0, 61, 0
5, 240240, Note_on_c, 0, 60, 0
5, 240240, Note_on_c, 0, 68, 0
5, 240480, Note_on_c, 0, 61, 100
5, 240480, Note_on_c, 0, 60, 100
5, 240720, Note_on_c, 0, 61, 0
5, 240720, Note_on_c, 0, 60, 0
5, 240960, Note_on_c, 0, 61, 100
5, 240960, Note_on_c, 0, 68, 100
5, 241200, Note_on_c, 0, 61, 0
5, 241200, Note_on_c, 0, 68, 0
5, 241440, Note_on_c, 0, 61, 100
5, 241680, Note_on_c, 0, 61, 0
5, 241920, Note_on_c, 0, 61, 100
5, 241920, Note_on_c, 0, 60, 100
5, 241920, Note_on_c, 0, 69, 100
5, 242160, Note_on_c, 0, 61, 0
5, 242160, Note_on_c, 0, 60, 0
5, 242160, Note_on_c, 0, 69, 0
5, 242400, Note_on_c, 0, 61, 100
5, 242400, Note_on_c, 0, 60, 100
5, 242640, Note_on_c, 0, 61, 0
5, 242640, Note_on_c, 0, 60, 0
5, 242880, Note_on_c, 0, 61, 100
5, 243120, Note_on_c, 0, 61, 0
5, 243360, Note_on_c, 0, 61, 100
5, 243360, Note_on_c, 0, 69, 100
5, 243600, Note_on_c, 0, 61, 0
5, 243600, Note_on_c, 0, 69, 0
5, 243840, Note_on_c, 0, 61, 100
5, 243840, Note_on_c, 0, 60, 100
5, 244080, Note_on_c, 0, 61, 0
5, 244080, Note_on_c, 0, 60, 0
5, 244320, Note_on_c, 0, 61, 100
5, 244320, Note_on_c, 0, 60, 100
5, 244320, Note_on_c, 0, 68, 100
5, 244560, Note_on_c, 0, 61, 0
5, 244560, Note_on_c, 0, 60, 0
5, 244560, Note_on_c, 0, 68, 0
5, 244800, Note_on_c, 0, 61, 100
5, 245040, Note_on_c, 0, 61, 0
5, 245280, Note_on_c, 0, 61, 100
5, 245280, Note_on_c, 0, 60, 100
5, 245280, Note_on_c, 0, 67, 100
5, 245520, Note_on_c, 0, 61, 0
5, 245520, Note_on_c, 0, 60, 0
5, 245520, Note_on_c, 0, 67, 0
5, 246240, Note_on_c, 0, 60, 100
5, 246240, Note_on_c, 0, 61, 100
5, 246480, Note_on_c, 0, 60, 0
5, 246480, Note_on_c, 0, 61, 0
5, 246720, Note_on_c, 0, 61, 100
5, 246720, Note_on_c, 0, 68, 100
5, 246960, Note_on_c, 0, 61, 0
5, 246960, Note_on_c, 0, 68, 0
5, 247200, Note_on_c, 0, 61, 100
5, 247440, Note_on_c, 0, 61, 0
5, 247680, Note_on_c, 0, 61, 100
5, 247680, Note_on_c, 0, 60, 100
5, 247680, Note_on_c, 0, 68, 100
5, 247920, Note_on_c, 0, 61, 0
5, 247920, Note_on_c, 0, 60, 0
5, 247920, Note_on_c, 0, 68, 0
5, 248160, Note_on_c, 0, 61, 100
5, 248160, Note_on_c, 0, 60, 100
5, 248400, Note_on_c, 0, 61, 0
5, 248400, Note_on_c, 0, 60, 0
5, 248640, Note_on_c, 0, 61, 100
5, 248640, Note_on_c, 0, 67, 100
5, 248880, Note_on_c, 0, 61, 0
5, 248880, Note_on_c, 0, 67, 0
5, 249120, Note_on_c, 0, 61, 100
5, 249360, Note_on_c, 0, 61, 0
5, 249600, Note_on_c, 0, 61, 100
5, 249600, Note_on_c, 0, 60, 100
5, 249600, Note_on_c, 0, 68, 100
5, 249840, Note_on_c, 0, 61, 0
5, 249840, Note_on_c, 0, 60, 0
5, 249840, Note_on_c, 0, 68, 0
5, 250080, Note_on_c, 0, 61, 100
5, 250080, Note_on_c, 0, 60, 100
5, 250320, Note_on_c, 0, 61, 0
5, 250320, Note_on_c, 0, 60, 0
5, 250560, Note_on_c, 0, 61, 100
5, 250560, Note_on_c, 0, 67, 100
5, 250800, Note_on_c, 0, 61, 0
5, 250800, Note_on_c, 0, 67, 0
5, 251040, Note_on_c, 0, 61, 100
5, 251280, Note_on_c, 0, 61, 0
5, 251520, Note_on_c, 0, 61, 100
5, 251520, Note_on_c, 0, 60, 100
5, 251760, Note_on_c, 0, 61, 0
5, 251760, Note_on_c, 0, 60, 0
5, 251760, Note_on_c, 0, 60, 100
5, 252000, Note_on_c, 0, 60, 0
5, 252000, Note_on_c, 0, 61, 100
5, 252000, Note_on_c, 0, 60, 100
5, 252000, Note_on_c, 0, 67, 100
5, 252240, Note_on_c, 0, 61, 0
5, 252240, Note_on_c, 0, 60, 0
5, 252240, Note_on_c, 0, 67, 0
5, 252480, Note_on_c, 0, 61, 100
5, 252720, Note_on_c, 0, 61, 0
5, 252960, Note_on_c, 0, 61, 100
5, 252960, Note_on_c, 0, 60, 100
5, 252960, Note_on_c, 0, 69, 100
5, 253200, Note_on_c, 0, 61, 0
5, 253200, Note_on_c, 0, 60, 0
5, 253200, Note_on_c, 0, 69, 0
5, 253920, Note_on_c, 0, 60, 100
5, 253920, Note_on_c, 0, 61, 100
5, 254160, Note_on_c, 0, 60, 0
5, 254160, Note_on_c, 0, 61, 0
5, 254400, Note_on_c, 0, 61, 100
5, 254400, Note_on_c, 0, 68, 100
5, 254640, Note_on_c, 0, 61, 0
5, 254640, Note_on_c, 0, 68, 0
5, 254880, Note_on_c, 0, 60, 100
5, 254880, Note_on_c, 0, 61, 100
5, 255120, Note_on_c, 0, 60, 0
5, 255120, Note_on_c, 0, 61, 0
5, 255360, Note_on_c, 0, 67, 100
5, 255600, Note_on_c, 0, 67, 0
5, 255840, Note_on_c, 0, 60, 100
5, 255840, Note_on_c, 0, 61, 100
5, 256080, Note_on_c, 0, 60, 0
5, 256080, Note_on_c, 0, 61, 0
5, 256320, Note_on_c, 0, 61, 100
5, 256560, Note_on_c, 0, 61, 0
5, 256800, Note_on_c, 0, 60, 100
5, 256800, Note_on_c, 0, 61, 100
5, 256800, Note_on_c, 0, 68, 100
5, 257040, Note_on_c, 0, 60, 0
5, 257040, Note_on_c, 0, 61, 0
5, 257040, Note_on_c, 0, 68, 0
5, 257760, Note_on_c, 0, 60, 100
5, 257760, Note_on_c, 0, 61, 100
5, 257760, Note_on_c, 0, 67, 100
5, 258000, Note_on_c, 0, 60, 0
5, 258000, Note_on_c, 0, 61, 0
5, 258000, Note_on_c, 0, 67, 0
5, 258240, Note_on_c, 0, 61, 100
5, 258480, Note_on_c, 0, 61, 0
5, 258720, Note_on_c, 0, 60, 100
5, 258720, Note_on_c, 0, 61, 100
5, 258720, Note_on_c, 0, 68, 100
5, 258960, Note_on_c, 0, 60, 0
5, 258960, Note_on_c, 0, 61, 0
5, 258960, Note_on_c, 0, 68, 0
5, 259680, Note_on_c, 0, 60, 100
5, 259680, Note_on_c, 0, 61, 100
5, 259680, Note_on_c, 0, 69, 100
5, 259920, Note_on_c, 0, 60, 0
5, 259920, Note_on_c, 0, 61, 0
5, 259920, Note_on_c, 0, 69, 0
5, 260640, Note_on_c, 0, 60, 100
5, 260640, Note_on_c, 0, 61, 100
5, 260640, Note_on_c, 0, 69, 100
5, 260880, Note_on_c, 0, 60, 0
5, 260880, Note_on_c, 0, 61, 0
5, 261600, Note_on_c, 0, 69, 0
5, 261600, Note_on_c, 0, 60, 100
5, 261600, Note_on_c, 0, 61, 100
5, 261840, Note_on_c, 0, 60, 0
5, 261840, Note_on_c, 0, 61, 0
5, 262080, Note_on_c, 0, 61, 100
5, 262080, Note_on_c, 0, 67, 100
5, 262320, Note_on_c, 0, 61, 0
5, 262320, Note_on_c, 0, 67, 0
5, 262560, Note_on_c, 0, 61, 100
5, 262800, Note_on_c, 0, 61, 0
5, 263040, Note_on_c, 0, 60, 100
5, 263040, Note_on_c, 0, 61, 100
5, 263040, Note_on_c, 0, 67, 100
5, 263280, Note_on_c, 0, 60, 0
5, 263280, Note_on_c, 0, 61, 0
5, 263280, Note_on_c, 0, 67, 0
5, 263520, Note_on_c, 0, 60, 100
5, 263520, Note_on_c, 0, 61, 100
5, 263760, Note_on_c, 0, 60, 0
5, 263760, Note_on_c, 0, 61, 0
5, 264000, Note_on_c, 0, 61, 100
5, 264000, Note_on_c, 0, 67, 100
5, 264240, Note_on_c, 0, 61, 0
5, 264240, Note_on_c, 0, 67, 0
5, 264480, Note_on_c, 0, 61, 100
5, 264720, Note_on_c, 0, 61, 0
5, 264960, Note_on_c, 0, 60, 100
5, 264960, Note_on_c, 0, 61, 100
5, 264960, Note_on_c, 0, 67, 100
5, 265200, Note_on_c, 0, 60, 0
5, 265200, Note_on_c, 0, 61, 0
5, 265200, Note_on_c, 0, 67, 0
5, 265440, Note_on_c, 0, 60, 100
5, 265440, Note_on_c, 0, 61, 100
5, 265680, Note_on_c, 0, 60, 0
5, 265680, Note_on_c, 0, 61, 0
5, 265920, Note_on_c, 0, 61, 100
5, 265920, Note_on_c, 0, 67, 100
5, 266160, Note_on_c, 0, 61, 0
5, 266160, Note_on_c, 0, 67, 0
5, 266400, Note_on_c, 0, 61, 100
5, 266640, Note_on_c, 0, 61, 0
5, 266880, Note_on_c, 0, 60, 100
5, 266880, Note_on_c, 0, 61, 100
5, 266880, Note_on_c, 0, 67, 100
5, 267120, Note_on_c, 0, 60, 0
5, 267120, Note_on_c, 0, 61, 0
5, 267120, Note_on_c, 0, 67, 0
5, 267360, Note_on_c, 0, 60, 100
5, 267360, Note_on_c, 0, 61, 100
5, 267600, Note_on_c, 0, 60, 0
5, 267600, Note_on_c, 0, 61, 0
5, 267840, Note_on_c, 0, 61, 100
5, 268080, Note_on_c, 0, 61, 0
5, 268320, Note_on_c, 0, 60, 100
5, 268320, Note_on_c, 0, 61, 100
5, 268320, Note_on_c, 0, 68, 100
5, 268560, Note_on_c, 0, 60, 0
5, 268560, Note_on_c, 0, 61, 0
5, 269280, Note_on_c, 0, 60, 100
5, 269280, Note_on_c, 0, 61, 100
5, 269520, Note_on_c, 0, 68, 0
5, 269520, Note_on_c, 0, 60, 0
5, 269520, Note_on_c, 0, 61, 0
5, 269760, Note_on_c, 0, 61, 100
5, 269760, Note_on_c, 0, 68, 100
5, 270000, Note_on_c, 0, 61, 0
5, 270000, Note_on_c, 0, 68, 0
5, 270240, Note_on_c, 0, 61, 100
5, 270480, Note_on_c, 0, 61, 0
5, 270720, Note_on_c, 0, 61, 100
5, 270720, Note_on_c, 0, 60, 100
5, 270720, Note_on_c, 0, 68, 100
5, 270960, Note_on_c, 0, 61, 0
5, 270960, Note_on_c, 0, 60, 0
5, 270960, Note_on_c, 0, 68, 0
5, 271200, Note_on_c, 0, 61, 100
5, 271200, Note_on_c, 0, 60, 100
5, 271440, Note_on_c, 0, 61, 0
5, 271440, Note_on_c, 0, 60, 0
5, 271680, Note_on_c, 0, 61, 100
5, 271680, Note_on_c, 0, 68, 100
5, 271920, Note_on_c, 0, 61, 0
5, 271920, Note_on_c, 0, 68, 0
5, 272160, Note_on_c, 0, 61, 100
5, 272400, Note_on_c, 0, 61, 0
5, 272640, Note_on_c, 0, 61, 100
5, 272640, Note_on_c, 0, 60, 100
5, 272640, Note_on_c, 0, 68, 100
5, 272880, Note_on_c, 0, 61, 0
5, 272880, Note_on_c, 0, 60, 0
5, 272880, Note_on_c, 0, 68, 0
5, 273120, Note_on_c, 0, 61, 100
5, 273120, Note_on_c, 0, 60, 100
5, 273360, Note_on_c, 0, 61, 0
5, 273360, Note_on_c, 0, 60, 0
5, 273600, Note_on_c, 0, 61, 100
5, 273600, Note_on_c, 0, 68, 100
5, 273840, Note_on_c, 0, 61, 0
5, 273840, Note_on_c, 0, 68, 0
5, 274080, Note_on_c, 0, 61, 100
5, 274320, Note_on_c, 0, 61, 0
5, 274560, Note_on_c, 0, 61, 100
5, 274560, Note_on_c, 0, 60, 100
5, 274560, Note_on_c, 0, 68, 100
5, 274800, Note_on_c, 0, 61, 0
5, 274800, Note_on_c, 0, 60, 0
5, 274800, Note_on_c, 0, 68, 0
5, 275040, Note_on_c, 0, 61, 100
5, 275040, Note_on_c, 0, 60, 100
5, 275280, Note_on_c, 0, 61, 0
5, 275280, Note_on_c, 0, 60, 0
5, 275520, Note_on_c, 0, 61, 100
5, 275760, Note_on_c, 0, 61, 0
5, 276000, Note_on_c, 0, 61, 100
5, 276000, Note_on_c, 0, 60, 100
5, 276000, Note_on_c, 0, 67, 100
5, 276240, Note_on_c, 0, 61, 0
5, 276240, Note_on_c, 0, 60, 0
5, 276960, Note_on_c, 0, 60, 100
5, 276960, Note_on_c, 0, 61, 100
5, 277200, Note_on_c, 0, 67, 0
5, 277200, Note_on_c, 0, 60, 0
5, 277200, Note_on_c, 0, 61, 0
5, 277440, Note_on_c, 0, 61, 100
5, 277440, Note_on_c, 0, 67, 100
5, 277680, Note_on_c, 0, 61, 0
5, 277680, Note_on_c, 0, 67, 0
5, 277920, Note_on_c, 0, 61, 100
5, 278160, Note_on_c, 0, 61, 0
5, 278400, Note_on_c, 0, 61, 100
5, 278400, Note_on_c, 0, 60, 100
5, 278400, Note_on_c, 0, 67, 100
5, 278640, Note_on_c, 0, 61, 0
5, 278640, Note_on_c, 0, 60, 0
5, 278640, Note_on_c, 0, 67, 0
5, 278880, Note_on_c, 0, 61, 100
5, 278880, Note_on_c, 0, 60, 100
5, 279120, Note_on_c, 0, 61, 0
5, 279120, Note_on_c, 0, 60, 0
5, 279360, Note_on_c, 0, 61, 100
5, 279360, Note_on_c, 0, 67, 100
5, 279600, Note_on_c, 0, 61, 0
5, 279600, Note_on_c, 0, 67, 0
5, 279840, Note_on_c, 0, 61, 100
5, 280080, Note_on_c, 0, 61, 0
5, 280320, Note_on_c, 0, 61, 100
5, 280320, Note_on_c, 0, 60, 100
5, 280320, Note_on_c, 0, 67, 100
5, 280560, Note_on_c, 0, 61, 0
5, 280560, Note_on_c, 0, 60, 0
5, 280560, Note_on_c, 0, 67, 0
5, 280800, Note_on_c, 0, 61, 100
5, 280800, Note_on_c, 0, 60, 100
5, 281040, Note_on_c, 0, 61, 0
5, 281040, Note_on_c, 0, 60, 0
5, 281280, Note_on_c, 0, 61, 100
5, 281280, Note_on_c, 0, 67, 100
5, 281520, Note_on_c, 0, 61, 0
5, 281520, Note_on_c, 0, 67, 0
5, 281760, Note_on_c, 0, 61, 100
5, 282000, Note_on_c, 0, 61, 0
5, 282240, Note_on_c, 0, 61, 100
5, 282240, Note_on_c, 0, 60, 100
5, 282240, Note_on_c, 0, 67, 100
5, 282480, Note_on_c, 0, 61, 0
5, 282480, Note_on_c, 0, 60, 0
5, 282480, Note_on_c, 0, 67, 0
5, 282480, Note_on_c, 0, 60, 100
5, 282720, Note_on_c, 0, 60, 0
5, 282720, Note_on_c, 0, 61, 100
5, 282720, Note_on_c, 0, 60, 100
5, 282960, Note_on_c, 0, 61, 0
5, 282960, Note_on_c, 0, 60, 0
5, 283200, Note_on_c, 0, 61, 100
5, 283440, Note_on_c, 0, 61, 0
5, 283680, Note_on_c, 0, 61, 100
5, 283680, Note_on_c, 0, 60, 100
5, 283680, Note_on_c, 0, 67, 100
5, 283920, Note_on_c, 0, 61, 0
5, 283920, Note_on_c, 0, 60, 0
5, 284640, Note_on_c, 0, 67, 0
5, 284640, Note_on_c, 0, 60, 100
5, 284640, Note_on_c, 0, 61, 100
5, 284880, Note_on_c, 0, 60, 0
5, 284880, Note_on_c, 0, 61, 0
5, 285120, Note_on_c, 0, 61, 100
5, 285360, Note_on_c, 0, 61, 0
5, 285600, Note_on_c, 0, 60, 100
5, 285600, Note_on_c, 0, 61, 100
5, 285600, Note_on_c, 0, 69, 100
5, 285840, Note_on_c, 0, 60, 0
5, 285840, Note_on_c, 0, 61, 0
5, 286560, Note_on_c, 0, 69, 0
5, 286560, Note_on_c, 0, 60, 100
5, 286560, Note_on_c, 0, 61, 100
5, 286800, Note_on_c, 0, 60, 0
5, 286800, Note_on_c, 0, 61, 0
5, 287040, Note_on_c, 0, 61, 100
5, 287280, Note_on_c, 0, 61, 0
5, 287520, Note_on_c, 0, 60, 100
5, 287520, Note_on_c, 0, 61, 100
5, 287520, Note_on_c, 0, 67, 100
5, 287760, Note_on_c, 0, 60, 0
5, 287760, Note_on_c, 0, 61, 0
5, 288480, Note_on_c, 0, 67, 0
5, 288480, Note_on_c, 0, 60, 100
5, 288480, Note_on_c, 0, 61, 100
5, 288720, Note_on_c, 0, 60, 0
5, 288720, Note_on_c, 0, 61, 0
5, 288960, Note_on_c, 0, 61, 100
5, 289200, Note_on_c, 0, 61, 0
5, 289440, Note_on_c, 0, 60, 100
5, 289440, Note_on_c, 0, 61, 100
5, 289440, Note_on_c, 0, 68, 100
5, 289680, Note_on_c, 0, 60, 0
5, 289680, Note_on_c, 0, 61, 0
5, 290400, Note_on_c, 0, 68, 0
5, 290400, Note_on_c, 0, 60, 100
5, 290400, Note_on_c, 0, 61, 100
5, 290640, Note_on_c, 0, 60, 0
5, 290640, Note_on_c, 0, 61, 0
5, 291360, Note_on_c, 0, 60, 100
5, 291360, Note_on_c, 0, 61, 100
5, 291360, Note_on_c, 0, 68, 100
5, 291600, Note_on_c, 0, 60, 0
5, 291600, Note_on_c, 0, 61, 0
5, 292320, Note_on_c, 0, 60, 100
5, 292560, Note_on_c, 0, 68, 0
5, 292560, Note_on_c, 0, 60, 0
5, 299040, Note_on_c, 0, 60, 100
5, 299040, Note_on_c, 0, 61, 100
5, 299040, Note_on_c, 0, 68, 100
5, 299280, Note_on_c, 0, 60, 0
5, 299280, Note_on_c, 0, 61, 0
5, 300000, Note_on_c, 0, 60, 100
5, 300000, Note_on_c, 0, 61, 100
5, 300240, Note_on_c, 0, 60, 0
5, 300240, Note_on_c, 0, 61, 0
5, 300480, Note_on_c, 0, 61, 100
5, 300720, Note_on_c, 0, 61, 0
5, 300960, Note_on_c, 0, 61, 100
5, 301200, Note_on_c, 0, 61, 0
5, 301440, Note_on_c, 0, 60, 100
5, 301440, Note_on_c, 0, 61, 100
5, 301680, Note_on_c, 0, 60, 0
5, 301680, Note_on_c, 0, 61, 0
5, 301920, Note_on_c, 0, 60, 100
5, 301920, Note_on_c, 0, 61, 100
5, 302160, Note_on_c, 0, 60, 0
5, 302160, Note_on_c, 0, 61, 0
5, 302400, Note_on_c, 0, 61, 100
5, 302640, Note_on_c, 0, 68, 0
5, 302640, Note_on_c, 0, 61, 0
5, 302880, Note_on_c, 0, 61, 100
5, 302880, Note_on_c, 0, 60, 100
5, 302880, Note_on_c, 0, 69, 100
5, 303120, Note_on_c, 0, 61, 0
5, 303120, Note_on_c, 0, 60, 0
5, 303840, Note_on_c, 0, 60, 100
5, 303840, Note_on_c, 0, 61, 100
5, 304080, Note_on_c, 0, 60, 0
5, 304080, Note_on_c, 0, 61, 0
5, 304320, Note_on_c, 0, 61, 100
5, 304560, Note_on_c, 0, 61, 0
5, 304800, Note_on_c, 0, 61, 100
5, 305040, Note_on_c, 0, 61, 0
5, 305280, Note_on_c, 0, 60, 100
5, 305280, Note_on_c, 0, 61, 100
5, 305520, Note_on_c, 0, 60, 0
5, 305520, Note_on_c, 0, 61, 0
5, 305760, Note_on_c, 0, 60, 100
5, 305760, Note_on_c, 0, 61, 100
5, 306000, Note_on_c, 0, 60, 0
5, 306000, Note_on_c, 0, 61, 0
5, 306240, Note_on_c, 0, 61, 100
5, 306480, Note_on_c, 0, 69, 0
5, 306480, Note_on_c, 0, 61, 0
5, 306720, Note_on_c, 0, 60, 100
5, 306720, Note_on_c, 0, 61, 100
5, 306720, Note_on_c, 0, 67, 100
5, 306960, Note_on_c, 0, 60, 0
5, 306960, Note_on_c, 0, 61, 0
5, 307680, Note_on_c, 0, 60, 100
5, 307680, Note_on_c, 0, 61, 100
5, 307920, Note_on_c, 0, 60, 0
5, 307920, Note_on_c, 0, 61, 0
5, 308160, Note_on_c, 0, 61, 100
5, 308400, Note_on_c, 0, 61, 0
5, 308640, Note_on_c, 0, 61, 100
5, 308880, Note_on_c, 0, 61, 0
5, 309120, Note_on_c, 0, 61, 100
5, 309120, Note_on_c, 0, 60, 100
5, 309360, Note_on_c, 0, 61, 0
5, 309360, Note_on_c, 0, 60, 0
5, 309600, Note_on_c, 0, 61, 100
5, 309600, Note_on_c, 0, 60, 100
5, 309840, Note_on_c, 0, 61, 0
5, 309840, Note_on_c, 0, 60, 0
5, 310080, Note_on_c, 0, 61, 100
5, 310320, Note_on_c, 0, 67, 0
5, 310320, Note_on_c, 0, 61, 0
5, 310560, Note_on_c, 0, 61, 100
5, 310560, Note_on_c, 0, 60, 100
5, 310560, Note_on_c, 0, 68, 100
5, 310800, Note_on_c, 0, 61, 0
5, 310800, Note_on_c, 0, 60, 0
5, 311520, Note_on_c, 0, 61, 100
5, 311520, Note_on_c, 0, 60, 100
5, 311760, Note_on_c, 0, 61, 0
5, 311760, Note_on_c, 0, 60, 0
5, 312000, Note_on_c, 0, 61, 100
5, 312240, Note_on_c, 0, 61, 0
5, 312480, Note_on_c, 0, 61, 100
5, 312720, Note_on_c, 0, 61, 0
5, 312960, Note_on_c, 0, 61, 100
5, 312960, Note_on_c, 0, 60, 100
5, 313200, Note_on_c, 0, 61, 0
5, 313200, Note_on_c, 0, 60, 0
5, 313440, Note_on_c, 0, 61, 100
5, 313440, Note_on_c, 0, 60, 100
5, 313680, Note_on_c, 0, 61, 0
5, 313680, Note_on_c, 0, 60, 0
5, 313920, Note_on_c, 0, 61, 100
5, 314160, Note_on_c, 0, 68, 0
5, 314160, Note_on_c, 0, 61, 0
5, 314400, Note_on_c, 0, 61, 100
5, 314400, Note_on_c, 0, 60, 100
5, 314400, Note_on_c, 0, 68, 100
5, 314640, Note_on_c, 0, 61, 0
5, 314640, Note_on_c, 0, 60, 0
5, 315360, Note_on_c, 0, 60, 100
5, 315360, Note_on_c, 0, 61, 100
5, 315600, Note_on_c, 0, 60, 0
5, 315600, Note_on_c, 0, 61, 0
5, 315840, Note_on_c, 0, 61, 100
5, 316080, Note_on_c, 0, 61, 0
5, 316320, Note_on_c, 0, 61, 100
5, 316560, Note_on_c, 0, 61, 0
5, 316800, Note_on_c, 0, 61, 100
5, 316800, Note_on_c, 0, 60, 100
5, 317040, Note_on_c, 0, 61, 0
5, 317040, Note_on_c, 0, 60, 0
5, 317280, Note_on_c, 0, 61, 100
5, 317280, Note_on_c, 0, 60, 100
5, 317520, Note_on_c, 0, 61, 0
5, 317520, Note_on_c, 0, 60, 0
5, 317760, Note_on_c, 0, 61, 100
5, 318000, Note_on_c, 0, 68, 0
5, 318000, Note_on_c, 0, 61, 0
5, 318240, Note_on_c, 0, 61, 100
5, 318240, Note_on_c, 0, 60, 100
5, 318240, Note_on_c, 0, 69, 100
5, 318480, Note_on_c, 0, 61, 0
5, 318480, Note_on_c, 0, 60, 0
5, 319200, Note_on_c, 0, 61, 100
5, 319200, Note_on_c, 0, 60, 100
5, 319440, Note_on_c, 0, 61, 0
5, 319440, Note_on_c, 0, 60, 0
5, 319680, Note_on_c, 0, 61, 100
5, 319920, Note_on_c, 0, 61, 0
5, 320160, Note_on_c, 0, 61, 100
5, 320400, Note_on_c, 0, 61, 0
5, 320640, Note_on_c, 0, 61, 100
5, 320640, Note_on_c, 0, 60, 100
5, 320880, Note_on_c, 0, 61, 0
5, 320880, Note_on_c, 0, 60, 0
5, 321120, Note_on_c, 0, 61, 100
5, 321120, Note_on_c, 0, 60, 100
5, 321360, Note_on_c, 0, 61, 0
5, 321360, Note_on_c, 0, 60, 0
5, 321600, Note_on_c, 0, 61, 100
5, 321840, Note_on_c, 0, 69, 0
5, 321840, Note_on_c, 0, 61, 0
5, 322080, Note_on_c, 0, 61, 100
5, 322080, Note_on_c, 0, 60, 100
5, 322080, Note_on_c, 0, 68, 100
5, 322320, Note_on_c, 0, 61, 0
5, 322320, Note_on_c, 0, 60, 0
5, 323040, Note_on_c, 0, 61, 100
5, 323040, Note_on_c, 0, 60, 100
5, 323280, Note_on_c, 0, 61, 0
5, 323280, Note_on_c, 0, 60, 0
5, 323520, Note_on_c, 0, 61, 100
5, 323760, Note_on_c, 0, 61, 0
5, 324480, Note_on_c, 0, 60, 100
5, 324480, Note_on_c, 0, 61, 100
5, 324720, Note_on_c, 0, 60, 0
5, 324720, Note_on_c, 0, 61, 0
5, 324960, Note_on_c, 0, 60, 100
5, 324960, Note_on_c, 0, 61, 100
5, 325200, Note_on_c, 0, 60, 0
5, 325200, Note_on_c, 0, 61, 0
5, 325440, Note_on_c, 0, 61, 100
5, 325680, Note_on_c, 0, 68, 0
5, 325680, Note_on_c, 0, 61, 0
5, 325920, Note_on_c, 0, 60, 100
5, 325920, Note_on_c, 0, 61, 100
5, 325920, Note_on_c, 0, 67, 100
5, 326160, Note_on_c, 0, 60, 0
5, 326160, Note_on_c, 0, 61, 0
5, 329520, Note_on_c, 0, 67, 0
5, 329760, Note_on_c, 0, 60, 100
5, 329760, Note_on_c, 0, 61, 100
5, 329760, Note_on_c, 0, 68, 100
5, 330000, Note_on_c, 0, 60, 0
5, 330000, Note_on_c, 0, 61, 0
5, 330720, Note_on_c, 0, 60, 100
5, 330720, Note_on_c, 0, 61, 100
5, 330960, Note_on_c, 0, 60, 0
5, 330960, Note_on_c, 0, 61, 0
5, 331200, Note_on_c, 0, 61, 100
5, 331440, Note_on_c, 0, 61, 0
5, 331680, Note_on_c, 0, 61, 100
5, 331920, Note_on_c, 0, 61, 0
5, 332160, Note_on_c, 0, 60, 100
5, 332160, Note_on_c, 0, 61, 100
5, 332400, Note_on_c, 0, 60, 0
5, 332400, Note_on_c, 0, 61, 0
5, 332640, Note_on_c, 0, 60, 100
5, 332640, Note_on_c, 0, 61, 100
5, 332880, Note_on_c, 0, 60, 0
5, 332880, Note_on_c, 0, 61, 0
5, 333120, Note_on_c, 0, 61, 100
5, 333360, Note_on_c, 0, 68, 0
5, 333360, Note_on_c, 0, 61, 0
5, 333600, Note_on_c, 0, 61, 100
5, 333600, Note_on_c, 0, 60, 100
5, 333600, Note_on_c, 0, 69, 100
5, 333840, Note_on_c, 0, 61, 0
5, 333840, Note_on_c, 0, 60, 0
5, 334560, Note_on_c, 0, 60, 100
5, 334560, Note_on_c, 0, 61, 100
5, 334800, Note_on_c, 0, 60, 0
5, 334800, Note_on_c, 0, 61, 0
5, 335040, Note_on_c, 0, 61, 100
5, 335280, Note_on_c, 0, 61, 0
5, 335520, Note_on_c, 0, 61, 100
5, 335760, Note_on_c, 0, 61, 0
5, 336000, Note_on_c, 0, 60, 100
5, 336000, Note_on_c, 0, 61, 100
5, 336240, Note_on_c, 0, 60, 0
5, 336240, Note_on_c, 0, 61, 0
5, 336480, Note_on_c, 0, 60, 100
5, 336480, Note_on_c, 0, 61, 100
5, 336720, Note_on_c, 0, 60, 0
5, 336720, Note_on_c, 0, 61, 0
5, 336960, Note_on_c, 0, 61, 100
5, 337200, Note_on_c, 0, 69, 0
5, 337200, Note_on_c, 0, 61, 0
5, 337440, Note_on_c, 0, 60, 100
5, 337440, Note_on_c, 0, 61, 100
5, 337440, Note_on_c, 0, 67, 100
5, 337680, Note_on_c, 0, 60, 0
5, 337680, Note_on_c, 0, 61, 0
5, 338400, Note_on_c, 0, 60, 100
5, 338400, Note_on_c, 0, 61, 100
5, 338640, Note_on_c, 0, 60, 0
5, 338640, Note_on_c, 0, 61, 0
5, 338880, Note_on_c, 0, 61, 100
5, 339120, Note_on_c, 0, 61, 0
5, 339360, Note_on_c, 0, 61, 100
5, 339600, Note_on_c, 0, 61, 0
5, 339840, Note_on_c, 0, 61, 100
5, 339840, Note_on_c, 0, 60, 100
5, 340080, Note_on_c, 0, 61, 0
5, 340080, Note_on_c, 0, 60, 0
5, 340320, Note_on_c, 0, 61, 100
5, 340320, Note_on_c, 0, 60, 100
5, 340560, Note_on_c, 0, 61, 0
5, 340560, Note_on_c, 0, 60, 0
5, 340800, Note_on_c, 0, 61, 100
5, 341040, Note_on_c, 0, 67, 0
5, 341040, Note_on_c, 0, 61, 0
5, 341280, Note_on_c, 0, 61, 100
5, 341280, Note_on_c, 0, 60, 100
5, 341280, Note_on_c, 0, 68, 100
5, 341520, Note_on_c, 0, 61, 0
5, 341520, Note_on_c, 0, 60, 0
5, 342240, Note_on_c, 0, 61, 100
5, 342240, Note_on_c, 0, 60, 100
5, 342480, Note_on_c, 0, 61, 0
5, 342480, Note_on_c, 0, 60, 0
5, 342720, Note_on_c, 0, 61, 100
5, 342960, Note_on_c, 0, 61, 0
5, 343200, Note_on_c, 0, 61, 100
5, 343200, Note_on_c, 0, 60, 100
5, 343440, Note_on_c, 0, 61, 0
5, 343440, Note_on_c, 0, 60, 0
5, 343680, Note_on_c, 0, 61, 100
5, 343920, Note_on_c, 0, 61, 0
5, 344160, Note_on_c, 0, 61, 100
5, 344160, Note_on_c, 0, 60, 100
5, 344400, Note_on_c, 0, 61, 0
5, 344400, Note_on_c, 0, 60, 0
5, 344640, Note_on_c, 0, 61, 100
5, 344880, Note_on_c, 0, 68, 0
5, 344880, Note_on_c, 0, 61, 0
5, 345120, Note_on_c, 0, 61, 100
5, 345120, Note_on_c, 0, 60, 100
5, 345120, Note_on_c, 0, 68, 100
5, 345360, Note_on_c, 0, 61, 0
5, 345360, Note_on_c, 0, 60, 0
5, 346080, Note_on_c, 0, 60, 100
5, 346080, Note_on_c, 0, 61, 100
5, 346320, Note_on_c, 0, 60, 0
5, 346320, Note_on_c, 0, 61, 0
5, 346560, Note_on_c, 0, 61, 100
5, 346800, Note_on_c, 0, 61, 0
5, 347040, Note_on_c, 0, 61, 100
5, 347280, Note_on_c, 0, 61, 0
5, 347520, Note_on_c, 0, 61, 100
5, 347520, Note_on_c, 0, 60, 100
5, 347760, Note_on_c, 0, 61, 0
5, 347760, Note_on_c, 0, 60, 0
5, 348000, Note_on_c, 0, 61, 100
5, 348000, Note_on_c, 0, 60, 100
5, 348240, Note_on_c, 0, 61, 0
5, 348240, Note_on_c, 0, 60, 0
5, 348480, Note_on_c, 0, 61, 100
5, 348720, Note_on_c, 0, 68, 0
5, 348720, Note_on_c, 0, 61, 0
5, 348960, Note_on_c, 0, 61, 100
5, 348960, Note_on_c, 0, 60, 100
5, 348960, Note_on_c, 0, 69, 100
5, 349200, Note_on_c, 0, 61, 0
5, 349200, Note_on_c, 0, 60, 0
5, 349920, Note_on_c, 0, 61, 100
5, 349920, Note_on_c, 0, 60, 100
5, 350160, Note_on_c, 0, 61, 0
5, 350160, Note_on_c, 0, 60, 0
5, 350400, Note_on_c, 0, 61, 100
5, 350640, Note_on_c, 0, 61, 0
5, 350880, Note_on_c, 0, 61, 100
5, 351120, Note_on_c, 0, 61, 0
5, 351360, Note_on_c, 0, 61, 100
5, 351360, Note_on_c, 0, 60, 100
5, 351600, Note_on_c, 0, 61, 0
5, 351600, Note_on_c, 0, 60, 0
5, 351840, Note_on_c, 0, 61, 100
5, 351840, Note_on_c, 0, 60, 100
5, 352080, Note_on_c, 0, 61, 0
5, 352080, Note_on_c, 0, 60, 0
5, 352320, Note_on_c, 0, 61, 100
5, 352560, Note_on_c, 0, 69, 0
5, 352560, Note_on_c, 0, 61, 0
5, 352800, Note_on_c, 0, 61, 100
5, 352800, Note_on_c, 0, 60, 100
5, 352800, Note_on_c, 0, 68, 100
5, 353040, Note_on_c, 0, 61, 0
5, 353040, Note_on_c, 0, 60, 0
5, 353760, Note_on_c, 0, 61, 100
5, 353760, Note_on_c, 0, 60, 100
5, 354000, Note_on_c, 0, 61, 0
5, 354000, Note_on_c, 0, 60, 0
5, 354240, Note_on_c, 0, 61, 100
5, 354480, Note_on_c, 0, 61, 0
5, 355200, Note_on_c, 0, 60, 100
5, 355200, Note_on_c, 0, 61, 100
5, 355440, Note_on_c, 0, 60, 0
5, 355440, Note_on_c, 0, 61, 0
5, 355680, Note_on_c, 0, 60, 100
5, 355680, Note_on_c, 0, 61, 100
5, 355920, Note_on_c, 0, 60, 0
5, 355920, Note_on_c, 0, 61, 0
5, 356160, Note_on_c, 0, 61, 100
5, 356400, Note_on_c, 0, 68, 0
5, 356400, Note_on_c, 0, 61, 0
5, 356640, Note_on_c, 0, 60, 100
5, 356640, Note_on_c, 0, 61, 100
5, 356640, Note_on_c, 0, 67, 100
5, 356880, Note_on_c, 0, 60, 0
5, 356880, Note_on_c, 0, 61, 0
5, 360240, Note_on_c, 0, 67, 0
5, 360480, Note_on_c, 0, 60, 100
5, 360480, Note_on_c, 0, 61, 100
5, 360480, Note_on_c, 0, 67, 100
5, 360720, Note_on_c, 0, 60, 0
5, 360720, Note_on_c, 0, 61, 0
5, 361920, Note_on_c, 0, 67, 0
5, 361920, Note_on_c, 0, 60, 100
5, 361920, Note_on_c, 0, 61, 100
5, 362160, Note_on_c, 0, 60, 0
5, 362160, Note_on_c, 0, 61, 0
5, 362880, Note_on_c, 0, 60, 100
5, 362880, Note_on_c, 0, 61, 100
5, 363120, Note_on_c, 0, 60, 0
5, 363120, Note_on_c, 0, 61, 0
5, 363840, Note_on_c, 0, 60, 100
5, 363840, Note_on_c, 0, 61, 100
5, 364080, Note_on_c, 0, 60, 0
5, 364080, Note_on_c, 0, 61, 0
5, 364800, Note_on_c, 0, 60, 100
5, 364800, Note_on_c, 0, 61, 100
5, 365040, Note_on_c, 0, 60, 0
5, 365040, Note_on_c, 0, 61, 0
5, 365760, Note_on_c, 0, 60, 100
5, 365760, Note_on_c, 0, 61, 100
5, 366000, Note_on_c, 0, 60, 0
5, 366000, Note_on_c, 0, 61, 0
5, 366720, Note_on_c, 0, 60, 100
5, 366720, Note_on_c, 0, 61, 100
5, 366960, Note_on_c, 0, 60, 0
5, 366960, Note_on_c, 0, 61, 0
5, 367200, Note_on_c, 0, 61, 100
5, 367440, Note_on_c, 0, 61, 0
5, 367680, Note_on_c, 0, 60, 100
5, 367680, Note_on_c, 0, 61, 100
5, 367920, Note_on_c, 0, 60, 0
5, 367920, Note_on_c, 0, 61, 0
5, 368160, Note_on_c, 0, 61, 100
5, 368400, Note_on_c, 0, 61, 0
5, 368640, Note_on_c, 0, 60, 100
5, 368880, Note_on_c, 0, 60, 0
5, 369600, Note_on_c, 0, 60, 100
5, 369600, Note_on_c, 0, 61, 100
5, 369840, Note_on_c, 0, 60, 0
5, 369840, Note_on_c, 0, 61, 0
5, 370560, Note_on_c, 0, 60, 100
5, 370560, Note_on_c, 0, 61, 100
5, 370800, Note_on_c, 0, 60, 0
5, 370800, Note_on_c, 0, 61, 0
5, 371520, Note_on_c, 0, 60, 100
5, 371520, Note_on_c, 0, 61, 100
5, 371760, Note_on_c, 0, 60, 0
5, 371760, Note_on_c, 0, 61, 0
5, 372480, Note_on_c, 0, 60, 100
5, 372480, Note_on_c, 0, 61, 100
5, 372720, Note_on_c, 0, 60, 0
5, 372720, Note_on_c, 0, 61, 0
5, 373440, Note_on_c, 0, 60, 100
5, 373440, Note_on_c, 0, 61, 100
5, 373680, Note_on_c, 0, 60, 0
5, 373680, Note_on_c, 0, 61, 0
5, 374400, Note_on_c, 0, 60, 100
5, 374400, Note_on_c, 0, 61, 100
5, 374640, Note_on_c, 0, 60, 0
5, 374640, Note_on_c, 0, 61, 0
5, 374880, Note_on_c, 0, 61, 100
5, 375120, Note_on_c, 0, 61, 0
5, 375360, Note_on_c, 0, 60, 100
5, 375360, Note_on_c, 0, 61, 100
5, 375600, Note_on_c, 0, 60, 0
5, 375600, Note_on_c, 0, 61, 0
5, 375840, Note_on_c, 0, 61, 100
5, 376080, Note_on_c, 0, 61, 0
5, 376320, Note_on_c, 0, 60, 100
5, 376560, Note_on_c, 0, 60, 0
5, 377280, Note_on_c, 0, 60, 100
5, 377280, Note_on_c, 0, 61, 100
5, 377520, Note_on_c, 0, 60, 0
5, 377520, Note_on_c, 0, 61, 0
5, 378240, Note_on_c, 0, 60, 100
5, 378240, Note_on_c, 0, 61, 100
5, 378480, Note_on_c, 0, 60, 0
5, 378480, Note_on_c, 0, 61, 0
5, 379200, Note_on_c, 0, 60, 100
5, 379200, Note_on_c, 0, 61, 100
5, 379440, Note_on_c, 0, 60, 0
5, 379440, Note_on_c, 0, 61, 0
5, 380160, Note_on_c, 0, 60, 100
5, 380160, Note_on_c, 0, 61, 100
5, 380400, Note_on_c, 0, 60, 0
5, 380400, Note_on_c, 0, 61, 0
5, 381120, Note_on_c, 0, 60, 100
5, 381120, Note_on_c, 0, 61, 100
5, 381360, Note_on_c, 0, 60, 0
5, 381360, Note_on_c, 0, 61, 0
5, 382080, Note_on_c, 0, 60, 100
5, 382080, Note_on_c, 0, 61, 100
5, 382320, Note_on_c, 0, 60, 0
5, 382320, Note_on_c, 0, 61, 0
5, 382560, Note_on_c, 0, 61, 100
5, 382800, Note_on_c, 0, 61, 0
5, 383040, Note_on_c, 0, 60, 100
5, 383040, Note_on_c, 0, 61, 100
5, 383280, Note_on_c, 0, 60, 0
5, 383280, Note_on_c, 0, 61, 0
5, 383520, Note_on_c, 0, 61, 100
5, 383520, Note_on_c, 0, 67, 100
5, 383760, Note_on_c, 0, 61, 0
5, 384000, Note_on_c, 0, 60, 100
5, 384240, Note_on_c, 0, 60, 0
5, 384480, Note_on_c, 0, 67, 0
5, 384960, Note_on_c, 0, 60, 100
5, 384960, Note_on_c, 0, 61, 100
5, 385200, Note_on_c, 0, 60, 0
5, 385200, Note_on_c, 0, 61, 0
5, 385440, Note_on_c, 0, 69, 100
5, 385920, Note_on_c, 0, 60, 100
5, 385920, Note_on_c, 0, 61, 100
5, 386160, Note_on_c, 0, 60, 0
5, 386160, Note_on_c, 0, 61, 0
5, 386400, Note_on_c, 0, 69, 0
5, 386880, Note_on_c, 0, 60, 100
5, 386880, Note_on_c, 0, 61, 100
5, 387120, Note_on_c, 0, 60, 0
5, 387120, Note_on_c, 0, 61, 0
5, 387360, Note_on_c, 0, 67, 100
5, 387840, Note_on_c, 0, 60, 100
5, 387840, Note_on_c, 0, 61, 100
5, 388080, Note_on_c, 0, 60, 0
5, 388080, Note_on_c, 0, 61, 0
5, 388320, Note_on_c, 0, 67, 0
5, 388800, Note_on_c, 0, 60, 100
5, 388800, Note_on_c, 0, 61, 100
5, 389040, Note_on_c, 0, 60, 0
5, 389040, Note_on_c, 0, 61, 0
5, 389280, Note_on_c, 0, 68, 100
5, 389760, Note_on_c, 0, 60, 100
5, 389760, Note_on_c, 0, 61, 100
5, 390000, Note_on_c, 0, 60, 0
5, 390000, Note_on_c, 0, 61, 0
5, 390240, Note_on_c, 0, 68, 0
5, 390240, Note_on_c, 0, 61, 100
5, 390480, Note_on_c, 0, 61, 0
5, 390720, Note_on_c, 0, 60, 100
5, 390720, Note_on_c, 0, 61, 100
5, 390960, Note_on_c, 0, 60, 0
5, 390960, Note_on_c, 0, 61, 0
5, 391200, Note_on_c, 0, 61, 100
5, 391440, Note_on_c, 0, 61, 0
5, 391680, Note_on_c, 0, 60, 100
5, 391680, Note_on_c, 0, 67, 100
5, 391920, Note_on_c, 0, 60, 0
5, 391920, Note_on_c, 0, 67, 0
5, 392640, Note_on_c, 0, 60, 100
5, 392640, Note_on_c, 0, 61, 100
5, 392880, Note_on_c, 0, 60, 0
5, 392880, Note_on_c, 0, 61, 0
5, 393600, Note_on_c, 0, 60, 100
5, 393600, Note_on_c, 0, 61, 100
5, 393600, Note_on_c, 0, 69, 100
5, 393840, Note_on_c, 0, 60, 0
5, 393840, Note_on_c, 0, 61, 0
5, 393840, Note_on_c, 0, 69, 0
5, 394560, Note_on_c, 0, 60, 100
5, 394560, Note_on_c, 0, 61, 100
5, 394560, Note_on_c, 0, 68, 100
5, 394800, Note_on_c, 0, 60, 0
5, 394800, Note_on_c, 0, 61, 0
5, 395520, Note_on_c, 0, 60, 100
5, 395520, Note_on_c, 0, 61, 100
5, 395760, Note_on_c, 0, 60, 0
5, 395760, Note_on_c, 0, 61, 0
5, 396000, Note_on_c, 0, 68, 0
5, 396480, Note_on_c, 0, 60, 100
5, 396480, Note_on_c, 0, 61, 100
5, 396720, Note_on_c, 0, 60, 0
5, 396720, Note_on_c, 0, 61, 0
5, 397440, Note_on_c, 0, 60, 100
5, 397440, Note_on_c, 0, 61, 100
5, 397440, Note_on_c, 0, 69, 100
5, 397680, Note_on_c, 0, 60, 0
5, 397680, Note_on_c, 0, 61, 0
5, 397680, Note_on_c, 0, 69, 0
5, 397920, Note_on_c, 0, 61, 100
5, 398160, Note_on_c, 0, 61, 0
5, 398400, Note_on_c, 0, 60, 100
5, 398400, Note_on_c, 0, 61, 100
5, 398400, Note_on_c, 0, 68, 100
5, 398640, Note_on_c, 0, 60, 0
5, 398640, Note_on_c, 0, 61, 0
5, 398880, Note_on_c, 0, 61, 100
5, 399120, Note_on_c, 0, 61, 0
5, 399360, Note_on_c, 0, 68, 0
5, 399360, Note_on_c, 0, 60, 100
5, 399360, Note_on_c, 0, 67, 100
5, 399600, Note_on_c, 0, 60, 0
5, 399600, Note_on_c, 0, 67, 0
5, 400320, Note_on_c, 0, 60, 100
5, 400320, Note_on_c, 0, 61, 100
5, 400560, Note_on_c, 0, 60, 0
5, 400560, Note_on_c, 0, 61, 0
5, 401280, Note_on_c, 0, 60, 100
5, 401280, Note_on_c, 0, 61, 100
5, 401280, Note_on_c, 0, 69, 100
5, 401520, Note_on_c, 0, 60, 0
5, 401520, Note_on_c, 0, 61, 0
5, 401520, Note_on_c, 0, 69, 0
5, 402240, Note_on_c, 0, 60, 100
5, 402240, Note_on_c, 0, 61, 100
5, 402240, Note_on_c, 0, 68, 100
5, 402480, Note_on_c, 0, 60, 0
5, 402480, Note_on_c, 0, 61, 0
5, 403200, Note_on_c, 0, 60, 100
5, 403200, Note_on_c, 0, 61, 100
5, 403440, Note_on_c, 0, 60, 0
5, 403440, Note_on_c, 0, 61, 0
5, 403680, Note_on_c, 0, 68, 0
5, 404160, Note_on_c, 0, 60, 100
5, 404160, Note_on_c, 0, 61, 100
5, 404400, Note_on_c, 0, 60, 0
5, 404400, Note_on_c, 0, 61, 0
5, 405120, Note_on_c, 0, 60, 100
5, 405120, Note_on_c, 0, 61, 100
5, 405120, Note_on_c, 0, 69, 100
5, 405360, Note_on_c, 0, 60, 0
5, 405360, Note_on_c, 0, 61, 0
5, 405360, Note_on_c, 0, 69, 0
5, 405600, Note_on_c, 0, 61, 100
5, 405840, Note_on_c, 0, 61, 0
5, 406080, Note_on_c, 0, 60, 100
5, 406080, Note_on_c, 0, 61, 100
5, 406080, Note_on_c, 0, 68, 100
5, 406320, Note_on_c, 0, 60, 0
5, 406320, Note_on_c, 0, 61, 0
5, 406560, Note_on_c, 0, 61, 100
5, 406800, Note_on_c, 0, 61, 0
5, 407040, Note_on_c, 0, 68, 0
5, 407040, Note_on_c, 0, 60, 100
5, 407040, Note_on_c, 0, 67, 100
5, 407280, Note_on_c, 0, 60, 0
5, 407280, Note_on_c, 0, 67, 0
5, 408000, Note_on_c, 0, 60, 100
5, 408000, Note_on_c, 0, 61, 100
5, 408240, Note_on_c, 0, 60, 0
5, 408240, Note_on_c, 0, 61, 0
5, 408960, Note_on_c, 0, 60, 100
5, 408960, Note_on_c, 0, 61, 100
5, 408960, Note_on_c, 0, 69, 100
5, 409200, Note_on_c, 0, 60, 0
5, 409200, Note_on_c, 0, 61, 0
5, 409200, Note_on_c, 0, 69, 0
5, 409920, Note_on_c, 0, 60, 100
5, 409920, Note_on_c, 0, 61, 100
5, 409920, Note_on_c, 0, 68, 100
5, 410160, Note_on_c, 0, 60, 0
5, 410160, Note_on_c, 0, 61, 0
5, 410880, Note_on_c, 0, 60, 100
5, 410880, Note_on_c, 0, 61, 100
5, 411120, Note_on_c, 0, 60, 0
5, 411120, Note_on_c, 0, 61, 0
5, 411360, Note_on_c, 0, 68, 0
5, 411840, Note_on_c, 0, 60, 100
5, 411840, Note_on_c, 0, 61, 100
5, 412080, Note_on_c, 0, 60, 0
5, 412080, Note_on_c, 0, 61, 0
5, 412800, Note_on_c, 0, 60, 100
5, 412800, Note_on_c, 0, 61, 100
5, 412800, Note_on_c, 0, 68, 100
5, 413040, Note_on_c, 0, 60, 0
5, 413040, Note_on_c, 0, 61, 0
5, 413040, Note_on_c, 0, 68, 0
5, 413280, Note_on_c, 0, 61, 100
5, 413520, Note_on_c, 0, 61, 0
5, 413760, Note_on_c, 0, 60, 100
5, 413760, Note_on_c, 0, 61, 100
5, 413760, Note_on_c, 0, 68, 100
5, 414000, Note_on_c, 0, 60, 0
5, 414000, Note_on_c, 0, 61, 0
5, 414240, Note_on_c, 0, 61, 100
5, 414480, Note_on_c, 0, 61, 0
5, 414720, Note_on_c, 0, 68, 0
5, 414720, Note_on_c, 0, 60, 100
5, 414720, Note_on_c, 0, 69, 100
5, 414960, Note_on_c, 0, 60, 0
5, 415680, Note_on_c, 0, 60, 100
5, 415680, Note_on_c, 0, 61, 100
5, 415920, Note_on_c, 0, 60, 0
5, 415920, Note_on_c, 0, 61, 0
5, 416640, Note_on_c, 0, 60, 100
5, 416640, Note_on_c, 0, 61, 100
5, 416880, Note_on_c, 0, 60, 0
5, 416880, Note_on_c, 0, 61, 0
5, 417600, Note_on_c, 0, 60, 100
5, 417600, Note_on_c, 0, 61, 100
5, 417840, Note_on_c, 0, 69, 0
5, 417840, Note_on_c, 0, 60, 0
5, 417840, Note_on_c, 0, 61, 0
5, 418560, Note_on_c, 0, 60, 100
5, 418560, Note_on_c, 0, 61, 100
5, 418560, Note_on_c, 0, 69, 100
5, 418800, Note_on_c, 0, 60, 0
5, 418800, Note_on_c, 0, 61, 0
5, 419520, Note_on_c, 0, 60, 100
5, 419520, Note_on_c, 0, 61, 100
5, 419760, Note_on_c, 0, 60, 0
5, 419760, Note_on_c, 0, 61, 0
5, 420480, Note_on_c, 0, 60, 100
5, 420480, Note_on_c, 0, 61, 100
5, 420720, Note_on_c, 0, 60, 0
5, 420720, Note_on_c, 0, 61, 0
5, 420960, Note_on_c, 0, 61, 100
5, 421200, Note_on_c, 0, 61, 0
5, 421440, Note_on_c, 0, 61, 100
5, 421680, Note_on_c, 0, 69, 0
5, 421680, Note_on_c, 0, 61, 0
5, 421920, Note_on_c, 0, 61, 100
5, 421920, Note_on_c, 0, 60, 100
5, 422160, Note_on_c, 0, 61, 0
5, 422160, Note_on_c, 0, 60, 0
5, 422400, Note_on_c, 0, 69, 100
5, 422880, Note_on_c, 0, 60, 100
5, 422880, Note_on_c, 0, 61, 100
5, 423120, Note_on_c, 0, 60, 0
5, 423120, Note_on_c, 0, 61, 0
5, 423360, Note_on_c, 0, 61, 100
5, 423600, Note_on_c, 0, 61, 0
5, 423840, Note_on_c, 0, 61, 100
5, 424080, Note_on_c, 0, 61, 0
5, 424320, Note_on_c, 0, 60, 100
5, 424320, Note_on_c, 0, 61, 100
5, 424560, Note_on_c, 0, 60, 0
5, 424560, Note_on_c, 0, 61, 0
5, 424800, Note_on_c, 0, 60, 100
5, 424800, Note_on_c, 0, 61, 100
5, 425040, Note_on_c, 0, 60, 0
5, 425040, Note_on_c, 0, 61, 0
5, 425280, Note_on_c, 0, 61, 100
5, 425520, Note_on_c, 0, 61, 0
5, 425760, Note_on_c, 0, 61, 100
5, 426000, Note_on_c, 0, 69, 0
5, 426000, Note_on_c, 0, 61, 0
5, 426240, Note_on_c, 0, 60, 100
5, 426240, Note_on_c, 0, 61, 100
5, 426240, Note_on_c, 0, 69, 100
5, 426480, Note_on_c, 0, 60, 0
5, 426480, Note_on_c, 0, 61, 0
5, 426720, Note_on_c, 0, 60, 100
5, 426720, Note_on_c, 0, 61, 100
5, 426960, Note_on_c, 0, 60, 0
5, 426960, Note_on_c, 0, 61, 0
5, 427200, Note_on_c, 0, 61, 100
5, 427440, Note_on_c, 0, 61, 0
5, 427680, Note_on_c, 0, 61, 100
5, 427920, Note_on_c, 0, 61, 0
5, 428160, Note_on_c, 0, 60, 100
5, 428160, Note_on_c, 0, 61, 100
5, 428400, Note_on_c, 0, 60, 0
5, 428400, Note_on_c, 0, 61, 0
5, 428640, Note_on_c, 0, 60, 100
5, 428640, Note_on_c, 0, 61, 100
5, 428880, Note_on_c, 0, 60, 0
5, 428880, Note_on_c, 0, 61, 0
5, 429120, Note_on_c, 0, 61, 100
5, 429360, Note_on_c, 0, 61, 0
5, 429600, Note_on_c, 0, 60, 100
5, 429600, Note_on_c, 0, 61, 100
5, 429840, Note_on_c, 0, 69, 0
5, 429840, Note_on_c, 0, 60, 0
5, 429840, Note_on_c, 0, 61, 0
5, 430080, Note_on_c, 0, 68, 100
5, 430560, Note_on_c, 0, 60, 100
5, 430560, Note_on_c, 0, 61, 100
5, 430800, Note_on_c, 0, 60, 0
5, 430800, Note_on_c, 0, 61, 0
5, 431040, Note_on_c, 0, 61, 100
5, 431280, Note_on_c, 0, 61, 0
5, 431520, Note_on_c, 0, 61, 100
5, 431760, Note_on_c, 0, 61, 0
5, 432000, Note_on_c, 0, 61, 100
5, 432000, Note_on_c, 0, 60, 100
5, 432240, Note_on_c, 0, 61, 0
5, 432240, Note_on_c, 0, 60, 0
5, 432480, Note_on_c, 0, 61, 100
5, 432480, Note_on_c, 0, 60, 100
5, 432720, Note_on_c, 0, 61, 0
5, 432720, Note_on_c, 0, 60, 0
5, 432960, Note_on_c, 0, 61, 100
5, 433200, Note_on_c, 0, 61, 0
5, 433440, Note_on_c, 0, 61, 100
5, 433680, Note_on_c, 0, 68, 0
5, 433680, Note_on_c, 0, 61, 0
5, 433920, Note_on_c, 0, 61, 100
5, 433920, Note_on_c, 0, 60, 100
5, 433920, Note_on_c, 0, 68, 100
5, 434160, Note_on_c, 0, 61, 0
5, 434160, Note_on_c, 0, 60, 0
5, 434160, Note_on_c, 0, 68, 0
5, 434400, Note_on_c, 0, 61, 100
5, 434400, Note_on_c, 0, 60, 100
5, 434640, Note_on_c, 0, 61, 0
5, 434640, Note_on_c, 0, 60, 0
5, 434880, Note_on_c, 0, 61, 100
5, 435120, Note_on_c, 0, 61, 0
5, 435360, Note_on_c, 0, 61, 100
5, 435360, Note_on_c, 0, 69, 100
5, 435600, Note_on_c, 0, 61, 0
5, 435600, Note_on_c, 0, 69, 0
5, 435840, Note_on_c, 0, 61, 100
5, 435840, Note_on_c, 0, 60, 100
5, 436080, Note_on_c, 0, 61, 0
5, 436080, Note_on_c, 0, 60, 0
5, 436320, Note_on_c, 0, 61, 100
5, 436320, Note_on_c, 0, 60, 100
5, 436560, Note_on_c, 0, 61, 0
5, 436560, Note_on_c, 0, 60, 0
5, 436800, Note_on_c, 0, 61, 100
5, 437040, Note_on_c, 0, 61, 0
5, 437280, Note_on_c, 0, 61, 100
5, 437280, Note_on_c, 0, 60, 100
5, 437280, Note_on_c, 0, 67, 100
5, 437520, Note_on_c, 0, 61, 0
5, 437520, Note_on_c, 0, 60, 0
5, 438240, Note_on_c, 0, 60, 100
5, 438240, Note_on_c, 0, 61, 100
5, 438480, Note_on_c, 0, 60, 0
5, 438480, Note_on_c, 0, 61, 0
5, 438720, Note_on_c, 0, 61, 100
5, 438960, Note_on_c, 0, 61, 0
5, 439200, Note_on_c, 0, 61, 100
5, 439440, Note_on_c, 0, 61, 0
5, 439680, Note_on_c, 0, 61, 100
5, 439680, Note_on_c, 0, 60, 100
5, 439920, Note_on_c, 0, 61, 0
5, 439920, Note_on_c, 0, 60, 0
5, 440160, Note_on_c, 0, 61, 100
5, 440160, Note_on_c, 0, 60, 100
5, 440400, Note_on_c, 0, 61, 0
5, 440400, Note_on_c, 0, 60, 0
5, 440640, Note_on_c, 0, 61, 100
5, 440880, Note_on_c, 0, 61, 0
5, 441120, Note_on_c, 0, 61, 100
5, 441360, Note_on_c, 0, 67, 0
5, 441360, Note_on_c, 0, 61, 0
5, 441600, Note_on_c, 0, 61, 100
5, 441600, Note_on_c, 0, 60, 100
5, 441600, Note_on_c, 0, 68, 100
5, 441840, Note_on_c, 0, 61, 0
5, 441840, Note_on_c, 0, 60, 0
5, 441840, Note_on_c, 0, 68, 0
5, 442080, Note_on_c, 0, 61, 100
5, 442080, Note_on_c, 0, 60, 100
5, 442320, Note_on_c, 0, 61, 0
5, 442320, Note_on_c, 0, 60, 0
5, 442560, Note_on_c, 0, 61, 100
5, 442800, Note_on_c, 0, 61, 0
5, 443040, Note_on_c, 0, 61, 100
5, 443040, Note_on_c, 0, 69, 100
5, 443280, Note_on_c, 0, 61, 0
5, 443280, Note_on_c, 0, 69, 0
5, 443520, Note_on_c, 0, 61, 100
5, 443520, Note_on_c, 0, 60, 100
5, 443760, Note_on_c, 0, 61, 0
5, 443760, Note_on_c, 0, 60, 0
5, 444000, Note_on_c, 0, 61, 100
5, 444000, Note_on_c, 0, 60, 100
5, 444240, Note_on_c, 0, 61, 0
5, 444240, Note_on_c, 0, 60, 0
5, 444480, Note_on_c, 0, 61, 100
5, 444720, Note_on_c, 0, 61, 0
5, 444960, Note_on_c, 0, 61, 100
5, 444960, Note_on_c, 0, 60, 100
5, 444960, Note_on_c, 0, 69, 100
5, 445200, Note_on_c, 0, 61, 0
5, 445200, Note_on_c, 0, 60, 0
5, 445920, Note_on_c, 0, 60, 100
5, 445920, Note_on_c, 0, 61, 100
5, 446160, Note_on_c, 0, 60, 0
5, 446160, Note_on_c, 0, 61, 0
5, 446400, Note_on_c, 0, 61, 100
5, 446640, Note_on_c, 0, 61, 0
5, 446880, Note_on_c, 0, 60, 100
5, 446880, Note_on_c, 0, 61, 100
5, 447120, Note_on_c, 0, 60, 0
5, 447120, Note_on_c, 0, 61, 0
5, 447360, Note_on_c, 0, 61, 100
5, 447600, Note_on_c, 0, 61, 0
5, 447840, Note_on_c, 0, 60, 100
5, 447840, Note_on_c, 0, 61, 100
5, 448080, Note_on_c, 0, 60, 0
5, 448080, Note_on_c, 0, 61, 0
5, 448320, Note_on_c, 0, 69, 0
5, 448320, Note_on_c, 0, 61, 100
5, 448560, Note_on_c, 0, 61, 0
5, 448800, Note_on_c, 0, 60, 100
5, 448800, Note_on_c, 0, 61, 100
5, 448800, Note_on_c, 0, 67, 100
5, 449040, Note_on_c, 0, 60, 0
5, 449040, Note_on_c, 0, 61, 0
5, 449760, Note_on_c, 0, 60, 100
5, 449760, Note_on_c, 0, 61, 100
5, 450000, Note_on_c, 0, 60, 0
5, 450000, Note_on_c, 0, 61, 0
5, 450240, Note_on_c, 0, 61, 100
5, 450480, Note_on_c, 0, 61, 0
5, 450720, Note_on_c, 0, 60, 100
5, 450720, Note_on_c, 0, 61, 100
5, 450960, Note_on_c, 0, 60, 0
5, 450960, Note_on_c, 0, 61, 0
5, 451200, Note_on_c, 0, 61, 100
5, 451440, Note_on_c, 0, 61, 0
5, 451680, Note_on_c, 0, 61, 100
5, 451920, Note_on_c, 0, 61, 0
5, 452160, Note_on_c, 0, 61, 100
5, 452400, Note_on_c, 0, 67, 0
5, 452400, Note_on_c, 0, 61, 0
5, 452640, Note_on_c, 0, 61, 100
5, 452640, Note_on_c, 0, 60, 100
5, 452640, Note_on_c, 0, 68, 100
5, 452880, Note_on_c, 0, 61, 0
5, 452880, Note_on_c, 0, 60, 0
5, 452880, Note_on_c, 0, 68, 0
5, 453600, Note_on_c, 0, 60, 100
5, 453600, Note_on_c, 0, 61, 100
5, 453840, Note_on_c, 0, 60, 0
5, 453840, Note_on_c, 0, 61, 0
5, 454080, Note_on_c, 0, 61, 100
5, 454320, Note_on_c, 0, 61, 0
5, 454560, Note_on_c, 0, 61, 100
5, 454800, Note_on_c, 0, 61, 0
5, 455040, Note_on_c, 0, 60, 100
5, 455040, Note_on_c, 0, 61, 100
5, 455040, Note_on_c, 0, 69, 100
5, 455280, Note_on_c, 0, 60, 0
5, 455280, Note_on_c, 0, 61, 0
5, 455280, Note_on_c, 0, 69, 0
5, 455520, Note_on_c, 0, 60, 100
5, 455520, Note_on_c, 0, 61, 100
5, 455760, Note_on_c, 0, 60, 0
5, 455760, Note_on_c, 0, 61, 0
5, 456000, Note_on_c, 0, 61, 100
5, 456240, Note_on_c, 0, 61, 0
5, 456314, Note_on_c, 0, 68, 100
5, 456480, Note_on_c, 0, 61, 100
5, 456554, Note_on_c, 0, 68, 0
5, 456720, Note_on_c, 0, 61, 0
5, 456960, Note_on_c, 0, 60, 100
5, 456960, Note_on_c, 0, 61, 100
5, 457200, Note_on_c, 0, 60, 0
5, 457200, Note_on_c, 0, 61, 0
5, 457440, Note_on_c, 0, 60, 100
5, 457440, Note_on_c, 0, 61, 100
5, 457600, Note_on_c, 0, 69, 100
5, 457680, Note_on_c, 0, 60, 0
5, 457680, Note_on_c, 0, 61, 0
5, 457840, Note_on_c, 0, 69, 0
5, 457920, Note_on_c, 0, 61, 100
5, 458160, Note_on_c, 0, 61, 0
5, 458400, Note_on_c, 0, 61, 100
5, 458640, Note_on_c, 0, 61, 0
5, 458880, Note_on_c, 0, 60, 100
5, 458880, Note_on_c, 0, 61, 100
5, 458880, Note_on_c, 0, 69, 100
5, 459120, Note_on_c, 0, 60, 0
5, 459120, Note_on_c, 0, 61, 0
5, 459360, Note_on_c, 0, 60, 100
5, 459360, Note_on_c, 0, 61, 100
5, 459600, Note_on_c, 0, 60, 0
5, 459600, Note_on_c, 0, 61, 0
5, 459840, Note_on_c, 0, 61, 100
5, 460080, Note_on_c, 0, 61, 0
5, 460320, Note_on_c, 0, 60, 100
5, 460320, Note_on_c, 0, 61, 100
5, 460560, Note_on_c, 0, 69, 0
5, 460560, Note_on_c, 0, 60, 0
5, 460560, Note_on_c, 0, 61, 0
5, 460800, Note_on_c, 0, 68, 100
5, 461280, Note_on_c, 0, 60, 100
5, 461280, Note_on_c, 0, 61, 100
5, 461520, Note_on_c, 0, 60, 0
5, 461520, Note_on_c, 0, 61, 0
5, 461760, Note_on_c, 0, 61, 100
5, 462000, Note_on_c, 0, 61, 0
5, 462240, Note_on_c, 0, 61, 100
5, 462480, Note_on_c, 0, 68, 0
5, 462480, Note_on_c, 0, 61, 0
5, 462720, Note_on_c, 0, 61, 100
5, 462720, Note_on_c, 0, 60, 100
5, 462720, Note_on_c, 0, 67, 100
5, 462960, Note_on_c, 0, 61, 0
5, 462960, Note_on_c, 0, 60, 0
5, 463200, Note_on_c, 0, 61, 100
5, 463200, Note_on_c, 0, 60, 100
5, 463440, Note_on_c, 0, 61, 0
5, 463440, Note_on_c, 0, 60, 0
5, 463680, Note_on_c, 0, 61, 100
5, 463920, Note_on_c, 0, 61, 0
5, 464160, Note_on_c, 0, 61, 100
5, 464400, Note_on_c, 0, 67, 0
5, 464400, Note_on_c, 0, 61, 0
5, 464640, Note_on_c, 0, 61, 100
5, 464640, Note_on_c, 0, 60, 100
5, 464640, Note_on_c, 0, 68, 100
5, 464880, Note_on_c, 0, 61, 0
5, 464880, Note_on_c, 0, 60, 0
5, 465120, Note_on_c, 0, 61, 100
5, 465120, Note_on_c, 0, 60, 100
5, 465360, Note_on_c, 0, 61, 0
5, 465360, Note_on_c, 0, 60, 0
5, 465600, Note_on_c, 0, 61, 100
5, 465840, Note_on_c, 0, 61, 0
5, 466080, Note_on_c, 0, 61, 100
5, 466320, Note_on_c, 0, 68, 0
5, 466320, Note_on_c, 0, 61, 0
5, 466560, Note_on_c, 0, 61, 100
5, 466560, Note_on_c, 0, 60, 100
5, 466560, Note_on_c, 0, 67, 100
5, 466800, Note_on_c, 0, 61, 0
5, 466800, Note_on_c, 0, 60, 0
5, 467040, Note_on_c, 0, 61, 100
5, 467040, Note_on_c, 0, 60, 100
5, 467280, Note_on_c, 0, 61, 0
5, 467280, Note_on_c, 0, 60, 0
5, 467520, Note_on_c, 0, 61, 100
5, 467760, Note_on_c, 0, 61, 0
5, 468000, Note_on_c, 0, 67, 0
5, 468000, Note_on_c, 0, 61, 100
5, 468000, Note_on_c, 0, 60, 100
5, 468240, Note_on_c, 0, 61, 0
5, 468240, Note_on_c, 0, 60, 0
5, 468480, Note_on_c, 0, 68, 100
5, 468720, Note_on_c, 0, 68, 0
5, 468960, Note_on_c, 0, 60, 100
5, 468960, Note_on_c, 0, 61, 100
5, 469200, Note_on_c, 0, 60, 0
5, 469200, Note_on_c, 0, 61, 0
5, 469440, Note_on_c, 0, 61, 100
5, 469680, Note_on_c, 0, 61, 0
5, 469920, Note_on_c, 0, 61, 100
5, 470160, Note_on_c, 0, 61, 0
5, 470400, Note_on_c, 0, 61, 100
5, 470400, Note_on_c, 0, 60, 100
5, 470400, Note_on_c, 0, 68, 100
5, 470640, Note_on_c, 0, 61, 0
5, 470640, Note_on_c, 0, 60, 0
5, 470640, Note_on_c, 0, 68, 0
5, 470880, Note_on_c, 0, 61, 100
5, 470880, Note_on_c, 0, 60, 100
5, 471120, Note_on_c, 0, 61, 0
5, 471120, Note_on_c, 0, 60, 0
5, 471360, Note_on_c, 0, 61, 100
5, 471600, Note_on_c, 0, 61, 0
5, 471840, Note_on_c, 0, 61, 100
5, 472080, Note_on_c, 0, 61, 0
5, 472320, Note_on_c, 0, 61, 100
5, 472320, Note_on_c, 0, 60, 100
5, 472320, Note_on_c, 0, 68, 100
5, 472560, Note_on_c, 0, 61, 0
5, 472560, Note_on_c, 0, 60, 0
5, 472560, Note_on_c, 0, 68, 0
5, 472800, Note_on_c, 0, 61, 100
5, 472800, Note_on_c, 0, 60, 100
5, 473040, Note_on_c, 0, 61, 0
5, 473040, Note_on_c, 0, 60, 0
5, 473280, Note_on_c, 0, 61, 100
5, 473520, Note_on_c, 0, 61, 0
5, 473760, Note_on_c, 0, 61, 100
5, 474000, Note_on_c, 0, 61, 0
5, 474240, Note_on_c, 0, 61, 100
5, 474240, Note_on_c, 0, 60, 100
5, 474240, Note_on_c, 0, 68, 100
5, 474480, Note_on_c, 0, 61, 0
5, 474480, Note_on_c, 0, 60, 0
5, 474480, Note_on_c, 0, 68, 0
5, 474720, Note_on_c, 0, 61, 100
5, 474720, Note_on_c, 0, 60, 100
5, 474960, Note_on_c, 0, 61, 0
5, 474960, Note_on_c, 0, 60, 0
5, 475200, Note_on_c, 0, 61, 100
5, 475200, Note_on_c, 0, 60, 100
5, 475440, Note_on_c, 0, 61, 0
5, 475440, Note_on_c, 0, 60, 0
5, 475680, Note_on_c, 0, 61, 100
5, 475680, Note_on_c, 0, 60, 100
5, 475920, Note_on_c, 0, 61, 0
5, 475920, Note_on_c, 0, 60, 0
5, 476160, Note_on_c, 0, 69, 100
5, 476400, Note_on_c, 0, 69, 0
5, 476640, Note_on_c, 0, 60, 100
5, 476640, Note_on_c, 0, 61, 100
5, 476880, Note_on_c, 0, 60, 0
5, 476880, Note_on_c, 0, 61, 0
5, 477120, Note_on_c, 0, 61, 100
5, 477360, Note_on_c, 0, 61, 0
5, 477600, Note_on_c, 0, 60, 100
5, 477600, Note_on_c, 0, 61, 100
5, 477840, Note_on_c, 0, 60, 0
5, 477840, Note_on_c, 0, 61, 0
5, 478080, Note_on_c, 0, 61, 100
5, 478080, Note_on_c, 0, 69, 100
5, 478320, Note_on_c, 0, 61, 0
5, 478320, Note_on_c, 0, 69, 0
5, 478560, Note_on_c, 0, 60, 100
5, 478560, Note_on_c, 0, 61, 100
5, 478800, Note_on_c, 0, 60, 0
5, 478800, Note_on_c, 0, 61, 0
5, 479040, Note_on_c, 0, 61, 100
5, 479280, Note_on_c, 0, 61, 0
5, 479520, Note_on_c, 0, 60, 100
5, 479520, Note_on_c, 0, 61, 100
5, 479760, Note_on_c, 0, 60, 0
5, 479760, Note_on_c, 0, 61, 0
5, 480000, Note_on_c, 0, 68, 100
5, 480240, Note_on_c, 0, 68, 0
5, 480480, Note_on_c, 0, 60, 100
5, 480480, Note_on_c, 0, 61, 100
5, 480720, Note_on_c, 0, 60, 0
5, 480720, Note_on_c, 0, 61, 0
5, 480960, Note_on_c, 0, 61, 100
5, 481200, Note_on_c, 0, 61, 0
5, 481440, Note_on_c, 0, 60, 100
5, 481440, Note_on_c, 0, 61, 100
5, 481680, Note_on_c, 0, 60, 0
5, 481680, Note_on_c, 0, 61, 0
5, 481920, Note_on_c, 0, 61, 100
5, 481920, Note_on_c, 0, 68, 100
5, 482160, Note_on_c, 0, 61, 0
5, 482160, Note_on_c, 0, 68, 0
5, 482400, Note_on_c, 0, 60, 100
5, 482400, Note_on_c, 0, 61, 100
5, 482640, Note_on_c, 0, 60, 0
5, 482640, Note_on_c, 0, 61, 0
5, 482880, Note_on_c, 0, 61, 100
5, 483120, Note_on_c, 0, 61, 0
5, 483360, Note_on_c, 0, 60, 100
5, 483360, Note_on_c, 0, 61, 100
5, 483360, Note_on_c, 0, 69, 100
5, 483600, Note_on_c, 0, 60, 0
5, 483600, Note_on_c, 0, 61, 0
5, 484080, Note_on_c, 0, 61, 100
5, 484320, Note_on_c, 0, 61, 0
5, 484320, Note_on_c, 0, 60, 100
5, 484320, Note_on_c, 0, 61, 100
5, 484560, Note_on_c, 0, 60, 0
5, 484560, Note_on_c, 0, 61, 0
5, 484800, Note_on_c, 0, 60, 100
5, 484800, Note_on_c, 0, 61, 100
5, 485040, Note_on_c, 0, 60, 0
5, 485040, Note_on_c, 0, 61, 0
5, 485040, Note_on_c, 0, 61, 100
5, 485280, Note_on_c, 0, 61, 0
5, 485280, Note_on_c, 0, 60, 100
5, 485280, Note_on_c, 0, 61, 100
5, 485520, Note_on_c, 0, 60, 0
5, 485520, Note_on_c, 0, 61, 0
5, 485520, Note_on_c, 0, 61, 100
5, 485760, Note_on_c, 0, 61, 0
5, 485760, Note_on_c, 0, 60, 100
5, 485760, Note_on_c, 0, 61, 100
5, 486000, Note_on_c, 0, 60, 0
5, 486000, Note_on_c, 0, 61, 0
5, 486000, Note_on_c, 0, 61, 100
5, 486240, Note_on_c, 0, 61, 0
5, 486240, Note_on_c, 0, 60, 100
5, 486240, Note_on_c, 0, 61, 100
5, 486480, Note_on_c, 0, 60, 0
5, 486480, Note_on_c, 0, 61, 0
5, 486480, Note_on_c, 0, 61, 100
5, 486720, Note_on_c, 0, 61, 0
5, 486960, Note_on_c, 0, 60, 100
5, 486960, Note_on_c, 0, 61, 100
5, 487200, Note_on_c, 0, 60, 0
5, 487200, Note_on_c, 0, 61, 0
5, 487200, Note_on_c, 0, 61, 100
5, 487440, Note_on_c, 0, 61, 0
5, 487440, Note_on_c, 0, 60, 100
5, 487440, Note_on_c, 0, 61, 100
5, 487680, Note_on_c, 0, 60, 0
5, 487680, Note_on_c, 0, 61, 0
5, 487920, Note_on_c, 0, 61, 100
5, 488160, Note_on_c, 0, 61, 0
5, 488160, Note_on_c, 0, 60, 100
5, 488160, Note_on_c, 0, 61, 100
5, 488400, Note_on_c, 0, 60, 0
5, 488400, Note_on_c, 0, 61, 0
5, 488640, Note_on_c, 0, 60, 100
5, 488640, Note_on_c, 0, 61, 100
5, 488880, Note_on_c, 0, 60, 0
5, 488880, Note_on_c, 0, 61, 0
5, 488880, Note_on_c, 0, 61, 100
5, 489120, Note_on_c, 0, 61, 0
5, 489120, Note_on_c, 0, 60, 100
5, 489120, Note_on_c, 0, 61, 100
5, 489360, Note_on_c, 0, 60, 0
5, 489360, Note_on_c, 0, 61, 0
5, 489360, Note_on_c, 0, 61, 100
5, 489600, Note_on_c, 0, 61, 0
5, 489600, Note_on_c, 0, 60, 100
5, 489600, Note_on_c, 0, 61, 100
5, 489840, Note_on_c, 0, 60, 0
5, 489840, Note_on_c, 0, 61, 0
5, 489840, Note_on_c, 0, 61, 100
5, 490080, Note_on_c, 0, 61, 0
5, 490080, Note_on_c, 0, 60, 100
5, 490080, Note_on_c, 0, 61, 100
5, 490320, Note_on_c, 0, 60, 0
5, 490320, Note_on_c, 0, 61, 0
5, 490320, Note_on_c, 0, 61, 100
5, 490560, Note_on_c, 0, 69, 0
5, 490560, Note_on_c, 0, 61, 0
5, 490800, Note_on_c, 0, 60, 100
5, 490800, Note_on_c, 0, 61, 100
5, 491040, Note_on_c, 0, 60, 0
5, 491040, Note_on_c, 0, 61, 0
5, 491040, Note_on_c, 0, 61, 100
5, 491280, Note_on_c, 0, 61, 0
5, 491280, Note_on_c, 0, 60, 100
5, 491280, Note_on_c, 0, 61, 100
5, 491280, Note_on_c, 0, 67, 100
5, 491520, Note_on_c, 0, 60, 0
5, 491520, Note_on_c, 0, 61, 0
5, 491520, Note_on_c, 0, 67, 0
5, 491760, Note_on_c, 0, 61, 100
5, 492000, Note_on_c, 0, 61, 0
5, 492000, Note_on_c, 0, 60, 100
5, 492000, Note_on_c, 0, 61, 100
5, 492000, Note_on_c, 0, 69, 100
5, 492240, Note_on_c, 0, 60, 0
5, 492240, Note_on_c, 0, 61, 0
5, 492240, Note_on_c, 0, 69, 0
5, 492480, Note_on_c, 0, 60, 100
5, 492480, Note_on_c, 0, 61, 100
5, 492480, Note_on_c, 0, 68, 100
5, 492720, Note_on_c, 0, 60, 0
5, 492720, Note_on_c, 0, 61, 0
5, 492720, Note_on_c, 0, 68, 0
5, 492720, Note_on_c, 0, 61, 100
5, 492960, Note_on_c, 0, 61, 0
5, 492960, Note_on_c, 0, 60, 100
5, 492960, Note_on_c, 0, 61, 100
5, 493200, Note_on_c, 0, 60, 0
5, 493200, Note_on_c, 0, 61, 0
5, 493200, Note_on_c, 0, 61, 100
5, 493440, Note_on_c, 0, 61, 0
5, 493440, Note_on_c, 0, 60, 100
5, 493440, Note_on_c, 0, 61, 100
5, 493440, Note_on_c, 0, 69, 100
5, 493680, Note_on_c, 0, 60, 0
5, 493680, Note_on_c, 0, 61, 0
5, 493680, Note_on_c, 0, 69, 0
5, 493680, Note_on_c, 0, 61, 100
5, 493920, Note_on_c, 0, 61, 0
5, 493920, Note_on_c, 0, 60, 100
5, 493920, Note_on_c, 0, 61, 100
5, 494160, Note_on_c, 0, 60, 0
5, 494160, Note_on_c, 0, 61, 0
5, 494160, Note_on_c, 0, 61, 100
5, 494400, Note_on_c, 0, 61, 0
5, 494640, Note_on_c, 0, 60, 100
5, 494640, Note_on_c, 0, 61, 100
5, 494640, Note_on_c, 0, 68, 100
5, 494880, Note_on_c, 0, 60, 0
5, 494880, Note_on_c, 0, 61, 0
5, 494880, Note_on_c, 0, 68, 0
5, 494880, Note_on_c, 0, 61, 100
5, 495120, Note_on_c, 0, 61, 0
5, 495120, Note_on_c, 0, 60, 100
5, 495120, Note_on_c, 0, 61, 100
5, 495120, Note_on_c, 0, 67, 100
5, 495360, Note_on_c, 0, 60, 0
5, 495360, Note_on_c, 0, 61, 0
5, 495360, Note_on_c, 0, 67, 0
5, 495600, Note_on_c, 0, 61, 100
5, 495840, Note_on_c, 0, 61, 0
5, 495840, Note_on_c, 0, 60, 100
5, 495840, Note_on_c, 0, 61, 100
5, 495840, Note_on_c, 0, 69, 100
5, 496080, Note_on_c, 0, 60, 0
5, 496080, Note_on_c, 0, 61, 0
5, 496080, Note_on_c, 0, 69, 0
5, 496320, Note_on_c, 0, 60, 100
5, 496320, Note_on_c, 0, 61, 100
5, 496320, Note_on_c, 0, 68, 100
5, 496560, Note_on_c, 0, 60, 0
5, 496560, Note_on_c, 0, 61, 0
5, 496560, Note_on_c, 0, 68, 0
5, 496560, Note_on_c, 0, 61, 100
5, 496800, Note_on_c, 0, 61, 0
5, 496800, Note_on_c, 0, 60, 100
5, 496800, Note_on_c, 0, 61, 100
5, 497040, Note_on_c, 0, 60, 0
5, 497040, Note_on_c, 0, 61, 0
5, 497040, Note_on_c, 0, 61, 100
5, 497280, Note_on_c, 0, 61, 0
5, 497280, Note_on_c, 0, 60, 100
5, 497280, Note_on_c, 0, 61, 100
5, 497280, Note_on_c, 0, 67, 100
5, 497520, Note_on_c, 0, 60, 0
5, 497520, Note_on_c, 0, 61, 0
5, 497520, Note_on_c, 0, 67, 0
5, 497520, Note_on_c, 0, 61, 100
5, 497760, Note_on_c, 0, 61, 0
5, 497760, Note_on_c, 0, 61, 100
5, 497760, Note_on_c, 0, 67, 100
5, 498000, Note_on_c, 0, 61, 0
5, 498000, Note_on_c, 0, 67, 0
5, 498000, Note_on_c, 0, 61, 100
5, 498240, Note_on_c, 0, 61, 0
5, 498240, Note_on_c, 0, 61, 100
5, 498480, Note_on_c, 0, 61, 0
5, 498480, Note_on_c, 0, 61, 100
5, 498480, Note_on_c, 0, 67, 100
5, 498720, Note_on_c, 0, 61, 0
5, 498720, Note_on_c, 0, 67, 0
5, 498720, Note_on_c, 0, 61, 100
5, 498960, Note_on_c, 0, 61, 0
5, 498960, Note_on_c, 0, 60, 100
5, 498960, Note_on_c, 0, 61, 100
5, 498960, Note_on_c, 0, 67, 100
5, 499200, Note_on_c, 0, 60, 0
5, 499200, Note_on_c, 0, 61, 0
5, 499200, Note_on_c, 0, 67, 0
5, 505440, Note_on_c, 0, 60, 100
5, 505680, Note_on_c, 0, 60, 0
5, 506400, Note_on_c, 0, 60, 100
5, 506400, Note_on_c, 0, 61, 100
5, 506400, Note_on_c, 0, 68, 100
5, 506640, Note_on_c, 0, 60, 0
5, 506640, Note_on_c, 0, 61, 0
5, 507360, Note_on_c, 0, 60, 100
5, 507360, Note_on_c, 0, 61, 100
5, 507600, Note_on_c, 0, 60, 0
5, 507600, Note_on_c, 0, 61, 0
5, 507840, Note_on_c, 0, 61, 100
5, 508080, Note_on_c, 0, 61, 0
5, 508320, Note_on_c, 0, 61, 100
5, 508560, Note_on_c, 0, 61, 0
5, 508800, Note_on_c, 0, 60, 100
5, 508800, Note_on_c, 0, 61, 100
5, 509040, Note_on_c, 0, 60, 0
5, 509040, Note_on_c, 0, 61, 0
5, 509280, Note_on_c, 0, 60, 100
5, 509280, Note_on_c, 0, 61, 100
5, 509520, Note_on_c, 0, 60, 0
5, 509520, Note_on_c, 0, 61, 0
5, 509760, Note_on_c, 0, 61, 100
5, 510000, Note_on_c, 0, 68, 0
5, 510000, Note_on_c, 0, 61, 0
5, 510240, Note_on_c, 0, 61, 100
5, 510240, Note_on_c, 0, 60, 100
5, 510240, Note_on_c, 0, 69, 100
5, 510480, Note_on_c, 0, 61, 0
5, 510480, Note_on_c, 0, 60, 0
5, 511200, Note_on_c, 0, 60, 100
5, 511200, Note_on_c, 0, 61, 100
5, 511440, Note_on_c, 0, 60, 0
5, 511440, Note_on_c, 0, 61, 0
5, 511680, Note_on_c, 0, 61, 100
5, 511920, Note_on_c, 0, 61, 0
5, 512160, Note_on_c, 0, 61, 100
5, 512400, Note_on_c, 0, 61, 0
5, 512640, Note_on_c, 0, 60, 100
5, 512640, Note_on_c, 0, 61, 100
5, 512880, Note_on_c, 0, 60, 0
5, 512880, Note_on_c, 0, 61, 0
5, 513120, Note_on_c, 0, 60, 100
5, 513120, Note_on_c, 0, 61, 100
5, 513360, Note_on_c, 0, 60, 0
5, 513360, Note_on_c, 0, 61, 0
5, 513600, Note_on_c, 0, 61, 100
5, 513840, Note_on_c, 0, 69, 0
5, 513840, Note_on_c, 0, 61, 0
5, 514080, Note_on_c, 0, 60, 100
5, 514080, Note_on_c, 0, 61, 100
5, 514080, Note_on_c, 0, 67, 100
5, 514320, Note_on_c, 0, 60, 0
5, 514320, Note_on_c, 0, 61, 0
5, 515040, Note_on_c, 0, 60, 100
5, 515040, Note_on_c, 0, 61, 100
5, 515280, Note_on_c, 0, 60, 0
5, 515280, Note_on_c, 0, 61, 0
5, 515520, Note_on_c, 0, 61, 100
5, 515760, Note_on_c, 0, 61, 0
5, 516000, Note_on_c, 0, 61, 100
5, 516240, Note_on_c, 0, 61, 0
5, 516480, Note_on_c, 0, 61, 100
5, 516480, Note_on_c, 0, 60, 100
5, 516720, Note_on_c, 0, 61, 0
5, 516720, Note_on_c, 0, 60, 0
5, 516960, Note_on_c, 0, 61, 100
5, 516960, Note_on_c, 0, 60, 100
5, 517200, Note_on_c, 0, 61, 0
5, 517200, Note_on_c, 0, 60, 0
5, 517440, Note_on_c, 0, 61, 100
5, 517680, Note_on_c, 0, 67, 0
5, 517680, Note_on_c, 0, 61, 0
5, 517920, Note_on_c, 0, 61, 100
5, 517920, Note_on_c, 0, 60, 100
5, 517920, Note_on_c, 0, 68, 100
5, 518160, Note_on_c, 0, 61, 0
5, 518160, Note_on_c, 0, 60, 0
5, 518880, Note_on_c, 0, 61, 100
5, 518880, Note_on_c, 0, 60, 100
5, 519120, Note_on_c, 0, 61, 0
5, 519120, Note_on_c, 0, 60, 0
5, 519360, Note_on_c, 0, 61, 100
5, 519600, Note_on_c, 0, 61, 0
5, 519840, Note_on_c, 0, 61, 100
5, 520080, Note_on_c, 0, 61, 0
5, 520320, Note_on_c, 0, 61, 100
5, 520320, Note_on_c, 0, 60, 100
5, 520560, Note_on_c, 0, 61, 0
5, 520560, Note_on_c, 0, 60, 0
5, 520800, Note_on_c, 0, 61, 100
5, 520800, Note_on_c, 0, 60, 100
5, 521040, Note_on_c, 0, 61, 0
5, 521040, Note_on_c, 0, 60, 0
5, 521280, Note_on_c, 0, 61, 100
5, 521520, Note_on_c, 0, 68, 0
5, 521520, Note_on_c, 0, 61, 0
5, 521760, Note_on_c, 0, 61, 100
5, 521760, Note_on_c, 0, 60, 100
5, 521760, Note_on_c, 0, 68, 100
5, 522000, Note_on_c, 0, 61, 0
5, 522000, Note_on_c, 0, 60, 0
5, 522720, Note_on_c, 0, 60, 100
5, 522720, Note_on_c, 0, 61, 100
5, 522960, Note_on_c, 0, 60, 0
5, 522960, Note_on_c, 0, 61, 0
5, 523200, Note_on_c, 0, 61, 100
5, 523440, Note_on_c, 0, 61, 0
5, 523680, Note_on_c, 0, 61, 100
5, 523920, Note_on_c, 0, 61, 0
5, 524160, Note_on_c, 0, 61, 100
5, 524160, Note_on_c, 0, 60, 100
5, 524400, Note_on_c, 0, 61, 0
5, 524400, Note_on_c, 0, 60, 0
5, 524640, Note_on_c, 0, 61, 100
5, 524640, Note_on_c, 0, 60, 100
5, 524880, Note_on_c, 0, 61, 0
5, 524880, Note_on_c, 0, 60, 0
5, 525120, Note_on_c, 0, 61, 100
5, 525360, Note_on_c, 0, 68, 0
5, 525360, Note_on_c, 0, 61, 0
5, 525600, Note_on_c, 0, 61, 100
5, 525600, Note_on_c, 0, 60, 100
5, 525600, Note_on_c, 0, 69, 100
5, 525840, Note_on_c, 0, 61, 0
5, 525840, Note_on_c, 0, 60, 0
5, 526560, Note_on_c, 0, 61, 100
5, 526560, Note_on_c, 0, 60, 100
5, 526800, Note_on_c, 0, 61, 0
5, 526800, Note_on_c, 0, 60, 0
5, 527040, Note_on_c, 0, 61, 100
5, 527280, Note_on_c, 0, 61, 0
5, 527520, Note_on_c, 0, 61, 100
5, 527760, Note_on_c, 0, 61, 0
5, 528000, Note_on_c, 0, 61, 100
5, 528000, Note_on_c, 0, 60, 100
5, 528240, Note_on_c, 0, 61, 0
5, 528240, Note_on_c, 0, 60, 0
5, 528480, Note_on_c, 0, 61, 100
5, 528480, Note_on_c, 0, 60, 100
5, 528720, Note_on_c, 0, 61, 0
5, 528720, Note_on_c, 0, 60, 0
5, 528960, Note_on_c, 0, 61, 100
5, 529200, Note_on_c, 0, 69, 0
5, 529200, Note_on_c, 0, 61, 0
5, 529440, Note_on_c, 0, 61, 100
5, 529440, Note_on_c, 0, 60, 100
5, 529440, Note_on_c, 0, 68, 100
5, 529680, Note_on_c, 0, 61, 0
5, 529680, Note_on_c, 0, 60, 0
5, 530400, Note_on_c, 0, 61, 100
5, 530400, Note_on_c, 0, 60, 100
5, 530640, Note_on_c, 0, 61, 0
5, 530640, Note_on_c, 0, 60, 0
5, 530880, Note_on_c, 0, 61, 100
5, 531120, Note_on_c, 0, 61, 0
5, 531840, Note_on_c, 0, 60, 100
5, 531840, Note_on_c, 0, 61, 100
5, 532080, Note_on_c, 0, 60, 0
5, 532080, Note_on_c, 0, 61, 0
5, 532320, Note_on_c, 0, 60, 100
5, 532320, Note_on_c, 0, 61, 100
5, 532560, Note_on_c, 0, 60, 0
5, 532560, Note_on_c, 0, 61, 0
5, 532800, Note_on_c, 0, 61, 100
5, 533040, Note_on_c, 0, 68, 0
5, 533040, Note_on_c, 0, 61, 0
5, 533280, Note_on_c, 0, 60, 100
5, 533280, Note_on_c, 0, 61, 100
5, 533280, Note_on_c, 0, 67, 100
5, 533520, Note_on_c, 0, 60, 0
5, 533520, Note_on_c, 0, 61, 0
5, 536880, Note_on_c, 0, 67, 0
5, 537120, Note_on_c, 0, 60, 100
5, 537120, Note_on_c, 0, 61, 100
5, 537120, Note_on_c, 0, 68, 100
5, 537360, Note_on_c, 0, 60, 0
5, 537360, Note_on_c, 0, 61, 0
5, 538080, Note_on_c, 0, 60, 100
5, 538080, Note_on_c, 0, 61, 100
5, 538320, Note_on_c, 0, 60, 0
5, 538320, Note_on_c, 0, 61, 0
5, 538560, Note_on_c, 0, 61, 100
5, 538800, Note_on_c, 0, 61, 0
5, 539040, Note_on_c, 0, 61, 100
5, 539280, Note_on_c, 0, 61, 0
5, 539520, Note_on_c, 0, 60, 100
5, 539520, Note_on_c, 0, 61, 100
5, 539760, Note_on_c, 0, 60, 0
5, 539760, Note_on_c, 0, 61, 0
5, 540000, Note_on_c, 0, 60, 100
5, 540000, Note_on_c, 0, 61, 100
5, 540240, Note_on_c, 0, 60, 0
5, 540240, Note_on_c, 0, 61, 0
5, 540480, Note_on_c, 0, 61, 100
5, 540720, Note_on_c, 0, 68, 0
5, 540720, Note_on_c, 0, 61, 0
5, 540960, Note_on_c, 0, 61, 100
5, 540960, Note_on_c, 0, 60, 100
5, 540960, Note_on_c, 0, 69, 100
5, 541200, Note_on_c, 0, 61, 0
5, 541200, Note_on_c, 0, 60, 0
5, 541920, Note_on_c, 0, 60, 100
5, 541920, Note_on_c, 0, 61, 100
5, 542160, Note_on_c, 0, 60, 0
5, 542160, Note_on_c, 0, 61, 0
5, 542400, Note_on_c, 0, 61, 100
5, 542640, Note_on_c, 0, 61, 0
5, 542880, Note_on_c, 0, 61, 100
5, 543120, Note_on_c, 0, 61, 0
5, 543360, Note_on_c, 0, 60, 100
5, 543360, Note_on_c, 0, 61, 100
5, 543600, Note_on_c, 0, 60, 0
5, 543600, Note_on_c, 0, 61, 0
5, 543840, Note_on_c, 0, 60, 100
5, 543840, Note_on_c, 0, 61, 100
5, 544080, Note_on_c, 0, 60, 0
5, 544080, Note_on_c, 0, 61, 0
5, 544320, Note_on_c, 0, 61, 100
5, 544560, Note_on_c, 0, 69, 0
5, 544560, Note_on_c, 0, 61, 0
5, 544800, Note_on_c, 0, 60, 100
5, 544800, Note_on_c, 0, 61, 100
5, 544800, Note_on_c, 0, 67, 100
5, 545040, Note_on_c, 0, 60, 0
5, 545040, Note_on_c, 0, 61, 0
5, 545760, Note_on_c, 0, 60, 100
5, 545760, Note_on_c, 0, 61, 100
5, 546000, Note_on_c, 0, 60, 0
5, 546000, Note_on_c, 0, 61, 0
5, 546240, Note_on_c, 0, 61, 100
5, 546480, Note_on_c, 0, 61, 0
5, 546720, Note_on_c, 0, 61, 100
5, 546960, Note_on_c, 0, 61, 0
5, 547200, Note_on_c, 0, 61, 100
5, 547200, Note_on_c, 0, 60, 100
5, 547440, Note_on_c, 0, 61, 0
5, 547440, Note_on_c, 0, 60, 0
5, 547680, Note_on_c, 0, 61, 100
5, 547680, Note_on_c, 0, 60, 100
5, 547920, Note_on_c, 0, 61, 0
5, 547920, Note_on_c, 0, 60, 0
5, 548160, Note_on_c, 0, 61, 100
5, 548400, Note_on_c, 0, 67, 0
5, 548400, Note_on_c, 0, 61, 0
5, 548640, Note_on_c, 0, 61, 100
5, 548640, Note_on_c, 0, 60, 100
5, 548640, Note_on_c, 0, 68, 100
5, 548880, Note_on_c, 0, 61, 0
5, 548880, Note_on_c, 0, 60, 0
5, 549600, Note_on_c, 0, 61, 100
5, 549600, Note_on_c, 0, 60, 100
5, 549840, Note_on_c, 0, 61, 0
5, 549840, Note_on_c, 0, 60, 0
5, 550080, Note_on_c, 0, 61, 100
5, 550320, Note_on_c, 0, 61, 0
5, 550560, Note_on_c, 0, 61, 100
5, 550800, Note_on_c, 0, 61, 0
5, 551040, Note_on_c, 0, 61, 100
5, 551040, Note_on_c, 0, 60, 100
5, 551280, Note_on_c, 0, 61, 0
5, 551280, Note_on_c, 0, 60, 0
5, 551520, Note_on_c, 0, 61, 100
5, 551520, Note_on_c, 0, 60, 100
5, 551760, Note_on_c, 0, 61, 0
5, 551760, Note_on_c, 0, 60, 0
5, 552000, Note_on_c, 0, 61, 100
5, 552240, Note_on_c, 0, 68, 0
5, 552240, Note_on_c, 0, 61, 0
5, 552480, Note_on_c, 0, 61, 100
5, 552480, Note_on_c, 0, 60, 100
5, 552480, Note_on_c, 0, 68, 100
5, 552720, Note_on_c, 0, 61, 0
5, 552720, Note_on_c, 0, 60, 0
5, 553440, Note_on_c, 0, 60, 100
5, 553440, Note_on_c, 0, 61, 100
5, 553680, Note_on_c, 0, 60, 0
5, 553680, Note_on_c, 0, 61, 0
5, 553920, Note_on_c, 0, 61, 100
5, 554160, Note_on_c, 0, 61, 0
5, 554400, Note_on_c, 0, 61, 100
5, 554640, Note_on_c, 0, 61, 0
5, 554880, Note_on_c, 0, 61, 100
5, 554880, Note_on_c, 0, 60, 100
5, 555120, Note_on_c, 0, 61, 0
5, 555120, Note_on_c, 0, 60, 0
5, 555360, Note_on_c, 0, 61, 100
5, 555360, Note_on_c, 0, 60, 100
5, 555600, Note_on_c, 0, 61, 0
5, 555600, Note_on_c, 0, 60, 0
5, 555840, Note_on_c, 0, 61, 100
5, 556080, Note_on_c, 0, 68, 0
5, 556080, Note_on_c, 0, 61, 0
5, 556320, Note_on_c, 0, 61, 100
5, 556320, Note_on_c, 0, 60, 100
5, 556320, Note_on_c, 0, 69, 100
5, 556560, Note_on_c, 0, 61, 0
5, 556560, Note_on_c, 0, 60, 0
5, 557280, Note_on_c, 0, 61, 100
5, 557280, Note_on_c, 0, 60, 100
5, 557520, Note_on_c, 0, 61, 0
5, 557520, Note_on_c, 0, 60, 0
5, 557760, Note_on_c, 0, 61, 100
5, 558000, Note_on_c, 0, 61, 0
5, 558240, Note_on_c, 0, 61, 100
5, 558480, Note_on_c, 0, 61, 0
5, 558720, Note_on_c, 0, 61, 100
5, 558720, Note_on_c, 0, 60, 100
5, 558960, Note_on_c, 0, 61, 0
5, 558960, Note_on_c, 0, 60, 0
5, 559200, Note_on_c, 0, 61, 100
5, 559200, Note_on_c, 0, 60, 100
5, 559440, Note_on_c, 0, 61, 0
5, 559440, Note_on_c, 0, 60, 0
5, 559680, Note_on_c, 0, 61, 100
5, 559920, Note_on_c, 0, 69, 0
5, 559920, Note_on_c, 0, 61, 0
5, 560160, Note_on_c, 0, 61, 100
5, 560160, Note_on_c, 0, 60, 100
5, 560160, Note_on_c, 0, 68, 100
5, 560400, Note_on_c, 0, 61, 0
5, 560400, Note_on_c, 0, 60, 0
5, 561120, Note_on_c, 0, 61, 100
5, 561120, Note_on_c, 0, 60, 100
5, 561360, Note_on_c, 0, 61, 0
5, 561360, Note_on_c, 0, 60, 0
5, 561600, Note_on_c, 0, 61, 100
5, 561840, Note_on_c, 0, 61, 0
5, 562560, Note_on_c, 0, 60, 100
5, 562560, Note_on_c, 0, 61, 100
5, 562800, Note_on_c, 0, 60, 0
5, 562800, Note_on_c, 0, 61, 0
5, 563040, Note_on_c, 0, 60, 100
5, 563040, Note_on_c, 0, 61, 100
5, 563280, Note_on_c, 0, 60, 0
5, 563280, Note_on_c, 0, 61, 0
5, 563520, Note_on_c, 0, 61, 100
5, 563760, Note_on_c, 0, 68, 0
5, 563760, Note_on_c, 0, 61, 0
5, 564000, Note_on_c, 0, 60, 100
5, 564000, Note_on_c, 0, 61, 100
5, 564000, Note_on_c, 0, 67, 100
5, 564240, Note_on_c, 0, 60, 0
5, 564240, Note_on_c, 0, 61, 0
5, 567600, Note_on_c, 0, 67, 0
5, 567840, Note_on_c, 0, 60, 100
5, 567840, Note_on_c, 0, 61, 100
5, 567840, Note_on_c, 0, 68, 100
5, 568080, Note_on_c, 0, 60, 0
5, 568080, Note_on_c, 0, 61, 0
5, 568800, Note_on_c, 0, 60, 100
5, 568800, Note_on_c, 0, 61, 100
5, 569040, Note_on_c, 0, 60, 0
5, 569040, Note_on_c, 0, 61, 0
5, 569280, Note_on_c, 0, 61, 100
5, 569520, Note_on_c, 0, 61, 0
5, 569760, Note_on_c, 0, 61, 100
5, 570000, Note_on_c, 0, 61, 0
5, 570240, Note_on_c, 0, 60, 100
5, 570240, Note_on_c, 0, 61, 100
5, 570480, Note_on_c, 0, 60, 0
5, 570480, Note_on_c, 0, 61, 0
5, 570720, Note_on_c, 0, 60, 100
5, 570720, Note_on_c, 0, 61, 100
5, 570960, Note_on_c, 0, 60, 0
5, 570960, Note_on_c, 0, 61, 0
5, 571200, Note_on_c, 0, 61, 100
5, 571440, Note_on_c, 0, 68, 0
5, 571440, Note_on_c, 0, 61, 0
5, 571680, Note_on_c, 0, 61, 100
5, 571680, Note_on_c, 0, 60, 100
5, 571680, Note_on_c, 0, 69, 100
5, 571920, Note_on_c, 0, 61, 0
5, 571920, Note_on_c, 0, 60, 0
5, 572640, Note_on_c, 0, 60, 100
5, 572640, Note_on_c, 0, 61, 100
5, 572880, Note_on_c, 0, 60, 0
5, 572880, Note_on_c, 0, 61, 0
5, 573120, Note_on_c, 0, 61, 100
5, 573360, Note_on_c, 0, 61, 0
5, 573600, Note_on_c, 0, 61, 100
5, 573840, Note_on_c, 0, 61, 0
5, 574080, Note_on_c, 0, 60, 100
5, 574080, Note_on_c, 0, 61, 100
5, 574320, Note_on_c, 0, 60, 0
5, 574320, Note_on_c, 0, 61, 0
5, 574560, Note_on_c, 0, 60, 100
5, 574560, Note_on_c, 0, 61, 100
5, 574800, Note_on_c, 0, 60, 0
5, 574800, Note_on_c, 0, 61, 0
5, 575040, Note_on_c, 0, 61, 100
5, 575280, Note_on_c, 0, 69, 0
5, 575280, Note_on_c, 0, 61, 0
5, 575520, Note_on_c, 0, 60, 100
5, 575520, Note_on_c, 0, 61, 100
5, 575520, Note_on_c, 0, 67, 100
5, 575760, Note_on_c, 0, 60, 0
5, 575760, Note_on_c, 0, 61, 0
5, 576480, Note_on_c, 0, 60, 100
5, 576480, Note_on_c, 0, 61, 100
5, 576720, Note_on_c, 0, 60, 0
5, 576720, Note_on_c, 0, 61, 0
5, 576960, Note_on_c, 0, 61, 100
5, 577200, Note_on_c, 0, 61, 0
5, 577440, Note_on_c, 0, 61, 100
5, 577680, Note_on_c, 0, 61, 0
5, 577920, Note_on_c, 0, 61, 100
5, 577920, Note_on_c, 0, 60, 100
5, 578160, Note_on_c, 0, 61, 0
5, 578160, Note_on_c, 0, 60, 0
5, 578400, Note_on_c, 0, 61, 100
5, 578400, Note_on_c, 0, 60, 100
5, 578640, Note_on_c, 0, 61, 0
5, 578640, Note_on_c, 0, 60, 0
5, 578880, Note_on_c, 0, 61, 100
5, 579120, Note_on_c, 0, 67, 0
5, 579120, Note_on_c, 0, 61, 0
5, 579360, Note_on_c, 0, 61, 100
5, 579360, Note_on_c, 0, 60, 100
5, 579360, Note_on_c, 0, 68, 100
5, 579600, Note_on_c, 0, 61, 0
5, 579600, Note_on_c, 0, 60, 0
5, 580320, Note_on_c, 0, 61, 100
5, 580320, Note_on_c, 0, 60, 100
5, 580560, Note_on_c, 0, 61, 0
5, 580560, Note_on_c, 0, 60, 0
5, 580800, Note_on_c, 0, 61, 100
5, 581040, Note_on_c, 0, 61, 0
5, 581280, Note_on_c, 0, 61, 100
5, 581520, Note_on_c, 0, 61, 0
5, 581760, Note_on_c, 0, 61, 100
5, 581760, Note_on_c, 0, 60, 100
5, 582000, Note_on_c, 0, 61, 0
5, 582000, Note_on_c, 0, 60, 0
5, 582240, Note_on_c, 0, 61, 100
5, 582240, Note_on_c, 0, 60, 100
5, 582480, Note_on_c, 0, 61, 0
5, 582480, Note_on_c, 0, 60, 0
5, 582720, Note_on_c, 0, 61, 100
5, 582960, Note_on_c, 0, 68, 0
5, 582960, Note_on_c, 0, 61, 0
5, 583200, Note_on_c, 0, 61, 100
5, 583200, Note_on_c, 0, 60, 100
5, 583200, Note_on_c, 0, 68, 100
5, 583440, Note_on_c, 0, 61, 0
5, 583440, Note_on_c, 0, 60, 0
5, 584160, Note_on_c, 0, 60, 100
5, 584160, Note_on_c, 0, 61, 100
5, 584400, Note_on_c, 0, 60, 0
5, 584400, Note_on_c, 0, 61, 0
5, 584640, Note_on_c, 0, 61, 100
5, 584880, Note_on_c, 0, 61, 0
5, 585120, Note_on_c, 0, 61, 100
5, 585360, Note_on_c, 0, 61, 0
5, 585600, Note_on_c, 0, 61, 100
5, 585600, Note_on_c, 0, 60, 100
5, 585840, Note_on_c, 0, 61, 0
5, 585840, Note_on_c, 0, 60, 0
5, 586080, Note_on_c, 0, 61, 100
5, 586080, Note_on_c, 0, 60, 100
5, 586320, Note_on_c, 0, 61, 0
5, 586320, Note_on_c, 0, 60, 0
5, 586560, Note_on_c, 0, 61, 100
5, 586800, Note_on_c, 0, 68, 0
5, 586800, Note_on_c, 0, 61, 0
5, 587040, Note_on_c, 0, 61, 100
5, 587040, Note_on_c, 0, 60, 100
5, 587040, Note_on_c, 0, 69, 100
5, 587280, Note_on_c, 0, 61, 0
5, 587280, Note_on_c, 0, 60, 0
5, 588000, Note_on_c, 0, 61, 100
5, 588000, Note_on_c, 0, 60, 100
5, 588240, Note_on_c, 0, 61, 0
5, 588240, Note_on_c, 0, 60, 0
5, 588480, Note_on_c, 0, 61, 100
5, 588720, Note_on_c, 0, 61, 0
5, 588960, Note_on_c, 0, 61, 100
5, 589200, Note_on_c, 0, 61, 0
5, 589440, Note_on_c, 0, 61, 100
5, 589440, Note_on_c, 0, 60, 100
5, 589680, Note_on_c, 0, 61, 0
5, 589680, Note_on_c, 0, 60, 0
5, 589920, Note_on_c, 0, 61, 100
5, 589920, Note_on_c, 0, 60, 100
5, 590160, Note_on_c, 0, 61, 0
5, 590160, Note_on_c, 0, 60, 0
5, 590400, Note_on_c, 0, 61, 100
5, 590640, Note_on_c, 0, 69, 0
5, 590640, Note_on_c, 0, 61, 0
5, 590880, Note_on_c, 0, 61, 100
5, 590880, Note_on_c, 0, 60, 100
5, 590880, Note_on_c, 0, 68, 100
5, 591120, Note_on_c, 0, 61, 0
5, 591120, Note_on_c, 0, 60, 0
5, 591840, Note_on_c, 0, 61, 100
5, 591840, Note_on_c, 0, 60, 100
5, 592080, Note_on_c, 0, 61, 0
5, 592080, Note_on_c, 0, 60, 0
5, 592320, Note_on_c, 0, 61, 100
5, 592560, Note_on_c, 0, 61, 0
5, 593280, Note_on_c, 0, 60, 100
5, 593280, Note_on_c, 0, 61, 100
5, 593520, Note_on_c, 0, 60, 0
5, 593520, Note_on_c, 0, 61, 0
5, 593760, Note_on_c, 0, 60, 100
5, 593760, Note_on_c, 0, 61, 100
5, 594000, Note_on_c, 0, 60, 0
5, 594000, Note_on_c, 0, 61, 0
5, 594240, Note_on_c, 0, 61, 100
5, 594480, Note_on_c, 0, 68, 0
5, 594480, Note_on_c, 0, 61, 0
5, 594720, Note_on_c, 0, 60, 100
5, 594720, Note_on_c, 0, 61, 100
5, 594720, Note_on_c, 0, 67, 100
5, 594960, Note_on_c, 0, 60, 0
5, 594960, Note_on_c, 0, 61, 0
5, 595680, Note_on_c, 0, 60, 100
5, 595680, Note_on_c, 0, 61, 100
5, 595920, Note_on_c, 0, 60, 0
5, 595920, Note_on_c, 0, 61, 0
5, 596160, Note_on_c, 0, 61, 100
5, 596400, Note_on_c, 0, 61, 0
5, 597120, Note_on_c, 0, 60, 100
5, 597120, Note_on_c, 0, 61, 100
5, 597360, Note_on_c, 0, 60, 0
5, 597360, Note_on_c, 0, 61, 0
5, 597600, Note_on_c, 0, 60, 100
5, 597600, Note_on_c, 0, 61, 100
5, 597840, Note_on_c, 0, 60, 0
5, 597840, Note_on_c, 0, 61, 0
5, 598080, Note_on_c, 0, 61, 100
5, 598320, Note_on_c, 0, 67, 0
5, 598320, Note_on_c, 0, 61, 0
5, 598560, Note_on_c, 0, 60, 100
5, 598560, Note_on_c, 0, 61, 100
5, 598560, Note_on_c, 0, 68, 100
5, 598800, Note_on_c, 0, 60, 0
5, 598800, Note_on_c, 0, 61, 0
5, 599520, Note_on_c, 0, 60, 100
5, 599520, Note_on_c, 0, 61, 100
5, 599760, Note_on_c, 0, 60, 0
5, 599760, Note_on_c, 0, 61, 0
5, 600000, Note_on_c, 0, 61, 100
5, 600240, Note_on_c, 0, 61, 0
5, 600480, Note_on_c, 0, 61, 100
5, 600720, Note_on_c, 0, 61, 0
5, 600960, Note_on_c, 0, 60, 100
5, 600960, Note_on_c, 0, 61, 100
5, 601200, Note_on_c, 0, 60, 0
5, 601200, Note_on_c, 0, 61, 0
5, 601440, Note_on_c, 0, 60, 100
5, 601440, Note_on_c, 0, 61, 100
5, 601680, Note_on_c, 0, 60, 0
5, 601680, Note_on_c, 0, 61, 0
5, 601920, Note_on_c, 0, 61, 100
5, 602160, Note_on_c, 0, 68, 0
5, 602160, Note_on_c, 0, 61, 0
5, 602400, Note_on_c, 0, 61, 100
5, 602400, Note_on_c, 0, 60, 100
5, 602400, Note_on_c, 0, 69, 100
5, 602640, Note_on_c, 0, 61, 0
5, 602640, Note_on_c, 0, 60, 0
5, 603360, Note_on_c, 0, 60, 100
5, 603360, Note_on_c, 0, 61, 100
5, 603600, Note_on_c, 0, 60, 0
5, 603600, Note_on_c, 0, 61, 0
5, 603840, Note_on_c, 0, 61, 100
5, 604080, Note_on_c, 0, 61, 0
5, 604320, Note_on_c, 0, 61, 100
5, 604560, Note_on_c, 0, 61, 0
5, 604800, Note_on_c, 0, 60, 100
5, 604800, Note_on_c, 0, 61, 100
5, 605040, Note_on_c, 0, 60, 0
5, 605040, Note_on_c, 0, 61, 0
5, 605280, Note_on_c, 0, 60, 100
5, 605280, Note_on_c, 0, 61, 100
5, 605520, Note_on_c, 0, 60, 0
5, 605520, Note_on_c, 0, 61, 0
5, 605760, Note_on_c, 0, 61, 100
5, 606000, Note_on_c, 0, 69, 0
5, 606000, Note_on_c, 0, 61, 0
5, 606240, Note_on_c, 0, 60, 100
5, 606240, Note_on_c, 0, 61, 100
5, 606240, Note_on_c, 0, 67, 100
5, 606480, Note_on_c, 0, 60, 0
5, 606480, Note_on_c, 0, 61, 0
5, 607200, Note_on_c, 0, 60, 100
5, 607200, Note_on_c, 0, 61, 100
5, 607440, Note_on_c, 0, 60, 0
5, 607440, Note_on_c, 0, 61, 0
5, 607680, Note_on_c, 0, 61, 100
5, 607920, Note_on_c, 0, 61, 0
5, 608160, Note_on_c, 0, 61, 100
5, 608400, Note_on_c, 0, 61, 0
5, 608640, Note_on_c, 0, 61, 100
5, 608640, Note_on_c, 0, 60, 100
5, 608880, Note_on_c, 0, 61, 0
5, 608880, Note_on_c, 0, 60, 0
5, 609120, Note_on_c, 0, 61, 100
5, 609120, Note_on_c, 0, 60, 100
5, 609360, Note_on_c, 0, 61, 0
5, 609360, Note_on_c, 0, 60, 0
5, 609600, Note_on_c, 0, 61, 100
5, 609840, Note_on_c, 0, 67, 0
5, 609840, Note_on_c, 0, 61, 0
5, 610080, Note_on_c, 0, 61, 100
5, 610080, Note_on_c, 0, 60, 100
5, 610080, Note_on_c, 0, 68, 100
5, 610320, Note_on_c, 0, 61, 0
5, 610320, Note_on_c, 0, 60, 0
5, 611040, Note_on_c, 0, 61, 100
5, 611040, Note_on_c, 0, 60, 100
5, 611280, Note_on_c, 0, 61, 0
5, 611280, Note_on_c, 0, 60, 0
5, 611520, Note_on_c, 0, 61, 100
5, 611760, Note_on_c, 0, 61, 0
5, 612000, Note_on_c, 0, 61, 100
5, 612240, Note_on_c, 0, 61, 0
5, 612480, Note_on_c, 0, 61, 100
5, 612480, Note_on_c, 0, 60, 100
5, 612720, Note_on_c, 0, 61, 0
5, 612720, Note_on_c, 0, 60, 0
5, 612960, Note_on_c, 0, 61, 100
5, 612960, Note_on_c, 0, 60, 100
5, 613200, Note_on_c, 0, 61, 0
5, 613200, Note_on_c, 0, 60, 0
5, 613440, Note_on_c, 0, 61, 100
5, 613680, Note_on_c, 0, 68, 0
5, 613680, Note_on_c, 0, 61, 0
5, 613920, Note_on_c, 0, 61, 100
5, 613920, Note_on_c, 0, 60, 100
5, 613920, Note_on_c, 0, 68, 100
5, 614160, Note_on_c, 0, 61, 0
5, 614160, Note_on_c, 0, 60, 0
5, 614880, Note_on_c, 0, 60, 100
5, 614880, Note_on_c, 0, 61, 100
5, 615120, Note_on_c, 0, 60, 0
5, 615120, Note_on_c, 0, 61, 0
5, 615360, Note_on_c, 0, 61, 100
5, 615600, Note_on_c, 0, 61, 0
5, 615840, Note_on_c, 0, 61, 100
5, 616080, Note_on_c, 0, 61, 0
5, 616320, Note_on_c, 0, 61, 100
5, 616320, Note_on_c, 0, 60, 100
5, 616560, Note_on_c, 0, 61, 0
5, 616560, Note_on_c, 0, 60, 0
5, 616800, Note_on_c, 0, 61, 100
5, 616800, Note_on_c, 0, 60, 100
5, 617040, Note_on_c, 0, 61, 0
5, 617040, Note_on_c, 0, 60, 0
5, 617280, Note_on_c, 0, 61, 100
5, 617520, Note_on_c, 0, 68, 0
5, 617520, Note_on_c, 0, 61, 0
5, 617760, Note_on_c, 0, 61, 100
5, 617760, Note_on_c, 0, 60, 100
5, 617760, Note_on_c, 0, 69, 100
5, 618000, Note_on_c, 0, 61, 0
5, 618000, Note_on_c, 0, 60, 0
5, 618720, Note_on_c, 0, 61, 100
5, 618720, Note_on_c, 0, 60, 100
5, 618960, Note_on_c, 0, 61, 0
5, 618960, Note_on_c, 0, 60, 0
5, 619200, Note_on_c, 0, 61, 100
5, 619440, Note_on_c, 0, 61, 0
5, 619680, Note_on_c, 0, 61, 100
5, 619920, Note_on_c, 0, 61, 0
5, 620160, Note_on_c, 0, 61, 100
5, 620160, Note_on_c, 0, 60, 100
5, 620400, Note_on_c, 0, 61, 0
5, 620400, Note_on_c, 0, 60, 0
5, 620640, Note_on_c, 0, 61, 100
5, 620640, Note_on_c, 0, 60, 100
5, 620880, Note_on_c, 0, 61, 0
5, 620880, Note_on_c, 0, 60, 0
5, 621120, Note_on_c, 0, 61, 100
5, 621360, Note_on_c, 0, 69, 0
5, 621360, Note_on_c, 0, 61, 0
5, 621600, Note_on_c, 0, 61, 100
5, 621600, Note_on_c, 0, 60, 100
5, 621600, Note_on_c, 0, 68, 100
5, 621840, Note_on_c, 0, 61, 0
5, 621840, Note_on_c, 0, 60, 0
5, 622560, Note_on_c, 0, 61, 100
5, 622560, Note_on_c, 0, 60, 100
5, 622800, Note_on_c, 0, 61, 0
5, 622800, Note_on_c, 0, 60, 0
5, 623040, Note_on_c, 0, 61, 100
5, 623280, Note_on_c, 0, 61, 0
5, 624000, Note_on_c, 0, 60, 100
5, 624000, Note_on_c, 0, 61, 100
5, 624240, Note_on_c, 0, 60, 0
5, 624240, Note_on_c, 0, 61, 0
5, 624480, Note_on_c, 0, 60, 100
5, 624480, Note_on_c, 0, 61, 100
5, 624720, Note_on_c, 0, 60, 0
5, 624720, Note_on_c, 0, 61, 0
5, 624960, Note_on_c, 0, 61, 100
5, 625200, Note_on_c, 0, 68, 0
5, 625200, Note_on_c, 0, 61, 0
5, 625440, Note_on_c, 0, 60, 100
5, 625440, Note_on_c, 0, 61, 100
5, 625440, Note_on_c, 0, 67, 100
5, 625680, Note_on_c, 0, 60, 0
5, 625680, Note_on_c, 0, 61, 0
5, 626400, Note_on_c, 0, 61, 100
5, 626400, Note_on_c, 0, 60, 100
5, 626640, Note_on_c, 0, 61, 0
5, 626640, Note_on_c, 0, 60, 0
5, 626880, Note_on_c, 0, 61, 100
5, 627120, Note_on_c, 0, 61, 0
5, 627360, Note_on_c, 0, 61, 100
5, 627600, Note_on_c, 0, 61, 0
5, 627840, Note_on_c, 0, 60, 100
5, 627840, Note_on_c, 0, 61, 100
5, 628080, Note_on_c, 0, 60, 0
5, 628080, Note_on_c, 0, 61, 0
5, 628320, Note_on_c, 0, 60, 100
5, 628320, Note_on_c, 0, 61, 100
5, 628560, Note_on_c, 0, 60, 0
5, 628560, Note_on_c, 0, 61, 0
5, 628800, Note_on_c, 0, 61, 100
5, 629040, Note_on_c, 0, 67, 0
5, 629040, Note_on_c, 0, 61, 0
5, 629280, Note_on_c, 0, 60, 100
5, 629280, Note_on_c, 0, 61, 100
5, 629280, Note_on_c, 0, 69, 100
5, 629520, Note_on_c, 0, 60, 0
5, 629520, Note_on_c, 0, 61, 0
5, 630240, Note_on_c, 0, 60, 100
5, 630240, Note_on_c, 0, 61, 100
5, 630480, Note_on_c, 0, 60, 0
5, 630480, Note_on_c, 0, 61, 0
5, 630720, Note_on_c, 0, 69, 0
5, 630720, Note_on_c, 0, 61, 100
5, 630960, Note_on_c, 0, 61, 0
5, 631200, Note_on_c, 0, 60, 100
5, 631200, Note_on_c, 0, 61, 100
5, 631440, Note_on_c, 0, 60, 0
5, 631440, Note_on_c, 0, 61, 0
5, 631680, Note_on_c, 0, 61, 100
5, 631920, Note_on_c, 0, 61, 0
5, 632160, Note_on_c, 0, 60, 100
5, 632160, Note_on_c, 0, 61, 100
5, 632400, Note_on_c, 0, 60, 0
5, 632400, Note_on_c, 0, 61, 0
5, 632640, Note_on_c, 0, 61, 100
5, 632880, Note_on_c, 0, 61, 0
5, 633120, Note_on_c, 0, 60, 100
5, 633120, Note_on_c, 0, 61, 100
5, 633360, Note_on_c, 0, 60, 0
5, 633360, Note_on_c, 0, 61, 0
5, 633600, Note_on_c, 0, 61, 100
5, 633840, Note_on_c, 0, 61, 0
5, 634080, Note_on_c, 0, 60, 100
5, 634080, Note_on_c, 0, 61, 100
5, 634320, Note_on_c, 0, 60, 0
5, 634320, Note_on_c, 0, 61, 0
5, 634560, Note_on_c, 0, 61, 100
5, 634800, Note_on_c, 0, 61, 0
5, 635040, Note_on_c, 0, 60, 100
5, 635040, Note_on_c, 0, 61, 100
5, 635280, Note_on_c, 0, 60, 0
5, 635280, Note_on_c, 0, 61, 0
5, 635520, Note_on_c, 0, 61, 100
5, 635760, Note_on_c, 0, 61, 0
5, 636000, Note_on_c, 0, 61, 100
5, 636240, Note_on_c, 0, 61, 0
5, 636480, Note_on_c, 0, 61, 100
5, 636480, Note_on_c, 0, 68, 100
5, 636720, Note_on_c, 0, 61, 0
5, 636720, Note_on_c, 0, 68, 0
5, 636960, Note_on_c, 0, 60, 100
5, 636960, Note_on_c, 0, 61, 100
5, 636960, Note_on_c, 0, 69, 100
5, 637200, Note_on_c, 0, 60, 0
5, 637200, Note_on_c, 0, 61, 0
5, 637920, Note_on_c, 0, 60, 100
5, 637920, Note_on_c, 0, 61, 100
5, 638160, Note_on_c, 0, 60, 0
5, 638160, Note_on_c, 0, 61, 0
5, 638400, Note_on_c, 0, 69, 0
5, 638400, Note_on_c, 0, 61, 100
5, 638640, Note_on_c, 0, 61, 0
5, 638880, Note_on_c, 0, 60, 100
5, 638880, Note_on_c, 0, 61, 100
5, 639120, Note_on_c, 0, 60, 0
5, 639120, Note_on_c, 0, 61, 0
5, 639360, Note_on_c, 0, 61, 100
5, 639600, Note_on_c, 0, 61, 0
5, 639840, Note_on_c, 0, 60, 100
5, 639840, Note_on_c, 0, 61, 100
5, 640080, Note_on_c, 0, 60, 0
5, 640080, Note_on_c, 0, 61, 0
5, 640320, Note_on_c, 0, 61, 100
5, 640560, Note_on_c, 0, 61, 0
5, 640800, Note_on_c, 0, 60, 100
5, 640800, Note_on_c, 0, 61, 100
5, 641040, Note_on_c, 0, 60, 0
5, 641040, Note_on_c, 0, 61, 0
5, 641280, Note_on_c, 0, 61, 100
5, 641520, Note_on_c, 0, 61, 0
5, 641760, Note_on_c, 0, 60, 100
5, 641760, Note_on_c, 0, 61, 100
5, 642000, Note_on_c, 0, 60, 0
5, 642000, Note_on_c, 0, 61, 0
5, 642240, Note_on_c, 0, 61, 100
5, 642480, Note_on_c, 0, 61, 0
5, 642720, Note_on_c, 0, 60, 100
5, 642720, Note_on_c, 0, 61, 100
5, 642960, Note_on_c, 0, 60, 0
5, 642960, Note_on_c, 0, 61, 0
5, 643200, Note_on_c, 0, 61, 100
5, 643440, Note_on_c, 0, 61, 0
5, 643680, Note_on_c, 0, 61, 100
5, 643920, Note_on_c, 0, 61, 0
5, 644160, Note_on_c, 0, 61, 100
5, 644160, Note_on_c, 0, 68, 100
5, 644400, Note_on_c, 0, 61, 0
5, 644400, Note_on_c, 0, 68, 0
5, 644640, Note_on_c, 0, 60, 100
5, 644640, Note_on_c, 0, 61, 100
5, 644640, Note_on_c, 0, 69, 100
5, 644880, Note_on_c, 0, 60, 0
5, 644880, Note_on_c, 0, 61, 0
5, 645600, Note_on_c, 0, 60, 100
5, 645600, Note_on_c, 0, 61, 100
5, 645840, Note_on_c, 0, 60, 0
5, 645840, Note_on_c, 0, 61, 0
5, 646080, Note_on_c, 0, 69, 0
5, 646080, Note_on_c, 0, 61, 100
5, 646320, Note_on_c, 0, 61, 0
5, 646560, Note_on_c, 0, 60, 100
5, 646560, Note_on_c, 0, 61, 100
5, 646800, Note_on_c, 0, 60, 0
5, 646800, Note_on_c, 0, 61, 0
5, 647040, Note_on_c, 0, 61, 100
5, 647280, Note_on_c, 0, 61, 0
5, 647520, Note_on_c, 0, 60, 100
5, 647520, Note_on_c, 0, 61, 100
5, 647760, Note_on_c, 0, 60, 0
5, 647760, Note_on_c, 0, 61, 0
5, 648000, Note_on_c, 0, 61, 100
5, 648240, Note_on_c, 0, 61, 0
5, 648480, Note_on_c, 0, 60, 100
5, 648480, Note_on_c, 0, 61, 100
5, 648720, Note_on_c, 0, 60, 0
5, 648720, Note_on_c, 0, 61, 0
5, 648960, Note_on_c, 0, 61, 100
5, 649200, Note_on_c, 0, 61, 0
5, 649440, Note_on_c, 0, 60, 100
5, 649440, Note_on_c, 0, 61, 100
5, 649680, Note_on_c, 0, 60, 0
5, 649680, Note_on_c, 0, 61, 0
5, 649920, Note_on_c, 0, 61, 100
5, 650160, Note_on_c, 0, 61, 0
5, 650400, Note_on_c, 0, 60, 100
5, 650400, Note_on_c, 0, 61, 100
5, 650640, Note_on_c, 0, 60, 0
5, 650640, Note_on_c, 0, 61, 0
5, 650880, Note_on_c, 0, 61, 100
5, 651120, Note_on_c, 0, 61, 0
5, 651360, Note_on_c, 0, 61, 100
5, 651600, Note_on_c, 0, 61, 0
5, 651840, Note_on_c, 0, 61, 100
5, 651840, Note_on_c, 0, 68, 100
5, 652080, Note_on_c, 0, 61, 0
5, 652080, Note_on_c, 0, 68, 0
5, 652320, Note_on_c, 0, 60, 100
5, 652320, Note_on_c, 0, 61, 100
5, 652320, Note_on_c, 0, 69, 100
5, 652560, Note_on_c, 0, 60, 0
5, 652560, Note_on_c, 0, 61, 0
5, 653280, Note_on_c, 0, 61, 100
5, 653520, Note_on_c, 0, 61, 0
5, 653760, Note_on_c, 0, 69, 0
5, 653760, Note_on_c, 0, 61, 100
5, 654000, Note_on_c, 0, 61, 0
5, 654240, Note_on_c, 0, 61, 100
5, 654480, Note_on_c, 0, 61, 0
5, 654720, Note_on_c, 0, 61, 100
5, 654960, Note_on_c, 0, 61, 0
5, 655200, Note_on_c, 0, 61, 100
5, 655440, Note_on_c, 0, 61, 0
5, 655680, Note_on_c, 0, 61, 100
5, 655920, Note_on_c, 0, 61, 0
5, 656160, Note_on_c, 0, 61, 100
5, 656400, Note_on_c, 0, 61, 0
5, 656640, Note_on_c, 0, 61, 100
5, 656640, Note_on_c, 0, 67, 100
5, 656880, Note_on_c, 0, 61, 0
5, 656880, Note_on_c, 0, 67, 0
5, 657120, Note_on_c, 0, 61, 100
5, 657360, Note_on_c, 0, 61, 0
5, 657600, Note_on_c, 0, 61, 100
5, 657600, Note_on_c, 0, 68, 100
5, 657840, Note_on_c, 0, 61, 0
5, 657840, Note_on_c, 0, 68, 0
5, 658080, Note_on_c, 0, 61, 100
5, 658320, Note_on_c, 0, 61, 0
5, 658560, Note_on_c, 0, 61, 100
5, 658560, Note_on_c, 0, 69, 100
5, 658800, Note_on_c, 0, 61, 0
5, 658800, Note_on_c, 0, 69, 0
5, 659040, Note_on_c, 0, 61, 100
5, 659040, Note_on_c, 0, 60, 100
5, 659280, Note_on_c, 0, 61, 0
5, 659280, Note_on_c, 0, 60, 0
5, 659520, Note_on_c, 0, 61, 100
5, 659760, Note_on_c, 0, 61, 0
5, 660000, Note_on_c, 0, 60, 100
5, 660000, Note_on_c, 0, 61, 100
5, 660000, Note_on_c, 0, 68, 100
5, 660240, Note_on_c, 0, 60, 0
5, 660240, Note_on_c, 0, 61, 0
5, 660480, Note_on_c, 0, 68, 0
5, 660480, End_track
6, 0, Start_track
6, 0, Title_t, "BAND BASS"
6, 0, Text_t, "sing_off"
6, 0, Text_t, "[idle]"
6, 0, Text_t, "gtr_off"
6, 0, Text_t, "drum_off"
6, 7680, Text_t, "gtr_on"
6, 7680, Text_t, "[play]"
6, 7680, Text_t, "drum_on"
6, 7680, Text_t, "[verse]"
6, 38400, Text_t, "[lighting (sweep)]"
6, 38400, Text_t, "drum_double"
6, 38400, Text_t, "bass_half_tempo"
6, 38400, Text_t, "drum_half_tempo"
6, 38400, Text_t, "gtr_half_tempo"
6, 38400, Text_t, "[half_tempo]"
6, 38400, Text_t, "[crowd_half_tempo]"
6, 69120, Text_t, "sing_on"
6, 69120, Text_t, "wail_off"
6, 130560, Text_t, "[idle]"
6, 130560, Text_t, "drum_off"
6, 136320, Text_t, "drum_double"
6, 138240, Text_t, "[play]"
6, 138240, Text_t, "[chorus]"
6, 199680, Text_t, "[verse]"
6, 201600, Text_t, "sing_off"
6, 230400, Text_t, "sing_on"
6, 291840, Text_t, "[idle]"
6, 291840, Text_t, "drum_off"
6, 297600, Text_t, "drum_double"
6, 299520, Text_t, "[play]"
6, 299520, Text_t, "[chorus]"
6, 360960, Text_t, "[verse]"
6, 360960, Text_t, "gtr_off"
6, 360960, Text_t, "drum_off"
6, 364800, Text_t, "sing_off"
6, 382080, Text_t, "gtr_on"
6, 387840, Text_t, "drum_double"
6, 422400, Text_t, "[solo]"
6, 422400, Text_t, "solo_on"
6, 483840, Text_t, "[verse]"
6, 483840, Text_t, "[lighting (sweep)]"
6, 483840, Text_t, "bass_normal_tempo"
6, 483840, Text_t, "drum_normal_tempo"
6, 483840, Text_t, "[normal_tempo]"
6, 483840, Text_t, "gtr_normal_tempo"
6, 483840, Text_t, "[crowd_normal_tempo]"
6, 483840, Text_t, "drum_normal"
6, 491520, Text_t, "solo_off"
6, 491520, Text_t, "sing_on"
6, 497280, Text_t, "drum_allbeat"
6, 499200, Text_t, "[idle]"
6, 499200, Text_t, "wail_off"
6, 499200, Text_t, "bass_half_tempo"
6, 499200, Text_t, "gtr_half_tempo"
6, 499200, Text_t, "drum_half_tempo"
6, 499200, Text_t, "[half_tempo]"
6, 499200, Text_t, "[crowd_half_tempo]"
6, 501120, Text_t, "drum_off"
6, 504960, Text_t, "drum_double"
6, 506880, Text_t, "[chorus]"
6, 506880, Text_t, "[play]"
6, 629760, Text_t, "[verse]"
6, 629760, Text_t, "[lighting (sweep)]"
6, 629760, Text_t, "drum_allbeat"
6, 637440, Text_t, "sing_off"
6, 654720, Text_t, "drum_off"
6, 658560, Text_t, "drum_normal"
6, 660480, Text_t, "[idle]"
6, 660480, Text_t, "wail_off"
6, 662400, Text_t, "gtr_off"
6, 662400, Text_t, "drum_off"
6, 665278, Text_t, "[end]"
6, 665278, End_track
7, 0, Start_track
7, 0, Title_t, "BAND SINGER"
7, 0, Text_t, "[idle]"
7, 0, Text_t, "bass_off"
7, 0, Text_t, "gtr_off"
7, 0, Text_t, "drum_off"
7, 7680, Text_t, "gtr_on"
7, 7680, Text_t, "bass_on"
7, 7680, Text_t, "drum_on"
7, 7680, Text_t, "[verse]"
7, 38400, Text_t, "[lighting (sweep)]"
7, 38400, Text_t, "drum_double"
7, 38400, Text_t, "bass_half_tempo"
7, 38400, Text_t, "drum_half_tempo"
7, 38400, Text_t, "gtr_half_tempo"
7, 38400, Text_t, "[half_tempo]"
7, 38400, Text_t, "[crowd_half_tempo]"
7, 69120, Text_t, "[play]"
7, 69120, Text_t, "wail_off"
7, 130560, Text_t, "bass_off"
7, 130560, Text_t, "drum_off"
7, 136320, Text_t, "drum_double"
7, 138240, Text_t, "bass_on"
7, 138240, Text_t, "[chorus]"
7, 199680, Text_t, "[verse]"
7, 201600, Text_t, "[idle]"
7, 230400, Text_t, "[play]"
7, 291840, Text_t, "bass_off"
7, 291840, Text_t, "drum_off"
7, 297600, Text_t, "drum_double"
7, 299520, Text_t, "bass_on"
7, 299520, Text_t, "[chorus]"
7, 360960, Text_t, "[verse]"
7, 360960, Text_t, "gtr_off"
7, 360960, Text_t, "drum_off"
7, 364800, Text_t, "[idle]"
7, 382080, Text_t, "gtr_on"
7, 387840, Text_t, "drum_double"
7, 422400, Text_t, "[solo]"
7, 422400, Text_t, "solo_on"
7, 483840, Text_t, "[verse]"
7, 483840, Text_t, "[lighting (sweep)]"
7, 483840, Text_t, "bass_normal_tempo"
7, 483840, Text_t, "drum_normal_tempo"
7, 483840, Text_t, "[normal_tempo]"
7, 483840, Text_t, "gtr_normal_tempo"
7, 483840, Text_t, "[crowd_normal_tempo]"
7, 483840, Text_t, "drum_normal"
7, 491520, Text_t, "solo_off"
7, 491520, Text_t, "[play]"
7, 497280, Text_t, "drum_allbeat"
7, 499200, Text_t, "bass_off"
7, 499200, Text_t, "wail_off"
7, 499200, Text_t, "bass_half_tempo"
7, 499200, Text_t, "gtr_half_tempo"
7, 499200, Text_t, "drum_half_tempo"
7, 499200, Text_t, "[half_tempo]"
7, 499200, Text_t, "[crowd_half_tempo]"
7, 501120, Text_t, "drum_off"
7, 504960, Text_t, "drum_double"
7, 506880, Text_t, "[chorus]"
7, 506880, Text_t, "bass_on"
7, 629760, Text_t, "[verse]"
7, 629760, Text_t, "[lighting (sweep)]"
7, 629760, Text_t, "drum_allbeat"
7, 637440, Text_t, "[idle]"
7, 654720, Text_t, "drum_off"
7, 658560, Text_t, "drum_normal"
7, 660480, Text_t, "bass_off"
7, 660480, Text_t, "wail_off"
7, 662400, Text_t, "gtr_off"
7, 662400, Text_t, "drum_off"
7, 665278, Text_t, "[end]"
7, 665278, End_track
8, 0, Start_track
8, 0, Title_t, "BAND DRUMS"
8, 0, Text_t, "sing_off"
8, 0, Text_t, "bass_off"
8, 0, Text_t, "gtr_off"
8, 0, Text_t, "[idle]"
8, 7680, Text_t, "gtr_on"
8, 7680, Text_t, "bass_on"
8, 7680, Text_t, "[play]"
8, 7680, Text_t, "[verse]"
8, 38400, Text_t, "[lighting (sweep)]"
8, 38400, Text_t, "[double_time]"
8, 38400, Text_t, "bass_half_tempo"
8, 38400, Text_t, "[allbeat]"
8, 38400, Text_t, "gtr_half_tempo"
8, 38400, Text_t, "[half_tempo]"
8, 38400, Text_t, "[crowd_half_tempo]"
8, 69120, Text_t, "sing_on"
8, 69120, Text_t, "wail_off"
8, 130560, Text_t, "bass_off"
8, 130560, Text_t, "[idle]"
8, 136320, Text_t, "[double_time]"
8, 138240, Text_t, "bass_on"
8, 138240, Text_t, "[chorus]"
8, 199680, Text_t, "[verse]"
8, 201600, Text_t, "sing_off"
8, 230400, Text_t, "sing_on"
8, 291840, Text_t, "bass_off"
8, 291840, Text_t, "[idle]"
8, 297600, Text_t, "[double_time]"
8, 299520, Text_t, "bass_on"
8, 299520, Text_t, "[chorus]"
8, 360960, Text_t, "[verse]"
8, 360960, Text_t, "gtr_off"
8, 360960, Text_t, "[idle]"
8, 364800, Text_t, "sing_off"
8, 382080, Text_t, "gtr_on"
8, 387840, Text_t, "[double_time]"
8, 422400, Text_t, "[solo]"
8, 422400, Text_t, "solo_on"
8, 483840, Text_t, "[verse]"
8, 483840, Text_t, "[lighting (sweep)]"
8, 483840, Text_t, "bass_normal_tempo"
8, 483840, Text_t, "drum_normal_tempo"
8, 483840, Text_t, "[normal_tempo]"
8, 483840, Text_t, "gtr_normal_tempo"
8, 483840, Text_t, "[crowd_normal_tempo]"
8, 483840, Text_t, "[nobeat]"
8, 491520, Text_t, "solo_off"
8, 491520, Text_t, "sing_on"
8, 497280, Text_t, "[allbeat]"
8, 499200, Text_t, "bass_off"
8, 499200, Text_t, "wail_off"
8, 499200, Text_t, "bass_half_tempo"
8, 499200, Text_t, "gtr_half_tempo"
8, 499200, Text_t, "[allbeat]"
8, 499200, Text_t, "[half_tempo]"
8, 499200, Text_t, "[crowd_half_tempo]"
8, 501120, Text_t, "[idle]"
8, 504960, Text_t, "[double_time]"
8, 506880, Text_t, "[chorus]"
8, 506880, Text_t, "bass_on"
8, 629760, Text_t, "[verse]"
8, 629760, Text_t, "[lighting (sweep)]"
8, 629760, Text_t, "[allbeat]"
8, 637440, Text_t, "sing_off"
8, 654720, Text_t, "[idle]"
8, 658560, Text_t, "[nobeat]"
8, 660480, Text_t, "bass_off"
8, 660480, Text_t, "wail_off"
8, 662400, Text_t, "gtr_off"
8, 662400, Text_t, "[idle]"
8, 665278, Text_t, "[end]"
8, 665278, End_track
0, 0, End_of_file
