0, 0, Header, 1, 8, 960
1, 0, Start_track
1, 0, Title_t, "cheatonthechurch"
1, 0, Time_signature, 4, 2, 24, 8
1, 0, Tempo, 422528
1, 57600, Tempo, 410957
1, 69116, Tempo, 428571
1, 72960, Tempo, 419580
1, 188160, Tempo, 421052
1, 195840, Tempo, 419580
1, 249600, Tempo, 422528
1, 253440, Tempo, 419580
1, 353280, Tempo, 422528
1, 357120, Tempo, 419580
1, 403200, Tempo, 421052
1, 414720, Tempo, 419580
1, 414720, End_track
2, 0, Start_track
2, 0, Title_t, "PART GUITAR"
2, 0, Text_t, "drum_off"
2, 0, Text_t, "sing_off"
2, 0, Text_t, "[idle]"
2, 0, Text_t, "bass_off"
2, 7680, Text_t, "[verse]"
2, 22800, Note_on_c, 0, 108, 100
2, 23040, Text_t, "[play]"
2, 23280, Note_on_c, 0, 108, 0
2, 24480, Note_on_c, 0, 108, 100
2, 24960, Note_on_c, 0, 108, 0
2, 25440, Note_on_c, 0, 108, 100
2, 26400, Note_on_c, 0, 108, 0
2, 26640, Note_on_c, 0, 108, 100
2, 27278, Note_on_c, 0, 108, 0
2, 30720, Note_on_c, 0, 108, 100
2, 31036, Note_on_c, 0, 108, 0
2, 31200, Note_on_c, 0, 108, 100
2, 31516, Note_on_c, 0, 108, 0
2, 31680, Note_on_c, 0, 108, 100
2, 32318, Note_on_c, 0, 108, 0
2, 32640, Note_on_c, 0, 108, 100
2, 32958, Note_on_c, 0, 108, 0
2, 33120, Note_on_c, 0, 108, 100
2, 33600, Note_on_c, 0, 108, 0
2, 34080, Note_on_c, 0, 108, 100
2, 34560, Note_on_c, 0, 108, 0
2, 34800, Note_on_c, 0, 108, 100
2, 36078, Note_on_c, 0, 108, 0
2, 38160, Note_on_c, 0, 108, 100
2, 38640, Note_on_c, 0, 108, 0
2, 38880, Note_on_c, 0, 108, 100
2, 39198, Note_on_c, 0, 108, 0
2, 39360, Note_on_c, 0, 108, 100
2, 39678, Note_on_c, 0, 108, 0
2, 39840, Note_on_c, 0, 108, 100
2, 40480, Note_on_c, 0, 108, 0
2, 40800, Note_on_c, 0, 108, 100
2, 41118, Note_on_c, 0, 108, 0
2, 41280, Note_on_c, 0, 108, 100
2, 42078, Note_on_c, 0, 108, 0
2, 42720, Note_on_c, 0, 108, 100
2, 43200, Note_on_c, 0, 108, 0
2, 43440, Note_on_c, 0, 108, 100
2, 44238, Note_on_c, 0, 108, 0
2, 46080, Note_on_c, 0, 108, 100
2, 46398, Note_on_c, 0, 108, 0
2, 46560, Note_on_c, 0, 108, 100
2, 47200, Note_on_c, 0, 108, 0
2, 47520, Note_on_c, 0, 108, 100
2, 48318, Note_on_c, 0, 108, 0
2, 48960, Note_on_c, 0, 108, 100
2, 49200, Note_on_c, 0, 108, 0
2, 49278, Note_on_c, 0, 108, 100
2, 49438, Note_on_c, 0, 108, 0
2, 49600, Note_on_c, 0, 108, 100
2, 49840, Note_on_c, 0, 108, 0
2, 49920, Note_on_c, 0, 108, 100
2, 50160, Note_on_c, 0, 108, 0
2, 50238, Note_on_c, 0, 108, 100
2, 50320, Note_on_c, 0, 108, 0
2, 50400, Note_on_c, 0, 108, 100
2, 50560, Note_on_c, 0, 108, 0
2, 50718, Note_on_c, 0, 108, 100
2, 50800, Note_on_c, 0, 108, 0
2, 50880, Note_on_c, 0, 108, 100
2, 51040, Note_on_c, 0, 108, 0
2, 51520, Note_on_c, 0, 108, 100
2, 51920, Note_on_c, 0, 108, 0
2, 52158, Note_on_c, 0, 108, 100
2, 52318, Note_on_c, 0, 108, 0
2, 52480, Note_on_c, 0, 108, 100
2, 52640, Note_on_c, 0, 108, 0
2, 52800, Note_on_c, 0, 108, 100
2, 52960, Note_on_c, 0, 108, 0
2, 53118, Note_on_c, 0, 108, 100
2, 53278, Note_on_c, 0, 108, 0
2, 53440, Note_on_c, 0, 108, 100
2, 53520, Note_on_c, 0, 108, 0
2, 53598, Note_on_c, 0, 108, 100
2, 53758, Note_on_c, 0, 108, 0
2, 53920, Note_on_c, 0, 108, 100
2, 54080, Note_on_c, 0, 108, 0
2, 54240, Note_on_c, 0, 108, 100
2, 54400, Note_on_c, 0, 108, 0
2, 54558, Note_on_c, 0, 108, 100
2, 54880, Note_on_c, 0, 108, 0
2, 55200, Note_on_c, 0, 108, 100
2, 55360, Note_on_c, 0, 108, 0
2, 55680, Note_on_c, 0, 108, 100
2, 55998, Note_on_c, 0, 108, 0
2, 56160, Note_on_c, 0, 108, 100
2, 56400, Note_on_c, 0, 108, 0
2, 56640, Note_on_c, 0, 108, 100
2, 57040, Note_on_c, 0, 108, 0
2, 57280, Note_on_c, 0, 108, 100
2, 57600, Note_on_c, 0, 108, 0
2, 57920, Note_on_c, 0, 108, 100
2, 58080, Note_on_c, 0, 108, 0
2, 58240, Note_on_c, 0, 108, 100
2, 58480, Note_on_c, 0, 108, 0
2, 58720, Note_on_c, 0, 108, 100
2, 59200, Note_on_c, 0, 108, 0
2, 60000, Note_on_c, 0, 108, 100
2, 60480, Note_on_c, 0, 108, 0
2, 60640, Note_on_c, 0, 108, 100
2, 60880, Note_on_c, 0, 108, 0
2, 61120, Note_on_c, 0, 108, 100
2, 61360, Note_on_c, 0, 108, 0
2, 62080, Note_on_c, 0, 108, 100
2, 62240, Note_on_c, 0, 108, 0
2, 62400, Note_on_c, 0, 108, 100
2, 68610, Note_on_c, 0, 105, 100
2, 68610, Note_on_c, 0, 106, 100
2, 68610, Note_on_c, 0, 94, 100
2, 68610, Note_on_c, 0, 82, 100
2, 68610, Note_on_c, 0, 70, 100
2, 68610, Note_on_c, 0, 93, 100
2, 68610, Note_on_c, 0, 81, 100
2, 68610, Note_on_c, 0, 69, 100
2, 68640, Note_on_c, 0, 96, 100
2, 68640, Note_on_c, 0, 84, 100
2, 68640, Note_on_c, 0, 72, 100
2, 68640, Note_on_c, 0, 60, 100
2, 68880, Note_on_c, 0, 96, 0
2, 68880, Note_on_c, 0, 84, 0
2, 68880, Note_on_c, 0, 72, 0
2, 68880, Note_on_c, 0, 60, 0
2, 68880, Note_on_c, 0, 96, 100
2, 68880, Note_on_c, 0, 84, 100
2, 68960, Note_on_c, 0, 108, 0
2, 69120, Text_t, "drum_on"
2, 69120, Text_t, "[play]"
2, 69120, Text_t, "bass_on"
2, 69120, Note_on_c, 0, 96, 0
2, 69120, Note_on_c, 0, 84, 0
2, 69120, Note_on_c, 0, 96, 100
2, 69120, Note_on_c, 0, 72, 100
2, 69120, Note_on_c, 0, 60, 100
2, 69120, Note_on_c, 0, 84, 100
2, 69120, Note_on_c, 0, 108, 100
2, 69360, Note_on_c, 0, 96, 0
2, 69360, Note_on_c, 0, 72, 0
2, 69360, Note_on_c, 0, 60, 0
2, 69360, Note_on_c, 0, 84, 0
2, 69440, Note_on_c, 0, 108, 0
2, 69570, Note_on_c, 0, 103, 100
2, 69570, Note_on_c, 0, 91, 100
2, 69570, Note_on_c, 0, 79, 100
2, 69570, Note_on_c, 0, 67, 100
2, 69600, Note_on_c, 0, 96, 100
2, 69600, Note_on_c, 0, 84, 100
2, 69600, Note_on_c, 0, 86, 100
2, 69600, Note_on_c, 0, 72, 100
2, 69600, Note_on_c, 0, 73, 100
2, 69600, Note_on_c, 0, 61, 100
2, 69600, Note_on_c, 0, 108, 100
2, 69600, Note_on_c, 0, 98, 100
2, 70240, Note_on_c, 0, 108, 0
2, 70560, Note_on_c, 0, 108, 100
2, 70880, Note_on_c, 0, 108, 0
2, 71040, Note_on_c, 0, 108, 100
2, 71360, Note_on_c, 0, 108, 0
2, 71520, Note_on_c, 0, 108, 100
2, 72000, Note_on_c, 0, 108, 0
2, 72480, Note_on_c, 0, 72, 0
2, 72480, Note_on_c, 0, 73, 0
2, 72480, Note_on_c, 0, 61, 0
2, 72720, Note_on_c, 0, 96, 0
2, 72720, Note_on_c, 0, 84, 0
2, 72720, Note_on_c, 0, 86, 0
2, 72720, Note_on_c, 0, 98, 0
2, 72930, Note_on_c, 0, 105, 0
2, 72930, Note_on_c, 0, 93, 0
2, 72930, Note_on_c, 0, 81, 0
2, 72930, Note_on_c, 0, 69, 0
2, 72930, Note_on_c, 0, 103, 0
2, 72930, Note_on_c, 0, 91, 0
2, 72930, Note_on_c, 0, 79, 0
2, 72930, Note_on_c, 0, 67, 0
2, 72960, Note_on_c, 0, 99, 100
2, 72960, Note_on_c, 0, 74, 100
2, 72960, Note_on_c, 0, 61, 100
2, 72960, Note_on_c, 0, 87, 100
2, 72960, Note_on_c, 0, 108, 100
2, 73198, Note_on_c, 0, 99, 0
2, 73198, Note_on_c, 0, 74, 0
2, 73198, Note_on_c, 0, 61, 0
2, 73198, Note_on_c, 0, 87, 0
2, 73280, Note_on_c, 0, 108, 0
2, 73440, Note_on_c, 0, 108, 100
2, 73920, Note_on_c, 0, 100, 100
2, 73920, Note_on_c, 0, 99, 100
2, 73920, Note_on_c, 0, 88, 100
2, 73920, Note_on_c, 0, 87, 100
2, 73920, Note_on_c, 0, 75, 100
2, 73920, Note_on_c, 0, 62, 100
2, 74080, Note_on_c, 0, 108, 0
2, 74400, Note_on_c, 0, 108, 100
2, 74720, Note_on_c, 0, 108, 0
2, 74880, Note_on_c, 0, 108, 100
2, 75360, Note_on_c, 0, 62, 0
2, 75600, Note_on_c, 0, 75, 0
2, 75808, Note_on_c, 0, 106, 0
2, 75808, Note_on_c, 0, 94, 0
2, 75808, Note_on_c, 0, 82, 0
2, 75808, Note_on_c, 0, 70, 0
2, 75808, Note_on_c, 0, 105, 100
2, 75808, Note_on_c, 0, 93, 100
2, 75808, Note_on_c, 0, 81, 100
2, 75808, Note_on_c, 0, 69, 100
2, 75840, Note_on_c, 0, 100, 0
2, 75840, Note_on_c, 0, 99, 0
2, 75840, Note_on_c, 0, 88, 0
2, 75840, Note_on_c, 0, 87, 0
2, 75840, Note_on_c, 0, 99, 100
2, 75840, Note_on_c, 0, 74, 100
2, 75840, Note_on_c, 0, 61, 100
2, 75840, Note_on_c, 0, 87, 100
2, 76000, Note_on_c, 0, 108, 0
2, 76080, Note_on_c, 0, 99, 0
2, 76080, Note_on_c, 0, 74, 0
2, 76080, Note_on_c, 0, 61, 0
2, 76080, Note_on_c, 0, 87, 0
2, 76320, Note_on_c, 0, 108, 100
2, 76640, Note_on_c, 0, 108, 0
2, 76800, Note_on_c, 0, 108, 100
2, 76800, Note_on_c, 0, 98, 100
2, 76800, Note_on_c, 0, 73, 100
2, 76800, Note_on_c, 0, 60, 100
2, 76800, Note_on_c, 0, 86, 100
2, 77040, Note_on_c, 0, 98, 0
2, 77040, Note_on_c, 0, 73, 0
2, 77040, Note_on_c, 0, 60, 0
2, 77040, Note_on_c, 0, 86, 0
2, 77120, Note_on_c, 0, 108, 0
2, 77280, Note_on_c, 0, 108, 100
2, 77760, Note_on_c, 0, 99, 100
2, 77760, Note_on_c, 0, 98, 100
2, 77760, Note_on_c, 0, 87, 100
2, 77760, Note_on_c, 0, 86, 100
2, 77760, Note_on_c, 0, 74, 100
2, 77760, Note_on_c, 0, 61, 100
2, 77920, Note_on_c, 0, 108, 0
2, 78240, Note_on_c, 0, 108, 100
2, 78560, Note_on_c, 0, 108, 0
2, 78720, Note_on_c, 0, 108, 100
2, 79040, Note_on_c, 0, 108, 0
2, 79200, Note_on_c, 0, 61, 0
2, 79200, Note_on_c, 0, 108, 100
2, 79440, Note_on_c, 0, 74, 0
2, 79648, Note_on_c, 0, 105, 0
2, 79648, Note_on_c, 0, 93, 0
2, 79648, Note_on_c, 0, 81, 0
2, 79648, Note_on_c, 0, 69, 0
2, 79648, Note_on_c, 0, 106, 100
2, 79648, Note_on_c, 0, 94, 100
2, 79648, Note_on_c, 0, 82, 100
2, 79648, Note_on_c, 0, 70, 100
2, 79680, Note_on_c, 0, 99, 0
2, 79680, Note_on_c, 0, 98, 0
2, 79680, Note_on_c, 0, 87, 0
2, 79680, Note_on_c, 0, 86, 0
2, 79680, Note_on_c, 0, 98, 100
2, 79680, Note_on_c, 0, 73, 100
2, 79680, Note_on_c, 0, 61, 100
2, 79680, Note_on_c, 0, 86, 100
2, 79840, Note_on_c, 0, 108, 0
2, 79920, Note_on_c, 0, 98, 0
2, 79920, Note_on_c, 0, 73, 0
2, 79920, Note_on_c, 0, 61, 0
2, 79920, Note_on_c, 0, 86, 0
2, 80160, Note_on_c, 0, 108, 100
2, 80480, Note_on_c, 0, 108, 0
2, 80640, Note_on_c, 0, 108, 100
2, 80640, Note_on_c, 0, 97, 100
2, 80640, Note_on_c, 0, 72, 100
2, 80640, Note_on_c, 0, 60, 100
2, 80640, Note_on_c, 0, 85, 100
2, 80880, Note_on_c, 0, 97, 0
2, 80880, Note_on_c, 0, 72, 0
2, 80880, Note_on_c, 0, 60, 0
2, 80880, Note_on_c, 0, 85, 0
2, 81600, Note_on_c, 0, 98, 100
2, 81600, Note_on_c, 0, 97, 100
2, 81600, Note_on_c, 0, 86, 100
2, 81600, Note_on_c, 0, 85, 100
2, 81600, Note_on_c, 0, 73, 100
2, 81600, Note_on_c, 0, 61, 100
2, 81760, Note_on_c, 0, 108, 0
2, 82080, Note_on_c, 0, 108, 100
2, 82400, Note_on_c, 0, 108, 0
2, 82560, Note_on_c, 0, 108, 100
2, 83040, Note_on_c, 0, 61, 0
2, 83280, Note_on_c, 0, 73, 0
2, 83360, Note_on_c, 0, 108, 0
2, 83488, Note_on_c, 0, 106, 0
2, 83488, Note_on_c, 0, 94, 0
2, 83488, Note_on_c, 0, 82, 0
2, 83488, Note_on_c, 0, 70, 0
2, 83488, Note_on_c, 0, 105, 100
2, 83488, Note_on_c, 0, 93, 100
2, 83488, Note_on_c, 0, 81, 100
2, 83488, Note_on_c, 0, 69, 100
2, 83520, Note_on_c, 0, 98, 0
2, 83520, Note_on_c, 0, 97, 0
2, 83520, Note_on_c, 0, 86, 0
2, 83520, Note_on_c, 0, 85, 0
2, 83520, Note_on_c, 0, 97, 100
2, 83520, Note_on_c, 0, 85, 100
2, 83520, Note_on_c, 0, 72, 100
2, 83520, Note_on_c, 0, 60, 100
2, 83760, Note_on_c, 0, 97, 0
2, 83760, Note_on_c, 0, 85, 0
2, 83760, Note_on_c, 0, 72, 0
2, 83760, Note_on_c, 0, 60, 0
2, 84000, Note_on_c, 0, 108, 100
2, 84320, Note_on_c, 0, 108, 0
2, 84480, Note_on_c, 0, 108, 100
2, 84480, Note_on_c, 0, 96, 100
2, 84480, Note_on_c, 0, 84, 100
2, 84480, Note_on_c, 0, 72, 100
2, 84480, Note_on_c, 0, 60, 100
2, 84800, Note_on_c, 0, 108, 0
2, 84960, Note_on_c, 0, 108, 100
2, 85600, Note_on_c, 0, 108, 0
2, 85920, Note_on_c, 0, 108, 100
2, 86240, Note_on_c, 0, 108, 0
2, 86400, Note_on_c, 0, 108, 100
2, 87360, Note_on_c, 0, 108, 0
2, 87840, Note_on_c, 0, 60, 0
2, 88080, Note_on_c, 0, 96, 0
2, 88080, Note_on_c, 0, 84, 0
2, 88080, Note_on_c, 0, 72, 0
2, 88288, Note_on_c, 0, 103, 100
2, 88288, Note_on_c, 0, 91, 100
2, 88288, Note_on_c, 0, 79, 100
2, 88288, Note_on_c, 0, 67, 100
2, 88320, Note_on_c, 0, 108, 100
2, 88320, Note_on_c, 0, 99, 100
2, 88320, Note_on_c, 0, 87, 100
2, 88320, Note_on_c, 0, 74, 100
2, 88320, Note_on_c, 0, 61, 100
2, 88480, Note_on_c, 0, 99, 0
2, 88480, Note_on_c, 0, 87, 0
2, 88480, Note_on_c, 0, 74, 0
2, 88480, Note_on_c, 0, 61, 0
2, 88640, Note_on_c, 0, 108, 0
2, 88800, Note_on_c, 0, 108, 100
2, 89280, Note_on_c, 0, 100, 100
2, 89280, Note_on_c, 0, 99, 100
2, 89280, Note_on_c, 0, 88, 100
2, 89280, Note_on_c, 0, 87, 100
2, 89280, Note_on_c, 0, 75, 100
2, 89280, Note_on_c, 0, 62, 100
2, 89600, Note_on_c, 0, 108, 0
2, 89760, Note_on_c, 0, 108, 100
2, 90080, Note_on_c, 0, 108, 0
2, 90240, Note_on_c, 0, 108, 100
2, 90720, Note_on_c, 0, 62, 0
2, 90960, Note_on_c, 0, 75, 0
2, 91170, Note_on_c, 0, 105, 0
2, 91170, Note_on_c, 0, 93, 0
2, 91170, Note_on_c, 0, 81, 0
2, 91170, Note_on_c, 0, 69, 0
2, 91170, Note_on_c, 0, 103, 0
2, 91170, Note_on_c, 0, 91, 0
2, 91170, Note_on_c, 0, 79, 0
2, 91170, Note_on_c, 0, 67, 0
2, 91170, Note_on_c, 0, 106, 100
2, 91170, Note_on_c, 0, 94, 100
2, 91170, Note_on_c, 0, 82, 100
2, 91170, Note_on_c, 0, 70, 100
2, 91200, Note_on_c, 0, 100, 0
2, 91200, Note_on_c, 0, 99, 0
2, 91200, Note_on_c, 0, 88, 0
2, 91200, Note_on_c, 0, 87, 0
2, 91200, Note_on_c, 0, 99, 100
2, 91200, Note_on_c, 0, 87, 100
2, 91200, Note_on_c, 0, 74, 100
2, 91200, Note_on_c, 0, 61, 100
2, 91440, Note_on_c, 0, 99, 0
2, 91440, Note_on_c, 0, 87, 0
2, 91440, Note_on_c, 0, 74, 0
2, 91440, Note_on_c, 0, 61, 0
2, 91680, Note_on_c, 0, 108, 0
2, 92130, Note_on_c, 0, 103, 100
2, 92130, Note_on_c, 0, 91, 100
2, 92130, Note_on_c, 0, 79, 100
2, 92130, Note_on_c, 0, 67, 100
2, 92160, Note_on_c, 0, 98, 100
2, 92160, Note_on_c, 0, 86, 100
2, 92160, Note_on_c, 0, 73, 100
2, 92160, Note_on_c, 0, 60, 100
2, 92160, Note_on_c, 0, 108, 100
2, 92400, Note_on_c, 0, 98, 0
2, 92400, Note_on_c, 0, 86, 0
2, 92400, Note_on_c, 0, 73, 0
2, 92400, Note_on_c, 0, 60, 0
2, 92480, Note_on_c, 0, 108, 0
2, 92640, Note_on_c, 0, 108, 100
2, 93120, Note_on_c, 0, 99, 100
2, 93120, Note_on_c, 0, 98, 100
2, 93120, Note_on_c, 0, 87, 100
2, 93120, Note_on_c, 0, 86, 100
2, 93120, Note_on_c, 0, 74, 100
2, 93120, Note_on_c, 0, 61, 100
2, 93280, Note_on_c, 0, 108, 0
2, 93600, Note_on_c, 0, 108, 100
2, 93920, Note_on_c, 0, 108, 0
2, 94080, Note_on_c, 0, 108, 100
2, 94560, Note_on_c, 0, 61, 0
2, 94800, Note_on_c, 0, 74, 0
2, 95010, Note_on_c, 0, 106, 0
2, 95010, Note_on_c, 0, 94, 0
2, 95010, Note_on_c, 0, 82, 0
2, 95010, Note_on_c, 0, 70, 0
2, 95010, Note_on_c, 0, 103, 0
2, 95010, Note_on_c, 0, 91, 0
2, 95010, Note_on_c, 0, 79, 0
2, 95010, Note_on_c, 0, 67, 0
2, 95010, Note_on_c, 0, 105, 100
2, 95010, Note_on_c, 0, 93, 100
2, 95010, Note_on_c, 0, 81, 100
2, 95010, Note_on_c, 0, 69, 100
2, 95040, Note_on_c, 0, 99, 0
2, 95040, Note_on_c, 0, 98, 0
2, 95040, Note_on_c, 0, 87, 0
2, 95040, Note_on_c, 0, 86, 0
2, 95040, Note_on_c, 0, 108, 0
2, 95040, Note_on_c, 0, 98, 100
2, 95040, Note_on_c, 0, 86, 100
2, 95040, Note_on_c, 0, 73, 100
2, 95040, Note_on_c, 0, 61, 100
2, 95280, Note_on_c, 0, 98, 0
2, 95280, Note_on_c, 0, 86, 0
2, 95280, Note_on_c, 0, 73, 0
2, 95280, Note_on_c, 0, 61, 0
2, 96000, Note_on_c, 0, 97, 100
2, 96000, Note_on_c, 0, 85, 100
2, 96000, Note_on_c, 0, 72, 100
2, 96000, Note_on_c, 0, 60, 100
2, 96000, Note_on_c, 0, 108, 100
2, 96240, Note_on_c, 0, 97, 0
2, 96240, Note_on_c, 0, 85, 0
2, 96240, Note_on_c, 0, 72, 0
2, 96240, Note_on_c, 0, 60, 0
2, 96320, Note_on_c, 0, 108, 0
2, 96480, Note_on_c, 0, 108, 100
2, 96960, Note_on_c, 0, 98, 100
2, 96960, Note_on_c, 0, 97, 100
2, 96960, Note_on_c, 0, 86, 100
2, 96960, Note_on_c, 0, 85, 100
2, 96960, Note_on_c, 0, 73, 100
2, 96960, Note_on_c, 0, 61, 100
2, 97120, Note_on_c, 0, 108, 0
2, 97440, Note_on_c, 0, 108, 100
2, 97760, Note_on_c, 0, 108, 0
2, 97920, Note_on_c, 0, 108, 100
2, 98400, Note_on_c, 0, 61, 0
2, 98640, Note_on_c, 0, 73, 0
2, 98850, Note_on_c, 0, 105, 0
2, 98850, Note_on_c, 0, 93, 0
2, 98850, Note_on_c, 0, 81, 0
2, 98850, Note_on_c, 0, 69, 0
2, 98850, Note_on_c, 0, 106, 100
2, 98850, Note_on_c, 0, 94, 100
2, 98850, Note_on_c, 0, 82, 100
2, 98850, Note_on_c, 0, 70, 100
2, 98880, Note_on_c, 0, 98, 0
2, 98880, Note_on_c, 0, 97, 0
2, 98880, Note_on_c, 0, 86, 0
2, 98880, Note_on_c, 0, 85, 0
2, 98880, Note_on_c, 0, 72, 100
2, 98880, Note_on_c, 0, 97, 100
2, 98880, Note_on_c, 0, 85, 100
2, 98880, Note_on_c, 0, 60, 100
2, 99120, Note_on_c, 0, 72, 0
2, 99120, Note_on_c, 0, 97, 0
2, 99120, Note_on_c, 0, 85, 0
2, 99120, Note_on_c, 0, 60, 0
2, 99200, Note_on_c, 0, 108, 0
2, 99840, Text_t, "sing_off"
2, 99840, Text_t, "[solo]"
2, 99840, Text_t, "solo_on"
2, 99840, Text_t, "drum_double"
2, 99840, Note_on_c, 0, 98, 100
2, 99840, Note_on_c, 0, 86, 100
2, 99840, Note_on_c, 0, 73, 100
2, 99840, Note_on_c, 0, 60, 100
2, 100560, Note_on_c, 0, 98, 0
2, 100560, Note_on_c, 0, 86, 0
2, 100560, Note_on_c, 0, 73, 0
2, 100560, Note_on_c, 0, 60, 0
2, 100800, Note_on_c, 0, 98, 100
2, 100800, Note_on_c, 0, 86, 100
2, 100800, Note_on_c, 0, 73, 100
2, 100800, Note_on_c, 0, 61, 100
2, 101040, Note_on_c, 0, 98, 0
2, 101040, Note_on_c, 0, 86, 0
2, 101040, Note_on_c, 0, 73, 0
2, 101040, Note_on_c, 0, 61, 0
2, 101280, Note_on_c, 0, 97, 100
2, 101280, Note_on_c, 0, 85, 100
2, 101280, Note_on_c, 0, 72, 100
2, 101520, Note_on_c, 0, 97, 0
2, 101520, Note_on_c, 0, 85, 0
2, 101520, Note_on_c, 0, 72, 0
2, 101760, Note_on_c, 0, 98, 100
2, 101760, Note_on_c, 0, 86, 100
2, 101760, Note_on_c, 0, 73, 100
2, 101760, Note_on_c, 0, 61, 100
2, 102000, Note_on_c, 0, 98, 0
2, 102000, Note_on_c, 0, 86, 0
2, 102000, Note_on_c, 0, 73, 0
2, 102000, Note_on_c, 0, 61, 0
2, 102240, Note_on_c, 0, 100, 100
2, 102240, Note_on_c, 0, 87, 100
2, 102240, Note_on_c, 0, 74, 100
2, 102240, Note_on_c, 0, 62, 100
2, 103170, Note_on_c, 0, 106, 0
2, 103170, Note_on_c, 0, 94, 0
2, 103170, Note_on_c, 0, 82, 0
2, 103170, Note_on_c, 0, 70, 0
2, 103170, Note_on_c, 0, 105, 100
2, 103170, Note_on_c, 0, 93, 100
2, 103170, Note_on_c, 0, 81, 100
2, 103170, Note_on_c, 0, 69, 100
2, 103200, Note_on_c, 0, 100, 0
2, 103200, Note_on_c, 0, 87, 0
2, 103200, Note_on_c, 0, 74, 0
2, 103200, Note_on_c, 0, 62, 0
2, 103200, Note_on_c, 0, 98, 100
2, 103200, Note_on_c, 0, 86, 100
2, 103440, Note_on_c, 0, 98, 0
2, 103440, Note_on_c, 0, 86, 0
2, 103680, Note_on_c, 0, 97, 100
2, 103680, Note_on_c, 0, 85, 100
2, 103680, Note_on_c, 0, 72, 100
2, 103680, Note_on_c, 0, 60, 100
2, 103920, Note_on_c, 0, 97, 0
2, 103920, Note_on_c, 0, 85, 0
2, 103920, Note_on_c, 0, 72, 0
2, 103920, Note_on_c, 0, 60, 0
2, 104160, Note_on_c, 0, 98, 100
2, 104160, Note_on_c, 0, 86, 100
2, 104160, Note_on_c, 0, 73, 100
2, 104400, Note_on_c, 0, 98, 0
2, 104400, Note_on_c, 0, 86, 0
2, 104400, Note_on_c, 0, 73, 0
2, 104640, Note_on_c, 0, 97, 100
2, 104640, Note_on_c, 0, 85, 100
2, 104640, Note_on_c, 0, 72, 100
2, 104640, Note_on_c, 0, 60, 100
2, 104880, Note_on_c, 0, 97, 0
2, 104880, Note_on_c, 0, 85, 0
2, 104880, Note_on_c, 0, 72, 0
2, 104880, Note_on_c, 0, 60, 0
2, 105120, Note_on_c, 0, 100, 100
2, 105120, Note_on_c, 0, 97, 100
2, 105120, Note_on_c, 0, 87, 100
2, 105120, Note_on_c, 0, 74, 100
2, 105120, Note_on_c, 0, 62, 100
2, 106080, Note_on_c, 0, 100, 0
2, 106080, Note_on_c, 0, 97, 0
2, 106080, Note_on_c, 0, 87, 0
2, 106080, Note_on_c, 0, 74, 0
2, 106080, Note_on_c, 0, 62, 0
2, 106080, Note_on_c, 0, 98, 100
2, 106080, Note_on_c, 0, 86, 100
2, 106080, Note_on_c, 0, 73, 100
2, 106080, Note_on_c, 0, 61, 100
2, 106320, Note_on_c, 0, 98, 0
2, 106320, Note_on_c, 0, 86, 0
2, 106320, Note_on_c, 0, 73, 0
2, 106320, Note_on_c, 0, 61, 0
2, 107010, Note_on_c, 0, 105, 0
2, 107010, Note_on_c, 0, 93, 0
2, 107010, Note_on_c, 0, 81, 0
2, 107010, Note_on_c, 0, 69, 0
2, 107010, Note_on_c, 0, 106, 100
2, 107010, Note_on_c, 0, 94, 100
2, 107010, Note_on_c, 0, 82, 100
2, 107010, Note_on_c, 0, 70, 100
2, 107040, Note_on_c, 0, 97, 100
2, 107040, Note_on_c, 0, 85, 100
2, 107040, Note_on_c, 0, 72, 100
2, 107280, Note_on_c, 0, 97, 0
2, 107280, Note_on_c, 0, 85, 0
2, 107280, Note_on_c, 0, 72, 0
2, 107520, Note_on_c, 0, 98, 100
2, 107520, Note_on_c, 0, 86, 100
2, 107520, Note_on_c, 0, 73, 100
2, 107520, Note_on_c, 0, 61, 100
2, 107760, Note_on_c, 0, 98, 0
2, 107760, Note_on_c, 0, 86, 0
2, 107760, Note_on_c, 0, 73, 0
2, 107760, Note_on_c, 0, 61, 0
2, 108000, Note_on_c, 0, 97, 100
2, 108000, Note_on_c, 0, 85, 100
2, 108000, Note_on_c, 0, 72, 100
2, 108240, Note_on_c, 0, 97, 0
2, 108240, Note_on_c, 0, 85, 0
2, 108240, Note_on_c, 0, 72, 0
2, 108480, Note_on_c, 0, 98, 100
2, 108480, Note_on_c, 0, 86, 100
2, 108480, Note_on_c, 0, 73, 100
2, 108480, Note_on_c, 0, 61, 100
2, 108720, Note_on_c, 0, 98, 0
2, 108720, Note_on_c, 0, 86, 0
2, 108720, Note_on_c, 0, 73, 0
2, 108720, Note_on_c, 0, 61, 0
2, 108960, Note_on_c, 0, 97, 100
2, 108960, Note_on_c, 0, 85, 100
2, 108960, Note_on_c, 0, 72, 100
2, 109200, Note_on_c, 0, 97, 0
2, 109200, Note_on_c, 0, 85, 0
2, 109200, Note_on_c, 0, 72, 0
2, 109440, Note_on_c, 0, 98, 100
2, 109440, Note_on_c, 0, 86, 100
2, 109440, Note_on_c, 0, 73, 100
2, 109440, Note_on_c, 0, 61, 100
2, 109680, Note_on_c, 0, 98, 0
2, 109680, Note_on_c, 0, 86, 0
2, 109680, Note_on_c, 0, 73, 0
2, 109680, Note_on_c, 0, 61, 0
2, 109920, Note_on_c, 0, 100, 100
2, 109920, Note_on_c, 0, 87, 100
2, 109920, Note_on_c, 0, 74, 100
2, 109920, Note_on_c, 0, 62, 100
2, 110850, Note_on_c, 0, 106, 0
2, 110850, Note_on_c, 0, 94, 0
2, 110850, Note_on_c, 0, 82, 0
2, 110850, Note_on_c, 0, 70, 0
2, 110850, Note_on_c, 0, 105, 100
2, 110850, Note_on_c, 0, 93, 100
2, 110850, Note_on_c, 0, 81, 100
2, 110850, Note_on_c, 0, 69, 100
2, 110880, Note_on_c, 0, 100, 0
2, 110880, Note_on_c, 0, 87, 0
2, 110880, Note_on_c, 0, 74, 0
2, 110880, Note_on_c, 0, 62, 0
2, 110880, Note_on_c, 0, 98, 100
2, 110880, Note_on_c, 0, 86, 100
2, 111120, Note_on_c, 0, 98, 0
2, 111120, Note_on_c, 0, 86, 0
2, 111360, Note_on_c, 0, 85, 100
2, 111360, Note_on_c, 0, 97, 100
2, 111360, Note_on_c, 0, 72, 100
2, 111360, Note_on_c, 0, 60, 100
2, 111600, Note_on_c, 0, 85, 0
2, 111600, Note_on_c, 0, 97, 0
2, 111600, Note_on_c, 0, 72, 0
2, 111600, Note_on_c, 0, 60, 0
2, 111840, Note_on_c, 0, 86, 100
2, 111840, Note_on_c, 0, 98, 100
2, 111840, Note_on_c, 0, 73, 100
2, 112080, Note_on_c, 0, 86, 0
2, 112080, Note_on_c, 0, 98, 0
2, 112080, Note_on_c, 0, 73, 0
2, 112320, Note_on_c, 0, 99, 100
2, 112320, Note_on_c, 0, 87, 100
2, 112320, Note_on_c, 0, 74, 100
2, 112320, Note_on_c, 0, 62, 100
2, 112560, Note_on_c, 0, 99, 0
2, 112560, Note_on_c, 0, 87, 0
2, 112560, Note_on_c, 0, 74, 0
2, 112560, Note_on_c, 0, 62, 0
2, 112800, Note_on_c, 0, 98, 100
2, 112800, Note_on_c, 0, 97, 100
2, 112800, Note_on_c, 0, 86, 100
2, 112800, Note_on_c, 0, 85, 100
2, 112800, Note_on_c, 0, 73, 100
2, 112800, Note_on_c, 0, 61, 100
2, 113520, Note_on_c, 0, 98, 0
2, 113520, Note_on_c, 0, 97, 0
2, 113520, Note_on_c, 0, 86, 0
2, 113520, Note_on_c, 0, 85, 0
2, 113520, Note_on_c, 0, 73, 0
2, 113520, Note_on_c, 0, 61, 0
2, 113760, Note_on_c, 0, 96, 100
2, 113760, Note_on_c, 0, 98, 100
2, 113760, Note_on_c, 0, 84, 100
2, 113760, Note_on_c, 0, 86, 100
2, 113760, Note_on_c, 0, 72, 100
2, 113760, Note_on_c, 0, 60, 100
2, 114480, Note_on_c, 0, 96, 0
2, 114480, Note_on_c, 0, 98, 0
2, 114480, Note_on_c, 0, 84, 0
2, 114480, Note_on_c, 0, 86, 0
2, 114480, Note_on_c, 0, 72, 0
2, 114480, Note_on_c, 0, 60, 0
2, 114690, Note_on_c, 0, 105, 0
2, 114690, Note_on_c, 0, 93, 0
2, 114690, Note_on_c, 0, 81, 0
2, 114690, Note_on_c, 0, 69, 0
2, 114690, Note_on_c, 0, 106, 100
2, 114690, Note_on_c, 0, 94, 100
2, 114690, Note_on_c, 0, 82, 100
2, 114690, Note_on_c, 0, 70, 100
2, 114720, Note_on_c, 0, 96, 100
2, 114720, Note_on_c, 0, 84, 100
2, 114720, Note_on_c, 0, 72, 100
2, 114960, Note_on_c, 0, 96, 0
2, 114960, Note_on_c, 0, 84, 0
2, 114960, Note_on_c, 0, 72, 0
2, 115200, Note_on_c, 0, 97, 100
2, 115200, Note_on_c, 0, 85, 100
2, 115200, Note_on_c, 0, 72, 100
2, 115200, Note_on_c, 0, 60, 100
2, 115440, Note_on_c, 0, 97, 0
2, 115440, Note_on_c, 0, 85, 0
2, 115440, Note_on_c, 0, 72, 0
2, 115440, Note_on_c, 0, 60, 0
2, 115440, Note_on_c, 0, 96, 100
2, 115680, Note_on_c, 0, 96, 0
2, 115680, Note_on_c, 0, 98, 100
2, 115680, Note_on_c, 0, 86, 100
2, 115680, Note_on_c, 0, 73, 100
2, 115680, Note_on_c, 0, 60, 100
2, 115920, Note_on_c, 0, 98, 0
2, 115920, Note_on_c, 0, 86, 0
2, 115920, Note_on_c, 0, 73, 0
2, 115920, Note_on_c, 0, 60, 0
2, 115920, Note_on_c, 0, 96, 100
2, 116160, Note_on_c, 0, 96, 0
2, 116160, Note_on_c, 0, 99, 100
2, 116160, Note_on_c, 0, 87, 100
2, 116160, Note_on_c, 0, 74, 100
2, 116160, Note_on_c, 0, 62, 100
2, 116400, Note_on_c, 0, 99, 0
2, 116400, Note_on_c, 0, 87, 0
2, 116400, Note_on_c, 0, 74, 0
2, 116400, Note_on_c, 0, 62, 0
2, 116400, Note_on_c, 0, 96, 100
2, 116400, Note_on_c, 0, 85, 100
2, 116640, Note_on_c, 0, 96, 0
2, 116640, Note_on_c, 0, 85, 0
2, 116640, Note_on_c, 0, 98, 100
2, 116640, Note_on_c, 0, 86, 100
2, 116640, Note_on_c, 0, 73, 100
2, 116880, Note_on_c, 0, 98, 0
2, 116880, Note_on_c, 0, 86, 0
2, 116880, Note_on_c, 0, 73, 0
2, 116880, Note_on_c, 0, 96, 100
2, 117090, Note_on_c, 0, 106, 0
2, 117090, Note_on_c, 0, 94, 0
2, 117090, Note_on_c, 0, 82, 0
2, 117090, Note_on_c, 0, 70, 0
2, 117090, Note_on_c, 0, 105, 100
2, 117090, Note_on_c, 0, 93, 100
2, 117090, Note_on_c, 0, 81, 100
2, 117090, Note_on_c, 0, 69, 100
2, 117120, Note_on_c, 0, 96, 0
2, 117120, Note_on_c, 0, 97, 100
2, 117120, Note_on_c, 0, 85, 100
2, 117120, Note_on_c, 0, 72, 100
2, 117120, Note_on_c, 0, 60, 100
2, 117360, Note_on_c, 0, 97, 0
2, 117360, Note_on_c, 0, 85, 0
2, 117360, Note_on_c, 0, 72, 0
2, 117360, Note_on_c, 0, 60, 0
2, 117360, Note_on_c, 0, 96, 100
2, 117600, Note_on_c, 0, 96, 0
2, 117600, Note_on_c, 0, 98, 100
2, 117600, Note_on_c, 0, 86, 100
2, 117600, Note_on_c, 0, 73, 100
2, 117600, Note_on_c, 0, 60, 100
2, 117840, Note_on_c, 0, 98, 0
2, 117840, Note_on_c, 0, 86, 0
2, 117840, Note_on_c, 0, 73, 0
2, 117840, Note_on_c, 0, 60, 0
2, 117840, Note_on_c, 0, 96, 100
2, 118080, Note_on_c, 0, 96, 0
2, 118080, Note_on_c, 0, 99, 100
2, 118080, Note_on_c, 0, 87, 100
2, 118080, Note_on_c, 0, 74, 100
2, 118080, Note_on_c, 0, 62, 100
2, 118320, Note_on_c, 0, 99, 0
2, 118320, Note_on_c, 0, 87, 0
2, 118320, Note_on_c, 0, 74, 0
2, 118320, Note_on_c, 0, 62, 0
2, 118320, Note_on_c, 0, 96, 100
2, 118320, Note_on_c, 0, 85, 100
2, 118560, Note_on_c, 0, 96, 0
2, 118560, Note_on_c, 0, 85, 0
2, 118560, Note_on_c, 0, 98, 100
2, 118560, Note_on_c, 0, 86, 100
2, 118560, Note_on_c, 0, 73, 100
2, 118800, Note_on_c, 0, 98, 0
2, 118800, Note_on_c, 0, 86, 0
2, 118800, Note_on_c, 0, 73, 0
2, 118800, Note_on_c, 0, 96, 100
2, 119010, Note_on_c, 0, 105, 0
2, 119010, Note_on_c, 0, 93, 0
2, 119010, Note_on_c, 0, 81, 0
2, 119010, Note_on_c, 0, 69, 0
2, 119010, Note_on_c, 0, 106, 100
2, 119010, Note_on_c, 0, 94, 100
2, 119010, Note_on_c, 0, 82, 100
2, 119010, Note_on_c, 0, 70, 100
2, 119040, Note_on_c, 0, 96, 0
2, 119040, Note_on_c, 0, 97, 100
2, 119040, Note_on_c, 0, 85, 100
2, 119040, Note_on_c, 0, 72, 100
2, 119040, Note_on_c, 0, 60, 100
2, 119280, Note_on_c, 0, 97, 0
2, 119280, Note_on_c, 0, 85, 0
2, 119280, Note_on_c, 0, 72, 0
2, 119280, Note_on_c, 0, 60, 0
2, 119280, Note_on_c, 0, 96, 100
2, 119520, Note_on_c, 0, 96, 0
2, 119520, Note_on_c, 0, 98, 100
2, 119520, Note_on_c, 0, 86, 100
2, 119520, Note_on_c, 0, 73, 100
2, 119520, Note_on_c, 0, 60, 100
2, 119760, Note_on_c, 0, 98, 0
2, 119760, Note_on_c, 0, 86, 0
2, 119760, Note_on_c, 0, 73, 0
2, 119760, Note_on_c, 0, 60, 0
2, 119760, Note_on_c, 0, 96, 100
2, 120000, Note_on_c, 0, 96, 0
2, 120000, Note_on_c, 0, 99, 100
2, 120000, Note_on_c, 0, 87, 100
2, 120000, Note_on_c, 0, 74, 100
2, 120000, Note_on_c, 0, 62, 100
2, 120240, Note_on_c, 0, 99, 0
2, 120240, Note_on_c, 0, 87, 0
2, 120240, Note_on_c, 0, 74, 0
2, 120240, Note_on_c, 0, 62, 0
2, 120240, Note_on_c, 0, 96, 100
2, 120240, Note_on_c, 0, 85, 100
2, 120480, Note_on_c, 0, 96, 0
2, 120480, Note_on_c, 0, 85, 0
2, 120480, Note_on_c, 0, 98, 100
2, 120480, Note_on_c, 0, 86, 100
2, 120480, Note_on_c, 0, 73, 100
2, 120720, Note_on_c, 0, 98, 0
2, 120720, Note_on_c, 0, 86, 0
2, 120720, Note_on_c, 0, 73, 0
2, 120720, Note_on_c, 0, 96, 100
2, 120930, Note_on_c, 0, 106, 0
2, 120930, Note_on_c, 0, 94, 0
2, 120930, Note_on_c, 0, 82, 0
2, 120930, Note_on_c, 0, 70, 0
2, 120930, Note_on_c, 0, 105, 100
2, 120930, Note_on_c, 0, 93, 100
2, 120930, Note_on_c, 0, 81, 100
2, 120930, Note_on_c, 0, 69, 100
2, 120960, Note_on_c, 0, 96, 0
2, 120960, Note_on_c, 0, 97, 100
2, 120960, Note_on_c, 0, 72, 100
2, 120960, Note_on_c, 0, 60, 100
2, 120960, Note_on_c, 0, 85, 100
2, 121200, Note_on_c, 0, 97, 0
2, 121200, Note_on_c, 0, 72, 0
2, 121200, Note_on_c, 0, 60, 0
2, 121200, Note_on_c, 0, 85, 0
2, 121200, Note_on_c, 0, 96, 100
2, 121440, Note_on_c, 0, 96, 0
2, 121440, Note_on_c, 0, 98, 100
2, 121440, Note_on_c, 0, 86, 100
2, 121440, Note_on_c, 0, 73, 100
2, 121440, Note_on_c, 0, 60, 100
2, 121680, Note_on_c, 0, 98, 0
2, 121680, Note_on_c, 0, 86, 0
2, 121680, Note_on_c, 0, 73, 0
2, 121680, Note_on_c, 0, 60, 0
2, 121680, Note_on_c, 0, 96, 100
2, 121920, Note_on_c, 0, 96, 0
2, 121920, Note_on_c, 0, 99, 100
2, 121920, Note_on_c, 0, 87, 100
2, 121920, Note_on_c, 0, 74, 100
2, 121920, Note_on_c, 0, 62, 100
2, 122160, Note_on_c, 0, 99, 0
2, 122160, Note_on_c, 0, 87, 0
2, 122160, Note_on_c, 0, 74, 0
2, 122160, Note_on_c, 0, 62, 0
2, 122160, Note_on_c, 0, 96, 100
2, 122400, Note_on_c, 0, 96, 0
2, 122400, Note_on_c, 0, 97, 100
2, 122400, Note_on_c, 0, 85, 100
2, 122400, Note_on_c, 0, 72, 100
2, 122640, Note_on_c, 0, 97, 0
2, 122640, Note_on_c, 0, 85, 0
2, 122640, Note_on_c, 0, 72, 0
2, 122850, Note_on_c, 0, 105, 0
2, 122850, Note_on_c, 0, 93, 0
2, 122850, Note_on_c, 0, 81, 0
2, 122850, Note_on_c, 0, 69, 0
2, 122850, Note_on_c, 0, 106, 100
2, 122850, Note_on_c, 0, 94, 100
2, 122850, Note_on_c, 0, 82, 100
2, 122850, Note_on_c, 0, 70, 100
2, 122880, Note_on_c, 0, 98, 100
2, 122880, Note_on_c, 0, 86, 100
2, 122880, Note_on_c, 0, 73, 100
2, 122880, Note_on_c, 0, 61, 100
2, 123120, Note_on_c, 0, 98, 0
2, 123120, Note_on_c, 0, 86, 0
2, 123120, Note_on_c, 0, 73, 0
2, 123120, Note_on_c, 0, 61, 0
2, 123120, Note_on_c, 0, 97, 100
2, 123360, Note_on_c, 0, 97, 0
2, 123360, Note_on_c, 0, 99, 100
2, 123360, Note_on_c, 0, 87, 100
2, 123360, Note_on_c, 0, 74, 100
2, 123360, Note_on_c, 0, 61, 100
2, 123600, Note_on_c, 0, 99, 0
2, 123600, Note_on_c, 0, 87, 0
2, 123600, Note_on_c, 0, 74, 0
2, 123600, Note_on_c, 0, 61, 0
2, 123600, Note_on_c, 0, 97, 100
2, 123840, Note_on_c, 0, 97, 0
2, 123840, Note_on_c, 0, 100, 100
2, 123840, Note_on_c, 0, 88, 100
2, 123840, Note_on_c, 0, 75, 100
2, 123840, Note_on_c, 0, 62, 100
2, 124080, Note_on_c, 0, 100, 0
2, 124080, Note_on_c, 0, 88, 0
2, 124080, Note_on_c, 0, 75, 0
2, 124080, Note_on_c, 0, 62, 0
2, 124080, Note_on_c, 0, 97, 100
2, 124080, Note_on_c, 0, 86, 100
2, 124320, Note_on_c, 0, 97, 0
2, 124320, Note_on_c, 0, 86, 0
2, 124320, Note_on_c, 0, 99, 100
2, 124320, Note_on_c, 0, 87, 100
2, 124320, Note_on_c, 0, 74, 100
2, 124560, Note_on_c, 0, 99, 0
2, 124560, Note_on_c, 0, 87, 0
2, 124560, Note_on_c, 0, 74, 0
2, 124560, Note_on_c, 0, 97, 100
2, 124770, Note_on_c, 0, 106, 0
2, 124770, Note_on_c, 0, 94, 0
2, 124770, Note_on_c, 0, 82, 0
2, 124770, Note_on_c, 0, 70, 0
2, 124770, Note_on_c, 0, 105, 100
2, 124770, Note_on_c, 0, 93, 100
2, 124770, Note_on_c, 0, 81, 100
2, 124770, Note_on_c, 0, 69, 100
2, 124800, Note_on_c, 0, 97, 0
2, 124800, Note_on_c, 0, 98, 100
2, 124800, Note_on_c, 0, 86, 100
2, 124800, Note_on_c, 0, 73, 100
2, 124800, Note_on_c, 0, 61, 100
2, 125040, Note_on_c, 0, 98, 0
2, 125040, Note_on_c, 0, 86, 0
2, 125040, Note_on_c, 0, 73, 0
2, 125040, Note_on_c, 0, 61, 0
2, 125040, Note_on_c, 0, 97, 100
2, 125280, Note_on_c, 0, 97, 0
2, 125280, Note_on_c, 0, 99, 100
2, 125280, Note_on_c, 0, 87, 100
2, 125280, Note_on_c, 0, 74, 100
2, 125280, Note_on_c, 0, 61, 100
2, 125520, Note_on_c, 0, 99, 0
2, 125520, Note_on_c, 0, 87, 0
2, 125520, Note_on_c, 0, 74, 0
2, 125520, Note_on_c, 0, 61, 0
2, 125520, Note_on_c, 0, 97, 100
2, 125760, Note_on_c, 0, 97, 0
2, 125760, Note_on_c, 0, 100, 100
2, 125760, Note_on_c, 0, 88, 100
2, 125760, Note_on_c, 0, 75, 100
2, 125760, Note_on_c, 0, 62, 100
2, 126000, Note_on_c, 0, 100, 0
2, 126000, Note_on_c, 0, 88, 0
2, 126000, Note_on_c, 0, 75, 0
2, 126000, Note_on_c, 0, 62, 0
2, 126000, Note_on_c, 0, 97, 100
2, 126000, Note_on_c, 0, 86, 100
2, 126240, Note_on_c, 0, 97, 0
2, 126240, Note_on_c, 0, 86, 0
2, 126240, Note_on_c, 0, 99, 100
2, 126240, Note_on_c, 0, 87, 100
2, 126240, Note_on_c, 0, 74, 100
2, 126480, Note_on_c, 0, 99, 0
2, 126480, Note_on_c, 0, 87, 0
2, 126480, Note_on_c, 0, 74, 0
2, 126480, Note_on_c, 0, 97, 100
2, 126690, Note_on_c, 0, 103, 100
2, 126690, Note_on_c, 0, 106, 100
2, 126690, Note_on_c, 0, 94, 100
2, 126690, Note_on_c, 0, 82, 100
2, 126690, Note_on_c, 0, 70, 100
2, 126690, Note_on_c, 0, 91, 100
2, 126690, Note_on_c, 0, 79, 100
2, 126690, Note_on_c, 0, 67, 100
2, 126720, Note_on_c, 0, 97, 0
2, 126720, Note_on_c, 0, 99, 100
2, 126720, Note_on_c, 0, 87, 100
2, 126720, Note_on_c, 0, 75, 100
2, 126720, Note_on_c, 0, 62, 100
2, 129570, Note_on_c, 0, 105, 0
2, 129570, Note_on_c, 0, 93, 0
2, 129570, Note_on_c, 0, 81, 0
2, 129570, Note_on_c, 0, 69, 0
2, 129570, Note_on_c, 0, 103, 0
2, 129570, Note_on_c, 0, 91, 0
2, 129570, Note_on_c, 0, 79, 0
2, 129570, Note_on_c, 0, 67, 0
2, 129600, Note_on_c, 0, 99, 0
2, 129600, Note_on_c, 0, 87, 0
2, 129600, Note_on_c, 0, 75, 0
2, 129600, Note_on_c, 0, 62, 0
2, 129600, Note_on_c, 0, 100, 100
2, 129600, Note_on_c, 0, 88, 100
2, 129600, Note_on_c, 0, 74, 100
2, 130240, Note_on_c, 0, 108, 100
2, 130320, Note_on_c, 0, 100, 0
2, 130320, Note_on_c, 0, 88, 0
2, 130320, Note_on_c, 0, 74, 0
2, 130480, Note_on_c, 0, 108, 0
2, 130530, Note_on_c, 0, 105, 100
2, 130530, Note_on_c, 0, 93, 100
2, 130530, Note_on_c, 0, 81, 100
2, 130530, Note_on_c, 0, 69, 100
2, 130560, Text_t, "solo_off"
2, 130560, Text_t, "[lighting (sweep)]"
2, 130560, Text_t, "[chorus]"
2, 130560, Text_t, "sing_on"
2, 130560, Text_t, "drum_normal"
2, 130560, Note_on_c, 0, 96, 100
2, 130560, Note_on_c, 0, 84, 100
2, 130560, Note_on_c, 0, 72, 100
2, 130560, Note_on_c, 0, 60, 100
2, 130560, Note_on_c, 0, 108, 100
2, 130800, Note_on_c, 0, 96, 0
2, 130800, Note_on_c, 0, 84, 0
2, 130800, Note_on_c, 0, 72, 0
2, 130800, Note_on_c, 0, 60, 0
2, 131040, Note_on_c, 0, 96, 100
2, 131040, Note_on_c, 0, 98, 100
2, 131040, Note_on_c, 0, 84, 100
2, 131040, Note_on_c, 0, 86, 100
2, 131040, Note_on_c, 0, 72, 100
2, 131040, Note_on_c, 0, 73, 100
2, 131040, Note_on_c, 0, 60, 100
2, 131280, Note_on_c, 0, 96, 0
2, 131280, Note_on_c, 0, 98, 0
2, 131280, Note_on_c, 0, 84, 0
2, 131280, Note_on_c, 0, 86, 0
2, 131280, Note_on_c, 0, 72, 0
2, 131280, Note_on_c, 0, 73, 0
2, 131280, Note_on_c, 0, 60, 0
2, 131760, Note_on_c, 0, 108, 0
2, 132000, Note_on_c, 0, 96, 100
2, 132000, Note_on_c, 0, 98, 100
2, 132000, Note_on_c, 0, 84, 100
2, 132000, Note_on_c, 0, 86, 100
2, 132000, Note_on_c, 0, 72, 100
2, 132000, Note_on_c, 0, 73, 100
2, 132000, Note_on_c, 0, 60, 100
2, 132000, Note_on_c, 0, 108, 100
2, 132240, Note_on_c, 0, 96, 0
2, 132240, Note_on_c, 0, 98, 0
2, 132240, Note_on_c, 0, 84, 0
2, 132240, Note_on_c, 0, 86, 0
2, 132240, Note_on_c, 0, 72, 0
2, 132240, Note_on_c, 0, 73, 0
2, 132240, Note_on_c, 0, 60, 0
2, 132240, Note_on_c, 0, 108, 0
2, 132480, Note_on_c, 0, 108, 100
2, 132960, Note_on_c, 0, 96, 100
2, 132960, Note_on_c, 0, 84, 100
2, 132960, Note_on_c, 0, 72, 100
2, 132960, Note_on_c, 0, 60, 100
2, 133200, Note_on_c, 0, 108, 0
2, 133200, Note_on_c, 0, 96, 0
2, 133200, Note_on_c, 0, 84, 0
2, 133200, Note_on_c, 0, 72, 0
2, 133200, Note_on_c, 0, 60, 0
2, 133440, Note_on_c, 0, 98, 100
2, 133440, Note_on_c, 0, 87, 100
2, 133440, Note_on_c, 0, 75, 100
2, 133440, Note_on_c, 0, 62, 100
2, 133440, Note_on_c, 0, 99, 100
2, 133680, Note_on_c, 0, 98, 0
2, 133680, Note_on_c, 0, 87, 0
2, 133680, Note_on_c, 0, 75, 0
2, 133680, Note_on_c, 0, 62, 0
2, 133680, Note_on_c, 0, 99, 0
2, 133920, Note_on_c, 0, 97, 100
2, 133920, Note_on_c, 0, 99, 100
2, 133920, Note_on_c, 0, 86, 100
2, 133920, Note_on_c, 0, 108, 100
2, 134160, Note_on_c, 0, 97, 0
2, 134160, Note_on_c, 0, 99, 0
2, 134160, Note_on_c, 0, 86, 0
2, 134400, Note_on_c, 0, 96, 100
2, 134400, Note_on_c, 0, 84, 100
2, 134400, Note_on_c, 0, 72, 100
2, 134400, Note_on_c, 0, 60, 100
2, 134640, Note_on_c, 0, 96, 0
2, 134640, Note_on_c, 0, 84, 0
2, 134640, Note_on_c, 0, 72, 0
2, 134640, Note_on_c, 0, 60, 0
2, 134880, Note_on_c, 0, 96, 100
2, 134880, Note_on_c, 0, 98, 100
2, 134880, Note_on_c, 0, 84, 100
2, 134880, Note_on_c, 0, 86, 100
2, 134880, Note_on_c, 0, 72, 100
2, 134880, Note_on_c, 0, 73, 100
2, 134880, Note_on_c, 0, 60, 100
2, 135120, Note_on_c, 0, 96, 0
2, 135120, Note_on_c, 0, 98, 0
2, 135120, Note_on_c, 0, 84, 0
2, 135120, Note_on_c, 0, 86, 0
2, 135120, Note_on_c, 0, 72, 0
2, 135120, Note_on_c, 0, 73, 0
2, 135120, Note_on_c, 0, 60, 0
2, 135600, Note_on_c, 0, 108, 0
2, 135840, Note_on_c, 0, 96, 100
2, 135840, Note_on_c, 0, 98, 100
2, 135840, Note_on_c, 0, 84, 100
2, 135840, Note_on_c, 0, 86, 100
2, 135840, Note_on_c, 0, 72, 100
2, 135840, Note_on_c, 0, 73, 100
2, 135840, Note_on_c, 0, 60, 100
2, 135840, Note_on_c, 0, 108, 100
2, 136080, Note_on_c, 0, 96, 0
2, 136080, Note_on_c, 0, 98, 0
2, 136080, Note_on_c, 0, 84, 0
2, 136080, Note_on_c, 0, 86, 0
2, 136080, Note_on_c, 0, 72, 0
2, 136080, Note_on_c, 0, 73, 0
2, 136080, Note_on_c, 0, 60, 0
2, 136160, Note_on_c, 0, 108, 0
2, 136320, Note_on_c, 0, 108, 100
2, 136800, Note_on_c, 0, 96, 100
2, 136800, Note_on_c, 0, 84, 100
2, 136800, Note_on_c, 0, 72, 100
2, 136800, Note_on_c, 0, 60, 100
2, 137040, Note_on_c, 0, 96, 0
2, 137040, Note_on_c, 0, 84, 0
2, 137040, Note_on_c, 0, 72, 0
2, 137040, Note_on_c, 0, 60, 0
2, 137280, Note_on_c, 0, 97, 100
2, 137280, Note_on_c, 0, 99, 100
2, 137280, Note_on_c, 0, 85, 100
2, 137280, Note_on_c, 0, 74, 100
2, 137280, Note_on_c, 0, 61, 100
2, 137280, Note_on_c, 0, 87, 100
2, 137600, Note_on_c, 0, 108, 0
2, 137760, Note_on_c, 0, 108, 100
2, 137920, Note_on_c, 0, 108, 0
2, 138000, Note_on_c, 0, 97, 0
2, 138000, Note_on_c, 0, 99, 0
2, 138000, Note_on_c, 0, 85, 0
2, 138000, Note_on_c, 0, 74, 0
2, 138000, Note_on_c, 0, 61, 0
2, 138000, Note_on_c, 0, 87, 0
2, 138000, Note_on_c, 0, 108, 100
2, 138160, Note_on_c, 0, 108, 0
2, 138240, Note_on_c, 0, 96, 100
2, 138240, Note_on_c, 0, 84, 100
2, 138240, Note_on_c, 0, 72, 100
2, 138240, Note_on_c, 0, 60, 100
2, 138240, Note_on_c, 0, 108, 100
2, 138480, Note_on_c, 0, 96, 0
2, 138480, Note_on_c, 0, 84, 0
2, 138480, Note_on_c, 0, 72, 0
2, 138480, Note_on_c, 0, 60, 0
2, 138480, Note_on_c, 0, 108, 0
2, 138720, Note_on_c, 0, 96, 100
2, 138720, Note_on_c, 0, 98, 100
2, 138720, Note_on_c, 0, 84, 100
2, 138720, Note_on_c, 0, 86, 100
2, 138720, Note_on_c, 0, 72, 100
2, 138720, Note_on_c, 0, 73, 100
2, 138720, Note_on_c, 0, 60, 100
2, 138720, Note_on_c, 0, 108, 100
2, 138960, Note_on_c, 0, 96, 0
2, 138960, Note_on_c, 0, 98, 0
2, 138960, Note_on_c, 0, 84, 0
2, 138960, Note_on_c, 0, 86, 0
2, 138960, Note_on_c, 0, 72, 0
2, 138960, Note_on_c, 0, 73, 0
2, 138960, Note_on_c, 0, 60, 0
2, 139680, Note_on_c, 0, 96, 100
2, 139680, Note_on_c, 0, 98, 100
2, 139680, Note_on_c, 0, 84, 100
2, 139680, Note_on_c, 0, 86, 100
2, 139680, Note_on_c, 0, 72, 100
2, 139680, Note_on_c, 0, 73, 100
2, 139680, Note_on_c, 0, 60, 100
2, 139840, Note_on_c, 0, 108, 0
2, 139920, Note_on_c, 0, 96, 0
2, 139920, Note_on_c, 0, 98, 0
2, 139920, Note_on_c, 0, 84, 0
2, 139920, Note_on_c, 0, 86, 0
2, 139920, Note_on_c, 0, 72, 0
2, 139920, Note_on_c, 0, 73, 0
2, 139920, Note_on_c, 0, 60, 0
2, 140160, Note_on_c, 0, 108, 100
2, 140640, Note_on_c, 0, 96, 100
2, 140640, Note_on_c, 0, 84, 100
2, 140640, Note_on_c, 0, 72, 100
2, 140640, Note_on_c, 0, 60, 100
2, 140880, Note_on_c, 0, 96, 0
2, 140880, Note_on_c, 0, 84, 0
2, 140880, Note_on_c, 0, 72, 0
2, 140880, Note_on_c, 0, 60, 0
2, 141120, Note_on_c, 0, 108, 0
2, 141120, Note_on_c, 0, 98, 100
2, 141120, Note_on_c, 0, 87, 100
2, 141120, Note_on_c, 0, 75, 100
2, 141120, Note_on_c, 0, 62, 100
2, 141120, Note_on_c, 0, 99, 100
2, 141360, Note_on_c, 0, 98, 0
2, 141360, Note_on_c, 0, 87, 0
2, 141360, Note_on_c, 0, 75, 0
2, 141360, Note_on_c, 0, 62, 0
2, 141360, Note_on_c, 0, 99, 0
2, 141600, Note_on_c, 0, 97, 100
2, 141600, Note_on_c, 0, 99, 100
2, 141600, Note_on_c, 0, 86, 100
2, 141600, Note_on_c, 0, 108, 100
2, 141840, Note_on_c, 0, 97, 0
2, 141840, Note_on_c, 0, 99, 0
2, 141840, Note_on_c, 0, 86, 0
2, 141920, Note_on_c, 0, 108, 0
2, 142080, Note_on_c, 0, 96, 100
2, 142080, Note_on_c, 0, 84, 100
2, 142080, Note_on_c, 0, 72, 100
2, 142080, Note_on_c, 0, 60, 100
2, 142080, Note_on_c, 0, 108, 100
2, 142320, Note_on_c, 0, 96, 0
2, 142320, Note_on_c, 0, 84, 0
2, 142320, Note_on_c, 0, 72, 0
2, 142320, Note_on_c, 0, 60, 0
2, 142560, Note_on_c, 0, 96, 100
2, 142560, Note_on_c, 0, 98, 100
2, 142560, Note_on_c, 0, 84, 100
2, 142560, Note_on_c, 0, 86, 100
2, 142560, Note_on_c, 0, 72, 100
2, 142560, Note_on_c, 0, 73, 100
2, 142560, Note_on_c, 0, 60, 100
2, 142800, Note_on_c, 0, 96, 0
2, 142800, Note_on_c, 0, 98, 0
2, 142800, Note_on_c, 0, 84, 0
2, 142800, Note_on_c, 0, 86, 0
2, 142800, Note_on_c, 0, 72, 0
2, 142800, Note_on_c, 0, 73, 0
2, 142800, Note_on_c, 0, 60, 0
2, 143200, Note_on_c, 0, 108, 0
2, 143520, Note_on_c, 0, 96, 100
2, 143520, Note_on_c, 0, 98, 100
2, 143520, Note_on_c, 0, 84, 100
2, 143520, Note_on_c, 0, 86, 100
2, 143520, Note_on_c, 0, 72, 100
2, 143520, Note_on_c, 0, 73, 100
2, 143520, Note_on_c, 0, 60, 100
2, 143520, Note_on_c, 0, 108, 100
2, 143760, Note_on_c, 0, 96, 0
2, 143760, Note_on_c, 0, 98, 0
2, 143760, Note_on_c, 0, 84, 0
2, 143760, Note_on_c, 0, 86, 0
2, 143760, Note_on_c, 0, 72, 0
2, 143760, Note_on_c, 0, 73, 0
2, 143760, Note_on_c, 0, 60, 0
2, 143840, Note_on_c, 0, 108, 0
2, 144000, Note_on_c, 0, 108, 100
2, 144480, Note_on_c, 0, 96, 100
2, 144480, Note_on_c, 0, 84, 100
2, 144480, Note_on_c, 0, 72, 100
2, 144480, Note_on_c, 0, 60, 100
2, 144720, Note_on_c, 0, 96, 0
2, 144720, Note_on_c, 0, 84, 0
2, 144720, Note_on_c, 0, 72, 0
2, 144720, Note_on_c, 0, 60, 0
2, 144720, Note_on_c, 0, 96, 100
2, 144720, Note_on_c, 0, 84, 100
2, 144960, Note_on_c, 0, 108, 0
2, 144960, Note_on_c, 0, 96, 0
2, 144960, Note_on_c, 0, 84, 0
2, 144960, Note_on_c, 0, 73, 100
2, 144960, Note_on_c, 0, 61, 100
2, 144960, Note_on_c, 0, 85, 100
2, 144960, Note_on_c, 0, 86, 100
2, 144960, Note_on_c, 0, 98, 100
2, 144960, Note_on_c, 0, 97, 100
2, 145200, Note_on_c, 0, 98, 0
2, 145200, Note_on_c, 0, 97, 0
2, 145440, Note_on_c, 0, 96, 100
2, 145440, Note_on_c, 0, 108, 100
2, 145680, Note_on_c, 0, 73, 0
2, 145680, Note_on_c, 0, 61, 0
2, 145680, Note_on_c, 0, 85, 0
2, 145680, Note_on_c, 0, 86, 0
2, 145680, Note_on_c, 0, 96, 0
2, 145680, Note_on_c, 0, 96, 100
2, 145760, Note_on_c, 0, 108, 0
2, 145920, Note_on_c, 0, 96, 0
2, 145920, Note_on_c, 0, 96, 100
2, 145920, Note_on_c, 0, 84, 100
2, 145920, Note_on_c, 0, 72, 100
2, 145920, Note_on_c, 0, 60, 100
2, 145920, Note_on_c, 0, 108, 100
2, 146160, Note_on_c, 0, 96, 0
2, 146160, Note_on_c, 0, 84, 0
2, 146160, Note_on_c, 0, 72, 0
2, 146160, Note_on_c, 0, 60, 0
2, 146240, Note_on_c, 0, 108, 0
2, 146400, Note_on_c, 0, 96, 100
2, 146400, Note_on_c, 0, 98, 100
2, 146400, Note_on_c, 0, 84, 100
2, 146400, Note_on_c, 0, 86, 100
2, 146400, Note_on_c, 0, 72, 100
2, 146400, Note_on_c, 0, 73, 100
2, 146400, Note_on_c, 0, 60, 100
2, 146400, Note_on_c, 0, 108, 100
2, 146640, Note_on_c, 0, 96, 0
2, 146640, Note_on_c, 0, 98, 0
2, 146640, Note_on_c, 0, 84, 0
2, 146640, Note_on_c, 0, 86, 0
2, 146640, Note_on_c, 0, 72, 0
2, 146640, Note_on_c, 0, 73, 0
2, 146640, Note_on_c, 0, 60, 0
2, 147200, Note_on_c, 0, 108, 0
2, 147360, Note_on_c, 0, 96, 100
2, 147360, Note_on_c, 0, 98, 100
2, 147360, Note_on_c, 0, 84, 100
2, 147360, Note_on_c, 0, 86, 100
2, 147360, Note_on_c, 0, 72, 100
2, 147360, Note_on_c, 0, 73, 100
2, 147360, Note_on_c, 0, 60, 100
2, 147360, Note_on_c, 0, 108, 100
2, 147600, Note_on_c, 0, 96, 0
2, 147600, Note_on_c, 0, 98, 0
2, 147600, Note_on_c, 0, 84, 0
2, 147600, Note_on_c, 0, 86, 0
2, 147600, Note_on_c, 0, 72, 0
2, 147600, Note_on_c, 0, 73, 0
2, 147600, Note_on_c, 0, 60, 0
2, 147680, Note_on_c, 0, 108, 0
2, 147840, Note_on_c, 0, 108, 100
2, 148320, Note_on_c, 0, 96, 100
2, 148320, Note_on_c, 0, 84, 100
2, 148320, Note_on_c, 0, 72, 100
2, 148320, Note_on_c, 0, 60, 100
2, 148560, Note_on_c, 0, 96, 0
2, 148560, Note_on_c, 0, 84, 0
2, 148560, Note_on_c, 0, 72, 0
2, 148560, Note_on_c, 0, 60, 0
2, 148800, Note_on_c, 0, 98, 100
2, 148800, Note_on_c, 0, 87, 100
2, 148800, Note_on_c, 0, 75, 100
2, 148800, Note_on_c, 0, 62, 100
2, 148800, Note_on_c, 0, 99, 100
2, 148960, Note_on_c, 0, 108, 0
2, 149040, Note_on_c, 0, 98, 0
2, 149040, Note_on_c, 0, 87, 0
2, 149040, Note_on_c, 0, 75, 0
2, 149040, Note_on_c, 0, 62, 0
2, 149040, Note_on_c, 0, 99, 0
2, 149280, Note_on_c, 0, 97, 100
2, 149280, Note_on_c, 0, 99, 100
2, 149280, Note_on_c, 0, 86, 100
2, 149280, Note_on_c, 0, 108, 100
2, 149520, Note_on_c, 0, 97, 0
2, 149520, Note_on_c, 0, 99, 0
2, 149520, Note_on_c, 0, 86, 0
2, 149600, Note_on_c, 0, 108, 0
2, 149760, Note_on_c, 0, 96, 100
2, 149760, Note_on_c, 0, 84, 100
2, 149760, Note_on_c, 0, 72, 100
2, 149760, Note_on_c, 0, 60, 100
2, 149760, Note_on_c, 0, 108, 100
2, 150000, Note_on_c, 0, 96, 0
2, 150000, Note_on_c, 0, 84, 0
2, 150000, Note_on_c, 0, 72, 0
2, 150000, Note_on_c, 0, 60, 0
2, 150080, Note_on_c, 0, 108, 0
2, 150240, Note_on_c, 0, 96, 100
2, 150240, Note_on_c, 0, 98, 100
2, 150240, Note_on_c, 0, 84, 100
2, 150240, Note_on_c, 0, 86, 100
2, 150240, Note_on_c, 0, 72, 100
2, 150240, Note_on_c, 0, 73, 100
2, 150240, Note_on_c, 0, 60, 100
2, 150240, Note_on_c, 0, 108, 100
2, 150480, Note_on_c, 0, 96, 0
2, 150480, Note_on_c, 0, 98, 0
2, 150480, Note_on_c, 0, 84, 0
2, 150480, Note_on_c, 0, 86, 0
2, 150480, Note_on_c, 0, 72, 0
2, 150480, Note_on_c, 0, 73, 0
2, 150480, Note_on_c, 0, 60, 0
2, 151040, Note_on_c, 0, 108, 0
2, 151200, Note_on_c, 0, 96, 100
2, 151200, Note_on_c, 0, 98, 100
2, 151200, Note_on_c, 0, 84, 100
2, 151200, Note_on_c, 0, 86, 100
2, 151200, Note_on_c, 0, 72, 100
2, 151200, Note_on_c, 0, 73, 100
2, 151200, Note_on_c, 0, 60, 100
2, 151200, Note_on_c, 0, 108, 100
2, 151440, Note_on_c, 0, 96, 0
2, 151440, Note_on_c, 0, 98, 0
2, 151440, Note_on_c, 0, 84, 0
2, 151440, Note_on_c, 0, 86, 0
2, 151440, Note_on_c, 0, 72, 0
2, 151440, Note_on_c, 0, 73, 0
2, 151440, Note_on_c, 0, 60, 0
2, 151520, Note_on_c, 0, 108, 0
2, 151680, Note_on_c, 0, 108, 100
2, 152160, Note_on_c, 0, 96, 100
2, 152160, Note_on_c, 0, 84, 100
2, 152160, Note_on_c, 0, 72, 100
2, 152160, Note_on_c, 0, 60, 100
2, 152400, Note_on_c, 0, 96, 0
2, 152400, Note_on_c, 0, 84, 0
2, 152400, Note_on_c, 0, 72, 0
2, 152400, Note_on_c, 0, 60, 0
2, 152480, Note_on_c, 0, 108, 0
2, 152640, Note_on_c, 0, 97, 100
2, 152640, Note_on_c, 0, 99, 100
2, 152640, Note_on_c, 0, 85, 100
2, 152640, Note_on_c, 0, 87, 100
2, 152640, Note_on_c, 0, 74, 100
2, 152640, Note_on_c, 0, 61, 100
2, 153120, Note_on_c, 0, 108, 100
2, 153360, Note_on_c, 0, 97, 0
2, 153360, Note_on_c, 0, 99, 0
2, 153360, Note_on_c, 0, 85, 0
2, 153360, Note_on_c, 0, 87, 0
2, 153360, Note_on_c, 0, 74, 0
2, 153360, Note_on_c, 0, 61, 0
2, 153440, Note_on_c, 0, 108, 0
2, 153600, Note_on_c, 0, 96, 100
2, 153600, Note_on_c, 0, 84, 100
2, 153600, Note_on_c, 0, 72, 100
2, 153600, Note_on_c, 0, 60, 100
2, 153600, Note_on_c, 0, 108, 100
2, 153840, Note_on_c, 0, 96, 0
2, 153840, Note_on_c, 0, 84, 0
2, 153840, Note_on_c, 0, 72, 0
2, 153840, Note_on_c, 0, 60, 0
2, 154080, Note_on_c, 0, 96, 100
2, 154080, Note_on_c, 0, 98, 100
2, 154080, Note_on_c, 0, 84, 100
2, 154080, Note_on_c, 0, 86, 100
2, 154080, Note_on_c, 0, 72, 100
2, 154080, Note_on_c, 0, 73, 100
2, 154080, Note_on_c, 0, 60, 100
2, 154320, Note_on_c, 0, 96, 0
2, 154320, Note_on_c, 0, 98, 0
2, 154320, Note_on_c, 0, 84, 0
2, 154320, Note_on_c, 0, 86, 0
2, 154320, Note_on_c, 0, 72, 0
2, 154320, Note_on_c, 0, 73, 0
2, 154320, Note_on_c, 0, 60, 0
2, 154720, Note_on_c, 0, 108, 0
2, 155040, Note_on_c, 0, 96, 100
2, 155040, Note_on_c, 0, 98, 100
2, 155040, Note_on_c, 0, 84, 100
2, 155040, Note_on_c, 0, 86, 100
2, 155040, Note_on_c, 0, 72, 100
2, 155040, Note_on_c, 0, 73, 100
2, 155040, Note_on_c, 0, 60, 100
2, 155040, Note_on_c, 0, 108, 100
2, 155280, Note_on_c, 0, 96, 0
2, 155280, Note_on_c, 0, 98, 0
2, 155280, Note_on_c, 0, 84, 0
2, 155280, Note_on_c, 0, 86, 0
2, 155280, Note_on_c, 0, 72, 0
2, 155280, Note_on_c, 0, 73, 0
2, 155280, Note_on_c, 0, 60, 0
2, 155360, Note_on_c, 0, 108, 0
2, 155520, Note_on_c, 0, 108, 100
2, 156000, Note_on_c, 0, 96, 100
2, 156000, Note_on_c, 0, 84, 100
2, 156000, Note_on_c, 0, 72, 100
2, 156000, Note_on_c, 0, 60, 100
2, 156240, Note_on_c, 0, 96, 0
2, 156240, Note_on_c, 0, 84, 0
2, 156240, Note_on_c, 0, 72, 0
2, 156240, Note_on_c, 0, 60, 0
2, 156480, Note_on_c, 0, 108, 0
2, 156480, Note_on_c, 0, 87, 100
2, 156480, Note_on_c, 0, 75, 100
2, 156480, Note_on_c, 0, 62, 100
2, 156480, Note_on_c, 0, 99, 100
2, 156480, Note_on_c, 0, 98, 100
2, 156720, Note_on_c, 0, 87, 0
2, 156720, Note_on_c, 0, 75, 0
2, 156720, Note_on_c, 0, 62, 0
2, 156720, Note_on_c, 0, 99, 0
2, 156720, Note_on_c, 0, 98, 0
2, 156720, Note_on_c, 0, 108, 100
2, 156880, Note_on_c, 0, 108, 0
2, 156960, Note_on_c, 0, 97, 100
2, 156960, Note_on_c, 0, 99, 100
2, 156960, Note_on_c, 0, 86, 100
2, 156960, Note_on_c, 0, 108, 100
2, 157120, Note_on_c, 0, 108, 0
2, 157200, Note_on_c, 0, 97, 0
2, 157200, Note_on_c, 0, 99, 0
2, 157200, Note_on_c, 0, 86, 0
2, 157200, Note_on_c, 0, 108, 100
2, 157360, Note_on_c, 0, 108, 0
2, 157440, Note_on_c, 0, 96, 100
2, 157440, Note_on_c, 0, 84, 100
2, 157440, Note_on_c, 0, 72, 100
2, 157440, Note_on_c, 0, 60, 100
2, 157440, Note_on_c, 0, 108, 100
2, 157680, Note_on_c, 0, 96, 0
2, 157680, Note_on_c, 0, 84, 0
2, 157680, Note_on_c, 0, 72, 0
2, 157680, Note_on_c, 0, 60, 0
2, 157760, Note_on_c, 0, 108, 0
2, 157920, Note_on_c, 0, 96, 100
2, 157920, Note_on_c, 0, 98, 100
2, 157920, Note_on_c, 0, 84, 100
2, 157920, Note_on_c, 0, 86, 100
2, 157920, Note_on_c, 0, 72, 100
2, 157920, Note_on_c, 0, 73, 100
2, 157920, Note_on_c, 0, 60, 100
2, 157920, Note_on_c, 0, 108, 100
2, 158160, Note_on_c, 0, 96, 0
2, 158160, Note_on_c, 0, 98, 0
2, 158160, Note_on_c, 0, 84, 0
2, 158160, Note_on_c, 0, 86, 0
2, 158160, Note_on_c, 0, 72, 0
2, 158160, Note_on_c, 0, 73, 0
2, 158160, Note_on_c, 0, 60, 0
2, 158560, Note_on_c, 0, 108, 0
2, 158880, Note_on_c, 0, 96, 100
2, 158880, Note_on_c, 0, 98, 100
2, 158880, Note_on_c, 0, 84, 100
2, 158880, Note_on_c, 0, 86, 100
2, 158880, Note_on_c, 0, 72, 100
2, 158880, Note_on_c, 0, 73, 100
2, 158880, Note_on_c, 0, 60, 100
2, 158880, Note_on_c, 0, 108, 100
2, 159120, Note_on_c, 0, 96, 0
2, 159120, Note_on_c, 0, 98, 0
2, 159120, Note_on_c, 0, 84, 0
2, 159120, Note_on_c, 0, 86, 0
2, 159120, Note_on_c, 0, 72, 0
2, 159120, Note_on_c, 0, 73, 0
2, 159120, Note_on_c, 0, 60, 0
2, 159200, Note_on_c, 0, 108, 0
2, 159360, Note_on_c, 0, 108, 100
2, 159840, Note_on_c, 0, 96, 100
2, 159840, Note_on_c, 0, 84, 100
2, 159840, Note_on_c, 0, 72, 100
2, 159840, Note_on_c, 0, 60, 100
2, 160080, Note_on_c, 0, 96, 0
2, 160080, Note_on_c, 0, 84, 0
2, 160080, Note_on_c, 0, 72, 0
2, 160080, Note_on_c, 0, 60, 0
2, 160080, Note_on_c, 0, 96, 100
2, 160080, Note_on_c, 0, 84, 100
2, 160160, Note_on_c, 0, 108, 0
2, 160320, Note_on_c, 0, 96, 0
2, 160320, Note_on_c, 0, 84, 0
2, 160320, Note_on_c, 0, 73, 100
2, 160320, Note_on_c, 0, 61, 100
2, 160320, Note_on_c, 0, 85, 100
2, 160320, Note_on_c, 0, 86, 100
2, 160320, Note_on_c, 0, 97, 100
2, 160320, Note_on_c, 0, 98, 100
2, 160560, Note_on_c, 0, 85, 0
2, 160560, Note_on_c, 0, 86, 0
2, 160560, Note_on_c, 0, 97, 0
2, 160560, Note_on_c, 0, 98, 0
2, 160800, Note_on_c, 0, 96, 100
2, 160800, Note_on_c, 0, 84, 100
2, 161040, Note_on_c, 0, 73, 0
2, 161040, Note_on_c, 0, 61, 0
2, 161040, Note_on_c, 0, 96, 0
2, 161040, Note_on_c, 0, 84, 0
2, 161040, Note_on_c, 0, 96, 100
2, 161040, Note_on_c, 0, 84, 100
2, 161280, Text_t, "wail_off"
2, 161280, Text_t, "[verse]"
2, 161280, Text_t, "sing_off"
2, 161280, Note_on_c, 0, 96, 0
2, 161280, Note_on_c, 0, 84, 0
2, 161280, Note_on_c, 0, 96, 100
2, 161280, Note_on_c, 0, 84, 100
2, 161280, Note_on_c, 0, 72, 100
2, 161280, Note_on_c, 0, 60, 100
2, 161520, Note_on_c, 0, 96, 0
2, 161520, Note_on_c, 0, 84, 0
2, 161520, Note_on_c, 0, 72, 0
2, 161520, Note_on_c, 0, 60, 0
2, 161760, Note_on_c, 0, 98, 100
2, 161760, Note_on_c, 0, 96, 100
2, 161760, Note_on_c, 0, 86, 100
2, 161760, Note_on_c, 0, 84, 100
2, 161760, Note_on_c, 0, 72, 100
2, 161760, Note_on_c, 0, 73, 100
2, 161760, Note_on_c, 0, 60, 100
2, 164640, Note_on_c, 0, 72, 0
2, 164640, Note_on_c, 0, 73, 0
2, 164640, Note_on_c, 0, 60, 0
2, 164880, Note_on_c, 0, 98, 0
2, 164880, Note_on_c, 0, 96, 0
2, 164880, Note_on_c, 0, 86, 0
2, 164880, Note_on_c, 0, 84, 0
2, 165090, Note_on_c, 0, 106, 0
2, 165090, Note_on_c, 0, 94, 0
2, 165090, Note_on_c, 0, 82, 0
2, 165090, Note_on_c, 0, 70, 0
2, 165090, Note_on_c, 0, 103, 100
2, 165090, Note_on_c, 0, 91, 100
2, 165090, Note_on_c, 0, 79, 100
2, 165090, Note_on_c, 0, 67, 100
2, 165120, Note_on_c, 0, 99, 100
2, 165120, Note_on_c, 0, 87, 100
2, 165120, Note_on_c, 0, 74, 100
2, 165120, Note_on_c, 0, 61, 100
2, 165360, Note_on_c, 0, 99, 0
2, 165360, Note_on_c, 0, 87, 0
2, 165360, Note_on_c, 0, 74, 0
2, 165360, Note_on_c, 0, 61, 0
2, 166080, Note_on_c, 0, 100, 100
2, 166080, Note_on_c, 0, 99, 100
2, 166080, Note_on_c, 0, 88, 100
2, 166080, Note_on_c, 0, 87, 100
2, 166080, Note_on_c, 0, 75, 100
2, 166080, Note_on_c, 0, 62, 100
2, 167520, Note_on_c, 0, 62, 0
2, 167760, Note_on_c, 0, 75, 0
2, 167970, Note_on_c, 0, 105, 0
2, 167970, Note_on_c, 0, 93, 0
2, 167970, Note_on_c, 0, 81, 0
2, 167970, Note_on_c, 0, 69, 0
2, 167970, Note_on_c, 0, 103, 0
2, 167970, Note_on_c, 0, 91, 0
2, 167970, Note_on_c, 0, 79, 0
2, 167970, Note_on_c, 0, 67, 0
2, 167970, Note_on_c, 0, 106, 100
2, 167970, Note_on_c, 0, 94, 100
2, 167970, Note_on_c, 0, 82, 100
2, 167970, Note_on_c, 0, 70, 100
2, 168000, Note_on_c, 0, 100, 0
2, 168000, Note_on_c, 0, 99, 0
2, 168000, Note_on_c, 0, 88, 0
2, 168000, Note_on_c, 0, 87, 0
2, 168000, Note_on_c, 0, 99, 100
2, 168000, Note_on_c, 0, 87, 100
2, 168000, Note_on_c, 0, 74, 100
2, 168000, Note_on_c, 0, 61, 100
2, 168240, Note_on_c, 0, 99, 0
2, 168240, Note_on_c, 0, 87, 0
2, 168240, Note_on_c, 0, 74, 0
2, 168240, Note_on_c, 0, 61, 0
2, 168960, Note_on_c, 0, 98, 100
2, 168960, Note_on_c, 0, 86, 100
2, 168960, Note_on_c, 0, 73, 100
2, 168960, Note_on_c, 0, 60, 100
2, 169200, Note_on_c, 0, 98, 0
2, 169200, Note_on_c, 0, 86, 0
2, 169200, Note_on_c, 0, 73, 0
2, 169200, Note_on_c, 0, 60, 0
2, 169920, Note_on_c, 0, 99, 100
2, 169920, Note_on_c, 0, 98, 100
2, 169920, Note_on_c, 0, 87, 100
2, 169920, Note_on_c, 0, 86, 100
2, 169920, Note_on_c, 0, 74, 100
2, 169920, Note_on_c, 0, 61, 100
2, 171360, Note_on_c, 0, 61, 0
2, 171600, Note_on_c, 0, 74, 0
2, 171810, Note_on_c, 0, 106, 0
2, 171810, Note_on_c, 0, 94, 0
2, 171810, Note_on_c, 0, 82, 0
2, 171810, Note_on_c, 0, 70, 0
2, 171810, Note_on_c, 0, 105, 100
2, 171810, Note_on_c, 0, 93, 100
2, 171810, Note_on_c, 0, 81, 100
2, 171810, Note_on_c, 0, 69, 100
2, 171840, Note_on_c, 0, 99, 0
2, 171840, Note_on_c, 0, 98, 0
2, 171840, Note_on_c, 0, 87, 0
2, 171840, Note_on_c, 0, 86, 0
2, 171840, Note_on_c, 0, 98, 100
2, 171840, Note_on_c, 0, 86, 100
2, 171840, Note_on_c, 0, 73, 100
2, 171840, Note_on_c, 0, 61, 100
2, 172080, Note_on_c, 0, 98, 0
2, 172080, Note_on_c, 0, 86, 0
2, 172080, Note_on_c, 0, 73, 0
2, 172080, Note_on_c, 0, 61, 0
2, 172800, Note_on_c, 0, 97, 100
2, 172800, Note_on_c, 0, 85, 100
2, 172800, Note_on_c, 0, 72, 100
2, 172800, Note_on_c, 0, 60, 100
2, 173040, Note_on_c, 0, 97, 0
2, 173040, Note_on_c, 0, 85, 0
2, 173040, Note_on_c, 0, 72, 0
2, 173040, Note_on_c, 0, 60, 0
2, 173760, Note_on_c, 0, 98, 100
2, 173760, Note_on_c, 0, 97, 100
2, 173760, Note_on_c, 0, 86, 100
2, 173760, Note_on_c, 0, 85, 100
2, 173760, Note_on_c, 0, 73, 100
2, 173760, Note_on_c, 0, 61, 100
2, 175200, Note_on_c, 0, 61, 0
2, 175440, Note_on_c, 0, 73, 0
2, 175650, Note_on_c, 0, 105, 0
2, 175650, Note_on_c, 0, 93, 0
2, 175650, Note_on_c, 0, 81, 0
2, 175650, Note_on_c, 0, 69, 0
2, 175650, Note_on_c, 0, 106, 100
2, 175650, Note_on_c, 0, 94, 100
2, 175650, Note_on_c, 0, 82, 100
2, 175650, Note_on_c, 0, 70, 100
2, 175680, Note_on_c, 0, 98, 0
2, 175680, Note_on_c, 0, 97, 0
2, 175680, Note_on_c, 0, 86, 0
2, 175680, Note_on_c, 0, 85, 0
2, 175680, Note_on_c, 0, 97, 100
2, 175680, Note_on_c, 0, 85, 100
2, 175680, Note_on_c, 0, 72, 100
2, 175680, Note_on_c, 0, 60, 100
2, 175920, Note_on_c, 0, 97, 0
2, 175920, Note_on_c, 0, 85, 0
2, 175920, Note_on_c, 0, 72, 0
2, 175920, Note_on_c, 0, 60, 0
2, 176640, Note_on_c, 0, 96, 100
2, 176640, Note_on_c, 0, 84, 100
2, 176640, Note_on_c, 0, 72, 100
2, 176640, Note_on_c, 0, 60, 100
2, 180000, Note_on_c, 0, 60, 0
2, 180240, Note_on_c, 0, 96, 0
2, 180240, Note_on_c, 0, 84, 0
2, 180240, Note_on_c, 0, 72, 0
2, 180450, Note_on_c, 0, 103, 100
2, 180450, Note_on_c, 0, 91, 100
2, 180450, Note_on_c, 0, 79, 100
2, 180450, Note_on_c, 0, 67, 100
2, 180480, Note_on_c, 0, 99, 100
2, 180480, Note_on_c, 0, 87, 100
2, 180480, Note_on_c, 0, 74, 100
2, 180480, Note_on_c, 0, 61, 100
2, 180720, Note_on_c, 0, 99, 0
2, 180720, Note_on_c, 0, 87, 0
2, 180720, Note_on_c, 0, 74, 0
2, 180720, Note_on_c, 0, 61, 0
2, 181440, Note_on_c, 0, 100, 100
2, 181440, Note_on_c, 0, 99, 100
2, 181440, Note_on_c, 0, 88, 100
2, 181440, Note_on_c, 0, 87, 100
2, 181440, Note_on_c, 0, 75, 100
2, 181440, Note_on_c, 0, 62, 100
2, 182880, Note_on_c, 0, 62, 0
2, 183120, Note_on_c, 0, 75, 0
2, 183330, Note_on_c, 0, 106, 0
2, 183330, Note_on_c, 0, 94, 0
2, 183330, Note_on_c, 0, 82, 0
2, 183330, Note_on_c, 0, 70, 0
2, 183330, Note_on_c, 0, 103, 0
2, 183330, Note_on_c, 0, 91, 0
2, 183330, Note_on_c, 0, 79, 0
2, 183330, Note_on_c, 0, 67, 0
2, 183330, Note_on_c, 0, 105, 100
2, 183330, Note_on_c, 0, 93, 100
2, 183330, Note_on_c, 0, 81, 100
2, 183330, Note_on_c, 0, 69, 100
2, 183360, Note_on_c, 0, 100, 0
2, 183360, Note_on_c, 0, 99, 0
2, 183360, Note_on_c, 0, 88, 0
2, 183360, Note_on_c, 0, 87, 0
2, 183360, Note_on_c, 0, 99, 100
2, 183360, Note_on_c, 0, 87, 100
2, 183360, Note_on_c, 0, 74, 100
2, 183360, Note_on_c, 0, 61, 100
2, 183600, Note_on_c, 0, 99, 0
2, 183600, Note_on_c, 0, 87, 0
2, 183600, Note_on_c, 0, 74, 0
2, 183600, Note_on_c, 0, 61, 0
2, 184320, Note_on_c, 0, 98, 100
2, 184320, Note_on_c, 0, 86, 100
2, 184320, Note_on_c, 0, 73, 100
2, 184320, Note_on_c, 0, 60, 100
2, 184560, Note_on_c, 0, 98, 0
2, 184560, Note_on_c, 0, 86, 0
2, 184560, Note_on_c, 0, 73, 0
2, 184560, Note_on_c, 0, 60, 0
2, 185280, Note_on_c, 0, 99, 100
2, 185280, Note_on_c, 0, 98, 100
2, 185280, Note_on_c, 0, 87, 100
2, 185280, Note_on_c, 0, 86, 100
2, 185280, Note_on_c, 0, 74, 100
2, 185280, Note_on_c, 0, 61, 100
2, 186720, Note_on_c, 0, 61, 0
2, 186960, Note_on_c, 0, 74, 0
2, 187170, Note_on_c, 0, 105, 0
2, 187170, Note_on_c, 0, 93, 0
2, 187170, Note_on_c, 0, 81, 0
2, 187170, Note_on_c, 0, 69, 0
2, 187170, Note_on_c, 0, 106, 100
2, 187170, Note_on_c, 0, 94, 100
2, 187170, Note_on_c, 0, 82, 100
2, 187170, Note_on_c, 0, 70, 100
2, 187200, Note_on_c, 0, 99, 0
2, 187200, Note_on_c, 0, 98, 0
2, 187200, Note_on_c, 0, 87, 0
2, 187200, Note_on_c, 0, 86, 0
2, 187200, Note_on_c, 0, 98, 100
2, 187200, Note_on_c, 0, 86, 100
2, 187200, Note_on_c, 0, 73, 100
2, 187200, Note_on_c, 0, 61, 100
2, 187440, Note_on_c, 0, 98, 0
2, 187440, Note_on_c, 0, 86, 0
2, 187440, Note_on_c, 0, 73, 0
2, 187440, Note_on_c, 0, 61, 0
2, 188160, Note_on_c, 0, 97, 100
2, 188160, Note_on_c, 0, 85, 100
2, 188160, Note_on_c, 0, 72, 100
2, 188160, Note_on_c, 0, 60, 100
2, 188400, Note_on_c, 0, 97, 0
2, 188400, Note_on_c, 0, 85, 0
2, 188400, Note_on_c, 0, 72, 0
2, 188400, Note_on_c, 0, 60, 0
2, 189120, Note_on_c, 0, 98, 100
2, 189120, Note_on_c, 0, 97, 100
2, 189120, Note_on_c, 0, 86, 100
2, 189120, Note_on_c, 0, 85, 100
2, 189120, Note_on_c, 0, 73, 100
2, 189120, Note_on_c, 0, 61, 100
2, 190560, Note_on_c, 0, 61, 0
2, 190800, Note_on_c, 0, 73, 0
2, 191010, Note_on_c, 0, 106, 0
2, 191010, Note_on_c, 0, 94, 0
2, 191010, Note_on_c, 0, 82, 0
2, 191010, Note_on_c, 0, 70, 0
2, 191010, Note_on_c, 0, 105, 100
2, 191010, Note_on_c, 0, 93, 100
2, 191010, Note_on_c, 0, 81, 100
2, 191010, Note_on_c, 0, 69, 100
2, 191040, Note_on_c, 0, 98, 0
2, 191040, Note_on_c, 0, 97, 0
2, 191040, Note_on_c, 0, 86, 0
2, 191040, Note_on_c, 0, 85, 0
2, 191040, Note_on_c, 0, 97, 100
2, 191040, Note_on_c, 0, 85, 100
2, 191040, Note_on_c, 0, 72, 100
2, 191040, Note_on_c, 0, 60, 100
2, 191280, Note_on_c, 0, 97, 0
2, 191280, Note_on_c, 0, 85, 0
2, 191280, Note_on_c, 0, 72, 0
2, 191280, Note_on_c, 0, 60, 0
2, 192000, Text_t, "sing_on"
2, 192000, Note_on_c, 0, 96, 100
2, 192000, Note_on_c, 0, 84, 100
2, 192000, Note_on_c, 0, 72, 100
2, 192000, Note_on_c, 0, 60, 100
2, 192000, Note_on_c, 0, 108, 100
2, 192320, Note_on_c, 0, 108, 0
2, 192480, Note_on_c, 0, 108, 100
2, 193120, Note_on_c, 0, 108, 0
2, 193440, Note_on_c, 0, 108, 100
2, 193760, Note_on_c, 0, 108, 0
2, 193920, Note_on_c, 0, 108, 100
2, 194240, Note_on_c, 0, 108, 0
2, 194400, Note_on_c, 0, 108, 100
2, 194880, Note_on_c, 0, 108, 0
2, 195360, Note_on_c, 0, 60, 0
2, 195600, Note_on_c, 0, 96, 0
2, 195600, Note_on_c, 0, 84, 0
2, 195600, Note_on_c, 0, 72, 0
2, 195810, Note_on_c, 0, 105, 0
2, 195810, Note_on_c, 0, 93, 0
2, 195810, Note_on_c, 0, 81, 0
2, 195810, Note_on_c, 0, 69, 0
2, 195810, Note_on_c, 0, 106, 100
2, 195810, Note_on_c, 0, 94, 100
2, 195810, Note_on_c, 0, 82, 100
2, 195810, Note_on_c, 0, 70, 100
2, 195840, Note_on_c, 0, 99, 100
2, 195840, Note_on_c, 0, 87, 100
2, 195840, Note_on_c, 0, 74, 100
2, 195840, Note_on_c, 0, 61, 100
2, 195840, Note_on_c, 0, 108, 100
2, 196080, Note_on_c, 0, 99, 0
2, 196080, Note_on_c, 0, 87, 0
2, 196080, Note_on_c, 0, 74, 0
2, 196080, Note_on_c, 0, 61, 0
2, 196160, Note_on_c, 0, 108, 0
2, 196320, Note_on_c, 0, 108, 100
2, 196770, Note_on_c, 0, 106, 0
2, 196770, Note_on_c, 0, 94, 0
2, 196770, Note_on_c, 0, 82, 0
2, 196770, Note_on_c, 0, 70, 0
2, 196770, Note_on_c, 0, 105, 100
2, 196770, Note_on_c, 0, 93, 100
2, 196770, Note_on_c, 0, 81, 100
2, 196770, Note_on_c, 0, 69, 100
2, 196800, Note_on_c, 0, 99, 100
2, 196800, Note_on_c, 0, 100, 100
2, 196800, Note_on_c, 0, 87, 100
2, 196800, Note_on_c, 0, 88, 100
2, 196800, Note_on_c, 0, 75, 100
2, 196800, Note_on_c, 0, 62, 100
2, 196960, Note_on_c, 0, 108, 0
2, 197280, Note_on_c, 0, 108, 100
2, 197600, Note_on_c, 0, 108, 0
2, 197760, Note_on_c, 0, 108, 100
2, 198240, Note_on_c, 0, 62, 0
2, 198480, Note_on_c, 0, 75, 0
2, 198690, Note_on_c, 0, 105, 0
2, 198690, Note_on_c, 0, 93, 0
2, 198690, Note_on_c, 0, 81, 0
2, 198690, Note_on_c, 0, 69, 0
2, 198690, Note_on_c, 0, 106, 100
2, 198690, Note_on_c, 0, 94, 100
2, 198690, Note_on_c, 0, 82, 100
2, 198690, Note_on_c, 0, 70, 100
2, 198720, Note_on_c, 0, 99, 0
2, 198720, Note_on_c, 0, 100, 0
2, 198720, Note_on_c, 0, 87, 0
2, 198720, Note_on_c, 0, 88, 0
2, 198720, Note_on_c, 0, 99, 100
2, 198720, Note_on_c, 0, 87, 100
2, 198720, Note_on_c, 0, 74, 100
2, 198720, Note_on_c, 0, 61, 100
2, 198880, Note_on_c, 0, 108, 0
2, 198960, Note_on_c, 0, 99, 0
2, 198960, Note_on_c, 0, 87, 0
2, 198960, Note_on_c, 0, 74, 0
2, 198960, Note_on_c, 0, 61, 0
2, 199200, Note_on_c, 0, 108, 100
2, 199520, Note_on_c, 0, 108, 0
2, 199650, Note_on_c, 0, 106, 0
2, 199650, Note_on_c, 0, 94, 0
2, 199650, Note_on_c, 0, 82, 0
2, 199650, Note_on_c, 0, 70, 0
2, 199650, Note_on_c, 0, 105, 100
2, 199650, Note_on_c, 0, 93, 100
2, 199650, Note_on_c, 0, 81, 100
2, 199650, Note_on_c, 0, 69, 100
2, 199680, Note_on_c, 0, 98, 100
2, 199680, Note_on_c, 0, 86, 100
2, 199680, Note_on_c, 0, 73, 100
2, 199680, Note_on_c, 0, 60, 100
2, 199680, Note_on_c, 0, 108, 100
2, 199920, Note_on_c, 0, 98, 0
2, 199920, Note_on_c, 0, 86, 0
2, 199920, Note_on_c, 0, 73, 0
2, 199920, Note_on_c, 0, 60, 0
2, 200000, Note_on_c, 0, 108, 0
2, 200160, Note_on_c, 0, 108, 100
2, 200610, Note_on_c, 0, 105, 0
2, 200610, Note_on_c, 0, 93, 0
2, 200610, Note_on_c, 0, 81, 0
2, 200610, Note_on_c, 0, 69, 0
2, 200610, Note_on_c, 0, 106, 100
2, 200610, Note_on_c, 0, 94, 100
2, 200610, Note_on_c, 0, 82, 100
2, 200610, Note_on_c, 0, 70, 100
2, 200640, Note_on_c, 0, 98, 100
2, 200640, Note_on_c, 0, 99, 100
2, 200640, Note_on_c, 0, 86, 100
2, 200640, Note_on_c, 0, 87, 100
2, 200640, Note_on_c, 0, 74, 100
2, 200640, Note_on_c, 0, 61, 100
2, 200800, Note_on_c, 0, 108, 0
2, 201120, Note_on_c, 0, 108, 100
2, 201440, Note_on_c, 0, 108, 0
2, 201600, Note_on_c, 0, 108, 100
2, 201920, Note_on_c, 0, 108, 0
2, 202080, Note_on_c, 0, 61, 0
2, 202080, Note_on_c, 0, 108, 100
2, 202320, Note_on_c, 0, 74, 0
2, 202530, Note_on_c, 0, 106, 0
2, 202530, Note_on_c, 0, 94, 0
2, 202530, Note_on_c, 0, 82, 0
2, 202530, Note_on_c, 0, 70, 0
2, 202530, Note_on_c, 0, 105, 100
2, 202530, Note_on_c, 0, 93, 100
2, 202530, Note_on_c, 0, 81, 100
2, 202530, Note_on_c, 0, 69, 100
2, 202560, Note_on_c, 0, 98, 0
2, 202560, Note_on_c, 0, 99, 0
2, 202560, Note_on_c, 0, 86, 0
2, 202560, Note_on_c, 0, 87, 0
2, 202560, Note_on_c, 0, 98, 100
2, 202560, Note_on_c, 0, 86, 100
2, 202560, Note_on_c, 0, 73, 100
2, 202560, Note_on_c, 0, 61, 100
2, 202720, Note_on_c, 0, 108, 0
2, 202800, Note_on_c, 0, 98, 0
2, 202800, Note_on_c, 0, 86, 0
2, 202800, Note_on_c, 0, 73, 0
2, 202800, Note_on_c, 0, 61, 0
2, 203040, Note_on_c, 0, 108, 100
2, 203360, Note_on_c, 0, 108, 0
2, 203490, Note_on_c, 0, 105, 0
2, 203490, Note_on_c, 0, 93, 0
2, 203490, Note_on_c, 0, 81, 0
2, 203490, Note_on_c, 0, 69, 0
2, 203490, Note_on_c, 0, 106, 100
2, 203490, Note_on_c, 0, 94, 100
2, 203490, Note_on_c, 0, 82, 100
2, 203490, Note_on_c, 0, 70, 100
2, 203520, Note_on_c, 0, 97, 100
2, 203520, Note_on_c, 0, 85, 100
2, 203520, Note_on_c, 0, 72, 100
2, 203520, Note_on_c, 0, 60, 100
2, 203520, Note_on_c, 0, 108, 100
2, 203760, Note_on_c, 0, 97, 0
2, 203760, Note_on_c, 0, 85, 0
2, 203760, Note_on_c, 0, 72, 0
2, 203760, Note_on_c, 0, 60, 0
2, 204450, Note_on_c, 0, 106, 0
2, 204450, Note_on_c, 0, 94, 0
2, 204450, Note_on_c, 0, 82, 0
2, 204450, Note_on_c, 0, 70, 0
2, 204450, Note_on_c, 0, 105, 100
2, 204450, Note_on_c, 0, 93, 100
2, 204450, Note_on_c, 0, 81, 100
2, 204450, Note_on_c, 0, 69, 100
2, 204480, Note_on_c, 0, 97, 100
2, 204480, Note_on_c, 0, 98, 100
2, 204480, Note_on_c, 0, 85, 100
2, 204480, Note_on_c, 0, 86, 100
2, 204480, Note_on_c, 0, 73, 100
2, 204480, Note_on_c, 0, 61, 100
2, 204640, Note_on_c, 0, 108, 0
2, 204960, Note_on_c, 0, 108, 100
2, 205280, Note_on_c, 0, 108, 0
2, 205440, Note_on_c, 0, 108, 100
2, 205920, Note_on_c, 0, 61, 0
2, 206160, Note_on_c, 0, 73, 0
2, 206240, Note_on_c, 0, 108, 0
2, 206370, Note_on_c, 0, 105, 0
2, 206370, Note_on_c, 0, 93, 0
2, 206370, Note_on_c, 0, 81, 0
2, 206370, Note_on_c, 0, 69, 0
2, 206370, Note_on_c, 0, 106, 100
2, 206370, Note_on_c, 0, 94, 100
2, 206370, Note_on_c, 0, 82, 100
2, 206370, Note_on_c, 0, 70, 100
2, 206400, Note_on_c, 0, 97, 0
2, 206400, Note_on_c, 0, 98, 0
2, 206400, Note_on_c, 0, 85, 0
2, 206400, Note_on_c, 0, 86, 0
2, 206400, Note_on_c, 0, 97, 100
2, 206400, Note_on_c, 0, 85, 100
2, 206400, Note_on_c, 0, 72, 100
2, 206400, Note_on_c, 0, 60, 100
2, 206640, Note_on_c, 0, 97, 0
2, 206640, Note_on_c, 0, 85, 0
2, 206640, Note_on_c, 0, 72, 0
2, 206640, Note_on_c, 0, 60, 0
2, 206880, Note_on_c, 0, 108, 100
2, 207200, Note_on_c, 0, 108, 0
2, 207330, Note_on_c, 0, 106, 0
2, 207330, Note_on_c, 0, 94, 0
2, 207330, Note_on_c, 0, 82, 0
2, 207330, Note_on_c, 0, 70, 0
2, 207330, Note_on_c, 0, 105, 100
2, 207330, Note_on_c, 0, 93, 100
2, 207330, Note_on_c, 0, 81, 100
2, 207330, Note_on_c, 0, 69, 100
2, 207360, Note_on_c, 0, 96, 100
2, 207360, Note_on_c, 0, 84, 100
2, 207360, Note_on_c, 0, 72, 100
2, 207360, Note_on_c, 0, 60, 100
2, 207360, Note_on_c, 0, 108, 100
2, 207680, Note_on_c, 0, 108, 0
2, 207840, Note_on_c, 0, 108, 100
2, 208480, Note_on_c, 0, 108, 0
2, 208800, Note_on_c, 0, 108, 100
2, 209120, Note_on_c, 0, 108, 0
2, 209280, Note_on_c, 0, 108, 100
2, 210240, Note_on_c, 0, 108, 0
2, 210720, Note_on_c, 0, 60, 0
2, 210960, Note_on_c, 0, 96, 0
2, 210960, Note_on_c, 0, 84, 0
2, 210960, Note_on_c, 0, 72, 0
2, 211200, Note_on_c, 0, 99, 100
2, 211200, Note_on_c, 0, 87, 100
2, 211200, Note_on_c, 0, 74, 100
2, 211200, Note_on_c, 0, 61, 100
2, 211200, Note_on_c, 0, 108, 100
2, 211440, Note_on_c, 0, 99, 0
2, 211440, Note_on_c, 0, 87, 0
2, 211440, Note_on_c, 0, 74, 0
2, 211440, Note_on_c, 0, 61, 0
2, 211520, Note_on_c, 0, 108, 0
2, 211680, Note_on_c, 0, 108, 100
2, 212130, Note_on_c, 0, 105, 0
2, 212130, Note_on_c, 0, 93, 0
2, 212130, Note_on_c, 0, 81, 0
2, 212130, Note_on_c, 0, 69, 0
2, 212130, Note_on_c, 0, 106, 100
2, 212130, Note_on_c, 0, 94, 100
2, 212130, Note_on_c, 0, 82, 100
2, 212130, Note_on_c, 0, 70, 100
2, 212160, Note_on_c, 0, 100, 100
2, 212160, Note_on_c, 0, 99, 100
2, 212160, Note_on_c, 0, 88, 100
2, 212160, Note_on_c, 0, 87, 100
2, 212160, Note_on_c, 0, 75, 100
2, 212160, Note_on_c, 0, 62, 100
2, 212480, Note_on_c, 0, 108, 0
2, 212640, Note_on_c, 0, 108, 100
2, 212960, Note_on_c, 0, 108, 0
2, 213120, Note_on_c, 0, 108, 100
2, 213600, Note_on_c, 0, 62, 0
2, 213840, Note_on_c, 0, 75, 0
2, 214050, Note_on_c, 0, 106, 0
2, 214050, Note_on_c, 0, 94, 0
2, 214050, Note_on_c, 0, 82, 0
2, 214050, Note_on_c, 0, 70, 0
2, 214050, Note_on_c, 0, 105, 100
2, 214050, Note_on_c, 0, 93, 100
2, 214050, Note_on_c, 0, 81, 100
2, 214050, Note_on_c, 0, 69, 100
2, 214080, Note_on_c, 0, 100, 0
2, 214080, Note_on_c, 0, 99, 0
2, 214080, Note_on_c, 0, 88, 0
2, 214080, Note_on_c, 0, 87, 0
2, 214080, Note_on_c, 0, 99, 100
2, 214080, Note_on_c, 0, 87, 100
2, 214080, Note_on_c, 0, 74, 100
2, 214080, Note_on_c, 0, 61, 100
2, 214320, Note_on_c, 0, 99, 0
2, 214320, Note_on_c, 0, 87, 0
2, 214320, Note_on_c, 0, 74, 0
2, 214320, Note_on_c, 0, 61, 0
2, 214560, Note_on_c, 0, 108, 0
2, 215010, Note_on_c, 0, 105, 0
2, 215010, Note_on_c, 0, 93, 0
2, 215010, Note_on_c, 0, 81, 0
2, 215010, Note_on_c, 0, 69, 0
2, 215010, Note_on_c, 0, 106, 100
2, 215010, Note_on_c, 0, 94, 100
2, 215010, Note_on_c, 0, 82, 100
2, 215010, Note_on_c, 0, 70, 100
2, 215040, Note_on_c, 0, 98, 100
2, 215040, Note_on_c, 0, 86, 100
2, 215040, Note_on_c, 0, 73, 100
2, 215040, Note_on_c, 0, 60, 100
2, 215040, Note_on_c, 0, 108, 100
2, 215280, Note_on_c, 0, 98, 0
2, 215280, Note_on_c, 0, 86, 0
2, 215280, Note_on_c, 0, 73, 0
2, 215280, Note_on_c, 0, 60, 0
2, 215360, Note_on_c, 0, 108, 0
2, 215520, Note_on_c, 0, 108, 100
2, 215970, Note_on_c, 0, 106, 0
2, 215970, Note_on_c, 0, 94, 0
2, 215970, Note_on_c, 0, 82, 0
2, 215970, Note_on_c, 0, 70, 0
2, 215970, Note_on_c, 0, 105, 100
2, 215970, Note_on_c, 0, 93, 100
2, 215970, Note_on_c, 0, 81, 100
2, 215970, Note_on_c, 0, 69, 100
2, 216000, Note_on_c, 0, 99, 100
2, 216000, Note_on_c, 0, 98, 100
2, 216000, Note_on_c, 0, 87, 100
2, 216000, Note_on_c, 0, 86, 100
2, 216000, Note_on_c, 0, 74, 100
2, 216000, Note_on_c, 0, 61, 100
2, 216160, Note_on_c, 0, 108, 0
2, 216480, Note_on_c, 0, 108, 100
2, 216800, Note_on_c, 0, 108, 0
2, 216960, Note_on_c, 0, 108, 100
2, 217440, Note_on_c, 0, 61, 0
2, 217680, Note_on_c, 0, 74, 0
2, 217890, Note_on_c, 0, 105, 0
2, 217890, Note_on_c, 0, 93, 0
2, 217890, Note_on_c, 0, 81, 0
2, 217890, Note_on_c, 0, 69, 0
2, 217890, Note_on_c, 0, 106, 100
2, 217890, Note_on_c, 0, 94, 100
2, 217890, Note_on_c, 0, 82, 100
2, 217890, Note_on_c, 0, 70, 100
2, 217920, Note_on_c, 0, 99, 0
2, 217920, Note_on_c, 0, 98, 0
2, 217920, Note_on_c, 0, 87, 0
2, 217920, Note_on_c, 0, 86, 0
2, 217920, Note_on_c, 0, 108, 0
2, 217920, Note_on_c, 0, 98, 100
2, 217920, Note_on_c, 0, 86, 100
2, 217920, Note_on_c, 0, 73, 100
2, 217920, Note_on_c, 0, 61, 100
2, 218160, Note_on_c, 0, 98, 0
2, 218160, Note_on_c, 0, 86, 0
2, 218160, Note_on_c, 0, 73, 0
2, 218160, Note_on_c, 0, 61, 0
2, 218850, Note_on_c, 0, 106, 0
2, 218850, Note_on_c, 0, 94, 0
2, 218850, Note_on_c, 0, 82, 0
2, 218850, Note_on_c, 0, 70, 0
2, 218850, Note_on_c, 0, 105, 100
2, 218850, Note_on_c, 0, 93, 100
2, 218850, Note_on_c, 0, 81, 100
2, 218850, Note_on_c, 0, 69, 100
2, 218880, Note_on_c, 0, 97, 100
2, 218880, Note_on_c, 0, 85, 100
2, 218880, Note_on_c, 0, 72, 100
2, 218880, Note_on_c, 0, 60, 100
2, 218880, Note_on_c, 0, 108, 100
2, 219120, Note_on_c, 0, 97, 0
2, 219120, Note_on_c, 0, 85, 0
2, 219120, Note_on_c, 0, 72, 0
2, 219120, Note_on_c, 0, 60, 0
2, 219200, Note_on_c, 0, 108, 0
2, 219360, Note_on_c, 0, 108, 100
2, 219810, Note_on_c, 0, 105, 0
2, 219810, Note_on_c, 0, 93, 0
2, 219810, Note_on_c, 0, 81, 0
2, 219810, Note_on_c, 0, 69, 0
2, 219810, Note_on_c, 0, 106, 100
2, 219810, Note_on_c, 0, 94, 100
2, 219810, Note_on_c, 0, 82, 100
2, 219810, Note_on_c, 0, 70, 100
2, 219840, Note_on_c, 0, 97, 100
2, 219840, Note_on_c, 0, 98, 100
2, 219840, Note_on_c, 0, 85, 100
2, 219840, Note_on_c, 0, 86, 100
2, 219840, Note_on_c, 0, 73, 100
2, 219840, Note_on_c, 0, 61, 100
2, 220000, Note_on_c, 0, 108, 0
2, 220320, Note_on_c, 0, 108, 100
2, 220640, Note_on_c, 0, 108, 0
2, 220800, Note_on_c, 0, 108, 100
2, 221280, Note_on_c, 0, 61, 0
2, 221520, Note_on_c, 0, 73, 0
2, 221730, Note_on_c, 0, 106, 0
2, 221730, Note_on_c, 0, 94, 0
2, 221730, Note_on_c, 0, 82, 0
2, 221730, Note_on_c, 0, 70, 0
2, 221730, Note_on_c, 0, 105, 100
2, 221730, Note_on_c, 0, 93, 100
2, 221730, Note_on_c, 0, 81, 100
2, 221730, Note_on_c, 0, 69, 100
2, 221760, Note_on_c, 0, 97, 0
2, 221760, Note_on_c, 0, 98, 0
2, 221760, Note_on_c, 0, 85, 0
2, 221760, Note_on_c, 0, 86, 0
2, 221760, Note_on_c, 0, 97, 100
2, 221760, Note_on_c, 0, 85, 100
2, 221760, Note_on_c, 0, 72, 100
2, 221760, Note_on_c, 0, 60, 100
2, 222000, Note_on_c, 0, 97, 0
2, 222000, Note_on_c, 0, 85, 0
2, 222000, Note_on_c, 0, 72, 0
2, 222000, Note_on_c, 0, 60, 0
2, 222080, Note_on_c, 0, 108, 0
2, 222690, Note_on_c, 0, 106, 100
2, 222690, Note_on_c, 0, 103, 100
2, 222690, Note_on_c, 0, 94, 100
2, 222690, Note_on_c, 0, 82, 100
2, 222690, Note_on_c, 0, 70, 100
2, 222690, Note_on_c, 0, 91, 100
2, 222690, Note_on_c, 0, 79, 100
2, 222690, Note_on_c, 0, 67, 100
2, 222720, Text_t, "[solo]"
2, 222720, Text_t, "solo_on"
2, 222720, Text_t, "drum_double"
2, 222720, Text_t, "sing_off"
2, 222720, Note_on_c, 0, 96, 100
2, 222720, Note_on_c, 0, 84, 100
2, 222720, Note_on_c, 0, 72, 100
2, 222720, Note_on_c, 0, 60, 100
2, 222960, Note_on_c, 0, 60, 0
2, 223440, Note_on_c, 0, 72, 0
2, 223680, Note_on_c, 0, 96, 0
2, 223680, Note_on_c, 0, 84, 0
2, 223680, Note_on_c, 0, 97, 100
2, 223680, Note_on_c, 0, 85, 100
2, 223680, Note_on_c, 0, 72, 100
2, 223680, Note_on_c, 0, 60, 100
2, 223920, Note_on_c, 0, 97, 0
2, 223920, Note_on_c, 0, 85, 0
2, 223920, Note_on_c, 0, 72, 0
2, 223920, Note_on_c, 0, 60, 0
2, 224160, Note_on_c, 0, 97, 100
2, 224160, Note_on_c, 0, 85, 100
2, 224160, Note_on_c, 0, 72, 100
2, 224400, Note_on_c, 0, 97, 0
2, 224400, Note_on_c, 0, 85, 0
2, 224400, Note_on_c, 0, 72, 0
2, 224640, Note_on_c, 0, 98, 100
2, 224640, Note_on_c, 0, 86, 100
2, 224640, Note_on_c, 0, 73, 100
2, 224640, Note_on_c, 0, 61, 100
2, 224880, Note_on_c, 0, 98, 0
2, 224880, Note_on_c, 0, 86, 0
2, 224880, Note_on_c, 0, 73, 0
2, 224880, Note_on_c, 0, 61, 0
2, 225120, Note_on_c, 0, 98, 100
2, 225120, Note_on_c, 0, 86, 100
2, 225120, Note_on_c, 0, 73, 100
2, 225360, Note_on_c, 0, 98, 0
2, 225360, Note_on_c, 0, 86, 0
2, 225360, Note_on_c, 0, 73, 0
2, 225600, Note_on_c, 0, 98, 100
2, 225600, Note_on_c, 0, 86, 100
2, 225600, Note_on_c, 0, 74, 100
2, 225600, Note_on_c, 0, 61, 100
2, 225840, Note_on_c, 0, 98, 0
2, 225840, Note_on_c, 0, 86, 0
2, 225840, Note_on_c, 0, 74, 0
2, 225840, Note_on_c, 0, 61, 0
2, 226080, Note_on_c, 0, 99, 100
2, 226080, Note_on_c, 0, 87, 100
2, 226080, Note_on_c, 0, 74, 100
2, 226320, Note_on_c, 0, 99, 0
2, 226320, Note_on_c, 0, 87, 0
2, 226320, Note_on_c, 0, 74, 0
2, 226560, Note_on_c, 0, 99, 100
2, 226560, Note_on_c, 0, 87, 100
2, 226560, Note_on_c, 0, 75, 100
2, 226560, Note_on_c, 0, 62, 100
2, 226800, Note_on_c, 0, 99, 0
2, 226800, Note_on_c, 0, 87, 0
2, 226800, Note_on_c, 0, 75, 0
2, 226800, Note_on_c, 0, 62, 0
2, 227040, Note_on_c, 0, 100, 100
2, 227040, Note_on_c, 0, 88, 100
2, 227040, Note_on_c, 0, 75, 100
2, 227280, Note_on_c, 0, 100, 0
2, 227280, Note_on_c, 0, 88, 0
2, 227280, Note_on_c, 0, 75, 0
2, 227520, Note_on_c, 0, 100, 100
2, 227520, Note_on_c, 0, 88, 100
2, 227520, Note_on_c, 0, 75, 100
2, 227520, Note_on_c, 0, 62, 100
2, 227760, Note_on_c, 0, 100, 0
2, 227760, Note_on_c, 0, 88, 0
2, 227760, Note_on_c, 0, 75, 0
2, 227760, Note_on_c, 0, 62, 0
2, 228000, Note_on_c, 0, 100, 100
2, 228000, Note_on_c, 0, 88, 100
2, 228000, Note_on_c, 0, 75, 100
2, 228000, Note_on_c, 0, 62, 100
2, 229440, Note_on_c, 0, 100, 0
2, 229440, Note_on_c, 0, 88, 0
2, 229440, Note_on_c, 0, 99, 100
2, 229440, Note_on_c, 0, 87, 100
2, 229920, Note_on_c, 0, 62, 0
2, 230160, Note_on_c, 0, 75, 0
2, 230370, Note_on_c, 0, 105, 0
2, 230370, Note_on_c, 0, 93, 0
2, 230370, Note_on_c, 0, 81, 0
2, 230370, Note_on_c, 0, 69, 0
2, 230370, Note_on_c, 0, 103, 0
2, 230370, Note_on_c, 0, 91, 0
2, 230370, Note_on_c, 0, 79, 0
2, 230370, Note_on_c, 0, 67, 0
2, 230400, Note_on_c, 0, 99, 0
2, 230400, Note_on_c, 0, 87, 0
2, 230400, Note_on_c, 0, 98, 100
2, 230400, Note_on_c, 0, 86, 100
2, 230400, Note_on_c, 0, 73, 100
2, 230400, Note_on_c, 0, 61, 100
2, 230640, Note_on_c, 0, 98, 0
2, 230640, Note_on_c, 0, 86, 0
2, 230640, Note_on_c, 0, 73, 0
2, 230640, Note_on_c, 0, 61, 0
2, 230640, Note_on_c, 0, 97, 100
2, 230880, Note_on_c, 0, 97, 0
2, 231060, Note_on_c, 0, 98, 100
2, 231060, Note_on_c, 0, 86, 100
2, 231120, Note_on_c, 0, 73, 100
2, 231300, Note_on_c, 0, 98, 0
2, 231300, Note_on_c, 0, 86, 0
2, 231300, Note_on_c, 0, 97, 100
2, 231360, Note_on_c, 0, 73, 0
2, 231540, Note_on_c, 0, 97, 0
2, 231720, Note_on_c, 0, 98, 100
2, 231720, Note_on_c, 0, 86, 100
2, 231840, Note_on_c, 0, 73, 100
2, 231840, Note_on_c, 0, 61, 100
2, 231960, Note_on_c, 0, 98, 0
2, 231960, Note_on_c, 0, 86, 0
2, 231960, Note_on_c, 0, 97, 100
2, 232080, Note_on_c, 0, 73, 0
2, 232080, Note_on_c, 0, 61, 0
2, 232200, Note_on_c, 0, 97, 0
2, 232290, Note_on_c, 0, 106, 0
2, 232290, Note_on_c, 0, 94, 0
2, 232290, Note_on_c, 0, 82, 0
2, 232290, Note_on_c, 0, 70, 0
2, 232290, Note_on_c, 0, 105, 100
2, 232290, Note_on_c, 0, 93, 100
2, 232290, Note_on_c, 0, 81, 100
2, 232290, Note_on_c, 0, 69, 100
2, 232380, Note_on_c, 0, 98, 100
2, 232380, Note_on_c, 0, 86, 100
2, 232560, Note_on_c, 0, 73, 100
2, 232620, Note_on_c, 0, 98, 0
2, 232620, Note_on_c, 0, 86, 0
2, 232620, Note_on_c, 0, 97, 100
2, 232800, Note_on_c, 0, 73, 0
2, 232860, Note_on_c, 0, 97, 0
2, 233040, Note_on_c, 0, 98, 100
2, 233040, Note_on_c, 0, 86, 100
2, 233280, Note_on_c, 0, 98, 0
2, 233280, Note_on_c, 0, 86, 0
2, 233280, Note_on_c, 0, 97, 100
2, 233280, Note_on_c, 0, 73, 100
2, 233280, Note_on_c, 0, 61, 100
2, 233520, Note_on_c, 0, 97, 0
2, 233520, Note_on_c, 0, 73, 0
2, 233520, Note_on_c, 0, 61, 0
2, 233760, Note_on_c, 0, 98, 100
2, 233760, Note_on_c, 0, 86, 100
2, 234000, Note_on_c, 0, 98, 0
2, 234000, Note_on_c, 0, 86, 0
2, 234000, Note_on_c, 0, 97, 100
2, 234000, Note_on_c, 0, 85, 100
2, 234210, Note_on_c, 0, 105, 0
2, 234210, Note_on_c, 0, 93, 0
2, 234210, Note_on_c, 0, 81, 0
2, 234210, Note_on_c, 0, 69, 0
2, 234210, Note_on_c, 0, 106, 100
2, 234210, Note_on_c, 0, 94, 100
2, 234210, Note_on_c, 0, 82, 100
2, 234210, Note_on_c, 0, 70, 100
2, 234240, Note_on_c, 0, 97, 0
2, 234240, Note_on_c, 0, 85, 0
2, 234240, Note_on_c, 0, 98, 100
2, 234240, Note_on_c, 0, 86, 100
2, 234240, Note_on_c, 0, 73, 100
2, 234240, Note_on_c, 0, 61, 100
2, 234480, Note_on_c, 0, 98, 0
2, 234480, Note_on_c, 0, 86, 0
2, 234480, Note_on_c, 0, 73, 0
2, 234480, Note_on_c, 0, 61, 0
2, 234720, Note_on_c, 0, 97, 100
2, 234720, Note_on_c, 0, 85, 100
2, 234960, Note_on_c, 0, 97, 0
2, 234960, Note_on_c, 0, 85, 0
2, 235200, Note_on_c, 0, 97, 100
2, 235200, Note_on_c, 0, 98, 100
2, 235200, Note_on_c, 0, 86, 100
2, 235200, Note_on_c, 0, 73, 100
2, 235200, Note_on_c, 0, 61, 100
2, 235440, Note_on_c, 0, 97, 0
2, 235440, Note_on_c, 0, 98, 0
2, 235440, Note_on_c, 0, 86, 0
2, 235440, Note_on_c, 0, 73, 0
2, 235440, Note_on_c, 0, 61, 0
2, 235680, Note_on_c, 0, 100, 100
2, 235680, Note_on_c, 0, 74, 100
2, 235680, Note_on_c, 0, 62, 100
2, 235680, Note_on_c, 0, 87, 100
2, 235920, Note_on_c, 0, 100, 0
2, 235920, Note_on_c, 0, 74, 0
2, 235920, Note_on_c, 0, 62, 0
2, 235920, Note_on_c, 0, 87, 0
2, 236160, Note_on_c, 0, 97, 100
2, 236160, Note_on_c, 0, 85, 100
2, 236160, Note_on_c, 0, 72, 100
2, 236160, Note_on_c, 0, 60, 100
2, 237360, Note_on_c, 0, 97, 0
2, 237360, Note_on_c, 0, 85, 0
2, 237360, Note_on_c, 0, 72, 0
2, 237360, Note_on_c, 0, 60, 0
2, 237570, Note_on_c, 0, 106, 0
2, 237570, Note_on_c, 0, 94, 0
2, 237570, Note_on_c, 0, 82, 0
2, 237570, Note_on_c, 0, 70, 0
2, 237570, Note_on_c, 0, 105, 100
2, 237570, Note_on_c, 0, 93, 100
2, 237570, Note_on_c, 0, 81, 100
2, 237570, Note_on_c, 0, 69, 100
2, 237600, Note_on_c, 0, 96, 100
2, 237840, Note_on_c, 0, 96, 0
2, 237840, Note_on_c, 0, 96, 100
2, 238080, Note_on_c, 0, 96, 0
2, 238080, Note_on_c, 0, 97, 100
2, 238080, Note_on_c, 0, 85, 100
2, 238080, Note_on_c, 0, 73, 100
2, 238080, Note_on_c, 0, 61, 100
2, 238320, Note_on_c, 0, 97, 0
2, 238320, Note_on_c, 0, 85, 0
2, 238320, Note_on_c, 0, 73, 0
2, 238320, Note_on_c, 0, 61, 0
2, 238560, Note_on_c, 0, 98, 100
2, 238560, Note_on_c, 0, 86, 100
2, 238800, Note_on_c, 0, 98, 0
2, 238800, Note_on_c, 0, 86, 0
2, 238800, Note_on_c, 0, 98, 100
2, 239040, Note_on_c, 0, 98, 0
2, 239040, Note_on_c, 0, 100, 100
2, 239040, Note_on_c, 0, 88, 100
2, 239040, Note_on_c, 0, 75, 100
2, 239040, Note_on_c, 0, 62, 100
2, 239280, Note_on_c, 0, 100, 0
2, 239280, Note_on_c, 0, 88, 0
2, 239280, Note_on_c, 0, 75, 0
2, 239280, Note_on_c, 0, 62, 0
2, 239280, Note_on_c, 0, 97, 100
2, 239280, Note_on_c, 0, 86, 100
2, 239520, Note_on_c, 0, 97, 0
2, 239520, Note_on_c, 0, 86, 0
2, 239520, Note_on_c, 0, 99, 100
2, 239520, Note_on_c, 0, 87, 100
2, 239520, Note_on_c, 0, 74, 100
2, 239760, Note_on_c, 0, 99, 0
2, 239760, Note_on_c, 0, 87, 0
2, 239760, Note_on_c, 0, 74, 0
2, 239760, Note_on_c, 0, 97, 100
2, 240000, Note_on_c, 0, 97, 0
2, 240000, Note_on_c, 0, 99, 100
2, 240000, Note_on_c, 0, 87, 100
2, 240000, Note_on_c, 0, 74, 100
2, 240000, Note_on_c, 0, 61, 100
2, 240240, Note_on_c, 0, 99, 0
2, 240240, Note_on_c, 0, 87, 0
2, 240240, Note_on_c, 0, 74, 0
2, 240240, Note_on_c, 0, 61, 0
2, 240240, Note_on_c, 0, 97, 100
2, 240240, Note_on_c, 0, 85, 100
2, 240480, Note_on_c, 0, 97, 0
2, 240480, Note_on_c, 0, 85, 0
2, 240480, Note_on_c, 0, 98, 100
2, 240480, Note_on_c, 0, 86, 100
2, 240480, Note_on_c, 0, 73, 100
2, 240720, Note_on_c, 0, 98, 0
2, 240720, Note_on_c, 0, 86, 0
2, 240720, Note_on_c, 0, 73, 0
2, 240720, Note_on_c, 0, 97, 100
2, 240960, Note_on_c, 0, 97, 0
2, 240960, Note_on_c, 0, 98, 100
2, 240960, Note_on_c, 0, 86, 100
2, 240960, Note_on_c, 0, 73, 100
2, 240960, Note_on_c, 0, 60, 100
2, 241200, Note_on_c, 0, 98, 0
2, 241200, Note_on_c, 0, 86, 0
2, 241200, Note_on_c, 0, 73, 0
2, 241200, Note_on_c, 0, 60, 0
2, 241200, Note_on_c, 0, 97, 100
2, 241200, Note_on_c, 0, 85, 100
2, 241440, Note_on_c, 0, 97, 0
2, 241440, Note_on_c, 0, 85, 0
2, 241440, Note_on_c, 0, 96, 100
2, 241440, Note_on_c, 0, 84, 100
2, 241440, Note_on_c, 0, 72, 100
2, 241440, Note_on_c, 0, 60, 100
2, 241680, Note_on_c, 0, 96, 0
2, 241680, Note_on_c, 0, 84, 0
2, 241680, Note_on_c, 0, 72, 0
2, 241680, Note_on_c, 0, 60, 0
2, 241680, Note_on_c, 0, 97, 100
2, 241890, Note_on_c, 0, 105, 0
2, 241890, Note_on_c, 0, 93, 0
2, 241890, Note_on_c, 0, 81, 0
2, 241890, Note_on_c, 0, 69, 0
2, 241890, Note_on_c, 0, 106, 100
2, 241890, Note_on_c, 0, 94, 100
2, 241890, Note_on_c, 0, 82, 100
2, 241890, Note_on_c, 0, 70, 100
2, 241920, Note_on_c, 0, 97, 0
2, 241920, Note_on_c, 0, 98, 100
2, 241920, Note_on_c, 0, 86, 100
2, 241920, Note_on_c, 0, 73, 100
2, 241920, Note_on_c, 0, 61, 100
2, 242160, Note_on_c, 0, 98, 0
2, 242160, Note_on_c, 0, 86, 0
2, 242160, Note_on_c, 0, 73, 0
2, 242160, Note_on_c, 0, 61, 0
2, 242400, Note_on_c, 0, 98, 100
2, 242400, Note_on_c, 0, 86, 100
2, 242640, Note_on_c, 0, 98, 0
2, 242640, Note_on_c, 0, 86, 0
2, 242640, Note_on_c, 0, 98, 100
2, 242880, Note_on_c, 0, 98, 0
2, 242880, Note_on_c, 0, 100, 100
2, 242880, Note_on_c, 0, 88, 100
2, 242880, Note_on_c, 0, 75, 100
2, 242880, Note_on_c, 0, 62, 100
2, 243120, Note_on_c, 0, 100, 0
2, 243120, Note_on_c, 0, 88, 0
2, 243120, Note_on_c, 0, 75, 0
2, 243120, Note_on_c, 0, 62, 0
2, 243120, Note_on_c, 0, 97, 100
2, 243120, Note_on_c, 0, 86, 100
2, 243360, Note_on_c, 0, 97, 0
2, 243360, Note_on_c, 0, 86, 0
2, 243360, Note_on_c, 0, 99, 100
2, 243360, Note_on_c, 0, 87, 100
2, 243360, Note_on_c, 0, 74, 100
2, 243600, Note_on_c, 0, 99, 0
2, 243600, Note_on_c, 0, 87, 0
2, 243600, Note_on_c, 0, 74, 0
2, 243600, Note_on_c, 0, 97, 100
2, 243840, Note_on_c, 0, 97, 0
2, 243840, Note_on_c, 0, 96, 100
2, 243840, Note_on_c, 0, 85, 100
2, 243840, Note_on_c, 0, 73, 100
2, 243840, Note_on_c, 0, 61, 100
2, 244080, Note_on_c, 0, 96, 0
2, 244080, Note_on_c, 0, 85, 0
2, 244080, Note_on_c, 0, 73, 0
2, 244080, Note_on_c, 0, 61, 0
2, 244080, Note_on_c, 0, 97, 100
2, 244080, Note_on_c, 0, 86, 100
2, 244320, Note_on_c, 0, 97, 0
2, 244320, Note_on_c, 0, 86, 0
2, 244320, Note_on_c, 0, 99, 100
2, 244320, Note_on_c, 0, 87, 100
2, 244320, Note_on_c, 0, 74, 100
2, 244560, Note_on_c, 0, 99, 0
2, 244560, Note_on_c, 0, 87, 0
2, 244560, Note_on_c, 0, 74, 0
2, 244560, Note_on_c, 0, 97, 100
2, 244800, Note_on_c, 0, 97, 0
2, 244800, Note_on_c, 0, 98, 100
2, 244800, Note_on_c, 0, 86, 100
2, 244800, Note_on_c, 0, 73, 100
2, 244800, Note_on_c, 0, 60, 100
2, 245040, Note_on_c, 0, 98, 0
2, 245040, Note_on_c, 0, 86, 0
2, 245040, Note_on_c, 0, 73, 0
2, 245040, Note_on_c, 0, 60, 0
2, 245040, Note_on_c, 0, 97, 100
2, 245040, Note_on_c, 0, 85, 100
2, 245280, Note_on_c, 0, 97, 0
2, 245280, Note_on_c, 0, 85, 0
2, 245280, Note_on_c, 0, 96, 100
2, 245280, Note_on_c, 0, 84, 100
2, 245280, Note_on_c, 0, 72, 100
2, 245280, Note_on_c, 0, 60, 100
2, 245520, Note_on_c, 0, 96, 0
2, 245520, Note_on_c, 0, 84, 0
2, 245520, Note_on_c, 0, 72, 0
2, 245520, Note_on_c, 0, 60, 0
2, 245730, Note_on_c, 0, 106, 0
2, 245730, Note_on_c, 0, 94, 0
2, 245730, Note_on_c, 0, 82, 0
2, 245730, Note_on_c, 0, 70, 0
2, 245730, Note_on_c, 0, 105, 100
2, 245730, Note_on_c, 0, 93, 100
2, 245730, Note_on_c, 0, 81, 100
2, 245730, Note_on_c, 0, 69, 100
2, 245760, Note_on_c, 0, 99, 100
2, 245760, Note_on_c, 0, 87, 100
2, 245760, Note_on_c, 0, 74, 100
2, 245760, Note_on_c, 0, 61, 100
2, 246000, Note_on_c, 0, 99, 0
2, 246000, Note_on_c, 0, 87, 0
2, 246000, Note_on_c, 0, 74, 0
2, 246000, Note_on_c, 0, 61, 0
2, 246240, Note_on_c, 0, 99, 100
2, 246240, Note_on_c, 0, 87, 100
2, 246480, Note_on_c, 0, 99, 0
2, 246480, Note_on_c, 0, 87, 0
2, 246480, Note_on_c, 0, 99, 100
2, 246720, Note_on_c, 0, 99, 0
2, 246720, Note_on_c, 0, 100, 100
2, 246720, Note_on_c, 0, 88, 100
2, 246720, Note_on_c, 0, 75, 100
2, 246720, Note_on_c, 0, 62, 100
2, 246960, Note_on_c, 0, 100, 0
2, 246960, Note_on_c, 0, 88, 0
2, 246960, Note_on_c, 0, 75, 0
2, 246960, Note_on_c, 0, 62, 0
2, 246960, Note_on_c, 0, 98, 100
2, 246960, Note_on_c, 0, 86, 100
2, 247200, Note_on_c, 0, 98, 0
2, 247200, Note_on_c, 0, 86, 0
2, 247200, Note_on_c, 0, 100, 100
2, 247200, Note_on_c, 0, 88, 100
2, 247200, Note_on_c, 0, 75, 100
2, 247440, Note_on_c, 0, 100, 0
2, 247440, Note_on_c, 0, 88, 0
2, 247440, Note_on_c, 0, 75, 0
2, 247440, Note_on_c, 0, 98, 100
2, 247650, Note_on_c, 0, 105, 0
2, 247650, Note_on_c, 0, 93, 0
2, 247650, Note_on_c, 0, 81, 0
2, 247650, Note_on_c, 0, 69, 0
2, 247650, Note_on_c, 0, 106, 100
2, 247650, Note_on_c, 0, 94, 100
2, 247650, Note_on_c, 0, 82, 100
2, 247650, Note_on_c, 0, 70, 100
2, 247680, Note_on_c, 0, 98, 0
2, 247680, Note_on_c, 0, 99, 100
2, 247680, Note_on_c, 0, 87, 100
2, 247680, Note_on_c, 0, 74, 100
2, 247680, Note_on_c, 0, 61, 100
2, 247920, Note_on_c, 0, 99, 0
2, 247920, Note_on_c, 0, 87, 0
2, 247920, Note_on_c, 0, 74, 0
2, 247920, Note_on_c, 0, 61, 0
2, 247920, Note_on_c, 0, 97, 100
2, 247920, Note_on_c, 0, 85, 100
2, 248160, Note_on_c, 0, 97, 0
2, 248160, Note_on_c, 0, 85, 0
2, 248160, Note_on_c, 0, 98, 100
2, 248160, Note_on_c, 0, 86, 100
2, 248160, Note_on_c, 0, 74, 100
2, 248400, Note_on_c, 0, 98, 0
2, 248400, Note_on_c, 0, 86, 0
2, 248400, Note_on_c, 0, 74, 0
2, 248400, Note_on_c, 0, 97, 100
2, 248640, Note_on_c, 0, 97, 0
2, 248640, Note_on_c, 0, 99, 100
2, 248640, Note_on_c, 0, 87, 100
2, 248640, Note_on_c, 0, 73, 100
2, 248640, Note_on_c, 0, 60, 100
2, 248880, Note_on_c, 0, 99, 0
2, 248880, Note_on_c, 0, 87, 0
2, 248880, Note_on_c, 0, 73, 0
2, 248880, Note_on_c, 0, 60, 0
2, 248880, Note_on_c, 0, 98, 100
2, 248880, Note_on_c, 0, 86, 100
2, 249120, Note_on_c, 0, 98, 0
2, 249120, Note_on_c, 0, 86, 0
2, 249120, Note_on_c, 0, 97, 100
2, 249120, Note_on_c, 0, 85, 100
2, 249360, Note_on_c, 0, 97, 0
2, 249360, Note_on_c, 0, 85, 0
2, 249570, Note_on_c, 0, 105, 100
2, 249570, Note_on_c, 0, 103, 100
2, 249570, Note_on_c, 0, 93, 100
2, 249570, Note_on_c, 0, 81, 100
2, 249570, Note_on_c, 0, 69, 100
2, 249570, Note_on_c, 0, 91, 100
2, 249570, Note_on_c, 0, 79, 100
2, 249570, Note_on_c, 0, 67, 100
2, 249600, Note_on_c, 0, 99, 100
2, 249600, Note_on_c, 0, 87, 100
2, 249600, Note_on_c, 0, 75, 100
2, 249600, Note_on_c, 0, 62, 100
2, 251040, Note_on_c, 0, 62, 0
2, 251280, Note_on_c, 0, 99, 0
2, 251280, Note_on_c, 0, 87, 0
2, 251280, Note_on_c, 0, 75, 0
2, 251280, Note_on_c, 0, 100, 100
2, 251280, Note_on_c, 0, 88, 100
2, 251520, Note_on_c, 0, 100, 0
2, 251520, Note_on_c, 0, 88, 0
2, 251520, Note_on_c, 0, 97, 100
2, 251520, Note_on_c, 0, 85, 100
2, 251520, Note_on_c, 0, 73, 100
2, 251520, Note_on_c, 0, 61, 100
2, 252960, Note_on_c, 0, 61, 0
2, 252960, Note_on_c, 0, 108, 100
2, 253200, Note_on_c, 0, 97, 0
2, 253200, Note_on_c, 0, 85, 0
2, 253200, Note_on_c, 0, 73, 0
2, 253280, Note_on_c, 0, 108, 0
2, 253410, Note_on_c, 0, 103, 0
2, 253410, Note_on_c, 0, 91, 0
2, 253410, Note_on_c, 0, 79, 0
2, 253410, Note_on_c, 0, 67, 0
2, 253440, Text_t, "sing_on"
2, 253440, Text_t, "[lighting (sweep)]"
2, 253440, Text_t, "solo_off"
2, 253440, Text_t, "[chorus]"
2, 253440, Text_t, "drum_normal"
2, 253440, Note_on_c, 0, 96, 100
2, 253440, Note_on_c, 0, 84, 100
2, 253440, Note_on_c, 0, 72, 100
2, 253440, Note_on_c, 0, 60, 100
2, 253440, Note_on_c, 0, 108, 100
2, 253680, Note_on_c, 0, 96, 0
2, 253680, Note_on_c, 0, 84, 0
2, 253680, Note_on_c, 0, 72, 0
2, 253680, Note_on_c, 0, 60, 0
2, 253760, Note_on_c, 0, 108, 0
2, 253920, Note_on_c, 0, 96, 100
2, 253920, Note_on_c, 0, 98, 100
2, 253920, Note_on_c, 0, 84, 100
2, 253920, Note_on_c, 0, 86, 100
2, 253920, Note_on_c, 0, 72, 100
2, 253920, Note_on_c, 0, 73, 100
2, 253920, Note_on_c, 0, 60, 100
2, 253920, Note_on_c, 0, 108, 100
2, 254160, Note_on_c, 0, 96, 0
2, 254160, Note_on_c, 0, 98, 0
2, 254160, Note_on_c, 0, 84, 0
2, 254160, Note_on_c, 0, 86, 0
2, 254160, Note_on_c, 0, 72, 0
2, 254160, Note_on_c, 0, 73, 0
2, 254160, Note_on_c, 0, 60, 0
2, 254720, Note_on_c, 0, 108, 0
2, 254880, Note_on_c, 0, 96, 100
2, 254880, Note_on_c, 0, 98, 100
2, 254880, Note_on_c, 0, 84, 100
2, 254880, Note_on_c, 0, 86, 100
2, 254880, Note_on_c, 0, 72, 100
2, 254880, Note_on_c, 0, 73, 100
2, 254880, Note_on_c, 0, 60, 100
2, 254880, Note_on_c, 0, 108, 100
2, 255120, Note_on_c, 0, 96, 0
2, 255120, Note_on_c, 0, 98, 0
2, 255120, Note_on_c, 0, 84, 0
2, 255120, Note_on_c, 0, 86, 0
2, 255120, Note_on_c, 0, 72, 0
2, 255120, Note_on_c, 0, 73, 0
2, 255120, Note_on_c, 0, 60, 0
2, 255200, Note_on_c, 0, 108, 0
2, 255360, Note_on_c, 0, 108, 100
2, 255840, Note_on_c, 0, 96, 100
2, 255840, Note_on_c, 0, 84, 100
2, 255840, Note_on_c, 0, 72, 100
2, 255840, Note_on_c, 0, 60, 100
2, 256080, Note_on_c, 0, 96, 0
2, 256080, Note_on_c, 0, 84, 0
2, 256080, Note_on_c, 0, 72, 0
2, 256080, Note_on_c, 0, 60, 0
2, 256160, Note_on_c, 0, 108, 0
2, 256320, Note_on_c, 0, 87, 100
2, 256320, Note_on_c, 0, 75, 100
2, 256320, Note_on_c, 0, 62, 100
2, 256320, Note_on_c, 0, 99, 100
2, 256320, Note_on_c, 0, 98, 100
2, 256560, Note_on_c, 0, 87, 0
2, 256560, Note_on_c, 0, 75, 0
2, 256560, Note_on_c, 0, 62, 0
2, 256560, Note_on_c, 0, 99, 0
2, 256560, Note_on_c, 0, 98, 0
2, 256800, Note_on_c, 0, 97, 100
2, 256800, Note_on_c, 0, 99, 100
2, 256800, Note_on_c, 0, 86, 100
2, 256800, Note_on_c, 0, 108, 100
2, 257040, Note_on_c, 0, 97, 0
2, 257040, Note_on_c, 0, 99, 0
2, 257040, Note_on_c, 0, 86, 0
2, 257120, Note_on_c, 0, 108, 0
2, 257280, Note_on_c, 0, 96, 100
2, 257280, Note_on_c, 0, 84, 100
2, 257280, Note_on_c, 0, 72, 100
2, 257280, Note_on_c, 0, 60, 100
2, 257280, Note_on_c, 0, 108, 100
2, 257520, Note_on_c, 0, 96, 0
2, 257520, Note_on_c, 0, 84, 0
2, 257520, Note_on_c, 0, 72, 0
2, 257520, Note_on_c, 0, 60, 0
2, 257600, Note_on_c, 0, 108, 0
2, 257760, Note_on_c, 0, 96, 100
2, 257760, Note_on_c, 0, 98, 100
2, 257760, Note_on_c, 0, 84, 100
2, 257760, Note_on_c, 0, 86, 100
2, 257760, Note_on_c, 0, 72, 100
2, 257760, Note_on_c, 0, 73, 100
2, 257760, Note_on_c, 0, 60, 100
2, 257760, Note_on_c, 0, 108, 100
2, 258000, Note_on_c, 0, 96, 0
2, 258000, Note_on_c, 0, 98, 0
2, 258000, Note_on_c, 0, 84, 0
2, 258000, Note_on_c, 0, 86, 0
2, 258000, Note_on_c, 0, 72, 0
2, 258000, Note_on_c, 0, 73, 0
2, 258000, Note_on_c, 0, 60, 0
2, 258400, Note_on_c, 0, 108, 0
2, 258720, Note_on_c, 0, 96, 100
2, 258720, Note_on_c, 0, 98, 100
2, 258720, Note_on_c, 0, 84, 100
2, 258720, Note_on_c, 0, 86, 100
2, 258720, Note_on_c, 0, 72, 100
2, 258720, Note_on_c, 0, 73, 100
2, 258720, Note_on_c, 0, 60, 100
2, 258720, Note_on_c, 0, 108, 100
2, 258960, Note_on_c, 0, 96, 0
2, 258960, Note_on_c, 0, 98, 0
2, 258960, Note_on_c, 0, 84, 0
2, 258960, Note_on_c, 0, 86, 0
2, 258960, Note_on_c, 0, 72, 0
2, 258960, Note_on_c, 0, 73, 0
2, 258960, Note_on_c, 0, 60, 0
2, 259040, Note_on_c, 0, 108, 0
2, 259200, Note_on_c, 0, 108, 100
2, 259680, Note_on_c, 0, 96, 100
2, 259680, Note_on_c, 0, 84, 100
2, 259680, Note_on_c, 0, 72, 100
2, 259680, Note_on_c, 0, 60, 100
2, 259920, Note_on_c, 0, 96, 0
2, 259920, Note_on_c, 0, 84, 0
2, 259920, Note_on_c, 0, 72, 0
2, 259920, Note_on_c, 0, 60, 0
2, 260160, Note_on_c, 0, 108, 0
2, 260160, Note_on_c, 0, 97, 100
2, 260160, Note_on_c, 0, 99, 100
2, 260160, Note_on_c, 0, 85, 100
2, 260160, Note_on_c, 0, 87, 100
2, 260160, Note_on_c, 0, 74, 100
2, 260160, Note_on_c, 0, 61, 100
2, 260640, Note_on_c, 0, 108, 100
2, 260880, Note_on_c, 0, 97, 0
2, 260880, Note_on_c, 0, 99, 0
2, 260880, Note_on_c, 0, 85, 0
2, 260880, Note_on_c, 0, 87, 0
2, 260880, Note_on_c, 0, 74, 0
2, 260880, Note_on_c, 0, 61, 0
2, 260960, Note_on_c, 0, 108, 0
2, 261120, Note_on_c, 0, 96, 100
2, 261120, Note_on_c, 0, 84, 100
2, 261120, Note_on_c, 0, 72, 100
2, 261120, Note_on_c, 0, 60, 100
2, 261120, Note_on_c, 0, 108, 100
2, 261360, Note_on_c, 0, 96, 0
2, 261360, Note_on_c, 0, 84, 0
2, 261360, Note_on_c, 0, 72, 0
2, 261360, Note_on_c, 0, 60, 0
2, 261600, Note_on_c, 0, 96, 100
2, 261600, Note_on_c, 0, 98, 100
2, 261600, Note_on_c, 0, 84, 100
2, 261600, Note_on_c, 0, 86, 100
2, 261600, Note_on_c, 0, 72, 100
2, 261600, Note_on_c, 0, 73, 100
2, 261600, Note_on_c, 0, 60, 100
2, 261840, Note_on_c, 0, 96, 0
2, 261840, Note_on_c, 0, 98, 0
2, 261840, Note_on_c, 0, 84, 0
2, 261840, Note_on_c, 0, 86, 0
2, 261840, Note_on_c, 0, 72, 0
2, 261840, Note_on_c, 0, 73, 0
2, 261840, Note_on_c, 0, 60, 0
2, 262240, Note_on_c, 0, 108, 0
2, 262560, Note_on_c, 0, 96, 100
2, 262560, Note_on_c, 0, 98, 100
2, 262560, Note_on_c, 0, 84, 100
2, 262560, Note_on_c, 0, 86, 100
2, 262560, Note_on_c, 0, 72, 100
2, 262560, Note_on_c, 0, 73, 100
2, 262560, Note_on_c, 0, 60, 100
2, 262560, Note_on_c, 0, 108, 100
2, 262800, Note_on_c, 0, 96, 0
2, 262800, Note_on_c, 0, 98, 0
2, 262800, Note_on_c, 0, 84, 0
2, 262800, Note_on_c, 0, 86, 0
2, 262800, Note_on_c, 0, 72, 0
2, 262800, Note_on_c, 0, 73, 0
2, 262800, Note_on_c, 0, 60, 0
2, 262880, Note_on_c, 0, 108, 0
2, 263040, Note_on_c, 0, 108, 100
2, 263520, Note_on_c, 0, 96, 100
2, 263520, Note_on_c, 0, 84, 100
2, 263520, Note_on_c, 0, 72, 100
2, 263520, Note_on_c, 0, 60, 100
2, 263760, Note_on_c, 0, 96, 0
2, 263760, Note_on_c, 0, 84, 0
2, 263760, Note_on_c, 0, 72, 0
2, 263760, Note_on_c, 0, 60, 0
2, 263840, Note_on_c, 0, 108, 0
2, 264000, Note_on_c, 0, 98, 100
2, 264000, Note_on_c, 0, 87, 100
2, 264000, Note_on_c, 0, 75, 100
2, 264000, Note_on_c, 0, 62, 100
2, 264000, Note_on_c, 0, 99, 100
2, 264240, Note_on_c, 0, 98, 0
2, 264240, Note_on_c, 0, 87, 0
2, 264240, Note_on_c, 0, 75, 0
2, 264240, Note_on_c, 0, 62, 0
2, 264240, Note_on_c, 0, 99, 0
2, 264480, Note_on_c, 0, 97, 100
2, 264480, Note_on_c, 0, 99, 100
2, 264480, Note_on_c, 0, 86, 100
2, 264480, Note_on_c, 0, 108, 100
2, 264720, Note_on_c, 0, 97, 0
2, 264720, Note_on_c, 0, 99, 0
2, 264720, Note_on_c, 0, 86, 0
2, 264800, Note_on_c, 0, 108, 0
2, 264960, Note_on_c, 0, 96, 100
2, 264960, Note_on_c, 0, 84, 100
2, 264960, Note_on_c, 0, 72, 100
2, 264960, Note_on_c, 0, 60, 100
2, 264960, Note_on_c, 0, 108, 100
2, 265200, Note_on_c, 0, 96, 0
2, 265200, Note_on_c, 0, 84, 0
2, 265200, Note_on_c, 0, 72, 0
2, 265200, Note_on_c, 0, 60, 0
2, 265280, Note_on_c, 0, 108, 0
2, 265440, Note_on_c, 0, 96, 100
2, 265440, Note_on_c, 0, 98, 100
2, 265440, Note_on_c, 0, 84, 100
2, 265440, Note_on_c, 0, 86, 100
2, 265440, Note_on_c, 0, 72, 100
2, 265440, Note_on_c, 0, 73, 100
2, 265440, Note_on_c, 0, 60, 100
2, 265440, Note_on_c, 0, 108, 100
2, 265680, Note_on_c, 0, 96, 0
2, 265680, Note_on_c, 0, 98, 0
2, 265680, Note_on_c, 0, 84, 0
2, 265680, Note_on_c, 0, 86, 0
2, 265680, Note_on_c, 0, 72, 0
2, 265680, Note_on_c, 0, 73, 0
2, 265680, Note_on_c, 0, 60, 0
2, 266080, Note_on_c, 0, 108, 0
2, 266400, Note_on_c, 0, 96, 100
2, 266400, Note_on_c, 0, 98, 100
2, 266400, Note_on_c, 0, 84, 100
2, 266400, Note_on_c, 0, 86, 100
2, 266400, Note_on_c, 0, 72, 100
2, 266400, Note_on_c, 0, 73, 100
2, 266400, Note_on_c, 0, 60, 100
2, 266400, Note_on_c, 0, 108, 100
2, 266640, Note_on_c, 0, 96, 0
2, 266640, Note_on_c, 0, 98, 0
2, 266640, Note_on_c, 0, 84, 0
2, 266640, Note_on_c, 0, 86, 0
2, 266640, Note_on_c, 0, 72, 0
2, 266640, Note_on_c, 0, 73, 0
2, 266640, Note_on_c, 0, 60, 0
2, 266720, Note_on_c, 0, 108, 0
2, 266880, Note_on_c, 0, 108, 100
2, 267360, Note_on_c, 0, 96, 100
2, 267360, Note_on_c, 0, 84, 100
2, 267360, Note_on_c, 0, 72, 100
2, 267360, Note_on_c, 0, 60, 100
2, 267600, Note_on_c, 0, 96, 0
2, 267600, Note_on_c, 0, 84, 0
2, 267600, Note_on_c, 0, 72, 0
2, 267600, Note_on_c, 0, 60, 0
2, 267600, Note_on_c, 0, 96, 100
2, 267600, Note_on_c, 0, 84, 100
2, 267680, Note_on_c, 0, 108, 0
2, 267840, Note_on_c, 0, 96, 0
2, 267840, Note_on_c, 0, 84, 0
2, 267840, Note_on_c, 0, 73, 100
2, 267840, Note_on_c, 0, 61, 100
2, 267840, Note_on_c, 0, 86, 100
2, 267840, Note_on_c, 0, 85, 100
2, 267840, Note_on_c, 0, 97, 100
2, 267840, Note_on_c, 0, 98, 100
2, 268080, Note_on_c, 0, 97, 0
2, 268080, Note_on_c, 0, 98, 0
2, 268290, Note_on_c, 0, 106, 0
2, 268290, Note_on_c, 0, 94, 0
2, 268290, Note_on_c, 0, 82, 0
2, 268290, Note_on_c, 0, 70, 0
2, 268320, Note_on_c, 0, 96, 100
2, 268320, Note_on_c, 0, 108, 100
2, 268560, Note_on_c, 0, 73, 0
2, 268560, Note_on_c, 0, 61, 0
2, 268560, Note_on_c, 0, 86, 0
2, 268560, Note_on_c, 0, 85, 0
2, 268560, Note_on_c, 0, 96, 0
2, 268560, Note_on_c, 0, 96, 100
2, 268640, Note_on_c, 0, 108, 0
2, 268800, Note_on_c, 0, 96, 0
2, 268800, Note_on_c, 0, 96, 100
2, 268800, Note_on_c, 0, 84, 100
2, 268800, Note_on_c, 0, 72, 100
2, 268800, Note_on_c, 0, 60, 100
2, 268800, Note_on_c, 0, 108, 100
2, 269040, Note_on_c, 0, 96, 0
2, 269040, Note_on_c, 0, 84, 0
2, 269040, Note_on_c, 0, 72, 0
2, 269040, Note_on_c, 0, 60, 0
2, 269280, Note_on_c, 0, 96, 100
2, 269280, Note_on_c, 0, 98, 100
2, 269280, Note_on_c, 0, 84, 100
2, 269280, Note_on_c, 0, 86, 100
2, 269280, Note_on_c, 0, 72, 100
2, 269280, Note_on_c, 0, 73, 100
2, 269280, Note_on_c, 0, 60, 100
2, 269520, Note_on_c, 0, 96, 0
2, 269520, Note_on_c, 0, 98, 0
2, 269520, Note_on_c, 0, 84, 0
2, 269520, Note_on_c, 0, 86, 0
2, 269520, Note_on_c, 0, 72, 0
2, 269520, Note_on_c, 0, 73, 0
2, 269520, Note_on_c, 0, 60, 0
2, 269600, Note_on_c, 0, 108, 0
2, 270080, Note_on_c, 0, 108, 100
2, 270240, Note_on_c, 0, 96, 100
2, 270240, Note_on_c, 0, 98, 100
2, 270240, Note_on_c, 0, 84, 100
2, 270240, Note_on_c, 0, 86, 100
2, 270240, Note_on_c, 0, 72, 100
2, 270240, Note_on_c, 0, 73, 100
2, 270240, Note_on_c, 0, 60, 100
2, 270320, Note_on_c, 0, 108, 0
2, 270400, Note_on_c, 0, 108, 100
2, 270480, Note_on_c, 0, 96, 0
2, 270480, Note_on_c, 0, 98, 0
2, 270480, Note_on_c, 0, 84, 0
2, 270480, Note_on_c, 0, 86, 0
2, 270480, Note_on_c, 0, 72, 0
2, 270480, Note_on_c, 0, 73, 0
2, 270480, Note_on_c, 0, 60, 0
2, 270640, Note_on_c, 0, 108, 0
2, 270690, Note_on_c, 0, 105, 0
2, 270690, Note_on_c, 0, 93, 0
2, 270690, Note_on_c, 0, 81, 0
2, 270690, Note_on_c, 0, 69, 0
2, 270690, Note_on_c, 0, 106, 100
2, 270690, Note_on_c, 0, 94, 100
2, 270690, Note_on_c, 0, 82, 100
2, 270690, Note_on_c, 0, 70, 100
2, 270720, Note_on_c, 0, 108, 100
2, 271040, Note_on_c, 0, 108, 0
2, 271200, Note_on_c, 0, 96, 100
2, 271200, Note_on_c, 0, 84, 100
2, 271200, Note_on_c, 0, 72, 100
2, 271200, Note_on_c, 0, 60, 100
2, 271200, Note_on_c, 0, 108, 100
2, 271440, Note_on_c, 0, 96, 0
2, 271440, Note_on_c, 0, 84, 0
2, 271440, Note_on_c, 0, 72, 0
2, 271440, Note_on_c, 0, 60, 0
2, 271680, Note_on_c, 0, 108, 0
2, 271680, Note_on_c, 0, 98, 100
2, 271680, Note_on_c, 0, 87, 100
2, 271680, Note_on_c, 0, 75, 100
2, 271680, Note_on_c, 0, 62, 100
2, 271680, Note_on_c, 0, 99, 100
2, 271920, Note_on_c, 0, 98, 0
2, 271920, Note_on_c, 0, 87, 0
2, 271920, Note_on_c, 0, 75, 0
2, 271920, Note_on_c, 0, 62, 0
2, 271920, Note_on_c, 0, 99, 0
2, 272160, Note_on_c, 0, 97, 100
2, 272160, Note_on_c, 0, 99, 100
2, 272160, Note_on_c, 0, 86, 100
2, 272160, Note_on_c, 0, 108, 100
2, 272400, Note_on_c, 0, 97, 0
2, 272400, Note_on_c, 0, 99, 0
2, 272400, Note_on_c, 0, 86, 0
2, 272480, Note_on_c, 0, 108, 0
2, 272610, Note_on_c, 0, 106, 0
2, 272610, Note_on_c, 0, 94, 0
2, 272610, Note_on_c, 0, 82, 0
2, 272610, Note_on_c, 0, 70, 0
2, 272610, Note_on_c, 0, 105, 100
2, 272610, Note_on_c, 0, 93, 100
2, 272610, Note_on_c, 0, 81, 100
2, 272610, Note_on_c, 0, 69, 100
2, 272640, Note_on_c, 0, 96, 100
2, 272640, Note_on_c, 0, 84, 100
2, 272640, Note_on_c, 0, 72, 100
2, 272640, Note_on_c, 0, 60, 100
2, 272640, Note_on_c, 0, 108, 100
2, 272880, Note_on_c, 0, 96, 0
2, 272880, Note_on_c, 0, 84, 0
2, 272880, Note_on_c, 0, 72, 0
2, 272880, Note_on_c, 0, 60, 0
2, 272960, Note_on_c, 0, 108, 0
2, 273120, Note_on_c, 0, 96, 100
2, 273120, Note_on_c, 0, 98, 100
2, 273120, Note_on_c, 0, 84, 100
2, 273120, Note_on_c, 0, 86, 100
2, 273120, Note_on_c, 0, 72, 100
2, 273120, Note_on_c, 0, 73, 100
2, 273120, Note_on_c, 0, 60, 100
2, 273120, Note_on_c, 0, 108, 100
2, 273360, Note_on_c, 0, 96, 0
2, 273360, Note_on_c, 0, 98, 0
2, 273360, Note_on_c, 0, 84, 0
2, 273360, Note_on_c, 0, 86, 0
2, 273360, Note_on_c, 0, 72, 0
2, 273360, Note_on_c, 0, 73, 0
2, 273360, Note_on_c, 0, 60, 0
2, 273760, Note_on_c, 0, 108, 0
2, 274080, Note_on_c, 0, 96, 100
2, 274080, Note_on_c, 0, 98, 100
2, 274080, Note_on_c, 0, 84, 100
2, 274080, Note_on_c, 0, 86, 100
2, 274080, Note_on_c, 0, 72, 100
2, 274080, Note_on_c, 0, 73, 100
2, 274080, Note_on_c, 0, 60, 100
2, 274080, Note_on_c, 0, 108, 100
2, 274320, Note_on_c, 0, 96, 0
2, 274320, Note_on_c, 0, 98, 0
2, 274320, Note_on_c, 0, 84, 0
2, 274320, Note_on_c, 0, 86, 0
2, 274320, Note_on_c, 0, 72, 0
2, 274320, Note_on_c, 0, 73, 0
2, 274320, Note_on_c, 0, 60, 0
2, 274400, Note_on_c, 0, 108, 0
2, 274530, Note_on_c, 0, 105, 0
2, 274530, Note_on_c, 0, 93, 0
2, 274530, Note_on_c, 0, 81, 0
2, 274530, Note_on_c, 0, 69, 0
2, 274530, Note_on_c, 0, 106, 100
2, 274530, Note_on_c, 0, 94, 100
2, 274530, Note_on_c, 0, 82, 100
2, 274530, Note_on_c, 0, 70, 100
2, 274560, Note_on_c, 0, 108, 100
2, 275040, Note_on_c, 0, 96, 100
2, 275040, Note_on_c, 0, 84, 100
2, 275040, Note_on_c, 0, 72, 100
2, 275040, Note_on_c, 0, 60, 100
2, 275200, Note_on_c, 0, 108, 0
2, 275280, Note_on_c, 0, 96, 0
2, 275280, Note_on_c, 0, 84, 0
2, 275280, Note_on_c, 0, 72, 0
2, 275280, Note_on_c, 0, 60, 0
2, 275520, Note_on_c, 0, 97, 100
2, 275520, Note_on_c, 0, 99, 100
2, 275520, Note_on_c, 0, 85, 100
2, 275520, Note_on_c, 0, 87, 100
2, 275520, Note_on_c, 0, 74, 100
2, 275520, Note_on_c, 0, 61, 100
2, 275520, Note_on_c, 0, 108, 100
2, 276160, Note_on_c, 0, 108, 0
2, 276240, Note_on_c, 0, 97, 0
2, 276240, Note_on_c, 0, 99, 0
2, 276240, Note_on_c, 0, 85, 0
2, 276240, Note_on_c, 0, 87, 0
2, 276240, Note_on_c, 0, 74, 0
2, 276240, Note_on_c, 0, 61, 0
2, 276480, Note_on_c, 0, 96, 100
2, 276480, Note_on_c, 0, 84, 100
2, 276480, Note_on_c, 0, 72, 100
2, 276480, Note_on_c, 0, 60, 100
2, 276480, Note_on_c, 0, 108, 100
2, 276720, Note_on_c, 0, 96, 0
2, 276720, Note_on_c, 0, 84, 0
2, 276720, Note_on_c, 0, 72, 0
2, 276720, Note_on_c, 0, 60, 0
2, 276800, Note_on_c, 0, 108, 0
2, 276960, Note_on_c, 0, 96, 100
2, 276960, Note_on_c, 0, 98, 100
2, 276960, Note_on_c, 0, 84, 100
2, 276960, Note_on_c, 0, 86, 100
2, 276960, Note_on_c, 0, 72, 100
2, 276960, Note_on_c, 0, 73, 100
2, 276960, Note_on_c, 0, 60, 100
2, 276960, Note_on_c, 0, 108, 100
2, 277200, Note_on_c, 0, 96, 0
2, 277200, Note_on_c, 0, 98, 0
2, 277200, Note_on_c, 0, 84, 0
2, 277200, Note_on_c, 0, 86, 0
2, 277200, Note_on_c, 0, 72, 0
2, 277200, Note_on_c, 0, 73, 0
2, 277200, Note_on_c, 0, 60, 0
2, 277600, Note_on_c, 0, 108, 0
2, 277920, Note_on_c, 0, 96, 100
2, 277920, Note_on_c, 0, 98, 100
2, 277920, Note_on_c, 0, 84, 100
2, 277920, Note_on_c, 0, 86, 100
2, 277920, Note_on_c, 0, 72, 100
2, 277920, Note_on_c, 0, 73, 100
2, 277920, Note_on_c, 0, 60, 100
2, 277920, Note_on_c, 0, 108, 100
2, 278160, Note_on_c, 0, 96, 0
2, 278160, Note_on_c, 0, 98, 0
2, 278160, Note_on_c, 0, 84, 0
2, 278160, Note_on_c, 0, 86, 0
2, 278160, Note_on_c, 0, 72, 0
2, 278160, Note_on_c, 0, 73, 0
2, 278160, Note_on_c, 0, 60, 0
2, 278240, Note_on_c, 0, 108, 0
2, 278370, Note_on_c, 0, 106, 0
2, 278370, Note_on_c, 0, 94, 0
2, 278370, Note_on_c, 0, 82, 0
2, 278370, Note_on_c, 0, 70, 0
2, 278370, Note_on_c, 0, 105, 100
2, 278370, Note_on_c, 0, 93, 100
2, 278370, Note_on_c, 0, 81, 100
2, 278370, Note_on_c, 0, 69, 100
2, 278400, Note_on_c, 0, 108, 100
2, 278880, Note_on_c, 0, 96, 100
2, 278880, Note_on_c, 0, 84, 100
2, 278880, Note_on_c, 0, 72, 100
2, 278880, Note_on_c, 0, 60, 100
2, 279040, Note_on_c, 0, 108, 0
2, 279120, Note_on_c, 0, 96, 0
2, 279120, Note_on_c, 0, 84, 0
2, 279120, Note_on_c, 0, 72, 0
2, 279120, Note_on_c, 0, 60, 0
2, 279360, Note_on_c, 0, 98, 100
2, 279360, Note_on_c, 0, 87, 100
2, 279360, Note_on_c, 0, 75, 100
2, 279360, Note_on_c, 0, 62, 100
2, 279360, Note_on_c, 0, 99, 100
2, 279600, Note_on_c, 0, 98, 0
2, 279600, Note_on_c, 0, 87, 0
2, 279600, Note_on_c, 0, 75, 0
2, 279600, Note_on_c, 0, 62, 0
2, 279600, Note_on_c, 0, 99, 0
2, 279840, Note_on_c, 0, 97, 100
2, 279840, Note_on_c, 0, 99, 100
2, 279840, Note_on_c, 0, 86, 100
2, 279840, Note_on_c, 0, 108, 100
2, 280080, Note_on_c, 0, 97, 0
2, 280080, Note_on_c, 0, 99, 0
2, 280080, Note_on_c, 0, 86, 0
2, 280160, Note_on_c, 0, 108, 0
2, 280290, Note_on_c, 0, 105, 0
2, 280290, Note_on_c, 0, 93, 0
2, 280290, Note_on_c, 0, 81, 0
2, 280290, Note_on_c, 0, 69, 0
2, 280290, Note_on_c, 0, 106, 100
2, 280290, Note_on_c, 0, 94, 100
2, 280290, Note_on_c, 0, 82, 100
2, 280290, Note_on_c, 0, 70, 100
2, 280320, Note_on_c, 0, 96, 100
2, 280320, Note_on_c, 0, 84, 100
2, 280320, Note_on_c, 0, 72, 100
2, 280320, Note_on_c, 0, 60, 100
2, 280320, Note_on_c, 0, 108, 100
2, 280560, Note_on_c, 0, 96, 0
2, 280560, Note_on_c, 0, 84, 0
2, 280560, Note_on_c, 0, 72, 0
2, 280560, Note_on_c, 0, 60, 0
2, 280640, Note_on_c, 0, 108, 0
2, 280800, Note_on_c, 0, 96, 100
2, 280800, Note_on_c, 0, 98, 100
2, 280800, Note_on_c, 0, 84, 100
2, 280800, Note_on_c, 0, 86, 100
2, 280800, Note_on_c, 0, 72, 100
2, 280800, Note_on_c, 0, 73, 100
2, 280800, Note_on_c, 0, 60, 100
2, 280800, Note_on_c, 0, 108, 100
2, 281040, Note_on_c, 0, 96, 0
2, 281040, Note_on_c, 0, 98, 0
2, 281040, Note_on_c, 0, 84, 0
2, 281040, Note_on_c, 0, 86, 0
2, 281040, Note_on_c, 0, 72, 0
2, 281040, Note_on_c, 0, 73, 0
2, 281040, Note_on_c, 0, 60, 0
2, 281600, Note_on_c, 0, 108, 0
2, 281760, Note_on_c, 0, 96, 100
2, 281760, Note_on_c, 0, 98, 100
2, 281760, Note_on_c, 0, 84, 100
2, 281760, Note_on_c, 0, 86, 100
2, 281760, Note_on_c, 0, 72, 100
2, 281760, Note_on_c, 0, 73, 100
2, 281760, Note_on_c, 0, 60, 100
2, 281760, Note_on_c, 0, 108, 100
2, 282000, Note_on_c, 0, 96, 0
2, 282000, Note_on_c, 0, 98, 0
2, 282000, Note_on_c, 0, 84, 0
2, 282000, Note_on_c, 0, 86, 0
2, 282000, Note_on_c, 0, 72, 0
2, 282000, Note_on_c, 0, 73, 0
2, 282000, Note_on_c, 0, 60, 0
2, 282080, Note_on_c, 0, 108, 0
2, 282210, Note_on_c, 0, 106, 0
2, 282210, Note_on_c, 0, 94, 0
2, 282210, Note_on_c, 0, 82, 0
2, 282210, Note_on_c, 0, 70, 0
2, 282210, Note_on_c, 0, 105, 100
2, 282210, Note_on_c, 0, 93, 100
2, 282210, Note_on_c, 0, 81, 100
2, 282210, Note_on_c, 0, 69, 100
2, 282240, Note_on_c, 0, 108, 100
2, 282720, Note_on_c, 0, 96, 100
2, 282720, Note_on_c, 0, 84, 100
2, 282720, Note_on_c, 0, 72, 100
2, 282720, Note_on_c, 0, 60, 100
2, 282960, Note_on_c, 0, 96, 0
2, 282960, Note_on_c, 0, 84, 0
2, 282960, Note_on_c, 0, 72, 0
2, 282960, Note_on_c, 0, 60, 0
2, 282960, Note_on_c, 0, 96, 100
2, 282960, Note_on_c, 0, 84, 100
2, 283040, Note_on_c, 0, 108, 0
2, 283200, Note_on_c, 0, 96, 0
2, 283200, Note_on_c, 0, 84, 0
2, 283200, Note_on_c, 0, 73, 100
2, 283200, Note_on_c, 0, 61, 100
2, 283200, Note_on_c, 0, 85, 100
2, 283200, Note_on_c, 0, 86, 100
2, 283200, Note_on_c, 0, 97, 100
2, 283200, Note_on_c, 0, 98, 100
2, 283440, Note_on_c, 0, 85, 0
2, 283440, Note_on_c, 0, 86, 0
2, 283440, Note_on_c, 0, 97, 0
2, 283440, Note_on_c, 0, 98, 0
2, 283650, Note_on_c, 0, 106, 100
2, 283650, Note_on_c, 0, 94, 100
2, 283650, Note_on_c, 0, 82, 100
2, 283650, Note_on_c, 0, 70, 100
2, 283680, Note_on_c, 0, 96, 100
2, 283680, Note_on_c, 0, 84, 100
2, 283920, Note_on_c, 0, 73, 0
2, 283920, Note_on_c, 0, 61, 0
2, 283920, Note_on_c, 0, 96, 0
2, 283920, Note_on_c, 0, 84, 0
2, 283920, Note_on_c, 0, 96, 100
2, 283920, Note_on_c, 0, 84, 100
2, 284160, Text_t, "wail_off"
2, 284160, Text_t, "[verse]"
2, 284160, Note_on_c, 0, 96, 0
2, 284160, Note_on_c, 0, 84, 0
2, 284160, Note_on_c, 0, 96, 100
2, 284160, Note_on_c, 0, 84, 100
2, 284160, Note_on_c, 0, 72, 100
2, 284160, Note_on_c, 0, 60, 100
2, 284400, Note_on_c, 0, 96, 0
2, 284400, Note_on_c, 0, 84, 0
2, 284400, Note_on_c, 0, 72, 0
2, 284400, Note_on_c, 0, 60, 0
2, 284640, Note_on_c, 0, 96, 100
2, 284640, Note_on_c, 0, 98, 100
2, 284640, Note_on_c, 0, 84, 100
2, 284640, Note_on_c, 0, 86, 100
2, 284640, Note_on_c, 0, 72, 100
2, 284640, Note_on_c, 0, 73, 100
2, 284640, Note_on_c, 0, 60, 100
2, 284880, Note_on_c, 0, 96, 0
2, 284880, Note_on_c, 0, 98, 0
2, 284880, Note_on_c, 0, 84, 0
2, 284880, Note_on_c, 0, 86, 0
2, 284880, Note_on_c, 0, 72, 0
2, 284880, Note_on_c, 0, 73, 0
2, 284880, Note_on_c, 0, 60, 0
2, 285120, Note_on_c, 0, 108, 100
2, 285600, Note_on_c, 0, 108, 0
2, 288960, Note_on_c, 0, 108, 100
2, 289440, Note_on_c, 0, 108, 0
2, 291330, Note_on_c, 0, 103, 100
2, 291330, Note_on_c, 0, 91, 100
2, 291330, Note_on_c, 0, 79, 100
2, 291330, Note_on_c, 0, 67, 100
2, 291360, Note_on_c, 0, 96, 100
2, 291360, Note_on_c, 0, 84, 100
2, 291360, Note_on_c, 0, 72, 100
2, 291360, Note_on_c, 0, 60, 100
2, 291600, Note_on_c, 0, 96, 0
2, 291600, Note_on_c, 0, 84, 0
2, 291600, Note_on_c, 0, 72, 0
2, 291600, Note_on_c, 0, 60, 0
2, 291600, Note_on_c, 0, 96, 100
2, 291600, Note_on_c, 0, 84, 100
2, 291840, Note_on_c, 0, 96, 0
2, 291840, Note_on_c, 0, 84, 0
2, 291840, Note_on_c, 0, 96, 100
2, 291840, Note_on_c, 0, 84, 100
2, 291840, Note_on_c, 0, 72, 100
2, 291840, Note_on_c, 0, 60, 100
2, 292080, Note_on_c, 0, 96, 0
2, 292080, Note_on_c, 0, 84, 0
2, 292080, Note_on_c, 0, 72, 0
2, 292080, Note_on_c, 0, 60, 0
2, 292320, Note_on_c, 0, 96, 100
2, 292320, Note_on_c, 0, 98, 100
2, 292320, Note_on_c, 0, 84, 100
2, 292320, Note_on_c, 0, 86, 100
2, 292320, Note_on_c, 0, 72, 100
2, 292320, Note_on_c, 0, 73, 100
2, 292320, Note_on_c, 0, 60, 100
2, 292558, Note_on_c, 0, 96, 0
2, 292558, Note_on_c, 0, 98, 0
2, 292558, Note_on_c, 0, 84, 0
2, 292558, Note_on_c, 0, 86, 0
2, 292558, Note_on_c, 0, 72, 0
2, 292558, Note_on_c, 0, 73, 0
2, 292558, Note_on_c, 0, 60, 0
2, 292768, Note_on_c, 0, 103, 0
2, 292768, Note_on_c, 0, 91, 0
2, 292768, Note_on_c, 0, 79, 0
2, 292768, Note_on_c, 0, 67, 0
2, 292800, Note_on_c, 0, 108, 100
2, 293280, Note_on_c, 0, 108, 0
2, 296640, Note_on_c, 0, 108, 100
2, 297120, Note_on_c, 0, 108, 0
2, 299040, Note_on_c, 0, 96, 100
2, 299040, Note_on_c, 0, 84, 100
2, 299040, Note_on_c, 0, 72, 100
2, 299040, Note_on_c, 0, 60, 100
2, 299280, Note_on_c, 0, 96, 0
2, 299280, Note_on_c, 0, 84, 0
2, 299280, Note_on_c, 0, 72, 0
2, 299280, Note_on_c, 0, 60, 0
2, 299280, Note_on_c, 0, 96, 100
2, 299280, Note_on_c, 0, 84, 100
2, 299518, Text_t, "sing_off"
2, 299520, Note_on_c, 0, 96, 0
2, 299520, Note_on_c, 0, 84, 0
2, 299520, Note_on_c, 0, 96, 100
2, 299520, Note_on_c, 0, 84, 100
2, 299520, Note_on_c, 0, 72, 100
2, 299520, Note_on_c, 0, 60, 100
2, 299760, Note_on_c, 0, 96, 0
2, 299760, Note_on_c, 0, 84, 0
2, 299760, Note_on_c, 0, 72, 0
2, 299760, Note_on_c, 0, 60, 0
2, 300000, Note_on_c, 0, 96, 100
2, 300000, Note_on_c, 0, 98, 100
2, 300000, Note_on_c, 0, 84, 100
2, 300000, Note_on_c, 0, 86, 100
2, 300000, Note_on_c, 0, 72, 100
2, 300000, Note_on_c, 0, 73, 100
2, 300000, Note_on_c, 0, 60, 100
2, 300208, Note_on_c, 0, 105, 0
2, 300208, Note_on_c, 0, 93, 0
2, 300208, Note_on_c, 0, 81, 0
2, 300208, Note_on_c, 0, 69, 0
2, 300240, Note_on_c, 0, 96, 0
2, 300240, Note_on_c, 0, 98, 0
2, 300240, Note_on_c, 0, 84, 0
2, 300240, Note_on_c, 0, 86, 0
2, 300240, Note_on_c, 0, 72, 0
2, 300240, Note_on_c, 0, 73, 0
2, 300240, Note_on_c, 0, 60, 0
2, 300960, Note_on_c, 0, 96, 100
2, 300960, Note_on_c, 0, 84, 100
2, 300960, Note_on_c, 0, 72, 100
2, 300960, Note_on_c, 0, 60, 100
2, 301920, Note_on_c, 0, 96, 0
2, 301920, Note_on_c, 0, 84, 0
2, 301920, Note_on_c, 0, 72, 0
2, 301920, Note_on_c, 0, 60, 0
2, 301920, Note_on_c, 0, 97, 100
2, 301920, Note_on_c, 0, 85, 100
2, 301920, Note_on_c, 0, 73, 100
2, 301920, Note_on_c, 0, 61, 100
2, 302640, Note_on_c, 0, 97, 0
2, 302640, Note_on_c, 0, 85, 0
2, 302640, Note_on_c, 0, 73, 0
2, 302640, Note_on_c, 0, 61, 0
2, 302880, Note_on_c, 0, 98, 100
2, 302880, Note_on_c, 0, 73, 100
2, 302880, Note_on_c, 0, 86, 100
2, 303120, Note_on_c, 0, 98, 0
2, 303120, Note_on_c, 0, 73, 0
2, 303120, Note_on_c, 0, 86, 0
2, 303360, Note_on_c, 0, 98, 100
2, 303360, Note_on_c, 0, 73, 100
2, 303360, Note_on_c, 0, 61, 100
2, 303360, Note_on_c, 0, 86, 100
2, 303600, Note_on_c, 0, 98, 0
2, 303600, Note_on_c, 0, 73, 0
2, 303600, Note_on_c, 0, 61, 0
2, 303600, Note_on_c, 0, 86, 0
2, 303840, Note_on_c, 0, 99, 100
2, 303840, Note_on_c, 0, 74, 100
2, 303840, Note_on_c, 0, 87, 100
2, 304080, Note_on_c, 0, 99, 0
2, 304080, Note_on_c, 0, 74, 0
2, 304080, Note_on_c, 0, 87, 0
2, 304320, Note_on_c, 0, 100, 100
2, 304320, Note_on_c, 0, 75, 100
2, 304320, Note_on_c, 0, 62, 100
2, 304320, Note_on_c, 0, 88, 100
2, 304560, Note_on_c, 0, 100, 0
2, 304560, Note_on_c, 0, 75, 0
2, 304560, Note_on_c, 0, 62, 0
2, 304560, Note_on_c, 0, 88, 0
2, 304800, Note_on_c, 0, 96, 100
2, 304800, Note_on_c, 0, 84, 100
2, 304800, Note_on_c, 0, 72, 100
2, 304800, Note_on_c, 0, 60, 100
2, 306240, Note_on_c, 0, 96, 0
2, 306240, Note_on_c, 0, 84, 0
2, 306240, Note_on_c, 0, 72, 0
2, 306240, Note_on_c, 0, 60, 0
2, 306688, Note_on_c, 0, 105, 100
2, 306688, Note_on_c, 0, 93, 100
2, 306688, Note_on_c, 0, 81, 100
2, 306688, Note_on_c, 0, 69, 100
2, 306720, Note_on_c, 0, 96, 100
2, 306720, Note_on_c, 0, 84, 100
2, 306720, Note_on_c, 0, 72, 100
2, 306720, Note_on_c, 0, 60, 100
2, 306960, Note_on_c, 0, 96, 0
2, 306960, Note_on_c, 0, 84, 0
2, 306960, Note_on_c, 0, 72, 0
2, 306960, Note_on_c, 0, 60, 0
2, 306960, Note_on_c, 0, 96, 100
2, 306960, Note_on_c, 0, 84, 100
2, 307200, Note_on_c, 0, 96, 0
2, 307200, Note_on_c, 0, 84, 0
2, 307200, Note_on_c, 0, 96, 100
2, 307200, Note_on_c, 0, 84, 100
2, 307200, Note_on_c, 0, 72, 100
2, 307200, Note_on_c, 0, 60, 100
2, 307440, Note_on_c, 0, 96, 0
2, 307440, Note_on_c, 0, 84, 0
2, 307440, Note_on_c, 0, 72, 0
2, 307440, Note_on_c, 0, 60, 0
2, 307680, Note_on_c, 0, 96, 100
2, 307680, Note_on_c, 0, 98, 100
2, 307680, Note_on_c, 0, 84, 100
2, 307680, Note_on_c, 0, 86, 100
2, 307680, Note_on_c, 0, 72, 100
2, 307680, Note_on_c, 0, 73, 100
2, 307680, Note_on_c, 0, 60, 100
2, 307888, Note_on_c, 0, 106, 0
2, 307888, Note_on_c, 0, 94, 0
2, 307888, Note_on_c, 0, 82, 0
2, 307888, Note_on_c, 0, 70, 0
2, 307920, Note_on_c, 0, 96, 0
2, 307920, Note_on_c, 0, 98, 0
2, 307920, Note_on_c, 0, 84, 0
2, 307920, Note_on_c, 0, 86, 0
2, 307920, Note_on_c, 0, 72, 0
2, 307920, Note_on_c, 0, 73, 0
2, 307920, Note_on_c, 0, 60, 0
2, 308640, Note_on_c, 0, 96, 100
2, 308640, Note_on_c, 0, 84, 100
2, 308640, Note_on_c, 0, 72, 100
2, 308640, Note_on_c, 0, 60, 100
2, 309600, Note_on_c, 0, 96, 0
2, 309600, Note_on_c, 0, 84, 0
2, 309600, Note_on_c, 0, 72, 0
2, 309600, Note_on_c, 0, 60, 0
2, 309600, Note_on_c, 0, 97, 100
2, 309600, Note_on_c, 0, 85, 100
2, 309600, Note_on_c, 0, 73, 100
2, 309600, Note_on_c, 0, 61, 100
2, 310320, Note_on_c, 0, 97, 0
2, 310320, Note_on_c, 0, 85, 0
2, 310320, Note_on_c, 0, 73, 0
2, 310320, Note_on_c, 0, 61, 0
2, 310560, Note_on_c, 0, 98, 100
2, 310560, Note_on_c, 0, 86, 100
2, 310560, Note_on_c, 0, 73, 100
2, 310800, Note_on_c, 0, 98, 0
2, 310800, Note_on_c, 0, 86, 0
2, 310800, Note_on_c, 0, 73, 0
2, 311040, Note_on_c, 0, 98, 100
2, 311040, Note_on_c, 0, 86, 100
2, 311040, Note_on_c, 0, 73, 100
2, 311040, Note_on_c, 0, 61, 100
2, 311280, Note_on_c, 0, 98, 0
2, 311280, Note_on_c, 0, 86, 0
2, 311280, Note_on_c, 0, 73, 0
2, 311280, Note_on_c, 0, 61, 0
2, 311520, Note_on_c, 0, 99, 100
2, 311520, Note_on_c, 0, 87, 100
2, 311520, Note_on_c, 0, 74, 100
2, 311760, Note_on_c, 0, 99, 0
2, 311760, Note_on_c, 0, 87, 0
2, 311760, Note_on_c, 0, 74, 0
2, 312000, Note_on_c, 0, 100, 100
2, 312000, Note_on_c, 0, 88, 100
2, 312000, Note_on_c, 0, 75, 100
2, 312000, Note_on_c, 0, 62, 100
2, 312240, Note_on_c, 0, 100, 0
2, 312240, Note_on_c, 0, 88, 0
2, 312240, Note_on_c, 0, 75, 0
2, 312240, Note_on_c, 0, 62, 0
2, 312480, Note_on_c, 0, 96, 100
2, 312480, Note_on_c, 0, 84, 100
2, 312480, Note_on_c, 0, 72, 100
2, 312480, Note_on_c, 0, 60, 100
2, 313920, Note_on_c, 0, 96, 0
2, 313920, Note_on_c, 0, 84, 0
2, 313920, Note_on_c, 0, 72, 0
2, 313920, Note_on_c, 0, 60, 0
2, 314368, Note_on_c, 0, 106, 100
2, 314368, Note_on_c, 0, 94, 100
2, 314368, Note_on_c, 0, 82, 100
2, 314368, Note_on_c, 0, 70, 100
2, 314400, Note_on_c, 0, 96, 100
2, 314400, Note_on_c, 0, 84, 100
2, 314400, Note_on_c, 0, 72, 100
2, 314400, Note_on_c, 0, 60, 100
2, 314640, Note_on_c, 0, 96, 0
2, 314640, Note_on_c, 0, 84, 0
2, 314640, Note_on_c, 0, 72, 0
2, 314640, Note_on_c, 0, 60, 0
2, 314640, Note_on_c, 0, 96, 100
2, 314640, Note_on_c, 0, 84, 100
2, 314880, Note_on_c, 0, 96, 0
2, 314880, Note_on_c, 0, 84, 0
2, 314880, Note_on_c, 0, 96, 100
2, 314880, Note_on_c, 0, 84, 100
2, 314880, Note_on_c, 0, 72, 100
2, 314880, Note_on_c, 0, 60, 100
2, 315040, Note_on_c, 0, 84, 0
2, 315040, Note_on_c, 0, 72, 0
2, 315040, Note_on_c, 0, 60, 0
2, 315122, Note_on_c, 0, 96, 0
2, 315360, Note_on_c, 0, 96, 100
2, 315360, Note_on_c, 0, 98, 100
2, 315360, Note_on_c, 0, 84, 100
2, 315360, Note_on_c, 0, 86, 100
2, 315360, Note_on_c, 0, 72, 100
2, 315360, Note_on_c, 0, 60, 100
2, 315360, Note_on_c, 0, 73, 100
2, 315570, Note_on_c, 0, 105, 0
2, 315570, Note_on_c, 0, 93, 0
2, 315570, Note_on_c, 0, 81, 0
2, 315570, Note_on_c, 0, 69, 0
2, 315600, Note_on_c, 0, 96, 0
2, 315600, Note_on_c, 0, 98, 0
2, 315600, Note_on_c, 0, 84, 0
2, 315600, Note_on_c, 0, 86, 0
2, 315600, Note_on_c, 0, 72, 0
2, 315600, Note_on_c, 0, 60, 0
2, 315600, Note_on_c, 0, 73, 0
2, 316320, Note_on_c, 0, 96, 100
2, 316320, Note_on_c, 0, 84, 100
2, 316320, Note_on_c, 0, 72, 100
2, 316320, Note_on_c, 0, 60, 100
2, 317280, Note_on_c, 0, 96, 0
2, 317280, Note_on_c, 0, 84, 0
2, 317280, Note_on_c, 0, 72, 0
2, 317280, Note_on_c, 0, 60, 0
2, 317280, Note_on_c, 0, 97, 100
2, 317280, Note_on_c, 0, 85, 100
2, 317280, Note_on_c, 0, 73, 100
2, 317280, Note_on_c, 0, 61, 100
2, 318000, Note_on_c, 0, 97, 0
2, 318000, Note_on_c, 0, 85, 0
2, 318000, Note_on_c, 0, 73, 0
2, 318000, Note_on_c, 0, 61, 0
2, 318240, Note_on_c, 0, 98, 100
2, 318240, Note_on_c, 0, 86, 100
2, 318240, Note_on_c, 0, 73, 100
2, 318480, Note_on_c, 0, 98, 0
2, 318480, Note_on_c, 0, 86, 0
2, 318480, Note_on_c, 0, 73, 0
2, 318720, Note_on_c, 0, 98, 100
2, 318720, Note_on_c, 0, 86, 100
2, 318720, Note_on_c, 0, 73, 100
2, 318720, Note_on_c, 0, 61, 100
2, 318960, Note_on_c, 0, 98, 0
2, 318960, Note_on_c, 0, 86, 0
2, 318960, Note_on_c, 0, 73, 0
2, 318960, Note_on_c, 0, 61, 0
2, 319200, Note_on_c, 0, 99, 100
2, 319200, Note_on_c, 0, 87, 100
2, 319200, Note_on_c, 0, 74, 100
2, 319440, Note_on_c, 0, 99, 0
2, 319440, Note_on_c, 0, 87, 0
2, 319440, Note_on_c, 0, 74, 0
2, 319680, Note_on_c, 0, 100, 100
2, 319680, Note_on_c, 0, 88, 100
2, 319680, Note_on_c, 0, 75, 100
2, 319680, Note_on_c, 0, 62, 100
2, 319920, Note_on_c, 0, 100, 0
2, 319920, Note_on_c, 0, 88, 0
2, 319920, Note_on_c, 0, 75, 0
2, 319920, Note_on_c, 0, 62, 0
2, 320160, Note_on_c, 0, 96, 100
2, 320160, Note_on_c, 0, 84, 100
2, 320160, Note_on_c, 0, 72, 100
2, 320160, Note_on_c, 0, 60, 100
2, 321600, Note_on_c, 0, 96, 0
2, 321600, Note_on_c, 0, 84, 0
2, 321600, Note_on_c, 0, 72, 0
2, 321600, Note_on_c, 0, 60, 0
2, 322050, Note_on_c, 0, 105, 100
2, 322050, Note_on_c, 0, 93, 100
2, 322050, Note_on_c, 0, 81, 100
2, 322050, Note_on_c, 0, 69, 100
2, 322080, Note_on_c, 0, 96, 100
2, 322080, Note_on_c, 0, 84, 100
2, 322080, Note_on_c, 0, 72, 100
2, 322080, Note_on_c, 0, 60, 100
2, 322320, Note_on_c, 0, 96, 0
2, 322320, Note_on_c, 0, 84, 0
2, 322320, Note_on_c, 0, 72, 0
2, 322320, Note_on_c, 0, 60, 0
2, 322320, Note_on_c, 0, 96, 100
2, 322320, Note_on_c, 0, 84, 100
2, 322560, Note_on_c, 0, 96, 0
2, 322560, Note_on_c, 0, 84, 0
2, 322560, Note_on_c, 0, 96, 100
2, 322560, Note_on_c, 0, 84, 100
2, 322560, Note_on_c, 0, 72, 100
2, 322560, Note_on_c, 0, 60, 100
2, 322800, Note_on_c, 0, 96, 0
2, 322800, Note_on_c, 0, 84, 0
2, 322800, Note_on_c, 0, 72, 0
2, 322800, Note_on_c, 0, 60, 0
2, 323040, Note_on_c, 0, 96, 100
2, 323040, Note_on_c, 0, 98, 100
2, 323040, Note_on_c, 0, 84, 100
2, 323040, Note_on_c, 0, 86, 100
2, 323040, Note_on_c, 0, 72, 100
2, 323040, Note_on_c, 0, 73, 100
2, 323040, Note_on_c, 0, 60, 100
2, 323280, Note_on_c, 0, 96, 0
2, 323280, Note_on_c, 0, 98, 0
2, 323280, Note_on_c, 0, 84, 0
2, 323280, Note_on_c, 0, 86, 0
2, 323280, Note_on_c, 0, 72, 0
2, 323280, Note_on_c, 0, 73, 0
2, 323280, Note_on_c, 0, 60, 0
2, 324000, Note_on_c, 0, 96, 100
2, 324000, Note_on_c, 0, 84, 100
2, 324000, Note_on_c, 0, 72, 100
2, 324000, Note_on_c, 0, 60, 100
2, 324960, Note_on_c, 0, 96, 0
2, 324960, Note_on_c, 0, 84, 0
2, 324960, Note_on_c, 0, 72, 0
2, 324960, Note_on_c, 0, 60, 0
2, 324960, Note_on_c, 0, 97, 100
2, 324960, Note_on_c, 0, 85, 100
2, 324960, Note_on_c, 0, 73, 100
2, 324960, Note_on_c, 0, 61, 100
2, 325680, Note_on_c, 0, 97, 0
2, 325680, Note_on_c, 0, 85, 0
2, 325680, Note_on_c, 0, 73, 0
2, 325680, Note_on_c, 0, 61, 0
2, 325920, Note_on_c, 0, 98, 100
2, 325920, Note_on_c, 0, 86, 100
2, 325920, Note_on_c, 0, 73, 100
2, 326160, Note_on_c, 0, 98, 0
2, 326160, Note_on_c, 0, 86, 0
2, 326160, Note_on_c, 0, 73, 0
2, 326400, Note_on_c, 0, 98, 100
2, 326400, Note_on_c, 0, 86, 100
2, 326400, Note_on_c, 0, 73, 100
2, 326400, Note_on_c, 0, 61, 100
2, 326640, Note_on_c, 0, 98, 0
2, 326640, Note_on_c, 0, 86, 0
2, 326640, Note_on_c, 0, 73, 0
2, 326640, Note_on_c, 0, 61, 0
2, 326880, Note_on_c, 0, 99, 100
2, 326880, Note_on_c, 0, 87, 100
2, 326880, Note_on_c, 0, 74, 100
2, 327120, Note_on_c, 0, 99, 0
2, 327120, Note_on_c, 0, 87, 0
2, 327120, Note_on_c, 0, 74, 0
2, 327360, Note_on_c, 0, 100, 100
2, 327360, Note_on_c, 0, 88, 100
2, 327360, Note_on_c, 0, 75, 100
2, 327360, Note_on_c, 0, 62, 100
2, 327600, Note_on_c, 0, 100, 0
2, 327600, Note_on_c, 0, 88, 0
2, 327600, Note_on_c, 0, 75, 0
2, 327600, Note_on_c, 0, 62, 0
2, 327840, Note_on_c, 0, 96, 100
2, 327840, Note_on_c, 0, 84, 100
2, 327840, Note_on_c, 0, 72, 100
2, 327840, Note_on_c, 0, 60, 100
2, 329280, Note_on_c, 0, 96, 0
2, 329280, Note_on_c, 0, 84, 0
2, 329280, Note_on_c, 0, 72, 0
2, 329280, Note_on_c, 0, 60, 0
2, 329760, Note_on_c, 0, 96, 100
2, 329760, Note_on_c, 0, 84, 100
2, 329760, Note_on_c, 0, 72, 100
2, 329760, Note_on_c, 0, 60, 100
2, 330000, Note_on_c, 0, 96, 0
2, 330000, Note_on_c, 0, 84, 0
2, 330000, Note_on_c, 0, 72, 0
2, 330000, Note_on_c, 0, 60, 0
2, 330000, Note_on_c, 0, 96, 100
2, 330000, Note_on_c, 0, 84, 100
2, 330240, Text_t, "sing_on"
2, 330240, Text_t, "drum_half"
2, 330240, Text_t, "[lighting (sweep)]"
2, 330240, Text_t, "[chorus]"
2, 330240, Note_on_c, 0, 96, 0
2, 330240, Note_on_c, 0, 84, 0
2, 330240, Note_on_c, 0, 96, 100
2, 330240, Note_on_c, 0, 84, 100
2, 330240, Note_on_c, 0, 72, 100
2, 330240, Note_on_c, 0, 60, 100
2, 330240, Note_on_c, 0, 108, 100
2, 330480, Note_on_c, 0, 96, 0
2, 330480, Note_on_c, 0, 84, 0
2, 330480, Note_on_c, 0, 72, 0
2, 330480, Note_on_c, 0, 60, 0
2, 330720, Note_on_c, 0, 96, 100
2, 330720, Note_on_c, 0, 98, 100
2, 330720, Note_on_c, 0, 84, 100
2, 330720, Note_on_c, 0, 86, 100
2, 330720, Note_on_c, 0, 72, 100
2, 330720, Note_on_c, 0, 73, 100
2, 330720, Note_on_c, 0, 60, 100
2, 330960, Note_on_c, 0, 96, 0
2, 330960, Note_on_c, 0, 98, 0
2, 330960, Note_on_c, 0, 84, 0
2, 330960, Note_on_c, 0, 86, 0
2, 330960, Note_on_c, 0, 72, 0
2, 330960, Note_on_c, 0, 73, 0
2, 330960, Note_on_c, 0, 60, 0
2, 331200, Note_on_c, 0, 96, 100
2, 331200, Note_on_c, 0, 98, 100
2, 331440, Note_on_c, 0, 96, 0
2, 331440, Note_on_c, 0, 98, 0
2, 331440, Note_on_c, 0, 96, 100
2, 331440, Note_on_c, 0, 98, 100
2, 331680, Note_on_c, 0, 96, 0
2, 331680, Note_on_c, 0, 98, 0
2, 331680, Note_on_c, 0, 96, 100
2, 331680, Note_on_c, 0, 97, 100
2, 331680, Note_on_c, 0, 84, 100
2, 331680, Note_on_c, 0, 85, 100
2, 331680, Note_on_c, 0, 72, 100
2, 331680, Note_on_c, 0, 60, 100
2, 332640, Note_on_c, 0, 96, 0
2, 332640, Note_on_c, 0, 97, 0
2, 332640, Note_on_c, 0, 84, 0
2, 332640, Note_on_c, 0, 85, 0
2, 332640, Note_on_c, 0, 72, 0
2, 332640, Note_on_c, 0, 60, 0
2, 332640, Note_on_c, 0, 97, 100
2, 332640, Note_on_c, 0, 98, 100
2, 332640, Note_on_c, 0, 85, 100
2, 332640, Note_on_c, 0, 86, 100
2, 332640, Note_on_c, 0, 73, 100
2, 332640, Note_on_c, 0, 61, 100
2, 333360, Note_on_c, 0, 97, 0
2, 333360, Note_on_c, 0, 98, 0
2, 333360, Note_on_c, 0, 85, 0
2, 333360, Note_on_c, 0, 86, 0
2, 333360, Note_on_c, 0, 73, 0
2, 333360, Note_on_c, 0, 61, 0
2, 333600, Note_on_c, 0, 98, 100
2, 333600, Note_on_c, 0, 86, 100
2, 333600, Note_on_c, 0, 73, 100
2, 333840, Note_on_c, 0, 98, 0
2, 333840, Note_on_c, 0, 86, 0
2, 333840, Note_on_c, 0, 73, 0
2, 334080, Note_on_c, 0, 98, 100
2, 334080, Note_on_c, 0, 96, 100
2, 334080, Note_on_c, 0, 86, 100
2, 334080, Note_on_c, 0, 73, 100
2, 334080, Note_on_c, 0, 61, 100
2, 334320, Note_on_c, 0, 98, 0
2, 334320, Note_on_c, 0, 96, 0
2, 334320, Note_on_c, 0, 86, 0
2, 334320, Note_on_c, 0, 73, 0
2, 334320, Note_on_c, 0, 61, 0
2, 334560, Note_on_c, 0, 99, 100
2, 334560, Note_on_c, 0, 97, 100
2, 334560, Note_on_c, 0, 87, 100
2, 334560, Note_on_c, 0, 74, 100
2, 334800, Note_on_c, 0, 99, 0
2, 334800, Note_on_c, 0, 97, 0
2, 334800, Note_on_c, 0, 87, 0
2, 334800, Note_on_c, 0, 74, 0
2, 335040, Note_on_c, 0, 100, 100
2, 335040, Note_on_c, 0, 98, 100
2, 335040, Note_on_c, 0, 88, 100
2, 335040, Note_on_c, 0, 75, 100
2, 335040, Note_on_c, 0, 62, 100
2, 335280, Note_on_c, 0, 100, 0
2, 335280, Note_on_c, 0, 98, 0
2, 335280, Note_on_c, 0, 88, 0
2, 335280, Note_on_c, 0, 75, 0
2, 335280, Note_on_c, 0, 62, 0
2, 335520, Note_on_c, 0, 96, 100
2, 335520, Note_on_c, 0, 84, 100
2, 335520, Note_on_c, 0, 72, 100
2, 335520, Note_on_c, 0, 60, 100
2, 335520, Note_on_c, 0, 85, 100
2, 335520, Note_on_c, 0, 97, 100
2, 336960, Note_on_c, 0, 96, 0
2, 336960, Note_on_c, 0, 84, 0
2, 336960, Note_on_c, 0, 72, 0
2, 336960, Note_on_c, 0, 60, 0
2, 336960, Note_on_c, 0, 85, 0
2, 336960, Note_on_c, 0, 97, 0
2, 337440, Note_on_c, 0, 96, 100
2, 337440, Note_on_c, 0, 84, 100
2, 337440, Note_on_c, 0, 72, 100
2, 337440, Note_on_c, 0, 60, 100
2, 337680, Note_on_c, 0, 96, 0
2, 337680, Note_on_c, 0, 84, 0
2, 337680, Note_on_c, 0, 72, 0
2, 337680, Note_on_c, 0, 60, 0
2, 337680, Note_on_c, 0, 96, 100
2, 337680, Note_on_c, 0, 84, 100
2, 337920, Text_t, "sing_off"
2, 337920, Note_on_c, 0, 108, 0
2, 337920, Note_on_c, 0, 96, 0
2, 337920, Note_on_c, 0, 84, 0
2, 337920, Note_on_c, 0, 96, 100
2, 337920, Note_on_c, 0, 84, 100
2, 337920, Note_on_c, 0, 72, 100
2, 337920, Note_on_c, 0, 60, 100
2, 338160, Note_on_c, 0, 96, 0
2, 338160, Note_on_c, 0, 84, 0
2, 338160, Note_on_c, 0, 72, 0
2, 338160, Note_on_c, 0, 60, 0
2, 338400, Note_on_c, 0, 96, 100
2, 338400, Note_on_c, 0, 98, 100
2, 338400, Note_on_c, 0, 84, 100
2, 338400, Note_on_c, 0, 86, 100
2, 338400, Note_on_c, 0, 72, 100
2, 338400, Note_on_c, 0, 73, 100
2, 338400, Note_on_c, 0, 60, 100
2, 338640, Note_on_c, 0, 96, 0
2, 338640, Note_on_c, 0, 98, 0
2, 338640, Note_on_c, 0, 84, 0
2, 338640, Note_on_c, 0, 86, 0
2, 338640, Note_on_c, 0, 72, 0
2, 338640, Note_on_c, 0, 73, 0
2, 338640, Note_on_c, 0, 60, 0
2, 338880, Note_on_c, 0, 98, 100
2, 338880, Note_on_c, 0, 96, 100
2, 339120, Note_on_c, 0, 98, 0
2, 339120, Note_on_c, 0, 96, 0
2, 339120, Note_on_c, 0, 98, 100
2, 339120, Note_on_c, 0, 96, 100
2, 339360, Note_on_c, 0, 98, 0
2, 339360, Note_on_c, 0, 96, 0
2, 339360, Note_on_c, 0, 96, 100
2, 339360, Note_on_c, 0, 97, 100
2, 339360, Note_on_c, 0, 84, 100
2, 339360, Note_on_c, 0, 85, 100
2, 339360, Note_on_c, 0, 72, 100
2, 339360, Note_on_c, 0, 60, 100
2, 340320, Note_on_c, 0, 96, 0
2, 340320, Note_on_c, 0, 97, 0
2, 340320, Note_on_c, 0, 84, 0
2, 340320, Note_on_c, 0, 85, 0
2, 340320, Note_on_c, 0, 72, 0
2, 340320, Note_on_c, 0, 60, 0
2, 340320, Note_on_c, 0, 97, 100
2, 340320, Note_on_c, 0, 98, 100
2, 340320, Note_on_c, 0, 85, 100
2, 340320, Note_on_c, 0, 86, 100
2, 340320, Note_on_c, 0, 73, 100
2, 340320, Note_on_c, 0, 61, 100
2, 341040, Note_on_c, 0, 97, 0
2, 341040, Note_on_c, 0, 98, 0
2, 341040, Note_on_c, 0, 85, 0
2, 341040, Note_on_c, 0, 86, 0
2, 341040, Note_on_c, 0, 73, 0
2, 341040, Note_on_c, 0, 61, 0
2, 341280, Note_on_c, 0, 98, 100
2, 341280, Note_on_c, 0, 86, 100
2, 341280, Note_on_c, 0, 73, 100
2, 341520, Note_on_c, 0, 98, 0
2, 341520, Note_on_c, 0, 86, 0
2, 341520, Note_on_c, 0, 73, 0
2, 341760, Note_on_c, 0, 98, 100
2, 341760, Note_on_c, 0, 96, 100
2, 341760, Note_on_c, 0, 86, 100
2, 341760, Note_on_c, 0, 73, 100
2, 341760, Note_on_c, 0, 61, 100
2, 342000, Note_on_c, 0, 98, 0
2, 342000, Note_on_c, 0, 96, 0
2, 342000, Note_on_c, 0, 86, 0
2, 342000, Note_on_c, 0, 73, 0
2, 342000, Note_on_c, 0, 61, 0
2, 342240, Note_on_c, 0, 99, 100
2, 342240, Note_on_c, 0, 97, 100
2, 342240, Note_on_c, 0, 87, 100
2, 342240, Note_on_c, 0, 74, 100
2, 342480, Note_on_c, 0, 99, 0
2, 342480, Note_on_c, 0, 97, 0
2, 342480, Note_on_c, 0, 87, 0
2, 342480, Note_on_c, 0, 74, 0
2, 342720, Note_on_c, 0, 100, 100
2, 342720, Note_on_c, 0, 98, 100
2, 342720, Note_on_c, 0, 88, 100
2, 342720, Note_on_c, 0, 75, 100
2, 342720, Note_on_c, 0, 62, 100
2, 342960, Note_on_c, 0, 100, 0
2, 342960, Note_on_c, 0, 98, 0
2, 342960, Note_on_c, 0, 88, 0
2, 342960, Note_on_c, 0, 75, 0
2, 342960, Note_on_c, 0, 62, 0
2, 343200, Note_on_c, 0, 96, 100
2, 343200, Note_on_c, 0, 84, 100
2, 343200, Note_on_c, 0, 72, 100
2, 343200, Note_on_c, 0, 60, 100
2, 343200, Note_on_c, 0, 85, 100
2, 343200, Note_on_c, 0, 97, 100
2, 344640, Note_on_c, 0, 96, 0
2, 344640, Note_on_c, 0, 84, 0
2, 344640, Note_on_c, 0, 72, 0
2, 344640, Note_on_c, 0, 60, 0
2, 344640, Note_on_c, 0, 85, 0
2, 344640, Note_on_c, 0, 97, 0
2, 345120, Note_on_c, 0, 96, 100
2, 345120, Note_on_c, 0, 84, 100
2, 345120, Note_on_c, 0, 72, 100
2, 345120, Note_on_c, 0, 60, 100
2, 345360, Note_on_c, 0, 96, 0
2, 345360, Note_on_c, 0, 84, 0
2, 345360, Note_on_c, 0, 72, 0
2, 345360, Note_on_c, 0, 60, 0
2, 345360, Note_on_c, 0, 96, 100
2, 345360, Note_on_c, 0, 84, 100
2, 345600, Note_on_c, 0, 96, 0
2, 345600, Note_on_c, 0, 84, 0
2, 345600, Note_on_c, 0, 96, 100
2, 345600, Note_on_c, 0, 84, 100
2, 345600, Note_on_c, 0, 72, 100
2, 345600, Note_on_c, 0, 60, 100
2, 345840, Note_on_c, 0, 96, 0
2, 345840, Note_on_c, 0, 84, 0
2, 345840, Note_on_c, 0, 72, 0
2, 345840, Note_on_c, 0, 60, 0
2, 346080, Note_on_c, 0, 96, 100
2, 346080, Note_on_c, 0, 98, 100
2, 346080, Note_on_c, 0, 84, 100
2, 346080, Note_on_c, 0, 86, 100
2, 346080, Note_on_c, 0, 72, 100
2, 346080, Note_on_c, 0, 73, 100
2, 346080, Note_on_c, 0, 60, 100
2, 346320, Note_on_c, 0, 96, 0
2, 346320, Note_on_c, 0, 98, 0
2, 346320, Note_on_c, 0, 84, 0
2, 346320, Note_on_c, 0, 86, 0
2, 346320, Note_on_c, 0, 72, 0
2, 346320, Note_on_c, 0, 73, 0
2, 346320, Note_on_c, 0, 60, 0
2, 346560, Note_on_c, 0, 98, 100
2, 346560, Note_on_c, 0, 96, 100
2, 346800, Note_on_c, 0, 98, 0
2, 346800, Note_on_c, 0, 96, 0
2, 346800, Note_on_c, 0, 98, 100
2, 346800, Note_on_c, 0, 96, 100
2, 347040, Note_on_c, 0, 98, 0
2, 347040, Note_on_c, 0, 96, 0
2, 347040, Note_on_c, 0, 96, 100
2, 347040, Note_on_c, 0, 97, 100
2, 347040, Note_on_c, 0, 84, 100
2, 347040, Note_on_c, 0, 85, 100
2, 347040, Note_on_c, 0, 72, 100
2, 347040, Note_on_c, 0, 60, 100
2, 348000, Note_on_c, 0, 96, 0
2, 348000, Note_on_c, 0, 97, 0
2, 348000, Note_on_c, 0, 84, 0
2, 348000, Note_on_c, 0, 85, 0
2, 348000, Note_on_c, 0, 72, 0
2, 348000, Note_on_c, 0, 60, 0
2, 348000, Note_on_c, 0, 97, 100
2, 348000, Note_on_c, 0, 98, 100
2, 348000, Note_on_c, 0, 85, 100
2, 348000, Note_on_c, 0, 86, 100
2, 348000, Note_on_c, 0, 73, 100
2, 348000, Note_on_c, 0, 61, 100
2, 348720, Note_on_c, 0, 97, 0
2, 348720, Note_on_c, 0, 98, 0
2, 348720, Note_on_c, 0, 85, 0
2, 348720, Note_on_c, 0, 86, 0
2, 348720, Note_on_c, 0, 73, 0
2, 348720, Note_on_c, 0, 61, 0
2, 348960, Note_on_c, 0, 98, 100
2, 348960, Note_on_c, 0, 86, 100
2, 348960, Note_on_c, 0, 73, 100
2, 349200, Note_on_c, 0, 98, 0
2, 349200, Note_on_c, 0, 86, 0
2, 349200, Note_on_c, 0, 73, 0
2, 349440, Note_on_c, 0, 98, 100
2, 349440, Note_on_c, 0, 96, 100
2, 349440, Note_on_c, 0, 86, 100
2, 349440, Note_on_c, 0, 73, 100
2, 349440, Note_on_c, 0, 61, 100
2, 349680, Note_on_c, 0, 98, 0
2, 349680, Note_on_c, 0, 96, 0
2, 349680, Note_on_c, 0, 86, 0
2, 349680, Note_on_c, 0, 73, 0
2, 349680, Note_on_c, 0, 61, 0
2, 349920, Note_on_c, 0, 99, 100
2, 349920, Note_on_c, 0, 97, 100
2, 349920, Note_on_c, 0, 87, 100
2, 349920, Note_on_c, 0, 74, 100
2, 350160, Note_on_c, 0, 99, 0
2, 350160, Note_on_c, 0, 97, 0
2, 350160, Note_on_c, 0, 87, 0
2, 350160, Note_on_c, 0, 74, 0
2, 350400, Note_on_c, 0, 100, 100
2, 350400, Note_on_c, 0, 98, 100
2, 350400, Note_on_c, 0, 88, 100
2, 350400, Note_on_c, 0, 75, 100
2, 350400, Note_on_c, 0, 62, 100
2, 350640, Note_on_c, 0, 100, 0
2, 350640, Note_on_c, 0, 98, 0
2, 350640, Note_on_c, 0, 88, 0
2, 350640, Note_on_c, 0, 75, 0
2, 350640, Note_on_c, 0, 62, 0
2, 350880, Note_on_c, 0, 96, 100
2, 350880, Note_on_c, 0, 84, 100
2, 350880, Note_on_c, 0, 72, 100
2, 350880, Note_on_c, 0, 60, 100
2, 350880, Note_on_c, 0, 85, 100
2, 350880, Note_on_c, 0, 97, 100
2, 352320, Note_on_c, 0, 96, 0
2, 352320, Note_on_c, 0, 84, 0
2, 352320, Note_on_c, 0, 72, 0
2, 352320, Note_on_c, 0, 60, 0
2, 352320, Note_on_c, 0, 85, 0
2, 352320, Note_on_c, 0, 97, 0
2, 352800, Note_on_c, 0, 96, 100
2, 352800, Note_on_c, 0, 84, 100
2, 352800, Note_on_c, 0, 72, 100
2, 352800, Note_on_c, 0, 60, 100
2, 353040, Note_on_c, 0, 96, 0
2, 353040, Note_on_c, 0, 84, 0
2, 353040, Note_on_c, 0, 72, 0
2, 353040, Note_on_c, 0, 60, 0
2, 353040, Note_on_c, 0, 96, 100
2, 353040, Note_on_c, 0, 84, 100
2, 353280, Note_on_c, 0, 96, 0
2, 353280, Note_on_c, 0, 84, 0
2, 353280, Note_on_c, 0, 96, 100
2, 353280, Note_on_c, 0, 84, 100
2, 353280, Note_on_c, 0, 72, 100
2, 353280, Note_on_c, 0, 60, 100
2, 353520, Note_on_c, 0, 96, 0
2, 353520, Note_on_c, 0, 84, 0
2, 353520, Note_on_c, 0, 72, 0
2, 353520, Note_on_c, 0, 60, 0
2, 353760, Note_on_c, 0, 96, 100
2, 353760, Note_on_c, 0, 98, 100
2, 353760, Note_on_c, 0, 84, 100
2, 353760, Note_on_c, 0, 86, 100
2, 353760, Note_on_c, 0, 72, 100
2, 353760, Note_on_c, 0, 73, 100
2, 353760, Note_on_c, 0, 60, 100
2, 354000, Note_on_c, 0, 96, 0
2, 354000, Note_on_c, 0, 98, 0
2, 354000, Note_on_c, 0, 84, 0
2, 354000, Note_on_c, 0, 86, 0
2, 354000, Note_on_c, 0, 72, 0
2, 354000, Note_on_c, 0, 73, 0
2, 354000, Note_on_c, 0, 60, 0
2, 354240, Note_on_c, 0, 98, 100
2, 354240, Note_on_c, 0, 96, 100
2, 354480, Note_on_c, 0, 98, 0
2, 354480, Note_on_c, 0, 96, 0
2, 354480, Note_on_c, 0, 98, 100
2, 354480, Note_on_c, 0, 96, 100
2, 354720, Note_on_c, 0, 98, 0
2, 354720, Note_on_c, 0, 96, 0
2, 354720, Note_on_c, 0, 96, 100
2, 354720, Note_on_c, 0, 97, 100
2, 354720, Note_on_c, 0, 84, 100
2, 354720, Note_on_c, 0, 85, 100
2, 354720, Note_on_c, 0, 72, 100
2, 354720, Note_on_c, 0, 60, 100
2, 355680, Note_on_c, 0, 96, 0
2, 355680, Note_on_c, 0, 97, 0
2, 355680, Note_on_c, 0, 84, 0
2, 355680, Note_on_c, 0, 85, 0
2, 355680, Note_on_c, 0, 72, 0
2, 355680, Note_on_c, 0, 60, 0
2, 355680, Note_on_c, 0, 97, 100
2, 355680, Note_on_c, 0, 98, 100
2, 355680, Note_on_c, 0, 85, 100
2, 355680, Note_on_c, 0, 86, 100
2, 355680, Note_on_c, 0, 73, 100
2, 355680, Note_on_c, 0, 61, 100
2, 356400, Note_on_c, 0, 97, 0
2, 356400, Note_on_c, 0, 98, 0
2, 356400, Note_on_c, 0, 85, 0
2, 356400, Note_on_c, 0, 86, 0
2, 356400, Note_on_c, 0, 73, 0
2, 356400, Note_on_c, 0, 61, 0
2, 356640, Note_on_c, 0, 98, 100
2, 356640, Note_on_c, 0, 86, 100
2, 356640, Note_on_c, 0, 73, 100
2, 356880, Note_on_c, 0, 98, 0
2, 356880, Note_on_c, 0, 86, 0
2, 356880, Note_on_c, 0, 73, 0
2, 357120, Note_on_c, 0, 98, 100
2, 357120, Note_on_c, 0, 96, 100
2, 357120, Note_on_c, 0, 86, 100
2, 357120, Note_on_c, 0, 73, 100
2, 357120, Note_on_c, 0, 61, 100
2, 357360, Note_on_c, 0, 98, 0
2, 357360, Note_on_c, 0, 96, 0
2, 357360, Note_on_c, 0, 86, 0
2, 357360, Note_on_c, 0, 73, 0
2, 357360, Note_on_c, 0, 61, 0
2, 357600, Note_on_c, 0, 99, 100
2, 357600, Note_on_c, 0, 97, 100
2, 357600, Note_on_c, 0, 87, 100
2, 357600, Note_on_c, 0, 74, 100
2, 357840, Note_on_c, 0, 99, 0
2, 357840, Note_on_c, 0, 97, 0
2, 357840, Note_on_c, 0, 87, 0
2, 357840, Note_on_c, 0, 74, 0
2, 358080, Note_on_c, 0, 100, 100
2, 358080, Note_on_c, 0, 98, 100
2, 358080, Note_on_c, 0, 88, 100
2, 358080, Note_on_c, 0, 75, 100
2, 358080, Note_on_c, 0, 62, 100
2, 358320, Note_on_c, 0, 100, 0
2, 358320, Note_on_c, 0, 98, 0
2, 358320, Note_on_c, 0, 88, 0
2, 358320, Note_on_c, 0, 75, 0
2, 358320, Note_on_c, 0, 62, 0
2, 358560, Note_on_c, 0, 96, 100
2, 358560, Note_on_c, 0, 84, 100
2, 358560, Note_on_c, 0, 72, 100
2, 358560, Note_on_c, 0, 60, 100
2, 358560, Note_on_c, 0, 85, 100
2, 358560, Note_on_c, 0, 97, 100
2, 359970, Note_on_c, 0, 106, 0
2, 359970, Note_on_c, 0, 94, 0
2, 359970, Note_on_c, 0, 82, 0
2, 359970, Note_on_c, 0, 70, 0
2, 360000, Note_on_c, 0, 96, 0
2, 360000, Note_on_c, 0, 84, 0
2, 360000, Note_on_c, 0, 72, 0
2, 360000, Note_on_c, 0, 60, 0
2, 360000, Note_on_c, 0, 85, 0
2, 360000, Note_on_c, 0, 97, 0
2, 360480, Note_on_c, 0, 96, 100
2, 360480, Note_on_c, 0, 84, 100
2, 360720, Note_on_c, 0, 96, 0
2, 360720, Note_on_c, 0, 84, 0
2, 360720, Note_on_c, 0, 96, 100
2, 360720, Note_on_c, 0, 84, 100
2, 360960, Text_t, "drum_normal"
2, 360960, Text_t, "sing_on"
2, 360960, Text_t, "wail_off"
2, 360960, Note_on_c, 0, 96, 0
2, 360960, Note_on_c, 0, 84, 0
2, 360960, Note_on_c, 0, 96, 100
2, 360960, Note_on_c, 0, 84, 100
2, 360960, Note_on_c, 0, 72, 100
2, 360960, Note_on_c, 0, 60, 100
2, 360960, Note_on_c, 0, 108, 100
2, 361200, Note_on_c, 0, 96, 0
2, 361200, Note_on_c, 0, 84, 0
2, 361200, Note_on_c, 0, 72, 0
2, 361200, Note_on_c, 0, 60, 0
2, 361280, Note_on_c, 0, 108, 0
2, 361440, Note_on_c, 0, 98, 100
2, 361440, Note_on_c, 0, 86, 100
2, 361440, Note_on_c, 0, 73, 100
2, 361440, Note_on_c, 0, 61, 100
2, 361440, Note_on_c, 0, 108, 100
2, 361680, Note_on_c, 0, 98, 0
2, 361680, Note_on_c, 0, 86, 0
2, 361680, Note_on_c, 0, 73, 0
2, 361680, Note_on_c, 0, 61, 0
2, 361760, Note_on_c, 0, 108, 0
2, 361920, Note_on_c, 0, 98, 100
2, 361920, Note_on_c, 0, 86, 100
2, 361920, Note_on_c, 0, 73, 100
2, 361920, Note_on_c, 0, 61, 100
2, 361920, Note_on_c, 0, 108, 100
2, 362160, Note_on_c, 0, 98, 0
2, 362160, Note_on_c, 0, 86, 0
2, 362160, Note_on_c, 0, 73, 0
2, 362160, Note_on_c, 0, 61, 0
2, 362240, Note_on_c, 0, 108, 0
2, 362370, Note_on_c, 0, 105, 0
2, 362370, Note_on_c, 0, 93, 0
2, 362370, Note_on_c, 0, 81, 0
2, 362370, Note_on_c, 0, 69, 0
2, 362370, Note_on_c, 0, 106, 100
2, 362370, Note_on_c, 0, 94, 100
2, 362370, Note_on_c, 0, 82, 100
2, 362370, Note_on_c, 0, 70, 100
2, 362400, Note_on_c, 0, 96, 100
2, 362400, Note_on_c, 0, 84, 100
2, 362400, Note_on_c, 0, 72, 100
2, 362400, Note_on_c, 0, 108, 100
2, 362640, Note_on_c, 0, 96, 0
2, 362640, Note_on_c, 0, 84, 0
2, 362640, Note_on_c, 0, 72, 0
2, 362880, Note_on_c, 0, 96, 100
2, 362880, Note_on_c, 0, 84, 100
2, 362880, Note_on_c, 0, 72, 100
2, 362880, Note_on_c, 0, 60, 100
2, 363040, Note_on_c, 0, 108, 0
2, 363120, Note_on_c, 0, 96, 0
2, 363120, Note_on_c, 0, 84, 0
2, 363120, Note_on_c, 0, 72, 0
2, 363120, Note_on_c, 0, 60, 0
2, 363360, Note_on_c, 0, 97, 100
2, 363360, Note_on_c, 0, 85, 100
2, 363360, Note_on_c, 0, 73, 100
2, 363360, Note_on_c, 0, 61, 100
2, 363360, Note_on_c, 0, 108, 100
2, 363600, Note_on_c, 0, 97, 0
2, 363600, Note_on_c, 0, 85, 0
2, 363600, Note_on_c, 0, 73, 0
2, 363600, Note_on_c, 0, 61, 0
2, 363840, Note_on_c, 0, 97, 100
2, 363840, Note_on_c, 0, 85, 100
2, 363840, Note_on_c, 0, 61, 100
2, 364000, Note_on_c, 0, 108, 0
2, 364080, Note_on_c, 0, 97, 0
2, 364080, Note_on_c, 0, 85, 0
2, 364080, Note_on_c, 0, 61, 0
2, 364290, Note_on_c, 0, 106, 0
2, 364290, Note_on_c, 0, 94, 0
2, 364290, Note_on_c, 0, 82, 0
2, 364290, Note_on_c, 0, 70, 0
2, 364290, Note_on_c, 0, 105, 100
2, 364290, Note_on_c, 0, 93, 100
2, 364290, Note_on_c, 0, 81, 100
2, 364290, Note_on_c, 0, 69, 100
2, 364320, Note_on_c, 0, 98, 100
2, 364320, Note_on_c, 0, 86, 100
2, 364320, Note_on_c, 0, 73, 100
2, 364320, Note_on_c, 0, 108, 100
2, 364560, Note_on_c, 0, 98, 0
2, 364560, Note_on_c, 0, 86, 0
2, 364560, Note_on_c, 0, 73, 0
2, 364640, Note_on_c, 0, 108, 0
2, 364800, Note_on_c, 0, 98, 100
2, 364800, Note_on_c, 0, 86, 100
2, 364800, Note_on_c, 0, 73, 100
2, 364800, Note_on_c, 0, 61, 100
2, 364800, Note_on_c, 0, 108, 100
2, 365040, Note_on_c, 0, 98, 0
2, 365040, Note_on_c, 0, 86, 0
2, 365040, Note_on_c, 0, 73, 0
2, 365040, Note_on_c, 0, 61, 0
2, 365120, Note_on_c, 0, 108, 0
2, 365280, Note_on_c, 0, 99, 100
2, 365280, Note_on_c, 0, 87, 100
2, 365280, Note_on_c, 0, 74, 100
2, 365280, Note_on_c, 0, 62, 100
2, 365280, Note_on_c, 0, 108, 100
2, 365520, Note_on_c, 0, 99, 0
2, 365520, Note_on_c, 0, 87, 0
2, 365520, Note_on_c, 0, 74, 0
2, 365520, Note_on_c, 0, 62, 0
2, 365600, Note_on_c, 0, 108, 0
2, 365760, Note_on_c, 0, 100, 100
2, 365760, Note_on_c, 0, 88, 100
2, 365760, Note_on_c, 0, 75, 100
2, 365760, Note_on_c, 0, 62, 100
2, 365760, Note_on_c, 0, 108, 100
2, 366000, Note_on_c, 0, 100, 0
2, 366000, Note_on_c, 0, 88, 0
2, 366000, Note_on_c, 0, 75, 0
2, 366000, Note_on_c, 0, 62, 0
2, 366000, Note_on_c, 0, 108, 0
2, 366240, Note_on_c, 0, 96, 100
2, 366240, Note_on_c, 0, 84, 100
2, 366240, Note_on_c, 0, 72, 100
2, 366240, Note_on_c, 0, 60, 100
2, 366240, Note_on_c, 0, 108, 100
2, 366480, Note_on_c, 0, 96, 0
2, 366480, Note_on_c, 0, 84, 0
2, 366480, Note_on_c, 0, 72, 0
2, 366480, Note_on_c, 0, 60, 0
2, 366720, Note_on_c, 0, 96, 100
2, 366720, Note_on_c, 0, 84, 100
2, 366720, Note_on_c, 0, 72, 100
2, 366960, Note_on_c, 0, 96, 0
2, 366960, Note_on_c, 0, 84, 0
2, 366960, Note_on_c, 0, 72, 0
2, 367200, Note_on_c, 0, 96, 100
2, 367200, Note_on_c, 0, 84, 100
2, 367200, Note_on_c, 0, 72, 100
2, 367440, Note_on_c, 0, 96, 0
2, 367440, Note_on_c, 0, 84, 0
2, 367440, Note_on_c, 0, 72, 0
2, 367680, Note_on_c, 0, 96, 100
2, 367680, Note_on_c, 0, 84, 100
2, 367680, Note_on_c, 0, 72, 100
2, 367680, Note_on_c, 0, 60, 100
2, 367920, Note_on_c, 0, 96, 0
2, 367920, Note_on_c, 0, 84, 0
2, 367920, Note_on_c, 0, 72, 0
2, 367920, Note_on_c, 0, 60, 0
2, 368000, Note_on_c, 0, 108, 0
2, 368130, Note_on_c, 0, 105, 0
2, 368130, Note_on_c, 0, 93, 0
2, 368130, Note_on_c, 0, 81, 0
2, 368130, Note_on_c, 0, 69, 0
2, 368130, Note_on_c, 0, 106, 100
2, 368130, Note_on_c, 0, 94, 100
2, 368130, Note_on_c, 0, 82, 100
2, 368130, Note_on_c, 0, 70, 100
2, 368160, Note_on_c, 0, 96, 100
2, 368160, Note_on_c, 0, 84, 100
2, 368160, Note_on_c, 0, 72, 100
2, 368160, Note_on_c, 0, 108, 100
2, 368400, Note_on_c, 0, 96, 0
2, 368400, Note_on_c, 0, 84, 0
2, 368400, Note_on_c, 0, 72, 0
2, 368480, Note_on_c, 0, 108, 0
2, 368640, Note_on_c, 0, 96, 100
2, 368640, Note_on_c, 0, 84, 100
2, 368640, Note_on_c, 0, 72, 100
2, 368640, Note_on_c, 0, 60, 100
2, 368640, Note_on_c, 0, 108, 100
2, 368880, Note_on_c, 0, 96, 0
2, 368880, Note_on_c, 0, 84, 0
2, 368880, Note_on_c, 0, 72, 0
2, 368880, Note_on_c, 0, 60, 0
2, 368960, Note_on_c, 0, 108, 0
2, 369120, Note_on_c, 0, 98, 100
2, 369120, Note_on_c, 0, 86, 100
2, 369120, Note_on_c, 0, 73, 100
2, 369120, Note_on_c, 0, 61, 100
2, 369120, Note_on_c, 0, 108, 100
2, 369360, Note_on_c, 0, 98, 0
2, 369360, Note_on_c, 0, 86, 0
2, 369360, Note_on_c, 0, 73, 0
2, 369360, Note_on_c, 0, 61, 0
2, 369440, Note_on_c, 0, 108, 0
2, 369600, Note_on_c, 0, 98, 100
2, 369600, Note_on_c, 0, 86, 100
2, 369600, Note_on_c, 0, 73, 100
2, 369600, Note_on_c, 0, 61, 100
2, 369600, Note_on_c, 0, 108, 100
2, 369840, Note_on_c, 0, 98, 0
2, 369840, Note_on_c, 0, 86, 0
2, 369840, Note_on_c, 0, 73, 0
2, 369840, Note_on_c, 0, 61, 0
2, 369920, Note_on_c, 0, 108, 0
2, 370050, Note_on_c, 0, 106, 0
2, 370050, Note_on_c, 0, 94, 0
2, 370050, Note_on_c, 0, 82, 0
2, 370050, Note_on_c, 0, 70, 0
2, 370050, Note_on_c, 0, 105, 100
2, 370050, Note_on_c, 0, 93, 100
2, 370050, Note_on_c, 0, 81, 100
2, 370050, Note_on_c, 0, 69, 100
2, 370080, Note_on_c, 0, 96, 100
2, 370080, Note_on_c, 0, 84, 100
2, 370080, Note_on_c, 0, 72, 100
2, 370080, Note_on_c, 0, 108, 100
2, 370320, Note_on_c, 0, 96, 0
2, 370320, Note_on_c, 0, 84, 0
2, 370320, Note_on_c, 0, 72, 0
2, 370560, Note_on_c, 0, 96, 100
2, 370560, Note_on_c, 0, 84, 100
2, 370560, Note_on_c, 0, 72, 100
2, 370560, Note_on_c, 0, 60, 100
2, 370720, Note_on_c, 0, 108, 0
2, 370800, Note_on_c, 0, 96, 0
2, 370800, Note_on_c, 0, 84, 0
2, 370800, Note_on_c, 0, 72, 0
2, 370800, Note_on_c, 0, 60, 0
2, 371040, Note_on_c, 0, 97, 100
2, 371040, Note_on_c, 0, 85, 100
2, 371040, Note_on_c, 0, 73, 100
2, 371040, Note_on_c, 0, 61, 100
2, 371040, Note_on_c, 0, 108, 100
2, 371280, Note_on_c, 0, 97, 0
2, 371280, Note_on_c, 0, 85, 0
2, 371280, Note_on_c, 0, 73, 0
2, 371280, Note_on_c, 0, 61, 0
2, 371520, Note_on_c, 0, 97, 100
2, 371520, Note_on_c, 0, 85, 100
2, 371520, Note_on_c, 0, 61, 100
2, 371680, Note_on_c, 0, 108, 0
2, 371760, Note_on_c, 0, 97, 0
2, 371760, Note_on_c, 0, 85, 0
2, 371760, Note_on_c, 0, 61, 0
2, 371970, Note_on_c, 0, 105, 0
2, 371970, Note_on_c, 0, 93, 0
2, 371970, Note_on_c, 0, 81, 0
2, 371970, Note_on_c, 0, 69, 0
2, 371970, Note_on_c, 0, 106, 100
2, 371970, Note_on_c, 0, 94, 100
2, 371970, Note_on_c, 0, 82, 100
2, 371970, Note_on_c, 0, 70, 100
2, 372000, Note_on_c, 0, 98, 100
2, 372000, Note_on_c, 0, 86, 100
2, 372000, Note_on_c, 0, 73, 100
2, 372000, Note_on_c, 0, 108, 100
2, 372240, Note_on_c, 0, 98, 0
2, 372240, Note_on_c, 0, 86, 0
2, 372240, Note_on_c, 0, 73, 0
2, 372320, Note_on_c, 0, 108, 0
2, 372480, Note_on_c, 0, 98, 100
2, 372480, Note_on_c, 0, 86, 100
2, 372480, Note_on_c, 0, 73, 100
2, 372480, Note_on_c, 0, 61, 100
2, 372480, Note_on_c, 0, 108, 100
2, 372720, Note_on_c, 0, 98, 0
2, 372720, Note_on_c, 0, 86, 0
2, 372720, Note_on_c, 0, 73, 0
2, 372720, Note_on_c, 0, 61, 0
2, 372800, Note_on_c, 0, 108, 0
2, 372960, Note_on_c, 0, 99, 100
2, 372960, Note_on_c, 0, 87, 100
2, 372960, Note_on_c, 0, 74, 100
2, 372960, Note_on_c, 0, 61, 100
2, 372960, Note_on_c, 0, 108, 100
2, 373200, Note_on_c, 0, 99, 0
2, 373200, Note_on_c, 0, 87, 0
2, 373200, Note_on_c, 0, 74, 0
2, 373200, Note_on_c, 0, 61, 0
2, 373280, Note_on_c, 0, 108, 0
2, 373440, Note_on_c, 0, 100, 100
2, 373440, Note_on_c, 0, 88, 100
2, 373440, Note_on_c, 0, 75, 100
2, 373440, Note_on_c, 0, 62, 100
2, 373440, Note_on_c, 0, 108, 100
2, 373680, Note_on_c, 0, 100, 0
2, 373680, Note_on_c, 0, 88, 0
2, 373680, Note_on_c, 0, 75, 0
2, 373680, Note_on_c, 0, 62, 0
2, 373680, Note_on_c, 0, 108, 0
2, 373920, Note_on_c, 0, 96, 100
2, 373920, Note_on_c, 0, 84, 100
2, 373920, Note_on_c, 0, 72, 100
2, 373920, Note_on_c, 0, 60, 100
2, 373920, Note_on_c, 0, 108, 100
2, 374160, Note_on_c, 0, 96, 0
2, 374160, Note_on_c, 0, 84, 0
2, 374160, Note_on_c, 0, 72, 0
2, 374160, Note_on_c, 0, 60, 0
2, 374400, Note_on_c, 0, 96, 100
2, 374400, Note_on_c, 0, 84, 100
2, 374400, Note_on_c, 0, 72, 100
2, 374640, Note_on_c, 0, 96, 0
2, 374640, Note_on_c, 0, 84, 0
2, 374640, Note_on_c, 0, 72, 0
2, 374880, Note_on_c, 0, 96, 100
2, 374880, Note_on_c, 0, 84, 100
2, 374880, Note_on_c, 0, 72, 100
2, 375120, Note_on_c, 0, 96, 0
2, 375120, Note_on_c, 0, 84, 0
2, 375120, Note_on_c, 0, 72, 0
2, 375360, Note_on_c, 0, 96, 100
2, 375360, Note_on_c, 0, 84, 100
2, 375360, Note_on_c, 0, 72, 100
2, 375360, Note_on_c, 0, 60, 100
2, 375600, Note_on_c, 0, 96, 0
2, 375600, Note_on_c, 0, 84, 0
2, 375600, Note_on_c, 0, 72, 0
2, 375600, Note_on_c, 0, 60, 0
2, 375680, Note_on_c, 0, 108, 0
2, 375810, Note_on_c, 0, 106, 0
2, 375810, Note_on_c, 0, 94, 0
2, 375810, Note_on_c, 0, 82, 0
2, 375810, Note_on_c, 0, 70, 0
2, 375810, Note_on_c, 0, 105, 100
2, 375810, Note_on_c, 0, 93, 100
2, 375810, Note_on_c, 0, 81, 100
2, 375810, Note_on_c, 0, 69, 100
2, 375840, Note_on_c, 0, 96, 100
2, 375840, Note_on_c, 0, 84, 100
2, 375840, Note_on_c, 0, 72, 100
2, 375840, Note_on_c, 0, 108, 100
2, 376080, Note_on_c, 0, 96, 0
2, 376080, Note_on_c, 0, 84, 0
2, 376080, Note_on_c, 0, 72, 0
2, 376160, Note_on_c, 0, 108, 0
2, 376320, Note_on_c, 0, 96, 100
2, 376320, Note_on_c, 0, 84, 100
2, 376320, Note_on_c, 0, 72, 100
2, 376320, Note_on_c, 0, 60, 100
2, 376320, Note_on_c, 0, 108, 100
2, 376560, Note_on_c, 0, 96, 0
2, 376560, Note_on_c, 0, 84, 0
2, 376560, Note_on_c, 0, 72, 0
2, 376560, Note_on_c, 0, 60, 0
2, 376640, Note_on_c, 0, 108, 0
2, 376800, Note_on_c, 0, 98, 100
2, 376800, Note_on_c, 0, 86, 100
2, 376800, Note_on_c, 0, 73, 100
2, 376800, Note_on_c, 0, 61, 100
2, 376800, Note_on_c, 0, 108, 100
2, 377040, Note_on_c, 0, 98, 0
2, 377040, Note_on_c, 0, 86, 0
2, 377040, Note_on_c, 0, 73, 0
2, 377040, Note_on_c, 0, 61, 0
2, 377120, Note_on_c, 0, 108, 0
2, 377280, Note_on_c, 0, 98, 100
2, 377280, Note_on_c, 0, 86, 100
2, 377280, Note_on_c, 0, 73, 100
2, 377280, Note_on_c, 0, 61, 100
2, 377280, Note_on_c, 0, 108, 100
2, 377520, Note_on_c, 0, 98, 0
2, 377520, Note_on_c, 0, 86, 0
2, 377520, Note_on_c, 0, 73, 0
2, 377520, Note_on_c, 0, 61, 0
2, 377600, Note_on_c, 0, 108, 0
2, 377730, Note_on_c, 0, 105, 0
2, 377730, Note_on_c, 0, 93, 0
2, 377730, Note_on_c, 0, 81, 0
2, 377730, Note_on_c, 0, 69, 0
2, 377730, Note_on_c, 0, 106, 100
2, 377730, Note_on_c, 0, 94, 100
2, 377730, Note_on_c, 0, 82, 100
2, 377730, Note_on_c, 0, 70, 100
2, 377760, Note_on_c, 0, 96, 100
2, 377760, Note_on_c, 0, 84, 100
2, 377760, Note_on_c, 0, 72, 100
2, 377760, Note_on_c, 0, 108, 100
2, 378000, Note_on_c, 0, 96, 0
2, 378000, Note_on_c, 0, 84, 0
2, 378000, Note_on_c, 0, 72, 0
2, 378240, Note_on_c, 0, 96, 100
2, 378240, Note_on_c, 0, 84, 100
2, 378240, Note_on_c, 0, 72, 100
2, 378240, Note_on_c, 0, 60, 100
2, 378400, Note_on_c, 0, 108, 0
2, 378480, Note_on_c, 0, 96, 0
2, 378480, Note_on_c, 0, 84, 0
2, 378480, Note_on_c, 0, 72, 0
2, 378480, Note_on_c, 0, 60, 0
2, 378720, Note_on_c, 0, 97, 100
2, 378720, Note_on_c, 0, 85, 100
2, 378720, Note_on_c, 0, 73, 100
2, 378720, Note_on_c, 0, 61, 100
2, 378720, Note_on_c, 0, 108, 100
2, 378960, Note_on_c, 0, 97, 0
2, 378960, Note_on_c, 0, 85, 0
2, 378960, Note_on_c, 0, 73, 0
2, 378960, Note_on_c, 0, 61, 0
2, 379200, Note_on_c, 0, 97, 100
2, 379200, Note_on_c, 0, 85, 100
2, 379360, Note_on_c, 0, 108, 0
2, 379440, Note_on_c, 0, 97, 0
2, 379440, Note_on_c, 0, 85, 0
2, 379650, Note_on_c, 0, 106, 0
2, 379650, Note_on_c, 0, 94, 0
2, 379650, Note_on_c, 0, 82, 0
2, 379650, Note_on_c, 0, 70, 0
2, 379650, Note_on_c, 0, 105, 100
2, 379650, Note_on_c, 0, 93, 100
2, 379650, Note_on_c, 0, 81, 100
2, 379650, Note_on_c, 0, 69, 100
2, 379680, Note_on_c, 0, 98, 100
2, 379680, Note_on_c, 0, 86, 100
2, 379680, Note_on_c, 0, 73, 100
2, 379680, Note_on_c, 0, 61, 100
2, 379680, Note_on_c, 0, 108, 100
2, 379920, Note_on_c, 0, 98, 0
2, 379920, Note_on_c, 0, 86, 0
2, 379920, Note_on_c, 0, 73, 0
2, 379920, Note_on_c, 0, 61, 0
2, 380000, Note_on_c, 0, 108, 0
2, 380160, Note_on_c, 0, 98, 100
2, 380160, Note_on_c, 0, 86, 100
2, 380160, Note_on_c, 0, 73, 100
2, 380160, Note_on_c, 0, 61, 100
2, 380160, Note_on_c, 0, 108, 100
2, 380400, Note_on_c, 0, 98, 0
2, 380400, Note_on_c, 0, 86, 0
2, 380400, Note_on_c, 0, 73, 0
2, 380400, Note_on_c, 0, 61, 0
2, 380480, Note_on_c, 0, 108, 0
2, 380640, Note_on_c, 0, 99, 100
2, 380640, Note_on_c, 0, 87, 100
2, 380640, Note_on_c, 0, 74, 100
2, 380640, Note_on_c, 0, 62, 100
2, 380640, Note_on_c, 0, 108, 100
2, 380880, Note_on_c, 0, 99, 0
2, 380880, Note_on_c, 0, 87, 0
2, 380880, Note_on_c, 0, 74, 0
2, 380880, Note_on_c, 0, 62, 0
2, 380960, Note_on_c, 0, 108, 0
2, 381120, Note_on_c, 0, 100, 100
2, 381120, Note_on_c, 0, 88, 100
2, 381120, Note_on_c, 0, 75, 100
2, 381120, Note_on_c, 0, 62, 100
2, 381120, Note_on_c, 0, 108, 100
2, 381360, Note_on_c, 0, 100, 0
2, 381360, Note_on_c, 0, 88, 0
2, 381360, Note_on_c, 0, 75, 0
2, 381360, Note_on_c, 0, 62, 0
2, 381360, Note_on_c, 0, 108, 0
2, 381600, Note_on_c, 0, 96, 100
2, 381600, Note_on_c, 0, 84, 100
2, 381600, Note_on_c, 0, 72, 100
2, 381600, Note_on_c, 0, 60, 100
2, 381600, Note_on_c, 0, 108, 100
2, 381840, Note_on_c, 0, 96, 0
2, 381840, Note_on_c, 0, 84, 0
2, 381840, Note_on_c, 0, 72, 0
2, 381840, Note_on_c, 0, 60, 0
2, 382080, Note_on_c, 0, 96, 100
2, 382080, Note_on_c, 0, 84, 100
2, 382080, Note_on_c, 0, 72, 100
2, 382320, Note_on_c, 0, 96, 0
2, 382320, Note_on_c, 0, 84, 0
2, 382320, Note_on_c, 0, 72, 0
2, 382560, Note_on_c, 0, 96, 100
2, 382560, Note_on_c, 0, 84, 100
2, 382560, Note_on_c, 0, 72, 100
2, 382800, Note_on_c, 0, 96, 0
2, 382800, Note_on_c, 0, 84, 0
2, 382800, Note_on_c, 0, 72, 0
2, 383040, Note_on_c, 0, 96, 100
2, 383040, Note_on_c, 0, 84, 100
2, 383040, Note_on_c, 0, 72, 100
2, 383040, Note_on_c, 0, 60, 100
2, 383280, Note_on_c, 0, 96, 0
2, 383280, Note_on_c, 0, 84, 0
2, 383280, Note_on_c, 0, 72, 0
2, 383280, Note_on_c, 0, 60, 0
2, 383360, Note_on_c, 0, 108, 0
2, 383490, Note_on_c, 0, 105, 0
2, 383490, Note_on_c, 0, 93, 0
2, 383490, Note_on_c, 0, 81, 0
2, 383490, Note_on_c, 0, 69, 0
2, 383490, Note_on_c, 0, 106, 100
2, 383490, Note_on_c, 0, 94, 100
2, 383490, Note_on_c, 0, 82, 100
2, 383490, Note_on_c, 0, 70, 100
2, 383520, Note_on_c, 0, 96, 100
2, 383520, Note_on_c, 0, 84, 100
2, 383520, Note_on_c, 0, 72, 100
2, 383520, Note_on_c, 0, 108, 100
2, 383760, Note_on_c, 0, 96, 0
2, 383760, Note_on_c, 0, 84, 0
2, 383760, Note_on_c, 0, 72, 0
2, 383840, Note_on_c, 0, 108, 0
2, 384000, Note_on_c, 0, 96, 100
2, 384000, Note_on_c, 0, 84, 100
2, 384000, Note_on_c, 0, 72, 100
2, 384000, Note_on_c, 0, 60, 100
2, 384000, Note_on_c, 0, 108, 100
2, 384240, Note_on_c, 0, 96, 0
2, 384240, Note_on_c, 0, 84, 0
2, 384240, Note_on_c, 0, 72, 0
2, 384240, Note_on_c, 0, 60, 0
2, 384320, Note_on_c, 0, 108, 0
2, 384480, Note_on_c, 0, 98, 100
2, 384480, Note_on_c, 0, 86, 100
2, 384480, Note_on_c, 0, 73, 100
2, 384480, Note_on_c, 0, 61, 100
2, 384480, Note_on_c, 0, 108, 100
2, 384720, Note_on_c, 0, 98, 0
2, 384720, Note_on_c, 0, 86, 0
2, 384720, Note_on_c, 0, 73, 0
2, 384720, Note_on_c, 0, 61, 0
2, 384800, Note_on_c, 0, 108, 0
2, 384960, Note_on_c, 0, 98, 100
2, 384960, Note_on_c, 0, 86, 100
2, 384960, Note_on_c, 0, 73, 100
2, 384960, Note_on_c, 0, 61, 100
2, 384960, Note_on_c, 0, 108, 100
2, 385200, Note_on_c, 0, 98, 0
2, 385200, Note_on_c, 0, 86, 0
2, 385200, Note_on_c, 0, 73, 0
2, 385200, Note_on_c, 0, 61, 0
2, 385280, Note_on_c, 0, 108, 0
2, 385410, Note_on_c, 0, 106, 0
2, 385410, Note_on_c, 0, 94, 0
2, 385410, Note_on_c, 0, 82, 0
2, 385410, Note_on_c, 0, 70, 0
2, 385410, Note_on_c, 0, 105, 100
2, 385410, Note_on_c, 0, 93, 100
2, 385410, Note_on_c, 0, 81, 100
2, 385410, Note_on_c, 0, 69, 100
2, 385440, Note_on_c, 0, 96, 100
2, 385440, Note_on_c, 0, 84, 100
2, 385440, Note_on_c, 0, 72, 100
2, 385440, Note_on_c, 0, 108, 100
2, 385680, Note_on_c, 0, 96, 0
2, 385680, Note_on_c, 0, 84, 0
2, 385680, Note_on_c, 0, 72, 0
2, 385920, Note_on_c, 0, 96, 100
2, 385920, Note_on_c, 0, 84, 100
2, 385920, Note_on_c, 0, 72, 100
2, 385920, Note_on_c, 0, 60, 100
2, 386080, Note_on_c, 0, 108, 0
2, 386160, Note_on_c, 0, 96, 0
2, 386160, Note_on_c, 0, 84, 0
2, 386160, Note_on_c, 0, 72, 0
2, 386160, Note_on_c, 0, 60, 0
2, 386400, Note_on_c, 0, 97, 100
2, 386400, Note_on_c, 0, 85, 100
2, 386400, Note_on_c, 0, 73, 100
2, 386400, Note_on_c, 0, 61, 100
2, 386400, Note_on_c, 0, 108, 100
2, 386640, Note_on_c, 0, 97, 0
2, 386640, Note_on_c, 0, 85, 0
2, 386640, Note_on_c, 0, 73, 0
2, 386640, Note_on_c, 0, 61, 0
2, 386880, Note_on_c, 0, 97, 100
2, 386880, Note_on_c, 0, 85, 100
2, 386880, Note_on_c, 0, 61, 100
2, 387040, Note_on_c, 0, 108, 0
2, 387120, Note_on_c, 0, 97, 0
2, 387120, Note_on_c, 0, 85, 0
2, 387120, Note_on_c, 0, 61, 0
2, 387330, Note_on_c, 0, 105, 0
2, 387330, Note_on_c, 0, 93, 0
2, 387330, Note_on_c, 0, 81, 0
2, 387330, Note_on_c, 0, 69, 0
2, 387330, Note_on_c, 0, 106, 100
2, 387330, Note_on_c, 0, 94, 100
2, 387330, Note_on_c, 0, 82, 100
2, 387330, Note_on_c, 0, 70, 100
2, 387360, Note_on_c, 0, 98, 100
2, 387360, Note_on_c, 0, 86, 100
2, 387360, Note_on_c, 0, 73, 100
2, 387360, Note_on_c, 0, 108, 100
2, 387600, Note_on_c, 0, 98, 0
2, 387600, Note_on_c, 0, 86, 0
2, 387600, Note_on_c, 0, 73, 0
2, 387680, Note_on_c, 0, 108, 0
2, 387840, Note_on_c, 0, 98, 100
2, 387840, Note_on_c, 0, 86, 100
2, 387840, Note_on_c, 0, 73, 100
2, 387840, Note_on_c, 0, 61, 100
2, 387840, Note_on_c, 0, 108, 100
2, 388080, Note_on_c, 0, 98, 0
2, 388080, Note_on_c, 0, 86, 0
2, 388080, Note_on_c, 0, 73, 0
2, 388080, Note_on_c, 0, 61, 0
2, 388080, Note_on_c, 0, 108, 0
2, 388320, Note_on_c, 0, 99, 100
2, 388320, Note_on_c, 0, 87, 100
2, 388320, Note_on_c, 0, 74, 100
2, 388320, Note_on_c, 0, 62, 100
2, 388320, Note_on_c, 0, 108, 100
2, 388560, Note_on_c, 0, 99, 0
2, 388560, Note_on_c, 0, 87, 0
2, 388560, Note_on_c, 0, 74, 0
2, 388560, Note_on_c, 0, 62, 0
2, 388560, Note_on_c, 0, 108, 0
2, 388800, Note_on_c, 0, 100, 100
2, 388800, Note_on_c, 0, 88, 100
2, 388800, Note_on_c, 0, 75, 100
2, 388800, Note_on_c, 0, 62, 100
2, 388800, Note_on_c, 0, 108, 100
2, 389040, Note_on_c, 0, 100, 0
2, 389040, Note_on_c, 0, 88, 0
2, 389040, Note_on_c, 0, 75, 0
2, 389040, Note_on_c, 0, 62, 0
2, 389040, Note_on_c, 0, 108, 0
2, 389280, Note_on_c, 0, 96, 100
2, 389280, Note_on_c, 0, 84, 100
2, 389280, Note_on_c, 0, 72, 100
2, 389280, Note_on_c, 0, 60, 100
2, 389280, Note_on_c, 0, 108, 100
2, 389520, Note_on_c, 0, 96, 0
2, 389520, Note_on_c, 0, 84, 0
2, 389520, Note_on_c, 0, 72, 0
2, 389520, Note_on_c, 0, 60, 0
2, 389760, Note_on_c, 0, 96, 100
2, 389760, Note_on_c, 0, 84, 100
2, 389760, Note_on_c, 0, 72, 100
2, 390000, Note_on_c, 0, 96, 0
2, 390000, Note_on_c, 0, 84, 0
2, 390000, Note_on_c, 0, 72, 0
2, 390240, Note_on_c, 0, 96, 100
2, 390240, Note_on_c, 0, 84, 100
2, 390240, Note_on_c, 0, 72, 100
2, 390480, Note_on_c, 0, 96, 0
2, 390480, Note_on_c, 0, 84, 0
2, 390480, Note_on_c, 0, 72, 0
2, 390720, Note_on_c, 0, 96, 100
2, 390720, Note_on_c, 0, 84, 100
2, 390720, Note_on_c, 0, 72, 100
2, 390720, Note_on_c, 0, 60, 100
2, 390960, Note_on_c, 0, 96, 0
2, 390960, Note_on_c, 0, 84, 0
2, 390960, Note_on_c, 0, 72, 0
2, 390960, Note_on_c, 0, 60, 0
2, 391170, Note_on_c, 0, 106, 0
2, 391170, Note_on_c, 0, 94, 0
2, 391170, Note_on_c, 0, 82, 0
2, 391170, Note_on_c, 0, 70, 0
2, 391170, Note_on_c, 0, 105, 100
2, 391170, Note_on_c, 0, 93, 100
2, 391170, Note_on_c, 0, 81, 100
2, 391170, Note_on_c, 0, 69, 100
2, 391200, Note_on_c, 0, 108, 0
2, 391200, Note_on_c, 0, 99, 100
2, 391200, Note_on_c, 0, 87, 100
2, 391440, Note_on_c, 0, 99, 0
2, 391440, Note_on_c, 0, 87, 0
2, 391440, Note_on_c, 0, 99, 100
2, 391680, Text_t, "[solo]"
2, 391680, Text_t, "solo_on"
2, 391680, Text_t, "sing_off"
2, 391680, Note_on_c, 0, 99, 0
2, 391680, Note_on_c, 0, 97, 100
2, 391680, Note_on_c, 0, 85, 100
2, 391680, Note_on_c, 0, 72, 100
2, 391680, Note_on_c, 0, 60, 100
2, 391920, Note_on_c, 0, 97, 0
2, 391920, Note_on_c, 0, 85, 0
2, 391920, Note_on_c, 0, 72, 0
2, 391920, Note_on_c, 0, 60, 0
2, 392160, Note_on_c, 0, 99, 100
2, 392160, Note_on_c, 0, 87, 100
2, 392160, Note_on_c, 0, 73, 100
2, 392160, Note_on_c, 0, 61, 100
2, 393120, Note_on_c, 0, 99, 0
2, 393120, Note_on_c, 0, 87, 0
2, 393120, Note_on_c, 0, 73, 0
2, 393120, Note_on_c, 0, 61, 0
2, 393120, Note_on_c, 0, 97, 100
2, 393120, Note_on_c, 0, 85, 100
2, 393120, Note_on_c, 0, 72, 100
2, 393120, Note_on_c, 0, 60, 100
2, 394080, Note_on_c, 0, 97, 0
2, 394080, Note_on_c, 0, 85, 0
2, 394080, Note_on_c, 0, 72, 0
2, 394080, Note_on_c, 0, 60, 0
2, 394080, Note_on_c, 0, 98, 100
2, 394080, Note_on_c, 0, 86, 100
2, 394080, Note_on_c, 0, 73, 100
2, 394080, Note_on_c, 0, 61, 100
2, 394320, Note_on_c, 0, 61, 0
2, 394800, Note_on_c, 0, 98, 0
2, 394800, Note_on_c, 0, 86, 0
2, 394800, Note_on_c, 0, 73, 0
2, 395040, Note_on_c, 0, 99, 100
2, 395040, Note_on_c, 0, 87, 100
2, 395040, Note_on_c, 0, 73, 100
2, 395280, Note_on_c, 0, 99, 0
2, 395280, Note_on_c, 0, 87, 0
2, 395280, Note_on_c, 0, 73, 0
2, 395520, Note_on_c, 0, 98, 100
2, 395520, Note_on_c, 0, 86, 100
2, 395520, Note_on_c, 0, 73, 100
2, 395520, Note_on_c, 0, 61, 100
2, 395760, Note_on_c, 0, 98, 0
2, 395760, Note_on_c, 0, 86, 0
2, 395760, Note_on_c, 0, 73, 0
2, 395760, Note_on_c, 0, 61, 0
2, 396000, Note_on_c, 0, 99, 100
2, 396000, Note_on_c, 0, 87, 100
2, 396000, Note_on_c, 0, 74, 100
2, 396000, Note_on_c, 0, 62, 100
2, 396240, Note_on_c, 0, 99, 0
2, 396240, Note_on_c, 0, 87, 0
2, 396240, Note_on_c, 0, 74, 0
2, 396240, Note_on_c, 0, 62, 0
2, 396480, Note_on_c, 0, 100, 100
2, 396480, Note_on_c, 0, 88, 100
2, 396480, Note_on_c, 0, 75, 100
2, 396480, Note_on_c, 0, 62, 100
2, 396720, Note_on_c, 0, 100, 0
2, 396720, Note_on_c, 0, 88, 0
2, 396720, Note_on_c, 0, 75, 0
2, 396720, Note_on_c, 0, 62, 0
2, 396960, Note_on_c, 0, 97, 100
2, 396960, Note_on_c, 0, 85, 100
2, 396960, Note_on_c, 0, 72, 100
2, 396960, Note_on_c, 0, 60, 100
2, 398850, Note_on_c, 0, 105, 0
2, 398850, Note_on_c, 0, 93, 0
2, 398850, Note_on_c, 0, 81, 0
2, 398850, Note_on_c, 0, 69, 0
2, 398850, Note_on_c, 0, 106, 100
2, 398850, Note_on_c, 0, 94, 100
2, 398850, Note_on_c, 0, 82, 100
2, 398850, Note_on_c, 0, 70, 100
2, 398880, Note_on_c, 0, 97, 0
2, 398880, Note_on_c, 0, 85, 0
2, 398880, Note_on_c, 0, 72, 0
2, 398880, Note_on_c, 0, 60, 0
2, 398880, Note_on_c, 0, 99, 100
2, 398880, Note_on_c, 0, 87, 100
2, 399120, Note_on_c, 0, 99, 0
2, 399120, Note_on_c, 0, 87, 0
2, 399360, Note_on_c, 0, 97, 100
2, 399360, Note_on_c, 0, 85, 100
2, 399360, Note_on_c, 0, 72, 100
2, 399360, Note_on_c, 0, 60, 100
2, 399600, Note_on_c, 0, 97, 0
2, 399600, Note_on_c, 0, 85, 0
2, 399600, Note_on_c, 0, 72, 0
2, 399600, Note_on_c, 0, 60, 0
2, 399840, Note_on_c, 0, 99, 100
2, 399840, Note_on_c, 0, 87, 100
2, 399840, Note_on_c, 0, 73, 100
2, 399840, Note_on_c, 0, 61, 100
2, 400800, Note_on_c, 0, 99, 0
2, 400800, Note_on_c, 0, 87, 0
2, 400800, Note_on_c, 0, 73, 0
2, 400800, Note_on_c, 0, 61, 0
2, 400800, Note_on_c, 0, 97, 100
2, 400800, Note_on_c, 0, 85, 100
2, 400800, Note_on_c, 0, 72, 100
2, 400800, Note_on_c, 0, 60, 100
2, 401760, Note_on_c, 0, 97, 0
2, 401760, Note_on_c, 0, 85, 0
2, 401760, Note_on_c, 0, 72, 0
2, 401760, Note_on_c, 0, 60, 0
2, 401760, Note_on_c, 0, 98, 100
2, 401760, Note_on_c, 0, 86, 100
2, 401760, Note_on_c, 0, 73, 100
2, 401760, Note_on_c, 0, 61, 100
2, 402000, Note_on_c, 0, 61, 0
2, 402480, Note_on_c, 0, 98, 0
2, 402480, Note_on_c, 0, 86, 0
2, 402480, Note_on_c, 0, 73, 0
2, 402720, Note_on_c, 0, 99, 100
2, 402720, Note_on_c, 0, 87, 100
2, 402720, Note_on_c, 0, 73, 100
2, 402960, Note_on_c, 0, 99, 0
2, 402960, Note_on_c, 0, 87, 0
2, 402960, Note_on_c, 0, 73, 0
2, 403200, Note_on_c, 0, 97, 100
2, 403200, Note_on_c, 0, 85, 100
2, 403200, Note_on_c, 0, 73, 100
2, 403200, Note_on_c, 0, 61, 100
2, 403440, Note_on_c, 0, 97, 0
2, 403440, Note_on_c, 0, 85, 0
2, 403440, Note_on_c, 0, 73, 0
2, 403440, Note_on_c, 0, 61, 0
2, 403680, Note_on_c, 0, 98, 100
2, 403680, Note_on_c, 0, 86, 100
2, 403680, Note_on_c, 0, 74, 100
2, 403680, Note_on_c, 0, 62, 100
2, 403920, Note_on_c, 0, 98, 0
2, 403920, Note_on_c, 0, 86, 0
2, 403920, Note_on_c, 0, 74, 0
2, 403920, Note_on_c, 0, 62, 0
2, 404160, Note_on_c, 0, 99, 100
2, 404160, Note_on_c, 0, 87, 100
2, 404160, Note_on_c, 0, 75, 100
2, 404160, Note_on_c, 0, 62, 100
2, 404400, Note_on_c, 0, 99, 0
2, 404400, Note_on_c, 0, 87, 0
2, 404400, Note_on_c, 0, 75, 0
2, 404400, Note_on_c, 0, 62, 0
2, 404640, Note_on_c, 0, 100, 100
2, 404640, Note_on_c, 0, 88, 100
2, 404640, Note_on_c, 0, 75, 100
2, 404640, Note_on_c, 0, 62, 100
2, 404880, Note_on_c, 0, 100, 0
2, 404880, Note_on_c, 0, 88, 0
2, 404880, Note_on_c, 0, 75, 0
2, 404880, Note_on_c, 0, 62, 0
2, 405570, Note_on_c, 0, 106, 0
2, 405570, Note_on_c, 0, 94, 0
2, 405570, Note_on_c, 0, 82, 0
2, 405570, Note_on_c, 0, 70, 0
2, 405570, Note_on_c, 0, 105, 100
2, 405570, Note_on_c, 0, 93, 100
2, 405570, Note_on_c, 0, 81, 100
2, 405570, Note_on_c, 0, 69, 100
2, 405570, Note_on_c, 0, 67, 100
2, 405570, Note_on_c, 0, 79, 100
2, 405570, Note_on_c, 0, 91, 100
2, 405570, Note_on_c, 0, 103, 100
2, 405600, Note_on_c, 0, 100, 100
2, 405600, Note_on_c, 0, 88, 100
2, 405600, Note_on_c, 0, 75, 100
2, 405600, Note_on_c, 0, 62, 100
2, 405840, Note_on_c, 0, 100, 0
2, 405840, Note_on_c, 0, 88, 0
2, 405840, Note_on_c, 0, 75, 0
2, 405840, Note_on_c, 0, 62, 0
2, 406080, Note_on_c, 0, 99, 100
2, 406080, Note_on_c, 0, 87, 100
2, 406320, Note_on_c, 0, 99, 0
2, 406320, Note_on_c, 0, 87, 0
2, 406560, Note_on_c, 0, 98, 100
2, 406560, Note_on_c, 0, 86, 100
2, 406560, Note_on_c, 0, 74, 100
2, 406800, Note_on_c, 0, 98, 0
2, 406800, Note_on_c, 0, 86, 0
2, 406800, Note_on_c, 0, 74, 0
2, 407040, Note_on_c, 0, 99, 100
2, 407040, Note_on_c, 0, 87, 100
2, 407040, Note_on_c, 0, 75, 100
2, 407040, Note_on_c, 0, 62, 100
2, 407250, Note_on_c, 0, 79, 0
2, 407250, Note_on_c, 0, 91, 0
2, 407250, Note_on_c, 0, 103, 0
2, 407280, Note_on_c, 0, 99, 0
2, 407280, Note_on_c, 0, 87, 0
2, 407280, Note_on_c, 0, 75, 0
2, 407280, Note_on_c, 0, 62, 0
2, 407490, Note_on_c, 0, 67, 0
2, 407520, Note_on_c, 0, 100, 100
2, 407520, Note_on_c, 0, 88, 100
2, 407760, Note_on_c, 0, 100, 0
2, 407760, Note_on_c, 0, 88, 0
2, 407760, Note_on_c, 0, 99, 100
2, 407760, Note_on_c, 0, 87, 100
2, 407760, Note_on_c, 0, 75, 100
2, 408000, Note_on_c, 0, 99, 0
2, 408000, Note_on_c, 0, 87, 0
2, 408000, Note_on_c, 0, 75, 0
2, 408240, Note_on_c, 0, 100, 100
2, 408240, Note_on_c, 0, 88, 100
2, 408480, Note_on_c, 0, 100, 0
2, 408480, Note_on_c, 0, 88, 0
2, 408480, Note_on_c, 0, 99, 100
2, 408480, Note_on_c, 0, 87, 100
2, 408480, Note_on_c, 0, 75, 100
2, 408480, Note_on_c, 0, 62, 100
2, 408720, Note_on_c, 0, 99, 0
2, 408720, Note_on_c, 0, 87, 0
2, 408720, Note_on_c, 0, 75, 0
2, 408720, Note_on_c, 0, 62, 0
2, 408930, Note_on_c, 0, 105, 0
2, 408930, Note_on_c, 0, 93, 0
2, 408930, Note_on_c, 0, 81, 0
2, 408930, Note_on_c, 0, 69, 0
2, 408930, Note_on_c, 0, 106, 100
2, 408930, Note_on_c, 0, 103, 100
2, 408930, Note_on_c, 0, 94, 100
2, 408930, Note_on_c, 0, 82, 100
2, 408930, Note_on_c, 0, 70, 100
2, 408930, Note_on_c, 0, 91, 100
2, 408930, Note_on_c, 0, 79, 100
2, 408930, Note_on_c, 0, 67, 100
2, 408960, Note_on_c, 0, 100, 100
2, 408960, Note_on_c, 0, 88, 100
2, 409200, Note_on_c, 0, 100, 0
2, 409200, Note_on_c, 0, 88, 0
2, 409200, Note_on_c, 0, 99, 100
2, 409200, Note_on_c, 0, 87, 100
2, 409200, Note_on_c, 0, 75, 100
2, 409440, Note_on_c, 0, 99, 0
2, 409440, Note_on_c, 0, 87, 0
2, 409440, Note_on_c, 0, 75, 0
2, 409680, Note_on_c, 0, 100, 100
2, 409680, Note_on_c, 0, 88, 100
2, 409920, Note_on_c, 0, 100, 0
2, 409920, Note_on_c, 0, 88, 0
2, 409920, Note_on_c, 0, 99, 100
2, 409920, Note_on_c, 0, 87, 100
2, 409920, Note_on_c, 0, 75, 100
2, 409920, Note_on_c, 0, 62, 100
2, 410160, Note_on_c, 0, 99, 0
2, 410160, Note_on_c, 0, 87, 0
2, 410160, Note_on_c, 0, 75, 0
2, 410160, Note_on_c, 0, 62, 0
2, 410400, Note_on_c, 0, 100, 100
2, 410400, Note_on_c, 0, 88, 100
2, 410640, Note_on_c, 0, 100, 0
2, 410640, Note_on_c, 0, 88, 0
2, 410640, Note_on_c, 0, 99, 100
2, 410850, Note_on_c, 0, 106, 0
2, 410850, Note_on_c, 0, 103, 0
2, 410850, Note_on_c, 0, 94, 0
2, 410850, Note_on_c, 0, 82, 0
2, 410850, Note_on_c, 0, 70, 0
2, 410850, Note_on_c, 0, 91, 0
2, 410850, Note_on_c, 0, 79, 0
2, 410850, Note_on_c, 0, 67, 0
2, 410850, Note_on_c, 0, 105, 100
2, 410850, Note_on_c, 0, 93, 100
2, 410850, Note_on_c, 0, 81, 100
2, 410850, Note_on_c, 0, 69, 100
2, 410880, Note_on_c, 0, 99, 0
2, 410880, Note_on_c, 0, 100, 100
2, 410880, Note_on_c, 0, 88, 100
2, 410880, Note_on_c, 0, 75, 100
2, 410880, Note_on_c, 0, 62, 100
2, 411120, Note_on_c, 0, 100, 0
2, 411120, Note_on_c, 0, 88, 0
2, 411120, Note_on_c, 0, 75, 0
2, 411120, Note_on_c, 0, 62, 0
2, 411360, Note_on_c, 0, 100, 100
2, 411360, Note_on_c, 0, 99, 100
2, 411360, Note_on_c, 0, 87, 100
2, 411360, Note_on_c, 0, 75, 100
2, 411360, Note_on_c, 0, 62, 100
2, 411600, Note_on_c, 0, 100, 0
2, 411600, Note_on_c, 0, 99, 0
2, 411600, Note_on_c, 0, 87, 0
2, 411600, Note_on_c, 0, 75, 0
2, 411600, Note_on_c, 0, 62, 0
2, 411840, Note_on_c, 0, 100, 100
2, 411840, Note_on_c, 0, 88, 100
2, 411840, Note_on_c, 0, 74, 100
2, 411840, Note_on_c, 0, 62, 100
2, 412080, Note_on_c, 0, 100, 0
2, 412080, Note_on_c, 0, 88, 0
2, 412080, Note_on_c, 0, 74, 0
2, 412080, Note_on_c, 0, 62, 0
2, 412080, Note_on_c, 0, 99, 100
2, 412320, Note_on_c, 0, 99, 0
2, 412320, Note_on_c, 0, 98, 100
2, 412320, Note_on_c, 0, 73, 100
2, 412560, Note_on_c, 0, 98, 0
2, 412560, Note_on_c, 0, 73, 0
2, 412560, Note_on_c, 0, 97, 100
2, 412770, Note_on_c, 0, 105, 0
2, 412770, Note_on_c, 0, 93, 0
2, 412770, Note_on_c, 0, 81, 0
2, 412770, Note_on_c, 0, 69, 0
2, 412770, Note_on_c, 0, 106, 100
2, 412770, Note_on_c, 0, 94, 100
2, 412770, Note_on_c, 0, 82, 100
2, 412770, Note_on_c, 0, 70, 100
2, 412800, Note_on_c, 0, 97, 0
2, 412800, Note_on_c, 0, 99, 100
2, 412800, Note_on_c, 0, 74, 100
2, 412800, Note_on_c, 0, 62, 100
2, 412800, Note_on_c, 0, 87, 100
2, 413040, Note_on_c, 0, 99, 0
2, 413040, Note_on_c, 0, 74, 0
2, 413040, Note_on_c, 0, 62, 0
2, 413040, Note_on_c, 0, 87, 0
2, 413040, Note_on_c, 0, 97, 100
2, 413280, Note_on_c, 0, 97, 0
2, 413280, Note_on_c, 0, 98, 100
2, 413280, Note_on_c, 0, 73, 100
2, 413280, Note_on_c, 0, 61, 100
2, 413280, Note_on_c, 0, 87, 100
2, 413520, Note_on_c, 0, 98, 0
2, 413520, Note_on_c, 0, 73, 0
2, 413520, Note_on_c, 0, 61, 0
2, 413520, Note_on_c, 0, 87, 0
2, 413520, Note_on_c, 0, 97, 100
2, 413520, Note_on_c, 0, 86, 100
2, 413760, Note_on_c, 0, 97, 0
2, 413760, Note_on_c, 0, 86, 0
2, 413760, Note_on_c, 0, 96, 100
2, 413760, Note_on_c, 0, 72, 100
2, 413760, Note_on_c, 0, 61, 100
2, 413760, Note_on_c, 0, 85, 100
2, 414000, Note_on_c, 0, 96, 0
2, 414000, Note_on_c, 0, 72, 0
2, 414000, Note_on_c, 0, 61, 0
2, 414000, Note_on_c, 0, 85, 0
2, 414000, Note_on_c, 0, 97, 100
2, 414240, Note_on_c, 0, 97, 0
2, 414690, Note_on_c, 0, 105, 100
2, 414690, Note_on_c, 0, 93, 100
2, 414690, Note_on_c, 0, 81, 100
2, 414690, Note_on_c, 0, 69, 100
2, 414720, Note_on_c, 0, 99, 100
2, 414720, Note_on_c, 0, 87, 100
2, 414720, Note_on_c, 0, 75, 100
2, 414720, Note_on_c, 0, 62, 100
2, 415650, Note_on_c, 0, 106, 0
2, 415650, Note_on_c, 0, 94, 0
2, 415650, Note_on_c, 0, 82, 0
2, 415650, Note_on_c, 0, 70, 0
2, 415680, Note_on_c, 0, 99, 0
2, 415680, Note_on_c, 0, 87, 0
2, 415680, Note_on_c, 0, 75, 0
2, 415680, Note_on_c, 0, 62, 0
2, 416640, Note_on_c, 0, 98, 100
2, 416640, Note_on_c, 0, 87, 100
2, 416640, Note_on_c, 0, 75, 100
2, 416640, Note_on_c, 0, 62, 100
2, 416880, Note_on_c, 0, 98, 0
2, 416880, Note_on_c, 0, 87, 0
2, 416880, Note_on_c, 0, 75, 0
2, 416880, Note_on_c, 0, 62, 0
2, 416880, Note_on_c, 0, 99, 100
2, 417120, Note_on_c, 0, 99, 0
2, 417120, Note_on_c, 0, 100, 100
2, 417120, Note_on_c, 0, 88, 100
2, 417360, Note_on_c, 0, 100, 0
2, 417360, Note_on_c, 0, 88, 0
2, 417360, Note_on_c, 0, 98, 100
2, 417360, Note_on_c, 0, 87, 100
2, 417360, Note_on_c, 0, 75, 100
2, 417600, Note_on_c, 0, 98, 0
2, 417600, Note_on_c, 0, 87, 0
2, 417600, Note_on_c, 0, 75, 0
2, 417600, Note_on_c, 0, 99, 100
2, 417600, Note_on_c, 0, 62, 100
2, 417840, Note_on_c, 0, 99, 0
2, 417840, Note_on_c, 0, 62, 0
2, 417840, Note_on_c, 0, 100, 100
2, 417840, Note_on_c, 0, 88, 100
2, 418080, Note_on_c, 0, 100, 0
2, 418080, Note_on_c, 0, 88, 0
2, 418080, Note_on_c, 0, 98, 100
2, 418080, Note_on_c, 0, 87, 100
2, 418080, Note_on_c, 0, 75, 100
2, 418320, Note_on_c, 0, 98, 0
2, 418320, Note_on_c, 0, 87, 0
2, 418320, Note_on_c, 0, 75, 0
2, 418320, Note_on_c, 0, 99, 100
2, 418530, Note_on_c, 0, 105, 0
2, 418530, Note_on_c, 0, 93, 0
2, 418530, Note_on_c, 0, 81, 0
2, 418530, Note_on_c, 0, 69, 0
2, 418530, Note_on_c, 0, 106, 100
2, 418530, Note_on_c, 0, 94, 100
2, 418530, Note_on_c, 0, 82, 100
2, 418530, Note_on_c, 0, 70, 100
2, 418560, Note_on_c, 0, 99, 0
2, 418560, Note_on_c, 0, 100, 100
2, 418560, Note_on_c, 0, 88, 100
2, 418560, Note_on_c, 0, 62, 100
2, 418740, Note_on_c, 0, 100, 0
2, 418740, Note_on_c, 0, 98, 100
2, 418800, Note_on_c, 0, 88, 0
2, 418800, Note_on_c, 0, 62, 0
2, 418800, Note_on_c, 0, 87, 100
2, 418800, Note_on_c, 0, 75, 100
2, 418920, Note_on_c, 0, 98, 0
2, 418920, Note_on_c, 0, 99, 100
2, 419040, Note_on_c, 0, 87, 0
2, 419040, Note_on_c, 0, 75, 0
2, 419100, Note_on_c, 0, 99, 0
2, 419100, Note_on_c, 0, 100, 100
2, 419280, Note_on_c, 0, 100, 0
2, 419280, Note_on_c, 0, 99, 100
2, 419520, Note_on_c, 0, 99, 0
2, 419520, Note_on_c, 0, 100, 100
2, 419520, Note_on_c, 0, 88, 100
2, 419520, Note_on_c, 0, 74, 100
2, 419520, Note_on_c, 0, 61, 100
2, 419760, Note_on_c, 0, 100, 0
2, 419760, Note_on_c, 0, 88, 0
2, 419760, Note_on_c, 0, 74, 0
2, 419760, Note_on_c, 0, 61, 0
2, 419760, Note_on_c, 0, 99, 100
2, 419760, Note_on_c, 0, 87, 100
2, 420000, Note_on_c, 0, 99, 0
2, 420000, Note_on_c, 0, 87, 0
2, 420000, Note_on_c, 0, 98, 100
2, 420000, Note_on_c, 0, 86, 100
2, 420000, Note_on_c, 0, 74, 100
2, 420240, Note_on_c, 0, 98, 0
2, 420240, Note_on_c, 0, 86, 0
2, 420240, Note_on_c, 0, 74, 0
2, 420450, Note_on_c, 0, 106, 0
2, 420450, Note_on_c, 0, 94, 0
2, 420450, Note_on_c, 0, 82, 0
2, 420450, Note_on_c, 0, 70, 0
2, 420450, Note_on_c, 0, 105, 100
2, 420450, Note_on_c, 0, 93, 100
2, 420450, Note_on_c, 0, 81, 100
2, 420450, Note_on_c, 0, 69, 100
2, 420480, Note_on_c, 0, 100, 100
2, 420480, Note_on_c, 0, 88, 100
2, 420480, Note_on_c, 0, 75, 100
2, 420480, Note_on_c, 0, 62, 100
2, 421440, Note_on_c, 0, 100, 0
2, 421440, Note_on_c, 0, 88, 0
2, 421440, Note_on_c, 0, 75, 0
2, 421440, Note_on_c, 0, 62, 0
2, 421440, Note_on_c, 0, 84, 100
2, 421440, Note_on_c, 0, 96, 100
2, 421680, Note_on_c, 0, 84, 0
2, 421680, Note_on_c, 0, 96, 0
2, 422370, Note_on_c, 0, 105, 0
2, 422370, Note_on_c, 0, 93, 0
2, 422370, Note_on_c, 0, 81, 0
2, 422370, Note_on_c, 0, 69, 0
2, 422370, Note_on_c, 0, 106, 100
2, 422370, Note_on_c, 0, 103, 100
2, 422370, Note_on_c, 0, 94, 100
2, 422370, Note_on_c, 0, 82, 100
2, 422370, Note_on_c, 0, 70, 100
2, 422370, Note_on_c, 0, 91, 100
2, 422370, Note_on_c, 0, 79, 100
2, 422370, Note_on_c, 0, 67, 100
2, 422400, Note_on_c, 0, 100, 100
2, 422400, Note_on_c, 0, 88, 100
2, 422400, Note_on_c, 0, 75, 100
2, 422400, Note_on_c, 0, 62, 100
2, 422640, Note_on_c, 0, 100, 0
2, 422640, Note_on_c, 0, 88, 0
2, 422640, Note_on_c, 0, 75, 0
2, 422640, Note_on_c, 0, 62, 0
2, 422640, Note_on_c, 0, 96, 100
2, 422880, Note_on_c, 0, 96, 0
2, 422880, Note_on_c, 0, 86, 100
2, 422880, Note_on_c, 0, 96, 100
2, 423120, Note_on_c, 0, 86, 0
2, 423120, Note_on_c, 0, 96, 0
2, 423120, Note_on_c, 0, 100, 100
2, 423120, Note_on_c, 0, 88, 100
2, 423120, Note_on_c, 0, 75, 100
2, 423120, Note_on_c, 0, 62, 100
2, 423360, Note_on_c, 0, 100, 0
2, 423360, Note_on_c, 0, 88, 0
2, 423360, Note_on_c, 0, 75, 0
2, 423360, Note_on_c, 0, 62, 0
2, 423360, Note_on_c, 0, 96, 100
2, 423600, Note_on_c, 0, 96, 0
2, 423600, Note_on_c, 0, 96, 100
2, 423840, Note_on_c, 0, 96, 0
2, 423840, Note_on_c, 0, 100, 100
2, 423840, Note_on_c, 0, 88, 100
2, 423840, Note_on_c, 0, 75, 100
2, 423840, Note_on_c, 0, 62, 100
2, 424080, Note_on_c, 0, 100, 0
2, 424080, Note_on_c, 0, 88, 0
2, 424080, Note_on_c, 0, 75, 0
2, 424080, Note_on_c, 0, 62, 0
2, 424080, Note_on_c, 0, 96, 100
2, 424290, Note_on_c, 0, 106, 0
2, 424290, Note_on_c, 0, 103, 0
2, 424290, Note_on_c, 0, 94, 0
2, 424290, Note_on_c, 0, 82, 0
2, 424290, Note_on_c, 0, 70, 0
2, 424290, Note_on_c, 0, 91, 0
2, 424290, Note_on_c, 0, 79, 0
2, 424290, Note_on_c, 0, 67, 0
2, 424290, Note_on_c, 0, 105, 100
2, 424290, Note_on_c, 0, 93, 100
2, 424290, Note_on_c, 0, 81, 100
2, 424290, Note_on_c, 0, 69, 100
2, 424320, Note_on_c, 0, 96, 0
2, 424320, Note_on_c, 0, 99, 100
2, 424320, Note_on_c, 0, 87, 100
2, 424320, Note_on_c, 0, 74, 100
2, 424320, Note_on_c, 0, 61, 100
2, 424560, Note_on_c, 0, 99, 0
2, 424560, Note_on_c, 0, 87, 0
2, 424560, Note_on_c, 0, 74, 0
2, 424560, Note_on_c, 0, 61, 0
2, 424560, Note_on_c, 0, 96, 100
2, 424800, Note_on_c, 0, 96, 0
2, 424800, Note_on_c, 0, 96, 100
2, 424800, Note_on_c, 0, 85, 100
2, 425040, Note_on_c, 0, 96, 0
2, 425040, Note_on_c, 0, 85, 0
2, 425040, Note_on_c, 0, 99, 100
2, 425040, Note_on_c, 0, 87, 100
2, 425040, Note_on_c, 0, 74, 100
2, 425040, Note_on_c, 0, 61, 100
2, 425280, Note_on_c, 0, 99, 0
2, 425280, Note_on_c, 0, 87, 0
2, 425280, Note_on_c, 0, 74, 0
2, 425280, Note_on_c, 0, 61, 0
2, 425280, Note_on_c, 0, 96, 100
2, 425520, Note_on_c, 0, 96, 0
2, 425520, Note_on_c, 0, 96, 100
2, 425760, Note_on_c, 0, 96, 0
2, 425760, Note_on_c, 0, 99, 100
2, 425760, Note_on_c, 0, 87, 100
2, 425760, Note_on_c, 0, 74, 100
2, 425760, Note_on_c, 0, 61, 100
2, 426000, Note_on_c, 0, 99, 0
2, 426000, Note_on_c, 0, 87, 0
2, 426000, Note_on_c, 0, 74, 0
2, 426000, Note_on_c, 0, 61, 0
2, 426000, Note_on_c, 0, 96, 100
2, 426210, Note_on_c, 0, 105, 0
2, 426210, Note_on_c, 0, 93, 0
2, 426210, Note_on_c, 0, 81, 0
2, 426210, Note_on_c, 0, 69, 0
2, 426210, Note_on_c, 0, 106, 100
2, 426210, Note_on_c, 0, 94, 100
2, 426210, Note_on_c, 0, 82, 100
2, 426210, Note_on_c, 0, 70, 100
2, 426240, Note_on_c, 0, 96, 0
2, 426240, Note_on_c, 0, 98, 100
2, 426240, Note_on_c, 0, 86, 100
2, 426240, Note_on_c, 0, 73, 100
2, 426240, Note_on_c, 0, 60, 100
2, 426480, Note_on_c, 0, 98, 0
2, 426480, Note_on_c, 0, 86, 0
2, 426480, Note_on_c, 0, 73, 0
2, 426480, Note_on_c, 0, 60, 0
2, 426480, Note_on_c, 0, 96, 100
2, 426480, Note_on_c, 0, 84, 100
2, 426720, Note_on_c, 0, 96, 0
2, 426720, Note_on_c, 0, 84, 0
2, 426720, Note_on_c, 0, 98, 100
2, 426720, Note_on_c, 0, 86, 100
2, 426720, Note_on_c, 0, 73, 100
2, 426960, Note_on_c, 0, 98, 0
2, 426960, Note_on_c, 0, 86, 0
2, 426960, Note_on_c, 0, 73, 0
2, 426960, Note_on_c, 0, 96, 100
2, 427200, Note_on_c, 0, 96, 0
2, 427200, Note_on_c, 0, 97, 100
2, 427200, Note_on_c, 0, 85, 100
2, 427200, Note_on_c, 0, 72, 100
2, 427200, Note_on_c, 0, 60, 100
2, 427440, Note_on_c, 0, 97, 0
2, 427440, Note_on_c, 0, 85, 0
2, 427440, Note_on_c, 0, 72, 0
2, 427440, Note_on_c, 0, 60, 0
2, 427440, Note_on_c, 0, 96, 100
2, 427680, Note_on_c, 0, 96, 0
2, 427680, Note_on_c, 0, 96, 100
2, 427680, Note_on_c, 0, 84, 100
2, 427680, Note_on_c, 0, 72, 100
2, 427920, Note_on_c, 0, 96, 0
2, 427920, Note_on_c, 0, 84, 0
2, 427920, Note_on_c, 0, 72, 0
2, 427920, Note_on_c, 0, 96, 100
2, 428160, Note_on_c, 0, 96, 0
2, 428160, Note_on_c, 0, 97, 100
2, 428160, Note_on_c, 0, 85, 100
2, 428160, Note_on_c, 0, 72, 100
2, 428160, Note_on_c, 0, 60, 100
2, 429120, Note_on_c, 0, 97, 0
2, 429120, Note_on_c, 0, 85, 0
2, 429120, Note_on_c, 0, 72, 0
2, 429120, Note_on_c, 0, 60, 0
2, 429120, Note_on_c, 0, 96, 100
2, 429120, Note_on_c, 0, 84, 100
2, 429360, Note_on_c, 0, 96, 0
2, 429360, Note_on_c, 0, 84, 0
2, 429600, Note_on_c, 0, 96, 100
2, 429840, Note_on_c, 0, 96, 0
2, 429840, Note_on_c, 0, 96, 100
2, 430050, Note_on_c, 0, 106, 0
2, 430050, Note_on_c, 0, 94, 0
2, 430050, Note_on_c, 0, 82, 0
2, 430050, Note_on_c, 0, 70, 0
2, 430050, Note_on_c, 0, 105, 100
2, 430050, Note_on_c, 0, 103, 100
2, 430050, Note_on_c, 0, 93, 100
2, 430050, Note_on_c, 0, 81, 100
2, 430050, Note_on_c, 0, 69, 100
2, 430050, Note_on_c, 0, 91, 100
2, 430050, Note_on_c, 0, 79, 100
2, 430050, Note_on_c, 0, 67, 100
2, 430080, Note_on_c, 0, 96, 0
2, 430080, Note_on_c, 0, 100, 100
2, 430080, Note_on_c, 0, 88, 100
2, 430080, Note_on_c, 0, 75, 100
2, 430080, Note_on_c, 0, 62, 100
2, 430320, Note_on_c, 0, 100, 0
2, 430320, Note_on_c, 0, 88, 0
2, 430320, Note_on_c, 0, 75, 0
2, 430320, Note_on_c, 0, 62, 0
2, 430320, Note_on_c, 0, 96, 100
2, 430560, Note_on_c, 0, 96, 0
2, 430560, Note_on_c, 0, 86, 100
2, 430560, Note_on_c, 0, 96, 100
2, 430800, Note_on_c, 0, 86, 0
2, 430800, Note_on_c, 0, 96, 0
2, 430800, Note_on_c, 0, 100, 100
2, 430800, Note_on_c, 0, 88, 100
2, 430800, Note_on_c, 0, 75, 100
2, 430800, Note_on_c, 0, 62, 100
2, 431040, Note_on_c, 0, 100, 0
2, 431040, Note_on_c, 0, 88, 0
2, 431040, Note_on_c, 0, 75, 0
2, 431040, Note_on_c, 0, 62, 0
2, 431040, Note_on_c, 0, 96, 100
2, 431280, Note_on_c, 0, 96, 0
2, 431280, Note_on_c, 0, 96, 100
2, 431520, Note_on_c, 0, 96, 0
2, 431520, Note_on_c, 0, 100, 100
2, 431520, Note_on_c, 0, 88, 100
2, 431520, Note_on_c, 0, 75, 100
2, 431520, Note_on_c, 0, 62, 100
2, 431760, Note_on_c, 0, 100, 0
2, 431760, Note_on_c, 0, 88, 0
2, 431760, Note_on_c, 0, 75, 0
2, 431760, Note_on_c, 0, 62, 0
2, 431760, Note_on_c, 0, 96, 100
2, 431970, Note_on_c, 0, 105, 0
2, 431970, Note_on_c, 0, 103, 0
2, 431970, Note_on_c, 0, 93, 0
2, 431970, Note_on_c, 0, 81, 0
2, 431970, Note_on_c, 0, 69, 0
2, 431970, Note_on_c, 0, 91, 0
2, 431970, Note_on_c, 0, 79, 0
2, 431970, Note_on_c, 0, 67, 0
2, 431970, Note_on_c, 0, 106, 100
2, 431970, Note_on_c, 0, 94, 100
2, 431970, Note_on_c, 0, 82, 100
2, 431970, Note_on_c, 0, 70, 100
2, 432000, Note_on_c, 0, 96, 0
2, 432000, Note_on_c, 0, 99, 100
2, 432000, Note_on_c, 0, 87, 100
2, 432000, Note_on_c, 0, 74, 100
2, 432000, Note_on_c, 0, 61, 100
2, 432240, Note_on_c, 0, 99, 0
2, 432240, Note_on_c, 0, 87, 0
2, 432240, Note_on_c, 0, 74, 0
2, 432240, Note_on_c, 0, 61, 0
2, 432240, Note_on_c, 0, 96, 100
2, 432480, Note_on_c, 0, 96, 0
2, 432480, Note_on_c, 0, 96, 100
2, 432480, Note_on_c, 0, 85, 100
2, 432720, Note_on_c, 0, 96, 0
2, 432720, Note_on_c, 0, 85, 0
2, 432720, Note_on_c, 0, 99, 100
2, 432720, Note_on_c, 0, 87, 100
2, 432720, Note_on_c, 0, 74, 100
2, 432720, Note_on_c, 0, 61, 100
2, 432960, Note_on_c, 0, 99, 0
2, 432960, Note_on_c, 0, 87, 0
2, 432960, Note_on_c, 0, 74, 0
2, 432960, Note_on_c, 0, 61, 0
2, 432960, Note_on_c, 0, 96, 100
2, 433200, Note_on_c, 0, 96, 0
2, 433200, Note_on_c, 0, 96, 100
2, 433440, Note_on_c, 0, 96, 0
2, 433440, Note_on_c, 0, 99, 100
2, 433440, Note_on_c, 0, 87, 100
2, 433440, Note_on_c, 0, 74, 100
2, 433440, Note_on_c, 0, 61, 100
2, 433680, Note_on_c, 0, 99, 0
2, 433680, Note_on_c, 0, 87, 0
2, 433680, Note_on_c, 0, 74, 0
2, 433680, Note_on_c, 0, 61, 0
2, 433680, Note_on_c, 0, 96, 100
2, 433890, Note_on_c, 0, 106, 0
2, 433890, Note_on_c, 0, 94, 0
2, 433890, Note_on_c, 0, 82, 0
2, 433890, Note_on_c, 0, 70, 0
2, 433890, Note_on_c, 0, 105, 100
2, 433890, Note_on_c, 0, 93, 100
2, 433890, Note_on_c, 0, 81, 100
2, 433890, Note_on_c, 0, 69, 100
2, 433920, Note_on_c, 0, 96, 0
2, 433920, Note_on_c, 0, 98, 100
2, 433920, Note_on_c, 0, 86, 100
2, 433920, Note_on_c, 0, 73, 100
2, 433920, Note_on_c, 0, 60, 100
2, 434160, Note_on_c, 0, 98, 0
2, 434160, Note_on_c, 0, 86, 0
2, 434160, Note_on_c, 0, 73, 0
2, 434160, Note_on_c, 0, 60, 0
2, 434160, Note_on_c, 0, 96, 100
2, 434160, Note_on_c, 0, 84, 100
2, 434400, Note_on_c, 0, 96, 0
2, 434400, Note_on_c, 0, 84, 0
2, 434400, Note_on_c, 0, 98, 100
2, 434400, Note_on_c, 0, 86, 100
2, 434400, Note_on_c, 0, 73, 100
2, 434640, Note_on_c, 0, 98, 0
2, 434640, Note_on_c, 0, 86, 0
2, 434640, Note_on_c, 0, 73, 0
2, 434640, Note_on_c, 0, 96, 100
2, 434880, Note_on_c, 0, 96, 0
2, 434880, Note_on_c, 0, 97, 100
2, 434880, Note_on_c, 0, 85, 100
2, 434880, Note_on_c, 0, 72, 100
2, 434880, Note_on_c, 0, 60, 100
2, 435120, Note_on_c, 0, 97, 0
2, 435120, Note_on_c, 0, 85, 0
2, 435120, Note_on_c, 0, 72, 0
2, 435120, Note_on_c, 0, 60, 0
2, 435120, Note_on_c, 0, 96, 100
2, 435360, Note_on_c, 0, 96, 0
2, 435360, Note_on_c, 0, 96, 100
2, 435360, Note_on_c, 0, 84, 100
2, 435360, Note_on_c, 0, 72, 100
2, 435600, Note_on_c, 0, 96, 0
2, 435600, Note_on_c, 0, 84, 0
2, 435600, Note_on_c, 0, 72, 0
2, 435600, Note_on_c, 0, 96, 100
2, 435840, Note_on_c, 0, 96, 0
2, 435840, Note_on_c, 0, 97, 100
2, 435840, Note_on_c, 0, 85, 100
2, 435840, Note_on_c, 0, 73, 100
2, 435840, Note_on_c, 0, 61, 100
2, 436080, Note_on_c, 0, 97, 0
2, 436080, Note_on_c, 0, 85, 0
2, 436080, Note_on_c, 0, 73, 0
2, 436080, Note_on_c, 0, 61, 0
2, 436080, Note_on_c, 0, 96, 100
2, 436320, Note_on_c, 0, 96, 0
2, 436320, Note_on_c, 0, 98, 100
2, 436320, Note_on_c, 0, 86, 100
2, 436320, Note_on_c, 0, 73, 100
2, 436560, Note_on_c, 0, 98, 0
2, 436560, Note_on_c, 0, 86, 0
2, 436560, Note_on_c, 0, 73, 0
2, 436560, Note_on_c, 0, 96, 100
2, 436800, Note_on_c, 0, 96, 0
2, 436800, Note_on_c, 0, 97, 100
2, 436800, Note_on_c, 0, 85, 100
2, 436800, Note_on_c, 0, 72, 100
2, 436800, Note_on_c, 0, 60, 100
2, 437280, Note_on_c, 0, 97, 0
2, 437280, Note_on_c, 0, 96, 100
2, 437520, Note_on_c, 0, 85, 0
2, 437520, Note_on_c, 0, 72, 0
2, 437520, Note_on_c, 0, 60, 0
2, 437520, Note_on_c, 0, 96, 0
2, 437520, Note_on_c, 0, 96, 100
2, 437730, Note_on_c, 0, 105, 0
2, 437730, Note_on_c, 0, 93, 0
2, 437730, Note_on_c, 0, 81, 0
2, 437730, Note_on_c, 0, 69, 0
2, 437730, Note_on_c, 0, 106, 100
2, 437730, Note_on_c, 0, 94, 100
2, 437730, Note_on_c, 0, 82, 100
2, 437730, Note_on_c, 0, 70, 100
2, 437760, Note_on_c, 0, 96, 0
2, 437760, Note_on_c, 0, 100, 100
2, 437760, Note_on_c, 0, 88, 100
2, 437760, Note_on_c, 0, 75, 100
2, 437760, Note_on_c, 0, 62, 100
2, 438000, Note_on_c, 0, 100, 0
2, 438000, Note_on_c, 0, 88, 0
2, 438000, Note_on_c, 0, 75, 0
2, 438000, Note_on_c, 0, 62, 0
2, 438000, Note_on_c, 0, 96, 100
2, 438240, Note_on_c, 0, 96, 0
2, 438240, Note_on_c, 0, 86, 100
2, 438240, Note_on_c, 0, 96, 100
2, 438480, Note_on_c, 0, 86, 0
2, 438480, Note_on_c, 0, 96, 0
2, 438480, Note_on_c, 0, 100, 100
2, 438480, Note_on_c, 0, 88, 100
2, 438480, Note_on_c, 0, 75, 100
2, 438480, Note_on_c, 0, 62, 100
2, 438720, Note_on_c, 0, 100, 0
2, 438720, Note_on_c, 0, 88, 0
2, 438720, Note_on_c, 0, 75, 0
2, 438720, Note_on_c, 0, 62, 0
2, 438720, Note_on_c, 0, 96, 100
2, 438960, Note_on_c, 0, 96, 0
2, 438960, Note_on_c, 0, 96, 100
2, 439200, Note_on_c, 0, 96, 0
2, 439200, Note_on_c, 0, 100, 100
2, 439200, Note_on_c, 0, 88, 100
2, 439200, Note_on_c, 0, 75, 100
2, 439200, Note_on_c, 0, 62, 100
2, 439440, Note_on_c, 0, 100, 0
2, 439440, Note_on_c, 0, 88, 0
2, 439440, Note_on_c, 0, 75, 0
2, 439440, Note_on_c, 0, 62, 0
2, 439440, Note_on_c, 0, 96, 100
2, 439650, Note_on_c, 0, 106, 0
2, 439650, Note_on_c, 0, 94, 0
2, 439650, Note_on_c, 0, 82, 0
2, 439650, Note_on_c, 0, 70, 0
2, 439650, Note_on_c, 0, 105, 100
2, 439650, Note_on_c, 0, 93, 100
2, 439650, Note_on_c, 0, 81, 100
2, 439650, Note_on_c, 0, 69, 100
2, 439680, Note_on_c, 0, 96, 0
2, 439680, Note_on_c, 0, 99, 100
2, 439680, Note_on_c, 0, 87, 100
2, 439680, Note_on_c, 0, 74, 100
2, 439680, Note_on_c, 0, 61, 100
2, 439920, Note_on_c, 0, 99, 0
2, 439920, Note_on_c, 0, 87, 0
2, 439920, Note_on_c, 0, 74, 0
2, 439920, Note_on_c, 0, 61, 0
2, 439920, Note_on_c, 0, 96, 100
2, 440160, Note_on_c, 0, 96, 0
2, 440160, Note_on_c, 0, 96, 100
2, 440160, Note_on_c, 0, 85, 100
2, 440400, Note_on_c, 0, 96, 0
2, 440400, Note_on_c, 0, 85, 0
2, 440400, Note_on_c, 0, 99, 100
2, 440400, Note_on_c, 0, 87, 100
2, 440400, Note_on_c, 0, 74, 100
2, 440400, Note_on_c, 0, 61, 100
2, 440640, Note_on_c, 0, 99, 0
2, 440640, Note_on_c, 0, 87, 0
2, 440640, Note_on_c, 0, 74, 0
2, 440640, Note_on_c, 0, 61, 0
2, 440640, Note_on_c, 0, 96, 100
2, 440880, Note_on_c, 0, 96, 0
2, 440880, Note_on_c, 0, 96, 100
2, 441120, Note_on_c, 0, 96, 0
2, 441120, Note_on_c, 0, 99, 100
2, 441120, Note_on_c, 0, 87, 100
2, 441120, Note_on_c, 0, 74, 100
2, 441120, Note_on_c, 0, 61, 100
2, 441360, Note_on_c, 0, 99, 0
2, 441360, Note_on_c, 0, 87, 0
2, 441360, Note_on_c, 0, 74, 0
2, 441360, Note_on_c, 0, 61, 0
2, 441360, Note_on_c, 0, 96, 100
2, 441570, Note_on_c, 0, 105, 0
2, 441570, Note_on_c, 0, 93, 0
2, 441570, Note_on_c, 0, 81, 0
2, 441570, Note_on_c, 0, 69, 0
2, 441570, Note_on_c, 0, 106, 100
2, 441570, Note_on_c, 0, 94, 100
2, 441570, Note_on_c, 0, 82, 100
2, 441570, Note_on_c, 0, 70, 100
2, 441600, Note_on_c, 0, 96, 0
2, 441600, Note_on_c, 0, 98, 100
2, 441600, Note_on_c, 0, 86, 100
2, 441600, Note_on_c, 0, 73, 100
2, 441600, Note_on_c, 0, 60, 100
2, 441840, Note_on_c, 0, 98, 0
2, 441840, Note_on_c, 0, 86, 0
2, 441840, Note_on_c, 0, 73, 0
2, 441840, Note_on_c, 0, 60, 0
2, 441840, Note_on_c, 0, 96, 100
2, 441840, Note_on_c, 0, 84, 100
2, 442080, Note_on_c, 0, 96, 0
2, 442080, Note_on_c, 0, 84, 0
2, 442080, Note_on_c, 0, 98, 100
2, 442080, Note_on_c, 0, 86, 100
2, 442080, Note_on_c, 0, 73, 100
2, 442320, Note_on_c, 0, 98, 0
2, 442320, Note_on_c, 0, 86, 0
2, 442320, Note_on_c, 0, 73, 0
2, 442320, Note_on_c, 0, 96, 100
2, 442560, Note_on_c, 0, 96, 0
2, 442560, Note_on_c, 0, 97, 100
2, 442560, Note_on_c, 0, 85, 100
2, 442560, Note_on_c, 0, 72, 100
2, 442560, Note_on_c, 0, 60, 100
2, 442800, Note_on_c, 0, 97, 0
2, 442800, Note_on_c, 0, 85, 0
2, 442800, Note_on_c, 0, 72, 0
2, 442800, Note_on_c, 0, 60, 0
2, 442800, Note_on_c, 0, 96, 100
2, 443040, Note_on_c, 0, 96, 0
2, 443040, Note_on_c, 0, 96, 100
2, 443040, Note_on_c, 0, 84, 100
2, 443040, Note_on_c, 0, 72, 100
2, 443280, Note_on_c, 0, 96, 0
2, 443280, Note_on_c, 0, 84, 0
2, 443280, Note_on_c, 0, 72, 0
2, 443280, Note_on_c, 0, 96, 100
2, 443520, Note_on_c, 0, 96, 0
2, 443520, Note_on_c, 0, 97, 100
2, 443520, Note_on_c, 0, 85, 100
2, 443520, Note_on_c, 0, 72, 100
2, 443520, Note_on_c, 0, 60, 100
2, 444480, Note_on_c, 0, 97, 0
2, 444480, Note_on_c, 0, 85, 0
2, 444480, Note_on_c, 0, 72, 0
2, 444480, Note_on_c, 0, 60, 0
2, 444480, Note_on_c, 0, 96, 100
2, 444480, Note_on_c, 0, 84, 100
2, 444720, Note_on_c, 0, 96, 0
2, 444720, Note_on_c, 0, 84, 0
2, 444960, Note_on_c, 0, 96, 100
2, 445200, Note_on_c, 0, 96, 0
2, 445200, Note_on_c, 0, 96, 100
2, 445410, Note_on_c, 0, 106, 0
2, 445410, Note_on_c, 0, 94, 0
2, 445410, Note_on_c, 0, 82, 0
2, 445410, Note_on_c, 0, 70, 0
2, 445410, Note_on_c, 0, 105, 100
2, 445410, Note_on_c, 0, 93, 100
2, 445410, Note_on_c, 0, 81, 100
2, 445410, Note_on_c, 0, 69, 100
2, 445440, Note_on_c, 0, 96, 0
2, 445440, Note_on_c, 0, 100, 100
2, 445440, Note_on_c, 0, 88, 100
2, 445440, Note_on_c, 0, 75, 100
2, 445440, Note_on_c, 0, 62, 100
2, 445680, Note_on_c, 0, 100, 0
2, 445680, Note_on_c, 0, 88, 0
2, 445680, Note_on_c, 0, 75, 0
2, 445680, Note_on_c, 0, 62, 0
2, 445680, Note_on_c, 0, 96, 100
2, 445920, Note_on_c, 0, 96, 0
2, 445920, Note_on_c, 0, 86, 100
2, 445920, Note_on_c, 0, 96, 100
2, 446160, Note_on_c, 0, 86, 0
2, 446160, Note_on_c, 0, 96, 0
2, 446160, Note_on_c, 0, 100, 100
2, 446160, Note_on_c, 0, 88, 100
2, 446160, Note_on_c, 0, 75, 100
2, 446160, Note_on_c, 0, 62, 100
2, 446400, Note_on_c, 0, 100, 0
2, 446400, Note_on_c, 0, 88, 0
2, 446400, Note_on_c, 0, 75, 0
2, 446400, Note_on_c, 0, 62, 0
2, 446400, Note_on_c, 0, 96, 100
2, 446640, Note_on_c, 0, 96, 0
2, 446640, Note_on_c, 0, 96, 100
2, 446880, Note_on_c, 0, 96, 0
2, 446880, Note_on_c, 0, 100, 100
2, 446880, Note_on_c, 0, 88, 100
2, 446880, Note_on_c, 0, 75, 100
2, 446880, Note_on_c, 0, 62, 100
2, 447120, Note_on_c, 0, 100, 0
2, 447120, Note_on_c, 0, 88, 0
2, 447120, Note_on_c, 0, 75, 0
2, 447120, Note_on_c, 0, 62, 0
2, 447120, Note_on_c, 0, 96, 100
2, 447330, Note_on_c, 0, 105, 0
2, 447330, Note_on_c, 0, 93, 0
2, 447330, Note_on_c, 0, 81, 0
2, 447330, Note_on_c, 0, 69, 0
2, 447330, Note_on_c, 0, 106, 100
2, 447330, Note_on_c, 0, 94, 100
2, 447330, Note_on_c, 0, 82, 100
2, 447330, Note_on_c, 0, 70, 100
2, 447360, Note_on_c, 0, 96, 0
2, 447360, Note_on_c, 0, 99, 100
2, 447360, Note_on_c, 0, 87, 100
2, 447360, Note_on_c, 0, 74, 100
2, 447360, Note_on_c, 0, 61, 100
2, 447600, Note_on_c, 0, 99, 0
2, 447600, Note_on_c, 0, 87, 0
2, 447600, Note_on_c, 0, 74, 0
2, 447600, Note_on_c, 0, 61, 0
2, 447600, Note_on_c, 0, 96, 100
2, 447840, Note_on_c, 0, 96, 0
2, 447840, Note_on_c, 0, 96, 100
2, 447840, Note_on_c, 0, 85, 100
2, 448080, Note_on_c, 0, 96, 0
2, 448080, Note_on_c, 0, 85, 0
2, 448080, Note_on_c, 0, 99, 100
2, 448080, Note_on_c, 0, 87, 100
2, 448080, Note_on_c, 0, 74, 100
2, 448080, Note_on_c, 0, 61, 100
2, 448320, Note_on_c, 0, 99, 0
2, 448320, Note_on_c, 0, 87, 0
2, 448320, Note_on_c, 0, 74, 0
2, 448320, Note_on_c, 0, 61, 0
2, 448320, Note_on_c, 0, 96, 100
2, 448560, Note_on_c, 0, 96, 0
2, 448560, Note_on_c, 0, 96, 100
2, 448800, Note_on_c, 0, 96, 0
2, 448800, Note_on_c, 0, 99, 100
2, 448800, Note_on_c, 0, 87, 100
2, 448800, Note_on_c, 0, 74, 100
2, 448800, Note_on_c, 0, 61, 100
2, 449040, Note_on_c, 0, 99, 0
2, 449040, Note_on_c, 0, 87, 0
2, 449040, Note_on_c, 0, 74, 0
2, 449040, Note_on_c, 0, 61, 0
2, 449040, Note_on_c, 0, 96, 100
2, 449250, Note_on_c, 0, 105, 100
2, 449250, Note_on_c, 0, 93, 100
2, 449250, Note_on_c, 0, 81, 100
2, 449250, Note_on_c, 0, 69, 100
2, 449280, Note_on_c, 0, 96, 0
2, 449280, Note_on_c, 0, 98, 100
2, 449280, Note_on_c, 0, 86, 100
2, 449280, Note_on_c, 0, 75, 100
2, 449280, Note_on_c, 0, 62, 100
2, 449520, Note_on_c, 0, 98, 0
2, 449520, Note_on_c, 0, 86, 0
2, 449520, Note_on_c, 0, 75, 0
2, 449520, Note_on_c, 0, 62, 0
2, 449520, Note_on_c, 0, 96, 100
2, 449760, Note_on_c, 0, 96, 0
2, 449760, Note_on_c, 0, 96, 100
2, 450000, Note_on_c, 0, 96, 0
2, 450000, Note_on_c, 0, 100, 100
2, 450000, Note_on_c, 0, 88, 100
2, 450000, Note_on_c, 0, 74, 100
2, 450000, Note_on_c, 0, 61, 100
2, 450240, Note_on_c, 0, 100, 0
2, 450240, Note_on_c, 0, 88, 0
2, 450240, Note_on_c, 0, 74, 0
2, 450240, Note_on_c, 0, 61, 0
2, 450240, Note_on_c, 0, 96, 100
2, 450480, Note_on_c, 0, 96, 0
2, 450480, Note_on_c, 0, 96, 100
2, 450720, Note_on_c, 0, 96, 0
2, 450720, Note_on_c, 0, 99, 100
2, 450720, Note_on_c, 0, 87, 100
2, 450720, Note_on_c, 0, 73, 100
2, 450720, Note_on_c, 0, 60, 100
2, 450960, Note_on_c, 0, 99, 0
2, 450960, Note_on_c, 0, 87, 0
2, 450960, Note_on_c, 0, 73, 0
2, 450960, Note_on_c, 0, 60, 0
2, 450960, Note_on_c, 0, 96, 100
2, 451200, Note_on_c, 0, 96, 0
2, 451200, Note_on_c, 0, 96, 100
2, 451440, Note_on_c, 0, 96, 0
2, 451440, Note_on_c, 0, 98, 100
2, 451440, Note_on_c, 0, 86, 100
2, 451440, Note_on_c, 0, 72, 100
2, 451440, Note_on_c, 0, 60, 100
2, 451680, Note_on_c, 0, 98, 0
2, 451680, Note_on_c, 0, 86, 0
2, 451680, Note_on_c, 0, 72, 0
2, 451680, Note_on_c, 0, 60, 0
2, 451680, Note_on_c, 0, 96, 100
2, 451920, Note_on_c, 0, 96, 0
2, 451920, Note_on_c, 0, 96, 100
2, 452160, Note_on_c, 0, 96, 0
2, 452160, Note_on_c, 0, 97, 100
2, 452160, Note_on_c, 0, 85, 100
2, 452160, Note_on_c, 0, 73, 100
2, 452160, Note_on_c, 0, 60, 100
2, 452400, Note_on_c, 0, 97, 0
2, 452400, Note_on_c, 0, 85, 0
2, 452400, Note_on_c, 0, 73, 0
2, 452400, Note_on_c, 0, 60, 0
2, 452400, Note_on_c, 0, 96, 100
2, 452640, Note_on_c, 0, 96, 0
2, 452640, Note_on_c, 0, 96, 100
2, 452640, Note_on_c, 0, 84, 100
2, 452640, Note_on_c, 0, 72, 100
2, 452880, Note_on_c, 0, 96, 0
2, 452880, Note_on_c, 0, 84, 0
2, 452880, Note_on_c, 0, 72, 0
2, 452880, Note_on_c, 0, 96, 100
2, 453120, Note_on_c, 0, 96, 0
2, 453120, Note_on_c, 0, 99, 100
2, 453120, Note_on_c, 0, 87, 100
2, 453120, Note_on_c, 0, 75, 100
2, 453120, Note_on_c, 0, 62, 100
2, 453360, Note_on_c, 0, 99, 0
2, 453360, Note_on_c, 0, 87, 0
2, 453360, Note_on_c, 0, 75, 0
2, 453360, Note_on_c, 0, 62, 0
2, 453360, Note_on_c, 0, 96, 100
2, 453600, Note_on_c, 0, 96, 0
2, 453600, Note_on_c, 0, 98, 100
2, 453600, Note_on_c, 0, 86, 100
2, 453840, Note_on_c, 0, 98, 0
2, 453840, Note_on_c, 0, 86, 0
2, 453840, Note_on_c, 0, 96, 100
2, 454080, Note_on_c, 0, 96, 0
2, 454080, Note_on_c, 0, 98, 100
2, 454080, Note_on_c, 0, 86, 100
2, 454080, Note_on_c, 0, 74, 100
2, 454080, Note_on_c, 0, 61, 100
2, 454320, Note_on_c, 0, 98, 0
2, 454320, Note_on_c, 0, 86, 0
2, 454320, Note_on_c, 0, 74, 0
2, 454320, Note_on_c, 0, 61, 0
2, 454320, Note_on_c, 0, 96, 100
2, 454560, Note_on_c, 0, 96, 0
2, 454560, Note_on_c, 0, 97, 100
2, 454560, Note_on_c, 0, 85, 100
2, 454560, Note_on_c, 0, 73, 100
2, 454800, Note_on_c, 0, 97, 0
2, 454800, Note_on_c, 0, 85, 0
2, 454800, Note_on_c, 0, 73, 0
2, 454800, Note_on_c, 0, 84, 100
2, 454800, Note_on_c, 0, 96, 100
2, 455040, Note_on_c, 0, 84, 0
2, 455040, Note_on_c, 0, 96, 0
2, 455040, Note_on_c, 0, 85, 100
2, 455040, Note_on_c, 0, 97, 100
2, 455040, Note_on_c, 0, 72, 100
2, 455040, Note_on_c, 0, 60, 100
2, 455280, Note_on_c, 0, 85, 0
2, 455280, Note_on_c, 0, 97, 0
2, 455280, Note_on_c, 0, 72, 0
2, 455280, Note_on_c, 0, 60, 0
2, 455280, Note_on_c, 0, 96, 100
2, 455520, Note_on_c, 0, 96, 0
2, 455970, Note_on_c, 0, 103, 100
2, 455970, Note_on_c, 0, 91, 100
2, 455970, Note_on_c, 0, 79, 100
2, 455970, Note_on_c, 0, 67, 100
2, 456000, Note_on_c, 0, 98, 100
2, 456000, Note_on_c, 0, 97, 100
2, 456000, Note_on_c, 0, 86, 100
2, 456000, Note_on_c, 0, 85, 100
2, 456000, Note_on_c, 0, 74, 100
2, 456000, Note_on_c, 0, 73, 100
2, 456000, Note_on_c, 0, 61, 100
2, 456960, Text_t, "drum_off"
2, 456960, Text_t, "bass_off"
2, 456960, Text_t, "[idle]"
2, 456960, Text_t, "solo_off"
2, 456960, Text_t, "[verse]"
2, 463680, Note_on_c, 0, 98, 0
2, 463680, Note_on_c, 0, 97, 0
2, 463680, Note_on_c, 0, 86, 0
2, 463680, Note_on_c, 0, 85, 0
2, 463680, Note_on_c, 0, 74, 0
2, 463680, Note_on_c, 0, 73, 0
2, 463680, Note_on_c, 0, 61, 0
2, 463890, Note_on_c, 0, 103, 0
2, 463890, Note_on_c, 0, 91, 0
2, 463890, Note_on_c, 0, 79, 0
2, 463890, Note_on_c, 0, 67, 0
2, 464160, Note_on_c, 0, 96, 100
2, 464160, Note_on_c, 0, 84, 100
2, 464160, Note_on_c, 0, 72, 100
2, 464160, Note_on_c, 0, 60, 100
2, 464400, Note_on_c, 0, 96, 0
2, 464400, Note_on_c, 0, 84, 0
2, 464400, Note_on_c, 0, 72, 0
2, 464400, Note_on_c, 0, 60, 0
2, 464400, Note_on_c, 0, 96, 100
2, 464400, Note_on_c, 0, 84, 100
2, 464640, Text_t, "[play]"
2, 464640, Text_t, "drum_on"
2, 464640, Text_t, "bass_on"
2, 464640, Note_on_c, 0, 96, 0
2, 464640, Note_on_c, 0, 84, 0
2, 464640, Note_on_c, 0, 96, 100
2, 464640, Note_on_c, 0, 84, 100
2, 464640, Note_on_c, 0, 72, 100
2, 464640, Note_on_c, 0, 60, 100
2, 464880, Note_on_c, 0, 96, 0
2, 464880, Note_on_c, 0, 84, 0
2, 464880, Note_on_c, 0, 72, 0
2, 464880, Note_on_c, 0, 60, 0
2, 465120, Note_on_c, 0, 96, 100
2, 465120, Note_on_c, 0, 98, 100
2, 465120, Note_on_c, 0, 84, 100
2, 465120, Note_on_c, 0, 86, 100
2, 465120, Note_on_c, 0, 72, 100
2, 465120, Note_on_c, 0, 73, 100
2, 465120, Note_on_c, 0, 60, 100
2, 465360, Note_on_c, 0, 96, 0
2, 465360, Note_on_c, 0, 98, 0
2, 465360, Note_on_c, 0, 84, 0
2, 465360, Note_on_c, 0, 86, 0
2, 465360, Note_on_c, 0, 72, 0
2, 465360, Note_on_c, 0, 73, 0
2, 465360, Note_on_c, 0, 60, 0
2, 471330, Note_on_c, 0, 103, 100
2, 471330, Note_on_c, 0, 91, 100
2, 471330, Note_on_c, 0, 79, 100
2, 471330, Note_on_c, 0, 67, 100
2, 471840, Note_on_c, 0, 96, 100
2, 471840, Note_on_c, 0, 72, 100
2, 471840, Note_on_c, 0, 60, 100
2, 471840, Note_on_c, 0, 84, 100
2, 472080, Note_on_c, 0, 96, 0
2, 472080, Note_on_c, 0, 72, 0
2, 472080, Note_on_c, 0, 60, 0
2, 472080, Note_on_c, 0, 84, 0
2, 472080, Note_on_c, 0, 96, 100
2, 472080, Note_on_c, 0, 84, 100
2, 472320, Note_on_c, 0, 96, 0
2, 472320, Note_on_c, 0, 84, 0
2, 472320, Note_on_c, 0, 96, 100
2, 472320, Note_on_c, 0, 84, 100
2, 472320, Note_on_c, 0, 72, 100
2, 472320, Note_on_c, 0, 60, 100
2, 472560, Note_on_c, 0, 96, 0
2, 472560, Note_on_c, 0, 84, 0
2, 472560, Note_on_c, 0, 72, 0
2, 472560, Note_on_c, 0, 60, 0
2, 472800, Note_on_c, 0, 96, 100
2, 472800, Note_on_c, 0, 98, 100
2, 472800, Note_on_c, 0, 84, 100
2, 472800, Note_on_c, 0, 86, 100
2, 472800, Note_on_c, 0, 72, 100
2, 472800, Note_on_c, 0, 73, 100
2, 472800, Note_on_c, 0, 60, 100
2, 473010, Note_on_c, 0, 103, 0
2, 473010, Note_on_c, 0, 91, 0
2, 473010, Note_on_c, 0, 79, 0
2, 473010, Note_on_c, 0, 67, 0
2, 473040, Note_on_c, 0, 96, 0
2, 473040, Note_on_c, 0, 98, 0
2, 473040, Note_on_c, 0, 84, 0
2, 473040, Note_on_c, 0, 86, 0
2, 473040, Note_on_c, 0, 72, 0
2, 473040, Note_on_c, 0, 73, 0
2, 473040, Note_on_c, 0, 60, 0
2, 479518, Note_on_c, 0, 96, 100
2, 479518, Note_on_c, 0, 84, 100
2, 479518, Note_on_c, 0, 72, 100
2, 479518, Note_on_c, 0, 60, 100
2, 479758, Note_on_c, 0, 96, 0
2, 479758, Note_on_c, 0, 84, 0
2, 479758, Note_on_c, 0, 72, 0
2, 479758, Note_on_c, 0, 60, 0
2, 479758, Note_on_c, 0, 96, 100
2, 479760, Note_on_c, 0, 84, 100
2, 479998, Note_on_c, 0, 96, 0
2, 479998, Note_on_c, 0, 96, 100
2, 479998, Note_on_c, 0, 84, 100
2, 479998, Note_on_c, 0, 72, 100
2, 479998, Note_on_c, 0, 60, 100
2, 480000, Note_on_c, 0, 84, 0
2, 480238, Note_on_c, 0, 96, 0
2, 480238, Note_on_c, 0, 84, 0
2, 480238, Note_on_c, 0, 72, 0
2, 480238, Note_on_c, 0, 60, 0
2, 480478, Note_on_c, 0, 96, 100
2, 480478, Note_on_c, 0, 98, 100
2, 480478, Note_on_c, 0, 84, 100
2, 480478, Note_on_c, 0, 86, 100
2, 480478, Note_on_c, 0, 72, 100
2, 480478, Note_on_c, 0, 60, 100
2, 480480, Note_on_c, 0, 73, 100
2, 480718, Note_on_c, 0, 96, 0
2, 480718, Note_on_c, 0, 98, 0
2, 480718, Note_on_c, 0, 84, 0
2, 480718, Note_on_c, 0, 86, 0
2, 480718, Note_on_c, 0, 72, 0
2, 480718, Note_on_c, 0, 60, 0
2, 480720, Note_on_c, 0, 73, 0
2, 480930, Note_on_c, 0, 105, 0
2, 480930, Note_on_c, 0, 93, 0
2, 480930, Note_on_c, 0, 81, 0
2, 480930, Note_on_c, 0, 69, 0
2, 481438, Note_on_c, 0, 96, 100
2, 481438, Note_on_c, 0, 84, 100
2, 481438, Note_on_c, 0, 72, 100
2, 481438, Note_on_c, 0, 60, 100
2, 482398, Note_on_c, 0, 96, 0
2, 482398, Note_on_c, 0, 84, 0
2, 482398, Note_on_c, 0, 72, 0
2, 482398, Note_on_c, 0, 60, 0
2, 482398, Note_on_c, 0, 97, 100
2, 482398, Note_on_c, 0, 85, 100
2, 482398, Note_on_c, 0, 73, 100
2, 482398, Note_on_c, 0, 61, 100
2, 483118, Note_on_c, 0, 97, 0
2, 483118, Note_on_c, 0, 85, 0
2, 483118, Note_on_c, 0, 73, 0
2, 483118, Note_on_c, 0, 61, 0
2, 483358, Note_on_c, 0, 98, 100
2, 483358, Note_on_c, 0, 86, 100
2, 483360, Note_on_c, 0, 73, 100
2, 483598, Note_on_c, 0, 98, 0
2, 483598, Note_on_c, 0, 86, 0
2, 483600, Note_on_c, 0, 73, 0
2, 483838, Note_on_c, 0, 98, 100
2, 483838, Note_on_c, 0, 86, 100
2, 483840, Note_on_c, 0, 73, 100
2, 483840, Note_on_c, 0, 61, 100
2, 484078, Note_on_c, 0, 98, 0
2, 484078, Note_on_c, 0, 86, 0
2, 484080, Note_on_c, 0, 73, 0
2, 484080, Note_on_c, 0, 61, 0
2, 484318, Note_on_c, 0, 99, 100
2, 484318, Note_on_c, 0, 87, 100
2, 484320, Note_on_c, 0, 74, 100
2, 484558, Note_on_c, 0, 99, 0
2, 484558, Note_on_c, 0, 87, 0
2, 484560, Note_on_c, 0, 74, 0
2, 484798, Note_on_c, 0, 100, 100
2, 484798, Note_on_c, 0, 88, 100
2, 484800, Note_on_c, 0, 75, 100
2, 484800, Note_on_c, 0, 62, 100
2, 485038, Note_on_c, 0, 100, 0
2, 485038, Note_on_c, 0, 88, 0
2, 485040, Note_on_c, 0, 75, 0
2, 485040, Note_on_c, 0, 62, 0
2, 485278, Note_on_c, 0, 96, 100
2, 485278, Note_on_c, 0, 84, 100
2, 485278, Note_on_c, 0, 72, 100
2, 485278, Note_on_c, 0, 60, 100
2, 486718, Note_on_c, 0, 96, 0
2, 486718, Note_on_c, 0, 84, 0
2, 486718, Note_on_c, 0, 72, 0
2, 486718, Note_on_c, 0, 60, 0
2, 487170, Note_on_c, 0, 105, 100
2, 487170, Note_on_c, 0, 93, 100
2, 487170, Note_on_c, 0, 81, 100
2, 487170, Note_on_c, 0, 69, 100
2, 487198, Note_on_c, 0, 96, 100
2, 487198, Note_on_c, 0, 84, 100
2, 487198, Note_on_c, 0, 72, 100
2, 487198, Note_on_c, 0, 60, 100
2, 487438, Note_on_c, 0, 96, 0
2, 487438, Note_on_c, 0, 84, 0
2, 487438, Note_on_c, 0, 72, 0
2, 487438, Note_on_c, 0, 60, 0
2, 487438, Note_on_c, 0, 96, 100
2, 487440, Note_on_c, 0, 84, 100
2, 487678, Note_on_c, 0, 96, 0
2, 487678, Note_on_c, 0, 96, 100
2, 487678, Note_on_c, 0, 84, 100
2, 487678, Note_on_c, 0, 72, 100
2, 487678, Note_on_c, 0, 60, 100
2, 487680, Note_on_c, 0, 84, 0
2, 487918, Note_on_c, 0, 96, 0
2, 487918, Note_on_c, 0, 84, 0
2, 487918, Note_on_c, 0, 72, 0
2, 487918, Note_on_c, 0, 60, 0
2, 488158, Note_on_c, 0, 96, 100
2, 488158, Note_on_c, 0, 98, 100
2, 488158, Note_on_c, 0, 84, 100
2, 488158, Note_on_c, 0, 86, 100
2, 488158, Note_on_c, 0, 72, 100
2, 488158, Note_on_c, 0, 60, 100
2, 488160, Note_on_c, 0, 73, 100
2, 488398, Note_on_c, 0, 96, 0
2, 488398, Note_on_c, 0, 98, 0
2, 488398, Note_on_c, 0, 84, 0
2, 488398, Note_on_c, 0, 86, 0
2, 488398, Note_on_c, 0, 72, 0
2, 488398, Note_on_c, 0, 60, 0
2, 488400, Note_on_c, 0, 73, 0
2, 488610, Note_on_c, 0, 106, 0
2, 488610, Note_on_c, 0, 94, 0
2, 488610, Note_on_c, 0, 82, 0
2, 488610, Note_on_c, 0, 70, 0
2, 489118, Note_on_c, 0, 96, 100
2, 489118, Note_on_c, 0, 84, 100
2, 489118, Note_on_c, 0, 72, 100
2, 489118, Note_on_c, 0, 60, 100
2, 490078, Note_on_c, 0, 96, 0
2, 490078, Note_on_c, 0, 84, 0
2, 490078, Note_on_c, 0, 72, 0
2, 490078, Note_on_c, 0, 60, 0
2, 490078, Note_on_c, 0, 97, 100
2, 490078, Note_on_c, 0, 85, 100
2, 490078, Note_on_c, 0, 73, 100
2, 490078, Note_on_c, 0, 61, 100
2, 490798, Note_on_c, 0, 97, 0
2, 490798, Note_on_c, 0, 85, 0
2, 490798, Note_on_c, 0, 73, 0
2, 490798, Note_on_c, 0, 61, 0
2, 491038, Note_on_c, 0, 98, 100
2, 491038, Note_on_c, 0, 86, 100
2, 491040, Note_on_c, 0, 73, 100
2, 491278, Note_on_c, 0, 98, 0
2, 491278, Note_on_c, 0, 86, 0
2, 491280, Note_on_c, 0, 73, 0
2, 491518, Note_on_c, 0, 98, 100
2, 491518, Note_on_c, 0, 86, 100
2, 491520, Note_on_c, 0, 73, 100
2, 491520, Note_on_c, 0, 61, 100
2, 491758, Note_on_c, 0, 98, 0
2, 491758, Note_on_c, 0, 86, 0
2, 491760, Note_on_c, 0, 73, 0
2, 491760, Note_on_c, 0, 61, 0
2, 491998, Note_on_c, 0, 99, 100
2, 491998, Note_on_c, 0, 87, 100
2, 492000, Note_on_c, 0, 74, 100
2, 492238, Note_on_c, 0, 99, 0
2, 492238, Note_on_c, 0, 87, 0
2, 492240, Note_on_c, 0, 74, 0
2, 492478, Note_on_c, 0, 100, 100
2, 492478, Note_on_c, 0, 88, 100
2, 492480, Note_on_c, 0, 75, 100
2, 492480, Note_on_c, 0, 62, 100
2, 492718, Note_on_c, 0, 100, 0
2, 492718, Note_on_c, 0, 88, 0
2, 492720, Note_on_c, 0, 75, 0
2, 492720, Note_on_c, 0, 62, 0
2, 492958, Note_on_c, 0, 96, 100
2, 492958, Note_on_c, 0, 84, 100
2, 492958, Note_on_c, 0, 72, 100
2, 492958, Note_on_c, 0, 60, 100
2, 494398, Note_on_c, 0, 96, 0
2, 494398, Note_on_c, 0, 84, 0
2, 494398, Note_on_c, 0, 72, 0
2, 494398, Note_on_c, 0, 60, 0
2, 494850, Note_on_c, 0, 106, 100
2, 494850, Note_on_c, 0, 94, 100
2, 494850, Note_on_c, 0, 82, 100
2, 494850, Note_on_c, 0, 70, 100
2, 494878, Note_on_c, 0, 96, 100
2, 494878, Note_on_c, 0, 84, 100
2, 494878, Note_on_c, 0, 72, 100
2, 494878, Note_on_c, 0, 60, 100
2, 495118, Note_on_c, 0, 96, 0
2, 495118, Note_on_c, 0, 84, 0
2, 495118, Note_on_c, 0, 72, 0
2, 495118, Note_on_c, 0, 60, 0
2, 495118, Note_on_c, 0, 96, 100
2, 495120, Note_on_c, 0, 84, 100
2, 495358, Note_on_c, 0, 96, 0
2, 495358, Note_on_c, 0, 96, 100
2, 495358, Note_on_c, 0, 84, 100
2, 495358, Note_on_c, 0, 72, 100
2, 495358, Note_on_c, 0, 60, 100
2, 495360, Note_on_c, 0, 84, 0
2, 495598, Note_on_c, 0, 96, 0
2, 495598, Note_on_c, 0, 84, 0
2, 495598, Note_on_c, 0, 72, 0
2, 495598, Note_on_c, 0, 60, 0
2, 495838, Note_on_c, 0, 96, 100
2, 495838, Note_on_c, 0, 98, 100
2, 495838, Note_on_c, 0, 84, 100
2, 495838, Note_on_c, 0, 86, 100
2, 495838, Note_on_c, 0, 72, 100
2, 495838, Note_on_c, 0, 60, 100
2, 495840, Note_on_c, 0, 73, 100
2, 496078, Note_on_c, 0, 96, 0
2, 496078, Note_on_c, 0, 98, 0
2, 496078, Note_on_c, 0, 84, 0
2, 496078, Note_on_c, 0, 86, 0
2, 496078, Note_on_c, 0, 72, 0
2, 496078, Note_on_c, 0, 60, 0
2, 496080, Note_on_c, 0, 73, 0
2, 496290, Note_on_c, 0, 105, 0
2, 496290, Note_on_c, 0, 93, 0
2, 496290, Note_on_c, 0, 81, 0
2, 496290, Note_on_c, 0, 69, 0
2, 496798, Note_on_c, 0, 96, 100
2, 496798, Note_on_c, 0, 84, 100
2, 496798, Note_on_c, 0, 72, 100
2, 496798, Note_on_c, 0, 60, 100
2, 497758, Note_on_c, 0, 96, 0
2, 497758, Note_on_c, 0, 84, 0
2, 497758, Note_on_c, 0, 72, 0
2, 497758, Note_on_c, 0, 60, 0
2, 497758, Note_on_c, 0, 97, 100
2, 497758, Note_on_c, 0, 85, 100
2, 497758, Note_on_c, 0, 73, 100
2, 497758, Note_on_c, 0, 61, 100
2, 498480, Note_on_c, 0, 97, 0
2, 498480, Note_on_c, 0, 85, 0
2, 498480, Note_on_c, 0, 73, 0
2, 498480, Note_on_c, 0, 61, 0
2, 498720, Note_on_c, 0, 98, 100
2, 498720, Note_on_c, 0, 86, 100
2, 498720, Note_on_c, 0, 73, 100
2, 498960, Note_on_c, 0, 98, 0
2, 498960, Note_on_c, 0, 86, 0
2, 498960, Note_on_c, 0, 73, 0
2, 499198, Note_on_c, 0, 98, 100
2, 499198, Note_on_c, 0, 86, 100
2, 499198, Note_on_c, 0, 73, 100
2, 499198, Note_on_c, 0, 61, 100
2, 499438, Note_on_c, 0, 98, 0
2, 499438, Note_on_c, 0, 86, 0
2, 499438, Note_on_c, 0, 73, 0
2, 499438, Note_on_c, 0, 61, 0
2, 499678, Note_on_c, 0, 99, 100
2, 499678, Note_on_c, 0, 87, 100
2, 499678, Note_on_c, 0, 74, 100
2, 499918, Note_on_c, 0, 99, 0
2, 499918, Note_on_c, 0, 87, 0
2, 499918, Note_on_c, 0, 74, 0
2, 500158, Note_on_c, 0, 100, 100
2, 500158, Note_on_c, 0, 88, 100
2, 500158, Note_on_c, 0, 75, 100
2, 500160, Note_on_c, 0, 62, 100
2, 500398, Note_on_c, 0, 100, 0
2, 500398, Note_on_c, 0, 88, 0
2, 500398, Note_on_c, 0, 75, 0
2, 500400, Note_on_c, 0, 62, 0
2, 500640, Note_on_c, 0, 96, 100
2, 500640, Note_on_c, 0, 84, 100
2, 500640, Note_on_c, 0, 72, 100
2, 500640, Note_on_c, 0, 60, 100
2, 502080, Note_on_c, 0, 96, 0
2, 502080, Note_on_c, 0, 84, 0
2, 502080, Note_on_c, 0, 72, 0
2, 502080, Note_on_c, 0, 60, 0
2, 502530, Note_on_c, 0, 105, 100
2, 502530, Note_on_c, 0, 93, 100
2, 502530, Note_on_c, 0, 81, 100
2, 502530, Note_on_c, 0, 69, 100
2, 502560, Note_on_c, 0, 96, 100
2, 502560, Note_on_c, 0, 84, 100
2, 502560, Note_on_c, 0, 72, 100
2, 502560, Note_on_c, 0, 60, 100
2, 502800, Note_on_c, 0, 96, 0
2, 502800, Note_on_c, 0, 84, 0
2, 502800, Note_on_c, 0, 72, 0
2, 502800, Note_on_c, 0, 60, 0
2, 502800, Note_on_c, 0, 96, 100
2, 502800, Note_on_c, 0, 84, 100
2, 503040, Note_on_c, 0, 96, 0
2, 503040, Note_on_c, 0, 84, 0
2, 503040, Note_on_c, 0, 96, 100
2, 503040, Note_on_c, 0, 84, 100
2, 503040, Note_on_c, 0, 72, 100
2, 503040, Note_on_c, 0, 60, 100
2, 503280, Note_on_c, 0, 96, 0
2, 503280, Note_on_c, 0, 84, 0
2, 503280, Note_on_c, 0, 72, 0
2, 503280, Note_on_c, 0, 60, 0
2, 503520, Note_on_c, 0, 96, 100
2, 503520, Note_on_c, 0, 98, 100
2, 503520, Note_on_c, 0, 84, 100
2, 503520, Note_on_c, 0, 86, 100
2, 503520, Note_on_c, 0, 72, 100
2, 503520, Note_on_c, 0, 73, 100
2, 503520, Note_on_c, 0, 60, 100
2, 503760, Note_on_c, 0, 96, 0
2, 503760, Note_on_c, 0, 98, 0
2, 503760, Note_on_c, 0, 84, 0
2, 503760, Note_on_c, 0, 86, 0
2, 503760, Note_on_c, 0, 72, 0
2, 503760, Note_on_c, 0, 73, 0
2, 503760, Note_on_c, 0, 60, 0
2, 503970, Note_on_c, 0, 106, 0
2, 503970, Note_on_c, 0, 94, 0
2, 503970, Note_on_c, 0, 82, 0
2, 503970, Note_on_c, 0, 70, 0
2, 504480, Note_on_c, 0, 96, 100
2, 504480, Note_on_c, 0, 84, 100
2, 504480, Note_on_c, 0, 72, 100
2, 504480, Note_on_c, 0, 60, 100
2, 505440, Note_on_c, 0, 96, 0
2, 505440, Note_on_c, 0, 84, 0
2, 505440, Note_on_c, 0, 72, 0
2, 505440, Note_on_c, 0, 60, 0
2, 505440, Note_on_c, 0, 97, 100
2, 505440, Note_on_c, 0, 85, 100
2, 505440, Note_on_c, 0, 73, 100
2, 505440, Note_on_c, 0, 61, 100
2, 506160, Note_on_c, 0, 97, 0
2, 506160, Note_on_c, 0, 85, 0
2, 506160, Note_on_c, 0, 73, 0
2, 506160, Note_on_c, 0, 61, 0
2, 506400, Note_on_c, 0, 73, 100
2, 506400, Note_on_c, 0, 98, 100
2, 506400, Note_on_c, 0, 86, 100
2, 506640, Note_on_c, 0, 73, 0
2, 506640, Note_on_c, 0, 98, 0
2, 506640, Note_on_c, 0, 86, 0
2, 506878, Note_on_c, 0, 73, 100
2, 506878, Note_on_c, 0, 61, 100
2, 506880, Note_on_c, 0, 98, 100
2, 506880, Note_on_c, 0, 86, 100
2, 507118, Note_on_c, 0, 73, 0
2, 507118, Note_on_c, 0, 61, 0
2, 507120, Note_on_c, 0, 98, 0
2, 507120, Note_on_c, 0, 86, 0
2, 507358, Note_on_c, 0, 74, 100
2, 507360, Note_on_c, 0, 99, 100
2, 507360, Note_on_c, 0, 87, 100
2, 507598, Note_on_c, 0, 74, 0
2, 507600, Note_on_c, 0, 99, 0
2, 507600, Note_on_c, 0, 87, 0
2, 507838, Note_on_c, 0, 75, 100
2, 507838, Note_on_c, 0, 62, 100
2, 507840, Note_on_c, 0, 100, 100
2, 507840, Note_on_c, 0, 88, 100
2, 508078, Note_on_c, 0, 75, 0
2, 508078, Note_on_c, 0, 62, 0
2, 508080, Note_on_c, 0, 100, 0
2, 508080, Note_on_c, 0, 88, 0
2, 508320, Note_on_c, 0, 96, 100
2, 508320, Note_on_c, 0, 84, 100
2, 508320, Note_on_c, 0, 72, 100
2, 508320, Note_on_c, 0, 60, 100
2, 509760, Note_on_c, 0, 96, 0
2, 509760, Note_on_c, 0, 84, 0
2, 509760, Note_on_c, 0, 72, 0
2, 509760, Note_on_c, 0, 60, 0
2, 510210, Note_on_c, 0, 106, 100
2, 510210, Note_on_c, 0, 94, 100
2, 510210, Note_on_c, 0, 82, 100
2, 510210, Note_on_c, 0, 70, 100
2, 510240, Note_on_c, 0, 84, 100
2, 510240, Note_on_c, 0, 96, 100
2, 510240, Note_on_c, 0, 84, 100
2, 510240, Note_on_c, 0, 72, 100
2, 510240, Note_on_c, 0, 60, 100
2, 510480, Note_on_c, 0, 84, 0
2, 510480, Note_on_c, 0, 96, 0
2, 510480, Note_on_c, 0, 72, 0
2, 510480, Note_on_c, 0, 60, 0
2, 510480, Note_on_c, 0, 96, 100
2, 510560, Note_on_c, 0, 108, 100
2, 510720, Text_t, "[lighting (sweep)]"
2, 510720, Text_t, "[chorus]"
2, 510720, Text_t, "sing_on"
2, 510720, Note_on_c, 0, 84, 0
2, 510720, Note_on_c, 0, 96, 100
2, 510720, Note_on_c, 0, 84, 100
2, 510720, Note_on_c, 0, 72, 100
2, 510720, Note_on_c, 0, 60, 100
2, 510722, Note_on_c, 0, 96, 0
2, 510960, Note_on_c, 0, 96, 0
2, 510960, Note_on_c, 0, 84, 0
2, 510960, Note_on_c, 0, 72, 0
2, 510960, Note_on_c, 0, 60, 0
2, 511200, Note_on_c, 0, 96, 100
2, 511200, Note_on_c, 0, 98, 100
2, 511200, Note_on_c, 0, 84, 100
2, 511200, Note_on_c, 0, 86, 100
2, 511200, Note_on_c, 0, 72, 100
2, 511200, Note_on_c, 0, 73, 100
2, 511200, Note_on_c, 0, 61, 100
2, 511440, Note_on_c, 0, 96, 0
2, 511440, Note_on_c, 0, 98, 0
2, 511440, Note_on_c, 0, 84, 0
2, 511440, Note_on_c, 0, 86, 0
2, 511440, Note_on_c, 0, 72, 0
2, 511440, Note_on_c, 0, 73, 0
2, 511440, Note_on_c, 0, 61, 0
2, 511680, Note_on_c, 0, 98, 100
2, 511680, Note_on_c, 0, 96, 100
2, 511680, Note_on_c, 0, 86, 100
2, 511680, Note_on_c, 0, 84, 100
2, 511680, Note_on_c, 0, 72, 100
2, 511680, Note_on_c, 0, 73, 100
2, 511680, Note_on_c, 0, 61, 100
2, 511920, Note_on_c, 0, 98, 0
2, 511920, Note_on_c, 0, 96, 0
2, 511920, Note_on_c, 0, 86, 0
2, 511920, Note_on_c, 0, 84, 0
2, 511920, Note_on_c, 0, 72, 0
2, 511920, Note_on_c, 0, 73, 0
2, 511920, Note_on_c, 0, 61, 0
2, 512000, Note_on_c, 0, 108, 0
2, 512160, Note_on_c, 0, 96, 100
2, 512160, Note_on_c, 0, 97, 100
2, 512160, Note_on_c, 0, 84, 100
2, 512160, Note_on_c, 0, 85, 100
2, 512160, Note_on_c, 0, 72, 100
2, 512160, Note_on_c, 0, 108, 100
2, 512400, Note_on_c, 0, 96, 0
2, 512400, Note_on_c, 0, 97, 0
2, 512400, Note_on_c, 0, 84, 0
2, 512400, Note_on_c, 0, 85, 0
2, 512400, Note_on_c, 0, 72, 0
2, 512640, Note_on_c, 0, 96, 100
2, 512640, Note_on_c, 0, 97, 100
2, 512640, Note_on_c, 0, 84, 100
2, 512640, Note_on_c, 0, 85, 100
2, 512640, Note_on_c, 0, 72, 100
2, 512640, Note_on_c, 0, 60, 100
2, 512880, Note_on_c, 0, 96, 0
2, 512880, Note_on_c, 0, 97, 0
2, 512880, Note_on_c, 0, 84, 0
2, 512880, Note_on_c, 0, 85, 0
2, 512880, Note_on_c, 0, 72, 0
2, 512880, Note_on_c, 0, 60, 0
2, 512960, Note_on_c, 0, 108, 0
2, 513120, Note_on_c, 0, 97, 100
2, 513120, Note_on_c, 0, 98, 100
2, 513120, Note_on_c, 0, 85, 100
2, 513120, Note_on_c, 0, 86, 100
2, 513120, Note_on_c, 0, 73, 100
2, 513120, Note_on_c, 0, 61, 100
2, 513120, Note_on_c, 0, 108, 100
2, 513360, Note_on_c, 0, 97, 0
2, 513360, Note_on_c, 0, 98, 0
2, 513360, Note_on_c, 0, 85, 0
2, 513360, Note_on_c, 0, 86, 0
2, 513360, Note_on_c, 0, 73, 0
2, 513360, Note_on_c, 0, 61, 0
2, 513440, Note_on_c, 0, 108, 0
2, 513600, Note_on_c, 0, 97, 100
2, 513600, Note_on_c, 0, 98, 100
2, 513600, Note_on_c, 0, 85, 100
2, 513600, Note_on_c, 0, 86, 100
2, 513600, Note_on_c, 0, 73, 100
2, 513600, Note_on_c, 0, 61, 100
2, 513600, Note_on_c, 0, 108, 100
2, 513840, Note_on_c, 0, 97, 0
2, 513840, Note_on_c, 0, 98, 0
2, 513840, Note_on_c, 0, 85, 0
2, 513840, Note_on_c, 0, 86, 0
2, 513840, Note_on_c, 0, 73, 0
2, 513840, Note_on_c, 0, 61, 0
2, 514080, Note_on_c, 0, 98, 100
2, 514080, Note_on_c, 0, 86, 100
2, 514080, Note_on_c, 0, 73, 100
2, 514320, Note_on_c, 0, 98, 0
2, 514320, Note_on_c, 0, 86, 0
2, 514320, Note_on_c, 0, 73, 0
2, 514560, Note_on_c, 0, 98, 100
2, 514560, Note_on_c, 0, 96, 100
2, 514560, Note_on_c, 0, 86, 100
2, 514560, Note_on_c, 0, 73, 100
2, 514560, Note_on_c, 0, 61, 100
2, 514800, Note_on_c, 0, 98, 0
2, 514800, Note_on_c, 0, 96, 0
2, 514800, Note_on_c, 0, 86, 0
2, 514800, Note_on_c, 0, 73, 0
2, 514800, Note_on_c, 0, 61, 0
2, 515040, Note_on_c, 0, 99, 100
2, 515040, Note_on_c, 0, 97, 100
2, 515040, Note_on_c, 0, 87, 100
2, 515040, Note_on_c, 0, 74, 100
2, 515040, Note_on_c, 0, 62, 100
2, 515280, Note_on_c, 0, 99, 0
2, 515280, Note_on_c, 0, 97, 0
2, 515280, Note_on_c, 0, 87, 0
2, 515280, Note_on_c, 0, 74, 0
2, 515280, Note_on_c, 0, 62, 0
2, 515520, Note_on_c, 0, 100, 100
2, 515520, Note_on_c, 0, 98, 100
2, 515520, Note_on_c, 0, 88, 100
2, 515520, Note_on_c, 0, 75, 100
2, 515520, Note_on_c, 0, 62, 100
2, 515760, Note_on_c, 0, 100, 0
2, 515760, Note_on_c, 0, 98, 0
2, 515760, Note_on_c, 0, 88, 0
2, 515760, Note_on_c, 0, 75, 0
2, 515760, Note_on_c, 0, 62, 0
2, 516000, Note_on_c, 0, 96, 100
2, 516000, Note_on_c, 0, 97, 100
2, 516000, Note_on_c, 0, 84, 100
2, 516000, Note_on_c, 0, 85, 100
2, 516000, Note_on_c, 0, 72, 100
2, 516000, Note_on_c, 0, 60, 100
2, 516240, Note_on_c, 0, 96, 0
2, 516240, Note_on_c, 0, 97, 0
2, 516240, Note_on_c, 0, 84, 0
2, 516240, Note_on_c, 0, 85, 0
2, 516240, Note_on_c, 0, 72, 0
2, 516240, Note_on_c, 0, 60, 0
2, 516480, Note_on_c, 0, 96, 100
2, 516480, Note_on_c, 0, 97, 100
2, 516480, Note_on_c, 0, 84, 100
2, 516480, Note_on_c, 0, 85, 100
2, 516480, Note_on_c, 0, 72, 100
2, 516720, Note_on_c, 0, 96, 0
2, 516720, Note_on_c, 0, 97, 0
2, 516720, Note_on_c, 0, 84, 0
2, 516720, Note_on_c, 0, 85, 0
2, 516720, Note_on_c, 0, 72, 0
2, 516960, Note_on_c, 0, 96, 100
2, 516960, Note_on_c, 0, 97, 100
2, 516960, Note_on_c, 0, 84, 100
2, 516960, Note_on_c, 0, 85, 100
2, 516960, Note_on_c, 0, 72, 100
2, 517200, Note_on_c, 0, 96, 0
2, 517200, Note_on_c, 0, 97, 0
2, 517200, Note_on_c, 0, 84, 0
2, 517200, Note_on_c, 0, 85, 0
2, 517200, Note_on_c, 0, 72, 0
2, 517440, Note_on_c, 0, 96, 100
2, 517440, Note_on_c, 0, 97, 100
2, 517440, Note_on_c, 0, 84, 100
2, 517440, Note_on_c, 0, 85, 100
2, 517440, Note_on_c, 0, 72, 100
2, 517440, Note_on_c, 0, 60, 100
2, 517680, Note_on_c, 0, 96, 0
2, 517680, Note_on_c, 0, 97, 0
2, 517680, Note_on_c, 0, 84, 0
2, 517680, Note_on_c, 0, 85, 0
2, 517680, Note_on_c, 0, 72, 0
2, 517680, Note_on_c, 0, 60, 0
2, 517920, Note_on_c, 0, 108, 0
2, 517920, Note_on_c, 0, 96, 100
2, 517920, Note_on_c, 0, 97, 100
2, 517920, Note_on_c, 0, 84, 100
2, 517920, Note_on_c, 0, 85, 100
2, 517920, Note_on_c, 0, 72, 100
2, 518160, Note_on_c, 0, 96, 0
2, 518160, Note_on_c, 0, 97, 0
2, 518160, Note_on_c, 0, 84, 0
2, 518160, Note_on_c, 0, 85, 0
2, 518160, Note_on_c, 0, 72, 0
2, 518400, Note_on_c, 0, 96, 100
2, 518400, Note_on_c, 0, 97, 100
2, 518400, Note_on_c, 0, 84, 100
2, 518400, Note_on_c, 0, 85, 100
2, 518400, Note_on_c, 0, 72, 100
2, 518400, Note_on_c, 0, 60, 100
2, 518400, Note_on_c, 0, 108, 100
2, 518640, Note_on_c, 0, 96, 0
2, 518640, Note_on_c, 0, 97, 0
2, 518640, Note_on_c, 0, 84, 0
2, 518640, Note_on_c, 0, 85, 0
2, 518640, Note_on_c, 0, 72, 0
2, 518640, Note_on_c, 0, 60, 0
2, 518880, Note_on_c, 0, 96, 100
2, 518880, Note_on_c, 0, 98, 100
2, 518880, Note_on_c, 0, 84, 100
2, 518880, Note_on_c, 0, 86, 100
2, 518880, Note_on_c, 0, 72, 100
2, 518880, Note_on_c, 0, 73, 100
2, 518880, Note_on_c, 0, 61, 100
2, 519120, Note_on_c, 0, 96, 0
2, 519120, Note_on_c, 0, 98, 0
2, 519120, Note_on_c, 0, 84, 0
2, 519120, Note_on_c, 0, 86, 0
2, 519120, Note_on_c, 0, 72, 0
2, 519120, Note_on_c, 0, 73, 0
2, 519120, Note_on_c, 0, 61, 0
2, 519360, Note_on_c, 0, 98, 100
2, 519360, Note_on_c, 0, 96, 100
2, 519360, Note_on_c, 0, 86, 100
2, 519360, Note_on_c, 0, 84, 100
2, 519360, Note_on_c, 0, 72, 100
2, 519360, Note_on_c, 0, 73, 100
2, 519360, Note_on_c, 0, 61, 100
2, 519600, Note_on_c, 0, 98, 0
2, 519600, Note_on_c, 0, 96, 0
2, 519600, Note_on_c, 0, 86, 0
2, 519600, Note_on_c, 0, 84, 0
2, 519600, Note_on_c, 0, 72, 0
2, 519600, Note_on_c, 0, 73, 0
2, 519600, Note_on_c, 0, 61, 0
2, 519680, Note_on_c, 0, 108, 0
2, 519840, Note_on_c, 0, 96, 100
2, 519840, Note_on_c, 0, 97, 100
2, 519840, Note_on_c, 0, 84, 100
2, 519840, Note_on_c, 0, 85, 100
2, 519840, Note_on_c, 0, 72, 100
2, 519840, Note_on_c, 0, 108, 100
2, 520080, Note_on_c, 0, 96, 0
2, 520080, Note_on_c, 0, 97, 0
2, 520080, Note_on_c, 0, 84, 0
2, 520080, Note_on_c, 0, 85, 0
2, 520080, Note_on_c, 0, 72, 0
2, 520320, Note_on_c, 0, 96, 100
2, 520320, Note_on_c, 0, 97, 100
2, 520320, Note_on_c, 0, 84, 100
2, 520320, Note_on_c, 0, 85, 100
2, 520320, Note_on_c, 0, 72, 100
2, 520320, Note_on_c, 0, 60, 100
2, 520560, Note_on_c, 0, 96, 0
2, 520560, Note_on_c, 0, 97, 0
2, 520560, Note_on_c, 0, 84, 0
2, 520560, Note_on_c, 0, 85, 0
2, 520560, Note_on_c, 0, 72, 0
2, 520560, Note_on_c, 0, 60, 0
2, 520640, Note_on_c, 0, 108, 0
2, 520800, Note_on_c, 0, 97, 100
2, 520800, Note_on_c, 0, 98, 100
2, 520800, Note_on_c, 0, 85, 100
2, 520800, Note_on_c, 0, 86, 100
2, 520800, Note_on_c, 0, 73, 100
2, 520800, Note_on_c, 0, 61, 100
2, 520800, Note_on_c, 0, 108, 100
2, 521040, Note_on_c, 0, 97, 0
2, 521040, Note_on_c, 0, 98, 0
2, 521040, Note_on_c, 0, 85, 0
2, 521040, Note_on_c, 0, 86, 0
2, 521040, Note_on_c, 0, 73, 0
2, 521040, Note_on_c, 0, 61, 0
2, 521120, Note_on_c, 0, 108, 0
2, 521280, Note_on_c, 0, 97, 100
2, 521280, Note_on_c, 0, 98, 100
2, 521280, Note_on_c, 0, 85, 100
2, 521280, Note_on_c, 0, 86, 100
2, 521280, Note_on_c, 0, 73, 100
2, 521280, Note_on_c, 0, 61, 100
2, 521280, Note_on_c, 0, 108, 100
2, 521520, Note_on_c, 0, 97, 0
2, 521520, Note_on_c, 0, 98, 0
2, 521520, Note_on_c, 0, 85, 0
2, 521520, Note_on_c, 0, 86, 0
2, 521520, Note_on_c, 0, 73, 0
2, 521520, Note_on_c, 0, 61, 0
2, 521760, Note_on_c, 0, 98, 100
2, 521760, Note_on_c, 0, 86, 100
2, 521760, Note_on_c, 0, 73, 100
2, 522000, Note_on_c, 0, 98, 0
2, 522000, Note_on_c, 0, 86, 0
2, 522000, Note_on_c, 0, 73, 0
2, 522240, Note_on_c, 0, 98, 100
2, 522240, Note_on_c, 0, 96, 100
2, 522240, Note_on_c, 0, 86, 100
2, 522240, Note_on_c, 0, 73, 100
2, 522240, Note_on_c, 0, 61, 100
2, 522480, Note_on_c, 0, 98, 0
2, 522480, Note_on_c, 0, 96, 0
2, 522480, Note_on_c, 0, 86, 0
2, 522480, Note_on_c, 0, 73, 0
2, 522480, Note_on_c, 0, 61, 0
2, 522720, Note_on_c, 0, 99, 100
2, 522720, Note_on_c, 0, 97, 100
2, 522720, Note_on_c, 0, 87, 100
2, 522720, Note_on_c, 0, 74, 100
2, 522720, Note_on_c, 0, 62, 100
2, 522960, Note_on_c, 0, 99, 0
2, 522960, Note_on_c, 0, 97, 0
2, 522960, Note_on_c, 0, 87, 0
2, 522960, Note_on_c, 0, 74, 0
2, 522960, Note_on_c, 0, 62, 0
2, 523200, Note_on_c, 0, 100, 100
2, 523200, Note_on_c, 0, 98, 100
2, 523200, Note_on_c, 0, 88, 100
2, 523200, Note_on_c, 0, 75, 100
2, 523200, Note_on_c, 0, 62, 100
2, 523440, Note_on_c, 0, 100, 0
2, 523440, Note_on_c, 0, 98, 0
2, 523440, Note_on_c, 0, 88, 0
2, 523440, Note_on_c, 0, 75, 0
2, 523440, Note_on_c, 0, 62, 0
2, 523680, Note_on_c, 0, 96, 100
2, 523680, Note_on_c, 0, 97, 100
2, 523680, Note_on_c, 0, 84, 100
2, 523680, Note_on_c, 0, 85, 100
2, 523680, Note_on_c, 0, 72, 100
2, 523680, Note_on_c, 0, 60, 100
2, 523920, Note_on_c, 0, 96, 0
2, 523920, Note_on_c, 0, 97, 0
2, 523920, Note_on_c, 0, 84, 0
2, 523920, Note_on_c, 0, 85, 0
2, 523920, Note_on_c, 0, 72, 0
2, 523920, Note_on_c, 0, 60, 0
2, 524160, Note_on_c, 0, 96, 100
2, 524160, Note_on_c, 0, 97, 100
2, 524160, Note_on_c, 0, 84, 100
2, 524160, Note_on_c, 0, 85, 100
2, 524160, Note_on_c, 0, 72, 100
2, 524400, Note_on_c, 0, 96, 0
2, 524400, Note_on_c, 0, 97, 0
2, 524400, Note_on_c, 0, 84, 0
2, 524400, Note_on_c, 0, 85, 0
2, 524400, Note_on_c, 0, 72, 0
2, 524640, Note_on_c, 0, 96, 100
2, 524640, Note_on_c, 0, 97, 100
2, 524640, Note_on_c, 0, 84, 100
2, 524640, Note_on_c, 0, 85, 100
2, 524640, Note_on_c, 0, 72, 100
2, 524880, Note_on_c, 0, 96, 0
2, 524880, Note_on_c, 0, 97, 0
2, 524880, Note_on_c, 0, 84, 0
2, 524880, Note_on_c, 0, 85, 0
2, 524880, Note_on_c, 0, 72, 0
2, 525120, Note_on_c, 0, 96, 100
2, 525120, Note_on_c, 0, 97, 100
2, 525120, Note_on_c, 0, 84, 100
2, 525120, Note_on_c, 0, 85, 100
2, 525120, Note_on_c, 0, 72, 100
2, 525120, Note_on_c, 0, 60, 100
2, 525360, Note_on_c, 0, 96, 0
2, 525360, Note_on_c, 0, 97, 0
2, 525360, Note_on_c, 0, 84, 0
2, 525360, Note_on_c, 0, 85, 0
2, 525360, Note_on_c, 0, 72, 0
2, 525360, Note_on_c, 0, 60, 0
2, 525600, Note_on_c, 0, 108, 0
2, 525600, Note_on_c, 0, 96, 100
2, 525600, Note_on_c, 0, 97, 100
2, 525600, Note_on_c, 0, 84, 100
2, 525600, Note_on_c, 0, 85, 100
2, 525600, Note_on_c, 0, 72, 100
2, 525840, Note_on_c, 0, 96, 0
2, 525840, Note_on_c, 0, 97, 0
2, 525840, Note_on_c, 0, 84, 0
2, 525840, Note_on_c, 0, 85, 0
2, 525840, Note_on_c, 0, 72, 0
2, 526080, Note_on_c, 0, 96, 100
2, 526080, Note_on_c, 0, 97, 100
2, 526080, Note_on_c, 0, 84, 100
2, 526080, Note_on_c, 0, 85, 100
2, 526080, Note_on_c, 0, 72, 100
2, 526080, Note_on_c, 0, 60, 100
2, 526080, Note_on_c, 0, 108, 100
2, 526320, Note_on_c, 0, 96, 0
2, 526320, Note_on_c, 0, 97, 0
2, 526320, Note_on_c, 0, 84, 0
2, 526320, Note_on_c, 0, 85, 0
2, 526320, Note_on_c, 0, 72, 0
2, 526320, Note_on_c, 0, 60, 0
2, 526560, Note_on_c, 0, 96, 100
2, 526560, Note_on_c, 0, 98, 100
2, 526560, Note_on_c, 0, 84, 100
2, 526560, Note_on_c, 0, 86, 100
2, 526560, Note_on_c, 0, 72, 100
2, 526560, Note_on_c, 0, 73, 100
2, 526560, Note_on_c, 0, 61, 100
2, 526800, Note_on_c, 0, 96, 0
2, 526800, Note_on_c, 0, 98, 0
2, 526800, Note_on_c, 0, 84, 0
2, 526800, Note_on_c, 0, 86, 0
2, 526800, Note_on_c, 0, 72, 0
2, 526800, Note_on_c, 0, 73, 0
2, 526800, Note_on_c, 0, 61, 0
2, 527040, Note_on_c, 0, 98, 100
2, 527040, Note_on_c, 0, 96, 100
2, 527040, Note_on_c, 0, 86, 100
2, 527040, Note_on_c, 0, 84, 100
2, 527040, Note_on_c, 0, 72, 100
2, 527040, Note_on_c, 0, 73, 100
2, 527040, Note_on_c, 0, 61, 100
2, 527280, Note_on_c, 0, 98, 0
2, 527280, Note_on_c, 0, 96, 0
2, 527280, Note_on_c, 0, 86, 0
2, 527280, Note_on_c, 0, 84, 0
2, 527280, Note_on_c, 0, 72, 0
2, 527280, Note_on_c, 0, 73, 0
2, 527280, Note_on_c, 0, 61, 0
2, 527360, Note_on_c, 0, 108, 0
2, 527520, Note_on_c, 0, 96, 100
2, 527520, Note_on_c, 0, 97, 100
2, 527520, Note_on_c, 0, 84, 100
2, 527520, Note_on_c, 0, 85, 100
2, 527520, Note_on_c, 0, 72, 100
2, 527520, Note_on_c, 0, 108, 100
2, 527760, Note_on_c, 0, 96, 0
2, 527760, Note_on_c, 0, 97, 0
2, 527760, Note_on_c, 0, 84, 0
2, 527760, Note_on_c, 0, 85, 0
2, 527760, Note_on_c, 0, 72, 0
2, 528000, Note_on_c, 0, 96, 100
2, 528000, Note_on_c, 0, 97, 100
2, 528000, Note_on_c, 0, 84, 100
2, 528000, Note_on_c, 0, 85, 100
2, 528000, Note_on_c, 0, 72, 100
2, 528000, Note_on_c, 0, 60, 100
2, 528240, Note_on_c, 0, 96, 0
2, 528240, Note_on_c, 0, 97, 0
2, 528240, Note_on_c, 0, 84, 0
2, 528240, Note_on_c, 0, 85, 0
2, 528240, Note_on_c, 0, 72, 0
2, 528240, Note_on_c, 0, 60, 0
2, 528320, Note_on_c, 0, 108, 0
2, 528480, Note_on_c, 0, 97, 100
2, 528480, Note_on_c, 0, 98, 100
2, 528480, Note_on_c, 0, 85, 100
2, 528480, Note_on_c, 0, 86, 100
2, 528480, Note_on_c, 0, 73, 100
2, 528480, Note_on_c, 0, 61, 100
2, 528480, Note_on_c, 0, 108, 100
2, 528720, Note_on_c, 0, 97, 0
2, 528720, Note_on_c, 0, 98, 0
2, 528720, Note_on_c, 0, 85, 0
2, 528720, Note_on_c, 0, 86, 0
2, 528720, Note_on_c, 0, 73, 0
2, 528720, Note_on_c, 0, 61, 0
2, 528800, Note_on_c, 0, 108, 0
2, 528960, Note_on_c, 0, 97, 100
2, 528960, Note_on_c, 0, 98, 100
2, 528960, Note_on_c, 0, 85, 100
2, 528960, Note_on_c, 0, 86, 100
2, 528960, Note_on_c, 0, 73, 100
2, 528960, Note_on_c, 0, 61, 100
2, 528960, Note_on_c, 0, 108, 100
2, 529200, Note_on_c, 0, 97, 0
2, 529200, Note_on_c, 0, 98, 0
2, 529200, Note_on_c, 0, 85, 0
2, 529200, Note_on_c, 0, 86, 0
2, 529200, Note_on_c, 0, 73, 0
2, 529200, Note_on_c, 0, 61, 0
2, 529440, Note_on_c, 0, 98, 100
2, 529440, Note_on_c, 0, 86, 100
2, 529440, Note_on_c, 0, 73, 100
2, 529680, Note_on_c, 0, 98, 0
2, 529680, Note_on_c, 0, 86, 0
2, 529680, Note_on_c, 0, 73, 0
2, 529920, Note_on_c, 0, 98, 100
2, 529920, Note_on_c, 0, 96, 100
2, 529920, Note_on_c, 0, 86, 100
2, 529920, Note_on_c, 0, 73, 100
2, 529920, Note_on_c, 0, 61, 100
2, 530160, Note_on_c, 0, 98, 0
2, 530160, Note_on_c, 0, 96, 0
2, 530160, Note_on_c, 0, 86, 0
2, 530160, Note_on_c, 0, 73, 0
2, 530160, Note_on_c, 0, 61, 0
2, 530400, Note_on_c, 0, 99, 100
2, 530400, Note_on_c, 0, 97, 100
2, 530400, Note_on_c, 0, 87, 100
2, 530400, Note_on_c, 0, 74, 100
2, 530400, Note_on_c, 0, 62, 100
2, 530640, Note_on_c, 0, 99, 0
2, 530640, Note_on_c, 0, 97, 0
2, 530640, Note_on_c, 0, 87, 0
2, 530640, Note_on_c, 0, 74, 0
2, 530640, Note_on_c, 0, 62, 0
2, 530880, Note_on_c, 0, 100, 100
2, 530880, Note_on_c, 0, 98, 100
2, 530880, Note_on_c, 0, 88, 100
2, 530880, Note_on_c, 0, 75, 100
2, 530880, Note_on_c, 0, 62, 100
2, 531120, Note_on_c, 0, 100, 0
2, 531120, Note_on_c, 0, 98, 0
2, 531120, Note_on_c, 0, 88, 0
2, 531120, Note_on_c, 0, 75, 0
2, 531120, Note_on_c, 0, 62, 0
2, 531360, Note_on_c, 0, 96, 100
2, 531360, Note_on_c, 0, 97, 100
2, 531360, Note_on_c, 0, 84, 100
2, 531360, Note_on_c, 0, 85, 100
2, 531360, Note_on_c, 0, 72, 100
2, 531360, Note_on_c, 0, 60, 100
2, 531600, Note_on_c, 0, 96, 0
2, 531600, Note_on_c, 0, 97, 0
2, 531600, Note_on_c, 0, 84, 0
2, 531600, Note_on_c, 0, 85, 0
2, 531600, Note_on_c, 0, 72, 0
2, 531600, Note_on_c, 0, 60, 0
2, 531840, Note_on_c, 0, 96, 100
2, 531840, Note_on_c, 0, 97, 100
2, 531840, Note_on_c, 0, 84, 100
2, 531840, Note_on_c, 0, 85, 100
2, 531840, Note_on_c, 0, 72, 100
2, 532080, Note_on_c, 0, 96, 0
2, 532080, Note_on_c, 0, 97, 0
2, 532080, Note_on_c, 0, 84, 0
2, 532080, Note_on_c, 0, 85, 0
2, 532080, Note_on_c, 0, 72, 0
2, 532320, Note_on_c, 0, 96, 100
2, 532320, Note_on_c, 0, 97, 100
2, 532320, Note_on_c, 0, 84, 100
2, 532320, Note_on_c, 0, 85, 100
2, 532320, Note_on_c, 0, 72, 100
2, 532560, Note_on_c, 0, 96, 0
2, 532560, Note_on_c, 0, 97, 0
2, 532560, Note_on_c, 0, 84, 0
2, 532560, Note_on_c, 0, 85, 0
2, 532560, Note_on_c, 0, 72, 0
2, 532800, Note_on_c, 0, 96, 100
2, 532800, Note_on_c, 0, 97, 100
2, 532800, Note_on_c, 0, 84, 100
2, 532800, Note_on_c, 0, 85, 100
2, 532800, Note_on_c, 0, 72, 100
2, 532800, Note_on_c, 0, 60, 100
2, 533040, Note_on_c, 0, 96, 0
2, 533040, Note_on_c, 0, 97, 0
2, 533040, Note_on_c, 0, 84, 0
2, 533040, Note_on_c, 0, 85, 0
2, 533040, Note_on_c, 0, 72, 0
2, 533040, Note_on_c, 0, 60, 0
2, 533280, Note_on_c, 0, 108, 0
2, 533280, Note_on_c, 0, 96, 100
2, 533280, Note_on_c, 0, 97, 100
2, 533280, Note_on_c, 0, 84, 100
2, 533280, Note_on_c, 0, 85, 100
2, 533280, Note_on_c, 0, 72, 100
2, 533520, Note_on_c, 0, 96, 0
2, 533520, Note_on_c, 0, 97, 0
2, 533520, Note_on_c, 0, 84, 0
2, 533520, Note_on_c, 0, 85, 0
2, 533520, Note_on_c, 0, 72, 0
2, 533760, Note_on_c, 0, 96, 100
2, 533760, Note_on_c, 0, 97, 100
2, 533760, Note_on_c, 0, 84, 100
2, 533760, Note_on_c, 0, 85, 100
2, 533760, Note_on_c, 0, 72, 100
2, 533760, Note_on_c, 0, 60, 100
2, 533760, Note_on_c, 0, 108, 100
2, 534000, Note_on_c, 0, 96, 0
2, 534000, Note_on_c, 0, 97, 0
2, 534000, Note_on_c, 0, 84, 0
2, 534000, Note_on_c, 0, 85, 0
2, 534000, Note_on_c, 0, 72, 0
2, 534000, Note_on_c, 0, 60, 0
2, 534240, Note_on_c, 0, 96, 100
2, 534240, Note_on_c, 0, 98, 100
2, 534240, Note_on_c, 0, 84, 100
2, 534240, Note_on_c, 0, 86, 100
2, 534240, Note_on_c, 0, 72, 100
2, 534240, Note_on_c, 0, 73, 100
2, 534240, Note_on_c, 0, 61, 100
2, 534480, Note_on_c, 0, 96, 0
2, 534480, Note_on_c, 0, 98, 0
2, 534480, Note_on_c, 0, 84, 0
2, 534480, Note_on_c, 0, 86, 0
2, 534480, Note_on_c, 0, 72, 0
2, 534480, Note_on_c, 0, 73, 0
2, 534480, Note_on_c, 0, 61, 0
2, 534720, Note_on_c, 0, 98, 100
2, 534720, Note_on_c, 0, 96, 100
2, 534720, Note_on_c, 0, 86, 100
2, 534720, Note_on_c, 0, 84, 100
2, 534720, Note_on_c, 0, 72, 100
2, 534720, Note_on_c, 0, 73, 100
2, 534720, Note_on_c, 0, 61, 100
2, 534960, Note_on_c, 0, 98, 0
2, 534960, Note_on_c, 0, 96, 0
2, 534960, Note_on_c, 0, 86, 0
2, 534960, Note_on_c, 0, 84, 0
2, 534960, Note_on_c, 0, 72, 0
2, 534960, Note_on_c, 0, 73, 0
2, 534960, Note_on_c, 0, 61, 0
2, 535040, Note_on_c, 0, 108, 0
2, 535200, Note_on_c, 0, 96, 100
2, 535200, Note_on_c, 0, 97, 100
2, 535200, Note_on_c, 0, 84, 100
2, 535200, Note_on_c, 0, 85, 100
2, 535200, Note_on_c, 0, 72, 100
2, 535200, Note_on_c, 0, 60, 100
2, 535200, Note_on_c, 0, 108, 100
2, 535440, Note_on_c, 0, 96, 0
2, 535440, Note_on_c, 0, 97, 0
2, 535440, Note_on_c, 0, 84, 0
2, 535440, Note_on_c, 0, 85, 0
2, 535440, Note_on_c, 0, 72, 0
2, 535440, Note_on_c, 0, 60, 0
2, 535680, Note_on_c, 0, 96, 100
2, 535680, Note_on_c, 0, 97, 100
2, 535680, Note_on_c, 0, 84, 100
2, 535680, Note_on_c, 0, 85, 100
2, 535680, Note_on_c, 0, 72, 100
2, 535680, Note_on_c, 0, 60, 100
2, 535920, Note_on_c, 0, 96, 0
2, 535920, Note_on_c, 0, 97, 0
2, 535920, Note_on_c, 0, 84, 0
2, 535920, Note_on_c, 0, 85, 0
2, 535920, Note_on_c, 0, 72, 0
2, 535920, Note_on_c, 0, 60, 0
2, 536000, Note_on_c, 0, 108, 0
2, 536160, Note_on_c, 0, 97, 100
2, 536160, Note_on_c, 0, 98, 100
2, 536160, Note_on_c, 0, 85, 100
2, 536160, Note_on_c, 0, 86, 100
2, 536160, Note_on_c, 0, 73, 100
2, 536160, Note_on_c, 0, 61, 100
2, 536160, Note_on_c, 0, 108, 100
2, 536400, Note_on_c, 0, 97, 0
2, 536400, Note_on_c, 0, 98, 0
2, 536400, Note_on_c, 0, 85, 0
2, 536400, Note_on_c, 0, 86, 0
2, 536400, Note_on_c, 0, 73, 0
2, 536400, Note_on_c, 0, 61, 0
2, 536480, Note_on_c, 0, 108, 0
2, 536640, Note_on_c, 0, 97, 100
2, 536640, Note_on_c, 0, 98, 100
2, 536640, Note_on_c, 0, 85, 100
2, 536640, Note_on_c, 0, 86, 100
2, 536640, Note_on_c, 0, 73, 100
2, 536640, Note_on_c, 0, 61, 100
2, 536640, Note_on_c, 0, 108, 100
2, 536880, Note_on_c, 0, 97, 0
2, 536880, Note_on_c, 0, 98, 0
2, 536880, Note_on_c, 0, 85, 0
2, 536880, Note_on_c, 0, 86, 0
2, 536880, Note_on_c, 0, 73, 0
2, 536880, Note_on_c, 0, 61, 0
2, 537120, Note_on_c, 0, 98, 100
2, 537120, Note_on_c, 0, 86, 100
2, 537120, Note_on_c, 0, 73, 100
2, 537360, Note_on_c, 0, 98, 0
2, 537360, Note_on_c, 0, 86, 0
2, 537360, Note_on_c, 0, 73, 0
2, 537600, Note_on_c, 0, 98, 100
2, 537600, Note_on_c, 0, 96, 100
2, 537600, Note_on_c, 0, 86, 100
2, 537600, Note_on_c, 0, 73, 100
2, 537600, Note_on_c, 0, 61, 100
2, 537840, Note_on_c, 0, 98, 0
2, 537840, Note_on_c, 0, 96, 0
2, 537840, Note_on_c, 0, 86, 0
2, 537840, Note_on_c, 0, 73, 0
2, 537840, Note_on_c, 0, 61, 0
2, 538080, Note_on_c, 0, 99, 100
2, 538080, Note_on_c, 0, 97, 100
2, 538080, Note_on_c, 0, 87, 100
2, 538080, Note_on_c, 0, 74, 100
2, 538080, Note_on_c, 0, 62, 100
2, 538320, Note_on_c, 0, 99, 0
2, 538320, Note_on_c, 0, 97, 0
2, 538320, Note_on_c, 0, 87, 0
2, 538320, Note_on_c, 0, 74, 0
2, 538320, Note_on_c, 0, 62, 0
2, 538560, Note_on_c, 0, 100, 100
2, 538560, Note_on_c, 0, 98, 100
2, 538560, Note_on_c, 0, 88, 100
2, 538560, Note_on_c, 0, 75, 100
2, 538560, Note_on_c, 0, 62, 100
2, 538800, Note_on_c, 0, 100, 0
2, 538800, Note_on_c, 0, 98, 0
2, 538800, Note_on_c, 0, 88, 0
2, 538800, Note_on_c, 0, 75, 0
2, 538800, Note_on_c, 0, 62, 0
2, 539040, Note_on_c, 0, 96, 100
2, 539040, Note_on_c, 0, 97, 100
2, 539040, Note_on_c, 0, 84, 100
2, 539040, Note_on_c, 0, 85, 100
2, 539040, Note_on_c, 0, 72, 100
2, 539040, Note_on_c, 0, 60, 100
2, 539280, Note_on_c, 0, 96, 0
2, 539280, Note_on_c, 0, 97, 0
2, 539280, Note_on_c, 0, 84, 0
2, 539280, Note_on_c, 0, 85, 0
2, 539280, Note_on_c, 0, 72, 0
2, 539280, Note_on_c, 0, 60, 0
2, 539520, Note_on_c, 0, 96, 100
2, 539520, Note_on_c, 0, 97, 100
2, 539520, Note_on_c, 0, 84, 100
2, 539520, Note_on_c, 0, 85, 100
2, 539520, Note_on_c, 0, 72, 100
2, 539760, Note_on_c, 0, 96, 0
2, 539760, Note_on_c, 0, 97, 0
2, 539760, Note_on_c, 0, 84, 0
2, 539760, Note_on_c, 0, 85, 0
2, 539760, Note_on_c, 0, 72, 0
2, 540000, Note_on_c, 0, 96, 100
2, 540000, Note_on_c, 0, 97, 100
2, 540000, Note_on_c, 0, 84, 100
2, 540000, Note_on_c, 0, 85, 100
2, 540000, Note_on_c, 0, 72, 100
2, 540240, Note_on_c, 0, 96, 0
2, 540240, Note_on_c, 0, 97, 0
2, 540240, Note_on_c, 0, 84, 0
2, 540240, Note_on_c, 0, 85, 0
2, 540240, Note_on_c, 0, 72, 0
2, 540480, Note_on_c, 0, 96, 100
2, 540480, Note_on_c, 0, 97, 100
2, 540480, Note_on_c, 0, 84, 100
2, 540480, Note_on_c, 0, 85, 100
2, 540480, Note_on_c, 0, 72, 100
2, 540480, Note_on_c, 0, 60, 100
2, 540720, Note_on_c, 0, 96, 0
2, 540720, Note_on_c, 0, 97, 0
2, 540720, Note_on_c, 0, 84, 0
2, 540720, Note_on_c, 0, 85, 0
2, 540720, Note_on_c, 0, 72, 0
2, 540720, Note_on_c, 0, 60, 0
2, 540800, Note_on_c, 0, 108, 0
2, 540960, Note_on_c, 0, 96, 100
2, 540960, Note_on_c, 0, 97, 100
2, 540960, Note_on_c, 0, 84, 100
2, 540960, Note_on_c, 0, 85, 100
2, 540960, Note_on_c, 0, 72, 100
2, 541200, Note_on_c, 0, 96, 0
2, 541200, Note_on_c, 0, 97, 0
2, 541200, Note_on_c, 0, 84, 0
2, 541200, Note_on_c, 0, 85, 0
2, 541200, Note_on_c, 0, 72, 0
2, 541410, Note_on_c, 0, 105, 0
2, 541410, Note_on_c, 0, 93, 0
2, 541410, Note_on_c, 0, 81, 0
2, 541410, Note_on_c, 0, 69, 0
2, 541440, Text_t, "sing_off"
2, 541440, Note_on_c, 0, 96, 100
2, 541440, Note_on_c, 0, 84, 100
2, 541440, Note_on_c, 0, 72, 100
2, 541440, Note_on_c, 0, 60, 100
2, 541680, Note_on_c, 0, 96, 0
2, 541680, Note_on_c, 0, 84, 0
2, 541680, Note_on_c, 0, 72, 0
2, 541680, Note_on_c, 0, 60, 0
2, 541920, Note_on_c, 0, 98, 100
2, 541920, Note_on_c, 0, 86, 100
2, 541920, Note_on_c, 0, 73, 100
2, 541920, Note_on_c, 0, 61, 100
2, 542160, Note_on_c, 0, 98, 0
2, 542160, Note_on_c, 0, 86, 0
2, 542160, Note_on_c, 0, 73, 0
2, 542160, Note_on_c, 0, 61, 0
2, 542400, Note_on_c, 0, 98, 100
2, 542400, Note_on_c, 0, 86, 100
2, 542400, Note_on_c, 0, 73, 100
2, 542400, Note_on_c, 0, 61, 100
2, 542640, Note_on_c, 0, 98, 0
2, 542640, Note_on_c, 0, 86, 0
2, 542640, Note_on_c, 0, 73, 0
2, 542640, Note_on_c, 0, 61, 0
2, 542850, Note_on_c, 0, 106, 0
2, 542850, Note_on_c, 0, 94, 0
2, 542850, Note_on_c, 0, 82, 0
2, 542850, Note_on_c, 0, 70, 0
2, 542850, Note_on_c, 0, 105, 100
2, 542850, Note_on_c, 0, 93, 100
2, 542850, Note_on_c, 0, 81, 100
2, 542850, Note_on_c, 0, 69, 100
2, 542880, Note_on_c, 0, 96, 100
2, 542880, Note_on_c, 0, 84, 100
2, 542880, Note_on_c, 0, 72, 100
2, 543120, Note_on_c, 0, 96, 0
2, 543120, Note_on_c, 0, 84, 0
2, 543120, Note_on_c, 0, 72, 0
2, 543360, Note_on_c, 0, 96, 100
2, 543360, Note_on_c, 0, 84, 100
2, 543360, Note_on_c, 0, 72, 100
2, 543360, Note_on_c, 0, 60, 100
2, 543600, Note_on_c, 0, 96, 0
2, 543600, Note_on_c, 0, 84, 0
2, 543600, Note_on_c, 0, 72, 0
2, 543600, Note_on_c, 0, 60, 0
2, 543840, Note_on_c, 0, 97, 100
2, 543840, Note_on_c, 0, 85, 100
2, 543840, Note_on_c, 0, 73, 100
2, 543840, Note_on_c, 0, 61, 100
2, 544080, Note_on_c, 0, 97, 0
2, 544080, Note_on_c, 0, 85, 0
2, 544080, Note_on_c, 0, 73, 0
2, 544080, Note_on_c, 0, 61, 0
2, 544320, Note_on_c, 0, 97, 100
2, 544320, Note_on_c, 0, 85, 100
2, 544320, Note_on_c, 0, 73, 100
2, 544320, Note_on_c, 0, 61, 100
2, 544560, Note_on_c, 0, 97, 0
2, 544560, Note_on_c, 0, 85, 0
2, 544560, Note_on_c, 0, 73, 0
2, 544560, Note_on_c, 0, 61, 0
2, 544770, Note_on_c, 0, 105, 0
2, 544770, Note_on_c, 0, 93, 0
2, 544770, Note_on_c, 0, 81, 0
2, 544770, Note_on_c, 0, 69, 0
2, 544770, Note_on_c, 0, 106, 100
2, 544770, Note_on_c, 0, 94, 100
2, 544770, Note_on_c, 0, 82, 100
2, 544770, Note_on_c, 0, 70, 100
2, 544800, Note_on_c, 0, 98, 100
2, 544800, Note_on_c, 0, 86, 100
2, 544800, Note_on_c, 0, 73, 100
2, 545040, Note_on_c, 0, 98, 0
2, 545040, Note_on_c, 0, 86, 0
2, 545040, Note_on_c, 0, 73, 0
2, 545280, Note_on_c, 0, 98, 100
2, 545280, Note_on_c, 0, 86, 100
2, 545280, Note_on_c, 0, 73, 100
2, 545280, Note_on_c, 0, 61, 100
2, 545520, Note_on_c, 0, 98, 0
2, 545520, Note_on_c, 0, 86, 0
2, 545520, Note_on_c, 0, 73, 0
2, 545520, Note_on_c, 0, 61, 0
2, 545760, Note_on_c, 0, 99, 100
2, 545760, Note_on_c, 0, 87, 100
2, 545760, Note_on_c, 0, 74, 100
2, 545760, Note_on_c, 0, 62, 100
2, 546000, Note_on_c, 0, 99, 0
2, 546000, Note_on_c, 0, 87, 0
2, 546000, Note_on_c, 0, 74, 0
2, 546000, Note_on_c, 0, 62, 0
2, 546240, Note_on_c, 0, 100, 100
2, 546240, Note_on_c, 0, 88, 100
2, 546240, Note_on_c, 0, 75, 100
2, 546240, Note_on_c, 0, 62, 100
2, 546480, Note_on_c, 0, 100, 0
2, 546480, Note_on_c, 0, 88, 0
2, 546480, Note_on_c, 0, 75, 0
2, 546480, Note_on_c, 0, 62, 0
2, 546720, Note_on_c, 0, 96, 100
2, 546720, Note_on_c, 0, 84, 100
2, 546720, Note_on_c, 0, 72, 100
2, 546720, Note_on_c, 0, 60, 100
2, 546960, Note_on_c, 0, 96, 0
2, 546960, Note_on_c, 0, 84, 0
2, 546960, Note_on_c, 0, 72, 0
2, 546960, Note_on_c, 0, 60, 0
2, 547200, Note_on_c, 0, 96, 100
2, 547200, Note_on_c, 0, 84, 100
2, 547200, Note_on_c, 0, 72, 100
2, 547440, Note_on_c, 0, 96, 0
2, 547440, Note_on_c, 0, 84, 0
2, 547440, Note_on_c, 0, 72, 0
2, 547680, Note_on_c, 0, 96, 100
2, 547680, Note_on_c, 0, 84, 100
2, 547680, Note_on_c, 0, 72, 100
2, 547920, Note_on_c, 0, 96, 0
2, 547920, Note_on_c, 0, 84, 0
2, 547920, Note_on_c, 0, 72, 0
2, 548160, Note_on_c, 0, 96, 100
2, 548160, Note_on_c, 0, 84, 100
2, 548160, Note_on_c, 0, 72, 100
2, 548160, Note_on_c, 0, 60, 100
2, 548400, Note_on_c, 0, 96, 0
2, 548400, Note_on_c, 0, 84, 0
2, 548400, Note_on_c, 0, 72, 0
2, 548400, Note_on_c, 0, 60, 0
2, 548610, Note_on_c, 0, 106, 0
2, 548610, Note_on_c, 0, 94, 0
2, 548610, Note_on_c, 0, 82, 0
2, 548610, Note_on_c, 0, 70, 0
2, 548610, Note_on_c, 0, 105, 100
2, 548610, Note_on_c, 0, 93, 100
2, 548610, Note_on_c, 0, 81, 100
2, 548610, Note_on_c, 0, 69, 100
2, 548640, Note_on_c, 0, 96, 100
2, 548640, Note_on_c, 0, 84, 100
2, 548640, Note_on_c, 0, 72, 100
2, 548880, Note_on_c, 0, 96, 0
2, 548880, Note_on_c, 0, 84, 0
2, 548880, Note_on_c, 0, 72, 0
2, 549120, Note_on_c, 0, 96, 100
2, 549120, Note_on_c, 0, 84, 100
2, 549120, Note_on_c, 0, 72, 100
2, 549120, Note_on_c, 0, 60, 100
2, 549360, Note_on_c, 0, 96, 0
2, 549360, Note_on_c, 0, 84, 0
2, 549360, Note_on_c, 0, 72, 0
2, 549360, Note_on_c, 0, 60, 0
2, 549600, Note_on_c, 0, 98, 100
2, 549600, Note_on_c, 0, 86, 100
2, 549600, Note_on_c, 0, 73, 100
2, 549600, Note_on_c, 0, 61, 100
2, 549840, Note_on_c, 0, 98, 0
2, 549840, Note_on_c, 0, 86, 0
2, 549840, Note_on_c, 0, 73, 0
2, 549840, Note_on_c, 0, 61, 0
2, 550080, Note_on_c, 0, 98, 100
2, 550080, Note_on_c, 0, 86, 100
2, 550080, Note_on_c, 0, 73, 100
2, 550080, Note_on_c, 0, 61, 100
2, 550320, Note_on_c, 0, 98, 0
2, 550320, Note_on_c, 0, 86, 0
2, 550320, Note_on_c, 0, 73, 0
2, 550320, Note_on_c, 0, 61, 0
2, 550530, Note_on_c, 0, 105, 0
2, 550530, Note_on_c, 0, 93, 0
2, 550530, Note_on_c, 0, 81, 0
2, 550530, Note_on_c, 0, 69, 0
2, 550530, Note_on_c, 0, 106, 100
2, 550530, Note_on_c, 0, 94, 100
2, 550530, Note_on_c, 0, 82, 100
2, 550530, Note_on_c, 0, 70, 100
2, 550560, Note_on_c, 0, 96, 100
2, 550560, Note_on_c, 0, 84, 100
2, 550560, Note_on_c, 0, 72, 100
2, 550800, Note_on_c, 0, 96, 0
2, 550800, Note_on_c, 0, 84, 0
2, 550800, Note_on_c, 0, 72, 0
2, 551040, Note_on_c, 0, 96, 100
2, 551040, Note_on_c, 0, 84, 100
2, 551040, Note_on_c, 0, 72, 100
2, 551040, Note_on_c, 0, 60, 100
2, 551280, Note_on_c, 0, 96, 0
2, 551280, Note_on_c, 0, 84, 0
2, 551280, Note_on_c, 0, 72, 0
2, 551280, Note_on_c, 0, 60, 0
2, 551520, Note_on_c, 0, 97, 100
2, 551520, Note_on_c, 0, 85, 100
2, 551520, Note_on_c, 0, 73, 100
2, 551520, Note_on_c, 0, 61, 100
2, 551760, Note_on_c, 0, 97, 0
2, 551760, Note_on_c, 0, 85, 0
2, 551760, Note_on_c, 0, 73, 0
2, 551760, Note_on_c, 0, 61, 0
2, 552000, Note_on_c, 0, 97, 100
2, 552000, Note_on_c, 0, 85, 100
2, 552000, Note_on_c, 0, 73, 100
2, 552000, Note_on_c, 0, 61, 100
2, 552240, Note_on_c, 0, 97, 0
2, 552240, Note_on_c, 0, 85, 0
2, 552240, Note_on_c, 0, 73, 0
2, 552240, Note_on_c, 0, 61, 0
2, 552450, Note_on_c, 0, 106, 0
2, 552450, Note_on_c, 0, 94, 0
2, 552450, Note_on_c, 0, 82, 0
2, 552450, Note_on_c, 0, 70, 0
2, 552450, Note_on_c, 0, 105, 100
2, 552450, Note_on_c, 0, 93, 100
2, 552450, Note_on_c, 0, 81, 100
2, 552450, Note_on_c, 0, 69, 100
2, 552480, Note_on_c, 0, 98, 100
2, 552480, Note_on_c, 0, 86, 100
2, 552480, Note_on_c, 0, 73, 100
2, 552720, Note_on_c, 0, 98, 0
2, 552720, Note_on_c, 0, 86, 0
2, 552720, Note_on_c, 0, 73, 0
2, 552960, Note_on_c, 0, 98, 100
2, 552960, Note_on_c, 0, 86, 100
2, 552960, Note_on_c, 0, 73, 100
2, 552960, Note_on_c, 0, 61, 100
2, 553200, Note_on_c, 0, 98, 0
2, 553200, Note_on_c, 0, 86, 0
2, 553200, Note_on_c, 0, 73, 0
2, 553200, Note_on_c, 0, 61, 0
2, 553440, Note_on_c, 0, 99, 100
2, 553440, Note_on_c, 0, 87, 100
2, 553440, Note_on_c, 0, 74, 100
2, 553440, Note_on_c, 0, 62, 100
2, 553680, Note_on_c, 0, 99, 0
2, 553680, Note_on_c, 0, 87, 0
2, 553680, Note_on_c, 0, 74, 0
2, 553680, Note_on_c, 0, 62, 0
2, 553920, Note_on_c, 0, 100, 100
2, 553920, Note_on_c, 0, 88, 100
2, 553920, Note_on_c, 0, 75, 100
2, 553920, Note_on_c, 0, 62, 100
2, 554160, Note_on_c, 0, 100, 0
2, 554160, Note_on_c, 0, 88, 0
2, 554160, Note_on_c, 0, 75, 0
2, 554160, Note_on_c, 0, 62, 0
2, 554400, Note_on_c, 0, 96, 100
2, 554400, Note_on_c, 0, 84, 100
2, 554400, Note_on_c, 0, 72, 100
2, 554400, Note_on_c, 0, 60, 100
2, 554640, Note_on_c, 0, 96, 0
2, 554640, Note_on_c, 0, 84, 0
2, 554640, Note_on_c, 0, 72, 0
2, 554640, Note_on_c, 0, 60, 0
2, 554880, Note_on_c, 0, 96, 100
2, 554880, Note_on_c, 0, 84, 100
2, 554880, Note_on_c, 0, 72, 100
2, 555120, Note_on_c, 0, 96, 0
2, 555120, Note_on_c, 0, 84, 0
2, 555120, Note_on_c, 0, 72, 0
2, 555360, Note_on_c, 0, 96, 100
2, 555360, Note_on_c, 0, 84, 100
2, 555360, Note_on_c, 0, 72, 100
2, 555600, Note_on_c, 0, 96, 0
2, 555600, Note_on_c, 0, 84, 0
2, 555600, Note_on_c, 0, 72, 0
2, 555840, Note_on_c, 0, 96, 100
2, 555840, Note_on_c, 0, 84, 100
2, 555840, Note_on_c, 0, 72, 100
2, 555840, Note_on_c, 0, 60, 100
2, 556080, Note_on_c, 0, 96, 0
2, 556080, Note_on_c, 0, 84, 0
2, 556080, Note_on_c, 0, 72, 0
2, 556080, Note_on_c, 0, 60, 0
2, 556290, Note_on_c, 0, 106, 100
2, 556290, Note_on_c, 0, 94, 100
2, 556290, Note_on_c, 0, 82, 100
2, 556290, Note_on_c, 0, 70, 100
2, 556320, Note_on_c, 0, 96, 100
2, 556320, Note_on_c, 0, 84, 100
2, 556320, Note_on_c, 0, 72, 100
2, 556560, Note_on_c, 0, 96, 0
2, 556560, Note_on_c, 0, 84, 0
2, 556560, Note_on_c, 0, 72, 0
2, 556800, Note_on_c, 0, 84, 100
2, 556800, Note_on_c, 0, 85, 100
2, 556800, Note_on_c, 0, 72, 100
2, 556800, Note_on_c, 0, 60, 100
2, 556800, Note_on_c, 0, 96, 100
2, 556800, Note_on_c, 0, 97, 100
2, 557040, Note_on_c, 0, 84, 0
2, 557040, Note_on_c, 0, 85, 0
2, 557040, Note_on_c, 0, 72, 0
2, 557040, Note_on_c, 0, 60, 0
2, 557040, Note_on_c, 0, 96, 0
2, 557040, Note_on_c, 0, 97, 0
2, 557280, Note_on_c, 0, 87, 100
2, 557280, Note_on_c, 0, 84, 100
2, 557280, Note_on_c, 0, 73, 100
2, 557280, Note_on_c, 0, 61, 100
2, 557280, Note_on_c, 0, 99, 100
2, 557280, Note_on_c, 0, 96, 100
2, 557520, Note_on_c, 0, 87, 0
2, 557520, Note_on_c, 0, 84, 0
2, 557520, Note_on_c, 0, 73, 0
2, 557520, Note_on_c, 0, 61, 0
2, 557520, Note_on_c, 0, 99, 0
2, 557520, Note_on_c, 0, 96, 0
2, 557760, Note_on_c, 0, 87, 100
2, 557760, Note_on_c, 0, 84, 100
2, 557760, Note_on_c, 0, 73, 100
2, 557760, Note_on_c, 0, 61, 100
2, 557760, Note_on_c, 0, 99, 100
2, 557760, Note_on_c, 0, 96, 100
2, 558000, Note_on_c, 0, 87, 0
2, 558000, Note_on_c, 0, 84, 0
2, 558000, Note_on_c, 0, 73, 0
2, 558000, Note_on_c, 0, 61, 0
2, 558000, Note_on_c, 0, 99, 0
2, 558000, Note_on_c, 0, 96, 0
2, 558240, Note_on_c, 0, 84, 100
2, 558240, Note_on_c, 0, 85, 100
2, 558240, Note_on_c, 0, 72, 100
2, 558240, Note_on_c, 0, 96, 100
2, 558240, Note_on_c, 0, 97, 100
2, 558480, Note_on_c, 0, 84, 0
2, 558480, Note_on_c, 0, 85, 0
2, 558480, Note_on_c, 0, 72, 0
2, 558480, Note_on_c, 0, 96, 0
2, 558480, Note_on_c, 0, 97, 0
2, 558720, Note_on_c, 0, 84, 100
2, 558720, Note_on_c, 0, 85, 100
2, 558720, Note_on_c, 0, 72, 100
2, 558720, Note_on_c, 0, 60, 100
2, 558720, Note_on_c, 0, 96, 100
2, 558720, Note_on_c, 0, 97, 100
2, 558960, Note_on_c, 0, 84, 0
2, 558960, Note_on_c, 0, 85, 0
2, 558960, Note_on_c, 0, 72, 0
2, 558960, Note_on_c, 0, 60, 0
2, 558960, Note_on_c, 0, 96, 0
2, 558960, Note_on_c, 0, 97, 0
2, 559200, Note_on_c, 0, 86, 100
2, 559200, Note_on_c, 0, 84, 100
2, 559200, Note_on_c, 0, 73, 100
2, 559200, Note_on_c, 0, 61, 100
2, 559200, Note_on_c, 0, 98, 100
2, 559200, Note_on_c, 0, 96, 100
2, 559440, Note_on_c, 0, 86, 0
2, 559440, Note_on_c, 0, 84, 0
2, 559440, Note_on_c, 0, 73, 0
2, 559440, Note_on_c, 0, 61, 0
2, 559440, Note_on_c, 0, 98, 0
2, 559440, Note_on_c, 0, 96, 0
2, 559680, Note_on_c, 0, 86, 100
2, 559680, Note_on_c, 0, 84, 100
2, 559680, Note_on_c, 0, 73, 100
2, 559680, Note_on_c, 0, 61, 100
2, 559680, Note_on_c, 0, 98, 100
2, 559680, Note_on_c, 0, 96, 100
2, 559920, Note_on_c, 0, 86, 0
2, 559920, Note_on_c, 0, 84, 0
2, 559920, Note_on_c, 0, 73, 0
2, 559920, Note_on_c, 0, 61, 0
2, 559920, Note_on_c, 0, 98, 0
2, 559920, Note_on_c, 0, 96, 0
2, 560160, Note_on_c, 0, 87, 100
2, 560160, Note_on_c, 0, 84, 100
2, 560160, Note_on_c, 0, 73, 100
2, 560160, Note_on_c, 0, 99, 100
2, 560160, Note_on_c, 0, 96, 100
2, 560400, Note_on_c, 0, 87, 0
2, 560400, Note_on_c, 0, 84, 0
2, 560400, Note_on_c, 0, 73, 0
2, 560400, Note_on_c, 0, 99, 0
2, 560400, Note_on_c, 0, 96, 0
2, 560640, Note_on_c, 0, 86, 100
2, 560640, Note_on_c, 0, 73, 100
2, 560640, Note_on_c, 0, 61, 100
2, 560640, Note_on_c, 0, 98, 100
2, 560880, Note_on_c, 0, 86, 0
2, 560880, Note_on_c, 0, 73, 0
2, 560880, Note_on_c, 0, 61, 0
2, 560880, Note_on_c, 0, 98, 0
2, 561120, Note_on_c, 0, 87, 100
2, 561120, Note_on_c, 0, 74, 100
2, 561120, Note_on_c, 0, 62, 100
2, 561120, Note_on_c, 0, 99, 100
2, 561360, Note_on_c, 0, 87, 0
2, 561360, Note_on_c, 0, 74, 0
2, 561360, Note_on_c, 0, 62, 0
2, 561360, Note_on_c, 0, 99, 0
2, 561600, Note_on_c, 0, 88, 100
2, 561600, Note_on_c, 0, 75, 100
2, 561600, Note_on_c, 0, 62, 100
2, 561600, Note_on_c, 0, 100, 100
2, 561840, Note_on_c, 0, 88, 0
2, 561840, Note_on_c, 0, 75, 0
2, 561840, Note_on_c, 0, 62, 0
2, 561840, Note_on_c, 0, 100, 0
2, 562080, Note_on_c, 0, 84, 100
2, 562080, Note_on_c, 0, 85, 100
2, 562080, Note_on_c, 0, 72, 100
2, 562080, Note_on_c, 0, 60, 100
2, 562080, Note_on_c, 0, 96, 100
2, 562080, Note_on_c, 0, 97, 100
2, 562320, Note_on_c, 0, 84, 0
2, 562320, Note_on_c, 0, 85, 0
2, 562320, Note_on_c, 0, 72, 0
2, 562320, Note_on_c, 0, 60, 0
2, 562320, Note_on_c, 0, 96, 0
2, 562320, Note_on_c, 0, 97, 0
2, 562560, Note_on_c, 0, 84, 100
2, 562560, Note_on_c, 0, 85, 100
2, 562560, Note_on_c, 0, 72, 100
2, 562560, Note_on_c, 0, 96, 100
2, 562560, Note_on_c, 0, 97, 100
2, 562800, Note_on_c, 0, 84, 0
2, 562800, Note_on_c, 0, 85, 0
2, 562800, Note_on_c, 0, 72, 0
2, 562800, Note_on_c, 0, 96, 0
2, 562800, Note_on_c, 0, 97, 0
2, 563040, Note_on_c, 0, 84, 100
2, 563040, Note_on_c, 0, 85, 100
2, 563040, Note_on_c, 0, 72, 100
2, 563040, Note_on_c, 0, 96, 100
2, 563040, Note_on_c, 0, 97, 100
2, 563280, Note_on_c, 0, 84, 0
2, 563280, Note_on_c, 0, 85, 0
2, 563280, Note_on_c, 0, 72, 0
2, 563280, Note_on_c, 0, 96, 0
2, 563280, Note_on_c, 0, 97, 0
2, 563520, Note_on_c, 0, 84, 100
2, 563520, Note_on_c, 0, 85, 100
2, 563520, Note_on_c, 0, 72, 100
2, 563520, Note_on_c, 0, 60, 100
2, 563520, Note_on_c, 0, 96, 100
2, 563520, Note_on_c, 0, 97, 100
2, 563760, Note_on_c, 0, 84, 0
2, 563760, Note_on_c, 0, 85, 0
2, 563760, Note_on_c, 0, 72, 0
2, 563760, Note_on_c, 0, 60, 0
2, 563760, Note_on_c, 0, 96, 0
2, 563760, Note_on_c, 0, 97, 0
2, 564000, Note_on_c, 0, 84, 100
2, 564000, Note_on_c, 0, 85, 100
2, 564000, Note_on_c, 0, 72, 100
2, 564000, Note_on_c, 0, 96, 100
2, 564000, Note_on_c, 0, 97, 100
2, 564240, Note_on_c, 0, 84, 0
2, 564240, Note_on_c, 0, 85, 0
2, 564240, Note_on_c, 0, 72, 0
2, 564240, Note_on_c, 0, 96, 0
2, 564240, Note_on_c, 0, 97, 0
2, 564480, Note_on_c, 0, 84, 100
2, 564480, Note_on_c, 0, 85, 100
2, 564480, Note_on_c, 0, 72, 100
2, 564480, Note_on_c, 0, 60, 100
2, 564480, Note_on_c, 0, 96, 100
2, 564480, Note_on_c, 0, 97, 100
2, 564720, Note_on_c, 0, 84, 0
2, 564720, Note_on_c, 0, 85, 0
2, 564720, Note_on_c, 0, 72, 0
2, 564720, Note_on_c, 0, 60, 0
2, 564720, Note_on_c, 0, 96, 0
2, 564720, Note_on_c, 0, 97, 0
2, 564960, Note_on_c, 0, 87, 100
2, 564960, Note_on_c, 0, 84, 100
2, 564960, Note_on_c, 0, 73, 100
2, 564960, Note_on_c, 0, 61, 100
2, 564960, Note_on_c, 0, 99, 100
2, 564960, Note_on_c, 0, 96, 100
2, 565200, Note_on_c, 0, 87, 0
2, 565200, Note_on_c, 0, 84, 0
2, 565200, Note_on_c, 0, 73, 0
2, 565200, Note_on_c, 0, 61, 0
2, 565200, Note_on_c, 0, 99, 0
2, 565200, Note_on_c, 0, 96, 0
2, 565440, Note_on_c, 0, 87, 100
2, 565440, Note_on_c, 0, 84, 100
2, 565440, Note_on_c, 0, 73, 100
2, 565440, Note_on_c, 0, 61, 100
2, 565440, Note_on_c, 0, 99, 100
2, 565440, Note_on_c, 0, 96, 100
2, 565680, Note_on_c, 0, 87, 0
2, 565680, Note_on_c, 0, 84, 0
2, 565680, Note_on_c, 0, 73, 0
2, 565680, Note_on_c, 0, 61, 0
2, 565680, Note_on_c, 0, 99, 0
2, 565680, Note_on_c, 0, 96, 0
2, 565920, Note_on_c, 0, 84, 100
2, 565920, Note_on_c, 0, 85, 100
2, 565920, Note_on_c, 0, 72, 100
2, 565920, Note_on_c, 0, 96, 100
2, 565920, Note_on_c, 0, 97, 100
2, 566160, Note_on_c, 0, 84, 0
2, 566160, Note_on_c, 0, 85, 0
2, 566160, Note_on_c, 0, 72, 0
2, 566160, Note_on_c, 0, 96, 0
2, 566160, Note_on_c, 0, 97, 0
2, 566400, Note_on_c, 0, 84, 100
2, 566400, Note_on_c, 0, 85, 100
2, 566400, Note_on_c, 0, 72, 100
2, 566400, Note_on_c, 0, 60, 100
2, 566400, Note_on_c, 0, 96, 100
2, 566400, Note_on_c, 0, 97, 100
2, 566640, Note_on_c, 0, 84, 0
2, 566640, Note_on_c, 0, 85, 0
2, 566640, Note_on_c, 0, 72, 0
2, 566640, Note_on_c, 0, 60, 0
2, 566640, Note_on_c, 0, 96, 0
2, 566640, Note_on_c, 0, 97, 0
2, 566880, Note_on_c, 0, 86, 100
2, 566880, Note_on_c, 0, 84, 100
2, 566880, Note_on_c, 0, 73, 100
2, 566880, Note_on_c, 0, 61, 100
2, 566880, Note_on_c, 0, 98, 100
2, 566880, Note_on_c, 0, 96, 100
2, 567120, Note_on_c, 0, 86, 0
2, 567120, Note_on_c, 0, 84, 0
2, 567120, Note_on_c, 0, 73, 0
2, 567120, Note_on_c, 0, 61, 0
2, 567120, Note_on_c, 0, 98, 0
2, 567120, Note_on_c, 0, 96, 0
2, 567360, Note_on_c, 0, 86, 100
2, 567360, Note_on_c, 0, 84, 100
2, 567360, Note_on_c, 0, 73, 100
2, 567360, Note_on_c, 0, 61, 100
2, 567360, Note_on_c, 0, 98, 100
2, 567360, Note_on_c, 0, 96, 100
2, 567600, Note_on_c, 0, 86, 0
2, 567600, Note_on_c, 0, 84, 0
2, 567600, Note_on_c, 0, 73, 0
2, 567600, Note_on_c, 0, 61, 0
2, 567600, Note_on_c, 0, 98, 0
2, 567600, Note_on_c, 0, 96, 0
2, 567840, Note_on_c, 0, 87, 100
2, 567840, Note_on_c, 0, 84, 100
2, 567840, Note_on_c, 0, 73, 100
2, 567840, Note_on_c, 0, 99, 100
2, 567840, Note_on_c, 0, 96, 100
2, 568080, Note_on_c, 0, 87, 0
2, 568080, Note_on_c, 0, 84, 0
2, 568080, Note_on_c, 0, 73, 0
2, 568080, Note_on_c, 0, 99, 0
2, 568080, Note_on_c, 0, 96, 0
2, 568320, Note_on_c, 0, 86, 100
2, 568320, Note_on_c, 0, 73, 100
2, 568320, Note_on_c, 0, 61, 100
2, 568320, Note_on_c, 0, 98, 100
2, 568560, Note_on_c, 0, 86, 0
2, 568560, Note_on_c, 0, 73, 0
2, 568560, Note_on_c, 0, 61, 0
2, 568560, Note_on_c, 0, 98, 0
2, 568800, Note_on_c, 0, 87, 100
2, 568800, Note_on_c, 0, 74, 100
2, 568800, Note_on_c, 0, 62, 100
2, 568800, Note_on_c, 0, 99, 100
2, 569040, Note_on_c, 0, 87, 0
2, 569040, Note_on_c, 0, 74, 0
2, 569040, Note_on_c, 0, 62, 0
2, 569040, Note_on_c, 0, 99, 0
2, 569280, Note_on_c, 0, 88, 100
2, 569280, Note_on_c, 0, 75, 100
2, 569280, Note_on_c, 0, 62, 100
2, 569280, Note_on_c, 0, 100, 100
2, 569520, Note_on_c, 0, 88, 0
2, 569520, Note_on_c, 0, 75, 0
2, 569520, Note_on_c, 0, 62, 0
2, 569520, Note_on_c, 0, 100, 0
2, 569760, Note_on_c, 0, 96, 100
2, 569760, Note_on_c, 0, 97, 100
2, 569760, Note_on_c, 0, 84, 100
2, 569760, Note_on_c, 0, 85, 100
2, 569760, Note_on_c, 0, 72, 100
2, 569760, Note_on_c, 0, 60, 100
2, 570000, Note_on_c, 0, 96, 0
2, 570000, Note_on_c, 0, 97, 0
2, 570000, Note_on_c, 0, 84, 0
2, 570000, Note_on_c, 0, 85, 0
2, 570000, Note_on_c, 0, 72, 0
2, 570000, Note_on_c, 0, 60, 0
2, 570240, Note_on_c, 0, 96, 100
2, 570240, Note_on_c, 0, 97, 100
2, 570240, Note_on_c, 0, 84, 100
2, 570240, Note_on_c, 0, 85, 100
2, 570240, Note_on_c, 0, 72, 100
2, 570480, Note_on_c, 0, 96, 0
2, 570480, Note_on_c, 0, 97, 0
2, 570480, Note_on_c, 0, 84, 0
2, 570480, Note_on_c, 0, 85, 0
2, 570480, Note_on_c, 0, 72, 0
2, 570720, Note_on_c, 0, 96, 100
2, 570720, Note_on_c, 0, 97, 100
2, 570720, Note_on_c, 0, 84, 100
2, 570720, Note_on_c, 0, 85, 100
2, 570720, Note_on_c, 0, 72, 100
2, 570720, Note_on_c, 0, 60, 100
2, 570960, Note_on_c, 0, 96, 0
2, 570960, Note_on_c, 0, 97, 0
2, 570960, Note_on_c, 0, 84, 0
2, 570960, Note_on_c, 0, 85, 0
2, 570960, Note_on_c, 0, 72, 0
2, 570960, Note_on_c, 0, 60, 0
2, 571200, Note_on_c, 0, 96, 100
2, 571200, Note_on_c, 0, 97, 100
2, 571200, Note_on_c, 0, 84, 100
2, 571200, Note_on_c, 0, 85, 100
2, 571200, Note_on_c, 0, 72, 100
2, 571200, Note_on_c, 0, 60, 100
2, 571440, Note_on_c, 0, 96, 0
2, 571440, Note_on_c, 0, 97, 0
2, 571440, Note_on_c, 0, 84, 0
2, 571440, Note_on_c, 0, 85, 0
2, 571440, Note_on_c, 0, 72, 0
2, 571440, Note_on_c, 0, 60, 0
2, 571680, Note_on_c, 0, 96, 100
2, 571680, Note_on_c, 0, 72, 100
2, 571680, Note_on_c, 0, 60, 100
2, 571680, Note_on_c, 0, 84, 100
2, 571920, Note_on_c, 0, 96, 0
2, 571920, Note_on_c, 0, 72, 0
2, 571920, Note_on_c, 0, 60, 0
2, 571920, Note_on_c, 0, 84, 0
2, 571920, Note_on_c, 0, 96, 100
2, 571920, Note_on_c, 0, 84, 100
2, 572160, Note_on_c, 0, 96, 0
2, 572160, Note_on_c, 0, 84, 0
2, 572160, Note_on_c, 0, 96, 100
2, 572160, Note_on_c, 0, 84, 100
2, 572160, Note_on_c, 0, 72, 100
2, 572160, Note_on_c, 0, 60, 100
2, 572400, Note_on_c, 0, 96, 0
2, 572400, Note_on_c, 0, 84, 0
2, 572400, Note_on_c, 0, 72, 0
2, 572400, Note_on_c, 0, 60, 0
2, 572640, Note_on_c, 0, 98, 100
2, 572640, Note_on_c, 0, 96, 100
2, 572640, Note_on_c, 0, 86, 100
2, 572640, Note_on_c, 0, 84, 100
2, 572640, Note_on_c, 0, 72, 100
2, 572640, Note_on_c, 0, 73, 100
2, 572640, Note_on_c, 0, 60, 100
2, 572880, Note_on_c, 0, 98, 0
2, 572880, Note_on_c, 0, 96, 0
2, 572880, Note_on_c, 0, 86, 0
2, 572880, Note_on_c, 0, 84, 0
2, 572880, Note_on_c, 0, 72, 0
2, 572880, Note_on_c, 0, 73, 0
2, 572880, Note_on_c, 0, 60, 0
2, 573090, Note_on_c, 0, 105, 0
2, 573090, Note_on_c, 0, 93, 0
2, 573090, Note_on_c, 0, 81, 0
2, 573090, Note_on_c, 0, 69, 0
2, 573090, Note_on_c, 0, 106, 0
2, 573090, Note_on_c, 0, 94, 0
2, 573090, Note_on_c, 0, 82, 0
2, 573090, Note_on_c, 0, 70, 0
2, 573090, End_track
3, 0, Start_track
3, 0, Title_t, "EVENTS"
3, 0, Text_t, "drum_off"
3, 0, Text_t, "sing_off"
3, 0, Text_t, "[verse]"
3, 0, Text_t, "[lighting ()]"
3, 7680, Text_t, "[music_start]"
3, 23040, Text_t, "[lighting ()]"
3, 69120, Text_t, "drum_on"
3, 69120, Text_t, "gtr_on"
3, 69120, Text_t, "bass_on"
3, 99840, Text_t, "sing_off"
3, 99840, Text_t, "[solo]"
3, 99840, Text_t, "solo_on"
3, 130560, Text_t, "[lighting ()]"
3, 130560, Text_t, "sing_on"
3, 130560, Text_t, "drum_normal"
3, 161280, Text_t, "wail_off"
3, 161280, Text_t, "[verse]"
3, 161280, Text_t, "sing_off"
3, 192000, Text_t, "[lighting ()]"
3, 222720, Text_t, "[solo]"
3, 222720, Text_t, "solo_on"
3, 222720, Text_t, "sing_off"
3, 253440, Text_t, "solo_off"
3, 253440, Text_t, "[chorus]"
3, 253440, Text_t, "drum_normal"
3, 284160, Text_t, "wail_off"
3, 284160, Text_t, "[verse]"
3, 299518, Text_t, "[lighting ()]"
3, 330240, Text_t, "sing_on"
3, 330240, Text_t, "[chorus]"
3, 337920, Text_t, "sing_off"
3, 360960, Text_t, "[lighting ()]"
3, 360960, Text_t, "sing_on"
3, 360960, Text_t, "wail_off"
3, 391680, Text_t, "[solo]"
3, 391680, Text_t, "solo_on"
3, 391680, Text_t, "sing_off"
3, 456960, Text_t, "[lighting (blackout)]"
3, 456960, Text_t, "solo_off"
3, 464640, Text_t, "[lighting ()]"
3, 464640, Text_t, "drum_on"
3, 464640, Text_t, "bass_on"
3, 510720, Text_t, "[chorus]"
3, 510720, Text_t, "sing_on"
3, 541440, Text_t, "sing_off"
3, 573120, Text_t, "[lighting (flare)]"
3, 573120, Text_t, "bass_off"
3, 574080, Text_t, "[lighting (blackout)]"
3, 575998, Text_t, "[end]"
3, 575998, End_track
4, 0, Start_track
4, 0, Title_t, "TRIGGERS"
4, 68640, Note_on_c, 0, 68, 100
4, 68880, Note_on_c, 0, 68, 0
4, 69120, Note_on_c, 2, 60, 100
4, 69120, Note_on_c, 2, 61, 100
4, 69120, Note_on_c, 0, 68, 100
4, 69360, Note_on_c, 2, 60, 0
4, 69360, Note_on_c, 2, 61, 0
4, 69360, Note_on_c, 0, 68, 0
4, 69600, Note_on_c, 0, 69, 100
4, 70080, Note_on_c, 2, 61, 100
4, 70320, Note_on_c, 2, 61, 0
4, 71040, Note_on_c, 2, 60, 100
4, 71040, Note_on_c, 2, 61, 100
4, 71280, Note_on_c, 2, 60, 0
4, 71280, Note_on_c, 2, 61, 0
4, 72000, Note_on_c, 2, 61, 100
4, 72240, Note_on_c, 2, 61, 0
4, 72480, Note_on_c, 0, 69, 0
4, 72960, Note_on_c, 2, 60, 100
4, 72960, Note_on_c, 2, 61, 100
4, 72960, Note_on_c, 0, 69, 100
4, 73198, Note_on_c, 2, 60, 0
4, 73198, Note_on_c, 2, 61, 0
4, 73198, Note_on_c, 0, 69, 0
4, 73918, Note_on_c, 2, 61, 100
4, 73920, Note_on_c, 0, 70, 100
4, 74158, Note_on_c, 2, 61, 0
4, 74878, Note_on_c, 2, 60, 100
4, 74878, Note_on_c, 2, 61, 100
4, 75118, Note_on_c, 2, 60, 0
4, 75118, Note_on_c, 2, 61, 0
4, 75360, Note_on_c, 0, 70, 0
4, 75838, Note_on_c, 2, 61, 100
4, 75840, Note_on_c, 0, 69, 100
4, 76078, Note_on_c, 2, 61, 0
4, 76080, Note_on_c, 0, 69, 0
4, 76798, Note_on_c, 2, 60, 100
4, 76798, Note_on_c, 2, 61, 100
4, 76800, Note_on_c, 0, 68, 100
4, 77038, Note_on_c, 2, 60, 0
4, 77038, Note_on_c, 2, 61, 0
4, 77040, Note_on_c, 0, 68, 0
4, 77758, Note_on_c, 2, 61, 100
4, 77760, Note_on_c, 0, 69, 100
4, 77998, Note_on_c, 2, 61, 0
4, 78718, Note_on_c, 2, 60, 100
4, 78718, Note_on_c, 2, 61, 100
4, 78958, Note_on_c, 2, 60, 0
4, 78958, Note_on_c, 2, 61, 0
4, 79200, Note_on_c, 0, 69, 0
4, 79678, Note_on_c, 2, 61, 100
4, 79680, Note_on_c, 0, 69, 100
4, 79918, Note_on_c, 2, 61, 0
4, 79920, Note_on_c, 0, 69, 0
4, 80638, Note_on_c, 2, 60, 100
4, 80638, Note_on_c, 2, 61, 100
4, 80640, Note_on_c, 0, 68, 100
4, 80878, Note_on_c, 2, 60, 0
4, 80878, Note_on_c, 2, 61, 0
4, 80880, Note_on_c, 0, 68, 0
4, 81598, Note_on_c, 2, 61, 100
4, 81600, Note_on_c, 0, 69, 100
4, 81838, Note_on_c, 2, 61, 0
4, 82558, Note_on_c, 2, 60, 100
4, 82558, Note_on_c, 2, 61, 100
4, 82798, Note_on_c, 2, 60, 0
4, 82798, Note_on_c, 2, 61, 0
4, 83040, Note_on_c, 0, 69, 0
4, 83518, Note_on_c, 2, 61, 100
4, 83520, Note_on_c, 0, 68, 100
4, 83758, Note_on_c, 2, 61, 0
4, 83760, Note_on_c, 0, 68, 0
4, 84478, Note_on_c, 2, 60, 100
4, 84478, Note_on_c, 2, 61, 100
4, 84480, Note_on_c, 0, 68, 100
4, 84718, Note_on_c, 2, 60, 0
4, 84718, Note_on_c, 2, 61, 0
4, 85438, Note_on_c, 2, 61, 100
4, 85678, Note_on_c, 2, 61, 0
4, 86398, Note_on_c, 2, 60, 100
4, 86398, Note_on_c, 2, 61, 100
4, 86638, Note_on_c, 2, 60, 0
4, 86638, Note_on_c, 2, 61, 0
4, 87358, Note_on_c, 2, 61, 100
4, 87598, Note_on_c, 2, 61, 0
4, 87840, Note_on_c, 0, 68, 0
4, 88318, Note_on_c, 2, 60, 100
4, 88318, Note_on_c, 2, 61, 100
4, 88320, Note_on_c, 0, 69, 100
4, 88480, Note_on_c, 0, 69, 0
4, 88560, Note_on_c, 2, 60, 0
4, 88560, Note_on_c, 2, 61, 0
4, 89280, Note_on_c, 2, 61, 100
4, 89280, Note_on_c, 0, 70, 100
4, 89520, Note_on_c, 2, 61, 0
4, 90240, Note_on_c, 2, 60, 100
4, 90240, Note_on_c, 2, 61, 100
4, 90480, Note_on_c, 2, 60, 0
4, 90480, Note_on_c, 2, 61, 0
4, 90720, Note_on_c, 0, 70, 0
4, 91200, Note_on_c, 2, 61, 100
4, 91200, Note_on_c, 0, 69, 100
4, 91440, Note_on_c, 2, 61, 0
4, 91440, Note_on_c, 0, 69, 0
4, 92160, Note_on_c, 2, 60, 100
4, 92160, Note_on_c, 2, 61, 100
4, 92160, Note_on_c, 0, 68, 100
4, 92400, Note_on_c, 2, 60, 0
4, 92400, Note_on_c, 2, 61, 0
4, 92400, Note_on_c, 0, 68, 0
4, 93120, Note_on_c, 2, 61, 100
4, 93120, Note_on_c, 0, 69, 100
4, 93360, Note_on_c, 2, 61, 0
4, 94080, Note_on_c, 2, 60, 100
4, 94080, Note_on_c, 2, 61, 100
4, 94320, Note_on_c, 2, 60, 0
4, 94320, Note_on_c, 2, 61, 0
4, 94560, Note_on_c, 0, 69, 0
4, 95040, Note_on_c, 2, 61, 100
4, 95040, Note_on_c, 0, 69, 100
4, 95280, Note_on_c, 2, 61, 0
4, 95280, Note_on_c, 0, 69, 0
4, 96000, Note_on_c, 2, 60, 100
4, 96000, Note_on_c, 2, 61, 100
4, 96000, Note_on_c, 0, 68, 100
4, 96240, Note_on_c, 2, 60, 0
4, 96240, Note_on_c, 2, 61, 0
4, 96240, Note_on_c, 0, 68, 0
4, 96960, Note_on_c, 2, 61, 100
4, 96960, Note_on_c, 0, 69, 100
4, 97200, Note_on_c, 2, 61, 0
4, 97920, Note_on_c, 2, 60, 100
4, 97920, Note_on_c, 2, 61, 100
4, 98160, Note_on_c, 2, 60, 0
4, 98160, Note_on_c, 2, 61, 0
4, 98400, Note_on_c, 0, 69, 0
4, 98880, Note_on_c, 2, 61, 100
4, 98880, Note_on_c, 0, 68, 100
4, 99120, Note_on_c, 2, 61, 0
4, 99120, Note_on_c, 0, 68, 0
4, 99360, Note_on_c, 2, 61, 100
4, 99600, Note_on_c, 2, 61, 0
4, 99600, Note_on_c, 2, 61, 100
4, 99840, Note_on_c, 2, 61, 0
4, 99840, Note_on_c, 2, 60, 100
4, 99840, Note_on_c, 2, 61, 100
4, 99840, Note_on_c, 0, 68, 100
4, 100080, Note_on_c, 2, 60, 0
4, 100080, Note_on_c, 2, 61, 0
4, 100560, Note_on_c, 0, 68, 0
4, 100800, Note_on_c, 2, 60, 100
4, 100800, Note_on_c, 2, 61, 100
4, 100800, Note_on_c, 0, 69, 100
4, 101040, Note_on_c, 2, 60, 0
4, 101040, Note_on_c, 2, 61, 0
4, 101040, Note_on_c, 0, 69, 0
4, 101760, Note_on_c, 2, 60, 100
4, 101760, Note_on_c, 2, 61, 100
4, 101760, Note_on_c, 0, 69, 100
4, 102000, Note_on_c, 2, 60, 0
4, 102000, Note_on_c, 2, 61, 0
4, 102000, Note_on_c, 0, 69, 0
4, 102240, Note_on_c, 0, 70, 100
4, 102720, Note_on_c, 2, 60, 100
4, 102720, Note_on_c, 2, 61, 100
4, 102960, Note_on_c, 2, 60, 0
4, 102960, Note_on_c, 2, 61, 0
4, 103200, Note_on_c, 0, 70, 0
4, 103680, Note_on_c, 2, 60, 100
4, 103680, Note_on_c, 2, 61, 100
4, 103680, Note_on_c, 0, 68, 100
4, 103920, Note_on_c, 2, 60, 0
4, 103920, Note_on_c, 2, 61, 0
4, 103920, Note_on_c, 0, 68, 0
4, 104640, Note_on_c, 2, 60, 100
4, 104640, Note_on_c, 2, 61, 100
4, 104640, Note_on_c, 0, 68, 100
4, 104880, Note_on_c, 2, 60, 0
4, 104880, Note_on_c, 2, 61, 0
4, 104880, Note_on_c, 0, 68, 0
4, 105120, Note_on_c, 0, 70, 100
4, 105600, Note_on_c, 2, 60, 100
4, 105600, Note_on_c, 2, 61, 100
4, 105840, Note_on_c, 2, 60, 0
4, 105840, Note_on_c, 2, 61, 0
4, 106080, Note_on_c, 0, 70, 0
4, 106080, Note_on_c, 0, 69, 100
4, 106320, Note_on_c, 0, 69, 0
4, 106560, Note_on_c, 2, 60, 100
4, 106560, Note_on_c, 2, 61, 100
4, 106800, Note_on_c, 2, 60, 0
4, 106800, Note_on_c, 2, 61, 0
4, 107520, Note_on_c, 2, 60, 100
4, 107520, Note_on_c, 2, 61, 100
4, 107520, Note_on_c, 0, 69, 100
4, 107760, Note_on_c, 2, 60, 0
4, 107760, Note_on_c, 2, 61, 0
4, 107760, Note_on_c, 0, 69, 0
4, 108480, Note_on_c, 2, 60, 100
4, 108480, Note_on_c, 2, 61, 100
4, 108480, Note_on_c, 0, 69, 100
4, 108720, Note_on_c, 2, 60, 0
4, 108720, Note_on_c, 2, 61, 0
4, 108720, Note_on_c, 0, 69, 0
4, 109440, Note_on_c, 2, 60, 100
4, 109440, Note_on_c, 2, 61, 100
4, 109440, Note_on_c, 0, 69, 100
4, 109680, Note_on_c, 2, 60, 0
4, 109680, Note_on_c, 2, 61, 0
4, 109680, Note_on_c, 0, 69, 0
4, 109920, Note_on_c, 0, 70, 100
4, 110400, Note_on_c, 2, 60, 100
4, 110400, Note_on_c, 2, 61, 100
4, 110640, Note_on_c, 2, 60, 0
4, 110640, Note_on_c, 2, 61, 0
4, 110880, Note_on_c, 0, 70, 0
4, 111360, Note_on_c, 2, 60, 100
4, 111360, Note_on_c, 2, 61, 100
4, 111360, Note_on_c, 0, 68, 100
4, 111600, Note_on_c, 2, 60, 0
4, 111600, Note_on_c, 2, 61, 0
4, 111600, Note_on_c, 0, 68, 0
4, 112320, Note_on_c, 2, 60, 100
4, 112320, Note_on_c, 2, 61, 100
4, 112320, Note_on_c, 0, 70, 100
4, 112560, Note_on_c, 2, 60, 0
4, 112560, Note_on_c, 2, 61, 0
4, 112560, Note_on_c, 0, 70, 0
4, 112800, Note_on_c, 0, 69, 100
4, 113280, Note_on_c, 2, 60, 100
4, 113280, Note_on_c, 2, 61, 100
4, 113520, Note_on_c, 0, 69, 0
4, 113520, Note_on_c, 2, 60, 0
4, 113520, Note_on_c, 2, 61, 0
4, 113760, Note_on_c, 0, 68, 100
4, 114240, Note_on_c, 2, 60, 100
4, 114240, Note_on_c, 2, 61, 100
4, 114480, Note_on_c, 0, 68, 0
4, 114480, Note_on_c, 2, 60, 0
4, 114480, Note_on_c, 2, 61, 0
4, 114720, Note_on_c, 2, 61, 100
4, 114960, Note_on_c, 2, 61, 0
4, 114960, Note_on_c, 2, 61, 100
4, 115200, Note_on_c, 2, 61, 0
4, 115200, Note_on_c, 2, 60, 100
4, 115200, Note_on_c, 2, 61, 100
4, 115200, Note_on_c, 0, 68, 100
4, 115440, Note_on_c, 2, 60, 0
4, 115440, Note_on_c, 2, 61, 0
4, 115440, Note_on_c, 0, 68, 0
4, 115680, Note_on_c, 0, 68, 100
4, 115920, Note_on_c, 0, 68, 0
4, 116160, Note_on_c, 2, 60, 100
4, 116160, Note_on_c, 2, 61, 100
4, 116160, Note_on_c, 0, 70, 100
4, 116400, Note_on_c, 2, 60, 0
4, 116400, Note_on_c, 2, 61, 0
4, 116400, Note_on_c, 0, 70, 0
4, 117120, Note_on_c, 2, 60, 100
4, 117120, Note_on_c, 2, 61, 100
4, 117120, Note_on_c, 0, 68, 100
4, 117360, Note_on_c, 2, 60, 0
4, 117360, Note_on_c, 2, 61, 0
4, 117360, Note_on_c, 0, 68, 0
4, 117600, Note_on_c, 0, 68, 100
4, 117840, Note_on_c, 0, 68, 0
4, 118080, Note_on_c, 2, 60, 100
4, 118080, Note_on_c, 2, 61, 100
4, 118080, Note_on_c, 0, 70, 100
4, 118320, Note_on_c, 2, 60, 0
4, 118320, Note_on_c, 2, 61, 0
4, 118320, Note_on_c, 0, 70, 0
4, 119040, Note_on_c, 2, 60, 100
4, 119040, Note_on_c, 2, 61, 100
4, 119040, Note_on_c, 0, 68, 100
4, 119280, Note_on_c, 2, 60, 0
4, 119280, Note_on_c, 2, 61, 0
4, 119280, Note_on_c, 0, 68, 0
4, 119520, Note_on_c, 0, 68, 100
4, 119760, Note_on_c, 0, 68, 0
4, 120000, Note_on_c, 2, 60, 100
4, 120000, Note_on_c, 2, 61, 100
4, 120000, Note_on_c, 0, 70, 100
4, 120240, Note_on_c, 2, 60, 0
4, 120240, Note_on_c, 2, 61, 0
4, 120240, Note_on_c, 0, 70, 0
4, 120960, Note_on_c, 2, 60, 100
4, 120960, Note_on_c, 2, 61, 100
4, 120960, Note_on_c, 0, 68, 100
4, 121200, Note_on_c, 2, 60, 0
4, 121200, Note_on_c, 2, 61, 0
4, 121200, Note_on_c, 0, 68, 0
4, 121440, Note_on_c, 0, 68, 100
4, 121680, Note_on_c, 0, 68, 0
4, 121920, Note_on_c, 2, 60, 100
4, 121920, Note_on_c, 2, 61, 100
4, 121920, Note_on_c, 0, 70, 100
4, 122160, Note_on_c, 2, 60, 0
4, 122160, Note_on_c, 2, 61, 0
4, 122160, Note_on_c, 0, 70, 0
4, 122880, Note_on_c, 2, 60, 100
4, 122880, Note_on_c, 2, 61, 100
4, 122880, Note_on_c, 0, 69, 100
4, 123120, Note_on_c, 2, 60, 0
4, 123120, Note_on_c, 2, 61, 0
4, 123120, Note_on_c, 0, 69, 0
4, 123360, Note_on_c, 0, 69, 100
4, 123600, Note_on_c, 0, 69, 0
4, 123840, Note_on_c, 2, 60, 100
4, 123840, Note_on_c, 2, 61, 100
4, 123840, Note_on_c, 0, 70, 100
4, 124080, Note_on_c, 2, 60, 0
4, 124080, Note_on_c, 2, 61, 0
4, 124080, Note_on_c, 0, 70, 0
4, 124800, Note_on_c, 2, 60, 100
4, 124800, Note_on_c, 2, 61, 100
4, 124800, Note_on_c, 0, 69, 100
4, 125040, Note_on_c, 2, 60, 0
4, 125040, Note_on_c, 2, 61, 0
4, 125040, Note_on_c, 0, 69, 0
4, 125280, Note_on_c, 0, 69, 100
4, 125520, Note_on_c, 0, 69, 0
4, 125760, Note_on_c, 2, 60, 100
4, 125760, Note_on_c, 2, 61, 100
4, 125760, Note_on_c, 0, 70, 100
4, 126000, Note_on_c, 2, 60, 0
4, 126000, Note_on_c, 2, 61, 0
4, 126000, Note_on_c, 0, 70, 0
4, 126720, Note_on_c, 2, 60, 100
4, 126720, Note_on_c, 2, 61, 100
4, 126720, Note_on_c, 0, 70, 100
4, 126960, Note_on_c, 2, 60, 0
4, 126960, Note_on_c, 2, 61, 0
4, 127680, Note_on_c, 2, 60, 100
4, 127680, Note_on_c, 2, 61, 100
4, 127920, Note_on_c, 2, 60, 0
4, 127920, Note_on_c, 2, 61, 0
4, 128640, Note_on_c, 2, 60, 100
4, 128640, Note_on_c, 2, 61, 100
4, 128880, Note_on_c, 2, 60, 0
4, 128880, Note_on_c, 2, 61, 0
4, 129600, Note_on_c, 0, 70, 0
4, 129600, Note_on_c, 2, 60, 100
4, 129600, Note_on_c, 2, 61, 100
4, 129840, Note_on_c, 2, 60, 0
4, 129840, Note_on_c, 2, 61, 0
4, 130560, Note_on_c, 2, 61, 100
4, 130560, Note_on_c, 2, 60, 100
4, 130560, Note_on_c, 0, 68, 100
4, 130800, Note_on_c, 2, 61, 0
4, 130800, Note_on_c, 2, 60, 0
4, 130800, Note_on_c, 0, 68, 0
4, 131040, Note_on_c, 2, 61, 100
4, 131040, Note_on_c, 0, 68, 100
4, 131280, Note_on_c, 2, 61, 0
4, 131280, Note_on_c, 0, 68, 0
4, 131520, Note_on_c, 2, 61, 100
4, 131760, Note_on_c, 2, 61, 0
4, 132000, Note_on_c, 2, 61, 100
4, 132000, Note_on_c, 0, 68, 100
4, 132240, Note_on_c, 2, 61, 0
4, 132240, Note_on_c, 0, 68, 0
4, 132480, Note_on_c, 2, 61, 100
4, 132480, Note_on_c, 2, 60, 100
4, 132720, Note_on_c, 2, 61, 0
4, 132720, Note_on_c, 2, 60, 0
4, 132960, Note_on_c, 2, 61, 100
4, 132960, Note_on_c, 0, 68, 100
4, 133200, Note_on_c, 2, 61, 0
4, 133200, Note_on_c, 0, 68, 0
4, 133440, Note_on_c, 2, 61, 100
4, 133440, Note_on_c, 0, 70, 100
4, 133680, Note_on_c, 2, 61, 0
4, 133680, Note_on_c, 0, 70, 0
4, 133920, Note_on_c, 2, 61, 100
4, 134160, Note_on_c, 2, 61, 0
4, 134400, Note_on_c, 2, 61, 100
4, 134400, Note_on_c, 2, 60, 100
4, 134400, Note_on_c, 0, 68, 100
4, 134640, Note_on_c, 2, 61, 0
4, 134640, Note_on_c, 2, 60, 0
4, 134640, Note_on_c, 0, 68, 0
4, 134880, Note_on_c, 2, 61, 100
4, 134880, Note_on_c, 0, 68, 100
4, 135120, Note_on_c, 2, 61, 0
4, 135120, Note_on_c, 0, 68, 0
4, 135360, Note_on_c, 2, 61, 100
4, 135600, Note_on_c, 2, 61, 0
4, 135840, Note_on_c, 2, 61, 100
4, 135840, Note_on_c, 0, 68, 100
4, 136080, Note_on_c, 2, 61, 0
4, 136080, Note_on_c, 0, 68, 0
4, 136320, Note_on_c, 2, 61, 100
4, 136320, Note_on_c, 2, 60, 100
4, 136560, Note_on_c, 2, 61, 0
4, 136560, Note_on_c, 2, 60, 0
4, 136800, Note_on_c, 2, 61, 100
4, 136800, Note_on_c, 0, 68, 100
4, 137040, Note_on_c, 2, 61, 0
4, 137040, Note_on_c, 0, 68, 0
4, 137280, Note_on_c, 2, 61, 100
4, 137280, Note_on_c, 0, 69, 100
4, 137520, Note_on_c, 2, 61, 0
4, 138000, Note_on_c, 0, 69, 0
4, 138240, Note_on_c, 2, 61, 100
4, 138240, Note_on_c, 2, 60, 100
4, 138240, Note_on_c, 0, 68, 100
4, 138480, Note_on_c, 2, 61, 0
4, 138480, Note_on_c, 2, 60, 0
4, 138480, Note_on_c, 0, 68, 0
4, 138720, Note_on_c, 2, 61, 100
4, 138720, Note_on_c, 0, 68, 100
4, 138960, Note_on_c, 2, 61, 0
4, 138960, Note_on_c, 0, 68, 0
4, 139200, Note_on_c, 2, 61, 100
4, 139440, Note_on_c, 2, 61, 0
4, 139680, Note_on_c, 2, 61, 100
4, 139680, Note_on_c, 0, 68, 100
4, 139920, Note_on_c, 2, 61, 0
4, 139920, Note_on_c, 0, 68, 0
4, 140160, Note_on_c, 2, 61, 100
4, 140160, Note_on_c, 2, 60, 100
4, 140400, Note_on_c, 2, 61, 0
4, 140400, Note_on_c, 2, 60, 0
4, 140640, Note_on_c, 2, 61, 100
4, 140640, Note_on_c, 0, 68, 100
4, 140880, Note_on_c, 2, 61, 0
4, 140880, Note_on_c, 0, 68, 0
4, 141120, Note_on_c, 2, 61, 100
4, 141120, Note_on_c, 0, 70, 100
4, 141360, Note_on_c, 2, 61, 0
4, 141360, Note_on_c, 0, 70, 0
4, 141600, Note_on_c, 2, 61, 100
4, 141840, Note_on_c, 2, 61, 0
4, 142080, Note_on_c, 2, 61, 100
4, 142080, Note_on_c, 2, 60, 100
4, 142080, Note_on_c, 0, 68, 100
4, 142320, Note_on_c, 2, 61, 0
4, 142320, Note_on_c, 2, 60, 0
4, 142320, Note_on_c, 0, 68, 0
4, 142560, Note_on_c, 2, 61, 100
4, 142560, Note_on_c, 0, 68, 100
4, 142800, Note_on_c, 2, 61, 0
4, 142800, Note_on_c, 0, 68, 0
4, 143040, Note_on_c, 2, 61, 100
4, 143280, Note_on_c, 2, 61, 0
4, 143520, Note_on_c, 2, 61, 100
4, 143520, Note_on_c, 0, 68, 100
4, 143760, Note_on_c, 2, 61, 0
4, 143760, Note_on_c, 0, 68, 0
4, 144000, Note_on_c, 2, 61, 100
4, 144000, Note_on_c, 2, 60, 100
4, 144240, Note_on_c, 2, 61, 0
4, 144240, Note_on_c, 2, 60, 0
4, 144480, Note_on_c, 2, 61, 100
4, 144480, Note_on_c, 0, 68, 100
4, 144720, Note_on_c, 2, 61, 0
4, 144720, Note_on_c, 0, 68, 0
4, 144720, Note_on_c, 2, 61, 100
4, 144960, Note_on_c, 2, 61, 0
4, 144960, Note_on_c, 2, 61, 100
4, 144960, Note_on_c, 0, 69, 100
4, 145200, Note_on_c, 2, 61, 0
4, 145440, Note_on_c, 2, 61, 100
4, 145680, Note_on_c, 0, 69, 0
4, 145680, Note_on_c, 2, 61, 0
4, 145680, Note_on_c, 2, 61, 100
4, 145920, Note_on_c, 2, 61, 0
4, 145920, Note_on_c, 2, 61, 100
4, 145920, Note_on_c, 2, 60, 100
4, 145920, Note_on_c, 0, 68, 100
4, 146160, Note_on_c, 2, 61, 0
4, 146160, Note_on_c, 2, 60, 0
4, 146160, Note_on_c, 0, 68, 0
4, 146400, Note_on_c, 2, 61, 100
4, 146400, Note_on_c, 0, 68, 100
4, 146640, Note_on_c, 2, 61, 0
4, 146640, Note_on_c, 0, 68, 0
4, 146880, Note_on_c, 2, 61, 100
4, 147120, Note_on_c, 2, 61, 0
4, 147360, Note_on_c, 2, 61, 100
4, 147360, Note_on_c, 0, 68, 100
4, 147600, Note_on_c, 2, 61, 0
4, 147600, Note_on_c, 0, 68, 0
4, 147840, Note_on_c, 2, 61, 100
4, 147840, Note_on_c, 2, 60, 100
4, 148080, Note_on_c, 2, 61, 0
4, 148080, Note_on_c, 2, 60, 0
4, 148320, Note_on_c, 2, 61, 100
4, 148320, Note_on_c, 0, 68, 100
4, 148560, Note_on_c, 2, 61, 0
4, 148560, Note_on_c, 0, 68, 0
4, 148800, Note_on_c, 2, 61, 100
4, 148800, Note_on_c, 0, 70, 100
4, 149040, Note_on_c, 2, 61, 0
4, 149040, Note_on_c, 0, 70, 0
4, 149280, Note_on_c, 2, 61, 100
4, 149520, Note_on_c, 2, 61, 0
4, 149760, Note_on_c, 2, 61, 100
4, 149760, Note_on_c, 2, 60, 100
4, 149760, Note_on_c, 0, 68, 100
4, 150000, Note_on_c, 2, 61, 0
4, 150000, Note_on_c, 2, 60, 0
4, 150000, Note_on_c, 0, 68, 0
4, 150240, Note_on_c, 2, 61, 100
4, 150240, Note_on_c, 0, 68, 100
4, 150480, Note_on_c, 2, 61, 0
4, 150480, Note_on_c, 0, 68, 0
4, 150720, Note_on_c, 2, 61, 100
4, 150960, Note_on_c, 2, 61, 0
4, 151200, Note_on_c, 2, 61, 100
4, 151200, Note_on_c, 0, 68, 100
4, 151440, Note_on_c, 2, 61, 0
4, 151440, Note_on_c, 0, 68, 0
4, 151680, Note_on_c, 2, 61, 100
4, 151680, Note_on_c, 2, 60, 100
4, 151920, Note_on_c, 2, 61, 0
4, 151920, Note_on_c, 2, 60, 0
4, 152160, Note_on_c, 2, 61, 100
4, 152160, Note_on_c, 0, 68, 100
4, 152400, Note_on_c, 2, 61, 0
4, 152400, Note_on_c, 0, 68, 0
4, 152640, Note_on_c, 2, 61, 100
4, 152640, Note_on_c, 0, 69, 100
4, 152880, Note_on_c, 2, 61, 0
4, 153360, Note_on_c, 0, 69, 0
4, 153600, Note_on_c, 2, 61, 100
4, 153600, Note_on_c, 2, 60, 100
4, 153600, Note_on_c, 0, 68, 100
4, 153840, Note_on_c, 2, 61, 0
4, 153840, Note_on_c, 2, 60, 0
4, 153840, Note_on_c, 0, 68, 0
4, 154080, Note_on_c, 2, 61, 100
4, 154080, Note_on_c, 0, 68, 100
4, 154320, Note_on_c, 2, 61, 0
4, 154320, Note_on_c, 0, 68, 0
4, 154560, Note_on_c, 2, 61, 100
4, 154800, Note_on_c, 2, 61, 0
4, 155040, Note_on_c, 2, 61, 100
4, 155040, Note_on_c, 0, 68, 100
4, 155280, Note_on_c, 2, 61, 0
4, 155280, Note_on_c, 0, 68, 0
4, 155520, Note_on_c, 2, 61, 100
4, 155520, Note_on_c, 2, 60, 100
4, 155760, Note_on_c, 2, 61, 0
4, 155760, Note_on_c, 2, 60, 0
4, 156000, Note_on_c, 2, 61, 100
4, 156000, Note_on_c, 0, 68, 100
4, 156240, Note_on_c, 2, 61, 0
4, 156240, Note_on_c, 0, 68, 0
4, 156480, Note_on_c, 2, 61, 100
4, 156480, Note_on_c, 0, 70, 100
4, 156720, Note_on_c, 2, 61, 0
4, 156720, Note_on_c, 0, 70, 0
4, 156960, Note_on_c, 2, 61, 100
4, 157200, Note_on_c, 2, 61, 0
4, 157440, Note_on_c, 2, 61, 100
4, 157440, Note_on_c, 2, 60, 100
4, 157440, Note_on_c, 0, 68, 100
4, 157680, Note_on_c, 2, 61, 0
4, 157680, Note_on_c, 2, 60, 0
4, 157680, Note_on_c, 0, 68, 0
4, 157920, Note_on_c, 2, 61, 100
4, 157920, Note_on_c, 0, 68, 100
4, 158160, Note_on_c, 2, 61, 0
4, 158160, Note_on_c, 0, 68, 0
4, 158400, Note_on_c, 2, 61, 100
4, 158640, Note_on_c, 2, 61, 0
4, 158880, Note_on_c, 2, 61, 100
4, 158880, Note_on_c, 0, 68, 100
4, 159120, Note_on_c, 2, 61, 0
4, 159120, Note_on_c, 0, 68, 0
4, 159360, Note_on_c, 2, 61, 100
4, 159360, Note_on_c, 2, 60, 100
4, 159600, Note_on_c, 2, 61, 0
4, 159600, Note_on_c, 2, 60, 0
4, 159840, Note_on_c, 2, 61, 100
4, 159840, Note_on_c, 0, 68, 100
4, 160080, Note_on_c, 2, 61, 0
4, 160080, Note_on_c, 0, 68, 0
4, 160080, Note_on_c, 2, 61, 100
4, 160320, Note_on_c, 2, 61, 0
4, 160320, Note_on_c, 2, 61, 100
4, 160320, Note_on_c, 0, 69, 100
4, 160560, Note_on_c, 2, 61, 0
4, 160800, Note_on_c, 2, 61, 100
4, 161040, Note_on_c, 0, 69, 0
4, 161040, Note_on_c, 2, 61, 0
4, 161040, Note_on_c, 2, 61, 100
4, 161280, Note_on_c, 2, 61, 0
4, 161280, Note_on_c, 2, 61, 100
4, 161280, Note_on_c, 2, 60, 100
4, 161280, Note_on_c, 0, 68, 100
4, 161520, Note_on_c, 2, 61, 0
4, 161520, Note_on_c, 2, 60, 0
4, 161520, Note_on_c, 0, 68, 0
4, 161760, Note_on_c, 2, 61, 100
4, 161760, Note_on_c, 0, 68, 100
4, 162000, Note_on_c, 2, 61, 0
4, 162240, Note_on_c, 2, 61, 100
4, 162480, Note_on_c, 2, 61, 0
4, 163200, Note_on_c, 2, 61, 100
4, 163200, Note_on_c, 2, 60, 100
4, 163440, Note_on_c, 2, 61, 0
4, 163440, Note_on_c, 2, 60, 0
4, 164160, Note_on_c, 2, 61, 100
4, 164400, Note_on_c, 2, 61, 0
4, 164640, Note_on_c, 0, 68, 0
4, 165120, Note_on_c, 2, 61, 100
4, 165120, Note_on_c, 2, 60, 100
4, 165120, Note_on_c, 0, 69, 100
4, 165360, Note_on_c, 2, 61, 0
4, 165360, Note_on_c, 2, 60, 0
4, 165360, Note_on_c, 0, 69, 0
4, 166080, Note_on_c, 2, 61, 100
4, 166080, Note_on_c, 0, 70, 100
4, 166320, Note_on_c, 2, 61, 0
4, 167040, Note_on_c, 2, 61, 100
4, 167040, Note_on_c, 2, 60, 100
4, 167280, Note_on_c, 2, 61, 0
4, 167280, Note_on_c, 2, 60, 0
4, 167520, Note_on_c, 0, 70, 0
4, 168000, Note_on_c, 2, 61, 100
4, 168000, Note_on_c, 0, 69, 100
4, 168240, Note_on_c, 2, 61, 0
4, 168240, Note_on_c, 0, 69, 0
4, 168480, Note_on_c, 2, 61, 100
4, 168720, Note_on_c, 2, 61, 0
4, 168960, Note_on_c, 2, 61, 100
4, 168960, Note_on_c, 2, 60, 100
4, 168960, Note_on_c, 0, 68, 100
4, 169200, Note_on_c, 2, 61, 0
4, 169200, Note_on_c, 2, 60, 0
4, 169200, Note_on_c, 0, 68, 0
4, 169440, Note_on_c, 2, 61, 100
4, 169680, Note_on_c, 2, 61, 0
4, 169920, Note_on_c, 2, 61, 100
4, 169920, Note_on_c, 0, 69, 100
4, 170160, Note_on_c, 2, 61, 0
4, 170880, Note_on_c, 2, 61, 100
4, 170880, Note_on_c, 2, 60, 100
4, 171120, Note_on_c, 2, 61, 0
4, 171120, Note_on_c, 2, 60, 0
4, 171360, Note_on_c, 0, 69, 0
4, 171840, Note_on_c, 2, 61, 100
4, 171840, Note_on_c, 0, 69, 100
4, 172080, Note_on_c, 2, 61, 0
4, 172080, Note_on_c, 0, 69, 0
4, 172800, Note_on_c, 2, 61, 100
4, 172800, Note_on_c, 2, 60, 100
4, 172800, Note_on_c, 0, 68, 100
4, 173040, Note_on_c, 2, 61, 0
4, 173040, Note_on_c, 2, 60, 0
4, 173040, Note_on_c, 0, 68, 0
4, 173760, Note_on_c, 2, 61, 100
4, 173760, Note_on_c, 0, 69, 100
4, 174000, Note_on_c, 2, 61, 0
4, 174720, Note_on_c, 2, 61, 100
4, 174720, Note_on_c, 2, 60, 100
4, 174960, Note_on_c, 2, 61, 0
4, 174960, Note_on_c, 2, 60, 0
4, 175200, Note_on_c, 0, 69, 0
4, 175680, Note_on_c, 2, 61, 100
4, 175680, Note_on_c, 0, 68, 100
4, 175920, Note_on_c, 2, 61, 0
4, 175920, Note_on_c, 0, 68, 0
4, 176160, Note_on_c, 2, 61, 100
4, 176400, Note_on_c, 2, 61, 0
4, 176640, Note_on_c, 2, 61, 100
4, 176640, Note_on_c, 2, 60, 100
4, 176640, Note_on_c, 0, 68, 100
4, 176880, Note_on_c, 2, 61, 0
4, 176880, Note_on_c, 2, 60, 0
4, 177120, Note_on_c, 2, 61, 100
4, 177360, Note_on_c, 2, 61, 0
4, 177600, Note_on_c, 2, 61, 100
4, 177840, Note_on_c, 2, 61, 0
4, 178560, Note_on_c, 2, 61, 100
4, 178560, Note_on_c, 2, 60, 100
4, 178800, Note_on_c, 2, 61, 0
4, 178800, Note_on_c, 2, 60, 0
4, 179520, Note_on_c, 2, 61, 100
4, 179760, Note_on_c, 2, 61, 0
4, 180000, Note_on_c, 0, 68, 0
4, 180480, Note_on_c, 2, 61, 100
4, 180480, Note_on_c, 2, 60, 100
4, 180480, Note_on_c, 0, 69, 100
4, 180720, Note_on_c, 2, 61, 0
4, 180720, Note_on_c, 2, 60, 0
4, 180720, Note_on_c, 0, 69, 0
4, 181440, Note_on_c, 2, 61, 100
4, 181440, Note_on_c, 0, 70, 100
4, 181680, Note_on_c, 2, 61, 0
4, 182400, Note_on_c, 2, 61, 100
4, 182400, Note_on_c, 2, 60, 100
4, 182640, Note_on_c, 2, 61, 0
4, 182640, Note_on_c, 2, 60, 0
4, 182880, Note_on_c, 0, 70, 0
4, 183360, Note_on_c, 2, 61, 100
4, 183360, Note_on_c, 0, 69, 100
4, 183600, Note_on_c, 2, 61, 0
4, 183600, Note_on_c, 0, 69, 0
4, 183840, Note_on_c, 2, 61, 100
4, 184080, Note_on_c, 2, 61, 0
4, 184320, Note_on_c, 2, 61, 100
4, 184320, Note_on_c, 2, 60, 100
4, 184320, Note_on_c, 0, 68, 100
4, 184560, Note_on_c, 2, 61, 0
4, 184560, Note_on_c, 2, 60, 0
4, 184560, Note_on_c, 0, 68, 0
4, 184800, Note_on_c, 2, 61, 100
4, 185040, Note_on_c, 2, 61, 0
4, 185280, Note_on_c, 2, 61, 100
4, 185280, Note_on_c, 0, 69, 100
4, 185520, Note_on_c, 2, 61, 0
4, 186240, Note_on_c, 2, 61, 100
4, 186240, Note_on_c, 2, 60, 100
4, 186480, Note_on_c, 2, 61, 0
4, 186480, Note_on_c, 2, 60, 0
4, 186720, Note_on_c, 0, 69, 0
4, 187200, Note_on_c, 2, 61, 100
4, 187200, Note_on_c, 0, 69, 100
4, 187440, Note_on_c, 2, 61, 0
4, 187440, Note_on_c, 0, 69, 0
4, 188160, Note_on_c, 2, 61, 100
4, 188160, Note_on_c, 2, 60, 100
4, 188160, Note_on_c, 0, 68, 100
4, 188400, Note_on_c, 2, 61, 0
4, 188400, Note_on_c, 2, 60, 0
4, 188400, Note_on_c, 0, 68, 0
4, 189120, Note_on_c, 2, 61, 100
4, 189120, Note_on_c, 0, 69, 100
4, 189360, Note_on_c, 2, 61, 0
4, 190080, Note_on_c, 2, 61, 100
4, 190080, Note_on_c, 2, 60, 100
4, 190320, Note_on_c, 2, 61, 0
4, 190320, Note_on_c, 2, 60, 0
4, 190560, Note_on_c, 0, 69, 0
4, 191040, Note_on_c, 2, 61, 100
4, 191040, Note_on_c, 0, 68, 100
4, 191280, Note_on_c, 2, 61, 0
4, 191280, Note_on_c, 0, 68, 0
4, 191520, Note_on_c, 2, 61, 100
4, 191760, Note_on_c, 2, 61, 0
4, 192000, Note_on_c, 2, 61, 100
4, 192000, Note_on_c, 2, 60, 100
4, 192000, Note_on_c, 0, 68, 100
4, 192240, Note_on_c, 2, 61, 0
4, 192240, Note_on_c, 2, 60, 0
4, 192480, Note_on_c, 2, 61, 100
4, 192720, Note_on_c, 2, 61, 0
4, 192960, Note_on_c, 2, 61, 100
4, 193200, Note_on_c, 2, 61, 0
4, 193920, Note_on_c, 2, 61, 100
4, 193920, Note_on_c, 2, 60, 100
4, 194160, Note_on_c, 2, 61, 0
4, 194160, Note_on_c, 2, 60, 0
4, 194880, Note_on_c, 2, 61, 100
4, 195120, Note_on_c, 2, 61, 0
4, 195360, Note_on_c, 0, 68, 0
4, 195840, Note_on_c, 2, 61, 100
4, 195840, Note_on_c, 2, 60, 100
4, 195840, Note_on_c, 0, 69, 100
4, 196080, Note_on_c, 2, 61, 0
4, 196080, Note_on_c, 2, 60, 0
4, 196080, Note_on_c, 0, 69, 0
4, 196800, Note_on_c, 2, 61, 100
4, 196800, Note_on_c, 0, 70, 100
4, 197040, Note_on_c, 2, 61, 0
4, 197760, Note_on_c, 2, 61, 100
4, 197760, Note_on_c, 2, 60, 100
4, 198000, Note_on_c, 2, 61, 0
4, 198000, Note_on_c, 2, 60, 0
4, 198240, Note_on_c, 0, 70, 0
4, 198720, Note_on_c, 2, 61, 100
4, 198720, Note_on_c, 0, 69, 100
4, 198960, Note_on_c, 2, 61, 0
4, 198960, Note_on_c, 0, 69, 0
4, 199200, Note_on_c, 2, 61, 100
4, 199440, Note_on_c, 2, 61, 0
4, 199680, Note_on_c, 2, 61, 100
4, 199680, Note_on_c, 2, 60, 100
4, 199680, Note_on_c, 0, 68, 100
4, 199920, Note_on_c, 2, 61, 0
4, 199920, Note_on_c, 2, 60, 0
4, 199920, Note_on_c, 0, 68, 0
4, 200160, Note_on_c, 2, 61, 100
4, 200400, Note_on_c, 2, 61, 0
4, 200640, Note_on_c, 2, 61, 100
4, 200640, Note_on_c, 0, 69, 100
4, 200880, Note_on_c, 2, 61, 0
4, 201600, Note_on_c, 2, 61, 100
4, 201600, Note_on_c, 2, 60, 100
4, 201840, Note_on_c, 2, 61, 0
4, 201840, Note_on_c, 2, 60, 0
4, 202080, Note_on_c, 0, 69, 0
4, 202560, Note_on_c, 2, 61, 100
4, 202560, Note_on_c, 0, 69, 100
4, 202800, Note_on_c, 2, 61, 0
4, 202800, Note_on_c, 0, 69, 0
4, 203520, Note_on_c, 2, 61, 100
4, 203520, Note_on_c, 2, 60, 100
4, 203520, Note_on_c, 0, 68, 100
4, 203760, Note_on_c, 2, 61, 0
4, 203760, Note_on_c, 2, 60, 0
4, 203760, Note_on_c, 0, 68, 0
4, 204480, Note_on_c, 2, 61, 100
4, 204480, Note_on_c, 0, 69, 100
4, 204720, Note_on_c, 2, 61, 0
4, 205440, Note_on_c, 2, 61, 100
4, 205440, Note_on_c, 2, 60, 100
4, 205680, Note_on_c, 2, 61, 0
4, 205680, Note_on_c, 2, 60, 0
4, 205920, Note_on_c, 0, 69, 0
4, 206400, Note_on_c, 2, 61, 100
4, 206400, Note_on_c, 0, 68, 100
4, 206640, Note_on_c, 2, 61, 0
4, 206640, Note_on_c, 0, 68, 0
4, 206880, Note_on_c, 2, 61, 100
4, 207120, Note_on_c, 2, 61, 0
4, 207360, Note_on_c, 2, 61, 100
4, 207360, Note_on_c, 2, 60, 100
4, 207360, Note_on_c, 0, 68, 100
4, 207600, Note_on_c, 2, 61, 0
4, 207600, Note_on_c, 2, 60, 0
4, 207840, Note_on_c, 2, 61, 100
4, 208080, Note_on_c, 2, 61, 0
4, 208320, Note_on_c, 2, 61, 100
4, 208560, Note_on_c, 2, 61, 0
4, 209280, Note_on_c, 2, 61, 100
4, 209280, Note_on_c, 2, 60, 100
4, 209520, Note_on_c, 2, 61, 0
4, 209520, Note_on_c, 2, 60, 0
4, 210240, Note_on_c, 2, 61, 100
4, 210480, Note_on_c, 2, 61, 0
4, 210720, Note_on_c, 0, 68, 0
4, 211200, Note_on_c, 2, 61, 100
4, 211200, Note_on_c, 2, 60, 100
4, 211200, Note_on_c, 0, 69, 100
4, 211440, Note_on_c, 2, 61, 0
4, 211440, Note_on_c, 2, 60, 0
4, 211440, Note_on_c, 0, 69, 0
4, 212160, Note_on_c, 2, 61, 100
4, 212160, Note_on_c, 0, 70, 100
4, 212400, Note_on_c, 2, 61, 0
4, 213120, Note_on_c, 2, 61, 100
4, 213120, Note_on_c, 2, 60, 100
4, 213360, Note_on_c, 2, 61, 0
4, 213360, Note_on_c, 2, 60, 0
4, 213600, Note_on_c, 0, 70, 0
4, 214080, Note_on_c, 2, 61, 100
4, 214080, Note_on_c, 0, 69, 100
4, 214320, Note_on_c, 2, 61, 0
4, 214320, Note_on_c, 0, 69, 0
4, 214560, Note_on_c, 2, 61, 100
4, 214800, Note_on_c, 2, 61, 0
4, 215040, Note_on_c, 2, 61, 100
4, 215040, Note_on_c, 2, 60, 100
4, 215040, Note_on_c, 0, 68, 100
4, 215280, Note_on_c, 2, 61, 0
4, 215280, Note_on_c, 2, 60, 0
4, 215280, Note_on_c, 0, 68, 0
4, 215520, Note_on_c, 2, 61, 100
4, 215760, Note_on_c, 2, 61, 0
4, 216000, Note_on_c, 2, 61, 100
4, 216000, Note_on_c, 0, 69, 100
4, 216240, Note_on_c, 2, 61, 0
4, 216960, Note_on_c, 2, 61, 100
4, 216960, Note_on_c, 2, 60, 100
4, 217200, Note_on_c, 2, 61, 0
4, 217200, Note_on_c, 2, 60, 0
4, 217440, Note_on_c, 0, 69, 0
4, 217920, Note_on_c, 2, 61, 100
4, 217920, Note_on_c, 0, 69, 100
4, 218160, Note_on_c, 2, 61, 0
4, 218160, Note_on_c, 0, 69, 0
4, 218880, Note_on_c, 2, 61, 100
4, 218880, Note_on_c, 2, 60, 100
4, 218880, Note_on_c, 0, 68, 100
4, 219120, Note_on_c, 2, 61, 0
4, 219120, Note_on_c, 2, 60, 0
4, 219120, Note_on_c, 0, 68, 0
4, 219840, Note_on_c, 2, 61, 100
4, 219840, Note_on_c, 0, 69, 100
4, 220080, Note_on_c, 2, 61, 0
4, 220800, Note_on_c, 2, 61, 100
4, 220800, Note_on_c, 2, 60, 100
4, 221040, Note_on_c, 2, 61, 0
4, 221040, Note_on_c, 2, 60, 0
4, 221280, Note_on_c, 0, 69, 0
4, 221760, Note_on_c, 2, 61, 100
4, 221760, Note_on_c, 0, 68, 100
4, 222000, Note_on_c, 2, 61, 0
4, 222000, Note_on_c, 0, 68, 0
4, 222240, Note_on_c, 2, 61, 100
4, 222480, Note_on_c, 2, 61, 0
4, 222720, Note_on_c, 2, 61, 100
4, 222720, Note_on_c, 2, 60, 100
4, 222720, Note_on_c, 0, 68, 100
4, 222960, Note_on_c, 2, 61, 0
4, 222960, Note_on_c, 2, 60, 0
4, 222960, Note_on_c, 0, 68, 0
4, 223200, Note_on_c, 2, 61, 100
4, 223440, Note_on_c, 2, 61, 0
4, 223680, Note_on_c, 2, 61, 100
4, 223680, Note_on_c, 2, 60, 100
4, 223680, Note_on_c, 0, 68, 100
4, 223920, Note_on_c, 2, 61, 0
4, 223920, Note_on_c, 2, 60, 0
4, 223920, Note_on_c, 0, 68, 0
4, 224640, Note_on_c, 2, 61, 100
4, 224640, Note_on_c, 2, 60, 100
4, 224640, Note_on_c, 0, 69, 100
4, 224880, Note_on_c, 2, 61, 0
4, 224880, Note_on_c, 2, 60, 0
4, 224880, Note_on_c, 0, 69, 0
4, 225600, Note_on_c, 2, 61, 100
4, 225600, Note_on_c, 2, 60, 100
4, 225600, Note_on_c, 0, 69, 100
4, 225840, Note_on_c, 2, 61, 0
4, 225840, Note_on_c, 2, 60, 0
4, 225840, Note_on_c, 0, 69, 0
4, 226560, Note_on_c, 2, 61, 100
4, 226560, Note_on_c, 2, 60, 100
4, 226560, Note_on_c, 0, 70, 100
4, 226800, Note_on_c, 2, 61, 0
4, 226800, Note_on_c, 2, 60, 0
4, 226800, Note_on_c, 0, 70, 0
4, 227520, Note_on_c, 2, 61, 100
4, 227520, Note_on_c, 2, 60, 100
4, 227520, Note_on_c, 0, 70, 100
4, 227760, Note_on_c, 2, 61, 0
4, 227760, Note_on_c, 2, 60, 0
4, 227760, Note_on_c, 0, 70, 0
4, 228000, Note_on_c, 0, 70, 100
4, 228480, Note_on_c, 2, 61, 100
4, 228480, Note_on_c, 2, 60, 100
4, 228720, Note_on_c, 2, 61, 0
4, 228720, Note_on_c, 2, 60, 0
4, 229440, Note_on_c, 2, 61, 100
4, 229440, Note_on_c, 2, 60, 100
4, 229680, Note_on_c, 2, 61, 0
4, 229680, Note_on_c, 2, 60, 0
4, 229920, Note_on_c, 0, 70, 0
4, 229920, Note_on_c, 2, 61, 100
4, 230160, Note_on_c, 2, 61, 0
4, 230160, Note_on_c, 2, 61, 100
4, 230400, Note_on_c, 2, 61, 0
4, 230400, Note_on_c, 2, 61, 100
4, 230400, Note_on_c, 2, 60, 100
4, 230400, Note_on_c, 0, 69, 100
4, 230640, Note_on_c, 2, 61, 0
4, 230640, Note_on_c, 2, 60, 0
4, 230640, Note_on_c, 0, 69, 0
4, 230880, Note_on_c, 2, 61, 100
4, 231120, Note_on_c, 2, 61, 0
4, 231360, Note_on_c, 2, 61, 100
4, 231360, Note_on_c, 2, 60, 100
4, 231600, Note_on_c, 2, 61, 0
4, 231600, Note_on_c, 2, 60, 0
4, 231840, Note_on_c, 0, 69, 100
4, 232080, Note_on_c, 0, 69, 0
4, 232320, Note_on_c, 2, 61, 100
4, 232320, Note_on_c, 2, 60, 100
4, 232560, Note_on_c, 2, 61, 0
4, 232560, Note_on_c, 2, 60, 0
4, 233280, Note_on_c, 2, 61, 100
4, 233280, Note_on_c, 2, 60, 100
4, 233280, Note_on_c, 0, 69, 100
4, 233520, Note_on_c, 2, 61, 0
4, 233520, Note_on_c, 2, 60, 0
4, 233520, Note_on_c, 0, 69, 0
4, 234240, Note_on_c, 2, 61, 100
4, 234240, Note_on_c, 2, 60, 100
4, 234240, Note_on_c, 0, 69, 100
4, 234480, Note_on_c, 2, 61, 0
4, 234480, Note_on_c, 2, 60, 0
4, 234480, Note_on_c, 0, 69, 0
4, 235200, Note_on_c, 2, 61, 100
4, 235200, Note_on_c, 2, 60, 100
4, 235200, Note_on_c, 0, 69, 100
4, 235440, Note_on_c, 2, 61, 0
4, 235440, Note_on_c, 2, 60, 0
4, 235440, Note_on_c, 0, 69, 0
4, 235680, Note_on_c, 0, 70, 100
4, 235920, Note_on_c, 0, 70, 0
4, 236160, Note_on_c, 2, 61, 100
4, 236160, Note_on_c, 2, 60, 100
4, 236160, Note_on_c, 0, 68, 100
4, 236400, Note_on_c, 2, 61, 0
4, 236400, Note_on_c, 2, 60, 0
4, 237120, Note_on_c, 2, 61, 100
4, 237120, Note_on_c, 2, 60, 100
4, 237360, Note_on_c, 0, 68, 0
4, 237360, Note_on_c, 2, 61, 0
4, 237360, Note_on_c, 2, 60, 0
4, 237600, Note_on_c, 2, 61, 100
4, 237840, Note_on_c, 2, 61, 0
4, 237840, Note_on_c, 2, 61, 100
4, 238080, Note_on_c, 2, 61, 0
4, 238080, Note_on_c, 2, 61, 100
4, 238080, Note_on_c, 2, 60, 100
4, 238080, Note_on_c, 0, 69, 100
4, 238320, Note_on_c, 2, 61, 0
4, 238320, Note_on_c, 2, 60, 0
4, 238320, Note_on_c, 0, 69, 0
4, 238560, Note_on_c, 2, 61, 100
4, 238800, Note_on_c, 2, 61, 0
4, 239040, Note_on_c, 2, 61, 100
4, 239040, Note_on_c, 2, 60, 100
4, 239040, Note_on_c, 0, 70, 100
4, 239280, Note_on_c, 2, 61, 0
4, 239280, Note_on_c, 2, 60, 0
4, 239280, Note_on_c, 0, 70, 0
4, 240000, Note_on_c, 2, 61, 100
4, 240000, Note_on_c, 2, 60, 100
4, 240000, Note_on_c, 0, 69, 100
4, 240240, Note_on_c, 2, 61, 0
4, 240240, Note_on_c, 2, 60, 0
4, 240240, Note_on_c, 0, 69, 0
4, 240960, Note_on_c, 2, 61, 100
4, 240960, Note_on_c, 2, 60, 100
4, 240960, Note_on_c, 0, 68, 100
4, 241200, Note_on_c, 2, 61, 0
4, 241200, Note_on_c, 2, 60, 0
4, 241200, Note_on_c, 0, 68, 0
4, 241440, Note_on_c, 0, 68, 100
4, 241680, Note_on_c, 0, 68, 0
4, 241920, Note_on_c, 2, 61, 100
4, 241920, Note_on_c, 2, 60, 100
4, 241920, Note_on_c, 0, 69, 100
4, 242160, Note_on_c, 2, 61, 0
4, 242160, Note_on_c, 2, 60, 0
4, 242160, Note_on_c, 0, 69, 0
4, 242880, Note_on_c, 2, 61, 100
4, 242880, Note_on_c, 2, 60, 100
4, 242880, Note_on_c, 0, 70, 100
4, 243120, Note_on_c, 2, 61, 0
4, 243120, Note_on_c, 2, 60, 0
4, 243120, Note_on_c, 0, 70, 0
4, 243840, Note_on_c, 2, 61, 100
4, 243840, Note_on_c, 2, 60, 100
4, 243840, Note_on_c, 0, 69, 100
4, 244080, Note_on_c, 2, 61, 0
4, 244080, Note_on_c, 2, 60, 0
4, 244080, Note_on_c, 0, 69, 0
4, 244800, Note_on_c, 2, 61, 100
4, 244800, Note_on_c, 2, 60, 100
4, 244800, Note_on_c, 0, 68, 100
4, 245040, Note_on_c, 2, 61, 0
4, 245040, Note_on_c, 2, 60, 0
4, 245040, Note_on_c, 0, 68, 0
4, 245280, Note_on_c, 2, 61, 100
4, 245280, Note_on_c, 0, 68, 100
4, 245520, Note_on_c, 2, 61, 0
4, 245520, Note_on_c, 0, 68, 0
4, 245520, Note_on_c, 2, 61, 100
4, 245760, Note_on_c, 2, 61, 0
4, 245760, Note_on_c, 2, 61, 100
4, 245760, Note_on_c, 2, 60, 100
4, 245760, Note_on_c, 0, 69, 100
4, 246000, Note_on_c, 2, 61, 0
4, 246000, Note_on_c, 2, 60, 0
4, 246000, Note_on_c, 0, 69, 0
4, 246240, Note_on_c, 2, 61, 100
4, 246480, Note_on_c, 2, 61, 0
4, 246720, Note_on_c, 2, 61, 100
4, 246720, Note_on_c, 2, 60, 100
4, 246720, Note_on_c, 0, 70, 100
4, 246960, Note_on_c, 2, 61, 0
4, 246960, Note_on_c, 2, 60, 0
4, 246960, Note_on_c, 0, 70, 0
4, 247680, Note_on_c, 2, 61, 100
4, 247680, Note_on_c, 2, 60, 100
4, 247680, Note_on_c, 0, 69, 100
4, 247920, Note_on_c, 2, 61, 0
4, 247920, Note_on_c, 2, 60, 0
4, 247920, Note_on_c, 0, 69, 0
4, 248640, Note_on_c, 2, 61, 100
4, 248640, Note_on_c, 2, 60, 100
4, 248640, Note_on_c, 0, 68, 100
4, 248880, Note_on_c, 2, 61, 0
4, 248880, Note_on_c, 2, 60, 0
4, 248880, Note_on_c, 0, 68, 0
4, 249600, Note_on_c, 2, 61, 100
4, 249600, Note_on_c, 2, 60, 100
4, 249600, Note_on_c, 0, 70, 100
4, 249840, Note_on_c, 2, 61, 0
4, 249840, Note_on_c, 2, 60, 0
4, 250560, Note_on_c, 2, 61, 100
4, 250560, Note_on_c, 2, 60, 100
4, 250800, Note_on_c, 2, 61, 0
4, 250800, Note_on_c, 2, 60, 0
4, 251040, Note_on_c, 0, 70, 0
4, 251520, Note_on_c, 2, 61, 100
4, 251520, Note_on_c, 2, 60, 100
4, 251520, Note_on_c, 0, 69, 100
4, 251760, Note_on_c, 2, 61, 0
4, 251760, Note_on_c, 2, 60, 0
4, 252480, Note_on_c, 2, 61, 100
4, 252480, Note_on_c, 2, 60, 100
4, 252720, Note_on_c, 2, 61, 0
4, 252720, Note_on_c, 2, 60, 0
4, 252960, Note_on_c, 0, 69, 0
4, 252960, Note_on_c, 2, 61, 100
4, 253200, Note_on_c, 2, 61, 0
4, 253200, Note_on_c, 2, 61, 100
4, 253440, Note_on_c, 2, 61, 0
4, 253440, Note_on_c, 2, 61, 100
4, 253440, Note_on_c, 2, 60, 100
4, 253440, Note_on_c, 0, 68, 100
4, 253680, Note_on_c, 2, 61, 0
4, 253680, Note_on_c, 2, 60, 0
4, 253680, Note_on_c, 0, 68, 0
4, 253920, Note_on_c, 2, 61, 100
4, 253920, Note_on_c, 0, 68, 100
4, 254160, Note_on_c, 2, 61, 0
4, 254160, Note_on_c, 0, 68, 0
4, 254400, Note_on_c, 2, 61, 100
4, 254640, Note_on_c, 2, 61, 0
4, 254880, Note_on_c, 2, 61, 100
4, 254880, Note_on_c, 0, 68, 100
4, 255120, Note_on_c, 2, 61, 0
4, 255120, Note_on_c, 0, 68, 0
4, 255360, Note_on_c, 2, 61, 100
4, 255360, Note_on_c, 2, 60, 100
4, 255600, Note_on_c, 2, 61, 0
4, 255600, Note_on_c, 2, 60, 0
4, 255840, Note_on_c, 2, 61, 100
4, 255840, Note_on_c, 0, 68, 100
4, 256080, Note_on_c, 2, 61, 0
4, 256080, Note_on_c, 0, 68, 0
4, 256320, Note_on_c, 2, 61, 100
4, 256320, Note_on_c, 0, 70, 100
4, 256560, Note_on_c, 2, 61, 0
4, 256560, Note_on_c, 0, 70, 0
4, 256800, Note_on_c, 2, 61, 100
4, 257040, Note_on_c, 2, 61, 0
4, 257280, Note_on_c, 2, 61, 100
4, 257280, Note_on_c, 2, 60, 100
4, 257280, Note_on_c, 0, 68, 100
4, 257520, Note_on_c, 2, 61, 0
4, 257520, Note_on_c, 2, 60, 0
4, 257520, Note_on_c, 0, 68, 0
4, 257760, Note_on_c, 2, 61, 100
4, 257760, Note_on_c, 0, 68, 100
4, 258000, Note_on_c, 2, 61, 0
4, 258000, Note_on_c, 0, 68, 0
4, 258240, Note_on_c, 2, 61, 100
4, 258480, Note_on_c, 2, 61, 0
4, 258720, Note_on_c, 2, 61, 100
4, 258720, Note_on_c, 0, 68, 100
4, 258960, Note_on_c, 2, 61, 0
4, 258960, Note_on_c, 0, 68, 0
4, 259200, Note_on_c, 2, 61, 100
4, 259200, Note_on_c, 2, 60, 100
4, 259440, Note_on_c, 2, 61, 0
4, 259440, Note_on_c, 2, 60, 0
4, 259680, Note_on_c, 2, 61, 100
4, 259680, Note_on_c, 0, 68, 100
4, 259920, Note_on_c, 2, 61, 0
4, 259920, Note_on_c, 0, 68, 0
4, 260160, Note_on_c, 2, 61, 100
4, 260160, Note_on_c, 0, 69, 100
4, 260400, Note_on_c, 2, 61, 0
4, 260880, Note_on_c, 0, 69, 0
4, 261120, Note_on_c, 2, 61, 100
4, 261120, Note_on_c, 2, 60, 100
4, 261120, Note_on_c, 0, 68, 100
4, 261360, Note_on_c, 2, 61, 0
4, 261360, Note_on_c, 2, 60, 0
4, 261360, Note_on_c, 0, 68, 0
4, 261600, Note_on_c, 2, 61, 100
4, 261600, Note_on_c, 0, 68, 100
4, 261840, Note_on_c, 2, 61, 0
4, 261840, Note_on_c, 0, 68, 0
4, 262080, Note_on_c, 2, 61, 100
4, 262320, Note_on_c, 2, 61, 0
4, 262560, Note_on_c, 2, 61, 100
4, 262560, Note_on_c, 0, 68, 100
4, 262800, Note_on_c, 2, 61, 0
4, 262800, Note_on_c, 0, 68, 0
4, 263040, Note_on_c, 2, 61, 100
4, 263040, Note_on_c, 2, 60, 100
4, 263280, Note_on_c, 2, 61, 0
4, 263280, Note_on_c, 2, 60, 0
4, 263520, Note_on_c, 2, 61, 100
4, 263520, Note_on_c, 0, 68, 100
4, 263760, Note_on_c, 2, 61, 0
4, 263760, Note_on_c, 0, 68, 0
4, 264000, Note_on_c, 2, 61, 100
4, 264000, Note_on_c, 0, 70, 100
4, 264240, Note_on_c, 2, 61, 0
4, 264240, Note_on_c, 0, 70, 0
4, 264480, Note_on_c, 2, 61, 100
4, 264720, Note_on_c, 2, 61, 0
4, 264960, Note_on_c, 2, 61, 100
4, 264960, Note_on_c, 2, 60, 100
4, 264960, Note_on_c, 0, 68, 100
4, 265200, Note_on_c, 2, 61, 0
4, 265200, Note_on_c, 2, 60, 0
4, 265200, Note_on_c, 0, 68, 0
4, 265440, Note_on_c, 2, 61, 100
4, 265440, Note_on_c, 0, 68, 100
4, 265680, Note_on_c, 2, 61, 0
4, 265680, Note_on_c, 0, 68, 0
4, 265920, Note_on_c, 2, 61, 100
4, 266160, Note_on_c, 2, 61, 0
4, 266400, Note_on_c, 2, 61, 100
4, 266400, Note_on_c, 0, 68, 100
4, 266640, Note_on_c, 2, 61, 0
4, 266640, Note_on_c, 0, 68, 0
4, 266880, Note_on_c, 2, 61, 100
4, 266880, Note_on_c, 2, 60, 100
4, 267120, Note_on_c, 2, 61, 0
4, 267120, Note_on_c, 2, 60, 0
4, 267360, Note_on_c, 2, 61, 100
4, 267360, Note_on_c, 0, 68, 100
4, 267600, Note_on_c, 2, 61, 0
4, 267600, Note_on_c, 0, 68, 0
4, 267600, Note_on_c, 2, 61, 100
4, 267840, Note_on_c, 2, 61, 0
4, 267840, Note_on_c, 2, 61, 100
4, 267840, Note_on_c, 0, 69, 100
4, 268080, Note_on_c, 2, 61, 0
4, 268320, Note_on_c, 2, 61, 100
4, 268560, Note_on_c, 0, 69, 0
4, 268560, Note_on_c, 2, 61, 0
4, 268560, Note_on_c, 2, 61, 100
4, 268800, Note_on_c, 2, 61, 0
4, 268800, Note_on_c, 2, 61, 100
4, 268800, Note_on_c, 2, 60, 100
4, 268800, Note_on_c, 0, 68, 100
4, 269040, Note_on_c, 2, 61, 0
4, 269040, Note_on_c, 2, 60, 0
4, 269040, Note_on_c, 0, 68, 0
4, 269280, Note_on_c, 2, 61, 100
4, 269280, Note_on_c, 0, 68, 100
4, 269520, Note_on_c, 2, 61, 0
4, 269520, Note_on_c, 0, 68, 0
4, 269760, Note_on_c, 2, 61, 100
4, 270000, Note_on_c, 2, 61, 0
4, 270240, Note_on_c, 2, 61, 100
4, 270240, Note_on_c, 0, 68, 100
4, 270480, Note_on_c, 2, 61, 0
4, 270480, Note_on_c, 0, 68, 0
4, 270720, Note_on_c, 2, 61, 100
4, 270720, Note_on_c, 2, 60, 100
4, 270960, Note_on_c, 2, 61, 0
4, 270960, Note_on_c, 2, 60, 0
4, 271200, Note_on_c, 2, 61, 100
4, 271200, Note_on_c, 0, 68, 100
4, 271440, Note_on_c, 2, 61, 0
4, 271440, Note_on_c, 0, 68, 0
4, 271680, Note_on_c, 2, 61, 100
4, 271680, Note_on_c, 0, 70, 100
4, 271920, Note_on_c, 2, 61, 0
4, 271920, Note_on_c, 0, 70, 0
4, 272160, Note_on_c, 2, 61, 100
4, 272400, Note_on_c, 2, 61, 0
4, 272640, Note_on_c, 2, 61, 100
4, 272640, Note_on_c, 2, 60, 100
4, 272640, Note_on_c, 0, 68, 100
4, 272880, Note_on_c, 2, 61, 0
4, 272880, Note_on_c, 2, 60, 0
4, 272880, Note_on_c, 0, 68, 0
4, 273120, Note_on_c, 2, 61, 100
4, 273120, Note_on_c, 0, 68, 100
4, 273360, Note_on_c, 2, 61, 0
4, 273360, Note_on_c, 0, 68, 0
4, 273600, Note_on_c, 2, 61, 100
4, 273840, Note_on_c, 2, 61, 0
4, 274080, Note_on_c, 2, 61, 100
4, 274080, Note_on_c, 0, 68, 100
4, 274320, Note_on_c, 2, 61, 0
4, 274320, Note_on_c, 0, 68, 0
4, 274560, Note_on_c, 2, 61, 100
4, 274560, Note_on_c, 2, 60, 100
4, 274800, Note_on_c, 2, 61, 0
4, 274800, Note_on_c, 2, 60, 0
4, 275040, Note_on_c, 2, 61, 100
4, 275040, Note_on_c, 0, 68, 100
4, 275280, Note_on_c, 2, 61, 0
4, 275280, Note_on_c, 0, 68, 0
4, 275520, Note_on_c, 2, 61, 100
4, 275520, Note_on_c, 0, 69, 100
4, 275760, Note_on_c, 2, 61, 0
4, 276240, Note_on_c, 0, 69, 0
4, 276480, Note_on_c, 2, 61, 100
4, 276480, Note_on_c, 2, 60, 100
4, 276480, Note_on_c, 0, 68, 100
4, 276720, Note_on_c, 2, 61, 0
4, 276720, Note_on_c, 2, 60, 0
4, 276720, Note_on_c, 0, 68, 0
4, 276960, Note_on_c, 2, 61, 100
4, 276960, Note_on_c, 0, 68, 100
4, 277200, Note_on_c, 2, 61, 0
4, 277200, Note_on_c, 0, 68, 0
4, 277440, Note_on_c, 2, 61, 100
4, 277680, Note_on_c, 2, 61, 0
4, 277920, Note_on_c, 2, 61, 100
4, 277920, Note_on_c, 0, 68, 100
4, 278160, Note_on_c, 2, 61, 0
4, 278160, Note_on_c, 0, 68, 0
4, 278400, Note_on_c, 2, 61, 100
4, 278400, Note_on_c, 2, 60, 100
4, 278640, Note_on_c, 2, 61, 0
4, 278640, Note_on_c, 2, 60, 0
4, 278880, Note_on_c, 2, 61, 100
4, 278880, Note_on_c, 0, 68, 100
4, 279120, Note_on_c, 2, 61, 0
4, 279120, Note_on_c, 0, 68, 0
4, 279360, Note_on_c, 2, 61, 100
4, 279360, Note_on_c, 0, 70, 100
4, 279600, Note_on_c, 2, 61, 0
4, 279600, Note_on_c, 0, 70, 0
4, 279840, Note_on_c, 2, 61, 100
4, 280080, Note_on_c, 2, 61, 0
4, 280320, Note_on_c, 2, 61, 100
4, 280320, Note_on_c, 2, 60, 100
4, 280320, Note_on_c, 0, 68, 100
4, 280560, Note_on_c, 2, 61, 0
4, 280560, Note_on_c, 2, 60, 0
4, 280560, Note_on_c, 0, 68, 0
4, 280800, Note_on_c, 2, 61, 100
4, 280800, Note_on_c, 0, 68, 100
4, 281040, Note_on_c, 2, 61, 0
4, 281040, Note_on_c, 0, 68, 0
4, 281280, Note_on_c, 2, 61, 100
4, 281520, Note_on_c, 2, 61, 0
4, 281760, Note_on_c, 2, 61, 100
4, 281760, Note_on_c, 0, 68, 100
4, 282000, Note_on_c, 2, 61, 0
4, 282000, Note_on_c, 0, 68, 0
4, 282240, Note_on_c, 2, 61, 100
4, 282240, Note_on_c, 2, 60, 100
4, 282480, Note_on_c, 2, 61, 0
4, 282480, Note_on_c, 2, 60, 0
4, 282720, Note_on_c, 2, 61, 100
4, 282720, Note_on_c, 0, 68, 100
4, 282960, Note_on_c, 2, 61, 0
4, 282960, Note_on_c, 0, 68, 0
4, 282960, Note_on_c, 2, 61, 100
4, 283200, Note_on_c, 2, 61, 0
4, 283200, Note_on_c, 2, 61, 100
4, 283200, Note_on_c, 0, 69, 100
4, 283440, Note_on_c, 2, 61, 0
4, 283680, Note_on_c, 2, 61, 100
4, 283920, Note_on_c, 0, 69, 0
4, 283920, Note_on_c, 2, 61, 0
4, 283920, Note_on_c, 2, 61, 100
4, 284160, Note_on_c, 2, 61, 0
4, 284160, Note_on_c, 2, 61, 100
4, 284160, Note_on_c, 2, 60, 100
4, 284160, Note_on_c, 0, 68, 100
4, 284400, Note_on_c, 2, 61, 0
4, 284400, Note_on_c, 2, 60, 0
4, 284400, Note_on_c, 0, 68, 0
4, 284640, Note_on_c, 2, 61, 100
4, 284640, Note_on_c, 0, 68, 100
4, 284880, Note_on_c, 2, 61, 0
4, 284880, Note_on_c, 0, 68, 0
4, 285120, Note_on_c, 2, 61, 100
4, 285360, Note_on_c, 2, 61, 0
4, 286080, Note_on_c, 2, 61, 100
4, 286080, Note_on_c, 2, 60, 100
4, 286320, Note_on_c, 2, 61, 0
4, 286320, Note_on_c, 2, 60, 0
4, 287040, Note_on_c, 2, 61, 100
4, 287280, Note_on_c, 2, 61, 0
4, 288000, Note_on_c, 2, 61, 100
4, 288000, Note_on_c, 2, 60, 100
4, 288240, Note_on_c, 2, 61, 0
4, 288240, Note_on_c, 2, 60, 0
4, 288960, Note_on_c, 2, 61, 100
4, 289200, Note_on_c, 2, 61, 0
4, 289920, Note_on_c, 2, 61, 100
4, 289920, Note_on_c, 2, 60, 100
4, 290160, Note_on_c, 2, 61, 0
4, 290160, Note_on_c, 2, 60, 0
4, 290880, Note_on_c, 2, 61, 100
4, 291120, Note_on_c, 2, 61, 0
4, 291360, Note_on_c, 2, 61, 100
4, 291360, Note_on_c, 0, 68, 100
4, 291600, Note_on_c, 2, 61, 0
4, 291600, Note_on_c, 0, 68, 0
4, 291840, Note_on_c, 2, 61, 100
4, 291840, Note_on_c, 2, 60, 100
4, 291840, Note_on_c, 0, 68, 100
4, 292080, Note_on_c, 2, 61, 0
4, 292080, Note_on_c, 2, 60, 0
4, 292080, Note_on_c, 0, 68, 0
4, 292320, Note_on_c, 2, 61, 100
4, 292320, Note_on_c, 0, 68, 100
4, 292558, Note_on_c, 2, 61, 0
4, 292558, Note_on_c, 0, 68, 0
4, 292798, Note_on_c, 2, 61, 100
4, 293038, Note_on_c, 2, 61, 0
4, 293758, Note_on_c, 2, 61, 100
4, 293758, Note_on_c, 2, 60, 100
4, 293998, Note_on_c, 2, 61, 0
4, 293998, Note_on_c, 2, 60, 0
4, 294718, Note_on_c, 2, 61, 100
4, 294958, Note_on_c, 2, 61, 0
4, 295678, Note_on_c, 2, 61, 100
4, 295678, Note_on_c, 2, 60, 100
4, 295918, Note_on_c, 2, 61, 0
4, 295918, Note_on_c, 2, 60, 0
4, 296638, Note_on_c, 2, 61, 100
4, 296878, Note_on_c, 2, 61, 0
4, 297598, Note_on_c, 2, 61, 100
4, 297598, Note_on_c, 2, 60, 100
4, 297838, Note_on_c, 2, 61, 0
4, 297838, Note_on_c, 2, 60, 0
4, 298558, Note_on_c, 2, 61, 100
4, 298798, Note_on_c, 2, 61, 0
4, 299038, Note_on_c, 2, 61, 100
4, 299040, Note_on_c, 0, 68, 100
4, 299278, Note_on_c, 2, 61, 0
4, 299280, Note_on_c, 0, 68, 0
4, 299518, Note_on_c, 2, 61, 100
4, 299518, Note_on_c, 2, 60, 100
4, 299520, Note_on_c, 0, 68, 100
4, 299758, Note_on_c, 2, 61, 0
4, 299758, Note_on_c, 2, 60, 0
4, 299760, Note_on_c, 0, 68, 0
4, 299998, Note_on_c, 2, 61, 100
4, 300000, Note_on_c, 0, 68, 100
4, 300238, Note_on_c, 2, 61, 0
4, 300240, Note_on_c, 0, 68, 0
4, 300478, Note_on_c, 2, 61, 100
4, 300718, Note_on_c, 2, 61, 0
4, 300960, Note_on_c, 0, 68, 100
4, 301438, Note_on_c, 2, 61, 100
4, 301438, Note_on_c, 2, 60, 100
4, 301678, Note_on_c, 2, 61, 0
4, 301678, Note_on_c, 2, 60, 0
4, 301920, Note_on_c, 0, 68, 0
4, 301920, Note_on_c, 0, 69, 100
4, 302398, Note_on_c, 2, 61, 100
4, 302638, Note_on_c, 2, 61, 0
4, 302640, Note_on_c, 0, 69, 0
4, 303358, Note_on_c, 2, 61, 100
4, 303358, Note_on_c, 2, 60, 100
4, 303360, Note_on_c, 0, 69, 100
4, 303598, Note_on_c, 2, 61, 0
4, 303598, Note_on_c, 2, 60, 0
4, 303600, Note_on_c, 0, 69, 0
4, 304318, Note_on_c, 2, 61, 100
4, 304320, Note_on_c, 0, 70, 100
4, 304558, Note_on_c, 2, 61, 0
4, 304560, Note_on_c, 0, 70, 0
4, 304800, Note_on_c, 0, 68, 100
4, 305278, Note_on_c, 2, 61, 100
4, 305278, Note_on_c, 2, 60, 100
4, 305518, Note_on_c, 2, 61, 0
4, 305518, Note_on_c, 2, 60, 0
4, 306238, Note_on_c, 2, 61, 100
4, 306240, Note_on_c, 0, 68, 0
4, 306478, Note_on_c, 2, 61, 0
4, 306718, Note_on_c, 2, 61, 100
4, 306720, Note_on_c, 0, 68, 100
4, 306958, Note_on_c, 2, 61, 0
4, 306960, Note_on_c, 0, 68, 0
4, 307198, Note_on_c, 2, 61, 100
4, 307198, Note_on_c, 2, 60, 100
4, 307200, Note_on_c, 0, 68, 100
4, 307438, Note_on_c, 2, 61, 0
4, 307438, Note_on_c, 2, 60, 0
4, 307440, Note_on_c, 0, 68, 0
4, 307678, Note_on_c, 2, 61, 100
4, 307680, Note_on_c, 0, 68, 100
4, 307918, Note_on_c, 2, 61, 0
4, 307920, Note_on_c, 0, 68, 0
4, 308158, Note_on_c, 2, 61, 100
4, 308398, Note_on_c, 2, 61, 0
4, 308640, Note_on_c, 0, 68, 100
4, 309118, Note_on_c, 2, 61, 100
4, 309118, Note_on_c, 2, 60, 100
4, 309358, Note_on_c, 2, 61, 0
4, 309358, Note_on_c, 2, 60, 0
4, 309600, Note_on_c, 0, 68, 0
4, 309600, Note_on_c, 0, 69, 100
4, 310078, Note_on_c, 2, 61, 100
4, 310318, Note_on_c, 2, 61, 0
4, 310320, Note_on_c, 0, 69, 0
4, 311038, Note_on_c, 2, 61, 100
4, 311038, Note_on_c, 2, 60, 100
4, 311040, Note_on_c, 0, 69, 100
4, 311278, Note_on_c, 2, 61, 0
4, 311278, Note_on_c, 2, 60, 0
4, 311280, Note_on_c, 0, 69, 0
4, 311998, Note_on_c, 2, 61, 100
4, 312000, Note_on_c, 0, 70, 100
4, 312238, Note_on_c, 2, 61, 0
4, 312240, Note_on_c, 0, 70, 0
4, 312480, Note_on_c, 0, 68, 100
4, 312958, Note_on_c, 2, 61, 100
4, 312958, Note_on_c, 2, 60, 100
4, 313198, Note_on_c, 2, 61, 0
4, 313198, Note_on_c, 2, 60, 0
4, 313918, Note_on_c, 2, 61, 100
4, 313920, Note_on_c, 0, 68, 0
4, 314158, Note_on_c, 2, 61, 0
4, 314398, Note_on_c, 2, 61, 100
4, 314400, Note_on_c, 0, 68, 100
4, 314638, Note_on_c, 2, 61, 0
4, 314640, Note_on_c, 0, 68, 0
4, 314878, Note_on_c, 2, 61, 100
4, 314878, Note_on_c, 2, 60, 100
4, 314880, Note_on_c, 0, 68, 100
4, 315040, Note_on_c, 0, 68, 0
4, 315120, Note_on_c, 2, 61, 0
4, 315120, Note_on_c, 2, 60, 0
4, 315360, Note_on_c, 2, 61, 100
4, 315360, Note_on_c, 0, 68, 100
4, 315600, Note_on_c, 2, 61, 0
4, 315600, Note_on_c, 0, 68, 0
4, 315840, Note_on_c, 2, 61, 100
4, 316080, Note_on_c, 2, 61, 0
4, 316320, Note_on_c, 0, 68, 100
4, 316800, Note_on_c, 2, 61, 100
4, 316800, Note_on_c, 2, 60, 100
4, 317040, Note_on_c, 2, 61, 0
4, 317040, Note_on_c, 2, 60, 0
4, 317280, Note_on_c, 0, 68, 0
4, 317280, Note_on_c, 0, 69, 100
4, 317760, Note_on_c, 2, 61, 100
4, 318000, Note_on_c, 0, 69, 0
4, 318000, Note_on_c, 2, 61, 0
4, 318720, Note_on_c, 2, 61, 100
4, 318720, Note_on_c, 2, 60, 100
4, 318720, Note_on_c, 0, 69, 100
4, 318960, Note_on_c, 2, 61, 0
4, 318960, Note_on_c, 2, 60, 0
4, 318960, Note_on_c, 0, 69, 0
4, 319680, Note_on_c, 2, 61, 100
4, 319680, Note_on_c, 0, 70, 100
4, 319920, Note_on_c, 2, 61, 0
4, 319920, Note_on_c, 0, 70, 0
4, 320160, Note_on_c, 0, 68, 100
4, 320640, Note_on_c, 2, 61, 100
4, 320640, Note_on_c, 2, 60, 100
4, 320880, Note_on_c, 2, 61, 0
4, 320880, Note_on_c, 2, 60, 0
4, 321600, Note_on_c, 0, 68, 0
4, 321600, Note_on_c, 2, 61, 100
4, 321840, Note_on_c, 2, 61, 0
4, 322080, Note_on_c, 2, 61, 100
4, 322080, Note_on_c, 0, 68, 100
4, 322320, Note_on_c, 2, 61, 0
4, 322320, Note_on_c, 0, 68, 0
4, 322560, Note_on_c, 2, 61, 100
4, 322560, Note_on_c, 2, 60, 100
4, 322560, Note_on_c, 0, 68, 100
4, 322800, Note_on_c, 2, 61, 0
4, 322800, Note_on_c, 2, 60, 0
4, 322800, Note_on_c, 0, 68, 0
4, 323040, Note_on_c, 2, 61, 100
4, 323040, Note_on_c, 0, 68, 100
4, 323280, Note_on_c, 2, 61, 0
4, 323280, Note_on_c, 0, 68, 0
4, 323520, Note_on_c, 2, 61, 100
4, 323760, Note_on_c, 2, 61, 0
4, 324000, Note_on_c, 0, 68, 100
4, 324480, Note_on_c, 2, 61, 100
4, 324480, Note_on_c, 2, 60, 100
4, 324720, Note_on_c, 2, 61, 0
4, 324720, Note_on_c, 2, 60, 0
4, 324960, Note_on_c, 0, 68, 0
4, 324960, Note_on_c, 0, 69, 100
4, 325440, Note_on_c, 2, 61, 100
4, 325680, Note_on_c, 0, 69, 0
4, 325680, Note_on_c, 2, 61, 0
4, 326400, Note_on_c, 2, 61, 100
4, 326400, Note_on_c, 2, 60, 100
4, 326400, Note_on_c, 0, 69, 100
4, 326640, Note_on_c, 2, 61, 0
4, 326640, Note_on_c, 2, 60, 0
4, 326640, Note_on_c, 0, 69, 0
4, 327360, Note_on_c, 2, 61, 100
4, 327360, Note_on_c, 0, 70, 100
4, 327600, Note_on_c, 2, 61, 0
4, 327600, Note_on_c, 0, 70, 0
4, 327840, Note_on_c, 0, 68, 100
4, 328320, Note_on_c, 2, 61, 100
4, 328320, Note_on_c, 2, 60, 100
4, 328560, Note_on_c, 2, 61, 0
4, 328560, Note_on_c, 2, 60, 0
4, 329280, Note_on_c, 0, 68, 0
4, 329280, Note_on_c, 2, 61, 100
4, 329520, Note_on_c, 2, 61, 0
4, 329760, Note_on_c, 2, 61, 100
4, 329760, Note_on_c, 0, 68, 100
4, 330000, Note_on_c, 2, 61, 0
4, 330000, Note_on_c, 0, 68, 0
4, 330240, Note_on_c, 2, 61, 100
4, 330240, Note_on_c, 2, 60, 100
4, 330240, Note_on_c, 0, 68, 100
4, 330480, Note_on_c, 2, 61, 0
4, 330480, Note_on_c, 2, 60, 0
4, 330480, Note_on_c, 0, 68, 0
4, 330720, Note_on_c, 2, 61, 100
4, 330720, Note_on_c, 2, 60, 100
4, 330720, Note_on_c, 0, 68, 100
4, 330960, Note_on_c, 2, 61, 0
4, 330960, Note_on_c, 2, 60, 0
4, 330960, Note_on_c, 0, 68, 0
4, 331680, Note_on_c, 2, 60, 100
4, 331680, Note_on_c, 2, 61, 100
4, 331680, Note_on_c, 0, 68, 100
4, 331920, Note_on_c, 2, 60, 0
4, 331920, Note_on_c, 2, 61, 0
4, 332160, Note_on_c, 2, 61, 100
4, 332400, Note_on_c, 2, 61, 0
4, 332640, Note_on_c, 0, 68, 0
4, 332640, Note_on_c, 2, 60, 100
4, 332640, Note_on_c, 2, 61, 100
4, 332640, Note_on_c, 0, 69, 100
4, 332880, Note_on_c, 2, 60, 0
4, 332880, Note_on_c, 2, 61, 0
4, 333360, Note_on_c, 0, 69, 0
4, 333600, Note_on_c, 2, 60, 100
4, 333600, Note_on_c, 2, 61, 100
4, 333840, Note_on_c, 2, 60, 0
4, 333840, Note_on_c, 2, 61, 0
4, 334080, Note_on_c, 2, 60, 100
4, 334080, Note_on_c, 2, 61, 100
4, 334080, Note_on_c, 0, 69, 100
4, 334320, Note_on_c, 2, 60, 0
4, 334320, Note_on_c, 2, 61, 0
4, 334320, Note_on_c, 0, 69, 0
4, 334560, Note_on_c, 2, 60, 100
4, 334560, Note_on_c, 2, 61, 100
4, 334800, Note_on_c, 2, 60, 0
4, 334800, Note_on_c, 2, 61, 0
4, 335040, Note_on_c, 2, 61, 100
4, 335040, Note_on_c, 0, 70, 100
4, 335280, Note_on_c, 2, 61, 0
4, 335280, Note_on_c, 0, 70, 0
4, 335520, Note_on_c, 2, 60, 100
4, 335520, Note_on_c, 2, 61, 100
4, 335520, Note_on_c, 0, 68, 100
4, 335760, Note_on_c, 2, 60, 0
4, 335760, Note_on_c, 2, 61, 0
4, 336960, Note_on_c, 0, 68, 0
4, 336960, Note_on_c, 2, 61, 100
4, 337200, Note_on_c, 2, 61, 0
4, 337440, Note_on_c, 2, 61, 100
4, 337440, Note_on_c, 0, 68, 100
4, 337680, Note_on_c, 2, 61, 0
4, 337680, Note_on_c, 0, 68, 0
4, 337920, Note_on_c, 2, 61, 100
4, 337920, Note_on_c, 2, 60, 100
4, 337920, Note_on_c, 0, 68, 100
4, 338160, Note_on_c, 2, 61, 0
4, 338160, Note_on_c, 2, 60, 0
4, 338160, Note_on_c, 0, 68, 0
4, 338400, Note_on_c, 2, 61, 100
4, 338400, Note_on_c, 2, 60, 100
4, 338400, Note_on_c, 0, 68, 100
4, 338640, Note_on_c, 2, 61, 0
4, 338640, Note_on_c, 2, 60, 0
4, 338640, Note_on_c, 0, 68, 0
4, 339360, Note_on_c, 2, 60, 100
4, 339360, Note_on_c, 2, 61, 100
4, 339360, Note_on_c, 0, 68, 100
4, 339600, Note_on_c, 2, 60, 0
4, 339600, Note_on_c, 2, 61, 0
4, 339840, Note_on_c, 2, 61, 100
4, 340080, Note_on_c, 2, 61, 0
4, 340320, Note_on_c, 0, 68, 0
4, 340320, Note_on_c, 2, 60, 100
4, 340320, Note_on_c, 2, 61, 100
4, 340320, Note_on_c, 0, 69, 100
4, 340560, Note_on_c, 2, 60, 0
4, 340560, Note_on_c, 2, 61, 0
4, 341040, Note_on_c, 0, 69, 0
4, 341280, Note_on_c, 2, 60, 100
4, 341280, Note_on_c, 2, 61, 100
4, 341520, Note_on_c, 2, 60, 0
4, 341520, Note_on_c, 2, 61, 0
4, 341760, Note_on_c, 2, 60, 100
4, 341760, Note_on_c, 2, 61, 100
4, 341760, Note_on_c, 0, 69, 100
4, 342000, Note_on_c, 2, 60, 0
4, 342000, Note_on_c, 2, 61, 0
4, 342000, Note_on_c, 0, 69, 0
4, 342240, Note_on_c, 2, 60, 100
4, 342240, Note_on_c, 2, 61, 100
4, 342480, Note_on_c, 2, 60, 0
4, 342480, Note_on_c, 2, 61, 0
4, 342720, Note_on_c, 2, 61, 100
4, 342720, Note_on_c, 0, 70, 100
4, 342960, Note_on_c, 2, 61, 0
4, 342960, Note_on_c, 0, 70, 0
4, 343200, Note_on_c, 2, 60, 100
4, 343200, Note_on_c, 2, 61, 100
4, 343200, Note_on_c, 0, 68, 100
4, 343440, Note_on_c, 2, 60, 0
4, 343440, Note_on_c, 2, 61, 0
4, 344640, Note_on_c, 0, 68, 0
4, 344640, Note_on_c, 2, 61, 100
4, 344880, Note_on_c, 2, 61, 0
4, 345120, Note_on_c, 2, 61, 100
4, 345120, Note_on_c, 0, 68, 100
4, 345360, Note_on_c, 2, 61, 0
4, 345360, Note_on_c, 0, 68, 0
4, 345360, Note_on_c, 2, 61, 100
4, 345600, Note_on_c, 2, 61, 0
4, 345600, Note_on_c, 2, 61, 100
4, 345600, Note_on_c, 2, 60, 100
4, 345600, Note_on_c, 0, 68, 100
4, 345840, Note_on_c, 2, 61, 0
4, 345840, Note_on_c, 2, 60, 0
4, 345840, Note_on_c, 0, 68, 0
4, 346080, Note_on_c, 2, 61, 100
4, 346080, Note_on_c, 2, 60, 100
4, 346080, Note_on_c, 0, 68, 100
4, 346320, Note_on_c, 2, 61, 0
4, 346320, Note_on_c, 2, 60, 0
4, 346320, Note_on_c, 0, 68, 0
4, 346800, Note_on_c, 2, 61, 100
4, 347040, Note_on_c, 2, 61, 0
4, 347040, Note_on_c, 2, 60, 100
4, 347040, Note_on_c, 2, 61, 100
4, 347040, Note_on_c, 0, 68, 100
4, 347280, Note_on_c, 2, 60, 0
4, 347280, Note_on_c, 2, 61, 0
4, 347520, Note_on_c, 2, 61, 100
4, 347760, Note_on_c, 2, 61, 0
4, 348000, Note_on_c, 0, 68, 0
4, 348000, Note_on_c, 2, 60, 100
4, 348000, Note_on_c, 2, 61, 100
4, 348000, Note_on_c, 0, 69, 100
4, 348240, Note_on_c, 2, 60, 0
4, 348240, Note_on_c, 2, 61, 0
4, 348720, Note_on_c, 0, 69, 0
4, 348960, Note_on_c, 2, 60, 100
4, 348960, Note_on_c, 2, 61, 100
4, 349200, Note_on_c, 2, 60, 0
4, 349200, Note_on_c, 2, 61, 0
4, 349440, Note_on_c, 2, 60, 100
4, 349440, Note_on_c, 2, 61, 100
4, 349440, Note_on_c, 0, 69, 100
4, 349680, Note_on_c, 2, 60, 0
4, 349680, Note_on_c, 2, 61, 0
4, 349680, Note_on_c, 0, 69, 0
4, 349920, Note_on_c, 2, 60, 100
4, 349920, Note_on_c, 2, 61, 100
4, 350160, Note_on_c, 2, 60, 0
4, 350160, Note_on_c, 2, 61, 0
4, 350400, Note_on_c, 2, 61, 100
4, 350400, Note_on_c, 0, 70, 100
4, 350640, Note_on_c, 2, 61, 0
4, 350640, Note_on_c, 0, 70, 0
4, 350880, Note_on_c, 2, 60, 100
4, 350880, Note_on_c, 2, 61, 100
4, 350880, Note_on_c, 0, 68, 100
4, 351120, Note_on_c, 2, 60, 0
4, 351120, Note_on_c, 2, 61, 0
4, 352320, Note_on_c, 0, 68, 0
4, 352320, Note_on_c, 2, 61, 100
4, 352560, Note_on_c, 2, 61, 0
4, 352800, Note_on_c, 2, 61, 100
4, 352800, Note_on_c, 0, 68, 100
4, 353040, Note_on_c, 2, 61, 0
4, 353040, Note_on_c, 0, 68, 0
4, 353040, Note_on_c, 2, 61, 100
4, 353280, Note_on_c, 2, 61, 0
4, 353280, Note_on_c, 2, 61, 100
4, 353280, Note_on_c, 2, 60, 100
4, 353280, Note_on_c, 0, 68, 100
4, 353520, Note_on_c, 2, 61, 0
4, 353520, Note_on_c, 2, 60, 0
4, 353520, Note_on_c, 0, 68, 0
4, 353760, Note_on_c, 2, 61, 100
4, 353760, Note_on_c, 2, 60, 100
4, 353760, Note_on_c, 0, 68, 100
4, 354000, Note_on_c, 2, 61, 0
4, 354000, Note_on_c, 2, 60, 0
4, 354000, Note_on_c, 0, 68, 0
4, 354480, Note_on_c, 2, 61, 100
4, 354720, Note_on_c, 2, 61, 0
4, 354720, Note_on_c, 2, 60, 100
4, 354720, Note_on_c, 2, 61, 100
4, 354720, Note_on_c, 0, 68, 100
4, 354960, Note_on_c, 2, 60, 0
4, 354960, Note_on_c, 2, 61, 0
4, 355200, Note_on_c, 2, 61, 100
4, 355440, Note_on_c, 2, 61, 0
4, 355680, Note_on_c, 0, 68, 0
4, 355680, Note_on_c, 2, 60, 100
4, 355680, Note_on_c, 2, 61, 100
4, 355680, Note_on_c, 0, 69, 100
4, 355920, Note_on_c, 2, 60, 0
4, 355920, Note_on_c, 2, 61, 0
4, 356400, Note_on_c, 0, 69, 0
4, 356640, Note_on_c, 2, 60, 100
4, 356640, Note_on_c, 2, 61, 100
4, 356880, Note_on_c, 2, 60, 0
4, 356880, Note_on_c, 2, 61, 0
4, 357120, Note_on_c, 2, 60, 100
4, 357120, Note_on_c, 2, 61, 100
4, 357120, Note_on_c, 0, 69, 100
4, 357360, Note_on_c, 2, 60, 0
4, 357360, Note_on_c, 2, 61, 0
4, 357360, Note_on_c, 0, 69, 0
4, 357600, Note_on_c, 2, 60, 100
4, 357600, Note_on_c, 2, 61, 100
4, 357840, Note_on_c, 2, 60, 0
4, 357840, Note_on_c, 2, 61, 0
4, 358080, Note_on_c, 2, 61, 100
4, 358080, Note_on_c, 0, 70, 100
4, 358320, Note_on_c, 2, 61, 0
4, 358320, Note_on_c, 0, 70, 0
4, 358560, Note_on_c, 2, 60, 100
4, 358560, Note_on_c, 2, 61, 100
4, 358560, Note_on_c, 0, 68, 100
4, 358800, Note_on_c, 2, 60, 0
4, 358800, Note_on_c, 2, 61, 0
4, 360000, Note_on_c, 0, 68, 0
4, 360000, Note_on_c, 2, 61, 100
4, 360240, Note_on_c, 2, 61, 0
4, 360480, Note_on_c, 2, 61, 100
4, 360720, Note_on_c, 2, 61, 0
4, 360960, Note_on_c, 2, 61, 100
4, 360960, Note_on_c, 2, 60, 100
4, 360960, Note_on_c, 0, 68, 100
4, 361200, Note_on_c, 2, 61, 0
4, 361200, Note_on_c, 2, 60, 0
4, 361200, Note_on_c, 0, 68, 0
4, 361440, Note_on_c, 2, 61, 100
4, 361440, Note_on_c, 0, 69, 100
4, 361680, Note_on_c, 2, 61, 0
4, 361680, Note_on_c, 0, 69, 0
4, 361920, Note_on_c, 2, 61, 100
4, 361920, Note_on_c, 0, 69, 100
4, 362160, Note_on_c, 2, 61, 0
4, 362160, Note_on_c, 0, 69, 0
4, 362400, Note_on_c, 2, 61, 100
4, 362640, Note_on_c, 2, 61, 0
4, 362880, Note_on_c, 2, 61, 100
4, 362880, Note_on_c, 2, 60, 100
4, 362880, Note_on_c, 0, 68, 100
4, 363120, Note_on_c, 2, 61, 0
4, 363120, Note_on_c, 2, 60, 0
4, 363120, Note_on_c, 0, 68, 0
4, 363360, Note_on_c, 2, 61, 100
4, 363360, Note_on_c, 0, 69, 100
4, 363600, Note_on_c, 2, 61, 0
4, 363600, Note_on_c, 0, 69, 0
4, 363840, Note_on_c, 0, 69, 100
4, 364080, Note_on_c, 0, 69, 0
4, 364320, Note_on_c, 2, 61, 100
4, 364560, Note_on_c, 2, 61, 0
4, 364800, Note_on_c, 2, 61, 100
4, 364800, Note_on_c, 2, 60, 100
4, 364800, Note_on_c, 0, 69, 100
4, 365040, Note_on_c, 2, 61, 0
4, 365040, Note_on_c, 2, 60, 0
4, 365040, Note_on_c, 0, 69, 0
4, 365280, Note_on_c, 2, 61, 100
4, 365280, Note_on_c, 0, 70, 100
4, 365520, Note_on_c, 2, 61, 0
4, 365520, Note_on_c, 0, 70, 0
4, 365760, Note_on_c, 2, 61, 100
4, 365760, Note_on_c, 0, 70, 100
4, 366000, Note_on_c, 2, 61, 0
4, 366000, Note_on_c, 0, 70, 0
4, 366240, Note_on_c, 2, 61, 100
4, 366240, Note_on_c, 0, 68, 100
4, 366480, Note_on_c, 2, 61, 0
4, 366480, Note_on_c, 0, 68, 0
4, 366720, Note_on_c, 2, 60, 100
4, 366720, Note_on_c, 2, 61, 100
4, 366960, Note_on_c, 2, 60, 0
4, 366960, Note_on_c, 2, 61, 0
4, 367200, Note_on_c, 2, 61, 100
4, 367440, Note_on_c, 2, 61, 0
4, 367680, Note_on_c, 2, 61, 100
4, 367680, Note_on_c, 0, 68, 100
4, 367920, Note_on_c, 2, 61, 0
4, 367920, Note_on_c, 0, 68, 0
4, 368160, Note_on_c, 2, 61, 100
4, 368400, Note_on_c, 2, 61, 0
4, 368640, Note_on_c, 2, 61, 100
4, 368640, Note_on_c, 2, 60, 100
4, 368640, Note_on_c, 0, 68, 100
4, 368880, Note_on_c, 2, 61, 0
4, 368880, Note_on_c, 2, 60, 0
4, 368880, Note_on_c, 0, 68, 0
4, 369120, Note_on_c, 2, 61, 100
4, 369120, Note_on_c, 0, 69, 100
4, 369360, Note_on_c, 2, 61, 0
4, 369360, Note_on_c, 0, 69, 0
4, 369600, Note_on_c, 2, 61, 100
4, 369600, Note_on_c, 0, 69, 100
4, 369840, Note_on_c, 2, 61, 0
4, 369840, Note_on_c, 0, 69, 0
4, 370080, Note_on_c, 2, 61, 100
4, 370320, Note_on_c, 2, 61, 0
4, 370560, Note_on_c, 2, 61, 100
4, 370560, Note_on_c, 2, 60, 100
4, 370560, Note_on_c, 0, 68, 100
4, 370800, Note_on_c, 2, 61, 0
4, 370800, Note_on_c, 2, 60, 0
4, 370800, Note_on_c, 0, 68, 0
4, 371040, Note_on_c, 2, 61, 100
4, 371040, Note_on_c, 0, 69, 100
4, 371280, Note_on_c, 2, 61, 0
4, 371280, Note_on_c, 0, 69, 0
4, 371520, Note_on_c, 0, 69, 100
4, 371760, Note_on_c, 0, 69, 0
4, 372000, Note_on_c, 2, 61, 100
4, 372240, Note_on_c, 2, 61, 0
4, 372480, Note_on_c, 2, 61, 100
4, 372480, Note_on_c, 2, 60, 100
4, 372480, Note_on_c, 0, 69, 100
4, 372720, Note_on_c, 2, 61, 0
4, 372720, Note_on_c, 2, 60, 0
4, 372720, Note_on_c, 0, 69, 0
4, 372960, Note_on_c, 2, 61, 100
4, 372960, Note_on_c, 0, 69, 100
4, 373200, Note_on_c, 2, 61, 0
4, 373200, Note_on_c, 0, 69, 0
4, 373440, Note_on_c, 2, 61, 100
4, 373440, Note_on_c, 0, 70, 100
4, 373680, Note_on_c, 2, 61, 0
4, 373680, Note_on_c, 0, 70, 0
4, 373920, Note_on_c, 2, 61, 100
4, 373920, Note_on_c, 0, 68, 100
4, 374160, Note_on_c, 2, 61, 0
4, 374160, Note_on_c, 0, 68, 0
4, 374400, Note_on_c, 2, 60, 100
4, 374400, Note_on_c, 2, 61, 100
4, 374640, Note_on_c, 2, 60, 0
4, 374640, Note_on_c, 2, 61, 0
4, 374880, Note_on_c, 2, 61, 100
4, 375120, Note_on_c, 2, 61, 0
4, 375360, Note_on_c, 2, 61, 100
4, 375360, Note_on_c, 0, 68, 100
4, 375600, Note_on_c, 2, 61, 0
4, 375600, Note_on_c, 0, 68, 0
4, 375840, Note_on_c, 2, 61, 100
4, 376080, Note_on_c, 2, 61, 0
4, 376320, Note_on_c, 2, 61, 100
4, 376320, Note_on_c, 2, 60, 100
4, 376320, Note_on_c, 0, 68, 100
4, 376560, Note_on_c, 2, 61, 0
4, 376560, Note_on_c, 2, 60, 0
4, 376560, Note_on_c, 0, 68, 0
4, 376800, Note_on_c, 2, 61, 100
4, 376800, Note_on_c, 0, 69, 100
4, 377040, Note_on_c, 2, 61, 0
4, 377040, Note_on_c, 0, 69, 0
4, 377280, Note_on_c, 2, 61, 100
4, 377280, Note_on_c, 0, 69, 100
4, 377520, Note_on_c, 2, 61, 0
4, 377520, Note_on_c, 0, 69, 0
4, 377760, Note_on_c, 2, 61, 100
4, 378000, Note_on_c, 2, 61, 0
4, 378240, Note_on_c, 2, 61, 100
4, 378240, Note_on_c, 2, 60, 100
4, 378240, Note_on_c, 0, 68, 100
4, 378480, Note_on_c, 2, 61, 0
4, 378480, Note_on_c, 2, 60, 0
4, 378480, Note_on_c, 0, 68, 0
4, 378720, Note_on_c, 2, 61, 100
4, 378720, Note_on_c, 0, 69, 100
4, 378960, Note_on_c, 2, 61, 0
4, 378960, Note_on_c, 0, 69, 0
4, 379680, Note_on_c, 2, 61, 100
4, 379680, Note_on_c, 0, 69, 100
4, 379920, Note_on_c, 2, 61, 0
4, 379920, Note_on_c, 0, 69, 0
4, 380160, Note_on_c, 2, 61, 100
4, 380160, Note_on_c, 2, 60, 100
4, 380160, Note_on_c, 0, 69, 100
4, 380400, Note_on_c, 2, 61, 0
4, 380400, Note_on_c, 2, 60, 0
4, 380400, Note_on_c, 0, 69, 0
4, 380640, Note_on_c, 2, 61, 100
4, 380640, Note_on_c, 0, 70, 100
4, 380880, Note_on_c, 2, 61, 0
4, 380880, Note_on_c, 0, 70, 0
4, 381120, Note_on_c, 2, 61, 100
4, 381120, Note_on_c, 0, 70, 100
4, 381360, Note_on_c, 2, 61, 0
4, 381360, Note_on_c, 0, 70, 0
4, 381600, Note_on_c, 2, 61, 100
4, 381600, Note_on_c, 0, 68, 100
4, 381840, Note_on_c, 2, 61, 0
4, 381840, Note_on_c, 0, 68, 0
4, 382080, Note_on_c, 2, 60, 100
4, 382080, Note_on_c, 2, 61, 100
4, 382320, Note_on_c, 2, 60, 0
4, 382320, Note_on_c, 2, 61, 0
4, 382560, Note_on_c, 2, 61, 100
4, 382800, Note_on_c, 2, 61, 0
4, 383040, Note_on_c, 2, 61, 100
4, 383040, Note_on_c, 0, 68, 100
4, 383280, Note_on_c, 2, 61, 0
4, 383280, Note_on_c, 0, 68, 0
4, 383520, Note_on_c, 2, 61, 100
4, 383760, Note_on_c, 2, 61, 0
4, 384000, Note_on_c, 2, 61, 100
4, 384000, Note_on_c, 2, 60, 100
4, 384000, Note_on_c, 0, 68, 100
4, 384240, Note_on_c, 2, 61, 0
4, 384240, Note_on_c, 2, 60, 0
4, 384240, Note_on_c, 0, 68, 0
4, 384480, Note_on_c, 2, 61, 100
4, 384480, Note_on_c, 0, 69, 100
4, 384720, Note_on_c, 2, 61, 0
4, 384720, Note_on_c, 0, 69, 0
4, 384960, Note_on_c, 2, 61, 100
4, 384960, Note_on_c, 0, 69, 100
4, 385200, Note_on_c, 2, 61, 0
4, 385200, Note_on_c, 0, 69, 0
4, 385440, Note_on_c, 2, 61, 100
4, 385680, Note_on_c, 2, 61, 0
4, 385920, Note_on_c, 2, 61, 100
4, 385920, Note_on_c, 2, 60, 100
4, 385920, Note_on_c, 0, 68, 100
4, 386160, Note_on_c, 2, 61, 0
4, 386160, Note_on_c, 2, 60, 0
4, 386160, Note_on_c, 0, 68, 0
4, 386400, Note_on_c, 2, 61, 100
4, 386400, Note_on_c, 0, 69, 100
4, 386640, Note_on_c, 2, 61, 0
4, 386640, Note_on_c, 0, 69, 0
4, 386880, Note_on_c, 0, 69, 100
4, 387120, Note_on_c, 0, 69, 0
4, 387360, Note_on_c, 2, 61, 100
4, 387600, Note_on_c, 2, 61, 0
4, 387840, Note_on_c, 2, 61, 100
4, 387840, Note_on_c, 2, 60, 100
4, 387840, Note_on_c, 0, 69, 100
4, 388080, Note_on_c, 2, 61, 0
4, 388080, Note_on_c, 2, 60, 0
4, 388080, Note_on_c, 0, 69, 0
4, 388320, Note_on_c, 2, 61, 100
4, 388320, Note_on_c, 0, 70, 100
4, 388560, Note_on_c, 2, 61, 0
4, 388560, Note_on_c, 0, 70, 0
4, 388800, Note_on_c, 2, 61, 100
4, 388800, Note_on_c, 0, 70, 100
4, 389040, Note_on_c, 2, 61, 0
4, 389040, Note_on_c, 0, 70, 0
4, 389280, Note_on_c, 2, 61, 100
4, 389280, Note_on_c, 0, 68, 100
4, 389520, Note_on_c, 2, 61, 0
4, 389520, Note_on_c, 0, 68, 0
4, 389760, Note_on_c, 2, 60, 100
4, 389760, Note_on_c, 2, 61, 100
4, 390000, Note_on_c, 2, 60, 0
4, 390000, Note_on_c, 2, 61, 0
4, 390240, Note_on_c, 2, 61, 100
4, 390480, Note_on_c, 2, 61, 0
4, 390720, Note_on_c, 2, 61, 100
4, 390720, Note_on_c, 0, 68, 100
4, 390960, Note_on_c, 2, 61, 0
4, 390960, Note_on_c, 0, 68, 0
4, 391200, Note_on_c, 2, 61, 100
4, 391440, Note_on_c, 2, 61, 0
4, 391680, Note_on_c, 2, 61, 100
4, 391680, Note_on_c, 2, 60, 100
4, 391680, Note_on_c, 0, 68, 100
4, 391920, Note_on_c, 2, 61, 0
4, 391920, Note_on_c, 2, 60, 0
4, 391920, Note_on_c, 0, 68, 0
4, 392160, Note_on_c, 2, 61, 100
4, 392160, Note_on_c, 0, 69, 100
4, 392400, Note_on_c, 2, 61, 0
4, 392640, Note_on_c, 2, 61, 100
4, 392880, Note_on_c, 2, 61, 0
4, 393120, Note_on_c, 0, 69, 0
4, 393120, Note_on_c, 2, 61, 100
4, 393120, Note_on_c, 0, 68, 100
4, 393360, Note_on_c, 2, 61, 0
4, 393600, Note_on_c, 2, 61, 100
4, 393600, Note_on_c, 2, 60, 100
4, 393840, Note_on_c, 2, 61, 0
4, 393840, Note_on_c, 2, 60, 0
4, 394080, Note_on_c, 0, 68, 0
4, 394080, Note_on_c, 2, 61, 100
4, 394080, Note_on_c, 0, 69, 100
4, 394320, Note_on_c, 2, 61, 0
4, 394320, Note_on_c, 0, 69, 0
4, 395040, Note_on_c, 2, 61, 100
4, 395280, Note_on_c, 2, 61, 0
4, 395520, Note_on_c, 2, 61, 100
4, 395520, Note_on_c, 2, 60, 100
4, 395520, Note_on_c, 0, 69, 100
4, 395760, Note_on_c, 2, 61, 0
4, 395760, Note_on_c, 2, 60, 0
4, 395760, Note_on_c, 0, 69, 0
4, 396000, Note_on_c, 2, 61, 100
4, 396000, Note_on_c, 0, 70, 100
4, 396240, Note_on_c, 2, 61, 0
4, 396240, Note_on_c, 0, 70, 0
4, 396480, Note_on_c, 2, 61, 100
4, 396480, Note_on_c, 0, 70, 100
4, 396720, Note_on_c, 2, 61, 0
4, 396720, Note_on_c, 0, 70, 0
4, 396960, Note_on_c, 2, 61, 100
4, 396960, Note_on_c, 0, 68, 100
4, 397200, Note_on_c, 2, 61, 0
4, 397440, Note_on_c, 2, 60, 100
4, 397440, Note_on_c, 2, 61, 100
4, 397680, Note_on_c, 2, 60, 0
4, 397680, Note_on_c, 2, 61, 0
4, 397920, Note_on_c, 2, 61, 100
4, 398160, Note_on_c, 2, 61, 0
4, 398400, Note_on_c, 2, 61, 100
4, 398640, Note_on_c, 2, 61, 0
4, 398880, Note_on_c, 0, 68, 0
4, 398880, Note_on_c, 2, 61, 100
4, 399120, Note_on_c, 2, 61, 0
4, 399360, Note_on_c, 2, 61, 100
4, 399360, Note_on_c, 2, 60, 100
4, 399360, Note_on_c, 0, 68, 100
4, 399600, Note_on_c, 2, 61, 0
4, 399600, Note_on_c, 2, 60, 0
4, 399600, Note_on_c, 0, 68, 0
4, 399840, Note_on_c, 2, 61, 100
4, 399840, Note_on_c, 0, 69, 100
4, 400080, Note_on_c, 2, 61, 0
4, 400320, Note_on_c, 2, 61, 100
4, 400560, Note_on_c, 2, 61, 0
4, 400800, Note_on_c, 0, 69, 0
4, 400800, Note_on_c, 2, 61, 100
4, 400800, Note_on_c, 0, 68, 100
4, 401040, Note_on_c, 2, 61, 0
4, 401280, Note_on_c, 2, 61, 100
4, 401280, Note_on_c, 2, 60, 100
4, 401520, Note_on_c, 2, 61, 0
4, 401520, Note_on_c, 2, 60, 0
4, 401760, Note_on_c, 0, 68, 0
4, 401760, Note_on_c, 2, 61, 100
4, 401760, Note_on_c, 0, 69, 100
4, 402000, Note_on_c, 2, 61, 0
4, 402000, Note_on_c, 0, 69, 0
4, 402720, Note_on_c, 2, 61, 100
4, 402960, Note_on_c, 2, 61, 0
4, 403200, Note_on_c, 2, 61, 100
4, 403200, Note_on_c, 2, 60, 100
4, 403200, Note_on_c, 0, 69, 100
4, 403440, Note_on_c, 2, 61, 0
4, 403440, Note_on_c, 2, 60, 0
4, 403440, Note_on_c, 0, 69, 0
4, 403680, Note_on_c, 2, 61, 100
4, 403680, Note_on_c, 0, 70, 100
4, 403920, Note_on_c, 2, 61, 0
4, 403920, Note_on_c, 0, 70, 0
4, 404160, Note_on_c, 2, 61, 100
4, 404160, Note_on_c, 0, 70, 100
4, 404400, Note_on_c, 2, 61, 0
4, 404400, Note_on_c, 0, 70, 0
4, 404640, Note_on_c, 2, 61, 100
4, 404640, Note_on_c, 0, 70, 100
4, 404880, Note_on_c, 2, 61, 0
4, 404880, Note_on_c, 0, 70, 0
4, 405120, Note_on_c, 2, 60, 100
4, 405120, Note_on_c, 2, 61, 100
4, 405360, Note_on_c, 2, 60, 0
4, 405360, Note_on_c, 2, 61, 0
4, 405600, Note_on_c, 2, 61, 100
4, 405600, Note_on_c, 0, 70, 100
4, 405840, Note_on_c, 2, 61, 0
4, 405840, Note_on_c, 0, 70, 0
4, 406080, Note_on_c, 2, 61, 100
4, 406320, Note_on_c, 2, 61, 0
4, 406560, Note_on_c, 2, 61, 100
4, 406800, Note_on_c, 2, 61, 0
4, 407040, Note_on_c, 2, 61, 100
4, 407040, Note_on_c, 2, 60, 100
4, 407040, Note_on_c, 0, 70, 100
4, 407280, Note_on_c, 2, 61, 0
4, 407280, Note_on_c, 2, 60, 0
4, 407280, Note_on_c, 0, 70, 0
4, 407520, Note_on_c, 2, 61, 100
4, 407760, Note_on_c, 2, 61, 0
4, 408000, Note_on_c, 2, 61, 100
4, 408240, Note_on_c, 2, 61, 0
4, 408480, Note_on_c, 2, 61, 100
4, 408480, Note_on_c, 0, 70, 100
4, 408720, Note_on_c, 2, 61, 0
4, 408720, Note_on_c, 0, 70, 0
4, 408960, Note_on_c, 2, 61, 100
4, 408960, Note_on_c, 2, 60, 100
4, 409200, Note_on_c, 2, 61, 0
4, 409200, Note_on_c, 2, 60, 0
4, 409440, Note_on_c, 2, 61, 100
4, 409680, Note_on_c, 2, 61, 0
4, 409920, Note_on_c, 2, 61, 100
4, 409920, Note_on_c, 0, 70, 100
4, 410160, Note_on_c, 2, 61, 0
4, 410160, Note_on_c, 0, 70, 0
4, 410400, Note_on_c, 2, 61, 100
4, 410640, Note_on_c, 2, 61, 0
4, 410880, Note_on_c, 2, 61, 100
4, 410880, Note_on_c, 2, 60, 100
4, 410880, Note_on_c, 0, 70, 100
4, 411120, Note_on_c, 2, 61, 0
4, 411120, Note_on_c, 2, 60, 0
4, 411120, Note_on_c, 0, 70, 0
4, 411360, Note_on_c, 2, 61, 100
4, 411360, Note_on_c, 0, 70, 100
4, 411600, Note_on_c, 2, 61, 0
4, 411600, Note_on_c, 0, 70, 0
4, 411840, Note_on_c, 2, 61, 100
4, 411840, Note_on_c, 0, 70, 100
4, 412080, Note_on_c, 2, 61, 0
4, 412080, Note_on_c, 0, 70, 0
4, 412320, Note_on_c, 2, 61, 100
4, 412560, Note_on_c, 2, 61, 0
4, 412800, Note_on_c, 2, 60, 100
4, 412800, Note_on_c, 2, 61, 100
4, 412800, Note_on_c, 0, 70, 100
4, 413040, Note_on_c, 2, 60, 0
4, 413040, Note_on_c, 2, 61, 0
4, 413040, Note_on_c, 0, 70, 0
4, 413280, Note_on_c, 2, 61, 100
4, 413280, Note_on_c, 0, 69, 100
4, 413520, Note_on_c, 2, 61, 0
4, 413520, Note_on_c, 0, 69, 0
4, 413760, Note_on_c, 2, 61, 100
4, 413760, Note_on_c, 0, 69, 100
4, 414000, Note_on_c, 2, 61, 0
4, 414000, Note_on_c, 0, 69, 0
4, 414240, Note_on_c, 2, 61, 100
4, 414480, Note_on_c, 2, 61, 0
4, 414720, Note_on_c, 2, 61, 100
4, 414720, Note_on_c, 2, 60, 100
4, 414720, Note_on_c, 0, 70, 100
4, 414960, Note_on_c, 2, 61, 0
4, 414960, Note_on_c, 2, 60, 0
4, 415200, Note_on_c, 2, 61, 100
4, 415440, Note_on_c, 2, 61, 0
4, 415680, Note_on_c, 0, 70, 0
4, 415680, Note_on_c, 2, 61, 100
4, 415920, Note_on_c, 2, 61, 0
4, 416160, Note_on_c, 2, 61, 100
4, 416400, Note_on_c, 2, 61, 0
4, 416640, Note_on_c, 2, 61, 100
4, 416640, Note_on_c, 2, 60, 100
4, 416640, Note_on_c, 0, 70, 100
4, 416880, Note_on_c, 2, 61, 0
4, 416880, Note_on_c, 2, 60, 0
4, 416880, Note_on_c, 0, 70, 0
4, 417120, Note_on_c, 2, 61, 100
4, 417360, Note_on_c, 2, 61, 0
4, 417600, Note_on_c, 2, 61, 100
4, 417600, Note_on_c, 0, 70, 100
4, 417840, Note_on_c, 2, 61, 0
4, 417840, Note_on_c, 0, 70, 0
4, 418080, Note_on_c, 2, 61, 100
4, 418320, Note_on_c, 2, 61, 0
4, 418560, Note_on_c, 2, 61, 100
4, 418560, Note_on_c, 2, 60, 100
4, 418560, Note_on_c, 0, 70, 100
4, 418800, Note_on_c, 2, 61, 0
4, 418800, Note_on_c, 2, 60, 0
4, 418800, Note_on_c, 0, 70, 0
4, 419040, Note_on_c, 2, 61, 100
4, 419280, Note_on_c, 2, 61, 0
4, 419520, Note_on_c, 2, 61, 100
4, 419520, Note_on_c, 0, 69, 100
4, 419760, Note_on_c, 2, 61, 0
4, 419760, Note_on_c, 0, 69, 0
4, 420000, Note_on_c, 2, 61, 100
4, 420240, Note_on_c, 2, 61, 0
4, 420480, Note_on_c, 2, 60, 100
4, 420480, Note_on_c, 2, 61, 100
4, 420480, Note_on_c, 0, 70, 100
4, 420720, Note_on_c, 2, 60, 0
4, 420720, Note_on_c, 2, 61, 0
4, 420960, Note_on_c, 2, 61, 100
4, 421200, Note_on_c, 2, 61, 0
4, 421440, Note_on_c, 0, 70, 0
4, 421440, Note_on_c, 2, 61, 100
4, 421680, Note_on_c, 2, 61, 0
4, 421920, Note_on_c, 2, 61, 100
4, 422160, Note_on_c, 2, 61, 0
4, 422400, Note_on_c, 2, 61, 100
4, 422400, Note_on_c, 2, 60, 100
4, 422400, Note_on_c, 0, 70, 100
4, 422640, Note_on_c, 2, 61, 0
4, 422640, Note_on_c, 2, 60, 0
4, 422640, Note_on_c, 0, 70, 0
4, 422880, Note_on_c, 2, 61, 100
4, 423120, Note_on_c, 2, 61, 0
4, 423120, Note_on_c, 0, 70, 100
4, 423360, Note_on_c, 0, 70, 0
4, 423360, Note_on_c, 2, 61, 100
4, 423600, Note_on_c, 2, 61, 0
4, 423840, Note_on_c, 2, 61, 100
4, 423840, Note_on_c, 0, 70, 100
4, 424080, Note_on_c, 2, 61, 0
4, 424080, Note_on_c, 0, 70, 0
4, 424320, Note_on_c, 2, 61, 100
4, 424320, Note_on_c, 2, 60, 100
4, 424320, Note_on_c, 0, 69, 100
4, 424560, Note_on_c, 2, 61, 0
4, 424560, Note_on_c, 2, 60, 0
4, 424560, Note_on_c, 0, 69, 0
4, 424800, Note_on_c, 2, 61, 100
4, 425040, Note_on_c, 2, 61, 0
4, 425040, Note_on_c, 0, 69, 100
4, 425280, Note_on_c, 0, 69, 0
4, 425280, Note_on_c, 2, 61, 100
4, 425520, Note_on_c, 2, 61, 0
4, 425760, Note_on_c, 2, 61, 100
4, 425760, Note_on_c, 0, 69, 100
4, 426000, Note_on_c, 2, 61, 0
4, 426000, Note_on_c, 0, 69, 0
4, 426240, Note_on_c, 2, 61, 100
4, 426240, Note_on_c, 2, 60, 100
4, 426240, Note_on_c, 0, 68, 100
4, 426480, Note_on_c, 2, 61, 0
4, 426480, Note_on_c, 2, 60, 0
4, 426480, Note_on_c, 0, 68, 0
4, 426720, Note_on_c, 2, 61, 100
4, 426960, Note_on_c, 2, 61, 0
4, 427200, Note_on_c, 2, 61, 100
4, 427200, Note_on_c, 0, 68, 100
4, 427440, Note_on_c, 2, 61, 0
4, 427440, Note_on_c, 0, 68, 0
4, 427680, Note_on_c, 2, 61, 100
4, 427920, Note_on_c, 2, 61, 0
4, 428160, Note_on_c, 2, 60, 100
4, 428160, Note_on_c, 2, 61, 100
4, 428160, Note_on_c, 0, 68, 100
4, 428400, Note_on_c, 2, 60, 0
4, 428400, Note_on_c, 2, 61, 0
4, 428640, Note_on_c, 2, 61, 100
4, 428880, Note_on_c, 2, 61, 0
4, 429120, Note_on_c, 0, 68, 0
4, 429120, Note_on_c, 2, 61, 100
4, 429360, Note_on_c, 2, 61, 0
4, 429600, Note_on_c, 2, 61, 100
4, 429840, Note_on_c, 2, 61, 0
4, 430080, Note_on_c, 2, 61, 100
4, 430080, Note_on_c, 2, 60, 100
4, 430080, Note_on_c, 0, 70, 100
4, 430320, Note_on_c, 2, 61, 0
4, 430320, Note_on_c, 2, 60, 0
4, 430320, Note_on_c, 0, 70, 0
4, 430560, Note_on_c, 2, 61, 100
4, 430800, Note_on_c, 2, 61, 0
4, 430800, Note_on_c, 0, 70, 100
4, 431040, Note_on_c, 0, 70, 0
4, 431040, Note_on_c, 2, 61, 100
4, 431280, Note_on_c, 2, 61, 0
4, 431520, Note_on_c, 2, 61, 100
4, 431520, Note_on_c, 0, 70, 100
4, 431760, Note_on_c, 2, 61, 0
4, 431760, Note_on_c, 0, 70, 0
4, 432000, Note_on_c, 2, 61, 100
4, 432000, Note_on_c, 2, 60, 100
4, 432000, Note_on_c, 0, 69, 100
4, 432240, Note_on_c, 2, 61, 0
4, 432240, Note_on_c, 2, 60, 0
4, 432240, Note_on_c, 0, 69, 0
4, 432480, Note_on_c, 2, 61, 100
4, 432720, Note_on_c, 2, 61, 0
4, 432720, Note_on_c, 0, 69, 100
4, 432960, Note_on_c, 0, 69, 0
4, 432960, Note_on_c, 2, 61, 100
4, 433200, Note_on_c, 2, 61, 0
4, 433440, Note_on_c, 2, 61, 100
4, 433440, Note_on_c, 0, 69, 100
4, 433680, Note_on_c, 2, 61, 0
4, 433680, Note_on_c, 0, 69, 0
4, 433920, Note_on_c, 2, 61, 100
4, 433920, Note_on_c, 2, 60, 100
4, 433920, Note_on_c, 0, 68, 100
4, 434160, Note_on_c, 2, 61, 0
4, 434160, Note_on_c, 2, 60, 0
4, 434160, Note_on_c, 0, 68, 0
4, 434400, Note_on_c, 2, 61, 100
4, 434640, Note_on_c, 2, 61, 0
4, 434880, Note_on_c, 2, 61, 100
4, 434880, Note_on_c, 0, 68, 100
4, 435120, Note_on_c, 2, 61, 0
4, 435120, Note_on_c, 0, 68, 0
4, 435360, Note_on_c, 2, 61, 100
4, 435600, Note_on_c, 2, 61, 0
4, 435840, Note_on_c, 2, 60, 100
4, 435840, Note_on_c, 2, 61, 100
4, 435840, Note_on_c, 0, 69, 100
4, 436080, Note_on_c, 2, 60, 0
4, 436080, Note_on_c, 2, 61, 0
4, 436080, Note_on_c, 0, 69, 0
4, 436320, Note_on_c, 2, 61, 100
4, 436560, Note_on_c, 2, 61, 0
4, 436800, Note_on_c, 2, 61, 100
4, 436800, Note_on_c, 0, 68, 100
4, 437040, Note_on_c, 2, 61, 0
4, 437280, Note_on_c, 2, 61, 100
4, 437520, Note_on_c, 0, 68, 0
4, 437520, Note_on_c, 2, 61, 0
4, 437760, Note_on_c, 2, 61, 100
4, 437760, Note_on_c, 2, 60, 100
4, 437760, Note_on_c, 0, 70, 100
4, 438000, Note_on_c, 2, 61, 0
4, 438000, Note_on_c, 2, 60, 0
4, 438000, Note_on_c, 0, 70, 0
4, 438240, Note_on_c, 2, 61, 100
4, 438480, Note_on_c, 2, 61, 0
4, 438480, Note_on_c, 0, 70, 100
4, 438720, Note_on_c, 0, 70, 0
4, 438720, Note_on_c, 2, 61, 100
4, 438960, Note_on_c, 2, 61, 0
4, 439200, Note_on_c, 2, 61, 100
4, 439200, Note_on_c, 0, 70, 100
4, 439440, Note_on_c, 2, 61, 0
4, 439440, Note_on_c, 0, 70, 0
4, 439680, Note_on_c, 2, 61, 100
4, 439680, Note_on_c, 2, 60, 100
4, 439680, Note_on_c, 0, 69, 100
4, 439920, Note_on_c, 2, 61, 0
4, 439920, Note_on_c, 2, 60, 0
4, 439920, Note_on_c, 0, 69, 0
4, 440160, Note_on_c, 2, 61, 100
4, 440400, Note_on_c, 2, 61, 0
4, 440400, Note_on_c, 0, 69, 100
4, 440640, Note_on_c, 0, 69, 0
4, 440640, Note_on_c, 2, 61, 100
4, 440880, Note_on_c, 2, 61, 0
4, 441120, Note_on_c, 2, 61, 100
4, 441120, Note_on_c, 0, 69, 100
4, 441360, Note_on_c, 2, 61, 0
4, 441360, Note_on_c, 0, 69, 0
4, 441600, Note_on_c, 2, 61, 100
4, 441600, Note_on_c, 2, 60, 100
4, 441600, Note_on_c, 0, 68, 100
4, 441840, Note_on_c, 2, 61, 0
4, 441840, Note_on_c, 2, 60, 0
4, 441840, Note_on_c, 0, 68, 0
4, 442080, Note_on_c, 2, 61, 100
4, 442320, Note_on_c, 2, 61, 0
4, 442560, Note_on_c, 2, 61, 100
4, 442560, Note_on_c, 0, 68, 100
4, 442800, Note_on_c, 2, 61, 0
4, 442800, Note_on_c, 0, 68, 0
4, 443040, Note_on_c, 2, 61, 100
4, 443280, Note_on_c, 2, 61, 0
4, 443520, Note_on_c, 2, 60, 100
4, 443520, Note_on_c, 2, 61, 100
4, 443520, Note_on_c, 0, 68, 100
4, 443760, Note_on_c, 2, 60, 0
4, 443760, Note_on_c, 2, 61, 0
4, 444000, Note_on_c, 2, 61, 100
4, 444240, Note_on_c, 2, 61, 0
4, 444480, Note_on_c, 0, 68, 0
4, 444480, Note_on_c, 2, 61, 100
4, 444720, Note_on_c, 2, 61, 0
4, 444960, Note_on_c, 2, 61, 100
4, 445200, Note_on_c, 2, 61, 0
4, 445440, Note_on_c, 2, 61, 100
4, 445440, Note_on_c, 2, 60, 100
4, 445440, Note_on_c, 0, 70, 100
4, 445680, Note_on_c, 2, 61, 0
4, 445680, Note_on_c, 2, 60, 0
4, 445680, Note_on_c, 0, 70, 0
4, 445920, Note_on_c, 2, 61, 100
4, 446160, Note_on_c, 2, 61, 0
4, 446160, Note_on_c, 0, 70, 100
4, 446400, Note_on_c, 0, 70, 0
4, 446400, Note_on_c, 2, 61, 100
4, 446640, Note_on_c, 2, 61, 0
4, 446880, Note_on_c, 2, 61, 100
4, 446880, Note_on_c, 0, 70, 100
4, 447120, Note_on_c, 2, 61, 0
4, 447120, Note_on_c, 0, 70, 0
4, 447360, Note_on_c, 2, 61, 100
4, 447360, Note_on_c, 2, 60, 100
4, 447360, Note_on_c, 0, 69, 100
4, 447600, Note_on_c, 2, 61, 0
4, 447600, Note_on_c, 2, 60, 0
4, 447600, Note_on_c, 0, 69, 0
4, 447840, Note_on_c, 2, 61, 100
4, 448080, Note_on_c, 2, 61, 0
4, 448080, Note_on_c, 0, 69, 100
4, 448320, Note_on_c, 0, 69, 0
4, 448320, Note_on_c, 2, 61, 100
4, 448560, Note_on_c, 2, 61, 0
4, 448800, Note_on_c, 2, 61, 100
4, 448800, Note_on_c, 0, 69, 100
4, 449040, Note_on_c, 2, 61, 0
4, 449040, Note_on_c, 0, 69, 0
4, 449280, Note_on_c, 2, 61, 100
4, 449280, Note_on_c, 2, 60, 100
4, 449280, Note_on_c, 0, 70, 100
4, 449520, Note_on_c, 2, 61, 0
4, 449520, Note_on_c, 2, 60, 0
4, 449520, Note_on_c, 0, 70, 0
4, 449760, Note_on_c, 2, 61, 100
4, 450000, Note_on_c, 2, 61, 0
4, 450000, Note_on_c, 0, 69, 100
4, 450240, Note_on_c, 0, 69, 0
4, 450240, Note_on_c, 2, 61, 100
4, 450480, Note_on_c, 2, 61, 0
4, 450720, Note_on_c, 2, 61, 100
4, 450720, Note_on_c, 0, 68, 100
4, 450960, Note_on_c, 2, 61, 0
4, 450960, Note_on_c, 0, 68, 0
4, 450960, Note_on_c, 2, 60, 100
4, 450960, Note_on_c, 2, 61, 100
4, 451200, Note_on_c, 2, 60, 0
4, 451200, Note_on_c, 2, 61, 0
4, 451440, Note_on_c, 2, 60, 100
4, 451440, Note_on_c, 2, 61, 100
4, 451440, Note_on_c, 0, 68, 100
4, 451680, Note_on_c, 2, 60, 0
4, 451680, Note_on_c, 2, 61, 0
4, 451680, Note_on_c, 0, 68, 0
4, 451920, Note_on_c, 2, 60, 100
4, 451920, Note_on_c, 2, 61, 100
4, 452160, Note_on_c, 2, 60, 0
4, 452160, Note_on_c, 2, 61, 0
4, 452160, Note_on_c, 2, 61, 100
4, 452160, Note_on_c, 0, 68, 100
4, 452400, Note_on_c, 2, 61, 0
4, 452400, Note_on_c, 0, 68, 0
4, 452640, Note_on_c, 2, 61, 100
4, 452640, Note_on_c, 2, 60, 100
4, 452880, Note_on_c, 2, 61, 0
4, 452880, Note_on_c, 2, 60, 0
4, 453120, Note_on_c, 2, 61, 100
4, 453120, Note_on_c, 2, 60, 100
4, 453120, Note_on_c, 0, 70, 100
4, 453360, Note_on_c, 2, 61, 0
4, 453360, Note_on_c, 2, 60, 0
4, 453360, Note_on_c, 0, 70, 0
4, 453600, Note_on_c, 2, 61, 100
4, 453600, Note_on_c, 2, 60, 100
4, 453840, Note_on_c, 2, 61, 0
4, 453840, Note_on_c, 2, 60, 0
4, 454080, Note_on_c, 2, 61, 100
4, 454080, Note_on_c, 0, 69, 100
4, 454320, Note_on_c, 2, 61, 0
4, 454320, Note_on_c, 0, 69, 0
4, 454320, Note_on_c, 2, 60, 100
4, 454320, Note_on_c, 2, 61, 100
4, 454560, Note_on_c, 2, 60, 0
4, 454560, Note_on_c, 2, 61, 0
4, 454800, Note_on_c, 2, 60, 100
4, 454800, Note_on_c, 2, 61, 100
4, 455040, Note_on_c, 2, 60, 0
4, 455040, Note_on_c, 2, 61, 0
4, 455040, Note_on_c, 0, 68, 100
4, 455280, Note_on_c, 0, 68, 0
4, 455280, Note_on_c, 2, 60, 100
4, 455280, Note_on_c, 2, 61, 100
4, 455520, Note_on_c, 2, 60, 0
4, 455520, Note_on_c, 2, 61, 0
4, 455760, Note_on_c, 2, 60, 100
4, 455760, Note_on_c, 2, 61, 100
4, 456000, Note_on_c, 2, 60, 0
4, 456000, Note_on_c, 2, 61, 0
4, 456000, Note_on_c, 2, 61, 100
4, 456000, Note_on_c, 2, 60, 100
4, 456000, Note_on_c, 0, 69, 100
4, 456240, Note_on_c, 2, 61, 0
4, 456240, Note_on_c, 2, 60, 0
4, 463680, Note_on_c, 0, 69, 0
4, 464160, Note_on_c, 2, 61, 100
4, 464160, Note_on_c, 0, 68, 100
4, 464400, Note_on_c, 2, 61, 0
4, 464400, Note_on_c, 0, 68, 0
4, 464400, Note_on_c, 2, 61, 100
4, 464640, Note_on_c, 2, 61, 0
4, 464640, Note_on_c, 2, 61, 100
4, 464640, Note_on_c, 2, 60, 100
4, 464640, Note_on_c, 0, 68, 100
4, 464880, Note_on_c, 2, 61, 0
4, 464880, Note_on_c, 2, 60, 0
4, 464880, Note_on_c, 0, 68, 0
4, 465120, Note_on_c, 2, 61, 100
4, 465120, Note_on_c, 0, 68, 100
4, 465360, Note_on_c, 2, 61, 0
4, 465360, Note_on_c, 0, 68, 0
4, 465600, Note_on_c, 2, 61, 100
4, 465600, Note_on_c, 2, 60, 100
4, 465840, Note_on_c, 2, 61, 0
4, 465840, Note_on_c, 2, 60, 0
4, 466560, Note_on_c, 2, 61, 100
4, 466560, Note_on_c, 2, 60, 100
4, 466800, Note_on_c, 2, 61, 0
4, 466800, Note_on_c, 2, 60, 0
4, 467520, Note_on_c, 2, 61, 100
4, 467520, Note_on_c, 2, 60, 100
4, 467760, Note_on_c, 2, 61, 0
4, 467760, Note_on_c, 2, 60, 0
4, 468480, Note_on_c, 2, 61, 100
4, 468480, Note_on_c, 2, 60, 100
4, 468720, Note_on_c, 2, 61, 0
4, 468720, Note_on_c, 2, 60, 0
4, 469440, Note_on_c, 2, 61, 100
4, 469440, Note_on_c, 2, 60, 100
4, 469680, Note_on_c, 2, 61, 0
4, 469680, Note_on_c, 2, 60, 0
4, 470400, Note_on_c, 2, 61, 100
4, 470400, Note_on_c, 2, 60, 100
4, 470640, Note_on_c, 2, 61, 0
4, 470640, Note_on_c, 2, 60, 0
4, 471360, Note_on_c, 2, 61, 100
4, 471360, Note_on_c, 2, 60, 100
4, 471600, Note_on_c, 2, 61, 0
4, 471600, Note_on_c, 2, 60, 0
4, 471840, Note_on_c, 2, 61, 100
4, 471840, Note_on_c, 0, 68, 100
4, 472080, Note_on_c, 2, 61, 0
4, 472080, Note_on_c, 0, 68, 0
4, 472080, Note_on_c, 2, 61, 100
4, 472320, Note_on_c, 2, 61, 0
4, 472320, Note_on_c, 2, 61, 100
4, 472320, Note_on_c, 2, 60, 100
4, 472320, Note_on_c, 0, 68, 100
4, 472560, Note_on_c, 2, 61, 0
4, 472560, Note_on_c, 2, 60, 0
4, 472560, Note_on_c, 0, 68, 0
4, 472800, Note_on_c, 2, 61, 100
4, 472800, Note_on_c, 0, 68, 100
4, 473040, Note_on_c, 2, 61, 0
4, 473040, Note_on_c, 0, 68, 0
4, 473280, Note_on_c, 2, 61, 100
4, 473280, Note_on_c, 2, 60, 100
4, 473520, Note_on_c, 2, 61, 0
4, 473520, Note_on_c, 2, 60, 0
4, 474240, Note_on_c, 2, 61, 100
4, 474240, Note_on_c, 2, 60, 100
4, 474480, Note_on_c, 2, 61, 0
4, 474480, Note_on_c, 2, 60, 0
4, 475200, Note_on_c, 2, 61, 100
4, 475200, Note_on_c, 2, 60, 100
4, 475440, Note_on_c, 2, 61, 0
4, 475440, Note_on_c, 2, 60, 0
4, 476160, Note_on_c, 2, 61, 100
4, 476160, Note_on_c, 2, 60, 100
4, 476400, Note_on_c, 2, 61, 0
4, 476400, Note_on_c, 2, 60, 0
4, 477120, Note_on_c, 2, 61, 100
4, 477120, Note_on_c, 2, 60, 100
4, 477360, Note_on_c, 2, 61, 0
4, 477360, Note_on_c, 2, 60, 0
4, 478080, Note_on_c, 2, 61, 100
4, 478080, Note_on_c, 2, 60, 100
4, 478320, Note_on_c, 2, 61, 0
4, 478320, Note_on_c, 2, 60, 0
4, 479040, Note_on_c, 2, 61, 100
4, 479040, Note_on_c, 2, 60, 100
4, 479280, Note_on_c, 2, 61, 0
4, 479280, Note_on_c, 2, 60, 0
4, 479518, Note_on_c, 0, 68, 100
4, 479520, Note_on_c, 2, 61, 100
4, 479758, Note_on_c, 0, 68, 0
4, 479760, Note_on_c, 2, 61, 0
4, 479760, Note_on_c, 2, 61, 100
4, 479998, Note_on_c, 0, 68, 100
4, 480000, Note_on_c, 2, 61, 0
4, 480000, Note_on_c, 2, 61, 100
4, 480000, Note_on_c, 2, 60, 100
4, 480238, Note_on_c, 0, 68, 0
4, 480240, Note_on_c, 2, 61, 0
4, 480240, Note_on_c, 2, 60, 0
4, 480478, Note_on_c, 0, 68, 100
4, 480480, Note_on_c, 2, 61, 100
4, 480718, Note_on_c, 0, 68, 0
4, 480720, Note_on_c, 2, 61, 0
4, 480960, Note_on_c, 2, 61, 100
4, 480960, Note_on_c, 2, 60, 100
4, 481200, Note_on_c, 2, 61, 0
4, 481200, Note_on_c, 2, 60, 0
4, 481438, Note_on_c, 0, 68, 100
4, 481920, Note_on_c, 2, 61, 100
4, 481920, Note_on_c, 2, 60, 100
4, 482160, Note_on_c, 2, 61, 0
4, 482160, Note_on_c, 2, 60, 0
4, 482398, Note_on_c, 0, 68, 0
4, 482398, Note_on_c, 0, 69, 100
4, 482880, Note_on_c, 2, 61, 100
4, 482880, Note_on_c, 2, 60, 100
4, 483118, Note_on_c, 0, 69, 0
4, 483120, Note_on_c, 2, 61, 0
4, 483120, Note_on_c, 2, 60, 0
4, 483840, Note_on_c, 2, 61, 100
4, 483840, Note_on_c, 2, 60, 100
4, 483840, Note_on_c, 0, 69, 100
4, 484080, Note_on_c, 2, 61, 0
4, 484080, Note_on_c, 2, 60, 0
4, 484080, Note_on_c, 0, 69, 0
4, 484800, Note_on_c, 2, 61, 100
4, 484800, Note_on_c, 2, 60, 100
4, 484800, Note_on_c, 0, 70, 100
4, 485040, Note_on_c, 2, 61, 0
4, 485040, Note_on_c, 2, 60, 0
4, 485040, Note_on_c, 0, 70, 0
4, 485278, Note_on_c, 0, 68, 100
4, 485760, Note_on_c, 2, 61, 100
4, 485760, Note_on_c, 2, 60, 100
4, 486000, Note_on_c, 2, 61, 0
4, 486000, Note_on_c, 2, 60, 0
4, 486718, Note_on_c, 0, 68, 0
4, 486720, Note_on_c, 2, 61, 100
4, 486720, Note_on_c, 2, 60, 100
4, 486960, Note_on_c, 2, 61, 0
4, 486960, Note_on_c, 2, 60, 0
4, 487198, Note_on_c, 0, 68, 100
4, 487200, Note_on_c, 2, 61, 100
4, 487438, Note_on_c, 0, 68, 0
4, 487440, Note_on_c, 2, 61, 0
4, 487440, Note_on_c, 2, 61, 100
4, 487678, Note_on_c, 0, 68, 100
4, 487680, Note_on_c, 2, 61, 0
4, 487680, Note_on_c, 2, 61, 100
4, 487680, Note_on_c, 2, 60, 100
4, 487918, Note_on_c, 0, 68, 0
4, 487920, Note_on_c, 2, 61, 0
4, 487920, Note_on_c, 2, 60, 0
4, 488158, Note_on_c, 0, 68, 100
4, 488160, Note_on_c, 2, 61, 100
4, 488398, Note_on_c, 0, 68, 0
4, 488400, Note_on_c, 2, 61, 0
4, 488640, Note_on_c, 2, 61, 100
4, 488640, Note_on_c, 2, 60, 100
4, 488880, Note_on_c, 2, 61, 0
4, 488880, Note_on_c, 2, 60, 0
4, 489118, Note_on_c, 0, 68, 100
4, 489600, Note_on_c, 2, 61, 100
4, 489600, Note_on_c, 2, 60, 100
4, 489840, Note_on_c, 2, 61, 0
4, 489840, Note_on_c, 2, 60, 0
4, 490078, Note_on_c, 0, 68, 0
4, 490078, Note_on_c, 0, 69, 100
4, 490560, Note_on_c, 2, 61, 100
4, 490560, Note_on_c, 2, 60, 100
4, 490798, Note_on_c, 0, 69, 0
4, 490800, Note_on_c, 2, 61, 0
4, 490800, Note_on_c, 2, 60, 0
4, 491520, Note_on_c, 2, 61, 100
4, 491520, Note_on_c, 2, 60, 100
4, 491520, Note_on_c, 0, 69, 100
4, 491760, Note_on_c, 2, 61, 0
4, 491760, Note_on_c, 2, 60, 0
4, 491760, Note_on_c, 0, 69, 0
4, 492480, Note_on_c, 2, 61, 100
4, 492480, Note_on_c, 2, 60, 100
4, 492480, Note_on_c, 0, 70, 100
4, 492720, Note_on_c, 2, 61, 0
4, 492720, Note_on_c, 2, 60, 0
4, 492720, Note_on_c, 0, 70, 0
4, 492958, Note_on_c, 0, 68, 100
4, 493440, Note_on_c, 2, 61, 100
4, 493440, Note_on_c, 2, 60, 100
4, 493680, Note_on_c, 2, 61, 0
4, 493680, Note_on_c, 2, 60, 0
4, 494398, Note_on_c, 0, 68, 0
4, 494400, Note_on_c, 2, 61, 100
4, 494400, Note_on_c, 2, 60, 100
4, 494640, Note_on_c, 2, 61, 0
4, 494640, Note_on_c, 2, 60, 0
4, 494878, Note_on_c, 0, 68, 100
4, 494880, Note_on_c, 2, 61, 100
4, 495118, Note_on_c, 0, 68, 0
4, 495120, Note_on_c, 2, 61, 0
4, 495120, Note_on_c, 2, 61, 100
4, 495358, Note_on_c, 0, 68, 100
4, 495360, Note_on_c, 2, 61, 0
4, 495360, Note_on_c, 2, 61, 100
4, 495360, Note_on_c, 2, 60, 100
4, 495598, Note_on_c, 0, 68, 0
4, 495600, Note_on_c, 2, 61, 0
4, 495600, Note_on_c, 2, 60, 0
4, 495838, Note_on_c, 0, 68, 100
4, 495840, Note_on_c, 2, 61, 100
4, 496078, Note_on_c, 0, 68, 0
4, 496080, Note_on_c, 2, 61, 0
4, 496320, Note_on_c, 2, 61, 100
4, 496320, Note_on_c, 2, 60, 100
4, 496560, Note_on_c, 2, 61, 0
4, 496560, Note_on_c, 2, 60, 0
4, 496798, Note_on_c, 0, 68, 100
4, 497280, Note_on_c, 2, 61, 100
4, 497280, Note_on_c, 2, 60, 100
4, 497520, Note_on_c, 2, 61, 0
4, 497520, Note_on_c, 2, 60, 0
4, 497758, Note_on_c, 0, 68, 0
4, 497758, Note_on_c, 0, 69, 100
4, 498240, Note_on_c, 2, 61, 100
4, 498240, Note_on_c, 2, 60, 100
4, 498480, Note_on_c, 0, 69, 0
4, 498480, Note_on_c, 2, 61, 0
4, 498480, Note_on_c, 2, 60, 0
4, 499198, Note_on_c, 0, 69, 100
4, 499200, Note_on_c, 2, 61, 100
4, 499200, Note_on_c, 2, 60, 100
4, 499438, Note_on_c, 0, 69, 0
4, 499440, Note_on_c, 2, 61, 0
4, 499440, Note_on_c, 2, 60, 0
4, 500160, Note_on_c, 2, 61, 100
4, 500160, Note_on_c, 2, 60, 100
4, 500160, Note_on_c, 0, 70, 100
4, 500400, Note_on_c, 2, 61, 0
4, 500400, Note_on_c, 2, 60, 0
4, 500400, Note_on_c, 0, 70, 0
4, 500640, Note_on_c, 0, 68, 100
4, 501120, Note_on_c, 2, 61, 100
4, 501120, Note_on_c, 2, 60, 100
4, 501360, Note_on_c, 2, 61, 0
4, 501360, Note_on_c, 2, 60, 0
4, 502080, Note_on_c, 0, 68, 0
4, 502080, Note_on_c, 2, 61, 100
4, 502080, Note_on_c, 2, 60, 100
4, 502320, Note_on_c, 2, 61, 0
4, 502320, Note_on_c, 2, 60, 0
4, 502560, Note_on_c, 2, 61, 100
4, 502560, Note_on_c, 0, 68, 100
4, 502800, Note_on_c, 2, 61, 0
4, 502800, Note_on_c, 0, 68, 0
4, 502800, Note_on_c, 2, 61, 100
4, 503040, Note_on_c, 2, 61, 0
4, 503040, Note_on_c, 2, 61, 100
4, 503040, Note_on_c, 2, 60, 100
4, 503040, Note_on_c, 0, 68, 100
4, 503280, Note_on_c, 2, 61, 0
4, 503280, Note_on_c, 2, 60, 0
4, 503280, Note_on_c, 0, 68, 0
4, 503520, Note_on_c, 2, 61, 100
4, 503520, Note_on_c, 0, 68, 100
4, 503760, Note_on_c, 2, 61, 0
4, 503760, Note_on_c, 0, 68, 0
4, 504000, Note_on_c, 2, 61, 100
4, 504000, Note_on_c, 2, 60, 100
4, 504240, Note_on_c, 2, 61, 0
4, 504240, Note_on_c, 2, 60, 0
4, 504480, Note_on_c, 0, 68, 100
4, 504960, Note_on_c, 2, 61, 100
4, 504960, Note_on_c, 2, 60, 100
4, 505200, Note_on_c, 2, 61, 0
4, 505200, Note_on_c, 2, 60, 0
4, 505440, Note_on_c, 0, 68, 0
4, 505440, Note_on_c, 0, 69, 100
4, 505920, Note_on_c, 2, 61, 100
4, 505920, Note_on_c, 2, 60, 100
4, 506160, Note_on_c, 0, 69, 0
4, 506160, Note_on_c, 2, 61, 0
4, 506160, Note_on_c, 2, 60, 0
4, 506878, Note_on_c, 0, 69, 100
4, 506880, Note_on_c, 2, 61, 100
4, 506880, Note_on_c, 2, 60, 100
4, 507118, Note_on_c, 0, 69, 0
4, 507120, Note_on_c, 2, 61, 0
4, 507120, Note_on_c, 2, 60, 0
4, 507838, Note_on_c, 0, 70, 100
4, 507840, Note_on_c, 2, 61, 100
4, 507840, Note_on_c, 2, 60, 100
4, 508078, Note_on_c, 0, 70, 0
4, 508080, Note_on_c, 2, 61, 0
4, 508080, Note_on_c, 2, 60, 0
4, 508320, Note_on_c, 0, 68, 100
4, 508800, Note_on_c, 2, 61, 100
4, 508800, Note_on_c, 2, 60, 100
4, 509040, Note_on_c, 2, 61, 0
4, 509040, Note_on_c, 2, 60, 0
4, 509760, Note_on_c, 0, 68, 0
4, 509760, Note_on_c, 2, 61, 100
4, 509760, Note_on_c, 2, 60, 100
4, 510000, Note_on_c, 2, 61, 0
4, 510000, Note_on_c, 2, 60, 0
4, 510240, Note_on_c, 2, 61, 100
4, 510240, Note_on_c, 0, 68, 100
4, 510480, Note_on_c, 2, 61, 0
4, 510480, Note_on_c, 0, 68, 0
4, 510480, Note_on_c, 2, 61, 100
4, 510720, Note_on_c, 2, 61, 0
4, 510720, Note_on_c, 2, 61, 100
4, 510720, Note_on_c, 2, 60, 100
4, 510720, Note_on_c, 0, 68, 100
4, 510960, Note_on_c, 2, 61, 0
4, 510960, Note_on_c, 2, 60, 0
4, 510960, Note_on_c, 0, 68, 0
4, 511200, Note_on_c, 2, 61, 100
4, 511200, Note_on_c, 2, 60, 100
4, 511200, Note_on_c, 0, 69, 100
4, 511440, Note_on_c, 2, 61, 0
4, 511440, Note_on_c, 2, 60, 0
4, 511440, Note_on_c, 0, 69, 0
4, 511680, Note_on_c, 2, 61, 100
4, 511680, Note_on_c, 0, 69, 100
4, 511920, Note_on_c, 2, 61, 0
4, 511920, Note_on_c, 0, 69, 0
4, 512160, Note_on_c, 2, 60, 100
4, 512160, Note_on_c, 2, 61, 100
4, 512400, Note_on_c, 2, 60, 0
4, 512400, Note_on_c, 2, 61, 0
4, 512640, Note_on_c, 2, 60, 100
4, 512640, Note_on_c, 0, 68, 100
4, 512880, Note_on_c, 2, 60, 0
4, 512880, Note_on_c, 0, 68, 0
4, 513120, Note_on_c, 2, 60, 100
4, 513120, Note_on_c, 2, 61, 100
4, 513120, Note_on_c, 0, 69, 100
4, 513360, Note_on_c, 2, 60, 0
4, 513360, Note_on_c, 2, 61, 0
4, 513360, Note_on_c, 0, 69, 0
4, 513600, Note_on_c, 2, 61, 100
4, 513600, Note_on_c, 0, 69, 100
4, 513840, Note_on_c, 2, 61, 0
4, 513840, Note_on_c, 0, 69, 0
4, 514080, Note_on_c, 2, 60, 100
4, 514080, Note_on_c, 2, 61, 100
4, 514320, Note_on_c, 2, 60, 0
4, 514320, Note_on_c, 2, 61, 0
4, 514560, Note_on_c, 2, 60, 100
4, 514560, Note_on_c, 2, 61, 100
4, 514560, Note_on_c, 0, 69, 100
4, 514800, Note_on_c, 2, 60, 0
4, 514800, Note_on_c, 2, 61, 0
4, 514800, Note_on_c, 0, 69, 0
4, 515040, Note_on_c, 2, 60, 100
4, 515040, Note_on_c, 2, 61, 100
4, 515040, Note_on_c, 0, 70, 100
4, 515280, Note_on_c, 2, 60, 0
4, 515280, Note_on_c, 2, 61, 0
4, 515280, Note_on_c, 0, 70, 0
4, 515520, Note_on_c, 2, 61, 100
4, 515520, Note_on_c, 0, 70, 100
4, 515760, Note_on_c, 2, 61, 0
4, 515760, Note_on_c, 0, 70, 0
4, 516000, Note_on_c, 2, 60, 100
4, 516000, Note_on_c, 2, 61, 100
4, 516000, Note_on_c, 0, 68, 100
4, 516240, Note_on_c, 2, 60, 0
4, 516240, Note_on_c, 2, 61, 0
4, 516240, Note_on_c, 0, 68, 0
4, 516480, Note_on_c, 2, 60, 100
4, 516720, Note_on_c, 2, 60, 0
4, 516960, Note_on_c, 2, 61, 100
4, 516960, Note_on_c, 2, 60, 100
4, 517200, Note_on_c, 2, 61, 0
4, 517200, Note_on_c, 2, 60, 0
4, 517440, Note_on_c, 2, 61, 100
4, 517440, Note_on_c, 0, 68, 100
4, 517680, Note_on_c, 2, 61, 0
4, 517680, Note_on_c, 0, 68, 0
4, 517920, Note_on_c, 2, 61, 100
4, 517920, Note_on_c, 2, 60, 100
4, 518160, Note_on_c, 2, 61, 0
4, 518160, Note_on_c, 2, 60, 0
4, 518400, Note_on_c, 2, 61, 100
4, 518400, Note_on_c, 2, 60, 100
4, 518400, Note_on_c, 0, 68, 100
4, 518640, Note_on_c, 2, 61, 0
4, 518640, Note_on_c, 2, 60, 0
4, 518640, Note_on_c, 0, 68, 0
4, 518880, Note_on_c, 2, 61, 100
4, 518880, Note_on_c, 2, 60, 100
4, 518880, Note_on_c, 0, 69, 100
4, 519120, Note_on_c, 2, 61, 0
4, 519120, Note_on_c, 2, 60, 0
4, 519120, Note_on_c, 0, 69, 0
4, 519360, Note_on_c, 2, 61, 100
4, 519360, Note_on_c, 0, 69, 100
4, 519600, Note_on_c, 2, 61, 0
4, 519600, Note_on_c, 0, 69, 0
4, 519840, Note_on_c, 2, 60, 100
4, 519840, Note_on_c, 2, 61, 100
4, 520080, Note_on_c, 2, 60, 0
4, 520080, Note_on_c, 2, 61, 0
4, 520320, Note_on_c, 2, 60, 100
4, 520320, Note_on_c, 0, 68, 100
4, 520560, Note_on_c, 2, 60, 0
4, 520560, Note_on_c, 0, 68, 0
4, 520800, Note_on_c, 2, 60, 100
4, 520800, Note_on_c, 2, 61, 100
4, 520800, Note_on_c, 0, 69, 100
4, 521040, Note_on_c, 2, 60, 0
4, 521040, Note_on_c, 2, 61, 0
4, 521040, Note_on_c, 0, 69, 0
4, 521280, Note_on_c, 2, 61, 100
4, 521280, Note_on_c, 0, 69, 100
4, 521520, Note_on_c, 2, 61, 0
4, 521520, Note_on_c, 0, 69, 0
4, 521760, Note_on_c, 2, 60, 100
4, 521760, Note_on_c, 2, 61, 100
4, 522000, Note_on_c, 2, 60, 0
4, 522000, Note_on_c, 2, 61, 0
4, 522240, Note_on_c, 2, 60, 100
4, 522240, Note_on_c, 2, 61, 100
4, 522240, Note_on_c, 0, 69, 100
4, 522480, Note_on_c, 2, 60, 0
4, 522480, Note_on_c, 2, 61, 0
4, 522480, Note_on_c, 0, 69, 0
4, 522720, Note_on_c, 2, 60, 100
4, 522720, Note_on_c, 2, 61, 100
4, 522720, Note_on_c, 0, 70, 100
4, 522960, Note_on_c, 2, 60, 0
4, 522960, Note_on_c, 2, 61, 0
4, 522960, Note_on_c, 0, 70, 0
4, 523200, Note_on_c, 2, 61, 100
4, 523200, Note_on_c, 0, 70, 100
4, 523440, Note_on_c, 2, 61, 0
4, 523440, Note_on_c, 0, 70, 0
4, 523680, Note_on_c, 2, 60, 100
4, 523680, Note_on_c, 2, 61, 100
4, 523680, Note_on_c, 0, 68, 100
4, 523920, Note_on_c, 2, 60, 0
4, 523920, Note_on_c, 2, 61, 0
4, 523920, Note_on_c, 0, 68, 0
4, 524160, Note_on_c, 2, 60, 100
4, 524400, Note_on_c, 2, 60, 0
4, 524640, Note_on_c, 2, 61, 100
4, 524640, Note_on_c, 2, 60, 100
4, 524880, Note_on_c, 2, 61, 0
4, 524880, Note_on_c, 2, 60, 0
4, 525120, Note_on_c, 2, 61, 100
4, 525120, Note_on_c, 0, 68, 100
4, 525360, Note_on_c, 2, 61, 0
4, 525360, Note_on_c, 0, 68, 0
4, 525600, Note_on_c, 2, 61, 100
4, 525600, Note_on_c, 2, 60, 100
4, 525840, Note_on_c, 2, 61, 0
4, 525840, Note_on_c, 2, 60, 0
4, 526080, Note_on_c, 2, 61, 100
4, 526080, Note_on_c, 2, 60, 100
4, 526080, Note_on_c, 0, 68, 100
4, 526320, Note_on_c, 2, 61, 0
4, 526320, Note_on_c, 2, 60, 0
4, 526320, Note_on_c, 0, 68, 0
4, 526560, Note_on_c, 2, 61, 100
4, 526560, Note_on_c, 2, 60, 100
4, 526560, Note_on_c, 0, 69, 100
4, 526800, Note_on_c, 2, 61, 0
4, 526800, Note_on_c, 2, 60, 0
4, 526800, Note_on_c, 0, 69, 0
4, 527040, Note_on_c, 2, 61, 100
4, 527040, Note_on_c, 0, 69, 100
4, 527280, Note_on_c, 2, 61, 0
4, 527280, Note_on_c, 0, 69, 0
4, 527520, Note_on_c, 2, 60, 100
4, 527520, Note_on_c, 2, 61, 100
4, 527760, Note_on_c, 2, 60, 0
4, 527760, Note_on_c, 2, 61, 0
4, 528000, Note_on_c, 2, 60, 100
4, 528000, Note_on_c, 0, 68, 100
4, 528240, Note_on_c, 2, 60, 0
4, 528240, Note_on_c, 0, 68, 0
4, 528480, Note_on_c, 2, 60, 100
4, 528480, Note_on_c, 2, 61, 100
4, 528480, Note_on_c, 0, 69, 100
4, 528720, Note_on_c, 2, 60, 0
4, 528720, Note_on_c, 2, 61, 0
4, 528720, Note_on_c, 0, 69, 0
4, 528960, Note_on_c, 2, 61, 100
4, 528960, Note_on_c, 0, 69, 100
4, 529200, Note_on_c, 2, 61, 0
4, 529200, Note_on_c, 0, 69, 0
4, 529440, Note_on_c, 2, 60, 100
4, 529440, Note_on_c, 2, 61, 100
4, 529680, Note_on_c, 2, 60, 0
4, 529680, Note_on_c, 2, 61, 0
4, 529920, Note_on_c, 2, 60, 100
4, 529920, Note_on_c, 2, 61, 100
4, 529920, Note_on_c, 0, 69, 100
4, 530160, Note_on_c, 2, 60, 0
4, 530160, Note_on_c, 2, 61, 0
4, 530160, Note_on_c, 0, 69, 0
4, 530400, Note_on_c, 2, 60, 100
4, 530400, Note_on_c, 2, 61, 100
4, 530400, Note_on_c, 0, 70, 100
4, 530640, Note_on_c, 2, 60, 0
4, 530640, Note_on_c, 2, 61, 0
4, 530640, Note_on_c, 0, 70, 0
4, 530880, Note_on_c, 2, 61, 100
4, 530880, Note_on_c, 0, 70, 100
4, 531120, Note_on_c, 2, 61, 0
4, 531120, Note_on_c, 0, 70, 0
4, 531360, Note_on_c, 2, 60, 100
4, 531360, Note_on_c, 2, 61, 100
4, 531360, Note_on_c, 0, 68, 100
4, 531600, Note_on_c, 2, 60, 0
4, 531600, Note_on_c, 2, 61, 0
4, 531600, Note_on_c, 0, 68, 0
4, 531840, Note_on_c, 2, 60, 100
4, 532080, Note_on_c, 2, 60, 0
4, 532320, Note_on_c, 2, 61, 100
4, 532320, Note_on_c, 2, 60, 100
4, 532560, Note_on_c, 2, 61, 0
4, 532560, Note_on_c, 2, 60, 0
4, 532800, Note_on_c, 2, 61, 100
4, 532800, Note_on_c, 0, 68, 100
4, 533040, Note_on_c, 2, 61, 0
4, 533040, Note_on_c, 0, 68, 0
4, 533280, Note_on_c, 2, 61, 100
4, 533280, Note_on_c, 2, 60, 100
4, 533520, Note_on_c, 2, 61, 0
4, 533520, Note_on_c, 2, 60, 0
4, 533760, Note_on_c, 2, 61, 100
4, 533760, Note_on_c, 2, 60, 100
4, 533760, Note_on_c, 0, 68, 100
4, 534000, Note_on_c, 2, 61, 0
4, 534000, Note_on_c, 2, 60, 0
4, 534000, Note_on_c, 0, 68, 0
4, 534240, Note_on_c, 2, 61, 100
4, 534240, Note_on_c, 2, 60, 100
4, 534240, Note_on_c, 0, 69, 100
4, 534480, Note_on_c, 2, 61, 0
4, 534480, Note_on_c, 2, 60, 0
4, 534480, Note_on_c, 0, 69, 0
4, 534720, Note_on_c, 2, 61, 100
4, 534720, Note_on_c, 0, 69, 100
4, 534960, Note_on_c, 2, 61, 0
4, 534960, Note_on_c, 0, 69, 0
4, 535200, Note_on_c, 2, 60, 100
4, 535200, Note_on_c, 2, 61, 100
4, 535200, Note_on_c, 0, 68, 100
4, 535440, Note_on_c, 2, 60, 0
4, 535440, Note_on_c, 2, 61, 0
4, 535440, Note_on_c, 0, 68, 0
4, 535680, Note_on_c, 2, 60, 100
4, 535680, Note_on_c, 0, 68, 100
4, 535920, Note_on_c, 2, 60, 0
4, 535920, Note_on_c, 0, 68, 0
4, 536160, Note_on_c, 2, 60, 100
4, 536160, Note_on_c, 2, 61, 100
4, 536160, Note_on_c, 0, 69, 100
4, 536400, Note_on_c, 2, 60, 0
4, 536400, Note_on_c, 2, 61, 0
4, 536400, Note_on_c, 0, 69, 0
4, 536640, Note_on_c, 2, 61, 100
4, 536640, Note_on_c, 0, 69, 100
4, 536880, Note_on_c, 2, 61, 0
4, 536880, Note_on_c, 0, 69, 0
4, 537120, Note_on_c, 2, 60, 100
4, 537120, Note_on_c, 2, 61, 100
4, 537360, Note_on_c, 2, 60, 0
4, 537360, Note_on_c, 2, 61, 0
4, 537600, Note_on_c, 2, 60, 100
4, 537600, Note_on_c, 2, 61, 100
4, 537600, Note_on_c, 0, 69, 100
4, 537840, Note_on_c, 2, 60, 0
4, 537840, Note_on_c, 2, 61, 0
4, 537840, Note_on_c, 0, 69, 0
4, 538080, Note_on_c, 2, 60, 100
4, 538080, Note_on_c, 2, 61, 100
4, 538080, Note_on_c, 0, 70, 100
4, 538320, Note_on_c, 2, 60, 0
4, 538320, Note_on_c, 2, 61, 0
4, 538320, Note_on_c, 0, 70, 0
4, 538560, Note_on_c, 2, 61, 100
4, 538560, Note_on_c, 0, 70, 100
4, 538800, Note_on_c, 2, 61, 0
4, 538800, Note_on_c, 0, 70, 0
4, 539040, Note_on_c, 2, 60, 100
4, 539040, Note_on_c, 2, 61, 100
4, 539040, Note_on_c, 0, 68, 100
4, 539280, Note_on_c, 2, 60, 0
4, 539280, Note_on_c, 2, 61, 0
4, 539280, Note_on_c, 0, 68, 0
4, 539520, Note_on_c, 2, 60, 100
4, 539760, Note_on_c, 2, 60, 0
4, 540000, Note_on_c, 2, 61, 100
4, 540000, Note_on_c, 2, 60, 100
4, 540240, Note_on_c, 2, 61, 0
4, 540240, Note_on_c, 2, 60, 0
4, 540480, Note_on_c, 2, 61, 100
4, 540480, Note_on_c, 0, 68, 100
4, 540720, Note_on_c, 2, 61, 0
4, 540720, Note_on_c, 0, 68, 0
4, 540960, Note_on_c, 2, 61, 100
4, 540960, Note_on_c, 2, 60, 100
4, 541200, Note_on_c, 2, 61, 0
4, 541200, Note_on_c, 2, 60, 0
4, 541440, Note_on_c, 2, 61, 100
4, 541440, Note_on_c, 2, 60, 100
4, 541440, Note_on_c, 0, 68, 100
4, 541680, Note_on_c, 2, 61, 0
4, 541680, Note_on_c, 2, 60, 0
4, 541680, Note_on_c, 0, 68, 0
4, 541920, Note_on_c, 2, 61, 100
4, 541920, Note_on_c, 2, 60, 100
4, 541920, Note_on_c, 0, 69, 100
4, 542160, Note_on_c, 2, 61, 0
4, 542160, Note_on_c, 2, 60, 0
4, 542160, Note_on_c, 0, 69, 0
4, 542400, Note_on_c, 2, 61, 100
4, 542400, Note_on_c, 0, 69, 100
4, 542640, Note_on_c, 2, 61, 0
4, 542640, Note_on_c, 0, 69, 0
4, 542880, Note_on_c, 2, 60, 100
4, 542880, Note_on_c, 2, 61, 100
4, 543120, Note_on_c, 2, 60, 0
4, 543120, Note_on_c, 2, 61, 0
4, 543360, Note_on_c, 2, 60, 100
4, 543360, Note_on_c, 2, 61, 100
4, 543360, Note_on_c, 0, 68, 100
4, 543600, Note_on_c, 2, 60, 0
4, 543600, Note_on_c, 2, 61, 0
4, 543600, Note_on_c, 0, 68, 0
4, 543840, Note_on_c, 2, 60, 100
4, 543840, Note_on_c, 2, 61, 100
4, 543840, Note_on_c, 0, 69, 100
4, 544080, Note_on_c, 2, 60, 0
4, 544080, Note_on_c, 2, 61, 0
4, 544080, Note_on_c, 0, 69, 0
4, 544320, Note_on_c, 2, 61, 100
4, 544320, Note_on_c, 0, 69, 100
4, 544560, Note_on_c, 2, 61, 0
4, 544560, Note_on_c, 0, 69, 0
4, 544800, Note_on_c, 2, 60, 100
4, 544800, Note_on_c, 2, 61, 100
4, 545040, Note_on_c, 2, 60, 0
4, 545040, Note_on_c, 2, 61, 0
4, 545280, Note_on_c, 2, 60, 100
4, 545280, Note_on_c, 2, 61, 100
4, 545280, Note_on_c, 0, 69, 100
4, 545520, Note_on_c, 2, 60, 0
4, 545520, Note_on_c, 2, 61, 0
4, 545520, Note_on_c, 0, 69, 0
4, 545760, Note_on_c, 2, 60, 100
4, 545760, Note_on_c, 2, 61, 100
4, 545760, Note_on_c, 0, 70, 100
4, 546000, Note_on_c, 2, 60, 0
4, 546000, Note_on_c, 2, 61, 0
4, 546000, Note_on_c, 0, 70, 0
4, 546240, Note_on_c, 2, 61, 100
4, 546240, Note_on_c, 0, 70, 100
4, 546480, Note_on_c, 2, 61, 0
4, 546480, Note_on_c, 0, 70, 0
4, 546720, Note_on_c, 2, 60, 100
4, 546720, Note_on_c, 2, 61, 100
4, 546720, Note_on_c, 0, 68, 100
4, 546960, Note_on_c, 2, 60, 0
4, 546960, Note_on_c, 2, 61, 0
4, 546960, Note_on_c, 0, 68, 0
4, 547200, Note_on_c, 2, 60, 100
4, 547200, Note_on_c, 2, 61, 100
4, 547440, Note_on_c, 2, 60, 0
4, 547440, Note_on_c, 2, 61, 0
4, 547680, Note_on_c, 2, 61, 100
4, 547680, Note_on_c, 2, 60, 100
4, 547920, Note_on_c, 2, 61, 0
4, 547920, Note_on_c, 2, 60, 0
4, 548160, Note_on_c, 2, 61, 100
4, 548160, Note_on_c, 0, 68, 100
4, 548400, Note_on_c, 2, 61, 0
4, 548400, Note_on_c, 0, 68, 0
4, 548640, Note_on_c, 2, 61, 100
4, 548640, Note_on_c, 2, 60, 100
4, 548880, Note_on_c, 2, 61, 0
4, 548880, Note_on_c, 2, 60, 0
4, 549120, Note_on_c, 2, 61, 100
4, 549120, Note_on_c, 2, 60, 100
4, 549120, Note_on_c, 0, 68, 100
4, 549360, Note_on_c, 2, 61, 0
4, 549360, Note_on_c, 2, 60, 0
4, 549360, Note_on_c, 0, 68, 0
4, 549600, Note_on_c, 2, 61, 100
4, 549600, Note_on_c, 2, 60, 100
4, 549600, Note_on_c, 0, 69, 100
4, 549840, Note_on_c, 2, 61, 0
4, 549840, Note_on_c, 2, 60, 0
4, 549840, Note_on_c, 0, 69, 0
4, 550080, Note_on_c, 2, 61, 100
4, 550080, Note_on_c, 0, 69, 100
4, 550320, Note_on_c, 2, 61, 0
4, 550320, Note_on_c, 0, 69, 0
4, 550560, Note_on_c, 2, 60, 100
4, 550560, Note_on_c, 2, 61, 100
4, 550800, Note_on_c, 2, 60, 0
4, 550800, Note_on_c, 2, 61, 0
4, 551040, Note_on_c, 2, 60, 100
4, 551040, Note_on_c, 2, 61, 100
4, 551040, Note_on_c, 0, 68, 100
4, 551280, Note_on_c, 2, 60, 0
4, 551280, Note_on_c, 2, 61, 0
4, 551280, Note_on_c, 0, 68, 0
4, 551520, Note_on_c, 2, 60, 100
4, 551520, Note_on_c, 2, 61, 100
4, 551520, Note_on_c, 0, 69, 100
4, 551760, Note_on_c, 2, 60, 0
4, 551760, Note_on_c, 2, 61, 0
4, 551760, Note_on_c, 0, 69, 0
4, 552000, Note_on_c, 2, 61, 100
4, 552000, Note_on_c, 0, 69, 100
4, 552240, Note_on_c, 2, 61, 0
4, 552240, Note_on_c, 0, 69, 0
4, 552480, Note_on_c, 2, 60, 100
4, 552480, Note_on_c, 2, 61, 100
4, 552720, Note_on_c, 2, 60, 0
4, 552720, Note_on_c, 2, 61, 0
4, 552960, Note_on_c, 2, 60, 100
4, 552960, Note_on_c, 2, 61, 100
4, 552960, Note_on_c, 0, 69, 100
4, 553200, Note_on_c, 2, 60, 0
4, 553200, Note_on_c, 2, 61, 0
4, 553200, Note_on_c, 0, 69, 0
4, 553440, Note_on_c, 2, 60, 100
4, 553440, Note_on_c, 2, 61, 100
4, 553440, Note_on_c, 0, 70, 100
4, 553680, Note_on_c, 2, 60, 0
4, 553680, Note_on_c, 2, 61, 0
4, 553680, Note_on_c, 0, 70, 0
4, 553920, Note_on_c, 2, 61, 100
4, 553920, Note_on_c, 0, 70, 100
4, 554160, Note_on_c, 2, 61, 0
4, 554160, Note_on_c, 0, 70, 0
4, 554400, Note_on_c, 2, 60, 100
4, 554400, Note_on_c, 2, 61, 100
4, 554400, Note_on_c, 0, 68, 100
4, 554640, Note_on_c, 2, 60, 0
4, 554640, Note_on_c, 2, 61, 0
4, 554640, Note_on_c, 0, 68, 0
4, 554880, Note_on_c, 2, 60, 100
4, 554880, Note_on_c, 2, 61, 100
4, 555120, Note_on_c, 2, 60, 0
4, 555120, Note_on_c, 2, 61, 0
4, 555360, Note_on_c, 2, 61, 100
4, 555360, Note_on_c, 2, 60, 100
4, 555600, Note_on_c, 2, 61, 0
4, 555600, Note_on_c, 2, 60, 0
4, 555840, Note_on_c, 2, 61, 100
4, 555840, Note_on_c, 0, 68, 100
4, 556080, Note_on_c, 2, 61, 0
4, 556080, Note_on_c, 0, 68, 0
4, 556320, Note_on_c, 2, 61, 100
4, 556320, Note_on_c, 2, 60, 100
4, 556560, Note_on_c, 2, 61, 0
4, 556560, Note_on_c, 2, 60, 0
4, 556800, Note_on_c, 2, 61, 100
4, 556800, Note_on_c, 2, 60, 100
4, 556800, Note_on_c, 0, 68, 100
4, 557040, Note_on_c, 2, 61, 0
4, 557040, Note_on_c, 2, 60, 0
4, 557040, Note_on_c, 0, 68, 0
4, 557280, Note_on_c, 2, 61, 100
4, 557280, Note_on_c, 2, 60, 100
4, 557280, Note_on_c, 0, 69, 100
4, 557520, Note_on_c, 2, 61, 0
4, 557520, Note_on_c, 2, 60, 0
4, 557520, Note_on_c, 0, 69, 0
4, 557760, Note_on_c, 2, 61, 100
4, 557760, Note_on_c, 0, 69, 100
4, 558000, Note_on_c, 2, 61, 0
4, 558000, Note_on_c, 0, 69, 0
4, 558240, Note_on_c, 2, 60, 100
4, 558240, Note_on_c, 2, 61, 100
4, 558480, Note_on_c, 2, 60, 0
4, 558480, Note_on_c, 2, 61, 0
4, 558720, Note_on_c, 2, 60, 100
4, 558720, Note_on_c, 2, 61, 100
4, 558720, Note_on_c, 0, 68, 100
4, 558960, Note_on_c, 2, 60, 0
4, 558960, Note_on_c, 2, 61, 0
4, 558960, Note_on_c, 0, 68, 0
4, 559200, Note_on_c, 2, 60, 100
4, 559200, Note_on_c, 2, 61, 100
4, 559200, Note_on_c, 0, 69, 100
4, 559440, Note_on_c, 2, 60, 0
4, 559440, Note_on_c, 2, 61, 0
4, 559440, Note_on_c, 0, 69, 0
4, 559680, Note_on_c, 2, 61, 100
4, 559680, Note_on_c, 0, 69, 100
4, 559920, Note_on_c, 2, 61, 0
4, 559920, Note_on_c, 0, 69, 0
4, 560160, Note_on_c, 2, 60, 100
4, 560160, Note_on_c, 2, 61, 100
4, 560400, Note_on_c, 2, 60, 0
4, 560400, Note_on_c, 2, 61, 0
4, 560640, Note_on_c, 2, 60, 100
4, 560640, Note_on_c, 2, 61, 100
4, 560640, Note_on_c, 0, 69, 100
4, 560880, Note_on_c, 2, 60, 0
4, 560880, Note_on_c, 2, 61, 0
4, 560880, Note_on_c, 0, 69, 0
4, 561120, Note_on_c, 2, 60, 100
4, 561120, Note_on_c, 2, 61, 100
4, 561120, Note_on_c, 0, 70, 100
4, 561360, Note_on_c, 2, 60, 0
4, 561360, Note_on_c, 2, 61, 0
4, 561360, Note_on_c, 0, 70, 0
4, 561600, Note_on_c, 2, 61, 100
4, 561600, Note_on_c, 0, 70, 100
4, 561840, Note_on_c, 2, 61, 0
4, 561840, Note_on_c, 0, 70, 0
4, 562080, Note_on_c, 2, 60, 100
4, 562080, Note_on_c, 2, 61, 100
4, 562080, Note_on_c, 0, 68, 100
4, 562320, Note_on_c, 2, 60, 0
4, 562320, Note_on_c, 2, 61, 0
4, 562320, Note_on_c, 0, 68, 0
4, 562560, Note_on_c, 2, 60, 100
4, 562560, Note_on_c, 2, 61, 100
4, 562800, Note_on_c, 2, 60, 0
4, 562800, Note_on_c, 2, 61, 0
4, 563040, Note_on_c, 2, 61, 100
4, 563040, Note_on_c, 2, 60, 100
4, 563280, Note_on_c, 2, 61, 0
4, 563280, Note_on_c, 2, 60, 0
4, 563520, Note_on_c, 2, 61, 100
4, 563520, Note_on_c, 0, 68, 100
4, 563760, Note_on_c, 2, 61, 0
4, 563760, Note_on_c, 0, 68, 0
4, 564000, Note_on_c, 2, 61, 100
4, 564000, Note_on_c, 2, 60, 100
4, 564240, Note_on_c, 2, 61, 0
4, 564240, Note_on_c, 2, 60, 0
4, 564480, Note_on_c, 2, 61, 100
4, 564480, Note_on_c, 2, 60, 100
4, 564480, Note_on_c, 0, 68, 100
4, 564720, Note_on_c, 2, 61, 0
4, 564720, Note_on_c, 2, 60, 0
4, 564720, Note_on_c, 0, 68, 0
4, 564960, Note_on_c, 2, 61, 100
4, 564960, Note_on_c, 2, 60, 100
4, 564960, Note_on_c, 0, 69, 100
4, 565200, Note_on_c, 2, 61, 0
4, 565200, Note_on_c, 2, 60, 0
4, 565200, Note_on_c, 0, 69, 0
4, 565440, Note_on_c, 2, 61, 100
4, 565440, Note_on_c, 0, 69, 100
4, 565680, Note_on_c, 2, 61, 0
4, 565680, Note_on_c, 0, 69, 0
4, 565920, Note_on_c, 2, 60, 100
4, 565920, Note_on_c, 2, 61, 100
4, 566160, Note_on_c, 2, 60, 0
4, 566160, Note_on_c, 2, 61, 0
4, 566400, Note_on_c, 2, 60, 100
4, 566400, Note_on_c, 2, 61, 100
4, 566400, Note_on_c, 0, 68, 100
4, 566640, Note_on_c, 2, 60, 0
4, 566640, Note_on_c, 2, 61, 0
4, 566640, Note_on_c, 0, 68, 0
4, 566880, Note_on_c, 2, 60, 100
4, 566880, Note_on_c, 2, 61, 100
4, 566880, Note_on_c, 0, 69, 100
4, 567120, Note_on_c, 2, 60, 0
4, 567120, Note_on_c, 2, 61, 0
4, 567120, Note_on_c, 0, 69, 0
4, 567360, Note_on_c, 2, 61, 100
4, 567360, Note_on_c, 0, 69, 100
4, 567600, Note_on_c, 2, 61, 0
4, 567600, Note_on_c, 0, 69, 0
4, 567840, Note_on_c, 2, 60, 100
4, 567840, Note_on_c, 2, 61, 100
4, 568080, Note_on_c, 2, 60, 0
4, 568080, Note_on_c, 2, 61, 0
4, 568320, Note_on_c, 2, 60, 100
4, 568320, Note_on_c, 2, 61, 100
4, 568320, Note_on_c, 0, 69, 100
4, 568560, Note_on_c, 2, 60, 0
4, 568560, Note_on_c, 2, 61, 0
4, 568560, Note_on_c, 0, 69, 0
4, 568800, Note_on_c, 2, 60, 100
4, 568800, Note_on_c, 2, 61, 100
4, 568800, Note_on_c, 0, 70, 100
4, 569040, Note_on_c, 2, 60, 0
4, 569040, Note_on_c, 2, 61, 0
4, 569040, Note_on_c, 0, 70, 0
4, 569280, Note_on_c, 2, 61, 100
4, 569280, Note_on_c, 0, 70, 100
4, 569520, Note_on_c, 2, 61, 0
4, 569520, Note_on_c, 0, 70, 0
4, 569760, Note_on_c, 2, 60, 100
4, 569760, Note_on_c, 2, 61, 100
4, 569760, Note_on_c, 0, 68, 100
4, 570000, Note_on_c, 2, 60, 0
4, 570000, Note_on_c, 2, 61, 0
4, 570000, Note_on_c, 0, 68, 0
4, 570240, Note_on_c, 2, 60, 100
4, 570240, Note_on_c, 2, 61, 100
4, 570480, Note_on_c, 2, 60, 0
4, 570480, Note_on_c, 2, 61, 0
4, 570720, Note_on_c, 2, 61, 100
4, 570720, Note_on_c, 2, 60, 100
4, 570720, Note_on_c, 0, 68, 100
4, 570960, Note_on_c, 2, 61, 0
4, 570960, Note_on_c, 2, 60, 0
4, 570960, Note_on_c, 0, 68, 0
4, 571200, Note_on_c, 2, 61, 100
4, 571200, Note_on_c, 0, 68, 100
4, 571440, Note_on_c, 2, 61, 0
4, 571440, Note_on_c, 0, 68, 0
4, 571680, Note_on_c, 2, 61, 100
4, 571680, Note_on_c, 2, 60, 100
4, 571680, Note_on_c, 0, 68, 100
4, 571920, Note_on_c, 2, 61, 0
4, 571920, Note_on_c, 2, 60, 0
4, 571920, Note_on_c, 0, 68, 0
4, 571920, Note_on_c, 2, 61, 100
4, 572160, Note_on_c, 2, 61, 0
4, 572160, Note_on_c, 2, 61, 100
4, 572160, Note_on_c, 2, 60, 100
4, 572160, Note_on_c, 0, 68, 100
4, 572400, Note_on_c, 2, 61, 0
4, 572400, Note_on_c, 2, 60, 0
4, 572400, Note_on_c, 0, 68, 0
4, 572640, Note_on_c, 2, 61, 100
4, 572640, Note_on_c, 2, 60, 100
4, 572640, Note_on_c, 0, 68, 100
4, 572880, Note_on_c, 2, 61, 0
4, 572880, Note_on_c, 2, 60, 0
4, 572880, Note_on_c, 0, 68, 0
4, 572880, End_track
5, 0, Start_track
5, 0, Title_t, "ANIM"
5, 68640, Note_on_c, 3, 40, 100
5, 69360, Note_on_c, 3, 40, 0
5, 69600, Note_on_c, 3, 42, 100
5, 72720, Note_on_c, 3, 42, 0
5, 72960, Text_t, "HandMap_Solo"
5, 72960, Note_on_c, 3, 47, 100
5, 73198, Note_on_c, 3, 47, 0
5, 73918, Note_on_c, 3, 51, 100
5, 75598, Note_on_c, 3, 51, 0
5, 75838, Note_on_c, 3, 49, 100
5, 76078, Note_on_c, 3, 49, 0
5, 76798, Note_on_c, 3, 47, 100
5, 77038, Note_on_c, 3, 47, 0
5, 77758, Note_on_c, 3, 50, 100
5, 79438, Note_on_c, 3, 50, 0
5, 79678, Note_on_c, 3, 47, 100
5, 79918, Note_on_c, 3, 47, 0
5, 80638, Note_on_c, 3, 46, 100
5, 80878, Note_on_c, 3, 46, 0
5, 81598, Note_on_c, 3, 49, 100
5, 83038, Note_on_c, 3, 49, 0
5, 83518, Note_on_c, 3, 44, 100
5, 83758, Note_on_c, 3, 44, 0
5, 84480, Note_on_c, 3, 42, 100
5, 88080, Note_on_c, 3, 42, 0
5, 88320, Note_on_c, 3, 47, 100
5, 88558, Note_on_c, 3, 47, 0
5, 89278, Note_on_c, 3, 51, 100
5, 90958, Note_on_c, 3, 51, 0
5, 91198, Note_on_c, 3, 49, 100
5, 91438, Note_on_c, 3, 49, 0
5, 92158, Note_on_c, 3, 47, 100
5, 92398, Note_on_c, 3, 47, 0
5, 93118, Note_on_c, 3, 50, 100
5, 94798, Note_on_c, 3, 50, 0
5, 95038, Note_on_c, 3, 47, 100
5, 95278, Note_on_c, 3, 47, 0
5, 95998, Note_on_c, 3, 46, 100
5, 96238, Note_on_c, 3, 46, 0
5, 96958, Note_on_c, 3, 49, 100
5, 98398, Note_on_c, 3, 49, 0
5, 98878, Note_on_c, 3, 44, 100
5, 99118, Note_on_c, 3, 44, 0
5, 99840, Note_on_c, 3, 52, 100
5, 101040, Note_on_c, 3, 52, 0
5, 101280, Note_on_c, 3, 50, 100
5, 101520, Note_on_c, 3, 50, 0
5, 101760, Note_on_c, 3, 52, 100
5, 102000, Note_on_c, 3, 52, 0
5, 102240, Note_on_c, 3, 55, 100
5, 102960, Note_on_c, 3, 55, 0
5, 103200, Note_on_c, 3, 52, 100
5, 103440, Note_on_c, 3, 52, 0
5, 103680, Note_on_c, 3, 50, 100
5, 103920, Note_on_c, 3, 50, 0
5, 104160, Note_on_c, 3, 52, 100
5, 104400, Note_on_c, 3, 52, 0
5, 104640, Note_on_c, 3, 50, 100
5, 104880, Note_on_c, 3, 50, 0
5, 105120, Note_on_c, 3, 55, 100
5, 105840, Note_on_c, 3, 55, 0
5, 106080, Note_on_c, 3, 52, 100
5, 106560, Note_on_c, 3, 52, 0
5, 107040, Note_on_c, 3, 47, 100
5, 107280, Note_on_c, 3, 47, 0
5, 107520, Note_on_c, 3, 52, 100
5, 107760, Note_on_c, 3, 52, 0
5, 108000, Note_on_c, 3, 50, 100
5, 108240, Note_on_c, 3, 50, 0
5, 108480, Note_on_c, 3, 52, 100
5, 108720, Note_on_c, 3, 52, 0
5, 108960, Note_on_c, 3, 50, 100
5, 109200, Note_on_c, 3, 50, 0
5, 109440, Note_on_c, 3, 52, 100
5, 109680, Note_on_c, 3, 52, 0
5, 109920, Note_on_c, 3, 55, 100
5, 110640, Note_on_c, 3, 55, 0
5, 110880, Note_on_c, 3, 52, 100
5, 111120, Note_on_c, 3, 52, 0
5, 111360, Note_on_c, 3, 50, 100
5, 111600, Note_on_c, 3, 50, 0
5, 111840, Note_on_c, 3, 47, 100
5, 112080, Note_on_c, 3, 47, 0
5, 112320, Note_on_c, 3, 45, 100
5, 112560, Note_on_c, 3, 45, 0
5, 112800, Note_on_c, 3, 43, 100
5, 113520, Note_on_c, 3, 43, 0
5, 113760, Note_on_c, 3, 40, 100
5, 114720, Note_on_c, 3, 40, 0
5, 115200, Text_t, "HandMap_DropD2"
5, 115200, Note_on_c, 3, 45, 100
5, 115440, Note_on_c, 3, 45, 0
5, 115680, Note_on_c, 3, 46, 100
5, 115920, Note_on_c, 3, 46, 0
5, 116160, Note_on_c, 3, 47, 100
5, 116400, Note_on_c, 3, 47, 0
5, 116640, Note_on_c, 3, 46, 100
5, 116880, Note_on_c, 3, 46, 0
5, 117120, Note_on_c, 3, 45, 100
5, 117360, Note_on_c, 3, 45, 0
5, 117600, Note_on_c, 3, 46, 100
5, 117840, Note_on_c, 3, 46, 0
5, 118080, Note_on_c, 3, 47, 100
5, 118320, Note_on_c, 3, 47, 0
5, 118560, Note_on_c, 3, 46, 100
5, 118800, Note_on_c, 3, 46, 0
5, 119040, Note_on_c, 3, 45, 100
5, 119280, Note_on_c, 3, 45, 0
5, 119520, Note_on_c, 3, 46, 100
5, 119760, Note_on_c, 3, 46, 0
5, 120000, Note_on_c, 3, 47, 100
5, 120240, Note_on_c, 3, 47, 0
5, 120480, Note_on_c, 3, 46, 100
5, 120720, Note_on_c, 3, 46, 0
5, 120960, Note_on_c, 3, 45, 100
5, 121200, Note_on_c, 3, 45, 0
5, 121440, Note_on_c, 3, 46, 100
5, 121680, Note_on_c, 3, 46, 0
5, 121920, Note_on_c, 3, 47, 100
5, 122160, Note_on_c, 3, 47, 0
5, 122400, Note_on_c, 3, 46, 100
5, 122640, Note_on_c, 3, 46, 0
5, 122880, Note_on_c, 3, 51, 100
5, 123120, Note_on_c, 3, 51, 0
5, 123360, Note_on_c, 3, 52, 100
5, 123600, Note_on_c, 3, 52, 0
5, 123840, Note_on_c, 3, 53, 100
5, 124080, Note_on_c, 3, 53, 0
5, 124320, Note_on_c, 3, 52, 100
5, 124560, Note_on_c, 3, 52, 0
5, 124800, Note_on_c, 3, 51, 100
5, 125040, Note_on_c, 3, 51, 0
5, 125280, Note_on_c, 3, 52, 100
5, 125520, Note_on_c, 3, 52, 0
5, 125760, Note_on_c, 3, 53, 100
5, 126000, Note_on_c, 3, 53, 0
5, 126240, Note_on_c, 3, 52, 100
5, 126480, Note_on_c, 3, 52, 0
5, 126720, Note_on_c, 3, 42, 100
5, 126960, Note_on_c, 3, 42, 0
5, 129360, Note_on_c, 3, 56, 100
5, 129600, Note_on_c, 3, 56, 0
5, 130560, Text_t, "HandMap_Default"
5, 130560, Note_on_c, 3, 40, 100
5, 130800, Note_on_c, 3, 40, 0
5, 131040, Note_on_c, 3, 42, 100
5, 132240, Note_on_c, 3, 42, 0
5, 132720, Note_on_c, 3, 40, 100
5, 133200, Note_on_c, 3, 40, 0
5, 133440, Note_on_c, 3, 47, 100
5, 133680, Note_on_c, 3, 47, 0
5, 133920, Note_on_c, 3, 45, 100
5, 134160, Note_on_c, 3, 45, 0
5, 134400, Note_on_c, 3, 40, 100
5, 134640, Note_on_c, 3, 40, 0
5, 134880, Note_on_c, 3, 42, 100
5, 136080, Note_on_c, 3, 42, 0
5, 136560, Note_on_c, 3, 40, 100
5, 137040, Note_on_c, 3, 40, 0
5, 137280, Note_on_c, 3, 45, 100
5, 138000, Note_on_c, 3, 45, 0
5, 138240, Note_on_c, 3, 40, 100
5, 138480, Note_on_c, 3, 40, 0
5, 138720, Note_on_c, 3, 42, 100
5, 139920, Note_on_c, 3, 42, 0
5, 140400, Note_on_c, 3, 40, 100
5, 140880, Note_on_c, 3, 40, 0
5, 141120, Note_on_c, 3, 47, 100
5, 141360, Note_on_c, 3, 47, 0
5, 141600, Note_on_c, 3, 45, 100
5, 141840, Note_on_c, 3, 45, 0
5, 142080, Note_on_c, 3, 40, 100
5, 142320, Note_on_c, 3, 40, 0
5, 142560, Note_on_c, 3, 42, 100
5, 143760, Note_on_c, 3, 42, 0
5, 144240, Note_on_c, 3, 40, 100
5, 144720, Note_on_c, 3, 40, 0
5, 144960, Note_on_c, 3, 43, 100
5, 145680, Note_on_c, 3, 43, 0
5, 145920, Note_on_c, 3, 40, 100
5, 146160, Note_on_c, 3, 40, 0
5, 146400, Note_on_c, 3, 42, 100
5, 147600, Note_on_c, 3, 42, 0
5, 148080, Note_on_c, 3, 40, 100
5, 148560, Note_on_c, 3, 40, 0
5, 148800, Note_on_c, 3, 47, 100
5, 149040, Note_on_c, 3, 47, 0
5, 149280, Note_on_c, 3, 45, 100
5, 149520, Note_on_c, 3, 45, 0
5, 149760, Note_on_c, 3, 40, 100
5, 150000, Note_on_c, 3, 40, 0
5, 150240, Note_on_c, 3, 42, 100
5, 151440, Note_on_c, 3, 42, 0
5, 151920, Note_on_c, 3, 40, 100
5, 152400, Note_on_c, 3, 40, 0
5, 152640, Note_on_c, 3, 45, 100
5, 153360, Note_on_c, 3, 45, 0
5, 153600, Note_on_c, 3, 40, 100
5, 153840, Note_on_c, 3, 40, 0
5, 154080, Note_on_c, 3, 42, 100
5, 155280, Note_on_c, 3, 42, 0
5, 155760, Note_on_c, 3, 40, 100
5, 156240, Note_on_c, 3, 40, 0
5, 156480, Note_on_c, 3, 47, 100
5, 156720, Note_on_c, 3, 47, 0
5, 156960, Note_on_c, 3, 45, 100
5, 157200, Note_on_c, 3, 45, 0
5, 157440, Note_on_c, 3, 40, 100
5, 157680, Note_on_c, 3, 40, 0
5, 157920, Note_on_c, 3, 42, 100
5, 159120, Note_on_c, 3, 42, 0
5, 159600, Note_on_c, 3, 40, 100
5, 160080, Note_on_c, 3, 40, 0
5, 160320, Note_on_c, 3, 43, 100
5, 160800, Note_on_c, 3, 43, 0
5, 160800, Note_on_c, 3, 40, 100
5, 161520, Note_on_c, 3, 40, 0
5, 161760, Note_on_c, 3, 42, 100
5, 164880, Note_on_c, 3, 42, 0
5, 165120, Text_t, "HandMap_Solo"
5, 165120, Note_on_c, 3, 47, 100
5, 165358, Note_on_c, 3, 47, 0
5, 166078, Note_on_c, 3, 51, 100
5, 167758, Note_on_c, 3, 51, 0
5, 167998, Note_on_c, 3, 49, 100
5, 168238, Note_on_c, 3, 49, 0
5, 168958, Note_on_c, 3, 47, 100
5, 169198, Note_on_c, 3, 47, 0
5, 169918, Note_on_c, 3, 50, 100
5, 171598, Note_on_c, 3, 50, 0
5, 171838, Note_on_c, 3, 47, 100
5, 172078, Note_on_c, 3, 47, 0
5, 172798, Note_on_c, 3, 46, 100
5, 173038, Note_on_c, 3, 46, 0
5, 173758, Note_on_c, 3, 49, 100
5, 175198, Note_on_c, 3, 49, 0
5, 175678, Note_on_c, 3, 44, 100
5, 175918, Note_on_c, 3, 44, 0
5, 176640, Note_on_c, 3, 42, 100
5, 180240, Note_on_c, 3, 42, 0
5, 180480, Note_on_c, 3, 47, 100
5, 180718, Note_on_c, 3, 47, 0
5, 181438, Note_on_c, 3, 51, 100
5, 183118, Note_on_c, 3, 51, 0
5, 183358, Note_on_c, 3, 49, 100
5, 183598, Note_on_c, 3, 49, 0
5, 184318, Note_on_c, 3, 47, 100
5, 184558, Note_on_c, 3, 47, 0
5, 185278, Note_on_c, 3, 50, 100
5, 186958, Note_on_c, 3, 50, 0
5, 187198, Note_on_c, 3, 47, 100
5, 187438, Note_on_c, 3, 47, 0
5, 188158, Note_on_c, 3, 46, 100
5, 188398, Note_on_c, 3, 46, 0
5, 189118, Note_on_c, 3, 49, 100
5, 190558, Note_on_c, 3, 49, 0
5, 191038, Note_on_c, 3, 44, 100
5, 191278, Note_on_c, 3, 44, 0
5, 192000, Note_on_c, 3, 42, 100
5, 195600, Note_on_c, 3, 42, 0
5, 195840, Note_on_c, 3, 47, 100
5, 196078, Note_on_c, 3, 47, 0
5, 196798, Note_on_c, 3, 51, 100
5, 198478, Note_on_c, 3, 51, 0
5, 198718, Note_on_c, 3, 49, 100
5, 198958, Note_on_c, 3, 49, 0
5, 199678, Note_on_c, 3, 47, 100
5, 199918, Note_on_c, 3, 47, 0
5, 200638, Note_on_c, 3, 50, 100
5, 202318, Note_on_c, 3, 50, 0
5, 202558, Note_on_c, 3, 47, 100
5, 202798, Note_on_c, 3, 47, 0
5, 203518, Note_on_c, 3, 46, 100
5, 203758, Note_on_c, 3, 46, 0
5, 204478, Note_on_c, 3, 49, 100
5, 205918, Note_on_c, 3, 49, 0
5, 206398, Note_on_c, 3, 44, 100
5, 206638, Note_on_c, 3, 44, 0
5, 207360, Note_on_c, 3, 42, 100
5, 210960, Note_on_c, 3, 42, 0
5, 211200, Note_on_c, 3, 47, 100
5, 211438, Note_on_c, 3, 47, 0
5, 212158, Note_on_c, 3, 51, 100
5, 213838, Note_on_c, 3, 51, 0
5, 214078, Note_on_c, 3, 49, 100
5, 214318, Note_on_c, 3, 49, 0
5, 215038, Note_on_c, 3, 47, 100
5, 215278, Note_on_c, 3, 47, 0
5, 215998, Note_on_c, 3, 50, 100
5, 217678, Note_on_c, 3, 50, 0
5, 217918, Note_on_c, 3, 47, 100
5, 218158, Note_on_c, 3, 47, 0
5, 218878, Note_on_c, 3, 46, 100
5, 219118, Note_on_c, 3, 46, 0
5, 219838, Note_on_c, 3, 49, 100
5, 221278, Note_on_c, 3, 49, 0
5, 221758, Note_on_c, 3, 44, 100
5, 221998, Note_on_c, 3, 44, 0
5, 222480, Note_on_c, 3, 42, 100
5, 222720, Note_on_c, 3, 42, 0
5, 228000, Note_on_c, 3, 57, 100
5, 229200, Note_on_c, 3, 57, 0
5, 230400, Note_on_c, 3, 48, 100
5, 230640, Note_on_c, 3, 48, 0
5, 230640, Note_on_c, 3, 46, 100
5, 230880, Note_on_c, 3, 46, 0
5, 231060, Note_on_c, 3, 48, 100
5, 231300, Note_on_c, 3, 48, 0
5, 231300, Note_on_c, 3, 46, 100
5, 231540, Note_on_c, 3, 46, 0
5, 231720, Note_on_c, 3, 48, 100
5, 231960, Note_on_c, 3, 48, 0
5, 231960, Note_on_c, 3, 46, 100
5, 232200, Note_on_c, 3, 46, 0
5, 232380, Note_on_c, 3, 48, 100
5, 232620, Note_on_c, 3, 48, 0
5, 232620, Note_on_c, 3, 46, 100
5, 232860, Note_on_c, 3, 46, 0
5, 233040, Note_on_c, 3, 48, 100
5, 233280, Note_on_c, 3, 48, 0
5, 233280, Note_on_c, 3, 46, 100
5, 233520, Note_on_c, 3, 46, 0
5, 233760, Note_on_c, 3, 48, 100
5, 234000, Note_on_c, 3, 48, 0
5, 234000, Note_on_c, 3, 46, 100
5, 234240, Note_on_c, 3, 46, 0
5, 234240, Note_on_c, 3, 48, 100
5, 234480, Note_on_c, 3, 48, 0
5, 234720, Note_on_c, 3, 46, 100
5, 234960, Note_on_c, 3, 46, 0
5, 235200, Note_on_c, 3, 50, 100
5, 235440, Note_on_c, 3, 50, 0
5, 235680, Note_on_c, 3, 52, 100
5, 235920, Note_on_c, 3, 52, 0
5, 236160, Note_on_c, 3, 50, 100
5, 237120, Note_on_c, 3, 50, 0
5, 237600, Note_on_c, 3, 40, 100
5, 238080, Note_on_c, 3, 40, 0
5, 238080, Note_on_c, 3, 44, 100
5, 238320, Note_on_c, 3, 44, 0
5, 238560, Note_on_c, 3, 45, 100
5, 238800, Note_on_c, 3, 45, 0
5, 239040, Note_on_c, 3, 48, 100
5, 239280, Note_on_c, 3, 48, 0
5, 239520, Note_on_c, 3, 46, 100
5, 239760, Note_on_c, 3, 46, 0
5, 240000, Note_on_c, 3, 45, 100
5, 240240, Note_on_c, 3, 45, 0
5, 240480, Note_on_c, 3, 44, 100
5, 240720, Note_on_c, 3, 44, 0
5, 240960, Note_on_c, 3, 42, 100
5, 241200, Note_on_c, 3, 42, 0
5, 241440, Note_on_c, 3, 40, 100
5, 241680, Note_on_c, 3, 40, 0
5, 241920, Note_on_c, 3, 44, 100
5, 242160, Note_on_c, 3, 44, 0
5, 242400, Note_on_c, 3, 45, 100
5, 242640, Note_on_c, 3, 45, 0
5, 242880, Note_on_c, 3, 48, 100
5, 243120, Note_on_c, 3, 48, 0
5, 243360, Note_on_c, 3, 46, 100
5, 243600, Note_on_c, 3, 46, 0
5, 243840, Note_on_c, 3, 45, 100
5, 244080, Note_on_c, 3, 45, 0
5, 244320, Note_on_c, 3, 44, 100
5, 244560, Note_on_c, 3, 44, 0
5, 244800, Note_on_c, 3, 42, 100
5, 245040, Note_on_c, 3, 42, 0
5, 245280, Note_on_c, 3, 40, 100
5, 245520, Note_on_c, 3, 40, 0
5, 245760, Note_on_c, 3, 50, 100
5, 246000, Note_on_c, 3, 50, 0
5, 246240, Note_on_c, 3, 51, 100
5, 246480, Note_on_c, 3, 51, 0
5, 246720, Note_on_c, 3, 54, 100
5, 246960, Note_on_c, 3, 54, 0
5, 247200, Note_on_c, 3, 52, 100
5, 247440, Note_on_c, 3, 52, 0
5, 247680, Note_on_c, 3, 51, 100
5, 247920, Note_on_c, 3, 51, 0
5, 248160, Note_on_c, 3, 50, 100
5, 248400, Note_on_c, 3, 50, 0
5, 248640, Note_on_c, 3, 48, 100
5, 248880, Note_on_c, 3, 48, 0
5, 249120, Note_on_c, 3, 45, 100
5, 249360, Note_on_c, 3, 45, 0
5, 249600, Note_on_c, 3, 42, 100
5, 249840, Note_on_c, 3, 42, 0
5, 251280, Note_on_c, 3, 57, 100
5, 251520, Note_on_c, 3, 57, 0
5, 253440, Text_t, "HandMap_Default"
5, 253440, Note_on_c, 3, 40, 100
5, 253680, Note_on_c, 3, 40, 0
5, 253920, Note_on_c, 3, 42, 100
5, 255120, Note_on_c, 3, 42, 0
5, 255600, Note_on_c, 3, 40, 100
5, 256080, Note_on_c, 3, 40, 0
5, 256320, Note_on_c, 3, 47, 100
5, 256560, Note_on_c, 3, 47, 0
5, 256800, Note_on_c, 3, 45, 100
5, 257040, Note_on_c, 3, 45, 0
5, 257280, Note_on_c, 3, 40, 100
5, 257520, Note_on_c, 3, 40, 0
5, 257760, Note_on_c, 3, 42, 100
5, 258960, Note_on_c, 3, 42, 0
5, 259440, Note_on_c, 3, 40, 100
5, 259920, Note_on_c, 3, 40, 0
5, 260160, Note_on_c, 3, 45, 100
5, 260880, Note_on_c, 3, 45, 0
5, 261120, Note_on_c, 3, 40, 100
5, 261360, Note_on_c, 3, 40, 0
5, 261600, Note_on_c, 3, 42, 100
5, 262800, Note_on_c, 3, 42, 0
5, 263280, Note_on_c, 3, 40, 100
5, 263760, Note_on_c, 3, 40, 0
5, 264000, Note_on_c, 3, 47, 100
5, 264240, Note_on_c, 3, 47, 0
5, 264480, Note_on_c, 3, 45, 100
5, 264720, Note_on_c, 3, 45, 0
5, 264960, Note_on_c, 3, 40, 100
5, 265200, Note_on_c, 3, 40, 0
5, 265440, Note_on_c, 3, 42, 100
5, 266640, Note_on_c, 3, 42, 0
5, 267120, Note_on_c, 3, 40, 100
5, 267600, Note_on_c, 3, 40, 0
5, 267840, Note_on_c, 3, 43, 100
5, 268560, Note_on_c, 3, 43, 0
5, 268800, Note_on_c, 3, 40, 100
5, 269040, Note_on_c, 3, 40, 0
5, 269280, Note_on_c, 3, 42, 100
5, 270480, Note_on_c, 3, 42, 0
5, 270960, Note_on_c, 3, 40, 100
5, 271440, Note_on_c, 3, 40, 0
5, 271680, Note_on_c, 3, 47, 100
5, 271920, Note_on_c, 3, 47, 0
5, 272160, Note_on_c, 3, 45, 100
5, 272400, Note_on_c, 3, 45, 0
5, 272640, Note_on_c, 3, 40, 100
5, 272880, Note_on_c, 3, 40, 0
5, 273120, Note_on_c, 3, 42, 100
5, 274320, Note_on_c, 3, 42, 0
5, 274800, Note_on_c, 3, 40, 100
5, 275280, Note_on_c, 3, 40, 0
5, 275520, Note_on_c, 3, 45, 100
5, 276240, Note_on_c, 3, 45, 0
5, 276480, Note_on_c, 3, 40, 100
5, 276720, Note_on_c, 3, 40, 0
5, 276960, Note_on_c, 3, 42, 100
5, 278160, Note_on_c, 3, 42, 0
5, 278640, Note_on_c, 3, 40, 100
5, 279120, Note_on_c, 3, 40, 0
5, 279360, Note_on_c, 3, 47, 100
5, 279600, Note_on_c, 3, 47, 0
5, 279840, Note_on_c, 3, 45, 100
5, 280080, Note_on_c, 3, 45, 0
5, 280320, Note_on_c, 3, 40, 100
5, 280560, Note_on_c, 3, 40, 0
5, 280800, Note_on_c, 3, 42, 100
5, 282000, Note_on_c, 3, 42, 0
5, 282480, Note_on_c, 3, 40, 100
5, 282960, Note_on_c, 3, 40, 0
5, 283200, Note_on_c, 3, 43, 100
5, 283680, Note_on_c, 3, 43, 0
5, 284160, Note_on_c, 3, 40, 100
5, 284400, Note_on_c, 3, 40, 0
5, 284640, Note_on_c, 3, 42, 100
5, 285120, Note_on_c, 3, 42, 0
5, 286080, Note_on_c, 3, 40, 100
5, 292080, Note_on_c, 3, 40, 0
5, 292320, Note_on_c, 3, 42, 100
5, 292800, Note_on_c, 3, 42, 0
5, 293760, Note_on_c, 3, 40, 100
5, 299760, Note_on_c, 3, 40, 0
5, 300000, Note_on_c, 3, 42, 100
5, 300480, Note_on_c, 3, 42, 0
5, 300958, Note_on_c, 3, 40, 100
5, 301918, Note_on_c, 3, 40, 0
5, 301918, Note_on_c, 3, 41, 100
5, 302638, Note_on_c, 3, 41, 0
5, 302878, Note_on_c, 3, 42, 100
5, 303118, Note_on_c, 3, 42, 0
5, 303358, Note_on_c, 3, 45, 100
5, 303598, Note_on_c, 3, 45, 0
5, 303838, Note_on_c, 3, 46, 100
5, 304078, Note_on_c, 3, 46, 0
5, 304318, Note_on_c, 3, 47, 100
5, 304558, Note_on_c, 3, 47, 0
5, 304798, Note_on_c, 3, 40, 100
5, 307440, Note_on_c, 3, 40, 0
5, 307680, Note_on_c, 3, 42, 100
5, 308160, Note_on_c, 3, 42, 0
5, 308638, Note_on_c, 3, 40, 100
5, 309598, Note_on_c, 3, 40, 0
5, 309598, Note_on_c, 3, 41, 100
5, 310318, Note_on_c, 3, 41, 0
5, 310558, Note_on_c, 3, 42, 100
5, 310798, Note_on_c, 3, 42, 0
5, 311038, Note_on_c, 3, 45, 100
5, 311278, Note_on_c, 3, 45, 0
5, 311518, Note_on_c, 3, 46, 100
5, 311758, Note_on_c, 3, 46, 0
5, 311998, Note_on_c, 3, 47, 100
5, 312238, Note_on_c, 3, 47, 0
5, 312478, Note_on_c, 3, 40, 100
5, 315120, Note_on_c, 3, 40, 0
5, 315360, Note_on_c, 3, 42, 100
5, 315840, Note_on_c, 3, 42, 0
5, 316318, Note_on_c, 3, 40, 100
5, 317278, Note_on_c, 3, 40, 0
5, 317278, Note_on_c, 3, 41, 100
5, 317998, Note_on_c, 3, 41, 0
5, 318238, Note_on_c, 3, 42, 100
5, 318478, Note_on_c, 3, 42, 0
5, 318718, Note_on_c, 3, 45, 100
5, 318958, Note_on_c, 3, 45, 0
5, 319198, Note_on_c, 3, 46, 100
5, 319438, Note_on_c, 3, 46, 0
5, 319678, Note_on_c, 3, 47, 100
5, 319918, Note_on_c, 3, 47, 0
5, 320158, Note_on_c, 3, 40, 100
5, 322800, Note_on_c, 3, 40, 0
5, 323040, Note_on_c, 3, 42, 100
5, 323520, Note_on_c, 3, 42, 0
5, 323998, Note_on_c, 3, 40, 100
5, 324958, Note_on_c, 3, 40, 0
5, 324958, Note_on_c, 3, 41, 100
5, 325678, Note_on_c, 3, 41, 0
5, 325918, Note_on_c, 3, 42, 100
5, 326158, Note_on_c, 3, 42, 0
5, 326398, Note_on_c, 3, 45, 100
5, 326638, Note_on_c, 3, 45, 0
5, 326878, Note_on_c, 3, 46, 100
5, 327118, Note_on_c, 3, 46, 0
5, 327358, Note_on_c, 3, 47, 100
5, 327598, Note_on_c, 3, 47, 0
5, 327838, Note_on_c, 3, 40, 100
5, 330480, Note_on_c, 3, 40, 0
5, 330720, Note_on_c, 3, 42, 100
5, 331200, Note_on_c, 3, 42, 0
5, 331678, Note_on_c, 3, 40, 100
5, 332638, Note_on_c, 3, 40, 0
5, 332638, Note_on_c, 3, 41, 100
5, 333358, Note_on_c, 3, 41, 0
5, 333598, Note_on_c, 3, 42, 100
5, 333838, Note_on_c, 3, 42, 0
5, 334078, Note_on_c, 3, 45, 100
5, 334318, Note_on_c, 3, 45, 0
5, 334558, Note_on_c, 3, 46, 100
5, 334798, Note_on_c, 3, 46, 0
5, 335038, Note_on_c, 3, 47, 100
5, 335278, Note_on_c, 3, 47, 0
5, 335518, Note_on_c, 3, 40, 100
5, 338160, Note_on_c, 3, 40, 0
5, 338400, Note_on_c, 3, 42, 100
5, 338880, Note_on_c, 3, 42, 0
5, 339358, Note_on_c, 3, 40, 100
5, 340318, Note_on_c, 3, 40, 0
5, 340318, Note_on_c, 3, 41, 100
5, 341038, Note_on_c, 3, 41, 0
5, 341278, Note_on_c, 3, 42, 100
5, 341518, Note_on_c, 3, 42, 0
5, 341758, Note_on_c, 3, 45, 100
5, 341998, Note_on_c, 3, 45, 0
5, 342238, Note_on_c, 3, 46, 100
5, 342478, Note_on_c, 3, 46, 0
5, 342718, Note_on_c, 3, 47, 100
5, 342958, Note_on_c, 3, 47, 0
5, 343198, Note_on_c, 3, 40, 100
5, 345840, Note_on_c, 3, 40, 0
5, 346080, Note_on_c, 3, 42, 100
5, 346560, Note_on_c, 3, 42, 0
5, 347038, Note_on_c, 3, 40, 100
5, 347998, Note_on_c, 3, 40, 0
5, 347998, Note_on_c, 3, 41, 100
5, 348718, Note_on_c, 3, 41, 0
5, 348958, Note_on_c, 3, 42, 100
5, 349198, Note_on_c, 3, 42, 0
5, 349438, Note_on_c, 3, 45, 100
5, 349678, Note_on_c, 3, 45, 0
5, 349918, Note_on_c, 3, 46, 100
5, 350158, Note_on_c, 3, 46, 0
5, 350398, Note_on_c, 3, 47, 100
5, 350638, Note_on_c, 3, 47, 0
5, 350878, Note_on_c, 3, 40, 100
5, 353520, Note_on_c, 3, 40, 0
5, 353760, Note_on_c, 3, 42, 100
5, 354240, Note_on_c, 3, 42, 0
5, 354716, Note_on_c, 3, 40, 100
5, 355676, Note_on_c, 3, 40, 0
5, 355676, Note_on_c, 3, 41, 100
5, 356396, Note_on_c, 3, 41, 0
5, 356636, Note_on_c, 3, 42, 100
5, 356876, Note_on_c, 3, 42, 0
5, 357116, Note_on_c, 3, 45, 100
5, 357356, Note_on_c, 3, 45, 0
5, 357598, Note_on_c, 3, 46, 100
5, 357838, Note_on_c, 3, 46, 0
5, 358078, Note_on_c, 3, 47, 100
5, 358318, Note_on_c, 3, 47, 0
5, 358558, Note_on_c, 3, 40, 100
5, 361200, Note_on_c, 3, 40, 0
5, 361440, Note_on_c, 3, 42, 100
5, 361920, Note_on_c, 3, 42, 0
5, 362398, Note_on_c, 3, 40, 100
5, 363358, Note_on_c, 3, 40, 0
5, 363358, Note_on_c, 3, 41, 100
5, 364078, Note_on_c, 3, 41, 0
5, 364318, Note_on_c, 3, 42, 100
5, 364558, Note_on_c, 3, 42, 0
5, 364798, Note_on_c, 3, 45, 100
5, 365038, Note_on_c, 3, 45, 0
5, 365278, Note_on_c, 3, 46, 100
5, 365518, Note_on_c, 3, 46, 0
5, 365758, Note_on_c, 3, 47, 100
5, 365998, Note_on_c, 3, 47, 0
5, 366238, Note_on_c, 3, 40, 100
5, 368880, Note_on_c, 3, 40, 0
5, 369120, Note_on_c, 3, 42, 100
5, 369600, Note_on_c, 3, 42, 0
5, 370078, Note_on_c, 3, 40, 100
5, 371038, Note_on_c, 3, 40, 0
5, 371038, Note_on_c, 3, 41, 100
5, 371758, Note_on_c, 3, 41, 0
5, 371998, Note_on_c, 3, 42, 100
5, 372238, Note_on_c, 3, 42, 0
5, 372478, Note_on_c, 3, 45, 100
5, 372718, Note_on_c, 3, 45, 0
5, 372958, Note_on_c, 3, 46, 100
5, 373198, Note_on_c, 3, 46, 0
5, 373438, Note_on_c, 3, 47, 100
5, 373678, Note_on_c, 3, 47, 0
5, 373918, Note_on_c, 3, 40, 100
5, 376560, Note_on_c, 3, 40, 0
5, 376800, Note_on_c, 3, 42, 100
5, 377280, Note_on_c, 3, 42, 0
5, 377758, Note_on_c, 3, 40, 100
5, 378718, Note_on_c, 3, 40, 0
5, 378718, Note_on_c, 3, 41, 100
5, 379438, Note_on_c, 3, 41, 0
5, 379678, Note_on_c, 3, 42, 100
5, 379918, Note_on_c, 3, 42, 0
5, 380158, Note_on_c, 3, 45, 100
5, 380398, Note_on_c, 3, 45, 0
5, 380638, Note_on_c, 3, 46, 100
5, 380878, Note_on_c, 3, 46, 0
5, 381118, Note_on_c, 3, 47, 100
5, 381358, Note_on_c, 3, 47, 0
5, 381598, Note_on_c, 3, 40, 100
5, 384240, Note_on_c, 3, 40, 0
5, 384480, Note_on_c, 3, 42, 100
5, 384960, Note_on_c, 3, 42, 0
5, 385438, Note_on_c, 3, 40, 100
5, 386398, Note_on_c, 3, 40, 0
5, 386398, Note_on_c, 3, 41, 100
5, 387118, Note_on_c, 3, 41, 0
5, 387358, Note_on_c, 3, 42, 100
5, 387598, Note_on_c, 3, 42, 0
5, 387838, Note_on_c, 3, 45, 100
5, 388078, Note_on_c, 3, 45, 0
5, 388318, Note_on_c, 3, 46, 100
5, 388558, Note_on_c, 3, 46, 0
5, 388798, Note_on_c, 3, 47, 100
5, 389038, Note_on_c, 3, 47, 0
5, 389278, Note_on_c, 3, 40, 100
5, 390958, Note_on_c, 3, 40, 0
5, 391680, Note_on_c, 3, 47, 100
5, 391920, Note_on_c, 3, 47, 0
5, 392160, Note_on_c, 3, 49, 100
5, 392640, Note_on_c, 3, 49, 0
5, 393118, Note_on_c, 3, 47, 100
5, 394078, Note_on_c, 3, 47, 0
5, 394078, Note_on_c, 3, 48, 100
5, 394798, Note_on_c, 3, 48, 0
5, 395038, Note_on_c, 3, 49, 100
5, 395278, Note_on_c, 3, 49, 0
5, 395518, Note_on_c, 3, 52, 100
5, 395758, Note_on_c, 3, 52, 0
5, 395998, Note_on_c, 3, 53, 100
5, 396238, Note_on_c, 3, 53, 0
5, 396478, Note_on_c, 3, 54, 100
5, 396718, Note_on_c, 3, 54, 0
5, 396958, Note_on_c, 3, 47, 100
5, 399600, Note_on_c, 3, 47, 0
5, 399840, Note_on_c, 3, 49, 100
5, 400320, Note_on_c, 3, 49, 0
5, 400798, Note_on_c, 3, 47, 100
5, 401758, Note_on_c, 3, 47, 0
5, 401758, Note_on_c, 3, 48, 100
5, 402478, Note_on_c, 3, 48, 0
5, 402718, Note_on_c, 3, 49, 100
5, 402958, Note_on_c, 3, 49, 0
5, 403198, Note_on_c, 3, 52, 100
5, 403438, Note_on_c, 3, 52, 0
5, 403678, Note_on_c, 3, 53, 100
5, 403918, Note_on_c, 3, 53, 0
5, 404158, Note_on_c, 3, 54, 100
5, 404398, Note_on_c, 3, 54, 0
5, 404638, Note_on_c, 3, 47, 100
5, 405118, Note_on_c, 3, 47, 0
5, 405600, Note_on_c, 3, 53, 100
5, 405840, Note_on_c, 3, 53, 0
5, 406080, Note_on_c, 3, 51, 100
5, 406320, Note_on_c, 3, 51, 0
5, 406560, Note_on_c, 3, 49, 100
5, 406800, Note_on_c, 3, 49, 0
5, 407040, Text_t, "HandMap_Solo"
5, 407040, Note_on_c, 3, 53, 100
5, 407280, Note_on_c, 3, 53, 0
5, 407520, Note_on_c, 3, 56, 100
5, 407760, Note_on_c, 3, 56, 0
5, 407760, Note_on_c, 3, 53, 100
5, 408000, Note_on_c, 3, 53, 0
5, 408240, Note_on_c, 3, 56, 100
5, 408480, Note_on_c, 3, 56, 0
5, 408480, Note_on_c, 3, 53, 100
5, 408720, Note_on_c, 3, 53, 0
5, 408960, Note_on_c, 3, 56, 100
5, 409200, Note_on_c, 3, 56, 0
5, 409200, Note_on_c, 3, 53, 100
5, 409440, Note_on_c, 3, 53, 0
5, 409680, Note_on_c, 3, 56, 100
5, 409920, Note_on_c, 3, 56, 0
5, 409920, Note_on_c, 3, 53, 100
5, 410160, Note_on_c, 3, 53, 0
5, 410400, Note_on_c, 3, 56, 100
5, 410640, Note_on_c, 3, 56, 0
5, 410640, Note_on_c, 3, 53, 100
5, 410880, Note_on_c, 3, 53, 0
5, 410880, Note_on_c, 3, 56, 100
5, 411120, Note_on_c, 3, 56, 0
5, 411360, Note_on_c, 3, 56, 100
5, 411360, Note_on_c, 3, 53, 100
5, 411600, Note_on_c, 3, 56, 0
5, 411600, Note_on_c, 3, 53, 0
5, 411840, Note_on_c, 3, 56, 100
5, 412080, Note_on_c, 3, 56, 0
5, 412080, Note_on_c, 3, 53, 100
5, 412320, Note_on_c, 3, 53, 0
5, 412560, Note_on_c, 3, 49, 100
5, 412800, Note_on_c, 3, 49, 0
5, 412800, Note_on_c, 3, 53, 100
5, 413040, Note_on_c, 3, 53, 0
5, 413040, Note_on_c, 3, 49, 100
5, 413280, Note_on_c, 3, 49, 0
5, 413280, Note_on_c, 3, 51, 100
5, 413520, Note_on_c, 3, 51, 0
5, 413520, Note_on_c, 3, 49, 100
5, 413760, Note_on_c, 3, 49, 0
5, 413760, Note_on_c, 3, 47, 100
5, 414000, Note_on_c, 3, 47, 0
5, 414000, Note_on_c, 3, 49, 100
5, 414240, Note_on_c, 3, 49, 0
5, 414720, Note_on_c, 3, 53, 100
5, 415680, Note_on_c, 3, 53, 0
5, 416640, Note_on_c, 3, 52, 100
5, 416880, Note_on_c, 3, 52, 0
5, 417120, Note_on_c, 3, 56, 100
5, 417360, Note_on_c, 3, 56, 0
5, 417360, Note_on_c, 3, 52, 100
5, 417600, Note_on_c, 3, 52, 0
5, 417840, Note_on_c, 3, 56, 100
5, 418080, Note_on_c, 3, 56, 0
5, 418080, Note_on_c, 3, 52, 100
5, 418320, Note_on_c, 3, 52, 0
5, 418560, Note_on_c, 3, 56, 100
5, 418740, Note_on_c, 3, 56, 0
5, 418740, Note_on_c, 3, 52, 100
5, 418920, Note_on_c, 3, 52, 0
5, 419100, Note_on_c, 3, 56, 100
5, 419280, Note_on_c, 3, 56, 0
5, 419280, Note_on_c, 3, 53, 100
5, 419520, Note_on_c, 3, 53, 0
5, 419520, Note_on_c, 3, 56, 100
5, 419760, Note_on_c, 3, 56, 0
5, 420000, Note_on_c, 3, 52, 100
5, 420240, Note_on_c, 3, 52, 0
5, 420480, Note_on_c, 3, 58, 100
5, 421200, Note_on_c, 3, 58, 0
5, 421440, Note_on_c, 3, 48, 100
5, 421920, Note_on_c, 3, 48, 0
5, 422400, Text_t, "HandMap_DropD2"
5, 422400, Note_on_c, 3, 53, 100
5, 422640, Note_on_c, 3, 53, 0
5, 423120, Note_on_c, 3, 53, 100
5, 423360, Note_on_c, 3, 53, 0
5, 423840, Note_on_c, 3, 53, 100
5, 424080, Note_on_c, 3, 53, 0
5, 424320, Note_on_c, 3, 51, 100
5, 424560, Note_on_c, 3, 51, 0
5, 425040, Note_on_c, 3, 51, 100
5, 425280, Note_on_c, 3, 51, 0
5, 425760, Note_on_c, 3, 51, 100
5, 426000, Note_on_c, 3, 51, 0
5, 426240, Note_on_c, 3, 49, 100
5, 426480, Note_on_c, 3, 49, 0
5, 426720, Note_on_c, 3, 49, 100
5, 426960, Note_on_c, 3, 49, 0
5, 427200, Note_on_c, 3, 46, 100
5, 427440, Note_on_c, 3, 46, 0
5, 427680, Note_on_c, 3, 44, 100
5, 427920, Note_on_c, 3, 44, 0
5, 428160, Note_on_c, 3, 46, 100
5, 429120, Note_on_c, 3, 46, 0
5, 429360, Note_on_c, 3, 41, 100
5, 429600, Note_on_c, 3, 41, 0
5, 430080, Note_on_c, 3, 53, 100
5, 430320, Note_on_c, 3, 53, 0
5, 430800, Note_on_c, 3, 53, 100
5, 431040, Note_on_c, 3, 53, 0
5, 431520, Note_on_c, 3, 53, 100
5, 431760, Note_on_c, 3, 53, 0
5, 432000, Note_on_c, 3, 51, 100
5, 432240, Note_on_c, 3, 51, 0
5, 432720, Note_on_c, 3, 51, 100
5, 432960, Note_on_c, 3, 51, 0
5, 433440, Note_on_c, 3, 51, 100
5, 433680, Note_on_c, 3, 51, 0
5, 433920, Note_on_c, 3, 49, 100
5, 434160, Note_on_c, 3, 49, 0
5, 434400, Note_on_c, 3, 49, 100
5, 434640, Note_on_c, 3, 49, 0
5, 434880, Note_on_c, 3, 46, 100
5, 435120, Note_on_c, 3, 46, 0
5, 435360, Note_on_c, 3, 44, 100
5, 435600, Note_on_c, 3, 44, 0
5, 435840, Note_on_c, 3, 46, 100
5, 436080, Note_on_c, 3, 46, 0
5, 436320, Note_on_c, 3, 49, 100
5, 436560, Note_on_c, 3, 49, 0
5, 436800, Note_on_c, 3, 46, 100
5, 437280, Note_on_c, 3, 46, 0
5, 437760, Note_on_c, 3, 53, 100
5, 438000, Note_on_c, 3, 53, 0
5, 438480, Note_on_c, 3, 53, 100
5, 438720, Note_on_c, 3, 53, 0
5, 439200, Note_on_c, 3, 53, 100
5, 439440, Note_on_c, 3, 53, 0
5, 439680, Note_on_c, 3, 51, 100
5, 439920, Note_on_c, 3, 51, 0
5, 440400, Note_on_c, 3, 51, 100
5, 440640, Note_on_c, 3, 51, 0
5, 441120, Note_on_c, 3, 51, 100
5, 441360, Note_on_c, 3, 51, 0
5, 441600, Note_on_c, 3, 49, 100
5, 441840, Note_on_c, 3, 49, 0
5, 442080, Note_on_c, 3, 49, 100
5, 442320, Note_on_c, 3, 49, 0
5, 442560, Note_on_c, 3, 46, 100
5, 442800, Note_on_c, 3, 46, 0
5, 443040, Note_on_c, 3, 44, 100
5, 443280, Note_on_c, 3, 44, 0
5, 443520, Note_on_c, 3, 46, 100
5, 444480, Note_on_c, 3, 46, 0
5, 444720, Note_on_c, 3, 42, 100
5, 444960, Note_on_c, 3, 42, 0
5, 445440, Note_on_c, 3, 53, 100
5, 445680, Note_on_c, 3, 53, 0
5, 446160, Note_on_c, 3, 53, 100
5, 446400, Note_on_c, 3, 53, 0
5, 446880, Note_on_c, 3, 53, 100
5, 447120, Note_on_c, 3, 53, 0
5, 447360, Note_on_c, 3, 51, 100
5, 447600, Note_on_c, 3, 51, 0
5, 448080, Note_on_c, 3, 51, 100
5, 448320, Note_on_c, 3, 51, 0
5, 448800, Note_on_c, 3, 51, 100
5, 449040, Note_on_c, 3, 51, 0
5, 449280, Note_on_c, 3, 49, 100
5, 449520, Note_on_c, 3, 49, 0
5, 449760, Note_on_c, 3, 49, 100
5, 450000, Note_on_c, 3, 49, 0
5, 450240, Note_on_c, 3, 46, 100
5, 450480, Note_on_c, 3, 46, 0
5, 450720, Note_on_c, 3, 44, 100
5, 450960, Note_on_c, 3, 44, 0
5, 451200, Note_on_c, 3, 50, 100
5, 451440, Note_on_c, 3, 50, 0
5, 451680, Note_on_c, 3, 48, 100
5, 451920, Note_on_c, 3, 48, 0
5, 452160, Note_on_c, 3, 45, 100
5, 452400, Note_on_c, 3, 45, 0
5, 452640, Note_on_c, 3, 43, 100
5, 452880, Note_on_c, 3, 43, 0
5, 453120, Note_on_c, 3, 47, 100
5, 453360, Note_on_c, 3, 47, 0
5, 453600, Note_on_c, 3, 45, 100
5, 453840, Note_on_c, 3, 45, 0
5, 454320, Note_on_c, 3, 43, 100
5, 454560, Note_on_c, 3, 43, 0
5, 455040, Note_on_c, 3, 40, 100
5, 455280, Note_on_c, 3, 40, 0
5, 456000, Note_on_c, 3, 41, 100
5, 456960, Text_t, "HandMap_Default"
5, 463680, Note_on_c, 3, 41, 0
5, 464160, Note_on_c, 3, 40, 100
5, 464880, Note_on_c, 3, 40, 0
5, 465120, Note_on_c, 3, 42, 100
5, 465600, Note_on_c, 3, 42, 0
5, 466560, Note_on_c, 3, 40, 100
5, 472560, Note_on_c, 3, 40, 0
5, 472800, Note_on_c, 3, 42, 100
5, 473280, Note_on_c, 3, 42, 0
5, 474240, Note_on_c, 3, 40, 100
5, 480240, Note_on_c, 3, 40, 0
5, 480480, Note_on_c, 3, 42, 100
5, 480960, Note_on_c, 3, 42, 0
5, 481438, Note_on_c, 3, 40, 100
5, 482398, Note_on_c, 3, 40, 0
5, 482398, Note_on_c, 3, 41, 100
5, 483118, Note_on_c, 3, 41, 0
5, 483358, Note_on_c, 3, 42, 100
5, 483598, Note_on_c, 3, 42, 0
5, 483838, Note_on_c, 3, 45, 100
5, 484078, Note_on_c, 3, 45, 0
5, 484318, Note_on_c, 3, 46, 100
5, 484558, Note_on_c, 3, 46, 0
5, 484798, Note_on_c, 3, 47, 100
5, 485038, Note_on_c, 3, 47, 0
5, 485278, Note_on_c, 3, 40, 100
5, 487920, Note_on_c, 3, 40, 0
5, 488160, Note_on_c, 3, 42, 100
5, 488640, Note_on_c, 3, 42, 0
5, 489118, Note_on_c, 3, 40, 100
5, 490078, Note_on_c, 3, 40, 0
5, 490078, Note_on_c, 3, 41, 100
5, 490798, Note_on_c, 3, 41, 0
5, 491038, Note_on_c, 3, 42, 100
5, 491278, Note_on_c, 3, 42, 0
5, 491518, Note_on_c, 3, 45, 100
5, 491758, Note_on_c, 3, 45, 0
5, 491998, Note_on_c, 3, 46, 100
5, 492238, Note_on_c, 3, 46, 0
5, 492478, Note_on_c, 3, 47, 100
5, 492718, Note_on_c, 3, 47, 0
5, 492958, Note_on_c, 3, 40, 100
5, 495600, Note_on_c, 3, 40, 0
5, 495840, Note_on_c, 3, 42, 100
5, 496320, Note_on_c, 3, 42, 0
5, 496798, Note_on_c, 3, 40, 100
5, 497758, Note_on_c, 3, 40, 0
5, 497758, Note_on_c, 3, 41, 100
5, 498478, Note_on_c, 3, 41, 0
5, 498718, Note_on_c, 3, 42, 100
5, 498958, Note_on_c, 3, 42, 0
5, 499198, Note_on_c, 3, 45, 100
5, 499438, Note_on_c, 3, 45, 0
5, 499678, Note_on_c, 3, 46, 100
5, 499918, Note_on_c, 3, 46, 0
5, 500158, Note_on_c, 3, 47, 100
5, 500398, Note_on_c, 3, 47, 0
5, 500638, Note_on_c, 3, 40, 100
5, 503280, Note_on_c, 3, 40, 0
5, 503520, Note_on_c, 3, 42, 100
5, 504000, Note_on_c, 3, 42, 0
5, 504478, Note_on_c, 3, 40, 100
5, 505438, Note_on_c, 3, 40, 0
5, 505438, Note_on_c, 3, 41, 100
5, 506158, Note_on_c, 3, 41, 0
5, 506398, Note_on_c, 3, 42, 100
5, 506638, Note_on_c, 3, 42, 0
5, 506878, Note_on_c, 3, 45, 100
5, 507118, Note_on_c, 3, 45, 0
5, 507358, Note_on_c, 3, 46, 100
5, 507598, Note_on_c, 3, 46, 0
5, 507838, Note_on_c, 3, 47, 100
5, 508078, Note_on_c, 3, 47, 0
5, 508318, Note_on_c, 3, 40, 100
5, 510960, Note_on_c, 3, 40, 0
5, 511200, Note_on_c, 3, 42, 100
5, 511680, Note_on_c, 3, 42, 0
5, 512158, Note_on_c, 3, 40, 100
5, 513118, Note_on_c, 3, 40, 0
5, 513118, Note_on_c, 3, 41, 100
5, 513838, Note_on_c, 3, 41, 0
5, 514078, Note_on_c, 3, 42, 100
5, 514318, Note_on_c, 3, 42, 0
5, 514558, Note_on_c, 3, 45, 100
5, 514798, Note_on_c, 3, 45, 0
5, 515038, Note_on_c, 3, 46, 100
5, 515278, Note_on_c, 3, 46, 0
5, 515518, Note_on_c, 3, 47, 100
5, 515758, Note_on_c, 3, 47, 0
5, 515998, Note_on_c, 3, 40, 100
5, 518640, Note_on_c, 3, 40, 0
5, 518880, Note_on_c, 3, 42, 100
5, 519360, Note_on_c, 3, 42, 0
5, 519838, Note_on_c, 3, 40, 100
5, 520798, Note_on_c, 3, 40, 0
5, 520798, Note_on_c, 3, 41, 100
5, 521518, Note_on_c, 3, 41, 0
5, 521758, Note_on_c, 3, 42, 100
5, 521998, Note_on_c, 3, 42, 0
5, 522238, Note_on_c, 3, 45, 100
5, 522478, Note_on_c, 3, 45, 0
5, 522718, Note_on_c, 3, 46, 100
5, 522958, Note_on_c, 3, 46, 0
5, 523198, Note_on_c, 3, 47, 100
5, 523438, Note_on_c, 3, 47, 0
5, 523678, Note_on_c, 3, 40, 100
5, 526320, Note_on_c, 3, 40, 0
5, 526560, Note_on_c, 3, 42, 100
5, 527040, Note_on_c, 3, 42, 0
5, 527518, Note_on_c, 3, 40, 100
5, 528478, Note_on_c, 3, 40, 0
5, 528478, Note_on_c, 3, 41, 100
5, 529198, Note_on_c, 3, 41, 0
5, 529438, Note_on_c, 3, 42, 100
5, 529678, Note_on_c, 3, 42, 0
5, 529918, Note_on_c, 3, 45, 100
5, 530158, Note_on_c, 3, 45, 0
5, 530398, Note_on_c, 3, 46, 100
5, 530638, Note_on_c, 3, 46, 0
5, 530878, Note_on_c, 3, 47, 100
5, 531118, Note_on_c, 3, 47, 0
5, 531358, Note_on_c, 3, 40, 100
5, 534000, Note_on_c, 3, 40, 0
5, 534240, Note_on_c, 3, 42, 100
5, 534720, Note_on_c, 3, 42, 0
5, 535198, Note_on_c, 3, 40, 100
5, 536158, Note_on_c, 3, 40, 0
5, 536158, Note_on_c, 3, 41, 100
5, 536878, Note_on_c, 3, 41, 0
5, 537118, Note_on_c, 3, 42, 100
5, 537358, Note_on_c, 3, 42, 0
5, 537598, Note_on_c, 3, 45, 100
5, 537838, Note_on_c, 3, 45, 0
5, 538078, Note_on_c, 3, 46, 100
5, 538318, Note_on_c, 3, 46, 0
5, 538558, Note_on_c, 3, 47, 100
5, 538798, Note_on_c, 3, 47, 0
5, 539038, Note_on_c, 3, 40, 100
5, 541680, Note_on_c, 3, 40, 0
5, 541920, Note_on_c, 3, 42, 100
5, 542400, Note_on_c, 3, 42, 0
5, 542878, Note_on_c, 3, 40, 100
5, 543838, Note_on_c, 3, 40, 0
5, 543838, Note_on_c, 3, 41, 100
5, 544558, Note_on_c, 3, 41, 0
5, 544798, Note_on_c, 3, 42, 100
5, 545038, Note_on_c, 3, 42, 0
5, 545278, Note_on_c, 3, 45, 100
5, 545518, Note_on_c, 3, 45, 0
5, 545758, Note_on_c, 3, 46, 100
5, 545998, Note_on_c, 3, 46, 0
5, 546238, Note_on_c, 3, 47, 100
5, 546478, Note_on_c, 3, 47, 0
5, 546718, Note_on_c, 3, 40, 100
5, 549360, Note_on_c, 3, 40, 0
5, 549600, Note_on_c, 3, 42, 100
5, 550080, Note_on_c, 3, 42, 0
5, 550558, Note_on_c, 3, 40, 100
5, 551518, Note_on_c, 3, 40, 0
5, 551518, Note_on_c, 3, 41, 100
5, 552238, Note_on_c, 3, 41, 0
5, 552478, Note_on_c, 3, 42, 100
5, 552718, Note_on_c, 3, 42, 0
5, 552958, Note_on_c, 3, 45, 100
5, 553198, Note_on_c, 3, 45, 0
5, 553438, Note_on_c, 3, 46, 100
5, 553678, Note_on_c, 3, 46, 0
5, 553918, Note_on_c, 3, 47, 100
5, 554158, Note_on_c, 3, 47, 0
5, 554398, Note_on_c, 3, 40, 100
5, 555838, Note_on_c, 3, 40, 0
5, 556800, Note_on_c, 3, 47, 100
5, 557040, Note_on_c, 3, 47, 0
5, 557280, Note_on_c, 3, 49, 100
5, 557760, Note_on_c, 3, 49, 0
5, 558238, Note_on_c, 3, 47, 100
5, 559198, Note_on_c, 3, 47, 0
5, 559198, Note_on_c, 3, 48, 100
5, 559918, Note_on_c, 3, 48, 0
5, 560158, Note_on_c, 3, 49, 100
5, 560398, Note_on_c, 3, 49, 0
5, 560638, Note_on_c, 3, 52, 100
5, 560878, Note_on_c, 3, 52, 0
5, 561118, Note_on_c, 3, 53, 100
5, 561358, Note_on_c, 3, 53, 0
5, 561598, Note_on_c, 3, 54, 100
5, 561838, Note_on_c, 3, 54, 0
5, 562078, Note_on_c, 3, 47, 100
5, 564720, Note_on_c, 3, 47, 0
5, 564960, Note_on_c, 3, 49, 100
5, 565440, Note_on_c, 3, 49, 0
5, 565918, Note_on_c, 3, 47, 100
5, 566878, Note_on_c, 3, 47, 0
5, 566878, Note_on_c, 3, 48, 100
5, 567598, Note_on_c, 3, 48, 0
5, 567838, Note_on_c, 3, 49, 100
5, 568078, Note_on_c, 3, 49, 0
5, 568318, Note_on_c, 3, 52, 100
5, 568558, Note_on_c, 3, 52, 0
5, 568798, Note_on_c, 3, 53, 100
5, 569038, Note_on_c, 3, 53, 0
5, 569278, Note_on_c, 3, 54, 100
5, 569518, Note_on_c, 3, 54, 0
5, 569758, Note_on_c, 3, 47, 100
5, 571198, Note_on_c, 3, 47, 0
5, 572160, Note_on_c, 3, 40, 100
5, 572400, Note_on_c, 3, 40, 0
5, 572640, Note_on_c, 3, 42, 100
5, 573118, Note_on_c, 3, 42, 0
5, 573118, End_track
6, 0, Start_track
6, 0, Title_t, "BAND BASS"
6, 0, Text_t, "drum_off"
6, 0, Text_t, "sing_off"
6, 0, Text_t, "gtr_off"
6, 0, Text_t, "[idle]"
6, 7680, Text_t, "[verse]"
6, 23040, Text_t, "sing_on"
6, 69120, Text_t, "drum_on"
6, 69120, Text_t, "gtr_on"
6, 69120, Text_t, "[play]"
6, 99840, Text_t, "sing_off"
6, 99840, Text_t, "[solo]"
6, 99840, Text_t, "solo_on"
6, 99840, Text_t, "drum_double"
6, 130560, Text_t, "solo_off"
6, 130560, Text_t, "[lighting (sweep)]"
6, 130560, Text_t, "[chorus]"
6, 130560, Text_t, "sing_on"
6, 130560, Text_t, "drum_normal"
6, 161280, Text_t, "wail_off"
6, 161280, Text_t, "[verse]"
6, 161280, Text_t, "sing_off"
6, 192000, Text_t, "sing_on"
6, 222720, Text_t, "[solo]"
6, 222720, Text_t, "solo_on"
6, 222720, Text_t, "drum_double"
6, 222720, Text_t, "sing_off"
6, 253440, Text_t, "sing_on"
6, 253440, Text_t, "[lighting (sweep)]"
6, 253440, Text_t, "solo_off"
6, 253440, Text_t, "[chorus]"
6, 253440, Text_t, "drum_normal"
6, 284160, Text_t, "wail_off"
6, 284160, Text_t, "[verse]"
6, 299518, Text_t, "sing_off"
6, 330240, Text_t, "sing_on"
6, 330240, Text_t, "drum_half"
6, 330240, Text_t, "[lighting (sweep)]"
6, 330240, Text_t, "[chorus]"
6, 337920, Text_t, "sing_off"
6, 360960, Text_t, "drum_normal"
6, 360960, Text_t, "sing_on"
6, 360960, Text_t, "wail_off"
6, 391680, Text_t, "[solo]"
6, 391680, Text_t, "solo_on"
6, 391680, Text_t, "sing_off"
6, 456960, Text_t, "drum_off"
6, 456960, Text_t, "[idle]"
6, 456960, Text_t, "gtr_off"
6, 456960, Text_t, "solo_off"
6, 456960, Text_t, "[verse]"
6, 464640, Text_t, "gtr_on"
6, 464640, Text_t, "drum_on"
6, 464640, Text_t, "[play]"
6, 510720, Text_t, "[lighting (sweep)]"
6, 510720, Text_t, "[chorus]"
6, 510720, Text_t, "sing_on"
6, 541440, Text_t, "sing_off"
6, 573120, Text_t, "drum_off"
6, 573120, Text_t, "[idle]"
6, 574080, Text_t, "gtr_off"
6, 575998, Text_t, "[end]"
6, 575998, End_track
7, 0, Start_track
7, 0, Title_t, "BAND SINGER"
7, 0, Text_t, "drum_off"
7, 0, Text_t, "[idle]"
7, 0, Text_t, "gtr_off"
7, 0, Text_t, "bass_off"
7, 7680, Text_t, "[verse]"
7, 23040, Text_t, "[play]"
7, 69120, Text_t, "drum_on"
7, 69120, Text_t, "gtr_on"
7, 69120, Text_t, "bass_on"
7, 99840, Text_t, "[idle]"
7, 99840, Text_t, "[solo]"
7, 99840, Text_t, "solo_on"
7, 99840, Text_t, "drum_double"
7, 130560, Text_t, "solo_off"
7, 130560, Text_t, "[lighting (sweep)]"
7, 130560, Text_t, "[chorus]"
7, 130560, Text_t, "[play]"
7, 130560, Text_t, "drum_normal"
7, 161280, Text_t, "wail_off"
7, 161280, Text_t, "[verse]"
7, 161280, Text_t, "[idle]"
7, 192000, Text_t, "[play]"
7, 222720, Text_t, "[solo]"
7, 222720, Text_t, "solo_on"
7, 222720, Text_t, "drum_double"
7, 222720, Text_t, "[idle]"
7, 253440, Text_t, "[play]"
7, 253440, Text_t, "[lighting (sweep)]"
7, 253440, Text_t, "solo_off"
7, 253440, Text_t, "[chorus]"
7, 253440, Text_t, "drum_normal"
7, 284160, Text_t, "wail_off"
7, 284160, Text_t, "[verse]"
7, 299518, Text_t, "[idle]"
7, 330240, Text_t, "[play]"
7, 330240, Text_t, "drum_half"
7, 330240, Text_t, "[lighting (sweep)]"
7, 330240, Text_t, "[chorus]"
7, 337920, Text_t, "[idle]"
7, 360960, Text_t, "drum_normal"
7, 360960, Text_t, "[play]"
7, 360960, Text_t, "wail_off"
7, 391680, Text_t, "[solo]"
7, 391680, Text_t, "solo_on"
7, 391680, Text_t, "[idle]"
7, 456960, Text_t, "drum_off"
7, 456960, Text_t, "bass_off"
7, 456960, Text_t, "gtr_off"
7, 456960, Text_t, "solo_off"
7, 456960, Text_t, "[verse]"
7, 464640, Text_t, "gtr_on"
7, 464640, Text_t, "drum_on"
7, 464640, Text_t, "bass_on"
7, 510720, Text_t, "[lighting (sweep)]"
7, 510720, Text_t, "[chorus]"
7, 510720, Text_t, "[play]"
7, 541440, Text_t, "[idle]"
7, 573120, Text_t, "drum_off"
7, 573120, Text_t, "bass_off"
7, 574080, Text_t, "gtr_off"
7, 575998, Text_t, "[end]"
7, 575998, End_track
8, 0, Start_track
8, 0, Title_t, "BAND DRUMS"
8, 0, Text_t, "[idle]"
8, 0, Text_t, "sing_off"
8, 0, Text_t, "gtr_off"
8, 0, Text_t, "bass_off"
8, 7680, Text_t, "[verse]"
8, 23040, Text_t, "sing_on"
8, 69120, Text_t, "[play]"
8, 69120, Text_t, "gtr_on"
8, 69120, Text_t, "bass_on"
8, 99840, Text_t, "sing_off"
8, 99840, Text_t, "[solo]"
8, 99840, Text_t, "solo_on"
8, 99840, Text_t, "[double_time]"
8, 130560, Text_t, "solo_off"
8, 130560, Text_t, "[lighting (sweep)]"
8, 130560, Text_t, "[chorus]"
8, 130560, Text_t, "sing_on"
8, 130560, Text_t, "[nobeat]"
8, 161280, Text_t, "wail_off"
8, 161280, Text_t, "[verse]"
8, 161280, Text_t, "sing_off"
8, 192000, Text_t, "sing_on"
8, 222720, Text_t, "[solo]"
8, 222720, Text_t, "solo_on"
8, 222720, Text_t, "[double_time]"
8, 222720, Text_t, "sing_off"
8, 253440, Text_t, "sing_on"
8, 253440, Text_t, "[lighting (sweep)]"
8, 253440, Text_t, "solo_off"
8, 253440, Text_t, "[chorus]"
8, 253440, Text_t, "[nobeat]"
8, 284160, Text_t, "wail_off"
8, 284160, Text_t, "[verse]"
8, 299518, Text_t, "sing_off"
8, 330240, Text_t, "sing_on"
8, 330240, Text_t, "[half_time]"
8, 330240, Text_t, "[lighting (sweep)]"
8, 330240, Text_t, "[chorus]"
8, 337920, Text_t, "sing_off"
8, 360960, Text_t, "[nobeat]"
8, 360960, Text_t, "sing_on"
8, 360960, Text_t, "wail_off"
8, 391680, Text_t, "[solo]"
8, 391680, Text_t, "solo_on"
8, 391680, Text_t, "sing_off"
8, 456960, Text_t, "[idle]"
8, 456960, Text_t, "bass_off"
8, 456960, Text_t, "gtr_off"
8, 456960, Text_t, "solo_off"
8, 456960, Text_t, "[verse]"
8, 464640, Text_t, "gtr_on"
8, 464640, Text_t, "[play]"
8, 464640, Text_t, "bass_on"
8, 510720, Text_t, "[lighting (sweep)]"
8, 510720, Text_t, "[chorus]"
8, 510720, Text_t, "sing_on"
8, 541440, Text_t, "sing_off"
8, 573120, Text_t, "[idle]"
8, 573120, Text_t, "bass_off"
8, 574080, Text_t, "gtr_off"
8, 575998, Text_t, "[end]"
8, 575998, End_track
0, 0, End_of_file
