0, 0, Header, 1, 8, 960
1, 0, Start_track
1, 0, Title_t, "unsung"
1, 0, Time_signature, 4, 2, 24, 8
1, 0, Tempo, 374063
1, 7680, Tempo, 372669
1, 30720, Tempo, 375000
1, 38400, Tempo, 379745
1, 49920, Tempo, 375234
1, 65280, Tempo, 372669
1, 69120, Tempo, 410957
1, 72960, Tempo, 363635
1, 76800, Tempo, 379745
1, 96000, Tempo, 377357
1, 107520, Tempo, 375000
1, 119040, Tempo, 377357
1, 142080, Tempo, 379745
1, 157440, Tempo, 377357
1, 168960, Tempo, 370370
1, 195840, Tempo, 368097
1, 230400, Tempo, 363635
1, 245760, Tempo, 379745
1, 272640, Tempo, 375000
1, 291840, Tempo, 377357
1, 299520, Tempo, 379745
1, 307200, Tempo, 377357
1, 318720, Tempo, 375000
1, 330240, Tempo, 379745
1, 337920, Tempo, 365853
1, 360960, Tempo, 368097
1, 372480, Tempo, 361445
1, 387840, Tempo, 365853
1, 399360, Tempo, 372669
1, 407040, Time_signature, 5, 2, 24, 8
1, 407040, Tempo, 372669
1, 411840, Time_signature, 4, 2, 24, 8
1, 411840, Tempo, 372669
1, 415680, Time_signature, 6, 2, 24, 8
1, 415680, Tempo, 370370
1, 421440, Time_signature, 4, 2, 24, 8
1, 421440, Tempo, 370370
1, 432960, Time_signature, 5, 2, 24, 8
1, 432960, Tempo, 368097
1, 437760, Time_signature, 4, 2, 24, 8
1, 437760, Tempo, 368097
1, 441600, Time_signature, 6, 2, 24, 8
1, 441600, Tempo, 368097
1, 447360, Time_signature, 4, 2, 24, 8
1, 447360, Tempo, 368097
1, 458880, Time_signature, 5, 2, 24, 8
1, 458880, Tempo, 368097
1, 463680, Time_signature, 4, 2, 24, 8
1, 463680, Tempo, 368097
1, 467520, Time_signature, 6, 2, 24, 8
1, 467520, Tempo, 368097
1, 473280, Time_signature, 4, 2, 24, 8
1, 473280, Tempo, 359281
1, 480960, Tempo, 352941
1, 492480, Tempo, 375000
1, 500160, Tempo, 363635
1, 511680, Tempo, 368097
1, 523200, Tempo, 372669
1, 530880, Tempo, 375000
1, 534720, Tempo, 357142
1, 546240, Tempo, 361445
1, 553920, Tempo, 363635
1, 561600, Tempo, 365853
1, 561600, End_track
2, 0, Start_track
2, 0, Title_t, "PART GUITAR"
2, 23010, Text_t, "[verse]"
2, 23010, Text_t, "[play]"
2, 23010, Note_on_c, 0, 106, 100
2, 23010, Note_on_c, 0, 94, 100
2, 23010, Note_on_c, 0, 70, 100
2, 23010, Note_on_c, 0, 82, 100
2, 23040, Note_on_c, 0, 85, 100
2, 23040, Note_on_c, 0, 72, 100
2, 23040, Note_on_c, 0, 97, 100
2, 23040, Note_on_c, 0, 60, 100
2, 23280, Note_on_c, 0, 85, 0
2, 23280, Note_on_c, 0, 72, 0
2, 23280, Note_on_c, 0, 97, 0
2, 23280, Note_on_c, 0, 60, 0
2, 23520, Note_on_c, 0, 85, 100
2, 23520, Note_on_c, 0, 72, 100
2, 23520, Note_on_c, 0, 97, 100
2, 23760, Note_on_c, 0, 85, 0
2, 23760, Note_on_c, 0, 72, 0
2, 23760, Note_on_c, 0, 97, 0
2, 24000, Note_on_c, 0, 85, 100
2, 24000, Note_on_c, 0, 72, 100
2, 24000, Note_on_c, 0, 97, 100
2, 24240, Note_on_c, 0, 85, 0
2, 24240, Note_on_c, 0, 72, 0
2, 24240, Note_on_c, 0, 97, 0
2, 24480, Note_on_c, 0, 86, 100
2, 24480, Note_on_c, 0, 73, 100
2, 24480, Note_on_c, 0, 98, 100
2, 24480, Note_on_c, 0, 61, 100
2, 24720, Note_on_c, 0, 86, 0
2, 24720, Note_on_c, 0, 73, 0
2, 24720, Note_on_c, 0, 98, 0
2, 24720, Note_on_c, 0, 61, 0
2, 24960, Note_on_c, 0, 86, 100
2, 24960, Note_on_c, 0, 73, 100
2, 24960, Note_on_c, 0, 98, 100
2, 25200, Note_on_c, 0, 86, 0
2, 25200, Note_on_c, 0, 73, 0
2, 25200, Note_on_c, 0, 98, 0
2, 25440, Note_on_c, 0, 86, 100
2, 25440, Note_on_c, 0, 73, 100
2, 25440, Note_on_c, 0, 98, 100
2, 25680, Note_on_c, 0, 86, 0
2, 25680, Note_on_c, 0, 73, 0
2, 25680, Note_on_c, 0, 98, 0
2, 25920, Note_on_c, 0, 87, 100
2, 25920, Note_on_c, 0, 74, 100
2, 25920, Note_on_c, 0, 99, 100
2, 25920, Note_on_c, 0, 62, 100
2, 26160, Note_on_c, 0, 87, 0
2, 26160, Note_on_c, 0, 74, 0
2, 26160, Note_on_c, 0, 99, 0
2, 26160, Note_on_c, 0, 62, 0
2, 26400, Note_on_c, 0, 87, 100
2, 26400, Note_on_c, 0, 74, 100
2, 26400, Note_on_c, 0, 99, 100
2, 26640, Note_on_c, 0, 87, 0
2, 26640, Note_on_c, 0, 74, 0
2, 26640, Note_on_c, 0, 99, 0
2, 26880, Note_on_c, 0, 85, 100
2, 26880, Note_on_c, 0, 72, 100
2, 26880, Note_on_c, 0, 97, 100
2, 26880, Note_on_c, 0, 60, 100
2, 27120, Note_on_c, 0, 85, 0
2, 27120, Note_on_c, 0, 72, 0
2, 27120, Note_on_c, 0, 97, 0
2, 27120, Note_on_c, 0, 60, 0
2, 27360, Note_on_c, 0, 85, 100
2, 27360, Note_on_c, 0, 72, 100
2, 27360, Note_on_c, 0, 97, 100
2, 27600, Note_on_c, 0, 85, 0
2, 27600, Note_on_c, 0, 72, 0
2, 27600, Note_on_c, 0, 97, 0
2, 27840, Note_on_c, 0, 85, 100
2, 27840, Note_on_c, 0, 72, 100
2, 27840, Note_on_c, 0, 97, 100
2, 28080, Note_on_c, 0, 85, 0
2, 28080, Note_on_c, 0, 72, 0
2, 28080, Note_on_c, 0, 97, 0
2, 28320, Note_on_c, 0, 86, 100
2, 28320, Note_on_c, 0, 73, 100
2, 28320, Note_on_c, 0, 98, 100
2, 28320, Note_on_c, 0, 61, 100
2, 28560, Note_on_c, 0, 86, 0
2, 28560, Note_on_c, 0, 73, 0
2, 28560, Note_on_c, 0, 98, 0
2, 28560, Note_on_c, 0, 61, 0
2, 28770, Text_t, "[music_start]"
2, 28800, Note_on_c, 0, 86, 100
2, 28800, Note_on_c, 0, 73, 100
2, 28800, Note_on_c, 0, 98, 100
2, 29040, Note_on_c, 0, 86, 0
2, 29040, Note_on_c, 0, 73, 0
2, 29040, Note_on_c, 0, 98, 0
2, 29280, Note_on_c, 0, 86, 100
2, 29280, Note_on_c, 0, 73, 100
2, 29280, Note_on_c, 0, 98, 100
2, 29520, Note_on_c, 0, 86, 0
2, 29520, Note_on_c, 0, 73, 0
2, 29520, Note_on_c, 0, 98, 0
2, 29760, Note_on_c, 0, 87, 100
2, 29760, Note_on_c, 0, 74, 100
2, 29760, Note_on_c, 0, 99, 100
2, 29760, Note_on_c, 0, 62, 100
2, 30000, Note_on_c, 0, 87, 0
2, 30000, Note_on_c, 0, 74, 0
2, 30000, Note_on_c, 0, 99, 0
2, 30000, Note_on_c, 0, 62, 0
2, 30240, Note_on_c, 0, 87, 100
2, 30240, Note_on_c, 0, 74, 100
2, 30240, Note_on_c, 0, 99, 100
2, 30480, Note_on_c, 0, 87, 0
2, 30480, Note_on_c, 0, 74, 0
2, 30480, Note_on_c, 0, 99, 0
2, 30690, Text_t, "bass_on"
2, 30690, Text_t, "[verse]"
2, 30690, Text_t, "[lighting ()]"
2, 30690, Note_on_c, 0, 106, 0
2, 30690, Note_on_c, 0, 94, 0
2, 30690, Note_on_c, 0, 70, 0
2, 30690, Note_on_c, 0, 82, 0
2, 30690, Note_on_c, 0, 105, 100
2, 30690, Note_on_c, 0, 93, 100
2, 30690, Note_on_c, 0, 69, 100
2, 30690, Note_on_c, 0, 81, 100
2, 30720, Note_on_c, 0, 85, 100
2, 30720, Note_on_c, 0, 72, 100
2, 30720, Note_on_c, 0, 97, 100
2, 30720, Note_on_c, 0, 60, 100
2, 30960, Note_on_c, 0, 85, 0
2, 30960, Note_on_c, 0, 72, 0
2, 30960, Note_on_c, 0, 97, 0
2, 30960, Note_on_c, 0, 60, 0
2, 31200, Note_on_c, 0, 85, 100
2, 31200, Note_on_c, 0, 72, 100
2, 31200, Note_on_c, 0, 97, 100
2, 31440, Note_on_c, 0, 85, 0
2, 31440, Note_on_c, 0, 72, 0
2, 31440, Note_on_c, 0, 97, 0
2, 31650, Text_t, "drum_double"
2, 31680, Note_on_c, 0, 85, 100
2, 31680, Note_on_c, 0, 72, 100
2, 31680, Note_on_c, 0, 97, 100
2, 31920, Note_on_c, 0, 85, 0
2, 31920, Note_on_c, 0, 72, 0
2, 31920, Note_on_c, 0, 97, 0
2, 32160, Note_on_c, 0, 86, 100
2, 32160, Note_on_c, 0, 73, 100
2, 32160, Note_on_c, 0, 98, 100
2, 32160, Note_on_c, 0, 61, 100
2, 32400, Note_on_c, 0, 86, 0
2, 32400, Note_on_c, 0, 73, 0
2, 32400, Note_on_c, 0, 98, 0
2, 32400, Note_on_c, 0, 61, 0
2, 32610, Text_t, "drum_normal"
2, 32640, Note_on_c, 0, 86, 100
2, 32640, Note_on_c, 0, 73, 100
2, 32640, Note_on_c, 0, 98, 100
2, 32880, Note_on_c, 0, 86, 0
2, 32880, Note_on_c, 0, 73, 0
2, 32880, Note_on_c, 0, 98, 0
2, 33120, Note_on_c, 0, 86, 100
2, 33120, Note_on_c, 0, 73, 100
2, 33120, Note_on_c, 0, 98, 100
2, 33360, Note_on_c, 0, 86, 0
2, 33360, Note_on_c, 0, 73, 0
2, 33360, Note_on_c, 0, 98, 0
2, 33600, Note_on_c, 0, 87, 100
2, 33600, Note_on_c, 0, 74, 100
2, 33600, Note_on_c, 0, 99, 100
2, 33600, Note_on_c, 0, 62, 100
2, 33840, Note_on_c, 0, 87, 0
2, 33840, Note_on_c, 0, 74, 0
2, 33840, Note_on_c, 0, 99, 0
2, 33840, Note_on_c, 0, 62, 0
2, 34080, Note_on_c, 0, 87, 100
2, 34080, Note_on_c, 0, 74, 100
2, 34080, Note_on_c, 0, 99, 100
2, 34320, Note_on_c, 0, 87, 0
2, 34320, Note_on_c, 0, 74, 0
2, 34320, Note_on_c, 0, 99, 0
2, 34530, Text_t, "[lighting ()]"
2, 34560, Note_on_c, 0, 85, 100
2, 34560, Note_on_c, 0, 72, 100
2, 34560, Note_on_c, 0, 97, 100
2, 34560, Note_on_c, 0, 60, 100
2, 34800, Note_on_c, 0, 85, 0
2, 34800, Note_on_c, 0, 72, 0
2, 34800, Note_on_c, 0, 97, 0
2, 34800, Note_on_c, 0, 60, 0
2, 35040, Note_on_c, 0, 85, 100
2, 35040, Note_on_c, 0, 72, 100
2, 35040, Note_on_c, 0, 97, 100
2, 35280, Note_on_c, 0, 85, 0
2, 35280, Note_on_c, 0, 72, 0
2, 35280, Note_on_c, 0, 97, 0
2, 35490, Text_t, "drum_double"
2, 35520, Note_on_c, 0, 85, 100
2, 35520, Note_on_c, 0, 72, 100
2, 35520, Note_on_c, 0, 97, 100
2, 35760, Note_on_c, 0, 85, 0
2, 35760, Note_on_c, 0, 72, 0
2, 35760, Note_on_c, 0, 97, 0
2, 36000, Note_on_c, 0, 86, 100
2, 36000, Note_on_c, 0, 73, 100
2, 36000, Note_on_c, 0, 98, 100
2, 36000, Note_on_c, 0, 61, 100
2, 36240, Note_on_c, 0, 86, 0
2, 36240, Note_on_c, 0, 73, 0
2, 36240, Note_on_c, 0, 98, 0
2, 36240, Note_on_c, 0, 61, 0
2, 36450, Text_t, "drum_normal"
2, 36480, Note_on_c, 0, 86, 100
2, 36480, Note_on_c, 0, 73, 100
2, 36480, Note_on_c, 0, 98, 100
2, 36720, Note_on_c, 0, 86, 0
2, 36720, Note_on_c, 0, 73, 0
2, 36720, Note_on_c, 0, 98, 0
2, 36960, Note_on_c, 0, 86, 100
2, 36960, Note_on_c, 0, 73, 100
2, 36960, Note_on_c, 0, 98, 100
2, 37200, Note_on_c, 0, 86, 0
2, 37200, Note_on_c, 0, 73, 0
2, 37200, Note_on_c, 0, 98, 0
2, 37440, Note_on_c, 0, 87, 100
2, 37440, Note_on_c, 0, 74, 100
2, 37440, Note_on_c, 0, 99, 100
2, 37440, Note_on_c, 0, 62, 100
2, 37680, Note_on_c, 0, 87, 0
2, 37680, Note_on_c, 0, 74, 0
2, 37680, Note_on_c, 0, 99, 0
2, 37680, Note_on_c, 0, 62, 0
2, 37920, Note_on_c, 0, 87, 100
2, 37920, Note_on_c, 0, 74, 100
2, 37920, Note_on_c, 0, 99, 100
2, 38160, Note_on_c, 0, 87, 0
2, 38160, Note_on_c, 0, 74, 0
2, 38160, Note_on_c, 0, 99, 0
2, 38370, Text_t, "[lighting ()]"
2, 38370, Note_on_c, 0, 105, 0
2, 38370, Note_on_c, 0, 93, 0
2, 38370, Note_on_c, 0, 69, 0
2, 38370, Note_on_c, 0, 81, 0
2, 38370, Note_on_c, 0, 106, 100
2, 38370, Note_on_c, 0, 94, 100
2, 38370, Note_on_c, 0, 70, 100
2, 38370, Note_on_c, 0, 82, 100
2, 38400, Note_on_c, 0, 100, 100
2, 38400, Note_on_c, 0, 62, 100
2, 38400, Note_on_c, 0, 88, 100
2, 38400, Note_on_c, 0, 75, 100
2, 39330, Text_t, "drum_double"
2, 40290, Text_t, "drum_normal"
2, 42210, Text_t, "[lighting ()]"
2, 43170, Text_t, "drum_double"
2, 44130, Text_t, "drum_normal"
2, 45120, Note_on_c, 0, 62, 0
2, 45120, Note_on_c, 0, 75, 0
2, 46050, Text_t, "[play]"
2, 46050, Text_t, "[lighting ()]"
2, 46050, Note_on_c, 0, 105, 100
2, 46050, Note_on_c, 0, 93, 100
2, 46050, Note_on_c, 0, 69, 100
2, 46050, Note_on_c, 0, 81, 100
2, 46050, Note_on_c, 0, 103, 100
2, 46050, Note_on_c, 0, 91, 100
2, 46050, Note_on_c, 0, 79, 100
2, 46050, Note_on_c, 0, 67, 100
2, 46080, Note_on_c, 0, 100, 0
2, 46080, Note_on_c, 0, 88, 0
2, 46080, Note_on_c, 0, 75, 100
2, 46080, Note_on_c, 0, 62, 100
2, 46080, Note_on_c, 0, 74, 100
2, 46080, Note_on_c, 0, 61, 100
2, 46080, Note_on_c, 0, 100, 100
2, 46080, Note_on_c, 0, 88, 100
2, 46080, Note_on_c, 0, 98, 100
2, 46080, Note_on_c, 0, 86, 100
2, 47010, Text_t, "drum_double"
2, 47970, Text_t, "drum_normal"
2, 49890, Text_t, "[lighting (color1)]"
2, 50850, Text_t, "drum_double"
2, 51810, Text_t, "drum_normal"
2, 53730, Text_t, "[lighting ()]"
2, 54690, Text_t, "drum_double"
2, 55650, Text_t, "drum_normal"
2, 57570, Text_t, "[lighting (color2)]"
2, 58530, Text_t, "drum_double"
2, 59490, Text_t, "drum_normal"
2, 61410, Text_t, "[lighting ()]"
2, 62370, Text_t, "drum_double"
2, 63330, Text_t, "drum_normal"
2, 65250, Text_t, "[lighting (color1)]"
2, 66210, Text_t, "drum_double"
2, 67170, Text_t, "drum_normal"
2, 68160, Note_on_c, 0, 75, 0
2, 68160, Note_on_c, 0, 62, 0
2, 68160, Note_on_c, 0, 74, 0
2, 68160, Note_on_c, 0, 61, 0
2, 68640, Note_on_c, 0, 100, 0
2, 68640, Note_on_c, 0, 88, 0
2, 68640, Note_on_c, 0, 98, 0
2, 68640, Note_on_c, 0, 86, 0
2, 69090, Text_t, "[lighting ()]"
2, 69120, Note_on_c, 0, 84, 100
2, 69120, Note_on_c, 0, 72, 100
2, 69120, Note_on_c, 0, 73, 100
2, 69120, Note_on_c, 0, 61, 100
2, 69120, Note_on_c, 0, 85, 100
2, 69120, Note_on_c, 0, 96, 100
2, 69120, Note_on_c, 0, 97, 100
2, 70050, Text_t, "drum_double"
2, 71010, Text_t, "drum_normal"
2, 72930, Text_t, "[lighting (color2)]"
2, 73890, Text_t, "drum_double"
2, 74850, Text_t, "drum_normal"
2, 76130, Note_on_c, 0, 103, 0
2, 76130, Note_on_c, 0, 91, 0
2, 76130, Note_on_c, 0, 79, 0
2, 76130, Note_on_c, 0, 67, 0
2, 76320, Note_on_c, 0, 84, 0
2, 76320, Note_on_c, 0, 72, 0
2, 76320, Note_on_c, 0, 73, 0
2, 76320, Note_on_c, 0, 61, 0
2, 76320, Note_on_c, 0, 85, 0
2, 76320, Note_on_c, 0, 96, 0
2, 76320, Note_on_c, 0, 97, 0
2, 76770, Text_t, "[lighting ()]"
2, 76770, Note_on_c, 0, 106, 0
2, 76770, Note_on_c, 0, 94, 0
2, 76770, Note_on_c, 0, 70, 0
2, 76770, Note_on_c, 0, 82, 0
2, 76800, Note_on_c, 0, 96, 100
2, 76800, Note_on_c, 0, 98, 100
2, 76800, Note_on_c, 0, 73, 100
2, 76800, Note_on_c, 0, 84, 100
2, 76800, Note_on_c, 0, 86, 100
2, 76800, Note_on_c, 0, 60, 100
2, 76800, Note_on_c, 0, 72, 100
2, 77040, Note_on_c, 0, 96, 0
2, 77040, Note_on_c, 0, 98, 0
2, 77040, Note_on_c, 0, 73, 0
2, 77040, Note_on_c, 0, 84, 0
2, 77040, Note_on_c, 0, 86, 0
2, 77040, Note_on_c, 0, 60, 0
2, 77040, Note_on_c, 0, 72, 0
2, 77280, Note_on_c, 0, 96, 100
2, 77280, Note_on_c, 0, 98, 100
2, 77280, Note_on_c, 0, 84, 100
2, 77280, Note_on_c, 0, 86, 100
2, 77280, Note_on_c, 0, 73, 100
2, 77280, Note_on_c, 0, 72, 100
2, 77520, Note_on_c, 0, 96, 0
2, 77520, Note_on_c, 0, 98, 0
2, 77520, Note_on_c, 0, 84, 0
2, 77520, Note_on_c, 0, 86, 0
2, 77520, Note_on_c, 0, 73, 0
2, 77520, Note_on_c, 0, 72, 0
2, 77730, Text_t, "drum_double"
2, 77760, Note_on_c, 0, 96, 100
2, 77760, Note_on_c, 0, 98, 100
2, 77760, Note_on_c, 0, 73, 100
2, 77760, Note_on_c, 0, 84, 100
2, 77760, Note_on_c, 0, 86, 100
2, 77760, Note_on_c, 0, 60, 100
2, 77760, Note_on_c, 0, 72, 100
2, 78000, Note_on_c, 0, 96, 0
2, 78000, Note_on_c, 0, 98, 0
2, 78000, Note_on_c, 0, 73, 0
2, 78000, Note_on_c, 0, 84, 0
2, 78000, Note_on_c, 0, 86, 0
2, 78000, Note_on_c, 0, 60, 0
2, 78000, Note_on_c, 0, 72, 0
2, 78690, Text_t, "drum_normal"
2, 79200, Note_on_c, 0, 96, 100
2, 79200, Note_on_c, 0, 98, 100
2, 79200, Note_on_c, 0, 73, 100
2, 79200, Note_on_c, 0, 84, 100
2, 79200, Note_on_c, 0, 86, 100
2, 79200, Note_on_c, 0, 60, 100
2, 79200, Note_on_c, 0, 72, 100
2, 79440, Note_on_c, 0, 96, 0
2, 79440, Note_on_c, 0, 98, 0
2, 79440, Note_on_c, 0, 73, 0
2, 79440, Note_on_c, 0, 84, 0
2, 79440, Note_on_c, 0, 86, 0
2, 79440, Note_on_c, 0, 60, 0
2, 79440, Note_on_c, 0, 72, 0
2, 79680, Note_on_c, 0, 96, 100
2, 79680, Note_on_c, 0, 72, 100
2, 79680, Note_on_c, 0, 84, 100
2, 79920, Note_on_c, 0, 96, 0
2, 79920, Note_on_c, 0, 72, 0
2, 79920, Note_on_c, 0, 84, 0
2, 80160, Note_on_c, 0, 96, 100
2, 80160, Note_on_c, 0, 98, 100
2, 80160, Note_on_c, 0, 73, 100
2, 80160, Note_on_c, 0, 84, 100
2, 80160, Note_on_c, 0, 86, 100
2, 80160, Note_on_c, 0, 60, 100
2, 80160, Note_on_c, 0, 72, 100
2, 80400, Note_on_c, 0, 96, 0
2, 80400, Note_on_c, 0, 98, 0
2, 80400, Note_on_c, 0, 73, 0
2, 80400, Note_on_c, 0, 84, 0
2, 80400, Note_on_c, 0, 86, 0
2, 80400, Note_on_c, 0, 60, 0
2, 80400, Note_on_c, 0, 72, 0
2, 80610, Text_t, "[lighting (color1)]"
2, 81570, Text_t, "drum_double"
2, 82530, Text_t, "drum_normal"
2, 82560, Note_on_c, 0, 96, 100
2, 82560, Note_on_c, 0, 98, 100
2, 82560, Note_on_c, 0, 73, 100
2, 82560, Note_on_c, 0, 84, 100
2, 82560, Note_on_c, 0, 86, 100
2, 82560, Note_on_c, 0, 60, 100
2, 82560, Note_on_c, 0, 72, 100
2, 82800, Note_on_c, 0, 96, 0
2, 82800, Note_on_c, 0, 98, 0
2, 82800, Note_on_c, 0, 73, 0
2, 82800, Note_on_c, 0, 84, 0
2, 82800, Note_on_c, 0, 86, 0
2, 82800, Note_on_c, 0, 60, 0
2, 82800, Note_on_c, 0, 72, 0
2, 83040, Note_on_c, 0, 96, 100
2, 83040, Note_on_c, 0, 98, 100
2, 83040, Note_on_c, 0, 84, 100
2, 83040, Note_on_c, 0, 86, 100
2, 83040, Note_on_c, 0, 73, 100
2, 83040, Note_on_c, 0, 72, 100
2, 83280, Note_on_c, 0, 96, 0
2, 83280, Note_on_c, 0, 98, 0
2, 83280, Note_on_c, 0, 84, 0
2, 83280, Note_on_c, 0, 86, 0
2, 83280, Note_on_c, 0, 73, 0
2, 83280, Note_on_c, 0, 72, 0
2, 83520, Note_on_c, 0, 96, 100
2, 83520, Note_on_c, 0, 98, 100
2, 83520, Note_on_c, 0, 73, 100
2, 83520, Note_on_c, 0, 84, 100
2, 83520, Note_on_c, 0, 86, 100
2, 83520, Note_on_c, 0, 60, 100
2, 83520, Note_on_c, 0, 72, 100
2, 83760, Note_on_c, 0, 96, 0
2, 83760, Note_on_c, 0, 98, 0
2, 83760, Note_on_c, 0, 73, 0
2, 83760, Note_on_c, 0, 84, 0
2, 83760, Note_on_c, 0, 86, 0
2, 83760, Note_on_c, 0, 60, 0
2, 83760, Note_on_c, 0, 72, 0
2, 84450, Text_t, "[lighting ()]"
2, 84480, Note_on_c, 0, 96, 100
2, 84480, Note_on_c, 0, 98, 100
2, 84480, Note_on_c, 0, 73, 100
2, 84480, Note_on_c, 0, 84, 100
2, 84480, Note_on_c, 0, 86, 100
2, 84480, Note_on_c, 0, 60, 100
2, 84480, Note_on_c, 0, 72, 100
2, 84720, Note_on_c, 0, 96, 0
2, 84720, Note_on_c, 0, 98, 0
2, 84720, Note_on_c, 0, 73, 0
2, 84720, Note_on_c, 0, 84, 0
2, 84720, Note_on_c, 0, 86, 0
2, 84720, Note_on_c, 0, 60, 0
2, 84720, Note_on_c, 0, 72, 0
2, 84960, Note_on_c, 0, 96, 100
2, 84960, Note_on_c, 0, 72, 100
2, 84960, Note_on_c, 0, 84, 100
2, 85200, Note_on_c, 0, 96, 0
2, 85200, Note_on_c, 0, 72, 0
2, 85200, Note_on_c, 0, 84, 0
2, 85410, Text_t, "drum_double"
2, 85440, Note_on_c, 0, 96, 100
2, 85440, Note_on_c, 0, 98, 100
2, 85440, Note_on_c, 0, 73, 100
2, 85440, Note_on_c, 0, 84, 100
2, 85440, Note_on_c, 0, 86, 100
2, 85440, Note_on_c, 0, 60, 100
2, 85440, Note_on_c, 0, 72, 100
2, 85680, Note_on_c, 0, 96, 0
2, 85680, Note_on_c, 0, 98, 0
2, 85680, Note_on_c, 0, 73, 0
2, 85680, Note_on_c, 0, 84, 0
2, 85680, Note_on_c, 0, 86, 0
2, 85680, Note_on_c, 0, 60, 0
2, 85680, Note_on_c, 0, 72, 0
2, 86370, Text_t, "drum_normal"
2, 86880, Note_on_c, 0, 96, 100
2, 86880, Note_on_c, 0, 98, 100
2, 86880, Note_on_c, 0, 73, 100
2, 86880, Note_on_c, 0, 84, 100
2, 86880, Note_on_c, 0, 86, 100
2, 86880, Note_on_c, 0, 60, 100
2, 86880, Note_on_c, 0, 72, 100
2, 87120, Note_on_c, 0, 96, 0
2, 87120, Note_on_c, 0, 98, 0
2, 87120, Note_on_c, 0, 73, 0
2, 87120, Note_on_c, 0, 84, 0
2, 87120, Note_on_c, 0, 86, 0
2, 87120, Note_on_c, 0, 60, 0
2, 87120, Note_on_c, 0, 72, 0
2, 87360, Note_on_c, 0, 96, 100
2, 87360, Note_on_c, 0, 72, 100
2, 87360, Note_on_c, 0, 84, 100
2, 87600, Note_on_c, 0, 96, 0
2, 87600, Note_on_c, 0, 72, 0
2, 87600, Note_on_c, 0, 84, 0
2, 87840, Note_on_c, 0, 96, 100
2, 87840, Note_on_c, 0, 98, 100
2, 87840, Note_on_c, 0, 84, 100
2, 87840, Note_on_c, 0, 86, 100
2, 88080, Note_on_c, 0, 96, 0
2, 88080, Note_on_c, 0, 98, 0
2, 88080, Note_on_c, 0, 84, 0
2, 88080, Note_on_c, 0, 86, 0
2, 88290, Text_t, "[lighting (color2)]"
2, 88290, Note_on_c, 0, 103, 100
2, 88290, Note_on_c, 0, 91, 100
2, 88290, Note_on_c, 0, 67, 100
2, 88290, Note_on_c, 0, 79, 100
2, 88320, Note_on_c, 0, 96, 100
2, 88320, Note_on_c, 0, 98, 100
2, 88320, Note_on_c, 0, 73, 100
2, 88320, Note_on_c, 0, 84, 100
2, 88320, Note_on_c, 0, 86, 100
2, 88320, Note_on_c, 0, 60, 100
2, 88320, Note_on_c, 0, 72, 100
2, 88560, Note_on_c, 0, 96, 0
2, 88560, Note_on_c, 0, 98, 0
2, 88560, Note_on_c, 0, 73, 0
2, 88560, Note_on_c, 0, 84, 0
2, 88560, Note_on_c, 0, 86, 0
2, 88560, Note_on_c, 0, 60, 0
2, 88560, Note_on_c, 0, 72, 0
2, 88800, Note_on_c, 0, 96, 100
2, 88800, Note_on_c, 0, 98, 100
2, 88800, Note_on_c, 0, 84, 100
2, 88800, Note_on_c, 0, 86, 100
2, 89040, Note_on_c, 0, 96, 0
2, 89040, Note_on_c, 0, 98, 0
2, 89040, Note_on_c, 0, 84, 0
2, 89040, Note_on_c, 0, 86, 0
2, 89250, Text_t, "drum_double"
2, 89280, Note_on_c, 0, 96, 100
2, 89280, Note_on_c, 0, 98, 100
2, 89280, Note_on_c, 0, 84, 100
2, 89280, Note_on_c, 0, 86, 100
2, 89520, Note_on_c, 0, 96, 0
2, 89520, Note_on_c, 0, 98, 0
2, 89520, Note_on_c, 0, 84, 0
2, 89520, Note_on_c, 0, 86, 0
2, 89760, Note_on_c, 0, 97, 100
2, 89760, Note_on_c, 0, 98, 100
2, 89760, Note_on_c, 0, 74, 100
2, 89760, Note_on_c, 0, 85, 100
2, 89760, Note_on_c, 0, 86, 100
2, 89760, Note_on_c, 0, 61, 100
2, 89760, Note_on_c, 0, 72, 100
2, 90000, Note_on_c, 0, 97, 0
2, 90000, Note_on_c, 0, 98, 0
2, 90000, Note_on_c, 0, 74, 0
2, 90000, Note_on_c, 0, 85, 0
2, 90000, Note_on_c, 0, 86, 0
2, 90000, Note_on_c, 0, 61, 0
2, 90000, Note_on_c, 0, 72, 0
2, 90210, Text_t, "drum_normal"
2, 90240, Note_on_c, 0, 97, 100
2, 90240, Note_on_c, 0, 98, 100
2, 90240, Note_on_c, 0, 85, 100
2, 90240, Note_on_c, 0, 86, 100
2, 90480, Note_on_c, 0, 97, 0
2, 90480, Note_on_c, 0, 98, 0
2, 90480, Note_on_c, 0, 85, 0
2, 90480, Note_on_c, 0, 86, 0
2, 90720, Note_on_c, 0, 97, 100
2, 90720, Note_on_c, 0, 98, 100
2, 90720, Note_on_c, 0, 85, 100
2, 90720, Note_on_c, 0, 86, 100
2, 90960, Note_on_c, 0, 97, 0
2, 90960, Note_on_c, 0, 98, 0
2, 90960, Note_on_c, 0, 85, 0
2, 90960, Note_on_c, 0, 86, 0
2, 91200, Note_on_c, 0, 97, 100
2, 91200, Note_on_c, 0, 99, 100
2, 91200, Note_on_c, 0, 75, 100
2, 91200, Note_on_c, 0, 87, 100
2, 91200, Note_on_c, 0, 62, 100
2, 91440, Note_on_c, 0, 97, 0
2, 91440, Note_on_c, 0, 99, 0
2, 91440, Note_on_c, 0, 75, 0
2, 91440, Note_on_c, 0, 87, 0
2, 91440, Note_on_c, 0, 62, 0
2, 91680, Note_on_c, 0, 97, 100
2, 91680, Note_on_c, 0, 99, 100
2, 91680, Note_on_c, 0, 87, 100
2, 91920, Note_on_c, 0, 97, 0
2, 91920, Note_on_c, 0, 99, 0
2, 91920, Note_on_c, 0, 87, 0
2, 92130, Text_t, "[lighting ()]"
2, 92130, Note_on_c, 0, 105, 0
2, 92130, Note_on_c, 0, 93, 0
2, 92130, Note_on_c, 0, 69, 0
2, 92130, Note_on_c, 0, 81, 0
2, 92130, Note_on_c, 0, 103, 0
2, 92130, Note_on_c, 0, 91, 0
2, 92130, Note_on_c, 0, 67, 0
2, 92130, Note_on_c, 0, 79, 0
2, 92130, Note_on_c, 0, 106, 100
2, 92130, Note_on_c, 0, 94, 100
2, 92130, Note_on_c, 0, 70, 100
2, 92130, Note_on_c, 0, 82, 100
2, 92160, Note_on_c, 0, 96, 100
2, 92160, Note_on_c, 0, 98, 100
2, 92160, Note_on_c, 0, 84, 100
2, 92160, Note_on_c, 0, 86, 100
2, 92160, Note_on_c, 0, 60, 100
2, 92160, Note_on_c, 0, 73, 100
2, 92160, Note_on_c, 0, 72, 100
2, 92400, Note_on_c, 0, 96, 0
2, 92400, Note_on_c, 0, 98, 0
2, 92400, Note_on_c, 0, 84, 0
2, 92400, Note_on_c, 0, 86, 0
2, 92400, Note_on_c, 0, 60, 0
2, 92400, Note_on_c, 0, 73, 0
2, 92400, Note_on_c, 0, 72, 0
2, 92640, Note_on_c, 0, 96, 100
2, 92640, Note_on_c, 0, 98, 100
2, 92640, Note_on_c, 0, 84, 100
2, 92640, Note_on_c, 0, 86, 100
2, 92640, Note_on_c, 0, 73, 100
2, 92640, Note_on_c, 0, 72, 100
2, 92880, Note_on_c, 0, 96, 0
2, 92880, Note_on_c, 0, 98, 0
2, 92880, Note_on_c, 0, 84, 0
2, 92880, Note_on_c, 0, 86, 0
2, 92880, Note_on_c, 0, 73, 0
2, 92880, Note_on_c, 0, 72, 0
2, 93090, Text_t, "[lighting (flare)]"
2, 93120, Note_on_c, 0, 96, 100
2, 93120, Note_on_c, 0, 98, 100
2, 93120, Note_on_c, 0, 84, 100
2, 93120, Note_on_c, 0, 86, 100
2, 93120, Note_on_c, 0, 60, 100
2, 93120, Note_on_c, 0, 73, 100
2, 93120, Note_on_c, 0, 72, 100
2, 93360, Note_on_c, 0, 96, 0
2, 93360, Note_on_c, 0, 98, 0
2, 93360, Note_on_c, 0, 84, 0
2, 93360, Note_on_c, 0, 86, 0
2, 93360, Note_on_c, 0, 60, 0
2, 93360, Note_on_c, 0, 73, 0
2, 93360, Note_on_c, 0, 72, 0
2, 94560, Note_on_c, 0, 96, 100
2, 94560, Note_on_c, 0, 98, 100
2, 94560, Note_on_c, 0, 84, 100
2, 94560, Note_on_c, 0, 86, 100
2, 94560, Note_on_c, 0, 60, 100
2, 94560, Note_on_c, 0, 73, 100
2, 94560, Note_on_c, 0, 72, 100
2, 94800, Note_on_c, 0, 96, 0
2, 94800, Note_on_c, 0, 98, 0
2, 94800, Note_on_c, 0, 84, 0
2, 94800, Note_on_c, 0, 86, 0
2, 94800, Note_on_c, 0, 60, 0
2, 94800, Note_on_c, 0, 73, 0
2, 94800, Note_on_c, 0, 72, 0
2, 95040, Note_on_c, 0, 96, 100
2, 95040, Note_on_c, 0, 84, 100
2, 95040, Note_on_c, 0, 72, 100
2, 95280, Note_on_c, 0, 96, 0
2, 95280, Note_on_c, 0, 84, 0
2, 95280, Note_on_c, 0, 72, 0
2, 95520, Note_on_c, 0, 96, 100
2, 95520, Note_on_c, 0, 98, 100
2, 95520, Note_on_c, 0, 84, 100
2, 95520, Note_on_c, 0, 86, 100
2, 95520, Note_on_c, 0, 60, 100
2, 95520, Note_on_c, 0, 73, 100
2, 95520, Note_on_c, 0, 72, 100
2, 95760, Note_on_c, 0, 96, 0
2, 95760, Note_on_c, 0, 98, 0
2, 95760, Note_on_c, 0, 84, 0
2, 95760, Note_on_c, 0, 86, 0
2, 95760, Note_on_c, 0, 60, 0
2, 95760, Note_on_c, 0, 73, 0
2, 95760, Note_on_c, 0, 72, 0
2, 97890, Text_t, "[lighting ()]"
2, 97920, Note_on_c, 0, 96, 100
2, 97920, Note_on_c, 0, 98, 100
2, 97920, Note_on_c, 0, 84, 100
2, 97920, Note_on_c, 0, 86, 100
2, 97920, Note_on_c, 0, 60, 100
2, 97920, Note_on_c, 0, 73, 100
2, 97920, Note_on_c, 0, 72, 100
2, 98160, Note_on_c, 0, 96, 0
2, 98160, Note_on_c, 0, 98, 0
2, 98160, Note_on_c, 0, 84, 0
2, 98160, Note_on_c, 0, 86, 0
2, 98160, Note_on_c, 0, 60, 0
2, 98160, Note_on_c, 0, 73, 0
2, 98160, Note_on_c, 0, 72, 0
2, 98400, Note_on_c, 0, 96, 100
2, 98400, Note_on_c, 0, 98, 100
2, 98400, Note_on_c, 0, 84, 100
2, 98400, Note_on_c, 0, 86, 100
2, 98400, Note_on_c, 0, 73, 100
2, 98400, Note_on_c, 0, 72, 100
2, 98640, Note_on_c, 0, 96, 0
2, 98640, Note_on_c, 0, 98, 0
2, 98640, Note_on_c, 0, 84, 0
2, 98640, Note_on_c, 0, 86, 0
2, 98640, Note_on_c, 0, 73, 0
2, 98640, Note_on_c, 0, 72, 0
2, 98880, Note_on_c, 0, 96, 100
2, 98880, Note_on_c, 0, 98, 100
2, 98880, Note_on_c, 0, 84, 100
2, 98880, Note_on_c, 0, 86, 100
2, 98880, Note_on_c, 0, 60, 100
2, 98880, Note_on_c, 0, 73, 100
2, 98880, Note_on_c, 0, 72, 100
2, 99120, Note_on_c, 0, 96, 0
2, 99120, Note_on_c, 0, 98, 0
2, 99120, Note_on_c, 0, 84, 0
2, 99120, Note_on_c, 0, 86, 0
2, 99120, Note_on_c, 0, 60, 0
2, 99120, Note_on_c, 0, 73, 0
2, 99120, Note_on_c, 0, 72, 0
2, 99810, Text_t, "[play]"
2, 99810, Text_t, "bass_on"
2, 99840, Note_on_c, 0, 96, 100
2, 99840, Note_on_c, 0, 98, 100
2, 99840, Note_on_c, 0, 84, 100
2, 99840, Note_on_c, 0, 86, 100
2, 99840, Note_on_c, 0, 60, 100
2, 99840, Note_on_c, 0, 73, 100
2, 99840, Note_on_c, 0, 72, 100
2, 100080, Note_on_c, 0, 96, 0
2, 100080, Note_on_c, 0, 98, 0
2, 100080, Note_on_c, 0, 84, 0
2, 100080, Note_on_c, 0, 86, 0
2, 100080, Note_on_c, 0, 60, 0
2, 100080, Note_on_c, 0, 73, 0
2, 100080, Note_on_c, 0, 72, 0
2, 100320, Note_on_c, 0, 96, 100
2, 100320, Note_on_c, 0, 84, 100
2, 100320, Note_on_c, 0, 72, 100
2, 100560, Note_on_c, 0, 96, 0
2, 100560, Note_on_c, 0, 84, 0
2, 100560, Note_on_c, 0, 72, 0
2, 100800, Note_on_c, 0, 96, 100
2, 100800, Note_on_c, 0, 98, 100
2, 100800, Note_on_c, 0, 84, 100
2, 100800, Note_on_c, 0, 86, 100
2, 100800, Note_on_c, 0, 60, 100
2, 100800, Note_on_c, 0, 73, 100
2, 100800, Note_on_c, 0, 72, 100
2, 101040, Note_on_c, 0, 96, 0
2, 101040, Note_on_c, 0, 98, 0
2, 101040, Note_on_c, 0, 84, 0
2, 101040, Note_on_c, 0, 86, 0
2, 101040, Note_on_c, 0, 60, 0
2, 101040, Note_on_c, 0, 73, 0
2, 101040, Note_on_c, 0, 72, 0
2, 102240, Note_on_c, 0, 96, 100
2, 102240, Note_on_c, 0, 98, 100
2, 102240, Note_on_c, 0, 84, 100
2, 102240, Note_on_c, 0, 86, 100
2, 102240, Note_on_c, 0, 60, 100
2, 102240, Note_on_c, 0, 73, 100
2, 102240, Note_on_c, 0, 72, 100
2, 102480, Note_on_c, 0, 96, 0
2, 102480, Note_on_c, 0, 98, 0
2, 102480, Note_on_c, 0, 84, 0
2, 102480, Note_on_c, 0, 86, 0
2, 102480, Note_on_c, 0, 60, 0
2, 102480, Note_on_c, 0, 73, 0
2, 102480, Note_on_c, 0, 72, 0
2, 102720, Note_on_c, 0, 96, 100
2, 102720, Note_on_c, 0, 84, 100
2, 102720, Note_on_c, 0, 72, 100
2, 102960, Note_on_c, 0, 96, 0
2, 102960, Note_on_c, 0, 84, 0
2, 102960, Note_on_c, 0, 72, 0
2, 103200, Note_on_c, 0, 96, 100
2, 103200, Note_on_c, 0, 98, 100
2, 103200, Note_on_c, 0, 84, 100
2, 103200, Note_on_c, 0, 86, 100
2, 103440, Note_on_c, 0, 96, 0
2, 103440, Note_on_c, 0, 98, 0
2, 103440, Note_on_c, 0, 84, 0
2, 103440, Note_on_c, 0, 86, 0
2, 103680, Note_on_c, 0, 96, 100
2, 103680, Note_on_c, 0, 98, 100
2, 103680, Note_on_c, 0, 84, 100
2, 103680, Note_on_c, 0, 86, 100
2, 103680, Note_on_c, 0, 60, 100
2, 103680, Note_on_c, 0, 73, 100
2, 103680, Note_on_c, 0, 72, 100
2, 103920, Note_on_c, 0, 96, 0
2, 103920, Note_on_c, 0, 98, 0
2, 103920, Note_on_c, 0, 84, 0
2, 103920, Note_on_c, 0, 86, 0
2, 103920, Note_on_c, 0, 60, 0
2, 103920, Note_on_c, 0, 73, 0
2, 103920, Note_on_c, 0, 72, 0
2, 104160, Note_on_c, 0, 96, 100
2, 104160, Note_on_c, 0, 98, 100
2, 104160, Note_on_c, 0, 84, 100
2, 104160, Note_on_c, 0, 86, 100
2, 104400, Note_on_c, 0, 96, 0
2, 104400, Note_on_c, 0, 98, 0
2, 104400, Note_on_c, 0, 84, 0
2, 104400, Note_on_c, 0, 86, 0
2, 104640, Note_on_c, 0, 96, 100
2, 104640, Note_on_c, 0, 98, 100
2, 104640, Note_on_c, 0, 84, 100
2, 104640, Note_on_c, 0, 86, 100
2, 104880, Note_on_c, 0, 96, 0
2, 104880, Note_on_c, 0, 98, 0
2, 104880, Note_on_c, 0, 84, 0
2, 104880, Note_on_c, 0, 86, 0
2, 105120, Note_on_c, 0, 97, 100
2, 105120, Note_on_c, 0, 98, 100
2, 105120, Note_on_c, 0, 85, 100
2, 105120, Note_on_c, 0, 86, 100
2, 105120, Note_on_c, 0, 61, 100
2, 105120, Note_on_c, 0, 74, 100
2, 105120, Note_on_c, 0, 72, 100
2, 105360, Note_on_c, 0, 97, 0
2, 105360, Note_on_c, 0, 98, 0
2, 105360, Note_on_c, 0, 85, 0
2, 105360, Note_on_c, 0, 86, 0
2, 105360, Note_on_c, 0, 61, 0
2, 105360, Note_on_c, 0, 74, 0
2, 105360, Note_on_c, 0, 72, 0
2, 105600, Note_on_c, 0, 97, 100
2, 105600, Note_on_c, 0, 98, 100
2, 105600, Note_on_c, 0, 85, 100
2, 105600, Note_on_c, 0, 86, 100
2, 105840, Note_on_c, 0, 97, 0
2, 105840, Note_on_c, 0, 98, 0
2, 105840, Note_on_c, 0, 85, 0
2, 105840, Note_on_c, 0, 86, 0
2, 106080, Note_on_c, 0, 97, 100
2, 106080, Note_on_c, 0, 98, 100
2, 106080, Note_on_c, 0, 85, 100
2, 106080, Note_on_c, 0, 86, 100
2, 106320, Note_on_c, 0, 97, 0
2, 106320, Note_on_c, 0, 98, 0
2, 106320, Note_on_c, 0, 85, 0
2, 106320, Note_on_c, 0, 86, 0
2, 106560, Note_on_c, 0, 97, 100
2, 106560, Note_on_c, 0, 99, 100
2, 106560, Note_on_c, 0, 87, 100
2, 106560, Note_on_c, 0, 62, 100
2, 106560, Note_on_c, 0, 75, 100
2, 106800, Note_on_c, 0, 97, 0
2, 106800, Note_on_c, 0, 99, 0
2, 106800, Note_on_c, 0, 87, 0
2, 106800, Note_on_c, 0, 62, 0
2, 106800, Note_on_c, 0, 75, 0
2, 107040, Note_on_c, 0, 97, 100
2, 107040, Note_on_c, 0, 99, 100
2, 107040, Note_on_c, 0, 87, 100
2, 107280, Note_on_c, 0, 97, 0
2, 107280, Note_on_c, 0, 99, 0
2, 107280, Note_on_c, 0, 87, 0
2, 107490, Note_on_c, 0, 106, 0
2, 107490, Note_on_c, 0, 94, 0
2, 107490, Note_on_c, 0, 70, 0
2, 107490, Note_on_c, 0, 82, 0
2, 107490, Note_on_c, 0, 105, 100
2, 107490, Note_on_c, 0, 93, 100
2, 107490, Note_on_c, 0, 69, 100
2, 107490, Note_on_c, 0, 81, 100
2, 107520, Note_on_c, 0, 96, 100
2, 107520, Note_on_c, 0, 98, 100
2, 107520, Note_on_c, 0, 84, 100
2, 107520, Note_on_c, 0, 86, 100
2, 107520, Note_on_c, 0, 60, 100
2, 107520, Note_on_c, 0, 73, 100
2, 107520, Note_on_c, 0, 72, 100
2, 107760, Note_on_c, 0, 96, 0
2, 107760, Note_on_c, 0, 98, 0
2, 107760, Note_on_c, 0, 84, 0
2, 107760, Note_on_c, 0, 86, 0
2, 107760, Note_on_c, 0, 60, 0
2, 107760, Note_on_c, 0, 73, 0
2, 107760, Note_on_c, 0, 72, 0
2, 108000, Note_on_c, 0, 96, 100
2, 108000, Note_on_c, 0, 98, 100
2, 108000, Note_on_c, 0, 84, 100
2, 108000, Note_on_c, 0, 86, 100
2, 108000, Note_on_c, 0, 73, 100
2, 108000, Note_on_c, 0, 72, 100
2, 108240, Note_on_c, 0, 96, 0
2, 108240, Note_on_c, 0, 98, 0
2, 108240, Note_on_c, 0, 84, 0
2, 108240, Note_on_c, 0, 86, 0
2, 108240, Note_on_c, 0, 73, 0
2, 108240, Note_on_c, 0, 72, 0
2, 108240, Note_on_c, 0, 108, 100
2, 108480, Note_on_c, 0, 96, 100
2, 108480, Note_on_c, 0, 98, 100
2, 108480, Note_on_c, 0, 84, 100
2, 108480, Note_on_c, 0, 86, 100
2, 108480, Note_on_c, 0, 60, 100
2, 108480, Note_on_c, 0, 73, 100
2, 108480, Note_on_c, 0, 72, 100
2, 108720, Note_on_c, 0, 96, 0
2, 108720, Note_on_c, 0, 98, 0
2, 108720, Note_on_c, 0, 84, 0
2, 108720, Note_on_c, 0, 86, 0
2, 108720, Note_on_c, 0, 60, 0
2, 108720, Note_on_c, 0, 73, 0
2, 108720, Note_on_c, 0, 72, 0
2, 109200, Note_on_c, 0, 108, 0
2, 109440, Note_on_c, 0, 108, 100
2, 109920, Note_on_c, 0, 96, 100
2, 109920, Note_on_c, 0, 98, 100
2, 109920, Note_on_c, 0, 84, 100
2, 109920, Note_on_c, 0, 86, 100
2, 109920, Note_on_c, 0, 60, 100
2, 109920, Note_on_c, 0, 73, 100
2, 109920, Note_on_c, 0, 72, 100
2, 110160, Note_on_c, 0, 108, 0
2, 110160, Note_on_c, 0, 96, 0
2, 110160, Note_on_c, 0, 98, 0
2, 110160, Note_on_c, 0, 84, 0
2, 110160, Note_on_c, 0, 86, 0
2, 110160, Note_on_c, 0, 60, 0
2, 110160, Note_on_c, 0, 73, 0
2, 110160, Note_on_c, 0, 72, 0
2, 110400, Note_on_c, 0, 96, 100
2, 110400, Note_on_c, 0, 84, 100
2, 110400, Note_on_c, 0, 108, 100
2, 110400, Note_on_c, 0, 72, 100
2, 110640, Note_on_c, 0, 96, 0
2, 110640, Note_on_c, 0, 84, 0
2, 110640, Note_on_c, 0, 72, 0
2, 110880, Note_on_c, 0, 108, 0
2, 110880, Note_on_c, 0, 96, 100
2, 110880, Note_on_c, 0, 98, 100
2, 110880, Note_on_c, 0, 84, 100
2, 110880, Note_on_c, 0, 86, 100
2, 110880, Note_on_c, 0, 60, 100
2, 110880, Note_on_c, 0, 73, 100
2, 110880, Note_on_c, 0, 72, 100
2, 111120, Note_on_c, 0, 96, 0
2, 111120, Note_on_c, 0, 98, 0
2, 111120, Note_on_c, 0, 84, 0
2, 111120, Note_on_c, 0, 86, 0
2, 111120, Note_on_c, 0, 60, 0
2, 111120, Note_on_c, 0, 73, 0
2, 111120, Note_on_c, 0, 72, 0
2, 111360, Note_on_c, 0, 108, 100
2, 112080, Note_on_c, 0, 108, 0
2, 112320, Note_on_c, 0, 108, 100
2, 112800, Note_on_c, 0, 108, 0
2, 113280, Note_on_c, 0, 96, 100
2, 113280, Note_on_c, 0, 98, 100
2, 113280, Note_on_c, 0, 84, 100
2, 113280, Note_on_c, 0, 86, 100
2, 113280, Note_on_c, 0, 60, 100
2, 113280, Note_on_c, 0, 108, 100
2, 113280, Note_on_c, 0, 73, 100
2, 113280, Note_on_c, 0, 72, 100
2, 113520, Note_on_c, 0, 96, 0
2, 113520, Note_on_c, 0, 98, 0
2, 113520, Note_on_c, 0, 84, 0
2, 113520, Note_on_c, 0, 86, 0
2, 113520, Note_on_c, 0, 60, 0
2, 113520, Note_on_c, 0, 73, 0
2, 113520, Note_on_c, 0, 72, 0
2, 113760, Note_on_c, 0, 108, 0
2, 113760, Note_on_c, 0, 96, 100
2, 113760, Note_on_c, 0, 98, 100
2, 113760, Note_on_c, 0, 84, 100
2, 113760, Note_on_c, 0, 86, 100
2, 113760, Note_on_c, 0, 73, 100
2, 113760, Note_on_c, 0, 72, 100
2, 114000, Note_on_c, 0, 96, 0
2, 114000, Note_on_c, 0, 98, 0
2, 114000, Note_on_c, 0, 84, 0
2, 114000, Note_on_c, 0, 86, 0
2, 114000, Note_on_c, 0, 73, 0
2, 114000, Note_on_c, 0, 72, 0
2, 114240, Note_on_c, 0, 96, 100
2, 114240, Note_on_c, 0, 98, 100
2, 114240, Note_on_c, 0, 84, 100
2, 114240, Note_on_c, 0, 86, 100
2, 114240, Note_on_c, 0, 60, 100
2, 114240, Note_on_c, 0, 108, 100
2, 114240, Note_on_c, 0, 73, 100
2, 114240, Note_on_c, 0, 72, 100
2, 114480, Note_on_c, 0, 96, 0
2, 114480, Note_on_c, 0, 98, 0
2, 114480, Note_on_c, 0, 84, 0
2, 114480, Note_on_c, 0, 86, 0
2, 114480, Note_on_c, 0, 60, 0
2, 114480, Note_on_c, 0, 73, 0
2, 114480, Note_on_c, 0, 72, 0
2, 114720, Note_on_c, 0, 108, 0
2, 115200, Note_on_c, 0, 96, 100
2, 115200, Note_on_c, 0, 98, 100
2, 115200, Note_on_c, 0, 84, 100
2, 115200, Note_on_c, 0, 86, 100
2, 115200, Note_on_c, 0, 60, 100
2, 115200, Note_on_c, 0, 108, 100
2, 115200, Note_on_c, 0, 73, 100
2, 115200, Note_on_c, 0, 72, 100
2, 115440, Note_on_c, 0, 96, 0
2, 115440, Note_on_c, 0, 98, 0
2, 115440, Note_on_c, 0, 84, 0
2, 115440, Note_on_c, 0, 86, 0
2, 115440, Note_on_c, 0, 60, 0
2, 115440, Note_on_c, 0, 73, 0
2, 115440, Note_on_c, 0, 72, 0
2, 115680, Note_on_c, 0, 96, 100
2, 115680, Note_on_c, 0, 84, 100
2, 115680, Note_on_c, 0, 72, 100
2, 115920, Note_on_c, 0, 108, 0
2, 115920, Note_on_c, 0, 96, 0
2, 115920, Note_on_c, 0, 84, 0
2, 115920, Note_on_c, 0, 72, 0
2, 116160, Note_on_c, 0, 96, 100
2, 116160, Note_on_c, 0, 98, 100
2, 116160, Note_on_c, 0, 84, 100
2, 116160, Note_on_c, 0, 86, 100
2, 116160, Note_on_c, 0, 60, 100
2, 116160, Note_on_c, 0, 108, 100
2, 116160, Note_on_c, 0, 73, 100
2, 116160, Note_on_c, 0, 72, 100
2, 116400, Note_on_c, 0, 96, 0
2, 116400, Note_on_c, 0, 98, 0
2, 116400, Note_on_c, 0, 84, 0
2, 116400, Note_on_c, 0, 86, 0
2, 116400, Note_on_c, 0, 60, 0
2, 116400, Note_on_c, 0, 73, 0
2, 116400, Note_on_c, 0, 72, 0
2, 117120, Note_on_c, 0, 108, 0
2, 117600, Note_on_c, 0, 96, 100
2, 117600, Note_on_c, 0, 98, 100
2, 117600, Note_on_c, 0, 84, 100
2, 117600, Note_on_c, 0, 86, 100
2, 117600, Note_on_c, 0, 60, 100
2, 117600, Note_on_c, 0, 73, 100
2, 117600, Note_on_c, 0, 72, 100
2, 117840, Note_on_c, 0, 96, 0
2, 117840, Note_on_c, 0, 98, 0
2, 117840, Note_on_c, 0, 84, 0
2, 117840, Note_on_c, 0, 86, 0
2, 117840, Note_on_c, 0, 60, 0
2, 117840, Note_on_c, 0, 73, 0
2, 117840, Note_on_c, 0, 72, 0
2, 118080, Note_on_c, 0, 96, 100
2, 118080, Note_on_c, 0, 84, 100
2, 118080, Note_on_c, 0, 108, 100
2, 118080, Note_on_c, 0, 72, 100
2, 118320, Note_on_c, 0, 96, 0
2, 118320, Note_on_c, 0, 84, 0
2, 118320, Note_on_c, 0, 72, 0
2, 118560, Note_on_c, 0, 96, 100
2, 118560, Note_on_c, 0, 98, 100
2, 118560, Note_on_c, 0, 84, 100
2, 118560, Note_on_c, 0, 86, 100
2, 118800, Note_on_c, 0, 96, 0
2, 118800, Note_on_c, 0, 98, 0
2, 118800, Note_on_c, 0, 84, 0
2, 118800, Note_on_c, 0, 86, 0
2, 119040, Note_on_c, 0, 96, 100
2, 119040, Note_on_c, 0, 98, 100
2, 119040, Note_on_c, 0, 84, 100
2, 119040, Note_on_c, 0, 86, 100
2, 119040, Note_on_c, 0, 60, 100
2, 119040, Note_on_c, 0, 73, 100
2, 119040, Note_on_c, 0, 72, 100
2, 119280, Note_on_c, 0, 96, 0
2, 119280, Note_on_c, 0, 98, 0
2, 119280, Note_on_c, 0, 84, 0
2, 119280, Note_on_c, 0, 86, 0
2, 119280, Note_on_c, 0, 60, 0
2, 119280, Note_on_c, 0, 73, 0
2, 119280, Note_on_c, 0, 72, 0
2, 119520, Note_on_c, 0, 108, 0
2, 119520, Note_on_c, 0, 96, 100
2, 119520, Note_on_c, 0, 98, 100
2, 119520, Note_on_c, 0, 84, 100
2, 119520, Note_on_c, 0, 86, 100
2, 119760, Note_on_c, 0, 96, 0
2, 119760, Note_on_c, 0, 98, 0
2, 119760, Note_on_c, 0, 84, 0
2, 119760, Note_on_c, 0, 86, 0
2, 120000, Note_on_c, 0, 96, 100
2, 120000, Note_on_c, 0, 98, 100
2, 120000, Note_on_c, 0, 84, 100
2, 120000, Note_on_c, 0, 86, 100
2, 120240, Note_on_c, 0, 96, 0
2, 120240, Note_on_c, 0, 98, 0
2, 120240, Note_on_c, 0, 84, 0
2, 120240, Note_on_c, 0, 86, 0
2, 120480, Note_on_c, 0, 97, 100
2, 120480, Note_on_c, 0, 98, 100
2, 120480, Note_on_c, 0, 85, 100
2, 120480, Note_on_c, 0, 86, 100
2, 120480, Note_on_c, 0, 61, 100
2, 120480, Note_on_c, 0, 74, 100
2, 120480, Note_on_c, 0, 72, 100
2, 120720, Note_on_c, 0, 97, 0
2, 120720, Note_on_c, 0, 98, 0
2, 120720, Note_on_c, 0, 85, 0
2, 120720, Note_on_c, 0, 86, 0
2, 120720, Note_on_c, 0, 61, 0
2, 120720, Note_on_c, 0, 74, 0
2, 120720, Note_on_c, 0, 72, 0
2, 120960, Note_on_c, 0, 97, 100
2, 120960, Note_on_c, 0, 98, 100
2, 120960, Note_on_c, 0, 85, 100
2, 120960, Note_on_c, 0, 86, 100
2, 121200, Note_on_c, 0, 97, 0
2, 121200, Note_on_c, 0, 98, 0
2, 121200, Note_on_c, 0, 85, 0
2, 121200, Note_on_c, 0, 86, 0
2, 121440, Note_on_c, 0, 97, 100
2, 121440, Note_on_c, 0, 98, 100
2, 121440, Note_on_c, 0, 85, 100
2, 121440, Note_on_c, 0, 86, 100
2, 121680, Note_on_c, 0, 97, 0
2, 121680, Note_on_c, 0, 98, 0
2, 121680, Note_on_c, 0, 85, 0
2, 121680, Note_on_c, 0, 86, 0
2, 121920, Note_on_c, 0, 97, 100
2, 121920, Note_on_c, 0, 99, 100
2, 121920, Note_on_c, 0, 87, 100
2, 121920, Note_on_c, 0, 62, 100
2, 121920, Note_on_c, 0, 75, 100
2, 122160, Note_on_c, 0, 97, 0
2, 122160, Note_on_c, 0, 99, 0
2, 122160, Note_on_c, 0, 87, 0
2, 122160, Note_on_c, 0, 62, 0
2, 122160, Note_on_c, 0, 75, 0
2, 122400, Note_on_c, 0, 97, 100
2, 122400, Note_on_c, 0, 99, 100
2, 122400, Note_on_c, 0, 87, 100
2, 122640, Note_on_c, 0, 97, 0
2, 122640, Note_on_c, 0, 99, 0
2, 122640, Note_on_c, 0, 87, 0
2, 122850, Note_on_c, 0, 105, 0
2, 122850, Note_on_c, 0, 93, 0
2, 122850, Note_on_c, 0, 69, 0
2, 122850, Note_on_c, 0, 81, 0
2, 122850, Note_on_c, 0, 106, 100
2, 122850, Note_on_c, 0, 94, 100
2, 122850, Note_on_c, 0, 70, 100
2, 122850, Note_on_c, 0, 82, 100
2, 122880, Note_on_c, 0, 96, 100
2, 122880, Note_on_c, 0, 98, 100
2, 122880, Note_on_c, 0, 84, 100
2, 122880, Note_on_c, 0, 86, 100
2, 122880, Note_on_c, 0, 60, 100
2, 122880, Note_on_c, 0, 73, 100
2, 122880, Note_on_c, 0, 72, 100
2, 123120, Note_on_c, 0, 96, 0
2, 123120, Note_on_c, 0, 98, 0
2, 123120, Note_on_c, 0, 84, 0
2, 123120, Note_on_c, 0, 86, 0
2, 123120, Note_on_c, 0, 60, 0
2, 123120, Note_on_c, 0, 73, 0
2, 123120, Note_on_c, 0, 72, 0
2, 123360, Note_on_c, 0, 96, 100
2, 123360, Note_on_c, 0, 98, 100
2, 123360, Note_on_c, 0, 84, 100
2, 123360, Note_on_c, 0, 86, 100
2, 123360, Note_on_c, 0, 73, 100
2, 123360, Note_on_c, 0, 72, 100
2, 123600, Note_on_c, 0, 96, 0
2, 123600, Note_on_c, 0, 98, 0
2, 123600, Note_on_c, 0, 84, 0
2, 123600, Note_on_c, 0, 86, 0
2, 123600, Note_on_c, 0, 73, 0
2, 123600, Note_on_c, 0, 72, 0
2, 123600, Note_on_c, 0, 108, 100
2, 123840, Note_on_c, 0, 96, 100
2, 123840, Note_on_c, 0, 98, 100
2, 123840, Note_on_c, 0, 84, 100
2, 123840, Note_on_c, 0, 86, 100
2, 123840, Note_on_c, 0, 60, 100
2, 123840, Note_on_c, 0, 73, 100
2, 123840, Note_on_c, 0, 72, 100
2, 124080, Note_on_c, 0, 96, 0
2, 124080, Note_on_c, 0, 98, 0
2, 124080, Note_on_c, 0, 84, 0
2, 124080, Note_on_c, 0, 86, 0
2, 124080, Note_on_c, 0, 60, 0
2, 124080, Note_on_c, 0, 73, 0
2, 124080, Note_on_c, 0, 72, 0
2, 124560, Note_on_c, 0, 108, 0
2, 124800, Note_on_c, 0, 108, 100
2, 125280, Note_on_c, 0, 96, 100
2, 125280, Note_on_c, 0, 98, 100
2, 125280, Note_on_c, 0, 84, 100
2, 125280, Note_on_c, 0, 86, 100
2, 125280, Note_on_c, 0, 60, 100
2, 125280, Note_on_c, 0, 73, 100
2, 125280, Note_on_c, 0, 72, 100
2, 125520, Note_on_c, 0, 108, 0
2, 125520, Note_on_c, 0, 96, 0
2, 125520, Note_on_c, 0, 98, 0
2, 125520, Note_on_c, 0, 84, 0
2, 125520, Note_on_c, 0, 86, 0
2, 125520, Note_on_c, 0, 60, 0
2, 125520, Note_on_c, 0, 73, 0
2, 125520, Note_on_c, 0, 72, 0
2, 125760, Note_on_c, 0, 96, 100
2, 125760, Note_on_c, 0, 84, 100
2, 125760, Note_on_c, 0, 108, 100
2, 125760, Note_on_c, 0, 72, 100
2, 126000, Note_on_c, 0, 96, 0
2, 126000, Note_on_c, 0, 84, 0
2, 126000, Note_on_c, 0, 72, 0
2, 126240, Note_on_c, 0, 108, 0
2, 126240, Note_on_c, 0, 96, 100
2, 126240, Note_on_c, 0, 98, 100
2, 126240, Note_on_c, 0, 84, 100
2, 126240, Note_on_c, 0, 86, 100
2, 126240, Note_on_c, 0, 60, 100
2, 126240, Note_on_c, 0, 73, 100
2, 126240, Note_on_c, 0, 72, 100
2, 126480, Note_on_c, 0, 96, 0
2, 126480, Note_on_c, 0, 98, 0
2, 126480, Note_on_c, 0, 84, 0
2, 126480, Note_on_c, 0, 86, 0
2, 126480, Note_on_c, 0, 60, 0
2, 126480, Note_on_c, 0, 73, 0
2, 126480, Note_on_c, 0, 72, 0
2, 126720, Note_on_c, 0, 108, 100
2, 127440, Note_on_c, 0, 108, 0
2, 127680, Note_on_c, 0, 108, 100
2, 128160, Note_on_c, 0, 108, 0
2, 128640, Note_on_c, 0, 96, 100
2, 128640, Note_on_c, 0, 98, 100
2, 128640, Note_on_c, 0, 84, 100
2, 128640, Note_on_c, 0, 86, 100
2, 128640, Note_on_c, 0, 60, 100
2, 128640, Note_on_c, 0, 108, 100
2, 128640, Note_on_c, 0, 73, 100
2, 128640, Note_on_c, 0, 72, 100
2, 128880, Note_on_c, 0, 96, 0
2, 128880, Note_on_c, 0, 98, 0
2, 128880, Note_on_c, 0, 84, 0
2, 128880, Note_on_c, 0, 86, 0
2, 128880, Note_on_c, 0, 60, 0
2, 128880, Note_on_c, 0, 73, 0
2, 128880, Note_on_c, 0, 72, 0
2, 129120, Note_on_c, 0, 108, 0
2, 129120, Note_on_c, 0, 96, 100
2, 129120, Note_on_c, 0, 98, 100
2, 129120, Note_on_c, 0, 84, 100
2, 129120, Note_on_c, 0, 86, 100
2, 129120, Note_on_c, 0, 73, 100
2, 129120, Note_on_c, 0, 72, 100
2, 129360, Note_on_c, 0, 96, 0
2, 129360, Note_on_c, 0, 98, 0
2, 129360, Note_on_c, 0, 84, 0
2, 129360, Note_on_c, 0, 86, 0
2, 129360, Note_on_c, 0, 73, 0
2, 129360, Note_on_c, 0, 72, 0
2, 129600, Note_on_c, 0, 96, 100
2, 129600, Note_on_c, 0, 98, 100
2, 129600, Note_on_c, 0, 84, 100
2, 129600, Note_on_c, 0, 86, 100
2, 129600, Note_on_c, 0, 60, 100
2, 129600, Note_on_c, 0, 108, 100
2, 129600, Note_on_c, 0, 73, 100
2, 129600, Note_on_c, 0, 72, 100
2, 129840, Note_on_c, 0, 96, 0
2, 129840, Note_on_c, 0, 98, 0
2, 129840, Note_on_c, 0, 84, 0
2, 129840, Note_on_c, 0, 86, 0
2, 129840, Note_on_c, 0, 60, 0
2, 129840, Note_on_c, 0, 73, 0
2, 129840, Note_on_c, 0, 72, 0
2, 130080, Note_on_c, 0, 108, 0
2, 130530, Text_t, "sing_on"
2, 130560, Note_on_c, 0, 96, 100
2, 130560, Note_on_c, 0, 98, 100
2, 130560, Note_on_c, 0, 84, 100
2, 130560, Note_on_c, 0, 86, 100
2, 130560, Note_on_c, 0, 60, 100
2, 130560, Note_on_c, 0, 108, 100
2, 130560, Note_on_c, 0, 73, 100
2, 130560, Note_on_c, 0, 72, 100
2, 130800, Note_on_c, 0, 96, 0
2, 130800, Note_on_c, 0, 98, 0
2, 130800, Note_on_c, 0, 84, 0
2, 130800, Note_on_c, 0, 86, 0
2, 130800, Note_on_c, 0, 60, 0
2, 130800, Note_on_c, 0, 73, 0
2, 130800, Note_on_c, 0, 72, 0
2, 131040, Note_on_c, 0, 96, 100
2, 131040, Note_on_c, 0, 84, 100
2, 131040, Note_on_c, 0, 72, 100
2, 131280, Note_on_c, 0, 108, 0
2, 131280, Note_on_c, 0, 96, 0
2, 131280, Note_on_c, 0, 84, 0
2, 131280, Note_on_c, 0, 72, 0
2, 131520, Note_on_c, 0, 96, 100
2, 131520, Note_on_c, 0, 98, 100
2, 131520, Note_on_c, 0, 84, 100
2, 131520, Note_on_c, 0, 86, 100
2, 131520, Note_on_c, 0, 60, 100
2, 131520, Note_on_c, 0, 108, 100
2, 131520, Note_on_c, 0, 73, 100
2, 131520, Note_on_c, 0, 72, 100
2, 131760, Note_on_c, 0, 96, 0
2, 131760, Note_on_c, 0, 98, 0
2, 131760, Note_on_c, 0, 84, 0
2, 131760, Note_on_c, 0, 86, 0
2, 131760, Note_on_c, 0, 60, 0
2, 131760, Note_on_c, 0, 73, 0
2, 131760, Note_on_c, 0, 72, 0
2, 132720, Note_on_c, 0, 108, 0
2, 132960, Note_on_c, 0, 96, 100
2, 132960, Note_on_c, 0, 98, 100
2, 132960, Note_on_c, 0, 84, 100
2, 132960, Note_on_c, 0, 86, 100
2, 132960, Note_on_c, 0, 60, 100
2, 132960, Note_on_c, 0, 73, 100
2, 132960, Note_on_c, 0, 72, 100
2, 133200, Note_on_c, 0, 96, 0
2, 133200, Note_on_c, 0, 98, 0
2, 133200, Note_on_c, 0, 84, 0
2, 133200, Note_on_c, 0, 86, 0
2, 133200, Note_on_c, 0, 60, 0
2, 133200, Note_on_c, 0, 73, 0
2, 133200, Note_on_c, 0, 72, 0
2, 133440, Note_on_c, 0, 96, 100
2, 133440, Note_on_c, 0, 84, 100
2, 133440, Note_on_c, 0, 72, 100
2, 133680, Note_on_c, 0, 96, 0
2, 133680, Note_on_c, 0, 84, 0
2, 133680, Note_on_c, 0, 72, 0
2, 133920, Note_on_c, 0, 96, 100
2, 133920, Note_on_c, 0, 98, 100
2, 133920, Note_on_c, 0, 84, 100
2, 133920, Note_on_c, 0, 86, 100
2, 134160, Note_on_c, 0, 96, 0
2, 134160, Note_on_c, 0, 98, 0
2, 134160, Note_on_c, 0, 84, 0
2, 134160, Note_on_c, 0, 86, 0
2, 134400, Note_on_c, 0, 96, 100
2, 134400, Note_on_c, 0, 98, 100
2, 134400, Note_on_c, 0, 84, 100
2, 134400, Note_on_c, 0, 86, 100
2, 134400, Note_on_c, 0, 60, 100
2, 134400, Note_on_c, 0, 73, 100
2, 134400, Note_on_c, 0, 72, 100
2, 134640, Note_on_c, 0, 96, 0
2, 134640, Note_on_c, 0, 98, 0
2, 134640, Note_on_c, 0, 84, 0
2, 134640, Note_on_c, 0, 86, 0
2, 134640, Note_on_c, 0, 60, 0
2, 134640, Note_on_c, 0, 73, 0
2, 134640, Note_on_c, 0, 72, 0
2, 134880, Note_on_c, 0, 96, 100
2, 134880, Note_on_c, 0, 98, 100
2, 134880, Note_on_c, 0, 84, 100
2, 134880, Note_on_c, 0, 86, 100
2, 135120, Note_on_c, 0, 96, 0
2, 135120, Note_on_c, 0, 98, 0
2, 135120, Note_on_c, 0, 84, 0
2, 135120, Note_on_c, 0, 86, 0
2, 135360, Note_on_c, 0, 96, 100
2, 135360, Note_on_c, 0, 98, 100
2, 135360, Note_on_c, 0, 84, 100
2, 135360, Note_on_c, 0, 86, 100
2, 135600, Note_on_c, 0, 96, 0
2, 135600, Note_on_c, 0, 98, 0
2, 135600, Note_on_c, 0, 84, 0
2, 135600, Note_on_c, 0, 86, 0
2, 135840, Note_on_c, 0, 97, 100
2, 135840, Note_on_c, 0, 98, 100
2, 135840, Note_on_c, 0, 85, 100
2, 135840, Note_on_c, 0, 86, 100
2, 135840, Note_on_c, 0, 61, 100
2, 135840, Note_on_c, 0, 74, 100
2, 135840, Note_on_c, 0, 72, 100
2, 136080, Note_on_c, 0, 97, 0
2, 136080, Note_on_c, 0, 98, 0
2, 136080, Note_on_c, 0, 85, 0
2, 136080, Note_on_c, 0, 86, 0
2, 136080, Note_on_c, 0, 61, 0
2, 136080, Note_on_c, 0, 74, 0
2, 136080, Note_on_c, 0, 72, 0
2, 136320, Note_on_c, 0, 97, 100
2, 136320, Note_on_c, 0, 98, 100
2, 136320, Note_on_c, 0, 85, 100
2, 136320, Note_on_c, 0, 86, 100
2, 136560, Note_on_c, 0, 97, 0
2, 136560, Note_on_c, 0, 98, 0
2, 136560, Note_on_c, 0, 85, 0
2, 136560, Note_on_c, 0, 86, 0
2, 136800, Note_on_c, 0, 97, 100
2, 136800, Note_on_c, 0, 98, 100
2, 136800, Note_on_c, 0, 85, 100
2, 136800, Note_on_c, 0, 86, 100
2, 137040, Note_on_c, 0, 97, 0
2, 137040, Note_on_c, 0, 98, 0
2, 137040, Note_on_c, 0, 85, 0
2, 137040, Note_on_c, 0, 86, 0
2, 137280, Note_on_c, 0, 97, 100
2, 137280, Note_on_c, 0, 99, 100
2, 137280, Note_on_c, 0, 87, 100
2, 137280, Note_on_c, 0, 62, 100
2, 137280, Note_on_c, 0, 75, 100
2, 137520, Note_on_c, 0, 97, 0
2, 137520, Note_on_c, 0, 99, 0
2, 137520, Note_on_c, 0, 87, 0
2, 137520, Note_on_c, 0, 62, 0
2, 137520, Note_on_c, 0, 75, 0
2, 137760, Note_on_c, 0, 97, 100
2, 137760, Note_on_c, 0, 99, 100
2, 137760, Note_on_c, 0, 87, 100
2, 138000, Note_on_c, 0, 97, 0
2, 138000, Note_on_c, 0, 99, 0
2, 138000, Note_on_c, 0, 87, 0
2, 138210, Note_on_c, 0, 106, 0
2, 138210, Note_on_c, 0, 94, 0
2, 138210, Note_on_c, 0, 70, 0
2, 138210, Note_on_c, 0, 82, 0
2, 138210, Note_on_c, 0, 105, 100
2, 138210, Note_on_c, 0, 93, 100
2, 138210, Note_on_c, 0, 69, 100
2, 138210, Note_on_c, 0, 81, 100
2, 138240, Note_on_c, 0, 96, 100
2, 138240, Note_on_c, 0, 98, 100
2, 138240, Note_on_c, 0, 84, 100
2, 138240, Note_on_c, 0, 86, 100
2, 138240, Note_on_c, 0, 60, 100
2, 138240, Note_on_c, 0, 73, 100
2, 138240, Note_on_c, 0, 72, 100
2, 138480, Note_on_c, 0, 96, 0
2, 138480, Note_on_c, 0, 98, 0
2, 138480, Note_on_c, 0, 84, 0
2, 138480, Note_on_c, 0, 86, 0
2, 138480, Note_on_c, 0, 60, 0
2, 138480, Note_on_c, 0, 73, 0
2, 138480, Note_on_c, 0, 72, 0
2, 138720, Note_on_c, 0, 96, 100
2, 138720, Note_on_c, 0, 98, 100
2, 138720, Note_on_c, 0, 84, 100
2, 138720, Note_on_c, 0, 86, 100
2, 138720, Note_on_c, 0, 73, 100
2, 138720, Note_on_c, 0, 72, 100
2, 138960, Note_on_c, 0, 96, 0
2, 138960, Note_on_c, 0, 98, 0
2, 138960, Note_on_c, 0, 84, 0
2, 138960, Note_on_c, 0, 86, 0
2, 138960, Note_on_c, 0, 73, 0
2, 138960, Note_on_c, 0, 72, 0
2, 138960, Note_on_c, 0, 108, 100
2, 139200, Note_on_c, 0, 96, 100
2, 139200, Note_on_c, 0, 98, 100
2, 139200, Note_on_c, 0, 84, 100
2, 139200, Note_on_c, 0, 86, 100
2, 139200, Note_on_c, 0, 60, 100
2, 139200, Note_on_c, 0, 73, 100
2, 139200, Note_on_c, 0, 72, 100
2, 139440, Note_on_c, 0, 96, 0
2, 139440, Note_on_c, 0, 98, 0
2, 139440, Note_on_c, 0, 84, 0
2, 139440, Note_on_c, 0, 86, 0
2, 139440, Note_on_c, 0, 60, 0
2, 139440, Note_on_c, 0, 73, 0
2, 139440, Note_on_c, 0, 72, 0
2, 139920, Note_on_c, 0, 108, 0
2, 140160, Note_on_c, 0, 108, 100
2, 140640, Note_on_c, 0, 96, 100
2, 140640, Note_on_c, 0, 98, 100
2, 140640, Note_on_c, 0, 84, 100
2, 140640, Note_on_c, 0, 86, 100
2, 140640, Note_on_c, 0, 60, 100
2, 140640, Note_on_c, 0, 73, 100
2, 140640, Note_on_c, 0, 72, 100
2, 140880, Note_on_c, 0, 108, 0
2, 140880, Note_on_c, 0, 96, 0
2, 140880, Note_on_c, 0, 98, 0
2, 140880, Note_on_c, 0, 84, 0
2, 140880, Note_on_c, 0, 86, 0
2, 140880, Note_on_c, 0, 60, 0
2, 140880, Note_on_c, 0, 73, 0
2, 140880, Note_on_c, 0, 72, 0
2, 141120, Note_on_c, 0, 96, 100
2, 141120, Note_on_c, 0, 84, 100
2, 141120, Note_on_c, 0, 108, 100
2, 141120, Note_on_c, 0, 72, 100
2, 141360, Note_on_c, 0, 96, 0
2, 141360, Note_on_c, 0, 84, 0
2, 141360, Note_on_c, 0, 72, 0
2, 141600, Note_on_c, 0, 108, 0
2, 141600, Note_on_c, 0, 96, 100
2, 141600, Note_on_c, 0, 98, 100
2, 141600, Note_on_c, 0, 84, 100
2, 141600, Note_on_c, 0, 86, 100
2, 141600, Note_on_c, 0, 60, 100
2, 141600, Note_on_c, 0, 73, 100
2, 141600, Note_on_c, 0, 72, 100
2, 141840, Note_on_c, 0, 96, 0
2, 141840, Note_on_c, 0, 98, 0
2, 141840, Note_on_c, 0, 84, 0
2, 141840, Note_on_c, 0, 86, 0
2, 141840, Note_on_c, 0, 60, 0
2, 141840, Note_on_c, 0, 73, 0
2, 141840, Note_on_c, 0, 72, 0
2, 142080, Note_on_c, 0, 108, 100
2, 142800, Note_on_c, 0, 108, 0
2, 143040, Note_on_c, 0, 108, 100
2, 143520, Note_on_c, 0, 108, 0
2, 144000, Note_on_c, 0, 96, 100
2, 144000, Note_on_c, 0, 98, 100
2, 144000, Note_on_c, 0, 84, 100
2, 144000, Note_on_c, 0, 86, 100
2, 144000, Note_on_c, 0, 60, 100
2, 144000, Note_on_c, 0, 108, 100
2, 144000, Note_on_c, 0, 73, 100
2, 144000, Note_on_c, 0, 72, 100
2, 144240, Note_on_c, 0, 96, 0
2, 144240, Note_on_c, 0, 98, 0
2, 144240, Note_on_c, 0, 84, 0
2, 144240, Note_on_c, 0, 86, 0
2, 144240, Note_on_c, 0, 60, 0
2, 144240, Note_on_c, 0, 73, 0
2, 144240, Note_on_c, 0, 72, 0
2, 144480, Note_on_c, 0, 108, 0
2, 144480, Note_on_c, 0, 96, 100
2, 144480, Note_on_c, 0, 98, 100
2, 144480, Note_on_c, 0, 84, 100
2, 144480, Note_on_c, 0, 86, 100
2, 144480, Note_on_c, 0, 73, 100
2, 144480, Note_on_c, 0, 72, 100
2, 144720, Note_on_c, 0, 96, 0
2, 144720, Note_on_c, 0, 98, 0
2, 144720, Note_on_c, 0, 84, 0
2, 144720, Note_on_c, 0, 86, 0
2, 144720, Note_on_c, 0, 73, 0
2, 144720, Note_on_c, 0, 72, 0
2, 144960, Note_on_c, 0, 96, 100
2, 144960, Note_on_c, 0, 98, 100
2, 144960, Note_on_c, 0, 84, 100
2, 144960, Note_on_c, 0, 86, 100
2, 144960, Note_on_c, 0, 60, 100
2, 144960, Note_on_c, 0, 108, 100
2, 144960, Note_on_c, 0, 73, 100
2, 144960, Note_on_c, 0, 72, 100
2, 145200, Note_on_c, 0, 96, 0
2, 145200, Note_on_c, 0, 98, 0
2, 145200, Note_on_c, 0, 84, 0
2, 145200, Note_on_c, 0, 86, 0
2, 145200, Note_on_c, 0, 60, 0
2, 145200, Note_on_c, 0, 73, 0
2, 145200, Note_on_c, 0, 72, 0
2, 145440, Note_on_c, 0, 108, 0
2, 145920, Note_on_c, 0, 96, 100
2, 145920, Note_on_c, 0, 98, 100
2, 145920, Note_on_c, 0, 84, 100
2, 145920, Note_on_c, 0, 86, 100
2, 145920, Note_on_c, 0, 60, 100
2, 145920, Note_on_c, 0, 108, 100
2, 145920, Note_on_c, 0, 73, 100
2, 145920, Note_on_c, 0, 72, 100
2, 146160, Note_on_c, 0, 96, 0
2, 146160, Note_on_c, 0, 98, 0
2, 146160, Note_on_c, 0, 84, 0
2, 146160, Note_on_c, 0, 86, 0
2, 146160, Note_on_c, 0, 60, 0
2, 146160, Note_on_c, 0, 73, 0
2, 146160, Note_on_c, 0, 72, 0
2, 146400, Note_on_c, 0, 96, 100
2, 146400, Note_on_c, 0, 84, 100
2, 146400, Note_on_c, 0, 72, 100
2, 146640, Note_on_c, 0, 108, 0
2, 146640, Note_on_c, 0, 96, 0
2, 146640, Note_on_c, 0, 84, 0
2, 146640, Note_on_c, 0, 72, 0
2, 146880, Note_on_c, 0, 96, 100
2, 146880, Note_on_c, 0, 98, 100
2, 146880, Note_on_c, 0, 84, 100
2, 146880, Note_on_c, 0, 86, 100
2, 146880, Note_on_c, 0, 60, 100
2, 146880, Note_on_c, 0, 108, 100
2, 146880, Note_on_c, 0, 73, 100
2, 146880, Note_on_c, 0, 72, 100
2, 147120, Note_on_c, 0, 96, 0
2, 147120, Note_on_c, 0, 98, 0
2, 147120, Note_on_c, 0, 84, 0
2, 147120, Note_on_c, 0, 86, 0
2, 147120, Note_on_c, 0, 60, 0
2, 147120, Note_on_c, 0, 73, 0
2, 147120, Note_on_c, 0, 72, 0
2, 148320, Note_on_c, 0, 96, 100
2, 148320, Note_on_c, 0, 98, 100
2, 148320, Note_on_c, 0, 84, 100
2, 148320, Note_on_c, 0, 86, 100
2, 148320, Note_on_c, 0, 60, 100
2, 148320, Note_on_c, 0, 73, 100
2, 148320, Note_on_c, 0, 72, 100
2, 148560, Note_on_c, 0, 96, 0
2, 148560, Note_on_c, 0, 98, 0
2, 148560, Note_on_c, 0, 84, 0
2, 148560, Note_on_c, 0, 86, 0
2, 148560, Note_on_c, 0, 60, 0
2, 148560, Note_on_c, 0, 73, 0
2, 148560, Note_on_c, 0, 72, 0
2, 148640, Note_on_c, 0, 108, 0
2, 148800, Note_on_c, 0, 96, 100
2, 148800, Note_on_c, 0, 84, 100
2, 148800, Note_on_c, 0, 108, 100
2, 148800, Note_on_c, 0, 72, 100
2, 149040, Note_on_c, 0, 96, 0
2, 149040, Note_on_c, 0, 84, 0
2, 149040, Note_on_c, 0, 72, 0
2, 149280, Note_on_c, 0, 96, 100
2, 149280, Note_on_c, 0, 98, 100
2, 149280, Note_on_c, 0, 84, 100
2, 149280, Note_on_c, 0, 86, 100
2, 149520, Note_on_c, 0, 96, 0
2, 149520, Note_on_c, 0, 98, 0
2, 149520, Note_on_c, 0, 84, 0
2, 149520, Note_on_c, 0, 86, 0
2, 149760, Note_on_c, 0, 96, 100
2, 149760, Note_on_c, 0, 98, 100
2, 149760, Note_on_c, 0, 84, 100
2, 149760, Note_on_c, 0, 86, 100
2, 149760, Note_on_c, 0, 60, 100
2, 149760, Note_on_c, 0, 73, 100
2, 149760, Note_on_c, 0, 72, 100
2, 150000, Note_on_c, 0, 96, 0
2, 150000, Note_on_c, 0, 98, 0
2, 150000, Note_on_c, 0, 84, 0
2, 150000, Note_on_c, 0, 86, 0
2, 150000, Note_on_c, 0, 60, 0
2, 150000, Note_on_c, 0, 73, 0
2, 150000, Note_on_c, 0, 72, 0
2, 150240, Note_on_c, 0, 96, 100
2, 150240, Note_on_c, 0, 98, 100
2, 150240, Note_on_c, 0, 84, 100
2, 150240, Note_on_c, 0, 86, 100
2, 150480, Note_on_c, 0, 96, 0
2, 150480, Note_on_c, 0, 98, 0
2, 150480, Note_on_c, 0, 84, 0
2, 150480, Note_on_c, 0, 86, 0
2, 150720, Note_on_c, 0, 108, 0
2, 150720, Note_on_c, 0, 96, 100
2, 150720, Note_on_c, 0, 98, 100
2, 150720, Note_on_c, 0, 84, 100
2, 150720, Note_on_c, 0, 86, 100
2, 150960, Note_on_c, 0, 96, 0
2, 150960, Note_on_c, 0, 98, 0
2, 150960, Note_on_c, 0, 84, 0
2, 150960, Note_on_c, 0, 86, 0
2, 151200, Note_on_c, 0, 97, 100
2, 151200, Note_on_c, 0, 98, 100
2, 151200, Note_on_c, 0, 85, 100
2, 151200, Note_on_c, 0, 86, 100
2, 151200, Note_on_c, 0, 61, 100
2, 151200, Note_on_c, 0, 74, 100
2, 151200, Note_on_c, 0, 72, 100
2, 151440, Note_on_c, 0, 97, 0
2, 151440, Note_on_c, 0, 98, 0
2, 151440, Note_on_c, 0, 85, 0
2, 151440, Note_on_c, 0, 86, 0
2, 151440, Note_on_c, 0, 61, 0
2, 151440, Note_on_c, 0, 74, 0
2, 151440, Note_on_c, 0, 72, 0
2, 151680, Note_on_c, 0, 97, 100
2, 151680, Note_on_c, 0, 98, 100
2, 151680, Note_on_c, 0, 85, 100
2, 151680, Note_on_c, 0, 86, 100
2, 151920, Note_on_c, 0, 97, 0
2, 151920, Note_on_c, 0, 98, 0
2, 151920, Note_on_c, 0, 85, 0
2, 151920, Note_on_c, 0, 86, 0
2, 152160, Note_on_c, 0, 97, 100
2, 152160, Note_on_c, 0, 98, 100
2, 152160, Note_on_c, 0, 85, 100
2, 152160, Note_on_c, 0, 86, 100
2, 152400, Note_on_c, 0, 97, 0
2, 152400, Note_on_c, 0, 98, 0
2, 152400, Note_on_c, 0, 85, 0
2, 152400, Note_on_c, 0, 86, 0
2, 152640, Note_on_c, 0, 97, 100
2, 152640, Note_on_c, 0, 99, 100
2, 152640, Note_on_c, 0, 87, 100
2, 152640, Note_on_c, 0, 62, 100
2, 152640, Note_on_c, 0, 75, 100
2, 152880, Note_on_c, 0, 97, 0
2, 152880, Note_on_c, 0, 99, 0
2, 152880, Note_on_c, 0, 87, 0
2, 152880, Note_on_c, 0, 62, 0
2, 152880, Note_on_c, 0, 75, 0
2, 153120, Note_on_c, 0, 97, 100
2, 153120, Note_on_c, 0, 99, 100
2, 153120, Note_on_c, 0, 87, 100
2, 153360, Note_on_c, 0, 97, 0
2, 153360, Note_on_c, 0, 99, 0
2, 153360, Note_on_c, 0, 87, 0
2, 153570, Note_on_c, 0, 105, 0
2, 153570, Note_on_c, 0, 93, 0
2, 153570, Note_on_c, 0, 69, 0
2, 153570, Note_on_c, 0, 81, 0
2, 153570, Note_on_c, 0, 106, 100
2, 153570, Note_on_c, 0, 94, 100
2, 153570, Note_on_c, 0, 70, 100
2, 153570, Note_on_c, 0, 82, 100
2, 153600, Note_on_c, 0, 96, 100
2, 153600, Note_on_c, 0, 98, 100
2, 153600, Note_on_c, 0, 84, 100
2, 153600, Note_on_c, 0, 86, 100
2, 153600, Note_on_c, 0, 60, 100
2, 153600, Note_on_c, 0, 73, 100
2, 153600, Note_on_c, 0, 72, 100
2, 153840, Note_on_c, 0, 96, 0
2, 153840, Note_on_c, 0, 98, 0
2, 153840, Note_on_c, 0, 84, 0
2, 153840, Note_on_c, 0, 86, 0
2, 153840, Note_on_c, 0, 60, 0
2, 153840, Note_on_c, 0, 73, 0
2, 153840, Note_on_c, 0, 72, 0
2, 154080, Note_on_c, 0, 96, 100
2, 154080, Note_on_c, 0, 98, 100
2, 154080, Note_on_c, 0, 84, 100
2, 154080, Note_on_c, 0, 86, 100
2, 154080, Note_on_c, 0, 73, 100
2, 154080, Note_on_c, 0, 72, 100
2, 154320, Note_on_c, 0, 96, 0
2, 154320, Note_on_c, 0, 98, 0
2, 154320, Note_on_c, 0, 84, 0
2, 154320, Note_on_c, 0, 86, 0
2, 154320, Note_on_c, 0, 73, 0
2, 154320, Note_on_c, 0, 72, 0
2, 154320, Note_on_c, 0, 108, 100
2, 154560, Note_on_c, 0, 96, 100
2, 154560, Note_on_c, 0, 98, 100
2, 154560, Note_on_c, 0, 84, 100
2, 154560, Note_on_c, 0, 86, 100
2, 154560, Note_on_c, 0, 60, 100
2, 154560, Note_on_c, 0, 73, 100
2, 154560, Note_on_c, 0, 72, 100
2, 154800, Note_on_c, 0, 96, 0
2, 154800, Note_on_c, 0, 98, 0
2, 154800, Note_on_c, 0, 84, 0
2, 154800, Note_on_c, 0, 86, 0
2, 154800, Note_on_c, 0, 60, 0
2, 154800, Note_on_c, 0, 73, 0
2, 154800, Note_on_c, 0, 72, 0
2, 155280, Note_on_c, 0, 108, 0
2, 155520, Note_on_c, 0, 108, 100
2, 156000, Note_on_c, 0, 108, 0
2, 156000, Note_on_c, 0, 96, 100
2, 156000, Note_on_c, 0, 98, 100
2, 156000, Note_on_c, 0, 84, 100
2, 156000, Note_on_c, 0, 86, 100
2, 156000, Note_on_c, 0, 60, 100
2, 156000, Note_on_c, 0, 73, 100
2, 156000, Note_on_c, 0, 72, 100
2, 156240, Note_on_c, 0, 96, 0
2, 156240, Note_on_c, 0, 98, 0
2, 156240, Note_on_c, 0, 84, 0
2, 156240, Note_on_c, 0, 86, 0
2, 156240, Note_on_c, 0, 60, 0
2, 156240, Note_on_c, 0, 73, 0
2, 156240, Note_on_c, 0, 72, 0
2, 156480, Note_on_c, 0, 96, 100
2, 156480, Note_on_c, 0, 84, 100
2, 156480, Note_on_c, 0, 108, 100
2, 156480, Note_on_c, 0, 72, 100
2, 156720, Note_on_c, 0, 96, 0
2, 156720, Note_on_c, 0, 84, 0
2, 156720, Note_on_c, 0, 72, 0
2, 156960, Note_on_c, 0, 108, 0
2, 156960, Note_on_c, 0, 96, 100
2, 156960, Note_on_c, 0, 98, 100
2, 156960, Note_on_c, 0, 84, 100
2, 156960, Note_on_c, 0, 86, 100
2, 156960, Note_on_c, 0, 60, 100
2, 156960, Note_on_c, 0, 73, 100
2, 156960, Note_on_c, 0, 72, 100
2, 157200, Note_on_c, 0, 96, 0
2, 157200, Note_on_c, 0, 98, 0
2, 157200, Note_on_c, 0, 84, 0
2, 157200, Note_on_c, 0, 86, 0
2, 157200, Note_on_c, 0, 60, 0
2, 157200, Note_on_c, 0, 73, 0
2, 157200, Note_on_c, 0, 72, 0
2, 157440, Note_on_c, 0, 108, 100
2, 157920, Note_on_c, 0, 108, 0
2, 158400, Note_on_c, 0, 108, 100
2, 158880, Note_on_c, 0, 108, 0
2, 159360, Note_on_c, 0, 96, 100
2, 159360, Note_on_c, 0, 98, 100
2, 159360, Note_on_c, 0, 84, 100
2, 159360, Note_on_c, 0, 86, 100
2, 159360, Note_on_c, 0, 60, 100
2, 159360, Note_on_c, 0, 108, 100
2, 159360, Note_on_c, 0, 73, 100
2, 159360, Note_on_c, 0, 72, 100
2, 159600, Note_on_c, 0, 96, 0
2, 159600, Note_on_c, 0, 98, 0
2, 159600, Note_on_c, 0, 84, 0
2, 159600, Note_on_c, 0, 86, 0
2, 159600, Note_on_c, 0, 60, 0
2, 159600, Note_on_c, 0, 73, 0
2, 159600, Note_on_c, 0, 72, 0
2, 159840, Note_on_c, 0, 108, 0
2, 159840, Note_on_c, 0, 96, 100
2, 159840, Note_on_c, 0, 98, 100
2, 159840, Note_on_c, 0, 84, 100
2, 159840, Note_on_c, 0, 86, 100
2, 159840, Note_on_c, 0, 73, 100
2, 159840, Note_on_c, 0, 72, 100
2, 160080, Note_on_c, 0, 96, 0
2, 160080, Note_on_c, 0, 98, 0
2, 160080, Note_on_c, 0, 84, 0
2, 160080, Note_on_c, 0, 86, 0
2, 160080, Note_on_c, 0, 73, 0
2, 160080, Note_on_c, 0, 72, 0
2, 160320, Note_on_c, 0, 96, 100
2, 160320, Note_on_c, 0, 98, 100
2, 160320, Note_on_c, 0, 84, 100
2, 160320, Note_on_c, 0, 86, 100
2, 160320, Note_on_c, 0, 60, 100
2, 160320, Note_on_c, 0, 108, 100
2, 160320, Note_on_c, 0, 73, 100
2, 160320, Note_on_c, 0, 72, 100
2, 160560, Note_on_c, 0, 96, 0
2, 160560, Note_on_c, 0, 98, 0
2, 160560, Note_on_c, 0, 84, 0
2, 160560, Note_on_c, 0, 86, 0
2, 160560, Note_on_c, 0, 60, 0
2, 160560, Note_on_c, 0, 73, 0
2, 160560, Note_on_c, 0, 72, 0
2, 160800, Note_on_c, 0, 108, 0
2, 161280, Note_on_c, 0, 96, 100
2, 161280, Note_on_c, 0, 98, 100
2, 161280, Note_on_c, 0, 84, 100
2, 161280, Note_on_c, 0, 86, 100
2, 161280, Note_on_c, 0, 60, 100
2, 161280, Note_on_c, 0, 108, 100
2, 161280, Note_on_c, 0, 73, 100
2, 161280, Note_on_c, 0, 72, 100
2, 161520, Note_on_c, 0, 96, 0
2, 161520, Note_on_c, 0, 98, 0
2, 161520, Note_on_c, 0, 84, 0
2, 161520, Note_on_c, 0, 86, 0
2, 161520, Note_on_c, 0, 60, 0
2, 161520, Note_on_c, 0, 73, 0
2, 161520, Note_on_c, 0, 72, 0
2, 161760, Note_on_c, 0, 96, 100
2, 161760, Note_on_c, 0, 84, 100
2, 161760, Note_on_c, 0, 72, 100
2, 162000, Note_on_c, 0, 108, 0
2, 162000, Note_on_c, 0, 96, 0
2, 162000, Note_on_c, 0, 84, 0
2, 162000, Note_on_c, 0, 72, 0
2, 162240, Note_on_c, 0, 96, 100
2, 162240, Note_on_c, 0, 98, 100
2, 162240, Note_on_c, 0, 84, 100
2, 162240, Note_on_c, 0, 86, 100
2, 162240, Note_on_c, 0, 60, 100
2, 162240, Note_on_c, 0, 108, 100
2, 162240, Note_on_c, 0, 73, 100
2, 162240, Note_on_c, 0, 72, 100
2, 162480, Note_on_c, 0, 96, 0
2, 162480, Note_on_c, 0, 98, 0
2, 162480, Note_on_c, 0, 84, 0
2, 162480, Note_on_c, 0, 86, 0
2, 162480, Note_on_c, 0, 60, 0
2, 162480, Note_on_c, 0, 73, 0
2, 162480, Note_on_c, 0, 72, 0
2, 163200, Note_on_c, 0, 108, 0
2, 163680, Note_on_c, 0, 96, 100
2, 163680, Note_on_c, 0, 98, 100
2, 163680, Note_on_c, 0, 84, 100
2, 163680, Note_on_c, 0, 86, 100
2, 163680, Note_on_c, 0, 60, 100
2, 163680, Note_on_c, 0, 73, 100
2, 163680, Note_on_c, 0, 72, 100
2, 163920, Note_on_c, 0, 96, 0
2, 163920, Note_on_c, 0, 98, 0
2, 163920, Note_on_c, 0, 84, 0
2, 163920, Note_on_c, 0, 86, 0
2, 163920, Note_on_c, 0, 60, 0
2, 163920, Note_on_c, 0, 73, 0
2, 163920, Note_on_c, 0, 72, 0
2, 164160, Note_on_c, 0, 96, 100
2, 164160, Note_on_c, 0, 84, 100
2, 164160, Note_on_c, 0, 72, 100
2, 164400, Note_on_c, 0, 96, 0
2, 164400, Note_on_c, 0, 84, 0
2, 164400, Note_on_c, 0, 72, 0
2, 164640, Note_on_c, 0, 96, 100
2, 164640, Note_on_c, 0, 98, 100
2, 164640, Note_on_c, 0, 84, 100
2, 164640, Note_on_c, 0, 86, 100
2, 164880, Note_on_c, 0, 96, 0
2, 164880, Note_on_c, 0, 98, 0
2, 164880, Note_on_c, 0, 84, 0
2, 164880, Note_on_c, 0, 86, 0
2, 165090, Note_on_c, 0, 103, 100
2, 165090, Note_on_c, 0, 91, 100
2, 165090, Note_on_c, 0, 67, 100
2, 165090, Note_on_c, 0, 79, 100
2, 165120, Note_on_c, 0, 96, 100
2, 165120, Note_on_c, 0, 98, 100
2, 165120, Note_on_c, 0, 84, 100
2, 165120, Note_on_c, 0, 86, 100
2, 165120, Note_on_c, 0, 60, 100
2, 165120, Note_on_c, 0, 73, 100
2, 165120, Note_on_c, 0, 72, 100
2, 165360, Note_on_c, 0, 96, 0
2, 165360, Note_on_c, 0, 98, 0
2, 165360, Note_on_c, 0, 84, 0
2, 165360, Note_on_c, 0, 86, 0
2, 165360, Note_on_c, 0, 60, 0
2, 165360, Note_on_c, 0, 73, 0
2, 165360, Note_on_c, 0, 72, 0
2, 165600, Note_on_c, 0, 96, 100
2, 165600, Note_on_c, 0, 98, 100
2, 165600, Note_on_c, 0, 84, 100
2, 165600, Note_on_c, 0, 86, 100
2, 165840, Note_on_c, 0, 96, 0
2, 165840, Note_on_c, 0, 98, 0
2, 165840, Note_on_c, 0, 84, 0
2, 165840, Note_on_c, 0, 86, 0
2, 166080, Note_on_c, 0, 96, 100
2, 166080, Note_on_c, 0, 98, 100
2, 166080, Note_on_c, 0, 84, 100
2, 166080, Note_on_c, 0, 86, 100
2, 166320, Note_on_c, 0, 96, 0
2, 166320, Note_on_c, 0, 98, 0
2, 166320, Note_on_c, 0, 84, 0
2, 166320, Note_on_c, 0, 86, 0
2, 166560, Note_on_c, 0, 97, 100
2, 166560, Note_on_c, 0, 98, 100
2, 166560, Note_on_c, 0, 85, 100
2, 166560, Note_on_c, 0, 86, 100
2, 166560, Note_on_c, 0, 61, 100
2, 166560, Note_on_c, 0, 74, 100
2, 166560, Note_on_c, 0, 72, 100
2, 166800, Note_on_c, 0, 97, 0
2, 166800, Note_on_c, 0, 98, 0
2, 166800, Note_on_c, 0, 85, 0
2, 166800, Note_on_c, 0, 86, 0
2, 166800, Note_on_c, 0, 61, 0
2, 166800, Note_on_c, 0, 74, 0
2, 166800, Note_on_c, 0, 72, 0
2, 167040, Note_on_c, 0, 97, 100
2, 167040, Note_on_c, 0, 98, 100
2, 167040, Note_on_c, 0, 85, 100
2, 167040, Note_on_c, 0, 86, 100
2, 167280, Note_on_c, 0, 97, 0
2, 167280, Note_on_c, 0, 98, 0
2, 167280, Note_on_c, 0, 85, 0
2, 167280, Note_on_c, 0, 86, 0
2, 167520, Note_on_c, 0, 97, 100
2, 167520, Note_on_c, 0, 98, 100
2, 167520, Note_on_c, 0, 85, 100
2, 167520, Note_on_c, 0, 86, 100
2, 167760, Note_on_c, 0, 97, 0
2, 167760, Note_on_c, 0, 98, 0
2, 167760, Note_on_c, 0, 85, 0
2, 167760, Note_on_c, 0, 86, 0
2, 168000, Note_on_c, 0, 97, 100
2, 168000, Note_on_c, 0, 99, 100
2, 168000, Note_on_c, 0, 87, 100
2, 168000, Note_on_c, 0, 62, 100
2, 168000, Note_on_c, 0, 75, 100
2, 168240, Note_on_c, 0, 97, 0
2, 168240, Note_on_c, 0, 99, 0
2, 168240, Note_on_c, 0, 87, 0
2, 168240, Note_on_c, 0, 62, 0
2, 168240, Note_on_c, 0, 75, 0
2, 168480, Note_on_c, 0, 97, 100
2, 168480, Note_on_c, 0, 99, 100
2, 168480, Note_on_c, 0, 87, 100
2, 168690, Note_on_c, 0, 103, 0
2, 168690, Note_on_c, 0, 91, 0
2, 168690, Note_on_c, 0, 67, 0
2, 168690, Note_on_c, 0, 79, 0
2, 168720, Note_on_c, 0, 97, 0
2, 168720, Note_on_c, 0, 99, 0
2, 168720, Note_on_c, 0, 87, 0
2, 168930, Note_on_c, 0, 105, 100
2, 168930, Note_on_c, 0, 93, 100
2, 168930, Note_on_c, 0, 69, 100
2, 168930, Note_on_c, 0, 81, 100
2, 168960, Note_on_c, 0, 96, 100
2, 168960, Note_on_c, 0, 84, 100
2, 168960, Note_on_c, 0, 72, 100
2, 168960, Note_on_c, 0, 60, 100
2, 168960, Note_on_c, 0, 97, 100
2, 168960, Note_on_c, 0, 85, 100
2, 169200, Note_on_c, 0, 96, 0
2, 169200, Note_on_c, 0, 84, 0
2, 169200, Note_on_c, 0, 72, 0
2, 169200, Note_on_c, 0, 60, 0
2, 169200, Note_on_c, 0, 97, 0
2, 169200, Note_on_c, 0, 85, 0
2, 169440, Note_on_c, 0, 96, 100
2, 169440, Note_on_c, 0, 84, 100
2, 169440, Note_on_c, 0, 97, 100
2, 169440, Note_on_c, 0, 85, 100
2, 169440, Note_on_c, 0, 72, 100
2, 169680, Note_on_c, 0, 96, 0
2, 169680, Note_on_c, 0, 84, 0
2, 169680, Note_on_c, 0, 97, 0
2, 169680, Note_on_c, 0, 85, 0
2, 169680, Note_on_c, 0, 72, 0
2, 169920, Note_on_c, 0, 96, 100
2, 169920, Note_on_c, 0, 84, 100
2, 169920, Note_on_c, 0, 97, 100
2, 169920, Note_on_c, 0, 85, 100
2, 169920, Note_on_c, 0, 60, 100
2, 169920, Note_on_c, 0, 72, 100
2, 170160, Note_on_c, 0, 96, 0
2, 170160, Note_on_c, 0, 84, 0
2, 170160, Note_on_c, 0, 97, 0
2, 170160, Note_on_c, 0, 85, 0
2, 170160, Note_on_c, 0, 60, 0
2, 170160, Note_on_c, 0, 72, 0
2, 170400, Note_on_c, 0, 96, 100
2, 170400, Note_on_c, 0, 84, 100
2, 170400, Note_on_c, 0, 97, 100
2, 170400, Note_on_c, 0, 85, 100
2, 170400, Note_on_c, 0, 72, 100
2, 170640, Note_on_c, 0, 96, 0
2, 170640, Note_on_c, 0, 84, 0
2, 170640, Note_on_c, 0, 97, 0
2, 170640, Note_on_c, 0, 85, 0
2, 170640, Note_on_c, 0, 72, 0
2, 170880, Note_on_c, 0, 96, 100
2, 170880, Note_on_c, 0, 84, 100
2, 170880, Note_on_c, 0, 72, 100
2, 170880, Note_on_c, 0, 97, 100
2, 170880, Note_on_c, 0, 85, 100
2, 170880, Note_on_c, 0, 60, 100
2, 170880, Note_on_c, 0, 108, 100
2, 171120, Note_on_c, 0, 96, 0
2, 171120, Note_on_c, 0, 84, 0
2, 171120, Note_on_c, 0, 72, 0
2, 171120, Note_on_c, 0, 97, 0
2, 171120, Note_on_c, 0, 85, 0
2, 171120, Note_on_c, 0, 60, 0
2, 171360, Note_on_c, 0, 96, 100
2, 171360, Note_on_c, 0, 84, 100
2, 171360, Note_on_c, 0, 97, 100
2, 171360, Note_on_c, 0, 85, 100
2, 171360, Note_on_c, 0, 72, 100
2, 171600, Note_on_c, 0, 96, 0
2, 171600, Note_on_c, 0, 84, 0
2, 171600, Note_on_c, 0, 97, 0
2, 171600, Note_on_c, 0, 85, 0
2, 171600, Note_on_c, 0, 72, 0
2, 171840, Note_on_c, 0, 96, 100
2, 171840, Note_on_c, 0, 84, 100
2, 171840, Note_on_c, 0, 72, 100
2, 171840, Note_on_c, 0, 97, 100
2, 171840, Note_on_c, 0, 85, 100
2, 171840, Note_on_c, 0, 60, 100
2, 172080, Note_on_c, 0, 96, 0
2, 172080, Note_on_c, 0, 84, 0
2, 172080, Note_on_c, 0, 72, 0
2, 172080, Note_on_c, 0, 97, 0
2, 172080, Note_on_c, 0, 85, 0
2, 172080, Note_on_c, 0, 60, 0
2, 172320, Note_on_c, 0, 96, 100
2, 172320, Note_on_c, 0, 84, 100
2, 172320, Note_on_c, 0, 97, 100
2, 172320, Note_on_c, 0, 85, 100
2, 172560, Note_on_c, 0, 108, 0
2, 172560, Note_on_c, 0, 96, 0
2, 172560, Note_on_c, 0, 84, 0
2, 172560, Note_on_c, 0, 97, 0
2, 172560, Note_on_c, 0, 85, 0
2, 172800, Note_on_c, 0, 96, 100
2, 172800, Note_on_c, 0, 84, 100
2, 172800, Note_on_c, 0, 60, 100
2, 172800, Note_on_c, 0, 97, 100
2, 172800, Note_on_c, 0, 85, 100
2, 172800, Note_on_c, 0, 72, 100
2, 172800, Note_on_c, 0, 108, 100
2, 173040, Note_on_c, 0, 96, 0
2, 173040, Note_on_c, 0, 84, 0
2, 173040, Note_on_c, 0, 60, 0
2, 173040, Note_on_c, 0, 97, 0
2, 173040, Note_on_c, 0, 85, 0
2, 173040, Note_on_c, 0, 72, 0
2, 173280, Note_on_c, 0, 96, 100
2, 173280, Note_on_c, 0, 84, 100
2, 173280, Note_on_c, 0, 97, 100
2, 173280, Note_on_c, 0, 85, 100
2, 173280, Note_on_c, 0, 72, 100
2, 173520, Note_on_c, 0, 96, 0
2, 173520, Note_on_c, 0, 84, 0
2, 173520, Note_on_c, 0, 97, 0
2, 173520, Note_on_c, 0, 85, 0
2, 173520, Note_on_c, 0, 72, 0
2, 173760, Note_on_c, 0, 96, 100
2, 173760, Note_on_c, 0, 84, 100
2, 173760, Note_on_c, 0, 97, 100
2, 173760, Note_on_c, 0, 85, 100
2, 173760, Note_on_c, 0, 72, 100
2, 173760, Note_on_c, 0, 60, 100
2, 174000, Note_on_c, 0, 96, 0
2, 174000, Note_on_c, 0, 84, 0
2, 174000, Note_on_c, 0, 97, 0
2, 174000, Note_on_c, 0, 85, 0
2, 174000, Note_on_c, 0, 72, 0
2, 174000, Note_on_c, 0, 60, 0
2, 174240, Note_on_c, 0, 108, 0
2, 174240, Note_on_c, 0, 96, 100
2, 174240, Note_on_c, 0, 84, 100
2, 174240, Note_on_c, 0, 97, 100
2, 174240, Note_on_c, 0, 85, 100
2, 174240, Note_on_c, 0, 72, 100
2, 174480, Note_on_c, 0, 96, 0
2, 174480, Note_on_c, 0, 84, 0
2, 174480, Note_on_c, 0, 97, 0
2, 174480, Note_on_c, 0, 85, 0
2, 174480, Note_on_c, 0, 72, 0
2, 174720, Note_on_c, 0, 96, 100
2, 174720, Note_on_c, 0, 84, 100
2, 174720, Note_on_c, 0, 60, 100
2, 174720, Note_on_c, 0, 97, 100
2, 174720, Note_on_c, 0, 85, 100
2, 174720, Note_on_c, 0, 72, 100
2, 174720, Note_on_c, 0, 108, 100
2, 174960, Note_on_c, 0, 96, 0
2, 174960, Note_on_c, 0, 84, 0
2, 174960, Note_on_c, 0, 60, 0
2, 174960, Note_on_c, 0, 97, 0
2, 174960, Note_on_c, 0, 85, 0
2, 174960, Note_on_c, 0, 72, 0
2, 175200, Note_on_c, 0, 96, 100
2, 175200, Note_on_c, 0, 84, 100
2, 175200, Note_on_c, 0, 97, 100
2, 175200, Note_on_c, 0, 85, 100
2, 175200, Note_on_c, 0, 72, 100
2, 175440, Note_on_c, 0, 96, 0
2, 175440, Note_on_c, 0, 84, 0
2, 175440, Note_on_c, 0, 97, 0
2, 175440, Note_on_c, 0, 85, 0
2, 175440, Note_on_c, 0, 72, 0
2, 175680, Note_on_c, 0, 96, 100
2, 175680, Note_on_c, 0, 84, 100
2, 175680, Note_on_c, 0, 97, 100
2, 175680, Note_on_c, 0, 85, 100
2, 175680, Note_on_c, 0, 72, 100
2, 175680, Note_on_c, 0, 60, 100
2, 175920, Note_on_c, 0, 108, 0
2, 175920, Note_on_c, 0, 96, 0
2, 175920, Note_on_c, 0, 84, 0
2, 175920, Note_on_c, 0, 97, 0
2, 175920, Note_on_c, 0, 85, 0
2, 175920, Note_on_c, 0, 72, 0
2, 175920, Note_on_c, 0, 60, 0
2, 176160, Note_on_c, 0, 96, 100
2, 176160, Note_on_c, 0, 84, 100
2, 176160, Note_on_c, 0, 97, 100
2, 176160, Note_on_c, 0, 85, 100
2, 176400, Note_on_c, 0, 96, 0
2, 176400, Note_on_c, 0, 84, 0
2, 176400, Note_on_c, 0, 97, 0
2, 176400, Note_on_c, 0, 85, 0
2, 176640, Note_on_c, 0, 98, 100
2, 176640, Note_on_c, 0, 86, 100
2, 176640, Note_on_c, 0, 61, 100
2, 176640, Note_on_c, 0, 84, 100
2, 176640, Note_on_c, 0, 96, 100
2, 176640, Note_on_c, 0, 73, 100
2, 176880, Note_on_c, 0, 98, 0
2, 176880, Note_on_c, 0, 86, 0
2, 176880, Note_on_c, 0, 61, 0
2, 176880, Note_on_c, 0, 84, 0
2, 176880, Note_on_c, 0, 96, 0
2, 176880, Note_on_c, 0, 73, 0
2, 177120, Note_on_c, 0, 98, 100
2, 177120, Note_on_c, 0, 86, 100
2, 177120, Note_on_c, 0, 84, 100
2, 177120, Note_on_c, 0, 96, 100
2, 177120, Note_on_c, 0, 73, 100
2, 177360, Note_on_c, 0, 98, 0
2, 177360, Note_on_c, 0, 86, 0
2, 177360, Note_on_c, 0, 84, 0
2, 177360, Note_on_c, 0, 96, 0
2, 177360, Note_on_c, 0, 73, 0
2, 177600, Note_on_c, 0, 98, 100
2, 177600, Note_on_c, 0, 86, 100
2, 177600, Note_on_c, 0, 84, 100
2, 177600, Note_on_c, 0, 96, 100
2, 177600, Note_on_c, 0, 73, 100
2, 177600, Note_on_c, 0, 61, 100
2, 177840, Note_on_c, 0, 98, 0
2, 177840, Note_on_c, 0, 86, 0
2, 177840, Note_on_c, 0, 84, 0
2, 177840, Note_on_c, 0, 96, 0
2, 177840, Note_on_c, 0, 73, 0
2, 177840, Note_on_c, 0, 61, 0
2, 178080, Note_on_c, 0, 98, 100
2, 178080, Note_on_c, 0, 86, 100
2, 178080, Note_on_c, 0, 84, 100
2, 178080, Note_on_c, 0, 96, 100
2, 178080, Note_on_c, 0, 73, 100
2, 178320, Note_on_c, 0, 98, 0
2, 178320, Note_on_c, 0, 86, 0
2, 178320, Note_on_c, 0, 84, 0
2, 178320, Note_on_c, 0, 96, 0
2, 178320, Note_on_c, 0, 73, 0
2, 178560, Note_on_c, 0, 98, 100
2, 178560, Note_on_c, 0, 86, 100
2, 178560, Note_on_c, 0, 61, 100
2, 178560, Note_on_c, 0, 84, 100
2, 178560, Note_on_c, 0, 96, 100
2, 178560, Note_on_c, 0, 73, 100
2, 178560, Note_on_c, 0, 108, 100
2, 178800, Note_on_c, 0, 98, 0
2, 178800, Note_on_c, 0, 86, 0
2, 178800, Note_on_c, 0, 61, 0
2, 178800, Note_on_c, 0, 84, 0
2, 178800, Note_on_c, 0, 96, 0
2, 178800, Note_on_c, 0, 73, 0
2, 179040, Note_on_c, 0, 98, 100
2, 179040, Note_on_c, 0, 86, 100
2, 179040, Note_on_c, 0, 84, 100
2, 179040, Note_on_c, 0, 96, 100
2, 179040, Note_on_c, 0, 73, 100
2, 179280, Note_on_c, 0, 98, 0
2, 179280, Note_on_c, 0, 86, 0
2, 179280, Note_on_c, 0, 84, 0
2, 179280, Note_on_c, 0, 96, 0
2, 179280, Note_on_c, 0, 73, 0
2, 179520, Note_on_c, 0, 98, 100
2, 179520, Note_on_c, 0, 86, 100
2, 179520, Note_on_c, 0, 84, 100
2, 179520, Note_on_c, 0, 96, 100
2, 179520, Note_on_c, 0, 73, 100
2, 179520, Note_on_c, 0, 61, 100
2, 179760, Note_on_c, 0, 98, 0
2, 179760, Note_on_c, 0, 86, 0
2, 179760, Note_on_c, 0, 84, 0
2, 179760, Note_on_c, 0, 96, 0
2, 179760, Note_on_c, 0, 73, 0
2, 179760, Note_on_c, 0, 61, 0
2, 180000, Note_on_c, 0, 98, 100
2, 180000, Note_on_c, 0, 86, 100
2, 180000, Note_on_c, 0, 84, 100
2, 180000, Note_on_c, 0, 96, 100
2, 180240, Note_on_c, 0, 108, 0
2, 180240, Note_on_c, 0, 98, 0
2, 180240, Note_on_c, 0, 86, 0
2, 180240, Note_on_c, 0, 84, 0
2, 180240, Note_on_c, 0, 96, 0
2, 180480, Note_on_c, 0, 98, 100
2, 180480, Note_on_c, 0, 86, 100
2, 180480, Note_on_c, 0, 61, 100
2, 180480, Note_on_c, 0, 84, 100
2, 180480, Note_on_c, 0, 96, 100
2, 180480, Note_on_c, 0, 73, 100
2, 180480, Note_on_c, 0, 108, 100
2, 180720, Note_on_c, 0, 98, 0
2, 180720, Note_on_c, 0, 86, 0
2, 180720, Note_on_c, 0, 61, 0
2, 180720, Note_on_c, 0, 84, 0
2, 180720, Note_on_c, 0, 96, 0
2, 180720, Note_on_c, 0, 73, 0
2, 180960, Note_on_c, 0, 98, 100
2, 180960, Note_on_c, 0, 86, 100
2, 180960, Note_on_c, 0, 84, 100
2, 180960, Note_on_c, 0, 96, 100
2, 180960, Note_on_c, 0, 73, 100
2, 181200, Note_on_c, 0, 98, 0
2, 181200, Note_on_c, 0, 86, 0
2, 181200, Note_on_c, 0, 84, 0
2, 181200, Note_on_c, 0, 96, 0
2, 181200, Note_on_c, 0, 73, 0
2, 181440, Note_on_c, 0, 98, 100
2, 181440, Note_on_c, 0, 86, 100
2, 181440, Note_on_c, 0, 84, 100
2, 181440, Note_on_c, 0, 96, 100
2, 181440, Note_on_c, 0, 73, 100
2, 181440, Note_on_c, 0, 61, 100
2, 181680, Note_on_c, 0, 98, 0
2, 181680, Note_on_c, 0, 86, 0
2, 181680, Note_on_c, 0, 84, 0
2, 181680, Note_on_c, 0, 96, 0
2, 181680, Note_on_c, 0, 73, 0
2, 181680, Note_on_c, 0, 61, 0
2, 181920, Note_on_c, 0, 98, 100
2, 181920, Note_on_c, 0, 86, 100
2, 181920, Note_on_c, 0, 84, 100
2, 181920, Note_on_c, 0, 96, 100
2, 181920, Note_on_c, 0, 73, 100
2, 182160, Note_on_c, 0, 108, 0
2, 182160, Note_on_c, 0, 98, 0
2, 182160, Note_on_c, 0, 86, 0
2, 182160, Note_on_c, 0, 84, 0
2, 182160, Note_on_c, 0, 96, 0
2, 182160, Note_on_c, 0, 73, 0
2, 182400, Note_on_c, 0, 98, 100
2, 182400, Note_on_c, 0, 86, 100
2, 182400, Note_on_c, 0, 61, 100
2, 182400, Note_on_c, 0, 84, 100
2, 182400, Note_on_c, 0, 96, 100
2, 182400, Note_on_c, 0, 73, 100
2, 182400, Note_on_c, 0, 108, 100
2, 182640, Note_on_c, 0, 98, 0
2, 182640, Note_on_c, 0, 86, 0
2, 182640, Note_on_c, 0, 61, 0
2, 182640, Note_on_c, 0, 84, 0
2, 182640, Note_on_c, 0, 96, 0
2, 182640, Note_on_c, 0, 73, 0
2, 182880, Note_on_c, 0, 98, 100
2, 182880, Note_on_c, 0, 86, 100
2, 182880, Note_on_c, 0, 84, 100
2, 182880, Note_on_c, 0, 96, 100
2, 182880, Note_on_c, 0, 73, 100
2, 183120, Note_on_c, 0, 98, 0
2, 183120, Note_on_c, 0, 86, 0
2, 183120, Note_on_c, 0, 84, 0
2, 183120, Note_on_c, 0, 96, 0
2, 183120, Note_on_c, 0, 73, 0
2, 183360, Note_on_c, 0, 98, 100
2, 183360, Note_on_c, 0, 86, 100
2, 183360, Note_on_c, 0, 73, 100
2, 183360, Note_on_c, 0, 84, 100
2, 183360, Note_on_c, 0, 96, 100
2, 183360, Note_on_c, 0, 61, 100
2, 183600, Note_on_c, 0, 108, 0
2, 183600, Note_on_c, 0, 98, 0
2, 183600, Note_on_c, 0, 86, 0
2, 183600, Note_on_c, 0, 73, 0
2, 183600, Note_on_c, 0, 84, 0
2, 183600, Note_on_c, 0, 96, 0
2, 183600, Note_on_c, 0, 61, 0
2, 183840, Note_on_c, 0, 98, 100
2, 183840, Note_on_c, 0, 86, 100
2, 183840, Note_on_c, 0, 84, 100
2, 183840, Note_on_c, 0, 96, 100
2, 184080, Note_on_c, 0, 98, 0
2, 184080, Note_on_c, 0, 86, 0
2, 184080, Note_on_c, 0, 84, 0
2, 184080, Note_on_c, 0, 96, 0
2, 184320, Note_on_c, 0, 99, 100
2, 184320, Note_on_c, 0, 100, 100
2, 184320, Note_on_c, 0, 86, 100
2, 184320, Note_on_c, 0, 87, 100
2, 184320, Note_on_c, 0, 74, 100
2, 184320, Note_on_c, 0, 62, 100
2, 184560, Note_on_c, 0, 99, 0
2, 184560, Note_on_c, 0, 100, 0
2, 184560, Note_on_c, 0, 86, 0
2, 184560, Note_on_c, 0, 87, 0
2, 184560, Note_on_c, 0, 74, 0
2, 184560, Note_on_c, 0, 62, 0
2, 184800, Note_on_c, 0, 99, 100
2, 184800, Note_on_c, 0, 100, 100
2, 184800, Note_on_c, 0, 86, 100
2, 184800, Note_on_c, 0, 87, 100
2, 184800, Note_on_c, 0, 74, 100
2, 185040, Note_on_c, 0, 99, 0
2, 185040, Note_on_c, 0, 100, 0
2, 185040, Note_on_c, 0, 86, 0
2, 185040, Note_on_c, 0, 87, 0
2, 185040, Note_on_c, 0, 74, 0
2, 185280, Note_on_c, 0, 99, 100
2, 185280, Note_on_c, 0, 100, 100
2, 185280, Note_on_c, 0, 86, 100
2, 185280, Note_on_c, 0, 87, 100
2, 185280, Note_on_c, 0, 74, 100
2, 185280, Note_on_c, 0, 62, 100
2, 185520, Note_on_c, 0, 99, 0
2, 185520, Note_on_c, 0, 100, 0
2, 185520, Note_on_c, 0, 86, 0
2, 185520, Note_on_c, 0, 87, 0
2, 185520, Note_on_c, 0, 74, 0
2, 185520, Note_on_c, 0, 62, 0
2, 185760, Note_on_c, 0, 99, 100
2, 185760, Note_on_c, 0, 100, 100
2, 185760, Note_on_c, 0, 86, 100
2, 185760, Note_on_c, 0, 87, 100
2, 185760, Note_on_c, 0, 74, 100
2, 186000, Note_on_c, 0, 99, 0
2, 186000, Note_on_c, 0, 100, 0
2, 186000, Note_on_c, 0, 86, 0
2, 186000, Note_on_c, 0, 87, 0
2, 186000, Note_on_c, 0, 74, 0
2, 186240, Note_on_c, 0, 99, 100
2, 186240, Note_on_c, 0, 100, 100
2, 186240, Note_on_c, 0, 86, 100
2, 186240, Note_on_c, 0, 87, 100
2, 186240, Note_on_c, 0, 74, 100
2, 186240, Note_on_c, 0, 62, 100
2, 186240, Note_on_c, 0, 108, 100
2, 186480, Note_on_c, 0, 99, 0
2, 186480, Note_on_c, 0, 100, 0
2, 186480, Note_on_c, 0, 86, 0
2, 186480, Note_on_c, 0, 87, 0
2, 186480, Note_on_c, 0, 74, 0
2, 186480, Note_on_c, 0, 62, 0
2, 186720, Note_on_c, 0, 99, 100
2, 186720, Note_on_c, 0, 100, 100
2, 186720, Note_on_c, 0, 86, 100
2, 186720, Note_on_c, 0, 87, 100
2, 186720, Note_on_c, 0, 74, 100
2, 186960, Note_on_c, 0, 99, 0
2, 186960, Note_on_c, 0, 100, 0
2, 186960, Note_on_c, 0, 86, 0
2, 186960, Note_on_c, 0, 87, 0
2, 186960, Note_on_c, 0, 74, 0
2, 187200, Note_on_c, 0, 99, 100
2, 187200, Note_on_c, 0, 100, 100
2, 187200, Note_on_c, 0, 86, 100
2, 187200, Note_on_c, 0, 87, 100
2, 187200, Note_on_c, 0, 74, 100
2, 187200, Note_on_c, 0, 62, 100
2, 187440, Note_on_c, 0, 99, 0
2, 187440, Note_on_c, 0, 100, 0
2, 187440, Note_on_c, 0, 86, 0
2, 187440, Note_on_c, 0, 87, 0
2, 187440, Note_on_c, 0, 74, 0
2, 187440, Note_on_c, 0, 62, 0
2, 187680, Note_on_c, 0, 99, 100
2, 187680, Note_on_c, 0, 100, 100
2, 187680, Note_on_c, 0, 86, 100
2, 187680, Note_on_c, 0, 87, 100
2, 187920, Note_on_c, 0, 108, 0
2, 187920, Note_on_c, 0, 99, 0
2, 187920, Note_on_c, 0, 100, 0
2, 187920, Note_on_c, 0, 86, 0
2, 187920, Note_on_c, 0, 87, 0
2, 188160, Note_on_c, 0, 99, 100
2, 188160, Note_on_c, 0, 100, 100
2, 188160, Note_on_c, 0, 86, 100
2, 188160, Note_on_c, 0, 87, 100
2, 188160, Note_on_c, 0, 74, 100
2, 188160, Note_on_c, 0, 62, 100
2, 188160, Note_on_c, 0, 108, 100
2, 188400, Note_on_c, 0, 99, 0
2, 188400, Note_on_c, 0, 100, 0
2, 188400, Note_on_c, 0, 86, 0
2, 188400, Note_on_c, 0, 87, 0
2, 188400, Note_on_c, 0, 74, 0
2, 188400, Note_on_c, 0, 62, 0
2, 188640, Note_on_c, 0, 99, 100
2, 188640, Note_on_c, 0, 100, 100
2, 188640, Note_on_c, 0, 86, 100
2, 188640, Note_on_c, 0, 87, 100
2, 188640, Note_on_c, 0, 74, 100
2, 188880, Note_on_c, 0, 99, 0
2, 188880, Note_on_c, 0, 100, 0
2, 188880, Note_on_c, 0, 86, 0
2, 188880, Note_on_c, 0, 87, 0
2, 188880, Note_on_c, 0, 74, 0
2, 189120, Note_on_c, 0, 99, 100
2, 189120, Note_on_c, 0, 100, 100
2, 189120, Note_on_c, 0, 86, 100
2, 189120, Note_on_c, 0, 87, 100
2, 189120, Note_on_c, 0, 74, 100
2, 189120, Note_on_c, 0, 62, 100
2, 189360, Note_on_c, 0, 99, 0
2, 189360, Note_on_c, 0, 100, 0
2, 189360, Note_on_c, 0, 86, 0
2, 189360, Note_on_c, 0, 87, 0
2, 189360, Note_on_c, 0, 74, 0
2, 189360, Note_on_c, 0, 62, 0
2, 189600, Note_on_c, 0, 108, 0
2, 189600, Note_on_c, 0, 99, 100
2, 189600, Note_on_c, 0, 100, 100
2, 189600, Note_on_c, 0, 86, 100
2, 189600, Note_on_c, 0, 87, 100
2, 189600, Note_on_c, 0, 74, 100
2, 189840, Note_on_c, 0, 99, 0
2, 189840, Note_on_c, 0, 100, 0
2, 189840, Note_on_c, 0, 86, 0
2, 189840, Note_on_c, 0, 87, 0
2, 189840, Note_on_c, 0, 74, 0
2, 190080, Note_on_c, 0, 99, 100
2, 190080, Note_on_c, 0, 100, 100
2, 190080, Note_on_c, 0, 86, 100
2, 190080, Note_on_c, 0, 87, 100
2, 190080, Note_on_c, 0, 74, 100
2, 190080, Note_on_c, 0, 62, 100
2, 190080, Note_on_c, 0, 108, 100
2, 190320, Note_on_c, 0, 99, 0
2, 190320, Note_on_c, 0, 100, 0
2, 190320, Note_on_c, 0, 86, 0
2, 190320, Note_on_c, 0, 87, 0
2, 190320, Note_on_c, 0, 74, 0
2, 190320, Note_on_c, 0, 62, 0
2, 190560, Note_on_c, 0, 99, 100
2, 190560, Note_on_c, 0, 100, 100
2, 190560, Note_on_c, 0, 86, 100
2, 190560, Note_on_c, 0, 87, 100
2, 190560, Note_on_c, 0, 74, 100
2, 190800, Note_on_c, 0, 99, 0
2, 190800, Note_on_c, 0, 100, 0
2, 190800, Note_on_c, 0, 86, 0
2, 190800, Note_on_c, 0, 87, 0
2, 190800, Note_on_c, 0, 74, 0
2, 191040, Note_on_c, 0, 99, 100
2, 191040, Note_on_c, 0, 100, 100
2, 191040, Note_on_c, 0, 86, 100
2, 191040, Note_on_c, 0, 87, 100
2, 191040, Note_on_c, 0, 74, 100
2, 191040, Note_on_c, 0, 62, 100
2, 191280, Note_on_c, 0, 99, 0
2, 191280, Note_on_c, 0, 100, 0
2, 191280, Note_on_c, 0, 86, 0
2, 191280, Note_on_c, 0, 87, 0
2, 191280, Note_on_c, 0, 74, 0
2, 191280, Note_on_c, 0, 62, 0
2, 191520, Note_on_c, 0, 99, 100
2, 191520, Note_on_c, 0, 100, 100
2, 191520, Note_on_c, 0, 86, 100
2, 191520, Note_on_c, 0, 87, 100
2, 191760, Note_on_c, 0, 99, 0
2, 191760, Note_on_c, 0, 100, 0
2, 191760, Note_on_c, 0, 86, 0
2, 191760, Note_on_c, 0, 87, 0
2, 191840, Note_on_c, 0, 108, 0
2, 191970, Text_t, "[chorus]"
2, 191970, Text_t, "[lighting (sweep)]"
2, 191970, Note_on_c, 0, 103, 100
2, 191970, Note_on_c, 0, 91, 100
2, 191970, Note_on_c, 0, 67, 100
2, 191970, Note_on_c, 0, 79, 100
2, 192000, Note_on_c, 0, 98, 100
2, 192000, Note_on_c, 0, 100, 100
2, 192000, Note_on_c, 0, 85, 100
2, 192000, Note_on_c, 0, 87, 100
2, 192000, Note_on_c, 0, 61, 100
2, 192000, Note_on_c, 0, 73, 100
2, 192000, Note_on_c, 0, 108, 100
2, 192240, Note_on_c, 0, 98, 0
2, 192240, Note_on_c, 0, 100, 0
2, 192240, Note_on_c, 0, 85, 0
2, 192240, Note_on_c, 0, 87, 0
2, 192240, Note_on_c, 0, 61, 0
2, 192240, Note_on_c, 0, 73, 0
2, 192480, Note_on_c, 0, 98, 100
2, 192480, Note_on_c, 0, 100, 100
2, 192480, Note_on_c, 0, 85, 100
2, 192480, Note_on_c, 0, 87, 100
2, 192720, Note_on_c, 0, 98, 0
2, 192720, Note_on_c, 0, 100, 0
2, 192720, Note_on_c, 0, 85, 0
2, 192720, Note_on_c, 0, 87, 0
2, 192960, Note_on_c, 0, 98, 100
2, 192960, Note_on_c, 0, 85, 100
2, 192960, Note_on_c, 0, 73, 100
2, 193200, Note_on_c, 0, 98, 0
2, 193200, Note_on_c, 0, 85, 0
2, 193200, Note_on_c, 0, 73, 0
2, 193440, Note_on_c, 0, 98, 100
2, 193440, Note_on_c, 0, 100, 100
2, 193440, Note_on_c, 0, 85, 100
2, 193440, Note_on_c, 0, 87, 100
2, 193440, Note_on_c, 0, 73, 100
2, 193440, Note_on_c, 0, 61, 100
2, 193680, Note_on_c, 0, 98, 0
2, 193680, Note_on_c, 0, 100, 0
2, 193680, Note_on_c, 0, 85, 0
2, 193680, Note_on_c, 0, 87, 0
2, 193680, Note_on_c, 0, 73, 0
2, 193680, Note_on_c, 0, 61, 0
2, 193920, Note_on_c, 0, 98, 100
2, 193920, Note_on_c, 0, 100, 100
2, 193920, Note_on_c, 0, 85, 100
2, 193920, Note_on_c, 0, 87, 100
2, 194160, Note_on_c, 0, 98, 0
2, 194160, Note_on_c, 0, 100, 0
2, 194160, Note_on_c, 0, 85, 0
2, 194160, Note_on_c, 0, 87, 0
2, 194400, Note_on_c, 0, 98, 100
2, 194400, Note_on_c, 0, 85, 100
2, 194400, Note_on_c, 0, 73, 100
2, 194640, Note_on_c, 0, 98, 0
2, 194640, Note_on_c, 0, 85, 0
2, 194640, Note_on_c, 0, 73, 0
2, 194720, Note_on_c, 0, 108, 0
2, 194880, Note_on_c, 0, 98, 100
2, 194880, Note_on_c, 0, 100, 100
2, 194880, Note_on_c, 0, 85, 100
2, 194880, Note_on_c, 0, 87, 100
2, 194880, Note_on_c, 0, 73, 100
2, 194880, Note_on_c, 0, 61, 100
2, 195120, Note_on_c, 0, 98, 0
2, 195120, Note_on_c, 0, 100, 0
2, 195120, Note_on_c, 0, 85, 0
2, 195120, Note_on_c, 0, 87, 0
2, 195120, Note_on_c, 0, 73, 0
2, 195120, Note_on_c, 0, 61, 0
2, 195360, Note_on_c, 0, 98, 100
2, 195360, Note_on_c, 0, 100, 100
2, 195360, Note_on_c, 0, 85, 100
2, 195360, Note_on_c, 0, 87, 100
2, 195600, Note_on_c, 0, 98, 0
2, 195600, Note_on_c, 0, 100, 0
2, 195600, Note_on_c, 0, 85, 0
2, 195600, Note_on_c, 0, 87, 0
2, 195840, Note_on_c, 0, 98, 100
2, 195840, Note_on_c, 0, 85, 100
2, 195840, Note_on_c, 0, 73, 100
2, 196080, Note_on_c, 0, 98, 0
2, 196080, Note_on_c, 0, 85, 0
2, 196080, Note_on_c, 0, 73, 0
2, 196320, Note_on_c, 0, 98, 100
2, 196320, Note_on_c, 0, 100, 100
2, 196320, Note_on_c, 0, 85, 100
2, 196320, Note_on_c, 0, 87, 100
2, 196320, Note_on_c, 0, 73, 100
2, 196320, Note_on_c, 0, 61, 100
2, 196560, Note_on_c, 0, 98, 0
2, 196560, Note_on_c, 0, 100, 0
2, 196560, Note_on_c, 0, 85, 0
2, 196560, Note_on_c, 0, 87, 0
2, 196560, Note_on_c, 0, 73, 0
2, 196560, Note_on_c, 0, 61, 0
2, 196800, Note_on_c, 0, 98, 100
2, 196800, Note_on_c, 0, 100, 100
2, 196800, Note_on_c, 0, 85, 100
2, 196800, Note_on_c, 0, 87, 100
2, 197040, Note_on_c, 0, 98, 0
2, 197040, Note_on_c, 0, 100, 0
2, 197040, Note_on_c, 0, 85, 0
2, 197040, Note_on_c, 0, 87, 0
2, 197280, Note_on_c, 0, 98, 100
2, 197280, Note_on_c, 0, 85, 100
2, 197280, Note_on_c, 0, 73, 100
2, 197520, Note_on_c, 0, 98, 0
2, 197520, Note_on_c, 0, 85, 0
2, 197520, Note_on_c, 0, 73, 0
2, 197760, Note_on_c, 0, 98, 100
2, 197760, Note_on_c, 0, 100, 100
2, 197760, Note_on_c, 0, 85, 100
2, 197760, Note_on_c, 0, 87, 100
2, 197760, Note_on_c, 0, 61, 100
2, 197760, Note_on_c, 0, 73, 100
2, 198000, Note_on_c, 0, 98, 0
2, 198000, Note_on_c, 0, 100, 0
2, 198000, Note_on_c, 0, 85, 0
2, 198000, Note_on_c, 0, 87, 0
2, 198000, Note_on_c, 0, 61, 0
2, 198000, Note_on_c, 0, 73, 0
2, 198240, Note_on_c, 0, 98, 100
2, 198240, Note_on_c, 0, 85, 100
2, 198480, Note_on_c, 0, 98, 0
2, 198480, Note_on_c, 0, 85, 0
2, 198720, Note_on_c, 0, 98, 100
2, 198720, Note_on_c, 0, 100, 100
2, 198720, Note_on_c, 0, 85, 100
2, 198720, Note_on_c, 0, 87, 100
2, 198720, Note_on_c, 0, 73, 100
2, 198720, Note_on_c, 0, 61, 100
2, 198960, Note_on_c, 0, 98, 0
2, 198960, Note_on_c, 0, 100, 0
2, 198960, Note_on_c, 0, 85, 0
2, 198960, Note_on_c, 0, 87, 0
2, 198960, Note_on_c, 0, 73, 0
2, 198960, Note_on_c, 0, 61, 0
2, 199200, Note_on_c, 0, 98, 100
2, 199200, Note_on_c, 0, 85, 100
2, 199410, Note_on_c, 0, 103, 0
2, 199410, Note_on_c, 0, 91, 0
2, 199410, Note_on_c, 0, 67, 0
2, 199410, Note_on_c, 0, 79, 0
2, 199440, Note_on_c, 0, 98, 0
2, 199440, Note_on_c, 0, 85, 0
2, 199680, Note_on_c, 0, 72, 100
2, 199680, Note_on_c, 0, 60, 100
2, 199680, Note_on_c, 0, 84, 100
2, 199680, Note_on_c, 0, 85, 100
2, 199680, Note_on_c, 0, 96, 100
2, 199680, Note_on_c, 0, 97, 100
2, 199920, Note_on_c, 0, 72, 0
2, 199920, Note_on_c, 0, 60, 0
2, 199920, Note_on_c, 0, 84, 0
2, 199920, Note_on_c, 0, 85, 0
2, 199920, Note_on_c, 0, 96, 0
2, 199920, Note_on_c, 0, 97, 0
2, 200160, Note_on_c, 0, 84, 100
2, 200160, Note_on_c, 0, 85, 100
2, 200160, Note_on_c, 0, 96, 100
2, 200160, Note_on_c, 0, 97, 100
2, 200160, Note_on_c, 0, 72, 100
2, 200400, Note_on_c, 0, 84, 0
2, 200400, Note_on_c, 0, 85, 0
2, 200400, Note_on_c, 0, 96, 0
2, 200400, Note_on_c, 0, 97, 0
2, 200400, Note_on_c, 0, 72, 0
2, 200640, Note_on_c, 0, 72, 100
2, 200640, Note_on_c, 0, 84, 100
2, 200640, Note_on_c, 0, 85, 100
2, 200640, Note_on_c, 0, 96, 100
2, 200640, Note_on_c, 0, 97, 100
2, 200640, Note_on_c, 0, 60, 100
2, 200880, Note_on_c, 0, 72, 0
2, 200880, Note_on_c, 0, 84, 0
2, 200880, Note_on_c, 0, 85, 0
2, 200880, Note_on_c, 0, 96, 0
2, 200880, Note_on_c, 0, 97, 0
2, 200880, Note_on_c, 0, 60, 0
2, 201120, Note_on_c, 0, 84, 100
2, 201120, Note_on_c, 0, 85, 100
2, 201120, Note_on_c, 0, 96, 100
2, 201120, Note_on_c, 0, 97, 100
2, 201120, Note_on_c, 0, 72, 100
2, 201360, Note_on_c, 0, 84, 0
2, 201360, Note_on_c, 0, 85, 0
2, 201360, Note_on_c, 0, 96, 0
2, 201360, Note_on_c, 0, 97, 0
2, 201360, Note_on_c, 0, 72, 0
2, 201600, Note_on_c, 0, 72, 100
2, 201600, Note_on_c, 0, 60, 100
2, 201600, Note_on_c, 0, 84, 100
2, 201600, Note_on_c, 0, 85, 100
2, 201600, Note_on_c, 0, 96, 100
2, 201600, Note_on_c, 0, 97, 100
2, 201600, Note_on_c, 0, 108, 100
2, 201840, Note_on_c, 0, 72, 0
2, 201840, Note_on_c, 0, 60, 0
2, 201840, Note_on_c, 0, 84, 0
2, 201840, Note_on_c, 0, 85, 0
2, 201840, Note_on_c, 0, 96, 0
2, 201840, Note_on_c, 0, 97, 0
2, 202080, Note_on_c, 0, 84, 100
2, 202080, Note_on_c, 0, 85, 100
2, 202080, Note_on_c, 0, 96, 100
2, 202080, Note_on_c, 0, 97, 100
2, 202080, Note_on_c, 0, 72, 100
2, 202320, Note_on_c, 0, 84, 0
2, 202320, Note_on_c, 0, 85, 0
2, 202320, Note_on_c, 0, 96, 0
2, 202320, Note_on_c, 0, 97, 0
2, 202320, Note_on_c, 0, 72, 0
2, 202560, Note_on_c, 0, 72, 100
2, 202560, Note_on_c, 0, 84, 100
2, 202560, Note_on_c, 0, 85, 100
2, 202560, Note_on_c, 0, 96, 100
2, 202560, Note_on_c, 0, 97, 100
2, 202560, Note_on_c, 0, 60, 100
2, 202800, Note_on_c, 0, 72, 0
2, 202800, Note_on_c, 0, 84, 0
2, 202800, Note_on_c, 0, 85, 0
2, 202800, Note_on_c, 0, 96, 0
2, 202800, Note_on_c, 0, 97, 0
2, 202800, Note_on_c, 0, 60, 0
2, 203040, Note_on_c, 0, 84, 100
2, 203040, Note_on_c, 0, 85, 100
2, 203040, Note_on_c, 0, 96, 100
2, 203040, Note_on_c, 0, 97, 100
2, 203200, Note_on_c, 0, 108, 0
2, 203280, Note_on_c, 0, 84, 0
2, 203280, Note_on_c, 0, 85, 0
2, 203280, Note_on_c, 0, 96, 0
2, 203280, Note_on_c, 0, 97, 0
2, 203520, Note_on_c, 0, 72, 100
2, 203520, Note_on_c, 0, 60, 100
2, 203520, Note_on_c, 0, 84, 100
2, 203520, Note_on_c, 0, 85, 100
2, 203520, Note_on_c, 0, 96, 100
2, 203520, Note_on_c, 0, 97, 100
2, 203520, Note_on_c, 0, 108, 100
2, 203760, Note_on_c, 0, 72, 0
2, 203760, Note_on_c, 0, 60, 0
2, 203760, Note_on_c, 0, 84, 0
2, 203760, Note_on_c, 0, 85, 0
2, 203760, Note_on_c, 0, 96, 0
2, 203760, Note_on_c, 0, 97, 0
2, 204000, Note_on_c, 0, 84, 100
2, 204000, Note_on_c, 0, 85, 100
2, 204000, Note_on_c, 0, 96, 100
2, 204000, Note_on_c, 0, 97, 100
2, 204000, Note_on_c, 0, 72, 100
2, 204240, Note_on_c, 0, 84, 0
2, 204240, Note_on_c, 0, 85, 0
2, 204240, Note_on_c, 0, 96, 0
2, 204240, Note_on_c, 0, 97, 0
2, 204240, Note_on_c, 0, 72, 0
2, 204480, Note_on_c, 0, 72, 100
2, 204480, Note_on_c, 0, 84, 100
2, 204480, Note_on_c, 0, 85, 100
2, 204480, Note_on_c, 0, 96, 100
2, 204480, Note_on_c, 0, 97, 100
2, 204480, Note_on_c, 0, 60, 100
2, 204720, Note_on_c, 0, 72, 0
2, 204720, Note_on_c, 0, 84, 0
2, 204720, Note_on_c, 0, 85, 0
2, 204720, Note_on_c, 0, 96, 0
2, 204720, Note_on_c, 0, 97, 0
2, 204720, Note_on_c, 0, 60, 0
2, 204960, Note_on_c, 0, 84, 100
2, 204960, Note_on_c, 0, 85, 100
2, 204960, Note_on_c, 0, 96, 100
2, 204960, Note_on_c, 0, 97, 100
2, 204960, Note_on_c, 0, 72, 100
2, 205120, Note_on_c, 0, 108, 0
2, 205200, Note_on_c, 0, 84, 0
2, 205200, Note_on_c, 0, 85, 0
2, 205200, Note_on_c, 0, 96, 0
2, 205200, Note_on_c, 0, 97, 0
2, 205200, Note_on_c, 0, 72, 0
2, 205440, Note_on_c, 0, 72, 100
2, 205440, Note_on_c, 0, 60, 100
2, 205440, Note_on_c, 0, 84, 100
2, 205440, Note_on_c, 0, 85, 100
2, 205440, Note_on_c, 0, 96, 100
2, 205440, Note_on_c, 0, 97, 100
2, 205440, Note_on_c, 0, 108, 100
2, 205680, Note_on_c, 0, 72, 0
2, 205680, Note_on_c, 0, 60, 0
2, 205680, Note_on_c, 0, 84, 0
2, 205680, Note_on_c, 0, 85, 0
2, 205680, Note_on_c, 0, 96, 0
2, 205680, Note_on_c, 0, 97, 0
2, 205920, Note_on_c, 0, 84, 100
2, 205920, Note_on_c, 0, 85, 100
2, 205920, Note_on_c, 0, 96, 100
2, 205920, Note_on_c, 0, 97, 100
2, 205920, Note_on_c, 0, 72, 100
2, 206160, Note_on_c, 0, 84, 0
2, 206160, Note_on_c, 0, 85, 0
2, 206160, Note_on_c, 0, 96, 0
2, 206160, Note_on_c, 0, 97, 0
2, 206160, Note_on_c, 0, 72, 0
2, 206400, Note_on_c, 0, 72, 100
2, 206400, Note_on_c, 0, 84, 100
2, 206400, Note_on_c, 0, 85, 100
2, 206400, Note_on_c, 0, 96, 100
2, 206400, Note_on_c, 0, 97, 100
2, 206400, Note_on_c, 0, 60, 100
2, 206640, Note_on_c, 0, 72, 0
2, 206640, Note_on_c, 0, 84, 0
2, 206640, Note_on_c, 0, 85, 0
2, 206640, Note_on_c, 0, 96, 0
2, 206640, Note_on_c, 0, 97, 0
2, 206640, Note_on_c, 0, 60, 0
2, 206880, Note_on_c, 0, 108, 0
2, 206880, Note_on_c, 0, 84, 100
2, 206880, Note_on_c, 0, 85, 100
2, 206880, Note_on_c, 0, 96, 100
2, 206880, Note_on_c, 0, 97, 100
2, 207120, Note_on_c, 0, 84, 0
2, 207120, Note_on_c, 0, 85, 0
2, 207120, Note_on_c, 0, 96, 0
2, 207120, Note_on_c, 0, 97, 0
2, 207360, Note_on_c, 0, 73, 100
2, 207360, Note_on_c, 0, 61, 100
2, 207360, Note_on_c, 0, 86, 100
2, 207360, Note_on_c, 0, 84, 100
2, 207360, Note_on_c, 0, 98, 100
2, 207360, Note_on_c, 0, 96, 100
2, 207360, Note_on_c, 0, 108, 100
2, 207600, Note_on_c, 0, 73, 0
2, 207600, Note_on_c, 0, 61, 0
2, 207600, Note_on_c, 0, 86, 0
2, 207600, Note_on_c, 0, 84, 0
2, 207600, Note_on_c, 0, 98, 0
2, 207600, Note_on_c, 0, 96, 0
2, 207840, Note_on_c, 0, 86, 100
2, 207840, Note_on_c, 0, 84, 100
2, 207840, Note_on_c, 0, 98, 100
2, 207840, Note_on_c, 0, 96, 100
2, 207840, Note_on_c, 0, 73, 100
2, 208080, Note_on_c, 0, 86, 0
2, 208080, Note_on_c, 0, 84, 0
2, 208080, Note_on_c, 0, 98, 0
2, 208080, Note_on_c, 0, 96, 0
2, 208080, Note_on_c, 0, 73, 0
2, 208320, Note_on_c, 0, 73, 100
2, 208320, Note_on_c, 0, 86, 100
2, 208320, Note_on_c, 0, 84, 100
2, 208320, Note_on_c, 0, 98, 100
2, 208320, Note_on_c, 0, 96, 100
2, 208320, Note_on_c, 0, 61, 100
2, 208560, Note_on_c, 0, 73, 0
2, 208560, Note_on_c, 0, 86, 0
2, 208560, Note_on_c, 0, 84, 0
2, 208560, Note_on_c, 0, 98, 0
2, 208560, Note_on_c, 0, 96, 0
2, 208560, Note_on_c, 0, 61, 0
2, 208800, Note_on_c, 0, 86, 100
2, 208800, Note_on_c, 0, 84, 100
2, 208800, Note_on_c, 0, 98, 100
2, 208800, Note_on_c, 0, 96, 100
2, 208800, Note_on_c, 0, 73, 100
2, 209040, Note_on_c, 0, 108, 0
2, 209040, Note_on_c, 0, 86, 0
2, 209040, Note_on_c, 0, 84, 0
2, 209040, Note_on_c, 0, 98, 0
2, 209040, Note_on_c, 0, 96, 0
2, 209040, Note_on_c, 0, 73, 0
2, 209280, Note_on_c, 0, 73, 100
2, 209280, Note_on_c, 0, 61, 100
2, 209280, Note_on_c, 0, 86, 100
2, 209280, Note_on_c, 0, 84, 100
2, 209280, Note_on_c, 0, 98, 100
2, 209280, Note_on_c, 0, 96, 100
2, 209280, Note_on_c, 0, 108, 100
2, 209520, Note_on_c, 0, 73, 0
2, 209520, Note_on_c, 0, 61, 0
2, 209520, Note_on_c, 0, 86, 0
2, 209520, Note_on_c, 0, 84, 0
2, 209520, Note_on_c, 0, 98, 0
2, 209520, Note_on_c, 0, 96, 0
2, 209760, Note_on_c, 0, 86, 100
2, 209760, Note_on_c, 0, 84, 100
2, 209760, Note_on_c, 0, 98, 100
2, 209760, Note_on_c, 0, 96, 100
2, 209760, Note_on_c, 0, 73, 100
2, 210000, Note_on_c, 0, 86, 0
2, 210000, Note_on_c, 0, 84, 0
2, 210000, Note_on_c, 0, 98, 0
2, 210000, Note_on_c, 0, 96, 0
2, 210000, Note_on_c, 0, 73, 0
2, 210240, Note_on_c, 0, 73, 100
2, 210240, Note_on_c, 0, 86, 100
2, 210240, Note_on_c, 0, 84, 100
2, 210240, Note_on_c, 0, 98, 100
2, 210240, Note_on_c, 0, 96, 100
2, 210240, Note_on_c, 0, 61, 100
2, 210480, Note_on_c, 0, 73, 0
2, 210480, Note_on_c, 0, 86, 0
2, 210480, Note_on_c, 0, 84, 0
2, 210480, Note_on_c, 0, 98, 0
2, 210480, Note_on_c, 0, 96, 0
2, 210480, Note_on_c, 0, 61, 0
2, 210720, Note_on_c, 0, 108, 0
2, 210720, Note_on_c, 0, 86, 100
2, 210720, Note_on_c, 0, 84, 100
2, 210720, Note_on_c, 0, 98, 100
2, 210720, Note_on_c, 0, 96, 100
2, 210960, Note_on_c, 0, 86, 0
2, 210960, Note_on_c, 0, 84, 0
2, 210960, Note_on_c, 0, 98, 0
2, 210960, Note_on_c, 0, 96, 0
2, 211200, Note_on_c, 0, 73, 100
2, 211200, Note_on_c, 0, 61, 100
2, 211200, Note_on_c, 0, 86, 100
2, 211200, Note_on_c, 0, 84, 100
2, 211200, Note_on_c, 0, 98, 100
2, 211200, Note_on_c, 0, 96, 100
2, 211200, Note_on_c, 0, 108, 100
2, 211440, Note_on_c, 0, 73, 0
2, 211440, Note_on_c, 0, 61, 0
2, 211440, Note_on_c, 0, 86, 0
2, 211440, Note_on_c, 0, 84, 0
2, 211440, Note_on_c, 0, 98, 0
2, 211440, Note_on_c, 0, 96, 0
2, 211680, Note_on_c, 0, 86, 100
2, 211680, Note_on_c, 0, 84, 100
2, 211680, Note_on_c, 0, 98, 100
2, 211680, Note_on_c, 0, 96, 100
2, 211680, Note_on_c, 0, 73, 100
2, 211920, Note_on_c, 0, 86, 0
2, 211920, Note_on_c, 0, 84, 0
2, 211920, Note_on_c, 0, 98, 0
2, 211920, Note_on_c, 0, 96, 0
2, 211920, Note_on_c, 0, 73, 0
2, 212160, Note_on_c, 0, 73, 100
2, 212160, Note_on_c, 0, 86, 100
2, 212160, Note_on_c, 0, 84, 100
2, 212160, Note_on_c, 0, 98, 100
2, 212160, Note_on_c, 0, 96, 100
2, 212160, Note_on_c, 0, 61, 100
2, 212400, Note_on_c, 0, 73, 0
2, 212400, Note_on_c, 0, 86, 0
2, 212400, Note_on_c, 0, 84, 0
2, 212400, Note_on_c, 0, 98, 0
2, 212400, Note_on_c, 0, 96, 0
2, 212400, Note_on_c, 0, 61, 0
2, 212640, Note_on_c, 0, 86, 100
2, 212640, Note_on_c, 0, 84, 100
2, 212640, Note_on_c, 0, 98, 100
2, 212640, Note_on_c, 0, 96, 100
2, 212640, Note_on_c, 0, 73, 100
2, 212880, Note_on_c, 0, 86, 0
2, 212880, Note_on_c, 0, 84, 0
2, 212880, Note_on_c, 0, 98, 0
2, 212880, Note_on_c, 0, 96, 0
2, 212880, Note_on_c, 0, 73, 0
2, 213120, Note_on_c, 0, 73, 100
2, 213120, Note_on_c, 0, 61, 100
2, 213120, Note_on_c, 0, 86, 100
2, 213120, Note_on_c, 0, 84, 100
2, 213120, Note_on_c, 0, 98, 100
2, 213120, Note_on_c, 0, 96, 100
2, 213360, Note_on_c, 0, 73, 0
2, 213360, Note_on_c, 0, 61, 0
2, 213360, Note_on_c, 0, 86, 0
2, 213360, Note_on_c, 0, 84, 0
2, 213360, Note_on_c, 0, 98, 0
2, 213360, Note_on_c, 0, 96, 0
2, 213600, Note_on_c, 0, 86, 100
2, 213600, Note_on_c, 0, 84, 100
2, 213600, Note_on_c, 0, 98, 100
2, 213600, Note_on_c, 0, 96, 100
2, 213600, Note_on_c, 0, 73, 100
2, 213840, Note_on_c, 0, 86, 0
2, 213840, Note_on_c, 0, 84, 0
2, 213840, Note_on_c, 0, 98, 0
2, 213840, Note_on_c, 0, 96, 0
2, 213840, Note_on_c, 0, 73, 0
2, 213920, Note_on_c, 0, 108, 0
2, 214080, Note_on_c, 0, 73, 100
2, 214080, Note_on_c, 0, 86, 100
2, 214080, Note_on_c, 0, 84, 100
2, 214080, Note_on_c, 0, 98, 100
2, 214080, Note_on_c, 0, 96, 100
2, 214080, Note_on_c, 0, 61, 100
2, 214320, Note_on_c, 0, 73, 0
2, 214320, Note_on_c, 0, 86, 0
2, 214320, Note_on_c, 0, 84, 0
2, 214320, Note_on_c, 0, 98, 0
2, 214320, Note_on_c, 0, 96, 0
2, 214320, Note_on_c, 0, 61, 0
2, 214560, Note_on_c, 0, 86, 100
2, 214560, Note_on_c, 0, 84, 100
2, 214560, Note_on_c, 0, 98, 100
2, 214560, Note_on_c, 0, 96, 100
2, 214800, Note_on_c, 0, 86, 0
2, 214800, Note_on_c, 0, 84, 0
2, 214800, Note_on_c, 0, 98, 0
2, 214800, Note_on_c, 0, 96, 0
2, 215010, Text_t, "[lighting ()]"
2, 215040, Note_on_c, 0, 99, 100
2, 215040, Note_on_c, 0, 100, 100
2, 215040, Note_on_c, 0, 86, 100
2, 215040, Note_on_c, 0, 87, 100
2, 215040, Note_on_c, 0, 74, 100
2, 215040, Note_on_c, 0, 62, 100
2, 215280, Note_on_c, 0, 99, 0
2, 215280, Note_on_c, 0, 100, 0
2, 215280, Note_on_c, 0, 86, 0
2, 215280, Note_on_c, 0, 87, 0
2, 215280, Note_on_c, 0, 74, 0
2, 215280, Note_on_c, 0, 62, 0
2, 215520, Note_on_c, 0, 99, 100
2, 215520, Note_on_c, 0, 100, 100
2, 215520, Note_on_c, 0, 86, 100
2, 215520, Note_on_c, 0, 87, 100
2, 215520, Note_on_c, 0, 74, 100
2, 215760, Note_on_c, 0, 99, 0
2, 215760, Note_on_c, 0, 100, 0
2, 215760, Note_on_c, 0, 86, 0
2, 215760, Note_on_c, 0, 87, 0
2, 215760, Note_on_c, 0, 74, 0
2, 215970, Text_t, "drum_double"
2, 216000, Note_on_c, 0, 99, 100
2, 216000, Note_on_c, 0, 100, 100
2, 216000, Note_on_c, 0, 86, 100
2, 216000, Note_on_c, 0, 87, 100
2, 216000, Note_on_c, 0, 74, 100
2, 216000, Note_on_c, 0, 62, 100
2, 216240, Note_on_c, 0, 99, 0
2, 216240, Note_on_c, 0, 100, 0
2, 216240, Note_on_c, 0, 86, 0
2, 216240, Note_on_c, 0, 87, 0
2, 216240, Note_on_c, 0, 74, 0
2, 216240, Note_on_c, 0, 62, 0
2, 216480, Note_on_c, 0, 99, 100
2, 216480, Note_on_c, 0, 100, 100
2, 216480, Note_on_c, 0, 86, 100
2, 216480, Note_on_c, 0, 87, 100
2, 216480, Note_on_c, 0, 74, 100
2, 216720, Note_on_c, 0, 99, 0
2, 216720, Note_on_c, 0, 100, 0
2, 216720, Note_on_c, 0, 86, 0
2, 216720, Note_on_c, 0, 87, 0
2, 216720, Note_on_c, 0, 74, 0
2, 216930, Text_t, "drum_normal"
2, 216960, Note_on_c, 0, 99, 100
2, 216960, Note_on_c, 0, 100, 100
2, 216960, Note_on_c, 0, 86, 100
2, 216960, Note_on_c, 0, 87, 100
2, 216960, Note_on_c, 0, 74, 100
2, 216960, Note_on_c, 0, 62, 100
2, 216960, Note_on_c, 0, 108, 100
2, 217200, Note_on_c, 0, 99, 0
2, 217200, Note_on_c, 0, 100, 0
2, 217200, Note_on_c, 0, 86, 0
2, 217200, Note_on_c, 0, 87, 0
2, 217200, Note_on_c, 0, 74, 0
2, 217200, Note_on_c, 0, 62, 0
2, 217440, Note_on_c, 0, 99, 100
2, 217440, Note_on_c, 0, 100, 100
2, 217440, Note_on_c, 0, 86, 100
2, 217440, Note_on_c, 0, 87, 100
2, 217440, Note_on_c, 0, 74, 100
2, 217680, Note_on_c, 0, 99, 0
2, 217680, Note_on_c, 0, 100, 0
2, 217680, Note_on_c, 0, 86, 0
2, 217680, Note_on_c, 0, 87, 0
2, 217680, Note_on_c, 0, 74, 0
2, 217920, Note_on_c, 0, 99, 100
2, 217920, Note_on_c, 0, 100, 100
2, 217920, Note_on_c, 0, 86, 100
2, 217920, Note_on_c, 0, 87, 100
2, 217920, Note_on_c, 0, 74, 100
2, 217920, Note_on_c, 0, 62, 100
2, 218160, Note_on_c, 0, 99, 0
2, 218160, Note_on_c, 0, 100, 0
2, 218160, Note_on_c, 0, 86, 0
2, 218160, Note_on_c, 0, 87, 0
2, 218160, Note_on_c, 0, 74, 0
2, 218160, Note_on_c, 0, 62, 0
2, 218400, Note_on_c, 0, 99, 100
2, 218400, Note_on_c, 0, 100, 100
2, 218400, Note_on_c, 0, 86, 100
2, 218400, Note_on_c, 0, 87, 100
2, 218640, Note_on_c, 0, 108, 0
2, 218640, Note_on_c, 0, 99, 0
2, 218640, Note_on_c, 0, 100, 0
2, 218640, Note_on_c, 0, 86, 0
2, 218640, Note_on_c, 0, 87, 0
2, 218850, Text_t, "drum_double"
2, 218880, Note_on_c, 0, 99, 100
2, 218880, Note_on_c, 0, 100, 100
2, 218880, Note_on_c, 0, 86, 100
2, 218880, Note_on_c, 0, 87, 100
2, 218880, Note_on_c, 0, 74, 100
2, 218880, Note_on_c, 0, 62, 100
2, 218880, Note_on_c, 0, 108, 100
2, 219120, Note_on_c, 0, 99, 0
2, 219120, Note_on_c, 0, 100, 0
2, 219120, Note_on_c, 0, 86, 0
2, 219120, Note_on_c, 0, 87, 0
2, 219120, Note_on_c, 0, 74, 0
2, 219120, Note_on_c, 0, 62, 0
2, 219360, Note_on_c, 0, 99, 100
2, 219360, Note_on_c, 0, 100, 100
2, 219360, Note_on_c, 0, 86, 100
2, 219360, Note_on_c, 0, 87, 100
2, 219360, Note_on_c, 0, 74, 100
2, 219600, Note_on_c, 0, 99, 0
2, 219600, Note_on_c, 0, 100, 0
2, 219600, Note_on_c, 0, 86, 0
2, 219600, Note_on_c, 0, 87, 0
2, 219600, Note_on_c, 0, 74, 0
2, 219810, Text_t, "drum_half"
2, 219840, Note_on_c, 0, 99, 100
2, 219840, Note_on_c, 0, 100, 100
2, 219840, Note_on_c, 0, 86, 100
2, 219840, Note_on_c, 0, 87, 100
2, 219840, Note_on_c, 0, 74, 100
2, 219840, Note_on_c, 0, 62, 100
2, 220080, Note_on_c, 0, 99, 0
2, 220080, Note_on_c, 0, 100, 0
2, 220080, Note_on_c, 0, 86, 0
2, 220080, Note_on_c, 0, 87, 0
2, 220080, Note_on_c, 0, 74, 0
2, 220080, Note_on_c, 0, 62, 0
2, 220320, Note_on_c, 0, 108, 0
2, 220320, Note_on_c, 0, 99, 100
2, 220320, Note_on_c, 0, 100, 100
2, 220320, Note_on_c, 0, 86, 100
2, 220320, Note_on_c, 0, 87, 100
2, 220320, Note_on_c, 0, 74, 100
2, 220560, Note_on_c, 0, 99, 0
2, 220560, Note_on_c, 0, 100, 0
2, 220560, Note_on_c, 0, 86, 0
2, 220560, Note_on_c, 0, 87, 0
2, 220560, Note_on_c, 0, 74, 0
2, 220800, Note_on_c, 0, 99, 100
2, 220800, Note_on_c, 0, 100, 100
2, 220800, Note_on_c, 0, 86, 100
2, 220800, Note_on_c, 0, 87, 100
2, 220800, Note_on_c, 0, 74, 100
2, 220800, Note_on_c, 0, 62, 100
2, 220800, Note_on_c, 0, 108, 100
2, 221040, Note_on_c, 0, 99, 0
2, 221040, Note_on_c, 0, 100, 0
2, 221040, Note_on_c, 0, 86, 0
2, 221040, Note_on_c, 0, 87, 0
2, 221040, Note_on_c, 0, 74, 0
2, 221040, Note_on_c, 0, 62, 0
2, 221280, Note_on_c, 0, 99, 100
2, 221280, Note_on_c, 0, 100, 100
2, 221280, Note_on_c, 0, 86, 100
2, 221280, Note_on_c, 0, 87, 100
2, 221280, Note_on_c, 0, 74, 100
2, 221520, Note_on_c, 0, 99, 0
2, 221520, Note_on_c, 0, 100, 0
2, 221520, Note_on_c, 0, 86, 0
2, 221520, Note_on_c, 0, 87, 0
2, 221520, Note_on_c, 0, 74, 0
2, 221730, Text_t, "drum_normal"
2, 221760, Note_on_c, 0, 99, 100
2, 221760, Note_on_c, 0, 100, 100
2, 221760, Note_on_c, 0, 86, 100
2, 221760, Note_on_c, 0, 87, 100
2, 221760, Note_on_c, 0, 74, 100
2, 221760, Note_on_c, 0, 62, 100
2, 222000, Note_on_c, 0, 108, 0
2, 222000, Note_on_c, 0, 99, 0
2, 222000, Note_on_c, 0, 100, 0
2, 222000, Note_on_c, 0, 86, 0
2, 222000, Note_on_c, 0, 87, 0
2, 222000, Note_on_c, 0, 74, 0
2, 222000, Note_on_c, 0, 62, 0
2, 222240, Note_on_c, 0, 99, 100
2, 222240, Note_on_c, 0, 100, 100
2, 222240, Note_on_c, 0, 86, 100
2, 222240, Note_on_c, 0, 87, 100
2, 222480, Note_on_c, 0, 99, 0
2, 222480, Note_on_c, 0, 100, 0
2, 222480, Note_on_c, 0, 86, 0
2, 222480, Note_on_c, 0, 87, 0
2, 222720, Note_on_c, 0, 98, 100
2, 222720, Note_on_c, 0, 100, 100
2, 222720, Note_on_c, 0, 85, 100
2, 222720, Note_on_c, 0, 87, 100
2, 222720, Note_on_c, 0, 73, 100
2, 222720, Note_on_c, 0, 61, 100
2, 222720, Note_on_c, 0, 108, 100
2, 222960, Note_on_c, 0, 98, 0
2, 222960, Note_on_c, 0, 100, 0
2, 222960, Note_on_c, 0, 85, 0
2, 222960, Note_on_c, 0, 87, 0
2, 222960, Note_on_c, 0, 73, 0
2, 222960, Note_on_c, 0, 61, 0
2, 223200, Note_on_c, 0, 98, 100
2, 223200, Note_on_c, 0, 100, 100
2, 223200, Note_on_c, 0, 85, 100
2, 223200, Note_on_c, 0, 87, 100
2, 223200, Note_on_c, 0, 73, 100
2, 223440, Note_on_c, 0, 98, 0
2, 223440, Note_on_c, 0, 100, 0
2, 223440, Note_on_c, 0, 85, 0
2, 223440, Note_on_c, 0, 87, 0
2, 223440, Note_on_c, 0, 73, 0
2, 223680, Note_on_c, 0, 98, 100
2, 223680, Note_on_c, 0, 100, 100
2, 223680, Note_on_c, 0, 85, 100
2, 223680, Note_on_c, 0, 87, 100
2, 223680, Note_on_c, 0, 73, 100
2, 223680, Note_on_c, 0, 61, 100
2, 223920, Note_on_c, 0, 98, 0
2, 223920, Note_on_c, 0, 100, 0
2, 223920, Note_on_c, 0, 85, 0
2, 223920, Note_on_c, 0, 87, 0
2, 223920, Note_on_c, 0, 73, 0
2, 223920, Note_on_c, 0, 61, 0
2, 224160, Note_on_c, 0, 98, 100
2, 224160, Note_on_c, 0, 100, 100
2, 224160, Note_on_c, 0, 85, 100
2, 224160, Note_on_c, 0, 87, 100
2, 224160, Note_on_c, 0, 73, 100
2, 224400, Note_on_c, 0, 98, 0
2, 224400, Note_on_c, 0, 100, 0
2, 224400, Note_on_c, 0, 85, 0
2, 224400, Note_on_c, 0, 87, 0
2, 224400, Note_on_c, 0, 73, 0
2, 224640, Note_on_c, 0, 98, 100
2, 224640, Note_on_c, 0, 100, 100
2, 224640, Note_on_c, 0, 85, 100
2, 224640, Note_on_c, 0, 87, 100
2, 224640, Note_on_c, 0, 73, 100
2, 224640, Note_on_c, 0, 61, 100
2, 224880, Note_on_c, 0, 98, 0
2, 224880, Note_on_c, 0, 100, 0
2, 224880, Note_on_c, 0, 85, 0
2, 224880, Note_on_c, 0, 87, 0
2, 224880, Note_on_c, 0, 73, 0
2, 224880, Note_on_c, 0, 61, 0
2, 225120, Note_on_c, 0, 98, 100
2, 225120, Note_on_c, 0, 100, 100
2, 225120, Note_on_c, 0, 85, 100
2, 225120, Note_on_c, 0, 87, 100
2, 225120, Note_on_c, 0, 73, 100
2, 225360, Note_on_c, 0, 98, 0
2, 225360, Note_on_c, 0, 100, 0
2, 225360, Note_on_c, 0, 85, 0
2, 225360, Note_on_c, 0, 87, 0
2, 225360, Note_on_c, 0, 73, 0
2, 225440, Note_on_c, 0, 108, 0
2, 225600, Note_on_c, 0, 98, 100
2, 225600, Note_on_c, 0, 100, 100
2, 225600, Note_on_c, 0, 85, 100
2, 225600, Note_on_c, 0, 87, 100
2, 225600, Note_on_c, 0, 73, 100
2, 225600, Note_on_c, 0, 61, 100
2, 225840, Note_on_c, 0, 98, 0
2, 225840, Note_on_c, 0, 100, 0
2, 225840, Note_on_c, 0, 85, 0
2, 225840, Note_on_c, 0, 87, 0
2, 225840, Note_on_c, 0, 73, 0
2, 225840, Note_on_c, 0, 61, 0
2, 226080, Note_on_c, 0, 98, 100
2, 226080, Note_on_c, 0, 100, 100
2, 226080, Note_on_c, 0, 85, 100
2, 226080, Note_on_c, 0, 87, 100
2, 226320, Note_on_c, 0, 98, 0
2, 226320, Note_on_c, 0, 100, 0
2, 226320, Note_on_c, 0, 85, 0
2, 226320, Note_on_c, 0, 87, 0
2, 226560, Note_on_c, 0, 98, 100
2, 226560, Note_on_c, 0, 100, 100
2, 226560, Note_on_c, 0, 85, 100
2, 226560, Note_on_c, 0, 87, 100
2, 226560, Note_on_c, 0, 73, 100
2, 226560, Note_on_c, 0, 61, 100
2, 226800, Note_on_c, 0, 98, 0
2, 226800, Note_on_c, 0, 100, 0
2, 226800, Note_on_c, 0, 85, 0
2, 226800, Note_on_c, 0, 87, 0
2, 226800, Note_on_c, 0, 73, 0
2, 226800, Note_on_c, 0, 61, 0
2, 227040, Note_on_c, 0, 98, 100
2, 227040, Note_on_c, 0, 100, 100
2, 227040, Note_on_c, 0, 85, 100
2, 227040, Note_on_c, 0, 87, 100
2, 227040, Note_on_c, 0, 73, 100
2, 227280, Note_on_c, 0, 98, 0
2, 227280, Note_on_c, 0, 100, 0
2, 227280, Note_on_c, 0, 85, 0
2, 227280, Note_on_c, 0, 87, 0
2, 227280, Note_on_c, 0, 73, 0
2, 227520, Note_on_c, 0, 98, 100
2, 227520, Note_on_c, 0, 100, 100
2, 227520, Note_on_c, 0, 85, 100
2, 227520, Note_on_c, 0, 87, 100
2, 227520, Note_on_c, 0, 73, 100
2, 227520, Note_on_c, 0, 61, 100
2, 227760, Note_on_c, 0, 98, 0
2, 227760, Note_on_c, 0, 100, 0
2, 227760, Note_on_c, 0, 85, 0
2, 227760, Note_on_c, 0, 87, 0
2, 227760, Note_on_c, 0, 73, 0
2, 227760, Note_on_c, 0, 61, 0
2, 228000, Note_on_c, 0, 98, 100
2, 228000, Note_on_c, 0, 100, 100
2, 228000, Note_on_c, 0, 85, 100
2, 228000, Note_on_c, 0, 87, 100
2, 228000, Note_on_c, 0, 73, 100
2, 228240, Note_on_c, 0, 98, 0
2, 228240, Note_on_c, 0, 100, 0
2, 228240, Note_on_c, 0, 85, 0
2, 228240, Note_on_c, 0, 87, 0
2, 228240, Note_on_c, 0, 73, 0
2, 228450, Text_t, "drum_double"
2, 228480, Note_on_c, 0, 98, 100
2, 228480, Note_on_c, 0, 100, 100
2, 228480, Note_on_c, 0, 85, 100
2, 228480, Note_on_c, 0, 87, 100
2, 228480, Note_on_c, 0, 73, 100
2, 228480, Note_on_c, 0, 61, 100
2, 228720, Note_on_c, 0, 98, 0
2, 228720, Note_on_c, 0, 100, 0
2, 228720, Note_on_c, 0, 85, 0
2, 228720, Note_on_c, 0, 87, 0
2, 228720, Note_on_c, 0, 73, 0
2, 228720, Note_on_c, 0, 61, 0
2, 228960, Note_on_c, 0, 98, 100
2, 228960, Note_on_c, 0, 100, 100
2, 228960, Note_on_c, 0, 85, 100
2, 228960, Note_on_c, 0, 87, 100
2, 228960, Note_on_c, 0, 73, 100
2, 229200, Note_on_c, 0, 98, 0
2, 229200, Note_on_c, 0, 100, 0
2, 229200, Note_on_c, 0, 85, 0
2, 229200, Note_on_c, 0, 87, 0
2, 229200, Note_on_c, 0, 73, 0
2, 229410, Text_t, "drum_normal"
2, 229440, Note_on_c, 0, 98, 100
2, 229440, Note_on_c, 0, 100, 100
2, 229440, Note_on_c, 0, 85, 100
2, 229440, Note_on_c, 0, 87, 100
2, 229440, Note_on_c, 0, 73, 100
2, 229440, Note_on_c, 0, 61, 100
2, 229680, Note_on_c, 0, 98, 0
2, 229680, Note_on_c, 0, 100, 0
2, 229680, Note_on_c, 0, 85, 0
2, 229680, Note_on_c, 0, 87, 0
2, 229680, Note_on_c, 0, 73, 0
2, 229680, Note_on_c, 0, 61, 0
2, 229920, Note_on_c, 0, 98, 100
2, 229920, Note_on_c, 0, 100, 100
2, 229920, Note_on_c, 0, 85, 100
2, 229920, Note_on_c, 0, 87, 100
2, 229920, Note_on_c, 0, 73, 100
2, 230160, Note_on_c, 0, 98, 0
2, 230160, Note_on_c, 0, 100, 0
2, 230160, Note_on_c, 0, 85, 0
2, 230160, Note_on_c, 0, 87, 0
2, 230160, Note_on_c, 0, 73, 0
2, 230400, Note_on_c, 0, 84, 100
2, 230400, Note_on_c, 0, 85, 100
2, 230400, Note_on_c, 0, 96, 100
2, 230400, Note_on_c, 0, 97, 100
2, 230400, Note_on_c, 0, 72, 100
2, 230400, Note_on_c, 0, 60, 100
2, 230640, Note_on_c, 0, 84, 0
2, 230640, Note_on_c, 0, 85, 0
2, 230640, Note_on_c, 0, 96, 0
2, 230640, Note_on_c, 0, 97, 0
2, 230640, Note_on_c, 0, 72, 0
2, 230640, Note_on_c, 0, 60, 0
2, 236130, Note_on_c, 0, 103, 100
2, 236130, Note_on_c, 0, 91, 100
2, 236130, Note_on_c, 0, 67, 100
2, 236130, Note_on_c, 0, 79, 100
2, 236160, Note_on_c, 0, 86, 100
2, 236160, Note_on_c, 0, 84, 100
2, 236160, Note_on_c, 0, 98, 100
2, 236160, Note_on_c, 0, 96, 100
2, 236160, Note_on_c, 0, 73, 100
2, 236160, Note_on_c, 0, 61, 100
2, 236400, Note_on_c, 0, 86, 0
2, 236400, Note_on_c, 0, 84, 0
2, 236400, Note_on_c, 0, 98, 0
2, 236400, Note_on_c, 0, 96, 0
2, 236400, Note_on_c, 0, 73, 0
2, 236400, Note_on_c, 0, 61, 0
2, 236640, Note_on_c, 0, 84, 100
2, 236640, Note_on_c, 0, 85, 100
2, 236640, Note_on_c, 0, 96, 100
2, 236640, Note_on_c, 0, 97, 100
2, 236640, Note_on_c, 0, 72, 100
2, 236880, Note_on_c, 0, 84, 0
2, 236880, Note_on_c, 0, 85, 0
2, 236880, Note_on_c, 0, 96, 0
2, 236880, Note_on_c, 0, 97, 0
2, 236880, Note_on_c, 0, 72, 0
2, 237120, Note_on_c, 0, 86, 100
2, 237120, Note_on_c, 0, 84, 100
2, 237120, Note_on_c, 0, 98, 100
2, 237120, Note_on_c, 0, 96, 100
2, 237120, Note_on_c, 0, 73, 100
2, 237120, Note_on_c, 0, 61, 100
2, 237360, Note_on_c, 0, 86, 0
2, 237360, Note_on_c, 0, 84, 0
2, 237360, Note_on_c, 0, 98, 0
2, 237360, Note_on_c, 0, 96, 0
2, 237360, Note_on_c, 0, 73, 0
2, 237360, Note_on_c, 0, 61, 0
2, 238080, Note_on_c, 0, 84, 100
2, 238080, Note_on_c, 0, 85, 100
2, 238080, Note_on_c, 0, 96, 100
2, 238080, Note_on_c, 0, 97, 100
2, 238080, Note_on_c, 0, 72, 100
2, 238080, Note_on_c, 0, 60, 100
2, 238320, Note_on_c, 0, 84, 0
2, 238320, Note_on_c, 0, 85, 0
2, 238320, Note_on_c, 0, 96, 0
2, 238320, Note_on_c, 0, 97, 0
2, 238320, Note_on_c, 0, 72, 0
2, 238320, Note_on_c, 0, 60, 0
2, 238530, Note_on_c, 0, 103, 0
2, 238530, Note_on_c, 0, 91, 0
2, 238530, Note_on_c, 0, 67, 0
2, 238530, Note_on_c, 0, 79, 0
2, 243840, Note_on_c, 0, 84, 100
2, 243840, Note_on_c, 0, 86, 100
2, 243840, Note_on_c, 0, 96, 100
2, 243840, Note_on_c, 0, 98, 100
2, 243840, Note_on_c, 0, 60, 100
2, 243840, Note_on_c, 0, 73, 100
2, 243840, Note_on_c, 0, 72, 100
2, 244080, Note_on_c, 0, 84, 0
2, 244080, Note_on_c, 0, 86, 0
2, 244080, Note_on_c, 0, 96, 0
2, 244080, Note_on_c, 0, 98, 0
2, 244080, Note_on_c, 0, 60, 0
2, 244080, Note_on_c, 0, 73, 0
2, 244080, Note_on_c, 0, 72, 0
2, 244320, Note_on_c, 0, 84, 100
2, 244320, Note_on_c, 0, 86, 100
2, 244320, Note_on_c, 0, 96, 100
2, 244320, Note_on_c, 0, 98, 100
2, 244320, Note_on_c, 0, 73, 100
2, 244320, Note_on_c, 0, 72, 100
2, 244560, Note_on_c, 0, 84, 0
2, 244560, Note_on_c, 0, 86, 0
2, 244560, Note_on_c, 0, 96, 0
2, 244560, Note_on_c, 0, 98, 0
2, 244560, Note_on_c, 0, 73, 0
2, 244560, Note_on_c, 0, 72, 0
2, 244800, Note_on_c, 0, 84, 100
2, 244800, Note_on_c, 0, 86, 100
2, 244800, Note_on_c, 0, 96, 100
2, 244800, Note_on_c, 0, 98, 100
2, 244800, Note_on_c, 0, 60, 100
2, 244800, Note_on_c, 0, 73, 100
2, 244800, Note_on_c, 0, 72, 100
2, 245040, Note_on_c, 0, 84, 0
2, 245040, Note_on_c, 0, 86, 0
2, 245040, Note_on_c, 0, 96, 0
2, 245040, Note_on_c, 0, 98, 0
2, 245040, Note_on_c, 0, 60, 0
2, 245040, Note_on_c, 0, 73, 0
2, 245040, Note_on_c, 0, 72, 0
2, 245730, Note_on_c, 0, 105, 0
2, 245730, Note_on_c, 0, 93, 0
2, 245730, Note_on_c, 0, 69, 0
2, 245730, Note_on_c, 0, 81, 0
2, 245760, Note_on_c, 0, 96, 100
2, 245760, Note_on_c, 0, 98, 100
2, 245760, Note_on_c, 0, 84, 100
2, 245760, Note_on_c, 0, 86, 100
2, 245760, Note_on_c, 0, 60, 100
2, 245760, Note_on_c, 0, 73, 100
2, 245760, Note_on_c, 0, 72, 100
2, 246000, Note_on_c, 0, 96, 0
2, 246000, Note_on_c, 0, 98, 0
2, 246000, Note_on_c, 0, 84, 0
2, 246000, Note_on_c, 0, 86, 0
2, 246000, Note_on_c, 0, 60, 0
2, 246000, Note_on_c, 0, 73, 0
2, 246000, Note_on_c, 0, 72, 0
2, 246240, Note_on_c, 0, 96, 100
2, 246240, Note_on_c, 0, 98, 100
2, 246240, Note_on_c, 0, 84, 100
2, 246240, Note_on_c, 0, 86, 100
2, 246240, Note_on_c, 0, 73, 100
2, 246240, Note_on_c, 0, 72, 100
2, 246480, Note_on_c, 0, 96, 0
2, 246480, Note_on_c, 0, 98, 0
2, 246480, Note_on_c, 0, 84, 0
2, 246480, Note_on_c, 0, 86, 0
2, 246480, Note_on_c, 0, 73, 0
2, 246480, Note_on_c, 0, 72, 0
2, 246720, Note_on_c, 0, 96, 100
2, 246720, Note_on_c, 0, 98, 100
2, 246720, Note_on_c, 0, 84, 100
2, 246720, Note_on_c, 0, 86, 100
2, 246720, Note_on_c, 0, 60, 100
2, 246720, Note_on_c, 0, 73, 100
2, 246720, Note_on_c, 0, 72, 100
2, 246960, Note_on_c, 0, 96, 0
2, 246960, Note_on_c, 0, 98, 0
2, 246960, Note_on_c, 0, 84, 0
2, 246960, Note_on_c, 0, 86, 0
2, 246960, Note_on_c, 0, 60, 0
2, 246960, Note_on_c, 0, 73, 0
2, 246960, Note_on_c, 0, 72, 0
2, 248160, Note_on_c, 0, 96, 100
2, 248160, Note_on_c, 0, 98, 100
2, 248160, Note_on_c, 0, 84, 100
2, 248160, Note_on_c, 0, 86, 100
2, 248160, Note_on_c, 0, 60, 100
2, 248160, Note_on_c, 0, 73, 100
2, 248160, Note_on_c, 0, 72, 100
2, 248400, Note_on_c, 0, 96, 0
2, 248400, Note_on_c, 0, 98, 0
2, 248400, Note_on_c, 0, 84, 0
2, 248400, Note_on_c, 0, 86, 0
2, 248400, Note_on_c, 0, 60, 0
2, 248400, Note_on_c, 0, 73, 0
2, 248400, Note_on_c, 0, 72, 0
2, 248640, Note_on_c, 0, 96, 100
2, 248640, Note_on_c, 0, 84, 100
2, 248640, Note_on_c, 0, 72, 100
2, 248880, Note_on_c, 0, 96, 0
2, 248880, Note_on_c, 0, 84, 0
2, 248880, Note_on_c, 0, 72, 0
2, 249120, Note_on_c, 0, 96, 100
2, 249120, Note_on_c, 0, 98, 100
2, 249120, Note_on_c, 0, 84, 100
2, 249120, Note_on_c, 0, 86, 100
2, 249120, Note_on_c, 0, 60, 100
2, 249120, Note_on_c, 0, 73, 100
2, 249120, Note_on_c, 0, 72, 100
2, 249360, Note_on_c, 0, 96, 0
2, 249360, Note_on_c, 0, 98, 0
2, 249360, Note_on_c, 0, 84, 0
2, 249360, Note_on_c, 0, 86, 0
2, 249360, Note_on_c, 0, 60, 0
2, 249360, Note_on_c, 0, 73, 0
2, 249360, Note_on_c, 0, 72, 0
2, 251520, Note_on_c, 0, 96, 100
2, 251520, Note_on_c, 0, 98, 100
2, 251520, Note_on_c, 0, 84, 100
2, 251520, Note_on_c, 0, 86, 100
2, 251520, Note_on_c, 0, 60, 100
2, 251520, Note_on_c, 0, 73, 100
2, 251520, Note_on_c, 0, 72, 100
2, 251760, Note_on_c, 0, 96, 0
2, 251760, Note_on_c, 0, 98, 0
2, 251760, Note_on_c, 0, 84, 0
2, 251760, Note_on_c, 0, 86, 0
2, 251760, Note_on_c, 0, 60, 0
2, 251760, Note_on_c, 0, 73, 0
2, 251760, Note_on_c, 0, 72, 0
2, 252000, Note_on_c, 0, 96, 100
2, 252000, Note_on_c, 0, 98, 100
2, 252000, Note_on_c, 0, 84, 100
2, 252000, Note_on_c, 0, 86, 100
2, 252000, Note_on_c, 0, 73, 100
2, 252000, Note_on_c, 0, 72, 100
2, 252240, Note_on_c, 0, 96, 0
2, 252240, Note_on_c, 0, 98, 0
2, 252240, Note_on_c, 0, 84, 0
2, 252240, Note_on_c, 0, 86, 0
2, 252240, Note_on_c, 0, 73, 0
2, 252240, Note_on_c, 0, 72, 0
2, 252480, Note_on_c, 0, 96, 100
2, 252480, Note_on_c, 0, 98, 100
2, 252480, Note_on_c, 0, 84, 100
2, 252480, Note_on_c, 0, 86, 100
2, 252480, Note_on_c, 0, 60, 100
2, 252480, Note_on_c, 0, 73, 100
2, 252480, Note_on_c, 0, 72, 100
2, 252720, Note_on_c, 0, 96, 0
2, 252720, Note_on_c, 0, 98, 0
2, 252720, Note_on_c, 0, 84, 0
2, 252720, Note_on_c, 0, 86, 0
2, 252720, Note_on_c, 0, 60, 0
2, 252720, Note_on_c, 0, 73, 0
2, 252720, Note_on_c, 0, 72, 0
2, 253410, Text_t, "[verse]"
2, 253410, Text_t, "[idle]"
2, 253410, Text_t, "[lighting (blackout)]"
2, 253410, Text_t, "sing_off"
2, 253410, Text_t, "[play]"
2, 253440, Note_on_c, 0, 96, 100
2, 253440, Note_on_c, 0, 98, 100
2, 253440, Note_on_c, 0, 84, 100
2, 253440, Note_on_c, 0, 86, 100
2, 253440, Note_on_c, 0, 60, 100
2, 253440, Note_on_c, 0, 73, 100
2, 253440, Note_on_c, 0, 72, 100
2, 253680, Note_on_c, 0, 96, 0
2, 253680, Note_on_c, 0, 98, 0
2, 253680, Note_on_c, 0, 84, 0
2, 253680, Note_on_c, 0, 86, 0
2, 253680, Note_on_c, 0, 60, 0
2, 253680, Note_on_c, 0, 73, 0
2, 253680, Note_on_c, 0, 72, 0
2, 253920, Note_on_c, 0, 96, 100
2, 253920, Note_on_c, 0, 84, 100
2, 253920, Note_on_c, 0, 72, 100
2, 254160, Note_on_c, 0, 96, 0
2, 254160, Note_on_c, 0, 84, 0
2, 254160, Note_on_c, 0, 72, 0
2, 254400, Note_on_c, 0, 96, 100
2, 254400, Note_on_c, 0, 98, 100
2, 254400, Note_on_c, 0, 84, 100
2, 254400, Note_on_c, 0, 86, 100
2, 254400, Note_on_c, 0, 60, 100
2, 254400, Note_on_c, 0, 73, 100
2, 254400, Note_on_c, 0, 72, 100
2, 254640, Note_on_c, 0, 96, 0
2, 254640, Note_on_c, 0, 98, 0
2, 254640, Note_on_c, 0, 84, 0
2, 254640, Note_on_c, 0, 86, 0
2, 254640, Note_on_c, 0, 60, 0
2, 254640, Note_on_c, 0, 73, 0
2, 254640, Note_on_c, 0, 72, 0
2, 255840, Note_on_c, 0, 96, 100
2, 255840, Note_on_c, 0, 98, 100
2, 255840, Note_on_c, 0, 84, 100
2, 255840, Note_on_c, 0, 86, 100
2, 255840, Note_on_c, 0, 60, 100
2, 255840, Note_on_c, 0, 73, 100
2, 255840, Note_on_c, 0, 72, 100
2, 256080, Note_on_c, 0, 96, 0
2, 256080, Note_on_c, 0, 98, 0
2, 256080, Note_on_c, 0, 84, 0
2, 256080, Note_on_c, 0, 86, 0
2, 256080, Note_on_c, 0, 60, 0
2, 256080, Note_on_c, 0, 73, 0
2, 256080, Note_on_c, 0, 72, 0
2, 256320, Note_on_c, 0, 96, 100
2, 256320, Note_on_c, 0, 84, 100
2, 256320, Note_on_c, 0, 72, 100
2, 256560, Note_on_c, 0, 96, 0
2, 256560, Note_on_c, 0, 84, 0
2, 256560, Note_on_c, 0, 72, 0
2, 256800, Note_on_c, 0, 96, 100
2, 256800, Note_on_c, 0, 98, 100
2, 256800, Note_on_c, 0, 84, 100
2, 256800, Note_on_c, 0, 86, 100
2, 257040, Note_on_c, 0, 96, 0
2, 257040, Note_on_c, 0, 98, 0
2, 257040, Note_on_c, 0, 84, 0
2, 257040, Note_on_c, 0, 86, 0
2, 257280, Note_on_c, 0, 96, 100
2, 257280, Note_on_c, 0, 98, 100
2, 257280, Note_on_c, 0, 84, 100
2, 257280, Note_on_c, 0, 86, 100
2, 257280, Note_on_c, 0, 60, 100
2, 257280, Note_on_c, 0, 73, 100
2, 257280, Note_on_c, 0, 72, 100
2, 257520, Note_on_c, 0, 96, 0
2, 257520, Note_on_c, 0, 98, 0
2, 257520, Note_on_c, 0, 84, 0
2, 257520, Note_on_c, 0, 86, 0
2, 257520, Note_on_c, 0, 60, 0
2, 257520, Note_on_c, 0, 73, 0
2, 257520, Note_on_c, 0, 72, 0
2, 257760, Note_on_c, 0, 96, 100
2, 257760, Note_on_c, 0, 98, 100
2, 257760, Note_on_c, 0, 84, 100
2, 257760, Note_on_c, 0, 86, 100
2, 258000, Note_on_c, 0, 96, 0
2, 258000, Note_on_c, 0, 98, 0
2, 258000, Note_on_c, 0, 84, 0
2, 258000, Note_on_c, 0, 86, 0
2, 258240, Note_on_c, 0, 96, 100
2, 258240, Note_on_c, 0, 98, 100
2, 258240, Note_on_c, 0, 84, 100
2, 258240, Note_on_c, 0, 86, 100
2, 258480, Note_on_c, 0, 96, 0
2, 258480, Note_on_c, 0, 98, 0
2, 258480, Note_on_c, 0, 84, 0
2, 258480, Note_on_c, 0, 86, 0
2, 258720, Note_on_c, 0, 97, 100
2, 258720, Note_on_c, 0, 98, 100
2, 258720, Note_on_c, 0, 85, 100
2, 258720, Note_on_c, 0, 86, 100
2, 258720, Note_on_c, 0, 61, 100
2, 258720, Note_on_c, 0, 74, 100
2, 258720, Note_on_c, 0, 72, 100
2, 258960, Note_on_c, 0, 97, 0
2, 258960, Note_on_c, 0, 98, 0
2, 258960, Note_on_c, 0, 85, 0
2, 258960, Note_on_c, 0, 86, 0
2, 258960, Note_on_c, 0, 61, 0
2, 258960, Note_on_c, 0, 74, 0
2, 258960, Note_on_c, 0, 72, 0
2, 259170, Text_t, "[lighting ()]"
2, 259170, Text_t, "bass_on"
2, 259200, Note_on_c, 0, 97, 100
2, 259200, Note_on_c, 0, 98, 100
2, 259200, Note_on_c, 0, 85, 100
2, 259200, Note_on_c, 0, 86, 100
2, 259440, Note_on_c, 0, 97, 0
2, 259440, Note_on_c, 0, 98, 0
2, 259440, Note_on_c, 0, 85, 0
2, 259440, Note_on_c, 0, 86, 0
2, 259680, Note_on_c, 0, 97, 100
2, 259680, Note_on_c, 0, 98, 100
2, 259680, Note_on_c, 0, 85, 100
2, 259680, Note_on_c, 0, 86, 100
2, 259920, Note_on_c, 0, 97, 0
2, 259920, Note_on_c, 0, 98, 0
2, 259920, Note_on_c, 0, 85, 0
2, 259920, Note_on_c, 0, 86, 0
2, 260160, Note_on_c, 0, 97, 100
2, 260160, Note_on_c, 0, 99, 100
2, 260160, Note_on_c, 0, 87, 100
2, 260160, Note_on_c, 0, 62, 100
2, 260160, Note_on_c, 0, 75, 100
2, 260400, Note_on_c, 0, 97, 0
2, 260400, Note_on_c, 0, 99, 0
2, 260400, Note_on_c, 0, 87, 0
2, 260400, Note_on_c, 0, 62, 0
2, 260400, Note_on_c, 0, 75, 0
2, 260640, Note_on_c, 0, 97, 100
2, 260640, Note_on_c, 0, 99, 100
2, 260640, Note_on_c, 0, 87, 100
2, 260880, Note_on_c, 0, 97, 0
2, 260880, Note_on_c, 0, 99, 0
2, 260880, Note_on_c, 0, 87, 0
2, 261090, Note_on_c, 0, 106, 0
2, 261090, Note_on_c, 0, 94, 0
2, 261090, Note_on_c, 0, 70, 0
2, 261090, Note_on_c, 0, 82, 0
2, 261090, Note_on_c, 0, 105, 100
2, 261090, Note_on_c, 0, 93, 100
2, 261090, Note_on_c, 0, 69, 100
2, 261090, Note_on_c, 0, 81, 100
2, 261120, Note_on_c, 0, 96, 100
2, 261120, Note_on_c, 0, 98, 100
2, 261120, Note_on_c, 0, 84, 100
2, 261120, Note_on_c, 0, 86, 100
2, 261120, Note_on_c, 0, 60, 100
2, 261120, Note_on_c, 0, 73, 100
2, 261120, Note_on_c, 0, 72, 100
2, 261360, Note_on_c, 0, 96, 0
2, 261360, Note_on_c, 0, 98, 0
2, 261360, Note_on_c, 0, 84, 0
2, 261360, Note_on_c, 0, 86, 0
2, 261360, Note_on_c, 0, 60, 0
2, 261360, Note_on_c, 0, 73, 0
2, 261360, Note_on_c, 0, 72, 0
2, 261600, Note_on_c, 0, 96, 100
2, 261600, Note_on_c, 0, 98, 100
2, 261600, Note_on_c, 0, 84, 100
2, 261600, Note_on_c, 0, 86, 100
2, 261600, Note_on_c, 0, 73, 100
2, 261600, Note_on_c, 0, 72, 100
2, 261840, Note_on_c, 0, 96, 0
2, 261840, Note_on_c, 0, 98, 0
2, 261840, Note_on_c, 0, 84, 0
2, 261840, Note_on_c, 0, 86, 0
2, 261840, Note_on_c, 0, 73, 0
2, 261840, Note_on_c, 0, 72, 0
2, 262080, Note_on_c, 0, 96, 100
2, 262080, Note_on_c, 0, 98, 100
2, 262080, Note_on_c, 0, 84, 100
2, 262080, Note_on_c, 0, 86, 100
2, 262080, Note_on_c, 0, 60, 100
2, 262080, Note_on_c, 0, 73, 100
2, 262080, Note_on_c, 0, 72, 100
2, 262320, Note_on_c, 0, 96, 0
2, 262320, Note_on_c, 0, 98, 0
2, 262320, Note_on_c, 0, 84, 0
2, 262320, Note_on_c, 0, 86, 0
2, 262320, Note_on_c, 0, 60, 0
2, 262320, Note_on_c, 0, 73, 0
2, 262320, Note_on_c, 0, 72, 0
2, 263010, Text_t, "[idle]"
2, 263010, Text_t, "[lighting (blackout)]"
2, 263520, Text_t, "[play]"
2, 263520, Note_on_c, 0, 96, 100
2, 263520, Note_on_c, 0, 98, 100
2, 263520, Note_on_c, 0, 84, 100
2, 263520, Note_on_c, 0, 86, 100
2, 263520, Note_on_c, 0, 60, 100
2, 263520, Note_on_c, 0, 73, 100
2, 263520, Note_on_c, 0, 72, 100
2, 263760, Note_on_c, 0, 96, 0
2, 263760, Note_on_c, 0, 98, 0
2, 263760, Note_on_c, 0, 84, 0
2, 263760, Note_on_c, 0, 86, 0
2, 263760, Note_on_c, 0, 60, 0
2, 263760, Note_on_c, 0, 73, 0
2, 263760, Note_on_c, 0, 72, 0
2, 264000, Note_on_c, 0, 96, 100
2, 264000, Note_on_c, 0, 84, 100
2, 264000, Note_on_c, 0, 72, 100
2, 264240, Note_on_c, 0, 96, 0
2, 264240, Note_on_c, 0, 84, 0
2, 264240, Note_on_c, 0, 72, 0
2, 264480, Note_on_c, 0, 96, 100
2, 264480, Note_on_c, 0, 98, 100
2, 264480, Note_on_c, 0, 84, 100
2, 264480, Note_on_c, 0, 86, 100
2, 264480, Note_on_c, 0, 60, 100
2, 264480, Note_on_c, 0, 73, 100
2, 264480, Note_on_c, 0, 72, 100
2, 264720, Note_on_c, 0, 96, 0
2, 264720, Note_on_c, 0, 98, 0
2, 264720, Note_on_c, 0, 84, 0
2, 264720, Note_on_c, 0, 86, 0
2, 264720, Note_on_c, 0, 60, 0
2, 264720, Note_on_c, 0, 73, 0
2, 264720, Note_on_c, 0, 72, 0
2, 266850, Text_t, "[lighting ()]"
2, 266850, Text_t, "bass_on"
2, 266880, Note_on_c, 0, 96, 100
2, 266880, Note_on_c, 0, 98, 100
2, 266880, Note_on_c, 0, 84, 100
2, 266880, Note_on_c, 0, 86, 100
2, 266880, Note_on_c, 0, 60, 100
2, 266880, Note_on_c, 0, 73, 100
2, 266880, Note_on_c, 0, 72, 100
2, 267120, Note_on_c, 0, 96, 0
2, 267120, Note_on_c, 0, 98, 0
2, 267120, Note_on_c, 0, 84, 0
2, 267120, Note_on_c, 0, 86, 0
2, 267120, Note_on_c, 0, 60, 0
2, 267120, Note_on_c, 0, 73, 0
2, 267120, Note_on_c, 0, 72, 0
2, 267360, Note_on_c, 0, 96, 100
2, 267360, Note_on_c, 0, 98, 100
2, 267360, Note_on_c, 0, 84, 100
2, 267360, Note_on_c, 0, 86, 100
2, 267360, Note_on_c, 0, 73, 100
2, 267360, Note_on_c, 0, 72, 100
2, 267600, Note_on_c, 0, 96, 0
2, 267600, Note_on_c, 0, 98, 0
2, 267600, Note_on_c, 0, 84, 0
2, 267600, Note_on_c, 0, 86, 0
2, 267600, Note_on_c, 0, 73, 0
2, 267600, Note_on_c, 0, 72, 0
2, 267840, Note_on_c, 0, 96, 100
2, 267840, Note_on_c, 0, 98, 100
2, 267840, Note_on_c, 0, 84, 100
2, 267840, Note_on_c, 0, 86, 100
2, 267840, Note_on_c, 0, 60, 100
2, 267840, Note_on_c, 0, 73, 100
2, 267840, Note_on_c, 0, 72, 100
2, 268080, Note_on_c, 0, 96, 0
2, 268080, Note_on_c, 0, 98, 0
2, 268080, Note_on_c, 0, 84, 0
2, 268080, Note_on_c, 0, 86, 0
2, 268080, Note_on_c, 0, 60, 0
2, 268080, Note_on_c, 0, 73, 0
2, 268080, Note_on_c, 0, 72, 0
2, 268800, Note_on_c, 0, 96, 100
2, 268800, Note_on_c, 0, 98, 100
2, 268800, Note_on_c, 0, 84, 100
2, 268800, Note_on_c, 0, 86, 100
2, 268800, Note_on_c, 0, 60, 100
2, 268800, Note_on_c, 0, 73, 100
2, 268800, Note_on_c, 0, 72, 100
2, 269040, Note_on_c, 0, 96, 0
2, 269040, Note_on_c, 0, 98, 0
2, 269040, Note_on_c, 0, 84, 0
2, 269040, Note_on_c, 0, 86, 0
2, 269040, Note_on_c, 0, 60, 0
2, 269040, Note_on_c, 0, 73, 0
2, 269040, Note_on_c, 0, 72, 0
2, 269280, Note_on_c, 0, 96, 100
2, 269280, Note_on_c, 0, 84, 100
2, 269280, Note_on_c, 0, 72, 100
2, 269520, Note_on_c, 0, 96, 0
2, 269520, Note_on_c, 0, 84, 0
2, 269520, Note_on_c, 0, 72, 0
2, 269760, Note_on_c, 0, 96, 100
2, 269760, Note_on_c, 0, 98, 100
2, 269760, Note_on_c, 0, 84, 100
2, 269760, Note_on_c, 0, 86, 100
2, 269760, Note_on_c, 0, 60, 100
2, 269760, Note_on_c, 0, 73, 100
2, 269760, Note_on_c, 0, 72, 100
2, 270000, Note_on_c, 0, 96, 0
2, 270000, Note_on_c, 0, 98, 0
2, 270000, Note_on_c, 0, 84, 0
2, 270000, Note_on_c, 0, 86, 0
2, 270000, Note_on_c, 0, 60, 0
2, 270000, Note_on_c, 0, 73, 0
2, 270000, Note_on_c, 0, 72, 0
2, 271200, Note_on_c, 0, 96, 100
2, 271200, Note_on_c, 0, 98, 100
2, 271200, Note_on_c, 0, 84, 100
2, 271200, Note_on_c, 0, 86, 100
2, 271200, Note_on_c, 0, 60, 100
2, 271200, Note_on_c, 0, 73, 100
2, 271200, Note_on_c, 0, 72, 100
2, 271440, Note_on_c, 0, 96, 0
2, 271440, Note_on_c, 0, 98, 0
2, 271440, Note_on_c, 0, 84, 0
2, 271440, Note_on_c, 0, 86, 0
2, 271440, Note_on_c, 0, 60, 0
2, 271440, Note_on_c, 0, 73, 0
2, 271440, Note_on_c, 0, 72, 0
2, 271680, Note_on_c, 0, 96, 100
2, 271680, Note_on_c, 0, 84, 100
2, 271680, Note_on_c, 0, 72, 100
2, 271920, Note_on_c, 0, 96, 0
2, 271920, Note_on_c, 0, 84, 0
2, 271920, Note_on_c, 0, 72, 0
2, 272160, Note_on_c, 0, 96, 100
2, 272160, Note_on_c, 0, 98, 100
2, 272160, Note_on_c, 0, 84, 100
2, 272160, Note_on_c, 0, 86, 100
2, 272400, Note_on_c, 0, 96, 0
2, 272400, Note_on_c, 0, 98, 0
2, 272400, Note_on_c, 0, 84, 0
2, 272400, Note_on_c, 0, 86, 0
2, 272640, Note_on_c, 0, 96, 100
2, 272640, Note_on_c, 0, 98, 100
2, 272640, Note_on_c, 0, 84, 100
2, 272640, Note_on_c, 0, 86, 100
2, 272640, Note_on_c, 0, 60, 100
2, 272640, Note_on_c, 0, 73, 100
2, 272640, Note_on_c, 0, 72, 100
2, 272880, Note_on_c, 0, 96, 0
2, 272880, Note_on_c, 0, 98, 0
2, 272880, Note_on_c, 0, 84, 0
2, 272880, Note_on_c, 0, 86, 0
2, 272880, Note_on_c, 0, 60, 0
2, 272880, Note_on_c, 0, 73, 0
2, 272880, Note_on_c, 0, 72, 0
2, 273120, Note_on_c, 0, 96, 100
2, 273120, Note_on_c, 0, 98, 100
2, 273120, Note_on_c, 0, 84, 100
2, 273120, Note_on_c, 0, 86, 100
2, 273360, Note_on_c, 0, 96, 0
2, 273360, Note_on_c, 0, 98, 0
2, 273360, Note_on_c, 0, 84, 0
2, 273360, Note_on_c, 0, 86, 0
2, 273600, Note_on_c, 0, 96, 100
2, 273600, Note_on_c, 0, 98, 100
2, 273600, Note_on_c, 0, 84, 100
2, 273600, Note_on_c, 0, 86, 100
2, 273840, Note_on_c, 0, 96, 0
2, 273840, Note_on_c, 0, 98, 0
2, 273840, Note_on_c, 0, 84, 0
2, 273840, Note_on_c, 0, 86, 0
2, 274080, Note_on_c, 0, 97, 100
2, 274080, Note_on_c, 0, 98, 100
2, 274080, Note_on_c, 0, 85, 100
2, 274080, Note_on_c, 0, 86, 100
2, 274080, Note_on_c, 0, 61, 100
2, 274080, Note_on_c, 0, 74, 100
2, 274080, Note_on_c, 0, 72, 100
2, 274320, Note_on_c, 0, 97, 0
2, 274320, Note_on_c, 0, 98, 0
2, 274320, Note_on_c, 0, 85, 0
2, 274320, Note_on_c, 0, 86, 0
2, 274320, Note_on_c, 0, 61, 0
2, 274320, Note_on_c, 0, 74, 0
2, 274320, Note_on_c, 0, 72, 0
2, 274560, Note_on_c, 0, 97, 100
2, 274560, Note_on_c, 0, 98, 100
2, 274560, Note_on_c, 0, 85, 100
2, 274560, Note_on_c, 0, 86, 100
2, 274800, Note_on_c, 0, 97, 0
2, 274800, Note_on_c, 0, 98, 0
2, 274800, Note_on_c, 0, 85, 0
2, 274800, Note_on_c, 0, 86, 0
2, 275040, Note_on_c, 0, 97, 100
2, 275040, Note_on_c, 0, 98, 100
2, 275040, Note_on_c, 0, 85, 100
2, 275040, Note_on_c, 0, 86, 100
2, 275280, Note_on_c, 0, 97, 0
2, 275280, Note_on_c, 0, 98, 0
2, 275280, Note_on_c, 0, 85, 0
2, 275280, Note_on_c, 0, 86, 0
2, 275520, Note_on_c, 0, 97, 100
2, 275520, Note_on_c, 0, 99, 100
2, 275520, Note_on_c, 0, 87, 100
2, 275520, Note_on_c, 0, 62, 100
2, 275520, Note_on_c, 0, 75, 100
2, 275760, Note_on_c, 0, 97, 0
2, 275760, Note_on_c, 0, 99, 0
2, 275760, Note_on_c, 0, 87, 0
2, 275760, Note_on_c, 0, 62, 0
2, 275760, Note_on_c, 0, 75, 0
2, 276000, Note_on_c, 0, 97, 100
2, 276000, Note_on_c, 0, 99, 100
2, 276000, Note_on_c, 0, 87, 100
2, 276240, Note_on_c, 0, 97, 0
2, 276240, Note_on_c, 0, 99, 0
2, 276240, Note_on_c, 0, 87, 0
2, 276450, Note_on_c, 0, 105, 0
2, 276450, Note_on_c, 0, 93, 0
2, 276450, Note_on_c, 0, 69, 0
2, 276450, Note_on_c, 0, 81, 0
2, 276450, Note_on_c, 0, 106, 100
2, 276450, Note_on_c, 0, 94, 100
2, 276450, Note_on_c, 0, 70, 100
2, 276450, Note_on_c, 0, 82, 100
2, 276480, Note_on_c, 0, 96, 100
2, 276480, Note_on_c, 0, 98, 100
2, 276480, Note_on_c, 0, 84, 100
2, 276480, Note_on_c, 0, 86, 100
2, 276480, Note_on_c, 0, 60, 100
2, 276480, Note_on_c, 0, 73, 100
2, 276480, Note_on_c, 0, 72, 100
2, 276720, Note_on_c, 0, 96, 0
2, 276720, Note_on_c, 0, 98, 0
2, 276720, Note_on_c, 0, 84, 0
2, 276720, Note_on_c, 0, 86, 0
2, 276720, Note_on_c, 0, 60, 0
2, 276720, Note_on_c, 0, 73, 0
2, 276720, Note_on_c, 0, 72, 0
2, 276960, Note_on_c, 0, 96, 100
2, 276960, Note_on_c, 0, 98, 100
2, 276960, Note_on_c, 0, 84, 100
2, 276960, Note_on_c, 0, 86, 100
2, 276960, Note_on_c, 0, 73, 100
2, 276960, Note_on_c, 0, 72, 100
2, 277200, Note_on_c, 0, 96, 0
2, 277200, Note_on_c, 0, 98, 0
2, 277200, Note_on_c, 0, 84, 0
2, 277200, Note_on_c, 0, 86, 0
2, 277200, Note_on_c, 0, 73, 0
2, 277200, Note_on_c, 0, 72, 0
2, 277440, Note_on_c, 0, 96, 100
2, 277440, Note_on_c, 0, 98, 100
2, 277440, Note_on_c, 0, 84, 100
2, 277440, Note_on_c, 0, 86, 100
2, 277440, Note_on_c, 0, 60, 100
2, 277440, Note_on_c, 0, 108, 100
2, 277440, Note_on_c, 0, 73, 100
2, 277440, Note_on_c, 0, 72, 100
2, 277680, Note_on_c, 0, 96, 0
2, 277680, Note_on_c, 0, 98, 0
2, 277680, Note_on_c, 0, 84, 0
2, 277680, Note_on_c, 0, 86, 0
2, 277680, Note_on_c, 0, 60, 0
2, 277680, Note_on_c, 0, 73, 0
2, 277680, Note_on_c, 0, 72, 0
2, 278160, Note_on_c, 0, 108, 0
2, 278400, Note_on_c, 0, 108, 100
2, 278880, Note_on_c, 0, 96, 100
2, 278880, Note_on_c, 0, 98, 100
2, 278880, Note_on_c, 0, 84, 100
2, 278880, Note_on_c, 0, 86, 100
2, 278880, Note_on_c, 0, 60, 100
2, 278880, Note_on_c, 0, 73, 100
2, 278880, Note_on_c, 0, 72, 100
2, 279120, Note_on_c, 0, 108, 0
2, 279120, Note_on_c, 0, 96, 0
2, 279120, Note_on_c, 0, 98, 0
2, 279120, Note_on_c, 0, 84, 0
2, 279120, Note_on_c, 0, 86, 0
2, 279120, Note_on_c, 0, 60, 0
2, 279120, Note_on_c, 0, 73, 0
2, 279120, Note_on_c, 0, 72, 0
2, 279360, Note_on_c, 0, 96, 100
2, 279360, Note_on_c, 0, 84, 100
2, 279360, Note_on_c, 0, 108, 100
2, 279360, Note_on_c, 0, 72, 100
2, 279600, Note_on_c, 0, 96, 0
2, 279600, Note_on_c, 0, 84, 0
2, 279600, Note_on_c, 0, 72, 0
2, 279840, Note_on_c, 0, 96, 100
2, 279840, Note_on_c, 0, 98, 100
2, 279840, Note_on_c, 0, 84, 100
2, 279840, Note_on_c, 0, 86, 100
2, 279840, Note_on_c, 0, 60, 100
2, 279840, Note_on_c, 0, 73, 100
2, 279840, Note_on_c, 0, 72, 100
2, 280080, Note_on_c, 0, 108, 0
2, 280080, Note_on_c, 0, 96, 0
2, 280080, Note_on_c, 0, 98, 0
2, 280080, Note_on_c, 0, 84, 0
2, 280080, Note_on_c, 0, 86, 0
2, 280080, Note_on_c, 0, 60, 0
2, 280080, Note_on_c, 0, 73, 0
2, 280080, Note_on_c, 0, 72, 0
2, 280320, Note_on_c, 0, 108, 100
2, 281040, Note_on_c, 0, 108, 0
2, 281280, Note_on_c, 0, 108, 100
2, 281760, Note_on_c, 0, 108, 0
2, 282240, Note_on_c, 0, 96, 100
2, 282240, Note_on_c, 0, 98, 100
2, 282240, Note_on_c, 0, 84, 100
2, 282240, Note_on_c, 0, 86, 100
2, 282240, Note_on_c, 0, 60, 100
2, 282240, Note_on_c, 0, 108, 100
2, 282240, Note_on_c, 0, 73, 100
2, 282240, Note_on_c, 0, 72, 100
2, 282480, Note_on_c, 0, 96, 0
2, 282480, Note_on_c, 0, 98, 0
2, 282480, Note_on_c, 0, 84, 0
2, 282480, Note_on_c, 0, 86, 0
2, 282480, Note_on_c, 0, 60, 0
2, 282480, Note_on_c, 0, 73, 0
2, 282480, Note_on_c, 0, 72, 0
2, 282720, Note_on_c, 0, 96, 100
2, 282720, Note_on_c, 0, 98, 100
2, 282720, Note_on_c, 0, 84, 100
2, 282720, Note_on_c, 0, 86, 100
2, 282720, Note_on_c, 0, 73, 100
2, 282720, Note_on_c, 0, 72, 100
2, 282960, Note_on_c, 0, 96, 0
2, 282960, Note_on_c, 0, 98, 0
2, 282960, Note_on_c, 0, 84, 0
2, 282960, Note_on_c, 0, 86, 0
2, 282960, Note_on_c, 0, 73, 0
2, 282960, Note_on_c, 0, 72, 0
2, 283040, Note_on_c, 0, 108, 0
2, 283200, Note_on_c, 0, 96, 100
2, 283200, Note_on_c, 0, 98, 100
2, 283200, Note_on_c, 0, 84, 100
2, 283200, Note_on_c, 0, 86, 100
2, 283200, Note_on_c, 0, 60, 100
2, 283200, Note_on_c, 0, 108, 100
2, 283200, Note_on_c, 0, 73, 100
2, 283200, Note_on_c, 0, 72, 100
2, 283440, Note_on_c, 0, 96, 0
2, 283440, Note_on_c, 0, 98, 0
2, 283440, Note_on_c, 0, 84, 0
2, 283440, Note_on_c, 0, 86, 0
2, 283440, Note_on_c, 0, 60, 0
2, 283440, Note_on_c, 0, 73, 0
2, 283440, Note_on_c, 0, 72, 0
2, 283680, Note_on_c, 0, 108, 0
2, 284160, Note_on_c, 0, 96, 100
2, 284160, Note_on_c, 0, 98, 100
2, 284160, Note_on_c, 0, 84, 100
2, 284160, Note_on_c, 0, 86, 100
2, 284160, Note_on_c, 0, 60, 100
2, 284160, Note_on_c, 0, 108, 100
2, 284160, Note_on_c, 0, 73, 100
2, 284160, Note_on_c, 0, 72, 100
2, 284400, Note_on_c, 0, 96, 0
2, 284400, Note_on_c, 0, 98, 0
2, 284400, Note_on_c, 0, 84, 0
2, 284400, Note_on_c, 0, 86, 0
2, 284400, Note_on_c, 0, 60, 0
2, 284400, Note_on_c, 0, 73, 0
2, 284400, Note_on_c, 0, 72, 0
2, 284640, Note_on_c, 0, 96, 100
2, 284640, Note_on_c, 0, 84, 100
2, 284640, Note_on_c, 0, 72, 100
2, 284880, Note_on_c, 0, 108, 0
2, 284880, Note_on_c, 0, 96, 0
2, 284880, Note_on_c, 0, 84, 0
2, 284880, Note_on_c, 0, 72, 0
2, 285120, Note_on_c, 0, 96, 100
2, 285120, Note_on_c, 0, 98, 100
2, 285120, Note_on_c, 0, 84, 100
2, 285120, Note_on_c, 0, 86, 100
2, 285120, Note_on_c, 0, 60, 100
2, 285120, Note_on_c, 0, 108, 100
2, 285120, Note_on_c, 0, 73, 100
2, 285120, Note_on_c, 0, 72, 100
2, 285360, Note_on_c, 0, 96, 0
2, 285360, Note_on_c, 0, 98, 0
2, 285360, Note_on_c, 0, 84, 0
2, 285360, Note_on_c, 0, 86, 0
2, 285360, Note_on_c, 0, 60, 0
2, 285360, Note_on_c, 0, 73, 0
2, 285360, Note_on_c, 0, 72, 0
2, 286560, Note_on_c, 0, 96, 100
2, 286560, Note_on_c, 0, 98, 100
2, 286560, Note_on_c, 0, 84, 100
2, 286560, Note_on_c, 0, 86, 100
2, 286560, Note_on_c, 0, 60, 100
2, 286560, Note_on_c, 0, 73, 100
2, 286560, Note_on_c, 0, 72, 100
2, 286800, Note_on_c, 0, 108, 0
2, 286800, Note_on_c, 0, 96, 0
2, 286800, Note_on_c, 0, 98, 0
2, 286800, Note_on_c, 0, 84, 0
2, 286800, Note_on_c, 0, 86, 0
2, 286800, Note_on_c, 0, 60, 0
2, 286800, Note_on_c, 0, 73, 0
2, 286800, Note_on_c, 0, 72, 0
2, 287040, Note_on_c, 0, 96, 100
2, 287040, Note_on_c, 0, 84, 100
2, 287040, Note_on_c, 0, 108, 100
2, 287040, Note_on_c, 0, 72, 100
2, 287280, Note_on_c, 0, 96, 0
2, 287280, Note_on_c, 0, 84, 0
2, 287280, Note_on_c, 0, 72, 0
2, 287520, Note_on_c, 0, 96, 100
2, 287520, Note_on_c, 0, 98, 100
2, 287520, Note_on_c, 0, 84, 100
2, 287520, Note_on_c, 0, 86, 100
2, 287760, Note_on_c, 0, 96, 0
2, 287760, Note_on_c, 0, 98, 0
2, 287760, Note_on_c, 0, 84, 0
2, 287760, Note_on_c, 0, 86, 0
2, 288000, Note_on_c, 0, 96, 100
2, 288000, Note_on_c, 0, 98, 100
2, 288000, Note_on_c, 0, 84, 100
2, 288000, Note_on_c, 0, 86, 100
2, 288000, Note_on_c, 0, 60, 100
2, 288000, Note_on_c, 0, 73, 100
2, 288000, Note_on_c, 0, 72, 100
2, 288240, Note_on_c, 0, 96, 0
2, 288240, Note_on_c, 0, 98, 0
2, 288240, Note_on_c, 0, 84, 0
2, 288240, Note_on_c, 0, 86, 0
2, 288240, Note_on_c, 0, 60, 0
2, 288240, Note_on_c, 0, 73, 0
2, 288240, Note_on_c, 0, 72, 0
2, 288480, Note_on_c, 0, 108, 0
2, 288480, Note_on_c, 0, 96, 100
2, 288480, Note_on_c, 0, 98, 100
2, 288480, Note_on_c, 0, 84, 100
2, 288480, Note_on_c, 0, 86, 100
2, 288720, Note_on_c, 0, 96, 0
2, 288720, Note_on_c, 0, 98, 0
2, 288720, Note_on_c, 0, 84, 0
2, 288720, Note_on_c, 0, 86, 0
2, 288960, Note_on_c, 0, 96, 100
2, 288960, Note_on_c, 0, 98, 100
2, 288960, Note_on_c, 0, 84, 100
2, 288960, Note_on_c, 0, 86, 100
2, 289200, Note_on_c, 0, 96, 0
2, 289200, Note_on_c, 0, 98, 0
2, 289200, Note_on_c, 0, 84, 0
2, 289200, Note_on_c, 0, 86, 0
2, 289440, Note_on_c, 0, 97, 100
2, 289440, Note_on_c, 0, 98, 100
2, 289440, Note_on_c, 0, 85, 100
2, 289440, Note_on_c, 0, 86, 100
2, 289440, Note_on_c, 0, 61, 100
2, 289440, Note_on_c, 0, 74, 100
2, 289440, Note_on_c, 0, 72, 100
2, 289680, Note_on_c, 0, 97, 0
2, 289680, Note_on_c, 0, 98, 0
2, 289680, Note_on_c, 0, 85, 0
2, 289680, Note_on_c, 0, 86, 0
2, 289680, Note_on_c, 0, 61, 0
2, 289680, Note_on_c, 0, 74, 0
2, 289680, Note_on_c, 0, 72, 0
2, 289920, Note_on_c, 0, 97, 100
2, 289920, Note_on_c, 0, 98, 100
2, 289920, Note_on_c, 0, 85, 100
2, 289920, Note_on_c, 0, 86, 100
2, 290160, Note_on_c, 0, 97, 0
2, 290160, Note_on_c, 0, 98, 0
2, 290160, Note_on_c, 0, 85, 0
2, 290160, Note_on_c, 0, 86, 0
2, 290400, Note_on_c, 0, 97, 100
2, 290400, Note_on_c, 0, 98, 100
2, 290400, Note_on_c, 0, 85, 100
2, 290400, Note_on_c, 0, 86, 100
2, 290640, Note_on_c, 0, 97, 0
2, 290640, Note_on_c, 0, 98, 0
2, 290640, Note_on_c, 0, 85, 0
2, 290640, Note_on_c, 0, 86, 0
2, 290880, Note_on_c, 0, 97, 100
2, 290880, Note_on_c, 0, 99, 100
2, 290880, Note_on_c, 0, 87, 100
2, 290880, Note_on_c, 0, 62, 100
2, 290880, Note_on_c, 0, 75, 100
2, 291120, Note_on_c, 0, 97, 0
2, 291120, Note_on_c, 0, 99, 0
2, 291120, Note_on_c, 0, 87, 0
2, 291120, Note_on_c, 0, 62, 0
2, 291120, Note_on_c, 0, 75, 0
2, 291360, Note_on_c, 0, 97, 100
2, 291360, Note_on_c, 0, 99, 100
2, 291360, Note_on_c, 0, 87, 100
2, 291600, Note_on_c, 0, 97, 0
2, 291600, Note_on_c, 0, 99, 0
2, 291600, Note_on_c, 0, 87, 0
2, 291810, Note_on_c, 0, 106, 0
2, 291810, Note_on_c, 0, 94, 0
2, 291810, Note_on_c, 0, 70, 0
2, 291810, Note_on_c, 0, 82, 0
2, 291810, Note_on_c, 0, 105, 100
2, 291810, Note_on_c, 0, 93, 100
2, 291810, Note_on_c, 0, 69, 100
2, 291810, Note_on_c, 0, 81, 100
2, 291840, Note_on_c, 0, 96, 100
2, 291840, Note_on_c, 0, 98, 100
2, 291840, Note_on_c, 0, 84, 100
2, 291840, Note_on_c, 0, 86, 100
2, 291840, Note_on_c, 0, 60, 100
2, 291840, Note_on_c, 0, 73, 100
2, 291840, Note_on_c, 0, 72, 100
2, 292080, Note_on_c, 0, 96, 0
2, 292080, Note_on_c, 0, 98, 0
2, 292080, Note_on_c, 0, 84, 0
2, 292080, Note_on_c, 0, 86, 0
2, 292080, Note_on_c, 0, 60, 0
2, 292080, Note_on_c, 0, 73, 0
2, 292080, Note_on_c, 0, 72, 0
2, 292320, Note_on_c, 0, 96, 100
2, 292320, Note_on_c, 0, 98, 100
2, 292320, Note_on_c, 0, 84, 100
2, 292320, Note_on_c, 0, 86, 100
2, 292320, Note_on_c, 0, 73, 100
2, 292320, Note_on_c, 0, 72, 100
2, 292560, Note_on_c, 0, 96, 0
2, 292560, Note_on_c, 0, 98, 0
2, 292560, Note_on_c, 0, 84, 0
2, 292560, Note_on_c, 0, 86, 0
2, 292560, Note_on_c, 0, 73, 0
2, 292560, Note_on_c, 0, 72, 0
2, 292800, Note_on_c, 0, 96, 100
2, 292800, Note_on_c, 0, 98, 100
2, 292800, Note_on_c, 0, 84, 100
2, 292800, Note_on_c, 0, 86, 100
2, 292800, Note_on_c, 0, 60, 100
2, 292800, Note_on_c, 0, 108, 100
2, 292800, Note_on_c, 0, 73, 100
2, 292800, Note_on_c, 0, 72, 100
2, 293040, Note_on_c, 0, 96, 0
2, 293040, Note_on_c, 0, 98, 0
2, 293040, Note_on_c, 0, 84, 0
2, 293040, Note_on_c, 0, 86, 0
2, 293040, Note_on_c, 0, 60, 0
2, 293040, Note_on_c, 0, 73, 0
2, 293040, Note_on_c, 0, 72, 0
2, 293520, Note_on_c, 0, 108, 0
2, 293760, Note_on_c, 0, 108, 100
2, 294240, Note_on_c, 0, 96, 100
2, 294240, Note_on_c, 0, 98, 100
2, 294240, Note_on_c, 0, 84, 100
2, 294240, Note_on_c, 0, 86, 100
2, 294240, Note_on_c, 0, 60, 100
2, 294240, Note_on_c, 0, 73, 100
2, 294240, Note_on_c, 0, 72, 100
2, 294480, Note_on_c, 0, 108, 0
2, 294480, Note_on_c, 0, 96, 0
2, 294480, Note_on_c, 0, 98, 0
2, 294480, Note_on_c, 0, 84, 0
2, 294480, Note_on_c, 0, 86, 0
2, 294480, Note_on_c, 0, 60, 0
2, 294480, Note_on_c, 0, 73, 0
2, 294480, Note_on_c, 0, 72, 0
2, 294720, Note_on_c, 0, 96, 100
2, 294720, Note_on_c, 0, 84, 100
2, 294720, Note_on_c, 0, 108, 100
2, 294720, Note_on_c, 0, 72, 100
2, 294960, Note_on_c, 0, 96, 0
2, 294960, Note_on_c, 0, 84, 0
2, 294960, Note_on_c, 0, 72, 0
2, 295200, Note_on_c, 0, 108, 0
2, 295200, Note_on_c, 0, 96, 100
2, 295200, Note_on_c, 0, 98, 100
2, 295200, Note_on_c, 0, 84, 100
2, 295200, Note_on_c, 0, 86, 100
2, 295200, Note_on_c, 0, 60, 100
2, 295200, Note_on_c, 0, 73, 100
2, 295200, Note_on_c, 0, 72, 100
2, 295440, Note_on_c, 0, 96, 0
2, 295440, Note_on_c, 0, 98, 0
2, 295440, Note_on_c, 0, 84, 0
2, 295440, Note_on_c, 0, 86, 0
2, 295440, Note_on_c, 0, 60, 0
2, 295440, Note_on_c, 0, 73, 0
2, 295440, Note_on_c, 0, 72, 0
2, 295680, Note_on_c, 0, 108, 100
2, 296400, Note_on_c, 0, 108, 0
2, 296640, Note_on_c, 0, 108, 100
2, 297360, Note_on_c, 0, 108, 0
2, 297600, Note_on_c, 0, 96, 100
2, 297600, Note_on_c, 0, 98, 100
2, 297600, Note_on_c, 0, 84, 100
2, 297600, Note_on_c, 0, 86, 100
2, 297600, Note_on_c, 0, 60, 100
2, 297600, Note_on_c, 0, 108, 100
2, 297600, Note_on_c, 0, 73, 100
2, 297600, Note_on_c, 0, 72, 100
2, 297840, Note_on_c, 0, 96, 0
2, 297840, Note_on_c, 0, 98, 0
2, 297840, Note_on_c, 0, 84, 0
2, 297840, Note_on_c, 0, 86, 0
2, 297840, Note_on_c, 0, 60, 0
2, 297840, Note_on_c, 0, 73, 0
2, 297840, Note_on_c, 0, 72, 0
2, 298080, Note_on_c, 0, 108, 0
2, 298080, Note_on_c, 0, 96, 100
2, 298080, Note_on_c, 0, 98, 100
2, 298080, Note_on_c, 0, 84, 100
2, 298080, Note_on_c, 0, 86, 100
2, 298080, Note_on_c, 0, 73, 100
2, 298080, Note_on_c, 0, 72, 100
2, 298320, Note_on_c, 0, 96, 0
2, 298320, Note_on_c, 0, 98, 0
2, 298320, Note_on_c, 0, 84, 0
2, 298320, Note_on_c, 0, 86, 0
2, 298320, Note_on_c, 0, 73, 0
2, 298320, Note_on_c, 0, 72, 0
2, 298560, Note_on_c, 0, 96, 100
2, 298560, Note_on_c, 0, 98, 100
2, 298560, Note_on_c, 0, 84, 100
2, 298560, Note_on_c, 0, 86, 100
2, 298560, Note_on_c, 0, 60, 100
2, 298560, Note_on_c, 0, 108, 100
2, 298560, Note_on_c, 0, 73, 100
2, 298560, Note_on_c, 0, 72, 100
2, 298800, Note_on_c, 0, 96, 0
2, 298800, Note_on_c, 0, 98, 0
2, 298800, Note_on_c, 0, 84, 0
2, 298800, Note_on_c, 0, 86, 0
2, 298800, Note_on_c, 0, 60, 0
2, 298800, Note_on_c, 0, 73, 0
2, 298800, Note_on_c, 0, 72, 0
2, 299040, Note_on_c, 0, 108, 0
2, 299490, Text_t, "sing_on"
2, 299520, Note_on_c, 0, 96, 100
2, 299520, Note_on_c, 0, 98, 100
2, 299520, Note_on_c, 0, 84, 100
2, 299520, Note_on_c, 0, 86, 100
2, 299520, Note_on_c, 0, 60, 100
2, 299520, Note_on_c, 0, 108, 100
2, 299520, Note_on_c, 0, 73, 100
2, 299520, Note_on_c, 0, 72, 100
2, 299760, Note_on_c, 0, 96, 0
2, 299760, Note_on_c, 0, 98, 0
2, 299760, Note_on_c, 0, 84, 0
2, 299760, Note_on_c, 0, 86, 0
2, 299760, Note_on_c, 0, 60, 0
2, 299760, Note_on_c, 0, 73, 0
2, 299760, Note_on_c, 0, 72, 0
2, 300000, Note_on_c, 0, 96, 100
2, 300000, Note_on_c, 0, 84, 100
2, 300000, Note_on_c, 0, 72, 100
2, 300240, Note_on_c, 0, 108, 0
2, 300240, Note_on_c, 0, 96, 0
2, 300240, Note_on_c, 0, 84, 0
2, 300240, Note_on_c, 0, 72, 0
2, 300480, Note_on_c, 0, 96, 100
2, 300480, Note_on_c, 0, 98, 100
2, 300480, Note_on_c, 0, 84, 100
2, 300480, Note_on_c, 0, 86, 100
2, 300480, Note_on_c, 0, 60, 100
2, 300480, Note_on_c, 0, 108, 100
2, 300480, Note_on_c, 0, 73, 100
2, 300480, Note_on_c, 0, 72, 100
2, 300720, Note_on_c, 0, 96, 0
2, 300720, Note_on_c, 0, 98, 0
2, 300720, Note_on_c, 0, 84, 0
2, 300720, Note_on_c, 0, 86, 0
2, 300720, Note_on_c, 0, 60, 0
2, 300720, Note_on_c, 0, 73, 0
2, 300720, Note_on_c, 0, 72, 0
2, 301680, Note_on_c, 0, 108, 0
2, 301920, Note_on_c, 0, 96, 100
2, 301920, Note_on_c, 0, 98, 100
2, 301920, Note_on_c, 0, 84, 100
2, 301920, Note_on_c, 0, 86, 100
2, 301920, Note_on_c, 0, 60, 100
2, 301920, Note_on_c, 0, 73, 100
2, 301920, Note_on_c, 0, 72, 100
2, 302160, Note_on_c, 0, 96, 0
2, 302160, Note_on_c, 0, 98, 0
2, 302160, Note_on_c, 0, 84, 0
2, 302160, Note_on_c, 0, 86, 0
2, 302160, Note_on_c, 0, 60, 0
2, 302160, Note_on_c, 0, 73, 0
2, 302160, Note_on_c, 0, 72, 0
2, 302400, Note_on_c, 0, 96, 100
2, 302400, Note_on_c, 0, 84, 100
2, 302400, Note_on_c, 0, 72, 100
2, 302640, Note_on_c, 0, 96, 0
2, 302640, Note_on_c, 0, 84, 0
2, 302640, Note_on_c, 0, 72, 0
2, 302880, Note_on_c, 0, 96, 100
2, 302880, Note_on_c, 0, 98, 100
2, 302880, Note_on_c, 0, 84, 100
2, 302880, Note_on_c, 0, 86, 100
2, 303120, Note_on_c, 0, 96, 0
2, 303120, Note_on_c, 0, 98, 0
2, 303120, Note_on_c, 0, 84, 0
2, 303120, Note_on_c, 0, 86, 0
2, 303360, Note_on_c, 0, 96, 100
2, 303360, Note_on_c, 0, 98, 100
2, 303360, Note_on_c, 0, 84, 100
2, 303360, Note_on_c, 0, 86, 100
2, 303360, Note_on_c, 0, 60, 100
2, 303360, Note_on_c, 0, 73, 100
2, 303360, Note_on_c, 0, 72, 100
2, 303600, Note_on_c, 0, 96, 0
2, 303600, Note_on_c, 0, 98, 0
2, 303600, Note_on_c, 0, 84, 0
2, 303600, Note_on_c, 0, 86, 0
2, 303600, Note_on_c, 0, 60, 0
2, 303600, Note_on_c, 0, 73, 0
2, 303600, Note_on_c, 0, 72, 0
2, 303840, Note_on_c, 0, 96, 100
2, 303840, Note_on_c, 0, 98, 100
2, 303840, Note_on_c, 0, 84, 100
2, 303840, Note_on_c, 0, 86, 100
2, 304080, Note_on_c, 0, 96, 0
2, 304080, Note_on_c, 0, 98, 0
2, 304080, Note_on_c, 0, 84, 0
2, 304080, Note_on_c, 0, 86, 0
2, 304320, Note_on_c, 0, 96, 100
2, 304320, Note_on_c, 0, 98, 100
2, 304320, Note_on_c, 0, 84, 100
2, 304320, Note_on_c, 0, 86, 100
2, 304560, Note_on_c, 0, 96, 0
2, 304560, Note_on_c, 0, 98, 0
2, 304560, Note_on_c, 0, 84, 0
2, 304560, Note_on_c, 0, 86, 0
2, 304800, Note_on_c, 0, 97, 100
2, 304800, Note_on_c, 0, 98, 100
2, 304800, Note_on_c, 0, 85, 100
2, 304800, Note_on_c, 0, 86, 100
2, 304800, Note_on_c, 0, 61, 100
2, 304800, Note_on_c, 0, 74, 100
2, 304800, Note_on_c, 0, 72, 100
2, 305040, Note_on_c, 0, 97, 0
2, 305040, Note_on_c, 0, 98, 0
2, 305040, Note_on_c, 0, 85, 0
2, 305040, Note_on_c, 0, 86, 0
2, 305040, Note_on_c, 0, 61, 0
2, 305040, Note_on_c, 0, 74, 0
2, 305040, Note_on_c, 0, 72, 0
2, 305280, Note_on_c, 0, 97, 100
2, 305280, Note_on_c, 0, 98, 100
2, 305280, Note_on_c, 0, 85, 100
2, 305280, Note_on_c, 0, 86, 100
2, 305520, Note_on_c, 0, 97, 0
2, 305520, Note_on_c, 0, 98, 0
2, 305520, Note_on_c, 0, 85, 0
2, 305520, Note_on_c, 0, 86, 0
2, 305760, Note_on_c, 0, 97, 100
2, 305760, Note_on_c, 0, 98, 100
2, 305760, Note_on_c, 0, 85, 100
2, 305760, Note_on_c, 0, 86, 100
2, 306000, Note_on_c, 0, 97, 0
2, 306000, Note_on_c, 0, 98, 0
2, 306000, Note_on_c, 0, 85, 0
2, 306000, Note_on_c, 0, 86, 0
2, 306240, Note_on_c, 0, 97, 100
2, 306240, Note_on_c, 0, 99, 100
2, 306240, Note_on_c, 0, 87, 100
2, 306240, Note_on_c, 0, 62, 100
2, 306240, Note_on_c, 0, 75, 100
2, 306480, Note_on_c, 0, 97, 0
2, 306480, Note_on_c, 0, 99, 0
2, 306480, Note_on_c, 0, 87, 0
2, 306480, Note_on_c, 0, 62, 0
2, 306480, Note_on_c, 0, 75, 0
2, 306720, Note_on_c, 0, 97, 100
2, 306720, Note_on_c, 0, 99, 100
2, 306720, Note_on_c, 0, 87, 100
2, 306960, Note_on_c, 0, 97, 0
2, 306960, Note_on_c, 0, 99, 0
2, 306960, Note_on_c, 0, 87, 0
2, 307170, Note_on_c, 0, 105, 0
2, 307170, Note_on_c, 0, 93, 0
2, 307170, Note_on_c, 0, 69, 0
2, 307170, Note_on_c, 0, 81, 0
2, 307170, Note_on_c, 0, 106, 100
2, 307170, Note_on_c, 0, 94, 100
2, 307170, Note_on_c, 0, 70, 100
2, 307170, Note_on_c, 0, 82, 100
2, 307200, Note_on_c, 0, 96, 100
2, 307200, Note_on_c, 0, 98, 100
2, 307200, Note_on_c, 0, 84, 100
2, 307200, Note_on_c, 0, 86, 100
2, 307200, Note_on_c, 0, 60, 100
2, 307200, Note_on_c, 0, 73, 100
2, 307200, Note_on_c, 0, 72, 100
2, 307440, Note_on_c, 0, 96, 0
2, 307440, Note_on_c, 0, 98, 0
2, 307440, Note_on_c, 0, 84, 0
2, 307440, Note_on_c, 0, 86, 0
2, 307440, Note_on_c, 0, 60, 0
2, 307440, Note_on_c, 0, 73, 0
2, 307440, Note_on_c, 0, 72, 0
2, 307680, Note_on_c, 0, 96, 100
2, 307680, Note_on_c, 0, 98, 100
2, 307680, Note_on_c, 0, 84, 100
2, 307680, Note_on_c, 0, 86, 100
2, 307680, Note_on_c, 0, 73, 100
2, 307680, Note_on_c, 0, 72, 100
2, 307920, Note_on_c, 0, 96, 0
2, 307920, Note_on_c, 0, 98, 0
2, 307920, Note_on_c, 0, 84, 0
2, 307920, Note_on_c, 0, 86, 0
2, 307920, Note_on_c, 0, 73, 0
2, 307920, Note_on_c, 0, 72, 0
2, 307920, Note_on_c, 0, 108, 100
2, 308160, Note_on_c, 0, 96, 100
2, 308160, Note_on_c, 0, 98, 100
2, 308160, Note_on_c, 0, 84, 100
2, 308160, Note_on_c, 0, 86, 100
2, 308160, Note_on_c, 0, 60, 100
2, 308160, Note_on_c, 0, 73, 100
2, 308160, Note_on_c, 0, 72, 100
2, 308400, Note_on_c, 0, 96, 0
2, 308400, Note_on_c, 0, 98, 0
2, 308400, Note_on_c, 0, 84, 0
2, 308400, Note_on_c, 0, 86, 0
2, 308400, Note_on_c, 0, 60, 0
2, 308400, Note_on_c, 0, 73, 0
2, 308400, Note_on_c, 0, 72, 0
2, 308880, Note_on_c, 0, 108, 0
2, 309120, Note_on_c, 0, 108, 100
2, 309600, Note_on_c, 0, 96, 100
2, 309600, Note_on_c, 0, 98, 100
2, 309600, Note_on_c, 0, 84, 100
2, 309600, Note_on_c, 0, 86, 100
2, 309600, Note_on_c, 0, 60, 100
2, 309600, Note_on_c, 0, 73, 100
2, 309600, Note_on_c, 0, 72, 100
2, 309840, Note_on_c, 0, 108, 0
2, 309840, Note_on_c, 0, 96, 0
2, 309840, Note_on_c, 0, 98, 0
2, 309840, Note_on_c, 0, 84, 0
2, 309840, Note_on_c, 0, 86, 0
2, 309840, Note_on_c, 0, 60, 0
2, 309840, Note_on_c, 0, 73, 0
2, 309840, Note_on_c, 0, 72, 0
2, 310080, Note_on_c, 0, 96, 100
2, 310080, Note_on_c, 0, 84, 100
2, 310080, Note_on_c, 0, 108, 100
2, 310080, Note_on_c, 0, 72, 100
2, 310320, Note_on_c, 0, 96, 0
2, 310320, Note_on_c, 0, 84, 0
2, 310320, Note_on_c, 0, 72, 0
2, 310560, Note_on_c, 0, 108, 0
2, 310560, Note_on_c, 0, 96, 100
2, 310560, Note_on_c, 0, 98, 100
2, 310560, Note_on_c, 0, 84, 100
2, 310560, Note_on_c, 0, 86, 100
2, 310560, Note_on_c, 0, 60, 100
2, 310560, Note_on_c, 0, 73, 100
2, 310560, Note_on_c, 0, 72, 100
2, 310800, Note_on_c, 0, 96, 0
2, 310800, Note_on_c, 0, 98, 0
2, 310800, Note_on_c, 0, 84, 0
2, 310800, Note_on_c, 0, 86, 0
2, 310800, Note_on_c, 0, 60, 0
2, 310800, Note_on_c, 0, 73, 0
2, 310800, Note_on_c, 0, 72, 0
2, 311040, Note_on_c, 0, 108, 100
2, 311760, Note_on_c, 0, 108, 0
2, 312000, Note_on_c, 0, 108, 100
2, 312480, Note_on_c, 0, 108, 0
2, 312960, Note_on_c, 0, 96, 100
2, 312960, Note_on_c, 0, 98, 100
2, 312960, Note_on_c, 0, 84, 100
2, 312960, Note_on_c, 0, 86, 100
2, 312960, Note_on_c, 0, 60, 100
2, 312960, Note_on_c, 0, 108, 100
2, 312960, Note_on_c, 0, 73, 100
2, 312960, Note_on_c, 0, 72, 100
2, 313200, Note_on_c, 0, 96, 0
2, 313200, Note_on_c, 0, 98, 0
2, 313200, Note_on_c, 0, 84, 0
2, 313200, Note_on_c, 0, 86, 0
2, 313200, Note_on_c, 0, 60, 0
2, 313200, Note_on_c, 0, 73, 0
2, 313200, Note_on_c, 0, 72, 0
2, 313440, Note_on_c, 0, 108, 0
2, 313440, Note_on_c, 0, 96, 100
2, 313440, Note_on_c, 0, 98, 100
2, 313440, Note_on_c, 0, 84, 100
2, 313440, Note_on_c, 0, 86, 100
2, 313440, Note_on_c, 0, 73, 100
2, 313440, Note_on_c, 0, 72, 100
2, 313680, Note_on_c, 0, 96, 0
2, 313680, Note_on_c, 0, 98, 0
2, 313680, Note_on_c, 0, 84, 0
2, 313680, Note_on_c, 0, 86, 0
2, 313680, Note_on_c, 0, 73, 0
2, 313680, Note_on_c, 0, 72, 0
2, 313920, Note_on_c, 0, 96, 100
2, 313920, Note_on_c, 0, 98, 100
2, 313920, Note_on_c, 0, 84, 100
2, 313920, Note_on_c, 0, 86, 100
2, 313920, Note_on_c, 0, 60, 100
2, 313920, Note_on_c, 0, 108, 100
2, 313920, Note_on_c, 0, 73, 100
2, 313920, Note_on_c, 0, 72, 100
2, 314160, Note_on_c, 0, 96, 0
2, 314160, Note_on_c, 0, 98, 0
2, 314160, Note_on_c, 0, 84, 0
2, 314160, Note_on_c, 0, 86, 0
2, 314160, Note_on_c, 0, 60, 0
2, 314160, Note_on_c, 0, 73, 0
2, 314160, Note_on_c, 0, 72, 0
2, 314400, Note_on_c, 0, 108, 0
2, 314880, Note_on_c, 0, 96, 100
2, 314880, Note_on_c, 0, 98, 100
2, 314880, Note_on_c, 0, 84, 100
2, 314880, Note_on_c, 0, 86, 100
2, 314880, Note_on_c, 0, 60, 100
2, 314880, Note_on_c, 0, 108, 100
2, 314880, Note_on_c, 0, 73, 100
2, 314880, Note_on_c, 0, 72, 100
2, 315120, Note_on_c, 0, 96, 0
2, 315120, Note_on_c, 0, 98, 0
2, 315120, Note_on_c, 0, 84, 0
2, 315120, Note_on_c, 0, 86, 0
2, 315120, Note_on_c, 0, 60, 0
2, 315120, Note_on_c, 0, 73, 0
2, 315120, Note_on_c, 0, 72, 0
2, 315360, Note_on_c, 0, 96, 100
2, 315360, Note_on_c, 0, 84, 100
2, 315360, Note_on_c, 0, 72, 100
2, 315600, Note_on_c, 0, 96, 0
2, 315600, Note_on_c, 0, 84, 0
2, 315600, Note_on_c, 0, 72, 0
2, 315680, Note_on_c, 0, 108, 0
2, 315840, Note_on_c, 0, 96, 100
2, 315840, Note_on_c, 0, 98, 100
2, 315840, Note_on_c, 0, 84, 100
2, 315840, Note_on_c, 0, 86, 100
2, 315840, Note_on_c, 0, 60, 100
2, 315840, Note_on_c, 0, 108, 100
2, 315840, Note_on_c, 0, 73, 100
2, 315840, Note_on_c, 0, 72, 100
2, 316080, Note_on_c, 0, 96, 0
2, 316080, Note_on_c, 0, 98, 0
2, 316080, Note_on_c, 0, 84, 0
2, 316080, Note_on_c, 0, 86, 0
2, 316080, Note_on_c, 0, 60, 0
2, 316080, Note_on_c, 0, 73, 0
2, 316080, Note_on_c, 0, 72, 0
2, 317280, Note_on_c, 0, 96, 100
2, 317280, Note_on_c, 0, 98, 100
2, 317280, Note_on_c, 0, 84, 100
2, 317280, Note_on_c, 0, 86, 100
2, 317280, Note_on_c, 0, 60, 100
2, 317280, Note_on_c, 0, 73, 100
2, 317280, Note_on_c, 0, 72, 100
2, 317520, Note_on_c, 0, 96, 0
2, 317520, Note_on_c, 0, 98, 0
2, 317520, Note_on_c, 0, 84, 0
2, 317520, Note_on_c, 0, 86, 0
2, 317520, Note_on_c, 0, 60, 0
2, 317520, Note_on_c, 0, 73, 0
2, 317520, Note_on_c, 0, 72, 0
2, 317600, Note_on_c, 0, 108, 0
2, 317760, Note_on_c, 0, 96, 100
2, 317760, Note_on_c, 0, 84, 100
2, 317760, Note_on_c, 0, 108, 100
2, 317760, Note_on_c, 0, 72, 100
2, 318000, Note_on_c, 0, 96, 0
2, 318000, Note_on_c, 0, 84, 0
2, 318000, Note_on_c, 0, 72, 0
2, 318240, Note_on_c, 0, 96, 100
2, 318240, Note_on_c, 0, 98, 100
2, 318240, Note_on_c, 0, 84, 100
2, 318240, Note_on_c, 0, 86, 100
2, 318480, Note_on_c, 0, 96, 0
2, 318480, Note_on_c, 0, 98, 0
2, 318480, Note_on_c, 0, 84, 0
2, 318480, Note_on_c, 0, 86, 0
2, 318720, Note_on_c, 0, 96, 100
2, 318720, Note_on_c, 0, 98, 100
2, 318720, Note_on_c, 0, 84, 100
2, 318720, Note_on_c, 0, 86, 100
2, 318720, Note_on_c, 0, 60, 100
2, 318720, Note_on_c, 0, 73, 100
2, 318720, Note_on_c, 0, 72, 100
2, 318960, Note_on_c, 0, 96, 0
2, 318960, Note_on_c, 0, 98, 0
2, 318960, Note_on_c, 0, 84, 0
2, 318960, Note_on_c, 0, 86, 0
2, 318960, Note_on_c, 0, 60, 0
2, 318960, Note_on_c, 0, 73, 0
2, 318960, Note_on_c, 0, 72, 0
2, 319200, Note_on_c, 0, 108, 0
2, 319200, Note_on_c, 0, 96, 100
2, 319200, Note_on_c, 0, 98, 100
2, 319200, Note_on_c, 0, 84, 100
2, 319200, Note_on_c, 0, 86, 100
2, 319440, Note_on_c, 0, 96, 0
2, 319440, Note_on_c, 0, 98, 0
2, 319440, Note_on_c, 0, 84, 0
2, 319440, Note_on_c, 0, 86, 0
2, 319680, Note_on_c, 0, 96, 100
2, 319680, Note_on_c, 0, 98, 100
2, 319680, Note_on_c, 0, 84, 100
2, 319680, Note_on_c, 0, 86, 100
2, 319920, Note_on_c, 0, 96, 0
2, 319920, Note_on_c, 0, 98, 0
2, 319920, Note_on_c, 0, 84, 0
2, 319920, Note_on_c, 0, 86, 0
2, 320160, Note_on_c, 0, 97, 100
2, 320160, Note_on_c, 0, 98, 100
2, 320160, Note_on_c, 0, 85, 100
2, 320160, Note_on_c, 0, 86, 100
2, 320160, Note_on_c, 0, 61, 100
2, 320160, Note_on_c, 0, 74, 100
2, 320160, Note_on_c, 0, 72, 100
2, 320400, Note_on_c, 0, 97, 0
2, 320400, Note_on_c, 0, 98, 0
2, 320400, Note_on_c, 0, 85, 0
2, 320400, Note_on_c, 0, 86, 0
2, 320400, Note_on_c, 0, 61, 0
2, 320400, Note_on_c, 0, 74, 0
2, 320400, Note_on_c, 0, 72, 0
2, 320640, Note_on_c, 0, 97, 100
2, 320640, Note_on_c, 0, 98, 100
2, 320640, Note_on_c, 0, 85, 100
2, 320640, Note_on_c, 0, 86, 100
2, 320880, Note_on_c, 0, 97, 0
2, 320880, Note_on_c, 0, 98, 0
2, 320880, Note_on_c, 0, 85, 0
2, 320880, Note_on_c, 0, 86, 0
2, 321120, Note_on_c, 0, 97, 100
2, 321120, Note_on_c, 0, 98, 100
2, 321120, Note_on_c, 0, 85, 100
2, 321120, Note_on_c, 0, 86, 100
2, 321360, Note_on_c, 0, 97, 0
2, 321360, Note_on_c, 0, 98, 0
2, 321360, Note_on_c, 0, 85, 0
2, 321360, Note_on_c, 0, 86, 0
2, 321600, Note_on_c, 0, 97, 100
2, 321600, Note_on_c, 0, 99, 100
2, 321600, Note_on_c, 0, 87, 100
2, 321600, Note_on_c, 0, 62, 100
2, 321600, Note_on_c, 0, 75, 100
2, 321840, Note_on_c, 0, 97, 0
2, 321840, Note_on_c, 0, 99, 0
2, 321840, Note_on_c, 0, 87, 0
2, 321840, Note_on_c, 0, 62, 0
2, 321840, Note_on_c, 0, 75, 0
2, 322080, Note_on_c, 0, 97, 100
2, 322080, Note_on_c, 0, 99, 100
2, 322080, Note_on_c, 0, 87, 100
2, 322320, Note_on_c, 0, 97, 0
2, 322320, Note_on_c, 0, 99, 0
2, 322320, Note_on_c, 0, 87, 0
2, 322530, Note_on_c, 0, 106, 0
2, 322530, Note_on_c, 0, 94, 0
2, 322530, Note_on_c, 0, 70, 0
2, 322530, Note_on_c, 0, 82, 0
2, 322530, Note_on_c, 0, 105, 100
2, 322530, Note_on_c, 0, 93, 100
2, 322530, Note_on_c, 0, 69, 100
2, 322530, Note_on_c, 0, 81, 100
2, 322560, Note_on_c, 0, 96, 100
2, 322560, Note_on_c, 0, 98, 100
2, 322560, Note_on_c, 0, 84, 100
2, 322560, Note_on_c, 0, 86, 100
2, 322560, Note_on_c, 0, 60, 100
2, 322560, Note_on_c, 0, 73, 100
2, 322560, Note_on_c, 0, 72, 100
2, 322800, Note_on_c, 0, 96, 0
2, 322800, Note_on_c, 0, 98, 0
2, 322800, Note_on_c, 0, 84, 0
2, 322800, Note_on_c, 0, 86, 0
2, 322800, Note_on_c, 0, 60, 0
2, 322800, Note_on_c, 0, 73, 0
2, 322800, Note_on_c, 0, 72, 0
2, 323040, Note_on_c, 0, 96, 100
2, 323040, Note_on_c, 0, 98, 100
2, 323040, Note_on_c, 0, 84, 100
2, 323040, Note_on_c, 0, 86, 100
2, 323040, Note_on_c, 0, 73, 100
2, 323040, Note_on_c, 0, 72, 100
2, 323280, Note_on_c, 0, 96, 0
2, 323280, Note_on_c, 0, 98, 0
2, 323280, Note_on_c, 0, 84, 0
2, 323280, Note_on_c, 0, 86, 0
2, 323280, Note_on_c, 0, 73, 0
2, 323280, Note_on_c, 0, 72, 0
2, 323520, Note_on_c, 0, 96, 100
2, 323520, Note_on_c, 0, 98, 100
2, 323520, Note_on_c, 0, 84, 100
2, 323520, Note_on_c, 0, 86, 100
2, 323520, Note_on_c, 0, 60, 100
2, 323520, Note_on_c, 0, 108, 100
2, 323520, Note_on_c, 0, 73, 100
2, 323520, Note_on_c, 0, 72, 100
2, 323760, Note_on_c, 0, 96, 0
2, 323760, Note_on_c, 0, 98, 0
2, 323760, Note_on_c, 0, 84, 0
2, 323760, Note_on_c, 0, 86, 0
2, 323760, Note_on_c, 0, 60, 0
2, 323760, Note_on_c, 0, 73, 0
2, 323760, Note_on_c, 0, 72, 0
2, 324320, Note_on_c, 0, 108, 0
2, 324480, Note_on_c, 0, 108, 100
2, 324960, Note_on_c, 0, 96, 100
2, 324960, Note_on_c, 0, 98, 100
2, 324960, Note_on_c, 0, 84, 100
2, 324960, Note_on_c, 0, 86, 100
2, 324960, Note_on_c, 0, 60, 100
2, 324960, Note_on_c, 0, 73, 100
2, 324960, Note_on_c, 0, 72, 100
2, 325120, Note_on_c, 0, 108, 0
2, 325200, Note_on_c, 0, 96, 0
2, 325200, Note_on_c, 0, 98, 0
2, 325200, Note_on_c, 0, 84, 0
2, 325200, Note_on_c, 0, 86, 0
2, 325200, Note_on_c, 0, 60, 0
2, 325200, Note_on_c, 0, 73, 0
2, 325200, Note_on_c, 0, 72, 0
2, 325440, Note_on_c, 0, 96, 100
2, 325440, Note_on_c, 0, 84, 100
2, 325440, Note_on_c, 0, 108, 100
2, 325440, Note_on_c, 0, 72, 100
2, 325680, Note_on_c, 0, 96, 0
2, 325680, Note_on_c, 0, 84, 0
2, 325680, Note_on_c, 0, 72, 0
2, 325920, Note_on_c, 0, 96, 100
2, 325920, Note_on_c, 0, 98, 100
2, 325920, Note_on_c, 0, 84, 100
2, 325920, Note_on_c, 0, 86, 100
2, 325920, Note_on_c, 0, 60, 100
2, 325920, Note_on_c, 0, 73, 100
2, 325920, Note_on_c, 0, 72, 100
2, 326080, Note_on_c, 0, 108, 0
2, 326160, Note_on_c, 0, 96, 0
2, 326160, Note_on_c, 0, 98, 0
2, 326160, Note_on_c, 0, 84, 0
2, 326160, Note_on_c, 0, 86, 0
2, 326160, Note_on_c, 0, 60, 0
2, 326160, Note_on_c, 0, 73, 0
2, 326160, Note_on_c, 0, 72, 0
2, 326400, Note_on_c, 0, 108, 100
2, 327040, Note_on_c, 0, 108, 0
2, 327360, Note_on_c, 0, 108, 100
2, 328000, Note_on_c, 0, 108, 0
2, 328320, Note_on_c, 0, 96, 100
2, 328320, Note_on_c, 0, 98, 100
2, 328320, Note_on_c, 0, 84, 100
2, 328320, Note_on_c, 0, 86, 100
2, 328320, Note_on_c, 0, 60, 100
2, 328320, Note_on_c, 0, 108, 100
2, 328320, Note_on_c, 0, 73, 100
2, 328320, Note_on_c, 0, 72, 100
2, 328560, Note_on_c, 0, 96, 0
2, 328560, Note_on_c, 0, 98, 0
2, 328560, Note_on_c, 0, 84, 0
2, 328560, Note_on_c, 0, 86, 0
2, 328560, Note_on_c, 0, 60, 0
2, 328560, Note_on_c, 0, 73, 0
2, 328560, Note_on_c, 0, 72, 0
2, 328800, Note_on_c, 0, 96, 100
2, 328800, Note_on_c, 0, 98, 100
2, 328800, Note_on_c, 0, 84, 100
2, 328800, Note_on_c, 0, 86, 100
2, 328800, Note_on_c, 0, 73, 100
2, 328800, Note_on_c, 0, 72, 100
2, 329040, Note_on_c, 0, 96, 0
2, 329040, Note_on_c, 0, 98, 0
2, 329040, Note_on_c, 0, 84, 0
2, 329040, Note_on_c, 0, 86, 0
2, 329040, Note_on_c, 0, 73, 0
2, 329040, Note_on_c, 0, 72, 0
2, 329120, Note_on_c, 0, 108, 0
2, 329280, Note_on_c, 0, 96, 100
2, 329280, Note_on_c, 0, 98, 100
2, 329280, Note_on_c, 0, 84, 100
2, 329280, Note_on_c, 0, 86, 100
2, 329280, Note_on_c, 0, 60, 100
2, 329280, Note_on_c, 0, 108, 100
2, 329280, Note_on_c, 0, 73, 100
2, 329280, Note_on_c, 0, 72, 100
2, 329520, Note_on_c, 0, 96, 0
2, 329520, Note_on_c, 0, 98, 0
2, 329520, Note_on_c, 0, 84, 0
2, 329520, Note_on_c, 0, 86, 0
2, 329520, Note_on_c, 0, 60, 0
2, 329520, Note_on_c, 0, 73, 0
2, 329520, Note_on_c, 0, 72, 0
2, 329920, Note_on_c, 0, 108, 0
2, 330240, Note_on_c, 0, 96, 100
2, 330240, Note_on_c, 0, 98, 100
2, 330240, Note_on_c, 0, 84, 100
2, 330240, Note_on_c, 0, 86, 100
2, 330240, Note_on_c, 0, 60, 100
2, 330240, Note_on_c, 0, 108, 100
2, 330240, Note_on_c, 0, 73, 100
2, 330240, Note_on_c, 0, 72, 100
2, 330480, Note_on_c, 0, 96, 0
2, 330480, Note_on_c, 0, 98, 0
2, 330480, Note_on_c, 0, 84, 0
2, 330480, Note_on_c, 0, 86, 0
2, 330480, Note_on_c, 0, 60, 0
2, 330480, Note_on_c, 0, 73, 0
2, 330480, Note_on_c, 0, 72, 0
2, 330720, Note_on_c, 0, 96, 100
2, 330720, Note_on_c, 0, 84, 100
2, 330720, Note_on_c, 0, 72, 100
2, 330960, Note_on_c, 0, 108, 0
2, 330960, Note_on_c, 0, 96, 0
2, 330960, Note_on_c, 0, 84, 0
2, 330960, Note_on_c, 0, 72, 0
2, 331200, Note_on_c, 0, 96, 100
2, 331200, Note_on_c, 0, 98, 100
2, 331200, Note_on_c, 0, 84, 100
2, 331200, Note_on_c, 0, 86, 100
2, 331200, Note_on_c, 0, 60, 100
2, 331200, Note_on_c, 0, 108, 100
2, 331200, Note_on_c, 0, 73, 100
2, 331200, Note_on_c, 0, 72, 100
2, 331440, Note_on_c, 0, 96, 0
2, 331440, Note_on_c, 0, 98, 0
2, 331440, Note_on_c, 0, 84, 0
2, 331440, Note_on_c, 0, 86, 0
2, 331440, Note_on_c, 0, 60, 0
2, 331440, Note_on_c, 0, 73, 0
2, 331440, Note_on_c, 0, 72, 0
2, 332640, Note_on_c, 0, 108, 0
2, 332640, Note_on_c, 0, 96, 100
2, 332640, Note_on_c, 0, 98, 100
2, 332640, Note_on_c, 0, 84, 100
2, 332640, Note_on_c, 0, 86, 100
2, 332640, Note_on_c, 0, 60, 100
2, 332640, Note_on_c, 0, 73, 100
2, 332640, Note_on_c, 0, 72, 100
2, 332880, Note_on_c, 0, 96, 0
2, 332880, Note_on_c, 0, 98, 0
2, 332880, Note_on_c, 0, 84, 0
2, 332880, Note_on_c, 0, 86, 0
2, 332880, Note_on_c, 0, 60, 0
2, 332880, Note_on_c, 0, 73, 0
2, 332880, Note_on_c, 0, 72, 0
2, 333120, Note_on_c, 0, 96, 100
2, 333120, Note_on_c, 0, 84, 100
2, 333120, Note_on_c, 0, 72, 100
2, 333360, Note_on_c, 0, 96, 0
2, 333360, Note_on_c, 0, 84, 0
2, 333360, Note_on_c, 0, 72, 0
2, 333600, Note_on_c, 0, 96, 100
2, 333600, Note_on_c, 0, 98, 100
2, 333600, Note_on_c, 0, 84, 100
2, 333600, Note_on_c, 0, 86, 100
2, 333840, Note_on_c, 0, 96, 0
2, 333840, Note_on_c, 0, 98, 0
2, 333840, Note_on_c, 0, 84, 0
2, 333840, Note_on_c, 0, 86, 0
2, 334080, Note_on_c, 0, 96, 100
2, 334080, Note_on_c, 0, 98, 100
2, 334080, Note_on_c, 0, 84, 100
2, 334080, Note_on_c, 0, 86, 100
2, 334080, Note_on_c, 0, 60, 100
2, 334080, Note_on_c, 0, 73, 100
2, 334080, Note_on_c, 0, 72, 100
2, 334320, Note_on_c, 0, 96, 0
2, 334320, Note_on_c, 0, 98, 0
2, 334320, Note_on_c, 0, 84, 0
2, 334320, Note_on_c, 0, 86, 0
2, 334320, Note_on_c, 0, 60, 0
2, 334320, Note_on_c, 0, 73, 0
2, 334320, Note_on_c, 0, 72, 0
2, 334560, Note_on_c, 0, 96, 100
2, 334560, Note_on_c, 0, 98, 100
2, 334560, Note_on_c, 0, 84, 100
2, 334560, Note_on_c, 0, 86, 100
2, 334800, Note_on_c, 0, 96, 0
2, 334800, Note_on_c, 0, 98, 0
2, 334800, Note_on_c, 0, 84, 0
2, 334800, Note_on_c, 0, 86, 0
2, 335040, Note_on_c, 0, 96, 100
2, 335040, Note_on_c, 0, 98, 100
2, 335040, Note_on_c, 0, 84, 100
2, 335040, Note_on_c, 0, 86, 100
2, 335280, Note_on_c, 0, 96, 0
2, 335280, Note_on_c, 0, 98, 0
2, 335280, Note_on_c, 0, 84, 0
2, 335280, Note_on_c, 0, 86, 0
2, 335520, Note_on_c, 0, 97, 100
2, 335520, Note_on_c, 0, 98, 100
2, 335520, Note_on_c, 0, 85, 100
2, 335520, Note_on_c, 0, 86, 100
2, 335520, Note_on_c, 0, 61, 100
2, 335520, Note_on_c, 0, 74, 100
2, 335520, Note_on_c, 0, 72, 100
2, 335760, Note_on_c, 0, 97, 0
2, 335760, Note_on_c, 0, 98, 0
2, 335760, Note_on_c, 0, 85, 0
2, 335760, Note_on_c, 0, 86, 0
2, 335760, Note_on_c, 0, 61, 0
2, 335760, Note_on_c, 0, 74, 0
2, 335760, Note_on_c, 0, 72, 0
2, 336000, Note_on_c, 0, 97, 100
2, 336000, Note_on_c, 0, 98, 100
2, 336000, Note_on_c, 0, 85, 100
2, 336000, Note_on_c, 0, 86, 100
2, 336240, Note_on_c, 0, 97, 0
2, 336240, Note_on_c, 0, 98, 0
2, 336240, Note_on_c, 0, 85, 0
2, 336240, Note_on_c, 0, 86, 0
2, 336480, Note_on_c, 0, 97, 100
2, 336480, Note_on_c, 0, 98, 100
2, 336480, Note_on_c, 0, 85, 100
2, 336480, Note_on_c, 0, 86, 100
2, 336720, Note_on_c, 0, 97, 0
2, 336720, Note_on_c, 0, 98, 0
2, 336720, Note_on_c, 0, 85, 0
2, 336720, Note_on_c, 0, 86, 0
2, 336960, Note_on_c, 0, 97, 100
2, 336960, Note_on_c, 0, 99, 100
2, 336960, Note_on_c, 0, 87, 100
2, 336960, Note_on_c, 0, 62, 100
2, 336960, Note_on_c, 0, 75, 100
2, 337200, Note_on_c, 0, 97, 0
2, 337200, Note_on_c, 0, 99, 0
2, 337200, Note_on_c, 0, 87, 0
2, 337200, Note_on_c, 0, 62, 0
2, 337200, Note_on_c, 0, 75, 0
2, 337440, Note_on_c, 0, 97, 100
2, 337440, Note_on_c, 0, 99, 100
2, 337440, Note_on_c, 0, 87, 100
2, 337680, Note_on_c, 0, 97, 0
2, 337680, Note_on_c, 0, 99, 0
2, 337680, Note_on_c, 0, 87, 0
2, 337890, Note_on_c, 0, 106, 100
2, 337890, Note_on_c, 0, 94, 100
2, 337890, Note_on_c, 0, 70, 100
2, 337890, Note_on_c, 0, 82, 100
2, 337920, Note_on_c, 0, 72, 100
2, 337920, Note_on_c, 0, 84, 100
2, 337920, Note_on_c, 0, 85, 100
2, 337920, Note_on_c, 0, 96, 100
2, 337920, Note_on_c, 0, 97, 100
2, 337920, Note_on_c, 0, 60, 100
2, 338160, Note_on_c, 0, 72, 0
2, 338160, Note_on_c, 0, 84, 0
2, 338160, Note_on_c, 0, 85, 0
2, 338160, Note_on_c, 0, 96, 0
2, 338160, Note_on_c, 0, 97, 0
2, 338160, Note_on_c, 0, 60, 0
2, 338400, Note_on_c, 0, 84, 100
2, 338400, Note_on_c, 0, 85, 100
2, 338400, Note_on_c, 0, 96, 100
2, 338400, Note_on_c, 0, 97, 100
2, 338400, Note_on_c, 0, 72, 100
2, 338640, Note_on_c, 0, 84, 0
2, 338640, Note_on_c, 0, 85, 0
2, 338640, Note_on_c, 0, 96, 0
2, 338640, Note_on_c, 0, 97, 0
2, 338640, Note_on_c, 0, 72, 0
2, 338880, Note_on_c, 0, 72, 100
2, 338880, Note_on_c, 0, 84, 100
2, 338880, Note_on_c, 0, 85, 100
2, 338880, Note_on_c, 0, 96, 100
2, 338880, Note_on_c, 0, 97, 100
2, 338880, Note_on_c, 0, 60, 100
2, 339120, Note_on_c, 0, 72, 0
2, 339120, Note_on_c, 0, 84, 0
2, 339120, Note_on_c, 0, 85, 0
2, 339120, Note_on_c, 0, 96, 0
2, 339120, Note_on_c, 0, 97, 0
2, 339120, Note_on_c, 0, 60, 0
2, 339360, Note_on_c, 0, 84, 100
2, 339360, Note_on_c, 0, 85, 100
2, 339360, Note_on_c, 0, 96, 100
2, 339360, Note_on_c, 0, 97, 100
2, 339360, Note_on_c, 0, 72, 100
2, 339600, Note_on_c, 0, 84, 0
2, 339600, Note_on_c, 0, 85, 0
2, 339600, Note_on_c, 0, 96, 0
2, 339600, Note_on_c, 0, 97, 0
2, 339600, Note_on_c, 0, 72, 0
2, 339840, Note_on_c, 0, 72, 100
2, 339840, Note_on_c, 0, 84, 100
2, 339840, Note_on_c, 0, 85, 100
2, 339840, Note_on_c, 0, 96, 100
2, 339840, Note_on_c, 0, 97, 100
2, 339840, Note_on_c, 0, 60, 100
2, 339840, Note_on_c, 0, 108, 100
2, 340080, Note_on_c, 0, 72, 0
2, 340080, Note_on_c, 0, 84, 0
2, 340080, Note_on_c, 0, 85, 0
2, 340080, Note_on_c, 0, 96, 0
2, 340080, Note_on_c, 0, 97, 0
2, 340080, Note_on_c, 0, 60, 0
2, 340320, Note_on_c, 0, 84, 100
2, 340320, Note_on_c, 0, 85, 100
2, 340320, Note_on_c, 0, 96, 100
2, 340320, Note_on_c, 0, 97, 100
2, 340320, Note_on_c, 0, 72, 100
2, 340560, Note_on_c, 0, 84, 0
2, 340560, Note_on_c, 0, 85, 0
2, 340560, Note_on_c, 0, 96, 0
2, 340560, Note_on_c, 0, 97, 0
2, 340560, Note_on_c, 0, 72, 0
2, 340800, Note_on_c, 0, 72, 100
2, 340800, Note_on_c, 0, 84, 100
2, 340800, Note_on_c, 0, 85, 100
2, 340800, Note_on_c, 0, 96, 100
2, 340800, Note_on_c, 0, 97, 100
2, 340800, Note_on_c, 0, 60, 100
2, 341040, Note_on_c, 0, 72, 0
2, 341040, Note_on_c, 0, 84, 0
2, 341040, Note_on_c, 0, 85, 0
2, 341040, Note_on_c, 0, 96, 0
2, 341040, Note_on_c, 0, 97, 0
2, 341040, Note_on_c, 0, 60, 0
2, 341280, Note_on_c, 0, 84, 100
2, 341280, Note_on_c, 0, 85, 100
2, 341280, Note_on_c, 0, 96, 100
2, 341280, Note_on_c, 0, 97, 100
2, 341520, Note_on_c, 0, 108, 0
2, 341520, Note_on_c, 0, 84, 0
2, 341520, Note_on_c, 0, 85, 0
2, 341520, Note_on_c, 0, 96, 0
2, 341520, Note_on_c, 0, 97, 0
2, 341760, Note_on_c, 0, 72, 100
2, 341760, Note_on_c, 0, 60, 100
2, 341760, Note_on_c, 0, 84, 100
2, 341760, Note_on_c, 0, 85, 100
2, 341760, Note_on_c, 0, 96, 100
2, 341760, Note_on_c, 0, 97, 100
2, 341760, Note_on_c, 0, 108, 100
2, 342000, Note_on_c, 0, 72, 0
2, 342000, Note_on_c, 0, 60, 0
2, 342000, Note_on_c, 0, 84, 0
2, 342000, Note_on_c, 0, 85, 0
2, 342000, Note_on_c, 0, 96, 0
2, 342000, Note_on_c, 0, 97, 0
2, 342240, Note_on_c, 0, 84, 100
2, 342240, Note_on_c, 0, 85, 100
2, 342240, Note_on_c, 0, 96, 100
2, 342240, Note_on_c, 0, 97, 100
2, 342240, Note_on_c, 0, 72, 100
2, 342480, Note_on_c, 0, 84, 0
2, 342480, Note_on_c, 0, 85, 0
2, 342480, Note_on_c, 0, 96, 0
2, 342480, Note_on_c, 0, 97, 0
2, 342480, Note_on_c, 0, 72, 0
2, 342720, Note_on_c, 0, 72, 100
2, 342720, Note_on_c, 0, 84, 100
2, 342720, Note_on_c, 0, 85, 100
2, 342720, Note_on_c, 0, 96, 100
2, 342720, Note_on_c, 0, 97, 100
2, 342720, Note_on_c, 0, 60, 100
2, 342960, Note_on_c, 0, 72, 0
2, 342960, Note_on_c, 0, 84, 0
2, 342960, Note_on_c, 0, 85, 0
2, 342960, Note_on_c, 0, 96, 0
2, 342960, Note_on_c, 0, 97, 0
2, 342960, Note_on_c, 0, 60, 0
2, 343200, Note_on_c, 0, 108, 0
2, 343200, Note_on_c, 0, 84, 100
2, 343200, Note_on_c, 0, 85, 100
2, 343200, Note_on_c, 0, 96, 100
2, 343200, Note_on_c, 0, 97, 100
2, 343200, Note_on_c, 0, 72, 100
2, 343440, Note_on_c, 0, 84, 0
2, 343440, Note_on_c, 0, 85, 0
2, 343440, Note_on_c, 0, 96, 0
2, 343440, Note_on_c, 0, 97, 0
2, 343440, Note_on_c, 0, 72, 0
2, 343680, Note_on_c, 0, 72, 100
2, 343680, Note_on_c, 0, 60, 100
2, 343680, Note_on_c, 0, 84, 100
2, 343680, Note_on_c, 0, 85, 100
2, 343680, Note_on_c, 0, 96, 100
2, 343680, Note_on_c, 0, 97, 100
2, 343680, Note_on_c, 0, 108, 100
2, 343920, Note_on_c, 0, 72, 0
2, 343920, Note_on_c, 0, 60, 0
2, 343920, Note_on_c, 0, 84, 0
2, 343920, Note_on_c, 0, 85, 0
2, 343920, Note_on_c, 0, 96, 0
2, 343920, Note_on_c, 0, 97, 0
2, 344160, Note_on_c, 0, 84, 100
2, 344160, Note_on_c, 0, 85, 100
2, 344160, Note_on_c, 0, 96, 100
2, 344160, Note_on_c, 0, 97, 100
2, 344160, Note_on_c, 0, 72, 100
2, 344400, Note_on_c, 0, 84, 0
2, 344400, Note_on_c, 0, 85, 0
2, 344400, Note_on_c, 0, 96, 0
2, 344400, Note_on_c, 0, 97, 0
2, 344400, Note_on_c, 0, 72, 0
2, 344640, Note_on_c, 0, 72, 100
2, 344640, Note_on_c, 0, 60, 100
2, 344640, Note_on_c, 0, 84, 100
2, 344640, Note_on_c, 0, 85, 100
2, 344640, Note_on_c, 0, 96, 100
2, 344640, Note_on_c, 0, 97, 100
2, 344880, Note_on_c, 0, 72, 0
2, 344880, Note_on_c, 0, 60, 0
2, 344880, Note_on_c, 0, 84, 0
2, 344880, Note_on_c, 0, 85, 0
2, 344880, Note_on_c, 0, 96, 0
2, 344880, Note_on_c, 0, 97, 0
2, 345120, Note_on_c, 0, 84, 100
2, 345120, Note_on_c, 0, 85, 100
2, 345120, Note_on_c, 0, 96, 100
2, 345120, Note_on_c, 0, 97, 100
2, 345280, Note_on_c, 0, 108, 0
2, 345360, Note_on_c, 0, 84, 0
2, 345360, Note_on_c, 0, 85, 0
2, 345360, Note_on_c, 0, 96, 0
2, 345360, Note_on_c, 0, 97, 0
2, 345600, Note_on_c, 0, 73, 100
2, 345600, Note_on_c, 0, 61, 100
2, 345600, Note_on_c, 0, 86, 100
2, 345600, Note_on_c, 0, 84, 100
2, 345600, Note_on_c, 0, 98, 100
2, 345600, Note_on_c, 0, 96, 100
2, 345840, Note_on_c, 0, 73, 0
2, 345840, Note_on_c, 0, 61, 0
2, 345840, Note_on_c, 0, 86, 0
2, 345840, Note_on_c, 0, 84, 0
2, 345840, Note_on_c, 0, 98, 0
2, 345840, Note_on_c, 0, 96, 0
2, 346080, Note_on_c, 0, 73, 100
2, 346080, Note_on_c, 0, 86, 100
2, 346080, Note_on_c, 0, 84, 100
2, 346080, Note_on_c, 0, 98, 100
2, 346080, Note_on_c, 0, 96, 100
2, 346320, Note_on_c, 0, 73, 0
2, 346320, Note_on_c, 0, 86, 0
2, 346320, Note_on_c, 0, 84, 0
2, 346320, Note_on_c, 0, 98, 0
2, 346320, Note_on_c, 0, 96, 0
2, 346560, Note_on_c, 0, 61, 100
2, 346560, Note_on_c, 0, 73, 100
2, 346560, Note_on_c, 0, 86, 100
2, 346560, Note_on_c, 0, 84, 100
2, 346560, Note_on_c, 0, 98, 100
2, 346560, Note_on_c, 0, 96, 100
2, 346800, Note_on_c, 0, 61, 0
2, 346800, Note_on_c, 0, 73, 0
2, 346800, Note_on_c, 0, 86, 0
2, 346800, Note_on_c, 0, 84, 0
2, 346800, Note_on_c, 0, 98, 0
2, 346800, Note_on_c, 0, 96, 0
2, 347040, Note_on_c, 0, 86, 100
2, 347040, Note_on_c, 0, 84, 100
2, 347040, Note_on_c, 0, 98, 100
2, 347040, Note_on_c, 0, 96, 100
2, 347040, Note_on_c, 0, 73, 100
2, 347280, Note_on_c, 0, 86, 0
2, 347280, Note_on_c, 0, 84, 0
2, 347280, Note_on_c, 0, 98, 0
2, 347280, Note_on_c, 0, 96, 0
2, 347280, Note_on_c, 0, 73, 0
2, 347520, Note_on_c, 0, 73, 100
2, 347520, Note_on_c, 0, 61, 100
2, 347520, Note_on_c, 0, 86, 100
2, 347520, Note_on_c, 0, 84, 100
2, 347520, Note_on_c, 0, 98, 100
2, 347520, Note_on_c, 0, 96, 100
2, 347520, Note_on_c, 0, 108, 100
2, 347760, Note_on_c, 0, 73, 0
2, 347760, Note_on_c, 0, 61, 0
2, 347760, Note_on_c, 0, 86, 0
2, 347760, Note_on_c, 0, 84, 0
2, 347760, Note_on_c, 0, 98, 0
2, 347760, Note_on_c, 0, 96, 0
2, 348000, Note_on_c, 0, 86, 100
2, 348000, Note_on_c, 0, 84, 100
2, 348000, Note_on_c, 0, 98, 100
2, 348000, Note_on_c, 0, 96, 100
2, 348000, Note_on_c, 0, 73, 100
2, 348240, Note_on_c, 0, 86, 0
2, 348240, Note_on_c, 0, 84, 0
2, 348240, Note_on_c, 0, 98, 0
2, 348240, Note_on_c, 0, 96, 0
2, 348240, Note_on_c, 0, 73, 0
2, 348480, Note_on_c, 0, 73, 100
2, 348480, Note_on_c, 0, 86, 100
2, 348480, Note_on_c, 0, 84, 100
2, 348480, Note_on_c, 0, 98, 100
2, 348480, Note_on_c, 0, 96, 100
2, 348480, Note_on_c, 0, 61, 100
2, 348720, Note_on_c, 0, 73, 0
2, 348720, Note_on_c, 0, 86, 0
2, 348720, Note_on_c, 0, 84, 0
2, 348720, Note_on_c, 0, 98, 0
2, 348720, Note_on_c, 0, 96, 0
2, 348720, Note_on_c, 0, 61, 0
2, 348960, Note_on_c, 0, 86, 100
2, 348960, Note_on_c, 0, 84, 100
2, 348960, Note_on_c, 0, 98, 100
2, 348960, Note_on_c, 0, 96, 100
2, 349200, Note_on_c, 0, 108, 0
2, 349200, Note_on_c, 0, 86, 0
2, 349200, Note_on_c, 0, 84, 0
2, 349200, Note_on_c, 0, 98, 0
2, 349200, Note_on_c, 0, 96, 0
2, 349440, Note_on_c, 0, 73, 100
2, 349440, Note_on_c, 0, 61, 100
2, 349440, Note_on_c, 0, 86, 100
2, 349440, Note_on_c, 0, 84, 100
2, 349440, Note_on_c, 0, 98, 100
2, 349440, Note_on_c, 0, 96, 100
2, 349440, Note_on_c, 0, 108, 100
2, 349680, Note_on_c, 0, 73, 0
2, 349680, Note_on_c, 0, 61, 0
2, 349680, Note_on_c, 0, 86, 0
2, 349680, Note_on_c, 0, 84, 0
2, 349680, Note_on_c, 0, 98, 0
2, 349680, Note_on_c, 0, 96, 0
2, 349920, Note_on_c, 0, 86, 100
2, 349920, Note_on_c, 0, 84, 100
2, 349920, Note_on_c, 0, 98, 100
2, 349920, Note_on_c, 0, 96, 100
2, 349920, Note_on_c, 0, 73, 100
2, 350160, Note_on_c, 0, 86, 0
2, 350160, Note_on_c, 0, 84, 0
2, 350160, Note_on_c, 0, 98, 0
2, 350160, Note_on_c, 0, 96, 0
2, 350160, Note_on_c, 0, 73, 0
2, 350400, Note_on_c, 0, 73, 100
2, 350400, Note_on_c, 0, 86, 100
2, 350400, Note_on_c, 0, 84, 100
2, 350400, Note_on_c, 0, 98, 100
2, 350400, Note_on_c, 0, 96, 100
2, 350400, Note_on_c, 0, 61, 100
2, 350640, Note_on_c, 0, 73, 0
2, 350640, Note_on_c, 0, 86, 0
2, 350640, Note_on_c, 0, 84, 0
2, 350640, Note_on_c, 0, 98, 0
2, 350640, Note_on_c, 0, 96, 0
2, 350640, Note_on_c, 0, 61, 0
2, 350880, Note_on_c, 0, 86, 100
2, 350880, Note_on_c, 0, 84, 100
2, 350880, Note_on_c, 0, 98, 100
2, 350880, Note_on_c, 0, 96, 100
2, 350880, Note_on_c, 0, 73, 100
2, 351120, Note_on_c, 0, 108, 0
2, 351120, Note_on_c, 0, 86, 0
2, 351120, Note_on_c, 0, 84, 0
2, 351120, Note_on_c, 0, 98, 0
2, 351120, Note_on_c, 0, 96, 0
2, 351120, Note_on_c, 0, 73, 0
2, 351360, Note_on_c, 0, 73, 100
2, 351360, Note_on_c, 0, 61, 100
2, 351360, Note_on_c, 0, 86, 100
2, 351360, Note_on_c, 0, 84, 100
2, 351360, Note_on_c, 0, 98, 100
2, 351360, Note_on_c, 0, 96, 100
2, 351360, Note_on_c, 0, 108, 100
2, 351600, Note_on_c, 0, 73, 0
2, 351600, Note_on_c, 0, 61, 0
2, 351600, Note_on_c, 0, 86, 0
2, 351600, Note_on_c, 0, 84, 0
2, 351600, Note_on_c, 0, 98, 0
2, 351600, Note_on_c, 0, 96, 0
2, 351840, Note_on_c, 0, 73, 100
2, 351840, Note_on_c, 0, 86, 100
2, 351840, Note_on_c, 0, 84, 100
2, 351840, Note_on_c, 0, 98, 100
2, 351840, Note_on_c, 0, 96, 100
2, 352080, Note_on_c, 0, 73, 0
2, 352080, Note_on_c, 0, 86, 0
2, 352080, Note_on_c, 0, 84, 0
2, 352080, Note_on_c, 0, 98, 0
2, 352080, Note_on_c, 0, 96, 0
2, 352320, Note_on_c, 0, 73, 100
2, 352320, Note_on_c, 0, 61, 100
2, 352320, Note_on_c, 0, 86, 100
2, 352320, Note_on_c, 0, 84, 100
2, 352320, Note_on_c, 0, 98, 100
2, 352320, Note_on_c, 0, 96, 100
2, 352560, Note_on_c, 0, 108, 0
2, 352560, Note_on_c, 0, 73, 0
2, 352560, Note_on_c, 0, 61, 0
2, 352560, Note_on_c, 0, 86, 0
2, 352560, Note_on_c, 0, 84, 0
2, 352560, Note_on_c, 0, 98, 0
2, 352560, Note_on_c, 0, 96, 0
2, 352800, Note_on_c, 0, 86, 100
2, 352800, Note_on_c, 0, 84, 100
2, 352800, Note_on_c, 0, 98, 100
2, 352800, Note_on_c, 0, 96, 100
2, 353040, Note_on_c, 0, 86, 0
2, 353040, Note_on_c, 0, 84, 0
2, 353040, Note_on_c, 0, 98, 0
2, 353040, Note_on_c, 0, 96, 0
2, 353280, Note_on_c, 0, 87, 100
2, 353280, Note_on_c, 0, 86, 100
2, 353280, Note_on_c, 0, 99, 100
2, 353280, Note_on_c, 0, 100, 100
2, 353280, Note_on_c, 0, 74, 100
2, 353280, Note_on_c, 0, 62, 100
2, 353520, Note_on_c, 0, 87, 0
2, 353520, Note_on_c, 0, 86, 0
2, 353520, Note_on_c, 0, 99, 0
2, 353520, Note_on_c, 0, 100, 0
2, 353520, Note_on_c, 0, 74, 0
2, 353520, Note_on_c, 0, 62, 0
2, 353760, Note_on_c, 0, 74, 100
2, 353760, Note_on_c, 0, 99, 100
2, 353760, Note_on_c, 0, 100, 100
2, 353760, Note_on_c, 0, 86, 100
2, 353760, Note_on_c, 0, 87, 100
2, 354000, Note_on_c, 0, 74, 0
2, 354000, Note_on_c, 0, 99, 0
2, 354000, Note_on_c, 0, 100, 0
2, 354000, Note_on_c, 0, 86, 0
2, 354000, Note_on_c, 0, 87, 0
2, 354240, Note_on_c, 0, 62, 100
2, 354240, Note_on_c, 0, 99, 100
2, 354240, Note_on_c, 0, 100, 100
2, 354240, Note_on_c, 0, 86, 100
2, 354240, Note_on_c, 0, 87, 100
2, 354240, Note_on_c, 0, 74, 100
2, 354480, Note_on_c, 0, 62, 0
2, 354480, Note_on_c, 0, 99, 0
2, 354480, Note_on_c, 0, 100, 0
2, 354480, Note_on_c, 0, 86, 0
2, 354480, Note_on_c, 0, 87, 0
2, 354480, Note_on_c, 0, 74, 0
2, 354720, Note_on_c, 0, 74, 100
2, 354720, Note_on_c, 0, 99, 100
2, 354720, Note_on_c, 0, 100, 100
2, 354720, Note_on_c, 0, 86, 100
2, 354720, Note_on_c, 0, 87, 100
2, 354960, Note_on_c, 0, 74, 0
2, 354960, Note_on_c, 0, 99, 0
2, 354960, Note_on_c, 0, 100, 0
2, 354960, Note_on_c, 0, 86, 0
2, 354960, Note_on_c, 0, 87, 0
2, 355200, Note_on_c, 0, 99, 100
2, 355200, Note_on_c, 0, 100, 100
2, 355200, Note_on_c, 0, 86, 100
2, 355200, Note_on_c, 0, 87, 100
2, 355200, Note_on_c, 0, 74, 100
2, 355200, Note_on_c, 0, 62, 100
2, 355200, Note_on_c, 0, 108, 100
2, 355440, Note_on_c, 0, 99, 0
2, 355440, Note_on_c, 0, 100, 0
2, 355440, Note_on_c, 0, 86, 0
2, 355440, Note_on_c, 0, 87, 0
2, 355440, Note_on_c, 0, 74, 0
2, 355440, Note_on_c, 0, 62, 0
2, 355680, Note_on_c, 0, 74, 100
2, 355680, Note_on_c, 0, 99, 100
2, 355680, Note_on_c, 0, 100, 100
2, 355680, Note_on_c, 0, 86, 100
2, 355680, Note_on_c, 0, 87, 100
2, 355920, Note_on_c, 0, 74, 0
2, 355920, Note_on_c, 0, 99, 0
2, 355920, Note_on_c, 0, 100, 0
2, 355920, Note_on_c, 0, 86, 0
2, 355920, Note_on_c, 0, 87, 0
2, 356160, Note_on_c, 0, 62, 100
2, 356160, Note_on_c, 0, 99, 100
2, 356160, Note_on_c, 0, 100, 100
2, 356160, Note_on_c, 0, 86, 100
2, 356160, Note_on_c, 0, 87, 100
2, 356160, Note_on_c, 0, 74, 100
2, 356400, Note_on_c, 0, 62, 0
2, 356400, Note_on_c, 0, 99, 0
2, 356400, Note_on_c, 0, 100, 0
2, 356400, Note_on_c, 0, 86, 0
2, 356400, Note_on_c, 0, 87, 0
2, 356400, Note_on_c, 0, 74, 0
2, 356640, Note_on_c, 0, 99, 100
2, 356640, Note_on_c, 0, 100, 100
2, 356640, Note_on_c, 0, 86, 100
2, 356640, Note_on_c, 0, 87, 100
2, 356880, Note_on_c, 0, 108, 0
2, 356880, Note_on_c, 0, 99, 0
2, 356880, Note_on_c, 0, 100, 0
2, 356880, Note_on_c, 0, 86, 0
2, 356880, Note_on_c, 0, 87, 0
2, 357120, Note_on_c, 0, 99, 100
2, 357120, Note_on_c, 0, 100, 100
2, 357120, Note_on_c, 0, 86, 100
2, 357120, Note_on_c, 0, 87, 100
2, 357120, Note_on_c, 0, 74, 100
2, 357120, Note_on_c, 0, 62, 100
2, 357120, Note_on_c, 0, 108, 100
2, 357360, Note_on_c, 0, 99, 0
2, 357360, Note_on_c, 0, 100, 0
2, 357360, Note_on_c, 0, 86, 0
2, 357360, Note_on_c, 0, 87, 0
2, 357360, Note_on_c, 0, 74, 0
2, 357360, Note_on_c, 0, 62, 0
2, 357600, Note_on_c, 0, 74, 100
2, 357600, Note_on_c, 0, 99, 100
2, 357600, Note_on_c, 0, 100, 100
2, 357600, Note_on_c, 0, 86, 100
2, 357600, Note_on_c, 0, 87, 100
2, 357840, Note_on_c, 0, 74, 0
2, 357840, Note_on_c, 0, 99, 0
2, 357840, Note_on_c, 0, 100, 0
2, 357840, Note_on_c, 0, 86, 0
2, 357840, Note_on_c, 0, 87, 0
2, 358080, Note_on_c, 0, 62, 100
2, 358080, Note_on_c, 0, 99, 100
2, 358080, Note_on_c, 0, 100, 100
2, 358080, Note_on_c, 0, 86, 100
2, 358080, Note_on_c, 0, 87, 100
2, 358080, Note_on_c, 0, 74, 100
2, 358320, Note_on_c, 0, 62, 0
2, 358320, Note_on_c, 0, 99, 0
2, 358320, Note_on_c, 0, 100, 0
2, 358320, Note_on_c, 0, 86, 0
2, 358320, Note_on_c, 0, 87, 0
2, 358320, Note_on_c, 0, 74, 0
2, 358560, Note_on_c, 0, 108, 0
2, 358560, Note_on_c, 0, 74, 100
2, 358560, Note_on_c, 0, 99, 100
2, 358560, Note_on_c, 0, 100, 100
2, 358560, Note_on_c, 0, 86, 100
2, 358560, Note_on_c, 0, 87, 100
2, 358800, Note_on_c, 0, 74, 0
2, 358800, Note_on_c, 0, 99, 0
2, 358800, Note_on_c, 0, 100, 0
2, 358800, Note_on_c, 0, 86, 0
2, 358800, Note_on_c, 0, 87, 0
2, 359040, Note_on_c, 0, 99, 100
2, 359040, Note_on_c, 0, 100, 100
2, 359040, Note_on_c, 0, 86, 100
2, 359040, Note_on_c, 0, 87, 100
2, 359040, Note_on_c, 0, 74, 100
2, 359040, Note_on_c, 0, 62, 100
2, 359040, Note_on_c, 0, 108, 100
2, 359280, Note_on_c, 0, 99, 0
2, 359280, Note_on_c, 0, 100, 0
2, 359280, Note_on_c, 0, 86, 0
2, 359280, Note_on_c, 0, 87, 0
2, 359280, Note_on_c, 0, 74, 0
2, 359280, Note_on_c, 0, 62, 0
2, 359520, Note_on_c, 0, 74, 100
2, 359520, Note_on_c, 0, 99, 100
2, 359520, Note_on_c, 0, 100, 100
2, 359520, Note_on_c, 0, 86, 100
2, 359520, Note_on_c, 0, 87, 100
2, 359760, Note_on_c, 0, 74, 0
2, 359760, Note_on_c, 0, 99, 0
2, 359760, Note_on_c, 0, 100, 0
2, 359760, Note_on_c, 0, 86, 0
2, 359760, Note_on_c, 0, 87, 0
2, 360000, Note_on_c, 0, 62, 100
2, 360000, Note_on_c, 0, 99, 100
2, 360000, Note_on_c, 0, 100, 100
2, 360000, Note_on_c, 0, 86, 100
2, 360000, Note_on_c, 0, 87, 100
2, 360000, Note_on_c, 0, 74, 100
2, 360240, Note_on_c, 0, 62, 0
2, 360240, Note_on_c, 0, 99, 0
2, 360240, Note_on_c, 0, 100, 0
2, 360240, Note_on_c, 0, 86, 0
2, 360240, Note_on_c, 0, 87, 0
2, 360240, Note_on_c, 0, 74, 0
2, 360480, Note_on_c, 0, 99, 100
2, 360480, Note_on_c, 0, 100, 100
2, 360480, Note_on_c, 0, 86, 100
2, 360480, Note_on_c, 0, 87, 100
2, 360720, Note_on_c, 0, 99, 0
2, 360720, Note_on_c, 0, 100, 0
2, 360720, Note_on_c, 0, 86, 0
2, 360720, Note_on_c, 0, 87, 0
2, 360800, Note_on_c, 0, 108, 0
2, 360930, Text_t, "[chorus]"
2, 360930, Text_t, "[lighting (sweep)]"
2, 360960, Note_on_c, 0, 98, 100
2, 360960, Note_on_c, 0, 100, 100
2, 360960, Note_on_c, 0, 85, 100
2, 360960, Note_on_c, 0, 87, 100
2, 360960, Note_on_c, 0, 73, 100
2, 360960, Note_on_c, 0, 61, 100
2, 360960, Note_on_c, 0, 108, 100
2, 361200, Note_on_c, 0, 98, 0
2, 361200, Note_on_c, 0, 100, 0
2, 361200, Note_on_c, 0, 85, 0
2, 361200, Note_on_c, 0, 87, 0
2, 361200, Note_on_c, 0, 73, 0
2, 361200, Note_on_c, 0, 61, 0
2, 361440, Note_on_c, 0, 98, 100
2, 361440, Note_on_c, 0, 100, 100
2, 361440, Note_on_c, 0, 85, 100
2, 361440, Note_on_c, 0, 87, 100
2, 361680, Note_on_c, 0, 98, 0
2, 361680, Note_on_c, 0, 100, 0
2, 361680, Note_on_c, 0, 85, 0
2, 361680, Note_on_c, 0, 87, 0
2, 361920, Note_on_c, 0, 73, 100
2, 361920, Note_on_c, 0, 85, 100
2, 361920, Note_on_c, 0, 98, 100
2, 362160, Note_on_c, 0, 73, 0
2, 362160, Note_on_c, 0, 85, 0
2, 362160, Note_on_c, 0, 98, 0
2, 362400, Note_on_c, 0, 61, 100
2, 362400, Note_on_c, 0, 98, 100
2, 362400, Note_on_c, 0, 100, 100
2, 362400, Note_on_c, 0, 85, 100
2, 362400, Note_on_c, 0, 87, 100
2, 362400, Note_on_c, 0, 73, 100
2, 362640, Note_on_c, 0, 61, 0
2, 362640, Note_on_c, 0, 98, 0
2, 362640, Note_on_c, 0, 100, 0
2, 362640, Note_on_c, 0, 85, 0
2, 362640, Note_on_c, 0, 87, 0
2, 362640, Note_on_c, 0, 73, 0
2, 362880, Note_on_c, 0, 98, 100
2, 362880, Note_on_c, 0, 100, 100
2, 362880, Note_on_c, 0, 85, 100
2, 362880, Note_on_c, 0, 87, 100
2, 363120, Note_on_c, 0, 98, 0
2, 363120, Note_on_c, 0, 100, 0
2, 363120, Note_on_c, 0, 85, 0
2, 363120, Note_on_c, 0, 87, 0
2, 363360, Note_on_c, 0, 73, 100
2, 363360, Note_on_c, 0, 85, 100
2, 363360, Note_on_c, 0, 98, 100
2, 363600, Note_on_c, 0, 73, 0
2, 363600, Note_on_c, 0, 85, 0
2, 363600, Note_on_c, 0, 98, 0
2, 363680, Note_on_c, 0, 108, 0
2, 363840, Note_on_c, 0, 61, 100
2, 363840, Note_on_c, 0, 98, 100
2, 363840, Note_on_c, 0, 100, 100
2, 363840, Note_on_c, 0, 85, 100
2, 363840, Note_on_c, 0, 87, 100
2, 363840, Note_on_c, 0, 73, 100
2, 364080, Note_on_c, 0, 61, 0
2, 364080, Note_on_c, 0, 98, 0
2, 364080, Note_on_c, 0, 100, 0
2, 364080, Note_on_c, 0, 85, 0
2, 364080, Note_on_c, 0, 87, 0
2, 364080, Note_on_c, 0, 73, 0
2, 364320, Note_on_c, 0, 98, 100
2, 364320, Note_on_c, 0, 100, 100
2, 364320, Note_on_c, 0, 85, 100
2, 364320, Note_on_c, 0, 87, 100
2, 364560, Note_on_c, 0, 98, 0
2, 364560, Note_on_c, 0, 100, 0
2, 364560, Note_on_c, 0, 85, 0
2, 364560, Note_on_c, 0, 87, 0
2, 364800, Note_on_c, 0, 98, 100
2, 364800, Note_on_c, 0, 85, 100
2, 364800, Note_on_c, 0, 73, 100
2, 365040, Note_on_c, 0, 98, 0
2, 365040, Note_on_c, 0, 85, 0
2, 365040, Note_on_c, 0, 73, 0
2, 365250, Note_on_c, 0, 103, 100
2, 365250, Note_on_c, 0, 91, 100
2, 365250, Note_on_c, 0, 67, 100
2, 365250, Note_on_c, 0, 79, 100
2, 365280, Note_on_c, 0, 87, 100
2, 365280, Note_on_c, 0, 99, 100
2, 365280, Note_on_c, 0, 100, 100
2, 365280, Note_on_c, 0, 86, 100
2, 365280, Note_on_c, 0, 62, 100
2, 365280, Note_on_c, 0, 74, 100
2, 365520, Note_on_c, 0, 87, 0
2, 365520, Note_on_c, 0, 99, 0
2, 365520, Note_on_c, 0, 100, 0
2, 365520, Note_on_c, 0, 86, 0
2, 365520, Note_on_c, 0, 62, 0
2, 365520, Note_on_c, 0, 74, 0
2, 365760, Note_on_c, 0, 87, 100
2, 365760, Note_on_c, 0, 99, 100
2, 365760, Note_on_c, 0, 100, 100
2, 365760, Note_on_c, 0, 86, 100
2, 366000, Note_on_c, 0, 87, 0
2, 366000, Note_on_c, 0, 99, 0
2, 366000, Note_on_c, 0, 100, 0
2, 366000, Note_on_c, 0, 86, 0
2, 366240, Note_on_c, 0, 86, 100
2, 366240, Note_on_c, 0, 99, 100
2, 366480, Note_on_c, 0, 86, 0
2, 366480, Note_on_c, 0, 99, 0
2, 366690, Text_t, "[lighting ()]"
2, 366720, Note_on_c, 0, 87, 100
2, 366720, Note_on_c, 0, 99, 100
2, 366720, Note_on_c, 0, 100, 100
2, 366720, Note_on_c, 0, 86, 100
2, 366720, Note_on_c, 0, 62, 100
2, 366720, Note_on_c, 0, 74, 100
2, 366960, Note_on_c, 0, 87, 0
2, 366960, Note_on_c, 0, 99, 0
2, 366960, Note_on_c, 0, 100, 0
2, 366960, Note_on_c, 0, 86, 0
2, 366960, Note_on_c, 0, 62, 0
2, 366960, Note_on_c, 0, 74, 0
2, 367200, Note_on_c, 0, 86, 100
2, 367200, Note_on_c, 0, 99, 100
2, 367440, Note_on_c, 0, 86, 0
2, 367440, Note_on_c, 0, 99, 0
2, 367650, Text_t, "drum_normal"
2, 367680, Note_on_c, 0, 87, 100
2, 367680, Note_on_c, 0, 99, 100
2, 367680, Note_on_c, 0, 100, 100
2, 367680, Note_on_c, 0, 86, 100
2, 367680, Note_on_c, 0, 74, 100
2, 367920, Note_on_c, 0, 87, 0
2, 367920, Note_on_c, 0, 99, 0
2, 367920, Note_on_c, 0, 100, 0
2, 367920, Note_on_c, 0, 86, 0
2, 367920, Note_on_c, 0, 74, 0
2, 368160, Note_on_c, 0, 86, 100
2, 368160, Note_on_c, 0, 99, 100
2, 368370, Note_on_c, 0, 103, 0
2, 368370, Note_on_c, 0, 91, 0
2, 368370, Note_on_c, 0, 67, 0
2, 368370, Note_on_c, 0, 79, 0
2, 368400, Note_on_c, 0, 86, 0
2, 368400, Note_on_c, 0, 99, 0
2, 368640, Note_on_c, 0, 72, 100
2, 368640, Note_on_c, 0, 60, 100
2, 368640, Note_on_c, 0, 84, 100
2, 368640, Note_on_c, 0, 85, 100
2, 368640, Note_on_c, 0, 96, 100
2, 368640, Note_on_c, 0, 97, 100
2, 368880, Note_on_c, 0, 72, 0
2, 368880, Note_on_c, 0, 60, 0
2, 368880, Note_on_c, 0, 84, 0
2, 368880, Note_on_c, 0, 85, 0
2, 368880, Note_on_c, 0, 96, 0
2, 368880, Note_on_c, 0, 97, 0
2, 369120, Note_on_c, 0, 84, 100
2, 369120, Note_on_c, 0, 85, 100
2, 369120, Note_on_c, 0, 96, 100
2, 369120, Note_on_c, 0, 97, 100
2, 369120, Note_on_c, 0, 72, 100
2, 369360, Note_on_c, 0, 84, 0
2, 369360, Note_on_c, 0, 85, 0
2, 369360, Note_on_c, 0, 96, 0
2, 369360, Note_on_c, 0, 97, 0
2, 369360, Note_on_c, 0, 72, 0
2, 369600, Note_on_c, 0, 72, 100
2, 369600, Note_on_c, 0, 84, 100
2, 369600, Note_on_c, 0, 85, 100
2, 369600, Note_on_c, 0, 96, 100
2, 369600, Note_on_c, 0, 97, 100
2, 369600, Note_on_c, 0, 60, 100
2, 369840, Note_on_c, 0, 72, 0
2, 369840, Note_on_c, 0, 84, 0
2, 369840, Note_on_c, 0, 85, 0
2, 369840, Note_on_c, 0, 96, 0
2, 369840, Note_on_c, 0, 97, 0
2, 369840, Note_on_c, 0, 60, 0
2, 370080, Note_on_c, 0, 84, 100
2, 370080, Note_on_c, 0, 85, 100
2, 370080, Note_on_c, 0, 96, 100
2, 370080, Note_on_c, 0, 97, 100
2, 370080, Note_on_c, 0, 72, 100
2, 370320, Note_on_c, 0, 84, 0
2, 370320, Note_on_c, 0, 85, 0
2, 370320, Note_on_c, 0, 96, 0
2, 370320, Note_on_c, 0, 97, 0
2, 370320, Note_on_c, 0, 72, 0
2, 370560, Note_on_c, 0, 72, 100
2, 370560, Note_on_c, 0, 60, 100
2, 370560, Note_on_c, 0, 84, 100
2, 370560, Note_on_c, 0, 85, 100
2, 370560, Note_on_c, 0, 96, 100
2, 370560, Note_on_c, 0, 97, 100
2, 370560, Note_on_c, 0, 108, 100
2, 370800, Note_on_c, 0, 72, 0
2, 370800, Note_on_c, 0, 60, 0
2, 370800, Note_on_c, 0, 84, 0
2, 370800, Note_on_c, 0, 85, 0
2, 370800, Note_on_c, 0, 96, 0
2, 370800, Note_on_c, 0, 97, 0
2, 371040, Note_on_c, 0, 84, 100
2, 371040, Note_on_c, 0, 85, 100
2, 371040, Note_on_c, 0, 96, 100
2, 371040, Note_on_c, 0, 97, 100
2, 371040, Note_on_c, 0, 72, 100
2, 371280, Note_on_c, 0, 84, 0
2, 371280, Note_on_c, 0, 85, 0
2, 371280, Note_on_c, 0, 96, 0
2, 371280, Note_on_c, 0, 97, 0
2, 371280, Note_on_c, 0, 72, 0
2, 371520, Note_on_c, 0, 72, 100
2, 371520, Note_on_c, 0, 84, 100
2, 371520, Note_on_c, 0, 85, 100
2, 371520, Note_on_c, 0, 96, 100
2, 371520, Note_on_c, 0, 97, 100
2, 371520, Note_on_c, 0, 60, 100
2, 371760, Note_on_c, 0, 72, 0
2, 371760, Note_on_c, 0, 84, 0
2, 371760, Note_on_c, 0, 85, 0
2, 371760, Note_on_c, 0, 96, 0
2, 371760, Note_on_c, 0, 97, 0
2, 371760, Note_on_c, 0, 60, 0
2, 372000, Note_on_c, 0, 84, 100
2, 372000, Note_on_c, 0, 85, 100
2, 372000, Note_on_c, 0, 96, 100
2, 372000, Note_on_c, 0, 97, 100
2, 372160, Note_on_c, 0, 108, 0
2, 372240, Note_on_c, 0, 84, 0
2, 372240, Note_on_c, 0, 85, 0
2, 372240, Note_on_c, 0, 96, 0
2, 372240, Note_on_c, 0, 97, 0
2, 372480, Note_on_c, 0, 72, 100
2, 372480, Note_on_c, 0, 60, 100
2, 372480, Note_on_c, 0, 84, 100
2, 372480, Note_on_c, 0, 85, 100
2, 372480, Note_on_c, 0, 96, 100
2, 372480, Note_on_c, 0, 97, 100
2, 372480, Note_on_c, 0, 108, 100
2, 372720, Note_on_c, 0, 72, 0
2, 372720, Note_on_c, 0, 60, 0
2, 372720, Note_on_c, 0, 84, 0
2, 372720, Note_on_c, 0, 85, 0
2, 372720, Note_on_c, 0, 96, 0
2, 372720, Note_on_c, 0, 97, 0
2, 372960, Note_on_c, 0, 84, 100
2, 372960, Note_on_c, 0, 85, 100
2, 372960, Note_on_c, 0, 96, 100
2, 372960, Note_on_c, 0, 97, 100
2, 372960, Note_on_c, 0, 72, 100
2, 373200, Note_on_c, 0, 84, 0
2, 373200, Note_on_c, 0, 85, 0
2, 373200, Note_on_c, 0, 96, 0
2, 373200, Note_on_c, 0, 97, 0
2, 373200, Note_on_c, 0, 72, 0
2, 373440, Note_on_c, 0, 72, 100
2, 373440, Note_on_c, 0, 84, 100
2, 373440, Note_on_c, 0, 85, 100
2, 373440, Note_on_c, 0, 96, 100
2, 373440, Note_on_c, 0, 97, 100
2, 373440, Note_on_c, 0, 60, 100
2, 373680, Note_on_c, 0, 72, 0
2, 373680, Note_on_c, 0, 84, 0
2, 373680, Note_on_c, 0, 85, 0
2, 373680, Note_on_c, 0, 96, 0
2, 373680, Note_on_c, 0, 97, 0
2, 373680, Note_on_c, 0, 60, 0
2, 373920, Note_on_c, 0, 84, 100
2, 373920, Note_on_c, 0, 85, 100
2, 373920, Note_on_c, 0, 96, 100
2, 373920, Note_on_c, 0, 97, 100
2, 373920, Note_on_c, 0, 72, 100
2, 374080, Note_on_c, 0, 108, 0
2, 374160, Note_on_c, 0, 84, 0
2, 374160, Note_on_c, 0, 85, 0
2, 374160, Note_on_c, 0, 96, 0
2, 374160, Note_on_c, 0, 97, 0
2, 374160, Note_on_c, 0, 72, 0
2, 374400, Note_on_c, 0, 72, 100
2, 374400, Note_on_c, 0, 60, 100
2, 374400, Note_on_c, 0, 84, 100
2, 374400, Note_on_c, 0, 85, 100
2, 374400, Note_on_c, 0, 96, 100
2, 374400, Note_on_c, 0, 97, 100
2, 374400, Note_on_c, 0, 108, 100
2, 374640, Note_on_c, 0, 72, 0
2, 374640, Note_on_c, 0, 60, 0
2, 374640, Note_on_c, 0, 84, 0
2, 374640, Note_on_c, 0, 85, 0
2, 374640, Note_on_c, 0, 96, 0
2, 374640, Note_on_c, 0, 97, 0
2, 374880, Note_on_c, 0, 84, 100
2, 374880, Note_on_c, 0, 85, 100
2, 374880, Note_on_c, 0, 96, 100
2, 374880, Note_on_c, 0, 97, 100
2, 374880, Note_on_c, 0, 72, 100
2, 375120, Note_on_c, 0, 84, 0
2, 375120, Note_on_c, 0, 85, 0
2, 375120, Note_on_c, 0, 96, 0
2, 375120, Note_on_c, 0, 97, 0
2, 375120, Note_on_c, 0, 72, 0
2, 375360, Note_on_c, 0, 72, 100
2, 375360, Note_on_c, 0, 60, 100
2, 375360, Note_on_c, 0, 84, 100
2, 375360, Note_on_c, 0, 85, 100
2, 375360, Note_on_c, 0, 96, 100
2, 375360, Note_on_c, 0, 97, 100
2, 375600, Note_on_c, 0, 72, 0
2, 375600, Note_on_c, 0, 60, 0
2, 375600, Note_on_c, 0, 84, 0
2, 375600, Note_on_c, 0, 85, 0
2, 375600, Note_on_c, 0, 96, 0
2, 375600, Note_on_c, 0, 97, 0
2, 375840, Note_on_c, 0, 108, 0
2, 375840, Note_on_c, 0, 84, 100
2, 375840, Note_on_c, 0, 85, 100
2, 375840, Note_on_c, 0, 96, 100
2, 375840, Note_on_c, 0, 97, 100
2, 376080, Note_on_c, 0, 84, 0
2, 376080, Note_on_c, 0, 85, 0
2, 376080, Note_on_c, 0, 96, 0
2, 376080, Note_on_c, 0, 97, 0
2, 376320, Note_on_c, 0, 73, 100
2, 376320, Note_on_c, 0, 61, 100
2, 376320, Note_on_c, 0, 86, 100
2, 376320, Note_on_c, 0, 84, 100
2, 376320, Note_on_c, 0, 98, 100
2, 376320, Note_on_c, 0, 96, 100
2, 376560, Note_on_c, 0, 73, 0
2, 376560, Note_on_c, 0, 61, 0
2, 376560, Note_on_c, 0, 86, 0
2, 376560, Note_on_c, 0, 84, 0
2, 376560, Note_on_c, 0, 98, 0
2, 376560, Note_on_c, 0, 96, 0
2, 376800, Note_on_c, 0, 86, 100
2, 376800, Note_on_c, 0, 84, 100
2, 376800, Note_on_c, 0, 98, 100
2, 376800, Note_on_c, 0, 96, 100
2, 376800, Note_on_c, 0, 73, 100
2, 377040, Note_on_c, 0, 86, 0
2, 377040, Note_on_c, 0, 84, 0
2, 377040, Note_on_c, 0, 98, 0
2, 377040, Note_on_c, 0, 96, 0
2, 377040, Note_on_c, 0, 73, 0
2, 377280, Note_on_c, 0, 73, 100
2, 377280, Note_on_c, 0, 86, 100
2, 377280, Note_on_c, 0, 84, 100
2, 377280, Note_on_c, 0, 98, 100
2, 377280, Note_on_c, 0, 96, 100
2, 377280, Note_on_c, 0, 61, 100
2, 377520, Note_on_c, 0, 73, 0
2, 377520, Note_on_c, 0, 86, 0
2, 377520, Note_on_c, 0, 84, 0
2, 377520, Note_on_c, 0, 98, 0
2, 377520, Note_on_c, 0, 96, 0
2, 377520, Note_on_c, 0, 61, 0
2, 377760, Note_on_c, 0, 86, 100
2, 377760, Note_on_c, 0, 84, 100
2, 377760, Note_on_c, 0, 98, 100
2, 377760, Note_on_c, 0, 96, 100
2, 377760, Note_on_c, 0, 73, 100
2, 378000, Note_on_c, 0, 86, 0
2, 378000, Note_on_c, 0, 84, 0
2, 378000, Note_on_c, 0, 98, 0
2, 378000, Note_on_c, 0, 96, 0
2, 378000, Note_on_c, 0, 73, 0
2, 378240, Note_on_c, 0, 73, 100
2, 378240, Note_on_c, 0, 61, 100
2, 378240, Note_on_c, 0, 86, 100
2, 378240, Note_on_c, 0, 84, 100
2, 378240, Note_on_c, 0, 98, 100
2, 378240, Note_on_c, 0, 96, 100
2, 378240, Note_on_c, 0, 108, 100
2, 378480, Note_on_c, 0, 73, 0
2, 378480, Note_on_c, 0, 61, 0
2, 378480, Note_on_c, 0, 86, 0
2, 378480, Note_on_c, 0, 84, 0
2, 378480, Note_on_c, 0, 98, 0
2, 378480, Note_on_c, 0, 96, 0
2, 378720, Note_on_c, 0, 86, 100
2, 378720, Note_on_c, 0, 84, 100
2, 378720, Note_on_c, 0, 98, 100
2, 378720, Note_on_c, 0, 96, 100
2, 378720, Note_on_c, 0, 73, 100
2, 378960, Note_on_c, 0, 86, 0
2, 378960, Note_on_c, 0, 84, 0
2, 378960, Note_on_c, 0, 98, 0
2, 378960, Note_on_c, 0, 96, 0
2, 378960, Note_on_c, 0, 73, 0
2, 379200, Note_on_c, 0, 73, 100
2, 379200, Note_on_c, 0, 86, 100
2, 379200, Note_on_c, 0, 84, 100
2, 379200, Note_on_c, 0, 98, 100
2, 379200, Note_on_c, 0, 96, 100
2, 379200, Note_on_c, 0, 61, 100
2, 379440, Note_on_c, 0, 73, 0
2, 379440, Note_on_c, 0, 86, 0
2, 379440, Note_on_c, 0, 84, 0
2, 379440, Note_on_c, 0, 98, 0
2, 379440, Note_on_c, 0, 96, 0
2, 379440, Note_on_c, 0, 61, 0
2, 379680, Note_on_c, 0, 108, 0
2, 379680, Note_on_c, 0, 86, 100
2, 379680, Note_on_c, 0, 84, 100
2, 379680, Note_on_c, 0, 98, 100
2, 379680, Note_on_c, 0, 96, 100
2, 379920, Note_on_c, 0, 86, 0
2, 379920, Note_on_c, 0, 84, 0
2, 379920, Note_on_c, 0, 98, 0
2, 379920, Note_on_c, 0, 96, 0
2, 380160, Note_on_c, 0, 73, 100
2, 380160, Note_on_c, 0, 61, 100
2, 380160, Note_on_c, 0, 86, 100
2, 380160, Note_on_c, 0, 84, 100
2, 380160, Note_on_c, 0, 98, 100
2, 380160, Note_on_c, 0, 96, 100
2, 380160, Note_on_c, 0, 108, 100
2, 380400, Note_on_c, 0, 73, 0
2, 380400, Note_on_c, 0, 61, 0
2, 380400, Note_on_c, 0, 86, 0
2, 380400, Note_on_c, 0, 84, 0
2, 380400, Note_on_c, 0, 98, 0
2, 380400, Note_on_c, 0, 96, 0
2, 380640, Note_on_c, 0, 86, 100
2, 380640, Note_on_c, 0, 84, 100
2, 380640, Note_on_c, 0, 98, 100
2, 380640, Note_on_c, 0, 96, 100
2, 380640, Note_on_c, 0, 73, 100
2, 380880, Note_on_c, 0, 86, 0
2, 380880, Note_on_c, 0, 84, 0
2, 380880, Note_on_c, 0, 98, 0
2, 380880, Note_on_c, 0, 96, 0
2, 380880, Note_on_c, 0, 73, 0
2, 381120, Note_on_c, 0, 73, 100
2, 381120, Note_on_c, 0, 86, 100
2, 381120, Note_on_c, 0, 84, 100
2, 381120, Note_on_c, 0, 98, 100
2, 381120, Note_on_c, 0, 96, 100
2, 381120, Note_on_c, 0, 61, 100
2, 381360, Note_on_c, 0, 73, 0
2, 381360, Note_on_c, 0, 86, 0
2, 381360, Note_on_c, 0, 84, 0
2, 381360, Note_on_c, 0, 98, 0
2, 381360, Note_on_c, 0, 96, 0
2, 381360, Note_on_c, 0, 61, 0
2, 381600, Note_on_c, 0, 86, 100
2, 381600, Note_on_c, 0, 84, 100
2, 381600, Note_on_c, 0, 98, 100
2, 381600, Note_on_c, 0, 96, 100
2, 381600, Note_on_c, 0, 73, 100
2, 381840, Note_on_c, 0, 86, 0
2, 381840, Note_on_c, 0, 84, 0
2, 381840, Note_on_c, 0, 98, 0
2, 381840, Note_on_c, 0, 96, 0
2, 381840, Note_on_c, 0, 73, 0
2, 381920, Note_on_c, 0, 108, 0
2, 382080, Note_on_c, 0, 73, 100
2, 382080, Note_on_c, 0, 61, 100
2, 382080, Note_on_c, 0, 86, 100
2, 382080, Note_on_c, 0, 84, 100
2, 382080, Note_on_c, 0, 98, 100
2, 382080, Note_on_c, 0, 96, 100
2, 382080, Note_on_c, 0, 108, 100
2, 382320, Note_on_c, 0, 73, 0
2, 382320, Note_on_c, 0, 61, 0
2, 382320, Note_on_c, 0, 86, 0
2, 382320, Note_on_c, 0, 84, 0
2, 382320, Note_on_c, 0, 98, 0
2, 382320, Note_on_c, 0, 96, 0
2, 382560, Note_on_c, 0, 86, 100
2, 382560, Note_on_c, 0, 84, 100
2, 382560, Note_on_c, 0, 98, 100
2, 382560, Note_on_c, 0, 96, 100
2, 382560, Note_on_c, 0, 73, 100
2, 382800, Note_on_c, 0, 86, 0
2, 382800, Note_on_c, 0, 84, 0
2, 382800, Note_on_c, 0, 98, 0
2, 382800, Note_on_c, 0, 96, 0
2, 382800, Note_on_c, 0, 73, 0
2, 383040, Note_on_c, 0, 73, 100
2, 383040, Note_on_c, 0, 61, 100
2, 383040, Note_on_c, 0, 86, 100
2, 383040, Note_on_c, 0, 84, 100
2, 383040, Note_on_c, 0, 98, 100
2, 383040, Note_on_c, 0, 96, 100
2, 383280, Note_on_c, 0, 73, 0
2, 383280, Note_on_c, 0, 61, 0
2, 383280, Note_on_c, 0, 86, 0
2, 383280, Note_on_c, 0, 84, 0
2, 383280, Note_on_c, 0, 98, 0
2, 383280, Note_on_c, 0, 96, 0
2, 383520, Note_on_c, 0, 86, 100
2, 383520, Note_on_c, 0, 84, 100
2, 383520, Note_on_c, 0, 98, 100
2, 383520, Note_on_c, 0, 96, 100
2, 383680, Note_on_c, 0, 108, 0
2, 383760, Note_on_c, 0, 86, 0
2, 383760, Note_on_c, 0, 84, 0
2, 383760, Note_on_c, 0, 98, 0
2, 383760, Note_on_c, 0, 96, 0
2, 383970, Text_t, "[lighting ()]"
2, 384000, Note_on_c, 0, 87, 100
2, 384000, Note_on_c, 0, 74, 100
2, 384000, Note_on_c, 0, 97, 100
2, 384000, Note_on_c, 0, 99, 100
2, 384000, Note_on_c, 0, 62, 100
2, 384000, Note_on_c, 0, 85, 100
2, 384240, Note_on_c, 0, 87, 0
2, 384240, Note_on_c, 0, 74, 0
2, 384240, Note_on_c, 0, 97, 0
2, 384240, Note_on_c, 0, 99, 0
2, 384240, Note_on_c, 0, 62, 0
2, 384240, Note_on_c, 0, 85, 0
2, 384480, Note_on_c, 0, 87, 100
2, 384480, Note_on_c, 0, 97, 100
2, 384480, Note_on_c, 0, 99, 100
2, 384480, Note_on_c, 0, 74, 100
2, 384480, Note_on_c, 0, 85, 100
2, 384720, Note_on_c, 0, 87, 0
2, 384720, Note_on_c, 0, 97, 0
2, 384720, Note_on_c, 0, 99, 0
2, 384720, Note_on_c, 0, 74, 0
2, 384720, Note_on_c, 0, 85, 0
2, 384930, Text_t, "drum_double"
2, 384960, Note_on_c, 0, 87, 100
2, 384960, Note_on_c, 0, 74, 100
2, 384960, Note_on_c, 0, 97, 100
2, 384960, Note_on_c, 0, 99, 100
2, 384960, Note_on_c, 0, 62, 100
2, 384960, Note_on_c, 0, 85, 100
2, 385200, Note_on_c, 0, 87, 0
2, 385200, Note_on_c, 0, 74, 0
2, 385200, Note_on_c, 0, 97, 0
2, 385200, Note_on_c, 0, 99, 0
2, 385200, Note_on_c, 0, 62, 0
2, 385200, Note_on_c, 0, 85, 0
2, 385440, Note_on_c, 0, 87, 100
2, 385440, Note_on_c, 0, 97, 100
2, 385440, Note_on_c, 0, 99, 100
2, 385440, Note_on_c, 0, 74, 100
2, 385440, Note_on_c, 0, 85, 100
2, 385680, Note_on_c, 0, 87, 0
2, 385680, Note_on_c, 0, 97, 0
2, 385680, Note_on_c, 0, 99, 0
2, 385680, Note_on_c, 0, 74, 0
2, 385680, Note_on_c, 0, 85, 0
2, 385890, Text_t, "drum_normal"
2, 385920, Note_on_c, 0, 87, 100
2, 385920, Note_on_c, 0, 74, 100
2, 385920, Note_on_c, 0, 97, 100
2, 385920, Note_on_c, 0, 99, 100
2, 385920, Note_on_c, 0, 62, 100
2, 385920, Note_on_c, 0, 85, 100
2, 385920, Note_on_c, 0, 108, 100
2, 386160, Note_on_c, 0, 87, 0
2, 386160, Note_on_c, 0, 74, 0
2, 386160, Note_on_c, 0, 97, 0
2, 386160, Note_on_c, 0, 99, 0
2, 386160, Note_on_c, 0, 62, 0
2, 386160, Note_on_c, 0, 85, 0
2, 386400, Note_on_c, 0, 87, 100
2, 386400, Note_on_c, 0, 97, 100
2, 386400, Note_on_c, 0, 99, 100
2, 386400, Note_on_c, 0, 74, 100
2, 386400, Note_on_c, 0, 85, 100
2, 386640, Note_on_c, 0, 87, 0
2, 386640, Note_on_c, 0, 97, 0
2, 386640, Note_on_c, 0, 99, 0
2, 386640, Note_on_c, 0, 74, 0
2, 386640, Note_on_c, 0, 85, 0
2, 386880, Note_on_c, 0, 87, 100
2, 386880, Note_on_c, 0, 74, 100
2, 386880, Note_on_c, 0, 97, 100
2, 386880, Note_on_c, 0, 99, 100
2, 386880, Note_on_c, 0, 62, 100
2, 386880, Note_on_c, 0, 85, 100
2, 387120, Note_on_c, 0, 87, 0
2, 387120, Note_on_c, 0, 74, 0
2, 387120, Note_on_c, 0, 97, 0
2, 387120, Note_on_c, 0, 99, 0
2, 387120, Note_on_c, 0, 62, 0
2, 387120, Note_on_c, 0, 85, 0
2, 387360, Note_on_c, 0, 87, 100
2, 387360, Note_on_c, 0, 97, 100
2, 387360, Note_on_c, 0, 99, 100
2, 387360, Note_on_c, 0, 85, 100
2, 387600, Note_on_c, 0, 108, 0
2, 387600, Note_on_c, 0, 87, 0
2, 387600, Note_on_c, 0, 97, 0
2, 387600, Note_on_c, 0, 99, 0
2, 387600, Note_on_c, 0, 85, 0
2, 387810, Text_t, "drum_double"
2, 387840, Note_on_c, 0, 87, 100
2, 387840, Note_on_c, 0, 74, 100
2, 387840, Note_on_c, 0, 97, 100
2, 387840, Note_on_c, 0, 99, 100
2, 387840, Note_on_c, 0, 62, 100
2, 387840, Note_on_c, 0, 85, 100
2, 387840, Note_on_c, 0, 108, 100
2, 388080, Note_on_c, 0, 87, 0
2, 388080, Note_on_c, 0, 74, 0
2, 388080, Note_on_c, 0, 97, 0
2, 388080, Note_on_c, 0, 99, 0
2, 388080, Note_on_c, 0, 62, 0
2, 388080, Note_on_c, 0, 85, 0
2, 388320, Note_on_c, 0, 87, 100
2, 388320, Note_on_c, 0, 97, 100
2, 388320, Note_on_c, 0, 99, 100
2, 388320, Note_on_c, 0, 74, 100
2, 388320, Note_on_c, 0, 85, 100
2, 388560, Note_on_c, 0, 87, 0
2, 388560, Note_on_c, 0, 97, 0
2, 388560, Note_on_c, 0, 99, 0
2, 388560, Note_on_c, 0, 74, 0
2, 388560, Note_on_c, 0, 85, 0
2, 388770, Text_t, "drum_half"
2, 388800, Note_on_c, 0, 87, 100
2, 388800, Note_on_c, 0, 74, 100
2, 388800, Note_on_c, 0, 97, 100
2, 388800, Note_on_c, 0, 99, 100
2, 388800, Note_on_c, 0, 62, 100
2, 388800, Note_on_c, 0, 85, 100
2, 389040, Note_on_c, 0, 87, 0
2, 389040, Note_on_c, 0, 74, 0
2, 389040, Note_on_c, 0, 97, 0
2, 389040, Note_on_c, 0, 99, 0
2, 389040, Note_on_c, 0, 62, 0
2, 389040, Note_on_c, 0, 85, 0
2, 389280, Note_on_c, 0, 108, 0
2, 389280, Note_on_c, 0, 87, 100
2, 389280, Note_on_c, 0, 97, 100
2, 389280, Note_on_c, 0, 99, 100
2, 389280, Note_on_c, 0, 74, 100
2, 389280, Note_on_c, 0, 85, 100
2, 389520, Note_on_c, 0, 87, 0
2, 389520, Note_on_c, 0, 97, 0
2, 389520, Note_on_c, 0, 99, 0
2, 389520, Note_on_c, 0, 74, 0
2, 389520, Note_on_c, 0, 85, 0
2, 389730, Text_t, "[lighting ()]"
2, 389760, Note_on_c, 0, 87, 100
2, 389760, Note_on_c, 0, 74, 100
2, 389760, Note_on_c, 0, 97, 100
2, 389760, Note_on_c, 0, 99, 100
2, 389760, Note_on_c, 0, 62, 100
2, 389760, Note_on_c, 0, 85, 100
2, 389760, Note_on_c, 0, 108, 100
2, 390000, Note_on_c, 0, 87, 0
2, 390000, Note_on_c, 0, 74, 0
2, 390000, Note_on_c, 0, 97, 0
2, 390000, Note_on_c, 0, 99, 0
2, 390000, Note_on_c, 0, 62, 0
2, 390000, Note_on_c, 0, 85, 0
2, 390240, Note_on_c, 0, 87, 100
2, 390240, Note_on_c, 0, 97, 100
2, 390240, Note_on_c, 0, 99, 100
2, 390240, Note_on_c, 0, 74, 100
2, 390240, Note_on_c, 0, 85, 100
2, 390480, Note_on_c, 0, 87, 0
2, 390480, Note_on_c, 0, 97, 0
2, 390480, Note_on_c, 0, 99, 0
2, 390480, Note_on_c, 0, 74, 0
2, 390480, Note_on_c, 0, 85, 0
2, 390720, Note_on_c, 0, 87, 100
2, 390720, Note_on_c, 0, 74, 100
2, 390720, Note_on_c, 0, 97, 100
2, 390720, Note_on_c, 0, 99, 100
2, 390720, Note_on_c, 0, 62, 100
2, 390720, Note_on_c, 0, 85, 100
2, 390960, Note_on_c, 0, 87, 0
2, 390960, Note_on_c, 0, 74, 0
2, 390960, Note_on_c, 0, 97, 0
2, 390960, Note_on_c, 0, 99, 0
2, 390960, Note_on_c, 0, 62, 0
2, 390960, Note_on_c, 0, 85, 0
2, 391200, Note_on_c, 0, 87, 100
2, 391200, Note_on_c, 0, 97, 100
2, 391200, Note_on_c, 0, 99, 100
2, 391200, Note_on_c, 0, 85, 100
2, 391360, Note_on_c, 0, 108, 0
2, 391440, Note_on_c, 0, 87, 0
2, 391440, Note_on_c, 0, 97, 0
2, 391440, Note_on_c, 0, 99, 0
2, 391440, Note_on_c, 0, 85, 0
2, 391650, Text_t, "drum_normal"
2, 391650, Note_on_c, 0, 103, 100
2, 391650, Note_on_c, 0, 91, 100
2, 391650, Note_on_c, 0, 67, 100
2, 391650, Note_on_c, 0, 79, 100
2, 391680, Note_on_c, 0, 100, 100
2, 391680, Note_on_c, 0, 99, 100
2, 391680, Note_on_c, 0, 61, 100
2, 391680, Note_on_c, 0, 75, 100
2, 391680, Note_on_c, 0, 88, 100
2, 391680, Note_on_c, 0, 87, 100
2, 391680, Note_on_c, 0, 108, 100
2, 391920, Note_on_c, 0, 100, 0
2, 391920, Note_on_c, 0, 99, 0
2, 391920, Note_on_c, 0, 61, 0
2, 391920, Note_on_c, 0, 75, 0
2, 391920, Note_on_c, 0, 88, 0
2, 391920, Note_on_c, 0, 87, 0
2, 392160, Note_on_c, 0, 100, 100
2, 392160, Note_on_c, 0, 99, 100
2, 392160, Note_on_c, 0, 75, 100
2, 392160, Note_on_c, 0, 88, 100
2, 392160, Note_on_c, 0, 87, 100
2, 392400, Note_on_c, 0, 100, 0
2, 392400, Note_on_c, 0, 99, 0
2, 392400, Note_on_c, 0, 75, 0
2, 392400, Note_on_c, 0, 88, 0
2, 392400, Note_on_c, 0, 87, 0
2, 392640, Note_on_c, 0, 100, 100
2, 392640, Note_on_c, 0, 99, 100
2, 392640, Note_on_c, 0, 61, 100
2, 392640, Note_on_c, 0, 75, 100
2, 392640, Note_on_c, 0, 88, 100
2, 392640, Note_on_c, 0, 87, 100
2, 392880, Note_on_c, 0, 100, 0
2, 392880, Note_on_c, 0, 99, 0
2, 392880, Note_on_c, 0, 61, 0
2, 392880, Note_on_c, 0, 75, 0
2, 392880, Note_on_c, 0, 88, 0
2, 392880, Note_on_c, 0, 87, 0
2, 393120, Note_on_c, 0, 100, 100
2, 393120, Note_on_c, 0, 99, 100
2, 393120, Note_on_c, 0, 75, 100
2, 393120, Note_on_c, 0, 88, 100
2, 393120, Note_on_c, 0, 87, 100
2, 393360, Note_on_c, 0, 100, 0
2, 393360, Note_on_c, 0, 99, 0
2, 393360, Note_on_c, 0, 75, 0
2, 393360, Note_on_c, 0, 88, 0
2, 393360, Note_on_c, 0, 87, 0
2, 393600, Note_on_c, 0, 100, 100
2, 393600, Note_on_c, 0, 99, 100
2, 393600, Note_on_c, 0, 61, 100
2, 393600, Note_on_c, 0, 75, 100
2, 393600, Note_on_c, 0, 88, 100
2, 393600, Note_on_c, 0, 87, 100
2, 393840, Note_on_c, 0, 100, 0
2, 393840, Note_on_c, 0, 99, 0
2, 393840, Note_on_c, 0, 61, 0
2, 393840, Note_on_c, 0, 75, 0
2, 393840, Note_on_c, 0, 88, 0
2, 393840, Note_on_c, 0, 87, 0
2, 394080, Note_on_c, 0, 100, 100
2, 394080, Note_on_c, 0, 99, 100
2, 394080, Note_on_c, 0, 75, 100
2, 394080, Note_on_c, 0, 88, 100
2, 394080, Note_on_c, 0, 87, 100
2, 394320, Note_on_c, 0, 100, 0
2, 394320, Note_on_c, 0, 99, 0
2, 394320, Note_on_c, 0, 75, 0
2, 394320, Note_on_c, 0, 88, 0
2, 394320, Note_on_c, 0, 87, 0
2, 394560, Note_on_c, 0, 100, 100
2, 394560, Note_on_c, 0, 99, 100
2, 394560, Note_on_c, 0, 61, 100
2, 394560, Note_on_c, 0, 75, 100
2, 394560, Note_on_c, 0, 88, 100
2, 394560, Note_on_c, 0, 87, 100
2, 394800, Note_on_c, 0, 100, 0
2, 394800, Note_on_c, 0, 99, 0
2, 394800, Note_on_c, 0, 61, 0
2, 394800, Note_on_c, 0, 75, 0
2, 394800, Note_on_c, 0, 88, 0
2, 394800, Note_on_c, 0, 87, 0
2, 395040, Note_on_c, 0, 100, 100
2, 395040, Note_on_c, 0, 99, 100
2, 395040, Note_on_c, 0, 88, 100
2, 395040, Note_on_c, 0, 87, 100
2, 395280, Note_on_c, 0, 100, 0
2, 395280, Note_on_c, 0, 99, 0
2, 395280, Note_on_c, 0, 88, 0
2, 395280, Note_on_c, 0, 87, 0
2, 395520, Note_on_c, 0, 100, 100
2, 395520, Note_on_c, 0, 99, 100
2, 395520, Note_on_c, 0, 61, 100
2, 395520, Note_on_c, 0, 75, 100
2, 395520, Note_on_c, 0, 88, 100
2, 395520, Note_on_c, 0, 87, 100
2, 395760, Note_on_c, 0, 100, 0
2, 395760, Note_on_c, 0, 99, 0
2, 395760, Note_on_c, 0, 61, 0
2, 395760, Note_on_c, 0, 75, 0
2, 395760, Note_on_c, 0, 88, 0
2, 395760, Note_on_c, 0, 87, 0
2, 396000, Note_on_c, 0, 100, 100
2, 396000, Note_on_c, 0, 99, 100
2, 396000, Note_on_c, 0, 75, 100
2, 396000, Note_on_c, 0, 88, 100
2, 396000, Note_on_c, 0, 87, 100
2, 396240, Note_on_c, 0, 100, 0
2, 396240, Note_on_c, 0, 99, 0
2, 396240, Note_on_c, 0, 75, 0
2, 396240, Note_on_c, 0, 88, 0
2, 396240, Note_on_c, 0, 87, 0
2, 396480, Note_on_c, 0, 100, 100
2, 396480, Note_on_c, 0, 99, 100
2, 396480, Note_on_c, 0, 61, 100
2, 396480, Note_on_c, 0, 75, 100
2, 396480, Note_on_c, 0, 88, 100
2, 396480, Note_on_c, 0, 87, 100
2, 396720, Note_on_c, 0, 100, 0
2, 396720, Note_on_c, 0, 99, 0
2, 396720, Note_on_c, 0, 61, 0
2, 396720, Note_on_c, 0, 75, 0
2, 396720, Note_on_c, 0, 88, 0
2, 396720, Note_on_c, 0, 87, 0
2, 396960, Note_on_c, 0, 100, 100
2, 396960, Note_on_c, 0, 99, 100
2, 396960, Note_on_c, 0, 75, 100
2, 396960, Note_on_c, 0, 88, 100
2, 396960, Note_on_c, 0, 87, 100
2, 397200, Note_on_c, 0, 100, 0
2, 397200, Note_on_c, 0, 99, 0
2, 397200, Note_on_c, 0, 75, 0
2, 397200, Note_on_c, 0, 88, 0
2, 397200, Note_on_c, 0, 87, 0
2, 397440, Note_on_c, 0, 100, 100
2, 397440, Note_on_c, 0, 99, 100
2, 397440, Note_on_c, 0, 61, 100
2, 397440, Note_on_c, 0, 75, 100
2, 397440, Note_on_c, 0, 88, 100
2, 397440, Note_on_c, 0, 87, 100
2, 397680, Note_on_c, 0, 100, 0
2, 397680, Note_on_c, 0, 99, 0
2, 397680, Note_on_c, 0, 61, 0
2, 397680, Note_on_c, 0, 75, 0
2, 397680, Note_on_c, 0, 88, 0
2, 397680, Note_on_c, 0, 87, 0
2, 397920, Note_on_c, 0, 100, 100
2, 397920, Note_on_c, 0, 99, 100
2, 397920, Note_on_c, 0, 75, 100
2, 397920, Note_on_c, 0, 88, 100
2, 397920, Note_on_c, 0, 87, 100
2, 398160, Note_on_c, 0, 100, 0
2, 398160, Note_on_c, 0, 99, 0
2, 398160, Note_on_c, 0, 75, 0
2, 398160, Note_on_c, 0, 88, 0
2, 398160, Note_on_c, 0, 87, 0
2, 398400, Note_on_c, 0, 108, 0
2, 398400, Note_on_c, 0, 100, 100
2, 398400, Note_on_c, 0, 99, 100
2, 398400, Note_on_c, 0, 61, 100
2, 398400, Note_on_c, 0, 75, 100
2, 398400, Note_on_c, 0, 88, 100
2, 398400, Note_on_c, 0, 87, 100
2, 398640, Note_on_c, 0, 100, 0
2, 398640, Note_on_c, 0, 99, 0
2, 398640, Note_on_c, 0, 61, 0
2, 398640, Note_on_c, 0, 75, 0
2, 398640, Note_on_c, 0, 88, 0
2, 398640, Note_on_c, 0, 87, 0
2, 398880, Note_on_c, 0, 100, 100
2, 398880, Note_on_c, 0, 99, 100
2, 398880, Note_on_c, 0, 75, 100
2, 398880, Note_on_c, 0, 88, 100
2, 398880, Note_on_c, 0, 87, 100
2, 399090, Note_on_c, 0, 103, 0
2, 399090, Note_on_c, 0, 91, 0
2, 399090, Note_on_c, 0, 67, 0
2, 399090, Note_on_c, 0, 79, 0
2, 399120, Note_on_c, 0, 100, 0
2, 399120, Note_on_c, 0, 99, 0
2, 399120, Note_on_c, 0, 75, 0
2, 399120, Note_on_c, 0, 88, 0
2, 399120, Note_on_c, 0, 87, 0
2, 399330, Note_on_c, 0, 105, 0
2, 399330, Note_on_c, 0, 93, 0
2, 399330, Note_on_c, 0, 69, 0
2, 399330, Note_on_c, 0, 81, 0
2, 399360, Note_on_c, 0, 86, 100
2, 399360, Note_on_c, 0, 97, 100
2, 399360, Note_on_c, 0, 73, 100
2, 399360, Note_on_c, 0, 61, 100
2, 399600, Note_on_c, 0, 86, 0
2, 399600, Note_on_c, 0, 97, 0
2, 399600, Note_on_c, 0, 73, 0
2, 399600, Note_on_c, 0, 61, 0
2, 399840, Note_on_c, 0, 87, 100
2, 399840, Note_on_c, 0, 97, 100
2, 399840, Note_on_c, 0, 99, 100
2, 399840, Note_on_c, 0, 74, 100
2, 400080, Note_on_c, 0, 87, 0
2, 400080, Note_on_c, 0, 97, 0
2, 400080, Note_on_c, 0, 99, 0
2, 400080, Note_on_c, 0, 74, 0
2, 400320, Note_on_c, 0, 87, 100
2, 400320, Note_on_c, 0, 97, 100
2, 400320, Note_on_c, 0, 99, 100
2, 400560, Note_on_c, 0, 87, 0
2, 400560, Note_on_c, 0, 97, 0
2, 400560, Note_on_c, 0, 99, 0
2, 400800, Note_on_c, 0, 86, 100
2, 400800, Note_on_c, 0, 97, 100
2, 400800, Note_on_c, 0, 73, 100
2, 400800, Note_on_c, 0, 61, 100
2, 401040, Note_on_c, 0, 86, 0
2, 401040, Note_on_c, 0, 97, 0
2, 401040, Note_on_c, 0, 73, 0
2, 401040, Note_on_c, 0, 61, 0
2, 401280, Note_on_c, 0, 87, 100
2, 401280, Note_on_c, 0, 97, 100
2, 401280, Note_on_c, 0, 99, 100
2, 401280, Note_on_c, 0, 74, 100
2, 401520, Note_on_c, 0, 87, 0
2, 401520, Note_on_c, 0, 97, 0
2, 401520, Note_on_c, 0, 99, 0
2, 401520, Note_on_c, 0, 74, 0
2, 401760, Note_on_c, 0, 87, 100
2, 401760, Note_on_c, 0, 97, 100
2, 401760, Note_on_c, 0, 99, 100
2, 402000, Note_on_c, 0, 87, 0
2, 402000, Note_on_c, 0, 97, 0
2, 402000, Note_on_c, 0, 99, 0
2, 402240, Note_on_c, 0, 86, 100
2, 402240, Note_on_c, 0, 97, 100
2, 402240, Note_on_c, 0, 73, 100
2, 402240, Note_on_c, 0, 61, 100
2, 402480, Note_on_c, 0, 86, 0
2, 402480, Note_on_c, 0, 97, 0
2, 402480, Note_on_c, 0, 73, 0
2, 402480, Note_on_c, 0, 61, 0
2, 402720, Note_on_c, 0, 87, 100
2, 402720, Note_on_c, 0, 97, 100
2, 402720, Note_on_c, 0, 99, 100
2, 402720, Note_on_c, 0, 74, 100
2, 402960, Note_on_c, 0, 87, 0
2, 402960, Note_on_c, 0, 97, 0
2, 402960, Note_on_c, 0, 99, 0
2, 402960, Note_on_c, 0, 74, 0
2, 403200, Note_on_c, 0, 87, 100
2, 403200, Note_on_c, 0, 97, 100
2, 403200, Note_on_c, 0, 99, 100
2, 403440, Note_on_c, 0, 87, 0
2, 403440, Note_on_c, 0, 97, 0
2, 403440, Note_on_c, 0, 99, 0
2, 403680, Note_on_c, 0, 86, 100
2, 403680, Note_on_c, 0, 97, 100
2, 403680, Note_on_c, 0, 73, 100
2, 403680, Note_on_c, 0, 61, 100
2, 403920, Note_on_c, 0, 86, 0
2, 403920, Note_on_c, 0, 97, 0
2, 403920, Note_on_c, 0, 73, 0
2, 403920, Note_on_c, 0, 61, 0
2, 404160, Note_on_c, 0, 87, 100
2, 404160, Note_on_c, 0, 97, 100
2, 404160, Note_on_c, 0, 99, 100
2, 404160, Note_on_c, 0, 74, 100
2, 404400, Note_on_c, 0, 87, 0
2, 404400, Note_on_c, 0, 97, 0
2, 404400, Note_on_c, 0, 99, 0
2, 404400, Note_on_c, 0, 74, 0
2, 404640, Note_on_c, 0, 87, 100
2, 404640, Note_on_c, 0, 97, 100
2, 404640, Note_on_c, 0, 99, 100
2, 404880, Note_on_c, 0, 87, 0
2, 404880, Note_on_c, 0, 97, 0
2, 404880, Note_on_c, 0, 99, 0
2, 405120, Note_on_c, 0, 86, 100
2, 405120, Note_on_c, 0, 97, 100
2, 405120, Note_on_c, 0, 73, 100
2, 405120, Note_on_c, 0, 61, 100
2, 405360, Note_on_c, 0, 86, 0
2, 405360, Note_on_c, 0, 97, 0
2, 405360, Note_on_c, 0, 73, 0
2, 405360, Note_on_c, 0, 61, 0
2, 405600, Note_on_c, 0, 87, 100
2, 405600, Note_on_c, 0, 97, 100
2, 405600, Note_on_c, 0, 99, 100
2, 405600, Note_on_c, 0, 74, 100
2, 405840, Note_on_c, 0, 87, 0
2, 405840, Note_on_c, 0, 97, 0
2, 405840, Note_on_c, 0, 99, 0
2, 405840, Note_on_c, 0, 74, 0
2, 406080, Note_on_c, 0, 87, 100
2, 406080, Note_on_c, 0, 97, 100
2, 406080, Note_on_c, 0, 99, 100
2, 406320, Note_on_c, 0, 87, 0
2, 406320, Note_on_c, 0, 97, 0
2, 406320, Note_on_c, 0, 99, 0
2, 406560, Note_on_c, 0, 86, 100
2, 406560, Note_on_c, 0, 97, 100
2, 406560, Note_on_c, 0, 73, 100
2, 406560, Note_on_c, 0, 61, 100
2, 406800, Note_on_c, 0, 86, 0
2, 406800, Note_on_c, 0, 97, 0
2, 406800, Note_on_c, 0, 73, 0
2, 406800, Note_on_c, 0, 61, 0
2, 407040, Note_on_c, 0, 87, 100
2, 407040, Note_on_c, 0, 97, 100
2, 407040, Note_on_c, 0, 99, 100
2, 407040, Note_on_c, 0, 74, 100
2, 407280, Note_on_c, 0, 87, 0
2, 407280, Note_on_c, 0, 97, 0
2, 407280, Note_on_c, 0, 99, 0
2, 407280, Note_on_c, 0, 74, 0
2, 407520, Note_on_c, 0, 87, 100
2, 407520, Note_on_c, 0, 97, 100
2, 407520, Note_on_c, 0, 99, 100
2, 407760, Note_on_c, 0, 87, 0
2, 407760, Note_on_c, 0, 97, 0
2, 407760, Note_on_c, 0, 99, 0
2, 408000, Note_on_c, 0, 86, 100
2, 408000, Note_on_c, 0, 97, 100
2, 408000, Note_on_c, 0, 73, 100
2, 408000, Note_on_c, 0, 61, 100
2, 408240, Note_on_c, 0, 86, 0
2, 408240, Note_on_c, 0, 97, 0
2, 408240, Note_on_c, 0, 73, 0
2, 408240, Note_on_c, 0, 61, 0
2, 408480, Note_on_c, 0, 87, 100
2, 408480, Note_on_c, 0, 97, 100
2, 408480, Note_on_c, 0, 99, 100
2, 408480, Note_on_c, 0, 74, 100
2, 408720, Note_on_c, 0, 87, 0
2, 408720, Note_on_c, 0, 97, 0
2, 408720, Note_on_c, 0, 99, 0
2, 408720, Note_on_c, 0, 74, 0
2, 408960, Note_on_c, 0, 87, 100
2, 408960, Note_on_c, 0, 97, 100
2, 408960, Note_on_c, 0, 99, 100
2, 409200, Note_on_c, 0, 87, 0
2, 409200, Note_on_c, 0, 97, 0
2, 409200, Note_on_c, 0, 99, 0
2, 409440, Note_on_c, 0, 86, 100
2, 409440, Note_on_c, 0, 97, 100
2, 409440, Note_on_c, 0, 61, 100
2, 409440, Note_on_c, 0, 73, 100
2, 409680, Note_on_c, 0, 86, 0
2, 409680, Note_on_c, 0, 97, 0
2, 409680, Note_on_c, 0, 61, 0
2, 409680, Note_on_c, 0, 73, 0
2, 409920, Note_on_c, 0, 87, 100
2, 409920, Note_on_c, 0, 99, 100
2, 409920, Note_on_c, 0, 97, 100
2, 409920, Note_on_c, 0, 62, 100
2, 409920, Note_on_c, 0, 75, 100
2, 410160, Note_on_c, 0, 87, 0
2, 410160, Note_on_c, 0, 99, 0
2, 410160, Note_on_c, 0, 97, 0
2, 410160, Note_on_c, 0, 62, 0
2, 410160, Note_on_c, 0, 75, 0
2, 410400, Note_on_c, 0, 88, 100
2, 410400, Note_on_c, 0, 100, 100
2, 410400, Note_on_c, 0, 97, 100
2, 410640, Note_on_c, 0, 88, 0
2, 410640, Note_on_c, 0, 100, 0
2, 410640, Note_on_c, 0, 97, 0
2, 410880, Note_on_c, 0, 87, 100
2, 410880, Note_on_c, 0, 99, 100
2, 410880, Note_on_c, 0, 97, 100
2, 410880, Note_on_c, 0, 74, 100
2, 411120, Note_on_c, 0, 87, 0
2, 411120, Note_on_c, 0, 99, 0
2, 411120, Note_on_c, 0, 97, 0
2, 411120, Note_on_c, 0, 74, 0
2, 411360, Note_on_c, 0, 86, 100
2, 411360, Note_on_c, 0, 97, 100
2, 411360, Note_on_c, 0, 73, 100
2, 411360, Note_on_c, 0, 61, 100
2, 411600, Note_on_c, 0, 61, 0
2, 412320, Note_on_c, 0, 86, 0
2, 412320, Note_on_c, 0, 97, 0
2, 412320, Note_on_c, 0, 73, 0
2, 412320, Note_on_c, 0, 87, 100
2, 412320, Note_on_c, 0, 97, 100
2, 412320, Note_on_c, 0, 99, 100
2, 412320, Note_on_c, 0, 74, 100
2, 412560, Note_on_c, 0, 87, 0
2, 412560, Note_on_c, 0, 97, 0
2, 412560, Note_on_c, 0, 99, 0
2, 412560, Note_on_c, 0, 74, 0
2, 412800, Note_on_c, 0, 87, 100
2, 412800, Note_on_c, 0, 97, 100
2, 412800, Note_on_c, 0, 99, 100
2, 413040, Note_on_c, 0, 87, 0
2, 413040, Note_on_c, 0, 97, 0
2, 413040, Note_on_c, 0, 99, 0
2, 413280, Note_on_c, 0, 86, 100
2, 413280, Note_on_c, 0, 97, 100
2, 413280, Note_on_c, 0, 73, 100
2, 413280, Note_on_c, 0, 61, 100
2, 413520, Note_on_c, 0, 86, 0
2, 413520, Note_on_c, 0, 97, 0
2, 413520, Note_on_c, 0, 73, 0
2, 413520, Note_on_c, 0, 61, 0
2, 413760, Note_on_c, 0, 87, 100
2, 413760, Note_on_c, 0, 97, 100
2, 413760, Note_on_c, 0, 99, 100
2, 413760, Note_on_c, 0, 74, 100
2, 414000, Note_on_c, 0, 87, 0
2, 414000, Note_on_c, 0, 97, 0
2, 414000, Note_on_c, 0, 99, 0
2, 414000, Note_on_c, 0, 74, 0
2, 414240, Note_on_c, 0, 87, 100
2, 414240, Note_on_c, 0, 97, 100
2, 414240, Note_on_c, 0, 99, 100
2, 414480, Note_on_c, 0, 87, 0
2, 414480, Note_on_c, 0, 97, 0
2, 414480, Note_on_c, 0, 99, 0
2, 414720, Note_on_c, 0, 86, 100
2, 414720, Note_on_c, 0, 97, 100
2, 414720, Note_on_c, 0, 73, 100
2, 414720, Note_on_c, 0, 61, 100
2, 414960, Note_on_c, 0, 86, 0
2, 414960, Note_on_c, 0, 97, 0
2, 414960, Note_on_c, 0, 73, 0
2, 414960, Note_on_c, 0, 61, 0
2, 415200, Note_on_c, 0, 87, 100
2, 415200, Note_on_c, 0, 97, 100
2, 415200, Note_on_c, 0, 99, 100
2, 415200, Note_on_c, 0, 74, 100
2, 415440, Note_on_c, 0, 87, 0
2, 415440, Note_on_c, 0, 97, 0
2, 415440, Note_on_c, 0, 99, 0
2, 415440, Note_on_c, 0, 74, 0
2, 415680, Note_on_c, 0, 87, 100
2, 415680, Note_on_c, 0, 97, 100
2, 415680, Note_on_c, 0, 99, 100
2, 415920, Note_on_c, 0, 87, 0
2, 415920, Note_on_c, 0, 97, 0
2, 415920, Note_on_c, 0, 99, 0
2, 416160, Note_on_c, 0, 86, 100
2, 416160, Note_on_c, 0, 97, 100
2, 416160, Note_on_c, 0, 73, 100
2, 416160, Note_on_c, 0, 61, 100
2, 416400, Note_on_c, 0, 86, 0
2, 416400, Note_on_c, 0, 97, 0
2, 416400, Note_on_c, 0, 73, 0
2, 416400, Note_on_c, 0, 61, 0
2, 416640, Note_on_c, 0, 87, 100
2, 416640, Note_on_c, 0, 97, 100
2, 416640, Note_on_c, 0, 99, 100
2, 416640, Note_on_c, 0, 74, 100
2, 416880, Note_on_c, 0, 87, 0
2, 416880, Note_on_c, 0, 97, 0
2, 416880, Note_on_c, 0, 99, 0
2, 416880, Note_on_c, 0, 74, 0
2, 417120, Note_on_c, 0, 87, 100
2, 417120, Note_on_c, 0, 97, 100
2, 417120, Note_on_c, 0, 99, 100
2, 417360, Note_on_c, 0, 87, 0
2, 417360, Note_on_c, 0, 97, 0
2, 417360, Note_on_c, 0, 99, 0
2, 417600, Note_on_c, 0, 86, 100
2, 417600, Note_on_c, 0, 97, 100
2, 417600, Note_on_c, 0, 73, 100
2, 417600, Note_on_c, 0, 61, 100
2, 417840, Note_on_c, 0, 86, 0
2, 417840, Note_on_c, 0, 97, 0
2, 417840, Note_on_c, 0, 73, 0
2, 417840, Note_on_c, 0, 61, 0
2, 418080, Note_on_c, 0, 87, 100
2, 418080, Note_on_c, 0, 97, 100
2, 418080, Note_on_c, 0, 99, 100
2, 418080, Note_on_c, 0, 74, 100
2, 418320, Note_on_c, 0, 87, 0
2, 418320, Note_on_c, 0, 97, 0
2, 418320, Note_on_c, 0, 99, 0
2, 418320, Note_on_c, 0, 74, 0
2, 418560, Note_on_c, 0, 87, 100
2, 418560, Note_on_c, 0, 97, 100
2, 418560, Note_on_c, 0, 99, 100
2, 418800, Note_on_c, 0, 87, 0
2, 418800, Note_on_c, 0, 97, 0
2, 418800, Note_on_c, 0, 99, 0
2, 419040, Note_on_c, 0, 86, 100
2, 419040, Note_on_c, 0, 97, 100
2, 419040, Note_on_c, 0, 73, 100
2, 419040, Note_on_c, 0, 61, 100
2, 419280, Note_on_c, 0, 86, 0
2, 419280, Note_on_c, 0, 97, 0
2, 419280, Note_on_c, 0, 73, 0
2, 419280, Note_on_c, 0, 61, 0
2, 419520, Note_on_c, 0, 87, 100
2, 419520, Note_on_c, 0, 97, 100
2, 419520, Note_on_c, 0, 99, 100
2, 419520, Note_on_c, 0, 75, 100
2, 419760, Note_on_c, 0, 87, 0
2, 419760, Note_on_c, 0, 97, 0
2, 419760, Note_on_c, 0, 99, 0
2, 419760, Note_on_c, 0, 75, 0
2, 420000, Note_on_c, 0, 100, 100
2, 420000, Note_on_c, 0, 97, 100
2, 420000, Note_on_c, 0, 88, 100
2, 420240, Note_on_c, 0, 100, 0
2, 420240, Note_on_c, 0, 97, 0
2, 420240, Note_on_c, 0, 88, 0
2, 420480, Note_on_c, 0, 87, 100
2, 420480, Note_on_c, 0, 99, 100
2, 420480, Note_on_c, 0, 61, 100
2, 420480, Note_on_c, 0, 74, 100
2, 420720, Note_on_c, 0, 87, 0
2, 420720, Note_on_c, 0, 99, 0
2, 420720, Note_on_c, 0, 61, 0
2, 420720, Note_on_c, 0, 74, 0
2, 420930, Note_on_c, 0, 105, 100
2, 420930, Note_on_c, 0, 93, 100
2, 420930, Note_on_c, 0, 69, 100
2, 420930, Note_on_c, 0, 81, 100
2, 420960, Note_on_c, 0, 85, 100
2, 420960, Note_on_c, 0, 72, 100
2, 420960, Note_on_c, 0, 60, 100
2, 420960, Note_on_c, 0, 96, 100
2, 420960, Note_on_c, 0, 98, 100
2, 421200, Note_on_c, 0, 60, 0
2, 421920, Note_on_c, 0, 85, 0
2, 421920, Note_on_c, 0, 72, 0
2, 421920, Note_on_c, 0, 96, 0
2, 421920, Note_on_c, 0, 98, 0
2, 421920, Note_on_c, 0, 86, 100
2, 421920, Note_on_c, 0, 97, 100
2, 421920, Note_on_c, 0, 73, 100
2, 422160, Note_on_c, 0, 86, 0
2, 422160, Note_on_c, 0, 97, 0
2, 422160, Note_on_c, 0, 73, 0
2, 422370, Text_t, "[lighting (blackout)]"
2, 422370, Text_t, "sing_off"
2, 422370, Text_t, "[solo]"
2, 422370, Text_t, "solo_on"
2, 422370, Text_t, "[lighting ()]"
2, 422370, Text_t, "[lighting (color2)]"
2, 422400, Note_on_c, 0, 86, 100
2, 422400, Note_on_c, 0, 97, 100
2, 422400, Note_on_c, 0, 73, 100
2, 422400, Note_on_c, 0, 61, 100
2, 422640, Note_on_c, 0, 86, 0
2, 422640, Note_on_c, 0, 97, 0
2, 422640, Note_on_c, 0, 73, 0
2, 422640, Note_on_c, 0, 61, 0
2, 422880, Note_on_c, 0, 85, 100
2, 422880, Note_on_c, 0, 96, 100
2, 422880, Note_on_c, 0, 72, 100
2, 423120, Note_on_c, 0, 85, 0
2, 423120, Note_on_c, 0, 96, 0
2, 423120, Note_on_c, 0, 72, 0
2, 423360, Note_on_c, 0, 86, 100
2, 423360, Note_on_c, 0, 97, 100
2, 423360, Note_on_c, 0, 73, 100
2, 423360, Note_on_c, 0, 62, 100
2, 423600, Note_on_c, 0, 86, 0
2, 423600, Note_on_c, 0, 97, 0
2, 423600, Note_on_c, 0, 73, 0
2, 423600, Note_on_c, 0, 62, 0
2, 423840, Note_on_c, 0, 87, 100
2, 423840, Note_on_c, 0, 98, 100
2, 423840, Note_on_c, 0, 74, 100
2, 424080, Note_on_c, 0, 87, 0
2, 424080, Note_on_c, 0, 98, 0
2, 424080, Note_on_c, 0, 74, 0
2, 424770, Note_on_c, 0, 106, 0
2, 424770, Note_on_c, 0, 94, 0
2, 424770, Note_on_c, 0, 70, 0
2, 424770, Note_on_c, 0, 82, 0
2, 424800, Note_on_c, 0, 61, 100
2, 424800, Note_on_c, 0, 73, 100
2, 424800, Note_on_c, 0, 86, 100
2, 424800, Note_on_c, 0, 97, 100
2, 425040, Note_on_c, 0, 61, 0
2, 425760, Note_on_c, 0, 73, 0
2, 425760, Note_on_c, 0, 86, 0
2, 425760, Note_on_c, 0, 97, 0
2, 425760, Note_on_c, 0, 99, 100
2, 425760, Note_on_c, 0, 74, 100
2, 425760, Note_on_c, 0, 87, 100
2, 425760, Note_on_c, 0, 97, 100
2, 426000, Note_on_c, 0, 99, 0
2, 426000, Note_on_c, 0, 74, 0
2, 426000, Note_on_c, 0, 87, 0
2, 426000, Note_on_c, 0, 97, 0
2, 426240, Note_on_c, 0, 87, 100
2, 426240, Note_on_c, 0, 99, 100
2, 426240, Note_on_c, 0, 97, 100
2, 426480, Note_on_c, 0, 87, 0
2, 426480, Note_on_c, 0, 99, 0
2, 426480, Note_on_c, 0, 97, 0
2, 426720, Note_on_c, 0, 86, 100
2, 426720, Note_on_c, 0, 73, 100
2, 426720, Note_on_c, 0, 61, 100
2, 426720, Note_on_c, 0, 97, 100
2, 426960, Note_on_c, 0, 86, 0
2, 426960, Note_on_c, 0, 73, 0
2, 426960, Note_on_c, 0, 61, 0
2, 426960, Note_on_c, 0, 97, 0
2, 427200, Note_on_c, 0, 87, 100
2, 427200, Note_on_c, 0, 99, 100
2, 427200, Note_on_c, 0, 74, 100
2, 427200, Note_on_c, 0, 97, 100
2, 427440, Note_on_c, 0, 87, 0
2, 427440, Note_on_c, 0, 99, 0
2, 427440, Note_on_c, 0, 74, 0
2, 427440, Note_on_c, 0, 97, 0
2, 427680, Note_on_c, 0, 87, 100
2, 427680, Note_on_c, 0, 99, 100
2, 427680, Note_on_c, 0, 97, 100
2, 427920, Note_on_c, 0, 87, 0
2, 427920, Note_on_c, 0, 99, 0
2, 427920, Note_on_c, 0, 97, 0
2, 428160, Note_on_c, 0, 86, 100
2, 428160, Note_on_c, 0, 73, 100
2, 428160, Note_on_c, 0, 61, 100
2, 428160, Note_on_c, 0, 97, 100
2, 428400, Note_on_c, 0, 86, 0
2, 428400, Note_on_c, 0, 73, 0
2, 428400, Note_on_c, 0, 61, 0
2, 428400, Note_on_c, 0, 97, 0
2, 428640, Note_on_c, 0, 87, 100
2, 428640, Note_on_c, 0, 99, 100
2, 428640, Note_on_c, 0, 74, 100
2, 428640, Note_on_c, 0, 97, 100
2, 428880, Note_on_c, 0, 87, 0
2, 428880, Note_on_c, 0, 99, 0
2, 428880, Note_on_c, 0, 74, 0
2, 428880, Note_on_c, 0, 97, 0
2, 429120, Note_on_c, 0, 87, 100
2, 429120, Note_on_c, 0, 99, 100
2, 429120, Note_on_c, 0, 97, 100
2, 429360, Note_on_c, 0, 87, 0
2, 429360, Note_on_c, 0, 99, 0
2, 429360, Note_on_c, 0, 97, 0
2, 429600, Note_on_c, 0, 86, 100
2, 429600, Note_on_c, 0, 73, 100
2, 429600, Note_on_c, 0, 61, 100
2, 429600, Note_on_c, 0, 97, 100
2, 429840, Note_on_c, 0, 86, 0
2, 429840, Note_on_c, 0, 73, 0
2, 429840, Note_on_c, 0, 61, 0
2, 429840, Note_on_c, 0, 97, 0
2, 430080, Note_on_c, 0, 87, 100
2, 430080, Note_on_c, 0, 99, 100
2, 430080, Note_on_c, 0, 74, 100
2, 430080, Note_on_c, 0, 97, 100
2, 430320, Note_on_c, 0, 87, 0
2, 430320, Note_on_c, 0, 99, 0
2, 430320, Note_on_c, 0, 74, 0
2, 430320, Note_on_c, 0, 97, 0
2, 430560, Note_on_c, 0, 87, 100
2, 430560, Note_on_c, 0, 99, 100
2, 430560, Note_on_c, 0, 97, 100
2, 430800, Note_on_c, 0, 87, 0
2, 430800, Note_on_c, 0, 99, 0
2, 430800, Note_on_c, 0, 97, 0
2, 431040, Note_on_c, 0, 86, 100
2, 431040, Note_on_c, 0, 73, 100
2, 431040, Note_on_c, 0, 61, 100
2, 431040, Note_on_c, 0, 97, 100
2, 431280, Note_on_c, 0, 86, 0
2, 431280, Note_on_c, 0, 73, 0
2, 431280, Note_on_c, 0, 61, 0
2, 431280, Note_on_c, 0, 97, 0
2, 431520, Note_on_c, 0, 87, 100
2, 431520, Note_on_c, 0, 99, 100
2, 431520, Note_on_c, 0, 74, 100
2, 431520, Note_on_c, 0, 97, 100
2, 431760, Note_on_c, 0, 87, 0
2, 431760, Note_on_c, 0, 99, 0
2, 431760, Note_on_c, 0, 74, 0
2, 431760, Note_on_c, 0, 97, 0
2, 432000, Note_on_c, 0, 87, 100
2, 432000, Note_on_c, 0, 99, 100
2, 432000, Note_on_c, 0, 97, 100
2, 432240, Note_on_c, 0, 87, 0
2, 432240, Note_on_c, 0, 99, 0
2, 432240, Note_on_c, 0, 97, 0
2, 432480, Note_on_c, 0, 86, 100
2, 432480, Note_on_c, 0, 73, 100
2, 432480, Note_on_c, 0, 61, 100
2, 432480, Note_on_c, 0, 97, 100
2, 432720, Note_on_c, 0, 86, 0
2, 432720, Note_on_c, 0, 73, 0
2, 432720, Note_on_c, 0, 61, 0
2, 432720, Note_on_c, 0, 97, 0
2, 432960, Note_on_c, 0, 87, 100
2, 432960, Note_on_c, 0, 99, 100
2, 432960, Note_on_c, 0, 74, 100
2, 432960, Note_on_c, 0, 97, 100
2, 433200, Note_on_c, 0, 87, 0
2, 433200, Note_on_c, 0, 99, 0
2, 433200, Note_on_c, 0, 74, 0
2, 433200, Note_on_c, 0, 97, 0
2, 433440, Note_on_c, 0, 87, 100
2, 433440, Note_on_c, 0, 99, 100
2, 433440, Note_on_c, 0, 97, 100
2, 433680, Note_on_c, 0, 87, 0
2, 433680, Note_on_c, 0, 99, 0
2, 433680, Note_on_c, 0, 97, 0
2, 433920, Note_on_c, 0, 86, 100
2, 433920, Note_on_c, 0, 73, 100
2, 433920, Note_on_c, 0, 61, 100
2, 433920, Note_on_c, 0, 97, 100
2, 434160, Note_on_c, 0, 86, 0
2, 434160, Note_on_c, 0, 73, 0
2, 434160, Note_on_c, 0, 61, 0
2, 434160, Note_on_c, 0, 97, 0
2, 434400, Note_on_c, 0, 87, 100
2, 434400, Note_on_c, 0, 99, 100
2, 434400, Note_on_c, 0, 74, 100
2, 434400, Note_on_c, 0, 97, 100
2, 434640, Note_on_c, 0, 87, 0
2, 434640, Note_on_c, 0, 99, 0
2, 434640, Note_on_c, 0, 74, 0
2, 434640, Note_on_c, 0, 97, 0
2, 434880, Note_on_c, 0, 87, 100
2, 434880, Note_on_c, 0, 99, 100
2, 434880, Note_on_c, 0, 97, 100
2, 435120, Note_on_c, 0, 87, 0
2, 435120, Note_on_c, 0, 99, 0
2, 435120, Note_on_c, 0, 97, 0
2, 435360, Note_on_c, 0, 86, 100
2, 435360, Note_on_c, 0, 73, 100
2, 435360, Note_on_c, 0, 61, 100
2, 435360, Note_on_c, 0, 97, 100
2, 435600, Note_on_c, 0, 86, 0
2, 435600, Note_on_c, 0, 73, 0
2, 435600, Note_on_c, 0, 61, 0
2, 435600, Note_on_c, 0, 97, 0
2, 435840, Note_on_c, 0, 87, 100
2, 435840, Note_on_c, 0, 99, 100
2, 435840, Note_on_c, 0, 97, 100
2, 435840, Note_on_c, 0, 75, 100
2, 435840, Note_on_c, 0, 62, 100
2, 436080, Note_on_c, 0, 87, 0
2, 436080, Note_on_c, 0, 99, 0
2, 436080, Note_on_c, 0, 97, 0
2, 436080, Note_on_c, 0, 75, 0
2, 436080, Note_on_c, 0, 62, 0
2, 436320, Note_on_c, 0, 88, 100
2, 436320, Note_on_c, 0, 100, 100
2, 436320, Note_on_c, 0, 97, 100
2, 436560, Note_on_c, 0, 88, 0
2, 436560, Note_on_c, 0, 100, 0
2, 436560, Note_on_c, 0, 97, 0
2, 436800, Note_on_c, 0, 87, 100
2, 436800, Note_on_c, 0, 99, 100
2, 436800, Note_on_c, 0, 97, 100
2, 436800, Note_on_c, 0, 74, 100
2, 437040, Note_on_c, 0, 87, 0
2, 437040, Note_on_c, 0, 99, 0
2, 437040, Note_on_c, 0, 97, 0
2, 437040, Note_on_c, 0, 74, 0
2, 437280, Note_on_c, 0, 86, 100
2, 437280, Note_on_c, 0, 97, 100
2, 437280, Note_on_c, 0, 73, 100
2, 437280, Note_on_c, 0, 61, 100
2, 437520, Note_on_c, 0, 61, 0
2, 438240, Note_on_c, 0, 86, 0
2, 438240, Note_on_c, 0, 97, 0
2, 438240, Note_on_c, 0, 73, 0
2, 438240, Note_on_c, 0, 99, 100
2, 438240, Note_on_c, 0, 97, 100
2, 438240, Note_on_c, 0, 87, 100
2, 438240, Note_on_c, 0, 74, 100
2, 438480, Note_on_c, 0, 99, 0
2, 438480, Note_on_c, 0, 97, 0
2, 438480, Note_on_c, 0, 87, 0
2, 438480, Note_on_c, 0, 74, 0
2, 438720, Note_on_c, 0, 99, 100
2, 438720, Note_on_c, 0, 97, 100
2, 438720, Note_on_c, 0, 87, 100
2, 438960, Note_on_c, 0, 99, 0
2, 438960, Note_on_c, 0, 97, 0
2, 438960, Note_on_c, 0, 87, 0
2, 439200, Note_on_c, 0, 97, 100
2, 439200, Note_on_c, 0, 86, 100
2, 439200, Note_on_c, 0, 73, 100
2, 439200, Note_on_c, 0, 61, 100
2, 439440, Note_on_c, 0, 97, 0
2, 439440, Note_on_c, 0, 86, 0
2, 439440, Note_on_c, 0, 73, 0
2, 439440, Note_on_c, 0, 61, 0
2, 439680, Note_on_c, 0, 99, 100
2, 439680, Note_on_c, 0, 97, 100
2, 439680, Note_on_c, 0, 87, 100
2, 439680, Note_on_c, 0, 74, 100
2, 439920, Note_on_c, 0, 99, 0
2, 439920, Note_on_c, 0, 97, 0
2, 439920, Note_on_c, 0, 87, 0
2, 439920, Note_on_c, 0, 74, 0
2, 440160, Note_on_c, 0, 99, 100
2, 440160, Note_on_c, 0, 97, 100
2, 440160, Note_on_c, 0, 87, 100
2, 440400, Note_on_c, 0, 99, 0
2, 440400, Note_on_c, 0, 97, 0
2, 440400, Note_on_c, 0, 87, 0
2, 440640, Note_on_c, 0, 97, 100
2, 440640, Note_on_c, 0, 86, 100
2, 440640, Note_on_c, 0, 73, 100
2, 440640, Note_on_c, 0, 61, 100
2, 440880, Note_on_c, 0, 97, 0
2, 440880, Note_on_c, 0, 86, 0
2, 440880, Note_on_c, 0, 73, 0
2, 440880, Note_on_c, 0, 61, 0
2, 441120, Note_on_c, 0, 99, 100
2, 441120, Note_on_c, 0, 97, 100
2, 441120, Note_on_c, 0, 87, 100
2, 441120, Note_on_c, 0, 74, 100
2, 441360, Note_on_c, 0, 99, 0
2, 441360, Note_on_c, 0, 97, 0
2, 441360, Note_on_c, 0, 87, 0
2, 441360, Note_on_c, 0, 74, 0
2, 441600, Note_on_c, 0, 99, 100
2, 441600, Note_on_c, 0, 97, 100
2, 441600, Note_on_c, 0, 87, 100
2, 441840, Note_on_c, 0, 99, 0
2, 441840, Note_on_c, 0, 97, 0
2, 441840, Note_on_c, 0, 87, 0
2, 442080, Note_on_c, 0, 97, 100
2, 442080, Note_on_c, 0, 86, 100
2, 442080, Note_on_c, 0, 73, 100
2, 442080, Note_on_c, 0, 61, 100
2, 442320, Note_on_c, 0, 97, 0
2, 442320, Note_on_c, 0, 86, 0
2, 442320, Note_on_c, 0, 73, 0
2, 442320, Note_on_c, 0, 61, 0
2, 442560, Note_on_c, 0, 99, 100
2, 442560, Note_on_c, 0, 97, 100
2, 442560, Note_on_c, 0, 87, 100
2, 442560, Note_on_c, 0, 74, 100
2, 442800, Note_on_c, 0, 99, 0
2, 442800, Note_on_c, 0, 97, 0
2, 442800, Note_on_c, 0, 87, 0
2, 442800, Note_on_c, 0, 74, 0
2, 443040, Note_on_c, 0, 99, 100
2, 443040, Note_on_c, 0, 97, 100
2, 443040, Note_on_c, 0, 87, 100
2, 443280, Note_on_c, 0, 99, 0
2, 443280, Note_on_c, 0, 97, 0
2, 443280, Note_on_c, 0, 87, 0
2, 443490, Text_t, "drum_double"
2, 443520, Note_on_c, 0, 97, 100
2, 443520, Note_on_c, 0, 86, 100
2, 443520, Note_on_c, 0, 73, 100
2, 443520, Note_on_c, 0, 61, 100
2, 443760, Note_on_c, 0, 97, 0
2, 443760, Note_on_c, 0, 86, 0
2, 443760, Note_on_c, 0, 73, 0
2, 443760, Note_on_c, 0, 61, 0
2, 444000, Note_on_c, 0, 99, 100
2, 444000, Note_on_c, 0, 97, 100
2, 444000, Note_on_c, 0, 87, 100
2, 444000, Note_on_c, 0, 74, 100
2, 444240, Note_on_c, 0, 99, 0
2, 444240, Note_on_c, 0, 97, 0
2, 444240, Note_on_c, 0, 87, 0
2, 444240, Note_on_c, 0, 74, 0
2, 444450, Text_t, "bass_on"
2, 444480, Note_on_c, 0, 99, 100
2, 444480, Note_on_c, 0, 97, 100
2, 444480, Note_on_c, 0, 87, 100
2, 444720, Note_on_c, 0, 99, 0
2, 444720, Note_on_c, 0, 97, 0
2, 444720, Note_on_c, 0, 87, 0
2, 444960, Note_on_c, 0, 97, 100
2, 444960, Note_on_c, 0, 86, 100
2, 444960, Note_on_c, 0, 73, 100
2, 444960, Note_on_c, 0, 61, 100
2, 445200, Note_on_c, 0, 97, 0
2, 445200, Note_on_c, 0, 86, 0
2, 445200, Note_on_c, 0, 73, 0
2, 445200, Note_on_c, 0, 61, 0
2, 445410, Text_t, "[lighting ()]"
2, 445440, Note_on_c, 0, 99, 100
2, 445440, Note_on_c, 0, 97, 100
2, 445440, Note_on_c, 0, 87, 100
2, 445440, Note_on_c, 0, 75, 100
2, 445680, Note_on_c, 0, 99, 0
2, 445680, Note_on_c, 0, 97, 0
2, 445680, Note_on_c, 0, 87, 0
2, 445680, Note_on_c, 0, 75, 0
2, 445920, Note_on_c, 0, 97, 100
2, 445920, Note_on_c, 0, 100, 100
2, 445920, Note_on_c, 0, 88, 100
2, 446160, Note_on_c, 0, 97, 0
2, 446160, Note_on_c, 0, 100, 0
2, 446160, Note_on_c, 0, 88, 0
2, 446400, Note_on_c, 0, 61, 100
2, 446400, Note_on_c, 0, 99, 100
2, 446400, Note_on_c, 0, 87, 100
2, 446400, Note_on_c, 0, 74, 100
2, 446640, Note_on_c, 0, 61, 0
2, 446640, Note_on_c, 0, 99, 0
2, 446640, Note_on_c, 0, 87, 0
2, 446640, Note_on_c, 0, 74, 0
2, 446850, Note_on_c, 0, 103, 100
2, 446850, Note_on_c, 0, 106, 100
2, 446850, Note_on_c, 0, 91, 100
2, 446850, Note_on_c, 0, 94, 100
2, 446850, Note_on_c, 0, 67, 100
2, 446850, Note_on_c, 0, 70, 100
2, 446850, Note_on_c, 0, 79, 100
2, 446850, Note_on_c, 0, 82, 100
2, 446880, Note_on_c, 0, 85, 100
2, 446880, Note_on_c, 0, 96, 100
2, 446880, Note_on_c, 0, 72, 100
2, 446880, Note_on_c, 0, 60, 100
2, 446880, Note_on_c, 0, 98, 100
2, 447120, Note_on_c, 0, 60, 0
2, 447330, Text_t, "drum_double"
2, 447840, Note_on_c, 0, 85, 0
2, 447840, Note_on_c, 0, 96, 0
2, 447840, Note_on_c, 0, 72, 0
2, 447840, Note_on_c, 0, 98, 0
2, 447840, Note_on_c, 0, 86, 100
2, 447840, Note_on_c, 0, 97, 100
2, 447840, Note_on_c, 0, 73, 100
2, 448080, Note_on_c, 0, 86, 0
2, 448080, Note_on_c, 0, 97, 0
2, 448080, Note_on_c, 0, 73, 0
2, 448290, Text_t, "[lighting (sweep)]"
2, 448290, Text_t, "solo_off"
2, 448320, Note_on_c, 0, 86, 100
2, 448320, Note_on_c, 0, 97, 100
2, 448320, Note_on_c, 0, 73, 100
2, 448320, Note_on_c, 0, 61, 100
2, 448560, Note_on_c, 0, 86, 0
2, 448560, Note_on_c, 0, 97, 0
2, 448560, Note_on_c, 0, 73, 0
2, 448560, Note_on_c, 0, 61, 0
2, 448800, Note_on_c, 0, 85, 100
2, 448800, Note_on_c, 0, 96, 100
2, 448800, Note_on_c, 0, 72, 100
2, 449040, Note_on_c, 0, 85, 0
2, 449040, Note_on_c, 0, 96, 0
2, 449040, Note_on_c, 0, 72, 0
2, 449250, Text_t, "[lighting ()]"
2, 449280, Note_on_c, 0, 86, 100
2, 449280, Note_on_c, 0, 97, 100
2, 449280, Note_on_c, 0, 73, 100
2, 449280, Note_on_c, 0, 62, 100
2, 449520, Note_on_c, 0, 86, 0
2, 449520, Note_on_c, 0, 97, 0
2, 449520, Note_on_c, 0, 73, 0
2, 449520, Note_on_c, 0, 62, 0
2, 449760, Note_on_c, 0, 87, 100
2, 449760, Note_on_c, 0, 98, 100
2, 449760, Note_on_c, 0, 74, 100
2, 449970, Note_on_c, 0, 103, 0
2, 449970, Note_on_c, 0, 91, 0
2, 449970, Note_on_c, 0, 67, 0
2, 449970, Note_on_c, 0, 79, 0
2, 450000, Note_on_c, 0, 87, 0
2, 450000, Note_on_c, 0, 98, 0
2, 450000, Note_on_c, 0, 74, 0
2, 450690, Note_on_c, 0, 105, 0
2, 450690, Note_on_c, 0, 93, 0
2, 450690, Note_on_c, 0, 69, 0
2, 450690, Note_on_c, 0, 81, 0
2, 450720, Note_on_c, 0, 61, 100
2, 450720, Note_on_c, 0, 73, 100
2, 450720, Note_on_c, 0, 86, 100
2, 450720, Note_on_c, 0, 97, 100
2, 450960, Note_on_c, 0, 61, 0
2, 451680, Note_on_c, 0, 73, 0
2, 451680, Note_on_c, 0, 86, 0
2, 451680, Note_on_c, 0, 97, 0
2, 451680, Note_on_c, 0, 99, 100
2, 451680, Note_on_c, 0, 74, 100
2, 451680, Note_on_c, 0, 87, 100
2, 451680, Note_on_c, 0, 97, 100
2, 451920, Note_on_c, 0, 99, 0
2, 451920, Note_on_c, 0, 74, 0
2, 451920, Note_on_c, 0, 87, 0
2, 451920, Note_on_c, 0, 97, 0
2, 452160, Note_on_c, 0, 87, 100
2, 452160, Note_on_c, 0, 99, 100
2, 452160, Note_on_c, 0, 97, 100
2, 452400, Note_on_c, 0, 87, 0
2, 452400, Note_on_c, 0, 99, 0
2, 452400, Note_on_c, 0, 97, 0
2, 452640, Note_on_c, 0, 86, 100
2, 452640, Note_on_c, 0, 73, 100
2, 452640, Note_on_c, 0, 61, 100
2, 452640, Note_on_c, 0, 97, 100
2, 452880, Note_on_c, 0, 86, 0
2, 452880, Note_on_c, 0, 73, 0
2, 452880, Note_on_c, 0, 61, 0
2, 452880, Note_on_c, 0, 97, 0
2, 453120, Note_on_c, 0, 87, 100
2, 453120, Note_on_c, 0, 99, 100
2, 453120, Note_on_c, 0, 74, 100
2, 453120, Note_on_c, 0, 97, 100
2, 453360, Note_on_c, 0, 87, 0
2, 453360, Note_on_c, 0, 99, 0
2, 453360, Note_on_c, 0, 74, 0
2, 453360, Note_on_c, 0, 97, 0
2, 453600, Note_on_c, 0, 87, 100
2, 453600, Note_on_c, 0, 99, 100
2, 453600, Note_on_c, 0, 97, 100
2, 453840, Note_on_c, 0, 87, 0
2, 453840, Note_on_c, 0, 99, 0
2, 453840, Note_on_c, 0, 97, 0
2, 454080, Note_on_c, 0, 86, 100
2, 454080, Note_on_c, 0, 73, 100
2, 454080, Note_on_c, 0, 61, 100
2, 454080, Note_on_c, 0, 97, 100
2, 454320, Note_on_c, 0, 86, 0
2, 454320, Note_on_c, 0, 73, 0
2, 454320, Note_on_c, 0, 61, 0
2, 454320, Note_on_c, 0, 97, 0
2, 454560, Note_on_c, 0, 87, 100
2, 454560, Note_on_c, 0, 99, 100
2, 454560, Note_on_c, 0, 74, 100
2, 454560, Note_on_c, 0, 97, 100
2, 454800, Note_on_c, 0, 87, 0
2, 454800, Note_on_c, 0, 99, 0
2, 454800, Note_on_c, 0, 74, 0
2, 454800, Note_on_c, 0, 97, 0
2, 455040, Note_on_c, 0, 87, 100
2, 455040, Note_on_c, 0, 99, 100
2, 455040, Note_on_c, 0, 97, 100
2, 455280, Note_on_c, 0, 87, 0
2, 455280, Note_on_c, 0, 99, 0
2, 455280, Note_on_c, 0, 97, 0
2, 455520, Note_on_c, 0, 86, 100
2, 455520, Note_on_c, 0, 73, 100
2, 455520, Note_on_c, 0, 61, 100
2, 455520, Note_on_c, 0, 97, 100
2, 455760, Note_on_c, 0, 86, 0
2, 455760, Note_on_c, 0, 73, 0
2, 455760, Note_on_c, 0, 61, 0
2, 455760, Note_on_c, 0, 97, 0
2, 456000, Note_on_c, 0, 87, 100
2, 456000, Note_on_c, 0, 99, 100
2, 456000, Note_on_c, 0, 74, 100
2, 456000, Note_on_c, 0, 97, 100
2, 456240, Note_on_c, 0, 87, 0
2, 456240, Note_on_c, 0, 99, 0
2, 456240, Note_on_c, 0, 74, 0
2, 456240, Note_on_c, 0, 97, 0
2, 456480, Note_on_c, 0, 87, 100
2, 456480, Note_on_c, 0, 99, 100
2, 456480, Note_on_c, 0, 97, 100
2, 456720, Note_on_c, 0, 87, 0
2, 456720, Note_on_c, 0, 99, 0
2, 456720, Note_on_c, 0, 97, 0
2, 456960, Note_on_c, 0, 86, 100
2, 456960, Note_on_c, 0, 73, 100
2, 456960, Note_on_c, 0, 61, 100
2, 456960, Note_on_c, 0, 97, 100
2, 457200, Note_on_c, 0, 86, 0
2, 457200, Note_on_c, 0, 73, 0
2, 457200, Note_on_c, 0, 61, 0
2, 457200, Note_on_c, 0, 97, 0
2, 457440, Note_on_c, 0, 87, 100
2, 457440, Note_on_c, 0, 99, 100
2, 457440, Note_on_c, 0, 74, 100
2, 457440, Note_on_c, 0, 97, 100
2, 457680, Note_on_c, 0, 87, 0
2, 457680, Note_on_c, 0, 99, 0
2, 457680, Note_on_c, 0, 74, 0
2, 457680, Note_on_c, 0, 97, 0
2, 457920, Note_on_c, 0, 87, 100
2, 457920, Note_on_c, 0, 99, 100
2, 457920, Note_on_c, 0, 97, 100
2, 458160, Note_on_c, 0, 87, 0
2, 458160, Note_on_c, 0, 99, 0
2, 458160, Note_on_c, 0, 97, 0
2, 458400, Note_on_c, 0, 86, 100
2, 458400, Note_on_c, 0, 73, 100
2, 458400, Note_on_c, 0, 61, 100
2, 458400, Note_on_c, 0, 97, 100
2, 458640, Note_on_c, 0, 86, 0
2, 458640, Note_on_c, 0, 73, 0
2, 458640, Note_on_c, 0, 61, 0
2, 458640, Note_on_c, 0, 97, 0
2, 458880, Note_on_c, 0, 87, 100
2, 458880, Note_on_c, 0, 99, 100
2, 458880, Note_on_c, 0, 74, 100
2, 458880, Note_on_c, 0, 97, 100
2, 459120, Note_on_c, 0, 87, 0
2, 459120, Note_on_c, 0, 99, 0
2, 459120, Note_on_c, 0, 74, 0
2, 459120, Note_on_c, 0, 97, 0
2, 459360, Note_on_c, 0, 87, 100
2, 459360, Note_on_c, 0, 99, 100
2, 459360, Note_on_c, 0, 97, 100
2, 459600, Note_on_c, 0, 87, 0
2, 459600, Note_on_c, 0, 99, 0
2, 459600, Note_on_c, 0, 97, 0
2, 459840, Note_on_c, 0, 86, 100
2, 459840, Note_on_c, 0, 73, 100
2, 459840, Note_on_c, 0, 61, 100
2, 459840, Note_on_c, 0, 97, 100
2, 460080, Note_on_c, 0, 86, 0
2, 460080, Note_on_c, 0, 73, 0
2, 460080, Note_on_c, 0, 61, 0
2, 460080, Note_on_c, 0, 97, 0
2, 460320, Note_on_c, 0, 87, 100
2, 460320, Note_on_c, 0, 99, 100
2, 460320, Note_on_c, 0, 74, 100
2, 460320, Note_on_c, 0, 97, 100
2, 460560, Note_on_c, 0, 87, 0
2, 460560, Note_on_c, 0, 99, 0
2, 460560, Note_on_c, 0, 74, 0
2, 460560, Note_on_c, 0, 97, 0
2, 460800, Note_on_c, 0, 87, 100
2, 460800, Note_on_c, 0, 99, 100
2, 460800, Note_on_c, 0, 97, 100
2, 461040, Note_on_c, 0, 87, 0
2, 461040, Note_on_c, 0, 99, 0
2, 461040, Note_on_c, 0, 97, 0
2, 461280, Note_on_c, 0, 86, 100
2, 461280, Note_on_c, 0, 73, 100
2, 461280, Note_on_c, 0, 61, 100
2, 461280, Note_on_c, 0, 97, 100
2, 461520, Note_on_c, 0, 86, 0
2, 461520, Note_on_c, 0, 73, 0
2, 461520, Note_on_c, 0, 61, 0
2, 461520, Note_on_c, 0, 97, 0
2, 461760, Note_on_c, 0, 87, 100
2, 461760, Note_on_c, 0, 99, 100
2, 461760, Note_on_c, 0, 97, 100
2, 461760, Note_on_c, 0, 75, 100
2, 461760, Note_on_c, 0, 62, 100
2, 462000, Note_on_c, 0, 87, 0
2, 462000, Note_on_c, 0, 99, 0
2, 462000, Note_on_c, 0, 97, 0
2, 462000, Note_on_c, 0, 75, 0
2, 462000, Note_on_c, 0, 62, 0
2, 462240, Note_on_c, 0, 88, 100
2, 462240, Note_on_c, 0, 100, 100
2, 462240, Note_on_c, 0, 97, 100
2, 462480, Note_on_c, 0, 88, 0
2, 462480, Note_on_c, 0, 100, 0
2, 462480, Note_on_c, 0, 97, 0
2, 462720, Note_on_c, 0, 87, 100
2, 462720, Note_on_c, 0, 99, 100
2, 462720, Note_on_c, 0, 97, 100
2, 462720, Note_on_c, 0, 74, 100
2, 462960, Note_on_c, 0, 87, 0
2, 462960, Note_on_c, 0, 99, 0
2, 462960, Note_on_c, 0, 97, 0
2, 462960, Note_on_c, 0, 74, 0
2, 463200, Note_on_c, 0, 86, 100
2, 463200, Note_on_c, 0, 97, 100
2, 463200, Note_on_c, 0, 61, 100
2, 463200, Note_on_c, 0, 73, 100
2, 463440, Note_on_c, 0, 61, 0
2, 464160, Note_on_c, 0, 86, 0
2, 464160, Note_on_c, 0, 97, 0
2, 464160, Note_on_c, 0, 73, 0
2, 464160, Note_on_c, 0, 99, 100
2, 464160, Note_on_c, 0, 97, 100
2, 464160, Note_on_c, 0, 87, 100
2, 464160, Note_on_c, 0, 74, 100
2, 464400, Note_on_c, 0, 99, 0
2, 464400, Note_on_c, 0, 97, 0
2, 464400, Note_on_c, 0, 87, 0
2, 464400, Note_on_c, 0, 74, 0
2, 464640, Note_on_c, 0, 99, 100
2, 464640, Note_on_c, 0, 97, 100
2, 464640, Note_on_c, 0, 87, 100
2, 464880, Note_on_c, 0, 99, 0
2, 464880, Note_on_c, 0, 97, 0
2, 464880, Note_on_c, 0, 87, 0
2, 465120, Note_on_c, 0, 97, 100
2, 465120, Note_on_c, 0, 86, 100
2, 465120, Note_on_c, 0, 73, 100
2, 465120, Note_on_c, 0, 61, 100
2, 465360, Note_on_c, 0, 97, 0
2, 465360, Note_on_c, 0, 86, 0
2, 465360, Note_on_c, 0, 73, 0
2, 465360, Note_on_c, 0, 61, 0
2, 465600, Note_on_c, 0, 99, 100
2, 465600, Note_on_c, 0, 97, 100
2, 465600, Note_on_c, 0, 87, 100
2, 465600, Note_on_c, 0, 74, 100
2, 465840, Note_on_c, 0, 99, 0
2, 465840, Note_on_c, 0, 97, 0
2, 465840, Note_on_c, 0, 87, 0
2, 465840, Note_on_c, 0, 74, 0
2, 466080, Note_on_c, 0, 99, 100
2, 466080, Note_on_c, 0, 97, 100
2, 466080, Note_on_c, 0, 87, 100
2, 466320, Note_on_c, 0, 99, 0
2, 466320, Note_on_c, 0, 97, 0
2, 466320, Note_on_c, 0, 87, 0
2, 466560, Note_on_c, 0, 97, 100
2, 466560, Note_on_c, 0, 86, 100
2, 466560, Note_on_c, 0, 73, 100
2, 466560, Note_on_c, 0, 61, 100
2, 466800, Note_on_c, 0, 97, 0
2, 466800, Note_on_c, 0, 86, 0
2, 466800, Note_on_c, 0, 73, 0
2, 466800, Note_on_c, 0, 61, 0
2, 467040, Note_on_c, 0, 99, 100
2, 467040, Note_on_c, 0, 97, 100
2, 467040, Note_on_c, 0, 87, 100
2, 467040, Note_on_c, 0, 74, 100
2, 467280, Note_on_c, 0, 99, 0
2, 467280, Note_on_c, 0, 97, 0
2, 467280, Note_on_c, 0, 87, 0
2, 467280, Note_on_c, 0, 74, 0
2, 467520, Note_on_c, 0, 99, 100
2, 467520, Note_on_c, 0, 97, 100
2, 467520, Note_on_c, 0, 87, 100
2, 467760, Note_on_c, 0, 99, 0
2, 467760, Note_on_c, 0, 97, 0
2, 467760, Note_on_c, 0, 87, 0
2, 468000, Note_on_c, 0, 97, 100
2, 468000, Note_on_c, 0, 86, 100
2, 468000, Note_on_c, 0, 73, 100
2, 468000, Note_on_c, 0, 61, 100
2, 468240, Note_on_c, 0, 97, 0
2, 468240, Note_on_c, 0, 86, 0
2, 468240, Note_on_c, 0, 73, 0
2, 468240, Note_on_c, 0, 61, 0
2, 468480, Note_on_c, 0, 99, 100
2, 468480, Note_on_c, 0, 97, 100
2, 468480, Note_on_c, 0, 87, 100
2, 468480, Note_on_c, 0, 74, 100
2, 468720, Note_on_c, 0, 99, 0
2, 468720, Note_on_c, 0, 97, 0
2, 468720, Note_on_c, 0, 87, 0
2, 468720, Note_on_c, 0, 74, 0
2, 468960, Note_on_c, 0, 99, 100
2, 468960, Note_on_c, 0, 97, 100
2, 468960, Note_on_c, 0, 87, 100
2, 469200, Note_on_c, 0, 99, 0
2, 469200, Note_on_c, 0, 97, 0
2, 469200, Note_on_c, 0, 87, 0
2, 469410, Text_t, "drum_double"
2, 469440, Note_on_c, 0, 97, 100
2, 469440, Note_on_c, 0, 86, 100
2, 469440, Note_on_c, 0, 73, 100
2, 469440, Note_on_c, 0, 61, 100
2, 469680, Note_on_c, 0, 97, 0
2, 469680, Note_on_c, 0, 86, 0
2, 469680, Note_on_c, 0, 73, 0
2, 469680, Note_on_c, 0, 61, 0
2, 469920, Note_on_c, 0, 99, 100
2, 469920, Note_on_c, 0, 97, 100
2, 469920, Note_on_c, 0, 87, 100
2, 469920, Note_on_c, 0, 74, 100
2, 470160, Note_on_c, 0, 99, 0
2, 470160, Note_on_c, 0, 97, 0
2, 470160, Note_on_c, 0, 87, 0
2, 470160, Note_on_c, 0, 74, 0
2, 470400, Note_on_c, 0, 99, 100
2, 470400, Note_on_c, 0, 97, 100
2, 470400, Note_on_c, 0, 87, 100
2, 470640, Note_on_c, 0, 99, 0
2, 470640, Note_on_c, 0, 97, 0
2, 470640, Note_on_c, 0, 87, 0
2, 470880, Note_on_c, 0, 97, 100
2, 470880, Note_on_c, 0, 86, 100
2, 470880, Note_on_c, 0, 73, 100
2, 470880, Note_on_c, 0, 61, 100
2, 471120, Note_on_c, 0, 97, 0
2, 471120, Note_on_c, 0, 86, 0
2, 471120, Note_on_c, 0, 73, 0
2, 471120, Note_on_c, 0, 61, 0
2, 471330, Text_t, "[lighting ()]"
2, 471360, Note_on_c, 0, 99, 100
2, 471360, Note_on_c, 0, 97, 100
2, 471360, Note_on_c, 0, 87, 100
2, 471360, Note_on_c, 0, 75, 100
2, 471600, Note_on_c, 0, 99, 0
2, 471600, Note_on_c, 0, 97, 0
2, 471600, Note_on_c, 0, 87, 0
2, 471600, Note_on_c, 0, 75, 0
2, 471840, Note_on_c, 0, 97, 100
2, 471840, Note_on_c, 0, 100, 100
2, 471840, Note_on_c, 0, 88, 100
2, 472080, Note_on_c, 0, 97, 0
2, 472080, Note_on_c, 0, 100, 0
2, 472080, Note_on_c, 0, 88, 0
2, 472320, Note_on_c, 0, 61, 100
2, 472320, Note_on_c, 0, 99, 100
2, 472320, Note_on_c, 0, 87, 100
2, 472320, Note_on_c, 0, 74, 100
2, 472560, Note_on_c, 0, 61, 0
2, 472560, Note_on_c, 0, 99, 0
2, 472560, Note_on_c, 0, 87, 0
2, 472560, Note_on_c, 0, 74, 0
2, 472770, Note_on_c, 0, 106, 0
2, 472770, Note_on_c, 0, 94, 0
2, 472770, Note_on_c, 0, 70, 0
2, 472770, Note_on_c, 0, 82, 0
2, 472770, Note_on_c, 0, 105, 100
2, 472770, Note_on_c, 0, 93, 100
2, 472770, Note_on_c, 0, 69, 100
2, 472770, Note_on_c, 0, 81, 100
2, 472800, Note_on_c, 0, 60, 100
2, 472800, Note_on_c, 0, 72, 100
2, 472800, Note_on_c, 0, 96, 100
2, 472800, Note_on_c, 0, 85, 100
2, 472800, Note_on_c, 0, 98, 100
2, 473040, Note_on_c, 0, 60, 0
2, 473250, Text_t, "drum_double"
2, 473760, Note_on_c, 0, 72, 0
2, 473760, Note_on_c, 0, 96, 0
2, 473760, Note_on_c, 0, 85, 0
2, 473760, Note_on_c, 0, 98, 0
2, 473760, Note_on_c, 0, 86, 100
2, 473760, Note_on_c, 0, 97, 100
2, 473760, Note_on_c, 0, 73, 100
2, 474000, Note_on_c, 0, 86, 0
2, 474000, Note_on_c, 0, 97, 0
2, 474000, Note_on_c, 0, 73, 0
2, 474240, Note_on_c, 0, 86, 100
2, 474240, Note_on_c, 0, 97, 100
2, 474240, Note_on_c, 0, 73, 100
2, 474240, Note_on_c, 0, 61, 100
2, 474480, Note_on_c, 0, 86, 0
2, 474480, Note_on_c, 0, 97, 0
2, 474480, Note_on_c, 0, 73, 0
2, 474480, Note_on_c, 0, 61, 0
2, 474720, Note_on_c, 0, 85, 100
2, 474720, Note_on_c, 0, 96, 100
2, 474720, Note_on_c, 0, 72, 100
2, 474960, Note_on_c, 0, 85, 0
2, 474960, Note_on_c, 0, 96, 0
2, 474960, Note_on_c, 0, 72, 0
2, 475170, Text_t, "[lighting ()]"
2, 475200, Note_on_c, 0, 86, 100
2, 475200, Note_on_c, 0, 97, 100
2, 475200, Note_on_c, 0, 73, 100
2, 475200, Note_on_c, 0, 62, 100
2, 475440, Note_on_c, 0, 86, 0
2, 475440, Note_on_c, 0, 97, 0
2, 475440, Note_on_c, 0, 73, 0
2, 475440, Note_on_c, 0, 62, 0
2, 475680, Note_on_c, 0, 87, 100
2, 475680, Note_on_c, 0, 98, 100
2, 475680, Note_on_c, 0, 74, 100
2, 475920, Note_on_c, 0, 87, 0
2, 475920, Note_on_c, 0, 98, 0
2, 475920, Note_on_c, 0, 74, 0
2, 476610, Note_on_c, 0, 105, 0
2, 476610, Note_on_c, 0, 93, 0
2, 476610, Note_on_c, 0, 69, 0
2, 476610, Note_on_c, 0, 81, 0
2, 476610, Note_on_c, 0, 106, 100
2, 476610, Note_on_c, 0, 94, 100
2, 476610, Note_on_c, 0, 70, 100
2, 476610, Note_on_c, 0, 82, 100
2, 476640, Note_on_c, 0, 96, 100
2, 476640, Note_on_c, 0, 85, 100
2, 476640, Note_on_c, 0, 72, 100
2, 476640, Note_on_c, 0, 60, 100
2, 476640, Note_on_c, 0, 98, 100
2, 476880, Note_on_c, 0, 60, 0
2, 477600, Note_on_c, 0, 96, 0
2, 477600, Note_on_c, 0, 85, 0
2, 477600, Note_on_c, 0, 72, 0
2, 477600, Note_on_c, 0, 98, 0
2, 477600, Note_on_c, 0, 97, 100
2, 477600, Note_on_c, 0, 86, 100
2, 477600, Note_on_c, 0, 73, 100
2, 477840, Note_on_c, 0, 97, 0
2, 477840, Note_on_c, 0, 86, 0
2, 477840, Note_on_c, 0, 73, 0
2, 478080, Note_on_c, 0, 97, 100
2, 478080, Note_on_c, 0, 86, 100
2, 478080, Note_on_c, 0, 73, 100
2, 478080, Note_on_c, 0, 61, 100
2, 478320, Note_on_c, 0, 97, 0
2, 478320, Note_on_c, 0, 86, 0
2, 478320, Note_on_c, 0, 73, 0
2, 478320, Note_on_c, 0, 61, 0
2, 478560, Note_on_c, 0, 96, 100
2, 478560, Note_on_c, 0, 85, 100
2, 478560, Note_on_c, 0, 72, 100
2, 478800, Note_on_c, 0, 96, 0
2, 478800, Note_on_c, 0, 85, 0
2, 478800, Note_on_c, 0, 72, 0
2, 479040, Note_on_c, 0, 97, 100
2, 479040, Note_on_c, 0, 86, 100
2, 479040, Note_on_c, 0, 73, 100
2, 479040, Note_on_c, 0, 62, 100
2, 479280, Note_on_c, 0, 97, 0
2, 479280, Note_on_c, 0, 86, 0
2, 479280, Note_on_c, 0, 73, 0
2, 479280, Note_on_c, 0, 62, 0
2, 479520, Note_on_c, 0, 98, 100
2, 479520, Note_on_c, 0, 87, 100
2, 479520, Note_on_c, 0, 74, 100
2, 479760, Note_on_c, 0, 98, 0
2, 479760, Note_on_c, 0, 87, 0
2, 479760, Note_on_c, 0, 74, 0
2, 480450, Note_on_c, 0, 106, 0
2, 480450, Note_on_c, 0, 94, 0
2, 480450, Note_on_c, 0, 70, 0
2, 480450, Note_on_c, 0, 82, 0
2, 480450, Note_on_c, 0, 105, 100
2, 480450, Note_on_c, 0, 93, 100
2, 480450, Note_on_c, 0, 69, 100
2, 480450, Note_on_c, 0, 81, 100
2, 480480, Note_on_c, 0, 85, 100
2, 480480, Note_on_c, 0, 96, 100
2, 480480, Note_on_c, 0, 72, 100
2, 480480, Note_on_c, 0, 60, 100
2, 480480, Note_on_c, 0, 98, 100
2, 480720, Note_on_c, 0, 60, 0
2, 481440, Note_on_c, 0, 85, 0
2, 481440, Note_on_c, 0, 96, 0
2, 481440, Note_on_c, 0, 72, 0
2, 481440, Note_on_c, 0, 98, 0
2, 481440, Note_on_c, 0, 86, 100
2, 481440, Note_on_c, 0, 97, 100
2, 481440, Note_on_c, 0, 73, 100
2, 481680, Note_on_c, 0, 86, 0
2, 481680, Note_on_c, 0, 97, 0
2, 481680, Note_on_c, 0, 73, 0
2, 481920, Note_on_c, 0, 86, 100
2, 481920, Note_on_c, 0, 97, 100
2, 481920, Note_on_c, 0, 73, 100
2, 481920, Note_on_c, 0, 61, 100
2, 482160, Note_on_c, 0, 86, 0
2, 482160, Note_on_c, 0, 97, 0
2, 482160, Note_on_c, 0, 73, 0
2, 482160, Note_on_c, 0, 61, 0
2, 482400, Note_on_c, 0, 85, 100
2, 482400, Note_on_c, 0, 96, 100
2, 482400, Note_on_c, 0, 72, 100
2, 482640, Note_on_c, 0, 85, 0
2, 482640, Note_on_c, 0, 96, 0
2, 482640, Note_on_c, 0, 72, 0
2, 482880, Note_on_c, 0, 86, 100
2, 482880, Note_on_c, 0, 97, 100
2, 482880, Note_on_c, 0, 73, 100
2, 482880, Note_on_c, 0, 62, 100
2, 483120, Note_on_c, 0, 86, 0
2, 483120, Note_on_c, 0, 97, 0
2, 483120, Note_on_c, 0, 73, 0
2, 483120, Note_on_c, 0, 62, 0
2, 483360, Note_on_c, 0, 87, 100
2, 483360, Note_on_c, 0, 98, 100
2, 483360, Note_on_c, 0, 74, 100
2, 483600, Note_on_c, 0, 87, 0
2, 483600, Note_on_c, 0, 98, 0
2, 483600, Note_on_c, 0, 74, 0
2, 484290, Note_on_c, 0, 105, 0
2, 484290, Note_on_c, 0, 93, 0
2, 484290, Note_on_c, 0, 69, 0
2, 484290, Note_on_c, 0, 81, 0
2, 484290, Note_on_c, 0, 106, 100
2, 484290, Note_on_c, 0, 94, 100
2, 484290, Note_on_c, 0, 70, 100
2, 484290, Note_on_c, 0, 82, 100
2, 484320, Note_on_c, 0, 96, 100
2, 484320, Note_on_c, 0, 85, 100
2, 484320, Note_on_c, 0, 72, 100
2, 484320, Note_on_c, 0, 60, 100
2, 484320, Note_on_c, 0, 98, 100
2, 484560, Note_on_c, 0, 60, 0
2, 485280, Note_on_c, 0, 96, 0
2, 485280, Note_on_c, 0, 85, 0
2, 485280, Note_on_c, 0, 72, 0
2, 485280, Note_on_c, 0, 98, 0
2, 485280, Note_on_c, 0, 97, 100
2, 485280, Note_on_c, 0, 86, 100
2, 485280, Note_on_c, 0, 73, 100
2, 485520, Note_on_c, 0, 97, 0
2, 485520, Note_on_c, 0, 86, 0
2, 485520, Note_on_c, 0, 73, 0
2, 485760, Note_on_c, 0, 97, 100
2, 485760, Note_on_c, 0, 86, 100
2, 485760, Note_on_c, 0, 73, 100
2, 485760, Note_on_c, 0, 61, 100
2, 486000, Note_on_c, 0, 97, 0
2, 486000, Note_on_c, 0, 86, 0
2, 486000, Note_on_c, 0, 73, 0
2, 486000, Note_on_c, 0, 61, 0
2, 486240, Note_on_c, 0, 96, 100
2, 486240, Note_on_c, 0, 85, 100
2, 486240, Note_on_c, 0, 72, 100
2, 486480, Note_on_c, 0, 96, 0
2, 486480, Note_on_c, 0, 85, 0
2, 486480, Note_on_c, 0, 72, 0
2, 486720, Note_on_c, 0, 97, 100
2, 486720, Note_on_c, 0, 86, 100
2, 486720, Note_on_c, 0, 73, 100
2, 486720, Note_on_c, 0, 62, 100
2, 486960, Note_on_c, 0, 97, 0
2, 486960, Note_on_c, 0, 86, 0
2, 486960, Note_on_c, 0, 73, 0
2, 486960, Note_on_c, 0, 62, 0
2, 487200, Note_on_c, 0, 98, 100
2, 487200, Note_on_c, 0, 87, 100
2, 487200, Note_on_c, 0, 74, 100
2, 487440, Note_on_c, 0, 98, 0
2, 487440, Note_on_c, 0, 87, 0
2, 487440, Note_on_c, 0, 74, 0
2, 488130, Note_on_c, 0, 106, 0
2, 488130, Note_on_c, 0, 94, 0
2, 488130, Note_on_c, 0, 70, 0
2, 488130, Note_on_c, 0, 82, 0
2, 488130, Note_on_c, 0, 105, 100
2, 488130, Note_on_c, 0, 93, 100
2, 488130, Note_on_c, 0, 69, 100
2, 488130, Note_on_c, 0, 81, 100
2, 488160, Note_on_c, 0, 85, 100
2, 488160, Note_on_c, 0, 96, 100
2, 488160, Note_on_c, 0, 72, 100
2, 488160, Note_on_c, 0, 60, 100
2, 488160, Note_on_c, 0, 98, 100
2, 488400, Note_on_c, 0, 60, 0
2, 489120, Note_on_c, 0, 85, 0
2, 489120, Note_on_c, 0, 96, 0
2, 489120, Note_on_c, 0, 72, 0
2, 489120, Note_on_c, 0, 98, 0
2, 489120, Note_on_c, 0, 86, 100
2, 489120, Note_on_c, 0, 97, 100
2, 489120, Note_on_c, 0, 73, 100
2, 489360, Note_on_c, 0, 86, 0
2, 489360, Note_on_c, 0, 97, 0
2, 489360, Note_on_c, 0, 73, 0
2, 489600, Note_on_c, 0, 86, 100
2, 489600, Note_on_c, 0, 97, 100
2, 489600, Note_on_c, 0, 73, 100
2, 489600, Note_on_c, 0, 61, 100
2, 489840, Note_on_c, 0, 86, 0
2, 489840, Note_on_c, 0, 97, 0
2, 489840, Note_on_c, 0, 73, 0
2, 489840, Note_on_c, 0, 61, 0
2, 490080, Note_on_c, 0, 85, 100
2, 490080, Note_on_c, 0, 96, 100
2, 490080, Note_on_c, 0, 72, 100
2, 490320, Note_on_c, 0, 85, 0
2, 490320, Note_on_c, 0, 96, 0
2, 490320, Note_on_c, 0, 72, 0
2, 490560, Note_on_c, 0, 86, 100
2, 490560, Note_on_c, 0, 97, 100
2, 490560, Note_on_c, 0, 73, 100
2, 490560, Note_on_c, 0, 62, 100
2, 490800, Note_on_c, 0, 86, 0
2, 490800, Note_on_c, 0, 97, 0
2, 490800, Note_on_c, 0, 73, 0
2, 490800, Note_on_c, 0, 62, 0
2, 491040, Note_on_c, 0, 87, 100
2, 491040, Note_on_c, 0, 98, 100
2, 491040, Note_on_c, 0, 74, 100
2, 491280, Note_on_c, 0, 87, 0
2, 491280, Note_on_c, 0, 98, 0
2, 491280, Note_on_c, 0, 74, 0
2, 491970, Note_on_c, 0, 105, 0
2, 491970, Note_on_c, 0, 93, 0
2, 491970, Note_on_c, 0, 69, 0
2, 491970, Note_on_c, 0, 81, 0
2, 491970, Note_on_c, 0, 106, 100
2, 491970, Note_on_c, 0, 94, 100
2, 491970, Note_on_c, 0, 70, 100
2, 491970, Note_on_c, 0, 82, 100
2, 492000, Note_on_c, 0, 96, 100
2, 492000, Note_on_c, 0, 85, 100
2, 492000, Note_on_c, 0, 72, 100
2, 492000, Note_on_c, 0, 60, 100
2, 492000, Note_on_c, 0, 98, 100
2, 492240, Note_on_c, 0, 60, 0
2, 492960, Note_on_c, 0, 96, 0
2, 492960, Note_on_c, 0, 85, 0
2, 492960, Note_on_c, 0, 72, 0
2, 492960, Note_on_c, 0, 98, 0
2, 492960, Note_on_c, 0, 97, 100
2, 492960, Note_on_c, 0, 86, 100
2, 492960, Note_on_c, 0, 73, 100
2, 493200, Note_on_c, 0, 97, 0
2, 493200, Note_on_c, 0, 86, 0
2, 493200, Note_on_c, 0, 73, 0
2, 493440, Note_on_c, 0, 97, 100
2, 493440, Note_on_c, 0, 86, 100
2, 493440, Note_on_c, 0, 73, 100
2, 493440, Note_on_c, 0, 61, 100
2, 493680, Note_on_c, 0, 97, 0
2, 493680, Note_on_c, 0, 86, 0
2, 493680, Note_on_c, 0, 73, 0
2, 493680, Note_on_c, 0, 61, 0
2, 493920, Note_on_c, 0, 96, 100
2, 493920, Note_on_c, 0, 85, 100
2, 493920, Note_on_c, 0, 72, 100
2, 494160, Note_on_c, 0, 96, 0
2, 494160, Note_on_c, 0, 85, 0
2, 494160, Note_on_c, 0, 72, 0
2, 494400, Note_on_c, 0, 97, 100
2, 494400, Note_on_c, 0, 86, 100
2, 494400, Note_on_c, 0, 73, 100
2, 494400, Note_on_c, 0, 62, 100
2, 494640, Note_on_c, 0, 97, 0
2, 494640, Note_on_c, 0, 86, 0
2, 494640, Note_on_c, 0, 73, 0
2, 494640, Note_on_c, 0, 62, 0
2, 494880, Note_on_c, 0, 98, 100
2, 494880, Note_on_c, 0, 87, 100
2, 494880, Note_on_c, 0, 74, 100
2, 495120, Note_on_c, 0, 98, 0
2, 495120, Note_on_c, 0, 87, 0
2, 495120, Note_on_c, 0, 74, 0
2, 495330, Text_t, "drum_double"
2, 495810, Note_on_c, 0, 106, 0
2, 495810, Note_on_c, 0, 94, 0
2, 495810, Note_on_c, 0, 70, 0
2, 495810, Note_on_c, 0, 82, 0
2, 495810, Note_on_c, 0, 105, 100
2, 495810, Note_on_c, 0, 93, 100
2, 495810, Note_on_c, 0, 69, 100
2, 495810, Note_on_c, 0, 81, 100
2, 495840, Note_on_c, 0, 96, 100
2, 495840, Note_on_c, 0, 85, 100
2, 495840, Note_on_c, 0, 72, 100
2, 495840, Note_on_c, 0, 60, 100
2, 495840, Note_on_c, 0, 98, 100
2, 496080, Note_on_c, 0, 60, 0
2, 496800, Note_on_c, 0, 96, 0
2, 496800, Note_on_c, 0, 85, 0
2, 496800, Note_on_c, 0, 72, 0
2, 496800, Note_on_c, 0, 98, 0
2, 496800, Note_on_c, 0, 97, 100
2, 496800, Note_on_c, 0, 86, 100
2, 496800, Note_on_c, 0, 73, 100
2, 497040, Note_on_c, 0, 97, 0
2, 497040, Note_on_c, 0, 86, 0
2, 497040, Note_on_c, 0, 73, 0
2, 497250, Text_t, "[lighting ()]"
2, 497280, Note_on_c, 0, 97, 100
2, 497280, Note_on_c, 0, 86, 100
2, 497280, Note_on_c, 0, 73, 100
2, 497280, Note_on_c, 0, 61, 100
2, 497520, Note_on_c, 0, 97, 0
2, 497520, Note_on_c, 0, 86, 0
2, 497520, Note_on_c, 0, 73, 0
2, 497520, Note_on_c, 0, 61, 0
2, 497760, Note_on_c, 0, 96, 100
2, 497760, Note_on_c, 0, 85, 100
2, 497760, Note_on_c, 0, 72, 100
2, 498000, Note_on_c, 0, 96, 0
2, 498000, Note_on_c, 0, 85, 0
2, 498000, Note_on_c, 0, 72, 0
2, 498240, Note_on_c, 0, 97, 100
2, 498240, Note_on_c, 0, 86, 100
2, 498240, Note_on_c, 0, 73, 100
2, 498240, Note_on_c, 0, 62, 100
2, 498480, Note_on_c, 0, 97, 0
2, 498480, Note_on_c, 0, 86, 0
2, 498480, Note_on_c, 0, 73, 0
2, 498480, Note_on_c, 0, 62, 0
2, 498720, Note_on_c, 0, 98, 100
2, 498720, Note_on_c, 0, 87, 100
2, 498720, Note_on_c, 0, 74, 100
2, 498960, Note_on_c, 0, 98, 0
2, 498960, Note_on_c, 0, 87, 0
2, 498960, Note_on_c, 0, 74, 0
2, 499170, Text_t, "drum_double"
2, 499650, Note_on_c, 0, 103, 100
2, 499650, Note_on_c, 0, 106, 100
2, 499650, Note_on_c, 0, 91, 100
2, 499650, Note_on_c, 0, 94, 100
2, 499650, Note_on_c, 0, 67, 100
2, 499650, Note_on_c, 0, 70, 100
2, 499650, Note_on_c, 0, 79, 100
2, 499650, Note_on_c, 0, 82, 100
2, 499680, Note_on_c, 0, 85, 100
2, 499680, Note_on_c, 0, 96, 100
2, 499680, Note_on_c, 0, 72, 100
2, 499680, Note_on_c, 0, 60, 100
2, 499680, Note_on_c, 0, 98, 100
2, 499920, Note_on_c, 0, 60, 0
2, 500130, Text_t, "[chorus]"
2, 500130, Text_t, "drum_normal"
2, 500640, Note_on_c, 0, 85, 0
2, 500640, Note_on_c, 0, 96, 0
2, 500640, Note_on_c, 0, 72, 0
2, 500640, Note_on_c, 0, 98, 0
2, 500640, Note_on_c, 0, 86, 100
2, 500640, Note_on_c, 0, 97, 100
2, 500640, Note_on_c, 0, 73, 100
2, 500880, Note_on_c, 0, 86, 0
2, 500880, Note_on_c, 0, 97, 0
2, 500880, Note_on_c, 0, 73, 0
2, 501120, Note_on_c, 0, 86, 100
2, 501120, Note_on_c, 0, 97, 100
2, 501120, Note_on_c, 0, 73, 100
2, 501120, Note_on_c, 0, 61, 100
2, 501360, Note_on_c, 0, 86, 0
2, 501360, Note_on_c, 0, 97, 0
2, 501360, Note_on_c, 0, 73, 0
2, 501360, Note_on_c, 0, 61, 0
2, 501600, Note_on_c, 0, 85, 100
2, 501600, Note_on_c, 0, 96, 100
2, 501600, Note_on_c, 0, 72, 100
2, 501840, Note_on_c, 0, 85, 0
2, 501840, Note_on_c, 0, 96, 0
2, 501840, Note_on_c, 0, 72, 0
2, 502080, Note_on_c, 0, 86, 100
2, 502080, Note_on_c, 0, 97, 100
2, 502080, Note_on_c, 0, 73, 100
2, 502080, Note_on_c, 0, 62, 100
2, 502320, Note_on_c, 0, 86, 0
2, 502320, Note_on_c, 0, 97, 0
2, 502320, Note_on_c, 0, 73, 0
2, 502320, Note_on_c, 0, 62, 0
2, 502560, Note_on_c, 0, 87, 100
2, 502560, Note_on_c, 0, 98, 100
2, 502560, Note_on_c, 0, 74, 100
2, 502800, Note_on_c, 0, 87, 0
2, 502800, Note_on_c, 0, 98, 0
2, 502800, Note_on_c, 0, 74, 0
2, 503040, Note_on_c, 0, 99, 100
2, 503040, Note_on_c, 0, 88, 100
2, 503040, Note_on_c, 0, 74, 100
2, 503040, Note_on_c, 0, 62, 100
2, 503250, Note_on_c, 0, 103, 0
2, 503250, Note_on_c, 0, 91, 0
2, 503250, Note_on_c, 0, 67, 0
2, 503250, Note_on_c, 0, 79, 0
2, 503280, Note_on_c, 0, 99, 0
2, 503280, Note_on_c, 0, 88, 0
2, 503280, Note_on_c, 0, 74, 0
2, 503280, Note_on_c, 0, 62, 0
2, 503490, Note_on_c, 0, 105, 0
2, 503490, Note_on_c, 0, 93, 0
2, 503490, Note_on_c, 0, 69, 0
2, 503490, Note_on_c, 0, 81, 0
2, 503520, Note_on_c, 0, 96, 100
2, 503520, Note_on_c, 0, 85, 100
2, 503520, Note_on_c, 0, 72, 100
2, 503520, Note_on_c, 0, 60, 100
2, 503520, Note_on_c, 0, 98, 100
2, 503760, Note_on_c, 0, 60, 0
2, 504480, Note_on_c, 0, 96, 0
2, 504480, Note_on_c, 0, 85, 0
2, 504480, Note_on_c, 0, 72, 0
2, 504480, Note_on_c, 0, 98, 0
2, 504480, Note_on_c, 0, 97, 100
2, 504480, Note_on_c, 0, 86, 100
2, 504480, Note_on_c, 0, 73, 100
2, 504720, Note_on_c, 0, 97, 0
2, 504720, Note_on_c, 0, 86, 0
2, 504720, Note_on_c, 0, 73, 0
2, 504960, Note_on_c, 0, 97, 100
2, 504960, Note_on_c, 0, 86, 100
2, 504960, Note_on_c, 0, 73, 100
2, 504960, Note_on_c, 0, 61, 100
2, 505200, Note_on_c, 0, 97, 0
2, 505200, Note_on_c, 0, 86, 0
2, 505200, Note_on_c, 0, 73, 0
2, 505200, Note_on_c, 0, 61, 0
2, 505440, Note_on_c, 0, 96, 100
2, 505440, Note_on_c, 0, 85, 100
2, 505440, Note_on_c, 0, 72, 100
2, 505680, Note_on_c, 0, 96, 0
2, 505680, Note_on_c, 0, 85, 0
2, 505680, Note_on_c, 0, 72, 0
2, 505890, Text_t, "[lighting ()]"
2, 505920, Note_on_c, 0, 97, 100
2, 505920, Note_on_c, 0, 86, 100
2, 505920, Note_on_c, 0, 73, 100
2, 505920, Note_on_c, 0, 62, 100
2, 506160, Note_on_c, 0, 97, 0
2, 506160, Note_on_c, 0, 86, 0
2, 506160, Note_on_c, 0, 73, 0
2, 506160, Note_on_c, 0, 62, 0
2, 506400, Note_on_c, 0, 98, 100
2, 506400, Note_on_c, 0, 87, 100
2, 506400, Note_on_c, 0, 74, 100
2, 506640, Note_on_c, 0, 98, 0
2, 506640, Note_on_c, 0, 87, 0
2, 506640, Note_on_c, 0, 74, 0
2, 507330, Note_on_c, 0, 106, 0
2, 507330, Note_on_c, 0, 94, 0
2, 507330, Note_on_c, 0, 70, 0
2, 507330, Note_on_c, 0, 82, 0
2, 507330, Note_on_c, 0, 105, 100
2, 507330, Note_on_c, 0, 93, 100
2, 507330, Note_on_c, 0, 69, 100
2, 507330, Note_on_c, 0, 81, 100
2, 507360, Note_on_c, 0, 96, 100
2, 507360, Note_on_c, 0, 85, 100
2, 507360, Note_on_c, 0, 72, 100
2, 507360, Note_on_c, 0, 60, 100
2, 507360, Note_on_c, 0, 98, 100
2, 507600, Note_on_c, 0, 60, 0
2, 507810, Text_t, "drum_normal"
2, 508320, Note_on_c, 0, 96, 0
2, 508320, Note_on_c, 0, 85, 0
2, 508320, Note_on_c, 0, 72, 0
2, 508320, Note_on_c, 0, 98, 0
2, 508320, Note_on_c, 0, 97, 100
2, 508320, Note_on_c, 0, 86, 100
2, 508320, Note_on_c, 0, 73, 100
2, 508560, Note_on_c, 0, 97, 0
2, 508560, Note_on_c, 0, 86, 0
2, 508560, Note_on_c, 0, 73, 0
2, 508800, Note_on_c, 0, 97, 100
2, 508800, Note_on_c, 0, 86, 100
2, 508800, Note_on_c, 0, 73, 100
2, 508800, Note_on_c, 0, 61, 100
2, 509040, Note_on_c, 0, 97, 0
2, 509040, Note_on_c, 0, 86, 0
2, 509040, Note_on_c, 0, 73, 0
2, 509040, Note_on_c, 0, 61, 0
2, 509280, Note_on_c, 0, 96, 100
2, 509280, Note_on_c, 0, 85, 100
2, 509280, Note_on_c, 0, 72, 100
2, 509520, Note_on_c, 0, 96, 0
2, 509520, Note_on_c, 0, 85, 0
2, 509520, Note_on_c, 0, 72, 0
2, 509760, Note_on_c, 0, 97, 100
2, 509760, Note_on_c, 0, 86, 100
2, 509760, Note_on_c, 0, 73, 100
2, 509760, Note_on_c, 0, 62, 100
2, 510000, Note_on_c, 0, 97, 0
2, 510000, Note_on_c, 0, 86, 0
2, 510000, Note_on_c, 0, 73, 0
2, 510000, Note_on_c, 0, 62, 0
2, 510240, Note_on_c, 0, 98, 100
2, 510240, Note_on_c, 0, 87, 100
2, 510240, Note_on_c, 0, 74, 100
2, 510480, Note_on_c, 0, 98, 0
2, 510480, Note_on_c, 0, 87, 0
2, 510480, Note_on_c, 0, 74, 0
2, 511170, Note_on_c, 0, 105, 0
2, 511170, Note_on_c, 0, 93, 0
2, 511170, Note_on_c, 0, 69, 0
2, 511170, Note_on_c, 0, 81, 0
2, 511170, Note_on_c, 0, 106, 100
2, 511170, Note_on_c, 0, 94, 100
2, 511170, Note_on_c, 0, 70, 100
2, 511170, Note_on_c, 0, 82, 100
2, 511200, Note_on_c, 0, 85, 100
2, 511200, Note_on_c, 0, 96, 100
2, 511200, Note_on_c, 0, 72, 100
2, 511200, Note_on_c, 0, 60, 100
2, 511200, Note_on_c, 0, 98, 100
2, 511440, Note_on_c, 0, 60, 0
2, 512160, Note_on_c, 0, 85, 0
2, 512160, Note_on_c, 0, 96, 0
2, 512160, Note_on_c, 0, 72, 0
2, 512160, Note_on_c, 0, 98, 0
2, 512160, Note_on_c, 0, 86, 100
2, 512160, Note_on_c, 0, 97, 100
2, 512160, Note_on_c, 0, 73, 100
2, 512400, Note_on_c, 0, 86, 0
2, 512400, Note_on_c, 0, 97, 0
2, 512400, Note_on_c, 0, 73, 0
2, 512640, Note_on_c, 0, 86, 100
2, 512640, Note_on_c, 0, 97, 100
2, 512640, Note_on_c, 0, 73, 100
2, 512640, Note_on_c, 0, 61, 100
2, 512880, Note_on_c, 0, 86, 0
2, 512880, Note_on_c, 0, 97, 0
2, 512880, Note_on_c, 0, 73, 0
2, 512880, Note_on_c, 0, 61, 0
2, 513120, Note_on_c, 0, 85, 100
2, 513120, Note_on_c, 0, 96, 100
2, 513120, Note_on_c, 0, 72, 100
2, 513360, Note_on_c, 0, 85, 0
2, 513360, Note_on_c, 0, 96, 0
2, 513360, Note_on_c, 0, 72, 0
2, 513600, Note_on_c, 0, 86, 100
2, 513600, Note_on_c, 0, 97, 100
2, 513600, Note_on_c, 0, 73, 100
2, 513600, Note_on_c, 0, 62, 100
2, 513840, Note_on_c, 0, 86, 0
2, 513840, Note_on_c, 0, 97, 0
2, 513840, Note_on_c, 0, 73, 0
2, 513840, Note_on_c, 0, 62, 0
2, 514080, Note_on_c, 0, 87, 100
2, 514080, Note_on_c, 0, 98, 100
2, 514080, Note_on_c, 0, 74, 100
2, 514320, Note_on_c, 0, 87, 0
2, 514320, Note_on_c, 0, 98, 0
2, 514320, Note_on_c, 0, 74, 0
2, 515010, Note_on_c, 0, 105, 100
2, 515010, Note_on_c, 0, 93, 100
2, 515010, Note_on_c, 0, 69, 100
2, 515010, Note_on_c, 0, 81, 100
2, 515040, Note_on_c, 0, 85, 100
2, 515040, Note_on_c, 0, 96, 100
2, 515040, Note_on_c, 0, 72, 100
2, 515040, Note_on_c, 0, 60, 100
2, 515040, Note_on_c, 0, 98, 100
2, 515280, Note_on_c, 0, 60, 0
2, 516000, Note_on_c, 0, 85, 0
2, 516000, Note_on_c, 0, 96, 0
2, 516000, Note_on_c, 0, 72, 0
2, 516000, Note_on_c, 0, 98, 0
2, 516000, Note_on_c, 0, 86, 100
2, 516000, Note_on_c, 0, 97, 100
2, 516000, Note_on_c, 0, 73, 100
2, 516240, Note_on_c, 0, 86, 0
2, 516240, Note_on_c, 0, 97, 0
2, 516240, Note_on_c, 0, 73, 0
2, 516480, Note_on_c, 0, 86, 100
2, 516480, Note_on_c, 0, 97, 100
2, 516480, Note_on_c, 0, 73, 100
2, 516480, Note_on_c, 0, 61, 100
2, 516720, Note_on_c, 0, 86, 0
2, 516720, Note_on_c, 0, 97, 0
2, 516720, Note_on_c, 0, 73, 0
2, 516720, Note_on_c, 0, 61, 0
2, 516960, Note_on_c, 0, 85, 100
2, 516960, Note_on_c, 0, 96, 100
2, 516960, Note_on_c, 0, 72, 100
2, 517200, Note_on_c, 0, 85, 0
2, 517200, Note_on_c, 0, 96, 0
2, 517200, Note_on_c, 0, 72, 0
2, 517440, Note_on_c, 0, 86, 100
2, 517440, Note_on_c, 0, 97, 100
2, 517440, Note_on_c, 0, 73, 100
2, 517440, Note_on_c, 0, 62, 100
2, 517680, Note_on_c, 0, 86, 0
2, 517680, Note_on_c, 0, 97, 0
2, 517680, Note_on_c, 0, 73, 0
2, 517680, Note_on_c, 0, 62, 0
2, 517920, Note_on_c, 0, 87, 100
2, 517920, Note_on_c, 0, 98, 100
2, 517920, Note_on_c, 0, 74, 100
2, 518160, Note_on_c, 0, 87, 0
2, 518160, Note_on_c, 0, 98, 0
2, 518160, Note_on_c, 0, 74, 0
2, 518400, Note_on_c, 0, 99, 100
2, 518400, Note_on_c, 0, 88, 100
2, 518400, Note_on_c, 0, 74, 100
2, 518400, Note_on_c, 0, 62, 100
2, 518640, Note_on_c, 0, 99, 0
2, 518640, Note_on_c, 0, 88, 0
2, 518640, Note_on_c, 0, 74, 0
2, 518640, Note_on_c, 0, 62, 0
2, 518850, Note_on_c, 0, 106, 0
2, 518850, Note_on_c, 0, 94, 0
2, 518850, Note_on_c, 0, 70, 0
2, 518850, Note_on_c, 0, 82, 0
2, 518880, Note_on_c, 0, 96, 100
2, 518880, Note_on_c, 0, 85, 100
2, 518880, Note_on_c, 0, 72, 100
2, 518880, Note_on_c, 0, 60, 100
2, 518880, Note_on_c, 0, 98, 100
2, 519120, Note_on_c, 0, 60, 0
2, 519840, Note_on_c, 0, 96, 0
2, 519840, Note_on_c, 0, 85, 0
2, 519840, Note_on_c, 0, 72, 0
2, 519840, Note_on_c, 0, 98, 0
2, 519840, Note_on_c, 0, 86, 100
2, 519840, Note_on_c, 0, 97, 100
2, 519840, Note_on_c, 0, 73, 100
2, 520080, Note_on_c, 0, 86, 0
2, 520080, Note_on_c, 0, 97, 0
2, 520080, Note_on_c, 0, 73, 0
2, 520320, Note_on_c, 0, 86, 100
2, 520320, Note_on_c, 0, 97, 100
2, 520320, Note_on_c, 0, 73, 100
2, 520320, Note_on_c, 0, 61, 100
2, 520560, Note_on_c, 0, 86, 0
2, 520560, Note_on_c, 0, 97, 0
2, 520560, Note_on_c, 0, 73, 0
2, 520560, Note_on_c, 0, 61, 0
2, 520800, Note_on_c, 0, 85, 100
2, 520800, Note_on_c, 0, 96, 100
2, 520800, Note_on_c, 0, 72, 100
2, 521040, Note_on_c, 0, 85, 0
2, 521040, Note_on_c, 0, 96, 0
2, 521040, Note_on_c, 0, 72, 0
2, 521280, Note_on_c, 0, 86, 100
2, 521280, Note_on_c, 0, 97, 100
2, 521280, Note_on_c, 0, 73, 100
2, 521280, Note_on_c, 0, 62, 100
2, 521520, Note_on_c, 0, 86, 0
2, 521520, Note_on_c, 0, 97, 0
2, 521520, Note_on_c, 0, 73, 0
2, 521520, Note_on_c, 0, 62, 0
2, 521760, Note_on_c, 0, 87, 100
2, 521760, Note_on_c, 0, 98, 100
2, 521760, Note_on_c, 0, 74, 100
2, 522000, Note_on_c, 0, 87, 0
2, 522000, Note_on_c, 0, 98, 0
2, 522000, Note_on_c, 0, 74, 0
2, 522690, Note_on_c, 0, 105, 0
2, 522690, Note_on_c, 0, 93, 0
2, 522690, Note_on_c, 0, 69, 0
2, 522690, Note_on_c, 0, 81, 0
2, 522690, Note_on_c, 0, 106, 100
2, 522690, Note_on_c, 0, 94, 100
2, 522690, Note_on_c, 0, 70, 100
2, 522690, Note_on_c, 0, 82, 100
2, 522720, Note_on_c, 0, 85, 100
2, 522720, Note_on_c, 0, 96, 100
2, 522720, Note_on_c, 0, 72, 100
2, 522720, Note_on_c, 0, 60, 100
2, 522720, Note_on_c, 0, 98, 100
2, 522960, Note_on_c, 0, 60, 0
2, 523680, Note_on_c, 0, 85, 0
2, 523680, Note_on_c, 0, 96, 0
2, 523680, Note_on_c, 0, 72, 0
2, 523680, Note_on_c, 0, 98, 0
2, 523680, Note_on_c, 0, 86, 100
2, 523680, Note_on_c, 0, 97, 100
2, 523680, Note_on_c, 0, 73, 100
2, 523920, Note_on_c, 0, 86, 0
2, 523920, Note_on_c, 0, 97, 0
2, 523920, Note_on_c, 0, 73, 0
2, 524160, Note_on_c, 0, 86, 100
2, 524160, Note_on_c, 0, 97, 100
2, 524160, Note_on_c, 0, 73, 100
2, 524160, Note_on_c, 0, 61, 100
2, 524400, Note_on_c, 0, 86, 0
2, 524400, Note_on_c, 0, 97, 0
2, 524400, Note_on_c, 0, 73, 0
2, 524400, Note_on_c, 0, 61, 0
2, 524640, Note_on_c, 0, 85, 100
2, 524640, Note_on_c, 0, 96, 100
2, 524640, Note_on_c, 0, 72, 100
2, 524880, Note_on_c, 0, 85, 0
2, 524880, Note_on_c, 0, 96, 0
2, 524880, Note_on_c, 0, 72, 0
2, 525090, Text_t, "drum_half"
2, 525120, Note_on_c, 0, 86, 100
2, 525120, Note_on_c, 0, 97, 100
2, 525120, Note_on_c, 0, 73, 100
2, 525120, Note_on_c, 0, 62, 100
2, 525360, Note_on_c, 0, 86, 0
2, 525360, Note_on_c, 0, 97, 0
2, 525360, Note_on_c, 0, 73, 0
2, 525360, Note_on_c, 0, 62, 0
2, 525600, Note_on_c, 0, 87, 100
2, 525600, Note_on_c, 0, 98, 100
2, 525600, Note_on_c, 0, 74, 100
2, 525840, Note_on_c, 0, 87, 0
2, 525840, Note_on_c, 0, 98, 0
2, 525840, Note_on_c, 0, 74, 0
2, 526530, Note_on_c, 0, 106, 0
2, 526530, Note_on_c, 0, 94, 0
2, 526530, Note_on_c, 0, 70, 0
2, 526530, Note_on_c, 0, 82, 0
2, 526530, Note_on_c, 0, 105, 100
2, 526530, Note_on_c, 0, 93, 100
2, 526530, Note_on_c, 0, 69, 100
2, 526530, Note_on_c, 0, 81, 100
2, 526560, Note_on_c, 0, 85, 100
2, 526560, Note_on_c, 0, 96, 100
2, 526560, Note_on_c, 0, 72, 100
2, 526560, Note_on_c, 0, 60, 100
2, 526560, Note_on_c, 0, 98, 100
2, 526800, Note_on_c, 0, 60, 0
2, 527010, Text_t, "drum_normal"
2, 527520, Note_on_c, 0, 85, 0
2, 527520, Note_on_c, 0, 96, 0
2, 527520, Note_on_c, 0, 72, 0
2, 527520, Note_on_c, 0, 98, 0
2, 527520, Note_on_c, 0, 86, 100
2, 527520, Note_on_c, 0, 97, 100
2, 527520, Note_on_c, 0, 73, 100
2, 527760, Note_on_c, 0, 86, 0
2, 527760, Note_on_c, 0, 97, 0
2, 527760, Note_on_c, 0, 73, 0
2, 528000, Note_on_c, 0, 86, 100
2, 528000, Note_on_c, 0, 97, 100
2, 528000, Note_on_c, 0, 73, 100
2, 528000, Note_on_c, 0, 61, 100
2, 528240, Note_on_c, 0, 86, 0
2, 528240, Note_on_c, 0, 97, 0
2, 528240, Note_on_c, 0, 73, 0
2, 528240, Note_on_c, 0, 61, 0
2, 528480, Note_on_c, 0, 85, 100
2, 528480, Note_on_c, 0, 96, 100
2, 528480, Note_on_c, 0, 72, 100
2, 528720, Note_on_c, 0, 85, 0
2, 528720, Note_on_c, 0, 96, 0
2, 528720, Note_on_c, 0, 72, 0
2, 528960, Note_on_c, 0, 86, 100
2, 528960, Note_on_c, 0, 97, 100
2, 528960, Note_on_c, 0, 73, 100
2, 528960, Note_on_c, 0, 62, 100
2, 529200, Note_on_c, 0, 86, 0
2, 529200, Note_on_c, 0, 97, 0
2, 529200, Note_on_c, 0, 73, 0
2, 529200, Note_on_c, 0, 62, 0
2, 529440, Note_on_c, 0, 87, 100
2, 529440, Note_on_c, 0, 98, 100
2, 529440, Note_on_c, 0, 74, 100
2, 529680, Note_on_c, 0, 87, 0
2, 529680, Note_on_c, 0, 98, 0
2, 529680, Note_on_c, 0, 74, 0
2, 530370, Note_on_c, 0, 106, 100
2, 530370, Note_on_c, 0, 94, 100
2, 530370, Note_on_c, 0, 70, 100
2, 530370, Note_on_c, 0, 82, 100
2, 530400, Note_on_c, 0, 85, 100
2, 530400, Note_on_c, 0, 96, 100
2, 530400, Note_on_c, 0, 72, 100
2, 530400, Note_on_c, 0, 60, 100
2, 530400, Note_on_c, 0, 98, 100
2, 530640, Note_on_c, 0, 60, 0
2, 531360, Note_on_c, 0, 85, 0
2, 531360, Note_on_c, 0, 96, 0
2, 531360, Note_on_c, 0, 72, 0
2, 531360, Note_on_c, 0, 98, 0
2, 531360, Note_on_c, 0, 86, 100
2, 531360, Note_on_c, 0, 97, 100
2, 531360, Note_on_c, 0, 73, 100
2, 531600, Note_on_c, 0, 86, 0
2, 531600, Note_on_c, 0, 97, 0
2, 531600, Note_on_c, 0, 73, 0
2, 531840, Note_on_c, 0, 86, 100
2, 531840, Note_on_c, 0, 97, 100
2, 531840, Note_on_c, 0, 73, 100
2, 531840, Note_on_c, 0, 61, 100
2, 532080, Note_on_c, 0, 86, 0
2, 532080, Note_on_c, 0, 97, 0
2, 532080, Note_on_c, 0, 73, 0
2, 532080, Note_on_c, 0, 61, 0
2, 532320, Note_on_c, 0, 85, 100
2, 532320, Note_on_c, 0, 96, 100
2, 532320, Note_on_c, 0, 72, 100
2, 532560, Note_on_c, 0, 85, 0
2, 532560, Note_on_c, 0, 96, 0
2, 532560, Note_on_c, 0, 72, 0
2, 532800, Note_on_c, 0, 86, 100
2, 532800, Note_on_c, 0, 97, 100
2, 532800, Note_on_c, 0, 73, 100
2, 532800, Note_on_c, 0, 62, 100
2, 533040, Note_on_c, 0, 86, 0
2, 533040, Note_on_c, 0, 97, 0
2, 533040, Note_on_c, 0, 73, 0
2, 533040, Note_on_c, 0, 62, 0
2, 533280, Note_on_c, 0, 87, 100
2, 533280, Note_on_c, 0, 98, 100
2, 533280, Note_on_c, 0, 74, 100
2, 533520, Note_on_c, 0, 87, 0
2, 533520, Note_on_c, 0, 98, 0
2, 533520, Note_on_c, 0, 74, 0
2, 533760, Note_on_c, 0, 99, 100
2, 533760, Note_on_c, 0, 88, 100
2, 533760, Note_on_c, 0, 74, 100
2, 534000, Note_on_c, 0, 99, 0
2, 534000, Note_on_c, 0, 88, 0
2, 534000, Note_on_c, 0, 74, 0
2, 534210, Note_on_c, 0, 103, 100
2, 534210, Note_on_c, 0, 91, 100
2, 534210, Note_on_c, 0, 67, 100
2, 534210, Note_on_c, 0, 79, 100
2, 534240, Note_on_c, 0, 96, 100
2, 534240, Note_on_c, 0, 98, 100
2, 534240, Note_on_c, 0, 72, 100
2, 534240, Note_on_c, 0, 73, 100
2, 534240, Note_on_c, 0, 60, 100
2, 534240, Note_on_c, 0, 85, 100
2, 534240, Note_on_c, 0, 87, 100
2, 537600, Note_on_c, 0, 96, 0
2, 537600, Note_on_c, 0, 98, 0
2, 537600, Note_on_c, 0, 72, 0
2, 537600, Note_on_c, 0, 73, 0
2, 537600, Note_on_c, 0, 60, 0
2, 537600, Note_on_c, 0, 85, 0
2, 537600, Note_on_c, 0, 87, 0
2, 538080, Note_on_c, 0, 97, 100
2, 538080, Note_on_c, 0, 99, 100
2, 538080, Note_on_c, 0, 73, 100
2, 538080, Note_on_c, 0, 74, 100
2, 538080, Note_on_c, 0, 61, 100
2, 538080, Note_on_c, 0, 86, 100
2, 538080, Note_on_c, 0, 87, 100
2, 540450, Text_t, "drum_half"
2, 541890, Note_on_c, 0, 103, 0
2, 541890, Note_on_c, 0, 91, 0
2, 541890, Note_on_c, 0, 67, 0
2, 541890, Note_on_c, 0, 79, 0
2, 541920, Note_on_c, 0, 97, 0
2, 541920, Note_on_c, 0, 99, 0
2, 541920, Note_on_c, 0, 73, 0
2, 541920, Note_on_c, 0, 74, 0
2, 541920, Note_on_c, 0, 61, 0
2, 541920, Note_on_c, 0, 86, 0
2, 541920, Note_on_c, 0, 87, 0
2, 542370, Text_t, "drum_normal"
2, 542370, Note_on_c, 0, 105, 0
2, 542370, Note_on_c, 0, 93, 0
2, 542370, Note_on_c, 0, 69, 0
2, 542370, Note_on_c, 0, 81, 0
2, 542400, Note_on_c, 0, 72, 100
2, 542400, Note_on_c, 0, 96, 100
2, 542400, Note_on_c, 0, 84, 100
2, 542400, Note_on_c, 0, 60, 100
2, 542640, Note_on_c, 0, 72, 0
2, 542640, Note_on_c, 0, 96, 0
2, 542640, Note_on_c, 0, 84, 0
2, 542640, Note_on_c, 0, 60, 0
2, 542880, Note_on_c, 0, 96, 100
2, 542880, Note_on_c, 0, 84, 100
2, 542880, Note_on_c, 0, 72, 100
2, 543120, Note_on_c, 0, 96, 0
2, 543120, Note_on_c, 0, 84, 0
2, 543120, Note_on_c, 0, 72, 0
2, 543360, Note_on_c, 0, 72, 100
2, 543360, Note_on_c, 0, 96, 100
2, 543360, Note_on_c, 0, 84, 100
2, 543360, Note_on_c, 0, 60, 100
2, 543600, Note_on_c, 0, 72, 0
2, 543600, Note_on_c, 0, 96, 0
2, 543600, Note_on_c, 0, 84, 0
2, 543600, Note_on_c, 0, 60, 0
2, 543840, Note_on_c, 0, 96, 100
2, 543840, Note_on_c, 0, 84, 100
2, 543840, Note_on_c, 0, 72, 100
2, 544080, Note_on_c, 0, 96, 0
2, 544080, Note_on_c, 0, 84, 0
2, 544080, Note_on_c, 0, 72, 0
2, 544320, Note_on_c, 0, 72, 100
2, 544320, Note_on_c, 0, 96, 100
2, 544320, Note_on_c, 0, 84, 100
2, 544320, Note_on_c, 0, 60, 100
2, 544560, Note_on_c, 0, 72, 0
2, 544560, Note_on_c, 0, 96, 0
2, 544560, Note_on_c, 0, 84, 0
2, 544560, Note_on_c, 0, 60, 0
2, 544800, Note_on_c, 0, 96, 100
2, 544800, Note_on_c, 0, 84, 100
2, 544800, Note_on_c, 0, 72, 100
2, 545040, Note_on_c, 0, 96, 0
2, 545040, Note_on_c, 0, 84, 0
2, 545040, Note_on_c, 0, 72, 0
2, 545280, Note_on_c, 0, 72, 100
2, 545280, Note_on_c, 0, 96, 100
2, 545280, Note_on_c, 0, 84, 100
2, 545280, Note_on_c, 0, 60, 100
2, 545520, Note_on_c, 0, 72, 0
2, 545520, Note_on_c, 0, 96, 0
2, 545520, Note_on_c, 0, 84, 0
2, 545520, Note_on_c, 0, 60, 0
2, 545760, Note_on_c, 0, 96, 100
2, 545760, Note_on_c, 0, 84, 100
2, 546000, Note_on_c, 0, 96, 0
2, 546000, Note_on_c, 0, 84, 0
2, 546240, Note_on_c, 0, 73, 100
2, 546240, Note_on_c, 0, 97, 100
2, 546240, Note_on_c, 0, 85, 100
2, 546240, Note_on_c, 0, 61, 100
2, 546480, Note_on_c, 0, 73, 0
2, 546480, Note_on_c, 0, 97, 0
2, 546480, Note_on_c, 0, 85, 0
2, 546480, Note_on_c, 0, 61, 0
2, 546720, Note_on_c, 0, 97, 100
2, 546720, Note_on_c, 0, 85, 100
2, 546720, Note_on_c, 0, 73, 100
2, 546960, Note_on_c, 0, 97, 0
2, 546960, Note_on_c, 0, 85, 0
2, 546960, Note_on_c, 0, 73, 0
2, 547200, Note_on_c, 0, 73, 100
2, 547200, Note_on_c, 0, 97, 100
2, 547200, Note_on_c, 0, 85, 100
2, 547200, Note_on_c, 0, 61, 100
2, 547440, Note_on_c, 0, 73, 0
2, 547440, Note_on_c, 0, 97, 0
2, 547440, Note_on_c, 0, 85, 0
2, 547440, Note_on_c, 0, 61, 0
2, 547680, Note_on_c, 0, 97, 100
2, 547680, Note_on_c, 0, 85, 100
2, 547680, Note_on_c, 0, 73, 100
2, 547920, Note_on_c, 0, 97, 0
2, 547920, Note_on_c, 0, 85, 0
2, 547920, Note_on_c, 0, 73, 0
2, 548160, Note_on_c, 0, 73, 100
2, 548160, Note_on_c, 0, 97, 100
2, 548160, Note_on_c, 0, 85, 100
2, 548160, Note_on_c, 0, 61, 100
2, 548400, Note_on_c, 0, 73, 0
2, 548400, Note_on_c, 0, 97, 0
2, 548400, Note_on_c, 0, 85, 0
2, 548400, Note_on_c, 0, 61, 0
2, 548640, Note_on_c, 0, 97, 100
2, 548640, Note_on_c, 0, 85, 100
2, 548640, Note_on_c, 0, 73, 100
2, 548880, Note_on_c, 0, 97, 0
2, 548880, Note_on_c, 0, 85, 0
2, 548880, Note_on_c, 0, 73, 0
2, 549120, Note_on_c, 0, 73, 100
2, 549120, Note_on_c, 0, 97, 100
2, 549120, Note_on_c, 0, 85, 100
2, 549120, Note_on_c, 0, 61, 100
2, 549360, Note_on_c, 0, 73, 0
2, 549360, Note_on_c, 0, 97, 0
2, 549360, Note_on_c, 0, 85, 0
2, 549360, Note_on_c, 0, 61, 0
2, 549600, Note_on_c, 0, 97, 100
2, 549600, Note_on_c, 0, 85, 100
2, 549840, Note_on_c, 0, 97, 0
2, 549840, Note_on_c, 0, 85, 0
2, 550050, Note_on_c, 0, 106, 0
2, 550050, Note_on_c, 0, 94, 0
2, 550050, Note_on_c, 0, 70, 0
2, 550050, Note_on_c, 0, 82, 0
2, 550050, Note_on_c, 0, 105, 100
2, 550050, Note_on_c, 0, 93, 100
2, 550050, Note_on_c, 0, 69, 100
2, 550050, Note_on_c, 0, 81, 100
2, 550080, Note_on_c, 0, 98, 100
2, 550080, Note_on_c, 0, 86, 100
2, 550080, Note_on_c, 0, 74, 100
2, 550080, Note_on_c, 0, 61, 100
2, 550320, Note_on_c, 0, 98, 0
2, 550320, Note_on_c, 0, 86, 0
2, 550320, Note_on_c, 0, 74, 0
2, 550320, Note_on_c, 0, 61, 0
2, 550560, Note_on_c, 0, 98, 100
2, 550560, Note_on_c, 0, 86, 100
2, 550560, Note_on_c, 0, 74, 100
2, 550800, Note_on_c, 0, 98, 0
2, 550800, Note_on_c, 0, 86, 0
2, 550800, Note_on_c, 0, 74, 0
2, 551040, Note_on_c, 0, 98, 100
2, 551040, Note_on_c, 0, 86, 100
2, 551040, Note_on_c, 0, 74, 100
2, 551040, Note_on_c, 0, 61, 100
2, 551280, Note_on_c, 0, 98, 0
2, 551280, Note_on_c, 0, 86, 0
2, 551280, Note_on_c, 0, 74, 0
2, 551280, Note_on_c, 0, 61, 0
2, 551520, Note_on_c, 0, 98, 100
2, 551520, Note_on_c, 0, 86, 100
2, 551520, Note_on_c, 0, 74, 100
2, 551760, Note_on_c, 0, 98, 0
2, 551760, Note_on_c, 0, 86, 0
2, 551760, Note_on_c, 0, 74, 0
2, 552000, Note_on_c, 0, 98, 100
2, 552000, Note_on_c, 0, 86, 100
2, 552000, Note_on_c, 0, 74, 100
2, 552000, Note_on_c, 0, 61, 100
2, 552240, Note_on_c, 0, 98, 0
2, 552240, Note_on_c, 0, 86, 0
2, 552240, Note_on_c, 0, 74, 0
2, 552240, Note_on_c, 0, 61, 0
2, 552480, Note_on_c, 0, 98, 100
2, 552480, Note_on_c, 0, 86, 100
2, 552480, Note_on_c, 0, 74, 100
2, 552720, Note_on_c, 0, 98, 0
2, 552720, Note_on_c, 0, 86, 0
2, 552720, Note_on_c, 0, 74, 0
2, 552960, Note_on_c, 0, 98, 100
2, 552960, Note_on_c, 0, 86, 100
2, 552960, Note_on_c, 0, 74, 100
2, 552960, Note_on_c, 0, 61, 100
2, 553200, Note_on_c, 0, 98, 0
2, 553200, Note_on_c, 0, 86, 0
2, 553200, Note_on_c, 0, 74, 0
2, 553200, Note_on_c, 0, 61, 0
2, 553440, Note_on_c, 0, 98, 100
2, 553440, Note_on_c, 0, 86, 100
2, 553680, Note_on_c, 0, 98, 0
2, 553680, Note_on_c, 0, 86, 0
2, 553920, Note_on_c, 0, 99, 100
2, 553920, Note_on_c, 0, 87, 100
2, 553920, Note_on_c, 0, 62, 100
2, 553920, Note_on_c, 0, 75, 100
2, 554160, Note_on_c, 0, 99, 0
2, 554160, Note_on_c, 0, 87, 0
2, 554160, Note_on_c, 0, 62, 0
2, 554160, Note_on_c, 0, 75, 0
2, 554400, Note_on_c, 0, 99, 100
2, 554400, Note_on_c, 0, 87, 100
2, 554400, Note_on_c, 0, 75, 100
2, 554640, Note_on_c, 0, 99, 0
2, 554640, Note_on_c, 0, 87, 0
2, 554640, Note_on_c, 0, 75, 0
2, 554880, Note_on_c, 0, 99, 100
2, 554880, Note_on_c, 0, 87, 100
2, 554880, Note_on_c, 0, 75, 100
2, 554880, Note_on_c, 0, 62, 100
2, 555120, Note_on_c, 0, 99, 0
2, 555120, Note_on_c, 0, 87, 0
2, 555120, Note_on_c, 0, 75, 0
2, 555120, Note_on_c, 0, 62, 0
2, 555360, Note_on_c, 0, 99, 100
2, 555360, Note_on_c, 0, 87, 100
2, 555360, Note_on_c, 0, 75, 100
2, 555600, Note_on_c, 0, 99, 0
2, 555600, Note_on_c, 0, 87, 0
2, 555600, Note_on_c, 0, 75, 0
2, 555810, Text_t, "drum_half"
2, 555840, Note_on_c, 0, 99, 100
2, 555840, Note_on_c, 0, 87, 100
2, 555840, Note_on_c, 0, 75, 100
2, 555840, Note_on_c, 0, 62, 100
2, 556080, Note_on_c, 0, 99, 0
2, 556080, Note_on_c, 0, 87, 0
2, 556080, Note_on_c, 0, 75, 0
2, 556080, Note_on_c, 0, 62, 0
2, 556320, Note_on_c, 0, 99, 100
2, 556320, Note_on_c, 0, 87, 100
2, 556320, Note_on_c, 0, 75, 100
2, 556560, Note_on_c, 0, 99, 0
2, 556560, Note_on_c, 0, 87, 0
2, 556560, Note_on_c, 0, 75, 0
2, 556800, Note_on_c, 0, 99, 100
2, 556800, Note_on_c, 0, 87, 100
2, 556800, Note_on_c, 0, 75, 100
2, 556800, Note_on_c, 0, 62, 100
2, 557040, Note_on_c, 0, 99, 0
2, 557040, Note_on_c, 0, 87, 0
2, 557040, Note_on_c, 0, 75, 0
2, 557040, Note_on_c, 0, 62, 0
2, 557280, Note_on_c, 0, 99, 100
2, 557280, Note_on_c, 0, 87, 100
2, 557520, Note_on_c, 0, 99, 0
2, 557520, Note_on_c, 0, 87, 0
2, 557730, Text_t, "[lighting (color2)]"
2, 557730, Text_t, "drum_normal"
2, 557730, Note_on_c, 0, 105, 0
2, 557730, Note_on_c, 0, 93, 0
2, 557730, Note_on_c, 0, 69, 0
2, 557730, Note_on_c, 0, 81, 0
2, 557730, Note_on_c, 0, 106, 100
2, 557730, Note_on_c, 0, 94, 100
2, 557730, Note_on_c, 0, 70, 100
2, 557730, Note_on_c, 0, 82, 100
2, 557760, Note_on_c, 0, 99, 100
2, 557760, Note_on_c, 0, 98, 100
2, 557760, Note_on_c, 0, 87, 100
2, 557760, Note_on_c, 0, 86, 100
2, 557760, Note_on_c, 0, 75, 100
2, 557760, Note_on_c, 0, 62, 100
2, 558000, Note_on_c, 0, 99, 0
2, 558000, Note_on_c, 0, 98, 0
2, 558000, Note_on_c, 0, 87, 0
2, 558000, Note_on_c, 0, 86, 0
2, 558000, Note_on_c, 0, 75, 0
2, 558000, Note_on_c, 0, 62, 0
2, 558240, Note_on_c, 0, 99, 100
2, 558240, Note_on_c, 0, 98, 100
2, 558240, Note_on_c, 0, 87, 100
2, 558240, Note_on_c, 0, 86, 100
2, 558480, Note_on_c, 0, 99, 0
2, 558480, Note_on_c, 0, 98, 0
2, 558480, Note_on_c, 0, 87, 0
2, 558480, Note_on_c, 0, 86, 0
2, 558720, Note_on_c, 0, 99, 100
2, 558720, Note_on_c, 0, 98, 100
2, 558720, Note_on_c, 0, 87, 100
2, 558720, Note_on_c, 0, 86, 100
2, 558720, Note_on_c, 0, 75, 100
2, 558720, Note_on_c, 0, 62, 100
2, 558960, Note_on_c, 0, 99, 0
2, 558960, Note_on_c, 0, 98, 0
2, 558960, Note_on_c, 0, 87, 0
2, 558960, Note_on_c, 0, 86, 0
2, 558960, Note_on_c, 0, 75, 0
2, 558960, Note_on_c, 0, 62, 0
2, 559200, Note_on_c, 0, 99, 100
2, 559200, Note_on_c, 0, 98, 100
2, 559200, Note_on_c, 0, 87, 100
2, 559200, Note_on_c, 0, 86, 100
2, 559440, Note_on_c, 0, 99, 0
2, 559440, Note_on_c, 0, 98, 0
2, 559440, Note_on_c, 0, 87, 0
2, 559440, Note_on_c, 0, 86, 0
2, 559680, Note_on_c, 0, 99, 100
2, 559680, Note_on_c, 0, 98, 100
2, 559680, Note_on_c, 0, 87, 100
2, 559680, Note_on_c, 0, 86, 100
2, 559680, Note_on_c, 0, 75, 100
2, 559680, Note_on_c, 0, 62, 100
2, 559920, Note_on_c, 0, 99, 0
2, 559920, Note_on_c, 0, 98, 0
2, 559920, Note_on_c, 0, 87, 0
2, 559920, Note_on_c, 0, 86, 0
2, 559920, Note_on_c, 0, 75, 0
2, 559920, Note_on_c, 0, 62, 0
2, 560160, Note_on_c, 0, 99, 100
2, 560160, Note_on_c, 0, 98, 100
2, 560160, Note_on_c, 0, 87, 100
2, 560160, Note_on_c, 0, 86, 100
2, 560400, Note_on_c, 0, 99, 0
2, 560400, Note_on_c, 0, 98, 0
2, 560400, Note_on_c, 0, 87, 0
2, 560400, Note_on_c, 0, 86, 0
2, 560640, Note_on_c, 0, 99, 100
2, 560640, Note_on_c, 0, 98, 100
2, 560640, Note_on_c, 0, 87, 100
2, 560640, Note_on_c, 0, 86, 100
2, 560640, Note_on_c, 0, 75, 100
2, 560880, Note_on_c, 0, 99, 0
2, 560880, Note_on_c, 0, 98, 0
2, 560880, Note_on_c, 0, 87, 0
2, 560880, Note_on_c, 0, 86, 0
2, 560880, Note_on_c, 0, 75, 0
2, 561120, Note_on_c, 0, 99, 100
2, 561120, Note_on_c, 0, 98, 100
2, 561120, Note_on_c, 0, 87, 100
2, 561120, Note_on_c, 0, 86, 100
2, 561360, Note_on_c, 0, 99, 0
2, 561360, Note_on_c, 0, 98, 0
2, 561360, Note_on_c, 0, 87, 0
2, 561360, Note_on_c, 0, 86, 0
2, 561600, Note_on_c, 0, 99, 100
2, 561600, Note_on_c, 0, 98, 100
2, 561600, Note_on_c, 0, 87, 100
2, 561600, Note_on_c, 0, 86, 100
2, 561600, Note_on_c, 0, 75, 100
2, 561600, Note_on_c, 0, 62, 100
2, 561840, Note_on_c, 0, 99, 0
2, 561840, Note_on_c, 0, 98, 0
2, 561840, Note_on_c, 0, 87, 0
2, 561840, Note_on_c, 0, 86, 0
2, 561840, Note_on_c, 0, 75, 0
2, 561840, Note_on_c, 0, 62, 0
2, 562080, Note_on_c, 0, 99, 100
2, 562080, Note_on_c, 0, 98, 100
2, 562080, Note_on_c, 0, 87, 100
2, 562080, Note_on_c, 0, 86, 100
2, 562080, Note_on_c, 0, 75, 100
2, 562320, Note_on_c, 0, 99, 0
2, 562320, Note_on_c, 0, 98, 0
2, 562320, Note_on_c, 0, 87, 0
2, 562320, Note_on_c, 0, 86, 0
2, 562320, Note_on_c, 0, 75, 0
2, 562560, Note_on_c, 0, 99, 100
2, 562560, Note_on_c, 0, 98, 100
2, 562560, Note_on_c, 0, 87, 100
2, 562560, Note_on_c, 0, 86, 100
2, 562560, Note_on_c, 0, 75, 100
2, 562560, Note_on_c, 0, 62, 100
2, 562800, Note_on_c, 0, 99, 0
2, 562800, Note_on_c, 0, 98, 0
2, 562800, Note_on_c, 0, 87, 0
2, 562800, Note_on_c, 0, 86, 0
2, 562800, Note_on_c, 0, 75, 0
2, 562800, Note_on_c, 0, 62, 0
2, 563040, Note_on_c, 0, 99, 100
2, 563040, Note_on_c, 0, 98, 100
2, 563040, Note_on_c, 0, 87, 100
2, 563040, Note_on_c, 0, 86, 100
2, 563040, Note_on_c, 0, 75, 100
2, 563280, Note_on_c, 0, 99, 0
2, 563280, Note_on_c, 0, 98, 0
2, 563280, Note_on_c, 0, 87, 0
2, 563280, Note_on_c, 0, 86, 0
2, 563280, Note_on_c, 0, 75, 0
2, 563520, Note_on_c, 0, 99, 100
2, 563520, Note_on_c, 0, 98, 100
2, 563520, Note_on_c, 0, 87, 100
2, 563520, Note_on_c, 0, 86, 100
2, 563520, Note_on_c, 0, 75, 100
2, 563520, Note_on_c, 0, 62, 100
2, 563760, Note_on_c, 0, 99, 0
2, 563760, Note_on_c, 0, 98, 0
2, 563760, Note_on_c, 0, 87, 0
2, 563760, Note_on_c, 0, 86, 0
2, 563760, Note_on_c, 0, 75, 0
2, 563760, Note_on_c, 0, 62, 0
2, 564000, Note_on_c, 0, 99, 100
2, 564000, Note_on_c, 0, 98, 100
2, 564000, Note_on_c, 0, 87, 100
2, 564000, Note_on_c, 0, 86, 100
2, 564000, Note_on_c, 0, 75, 100
2, 564240, Note_on_c, 0, 99, 0
2, 564240, Note_on_c, 0, 98, 0
2, 564240, Note_on_c, 0, 87, 0
2, 564240, Note_on_c, 0, 86, 0
2, 564240, Note_on_c, 0, 75, 0
2, 564480, Note_on_c, 0, 99, 100
2, 564480, Note_on_c, 0, 98, 100
2, 564480, Note_on_c, 0, 87, 100
2, 564480, Note_on_c, 0, 86, 100
2, 564480, Note_on_c, 0, 75, 100
2, 564480, Note_on_c, 0, 62, 100
2, 564720, Note_on_c, 0, 99, 0
2, 564720, Note_on_c, 0, 98, 0
2, 564720, Note_on_c, 0, 87, 0
2, 564720, Note_on_c, 0, 86, 0
2, 564720, Note_on_c, 0, 75, 0
2, 564720, Note_on_c, 0, 62, 0
2, 564960, Note_on_c, 0, 99, 100
2, 564960, Note_on_c, 0, 98, 100
2, 564960, Note_on_c, 0, 87, 100
2, 564960, Note_on_c, 0, 86, 100
2, 565200, Note_on_c, 0, 99, 0
2, 565200, Note_on_c, 0, 98, 0
2, 565200, Note_on_c, 0, 87, 0
2, 565200, Note_on_c, 0, 86, 0
2, 565410, Text_t, "solo_on"
2, 565410, Note_on_c, 0, 106, 0
2, 565410, Note_on_c, 0, 94, 0
2, 565410, Note_on_c, 0, 70, 0
2, 565410, Note_on_c, 0, 82, 0
2, 565410, Note_on_c, 0, 105, 100
2, 565410, Note_on_c, 0, 93, 100
2, 565410, Note_on_c, 0, 69, 100
2, 565410, Note_on_c, 0, 81, 100
2, 565440, Note_on_c, 0, 97, 100
2, 565440, Note_on_c, 0, 99, 100
2, 565440, Note_on_c, 0, 85, 100
2, 565440, Note_on_c, 0, 87, 100
2, 565440, Note_on_c, 0, 75, 100
2, 565440, Note_on_c, 0, 74, 100
2, 565440, Note_on_c, 0, 62, 100
2, 565680, Note_on_c, 0, 97, 0
2, 565680, Note_on_c, 0, 99, 0
2, 565680, Note_on_c, 0, 85, 0
2, 565680, Note_on_c, 0, 87, 0
2, 565680, Note_on_c, 0, 75, 0
2, 565680, Note_on_c, 0, 74, 0
2, 565680, Note_on_c, 0, 62, 0
2, 565920, Note_on_c, 0, 97, 100
2, 565920, Note_on_c, 0, 99, 100
2, 565920, Note_on_c, 0, 85, 100
2, 565920, Note_on_c, 0, 87, 100
2, 566160, Note_on_c, 0, 97, 0
2, 566160, Note_on_c, 0, 99, 0
2, 566160, Note_on_c, 0, 85, 0
2, 566160, Note_on_c, 0, 87, 0
2, 566400, Note_on_c, 0, 97, 100
2, 566400, Note_on_c, 0, 99, 100
2, 566400, Note_on_c, 0, 85, 100
2, 566400, Note_on_c, 0, 87, 100
2, 566400, Note_on_c, 0, 75, 100
2, 566400, Note_on_c, 0, 74, 100
2, 566400, Note_on_c, 0, 62, 100
2, 566640, Note_on_c, 0, 97, 0
2, 566640, Note_on_c, 0, 99, 0
2, 566640, Note_on_c, 0, 85, 0
2, 566640, Note_on_c, 0, 87, 0
2, 566640, Note_on_c, 0, 75, 0
2, 566640, Note_on_c, 0, 74, 0
2, 566640, Note_on_c, 0, 62, 0
2, 566880, Note_on_c, 0, 97, 100
2, 566880, Note_on_c, 0, 99, 100
2, 566880, Note_on_c, 0, 85, 100
2, 566880, Note_on_c, 0, 87, 100
2, 567120, Note_on_c, 0, 97, 0
2, 567120, Note_on_c, 0, 99, 0
2, 567120, Note_on_c, 0, 85, 0
2, 567120, Note_on_c, 0, 87, 0
2, 567360, Note_on_c, 0, 97, 100
2, 567360, Note_on_c, 0, 99, 100
2, 567360, Note_on_c, 0, 85, 100
2, 567360, Note_on_c, 0, 87, 100
2, 567360, Note_on_c, 0, 75, 100
2, 567360, Note_on_c, 0, 74, 100
2, 567360, Note_on_c, 0, 62, 100
2, 567600, Note_on_c, 0, 97, 0
2, 567600, Note_on_c, 0, 99, 0
2, 567600, Note_on_c, 0, 85, 0
2, 567600, Note_on_c, 0, 87, 0
2, 567600, Note_on_c, 0, 75, 0
2, 567600, Note_on_c, 0, 74, 0
2, 567600, Note_on_c, 0, 62, 0
2, 567840, Note_on_c, 0, 97, 100
2, 567840, Note_on_c, 0, 99, 100
2, 567840, Note_on_c, 0, 85, 100
2, 567840, Note_on_c, 0, 87, 100
2, 568080, Note_on_c, 0, 97, 0
2, 568080, Note_on_c, 0, 99, 0
2, 568080, Note_on_c, 0, 85, 0
2, 568080, Note_on_c, 0, 87, 0
2, 568320, Note_on_c, 0, 97, 100
2, 568320, Note_on_c, 0, 99, 100
2, 568320, Note_on_c, 0, 85, 100
2, 568320, Note_on_c, 0, 87, 100
2, 568320, Note_on_c, 0, 75, 100
2, 568320, Note_on_c, 0, 74, 100
2, 568560, Note_on_c, 0, 97, 0
2, 568560, Note_on_c, 0, 99, 0
2, 568560, Note_on_c, 0, 85, 0
2, 568560, Note_on_c, 0, 87, 0
2, 568560, Note_on_c, 0, 75, 0
2, 568560, Note_on_c, 0, 74, 0
2, 568800, Note_on_c, 0, 97, 100
2, 568800, Note_on_c, 0, 99, 100
2, 568800, Note_on_c, 0, 85, 100
2, 568800, Note_on_c, 0, 87, 100
2, 569040, Note_on_c, 0, 97, 0
2, 569040, Note_on_c, 0, 99, 0
2, 569040, Note_on_c, 0, 85, 0
2, 569040, Note_on_c, 0, 87, 0
2, 569280, Note_on_c, 0, 97, 100
2, 569280, Note_on_c, 0, 99, 100
2, 569280, Note_on_c, 0, 85, 100
2, 569280, Note_on_c, 0, 87, 100
2, 569280, Note_on_c, 0, 75, 100
2, 569280, Note_on_c, 0, 74, 100
2, 569280, Note_on_c, 0, 62, 100
2, 569520, Note_on_c, 0, 97, 0
2, 569520, Note_on_c, 0, 99, 0
2, 569520, Note_on_c, 0, 85, 0
2, 569520, Note_on_c, 0, 87, 0
2, 569520, Note_on_c, 0, 75, 0
2, 569520, Note_on_c, 0, 74, 0
2, 569520, Note_on_c, 0, 62, 0
2, 569760, Note_on_c, 0, 97, 100
2, 569760, Note_on_c, 0, 99, 100
2, 569760, Note_on_c, 0, 85, 100
2, 569760, Note_on_c, 0, 87, 100
2, 569760, Note_on_c, 0, 75, 100
2, 569760, Note_on_c, 0, 74, 100
2, 570000, Note_on_c, 0, 97, 0
2, 570000, Note_on_c, 0, 99, 0
2, 570000, Note_on_c, 0, 85, 0
2, 570000, Note_on_c, 0, 87, 0
2, 570000, Note_on_c, 0, 75, 0
2, 570000, Note_on_c, 0, 74, 0
2, 570240, Note_on_c, 0, 97, 100
2, 570240, Note_on_c, 0, 99, 100
2, 570240, Note_on_c, 0, 85, 100
2, 570240, Note_on_c, 0, 87, 100
2, 570240, Note_on_c, 0, 75, 100
2, 570240, Note_on_c, 0, 74, 100
2, 570240, Note_on_c, 0, 62, 100
2, 570480, Note_on_c, 0, 97, 0
2, 570480, Note_on_c, 0, 99, 0
2, 570480, Note_on_c, 0, 85, 0
2, 570480, Note_on_c, 0, 87, 0
2, 570480, Note_on_c, 0, 75, 0
2, 570480, Note_on_c, 0, 74, 0
2, 570480, Note_on_c, 0, 62, 0
2, 570720, Note_on_c, 0, 97, 100
2, 570720, Note_on_c, 0, 99, 100
2, 570720, Note_on_c, 0, 85, 100
2, 570720, Note_on_c, 0, 87, 100
2, 570720, Note_on_c, 0, 75, 100
2, 570720, Note_on_c, 0, 74, 100
2, 570960, Note_on_c, 0, 97, 0
2, 570960, Note_on_c, 0, 99, 0
2, 570960, Note_on_c, 0, 85, 0
2, 570960, Note_on_c, 0, 87, 0
2, 570960, Note_on_c, 0, 75, 0
2, 570960, Note_on_c, 0, 74, 0
2, 571200, Note_on_c, 0, 97, 100
2, 571200, Note_on_c, 0, 99, 100
2, 571200, Note_on_c, 0, 85, 100
2, 571200, Note_on_c, 0, 87, 100
2, 571200, Note_on_c, 0, 75, 100
2, 571200, Note_on_c, 0, 74, 100
2, 571200, Note_on_c, 0, 62, 100
2, 571440, Note_on_c, 0, 97, 0
2, 571440, Note_on_c, 0, 99, 0
2, 571440, Note_on_c, 0, 85, 0
2, 571440, Note_on_c, 0, 87, 0
2, 571440, Note_on_c, 0, 75, 0
2, 571440, Note_on_c, 0, 74, 0
2, 571440, Note_on_c, 0, 62, 0
2, 571680, Note_on_c, 0, 97, 100
2, 571680, Note_on_c, 0, 99, 100
2, 571680, Note_on_c, 0, 85, 100
2, 571680, Note_on_c, 0, 87, 100
2, 571680, Note_on_c, 0, 75, 100
2, 571680, Note_on_c, 0, 74, 100
2, 571920, Note_on_c, 0, 97, 0
2, 571920, Note_on_c, 0, 99, 0
2, 571920, Note_on_c, 0, 85, 0
2, 571920, Note_on_c, 0, 87, 0
2, 571920, Note_on_c, 0, 75, 0
2, 571920, Note_on_c, 0, 74, 0
2, 572160, Note_on_c, 0, 97, 100
2, 572160, Note_on_c, 0, 99, 100
2, 572160, Note_on_c, 0, 85, 100
2, 572160, Note_on_c, 0, 87, 100
2, 572160, Note_on_c, 0, 75, 100
2, 572160, Note_on_c, 0, 74, 100
2, 572160, Note_on_c, 0, 62, 100
2, 572400, Note_on_c, 0, 97, 0
2, 572400, Note_on_c, 0, 99, 0
2, 572400, Note_on_c, 0, 85, 0
2, 572400, Note_on_c, 0, 87, 0
2, 572400, Note_on_c, 0, 75, 0
2, 572400, Note_on_c, 0, 74, 0
2, 572400, Note_on_c, 0, 62, 0
2, 572640, Note_on_c, 0, 97, 100
2, 572640, Note_on_c, 0, 99, 100
2, 572640, Note_on_c, 0, 85, 100
2, 572640, Note_on_c, 0, 87, 100
2, 572880, Note_on_c, 0, 97, 0
2, 572880, Note_on_c, 0, 99, 0
2, 572880, Note_on_c, 0, 85, 0
2, 572880, Note_on_c, 0, 87, 0
2, 573090, Note_on_c, 0, 106, 100
2, 573090, Note_on_c, 0, 94, 100
2, 573090, Note_on_c, 0, 70, 100
2, 573090, Note_on_c, 0, 82, 100
2, 573120, Note_on_c, 0, 98, 100
2, 573120, Note_on_c, 0, 99, 100
2, 573120, Note_on_c, 0, 86, 100
2, 573120, Note_on_c, 0, 87, 100
2, 573120, Note_on_c, 0, 73, 100
2, 573120, Note_on_c, 0, 61, 100
2, 573360, Note_on_c, 0, 98, 0
2, 573360, Note_on_c, 0, 99, 0
2, 573360, Note_on_c, 0, 86, 0
2, 573360, Note_on_c, 0, 87, 0
2, 573360, Note_on_c, 0, 73, 0
2, 573360, Note_on_c, 0, 61, 0
2, 573600, Note_on_c, 0, 98, 100
2, 573600, Note_on_c, 0, 99, 100
2, 573600, Note_on_c, 0, 86, 100
2, 573600, Note_on_c, 0, 87, 100
2, 573600, Note_on_c, 0, 73, 100
2, 573840, Note_on_c, 0, 98, 0
2, 573840, Note_on_c, 0, 99, 0
2, 573840, Note_on_c, 0, 86, 0
2, 573840, Note_on_c, 0, 87, 0
2, 573840, Note_on_c, 0, 73, 0
2, 574080, Note_on_c, 0, 98, 100
2, 574080, Note_on_c, 0, 99, 100
2, 574080, Note_on_c, 0, 86, 100
2, 574080, Note_on_c, 0, 87, 100
2, 574080, Note_on_c, 0, 73, 100
2, 574080, Note_on_c, 0, 61, 100
2, 574320, Note_on_c, 0, 98, 0
2, 574320, Note_on_c, 0, 99, 0
2, 574320, Note_on_c, 0, 86, 0
2, 574320, Note_on_c, 0, 87, 0
2, 574320, Note_on_c, 0, 73, 0
2, 574320, Note_on_c, 0, 61, 0
2, 574560, Note_on_c, 0, 98, 100
2, 574560, Note_on_c, 0, 99, 100
2, 574560, Note_on_c, 0, 86, 100
2, 574560, Note_on_c, 0, 87, 100
2, 574560, Note_on_c, 0, 73, 100
2, 574800, Note_on_c, 0, 98, 0
2, 574800, Note_on_c, 0, 99, 0
2, 574800, Note_on_c, 0, 86, 0
2, 574800, Note_on_c, 0, 87, 0
2, 574800, Note_on_c, 0, 73, 0
2, 575040, Note_on_c, 0, 98, 100
2, 575040, Note_on_c, 0, 99, 100
2, 575040, Note_on_c, 0, 86, 100
2, 575040, Note_on_c, 0, 87, 100
2, 575040, Note_on_c, 0, 73, 100
2, 575040, Note_on_c, 0, 61, 100
2, 575280, Note_on_c, 0, 98, 0
2, 575280, Note_on_c, 0, 99, 0
2, 575280, Note_on_c, 0, 86, 0
2, 575280, Note_on_c, 0, 87, 0
2, 575280, Note_on_c, 0, 73, 0
2, 575280, Note_on_c, 0, 61, 0
2, 575520, Note_on_c, 0, 98, 100
2, 575520, Note_on_c, 0, 99, 100
2, 575520, Note_on_c, 0, 86, 100
2, 575520, Note_on_c, 0, 87, 100
2, 575520, Note_on_c, 0, 73, 100
2, 575760, Note_on_c, 0, 98, 0
2, 575760, Note_on_c, 0, 99, 0
2, 575760, Note_on_c, 0, 86, 0
2, 575760, Note_on_c, 0, 87, 0
2, 575760, Note_on_c, 0, 73, 0
2, 576000, Note_on_c, 0, 98, 100
2, 576000, Note_on_c, 0, 99, 100
2, 576000, Note_on_c, 0, 86, 100
2, 576000, Note_on_c, 0, 87, 100
2, 576000, Note_on_c, 0, 73, 100
2, 576000, Note_on_c, 0, 61, 100
2, 576240, Note_on_c, 0, 98, 0
2, 576240, Note_on_c, 0, 99, 0
2, 576240, Note_on_c, 0, 86, 0
2, 576240, Note_on_c, 0, 87, 0
2, 576240, Note_on_c, 0, 73, 0
2, 576240, Note_on_c, 0, 61, 0
2, 576480, Note_on_c, 0, 98, 100
2, 576480, Note_on_c, 0, 99, 100
2, 576480, Note_on_c, 0, 86, 100
2, 576480, Note_on_c, 0, 87, 100
2, 576720, Note_on_c, 0, 98, 0
2, 576720, Note_on_c, 0, 99, 0
2, 576720, Note_on_c, 0, 86, 0
2, 576720, Note_on_c, 0, 87, 0
2, 576960, Note_on_c, 0, 98, 100
2, 576960, Note_on_c, 0, 99, 100
2, 576960, Note_on_c, 0, 86, 100
2, 576960, Note_on_c, 0, 87, 100
2, 576960, Note_on_c, 0, 73, 100
2, 576960, Note_on_c, 0, 61, 100
2, 577200, Note_on_c, 0, 98, 0
2, 577200, Note_on_c, 0, 99, 0
2, 577200, Note_on_c, 0, 86, 0
2, 577200, Note_on_c, 0, 87, 0
2, 577200, Note_on_c, 0, 73, 0
2, 577200, Note_on_c, 0, 61, 0
2, 577440, Note_on_c, 0, 98, 100
2, 577440, Note_on_c, 0, 99, 100
2, 577440, Note_on_c, 0, 86, 100
2, 577440, Note_on_c, 0, 87, 100
2, 577440, Note_on_c, 0, 73, 100
2, 577680, Note_on_c, 0, 98, 0
2, 577680, Note_on_c, 0, 99, 0
2, 577680, Note_on_c, 0, 86, 0
2, 577680, Note_on_c, 0, 87, 0
2, 577680, Note_on_c, 0, 73, 0
2, 577920, Note_on_c, 0, 98, 100
2, 577920, Note_on_c, 0, 99, 100
2, 577920, Note_on_c, 0, 86, 100
2, 577920, Note_on_c, 0, 87, 100
2, 577920, Note_on_c, 0, 73, 100
2, 577920, Note_on_c, 0, 61, 100
2, 578160, Note_on_c, 0, 98, 0
2, 578160, Note_on_c, 0, 99, 0
2, 578160, Note_on_c, 0, 86, 0
2, 578160, Note_on_c, 0, 87, 0
2, 578160, Note_on_c, 0, 73, 0
2, 578160, Note_on_c, 0, 61, 0
2, 578400, Note_on_c, 0, 98, 100
2, 578400, Note_on_c, 0, 99, 100
2, 578400, Note_on_c, 0, 86, 100
2, 578400, Note_on_c, 0, 87, 100
2, 578400, Note_on_c, 0, 73, 100
2, 578640, Note_on_c, 0, 98, 0
2, 578640, Note_on_c, 0, 99, 0
2, 578640, Note_on_c, 0, 86, 0
2, 578640, Note_on_c, 0, 87, 0
2, 578640, Note_on_c, 0, 73, 0
2, 578880, Note_on_c, 0, 98, 100
2, 578880, Note_on_c, 0, 99, 100
2, 578880, Note_on_c, 0, 86, 100
2, 578880, Note_on_c, 0, 87, 100
2, 578880, Note_on_c, 0, 73, 100
2, 578880, Note_on_c, 0, 61, 100
2, 579120, Note_on_c, 0, 98, 0
2, 579120, Note_on_c, 0, 99, 0
2, 579120, Note_on_c, 0, 86, 0
2, 579120, Note_on_c, 0, 87, 0
2, 579120, Note_on_c, 0, 73, 0
2, 579120, Note_on_c, 0, 61, 0
2, 579360, Note_on_c, 0, 100, 100
2, 579360, Note_on_c, 0, 98, 100
2, 579360, Note_on_c, 0, 85, 100
2, 579360, Note_on_c, 0, 87, 100
2, 579360, Note_on_c, 0, 74, 100
2, 579360, Note_on_c, 0, 60, 100
2, 579600, Note_on_c, 0, 100, 0
2, 579600, Note_on_c, 0, 98, 0
2, 579600, Note_on_c, 0, 85, 0
2, 579600, Note_on_c, 0, 87, 0
2, 579600, Note_on_c, 0, 74, 0
2, 579600, Note_on_c, 0, 60, 0
2, 579840, Note_on_c, 0, 100, 100
2, 579840, Note_on_c, 0, 98, 100
2, 579840, Note_on_c, 0, 85, 100
2, 579840, Note_on_c, 0, 87, 100
2, 579840, Note_on_c, 0, 74, 100
2, 580080, Note_on_c, 0, 100, 0
2, 580080, Note_on_c, 0, 98, 0
2, 580080, Note_on_c, 0, 85, 0
2, 580080, Note_on_c, 0, 87, 0
2, 580080, Note_on_c, 0, 74, 0
2, 580320, Note_on_c, 0, 100, 100
2, 580320, Note_on_c, 0, 98, 100
2, 580320, Note_on_c, 0, 85, 100
2, 580320, Note_on_c, 0, 87, 100
2, 580320, Note_on_c, 0, 74, 100
2, 580560, Note_on_c, 0, 100, 0
2, 580560, Note_on_c, 0, 98, 0
2, 580560, Note_on_c, 0, 85, 0
2, 580560, Note_on_c, 0, 87, 0
2, 580560, Note_on_c, 0, 74, 0
2, 580800, Note_on_c, 0, 100, 100
2, 580800, Note_on_c, 0, 99, 100
2, 580800, Note_on_c, 0, 88, 100
2, 580800, Note_on_c, 0, 75, 100
2, 580800, Note_on_c, 0, 62, 100
2, 581040, Note_on_c, 0, 100, 0
2, 581040, Note_on_c, 0, 99, 0
2, 581040, Note_on_c, 0, 88, 0
2, 581040, Note_on_c, 0, 75, 0
2, 581040, Note_on_c, 0, 62, 0
2, 581280, Note_on_c, 0, 100, 100
2, 581280, Note_on_c, 0, 99, 100
2, 581280, Note_on_c, 0, 88, 100
2, 581280, Note_on_c, 0, 75, 100
2, 581520, Note_on_c, 0, 100, 0
2, 581520, Note_on_c, 0, 99, 0
2, 581520, Note_on_c, 0, 88, 0
2, 581520, Note_on_c, 0, 75, 0
2, 581760, Note_on_c, 0, 100, 100
2, 581760, Note_on_c, 0, 99, 100
2, 581760, Note_on_c, 0, 88, 100
2, 581760, Note_on_c, 0, 75, 100
2, 581760, Note_on_c, 0, 62, 100
2, 582000, Note_on_c, 0, 100, 0
2, 582000, Note_on_c, 0, 99, 0
2, 582000, Note_on_c, 0, 88, 0
2, 582000, Note_on_c, 0, 75, 0
2, 582000, Note_on_c, 0, 62, 0
2, 582240, Note_on_c, 0, 100, 100
2, 582240, Note_on_c, 0, 99, 100
2, 582240, Note_on_c, 0, 88, 100
2, 582240, Note_on_c, 0, 75, 100
2, 582480, Note_on_c, 0, 100, 0
2, 582480, Note_on_c, 0, 99, 0
2, 582480, Note_on_c, 0, 88, 0
2, 582480, Note_on_c, 0, 75, 0
2, 582720, Note_on_c, 0, 100, 100
2, 582720, Note_on_c, 0, 99, 100
2, 582720, Note_on_c, 0, 88, 100
2, 582720, Note_on_c, 0, 75, 100
2, 582720, Note_on_c, 0, 62, 100
2, 582960, Note_on_c, 0, 100, 0
2, 582960, Note_on_c, 0, 99, 0
2, 582960, Note_on_c, 0, 88, 0
2, 582960, Note_on_c, 0, 75, 0
2, 582960, Note_on_c, 0, 62, 0
2, 583200, Note_on_c, 0, 100, 100
2, 583200, Note_on_c, 0, 99, 100
2, 583200, Note_on_c, 0, 88, 100
2, 583200, Note_on_c, 0, 75, 100
2, 583440, Note_on_c, 0, 100, 0
2, 583440, Note_on_c, 0, 99, 0
2, 583440, Note_on_c, 0, 88, 0
2, 583440, Note_on_c, 0, 75, 0
2, 583680, Note_on_c, 0, 100, 100
2, 583680, Note_on_c, 0, 99, 100
2, 583680, Note_on_c, 0, 88, 100
2, 583680, Note_on_c, 0, 75, 100
2, 583680, Note_on_c, 0, 62, 100
2, 583920, Note_on_c, 0, 100, 0
2, 583920, Note_on_c, 0, 99, 0
2, 583920, Note_on_c, 0, 88, 0
2, 583920, Note_on_c, 0, 75, 0
2, 583920, Note_on_c, 0, 62, 0
2, 584160, Note_on_c, 0, 100, 100
2, 584160, Note_on_c, 0, 99, 100
2, 584160, Note_on_c, 0, 88, 100
2, 584400, Note_on_c, 0, 100, 0
2, 584400, Note_on_c, 0, 99, 0
2, 584400, Note_on_c, 0, 88, 0
2, 584640, Note_on_c, 0, 100, 100
2, 584640, Note_on_c, 0, 99, 100
2, 584640, Note_on_c, 0, 88, 100
2, 584640, Note_on_c, 0, 75, 100
2, 584640, Note_on_c, 0, 62, 100
2, 584880, Note_on_c, 0, 100, 0
2, 584880, Note_on_c, 0, 99, 0
2, 584880, Note_on_c, 0, 88, 0
2, 584880, Note_on_c, 0, 75, 0
2, 584880, Note_on_c, 0, 62, 0
2, 585120, Note_on_c, 0, 100, 100
2, 585120, Note_on_c, 0, 99, 100
2, 585120, Note_on_c, 0, 88, 100
2, 585120, Note_on_c, 0, 75, 100
2, 585360, Note_on_c, 0, 100, 0
2, 585360, Note_on_c, 0, 99, 0
2, 585360, Note_on_c, 0, 88, 0
2, 585360, Note_on_c, 0, 75, 0
2, 585600, Note_on_c, 0, 100, 100
2, 585600, Note_on_c, 0, 99, 100
2, 585600, Note_on_c, 0, 88, 100
2, 585600, Note_on_c, 0, 75, 100
2, 585600, Note_on_c, 0, 62, 100
2, 585840, Note_on_c, 0, 100, 0
2, 585840, Note_on_c, 0, 99, 0
2, 585840, Note_on_c, 0, 88, 0
2, 585840, Note_on_c, 0, 75, 0
2, 585840, Note_on_c, 0, 62, 0
2, 586080, Note_on_c, 0, 100, 100
2, 586080, Note_on_c, 0, 99, 100
2, 586080, Note_on_c, 0, 88, 100
2, 586080, Note_on_c, 0, 75, 100
2, 586320, Note_on_c, 0, 100, 0
2, 586320, Note_on_c, 0, 99, 0
2, 586320, Note_on_c, 0, 88, 0
2, 586320, Note_on_c, 0, 75, 0
2, 586560, Note_on_c, 0, 100, 100
2, 586560, Note_on_c, 0, 99, 100
2, 586560, Note_on_c, 0, 88, 100
2, 586560, Note_on_c, 0, 75, 100
2, 586560, Note_on_c, 0, 62, 100
2, 586800, Note_on_c, 0, 100, 0
2, 586800, Note_on_c, 0, 99, 0
2, 586800, Note_on_c, 0, 88, 0
2, 586800, Note_on_c, 0, 75, 0
2, 586800, Note_on_c, 0, 62, 0
2, 587040, Note_on_c, 0, 100, 100
2, 587040, Note_on_c, 0, 99, 100
2, 587040, Note_on_c, 0, 88, 100
2, 587040, Note_on_c, 0, 75, 100
2, 587280, Note_on_c, 0, 100, 0
2, 587280, Note_on_c, 0, 99, 0
2, 587280, Note_on_c, 0, 88, 0
2, 587280, Note_on_c, 0, 75, 0
2, 587520, Note_on_c, 0, 100, 100
2, 587520, Note_on_c, 0, 99, 100
2, 587520, Note_on_c, 0, 88, 100
2, 587520, Note_on_c, 0, 75, 100
2, 587520, Note_on_c, 0, 62, 100
2, 587760, Note_on_c, 0, 100, 0
2, 587760, Note_on_c, 0, 99, 0
2, 587760, Note_on_c, 0, 88, 0
2, 587760, Note_on_c, 0, 75, 0
2, 587760, Note_on_c, 0, 62, 0
2, 588000, Note_on_c, 0, 100, 100
2, 588000, Note_on_c, 0, 99, 100
2, 588000, Note_on_c, 0, 88, 100
2, 588240, Note_on_c, 0, 100, 0
2, 588240, Note_on_c, 0, 99, 0
2, 588240, Note_on_c, 0, 88, 0
2, 588450, Note_on_c, 0, 105, 0
2, 588450, Note_on_c, 0, 93, 0
2, 588450, Note_on_c, 0, 69, 0
2, 588450, Note_on_c, 0, 81, 0
2, 588480, Note_on_c, 0, 100, 100
2, 588480, Note_on_c, 0, 98, 100
2, 588480, Note_on_c, 0, 88, 100
2, 588480, Note_on_c, 0, 75, 100
2, 588480, Note_on_c, 0, 61, 100
2, 588480, Note_on_c, 0, 74, 100
2, 588480, Note_on_c, 0, 87, 100
2, 588720, Note_on_c, 0, 100, 0
2, 588720, Note_on_c, 0, 98, 0
2, 588720, Note_on_c, 0, 88, 0
2, 588720, Note_on_c, 0, 75, 0
2, 588720, Note_on_c, 0, 61, 0
2, 588720, Note_on_c, 0, 74, 0
2, 588720, Note_on_c, 0, 87, 0
2, 588960, Note_on_c, 0, 100, 100
2, 588960, Note_on_c, 0, 98, 100
2, 588960, Note_on_c, 0, 88, 100
2, 588960, Note_on_c, 0, 75, 100
2, 588960, Note_on_c, 0, 61, 100
2, 588960, Note_on_c, 0, 74, 100
2, 588960, Note_on_c, 0, 87, 100
2, 589200, Note_on_c, 0, 100, 0
2, 589200, Note_on_c, 0, 98, 0
2, 589200, Note_on_c, 0, 88, 0
2, 589200, Note_on_c, 0, 75, 0
2, 589200, Note_on_c, 0, 61, 0
2, 589200, Note_on_c, 0, 74, 0
2, 589200, Note_on_c, 0, 87, 0
2, 589410, Note_on_c, 0, 106, 0
2, 589410, Note_on_c, 0, 94, 0
2, 589410, Note_on_c, 0, 70, 0
2, 589410, Note_on_c, 0, 82, 0
2, 589410, Note_on_c, 0, 105, 100
2, 589410, Note_on_c, 0, 93, 100
2, 589410, Note_on_c, 0, 69, 100
2, 589410, Note_on_c, 0, 81, 100
2, 589440, Note_on_c, 0, 100, 100
2, 589440, Note_on_c, 0, 98, 100
2, 589440, Note_on_c, 0, 88, 100
2, 589440, Note_on_c, 0, 75, 100
2, 589440, Note_on_c, 0, 61, 100
2, 589440, Note_on_c, 0, 74, 100
2, 589440, Note_on_c, 0, 87, 100
2, 589680, Note_on_c, 0, 100, 0
2, 589680, Note_on_c, 0, 98, 0
2, 589680, Note_on_c, 0, 88, 0
2, 589680, Note_on_c, 0, 75, 0
2, 589680, Note_on_c, 0, 61, 0
2, 589680, Note_on_c, 0, 74, 0
2, 589680, Note_on_c, 0, 87, 0
2, 589920, Note_on_c, 0, 100, 100
2, 589920, Note_on_c, 0, 98, 100
2, 589920, Note_on_c, 0, 88, 100
2, 589920, Note_on_c, 0, 87, 100
2, 590160, Note_on_c, 0, 100, 0
2, 590160, Note_on_c, 0, 98, 0
2, 590160, Note_on_c, 0, 88, 0
2, 590160, Note_on_c, 0, 87, 0
2, 590370, Note_on_c, 0, 105, 0
2, 590370, Note_on_c, 0, 93, 0
2, 590370, Note_on_c, 0, 69, 0
2, 590370, Note_on_c, 0, 81, 0
2, 590370, Note_on_c, 0, 106, 100
2, 590370, Note_on_c, 0, 94, 100
2, 590370, Note_on_c, 0, 70, 100
2, 590370, Note_on_c, 0, 82, 100
2, 590400, Note_on_c, 0, 100, 100
2, 590400, Note_on_c, 0, 98, 100
2, 590400, Note_on_c, 0, 88, 100
2, 590400, Note_on_c, 0, 75, 100
2, 590400, Note_on_c, 0, 61, 100
2, 590400, Note_on_c, 0, 74, 100
2, 590400, Note_on_c, 0, 87, 100
2, 590640, Note_on_c, 0, 100, 0
2, 590640, Note_on_c, 0, 98, 0
2, 590640, Note_on_c, 0, 88, 0
2, 590640, Note_on_c, 0, 75, 0
2, 590640, Note_on_c, 0, 61, 0
2, 590640, Note_on_c, 0, 74, 0
2, 590640, Note_on_c, 0, 87, 0
2, 590880, Note_on_c, 0, 100, 100
2, 590880, Note_on_c, 0, 98, 100
2, 590880, Note_on_c, 0, 88, 100
2, 590880, Note_on_c, 0, 75, 100
2, 590880, Note_on_c, 0, 61, 100
2, 590880, Note_on_c, 0, 74, 100
2, 590880, Note_on_c, 0, 87, 100
2, 591120, Note_on_c, 0, 100, 0
2, 591120, Note_on_c, 0, 98, 0
2, 591120, Note_on_c, 0, 88, 0
2, 591120, Note_on_c, 0, 75, 0
2, 591120, Note_on_c, 0, 61, 0
2, 591120, Note_on_c, 0, 74, 0
2, 591120, Note_on_c, 0, 87, 0
2, 591330, Note_on_c, 0, 106, 0
2, 591330, Note_on_c, 0, 94, 0
2, 591330, Note_on_c, 0, 70, 0
2, 591330, Note_on_c, 0, 82, 0
2, 591330, Note_on_c, 0, 105, 100
2, 591330, Note_on_c, 0, 93, 100
2, 591330, Note_on_c, 0, 69, 100
2, 591330, Note_on_c, 0, 81, 100
2, 591360, Note_on_c, 0, 100, 100
2, 591360, Note_on_c, 0, 98, 100
2, 591360, Note_on_c, 0, 88, 100
2, 591360, Note_on_c, 0, 75, 100
2, 591360, Note_on_c, 0, 61, 100
2, 591360, Note_on_c, 0, 74, 100
2, 591360, Note_on_c, 0, 87, 100
2, 591600, Note_on_c, 0, 100, 0
2, 591600, Note_on_c, 0, 98, 0
2, 591600, Note_on_c, 0, 88, 0
2, 591600, Note_on_c, 0, 75, 0
2, 591600, Note_on_c, 0, 61, 0
2, 591600, Note_on_c, 0, 74, 0
2, 591600, Note_on_c, 0, 87, 0
2, 591840, Note_on_c, 0, 100, 100
2, 591840, Note_on_c, 0, 98, 100
2, 591840, Note_on_c, 0, 88, 100
2, 591840, Note_on_c, 0, 87, 100
2, 592080, Note_on_c, 0, 100, 0
2, 592080, Note_on_c, 0, 98, 0
2, 592080, Note_on_c, 0, 88, 0
2, 592080, Note_on_c, 0, 87, 0
2, 592290, Note_on_c, 0, 105, 0
2, 592290, Note_on_c, 0, 93, 0
2, 592290, Note_on_c, 0, 69, 0
2, 592290, Note_on_c, 0, 81, 0
2, 592290, Note_on_c, 0, 106, 100
2, 592290, Note_on_c, 0, 94, 100
2, 592290, Note_on_c, 0, 70, 100
2, 592290, Note_on_c, 0, 82, 100
2, 592320, Note_on_c, 0, 100, 100
2, 592320, Note_on_c, 0, 98, 100
2, 592320, Note_on_c, 0, 88, 100
2, 592320, Note_on_c, 0, 75, 100
2, 592320, Note_on_c, 0, 61, 100
2, 592320, Note_on_c, 0, 74, 100
2, 592320, Note_on_c, 0, 87, 100
2, 592560, Note_on_c, 0, 100, 0
2, 592560, Note_on_c, 0, 98, 0
2, 592560, Note_on_c, 0, 88, 0
2, 592560, Note_on_c, 0, 75, 0
2, 592560, Note_on_c, 0, 61, 0
2, 592560, Note_on_c, 0, 74, 0
2, 592560, Note_on_c, 0, 87, 0
2, 592800, Note_on_c, 0, 100, 100
2, 592800, Note_on_c, 0, 98, 100
2, 592800, Note_on_c, 0, 88, 100
2, 592800, Note_on_c, 0, 75, 100
2, 592800, Note_on_c, 0, 61, 100
2, 592800, Note_on_c, 0, 74, 100
2, 592800, Note_on_c, 0, 87, 100
2, 593040, Note_on_c, 0, 100, 0
2, 593040, Note_on_c, 0, 98, 0
2, 593040, Note_on_c, 0, 88, 0
2, 593040, Note_on_c, 0, 75, 0
2, 593040, Note_on_c, 0, 61, 0
2, 593040, Note_on_c, 0, 74, 0
2, 593040, Note_on_c, 0, 87, 0
2, 593250, Note_on_c, 0, 106, 0
2, 593250, Note_on_c, 0, 94, 0
2, 593250, Note_on_c, 0, 70, 0
2, 593250, Note_on_c, 0, 82, 0
2, 593250, Note_on_c, 0, 105, 100
2, 593250, Note_on_c, 0, 93, 100
2, 593250, Note_on_c, 0, 69, 100
2, 593250, Note_on_c, 0, 81, 100
2, 593280, Note_on_c, 0, 100, 100
2, 593280, Note_on_c, 0, 98, 100
2, 593280, Note_on_c, 0, 88, 100
2, 593280, Note_on_c, 0, 75, 100
2, 593280, Note_on_c, 0, 61, 100
2, 593280, Note_on_c, 0, 74, 100
2, 593280, Note_on_c, 0, 87, 100
2, 593520, Note_on_c, 0, 100, 0
2, 593520, Note_on_c, 0, 98, 0
2, 593520, Note_on_c, 0, 88, 0
2, 593520, Note_on_c, 0, 75, 0
2, 593520, Note_on_c, 0, 61, 0
2, 593520, Note_on_c, 0, 74, 0
2, 593520, Note_on_c, 0, 87, 0
2, 593760, Note_on_c, 0, 100, 100
2, 593760, Note_on_c, 0, 98, 100
2, 593760, Note_on_c, 0, 88, 100
2, 593760, Note_on_c, 0, 87, 100
2, 594000, Note_on_c, 0, 100, 0
2, 594000, Note_on_c, 0, 98, 0
2, 594000, Note_on_c, 0, 88, 0
2, 594000, Note_on_c, 0, 87, 0
2, 594210, Note_on_c, 0, 105, 0
2, 594210, Note_on_c, 0, 93, 0
2, 594210, Note_on_c, 0, 69, 0
2, 594210, Note_on_c, 0, 81, 0
2, 594210, Note_on_c, 0, 106, 100
2, 594210, Note_on_c, 0, 94, 100
2, 594210, Note_on_c, 0, 70, 100
2, 594210, Note_on_c, 0, 82, 100
2, 594240, Note_on_c, 0, 100, 100
2, 594240, Note_on_c, 0, 98, 100
2, 594240, Note_on_c, 0, 88, 100
2, 594240, Note_on_c, 0, 75, 100
2, 594240, Note_on_c, 0, 61, 100
2, 594240, Note_on_c, 0, 74, 100
2, 594240, Note_on_c, 0, 87, 100
2, 594480, Note_on_c, 0, 100, 0
2, 594480, Note_on_c, 0, 98, 0
2, 594480, Note_on_c, 0, 88, 0
2, 594480, Note_on_c, 0, 75, 0
2, 594480, Note_on_c, 0, 61, 0
2, 594480, Note_on_c, 0, 74, 0
2, 594480, Note_on_c, 0, 87, 0
2, 594720, Note_on_c, 0, 100, 100
2, 594720, Note_on_c, 0, 97, 100
2, 594720, Note_on_c, 0, 88, 100
2, 594720, Note_on_c, 0, 75, 100
2, 594720, Note_on_c, 0, 61, 100
2, 594720, Note_on_c, 0, 73, 100
2, 594720, Note_on_c, 0, 86, 100
2, 594960, Note_on_c, 0, 100, 0
2, 594960, Note_on_c, 0, 97, 0
2, 594960, Note_on_c, 0, 88, 0
2, 594960, Note_on_c, 0, 75, 0
2, 594960, Note_on_c, 0, 61, 0
2, 594960, Note_on_c, 0, 73, 0
2, 594960, Note_on_c, 0, 86, 0
2, 595170, Note_on_c, 0, 106, 0
2, 595170, Note_on_c, 0, 94, 0
2, 595170, Note_on_c, 0, 70, 0
2, 595170, Note_on_c, 0, 82, 0
2, 595170, Note_on_c, 0, 105, 100
2, 595170, Note_on_c, 0, 93, 100
2, 595170, Note_on_c, 0, 69, 100
2, 595170, Note_on_c, 0, 81, 100
2, 595200, Note_on_c, 0, 100, 100
2, 595200, Note_on_c, 0, 97, 100
2, 595200, Note_on_c, 0, 88, 100
2, 595200, Note_on_c, 0, 75, 100
2, 595200, Note_on_c, 0, 61, 100
2, 595200, Note_on_c, 0, 73, 100
2, 595200, Note_on_c, 0, 86, 100
2, 595440, Note_on_c, 0, 100, 0
2, 595440, Note_on_c, 0, 97, 0
2, 595440, Note_on_c, 0, 88, 0
2, 595440, Note_on_c, 0, 75, 0
2, 595440, Note_on_c, 0, 61, 0
2, 595440, Note_on_c, 0, 73, 0
2, 595440, Note_on_c, 0, 86, 0
2, 595680, Note_on_c, 0, 100, 100
2, 595680, Note_on_c, 0, 97, 100
2, 595680, Note_on_c, 0, 88, 100
2, 595680, Note_on_c, 0, 86, 100
2, 595920, Note_on_c, 0, 100, 0
2, 595920, Note_on_c, 0, 97, 0
2, 595920, Note_on_c, 0, 88, 0
2, 595920, Note_on_c, 0, 86, 0
2, 596130, Text_t, "[solo]"
2, 596130, Note_on_c, 0, 105, 0
2, 596130, Note_on_c, 0, 93, 0
2, 596130, Note_on_c, 0, 69, 0
2, 596130, Note_on_c, 0, 81, 0
2, 596130, Note_on_c, 0, 106, 100
2, 596130, Note_on_c, 0, 94, 100
2, 596130, Note_on_c, 0, 70, 100
2, 596130, Note_on_c, 0, 82, 100
2, 596160, Note_on_c, 0, 100, 100
2, 596160, Note_on_c, 0, 97, 100
2, 596160, Note_on_c, 0, 88, 100
2, 596160, Note_on_c, 0, 75, 100
2, 596160, Note_on_c, 0, 73, 100
2, 596160, Note_on_c, 0, 86, 100
2, 596160, Note_on_c, 0, 60, 100
2, 596400, Note_on_c, 0, 100, 0
2, 596400, Note_on_c, 0, 97, 0
2, 596400, Note_on_c, 0, 88, 0
2, 596400, Note_on_c, 0, 75, 0
2, 596400, Note_on_c, 0, 73, 0
2, 596400, Note_on_c, 0, 86, 0
2, 596400, Note_on_c, 0, 60, 0
2, 596640, Note_on_c, 0, 100, 100
2, 596640, Note_on_c, 0, 97, 100
2, 596640, Note_on_c, 0, 88, 100
2, 596640, Note_on_c, 0, 75, 100
2, 596640, Note_on_c, 0, 73, 100
2, 596640, Note_on_c, 0, 86, 100
2, 596640, Note_on_c, 0, 60, 100
2, 596880, Note_on_c, 0, 100, 0
2, 596880, Note_on_c, 0, 97, 0
2, 596880, Note_on_c, 0, 88, 0
2, 596880, Note_on_c, 0, 75, 0
2, 596880, Note_on_c, 0, 73, 0
2, 596880, Note_on_c, 0, 86, 0
2, 596880, Note_on_c, 0, 60, 0
2, 597090, Note_on_c, 0, 106, 0
2, 597090, Note_on_c, 0, 94, 0
2, 597090, Note_on_c, 0, 70, 0
2, 597090, Note_on_c, 0, 82, 0
2, 597090, Note_on_c, 0, 105, 100
2, 597090, Note_on_c, 0, 93, 100
2, 597090, Note_on_c, 0, 69, 100
2, 597090, Note_on_c, 0, 81, 100
2, 597120, Note_on_c, 0, 100, 100
2, 597120, Note_on_c, 0, 97, 100
2, 597120, Note_on_c, 0, 88, 100
2, 597120, Note_on_c, 0, 75, 100
2, 597120, Note_on_c, 0, 73, 100
2, 597120, Note_on_c, 0, 86, 100
2, 597120, Note_on_c, 0, 60, 100
2, 597360, Note_on_c, 0, 100, 0
2, 597360, Note_on_c, 0, 97, 0
2, 597360, Note_on_c, 0, 88, 0
2, 597360, Note_on_c, 0, 75, 0
2, 597360, Note_on_c, 0, 73, 0
2, 597360, Note_on_c, 0, 86, 0
2, 597360, Note_on_c, 0, 60, 0
2, 597600, Note_on_c, 0, 100, 100
2, 597600, Note_on_c, 0, 97, 100
2, 597600, Note_on_c, 0, 88, 100
2, 597600, Note_on_c, 0, 86, 100
2, 597840, Note_on_c, 0, 100, 0
2, 597840, Note_on_c, 0, 97, 0
2, 597840, Note_on_c, 0, 88, 0
2, 597840, Note_on_c, 0, 86, 0
2, 598050, Note_on_c, 0, 105, 0
2, 598050, Note_on_c, 0, 93, 0
2, 598050, Note_on_c, 0, 69, 0
2, 598050, Note_on_c, 0, 81, 0
2, 598050, Note_on_c, 0, 106, 100
2, 598050, Note_on_c, 0, 94, 100
2, 598050, Note_on_c, 0, 70, 100
2, 598050, Note_on_c, 0, 82, 100
2, 598080, Note_on_c, 0, 100, 100
2, 598080, Note_on_c, 0, 97, 100
2, 598080, Note_on_c, 0, 88, 100
2, 598080, Note_on_c, 0, 75, 100
2, 598080, Note_on_c, 0, 73, 100
2, 598080, Note_on_c, 0, 86, 100
2, 598080, Note_on_c, 0, 60, 100
2, 598320, Note_on_c, 0, 100, 0
2, 598320, Note_on_c, 0, 97, 0
2, 598320, Note_on_c, 0, 88, 0
2, 598320, Note_on_c, 0, 75, 0
2, 598320, Note_on_c, 0, 73, 0
2, 598320, Note_on_c, 0, 86, 0
2, 598320, Note_on_c, 0, 60, 0
2, 598560, Note_on_c, 0, 100, 100
2, 598560, Note_on_c, 0, 97, 100
2, 598560, Note_on_c, 0, 88, 100
2, 598560, Note_on_c, 0, 75, 100
2, 598560, Note_on_c, 0, 73, 100
2, 598560, Note_on_c, 0, 86, 100
2, 598560, Note_on_c, 0, 60, 100
2, 598800, Note_on_c, 0, 100, 0
2, 598800, Note_on_c, 0, 97, 0
2, 598800, Note_on_c, 0, 88, 0
2, 598800, Note_on_c, 0, 75, 0
2, 598800, Note_on_c, 0, 73, 0
2, 598800, Note_on_c, 0, 86, 0
2, 598800, Note_on_c, 0, 60, 0
2, 599010, Note_on_c, 0, 106, 0
2, 599010, Note_on_c, 0, 94, 0
2, 599010, Note_on_c, 0, 70, 0
2, 599010, Note_on_c, 0, 82, 0
2, 599010, Note_on_c, 0, 105, 100
2, 599010, Note_on_c, 0, 93, 100
2, 599010, Note_on_c, 0, 69, 100
2, 599010, Note_on_c, 0, 81, 100
2, 599040, Note_on_c, 0, 100, 100
2, 599040, Note_on_c, 0, 97, 100
2, 599040, Note_on_c, 0, 88, 100
2, 599040, Note_on_c, 0, 75, 100
2, 599040, Note_on_c, 0, 73, 100
2, 599040, Note_on_c, 0, 86, 100
2, 599040, Note_on_c, 0, 60, 100
2, 599280, Note_on_c, 0, 100, 0
2, 599280, Note_on_c, 0, 97, 0
2, 599280, Note_on_c, 0, 88, 0
2, 599280, Note_on_c, 0, 75, 0
2, 599280, Note_on_c, 0, 73, 0
2, 599280, Note_on_c, 0, 86, 0
2, 599280, Note_on_c, 0, 60, 0
2, 599520, Note_on_c, 0, 100, 100
2, 599520, Note_on_c, 0, 97, 100
2, 599520, Note_on_c, 0, 88, 100
2, 599520, Note_on_c, 0, 86, 100
2, 599760, Note_on_c, 0, 100, 0
2, 599760, Note_on_c, 0, 97, 0
2, 599760, Note_on_c, 0, 88, 0
2, 599760, Note_on_c, 0, 86, 0
2, 599970, Note_on_c, 0, 105, 0
2, 599970, Note_on_c, 0, 93, 0
2, 599970, Note_on_c, 0, 69, 0
2, 599970, Note_on_c, 0, 81, 0
2, 599970, Note_on_c, 0, 106, 100
2, 599970, Note_on_c, 0, 94, 100
2, 599970, Note_on_c, 0, 70, 100
2, 599970, Note_on_c, 0, 82, 100
2, 600000, Note_on_c, 0, 100, 100
2, 600000, Note_on_c, 0, 97, 100
2, 600000, Note_on_c, 0, 88, 100
2, 600000, Note_on_c, 0, 75, 100
2, 600000, Note_on_c, 0, 73, 100
2, 600000, Note_on_c, 0, 86, 100
2, 600000, Note_on_c, 0, 60, 100
2, 600240, Note_on_c, 0, 100, 0
2, 600240, Note_on_c, 0, 97, 0
2, 600240, Note_on_c, 0, 88, 0
2, 600240, Note_on_c, 0, 75, 0
2, 600240, Note_on_c, 0, 73, 0
2, 600240, Note_on_c, 0, 86, 0
2, 600240, Note_on_c, 0, 60, 0
2, 600480, Note_on_c, 0, 100, 100
2, 600480, Note_on_c, 0, 97, 100
2, 600480, Note_on_c, 0, 88, 100
2, 600480, Note_on_c, 0, 75, 100
2, 600480, Note_on_c, 0, 73, 100
2, 600480, Note_on_c, 0, 86, 100
2, 600480, Note_on_c, 0, 60, 100
2, 600720, Note_on_c, 0, 100, 0
2, 600720, Note_on_c, 0, 97, 0
2, 600720, Note_on_c, 0, 88, 0
2, 600720, Note_on_c, 0, 75, 0
2, 600720, Note_on_c, 0, 73, 0
2, 600720, Note_on_c, 0, 86, 0
2, 600720, Note_on_c, 0, 60, 0
2, 600930, Note_on_c, 0, 106, 0
2, 600930, Note_on_c, 0, 94, 0
2, 600930, Note_on_c, 0, 70, 0
2, 600930, Note_on_c, 0, 82, 0
2, 600930, Note_on_c, 0, 105, 100
2, 600930, Note_on_c, 0, 93, 100
2, 600930, Note_on_c, 0, 69, 100
2, 600930, Note_on_c, 0, 81, 100
2, 600960, Note_on_c, 0, 100, 100
2, 600960, Note_on_c, 0, 97, 100
2, 600960, Note_on_c, 0, 88, 100
2, 600960, Note_on_c, 0, 75, 100
2, 600960, Note_on_c, 0, 73, 100
2, 600960, Note_on_c, 0, 86, 100
2, 600960, Note_on_c, 0, 60, 100
2, 601200, Note_on_c, 0, 100, 0
2, 601200, Note_on_c, 0, 97, 0
2, 601200, Note_on_c, 0, 88, 0
2, 601200, Note_on_c, 0, 75, 0
2, 601200, Note_on_c, 0, 73, 0
2, 601200, Note_on_c, 0, 86, 0
2, 601200, Note_on_c, 0, 60, 0
2, 601440, Note_on_c, 0, 100, 100
2, 601440, Note_on_c, 0, 97, 100
2, 601440, Note_on_c, 0, 88, 100
2, 601440, Note_on_c, 0, 86, 100
2, 601680, Note_on_c, 0, 100, 0
2, 601680, Note_on_c, 0, 97, 0
2, 601680, Note_on_c, 0, 88, 0
2, 601680, Note_on_c, 0, 86, 0
2, 601890, Note_on_c, 0, 105, 0
2, 601890, Note_on_c, 0, 93, 0
2, 601890, Note_on_c, 0, 69, 0
2, 601890, Note_on_c, 0, 81, 0
2, 601890, Note_on_c, 0, 106, 100
2, 601890, Note_on_c, 0, 94, 100
2, 601890, Note_on_c, 0, 70, 100
2, 601890, Note_on_c, 0, 82, 100
2, 601920, Note_on_c, 0, 100, 100
2, 601920, Note_on_c, 0, 97, 100
2, 601920, Note_on_c, 0, 88, 100
2, 601920, Note_on_c, 0, 75, 100
2, 601920, Note_on_c, 0, 73, 100
2, 601920, Note_on_c, 0, 86, 100
2, 601920, Note_on_c, 0, 60, 100
2, 602160, Note_on_c, 0, 100, 0
2, 602160, Note_on_c, 0, 97, 0
2, 602160, Note_on_c, 0, 88, 0
2, 602160, Note_on_c, 0, 75, 0
2, 602160, Note_on_c, 0, 73, 0
2, 602160, Note_on_c, 0, 86, 0
2, 602160, Note_on_c, 0, 60, 0
2, 602400, Note_on_c, 0, 100, 100
2, 602400, Note_on_c, 0, 97, 100
2, 602400, Note_on_c, 0, 88, 100
2, 602400, Note_on_c, 0, 75, 100
2, 602400, Note_on_c, 0, 73, 100
2, 602400, Note_on_c, 0, 86, 100
2, 602400, Note_on_c, 0, 60, 100
2, 602640, Note_on_c, 0, 100, 0
2, 602640, Note_on_c, 0, 97, 0
2, 602640, Note_on_c, 0, 88, 0
2, 602640, Note_on_c, 0, 75, 0
2, 602640, Note_on_c, 0, 73, 0
2, 602640, Note_on_c, 0, 86, 0
2, 602640, Note_on_c, 0, 60, 0
2, 602850, Note_on_c, 0, 106, 0
2, 602850, Note_on_c, 0, 94, 0
2, 602850, Note_on_c, 0, 70, 0
2, 602850, Note_on_c, 0, 82, 0
2, 602850, Note_on_c, 0, 105, 100
2, 602850, Note_on_c, 0, 93, 100
2, 602850, Note_on_c, 0, 69, 100
2, 602850, Note_on_c, 0, 81, 100
2, 602880, Note_on_c, 0, 100, 100
2, 602880, Note_on_c, 0, 97, 100
2, 602880, Note_on_c, 0, 88, 100
2, 602880, Note_on_c, 0, 75, 100
2, 602880, Note_on_c, 0, 73, 100
2, 602880, Note_on_c, 0, 86, 100
2, 602880, Note_on_c, 0, 60, 100
2, 603120, Note_on_c, 0, 100, 0
2, 603120, Note_on_c, 0, 97, 0
2, 603120, Note_on_c, 0, 88, 0
2, 603120, Note_on_c, 0, 75, 0
2, 603120, Note_on_c, 0, 73, 0
2, 603120, Note_on_c, 0, 86, 0
2, 603120, Note_on_c, 0, 60, 0
2, 603360, Note_on_c, 0, 98, 100
2, 603360, Note_on_c, 0, 86, 100
2, 603360, Note_on_c, 0, 73, 100
2, 603360, Note_on_c, 0, 99, 100
2, 603360, Note_on_c, 0, 87, 100
2, 603360, Note_on_c, 0, 74, 100
2, 603600, Note_on_c, 0, 98, 0
2, 603600, Note_on_c, 0, 86, 0
2, 603600, Note_on_c, 0, 73, 0
2, 603600, Note_on_c, 0, 99, 0
2, 603600, Note_on_c, 0, 87, 0
2, 603600, Note_on_c, 0, 74, 0
2, 603810, Note_on_c, 0, 106, 100
2, 603810, Note_on_c, 0, 94, 100
2, 603810, Note_on_c, 0, 70, 100
2, 603810, Note_on_c, 0, 82, 100
2, 603840, Note_on_c, 0, 98, 100
2, 603840, Note_on_c, 0, 86, 100
2, 603840, Note_on_c, 0, 73, 100
2, 603840, Note_on_c, 0, 99, 100
2, 603840, Note_on_c, 0, 87, 100
2, 603840, Note_on_c, 0, 74, 100
2, 603840, Note_on_c, 0, 62, 100
2, 604080, Note_on_c, 0, 98, 0
2, 604080, Note_on_c, 0, 86, 0
2, 604080, Note_on_c, 0, 73, 0
2, 604080, Note_on_c, 0, 99, 0
2, 604080, Note_on_c, 0, 87, 0
2, 604080, Note_on_c, 0, 74, 0
2, 604080, Note_on_c, 0, 62, 0
2, 604320, Note_on_c, 0, 86, 100
2, 604320, Note_on_c, 0, 98, 100
2, 604320, Note_on_c, 0, 73, 100
2, 604320, Note_on_c, 0, 99, 100
2, 604320, Note_on_c, 0, 87, 100
2, 604320, Note_on_c, 0, 74, 100
2, 604320, Note_on_c, 0, 62, 100
2, 604560, Note_on_c, 0, 86, 0
2, 604560, Note_on_c, 0, 98, 0
2, 604560, Note_on_c, 0, 73, 0
2, 604560, Note_on_c, 0, 99, 0
2, 604560, Note_on_c, 0, 87, 0
2, 604560, Note_on_c, 0, 74, 0
2, 604560, Note_on_c, 0, 62, 0
2, 604800, Note_on_c, 0, 86, 100
2, 604800, Note_on_c, 0, 98, 100
2, 604800, Note_on_c, 0, 73, 100
2, 604800, Note_on_c, 0, 99, 100
2, 604800, Note_on_c, 0, 87, 100
2, 604800, Note_on_c, 0, 74, 100
2, 604800, Note_on_c, 0, 62, 100
2, 605040, Note_on_c, 0, 86, 0
2, 605040, Note_on_c, 0, 98, 0
2, 605040, Note_on_c, 0, 73, 0
2, 605040, Note_on_c, 0, 99, 0
2, 605040, Note_on_c, 0, 87, 0
2, 605040, Note_on_c, 0, 74, 0
2, 605040, Note_on_c, 0, 62, 0
2, 605280, Note_on_c, 0, 98, 100
2, 605280, Note_on_c, 0, 73, 100
2, 605280, Note_on_c, 0, 99, 100
2, 605280, Note_on_c, 0, 86, 100
2, 605280, Note_on_c, 0, 87, 100
2, 605280, Note_on_c, 0, 74, 100
2, 605520, Note_on_c, 0, 98, 0
2, 605520, Note_on_c, 0, 73, 0
2, 605520, Note_on_c, 0, 99, 0
2, 605520, Note_on_c, 0, 86, 0
2, 605520, Note_on_c, 0, 87, 0
2, 605520, Note_on_c, 0, 74, 0
2, 605760, Note_on_c, 0, 99, 100
2, 605760, Note_on_c, 0, 98, 100
2, 605760, Note_on_c, 0, 86, 100
2, 605760, Note_on_c, 0, 87, 100
2, 605760, Note_on_c, 0, 74, 100
2, 605760, Note_on_c, 0, 73, 100
2, 605760, Note_on_c, 0, 62, 100
2, 606000, Note_on_c, 0, 99, 0
2, 606000, Note_on_c, 0, 98, 0
2, 606000, Note_on_c, 0, 86, 0
2, 606000, Note_on_c, 0, 87, 0
2, 606000, Note_on_c, 0, 74, 0
2, 606000, Note_on_c, 0, 73, 0
2, 606000, Note_on_c, 0, 62, 0
2, 606240, Note_on_c, 0, 100, 100
2, 606240, Note_on_c, 0, 88, 100
2, 606240, Note_on_c, 0, 75, 100
2, 606240, Note_on_c, 0, 98, 100
2, 606240, Note_on_c, 0, 86, 100
2, 606240, Note_on_c, 0, 73, 100
2, 606240, Note_on_c, 0, 62, 100
2, 606480, Note_on_c, 0, 100, 0
2, 606480, Note_on_c, 0, 88, 0
2, 606480, Note_on_c, 0, 75, 0
2, 606480, Note_on_c, 0, 98, 0
2, 606480, Note_on_c, 0, 86, 0
2, 606480, Note_on_c, 0, 73, 0
2, 606480, Note_on_c, 0, 62, 0
2, 606720, Note_on_c, 0, 100, 100
2, 606720, Note_on_c, 0, 88, 100
2, 606720, Note_on_c, 0, 75, 100
2, 606720, Note_on_c, 0, 98, 100
2, 606720, Note_on_c, 0, 86, 100
2, 606720, Note_on_c, 0, 73, 100
2, 606720, Note_on_c, 0, 62, 100
2, 606960, Note_on_c, 0, 100, 0
2, 606960, Note_on_c, 0, 88, 0
2, 606960, Note_on_c, 0, 75, 0
2, 606960, Note_on_c, 0, 98, 0
2, 606960, Note_on_c, 0, 86, 0
2, 606960, Note_on_c, 0, 73, 0
2, 606960, Note_on_c, 0, 62, 0
2, 607200, Note_on_c, 0, 100, 100
2, 607200, Note_on_c, 0, 88, 100
2, 607200, Note_on_c, 0, 75, 100
2, 607200, Note_on_c, 0, 98, 100
2, 607200, Note_on_c, 0, 86, 100
2, 607200, Note_on_c, 0, 73, 100
2, 607440, Note_on_c, 0, 100, 0
2, 607440, Note_on_c, 0, 88, 0
2, 607440, Note_on_c, 0, 75, 0
2, 607440, Note_on_c, 0, 98, 0
2, 607440, Note_on_c, 0, 86, 0
2, 607440, Note_on_c, 0, 73, 0
2, 607680, Note_on_c, 0, 88, 100
2, 607680, Note_on_c, 0, 75, 100
2, 607680, Note_on_c, 0, 100, 100
2, 607680, Note_on_c, 0, 98, 100
2, 607680, Note_on_c, 0, 86, 100
2, 607680, Note_on_c, 0, 73, 100
2, 607680, Note_on_c, 0, 62, 100
2, 607920, Note_on_c, 0, 88, 0
2, 607920, Note_on_c, 0, 75, 0
2, 607920, Note_on_c, 0, 100, 0
2, 607920, Note_on_c, 0, 98, 0
2, 607920, Note_on_c, 0, 86, 0
2, 607920, Note_on_c, 0, 73, 0
2, 607920, Note_on_c, 0, 62, 0
2, 608160, Note_on_c, 0, 98, 100
2, 608160, Note_on_c, 0, 99, 100
2, 608160, Note_on_c, 0, 86, 100
2, 608160, Note_on_c, 0, 87, 100
2, 608160, Note_on_c, 0, 74, 100
2, 608160, Note_on_c, 0, 73, 100
2, 608160, Note_on_c, 0, 62, 100
2, 608400, Note_on_c, 0, 98, 0
2, 608400, Note_on_c, 0, 99, 0
2, 608400, Note_on_c, 0, 86, 0
2, 608400, Note_on_c, 0, 87, 0
2, 608400, Note_on_c, 0, 74, 0
2, 608400, Note_on_c, 0, 73, 0
2, 608400, Note_on_c, 0, 62, 0
2, 608640, Note_on_c, 0, 98, 100
2, 608640, Note_on_c, 0, 99, 100
2, 608640, Note_on_c, 0, 86, 100
2, 608640, Note_on_c, 0, 87, 100
2, 608640, Note_on_c, 0, 74, 100
2, 608640, Note_on_c, 0, 73, 100
2, 608640, Note_on_c, 0, 62, 100
2, 608880, Note_on_c, 0, 98, 0
2, 608880, Note_on_c, 0, 99, 0
2, 608880, Note_on_c, 0, 86, 0
2, 608880, Note_on_c, 0, 87, 0
2, 608880, Note_on_c, 0, 74, 0
2, 608880, Note_on_c, 0, 73, 0
2, 608880, Note_on_c, 0, 62, 0
2, 609120, Note_on_c, 0, 98, 100
2, 609120, Note_on_c, 0, 99, 100
2, 609120, Note_on_c, 0, 86, 100
2, 609120, Note_on_c, 0, 87, 100
2, 609120, Note_on_c, 0, 74, 100
2, 609120, Note_on_c, 0, 73, 100
2, 609120, Note_on_c, 0, 62, 100
2, 609360, Note_on_c, 0, 98, 0
2, 609360, Note_on_c, 0, 99, 0
2, 609360, Note_on_c, 0, 86, 0
2, 609360, Note_on_c, 0, 87, 0
2, 609360, Note_on_c, 0, 74, 0
2, 609360, Note_on_c, 0, 73, 0
2, 609360, Note_on_c, 0, 62, 0
2, 609600, Note_on_c, 0, 98, 100
2, 609600, Note_on_c, 0, 99, 100
2, 609600, Note_on_c, 0, 86, 100
2, 609600, Note_on_c, 0, 87, 100
2, 609600, Note_on_c, 0, 74, 100
2, 609600, Note_on_c, 0, 73, 100
2, 609600, Note_on_c, 0, 62, 100
2, 609840, Note_on_c, 0, 98, 0
2, 609840, Note_on_c, 0, 99, 0
2, 609840, Note_on_c, 0, 86, 0
2, 609840, Note_on_c, 0, 87, 0
2, 609840, Note_on_c, 0, 74, 0
2, 609840, Note_on_c, 0, 73, 0
2, 609840, Note_on_c, 0, 62, 0
2, 610080, Note_on_c, 0, 88, 100
2, 610080, Note_on_c, 0, 75, 100
2, 610080, Note_on_c, 0, 86, 100
2, 610080, Note_on_c, 0, 62, 100
2, 610080, Note_on_c, 0, 100, 100
2, 610080, Note_on_c, 0, 98, 100
2, 610320, Note_on_c, 0, 88, 0
2, 610320, Note_on_c, 0, 75, 0
2, 610320, Note_on_c, 0, 86, 0
2, 610320, Note_on_c, 0, 62, 0
2, 610320, Note_on_c, 0, 100, 0
2, 610320, Note_on_c, 0, 98, 0
2, 611040, Note_on_c, 0, 96, 100
2, 611040, Note_on_c, 0, 84, 100
2, 611040, Note_on_c, 0, 72, 100
2, 611040, Note_on_c, 0, 60, 100
2, 611040, Note_on_c, 0, 98, 100
2, 611280, Note_on_c, 0, 60, 0
2, 611490, Text_t, "[lighting ()]"
2, 612000, Note_on_c, 0, 96, 0
2, 612000, Note_on_c, 0, 84, 0
2, 612000, Note_on_c, 0, 72, 0
2, 612000, Note_on_c, 0, 98, 0
2, 612000, Note_on_c, 0, 97, 100
2, 612000, Note_on_c, 0, 73, 100
2, 612000, Note_on_c, 0, 85, 100
2, 612240, Note_on_c, 0, 97, 0
2, 612240, Note_on_c, 0, 73, 0
2, 612240, Note_on_c, 0, 85, 0
2, 612480, Note_on_c, 0, 97, 100
2, 612480, Note_on_c, 0, 73, 100
2, 612480, Note_on_c, 0, 85, 100
2, 612720, Note_on_c, 0, 97, 0
2, 612720, Note_on_c, 0, 73, 0
2, 612720, Note_on_c, 0, 85, 0
2, 612960, Note_on_c, 0, 96, 100
2, 612960, Note_on_c, 0, 72, 100
2, 612960, Note_on_c, 0, 84, 100
2, 612960, Note_on_c, 0, 60, 100
2, 613200, Note_on_c, 0, 96, 0
2, 613200, Note_on_c, 0, 72, 0
2, 613200, Note_on_c, 0, 84, 0
2, 613200, Note_on_c, 0, 60, 0
2, 613440, Note_on_c, 0, 97, 100
2, 613440, Note_on_c, 0, 73, 100
2, 613440, Note_on_c, 0, 61, 100
2, 613440, Note_on_c, 0, 85, 100
2, 613680, Note_on_c, 0, 97, 0
2, 613680, Note_on_c, 0, 73, 0
2, 613680, Note_on_c, 0, 61, 0
2, 613680, Note_on_c, 0, 85, 0
2, 613920, Note_on_c, 0, 98, 100
2, 613920, Note_on_c, 0, 74, 100
2, 613920, Note_on_c, 0, 62, 100
2, 613920, Note_on_c, 0, 86, 100
2, 614160, Note_on_c, 0, 98, 0
2, 614160, Note_on_c, 0, 74, 0
2, 614160, Note_on_c, 0, 62, 0
2, 614160, Note_on_c, 0, 86, 0
2, 614370, Note_on_c, 0, 105, 0
2, 614370, Note_on_c, 0, 93, 0
2, 614370, Note_on_c, 0, 69, 0
2, 614370, Note_on_c, 0, 81, 0
2, 614370, Note_on_c, 0, 106, 0
2, 614370, Note_on_c, 0, 94, 0
2, 614370, Note_on_c, 0, 70, 0
2, 614370, Note_on_c, 0, 82, 0
2, 614370, End_track
3, 0, Start_track
3, 0, Title_t, "TRIGGERS"
3, 6240, Note_on_c, 4, 60, 100
3, 6480, Note_on_c, 4, 60, 0
3, 7680, Note_on_c, 4, 61, 100
3, 7920, Note_on_c, 4, 61, 0
3, 8160, Note_on_c, 4, 60, 100
3, 8160, Note_on_c, 4, 61, 100
3, 8400, Note_on_c, 4, 60, 0
3, 8400, Note_on_c, 4, 61, 0
3, 8640, Note_on_c, 4, 60, 100
3, 8640, Note_on_c, 4, 61, 100
3, 8880, Note_on_c, 4, 60, 0
3, 8880, Note_on_c, 4, 61, 0
3, 9120, Note_on_c, 4, 61, 100
3, 9360, Note_on_c, 4, 61, 0
3, 9600, Note_on_c, 4, 60, 100
3, 9600, Note_on_c, 4, 61, 100
3, 9840, Note_on_c, 4, 60, 0
3, 9840, Note_on_c, 4, 61, 0
3, 10080, Note_on_c, 4, 60, 100
3, 10080, Note_on_c, 4, 61, 100
3, 10320, Note_on_c, 4, 60, 0
3, 10320, Note_on_c, 4, 61, 0
3, 10560, Note_on_c, 4, 61, 100
3, 10800, Note_on_c, 4, 61, 0
3, 11040, Note_on_c, 4, 60, 100
3, 11040, Note_on_c, 4, 61, 100
3, 11280, Note_on_c, 4, 60, 0
3, 11280, Note_on_c, 4, 61, 0
3, 11520, Note_on_c, 4, 61, 100
3, 11760, Note_on_c, 4, 61, 0
3, 12000, Note_on_c, 4, 60, 100
3, 12000, Note_on_c, 4, 61, 100
3, 12240, Note_on_c, 4, 60, 0
3, 12240, Note_on_c, 4, 61, 0
3, 12480, Note_on_c, 4, 60, 100
3, 12480, Note_on_c, 4, 61, 100
3, 12720, Note_on_c, 4, 60, 0
3, 12720, Note_on_c, 4, 61, 0
3, 12960, Note_on_c, 4, 61, 100
3, 13200, Note_on_c, 4, 61, 0
3, 13440, Note_on_c, 4, 60, 100
3, 13440, Note_on_c, 4, 61, 100
3, 13680, Note_on_c, 4, 60, 0
3, 13680, Note_on_c, 4, 61, 0
3, 13920, Note_on_c, 4, 60, 100
3, 13920, Note_on_c, 4, 61, 100
3, 14160, Note_on_c, 4, 60, 0
3, 14160, Note_on_c, 4, 61, 0
3, 14400, Note_on_c, 4, 61, 100
3, 14640, Note_on_c, 4, 61, 0
3, 14880, Note_on_c, 4, 60, 100
3, 14880, Note_on_c, 4, 61, 100
3, 15120, Note_on_c, 4, 60, 0
3, 15120, Note_on_c, 4, 61, 0
3, 15360, Note_on_c, 4, 61, 100
3, 15600, Note_on_c, 4, 61, 0
3, 15840, Note_on_c, 4, 60, 100
3, 15840, Note_on_c, 4, 61, 100
3, 16080, Note_on_c, 4, 60, 0
3, 16080, Note_on_c, 4, 61, 0
3, 16320, Note_on_c, 4, 60, 100
3, 16320, Note_on_c, 4, 61, 100
3, 16560, Note_on_c, 4, 60, 0
3, 16560, Note_on_c, 4, 61, 0
3, 16800, Note_on_c, 4, 61, 100
3, 17040, Note_on_c, 4, 61, 0
3, 17280, Note_on_c, 4, 60, 100
3, 17280, Note_on_c, 4, 61, 100
3, 17520, Note_on_c, 4, 60, 0
3, 17520, Note_on_c, 4, 61, 0
3, 17760, Note_on_c, 4, 60, 100
3, 17760, Note_on_c, 4, 61, 100
3, 18000, Note_on_c, 4, 60, 0
3, 18000, Note_on_c, 4, 61, 0
3, 18240, Note_on_c, 4, 61, 100
3, 18480, Note_on_c, 4, 61, 0
3, 18720, Note_on_c, 4, 60, 100
3, 18720, Note_on_c, 4, 61, 100
3, 18960, Note_on_c, 4, 60, 0
3, 18960, Note_on_c, 4, 61, 0
3, 19200, Note_on_c, 4, 61, 100
3, 19440, Note_on_c, 4, 61, 0
3, 19680, Note_on_c, 4, 60, 100
3, 19680, Note_on_c, 4, 61, 100
3, 19920, Note_on_c, 4, 60, 0
3, 19920, Note_on_c, 4, 61, 0
3, 20160, Note_on_c, 4, 60, 100
3, 20160, Note_on_c, 4, 61, 100
3, 20400, Note_on_c, 4, 60, 0
3, 20400, Note_on_c, 4, 61, 0
3, 20640, Note_on_c, 4, 61, 100
3, 20880, Note_on_c, 4, 61, 0
3, 21120, Note_on_c, 4, 60, 100
3, 21120, Note_on_c, 4, 61, 100
3, 21360, Note_on_c, 4, 60, 0
3, 21360, Note_on_c, 4, 61, 0
3, 21600, Note_on_c, 4, 60, 100
3, 21600, Note_on_c, 4, 61, 100
3, 21840, Note_on_c, 4, 60, 0
3, 21840, Note_on_c, 4, 61, 0
3, 22080, Note_on_c, 4, 61, 100
3, 22320, Note_on_c, 4, 61, 0
3, 22560, Note_on_c, 4, 60, 100
3, 22560, Note_on_c, 4, 61, 100
3, 22800, Note_on_c, 4, 60, 0
3, 22800, Note_on_c, 4, 61, 0
3, 23040, Note_on_c, 4, 61, 100
3, 23040, Note_on_c, 0, 68, 100
3, 23280, Note_on_c, 4, 61, 0
3, 23280, Note_on_c, 0, 68, 0
3, 23520, Note_on_c, 4, 60, 100
3, 23520, Note_on_c, 4, 61, 100
3, 23760, Note_on_c, 4, 60, 0
3, 23760, Note_on_c, 4, 61, 0
3, 24000, Note_on_c, 4, 60, 100
3, 24000, Note_on_c, 4, 61, 100
3, 24240, Note_on_c, 4, 60, 0
3, 24240, Note_on_c, 4, 61, 0
3, 24480, Note_on_c, 4, 61, 100
3, 24480, Note_on_c, 0, 69, 100
3, 24720, Note_on_c, 4, 61, 0
3, 24720, Note_on_c, 0, 69, 0
3, 24960, Note_on_c, 4, 60, 100
3, 24960, Note_on_c, 4, 61, 100
3, 25200, Note_on_c, 4, 60, 0
3, 25200, Note_on_c, 4, 61, 0
3, 25440, Note_on_c, 4, 60, 100
3, 25440, Note_on_c, 4, 61, 100
3, 25680, Note_on_c, 4, 60, 0
3, 25680, Note_on_c, 4, 61, 0
3, 25920, Note_on_c, 4, 61, 100
3, 25920, Note_on_c, 0, 70, 100
3, 26160, Note_on_c, 4, 61, 0
3, 26160, Note_on_c, 0, 70, 0
3, 26400, Note_on_c, 4, 60, 100
3, 26400, Note_on_c, 4, 61, 100
3, 26640, Note_on_c, 4, 60, 0
3, 26640, Note_on_c, 4, 61, 0
3, 26880, Note_on_c, 4, 61, 100
3, 26880, Note_on_c, 0, 68, 100
3, 27120, Note_on_c, 4, 61, 0
3, 27120, Note_on_c, 0, 68, 0
3, 27360, Note_on_c, 4, 60, 100
3, 27360, Note_on_c, 4, 61, 100
3, 27600, Note_on_c, 4, 60, 0
3, 27600, Note_on_c, 4, 61, 0
3, 27840, Note_on_c, 4, 60, 100
3, 27840, Note_on_c, 4, 61, 100
3, 28080, Note_on_c, 4, 60, 0
3, 28080, Note_on_c, 4, 61, 0
3, 28320, Note_on_c, 4, 61, 100
3, 28320, Note_on_c, 0, 69, 100
3, 28560, Note_on_c, 4, 61, 0
3, 28560, Note_on_c, 0, 69, 0
3, 28800, Note_on_c, 4, 60, 100
3, 28800, Note_on_c, 4, 61, 100
3, 29040, Note_on_c, 4, 60, 0
3, 29040, Note_on_c, 4, 61, 0
3, 29280, Note_on_c, 4, 60, 100
3, 29280, Note_on_c, 4, 61, 100
3, 29520, Note_on_c, 4, 60, 0
3, 29520, Note_on_c, 4, 61, 0
3, 29760, Note_on_c, 4, 61, 100
3, 29760, Note_on_c, 0, 70, 100
3, 30000, Note_on_c, 4, 61, 0
3, 30000, Note_on_c, 0, 70, 0
3, 30240, Note_on_c, 4, 60, 100
3, 30240, Note_on_c, 4, 61, 100
3, 30480, Note_on_c, 4, 60, 0
3, 30480, Note_on_c, 4, 61, 0
3, 30720, Note_on_c, 4, 61, 100
3, 30720, Note_on_c, 0, 68, 100
3, 30960, Note_on_c, 4, 61, 0
3, 30960, Note_on_c, 0, 68, 0
3, 31200, Note_on_c, 4, 60, 100
3, 31200, Note_on_c, 4, 61, 100
3, 31440, Note_on_c, 4, 60, 0
3, 31440, Note_on_c, 4, 61, 0
3, 31680, Note_on_c, 4, 60, 100
3, 31680, Note_on_c, 4, 61, 100
3, 31920, Note_on_c, 4, 60, 0
3, 31920, Note_on_c, 4, 61, 0
3, 32160, Note_on_c, 4, 61, 100
3, 32160, Note_on_c, 0, 69, 100
3, 32400, Note_on_c, 4, 61, 0
3, 32400, Note_on_c, 0, 69, 0
3, 32640, Note_on_c, 4, 60, 100
3, 32640, Note_on_c, 4, 61, 100
3, 32880, Note_on_c, 4, 60, 0
3, 32880, Note_on_c, 4, 61, 0
3, 33120, Note_on_c, 4, 60, 100
3, 33120, Note_on_c, 4, 61, 100
3, 33360, Note_on_c, 4, 60, 0
3, 33360, Note_on_c, 4, 61, 0
3, 33600, Note_on_c, 4, 61, 100
3, 33600, Note_on_c, 0, 70, 100
3, 33840, Note_on_c, 4, 61, 0
3, 33840, Note_on_c, 0, 70, 0
3, 34080, Note_on_c, 4, 60, 100
3, 34080, Note_on_c, 4, 61, 100
3, 34320, Note_on_c, 4, 60, 0
3, 34320, Note_on_c, 4, 61, 0
3, 34560, Note_on_c, 4, 61, 100
3, 34560, Note_on_c, 0, 68, 100
3, 34800, Note_on_c, 4, 61, 0
3, 34800, Note_on_c, 0, 68, 0
3, 35040, Note_on_c, 4, 60, 100
3, 35040, Note_on_c, 4, 61, 100
3, 35280, Note_on_c, 4, 60, 0
3, 35280, Note_on_c, 4, 61, 0
3, 35520, Note_on_c, 4, 60, 100
3, 35520, Note_on_c, 4, 61, 100
3, 35760, Note_on_c, 4, 60, 0
3, 35760, Note_on_c, 4, 61, 0
3, 36000, Note_on_c, 4, 61, 100
3, 36000, Note_on_c, 0, 69, 100
3, 36240, Note_on_c, 4, 61, 0
3, 36240, Note_on_c, 0, 69, 0
3, 36480, Note_on_c, 4, 60, 100
3, 36480, Note_on_c, 4, 61, 100
3, 36720, Note_on_c, 4, 60, 0
3, 36720, Note_on_c, 4, 61, 0
3, 36960, Note_on_c, 4, 60, 100
3, 36960, Note_on_c, 4, 61, 100
3, 37200, Note_on_c, 4, 60, 0
3, 37200, Note_on_c, 4, 61, 0
3, 37440, Note_on_c, 4, 61, 100
3, 37440, Note_on_c, 0, 70, 100
3, 37680, Note_on_c, 4, 61, 0
3, 37680, Note_on_c, 0, 70, 0
3, 37920, Note_on_c, 4, 60, 100
3, 37920, Note_on_c, 4, 61, 100
3, 38160, Note_on_c, 4, 60, 0
3, 38160, Note_on_c, 4, 61, 0
3, 38400, Note_on_c, 4, 61, 100
3, 38400, Note_on_c, 0, 70, 100
3, 38640, Note_on_c, 4, 61, 0
3, 38880, Note_on_c, 4, 60, 100
3, 38880, Note_on_c, 4, 61, 100
3, 39120, Note_on_c, 4, 60, 0
3, 39120, Note_on_c, 4, 61, 0
3, 39360, Note_on_c, 4, 60, 100
3, 39360, Note_on_c, 4, 61, 100
3, 39600, Note_on_c, 4, 60, 0
3, 39600, Note_on_c, 4, 61, 0
3, 39840, Note_on_c, 4, 61, 100
3, 40080, Note_on_c, 4, 61, 0
3, 40320, Note_on_c, 4, 60, 100
3, 40320, Note_on_c, 4, 61, 100
3, 40560, Note_on_c, 4, 60, 0
3, 40560, Note_on_c, 4, 61, 0
3, 40800, Note_on_c, 4, 60, 100
3, 40800, Note_on_c, 4, 61, 100
3, 41040, Note_on_c, 4, 60, 0
3, 41040, Note_on_c, 4, 61, 0
3, 41280, Note_on_c, 4, 61, 100
3, 41520, Note_on_c, 4, 61, 0
3, 41760, Note_on_c, 4, 60, 100
3, 41760, Note_on_c, 4, 61, 100
3, 42000, Note_on_c, 4, 60, 0
3, 42000, Note_on_c, 4, 61, 0
3, 42240, Note_on_c, 4, 61, 100
3, 42480, Note_on_c, 4, 61, 0
3, 42720, Note_on_c, 4, 60, 100
3, 42720, Note_on_c, 4, 61, 100
3, 42960, Note_on_c, 4, 60, 0
3, 42960, Note_on_c, 4, 61, 0
3, 43200, Note_on_c, 4, 60, 100
3, 43200, Note_on_c, 4, 61, 100
3, 43440, Note_on_c, 4, 60, 0
3, 43440, Note_on_c, 4, 61, 0
3, 43680, Note_on_c, 4, 61, 100
3, 43920, Note_on_c, 4, 61, 0
3, 44160, Note_on_c, 4, 60, 100
3, 44160, Note_on_c, 4, 61, 100
3, 44400, Note_on_c, 4, 60, 0
3, 44400, Note_on_c, 4, 61, 0
3, 44640, Note_on_c, 4, 60, 100
3, 44640, Note_on_c, 4, 61, 100
3, 44880, Note_on_c, 4, 60, 0
3, 44880, Note_on_c, 4, 61, 0
3, 45120, Note_on_c, 0, 70, 0
3, 45120, Note_on_c, 4, 61, 100
3, 45360, Note_on_c, 4, 61, 0
3, 45600, Note_on_c, 4, 60, 100
3, 45600, Note_on_c, 4, 61, 100
3, 45840, Note_on_c, 4, 60, 0
3, 45840, Note_on_c, 4, 61, 0
3, 46080, Note_on_c, 4, 61, 100
3, 46080, Note_on_c, 0, 70, 100
3, 46080, Note_on_c, 0, 69, 100
3, 46320, Note_on_c, 4, 61, 0
3, 46560, Note_on_c, 4, 60, 100
3, 46560, Note_on_c, 4, 61, 100
3, 46800, Note_on_c, 4, 60, 0
3, 46800, Note_on_c, 4, 61, 0
3, 47040, Note_on_c, 4, 60, 100
3, 47040, Note_on_c, 4, 61, 100
3, 47280, Note_on_c, 4, 60, 0
3, 47280, Note_on_c, 4, 61, 0
3, 47520, Note_on_c, 4, 61, 100
3, 47760, Note_on_c, 4, 61, 0
3, 48000, Note_on_c, 4, 60, 100
3, 48000, Note_on_c, 4, 61, 100
3, 48240, Note_on_c, 4, 60, 0
3, 48240, Note_on_c, 4, 61, 0
3, 48480, Note_on_c, 4, 60, 100
3, 48480, Note_on_c, 4, 61, 100
3, 48720, Note_on_c, 4, 60, 0
3, 48720, Note_on_c, 4, 61, 0
3, 48960, Note_on_c, 4, 61, 100
3, 49200, Note_on_c, 4, 61, 0
3, 49440, Note_on_c, 4, 60, 100
3, 49440, Note_on_c, 4, 61, 100
3, 49680, Note_on_c, 4, 60, 0
3, 49680, Note_on_c, 4, 61, 0
3, 49920, Note_on_c, 4, 61, 100
3, 50160, Note_on_c, 4, 61, 0
3, 50400, Note_on_c, 4, 60, 100
3, 50400, Note_on_c, 4, 61, 100
3, 50640, Note_on_c, 4, 60, 0
3, 50640, Note_on_c, 4, 61, 0
3, 50880, Note_on_c, 4, 60, 100
3, 50880, Note_on_c, 4, 61, 100
3, 51120, Note_on_c, 4, 60, 0
3, 51120, Note_on_c, 4, 61, 0
3, 51360, Note_on_c, 4, 61, 100
3, 51600, Note_on_c, 4, 61, 0
3, 51840, Note_on_c, 4, 60, 100
3, 51840, Note_on_c, 4, 61, 100
3, 52080, Note_on_c, 4, 60, 0
3, 52080, Note_on_c, 4, 61, 0
3, 52320, Note_on_c, 4, 60, 100
3, 52320, Note_on_c, 4, 61, 100
3, 52560, Note_on_c, 4, 60, 0
3, 52560, Note_on_c, 4, 61, 0
3, 52800, Note_on_c, 4, 61, 100
3, 53040, Note_on_c, 4, 61, 0
3, 53280, Note_on_c, 4, 60, 100
3, 53280, Note_on_c, 4, 61, 100
3, 53520, Note_on_c, 4, 60, 0
3, 53520, Note_on_c, 4, 61, 0
3, 53760, Note_on_c, 4, 61, 100
3, 54000, Note_on_c, 4, 61, 0
3, 54240, Note_on_c, 4, 60, 100
3, 54240, Note_on_c, 4, 61, 100
3, 54480, Note_on_c, 4, 60, 0
3, 54480, Note_on_c, 4, 61, 0
3, 54720, Note_on_c, 4, 60, 100
3, 54720, Note_on_c, 4, 61, 100
3, 54960, Note_on_c, 4, 60, 0
3, 54960, Note_on_c, 4, 61, 0
3, 55200, Note_on_c, 4, 61, 100
3, 55440, Note_on_c, 4, 61, 0
3, 55680, Note_on_c, 4, 60, 100
3, 55680, Note_on_c, 4, 61, 100
3, 55920, Note_on_c, 4, 60, 0
3, 55920, Note_on_c, 4, 61, 0
3, 56160, Note_on_c, 4, 60, 100
3, 56160, Note_on_c, 4, 61, 100
3, 56400, Note_on_c, 4, 60, 0
3, 56400, Note_on_c, 4, 61, 0
3, 56640, Note_on_c, 4, 61, 100
3, 56880, Note_on_c, 4, 61, 0
3, 57120, Note_on_c, 4, 60, 100
3, 57120, Note_on_c, 4, 61, 100
3, 57360, Note_on_c, 4, 60, 0
3, 57360, Note_on_c, 4, 61, 0
3, 57600, Note_on_c, 4, 61, 100
3, 57840, Note_on_c, 4, 61, 0
3, 58080, Note_on_c, 4, 60, 100
3, 58080, Note_on_c, 4, 61, 100
3, 58320, Note_on_c, 4, 60, 0
3, 58320, Note_on_c, 4, 61, 0
3, 58560, Note_on_c, 4, 60, 100
3, 58560, Note_on_c, 4, 61, 100
3, 58800, Note_on_c, 4, 60, 0
3, 58800, Note_on_c, 4, 61, 0
3, 59040, Note_on_c, 4, 61, 100
3, 59280, Note_on_c, 4, 61, 0
3, 59520, Note_on_c, 4, 60, 100
3, 59520, Note_on_c, 4, 61, 100
3, 59760, Note_on_c, 4, 60, 0
3, 59760, Note_on_c, 4, 61, 0
3, 60000, Note_on_c, 4, 60, 100
3, 60000, Note_on_c, 4, 61, 100
3, 60240, Note_on_c, 4, 60, 0
3, 60240, Note_on_c, 4, 61, 0
3, 60480, Note_on_c, 4, 61, 100
3, 60720, Note_on_c, 4, 61, 0
3, 60960, Note_on_c, 4, 60, 100
3, 60960, Note_on_c, 4, 61, 100
3, 61200, Note_on_c, 4, 60, 0
3, 61200, Note_on_c, 4, 61, 0
3, 61440, Note_on_c, 4, 61, 100
3, 61680, Note_on_c, 4, 61, 0
3, 61920, Note_on_c, 4, 60, 100
3, 61920, Note_on_c, 4, 61, 100
3, 62160, Note_on_c, 4, 60, 0
3, 62160, Note_on_c, 4, 61, 0
3, 62400, Note_on_c, 4, 60, 100
3, 62400, Note_on_c, 4, 61, 100
3, 62640, Note_on_c, 4, 60, 0
3, 62640, Note_on_c, 4, 61, 0
3, 62880, Note_on_c, 4, 61, 100
3, 63120, Note_on_c, 4, 61, 0
3, 63360, Note_on_c, 4, 60, 100
3, 63360, Note_on_c, 4, 61, 100
3, 63600, Note_on_c, 4, 60, 0
3, 63600, Note_on_c, 4, 61, 0
3, 63840, Note_on_c, 4, 60, 100
3, 63840, Note_on_c, 4, 61, 100
3, 64080, Note_on_c, 4, 60, 0
3, 64080, Note_on_c, 4, 61, 0
3, 64320, Note_on_c, 4, 61, 100
3, 64560, Note_on_c, 4, 61, 0
3, 64800, Note_on_c, 4, 60, 100
3, 64800, Note_on_c, 4, 61, 100
3, 65040, Note_on_c, 4, 60, 0
3, 65040, Note_on_c, 4, 61, 0
3, 65280, Note_on_c, 4, 61, 100
3, 65520, Note_on_c, 4, 61, 0
3, 65760, Note_on_c, 4, 60, 100
3, 65760, Note_on_c, 4, 61, 100
3, 66000, Note_on_c, 4, 60, 0
3, 66000, Note_on_c, 4, 61, 0
3, 66240, Note_on_c, 4, 60, 100
3, 66240, Note_on_c, 4, 61, 100
3, 66480, Note_on_c, 4, 60, 0
3, 66480, Note_on_c, 4, 61, 0
3, 66720, Note_on_c, 4, 61, 100
3, 66960, Note_on_c, 4, 61, 0
3, 67200, Note_on_c, 4, 60, 100
3, 67200, Note_on_c, 4, 61, 100
3, 67440, Note_on_c, 4, 60, 0
3, 67440, Note_on_c, 4, 61, 0
3, 67680, Note_on_c, 4, 60, 100
3, 67680, Note_on_c, 4, 61, 100
3, 67920, Note_on_c, 4, 60, 0
3, 67920, Note_on_c, 4, 61, 0
3, 68160, Note_on_c, 0, 70, 0
3, 68160, Note_on_c, 0, 69, 0
3, 68160, Note_on_c, 4, 61, 100
3, 68400, Note_on_c, 4, 61, 0
3, 68640, Note_on_c, 4, 60, 100
3, 68640, Note_on_c, 4, 61, 100
3, 68880, Note_on_c, 4, 60, 0
3, 68880, Note_on_c, 4, 61, 0
3, 69120, Note_on_c, 4, 61, 100
3, 69120, Note_on_c, 4, 60, 100
3, 69120, Note_on_c, 0, 69, 100
3, 69360, Note_on_c, 4, 61, 0
3, 69360, Note_on_c, 4, 60, 0
3, 75360, Note_on_c, 4, 60, 100
3, 75600, Note_on_c, 4, 60, 0
3, 76320, Note_on_c, 0, 69, 0
3, 76800, Note_on_c, 4, 60, 100
3, 76800, Note_on_c, 4, 61, 100
3, 76800, Note_on_c, 0, 68, 100
3, 77040, Note_on_c, 4, 60, 0
3, 77040, Note_on_c, 4, 61, 0
3, 77040, Note_on_c, 0, 68, 0
3, 77280, Note_on_c, 4, 60, 100
3, 77280, Note_on_c, 4, 61, 100
3, 77520, Note_on_c, 4, 60, 0
3, 77520, Note_on_c, 4, 61, 0
3, 77760, Note_on_c, 4, 61, 100
3, 77760, Note_on_c, 0, 68, 100
3, 78000, Note_on_c, 4, 61, 0
3, 78000, Note_on_c, 0, 68, 0
3, 79200, Note_on_c, 4, 60, 100
3, 79200, Note_on_c, 4, 61, 100
3, 79200, Note_on_c, 0, 68, 100
3, 79440, Note_on_c, 4, 60, 0
3, 79440, Note_on_c, 4, 61, 0
3, 79440, Note_on_c, 0, 68, 0
3, 79680, Note_on_c, 4, 61, 100
3, 79920, Note_on_c, 4, 61, 0
3, 80160, Note_on_c, 4, 61, 100
3, 80160, Note_on_c, 0, 68, 100
3, 80400, Note_on_c, 4, 61, 0
3, 80400, Note_on_c, 0, 68, 0
3, 80640, Note_on_c, 4, 60, 100
3, 80880, Note_on_c, 4, 60, 0
3, 82560, Note_on_c, 4, 60, 100
3, 82560, Note_on_c, 4, 61, 100
3, 82560, Note_on_c, 0, 68, 100
3, 82800, Note_on_c, 4, 60, 0
3, 82800, Note_on_c, 4, 61, 0
3, 82800, Note_on_c, 0, 68, 0
3, 83040, Note_on_c, 4, 60, 100
3, 83040, Note_on_c, 4, 61, 100
3, 83280, Note_on_c, 4, 60, 0
3, 83280, Note_on_c, 4, 61, 0
3, 83520, Note_on_c, 4, 61, 100
3, 83520, Note_on_c, 0, 68, 100
3, 83760, Note_on_c, 4, 61, 0
3, 83760, Note_on_c, 0, 68, 0
3, 84480, Note_on_c, 4, 60, 100
3, 84480, Note_on_c, 4, 61, 100
3, 84480, Note_on_c, 0, 68, 100
3, 84720, Note_on_c, 4, 60, 0
3, 84720, Note_on_c, 4, 61, 0
3, 84720, Note_on_c, 0, 68, 0
3, 84960, Note_on_c, 4, 60, 100
3, 84960, Note_on_c, 4, 61, 100
3, 85200, Note_on_c, 4, 60, 0
3, 85200, Note_on_c, 4, 61, 0
3, 85440, Note_on_c, 4, 61, 100
3, 85440, Note_on_c, 0, 68, 100
3, 85680, Note_on_c, 4, 61, 0
3, 85680, Note_on_c, 0, 68, 0
3, 86880, Note_on_c, 4, 60, 100
3, 86880, Note_on_c, 4, 61, 100
3, 86880, Note_on_c, 0, 68, 100
3, 87120, Note_on_c, 4, 60, 0
3, 87120, Note_on_c, 4, 61, 0
3, 87120, Note_on_c, 0, 68, 0
3, 87360, Note_on_c, 4, 61, 100
3, 87600, Note_on_c, 4, 61, 0
3, 87840, Note_on_c, 4, 61, 100
3, 88080, Note_on_c, 4, 61, 0
3, 88320, Note_on_c, 4, 60, 100
3, 88320, Note_on_c, 4, 61, 100
3, 88320, Note_on_c, 0, 68, 100
3, 88560, Note_on_c, 4, 60, 0
3, 88560, Note_on_c, 4, 61, 0
3, 88560, Note_on_c, 0, 68, 0
3, 88800, Note_on_c, 4, 60, 100
3, 89040, Note_on_c, 4, 60, 0
3, 89760, Note_on_c, 4, 60, 100
3, 89760, Note_on_c, 4, 61, 100
3, 89760, Note_on_c, 0, 69, 100
3, 90000, Note_on_c, 4, 60, 0
3, 90000, Note_on_c, 4, 61, 0
3, 90000, Note_on_c, 0, 69, 0
3, 90720, Note_on_c, 4, 60, 100
3, 90960, Note_on_c, 4, 60, 0
3, 91200, Note_on_c, 4, 61, 100
3, 91200, Note_on_c, 0, 70, 100
3, 91440, Note_on_c, 4, 61, 0
3, 91440, Note_on_c, 0, 70, 0
3, 91680, Note_on_c, 4, 60, 100
3, 91920, Note_on_c, 4, 60, 0
3, 92160, Note_on_c, 4, 60, 100
3, 92160, Note_on_c, 4, 61, 100
3, 92160, Note_on_c, 0, 68, 100
3, 92400, Note_on_c, 4, 60, 0
3, 92400, Note_on_c, 4, 61, 0
3, 92400, Note_on_c, 0, 68, 0
3, 92640, Note_on_c, 4, 60, 100
3, 92640, Note_on_c, 4, 61, 100
3, 92880, Note_on_c, 4, 60, 0
3, 92880, Note_on_c, 4, 61, 0
3, 93120, Note_on_c, 4, 61, 100
3, 93120, Note_on_c, 0, 68, 100
3, 93360, Note_on_c, 4, 61, 0
3, 93360, Note_on_c, 0, 68, 0
3, 94560, Note_on_c, 4, 60, 100
3, 94560, Note_on_c, 4, 61, 100
3, 94560, Note_on_c, 0, 68, 100
3, 94800, Note_on_c, 4, 60, 0
3, 94800, Note_on_c, 4, 61, 0
3, 94800, Note_on_c, 0, 68, 0
3, 95040, Note_on_c, 4, 61, 100
3, 95280, Note_on_c, 4, 61, 0
3, 95520, Note_on_c, 4, 61, 100
3, 95520, Note_on_c, 0, 68, 100
3, 95760, Note_on_c, 4, 61, 0
3, 95760, Note_on_c, 0, 68, 0
3, 96000, Note_on_c, 4, 60, 100
3, 96240, Note_on_c, 4, 60, 0
3, 97920, Note_on_c, 4, 60, 100
3, 97920, Note_on_c, 4, 61, 100
3, 97920, Note_on_c, 0, 68, 100
3, 98160, Note_on_c, 4, 60, 0
3, 98160, Note_on_c, 4, 61, 0
3, 98160, Note_on_c, 0, 68, 0
3, 98400, Note_on_c, 4, 60, 100
3, 98400, Note_on_c, 4, 61, 100
3, 98640, Note_on_c, 4, 60, 0
3, 98640, Note_on_c, 4, 61, 0
3, 98880, Note_on_c, 4, 61, 100
3, 98880, Note_on_c, 0, 68, 100
3, 99120, Note_on_c, 4, 61, 0
3, 99120, Note_on_c, 0, 68, 0
3, 99840, Note_on_c, 4, 60, 100
3, 99840, Note_on_c, 4, 61, 100
3, 99840, Note_on_c, 0, 68, 100
3, 100080, Note_on_c, 4, 60, 0
3, 100080, Note_on_c, 4, 61, 0
3, 100080, Note_on_c, 0, 68, 0
3, 100320, Note_on_c, 4, 60, 100
3, 100320, Note_on_c, 4, 61, 100
3, 100560, Note_on_c, 4, 60, 0
3, 100560, Note_on_c, 4, 61, 0
3, 100800, Note_on_c, 4, 61, 100
3, 100800, Note_on_c, 0, 68, 100
3, 101040, Note_on_c, 4, 61, 0
3, 101040, Note_on_c, 0, 68, 0
3, 102240, Note_on_c, 4, 60, 100
3, 102240, Note_on_c, 4, 61, 100
3, 102240, Note_on_c, 0, 68, 100
3, 102480, Note_on_c, 4, 60, 0
3, 102480, Note_on_c, 4, 61, 0
3, 102480, Note_on_c, 0, 68, 0
3, 102720, Note_on_c, 4, 61, 100
3, 102960, Note_on_c, 4, 61, 0
3, 103200, Note_on_c, 4, 61, 100
3, 103440, Note_on_c, 4, 61, 0
3, 103680, Note_on_c, 4, 60, 100
3, 103680, Note_on_c, 4, 61, 100
3, 103680, Note_on_c, 0, 68, 100
3, 103920, Note_on_c, 4, 60, 0
3, 103920, Note_on_c, 4, 61, 0
3, 103920, Note_on_c, 0, 68, 0
3, 104160, Note_on_c, 4, 60, 100
3, 104160, Note_on_c, 4, 61, 100
3, 104400, Note_on_c, 4, 60, 0
3, 104400, Note_on_c, 4, 61, 0
3, 104640, Note_on_c, 4, 61, 100
3, 104880, Note_on_c, 4, 61, 0
3, 105120, Note_on_c, 4, 60, 100
3, 105120, Note_on_c, 4, 61, 100
3, 105120, Note_on_c, 0, 69, 100
3, 105360, Note_on_c, 4, 60, 0
3, 105360, Note_on_c, 4, 61, 0
3, 105360, Note_on_c, 0, 69, 0
3, 105600, Note_on_c, 4, 61, 100
3, 105840, Note_on_c, 4, 61, 0
3, 106080, Note_on_c, 4, 60, 100
3, 106080, Note_on_c, 4, 61, 100
3, 106320, Note_on_c, 4, 60, 0
3, 106320, Note_on_c, 4, 61, 0
3, 106560, Note_on_c, 4, 61, 100
3, 106560, Note_on_c, 0, 70, 100
3, 106800, Note_on_c, 4, 61, 0
3, 106800, Note_on_c, 0, 70, 0
3, 107040, Note_on_c, 4, 60, 100
3, 107040, Note_on_c, 4, 61, 100
3, 107280, Note_on_c, 4, 60, 0
3, 107280, Note_on_c, 4, 61, 0
3, 107520, Note_on_c, 4, 60, 100
3, 107520, Note_on_c, 4, 61, 100
3, 107520, Note_on_c, 0, 68, 100
3, 107760, Note_on_c, 4, 60, 0
3, 107760, Note_on_c, 4, 61, 0
3, 107760, Note_on_c, 0, 68, 0
3, 108000, Note_on_c, 4, 60, 100
3, 108000, Note_on_c, 4, 61, 100
3, 108240, Note_on_c, 4, 60, 0
3, 108240, Note_on_c, 4, 61, 0
3, 108480, Note_on_c, 4, 61, 100
3, 108480, Note_on_c, 0, 68, 100
3, 108720, Note_on_c, 4, 61, 0
3, 108720, Note_on_c, 0, 68, 0
3, 109920, Note_on_c, 4, 60, 100
3, 109920, Note_on_c, 4, 61, 100
3, 109920, Note_on_c, 0, 68, 100
3, 110160, Note_on_c, 4, 60, 0
3, 110160, Note_on_c, 4, 61, 0
3, 110160, Note_on_c, 0, 68, 0
3, 110400, Note_on_c, 4, 61, 100
3, 110640, Note_on_c, 4, 61, 0
3, 110880, Note_on_c, 4, 61, 100
3, 110880, Note_on_c, 0, 68, 100
3, 111120, Note_on_c, 4, 61, 0
3, 111120, Note_on_c, 0, 68, 0
3, 111360, Note_on_c, 4, 60, 100
3, 111600, Note_on_c, 4, 60, 0
3, 113280, Note_on_c, 4, 60, 100
3, 113280, Note_on_c, 4, 61, 100
3, 113280, Note_on_c, 0, 68, 100
3, 113520, Note_on_c, 4, 60, 0
3, 113520, Note_on_c, 4, 61, 0
3, 113520, Note_on_c, 0, 68, 0
3, 113760, Note_on_c, 4, 60, 100
3, 113760, Note_on_c, 4, 61, 100
3, 114000, Note_on_c, 4, 60, 0
3, 114000, Note_on_c, 4, 61, 0
3, 114240, Note_on_c, 4, 61, 100
3, 114240, Note_on_c, 0, 68, 100
3, 114480, Note_on_c, 4, 61, 0
3, 114480, Note_on_c, 0, 68, 0
3, 115200, Note_on_c, 4, 60, 100
3, 115200, Note_on_c, 4, 61, 100
3, 115200, Note_on_c, 0, 68, 100
3, 115440, Note_on_c, 4, 60, 0
3, 115440, Note_on_c, 4, 61, 0
3, 115440, Note_on_c, 0, 68, 0
3, 115680, Note_on_c, 4, 60, 100
3, 115680, Note_on_c, 4, 61, 100
3, 115920, Note_on_c, 4, 60, 0
3, 115920, Note_on_c, 4, 61, 0
3, 116160, Note_on_c, 4, 61, 100
3, 116160, Note_on_c, 0, 68, 100
3, 116400, Note_on_c, 4, 61, 0
3, 116400, Note_on_c, 0, 68, 0
3, 117600, Note_on_c, 4, 60, 100
3, 117600, Note_on_c, 4, 61, 100
3, 117600, Note_on_c, 0, 68, 100
3, 117840, Note_on_c, 4, 60, 0
3, 117840, Note_on_c, 4, 61, 0
3, 117840, Note_on_c, 0, 68, 0
3, 118080, Note_on_c, 4, 61, 100
3, 118320, Note_on_c, 4, 61, 0
3, 118560, Note_on_c, 4, 61, 100
3, 118800, Note_on_c, 4, 61, 0
3, 119040, Note_on_c, 4, 60, 100
3, 119040, Note_on_c, 4, 61, 100
3, 119040, Note_on_c, 0, 68, 100
3, 119280, Note_on_c, 4, 60, 0
3, 119280, Note_on_c, 4, 61, 0
3, 119280, Note_on_c, 0, 68, 0
3, 119520, Note_on_c, 4, 60, 100
3, 119520, Note_on_c, 4, 61, 100
3, 119760, Note_on_c, 4, 60, 0
3, 119760, Note_on_c, 4, 61, 0
3, 120000, Note_on_c, 4, 61, 100
3, 120240, Note_on_c, 4, 61, 0
3, 120480, Note_on_c, 4, 60, 100
3, 120480, Note_on_c, 4, 61, 100
3, 120480, Note_on_c, 0, 69, 100
3, 120720, Note_on_c, 4, 60, 0
3, 120720, Note_on_c, 4, 61, 0
3, 120720, Note_on_c, 0, 69, 0
3, 120960, Note_on_c, 4, 61, 100
3, 121200, Note_on_c, 4, 61, 0
3, 121440, Note_on_c, 4, 60, 100
3, 121440, Note_on_c, 4, 61, 100
3, 121680, Note_on_c, 4, 60, 0
3, 121680, Note_on_c, 4, 61, 0
3, 121920, Note_on_c, 4, 61, 100
3, 121920, Note_on_c, 0, 70, 100
3, 122160, Note_on_c, 4, 61, 0
3, 122160, Note_on_c, 0, 70, 0
3, 122400, Note_on_c, 4, 60, 100
3, 122400, Note_on_c, 4, 61, 100
3, 122640, Note_on_c, 4, 60, 0
3, 122640, Note_on_c, 4, 61, 0
3, 122880, Note_on_c, 4, 60, 100
3, 122880, Note_on_c, 4, 61, 100
3, 122880, Note_on_c, 0, 68, 100
3, 123120, Note_on_c, 4, 60, 0
3, 123120, Note_on_c, 4, 61, 0
3, 123120, Note_on_c, 0, 68, 0
3, 123360, Note_on_c, 4, 60, 100
3, 123360, Note_on_c, 4, 61, 100
3, 123600, Note_on_c, 4, 60, 0
3, 123600, Note_on_c, 4, 61, 0
3, 123840, Note_on_c, 4, 61, 100
3, 123840, Note_on_c, 0, 68, 100
3, 124080, Note_on_c, 4, 61, 0
3, 124080, Note_on_c, 0, 68, 0
3, 125280, Note_on_c, 4, 60, 100
3, 125280, Note_on_c, 4, 61, 100
3, 125280, Note_on_c, 0, 68, 100
3, 125520, Note_on_c, 4, 60, 0
3, 125520, Note_on_c, 4, 61, 0
3, 125520, Note_on_c, 0, 68, 0
3, 125760, Note_on_c, 4, 61, 100
3, 126000, Note_on_c, 4, 61, 0
3, 126240, Note_on_c, 4, 61, 100
3, 126240, Note_on_c, 0, 68, 100
3, 126480, Note_on_c, 4, 61, 0
3, 126480, Note_on_c, 0, 68, 0
3, 126720, Note_on_c, 4, 60, 100
3, 126960, Note_on_c, 4, 60, 0
3, 128640, Note_on_c, 4, 60, 100
3, 128640, Note_on_c, 4, 61, 100
3, 128640, Note_on_c, 0, 68, 100
3, 128880, Note_on_c, 4, 60, 0
3, 128880, Note_on_c, 4, 61, 0
3, 128880, Note_on_c, 0, 68, 0
3, 129120, Note_on_c, 4, 60, 100
3, 129120, Note_on_c, 4, 61, 100
3, 129360, Note_on_c, 4, 60, 0
3, 129360, Note_on_c, 4, 61, 0
3, 129600, Note_on_c, 4, 61, 100
3, 129600, Note_on_c, 0, 68, 100
3, 129840, Note_on_c, 4, 61, 0
3, 129840, Note_on_c, 0, 68, 0
3, 130560, Note_on_c, 4, 60, 100
3, 130560, Note_on_c, 4, 61, 100
3, 130560, Note_on_c, 0, 68, 100
3, 130800, Note_on_c, 4, 60, 0
3, 130800, Note_on_c, 4, 61, 0
3, 130800, Note_on_c, 0, 68, 0
3, 131040, Note_on_c, 4, 60, 100
3, 131040, Note_on_c, 4, 61, 100
3, 131280, Note_on_c, 4, 60, 0
3, 131280, Note_on_c, 4, 61, 0
3, 131520, Note_on_c, 4, 61, 100
3, 131520, Note_on_c, 0, 68, 100
3, 131760, Note_on_c, 4, 61, 0
3, 131760, Note_on_c, 0, 68, 0
3, 132960, Note_on_c, 4, 60, 100
3, 132960, Note_on_c, 4, 61, 100
3, 132960, Note_on_c, 0, 68, 100
3, 133200, Note_on_c, 4, 60, 0
3, 133200, Note_on_c, 4, 61, 0
3, 133200, Note_on_c, 0, 68, 0
3, 133440, Note_on_c, 4, 61, 100
3, 133680, Note_on_c, 4, 61, 0
3, 133920, Note_on_c, 4, 61, 100
3, 134160, Note_on_c, 4, 61, 0
3, 134400, Note_on_c, 4, 60, 100
3, 134400, Note_on_c, 4, 61, 100
3, 134400, Note_on_c, 0, 68, 100
3, 134640, Note_on_c, 4, 60, 0
3, 134640, Note_on_c, 4, 61, 0
3, 134640, Note_on_c, 0, 68, 0
3, 134880, Note_on_c, 4, 60, 100
3, 135120, Note_on_c, 4, 60, 0
3, 135840, Note_on_c, 4, 60, 100
3, 135840, Note_on_c, 4, 61, 100
3, 135840, Note_on_c, 0, 69, 100
3, 136080, Note_on_c, 4, 60, 0
3, 136080, Note_on_c, 4, 61, 0
3, 136080, Note_on_c, 0, 69, 0
3, 136800, Note_on_c, 4, 60, 100
3, 137040, Note_on_c, 4, 60, 0
3, 137280, Note_on_c, 4, 61, 100
3, 137280, Note_on_c, 0, 70, 100
3, 137520, Note_on_c, 4, 61, 0
3, 137520, Note_on_c, 0, 70, 0
3, 137760, Note_on_c, 4, 60, 100
3, 138000, Note_on_c, 4, 60, 0
3, 138240, Note_on_c, 4, 60, 100
3, 138240, Note_on_c, 4, 61, 100
3, 138240, Note_on_c, 0, 68, 100
3, 138480, Note_on_c, 4, 60, 0
3, 138480, Note_on_c, 4, 61, 0
3, 138480, Note_on_c, 0, 68, 0
3, 138720, Note_on_c, 4, 60, 100
3, 138720, Note_on_c, 4, 61, 100
3, 138960, Note_on_c, 4, 60, 0
3, 138960, Note_on_c, 4, 61, 0
3, 139200, Note_on_c, 4, 61, 100
3, 139200, Note_on_c, 0, 68, 100
3, 139440, Note_on_c, 4, 61, 0
3, 139440, Note_on_c, 0, 68, 0
3, 140640, Note_on_c, 4, 60, 100
3, 140640, Note_on_c, 4, 61, 100
3, 140640, Note_on_c, 0, 68, 100
3, 140880, Note_on_c, 4, 60, 0
3, 140880, Note_on_c, 4, 61, 0
3, 140880, Note_on_c, 0, 68, 0
3, 141120, Note_on_c, 4, 61, 100
3, 141360, Note_on_c, 4, 61, 0
3, 141600, Note_on_c, 4, 61, 100
3, 141600, Note_on_c, 0, 68, 100
3, 141840, Note_on_c, 4, 61, 0
3, 141840, Note_on_c, 0, 68, 0
3, 142080, Note_on_c, 4, 60, 100
3, 142320, Note_on_c, 4, 60, 0
3, 144000, Note_on_c, 4, 60, 100
3, 144000, Note_on_c, 4, 61, 100
3, 144000, Note_on_c, 0, 68, 100
3, 144240, Note_on_c, 4, 60, 0
3, 144240, Note_on_c, 4, 61, 0
3, 144240, Note_on_c, 0, 68, 0
3, 144480, Note_on_c, 4, 60, 100
3, 144480, Note_on_c, 4, 61, 100
3, 144720, Note_on_c, 4, 60, 0
3, 144720, Note_on_c, 4, 61, 0
3, 144960, Note_on_c, 4, 61, 100
3, 144960, Note_on_c, 0, 68, 100
3, 145200, Note_on_c, 4, 61, 0
3, 145200, Note_on_c, 0, 68, 0
3, 145920, Note_on_c, 4, 60, 100
3, 145920, Note_on_c, 4, 61, 100
3, 145920, Note_on_c, 0, 68, 100
3, 146160, Note_on_c, 4, 60, 0
3, 146160, Note_on_c, 4, 61, 0
3, 146160, Note_on_c, 0, 68, 0
3, 146400, Note_on_c, 4, 60, 100
3, 146400, Note_on_c, 4, 61, 100
3, 146640, Note_on_c, 4, 60, 0
3, 146640, Note_on_c, 4, 61, 0
3, 146880, Note_on_c, 4, 61, 100
3, 146880, Note_on_c, 0, 68, 100
3, 147120, Note_on_c, 4, 61, 0
3, 147120, Note_on_c, 0, 68, 0
3, 148320, Note_on_c, 4, 60, 100
3, 148320, Note_on_c, 4, 61, 100
3, 148320, Note_on_c, 0, 68, 100
3, 148560, Note_on_c, 4, 60, 0
3, 148560, Note_on_c, 4, 61, 0
3, 148560, Note_on_c, 0, 68, 0
3, 148800, Note_on_c, 4, 61, 100
3, 149040, Note_on_c, 4, 61, 0
3, 149280, Note_on_c, 4, 61, 100
3, 149520, Note_on_c, 4, 61, 0
3, 149760, Note_on_c, 4, 60, 100
3, 149760, Note_on_c, 4, 61, 100
3, 149760, Note_on_c, 0, 68, 100
3, 150000, Note_on_c, 4, 60, 0
3, 150000, Note_on_c, 4, 61, 0
3, 150000, Note_on_c, 0, 68, 0
3, 150240, Note_on_c, 4, 60, 100
3, 150240, Note_on_c, 4, 61, 100
3, 150480, Note_on_c, 4, 60, 0
3, 150480, Note_on_c, 4, 61, 0
3, 150720, Note_on_c, 4, 61, 100
3, 150960, Note_on_c, 4, 61, 0
3, 151200, Note_on_c, 4, 60, 100
3, 151200, Note_on_c, 4, 61, 100
3, 151200, Note_on_c, 0, 69, 100
3, 151440, Note_on_c, 4, 60, 0
3, 151440, Note_on_c, 4, 61, 0
3, 151440, Note_on_c, 0, 69, 0
3, 151680, Note_on_c, 4, 61, 100
3, 151920, Note_on_c, 4, 61, 0
3, 152160, Note_on_c, 4, 60, 100
3, 152160, Note_on_c, 4, 61, 100
3, 152400, Note_on_c, 4, 60, 0
3, 152400, Note_on_c, 4, 61, 0
3, 152640, Note_on_c, 4, 61, 100
3, 152640, Note_on_c, 0, 70, 100
3, 152880, Note_on_c, 4, 61, 0
3, 152880, Note_on_c, 0, 70, 0
3, 153120, Note_on_c, 4, 60, 100
3, 153120, Note_on_c, 4, 61, 100
3, 153360, Note_on_c, 4, 60, 0
3, 153360, Note_on_c, 4, 61, 0
3, 153600, Note_on_c, 4, 60, 100
3, 153600, Note_on_c, 4, 61, 100
3, 153600, Note_on_c, 0, 68, 100
3, 153840, Note_on_c, 4, 60, 0
3, 153840, Note_on_c, 4, 61, 0
3, 153840, Note_on_c, 0, 68, 0
3, 154080, Note_on_c, 4, 60, 100
3, 154080, Note_on_c, 4, 61, 100
3, 154320, Note_on_c, 4, 60, 0
3, 154320, Note_on_c, 4, 61, 0
3, 154560, Note_on_c, 4, 61, 100
3, 154560, Note_on_c, 0, 68, 100
3, 154800, Note_on_c, 4, 61, 0
3, 154800, Note_on_c, 0, 68, 0
3, 156000, Note_on_c, 4, 60, 100
3, 156000, Note_on_c, 4, 61, 100
3, 156000, Note_on_c, 0, 68, 100
3, 156240, Note_on_c, 4, 60, 0
3, 156240, Note_on_c, 4, 61, 0
3, 156240, Note_on_c, 0, 68, 0
3, 156480, Note_on_c, 4, 61, 100
3, 156720, Note_on_c, 4, 61, 0
3, 156960, Note_on_c, 4, 61, 100
3, 156960, Note_on_c, 0, 68, 100
3, 157200, Note_on_c, 4, 61, 0
3, 157200, Note_on_c, 0, 68, 0
3, 157440, Note_on_c, 4, 60, 100
3, 157680, Note_on_c, 4, 60, 0
3, 159360, Note_on_c, 4, 60, 100
3, 159360, Note_on_c, 4, 61, 100
3, 159360, Note_on_c, 0, 68, 100
3, 159600, Note_on_c, 4, 60, 0
3, 159600, Note_on_c, 4, 61, 0
3, 159600, Note_on_c, 0, 68, 0
3, 159840, Note_on_c, 4, 60, 100
3, 159840, Note_on_c, 4, 61, 100
3, 160080, Note_on_c, 4, 60, 0
3, 160080, Note_on_c, 4, 61, 0
3, 160320, Note_on_c, 4, 61, 100
3, 160320, Note_on_c, 0, 68, 100
3, 160560, Note_on_c, 4, 61, 0
3, 160560, Note_on_c, 0, 68, 0
3, 161280, Note_on_c, 4, 60, 100
3, 161280, Note_on_c, 4, 61, 100
3, 161280, Note_on_c, 0, 68, 100
3, 161520, Note_on_c, 4, 60, 0
3, 161520, Note_on_c, 4, 61, 0
3, 161520, Note_on_c, 0, 68, 0
3, 161760, Note_on_c, 4, 60, 100
3, 161760, Note_on_c, 4, 61, 100
3, 162000, Note_on_c, 4, 60, 0
3, 162000, Note_on_c, 4, 61, 0
3, 162240, Note_on_c, 4, 61, 100
3, 162240, Note_on_c, 0, 68, 100
3, 162480, Note_on_c, 4, 61, 0
3, 162480, Note_on_c, 0, 68, 0
3, 163680, Note_on_c, 4, 60, 100
3, 163680, Note_on_c, 4, 61, 100
3, 163680, Note_on_c, 0, 68, 100
3, 163920, Note_on_c, 4, 60, 0
3, 163920, Note_on_c, 4, 61, 0
3, 163920, Note_on_c, 0, 68, 0
3, 164160, Note_on_c, 4, 61, 100
3, 164400, Note_on_c, 4, 61, 0
3, 164640, Note_on_c, 4, 61, 100
3, 164880, Note_on_c, 4, 61, 0
3, 165120, Note_on_c, 4, 60, 100
3, 165120, Note_on_c, 4, 61, 100
3, 165120, Note_on_c, 0, 68, 100
3, 165360, Note_on_c, 4, 60, 0
3, 165360, Note_on_c, 4, 61, 0
3, 165360, Note_on_c, 0, 68, 0
3, 165600, Note_on_c, 4, 60, 100
3, 165600, Note_on_c, 4, 61, 100
3, 165840, Note_on_c, 4, 60, 0
3, 165840, Note_on_c, 4, 61, 0
3, 166080, Note_on_c, 4, 61, 100
3, 166320, Note_on_c, 4, 61, 0
3, 166560, Note_on_c, 4, 60, 100
3, 166560, Note_on_c, 4, 61, 100
3, 166560, Note_on_c, 0, 69, 100
3, 166800, Note_on_c, 4, 60, 0
3, 166800, Note_on_c, 4, 61, 0
3, 166800, Note_on_c, 0, 69, 0
3, 167040, Note_on_c, 4, 61, 100
3, 167280, Note_on_c, 4, 61, 0
3, 167520, Note_on_c, 4, 60, 100
3, 167520, Note_on_c, 4, 61, 100
3, 167760, Note_on_c, 4, 60, 0
3, 167760, Note_on_c, 4, 61, 0
3, 168000, Note_on_c, 4, 61, 100
3, 168000, Note_on_c, 0, 70, 100
3, 168240, Note_on_c, 4, 61, 0
3, 168240, Note_on_c, 0, 70, 0
3, 168480, Note_on_c, 4, 60, 100
3, 168480, Note_on_c, 4, 61, 100
3, 168720, Note_on_c, 4, 60, 0
3, 168720, Note_on_c, 4, 61, 0
3, 168960, Note_on_c, 4, 60, 100
3, 168960, Note_on_c, 4, 61, 100
3, 168960, Note_on_c, 0, 68, 100
3, 169200, Note_on_c, 4, 60, 0
3, 169200, Note_on_c, 4, 61, 0
3, 169200, Note_on_c, 0, 68, 0
3, 169440, Note_on_c, 4, 60, 100
3, 169440, Note_on_c, 4, 61, 100
3, 169680, Note_on_c, 4, 60, 0
3, 169680, Note_on_c, 4, 61, 0
3, 169920, Note_on_c, 4, 61, 100
3, 169920, Note_on_c, 0, 68, 100
3, 170160, Note_on_c, 4, 61, 0
3, 170160, Note_on_c, 0, 68, 0
3, 170400, Note_on_c, 4, 60, 100
3, 170400, Note_on_c, 4, 61, 100
3, 170640, Note_on_c, 4, 60, 0
3, 170640, Note_on_c, 4, 61, 0
3, 170880, Note_on_c, 4, 60, 100
3, 170880, Note_on_c, 4, 61, 100
3, 170880, Note_on_c, 0, 68, 100
3, 171120, Note_on_c, 4, 60, 0
3, 171120, Note_on_c, 4, 61, 0
3, 171120, Note_on_c, 0, 68, 0
3, 171360, Note_on_c, 4, 60, 100
3, 171360, Note_on_c, 4, 61, 100
3, 171600, Note_on_c, 4, 60, 0
3, 171600, Note_on_c, 4, 61, 0
3, 171840, Note_on_c, 4, 61, 100
3, 171840, Note_on_c, 0, 68, 100
3, 172080, Note_on_c, 4, 61, 0
3, 172080, Note_on_c, 0, 68, 0
3, 172320, Note_on_c, 4, 60, 100
3, 172320, Note_on_c, 4, 61, 100
3, 172560, Note_on_c, 4, 60, 0
3, 172560, Note_on_c, 4, 61, 0
3, 172800, Note_on_c, 4, 60, 100
3, 172800, Note_on_c, 4, 61, 100
3, 172800, Note_on_c, 0, 68, 100
3, 173040, Note_on_c, 4, 60, 0
3, 173040, Note_on_c, 4, 61, 0
3, 173040, Note_on_c, 0, 68, 0
3, 173280, Note_on_c, 4, 60, 100
3, 173280, Note_on_c, 4, 61, 100
3, 173520, Note_on_c, 4, 60, 0
3, 173520, Note_on_c, 4, 61, 0
3, 173760, Note_on_c, 4, 61, 100
3, 173760, Note_on_c, 0, 68, 100
3, 174000, Note_on_c, 4, 61, 0
3, 174000, Note_on_c, 0, 68, 0
3, 174240, Note_on_c, 4, 60, 100
3, 174240, Note_on_c, 4, 61, 100
3, 174480, Note_on_c, 4, 60, 0
3, 174480, Note_on_c, 4, 61, 0
3, 174720, Note_on_c, 4, 60, 100
3, 174720, Note_on_c, 4, 61, 100
3, 174720, Note_on_c, 0, 68, 100
3, 174960, Note_on_c, 4, 60, 0
3, 174960, Note_on_c, 4, 61, 0
3, 174960, Note_on_c, 0, 68, 0
3, 175200, Note_on_c, 4, 60, 100
3, 175200, Note_on_c, 4, 61, 100
3, 175440, Note_on_c, 4, 60, 0
3, 175440, Note_on_c, 4, 61, 0
3, 175680, Note_on_c, 4, 61, 100
3, 175680, Note_on_c, 0, 68, 100
3, 175920, Note_on_c, 4, 61, 0
3, 175920, Note_on_c, 0, 68, 0
3, 176160, Note_on_c, 4, 60, 100
3, 176160, Note_on_c, 4, 61, 100
3, 176400, Note_on_c, 4, 60, 0
3, 176400, Note_on_c, 4, 61, 0
3, 176640, Note_on_c, 4, 60, 100
3, 176640, Note_on_c, 4, 61, 100
3, 176640, Note_on_c, 0, 69, 100
3, 176880, Note_on_c, 4, 60, 0
3, 176880, Note_on_c, 4, 61, 0
3, 176880, Note_on_c, 0, 69, 0
3, 177120, Note_on_c, 4, 60, 100
3, 177120, Note_on_c, 4, 61, 100
3, 177360, Note_on_c, 4, 60, 0
3, 177360, Note_on_c, 4, 61, 0
3, 177600, Note_on_c, 4, 61, 100
3, 177600, Note_on_c, 0, 69, 100
3, 177840, Note_on_c, 4, 61, 0
3, 177840, Note_on_c, 0, 69, 0
3, 178080, Note_on_c, 4, 60, 100
3, 178080, Note_on_c, 4, 61, 100
3, 178320, Note_on_c, 4, 60, 0
3, 178320, Note_on_c, 4, 61, 0
3, 178560, Note_on_c, 4, 60, 100
3, 178560, Note_on_c, 4, 61, 100
3, 178560, Note_on_c, 0, 69, 100
3, 178800, Note_on_c, 4, 60, 0
3, 178800, Note_on_c, 4, 61, 0
3, 178800, Note_on_c, 0, 69, 0
3, 179040, Note_on_c, 4, 60, 100
3, 179040, Note_on_c, 4, 61, 100
3, 179280, Note_on_c, 4, 60, 0
3, 179280, Note_on_c, 4, 61, 0
3, 179520, Note_on_c, 4, 61, 100
3, 179520, Note_on_c, 0, 69, 100
3, 179760, Note_on_c, 4, 61, 0
3, 179760, Note_on_c, 0, 69, 0
3, 180000, Note_on_c, 4, 60, 100
3, 180000, Note_on_c, 4, 61, 100
3, 180240, Note_on_c, 4, 60, 0
3, 180240, Note_on_c, 4, 61, 0
3, 180480, Note_on_c, 4, 60, 100
3, 180480, Note_on_c, 4, 61, 100
3, 180480, Note_on_c, 0, 69, 100
3, 180720, Note_on_c, 4, 60, 0
3, 180720, Note_on_c, 4, 61, 0
3, 180720, Note_on_c, 0, 69, 0
3, 180960, Note_on_c, 4, 60, 100
3, 180960, Note_on_c, 4, 61, 100
3, 181200, Note_on_c, 4, 60, 0
3, 181200, Note_on_c, 4, 61, 0
3, 181440, Note_on_c, 4, 61, 100
3, 181440, Note_on_c, 0, 69, 100
3, 181680, Note_on_c, 4, 61, 0
3, 181680, Note_on_c, 0, 69, 0
3, 181920, Note_on_c, 4, 60, 100
3, 181920, Note_on_c, 4, 61, 100
3, 182160, Note_on_c, 4, 60, 0
3, 182160, Note_on_c, 4, 61, 0
3, 182400, Note_on_c, 4, 60, 100
3, 182400, Note_on_c, 4, 61, 100
3, 182400, Note_on_c, 0, 69, 100
3, 182640, Note_on_c, 4, 60, 0
3, 182640, Note_on_c, 4, 61, 0
3, 182640, Note_on_c, 0, 69, 0
3, 182880, Note_on_c, 4, 60, 100
3, 182880, Note_on_c, 4, 61, 100
3, 183120, Note_on_c, 4, 60, 0
3, 183120, Note_on_c, 4, 61, 0
3, 183360, Note_on_c, 4, 61, 100
3, 183360, Note_on_c, 0, 69, 100
3, 183600, Note_on_c, 4, 61, 0
3, 183600, Note_on_c, 0, 69, 0
3, 183840, Note_on_c, 4, 60, 100
3, 183840, Note_on_c, 4, 61, 100
3, 184080, Note_on_c, 4, 60, 0
3, 184080, Note_on_c, 4, 61, 0
3, 184320, Note_on_c, 4, 60, 100
3, 184320, Note_on_c, 4, 61, 100
3, 184320, Note_on_c, 0, 70, 100
3, 184560, Note_on_c, 4, 60, 0
3, 184560, Note_on_c, 4, 61, 0
3, 184560, Note_on_c, 0, 70, 0
3, 184800, Note_on_c, 4, 60, 100
3, 184800, Note_on_c, 4, 61, 100
3, 185040, Note_on_c, 4, 60, 0
3, 185040, Note_on_c, 4, 61, 0
3, 185280, Note_on_c, 4, 61, 100
3, 185280, Note_on_c, 0, 70, 100
3, 185520, Note_on_c, 4, 61, 0
3, 185520, Note_on_c, 0, 70, 0
3, 185760, Note_on_c, 4, 60, 100
3, 185760, Note_on_c, 4, 61, 100
3, 186000, Note_on_c, 4, 60, 0
3, 186000, Note_on_c, 4, 61, 0
3, 186240, Note_on_c, 4, 60, 100
3, 186240, Note_on_c, 4, 61, 100
3, 186240, Note_on_c, 0, 70, 100
3, 186480, Note_on_c, 4, 60, 0
3, 186480, Note_on_c, 4, 61, 0
3, 186480, Note_on_c, 0, 70, 0
3, 186720, Note_on_c, 4, 60, 100
3, 186720, Note_on_c, 4, 61, 100
3, 186960, Note_on_c, 4, 60, 0
3, 186960, Note_on_c, 4, 61, 0
3, 187200, Note_on_c, 4, 61, 100
3, 187200, Note_on_c, 0, 70, 100
3, 187440, Note_on_c, 4, 61, 0
3, 187440, Note_on_c, 0, 70, 0
3, 187680, Note_on_c, 4, 60, 100
3, 187680, Note_on_c, 4, 61, 100
3, 187920, Note_on_c, 4, 60, 0
3, 187920, Note_on_c, 4, 61, 0
3, 188160, Note_on_c, 4, 60, 100
3, 188160, Note_on_c, 4, 61, 100
3, 188160, Note_on_c, 0, 70, 100
3, 188400, Note_on_c, 4, 60, 0
3, 188400, Note_on_c, 4, 61, 0
3, 188400, Note_on_c, 0, 70, 0
3, 188640, Note_on_c, 4, 60, 100
3, 188640, Note_on_c, 4, 61, 100
3, 188880, Note_on_c, 4, 60, 0
3, 188880, Note_on_c, 4, 61, 0
3, 189120, Note_on_c, 4, 61, 100
3, 189120, Note_on_c, 0, 70, 100
3, 189360, Note_on_c, 4, 61, 0
3, 189360, Note_on_c, 0, 70, 0
3, 189600, Note_on_c, 4, 60, 100
3, 189600, Note_on_c, 4, 61, 100
3, 189840, Note_on_c, 4, 60, 0
3, 189840, Note_on_c, 4, 61, 0
3, 190080, Note_on_c, 4, 60, 100
3, 190080, Note_on_c, 4, 61, 100
3, 190080, Note_on_c, 0, 70, 100
3, 190320, Note_on_c, 4, 60, 0
3, 190320, Note_on_c, 4, 61, 0
3, 190320, Note_on_c, 0, 70, 0
3, 190560, Note_on_c, 4, 60, 100
3, 190560, Note_on_c, 4, 61, 100
3, 190800, Note_on_c, 4, 60, 0
3, 190800, Note_on_c, 4, 61, 0
3, 191040, Note_on_c, 4, 61, 100
3, 191040, Note_on_c, 0, 70, 100
3, 191280, Note_on_c, 4, 61, 0
3, 191280, Note_on_c, 0, 70, 0
3, 191520, Note_on_c, 4, 60, 100
3, 191520, Note_on_c, 4, 61, 100
3, 191760, Note_on_c, 4, 60, 0
3, 191760, Note_on_c, 4, 61, 0
3, 192000, Note_on_c, 4, 61, 100
3, 192000, Note_on_c, 0, 69, 100
3, 192240, Note_on_c, 4, 61, 0
3, 192240, Note_on_c, 0, 69, 0
3, 192480, Note_on_c, 4, 60, 100
3, 192480, Note_on_c, 4, 61, 100
3, 192720, Note_on_c, 4, 60, 0
3, 192720, Note_on_c, 4, 61, 0
3, 192960, Note_on_c, 4, 60, 100
3, 192960, Note_on_c, 4, 61, 100
3, 193200, Note_on_c, 4, 60, 0
3, 193200, Note_on_c, 4, 61, 0
3, 193440, Note_on_c, 4, 61, 100
3, 193440, Note_on_c, 0, 69, 100
3, 193680, Note_on_c, 4, 61, 0
3, 193680, Note_on_c, 0, 69, 0
3, 193920, Note_on_c, 4, 60, 100
3, 193920, Note_on_c, 4, 61, 100
3, 194160, Note_on_c, 4, 60, 0
3, 194160, Note_on_c, 4, 61, 0
3, 194400, Note_on_c, 4, 60, 100
3, 194400, Note_on_c, 4, 61, 100
3, 194640, Note_on_c, 4, 60, 0
3, 194640, Note_on_c, 4, 61, 0
3, 194880, Note_on_c, 4, 61, 100
3, 194880, Note_on_c, 0, 69, 100
3, 195120, Note_on_c, 4, 61, 0
3, 195120, Note_on_c, 0, 69, 0
3, 195360, Note_on_c, 4, 60, 100
3, 195360, Note_on_c, 4, 61, 100
3, 195600, Note_on_c, 4, 60, 0
3, 195600, Note_on_c, 4, 61, 0
3, 195840, Note_on_c, 4, 60, 100
3, 195840, Note_on_c, 4, 61, 100
3, 196080, Note_on_c, 4, 60, 0
3, 196080, Note_on_c, 4, 61, 0
3, 196320, Note_on_c, 4, 61, 100
3, 196320, Note_on_c, 0, 69, 100
3, 196560, Note_on_c, 4, 61, 0
3, 196560, Note_on_c, 0, 69, 0
3, 196800, Note_on_c, 4, 60, 100
3, 196800, Note_on_c, 4, 61, 100
3, 197040, Note_on_c, 4, 60, 0
3, 197040, Note_on_c, 4, 61, 0
3, 197280, Note_on_c, 4, 60, 100
3, 197280, Note_on_c, 4, 61, 100
3, 197520, Note_on_c, 4, 60, 0
3, 197520, Note_on_c, 4, 61, 0
3, 197760, Note_on_c, 4, 61, 100
3, 197760, Note_on_c, 0, 69, 100
3, 198000, Note_on_c, 4, 61, 0
3, 198000, Note_on_c, 0, 69, 0
3, 198240, Note_on_c, 4, 60, 100
3, 198240, Note_on_c, 4, 61, 100
3, 198480, Note_on_c, 4, 60, 0
3, 198480, Note_on_c, 4, 61, 0
3, 198720, Note_on_c, 4, 60, 100
3, 198720, Note_on_c, 4, 61, 100
3, 198720, Note_on_c, 0, 69, 100
3, 198960, Note_on_c, 4, 60, 0
3, 198960, Note_on_c, 4, 61, 0
3, 198960, Note_on_c, 0, 69, 0
3, 199200, Note_on_c, 4, 61, 100
3, 199440, Note_on_c, 4, 61, 0
3, 199680, Note_on_c, 4, 60, 100
3, 199680, Note_on_c, 4, 61, 100
3, 199680, Note_on_c, 0, 68, 100
3, 199920, Note_on_c, 4, 60, 0
3, 199920, Note_on_c, 4, 61, 0
3, 199920, Note_on_c, 0, 68, 0
3, 200160, Note_on_c, 4, 60, 100
3, 200160, Note_on_c, 4, 61, 100
3, 200400, Note_on_c, 4, 60, 0
3, 200400, Note_on_c, 4, 61, 0
3, 200640, Note_on_c, 4, 61, 100
3, 200640, Note_on_c, 0, 68, 100
3, 200880, Note_on_c, 4, 61, 0
3, 200880, Note_on_c, 0, 68, 0
3, 201120, Note_on_c, 4, 60, 100
3, 201120, Note_on_c, 4, 61, 100
3, 201360, Note_on_c, 4, 60, 0
3, 201360, Note_on_c, 4, 61, 0
3, 201600, Note_on_c, 4, 60, 100
3, 201600, Note_on_c, 4, 61, 100
3, 201600, Note_on_c, 0, 68, 100
3, 201840, Note_on_c, 4, 60, 0
3, 201840, Note_on_c, 4, 61, 0
3, 201840, Note_on_c, 0, 68, 0
3, 202080, Note_on_c, 4, 60, 100
3, 202080, Note_on_c, 4, 61, 100
3, 202320, Note_on_c, 4, 60, 0
3, 202320, Note_on_c, 4, 61, 0
3, 202560, Note_on_c, 4, 61, 100
3, 202560, Note_on_c, 0, 68, 100
3, 202800, Note_on_c, 4, 61, 0
3, 202800, Note_on_c, 0, 68, 0
3, 203040, Note_on_c, 4, 60, 100
3, 203040, Note_on_c, 4, 61, 100
3, 203280, Note_on_c, 4, 60, 0
3, 203280, Note_on_c, 4, 61, 0
3, 203520, Note_on_c, 4, 60, 100
3, 203520, Note_on_c, 4, 61, 100
3, 203520, Note_on_c, 0, 68, 100
3, 203760, Note_on_c, 4, 60, 0
3, 203760, Note_on_c, 4, 61, 0
3, 203760, Note_on_c, 0, 68, 0
3, 204000, Note_on_c, 4, 60, 100
3, 204000, Note_on_c, 4, 61, 100
3, 204240, Note_on_c, 4, 60, 0
3, 204240, Note_on_c, 4, 61, 0
3, 204480, Note_on_c, 4, 61, 100
3, 204480, Note_on_c, 0, 68, 100
3, 204720, Note_on_c, 4, 61, 0
3, 204720, Note_on_c, 0, 68, 0
3, 204960, Note_on_c, 4, 60, 100
3, 204960, Note_on_c, 4, 61, 100
3, 205200, Note_on_c, 4, 60, 0
3, 205200, Note_on_c, 4, 61, 0
3, 205440, Note_on_c, 4, 60, 100
3, 205440, Note_on_c, 4, 61, 100
3, 205440, Note_on_c, 0, 68, 100
3, 205680, Note_on_c, 4, 60, 0
3, 205680, Note_on_c, 4, 61, 0
3, 205680, Note_on_c, 0, 68, 0
3, 205920, Note_on_c, 4, 60, 100
3, 205920, Note_on_c, 4, 61, 100
3, 206160, Note_on_c, 4, 60, 0
3, 206160, Note_on_c, 4, 61, 0
3, 206400, Note_on_c, 4, 61, 100
3, 206400, Note_on_c, 0, 68, 100
3, 206640, Note_on_c, 4, 61, 0
3, 206640, Note_on_c, 0, 68, 0
3, 206880, Note_on_c, 4, 60, 100
3, 206880, Note_on_c, 4, 61, 100
3, 207120, Note_on_c, 4, 60, 0
3, 207120, Note_on_c, 4, 61, 0
3, 207360, Note_on_c, 4, 60, 100
3, 207360, Note_on_c, 4, 61, 100
3, 207360, Note_on_c, 0, 69, 100
3, 207600, Note_on_c, 4, 60, 0
3, 207600, Note_on_c, 4, 61, 0
3, 207600, Note_on_c, 0, 69, 0
3, 207840, Note_on_c, 4, 60, 100
3, 207840, Note_on_c, 4, 61, 100
3, 208080, Note_on_c, 4, 60, 0
3, 208080, Note_on_c, 4, 61, 0
3, 208320, Note_on_c, 4, 61, 100
3, 208320, Note_on_c, 0, 69, 100
3, 208560, Note_on_c, 4, 61, 0
3, 208560, Note_on_c, 0, 69, 0
3, 208800, Note_on_c, 4, 60, 100
3, 208800, Note_on_c, 4, 61, 100
3, 209040, Note_on_c, 4, 60, 0
3, 209040, Note_on_c, 4, 61, 0
3, 209280, Note_on_c, 4, 60, 100
3, 209280, Note_on_c, 4, 61, 100
3, 209280, Note_on_c, 0, 69, 100
3, 209520, Note_on_c, 4, 60, 0
3, 209520, Note_on_c, 4, 61, 0
3, 209520, Note_on_c, 0, 69, 0
3, 209760, Note_on_c, 4, 60, 100
3, 209760, Note_on_c, 4, 61, 100
3, 210000, Note_on_c, 4, 60, 0
3, 210000, Note_on_c, 4, 61, 0
3, 210240, Note_on_c, 4, 61, 100
3, 210240, Note_on_c, 0, 69, 100
3, 210480, Note_on_c, 4, 61, 0
3, 210480, Note_on_c, 0, 69, 0
3, 210720, Note_on_c, 4, 60, 100
3, 210720, Note_on_c, 4, 61, 100
3, 210960, Note_on_c, 4, 60, 0
3, 210960, Note_on_c, 4, 61, 0
3, 211200, Note_on_c, 4, 60, 100
3, 211200, Note_on_c, 4, 61, 100
3, 211200, Note_on_c, 0, 69, 100
3, 211440, Note_on_c, 4, 60, 0
3, 211440, Note_on_c, 4, 61, 0
3, 211440, Note_on_c, 0, 69, 0
3, 211680, Note_on_c, 4, 61, 100
3, 211920, Note_on_c, 4, 61, 0
3, 212160, Note_on_c, 4, 61, 100
3, 212160, Note_on_c, 0, 69, 100
3, 212400, Note_on_c, 4, 61, 0
3, 212400, Note_on_c, 0, 69, 0
3, 212640, Note_on_c, 4, 60, 100
3, 212640, Note_on_c, 4, 61, 100
3, 212880, Note_on_c, 4, 60, 0
3, 212880, Note_on_c, 4, 61, 0
3, 213120, Note_on_c, 4, 60, 100
3, 213120, Note_on_c, 4, 61, 100
3, 213120, Note_on_c, 0, 69, 100
3, 213360, Note_on_c, 4, 60, 0
3, 213360, Note_on_c, 4, 61, 0
3, 213360, Note_on_c, 0, 69, 0
3, 213600, Note_on_c, 4, 60, 100
3, 213600, Note_on_c, 4, 61, 100
3, 213840, Note_on_c, 4, 60, 0
3, 213840, Note_on_c, 4, 61, 0
3, 214080, Note_on_c, 4, 61, 100
3, 214080, Note_on_c, 0, 69, 100
3, 214320, Note_on_c, 4, 61, 0
3, 214320, Note_on_c, 0, 69, 0
3, 214560, Note_on_c, 4, 60, 100
3, 214560, Note_on_c, 4, 61, 100
3, 214800, Note_on_c, 4, 60, 0
3, 214800, Note_on_c, 4, 61, 0
3, 215040, Note_on_c, 4, 60, 100
3, 215040, Note_on_c, 4, 61, 100
3, 215040, Note_on_c, 0, 70, 100
3, 215280, Note_on_c, 4, 60, 0
3, 215280, Note_on_c, 4, 61, 0
3, 215280, Note_on_c, 0, 70, 0
3, 215520, Note_on_c, 4, 60, 100
3, 215520, Note_on_c, 4, 61, 100
3, 215760, Note_on_c, 4, 60, 0
3, 215760, Note_on_c, 4, 61, 0
3, 216000, Note_on_c, 4, 61, 100
3, 216000, Note_on_c, 0, 70, 100
3, 216240, Note_on_c, 4, 61, 0
3, 216240, Note_on_c, 0, 70, 0
3, 216480, Note_on_c, 4, 60, 100
3, 216480, Note_on_c, 4, 61, 100
3, 216720, Note_on_c, 4, 60, 0
3, 216720, Note_on_c, 4, 61, 0
3, 216960, Note_on_c, 4, 60, 100
3, 216960, Note_on_c, 4, 61, 100
3, 216960, Note_on_c, 0, 70, 100
3, 217200, Note_on_c, 4, 60, 0
3, 217200, Note_on_c, 4, 61, 0
3, 217200, Note_on_c, 0, 70, 0
3, 217440, Note_on_c, 4, 60, 100
3, 217440, Note_on_c, 4, 61, 100
3, 217680, Note_on_c, 4, 60, 0
3, 217680, Note_on_c, 4, 61, 0
3, 217920, Note_on_c, 4, 61, 100
3, 217920, Note_on_c, 0, 70, 100
3, 218160, Note_on_c, 4, 61, 0
3, 218160, Note_on_c, 0, 70, 0
3, 218400, Note_on_c, 4, 60, 100
3, 218400, Note_on_c, 4, 61, 100
3, 218640, Note_on_c, 4, 60, 0
3, 218640, Note_on_c, 4, 61, 0
3, 218880, Note_on_c, 4, 60, 100
3, 218880, Note_on_c, 4, 61, 100
3, 218880, Note_on_c, 0, 70, 100
3, 219120, Note_on_c, 4, 60, 0
3, 219120, Note_on_c, 4, 61, 0
3, 219120, Note_on_c, 0, 70, 0
3, 219360, Note_on_c, 4, 60, 100
3, 219360, Note_on_c, 4, 61, 100
3, 219600, Note_on_c, 4, 60, 0
3, 219600, Note_on_c, 4, 61, 0
3, 219840, Note_on_c, 4, 61, 100
3, 219840, Note_on_c, 0, 70, 100
3, 220080, Note_on_c, 4, 61, 0
3, 220080, Note_on_c, 0, 70, 0
3, 220320, Note_on_c, 4, 60, 100
3, 220320, Note_on_c, 4, 61, 100
3, 220560, Note_on_c, 4, 60, 0
3, 220560, Note_on_c, 4, 61, 0
3, 220800, Note_on_c, 4, 60, 100
3, 220800, Note_on_c, 4, 61, 100
3, 220800, Note_on_c, 0, 70, 100
3, 221040, Note_on_c, 4, 60, 0
3, 221040, Note_on_c, 4, 61, 0
3, 221040, Note_on_c, 0, 70, 0
3, 221280, Note_on_c, 4, 60, 100
3, 221280, Note_on_c, 4, 61, 100
3, 221520, Note_on_c, 4, 60, 0
3, 221520, Note_on_c, 4, 61, 0
3, 221760, Note_on_c, 4, 61, 100
3, 221760, Note_on_c, 0, 70, 100
3, 222000, Note_on_c, 4, 61, 0
3, 222000, Note_on_c, 0, 70, 0
3, 222240, Note_on_c, 4, 60, 100
3, 222240, Note_on_c, 4, 61, 100
3, 222480, Note_on_c, 4, 60, 0
3, 222480, Note_on_c, 4, 61, 0
3, 222720, Note_on_c, 4, 60, 100
3, 222720, Note_on_c, 4, 61, 100
3, 222720, Note_on_c, 0, 69, 100
3, 222960, Note_on_c, 4, 60, 0
3, 222960, Note_on_c, 4, 61, 0
3, 222960, Note_on_c, 0, 69, 0
3, 223200, Note_on_c, 4, 60, 100
3, 223200, Note_on_c, 4, 61, 100
3, 223440, Note_on_c, 4, 60, 0
3, 223440, Note_on_c, 4, 61, 0
3, 223680, Note_on_c, 4, 61, 100
3, 223680, Note_on_c, 0, 69, 100
3, 223920, Note_on_c, 4, 61, 0
3, 223920, Note_on_c, 0, 69, 0
3, 224160, Note_on_c, 4, 61, 100
3, 224400, Note_on_c, 4, 61, 0
3, 224640, Note_on_c, 4, 60, 100
3, 224640, Note_on_c, 4, 61, 100
3, 224640, Note_on_c, 0, 69, 100
3, 224880, Note_on_c, 4, 60, 0
3, 224880, Note_on_c, 4, 61, 0
3, 224880, Note_on_c, 0, 69, 0
3, 225120, Note_on_c, 4, 60, 100
3, 225120, Note_on_c, 4, 61, 100
3, 225360, Note_on_c, 4, 60, 0
3, 225360, Note_on_c, 4, 61, 0
3, 225600, Note_on_c, 4, 61, 100
3, 225600, Note_on_c, 0, 69, 100
3, 225840, Note_on_c, 4, 61, 0
3, 225840, Note_on_c, 0, 69, 0
3, 226080, Note_on_c, 4, 60, 100
3, 226080, Note_on_c, 4, 61, 100
3, 226320, Note_on_c, 4, 60, 0
3, 226320, Note_on_c, 4, 61, 0
3, 226560, Note_on_c, 4, 60, 100
3, 226560, Note_on_c, 4, 61, 100
3, 226560, Note_on_c, 0, 69, 100
3, 226800, Note_on_c, 4, 60, 0
3, 226800, Note_on_c, 4, 61, 0
3, 226800, Note_on_c, 0, 69, 0
3, 227040, Note_on_c, 4, 60, 100
3, 227040, Note_on_c, 4, 61, 100
3, 227280, Note_on_c, 4, 60, 0
3, 227280, Note_on_c, 4, 61, 0
3, 227520, Note_on_c, 4, 61, 100
3, 227520, Note_on_c, 0, 69, 100
3, 227760, Note_on_c, 4, 61, 0
3, 227760, Note_on_c, 0, 69, 0
3, 228000, Note_on_c, 4, 60, 100
3, 228000, Note_on_c, 4, 61, 100
3, 228240, Note_on_c, 4, 60, 0
3, 228240, Note_on_c, 4, 61, 0
3, 228480, Note_on_c, 4, 60, 100
3, 228480, Note_on_c, 4, 61, 100
3, 228480, Note_on_c, 0, 69, 100
3, 228720, Note_on_c, 4, 60, 0
3, 228720, Note_on_c, 4, 61, 0
3, 228720, Note_on_c, 0, 69, 0
3, 228960, Note_on_c, 4, 60, 100
3, 228960, Note_on_c, 4, 61, 100
3, 229200, Note_on_c, 4, 60, 0
3, 229200, Note_on_c, 4, 61, 0
3, 229440, Note_on_c, 4, 60, 100
3, 229440, Note_on_c, 4, 61, 100
3, 229440, Note_on_c, 0, 69, 100
3, 229680, Note_on_c, 4, 60, 0
3, 229680, Note_on_c, 4, 61, 0
3, 229680, Note_on_c, 0, 69, 0
3, 229920, Note_on_c, 4, 60, 100
3, 229920, Note_on_c, 4, 61, 100
3, 230160, Note_on_c, 4, 60, 0
3, 230160, Note_on_c, 4, 61, 0
3, 230400, Note_on_c, 4, 60, 100
3, 230400, Note_on_c, 4, 61, 100
3, 230400, Note_on_c, 0, 68, 100
3, 230640, Note_on_c, 4, 60, 0
3, 230640, Note_on_c, 4, 61, 0
3, 230640, Note_on_c, 0, 68, 0
3, 232320, Note_on_c, 4, 60, 100
3, 232560, Note_on_c, 4, 60, 0
3, 232800, Note_on_c, 4, 60, 100
3, 233040, Note_on_c, 4, 60, 0
3, 233760, Note_on_c, 4, 60, 100
3, 234000, Note_on_c, 4, 60, 0
3, 234720, Note_on_c, 4, 60, 100
3, 234960, Note_on_c, 4, 60, 0
3, 236160, Note_on_c, 4, 60, 100
3, 236160, Note_on_c, 4, 61, 100
3, 236160, Note_on_c, 0, 69, 100
3, 236400, Note_on_c, 4, 60, 0
3, 236400, Note_on_c, 4, 61, 0
3, 236400, Note_on_c, 0, 69, 0
3, 236640, Note_on_c, 4, 60, 100
3, 236640, Note_on_c, 4, 61, 100
3, 236880, Note_on_c, 4, 60, 0
3, 236880, Note_on_c, 4, 61, 0
3, 237120, Note_on_c, 4, 61, 100
3, 237120, Note_on_c, 0, 69, 100
3, 237360, Note_on_c, 4, 61, 0
3, 237360, Note_on_c, 0, 69, 0
3, 238080, Note_on_c, 4, 60, 100
3, 238080, Note_on_c, 4, 61, 100
3, 238080, Note_on_c, 0, 68, 100
3, 238320, Note_on_c, 4, 60, 0
3, 238320, Note_on_c, 4, 61, 0
3, 238320, Note_on_c, 0, 68, 0
3, 238560, Note_on_c, 4, 60, 100
3, 238800, Note_on_c, 4, 60, 0
3, 240000, Note_on_c, 4, 60, 100
3, 240240, Note_on_c, 4, 60, 0
3, 240480, Note_on_c, 4, 60, 100
3, 240720, Note_on_c, 4, 60, 0
3, 241440, Note_on_c, 4, 60, 100
3, 241680, Note_on_c, 4, 60, 0
3, 242400, Note_on_c, 4, 60, 100
3, 242640, Note_on_c, 4, 60, 0
3, 243840, Note_on_c, 4, 60, 100
3, 243840, Note_on_c, 4, 61, 100
3, 243840, Note_on_c, 0, 68, 100
3, 244080, Note_on_c, 4, 60, 0
3, 244080, Note_on_c, 4, 61, 0
3, 244080, Note_on_c, 0, 68, 0
3, 244320, Note_on_c, 4, 60, 100
3, 244320, Note_on_c, 4, 61, 100
3, 244560, Note_on_c, 4, 60, 0
3, 244560, Note_on_c, 4, 61, 0
3, 244800, Note_on_c, 4, 61, 100
3, 244800, Note_on_c, 0, 68, 100
3, 245040, Note_on_c, 4, 61, 0
3, 245040, Note_on_c, 0, 68, 0
3, 245760, Note_on_c, 4, 60, 100
3, 245760, Note_on_c, 4, 61, 100
3, 245760, Note_on_c, 0, 68, 100
3, 246000, Note_on_c, 4, 60, 0
3, 246000, Note_on_c, 4, 61, 0
3, 246000, Note_on_c, 0, 68, 0
3, 246240, Note_on_c, 4, 60, 100
3, 246240, Note_on_c, 4, 61, 100
3, 246480, Note_on_c, 4, 60, 0
3, 246480, Note_on_c, 4, 61, 0
3, 246720, Note_on_c, 4, 61, 100
3, 246720, Note_on_c, 0, 68, 100
3, 246960, Note_on_c, 4, 61, 0
3, 246960, Note_on_c, 0, 68, 0
3, 248160, Note_on_c, 4, 60, 100
3, 248160, Note_on_c, 4, 61, 100
3, 248160, Note_on_c, 0, 68, 100
3, 248400, Note_on_c, 4, 60, 0
3, 248400, Note_on_c, 4, 61, 0
3, 248400, Note_on_c, 0, 68, 0
3, 248640, Note_on_c, 4, 61, 100
3, 248880, Note_on_c, 4, 61, 0
3, 249120, Note_on_c, 4, 61, 100
3, 249120, Note_on_c, 0, 68, 100
3, 249360, Note_on_c, 4, 61, 0
3, 249360, Note_on_c, 0, 68, 0
3, 249600, Note_on_c, 4, 60, 100
3, 249840, Note_on_c, 4, 60, 0
3, 251520, Note_on_c, 4, 60, 100
3, 251520, Note_on_c, 4, 61, 100
3, 251520, Note_on_c, 0, 68, 100
3, 251760, Note_on_c, 4, 60, 0
3, 251760, Note_on_c, 4, 61, 0
3, 251760, Note_on_c, 0, 68, 0
3, 252000, Note_on_c, 4, 60, 100
3, 252000, Note_on_c, 4, 61, 100
3, 252240, Note_on_c, 4, 60, 0
3, 252240, Note_on_c, 4, 61, 0
3, 252480, Note_on_c, 4, 61, 100
3, 252480, Note_on_c, 0, 68, 100
3, 252720, Note_on_c, 4, 61, 0
3, 252720, Note_on_c, 0, 68, 0
3, 253440, Note_on_c, 4, 60, 100
3, 253440, Note_on_c, 4, 61, 100
3, 253440, Note_on_c, 0, 68, 100
3, 253680, Note_on_c, 4, 60, 0
3, 253680, Note_on_c, 4, 61, 0
3, 253680, Note_on_c, 0, 68, 0
3, 253920, Note_on_c, 4, 60, 100
3, 253920, Note_on_c, 4, 61, 100
3, 254160, Note_on_c, 4, 60, 0
3, 254160, Note_on_c, 4, 61, 0
3, 254400, Note_on_c, 4, 61, 100
3, 254400, Note_on_c, 0, 68, 100
3, 254640, Note_on_c, 4, 61, 0
3, 254640, Note_on_c, 0, 68, 0
3, 255840, Note_on_c, 4, 60, 100
3, 255840, Note_on_c, 4, 61, 100
3, 255840, Note_on_c, 0, 68, 100
3, 256080, Note_on_c, 4, 60, 0
3, 256080, Note_on_c, 4, 61, 0
3, 256080, Note_on_c, 0, 68, 0
3, 256320, Note_on_c, 4, 61, 100
3, 256560, Note_on_c, 4, 61, 0
3, 256800, Note_on_c, 4, 61, 100
3, 257040, Note_on_c, 4, 61, 0
3, 257280, Note_on_c, 4, 60, 100
3, 257280, Note_on_c, 4, 61, 100
3, 257280, Note_on_c, 0, 68, 100
3, 257520, Note_on_c, 4, 60, 0
3, 257520, Note_on_c, 4, 61, 0
3, 257520, Note_on_c, 0, 68, 0
3, 257760, Note_on_c, 4, 60, 100
3, 257760, Note_on_c, 4, 61, 100
3, 258000, Note_on_c, 4, 60, 0
3, 258000, Note_on_c, 4, 61, 0
3, 258240, Note_on_c, 4, 61, 100
3, 258480, Note_on_c, 4, 61, 0
3, 258720, Note_on_c, 4, 60, 100
3, 258720, Note_on_c, 4, 61, 100
3, 258720, Note_on_c, 0, 69, 100
3, 258960, Note_on_c, 4, 60, 0
3, 258960, Note_on_c, 4, 61, 0
3, 258960, Note_on_c, 0, 69, 0
3, 259200, Note_on_c, 4, 61, 100
3, 259440, Note_on_c, 4, 61, 0
3, 259680, Note_on_c, 4, 60, 100
3, 259680, Note_on_c, 4, 61, 100
3, 259920, Note_on_c, 4, 60, 0
3, 259920, Note_on_c, 4, 61, 0
3, 260160, Note_on_c, 4, 61, 100
3, 260160, Note_on_c, 0, 70, 100
3, 260400, Note_on_c, 4, 61, 0
3, 260400, Note_on_c, 0, 70, 0
3, 260640, Note_on_c, 4, 60, 100
3, 260640, Note_on_c, 4, 61, 100
3, 260880, Note_on_c, 4, 60, 0
3, 260880, Note_on_c, 4, 61, 0
3, 261120, Note_on_c, 4, 60, 100
3, 261120, Note_on_c, 4, 61, 100
3, 261120, Note_on_c, 0, 68, 100
3, 261360, Note_on_c, 4, 60, 0
3, 261360, Note_on_c, 4, 61, 0
3, 261360, Note_on_c, 0, 68, 0
3, 261600, Note_on_c, 4, 60, 100
3, 261600, Note_on_c, 4, 61, 100
3, 261840, Note_on_c, 4, 60, 0
3, 261840, Note_on_c, 4, 61, 0
3, 262080, Note_on_c, 4, 61, 100
3, 262080, Note_on_c, 0, 68, 100
3, 262320, Note_on_c, 4, 61, 0
3, 262320, Note_on_c, 0, 68, 0
3, 263520, Note_on_c, 4, 60, 100
3, 263520, Note_on_c, 4, 61, 100
3, 263520, Note_on_c, 0, 68, 100
3, 263760, Note_on_c, 4, 60, 0
3, 263760, Note_on_c, 4, 61, 0
3, 263760, Note_on_c, 0, 68, 0
3, 264000, Note_on_c, 4, 61, 100
3, 264240, Note_on_c, 4, 61, 0
3, 264480, Note_on_c, 4, 61, 100
3, 264480, Note_on_c, 0, 68, 100
3, 264720, Note_on_c, 4, 61, 0
3, 264720, Note_on_c, 0, 68, 0
3, 264960, Note_on_c, 4, 60, 100
3, 265200, Note_on_c, 4, 60, 0
3, 266880, Note_on_c, 4, 60, 100
3, 266880, Note_on_c, 4, 61, 100
3, 266880, Note_on_c, 0, 68, 100
3, 267120, Note_on_c, 4, 60, 0
3, 267120, Note_on_c, 4, 61, 0
3, 267120, Note_on_c, 0, 68, 0
3, 267360, Note_on_c, 4, 60, 100
3, 267360, Note_on_c, 4, 61, 100
3, 267600, Note_on_c, 4, 60, 0
3, 267600, Note_on_c, 4, 61, 0
3, 267840, Note_on_c, 4, 61, 100
3, 267840, Note_on_c, 0, 68, 100
3, 268080, Note_on_c, 4, 61, 0
3, 268080, Note_on_c, 0, 68, 0
3, 268800, Note_on_c, 4, 60, 100
3, 268800, Note_on_c, 4, 61, 100
3, 268800, Note_on_c, 0, 68, 100
3, 269040, Note_on_c, 4, 60, 0
3, 269040, Note_on_c, 4, 61, 0
3, 269040, Note_on_c, 0, 68, 0
3, 269280, Note_on_c, 4, 60, 100
3, 269280, Note_on_c, 4, 61, 100
3, 269520, Note_on_c, 4, 60, 0
3, 269520, Note_on_c, 4, 61, 0
3, 269760, Note_on_c, 4, 61, 100
3, 269760, Note_on_c, 0, 68, 100
3, 270000, Note_on_c, 4, 61, 0
3, 270000, Note_on_c, 0, 68, 0
3, 271200, Note_on_c, 4, 60, 100
3, 271200, Note_on_c, 4, 61, 100
3, 271200, Note_on_c, 0, 68, 100
3, 271440, Note_on_c, 4, 60, 0
3, 271440, Note_on_c, 4, 61, 0
3, 271440, Note_on_c, 0, 68, 0
3, 271680, Note_on_c, 4, 61, 100
3, 271920, Note_on_c, 4, 61, 0
3, 272160, Note_on_c, 4, 61, 100
3, 272400, Note_on_c, 4, 61, 0
3, 272640, Note_on_c, 4, 60, 100
3, 272640, Note_on_c, 4, 61, 100
3, 272640, Note_on_c, 0, 68, 100
3, 272880, Note_on_c, 4, 60, 0
3, 272880, Note_on_c, 4, 61, 0
3, 272880, Note_on_c, 0, 68, 0
3, 273120, Note_on_c, 4, 60, 100
3, 273360, Note_on_c, 4, 60, 0
3, 274080, Note_on_c, 4, 60, 100
3, 274080, Note_on_c, 4, 61, 100
3, 274080, Note_on_c, 0, 69, 100
3, 274320, Note_on_c, 4, 60, 0
3, 274320, Note_on_c, 4, 61, 0
3, 274320, Note_on_c, 0, 69, 0
3, 274560, Note_on_c, 4, 61, 100
3, 274800, Note_on_c, 4, 61, 0
3, 275040, Note_on_c, 4, 60, 100
3, 275040, Note_on_c, 4, 61, 100
3, 275280, Note_on_c, 4, 60, 0
3, 275280, Note_on_c, 4, 61, 0
3, 275520, Note_on_c, 4, 61, 100
3, 275520, Note_on_c, 0, 70, 100
3, 275760, Note_on_c, 4, 61, 0
3, 275760, Note_on_c, 0, 70, 0
3, 276000, Note_on_c, 4, 60, 100
3, 276000, Note_on_c, 4, 61, 100
3, 276240, Note_on_c, 4, 60, 0
3, 276240, Note_on_c, 4, 61, 0
3, 276480, Note_on_c, 4, 60, 100
3, 276480, Note_on_c, 4, 61, 100
3, 276480, Note_on_c, 0, 68, 100
3, 276720, Note_on_c, 4, 60, 0
3, 276720, Note_on_c, 4, 61, 0
3, 276720, Note_on_c, 0, 68, 0
3, 276960, Note_on_c, 4, 60, 100
3, 276960, Note_on_c, 4, 61, 100
3, 277200, Note_on_c, 4, 60, 0
3, 277200, Note_on_c, 4, 61, 0
3, 277440, Note_on_c, 4, 61, 100
3, 277440, Note_on_c, 0, 68, 100
3, 277680, Note_on_c, 4, 61, 0
3, 277680, Note_on_c, 0, 68, 0
3, 278880, Note_on_c, 4, 60, 100
3, 278880, Note_on_c, 4, 61, 100
3, 278880, Note_on_c, 0, 68, 100
3, 279120, Note_on_c, 4, 60, 0
3, 279120, Note_on_c, 4, 61, 0
3, 279120, Note_on_c, 0, 68, 0
3, 279360, Note_on_c, 4, 61, 100
3, 279600, Note_on_c, 4, 61, 0
3, 279840, Note_on_c, 4, 61, 100
3, 279840, Note_on_c, 0, 68, 100
3, 280080, Note_on_c, 4, 61, 0
3, 280080, Note_on_c, 0, 68, 0
3, 280320, Note_on_c, 4, 60, 100
3, 280560, Note_on_c, 4, 60, 0
3, 282240, Note_on_c, 4, 60, 100
3, 282240, Note_on_c, 4, 61, 100
3, 282240, Note_on_c, 0, 68, 100
3, 282480, Note_on_c, 4, 60, 0
3, 282480, Note_on_c, 4, 61, 0
3, 282480, Note_on_c, 0, 68, 0
3, 282720, Note_on_c, 4, 60, 100
3, 282720, Note_on_c, 4, 61, 100
3, 282960, Note_on_c, 4, 60, 0
3, 282960, Note_on_c, 4, 61, 0
3, 283200, Note_on_c, 4, 61, 100
3, 283200, Note_on_c, 0, 68, 100
3, 283440, Note_on_c, 4, 61, 0
3, 283440, Note_on_c, 0, 68, 0
3, 284160, Note_on_c, 4, 60, 100
3, 284160, Note_on_c, 4, 61, 100
3, 284160, Note_on_c, 0, 68, 100
3, 284400, Note_on_c, 4, 60, 0
3, 284400, Note_on_c, 4, 61, 0
3, 284400, Note_on_c, 0, 68, 0
3, 284640, Note_on_c, 4, 60, 100
3, 284640, Note_on_c, 4, 61, 100
3, 284880, Note_on_c, 4, 60, 0
3, 284880, Note_on_c, 4, 61, 0
3, 285120, Note_on_c, 4, 61, 100
3, 285120, Note_on_c, 0, 68, 100
3, 285360, Note_on_c, 4, 61, 0
3, 285360, Note_on_c, 0, 68, 0
3, 286560, Note_on_c, 4, 60, 100
3, 286560, Note_on_c, 4, 61, 100
3, 286560, Note_on_c, 0, 68, 100
3, 286800, Note_on_c, 4, 60, 0
3, 286800, Note_on_c, 4, 61, 0
3, 286800, Note_on_c, 0, 68, 0
3, 287040, Note_on_c, 4, 61, 100
3, 287280, Note_on_c, 4, 61, 0
3, 287520, Note_on_c, 4, 61, 100
3, 287760, Note_on_c, 4, 61, 0
3, 288000, Note_on_c, 4, 60, 100
3, 288000, Note_on_c, 4, 61, 100
3, 288000, Note_on_c, 0, 68, 100
3, 288240, Note_on_c, 4, 60, 0
3, 288240, Note_on_c, 4, 61, 0
3, 288240, Note_on_c, 0, 68, 0
3, 288480, Note_on_c, 4, 60, 100
3, 288480, Note_on_c, 4, 61, 100
3, 288720, Note_on_c, 4, 60, 0
3, 288720, Note_on_c, 4, 61, 0
3, 288960, Note_on_c, 4, 61, 100
3, 289200, Note_on_c, 4, 61, 0
3, 289440, Note_on_c, 4, 60, 100
3, 289440, Note_on_c, 4, 61, 100
3, 289440, Note_on_c, 0, 69, 100
3, 289680, Note_on_c, 4, 60, 0
3, 289680, Note_on_c, 4, 61, 0
3, 289680, Note_on_c, 0, 69, 0
3, 289920, Note_on_c, 4, 61, 100
3, 290160, Note_on_c, 4, 61, 0
3, 290400, Note_on_c, 4, 60, 100
3, 290400, Note_on_c, 4, 61, 100
3, 290640, Note_on_c, 4, 60, 0
3, 290640, Note_on_c, 4, 61, 0
3, 290880, Note_on_c, 4, 61, 100
3, 290880, Note_on_c, 0, 70, 100
3, 291120, Note_on_c, 4, 61, 0
3, 291120, Note_on_c, 0, 70, 0
3, 291360, Note_on_c, 4, 60, 100
3, 291360, Note_on_c, 4, 61, 100
3, 291600, Note_on_c, 4, 60, 0
3, 291600, Note_on_c, 4, 61, 0
3, 291840, Note_on_c, 4, 60, 100
3, 291840, Note_on_c, 4, 61, 100
3, 291840, Note_on_c, 0, 68, 100
3, 292080, Note_on_c, 4, 60, 0
3, 292080, Note_on_c, 4, 61, 0
3, 292080, Note_on_c, 0, 68, 0
3, 292320, Note_on_c, 4, 60, 100
3, 292320, Note_on_c, 4, 61, 100
3, 292560, Note_on_c, 4, 60, 0
3, 292560, Note_on_c, 4, 61, 0
3, 292800, Note_on_c, 4, 61, 100
3, 292800, Note_on_c, 0, 68, 100
3, 293040, Note_on_c, 4, 61, 0
3, 293040, Note_on_c, 0, 68, 0
3, 294240, Note_on_c, 4, 60, 100
3, 294240, Note_on_c, 4, 61, 100
3, 294240, Note_on_c, 0, 68, 100
3, 294480, Note_on_c, 4, 60, 0
3, 294480, Note_on_c, 4, 61, 0
3, 294480, Note_on_c, 0, 68, 0
3, 294720, Note_on_c, 4, 61, 100
3, 294960, Note_on_c, 4, 61, 0
3, 295200, Note_on_c, 4, 61, 100
3, 295200, Note_on_c, 0, 68, 100
3, 295440, Note_on_c, 4, 61, 0
3, 295440, Note_on_c, 0, 68, 0
3, 295680, Note_on_c, 4, 60, 100
3, 295920, Note_on_c, 4, 60, 0
3, 297600, Note_on_c, 4, 60, 100
3, 297600, Note_on_c, 4, 61, 100
3, 297600, Note_on_c, 0, 68, 100
3, 297840, Note_on_c, 4, 60, 0
3, 297840, Note_on_c, 4, 61, 0
3, 297840, Note_on_c, 0, 68, 0
3, 298080, Note_on_c, 4, 60, 100
3, 298080, Note_on_c, 4, 61, 100
3, 298320, Note_on_c, 4, 60, 0
3, 298320, Note_on_c, 4, 61, 0
3, 298560, Note_on_c, 4, 61, 100
3, 298560, Note_on_c, 0, 68, 100
3, 298800, Note_on_c, 4, 61, 0
3, 298800, Note_on_c, 0, 68, 0
3, 299520, Note_on_c, 4, 60, 100
3, 299520, Note_on_c, 4, 61, 100
3, 299520, Note_on_c, 0, 68, 100
3, 299760, Note_on_c, 4, 60, 0
3, 299760, Note_on_c, 4, 61, 0
3, 299760, Note_on_c, 0, 68, 0
3, 300000, Note_on_c, 4, 60, 100
3, 300000, Note_on_c, 4, 61, 100
3, 300240, Note_on_c, 4, 60, 0
3, 300240, Note_on_c, 4, 61, 0
3, 300480, Note_on_c, 4, 61, 100
3, 300480, Note_on_c, 0, 68, 100
3, 300720, Note_on_c, 4, 61, 0
3, 300720, Note_on_c, 0, 68, 0
3, 301920, Note_on_c, 4, 60, 100
3, 301920, Note_on_c, 4, 61, 100
3, 301920, Note_on_c, 0, 68, 100
3, 302160, Note_on_c, 4, 60, 0
3, 302160, Note_on_c, 4, 61, 0
3, 302160, Note_on_c, 0, 68, 0
3, 302400, Note_on_c, 4, 61, 100
3, 302640, Note_on_c, 4, 61, 0
3, 302880, Note_on_c, 4, 61, 100
3, 303120, Note_on_c, 4, 61, 0
3, 303360, Note_on_c, 4, 60, 100
3, 303360, Note_on_c, 4, 61, 100
3, 303360, Note_on_c, 0, 68, 100
3, 303600, Note_on_c, 4, 60, 0
3, 303600, Note_on_c, 4, 61, 0
3, 303600, Note_on_c, 0, 68, 0
3, 303840, Note_on_c, 4, 60, 100
3, 303840, Note_on_c, 4, 61, 100
3, 304080, Note_on_c, 4, 60, 0
3, 304080, Note_on_c, 4, 61, 0
3, 304320, Note_on_c, 4, 61, 100
3, 304560, Note_on_c, 4, 61, 0
3, 304800, Note_on_c, 4, 60, 100
3, 304800, Note_on_c, 4, 61, 100
3, 304800, Note_on_c, 0, 69, 100
3, 305040, Note_on_c, 4, 60, 0
3, 305040, Note_on_c, 4, 61, 0
3, 305040, Note_on_c, 0, 69, 0
3, 305280, Note_on_c, 4, 61, 100
3, 305520, Note_on_c, 4, 61, 0
3, 305760, Note_on_c, 4, 60, 100
3, 305760, Note_on_c, 4, 61, 100
3, 306000, Note_on_c, 4, 60, 0
3, 306000, Note_on_c, 4, 61, 0
3, 306240, Note_on_c, 4, 61, 100
3, 306240, Note_on_c, 0, 70, 100
3, 306480, Note_on_c, 4, 61, 0
3, 306480, Note_on_c, 0, 70, 0
3, 306720, Note_on_c, 4, 60, 100
3, 306720, Note_on_c, 4, 61, 100
3, 306960, Note_on_c, 4, 60, 0
3, 306960, Note_on_c, 4, 61, 0
3, 307200, Note_on_c, 4, 60, 100
3, 307200, Note_on_c, 4, 61, 100
3, 307200, Note_on_c, 0, 68, 100
3, 307440, Note_on_c, 4, 60, 0
3, 307440, Note_on_c, 4, 61, 0
3, 307440, Note_on_c, 0, 68, 0
3, 307680, Note_on_c, 4, 60, 100
3, 307680, Note_on_c, 4, 61, 100
3, 307920, Note_on_c, 4, 60, 0
3, 307920, Note_on_c, 4, 61, 0
3, 308160, Note_on_c, 4, 61, 100
3, 308160, Note_on_c, 0, 68, 100
3, 308400, Note_on_c, 4, 61, 0
3, 308400, Note_on_c, 0, 68, 0
3, 309600, Note_on_c, 4, 60, 100
3, 309600, Note_on_c, 4, 61, 100
3, 309600, Note_on_c, 0, 68, 100
3, 309840, Note_on_c, 4, 60, 0
3, 309840, Note_on_c, 4, 61, 0
3, 309840, Note_on_c, 0, 68, 0
3, 310080, Note_on_c, 4, 61, 100
3, 310320, Note_on_c, 4, 61, 0
3, 310560, Note_on_c, 4, 61, 100
3, 310560, Note_on_c, 0, 68, 100
3, 310800, Note_on_c, 4, 61, 0
3, 310800, Note_on_c, 0, 68, 0
3, 311040, Note_on_c, 4, 60, 100
3, 311280, Note_on_c, 4, 60, 0
3, 312960, Note_on_c, 4, 60, 100
3, 312960, Note_on_c, 4, 61, 100
3, 312960, Note_on_c, 0, 68, 100
3, 313200, Note_on_c, 4, 60, 0
3, 313200, Note_on_c, 4, 61, 0
3, 313200, Note_on_c, 0, 68, 0
3, 313440, Note_on_c, 4, 60, 100
3, 313440, Note_on_c, 4, 61, 100
3, 313680, Note_on_c, 4, 60, 0
3, 313680, Note_on_c, 4, 61, 0
3, 313920, Note_on_c, 4, 61, 100
3, 313920, Note_on_c, 0, 68, 100
3, 314160, Note_on_c, 4, 61, 0
3, 314160, Note_on_c, 0, 68, 0
3, 314880, Note_on_c, 4, 60, 100
3, 314880, Note_on_c, 4, 61, 100
3, 314880, Note_on_c, 0, 68, 100
3, 315120, Note_on_c, 4, 60, 0
3, 315120, Note_on_c, 4, 61, 0
3, 315120, Note_on_c, 0, 68, 0
3, 315360, Note_on_c, 4, 60, 100
3, 315360, Note_on_c, 4, 61, 100
3, 315600, Note_on_c, 4, 60, 0
3, 315600, Note_on_c, 4, 61, 0
3, 315840, Note_on_c, 4, 61, 100
3, 315840, Note_on_c, 0, 68, 100
3, 316080, Note_on_c, 4, 61, 0
3, 316080, Note_on_c, 0, 68, 0
3, 317280, Note_on_c, 4, 60, 100
3, 317280, Note_on_c, 4, 61, 100
3, 317280, Note_on_c, 0, 68, 100
3, 317520, Note_on_c, 4, 60, 0
3, 317520, Note_on_c, 4, 61, 0
3, 317520, Note_on_c, 0, 68, 0
3, 317760, Note_on_c, 4, 61, 100
3, 318000, Note_on_c, 4, 61, 0
3, 318240, Note_on_c, 4, 61, 100
3, 318480, Note_on_c, 4, 61, 0
3, 318720, Note_on_c, 4, 60, 100
3, 318720, Note_on_c, 4, 61, 100
3, 318720, Note_on_c, 0, 68, 100
3, 318960, Note_on_c, 4, 60, 0
3, 318960, Note_on_c, 4, 61, 0
3, 318960, Note_on_c, 0, 68, 0
3, 319200, Note_on_c, 4, 60, 100
3, 319200, Note_on_c, 4, 61, 100
3, 319440, Note_on_c, 4, 60, 0
3, 319440, Note_on_c, 4, 61, 0
3, 319680, Note_on_c, 4, 61, 100
3, 319920, Note_on_c, 4, 61, 0
3, 320160, Note_on_c, 4, 60, 100
3, 320160, Note_on_c, 4, 61, 100
3, 320160, Note_on_c, 0, 69, 100
3, 320400, Note_on_c, 4, 60, 0
3, 320400, Note_on_c, 4, 61, 0
3, 320400, Note_on_c, 0, 69, 0
3, 320640, Note_on_c, 4, 61, 100
3, 320880, Note_on_c, 4, 61, 0
3, 321120, Note_on_c, 4, 60, 100
3, 321120, Note_on_c, 4, 61, 100
3, 321360, Note_on_c, 4, 60, 0
3, 321360, Note_on_c, 4, 61, 0
3, 321600, Note_on_c, 4, 61, 100
3, 321600, Note_on_c, 0, 70, 100
3, 321840, Note_on_c, 4, 61, 0
3, 321840, Note_on_c, 0, 70, 0
3, 322080, Note_on_c, 4, 60, 100
3, 322080, Note_on_c, 4, 61, 100
3, 322320, Note_on_c, 4, 60, 0
3, 322320, Note_on_c, 4, 61, 0
3, 322560, Note_on_c, 4, 60, 100
3, 322560, Note_on_c, 4, 61, 100
3, 322560, Note_on_c, 0, 68, 100
3, 322800, Note_on_c, 4, 60, 0
3, 322800, Note_on_c, 4, 61, 0
3, 322800, Note_on_c, 0, 68, 0
3, 323040, Note_on_c, 4, 60, 100
3, 323040, Note_on_c, 4, 61, 100
3, 323280, Note_on_c, 4, 60, 0
3, 323280, Note_on_c, 4, 61, 0
3, 323520, Note_on_c, 4, 61, 100
3, 323520, Note_on_c, 0, 68, 100
3, 323760, Note_on_c, 4, 61, 0
3, 323760, Note_on_c, 0, 68, 0
3, 324960, Note_on_c, 4, 60, 100
3, 324960, Note_on_c, 4, 61, 100
3, 324960, Note_on_c, 0, 68, 100
3, 325200, Note_on_c, 4, 60, 0
3, 325200, Note_on_c, 4, 61, 0
3, 325200, Note_on_c, 0, 68, 0
3, 325440, Note_on_c, 4, 61, 100
3, 325680, Note_on_c, 4, 61, 0
3, 325920, Note_on_c, 4, 61, 100
3, 325920, Note_on_c, 0, 68, 100
3, 326160, Note_on_c, 4, 61, 0
3, 326160, Note_on_c, 0, 68, 0
3, 326400, Note_on_c, 4, 60, 100
3, 326640, Note_on_c, 4, 60, 0
3, 328320, Note_on_c, 4, 60, 100
3, 328320, Note_on_c, 4, 61, 100
3, 328320, Note_on_c, 0, 68, 100
3, 328560, Note_on_c, 4, 60, 0
3, 328560, Note_on_c, 4, 61, 0
3, 328560, Note_on_c, 0, 68, 0
3, 328800, Note_on_c, 4, 60, 100
3, 328800, Note_on_c, 4, 61, 100
3, 329040, Note_on_c, 4, 60, 0
3, 329040, Note_on_c, 4, 61, 0
3, 329280, Note_on_c, 4, 61, 100
3, 329280, Note_on_c, 0, 68, 100
3, 329520, Note_on_c, 4, 61, 0
3, 329520, Note_on_c, 0, 68, 0
3, 330240, Note_on_c, 4, 60, 100
3, 330240, Note_on_c, 4, 61, 100
3, 330240, Note_on_c, 0, 68, 100
3, 330480, Note_on_c, 4, 60, 0
3, 330480, Note_on_c, 4, 61, 0
3, 330480, Note_on_c, 0, 68, 0
3, 330720, Note_on_c, 4, 60, 100
3, 330720, Note_on_c, 4, 61, 100
3, 330960, Note_on_c, 4, 60, 0
3, 330960, Note_on_c, 4, 61, 0
3, 331200, Note_on_c, 4, 61, 100
3, 331200, Note_on_c, 0, 68, 100
3, 331440, Note_on_c, 4, 61, 0
3, 331440, Note_on_c, 0, 68, 0
3, 332640, Note_on_c, 4, 60, 100
3, 332640, Note_on_c, 4, 61, 100
3, 332640, Note_on_c, 0, 68, 100
3, 332880, Note_on_c, 4, 60, 0
3, 332880, Note_on_c, 4, 61, 0
3, 332880, Note_on_c, 0, 68, 0
3, 333120, Note_on_c, 4, 61, 100
3, 333360, Note_on_c, 4, 61, 0
3, 333600, Note_on_c, 4, 61, 100
3, 333840, Note_on_c, 4, 61, 0
3, 334080, Note_on_c, 4, 60, 100
3, 334080, Note_on_c, 4, 61, 100
3, 334080, Note_on_c, 0, 68, 100
3, 334320, Note_on_c, 4, 60, 0
3, 334320, Note_on_c, 4, 61, 0
3, 334320, Note_on_c, 0, 68, 0
3, 334560, Note_on_c, 4, 60, 100
3, 334560, Note_on_c, 4, 61, 100
3, 334800, Note_on_c, 4, 60, 0
3, 334800, Note_on_c, 4, 61, 0
3, 335040, Note_on_c, 4, 61, 100
3, 335280, Note_on_c, 4, 61, 0
3, 335520, Note_on_c, 4, 60, 100
3, 335520, Note_on_c, 4, 61, 100
3, 335520, Note_on_c, 0, 69, 100
3, 335760, Note_on_c, 4, 60, 0
3, 335760, Note_on_c, 4, 61, 0
3, 335760, Note_on_c, 0, 69, 0
3, 336000, Note_on_c, 4, 60, 100
3, 336000, Note_on_c, 4, 61, 100
3, 336240, Note_on_c, 4, 60, 0
3, 336240, Note_on_c, 4, 61, 0
3, 336480, Note_on_c, 4, 60, 100
3, 336480, Note_on_c, 4, 61, 100
3, 336720, Note_on_c, 4, 60, 0
3, 336720, Note_on_c, 4, 61, 0
3, 336960, Note_on_c, 4, 61, 100
3, 336960, Note_on_c, 0, 70, 100
3, 337200, Note_on_c, 4, 61, 0
3, 337200, Note_on_c, 0, 70, 0
3, 337440, Note_on_c, 4, 60, 100
3, 337440, Note_on_c, 4, 61, 100
3, 337680, Note_on_c, 4, 60, 0
3, 337680, Note_on_c, 4, 61, 0
3, 337920, Note_on_c, 4, 60, 100
3, 337920, Note_on_c, 4, 61, 100
3, 337920, Note_on_c, 0, 68, 100
3, 338160, Note_on_c, 4, 60, 0
3, 338160, Note_on_c, 4, 61, 0
3, 338160, Note_on_c, 0, 68, 0
3, 338400, Note_on_c, 4, 60, 100
3, 338400, Note_on_c, 4, 61, 100
3, 338640, Note_on_c, 4, 60, 0
3, 338640, Note_on_c, 4, 61, 0
3, 338880, Note_on_c, 4, 61, 100
3, 338880, Note_on_c, 0, 68, 100
3, 339120, Note_on_c, 4, 61, 0
3, 339120, Note_on_c, 0, 68, 0
3, 339360, Note_on_c, 4, 60, 100
3, 339360, Note_on_c, 4, 61, 100
3, 339600, Note_on_c, 4, 60, 0
3, 339600, Note_on_c, 4, 61, 0
3, 339840, Note_on_c, 4, 60, 100
3, 339840, Note_on_c, 4, 61, 100
3, 339840, Note_on_c, 0, 68, 100
3, 340080, Note_on_c, 4, 60, 0
3, 340080, Note_on_c, 4, 61, 0
3, 340080, Note_on_c, 0, 68, 0
3, 340320, Note_on_c, 4, 60, 100
3, 340320, Note_on_c, 4, 61, 100
3, 340560, Note_on_c, 4, 60, 0
3, 340560, Note_on_c, 4, 61, 0
3, 340800, Note_on_c, 4, 61, 100
3, 340800, Note_on_c, 0, 68, 100
3, 341040, Note_on_c, 4, 61, 0
3, 341040, Note_on_c, 0, 68, 0
3, 341280, Note_on_c, 4, 60, 100
3, 341280, Note_on_c, 4, 61, 100
3, 341520, Note_on_c, 4, 60, 0
3, 341520, Note_on_c, 4, 61, 0
3, 341760, Note_on_c, 4, 60, 100
3, 341760, Note_on_c, 4, 61, 100
3, 341760, Note_on_c, 0, 68, 100
3, 342000, Note_on_c, 4, 60, 0
3, 342000, Note_on_c, 4, 61, 0
3, 342000, Note_on_c, 0, 68, 0
3, 342240, Note_on_c, 4, 60, 100
3, 342240, Note_on_c, 4, 61, 100
3, 342480, Note_on_c, 4, 60, 0
3, 342480, Note_on_c, 4, 61, 0
3, 342720, Note_on_c, 4, 61, 100
3, 342720, Note_on_c, 0, 68, 100
3, 342960, Note_on_c, 4, 61, 0
3, 342960, Note_on_c, 0, 68, 0
3, 343200, Note_on_c, 4, 60, 100
3, 343200, Note_on_c, 4, 61, 100
3, 343440, Note_on_c, 4, 60, 0
3, 343440, Note_on_c, 4, 61, 0
3, 343680, Note_on_c, 4, 60, 100
3, 343680, Note_on_c, 4, 61, 100
3, 343680, Note_on_c, 0, 68, 100
3, 343920, Note_on_c, 4, 60, 0
3, 343920, Note_on_c, 4, 61, 0
3, 343920, Note_on_c, 0, 68, 0
3, 344160, Note_on_c, 4, 60, 100
3, 344160, Note_on_c, 4, 61, 100
3, 344400, Note_on_c, 4, 60, 0
3, 344400, Note_on_c, 4, 61, 0
3, 344640, Note_on_c, 4, 61, 100
3, 344640, Note_on_c, 0, 68, 100
3, 344880, Note_on_c, 4, 61, 0
3, 344880, Note_on_c, 0, 68, 0
3, 345120, Note_on_c, 4, 60, 100
3, 345120, Note_on_c, 4, 61, 100
3, 345360, Note_on_c, 4, 60, 0
3, 345360, Note_on_c, 4, 61, 0
3, 345600, Note_on_c, 4, 60, 100
3, 345600, Note_on_c, 4, 61, 100
3, 345600, Note_on_c, 0, 69, 100
3, 345840, Note_on_c, 4, 60, 0
3, 345840, Note_on_c, 4, 61, 0
3, 345840, Note_on_c, 0, 69, 0
3, 346080, Note_on_c, 4, 60, 100
3, 346080, Note_on_c, 4, 61, 100
3, 346320, Note_on_c, 4, 60, 0
3, 346320, Note_on_c, 4, 61, 0
3, 346560, Note_on_c, 4, 61, 100
3, 346560, Note_on_c, 0, 69, 100
3, 346800, Note_on_c, 4, 61, 0
3, 346800, Note_on_c, 0, 69, 0
3, 347040, Note_on_c, 4, 60, 100
3, 347040, Note_on_c, 4, 61, 100
3, 347280, Note_on_c, 4, 60, 0
3, 347280, Note_on_c, 4, 61, 0
3, 347520, Note_on_c, 4, 60, 100
3, 347520, Note_on_c, 4, 61, 100
3, 347520, Note_on_c, 0, 69, 100
3, 347760, Note_on_c, 4, 60, 0
3, 347760, Note_on_c, 4, 61, 0
3, 347760, Note_on_c, 0, 69, 0
3, 348000, Note_on_c, 4, 60, 100
3, 348000, Note_on_c, 4, 61, 100
3, 348240, Note_on_c, 4, 60, 0
3, 348240, Note_on_c, 4, 61, 0
3, 348480, Note_on_c, 4, 61, 100
3, 348480, Note_on_c, 0, 69, 100
3, 348720, Note_on_c, 4, 61, 0
3, 348720, Note_on_c, 0, 69, 0
3, 348960, Note_on_c, 4, 60, 100
3, 348960, Note_on_c, 4, 61, 100
3, 349200, Note_on_c, 4, 60, 0
3, 349200, Note_on_c, 4, 61, 0
3, 349440, Note_on_c, 4, 60, 100
3, 349440, Note_on_c, 4, 61, 100
3, 349440, Note_on_c, 0, 69, 100
3, 349680, Note_on_c, 4, 60, 0
3, 349680, Note_on_c, 4, 61, 0
3, 349680, Note_on_c, 0, 69, 0
3, 349920, Note_on_c, 4, 60, 100
3, 349920, Note_on_c, 4, 61, 100
3, 350160, Note_on_c, 4, 60, 0
3, 350160, Note_on_c, 4, 61, 0
3, 350400, Note_on_c, 4, 61, 100
3, 350400, Note_on_c, 0, 69, 100
3, 350640, Note_on_c, 4, 61, 0
3, 350640, Note_on_c, 0, 69, 0
3, 350880, Note_on_c, 4, 60, 100
3, 350880, Note_on_c, 4, 61, 100
3, 351120, Note_on_c, 4, 60, 0
3, 351120, Note_on_c, 4, 61, 0
3, 351360, Note_on_c, 4, 60, 100
3, 351360, Note_on_c, 4, 61, 100
3, 351360, Note_on_c, 0, 69, 100
3, 351600, Note_on_c, 4, 60, 0
3, 351600, Note_on_c, 4, 61, 0
3, 351600, Note_on_c, 0, 69, 0
3, 351840, Note_on_c, 4, 61, 100
3, 352080, Note_on_c, 4, 61, 0
3, 352320, Note_on_c, 4, 61, 100
3, 352320, Note_on_c, 0, 69, 100
3, 352560, Note_on_c, 4, 61, 0
3, 352560, Note_on_c, 0, 69, 0
3, 352800, Note_on_c, 4, 60, 100
3, 352800, Note_on_c, 4, 61, 100
3, 353040, Note_on_c, 4, 60, 0
3, 353040, Note_on_c, 4, 61, 0
3, 353280, Note_on_c, 4, 60, 100
3, 353280, Note_on_c, 4, 61, 100
3, 353280, Note_on_c, 0, 70, 100
3, 353520, Note_on_c, 4, 60, 0
3, 353520, Note_on_c, 4, 61, 0
3, 353520, Note_on_c, 0, 70, 0
3, 353760, Note_on_c, 4, 60, 100
3, 353760, Note_on_c, 4, 61, 100
3, 354000, Note_on_c, 4, 60, 0
3, 354000, Note_on_c, 4, 61, 0
3, 354240, Note_on_c, 4, 61, 100
3, 354240, Note_on_c, 0, 70, 100
3, 354480, Note_on_c, 4, 61, 0
3, 354480, Note_on_c, 0, 70, 0
3, 354720, Note_on_c, 4, 60, 100
3, 354720, Note_on_c, 4, 61, 100
3, 354960, Note_on_c, 4, 60, 0
3, 354960, Note_on_c, 4, 61, 0
3, 355200, Note_on_c, 4, 60, 100
3, 355200, Note_on_c, 4, 61, 100
3, 355200, Note_on_c, 0, 70, 100
3, 355440, Note_on_c, 4, 60, 0
3, 355440, Note_on_c, 4, 61, 0
3, 355440, Note_on_c, 0, 70, 0
3, 355680, Note_on_c, 4, 60, 100
3, 355680, Note_on_c, 4, 61, 100
3, 355920, Note_on_c, 4, 60, 0
3, 355920, Note_on_c, 4, 61, 0
3, 356160, Note_on_c, 4, 61, 100
3, 356160, Note_on_c, 0, 70, 100
3, 356400, Note_on_c, 4, 61, 0
3, 356400, Note_on_c, 0, 70, 0
3, 356640, Note_on_c, 4, 60, 100
3, 356640, Note_on_c, 4, 61, 100
3, 356880, Note_on_c, 4, 60, 0
3, 356880, Note_on_c, 4, 61, 0
3, 357120, Note_on_c, 4, 60, 100
3, 357120, Note_on_c, 4, 61, 100
3, 357120, Note_on_c, 0, 70, 100
3, 357360, Note_on_c, 4, 60, 0
3, 357360, Note_on_c, 4, 61, 0
3, 357360, Note_on_c, 0, 70, 0
3, 357600, Note_on_c, 4, 60, 100
3, 357600, Note_on_c, 4, 61, 100
3, 357840, Note_on_c, 4, 60, 0
3, 357840, Note_on_c, 4, 61, 0
3, 358080, Note_on_c, 4, 61, 100
3, 358080, Note_on_c, 0, 70, 100
3, 358320, Note_on_c, 4, 61, 0
3, 358320, Note_on_c, 0, 70, 0
3, 358560, Note_on_c, 4, 60, 100
3, 358560, Note_on_c, 4, 61, 100
3, 358800, Note_on_c, 4, 60, 0
3, 358800, Note_on_c, 4, 61, 0
3, 359040, Note_on_c, 4, 60, 100
3, 359040, Note_on_c, 4, 61, 100
3, 359040, Note_on_c, 0, 70, 100
3, 359280, Note_on_c, 4, 60, 0
3, 359280, Note_on_c, 4, 61, 0
3, 359280, Note_on_c, 0, 70, 0
3, 359520, Note_on_c, 4, 60, 100
3, 359520, Note_on_c, 4, 61, 100
3, 359760, Note_on_c, 4, 60, 0
3, 359760, Note_on_c, 4, 61, 0
3, 360000, Note_on_c, 4, 61, 100
3, 360000, Note_on_c, 0, 70, 100
3, 360240, Note_on_c, 4, 61, 0
3, 360240, Note_on_c, 0, 70, 0
3, 360480, Note_on_c, 4, 60, 100
3, 360480, Note_on_c, 4, 61, 100
3, 360720, Note_on_c, 4, 60, 0
3, 360720, Note_on_c, 4, 61, 0
3, 360960, Note_on_c, 4, 61, 100
3, 360960, Note_on_c, 0, 69, 100
3, 361200, Note_on_c, 4, 61, 0
3, 361200, Note_on_c, 0, 69, 0
3, 361440, Note_on_c, 4, 60, 100
3, 361440, Note_on_c, 4, 61, 100
3, 361680, Note_on_c, 4, 60, 0
3, 361680, Note_on_c, 4, 61, 0
3, 361920, Note_on_c, 4, 60, 100
3, 361920, Note_on_c, 4, 61, 100
3, 362160, Note_on_c, 4, 60, 0
3, 362160, Note_on_c, 4, 61, 0
3, 362400, Note_on_c, 4, 61, 100
3, 362400, Note_on_c, 0, 69, 100
3, 362640, Note_on_c, 4, 61, 0
3, 362640, Note_on_c, 0, 69, 0
3, 362880, Note_on_c, 4, 60, 100
3, 362880, Note_on_c, 4, 61, 100
3, 363120, Note_on_c, 4, 60, 0
3, 363120, Note_on_c, 4, 61, 0
3, 363360, Note_on_c, 4, 60, 100
3, 363360, Note_on_c, 4, 61, 100
3, 363600, Note_on_c, 4, 60, 0
3, 363600, Note_on_c, 4, 61, 0
3, 363840, Note_on_c, 4, 61, 100
3, 363840, Note_on_c, 0, 69, 100
3, 364080, Note_on_c, 4, 61, 0
3, 364080, Note_on_c, 0, 69, 0
3, 364320, Note_on_c, 4, 60, 100
3, 364320, Note_on_c, 4, 61, 100
3, 364560, Note_on_c, 4, 60, 0
3, 364560, Note_on_c, 4, 61, 0
3, 364800, Note_on_c, 4, 60, 100
3, 364800, Note_on_c, 4, 61, 100
3, 365040, Note_on_c, 4, 60, 0
3, 365040, Note_on_c, 4, 61, 0
3, 365280, Note_on_c, 4, 61, 100
3, 365280, Note_on_c, 0, 70, 100
3, 365520, Note_on_c, 4, 61, 0
3, 365520, Note_on_c, 0, 70, 0
3, 365760, Note_on_c, 4, 60, 100
3, 365760, Note_on_c, 4, 61, 100
3, 366000, Note_on_c, 4, 60, 0
3, 366000, Note_on_c, 4, 61, 0
3, 366240, Note_on_c, 4, 60, 100
3, 366240, Note_on_c, 4, 61, 100
3, 366480, Note_on_c, 4, 60, 0
3, 366480, Note_on_c, 4, 61, 0
3, 366720, Note_on_c, 4, 61, 100
3, 366720, Note_on_c, 0, 70, 100
3, 366960, Note_on_c, 4, 61, 0
3, 366960, Note_on_c, 0, 70, 0
3, 367200, Note_on_c, 4, 60, 100
3, 367200, Note_on_c, 4, 61, 100
3, 367440, Note_on_c, 4, 60, 0
3, 367440, Note_on_c, 4, 61, 0
3, 367680, Note_on_c, 4, 61, 100
3, 367920, Note_on_c, 4, 61, 0
3, 368160, Note_on_c, 4, 61, 100
3, 368160, Note_on_c, 4, 60, 100
3, 368400, Note_on_c, 4, 61, 0
3, 368400, Note_on_c, 4, 60, 0
3, 368640, Note_on_c, 4, 60, 100
3, 368640, Note_on_c, 4, 61, 100
3, 368640, Note_on_c, 0, 68, 100
3, 368880, Note_on_c, 4, 60, 0
3, 368880, Note_on_c, 4, 61, 0
3, 368880, Note_on_c, 0, 68, 0
3, 369120, Note_on_c, 4, 60, 100
3, 369120, Note_on_c, 4, 61, 100
3, 369360, Note_on_c, 4, 60, 0
3, 369360, Note_on_c, 4, 61, 0
3, 369600, Note_on_c, 4, 61, 100
3, 369600, Note_on_c, 0, 68, 100
3, 369840, Note_on_c, 4, 61, 0
3, 369840, Note_on_c, 0, 68, 0
3, 370080, Note_on_c, 4, 60, 100
3, 370080, Note_on_c, 4, 61, 100
3, 370320, Note_on_c, 4, 60, 0
3, 370320, Note_on_c, 4, 61, 0
3, 370560, Note_on_c, 4, 60, 100
3, 370560, Note_on_c, 4, 61, 100
3, 370560, Note_on_c, 0, 68, 100
3, 370800, Note_on_c, 4, 60, 0
3, 370800, Note_on_c, 4, 61, 0
3, 370800, Note_on_c, 0, 68, 0
3, 371040, Note_on_c, 4, 60, 100
3, 371040, Note_on_c, 4, 61, 100
3, 371280, Note_on_c, 4, 60, 0
3, 371280, Note_on_c, 4, 61, 0
3, 371520, Note_on_c, 4, 61, 100
3, 371520, Note_on_c, 0, 68, 100
3, 371760, Note_on_c, 4, 61, 0
3, 371760, Note_on_c, 0, 68, 0
3, 372000, Note_on_c, 4, 60, 100
3, 372000, Note_on_c, 4, 61, 100
3, 372240, Note_on_c, 4, 60, 0
3, 372240, Note_on_c, 4, 61, 0
3, 372480, Note_on_c, 4, 60, 100
3, 372480, Note_on_c, 4, 61, 100
3, 372480, Note_on_c, 0, 68, 100
3, 372720, Note_on_c, 4, 60, 0
3, 372720, Note_on_c, 4, 61, 0
3, 372720, Note_on_c, 0, 68, 0
3, 372960, Note_on_c, 4, 60, 100
3, 372960, Note_on_c, 4, 61, 100
3, 373200, Note_on_c, 4, 60, 0
3, 373200, Note_on_c, 4, 61, 0
3, 373440, Note_on_c, 4, 61, 100
3, 373440, Note_on_c, 0, 68, 100
3, 373680, Note_on_c, 4, 61, 0
3, 373680, Note_on_c, 0, 68, 0
3, 373920, Note_on_c, 4, 60, 100
3, 373920, Note_on_c, 4, 61, 100
3, 374160, Note_on_c, 4, 60, 0
3, 374160, Note_on_c, 4, 61, 0
3, 374400, Note_on_c, 4, 60, 100
3, 374400, Note_on_c, 4, 61, 100
3, 374400, Note_on_c, 0, 68, 100
3, 374640, Note_on_c, 4, 60, 0
3, 374640, Note_on_c, 4, 61, 0
3, 374640, Note_on_c, 0, 68, 0
3, 374880, Note_on_c, 4, 60, 100
3, 374880, Note_on_c, 4, 61, 100
3, 375120, Note_on_c, 4, 60, 0
3, 375120, Note_on_c, 4, 61, 0
3, 375360, Note_on_c, 4, 61, 100
3, 375360, Note_on_c, 0, 68, 100
3, 375600, Note_on_c, 4, 61, 0
3, 375600, Note_on_c, 0, 68, 0
3, 375840, Note_on_c, 4, 60, 100
3, 375840, Note_on_c, 4, 61, 100
3, 376080, Note_on_c, 4, 60, 0
3, 376080, Note_on_c, 4, 61, 0
3, 376320, Note_on_c, 4, 60, 100
3, 376320, Note_on_c, 4, 61, 100
3, 376320, Note_on_c, 0, 69, 100
3, 376560, Note_on_c, 4, 60, 0
3, 376560, Note_on_c, 4, 61, 0
3, 376560, Note_on_c, 0, 69, 0
3, 376800, Note_on_c, 4, 60, 100
3, 376800, Note_on_c, 4, 61, 100
3, 377040, Note_on_c, 4, 60, 0
3, 377040, Note_on_c, 4, 61, 0
3, 377280, Note_on_c, 4, 61, 100
3, 377280, Note_on_c, 0, 69, 100
3, 377520, Note_on_c, 4, 61, 0
3, 377520, Note_on_c, 0, 69, 0
3, 377760, Note_on_c, 4, 60, 100
3, 377760, Note_on_c, 4, 61, 100
3, 378000, Note_on_c, 4, 60, 0
3, 378000, Note_on_c, 4, 61, 0
3, 378240, Note_on_c, 4, 60, 100
3, 378240, Note_on_c, 4, 61, 100
3, 378240, Note_on_c, 0, 69, 100
3, 378480, Note_on_c, 4, 60, 0
3, 378480, Note_on_c, 4, 61, 0
3, 378480, Note_on_c, 0, 69, 0
3, 378720, Note_on_c, 4, 60, 100
3, 378720, Note_on_c, 4, 61, 100
3, 378960, Note_on_c, 4, 60, 0
3, 378960, Note_on_c, 4, 61, 0
3, 379200, Note_on_c, 4, 61, 100
3, 379200, Note_on_c, 0, 69, 100
3, 379440, Note_on_c, 4, 61, 0
3, 379440, Note_on_c, 0, 69, 0
3, 379680, Note_on_c, 4, 60, 100
3, 379680, Note_on_c, 4, 61, 100
3, 379920, Note_on_c, 4, 60, 0
3, 379920, Note_on_c, 4, 61, 0
3, 380160, Note_on_c, 4, 60, 100
3, 380160, Note_on_c, 4, 61, 100
3, 380160, Note_on_c, 0, 69, 100
3, 380400, Note_on_c, 4, 60, 0
3, 380400, Note_on_c, 4, 61, 0
3, 380400, Note_on_c, 0, 69, 0
3, 380640, Note_on_c, 4, 60, 100
3, 380640, Note_on_c, 4, 61, 100
3, 380880, Note_on_c, 4, 60, 0
3, 380880, Note_on_c, 4, 61, 0
3, 381120, Note_on_c, 4, 61, 100
3, 381120, Note_on_c, 0, 69, 100
3, 381360, Note_on_c, 4, 61, 0
3, 381360, Note_on_c, 0, 69, 0
3, 381600, Note_on_c, 4, 60, 100
3, 381600, Note_on_c, 4, 61, 100
3, 381840, Note_on_c, 4, 60, 0
3, 381840, Note_on_c, 4, 61, 0
3, 382080, Note_on_c, 4, 60, 100
3, 382080, Note_on_c, 4, 61, 100
3, 382080, Note_on_c, 0, 69, 100
3, 382320, Note_on_c, 4, 60, 0
3, 382320, Note_on_c, 4, 61, 0
3, 382320, Note_on_c, 0, 69, 0
3, 382560, Note_on_c, 4, 60, 100
3, 382560, Note_on_c, 4, 61, 100
3, 382800, Note_on_c, 4, 60, 0
3, 382800, Note_on_c, 4, 61, 0
3, 383040, Note_on_c, 4, 61, 100
3, 383040, Note_on_c, 0, 69, 100
3, 383280, Note_on_c, 4, 61, 0
3, 383280, Note_on_c, 0, 69, 0
3, 383520, Note_on_c, 4, 61, 100
3, 383760, Note_on_c, 4, 61, 0
3, 384000, Note_on_c, 4, 60, 100
3, 384000, Note_on_c, 4, 61, 100
3, 384000, Note_on_c, 0, 70, 100
3, 384240, Note_on_c, 4, 60, 0
3, 384240, Note_on_c, 4, 61, 0
3, 384240, Note_on_c, 0, 70, 0
3, 384480, Note_on_c, 4, 61, 100
3, 384720, Note_on_c, 4, 61, 0
3, 384960, Note_on_c, 4, 61, 100
3, 384960, Note_on_c, 0, 70, 100
3, 385200, Note_on_c, 4, 61, 0
3, 385200, Note_on_c, 0, 70, 0
3, 385440, Note_on_c, 4, 60, 100
3, 385440, Note_on_c, 4, 61, 100
3, 385680, Note_on_c, 4, 60, 0
3, 385680, Note_on_c, 4, 61, 0
3, 385920, Note_on_c, 4, 60, 100
3, 385920, Note_on_c, 4, 61, 100
3, 385920, Note_on_c, 0, 70, 100
3, 386160, Note_on_c, 4, 60, 0
3, 386160, Note_on_c, 4, 61, 0
3, 386160, Note_on_c, 0, 70, 0
3, 386400, Note_on_c, 4, 60, 100
3, 386400, Note_on_c, 4, 61, 100
3, 386640, Note_on_c, 4, 60, 0
3, 386640, Note_on_c, 4, 61, 0
3, 386880, Note_on_c, 4, 61, 100
3, 386880, Note_on_c, 0, 70, 100
3, 387120, Note_on_c, 4, 61, 0
3, 387120, Note_on_c, 0, 70, 0
3, 387360, Note_on_c, 4, 61, 100
3, 387600, Note_on_c, 4, 61, 0
3, 387840, Note_on_c, 4, 60, 100
3, 387840, Note_on_c, 4, 61, 100
3, 387840, Note_on_c, 0, 70, 100
3, 388080, Note_on_c, 4, 60, 0
3, 388080, Note_on_c, 4, 61, 0
3, 388080, Note_on_c, 0, 70, 0
3, 388320, Note_on_c, 4, 60, 100
3, 388320, Note_on_c, 4, 61, 100
3, 388560, Note_on_c, 4, 60, 0
3, 388560, Note_on_c, 4, 61, 0
3, 388800, Note_on_c, 4, 61, 100
3, 388800, Note_on_c, 0, 70, 100
3, 389040, Note_on_c, 4, 61, 0
3, 389040, Note_on_c, 0, 70, 0
3, 389280, Note_on_c, 4, 60, 100
3, 389280, Note_on_c, 4, 61, 100
3, 389520, Note_on_c, 4, 60, 0
3, 389520, Note_on_c, 4, 61, 0
3, 389760, Note_on_c, 4, 60, 100
3, 389760, Note_on_c, 4, 61, 100
3, 389760, Note_on_c, 0, 70, 100
3, 390000, Note_on_c, 4, 60, 0
3, 390000, Note_on_c, 4, 61, 0
3, 390000, Note_on_c, 0, 70, 0
3, 390240, Note_on_c, 4, 60, 100
3, 390240, Note_on_c, 4, 61, 100
3, 390480, Note_on_c, 4, 60, 0
3, 390480, Note_on_c, 4, 61, 0
3, 390720, Note_on_c, 4, 61, 100
3, 390720, Note_on_c, 0, 70, 100
3, 390960, Note_on_c, 4, 61, 0
3, 390960, Note_on_c, 0, 70, 0
3, 391200, Note_on_c, 4, 61, 100
3, 391440, Note_on_c, 4, 61, 0
3, 391680, Note_on_c, 4, 60, 100
3, 391680, Note_on_c, 4, 61, 100
3, 391680, Note_on_c, 0, 69, 100
3, 391920, Note_on_c, 4, 60, 0
3, 391920, Note_on_c, 4, 61, 0
3, 391920, Note_on_c, 0, 69, 0
3, 392160, Note_on_c, 4, 61, 100
3, 392400, Note_on_c, 4, 61, 0
3, 392640, Note_on_c, 4, 61, 100
3, 392640, Note_on_c, 0, 69, 100
3, 392880, Note_on_c, 4, 61, 0
3, 392880, Note_on_c, 0, 69, 0
3, 393120, Note_on_c, 4, 60, 100
3, 393120, Note_on_c, 4, 61, 100
3, 393360, Note_on_c, 4, 60, 0
3, 393360, Note_on_c, 4, 61, 0
3, 393600, Note_on_c, 4, 60, 100
3, 393600, Note_on_c, 4, 61, 100
3, 393600, Note_on_c, 0, 69, 100
3, 393840, Note_on_c, 4, 60, 0
3, 393840, Note_on_c, 4, 61, 0
3, 393840, Note_on_c, 0, 69, 0
3, 394080, Note_on_c, 4, 60, 100
3, 394080, Note_on_c, 4, 61, 100
3, 394320, Note_on_c, 4, 60, 0
3, 394320, Note_on_c, 4, 61, 0
3, 394560, Note_on_c, 4, 61, 100
3, 394560, Note_on_c, 0, 69, 100
3, 394800, Note_on_c, 4, 61, 0
3, 394800, Note_on_c, 0, 69, 0
3, 395040, Note_on_c, 4, 60, 100
3, 395040, Note_on_c, 4, 61, 100
3, 395280, Note_on_c, 4, 60, 0
3, 395280, Note_on_c, 4, 61, 0
3, 395520, Note_on_c, 4, 60, 100
3, 395520, Note_on_c, 4, 61, 100
3, 395520, Note_on_c, 0, 69, 100
3, 395760, Note_on_c, 4, 60, 0
3, 395760, Note_on_c, 4, 61, 0
3, 395760, Note_on_c, 0, 69, 0
3, 396000, Note_on_c, 4, 60, 100
3, 396000, Note_on_c, 4, 61, 100
3, 396240, Note_on_c, 4, 60, 0
3, 396240, Note_on_c, 4, 61, 0
3, 396480, Note_on_c, 4, 61, 100
3, 396480, Note_on_c, 0, 69, 100
3, 396720, Note_on_c, 4, 61, 0
3, 396720, Note_on_c, 0, 69, 0
3, 396960, Note_on_c, 4, 60, 100
3, 396960, Note_on_c, 4, 61, 100
3, 397200, Note_on_c, 4, 60, 0
3, 397200, Note_on_c, 4, 61, 0
3, 397440, Note_on_c, 4, 60, 100
3, 397440, Note_on_c, 4, 61, 100
3, 397440, Note_on_c, 0, 69, 100
3, 397680, Note_on_c, 4, 60, 0
3, 397680, Note_on_c, 4, 61, 0
3, 397680, Note_on_c, 0, 69, 0
3, 397920, Note_on_c, 4, 60, 100
3, 397920, Note_on_c, 4, 61, 100
3, 398160, Note_on_c, 4, 60, 0
3, 398160, Note_on_c, 4, 61, 0
3, 398400, Note_on_c, 4, 60, 100
3, 398400, Note_on_c, 4, 61, 100
3, 398400, Note_on_c, 0, 69, 100
3, 398640, Note_on_c, 4, 60, 0
3, 398640, Note_on_c, 4, 61, 0
3, 398640, Note_on_c, 0, 69, 0
3, 398880, Note_on_c, 4, 60, 100
3, 398880, Note_on_c, 4, 61, 100
3, 399120, Note_on_c, 4, 60, 0
3, 399120, Note_on_c, 4, 61, 0
3, 399360, Note_on_c, 0, 69, 100
3, 399600, Note_on_c, 0, 69, 0
3, 399840, Note_on_c, 4, 60, 100
3, 400080, Note_on_c, 4, 60, 0
3, 400800, Note_on_c, 4, 60, 100
3, 400800, Note_on_c, 0, 69, 100
3, 401040, Note_on_c, 4, 60, 0
3, 401040, Note_on_c, 0, 69, 0
3, 401760, Note_on_c, 4, 60, 100
3, 402000, Note_on_c, 4, 60, 0
3, 402240, Note_on_c, 0, 69, 100
3, 402480, Note_on_c, 0, 69, 0
3, 402720, Note_on_c, 4, 60, 100
3, 402960, Note_on_c, 4, 60, 0
3, 403680, Note_on_c, 4, 60, 100
3, 403680, Note_on_c, 0, 69, 100
3, 403920, Note_on_c, 4, 60, 0
3, 403920, Note_on_c, 0, 69, 0
3, 404640, Note_on_c, 4, 60, 100
3, 404880, Note_on_c, 4, 60, 0
3, 405120, Note_on_c, 0, 69, 100
3, 405360, Note_on_c, 0, 69, 0
3, 405600, Note_on_c, 4, 60, 100
3, 405840, Note_on_c, 4, 60, 0
3, 406560, Note_on_c, 4, 60, 100
3, 406560, Note_on_c, 0, 69, 100
3, 406800, Note_on_c, 4, 60, 0
3, 406800, Note_on_c, 0, 69, 0
3, 407520, Note_on_c, 4, 60, 100
3, 407760, Note_on_c, 4, 60, 0
3, 408000, Note_on_c, 0, 69, 100
3, 408240, Note_on_c, 0, 69, 0
3, 408480, Note_on_c, 4, 60, 100
3, 408720, Note_on_c, 4, 60, 0
3, 409440, Note_on_c, 4, 60, 100
3, 409440, Note_on_c, 0, 69, 100
3, 409680, Note_on_c, 4, 60, 0
3, 409680, Note_on_c, 0, 69, 0
3, 409920, Note_on_c, 0, 70, 100
3, 410160, Note_on_c, 0, 70, 0
3, 410400, Note_on_c, 4, 60, 100
3, 410640, Note_on_c, 4, 60, 0
3, 411360, Note_on_c, 4, 60, 100
3, 411360, Note_on_c, 0, 69, 100
3, 411600, Note_on_c, 4, 60, 0
3, 411600, Note_on_c, 0, 69, 0
3, 412320, Note_on_c, 4, 60, 100
3, 412560, Note_on_c, 4, 60, 0
3, 413280, Note_on_c, 4, 60, 100
3, 413280, Note_on_c, 0, 69, 100
3, 413520, Note_on_c, 4, 60, 0
3, 413520, Note_on_c, 0, 69, 0
3, 414240, Note_on_c, 4, 60, 100
3, 414480, Note_on_c, 4, 60, 0
3, 414720, Note_on_c, 0, 69, 100
3, 414960, Note_on_c, 0, 69, 0
3, 415200, Note_on_c, 4, 60, 100
3, 415440, Note_on_c, 4, 60, 0
3, 416160, Note_on_c, 4, 60, 100
3, 416160, Note_on_c, 0, 69, 100
3, 416400, Note_on_c, 4, 60, 0
3, 416400, Note_on_c, 0, 69, 0
3, 417120, Note_on_c, 4, 60, 100
3, 417360, Note_on_c, 4, 60, 0
3, 417600, Note_on_c, 0, 69, 100
3, 417840, Note_on_c, 0, 69, 0
3, 418080, Note_on_c, 4, 60, 100
3, 418320, Note_on_c, 4, 60, 0
3, 419040, Note_on_c, 4, 60, 100
3, 419040, Note_on_c, 0, 69, 100
3, 419280, Note_on_c, 4, 60, 0
3, 419280, Note_on_c, 0, 69, 0
3, 420000, Note_on_c, 4, 60, 100
3, 420240, Note_on_c, 4, 60, 0
3, 420480, Note_on_c, 0, 69, 100
3, 420720, Note_on_c, 0, 69, 0
3, 420960, Note_on_c, 4, 60, 100
3, 420960, Note_on_c, 4, 61, 100
3, 420960, Note_on_c, 0, 68, 100
3, 421200, Note_on_c, 4, 60, 0
3, 421200, Note_on_c, 4, 61, 0
3, 421200, Note_on_c, 0, 68, 0
3, 421920, Note_on_c, 4, 60, 100
3, 421920, Note_on_c, 4, 61, 100
3, 422160, Note_on_c, 4, 60, 0
3, 422160, Note_on_c, 4, 61, 0
3, 422400, Note_on_c, 4, 61, 100
3, 422400, Note_on_c, 0, 69, 100
3, 422640, Note_on_c, 4, 61, 0
3, 422640, Note_on_c, 0, 69, 0
3, 422880, Note_on_c, 4, 60, 100
3, 422880, Note_on_c, 4, 61, 100
3, 423120, Note_on_c, 4, 60, 0
3, 423120, Note_on_c, 4, 61, 0
3, 423360, Note_on_c, 4, 61, 100
3, 423360, Note_on_c, 0, 70, 100
3, 423600, Note_on_c, 4, 61, 0
3, 423600, Note_on_c, 0, 70, 0
3, 423840, Note_on_c, 4, 61, 100
3, 424080, Note_on_c, 4, 61, 0
3, 424800, Note_on_c, 4, 61, 100
3, 424800, Note_on_c, 4, 60, 100
3, 424800, Note_on_c, 0, 69, 100
3, 425040, Note_on_c, 4, 61, 0
3, 425040, Note_on_c, 4, 60, 0
3, 425040, Note_on_c, 0, 69, 0
3, 425760, Note_on_c, 4, 60, 100
3, 425760, Note_on_c, 4, 61, 100
3, 426000, Note_on_c, 4, 60, 0
3, 426000, Note_on_c, 4, 61, 0
3, 426240, Note_on_c, 4, 61, 100
3, 426480, Note_on_c, 4, 61, 0
3, 426720, Note_on_c, 4, 60, 100
3, 426720, Note_on_c, 4, 61, 100
3, 426720, Note_on_c, 0, 69, 100
3, 426960, Note_on_c, 4, 60, 0
3, 426960, Note_on_c, 4, 61, 0
3, 426960, Note_on_c, 0, 69, 0
3, 427200, Note_on_c, 4, 61, 100
3, 427440, Note_on_c, 4, 61, 0
3, 427680, Note_on_c, 4, 60, 100
3, 427680, Note_on_c, 4, 61, 100
3, 427920, Note_on_c, 4, 60, 0
3, 427920, Note_on_c, 4, 61, 0
3, 428160, Note_on_c, 4, 61, 100
3, 428160, Note_on_c, 0, 69, 100
3, 428400, Note_on_c, 4, 61, 0
3, 428400, Note_on_c, 0, 69, 0
3, 428640, Note_on_c, 4, 60, 100
3, 428640, Note_on_c, 4, 61, 100
3, 428880, Note_on_c, 4, 60, 0
3, 428880, Note_on_c, 4, 61, 0
3, 429120, Note_on_c, 4, 61, 100
3, 429360, Note_on_c, 4, 61, 0
3, 429600, Note_on_c, 4, 60, 100
3, 429600, Note_on_c, 4, 61, 100
3, 429600, Note_on_c, 0, 69, 100
3, 429840, Note_on_c, 4, 60, 0
3, 429840, Note_on_c, 4, 61, 0
3, 429840, Note_on_c, 0, 69, 0
3, 430080, Note_on_c, 4, 61, 100
3, 430320, Note_on_c, 4, 61, 0
3, 430560, Note_on_c, 4, 60, 100
3, 430560, Note_on_c, 4, 61, 100
3, 430800, Note_on_c, 4, 60, 0
3, 430800, Note_on_c, 4, 61, 0
3, 431040, Note_on_c, 4, 61, 100
3, 431040, Note_on_c, 0, 69, 100
3, 431280, Note_on_c, 4, 61, 0
3, 431280, Note_on_c, 0, 69, 0
3, 431520, Note_on_c, 4, 60, 100
3, 431520, Note_on_c, 4, 61, 100
3, 431760, Note_on_c, 4, 60, 0
3, 431760, Note_on_c, 4, 61, 0
3, 432000, Note_on_c, 4, 61, 100
3, 432240, Note_on_c, 4, 61, 0
3, 432480, Note_on_c, 4, 60, 100
3, 432480, Note_on_c, 4, 61, 100
3, 432480, Note_on_c, 0, 69, 100
3, 432720, Note_on_c, 4, 60, 0
3, 432720, Note_on_c, 4, 61, 0
3, 432720, Note_on_c, 0, 69, 0
3, 432960, Note_on_c, 4, 61, 100
3, 433200, Note_on_c, 4, 61, 0
3, 433440, Note_on_c, 4, 60, 100
3, 433440, Note_on_c, 4, 61, 100
3, 433680, Note_on_c, 4, 60, 0
3, 433680, Note_on_c, 4, 61, 0
3, 433920, Note_on_c, 4, 61, 100
3, 433920, Note_on_c, 0, 69, 100
3, 434160, Note_on_c, 4, 61, 0
3, 434160, Note_on_c, 0, 69, 0
3, 434400, Note_on_c, 4, 60, 100
3, 434400, Note_on_c, 4, 61, 100
3, 434640, Note_on_c, 4, 60, 0
3, 434640, Note_on_c, 4, 61, 0
3, 434880, Note_on_c, 4, 61, 100
3, 435120, Note_on_c, 4, 61, 0
3, 435360, Note_on_c, 4, 60, 100
3, 435360, Note_on_c, 4, 61, 100
3, 435360, Note_on_c, 0, 69, 100
3, 435600, Note_on_c, 4, 60, 0
3, 435600, Note_on_c, 4, 61, 0
3, 435600, Note_on_c, 0, 69, 0
3, 435840, Note_on_c, 4, 61, 100
3, 435840, Note_on_c, 0, 70, 100
3, 436080, Note_on_c, 4, 61, 0
3, 436080, Note_on_c, 0, 70, 0
3, 436320, Note_on_c, 4, 60, 100
3, 436320, Note_on_c, 4, 61, 100
3, 436560, Note_on_c, 4, 60, 0
3, 436560, Note_on_c, 4, 61, 0
3, 436800, Note_on_c, 4, 61, 100
3, 437040, Note_on_c, 4, 61, 0
3, 437280, Note_on_c, 4, 60, 100
3, 437280, Note_on_c, 4, 61, 100
3, 437280, Note_on_c, 0, 69, 100
3, 437520, Note_on_c, 4, 60, 0
3, 437520, Note_on_c, 4, 61, 0
3, 437520, Note_on_c, 0, 69, 0
3, 438240, Note_on_c, 4, 60, 100
3, 438240, Note_on_c, 4, 61, 100
3, 438480, Note_on_c, 4, 60, 0
3, 438480, Note_on_c, 4, 61, 0
3, 438720, Note_on_c, 4, 61, 100
3, 438960, Note_on_c, 4, 61, 0
3, 439200, Note_on_c, 4, 60, 100
3, 439200, Note_on_c, 4, 61, 100
3, 439200, Note_on_c, 0, 69, 100
3, 439440, Note_on_c, 4, 60, 0
3, 439440, Note_on_c, 4, 61, 0
3, 439440, Note_on_c, 0, 69, 0
3, 439680, Note_on_c, 4, 61, 100
3, 439920, Note_on_c, 4, 61, 0
3, 440160, Note_on_c, 4, 60, 100
3, 440160, Note_on_c, 4, 61, 100
3, 440400, Note_on_c, 4, 60, 0
3, 440400, Note_on_c, 4, 61, 0
3, 440640, Note_on_c, 4, 61, 100
3, 440640, Note_on_c, 0, 69, 100
3, 440880, Note_on_c, 4, 61, 0
3, 440880, Note_on_c, 0, 69, 0
3, 441120, Note_on_c, 4, 60, 100
3, 441120, Note_on_c, 4, 61, 100
3, 441360, Note_on_c, 4, 60, 0
3, 441360, Note_on_c, 4, 61, 0
3, 441600, Note_on_c, 4, 61, 100
3, 441840, Note_on_c, 4, 61, 0
3, 442080, Note_on_c, 4, 60, 100
3, 442080, Note_on_c, 4, 61, 100
3, 442080, Note_on_c, 0, 69, 100
3, 442320, Note_on_c, 4, 60, 0
3, 442320, Note_on_c, 4, 61, 0
3, 442320, Note_on_c, 0, 69, 0
3, 442560, Note_on_c, 4, 61, 100
3, 442800, Note_on_c, 4, 61, 0
3, 443040, Note_on_c, 4, 60, 100
3, 443040, Note_on_c, 4, 61, 100
3, 443280, Note_on_c, 4, 60, 0
3, 443280, Note_on_c, 4, 61, 0
3, 443520, Note_on_c, 4, 61, 100
3, 443520, Note_on_c, 0, 69, 100
3, 443760, Note_on_c, 4, 61, 0
3, 443760, Note_on_c, 0, 69, 0
3, 444000, Note_on_c, 4, 60, 100
3, 444000, Note_on_c, 4, 61, 100
3, 444240, Note_on_c, 4, 60, 0
3, 444240, Note_on_c, 4, 61, 0
3, 444480, Note_on_c, 4, 61, 100
3, 444720, Note_on_c, 4, 61, 0
3, 444960, Note_on_c, 4, 60, 100
3, 444960, Note_on_c, 4, 61, 100
3, 444960, Note_on_c, 0, 69, 100
3, 445200, Note_on_c, 4, 60, 0
3, 445200, Note_on_c, 4, 61, 0
3, 445200, Note_on_c, 0, 69, 0
3, 445440, Note_on_c, 4, 61, 100
3, 445680, Note_on_c, 4, 61, 0
3, 445920, Note_on_c, 4, 60, 100
3, 445920, Note_on_c, 4, 61, 100
3, 446160, Note_on_c, 4, 60, 0
3, 446160, Note_on_c, 4, 61, 0
3, 446400, Note_on_c, 4, 61, 100
3, 446400, Note_on_c, 0, 69, 100
3, 446640, Note_on_c, 4, 61, 0
3, 446640, Note_on_c, 0, 69, 0
3, 446880, Note_on_c, 4, 60, 100
3, 446880, Note_on_c, 4, 61, 100
3, 446880, Note_on_c, 0, 68, 100
3, 447120, Note_on_c, 4, 60, 0
3, 447120, Note_on_c, 4, 61, 0
3, 447120, Note_on_c, 0, 68, 0
3, 447840, Note_on_c, 4, 60, 100
3, 447840, Note_on_c, 4, 61, 100
3, 448080, Note_on_c, 4, 60, 0
3, 448080, Note_on_c, 4, 61, 0
3, 448320, Note_on_c, 4, 61, 100
3, 448320, Note_on_c, 0, 69, 100
3, 448560, Note_on_c, 4, 61, 0
3, 448560, Note_on_c, 0, 69, 0
3, 448800, Note_on_c, 4, 60, 100
3, 448800, Note_on_c, 4, 61, 100
3, 449040, Note_on_c, 4, 60, 0
3, 449040, Note_on_c, 4, 61, 0
3, 449280, Note_on_c, 4, 61, 100
3, 449280, Note_on_c, 0, 70, 100
3, 449520, Note_on_c, 4, 61, 0
3, 449520, Note_on_c, 0, 70, 0
3, 449760, Note_on_c, 4, 61, 100
3, 450000, Note_on_c, 4, 61, 0
3, 450720, Note_on_c, 4, 60, 100
3, 450720, Note_on_c, 4, 61, 100
3, 450720, Note_on_c, 0, 69, 100
3, 450960, Note_on_c, 4, 60, 0
3, 450960, Note_on_c, 4, 61, 0
3, 450960, Note_on_c, 0, 69, 0
3, 451680, Note_on_c, 4, 60, 100
3, 451680, Note_on_c, 4, 61, 100
3, 451920, Note_on_c, 4, 60, 0
3, 451920, Note_on_c, 4, 61, 0
3, 452160, Note_on_c, 4, 61, 100
3, 452400, Note_on_c, 4, 61, 0
3, 452640, Note_on_c, 4, 60, 100
3, 452640, Note_on_c, 4, 61, 100
3, 452640, Note_on_c, 0, 69, 100
3, 452880, Note_on_c, 4, 60, 0
3, 452880, Note_on_c, 4, 61, 0
3, 452880, Note_on_c, 0, 69, 0
3, 453120, Note_on_c, 4, 61, 100
3, 453360, Note_on_c, 4, 61, 0
3, 453600, Note_on_c, 4, 60, 100
3, 453600, Note_on_c, 4, 61, 100
3, 453840, Note_on_c, 4, 60, 0
3, 453840, Note_on_c, 4, 61, 0
3, 454080, Note_on_c, 4, 61, 100
3, 454080, Note_on_c, 0, 69, 100
3, 454320, Note_on_c, 4, 61, 0
3, 454320, Note_on_c, 0, 69, 0
3, 454560, Note_on_c, 4, 60, 100
3, 454560, Note_on_c, 4, 61, 100
3, 454800, Note_on_c, 4, 60, 0
3, 454800, Note_on_c, 4, 61, 0
3, 455040, Note_on_c, 4, 61, 100
3, 455280, Note_on_c, 4, 61, 0
3, 455520, Note_on_c, 4, 60, 100
3, 455520, Note_on_c, 4, 61, 100
3, 455520, Note_on_c, 0, 69, 100
3, 455760, Note_on_c, 4, 60, 0
3, 455760, Note_on_c, 4, 61, 0
3, 455760, Note_on_c, 0, 69, 0
3, 456000, Note_on_c, 4, 61, 100
3, 456240, Note_on_c, 4, 61, 0
3, 456480, Note_on_c, 4, 60, 100
3, 456480, Note_on_c, 4, 61, 100
3, 456720, Note_on_c, 4, 60, 0
3, 456720, Note_on_c, 4, 61, 0
3, 456960, Note_on_c, 4, 61, 100
3, 456960, Note_on_c, 0, 69, 100
3, 457200, Note_on_c, 4, 61, 0
3, 457200, Note_on_c, 0, 69, 0
3, 457440, Note_on_c, 4, 60, 100
3, 457440, Note_on_c, 4, 61, 100
3, 457680, Note_on_c, 4, 60, 0
3, 457680, Note_on_c, 4, 61, 0
3, 457920, Note_on_c, 4, 61, 100
3, 458160, Note_on_c, 4, 61, 0
3, 458400, Note_on_c, 4, 60, 100
3, 458400, Note_on_c, 4, 61, 100
3, 458400, Note_on_c, 0, 69, 100
3, 458640, Note_on_c, 4, 60, 0
3, 458640, Note_on_c, 4, 61, 0
3, 458640, Note_on_c, 0, 69, 0
3, 458880, Note_on_c, 4, 61, 100
3, 459120, Note_on_c, 4, 61, 0
3, 459360, Note_on_c, 4, 60, 100
3, 459360, Note_on_c, 4, 61, 100
3, 459600, Note_on_c, 4, 60, 0
3, 459600, Note_on_c, 4, 61, 0
3, 459840, Note_on_c, 4, 61, 100
3, 459840, Note_on_c, 0, 69, 100
3, 460080, Note_on_c, 4, 61, 0
3, 460080, Note_on_c, 0, 69, 0
3, 460320, Note_on_c, 4, 60, 100
3, 460320, Note_on_c, 4, 61, 100
3, 460560, Note_on_c, 4, 60, 0
3, 460560, Note_on_c, 4, 61, 0
3, 460800, Note_on_c, 4, 61, 100
3, 461040, Note_on_c, 4, 61, 0
3, 461280, Note_on_c, 4, 60, 100
3, 461280, Note_on_c, 4, 61, 100
3, 461280, Note_on_c, 0, 69, 100
3, 461520, Note_on_c, 4, 60, 0
3, 461520, Note_on_c, 4, 61, 0
3, 461520, Note_on_c, 0, 69, 0
3, 461760, Note_on_c, 4, 61, 100
3, 461760, Note_on_c, 0, 70, 100
3, 462000, Note_on_c, 4, 61, 0
3, 462000, Note_on_c, 0, 70, 0
3, 462240, Note_on_c, 4, 60, 100
3, 462240, Note_on_c, 4, 61, 100
3, 462480, Note_on_c, 4, 60, 0
3, 462480, Note_on_c, 4, 61, 0
3, 462720, Note_on_c, 4, 61, 100
3, 462960, Note_on_c, 4, 61, 0
3, 463200, Note_on_c, 4, 60, 100
3, 463200, Note_on_c, 4, 61, 100
3, 463200, Note_on_c, 0, 69, 100
3, 463440, Note_on_c, 4, 60, 0
3, 463440, Note_on_c, 4, 61, 0
3, 463440, Note_on_c, 0, 69, 0
3, 464160, Note_on_c, 4, 60, 100
3, 464160, Note_on_c, 4, 61, 100
3, 464400, Note_on_c, 4, 60, 0
3, 464400, Note_on_c, 4, 61, 0
3, 464640, Note_on_c, 4, 61, 100
3, 464880, Note_on_c, 4, 61, 0
3, 465120, Note_on_c, 4, 60, 100
3, 465120, Note_on_c, 4, 61, 100
3, 465120, Note_on_c, 0, 69, 100
3, 465360, Note_on_c, 4, 60, 0
3, 465360, Note_on_c, 4, 61, 0
3, 465360, Note_on_c, 0, 69, 0
3, 465600, Note_on_c, 4, 61, 100
3, 465840, Note_on_c, 4, 61, 0
3, 466080, Note_on_c, 4, 60, 100
3, 466080, Note_on_c, 4, 61, 100
3, 466320, Note_on_c, 4, 60, 0
3, 466320, Note_on_c, 4, 61, 0
3, 466560, Note_on_c, 4, 61, 100
3, 466560, Note_on_c, 0, 69, 100
3, 466800, Note_on_c, 4, 61, 0
3, 466800, Note_on_c, 0, 69, 0
3, 467040, Note_on_c, 4, 60, 100
3, 467040, Note_on_c, 4, 61, 100
3, 467280, Note_on_c, 4, 60, 0
3, 467280, Note_on_c, 4, 61, 0
3, 467520, Note_on_c, 4, 61, 100
3, 467760, Note_on_c, 4, 61, 0
3, 468000, Note_on_c, 4, 60, 100
3, 468000, Note_on_c, 4, 61, 100
3, 468000, Note_on_c, 0, 69, 100
3, 468240, Note_on_c, 4, 60, 0
3, 468240, Note_on_c, 4, 61, 0
3, 468240, Note_on_c, 0, 69, 0
3, 468480, Note_on_c, 4, 61, 100
3, 468720, Note_on_c, 4, 61, 0
3, 468960, Note_on_c, 4, 60, 100
3, 468960, Note_on_c, 4, 61, 100
3, 469200, Note_on_c, 4, 60, 0
3, 469200, Note_on_c, 4, 61, 0
3, 469440, Note_on_c, 4, 61, 100
3, 469440, Note_on_c, 0, 69, 100
3, 469680, Note_on_c, 4, 61, 0
3, 469680, Note_on_c, 0, 69, 0
3, 469920, Note_on_c, 4, 60, 100
3, 469920, Note_on_c, 4, 61, 100
3, 470160, Note_on_c, 4, 60, 0
3, 470160, Note_on_c, 4, 61, 0
3, 470400, Note_on_c, 4, 61, 100
3, 470640, Note_on_c, 4, 61, 0
3, 470880, Note_on_c, 4, 60, 100
3, 470880, Note_on_c, 4, 61, 100
3, 470880, Note_on_c, 0, 69, 100
3, 471120, Note_on_c, 4, 60, 0
3, 471120, Note_on_c, 4, 61, 0
3, 471120, Note_on_c, 0, 69, 0
3, 471360, Note_on_c, 4, 61, 100
3, 471600, Note_on_c, 4, 61, 0
3, 471840, Note_on_c, 4, 60, 100
3, 471840, Note_on_c, 4, 61, 100
3, 472080, Note_on_c, 4, 60, 0
3, 472080, Note_on_c, 4, 61, 0
3, 472320, Note_on_c, 4, 61, 100
3, 472320, Note_on_c, 0, 69, 100
3, 472560, Note_on_c, 4, 61, 0
3, 472560, Note_on_c, 0, 69, 0
3, 472800, Note_on_c, 4, 60, 100
3, 472800, Note_on_c, 4, 61, 100
3, 472800, Note_on_c, 0, 68, 100
3, 473040, Note_on_c, 4, 60, 0
3, 473040, Note_on_c, 4, 61, 0
3, 473040, Note_on_c, 0, 68, 0
3, 473760, Note_on_c, 4, 60, 100
3, 473760, Note_on_c, 4, 61, 100
3, 474000, Note_on_c, 4, 60, 0
3, 474000, Note_on_c, 4, 61, 0
3, 474240, Note_on_c, 4, 61, 100
3, 474240, Note_on_c, 0, 69, 100
3, 474480, Note_on_c, 4, 61, 0
3, 474480, Note_on_c, 0, 69, 0
3, 474720, Note_on_c, 4, 61, 100
3, 474960, Note_on_c, 4, 61, 0
3, 475200, Note_on_c, 4, 60, 100
3, 475200, Note_on_c, 4, 61, 100
3, 475200, Note_on_c, 0, 70, 100
3, 475440, Note_on_c, 4, 60, 0
3, 475440, Note_on_c, 4, 61, 0
3, 475440, Note_on_c, 0, 70, 0
3, 475680, Note_on_c, 4, 61, 100
3, 475920, Note_on_c, 4, 61, 0
3, 476640, Note_on_c, 4, 60, 100
3, 476640, Note_on_c, 4, 61, 100
3, 476640, Note_on_c, 0, 68, 100
3, 476880, Note_on_c, 4, 60, 0
3, 476880, Note_on_c, 4, 61, 0
3, 476880, Note_on_c, 0, 68, 0
3, 477600, Note_on_c, 4, 60, 100
3, 477600, Note_on_c, 4, 61, 100
3, 477840, Note_on_c, 4, 60, 0
3, 477840, Note_on_c, 4, 61, 0
3, 478080, Note_on_c, 4, 61, 100
3, 478080, Note_on_c, 0, 69, 100
3, 478320, Note_on_c, 4, 61, 0
3, 478320, Note_on_c, 0, 69, 0
3, 478560, Note_on_c, 4, 61, 100
3, 478800, Note_on_c, 4, 61, 0
3, 479040, Note_on_c, 4, 60, 100
3, 479040, Note_on_c, 4, 61, 100
3, 479040, Note_on_c, 0, 70, 100
3, 479280, Note_on_c, 4, 60, 0
3, 479280, Note_on_c, 4, 61, 0
3, 479280, Note_on_c, 0, 70, 0
3, 479520, Note_on_c, 4, 61, 100
3, 479520, Note_on_c, 4, 60, 100
3, 479760, Note_on_c, 4, 61, 0
3, 479760, Note_on_c, 4, 60, 0
3, 480480, Note_on_c, 4, 60, 100
3, 480480, Note_on_c, 4, 61, 100
3, 480480, Note_on_c, 0, 68, 100
3, 480720, Note_on_c, 4, 60, 0
3, 480720, Note_on_c, 4, 61, 0
3, 480720, Note_on_c, 0, 68, 0
3, 481440, Note_on_c, 4, 60, 100
3, 481440, Note_on_c, 4, 61, 100
3, 481680, Note_on_c, 4, 60, 0
3, 481680, Note_on_c, 4, 61, 0
3, 481920, Note_on_c, 4, 61, 100
3, 481920, Note_on_c, 0, 69, 100
3, 482160, Note_on_c, 4, 61, 0
3, 482160, Note_on_c, 0, 69, 0
3, 482400, Note_on_c, 4, 61, 100
3, 482640, Note_on_c, 4, 61, 0
3, 482880, Note_on_c, 4, 61, 100
3, 482880, Note_on_c, 0, 70, 100
3, 483120, Note_on_c, 4, 61, 0
3, 483120, Note_on_c, 0, 70, 0
3, 483360, Note_on_c, 4, 61, 100
3, 483600, Note_on_c, 4, 61, 0
3, 483840, Note_on_c, 4, 60, 100
3, 484080, Note_on_c, 4, 60, 0
3, 484320, Note_on_c, 4, 60, 100
3, 484320, Note_on_c, 4, 61, 100
3, 484320, Note_on_c, 0, 68, 100
3, 484560, Note_on_c, 4, 60, 0
3, 484560, Note_on_c, 4, 61, 0
3, 484560, Note_on_c, 0, 68, 0
3, 485280, Note_on_c, 4, 61, 100
3, 485520, Note_on_c, 4, 61, 0
3, 485760, Note_on_c, 4, 61, 100
3, 485760, Note_on_c, 0, 69, 100
3, 486000, Note_on_c, 4, 61, 0
3, 486000, Note_on_c, 0, 69, 0
3, 486240, Note_on_c, 4, 61, 100
3, 486240, Note_on_c, 4, 60, 100
3, 486480, Note_on_c, 4, 61, 0
3, 486480, Note_on_c, 4, 60, 0
3, 486720, Note_on_c, 4, 61, 100
3, 486720, Note_on_c, 0, 70, 100
3, 486960, Note_on_c, 4, 61, 0
3, 486960, Note_on_c, 0, 70, 0
3, 487200, Note_on_c, 4, 61, 100
3, 487440, Note_on_c, 4, 61, 0
3, 488160, Note_on_c, 4, 60, 100
3, 488160, Note_on_c, 4, 61, 100
3, 488160, Note_on_c, 0, 68, 100
3, 488400, Note_on_c, 4, 60, 0
3, 488400, Note_on_c, 4, 61, 0
3, 488400, Note_on_c, 0, 68, 0
3, 489120, Note_on_c, 4, 60, 100
3, 489120, Note_on_c, 4, 61, 100
3, 489360, Note_on_c, 4, 60, 0
3, 489360, Note_on_c, 4, 61, 0
3, 489600, Note_on_c, 4, 61, 100
3, 489600, Note_on_c, 0, 69, 100
3, 489840, Note_on_c, 4, 61, 0
3, 489840, Note_on_c, 0, 69, 0
3, 490080, Note_on_c, 4, 60, 100
3, 490080, Note_on_c, 4, 61, 100
3, 490320, Note_on_c, 4, 60, 0
3, 490320, Note_on_c, 4, 61, 0
3, 490560, Note_on_c, 4, 60, 100
3, 490560, Note_on_c, 4, 61, 100
3, 490560, Note_on_c, 0, 70, 100
3, 490800, Note_on_c, 4, 60, 0
3, 490800, Note_on_c, 4, 61, 0
3, 490800, Note_on_c, 0, 70, 0
3, 491040, Note_on_c, 4, 60, 100
3, 491040, Note_on_c, 4, 61, 100
3, 491280, Note_on_c, 4, 60, 0
3, 491280, Note_on_c, 4, 61, 0
3, 492000, Note_on_c, 4, 61, 100
3, 492000, Note_on_c, 0, 68, 100
3, 492240, Note_on_c, 4, 61, 0
3, 492240, Note_on_c, 0, 68, 0
3, 492960, Note_on_c, 4, 60, 100
3, 492960, Note_on_c, 4, 61, 100
3, 493200, Note_on_c, 4, 60, 0
3, 493200, Note_on_c, 4, 61, 0
3, 493440, Note_on_c, 4, 61, 100
3, 493440, Note_on_c, 0, 69, 100
3, 493680, Note_on_c, 4, 61, 0
3, 493680, Note_on_c, 0, 69, 0
3, 493920, Note_on_c, 4, 60, 100
3, 493920, Note_on_c, 4, 61, 100
3, 494160, Note_on_c, 4, 60, 0
3, 494160, Note_on_c, 4, 61, 0
3, 494400, Note_on_c, 4, 60, 100
3, 494400, Note_on_c, 4, 61, 100
3, 494400, Note_on_c, 0, 70, 100
3, 494640, Note_on_c, 4, 60, 0
3, 494640, Note_on_c, 4, 61, 0
3, 494640, Note_on_c, 0, 70, 0
3, 494880, Note_on_c, 4, 60, 100
3, 494880, Note_on_c, 4, 61, 100
3, 495120, Note_on_c, 4, 60, 0
3, 495120, Note_on_c, 4, 61, 0
3, 495360, Note_on_c, 4, 61, 100
3, 495600, Note_on_c, 4, 61, 0
3, 495840, Note_on_c, 4, 61, 100
3, 495840, Note_on_c, 0, 68, 100
3, 496080, Note_on_c, 4, 61, 0
3, 496080, Note_on_c, 0, 68, 0
3, 496800, Note_on_c, 4, 60, 100
3, 496800, Note_on_c, 4, 61, 100
3, 497040, Note_on_c, 4, 60, 0
3, 497040, Note_on_c, 4, 61, 0
3, 497280, Note_on_c, 4, 61, 100
3, 497280, Note_on_c, 0, 69, 100
3, 497520, Note_on_c, 4, 61, 0
3, 497520, Note_on_c, 0, 69, 0
3, 497760, Note_on_c, 4, 60, 100
3, 497760, Note_on_c, 4, 61, 100
3, 498000, Note_on_c, 4, 60, 0
3, 498000, Note_on_c, 4, 61, 0
3, 498240, Note_on_c, 4, 60, 100
3, 498240, Note_on_c, 4, 61, 100
3, 498240, Note_on_c, 0, 70, 100
3, 498480, Note_on_c, 4, 60, 0
3, 498480, Note_on_c, 4, 61, 0
3, 498480, Note_on_c, 0, 70, 0
3, 498720, Note_on_c, 4, 60, 100
3, 498720, Note_on_c, 4, 61, 100
3, 498960, Note_on_c, 4, 60, 0
3, 498960, Note_on_c, 4, 61, 0
3, 499680, Note_on_c, 4, 61, 100
3, 499680, Note_on_c, 0, 68, 100
3, 499920, Note_on_c, 4, 61, 0
3, 499920, Note_on_c, 0, 68, 0
3, 500640, Note_on_c, 4, 60, 100
3, 500640, Note_on_c, 4, 61, 100
3, 500880, Note_on_c, 4, 60, 0
3, 500880, Note_on_c, 4, 61, 0
3, 501120, Note_on_c, 4, 61, 100
3, 501120, Note_on_c, 0, 69, 100
3, 501360, Note_on_c, 4, 61, 0
3, 501360, Note_on_c, 0, 69, 0
3, 501600, Note_on_c, 4, 60, 100
3, 501600, Note_on_c, 4, 61, 100
3, 501840, Note_on_c, 4, 60, 0
3, 501840, Note_on_c, 4, 61, 0
3, 502080, Note_on_c, 4, 61, 100
3, 502080, Note_on_c, 0, 70, 100
3, 502320, Note_on_c, 4, 61, 0
3, 502320, Note_on_c, 0, 70, 0
3, 502560, Note_on_c, 4, 60, 100
3, 502560, Note_on_c, 4, 61, 100
3, 502800, Note_on_c, 4, 60, 0
3, 502800, Note_on_c, 4, 61, 0
3, 503040, Note_on_c, 4, 61, 100
3, 503040, Note_on_c, 0, 70, 100
3, 503280, Note_on_c, 4, 61, 0
3, 503280, Note_on_c, 0, 70, 0
3, 503520, Note_on_c, 4, 61, 100
3, 503520, Note_on_c, 4, 60, 100
3, 503520, Note_on_c, 0, 68, 100
3, 503760, Note_on_c, 4, 61, 0
3, 503760, Note_on_c, 4, 60, 0
3, 503760, Note_on_c, 0, 68, 0
3, 504480, Note_on_c, 4, 61, 100
3, 504480, Note_on_c, 4, 60, 100
3, 504720, Note_on_c, 4, 61, 0
3, 504720, Note_on_c, 4, 60, 0
3, 504960, Note_on_c, 4, 61, 100
3, 504960, Note_on_c, 0, 69, 100
3, 505200, Note_on_c, 4, 61, 0
3, 505200, Note_on_c, 0, 69, 0
3, 505440, Note_on_c, 4, 61, 100
3, 505680, Note_on_c, 4, 61, 0
3, 505920, Note_on_c, 4, 60, 100
3, 505920, Note_on_c, 4, 61, 100
3, 505920, Note_on_c, 0, 70, 100
3, 506160, Note_on_c, 4, 60, 0
3, 506160, Note_on_c, 4, 61, 0
3, 506160, Note_on_c, 0, 70, 0
3, 506400, Note_on_c, 4, 61, 100
3, 506640, Note_on_c, 4, 61, 0
3, 507360, Note_on_c, 4, 61, 100
3, 507360, Note_on_c, 0, 68, 100
3, 507600, Note_on_c, 4, 61, 0
3, 507600, Note_on_c, 0, 68, 0
3, 507840, Note_on_c, 4, 60, 100
3, 508080, Note_on_c, 4, 60, 0
3, 508320, Note_on_c, 4, 61, 100
3, 508560, Note_on_c, 4, 61, 0
3, 508800, Note_on_c, 4, 61, 100
3, 508800, Note_on_c, 0, 69, 100
3, 509040, Note_on_c, 4, 61, 0
3, 509040, Note_on_c, 0, 69, 0
3, 509280, Note_on_c, 4, 61, 100
3, 509520, Note_on_c, 4, 61, 0
3, 509760, Note_on_c, 4, 60, 100
3, 509760, Note_on_c, 4, 61, 100
3, 509760, Note_on_c, 0, 70, 100
3, 510000, Note_on_c, 4, 60, 0
3, 510000, Note_on_c, 4, 61, 0
3, 510000, Note_on_c, 0, 70, 0
3, 510240, Note_on_c, 4, 60, 100
3, 510240, Note_on_c, 4, 61, 100
3, 510480, Note_on_c, 4, 60, 0
3, 510480, Note_on_c, 4, 61, 0
3, 510720, Note_on_c, 4, 61, 100
3, 510960, Note_on_c, 4, 61, 0
3, 511200, Note_on_c, 4, 60, 100
3, 511200, Note_on_c, 4, 61, 100
3, 511200, Note_on_c, 0, 68, 100
3, 511440, Note_on_c, 4, 60, 0
3, 511440, Note_on_c, 4, 61, 0
3, 511440, Note_on_c, 0, 68, 0
3, 512160, Note_on_c, 4, 60, 100
3, 512160, Note_on_c, 4, 61, 100
3, 512400, Note_on_c, 4, 60, 0
3, 512400, Note_on_c, 4, 61, 0
3, 512640, Note_on_c, 4, 61, 100
3, 512640, Note_on_c, 0, 69, 100
3, 512880, Note_on_c, 4, 61, 0
3, 512880, Note_on_c, 0, 69, 0
3, 513120, Note_on_c, 4, 61, 100
3, 513360, Note_on_c, 4, 61, 0
3, 513600, Note_on_c, 4, 60, 100
3, 513600, Note_on_c, 4, 61, 100
3, 513600, Note_on_c, 0, 70, 100
3, 513840, Note_on_c, 4, 60, 0
3, 513840, Note_on_c, 4, 61, 0
3, 513840, Note_on_c, 0, 70, 0
3, 514080, Note_on_c, 4, 60, 100
3, 514080, Note_on_c, 4, 61, 100
3, 514320, Note_on_c, 4, 60, 0
3, 514320, Note_on_c, 4, 61, 0
3, 515040, Note_on_c, 4, 61, 100
3, 515040, Note_on_c, 0, 68, 100
3, 515280, Note_on_c, 4, 61, 0
3, 515280, Note_on_c, 0, 68, 0
3, 515520, Note_on_c, 4, 60, 100
3, 515760, Note_on_c, 4, 60, 0
3, 516000, Note_on_c, 4, 60, 100
3, 516000, Note_on_c, 4, 61, 100
3, 516240, Note_on_c, 4, 60, 0
3, 516240, Note_on_c, 4, 61, 0
3, 516480, Note_on_c, 4, 61, 100
3, 516480, Note_on_c, 0, 69, 100
3, 516720, Note_on_c, 4, 61, 0
3, 516720, Note_on_c, 0, 69, 0
3, 516960, Note_on_c, 4, 61, 100
3, 517200, Note_on_c, 4, 61, 0
3, 517440, Note_on_c, 4, 61, 100
3, 517440, Note_on_c, 0, 70, 100
3, 517680, Note_on_c, 4, 61, 0
3, 517680, Note_on_c, 0, 70, 0
3, 517920, Note_on_c, 4, 60, 100
3, 517920, Note_on_c, 4, 61, 100
3, 518160, Note_on_c, 4, 60, 0
3, 518160, Note_on_c, 4, 61, 0
3, 518400, Note_on_c, 4, 60, 100
3, 518400, Note_on_c, 4, 61, 100
3, 518400, Note_on_c, 0, 70, 100
3, 518640, Note_on_c, 4, 60, 0
3, 518640, Note_on_c, 4, 61, 0
3, 518640, Note_on_c, 0, 70, 0
3, 518880, Note_on_c, 4, 60, 100
3, 518880, Note_on_c, 4, 61, 100
3, 518880, Note_on_c, 0, 68, 100
3, 519120, Note_on_c, 4, 60, 0
3, 519120, Note_on_c, 4, 61, 0
3, 519120, Note_on_c, 0, 68, 0
3, 519840, Note_on_c, 4, 60, 100
3, 519840, Note_on_c, 4, 61, 100
3, 520080, Note_on_c, 4, 60, 0
3, 520080, Note_on_c, 4, 61, 0
3, 520320, Note_on_c, 4, 61, 100
3, 520320, Note_on_c, 0, 69, 100
3, 520560, Note_on_c, 4, 61, 0
3, 520560, Note_on_c, 0, 69, 0
3, 520800, Note_on_c, 4, 61, 100
3, 521040, Note_on_c, 4, 61, 0
3, 521280, Note_on_c, 4, 60, 100
3, 521280, Note_on_c, 4, 61, 100
3, 521280, Note_on_c, 0, 70, 100
3, 521520, Note_on_c, 4, 60, 0
3, 521520, Note_on_c, 4, 61, 0
3, 521520, Note_on_c, 0, 70, 0
3, 521760, Note_on_c, 4, 61, 100
3, 522000, Note_on_c, 4, 61, 0
3, 522720, Note_on_c, 4, 61, 100
3, 522720, Note_on_c, 0, 68, 100
3, 522960, Note_on_c, 4, 61, 0
3, 522960, Note_on_c, 0, 68, 0
3, 523200, Note_on_c, 4, 60, 100
3, 523440, Note_on_c, 4, 60, 0
3, 523680, Note_on_c, 4, 61, 100
3, 523920, Note_on_c, 4, 61, 0
3, 524160, Note_on_c, 4, 61, 100
3, 524160, Note_on_c, 0, 69, 100
3, 524400, Note_on_c, 4, 61, 0
3, 524400, Note_on_c, 0, 69, 0
3, 524640, Note_on_c, 4, 61, 100
3, 524880, Note_on_c, 4, 61, 0
3, 525120, Note_on_c, 4, 60, 100
3, 525120, Note_on_c, 4, 61, 100
3, 525120, Note_on_c, 0, 70, 100
3, 525360, Note_on_c, 4, 60, 0
3, 525360, Note_on_c, 4, 61, 0
3, 525360, Note_on_c, 0, 70, 0
3, 525600, Note_on_c, 4, 61, 100
3, 525840, Note_on_c, 4, 61, 0
3, 526080, Note_on_c, 4, 61, 100
3, 526320, Note_on_c, 4, 61, 0
3, 526560, Note_on_c, 4, 60, 100
3, 526560, Note_on_c, 4, 61, 100
3, 526560, Note_on_c, 0, 68, 100
3, 526800, Note_on_c, 4, 60, 0
3, 526800, Note_on_c, 4, 61, 0
3, 526800, Note_on_c, 0, 68, 0
3, 527520, Note_on_c, 4, 60, 100
3, 527520, Note_on_c, 4, 61, 100
3, 527760, Note_on_c, 4, 60, 0
3, 527760, Note_on_c, 4, 61, 0
3, 528000, Note_on_c, 4, 61, 100
3, 528000, Note_on_c, 0, 69, 100
3, 528240, Note_on_c, 4, 61, 0
3, 528240, Note_on_c, 0, 69, 0
3, 528480, Note_on_c, 4, 61, 100
3, 528720, Note_on_c, 4, 61, 0
3, 528960, Note_on_c, 4, 60, 100
3, 528960, Note_on_c, 4, 61, 100
3, 528960, Note_on_c, 0, 70, 100
3, 529200, Note_on_c, 4, 60, 0
3, 529200, Note_on_c, 4, 61, 0
3, 529200, Note_on_c, 0, 70, 0
3, 529440, Note_on_c, 4, 60, 100
3, 529440, Note_on_c, 4, 61, 100
3, 529680, Note_on_c, 4, 60, 0
3, 529680, Note_on_c, 4, 61, 0
3, 530400, Note_on_c, 4, 61, 100
3, 530400, Note_on_c, 0, 68, 100
3, 530640, Note_on_c, 4, 61, 0
3, 530640, Note_on_c, 0, 68, 0
3, 531360, Note_on_c, 4, 61, 100
3, 531600, Note_on_c, 4, 61, 0
3, 531840, Note_on_c, 4, 61, 100
3, 531840, Note_on_c, 0, 69, 100
3, 532080, Note_on_c, 4, 61, 0
3, 532080, Note_on_c, 0, 69, 0
3, 532320, Note_on_c, 4, 61, 100
3, 532560, Note_on_c, 4, 61, 0
3, 532800, Note_on_c, 4, 61, 100
3, 532800, Note_on_c, 0, 70, 100
3, 533040, Note_on_c, 4, 61, 0
3, 533040, Note_on_c, 0, 70, 0
3, 533280, Note_on_c, 4, 60, 100
3, 533280, Note_on_c, 4, 61, 100
3, 533520, Note_on_c, 4, 60, 0
3, 533520, Note_on_c, 4, 61, 0
3, 533760, Note_on_c, 4, 61, 100
3, 534000, Note_on_c, 4, 61, 0
3, 534240, Note_on_c, 4, 60, 100
3, 534240, Note_on_c, 4, 61, 100
3, 534240, Note_on_c, 0, 68, 100
3, 534480, Note_on_c, 4, 60, 0
3, 534480, Note_on_c, 4, 61, 0
3, 536640, Note_on_c, 4, 60, 100
3, 536880, Note_on_c, 4, 60, 0
3, 537120, Note_on_c, 4, 60, 100
3, 537360, Note_on_c, 4, 60, 0
3, 537600, Note_on_c, 0, 68, 0
3, 538080, Note_on_c, 4, 60, 100
3, 538080, Note_on_c, 4, 61, 100
3, 538080, Note_on_c, 0, 69, 100
3, 538320, Note_on_c, 4, 60, 0
3, 538320, Note_on_c, 4, 61, 0
3, 540480, Note_on_c, 4, 60, 100
3, 540720, Note_on_c, 4, 60, 0
3, 541920, Note_on_c, 0, 69, 0
3, 542400, Note_on_c, 4, 60, 100
3, 542400, Note_on_c, 4, 61, 100
3, 542400, Note_on_c, 0, 68, 100
3, 542640, Note_on_c, 4, 60, 0
3, 542640, Note_on_c, 4, 61, 0
3, 542640, Note_on_c, 0, 68, 0
3, 542880, Note_on_c, 4, 60, 100
3, 542880, Note_on_c, 4, 61, 100
3, 543120, Note_on_c, 4, 60, 0
3, 543120, Note_on_c, 4, 61, 0
3, 543360, Note_on_c, 4, 61, 100
3, 543360, Note_on_c, 0, 68, 100
3, 543600, Note_on_c, 4, 61, 0
3, 543600, Note_on_c, 0, 68, 0
3, 543840, Note_on_c, 4, 61, 100
3, 544080, Note_on_c, 4, 61, 0
3, 544320, Note_on_c, 4, 60, 100
3, 544320, Note_on_c, 4, 61, 100
3, 544320, Note_on_c, 0, 68, 100
3, 544560, Note_on_c, 4, 60, 0
3, 544560, Note_on_c, 4, 61, 0
3, 544560, Note_on_c, 0, 68, 0
3, 544800, Note_on_c, 4, 61, 100
3, 545040, Note_on_c, 4, 61, 0
3, 545280, Note_on_c, 4, 61, 100
3, 545280, Note_on_c, 0, 68, 100
3, 545520, Note_on_c, 4, 61, 0
3, 545520, Note_on_c, 0, 68, 0
3, 545760, Note_on_c, 4, 60, 100
3, 545760, Note_on_c, 4, 61, 100
3, 546000, Note_on_c, 4, 60, 0
3, 546000, Note_on_c, 4, 61, 0
3, 546240, Note_on_c, 4, 60, 100
3, 546240, Note_on_c, 4, 61, 100
3, 546240, Note_on_c, 0, 69, 100
3, 546480, Note_on_c, 4, 60, 0
3, 546480, Note_on_c, 4, 61, 0
3, 546480, Note_on_c, 0, 69, 0
3, 546720, Note_on_c, 4, 60, 100
3, 546720, Note_on_c, 4, 61, 100
3, 546960, Note_on_c, 4, 60, 0
3, 546960, Note_on_c, 4, 61, 0
3, 547200, Note_on_c, 4, 61, 100
3, 547200, Note_on_c, 0, 69, 100
3, 547440, Note_on_c, 4, 61, 0
3, 547440, Note_on_c, 0, 69, 0
3, 547680, Note_on_c, 4, 60, 100
3, 547680, Note_on_c, 4, 61, 100
3, 547920, Note_on_c, 4, 60, 0
3, 547920, Note_on_c, 4, 61, 0
3, 548160, Note_on_c, 4, 60, 100
3, 548160, Note_on_c, 4, 61, 100
3, 548160, Note_on_c, 0, 69, 100
3, 548400, Note_on_c, 4, 60, 0
3, 548400, Note_on_c, 4, 61, 0
3, 548400, Note_on_c, 0, 69, 0
3, 548640, Note_on_c, 4, 61, 100
3, 548880, Note_on_c, 4, 61, 0
3, 549120, Note_on_c, 4, 61, 100
3, 549120, Note_on_c, 0, 69, 100
3, 549360, Note_on_c, 4, 61, 0
3, 549360, Note_on_c, 0, 69, 0
3, 549600, Note_on_c, 4, 61, 100
3, 549840, Note_on_c, 4, 61, 0
3, 550080, Note_on_c, 4, 60, 100
3, 550080, Note_on_c, 4, 61, 100
3, 550080, Note_on_c, 0, 69, 100
3, 550320, Note_on_c, 4, 60, 0
3, 550320, Note_on_c, 4, 61, 0
3, 550320, Note_on_c, 0, 69, 0
3, 550560, Note_on_c, 4, 60, 100
3, 550560, Note_on_c, 4, 61, 100
3, 550800, Note_on_c, 4, 60, 0
3, 550800, Note_on_c, 4, 61, 0
3, 551040, Note_on_c, 4, 61, 100
3, 551040, Note_on_c, 0, 69, 100
3, 551280, Note_on_c, 4, 61, 0
3, 551280, Note_on_c, 0, 69, 0
3, 551520, Note_on_c, 4, 60, 100
3, 551520, Note_on_c, 4, 61, 100
3, 551760, Note_on_c, 4, 60, 0
3, 551760, Note_on_c, 4, 61, 0
3, 552000, Note_on_c, 4, 60, 100
3, 552000, Note_on_c, 4, 61, 100
3, 552000, Note_on_c, 0, 69, 100
3, 552240, Note_on_c, 4, 60, 0
3, 552240, Note_on_c, 4, 61, 0
3, 552240, Note_on_c, 0, 69, 0
3, 552480, Note_on_c, 4, 60, 100
3, 552480, Note_on_c, 4, 61, 100
3, 552720, Note_on_c, 4, 60, 0
3, 552720, Note_on_c, 4, 61, 0
3, 552960, Note_on_c, 4, 61, 100
3, 552960, Note_on_c, 0, 69, 100
3, 553200, Note_on_c, 4, 61, 0
3, 553200, Note_on_c, 0, 69, 0
3, 553440, Note_on_c, 4, 60, 100
3, 553440, Note_on_c, 4, 61, 100
3, 553680, Note_on_c, 4, 60, 0
3, 553680, Note_on_c, 4, 61, 0
3, 553920, Note_on_c, 4, 60, 100
3, 553920, Note_on_c, 4, 61, 100
3, 553920, Note_on_c, 0, 70, 100
3, 554160, Note_on_c, 4, 60, 0
3, 554160, Note_on_c, 4, 61, 0
3, 554160, Note_on_c, 0, 70, 0
3, 554400, Note_on_c, 4, 60, 100
3, 554400, Note_on_c, 4, 61, 100
3, 554640, Note_on_c, 4, 60, 0
3, 554640, Note_on_c, 4, 61, 0
3, 554880, Note_on_c, 4, 61, 100
3, 554880, Note_on_c, 0, 70, 100
3, 555120, Note_on_c, 4, 61, 0
3, 555120, Note_on_c, 0, 70, 0
3, 555360, Note_on_c, 4, 60, 100
3, 555360, Note_on_c, 4, 61, 100
3, 555600, Note_on_c, 4, 60, 0
3, 555600, Note_on_c, 4, 61, 0
3, 555840, Note_on_c, 4, 60, 100
3, 555840, Note_on_c, 4, 61, 100
3, 555840, Note_on_c, 0, 70, 100
3, 556080, Note_on_c, 4, 60, 0
3, 556080, Note_on_c, 4, 61, 0
3, 556080, Note_on_c, 0, 70, 0
3, 556320, Note_on_c, 4, 60, 100
3, 556320, Note_on_c, 4, 61, 100
3, 556560, Note_on_c, 4, 60, 0
3, 556560, Note_on_c, 4, 61, 0
3, 556800, Note_on_c, 4, 61, 100
3, 556800, Note_on_c, 0, 70, 100
3, 557040, Note_on_c, 4, 61, 0
3, 557040, Note_on_c, 0, 70, 0
3, 557280, Note_on_c, 4, 60, 100
3, 557280, Note_on_c, 4, 61, 100
3, 557520, Note_on_c, 4, 60, 0
3, 557520, Note_on_c, 4, 61, 0
3, 557760, Note_on_c, 4, 60, 100
3, 557760, Note_on_c, 4, 61, 100
3, 557760, Note_on_c, 0, 70, 100
3, 558000, Note_on_c, 4, 60, 0
3, 558000, Note_on_c, 4, 61, 0
3, 558000, Note_on_c, 0, 70, 0
3, 558240, Note_on_c, 4, 60, 100
3, 558240, Note_on_c, 4, 61, 100
3, 558480, Note_on_c, 4, 60, 0
3, 558480, Note_on_c, 4, 61, 0
3, 558720, Note_on_c, 4, 61, 100
3, 558720, Note_on_c, 0, 70, 100
3, 558960, Note_on_c, 4, 61, 0
3, 558960, Note_on_c, 0, 70, 0
3, 559200, Note_on_c, 4, 60, 100
3, 559200, Note_on_c, 4, 61, 100
3, 559440, Note_on_c, 4, 60, 0
3, 559440, Note_on_c, 4, 61, 0
3, 559680, Note_on_c, 4, 60, 100
3, 559680, Note_on_c, 4, 61, 100
3, 559680, Note_on_c, 0, 70, 100
3, 559920, Note_on_c, 4, 60, 0
3, 559920, Note_on_c, 4, 61, 0
3, 559920, Note_on_c, 0, 70, 0
3, 560160, Note_on_c, 4, 60, 100
3, 560160, Note_on_c, 4, 61, 100
3, 560400, Note_on_c, 4, 60, 0
3, 560400, Note_on_c, 4, 61, 0
3, 560640, Note_on_c, 4, 61, 100
3, 560880, Note_on_c, 4, 61, 0
3, 561120, Note_on_c, 4, 60, 100
3, 561120, Note_on_c, 4, 61, 100
3, 561360, Note_on_c, 4, 60, 0
3, 561360, Note_on_c, 4, 61, 0
3, 561600, Note_on_c, 4, 60, 100
3, 561600, Note_on_c, 4, 61, 100
3, 561600, Note_on_c, 0, 70, 100
3, 561840, Note_on_c, 4, 60, 0
3, 561840, Note_on_c, 4, 61, 0
3, 561840, Note_on_c, 0, 70, 0
3, 562080, Note_on_c, 4, 60, 100
3, 562080, Note_on_c, 4, 61, 100
3, 562320, Note_on_c, 4, 60, 0
3, 562320, Note_on_c, 4, 61, 0
3, 562560, Note_on_c, 4, 61, 100
3, 562560, Note_on_c, 0, 70, 100
3, 562800, Note_on_c, 4, 61, 0
3, 562800, Note_on_c, 0, 70, 0
3, 563040, Note_on_c, 4, 60, 100
3, 563040, Note_on_c, 4, 61, 100
3, 563280, Note_on_c, 4, 60, 0
3, 563280, Note_on_c, 4, 61, 0
3, 563520, Note_on_c, 4, 60, 100
3, 563520, Note_on_c, 4, 61, 100
3, 563520, Note_on_c, 0, 70, 100
3, 563760, Note_on_c, 4, 60, 0
3, 563760, Note_on_c, 4, 61, 0
3, 563760, Note_on_c, 0, 70, 0
3, 564000, Note_on_c, 4, 60, 100
3, 564000, Note_on_c, 4, 61, 100
3, 564240, Note_on_c, 4, 60, 0
3, 564240, Note_on_c, 4, 61, 0
3, 564480, Note_on_c, 4, 61, 100
3, 564480, Note_on_c, 0, 70, 100
3, 564720, Note_on_c, 4, 61, 0
3, 564720, Note_on_c, 0, 70, 0
3, 564960, Note_on_c, 4, 60, 100
3, 564960, Note_on_c, 4, 61, 100
3, 565200, Note_on_c, 4, 60, 0
3, 565200, Note_on_c, 4, 61, 0
3, 565440, Note_on_c, 4, 60, 100
3, 565440, Note_on_c, 4, 61, 100
3, 565440, Note_on_c, 0, 70, 100
3, 565680, Note_on_c, 4, 60, 0
3, 565680, Note_on_c, 4, 61, 0
3, 565680, Note_on_c, 0, 70, 0
3, 565920, Note_on_c, 4, 61, 100
3, 566160, Note_on_c, 4, 61, 0
3, 566400, Note_on_c, 4, 61, 100
3, 566400, Note_on_c, 0, 70, 100
3, 566640, Note_on_c, 4, 61, 0
3, 566640, Note_on_c, 0, 70, 0
3, 566880, Note_on_c, 4, 60, 100
3, 566880, Note_on_c, 4, 61, 100
3, 567120, Note_on_c, 4, 60, 0
3, 567120, Note_on_c, 4, 61, 0
3, 567360, Note_on_c, 4, 60, 100
3, 567360, Note_on_c, 4, 61, 100
3, 567360, Note_on_c, 0, 70, 100
3, 567600, Note_on_c, 4, 60, 0
3, 567600, Note_on_c, 4, 61, 0
3, 567600, Note_on_c, 0, 70, 0
3, 567840, Note_on_c, 4, 60, 100
3, 567840, Note_on_c, 4, 61, 100
3, 568080, Note_on_c, 4, 60, 0
3, 568080, Note_on_c, 4, 61, 0
3, 568320, Note_on_c, 4, 61, 100
3, 568560, Note_on_c, 4, 61, 0
3, 568800, Note_on_c, 4, 60, 100
3, 568800, Note_on_c, 4, 61, 100
3, 569040, Note_on_c, 4, 60, 0
3, 569040, Note_on_c, 4, 61, 0
3, 569280, Note_on_c, 4, 60, 100
3, 569280, Note_on_c, 4, 61, 100
3, 569280, Note_on_c, 0, 70, 100
3, 569520, Note_on_c, 4, 60, 0
3, 569520, Note_on_c, 4, 61, 0
3, 569520, Note_on_c, 0, 70, 0
3, 569760, Note_on_c, 4, 60, 100
3, 569760, Note_on_c, 4, 61, 100
3, 570000, Note_on_c, 4, 60, 0
3, 570000, Note_on_c, 4, 61, 0
3, 570240, Note_on_c, 4, 61, 100
3, 570240, Note_on_c, 0, 70, 100
3, 570480, Note_on_c, 4, 61, 0
3, 570480, Note_on_c, 0, 70, 0
3, 570720, Note_on_c, 4, 60, 100
3, 570720, Note_on_c, 4, 61, 100
3, 570960, Note_on_c, 4, 60, 0
3, 570960, Note_on_c, 4, 61, 0
3, 571200, Note_on_c, 4, 60, 100
3, 571200, Note_on_c, 4, 61, 100
3, 571200, Note_on_c, 0, 70, 100
3, 571440, Note_on_c, 4, 60, 0
3, 571440, Note_on_c, 4, 61, 0
3, 571440, Note_on_c, 0, 70, 0
3, 571680, Note_on_c, 4, 60, 100
3, 571680, Note_on_c, 4, 61, 100
3, 571920, Note_on_c, 4, 60, 0
3, 571920, Note_on_c, 4, 61, 0
3, 572160, Note_on_c, 4, 61, 100
3, 572160, Note_on_c, 0, 70, 100
3, 572400, Note_on_c, 4, 61, 0
3, 572400, Note_on_c, 0, 70, 0
3, 572640, Note_on_c, 4, 60, 100
3, 572640, Note_on_c, 4, 61, 100
3, 572880, Note_on_c, 4, 60, 0
3, 572880, Note_on_c, 4, 61, 0
3, 573120, Note_on_c, 4, 60, 100
3, 573120, Note_on_c, 4, 61, 100
3, 573120, Note_on_c, 0, 69, 100
3, 573360, Note_on_c, 4, 60, 0
3, 573360, Note_on_c, 4, 61, 0
3, 573360, Note_on_c, 0, 69, 0
3, 573600, Note_on_c, 4, 61, 100
3, 573840, Note_on_c, 4, 61, 0
3, 574080, Note_on_c, 4, 61, 100
3, 574080, Note_on_c, 0, 69, 100
3, 574320, Note_on_c, 4, 61, 0
3, 574320, Note_on_c, 0, 69, 0
3, 574560, Note_on_c, 4, 60, 100
3, 574560, Note_on_c, 4, 61, 100
3, 574800, Note_on_c, 4, 60, 0
3, 574800, Note_on_c, 4, 61, 0
3, 575040, Note_on_c, 4, 60, 100
3, 575040, Note_on_c, 4, 61, 100
3, 575040, Note_on_c, 0, 69, 100
3, 575280, Note_on_c, 4, 60, 0
3, 575280, Note_on_c, 4, 61, 0
3, 575280, Note_on_c, 0, 69, 0
3, 575520, Note_on_c, 4, 60, 100
3, 575520, Note_on_c, 4, 61, 100
3, 575760, Note_on_c, 4, 60, 0
3, 575760, Note_on_c, 4, 61, 0
3, 576000, Note_on_c, 4, 61, 100
3, 576000, Note_on_c, 0, 69, 100
3, 576240, Note_on_c, 4, 61, 0
3, 576240, Note_on_c, 0, 69, 0
3, 576480, Note_on_c, 4, 60, 100
3, 576480, Note_on_c, 4, 61, 100
3, 576720, Note_on_c, 4, 60, 0
3, 576720, Note_on_c, 4, 61, 0
3, 576960, Note_on_c, 4, 60, 100
3, 576960, Note_on_c, 4, 61, 100
3, 576960, Note_on_c, 0, 69, 100
3, 577200, Note_on_c, 4, 60, 0
3, 577200, Note_on_c, 4, 61, 0
3, 577200, Note_on_c, 0, 69, 0
3, 577440, Note_on_c, 4, 60, 100
3, 577440, Note_on_c, 4, 61, 100
3, 577680, Note_on_c, 4, 60, 0
3, 577680, Note_on_c, 4, 61, 0
3, 577920, Note_on_c, 4, 61, 100
3, 577920, Note_on_c, 0, 69, 100
3, 578160, Note_on_c, 4, 61, 0
3, 578160, Note_on_c, 0, 69, 0
3, 578400, Note_on_c, 4, 60, 100
3, 578400, Note_on_c, 4, 61, 100
3, 578640, Note_on_c, 4, 60, 0
3, 578640, Note_on_c, 4, 61, 0
3, 578880, Note_on_c, 4, 60, 100
3, 578880, Note_on_c, 4, 61, 100
3, 578880, Note_on_c, 0, 69, 100
3, 579120, Note_on_c, 4, 60, 0
3, 579120, Note_on_c, 4, 61, 0
3, 579120, Note_on_c, 0, 69, 0
3, 579360, Note_on_c, 4, 60, 100
3, 579360, Note_on_c, 4, 61, 100
3, 579360, Note_on_c, 0, 68, 100
3, 579600, Note_on_c, 4, 60, 0
3, 579600, Note_on_c, 4, 61, 0
3, 579600, Note_on_c, 0, 68, 0
3, 579840, Note_on_c, 4, 61, 100
3, 580080, Note_on_c, 4, 61, 0
3, 580320, Note_on_c, 4, 60, 100
3, 580320, Note_on_c, 4, 61, 100
3, 580560, Note_on_c, 4, 60, 0
3, 580560, Note_on_c, 4, 61, 0
3, 580800, Note_on_c, 4, 60, 100
3, 580800, Note_on_c, 4, 61, 100
3, 580800, Note_on_c, 0, 70, 100
3, 581040, Note_on_c, 4, 60, 0
3, 581040, Note_on_c, 4, 61, 0
3, 581040, Note_on_c, 0, 70, 0
3, 581280, Note_on_c, 4, 60, 100
3, 581280, Note_on_c, 4, 61, 100
3, 581520, Note_on_c, 4, 60, 0
3, 581520, Note_on_c, 4, 61, 0
3, 581760, Note_on_c, 4, 61, 100
3, 581760, Note_on_c, 0, 70, 100
3, 582000, Note_on_c, 4, 61, 0
3, 582000, Note_on_c, 0, 70, 0
3, 582240, Note_on_c, 4, 60, 100
3, 582240, Note_on_c, 4, 61, 100
3, 582480, Note_on_c, 4, 60, 0
3, 582480, Note_on_c, 4, 61, 0
3, 582720, Note_on_c, 4, 60, 100
3, 582720, Note_on_c, 4, 61, 100
3, 582720, Note_on_c, 0, 70, 100
3, 582960, Note_on_c, 4, 60, 0
3, 582960, Note_on_c, 4, 61, 0
3, 582960, Note_on_c, 0, 70, 0
3, 583200, Note_on_c, 4, 60, 100
3, 583200, Note_on_c, 4, 61, 100
3, 583440, Note_on_c, 4, 60, 0
3, 583440, Note_on_c, 4, 61, 0
3, 583680, Note_on_c, 4, 61, 100
3, 583680, Note_on_c, 0, 70, 100
3, 583920, Note_on_c, 4, 61, 0
3, 583920, Note_on_c, 0, 70, 0
3, 584160, Note_on_c, 4, 60, 100
3, 584160, Note_on_c, 4, 61, 100
3, 584400, Note_on_c, 4, 60, 0
3, 584400, Note_on_c, 4, 61, 0
3, 584640, Note_on_c, 4, 60, 100
3, 584640, Note_on_c, 4, 61, 100
3, 584640, Note_on_c, 0, 70, 100
3, 584880, Note_on_c, 4, 60, 0
3, 584880, Note_on_c, 4, 61, 0
3, 584880, Note_on_c, 0, 70, 0
3, 585120, Note_on_c, 4, 61, 100
3, 585360, Note_on_c, 4, 61, 0
3, 585600, Note_on_c, 4, 61, 100
3, 585600, Note_on_c, 0, 70, 100
3, 585840, Note_on_c, 4, 61, 0
3, 585840, Note_on_c, 0, 70, 0
3, 586080, Note_on_c, 4, 60, 100
3, 586080, Note_on_c, 4, 61, 100
3, 586320, Note_on_c, 4, 60, 0
3, 586320, Note_on_c, 4, 61, 0
3, 586560, Note_on_c, 4, 60, 100
3, 586560, Note_on_c, 4, 61, 100
3, 586560, Note_on_c, 0, 70, 100
3, 586800, Note_on_c, 4, 60, 0
3, 586800, Note_on_c, 4, 61, 0
3, 586800, Note_on_c, 0, 70, 0
3, 587040, Note_on_c, 4, 60, 100
3, 587040, Note_on_c, 4, 61, 100
3, 587280, Note_on_c, 4, 60, 0
3, 587280, Note_on_c, 4, 61, 0
3, 587520, Note_on_c, 4, 61, 100
3, 587520, Note_on_c, 0, 70, 100
3, 587760, Note_on_c, 4, 61, 0
3, 587760, Note_on_c, 0, 70, 0
3, 588000, Note_on_c, 4, 60, 100
3, 588000, Note_on_c, 4, 61, 100
3, 588240, Note_on_c, 4, 60, 0
3, 588240, Note_on_c, 4, 61, 0
3, 588480, Note_on_c, 4, 61, 100
3, 588480, Note_on_c, 0, 69, 100
3, 588720, Note_on_c, 4, 61, 0
3, 588720, Note_on_c, 0, 69, 0
3, 588960, Note_on_c, 4, 60, 100
3, 588960, Note_on_c, 4, 61, 100
3, 588960, Note_on_c, 0, 69, 100
3, 589200, Note_on_c, 4, 60, 0
3, 589200, Note_on_c, 4, 61, 0
3, 589200, Note_on_c, 0, 69, 0
3, 589440, Note_on_c, 4, 61, 100
3, 589440, Note_on_c, 0, 69, 100
3, 589680, Note_on_c, 4, 61, 0
3, 589680, Note_on_c, 0, 69, 0
3, 589920, Note_on_c, 4, 60, 100
3, 589920, Note_on_c, 4, 61, 100
3, 590160, Note_on_c, 4, 60, 0
3, 590160, Note_on_c, 4, 61, 0
3, 590400, Note_on_c, 4, 61, 100
3, 590400, Note_on_c, 0, 69, 100
3, 590640, Note_on_c, 4, 61, 0
3, 590640, Note_on_c, 0, 69, 0
3, 590880, Note_on_c, 4, 60, 100
3, 590880, Note_on_c, 4, 61, 100
3, 590880, Note_on_c, 0, 69, 100
3, 591120, Note_on_c, 4, 60, 0
3, 591120, Note_on_c, 4, 61, 0
3, 591120, Note_on_c, 0, 69, 0
3, 591360, Note_on_c, 4, 61, 100
3, 591360, Note_on_c, 0, 69, 100
3, 591600, Note_on_c, 4, 61, 0
3, 591600, Note_on_c, 0, 69, 0
3, 591840, Note_on_c, 4, 60, 100
3, 591840, Note_on_c, 4, 61, 100
3, 592080, Note_on_c, 4, 60, 0
3, 592080, Note_on_c, 4, 61, 0
3, 592320, Note_on_c, 4, 61, 100
3, 592320, Note_on_c, 0, 69, 100
3, 592560, Note_on_c, 4, 61, 0
3, 592560, Note_on_c, 0, 69, 0
3, 592800, Note_on_c, 4, 60, 100
3, 592800, Note_on_c, 4, 61, 100
3, 592800, Note_on_c, 0, 69, 100
3, 593040, Note_on_c, 4, 60, 0
3, 593040, Note_on_c, 4, 61, 0
3, 593040, Note_on_c, 0, 69, 0
3, 593280, Note_on_c, 4, 61, 100
3, 593280, Note_on_c, 0, 69, 100
3, 593520, Note_on_c, 4, 61, 0
3, 593520, Note_on_c, 0, 69, 0
3, 593760, Note_on_c, 4, 60, 100
3, 593760, Note_on_c, 4, 61, 100
3, 594000, Note_on_c, 4, 60, 0
3, 594000, Note_on_c, 4, 61, 0
3, 594240, Note_on_c, 4, 61, 100
3, 594240, Note_on_c, 0, 69, 100
3, 594480, Note_on_c, 4, 61, 0
3, 594480, Note_on_c, 0, 69, 0
3, 594720, Note_on_c, 4, 60, 100
3, 594720, Note_on_c, 4, 61, 100
3, 594720, Note_on_c, 0, 69, 100
3, 594960, Note_on_c, 4, 60, 0
3, 594960, Note_on_c, 4, 61, 0
3, 594960, Note_on_c, 0, 69, 0
3, 595200, Note_on_c, 4, 61, 100
3, 595200, Note_on_c, 0, 69, 100
3, 595440, Note_on_c, 4, 61, 0
3, 595440, Note_on_c, 0, 69, 0
3, 595680, Note_on_c, 4, 60, 100
3, 595680, Note_on_c, 4, 61, 100
3, 595920, Note_on_c, 4, 60, 0
3, 595920, Note_on_c, 4, 61, 0
3, 596160, Note_on_c, 4, 61, 100
3, 596160, Note_on_c, 0, 68, 100
3, 596400, Note_on_c, 4, 61, 0
3, 596400, Note_on_c, 0, 68, 0
3, 596640, Note_on_c, 4, 60, 100
3, 596640, Note_on_c, 4, 61, 100
3, 596640, Note_on_c, 0, 68, 100
3, 596880, Note_on_c, 4, 60, 0
3, 596880, Note_on_c, 4, 61, 0
3, 596880, Note_on_c, 0, 68, 0
3, 597120, Note_on_c, 4, 61, 100
3, 597120, Note_on_c, 0, 68, 100
3, 597360, Note_on_c, 4, 61, 0
3, 597360, Note_on_c, 0, 68, 0
3, 597600, Note_on_c, 4, 60, 100
3, 597600, Note_on_c, 4, 61, 100
3, 597840, Note_on_c, 4, 60, 0
3, 597840, Note_on_c, 4, 61, 0
3, 598080, Note_on_c, 4, 61, 100
3, 598080, Note_on_c, 0, 68, 100
3, 598320, Note_on_c, 4, 61, 0
3, 598320, Note_on_c, 0, 68, 0
3, 598560, Note_on_c, 4, 60, 100
3, 598560, Note_on_c, 4, 61, 100
3, 598560, Note_on_c, 0, 68, 100
3, 598800, Note_on_c, 4, 60, 0
3, 598800, Note_on_c, 4, 61, 0
3, 598800, Note_on_c, 0, 68, 0
3, 599040, Note_on_c, 4, 61, 100
3, 599040, Note_on_c, 0, 68, 100
3, 599280, Note_on_c, 4, 61, 0
3, 599280, Note_on_c, 0, 68, 0
3, 599520, Note_on_c, 4, 60, 100
3, 599520, Note_on_c, 4, 61, 100
3, 599760, Note_on_c, 4, 60, 0
3, 599760, Note_on_c, 4, 61, 0
3, 600000, Note_on_c, 4, 61, 100
3, 600000, Note_on_c, 0, 68, 100
3, 600240, Note_on_c, 4, 61, 0
3, 600240, Note_on_c, 0, 68, 0
3, 600480, Note_on_c, 4, 60, 100
3, 600480, Note_on_c, 4, 61, 100
3, 600480, Note_on_c, 0, 68, 100
3, 600720, Note_on_c, 4, 60, 0
3, 600720, Note_on_c, 4, 61, 0
3, 600720, Note_on_c, 0, 68, 0
3, 600960, Note_on_c, 4, 61, 100
3, 600960, Note_on_c, 0, 68, 100
3, 601200, Note_on_c, 4, 61, 0
3, 601200, Note_on_c, 0, 68, 0
3, 601440, Note_on_c, 4, 60, 100
3, 601440, Note_on_c, 4, 61, 100
3, 601680, Note_on_c, 4, 60, 0
3, 601680, Note_on_c, 4, 61, 0
3, 601920, Note_on_c, 4, 61, 100
3, 601920, Note_on_c, 0, 68, 100
3, 602160, Note_on_c, 4, 61, 0
3, 602160, Note_on_c, 0, 68, 0
3, 602400, Note_on_c, 4, 60, 100
3, 602400, Note_on_c, 4, 61, 100
3, 602400, Note_on_c, 0, 68, 100
3, 602640, Note_on_c, 4, 60, 0
3, 602640, Note_on_c, 4, 61, 0
3, 602640, Note_on_c, 0, 68, 0
3, 602880, Note_on_c, 4, 61, 100
3, 602880, Note_on_c, 0, 68, 100
3, 603120, Note_on_c, 4, 61, 0
3, 603120, Note_on_c, 0, 68, 0
3, 603360, Note_on_c, 4, 60, 100
3, 603360, Note_on_c, 4, 61, 100
3, 603600, Note_on_c, 4, 60, 0
3, 603600, Note_on_c, 4, 61, 0
3, 603840, Note_on_c, 4, 61, 100
3, 603840, Note_on_c, 0, 70, 100
3, 604080, Note_on_c, 4, 61, 0
3, 604080, Note_on_c, 0, 70, 0
3, 604320, Note_on_c, 4, 60, 100
3, 604320, Note_on_c, 4, 61, 100
3, 604320, Note_on_c, 0, 70, 100
3, 604560, Note_on_c, 4, 60, 0
3, 604560, Note_on_c, 4, 61, 0
3, 604560, Note_on_c, 0, 70, 0
3, 604800, Note_on_c, 4, 61, 100
3, 604800, Note_on_c, 0, 70, 100
3, 605040, Note_on_c, 4, 61, 0
3, 605040, Note_on_c, 0, 70, 0
3, 605280, Note_on_c, 4, 60, 100
3, 605280, Note_on_c, 4, 61, 100
3, 605520, Note_on_c, 4, 60, 0
3, 605520, Note_on_c, 4, 61, 0
3, 605760, Note_on_c, 4, 61, 100
3, 605760, Note_on_c, 0, 70, 100
3, 606000, Note_on_c, 4, 61, 0
3, 606000, Note_on_c, 0, 70, 0
3, 606240, Note_on_c, 4, 60, 100
3, 606240, Note_on_c, 4, 61, 100
3, 606240, Note_on_c, 0, 70, 100
3, 606480, Note_on_c, 4, 60, 0
3, 606480, Note_on_c, 4, 61, 0
3, 606480, Note_on_c, 0, 70, 0
3, 606720, Note_on_c, 4, 61, 100
3, 606720, Note_on_c, 0, 70, 100
3, 606960, Note_on_c, 4, 61, 0
3, 606960, Note_on_c, 0, 70, 0
3, 607200, Note_on_c, 4, 60, 100
3, 607200, Note_on_c, 4, 61, 100
3, 607440, Note_on_c, 4, 60, 0
3, 607440, Note_on_c, 4, 61, 0
3, 607680, Note_on_c, 4, 61, 100
3, 607680, Note_on_c, 0, 70, 100
3, 607920, Note_on_c, 4, 61, 0
3, 607920, Note_on_c, 0, 70, 0
3, 608160, Note_on_c, 4, 60, 100
3, 608160, Note_on_c, 4, 61, 100
3, 608160, Note_on_c, 0, 70, 100
3, 608400, Note_on_c, 4, 60, 0
3, 608400, Note_on_c, 4, 61, 0
3, 608400, Note_on_c, 0, 70, 0
3, 608640, Note_on_c, 4, 61, 100
3, 608640, Note_on_c, 0, 70, 100
3, 608880, Note_on_c, 4, 61, 0
3, 608880, Note_on_c, 0, 70, 0
3, 609120, Note_on_c, 4, 60, 100
3, 609120, Note_on_c, 4, 61, 100
3, 609120, Note_on_c, 0, 70, 100
3, 609360, Note_on_c, 4, 60, 0
3, 609360, Note_on_c, 4, 61, 0
3, 609360, Note_on_c, 0, 70, 0
3, 609600, Note_on_c, 4, 61, 100
3, 609600, Note_on_c, 0, 70, 100
3, 609840, Note_on_c, 4, 61, 0
3, 609840, Note_on_c, 0, 70, 0
3, 610080, Note_on_c, 4, 60, 100
3, 610080, Note_on_c, 4, 61, 100
3, 610080, Note_on_c, 0, 70, 100
3, 610320, Note_on_c, 4, 60, 0
3, 610320, Note_on_c, 4, 61, 0
3, 610320, Note_on_c, 0, 70, 0
3, 610560, Note_on_c, 4, 61, 100
3, 610800, Note_on_c, 4, 61, 0
3, 611040, Note_on_c, 4, 60, 100
3, 611040, Note_on_c, 4, 61, 100
3, 611040, Note_on_c, 0, 68, 100
3, 611280, Note_on_c, 4, 60, 0
3, 611280, Note_on_c, 4, 61, 0
3, 611280, Note_on_c, 0, 68, 0
3, 612000, Note_on_c, 4, 60, 100
3, 612000, Note_on_c, 4, 61, 100
3, 612240, Note_on_c, 4, 60, 0
3, 612240, Note_on_c, 4, 61, 0
3, 612480, Note_on_c, 4, 61, 100
3, 612720, Note_on_c, 4, 61, 0
3, 612960, Note_on_c, 4, 61, 100
3, 612960, Note_on_c, 0, 68, 100
3, 613200, Note_on_c, 4, 61, 0
3, 613200, Note_on_c, 0, 68, 0
3, 613440, Note_on_c, 4, 61, 100
3, 613440, Note_on_c, 0, 69, 100
3, 613680, Note_on_c, 4, 61, 0
3, 613680, Note_on_c, 0, 69, 0
3, 613920, Note_on_c, 4, 61, 100
3, 613920, Note_on_c, 0, 70, 100
3, 614160, Note_on_c, 4, 61, 0
3, 614160, Note_on_c, 0, 70, 0
3, 615360, Note_on_c, 4, 61, 100
3, 615600, Note_on_c, 4, 61, 0
3, 615600, End_track
4, 0, Start_track
4, 0, Title_t, "ANIM"
4, 7680, Note_on_c, 3, 40, 100
4, 19200, Text_t, "HandMap_AllChords"
4, 21120, Note_on_c, 3, 40, 0
4, 22560, Note_on_c, 3, 42, 100
4, 24000, Note_on_c, 3, 42, 0
4, 24480, Note_on_c, 3, 43, 100
4, 25440, Note_on_c, 3, 43, 0
4, 25920, Note_on_c, 3, 45, 100
4, 26400, Note_on_c, 3, 45, 0
4, 26880, Note_on_c, 3, 42, 100
4, 27840, Note_on_c, 3, 42, 0
4, 28320, Note_on_c, 3, 43, 100
4, 29280, Note_on_c, 3, 43, 0
4, 29760, Note_on_c, 3, 45, 100
4, 30240, Note_on_c, 3, 45, 0
4, 30720, Note_on_c, 3, 42, 100
4, 31680, Note_on_c, 3, 42, 0
4, 32160, Note_on_c, 3, 43, 100
4, 33120, Note_on_c, 3, 43, 0
4, 33600, Note_on_c, 3, 45, 100
4, 34080, Note_on_c, 3, 45, 0
4, 34560, Note_on_c, 3, 42, 100
4, 35520, Note_on_c, 3, 42, 0
4, 36000, Note_on_c, 3, 43, 100
4, 36960, Note_on_c, 3, 43, 0
4, 37440, Note_on_c, 3, 45, 100
4, 37920, Note_on_c, 3, 45, 0
4, 38400, Text_t, "HandMap_Solo"
4, 38400, Note_on_c, 3, 54, 100
4, 68160, Note_on_c, 3, 54, 0
4, 69120, Text_t, "HandMap_DropD2"
4, 69120, Note_on_c, 3, 40, 100
4, 76320, Note_on_c, 3, 40, 0
4, 76800, Note_on_c, 3, 41, 100
4, 89280, Note_on_c, 3, 41, 0
4, 89760, Note_on_c, 3, 43, 100
4, 90720, Note_on_c, 3, 43, 0
4, 91200, Note_on_c, 3, 45, 100
4, 91680, Note_on_c, 3, 45, 0
4, 92160, Note_on_c, 3, 41, 100
4, 104640, Note_on_c, 3, 41, 0
4, 105120, Note_on_c, 3, 43, 100
4, 106080, Note_on_c, 3, 43, 0
4, 106560, Note_on_c, 3, 45, 100
4, 107040, Note_on_c, 3, 45, 0
4, 107520, Note_on_c, 3, 41, 100
4, 120000, Note_on_c, 3, 41, 0
4, 120480, Note_on_c, 3, 43, 100
4, 121440, Note_on_c, 3, 43, 0
4, 121920, Note_on_c, 3, 45, 100
4, 122400, Note_on_c, 3, 45, 0
4, 122880, Note_on_c, 3, 41, 100
4, 135360, Note_on_c, 3, 41, 0
4, 135840, Note_on_c, 3, 43, 100
4, 136800, Note_on_c, 3, 43, 0
4, 137280, Note_on_c, 3, 45, 100
4, 137760, Note_on_c, 3, 45, 0
4, 138240, Note_on_c, 3, 41, 100
4, 150720, Note_on_c, 3, 41, 0
4, 151200, Note_on_c, 3, 43, 100
4, 152160, Note_on_c, 3, 43, 0
4, 152640, Note_on_c, 3, 45, 100
4, 153120, Note_on_c, 3, 45, 0
4, 153600, Note_on_c, 3, 41, 100
4, 166080, Note_on_c, 3, 41, 0
4, 166560, Note_on_c, 3, 43, 100
4, 167520, Note_on_c, 3, 43, 0
4, 168000, Note_on_c, 3, 45, 100
4, 168480, Note_on_c, 3, 45, 0
4, 168960, Text_t, "HandMap_Default"
4, 168960, Note_on_c, 3, 40, 100
4, 176160, Note_on_c, 3, 40, 0
4, 176640, Note_on_c, 3, 42, 100
4, 183840, Note_on_c, 3, 42, 0
4, 184320, Note_on_c, 3, 50, 100
4, 191520, Note_on_c, 3, 50, 0
4, 192000, Note_on_c, 3, 47, 100
4, 199200, Note_on_c, 3, 47, 0
4, 199680, Note_on_c, 3, 40, 100
4, 206880, Note_on_c, 3, 40, 0
4, 207360, Note_on_c, 3, 42, 100
4, 214560, Note_on_c, 3, 42, 0
4, 215040, Note_on_c, 3, 50, 100
4, 222240, Note_on_c, 3, 50, 0
4, 222720, Note_on_c, 3, 47, 100
4, 229680, Note_on_c, 3, 47, 0
4, 230400, Note_on_c, 3, 40, 100
4, 235200, Note_on_c, 3, 40, 0
4, 236160, Note_on_c, 3, 42, 100
4, 236640, Note_on_c, 3, 42, 0
4, 236640, Note_on_c, 3, 40, 100
4, 237120, Note_on_c, 3, 40, 0
4, 237120, Note_on_c, 3, 42, 100
4, 237600, Note_on_c, 3, 42, 0
4, 238080, Note_on_c, 3, 40, 100
4, 242880, Note_on_c, 3, 40, 0
4, 243840, Note_on_c, 3, 41, 100
4, 245760, Text_t, "HandMap_DropD2"
4, 258240, Note_on_c, 3, 41, 0
4, 258720, Note_on_c, 3, 43, 100
4, 259680, Note_on_c, 3, 43, 0
4, 260160, Note_on_c, 3, 45, 100
4, 260640, Note_on_c, 3, 45, 0
4, 261120, Note_on_c, 3, 41, 100
4, 273600, Note_on_c, 3, 41, 0
4, 274080, Note_on_c, 3, 43, 100
4, 275040, Note_on_c, 3, 43, 0
4, 275520, Note_on_c, 3, 45, 100
4, 276000, Note_on_c, 3, 45, 0
4, 276480, Note_on_c, 3, 41, 100
4, 288960, Note_on_c, 3, 41, 0
4, 289440, Note_on_c, 3, 43, 100
4, 290400, Note_on_c, 3, 43, 0
4, 290880, Note_on_c, 3, 45, 100
4, 291360, Note_on_c, 3, 45, 0
4, 291840, Note_on_c, 3, 41, 100
4, 304320, Note_on_c, 3, 41, 0
4, 304800, Note_on_c, 3, 43, 100
4, 305760, Note_on_c, 3, 43, 0
4, 306240, Note_on_c, 3, 45, 100
4, 306720, Note_on_c, 3, 45, 0
4, 307200, Note_on_c, 3, 41, 100
4, 319680, Note_on_c, 3, 41, 0
4, 320160, Note_on_c, 3, 43, 100
4, 321120, Note_on_c, 3, 43, 0
4, 321600, Note_on_c, 3, 45, 100
4, 322080, Note_on_c, 3, 45, 0
4, 322560, Note_on_c, 3, 41, 100
4, 335040, Note_on_c, 3, 41, 0
4, 335520, Note_on_c, 3, 43, 100
4, 336480, Note_on_c, 3, 43, 0
4, 336960, Note_on_c, 3, 45, 100
4, 337440, Note_on_c, 3, 45, 0
4, 337920, Text_t, "HandMap_Default"
4, 337920, Note_on_c, 3, 40, 100
4, 345120, Note_on_c, 3, 40, 0
4, 345600, Note_on_c, 3, 42, 100
4, 352800, Note_on_c, 3, 42, 0
4, 353280, Note_on_c, 3, 50, 100
4, 360480, Note_on_c, 3, 50, 0
4, 360960, Note_on_c, 3, 47, 100
4, 364800, Note_on_c, 3, 47, 0
4, 365280, Note_on_c, 3, 50, 100
4, 368160, Note_on_c, 3, 50, 0
4, 368640, Note_on_c, 3, 40, 100
4, 375840, Note_on_c, 3, 40, 0
4, 376320, Note_on_c, 3, 42, 100
4, 383520, Note_on_c, 3, 42, 0
4, 384000, Note_on_c, 3, 43, 100
4, 391200, Note_on_c, 3, 43, 0
4, 391680, Note_on_c, 3, 52, 100
4, 398880, Note_on_c, 3, 52, 0
4, 399360, Text_t, "HandMap_AllChords"
4, 399360, Note_on_c, 3, 45, 100
4, 399600, Note_on_c, 3, 45, 0
4, 399840, Note_on_c, 3, 47, 100
4, 400560, Note_on_c, 3, 47, 0
4, 400800, Note_on_c, 3, 45, 100
4, 401040, Note_on_c, 3, 45, 0
4, 401280, Note_on_c, 3, 47, 100
4, 402000, Note_on_c, 3, 47, 0
4, 402240, Note_on_c, 3, 45, 100
4, 402480, Note_on_c, 3, 45, 0
4, 402720, Note_on_c, 3, 47, 100
4, 403440, Note_on_c, 3, 47, 0
4, 403680, Note_on_c, 3, 45, 100
4, 403920, Note_on_c, 3, 45, 0
4, 404160, Note_on_c, 3, 47, 100
4, 404880, Note_on_c, 3, 47, 0
4, 405120, Note_on_c, 3, 45, 100
4, 405360, Note_on_c, 3, 45, 0
4, 405600, Note_on_c, 3, 47, 100
4, 406320, Note_on_c, 3, 47, 0
4, 406560, Note_on_c, 3, 45, 100
4, 406800, Note_on_c, 3, 45, 0
4, 407040, Note_on_c, 3, 47, 100
4, 407760, Note_on_c, 3, 47, 0
4, 408000, Note_on_c, 3, 45, 100
4, 408240, Note_on_c, 3, 45, 0
4, 408480, Note_on_c, 3, 47, 100
4, 409200, Note_on_c, 3, 47, 0
4, 409440, Note_on_c, 3, 45, 100
4, 409680, Note_on_c, 3, 45, 0
4, 409920, Note_on_c, 3, 47, 100
4, 410160, Note_on_c, 3, 47, 0
4, 410400, Note_on_c, 3, 48, 100
4, 410640, Note_on_c, 3, 48, 0
4, 410880, Note_on_c, 3, 47, 100
4, 411120, Note_on_c, 3, 47, 0
4, 411360, Note_on_c, 3, 45, 100
4, 412080, Note_on_c, 3, 45, 0
4, 412320, Note_on_c, 3, 47, 100
4, 413040, Note_on_c, 3, 47, 0
4, 413280, Note_on_c, 3, 45, 100
4, 413520, Note_on_c, 3, 45, 0
4, 413760, Note_on_c, 3, 47, 100
4, 414480, Note_on_c, 3, 47, 0
4, 414720, Note_on_c, 3, 45, 100
4, 414960, Note_on_c, 3, 45, 0
4, 415200, Note_on_c, 3, 47, 100
4, 415920, Note_on_c, 3, 47, 0
4, 416160, Note_on_c, 3, 45, 100
4, 416400, Note_on_c, 3, 45, 0
4, 416640, Note_on_c, 3, 47, 100
4, 417360, Note_on_c, 3, 47, 0
4, 417600, Note_on_c, 3, 45, 100
4, 417840, Note_on_c, 3, 45, 0
4, 418080, Note_on_c, 3, 47, 100
4, 418800, Note_on_c, 3, 47, 0
4, 419040, Note_on_c, 3, 45, 100
4, 419280, Note_on_c, 3, 45, 0
4, 419520, Note_on_c, 3, 47, 100
4, 419760, Note_on_c, 3, 47, 0
4, 420000, Note_on_c, 3, 48, 100
4, 420240, Note_on_c, 3, 48, 0
4, 420480, Note_on_c, 3, 47, 100
4, 420720, Note_on_c, 3, 47, 0
4, 420960, Note_on_c, 3, 40, 100
4, 421680, Note_on_c, 3, 40, 0
4, 421920, Note_on_c, 3, 42, 100
4, 422640, Note_on_c, 3, 42, 0
4, 422880, Note_on_c, 3, 40, 100
4, 423120, Note_on_c, 3, 40, 0
4, 423360, Note_on_c, 3, 42, 100
4, 423600, Note_on_c, 3, 42, 0
4, 423840, Note_on_c, 3, 43, 100
4, 424080, Note_on_c, 3, 43, 0
4, 424800, Note_on_c, 3, 45, 100
4, 425520, Note_on_c, 3, 45, 0
4, 425760, Note_on_c, 3, 47, 100
4, 426480, Note_on_c, 3, 47, 0
4, 426720, Note_on_c, 3, 45, 100
4, 426960, Note_on_c, 3, 45, 0
4, 427200, Note_on_c, 3, 47, 100
4, 427920, Note_on_c, 3, 47, 0
4, 428160, Note_on_c, 3, 45, 100
4, 428400, Note_on_c, 3, 45, 0
4, 428640, Note_on_c, 3, 47, 100
4, 429360, Note_on_c, 3, 47, 0
4, 429600, Note_on_c, 3, 45, 100
4, 429840, Note_on_c, 3, 45, 0
4, 430080, Note_on_c, 3, 47, 100
4, 430800, Note_on_c, 3, 47, 0
4, 431040, Note_on_c, 3, 45, 100
4, 431280, Note_on_c, 3, 45, 0
4, 431520, Note_on_c, 3, 47, 100
4, 432240, Note_on_c, 3, 47, 0
4, 432480, Note_on_c, 3, 45, 100
4, 432720, Note_on_c, 3, 45, 0
4, 432960, Note_on_c, 3, 47, 100
4, 433680, Note_on_c, 3, 47, 0
4, 433920, Note_on_c, 3, 45, 100
4, 434160, Note_on_c, 3, 45, 0
4, 434400, Note_on_c, 3, 47, 100
4, 435120, Note_on_c, 3, 47, 0
4, 435360, Note_on_c, 3, 45, 100
4, 435600, Note_on_c, 3, 45, 0
4, 435840, Note_on_c, 3, 47, 100
4, 436080, Note_on_c, 3, 47, 0
4, 436320, Note_on_c, 3, 48, 100
4, 436560, Note_on_c, 3, 48, 0
4, 436800, Note_on_c, 3, 47, 100
4, 437040, Note_on_c, 3, 47, 0
4, 437280, Note_on_c, 3, 45, 100
4, 438000, Note_on_c, 3, 45, 0
4, 438240, Note_on_c, 3, 47, 100
4, 438960, Note_on_c, 3, 47, 0
4, 439200, Note_on_c, 3, 45, 100
4, 439440, Note_on_c, 3, 45, 0
4, 439680, Note_on_c, 3, 47, 100
4, 440400, Note_on_c, 3, 47, 0
4, 440640, Note_on_c, 3, 45, 100
4, 440880, Note_on_c, 3, 45, 0
4, 441120, Note_on_c, 3, 47, 100
4, 441840, Note_on_c, 3, 47, 0
4, 442080, Note_on_c, 3, 45, 100
4, 442320, Note_on_c, 3, 45, 0
4, 442560, Note_on_c, 3, 47, 100
4, 443280, Note_on_c, 3, 47, 0
4, 443520, Note_on_c, 3, 45, 100
4, 443760, Note_on_c, 3, 45, 0
4, 444000, Note_on_c, 3, 47, 100
4, 444720, Note_on_c, 3, 47, 0
4, 444960, Note_on_c, 3, 45, 100
4, 445200, Note_on_c, 3, 45, 0
4, 445440, Note_on_c, 3, 47, 100
4, 445680, Note_on_c, 3, 47, 0
4, 445920, Note_on_c, 3, 48, 100
4, 446160, Note_on_c, 3, 48, 0
4, 446400, Note_on_c, 3, 47, 100
4, 446640, Note_on_c, 3, 47, 0
4, 446880, Note_on_c, 3, 40, 100
4, 447600, Note_on_c, 3, 40, 0
4, 447840, Note_on_c, 3, 42, 100
4, 448560, Note_on_c, 3, 42, 0
4, 448800, Note_on_c, 3, 40, 100
4, 449040, Note_on_c, 3, 40, 0
4, 449280, Note_on_c, 3, 42, 100
4, 449520, Note_on_c, 3, 42, 0
4, 449760, Note_on_c, 3, 43, 100
4, 450000, Note_on_c, 3, 43, 0
4, 450720, Note_on_c, 3, 45, 100
4, 451440, Note_on_c, 3, 45, 0
4, 451680, Note_on_c, 3, 47, 100
4, 452400, Note_on_c, 3, 47, 0
4, 452640, Note_on_c, 3, 45, 100
4, 452880, Note_on_c, 3, 45, 0
4, 453120, Note_on_c, 3, 47, 100
4, 453840, Note_on_c, 3, 47, 0
4, 454080, Note_on_c, 3, 45, 100
4, 454320, Note_on_c, 3, 45, 0
4, 454560, Note_on_c, 3, 47, 100
4, 455280, Note_on_c, 3, 47, 0
4, 455520, Note_on_c, 3, 45, 100
4, 455760, Note_on_c, 3, 45, 0
4, 456000, Note_on_c, 3, 47, 100
4, 456720, Note_on_c, 3, 47, 0
4, 456960, Note_on_c, 3, 45, 100
4, 457200, Note_on_c, 3, 45, 0
4, 457440, Note_on_c, 3, 47, 100
4, 458160, Note_on_c, 3, 47, 0
4, 458400, Note_on_c, 3, 45, 100
4, 458640, Note_on_c, 3, 45, 0
4, 458880, Note_on_c, 3, 47, 100
4, 459600, Note_on_c, 3, 47, 0
4, 459840, Note_on_c, 3, 45, 100
4, 460080, Note_on_c, 3, 45, 0
4, 460320, Note_on_c, 3, 47, 100
4, 461040, Note_on_c, 3, 47, 0
4, 461280, Note_on_c, 3, 45, 100
4, 461520, Note_on_c, 3, 45, 0
4, 461760, Note_on_c, 3, 47, 100
4, 462000, Note_on_c, 3, 47, 0
4, 462240, Note_on_c, 3, 48, 100
4, 462480, Note_on_c, 3, 48, 0
4, 462720, Note_on_c, 3, 47, 100
4, 462960, Note_on_c, 3, 47, 0
4, 463200, Note_on_c, 3, 45, 100
4, 463920, Note_on_c, 3, 45, 0
4, 464160, Note_on_c, 3, 47, 100
4, 464880, Note_on_c, 3, 47, 0
4, 465120, Note_on_c, 3, 45, 100
4, 465360, Note_on_c, 3, 45, 0
4, 465600, Note_on_c, 3, 47, 100
4, 466320, Note_on_c, 3, 47, 0
4, 466560, Note_on_c, 3, 45, 100
4, 466800, Note_on_c, 3, 45, 0
4, 467040, Note_on_c, 3, 47, 100
4, 467760, Note_on_c, 3, 47, 0
4, 468000, Note_on_c, 3, 45, 100
4, 468240, Note_on_c, 3, 45, 0
4, 468480, Note_on_c, 3, 47, 100
4, 469200, Note_on_c, 3, 47, 0
4, 469440, Note_on_c, 3, 45, 100
4, 469680, Note_on_c, 3, 45, 0
4, 469920, Note_on_c, 3, 47, 100
4, 470640, Note_on_c, 3, 47, 0
4, 470880, Note_on_c, 3, 45, 100
4, 471120, Note_on_c, 3, 45, 0
4, 471360, Note_on_c, 3, 47, 100
4, 471600, Note_on_c, 3, 47, 0
4, 471840, Note_on_c, 3, 48, 100
4, 472080, Note_on_c, 3, 48, 0
4, 472320, Note_on_c, 3, 47, 100
4, 472560, Note_on_c, 3, 47, 0
4, 472800, Note_on_c, 3, 40, 100
4, 473520, Note_on_c, 3, 40, 0
4, 473760, Note_on_c, 3, 42, 100
4, 474480, Note_on_c, 3, 42, 0
4, 474720, Note_on_c, 3, 40, 100
4, 474960, Note_on_c, 3, 40, 0
4, 475200, Note_on_c, 3, 42, 100
4, 475440, Note_on_c, 3, 42, 0
4, 475680, Note_on_c, 3, 43, 100
4, 476160, Note_on_c, 3, 43, 0
4, 476640, Note_on_c, 3, 40, 100
4, 477360, Note_on_c, 3, 40, 0
4, 477600, Note_on_c, 3, 42, 100
4, 478320, Note_on_c, 3, 42, 0
4, 478560, Note_on_c, 3, 40, 100
4, 478800, Note_on_c, 3, 40, 0
4, 479040, Note_on_c, 3, 42, 100
4, 479280, Note_on_c, 3, 42, 0
4, 479520, Note_on_c, 3, 43, 100
4, 480000, Note_on_c, 3, 43, 0
4, 480480, Note_on_c, 3, 40, 100
4, 481200, Note_on_c, 3, 40, 0
4, 481440, Note_on_c, 3, 42, 100
4, 482160, Note_on_c, 3, 42, 0
4, 482400, Note_on_c, 3, 40, 100
4, 482640, Note_on_c, 3, 40, 0
4, 482880, Note_on_c, 3, 42, 100
4, 483120, Note_on_c, 3, 42, 0
4, 483360, Note_on_c, 3, 43, 100
4, 483840, Note_on_c, 3, 43, 0
4, 484320, Note_on_c, 3, 40, 100
4, 485040, Note_on_c, 3, 40, 0
4, 485280, Note_on_c, 3, 42, 100
4, 486000, Note_on_c, 3, 42, 0
4, 486240, Note_on_c, 3, 40, 100
4, 486480, Note_on_c, 3, 40, 0
4, 486720, Note_on_c, 3, 42, 100
4, 486960, Note_on_c, 3, 42, 0
4, 487200, Note_on_c, 3, 43, 100
4, 487680, Note_on_c, 3, 43, 0
4, 488160, Note_on_c, 3, 40, 100
4, 488880, Note_on_c, 3, 40, 0
4, 489120, Note_on_c, 3, 42, 100
4, 489840, Note_on_c, 3, 42, 0
4, 490080, Note_on_c, 3, 40, 100
4, 490320, Note_on_c, 3, 40, 0
4, 490560, Note_on_c, 3, 42, 100
4, 490800, Note_on_c, 3, 42, 0
4, 491040, Note_on_c, 3, 43, 100
4, 491520, Note_on_c, 3, 43, 0
4, 492000, Note_on_c, 3, 40, 100
4, 492720, Note_on_c, 3, 40, 0
4, 492960, Note_on_c, 3, 42, 100
4, 493680, Note_on_c, 3, 42, 0
4, 493920, Note_on_c, 3, 40, 100
4, 494160, Note_on_c, 3, 40, 0
4, 494400, Note_on_c, 3, 42, 100
4, 494640, Note_on_c, 3, 42, 0
4, 494880, Note_on_c, 3, 43, 100
4, 495360, Note_on_c, 3, 43, 0
4, 495840, Note_on_c, 3, 40, 100
4, 496560, Note_on_c, 3, 40, 0
4, 496800, Note_on_c, 3, 42, 100
4, 497520, Note_on_c, 3, 42, 0
4, 497760, Note_on_c, 3, 40, 100
4, 498000, Note_on_c, 3, 40, 0
4, 498240, Note_on_c, 3, 42, 100
4, 498480, Note_on_c, 3, 42, 0
4, 498720, Note_on_c, 3, 43, 100
4, 499200, Note_on_c, 3, 43, 0
4, 499680, Note_on_c, 3, 40, 100
4, 500400, Note_on_c, 3, 40, 0
4, 500640, Note_on_c, 3, 42, 100
4, 501360, Note_on_c, 3, 42, 0
4, 501600, Note_on_c, 3, 40, 100
4, 501840, Note_on_c, 3, 40, 0
4, 502080, Note_on_c, 3, 42, 100
4, 502320, Note_on_c, 3, 42, 0
4, 502560, Note_on_c, 3, 43, 100
4, 502800, Note_on_c, 3, 43, 0
4, 503040, Note_on_c, 3, 45, 100
4, 503280, Note_on_c, 3, 45, 0
4, 503520, Note_on_c, 3, 40, 100
4, 504240, Note_on_c, 3, 40, 0
4, 504480, Note_on_c, 3, 42, 100
4, 505200, Note_on_c, 3, 42, 0
4, 505440, Note_on_c, 3, 40, 100
4, 505680, Note_on_c, 3, 40, 0
4, 505920, Note_on_c, 3, 42, 100
4, 506160, Note_on_c, 3, 42, 0
4, 506400, Note_on_c, 3, 43, 100
4, 506880, Note_on_c, 3, 43, 0
4, 507360, Note_on_c, 3, 40, 100
4, 508080, Note_on_c, 3, 40, 0
4, 508320, Note_on_c, 3, 42, 100
4, 509040, Note_on_c, 3, 42, 0
4, 509280, Note_on_c, 3, 40, 100
4, 509520, Note_on_c, 3, 40, 0
4, 509760, Note_on_c, 3, 42, 100
4, 510000, Note_on_c, 3, 42, 0
4, 510240, Note_on_c, 3, 43, 100
4, 510720, Note_on_c, 3, 43, 0
4, 511200, Note_on_c, 3, 40, 100
4, 511920, Note_on_c, 3, 40, 0
4, 512160, Note_on_c, 3, 42, 100
4, 512880, Note_on_c, 3, 42, 0
4, 513120, Note_on_c, 3, 40, 100
4, 513360, Note_on_c, 3, 40, 0
4, 513600, Note_on_c, 3, 42, 100
4, 513840, Note_on_c, 3, 42, 0
4, 514080, Note_on_c, 3, 43, 100
4, 514560, Note_on_c, 3, 43, 0
4, 515040, Note_on_c, 3, 40, 100
4, 515760, Note_on_c, 3, 40, 0
4, 516000, Note_on_c, 3, 42, 100
4, 516720, Note_on_c, 3, 42, 0
4, 516960, Note_on_c, 3, 40, 100
4, 517200, Note_on_c, 3, 40, 0
4, 517440, Note_on_c, 3, 42, 100
4, 517680, Note_on_c, 3, 42, 0
4, 517920, Note_on_c, 3, 43, 100
4, 518160, Note_on_c, 3, 43, 0
4, 518400, Note_on_c, 3, 45, 100
4, 518640, Note_on_c, 3, 45, 0
4, 518880, Note_on_c, 3, 40, 100
4, 519600, Note_on_c, 3, 40, 0
4, 519840, Note_on_c, 3, 42, 100
4, 520560, Note_on_c, 3, 42, 0
4, 520800, Note_on_c, 3, 40, 100
4, 521040, Note_on_c, 3, 40, 0
4, 521280, Note_on_c, 3, 42, 100
4, 521520, Note_on_c, 3, 42, 0
4, 521760, Note_on_c, 3, 43, 100
4, 522240, Note_on_c, 3, 43, 0
4, 522720, Note_on_c, 3, 40, 100
4, 523440, Note_on_c, 3, 40, 0
4, 523680, Note_on_c, 3, 42, 100
4, 524400, Note_on_c, 3, 42, 0
4, 524640, Note_on_c, 3, 40, 100
4, 524880, Note_on_c, 3, 40, 0
4, 525120, Note_on_c, 3, 42, 100
4, 525360, Note_on_c, 3, 42, 0
4, 525600, Note_on_c, 3, 43, 100
4, 526080, Note_on_c, 3, 43, 0
4, 526560, Note_on_c, 3, 40, 100
4, 527280, Note_on_c, 3, 40, 0
4, 527520, Note_on_c, 3, 42, 100
4, 528240, Note_on_c, 3, 42, 0
4, 528480, Note_on_c, 3, 40, 100
4, 528720, Note_on_c, 3, 40, 0
4, 528960, Note_on_c, 3, 42, 100
4, 529200, Note_on_c, 3, 42, 0
4, 529440, Note_on_c, 3, 43, 100
4, 529920, Note_on_c, 3, 43, 0
4, 530400, Note_on_c, 3, 40, 100
4, 531120, Note_on_c, 3, 40, 0
4, 531360, Note_on_c, 3, 42, 100
4, 532080, Note_on_c, 3, 42, 0
4, 532320, Note_on_c, 3, 40, 100
4, 532560, Note_on_c, 3, 40, 0
4, 532800, Note_on_c, 3, 42, 100
4, 533040, Note_on_c, 3, 42, 0
4, 533280, Note_on_c, 3, 43, 100
4, 533520, Note_on_c, 3, 43, 0
4, 533760, Note_on_c, 3, 45, 100
4, 534000, Note_on_c, 3, 45, 0
4, 534240, Note_on_c, 3, 40, 100
4, 537600, Note_on_c, 3, 40, 0
4, 538080, Note_on_c, 3, 42, 100
4, 541920, Note_on_c, 3, 42, 0
4, 542400, Note_on_c, 3, 44, 100
4, 545760, Note_on_c, 3, 44, 0
4, 546240, Note_on_c, 3, 46, 100
4, 549600, Note_on_c, 3, 46, 0
4, 550080, Note_on_c, 3, 49, 100
4, 553440, Note_on_c, 3, 49, 0
4, 553920, Note_on_c, 3, 51, 100
4, 572640, Note_on_c, 3, 51, 0
4, 573120, Note_on_c, 3, 53, 100
4, 578880, Note_on_c, 3, 53, 0
4, 579360, Note_on_c, 3, 56, 100
4, 580320, Note_on_c, 3, 56, 0
4, 580800, Note_on_c, 3, 58, 100
4, 588000, Note_on_c, 3, 58, 0
4, 588480, Note_on_c, 3, 56, 100
4, 610560, Note_on_c, 3, 56, 0
4, 611040, Note_on_c, 3, 40, 100
4, 611760, Note_on_c, 3, 40, 0
4, 612000, Note_on_c, 3, 42, 100
4, 612720, Note_on_c, 3, 42, 0
4, 612960, Note_on_c, 3, 40, 100
4, 613200, Note_on_c, 3, 40, 0
4, 613440, Note_on_c, 3, 42, 100
4, 613680, Note_on_c, 3, 42, 0
4, 613920, Note_on_c, 3, 43, 100
4, 614160, Note_on_c, 3, 43, 0
4, 614160, End_track
5, 0, Start_track
5, 0, Title_t, "EVENTS"
5, 0, Text_t, "gtr_off"
5, 0, Text_t, "[lighting (blackout)]"
5, 0, Text_t, "[lighting (flare)]"
5, 0, Text_t, "[verse]"
5, 5760, Text_t, "[music_start]"
5, 7680, Text_t, "bass_on"
5, 7680, Text_t, "[lighting ()]"
5, 8640, Text_t, "drum_double"
5, 9600, Text_t, "drum_normal"
5, 11520, Text_t, "[lighting ()]"
5, 12480, Text_t, "drum_double"
5, 13440, Text_t, "drum_normal"
5, 15360, Text_t, "[lighting ()]"
5, 16320, Text_t, "drum_double"
5, 17280, Text_t, "drum_normal"
5, 19200, Text_t, "[lighting ()]"
5, 20160, Text_t, "drum_double"
5, 21120, Text_t, "drum_normal"
5, 23040, Text_t, "gtr_on"
5, 23040, Text_t, "[lighting ()]"
5, 24000, Text_t, "drum_double"
5, 24960, Text_t, "drum_normal"
5, 26880, Text_t, "[lighting (color1)]"
5, 27840, Text_t, "drum_double"
5, 28800, Text_t, "drum_normal"
5, 30720, Text_t, "[lighting ()]"
5, 31680, Text_t, "drum_double"
5, 32640, Text_t, "drum_normal"
5, 34560, Text_t, "[lighting (color2)]"
5, 35520, Text_t, "drum_double"
5, 36480, Text_t, "drum_normal"
5, 38400, Text_t, "[lighting ()]"
5, 39360, Text_t, "drum_double"
5, 40320, Text_t, "drum_normal"
5, 42240, Text_t, "[lighting (color1)]"
5, 43200, Text_t, "drum_double"
5, 44160, Text_t, "drum_normal"
5, 46080, Text_t, "[lighting ()]"
5, 47040, Text_t, "drum_double"
5, 48000, Text_t, "drum_normal"
5, 49920, Text_t, "[lighting (color2)]"
5, 50880, Text_t, "drum_double"
5, 51840, Text_t, "drum_normal"
5, 53760, Text_t, "[lighting ()]"
5, 54720, Text_t, "drum_double"
5, 55680, Text_t, "drum_normal"
5, 57600, Text_t, "[lighting (color1)]"
5, 58560, Text_t, "drum_double"
5, 59520, Text_t, "drum_normal"
5, 61440, Text_t, "[lighting ()]"
5, 62400, Text_t, "drum_double"
5, 63360, Text_t, "drum_normal"
5, 65280, Text_t, "[lighting (color2)]"
5, 66240, Text_t, "drum_double"
5, 67200, Text_t, "drum_normal"
5, 69120, Text_t, "gtr_off"
5, 69120, Text_t, "[lighting ()]"
5, 70080, Text_t, "[lighting (flare)]"
5, 74880, Text_t, "[lighting ()]"
5, 76800, Text_t, "gtr_on"
5, 76800, Text_t, "bass_on"
5, 107520, Text_t, "sing_on"
5, 168960, Text_t, "[chorus]"
5, 168960, Text_t, "[lighting (sweep)]"
5, 192000, Text_t, "[lighting ()]"
5, 192960, Text_t, "drum_double"
5, 193920, Text_t, "drum_normal"
5, 195840, Text_t, "drum_double"
5, 196800, Text_t, "drum_half"
5, 198720, Text_t, "drum_normal"
5, 205440, Text_t, "drum_double"
5, 206400, Text_t, "drum_normal"
5, 230400, Text_t, "[verse]"
5, 230400, Text_t, "gtr_off"
5, 230400, Text_t, "[lighting (blackout)]"
5, 230400, Text_t, "sing_off"
5, 230400, Text_t, "nothing"
5, 236160, Text_t, "[lighting ()]"
5, 236160, Text_t, "bass_on"
5, 240000, Text_t, "gtr_off"
5, 240000, Text_t, "[lighting (blackout)]"
5, 243840, Text_t, "[lighting ()]"
5, 243840, Text_t, "bass_on"
5, 276480, Text_t, "sing_on"
5, 337920, Text_t, "[chorus]"
5, 337920, Text_t, "[lighting (sweep)]"
5, 343680, Text_t, "[lighting ()]"
5, 344640, Text_t, "drum_normal"
5, 360960, Text_t, "[lighting ()]"
5, 361920, Text_t, "drum_double"
5, 362880, Text_t, "drum_normal"
5, 364800, Text_t, "drum_double"
5, 365760, Text_t, "drum_half"
5, 366720, Text_t, "[lighting ()]"
5, 368640, Text_t, "drum_normal"
5, 399360, Text_t, "[lighting (blackout)]"
5, 399360, Text_t, "sing_off"
5, 399360, Text_t, "[solo]"
5, 399360, Text_t, "solo_on"
5, 399360, Text_t, "[lighting ()]"
5, 399360, Text_t, "[lighting (color2)]"
5, 420480, Text_t, "drum_double"
5, 421440, Text_t, "bass_on"
5, 422400, Text_t, "[lighting ()]"
5, 424320, Text_t, "drum_double"
5, 425280, Text_t, "[lighting (sweep)]"
5, 425280, Text_t, "solo_off"
5, 426240, Text_t, "[lighting ()]"
5, 446400, Text_t, "drum_double"
5, 448320, Text_t, "[lighting ()]"
5, 450240, Text_t, "drum_double"
5, 452160, Text_t, "[lighting ()]"
5, 472320, Text_t, "drum_double"
5, 474240, Text_t, "[lighting ()]"
5, 476160, Text_t, "drum_double"
5, 477120, Text_t, "[chorus]"
5, 477120, Text_t, "drum_normal"
5, 482880, Text_t, "[lighting ()]"
5, 484800, Text_t, "drum_normal"
5, 502080, Text_t, "drum_half"
5, 504000, Text_t, "drum_normal"
5, 517440, Text_t, "drum_half"
5, 519360, Text_t, "drum_normal"
5, 532800, Text_t, "drum_half"
5, 534720, Text_t, "[lighting (color2)]"
5, 534720, Text_t, "drum_normal"
5, 542400, Text_t, "solo_on"
5, 573120, Text_t, "[solo]"
5, 588480, Text_t, "[lighting ()]"
5, 611520, Text_t, "solo_off"
5, 611520, Text_t, "[verse]"
5, 614400, Text_t, "gtr_off"
5, 614400, Text_t, "[lighting (blackout)]"
5, 614400, Text_t, "[lighting (flare)]"
5, 617278, Text_t, "[end]"
5, 617278, End_track
6, 0, Start_track
6, 0, Title_t, "BAND BASS"
6, 0, Text_t, "gtr_off"
6, 0, Text_t, "[idle]"
6, 0, Text_t, "drum_off"
6, 0, Text_t, "sing_off"
6, 5760, Text_t, "drum_normal"
6, 7680, Text_t, "[play]"
6, 7680, Text_t, "verse"
6, 7680, Text_t, "drum_allbeat"
6, 8640, Text_t, "drum_double"
6, 9600, Text_t, "drum_normal"
6, 11520, Text_t, "drum_allbeat"
6, 12480, Text_t, "drum_double"
6, 13440, Text_t, "drum_normal"
6, 15360, Text_t, "drum_allbeat"
6, 16320, Text_t, "drum_double"
6, 17280, Text_t, "drum_normal"
6, 19200, Text_t, "drum_allbeat"
6, 20160, Text_t, "drum_double"
6, 21120, Text_t, "drum_normal"
6, 23040, Text_t, "gtr_on"
6, 23040, Text_t, "drum_allbeat"
6, 24000, Text_t, "drum_double"
6, 24960, Text_t, "drum_normal"
6, 26880, Text_t, "drum_allbeat"
6, 27840, Text_t, "drum_double"
6, 28800, Text_t, "drum_normal"
6, 30720, Text_t, "drum_allbeat"
6, 31680, Text_t, "drum_double"
6, 32640, Text_t, "drum_normal"
6, 34560, Text_t, "drum_allbeat"
6, 35520, Text_t, "drum_double"
6, 36480, Text_t, "drum_normal"
6, 38400, Text_t, "drum_allbeat"
6, 39360, Text_t, "drum_double"
6, 40320, Text_t, "drum_normal"
6, 42240, Text_t, "drum_allbeat"
6, 43200, Text_t, "drum_double"
6, 44160, Text_t, "drum_normal"
6, 46080, Text_t, "drum_allbeat"
6, 47040, Text_t, "drum_double"
6, 48000, Text_t, "drum_normal"
6, 49920, Text_t, "drum_allbeat"
6, 50880, Text_t, "drum_double"
6, 51840, Text_t, "drum_normal"
6, 53760, Text_t, "drum_allbeat"
6, 54720, Text_t, "drum_double"
6, 55680, Text_t, "drum_normal"
6, 57600, Text_t, "drum_allbeat"
6, 58560, Text_t, "drum_double"
6, 59520, Text_t, "drum_normal"
6, 61440, Text_t, "drum_allbeat"
6, 62400, Text_t, "drum_double"
6, 63360, Text_t, "drum_normal"
6, 65280, Text_t, "drum_allbeat"
6, 66240, Text_t, "drum_double"
6, 67200, Text_t, "drum_normal"
6, 69120, Text_t, "gtr_off"
6, 69120, Text_t, "[idle]"
6, 70080, Text_t, "drum_off"
6, 74880, Text_t, "drum_normal"
6, 76800, Text_t, "gtr_on"
6, 76800, Text_t, "[play]"
6, 107520, Text_t, "sing_on"
6, 168960, Text_t, "chorus"
6, 168960, Text_t, "wail_on"
6, 192000, Text_t, "drum_allbeat"
6, 192960, Text_t, "drum_double"
6, 193920, Text_t, "drum_normal"
6, 195840, Text_t, "drum_double"
6, 196800, Text_t, "drum_half"
6, 198720, Text_t, "drum_normal"
6, 205440, Text_t, "drum_double"
6, 206400, Text_t, "drum_normal"
6, 230400, Text_t, "verse"
6, 230400, Text_t, "gtr_off"
6, 230400, Text_t, "[idle]"
6, 230400, Text_t, "sing_off"
6, 230400, Text_t, "wail_off"
6, 236160, Text_t, "gtr_on"
6, 236160, Text_t, "[play]"
6, 240000, Text_t, "gtr_off"
6, 240000, Text_t, "[idle]"
6, 243840, Text_t, "gtr_on"
6, 243840, Text_t, "[play]"
6, 276480, Text_t, "sing_on"
6, 337920, Text_t, "chorus"
6, 337920, Text_t, "wail_on"
6, 343680, Text_t, "drum_double"
6, 344640, Text_t, "drum_normal"
6, 360960, Text_t, "drum_allbeat"
6, 361920, Text_t, "drum_double"
6, 362880, Text_t, "drum_normal"
6, 364800, Text_t, "drum_double"
6, 365760, Text_t, "drum_half"
6, 366720, Text_t, "drum_allbeat"
6, 368640, Text_t, "drum_normal"
6, 399360, Text_t, "[idle]"
6, 399360, Text_t, "sing_off"
6, 399360, Text_t, "solo"
6, 399360, Text_t, "solo_on"
6, 399360, Text_t, "drum_allbeat"
6, 399360, Text_t, "wail_off"
6, 420480, Text_t, "drum_double"
6, 421440, Text_t, "[play]"
6, 422400, Text_t, "drum_allbeat"
6, 424320, Text_t, "drum_double"
6, 425280, Text_t, "wail_on"
6, 425280, Text_t, "solo_off"
6, 426240, Text_t, "drum_allbeat"
6, 446400, Text_t, "drum_double"
6, 448320, Text_t, "drum_allbeat"
6, 450240, Text_t, "drum_double"
6, 452160, Text_t, "drum_allbeat"
6, 472320, Text_t, "drum_double"
6, 474240, Text_t, "drum_allbeat"
6, 476160, Text_t, "drum_double"
6, 477120, Text_t, "chorus"
6, 477120, Text_t, "drum_normal"
6, 482880, Text_t, "drum_allbeat"
6, 484800, Text_t, "drum_normal"
6, 502080, Text_t, "drum_half"
6, 504000, Text_t, "drum_normal"
6, 517440, Text_t, "drum_half"
6, 519360, Text_t, "drum_normal"
6, 532800, Text_t, "drum_half"
6, 534720, Text_t, "wail_off"
6, 534720, Text_t, "drum_normal"
6, 542400, Text_t, "solo_on"
6, 573120, Text_t, "solo"
6, 588480, Text_t, "drum_allbeat"
6, 611520, Text_t, "solo_off"
6, 611520, Text_t, "verse"
6, 614400, Text_t, "gtr_off"
6, 614400, Text_t, "[idle]"
6, 614400, Text_t, "drum_off"
6, 617278, Text_t, "[end]"
6, 617278, End_track
7, 0, Start_track
7, 0, Title_t, "BAND SINGER"
7, 0, Text_t, "gtr_off"
7, 0, Text_t, "bass_off"
7, 0, Text_t, "drum_off"
7, 0, Text_t, "[idle]"
7, 5760, Text_t, "drum_normal"
7, 7680, Text_t, "bass_on"
7, 7680, Text_t, "verse"
7, 7680, Text_t, "drum_allbeat"
7, 8640, Text_t, "drum_double"
7, 9600, Text_t, "drum_normal"
7, 11520, Text_t, "drum_allbeat"
7, 12480, Text_t, "drum_double"
7, 13440, Text_t, "drum_normal"
7, 15360, Text_t, "drum_allbeat"
7, 16320, Text_t, "drum_double"
7, 17280, Text_t, "drum_normal"
7, 19200, Text_t, "drum_allbeat"
7, 20160, Text_t, "drum_double"
7, 21120, Text_t, "drum_normal"
7, 23040, Text_t, "gtr_on"
7, 23040, Text_t, "drum_allbeat"
7, 24000, Text_t, "drum_double"
7, 24960, Text_t, "drum_normal"
7, 26880, Text_t, "drum_allbeat"
7, 27840, Text_t, "drum_double"
7, 28800, Text_t, "drum_normal"
7, 30720, Text_t, "drum_allbeat"
7, 31680, Text_t, "drum_double"
7, 32640, Text_t, "drum_normal"
7, 34560, Text_t, "drum_allbeat"
7, 35520, Text_t, "drum_double"
7, 36480, Text_t, "drum_normal"
7, 38400, Text_t, "drum_allbeat"
7, 39360, Text_t, "drum_double"
7, 40320, Text_t, "drum_normal"
7, 42240, Text_t, "drum_allbeat"
7, 43200, Text_t, "drum_double"
7, 44160, Text_t, "drum_normal"
7, 46080, Text_t, "drum_allbeat"
7, 47040, Text_t, "drum_double"
7, 48000, Text_t, "drum_normal"
7, 49920, Text_t, "drum_allbeat"
7, 50880, Text_t, "drum_double"
7, 51840, Text_t, "drum_normal"
7, 53760, Text_t, "drum_allbeat"
7, 54720, Text_t, "drum_double"
7, 55680, Text_t, "drum_normal"
7, 57600, Text_t, "drum_allbeat"
7, 58560, Text_t, "drum_double"
7, 59520, Text_t, "drum_normal"
7, 61440, Text_t, "drum_allbeat"
7, 62400, Text_t, "drum_double"
7, 63360, Text_t, "drum_normal"
7, 65280, Text_t, "drum_allbeat"
7, 66240, Text_t, "drum_double"
7, 67200, Text_t, "drum_normal"
7, 69120, Text_t, "gtr_off"
7, 69120, Text_t, "bass_off"
7, 70080, Text_t, "drum_off"
7, 74880, Text_t, "drum_normal"
7, 76800, Text_t, "gtr_on"
7, 76800, Text_t, "bass_on"
7, 107520, Text_t, "[play]"
7, 168960, Text_t, "chorus"
7, 168960, Text_t, "wail_on"
7, 192000, Text_t, "drum_allbeat"
7, 192960, Text_t, "drum_double"
7, 193920, Text_t, "drum_normal"
7, 195840, Text_t, "drum_double"
7, 196800, Text_t, "drum_half"
7, 198720, Text_t, "drum_normal"
7, 205440, Text_t, "drum_double"
7, 206400, Text_t, "drum_normal"
7, 230400, Text_t, "verse"
7, 230400, Text_t, "gtr_off"
7, 230400, Text_t, "bass_off"
7, 230400, Text_t, "[idle]"
7, 230400, Text_t, "wail_off"
7, 236160, Text_t, "gtr_on"
7, 236160, Text_t, "bass_on"
7, 240000, Text_t, "gtr_off"
7, 240000, Text_t, "bass_off"
7, 243840, Text_t, "gtr_on"
7, 243840, Text_t, "bass_on"
7, 276480, Text_t, "[play]"
7, 337920, Text_t, "chorus"
7, 337920, Text_t, "wail_on"
7, 343680, Text_t, "drum_double"
7, 344640, Text_t, "drum_normal"
7, 360960, Text_t, "drum_allbeat"
7, 361920, Text_t, "drum_double"
7, 362880, Text_t, "drum_normal"
7, 364800, Text_t, "drum_double"
7, 365760, Text_t, "drum_half"
7, 366720, Text_t, "drum_allbeat"
7, 368640, Text_t, "drum_normal"
7, 399360, Text_t, "bass_off"
7, 399360, Text_t, "[idle]"
7, 399360, Text_t, "solo"
7, 399360, Text_t, "solo_on"
7, 399360, Text_t, "drum_allbeat"
7, 399360, Text_t, "wail_off"
7, 420480, Text_t, "drum_double"
7, 421440, Text_t, "bass_on"
7, 422400, Text_t, "drum_allbeat"
7, 424320, Text_t, "drum_double"
7, 425280, Text_t, "wail_on"
7, 425280, Text_t, "solo_off"
7, 426240, Text_t, "drum_allbeat"
7, 446400, Text_t, "drum_double"
7, 448320, Text_t, "drum_allbeat"
7, 450240, Text_t, "drum_double"
7, 452160, Text_t, "drum_allbeat"
7, 472320, Text_t, "drum_double"
7, 474240, Text_t, "drum_allbeat"
7, 476160, Text_t, "drum_double"
7, 477120, Text_t, "chorus"
7, 477120, Text_t, "drum_normal"
7, 482880, Text_t, "drum_allbeat"
7, 484800, Text_t, "drum_normal"
7, 502080, Text_t, "drum_half"
7, 504000, Text_t, "drum_normal"
7, 517440, Text_t, "drum_half"
7, 519360, Text_t, "drum_normal"
7, 532800, Text_t, "drum_half"
7, 534720, Text_t, "wail_off"
7, 534720, Text_t, "drum_normal"
7, 542400, Text_t, "solo_on"
7, 573120, Text_t, "solo"
7, 588480, Text_t, "drum_allbeat"
7, 611520, Text_t, "solo_off"
7, 611520, Text_t, "verse"
7, 614400, Text_t, "gtr_off"
7, 614400, Text_t, "bass_off"
7, 614400, Text_t, "drum_off"
7, 617278, Text_t, "[end]"
7, 617278, End_track
8, 0, Start_track
8, 0, Title_t, "BAND DRUMS"
8, 0, Text_t, "gtr_off"
8, 0, Text_t, "bass_off"
8, 0, Text_t, "drum_off"
8, 0, Text_t, "sing_off"
8, 5760, Text_t, "[nobeat]"
8, 7680, Text_t, "bass_on"
8, 7680, Text_t, "verse"
8, 7680, Text_t, "[allbeat]"
8, 8640, Text_t, "[double_time]"
8, 9600, Text_t, "[nobeat]"
8, 11520, Text_t, "[allbeat]"
8, 12480, Text_t, "[double_time]"
8, 13440, Text_t, "[nobeat]"
8, 15360, Text_t, "[allbeat]"
8, 16320, Text_t, "[double_time]"
8, 17280, Text_t, "[nobeat]"
8, 19200, Text_t, "[allbeat]"
8, 20160, Text_t, "[double_time]"
8, 21120, Text_t, "[nobeat]"
8, 23040, Text_t, "gtr_on"
8, 23040, Text_t, "[allbeat]"
8, 24000, Text_t, "[double_time]"
8, 24960, Text_t, "[nobeat]"
8, 26880, Text_t, "[allbeat]"
8, 27840, Text_t, "[double_time]"
8, 28800, Text_t, "[nobeat]"
8, 30720, Text_t, "[allbeat]"
8, 31680, Text_t, "[double_time]"
8, 32640, Text_t, "[nobeat]"
8, 34560, Text_t, "[allbeat]"
8, 35520, Text_t, "[double_time]"
8, 36480, Text_t, "[nobeat]"
8, 38400, Text_t, "[allbeat]"
8, 39360, Text_t, "[double_time]"
8, 40320, Text_t, "[nobeat]"
8, 42240, Text_t, "[allbeat]"
8, 43200, Text_t, "[double_time]"
8, 44160, Text_t, "[nobeat]"
8, 46080, Text_t, "[allbeat]"
8, 47040, Text_t, "[double_time]"
8, 48000, Text_t, "[nobeat]"
8, 49920, Text_t, "[allbeat]"
8, 50880, Text_t, "[double_time]"
8, 51840, Text_t, "[nobeat]"
8, 53760, Text_t, "[allbeat]"
8, 54720, Text_t, "[double_time]"
8, 55680, Text_t, "[nobeat]"
8, 57600, Text_t, "[allbeat]"
8, 58560, Text_t, "[double_time]"
8, 59520, Text_t, "[nobeat]"
8, 61440, Text_t, "[allbeat]"
8, 62400, Text_t, "[double_time]"
8, 63360, Text_t, "[nobeat]"
8, 65280, Text_t, "[allbeat]"
8, 66240, Text_t, "[double_time]"
8, 67200, Text_t, "[nobeat]"
8, 69120, Text_t, "gtr_off"
8, 69120, Text_t, "bass_off"
8, 70080, Text_t, "drum_off"
8, 74880, Text_t, "[nobeat]"
8, 76800, Text_t, "gtr_on"
8, 76800, Text_t, "bass_on"
8, 107520, Text_t, "sing_on"
8, 168960, Text_t, "chorus"
8, 168960, Text_t, "wail_on"
8, 192000, Text_t, "[allbeat]"
8, 192960, Text_t, "[double_time]"
8, 193920, Text_t, "[nobeat]"
8, 195840, Text_t, "[double_time]"
8, 196800, Text_t, "[half_time]"
8, 198720, Text_t, "[nobeat]"
8, 205440, Text_t, "[double_time]"
8, 206400, Text_t, "[nobeat]"
8, 230400, Text_t, "verse"
8, 230400, Text_t, "gtr_off"
8, 230400, Text_t, "bass_off"
8, 230400, Text_t, "sing_off"
8, 230400, Text_t, "wail_off"
8, 236160, Text_t, "gtr_on"
8, 236160, Text_t, "bass_on"
8, 240000, Text_t, "gtr_off"
8, 240000, Text_t, "bass_off"
8, 243840, Text_t, "gtr_on"
8, 243840, Text_t, "bass_on"
8, 276480, Text_t, "sing_on"
8, 337920, Text_t, "chorus"
8, 337920, Text_t, "wail_on"
8, 343680, Text_t, "[double_time]"
8, 344640, Text_t, "[nobeat]"
8, 360960, Text_t, "[allbeat]"
8, 361920, Text_t, "[double_time]"
8, 362880, Text_t, "[nobeat]"
8, 364800, Text_t, "[double_time]"
8, 365760, Text_t, "[half_time]"
8, 366720, Text_t, "[allbeat]"
8, 368640, Text_t, "[nobeat]"
8, 399360, Text_t, "bass_off"
8, 399360, Text_t, "sing_off"
8, 399360, Text_t, "solo"
8, 399360, Text_t, "solo_on"
8, 399360, Text_t, "[allbeat]"
8, 399360, Text_t, "wail_off"
8, 420480, Text_t, "[double_time]"
8, 421440, Text_t, "bass_on"
8, 422400, Text_t, "[allbeat]"
8, 424320, Text_t, "[double_time]"
8, 425280, Text_t, "wail_on"
8, 425280, Text_t, "solo_off"
8, 426240, Text_t, "[allbeat]"
8, 446400, Text_t, "[double_time]"
8, 448320, Text_t, "[allbeat]"
8, 450240, Text_t, "[double_time]"
8, 452160, Text_t, "[allbeat]"
8, 472320, Text_t, "[double_time]"
8, 474240, Text_t, "[allbeat]"
8, 476160, Text_t, "[double_time]"
8, 477120, Text_t, "chorus"
8, 477120, Text_t, "[nobeat]"
8, 482880, Text_t, "[allbeat]"
8, 484800, Text_t, "[nobeat]"
8, 502080, Text_t, "[half_time]"
8, 504000, Text_t, "[nobeat]"
8, 517440, Text_t, "[half_time]"
8, 519360, Text_t, "[nobeat]"
8, 532800, Text_t, "[half_time]"
8, 534720, Text_t, "wail_off"
8, 534720, Text_t, "[nobeat]"
8, 542400, Text_t, "solo_on"
8, 573120, Text_t, "solo"
8, 588480, Text_t, "[allbeat]"
8, 611520, Text_t, "solo_off"
8, 611520, Text_t, "verse"
8, 614400, Text_t, "gtr_off"
8, 614400, Text_t, "bass_off"
8, 614400, Text_t, "drum_off"
8, 617278, Text_t, "[end]"
8, 617278, End_track
0, 0, End_of_file
