0, 0, Header, 1, 8, 960
1, 0, Start_track
1, 0, Title_t, "breakingwheel"
1, 0, Time_signature, 6, 2, 24, 8
1, 0, Tempo, 244396
1, 34560, Tempo, 257510
1, 40320, Tempo, 254236
1, 46080, Tempo, 263157
1, 51840, Tempo, 260868
1, 57600, Tempo, 243900
1, 63360, Tempo, 229006
1, 69120, Tempo, 230767
1, 74880, Tempo, 234375
1, 80640, Time_signature, 4, 2, 24, 8
1, 80640, Tempo, 235293
1, 84480, Tempo, 230767
1, 88320, Tempo, 235293
1, 99840, Tempo, 233463
1, 103680, Tempo, 235293
1, 111360, Time_signature, 6, 2, 24, 8
1, 111360, Tempo, 235293
1, 122880, Tempo, 232557
1, 134400, Tempo, 234375
1, 145920, Tempo, 244892
1, 151680, Tempo, 235293
1, 157440, Time_signature, 4, 2, 24, 8
1, 157440, Tempo, 239041
1, 161280, Tempo, 228136
1, 172800, Tempo, 229006
1, 180480, Tempo, 232557
1, 188160, Tempo, 229884
1, 199680, Tempo, 226413
1, 203520, Tempo, 231659
1, 211200, Tempo, 229884
1, 215040, Tempo, 232557
1, 218880, Time_signature, 6, 2, 24, 8
1, 218880, Tempo, 218978
1, 224640, Tempo, 235293
1, 236160, Tempo, 230767
1, 241920, Tempo, 239996
1, 253440, Tempo, 243900
1, 259200, Tempo, 238095
1, 264960, Time_signature, 4, 2, 24, 8
1, 264960, Tempo, 237154
1, 272640, Tempo, 229884
1, 276480, Tempo, 237154
1, 280320, Tempo, 240961
1, 284160, Tempo, 238095
1, 288000, Tempo, 242914
1, 291840, Tempo, 244892
1, 299520, Tempo, 248962
1, 303360, Tempo, 230767
1, 307200, Tempo, 228136
1, 311040, Tempo, 238095
1, 314880, Tempo, 239996
1, 318720, Tempo, 230767
1, 326400, Tempo, 234375
1, 337920, Tempo, 229006
1, 345600, Time_signature, 6, 2, 24, 8
1, 345600, Tempo, 233463
1, 368640, Tempo, 235293
1, 374400, Tempo, 239996
1, 385920, Tempo, 223876
1, 391680, Time_signature, 4, 2, 24, 8
1, 391680, Tempo, 235293
1, 399360, Tempo, 238095
1, 407040, Tempo, 235293
1, 414720, Tempo, 230767
1, 430080, Tempo, 232557
1, 437760, Tempo, 238095
1, 441600, Tempo, 234375
1, 449280, Tempo, 226413
1, 453120, Time_signature, 6, 2, 24, 8
1, 453120, Tempo, 229006
1, 458880, Tempo, 232557
1, 464640, Tempo, 236220
1, 470400, Tempo, 234375
1, 476160, Tempo, 235293
1, 487680, Tempo, 239996
1, 493440, Tempo, 235293
1, 496320, Tempo, 255317
1, 497522, Tempo, 279069
1, 499200, Tempo, 303030
1, 516480, Tempo, 273972
1, 522240, Tempo, 279069
1, 528000, Tempo, 271492
1, 533760, Tempo, 279069
1, 539520, Tempo, 272727
1, 551040, Tempo, 269057
1, 562560, Tempo, 266665
1, 585600, Tempo, 265486
1, 591360, Tempo, 260868
1, 608640, Tempo, 255317
1, 620160, Tempo, 239996
1, 631680, Tempo, 244892
1, 643200, Tempo, 255317
1, 648960, Tempo, 250000
1, 660480, Tempo, 239996
1, 666240, Tempo, 244892
1, 672000, Tempo, 250000
1, 677760, Tempo, 258619
1, 683520, Tempo, 264317
1, 695040, Tempo, 250000
1, 700800, Tempo, 260868
1, 706560, Tempo, 250000
1, 712320, Tempo, 246913
1, 723840, Tempo, 235293
1, 729600, Tempo, 241934
1, 746880, Tempo, 244892
1, 752640, Tempo, 255317
1, 758400, Tempo, 244892
1, 764160, Tempo, 234375
1, 769920, Tempo, 227266
1, 775680, Tempo, 232557
1, 781440, Tempo, 239996
1, 792960, Tempo, 230767
1, 798720, Tempo, 236220
1, 804480, Tempo, 230767
1, 810240, Tempo, 229884
1, 816000, Tempo, 229006
1, 821760, Tempo, 227266
1, 827520, Tempo, 228136
1, 862080, Tempo, 230767
1, 873600, Tempo, 229884
1, 879360, Tempo, 228136
1, 896640, Tempo, 238095
1, 902400, Tempo, 260868
1, 905278, Tempo, 315789
1, 905278, End_track
2, 0, Start_track
2, 0, Title_t, "PART GUITAR"
2, 11490, Text_t, "[play]"
2, 11490, Note_on_c, 0, 106, 100
2, 11490, Note_on_c, 0, 103, 100
2, 11490, Note_on_c, 0, 94, 100
2, 11490, Note_on_c, 0, 91, 100
2, 11490, Note_on_c, 0, 70, 100
2, 11490, Note_on_c, 0, 67, 100
2, 11490, Note_on_c, 0, 82, 100
2, 11490, Note_on_c, 0, 79, 100
2, 11520, Note_on_c, 0, 96, 100
2, 11520, Note_on_c, 0, 84, 100
2, 11520, Note_on_c, 0, 72, 100
2, 11520, Note_on_c, 0, 60, 100
2, 11760, Note_on_c, 0, 96, 0
2, 11760, Note_on_c, 0, 84, 0
2, 11760, Note_on_c, 0, 72, 0
2, 11760, Note_on_c, 0, 60, 0
2, 12000, Note_on_c, 0, 96, 100
2, 12000, Note_on_c, 0, 84, 100
2, 12240, Note_on_c, 0, 96, 0
2, 12240, Note_on_c, 0, 84, 0
2, 12480, Note_on_c, 0, 96, 100
2, 12480, Note_on_c, 0, 84, 100
2, 12720, Note_on_c, 0, 96, 0
2, 12720, Note_on_c, 0, 84, 0
2, 12960, Note_on_c, 0, 100, 100
2, 12960, Note_on_c, 0, 87, 100
2, 12960, Note_on_c, 0, 75, 100
2, 12960, Note_on_c, 0, 62, 100
2, 13200, Note_on_c, 0, 100, 0
2, 13200, Note_on_c, 0, 87, 0
2, 13200, Note_on_c, 0, 75, 0
2, 13200, Note_on_c, 0, 62, 0
2, 13440, Note_on_c, 0, 100, 100
2, 13440, Note_on_c, 0, 87, 100
2, 13680, Note_on_c, 0, 100, 0
2, 13680, Note_on_c, 0, 87, 0
2, 13920, Note_on_c, 0, 100, 100
2, 13920, Note_on_c, 0, 87, 100
2, 14160, Note_on_c, 0, 100, 0
2, 14160, Note_on_c, 0, 87, 0
2, 14370, Note_on_c, 0, 103, 0
2, 14370, Note_on_c, 0, 91, 0
2, 14370, Note_on_c, 0, 67, 0
2, 14370, Note_on_c, 0, 79, 0
2, 14400, Note_on_c, 0, 98, 100
2, 14400, Note_on_c, 0, 85, 100
2, 14400, Note_on_c, 0, 73, 100
2, 14640, Note_on_c, 0, 98, 0
2, 14640, Note_on_c, 0, 85, 0
2, 14640, Note_on_c, 0, 73, 0
2, 14880, Note_on_c, 0, 98, 100
2, 14880, Note_on_c, 0, 85, 100
2, 15120, Note_on_c, 0, 98, 0
2, 15120, Note_on_c, 0, 85, 0
2, 15360, Note_on_c, 0, 97, 100
2, 15360, Note_on_c, 0, 84, 100
2, 15360, Note_on_c, 0, 72, 100
2, 15360, Note_on_c, 0, 61, 100
2, 15600, Note_on_c, 0, 97, 0
2, 15600, Note_on_c, 0, 84, 0
2, 15600, Note_on_c, 0, 72, 0
2, 15600, Note_on_c, 0, 61, 0
2, 15840, Note_on_c, 0, 97, 100
2, 15840, Note_on_c, 0, 84, 100
2, 16080, Note_on_c, 0, 97, 0
2, 16080, Note_on_c, 0, 84, 0
2, 16320, Note_on_c, 0, 99, 100
2, 16320, Note_on_c, 0, 86, 100
2, 16320, Note_on_c, 0, 74, 100
2, 16560, Note_on_c, 0, 99, 0
2, 16560, Note_on_c, 0, 86, 0
2, 16560, Note_on_c, 0, 74, 0
2, 16800, Note_on_c, 0, 99, 100
2, 16800, Note_on_c, 0, 86, 100
2, 17040, Note_on_c, 0, 99, 0
2, 17040, Note_on_c, 0, 86, 0
2, 17250, Note_on_c, 0, 106, 0
2, 17250, Note_on_c, 0, 94, 0
2, 17250, Note_on_c, 0, 70, 0
2, 17250, Note_on_c, 0, 82, 0
2, 17250, Note_on_c, 0, 105, 100
2, 17250, Note_on_c, 0, 103, 100
2, 17250, Note_on_c, 0, 93, 100
2, 17250, Note_on_c, 0, 91, 100
2, 17250, Note_on_c, 0, 69, 100
2, 17250, Note_on_c, 0, 67, 100
2, 17250, Note_on_c, 0, 81, 100
2, 17250, Note_on_c, 0, 79, 100
2, 17280, Note_on_c, 0, 96, 100
2, 17280, Note_on_c, 0, 84, 100
2, 17280, Note_on_c, 0, 72, 100
2, 17280, Note_on_c, 0, 60, 100
2, 17520, Note_on_c, 0, 96, 0
2, 17520, Note_on_c, 0, 84, 0
2, 17520, Note_on_c, 0, 72, 0
2, 17520, Note_on_c, 0, 60, 0
2, 17760, Note_on_c, 0, 96, 100
2, 17760, Note_on_c, 0, 84, 100
2, 18000, Note_on_c, 0, 96, 0
2, 18000, Note_on_c, 0, 84, 0
2, 18240, Note_on_c, 0, 96, 100
2, 18240, Note_on_c, 0, 84, 100
2, 18480, Note_on_c, 0, 96, 0
2, 18480, Note_on_c, 0, 84, 0
2, 18720, Note_on_c, 0, 100, 100
2, 18720, Note_on_c, 0, 87, 100
2, 18720, Note_on_c, 0, 75, 100
2, 18720, Note_on_c, 0, 62, 100
2, 18960, Note_on_c, 0, 100, 0
2, 18960, Note_on_c, 0, 87, 0
2, 18960, Note_on_c, 0, 75, 0
2, 18960, Note_on_c, 0, 62, 0
2, 19200, Note_on_c, 0, 100, 100
2, 19200, Note_on_c, 0, 87, 100
2, 19440, Note_on_c, 0, 100, 0
2, 19440, Note_on_c, 0, 87, 0
2, 19680, Note_on_c, 0, 100, 100
2, 19680, Note_on_c, 0, 87, 100
2, 19920, Note_on_c, 0, 100, 0
2, 19920, Note_on_c, 0, 87, 0
2, 20130, Note_on_c, 0, 103, 0
2, 20130, Note_on_c, 0, 91, 0
2, 20130, Note_on_c, 0, 67, 0
2, 20130, Note_on_c, 0, 79, 0
2, 20160, Note_on_c, 0, 98, 100
2, 20160, Note_on_c, 0, 85, 100
2, 20160, Note_on_c, 0, 73, 100
2, 20400, Note_on_c, 0, 98, 0
2, 20400, Note_on_c, 0, 85, 0
2, 20400, Note_on_c, 0, 73, 0
2, 20640, Note_on_c, 0, 98, 100
2, 20640, Note_on_c, 0, 85, 100
2, 20880, Note_on_c, 0, 98, 0
2, 20880, Note_on_c, 0, 85, 0
2, 21120, Note_on_c, 0, 97, 100
2, 21120, Note_on_c, 0, 84, 100
2, 21120, Note_on_c, 0, 72, 100
2, 21120, Note_on_c, 0, 61, 100
2, 21360, Note_on_c, 0, 97, 0
2, 21360, Note_on_c, 0, 84, 0
2, 21360, Note_on_c, 0, 72, 0
2, 21360, Note_on_c, 0, 61, 0
2, 21600, Note_on_c, 0, 97, 100
2, 21600, Note_on_c, 0, 84, 100
2, 21840, Note_on_c, 0, 97, 0
2, 21840, Note_on_c, 0, 84, 0
2, 22080, Note_on_c, 0, 99, 100
2, 22080, Note_on_c, 0, 86, 100
2, 22080, Note_on_c, 0, 74, 100
2, 22320, Note_on_c, 0, 99, 0
2, 22320, Note_on_c, 0, 86, 0
2, 22320, Note_on_c, 0, 74, 0
2, 22560, Note_on_c, 0, 99, 100
2, 22560, Note_on_c, 0, 86, 100
2, 22800, Note_on_c, 0, 99, 0
2, 22800, Note_on_c, 0, 86, 0
2, 23010, Text_t, "[play]"
2, 23010, Text_t, "[verse]"
2, 23010, Note_on_c, 0, 105, 0
2, 23010, Note_on_c, 0, 93, 0
2, 23010, Note_on_c, 0, 69, 0
2, 23010, Note_on_c, 0, 81, 0
2, 23010, Note_on_c, 0, 106, 100
2, 23010, Note_on_c, 0, 94, 100
2, 23010, Note_on_c, 0, 70, 100
2, 23010, Note_on_c, 0, 82, 100
2, 23040, Note_on_c, 0, 96, 100
2, 23040, Note_on_c, 0, 84, 100
2, 23040, Note_on_c, 0, 72, 100
2, 23040, Note_on_c, 0, 60, 100
2, 23280, Note_on_c, 0, 96, 0
2, 23280, Note_on_c, 0, 84, 0
2, 23280, Note_on_c, 0, 72, 0
2, 23280, Note_on_c, 0, 60, 0
2, 23520, Note_on_c, 0, 96, 100
2, 23520, Note_on_c, 0, 84, 100
2, 23760, Note_on_c, 0, 96, 0
2, 23760, Note_on_c, 0, 84, 0
2, 24000, Note_on_c, 0, 96, 100
2, 24000, Note_on_c, 0, 84, 100
2, 24240, Note_on_c, 0, 96, 0
2, 24240, Note_on_c, 0, 84, 0
2, 24480, Note_on_c, 0, 100, 100
2, 24480, Note_on_c, 0, 87, 100
2, 24480, Note_on_c, 0, 75, 100
2, 24480, Note_on_c, 0, 62, 100
2, 24720, Note_on_c, 0, 100, 0
2, 24720, Note_on_c, 0, 87, 0
2, 24720, Note_on_c, 0, 75, 0
2, 24720, Note_on_c, 0, 62, 0
2, 24960, Note_on_c, 0, 100, 100
2, 24960, Note_on_c, 0, 87, 100
2, 25200, Note_on_c, 0, 100, 0
2, 25200, Note_on_c, 0, 87, 0
2, 25440, Note_on_c, 0, 100, 100
2, 25440, Note_on_c, 0, 87, 100
2, 25680, Note_on_c, 0, 100, 0
2, 25680, Note_on_c, 0, 87, 0
2, 25920, Note_on_c, 0, 98, 100
2, 25920, Note_on_c, 0, 85, 100
2, 25920, Note_on_c, 0, 73, 100
2, 26160, Note_on_c, 0, 98, 0
2, 26160, Note_on_c, 0, 85, 0
2, 26160, Note_on_c, 0, 73, 0
2, 26400, Note_on_c, 0, 98, 100
2, 26400, Note_on_c, 0, 85, 100
2, 26640, Note_on_c, 0, 98, 0
2, 26640, Note_on_c, 0, 85, 0
2, 26880, Note_on_c, 0, 97, 100
2, 26880, Note_on_c, 0, 84, 100
2, 26880, Note_on_c, 0, 72, 100
2, 26880, Note_on_c, 0, 61, 100
2, 27120, Note_on_c, 0, 97, 0
2, 27120, Note_on_c, 0, 84, 0
2, 27120, Note_on_c, 0, 72, 0
2, 27120, Note_on_c, 0, 61, 0
2, 27360, Note_on_c, 0, 97, 100
2, 27360, Note_on_c, 0, 84, 100
2, 27600, Note_on_c, 0, 97, 0
2, 27600, Note_on_c, 0, 84, 0
2, 27840, Note_on_c, 0, 99, 100
2, 27840, Note_on_c, 0, 86, 100
2, 27840, Note_on_c, 0, 74, 100
2, 28080, Note_on_c, 0, 99, 0
2, 28080, Note_on_c, 0, 86, 0
2, 28080, Note_on_c, 0, 74, 0
2, 28320, Note_on_c, 0, 99, 100
2, 28320, Note_on_c, 0, 86, 100
2, 28560, Note_on_c, 0, 99, 0
2, 28560, Note_on_c, 0, 86, 0
2, 28770, Note_on_c, 0, 106, 0
2, 28770, Note_on_c, 0, 94, 0
2, 28770, Note_on_c, 0, 70, 0
2, 28770, Note_on_c, 0, 82, 0
2, 28770, Note_on_c, 0, 105, 100
2, 28770, Note_on_c, 0, 93, 100
2, 28770, Note_on_c, 0, 69, 100
2, 28770, Note_on_c, 0, 81, 100
2, 28800, Text_t, "[lighting (blackout)]"
2, 28800, Text_t, "sing_off"
2, 28800, Text_t, "bass_off"
2, 28800, Text_t, "gtr_half_tempo"
2, 28800, Text_t, "bass_half_tempo"
2, 28800, Text_t, "drum_half_tempo"
2, 28800, Text_t, "[crowd_half_tempo]"
2, 28800, Text_t, "[half_tempo]"
2, 28800, Note_on_c, 0, 96, 100
2, 28800, Note_on_c, 0, 84, 100
2, 28800, Note_on_c, 0, 72, 100
2, 28800, Note_on_c, 0, 60, 100
2, 29040, Note_on_c, 0, 96, 0
2, 29040, Note_on_c, 0, 84, 0
2, 29040, Note_on_c, 0, 72, 0
2, 29040, Note_on_c, 0, 60, 0
2, 29280, Note_on_c, 0, 96, 100
2, 29280, Note_on_c, 0, 84, 100
2, 29520, Note_on_c, 0, 96, 0
2, 29520, Note_on_c, 0, 84, 0
2, 29760, Note_on_c, 0, 96, 100
2, 29760, Note_on_c, 0, 84, 100
2, 30000, Note_on_c, 0, 96, 0
2, 30000, Note_on_c, 0, 84, 0
2, 30240, Note_on_c, 0, 100, 100
2, 30240, Note_on_c, 0, 87, 100
2, 30240, Note_on_c, 0, 75, 100
2, 30240, Note_on_c, 0, 62, 100
2, 30480, Note_on_c, 0, 100, 0
2, 30480, Note_on_c, 0, 87, 0
2, 30480, Note_on_c, 0, 75, 0
2, 30480, Note_on_c, 0, 62, 0
2, 30720, Note_on_c, 0, 100, 100
2, 30720, Note_on_c, 0, 87, 100
2, 30960, Note_on_c, 0, 100, 0
2, 30960, Note_on_c, 0, 87, 0
2, 31200, Note_on_c, 0, 100, 100
2, 31200, Note_on_c, 0, 87, 100
2, 31440, Note_on_c, 0, 100, 0
2, 31440, Note_on_c, 0, 87, 0
2, 31680, Note_on_c, 0, 98, 100
2, 31680, Note_on_c, 0, 85, 100
2, 31680, Note_on_c, 0, 73, 100
2, 31920, Note_on_c, 0, 98, 0
2, 31920, Note_on_c, 0, 85, 0
2, 31920, Note_on_c, 0, 73, 0
2, 32160, Note_on_c, 0, 98, 100
2, 32160, Note_on_c, 0, 85, 100
2, 32400, Note_on_c, 0, 98, 0
2, 32400, Note_on_c, 0, 85, 0
2, 32640, Note_on_c, 0, 97, 100
2, 32640, Note_on_c, 0, 84, 100
2, 32640, Note_on_c, 0, 72, 100
2, 32640, Note_on_c, 0, 61, 100
2, 32880, Note_on_c, 0, 97, 0
2, 32880, Note_on_c, 0, 84, 0
2, 32880, Note_on_c, 0, 72, 0
2, 32880, Note_on_c, 0, 61, 0
2, 33120, Note_on_c, 0, 97, 100
2, 33120, Note_on_c, 0, 84, 100
2, 33360, Note_on_c, 0, 97, 0
2, 33360, Note_on_c, 0, 84, 0
2, 33600, Note_on_c, 0, 99, 100
2, 33600, Note_on_c, 0, 86, 100
2, 33600, Note_on_c, 0, 74, 100
2, 33840, Note_on_c, 0, 99, 0
2, 33840, Note_on_c, 0, 86, 0
2, 33840, Note_on_c, 0, 74, 0
2, 34080, Note_on_c, 0, 99, 100
2, 34080, Note_on_c, 0, 86, 100
2, 34320, Note_on_c, 0, 99, 0
2, 34320, Note_on_c, 0, 86, 0
2, 34530, Note_on_c, 0, 105, 0
2, 34530, Note_on_c, 0, 93, 0
2, 34530, Note_on_c, 0, 69, 0
2, 34530, Note_on_c, 0, 81, 0
2, 34530, Note_on_c, 0, 106, 100
2, 34530, Note_on_c, 0, 94, 100
2, 34530, Note_on_c, 0, 70, 100
2, 34530, Note_on_c, 0, 82, 100
2, 34560, Note_on_c, 0, 96, 100
2, 34560, Note_on_c, 0, 84, 100
2, 34560, Note_on_c, 0, 72, 100
2, 34560, Note_on_c, 0, 60, 100
2, 34800, Note_on_c, 0, 96, 0
2, 34800, Note_on_c, 0, 84, 0
2, 34800, Note_on_c, 0, 72, 0
2, 34800, Note_on_c, 0, 60, 0
2, 35040, Note_on_c, 0, 96, 100
2, 35040, Note_on_c, 0, 84, 100
2, 35280, Note_on_c, 0, 96, 0
2, 35280, Note_on_c, 0, 84, 0
2, 35520, Note_on_c, 0, 96, 100
2, 35520, Note_on_c, 0, 84, 100
2, 35760, Note_on_c, 0, 96, 0
2, 35760, Note_on_c, 0, 84, 0
2, 36000, Note_on_c, 0, 100, 100
2, 36000, Note_on_c, 0, 87, 100
2, 36000, Note_on_c, 0, 75, 100
2, 36000, Note_on_c, 0, 62, 100
2, 36240, Note_on_c, 0, 100, 0
2, 36240, Note_on_c, 0, 87, 0
2, 36240, Note_on_c, 0, 75, 0
2, 36240, Note_on_c, 0, 62, 0
2, 36480, Note_on_c, 0, 100, 100
2, 36480, Note_on_c, 0, 87, 100
2, 36720, Note_on_c, 0, 100, 0
2, 36720, Note_on_c, 0, 87, 0
2, 36960, Note_on_c, 0, 100, 100
2, 36960, Note_on_c, 0, 87, 100
2, 37200, Note_on_c, 0, 100, 0
2, 37200, Note_on_c, 0, 87, 0
2, 37440, Note_on_c, 0, 98, 100
2, 37440, Note_on_c, 0, 85, 100
2, 37440, Note_on_c, 0, 73, 100
2, 37680, Note_on_c, 0, 98, 0
2, 37680, Note_on_c, 0, 85, 0
2, 37680, Note_on_c, 0, 73, 0
2, 37920, Note_on_c, 0, 98, 100
2, 37920, Note_on_c, 0, 85, 100
2, 38160, Note_on_c, 0, 98, 0
2, 38160, Note_on_c, 0, 85, 0
2, 38400, Note_on_c, 0, 97, 100
2, 38400, Note_on_c, 0, 84, 100
2, 38400, Note_on_c, 0, 72, 100
2, 38400, Note_on_c, 0, 61, 100
2, 38640, Note_on_c, 0, 97, 0
2, 38640, Note_on_c, 0, 84, 0
2, 38640, Note_on_c, 0, 72, 0
2, 38640, Note_on_c, 0, 61, 0
2, 38880, Note_on_c, 0, 97, 100
2, 38880, Note_on_c, 0, 84, 100
2, 39120, Note_on_c, 0, 97, 0
2, 39120, Note_on_c, 0, 84, 0
2, 39360, Note_on_c, 0, 99, 100
2, 39360, Note_on_c, 0, 86, 100
2, 39360, Note_on_c, 0, 74, 100
2, 39600, Note_on_c, 0, 99, 0
2, 39600, Note_on_c, 0, 86, 0
2, 39600, Note_on_c, 0, 74, 0
2, 39840, Note_on_c, 0, 99, 100
2, 39840, Note_on_c, 0, 86, 100
2, 40080, Note_on_c, 0, 99, 0
2, 40080, Note_on_c, 0, 86, 0
2, 40290, Note_on_c, 0, 106, 0
2, 40290, Note_on_c, 0, 94, 0
2, 40290, Note_on_c, 0, 70, 0
2, 40290, Note_on_c, 0, 82, 0
2, 40290, Note_on_c, 0, 105, 100
2, 40290, Note_on_c, 0, 93, 100
2, 40290, Note_on_c, 0, 69, 100
2, 40290, Note_on_c, 0, 81, 100
2, 40320, Text_t, "[music_start]"
2, 40320, Text_t, "[verse]"
2, 40320, Note_on_c, 0, 96, 100
2, 40320, Note_on_c, 0, 84, 100
2, 40320, Note_on_c, 0, 72, 100
2, 40320, Note_on_c, 0, 60, 100
2, 40560, Note_on_c, 0, 96, 0
2, 40560, Note_on_c, 0, 84, 0
2, 40560, Note_on_c, 0, 72, 0
2, 40560, Note_on_c, 0, 60, 0
2, 40800, Note_on_c, 0, 96, 100
2, 40800, Note_on_c, 0, 84, 100
2, 41040, Note_on_c, 0, 96, 0
2, 41040, Note_on_c, 0, 84, 0
2, 41280, Note_on_c, 0, 96, 100
2, 41280, Note_on_c, 0, 84, 100
2, 41520, Note_on_c, 0, 96, 0
2, 41520, Note_on_c, 0, 84, 0
2, 41760, Note_on_c, 0, 100, 100
2, 41760, Note_on_c, 0, 87, 100
2, 41760, Note_on_c, 0, 75, 100
2, 41760, Note_on_c, 0, 62, 100
2, 42000, Note_on_c, 0, 100, 0
2, 42000, Note_on_c, 0, 87, 0
2, 42000, Note_on_c, 0, 75, 0
2, 42000, Note_on_c, 0, 62, 0
2, 42240, Note_on_c, 0, 100, 100
2, 42240, Note_on_c, 0, 87, 100
2, 42480, Note_on_c, 0, 100, 0
2, 42480, Note_on_c, 0, 87, 0
2, 42720, Note_on_c, 0, 100, 100
2, 42720, Note_on_c, 0, 87, 100
2, 42960, Note_on_c, 0, 100, 0
2, 42960, Note_on_c, 0, 87, 0
2, 43200, Note_on_c, 0, 98, 100
2, 43200, Note_on_c, 0, 85, 100
2, 43200, Note_on_c, 0, 73, 100
2, 43440, Note_on_c, 0, 98, 0
2, 43440, Note_on_c, 0, 85, 0
2, 43440, Note_on_c, 0, 73, 0
2, 43680, Note_on_c, 0, 98, 100
2, 43680, Note_on_c, 0, 85, 100
2, 43920, Note_on_c, 0, 98, 0
2, 43920, Note_on_c, 0, 85, 0
2, 44160, Note_on_c, 0, 97, 100
2, 44160, Note_on_c, 0, 84, 100
2, 44160, Note_on_c, 0, 72, 100
2, 44160, Note_on_c, 0, 61, 100
2, 44400, Note_on_c, 0, 97, 0
2, 44400, Note_on_c, 0, 84, 0
2, 44400, Note_on_c, 0, 72, 0
2, 44400, Note_on_c, 0, 61, 0
2, 44640, Note_on_c, 0, 97, 100
2, 44640, Note_on_c, 0, 84, 100
2, 44880, Note_on_c, 0, 97, 0
2, 44880, Note_on_c, 0, 84, 0
2, 45120, Note_on_c, 0, 99, 100
2, 45120, Note_on_c, 0, 86, 100
2, 45120, Note_on_c, 0, 74, 100
2, 45360, Note_on_c, 0, 99, 0
2, 45360, Note_on_c, 0, 86, 0
2, 45360, Note_on_c, 0, 74, 0
2, 45600, Note_on_c, 0, 99, 100
2, 45600, Note_on_c, 0, 86, 100
2, 45840, Note_on_c, 0, 99, 0
2, 45840, Note_on_c, 0, 86, 0
2, 46050, Text_t, "bass_on"
2, 46050, Text_t, "drum_allbeat"
2, 46050, Note_on_c, 0, 105, 0
2, 46050, Note_on_c, 0, 93, 0
2, 46050, Note_on_c, 0, 69, 0
2, 46050, Note_on_c, 0, 81, 0
2, 46050, Note_on_c, 0, 106, 100
2, 46050, Note_on_c, 0, 94, 100
2, 46050, Note_on_c, 0, 70, 100
2, 46050, Note_on_c, 0, 82, 100
2, 46080, Note_on_c, 0, 96, 100
2, 46080, Note_on_c, 0, 84, 100
2, 46080, Note_on_c, 0, 72, 100
2, 46080, Note_on_c, 0, 60, 100
2, 46320, Note_on_c, 0, 96, 0
2, 46320, Note_on_c, 0, 84, 0
2, 46320, Note_on_c, 0, 72, 0
2, 46320, Note_on_c, 0, 60, 0
2, 46560, Note_on_c, 0, 96, 100
2, 46560, Note_on_c, 0, 84, 100
2, 46800, Note_on_c, 0, 96, 0
2, 46800, Note_on_c, 0, 84, 0
2, 47040, Note_on_c, 0, 96, 100
2, 47040, Note_on_c, 0, 84, 100
2, 47280, Note_on_c, 0, 96, 0
2, 47280, Note_on_c, 0, 84, 0
2, 47520, Note_on_c, 0, 100, 100
2, 47520, Note_on_c, 0, 87, 100
2, 47520, Note_on_c, 0, 75, 100
2, 47520, Note_on_c, 0, 62, 100
2, 47760, Note_on_c, 0, 100, 0
2, 47760, Note_on_c, 0, 87, 0
2, 47760, Note_on_c, 0, 75, 0
2, 47760, Note_on_c, 0, 62, 0
2, 48000, Note_on_c, 0, 100, 100
2, 48000, Note_on_c, 0, 87, 100
2, 48240, Note_on_c, 0, 100, 0
2, 48240, Note_on_c, 0, 87, 0
2, 48480, Note_on_c, 0, 100, 100
2, 48480, Note_on_c, 0, 87, 100
2, 48720, Note_on_c, 0, 100, 0
2, 48720, Note_on_c, 0, 87, 0
2, 48930, Note_on_c, 0, 103, 100
2, 48930, Note_on_c, 0, 91, 100
2, 48930, Note_on_c, 0, 67, 100
2, 48930, Note_on_c, 0, 79, 100
2, 48960, Note_on_c, 0, 98, 100
2, 48960, Note_on_c, 0, 85, 100
2, 48960, Note_on_c, 0, 73, 100
2, 49200, Note_on_c, 0, 98, 0
2, 49200, Note_on_c, 0, 85, 0
2, 49200, Note_on_c, 0, 73, 0
2, 49440, Note_on_c, 0, 98, 100
2, 49440, Note_on_c, 0, 85, 100
2, 49680, Note_on_c, 0, 98, 0
2, 49680, Note_on_c, 0, 85, 0
2, 49920, Note_on_c, 0, 97, 100
2, 49920, Note_on_c, 0, 84, 100
2, 49920, Note_on_c, 0, 72, 100
2, 49920, Note_on_c, 0, 61, 100
2, 50160, Note_on_c, 0, 97, 0
2, 50160, Note_on_c, 0, 84, 0
2, 50160, Note_on_c, 0, 72, 0
2, 50160, Note_on_c, 0, 61, 0
2, 50400, Note_on_c, 0, 97, 100
2, 50400, Note_on_c, 0, 84, 100
2, 50640, Note_on_c, 0, 97, 0
2, 50640, Note_on_c, 0, 84, 0
2, 50880, Note_on_c, 0, 99, 100
2, 50880, Note_on_c, 0, 86, 100
2, 50880, Note_on_c, 0, 74, 100
2, 51120, Note_on_c, 0, 99, 0
2, 51120, Note_on_c, 0, 86, 0
2, 51120, Note_on_c, 0, 74, 0
2, 51360, Note_on_c, 0, 99, 100
2, 51360, Note_on_c, 0, 86, 100
2, 51600, Note_on_c, 0, 99, 0
2, 51600, Note_on_c, 0, 86, 0
2, 51810, Note_on_c, 0, 106, 0
2, 51810, Note_on_c, 0, 94, 0
2, 51810, Note_on_c, 0, 70, 0
2, 51810, Note_on_c, 0, 82, 0
2, 51810, Note_on_c, 0, 103, 0
2, 51810, Note_on_c, 0, 91, 0
2, 51810, Note_on_c, 0, 67, 0
2, 51810, Note_on_c, 0, 79, 0
2, 51810, Note_on_c, 0, 105, 100
2, 51810, Note_on_c, 0, 93, 100
2, 51810, Note_on_c, 0, 69, 100
2, 51810, Note_on_c, 0, 81, 100
2, 51840, Note_on_c, 0, 96, 100
2, 51840, Note_on_c, 0, 84, 100
2, 51840, Note_on_c, 0, 72, 100
2, 51840, Note_on_c, 0, 60, 100
2, 52080, Note_on_c, 0, 96, 0
2, 52080, Note_on_c, 0, 84, 0
2, 52080, Note_on_c, 0, 72, 0
2, 52080, Note_on_c, 0, 60, 0
2, 52320, Note_on_c, 0, 96, 100
2, 52320, Note_on_c, 0, 84, 100
2, 52560, Note_on_c, 0, 96, 0
2, 52560, Note_on_c, 0, 84, 0
2, 52800, Note_on_c, 0, 96, 100
2, 52800, Note_on_c, 0, 84, 100
2, 53040, Note_on_c, 0, 96, 0
2, 53040, Note_on_c, 0, 84, 0
2, 53280, Note_on_c, 0, 100, 100
2, 53280, Note_on_c, 0, 87, 100
2, 53280, Note_on_c, 0, 75, 100
2, 53280, Note_on_c, 0, 62, 100
2, 53520, Note_on_c, 0, 100, 0
2, 53520, Note_on_c, 0, 87, 0
2, 53520, Note_on_c, 0, 75, 0
2, 53520, Note_on_c, 0, 62, 0
2, 53760, Note_on_c, 0, 100, 100
2, 53760, Note_on_c, 0, 87, 100
2, 54000, Note_on_c, 0, 100, 0
2, 54000, Note_on_c, 0, 87, 0
2, 54240, Note_on_c, 0, 100, 100
2, 54240, Note_on_c, 0, 87, 100
2, 54480, Note_on_c, 0, 100, 0
2, 54480, Note_on_c, 0, 87, 0
2, 54690, Note_on_c, 0, 103, 100
2, 54690, Note_on_c, 0, 91, 100
2, 54690, Note_on_c, 0, 67, 100
2, 54690, Note_on_c, 0, 79, 100
2, 54720, Note_on_c, 0, 98, 100
2, 54720, Note_on_c, 0, 85, 100
2, 54720, Note_on_c, 0, 73, 100
2, 54960, Note_on_c, 0, 98, 0
2, 54960, Note_on_c, 0, 85, 0
2, 54960, Note_on_c, 0, 73, 0
2, 55200, Note_on_c, 0, 98, 100
2, 55200, Note_on_c, 0, 85, 100
2, 55440, Note_on_c, 0, 98, 0
2, 55440, Note_on_c, 0, 85, 0
2, 55680, Note_on_c, 0, 97, 100
2, 55680, Note_on_c, 0, 84, 100
2, 55680, Note_on_c, 0, 72, 100
2, 55680, Note_on_c, 0, 61, 100
2, 55920, Note_on_c, 0, 97, 0
2, 55920, Note_on_c, 0, 84, 0
2, 55920, Note_on_c, 0, 72, 0
2, 55920, Note_on_c, 0, 61, 0
2, 56160, Note_on_c, 0, 97, 100
2, 56160, Note_on_c, 0, 84, 100
2, 56400, Note_on_c, 0, 97, 0
2, 56400, Note_on_c, 0, 84, 0
2, 56640, Note_on_c, 0, 99, 100
2, 56640, Note_on_c, 0, 86, 100
2, 56640, Note_on_c, 0, 74, 100
2, 56880, Note_on_c, 0, 99, 0
2, 56880, Note_on_c, 0, 86, 0
2, 56880, Note_on_c, 0, 74, 0
2, 57120, Note_on_c, 0, 99, 100
2, 57120, Note_on_c, 0, 86, 100
2, 57360, Note_on_c, 0, 99, 0
2, 57360, Note_on_c, 0, 86, 0
2, 57570, Note_on_c, 0, 103, 0
2, 57570, Note_on_c, 0, 91, 0
2, 57570, Note_on_c, 0, 67, 0
2, 57570, Note_on_c, 0, 79, 0
2, 57570, Note_on_c, 0, 106, 100
2, 57570, Note_on_c, 0, 94, 100
2, 57570, Note_on_c, 0, 70, 100
2, 57570, Note_on_c, 0, 82, 100
2, 57600, Note_on_c, 0, 96, 100
2, 57600, Note_on_c, 0, 84, 100
2, 57600, Note_on_c, 0, 72, 100
2, 57600, Note_on_c, 0, 60, 100
2, 57840, Note_on_c, 0, 96, 0
2, 57840, Note_on_c, 0, 84, 0
2, 57840, Note_on_c, 0, 72, 0
2, 57840, Note_on_c, 0, 60, 0
2, 58080, Note_on_c, 0, 96, 100
2, 58080, Note_on_c, 0, 84, 100
2, 58320, Note_on_c, 0, 96, 0
2, 58320, Note_on_c, 0, 84, 0
2, 58560, Note_on_c, 0, 96, 100
2, 58560, Note_on_c, 0, 84, 100
2, 58800, Note_on_c, 0, 96, 0
2, 58800, Note_on_c, 0, 84, 0
2, 59040, Note_on_c, 0, 100, 100
2, 59040, Note_on_c, 0, 87, 100
2, 59040, Note_on_c, 0, 75, 100
2, 59040, Note_on_c, 0, 62, 100
2, 59280, Note_on_c, 0, 100, 0
2, 59280, Note_on_c, 0, 87, 0
2, 59280, Note_on_c, 0, 75, 0
2, 59280, Note_on_c, 0, 62, 0
2, 59520, Note_on_c, 0, 100, 100
2, 59520, Note_on_c, 0, 87, 100
2, 59760, Note_on_c, 0, 100, 0
2, 59760, Note_on_c, 0, 87, 0
2, 60000, Note_on_c, 0, 100, 100
2, 60000, Note_on_c, 0, 87, 100
2, 60240, Note_on_c, 0, 100, 0
2, 60240, Note_on_c, 0, 87, 0
2, 60480, Note_on_c, 0, 98, 100
2, 60480, Note_on_c, 0, 85, 100
2, 60480, Note_on_c, 0, 73, 100
2, 60720, Note_on_c, 0, 98, 0
2, 60720, Note_on_c, 0, 85, 0
2, 60720, Note_on_c, 0, 73, 0
2, 61440, Note_on_c, 0, 97, 100
2, 61440, Note_on_c, 0, 84, 100
2, 61440, Note_on_c, 0, 72, 100
2, 61440, Note_on_c, 0, 61, 100
2, 61680, Note_on_c, 0, 97, 0
2, 61680, Note_on_c, 0, 84, 0
2, 61680, Note_on_c, 0, 72, 0
2, 61680, Note_on_c, 0, 61, 0
2, 62400, Note_on_c, 0, 99, 100
2, 62400, Note_on_c, 0, 86, 100
2, 62400, Note_on_c, 0, 74, 100
2, 62640, Note_on_c, 0, 99, 0
2, 62640, Note_on_c, 0, 86, 0
2, 62640, Note_on_c, 0, 74, 0
2, 63360, Text_t, "bass_on"
2, 63360, Text_t, "[lighting ()]"
2, 63360, Note_on_c, 0, 96, 100
2, 63360, Note_on_c, 0, 84, 100
2, 63360, Note_on_c, 0, 72, 100
2, 63360, Note_on_c, 0, 60, 100
2, 63600, Note_on_c, 0, 96, 0
2, 63600, Note_on_c, 0, 84, 0
2, 63600, Note_on_c, 0, 72, 0
2, 63600, Note_on_c, 0, 60, 0
2, 63840, Note_on_c, 0, 96, 100
2, 63840, Note_on_c, 0, 84, 100
2, 64080, Note_on_c, 0, 96, 0
2, 64080, Note_on_c, 0, 84, 0
2, 64320, Note_on_c, 0, 96, 100
2, 64320, Note_on_c, 0, 84, 100
2, 64560, Note_on_c, 0, 96, 0
2, 64560, Note_on_c, 0, 84, 0
2, 64800, Note_on_c, 0, 100, 100
2, 64800, Note_on_c, 0, 87, 100
2, 64800, Note_on_c, 0, 75, 100
2, 64800, Note_on_c, 0, 62, 100
2, 65040, Note_on_c, 0, 100, 0
2, 65040, Note_on_c, 0, 87, 0
2, 65040, Note_on_c, 0, 75, 0
2, 65040, Note_on_c, 0, 62, 0
2, 65280, Note_on_c, 0, 100, 100
2, 65280, Note_on_c, 0, 87, 100
2, 65520, Note_on_c, 0, 100, 0
2, 65520, Note_on_c, 0, 87, 0
2, 65760, Note_on_c, 0, 100, 100
2, 65760, Note_on_c, 0, 87, 100
2, 66000, Note_on_c, 0, 100, 0
2, 66000, Note_on_c, 0, 87, 0
2, 66240, Note_on_c, 0, 98, 100
2, 66240, Note_on_c, 0, 85, 100
2, 66240, Note_on_c, 0, 73, 100
2, 66480, Note_on_c, 0, 98, 0
2, 66480, Note_on_c, 0, 85, 0
2, 66480, Note_on_c, 0, 73, 0
2, 67200, Note_on_c, 0, 97, 100
2, 67200, Note_on_c, 0, 84, 100
2, 67200, Note_on_c, 0, 72, 100
2, 67200, Note_on_c, 0, 61, 100
2, 67440, Note_on_c, 0, 97, 0
2, 67440, Note_on_c, 0, 84, 0
2, 67440, Note_on_c, 0, 72, 0
2, 67440, Note_on_c, 0, 61, 0
2, 68160, Note_on_c, 0, 99, 100
2, 68160, Note_on_c, 0, 86, 100
2, 68160, Note_on_c, 0, 74, 100
2, 68400, Note_on_c, 0, 99, 0
2, 68400, Note_on_c, 0, 86, 0
2, 68400, Note_on_c, 0, 74, 0
2, 69090, Text_t, "drum_double"
2, 69120, Note_on_c, 0, 96, 100
2, 69120, Note_on_c, 0, 84, 100
2, 69120, Note_on_c, 0, 72, 100
2, 69120, Note_on_c, 0, 60, 100
2, 69360, Note_on_c, 0, 96, 0
2, 69360, Note_on_c, 0, 84, 0
2, 69360, Note_on_c, 0, 72, 0
2, 69360, Note_on_c, 0, 60, 0
2, 69600, Note_on_c, 0, 96, 100
2, 69600, Note_on_c, 0, 84, 100
2, 69840, Note_on_c, 0, 96, 0
2, 69840, Note_on_c, 0, 84, 0
2, 70080, Note_on_c, 0, 96, 100
2, 70080, Note_on_c, 0, 84, 100
2, 70320, Note_on_c, 0, 96, 0
2, 70320, Note_on_c, 0, 84, 0
2, 70560, Note_on_c, 0, 100, 100
2, 70560, Note_on_c, 0, 87, 100
2, 70560, Note_on_c, 0, 75, 100
2, 70560, Note_on_c, 0, 62, 100
2, 70800, Note_on_c, 0, 100, 0
2, 70800, Note_on_c, 0, 87, 0
2, 70800, Note_on_c, 0, 75, 0
2, 70800, Note_on_c, 0, 62, 0
2, 71040, Note_on_c, 0, 100, 100
2, 71040, Note_on_c, 0, 87, 100
2, 71280, Note_on_c, 0, 100, 0
2, 71280, Note_on_c, 0, 87, 0
2, 71520, Note_on_c, 0, 100, 100
2, 71520, Note_on_c, 0, 87, 100
2, 71760, Note_on_c, 0, 100, 0
2, 71760, Note_on_c, 0, 87, 0
2, 72000, Note_on_c, 0, 98, 100
2, 72000, Note_on_c, 0, 85, 100
2, 72000, Note_on_c, 0, 73, 100
2, 72240, Note_on_c, 0, 98, 0
2, 72240, Note_on_c, 0, 85, 0
2, 72240, Note_on_c, 0, 73, 0
2, 72960, Note_on_c, 0, 97, 100
2, 72960, Note_on_c, 0, 84, 100
2, 72960, Note_on_c, 0, 72, 100
2, 72960, Note_on_c, 0, 61, 100
2, 73200, Note_on_c, 0, 97, 0
2, 73200, Note_on_c, 0, 84, 0
2, 73200, Note_on_c, 0, 72, 0
2, 73200, Note_on_c, 0, 61, 0
2, 73920, Note_on_c, 0, 99, 100
2, 73920, Note_on_c, 0, 86, 100
2, 73920, Note_on_c, 0, 74, 100
2, 74160, Note_on_c, 0, 99, 0
2, 74160, Note_on_c, 0, 86, 0
2, 74160, Note_on_c, 0, 74, 0
2, 74880, Note_on_c, 0, 96, 100
2, 74880, Note_on_c, 0, 84, 100
2, 74880, Note_on_c, 0, 72, 100
2, 74880, Note_on_c, 0, 60, 100
2, 75120, Note_on_c, 0, 96, 0
2, 75120, Note_on_c, 0, 84, 0
2, 75120, Note_on_c, 0, 72, 0
2, 75120, Note_on_c, 0, 60, 0
2, 75360, Note_on_c, 0, 96, 100
2, 75360, Note_on_c, 0, 84, 100
2, 75600, Note_on_c, 0, 96, 0
2, 75600, Note_on_c, 0, 84, 0
2, 75840, Note_on_c, 0, 96, 100
2, 75840, Note_on_c, 0, 84, 100
2, 76080, Note_on_c, 0, 96, 0
2, 76080, Note_on_c, 0, 84, 0
2, 76320, Note_on_c, 0, 100, 100
2, 76320, Note_on_c, 0, 87, 100
2, 76320, Note_on_c, 0, 75, 100
2, 76320, Note_on_c, 0, 62, 100
2, 76560, Note_on_c, 0, 100, 0
2, 76560, Note_on_c, 0, 87, 0
2, 76560, Note_on_c, 0, 75, 0
2, 76560, Note_on_c, 0, 62, 0
2, 76800, Note_on_c, 0, 100, 100
2, 76800, Note_on_c, 0, 87, 100
2, 77040, Note_on_c, 0, 100, 0
2, 77040, Note_on_c, 0, 87, 0
2, 77280, Note_on_c, 0, 100, 100
2, 77280, Note_on_c, 0, 87, 100
2, 77520, Note_on_c, 0, 100, 0
2, 77520, Note_on_c, 0, 87, 0
2, 77730, Note_on_c, 0, 103, 100
2, 77730, Note_on_c, 0, 91, 100
2, 77730, Note_on_c, 0, 67, 100
2, 77730, Note_on_c, 0, 79, 100
2, 77760, Note_on_c, 0, 98, 100
2, 77760, Note_on_c, 0, 85, 100
2, 77760, Note_on_c, 0, 73, 100
2, 78000, Note_on_c, 0, 98, 0
2, 78000, Note_on_c, 0, 85, 0
2, 78000, Note_on_c, 0, 73, 0
2, 78720, Note_on_c, 0, 97, 100
2, 78720, Note_on_c, 0, 84, 100
2, 78720, Note_on_c, 0, 72, 100
2, 78720, Note_on_c, 0, 61, 100
2, 78960, Note_on_c, 0, 97, 0
2, 78960, Note_on_c, 0, 84, 0
2, 78960, Note_on_c, 0, 72, 0
2, 78960, Note_on_c, 0, 61, 0
2, 79680, Note_on_c, 0, 99, 100
2, 79680, Note_on_c, 0, 86, 100
2, 79680, Note_on_c, 0, 74, 100
2, 79920, Note_on_c, 0, 99, 0
2, 79920, Note_on_c, 0, 86, 0
2, 79920, Note_on_c, 0, 74, 0
2, 80610, Note_on_c, 0, 105, 0
2, 80610, Note_on_c, 0, 93, 0
2, 80610, Note_on_c, 0, 69, 0
2, 80610, Note_on_c, 0, 81, 0
2, 80610, Note_on_c, 0, 103, 0
2, 80610, Note_on_c, 0, 91, 0
2, 80610, Note_on_c, 0, 67, 0
2, 80610, Note_on_c, 0, 79, 0
2, 80640, Note_on_c, 0, 96, 100
2, 80640, Note_on_c, 0, 84, 100
2, 80640, Note_on_c, 0, 72, 100
2, 80640, Note_on_c, 0, 60, 100
2, 80880, Note_on_c, 0, 96, 0
2, 80880, Note_on_c, 0, 84, 0
2, 80880, Note_on_c, 0, 72, 0
2, 81600, Note_on_c, 0, 96, 100
2, 81600, Note_on_c, 0, 98, 100
2, 81600, Note_on_c, 0, 84, 100
2, 81600, Note_on_c, 0, 72, 100
2, 81840, Note_on_c, 0, 96, 0
2, 81840, Note_on_c, 0, 98, 0
2, 81840, Note_on_c, 0, 84, 0
2, 81840, Note_on_c, 0, 72, 0
2, 82080, Note_on_c, 0, 96, 100
2, 82080, Note_on_c, 0, 98, 100
2, 82080, Note_on_c, 0, 84, 100
2, 82320, Note_on_c, 0, 96, 0
2, 82320, Note_on_c, 0, 98, 0
2, 82320, Note_on_c, 0, 84, 0
2, 82560, Note_on_c, 0, 96, 100
2, 82560, Note_on_c, 0, 98, 100
2, 82560, Note_on_c, 0, 84, 100
2, 82560, Note_on_c, 0, 72, 100
2, 82800, Note_on_c, 0, 96, 0
2, 82800, Note_on_c, 0, 98, 0
2, 82800, Note_on_c, 0, 84, 0
2, 82800, Note_on_c, 0, 72, 0
2, 83040, Note_on_c, 0, 96, 100
2, 83040, Note_on_c, 0, 98, 100
2, 83040, Note_on_c, 0, 84, 100
2, 83280, Note_on_c, 0, 96, 0
2, 83280, Note_on_c, 0, 98, 0
2, 83280, Note_on_c, 0, 84, 0
2, 83520, Note_on_c, 0, 60, 0
2, 83520, Note_on_c, 0, 96, 100
2, 83520, Note_on_c, 0, 98, 100
2, 83520, Note_on_c, 0, 84, 100
2, 83520, Note_on_c, 0, 72, 100
2, 83760, Note_on_c, 0, 96, 0
2, 83760, Note_on_c, 0, 98, 0
2, 83760, Note_on_c, 0, 84, 0
2, 83760, Note_on_c, 0, 72, 0
2, 84000, Note_on_c, 0, 96, 100
2, 84000, Note_on_c, 0, 98, 100
2, 84000, Note_on_c, 0, 84, 100
2, 84240, Note_on_c, 0, 96, 0
2, 84240, Note_on_c, 0, 98, 0
2, 84240, Note_on_c, 0, 84, 0
2, 84480, Note_on_c, 0, 99, 100
2, 84480, Note_on_c, 0, 87, 100
2, 84480, Note_on_c, 0, 75, 100
2, 84480, Note_on_c, 0, 62, 100
2, 84720, Note_on_c, 0, 99, 0
2, 84720, Note_on_c, 0, 87, 0
2, 84720, Note_on_c, 0, 75, 0
2, 84720, Note_on_c, 0, 62, 0
2, 84960, Note_on_c, 0, 96, 100
2, 85200, Note_on_c, 0, 96, 0
2, 85440, Note_on_c, 0, 96, 100
2, 85680, Note_on_c, 0, 96, 0
2, 85920, Note_on_c, 0, 98, 100
2, 85920, Note_on_c, 0, 86, 100
2, 85920, Note_on_c, 0, 74, 100
2, 85920, Note_on_c, 0, 61, 100
2, 86160, Note_on_c, 0, 98, 0
2, 86160, Note_on_c, 0, 86, 0
2, 86160, Note_on_c, 0, 74, 0
2, 86160, Note_on_c, 0, 61, 0
2, 86400, Text_t, "[lighting ()]"
2, 86400, Note_on_c, 0, 96, 100
2, 86640, Note_on_c, 0, 96, 0
2, 86880, Note_on_c, 0, 96, 100
2, 87120, Note_on_c, 0, 96, 0
2, 87360, Note_on_c, 0, 97, 100
2, 87360, Note_on_c, 0, 85, 100
2, 87360, Note_on_c, 0, 73, 100
2, 87600, Note_on_c, 0, 97, 0
2, 87600, Note_on_c, 0, 85, 0
2, 87600, Note_on_c, 0, 73, 0
2, 87840, Note_on_c, 0, 96, 100
2, 88080, Note_on_c, 0, 96, 0
2, 88290, Note_on_c, 0, 106, 0
2, 88290, Note_on_c, 0, 94, 0
2, 88290, Note_on_c, 0, 70, 0
2, 88290, Note_on_c, 0, 82, 0
2, 88290, Note_on_c, 0, 105, 100
2, 88290, Note_on_c, 0, 93, 100
2, 88290, Note_on_c, 0, 69, 100
2, 88290, Note_on_c, 0, 81, 100
2, 88320, Note_on_c, 0, 96, 100
2, 88320, Note_on_c, 0, 98, 100
2, 88320, Note_on_c, 0, 84, 100
2, 88320, Note_on_c, 0, 72, 100
2, 88320, Note_on_c, 0, 60, 100
2, 88560, Note_on_c, 0, 96, 0
2, 88560, Note_on_c, 0, 98, 0
2, 88560, Note_on_c, 0, 84, 0
2, 88560, Note_on_c, 0, 72, 0
2, 88800, Note_on_c, 0, 96, 100
2, 88800, Note_on_c, 0, 98, 100
2, 88800, Note_on_c, 0, 84, 100
2, 89040, Note_on_c, 0, 96, 0
2, 89040, Note_on_c, 0, 98, 0
2, 89040, Note_on_c, 0, 84, 0
2, 89280, Note_on_c, 0, 96, 100
2, 89280, Note_on_c, 0, 98, 100
2, 89280, Note_on_c, 0, 84, 100
2, 89280, Note_on_c, 0, 72, 100
2, 89520, Note_on_c, 0, 96, 0
2, 89520, Note_on_c, 0, 98, 0
2, 89520, Note_on_c, 0, 84, 0
2, 89520, Note_on_c, 0, 72, 0
2, 89760, Note_on_c, 0, 96, 100
2, 89760, Note_on_c, 0, 98, 100
2, 89760, Note_on_c, 0, 84, 100
2, 90000, Note_on_c, 0, 96, 0
2, 90000, Note_on_c, 0, 98, 0
2, 90000, Note_on_c, 0, 84, 0
2, 90240, Note_on_c, 0, 96, 100
2, 90240, Note_on_c, 0, 98, 100
2, 90240, Note_on_c, 0, 84, 100
2, 90240, Note_on_c, 0, 72, 100
2, 90480, Note_on_c, 0, 96, 0
2, 90480, Note_on_c, 0, 98, 0
2, 90480, Note_on_c, 0, 84, 0
2, 90480, Note_on_c, 0, 72, 0
2, 90720, Note_on_c, 0, 96, 100
2, 90720, Note_on_c, 0, 98, 100
2, 90720, Note_on_c, 0, 84, 100
2, 90960, Note_on_c, 0, 96, 0
2, 90960, Note_on_c, 0, 98, 0
2, 90960, Note_on_c, 0, 84, 0
2, 91200, Note_on_c, 0, 60, 0
2, 91200, Note_on_c, 0, 96, 100
2, 91200, Note_on_c, 0, 98, 100
2, 91200, Note_on_c, 0, 84, 100
2, 91200, Note_on_c, 0, 72, 100
2, 91440, Note_on_c, 0, 96, 0
2, 91440, Note_on_c, 0, 98, 0
2, 91440, Note_on_c, 0, 84, 0
2, 91440, Note_on_c, 0, 72, 0
2, 91680, Note_on_c, 0, 96, 100
2, 91680, Note_on_c, 0, 98, 100
2, 91680, Note_on_c, 0, 84, 100
2, 91920, Note_on_c, 0, 96, 0
2, 91920, Note_on_c, 0, 98, 0
2, 91920, Note_on_c, 0, 84, 0
2, 92130, Text_t, "[chorus]"
2, 92160, Note_on_c, 0, 99, 100
2, 92160, Note_on_c, 0, 87, 100
2, 92160, Note_on_c, 0, 75, 100
2, 92160, Note_on_c, 0, 62, 100
2, 92400, Note_on_c, 0, 99, 0
2, 92400, Note_on_c, 0, 87, 0
2, 92400, Note_on_c, 0, 75, 0
2, 92400, Note_on_c, 0, 62, 0
2, 92640, Note_on_c, 0, 96, 100
2, 92880, Note_on_c, 0, 96, 0
2, 93120, Note_on_c, 0, 96, 100
2, 93360, Note_on_c, 0, 96, 0
2, 93600, Note_on_c, 0, 98, 100
2, 93600, Note_on_c, 0, 86, 100
2, 93600, Note_on_c, 0, 74, 100
2, 93600, Note_on_c, 0, 61, 100
2, 93840, Note_on_c, 0, 98, 0
2, 93840, Note_on_c, 0, 86, 0
2, 93840, Note_on_c, 0, 74, 0
2, 93840, Note_on_c, 0, 61, 0
2, 94080, Note_on_c, 0, 96, 100
2, 94320, Note_on_c, 0, 96, 0
2, 94560, Note_on_c, 0, 96, 100
2, 94800, Note_on_c, 0, 96, 0
2, 95040, Note_on_c, 0, 97, 100
2, 95040, Note_on_c, 0, 85, 100
2, 95040, Note_on_c, 0, 73, 100
2, 95280, Note_on_c, 0, 97, 0
2, 95280, Note_on_c, 0, 85, 0
2, 95280, Note_on_c, 0, 73, 0
2, 95520, Note_on_c, 0, 96, 100
2, 95760, Note_on_c, 0, 96, 0
2, 95970, Note_on_c, 0, 105, 0
2, 95970, Note_on_c, 0, 93, 0
2, 95970, Note_on_c, 0, 69, 0
2, 95970, Note_on_c, 0, 81, 0
2, 95970, Note_on_c, 0, 106, 100
2, 95970, Note_on_c, 0, 94, 100
2, 95970, Note_on_c, 0, 70, 100
2, 95970, Note_on_c, 0, 82, 100
2, 96000, Note_on_c, 0, 96, 100
2, 96000, Note_on_c, 0, 98, 100
2, 96000, Note_on_c, 0, 84, 100
2, 96000, Note_on_c, 0, 72, 100
2, 96000, Note_on_c, 0, 60, 100
2, 96240, Note_on_c, 0, 96, 0
2, 96240, Note_on_c, 0, 98, 0
2, 96240, Note_on_c, 0, 84, 0
2, 96240, Note_on_c, 0, 72, 0
2, 96480, Note_on_c, 0, 96, 100
2, 96480, Note_on_c, 0, 98, 100
2, 96480, Note_on_c, 0, 84, 100
2, 96720, Note_on_c, 0, 96, 0
2, 96720, Note_on_c, 0, 98, 0
2, 96720, Note_on_c, 0, 84, 0
2, 96960, Note_on_c, 0, 96, 100
2, 96960, Note_on_c, 0, 98, 100
2, 96960, Note_on_c, 0, 84, 100
2, 96960, Note_on_c, 0, 72, 100
2, 97200, Note_on_c, 0, 96, 0
2, 97200, Note_on_c, 0, 98, 0
2, 97200, Note_on_c, 0, 84, 0
2, 97200, Note_on_c, 0, 72, 0
2, 97440, Note_on_c, 0, 96, 100
2, 97440, Note_on_c, 0, 98, 100
2, 97440, Note_on_c, 0, 84, 100
2, 97680, Note_on_c, 0, 96, 0
2, 97680, Note_on_c, 0, 98, 0
2, 97680, Note_on_c, 0, 84, 0
2, 97920, Note_on_c, 0, 96, 100
2, 97920, Note_on_c, 0, 98, 100
2, 97920, Note_on_c, 0, 84, 100
2, 97920, Note_on_c, 0, 72, 100
2, 98160, Note_on_c, 0, 96, 0
2, 98160, Note_on_c, 0, 98, 0
2, 98160, Note_on_c, 0, 84, 0
2, 98160, Note_on_c, 0, 72, 0
2, 98400, Note_on_c, 0, 96, 100
2, 98400, Note_on_c, 0, 98, 100
2, 98400, Note_on_c, 0, 84, 100
2, 98640, Note_on_c, 0, 96, 0
2, 98640, Note_on_c, 0, 98, 0
2, 98640, Note_on_c, 0, 84, 0
2, 98880, Note_on_c, 0, 60, 0
2, 98880, Note_on_c, 0, 96, 100
2, 98880, Note_on_c, 0, 98, 100
2, 98880, Note_on_c, 0, 84, 100
2, 98880, Note_on_c, 0, 72, 100
2, 99120, Note_on_c, 0, 96, 0
2, 99120, Note_on_c, 0, 98, 0
2, 99120, Note_on_c, 0, 84, 0
2, 99120, Note_on_c, 0, 72, 0
2, 99360, Note_on_c, 0, 96, 100
2, 99360, Note_on_c, 0, 98, 100
2, 99360, Note_on_c, 0, 84, 100
2, 99600, Note_on_c, 0, 96, 0
2, 99600, Note_on_c, 0, 98, 0
2, 99600, Note_on_c, 0, 84, 0
2, 99840, Note_on_c, 0, 99, 100
2, 99840, Note_on_c, 0, 87, 100
2, 99840, Note_on_c, 0, 75, 100
2, 99840, Note_on_c, 0, 62, 100
2, 100080, Note_on_c, 0, 99, 0
2, 100080, Note_on_c, 0, 87, 0
2, 100080, Note_on_c, 0, 75, 0
2, 100080, Note_on_c, 0, 62, 0
2, 100320, Note_on_c, 0, 96, 100
2, 100560, Note_on_c, 0, 96, 0
2, 100800, Note_on_c, 0, 96, 100
2, 101040, Note_on_c, 0, 96, 0
2, 101280, Note_on_c, 0, 98, 100
2, 101280, Note_on_c, 0, 86, 100
2, 101280, Note_on_c, 0, 74, 100
2, 101280, Note_on_c, 0, 61, 100
2, 101520, Note_on_c, 0, 98, 0
2, 101520, Note_on_c, 0, 86, 0
2, 101520, Note_on_c, 0, 74, 0
2, 101520, Note_on_c, 0, 61, 0
2, 101760, Note_on_c, 0, 96, 100
2, 102000, Note_on_c, 0, 96, 0
2, 102240, Note_on_c, 0, 96, 100
2, 102480, Note_on_c, 0, 96, 0
2, 102720, Note_on_c, 0, 97, 100
2, 102720, Note_on_c, 0, 85, 100
2, 102720, Note_on_c, 0, 73, 100
2, 102960, Note_on_c, 0, 97, 0
2, 102960, Note_on_c, 0, 85, 0
2, 102960, Note_on_c, 0, 73, 0
2, 103200, Note_on_c, 0, 96, 100
2, 103440, Note_on_c, 0, 96, 0
2, 103650, Note_on_c, 0, 106, 0
2, 103650, Note_on_c, 0, 94, 0
2, 103650, Note_on_c, 0, 70, 0
2, 103650, Note_on_c, 0, 82, 0
2, 103650, Note_on_c, 0, 105, 100
2, 103650, Note_on_c, 0, 93, 100
2, 103650, Note_on_c, 0, 69, 100
2, 103650, Note_on_c, 0, 81, 100
2, 103680, Note_on_c, 0, 96, 100
2, 103680, Note_on_c, 0, 98, 100
2, 103680, Note_on_c, 0, 84, 100
2, 103680, Note_on_c, 0, 72, 100
2, 103680, Note_on_c, 0, 60, 100
2, 103920, Note_on_c, 0, 96, 0
2, 103920, Note_on_c, 0, 98, 0
2, 103920, Note_on_c, 0, 84, 0
2, 103920, Note_on_c, 0, 72, 0
2, 104160, Note_on_c, 0, 96, 100
2, 104160, Note_on_c, 0, 98, 100
2, 104160, Note_on_c, 0, 84, 100
2, 104400, Note_on_c, 0, 96, 0
2, 104400, Note_on_c, 0, 98, 0
2, 104400, Note_on_c, 0, 84, 0
2, 104640, Note_on_c, 0, 96, 100
2, 104640, Note_on_c, 0, 98, 100
2, 104640, Note_on_c, 0, 84, 100
2, 104640, Note_on_c, 0, 72, 100
2, 104880, Note_on_c, 0, 96, 0
2, 104880, Note_on_c, 0, 98, 0
2, 104880, Note_on_c, 0, 84, 0
2, 104880, Note_on_c, 0, 72, 0
2, 105120, Note_on_c, 0, 96, 100
2, 105120, Note_on_c, 0, 98, 100
2, 105120, Note_on_c, 0, 84, 100
2, 105360, Note_on_c, 0, 96, 0
2, 105360, Note_on_c, 0, 98, 0
2, 105360, Note_on_c, 0, 84, 0
2, 105600, Note_on_c, 0, 96, 100
2, 105600, Note_on_c, 0, 98, 100
2, 105600, Note_on_c, 0, 84, 100
2, 105600, Note_on_c, 0, 72, 100
2, 105840, Note_on_c, 0, 96, 0
2, 105840, Note_on_c, 0, 98, 0
2, 105840, Note_on_c, 0, 84, 0
2, 105840, Note_on_c, 0, 72, 0
2, 106080, Note_on_c, 0, 96, 100
2, 106080, Note_on_c, 0, 98, 100
2, 106080, Note_on_c, 0, 84, 100
2, 106320, Note_on_c, 0, 96, 0
2, 106320, Note_on_c, 0, 98, 0
2, 106320, Note_on_c, 0, 84, 0
2, 106560, Note_on_c, 0, 60, 0
2, 106560, Note_on_c, 0, 96, 100
2, 106560, Note_on_c, 0, 98, 100
2, 106560, Note_on_c, 0, 84, 100
2, 106560, Note_on_c, 0, 72, 100
2, 106800, Note_on_c, 0, 96, 0
2, 106800, Note_on_c, 0, 98, 0
2, 106800, Note_on_c, 0, 84, 0
2, 106800, Note_on_c, 0, 72, 0
2, 107040, Note_on_c, 0, 96, 100
2, 107040, Note_on_c, 0, 98, 100
2, 107040, Note_on_c, 0, 84, 100
2, 107280, Note_on_c, 0, 96, 0
2, 107280, Note_on_c, 0, 98, 0
2, 107280, Note_on_c, 0, 84, 0
2, 107520, Note_on_c, 0, 99, 100
2, 107520, Note_on_c, 0, 87, 100
2, 107520, Note_on_c, 0, 75, 100
2, 107520, Note_on_c, 0, 62, 100
2, 107760, Note_on_c, 0, 99, 0
2, 107760, Note_on_c, 0, 87, 0
2, 107760, Note_on_c, 0, 75, 0
2, 107760, Note_on_c, 0, 62, 0
2, 108000, Note_on_c, 0, 96, 100
2, 108240, Note_on_c, 0, 96, 0
2, 108480, Note_on_c, 0, 96, 100
2, 108720, Note_on_c, 0, 96, 0
2, 108960, Note_on_c, 0, 98, 100
2, 108960, Note_on_c, 0, 86, 100
2, 108960, Note_on_c, 0, 74, 100
2, 108960, Note_on_c, 0, 61, 100
2, 109200, Note_on_c, 0, 98, 0
2, 109200, Note_on_c, 0, 86, 0
2, 109200, Note_on_c, 0, 74, 0
2, 109200, Note_on_c, 0, 61, 0
2, 109440, Text_t, "[chorus]"
2, 109440, Note_on_c, 0, 96, 100
2, 109680, Note_on_c, 0, 96, 0
2, 109920, Note_on_c, 0, 96, 100
2, 110160, Note_on_c, 0, 96, 0
2, 110400, Note_on_c, 0, 97, 100
2, 110400, Note_on_c, 0, 85, 100
2, 110400, Note_on_c, 0, 73, 100
2, 110640, Note_on_c, 0, 97, 0
2, 110640, Note_on_c, 0, 85, 0
2, 110640, Note_on_c, 0, 73, 0
2, 110880, Note_on_c, 0, 96, 100
2, 111120, Note_on_c, 0, 96, 0
2, 111330, Note_on_c, 0, 106, 100
2, 111330, Note_on_c, 0, 94, 100
2, 111330, Note_on_c, 0, 70, 100
2, 111330, Note_on_c, 0, 82, 100
2, 111360, Note_on_c, 0, 96, 100
2, 111360, Note_on_c, 0, 98, 100
2, 111360, Note_on_c, 0, 84, 100
2, 111360, Note_on_c, 0, 86, 100
2, 111360, Note_on_c, 0, 72, 100
2, 111360, Note_on_c, 0, 60, 100
2, 111600, Note_on_c, 0, 96, 0
2, 111600, Note_on_c, 0, 98, 0
2, 111600, Note_on_c, 0, 84, 0
2, 111600, Note_on_c, 0, 86, 0
2, 111600, Note_on_c, 0, 72, 0
2, 111600, Note_on_c, 0, 60, 0
2, 111810, Note_on_c, 0, 105, 0
2, 111810, Note_on_c, 0, 93, 0
2, 111810, Note_on_c, 0, 69, 0
2, 111810, Note_on_c, 0, 81, 0
2, 111810, Note_on_c, 0, 106, 0
2, 111810, Note_on_c, 0, 94, 0
2, 111810, Note_on_c, 0, 70, 0
2, 111810, Note_on_c, 0, 82, 0
2, 122850, Text_t, "[verse]"
2, 122850, Text_t, "[idle]"
2, 134400, Note_on_c, 0, 96, 100
2, 134400, Note_on_c, 0, 84, 100
2, 134400, Note_on_c, 0, 72, 100
2, 134400, Note_on_c, 0, 60, 100
2, 134400, Note_on_c, 0, 106, 100
2, 134400, Note_on_c, 0, 94, 100
2, 134400, Note_on_c, 0, 70, 100
2, 134400, Note_on_c, 0, 82, 100
2, 134640, Note_on_c, 0, 96, 0
2, 134640, Note_on_c, 0, 84, 0
2, 134640, Note_on_c, 0, 72, 0
2, 134640, Note_on_c, 0, 60, 0
2, 134880, Note_on_c, 0, 96, 100
2, 134880, Note_on_c, 0, 84, 100
2, 135120, Note_on_c, 0, 96, 0
2, 135120, Note_on_c, 0, 84, 0
2, 135360, Note_on_c, 0, 96, 100
2, 135360, Note_on_c, 0, 84, 100
2, 135600, Note_on_c, 0, 96, 0
2, 135600, Note_on_c, 0, 84, 0
2, 135840, Note_on_c, 0, 98, 100
2, 135840, Note_on_c, 0, 86, 100
2, 135840, Note_on_c, 0, 73, 100
2, 136080, Note_on_c, 0, 98, 0
2, 136080, Note_on_c, 0, 86, 0
2, 136080, Note_on_c, 0, 73, 0
2, 136320, Note_on_c, 0, 98, 100
2, 136320, Note_on_c, 0, 86, 100
2, 136560, Note_on_c, 0, 98, 0
2, 136560, Note_on_c, 0, 86, 0
2, 136800, Note_on_c, 0, 98, 100
2, 136800, Note_on_c, 0, 86, 100
2, 137040, Note_on_c, 0, 98, 0
2, 137040, Note_on_c, 0, 86, 0
2, 137280, Note_on_c, 0, 97, 100
2, 137280, Note_on_c, 0, 85, 100
2, 137280, Note_on_c, 0, 72, 100
2, 137280, Note_on_c, 0, 61, 100
2, 137520, Note_on_c, 0, 97, 0
2, 137520, Note_on_c, 0, 85, 0
2, 137520, Note_on_c, 0, 72, 0
2, 137520, Note_on_c, 0, 61, 0
2, 137760, Note_on_c, 0, 97, 100
2, 137760, Note_on_c, 0, 85, 100
2, 138000, Note_on_c, 0, 97, 0
2, 138000, Note_on_c, 0, 85, 0
2, 138240, Note_on_c, 0, 97, 100
2, 138240, Note_on_c, 0, 85, 100
2, 138480, Note_on_c, 0, 97, 0
2, 138480, Note_on_c, 0, 85, 0
2, 138720, Note_on_c, 0, 99, 100
2, 138720, Note_on_c, 0, 87, 100
2, 138720, Note_on_c, 0, 74, 100
2, 138960, Note_on_c, 0, 99, 0
2, 138960, Note_on_c, 0, 87, 0
2, 138960, Note_on_c, 0, 74, 0
2, 139200, Note_on_c, 0, 99, 100
2, 139200, Note_on_c, 0, 87, 100
2, 139440, Note_on_c, 0, 99, 0
2, 139440, Note_on_c, 0, 87, 0
2, 139680, Note_on_c, 0, 99, 100
2, 139680, Note_on_c, 0, 87, 100
2, 139920, Note_on_c, 0, 99, 0
2, 139920, Note_on_c, 0, 87, 0
2, 140160, Text_t, "[verse]"
2, 140160, Text_t, "[lighting (blackout)]"
2, 140160, Note_on_c, 0, 98, 100
2, 140160, Note_on_c, 0, 86, 100
2, 140160, Note_on_c, 0, 73, 100
2, 140160, Note_on_c, 0, 61, 100
2, 140400, Note_on_c, 0, 98, 0
2, 140400, Note_on_c, 0, 86, 0
2, 140400, Note_on_c, 0, 73, 0
2, 140400, Note_on_c, 0, 61, 0
2, 140640, Note_on_c, 0, 98, 100
2, 140640, Note_on_c, 0, 86, 100
2, 140880, Note_on_c, 0, 98, 0
2, 140880, Note_on_c, 0, 86, 0
2, 141120, Note_on_c, 0, 98, 100
2, 141120, Note_on_c, 0, 86, 100
2, 141360, Note_on_c, 0, 98, 0
2, 141360, Note_on_c, 0, 86, 0
2, 141600, Note_on_c, 0, 100, 100
2, 141600, Note_on_c, 0, 88, 100
2, 141600, Note_on_c, 0, 75, 100
2, 141840, Note_on_c, 0, 100, 0
2, 141840, Note_on_c, 0, 88, 0
2, 141840, Note_on_c, 0, 75, 0
2, 142080, Note_on_c, 0, 100, 100
2, 142080, Note_on_c, 0, 88, 100
2, 142320, Note_on_c, 0, 100, 0
2, 142320, Note_on_c, 0, 88, 0
2, 142560, Note_on_c, 0, 100, 100
2, 142560, Note_on_c, 0, 88, 100
2, 142800, Note_on_c, 0, 100, 0
2, 142800, Note_on_c, 0, 88, 0
2, 143040, Note_on_c, 0, 99, 100
2, 143040, Note_on_c, 0, 87, 100
2, 143040, Note_on_c, 0, 74, 100
2, 143040, Note_on_c, 0, 62, 100
2, 143280, Note_on_c, 0, 99, 0
2, 143280, Note_on_c, 0, 87, 0
2, 143280, Note_on_c, 0, 74, 0
2, 143280, Note_on_c, 0, 62, 0
2, 143520, Note_on_c, 0, 99, 100
2, 143520, Note_on_c, 0, 87, 100
2, 143760, Note_on_c, 0, 99, 0
2, 143760, Note_on_c, 0, 87, 0
2, 144000, Note_on_c, 0, 99, 100
2, 144000, Note_on_c, 0, 87, 100
2, 144240, Note_on_c, 0, 99, 0
2, 144240, Note_on_c, 0, 87, 0
2, 144480, Note_on_c, 0, 100, 100
2, 144480, Note_on_c, 0, 88, 100
2, 144480, Note_on_c, 0, 75, 100
2, 144720, Note_on_c, 0, 100, 0
2, 144720, Note_on_c, 0, 88, 0
2, 144720, Note_on_c, 0, 75, 0
2, 144960, Note_on_c, 0, 100, 100
2, 144960, Note_on_c, 0, 88, 100
2, 145200, Note_on_c, 0, 100, 0
2, 145200, Note_on_c, 0, 88, 0
2, 145440, Note_on_c, 0, 100, 100
2, 145440, Note_on_c, 0, 88, 100
2, 145680, Note_on_c, 0, 100, 0
2, 145680, Note_on_c, 0, 88, 0
2, 145890, Text_t, "[play]"
2, 145920, Note_on_c, 0, 106, 0
2, 145920, Note_on_c, 0, 94, 0
2, 145920, Note_on_c, 0, 70, 0
2, 145920, Note_on_c, 0, 82, 0
2, 145920, Note_on_c, 0, 96, 100
2, 145920, Note_on_c, 0, 84, 100
2, 145920, Note_on_c, 0, 72, 100
2, 145920, Note_on_c, 0, 60, 100
2, 145920, Note_on_c, 0, 105, 100
2, 145920, Note_on_c, 0, 93, 100
2, 145920, Note_on_c, 0, 69, 100
2, 145920, Note_on_c, 0, 81, 100
2, 146160, Note_on_c, 0, 96, 0
2, 146160, Note_on_c, 0, 84, 0
2, 146160, Note_on_c, 0, 72, 0
2, 146160, Note_on_c, 0, 60, 0
2, 146400, Note_on_c, 0, 96, 100
2, 146400, Note_on_c, 0, 84, 100
2, 146640, Note_on_c, 0, 96, 0
2, 146640, Note_on_c, 0, 84, 0
2, 146880, Note_on_c, 0, 96, 100
2, 146880, Note_on_c, 0, 84, 100
2, 147120, Note_on_c, 0, 96, 0
2, 147120, Note_on_c, 0, 84, 0
2, 147360, Note_on_c, 0, 98, 100
2, 147360, Note_on_c, 0, 86, 100
2, 147360, Note_on_c, 0, 73, 100
2, 147600, Note_on_c, 0, 98, 0
2, 147600, Note_on_c, 0, 86, 0
2, 147600, Note_on_c, 0, 73, 0
2, 147840, Note_on_c, 0, 98, 100
2, 147840, Note_on_c, 0, 86, 100
2, 148080, Note_on_c, 0, 98, 0
2, 148080, Note_on_c, 0, 86, 0
2, 148320, Note_on_c, 0, 98, 100
2, 148320, Note_on_c, 0, 86, 100
2, 148560, Note_on_c, 0, 98, 0
2, 148560, Note_on_c, 0, 86, 0
2, 148800, Note_on_c, 0, 97, 100
2, 148800, Note_on_c, 0, 85, 100
2, 148800, Note_on_c, 0, 72, 100
2, 148800, Note_on_c, 0, 61, 100
2, 149040, Note_on_c, 0, 97, 0
2, 149040, Note_on_c, 0, 85, 0
2, 149040, Note_on_c, 0, 72, 0
2, 149040, Note_on_c, 0, 61, 0
2, 149280, Note_on_c, 0, 97, 100
2, 149280, Note_on_c, 0, 85, 100
2, 149520, Note_on_c, 0, 97, 0
2, 149520, Note_on_c, 0, 85, 0
2, 149760, Note_on_c, 0, 97, 100
2, 149760, Note_on_c, 0, 85, 100
2, 150000, Note_on_c, 0, 97, 0
2, 150000, Note_on_c, 0, 85, 0
2, 150240, Note_on_c, 0, 99, 100
2, 150240, Note_on_c, 0, 87, 100
2, 150240, Note_on_c, 0, 74, 100
2, 150480, Note_on_c, 0, 99, 0
2, 150480, Note_on_c, 0, 87, 0
2, 150480, Note_on_c, 0, 74, 0
2, 150720, Note_on_c, 0, 99, 100
2, 150720, Note_on_c, 0, 87, 100
2, 150960, Note_on_c, 0, 99, 0
2, 150960, Note_on_c, 0, 87, 0
2, 151200, Note_on_c, 0, 99, 100
2, 151200, Note_on_c, 0, 87, 100
2, 151440, Note_on_c, 0, 99, 0
2, 151440, Note_on_c, 0, 87, 0
2, 151680, Note_on_c, 0, 98, 100
2, 151680, Note_on_c, 0, 86, 100
2, 151680, Note_on_c, 0, 73, 100
2, 151680, Note_on_c, 0, 61, 100
2, 151920, Note_on_c, 0, 98, 0
2, 151920, Note_on_c, 0, 86, 0
2, 151920, Note_on_c, 0, 73, 0
2, 151920, Note_on_c, 0, 61, 0
2, 152160, Note_on_c, 0, 98, 100
2, 152160, Note_on_c, 0, 86, 100
2, 152400, Note_on_c, 0, 98, 0
2, 152400, Note_on_c, 0, 86, 0
2, 152640, Note_on_c, 0, 98, 100
2, 152640, Note_on_c, 0, 86, 100
2, 152880, Note_on_c, 0, 98, 0
2, 152880, Note_on_c, 0, 86, 0
2, 153120, Note_on_c, 0, 100, 100
2, 153120, Note_on_c, 0, 88, 100
2, 153120, Note_on_c, 0, 75, 100
2, 153360, Note_on_c, 0, 100, 0
2, 153360, Note_on_c, 0, 88, 0
2, 153360, Note_on_c, 0, 75, 0
2, 153600, Note_on_c, 0, 100, 100
2, 153600, Note_on_c, 0, 88, 100
2, 153840, Note_on_c, 0, 100, 0
2, 153840, Note_on_c, 0, 88, 0
2, 154080, Note_on_c, 0, 100, 100
2, 154080, Note_on_c, 0, 88, 100
2, 154320, Note_on_c, 0, 100, 0
2, 154320, Note_on_c, 0, 88, 0
2, 154560, Note_on_c, 0, 99, 100
2, 154560, Note_on_c, 0, 87, 100
2, 154560, Note_on_c, 0, 74, 100
2, 154560, Note_on_c, 0, 62, 100
2, 154800, Note_on_c, 0, 99, 0
2, 154800, Note_on_c, 0, 87, 0
2, 154800, Note_on_c, 0, 74, 0
2, 154800, Note_on_c, 0, 62, 0
2, 155040, Note_on_c, 0, 99, 100
2, 155040, Note_on_c, 0, 87, 100
2, 155280, Note_on_c, 0, 99, 0
2, 155280, Note_on_c, 0, 87, 0
2, 155520, Note_on_c, 0, 99, 100
2, 155520, Note_on_c, 0, 87, 100
2, 155760, Note_on_c, 0, 99, 0
2, 155760, Note_on_c, 0, 87, 0
2, 156000, Note_on_c, 0, 100, 100
2, 156000, Note_on_c, 0, 88, 100
2, 156000, Note_on_c, 0, 75, 100
2, 156240, Note_on_c, 0, 100, 0
2, 156240, Note_on_c, 0, 88, 0
2, 156240, Note_on_c, 0, 75, 0
2, 156480, Note_on_c, 0, 100, 100
2, 156480, Note_on_c, 0, 88, 100
2, 156720, Note_on_c, 0, 100, 0
2, 156720, Note_on_c, 0, 88, 0
2, 156960, Note_on_c, 0, 100, 100
2, 156960, Note_on_c, 0, 88, 100
2, 157200, Note_on_c, 0, 100, 0
2, 157200, Note_on_c, 0, 88, 0
2, 157410, Text_t, "drum_allbeat"
2, 157440, Note_on_c, 0, 105, 0
2, 157440, Note_on_c, 0, 93, 0
2, 157440, Note_on_c, 0, 69, 0
2, 157440, Note_on_c, 0, 81, 0
2, 157440, Note_on_c, 0, 97, 100
2, 157440, Note_on_c, 0, 85, 100
2, 157440, Note_on_c, 0, 73, 100
2, 157440, Note_on_c, 0, 61, 100
2, 157440, Note_on_c, 0, 106, 100
2, 157440, Note_on_c, 0, 94, 100
2, 157440, Note_on_c, 0, 70, 100
2, 157440, Note_on_c, 0, 82, 100
2, 157680, Note_on_c, 0, 97, 0
2, 157680, Note_on_c, 0, 85, 0
2, 157680, Note_on_c, 0, 73, 0
2, 157920, Note_on_c, 0, 97, 100
2, 157920, Note_on_c, 0, 85, 100
2, 158160, Note_on_c, 0, 97, 0
2, 158160, Note_on_c, 0, 85, 0
2, 158400, Note_on_c, 0, 97, 100
2, 158400, Note_on_c, 0, 85, 100
2, 158400, Note_on_c, 0, 73, 100
2, 158640, Note_on_c, 0, 97, 0
2, 158640, Note_on_c, 0, 85, 0
2, 158640, Note_on_c, 0, 73, 0
2, 158880, Note_on_c, 0, 97, 100
2, 158880, Note_on_c, 0, 85, 100
2, 159120, Note_on_c, 0, 97, 0
2, 159120, Note_on_c, 0, 85, 0
2, 159360, Note_on_c, 0, 97, 100
2, 159360, Note_on_c, 0, 85, 100
2, 159360, Note_on_c, 0, 73, 100
2, 159600, Note_on_c, 0, 97, 0
2, 159600, Note_on_c, 0, 85, 0
2, 159600, Note_on_c, 0, 73, 0
2, 159840, Note_on_c, 0, 97, 100
2, 159840, Note_on_c, 0, 85, 100
2, 160080, Note_on_c, 0, 97, 0
2, 160080, Note_on_c, 0, 85, 0
2, 160320, Note_on_c, 0, 61, 0
2, 160320, Note_on_c, 0, 97, 100
2, 160320, Note_on_c, 0, 85, 100
2, 160320, Note_on_c, 0, 73, 100
2, 160560, Note_on_c, 0, 97, 0
2, 160560, Note_on_c, 0, 85, 0
2, 160560, Note_on_c, 0, 73, 0
2, 160800, Note_on_c, 0, 97, 100
2, 160800, Note_on_c, 0, 85, 100
2, 161040, Note_on_c, 0, 97, 0
2, 161040, Note_on_c, 0, 85, 0
2, 161280, Note_on_c, 0, 100, 100
2, 161280, Note_on_c, 0, 88, 100
2, 161280, Note_on_c, 0, 75, 100
2, 161280, Note_on_c, 0, 62, 100
2, 161280, Note_on_c, 0, 103, 100
2, 161280, Note_on_c, 0, 91, 100
2, 161280, Note_on_c, 0, 67, 100
2, 161280, Note_on_c, 0, 79, 100
2, 161520, Note_on_c, 0, 100, 0
2, 161520, Note_on_c, 0, 88, 0
2, 161520, Note_on_c, 0, 75, 0
2, 161520, Note_on_c, 0, 62, 0
2, 161760, Note_on_c, 0, 97, 100
2, 162000, Note_on_c, 0, 97, 0
2, 162240, Note_on_c, 0, 97, 100
2, 162480, Note_on_c, 0, 97, 0
2, 162720, Note_on_c, 0, 99, 100
2, 162720, Note_on_c, 0, 87, 100
2, 162720, Note_on_c, 0, 74, 100
2, 162720, Note_on_c, 0, 61, 100
2, 162960, Note_on_c, 0, 99, 0
2, 162960, Note_on_c, 0, 87, 0
2, 162960, Note_on_c, 0, 74, 0
2, 162960, Note_on_c, 0, 61, 0
2, 163200, Text_t, "[play]"
2, 163200, Text_t, "[lighting (color1)]"
2, 163200, Note_on_c, 0, 97, 100
2, 163440, Note_on_c, 0, 97, 0
2, 163680, Note_on_c, 0, 97, 100
2, 163920, Note_on_c, 0, 97, 0
2, 164160, Note_on_c, 0, 98, 100
2, 164160, Note_on_c, 0, 86, 100
2, 164160, Note_on_c, 0, 73, 100
2, 164400, Note_on_c, 0, 98, 0
2, 164400, Note_on_c, 0, 86, 0
2, 164400, Note_on_c, 0, 73, 0
2, 164640, Note_on_c, 0, 97, 100
2, 164880, Note_on_c, 0, 97, 0
2, 165120, Note_on_c, 0, 106, 0
2, 165120, Note_on_c, 0, 94, 0
2, 165120, Note_on_c, 0, 70, 0
2, 165120, Note_on_c, 0, 82, 0
2, 165120, Note_on_c, 0, 103, 0
2, 165120, Note_on_c, 0, 91, 0
2, 165120, Note_on_c, 0, 67, 0
2, 165120, Note_on_c, 0, 79, 0
2, 165120, Note_on_c, 0, 97, 100
2, 165120, Note_on_c, 0, 85, 100
2, 165120, Note_on_c, 0, 73, 100
2, 165120, Note_on_c, 0, 61, 100
2, 165120, Note_on_c, 0, 105, 100
2, 165120, Note_on_c, 0, 93, 100
2, 165120, Note_on_c, 0, 69, 100
2, 165120, Note_on_c, 0, 81, 100
2, 165360, Note_on_c, 0, 97, 0
2, 165360, Note_on_c, 0, 85, 0
2, 165360, Note_on_c, 0, 73, 0
2, 165600, Note_on_c, 0, 97, 100
2, 165600, Note_on_c, 0, 85, 100
2, 165840, Note_on_c, 0, 97, 0
2, 165840, Note_on_c, 0, 85, 0
2, 166080, Note_on_c, 0, 97, 100
2, 166080, Note_on_c, 0, 85, 100
2, 166080, Note_on_c, 0, 73, 100
2, 166320, Note_on_c, 0, 97, 0
2, 166320, Note_on_c, 0, 85, 0
2, 166320, Note_on_c, 0, 73, 0
2, 166560, Note_on_c, 0, 97, 100
2, 166560, Note_on_c, 0, 85, 100
2, 166800, Note_on_c, 0, 97, 0
2, 166800, Note_on_c, 0, 85, 0
2, 167040, Note_on_c, 0, 97, 100
2, 167040, Note_on_c, 0, 85, 100
2, 167040, Note_on_c, 0, 73, 100
2, 167280, Note_on_c, 0, 97, 0
2, 167280, Note_on_c, 0, 85, 0
2, 167280, Note_on_c, 0, 73, 0
2, 167520, Note_on_c, 0, 97, 100
2, 167520, Note_on_c, 0, 85, 100
2, 167760, Note_on_c, 0, 97, 0
2, 167760, Note_on_c, 0, 85, 0
2, 168000, Note_on_c, 0, 61, 0
2, 168000, Note_on_c, 0, 97, 100
2, 168000, Note_on_c, 0, 85, 100
2, 168000, Note_on_c, 0, 73, 100
2, 168240, Note_on_c, 0, 97, 0
2, 168240, Note_on_c, 0, 85, 0
2, 168240, Note_on_c, 0, 73, 0
2, 168480, Note_on_c, 0, 97, 100
2, 168480, Note_on_c, 0, 85, 100
2, 168720, Note_on_c, 0, 97, 0
2, 168720, Note_on_c, 0, 85, 0
2, 168930, Text_t, "[chorus]"
2, 168930, Text_t, "drum_double"
2, 168960, Note_on_c, 0, 100, 100
2, 168960, Note_on_c, 0, 88, 100
2, 168960, Note_on_c, 0, 75, 100
2, 168960, Note_on_c, 0, 62, 100
2, 168960, Note_on_c, 0, 103, 100
2, 168960, Note_on_c, 0, 91, 100
2, 168960, Note_on_c, 0, 67, 100
2, 168960, Note_on_c, 0, 79, 100
2, 169200, Note_on_c, 0, 100, 0
2, 169200, Note_on_c, 0, 88, 0
2, 169200, Note_on_c, 0, 75, 0
2, 169200, Note_on_c, 0, 62, 0
2, 169440, Note_on_c, 0, 97, 100
2, 169680, Note_on_c, 0, 97, 0
2, 169920, Note_on_c, 0, 97, 100
2, 170160, Note_on_c, 0, 97, 0
2, 170400, Note_on_c, 0, 99, 100
2, 170400, Note_on_c, 0, 87, 100
2, 170400, Note_on_c, 0, 74, 100
2, 170400, Note_on_c, 0, 61, 100
2, 170640, Note_on_c, 0, 99, 0
2, 170640, Note_on_c, 0, 87, 0
2, 170640, Note_on_c, 0, 74, 0
2, 170640, Note_on_c, 0, 61, 0
2, 170880, Note_on_c, 0, 97, 100
2, 171120, Note_on_c, 0, 97, 0
2, 171360, Note_on_c, 0, 97, 100
2, 171600, Note_on_c, 0, 97, 0
2, 171840, Note_on_c, 0, 98, 100
2, 171840, Note_on_c, 0, 86, 100
2, 171840, Note_on_c, 0, 73, 100
2, 172080, Note_on_c, 0, 98, 0
2, 172080, Note_on_c, 0, 86, 0
2, 172080, Note_on_c, 0, 73, 0
2, 172320, Note_on_c, 0, 97, 100
2, 172560, Note_on_c, 0, 97, 0
2, 172800, Note_on_c, 0, 105, 0
2, 172800, Note_on_c, 0, 93, 0
2, 172800, Note_on_c, 0, 69, 0
2, 172800, Note_on_c, 0, 81, 0
2, 172800, Note_on_c, 0, 103, 0
2, 172800, Note_on_c, 0, 91, 0
2, 172800, Note_on_c, 0, 67, 0
2, 172800, Note_on_c, 0, 79, 0
2, 172800, Note_on_c, 0, 97, 100
2, 172800, Note_on_c, 0, 85, 100
2, 172800, Note_on_c, 0, 73, 100
2, 172800, Note_on_c, 0, 61, 100
2, 172800, Note_on_c, 0, 106, 100
2, 172800, Note_on_c, 0, 94, 100
2, 172800, Note_on_c, 0, 70, 100
2, 172800, Note_on_c, 0, 82, 100
2, 173040, Note_on_c, 0, 97, 0
2, 173040, Note_on_c, 0, 85, 0
2, 173040, Note_on_c, 0, 73, 0
2, 173280, Note_on_c, 0, 97, 100
2, 173280, Note_on_c, 0, 85, 100
2, 173520, Note_on_c, 0, 97, 0
2, 173520, Note_on_c, 0, 85, 0
2, 173760, Note_on_c, 0, 97, 100
2, 173760, Note_on_c, 0, 85, 100
2, 173760, Note_on_c, 0, 73, 100
2, 174000, Note_on_c, 0, 97, 0
2, 174000, Note_on_c, 0, 85, 0
2, 174000, Note_on_c, 0, 73, 0
2, 174240, Note_on_c, 0, 97, 100
2, 174240, Note_on_c, 0, 85, 100
2, 174480, Note_on_c, 0, 97, 0
2, 174480, Note_on_c, 0, 85, 0
2, 174720, Text_t, "[lighting ()]"
2, 174720, Note_on_c, 0, 97, 100
2, 174720, Note_on_c, 0, 85, 100
2, 174720, Note_on_c, 0, 73, 100
2, 174960, Note_on_c, 0, 97, 0
2, 174960, Note_on_c, 0, 85, 0
2, 174960, Note_on_c, 0, 73, 0
2, 175200, Note_on_c, 0, 97, 100
2, 175200, Note_on_c, 0, 85, 100
2, 175440, Note_on_c, 0, 97, 0
2, 175440, Note_on_c, 0, 85, 0
2, 175680, Note_on_c, 0, 61, 0
2, 175680, Note_on_c, 0, 97, 100
2, 175680, Note_on_c, 0, 85, 100
2, 175680, Note_on_c, 0, 73, 100
2, 175920, Note_on_c, 0, 97, 0
2, 175920, Note_on_c, 0, 85, 0
2, 175920, Note_on_c, 0, 73, 0
2, 176160, Note_on_c, 0, 97, 100
2, 176160, Note_on_c, 0, 85, 100
2, 176400, Note_on_c, 0, 97, 0
2, 176400, Note_on_c, 0, 85, 0
2, 176640, Note_on_c, 0, 100, 100
2, 176640, Note_on_c, 0, 88, 100
2, 176640, Note_on_c, 0, 75, 100
2, 176640, Note_on_c, 0, 62, 100
2, 176880, Note_on_c, 0, 100, 0
2, 176880, Note_on_c, 0, 88, 0
2, 176880, Note_on_c, 0, 75, 0
2, 176880, Note_on_c, 0, 62, 0
2, 177120, Note_on_c, 0, 97, 100
2, 177360, Note_on_c, 0, 97, 0
2, 177600, Note_on_c, 0, 97, 100
2, 177840, Note_on_c, 0, 97, 0
2, 178080, Note_on_c, 0, 99, 100
2, 178080, Note_on_c, 0, 87, 100
2, 178080, Note_on_c, 0, 74, 100
2, 178080, Note_on_c, 0, 61, 100
2, 178320, Note_on_c, 0, 99, 0
2, 178320, Note_on_c, 0, 87, 0
2, 178320, Note_on_c, 0, 74, 0
2, 178320, Note_on_c, 0, 61, 0
2, 178560, Note_on_c, 0, 97, 100
2, 178800, Note_on_c, 0, 97, 0
2, 179040, Note_on_c, 0, 97, 100
2, 179280, Note_on_c, 0, 97, 0
2, 179520, Note_on_c, 0, 98, 100
2, 179520, Note_on_c, 0, 86, 100
2, 179520, Note_on_c, 0, 73, 100
2, 179760, Note_on_c, 0, 98, 0
2, 179760, Note_on_c, 0, 86, 0
2, 179760, Note_on_c, 0, 73, 0
2, 180000, Note_on_c, 0, 97, 100
2, 180240, Note_on_c, 0, 97, 0
2, 180480, Note_on_c, 0, 106, 0
2, 180480, Note_on_c, 0, 94, 0
2, 180480, Note_on_c, 0, 70, 0
2, 180480, Note_on_c, 0, 82, 0
2, 180480, Note_on_c, 0, 97, 100
2, 180480, Note_on_c, 0, 85, 100
2, 180480, Note_on_c, 0, 73, 100
2, 180480, Note_on_c, 0, 61, 100
2, 180480, Note_on_c, 0, 105, 100
2, 180480, Note_on_c, 0, 93, 100
2, 180480, Note_on_c, 0, 69, 100
2, 180480, Note_on_c, 0, 81, 100
2, 180720, Note_on_c, 0, 97, 0
2, 180720, Note_on_c, 0, 85, 0
2, 180720, Note_on_c, 0, 73, 0
2, 180960, Note_on_c, 0, 97, 100
2, 180960, Note_on_c, 0, 85, 100
2, 181200, Note_on_c, 0, 97, 0
2, 181200, Note_on_c, 0, 85, 0
2, 181440, Note_on_c, 0, 97, 100
2, 181440, Note_on_c, 0, 85, 100
2, 181440, Note_on_c, 0, 73, 100
2, 181680, Note_on_c, 0, 97, 0
2, 181680, Note_on_c, 0, 85, 0
2, 181680, Note_on_c, 0, 73, 0
2, 181920, Note_on_c, 0, 97, 100
2, 181920, Note_on_c, 0, 85, 100
2, 182160, Note_on_c, 0, 97, 0
2, 182160, Note_on_c, 0, 85, 0
2, 182400, Note_on_c, 0, 97, 100
2, 182400, Note_on_c, 0, 85, 100
2, 182400, Note_on_c, 0, 73, 100
2, 182640, Note_on_c, 0, 97, 0
2, 182640, Note_on_c, 0, 85, 0
2, 182640, Note_on_c, 0, 73, 0
2, 182880, Note_on_c, 0, 97, 100
2, 182880, Note_on_c, 0, 85, 100
2, 183120, Note_on_c, 0, 97, 0
2, 183120, Note_on_c, 0, 85, 0
2, 183360, Note_on_c, 0, 61, 0
2, 183360, Note_on_c, 0, 97, 100
2, 183360, Note_on_c, 0, 85, 100
2, 183360, Note_on_c, 0, 73, 100
2, 183600, Note_on_c, 0, 97, 0
2, 183600, Note_on_c, 0, 85, 0
2, 183600, Note_on_c, 0, 73, 0
2, 183840, Note_on_c, 0, 97, 100
2, 183840, Note_on_c, 0, 85, 100
2, 184080, Note_on_c, 0, 97, 0
2, 184080, Note_on_c, 0, 85, 0
2, 184320, Note_on_c, 0, 100, 100
2, 184320, Note_on_c, 0, 88, 100
2, 184320, Note_on_c, 0, 75, 100
2, 184320, Note_on_c, 0, 62, 100
2, 184560, Note_on_c, 0, 100, 0
2, 184560, Note_on_c, 0, 88, 0
2, 184560, Note_on_c, 0, 75, 0
2, 184560, Note_on_c, 0, 62, 0
2, 184800, Note_on_c, 0, 97, 100
2, 185040, Note_on_c, 0, 97, 0
2, 185280, Note_on_c, 0, 97, 100
2, 185520, Note_on_c, 0, 97, 0
2, 185760, Note_on_c, 0, 99, 100
2, 185760, Note_on_c, 0, 87, 100
2, 185760, Note_on_c, 0, 74, 100
2, 185760, Note_on_c, 0, 61, 100
2, 186000, Note_on_c, 0, 99, 0
2, 186000, Note_on_c, 0, 87, 0
2, 186000, Note_on_c, 0, 74, 0
2, 186000, Note_on_c, 0, 61, 0
2, 186240, Text_t, "[chorus]"
2, 186240, Text_t, "[lighting ()]"
2, 186240, Note_on_c, 0, 97, 100
2, 186480, Note_on_c, 0, 97, 0
2, 186720, Note_on_c, 0, 97, 100
2, 186960, Note_on_c, 0, 97, 0
2, 187200, Note_on_c, 0, 98, 100
2, 187200, Note_on_c, 0, 86, 100
2, 187200, Note_on_c, 0, 73, 100
2, 187440, Note_on_c, 0, 98, 0
2, 187440, Note_on_c, 0, 86, 0
2, 187440, Note_on_c, 0, 73, 0
2, 187680, Note_on_c, 0, 97, 100
2, 187920, Note_on_c, 0, 97, 0
2, 188160, Note_on_c, 0, 105, 0
2, 188160, Note_on_c, 0, 93, 0
2, 188160, Note_on_c, 0, 69, 0
2, 188160, Note_on_c, 0, 81, 0
2, 188160, Note_on_c, 0, 96, 100
2, 188160, Note_on_c, 0, 98, 100
2, 188160, Note_on_c, 0, 84, 100
2, 188160, Note_on_c, 0, 72, 100
2, 188160, Note_on_c, 0, 60, 100
2, 188160, Note_on_c, 0, 106, 100
2, 188160, Note_on_c, 0, 94, 100
2, 188160, Note_on_c, 0, 70, 100
2, 188160, Note_on_c, 0, 82, 100
2, 188400, Note_on_c, 0, 96, 0
2, 188400, Note_on_c, 0, 98, 0
2, 188400, Note_on_c, 0, 84, 0
2, 188400, Note_on_c, 0, 72, 0
2, 188640, Note_on_c, 0, 96, 100
2, 188640, Note_on_c, 0, 98, 100
2, 188640, Note_on_c, 0, 84, 100
2, 188880, Note_on_c, 0, 96, 0
2, 188880, Note_on_c, 0, 98, 0
2, 188880, Note_on_c, 0, 84, 0
2, 189120, Note_on_c, 0, 96, 100
2, 189120, Note_on_c, 0, 98, 100
2, 189120, Note_on_c, 0, 84, 100
2, 189120, Note_on_c, 0, 72, 100
2, 189360, Note_on_c, 0, 96, 0
2, 189360, Note_on_c, 0, 98, 0
2, 189360, Note_on_c, 0, 84, 0
2, 189360, Note_on_c, 0, 72, 0
2, 189600, Note_on_c, 0, 96, 100
2, 189600, Note_on_c, 0, 98, 100
2, 189600, Note_on_c, 0, 84, 100
2, 189840, Note_on_c, 0, 96, 0
2, 189840, Note_on_c, 0, 98, 0
2, 189840, Note_on_c, 0, 84, 0
2, 190080, Note_on_c, 0, 96, 100
2, 190080, Note_on_c, 0, 98, 100
2, 190080, Note_on_c, 0, 84, 100
2, 190080, Note_on_c, 0, 72, 100
2, 190320, Note_on_c, 0, 96, 0
2, 190320, Note_on_c, 0, 98, 0
2, 190320, Note_on_c, 0, 84, 0
2, 190320, Note_on_c, 0, 72, 0
2, 190560, Note_on_c, 0, 96, 100
2, 190560, Note_on_c, 0, 98, 100
2, 190560, Note_on_c, 0, 84, 100
2, 190800, Note_on_c, 0, 96, 0
2, 190800, Note_on_c, 0, 98, 0
2, 190800, Note_on_c, 0, 84, 0
2, 191040, Note_on_c, 0, 60, 0
2, 191040, Note_on_c, 0, 96, 100
2, 191040, Note_on_c, 0, 98, 100
2, 191040, Note_on_c, 0, 84, 100
2, 191040, Note_on_c, 0, 72, 100
2, 191280, Note_on_c, 0, 96, 0
2, 191280, Note_on_c, 0, 98, 0
2, 191280, Note_on_c, 0, 84, 0
2, 191280, Note_on_c, 0, 72, 0
2, 191520, Note_on_c, 0, 96, 100
2, 191520, Note_on_c, 0, 98, 100
2, 191520, Note_on_c, 0, 84, 100
2, 191760, Note_on_c, 0, 96, 0
2, 191760, Note_on_c, 0, 98, 0
2, 191760, Note_on_c, 0, 84, 0
2, 192000, Note_on_c, 0, 99, 100
2, 192000, Note_on_c, 0, 87, 100
2, 192000, Note_on_c, 0, 75, 100
2, 192000, Note_on_c, 0, 62, 100
2, 192240, Note_on_c, 0, 99, 0
2, 192240, Note_on_c, 0, 87, 0
2, 192240, Note_on_c, 0, 75, 0
2, 192240, Note_on_c, 0, 62, 0
2, 192480, Note_on_c, 0, 96, 100
2, 192720, Note_on_c, 0, 96, 0
2, 192960, Note_on_c, 0, 96, 100
2, 193200, Note_on_c, 0, 96, 0
2, 193440, Note_on_c, 0, 98, 100
2, 193440, Note_on_c, 0, 86, 100
2, 193440, Note_on_c, 0, 74, 100
2, 193440, Note_on_c, 0, 61, 100
2, 193680, Note_on_c, 0, 98, 0
2, 193680, Note_on_c, 0, 86, 0
2, 193680, Note_on_c, 0, 74, 0
2, 193680, Note_on_c, 0, 61, 0
2, 193920, Note_on_c, 0, 96, 100
2, 194160, Note_on_c, 0, 96, 0
2, 194400, Note_on_c, 0, 96, 100
2, 194640, Note_on_c, 0, 96, 0
2, 194880, Note_on_c, 0, 97, 100
2, 194880, Note_on_c, 0, 85, 100
2, 194880, Note_on_c, 0, 73, 100
2, 195120, Note_on_c, 0, 97, 0
2, 195120, Note_on_c, 0, 85, 0
2, 195120, Note_on_c, 0, 73, 0
2, 195360, Note_on_c, 0, 96, 100
2, 195600, Note_on_c, 0, 96, 0
2, 195840, Note_on_c, 0, 106, 0
2, 195840, Note_on_c, 0, 94, 0
2, 195840, Note_on_c, 0, 70, 0
2, 195840, Note_on_c, 0, 82, 0
2, 195840, Note_on_c, 0, 96, 100
2, 195840, Note_on_c, 0, 98, 100
2, 195840, Note_on_c, 0, 84, 100
2, 195840, Note_on_c, 0, 72, 100
2, 195840, Note_on_c, 0, 60, 100
2, 195840, Note_on_c, 0, 105, 100
2, 195840, Note_on_c, 0, 93, 100
2, 195840, Note_on_c, 0, 69, 100
2, 195840, Note_on_c, 0, 81, 100
2, 196080, Note_on_c, 0, 96, 0
2, 196080, Note_on_c, 0, 98, 0
2, 196080, Note_on_c, 0, 84, 0
2, 196080, Note_on_c, 0, 72, 0
2, 196320, Note_on_c, 0, 96, 100
2, 196320, Note_on_c, 0, 98, 100
2, 196320, Note_on_c, 0, 84, 100
2, 196560, Note_on_c, 0, 96, 0
2, 196560, Note_on_c, 0, 98, 0
2, 196560, Note_on_c, 0, 84, 0
2, 196800, Note_on_c, 0, 96, 100
2, 196800, Note_on_c, 0, 98, 100
2, 196800, Note_on_c, 0, 84, 100
2, 196800, Note_on_c, 0, 72, 100
2, 197040, Note_on_c, 0, 96, 0
2, 197040, Note_on_c, 0, 98, 0
2, 197040, Note_on_c, 0, 84, 0
2, 197040, Note_on_c, 0, 72, 0
2, 197280, Note_on_c, 0, 96, 100
2, 197280, Note_on_c, 0, 98, 100
2, 197280, Note_on_c, 0, 84, 100
2, 197520, Note_on_c, 0, 96, 0
2, 197520, Note_on_c, 0, 98, 0
2, 197520, Note_on_c, 0, 84, 0
2, 197760, Note_on_c, 0, 96, 100
2, 197760, Note_on_c, 0, 98, 100
2, 197760, Note_on_c, 0, 84, 100
2, 197760, Note_on_c, 0, 72, 100
2, 198000, Note_on_c, 0, 96, 0
2, 198000, Note_on_c, 0, 98, 0
2, 198000, Note_on_c, 0, 84, 0
2, 198000, Note_on_c, 0, 72, 0
2, 198240, Note_on_c, 0, 96, 100
2, 198240, Note_on_c, 0, 98, 100
2, 198240, Note_on_c, 0, 84, 100
2, 198480, Note_on_c, 0, 96, 0
2, 198480, Note_on_c, 0, 98, 0
2, 198480, Note_on_c, 0, 84, 0
2, 198720, Note_on_c, 0, 60, 0
2, 198720, Note_on_c, 0, 96, 100
2, 198720, Note_on_c, 0, 98, 100
2, 198720, Note_on_c, 0, 84, 100
2, 198720, Note_on_c, 0, 72, 100
2, 198960, Note_on_c, 0, 96, 0
2, 198960, Note_on_c, 0, 98, 0
2, 198960, Note_on_c, 0, 84, 0
2, 198960, Note_on_c, 0, 72, 0
2, 199200, Note_on_c, 0, 96, 100
2, 199200, Note_on_c, 0, 98, 100
2, 199200, Note_on_c, 0, 84, 100
2, 199440, Note_on_c, 0, 96, 0
2, 199440, Note_on_c, 0, 98, 0
2, 199440, Note_on_c, 0, 84, 0
2, 199680, Note_on_c, 0, 99, 100
2, 199680, Note_on_c, 0, 87, 100
2, 199680, Note_on_c, 0, 75, 100
2, 199680, Note_on_c, 0, 62, 100
2, 199920, Note_on_c, 0, 99, 0
2, 199920, Note_on_c, 0, 87, 0
2, 199920, Note_on_c, 0, 75, 0
2, 199920, Note_on_c, 0, 62, 0
2, 200160, Note_on_c, 0, 96, 100
2, 200400, Note_on_c, 0, 96, 0
2, 200640, Note_on_c, 0, 96, 100
2, 200880, Note_on_c, 0, 96, 0
2, 201120, Note_on_c, 0, 98, 100
2, 201120, Note_on_c, 0, 86, 100
2, 201120, Note_on_c, 0, 74, 100
2, 201120, Note_on_c, 0, 61, 100
2, 201360, Note_on_c, 0, 98, 0
2, 201360, Note_on_c, 0, 86, 0
2, 201360, Note_on_c, 0, 74, 0
2, 201360, Note_on_c, 0, 61, 0
2, 201600, Note_on_c, 0, 96, 100
2, 201840, Note_on_c, 0, 96, 0
2, 202080, Note_on_c, 0, 96, 100
2, 202320, Note_on_c, 0, 96, 0
2, 202560, Note_on_c, 0, 97, 100
2, 202560, Note_on_c, 0, 85, 100
2, 202560, Note_on_c, 0, 73, 100
2, 202800, Note_on_c, 0, 97, 0
2, 202800, Note_on_c, 0, 85, 0
2, 202800, Note_on_c, 0, 73, 0
2, 203040, Note_on_c, 0, 96, 100
2, 203280, Note_on_c, 0, 96, 0
2, 203520, Note_on_c, 0, 105, 0
2, 203520, Note_on_c, 0, 93, 0
2, 203520, Note_on_c, 0, 69, 0
2, 203520, Note_on_c, 0, 81, 0
2, 203520, Note_on_c, 0, 96, 100
2, 203520, Note_on_c, 0, 98, 100
2, 203520, Note_on_c, 0, 84, 100
2, 203520, Note_on_c, 0, 72, 100
2, 203520, Note_on_c, 0, 60, 100
2, 203520, Note_on_c, 0, 106, 100
2, 203520, Note_on_c, 0, 94, 100
2, 203520, Note_on_c, 0, 70, 100
2, 203520, Note_on_c, 0, 82, 100
2, 203760, Note_on_c, 0, 96, 0
2, 203760, Note_on_c, 0, 98, 0
2, 203760, Note_on_c, 0, 84, 0
2, 203760, Note_on_c, 0, 72, 0
2, 204000, Note_on_c, 0, 96, 100
2, 204000, Note_on_c, 0, 98, 100
2, 204000, Note_on_c, 0, 84, 100
2, 204240, Note_on_c, 0, 96, 0
2, 204240, Note_on_c, 0, 98, 0
2, 204240, Note_on_c, 0, 84, 0
2, 204480, Note_on_c, 0, 96, 100
2, 204480, Note_on_c, 0, 98, 100
2, 204480, Note_on_c, 0, 84, 100
2, 204480, Note_on_c, 0, 72, 100
2, 204720, Note_on_c, 0, 96, 0
2, 204720, Note_on_c, 0, 98, 0
2, 204720, Note_on_c, 0, 84, 0
2, 204720, Note_on_c, 0, 72, 0
2, 204960, Note_on_c, 0, 96, 100
2, 204960, Note_on_c, 0, 98, 100
2, 204960, Note_on_c, 0, 84, 100
2, 205200, Note_on_c, 0, 96, 0
2, 205200, Note_on_c, 0, 98, 0
2, 205200, Note_on_c, 0, 84, 0
2, 205440, Note_on_c, 0, 96, 100
2, 205440, Note_on_c, 0, 98, 100
2, 205440, Note_on_c, 0, 84, 100
2, 205440, Note_on_c, 0, 72, 100
2, 205680, Note_on_c, 0, 96, 0
2, 205680, Note_on_c, 0, 98, 0
2, 205680, Note_on_c, 0, 84, 0
2, 205680, Note_on_c, 0, 72, 0
2, 205920, Note_on_c, 0, 96, 100
2, 205920, Note_on_c, 0, 98, 100
2, 205920, Note_on_c, 0, 84, 100
2, 206160, Note_on_c, 0, 96, 0
2, 206160, Note_on_c, 0, 98, 0
2, 206160, Note_on_c, 0, 84, 0
2, 206400, Note_on_c, 0, 60, 0
2, 206400, Note_on_c, 0, 96, 100
2, 206400, Note_on_c, 0, 98, 100
2, 206400, Note_on_c, 0, 84, 100
2, 206400, Note_on_c, 0, 72, 100
2, 206640, Note_on_c, 0, 96, 0
2, 206640, Note_on_c, 0, 98, 0
2, 206640, Note_on_c, 0, 84, 0
2, 206640, Note_on_c, 0, 72, 0
2, 206880, Note_on_c, 0, 96, 100
2, 206880, Note_on_c, 0, 98, 100
2, 206880, Note_on_c, 0, 84, 100
2, 207120, Note_on_c, 0, 96, 0
2, 207120, Note_on_c, 0, 98, 0
2, 207120, Note_on_c, 0, 84, 0
2, 207360, Note_on_c, 0, 99, 100
2, 207360, Note_on_c, 0, 87, 100
2, 207360, Note_on_c, 0, 75, 100
2, 207360, Note_on_c, 0, 62, 100
2, 207600, Note_on_c, 0, 99, 0
2, 207600, Note_on_c, 0, 87, 0
2, 207600, Note_on_c, 0, 75, 0
2, 207600, Note_on_c, 0, 62, 0
2, 207840, Note_on_c, 0, 96, 100
2, 208080, Note_on_c, 0, 96, 0
2, 208320, Note_on_c, 0, 96, 100
2, 208560, Note_on_c, 0, 96, 0
2, 208800, Note_on_c, 0, 98, 100
2, 208800, Note_on_c, 0, 86, 100
2, 208800, Note_on_c, 0, 74, 100
2, 208800, Note_on_c, 0, 61, 100
2, 209040, Note_on_c, 0, 98, 0
2, 209040, Note_on_c, 0, 86, 0
2, 209040, Note_on_c, 0, 74, 0
2, 209040, Note_on_c, 0, 61, 0
2, 209280, Note_on_c, 0, 96, 100
2, 209520, Note_on_c, 0, 96, 0
2, 209760, Note_on_c, 0, 96, 100
2, 210000, Note_on_c, 0, 96, 0
2, 210240, Note_on_c, 0, 97, 100
2, 210240, Note_on_c, 0, 85, 100
2, 210240, Note_on_c, 0, 73, 100
2, 210480, Note_on_c, 0, 97, 0
2, 210480, Note_on_c, 0, 85, 0
2, 210480, Note_on_c, 0, 73, 0
2, 210720, Note_on_c, 0, 96, 100
2, 210960, Note_on_c, 0, 96, 0
2, 211200, Note_on_c, 0, 106, 0
2, 211200, Note_on_c, 0, 94, 0
2, 211200, Note_on_c, 0, 70, 0
2, 211200, Note_on_c, 0, 82, 0
2, 211200, Note_on_c, 0, 96, 100
2, 211200, Note_on_c, 0, 98, 100
2, 211200, Note_on_c, 0, 84, 100
2, 211200, Note_on_c, 0, 72, 100
2, 211200, Note_on_c, 0, 60, 100
2, 211200, Note_on_c, 0, 105, 100
2, 211200, Note_on_c, 0, 93, 100
2, 211200, Note_on_c, 0, 69, 100
2, 211200, Note_on_c, 0, 81, 100
2, 211440, Note_on_c, 0, 96, 0
2, 211440, Note_on_c, 0, 98, 0
2, 211440, Note_on_c, 0, 84, 0
2, 211440, Note_on_c, 0, 72, 0
2, 211680, Note_on_c, 0, 96, 100
2, 211680, Note_on_c, 0, 98, 100
2, 211680, Note_on_c, 0, 84, 100
2, 211920, Note_on_c, 0, 96, 0
2, 211920, Note_on_c, 0, 98, 0
2, 211920, Note_on_c, 0, 84, 0
2, 212160, Note_on_c, 0, 96, 100
2, 212160, Note_on_c, 0, 98, 100
2, 212160, Note_on_c, 0, 84, 100
2, 212160, Note_on_c, 0, 72, 100
2, 212400, Note_on_c, 0, 96, 0
2, 212400, Note_on_c, 0, 98, 0
2, 212400, Note_on_c, 0, 84, 0
2, 212400, Note_on_c, 0, 72, 0
2, 212640, Note_on_c, 0, 96, 100
2, 212640, Note_on_c, 0, 98, 100
2, 212640, Note_on_c, 0, 84, 100
2, 212880, Note_on_c, 0, 96, 0
2, 212880, Note_on_c, 0, 98, 0
2, 212880, Note_on_c, 0, 84, 0
2, 213120, Note_on_c, 0, 96, 100
2, 213120, Note_on_c, 0, 98, 100
2, 213120, Note_on_c, 0, 84, 100
2, 213120, Note_on_c, 0, 72, 100
2, 213360, Note_on_c, 0, 96, 0
2, 213360, Note_on_c, 0, 98, 0
2, 213360, Note_on_c, 0, 84, 0
2, 213360, Note_on_c, 0, 72, 0
2, 213600, Note_on_c, 0, 96, 100
2, 213600, Note_on_c, 0, 98, 100
2, 213600, Note_on_c, 0, 84, 100
2, 213840, Note_on_c, 0, 96, 0
2, 213840, Note_on_c, 0, 98, 0
2, 213840, Note_on_c, 0, 84, 0
2, 214080, Note_on_c, 0, 60, 0
2, 214080, Note_on_c, 0, 96, 100
2, 214080, Note_on_c, 0, 98, 100
2, 214080, Note_on_c, 0, 84, 100
2, 214080, Note_on_c, 0, 72, 100
2, 214320, Note_on_c, 0, 96, 0
2, 214320, Note_on_c, 0, 98, 0
2, 214320, Note_on_c, 0, 84, 0
2, 214320, Note_on_c, 0, 72, 0
2, 214560, Note_on_c, 0, 96, 100
2, 214560, Note_on_c, 0, 98, 100
2, 214560, Note_on_c, 0, 84, 100
2, 214800, Note_on_c, 0, 96, 0
2, 214800, Note_on_c, 0, 98, 0
2, 214800, Note_on_c, 0, 84, 0
2, 215040, Note_on_c, 0, 99, 100
2, 215040, Note_on_c, 0, 87, 100
2, 215040, Note_on_c, 0, 75, 100
2, 215040, Note_on_c, 0, 62, 100
2, 215280, Note_on_c, 0, 99, 0
2, 215280, Note_on_c, 0, 87, 0
2, 215280, Note_on_c, 0, 75, 0
2, 215280, Note_on_c, 0, 62, 0
2, 215520, Note_on_c, 0, 96, 100
2, 215760, Note_on_c, 0, 96, 0
2, 216000, Note_on_c, 0, 96, 100
2, 216240, Note_on_c, 0, 96, 0
2, 216480, Note_on_c, 0, 98, 100
2, 216480, Note_on_c, 0, 86, 100
2, 216480, Note_on_c, 0, 74, 100
2, 216480, Note_on_c, 0, 61, 100
2, 216720, Note_on_c, 0, 98, 0
2, 216720, Note_on_c, 0, 86, 0
2, 216720, Note_on_c, 0, 74, 0
2, 216720, Note_on_c, 0, 61, 0
2, 216960, Note_on_c, 0, 96, 100
2, 217200, Note_on_c, 0, 96, 0
2, 217440, Note_on_c, 0, 96, 100
2, 217680, Note_on_c, 0, 96, 0
2, 217920, Note_on_c, 0, 97, 100
2, 217920, Note_on_c, 0, 85, 100
2, 217920, Note_on_c, 0, 73, 100
2, 218160, Note_on_c, 0, 97, 0
2, 218160, Note_on_c, 0, 85, 0
2, 218160, Note_on_c, 0, 73, 0
2, 218400, Note_on_c, 0, 96, 100
2, 218640, Note_on_c, 0, 96, 0
2, 218880, Note_on_c, 0, 96, 100
2, 218880, Note_on_c, 0, 98, 100
2, 218880, Note_on_c, 0, 84, 100
2, 218880, Note_on_c, 0, 86, 100
2, 218880, Note_on_c, 0, 72, 100
2, 218880, Note_on_c, 0, 60, 100
2, 218880, Note_on_c, 0, 106, 100
2, 218880, Note_on_c, 0, 94, 100
2, 218880, Note_on_c, 0, 70, 100
2, 218880, Note_on_c, 0, 82, 100
2, 219120, Note_on_c, 0, 96, 0
2, 219120, Note_on_c, 0, 98, 0
2, 219120, Note_on_c, 0, 84, 0
2, 219120, Note_on_c, 0, 86, 0
2, 219120, Note_on_c, 0, 72, 0
2, 219120, Note_on_c, 0, 60, 0
2, 219360, Note_on_c, 0, 105, 0
2, 219360, Note_on_c, 0, 93, 0
2, 219360, Note_on_c, 0, 69, 0
2, 219360, Note_on_c, 0, 81, 0
2, 219360, Note_on_c, 0, 106, 0
2, 219360, Note_on_c, 0, 94, 0
2, 219360, Note_on_c, 0, 70, 0
2, 219360, Note_on_c, 0, 82, 0
2, 230370, Text_t, "[verse]"
2, 230370, Text_t, "[idle]"
2, 241920, Note_on_c, 0, 96, 100
2, 241920, Note_on_c, 0, 84, 100
2, 241920, Note_on_c, 0, 72, 100
2, 241920, Note_on_c, 0, 60, 100
2, 241920, Note_on_c, 0, 105, 100
2, 241920, Note_on_c, 0, 93, 100
2, 241920, Note_on_c, 0, 69, 100
2, 241920, Note_on_c, 0, 81, 100
2, 242160, Note_on_c, 0, 96, 0
2, 242160, Note_on_c, 0, 84, 0
2, 242160, Note_on_c, 0, 72, 0
2, 242160, Note_on_c, 0, 60, 0
2, 242400, Note_on_c, 0, 96, 100
2, 242400, Note_on_c, 0, 84, 100
2, 242640, Note_on_c, 0, 96, 0
2, 242640, Note_on_c, 0, 84, 0
2, 242880, Note_on_c, 0, 96, 100
2, 242880, Note_on_c, 0, 84, 100
2, 243120, Note_on_c, 0, 96, 0
2, 243120, Note_on_c, 0, 84, 0
2, 243360, Note_on_c, 0, 98, 100
2, 243360, Note_on_c, 0, 86, 100
2, 243360, Note_on_c, 0, 73, 100
2, 243600, Note_on_c, 0, 98, 0
2, 243600, Note_on_c, 0, 86, 0
2, 243600, Note_on_c, 0, 73, 0
2, 243840, Note_on_c, 0, 98, 100
2, 243840, Note_on_c, 0, 86, 100
2, 244080, Note_on_c, 0, 98, 0
2, 244080, Note_on_c, 0, 86, 0
2, 244320, Note_on_c, 0, 98, 100
2, 244320, Note_on_c, 0, 86, 100
2, 244560, Note_on_c, 0, 98, 0
2, 244560, Note_on_c, 0, 86, 0
2, 244800, Note_on_c, 0, 97, 100
2, 244800, Note_on_c, 0, 85, 100
2, 244800, Note_on_c, 0, 72, 100
2, 244800, Note_on_c, 0, 61, 100
2, 245040, Note_on_c, 0, 97, 0
2, 245040, Note_on_c, 0, 85, 0
2, 245040, Note_on_c, 0, 72, 0
2, 245040, Note_on_c, 0, 61, 0
2, 245280, Note_on_c, 0, 97, 100
2, 245280, Note_on_c, 0, 85, 100
2, 245520, Note_on_c, 0, 97, 0
2, 245520, Note_on_c, 0, 85, 0
2, 245760, Note_on_c, 0, 97, 100
2, 245760, Note_on_c, 0, 85, 100
2, 246000, Note_on_c, 0, 97, 0
2, 246000, Note_on_c, 0, 85, 0
2, 246240, Note_on_c, 0, 99, 100
2, 246240, Note_on_c, 0, 87, 100
2, 246240, Note_on_c, 0, 74, 100
2, 246480, Note_on_c, 0, 99, 0
2, 246480, Note_on_c, 0, 87, 0
2, 246480, Note_on_c, 0, 74, 0
2, 246720, Note_on_c, 0, 99, 100
2, 246720, Note_on_c, 0, 87, 100
2, 246960, Note_on_c, 0, 99, 0
2, 246960, Note_on_c, 0, 87, 0
2, 247200, Note_on_c, 0, 99, 100
2, 247200, Note_on_c, 0, 87, 100
2, 247440, Note_on_c, 0, 99, 0
2, 247440, Note_on_c, 0, 87, 0
2, 247680, Text_t, "[verse]"
2, 247680, Text_t, "[lighting (blackout)]"
2, 247680, Note_on_c, 0, 98, 100
2, 247680, Note_on_c, 0, 86, 100
2, 247680, Note_on_c, 0, 73, 100
2, 247680, Note_on_c, 0, 61, 100
2, 247920, Note_on_c, 0, 98, 0
2, 247920, Note_on_c, 0, 86, 0
2, 247920, Note_on_c, 0, 73, 0
2, 247920, Note_on_c, 0, 61, 0
2, 248160, Note_on_c, 0, 98, 100
2, 248160, Note_on_c, 0, 86, 100
2, 248400, Note_on_c, 0, 98, 0
2, 248400, Note_on_c, 0, 86, 0
2, 248640, Note_on_c, 0, 98, 100
2, 248640, Note_on_c, 0, 86, 100
2, 248880, Note_on_c, 0, 98, 0
2, 248880, Note_on_c, 0, 86, 0
2, 249120, Note_on_c, 0, 100, 100
2, 249120, Note_on_c, 0, 88, 100
2, 249120, Note_on_c, 0, 75, 100
2, 249360, Note_on_c, 0, 100, 0
2, 249360, Note_on_c, 0, 88, 0
2, 249360, Note_on_c, 0, 75, 0
2, 249600, Note_on_c, 0, 100, 100
2, 249600, Note_on_c, 0, 88, 100
2, 249840, Note_on_c, 0, 100, 0
2, 249840, Note_on_c, 0, 88, 0
2, 250080, Note_on_c, 0, 100, 100
2, 250080, Note_on_c, 0, 88, 100
2, 250320, Note_on_c, 0, 100, 0
2, 250320, Note_on_c, 0, 88, 0
2, 250560, Note_on_c, 0, 99, 100
2, 250560, Note_on_c, 0, 87, 100
2, 250560, Note_on_c, 0, 74, 100
2, 250560, Note_on_c, 0, 62, 100
2, 250800, Note_on_c, 0, 99, 0
2, 250800, Note_on_c, 0, 87, 0
2, 250800, Note_on_c, 0, 74, 0
2, 250800, Note_on_c, 0, 62, 0
2, 251040, Note_on_c, 0, 99, 100
2, 251040, Note_on_c, 0, 87, 100
2, 251280, Note_on_c, 0, 99, 0
2, 251280, Note_on_c, 0, 87, 0
2, 251520, Note_on_c, 0, 99, 100
2, 251520, Note_on_c, 0, 87, 100
2, 251760, Note_on_c, 0, 99, 0
2, 251760, Note_on_c, 0, 87, 0
2, 252000, Note_on_c, 0, 100, 100
2, 252000, Note_on_c, 0, 88, 100
2, 252000, Note_on_c, 0, 75, 100
2, 252240, Note_on_c, 0, 100, 0
2, 252240, Note_on_c, 0, 88, 0
2, 252240, Note_on_c, 0, 75, 0
2, 252480, Note_on_c, 0, 100, 100
2, 252480, Note_on_c, 0, 88, 100
2, 252720, Note_on_c, 0, 100, 0
2, 252720, Note_on_c, 0, 88, 0
2, 252960, Note_on_c, 0, 100, 100
2, 252960, Note_on_c, 0, 88, 100
2, 253200, Note_on_c, 0, 100, 0
2, 253200, Note_on_c, 0, 88, 0
2, 253410, Text_t, "[play]"
2, 253440, Note_on_c, 0, 105, 0
2, 253440, Note_on_c, 0, 93, 0
2, 253440, Note_on_c, 0, 69, 0
2, 253440, Note_on_c, 0, 81, 0
2, 253440, Note_on_c, 0, 96, 100
2, 253440, Note_on_c, 0, 84, 100
2, 253440, Note_on_c, 0, 72, 100
2, 253440, Note_on_c, 0, 60, 100
2, 253440, Note_on_c, 0, 106, 100
2, 253440, Note_on_c, 0, 94, 100
2, 253440, Note_on_c, 0, 70, 100
2, 253440, Note_on_c, 0, 82, 100
2, 253680, Note_on_c, 0, 96, 0
2, 253680, Note_on_c, 0, 84, 0
2, 253680, Note_on_c, 0, 72, 0
2, 253680, Note_on_c, 0, 60, 0
2, 253920, Note_on_c, 0, 96, 100
2, 253920, Note_on_c, 0, 84, 100
2, 254160, Note_on_c, 0, 96, 0
2, 254160, Note_on_c, 0, 84, 0
2, 254400, Note_on_c, 0, 96, 100
2, 254400, Note_on_c, 0, 84, 100
2, 254640, Note_on_c, 0, 96, 0
2, 254640, Note_on_c, 0, 84, 0
2, 254880, Note_on_c, 0, 98, 100
2, 254880, Note_on_c, 0, 86, 100
2, 254880, Note_on_c, 0, 73, 100
2, 255120, Note_on_c, 0, 98, 0
2, 255120, Note_on_c, 0, 86, 0
2, 255120, Note_on_c, 0, 73, 0
2, 255360, Note_on_c, 0, 98, 100
2, 255360, Note_on_c, 0, 86, 100
2, 255600, Note_on_c, 0, 98, 0
2, 255600, Note_on_c, 0, 86, 0
2, 255840, Note_on_c, 0, 98, 100
2, 255840, Note_on_c, 0, 86, 100
2, 256080, Note_on_c, 0, 98, 0
2, 256080, Note_on_c, 0, 86, 0
2, 256320, Note_on_c, 0, 97, 100
2, 256320, Note_on_c, 0, 85, 100
2, 256320, Note_on_c, 0, 72, 100
2, 256320, Note_on_c, 0, 61, 100
2, 256560, Note_on_c, 0, 97, 0
2, 256560, Note_on_c, 0, 85, 0
2, 256560, Note_on_c, 0, 72, 0
2, 256560, Note_on_c, 0, 61, 0
2, 256800, Note_on_c, 0, 97, 100
2, 256800, Note_on_c, 0, 85, 100
2, 257040, Note_on_c, 0, 97, 0
2, 257040, Note_on_c, 0, 85, 0
2, 257280, Note_on_c, 0, 97, 100
2, 257280, Note_on_c, 0, 85, 100
2, 257520, Note_on_c, 0, 97, 0
2, 257520, Note_on_c, 0, 85, 0
2, 257760, Note_on_c, 0, 99, 100
2, 257760, Note_on_c, 0, 87, 100
2, 257760, Note_on_c, 0, 74, 100
2, 258000, Note_on_c, 0, 99, 0
2, 258000, Note_on_c, 0, 87, 0
2, 258000, Note_on_c, 0, 74, 0
2, 258240, Note_on_c, 0, 99, 100
2, 258240, Note_on_c, 0, 87, 100
2, 258480, Note_on_c, 0, 99, 0
2, 258480, Note_on_c, 0, 87, 0
2, 258720, Note_on_c, 0, 99, 100
2, 258720, Note_on_c, 0, 87, 100
2, 258960, Note_on_c, 0, 99, 0
2, 258960, Note_on_c, 0, 87, 0
2, 259200, Note_on_c, 0, 98, 100
2, 259200, Note_on_c, 0, 86, 100
2, 259200, Note_on_c, 0, 73, 100
2, 259200, Note_on_c, 0, 61, 100
2, 259440, Note_on_c, 0, 98, 0
2, 259440, Note_on_c, 0, 86, 0
2, 259440, Note_on_c, 0, 73, 0
2, 259440, Note_on_c, 0, 61, 0
2, 259680, Note_on_c, 0, 98, 100
2, 259680, Note_on_c, 0, 86, 100
2, 259920, Note_on_c, 0, 98, 0
2, 259920, Note_on_c, 0, 86, 0
2, 260160, Note_on_c, 0, 98, 100
2, 260160, Note_on_c, 0, 86, 100
2, 260400, Note_on_c, 0, 98, 0
2, 260400, Note_on_c, 0, 86, 0
2, 260640, Note_on_c, 0, 100, 100
2, 260640, Note_on_c, 0, 88, 100
2, 260640, Note_on_c, 0, 75, 100
2, 260880, Note_on_c, 0, 100, 0
2, 260880, Note_on_c, 0, 88, 0
2, 260880, Note_on_c, 0, 75, 0
2, 261120, Note_on_c, 0, 100, 100
2, 261120, Note_on_c, 0, 88, 100
2, 261360, Note_on_c, 0, 100, 0
2, 261360, Note_on_c, 0, 88, 0
2, 261600, Note_on_c, 0, 100, 100
2, 261600, Note_on_c, 0, 88, 100
2, 261840, Note_on_c, 0, 100, 0
2, 261840, Note_on_c, 0, 88, 0
2, 262080, Note_on_c, 0, 99, 100
2, 262080, Note_on_c, 0, 87, 100
2, 262080, Note_on_c, 0, 74, 100
2, 262080, Note_on_c, 0, 62, 100
2, 262320, Note_on_c, 0, 99, 0
2, 262320, Note_on_c, 0, 87, 0
2, 262320, Note_on_c, 0, 74, 0
2, 262320, Note_on_c, 0, 62, 0
2, 262560, Note_on_c, 0, 99, 100
2, 262560, Note_on_c, 0, 87, 100
2, 262800, Note_on_c, 0, 99, 0
2, 262800, Note_on_c, 0, 87, 0
2, 263040, Note_on_c, 0, 99, 100
2, 263040, Note_on_c, 0, 87, 100
2, 263280, Note_on_c, 0, 99, 0
2, 263280, Note_on_c, 0, 87, 0
2, 263520, Note_on_c, 0, 100, 100
2, 263520, Note_on_c, 0, 88, 100
2, 263520, Note_on_c, 0, 75, 100
2, 263760, Note_on_c, 0, 100, 0
2, 263760, Note_on_c, 0, 88, 0
2, 263760, Note_on_c, 0, 75, 0
2, 264000, Note_on_c, 0, 100, 100
2, 264000, Note_on_c, 0, 88, 100
2, 264240, Note_on_c, 0, 100, 0
2, 264240, Note_on_c, 0, 88, 0
2, 264480, Note_on_c, 0, 100, 100
2, 264480, Note_on_c, 0, 88, 100
2, 264720, Note_on_c, 0, 100, 0
2, 264720, Note_on_c, 0, 88, 0
2, 264930, Text_t, "drum_allbeat"
2, 264960, Note_on_c, 0, 106, 0
2, 264960, Note_on_c, 0, 94, 0
2, 264960, Note_on_c, 0, 70, 0
2, 264960, Note_on_c, 0, 82, 0
2, 264960, Note_on_c, 0, 99, 100
2, 264960, Note_on_c, 0, 87, 100
2, 264960, Note_on_c, 0, 75, 100
2, 264960, Note_on_c, 0, 62, 100
2, 264960, Note_on_c, 0, 105, 100
2, 264960, Note_on_c, 0, 93, 100
2, 264960, Note_on_c, 0, 69, 100
2, 264960, Note_on_c, 0, 81, 100
2, 265200, Note_on_c, 0, 99, 0
2, 265200, Note_on_c, 0, 87, 0
2, 265200, Note_on_c, 0, 75, 0
2, 265200, Note_on_c, 0, 62, 0
2, 265920, Note_on_c, 0, 96, 100
2, 265920, Note_on_c, 0, 84, 100
2, 265920, Note_on_c, 0, 72, 100
2, 266160, Note_on_c, 0, 96, 0
2, 266160, Note_on_c, 0, 84, 0
2, 266160, Note_on_c, 0, 72, 0
2, 266400, Note_on_c, 0, 96, 100
2, 266400, Note_on_c, 0, 84, 100
2, 266640, Note_on_c, 0, 96, 0
2, 266640, Note_on_c, 0, 84, 0
2, 266880, Note_on_c, 0, 96, 100
2, 266880, Note_on_c, 0, 98, 100
2, 266880, Note_on_c, 0, 84, 100
2, 266880, Note_on_c, 0, 86, 100
2, 266880, Note_on_c, 0, 73, 100
2, 266880, Note_on_c, 0, 60, 100
2, 267120, Note_on_c, 0, 96, 0
2, 267120, Note_on_c, 0, 98, 0
2, 267120, Note_on_c, 0, 84, 0
2, 267120, Note_on_c, 0, 86, 0
2, 267120, Note_on_c, 0, 73, 0
2, 267120, Note_on_c, 0, 60, 0
2, 267840, Note_on_c, 0, 97, 100
2, 267840, Note_on_c, 0, 98, 100
2, 267840, Note_on_c, 0, 85, 100
2, 267840, Note_on_c, 0, 86, 100
2, 267840, Note_on_c, 0, 74, 100
2, 267840, Note_on_c, 0, 61, 100
2, 268080, Note_on_c, 0, 97, 0
2, 268080, Note_on_c, 0, 98, 0
2, 268080, Note_on_c, 0, 85, 0
2, 268080, Note_on_c, 0, 86, 0
2, 268080, Note_on_c, 0, 74, 0
2, 268080, Note_on_c, 0, 61, 0
2, 268800, Note_on_c, 0, 96, 100
2, 268800, Note_on_c, 0, 84, 100
2, 268800, Note_on_c, 0, 72, 100
2, 269040, Note_on_c, 0, 96, 0
2, 269040, Note_on_c, 0, 84, 0
2, 269040, Note_on_c, 0, 72, 0
2, 269280, Note_on_c, 0, 96, 100
2, 269280, Note_on_c, 0, 84, 100
2, 269520, Note_on_c, 0, 96, 0
2, 269520, Note_on_c, 0, 84, 0
2, 269760, Note_on_c, 0, 96, 100
2, 269760, Note_on_c, 0, 98, 100
2, 269760, Note_on_c, 0, 84, 100
2, 269760, Note_on_c, 0, 86, 100
2, 269760, Note_on_c, 0, 73, 100
2, 269760, Note_on_c, 0, 60, 100
2, 270000, Note_on_c, 0, 96, 0
2, 270000, Note_on_c, 0, 98, 0
2, 270000, Note_on_c, 0, 84, 0
2, 270000, Note_on_c, 0, 86, 0
2, 270000, Note_on_c, 0, 73, 0
2, 270000, Note_on_c, 0, 60, 0
2, 270720, Text_t, "[play]"
2, 270720, Text_t, "[lighting (color2)]"
2, 270720, Note_on_c, 0, 97, 100
2, 270720, Note_on_c, 0, 98, 100
2, 270720, Note_on_c, 0, 85, 100
2, 270720, Note_on_c, 0, 86, 100
2, 270720, Note_on_c, 0, 74, 100
2, 270720, Note_on_c, 0, 61, 100
2, 270960, Note_on_c, 0, 97, 0
2, 270960, Note_on_c, 0, 98, 0
2, 270960, Note_on_c, 0, 85, 0
2, 270960, Note_on_c, 0, 86, 0
2, 270960, Note_on_c, 0, 74, 0
2, 270960, Note_on_c, 0, 61, 0
2, 271680, Note_on_c, 0, 96, 100
2, 271680, Note_on_c, 0, 84, 100
2, 271680, Note_on_c, 0, 72, 100
2, 271920, Note_on_c, 0, 96, 0
2, 271920, Note_on_c, 0, 84, 0
2, 271920, Note_on_c, 0, 72, 0
2, 272160, Note_on_c, 0, 96, 100
2, 272160, Note_on_c, 0, 84, 100
2, 272400, Note_on_c, 0, 96, 0
2, 272400, Note_on_c, 0, 84, 0
2, 272640, Note_on_c, 0, 99, 100
2, 272640, Note_on_c, 0, 98, 100
2, 272640, Note_on_c, 0, 86, 100
2, 272640, Note_on_c, 0, 74, 100
2, 272640, Note_on_c, 0, 61, 100
2, 272640, Note_on_c, 0, 106, 100
2, 272640, Note_on_c, 0, 94, 100
2, 272640, Note_on_c, 0, 70, 100
2, 272640, Note_on_c, 0, 82, 100
2, 272880, Note_on_c, 0, 99, 0
2, 272880, Note_on_c, 0, 98, 0
2, 272880, Note_on_c, 0, 86, 0
2, 272880, Note_on_c, 0, 74, 0
2, 274080, Note_on_c, 0, 100, 100
2, 274080, Note_on_c, 0, 99, 100
2, 274080, Note_on_c, 0, 87, 100
2, 274080, Note_on_c, 0, 75, 100
2, 274320, Note_on_c, 0, 100, 0
2, 274320, Note_on_c, 0, 99, 0
2, 274320, Note_on_c, 0, 87, 0
2, 274320, Note_on_c, 0, 75, 0
2, 275520, Note_on_c, 0, 61, 0
2, 275520, Note_on_c, 0, 99, 100
2, 275520, Note_on_c, 0, 97, 100
2, 275520, Note_on_c, 0, 85, 100
2, 275520, Note_on_c, 0, 73, 100
2, 275760, Note_on_c, 0, 99, 0
2, 275760, Note_on_c, 0, 97, 0
2, 275760, Note_on_c, 0, 85, 0
2, 275760, Note_on_c, 0, 73, 0
2, 276450, Text_t, "drum_normal"
2, 276480, Note_on_c, 0, 105, 0
2, 276480, Note_on_c, 0, 93, 0
2, 276480, Note_on_c, 0, 69, 0
2, 276480, Note_on_c, 0, 81, 0
2, 276480, Note_on_c, 0, 99, 100
2, 276480, Note_on_c, 0, 87, 100
2, 276480, Note_on_c, 0, 75, 100
2, 276480, Note_on_c, 0, 62, 100
2, 276720, Note_on_c, 0, 99, 0
2, 276720, Note_on_c, 0, 87, 0
2, 276720, Note_on_c, 0, 75, 0
2, 276720, Note_on_c, 0, 62, 0
2, 277440, Note_on_c, 0, 96, 100
2, 277440, Note_on_c, 0, 84, 100
2, 277440, Note_on_c, 0, 72, 100
2, 277680, Note_on_c, 0, 96, 0
2, 277680, Note_on_c, 0, 84, 0
2, 277680, Note_on_c, 0, 72, 0
2, 277920, Note_on_c, 0, 96, 100
2, 277920, Note_on_c, 0, 84, 100
2, 278160, Note_on_c, 0, 96, 0
2, 278160, Note_on_c, 0, 84, 0
2, 278400, Note_on_c, 0, 96, 100
2, 278400, Note_on_c, 0, 98, 100
2, 278400, Note_on_c, 0, 84, 100
2, 278400, Note_on_c, 0, 86, 100
2, 278400, Note_on_c, 0, 73, 100
2, 278400, Note_on_c, 0, 60, 100
2, 278640, Note_on_c, 0, 96, 0
2, 278640, Note_on_c, 0, 98, 0
2, 278640, Note_on_c, 0, 84, 0
2, 278640, Note_on_c, 0, 86, 0
2, 278640, Note_on_c, 0, 73, 0
2, 278640, Note_on_c, 0, 60, 0
2, 279360, Note_on_c, 0, 97, 100
2, 279360, Note_on_c, 0, 98, 100
2, 279360, Note_on_c, 0, 85, 100
2, 279360, Note_on_c, 0, 86, 100
2, 279360, Note_on_c, 0, 74, 100
2, 279360, Note_on_c, 0, 61, 100
2, 279600, Note_on_c, 0, 97, 0
2, 279600, Note_on_c, 0, 98, 0
2, 279600, Note_on_c, 0, 85, 0
2, 279600, Note_on_c, 0, 86, 0
2, 279600, Note_on_c, 0, 74, 0
2, 279600, Note_on_c, 0, 61, 0
2, 280320, Note_on_c, 0, 96, 100
2, 280320, Note_on_c, 0, 84, 100
2, 280320, Note_on_c, 0, 72, 100
2, 280560, Note_on_c, 0, 96, 0
2, 280560, Note_on_c, 0, 84, 0
2, 280560, Note_on_c, 0, 72, 0
2, 280800, Note_on_c, 0, 96, 100
2, 280800, Note_on_c, 0, 84, 100
2, 281040, Note_on_c, 0, 96, 0
2, 281040, Note_on_c, 0, 84, 0
2, 281280, Note_on_c, 0, 96, 100
2, 281280, Note_on_c, 0, 98, 100
2, 281280, Note_on_c, 0, 84, 100
2, 281280, Note_on_c, 0, 86, 100
2, 281280, Note_on_c, 0, 73, 100
2, 281280, Note_on_c, 0, 60, 100
2, 281520, Note_on_c, 0, 96, 0
2, 281520, Note_on_c, 0, 98, 0
2, 281520, Note_on_c, 0, 84, 0
2, 281520, Note_on_c, 0, 86, 0
2, 281520, Note_on_c, 0, 73, 0
2, 281520, Note_on_c, 0, 60, 0
2, 282240, Text_t, "[lighting ()]"
2, 282240, Note_on_c, 0, 97, 100
2, 282240, Note_on_c, 0, 98, 100
2, 282240, Note_on_c, 0, 85, 100
2, 282240, Note_on_c, 0, 86, 100
2, 282240, Note_on_c, 0, 74, 100
2, 282240, Note_on_c, 0, 61, 100
2, 282480, Note_on_c, 0, 97, 0
2, 282480, Note_on_c, 0, 98, 0
2, 282480, Note_on_c, 0, 85, 0
2, 282480, Note_on_c, 0, 86, 0
2, 282480, Note_on_c, 0, 74, 0
2, 282480, Note_on_c, 0, 61, 0
2, 283200, Note_on_c, 0, 96, 100
2, 283200, Note_on_c, 0, 84, 100
2, 283200, Note_on_c, 0, 72, 100
2, 283440, Note_on_c, 0, 96, 0
2, 283440, Note_on_c, 0, 84, 0
2, 283440, Note_on_c, 0, 72, 0
2, 283680, Note_on_c, 0, 96, 100
2, 283680, Note_on_c, 0, 84, 100
2, 283920, Note_on_c, 0, 96, 0
2, 283920, Note_on_c, 0, 84, 0
2, 284160, Note_on_c, 0, 99, 100
2, 284160, Note_on_c, 0, 98, 100
2, 284160, Note_on_c, 0, 86, 100
2, 284160, Note_on_c, 0, 74, 100
2, 284160, Note_on_c, 0, 61, 100
2, 284160, Note_on_c, 0, 105, 100
2, 284160, Note_on_c, 0, 93, 100
2, 284160, Note_on_c, 0, 69, 100
2, 284160, Note_on_c, 0, 81, 100
2, 284400, Note_on_c, 0, 99, 0
2, 284400, Note_on_c, 0, 98, 0
2, 284400, Note_on_c, 0, 86, 0
2, 284400, Note_on_c, 0, 74, 0
2, 285600, Note_on_c, 0, 100, 100
2, 285600, Note_on_c, 0, 99, 100
2, 285600, Note_on_c, 0, 87, 100
2, 285600, Note_on_c, 0, 75, 100
2, 285840, Note_on_c, 0, 100, 0
2, 285840, Note_on_c, 0, 99, 0
2, 285840, Note_on_c, 0, 87, 0
2, 285840, Note_on_c, 0, 75, 0
2, 287040, Note_on_c, 0, 61, 0
2, 287040, Note_on_c, 0, 99, 100
2, 287040, Note_on_c, 0, 97, 100
2, 287040, Note_on_c, 0, 85, 100
2, 287040, Note_on_c, 0, 73, 100
2, 287280, Note_on_c, 0, 99, 0
2, 287280, Note_on_c, 0, 97, 0
2, 287280, Note_on_c, 0, 85, 0
2, 287280, Note_on_c, 0, 73, 0
2, 288000, Note_on_c, 0, 106, 0
2, 288000, Note_on_c, 0, 94, 0
2, 288000, Note_on_c, 0, 70, 0
2, 288000, Note_on_c, 0, 82, 0
2, 288000, Note_on_c, 0, 99, 100
2, 288000, Note_on_c, 0, 87, 100
2, 288000, Note_on_c, 0, 75, 100
2, 288000, Note_on_c, 0, 62, 100
2, 288240, Note_on_c, 0, 99, 0
2, 288240, Note_on_c, 0, 87, 0
2, 288240, Note_on_c, 0, 75, 0
2, 288240, Note_on_c, 0, 62, 0
2, 288960, Note_on_c, 0, 96, 100
2, 288960, Note_on_c, 0, 84, 100
2, 288960, Note_on_c, 0, 72, 100
2, 289200, Note_on_c, 0, 96, 0
2, 289200, Note_on_c, 0, 84, 0
2, 289200, Note_on_c, 0, 72, 0
2, 289440, Note_on_c, 0, 96, 100
2, 289440, Note_on_c, 0, 84, 100
2, 289680, Note_on_c, 0, 96, 0
2, 289680, Note_on_c, 0, 84, 0
2, 289920, Note_on_c, 0, 96, 100
2, 289920, Note_on_c, 0, 98, 100
2, 289920, Note_on_c, 0, 84, 100
2, 289920, Note_on_c, 0, 86, 100
2, 289920, Note_on_c, 0, 73, 100
2, 289920, Note_on_c, 0, 60, 100
2, 290160, Note_on_c, 0, 96, 0
2, 290160, Note_on_c, 0, 98, 0
2, 290160, Note_on_c, 0, 84, 0
2, 290160, Note_on_c, 0, 86, 0
2, 290160, Note_on_c, 0, 73, 0
2, 290160, Note_on_c, 0, 60, 0
2, 290880, Note_on_c, 0, 97, 100
2, 290880, Note_on_c, 0, 98, 100
2, 290880, Note_on_c, 0, 85, 100
2, 290880, Note_on_c, 0, 86, 100
2, 290880, Note_on_c, 0, 74, 100
2, 290880, Note_on_c, 0, 61, 100
2, 291120, Note_on_c, 0, 97, 0
2, 291120, Note_on_c, 0, 98, 0
2, 291120, Note_on_c, 0, 85, 0
2, 291120, Note_on_c, 0, 86, 0
2, 291120, Note_on_c, 0, 74, 0
2, 291120, Note_on_c, 0, 61, 0
2, 291840, Note_on_c, 0, 96, 100
2, 291840, Note_on_c, 0, 84, 100
2, 291840, Note_on_c, 0, 72, 100
2, 292080, Note_on_c, 0, 96, 0
2, 292080, Note_on_c, 0, 84, 0
2, 292080, Note_on_c, 0, 72, 0
2, 292320, Note_on_c, 0, 96, 100
2, 292320, Note_on_c, 0, 84, 100
2, 292560, Note_on_c, 0, 96, 0
2, 292560, Note_on_c, 0, 84, 0
2, 292800, Note_on_c, 0, 96, 100
2, 292800, Note_on_c, 0, 98, 100
2, 292800, Note_on_c, 0, 84, 100
2, 292800, Note_on_c, 0, 86, 100
2, 292800, Note_on_c, 0, 73, 100
2, 292800, Note_on_c, 0, 60, 100
2, 293040, Note_on_c, 0, 96, 0
2, 293040, Note_on_c, 0, 98, 0
2, 293040, Note_on_c, 0, 84, 0
2, 293040, Note_on_c, 0, 86, 0
2, 293040, Note_on_c, 0, 73, 0
2, 293040, Note_on_c, 0, 60, 0
2, 293760, Text_t, "drum_normal"
2, 293760, Note_on_c, 0, 97, 100
2, 293760, Note_on_c, 0, 98, 100
2, 293760, Note_on_c, 0, 85, 100
2, 293760, Note_on_c, 0, 86, 100
2, 293760, Note_on_c, 0, 74, 100
2, 293760, Note_on_c, 0, 61, 100
2, 294000, Note_on_c, 0, 97, 0
2, 294000, Note_on_c, 0, 98, 0
2, 294000, Note_on_c, 0, 85, 0
2, 294000, Note_on_c, 0, 86, 0
2, 294000, Note_on_c, 0, 74, 0
2, 294000, Note_on_c, 0, 61, 0
2, 294720, Note_on_c, 0, 96, 100
2, 294720, Note_on_c, 0, 84, 100
2, 294720, Note_on_c, 0, 72, 100
2, 294960, Note_on_c, 0, 96, 0
2, 294960, Note_on_c, 0, 84, 0
2, 294960, Note_on_c, 0, 72, 0
2, 295200, Note_on_c, 0, 96, 100
2, 295200, Note_on_c, 0, 84, 100
2, 295440, Note_on_c, 0, 96, 0
2, 295440, Note_on_c, 0, 84, 0
2, 295680, Note_on_c, 0, 99, 100
2, 295680, Note_on_c, 0, 98, 100
2, 295680, Note_on_c, 0, 86, 100
2, 295680, Note_on_c, 0, 74, 100
2, 295680, Note_on_c, 0, 61, 100
2, 295680, Note_on_c, 0, 106, 100
2, 295680, Note_on_c, 0, 103, 100
2, 295680, Note_on_c, 0, 94, 100
2, 295680, Note_on_c, 0, 91, 100
2, 295680, Note_on_c, 0, 70, 100
2, 295680, Note_on_c, 0, 67, 100
2, 295680, Note_on_c, 0, 82, 100
2, 295680, Note_on_c, 0, 79, 100
2, 295920, Note_on_c, 0, 99, 0
2, 295920, Note_on_c, 0, 98, 0
2, 295920, Note_on_c, 0, 86, 0
2, 295920, Note_on_c, 0, 74, 0
2, 297120, Note_on_c, 0, 100, 100
2, 297120, Note_on_c, 0, 99, 100
2, 297120, Note_on_c, 0, 87, 100
2, 297120, Note_on_c, 0, 75, 100
2, 297360, Note_on_c, 0, 100, 0
2, 297360, Note_on_c, 0, 99, 0
2, 297360, Note_on_c, 0, 87, 0
2, 297360, Note_on_c, 0, 75, 0
2, 298560, Note_on_c, 0, 61, 0
2, 298560, Note_on_c, 0, 99, 100
2, 298560, Note_on_c, 0, 97, 100
2, 298560, Note_on_c, 0, 85, 100
2, 298560, Note_on_c, 0, 73, 100
2, 298800, Note_on_c, 0, 99, 0
2, 298800, Note_on_c, 0, 97, 0
2, 298800, Note_on_c, 0, 85, 0
2, 298800, Note_on_c, 0, 73, 0
2, 299520, Note_on_c, 0, 105, 0
2, 299520, Note_on_c, 0, 93, 0
2, 299520, Note_on_c, 0, 69, 0
2, 299520, Note_on_c, 0, 81, 0
2, 299520, Note_on_c, 0, 99, 100
2, 299520, Note_on_c, 0, 87, 100
2, 299520, Note_on_c, 0, 75, 100
2, 299520, Note_on_c, 0, 62, 100
2, 299760, Note_on_c, 0, 99, 0
2, 299760, Note_on_c, 0, 87, 0
2, 299760, Note_on_c, 0, 75, 0
2, 299760, Note_on_c, 0, 62, 0
2, 300000, Note_on_c, 0, 103, 0
2, 300000, Note_on_c, 0, 91, 0
2, 300000, Note_on_c, 0, 67, 0
2, 300000, Note_on_c, 0, 79, 0
2, 300480, Note_on_c, 0, 96, 100
2, 300480, Note_on_c, 0, 84, 100
2, 300480, Note_on_c, 0, 72, 100
2, 300720, Note_on_c, 0, 96, 0
2, 300720, Note_on_c, 0, 84, 0
2, 300720, Note_on_c, 0, 72, 0
2, 300960, Note_on_c, 0, 96, 100
2, 300960, Note_on_c, 0, 84, 100
2, 301200, Note_on_c, 0, 96, 0
2, 301200, Note_on_c, 0, 84, 0
2, 301440, Note_on_c, 0, 96, 100
2, 301440, Note_on_c, 0, 98, 100
2, 301440, Note_on_c, 0, 84, 100
2, 301440, Note_on_c, 0, 86, 100
2, 301440, Note_on_c, 0, 73, 100
2, 301440, Note_on_c, 0, 60, 100
2, 301680, Note_on_c, 0, 96, 0
2, 301680, Note_on_c, 0, 98, 0
2, 301680, Note_on_c, 0, 84, 0
2, 301680, Note_on_c, 0, 86, 0
2, 301680, Note_on_c, 0, 73, 0
2, 301680, Note_on_c, 0, 60, 0
2, 302400, Note_on_c, 0, 97, 100
2, 302400, Note_on_c, 0, 98, 100
2, 302400, Note_on_c, 0, 85, 100
2, 302400, Note_on_c, 0, 86, 100
2, 302400, Note_on_c, 0, 74, 100
2, 302400, Note_on_c, 0, 61, 100
2, 302640, Note_on_c, 0, 97, 0
2, 302640, Note_on_c, 0, 98, 0
2, 302640, Note_on_c, 0, 85, 0
2, 302640, Note_on_c, 0, 86, 0
2, 302640, Note_on_c, 0, 74, 0
2, 302640, Note_on_c, 0, 61, 0
2, 303360, Note_on_c, 0, 96, 100
2, 303360, Note_on_c, 0, 84, 100
2, 303360, Note_on_c, 0, 72, 100
2, 303600, Note_on_c, 0, 96, 0
2, 303600, Note_on_c, 0, 84, 0
2, 303600, Note_on_c, 0, 72, 0
2, 303840, Note_on_c, 0, 96, 100
2, 303840, Note_on_c, 0, 84, 100
2, 304080, Note_on_c, 0, 96, 0
2, 304080, Note_on_c, 0, 84, 0
2, 304320, Note_on_c, 0, 96, 100
2, 304320, Note_on_c, 0, 98, 100
2, 304320, Note_on_c, 0, 84, 100
2, 304320, Note_on_c, 0, 86, 100
2, 304320, Note_on_c, 0, 73, 100
2, 304320, Note_on_c, 0, 60, 100
2, 304560, Note_on_c, 0, 96, 0
2, 304560, Note_on_c, 0, 98, 0
2, 304560, Note_on_c, 0, 84, 0
2, 304560, Note_on_c, 0, 86, 0
2, 304560, Note_on_c, 0, 73, 0
2, 304560, Note_on_c, 0, 60, 0
2, 305280, Note_on_c, 0, 97, 100
2, 305280, Note_on_c, 0, 98, 100
2, 305280, Note_on_c, 0, 85, 100
2, 305280, Note_on_c, 0, 86, 100
2, 305280, Note_on_c, 0, 74, 100
2, 305280, Note_on_c, 0, 61, 100
2, 305520, Note_on_c, 0, 97, 0
2, 305520, Note_on_c, 0, 98, 0
2, 305520, Note_on_c, 0, 85, 0
2, 305520, Note_on_c, 0, 86, 0
2, 305520, Note_on_c, 0, 74, 0
2, 305520, Note_on_c, 0, 61, 0
2, 306240, Note_on_c, 0, 96, 100
2, 306240, Note_on_c, 0, 84, 100
2, 306240, Note_on_c, 0, 72, 100
2, 306480, Note_on_c, 0, 96, 0
2, 306480, Note_on_c, 0, 84, 0
2, 306480, Note_on_c, 0, 72, 0
2, 306720, Note_on_c, 0, 96, 100
2, 306720, Note_on_c, 0, 84, 100
2, 306960, Note_on_c, 0, 96, 0
2, 306960, Note_on_c, 0, 84, 0
2, 307200, Note_on_c, 0, 99, 100
2, 307200, Note_on_c, 0, 98, 100
2, 307200, Note_on_c, 0, 86, 100
2, 307200, Note_on_c, 0, 74, 100
2, 307200, Note_on_c, 0, 61, 100
2, 307200, Note_on_c, 0, 105, 100
2, 307200, Note_on_c, 0, 93, 100
2, 307200, Note_on_c, 0, 69, 100
2, 307200, Note_on_c, 0, 81, 100
2, 307440, Note_on_c, 0, 99, 0
2, 307440, Note_on_c, 0, 98, 0
2, 307440, Note_on_c, 0, 86, 0
2, 307440, Note_on_c, 0, 74, 0
2, 308640, Note_on_c, 0, 100, 100
2, 308640, Note_on_c, 0, 99, 100
2, 308640, Note_on_c, 0, 87, 100
2, 308640, Note_on_c, 0, 75, 100
2, 308880, Note_on_c, 0, 100, 0
2, 308880, Note_on_c, 0, 99, 0
2, 308880, Note_on_c, 0, 87, 0
2, 308880, Note_on_c, 0, 75, 0
2, 310080, Note_on_c, 0, 61, 0
2, 310080, Note_on_c, 0, 99, 100
2, 310080, Note_on_c, 0, 97, 100
2, 310080, Note_on_c, 0, 85, 100
2, 310080, Note_on_c, 0, 73, 100
2, 310320, Note_on_c, 0, 99, 0
2, 310320, Note_on_c, 0, 97, 0
2, 310320, Note_on_c, 0, 85, 0
2, 310320, Note_on_c, 0, 73, 0
2, 311040, Note_on_c, 0, 98, 100
2, 311040, Note_on_c, 0, 97, 100
2, 311040, Note_on_c, 0, 85, 100
2, 311040, Note_on_c, 0, 73, 100
2, 311040, Note_on_c, 0, 60, 100
2, 311280, Note_on_c, 0, 98, 0
2, 311280, Note_on_c, 0, 97, 0
2, 311280, Note_on_c, 0, 85, 0
2, 311280, Note_on_c, 0, 73, 0
2, 312480, Note_on_c, 0, 99, 100
2, 312480, Note_on_c, 0, 98, 100
2, 312480, Note_on_c, 0, 86, 100
2, 312480, Note_on_c, 0, 74, 100
2, 312720, Note_on_c, 0, 99, 0
2, 312720, Note_on_c, 0, 98, 0
2, 312720, Note_on_c, 0, 86, 0
2, 312720, Note_on_c, 0, 74, 0
2, 313920, Note_on_c, 0, 60, 0
2, 313920, Note_on_c, 0, 98, 100
2, 313920, Note_on_c, 0, 96, 100
2, 313920, Note_on_c, 0, 84, 100
2, 313920, Note_on_c, 0, 72, 100
2, 314160, Note_on_c, 0, 98, 0
2, 314160, Note_on_c, 0, 96, 0
2, 314160, Note_on_c, 0, 84, 0
2, 314160, Note_on_c, 0, 72, 0
2, 314880, Note_on_c, 0, 106, 0
2, 314880, Note_on_c, 0, 94, 0
2, 314880, Note_on_c, 0, 70, 0
2, 314880, Note_on_c, 0, 82, 0
2, 314880, Note_on_c, 0, 96, 100
2, 314880, Note_on_c, 0, 84, 100
2, 314880, Note_on_c, 0, 72, 100
2, 314880, Note_on_c, 0, 60, 100
2, 315120, Note_on_c, 0, 96, 0
2, 315120, Note_on_c, 0, 84, 0
2, 315120, Note_on_c, 0, 72, 0
2, 315840, Note_on_c, 0, 96, 100
2, 315840, Note_on_c, 0, 98, 100
2, 315840, Note_on_c, 0, 84, 100
2, 315840, Note_on_c, 0, 72, 100
2, 316080, Note_on_c, 0, 96, 0
2, 316080, Note_on_c, 0, 98, 0
2, 316080, Note_on_c, 0, 84, 0
2, 316080, Note_on_c, 0, 72, 0
2, 316320, Note_on_c, 0, 96, 100
2, 316320, Note_on_c, 0, 98, 100
2, 316320, Note_on_c, 0, 84, 100
2, 316560, Note_on_c, 0, 96, 0
2, 316560, Note_on_c, 0, 98, 0
2, 316560, Note_on_c, 0, 84, 0
2, 316800, Note_on_c, 0, 96, 100
2, 316800, Note_on_c, 0, 98, 100
2, 316800, Note_on_c, 0, 84, 100
2, 316800, Note_on_c, 0, 72, 100
2, 317040, Note_on_c, 0, 96, 0
2, 317040, Note_on_c, 0, 98, 0
2, 317040, Note_on_c, 0, 84, 0
2, 317040, Note_on_c, 0, 72, 0
2, 317280, Note_on_c, 0, 96, 100
2, 317280, Note_on_c, 0, 98, 100
2, 317280, Note_on_c, 0, 84, 100
2, 317520, Note_on_c, 0, 96, 0
2, 317520, Note_on_c, 0, 98, 0
2, 317520, Note_on_c, 0, 84, 0
2, 317760, Note_on_c, 0, 60, 0
2, 317760, Note_on_c, 0, 96, 100
2, 317760, Note_on_c, 0, 98, 100
2, 317760, Note_on_c, 0, 84, 100
2, 317760, Note_on_c, 0, 72, 100
2, 318000, Note_on_c, 0, 96, 0
2, 318000, Note_on_c, 0, 98, 0
2, 318000, Note_on_c, 0, 84, 0
2, 318000, Note_on_c, 0, 72, 0
2, 318240, Note_on_c, 0, 96, 100
2, 318240, Note_on_c, 0, 98, 100
2, 318240, Note_on_c, 0, 84, 100
2, 318480, Note_on_c, 0, 96, 0
2, 318480, Note_on_c, 0, 98, 0
2, 318480, Note_on_c, 0, 84, 0
2, 318720, Note_on_c, 0, 99, 100
2, 318720, Note_on_c, 0, 87, 100
2, 318720, Note_on_c, 0, 75, 100
2, 318720, Note_on_c, 0, 62, 100
2, 318960, Note_on_c, 0, 99, 0
2, 318960, Note_on_c, 0, 87, 0
2, 318960, Note_on_c, 0, 75, 0
2, 318960, Note_on_c, 0, 62, 0
2, 319200, Note_on_c, 0, 96, 100
2, 319440, Note_on_c, 0, 96, 0
2, 319680, Note_on_c, 0, 96, 100
2, 319920, Note_on_c, 0, 96, 0
2, 320160, Note_on_c, 0, 98, 100
2, 320160, Note_on_c, 0, 86, 100
2, 320160, Note_on_c, 0, 74, 100
2, 320160, Note_on_c, 0, 61, 100
2, 320400, Note_on_c, 0, 98, 0
2, 320400, Note_on_c, 0, 86, 0
2, 320400, Note_on_c, 0, 74, 0
2, 320400, Note_on_c, 0, 61, 0
2, 320640, Note_on_c, 0, 96, 100
2, 320880, Note_on_c, 0, 96, 0
2, 321120, Note_on_c, 0, 96, 100
2, 321360, Note_on_c, 0, 96, 0
2, 321600, Note_on_c, 0, 97, 100
2, 321600, Note_on_c, 0, 85, 100
2, 321600, Note_on_c, 0, 73, 100
2, 321840, Note_on_c, 0, 97, 0
2, 321840, Note_on_c, 0, 85, 0
2, 321840, Note_on_c, 0, 73, 0
2, 322080, Note_on_c, 0, 96, 100
2, 322320, Note_on_c, 0, 96, 0
2, 322560, Note_on_c, 0, 105, 0
2, 322560, Note_on_c, 0, 93, 0
2, 322560, Note_on_c, 0, 69, 0
2, 322560, Note_on_c, 0, 81, 0
2, 322560, Note_on_c, 0, 96, 100
2, 322560, Note_on_c, 0, 98, 100
2, 322560, Note_on_c, 0, 84, 100
2, 322560, Note_on_c, 0, 72, 100
2, 322560, Note_on_c, 0, 60, 100
2, 322560, Note_on_c, 0, 106, 100
2, 322560, Note_on_c, 0, 94, 100
2, 322560, Note_on_c, 0, 70, 100
2, 322560, Note_on_c, 0, 82, 100
2, 322800, Note_on_c, 0, 96, 0
2, 322800, Note_on_c, 0, 98, 0
2, 322800, Note_on_c, 0, 84, 0
2, 322800, Note_on_c, 0, 72, 0
2, 323040, Note_on_c, 0, 96, 100
2, 323040, Note_on_c, 0, 98, 100
2, 323040, Note_on_c, 0, 84, 100
2, 323280, Note_on_c, 0, 96, 0
2, 323280, Note_on_c, 0, 98, 0
2, 323280, Note_on_c, 0, 84, 0
2, 323520, Note_on_c, 0, 96, 100
2, 323520, Note_on_c, 0, 98, 100
2, 323520, Note_on_c, 0, 84, 100
2, 323520, Note_on_c, 0, 72, 100
2, 323760, Note_on_c, 0, 96, 0
2, 323760, Note_on_c, 0, 98, 0
2, 323760, Note_on_c, 0, 84, 0
2, 323760, Note_on_c, 0, 72, 0
2, 324000, Note_on_c, 0, 96, 100
2, 324000, Note_on_c, 0, 98, 100
2, 324000, Note_on_c, 0, 84, 100
2, 324240, Note_on_c, 0, 96, 0
2, 324240, Note_on_c, 0, 98, 0
2, 324240, Note_on_c, 0, 84, 0
2, 324480, Note_on_c, 0, 96, 100
2, 324480, Note_on_c, 0, 98, 100
2, 324480, Note_on_c, 0, 84, 100
2, 324480, Note_on_c, 0, 72, 100
2, 324720, Note_on_c, 0, 96, 0
2, 324720, Note_on_c, 0, 98, 0
2, 324720, Note_on_c, 0, 84, 0
2, 324720, Note_on_c, 0, 72, 0
2, 324960, Note_on_c, 0, 96, 100
2, 324960, Note_on_c, 0, 98, 100
2, 324960, Note_on_c, 0, 84, 100
2, 325200, Note_on_c, 0, 96, 0
2, 325200, Note_on_c, 0, 98, 0
2, 325200, Note_on_c, 0, 84, 0
2, 325440, Note_on_c, 0, 60, 0
2, 325440, Note_on_c, 0, 96, 100
2, 325440, Note_on_c, 0, 98, 100
2, 325440, Note_on_c, 0, 84, 100
2, 325440, Note_on_c, 0, 72, 100
2, 325680, Note_on_c, 0, 96, 0
2, 325680, Note_on_c, 0, 98, 0
2, 325680, Note_on_c, 0, 84, 0
2, 325680, Note_on_c, 0, 72, 0
2, 325920, Note_on_c, 0, 96, 100
2, 325920, Note_on_c, 0, 98, 100
2, 325920, Note_on_c, 0, 84, 100
2, 326160, Note_on_c, 0, 96, 0
2, 326160, Note_on_c, 0, 98, 0
2, 326160, Note_on_c, 0, 84, 0
2, 326370, Text_t, "[chorus]"
2, 326370, Text_t, "drum_double"
2, 326400, Note_on_c, 0, 99, 100
2, 326400, Note_on_c, 0, 87, 100
2, 326400, Note_on_c, 0, 75, 100
2, 326400, Note_on_c, 0, 62, 100
2, 326640, Note_on_c, 0, 99, 0
2, 326640, Note_on_c, 0, 87, 0
2, 326640, Note_on_c, 0, 75, 0
2, 326640, Note_on_c, 0, 62, 0
2, 326880, Note_on_c, 0, 96, 100
2, 327120, Note_on_c, 0, 96, 0
2, 327360, Note_on_c, 0, 96, 100
2, 327600, Note_on_c, 0, 96, 0
2, 327840, Note_on_c, 0, 98, 100
2, 327840, Note_on_c, 0, 86, 100
2, 327840, Note_on_c, 0, 74, 100
2, 327840, Note_on_c, 0, 61, 100
2, 328080, Note_on_c, 0, 98, 0
2, 328080, Note_on_c, 0, 86, 0
2, 328080, Note_on_c, 0, 74, 0
2, 328080, Note_on_c, 0, 61, 0
2, 328320, Note_on_c, 0, 96, 100
2, 328560, Note_on_c, 0, 96, 0
2, 328800, Note_on_c, 0, 96, 100
2, 329040, Note_on_c, 0, 96, 0
2, 329280, Note_on_c, 0, 97, 100
2, 329280, Note_on_c, 0, 85, 100
2, 329280, Note_on_c, 0, 73, 100
2, 329520, Note_on_c, 0, 97, 0
2, 329520, Note_on_c, 0, 85, 0
2, 329520, Note_on_c, 0, 73, 0
2, 329760, Note_on_c, 0, 96, 100
2, 330000, Note_on_c, 0, 96, 0
2, 330240, Note_on_c, 0, 106, 0
2, 330240, Note_on_c, 0, 94, 0
2, 330240, Note_on_c, 0, 70, 0
2, 330240, Note_on_c, 0, 82, 0
2, 330240, Note_on_c, 0, 96, 100
2, 330240, Note_on_c, 0, 98, 100
2, 330240, Note_on_c, 0, 84, 100
2, 330240, Note_on_c, 0, 72, 100
2, 330240, Note_on_c, 0, 60, 100
2, 330240, Note_on_c, 0, 105, 100
2, 330240, Note_on_c, 0, 93, 100
2, 330240, Note_on_c, 0, 69, 100
2, 330240, Note_on_c, 0, 81, 100
2, 330480, Note_on_c, 0, 96, 0
2, 330480, Note_on_c, 0, 98, 0
2, 330480, Note_on_c, 0, 84, 0
2, 330480, Note_on_c, 0, 72, 0
2, 330720, Note_on_c, 0, 96, 100
2, 330720, Note_on_c, 0, 98, 100
2, 330720, Note_on_c, 0, 84, 100
2, 330960, Note_on_c, 0, 96, 0
2, 330960, Note_on_c, 0, 98, 0
2, 330960, Note_on_c, 0, 84, 0
2, 331200, Note_on_c, 0, 96, 100
2, 331200, Note_on_c, 0, 98, 100
2, 331200, Note_on_c, 0, 84, 100
2, 331200, Note_on_c, 0, 72, 100
2, 331440, Note_on_c, 0, 96, 0
2, 331440, Note_on_c, 0, 98, 0
2, 331440, Note_on_c, 0, 84, 0
2, 331440, Note_on_c, 0, 72, 0
2, 331680, Note_on_c, 0, 96, 100
2, 331680, Note_on_c, 0, 98, 100
2, 331680, Note_on_c, 0, 84, 100
2, 331920, Note_on_c, 0, 96, 0
2, 331920, Note_on_c, 0, 98, 0
2, 331920, Note_on_c, 0, 84, 0
2, 332160, Note_on_c, 0, 96, 100
2, 332160, Note_on_c, 0, 98, 100
2, 332160, Note_on_c, 0, 84, 100
2, 332160, Note_on_c, 0, 72, 100
2, 332400, Note_on_c, 0, 96, 0
2, 332400, Note_on_c, 0, 98, 0
2, 332400, Note_on_c, 0, 84, 0
2, 332400, Note_on_c, 0, 72, 0
2, 332640, Note_on_c, 0, 96, 100
2, 332640, Note_on_c, 0, 98, 100
2, 332640, Note_on_c, 0, 84, 100
2, 332880, Note_on_c, 0, 96, 0
2, 332880, Note_on_c, 0, 98, 0
2, 332880, Note_on_c, 0, 84, 0
2, 333120, Note_on_c, 0, 60, 0
2, 333120, Note_on_c, 0, 96, 100
2, 333120, Note_on_c, 0, 98, 100
2, 333120, Note_on_c, 0, 84, 100
2, 333120, Note_on_c, 0, 72, 100
2, 333360, Note_on_c, 0, 96, 0
2, 333360, Note_on_c, 0, 98, 0
2, 333360, Note_on_c, 0, 84, 0
2, 333360, Note_on_c, 0, 72, 0
2, 333600, Note_on_c, 0, 96, 100
2, 333600, Note_on_c, 0, 98, 100
2, 333600, Note_on_c, 0, 84, 100
2, 333840, Note_on_c, 0, 96, 0
2, 333840, Note_on_c, 0, 98, 0
2, 333840, Note_on_c, 0, 84, 0
2, 334080, Note_on_c, 0, 99, 100
2, 334080, Note_on_c, 0, 87, 100
2, 334080, Note_on_c, 0, 75, 100
2, 334080, Note_on_c, 0, 62, 100
2, 334320, Note_on_c, 0, 99, 0
2, 334320, Note_on_c, 0, 87, 0
2, 334320, Note_on_c, 0, 75, 0
2, 334320, Note_on_c, 0, 62, 0
2, 334560, Note_on_c, 0, 96, 100
2, 334800, Note_on_c, 0, 96, 0
2, 335040, Note_on_c, 0, 96, 100
2, 335280, Note_on_c, 0, 96, 0
2, 335520, Note_on_c, 0, 98, 100
2, 335520, Note_on_c, 0, 86, 100
2, 335520, Note_on_c, 0, 74, 100
2, 335520, Note_on_c, 0, 61, 100
2, 335760, Note_on_c, 0, 98, 0
2, 335760, Note_on_c, 0, 86, 0
2, 335760, Note_on_c, 0, 74, 0
2, 335760, Note_on_c, 0, 61, 0
2, 336000, Note_on_c, 0, 96, 100
2, 336240, Note_on_c, 0, 96, 0
2, 336480, Note_on_c, 0, 96, 100
2, 336720, Note_on_c, 0, 96, 0
2, 336960, Note_on_c, 0, 97, 100
2, 336960, Note_on_c, 0, 85, 100
2, 336960, Note_on_c, 0, 73, 100
2, 337200, Note_on_c, 0, 97, 0
2, 337200, Note_on_c, 0, 85, 0
2, 337200, Note_on_c, 0, 73, 0
2, 337440, Note_on_c, 0, 96, 100
2, 337680, Note_on_c, 0, 96, 0
2, 337920, Note_on_c, 0, 105, 0
2, 337920, Note_on_c, 0, 93, 0
2, 337920, Note_on_c, 0, 69, 0
2, 337920, Note_on_c, 0, 81, 0
2, 337920, Note_on_c, 0, 96, 100
2, 337920, Note_on_c, 0, 98, 100
2, 337920, Note_on_c, 0, 84, 100
2, 337920, Note_on_c, 0, 72, 100
2, 337920, Note_on_c, 0, 60, 100
2, 337920, Note_on_c, 0, 106, 100
2, 337920, Note_on_c, 0, 94, 100
2, 337920, Note_on_c, 0, 70, 100
2, 337920, Note_on_c, 0, 82, 100
2, 338160, Note_on_c, 0, 96, 0
2, 338160, Note_on_c, 0, 98, 0
2, 338160, Note_on_c, 0, 84, 0
2, 338160, Note_on_c, 0, 72, 0
2, 338400, Note_on_c, 0, 96, 100
2, 338400, Note_on_c, 0, 98, 100
2, 338400, Note_on_c, 0, 84, 100
2, 338640, Note_on_c, 0, 96, 0
2, 338640, Note_on_c, 0, 98, 0
2, 338640, Note_on_c, 0, 84, 0
2, 338880, Note_on_c, 0, 96, 100
2, 338880, Note_on_c, 0, 98, 100
2, 338880, Note_on_c, 0, 84, 100
2, 338880, Note_on_c, 0, 72, 100
2, 339120, Note_on_c, 0, 96, 0
2, 339120, Note_on_c, 0, 98, 0
2, 339120, Note_on_c, 0, 84, 0
2, 339120, Note_on_c, 0, 72, 0
2, 339360, Note_on_c, 0, 96, 100
2, 339360, Note_on_c, 0, 98, 100
2, 339360, Note_on_c, 0, 84, 100
2, 339600, Note_on_c, 0, 96, 0
2, 339600, Note_on_c, 0, 98, 0
2, 339600, Note_on_c, 0, 84, 0
2, 339840, Note_on_c, 0, 96, 100
2, 339840, Note_on_c, 0, 98, 100
2, 339840, Note_on_c, 0, 84, 100
2, 339840, Note_on_c, 0, 72, 100
2, 340080, Note_on_c, 0, 96, 0
2, 340080, Note_on_c, 0, 98, 0
2, 340080, Note_on_c, 0, 84, 0
2, 340080, Note_on_c, 0, 72, 0
2, 340320, Note_on_c, 0, 96, 100
2, 340320, Note_on_c, 0, 98, 100
2, 340320, Note_on_c, 0, 84, 100
2, 340560, Note_on_c, 0, 96, 0
2, 340560, Note_on_c, 0, 98, 0
2, 340560, Note_on_c, 0, 84, 0
2, 340800, Note_on_c, 0, 60, 0
2, 340800, Note_on_c, 0, 96, 100
2, 340800, Note_on_c, 0, 98, 100
2, 340800, Note_on_c, 0, 84, 100
2, 340800, Note_on_c, 0, 72, 100
2, 341040, Note_on_c, 0, 96, 0
2, 341040, Note_on_c, 0, 98, 0
2, 341040, Note_on_c, 0, 84, 0
2, 341040, Note_on_c, 0, 72, 0
2, 341280, Note_on_c, 0, 96, 100
2, 341280, Note_on_c, 0, 98, 100
2, 341280, Note_on_c, 0, 84, 100
2, 341520, Note_on_c, 0, 96, 0
2, 341520, Note_on_c, 0, 98, 0
2, 341520, Note_on_c, 0, 84, 0
2, 341760, Note_on_c, 0, 99, 100
2, 341760, Note_on_c, 0, 87, 100
2, 341760, Note_on_c, 0, 75, 100
2, 341760, Note_on_c, 0, 62, 100
2, 342000, Note_on_c, 0, 99, 0
2, 342000, Note_on_c, 0, 87, 0
2, 342000, Note_on_c, 0, 75, 0
2, 342000, Note_on_c, 0, 62, 0
2, 342240, Note_on_c, 0, 96, 100
2, 342480, Note_on_c, 0, 96, 0
2, 342720, Note_on_c, 0, 96, 100
2, 342960, Note_on_c, 0, 96, 0
2, 343200, Note_on_c, 0, 98, 100
2, 343200, Note_on_c, 0, 86, 100
2, 343200, Note_on_c, 0, 74, 100
2, 343200, Note_on_c, 0, 61, 100
2, 343440, Note_on_c, 0, 98, 0
2, 343440, Note_on_c, 0, 86, 0
2, 343440, Note_on_c, 0, 74, 0
2, 343440, Note_on_c, 0, 61, 0
2, 343680, Text_t, "[chorus]"
2, 343680, Text_t, "[lighting ()]"
2, 343680, Note_on_c, 0, 96, 100
2, 343920, Note_on_c, 0, 96, 0
2, 344160, Note_on_c, 0, 96, 100
2, 344400, Note_on_c, 0, 96, 0
2, 344640, Note_on_c, 0, 97, 100
2, 344640, Note_on_c, 0, 85, 100
2, 344640, Note_on_c, 0, 73, 100
2, 344880, Note_on_c, 0, 97, 0
2, 344880, Note_on_c, 0, 85, 0
2, 344880, Note_on_c, 0, 73, 0
2, 345120, Note_on_c, 0, 96, 100
2, 345360, Note_on_c, 0, 96, 0
2, 345600, Note_on_c, 0, 96, 100
2, 345600, Note_on_c, 0, 98, 100
2, 345600, Note_on_c, 0, 84, 100
2, 345600, Note_on_c, 0, 86, 100
2, 345600, Note_on_c, 0, 72, 100
2, 345600, Note_on_c, 0, 60, 100
2, 345600, Note_on_c, 0, 105, 100
2, 345600, Note_on_c, 0, 93, 100
2, 345600, Note_on_c, 0, 69, 100
2, 345600, Note_on_c, 0, 81, 100
2, 345840, Note_on_c, 0, 96, 0
2, 345840, Note_on_c, 0, 98, 0
2, 345840, Note_on_c, 0, 84, 0
2, 345840, Note_on_c, 0, 86, 0
2, 345840, Note_on_c, 0, 72, 0
2, 345840, Note_on_c, 0, 60, 0
2, 346080, Note_on_c, 0, 106, 0
2, 346080, Note_on_c, 0, 94, 0
2, 346080, Note_on_c, 0, 70, 0
2, 346080, Note_on_c, 0, 82, 0
2, 346080, Note_on_c, 0, 105, 0
2, 346080, Note_on_c, 0, 93, 0
2, 346080, Note_on_c, 0, 69, 0
2, 346080, Note_on_c, 0, 81, 0
2, 357090, Text_t, "[verse]"
2, 357090, Text_t, "[idle]"
2, 368640, Note_on_c, 0, 96, 100
2, 368640, Note_on_c, 0, 84, 100
2, 368640, Note_on_c, 0, 72, 100
2, 368640, Note_on_c, 0, 60, 100
2, 368640, Note_on_c, 0, 105, 100
2, 368640, Note_on_c, 0, 93, 100
2, 368640, Note_on_c, 0, 69, 100
2, 368640, Note_on_c, 0, 81, 100
2, 368880, Note_on_c, 0, 96, 0
2, 368880, Note_on_c, 0, 84, 0
2, 368880, Note_on_c, 0, 72, 0
2, 368880, Note_on_c, 0, 60, 0
2, 369120, Note_on_c, 0, 96, 100
2, 369120, Note_on_c, 0, 84, 100
2, 369360, Note_on_c, 0, 96, 0
2, 369360, Note_on_c, 0, 84, 0
2, 369600, Note_on_c, 0, 96, 100
2, 369600, Note_on_c, 0, 84, 100
2, 369840, Note_on_c, 0, 96, 0
2, 369840, Note_on_c, 0, 84, 0
2, 370080, Note_on_c, 0, 98, 100
2, 370080, Note_on_c, 0, 86, 100
2, 370080, Note_on_c, 0, 73, 100
2, 370320, Note_on_c, 0, 98, 0
2, 370320, Note_on_c, 0, 86, 0
2, 370320, Note_on_c, 0, 73, 0
2, 370560, Note_on_c, 0, 98, 100
2, 370560, Note_on_c, 0, 86, 100
2, 370800, Note_on_c, 0, 98, 0
2, 370800, Note_on_c, 0, 86, 0
2, 371040, Note_on_c, 0, 98, 100
2, 371040, Note_on_c, 0, 86, 100
2, 371280, Note_on_c, 0, 98, 0
2, 371280, Note_on_c, 0, 86, 0
2, 371520, Note_on_c, 0, 97, 100
2, 371520, Note_on_c, 0, 85, 100
2, 371520, Note_on_c, 0, 72, 100
2, 371520, Note_on_c, 0, 61, 100
2, 371760, Note_on_c, 0, 97, 0
2, 371760, Note_on_c, 0, 85, 0
2, 371760, Note_on_c, 0, 72, 0
2, 371760, Note_on_c, 0, 61, 0
2, 372000, Note_on_c, 0, 97, 100
2, 372000, Note_on_c, 0, 85, 100
2, 372240, Note_on_c, 0, 97, 0
2, 372240, Note_on_c, 0, 85, 0
2, 372480, Note_on_c, 0, 97, 100
2, 372480, Note_on_c, 0, 85, 100
2, 372720, Note_on_c, 0, 97, 0
2, 372720, Note_on_c, 0, 85, 0
2, 372960, Note_on_c, 0, 99, 100
2, 372960, Note_on_c, 0, 87, 100
2, 372960, Note_on_c, 0, 74, 100
2, 373200, Note_on_c, 0, 99, 0
2, 373200, Note_on_c, 0, 87, 0
2, 373200, Note_on_c, 0, 74, 0
2, 373440, Note_on_c, 0, 99, 100
2, 373440, Note_on_c, 0, 87, 100
2, 373680, Note_on_c, 0, 99, 0
2, 373680, Note_on_c, 0, 87, 0
2, 373920, Note_on_c, 0, 99, 100
2, 373920, Note_on_c, 0, 87, 100
2, 374160, Note_on_c, 0, 99, 0
2, 374160, Note_on_c, 0, 87, 0
2, 374400, Text_t, "[verse]"
2, 374400, Text_t, "[lighting (blackout)]"
2, 374400, Note_on_c, 0, 98, 100
2, 374400, Note_on_c, 0, 86, 100
2, 374400, Note_on_c, 0, 73, 100
2, 374400, Note_on_c, 0, 61, 100
2, 374640, Note_on_c, 0, 98, 0
2, 374640, Note_on_c, 0, 86, 0
2, 374640, Note_on_c, 0, 73, 0
2, 374640, Note_on_c, 0, 61, 0
2, 374880, Note_on_c, 0, 98, 100
2, 374880, Note_on_c, 0, 86, 100
2, 375120, Note_on_c, 0, 98, 0
2, 375120, Note_on_c, 0, 86, 0
2, 375360, Note_on_c, 0, 98, 100
2, 375360, Note_on_c, 0, 86, 100
2, 375600, Note_on_c, 0, 98, 0
2, 375600, Note_on_c, 0, 86, 0
2, 375840, Note_on_c, 0, 100, 100
2, 375840, Note_on_c, 0, 88, 100
2, 375840, Note_on_c, 0, 75, 100
2, 376080, Note_on_c, 0, 100, 0
2, 376080, Note_on_c, 0, 88, 0
2, 376080, Note_on_c, 0, 75, 0
2, 376320, Note_on_c, 0, 100, 100
2, 376320, Note_on_c, 0, 88, 100
2, 376560, Note_on_c, 0, 100, 0
2, 376560, Note_on_c, 0, 88, 0
2, 376800, Note_on_c, 0, 100, 100
2, 376800, Note_on_c, 0, 88, 100
2, 377040, Note_on_c, 0, 100, 0
2, 377040, Note_on_c, 0, 88, 0
2, 377280, Note_on_c, 0, 99, 100
2, 377280, Note_on_c, 0, 87, 100
2, 377280, Note_on_c, 0, 74, 100
2, 377280, Note_on_c, 0, 62, 100
2, 377520, Note_on_c, 0, 99, 0
2, 377520, Note_on_c, 0, 87, 0
2, 377520, Note_on_c, 0, 74, 0
2, 377520, Note_on_c, 0, 62, 0
2, 377760, Note_on_c, 0, 99, 100
2, 377760, Note_on_c, 0, 87, 100
2, 378000, Note_on_c, 0, 99, 0
2, 378000, Note_on_c, 0, 87, 0
2, 378240, Note_on_c, 0, 99, 100
2, 378240, Note_on_c, 0, 87, 100
2, 378480, Note_on_c, 0, 99, 0
2, 378480, Note_on_c, 0, 87, 0
2, 378720, Note_on_c, 0, 100, 100
2, 378720, Note_on_c, 0, 88, 100
2, 378720, Note_on_c, 0, 75, 100
2, 378960, Note_on_c, 0, 100, 0
2, 378960, Note_on_c, 0, 88, 0
2, 378960, Note_on_c, 0, 75, 0
2, 379200, Note_on_c, 0, 100, 100
2, 379200, Note_on_c, 0, 88, 100
2, 379440, Note_on_c, 0, 100, 0
2, 379440, Note_on_c, 0, 88, 0
2, 379680, Note_on_c, 0, 100, 100
2, 379680, Note_on_c, 0, 88, 100
2, 379920, Note_on_c, 0, 100, 0
2, 379920, Note_on_c, 0, 88, 0
2, 380130, Text_t, "[play]"
2, 380160, Note_on_c, 0, 105, 0
2, 380160, Note_on_c, 0, 93, 0
2, 380160, Note_on_c, 0, 69, 0
2, 380160, Note_on_c, 0, 81, 0
2, 380160, Note_on_c, 0, 96, 100
2, 380160, Note_on_c, 0, 84, 100
2, 380160, Note_on_c, 0, 72, 100
2, 380160, Note_on_c, 0, 60, 100
2, 380160, Note_on_c, 0, 106, 100
2, 380160, Note_on_c, 0, 94, 100
2, 380160, Note_on_c, 0, 70, 100
2, 380160, Note_on_c, 0, 82, 100
2, 380400, Note_on_c, 0, 96, 0
2, 380400, Note_on_c, 0, 84, 0
2, 380400, Note_on_c, 0, 72, 0
2, 380400, Note_on_c, 0, 60, 0
2, 380640, Note_on_c, 0, 96, 100
2, 380640, Note_on_c, 0, 84, 100
2, 380880, Note_on_c, 0, 96, 0
2, 380880, Note_on_c, 0, 84, 0
2, 381120, Note_on_c, 0, 96, 100
2, 381120, Note_on_c, 0, 84, 100
2, 381360, Note_on_c, 0, 96, 0
2, 381360, Note_on_c, 0, 84, 0
2, 381600, Note_on_c, 0, 98, 100
2, 381600, Note_on_c, 0, 86, 100
2, 381600, Note_on_c, 0, 73, 100
2, 381840, Note_on_c, 0, 98, 0
2, 381840, Note_on_c, 0, 86, 0
2, 381840, Note_on_c, 0, 73, 0
2, 382080, Note_on_c, 0, 98, 100
2, 382080, Note_on_c, 0, 86, 100
2, 382320, Note_on_c, 0, 98, 0
2, 382320, Note_on_c, 0, 86, 0
2, 382560, Note_on_c, 0, 98, 100
2, 382560, Note_on_c, 0, 86, 100
2, 382800, Note_on_c, 0, 98, 0
2, 382800, Note_on_c, 0, 86, 0
2, 383040, Note_on_c, 0, 97, 100
2, 383040, Note_on_c, 0, 85, 100
2, 383040, Note_on_c, 0, 72, 100
2, 383040, Note_on_c, 0, 61, 100
2, 383280, Note_on_c, 0, 97, 0
2, 383280, Note_on_c, 0, 85, 0
2, 383280, Note_on_c, 0, 72, 0
2, 383280, Note_on_c, 0, 61, 0
2, 383520, Note_on_c, 0, 97, 100
2, 383520, Note_on_c, 0, 85, 100
2, 383760, Note_on_c, 0, 97, 0
2, 383760, Note_on_c, 0, 85, 0
2, 384000, Note_on_c, 0, 97, 100
2, 384000, Note_on_c, 0, 85, 100
2, 384240, Note_on_c, 0, 97, 0
2, 384240, Note_on_c, 0, 85, 0
2, 384480, Note_on_c, 0, 99, 100
2, 384480, Note_on_c, 0, 87, 100
2, 384480, Note_on_c, 0, 74, 100
2, 384720, Note_on_c, 0, 99, 0
2, 384720, Note_on_c, 0, 87, 0
2, 384720, Note_on_c, 0, 74, 0
2, 384960, Note_on_c, 0, 99, 100
2, 384960, Note_on_c, 0, 87, 100
2, 385200, Note_on_c, 0, 99, 0
2, 385200, Note_on_c, 0, 87, 0
2, 385440, Note_on_c, 0, 99, 100
2, 385440, Note_on_c, 0, 87, 100
2, 385680, Note_on_c, 0, 99, 0
2, 385680, Note_on_c, 0, 87, 0
2, 385920, Note_on_c, 0, 98, 100
2, 385920, Note_on_c, 0, 86, 100
2, 385920, Note_on_c, 0, 73, 100
2, 385920, Note_on_c, 0, 61, 100
2, 386160, Note_on_c, 0, 98, 0
2, 386160, Note_on_c, 0, 86, 0
2, 386160, Note_on_c, 0, 73, 0
2, 386160, Note_on_c, 0, 61, 0
2, 386400, Note_on_c, 0, 98, 100
2, 386400, Note_on_c, 0, 86, 100
2, 386640, Note_on_c, 0, 98, 0
2, 386640, Note_on_c, 0, 86, 0
2, 386880, Note_on_c, 0, 98, 100
2, 386880, Note_on_c, 0, 86, 100
2, 387120, Note_on_c, 0, 98, 0
2, 387120, Note_on_c, 0, 86, 0
2, 387360, Note_on_c, 0, 100, 100
2, 387360, Note_on_c, 0, 88, 100
2, 387360, Note_on_c, 0, 75, 100
2, 387600, Note_on_c, 0, 100, 0
2, 387600, Note_on_c, 0, 88, 0
2, 387600, Note_on_c, 0, 75, 0
2, 387840, Note_on_c, 0, 100, 100
2, 387840, Note_on_c, 0, 88, 100
2, 388080, Note_on_c, 0, 100, 0
2, 388080, Note_on_c, 0, 88, 0
2, 388320, Note_on_c, 0, 100, 100
2, 388320, Note_on_c, 0, 88, 100
2, 388560, Note_on_c, 0, 100, 0
2, 388560, Note_on_c, 0, 88, 0
2, 388800, Note_on_c, 0, 99, 100
2, 388800, Note_on_c, 0, 87, 100
2, 388800, Note_on_c, 0, 74, 100
2, 388800, Note_on_c, 0, 62, 100
2, 389040, Note_on_c, 0, 99, 0
2, 389040, Note_on_c, 0, 87, 0
2, 389040, Note_on_c, 0, 74, 0
2, 389040, Note_on_c, 0, 62, 0
2, 389280, Note_on_c, 0, 99, 100
2, 389280, Note_on_c, 0, 87, 100
2, 389520, Note_on_c, 0, 99, 0
2, 389520, Note_on_c, 0, 87, 0
2, 389760, Note_on_c, 0, 99, 100
2, 389760, Note_on_c, 0, 87, 100
2, 390000, Note_on_c, 0, 99, 0
2, 390000, Note_on_c, 0, 87, 0
2, 390240, Note_on_c, 0, 100, 100
2, 390240, Note_on_c, 0, 88, 100
2, 390240, Note_on_c, 0, 75, 100
2, 390480, Note_on_c, 0, 100, 0
2, 390480, Note_on_c, 0, 88, 0
2, 390480, Note_on_c, 0, 75, 0
2, 390720, Note_on_c, 0, 100, 100
2, 390720, Note_on_c, 0, 88, 100
2, 390960, Note_on_c, 0, 100, 0
2, 390960, Note_on_c, 0, 88, 0
2, 391200, Note_on_c, 0, 100, 100
2, 391200, Note_on_c, 0, 88, 100
2, 391440, Note_on_c, 0, 100, 0
2, 391440, Note_on_c, 0, 88, 0
2, 391650, Text_t, "drum_allbeat"
2, 391680, Note_on_c, 0, 106, 0
2, 391680, Note_on_c, 0, 94, 0
2, 391680, Note_on_c, 0, 70, 0
2, 391680, Note_on_c, 0, 82, 0
2, 391680, Note_on_c, 0, 97, 100
2, 391680, Note_on_c, 0, 85, 100
2, 391680, Note_on_c, 0, 73, 100
2, 391680, Note_on_c, 0, 61, 100
2, 391680, Note_on_c, 0, 105, 100
2, 391680, Note_on_c, 0, 93, 100
2, 391680, Note_on_c, 0, 69, 100
2, 391680, Note_on_c, 0, 81, 100
2, 391920, Note_on_c, 0, 97, 0
2, 391920, Note_on_c, 0, 85, 0
2, 391920, Note_on_c, 0, 73, 0
2, 392160, Note_on_c, 0, 97, 100
2, 392160, Note_on_c, 0, 85, 100
2, 392400, Note_on_c, 0, 97, 0
2, 392400, Note_on_c, 0, 85, 0
2, 392640, Note_on_c, 0, 97, 100
2, 392640, Note_on_c, 0, 85, 100
2, 392640, Note_on_c, 0, 73, 100
2, 392880, Note_on_c, 0, 97, 0
2, 392880, Note_on_c, 0, 85, 0
2, 392880, Note_on_c, 0, 73, 0
2, 393120, Note_on_c, 0, 97, 100
2, 393120, Note_on_c, 0, 85, 100
2, 393360, Note_on_c, 0, 97, 0
2, 393360, Note_on_c, 0, 85, 0
2, 393600, Note_on_c, 0, 97, 100
2, 393600, Note_on_c, 0, 85, 100
2, 393600, Note_on_c, 0, 73, 100
2, 393840, Note_on_c, 0, 97, 0
2, 393840, Note_on_c, 0, 85, 0
2, 393840, Note_on_c, 0, 73, 0
2, 394080, Note_on_c, 0, 97, 100
2, 394080, Note_on_c, 0, 85, 100
2, 394320, Note_on_c, 0, 97, 0
2, 394320, Note_on_c, 0, 85, 0
2, 394560, Note_on_c, 0, 61, 0
2, 394560, Note_on_c, 0, 97, 100
2, 394560, Note_on_c, 0, 85, 100
2, 394560, Note_on_c, 0, 73, 100
2, 394800, Note_on_c, 0, 97, 0
2, 394800, Note_on_c, 0, 85, 0
2, 394800, Note_on_c, 0, 73, 0
2, 395040, Note_on_c, 0, 97, 100
2, 395040, Note_on_c, 0, 85, 100
2, 395280, Note_on_c, 0, 97, 0
2, 395280, Note_on_c, 0, 85, 0
2, 395520, Note_on_c, 0, 100, 100
2, 395520, Note_on_c, 0, 88, 100
2, 395520, Note_on_c, 0, 75, 100
2, 395520, Note_on_c, 0, 62, 100
2, 395760, Note_on_c, 0, 100, 0
2, 395760, Note_on_c, 0, 88, 0
2, 395760, Note_on_c, 0, 75, 0
2, 395760, Note_on_c, 0, 62, 0
2, 396000, Note_on_c, 0, 97, 100
2, 396240, Note_on_c, 0, 97, 0
2, 396480, Note_on_c, 0, 97, 100
2, 396720, Note_on_c, 0, 97, 0
2, 396960, Note_on_c, 0, 99, 100
2, 396960, Note_on_c, 0, 87, 100
2, 396960, Note_on_c, 0, 74, 100
2, 396960, Note_on_c, 0, 61, 100
2, 397200, Note_on_c, 0, 99, 0
2, 397200, Note_on_c, 0, 87, 0
2, 397200, Note_on_c, 0, 74, 0
2, 397200, Note_on_c, 0, 61, 0
2, 397440, Text_t, "[play]"
2, 397440, Text_t, "[lighting (color1)]"
2, 397440, Note_on_c, 0, 97, 100
2, 397680, Note_on_c, 0, 97, 0
2, 397920, Note_on_c, 0, 97, 100
2, 398160, Note_on_c, 0, 97, 0
2, 398400, Note_on_c, 0, 98, 100
2, 398400, Note_on_c, 0, 86, 100
2, 398400, Note_on_c, 0, 73, 100
2, 398640, Note_on_c, 0, 98, 0
2, 398640, Note_on_c, 0, 86, 0
2, 398640, Note_on_c, 0, 73, 0
2, 398880, Note_on_c, 0, 97, 100
2, 399120, Note_on_c, 0, 97, 0
2, 399360, Note_on_c, 0, 105, 0
2, 399360, Note_on_c, 0, 93, 0
2, 399360, Note_on_c, 0, 69, 0
2, 399360, Note_on_c, 0, 81, 0
2, 399360, Note_on_c, 0, 97, 100
2, 399360, Note_on_c, 0, 85, 100
2, 399360, Note_on_c, 0, 73, 100
2, 399360, Note_on_c, 0, 61, 100
2, 399360, Note_on_c, 0, 106, 100
2, 399360, Note_on_c, 0, 94, 100
2, 399360, Note_on_c, 0, 70, 100
2, 399360, Note_on_c, 0, 82, 100
2, 399600, Note_on_c, 0, 97, 0
2, 399600, Note_on_c, 0, 85, 0
2, 399600, Note_on_c, 0, 73, 0
2, 399840, Note_on_c, 0, 97, 100
2, 399840, Note_on_c, 0, 85, 100
2, 400080, Note_on_c, 0, 97, 0
2, 400080, Note_on_c, 0, 85, 0
2, 400320, Note_on_c, 0, 97, 100
2, 400320, Note_on_c, 0, 85, 100
2, 400320, Note_on_c, 0, 73, 100
2, 400560, Note_on_c, 0, 97, 0
2, 400560, Note_on_c, 0, 85, 0
2, 400560, Note_on_c, 0, 73, 0
2, 400800, Note_on_c, 0, 97, 100
2, 400800, Note_on_c, 0, 85, 100
2, 401040, Note_on_c, 0, 97, 0
2, 401040, Note_on_c, 0, 85, 0
2, 401280, Note_on_c, 0, 97, 100
2, 401280, Note_on_c, 0, 85, 100
2, 401280, Note_on_c, 0, 73, 100
2, 401520, Note_on_c, 0, 97, 0
2, 401520, Note_on_c, 0, 85, 0
2, 401520, Note_on_c, 0, 73, 0
2, 401760, Note_on_c, 0, 97, 100
2, 401760, Note_on_c, 0, 85, 100
2, 402000, Note_on_c, 0, 97, 0
2, 402000, Note_on_c, 0, 85, 0
2, 402240, Note_on_c, 0, 61, 0
2, 402240, Note_on_c, 0, 97, 100
2, 402240, Note_on_c, 0, 85, 100
2, 402240, Note_on_c, 0, 73, 100
2, 402480, Note_on_c, 0, 97, 0
2, 402480, Note_on_c, 0, 85, 0
2, 402480, Note_on_c, 0, 73, 0
2, 402720, Note_on_c, 0, 97, 100
2, 402720, Note_on_c, 0, 85, 100
2, 402960, Note_on_c, 0, 97, 0
2, 402960, Note_on_c, 0, 85, 0
2, 403170, Text_t, "[chorus]"
2, 403170, Text_t, "drum_double"
2, 403200, Note_on_c, 0, 100, 100
2, 403200, Note_on_c, 0, 88, 100
2, 403200, Note_on_c, 0, 75, 100
2, 403200, Note_on_c, 0, 62, 100
2, 403440, Note_on_c, 0, 100, 0
2, 403440, Note_on_c, 0, 88, 0
2, 403440, Note_on_c, 0, 75, 0
2, 403440, Note_on_c, 0, 62, 0
2, 403680, Note_on_c, 0, 97, 100
2, 403920, Note_on_c, 0, 97, 0
2, 404160, Note_on_c, 0, 97, 100
2, 404400, Note_on_c, 0, 97, 0
2, 404640, Note_on_c, 0, 99, 100
2, 404640, Note_on_c, 0, 87, 100
2, 404640, Note_on_c, 0, 74, 100
2, 404640, Note_on_c, 0, 61, 100
2, 404880, Note_on_c, 0, 99, 0
2, 404880, Note_on_c, 0, 87, 0
2, 404880, Note_on_c, 0, 74, 0
2, 404880, Note_on_c, 0, 61, 0
2, 405120, Note_on_c, 0, 97, 100
2, 405360, Note_on_c, 0, 97, 0
2, 405600, Note_on_c, 0, 97, 100
2, 405840, Note_on_c, 0, 97, 0
2, 406080, Note_on_c, 0, 98, 100
2, 406080, Note_on_c, 0, 86, 100
2, 406080, Note_on_c, 0, 73, 100
2, 406320, Note_on_c, 0, 98, 0
2, 406320, Note_on_c, 0, 86, 0
2, 406320, Note_on_c, 0, 73, 0
2, 406560, Note_on_c, 0, 97, 100
2, 406800, Note_on_c, 0, 97, 0
2, 407040, Note_on_c, 0, 106, 0
2, 407040, Note_on_c, 0, 94, 0
2, 407040, Note_on_c, 0, 70, 0
2, 407040, Note_on_c, 0, 82, 0
2, 407040, Note_on_c, 0, 97, 100
2, 407040, Note_on_c, 0, 85, 100
2, 407040, Note_on_c, 0, 73, 100
2, 407040, Note_on_c, 0, 61, 100
2, 407040, Note_on_c, 0, 105, 100
2, 407040, Note_on_c, 0, 103, 100
2, 407040, Note_on_c, 0, 93, 100
2, 407040, Note_on_c, 0, 91, 100
2, 407040, Note_on_c, 0, 69, 100
2, 407040, Note_on_c, 0, 67, 100
2, 407040, Note_on_c, 0, 81, 100
2, 407040, Note_on_c, 0, 79, 100
2, 407280, Note_on_c, 0, 97, 0
2, 407280, Note_on_c, 0, 85, 0
2, 407280, Note_on_c, 0, 73, 0
2, 407520, Note_on_c, 0, 97, 100
2, 407520, Note_on_c, 0, 85, 100
2, 407760, Note_on_c, 0, 97, 0
2, 407760, Note_on_c, 0, 85, 0
2, 408000, Note_on_c, 0, 97, 100
2, 408000, Note_on_c, 0, 85, 100
2, 408000, Note_on_c, 0, 73, 100
2, 408240, Note_on_c, 0, 97, 0
2, 408240, Note_on_c, 0, 85, 0
2, 408240, Note_on_c, 0, 73, 0
2, 408480, Note_on_c, 0, 97, 100
2, 408480, Note_on_c, 0, 85, 100
2, 408720, Note_on_c, 0, 97, 0
2, 408720, Note_on_c, 0, 85, 0
2, 408960, Text_t, "[lighting ()]"
2, 408960, Note_on_c, 0, 97, 100
2, 408960, Note_on_c, 0, 85, 100
2, 408960, Note_on_c, 0, 73, 100
2, 409200, Note_on_c, 0, 97, 0
2, 409200, Note_on_c, 0, 85, 0
2, 409200, Note_on_c, 0, 73, 0
2, 409440, Note_on_c, 0, 97, 100
2, 409440, Note_on_c, 0, 85, 100
2, 409680, Note_on_c, 0, 97, 0
2, 409680, Note_on_c, 0, 85, 0
2, 409920, Note_on_c, 0, 61, 0
2, 409920, Note_on_c, 0, 97, 100
2, 409920, Note_on_c, 0, 85, 100
2, 409920, Note_on_c, 0, 73, 100
2, 410160, Note_on_c, 0, 97, 0
2, 410160, Note_on_c, 0, 85, 0
2, 410160, Note_on_c, 0, 73, 0
2, 410400, Note_on_c, 0, 97, 100
2, 410400, Note_on_c, 0, 85, 100
2, 410640, Note_on_c, 0, 97, 0
2, 410640, Note_on_c, 0, 85, 0
2, 410880, Note_on_c, 0, 105, 0
2, 410880, Note_on_c, 0, 103, 0
2, 410880, Note_on_c, 0, 93, 0
2, 410880, Note_on_c, 0, 91, 0
2, 410880, Note_on_c, 0, 69, 0
2, 410880, Note_on_c, 0, 67, 0
2, 410880, Note_on_c, 0, 81, 0
2, 410880, Note_on_c, 0, 79, 0
2, 410880, Note_on_c, 0, 100, 100
2, 410880, Note_on_c, 0, 88, 100
2, 410880, Note_on_c, 0, 75, 100
2, 410880, Note_on_c, 0, 62, 100
2, 410880, Note_on_c, 0, 106, 100
2, 410880, Note_on_c, 0, 94, 100
2, 410880, Note_on_c, 0, 70, 100
2, 410880, Note_on_c, 0, 82, 100
2, 411120, Note_on_c, 0, 100, 0
2, 411120, Note_on_c, 0, 88, 0
2, 411120, Note_on_c, 0, 75, 0
2, 411120, Note_on_c, 0, 62, 0
2, 411360, Note_on_c, 0, 97, 100
2, 411600, Note_on_c, 0, 97, 0
2, 411840, Note_on_c, 0, 97, 100
2, 412080, Note_on_c, 0, 97, 0
2, 412320, Note_on_c, 0, 99, 100
2, 412320, Note_on_c, 0, 87, 100
2, 412320, Note_on_c, 0, 74, 100
2, 412320, Note_on_c, 0, 61, 100
2, 412560, Note_on_c, 0, 99, 0
2, 412560, Note_on_c, 0, 87, 0
2, 412560, Note_on_c, 0, 74, 0
2, 412560, Note_on_c, 0, 61, 0
2, 412800, Note_on_c, 0, 97, 100
2, 413040, Note_on_c, 0, 97, 0
2, 413280, Note_on_c, 0, 97, 100
2, 413520, Note_on_c, 0, 97, 0
2, 413760, Note_on_c, 0, 98, 100
2, 413760, Note_on_c, 0, 86, 100
2, 413760, Note_on_c, 0, 73, 100
2, 414000, Note_on_c, 0, 98, 0
2, 414000, Note_on_c, 0, 86, 0
2, 414000, Note_on_c, 0, 73, 0
2, 414240, Note_on_c, 0, 97, 100
2, 414480, Note_on_c, 0, 97, 0
2, 414720, Note_on_c, 0, 97, 100
2, 414720, Note_on_c, 0, 85, 100
2, 414720, Note_on_c, 0, 73, 100
2, 414720, Note_on_c, 0, 61, 100
2, 414720, Note_on_c, 0, 103, 100
2, 414720, Note_on_c, 0, 91, 100
2, 414720, Note_on_c, 0, 67, 100
2, 414720, Note_on_c, 0, 79, 100
2, 414960, Note_on_c, 0, 97, 0
2, 414960, Note_on_c, 0, 85, 0
2, 414960, Note_on_c, 0, 73, 0
2, 415200, Note_on_c, 0, 97, 100
2, 415200, Note_on_c, 0, 85, 100
2, 415440, Note_on_c, 0, 97, 0
2, 415440, Note_on_c, 0, 85, 0
2, 415680, Note_on_c, 0, 97, 100
2, 415680, Note_on_c, 0, 85, 100
2, 415680, Note_on_c, 0, 73, 100
2, 415920, Note_on_c, 0, 97, 0
2, 415920, Note_on_c, 0, 85, 0
2, 415920, Note_on_c, 0, 73, 0
2, 416160, Note_on_c, 0, 97, 100
2, 416160, Note_on_c, 0, 85, 100
2, 416400, Note_on_c, 0, 97, 0
2, 416400, Note_on_c, 0, 85, 0
2, 416640, Note_on_c, 0, 97, 100
2, 416640, Note_on_c, 0, 85, 100
2, 416640, Note_on_c, 0, 73, 100
2, 416880, Note_on_c, 0, 97, 0
2, 416880, Note_on_c, 0, 85, 0
2, 416880, Note_on_c, 0, 73, 0
2, 417120, Note_on_c, 0, 97, 100
2, 417120, Note_on_c, 0, 85, 100
2, 417360, Note_on_c, 0, 97, 0
2, 417360, Note_on_c, 0, 85, 0
2, 417600, Note_on_c, 0, 61, 0
2, 417600, Note_on_c, 0, 97, 100
2, 417600, Note_on_c, 0, 85, 100
2, 417600, Note_on_c, 0, 73, 100
2, 417840, Note_on_c, 0, 97, 0
2, 417840, Note_on_c, 0, 85, 0
2, 417840, Note_on_c, 0, 73, 0
2, 418080, Note_on_c, 0, 97, 100
2, 418080, Note_on_c, 0, 85, 100
2, 418320, Note_on_c, 0, 97, 0
2, 418320, Note_on_c, 0, 85, 0
2, 418560, Note_on_c, 0, 106, 0
2, 418560, Note_on_c, 0, 94, 0
2, 418560, Note_on_c, 0, 70, 0
2, 418560, Note_on_c, 0, 82, 0
2, 418560, Note_on_c, 0, 103, 0
2, 418560, Note_on_c, 0, 91, 0
2, 418560, Note_on_c, 0, 67, 0
2, 418560, Note_on_c, 0, 79, 0
2, 418560, Note_on_c, 0, 100, 100
2, 418560, Note_on_c, 0, 88, 100
2, 418560, Note_on_c, 0, 75, 100
2, 418560, Note_on_c, 0, 62, 100
2, 418560, Note_on_c, 0, 105, 100
2, 418560, Note_on_c, 0, 93, 100
2, 418560, Note_on_c, 0, 69, 100
2, 418560, Note_on_c, 0, 81, 100
2, 418800, Note_on_c, 0, 100, 0
2, 418800, Note_on_c, 0, 88, 0
2, 418800, Note_on_c, 0, 75, 0
2, 418800, Note_on_c, 0, 62, 0
2, 419040, Note_on_c, 0, 97, 100
2, 419280, Note_on_c, 0, 97, 0
2, 419520, Note_on_c, 0, 97, 100
2, 419760, Note_on_c, 0, 97, 0
2, 420000, Note_on_c, 0, 99, 100
2, 420000, Note_on_c, 0, 87, 100
2, 420000, Note_on_c, 0, 74, 100
2, 420000, Note_on_c, 0, 61, 100
2, 420240, Note_on_c, 0, 99, 0
2, 420240, Note_on_c, 0, 87, 0
2, 420240, Note_on_c, 0, 74, 0
2, 420240, Note_on_c, 0, 61, 0
2, 420480, Text_t, "[chorus]"
2, 420480, Text_t, "[lighting ()]"
2, 420480, Note_on_c, 0, 97, 100
2, 420720, Note_on_c, 0, 97, 0
2, 420960, Note_on_c, 0, 97, 100
2, 421200, Note_on_c, 0, 97, 0
2, 421440, Note_on_c, 0, 98, 100
2, 421440, Note_on_c, 0, 86, 100
2, 421440, Note_on_c, 0, 73, 100
2, 421680, Note_on_c, 0, 98, 0
2, 421680, Note_on_c, 0, 86, 0
2, 421680, Note_on_c, 0, 73, 0
2, 421920, Note_on_c, 0, 97, 100
2, 422160, Note_on_c, 0, 97, 0
2, 422400, Note_on_c, 0, 96, 100
2, 422400, Note_on_c, 0, 98, 100
2, 422400, Note_on_c, 0, 84, 100
2, 422400, Note_on_c, 0, 72, 100
2, 422400, Note_on_c, 0, 60, 100
2, 422640, Note_on_c, 0, 96, 0
2, 422640, Note_on_c, 0, 98, 0
2, 422640, Note_on_c, 0, 84, 0
2, 422640, Note_on_c, 0, 72, 0
2, 422880, Note_on_c, 0, 96, 100
2, 422880, Note_on_c, 0, 98, 100
2, 422880, Note_on_c, 0, 84, 100
2, 423120, Note_on_c, 0, 96, 0
2, 423120, Note_on_c, 0, 98, 0
2, 423120, Note_on_c, 0, 84, 0
2, 423360, Note_on_c, 0, 96, 100
2, 423360, Note_on_c, 0, 98, 100
2, 423360, Note_on_c, 0, 84, 100
2, 423360, Note_on_c, 0, 72, 100
2, 423600, Note_on_c, 0, 96, 0
2, 423600, Note_on_c, 0, 98, 0
2, 423600, Note_on_c, 0, 84, 0
2, 423600, Note_on_c, 0, 72, 0
2, 423840, Note_on_c, 0, 96, 100
2, 423840, Note_on_c, 0, 98, 100
2, 423840, Note_on_c, 0, 84, 100
2, 424080, Note_on_c, 0, 96, 0
2, 424080, Note_on_c, 0, 98, 0
2, 424080, Note_on_c, 0, 84, 0
2, 424320, Note_on_c, 0, 96, 100
2, 424320, Note_on_c, 0, 98, 100
2, 424320, Note_on_c, 0, 84, 100
2, 424320, Note_on_c, 0, 72, 100
2, 424560, Note_on_c, 0, 96, 0
2, 424560, Note_on_c, 0, 98, 0
2, 424560, Note_on_c, 0, 84, 0
2, 424560, Note_on_c, 0, 72, 0
2, 424800, Note_on_c, 0, 96, 100
2, 424800, Note_on_c, 0, 98, 100
2, 424800, Note_on_c, 0, 84, 100
2, 425040, Note_on_c, 0, 96, 0
2, 425040, Note_on_c, 0, 98, 0
2, 425040, Note_on_c, 0, 84, 0
2, 425280, Note_on_c, 0, 60, 0
2, 425280, Note_on_c, 0, 96, 100
2, 425280, Note_on_c, 0, 98, 100
2, 425280, Note_on_c, 0, 84, 100
2, 425280, Note_on_c, 0, 72, 100
2, 425520, Note_on_c, 0, 96, 0
2, 425520, Note_on_c, 0, 98, 0
2, 425520, Note_on_c, 0, 84, 0
2, 425520, Note_on_c, 0, 72, 0
2, 425760, Note_on_c, 0, 96, 100
2, 425760, Note_on_c, 0, 98, 100
2, 425760, Note_on_c, 0, 84, 100
2, 426000, Note_on_c, 0, 96, 0
2, 426000, Note_on_c, 0, 98, 0
2, 426000, Note_on_c, 0, 84, 0
2, 426240, Note_on_c, 0, 105, 0
2, 426240, Note_on_c, 0, 93, 0
2, 426240, Note_on_c, 0, 69, 0
2, 426240, Note_on_c, 0, 81, 0
2, 426240, Note_on_c, 0, 99, 100
2, 426240, Note_on_c, 0, 87, 100
2, 426240, Note_on_c, 0, 75, 100
2, 426240, Note_on_c, 0, 62, 100
2, 426240, Note_on_c, 0, 106, 100
2, 426240, Note_on_c, 0, 94, 100
2, 426240, Note_on_c, 0, 70, 100
2, 426240, Note_on_c, 0, 82, 100
2, 426480, Note_on_c, 0, 99, 0
2, 426480, Note_on_c, 0, 87, 0
2, 426480, Note_on_c, 0, 75, 0
2, 426480, Note_on_c, 0, 62, 0
2, 426720, Note_on_c, 0, 96, 100
2, 426960, Note_on_c, 0, 96, 0
2, 427200, Note_on_c, 0, 96, 100
2, 427440, Note_on_c, 0, 96, 0
2, 427680, Note_on_c, 0, 98, 100
2, 427680, Note_on_c, 0, 86, 100
2, 427680, Note_on_c, 0, 74, 100
2, 427680, Note_on_c, 0, 61, 100
2, 427920, Note_on_c, 0, 98, 0
2, 427920, Note_on_c, 0, 86, 0
2, 427920, Note_on_c, 0, 74, 0
2, 427920, Note_on_c, 0, 61, 0
2, 428160, Note_on_c, 0, 96, 100
2, 428400, Note_on_c, 0, 96, 0
2, 428640, Note_on_c, 0, 96, 100
2, 428880, Note_on_c, 0, 96, 0
2, 429120, Note_on_c, 0, 97, 100
2, 429120, Note_on_c, 0, 85, 100
2, 429120, Note_on_c, 0, 73, 100
2, 429360, Note_on_c, 0, 97, 0
2, 429360, Note_on_c, 0, 85, 0
2, 429360, Note_on_c, 0, 73, 0
2, 429600, Note_on_c, 0, 96, 100
2, 429840, Note_on_c, 0, 96, 0
2, 430080, Note_on_c, 0, 96, 100
2, 430080, Note_on_c, 0, 98, 100
2, 430080, Note_on_c, 0, 84, 100
2, 430080, Note_on_c, 0, 72, 100
2, 430080, Note_on_c, 0, 60, 100
2, 430320, Note_on_c, 0, 96, 0
2, 430320, Note_on_c, 0, 98, 0
2, 430320, Note_on_c, 0, 84, 0
2, 430320, Note_on_c, 0, 72, 0
2, 430560, Note_on_c, 0, 96, 100
2, 430560, Note_on_c, 0, 98, 100
2, 430560, Note_on_c, 0, 84, 100
2, 430800, Note_on_c, 0, 96, 0
2, 430800, Note_on_c, 0, 98, 0
2, 430800, Note_on_c, 0, 84, 0
2, 431040, Note_on_c, 0, 96, 100
2, 431040, Note_on_c, 0, 98, 100
2, 431040, Note_on_c, 0, 84, 100
2, 431040, Note_on_c, 0, 72, 100
2, 431280, Note_on_c, 0, 96, 0
2, 431280, Note_on_c, 0, 98, 0
2, 431280, Note_on_c, 0, 84, 0
2, 431280, Note_on_c, 0, 72, 0
2, 431520, Note_on_c, 0, 96, 100
2, 431520, Note_on_c, 0, 98, 100
2, 431520, Note_on_c, 0, 84, 100
2, 431760, Note_on_c, 0, 96, 0
2, 431760, Note_on_c, 0, 98, 0
2, 431760, Note_on_c, 0, 84, 0
2, 432000, Note_on_c, 0, 96, 100
2, 432000, Note_on_c, 0, 98, 100
2, 432000, Note_on_c, 0, 84, 100
2, 432000, Note_on_c, 0, 72, 100
2, 432240, Note_on_c, 0, 96, 0
2, 432240, Note_on_c, 0, 98, 0
2, 432240, Note_on_c, 0, 84, 0
2, 432240, Note_on_c, 0, 72, 0
2, 432480, Note_on_c, 0, 96, 100
2, 432480, Note_on_c, 0, 98, 100
2, 432480, Note_on_c, 0, 84, 100
2, 432720, Note_on_c, 0, 96, 0
2, 432720, Note_on_c, 0, 98, 0
2, 432720, Note_on_c, 0, 84, 0
2, 432960, Note_on_c, 0, 60, 0
2, 432960, Note_on_c, 0, 96, 100
2, 432960, Note_on_c, 0, 98, 100
2, 432960, Note_on_c, 0, 84, 100
2, 432960, Note_on_c, 0, 72, 100
2, 433200, Note_on_c, 0, 96, 0
2, 433200, Note_on_c, 0, 98, 0
2, 433200, Note_on_c, 0, 84, 0
2, 433200, Note_on_c, 0, 72, 0
2, 433440, Note_on_c, 0, 96, 100
2, 433440, Note_on_c, 0, 98, 100
2, 433440, Note_on_c, 0, 84, 100
2, 433680, Note_on_c, 0, 96, 0
2, 433680, Note_on_c, 0, 98, 0
2, 433680, Note_on_c, 0, 84, 0
2, 433920, Note_on_c, 0, 106, 0
2, 433920, Note_on_c, 0, 94, 0
2, 433920, Note_on_c, 0, 70, 0
2, 433920, Note_on_c, 0, 82, 0
2, 433920, Note_on_c, 0, 99, 100
2, 433920, Note_on_c, 0, 87, 100
2, 433920, Note_on_c, 0, 75, 100
2, 433920, Note_on_c, 0, 62, 100
2, 433920, Note_on_c, 0, 105, 100
2, 433920, Note_on_c, 0, 93, 100
2, 433920, Note_on_c, 0, 69, 100
2, 433920, Note_on_c, 0, 81, 100
2, 434160, Note_on_c, 0, 99, 0
2, 434160, Note_on_c, 0, 87, 0
2, 434160, Note_on_c, 0, 75, 0
2, 434160, Note_on_c, 0, 62, 0
2, 434400, Note_on_c, 0, 96, 100
2, 434640, Note_on_c, 0, 96, 0
2, 434880, Note_on_c, 0, 96, 100
2, 435120, Note_on_c, 0, 96, 0
2, 435360, Note_on_c, 0, 98, 100
2, 435360, Note_on_c, 0, 86, 100
2, 435360, Note_on_c, 0, 74, 100
2, 435360, Note_on_c, 0, 61, 100
2, 435600, Note_on_c, 0, 98, 0
2, 435600, Note_on_c, 0, 86, 0
2, 435600, Note_on_c, 0, 74, 0
2, 435600, Note_on_c, 0, 61, 0
2, 435840, Note_on_c, 0, 96, 100
2, 436080, Note_on_c, 0, 96, 0
2, 436320, Note_on_c, 0, 96, 100
2, 436560, Note_on_c, 0, 96, 0
2, 436800, Note_on_c, 0, 97, 100
2, 436800, Note_on_c, 0, 85, 100
2, 436800, Note_on_c, 0, 73, 100
2, 437040, Note_on_c, 0, 97, 0
2, 437040, Note_on_c, 0, 85, 0
2, 437040, Note_on_c, 0, 73, 0
2, 437280, Note_on_c, 0, 96, 100
2, 437520, Note_on_c, 0, 96, 0
2, 437760, Note_on_c, 0, 96, 100
2, 437760, Note_on_c, 0, 98, 100
2, 437760, Note_on_c, 0, 84, 100
2, 437760, Note_on_c, 0, 72, 100
2, 437760, Note_on_c, 0, 60, 100
2, 438000, Note_on_c, 0, 96, 0
2, 438000, Note_on_c, 0, 98, 0
2, 438000, Note_on_c, 0, 84, 0
2, 438000, Note_on_c, 0, 72, 0
2, 438240, Note_on_c, 0, 96, 100
2, 438240, Note_on_c, 0, 98, 100
2, 438240, Note_on_c, 0, 84, 100
2, 438480, Note_on_c, 0, 96, 0
2, 438480, Note_on_c, 0, 98, 0
2, 438480, Note_on_c, 0, 84, 0
2, 438720, Note_on_c, 0, 96, 100
2, 438720, Note_on_c, 0, 98, 100
2, 438720, Note_on_c, 0, 84, 100
2, 438720, Note_on_c, 0, 72, 100
2, 438960, Note_on_c, 0, 96, 0
2, 438960, Note_on_c, 0, 98, 0
2, 438960, Note_on_c, 0, 84, 0
2, 438960, Note_on_c, 0, 72, 0
2, 439200, Note_on_c, 0, 96, 100
2, 439200, Note_on_c, 0, 98, 100
2, 439200, Note_on_c, 0, 84, 100
2, 439440, Note_on_c, 0, 96, 0
2, 439440, Note_on_c, 0, 98, 0
2, 439440, Note_on_c, 0, 84, 0
2, 439680, Note_on_c, 0, 96, 100
2, 439680, Note_on_c, 0, 98, 100
2, 439680, Note_on_c, 0, 84, 100
2, 439680, Note_on_c, 0, 72, 100
2, 439920, Note_on_c, 0, 96, 0
2, 439920, Note_on_c, 0, 98, 0
2, 439920, Note_on_c, 0, 84, 0
2, 439920, Note_on_c, 0, 72, 0
2, 440160, Note_on_c, 0, 96, 100
2, 440160, Note_on_c, 0, 98, 100
2, 440160, Note_on_c, 0, 84, 100
2, 440400, Note_on_c, 0, 96, 0
2, 440400, Note_on_c, 0, 98, 0
2, 440400, Note_on_c, 0, 84, 0
2, 440640, Note_on_c, 0, 60, 0
2, 440640, Note_on_c, 0, 96, 100
2, 440640, Note_on_c, 0, 98, 100
2, 440640, Note_on_c, 0, 84, 100
2, 440640, Note_on_c, 0, 72, 100
2, 440880, Note_on_c, 0, 96, 0
2, 440880, Note_on_c, 0, 98, 0
2, 440880, Note_on_c, 0, 84, 0
2, 440880, Note_on_c, 0, 72, 0
2, 441120, Note_on_c, 0, 96, 100
2, 441120, Note_on_c, 0, 98, 100
2, 441120, Note_on_c, 0, 84, 100
2, 441360, Note_on_c, 0, 96, 0
2, 441360, Note_on_c, 0, 98, 0
2, 441360, Note_on_c, 0, 84, 0
2, 441600, Note_on_c, 0, 105, 0
2, 441600, Note_on_c, 0, 93, 0
2, 441600, Note_on_c, 0, 69, 0
2, 441600, Note_on_c, 0, 81, 0
2, 441600, Note_on_c, 0, 99, 100
2, 441600, Note_on_c, 0, 87, 100
2, 441600, Note_on_c, 0, 75, 100
2, 441600, Note_on_c, 0, 62, 100
2, 441600, Note_on_c, 0, 106, 100
2, 441600, Note_on_c, 0, 94, 100
2, 441600, Note_on_c, 0, 70, 100
2, 441600, Note_on_c, 0, 82, 100
2, 441840, Note_on_c, 0, 99, 0
2, 441840, Note_on_c, 0, 87, 0
2, 441840, Note_on_c, 0, 75, 0
2, 441840, Note_on_c, 0, 62, 0
2, 442080, Note_on_c, 0, 96, 100
2, 442320, Note_on_c, 0, 96, 0
2, 442560, Note_on_c, 0, 96, 100
2, 442800, Note_on_c, 0, 96, 0
2, 443040, Note_on_c, 0, 98, 100
2, 443040, Note_on_c, 0, 86, 100
2, 443040, Note_on_c, 0, 74, 100
2, 443040, Note_on_c, 0, 61, 100
2, 443280, Note_on_c, 0, 98, 0
2, 443280, Note_on_c, 0, 86, 0
2, 443280, Note_on_c, 0, 74, 0
2, 443280, Note_on_c, 0, 61, 0
2, 443520, Note_on_c, 0, 96, 100
2, 443760, Note_on_c, 0, 96, 0
2, 444000, Note_on_c, 0, 96, 100
2, 444240, Note_on_c, 0, 96, 0
2, 444480, Note_on_c, 0, 97, 100
2, 444480, Note_on_c, 0, 85, 100
2, 444480, Note_on_c, 0, 73, 100
2, 444720, Note_on_c, 0, 97, 0
2, 444720, Note_on_c, 0, 85, 0
2, 444720, Note_on_c, 0, 73, 0
2, 444960, Note_on_c, 0, 96, 100
2, 445200, Note_on_c, 0, 96, 0
2, 445440, Note_on_c, 0, 96, 100
2, 445440, Note_on_c, 0, 98, 100
2, 445440, Note_on_c, 0, 84, 100
2, 445440, Note_on_c, 0, 72, 100
2, 445440, Note_on_c, 0, 60, 100
2, 445680, Note_on_c, 0, 96, 0
2, 445680, Note_on_c, 0, 98, 0
2, 445680, Note_on_c, 0, 84, 0
2, 445680, Note_on_c, 0, 72, 0
2, 445920, Note_on_c, 0, 96, 100
2, 445920, Note_on_c, 0, 98, 100
2, 445920, Note_on_c, 0, 84, 100
2, 446160, Note_on_c, 0, 96, 0
2, 446160, Note_on_c, 0, 98, 0
2, 446160, Note_on_c, 0, 84, 0
2, 446400, Note_on_c, 0, 96, 100
2, 446400, Note_on_c, 0, 98, 100
2, 446400, Note_on_c, 0, 84, 100
2, 446400, Note_on_c, 0, 72, 100
2, 446640, Note_on_c, 0, 96, 0
2, 446640, Note_on_c, 0, 98, 0
2, 446640, Note_on_c, 0, 84, 0
2, 446640, Note_on_c, 0, 72, 0
2, 446880, Note_on_c, 0, 96, 100
2, 446880, Note_on_c, 0, 98, 100
2, 446880, Note_on_c, 0, 84, 100
2, 447120, Note_on_c, 0, 96, 0
2, 447120, Note_on_c, 0, 98, 0
2, 447120, Note_on_c, 0, 84, 0
2, 447360, Note_on_c, 0, 96, 100
2, 447360, Note_on_c, 0, 98, 100
2, 447360, Note_on_c, 0, 84, 100
2, 447360, Note_on_c, 0, 72, 100
2, 447600, Note_on_c, 0, 96, 0
2, 447600, Note_on_c, 0, 98, 0
2, 447600, Note_on_c, 0, 84, 0
2, 447600, Note_on_c, 0, 72, 0
2, 447840, Note_on_c, 0, 96, 100
2, 447840, Note_on_c, 0, 98, 100
2, 447840, Note_on_c, 0, 84, 100
2, 448080, Note_on_c, 0, 96, 0
2, 448080, Note_on_c, 0, 98, 0
2, 448080, Note_on_c, 0, 84, 0
2, 448320, Note_on_c, 0, 60, 0
2, 448320, Note_on_c, 0, 96, 100
2, 448320, Note_on_c, 0, 98, 100
2, 448320, Note_on_c, 0, 84, 100
2, 448320, Note_on_c, 0, 72, 100
2, 448560, Note_on_c, 0, 96, 0
2, 448560, Note_on_c, 0, 98, 0
2, 448560, Note_on_c, 0, 84, 0
2, 448560, Note_on_c, 0, 72, 0
2, 448800, Note_on_c, 0, 96, 100
2, 448800, Note_on_c, 0, 98, 100
2, 448800, Note_on_c, 0, 84, 100
2, 449040, Note_on_c, 0, 96, 0
2, 449040, Note_on_c, 0, 98, 0
2, 449040, Note_on_c, 0, 84, 0
2, 449280, Note_on_c, 0, 99, 100
2, 449280, Note_on_c, 0, 87, 100
2, 449280, Note_on_c, 0, 75, 100
2, 449280, Note_on_c, 0, 62, 100
2, 449520, Note_on_c, 0, 99, 0
2, 449520, Note_on_c, 0, 87, 0
2, 449520, Note_on_c, 0, 75, 0
2, 449520, Note_on_c, 0, 62, 0
2, 449760, Note_on_c, 0, 96, 100
2, 450000, Note_on_c, 0, 96, 0
2, 450240, Note_on_c, 0, 96, 100
2, 450480, Note_on_c, 0, 96, 0
2, 450720, Note_on_c, 0, 98, 100
2, 450720, Note_on_c, 0, 86, 100
2, 450720, Note_on_c, 0, 74, 100
2, 450720, Note_on_c, 0, 61, 100
2, 450960, Note_on_c, 0, 98, 0
2, 450960, Note_on_c, 0, 86, 0
2, 450960, Note_on_c, 0, 74, 0
2, 450960, Note_on_c, 0, 61, 0
2, 451200, Note_on_c, 0, 96, 100
2, 451440, Note_on_c, 0, 96, 0
2, 451680, Note_on_c, 0, 96, 100
2, 451920, Note_on_c, 0, 96, 0
2, 452160, Note_on_c, 0, 97, 100
2, 452160, Note_on_c, 0, 85, 100
2, 452160, Note_on_c, 0, 73, 100
2, 452400, Note_on_c, 0, 97, 0
2, 452400, Note_on_c, 0, 85, 0
2, 452400, Note_on_c, 0, 73, 0
2, 452640, Note_on_c, 0, 96, 100
2, 452880, Note_on_c, 0, 96, 0
2, 453120, Note_on_c, 0, 96, 100
2, 453120, Note_on_c, 0, 98, 100
2, 453120, Note_on_c, 0, 84, 100
2, 453120, Note_on_c, 0, 86, 100
2, 453120, Note_on_c, 0, 72, 100
2, 453120, Note_on_c, 0, 60, 100
2, 453120, Note_on_c, 0, 105, 100
2, 453120, Note_on_c, 0, 93, 100
2, 453120, Note_on_c, 0, 69, 100
2, 453120, Note_on_c, 0, 81, 100
2, 453360, Note_on_c, 0, 96, 0
2, 453360, Note_on_c, 0, 98, 0
2, 453360, Note_on_c, 0, 84, 0
2, 453360, Note_on_c, 0, 86, 0
2, 453360, Note_on_c, 0, 72, 0
2, 453360, Note_on_c, 0, 60, 0
2, 453600, Note_on_c, 0, 106, 0
2, 453600, Note_on_c, 0, 94, 0
2, 453600, Note_on_c, 0, 70, 0
2, 453600, Note_on_c, 0, 82, 0
2, 453600, Note_on_c, 0, 105, 0
2, 453600, Note_on_c, 0, 93, 0
2, 453600, Note_on_c, 0, 69, 0
2, 453600, Note_on_c, 0, 81, 0
2, 464610, Text_t, "[verse]"
2, 464610, Text_t, "[idle]"
2, 476160, Note_on_c, 0, 96, 100
2, 476160, Note_on_c, 0, 84, 100
2, 476160, Note_on_c, 0, 72, 100
2, 476160, Note_on_c, 0, 60, 100
2, 476160, Note_on_c, 0, 105, 100
2, 476160, Note_on_c, 0, 93, 100
2, 476160, Note_on_c, 0, 69, 100
2, 476160, Note_on_c, 0, 81, 100
2, 476400, Note_on_c, 0, 96, 0
2, 476400, Note_on_c, 0, 84, 0
2, 476400, Note_on_c, 0, 72, 0
2, 476400, Note_on_c, 0, 60, 0
2, 476640, Note_on_c, 0, 96, 100
2, 476640, Note_on_c, 0, 84, 100
2, 476880, Note_on_c, 0, 96, 0
2, 476880, Note_on_c, 0, 84, 0
2, 477120, Note_on_c, 0, 96, 100
2, 477120, Note_on_c, 0, 84, 100
2, 477360, Note_on_c, 0, 96, 0
2, 477360, Note_on_c, 0, 84, 0
2, 477600, Note_on_c, 0, 98, 100
2, 477600, Note_on_c, 0, 86, 100
2, 477600, Note_on_c, 0, 73, 100
2, 477840, Note_on_c, 0, 98, 0
2, 477840, Note_on_c, 0, 86, 0
2, 477840, Note_on_c, 0, 73, 0
2, 478080, Note_on_c, 0, 98, 100
2, 478080, Note_on_c, 0, 86, 100
2, 478320, Note_on_c, 0, 98, 0
2, 478320, Note_on_c, 0, 86, 0
2, 478560, Note_on_c, 0, 98, 100
2, 478560, Note_on_c, 0, 86, 100
2, 478800, Note_on_c, 0, 98, 0
2, 478800, Note_on_c, 0, 86, 0
2, 479040, Note_on_c, 0, 97, 100
2, 479040, Note_on_c, 0, 85, 100
2, 479040, Note_on_c, 0, 72, 100
2, 479040, Note_on_c, 0, 61, 100
2, 479280, Note_on_c, 0, 97, 0
2, 479280, Note_on_c, 0, 85, 0
2, 479280, Note_on_c, 0, 72, 0
2, 479280, Note_on_c, 0, 61, 0
2, 479520, Note_on_c, 0, 97, 100
2, 479520, Note_on_c, 0, 85, 100
2, 479760, Note_on_c, 0, 97, 0
2, 479760, Note_on_c, 0, 85, 0
2, 480000, Note_on_c, 0, 97, 100
2, 480000, Note_on_c, 0, 85, 100
2, 480240, Note_on_c, 0, 97, 0
2, 480240, Note_on_c, 0, 85, 0
2, 480480, Note_on_c, 0, 99, 100
2, 480480, Note_on_c, 0, 87, 100
2, 480480, Note_on_c, 0, 74, 100
2, 480720, Note_on_c, 0, 99, 0
2, 480720, Note_on_c, 0, 87, 0
2, 480720, Note_on_c, 0, 74, 0
2, 480960, Note_on_c, 0, 99, 100
2, 480960, Note_on_c, 0, 87, 100
2, 481200, Note_on_c, 0, 99, 0
2, 481200, Note_on_c, 0, 87, 0
2, 481440, Note_on_c, 0, 99, 100
2, 481440, Note_on_c, 0, 87, 100
2, 481680, Note_on_c, 0, 99, 0
2, 481680, Note_on_c, 0, 87, 0
2, 481920, Text_t, "[verse]"
2, 481920, Text_t, "[lighting (blackout)]"
2, 481920, Note_on_c, 0, 98, 100
2, 481920, Note_on_c, 0, 86, 100
2, 481920, Note_on_c, 0, 73, 100
2, 481920, Note_on_c, 0, 61, 100
2, 482160, Note_on_c, 0, 98, 0
2, 482160, Note_on_c, 0, 86, 0
2, 482160, Note_on_c, 0, 73, 0
2, 482160, Note_on_c, 0, 61, 0
2, 482400, Note_on_c, 0, 98, 100
2, 482400, Note_on_c, 0, 86, 100
2, 482640, Note_on_c, 0, 98, 0
2, 482640, Note_on_c, 0, 86, 0
2, 482880, Note_on_c, 0, 98, 100
2, 482880, Note_on_c, 0, 86, 100
2, 483120, Note_on_c, 0, 98, 0
2, 483120, Note_on_c, 0, 86, 0
2, 483360, Note_on_c, 0, 100, 100
2, 483360, Note_on_c, 0, 88, 100
2, 483360, Note_on_c, 0, 75, 100
2, 483600, Note_on_c, 0, 100, 0
2, 483600, Note_on_c, 0, 88, 0
2, 483600, Note_on_c, 0, 75, 0
2, 483840, Note_on_c, 0, 100, 100
2, 483840, Note_on_c, 0, 88, 100
2, 484080, Note_on_c, 0, 100, 0
2, 484080, Note_on_c, 0, 88, 0
2, 484320, Note_on_c, 0, 100, 100
2, 484320, Note_on_c, 0, 88, 100
2, 484560, Note_on_c, 0, 100, 0
2, 484560, Note_on_c, 0, 88, 0
2, 484800, Note_on_c, 0, 99, 100
2, 484800, Note_on_c, 0, 87, 100
2, 484800, Note_on_c, 0, 74, 100
2, 484800, Note_on_c, 0, 62, 100
2, 485040, Note_on_c, 0, 99, 0
2, 485040, Note_on_c, 0, 87, 0
2, 485040, Note_on_c, 0, 74, 0
2, 485040, Note_on_c, 0, 62, 0
2, 485280, Note_on_c, 0, 99, 100
2, 485280, Note_on_c, 0, 87, 100
2, 485520, Note_on_c, 0, 99, 0
2, 485520, Note_on_c, 0, 87, 0
2, 485760, Note_on_c, 0, 99, 100
2, 485760, Note_on_c, 0, 87, 100
2, 486000, Note_on_c, 0, 99, 0
2, 486000, Note_on_c, 0, 87, 0
2, 486240, Note_on_c, 0, 100, 100
2, 486240, Note_on_c, 0, 88, 100
2, 486240, Note_on_c, 0, 75, 100
2, 486480, Note_on_c, 0, 100, 0
2, 486480, Note_on_c, 0, 88, 0
2, 486480, Note_on_c, 0, 75, 0
2, 486720, Note_on_c, 0, 100, 100
2, 486720, Note_on_c, 0, 88, 100
2, 486960, Note_on_c, 0, 100, 0
2, 486960, Note_on_c, 0, 88, 0
2, 487200, Note_on_c, 0, 100, 100
2, 487200, Note_on_c, 0, 88, 100
2, 487440, Note_on_c, 0, 100, 0
2, 487440, Note_on_c, 0, 88, 0
2, 487650, Text_t, "[play]"
2, 487680, Note_on_c, 0, 105, 0
2, 487680, Note_on_c, 0, 93, 0
2, 487680, Note_on_c, 0, 69, 0
2, 487680, Note_on_c, 0, 81, 0
2, 487680, Note_on_c, 0, 96, 100
2, 487680, Note_on_c, 0, 84, 100
2, 487680, Note_on_c, 0, 72, 100
2, 487680, Note_on_c, 0, 60, 100
2, 487680, Note_on_c, 0, 106, 100
2, 487680, Note_on_c, 0, 94, 100
2, 487680, Note_on_c, 0, 70, 100
2, 487680, Note_on_c, 0, 82, 100
2, 487920, Note_on_c, 0, 96, 0
2, 487920, Note_on_c, 0, 84, 0
2, 487920, Note_on_c, 0, 72, 0
2, 487920, Note_on_c, 0, 60, 0
2, 488160, Note_on_c, 0, 96, 100
2, 488160, Note_on_c, 0, 84, 100
2, 488400, Note_on_c, 0, 96, 0
2, 488400, Note_on_c, 0, 84, 0
2, 488640, Note_on_c, 0, 96, 100
2, 488640, Note_on_c, 0, 84, 100
2, 488880, Note_on_c, 0, 96, 0
2, 488880, Note_on_c, 0, 84, 0
2, 489120, Note_on_c, 0, 98, 100
2, 489120, Note_on_c, 0, 86, 100
2, 489120, Note_on_c, 0, 73, 100
2, 489360, Note_on_c, 0, 98, 0
2, 489360, Note_on_c, 0, 86, 0
2, 489360, Note_on_c, 0, 73, 0
2, 489600, Note_on_c, 0, 98, 100
2, 489600, Note_on_c, 0, 86, 100
2, 489840, Note_on_c, 0, 98, 0
2, 489840, Note_on_c, 0, 86, 0
2, 490080, Note_on_c, 0, 98, 100
2, 490080, Note_on_c, 0, 86, 100
2, 490320, Note_on_c, 0, 98, 0
2, 490320, Note_on_c, 0, 86, 0
2, 490560, Note_on_c, 0, 97, 100
2, 490560, Note_on_c, 0, 85, 100
2, 490560, Note_on_c, 0, 72, 100
2, 490560, Note_on_c, 0, 61, 100
2, 490800, Note_on_c, 0, 97, 0
2, 490800, Note_on_c, 0, 85, 0
2, 490800, Note_on_c, 0, 72, 0
2, 490800, Note_on_c, 0, 61, 0
2, 491040, Note_on_c, 0, 97, 100
2, 491040, Note_on_c, 0, 85, 100
2, 491280, Note_on_c, 0, 97, 0
2, 491280, Note_on_c, 0, 85, 0
2, 491520, Note_on_c, 0, 97, 100
2, 491520, Note_on_c, 0, 85, 100
2, 491760, Note_on_c, 0, 97, 0
2, 491760, Note_on_c, 0, 85, 0
2, 492000, Note_on_c, 0, 99, 100
2, 492000, Note_on_c, 0, 87, 100
2, 492000, Note_on_c, 0, 74, 100
2, 492240, Note_on_c, 0, 99, 0
2, 492240, Note_on_c, 0, 87, 0
2, 492240, Note_on_c, 0, 74, 0
2, 492480, Note_on_c, 0, 99, 100
2, 492480, Note_on_c, 0, 87, 100
2, 492720, Note_on_c, 0, 99, 0
2, 492720, Note_on_c, 0, 87, 0
2, 492960, Note_on_c, 0, 99, 100
2, 492960, Note_on_c, 0, 87, 100
2, 493200, Note_on_c, 0, 99, 0
2, 493200, Note_on_c, 0, 87, 0
2, 493440, Note_on_c, 0, 98, 100
2, 493440, Note_on_c, 0, 86, 100
2, 493440, Note_on_c, 0, 73, 100
2, 493440, Note_on_c, 0, 61, 100
2, 493680, Note_on_c, 0, 98, 0
2, 493680, Note_on_c, 0, 86, 0
2, 493680, Note_on_c, 0, 73, 0
2, 493680, Note_on_c, 0, 61, 0
2, 493920, Note_on_c, 0, 98, 100
2, 493920, Note_on_c, 0, 86, 100
2, 494160, Note_on_c, 0, 98, 0
2, 494160, Note_on_c, 0, 86, 0
2, 494400, Note_on_c, 0, 98, 100
2, 494400, Note_on_c, 0, 86, 100
2, 494640, Note_on_c, 0, 98, 0
2, 494640, Note_on_c, 0, 86, 0
2, 494880, Note_on_c, 0, 100, 100
2, 494880, Note_on_c, 0, 88, 100
2, 494880, Note_on_c, 0, 75, 100
2, 495120, Note_on_c, 0, 100, 0
2, 495120, Note_on_c, 0, 88, 0
2, 495120, Note_on_c, 0, 75, 0
2, 495360, Note_on_c, 0, 100, 100
2, 495360, Note_on_c, 0, 88, 100
2, 495600, Note_on_c, 0, 100, 0
2, 495600, Note_on_c, 0, 88, 0
2, 495840, Note_on_c, 0, 100, 100
2, 495840, Note_on_c, 0, 88, 100
2, 496080, Note_on_c, 0, 100, 0
2, 496080, Note_on_c, 0, 88, 0
2, 496320, Note_on_c, 0, 99, 100
2, 496320, Note_on_c, 0, 87, 100
2, 496320, Note_on_c, 0, 74, 100
2, 496320, Note_on_c, 0, 62, 100
2, 496560, Note_on_c, 0, 99, 0
2, 496560, Note_on_c, 0, 87, 0
2, 496560, Note_on_c, 0, 74, 0
2, 496560, Note_on_c, 0, 62, 0
2, 496800, Note_on_c, 0, 99, 100
2, 496800, Note_on_c, 0, 87, 100
2, 497040, Note_on_c, 0, 99, 0
2, 497040, Note_on_c, 0, 87, 0
2, 497280, Note_on_c, 0, 99, 100
2, 497280, Note_on_c, 0, 87, 100
2, 497520, Note_on_c, 0, 99, 0
2, 497520, Note_on_c, 0, 87, 0
2, 497760, Note_on_c, 0, 100, 100
2, 497760, Note_on_c, 0, 88, 100
2, 497760, Note_on_c, 0, 75, 100
2, 498000, Note_on_c, 0, 100, 0
2, 498000, Note_on_c, 0, 88, 0
2, 498000, Note_on_c, 0, 75, 0
2, 498240, Note_on_c, 0, 100, 100
2, 498240, Note_on_c, 0, 88, 100
2, 498480, Note_on_c, 0, 100, 0
2, 498480, Note_on_c, 0, 88, 0
2, 498720, Note_on_c, 0, 100, 100
2, 498720, Note_on_c, 0, 88, 100
2, 498720, Note_on_c, 0, 105, 100
2, 498720, Note_on_c, 0, 93, 100
2, 498720, Note_on_c, 0, 69, 100
2, 498720, Note_on_c, 0, 81, 100
2, 498960, Note_on_c, 0, 100, 0
2, 498960, Note_on_c, 0, 88, 0
2, 499170, Text_t, "drum_allbeat"
2, 499200, Note_on_c, 0, 100, 100
2, 499200, Note_on_c, 0, 98, 100
2, 499200, Note_on_c, 0, 88, 100
2, 499200, Note_on_c, 0, 86, 100
2, 499200, Note_on_c, 0, 75, 100
2, 499200, Note_on_c, 0, 74, 100
2, 499200, Note_on_c, 0, 62, 100
2, 499200, Note_on_c, 0, 103, 100
2, 499200, Note_on_c, 0, 91, 100
2, 499200, Note_on_c, 0, 67, 100
2, 499200, Note_on_c, 0, 79, 100
2, 504960, Text_t, "[play]"
2, 504960, Text_t, "[lighting (color2)]"
2, 510690, Text_t, "bass_off"
2, 512610, Text_t, "drum_off"
2, 516238, Note_on_c, 0, 100, 0
2, 516238, Note_on_c, 0, 98, 0
2, 516238, Note_on_c, 0, 88, 0
2, 516238, Note_on_c, 0, 86, 0
2, 516238, Note_on_c, 0, 75, 0
2, 516238, Note_on_c, 0, 74, 0
2, 516238, Note_on_c, 0, 62, 0
2, 516480, Text_t, "[lighting ()]"
2, 516480, Note_on_c, 0, 106, 0
2, 516480, Note_on_c, 0, 94, 0
2, 516480, Note_on_c, 0, 70, 0
2, 516480, Note_on_c, 0, 82, 0
2, 516480, Note_on_c, 0, 103, 0
2, 516480, Note_on_c, 0, 91, 0
2, 516480, Note_on_c, 0, 67, 0
2, 516480, Note_on_c, 0, 79, 0
2, 516480, Note_on_c, 0, 84, 100
2, 516480, Note_on_c, 0, 96, 100
2, 516480, Note_on_c, 0, 72, 100
2, 516720, Note_on_c, 0, 84, 0
2, 516720, Note_on_c, 0, 96, 0
2, 516720, Note_on_c, 0, 72, 0
2, 517440, Note_on_c, 0, 73, 100
2, 517440, Note_on_c, 0, 85, 100
2, 517440, Note_on_c, 0, 98, 100
2, 517440, Note_on_c, 0, 60, 100
2, 517680, Note_on_c, 0, 73, 0
2, 517680, Note_on_c, 0, 85, 0
2, 517680, Note_on_c, 0, 98, 0
2, 517680, Note_on_c, 0, 60, 0
2, 518400, Note_on_c, 0, 84, 100
2, 518400, Note_on_c, 0, 96, 100
2, 518400, Note_on_c, 0, 72, 100
2, 518640, Note_on_c, 0, 84, 0
2, 518640, Note_on_c, 0, 96, 0
2, 518640, Note_on_c, 0, 72, 0
2, 519360, Note_on_c, 0, 73, 100
2, 519360, Note_on_c, 0, 85, 100
2, 519360, Note_on_c, 0, 98, 100
2, 519360, Note_on_c, 0, 60, 100
2, 519600, Note_on_c, 0, 73, 0
2, 519600, Note_on_c, 0, 85, 0
2, 519600, Note_on_c, 0, 98, 0
2, 519600, Note_on_c, 0, 60, 0
2, 521280, Note_on_c, 0, 73, 100
2, 521280, Note_on_c, 0, 85, 100
2, 521280, Note_on_c, 0, 98, 100
2, 521520, Note_on_c, 0, 73, 0
2, 521520, Note_on_c, 0, 85, 0
2, 521520, Note_on_c, 0, 98, 0
2, 522240, Note_on_c, 0, 74, 100
2, 522240, Note_on_c, 0, 86, 100
2, 522240, Note_on_c, 0, 99, 100
2, 522240, Note_on_c, 0, 61, 100
2, 522480, Note_on_c, 0, 74, 0
2, 522480, Note_on_c, 0, 86, 0
2, 522480, Note_on_c, 0, 99, 0
2, 522480, Note_on_c, 0, 61, 0
2, 523200, Note_on_c, 0, 84, 100
2, 523200, Note_on_c, 0, 96, 100
2, 523200, Note_on_c, 0, 72, 100
2, 523440, Note_on_c, 0, 84, 0
2, 523440, Note_on_c, 0, 96, 0
2, 523440, Note_on_c, 0, 72, 0
2, 524160, Note_on_c, 0, 74, 100
2, 524160, Note_on_c, 0, 86, 100
2, 524160, Note_on_c, 0, 99, 100
2, 524160, Note_on_c, 0, 61, 100
2, 524400, Note_on_c, 0, 74, 0
2, 524400, Note_on_c, 0, 86, 0
2, 524400, Note_on_c, 0, 99, 0
2, 524400, Note_on_c, 0, 61, 0
2, 525120, Note_on_c, 0, 84, 100
2, 525120, Note_on_c, 0, 96, 100
2, 525120, Note_on_c, 0, 72, 100
2, 525360, Note_on_c, 0, 84, 0
2, 525360, Note_on_c, 0, 96, 0
2, 525360, Note_on_c, 0, 72, 0
2, 526080, Note_on_c, 0, 74, 100
2, 526080, Note_on_c, 0, 86, 100
2, 526080, Note_on_c, 0, 99, 100
2, 526320, Note_on_c, 0, 74, 0
2, 526320, Note_on_c, 0, 86, 0
2, 526320, Note_on_c, 0, 99, 0
2, 527040, Note_on_c, 0, 84, 100
2, 527040, Note_on_c, 0, 96, 100
2, 527040, Note_on_c, 0, 72, 100
2, 527280, Note_on_c, 0, 84, 0
2, 527280, Note_on_c, 0, 96, 0
2, 527280, Note_on_c, 0, 72, 0
2, 527970, Text_t, "[solo]"
2, 527970, Text_t, "drum_allbeat"
2, 528000, Text_t, "bass_off"
2, 528000, Note_on_c, 0, 75, 100
2, 528000, Note_on_c, 0, 87, 100
2, 528000, Note_on_c, 0, 100, 100
2, 528000, Note_on_c, 0, 62, 100
2, 528240, Note_on_c, 0, 75, 0
2, 528240, Note_on_c, 0, 87, 0
2, 528240, Note_on_c, 0, 100, 0
2, 528240, Note_on_c, 0, 62, 0
2, 528960, Note_on_c, 0, 84, 100
2, 528960, Note_on_c, 0, 96, 100
2, 528960, Note_on_c, 0, 72, 100
2, 529200, Note_on_c, 0, 84, 0
2, 529200, Note_on_c, 0, 96, 0
2, 529200, Note_on_c, 0, 72, 0
2, 529890, Text_t, "drum_off"
2, 529920, Text_t, "[lighting (flare)]"
2, 529920, Note_on_c, 0, 75, 100
2, 529920, Note_on_c, 0, 87, 100
2, 529920, Note_on_c, 0, 100, 100
2, 529920, Note_on_c, 0, 62, 100
2, 530160, Note_on_c, 0, 75, 0
2, 530160, Note_on_c, 0, 87, 0
2, 530160, Note_on_c, 0, 100, 0
2, 530160, Note_on_c, 0, 62, 0
2, 530880, Note_on_c, 0, 84, 100
2, 530880, Note_on_c, 0, 96, 100
2, 530880, Note_on_c, 0, 72, 100
2, 531120, Note_on_c, 0, 84, 0
2, 531120, Note_on_c, 0, 96, 0
2, 531120, Note_on_c, 0, 72, 0
2, 531840, Note_on_c, 0, 75, 100
2, 531840, Note_on_c, 0, 87, 100
2, 531840, Note_on_c, 0, 100, 100
2, 532080, Note_on_c, 0, 75, 0
2, 532080, Note_on_c, 0, 87, 0
2, 532080, Note_on_c, 0, 100, 0
2, 532800, Note_on_c, 0, 84, 100
2, 532800, Note_on_c, 0, 96, 100
2, 532800, Note_on_c, 0, 72, 100
2, 533040, Note_on_c, 0, 84, 0
2, 533040, Note_on_c, 0, 96, 0
2, 533040, Note_on_c, 0, 72, 0
2, 533760, Note_on_c, 0, 73, 100
2, 533760, Note_on_c, 0, 86, 100
2, 533760, Note_on_c, 0, 98, 100
2, 533760, Note_on_c, 0, 61, 100
2, 534000, Note_on_c, 0, 73, 0
2, 534000, Note_on_c, 0, 86, 0
2, 534000, Note_on_c, 0, 98, 0
2, 534000, Note_on_c, 0, 61, 0
2, 534720, Note_on_c, 0, 84, 100
2, 534720, Note_on_c, 0, 96, 100
2, 534720, Note_on_c, 0, 72, 100
2, 534960, Note_on_c, 0, 84, 0
2, 534960, Note_on_c, 0, 96, 0
2, 534960, Note_on_c, 0, 72, 0
2, 535680, Note_on_c, 0, 73, 100
2, 535680, Note_on_c, 0, 86, 100
2, 535680, Note_on_c, 0, 98, 100
2, 535680, Note_on_c, 0, 61, 100
2, 535920, Note_on_c, 0, 73, 0
2, 535920, Note_on_c, 0, 86, 0
2, 535920, Note_on_c, 0, 98, 0
2, 535920, Note_on_c, 0, 61, 0
2, 536640, Note_on_c, 0, 84, 100
2, 536640, Note_on_c, 0, 96, 100
2, 536640, Note_on_c, 0, 72, 100
2, 536880, Note_on_c, 0, 84, 0
2, 536880, Note_on_c, 0, 96, 0
2, 536880, Note_on_c, 0, 72, 0
2, 537600, Note_on_c, 0, 73, 100
2, 537600, Note_on_c, 0, 86, 100
2, 537600, Note_on_c, 0, 98, 100
2, 537840, Note_on_c, 0, 73, 0
2, 537840, Note_on_c, 0, 86, 0
2, 537840, Note_on_c, 0, 98, 0
2, 538560, Note_on_c, 0, 84, 100
2, 538560, Note_on_c, 0, 96, 100
2, 538560, Note_on_c, 0, 72, 100
2, 538800, Note_on_c, 0, 84, 0
2, 538800, Note_on_c, 0, 96, 0
2, 538800, Note_on_c, 0, 72, 0
2, 539520, Note_on_c, 0, 105, 0
2, 539520, Note_on_c, 0, 93, 0
2, 539520, Note_on_c, 0, 69, 0
2, 539520, Note_on_c, 0, 81, 0
2, 539520, Note_on_c, 0, 74, 100
2, 539520, Note_on_c, 0, 87, 100
2, 539520, Note_on_c, 0, 99, 100
2, 539520, Note_on_c, 0, 62, 100
2, 539520, Note_on_c, 0, 106, 100
2, 539520, Note_on_c, 0, 94, 100
2, 539520, Note_on_c, 0, 70, 100
2, 539520, Note_on_c, 0, 82, 100
2, 539760, Note_on_c, 0, 74, 0
2, 539760, Note_on_c, 0, 87, 0
2, 539760, Note_on_c, 0, 99, 0
2, 539760, Note_on_c, 0, 62, 0
2, 540480, Note_on_c, 0, 84, 100
2, 540480, Note_on_c, 0, 96, 100
2, 540480, Note_on_c, 0, 72, 100
2, 540720, Note_on_c, 0, 84, 0
2, 540720, Note_on_c, 0, 96, 0
2, 540720, Note_on_c, 0, 72, 0
2, 541440, Note_on_c, 0, 74, 100
2, 541440, Note_on_c, 0, 87, 100
2, 541440, Note_on_c, 0, 99, 100
2, 541440, Note_on_c, 0, 62, 100
2, 541680, Note_on_c, 0, 74, 0
2, 541680, Note_on_c, 0, 87, 0
2, 541680, Note_on_c, 0, 99, 0
2, 541680, Note_on_c, 0, 62, 0
2, 542400, Note_on_c, 0, 84, 100
2, 542400, Note_on_c, 0, 96, 100
2, 542400, Note_on_c, 0, 72, 100
2, 542640, Note_on_c, 0, 84, 0
2, 542640, Note_on_c, 0, 96, 0
2, 542640, Note_on_c, 0, 72, 0
2, 543360, Note_on_c, 0, 74, 100
2, 543360, Note_on_c, 0, 87, 100
2, 543360, Note_on_c, 0, 99, 100
2, 543600, Note_on_c, 0, 74, 0
2, 543600, Note_on_c, 0, 87, 0
2, 543600, Note_on_c, 0, 99, 0
2, 544320, Note_on_c, 0, 84, 100
2, 544320, Note_on_c, 0, 96, 100
2, 544320, Note_on_c, 0, 72, 100
2, 544560, Note_on_c, 0, 84, 0
2, 544560, Note_on_c, 0, 96, 0
2, 544560, Note_on_c, 0, 72, 0
2, 545280, Text_t, "[solo]"
2, 545280, Text_t, "[lighting ()]"
2, 545280, Note_on_c, 0, 85, 100
2, 545280, Note_on_c, 0, 97, 100
2, 545280, Note_on_c, 0, 60, 100
2, 545280, Note_on_c, 0, 73, 100
2, 545520, Note_on_c, 0, 85, 0
2, 545520, Note_on_c, 0, 97, 0
2, 545520, Note_on_c, 0, 60, 0
2, 545520, Note_on_c, 0, 73, 0
2, 546240, Note_on_c, 0, 84, 100
2, 546240, Note_on_c, 0, 96, 100
2, 546240, Note_on_c, 0, 72, 100
2, 546480, Note_on_c, 0, 84, 0
2, 546480, Note_on_c, 0, 96, 0
2, 546480, Note_on_c, 0, 72, 0
2, 547200, Text_t, "[lighting (flare)]"
2, 547200, Note_on_c, 0, 85, 100
2, 547200, Note_on_c, 0, 97, 100
2, 547200, Note_on_c, 0, 60, 100
2, 547200, Note_on_c, 0, 73, 100
2, 547440, Note_on_c, 0, 85, 0
2, 547440, Note_on_c, 0, 97, 0
2, 547440, Note_on_c, 0, 60, 0
2, 547440, Note_on_c, 0, 73, 0
2, 548160, Note_on_c, 0, 84, 100
2, 548160, Note_on_c, 0, 96, 100
2, 548160, Note_on_c, 0, 72, 100
2, 548400, Note_on_c, 0, 84, 0
2, 548400, Note_on_c, 0, 96, 0
2, 548400, Note_on_c, 0, 72, 0
2, 549120, Note_on_c, 0, 85, 100
2, 549120, Note_on_c, 0, 97, 100
2, 549120, Note_on_c, 0, 73, 100
2, 549360, Note_on_c, 0, 85, 0
2, 549360, Note_on_c, 0, 97, 0
2, 549360, Note_on_c, 0, 73, 0
2, 550080, Note_on_c, 0, 84, 100
2, 550080, Note_on_c, 0, 96, 100
2, 550080, Note_on_c, 0, 72, 100
2, 550320, Note_on_c, 0, 84, 0
2, 550320, Note_on_c, 0, 96, 0
2, 550320, Note_on_c, 0, 72, 0
2, 551040, Note_on_c, 0, 85, 100
2, 551040, Note_on_c, 0, 97, 100
2, 551040, Note_on_c, 0, 73, 100
2, 551280, Note_on_c, 0, 85, 0
2, 551280, Note_on_c, 0, 97, 0
2, 551280, Note_on_c, 0, 73, 0
2, 552000, Note_on_c, 0, 74, 100
2, 552000, Note_on_c, 0, 87, 100
2, 552000, Note_on_c, 0, 99, 100
2, 552000, Note_on_c, 0, 62, 100
2, 552240, Note_on_c, 0, 74, 0
2, 552240, Note_on_c, 0, 87, 0
2, 552240, Note_on_c, 0, 99, 0
2, 552240, Note_on_c, 0, 62, 0
2, 552960, Note_on_c, 0, 85, 100
2, 552960, Note_on_c, 0, 97, 100
2, 552960, Note_on_c, 0, 73, 100
2, 553200, Note_on_c, 0, 85, 0
2, 553200, Note_on_c, 0, 97, 0
2, 553200, Note_on_c, 0, 73, 0
2, 553920, Note_on_c, 0, 74, 100
2, 553920, Note_on_c, 0, 87, 100
2, 553920, Note_on_c, 0, 99, 100
2, 553920, Note_on_c, 0, 62, 100
2, 554160, Note_on_c, 0, 74, 0
2, 554160, Note_on_c, 0, 87, 0
2, 554160, Note_on_c, 0, 99, 0
2, 554160, Note_on_c, 0, 62, 0
2, 554880, Note_on_c, 0, 85, 100
2, 554880, Note_on_c, 0, 97, 100
2, 554880, Note_on_c, 0, 73, 100
2, 555120, Note_on_c, 0, 85, 0
2, 555120, Note_on_c, 0, 97, 0
2, 555120, Note_on_c, 0, 73, 0
2, 555840, Note_on_c, 0, 74, 100
2, 555840, Note_on_c, 0, 87, 100
2, 555840, Note_on_c, 0, 99, 100
2, 556080, Note_on_c, 0, 74, 0
2, 556080, Note_on_c, 0, 87, 0
2, 556080, Note_on_c, 0, 99, 0
2, 556800, Note_on_c, 0, 85, 100
2, 556800, Note_on_c, 0, 97, 100
2, 556800, Note_on_c, 0, 73, 100
2, 557040, Note_on_c, 0, 85, 0
2, 557040, Note_on_c, 0, 97, 0
2, 557040, Note_on_c, 0, 73, 0
2, 557760, Note_on_c, 0, 74, 100
2, 557760, Note_on_c, 0, 87, 100
2, 557760, Note_on_c, 0, 99, 100
2, 557760, Note_on_c, 0, 62, 100
2, 558000, Note_on_c, 0, 74, 0
2, 558000, Note_on_c, 0, 87, 0
2, 558000, Note_on_c, 0, 99, 0
2, 558000, Note_on_c, 0, 62, 0
2, 558720, Note_on_c, 0, 85, 100
2, 558720, Note_on_c, 0, 97, 100
2, 558720, Note_on_c, 0, 73, 100
2, 558960, Note_on_c, 0, 85, 0
2, 558960, Note_on_c, 0, 97, 0
2, 558960, Note_on_c, 0, 73, 0
2, 559680, Note_on_c, 0, 74, 100
2, 559680, Note_on_c, 0, 87, 100
2, 559680, Note_on_c, 0, 99, 100
2, 559680, Note_on_c, 0, 62, 100
2, 559920, Note_on_c, 0, 74, 0
2, 559920, Note_on_c, 0, 87, 0
2, 559920, Note_on_c, 0, 99, 0
2, 559920, Note_on_c, 0, 62, 0
2, 560640, Note_on_c, 0, 85, 100
2, 560640, Note_on_c, 0, 97, 100
2, 560640, Note_on_c, 0, 73, 100
2, 560880, Note_on_c, 0, 85, 0
2, 560880, Note_on_c, 0, 97, 0
2, 560880, Note_on_c, 0, 73, 0
2, 561600, Note_on_c, 0, 74, 100
2, 561600, Note_on_c, 0, 87, 100
2, 561600, Note_on_c, 0, 99, 100
2, 561840, Note_on_c, 0, 74, 0
2, 561840, Note_on_c, 0, 87, 0
2, 561840, Note_on_c, 0, 99, 0
2, 562530, Text_t, "drum_double"
2, 562530, Text_t, "bass_on"
2, 562530, Text_t, "[verse]"
2, 562560, Note_on_c, 0, 73, 100
2, 562560, Note_on_c, 0, 86, 100
2, 562560, Note_on_c, 0, 84, 100
2, 562560, Note_on_c, 0, 98, 100
2, 562560, Note_on_c, 0, 96, 100
2, 562560, Note_on_c, 0, 61, 100
2, 562560, Note_on_c, 0, 105, 100
2, 562560, Note_on_c, 0, 93, 100
2, 562560, Note_on_c, 0, 69, 100
2, 562560, Note_on_c, 0, 81, 100
2, 562800, Note_on_c, 0, 73, 0
2, 562800, Note_on_c, 0, 86, 0
2, 562800, Note_on_c, 0, 84, 0
2, 562800, Note_on_c, 0, 98, 0
2, 562800, Note_on_c, 0, 96, 0
2, 562800, Note_on_c, 0, 61, 0
2, 564000, Note_on_c, 0, 86, 100
2, 564000, Note_on_c, 0, 84, 100
2, 564000, Note_on_c, 0, 98, 100
2, 564000, Note_on_c, 0, 96, 100
2, 564240, Note_on_c, 0, 86, 0
2, 564240, Note_on_c, 0, 84, 0
2, 564240, Note_on_c, 0, 98, 0
2, 564240, Note_on_c, 0, 96, 0
2, 564480, Note_on_c, 0, 73, 100
2, 564480, Note_on_c, 0, 86, 100
2, 564480, Note_on_c, 0, 84, 100
2, 564480, Note_on_c, 0, 98, 100
2, 564480, Note_on_c, 0, 96, 100
2, 564720, Note_on_c, 0, 73, 0
2, 564720, Note_on_c, 0, 86, 0
2, 564720, Note_on_c, 0, 84, 0
2, 564720, Note_on_c, 0, 98, 0
2, 564720, Note_on_c, 0, 96, 0
2, 564960, Note_on_c, 0, 86, 100
2, 564960, Note_on_c, 0, 84, 100
2, 564960, Note_on_c, 0, 98, 100
2, 564960, Note_on_c, 0, 96, 100
2, 565200, Note_on_c, 0, 86, 0
2, 565200, Note_on_c, 0, 84, 0
2, 565200, Note_on_c, 0, 98, 0
2, 565200, Note_on_c, 0, 96, 0
2, 565440, Note_on_c, 0, 73, 100
2, 565440, Note_on_c, 0, 86, 100
2, 565440, Note_on_c, 0, 84, 100
2, 565440, Note_on_c, 0, 98, 100
2, 565440, Note_on_c, 0, 96, 100
2, 565440, Note_on_c, 0, 61, 100
2, 565680, Note_on_c, 0, 73, 0
2, 565680, Note_on_c, 0, 86, 0
2, 565680, Note_on_c, 0, 84, 0
2, 565680, Note_on_c, 0, 98, 0
2, 565680, Note_on_c, 0, 96, 0
2, 565680, Note_on_c, 0, 61, 0
2, 566400, Note_on_c, 0, 86, 100
2, 566400, Note_on_c, 0, 84, 100
2, 566400, Note_on_c, 0, 98, 100
2, 566400, Note_on_c, 0, 96, 100
2, 566640, Note_on_c, 0, 86, 0
2, 566640, Note_on_c, 0, 84, 0
2, 566640, Note_on_c, 0, 98, 0
2, 566640, Note_on_c, 0, 96, 0
2, 566880, Note_on_c, 0, 86, 100
2, 566880, Note_on_c, 0, 84, 100
2, 566880, Note_on_c, 0, 98, 100
2, 566880, Note_on_c, 0, 96, 100
2, 567120, Note_on_c, 0, 86, 0
2, 567120, Note_on_c, 0, 84, 0
2, 567120, Note_on_c, 0, 98, 0
2, 567120, Note_on_c, 0, 96, 0
2, 567360, Note_on_c, 0, 73, 100
2, 567360, Note_on_c, 0, 86, 100
2, 567360, Note_on_c, 0, 84, 100
2, 567360, Note_on_c, 0, 98, 100
2, 567360, Note_on_c, 0, 96, 100
2, 567600, Note_on_c, 0, 73, 0
2, 567600, Note_on_c, 0, 86, 0
2, 567600, Note_on_c, 0, 84, 0
2, 567600, Note_on_c, 0, 98, 0
2, 567600, Note_on_c, 0, 96, 0
2, 567840, Note_on_c, 0, 86, 100
2, 567840, Note_on_c, 0, 84, 100
2, 567840, Note_on_c, 0, 98, 100
2, 567840, Note_on_c, 0, 96, 100
2, 568080, Note_on_c, 0, 86, 0
2, 568080, Note_on_c, 0, 84, 0
2, 568080, Note_on_c, 0, 98, 0
2, 568080, Note_on_c, 0, 96, 0
2, 568320, Note_on_c, 0, 73, 100
2, 568320, Note_on_c, 0, 86, 100
2, 568320, Note_on_c, 0, 84, 100
2, 568320, Note_on_c, 0, 98, 100
2, 568320, Note_on_c, 0, 96, 100
2, 568320, Note_on_c, 0, 61, 100
2, 568560, Note_on_c, 0, 73, 0
2, 568560, Note_on_c, 0, 86, 0
2, 568560, Note_on_c, 0, 84, 0
2, 568560, Note_on_c, 0, 98, 0
2, 568560, Note_on_c, 0, 96, 0
2, 568560, Note_on_c, 0, 61, 0
2, 569280, Note_on_c, 0, 86, 100
2, 569280, Note_on_c, 0, 84, 100
2, 569280, Note_on_c, 0, 98, 100
2, 569280, Note_on_c, 0, 96, 100
2, 569520, Note_on_c, 0, 86, 0
2, 569520, Note_on_c, 0, 84, 0
2, 569520, Note_on_c, 0, 98, 0
2, 569520, Note_on_c, 0, 96, 0
2, 569760, Note_on_c, 0, 86, 100
2, 569760, Note_on_c, 0, 84, 100
2, 569760, Note_on_c, 0, 98, 100
2, 569760, Note_on_c, 0, 96, 100
2, 570000, Note_on_c, 0, 86, 0
2, 570000, Note_on_c, 0, 84, 0
2, 570000, Note_on_c, 0, 98, 0
2, 570000, Note_on_c, 0, 96, 0
2, 570240, Note_on_c, 0, 73, 100
2, 570240, Note_on_c, 0, 86, 100
2, 570240, Note_on_c, 0, 84, 100
2, 570240, Note_on_c, 0, 98, 100
2, 570240, Note_on_c, 0, 96, 100
2, 570480, Note_on_c, 0, 73, 0
2, 570480, Note_on_c, 0, 86, 0
2, 570480, Note_on_c, 0, 84, 0
2, 570480, Note_on_c, 0, 98, 0
2, 570480, Note_on_c, 0, 96, 0
2, 570720, Note_on_c, 0, 86, 100
2, 570720, Note_on_c, 0, 84, 100
2, 570720, Note_on_c, 0, 98, 100
2, 570720, Note_on_c, 0, 96, 100
2, 570960, Note_on_c, 0, 86, 0
2, 570960, Note_on_c, 0, 84, 0
2, 570960, Note_on_c, 0, 98, 0
2, 570960, Note_on_c, 0, 96, 0
2, 571200, Note_on_c, 0, 73, 100
2, 571200, Note_on_c, 0, 86, 100
2, 571200, Note_on_c, 0, 84, 100
2, 571200, Note_on_c, 0, 98, 100
2, 571200, Note_on_c, 0, 96, 100
2, 571200, Note_on_c, 0, 61, 100
2, 571440, Note_on_c, 0, 73, 0
2, 571440, Note_on_c, 0, 86, 0
2, 571440, Note_on_c, 0, 84, 0
2, 571440, Note_on_c, 0, 98, 0
2, 571440, Note_on_c, 0, 96, 0
2, 571440, Note_on_c, 0, 61, 0
2, 572160, Note_on_c, 0, 73, 100
2, 572160, Note_on_c, 0, 86, 100
2, 572160, Note_on_c, 0, 84, 100
2, 572160, Note_on_c, 0, 98, 100
2, 572160, Note_on_c, 0, 96, 100
2, 572400, Note_on_c, 0, 73, 0
2, 572400, Note_on_c, 0, 86, 0
2, 572400, Note_on_c, 0, 84, 0
2, 572400, Note_on_c, 0, 98, 0
2, 572400, Note_on_c, 0, 96, 0
2, 572640, Note_on_c, 0, 86, 100
2, 572640, Note_on_c, 0, 84, 100
2, 572640, Note_on_c, 0, 98, 100
2, 572640, Note_on_c, 0, 96, 100
2, 572880, Note_on_c, 0, 86, 0
2, 572880, Note_on_c, 0, 84, 0
2, 572880, Note_on_c, 0, 98, 0
2, 572880, Note_on_c, 0, 96, 0
2, 573120, Note_on_c, 0, 73, 100
2, 573120, Note_on_c, 0, 86, 100
2, 573120, Note_on_c, 0, 84, 100
2, 573120, Note_on_c, 0, 98, 100
2, 573120, Note_on_c, 0, 96, 100
2, 573360, Note_on_c, 0, 73, 0
2, 573360, Note_on_c, 0, 86, 0
2, 573360, Note_on_c, 0, 84, 0
2, 573360, Note_on_c, 0, 98, 0
2, 573360, Note_on_c, 0, 96, 0
2, 573600, Note_on_c, 0, 86, 100
2, 573600, Note_on_c, 0, 84, 100
2, 573600, Note_on_c, 0, 98, 100
2, 573600, Note_on_c, 0, 96, 100
2, 573840, Note_on_c, 0, 86, 0
2, 573840, Note_on_c, 0, 84, 0
2, 573840, Note_on_c, 0, 98, 0
2, 573840, Note_on_c, 0, 96, 0
2, 574080, Note_on_c, 0, 105, 0
2, 574080, Note_on_c, 0, 93, 0
2, 574080, Note_on_c, 0, 69, 0
2, 574080, Note_on_c, 0, 81, 0
2, 574080, Note_on_c, 0, 84, 100
2, 574080, Note_on_c, 0, 96, 100
2, 574080, Note_on_c, 0, 72, 100
2, 574320, Note_on_c, 0, 84, 0
2, 574320, Note_on_c, 0, 96, 0
2, 574320, Note_on_c, 0, 72, 0
2, 575040, Note_on_c, 0, 73, 100
2, 575040, Note_on_c, 0, 85, 100
2, 575040, Note_on_c, 0, 98, 100
2, 575040, Note_on_c, 0, 60, 100
2, 575280, Note_on_c, 0, 73, 0
2, 575280, Note_on_c, 0, 85, 0
2, 575280, Note_on_c, 0, 98, 0
2, 575280, Note_on_c, 0, 60, 0
2, 576000, Note_on_c, 0, 84, 100
2, 576000, Note_on_c, 0, 96, 100
2, 576000, Note_on_c, 0, 72, 100
2, 576240, Note_on_c, 0, 84, 0
2, 576240, Note_on_c, 0, 96, 0
2, 576240, Note_on_c, 0, 72, 0
2, 576960, Note_on_c, 0, 73, 100
2, 576960, Note_on_c, 0, 85, 100
2, 576960, Note_on_c, 0, 98, 100
2, 576960, Note_on_c, 0, 60, 100
2, 577200, Note_on_c, 0, 73, 0
2, 577200, Note_on_c, 0, 85, 0
2, 577200, Note_on_c, 0, 98, 0
2, 577200, Note_on_c, 0, 60, 0
2, 577920, Note_on_c, 0, 84, 100
2, 577920, Note_on_c, 0, 96, 100
2, 577920, Note_on_c, 0, 72, 100
2, 578160, Note_on_c, 0, 84, 0
2, 578160, Note_on_c, 0, 96, 0
2, 578160, Note_on_c, 0, 72, 0
2, 578880, Note_on_c, 0, 73, 100
2, 578880, Note_on_c, 0, 85, 100
2, 578880, Note_on_c, 0, 98, 100
2, 579120, Note_on_c, 0, 73, 0
2, 579120, Note_on_c, 0, 85, 0
2, 579120, Note_on_c, 0, 98, 0
2, 579840, Text_t, "[lighting ()]"
2, 579840, Text_t, "bass_on"
2, 579840, Text_t, "[verse]"
2, 579840, Note_on_c, 0, 74, 100
2, 579840, Note_on_c, 0, 86, 100
2, 579840, Note_on_c, 0, 99, 100
2, 579840, Note_on_c, 0, 61, 100
2, 580080, Note_on_c, 0, 74, 0
2, 580080, Note_on_c, 0, 86, 0
2, 580080, Note_on_c, 0, 99, 0
2, 580080, Note_on_c, 0, 61, 0
2, 580800, Note_on_c, 0, 84, 100
2, 580800, Note_on_c, 0, 96, 100
2, 580800, Note_on_c, 0, 72, 100
2, 581040, Note_on_c, 0, 84, 0
2, 581040, Note_on_c, 0, 96, 0
2, 581040, Note_on_c, 0, 72, 0
2, 581760, Note_on_c, 0, 74, 100
2, 581760, Note_on_c, 0, 86, 100
2, 581760, Note_on_c, 0, 99, 100
2, 581760, Note_on_c, 0, 61, 100
2, 582000, Note_on_c, 0, 74, 0
2, 582000, Note_on_c, 0, 86, 0
2, 582000, Note_on_c, 0, 99, 0
2, 582000, Note_on_c, 0, 61, 0
2, 582720, Note_on_c, 0, 84, 100
2, 582720, Note_on_c, 0, 96, 100
2, 582720, Note_on_c, 0, 72, 100
2, 582960, Note_on_c, 0, 84, 0
2, 582960, Note_on_c, 0, 96, 0
2, 582960, Note_on_c, 0, 72, 0
2, 583680, Note_on_c, 0, 74, 100
2, 583680, Note_on_c, 0, 86, 100
2, 583680, Note_on_c, 0, 99, 100
2, 583920, Note_on_c, 0, 74, 0
2, 583920, Note_on_c, 0, 86, 0
2, 583920, Note_on_c, 0, 99, 0
2, 584640, Note_on_c, 0, 84, 100
2, 584640, Note_on_c, 0, 96, 100
2, 584640, Note_on_c, 0, 72, 100
2, 584880, Note_on_c, 0, 84, 0
2, 584880, Note_on_c, 0, 96, 0
2, 584880, Note_on_c, 0, 72, 0
2, 585570, Text_t, "drum_half"
2, 585600, Note_on_c, 0, 75, 100
2, 585600, Note_on_c, 0, 87, 100
2, 585600, Note_on_c, 0, 100, 100
2, 585600, Note_on_c, 0, 62, 100
2, 585840, Note_on_c, 0, 75, 0
2, 585840, Note_on_c, 0, 87, 0
2, 585840, Note_on_c, 0, 100, 0
2, 585840, Note_on_c, 0, 62, 0
2, 586560, Note_on_c, 0, 84, 100
2, 586560, Note_on_c, 0, 96, 100
2, 586560, Note_on_c, 0, 72, 100
2, 586800, Note_on_c, 0, 84, 0
2, 586800, Note_on_c, 0, 96, 0
2, 586800, Note_on_c, 0, 72, 0
2, 587520, Note_on_c, 0, 75, 100
2, 587520, Note_on_c, 0, 87, 100
2, 587520, Note_on_c, 0, 100, 100
2, 587520, Note_on_c, 0, 62, 100
2, 587760, Note_on_c, 0, 75, 0
2, 587760, Note_on_c, 0, 87, 0
2, 587760, Note_on_c, 0, 100, 0
2, 587760, Note_on_c, 0, 62, 0
2, 588480, Note_on_c, 0, 84, 100
2, 588480, Note_on_c, 0, 96, 100
2, 588480, Note_on_c, 0, 72, 100
2, 588720, Note_on_c, 0, 84, 0
2, 588720, Note_on_c, 0, 96, 0
2, 588720, Note_on_c, 0, 72, 0
2, 589440, Note_on_c, 0, 75, 100
2, 589440, Note_on_c, 0, 87, 100
2, 589440, Note_on_c, 0, 100, 100
2, 589680, Note_on_c, 0, 75, 0
2, 589680, Note_on_c, 0, 87, 0
2, 589680, Note_on_c, 0, 100, 0
2, 590400, Note_on_c, 0, 84, 100
2, 590400, Note_on_c, 0, 96, 100
2, 590400, Note_on_c, 0, 72, 100
2, 590640, Note_on_c, 0, 84, 0
2, 590640, Note_on_c, 0, 96, 0
2, 590640, Note_on_c, 0, 72, 0
2, 591360, Note_on_c, 0, 73, 100
2, 591360, Note_on_c, 0, 86, 100
2, 591360, Note_on_c, 0, 98, 100
2, 591360, Note_on_c, 0, 61, 100
2, 591600, Note_on_c, 0, 73, 0
2, 591600, Note_on_c, 0, 86, 0
2, 591600, Note_on_c, 0, 98, 0
2, 591600, Note_on_c, 0, 61, 0
2, 592320, Note_on_c, 0, 84, 100
2, 592320, Note_on_c, 0, 96, 100
2, 592320, Note_on_c, 0, 72, 100
2, 592560, Note_on_c, 0, 84, 0
2, 592560, Note_on_c, 0, 96, 0
2, 592560, Note_on_c, 0, 72, 0
2, 593280, Note_on_c, 0, 73, 100
2, 593280, Note_on_c, 0, 86, 100
2, 593280, Note_on_c, 0, 98, 100
2, 593280, Note_on_c, 0, 61, 100
2, 593520, Note_on_c, 0, 73, 0
2, 593520, Note_on_c, 0, 86, 0
2, 593520, Note_on_c, 0, 98, 0
2, 593520, Note_on_c, 0, 61, 0
2, 594240, Note_on_c, 0, 84, 100
2, 594240, Note_on_c, 0, 96, 100
2, 594240, Note_on_c, 0, 72, 100
2, 594480, Note_on_c, 0, 84, 0
2, 594480, Note_on_c, 0, 96, 0
2, 594480, Note_on_c, 0, 72, 0
2, 595200, Note_on_c, 0, 73, 100
2, 595200, Note_on_c, 0, 86, 100
2, 595200, Note_on_c, 0, 98, 100
2, 595440, Note_on_c, 0, 73, 0
2, 595440, Note_on_c, 0, 86, 0
2, 595440, Note_on_c, 0, 98, 0
2, 596160, Note_on_c, 0, 84, 100
2, 596160, Note_on_c, 0, 96, 100
2, 596160, Note_on_c, 0, 72, 100
2, 596400, Note_on_c, 0, 84, 0
2, 596400, Note_on_c, 0, 96, 0
2, 596400, Note_on_c, 0, 72, 0
2, 597120, Note_on_c, 0, 106, 0
2, 597120, Note_on_c, 0, 94, 0
2, 597120, Note_on_c, 0, 70, 0
2, 597120, Note_on_c, 0, 82, 0
2, 597120, Note_on_c, 0, 74, 100
2, 597120, Note_on_c, 0, 87, 100
2, 597120, Note_on_c, 0, 99, 100
2, 597120, Note_on_c, 0, 62, 100
2, 597120, Note_on_c, 0, 105, 100
2, 597120, Note_on_c, 0, 93, 100
2, 597120, Note_on_c, 0, 69, 100
2, 597120, Note_on_c, 0, 81, 100
2, 597360, Note_on_c, 0, 74, 0
2, 597360, Note_on_c, 0, 87, 0
2, 597360, Note_on_c, 0, 99, 0
2, 597360, Note_on_c, 0, 62, 0
2, 598080, Note_on_c, 0, 84, 100
2, 598080, Note_on_c, 0, 96, 100
2, 598080, Note_on_c, 0, 72, 100
2, 598320, Note_on_c, 0, 84, 0
2, 598320, Note_on_c, 0, 96, 0
2, 598320, Note_on_c, 0, 72, 0
2, 599040, Note_on_c, 0, 74, 100
2, 599040, Note_on_c, 0, 87, 100
2, 599040, Note_on_c, 0, 99, 100
2, 599040, Note_on_c, 0, 62, 100
2, 599280, Note_on_c, 0, 74, 0
2, 599280, Note_on_c, 0, 87, 0
2, 599280, Note_on_c, 0, 99, 0
2, 599280, Note_on_c, 0, 62, 0
2, 600000, Note_on_c, 0, 84, 100
2, 600000, Note_on_c, 0, 96, 100
2, 600000, Note_on_c, 0, 72, 100
2, 600240, Note_on_c, 0, 84, 0
2, 600240, Note_on_c, 0, 96, 0
2, 600240, Note_on_c, 0, 72, 0
2, 600960, Note_on_c, 0, 74, 100
2, 600960, Note_on_c, 0, 87, 100
2, 600960, Note_on_c, 0, 99, 100
2, 601200, Note_on_c, 0, 74, 0
2, 601200, Note_on_c, 0, 87, 0
2, 601200, Note_on_c, 0, 99, 0
2, 601920, Note_on_c, 0, 84, 100
2, 601920, Note_on_c, 0, 96, 100
2, 601920, Note_on_c, 0, 72, 100
2, 602160, Note_on_c, 0, 84, 0
2, 602160, Note_on_c, 0, 96, 0
2, 602160, Note_on_c, 0, 72, 0
2, 602880, Text_t, "[lighting (color2)]"
2, 602880, Note_on_c, 0, 73, 100
2, 602880, Note_on_c, 0, 85, 100
2, 602880, Note_on_c, 0, 97, 100
2, 602880, Note_on_c, 0, 60, 100
2, 603120, Note_on_c, 0, 73, 0
2, 603120, Note_on_c, 0, 85, 0
2, 603120, Note_on_c, 0, 97, 0
2, 603120, Note_on_c, 0, 60, 0
2, 603840, Note_on_c, 0, 84, 100
2, 603840, Note_on_c, 0, 96, 100
2, 603840, Note_on_c, 0, 72, 100
2, 604080, Note_on_c, 0, 84, 0
2, 604080, Note_on_c, 0, 96, 0
2, 604080, Note_on_c, 0, 72, 0
2, 604800, Note_on_c, 0, 73, 100
2, 604800, Note_on_c, 0, 85, 100
2, 604800, Note_on_c, 0, 97, 100
2, 604800, Note_on_c, 0, 60, 100
2, 605040, Note_on_c, 0, 73, 0
2, 605040, Note_on_c, 0, 85, 0
2, 605040, Note_on_c, 0, 97, 0
2, 605040, Note_on_c, 0, 60, 0
2, 605760, Note_on_c, 0, 84, 100
2, 605760, Note_on_c, 0, 96, 100
2, 605760, Note_on_c, 0, 72, 100
2, 606000, Note_on_c, 0, 84, 0
2, 606000, Note_on_c, 0, 96, 0
2, 606000, Note_on_c, 0, 72, 0
2, 606720, Note_on_c, 0, 73, 100
2, 606720, Note_on_c, 0, 85, 100
2, 606720, Note_on_c, 0, 97, 100
2, 606960, Note_on_c, 0, 73, 0
2, 606960, Note_on_c, 0, 85, 0
2, 606960, Note_on_c, 0, 97, 0
2, 607680, Note_on_c, 0, 84, 100
2, 607680, Note_on_c, 0, 96, 100
2, 607680, Note_on_c, 0, 72, 100
2, 607920, Note_on_c, 0, 84, 0
2, 607920, Note_on_c, 0, 96, 0
2, 607920, Note_on_c, 0, 72, 0
2, 608640, Note_on_c, 0, 85, 100
2, 608640, Note_on_c, 0, 97, 100
2, 608640, Note_on_c, 0, 73, 100
2, 608880, Note_on_c, 0, 85, 0
2, 608880, Note_on_c, 0, 97, 0
2, 608880, Note_on_c, 0, 73, 0
2, 609600, Note_on_c, 0, 74, 100
2, 609600, Note_on_c, 0, 87, 100
2, 609600, Note_on_c, 0, 99, 100
2, 609600, Note_on_c, 0, 62, 100
2, 609840, Note_on_c, 0, 74, 0
2, 609840, Note_on_c, 0, 87, 0
2, 609840, Note_on_c, 0, 99, 0
2, 609840, Note_on_c, 0, 62, 0
2, 610560, Note_on_c, 0, 85, 100
2, 610560, Note_on_c, 0, 97, 100
2, 610560, Note_on_c, 0, 73, 100
2, 610800, Note_on_c, 0, 85, 0
2, 610800, Note_on_c, 0, 97, 0
2, 610800, Note_on_c, 0, 73, 0
2, 611520, Note_on_c, 0, 74, 100
2, 611520, Note_on_c, 0, 87, 100
2, 611520, Note_on_c, 0, 99, 100
2, 611520, Note_on_c, 0, 62, 100
2, 611760, Note_on_c, 0, 74, 0
2, 611760, Note_on_c, 0, 87, 0
2, 611760, Note_on_c, 0, 99, 0
2, 611760, Note_on_c, 0, 62, 0
2, 612480, Note_on_c, 0, 85, 100
2, 612480, Note_on_c, 0, 97, 100
2, 612480, Note_on_c, 0, 73, 100
2, 612720, Note_on_c, 0, 85, 0
2, 612720, Note_on_c, 0, 97, 0
2, 612720, Note_on_c, 0, 73, 0
2, 613440, Note_on_c, 0, 74, 100
2, 613440, Note_on_c, 0, 87, 100
2, 613440, Note_on_c, 0, 99, 100
2, 613680, Note_on_c, 0, 74, 0
2, 613680, Note_on_c, 0, 87, 0
2, 613680, Note_on_c, 0, 99, 0
2, 614370, Text_t, "drum_normal"
2, 614400, Note_on_c, 0, 85, 100
2, 614400, Note_on_c, 0, 97, 100
2, 614400, Note_on_c, 0, 73, 100
2, 614640, Note_on_c, 0, 85, 0
2, 614640, Note_on_c, 0, 97, 0
2, 614640, Note_on_c, 0, 73, 0
2, 615360, Note_on_c, 0, 74, 100
2, 615360, Note_on_c, 0, 87, 100
2, 615360, Note_on_c, 0, 99, 100
2, 615360, Note_on_c, 0, 62, 100
2, 615600, Note_on_c, 0, 74, 0
2, 615600, Note_on_c, 0, 87, 0
2, 615600, Note_on_c, 0, 99, 0
2, 615600, Note_on_c, 0, 62, 0
2, 616320, Note_on_c, 0, 85, 100
2, 616320, Note_on_c, 0, 97, 100
2, 616320, Note_on_c, 0, 73, 100
2, 616560, Note_on_c, 0, 85, 0
2, 616560, Note_on_c, 0, 97, 0
2, 616560, Note_on_c, 0, 73, 0
2, 617280, Note_on_c, 0, 74, 100
2, 617280, Note_on_c, 0, 87, 100
2, 617280, Note_on_c, 0, 99, 100
2, 617280, Note_on_c, 0, 62, 100
2, 617520, Note_on_c, 0, 74, 0
2, 617520, Note_on_c, 0, 87, 0
2, 617520, Note_on_c, 0, 99, 0
2, 617520, Note_on_c, 0, 62, 0
2, 618240, Note_on_c, 0, 74, 100
2, 618240, Note_on_c, 0, 87, 100
2, 618240, Note_on_c, 0, 99, 100
2, 618480, Note_on_c, 0, 74, 0
2, 618480, Note_on_c, 0, 87, 0
2, 618480, Note_on_c, 0, 99, 0
2, 619200, Note_on_c, 0, 85, 100
2, 619200, Note_on_c, 0, 97, 100
2, 619200, Note_on_c, 0, 73, 100
2, 619440, Note_on_c, 0, 85, 0
2, 619440, Note_on_c, 0, 97, 0
2, 619440, Note_on_c, 0, 73, 0
2, 620160, Note_on_c, 0, 86, 100
2, 620160, Note_on_c, 0, 84, 100
2, 620160, Note_on_c, 0, 98, 100
2, 620160, Note_on_c, 0, 96, 100
2, 620160, Note_on_c, 0, 73, 100
2, 620160, Note_on_c, 0, 61, 100
2, 620160, Note_on_c, 0, 106, 100
2, 620160, Note_on_c, 0, 94, 100
2, 620160, Note_on_c, 0, 70, 100
2, 620160, Note_on_c, 0, 82, 100
2, 620400, Note_on_c, 0, 86, 0
2, 620400, Note_on_c, 0, 84, 0
2, 620400, Note_on_c, 0, 98, 0
2, 620400, Note_on_c, 0, 96, 0
2, 620400, Note_on_c, 0, 73, 0
2, 620400, Note_on_c, 0, 61, 0
2, 621600, Note_on_c, 0, 86, 100
2, 621600, Note_on_c, 0, 84, 100
2, 621600, Note_on_c, 0, 98, 100
2, 621600, Note_on_c, 0, 96, 100
2, 621840, Note_on_c, 0, 86, 0
2, 621840, Note_on_c, 0, 84, 0
2, 621840, Note_on_c, 0, 98, 0
2, 621840, Note_on_c, 0, 96, 0
2, 622080, Note_on_c, 0, 86, 100
2, 622080, Note_on_c, 0, 84, 100
2, 622080, Note_on_c, 0, 98, 100
2, 622080, Note_on_c, 0, 96, 100
2, 622080, Note_on_c, 0, 73, 100
2, 622320, Note_on_c, 0, 86, 0
2, 622320, Note_on_c, 0, 84, 0
2, 622320, Note_on_c, 0, 98, 0
2, 622320, Note_on_c, 0, 96, 0
2, 622320, Note_on_c, 0, 73, 0
2, 622560, Note_on_c, 0, 86, 100
2, 622560, Note_on_c, 0, 84, 100
2, 622560, Note_on_c, 0, 98, 100
2, 622560, Note_on_c, 0, 96, 100
2, 622800, Note_on_c, 0, 86, 0
2, 622800, Note_on_c, 0, 84, 0
2, 622800, Note_on_c, 0, 98, 0
2, 622800, Note_on_c, 0, 96, 0
2, 623040, Note_on_c, 0, 86, 100
2, 623040, Note_on_c, 0, 84, 100
2, 623040, Note_on_c, 0, 98, 100
2, 623040, Note_on_c, 0, 96, 100
2, 623040, Note_on_c, 0, 73, 100
2, 623040, Note_on_c, 0, 61, 100
2, 623280, Note_on_c, 0, 86, 0
2, 623280, Note_on_c, 0, 84, 0
2, 623280, Note_on_c, 0, 98, 0
2, 623280, Note_on_c, 0, 96, 0
2, 623280, Note_on_c, 0, 73, 0
2, 623280, Note_on_c, 0, 61, 0
2, 624000, Note_on_c, 0, 86, 100
2, 624000, Note_on_c, 0, 84, 100
2, 624000, Note_on_c, 0, 98, 100
2, 624000, Note_on_c, 0, 96, 100
2, 624240, Note_on_c, 0, 86, 0
2, 624240, Note_on_c, 0, 84, 0
2, 624240, Note_on_c, 0, 98, 0
2, 624240, Note_on_c, 0, 96, 0
2, 624480, Note_on_c, 0, 86, 100
2, 624480, Note_on_c, 0, 84, 100
2, 624480, Note_on_c, 0, 98, 100
2, 624480, Note_on_c, 0, 96, 100
2, 624720, Note_on_c, 0, 86, 0
2, 624720, Note_on_c, 0, 84, 0
2, 624720, Note_on_c, 0, 98, 0
2, 624720, Note_on_c, 0, 96, 0
2, 624960, Note_on_c, 0, 86, 100
2, 624960, Note_on_c, 0, 84, 100
2, 624960, Note_on_c, 0, 98, 100
2, 624960, Note_on_c, 0, 96, 100
2, 624960, Note_on_c, 0, 73, 100
2, 625200, Note_on_c, 0, 86, 0
2, 625200, Note_on_c, 0, 84, 0
2, 625200, Note_on_c, 0, 98, 0
2, 625200, Note_on_c, 0, 96, 0
2, 625200, Note_on_c, 0, 73, 0
2, 625440, Note_on_c, 0, 86, 100
2, 625440, Note_on_c, 0, 84, 100
2, 625440, Note_on_c, 0, 98, 100
2, 625440, Note_on_c, 0, 96, 100
2, 625680, Note_on_c, 0, 86, 0
2, 625680, Note_on_c, 0, 84, 0
2, 625680, Note_on_c, 0, 98, 0
2, 625680, Note_on_c, 0, 96, 0
2, 625920, Note_on_c, 0, 86, 100
2, 625920, Note_on_c, 0, 84, 100
2, 625920, Note_on_c, 0, 98, 100
2, 625920, Note_on_c, 0, 96, 100
2, 625920, Note_on_c, 0, 73, 100
2, 625920, Note_on_c, 0, 61, 100
2, 626160, Note_on_c, 0, 86, 0
2, 626160, Note_on_c, 0, 84, 0
2, 626160, Note_on_c, 0, 98, 0
2, 626160, Note_on_c, 0, 96, 0
2, 626160, Note_on_c, 0, 73, 0
2, 626160, Note_on_c, 0, 61, 0
2, 626880, Note_on_c, 0, 86, 100
2, 626880, Note_on_c, 0, 84, 100
2, 626880, Note_on_c, 0, 98, 100
2, 626880, Note_on_c, 0, 96, 100
2, 627120, Note_on_c, 0, 86, 0
2, 627120, Note_on_c, 0, 84, 0
2, 627120, Note_on_c, 0, 98, 0
2, 627120, Note_on_c, 0, 96, 0
2, 627360, Note_on_c, 0, 86, 100
2, 627360, Note_on_c, 0, 84, 100
2, 627360, Note_on_c, 0, 98, 100
2, 627360, Note_on_c, 0, 96, 100
2, 627600, Note_on_c, 0, 86, 0
2, 627600, Note_on_c, 0, 84, 0
2, 627600, Note_on_c, 0, 98, 0
2, 627600, Note_on_c, 0, 96, 0
2, 627840, Note_on_c, 0, 86, 100
2, 627840, Note_on_c, 0, 84, 100
2, 627840, Note_on_c, 0, 98, 100
2, 627840, Note_on_c, 0, 96, 100
2, 627840, Note_on_c, 0, 73, 100
2, 628080, Note_on_c, 0, 86, 0
2, 628080, Note_on_c, 0, 84, 0
2, 628080, Note_on_c, 0, 98, 0
2, 628080, Note_on_c, 0, 96, 0
2, 628080, Note_on_c, 0, 73, 0
2, 628320, Note_on_c, 0, 86, 100
2, 628320, Note_on_c, 0, 84, 100
2, 628320, Note_on_c, 0, 98, 100
2, 628320, Note_on_c, 0, 96, 100
2, 628560, Note_on_c, 0, 86, 0
2, 628560, Note_on_c, 0, 84, 0
2, 628560, Note_on_c, 0, 98, 0
2, 628560, Note_on_c, 0, 96, 0
2, 628800, Note_on_c, 0, 75, 100
2, 628800, Note_on_c, 0, 87, 100
2, 628800, Note_on_c, 0, 99, 100
2, 628800, Note_on_c, 0, 100, 100
2, 628800, Note_on_c, 0, 62, 100
2, 628800, Note_on_c, 0, 103, 100
2, 628800, Note_on_c, 0, 91, 100
2, 628800, Note_on_c, 0, 67, 100
2, 628800, Note_on_c, 0, 79, 100
2, 631440, Note_on_c, 0, 75, 0
2, 631440, Note_on_c, 0, 87, 0
2, 631440, Note_on_c, 0, 99, 0
2, 631440, Note_on_c, 0, 100, 0
2, 631440, Note_on_c, 0, 62, 0
2, 631680, Text_t, "drum_normal"
2, 631680, Note_on_c, 0, 105, 0
2, 631680, Note_on_c, 0, 93, 0
2, 631680, Note_on_c, 0, 69, 0
2, 631680, Note_on_c, 0, 81, 0
2, 631680, Note_on_c, 0, 103, 0
2, 631680, Note_on_c, 0, 91, 0
2, 631680, Note_on_c, 0, 67, 0
2, 631680, Note_on_c, 0, 79, 0
2, 631680, Note_on_c, 0, 85, 100
2, 631680, Note_on_c, 0, 87, 100
2, 631680, Note_on_c, 0, 97, 100
2, 631680, Note_on_c, 0, 99, 100
2, 631680, Note_on_c, 0, 75, 100
2, 631680, Note_on_c, 0, 62, 100
2, 631920, Note_on_c, 0, 85, 0
2, 631920, Note_on_c, 0, 87, 0
2, 631920, Note_on_c, 0, 97, 0
2, 631920, Note_on_c, 0, 99, 0
2, 631920, Note_on_c, 0, 75, 0
2, 631920, Note_on_c, 0, 62, 0
2, 632640, Note_on_c, 0, 84, 100
2, 632640, Note_on_c, 0, 96, 100
2, 632640, Note_on_c, 0, 72, 100
2, 632880, Note_on_c, 0, 84, 0
2, 632880, Note_on_c, 0, 96, 0
2, 632880, Note_on_c, 0, 72, 0
2, 633600, Note_on_c, 0, 86, 100
2, 633600, Note_on_c, 0, 84, 100
2, 633600, Note_on_c, 0, 98, 100
2, 633600, Note_on_c, 0, 96, 100
2, 633600, Note_on_c, 0, 73, 100
2, 633600, Note_on_c, 0, 60, 100
2, 633840, Note_on_c, 0, 86, 0
2, 633840, Note_on_c, 0, 84, 0
2, 633840, Note_on_c, 0, 98, 0
2, 633840, Note_on_c, 0, 96, 0
2, 633840, Note_on_c, 0, 73, 0
2, 633840, Note_on_c, 0, 60, 0
2, 634560, Note_on_c, 0, 85, 100
2, 634560, Note_on_c, 0, 86, 100
2, 634560, Note_on_c, 0, 97, 100
2, 634560, Note_on_c, 0, 98, 100
2, 634560, Note_on_c, 0, 74, 100
2, 634560, Note_on_c, 0, 61, 100
2, 634800, Note_on_c, 0, 85, 0
2, 634800, Note_on_c, 0, 86, 0
2, 634800, Note_on_c, 0, 97, 0
2, 634800, Note_on_c, 0, 98, 0
2, 634800, Note_on_c, 0, 74, 0
2, 634800, Note_on_c, 0, 61, 0
2, 635520, Note_on_c, 0, 84, 100
2, 635520, Note_on_c, 0, 96, 100
2, 635520, Note_on_c, 0, 72, 100
2, 635760, Note_on_c, 0, 84, 0
2, 635760, Note_on_c, 0, 96, 0
2, 635760, Note_on_c, 0, 72, 0
2, 636480, Note_on_c, 0, 86, 100
2, 636480, Note_on_c, 0, 84, 100
2, 636480, Note_on_c, 0, 98, 100
2, 636480, Note_on_c, 0, 96, 100
2, 636480, Note_on_c, 0, 73, 100
2, 636480, Note_on_c, 0, 60, 100
2, 636720, Note_on_c, 0, 86, 0
2, 636720, Note_on_c, 0, 84, 0
2, 636720, Note_on_c, 0, 98, 0
2, 636720, Note_on_c, 0, 96, 0
2, 636720, Note_on_c, 0, 73, 0
2, 636720, Note_on_c, 0, 60, 0
2, 637440, Note_on_c, 0, 85, 100
2, 637440, Note_on_c, 0, 86, 100
2, 637440, Note_on_c, 0, 97, 100
2, 637440, Note_on_c, 0, 98, 100
2, 637440, Note_on_c, 0, 74, 100
2, 637440, Note_on_c, 0, 61, 100
2, 637680, Note_on_c, 0, 85, 0
2, 637680, Note_on_c, 0, 86, 0
2, 637680, Note_on_c, 0, 97, 0
2, 637680, Note_on_c, 0, 98, 0
2, 637680, Note_on_c, 0, 74, 0
2, 637680, Note_on_c, 0, 61, 0
2, 638400, Note_on_c, 0, 84, 100
2, 638400, Note_on_c, 0, 96, 100
2, 638400, Note_on_c, 0, 72, 100
2, 638640, Note_on_c, 0, 84, 0
2, 638640, Note_on_c, 0, 96, 0
2, 638640, Note_on_c, 0, 72, 0
2, 639360, Note_on_c, 0, 84, 100
2, 639360, Note_on_c, 0, 96, 100
2, 639360, Note_on_c, 0, 72, 100
2, 639600, Note_on_c, 0, 84, 0
2, 639600, Note_on_c, 0, 96, 0
2, 639600, Note_on_c, 0, 72, 0
2, 640320, Note_on_c, 0, 86, 100
2, 640320, Note_on_c, 0, 97, 100
2, 640320, Note_on_c, 0, 98, 100
2, 640320, Note_on_c, 0, 73, 100
2, 640320, Note_on_c, 0, 61, 100
2, 640560, Note_on_c, 0, 86, 0
2, 640560, Note_on_c, 0, 97, 0
2, 640560, Note_on_c, 0, 98, 0
2, 640560, Note_on_c, 0, 73, 0
2, 641280, Note_on_c, 0, 88, 100
2, 641280, Note_on_c, 0, 98, 100
2, 641280, Note_on_c, 0, 100, 100
2, 641280, Note_on_c, 0, 75, 100
2, 641520, Note_on_c, 0, 88, 0
2, 641520, Note_on_c, 0, 98, 0
2, 641520, Note_on_c, 0, 100, 0
2, 641520, Note_on_c, 0, 75, 0
2, 642240, Note_on_c, 0, 87, 100
2, 642240, Note_on_c, 0, 98, 100
2, 642240, Note_on_c, 0, 99, 100
2, 642240, Note_on_c, 0, 74, 100
2, 642480, Note_on_c, 0, 87, 0
2, 642480, Note_on_c, 0, 98, 0
2, 642480, Note_on_c, 0, 99, 0
2, 642480, Note_on_c, 0, 74, 0
2, 642720, Note_on_c, 0, 61, 0
2, 643170, Text_t, "[chorus]"
2, 643170, Text_t, "[lighting (sweep)]"
2, 643170, Text_t, "drum_double"
2, 643200, Note_on_c, 0, 106, 0
2, 643200, Note_on_c, 0, 94, 0
2, 643200, Note_on_c, 0, 70, 0
2, 643200, Note_on_c, 0, 82, 0
2, 643200, Note_on_c, 0, 85, 100
2, 643200, Note_on_c, 0, 87, 100
2, 643200, Note_on_c, 0, 97, 100
2, 643200, Note_on_c, 0, 99, 100
2, 643200, Note_on_c, 0, 75, 100
2, 643200, Note_on_c, 0, 62, 100
2, 643200, Note_on_c, 0, 105, 100
2, 643200, Note_on_c, 0, 93, 100
2, 643200, Note_on_c, 0, 69, 100
2, 643200, Note_on_c, 0, 81, 100
2, 643440, Note_on_c, 0, 85, 0
2, 643440, Note_on_c, 0, 87, 0
2, 643440, Note_on_c, 0, 97, 0
2, 643440, Note_on_c, 0, 99, 0
2, 643440, Note_on_c, 0, 75, 0
2, 643440, Note_on_c, 0, 62, 0
2, 644160, Note_on_c, 0, 84, 100
2, 644160, Note_on_c, 0, 96, 100
2, 644160, Note_on_c, 0, 72, 100
2, 644400, Note_on_c, 0, 84, 0
2, 644400, Note_on_c, 0, 96, 0
2, 644400, Note_on_c, 0, 72, 0
2, 645120, Note_on_c, 0, 86, 100
2, 645120, Note_on_c, 0, 84, 100
2, 645120, Note_on_c, 0, 98, 100
2, 645120, Note_on_c, 0, 96, 100
2, 645120, Note_on_c, 0, 73, 100
2, 645120, Note_on_c, 0, 60, 100
2, 645360, Note_on_c, 0, 86, 0
2, 645360, Note_on_c, 0, 84, 0
2, 645360, Note_on_c, 0, 98, 0
2, 645360, Note_on_c, 0, 96, 0
2, 645360, Note_on_c, 0, 73, 0
2, 645360, Note_on_c, 0, 60, 0
2, 646080, Note_on_c, 0, 85, 100
2, 646080, Note_on_c, 0, 86, 100
2, 646080, Note_on_c, 0, 97, 100
2, 646080, Note_on_c, 0, 98, 100
2, 646080, Note_on_c, 0, 74, 100
2, 646080, Note_on_c, 0, 61, 100
2, 646320, Note_on_c, 0, 85, 0
2, 646320, Note_on_c, 0, 86, 0
2, 646320, Note_on_c, 0, 97, 0
2, 646320, Note_on_c, 0, 98, 0
2, 646320, Note_on_c, 0, 74, 0
2, 646320, Note_on_c, 0, 61, 0
2, 647040, Note_on_c, 0, 84, 100
2, 647040, Note_on_c, 0, 96, 100
2, 647040, Note_on_c, 0, 72, 100
2, 647280, Note_on_c, 0, 84, 0
2, 647280, Note_on_c, 0, 96, 0
2, 647280, Note_on_c, 0, 72, 0
2, 648000, Note_on_c, 0, 86, 100
2, 648000, Note_on_c, 0, 84, 100
2, 648000, Note_on_c, 0, 98, 100
2, 648000, Note_on_c, 0, 96, 100
2, 648000, Note_on_c, 0, 73, 100
2, 648000, Note_on_c, 0, 60, 100
2, 648240, Note_on_c, 0, 86, 0
2, 648240, Note_on_c, 0, 84, 0
2, 648240, Note_on_c, 0, 98, 0
2, 648240, Note_on_c, 0, 96, 0
2, 648240, Note_on_c, 0, 73, 0
2, 648240, Note_on_c, 0, 60, 0
2, 648960, Note_on_c, 0, 85, 100
2, 648960, Note_on_c, 0, 86, 100
2, 648960, Note_on_c, 0, 97, 100
2, 648960, Note_on_c, 0, 98, 100
2, 648960, Note_on_c, 0, 74, 100
2, 648960, Note_on_c, 0, 61, 100
2, 649200, Note_on_c, 0, 85, 0
2, 649200, Note_on_c, 0, 86, 0
2, 649200, Note_on_c, 0, 97, 0
2, 649200, Note_on_c, 0, 98, 0
2, 649200, Note_on_c, 0, 74, 0
2, 649200, Note_on_c, 0, 61, 0
2, 649920, Note_on_c, 0, 84, 100
2, 649920, Note_on_c, 0, 96, 100
2, 649920, Note_on_c, 0, 72, 100
2, 650160, Note_on_c, 0, 84, 0
2, 650160, Note_on_c, 0, 96, 0
2, 650160, Note_on_c, 0, 72, 0
2, 650880, Note_on_c, 0, 84, 100
2, 650880, Note_on_c, 0, 96, 100
2, 650880, Note_on_c, 0, 72, 100
2, 651120, Note_on_c, 0, 84, 0
2, 651120, Note_on_c, 0, 96, 0
2, 651120, Note_on_c, 0, 72, 0
2, 651840, Note_on_c, 0, 86, 100
2, 651840, Note_on_c, 0, 97, 100
2, 651840, Note_on_c, 0, 98, 100
2, 651840, Note_on_c, 0, 73, 100
2, 651840, Note_on_c, 0, 61, 100
2, 652080, Note_on_c, 0, 86, 0
2, 652080, Note_on_c, 0, 97, 0
2, 652080, Note_on_c, 0, 98, 0
2, 652080, Note_on_c, 0, 73, 0
2, 652800, Note_on_c, 0, 88, 100
2, 652800, Note_on_c, 0, 98, 100
2, 652800, Note_on_c, 0, 100, 100
2, 652800, Note_on_c, 0, 75, 100
2, 653040, Note_on_c, 0, 88, 0
2, 653040, Note_on_c, 0, 98, 0
2, 653040, Note_on_c, 0, 100, 0
2, 653040, Note_on_c, 0, 75, 0
2, 653760, Note_on_c, 0, 87, 100
2, 653760, Note_on_c, 0, 98, 100
2, 653760, Note_on_c, 0, 99, 100
2, 653760, Note_on_c, 0, 74, 100
2, 654000, Note_on_c, 0, 87, 0
2, 654000, Note_on_c, 0, 98, 0
2, 654000, Note_on_c, 0, 99, 0
2, 654000, Note_on_c, 0, 74, 0
2, 654240, Note_on_c, 0, 61, 0
2, 654720, Note_on_c, 0, 105, 0
2, 654720, Note_on_c, 0, 93, 0
2, 654720, Note_on_c, 0, 69, 0
2, 654720, Note_on_c, 0, 81, 0
2, 654720, Note_on_c, 0, 85, 100
2, 654720, Note_on_c, 0, 87, 100
2, 654720, Note_on_c, 0, 97, 100
2, 654720, Note_on_c, 0, 99, 100
2, 654720, Note_on_c, 0, 75, 100
2, 654720, Note_on_c, 0, 62, 100
2, 654720, Note_on_c, 0, 106, 100
2, 654720, Note_on_c, 0, 94, 100
2, 654720, Note_on_c, 0, 70, 100
2, 654720, Note_on_c, 0, 82, 100
2, 654960, Note_on_c, 0, 85, 0
2, 654960, Note_on_c, 0, 87, 0
2, 654960, Note_on_c, 0, 97, 0
2, 654960, Note_on_c, 0, 99, 0
2, 654960, Note_on_c, 0, 75, 0
2, 654960, Note_on_c, 0, 62, 0
2, 655680, Note_on_c, 0, 84, 100
2, 655680, Note_on_c, 0, 96, 100
2, 655680, Note_on_c, 0, 72, 100
2, 655920, Note_on_c, 0, 84, 0
2, 655920, Note_on_c, 0, 96, 0
2, 655920, Note_on_c, 0, 72, 0
2, 656640, Note_on_c, 0, 86, 100
2, 656640, Note_on_c, 0, 84, 100
2, 656640, Note_on_c, 0, 98, 100
2, 656640, Note_on_c, 0, 96, 100
2, 656640, Note_on_c, 0, 73, 100
2, 656640, Note_on_c, 0, 60, 100
2, 656880, Note_on_c, 0, 86, 0
2, 656880, Note_on_c, 0, 84, 0
2, 656880, Note_on_c, 0, 98, 0
2, 656880, Note_on_c, 0, 96, 0
2, 656880, Note_on_c, 0, 73, 0
2, 656880, Note_on_c, 0, 60, 0
2, 657600, Note_on_c, 0, 85, 100
2, 657600, Note_on_c, 0, 86, 100
2, 657600, Note_on_c, 0, 97, 100
2, 657600, Note_on_c, 0, 98, 100
2, 657600, Note_on_c, 0, 74, 100
2, 657600, Note_on_c, 0, 61, 100
2, 657840, Note_on_c, 0, 85, 0
2, 657840, Note_on_c, 0, 86, 0
2, 657840, Note_on_c, 0, 97, 0
2, 657840, Note_on_c, 0, 98, 0
2, 657840, Note_on_c, 0, 74, 0
2, 657840, Note_on_c, 0, 61, 0
2, 658560, Note_on_c, 0, 84, 100
2, 658560, Note_on_c, 0, 96, 100
2, 658560, Note_on_c, 0, 72, 100
2, 658800, Note_on_c, 0, 84, 0
2, 658800, Note_on_c, 0, 96, 0
2, 658800, Note_on_c, 0, 72, 0
2, 659520, Note_on_c, 0, 86, 100
2, 659520, Note_on_c, 0, 84, 100
2, 659520, Note_on_c, 0, 98, 100
2, 659520, Note_on_c, 0, 96, 100
2, 659520, Note_on_c, 0, 73, 100
2, 659520, Note_on_c, 0, 60, 100
2, 659760, Note_on_c, 0, 86, 0
2, 659760, Note_on_c, 0, 84, 0
2, 659760, Note_on_c, 0, 98, 0
2, 659760, Note_on_c, 0, 96, 0
2, 659760, Note_on_c, 0, 73, 0
2, 659760, Note_on_c, 0, 60, 0
2, 660480, Text_t, "[chorus]"
2, 660480, Text_t, "[lighting (sweep)]"
2, 660480, Text_t, "[lighting ()]"
2, 660480, Note_on_c, 0, 85, 100
2, 660480, Note_on_c, 0, 86, 100
2, 660480, Note_on_c, 0, 97, 100
2, 660480, Note_on_c, 0, 98, 100
2, 660480, Note_on_c, 0, 74, 100
2, 660480, Note_on_c, 0, 61, 100
2, 660720, Note_on_c, 0, 85, 0
2, 660720, Note_on_c, 0, 86, 0
2, 660720, Note_on_c, 0, 97, 0
2, 660720, Note_on_c, 0, 98, 0
2, 660720, Note_on_c, 0, 74, 0
2, 660720, Note_on_c, 0, 61, 0
2, 661440, Note_on_c, 0, 84, 100
2, 661440, Note_on_c, 0, 96, 100
2, 661440, Note_on_c, 0, 72, 100
2, 661680, Note_on_c, 0, 84, 0
2, 661680, Note_on_c, 0, 96, 0
2, 661680, Note_on_c, 0, 72, 0
2, 662400, Note_on_c, 0, 84, 100
2, 662400, Note_on_c, 0, 96, 100
2, 662400, Note_on_c, 0, 72, 100
2, 662640, Note_on_c, 0, 84, 0
2, 662640, Note_on_c, 0, 96, 0
2, 662640, Note_on_c, 0, 72, 0
2, 663360, Note_on_c, 0, 86, 100
2, 663360, Note_on_c, 0, 97, 100
2, 663360, Note_on_c, 0, 98, 100
2, 663360, Note_on_c, 0, 73, 100
2, 663360, Note_on_c, 0, 61, 100
2, 663600, Note_on_c, 0, 86, 0
2, 663600, Note_on_c, 0, 97, 0
2, 663600, Note_on_c, 0, 98, 0
2, 663600, Note_on_c, 0, 73, 0
2, 664320, Note_on_c, 0, 88, 100
2, 664320, Note_on_c, 0, 98, 100
2, 664320, Note_on_c, 0, 100, 100
2, 664320, Note_on_c, 0, 75, 100
2, 664560, Note_on_c, 0, 88, 0
2, 664560, Note_on_c, 0, 98, 0
2, 664560, Note_on_c, 0, 100, 0
2, 664560, Note_on_c, 0, 75, 0
2, 665280, Note_on_c, 0, 87, 100
2, 665280, Note_on_c, 0, 98, 100
2, 665280, Note_on_c, 0, 99, 100
2, 665280, Note_on_c, 0, 74, 100
2, 665520, Note_on_c, 0, 87, 0
2, 665520, Note_on_c, 0, 98, 0
2, 665520, Note_on_c, 0, 99, 0
2, 665520, Note_on_c, 0, 74, 0
2, 665760, Note_on_c, 0, 61, 0
2, 666240, Note_on_c, 0, 85, 100
2, 666240, Note_on_c, 0, 87, 100
2, 666240, Note_on_c, 0, 97, 100
2, 666240, Note_on_c, 0, 99, 100
2, 666240, Note_on_c, 0, 75, 100
2, 666240, Note_on_c, 0, 62, 100
2, 666240, Note_on_c, 0, 105, 100
2, 666240, Note_on_c, 0, 93, 100
2, 666240, Note_on_c, 0, 69, 100
2, 666240, Note_on_c, 0, 81, 100
2, 666480, Note_on_c, 0, 85, 0
2, 666480, Note_on_c, 0, 87, 0
2, 666480, Note_on_c, 0, 97, 0
2, 666480, Note_on_c, 0, 99, 0
2, 666480, Note_on_c, 0, 75, 0
2, 666480, Note_on_c, 0, 62, 0
2, 667200, Note_on_c, 0, 84, 100
2, 667200, Note_on_c, 0, 96, 100
2, 667200, Note_on_c, 0, 72, 100
2, 667440, Note_on_c, 0, 84, 0
2, 667440, Note_on_c, 0, 96, 0
2, 667440, Note_on_c, 0, 72, 0
2, 667680, Note_on_c, 0, 84, 100
2, 667680, Note_on_c, 0, 96, 100
2, 667920, Note_on_c, 0, 84, 0
2, 667920, Note_on_c, 0, 96, 0
2, 668160, Note_on_c, 0, 86, 100
2, 668160, Note_on_c, 0, 84, 100
2, 668160, Note_on_c, 0, 98, 100
2, 668160, Note_on_c, 0, 96, 100
2, 668160, Note_on_c, 0, 73, 100
2, 668160, Note_on_c, 0, 60, 100
2, 668400, Note_on_c, 0, 86, 0
2, 668400, Note_on_c, 0, 84, 0
2, 668400, Note_on_c, 0, 98, 0
2, 668400, Note_on_c, 0, 96, 0
2, 668400, Note_on_c, 0, 73, 0
2, 668400, Note_on_c, 0, 60, 0
2, 669120, Note_on_c, 0, 85, 100
2, 669120, Note_on_c, 0, 86, 100
2, 669120, Note_on_c, 0, 97, 100
2, 669120, Note_on_c, 0, 98, 100
2, 669120, Note_on_c, 0, 74, 100
2, 669120, Note_on_c, 0, 61, 100
2, 669360, Note_on_c, 0, 85, 0
2, 669360, Note_on_c, 0, 86, 0
2, 669360, Note_on_c, 0, 97, 0
2, 669360, Note_on_c, 0, 98, 0
2, 669360, Note_on_c, 0, 74, 0
2, 669360, Note_on_c, 0, 61, 0
2, 670080, Note_on_c, 0, 84, 100
2, 670080, Note_on_c, 0, 96, 100
2, 670080, Note_on_c, 0, 72, 100
2, 670320, Note_on_c, 0, 84, 0
2, 670320, Note_on_c, 0, 96, 0
2, 670320, Note_on_c, 0, 72, 0
2, 670560, Note_on_c, 0, 84, 100
2, 670560, Note_on_c, 0, 96, 100
2, 670800, Note_on_c, 0, 84, 0
2, 670800, Note_on_c, 0, 96, 0
2, 671040, Note_on_c, 0, 86, 100
2, 671040, Note_on_c, 0, 84, 100
2, 671040, Note_on_c, 0, 98, 100
2, 671040, Note_on_c, 0, 96, 100
2, 671040, Note_on_c, 0, 73, 100
2, 671040, Note_on_c, 0, 60, 100
2, 671280, Note_on_c, 0, 86, 0
2, 671280, Note_on_c, 0, 84, 0
2, 671280, Note_on_c, 0, 98, 0
2, 671280, Note_on_c, 0, 96, 0
2, 671280, Note_on_c, 0, 73, 0
2, 671280, Note_on_c, 0, 60, 0
2, 672000, Note_on_c, 0, 85, 100
2, 672000, Note_on_c, 0, 86, 100
2, 672000, Note_on_c, 0, 97, 100
2, 672000, Note_on_c, 0, 98, 100
2, 672000, Note_on_c, 0, 74, 100
2, 672000, Note_on_c, 0, 61, 100
2, 672240, Note_on_c, 0, 85, 0
2, 672240, Note_on_c, 0, 86, 0
2, 672240, Note_on_c, 0, 97, 0
2, 672240, Note_on_c, 0, 98, 0
2, 672240, Note_on_c, 0, 74, 0
2, 672240, Note_on_c, 0, 61, 0
2, 672960, Note_on_c, 0, 84, 100
2, 672960, Note_on_c, 0, 96, 100
2, 672960, Note_on_c, 0, 72, 100
2, 673200, Note_on_c, 0, 84, 0
2, 673200, Note_on_c, 0, 96, 0
2, 673200, Note_on_c, 0, 72, 0
2, 673920, Note_on_c, 0, 84, 100
2, 673920, Note_on_c, 0, 96, 100
2, 673920, Note_on_c, 0, 72, 100
2, 674160, Note_on_c, 0, 84, 0
2, 674160, Note_on_c, 0, 96, 0
2, 674160, Note_on_c, 0, 72, 0
2, 674880, Note_on_c, 0, 86, 100
2, 674880, Note_on_c, 0, 97, 100
2, 674880, Note_on_c, 0, 98, 100
2, 674880, Note_on_c, 0, 73, 100
2, 674880, Note_on_c, 0, 61, 100
2, 674880, Note_on_c, 0, 103, 100
2, 674880, Note_on_c, 0, 91, 100
2, 674880, Note_on_c, 0, 67, 100
2, 674880, Note_on_c, 0, 79, 100
2, 675120, Note_on_c, 0, 86, 0
2, 675120, Note_on_c, 0, 97, 0
2, 675120, Note_on_c, 0, 98, 0
2, 675120, Note_on_c, 0, 73, 0
2, 675840, Note_on_c, 0, 88, 100
2, 675840, Note_on_c, 0, 98, 100
2, 675840, Note_on_c, 0, 100, 100
2, 675840, Note_on_c, 0, 75, 100
2, 676080, Note_on_c, 0, 88, 0
2, 676080, Note_on_c, 0, 98, 0
2, 676080, Note_on_c, 0, 100, 0
2, 676080, Note_on_c, 0, 75, 0
2, 676800, Note_on_c, 0, 87, 100
2, 676800, Note_on_c, 0, 98, 100
2, 676800, Note_on_c, 0, 99, 100
2, 676800, Note_on_c, 0, 74, 100
2, 677040, Note_on_c, 0, 87, 0
2, 677040, Note_on_c, 0, 98, 0
2, 677040, Note_on_c, 0, 99, 0
2, 677040, Note_on_c, 0, 74, 0
2, 677280, Note_on_c, 0, 61, 0
2, 677280, Note_on_c, 0, 103, 0
2, 677280, Note_on_c, 0, 91, 0
2, 677280, Note_on_c, 0, 67, 0
2, 677280, Note_on_c, 0, 79, 0
2, 677760, Note_on_c, 0, 106, 0
2, 677760, Note_on_c, 0, 94, 0
2, 677760, Note_on_c, 0, 70, 0
2, 677760, Note_on_c, 0, 82, 0
2, 677760, Note_on_c, 0, 84, 100
2, 677760, Note_on_c, 0, 96, 100
2, 677760, Note_on_c, 0, 72, 100
2, 678000, Note_on_c, 0, 84, 0
2, 678000, Note_on_c, 0, 96, 0
2, 678000, Note_on_c, 0, 72, 0
2, 678720, Note_on_c, 0, 73, 100
2, 678720, Note_on_c, 0, 85, 100
2, 678720, Note_on_c, 0, 98, 100
2, 678720, Note_on_c, 0, 60, 100
2, 678960, Note_on_c, 0, 73, 0
2, 678960, Note_on_c, 0, 85, 0
2, 678960, Note_on_c, 0, 98, 0
2, 678960, Note_on_c, 0, 60, 0
2, 679680, Note_on_c, 0, 84, 100
2, 679680, Note_on_c, 0, 96, 100
2, 679680, Note_on_c, 0, 72, 100
2, 679920, Note_on_c, 0, 84, 0
2, 679920, Note_on_c, 0, 96, 0
2, 679920, Note_on_c, 0, 72, 0
2, 680640, Note_on_c, 0, 73, 100
2, 680640, Note_on_c, 0, 85, 100
2, 680640, Note_on_c, 0, 98, 100
2, 680640, Note_on_c, 0, 60, 100
2, 680880, Note_on_c, 0, 73, 0
2, 680880, Note_on_c, 0, 85, 0
2, 680880, Note_on_c, 0, 98, 0
2, 680880, Note_on_c, 0, 60, 0
2, 681600, Note_on_c, 0, 84, 100
2, 681600, Note_on_c, 0, 96, 100
2, 681600, Note_on_c, 0, 72, 100
2, 681840, Note_on_c, 0, 84, 0
2, 681840, Note_on_c, 0, 96, 0
2, 681840, Note_on_c, 0, 72, 0
2, 682560, Note_on_c, 0, 73, 100
2, 682560, Note_on_c, 0, 85, 100
2, 682560, Note_on_c, 0, 98, 100
2, 682800, Note_on_c, 0, 73, 0
2, 682800, Note_on_c, 0, 85, 0
2, 682800, Note_on_c, 0, 98, 0
2, 683520, Note_on_c, 0, 105, 0
2, 683520, Note_on_c, 0, 93, 0
2, 683520, Note_on_c, 0, 69, 0
2, 683520, Note_on_c, 0, 81, 0
2, 683520, Note_on_c, 0, 74, 100
2, 683520, Note_on_c, 0, 86, 100
2, 683520, Note_on_c, 0, 99, 100
2, 683520, Note_on_c, 0, 61, 100
2, 683520, Note_on_c, 0, 106, 100
2, 683520, Note_on_c, 0, 94, 100
2, 683520, Note_on_c, 0, 70, 100
2, 683520, Note_on_c, 0, 82, 100
2, 683760, Note_on_c, 0, 74, 0
2, 683760, Note_on_c, 0, 86, 0
2, 683760, Note_on_c, 0, 99, 0
2, 683760, Note_on_c, 0, 61, 0
2, 684480, Note_on_c, 0, 84, 100
2, 684480, Note_on_c, 0, 96, 100
2, 684480, Note_on_c, 0, 72, 100
2, 684720, Note_on_c, 0, 84, 0
2, 684720, Note_on_c, 0, 96, 0
2, 684720, Note_on_c, 0, 72, 0
2, 685440, Note_on_c, 0, 74, 100
2, 685440, Note_on_c, 0, 86, 100
2, 685440, Note_on_c, 0, 99, 100
2, 685440, Note_on_c, 0, 61, 100
2, 685680, Note_on_c, 0, 74, 0
2, 685680, Note_on_c, 0, 86, 0
2, 685680, Note_on_c, 0, 99, 0
2, 685680, Note_on_c, 0, 61, 0
2, 686400, Note_on_c, 0, 84, 100
2, 686400, Note_on_c, 0, 96, 100
2, 686400, Note_on_c, 0, 72, 100
2, 686640, Note_on_c, 0, 84, 0
2, 686640, Note_on_c, 0, 96, 0
2, 686640, Note_on_c, 0, 72, 0
2, 687360, Note_on_c, 0, 74, 100
2, 687360, Note_on_c, 0, 86, 100
2, 687360, Note_on_c, 0, 99, 100
2, 687600, Note_on_c, 0, 74, 0
2, 687600, Note_on_c, 0, 86, 0
2, 687600, Note_on_c, 0, 99, 0
2, 688320, Note_on_c, 0, 84, 100
2, 688320, Note_on_c, 0, 96, 100
2, 688320, Note_on_c, 0, 72, 100
2, 688560, Note_on_c, 0, 84, 0
2, 688560, Note_on_c, 0, 96, 0
2, 688560, Note_on_c, 0, 72, 0
2, 689250, Text_t, "wail_off"
2, 689250, Text_t, "[verse]"
2, 689250, Text_t, "drum_half"
2, 689280, Note_on_c, 0, 106, 0
2, 689280, Note_on_c, 0, 94, 0
2, 689280, Note_on_c, 0, 70, 0
2, 689280, Note_on_c, 0, 82, 0
2, 689280, Note_on_c, 0, 75, 100
2, 689280, Note_on_c, 0, 87, 100
2, 689280, Note_on_c, 0, 100, 100
2, 689280, Note_on_c, 0, 62, 100
2, 689280, Note_on_c, 0, 105, 100
2, 689280, Note_on_c, 0, 93, 100
2, 689280, Note_on_c, 0, 69, 100
2, 689280, Note_on_c, 0, 81, 100
2, 689520, Note_on_c, 0, 75, 0
2, 689520, Note_on_c, 0, 87, 0
2, 689520, Note_on_c, 0, 100, 0
2, 689520, Note_on_c, 0, 62, 0
2, 690240, Note_on_c, 0, 84, 100
2, 690240, Note_on_c, 0, 96, 100
2, 690240, Note_on_c, 0, 72, 100
2, 690480, Note_on_c, 0, 84, 0
2, 690480, Note_on_c, 0, 96, 0
2, 690480, Note_on_c, 0, 72, 0
2, 691200, Note_on_c, 0, 75, 100
2, 691200, Note_on_c, 0, 87, 100
2, 691200, Note_on_c, 0, 100, 100
2, 691200, Note_on_c, 0, 62, 100
2, 691440, Note_on_c, 0, 75, 0
2, 691440, Note_on_c, 0, 87, 0
2, 691440, Note_on_c, 0, 100, 0
2, 691440, Note_on_c, 0, 62, 0
2, 692160, Note_on_c, 0, 84, 100
2, 692160, Note_on_c, 0, 96, 100
2, 692160, Note_on_c, 0, 72, 100
2, 692400, Note_on_c, 0, 84, 0
2, 692400, Note_on_c, 0, 96, 0
2, 692400, Note_on_c, 0, 72, 0
2, 693120, Note_on_c, 0, 75, 100
2, 693120, Note_on_c, 0, 87, 100
2, 693120, Note_on_c, 0, 100, 100
2, 693360, Note_on_c, 0, 75, 0
2, 693360, Note_on_c, 0, 87, 0
2, 693360, Note_on_c, 0, 100, 0
2, 694080, Note_on_c, 0, 84, 100
2, 694080, Note_on_c, 0, 96, 100
2, 694080, Note_on_c, 0, 72, 100
2, 694320, Note_on_c, 0, 84, 0
2, 694320, Note_on_c, 0, 96, 0
2, 694320, Note_on_c, 0, 72, 0
2, 695040, Note_on_c, 0, 105, 0
2, 695040, Note_on_c, 0, 93, 0
2, 695040, Note_on_c, 0, 69, 0
2, 695040, Note_on_c, 0, 81, 0
2, 695040, Note_on_c, 0, 73, 100
2, 695040, Note_on_c, 0, 86, 100
2, 695040, Note_on_c, 0, 98, 100
2, 695040, Note_on_c, 0, 61, 100
2, 695040, Note_on_c, 0, 106, 100
2, 695040, Note_on_c, 0, 94, 100
2, 695040, Note_on_c, 0, 70, 100
2, 695040, Note_on_c, 0, 82, 100
2, 695280, Note_on_c, 0, 73, 0
2, 695280, Note_on_c, 0, 86, 0
2, 695280, Note_on_c, 0, 98, 0
2, 695280, Note_on_c, 0, 61, 0
2, 696000, Note_on_c, 0, 84, 100
2, 696000, Note_on_c, 0, 96, 100
2, 696000, Note_on_c, 0, 72, 100
2, 696240, Note_on_c, 0, 84, 0
2, 696240, Note_on_c, 0, 96, 0
2, 696240, Note_on_c, 0, 72, 0
2, 696960, Note_on_c, 0, 73, 100
2, 696960, Note_on_c, 0, 86, 100
2, 696960, Note_on_c, 0, 98, 100
2, 696960, Note_on_c, 0, 61, 100
2, 697200, Note_on_c, 0, 73, 0
2, 697200, Note_on_c, 0, 86, 0
2, 697200, Note_on_c, 0, 98, 0
2, 697200, Note_on_c, 0, 61, 0
2, 697920, Note_on_c, 0, 84, 100
2, 697920, Note_on_c, 0, 96, 100
2, 697920, Note_on_c, 0, 72, 100
2, 698160, Note_on_c, 0, 84, 0
2, 698160, Note_on_c, 0, 96, 0
2, 698160, Note_on_c, 0, 72, 0
2, 698880, Note_on_c, 0, 73, 100
2, 698880, Note_on_c, 0, 86, 100
2, 698880, Note_on_c, 0, 98, 100
2, 699120, Note_on_c, 0, 73, 0
2, 699120, Note_on_c, 0, 86, 0
2, 699120, Note_on_c, 0, 98, 0
2, 699840, Note_on_c, 0, 84, 100
2, 699840, Note_on_c, 0, 96, 100
2, 699840, Note_on_c, 0, 72, 100
2, 700080, Note_on_c, 0, 84, 0
2, 700080, Note_on_c, 0, 96, 0
2, 700080, Note_on_c, 0, 72, 0
2, 700800, Note_on_c, 0, 106, 0
2, 700800, Note_on_c, 0, 94, 0
2, 700800, Note_on_c, 0, 70, 0
2, 700800, Note_on_c, 0, 82, 0
2, 700800, Note_on_c, 0, 74, 100
2, 700800, Note_on_c, 0, 87, 100
2, 700800, Note_on_c, 0, 99, 100
2, 700800, Note_on_c, 0, 62, 100
2, 700800, Note_on_c, 0, 105, 100
2, 700800, Note_on_c, 0, 93, 100
2, 700800, Note_on_c, 0, 69, 100
2, 700800, Note_on_c, 0, 81, 100
2, 701040, Note_on_c, 0, 74, 0
2, 701040, Note_on_c, 0, 87, 0
2, 701040, Note_on_c, 0, 99, 0
2, 701040, Note_on_c, 0, 62, 0
2, 701760, Note_on_c, 0, 84, 100
2, 701760, Note_on_c, 0, 96, 100
2, 701760, Note_on_c, 0, 72, 100
2, 702000, Note_on_c, 0, 84, 0
2, 702000, Note_on_c, 0, 96, 0
2, 702000, Note_on_c, 0, 72, 0
2, 702720, Note_on_c, 0, 74, 100
2, 702720, Note_on_c, 0, 87, 100
2, 702720, Note_on_c, 0, 99, 100
2, 702720, Note_on_c, 0, 62, 100
2, 702960, Note_on_c, 0, 74, 0
2, 702960, Note_on_c, 0, 87, 0
2, 702960, Note_on_c, 0, 99, 0
2, 702960, Note_on_c, 0, 62, 0
2, 703680, Note_on_c, 0, 84, 100
2, 703680, Note_on_c, 0, 96, 100
2, 703680, Note_on_c, 0, 72, 100
2, 703920, Note_on_c, 0, 84, 0
2, 703920, Note_on_c, 0, 96, 0
2, 703920, Note_on_c, 0, 72, 0
2, 704640, Note_on_c, 0, 74, 100
2, 704640, Note_on_c, 0, 87, 100
2, 704640, Note_on_c, 0, 99, 100
2, 704880, Note_on_c, 0, 74, 0
2, 704880, Note_on_c, 0, 87, 0
2, 704880, Note_on_c, 0, 99, 0
2, 705600, Note_on_c, 0, 84, 100
2, 705600, Note_on_c, 0, 96, 100
2, 705600, Note_on_c, 0, 72, 100
2, 705840, Note_on_c, 0, 84, 0
2, 705840, Note_on_c, 0, 96, 0
2, 705840, Note_on_c, 0, 72, 0
2, 706560, Text_t, "wail_off"
2, 706560, Text_t, "[verse]"
2, 706560, Text_t, "[lighting (color1)]"
2, 706560, Note_on_c, 0, 105, 0
2, 706560, Note_on_c, 0, 93, 0
2, 706560, Note_on_c, 0, 69, 0
2, 706560, Note_on_c, 0, 81, 0
2, 706560, Note_on_c, 0, 85, 100
2, 706560, Note_on_c, 0, 97, 100
2, 706560, Note_on_c, 0, 60, 100
2, 706560, Note_on_c, 0, 73, 100
2, 706560, Note_on_c, 0, 106, 100
2, 706560, Note_on_c, 0, 94, 100
2, 706560, Note_on_c, 0, 70, 100
2, 706560, Note_on_c, 0, 82, 100
2, 706800, Note_on_c, 0, 85, 0
2, 706800, Note_on_c, 0, 97, 0
2, 706800, Note_on_c, 0, 60, 0
2, 706800, Note_on_c, 0, 73, 0
2, 707520, Note_on_c, 0, 84, 100
2, 707520, Note_on_c, 0, 96, 100
2, 707520, Note_on_c, 0, 72, 100
2, 707760, Note_on_c, 0, 84, 0
2, 707760, Note_on_c, 0, 96, 0
2, 707760, Note_on_c, 0, 72, 0
2, 708480, Note_on_c, 0, 85, 100
2, 708480, Note_on_c, 0, 97, 100
2, 708480, Note_on_c, 0, 60, 100
2, 708480, Note_on_c, 0, 73, 100
2, 708720, Note_on_c, 0, 85, 0
2, 708720, Note_on_c, 0, 97, 0
2, 708720, Note_on_c, 0, 60, 0
2, 708720, Note_on_c, 0, 73, 0
2, 709440, Note_on_c, 0, 84, 100
2, 709440, Note_on_c, 0, 96, 100
2, 709440, Note_on_c, 0, 72, 100
2, 709680, Note_on_c, 0, 84, 0
2, 709680, Note_on_c, 0, 96, 0
2, 709680, Note_on_c, 0, 72, 0
2, 710400, Note_on_c, 0, 85, 100
2, 710400, Note_on_c, 0, 97, 100
2, 710400, Note_on_c, 0, 73, 100
2, 710640, Note_on_c, 0, 85, 0
2, 710640, Note_on_c, 0, 97, 0
2, 710640, Note_on_c, 0, 73, 0
2, 711360, Note_on_c, 0, 84, 100
2, 711360, Note_on_c, 0, 96, 100
2, 711360, Note_on_c, 0, 72, 100
2, 711600, Note_on_c, 0, 84, 0
2, 711600, Note_on_c, 0, 96, 0
2, 711600, Note_on_c, 0, 72, 0
2, 712320, Note_on_c, 0, 106, 0
2, 712320, Note_on_c, 0, 94, 0
2, 712320, Note_on_c, 0, 70, 0
2, 712320, Note_on_c, 0, 82, 0
2, 712320, Note_on_c, 0, 85, 100
2, 712320, Note_on_c, 0, 97, 100
2, 712320, Note_on_c, 0, 73, 100
2, 712320, Note_on_c, 0, 105, 100
2, 712320, Note_on_c, 0, 93, 100
2, 712320, Note_on_c, 0, 69, 100
2, 712320, Note_on_c, 0, 81, 100
2, 712560, Note_on_c, 0, 85, 0
2, 712560, Note_on_c, 0, 97, 0
2, 712560, Note_on_c, 0, 73, 0
2, 713280, Note_on_c, 0, 74, 100
2, 713280, Note_on_c, 0, 87, 100
2, 713280, Note_on_c, 0, 99, 100
2, 713280, Note_on_c, 0, 62, 100
2, 713520, Note_on_c, 0, 74, 0
2, 713520, Note_on_c, 0, 87, 0
2, 713520, Note_on_c, 0, 99, 0
2, 713520, Note_on_c, 0, 62, 0
2, 714240, Note_on_c, 0, 85, 100
2, 714240, Note_on_c, 0, 97, 100
2, 714240, Note_on_c, 0, 73, 100
2, 714480, Note_on_c, 0, 85, 0
2, 714480, Note_on_c, 0, 97, 0
2, 714480, Note_on_c, 0, 73, 0
2, 715200, Note_on_c, 0, 74, 100
2, 715200, Note_on_c, 0, 87, 100
2, 715200, Note_on_c, 0, 99, 100
2, 715200, Note_on_c, 0, 62, 100
2, 715440, Note_on_c, 0, 74, 0
2, 715440, Note_on_c, 0, 87, 0
2, 715440, Note_on_c, 0, 99, 0
2, 715440, Note_on_c, 0, 62, 0
2, 716160, Note_on_c, 0, 85, 100
2, 716160, Note_on_c, 0, 97, 100
2, 716160, Note_on_c, 0, 73, 100
2, 716400, Note_on_c, 0, 85, 0
2, 716400, Note_on_c, 0, 97, 0
2, 716400, Note_on_c, 0, 73, 0
2, 717120, Note_on_c, 0, 85, 100
2, 717120, Note_on_c, 0, 97, 100
2, 717120, Note_on_c, 0, 73, 100
2, 717360, Note_on_c, 0, 85, 0
2, 717360, Note_on_c, 0, 97, 0
2, 717360, Note_on_c, 0, 73, 0
2, 718050, Text_t, "drum_double"
2, 718080, Note_on_c, 0, 105, 0
2, 718080, Note_on_c, 0, 93, 0
2, 718080, Note_on_c, 0, 69, 0
2, 718080, Note_on_c, 0, 81, 0
2, 718080, Note_on_c, 0, 85, 100
2, 718080, Note_on_c, 0, 97, 100
2, 718080, Note_on_c, 0, 73, 100
2, 718080, Note_on_c, 0, 106, 100
2, 718080, Note_on_c, 0, 94, 100
2, 718080, Note_on_c, 0, 70, 100
2, 718080, Note_on_c, 0, 82, 100
2, 718320, Note_on_c, 0, 85, 0
2, 718320, Note_on_c, 0, 97, 0
2, 718320, Note_on_c, 0, 73, 0
2, 719040, Note_on_c, 0, 74, 100
2, 719040, Note_on_c, 0, 87, 100
2, 719040, Note_on_c, 0, 99, 100
2, 719040, Note_on_c, 0, 62, 100
2, 719280, Note_on_c, 0, 74, 0
2, 719280, Note_on_c, 0, 87, 0
2, 719280, Note_on_c, 0, 99, 0
2, 719280, Note_on_c, 0, 62, 0
2, 720000, Note_on_c, 0, 85, 100
2, 720000, Note_on_c, 0, 97, 100
2, 720000, Note_on_c, 0, 73, 100
2, 720240, Note_on_c, 0, 85, 0
2, 720240, Note_on_c, 0, 97, 0
2, 720240, Note_on_c, 0, 73, 0
2, 720960, Note_on_c, 0, 74, 100
2, 720960, Note_on_c, 0, 87, 100
2, 720960, Note_on_c, 0, 99, 100
2, 720960, Note_on_c, 0, 62, 100
2, 721200, Note_on_c, 0, 74, 0
2, 721200, Note_on_c, 0, 87, 0
2, 721200, Note_on_c, 0, 99, 0
2, 721200, Note_on_c, 0, 62, 0
2, 721920, Note_on_c, 0, 85, 100
2, 721920, Note_on_c, 0, 97, 100
2, 721920, Note_on_c, 0, 73, 100
2, 722160, Note_on_c, 0, 85, 0
2, 722160, Note_on_c, 0, 97, 0
2, 722160, Note_on_c, 0, 73, 0
2, 722880, Note_on_c, 0, 72, 100
2, 722880, Note_on_c, 0, 84, 100
2, 722880, Note_on_c, 0, 96, 100
2, 723120, Note_on_c, 0, 72, 0
2, 723120, Note_on_c, 0, 84, 0
2, 723120, Note_on_c, 0, 96, 0
2, 723840, Note_on_c, 0, 86, 100
2, 723840, Note_on_c, 0, 84, 100
2, 723840, Note_on_c, 0, 98, 100
2, 723840, Note_on_c, 0, 96, 100
2, 723840, Note_on_c, 0, 73, 100
2, 723840, Note_on_c, 0, 61, 100
2, 723840, Note_on_c, 0, 105, 100
2, 723840, Note_on_c, 0, 103, 100
2, 723840, Note_on_c, 0, 93, 100
2, 723840, Note_on_c, 0, 91, 100
2, 723840, Note_on_c, 0, 69, 100
2, 723840, Note_on_c, 0, 67, 100
2, 723840, Note_on_c, 0, 81, 100
2, 723840, Note_on_c, 0, 79, 100
2, 724080, Note_on_c, 0, 86, 0
2, 724080, Note_on_c, 0, 84, 0
2, 724080, Note_on_c, 0, 98, 0
2, 724080, Note_on_c, 0, 96, 0
2, 724080, Note_on_c, 0, 73, 0
2, 724080, Note_on_c, 0, 61, 0
2, 725280, Note_on_c, 0, 86, 100
2, 725280, Note_on_c, 0, 84, 100
2, 725280, Note_on_c, 0, 98, 100
2, 725280, Note_on_c, 0, 96, 100
2, 725520, Note_on_c, 0, 86, 0
2, 725520, Note_on_c, 0, 84, 0
2, 725520, Note_on_c, 0, 98, 0
2, 725520, Note_on_c, 0, 96, 0
2, 725760, Note_on_c, 0, 86, 100
2, 725760, Note_on_c, 0, 84, 100
2, 725760, Note_on_c, 0, 98, 100
2, 725760, Note_on_c, 0, 96, 100
2, 725760, Note_on_c, 0, 73, 100
2, 726000, Note_on_c, 0, 86, 0
2, 726000, Note_on_c, 0, 84, 0
2, 726000, Note_on_c, 0, 98, 0
2, 726000, Note_on_c, 0, 96, 0
2, 726000, Note_on_c, 0, 73, 0
2, 726240, Note_on_c, 0, 86, 100
2, 726240, Note_on_c, 0, 84, 100
2, 726240, Note_on_c, 0, 98, 100
2, 726240, Note_on_c, 0, 96, 100
2, 726480, Note_on_c, 0, 86, 0
2, 726480, Note_on_c, 0, 84, 0
2, 726480, Note_on_c, 0, 98, 0
2, 726480, Note_on_c, 0, 96, 0
2, 726720, Note_on_c, 0, 86, 100
2, 726720, Note_on_c, 0, 84, 100
2, 726720, Note_on_c, 0, 98, 100
2, 726720, Note_on_c, 0, 96, 100
2, 726720, Note_on_c, 0, 73, 100
2, 726720, Note_on_c, 0, 61, 100
2, 726960, Note_on_c, 0, 86, 0
2, 726960, Note_on_c, 0, 84, 0
2, 726960, Note_on_c, 0, 98, 0
2, 726960, Note_on_c, 0, 96, 0
2, 726960, Note_on_c, 0, 73, 0
2, 726960, Note_on_c, 0, 61, 0
2, 727680, Note_on_c, 0, 86, 100
2, 727680, Note_on_c, 0, 84, 100
2, 727680, Note_on_c, 0, 98, 100
2, 727680, Note_on_c, 0, 96, 100
2, 727920, Note_on_c, 0, 86, 0
2, 727920, Note_on_c, 0, 84, 0
2, 727920, Note_on_c, 0, 98, 0
2, 727920, Note_on_c, 0, 96, 0
2, 728160, Note_on_c, 0, 86, 100
2, 728160, Note_on_c, 0, 84, 100
2, 728160, Note_on_c, 0, 98, 100
2, 728160, Note_on_c, 0, 96, 100
2, 728400, Note_on_c, 0, 86, 0
2, 728400, Note_on_c, 0, 84, 0
2, 728400, Note_on_c, 0, 98, 0
2, 728400, Note_on_c, 0, 96, 0
2, 728640, Note_on_c, 0, 86, 100
2, 728640, Note_on_c, 0, 84, 100
2, 728640, Note_on_c, 0, 98, 100
2, 728640, Note_on_c, 0, 96, 100
2, 728640, Note_on_c, 0, 73, 100
2, 728880, Note_on_c, 0, 86, 0
2, 728880, Note_on_c, 0, 84, 0
2, 728880, Note_on_c, 0, 98, 0
2, 728880, Note_on_c, 0, 96, 0
2, 728880, Note_on_c, 0, 73, 0
2, 729120, Note_on_c, 0, 86, 100
2, 729120, Note_on_c, 0, 84, 100
2, 729120, Note_on_c, 0, 98, 100
2, 729120, Note_on_c, 0, 96, 100
2, 729360, Note_on_c, 0, 86, 0
2, 729360, Note_on_c, 0, 84, 0
2, 729360, Note_on_c, 0, 98, 0
2, 729360, Note_on_c, 0, 96, 0
2, 729600, Note_on_c, 0, 86, 100
2, 729600, Note_on_c, 0, 84, 100
2, 729600, Note_on_c, 0, 98, 100
2, 729600, Note_on_c, 0, 96, 100
2, 729600, Note_on_c, 0, 73, 100
2, 729600, Note_on_c, 0, 61, 100
2, 729840, Note_on_c, 0, 86, 0
2, 729840, Note_on_c, 0, 84, 0
2, 729840, Note_on_c, 0, 98, 0
2, 729840, Note_on_c, 0, 96, 0
2, 729840, Note_on_c, 0, 73, 0
2, 729840, Note_on_c, 0, 61, 0
2, 730560, Note_on_c, 0, 86, 100
2, 730560, Note_on_c, 0, 84, 100
2, 730560, Note_on_c, 0, 98, 100
2, 730560, Note_on_c, 0, 96, 100
2, 730800, Note_on_c, 0, 86, 0
2, 730800, Note_on_c, 0, 84, 0
2, 730800, Note_on_c, 0, 98, 0
2, 730800, Note_on_c, 0, 96, 0
2, 731040, Note_on_c, 0, 86, 100
2, 731040, Note_on_c, 0, 84, 100
2, 731040, Note_on_c, 0, 98, 100
2, 731040, Note_on_c, 0, 96, 100
2, 731280, Note_on_c, 0, 86, 0
2, 731280, Note_on_c, 0, 84, 0
2, 731280, Note_on_c, 0, 98, 0
2, 731280, Note_on_c, 0, 96, 0
2, 731520, Note_on_c, 0, 86, 100
2, 731520, Note_on_c, 0, 84, 100
2, 731520, Note_on_c, 0, 98, 100
2, 731520, Note_on_c, 0, 96, 100
2, 731520, Note_on_c, 0, 73, 100
2, 731760, Note_on_c, 0, 86, 0
2, 731760, Note_on_c, 0, 84, 0
2, 731760, Note_on_c, 0, 98, 0
2, 731760, Note_on_c, 0, 96, 0
2, 731760, Note_on_c, 0, 73, 0
2, 732000, Note_on_c, 0, 86, 100
2, 732000, Note_on_c, 0, 84, 100
2, 732000, Note_on_c, 0, 98, 100
2, 732000, Note_on_c, 0, 96, 100
2, 732240, Note_on_c, 0, 86, 0
2, 732240, Note_on_c, 0, 84, 0
2, 732240, Note_on_c, 0, 98, 0
2, 732240, Note_on_c, 0, 96, 0
2, 732480, Note_on_c, 0, 86, 100
2, 732480, Note_on_c, 0, 84, 100
2, 732480, Note_on_c, 0, 98, 100
2, 732480, Note_on_c, 0, 96, 100
2, 732480, Note_on_c, 0, 73, 100
2, 732480, Note_on_c, 0, 61, 100
2, 732720, Note_on_c, 0, 86, 0
2, 732720, Note_on_c, 0, 84, 0
2, 732720, Note_on_c, 0, 98, 0
2, 732720, Note_on_c, 0, 96, 0
2, 732720, Note_on_c, 0, 73, 0
2, 732720, Note_on_c, 0, 61, 0
2, 733440, Note_on_c, 0, 86, 100
2, 733440, Note_on_c, 0, 84, 100
2, 733440, Note_on_c, 0, 98, 100
2, 733440, Note_on_c, 0, 96, 100
2, 733440, Note_on_c, 0, 73, 100
2, 733680, Note_on_c, 0, 86, 0
2, 733680, Note_on_c, 0, 84, 0
2, 733680, Note_on_c, 0, 98, 0
2, 733680, Note_on_c, 0, 96, 0
2, 733680, Note_on_c, 0, 73, 0
2, 733920, Note_on_c, 0, 86, 100
2, 733920, Note_on_c, 0, 84, 100
2, 733920, Note_on_c, 0, 98, 100
2, 733920, Note_on_c, 0, 96, 100
2, 734160, Note_on_c, 0, 86, 0
2, 734160, Note_on_c, 0, 84, 0
2, 734160, Note_on_c, 0, 98, 0
2, 734160, Note_on_c, 0, 96, 0
2, 734400, Note_on_c, 0, 86, 100
2, 734400, Note_on_c, 0, 84, 100
2, 734400, Note_on_c, 0, 98, 100
2, 734400, Note_on_c, 0, 96, 100
2, 734400, Note_on_c, 0, 73, 100
2, 734640, Note_on_c, 0, 86, 0
2, 734640, Note_on_c, 0, 84, 0
2, 734640, Note_on_c, 0, 98, 0
2, 734640, Note_on_c, 0, 96, 0
2, 734640, Note_on_c, 0, 73, 0
2, 734880, Note_on_c, 0, 86, 100
2, 734880, Note_on_c, 0, 84, 100
2, 734880, Note_on_c, 0, 98, 100
2, 734880, Note_on_c, 0, 96, 100
2, 735120, Note_on_c, 0, 86, 0
2, 735120, Note_on_c, 0, 84, 0
2, 735120, Note_on_c, 0, 98, 0
2, 735120, Note_on_c, 0, 96, 0
2, 735360, Text_t, "[lighting ()]"
2, 735360, Note_on_c, 0, 106, 0
2, 735360, Note_on_c, 0, 94, 0
2, 735360, Note_on_c, 0, 70, 0
2, 735360, Note_on_c, 0, 82, 0
2, 735360, Note_on_c, 0, 103, 0
2, 735360, Note_on_c, 0, 91, 0
2, 735360, Note_on_c, 0, 67, 0
2, 735360, Note_on_c, 0, 79, 0
2, 735360, Note_on_c, 0, 72, 100
2, 735360, Note_on_c, 0, 84, 100
2, 735360, Note_on_c, 0, 96, 100
2, 735360, Note_on_c, 0, 60, 100
2, 735600, Note_on_c, 0, 72, 0
2, 735600, Note_on_c, 0, 84, 0
2, 735600, Note_on_c, 0, 96, 0
2, 735600, Note_on_c, 0, 60, 0
2, 735840, Note_on_c, 0, 84, 100
2, 735840, Note_on_c, 0, 96, 100
2, 736080, Note_on_c, 0, 84, 0
2, 736080, Note_on_c, 0, 96, 0
2, 736320, Note_on_c, 0, 84, 100
2, 736320, Note_on_c, 0, 96, 100
2, 736560, Note_on_c, 0, 84, 0
2, 736560, Note_on_c, 0, 96, 0
2, 736800, Note_on_c, 0, 75, 100
2, 736800, Note_on_c, 0, 87, 100
2, 736800, Note_on_c, 0, 100, 100
2, 736800, Note_on_c, 0, 62, 100
2, 737040, Note_on_c, 0, 75, 0
2, 737040, Note_on_c, 0, 87, 0
2, 737040, Note_on_c, 0, 100, 0
2, 737040, Note_on_c, 0, 62, 0
2, 737280, Note_on_c, 0, 87, 100
2, 737280, Note_on_c, 0, 100, 100
2, 737520, Note_on_c, 0, 87, 0
2, 737520, Note_on_c, 0, 100, 0
2, 737760, Note_on_c, 0, 87, 100
2, 737760, Note_on_c, 0, 100, 100
2, 738000, Note_on_c, 0, 87, 0
2, 738000, Note_on_c, 0, 100, 0
2, 738240, Note_on_c, 0, 73, 100
2, 738240, Note_on_c, 0, 85, 100
2, 738240, Note_on_c, 0, 98, 100
2, 738480, Note_on_c, 0, 73, 0
2, 738480, Note_on_c, 0, 85, 0
2, 738480, Note_on_c, 0, 98, 0
2, 738720, Note_on_c, 0, 85, 100
2, 738720, Note_on_c, 0, 98, 100
2, 738960, Note_on_c, 0, 85, 0
2, 738960, Note_on_c, 0, 98, 0
2, 739200, Note_on_c, 0, 72, 100
2, 739200, Note_on_c, 0, 84, 100
2, 739200, Note_on_c, 0, 97, 100
2, 739200, Note_on_c, 0, 61, 100
2, 739440, Note_on_c, 0, 72, 0
2, 739440, Note_on_c, 0, 84, 0
2, 739440, Note_on_c, 0, 97, 0
2, 739440, Note_on_c, 0, 61, 0
2, 739680, Note_on_c, 0, 84, 100
2, 739680, Note_on_c, 0, 97, 100
2, 739920, Note_on_c, 0, 84, 0
2, 739920, Note_on_c, 0, 97, 0
2, 740160, Note_on_c, 0, 74, 100
2, 740160, Note_on_c, 0, 86, 100
2, 740160, Note_on_c, 0, 99, 100
2, 740400, Note_on_c, 0, 74, 0
2, 740400, Note_on_c, 0, 86, 0
2, 740400, Note_on_c, 0, 99, 0
2, 740640, Note_on_c, 0, 86, 100
2, 740640, Note_on_c, 0, 99, 100
2, 740880, Note_on_c, 0, 86, 0
2, 740880, Note_on_c, 0, 99, 0
2, 741120, Note_on_c, 0, 105, 0
2, 741120, Note_on_c, 0, 93, 0
2, 741120, Note_on_c, 0, 69, 0
2, 741120, Note_on_c, 0, 81, 0
2, 741120, Note_on_c, 0, 72, 100
2, 741120, Note_on_c, 0, 84, 100
2, 741120, Note_on_c, 0, 96, 100
2, 741120, Note_on_c, 0, 60, 100
2, 741120, Note_on_c, 0, 106, 100
2, 741120, Note_on_c, 0, 94, 100
2, 741120, Note_on_c, 0, 70, 100
2, 741120, Note_on_c, 0, 82, 100
2, 741360, Note_on_c, 0, 72, 0
2, 741360, Note_on_c, 0, 84, 0
2, 741360, Note_on_c, 0, 96, 0
2, 741360, Note_on_c, 0, 60, 0
2, 741600, Note_on_c, 0, 84, 100
2, 741600, Note_on_c, 0, 96, 100
2, 741840, Note_on_c, 0, 84, 0
2, 741840, Note_on_c, 0, 96, 0
2, 742080, Note_on_c, 0, 84, 100
2, 742080, Note_on_c, 0, 96, 100
2, 742320, Note_on_c, 0, 84, 0
2, 742320, Note_on_c, 0, 96, 0
2, 742560, Note_on_c, 0, 75, 100
2, 742560, Note_on_c, 0, 87, 100
2, 742560, Note_on_c, 0, 100, 100
2, 742560, Note_on_c, 0, 62, 100
2, 742800, Note_on_c, 0, 75, 0
2, 742800, Note_on_c, 0, 87, 0
2, 742800, Note_on_c, 0, 100, 0
2, 742800, Note_on_c, 0, 62, 0
2, 743040, Note_on_c, 0, 87, 100
2, 743040, Note_on_c, 0, 100, 100
2, 743280, Note_on_c, 0, 87, 0
2, 743280, Note_on_c, 0, 100, 0
2, 743520, Note_on_c, 0, 87, 100
2, 743520, Note_on_c, 0, 100, 100
2, 743760, Note_on_c, 0, 87, 0
2, 743760, Note_on_c, 0, 100, 0
2, 744000, Note_on_c, 0, 73, 100
2, 744000, Note_on_c, 0, 85, 100
2, 744000, Note_on_c, 0, 98, 100
2, 744240, Note_on_c, 0, 73, 0
2, 744240, Note_on_c, 0, 85, 0
2, 744240, Note_on_c, 0, 98, 0
2, 744480, Note_on_c, 0, 85, 100
2, 744480, Note_on_c, 0, 98, 100
2, 744720, Note_on_c, 0, 85, 0
2, 744720, Note_on_c, 0, 98, 0
2, 744960, Note_on_c, 0, 72, 100
2, 744960, Note_on_c, 0, 84, 100
2, 744960, Note_on_c, 0, 97, 100
2, 744960, Note_on_c, 0, 61, 100
2, 745200, Note_on_c, 0, 72, 0
2, 745200, Note_on_c, 0, 84, 0
2, 745200, Note_on_c, 0, 97, 0
2, 745200, Note_on_c, 0, 61, 0
2, 745440, Note_on_c, 0, 84, 100
2, 745440, Note_on_c, 0, 97, 100
2, 745680, Note_on_c, 0, 84, 0
2, 745680, Note_on_c, 0, 97, 0
2, 745920, Note_on_c, 0, 74, 100
2, 745920, Note_on_c, 0, 86, 100
2, 745920, Note_on_c, 0, 99, 100
2, 746160, Note_on_c, 0, 74, 0
2, 746160, Note_on_c, 0, 86, 0
2, 746160, Note_on_c, 0, 99, 0
2, 746400, Note_on_c, 0, 86, 100
2, 746400, Note_on_c, 0, 99, 100
2, 746640, Note_on_c, 0, 86, 0
2, 746640, Note_on_c, 0, 99, 0
2, 746850, Text_t, "drum_off"
2, 746850, Text_t, "bass_off"
2, 746850, Text_t, "[solo]"
2, 746880, Note_on_c, 0, 84, 100
2, 746880, Note_on_c, 0, 96, 100
2, 746880, Note_on_c, 0, 72, 100
2, 746880, Note_on_c, 0, 60, 100
2, 746880, Note_on_c, 0, 105, 100
2, 746880, Note_on_c, 0, 93, 100
2, 746880, Note_on_c, 0, 69, 100
2, 746880, Note_on_c, 0, 81, 100
2, 747120, Note_on_c, 0, 84, 0
2, 747120, Note_on_c, 0, 96, 0
2, 747120, Note_on_c, 0, 72, 0
2, 747120, Note_on_c, 0, 60, 0
2, 747360, Note_on_c, 0, 84, 100
2, 747360, Note_on_c, 0, 96, 100
2, 747600, Note_on_c, 0, 84, 0
2, 747600, Note_on_c, 0, 96, 0
2, 747840, Note_on_c, 0, 84, 100
2, 747840, Note_on_c, 0, 96, 100
2, 748080, Note_on_c, 0, 84, 0
2, 748080, Note_on_c, 0, 96, 0
2, 748320, Note_on_c, 0, 87, 100
2, 748320, Note_on_c, 0, 100, 100
2, 748320, Note_on_c, 0, 75, 100
2, 748320, Note_on_c, 0, 62, 100
2, 748560, Note_on_c, 0, 87, 0
2, 748560, Note_on_c, 0, 100, 0
2, 748560, Note_on_c, 0, 75, 0
2, 748560, Note_on_c, 0, 62, 0
2, 748800, Note_on_c, 0, 87, 100
2, 748800, Note_on_c, 0, 100, 100
2, 749040, Note_on_c, 0, 87, 0
2, 749040, Note_on_c, 0, 100, 0
2, 749280, Note_on_c, 0, 87, 100
2, 749280, Note_on_c, 0, 100, 100
2, 749520, Note_on_c, 0, 87, 0
2, 749520, Note_on_c, 0, 100, 0
2, 749760, Note_on_c, 0, 85, 100
2, 749760, Note_on_c, 0, 98, 100
2, 749760, Note_on_c, 0, 73, 100
2, 750000, Note_on_c, 0, 85, 0
2, 750000, Note_on_c, 0, 98, 0
2, 750000, Note_on_c, 0, 73, 0
2, 750240, Note_on_c, 0, 85, 100
2, 750240, Note_on_c, 0, 98, 100
2, 750480, Note_on_c, 0, 85, 0
2, 750480, Note_on_c, 0, 98, 0
2, 750720, Note_on_c, 0, 84, 100
2, 750720, Note_on_c, 0, 97, 100
2, 750720, Note_on_c, 0, 72, 100
2, 750720, Note_on_c, 0, 61, 100
2, 750960, Note_on_c, 0, 84, 0
2, 750960, Note_on_c, 0, 97, 0
2, 750960, Note_on_c, 0, 72, 0
2, 750960, Note_on_c, 0, 61, 0
2, 751200, Note_on_c, 0, 84, 100
2, 751200, Note_on_c, 0, 97, 100
2, 751440, Note_on_c, 0, 84, 0
2, 751440, Note_on_c, 0, 97, 0
2, 751680, Note_on_c, 0, 86, 100
2, 751680, Note_on_c, 0, 99, 100
2, 751680, Note_on_c, 0, 74, 100
2, 751920, Note_on_c, 0, 86, 0
2, 751920, Note_on_c, 0, 99, 0
2, 751920, Note_on_c, 0, 74, 0
2, 752160, Note_on_c, 0, 86, 100
2, 752160, Note_on_c, 0, 99, 100
2, 752400, Note_on_c, 0, 86, 0
2, 752400, Note_on_c, 0, 99, 0
2, 752640, Note_on_c, 0, 84, 100
2, 752640, Note_on_c, 0, 96, 100
2, 752640, Note_on_c, 0, 72, 100
2, 752640, Note_on_c, 0, 60, 100
2, 752880, Note_on_c, 0, 84, 0
2, 752880, Note_on_c, 0, 96, 0
2, 752880, Note_on_c, 0, 72, 0
2, 752880, Note_on_c, 0, 60, 0
2, 753120, Note_on_c, 0, 84, 100
2, 753120, Note_on_c, 0, 96, 100
2, 753360, Note_on_c, 0, 84, 0
2, 753360, Note_on_c, 0, 96, 0
2, 753600, Note_on_c, 0, 84, 100
2, 753600, Note_on_c, 0, 96, 100
2, 753840, Note_on_c, 0, 84, 0
2, 753840, Note_on_c, 0, 96, 0
2, 754080, Note_on_c, 0, 87, 100
2, 754080, Note_on_c, 0, 100, 100
2, 754080, Note_on_c, 0, 75, 100
2, 754080, Note_on_c, 0, 62, 100
2, 754320, Note_on_c, 0, 87, 0
2, 754320, Note_on_c, 0, 100, 0
2, 754320, Note_on_c, 0, 75, 0
2, 754320, Note_on_c, 0, 62, 0
2, 754560, Note_on_c, 0, 87, 100
2, 754560, Note_on_c, 0, 100, 100
2, 754800, Note_on_c, 0, 87, 0
2, 754800, Note_on_c, 0, 100, 0
2, 755040, Note_on_c, 0, 87, 100
2, 755040, Note_on_c, 0, 100, 100
2, 755280, Note_on_c, 0, 87, 0
2, 755280, Note_on_c, 0, 100, 0
2, 755520, Note_on_c, 0, 85, 100
2, 755520, Note_on_c, 0, 98, 100
2, 755520, Note_on_c, 0, 73, 100
2, 755760, Note_on_c, 0, 85, 0
2, 755760, Note_on_c, 0, 98, 0
2, 755760, Note_on_c, 0, 73, 0
2, 756000, Note_on_c, 0, 85, 100
2, 756000, Note_on_c, 0, 98, 100
2, 756240, Note_on_c, 0, 85, 0
2, 756240, Note_on_c, 0, 98, 0
2, 756480, Note_on_c, 0, 84, 100
2, 756480, Note_on_c, 0, 97, 100
2, 756480, Note_on_c, 0, 72, 100
2, 756480, Note_on_c, 0, 61, 100
2, 756720, Note_on_c, 0, 84, 0
2, 756720, Note_on_c, 0, 97, 0
2, 756720, Note_on_c, 0, 72, 0
2, 756720, Note_on_c, 0, 61, 0
2, 756960, Note_on_c, 0, 84, 100
2, 756960, Note_on_c, 0, 97, 100
2, 757200, Note_on_c, 0, 84, 0
2, 757200, Note_on_c, 0, 97, 0
2, 757440, Note_on_c, 0, 86, 100
2, 757440, Note_on_c, 0, 99, 100
2, 757440, Note_on_c, 0, 74, 100
2, 757680, Note_on_c, 0, 86, 0
2, 757680, Note_on_c, 0, 99, 0
2, 757680, Note_on_c, 0, 74, 0
2, 757920, Note_on_c, 0, 86, 100
2, 757920, Note_on_c, 0, 99, 100
2, 758160, Note_on_c, 0, 86, 0
2, 758160, Note_on_c, 0, 99, 0
2, 758400, Note_on_c, 0, 84, 100
2, 758400, Note_on_c, 0, 96, 100
2, 758400, Note_on_c, 0, 72, 100
2, 758400, Note_on_c, 0, 60, 100
2, 758400, Note_on_c, 0, 103, 100
2, 758400, Note_on_c, 0, 91, 100
2, 758400, Note_on_c, 0, 67, 100
2, 758400, Note_on_c, 0, 79, 100
2, 758640, Note_on_c, 0, 84, 0
2, 758640, Note_on_c, 0, 96, 0
2, 758640, Note_on_c, 0, 72, 0
2, 758640, Note_on_c, 0, 60, 0
2, 758880, Note_on_c, 0, 84, 100
2, 758880, Note_on_c, 0, 96, 100
2, 759120, Note_on_c, 0, 84, 0
2, 759120, Note_on_c, 0, 96, 0
2, 759360, Note_on_c, 0, 84, 100
2, 759360, Note_on_c, 0, 96, 100
2, 759600, Note_on_c, 0, 84, 0
2, 759600, Note_on_c, 0, 96, 0
2, 759840, Note_on_c, 0, 87, 100
2, 759840, Note_on_c, 0, 100, 100
2, 759840, Note_on_c, 0, 75, 100
2, 759840, Note_on_c, 0, 62, 100
2, 760080, Note_on_c, 0, 87, 0
2, 760080, Note_on_c, 0, 100, 0
2, 760080, Note_on_c, 0, 75, 0
2, 760080, Note_on_c, 0, 62, 0
2, 760320, Note_on_c, 0, 87, 100
2, 760320, Note_on_c, 0, 100, 100
2, 760560, Note_on_c, 0, 87, 0
2, 760560, Note_on_c, 0, 100, 0
2, 760800, Note_on_c, 0, 87, 100
2, 760800, Note_on_c, 0, 100, 100
2, 761040, Note_on_c, 0, 87, 0
2, 761040, Note_on_c, 0, 100, 0
2, 761280, Note_on_c, 0, 103, 0
2, 761280, Note_on_c, 0, 91, 0
2, 761280, Note_on_c, 0, 67, 0
2, 761280, Note_on_c, 0, 79, 0
2, 761280, Note_on_c, 0, 85, 100
2, 761280, Note_on_c, 0, 98, 100
2, 761280, Note_on_c, 0, 73, 100
2, 761520, Note_on_c, 0, 85, 0
2, 761520, Note_on_c, 0, 98, 0
2, 761520, Note_on_c, 0, 73, 0
2, 762240, Note_on_c, 0, 84, 100
2, 762240, Note_on_c, 0, 97, 100
2, 762240, Note_on_c, 0, 72, 100
2, 762240, Note_on_c, 0, 61, 100
2, 762480, Note_on_c, 0, 84, 0
2, 762480, Note_on_c, 0, 97, 0
2, 762480, Note_on_c, 0, 72, 0
2, 762480, Note_on_c, 0, 61, 0
2, 763200, Note_on_c, 0, 86, 100
2, 763200, Note_on_c, 0, 99, 100
2, 763200, Note_on_c, 0, 74, 100
2, 763440, Note_on_c, 0, 86, 0
2, 763440, Note_on_c, 0, 99, 0
2, 763440, Note_on_c, 0, 74, 0
2, 764160, Text_t, "[lighting (flare)]"
2, 764160, Text_t, "bass_off"
2, 764160, Text_t, "[solo]"
2, 764160, Note_on_c, 0, 84, 100
2, 764160, Note_on_c, 0, 96, 100
2, 764160, Note_on_c, 0, 72, 100
2, 764160, Note_on_c, 0, 60, 100
2, 764400, Note_on_c, 0, 84, 0
2, 764400, Note_on_c, 0, 96, 0
2, 764400, Note_on_c, 0, 72, 0
2, 764400, Note_on_c, 0, 60, 0
2, 764640, Note_on_c, 0, 84, 100
2, 764640, Note_on_c, 0, 96, 100
2, 764880, Note_on_c, 0, 84, 0
2, 764880, Note_on_c, 0, 96, 0
2, 765120, Note_on_c, 0, 84, 100
2, 765120, Note_on_c, 0, 96, 100
2, 765360, Note_on_c, 0, 84, 0
2, 765360, Note_on_c, 0, 96, 0
2, 765600, Note_on_c, 0, 87, 100
2, 765600, Note_on_c, 0, 100, 100
2, 765600, Note_on_c, 0, 75, 100
2, 765600, Note_on_c, 0, 62, 100
2, 765840, Note_on_c, 0, 87, 0
2, 765840, Note_on_c, 0, 100, 0
2, 765840, Note_on_c, 0, 75, 0
2, 765840, Note_on_c, 0, 62, 0
2, 766080, Note_on_c, 0, 87, 100
2, 766080, Note_on_c, 0, 100, 100
2, 766320, Note_on_c, 0, 87, 0
2, 766320, Note_on_c, 0, 100, 0
2, 766560, Note_on_c, 0, 87, 100
2, 766560, Note_on_c, 0, 100, 100
2, 766800, Note_on_c, 0, 87, 0
2, 766800, Note_on_c, 0, 100, 0
2, 767040, Note_on_c, 0, 85, 100
2, 767040, Note_on_c, 0, 98, 100
2, 767040, Note_on_c, 0, 73, 100
2, 767280, Note_on_c, 0, 85, 0
2, 767280, Note_on_c, 0, 98, 0
2, 767280, Note_on_c, 0, 73, 0
2, 768000, Note_on_c, 0, 84, 100
2, 768000, Note_on_c, 0, 97, 100
2, 768000, Note_on_c, 0, 72, 100
2, 768000, Note_on_c, 0, 61, 100
2, 768240, Note_on_c, 0, 84, 0
2, 768240, Note_on_c, 0, 97, 0
2, 768240, Note_on_c, 0, 72, 0
2, 768240, Note_on_c, 0, 61, 0
2, 768960, Note_on_c, 0, 86, 100
2, 768960, Note_on_c, 0, 99, 100
2, 768960, Note_on_c, 0, 74, 100
2, 769200, Note_on_c, 0, 86, 0
2, 769200, Note_on_c, 0, 99, 0
2, 769200, Note_on_c, 0, 74, 0
2, 769890, Text_t, "[chorus]"
2, 769890, Text_t, "drum_double"
2, 769890, Text_t, "bass_on"
2, 769920, Note_on_c, 0, 84, 100
2, 769920, Note_on_c, 0, 96, 100
2, 769920, Note_on_c, 0, 72, 100
2, 769920, Note_on_c, 0, 60, 100
2, 770160, Note_on_c, 0, 84, 0
2, 770160, Note_on_c, 0, 96, 0
2, 770160, Note_on_c, 0, 72, 0
2, 770160, Note_on_c, 0, 60, 0
2, 770400, Note_on_c, 0, 84, 100
2, 770400, Note_on_c, 0, 96, 100
2, 770640, Note_on_c, 0, 84, 0
2, 770640, Note_on_c, 0, 96, 0
2, 770880, Note_on_c, 0, 84, 100
2, 770880, Note_on_c, 0, 96, 100
2, 771120, Note_on_c, 0, 84, 0
2, 771120, Note_on_c, 0, 96, 0
2, 771360, Note_on_c, 0, 87, 100
2, 771360, Note_on_c, 0, 100, 100
2, 771360, Note_on_c, 0, 75, 100
2, 771360, Note_on_c, 0, 62, 100
2, 771600, Note_on_c, 0, 87, 0
2, 771600, Note_on_c, 0, 100, 0
2, 771600, Note_on_c, 0, 75, 0
2, 771600, Note_on_c, 0, 62, 0
2, 771840, Note_on_c, 0, 87, 100
2, 771840, Note_on_c, 0, 100, 100
2, 772080, Note_on_c, 0, 87, 0
2, 772080, Note_on_c, 0, 100, 0
2, 772320, Note_on_c, 0, 87, 100
2, 772320, Note_on_c, 0, 100, 100
2, 772560, Note_on_c, 0, 87, 0
2, 772560, Note_on_c, 0, 100, 0
2, 772800, Note_on_c, 0, 85, 100
2, 772800, Note_on_c, 0, 98, 100
2, 772800, Note_on_c, 0, 73, 100
2, 773040, Note_on_c, 0, 85, 0
2, 773040, Note_on_c, 0, 98, 0
2, 773040, Note_on_c, 0, 73, 0
2, 773760, Note_on_c, 0, 84, 100
2, 773760, Note_on_c, 0, 97, 100
2, 773760, Note_on_c, 0, 72, 100
2, 773760, Note_on_c, 0, 61, 100
2, 774000, Note_on_c, 0, 84, 0
2, 774000, Note_on_c, 0, 97, 0
2, 774000, Note_on_c, 0, 72, 0
2, 774000, Note_on_c, 0, 61, 0
2, 774720, Note_on_c, 0, 86, 100
2, 774720, Note_on_c, 0, 99, 100
2, 774720, Note_on_c, 0, 74, 100
2, 774960, Note_on_c, 0, 86, 0
2, 774960, Note_on_c, 0, 99, 0
2, 774960, Note_on_c, 0, 74, 0
2, 775680, Note_on_c, 0, 84, 100
2, 775680, Note_on_c, 0, 96, 100
2, 775680, Note_on_c, 0, 72, 100
2, 775680, Note_on_c, 0, 60, 100
2, 775920, Note_on_c, 0, 84, 0
2, 775920, Note_on_c, 0, 96, 0
2, 775920, Note_on_c, 0, 72, 0
2, 775920, Note_on_c, 0, 60, 0
2, 776160, Note_on_c, 0, 84, 100
2, 776160, Note_on_c, 0, 96, 100
2, 776400, Note_on_c, 0, 84, 0
2, 776400, Note_on_c, 0, 96, 0
2, 776640, Note_on_c, 0, 84, 100
2, 776640, Note_on_c, 0, 96, 100
2, 776880, Note_on_c, 0, 84, 0
2, 776880, Note_on_c, 0, 96, 0
2, 777120, Note_on_c, 0, 87, 100
2, 777120, Note_on_c, 0, 100, 100
2, 777120, Note_on_c, 0, 75, 100
2, 777120, Note_on_c, 0, 62, 100
2, 777360, Note_on_c, 0, 87, 0
2, 777360, Note_on_c, 0, 100, 0
2, 777360, Note_on_c, 0, 75, 0
2, 777360, Note_on_c, 0, 62, 0
2, 777600, Note_on_c, 0, 87, 100
2, 777600, Note_on_c, 0, 100, 100
2, 777840, Note_on_c, 0, 87, 0
2, 777840, Note_on_c, 0, 100, 0
2, 778080, Note_on_c, 0, 87, 100
2, 778080, Note_on_c, 0, 100, 100
2, 778320, Note_on_c, 0, 87, 0
2, 778320, Note_on_c, 0, 100, 0
2, 778560, Note_on_c, 0, 85, 100
2, 778560, Note_on_c, 0, 98, 100
2, 778560, Note_on_c, 0, 73, 100
2, 778800, Note_on_c, 0, 85, 0
2, 778800, Note_on_c, 0, 98, 0
2, 778800, Note_on_c, 0, 73, 0
2, 779520, Note_on_c, 0, 84, 100
2, 779520, Note_on_c, 0, 97, 100
2, 779520, Note_on_c, 0, 72, 100
2, 779520, Note_on_c, 0, 61, 100
2, 779760, Note_on_c, 0, 84, 0
2, 779760, Note_on_c, 0, 97, 0
2, 779760, Note_on_c, 0, 72, 0
2, 779760, Note_on_c, 0, 61, 0
2, 780480, Note_on_c, 0, 86, 100
2, 780480, Note_on_c, 0, 99, 100
2, 780480, Note_on_c, 0, 74, 100
2, 780720, Note_on_c, 0, 86, 0
2, 780720, Note_on_c, 0, 99, 0
2, 780720, Note_on_c, 0, 74, 0
2, 781440, Note_on_c, 0, 106, 0
2, 781440, Note_on_c, 0, 94, 0
2, 781440, Note_on_c, 0, 70, 0
2, 781440, Note_on_c, 0, 82, 0
2, 781440, Note_on_c, 0, 105, 0
2, 781440, Note_on_c, 0, 93, 0
2, 781440, Note_on_c, 0, 69, 0
2, 781440, Note_on_c, 0, 81, 0
2, 781440, Note_on_c, 0, 73, 100
2, 781440, Note_on_c, 0, 85, 100
2, 781440, Note_on_c, 0, 97, 100
2, 781440, Note_on_c, 0, 61, 100
2, 781440, Note_on_c, 0, 105, 100
2, 781440, Note_on_c, 0, 93, 100
2, 781440, Note_on_c, 0, 69, 100
2, 781440, Note_on_c, 0, 81, 100
2, 781680, Note_on_c, 0, 73, 0
2, 781680, Note_on_c, 0, 85, 0
2, 781680, Note_on_c, 0, 97, 0
2, 781680, Note_on_c, 0, 61, 0
2, 781920, Note_on_c, 0, 85, 100
2, 781920, Note_on_c, 0, 97, 100
2, 782160, Note_on_c, 0, 85, 0
2, 782160, Note_on_c, 0, 97, 0
2, 782400, Note_on_c, 0, 85, 100
2, 782400, Note_on_c, 0, 97, 100
2, 782640, Note_on_c, 0, 85, 0
2, 782640, Note_on_c, 0, 97, 0
2, 782880, Note_on_c, 0, 75, 100
2, 782880, Note_on_c, 0, 87, 100
2, 782880, Note_on_c, 0, 100, 100
2, 782880, Note_on_c, 0, 62, 100
2, 783120, Note_on_c, 0, 75, 0
2, 783120, Note_on_c, 0, 87, 0
2, 783120, Note_on_c, 0, 100, 0
2, 783120, Note_on_c, 0, 62, 0
2, 783360, Note_on_c, 0, 87, 100
2, 783360, Note_on_c, 0, 100, 100
2, 783600, Note_on_c, 0, 87, 0
2, 783600, Note_on_c, 0, 100, 0
2, 783840, Note_on_c, 0, 87, 100
2, 783840, Note_on_c, 0, 100, 100
2, 784080, Note_on_c, 0, 87, 0
2, 784080, Note_on_c, 0, 100, 0
2, 784320, Note_on_c, 0, 73, 100
2, 784320, Note_on_c, 0, 85, 100
2, 784320, Note_on_c, 0, 98, 100
2, 784560, Note_on_c, 0, 73, 0
2, 784560, Note_on_c, 0, 85, 0
2, 784560, Note_on_c, 0, 98, 0
2, 785280, Note_on_c, 0, 72, 100
2, 785280, Note_on_c, 0, 84, 100
2, 785280, Note_on_c, 0, 97, 100
2, 785280, Note_on_c, 0, 61, 100
2, 785520, Note_on_c, 0, 72, 0
2, 785520, Note_on_c, 0, 84, 0
2, 785520, Note_on_c, 0, 97, 0
2, 785520, Note_on_c, 0, 61, 0
2, 786240, Note_on_c, 0, 74, 100
2, 786240, Note_on_c, 0, 86, 100
2, 786240, Note_on_c, 0, 99, 100
2, 786480, Note_on_c, 0, 74, 0
2, 786480, Note_on_c, 0, 86, 0
2, 786480, Note_on_c, 0, 99, 0
2, 787200, Text_t, "[chorus]"
2, 787200, Text_t, "[lighting ()]"
2, 787200, Text_t, "bass_on"
2, 787200, Note_on_c, 0, 105, 0
2, 787200, Note_on_c, 0, 93, 0
2, 787200, Note_on_c, 0, 69, 0
2, 787200, Note_on_c, 0, 81, 0
2, 787200, Note_on_c, 0, 74, 100
2, 787200, Note_on_c, 0, 86, 100
2, 787200, Note_on_c, 0, 98, 100
2, 787200, Note_on_c, 0, 62, 100
2, 787200, Note_on_c, 0, 106, 100
2, 787200, Note_on_c, 0, 94, 100
2, 787200, Note_on_c, 0, 70, 100
2, 787200, Note_on_c, 0, 82, 100
2, 787440, Note_on_c, 0, 74, 0
2, 787440, Note_on_c, 0, 86, 0
2, 787440, Note_on_c, 0, 98, 0
2, 787440, Note_on_c, 0, 62, 0
2, 787680, Note_on_c, 0, 86, 100
2, 787680, Note_on_c, 0, 98, 100
2, 787920, Note_on_c, 0, 86, 0
2, 787920, Note_on_c, 0, 98, 0
2, 788160, Note_on_c, 0, 86, 100
2, 788160, Note_on_c, 0, 98, 100
2, 788400, Note_on_c, 0, 86, 0
2, 788400, Note_on_c, 0, 98, 0
2, 788640, Note_on_c, 0, 75, 100
2, 788640, Note_on_c, 0, 87, 100
2, 788640, Note_on_c, 0, 100, 100
2, 788640, Note_on_c, 0, 62, 100
2, 788880, Note_on_c, 0, 75, 0
2, 788880, Note_on_c, 0, 87, 0
2, 788880, Note_on_c, 0, 100, 0
2, 788880, Note_on_c, 0, 62, 0
2, 789120, Note_on_c, 0, 87, 100
2, 789120, Note_on_c, 0, 100, 100
2, 789360, Note_on_c, 0, 87, 0
2, 789360, Note_on_c, 0, 100, 0
2, 789600, Note_on_c, 0, 87, 100
2, 789600, Note_on_c, 0, 100, 100
2, 789840, Note_on_c, 0, 87, 0
2, 789840, Note_on_c, 0, 100, 0
2, 790080, Note_on_c, 0, 73, 100
2, 790080, Note_on_c, 0, 85, 100
2, 790080, Note_on_c, 0, 98, 100
2, 790320, Note_on_c, 0, 73, 0
2, 790320, Note_on_c, 0, 85, 0
2, 790320, Note_on_c, 0, 98, 0
2, 791040, Note_on_c, 0, 72, 100
2, 791040, Note_on_c, 0, 84, 100
2, 791040, Note_on_c, 0, 97, 100
2, 791040, Note_on_c, 0, 61, 100
2, 791280, Note_on_c, 0, 72, 0
2, 791280, Note_on_c, 0, 84, 0
2, 791280, Note_on_c, 0, 97, 0
2, 791280, Note_on_c, 0, 61, 0
2, 792000, Note_on_c, 0, 74, 100
2, 792000, Note_on_c, 0, 86, 100
2, 792000, Note_on_c, 0, 99, 100
2, 792240, Note_on_c, 0, 74, 0
2, 792240, Note_on_c, 0, 86, 0
2, 792240, Note_on_c, 0, 99, 0
2, 792960, Note_on_c, 0, 106, 0
2, 792960, Note_on_c, 0, 94, 0
2, 792960, Note_on_c, 0, 70, 0
2, 792960, Note_on_c, 0, 82, 0
2, 792960, Note_on_c, 0, 73, 100
2, 792960, Note_on_c, 0, 85, 100
2, 792960, Note_on_c, 0, 97, 100
2, 792960, Note_on_c, 0, 61, 100
2, 792960, Note_on_c, 0, 105, 100
2, 792960, Note_on_c, 0, 93, 100
2, 792960, Note_on_c, 0, 69, 100
2, 792960, Note_on_c, 0, 81, 100
2, 793200, Note_on_c, 0, 73, 0
2, 793200, Note_on_c, 0, 85, 0
2, 793200, Note_on_c, 0, 97, 0
2, 793200, Note_on_c, 0, 61, 0
2, 793440, Note_on_c, 0, 85, 100
2, 793440, Note_on_c, 0, 97, 100
2, 793680, Note_on_c, 0, 85, 0
2, 793680, Note_on_c, 0, 97, 0
2, 793920, Note_on_c, 0, 85, 100
2, 793920, Note_on_c, 0, 97, 100
2, 794160, Note_on_c, 0, 85, 0
2, 794160, Note_on_c, 0, 97, 0
2, 794400, Note_on_c, 0, 75, 100
2, 794400, Note_on_c, 0, 87, 100
2, 794400, Note_on_c, 0, 100, 100
2, 794400, Note_on_c, 0, 62, 100
2, 794640, Note_on_c, 0, 75, 0
2, 794640, Note_on_c, 0, 87, 0
2, 794640, Note_on_c, 0, 100, 0
2, 794640, Note_on_c, 0, 62, 0
2, 794880, Note_on_c, 0, 87, 100
2, 794880, Note_on_c, 0, 100, 100
2, 795120, Note_on_c, 0, 87, 0
2, 795120, Note_on_c, 0, 100, 0
2, 795360, Note_on_c, 0, 87, 100
2, 795360, Note_on_c, 0, 100, 100
2, 795600, Note_on_c, 0, 87, 0
2, 795600, Note_on_c, 0, 100, 0
2, 795840, Note_on_c, 0, 73, 100
2, 795840, Note_on_c, 0, 85, 100
2, 795840, Note_on_c, 0, 98, 100
2, 796080, Note_on_c, 0, 73, 0
2, 796080, Note_on_c, 0, 85, 0
2, 796080, Note_on_c, 0, 98, 0
2, 796800, Note_on_c, 0, 72, 100
2, 796800, Note_on_c, 0, 84, 100
2, 796800, Note_on_c, 0, 97, 100
2, 796800, Note_on_c, 0, 61, 100
2, 797040, Note_on_c, 0, 72, 0
2, 797040, Note_on_c, 0, 84, 0
2, 797040, Note_on_c, 0, 97, 0
2, 797040, Note_on_c, 0, 61, 0
2, 797760, Note_on_c, 0, 74, 100
2, 797760, Note_on_c, 0, 86, 100
2, 797760, Note_on_c, 0, 99, 100
2, 798000, Note_on_c, 0, 74, 0
2, 798000, Note_on_c, 0, 86, 0
2, 798000, Note_on_c, 0, 99, 0
2, 798720, Note_on_c, 0, 105, 0
2, 798720, Note_on_c, 0, 93, 0
2, 798720, Note_on_c, 0, 69, 0
2, 798720, Note_on_c, 0, 81, 0
2, 798720, Note_on_c, 0, 84, 100
2, 798720, Note_on_c, 0, 97, 100
2, 798720, Note_on_c, 0, 72, 100
2, 798720, Note_on_c, 0, 60, 100
2, 798720, Note_on_c, 0, 106, 100
2, 798720, Note_on_c, 0, 94, 100
2, 798720, Note_on_c, 0, 70, 100
2, 798720, Note_on_c, 0, 82, 100
2, 798960, Note_on_c, 0, 84, 0
2, 798960, Note_on_c, 0, 97, 0
2, 798960, Note_on_c, 0, 72, 0
2, 798960, Note_on_c, 0, 60, 0
2, 799200, Note_on_c, 0, 84, 100
2, 799200, Note_on_c, 0, 97, 100
2, 799440, Note_on_c, 0, 84, 0
2, 799440, Note_on_c, 0, 97, 0
2, 799680, Note_on_c, 0, 84, 100
2, 799680, Note_on_c, 0, 97, 100
2, 799920, Note_on_c, 0, 84, 0
2, 799920, Note_on_c, 0, 97, 0
2, 800160, Note_on_c, 0, 87, 100
2, 800160, Note_on_c, 0, 100, 100
2, 800160, Note_on_c, 0, 75, 100
2, 800160, Note_on_c, 0, 62, 100
2, 800400, Note_on_c, 0, 87, 0
2, 800400, Note_on_c, 0, 100, 0
2, 800400, Note_on_c, 0, 75, 0
2, 800400, Note_on_c, 0, 62, 0
2, 800640, Note_on_c, 0, 87, 100
2, 800640, Note_on_c, 0, 100, 100
2, 800880, Note_on_c, 0, 87, 0
2, 800880, Note_on_c, 0, 100, 0
2, 801120, Note_on_c, 0, 87, 100
2, 801120, Note_on_c, 0, 100, 100
2, 801360, Note_on_c, 0, 87, 0
2, 801360, Note_on_c, 0, 100, 0
2, 801600, Note_on_c, 0, 85, 100
2, 801600, Note_on_c, 0, 98, 100
2, 801600, Note_on_c, 0, 73, 100
2, 801840, Note_on_c, 0, 85, 0
2, 801840, Note_on_c, 0, 98, 0
2, 801840, Note_on_c, 0, 73, 0
2, 802560, Note_on_c, 0, 84, 100
2, 802560, Note_on_c, 0, 97, 100
2, 802560, Note_on_c, 0, 72, 100
2, 802560, Note_on_c, 0, 61, 100
2, 802800, Note_on_c, 0, 84, 0
2, 802800, Note_on_c, 0, 97, 0
2, 802800, Note_on_c, 0, 72, 0
2, 802800, Note_on_c, 0, 61, 0
2, 803520, Note_on_c, 0, 86, 100
2, 803520, Note_on_c, 0, 99, 100
2, 803520, Note_on_c, 0, 74, 100
2, 803760, Note_on_c, 0, 86, 0
2, 803760, Note_on_c, 0, 99, 0
2, 803760, Note_on_c, 0, 74, 0
2, 804480, Note_on_c, 0, 84, 100
2, 804480, Note_on_c, 0, 96, 100
2, 804480, Note_on_c, 0, 72, 100
2, 804480, Note_on_c, 0, 60, 100
2, 804480, Note_on_c, 0, 105, 100
2, 804480, Note_on_c, 0, 93, 100
2, 804480, Note_on_c, 0, 69, 100
2, 804480, Note_on_c, 0, 81, 100
2, 804720, Note_on_c, 0, 84, 0
2, 804720, Note_on_c, 0, 96, 0
2, 804720, Note_on_c, 0, 72, 0
2, 804720, Note_on_c, 0, 60, 0
2, 804960, Note_on_c, 0, 84, 100
2, 804960, Note_on_c, 0, 96, 100
2, 805200, Note_on_c, 0, 84, 0
2, 805200, Note_on_c, 0, 96, 0
2, 805440, Note_on_c, 0, 84, 100
2, 805440, Note_on_c, 0, 96, 100
2, 805680, Note_on_c, 0, 84, 0
2, 805680, Note_on_c, 0, 96, 0
2, 805920, Note_on_c, 0, 87, 100
2, 805920, Note_on_c, 0, 100, 100
2, 805920, Note_on_c, 0, 75, 100
2, 805920, Note_on_c, 0, 62, 100
2, 806160, Note_on_c, 0, 87, 0
2, 806160, Note_on_c, 0, 100, 0
2, 806160, Note_on_c, 0, 75, 0
2, 806160, Note_on_c, 0, 62, 0
2, 806400, Note_on_c, 0, 87, 100
2, 806400, Note_on_c, 0, 100, 100
2, 806640, Note_on_c, 0, 87, 0
2, 806640, Note_on_c, 0, 100, 0
2, 806880, Note_on_c, 0, 87, 100
2, 806880, Note_on_c, 0, 100, 100
2, 807120, Note_on_c, 0, 87, 0
2, 807120, Note_on_c, 0, 100, 0
2, 807360, Note_on_c, 0, 85, 100
2, 807360, Note_on_c, 0, 98, 100
2, 807360, Note_on_c, 0, 73, 100
2, 807600, Note_on_c, 0, 85, 0
2, 807600, Note_on_c, 0, 98, 0
2, 807600, Note_on_c, 0, 73, 0
2, 808320, Note_on_c, 0, 84, 100
2, 808320, Note_on_c, 0, 97, 100
2, 808320, Note_on_c, 0, 72, 100
2, 808320, Note_on_c, 0, 61, 100
2, 808560, Note_on_c, 0, 84, 0
2, 808560, Note_on_c, 0, 97, 0
2, 808560, Note_on_c, 0, 72, 0
2, 808560, Note_on_c, 0, 61, 0
2, 809280, Note_on_c, 0, 86, 100
2, 809280, Note_on_c, 0, 99, 100
2, 809280, Note_on_c, 0, 74, 100
2, 809520, Note_on_c, 0, 86, 0
2, 809520, Note_on_c, 0, 99, 0
2, 809520, Note_on_c, 0, 74, 0
2, 810240, Note_on_c, 0, 84, 100
2, 810240, Note_on_c, 0, 96, 100
2, 810240, Note_on_c, 0, 72, 100
2, 810240, Note_on_c, 0, 60, 100
2, 810480, Note_on_c, 0, 84, 0
2, 810480, Note_on_c, 0, 96, 0
2, 810480, Note_on_c, 0, 72, 0
2, 810480, Note_on_c, 0, 60, 0
2, 810720, Note_on_c, 0, 84, 100
2, 810720, Note_on_c, 0, 96, 100
2, 810960, Note_on_c, 0, 84, 0
2, 810960, Note_on_c, 0, 96, 0
2, 811200, Note_on_c, 0, 84, 100
2, 811200, Note_on_c, 0, 96, 100
2, 811440, Note_on_c, 0, 84, 0
2, 811440, Note_on_c, 0, 96, 0
2, 811680, Note_on_c, 0, 87, 100
2, 811680, Note_on_c, 0, 100, 100
2, 811680, Note_on_c, 0, 75, 100
2, 811680, Note_on_c, 0, 62, 100
2, 811920, Note_on_c, 0, 87, 0
2, 811920, Note_on_c, 0, 100, 0
2, 811920, Note_on_c, 0, 75, 0
2, 811920, Note_on_c, 0, 62, 0
2, 812160, Note_on_c, 0, 87, 100
2, 812160, Note_on_c, 0, 100, 100
2, 812400, Note_on_c, 0, 87, 0
2, 812400, Note_on_c, 0, 100, 0
2, 812640, Note_on_c, 0, 87, 100
2, 812640, Note_on_c, 0, 100, 100
2, 812880, Note_on_c, 0, 87, 0
2, 812880, Note_on_c, 0, 100, 0
2, 813120, Note_on_c, 0, 85, 100
2, 813120, Note_on_c, 0, 98, 100
2, 813120, Note_on_c, 0, 73, 100
2, 813360, Note_on_c, 0, 85, 0
2, 813360, Note_on_c, 0, 98, 0
2, 813360, Note_on_c, 0, 73, 0
2, 814080, Note_on_c, 0, 84, 100
2, 814080, Note_on_c, 0, 97, 100
2, 814080, Note_on_c, 0, 72, 100
2, 814080, Note_on_c, 0, 61, 100
2, 814320, Note_on_c, 0, 84, 0
2, 814320, Note_on_c, 0, 97, 0
2, 814320, Note_on_c, 0, 72, 0
2, 814320, Note_on_c, 0, 61, 0
2, 815040, Note_on_c, 0, 86, 100
2, 815040, Note_on_c, 0, 99, 100
2, 815040, Note_on_c, 0, 74, 100
2, 815280, Note_on_c, 0, 86, 0
2, 815280, Note_on_c, 0, 99, 0
2, 815280, Note_on_c, 0, 74, 0
2, 816000, Note_on_c, 0, 84, 100
2, 816000, Note_on_c, 0, 96, 100
2, 816000, Note_on_c, 0, 72, 100
2, 816000, Note_on_c, 0, 60, 100
2, 816240, Note_on_c, 0, 84, 0
2, 816240, Note_on_c, 0, 96, 0
2, 816240, Note_on_c, 0, 72, 0
2, 816240, Note_on_c, 0, 60, 0
2, 816480, Note_on_c, 0, 84, 100
2, 816480, Note_on_c, 0, 96, 100
2, 816720, Note_on_c, 0, 84, 0
2, 816720, Note_on_c, 0, 96, 0
2, 816960, Note_on_c, 0, 84, 100
2, 816960, Note_on_c, 0, 96, 100
2, 817200, Note_on_c, 0, 84, 0
2, 817200, Note_on_c, 0, 96, 0
2, 817440, Note_on_c, 0, 87, 100
2, 817440, Note_on_c, 0, 100, 100
2, 817440, Note_on_c, 0, 75, 100
2, 817440, Note_on_c, 0, 62, 100
2, 817680, Note_on_c, 0, 87, 0
2, 817680, Note_on_c, 0, 100, 0
2, 817680, Note_on_c, 0, 75, 0
2, 817680, Note_on_c, 0, 62, 0
2, 817920, Note_on_c, 0, 87, 100
2, 817920, Note_on_c, 0, 100, 100
2, 818160, Note_on_c, 0, 87, 0
2, 818160, Note_on_c, 0, 100, 0
2, 818400, Note_on_c, 0, 87, 100
2, 818400, Note_on_c, 0, 100, 100
2, 818640, Note_on_c, 0, 87, 0
2, 818640, Note_on_c, 0, 100, 0
2, 818880, Note_on_c, 0, 85, 100
2, 818880, Note_on_c, 0, 98, 100
2, 818880, Note_on_c, 0, 73, 100
2, 819120, Note_on_c, 0, 85, 0
2, 819120, Note_on_c, 0, 98, 0
2, 819120, Note_on_c, 0, 73, 0
2, 819840, Note_on_c, 0, 84, 100
2, 819840, Note_on_c, 0, 97, 100
2, 819840, Note_on_c, 0, 72, 100
2, 819840, Note_on_c, 0, 61, 100
2, 820080, Note_on_c, 0, 84, 0
2, 820080, Note_on_c, 0, 97, 0
2, 820080, Note_on_c, 0, 72, 0
2, 820080, Note_on_c, 0, 61, 0
2, 820800, Note_on_c, 0, 86, 100
2, 820800, Note_on_c, 0, 99, 100
2, 820800, Note_on_c, 0, 74, 100
2, 821040, Note_on_c, 0, 86, 0
2, 821040, Note_on_c, 0, 99, 0
2, 821040, Note_on_c, 0, 74, 0
2, 821760, Note_on_c, 0, 84, 100
2, 821760, Note_on_c, 0, 96, 100
2, 821760, Note_on_c, 0, 72, 100
2, 821760, Note_on_c, 0, 60, 100
2, 822000, Note_on_c, 0, 84, 0
2, 822000, Note_on_c, 0, 96, 0
2, 822000, Note_on_c, 0, 72, 0
2, 822000, Note_on_c, 0, 60, 0
2, 822240, Note_on_c, 0, 84, 100
2, 822240, Note_on_c, 0, 96, 100
2, 822480, Note_on_c, 0, 84, 0
2, 822480, Note_on_c, 0, 96, 0
2, 822720, Note_on_c, 0, 84, 100
2, 822720, Note_on_c, 0, 96, 100
2, 822960, Note_on_c, 0, 84, 0
2, 822960, Note_on_c, 0, 96, 0
2, 823200, Note_on_c, 0, 87, 100
2, 823200, Note_on_c, 0, 100, 100
2, 823200, Note_on_c, 0, 75, 100
2, 823200, Note_on_c, 0, 62, 100
2, 823440, Note_on_c, 0, 87, 0
2, 823440, Note_on_c, 0, 100, 0
2, 823440, Note_on_c, 0, 75, 0
2, 823440, Note_on_c, 0, 62, 0
2, 823680, Note_on_c, 0, 87, 100
2, 823680, Note_on_c, 0, 100, 100
2, 823920, Note_on_c, 0, 87, 0
2, 823920, Note_on_c, 0, 100, 0
2, 824160, Note_on_c, 0, 87, 100
2, 824160, Note_on_c, 0, 100, 100
2, 824400, Note_on_c, 0, 87, 0
2, 824400, Note_on_c, 0, 100, 0
2, 824640, Note_on_c, 0, 85, 100
2, 824640, Note_on_c, 0, 98, 100
2, 824640, Note_on_c, 0, 73, 100
2, 824640, Note_on_c, 0, 103, 100
2, 824640, Note_on_c, 0, 91, 100
2, 824640, Note_on_c, 0, 67, 100
2, 824640, Note_on_c, 0, 79, 100
2, 824880, Note_on_c, 0, 85, 0
2, 824880, Note_on_c, 0, 98, 0
2, 824880, Note_on_c, 0, 73, 0
2, 825600, Note_on_c, 0, 84, 100
2, 825600, Note_on_c, 0, 97, 100
2, 825600, Note_on_c, 0, 72, 100
2, 825600, Note_on_c, 0, 61, 100
2, 825840, Note_on_c, 0, 84, 0
2, 825840, Note_on_c, 0, 97, 0
2, 825840, Note_on_c, 0, 72, 0
2, 825840, Note_on_c, 0, 61, 0
2, 826560, Note_on_c, 0, 86, 100
2, 826560, Note_on_c, 0, 99, 100
2, 826560, Note_on_c, 0, 74, 100
2, 826800, Note_on_c, 0, 86, 0
2, 826800, Note_on_c, 0, 99, 0
2, 826800, Note_on_c, 0, 74, 0
2, 827520, Note_on_c, 0, 106, 0
2, 827520, Note_on_c, 0, 94, 0
2, 827520, Note_on_c, 0, 70, 0
2, 827520, Note_on_c, 0, 82, 0
2, 827520, Note_on_c, 0, 103, 0
2, 827520, Note_on_c, 0, 91, 0
2, 827520, Note_on_c, 0, 67, 0
2, 827520, Note_on_c, 0, 79, 0
2, 827520, Note_on_c, 0, 85, 100
2, 827520, Note_on_c, 0, 97, 100
2, 827520, Note_on_c, 0, 73, 100
2, 827520, Note_on_c, 0, 61, 100
2, 827760, Note_on_c, 0, 85, 0
2, 827760, Note_on_c, 0, 97, 0
2, 827760, Note_on_c, 0, 73, 0
2, 827760, Note_on_c, 0, 61, 0
2, 828000, Note_on_c, 0, 85, 100
2, 828000, Note_on_c, 0, 97, 100
2, 828240, Note_on_c, 0, 85, 0
2, 828240, Note_on_c, 0, 97, 0
2, 828480, Note_on_c, 0, 85, 100
2, 828480, Note_on_c, 0, 97, 100
2, 828720, Note_on_c, 0, 85, 0
2, 828720, Note_on_c, 0, 97, 0
2, 828960, Note_on_c, 0, 87, 100
2, 828960, Note_on_c, 0, 100, 100
2, 828960, Note_on_c, 0, 75, 100
2, 828960, Note_on_c, 0, 62, 100
2, 829200, Note_on_c, 0, 87, 0
2, 829200, Note_on_c, 0, 100, 0
2, 829200, Note_on_c, 0, 75, 0
2, 829200, Note_on_c, 0, 62, 0
2, 829440, Note_on_c, 0, 87, 100
2, 829440, Note_on_c, 0, 100, 100
2, 829680, Note_on_c, 0, 87, 0
2, 829680, Note_on_c, 0, 100, 0
2, 829920, Note_on_c, 0, 87, 100
2, 829920, Note_on_c, 0, 100, 100
2, 830160, Note_on_c, 0, 87, 0
2, 830160, Note_on_c, 0, 100, 0
2, 830400, Note_on_c, 0, 85, 100
2, 830400, Note_on_c, 0, 98, 100
2, 830400, Note_on_c, 0, 73, 100
2, 830640, Note_on_c, 0, 85, 0
2, 830640, Note_on_c, 0, 98, 0
2, 830640, Note_on_c, 0, 73, 0
2, 831360, Note_on_c, 0, 84, 100
2, 831360, Note_on_c, 0, 97, 100
2, 831360, Note_on_c, 0, 72, 100
2, 831360, Note_on_c, 0, 61, 100
2, 831600, Note_on_c, 0, 84, 0
2, 831600, Note_on_c, 0, 97, 0
2, 831600, Note_on_c, 0, 72, 0
2, 831600, Note_on_c, 0, 61, 0
2, 832320, Note_on_c, 0, 86, 100
2, 832320, Note_on_c, 0, 99, 100
2, 832320, Note_on_c, 0, 74, 100
2, 832560, Note_on_c, 0, 86, 0
2, 832560, Note_on_c, 0, 99, 0
2, 832560, Note_on_c, 0, 74, 0
2, 833280, Note_on_c, 0, 105, 0
2, 833280, Note_on_c, 0, 93, 0
2, 833280, Note_on_c, 0, 69, 0
2, 833280, Note_on_c, 0, 81, 0
2, 833280, Note_on_c, 0, 74, 100
2, 833280, Note_on_c, 0, 86, 100
2, 833280, Note_on_c, 0, 98, 100
2, 833280, Note_on_c, 0, 62, 100
2, 833280, Note_on_c, 0, 106, 100
2, 833280, Note_on_c, 0, 94, 100
2, 833280, Note_on_c, 0, 70, 100
2, 833280, Note_on_c, 0, 82, 100
2, 833520, Note_on_c, 0, 74, 0
2, 833520, Note_on_c, 0, 86, 0
2, 833520, Note_on_c, 0, 98, 0
2, 833520, Note_on_c, 0, 62, 0
2, 833760, Note_on_c, 0, 86, 100
2, 833760, Note_on_c, 0, 98, 100
2, 834000, Note_on_c, 0, 86, 0
2, 834000, Note_on_c, 0, 98, 0
2, 834240, Note_on_c, 0, 86, 100
2, 834240, Note_on_c, 0, 98, 100
2, 834480, Note_on_c, 0, 86, 0
2, 834480, Note_on_c, 0, 98, 0
2, 834720, Note_on_c, 0, 75, 100
2, 834720, Note_on_c, 0, 87, 100
2, 834720, Note_on_c, 0, 100, 100
2, 834720, Note_on_c, 0, 62, 100
2, 834960, Note_on_c, 0, 75, 0
2, 834960, Note_on_c, 0, 87, 0
2, 834960, Note_on_c, 0, 100, 0
2, 834960, Note_on_c, 0, 62, 0
2, 835200, Note_on_c, 0, 87, 100
2, 835200, Note_on_c, 0, 100, 100
2, 835440, Note_on_c, 0, 87, 0
2, 835440, Note_on_c, 0, 100, 0
2, 835680, Note_on_c, 0, 87, 100
2, 835680, Note_on_c, 0, 100, 100
2, 835920, Note_on_c, 0, 87, 0
2, 835920, Note_on_c, 0, 100, 0
2, 836160, Note_on_c, 0, 73, 100
2, 836160, Note_on_c, 0, 85, 100
2, 836160, Note_on_c, 0, 98, 100
2, 836400, Note_on_c, 0, 73, 0
2, 836400, Note_on_c, 0, 85, 0
2, 836400, Note_on_c, 0, 98, 0
2, 837120, Note_on_c, 0, 72, 100
2, 837120, Note_on_c, 0, 84, 100
2, 837120, Note_on_c, 0, 97, 100
2, 837120, Note_on_c, 0, 61, 100
2, 837360, Note_on_c, 0, 72, 0
2, 837360, Note_on_c, 0, 84, 0
2, 837360, Note_on_c, 0, 97, 0
2, 837360, Note_on_c, 0, 61, 0
2, 838080, Note_on_c, 0, 74, 100
2, 838080, Note_on_c, 0, 86, 100
2, 838080, Note_on_c, 0, 99, 100
2, 838320, Note_on_c, 0, 74, 0
2, 838320, Note_on_c, 0, 86, 0
2, 838320, Note_on_c, 0, 99, 0
2, 839040, Note_on_c, 0, 106, 0
2, 839040, Note_on_c, 0, 94, 0
2, 839040, Note_on_c, 0, 70, 0
2, 839040, Note_on_c, 0, 82, 0
2, 839040, Note_on_c, 0, 73, 100
2, 839040, Note_on_c, 0, 85, 100
2, 839040, Note_on_c, 0, 97, 100
2, 839040, Note_on_c, 0, 61, 100
2, 839040, Note_on_c, 0, 105, 100
2, 839040, Note_on_c, 0, 93, 100
2, 839040, Note_on_c, 0, 69, 100
2, 839040, Note_on_c, 0, 81, 100
2, 839280, Note_on_c, 0, 73, 0
2, 839280, Note_on_c, 0, 85, 0
2, 839280, Note_on_c, 0, 97, 0
2, 839280, Note_on_c, 0, 61, 0
2, 839520, Note_on_c, 0, 85, 100
2, 839520, Note_on_c, 0, 97, 100
2, 839760, Note_on_c, 0, 85, 0
2, 839760, Note_on_c, 0, 97, 0
2, 840000, Note_on_c, 0, 85, 100
2, 840000, Note_on_c, 0, 97, 100
2, 840240, Note_on_c, 0, 85, 0
2, 840240, Note_on_c, 0, 97, 0
2, 840480, Note_on_c, 0, 75, 100
2, 840480, Note_on_c, 0, 87, 100
2, 840480, Note_on_c, 0, 100, 100
2, 840480, Note_on_c, 0, 62, 100
2, 840720, Note_on_c, 0, 75, 0
2, 840720, Note_on_c, 0, 87, 0
2, 840720, Note_on_c, 0, 100, 0
2, 840720, Note_on_c, 0, 62, 0
2, 840960, Note_on_c, 0, 87, 100
2, 840960, Note_on_c, 0, 100, 100
2, 841200, Note_on_c, 0, 87, 0
2, 841200, Note_on_c, 0, 100, 0
2, 841440, Note_on_c, 0, 87, 100
2, 841440, Note_on_c, 0, 100, 100
2, 841680, Note_on_c, 0, 87, 0
2, 841680, Note_on_c, 0, 100, 0
2, 841920, Note_on_c, 0, 73, 100
2, 841920, Note_on_c, 0, 85, 100
2, 841920, Note_on_c, 0, 98, 100
2, 842160, Note_on_c, 0, 73, 0
2, 842160, Note_on_c, 0, 85, 0
2, 842160, Note_on_c, 0, 98, 0
2, 842880, Note_on_c, 0, 72, 100
2, 842880, Note_on_c, 0, 84, 100
2, 842880, Note_on_c, 0, 97, 100
2, 842880, Note_on_c, 0, 61, 100
2, 843120, Note_on_c, 0, 72, 0
2, 843120, Note_on_c, 0, 84, 0
2, 843120, Note_on_c, 0, 97, 0
2, 843120, Note_on_c, 0, 61, 0
2, 843840, Note_on_c, 0, 74, 100
2, 843840, Note_on_c, 0, 86, 100
2, 843840, Note_on_c, 0, 99, 100
2, 844080, Note_on_c, 0, 74, 0
2, 844080, Note_on_c, 0, 86, 0
2, 844080, Note_on_c, 0, 99, 0
2, 844800, Note_on_c, 0, 105, 0
2, 844800, Note_on_c, 0, 93, 0
2, 844800, Note_on_c, 0, 69, 0
2, 844800, Note_on_c, 0, 81, 0
2, 844800, Note_on_c, 0, 73, 100
2, 844800, Note_on_c, 0, 85, 100
2, 844800, Note_on_c, 0, 97, 100
2, 844800, Note_on_c, 0, 61, 100
2, 844800, Note_on_c, 0, 106, 100
2, 844800, Note_on_c, 0, 94, 100
2, 844800, Note_on_c, 0, 70, 100
2, 844800, Note_on_c, 0, 82, 100
2, 845040, Note_on_c, 0, 73, 0
2, 845040, Note_on_c, 0, 85, 0
2, 845040, Note_on_c, 0, 97, 0
2, 845040, Note_on_c, 0, 61, 0
2, 845280, Note_on_c, 0, 85, 100
2, 845280, Note_on_c, 0, 97, 100
2, 845520, Note_on_c, 0, 85, 0
2, 845520, Note_on_c, 0, 97, 0
2, 845760, Note_on_c, 0, 85, 100
2, 845760, Note_on_c, 0, 97, 100
2, 846000, Note_on_c, 0, 85, 0
2, 846000, Note_on_c, 0, 97, 0
2, 846240, Note_on_c, 0, 75, 100
2, 846240, Note_on_c, 0, 87, 100
2, 846240, Note_on_c, 0, 100, 100
2, 846240, Note_on_c, 0, 62, 100
2, 846480, Note_on_c, 0, 75, 0
2, 846480, Note_on_c, 0, 87, 0
2, 846480, Note_on_c, 0, 100, 0
2, 846480, Note_on_c, 0, 62, 0
2, 846720, Note_on_c, 0, 87, 100
2, 846720, Note_on_c, 0, 100, 100
2, 846960, Note_on_c, 0, 87, 0
2, 846960, Note_on_c, 0, 100, 0
2, 847200, Note_on_c, 0, 87, 100
2, 847200, Note_on_c, 0, 100, 100
2, 847440, Note_on_c, 0, 87, 0
2, 847440, Note_on_c, 0, 100, 0
2, 847680, Note_on_c, 0, 73, 100
2, 847680, Note_on_c, 0, 85, 100
2, 847680, Note_on_c, 0, 98, 100
2, 847920, Note_on_c, 0, 73, 0
2, 847920, Note_on_c, 0, 85, 0
2, 847920, Note_on_c, 0, 98, 0
2, 848640, Note_on_c, 0, 72, 100
2, 848640, Note_on_c, 0, 84, 100
2, 848640, Note_on_c, 0, 97, 100
2, 848640, Note_on_c, 0, 61, 100
2, 848880, Note_on_c, 0, 72, 0
2, 848880, Note_on_c, 0, 84, 0
2, 848880, Note_on_c, 0, 97, 0
2, 848880, Note_on_c, 0, 61, 0
2, 849600, Note_on_c, 0, 74, 100
2, 849600, Note_on_c, 0, 86, 100
2, 849600, Note_on_c, 0, 99, 100
2, 849840, Note_on_c, 0, 74, 0
2, 849840, Note_on_c, 0, 86, 0
2, 849840, Note_on_c, 0, 99, 0
2, 850560, Note_on_c, 0, 74, 100
2, 850560, Note_on_c, 0, 87, 100
2, 850560, Note_on_c, 0, 86, 100
2, 850560, Note_on_c, 0, 99, 100
2, 850560, Note_on_c, 0, 98, 100
2, 850560, Note_on_c, 0, 61, 100
2, 850560, Note_on_c, 0, 105, 100
2, 850560, Note_on_c, 0, 93, 100
2, 850560, Note_on_c, 0, 69, 100
2, 850560, Note_on_c, 0, 81, 100
2, 850800, Note_on_c, 0, 74, 0
2, 850800, Note_on_c, 0, 87, 0
2, 850800, Note_on_c, 0, 86, 0
2, 850800, Note_on_c, 0, 99, 0
2, 850800, Note_on_c, 0, 98, 0
2, 850800, Note_on_c, 0, 61, 0
2, 851520, Note_on_c, 0, 74, 100
2, 851520, Note_on_c, 0, 87, 100
2, 851520, Note_on_c, 0, 86, 100
2, 851520, Note_on_c, 0, 99, 100
2, 851520, Note_on_c, 0, 98, 100
2, 851760, Note_on_c, 0, 74, 0
2, 851760, Note_on_c, 0, 87, 0
2, 851760, Note_on_c, 0, 86, 0
2, 851760, Note_on_c, 0, 99, 0
2, 851760, Note_on_c, 0, 98, 0
2, 852000, Note_on_c, 0, 87, 100
2, 852000, Note_on_c, 0, 86, 100
2, 852000, Note_on_c, 0, 99, 100
2, 852000, Note_on_c, 0, 98, 100
2, 852240, Note_on_c, 0, 87, 0
2, 852240, Note_on_c, 0, 86, 0
2, 852240, Note_on_c, 0, 99, 0
2, 852240, Note_on_c, 0, 98, 0
2, 852480, Note_on_c, 0, 75, 100
2, 852480, Note_on_c, 0, 86, 100
2, 852480, Note_on_c, 0, 88, 100
2, 852480, Note_on_c, 0, 98, 100
2, 852480, Note_on_c, 0, 100, 100
2, 852720, Note_on_c, 0, 75, 0
2, 852720, Note_on_c, 0, 86, 0
2, 852720, Note_on_c, 0, 88, 0
2, 852720, Note_on_c, 0, 98, 0
2, 852720, Note_on_c, 0, 100, 0
2, 853440, Note_on_c, 0, 74, 100
2, 853440, Note_on_c, 0, 86, 100
2, 853440, Note_on_c, 0, 87, 100
2, 853440, Note_on_c, 0, 98, 100
2, 853440, Note_on_c, 0, 99, 100
2, 853440, Note_on_c, 0, 61, 100
2, 853680, Note_on_c, 0, 74, 0
2, 853680, Note_on_c, 0, 86, 0
2, 853680, Note_on_c, 0, 87, 0
2, 853680, Note_on_c, 0, 98, 0
2, 853680, Note_on_c, 0, 99, 0
2, 853680, Note_on_c, 0, 61, 0
2, 854400, Note_on_c, 0, 74, 100
2, 854400, Note_on_c, 0, 87, 100
2, 854400, Note_on_c, 0, 86, 100
2, 854400, Note_on_c, 0, 99, 100
2, 854400, Note_on_c, 0, 98, 100
2, 854640, Note_on_c, 0, 74, 0
2, 854640, Note_on_c, 0, 87, 0
2, 854640, Note_on_c, 0, 86, 0
2, 854640, Note_on_c, 0, 99, 0
2, 854640, Note_on_c, 0, 98, 0
2, 854880, Note_on_c, 0, 87, 100
2, 854880, Note_on_c, 0, 86, 100
2, 854880, Note_on_c, 0, 99, 100
2, 854880, Note_on_c, 0, 98, 100
2, 855120, Note_on_c, 0, 87, 0
2, 855120, Note_on_c, 0, 86, 0
2, 855120, Note_on_c, 0, 99, 0
2, 855120, Note_on_c, 0, 98, 0
2, 855360, Note_on_c, 0, 75, 100
2, 855360, Note_on_c, 0, 88, 100
2, 855360, Note_on_c, 0, 86, 100
2, 855360, Note_on_c, 0, 100, 100
2, 855360, Note_on_c, 0, 98, 100
2, 855600, Note_on_c, 0, 75, 0
2, 855600, Note_on_c, 0, 88, 0
2, 855600, Note_on_c, 0, 86, 0
2, 855600, Note_on_c, 0, 100, 0
2, 855600, Note_on_c, 0, 98, 0
2, 855840, Note_on_c, 0, 87, 100
2, 855840, Note_on_c, 0, 86, 100
2, 855840, Note_on_c, 0, 99, 100
2, 855840, Note_on_c, 0, 98, 100
2, 856080, Note_on_c, 0, 87, 0
2, 856080, Note_on_c, 0, 86, 0
2, 856080, Note_on_c, 0, 99, 0
2, 856080, Note_on_c, 0, 98, 0
2, 856320, Note_on_c, 0, 74, 100
2, 856320, Note_on_c, 0, 87, 100
2, 856320, Note_on_c, 0, 86, 100
2, 856320, Note_on_c, 0, 99, 100
2, 856320, Note_on_c, 0, 98, 100
2, 856320, Note_on_c, 0, 61, 100
2, 856560, Note_on_c, 0, 74, 0
2, 856560, Note_on_c, 0, 87, 0
2, 856560, Note_on_c, 0, 86, 0
2, 856560, Note_on_c, 0, 99, 0
2, 856560, Note_on_c, 0, 98, 0
2, 856560, Note_on_c, 0, 61, 0
2, 857280, Note_on_c, 0, 75, 100
2, 857280, Note_on_c, 0, 88, 100
2, 857280, Note_on_c, 0, 86, 100
2, 857280, Note_on_c, 0, 100, 100
2, 857280, Note_on_c, 0, 98, 100
2, 857280, Note_on_c, 0, 62, 100
2, 857520, Note_on_c, 0, 75, 0
2, 857520, Note_on_c, 0, 88, 0
2, 857520, Note_on_c, 0, 86, 0
2, 857520, Note_on_c, 0, 100, 0
2, 857520, Note_on_c, 0, 98, 0
2, 857520, Note_on_c, 0, 62, 0
2, 858240, Note_on_c, 0, 75, 100
2, 858240, Note_on_c, 0, 88, 100
2, 858240, Note_on_c, 0, 86, 100
2, 858240, Note_on_c, 0, 100, 100
2, 858240, Note_on_c, 0, 98, 100
2, 858480, Note_on_c, 0, 75, 0
2, 858480, Note_on_c, 0, 88, 0
2, 858480, Note_on_c, 0, 86, 0
2, 858480, Note_on_c, 0, 100, 0
2, 858480, Note_on_c, 0, 98, 0
2, 858720, Note_on_c, 0, 88, 100
2, 858720, Note_on_c, 0, 86, 100
2, 858720, Note_on_c, 0, 100, 100
2, 858720, Note_on_c, 0, 98, 100
2, 858960, Note_on_c, 0, 88, 0
2, 858960, Note_on_c, 0, 86, 0
2, 858960, Note_on_c, 0, 100, 0
2, 858960, Note_on_c, 0, 98, 0
2, 859200, Note_on_c, 0, 75, 100
2, 859200, Note_on_c, 0, 88, 100
2, 859200, Note_on_c, 0, 86, 100
2, 859200, Note_on_c, 0, 100, 100
2, 859200, Note_on_c, 0, 98, 100
2, 859200, Note_on_c, 0, 62, 100
2, 859440, Note_on_c, 0, 75, 0
2, 859440, Note_on_c, 0, 88, 0
2, 859440, Note_on_c, 0, 86, 0
2, 859440, Note_on_c, 0, 100, 0
2, 859440, Note_on_c, 0, 98, 0
2, 859440, Note_on_c, 0, 62, 0
2, 860160, Note_on_c, 0, 75, 100
2, 860160, Note_on_c, 0, 88, 100
2, 860160, Note_on_c, 0, 86, 100
2, 860160, Note_on_c, 0, 100, 100
2, 860160, Note_on_c, 0, 98, 100
2, 860400, Note_on_c, 0, 75, 0
2, 860400, Note_on_c, 0, 88, 0
2, 860400, Note_on_c, 0, 86, 0
2, 860400, Note_on_c, 0, 100, 0
2, 860400, Note_on_c, 0, 98, 0
2, 860640, Note_on_c, 0, 88, 100
2, 860640, Note_on_c, 0, 86, 100
2, 860640, Note_on_c, 0, 100, 100
2, 860640, Note_on_c, 0, 98, 100
2, 860880, Note_on_c, 0, 88, 0
2, 860880, Note_on_c, 0, 86, 0
2, 860880, Note_on_c, 0, 100, 0
2, 860880, Note_on_c, 0, 98, 0
2, 861120, Note_on_c, 0, 75, 100
2, 861120, Note_on_c, 0, 88, 100
2, 861120, Note_on_c, 0, 86, 100
2, 861120, Note_on_c, 0, 100, 100
2, 861120, Note_on_c, 0, 98, 100
2, 861360, Note_on_c, 0, 75, 0
2, 861360, Note_on_c, 0, 88, 0
2, 861360, Note_on_c, 0, 86, 0
2, 861360, Note_on_c, 0, 100, 0
2, 861360, Note_on_c, 0, 98, 0
2, 862050, Text_t, "[verse]"
2, 862080, Note_on_c, 0, 74, 100
2, 862080, Note_on_c, 0, 87, 100
2, 862080, Note_on_c, 0, 86, 100
2, 862080, Note_on_c, 0, 99, 100
2, 862080, Note_on_c, 0, 98, 100
2, 862080, Note_on_c, 0, 61, 100
2, 862320, Note_on_c, 0, 74, 0
2, 862320, Note_on_c, 0, 87, 0
2, 862320, Note_on_c, 0, 86, 0
2, 862320, Note_on_c, 0, 99, 0
2, 862320, Note_on_c, 0, 98, 0
2, 862320, Note_on_c, 0, 61, 0
2, 863040, Note_on_c, 0, 74, 100
2, 863040, Note_on_c, 0, 87, 100
2, 863040, Note_on_c, 0, 86, 100
2, 863040, Note_on_c, 0, 99, 100
2, 863040, Note_on_c, 0, 98, 100
2, 863280, Note_on_c, 0, 74, 0
2, 863280, Note_on_c, 0, 87, 0
2, 863280, Note_on_c, 0, 86, 0
2, 863280, Note_on_c, 0, 99, 0
2, 863280, Note_on_c, 0, 98, 0
2, 863520, Note_on_c, 0, 87, 100
2, 863520, Note_on_c, 0, 86, 100
2, 863520, Note_on_c, 0, 99, 100
2, 863520, Note_on_c, 0, 98, 100
2, 863760, Note_on_c, 0, 87, 0
2, 863760, Note_on_c, 0, 86, 0
2, 863760, Note_on_c, 0, 99, 0
2, 863760, Note_on_c, 0, 98, 0
2, 864000, Note_on_c, 0, 75, 100
2, 864000, Note_on_c, 0, 86, 100
2, 864000, Note_on_c, 0, 88, 100
2, 864000, Note_on_c, 0, 98, 100
2, 864000, Note_on_c, 0, 100, 100
2, 864240, Note_on_c, 0, 75, 0
2, 864240, Note_on_c, 0, 86, 0
2, 864240, Note_on_c, 0, 88, 0
2, 864240, Note_on_c, 0, 98, 0
2, 864240, Note_on_c, 0, 100, 0
2, 864960, Note_on_c, 0, 74, 100
2, 864960, Note_on_c, 0, 86, 100
2, 864960, Note_on_c, 0, 87, 100
2, 864960, Note_on_c, 0, 98, 100
2, 864960, Note_on_c, 0, 99, 100
2, 864960, Note_on_c, 0, 61, 100
2, 865200, Note_on_c, 0, 74, 0
2, 865200, Note_on_c, 0, 86, 0
2, 865200, Note_on_c, 0, 87, 0
2, 865200, Note_on_c, 0, 98, 0
2, 865200, Note_on_c, 0, 99, 0
2, 865200, Note_on_c, 0, 61, 0
2, 865920, Note_on_c, 0, 87, 100
2, 865920, Note_on_c, 0, 86, 100
2, 865920, Note_on_c, 0, 99, 100
2, 865920, Note_on_c, 0, 98, 100
2, 866160, Note_on_c, 0, 87, 0
2, 866160, Note_on_c, 0, 86, 0
2, 866160, Note_on_c, 0, 99, 0
2, 866160, Note_on_c, 0, 98, 0
2, 866400, Note_on_c, 0, 87, 100
2, 866400, Note_on_c, 0, 86, 100
2, 866400, Note_on_c, 0, 99, 100
2, 866400, Note_on_c, 0, 98, 100
2, 866640, Note_on_c, 0, 87, 0
2, 866640, Note_on_c, 0, 86, 0
2, 866640, Note_on_c, 0, 99, 0
2, 866640, Note_on_c, 0, 98, 0
2, 866880, Note_on_c, 0, 74, 100
2, 866880, Note_on_c, 0, 87, 100
2, 866880, Note_on_c, 0, 86, 100
2, 866880, Note_on_c, 0, 99, 100
2, 866880, Note_on_c, 0, 98, 100
2, 867120, Note_on_c, 0, 74, 0
2, 867120, Note_on_c, 0, 87, 0
2, 867120, Note_on_c, 0, 86, 0
2, 867120, Note_on_c, 0, 99, 0
2, 867120, Note_on_c, 0, 98, 0
2, 867360, Note_on_c, 0, 87, 100
2, 867360, Note_on_c, 0, 86, 100
2, 867360, Note_on_c, 0, 99, 100
2, 867360, Note_on_c, 0, 98, 100
2, 867600, Note_on_c, 0, 87, 0
2, 867600, Note_on_c, 0, 86, 0
2, 867600, Note_on_c, 0, 99, 0
2, 867600, Note_on_c, 0, 98, 0
2, 867840, Note_on_c, 0, 74, 100
2, 867840, Note_on_c, 0, 87, 100
2, 867840, Note_on_c, 0, 86, 100
2, 867840, Note_on_c, 0, 99, 100
2, 867840, Note_on_c, 0, 98, 100
2, 867840, Note_on_c, 0, 61, 100
2, 868080, Note_on_c, 0, 74, 0
2, 868080, Note_on_c, 0, 87, 0
2, 868080, Note_on_c, 0, 86, 0
2, 868080, Note_on_c, 0, 99, 0
2, 868080, Note_on_c, 0, 98, 0
2, 868080, Note_on_c, 0, 61, 0
2, 868800, Note_on_c, 0, 75, 100
2, 868800, Note_on_c, 0, 88, 100
2, 868800, Note_on_c, 0, 86, 100
2, 868800, Note_on_c, 0, 100, 100
2, 868800, Note_on_c, 0, 98, 100
2, 868800, Note_on_c, 0, 62, 100
2, 869040, Note_on_c, 0, 75, 0
2, 869040, Note_on_c, 0, 88, 0
2, 869040, Note_on_c, 0, 86, 0
2, 869040, Note_on_c, 0, 100, 0
2, 869040, Note_on_c, 0, 98, 0
2, 869040, Note_on_c, 0, 62, 0
2, 869760, Note_on_c, 0, 75, 100
2, 869760, Note_on_c, 0, 88, 100
2, 869760, Note_on_c, 0, 86, 100
2, 869760, Note_on_c, 0, 100, 100
2, 869760, Note_on_c, 0, 98, 100
2, 870000, Note_on_c, 0, 75, 0
2, 870000, Note_on_c, 0, 88, 0
2, 870000, Note_on_c, 0, 86, 0
2, 870000, Note_on_c, 0, 100, 0
2, 870000, Note_on_c, 0, 98, 0
2, 870240, Note_on_c, 0, 88, 100
2, 870240, Note_on_c, 0, 86, 100
2, 870240, Note_on_c, 0, 100, 100
2, 870240, Note_on_c, 0, 98, 100
2, 870480, Note_on_c, 0, 88, 0
2, 870480, Note_on_c, 0, 86, 0
2, 870480, Note_on_c, 0, 100, 0
2, 870480, Note_on_c, 0, 98, 0
2, 870720, Note_on_c, 0, 75, 100
2, 870720, Note_on_c, 0, 88, 100
2, 870720, Note_on_c, 0, 86, 100
2, 870720, Note_on_c, 0, 100, 100
2, 870720, Note_on_c, 0, 98, 100
2, 870720, Note_on_c, 0, 62, 100
2, 870960, Note_on_c, 0, 75, 0
2, 870960, Note_on_c, 0, 88, 0
2, 870960, Note_on_c, 0, 86, 0
2, 870960, Note_on_c, 0, 100, 0
2, 870960, Note_on_c, 0, 98, 0
2, 870960, Note_on_c, 0, 62, 0
2, 871680, Note_on_c, 0, 75, 100
2, 871680, Note_on_c, 0, 88, 100
2, 871680, Note_on_c, 0, 86, 100
2, 871680, Note_on_c, 0, 100, 100
2, 871680, Note_on_c, 0, 98, 100
2, 871920, Note_on_c, 0, 75, 0
2, 871920, Note_on_c, 0, 88, 0
2, 871920, Note_on_c, 0, 86, 0
2, 871920, Note_on_c, 0, 100, 0
2, 871920, Note_on_c, 0, 98, 0
2, 872640, Note_on_c, 0, 106, 0
2, 872640, Note_on_c, 0, 94, 0
2, 872640, Note_on_c, 0, 70, 0
2, 872640, Note_on_c, 0, 82, 0
2, 872640, Note_on_c, 0, 74, 100
2, 872640, Note_on_c, 0, 87, 100
2, 872640, Note_on_c, 0, 85, 100
2, 872640, Note_on_c, 0, 99, 100
2, 872640, Note_on_c, 0, 97, 100
2, 872880, Note_on_c, 0, 74, 0
2, 872880, Note_on_c, 0, 87, 0
2, 872880, Note_on_c, 0, 85, 0
2, 872880, Note_on_c, 0, 99, 0
2, 872880, Note_on_c, 0, 97, 0
2, 873600, Note_on_c, 0, 74, 100
2, 873600, Note_on_c, 0, 87, 100
2, 873600, Note_on_c, 0, 85, 100
2, 873600, Note_on_c, 0, 99, 100
2, 873600, Note_on_c, 0, 97, 100
2, 873600, Note_on_c, 0, 61, 100
2, 873840, Note_on_c, 0, 74, 0
2, 873840, Note_on_c, 0, 87, 0
2, 873840, Note_on_c, 0, 85, 0
2, 873840, Note_on_c, 0, 99, 0
2, 873840, Note_on_c, 0, 97, 0
2, 873840, Note_on_c, 0, 61, 0
2, 874560, Note_on_c, 0, 74, 100
2, 874560, Note_on_c, 0, 87, 100
2, 874560, Note_on_c, 0, 85, 100
2, 874560, Note_on_c, 0, 99, 100
2, 874560, Note_on_c, 0, 97, 100
2, 874800, Note_on_c, 0, 74, 0
2, 874800, Note_on_c, 0, 87, 0
2, 874800, Note_on_c, 0, 85, 0
2, 874800, Note_on_c, 0, 99, 0
2, 874800, Note_on_c, 0, 97, 0
2, 875040, Note_on_c, 0, 87, 100
2, 875040, Note_on_c, 0, 85, 100
2, 875040, Note_on_c, 0, 99, 100
2, 875040, Note_on_c, 0, 97, 100
2, 875280, Note_on_c, 0, 87, 0
2, 875280, Note_on_c, 0, 85, 0
2, 875280, Note_on_c, 0, 99, 0
2, 875280, Note_on_c, 0, 97, 0
2, 875520, Note_on_c, 0, 74, 100
2, 875520, Note_on_c, 0, 87, 100
2, 875520, Note_on_c, 0, 85, 100
2, 875520, Note_on_c, 0, 99, 100
2, 875520, Note_on_c, 0, 97, 100
2, 875760, Note_on_c, 0, 74, 0
2, 875760, Note_on_c, 0, 87, 0
2, 875760, Note_on_c, 0, 85, 0
2, 875760, Note_on_c, 0, 99, 0
2, 875760, Note_on_c, 0, 97, 0
2, 876480, Note_on_c, 0, 74, 100
2, 876480, Note_on_c, 0, 87, 100
2, 876480, Note_on_c, 0, 85, 100
2, 876480, Note_on_c, 0, 99, 100
2, 876480, Note_on_c, 0, 97, 100
2, 876480, Note_on_c, 0, 61, 100
2, 876720, Note_on_c, 0, 74, 0
2, 876720, Note_on_c, 0, 87, 0
2, 876720, Note_on_c, 0, 85, 0
2, 876720, Note_on_c, 0, 99, 0
2, 876720, Note_on_c, 0, 97, 0
2, 876720, Note_on_c, 0, 61, 0
2, 877440, Note_on_c, 0, 74, 100
2, 877440, Note_on_c, 0, 87, 100
2, 877440, Note_on_c, 0, 85, 100
2, 877440, Note_on_c, 0, 99, 100
2, 877440, Note_on_c, 0, 97, 100
2, 877680, Note_on_c, 0, 74, 0
2, 877680, Note_on_c, 0, 87, 0
2, 877680, Note_on_c, 0, 85, 0
2, 877680, Note_on_c, 0, 99, 0
2, 877680, Note_on_c, 0, 97, 0
2, 877920, Note_on_c, 0, 87, 100
2, 877920, Note_on_c, 0, 85, 100
2, 877920, Note_on_c, 0, 99, 100
2, 877920, Note_on_c, 0, 97, 100
2, 878160, Note_on_c, 0, 87, 0
2, 878160, Note_on_c, 0, 85, 0
2, 878160, Note_on_c, 0, 99, 0
2, 878160, Note_on_c, 0, 97, 0
2, 878400, Note_on_c, 0, 74, 100
2, 878400, Note_on_c, 0, 87, 100
2, 878400, Note_on_c, 0, 85, 100
2, 878400, Note_on_c, 0, 99, 100
2, 878400, Note_on_c, 0, 97, 100
2, 878640, Note_on_c, 0, 74, 0
2, 878640, Note_on_c, 0, 87, 0
2, 878640, Note_on_c, 0, 85, 0
2, 878640, Note_on_c, 0, 99, 0
2, 878640, Note_on_c, 0, 97, 0
2, 879360, Text_t, "[verse]"
2, 879360, Note_on_c, 0, 105, 0
2, 879360, Note_on_c, 0, 93, 0
2, 879360, Note_on_c, 0, 69, 0
2, 879360, Note_on_c, 0, 81, 0
2, 879360, Note_on_c, 0, 74, 100
2, 879360, Note_on_c, 0, 87, 100
2, 879360, Note_on_c, 0, 86, 100
2, 879360, Note_on_c, 0, 99, 100
2, 879360, Note_on_c, 0, 98, 100
2, 879360, Note_on_c, 0, 61, 100
2, 879360, Note_on_c, 0, 106, 100
2, 879360, Note_on_c, 0, 94, 100
2, 879360, Note_on_c, 0, 70, 100
2, 879360, Note_on_c, 0, 82, 100
2, 879600, Note_on_c, 0, 74, 0
2, 879600, Note_on_c, 0, 87, 0
2, 879600, Note_on_c, 0, 86, 0
2, 879600, Note_on_c, 0, 99, 0
2, 879600, Note_on_c, 0, 98, 0
2, 879600, Note_on_c, 0, 61, 0
2, 880320, Note_on_c, 0, 74, 100
2, 880320, Note_on_c, 0, 87, 100
2, 880320, Note_on_c, 0, 86, 100
2, 880320, Note_on_c, 0, 99, 100
2, 880320, Note_on_c, 0, 98, 100
2, 880560, Note_on_c, 0, 74, 0
2, 880560, Note_on_c, 0, 87, 0
2, 880560, Note_on_c, 0, 86, 0
2, 880560, Note_on_c, 0, 99, 0
2, 880560, Note_on_c, 0, 98, 0
2, 880800, Note_on_c, 0, 87, 100
2, 880800, Note_on_c, 0, 86, 100
2, 880800, Note_on_c, 0, 99, 100
2, 880800, Note_on_c, 0, 98, 100
2, 881040, Note_on_c, 0, 87, 0
2, 881040, Note_on_c, 0, 86, 0
2, 881040, Note_on_c, 0, 99, 0
2, 881040, Note_on_c, 0, 98, 0
2, 881280, Note_on_c, 0, 74, 100
2, 881280, Note_on_c, 0, 87, 100
2, 881280, Note_on_c, 0, 86, 100
2, 881280, Note_on_c, 0, 99, 100
2, 881280, Note_on_c, 0, 98, 100
2, 881520, Note_on_c, 0, 74, 0
2, 881520, Note_on_c, 0, 87, 0
2, 881520, Note_on_c, 0, 86, 0
2, 881520, Note_on_c, 0, 99, 0
2, 881520, Note_on_c, 0, 98, 0
2, 882240, Note_on_c, 0, 74, 100
2, 882240, Note_on_c, 0, 87, 100
2, 882240, Note_on_c, 0, 86, 100
2, 882240, Note_on_c, 0, 99, 100
2, 882240, Note_on_c, 0, 98, 100
2, 882240, Note_on_c, 0, 61, 100
2, 882480, Note_on_c, 0, 74, 0
2, 882480, Note_on_c, 0, 87, 0
2, 882480, Note_on_c, 0, 86, 0
2, 882480, Note_on_c, 0, 99, 0
2, 882480, Note_on_c, 0, 98, 0
2, 882480, Note_on_c, 0, 61, 0
2, 883200, Note_on_c, 0, 74, 100
2, 883200, Note_on_c, 0, 87, 100
2, 883200, Note_on_c, 0, 86, 100
2, 883200, Note_on_c, 0, 99, 100
2, 883200, Note_on_c, 0, 98, 100
2, 883200, Note_on_c, 0, 61, 100
2, 883440, Note_on_c, 0, 74, 0
2, 883440, Note_on_c, 0, 87, 0
2, 883440, Note_on_c, 0, 86, 0
2, 883440, Note_on_c, 0, 99, 0
2, 883440, Note_on_c, 0, 98, 0
2, 883440, Note_on_c, 0, 61, 0
2, 883680, Note_on_c, 0, 87, 100
2, 883680, Note_on_c, 0, 86, 100
2, 883680, Note_on_c, 0, 99, 100
2, 883680, Note_on_c, 0, 98, 100
2, 883920, Note_on_c, 0, 87, 0
2, 883920, Note_on_c, 0, 86, 0
2, 883920, Note_on_c, 0, 99, 0
2, 883920, Note_on_c, 0, 98, 0
2, 884160, Note_on_c, 0, 74, 100
2, 884160, Note_on_c, 0, 87, 100
2, 884160, Note_on_c, 0, 86, 100
2, 884160, Note_on_c, 0, 99, 100
2, 884160, Note_on_c, 0, 98, 100
2, 884400, Note_on_c, 0, 74, 0
2, 884400, Note_on_c, 0, 87, 0
2, 884400, Note_on_c, 0, 86, 0
2, 884400, Note_on_c, 0, 99, 0
2, 884400, Note_on_c, 0, 98, 0
2, 885120, Note_on_c, 0, 106, 0
2, 885120, Note_on_c, 0, 94, 0
2, 885120, Note_on_c, 0, 70, 0
2, 885120, Note_on_c, 0, 82, 0
2, 885120, Note_on_c, 0, 86, 100
2, 885120, Note_on_c, 0, 84, 100
2, 885120, Note_on_c, 0, 98, 100
2, 885120, Note_on_c, 0, 96, 100
2, 885120, Note_on_c, 0, 73, 100
2, 885120, Note_on_c, 0, 60, 100
2, 885120, Note_on_c, 0, 105, 100
2, 885120, Note_on_c, 0, 93, 100
2, 885120, Note_on_c, 0, 69, 100
2, 885120, Note_on_c, 0, 81, 100
2, 885360, Note_on_c, 0, 86, 0
2, 885360, Note_on_c, 0, 84, 0
2, 885360, Note_on_c, 0, 98, 0
2, 885360, Note_on_c, 0, 96, 0
2, 885360, Note_on_c, 0, 73, 0
2, 885360, Note_on_c, 0, 60, 0
2, 886080, Note_on_c, 0, 86, 100
2, 886080, Note_on_c, 0, 84, 100
2, 886080, Note_on_c, 0, 98, 100
2, 886080, Note_on_c, 0, 96, 100
2, 886320, Note_on_c, 0, 86, 0
2, 886320, Note_on_c, 0, 84, 0
2, 886320, Note_on_c, 0, 98, 0
2, 886320, Note_on_c, 0, 96, 0
2, 886560, Note_on_c, 0, 86, 100
2, 886560, Note_on_c, 0, 84, 100
2, 886560, Note_on_c, 0, 98, 100
2, 886560, Note_on_c, 0, 96, 100
2, 886800, Note_on_c, 0, 86, 0
2, 886800, Note_on_c, 0, 84, 0
2, 886800, Note_on_c, 0, 98, 0
2, 886800, Note_on_c, 0, 96, 0
2, 887040, Note_on_c, 0, 86, 100
2, 887040, Note_on_c, 0, 84, 100
2, 887040, Note_on_c, 0, 98, 100
2, 887040, Note_on_c, 0, 96, 100
2, 887040, Note_on_c, 0, 73, 100
2, 887280, Note_on_c, 0, 86, 0
2, 887280, Note_on_c, 0, 84, 0
2, 887280, Note_on_c, 0, 98, 0
2, 887280, Note_on_c, 0, 96, 0
2, 887280, Note_on_c, 0, 73, 0
2, 888000, Note_on_c, 0, 86, 100
2, 888000, Note_on_c, 0, 84, 100
2, 888000, Note_on_c, 0, 98, 100
2, 888000, Note_on_c, 0, 96, 100
2, 888000, Note_on_c, 0, 73, 100
2, 888000, Note_on_c, 0, 60, 100
2, 888240, Note_on_c, 0, 86, 0
2, 888240, Note_on_c, 0, 84, 0
2, 888240, Note_on_c, 0, 98, 0
2, 888240, Note_on_c, 0, 96, 0
2, 888240, Note_on_c, 0, 73, 0
2, 888240, Note_on_c, 0, 60, 0
2, 888960, Note_on_c, 0, 86, 100
2, 888960, Note_on_c, 0, 84, 100
2, 888960, Note_on_c, 0, 98, 100
2, 888960, Note_on_c, 0, 96, 100
2, 889200, Note_on_c, 0, 86, 0
2, 889200, Note_on_c, 0, 84, 0
2, 889200, Note_on_c, 0, 98, 0
2, 889200, Note_on_c, 0, 96, 0
2, 889440, Note_on_c, 0, 86, 100
2, 889440, Note_on_c, 0, 84, 100
2, 889440, Note_on_c, 0, 98, 100
2, 889440, Note_on_c, 0, 96, 100
2, 889680, Note_on_c, 0, 86, 0
2, 889680, Note_on_c, 0, 84, 0
2, 889680, Note_on_c, 0, 98, 0
2, 889680, Note_on_c, 0, 96, 0
2, 889920, Note_on_c, 0, 86, 100
2, 889920, Note_on_c, 0, 84, 100
2, 889920, Note_on_c, 0, 98, 100
2, 889920, Note_on_c, 0, 96, 100
2, 889920, Note_on_c, 0, 73, 100
2, 890160, Note_on_c, 0, 86, 0
2, 890160, Note_on_c, 0, 84, 0
2, 890160, Note_on_c, 0, 98, 0
2, 890160, Note_on_c, 0, 96, 0
2, 890160, Note_on_c, 0, 73, 0
2, 890880, Note_on_c, 0, 105, 0
2, 890880, Note_on_c, 0, 93, 0
2, 890880, Note_on_c, 0, 69, 0
2, 890880, Note_on_c, 0, 81, 0
2, 890880, Note_on_c, 0, 86, 100
2, 890880, Note_on_c, 0, 84, 100
2, 890880, Note_on_c, 0, 98, 100
2, 890880, Note_on_c, 0, 96, 100
2, 890880, Note_on_c, 0, 73, 100
2, 890880, Note_on_c, 0, 60, 100
2, 890880, Note_on_c, 0, 106, 100
2, 890880, Note_on_c, 0, 94, 100
2, 890880, Note_on_c, 0, 70, 100
2, 890880, Note_on_c, 0, 82, 100
2, 891120, Note_on_c, 0, 86, 0
2, 891120, Note_on_c, 0, 84, 0
2, 891120, Note_on_c, 0, 98, 0
2, 891120, Note_on_c, 0, 96, 0
2, 891120, Note_on_c, 0, 73, 0
2, 891120, Note_on_c, 0, 60, 0
2, 891840, Note_on_c, 0, 86, 100
2, 891840, Note_on_c, 0, 84, 100
2, 891840, Note_on_c, 0, 98, 100
2, 891840, Note_on_c, 0, 96, 100
2, 892080, Note_on_c, 0, 86, 0
2, 892080, Note_on_c, 0, 84, 0
2, 892080, Note_on_c, 0, 98, 0
2, 892080, Note_on_c, 0, 96, 0
2, 892320, Note_on_c, 0, 86, 100
2, 892320, Note_on_c, 0, 84, 100
2, 892320, Note_on_c, 0, 98, 100
2, 892320, Note_on_c, 0, 96, 100
2, 892560, Note_on_c, 0, 86, 0
2, 892560, Note_on_c, 0, 84, 0
2, 892560, Note_on_c, 0, 98, 0
2, 892560, Note_on_c, 0, 96, 0
2, 892800, Note_on_c, 0, 86, 100
2, 892800, Note_on_c, 0, 84, 100
2, 892800, Note_on_c, 0, 98, 100
2, 892800, Note_on_c, 0, 96, 100
2, 892800, Note_on_c, 0, 73, 100
2, 893040, Note_on_c, 0, 86, 0
2, 893040, Note_on_c, 0, 84, 0
2, 893040, Note_on_c, 0, 98, 0
2, 893040, Note_on_c, 0, 96, 0
2, 893040, Note_on_c, 0, 73, 0
2, 893760, Note_on_c, 0, 86, 100
2, 893760, Note_on_c, 0, 84, 100
2, 893760, Note_on_c, 0, 98, 100
2, 893760, Note_on_c, 0, 96, 100
2, 893760, Note_on_c, 0, 73, 100
2, 893760, Note_on_c, 0, 60, 100
2, 894000, Note_on_c, 0, 86, 0
2, 894000, Note_on_c, 0, 84, 0
2, 894000, Note_on_c, 0, 98, 0
2, 894000, Note_on_c, 0, 96, 0
2, 894000, Note_on_c, 0, 73, 0
2, 894000, Note_on_c, 0, 60, 0
2, 894720, Note_on_c, 0, 86, 100
2, 894720, Note_on_c, 0, 84, 100
2, 894720, Note_on_c, 0, 98, 100
2, 894720, Note_on_c, 0, 96, 100
2, 894720, Note_on_c, 0, 73, 100
2, 894960, Note_on_c, 0, 86, 0
2, 894960, Note_on_c, 0, 84, 0
2, 894960, Note_on_c, 0, 98, 0
2, 894960, Note_on_c, 0, 96, 0
2, 894960, Note_on_c, 0, 73, 0
2, 895200, Note_on_c, 0, 86, 100
2, 895200, Note_on_c, 0, 84, 100
2, 895200, Note_on_c, 0, 98, 100
2, 895200, Note_on_c, 0, 96, 100
2, 895440, Note_on_c, 0, 86, 0
2, 895440, Note_on_c, 0, 84, 0
2, 895440, Note_on_c, 0, 98, 0
2, 895440, Note_on_c, 0, 96, 0
2, 895680, Note_on_c, 0, 86, 100
2, 895680, Note_on_c, 0, 84, 100
2, 895680, Note_on_c, 0, 98, 100
2, 895680, Note_on_c, 0, 96, 100
2, 895680, Note_on_c, 0, 73, 100
2, 895920, Note_on_c, 0, 86, 0
2, 895920, Note_on_c, 0, 84, 0
2, 895920, Note_on_c, 0, 98, 0
2, 895920, Note_on_c, 0, 96, 0
2, 895920, Note_on_c, 0, 73, 0
2, 896640, Note_on_c, 0, 74, 100
2, 896640, Note_on_c, 0, 87, 100
2, 896640, Note_on_c, 0, 86, 100
2, 896640, Note_on_c, 0, 99, 100
2, 896640, Note_on_c, 0, 98, 100
2, 896640, Note_on_c, 0, 61, 100
2, 896640, Note_on_c, 0, 105, 100
2, 896640, Note_on_c, 0, 93, 100
2, 896640, Note_on_c, 0, 69, 100
2, 896640, Note_on_c, 0, 81, 100
2, 896880, Note_on_c, 0, 74, 0
2, 896880, Note_on_c, 0, 87, 0
2, 896880, Note_on_c, 0, 86, 0
2, 896880, Note_on_c, 0, 99, 0
2, 896880, Note_on_c, 0, 98, 0
2, 896880, Note_on_c, 0, 61, 0
2, 897600, Note_on_c, 0, 74, 100
2, 897600, Note_on_c, 0, 87, 100
2, 897600, Note_on_c, 0, 86, 100
2, 897600, Note_on_c, 0, 99, 100
2, 897600, Note_on_c, 0, 98, 100
2, 897840, Note_on_c, 0, 74, 0
2, 897840, Note_on_c, 0, 87, 0
2, 897840, Note_on_c, 0, 86, 0
2, 897840, Note_on_c, 0, 99, 0
2, 897840, Note_on_c, 0, 98, 0
2, 898080, Note_on_c, 0, 87, 100
2, 898080, Note_on_c, 0, 86, 100
2, 898080, Note_on_c, 0, 99, 100
2, 898080, Note_on_c, 0, 98, 100
2, 898320, Note_on_c, 0, 87, 0
2, 898320, Note_on_c, 0, 86, 0
2, 898320, Note_on_c, 0, 99, 0
2, 898320, Note_on_c, 0, 98, 0
2, 898560, Note_on_c, 0, 75, 100
2, 898560, Note_on_c, 0, 86, 100
2, 898560, Note_on_c, 0, 88, 100
2, 898560, Note_on_c, 0, 98, 100
2, 898560, Note_on_c, 0, 100, 100
2, 898800, Note_on_c, 0, 75, 0
2, 898800, Note_on_c, 0, 86, 0
2, 898800, Note_on_c, 0, 88, 0
2, 898800, Note_on_c, 0, 98, 0
2, 898800, Note_on_c, 0, 100, 0
2, 899520, Note_on_c, 0, 74, 100
2, 899520, Note_on_c, 0, 86, 100
2, 899520, Note_on_c, 0, 87, 100
2, 899520, Note_on_c, 0, 98, 100
2, 899520, Note_on_c, 0, 99, 100
2, 899520, Note_on_c, 0, 61, 100
2, 899760, Note_on_c, 0, 74, 0
2, 899760, Note_on_c, 0, 86, 0
2, 899760, Note_on_c, 0, 87, 0
2, 899760, Note_on_c, 0, 98, 0
2, 899760, Note_on_c, 0, 99, 0
2, 899760, Note_on_c, 0, 61, 0
2, 900480, Note_on_c, 0, 74, 100
2, 900480, Note_on_c, 0, 87, 100
2, 900480, Note_on_c, 0, 86, 100
2, 900480, Note_on_c, 0, 99, 100
2, 900480, Note_on_c, 0, 98, 100
2, 900720, Note_on_c, 0, 74, 0
2, 900720, Note_on_c, 0, 87, 0
2, 900720, Note_on_c, 0, 86, 0
2, 900720, Note_on_c, 0, 99, 0
2, 900720, Note_on_c, 0, 98, 0
2, 900960, Note_on_c, 0, 87, 100
2, 900960, Note_on_c, 0, 86, 100
2, 900960, Note_on_c, 0, 99, 100
2, 900960, Note_on_c, 0, 98, 100
2, 901200, Note_on_c, 0, 87, 0
2, 901200, Note_on_c, 0, 86, 0
2, 901200, Note_on_c, 0, 99, 0
2, 901200, Note_on_c, 0, 98, 0
2, 901440, Note_on_c, 0, 75, 100
2, 901440, Note_on_c, 0, 88, 100
2, 901440, Note_on_c, 0, 86, 100
2, 901440, Note_on_c, 0, 100, 100
2, 901440, Note_on_c, 0, 98, 100
2, 901680, Note_on_c, 0, 75, 0
2, 901680, Note_on_c, 0, 88, 0
2, 901680, Note_on_c, 0, 86, 0
2, 901680, Note_on_c, 0, 100, 0
2, 901680, Note_on_c, 0, 98, 0
2, 901920, Note_on_c, 0, 87, 100
2, 901920, Note_on_c, 0, 86, 100
2, 901920, Note_on_c, 0, 99, 100
2, 901920, Note_on_c, 0, 98, 100
2, 902160, Note_on_c, 0, 87, 0
2, 902160, Note_on_c, 0, 86, 0
2, 902160, Note_on_c, 0, 99, 0
2, 902160, Note_on_c, 0, 98, 0
2, 902400, Note_on_c, 0, 74, 100
2, 902400, Note_on_c, 0, 87, 100
2, 902400, Note_on_c, 0, 86, 100
2, 902400, Note_on_c, 0, 99, 100
2, 902400, Note_on_c, 0, 98, 100
2, 902400, Note_on_c, 0, 61, 100
2, 902640, Note_on_c, 0, 74, 0
2, 902640, Note_on_c, 0, 87, 0
2, 902640, Note_on_c, 0, 86, 0
2, 902640, Note_on_c, 0, 99, 0
2, 902640, Note_on_c, 0, 98, 0
2, 902640, Note_on_c, 0, 61, 0
2, 903360, Note_on_c, 0, 75, 100
2, 903360, Note_on_c, 0, 88, 100
2, 903360, Note_on_c, 0, 86, 100
2, 903360, Note_on_c, 0, 100, 100
2, 903360, Note_on_c, 0, 98, 100
2, 903360, Note_on_c, 0, 62, 100
2, 903600, Note_on_c, 0, 75, 0
2, 903600, Note_on_c, 0, 88, 0
2, 903600, Note_on_c, 0, 86, 0
2, 903600, Note_on_c, 0, 100, 0
2, 903600, Note_on_c, 0, 98, 0
2, 903600, Note_on_c, 0, 62, 0
2, 903840, Note_on_c, 0, 86, 100
2, 903840, Note_on_c, 0, 88, 100
2, 903840, Note_on_c, 0, 98, 100
2, 903840, Note_on_c, 0, 100, 100
2, 904080, Note_on_c, 0, 86, 0
2, 904080, Note_on_c, 0, 88, 0
2, 904080, Note_on_c, 0, 98, 0
2, 904080, Note_on_c, 0, 100, 0
2, 904800, Note_on_c, 0, 88, 100
2, 904800, Note_on_c, 0, 86, 100
2, 904800, Note_on_c, 0, 100, 100
2, 904800, Note_on_c, 0, 98, 100
2, 905040, Note_on_c, 0, 88, 0
2, 905040, Note_on_c, 0, 86, 0
2, 905040, Note_on_c, 0, 100, 0
2, 905040, Note_on_c, 0, 98, 0
2, 905280, Note_on_c, 0, 88, 100
2, 905280, Note_on_c, 0, 86, 100
2, 905280, Note_on_c, 0, 100, 100
2, 905280, Note_on_c, 0, 98, 100
2, 905280, Note_on_c, 0, 75, 100
2, 905280, Note_on_c, 0, 62, 100
2, 905520, Note_on_c, 0, 88, 0
2, 905520, Note_on_c, 0, 86, 0
2, 905520, Note_on_c, 0, 100, 0
2, 905520, Note_on_c, 0, 98, 0
2, 905520, Note_on_c, 0, 75, 0
2, 905520, Note_on_c, 0, 62, 0
2, 906240, Note_on_c, 0, 75, 100
2, 906240, Note_on_c, 0, 88, 100
2, 906240, Note_on_c, 0, 86, 100
2, 906240, Note_on_c, 0, 100, 100
2, 906240, Note_on_c, 0, 98, 100
2, 906480, Note_on_c, 0, 75, 0
2, 906480, Note_on_c, 0, 88, 0
2, 906480, Note_on_c, 0, 86, 0
2, 906480, Note_on_c, 0, 100, 0
2, 906480, Note_on_c, 0, 98, 0
2, 906720, Note_on_c, 0, 88, 100
2, 906720, Note_on_c, 0, 86, 100
2, 906720, Note_on_c, 0, 100, 100
2, 906720, Note_on_c, 0, 98, 100
2, 906960, Note_on_c, 0, 88, 0
2, 906960, Note_on_c, 0, 86, 0
2, 906960, Note_on_c, 0, 100, 0
2, 906960, Note_on_c, 0, 98, 0
2, 907200, Note_on_c, 0, 75, 100
2, 907200, Note_on_c, 0, 88, 100
2, 907200, Note_on_c, 0, 86, 100
2, 907200, Note_on_c, 0, 100, 100
2, 907200, Note_on_c, 0, 98, 100
2, 907440, Note_on_c, 0, 75, 0
2, 907440, Note_on_c, 0, 88, 0
2, 907440, Note_on_c, 0, 86, 0
2, 907440, Note_on_c, 0, 100, 0
2, 907440, Note_on_c, 0, 98, 0
2, 908130, Text_t, "bass_off"
2, 908160, Note_on_c, 0, 74, 100
2, 908160, Note_on_c, 0, 87, 100
2, 908160, Note_on_c, 0, 86, 100
2, 908160, Note_on_c, 0, 99, 100
2, 908160, Note_on_c, 0, 98, 100
2, 908160, Note_on_c, 0, 61, 100
2, 910050, Text_t, "drum_off"
2, 925440, Text_t, "bass_off"
2, 927360, Text_t, "[lighting (flare)]"
2, 950398, Note_on_c, 0, 106, 0
2, 950398, Note_on_c, 0, 94, 0
2, 950398, Note_on_c, 0, 70, 0
2, 950398, Note_on_c, 0, 82, 0
2, 950398, Note_on_c, 0, 105, 0
2, 950398, Note_on_c, 0, 93, 0
2, 950398, Note_on_c, 0, 69, 0
2, 950398, Note_on_c, 0, 81, 0
2, 950398, Note_on_c, 0, 74, 0
2, 950398, Note_on_c, 0, 87, 0
2, 950398, Note_on_c, 0, 86, 0
2, 950398, Note_on_c, 0, 99, 0
2, 950398, Note_on_c, 0, 98, 0
2, 950398, Note_on_c, 0, 61, 0
2, 950398, End_track
3, 0, Start_track
3, 0, Title_t, "EVENTS"
3, 0, Text_t, "[lighting (blackout)]"
3, 0, Text_t, "sing_off"
3, 0, Text_t, "bass_off"
3, 0, Text_t, "gtr_half_tempo"
3, 0, Text_t, "bass_half_tempo"
3, 0, Text_t, "drum_half_tempo"
3, 0, Text_t, "[crowd_half_tempo]"
3, 0, Text_t, "[half_tempo]"
3, 11520, Text_t, "[music_start]"
3, 11520, Text_t, "[verse]"
3, 34560, Text_t, "bass_on"
3, 34560, Text_t, "[lighting ()]"
3, 57600, Text_t, "[lighting ()]"
3, 80640, Text_t, "[chorus]"
3, 111360, Text_t, "[verse]"
3, 111360, Text_t, "[lighting (blackout)]"
3, 134400, Text_t, "gtr_on"
3, 134400, Text_t, "[lighting (color1)]"
3, 145920, Text_t, "[lighting ()]"
3, 157440, Text_t, "[chorus]"
3, 157440, Text_t, "[lighting ()]"
3, 218880, Text_t, "[verse]"
3, 218880, Text_t, "[lighting (blackout)]"
3, 241920, Text_t, "gtr_on"
3, 241920, Text_t, "[lighting (color2)]"
3, 253440, Text_t, "[lighting ()]"
3, 264960, Text_t, "drum_normal"
3, 314880, Text_t, "[chorus]"
3, 314880, Text_t, "[lighting ()]"
3, 345600, Text_t, "[verse]"
3, 345600, Text_t, "[lighting (blackout)]"
3, 368640, Text_t, "gtr_on"
3, 368640, Text_t, "[lighting (color1)]"
3, 380160, Text_t, "[lighting ()]"
3, 391680, Text_t, "[chorus]"
3, 391680, Text_t, "[lighting ()]"
3, 453120, Text_t, "[verse]"
3, 453120, Text_t, "[lighting (blackout)]"
3, 476160, Text_t, "gtr_on"
3, 476160, Text_t, "[lighting (color2)]"
3, 487680, Text_t, "[lighting ()]"
3, 499200, Text_t, "bass_off"
3, 501120, Text_t, "[lighting (flare)]"
3, 516480, Text_t, "[solo]"
3, 516480, Text_t, "[lighting ()]"
3, 518400, Text_t, "[lighting (flare)]"
3, 551040, Text_t, "[lighting ()]"
3, 551040, Text_t, "bass_on"
3, 551040, Text_t, "[verse]"
3, 574080, Text_t, "[lighting (color2)]"
3, 602880, Text_t, "drum_normal"
3, 631680, Text_t, "[chorus]"
3, 631680, Text_t, "[lighting (sweep)]"
3, 631680, Text_t, "[lighting ()]"
3, 677760, Text_t, "wail_off"
3, 677760, Text_t, "[verse]"
3, 677760, Text_t, "[lighting (color1)]"
3, 706560, Text_t, "[lighting ()]"
3, 735360, Text_t, "[lighting (flare)]"
3, 735360, Text_t, "bass_off"
3, 735360, Text_t, "[solo]"
3, 758400, Text_t, "[chorus]"
3, 758400, Text_t, "[lighting ()]"
3, 758400, Text_t, "bass_on"
3, 850560, Text_t, "[verse]"
3, 896640, Text_t, "bass_off"
3, 898560, Text_t, "[lighting (flare)]"
3, 950400, Text_t, "[lighting (blackout)]"
3, 952318, Text_t, "[end]"
3, 952318, End_track
4, 0, Start_track
4, 0, Title_t, "ANIM"
4, 11520, Note_on_c, 4, 40, 100
4, 12720, Note_on_c, 4, 40, 0
4, 12960, Note_on_c, 4, 53, 100
4, 14160, Note_on_c, 4, 53, 0
4, 14400, Note_on_c, 4, 48, 100
4, 15120, Note_on_c, 4, 48, 0
4, 15360, Note_on_c, 4, 43, 100
4, 16080, Note_on_c, 4, 43, 0
4, 16320, Note_on_c, 4, 50, 100
4, 17040, Note_on_c, 4, 50, 0
4, 17280, Note_on_c, 4, 40, 100
4, 18480, Note_on_c, 4, 40, 0
4, 18720, Note_on_c, 4, 53, 100
4, 19920, Note_on_c, 4, 53, 0
4, 20160, Note_on_c, 4, 48, 100
4, 20880, Note_on_c, 4, 48, 0
4, 21120, Note_on_c, 4, 43, 100
4, 21840, Note_on_c, 4, 43, 0
4, 22080, Note_on_c, 4, 50, 100
4, 22800, Note_on_c, 4, 50, 0
4, 23040, Note_on_c, 4, 40, 100
4, 24240, Note_on_c, 4, 40, 0
4, 24480, Note_on_c, 4, 53, 100
4, 25680, Note_on_c, 4, 53, 0
4, 25920, Note_on_c, 4, 48, 100
4, 26640, Note_on_c, 4, 48, 0
4, 26880, Note_on_c, 4, 43, 100
4, 27600, Note_on_c, 4, 43, 0
4, 27840, Note_on_c, 4, 50, 100
4, 28560, Note_on_c, 4, 50, 0
4, 28800, Note_on_c, 4, 40, 100
4, 30000, Note_on_c, 4, 40, 0
4, 30240, Note_on_c, 4, 53, 100
4, 31440, Note_on_c, 4, 53, 0
4, 31680, Note_on_c, 4, 48, 100
4, 32400, Note_on_c, 4, 48, 0
4, 32640, Note_on_c, 4, 43, 100
4, 33360, Note_on_c, 4, 43, 0
4, 33600, Note_on_c, 4, 50, 100
4, 34320, Note_on_c, 4, 50, 0
4, 34560, Note_on_c, 4, 40, 100
4, 35760, Note_on_c, 4, 40, 0
4, 36000, Note_on_c, 4, 53, 100
4, 37200, Note_on_c, 4, 53, 0
4, 37440, Note_on_c, 4, 48, 100
4, 38160, Note_on_c, 4, 48, 0
4, 38400, Note_on_c, 4, 43, 100
4, 39120, Note_on_c, 4, 43, 0
4, 39360, Note_on_c, 4, 50, 100
4, 40080, Note_on_c, 4, 50, 0
4, 40320, Note_on_c, 4, 40, 100
4, 41520, Note_on_c, 4, 40, 0
4, 41760, Note_on_c, 4, 53, 100
4, 42960, Note_on_c, 4, 53, 0
4, 43200, Note_on_c, 4, 48, 100
4, 43920, Note_on_c, 4, 48, 0
4, 44160, Note_on_c, 4, 43, 100
4, 44880, Note_on_c, 4, 43, 0
4, 45120, Note_on_c, 4, 50, 100
4, 45840, Note_on_c, 4, 50, 0
4, 46080, Note_on_c, 4, 40, 100
4, 47280, Note_on_c, 4, 40, 0
4, 47520, Note_on_c, 4, 53, 100
4, 48720, Note_on_c, 4, 53, 0
4, 48960, Note_on_c, 4, 48, 100
4, 49680, Note_on_c, 4, 48, 0
4, 49920, Note_on_c, 4, 43, 100
4, 50640, Note_on_c, 4, 43, 0
4, 50880, Note_on_c, 4, 50, 100
4, 51600, Note_on_c, 4, 50, 0
4, 51840, Note_on_c, 4, 40, 100
4, 53040, Note_on_c, 4, 40, 0
4, 53280, Note_on_c, 4, 53, 100
4, 54480, Note_on_c, 4, 53, 0
4, 54720, Note_on_c, 4, 48, 100
4, 55440, Note_on_c, 4, 48, 0
4, 55680, Note_on_c, 4, 43, 100
4, 56400, Note_on_c, 4, 43, 0
4, 56640, Note_on_c, 4, 50, 100
4, 57360, Note_on_c, 4, 50, 0
4, 57600, Note_on_c, 4, 40, 100
4, 58800, Note_on_c, 4, 40, 0
4, 59040, Note_on_c, 4, 53, 100
4, 60240, Note_on_c, 4, 53, 0
4, 60480, Note_on_c, 4, 48, 100
4, 61200, Note_on_c, 4, 48, 0
4, 61440, Note_on_c, 4, 43, 100
4, 62160, Note_on_c, 4, 43, 0
4, 62400, Note_on_c, 4, 50, 100
4, 63120, Note_on_c, 4, 50, 0
4, 63360, Note_on_c, 4, 40, 100
4, 64560, Note_on_c, 4, 40, 0
4, 64800, Note_on_c, 4, 53, 100
4, 66000, Note_on_c, 4, 53, 0
4, 66240, Note_on_c, 4, 48, 100
4, 66960, Note_on_c, 4, 48, 0
4, 67200, Note_on_c, 4, 43, 100
4, 67920, Note_on_c, 4, 43, 0
4, 68160, Note_on_c, 4, 50, 100
4, 68880, Note_on_c, 4, 50, 0
4, 69120, Note_on_c, 4, 40, 100
4, 70320, Note_on_c, 4, 40, 0
4, 70560, Note_on_c, 4, 53, 100
4, 71760, Note_on_c, 4, 53, 0
4, 72000, Note_on_c, 4, 48, 100
4, 72720, Note_on_c, 4, 48, 0
4, 72960, Note_on_c, 4, 43, 100
4, 73680, Note_on_c, 4, 43, 0
4, 73920, Note_on_c, 4, 50, 100
4, 74640, Note_on_c, 4, 50, 0
4, 74880, Note_on_c, 4, 40, 100
4, 76080, Note_on_c, 4, 40, 0
4, 76320, Note_on_c, 4, 53, 100
4, 77520, Note_on_c, 4, 53, 0
4, 77760, Note_on_c, 4, 48, 100
4, 78480, Note_on_c, 4, 48, 0
4, 78720, Note_on_c, 4, 43, 100
4, 79440, Note_on_c, 4, 43, 0
4, 79680, Note_on_c, 4, 50, 100
4, 80400, Note_on_c, 4, 50, 0
4, 80640, Note_on_c, 4, 40, 100
4, 84240, Note_on_c, 4, 40, 0
4, 84480, Note_on_c, 4, 43, 100
4, 84720, Note_on_c, 4, 43, 0
4, 84960, Note_on_c, 4, 40, 100
4, 85680, Note_on_c, 4, 40, 0
4, 85920, Note_on_c, 4, 42, 100
4, 86160, Note_on_c, 4, 42, 0
4, 86400, Note_on_c, 4, 40, 100
4, 87120, Note_on_c, 4, 40, 0
4, 87360, Note_on_c, 4, 41, 100
4, 87600, Note_on_c, 4, 41, 0
4, 87840, Note_on_c, 4, 40, 100
4, 88080, Note_on_c, 4, 40, 0
4, 88320, Note_on_c, 4, 40, 100
4, 91920, Note_on_c, 4, 40, 0
4, 92160, Note_on_c, 4, 43, 100
4, 92400, Note_on_c, 4, 43, 0
4, 92640, Note_on_c, 4, 40, 100
4, 93360, Note_on_c, 4, 40, 0
4, 93600, Note_on_c, 4, 42, 100
4, 93840, Note_on_c, 4, 42, 0
4, 94080, Note_on_c, 4, 40, 100
4, 94800, Note_on_c, 4, 40, 0
4, 95040, Note_on_c, 4, 41, 100
4, 95280, Note_on_c, 4, 41, 0
4, 95520, Note_on_c, 4, 40, 100
4, 95760, Note_on_c, 4, 40, 0
4, 96000, Note_on_c, 4, 40, 100
4, 99600, Note_on_c, 4, 40, 0
4, 99840, Note_on_c, 4, 43, 100
4, 100080, Note_on_c, 4, 43, 0
4, 100320, Note_on_c, 4, 40, 100
4, 101040, Note_on_c, 4, 40, 0
4, 101280, Note_on_c, 4, 42, 100
4, 101520, Note_on_c, 4, 42, 0
4, 101760, Note_on_c, 4, 40, 100
4, 102480, Note_on_c, 4, 40, 0
4, 102720, Note_on_c, 4, 41, 100
4, 102960, Note_on_c, 4, 41, 0
4, 103200, Note_on_c, 4, 40, 100
4, 103440, Note_on_c, 4, 40, 0
4, 103680, Note_on_c, 4, 40, 100
4, 107280, Note_on_c, 4, 40, 0
4, 107520, Note_on_c, 4, 43, 100
4, 107760, Note_on_c, 4, 43, 0
4, 108000, Note_on_c, 4, 40, 100
4, 108720, Note_on_c, 4, 40, 0
4, 108960, Note_on_c, 4, 42, 100
4, 109200, Note_on_c, 4, 42, 0
4, 109440, Note_on_c, 4, 40, 100
4, 110160, Note_on_c, 4, 40, 0
4, 110400, Note_on_c, 4, 41, 100
4, 110640, Note_on_c, 4, 41, 0
4, 110880, Note_on_c, 4, 40, 100
4, 111120, Note_on_c, 4, 40, 0
4, 134400, Note_on_c, 4, 40, 100
4, 135600, Note_on_c, 4, 40, 0
4, 135840, Note_on_c, 4, 43, 100
4, 137040, Note_on_c, 4, 43, 0
4, 137280, Note_on_c, 4, 42, 100
4, 138480, Note_on_c, 4, 42, 0
4, 138720, Note_on_c, 4, 48, 100
4, 139920, Note_on_c, 4, 48, 0
4, 140160, Note_on_c, 4, 47, 100
4, 141360, Note_on_c, 4, 47, 0
4, 141600, Note_on_c, 4, 50, 100
4, 142800, Note_on_c, 4, 50, 0
4, 143040, Note_on_c, 4, 49, 100
4, 144240, Note_on_c, 4, 49, 0
4, 144480, Note_on_c, 4, 54, 100
4, 145680, Note_on_c, 4, 54, 0
4, 145920, Note_on_c, 4, 42, 100
4, 147120, Note_on_c, 4, 42, 0
4, 147360, Note_on_c, 4, 45, 100
4, 148560, Note_on_c, 4, 45, 0
4, 148800, Note_on_c, 4, 44, 100
4, 150000, Note_on_c, 4, 44, 0
4, 150240, Note_on_c, 4, 50, 100
4, 151440, Note_on_c, 4, 50, 0
4, 151680, Note_on_c, 4, 49, 100
4, 152880, Note_on_c, 4, 49, 0
4, 153120, Note_on_c, 4, 52, 100
4, 154320, Note_on_c, 4, 52, 0
4, 154560, Note_on_c, 4, 51, 100
4, 155760, Note_on_c, 4, 51, 0
4, 156000, Note_on_c, 4, 57, 100
4, 157200, Note_on_c, 4, 57, 0
4, 157440, Note_on_c, 4, 42, 100
4, 161040, Note_on_c, 4, 42, 0
4, 161280, Note_on_c, 4, 45, 100
4, 161520, Note_on_c, 4, 45, 0
4, 161760, Note_on_c, 4, 42, 100
4, 162480, Note_on_c, 4, 42, 0
4, 162720, Note_on_c, 4, 44, 100
4, 162960, Note_on_c, 4, 44, 0
4, 163200, Note_on_c, 4, 42, 100
4, 163920, Note_on_c, 4, 42, 0
4, 164160, Note_on_c, 4, 43, 100
4, 164400, Note_on_c, 4, 43, 0
4, 164640, Note_on_c, 4, 42, 100
4, 164880, Note_on_c, 4, 42, 0
4, 165120, Note_on_c, 4, 42, 100
4, 168720, Note_on_c, 4, 42, 0
4, 168960, Note_on_c, 4, 45, 100
4, 169200, Note_on_c, 4, 45, 0
4, 169440, Note_on_c, 4, 42, 100
4, 170160, Note_on_c, 4, 42, 0
4, 170400, Note_on_c, 4, 44, 100
4, 170640, Note_on_c, 4, 44, 0
4, 170880, Note_on_c, 4, 42, 100
4, 171600, Note_on_c, 4, 42, 0
4, 171840, Note_on_c, 4, 43, 100
4, 172080, Note_on_c, 4, 43, 0
4, 172320, Note_on_c, 4, 42, 100
4, 172560, Note_on_c, 4, 42, 0
4, 172800, Note_on_c, 4, 42, 100
4, 176400, Note_on_c, 4, 42, 0
4, 176640, Note_on_c, 4, 45, 100
4, 176880, Note_on_c, 4, 45, 0
4, 177120, Note_on_c, 4, 42, 100
4, 177840, Note_on_c, 4, 42, 0
4, 178080, Note_on_c, 4, 44, 100
4, 178320, Note_on_c, 4, 44, 0
4, 178560, Note_on_c, 4, 42, 100
4, 179280, Note_on_c, 4, 42, 0
4, 179520, Note_on_c, 4, 43, 100
4, 179760, Note_on_c, 4, 43, 0
4, 180000, Note_on_c, 4, 42, 100
4, 180240, Note_on_c, 4, 42, 0
4, 180480, Note_on_c, 4, 42, 100
4, 184080, Note_on_c, 4, 42, 0
4, 184320, Note_on_c, 4, 45, 100
4, 184560, Note_on_c, 4, 45, 0
4, 184800, Note_on_c, 4, 42, 100
4, 185520, Note_on_c, 4, 42, 0
4, 185760, Note_on_c, 4, 44, 100
4, 186000, Note_on_c, 4, 44, 0
4, 186240, Note_on_c, 4, 42, 100
4, 186960, Note_on_c, 4, 42, 0
4, 187200, Note_on_c, 4, 43, 100
4, 187440, Note_on_c, 4, 43, 0
4, 188160, Note_on_c, 4, 40, 100
4, 191760, Note_on_c, 4, 40, 0
4, 192000, Note_on_c, 4, 43, 100
4, 192240, Note_on_c, 4, 43, 0
4, 192480, Note_on_c, 4, 40, 100
4, 193200, Note_on_c, 4, 40, 0
4, 193440, Note_on_c, 4, 42, 100
4, 193680, Note_on_c, 4, 42, 0
4, 193920, Note_on_c, 4, 40, 100
4, 194640, Note_on_c, 4, 40, 0
4, 194880, Note_on_c, 4, 41, 100
4, 195120, Note_on_c, 4, 41, 0
4, 195360, Note_on_c, 4, 40, 100
4, 195600, Note_on_c, 4, 40, 0
4, 195840, Note_on_c, 4, 40, 100
4, 199440, Note_on_c, 4, 40, 0
4, 199680, Note_on_c, 4, 43, 100
4, 199920, Note_on_c, 4, 43, 0
4, 200160, Note_on_c, 4, 40, 100
4, 200880, Note_on_c, 4, 40, 0
4, 201120, Note_on_c, 4, 42, 100
4, 201360, Note_on_c, 4, 42, 0
4, 201600, Note_on_c, 4, 40, 100
4, 202320, Note_on_c, 4, 40, 0
4, 202560, Note_on_c, 4, 41, 100
4, 202800, Note_on_c, 4, 41, 0
4, 203040, Note_on_c, 4, 40, 100
4, 203280, Note_on_c, 4, 40, 0
4, 203520, Note_on_c, 4, 40, 100
4, 207120, Note_on_c, 4, 40, 0
4, 207360, Note_on_c, 4, 43, 100
4, 207600, Note_on_c, 4, 43, 0
4, 207840, Note_on_c, 4, 40, 100
4, 208560, Note_on_c, 4, 40, 0
4, 208800, Note_on_c, 4, 42, 100
4, 209040, Note_on_c, 4, 42, 0
4, 209280, Note_on_c, 4, 40, 100
4, 210000, Note_on_c, 4, 40, 0
4, 210240, Note_on_c, 4, 41, 100
4, 210480, Note_on_c, 4, 41, 0
4, 210720, Note_on_c, 4, 40, 100
4, 210960, Note_on_c, 4, 40, 0
4, 211200, Note_on_c, 4, 40, 100
4, 214800, Note_on_c, 4, 40, 0
4, 215040, Note_on_c, 4, 43, 100
4, 215280, Note_on_c, 4, 43, 0
4, 215520, Note_on_c, 4, 40, 100
4, 216240, Note_on_c, 4, 40, 0
4, 216480, Note_on_c, 4, 42, 100
4, 216720, Note_on_c, 4, 42, 0
4, 216960, Note_on_c, 4, 40, 100
4, 217680, Note_on_c, 4, 40, 0
4, 217920, Note_on_c, 4, 41, 100
4, 218160, Note_on_c, 4, 41, 0
4, 218400, Note_on_c, 4, 40, 100
4, 218640, Note_on_c, 4, 40, 0
4, 241920, Note_on_c, 4, 40, 100
4, 243120, Note_on_c, 4, 40, 0
4, 243360, Note_on_c, 4, 43, 100
4, 244560, Note_on_c, 4, 43, 0
4, 244800, Note_on_c, 4, 42, 100
4, 246000, Note_on_c, 4, 42, 0
4, 246240, Note_on_c, 4, 48, 100
4, 247440, Note_on_c, 4, 48, 0
4, 247680, Note_on_c, 4, 47, 100
4, 248880, Note_on_c, 4, 47, 0
4, 249120, Note_on_c, 4, 50, 100
4, 250320, Note_on_c, 4, 50, 0
4, 250560, Note_on_c, 4, 49, 100
4, 251760, Note_on_c, 4, 49, 0
4, 252000, Note_on_c, 4, 54, 100
4, 253200, Note_on_c, 4, 54, 0
4, 253440, Note_on_c, 4, 42, 100
4, 254640, Note_on_c, 4, 42, 0
4, 254880, Note_on_c, 4, 45, 100
4, 256080, Note_on_c, 4, 45, 0
4, 256320, Note_on_c, 4, 44, 100
4, 257520, Note_on_c, 4, 44, 0
4, 257760, Note_on_c, 4, 50, 100
4, 258960, Note_on_c, 4, 50, 0
4, 259200, Note_on_c, 4, 49, 100
4, 260400, Note_on_c, 4, 49, 0
4, 260640, Note_on_c, 4, 52, 100
4, 261840, Note_on_c, 4, 52, 0
4, 262080, Note_on_c, 4, 51, 100
4, 263280, Note_on_c, 4, 51, 0
4, 263520, Note_on_c, 4, 57, 100
4, 264720, Note_on_c, 4, 57, 0
4, 264960, Note_on_c, 4, 45, 100
4, 265440, Note_on_c, 4, 45, 0
4, 266880, Note_on_c, 4, 42, 100
4, 267360, Note_on_c, 4, 42, 0
4, 267840, Note_on_c, 4, 43, 100
4, 268320, Note_on_c, 4, 43, 0
4, 269760, Note_on_c, 4, 42, 100
4, 270240, Note_on_c, 4, 42, 0
4, 270720, Note_on_c, 4, 43, 100
4, 271200, Note_on_c, 4, 43, 0
4, 272640, Note_on_c, 4, 47, 100
4, 273600, Note_on_c, 4, 47, 0
4, 274080, Note_on_c, 4, 50, 100
4, 275040, Note_on_c, 4, 50, 0
4, 275520, Note_on_c, 4, 49, 100
4, 275760, Note_on_c, 4, 49, 0
4, 276480, Note_on_c, 4, 45, 100
4, 276960, Note_on_c, 4, 45, 0
4, 278400, Note_on_c, 4, 42, 100
4, 278880, Note_on_c, 4, 42, 0
4, 279360, Note_on_c, 4, 43, 100
4, 279840, Note_on_c, 4, 43, 0
4, 281280, Note_on_c, 4, 42, 100
4, 281760, Note_on_c, 4, 42, 0
4, 282240, Note_on_c, 4, 43, 100
4, 282720, Note_on_c, 4, 43, 0
4, 284160, Note_on_c, 4, 47, 100
4, 285120, Note_on_c, 4, 47, 0
4, 285600, Note_on_c, 4, 50, 100
4, 286560, Note_on_c, 4, 50, 0
4, 287040, Note_on_c, 4, 49, 100
4, 287280, Note_on_c, 4, 49, 0
4, 288000, Note_on_c, 4, 45, 100
4, 288480, Note_on_c, 4, 45, 0
4, 289920, Note_on_c, 4, 42, 100
4, 290400, Note_on_c, 4, 42, 0
4, 290880, Note_on_c, 4, 43, 100
4, 291360, Note_on_c, 4, 43, 0
4, 292800, Note_on_c, 4, 42, 100
4, 293280, Note_on_c, 4, 42, 0
4, 293760, Note_on_c, 4, 43, 100
4, 294240, Note_on_c, 4, 43, 0
4, 295680, Note_on_c, 4, 47, 100
4, 296640, Note_on_c, 4, 47, 0
4, 297120, Note_on_c, 4, 50, 100
4, 298080, Note_on_c, 4, 50, 0
4, 298560, Note_on_c, 4, 49, 100
4, 298800, Note_on_c, 4, 49, 0
4, 299520, Note_on_c, 4, 45, 100
4, 300000, Note_on_c, 4, 45, 0
4, 301440, Note_on_c, 4, 42, 100
4, 301920, Note_on_c, 4, 42, 0
4, 302400, Note_on_c, 4, 43, 100
4, 302880, Note_on_c, 4, 43, 0
4, 304320, Note_on_c, 4, 42, 100
4, 304800, Note_on_c, 4, 42, 0
4, 305280, Note_on_c, 4, 43, 100
4, 305760, Note_on_c, 4, 43, 0
4, 307200, Note_on_c, 4, 47, 100
4, 308160, Note_on_c, 4, 47, 0
4, 308640, Note_on_c, 4, 50, 100
4, 309600, Note_on_c, 4, 50, 0
4, 310080, Note_on_c, 4, 49, 100
4, 310320, Note_on_c, 4, 49, 0
4, 311040, Note_on_c, 4, 45, 100
4, 312000, Note_on_c, 4, 45, 0
4, 312480, Note_on_c, 4, 48, 100
4, 313440, Note_on_c, 4, 48, 0
4, 313920, Note_on_c, 4, 47, 100
4, 314160, Note_on_c, 4, 47, 0
4, 314880, Note_on_c, 4, 40, 100
4, 318480, Note_on_c, 4, 40, 0
4, 318720, Note_on_c, 4, 43, 100
4, 318960, Note_on_c, 4, 43, 0
4, 319200, Note_on_c, 4, 40, 100
4, 319920, Note_on_c, 4, 40, 0
4, 320160, Note_on_c, 4, 42, 100
4, 320400, Note_on_c, 4, 42, 0
4, 320640, Note_on_c, 4, 40, 100
4, 321360, Note_on_c, 4, 40, 0
4, 321600, Note_on_c, 4, 41, 100
4, 321840, Note_on_c, 4, 41, 0
4, 322080, Note_on_c, 4, 40, 100
4, 322320, Note_on_c, 4, 40, 0
4, 322560, Note_on_c, 4, 40, 100
4, 326160, Note_on_c, 4, 40, 0
4, 326400, Note_on_c, 4, 43, 100
4, 326640, Note_on_c, 4, 43, 0
4, 326880, Note_on_c, 4, 40, 100
4, 327600, Note_on_c, 4, 40, 0
4, 327840, Note_on_c, 4, 42, 100
4, 328080, Note_on_c, 4, 42, 0
4, 328320, Note_on_c, 4, 40, 100
4, 329040, Note_on_c, 4, 40, 0
4, 329280, Note_on_c, 4, 41, 100
4, 329520, Note_on_c, 4, 41, 0
4, 329760, Note_on_c, 4, 40, 100
4, 330000, Note_on_c, 4, 40, 0
4, 330240, Note_on_c, 4, 40, 100
4, 333840, Note_on_c, 4, 40, 0
4, 334080, Note_on_c, 4, 43, 100
4, 334320, Note_on_c, 4, 43, 0
4, 334560, Note_on_c, 4, 40, 100
4, 335280, Note_on_c, 4, 40, 0
4, 335520, Note_on_c, 4, 42, 100
4, 335760, Note_on_c, 4, 42, 0
4, 336000, Note_on_c, 4, 40, 100
4, 336720, Note_on_c, 4, 40, 0
4, 336960, Note_on_c, 4, 41, 100
4, 337200, Note_on_c, 4, 41, 0
4, 337440, Note_on_c, 4, 40, 100
4, 337680, Note_on_c, 4, 40, 0
4, 337920, Note_on_c, 4, 40, 100
4, 341520, Note_on_c, 4, 40, 0
4, 341760, Note_on_c, 4, 43, 100
4, 342000, Note_on_c, 4, 43, 0
4, 342240, Note_on_c, 4, 40, 100
4, 342960, Note_on_c, 4, 40, 0
4, 343200, Note_on_c, 4, 42, 100
4, 343440, Note_on_c, 4, 42, 0
4, 343680, Note_on_c, 4, 40, 100
4, 344400, Note_on_c, 4, 40, 0
4, 344640, Note_on_c, 4, 41, 100
4, 344880, Note_on_c, 4, 41, 0
4, 345120, Note_on_c, 4, 40, 100
4, 345360, Note_on_c, 4, 40, 0
4, 368640, Note_on_c, 4, 40, 100
4, 369840, Note_on_c, 4, 40, 0
4, 370080, Note_on_c, 4, 43, 100
4, 371280, Note_on_c, 4, 43, 0
4, 371520, Note_on_c, 4, 42, 100
4, 372720, Note_on_c, 4, 42, 0
4, 372960, Note_on_c, 4, 48, 100
4, 374160, Note_on_c, 4, 48, 0
4, 374400, Note_on_c, 4, 47, 100
4, 375600, Note_on_c, 4, 47, 0
4, 375840, Note_on_c, 4, 50, 100
4, 377040, Note_on_c, 4, 50, 0
4, 377280, Note_on_c, 4, 49, 100
4, 378480, Note_on_c, 4, 49, 0
4, 378720, Note_on_c, 4, 54, 100
4, 379920, Note_on_c, 4, 54, 0
4, 380160, Note_on_c, 4, 42, 100
4, 381360, Note_on_c, 4, 42, 0
4, 381600, Note_on_c, 4, 45, 100
4, 382800, Note_on_c, 4, 45, 0
4, 383040, Note_on_c, 4, 44, 100
4, 384240, Note_on_c, 4, 44, 0
4, 384480, Note_on_c, 4, 50, 100
4, 385680, Note_on_c, 4, 50, 0
4, 385920, Note_on_c, 4, 49, 100
4, 387120, Note_on_c, 4, 49, 0
4, 387360, Note_on_c, 4, 52, 100
4, 388560, Note_on_c, 4, 52, 0
4, 388800, Note_on_c, 4, 51, 100
4, 390000, Note_on_c, 4, 51, 0
4, 390240, Note_on_c, 4, 57, 100
4, 391440, Note_on_c, 4, 57, 0
4, 391680, Note_on_c, 4, 42, 100
4, 395280, Note_on_c, 4, 42, 0
4, 395520, Note_on_c, 4, 45, 100
4, 395760, Note_on_c, 4, 45, 0
4, 396000, Note_on_c, 4, 42, 100
4, 396720, Note_on_c, 4, 42, 0
4, 396960, Note_on_c, 4, 44, 100
4, 397200, Note_on_c, 4, 44, 0
4, 397440, Note_on_c, 4, 42, 100
4, 398160, Note_on_c, 4, 42, 0
4, 398400, Note_on_c, 4, 43, 100
4, 398640, Note_on_c, 4, 43, 0
4, 398880, Note_on_c, 4, 42, 100
4, 399120, Note_on_c, 4, 42, 0
4, 399360, Note_on_c, 4, 42, 100
4, 402960, Note_on_c, 4, 42, 0
4, 403200, Note_on_c, 4, 45, 100
4, 403440, Note_on_c, 4, 45, 0
4, 403680, Note_on_c, 4, 42, 100
4, 404400, Note_on_c, 4, 42, 0
4, 404640, Note_on_c, 4, 44, 100
4, 404880, Note_on_c, 4, 44, 0
4, 405120, Note_on_c, 4, 42, 100
4, 405840, Note_on_c, 4, 42, 0
4, 406080, Note_on_c, 4, 43, 100
4, 406320, Note_on_c, 4, 43, 0
4, 406560, Note_on_c, 4, 42, 100
4, 406800, Note_on_c, 4, 42, 0
4, 407040, Note_on_c, 4, 42, 100
4, 410640, Note_on_c, 4, 42, 0
4, 410880, Note_on_c, 4, 45, 100
4, 411120, Note_on_c, 4, 45, 0
4, 411360, Note_on_c, 4, 42, 100
4, 412080, Note_on_c, 4, 42, 0
4, 412320, Note_on_c, 4, 44, 100
4, 412560, Note_on_c, 4, 44, 0
4, 412800, Note_on_c, 4, 42, 100
4, 413520, Note_on_c, 4, 42, 0
4, 413760, Note_on_c, 4, 43, 100
4, 414000, Note_on_c, 4, 43, 0
4, 414240, Note_on_c, 4, 42, 100
4, 414480, Note_on_c, 4, 42, 0
4, 414720, Note_on_c, 4, 42, 100
4, 418320, Note_on_c, 4, 42, 0
4, 418560, Note_on_c, 4, 45, 100
4, 418800, Note_on_c, 4, 45, 0
4, 419040, Note_on_c, 4, 42, 100
4, 419760, Note_on_c, 4, 42, 0
4, 420000, Note_on_c, 4, 44, 100
4, 420240, Note_on_c, 4, 44, 0
4, 420480, Note_on_c, 4, 42, 100
4, 421200, Note_on_c, 4, 42, 0
4, 421440, Note_on_c, 4, 43, 100
4, 421680, Note_on_c, 4, 43, 0
4, 421920, Note_on_c, 4, 42, 100
4, 422160, Note_on_c, 4, 42, 0
4, 422400, Note_on_c, 4, 40, 100
4, 426000, Note_on_c, 4, 40, 0
4, 426240, Note_on_c, 4, 43, 100
4, 426480, Note_on_c, 4, 43, 0
4, 426720, Note_on_c, 4, 40, 100
4, 427440, Note_on_c, 4, 40, 0
4, 427680, Note_on_c, 4, 42, 100
4, 427920, Note_on_c, 4, 42, 0
4, 428160, Note_on_c, 4, 40, 100
4, 428880, Note_on_c, 4, 40, 0
4, 429120, Note_on_c, 4, 41, 100
4, 429360, Note_on_c, 4, 41, 0
4, 429600, Note_on_c, 4, 40, 100
4, 429840, Note_on_c, 4, 40, 0
4, 430080, Note_on_c, 4, 40, 100
4, 433680, Note_on_c, 4, 40, 0
4, 433920, Note_on_c, 4, 43, 100
4, 434160, Note_on_c, 4, 43, 0
4, 434400, Note_on_c, 4, 40, 100
4, 435120, Note_on_c, 4, 40, 0
4, 435360, Note_on_c, 4, 42, 100
4, 435600, Note_on_c, 4, 42, 0
4, 435840, Note_on_c, 4, 40, 100
4, 436560, Note_on_c, 4, 40, 0
4, 436800, Note_on_c, 4, 41, 100
4, 437040, Note_on_c, 4, 41, 0
4, 437280, Note_on_c, 4, 40, 100
4, 437520, Note_on_c, 4, 40, 0
4, 437760, Note_on_c, 4, 40, 100
4, 441360, Note_on_c, 4, 40, 0
4, 441600, Note_on_c, 4, 43, 100
4, 441840, Note_on_c, 4, 43, 0
4, 442080, Note_on_c, 4, 40, 100
4, 442800, Note_on_c, 4, 40, 0
4, 443040, Note_on_c, 4, 42, 100
4, 443280, Note_on_c, 4, 42, 0
4, 443520, Note_on_c, 4, 40, 100
4, 444240, Note_on_c, 4, 40, 0
4, 444480, Note_on_c, 4, 41, 100
4, 444720, Note_on_c, 4, 41, 0
4, 444960, Note_on_c, 4, 40, 100
4, 445200, Note_on_c, 4, 40, 0
4, 445440, Note_on_c, 4, 40, 100
4, 449040, Note_on_c, 4, 40, 0
4, 449280, Note_on_c, 4, 43, 100
4, 449520, Note_on_c, 4, 43, 0
4, 449760, Note_on_c, 4, 40, 100
4, 450480, Note_on_c, 4, 40, 0
4, 450720, Note_on_c, 4, 42, 100
4, 450960, Note_on_c, 4, 42, 0
4, 451200, Note_on_c, 4, 40, 100
4, 451920, Note_on_c, 4, 40, 0
4, 452160, Note_on_c, 4, 41, 100
4, 452400, Note_on_c, 4, 41, 0
4, 452640, Note_on_c, 4, 40, 100
4, 452880, Note_on_c, 4, 40, 0
4, 476160, Note_on_c, 4, 40, 100
4, 477360, Note_on_c, 4, 40, 0
4, 477600, Note_on_c, 4, 43, 100
4, 478800, Note_on_c, 4, 43, 0
4, 479040, Note_on_c, 4, 42, 100
4, 480240, Note_on_c, 4, 42, 0
4, 480480, Note_on_c, 4, 48, 100
4, 481680, Note_on_c, 4, 48, 0
4, 481920, Note_on_c, 4, 47, 100
4, 483120, Note_on_c, 4, 47, 0
4, 483360, Note_on_c, 4, 50, 100
4, 484560, Note_on_c, 4, 50, 0
4, 484800, Note_on_c, 4, 49, 100
4, 486000, Note_on_c, 4, 49, 0
4, 486240, Note_on_c, 4, 54, 100
4, 487440, Note_on_c, 4, 54, 0
4, 487680, Note_on_c, 4, 42, 100
4, 488880, Note_on_c, 4, 42, 0
4, 489120, Note_on_c, 4, 45, 100
4, 490320, Note_on_c, 4, 45, 0
4, 490560, Note_on_c, 4, 44, 100
4, 491760, Note_on_c, 4, 44, 0
4, 492000, Note_on_c, 4, 50, 100
4, 493200, Note_on_c, 4, 50, 0
4, 493440, Note_on_c, 4, 49, 100
4, 494640, Note_on_c, 4, 49, 0
4, 494880, Note_on_c, 4, 52, 100
4, 496080, Note_on_c, 4, 52, 0
4, 496320, Note_on_c, 4, 51, 100
4, 497520, Note_on_c, 4, 51, 0
4, 497760, Note_on_c, 4, 57, 100
4, 498960, Note_on_c, 4, 57, 0
4, 499200, Note_on_c, 4, 45, 100
4, 515518, Note_on_c, 4, 45, 0
4, 516480, Note_on_c, 4, 48, 100
4, 521280, Note_on_c, 4, 48, 0
4, 522240, Note_on_c, 4, 51, 100
4, 527040, Note_on_c, 4, 51, 0
4, 528000, Note_on_c, 4, 54, 100
4, 532800, Note_on_c, 4, 54, 0
4, 533760, Note_on_c, 4, 50, 100
4, 538560, Note_on_c, 4, 50, 0
4, 539520, Note_on_c, 4, 51, 100
4, 544320, Note_on_c, 4, 51, 0
4, 545280, Note_on_c, 4, 46, 100
4, 550080, Note_on_c, 4, 46, 0
4, 551040, Note_on_c, 4, 41, 100
4, 561600, Note_on_c, 4, 41, 0
4, 562560, Note_on_c, 4, 47, 100
4, 573120, Note_on_c, 4, 47, 0
4, 574080, Note_on_c, 4, 48, 100
4, 578880, Note_on_c, 4, 48, 0
4, 579840, Note_on_c, 4, 51, 100
4, 584640, Note_on_c, 4, 51, 0
4, 585600, Note_on_c, 4, 54, 100
4, 590400, Note_on_c, 4, 54, 0
4, 591360, Note_on_c, 4, 50, 100
4, 596160, Note_on_c, 4, 50, 0
4, 597120, Note_on_c, 4, 51, 100
4, 601920, Note_on_c, 4, 51, 0
4, 602880, Note_on_c, 4, 46, 100
4, 607680, Note_on_c, 4, 46, 0
4, 608640, Note_on_c, 4, 41, 100
4, 619200, Note_on_c, 4, 41, 0
4, 620160, Note_on_c, 4, 47, 100
4, 628080, Note_on_c, 4, 47, 0
4, 628800, Note_on_c, 4, 54, 100
4, 629040, Note_on_c, 4, 54, 0
4, 630720, Note_on_c, 4, 42, 100
4, 630960, Note_on_c, 4, 42, 0
4, 631680, Note_on_c, 4, 45, 100
4, 632160, Note_on_c, 4, 45, 0
4, 633600, Note_on_c, 4, 42, 100
4, 634080, Note_on_c, 4, 42, 0
4, 634560, Note_on_c, 4, 43, 100
4, 635040, Note_on_c, 4, 43, 0
4, 636480, Note_on_c, 4, 42, 100
4, 636960, Note_on_c, 4, 42, 0
4, 637440, Note_on_c, 4, 43, 100
4, 637920, Note_on_c, 4, 43, 0
4, 639360, Note_on_c, 4, 42, 100
4, 639840, Note_on_c, 4, 42, 0
4, 640320, Note_on_c, 4, 47, 100
4, 640800, Note_on_c, 4, 47, 0
4, 641280, Note_on_c, 4, 50, 100
4, 641760, Note_on_c, 4, 50, 0
4, 642240, Note_on_c, 4, 49, 100
4, 642720, Note_on_c, 4, 49, 0
4, 643200, Note_on_c, 4, 45, 100
4, 643680, Note_on_c, 4, 45, 0
4, 645120, Note_on_c, 4, 42, 100
4, 645600, Note_on_c, 4, 42, 0
4, 646080, Note_on_c, 4, 43, 100
4, 646560, Note_on_c, 4, 43, 0
4, 648000, Note_on_c, 4, 42, 100
4, 648480, Note_on_c, 4, 42, 0
4, 648960, Note_on_c, 4, 43, 100
4, 649440, Note_on_c, 4, 43, 0
4, 650880, Note_on_c, 4, 42, 100
4, 651360, Note_on_c, 4, 42, 0
4, 651840, Note_on_c, 4, 47, 100
4, 652320, Note_on_c, 4, 47, 0
4, 652800, Note_on_c, 4, 50, 100
4, 653280, Note_on_c, 4, 50, 0
4, 653760, Note_on_c, 4, 49, 100
4, 654240, Note_on_c, 4, 49, 0
4, 654720, Note_on_c, 4, 45, 100
4, 655200, Note_on_c, 4, 45, 0
4, 656640, Note_on_c, 4, 42, 100
4, 657120, Note_on_c, 4, 42, 0
4, 657600, Note_on_c, 4, 43, 100
4, 658080, Note_on_c, 4, 43, 0
4, 659520, Note_on_c, 4, 42, 100
4, 660000, Note_on_c, 4, 42, 0
4, 660480, Note_on_c, 4, 43, 100
4, 660960, Note_on_c, 4, 43, 0
4, 662400, Note_on_c, 4, 42, 100
4, 662880, Note_on_c, 4, 42, 0
4, 663360, Note_on_c, 4, 47, 100
4, 663840, Note_on_c, 4, 47, 0
4, 664320, Note_on_c, 4, 50, 100
4, 664800, Note_on_c, 4, 50, 0
4, 665280, Note_on_c, 4, 49, 100
4, 665760, Note_on_c, 4, 49, 0
4, 666240, Note_on_c, 4, 45, 100
4, 666720, Note_on_c, 4, 45, 0
4, 668160, Note_on_c, 4, 42, 100
4, 668640, Note_on_c, 4, 42, 0
4, 669120, Note_on_c, 4, 43, 100
4, 669600, Note_on_c, 4, 43, 0
4, 671040, Note_on_c, 4, 42, 100
4, 671520, Note_on_c, 4, 42, 0
4, 672000, Note_on_c, 4, 43, 100
4, 672480, Note_on_c, 4, 43, 0
4, 673920, Note_on_c, 4, 42, 100
4, 674400, Note_on_c, 4, 42, 0
4, 674880, Note_on_c, 4, 47, 100
4, 675360, Note_on_c, 4, 47, 0
4, 675840, Note_on_c, 4, 50, 100
4, 676320, Note_on_c, 4, 50, 0
4, 676800, Note_on_c, 4, 49, 100
4, 677280, Note_on_c, 4, 49, 0
4, 677760, Note_on_c, 4, 48, 100
4, 682560, Note_on_c, 4, 48, 0
4, 683520, Note_on_c, 4, 51, 100
4, 688320, Note_on_c, 4, 51, 0
4, 689280, Note_on_c, 4, 54, 100
4, 694080, Note_on_c, 4, 54, 0
4, 695040, Note_on_c, 4, 50, 100
4, 699840, Note_on_c, 4, 50, 0
4, 700800, Note_on_c, 4, 51, 100
4, 705600, Note_on_c, 4, 51, 0
4, 706560, Note_on_c, 4, 46, 100
4, 711360, Note_on_c, 4, 46, 0
4, 712320, Note_on_c, 4, 41, 100
4, 722880, Note_on_c, 4, 41, 0
4, 723840, Note_on_c, 4, 47, 100
4, 734400, Note_on_c, 4, 47, 0
4, 735360, Note_on_c, 4, 40, 100
4, 736560, Note_on_c, 4, 40, 0
4, 736800, Note_on_c, 4, 53, 100
4, 738000, Note_on_c, 4, 53, 0
4, 738240, Note_on_c, 4, 48, 100
4, 738960, Note_on_c, 4, 48, 0
4, 739200, Note_on_c, 4, 43, 100
4, 739920, Note_on_c, 4, 43, 0
4, 740160, Note_on_c, 4, 50, 100
4, 740880, Note_on_c, 4, 50, 0
4, 741120, Note_on_c, 4, 40, 100
4, 742320, Note_on_c, 4, 40, 0
4, 742560, Note_on_c, 4, 53, 100
4, 743760, Note_on_c, 4, 53, 0
4, 744000, Note_on_c, 4, 48, 100
4, 744720, Note_on_c, 4, 48, 0
4, 744960, Note_on_c, 4, 43, 100
4, 745680, Note_on_c, 4, 43, 0
4, 745920, Note_on_c, 4, 50, 100
4, 746640, Note_on_c, 4, 50, 0
4, 746880, Note_on_c, 4, 40, 100
4, 748080, Note_on_c, 4, 40, 0
4, 748320, Note_on_c, 4, 53, 100
4, 749520, Note_on_c, 4, 53, 0
4, 749760, Note_on_c, 4, 48, 100
4, 750480, Note_on_c, 4, 48, 0
4, 750720, Note_on_c, 4, 43, 100
4, 751440, Note_on_c, 4, 43, 0
4, 751680, Note_on_c, 4, 50, 100
4, 752400, Note_on_c, 4, 50, 0
4, 752640, Note_on_c, 4, 40, 100
4, 753840, Note_on_c, 4, 40, 0
4, 754080, Note_on_c, 4, 53, 100
4, 755280, Note_on_c, 4, 53, 0
4, 755520, Note_on_c, 4, 48, 100
4, 756240, Note_on_c, 4, 48, 0
4, 756480, Note_on_c, 4, 43, 100
4, 757200, Note_on_c, 4, 43, 0
4, 757440, Note_on_c, 4, 50, 100
4, 758160, Note_on_c, 4, 50, 0
4, 758400, Note_on_c, 4, 40, 100
4, 759600, Note_on_c, 4, 40, 0
4, 759840, Note_on_c, 4, 53, 100
4, 761040, Note_on_c, 4, 53, 0
4, 761280, Note_on_c, 4, 48, 100
4, 762000, Note_on_c, 4, 48, 0
4, 762240, Note_on_c, 4, 43, 100
4, 762960, Note_on_c, 4, 43, 0
4, 763200, Note_on_c, 4, 50, 100
4, 763920, Note_on_c, 4, 50, 0
4, 764160, Note_on_c, 4, 40, 100
4, 765360, Note_on_c, 4, 40, 0
4, 765600, Note_on_c, 4, 53, 100
4, 766800, Note_on_c, 4, 53, 0
4, 767040, Note_on_c, 4, 48, 100
4, 767760, Note_on_c, 4, 48, 0
4, 768000, Note_on_c, 4, 43, 100
4, 768720, Note_on_c, 4, 43, 0
4, 768960, Note_on_c, 4, 50, 100
4, 769680, Note_on_c, 4, 50, 0
4, 769920, Note_on_c, 4, 40, 100
4, 771120, Note_on_c, 4, 40, 0
4, 771360, Note_on_c, 4, 53, 100
4, 772560, Note_on_c, 4, 53, 0
4, 772800, Note_on_c, 4, 48, 100
4, 773520, Note_on_c, 4, 48, 0
4, 773760, Note_on_c, 4, 43, 100
4, 774480, Note_on_c, 4, 43, 0
4, 774720, Note_on_c, 4, 50, 100
4, 775440, Note_on_c, 4, 50, 0
4, 775680, Note_on_c, 4, 40, 100
4, 776880, Note_on_c, 4, 40, 0
4, 777120, Note_on_c, 4, 53, 100
4, 778320, Note_on_c, 4, 53, 0
4, 778560, Note_on_c, 4, 48, 100
4, 779280, Note_on_c, 4, 48, 0
4, 779520, Note_on_c, 4, 43, 100
4, 780240, Note_on_c, 4, 43, 0
4, 780480, Note_on_c, 4, 50, 100
4, 781200, Note_on_c, 4, 50, 0
4, 781440, Note_on_c, 4, 45, 100
4, 782640, Note_on_c, 4, 45, 0
4, 782880, Note_on_c, 4, 53, 100
4, 784080, Note_on_c, 4, 53, 0
4, 784320, Note_on_c, 4, 48, 100
4, 785040, Note_on_c, 4, 48, 0
4, 785280, Note_on_c, 4, 43, 100
4, 786000, Note_on_c, 4, 43, 0
4, 786240, Note_on_c, 4, 50, 100
4, 786960, Note_on_c, 4, 50, 0
4, 787200, Note_on_c, 4, 46, 100
4, 788400, Note_on_c, 4, 46, 0
4, 788640, Note_on_c, 4, 53, 100
4, 789840, Note_on_c, 4, 53, 0
4, 790080, Note_on_c, 4, 48, 100
4, 790800, Note_on_c, 4, 48, 0
4, 791040, Note_on_c, 4, 43, 100
4, 791760, Note_on_c, 4, 43, 0
4, 792000, Note_on_c, 4, 50, 100
4, 792720, Note_on_c, 4, 50, 0
4, 792960, Note_on_c, 4, 42, 100
4, 794160, Note_on_c, 4, 42, 0
4, 794400, Note_on_c, 4, 53, 100
4, 795600, Note_on_c, 4, 53, 0
4, 795840, Note_on_c, 4, 48, 100
4, 796560, Note_on_c, 4, 48, 0
4, 796800, Note_on_c, 4, 43, 100
4, 797520, Note_on_c, 4, 43, 0
4, 797760, Note_on_c, 4, 50, 100
4, 798480, Note_on_c, 4, 50, 0
4, 798720, Note_on_c, 4, 42, 100
4, 799920, Note_on_c, 4, 42, 0
4, 800160, Note_on_c, 4, 53, 100
4, 801360, Note_on_c, 4, 53, 0
4, 801600, Note_on_c, 4, 48, 100
4, 802320, Note_on_c, 4, 48, 0
4, 802560, Note_on_c, 4, 43, 100
4, 803280, Note_on_c, 4, 43, 0
4, 803520, Note_on_c, 4, 50, 100
4, 804240, Note_on_c, 4, 50, 0
4, 804480, Note_on_c, 4, 40, 100
4, 805680, Note_on_c, 4, 40, 0
4, 805920, Note_on_c, 4, 53, 100
4, 807120, Note_on_c, 4, 53, 0
4, 807360, Note_on_c, 4, 48, 100
4, 808080, Note_on_c, 4, 48, 0
4, 808320, Note_on_c, 4, 43, 100
4, 809040, Note_on_c, 4, 43, 0
4, 809280, Note_on_c, 4, 50, 100
4, 810000, Note_on_c, 4, 50, 0
4, 810240, Note_on_c, 4, 40, 100
4, 811440, Note_on_c, 4, 40, 0
4, 811680, Note_on_c, 4, 53, 100
4, 812880, Note_on_c, 4, 53, 0
4, 813120, Note_on_c, 4, 48, 100
4, 813840, Note_on_c, 4, 48, 0
4, 814080, Note_on_c, 4, 43, 100
4, 814800, Note_on_c, 4, 43, 0
4, 815040, Note_on_c, 4, 50, 100
4, 815760, Note_on_c, 4, 50, 0
4, 816000, Note_on_c, 4, 40, 100
4, 817200, Note_on_c, 4, 40, 0
4, 817440, Note_on_c, 4, 53, 100
4, 818640, Note_on_c, 4, 53, 0
4, 818880, Note_on_c, 4, 48, 100
4, 819600, Note_on_c, 4, 48, 0
4, 819840, Note_on_c, 4, 43, 100
4, 820560, Note_on_c, 4, 43, 0
4, 820800, Note_on_c, 4, 50, 100
4, 821520, Note_on_c, 4, 50, 0
4, 821760, Note_on_c, 4, 40, 100
4, 822960, Note_on_c, 4, 40, 0
4, 823200, Note_on_c, 4, 53, 100
4, 824400, Note_on_c, 4, 53, 0
4, 824640, Note_on_c, 4, 48, 100
4, 825360, Note_on_c, 4, 48, 0
4, 825600, Note_on_c, 4, 43, 100
4, 826320, Note_on_c, 4, 43, 0
4, 826560, Note_on_c, 4, 50, 100
4, 827280, Note_on_c, 4, 50, 0
4, 827520, Note_on_c, 4, 45, 100
4, 828720, Note_on_c, 4, 45, 0
4, 828960, Note_on_c, 4, 53, 100
4, 830160, Note_on_c, 4, 53, 0
4, 830400, Note_on_c, 4, 48, 100
4, 831120, Note_on_c, 4, 48, 0
4, 831360, Note_on_c, 4, 43, 100
4, 832080, Note_on_c, 4, 43, 0
4, 832320, Note_on_c, 4, 50, 100
4, 833040, Note_on_c, 4, 50, 0
4, 833280, Note_on_c, 4, 46, 100
4, 834480, Note_on_c, 4, 46, 0
4, 834720, Note_on_c, 4, 53, 100
4, 835920, Note_on_c, 4, 53, 0
4, 836160, Note_on_c, 4, 48, 100
4, 836880, Note_on_c, 4, 48, 0
4, 837120, Note_on_c, 4, 43, 100
4, 837840, Note_on_c, 4, 43, 0
4, 838080, Note_on_c, 4, 50, 100
4, 838800, Note_on_c, 4, 50, 0
4, 839040, Note_on_c, 4, 42, 100
4, 840240, Note_on_c, 4, 42, 0
4, 840480, Note_on_c, 4, 53, 100
4, 841680, Note_on_c, 4, 53, 0
4, 841920, Note_on_c, 4, 48, 100
4, 842640, Note_on_c, 4, 48, 0
4, 842880, Note_on_c, 4, 43, 100
4, 843600, Note_on_c, 4, 43, 0
4, 843840, Note_on_c, 4, 50, 100
4, 844560, Note_on_c, 4, 50, 0
4, 844800, Note_on_c, 4, 42, 100
4, 846000, Note_on_c, 4, 42, 0
4, 846240, Note_on_c, 4, 53, 100
4, 847440, Note_on_c, 4, 53, 0
4, 847680, Note_on_c, 4, 48, 100
4, 848400, Note_on_c, 4, 48, 0
4, 848640, Note_on_c, 4, 43, 100
4, 849360, Note_on_c, 4, 43, 0
4, 849600, Note_on_c, 4, 50, 100
4, 850320, Note_on_c, 4, 50, 0
4, 850560, Note_on_c, 4, 50, 100
4, 873120, Note_on_c, 4, 50, 0
4, 873600, Note_on_c, 4, 43, 100
4, 878880, Note_on_c, 4, 43, 0
4, 879360, Note_on_c, 4, 44, 100
4, 884640, Note_on_c, 4, 44, 0
4, 885120, Note_on_c, 4, 40, 100
4, 896160, Note_on_c, 4, 40, 0
4, 896640, Note_on_c, 4, 50, 100
4, 952318, Note_on_c, 4, 50, 0
4, 952318, End_track
5, 0, Start_track
5, 0, Title_t, "TRIGGERS"
5, 11520, Note_on_c, 0, 68, 100
5, 11760, Note_on_c, 0, 68, 0
5, 12960, Note_on_c, 0, 70, 100
5, 13200, Note_on_c, 0, 70, 0
5, 15360, Note_on_c, 0, 69, 100
5, 15600, Note_on_c, 0, 69, 0
5, 17280, Note_on_c, 0, 68, 100
5, 17520, Note_on_c, 0, 68, 0
5, 18720, Note_on_c, 0, 70, 100
5, 18960, Note_on_c, 0, 70, 0
5, 21120, Note_on_c, 0, 69, 100
5, 21360, Note_on_c, 0, 69, 0
5, 23040, Note_on_c, 0, 68, 100
5, 23280, Note_on_c, 0, 68, 0
5, 24480, Note_on_c, 0, 70, 100
5, 24720, Note_on_c, 0, 70, 0
5, 26880, Note_on_c, 0, 69, 100
5, 27120, Note_on_c, 0, 69, 0
5, 28800, Note_on_c, 0, 68, 100
5, 29040, Note_on_c, 0, 68, 0
5, 30240, Note_on_c, 0, 70, 100
5, 30480, Note_on_c, 0, 70, 0
5, 32640, Note_on_c, 0, 69, 100
5, 32880, Note_on_c, 0, 69, 0
5, 34560, Note_on_c, 1, 61, 100
5, 34560, Note_on_c, 0, 68, 100
5, 34800, Note_on_c, 1, 61, 0
5, 34800, Note_on_c, 0, 68, 0
5, 35040, Note_on_c, 1, 60, 100
5, 35040, Note_on_c, 1, 61, 100
5, 35280, Note_on_c, 1, 60, 0
5, 35280, Note_on_c, 1, 61, 0
5, 35520, Note_on_c, 1, 60, 100
5, 35520, Note_on_c, 1, 61, 100
5, 35760, Note_on_c, 1, 60, 0
5, 35760, Note_on_c, 1, 61, 0
5, 36000, Note_on_c, 1, 61, 100
5, 36000, Note_on_c, 0, 70, 100
5, 36240, Note_on_c, 1, 61, 0
5, 36240, Note_on_c, 0, 70, 0
5, 36480, Note_on_c, 1, 60, 100
5, 36480, Note_on_c, 1, 61, 100
5, 36720, Note_on_c, 1, 60, 0
5, 36720, Note_on_c, 1, 61, 0
5, 36960, Note_on_c, 1, 60, 100
5, 36960, Note_on_c, 1, 61, 100
5, 37200, Note_on_c, 1, 60, 0
5, 37200, Note_on_c, 1, 61, 0
5, 37440, Note_on_c, 1, 61, 100
5, 37680, Note_on_c, 1, 61, 0
5, 37920, Note_on_c, 1, 60, 100
5, 37920, Note_on_c, 1, 61, 100
5, 38160, Note_on_c, 1, 60, 0
5, 38160, Note_on_c, 1, 61, 0
5, 38400, Note_on_c, 1, 61, 100
5, 38400, Note_on_c, 0, 69, 100
5, 38640, Note_on_c, 1, 61, 0
5, 38640, Note_on_c, 0, 69, 0
5, 38880, Note_on_c, 1, 60, 100
5, 38880, Note_on_c, 1, 61, 100
5, 39120, Note_on_c, 1, 60, 0
5, 39120, Note_on_c, 1, 61, 0
5, 39360, Note_on_c, 1, 61, 100
5, 39600, Note_on_c, 1, 61, 0
5, 39840, Note_on_c, 1, 60, 100
5, 39840, Note_on_c, 1, 61, 100
5, 40080, Note_on_c, 1, 60, 0
5, 40080, Note_on_c, 1, 61, 0
5, 40320, Note_on_c, 1, 61, 100
5, 40320, Note_on_c, 0, 68, 100
5, 40560, Note_on_c, 1, 61, 0
5, 40560, Note_on_c, 0, 68, 0
5, 40800, Note_on_c, 1, 60, 100
5, 40800, Note_on_c, 1, 61, 100
5, 41040, Note_on_c, 1, 60, 0
5, 41040, Note_on_c, 1, 61, 0
5, 41280, Note_on_c, 1, 60, 100
5, 41280, Note_on_c, 1, 61, 100
5, 41520, Note_on_c, 1, 60, 0
5, 41520, Note_on_c, 1, 61, 0
5, 41760, Note_on_c, 1, 61, 100
5, 41760, Note_on_c, 0, 70, 100
5, 42000, Note_on_c, 1, 61, 0
5, 42000, Note_on_c, 0, 70, 0
5, 42240, Note_on_c, 1, 60, 100
5, 42240, Note_on_c, 1, 61, 100
5, 42480, Note_on_c, 1, 60, 0
5, 42480, Note_on_c, 1, 61, 0
5, 42720, Note_on_c, 1, 60, 100
5, 42720, Note_on_c, 1, 61, 100
5, 42960, Note_on_c, 1, 60, 0
5, 42960, Note_on_c, 1, 61, 0
5, 43200, Note_on_c, 1, 61, 100
5, 43440, Note_on_c, 1, 61, 0
5, 43680, Note_on_c, 1, 60, 100
5, 43680, Note_on_c, 1, 61, 100
5, 43920, Note_on_c, 1, 60, 0
5, 43920, Note_on_c, 1, 61, 0
5, 44160, Note_on_c, 1, 61, 100
5, 44160, Note_on_c, 0, 69, 100
5, 44400, Note_on_c, 1, 61, 0
5, 44400, Note_on_c, 0, 69, 0
5, 44640, Note_on_c, 1, 60, 100
5, 44640, Note_on_c, 1, 61, 100
5, 44880, Note_on_c, 1, 60, 0
5, 44880, Note_on_c, 1, 61, 0
5, 45120, Note_on_c, 1, 61, 100
5, 45360, Note_on_c, 1, 61, 0
5, 45600, Note_on_c, 1, 60, 100
5, 45600, Note_on_c, 1, 61, 100
5, 45840, Note_on_c, 1, 60, 0
5, 45840, Note_on_c, 1, 61, 0
5, 46080, Note_on_c, 1, 61, 100
5, 46080, Note_on_c, 0, 68, 100
5, 46320, Note_on_c, 1, 61, 0
5, 46320, Note_on_c, 0, 68, 0
5, 46560, Note_on_c, 1, 60, 100
5, 46560, Note_on_c, 1, 61, 100
5, 46800, Note_on_c, 1, 60, 0
5, 46800, Note_on_c, 1, 61, 0
5, 47040, Note_on_c, 1, 60, 100
5, 47040, Note_on_c, 1, 61, 100
5, 47280, Note_on_c, 1, 60, 0
5, 47280, Note_on_c, 1, 61, 0
5, 47520, Note_on_c, 1, 61, 100
5, 47520, Note_on_c, 0, 70, 100
5, 47760, Note_on_c, 1, 61, 0
5, 47760, Note_on_c, 0, 70, 0
5, 48000, Note_on_c, 1, 60, 100
5, 48000, Note_on_c, 1, 61, 100
5, 48240, Note_on_c, 1, 60, 0
5, 48240, Note_on_c, 1, 61, 0
5, 48480, Note_on_c, 1, 60, 100
5, 48480, Note_on_c, 1, 61, 100
5, 48720, Note_on_c, 1, 60, 0
5, 48720, Note_on_c, 1, 61, 0
5, 48960, Note_on_c, 1, 61, 100
5, 49200, Note_on_c, 1, 61, 0
5, 49440, Note_on_c, 1, 60, 100
5, 49440, Note_on_c, 1, 61, 100
5, 49680, Note_on_c, 1, 60, 0
5, 49680, Note_on_c, 1, 61, 0
5, 49920, Note_on_c, 1, 61, 100
5, 49920, Note_on_c, 0, 69, 100
5, 50160, Note_on_c, 1, 61, 0
5, 50160, Note_on_c, 0, 69, 0
5, 50400, Note_on_c, 1, 60, 100
5, 50400, Note_on_c, 1, 61, 100
5, 50640, Note_on_c, 1, 60, 0
5, 50640, Note_on_c, 1, 61, 0
5, 50880, Note_on_c, 1, 61, 100
5, 51120, Note_on_c, 1, 61, 0
5, 51360, Note_on_c, 1, 60, 100
5, 51360, Note_on_c, 1, 61, 100
5, 51600, Note_on_c, 1, 60, 0
5, 51600, Note_on_c, 1, 61, 0
5, 51840, Note_on_c, 1, 61, 100
5, 51840, Note_on_c, 0, 68, 100
5, 52080, Note_on_c, 1, 61, 0
5, 52080, Note_on_c, 0, 68, 0
5, 52320, Note_on_c, 1, 60, 100
5, 52320, Note_on_c, 1, 61, 100
5, 52560, Note_on_c, 1, 60, 0
5, 52560, Note_on_c, 1, 61, 0
5, 52800, Note_on_c, 1, 60, 100
5, 52800, Note_on_c, 1, 61, 100
5, 53040, Note_on_c, 1, 60, 0
5, 53040, Note_on_c, 1, 61, 0
5, 53280, Note_on_c, 1, 61, 100
5, 53280, Note_on_c, 0, 70, 100
5, 53520, Note_on_c, 1, 61, 0
5, 53520, Note_on_c, 0, 70, 0
5, 53760, Note_on_c, 1, 60, 100
5, 53760, Note_on_c, 1, 61, 100
5, 54000, Note_on_c, 1, 60, 0
5, 54000, Note_on_c, 1, 61, 0
5, 54240, Note_on_c, 1, 60, 100
5, 54240, Note_on_c, 1, 61, 100
5, 54480, Note_on_c, 1, 60, 0
5, 54480, Note_on_c, 1, 61, 0
5, 54720, Note_on_c, 1, 61, 100
5, 54960, Note_on_c, 1, 61, 0
5, 55200, Note_on_c, 1, 60, 100
5, 55200, Note_on_c, 1, 61, 100
5, 55440, Note_on_c, 1, 60, 0
5, 55440, Note_on_c, 1, 61, 0
5, 55680, Note_on_c, 1, 60, 100
5, 55680, Note_on_c, 1, 61, 100
5, 55680, Note_on_c, 0, 69, 100
5, 55920, Note_on_c, 1, 60, 0
5, 55920, Note_on_c, 1, 61, 0
5, 55920, Note_on_c, 0, 69, 0
5, 56160, Note_on_c, 1, 60, 100
5, 56160, Note_on_c, 1, 61, 100
5, 56400, Note_on_c, 1, 60, 0
5, 56400, Note_on_c, 1, 61, 0
5, 56640, Note_on_c, 1, 61, 100
5, 56880, Note_on_c, 1, 61, 0
5, 57120, Note_on_c, 1, 61, 100
5, 57360, Note_on_c, 1, 61, 0
5, 57600, Note_on_c, 1, 60, 100
5, 57600, Note_on_c, 1, 61, 100
5, 57600, Note_on_c, 0, 68, 100
5, 57840, Note_on_c, 1, 60, 0
5, 57840, Note_on_c, 1, 61, 0
5, 57840, Note_on_c, 0, 68, 0
5, 58560, Note_on_c, 1, 61, 100
5, 58800, Note_on_c, 1, 61, 0
5, 59040, Note_on_c, 1, 60, 100
5, 59040, Note_on_c, 1, 61, 100
5, 59040, Note_on_c, 0, 70, 100
5, 59280, Note_on_c, 1, 60, 0
5, 59280, Note_on_c, 1, 61, 0
5, 59280, Note_on_c, 0, 70, 0
5, 60000, Note_on_c, 1, 60, 100
5, 60240, Note_on_c, 1, 60, 0
5, 60480, Note_on_c, 1, 61, 100
5, 60720, Note_on_c, 1, 61, 0
5, 61440, Note_on_c, 1, 60, 100
5, 61440, Note_on_c, 1, 61, 100
5, 61440, Note_on_c, 0, 69, 100
5, 61680, Note_on_c, 1, 60, 0
5, 61680, Note_on_c, 1, 61, 0
5, 61680, Note_on_c, 0, 69, 0
5, 61920, Note_on_c, 1, 60, 100
5, 62160, Note_on_c, 1, 60, 0
5, 62400, Note_on_c, 1, 61, 100
5, 62640, Note_on_c, 1, 61, 0
5, 63360, Note_on_c, 1, 60, 100
5, 63360, Note_on_c, 1, 61, 100
5, 63360, Note_on_c, 0, 68, 100
5, 63600, Note_on_c, 1, 60, 0
5, 63600, Note_on_c, 1, 61, 0
5, 63600, Note_on_c, 0, 68, 0
5, 64320, Note_on_c, 1, 61, 100
5, 64560, Note_on_c, 1, 61, 0
5, 64800, Note_on_c, 1, 60, 100
5, 64800, Note_on_c, 1, 61, 100
5, 64800, Note_on_c, 0, 70, 100
5, 65040, Note_on_c, 1, 60, 0
5, 65040, Note_on_c, 1, 61, 0
5, 65040, Note_on_c, 0, 70, 0
5, 65760, Note_on_c, 1, 60, 100
5, 66000, Note_on_c, 1, 60, 0
5, 66240, Note_on_c, 1, 61, 100
5, 66480, Note_on_c, 1, 61, 0
5, 67200, Note_on_c, 1, 60, 100
5, 67200, Note_on_c, 1, 61, 100
5, 67200, Note_on_c, 0, 69, 100
5, 67440, Note_on_c, 1, 60, 0
5, 67440, Note_on_c, 1, 61, 0
5, 67440, Note_on_c, 0, 69, 0
5, 67680, Note_on_c, 1, 60, 100
5, 67920, Note_on_c, 1, 60, 0
5, 68160, Note_on_c, 1, 61, 100
5, 68400, Note_on_c, 1, 61, 0
5, 69120, Note_on_c, 1, 60, 100
5, 69120, Note_on_c, 1, 61, 100
5, 69120, Note_on_c, 0, 68, 100
5, 69360, Note_on_c, 1, 60, 0
5, 69360, Note_on_c, 1, 61, 0
5, 69360, Note_on_c, 0, 68, 0
5, 70080, Note_on_c, 1, 61, 100
5, 70320, Note_on_c, 1, 61, 0
5, 70560, Note_on_c, 1, 60, 100
5, 70560, Note_on_c, 1, 61, 100
5, 70560, Note_on_c, 0, 70, 100
5, 70800, Note_on_c, 1, 60, 0
5, 70800, Note_on_c, 1, 61, 0
5, 70800, Note_on_c, 0, 70, 0
5, 71520, Note_on_c, 1, 60, 100
5, 71760, Note_on_c, 1, 60, 0
5, 72000, Note_on_c, 1, 61, 100
5, 72240, Note_on_c, 1, 61, 0
5, 72480, Note_on_c, 1, 60, 100
5, 72720, Note_on_c, 1, 60, 0
5, 72960, Note_on_c, 1, 60, 100
5, 72960, Note_on_c, 1, 61, 100
5, 72960, Note_on_c, 0, 69, 100
5, 73200, Note_on_c, 1, 60, 0
5, 73200, Note_on_c, 1, 61, 0
5, 73200, Note_on_c, 0, 69, 0
5, 73920, Note_on_c, 1, 61, 100
5, 74160, Note_on_c, 1, 61, 0
5, 74880, Note_on_c, 1, 60, 100
5, 74880, Note_on_c, 1, 61, 100
5, 74880, Note_on_c, 0, 68, 100
5, 75120, Note_on_c, 1, 60, 0
5, 75120, Note_on_c, 1, 61, 0
5, 75120, Note_on_c, 0, 68, 0
5, 75840, Note_on_c, 1, 61, 100
5, 76080, Note_on_c, 1, 61, 0
5, 76320, Note_on_c, 1, 60, 100
5, 76320, Note_on_c, 1, 61, 100
5, 76320, Note_on_c, 0, 70, 100
5, 76560, Note_on_c, 1, 60, 0
5, 76560, Note_on_c, 1, 61, 0
5, 76560, Note_on_c, 0, 70, 0
5, 77280, Note_on_c, 1, 60, 100
5, 77520, Note_on_c, 1, 60, 0
5, 77760, Note_on_c, 1, 61, 100
5, 78000, Note_on_c, 1, 61, 0
5, 78720, Note_on_c, 1, 60, 100
5, 78720, Note_on_c, 1, 61, 100
5, 78720, Note_on_c, 0, 69, 100
5, 78960, Note_on_c, 1, 60, 0
5, 78960, Note_on_c, 1, 61, 0
5, 78960, Note_on_c, 0, 69, 0
5, 79200, Note_on_c, 1, 60, 100
5, 79440, Note_on_c, 1, 60, 0
5, 79680, Note_on_c, 1, 61, 100
5, 79920, Note_on_c, 1, 61, 0
5, 80640, Note_on_c, 1, 60, 100
5, 80640, Note_on_c, 1, 61, 100
5, 80640, Note_on_c, 0, 68, 100
5, 80880, Note_on_c, 1, 60, 0
5, 80880, Note_on_c, 1, 61, 0
5, 81120, Note_on_c, 1, 61, 100
5, 81360, Note_on_c, 1, 61, 0
5, 81600, Note_on_c, 1, 61, 100
5, 81840, Note_on_c, 1, 61, 0
5, 82080, Note_on_c, 1, 61, 100
5, 82320, Note_on_c, 1, 61, 0
5, 82560, Note_on_c, 1, 60, 100
5, 82560, Note_on_c, 1, 61, 100
5, 82800, Note_on_c, 1, 60, 0
5, 82800, Note_on_c, 1, 61, 0
5, 83040, Note_on_c, 1, 60, 100
5, 83040, Note_on_c, 1, 61, 100
5, 83280, Note_on_c, 1, 60, 0
5, 83280, Note_on_c, 1, 61, 0
5, 83520, Note_on_c, 0, 68, 0
5, 83520, Note_on_c, 1, 61, 100
5, 83760, Note_on_c, 1, 61, 0
5, 84000, Note_on_c, 1, 61, 100
5, 84240, Note_on_c, 1, 61, 0
5, 84480, Note_on_c, 1, 60, 100
5, 84480, Note_on_c, 1, 61, 100
5, 84480, Note_on_c, 0, 70, 100
5, 84720, Note_on_c, 1, 60, 0
5, 84720, Note_on_c, 1, 61, 0
5, 84720, Note_on_c, 0, 70, 0
5, 84960, Note_on_c, 1, 61, 100
5, 85200, Note_on_c, 1, 61, 0
5, 85440, Note_on_c, 1, 61, 100
5, 85680, Note_on_c, 1, 61, 0
5, 85920, Note_on_c, 1, 60, 100
5, 85920, Note_on_c, 1, 61, 100
5, 85920, Note_on_c, 0, 69, 100
5, 86160, Note_on_c, 1, 60, 0
5, 86160, Note_on_c, 1, 61, 0
5, 86160, Note_on_c, 0, 69, 0
5, 86400, Note_on_c, 1, 61, 100
5, 86640, Note_on_c, 1, 61, 0
5, 86880, Note_on_c, 1, 60, 100
5, 86880, Note_on_c, 1, 61, 100
5, 87120, Note_on_c, 1, 60, 0
5, 87120, Note_on_c, 1, 61, 0
5, 87360, Note_on_c, 1, 61, 100
5, 87600, Note_on_c, 1, 61, 0
5, 87840, Note_on_c, 1, 61, 100
5, 88080, Note_on_c, 1, 61, 0
5, 88320, Note_on_c, 1, 60, 100
5, 88320, Note_on_c, 1, 61, 100
5, 88320, Note_on_c, 0, 68, 100
5, 88560, Note_on_c, 1, 60, 0
5, 88560, Note_on_c, 1, 61, 0
5, 88800, Note_on_c, 1, 60, 100
5, 88800, Note_on_c, 1, 61, 100
5, 89040, Note_on_c, 1, 60, 0
5, 89040, Note_on_c, 1, 61, 0
5, 89280, Note_on_c, 1, 61, 100
5, 89520, Note_on_c, 1, 61, 0
5, 89760, Note_on_c, 1, 61, 100
5, 90000, Note_on_c, 1, 61, 0
5, 90240, Note_on_c, 1, 60, 100
5, 90240, Note_on_c, 1, 61, 100
5, 90480, Note_on_c, 1, 60, 0
5, 90480, Note_on_c, 1, 61, 0
5, 90720, Note_on_c, 1, 60, 100
5, 90720, Note_on_c, 1, 61, 100
5, 90960, Note_on_c, 1, 60, 0
5, 90960, Note_on_c, 1, 61, 0
5, 91200, Note_on_c, 0, 68, 0
5, 91200, Note_on_c, 1, 61, 100
5, 91440, Note_on_c, 1, 61, 0
5, 91680, Note_on_c, 1, 61, 100
5, 91920, Note_on_c, 1, 61, 0
5, 92160, Note_on_c, 1, 60, 100
5, 92160, Note_on_c, 1, 61, 100
5, 92160, Note_on_c, 0, 70, 100
5, 92400, Note_on_c, 1, 60, 0
5, 92400, Note_on_c, 1, 61, 0
5, 92400, Note_on_c, 0, 70, 0
5, 92640, Note_on_c, 1, 61, 100
5, 92880, Note_on_c, 1, 61, 0
5, 93120, Note_on_c, 1, 61, 100
5, 93360, Note_on_c, 1, 61, 0
5, 93600, Note_on_c, 1, 60, 100
5, 93600, Note_on_c, 1, 61, 100
5, 93600, Note_on_c, 0, 69, 100
5, 93840, Note_on_c, 1, 60, 0
5, 93840, Note_on_c, 1, 61, 0
5, 93840, Note_on_c, 0, 69, 0
5, 94080, Note_on_c, 1, 61, 100
5, 94320, Note_on_c, 1, 61, 0
5, 94560, Note_on_c, 1, 60, 100
5, 94560, Note_on_c, 1, 61, 100
5, 94800, Note_on_c, 1, 60, 0
5, 94800, Note_on_c, 1, 61, 0
5, 95040, Note_on_c, 1, 61, 100
5, 95280, Note_on_c, 1, 61, 0
5, 95520, Note_on_c, 1, 61, 100
5, 95760, Note_on_c, 1, 61, 0
5, 96000, Note_on_c, 1, 60, 100
5, 96000, Note_on_c, 1, 61, 100
5, 96000, Note_on_c, 0, 68, 100
5, 96240, Note_on_c, 1, 60, 0
5, 96240, Note_on_c, 1, 61, 0
5, 96480, Note_on_c, 1, 60, 100
5, 96480, Note_on_c, 1, 61, 100
5, 96720, Note_on_c, 1, 60, 0
5, 96720, Note_on_c, 1, 61, 0
5, 96960, Note_on_c, 1, 61, 100
5, 97200, Note_on_c, 1, 61, 0
5, 97440, Note_on_c, 1, 61, 100
5, 97680, Note_on_c, 1, 61, 0
5, 97920, Note_on_c, 1, 60, 100
5, 97920, Note_on_c, 1, 61, 100
5, 98160, Note_on_c, 1, 60, 0
5, 98160, Note_on_c, 1, 61, 0
5, 98400, Note_on_c, 1, 60, 100
5, 98400, Note_on_c, 1, 61, 100
5, 98640, Note_on_c, 1, 60, 0
5, 98640, Note_on_c, 1, 61, 0
5, 98880, Note_on_c, 0, 68, 0
5, 98880, Note_on_c, 1, 61, 100
5, 99120, Note_on_c, 1, 61, 0
5, 99360, Note_on_c, 1, 61, 100
5, 99600, Note_on_c, 1, 61, 0
5, 99840, Note_on_c, 1, 60, 100
5, 99840, Note_on_c, 1, 61, 100
5, 99840, Note_on_c, 0, 70, 100
5, 100080, Note_on_c, 1, 60, 0
5, 100080, Note_on_c, 1, 61, 0
5, 100080, Note_on_c, 0, 70, 0
5, 100320, Note_on_c, 1, 61, 100
5, 100560, Note_on_c, 1, 61, 0
5, 100800, Note_on_c, 1, 61, 100
5, 101040, Note_on_c, 1, 61, 0
5, 101280, Note_on_c, 1, 60, 100
5, 101280, Note_on_c, 1, 61, 100
5, 101280, Note_on_c, 0, 69, 100
5, 101520, Note_on_c, 1, 60, 0
5, 101520, Note_on_c, 1, 61, 0
5, 101520, Note_on_c, 0, 69, 0
5, 101760, Note_on_c, 1, 61, 100
5, 102000, Note_on_c, 1, 61, 0
5, 102240, Note_on_c, 1, 60, 100
5, 102240, Note_on_c, 1, 61, 100
5, 102480, Note_on_c, 1, 60, 0
5, 102480, Note_on_c, 1, 61, 0
5, 102720, Note_on_c, 1, 61, 100
5, 102960, Note_on_c, 1, 61, 0
5, 103200, Note_on_c, 1, 61, 100
5, 103440, Note_on_c, 1, 61, 0
5, 103680, Note_on_c, 1, 60, 100
5, 103680, Note_on_c, 1, 61, 100
5, 103680, Note_on_c, 0, 68, 100
5, 103920, Note_on_c, 1, 60, 0
5, 103920, Note_on_c, 1, 61, 0
5, 104160, Note_on_c, 1, 60, 100
5, 104160, Note_on_c, 1, 61, 100
5, 104400, Note_on_c, 1, 60, 0
5, 104400, Note_on_c, 1, 61, 0
5, 104640, Note_on_c, 1, 61, 100
5, 104880, Note_on_c, 1, 61, 0
5, 105120, Note_on_c, 1, 61, 100
5, 105360, Note_on_c, 1, 61, 0
5, 105600, Note_on_c, 1, 60, 100
5, 105600, Note_on_c, 1, 61, 100
5, 105840, Note_on_c, 1, 60, 0
5, 105840, Note_on_c, 1, 61, 0
5, 106080, Note_on_c, 1, 60, 100
5, 106080, Note_on_c, 1, 61, 100
5, 106320, Note_on_c, 1, 60, 0
5, 106320, Note_on_c, 1, 61, 0
5, 106560, Note_on_c, 0, 68, 0
5, 106560, Note_on_c, 1, 61, 100
5, 106800, Note_on_c, 1, 61, 0
5, 107040, Note_on_c, 1, 61, 100
5, 107280, Note_on_c, 1, 61, 0
5, 107520, Note_on_c, 1, 60, 100
5, 107520, Note_on_c, 1, 61, 100
5, 107520, Note_on_c, 0, 70, 100
5, 107760, Note_on_c, 1, 60, 0
5, 107760, Note_on_c, 1, 61, 0
5, 107760, Note_on_c, 0, 70, 0
5, 108000, Note_on_c, 1, 60, 100
5, 108000, Note_on_c, 1, 61, 100
5, 108240, Note_on_c, 1, 60, 0
5, 108240, Note_on_c, 1, 61, 0
5, 108480, Note_on_c, 1, 61, 100
5, 108720, Note_on_c, 1, 61, 0
5, 108960, Note_on_c, 1, 61, 100
5, 108960, Note_on_c, 0, 69, 100
5, 109200, Note_on_c, 1, 61, 0
5, 109200, Note_on_c, 0, 69, 0
5, 109440, Note_on_c, 1, 60, 100
5, 109440, Note_on_c, 1, 61, 100
5, 109680, Note_on_c, 1, 60, 0
5, 109680, Note_on_c, 1, 61, 0
5, 109920, Note_on_c, 1, 61, 100
5, 110160, Note_on_c, 1, 61, 0
5, 110400, Note_on_c, 1, 60, 100
5, 110400, Note_on_c, 1, 61, 100
5, 110640, Note_on_c, 1, 60, 0
5, 110640, Note_on_c, 1, 61, 0
5, 110880, Note_on_c, 1, 61, 100
5, 111120, Note_on_c, 1, 61, 0
5, 111360, Note_on_c, 1, 60, 100
5, 111360, Note_on_c, 1, 61, 100
5, 111360, Note_on_c, 0, 68, 100
5, 111600, Note_on_c, 1, 60, 0
5, 111600, Note_on_c, 1, 61, 0
5, 111600, Note_on_c, 0, 68, 0
5, 111840, Note_on_c, 1, 61, 100
5, 112080, Note_on_c, 1, 61, 0
5, 112320, Note_on_c, 1, 61, 100
5, 112560, Note_on_c, 1, 61, 0
5, 112800, Note_on_c, 1, 60, 100
5, 112800, Note_on_c, 1, 61, 100
5, 113040, Note_on_c, 1, 60, 0
5, 113040, Note_on_c, 1, 61, 0
5, 113280, Note_on_c, 1, 61, 100
5, 113520, Note_on_c, 1, 61, 0
5, 113760, Note_on_c, 1, 60, 100
5, 113760, Note_on_c, 1, 61, 100
5, 114000, Note_on_c, 1, 60, 0
5, 114000, Note_on_c, 1, 61, 0
5, 114240, Note_on_c, 1, 61, 100
5, 114480, Note_on_c, 1, 61, 0
5, 114720, Note_on_c, 1, 61, 100
5, 114960, Note_on_c, 1, 61, 0
5, 115200, Note_on_c, 1, 60, 100
5, 115200, Note_on_c, 1, 61, 100
5, 115440, Note_on_c, 1, 60, 0
5, 115440, Note_on_c, 1, 61, 0
5, 115680, Note_on_c, 1, 60, 100
5, 115680, Note_on_c, 1, 61, 100
5, 115920, Note_on_c, 1, 60, 0
5, 115920, Note_on_c, 1, 61, 0
5, 116160, Note_on_c, 1, 61, 100
5, 116400, Note_on_c, 1, 61, 0
5, 116640, Note_on_c, 1, 61, 100
5, 116880, Note_on_c, 1, 61, 0
5, 117120, Note_on_c, 1, 60, 100
5, 117120, Note_on_c, 1, 61, 100
5, 117360, Note_on_c, 1, 60, 0
5, 117360, Note_on_c, 1, 61, 0
5, 117600, Note_on_c, 1, 61, 100
5, 117840, Note_on_c, 1, 61, 0
5, 118080, Note_on_c, 1, 61, 100
5, 118320, Note_on_c, 1, 61, 0
5, 118560, Note_on_c, 1, 60, 100
5, 118560, Note_on_c, 1, 61, 100
5, 118800, Note_on_c, 1, 60, 0
5, 118800, Note_on_c, 1, 61, 0
5, 119040, Note_on_c, 1, 61, 100
5, 119280, Note_on_c, 1, 61, 0
5, 119520, Note_on_c, 1, 60, 100
5, 119520, Note_on_c, 1, 61, 100
5, 119760, Note_on_c, 1, 60, 0
5, 119760, Note_on_c, 1, 61, 0
5, 120000, Note_on_c, 1, 61, 100
5, 120240, Note_on_c, 1, 61, 0
5, 120480, Note_on_c, 1, 61, 100
5, 120720, Note_on_c, 1, 61, 0
5, 120960, Note_on_c, 1, 60, 100
5, 120960, Note_on_c, 1, 61, 100
5, 121200, Note_on_c, 1, 60, 0
5, 121200, Note_on_c, 1, 61, 0
5, 121440, Note_on_c, 1, 60, 100
5, 121440, Note_on_c, 1, 61, 100
5, 121680, Note_on_c, 1, 60, 0
5, 121680, Note_on_c, 1, 61, 0
5, 121920, Note_on_c, 1, 61, 100
5, 122160, Note_on_c, 1, 61, 0
5, 122400, Note_on_c, 1, 61, 100
5, 122640, Note_on_c, 1, 61, 0
5, 122880, Note_on_c, 1, 60, 100
5, 122880, Note_on_c, 1, 61, 100
5, 123120, Note_on_c, 1, 60, 0
5, 123120, Note_on_c, 1, 61, 0
5, 123360, Note_on_c, 1, 61, 100
5, 123600, Note_on_c, 1, 61, 0
5, 123840, Note_on_c, 1, 61, 100
5, 124080, Note_on_c, 1, 61, 0
5, 124320, Note_on_c, 1, 60, 100
5, 124320, Note_on_c, 1, 61, 100
5, 124560, Note_on_c, 1, 60, 0
5, 124560, Note_on_c, 1, 61, 0
5, 124800, Note_on_c, 1, 61, 100
5, 125040, Note_on_c, 1, 61, 0
5, 125280, Note_on_c, 1, 60, 100
5, 125280, Note_on_c, 1, 61, 100
5, 125520, Note_on_c, 1, 60, 0
5, 125520, Note_on_c, 1, 61, 0
5, 125760, Note_on_c, 1, 61, 100
5, 126000, Note_on_c, 1, 61, 0
5, 126240, Note_on_c, 1, 61, 100
5, 126480, Note_on_c, 1, 61, 0
5, 126720, Note_on_c, 1, 60, 100
5, 126720, Note_on_c, 1, 61, 100
5, 126960, Note_on_c, 1, 60, 0
5, 126960, Note_on_c, 1, 61, 0
5, 127200, Note_on_c, 1, 60, 100
5, 127200, Note_on_c, 1, 61, 100
5, 127440, Note_on_c, 1, 60, 0
5, 127440, Note_on_c, 1, 61, 0
5, 127680, Note_on_c, 1, 61, 100
5, 127920, Note_on_c, 1, 61, 0
5, 128160, Note_on_c, 1, 61, 100
5, 128400, Note_on_c, 1, 61, 0
5, 128640, Note_on_c, 1, 60, 100
5, 128640, Note_on_c, 1, 61, 100
5, 128880, Note_on_c, 1, 60, 0
5, 128880, Note_on_c, 1, 61, 0
5, 129120, Note_on_c, 1, 61, 100
5, 129360, Note_on_c, 1, 61, 0
5, 129600, Note_on_c, 1, 61, 100
5, 129840, Note_on_c, 1, 61, 0
5, 130080, Note_on_c, 1, 60, 100
5, 130080, Note_on_c, 1, 61, 100
5, 130320, Note_on_c, 1, 60, 0
5, 130320, Note_on_c, 1, 61, 0
5, 130560, Note_on_c, 1, 61, 100
5, 130800, Note_on_c, 1, 61, 0
5, 131040, Note_on_c, 1, 60, 100
5, 131040, Note_on_c, 1, 61, 100
5, 131280, Note_on_c, 1, 60, 0
5, 131280, Note_on_c, 1, 61, 0
5, 131520, Note_on_c, 1, 61, 100
5, 131760, Note_on_c, 1, 61, 0
5, 132000, Note_on_c, 1, 61, 100
5, 132240, Note_on_c, 1, 61, 0
5, 132480, Note_on_c, 1, 60, 100
5, 132480, Note_on_c, 1, 61, 100
5, 132720, Note_on_c, 1, 60, 0
5, 132720, Note_on_c, 1, 61, 0
5, 132960, Note_on_c, 1, 60, 100
5, 132960, Note_on_c, 1, 61, 100
5, 133200, Note_on_c, 1, 60, 0
5, 133200, Note_on_c, 1, 61, 0
5, 133440, Note_on_c, 1, 61, 100
5, 133680, Note_on_c, 1, 61, 0
5, 133920, Note_on_c, 1, 61, 100
5, 134160, Note_on_c, 1, 61, 0
5, 134400, Note_on_c, 1, 60, 100
5, 134400, Note_on_c, 1, 61, 100
5, 134400, Note_on_c, 0, 68, 100
5, 134640, Note_on_c, 1, 60, 0
5, 134640, Note_on_c, 1, 61, 0
5, 134640, Note_on_c, 0, 68, 0
5, 134880, Note_on_c, 1, 61, 100
5, 135120, Note_on_c, 1, 61, 0
5, 135360, Note_on_c, 1, 61, 100
5, 135600, Note_on_c, 1, 61, 0
5, 135840, Note_on_c, 1, 60, 100
5, 135840, Note_on_c, 1, 61, 100
5, 136080, Note_on_c, 1, 60, 0
5, 136080, Note_on_c, 1, 61, 0
5, 136320, Note_on_c, 1, 61, 100
5, 136560, Note_on_c, 1, 61, 0
5, 136800, Note_on_c, 1, 60, 100
5, 136800, Note_on_c, 1, 61, 100
5, 137040, Note_on_c, 1, 60, 0
5, 137040, Note_on_c, 1, 61, 0
5, 137280, Note_on_c, 1, 61, 100
5, 137280, Note_on_c, 0, 69, 100
5, 137520, Note_on_c, 1, 61, 0
5, 137520, Note_on_c, 0, 69, 0
5, 137760, Note_on_c, 1, 61, 100
5, 138000, Note_on_c, 1, 61, 0
5, 138240, Note_on_c, 1, 60, 100
5, 138240, Note_on_c, 1, 61, 100
5, 138480, Note_on_c, 1, 60, 0
5, 138480, Note_on_c, 1, 61, 0
5, 138720, Note_on_c, 1, 60, 100
5, 138720, Note_on_c, 1, 61, 100
5, 138960, Note_on_c, 1, 60, 0
5, 138960, Note_on_c, 1, 61, 0
5, 139200, Note_on_c, 1, 61, 100
5, 139440, Note_on_c, 1, 61, 0
5, 139680, Note_on_c, 1, 61, 100
5, 139920, Note_on_c, 1, 61, 0
5, 140160, Note_on_c, 1, 60, 100
5, 140160, Note_on_c, 1, 61, 100
5, 140160, Note_on_c, 0, 69, 100
5, 140400, Note_on_c, 1, 60, 0
5, 140400, Note_on_c, 1, 61, 0
5, 140400, Note_on_c, 0, 69, 0
5, 140640, Note_on_c, 1, 61, 100
5, 140880, Note_on_c, 1, 61, 0
5, 141120, Note_on_c, 1, 61, 100
5, 141360, Note_on_c, 1, 61, 0
5, 141600, Note_on_c, 1, 60, 100
5, 141600, Note_on_c, 1, 61, 100
5, 141840, Note_on_c, 1, 60, 0
5, 141840, Note_on_c, 1, 61, 0
5, 142080, Note_on_c, 1, 61, 100
5, 142320, Note_on_c, 1, 61, 0
5, 142560, Note_on_c, 1, 60, 100
5, 142560, Note_on_c, 1, 61, 100
5, 142800, Note_on_c, 1, 60, 0
5, 142800, Note_on_c, 1, 61, 0
5, 143040, Note_on_c, 1, 61, 100
5, 143040, Note_on_c, 0, 70, 100
5, 143280, Note_on_c, 1, 61, 0
5, 143280, Note_on_c, 0, 70, 0
5, 143520, Note_on_c, 1, 61, 100
5, 143760, Note_on_c, 1, 61, 0
5, 144000, Note_on_c, 1, 60, 100
5, 144000, Note_on_c, 1, 61, 100
5, 144240, Note_on_c, 1, 60, 0
5, 144240, Note_on_c, 1, 61, 0
5, 144480, Note_on_c, 1, 60, 100
5, 144480, Note_on_c, 1, 61, 100
5, 144720, Note_on_c, 1, 60, 0
5, 144720, Note_on_c, 1, 61, 0
5, 144960, Note_on_c, 1, 61, 100
5, 145200, Note_on_c, 1, 61, 0
5, 145440, Note_on_c, 1, 61, 100
5, 145680, Note_on_c, 1, 61, 0
5, 145920, Note_on_c, 1, 60, 100
5, 145920, Note_on_c, 1, 61, 100
5, 145920, Note_on_c, 0, 68, 100
5, 146160, Note_on_c, 1, 60, 0
5, 146160, Note_on_c, 1, 61, 0
5, 146160, Note_on_c, 0, 68, 0
5, 146400, Note_on_c, 1, 61, 100
5, 146640, Note_on_c, 1, 61, 0
5, 146880, Note_on_c, 1, 61, 100
5, 147120, Note_on_c, 1, 61, 0
5, 147360, Note_on_c, 1, 60, 100
5, 147360, Note_on_c, 1, 61, 100
5, 147600, Note_on_c, 1, 60, 0
5, 147600, Note_on_c, 1, 61, 0
5, 147840, Note_on_c, 1, 61, 100
5, 148080, Note_on_c, 1, 61, 0
5, 148320, Note_on_c, 1, 61, 100
5, 148560, Note_on_c, 1, 61, 0
5, 148800, Note_on_c, 1, 60, 100
5, 148800, Note_on_c, 1, 61, 100
5, 148800, Note_on_c, 0, 69, 100
5, 149040, Note_on_c, 1, 60, 0
5, 149040, Note_on_c, 1, 61, 0
5, 149040, Note_on_c, 0, 69, 0
5, 149280, Note_on_c, 1, 61, 100
5, 149520, Note_on_c, 1, 61, 0
5, 149760, Note_on_c, 1, 61, 100
5, 150000, Note_on_c, 1, 61, 0
5, 150240, Note_on_c, 1, 60, 100
5, 150240, Note_on_c, 1, 61, 100
5, 150480, Note_on_c, 1, 60, 0
5, 150480, Note_on_c, 1, 61, 0
5, 150720, Note_on_c, 1, 61, 100
5, 150960, Note_on_c, 1, 61, 0
5, 151200, Note_on_c, 1, 61, 100
5, 151440, Note_on_c, 1, 61, 0
5, 151680, Note_on_c, 1, 60, 100
5, 151680, Note_on_c, 1, 61, 100
5, 151680, Note_on_c, 0, 69, 100
5, 151920, Note_on_c, 1, 60, 0
5, 151920, Note_on_c, 1, 61, 0
5, 151920, Note_on_c, 0, 69, 0
5, 152160, Note_on_c, 1, 61, 100
5, 152400, Note_on_c, 1, 61, 0
5, 152640, Note_on_c, 1, 61, 100
5, 152880, Note_on_c, 1, 61, 0
5, 153120, Note_on_c, 1, 60, 100
5, 153120, Note_on_c, 1, 61, 100
5, 153360, Note_on_c, 1, 60, 0
5, 153360, Note_on_c, 1, 61, 0
5, 153600, Note_on_c, 1, 61, 100
5, 153840, Note_on_c, 1, 61, 0
5, 154080, Note_on_c, 1, 61, 100
5, 154320, Note_on_c, 1, 61, 0
5, 154560, Note_on_c, 1, 60, 100
5, 154560, Note_on_c, 1, 61, 100
5, 154560, Note_on_c, 0, 70, 100
5, 154800, Note_on_c, 1, 60, 0
5, 154800, Note_on_c, 1, 61, 0
5, 154800, Note_on_c, 0, 70, 0
5, 155040, Note_on_c, 1, 61, 100
5, 155280, Note_on_c, 1, 61, 0
5, 155520, Note_on_c, 1, 61, 100
5, 155760, Note_on_c, 1, 61, 0
5, 156000, Note_on_c, 1, 60, 100
5, 156000, Note_on_c, 1, 61, 100
5, 156240, Note_on_c, 1, 60, 0
5, 156240, Note_on_c, 1, 61, 0
5, 156480, Note_on_c, 1, 61, 100
5, 156720, Note_on_c, 1, 61, 0
5, 156960, Note_on_c, 1, 61, 100
5, 157200, Note_on_c, 1, 61, 0
5, 157440, Note_on_c, 1, 60, 100
5, 157440, Note_on_c, 1, 61, 100
5, 157440, Note_on_c, 0, 69, 100
5, 157680, Note_on_c, 1, 60, 0
5, 157680, Note_on_c, 1, 61, 0
5, 158400, Note_on_c, 1, 60, 100
5, 158400, Note_on_c, 1, 61, 100
5, 158640, Note_on_c, 1, 60, 0
5, 158640, Note_on_c, 1, 61, 0
5, 158880, Note_on_c, 1, 61, 100
5, 159120, Note_on_c, 1, 61, 0
5, 159360, Note_on_c, 1, 60, 100
5, 159360, Note_on_c, 1, 61, 100
5, 159600, Note_on_c, 1, 60, 0
5, 159600, Note_on_c, 1, 61, 0
5, 159840, Note_on_c, 1, 60, 100
5, 159840, Note_on_c, 1, 61, 100
5, 160080, Note_on_c, 1, 60, 0
5, 160080, Note_on_c, 1, 61, 0
5, 160320, Note_on_c, 0, 69, 0
5, 160320, Note_on_c, 1, 61, 100
5, 160560, Note_on_c, 1, 61, 0
5, 160800, Note_on_c, 1, 61, 100
5, 161040, Note_on_c, 1, 61, 0
5, 161280, Note_on_c, 1, 60, 100
5, 161280, Note_on_c, 1, 61, 100
5, 161280, Note_on_c, 0, 70, 100
5, 161520, Note_on_c, 1, 60, 0
5, 161520, Note_on_c, 1, 61, 0
5, 161520, Note_on_c, 0, 70, 0
5, 161760, Note_on_c, 1, 61, 100
5, 162000, Note_on_c, 1, 61, 0
5, 162240, Note_on_c, 1, 61, 100
5, 162480, Note_on_c, 1, 61, 0
5, 162720, Note_on_c, 1, 60, 100
5, 162720, Note_on_c, 1, 61, 100
5, 162720, Note_on_c, 0, 69, 100
5, 162960, Note_on_c, 1, 60, 0
5, 162960, Note_on_c, 1, 61, 0
5, 162960, Note_on_c, 0, 69, 0
5, 163200, Note_on_c, 1, 61, 100
5, 163440, Note_on_c, 1, 61, 0
5, 163680, Note_on_c, 1, 60, 100
5, 163680, Note_on_c, 1, 61, 100
5, 163920, Note_on_c, 1, 60, 0
5, 163920, Note_on_c, 1, 61, 0
5, 164160, Note_on_c, 1, 61, 100
5, 164400, Note_on_c, 1, 61, 0
5, 164640, Note_on_c, 1, 61, 100
5, 164880, Note_on_c, 1, 61, 0
5, 165120, Note_on_c, 1, 60, 100
5, 165120, Note_on_c, 1, 61, 100
5, 165120, Note_on_c, 0, 69, 100
5, 165360, Note_on_c, 1, 60, 0
5, 165360, Note_on_c, 1, 61, 0
5, 166080, Note_on_c, 1, 61, 100
5, 166320, Note_on_c, 1, 61, 0
5, 166560, Note_on_c, 1, 61, 100
5, 166800, Note_on_c, 1, 61, 0
5, 167040, Note_on_c, 1, 60, 100
5, 167040, Note_on_c, 1, 61, 100
5, 167280, Note_on_c, 1, 60, 0
5, 167280, Note_on_c, 1, 61, 0
5, 167520, Note_on_c, 1, 60, 100
5, 167520, Note_on_c, 1, 61, 100
5, 167760, Note_on_c, 1, 60, 0
5, 167760, Note_on_c, 1, 61, 0
5, 168000, Note_on_c, 0, 69, 0
5, 168000, Note_on_c, 1, 61, 100
5, 168240, Note_on_c, 1, 61, 0
5, 168480, Note_on_c, 1, 61, 100
5, 168720, Note_on_c, 1, 61, 0
5, 168960, Note_on_c, 1, 60, 100
5, 168960, Note_on_c, 1, 61, 100
5, 168960, Note_on_c, 0, 70, 100
5, 169200, Note_on_c, 1, 60, 0
5, 169200, Note_on_c, 1, 61, 0
5, 169200, Note_on_c, 0, 70, 0
5, 169440, Note_on_c, 1, 60, 100
5, 169440, Note_on_c, 1, 61, 100
5, 169680, Note_on_c, 1, 60, 0
5, 169680, Note_on_c, 1, 61, 0
5, 169920, Note_on_c, 1, 61, 100
5, 170160, Note_on_c, 1, 61, 0
5, 170400, Note_on_c, 1, 60, 100
5, 170400, Note_on_c, 1, 61, 100
5, 170400, Note_on_c, 0, 69, 100
5, 170640, Note_on_c, 1, 60, 0
5, 170640, Note_on_c, 1, 61, 0
5, 170640, Note_on_c, 0, 69, 0
5, 170880, Note_on_c, 1, 61, 100
5, 171120, Note_on_c, 1, 61, 0
5, 171360, Note_on_c, 1, 60, 100
5, 171360, Note_on_c, 1, 61, 100
5, 171600, Note_on_c, 1, 60, 0
5, 171600, Note_on_c, 1, 61, 0
5, 171840, Note_on_c, 1, 61, 100
5, 172080, Note_on_c, 1, 61, 0
5, 172320, Note_on_c, 1, 61, 100
5, 172560, Note_on_c, 1, 61, 0
5, 172800, Note_on_c, 1, 60, 100
5, 172800, Note_on_c, 1, 61, 100
5, 172800, Note_on_c, 0, 69, 100
5, 173040, Note_on_c, 1, 60, 0
5, 173040, Note_on_c, 1, 61, 0
5, 173280, Note_on_c, 1, 60, 100
5, 173520, Note_on_c, 1, 60, 0
5, 173760, Note_on_c, 1, 61, 100
5, 174000, Note_on_c, 1, 61, 0
5, 174240, Note_on_c, 1, 61, 100
5, 174480, Note_on_c, 1, 61, 0
5, 174720, Note_on_c, 1, 60, 100
5, 174720, Note_on_c, 1, 61, 100
5, 174960, Note_on_c, 1, 60, 0
5, 174960, Note_on_c, 1, 61, 0
5, 175200, Note_on_c, 1, 60, 100
5, 175200, Note_on_c, 1, 61, 100
5, 175440, Note_on_c, 1, 60, 0
5, 175440, Note_on_c, 1, 61, 0
5, 175680, Note_on_c, 0, 69, 0
5, 175680, Note_on_c, 1, 61, 100
5, 175920, Note_on_c, 1, 61, 0
5, 176160, Note_on_c, 1, 61, 100
5, 176400, Note_on_c, 1, 61, 0
5, 176640, Note_on_c, 1, 60, 100
5, 176640, Note_on_c, 1, 61, 100
5, 176640, Note_on_c, 0, 70, 100
5, 176880, Note_on_c, 1, 60, 0
5, 176880, Note_on_c, 1, 61, 0
5, 176880, Note_on_c, 0, 70, 0
5, 177120, Note_on_c, 1, 61, 100
5, 177360, Note_on_c, 1, 61, 0
5, 177600, Note_on_c, 1, 61, 100
5, 177840, Note_on_c, 1, 61, 0
5, 178080, Note_on_c, 1, 60, 100
5, 178080, Note_on_c, 1, 61, 100
5, 178080, Note_on_c, 0, 69, 100
5, 178320, Note_on_c, 1, 60, 0
5, 178320, Note_on_c, 1, 61, 0
5, 178320, Note_on_c, 0, 69, 0
5, 178560, Note_on_c, 1, 61, 100
5, 178800, Note_on_c, 1, 61, 0
5, 179040, Note_on_c, 1, 60, 100
5, 179040, Note_on_c, 1, 61, 100
5, 179280, Note_on_c, 1, 60, 0
5, 179280, Note_on_c, 1, 61, 0
5, 179520, Note_on_c, 1, 61, 100
5, 179760, Note_on_c, 1, 61, 0
5, 180000, Note_on_c, 1, 61, 100
5, 180240, Note_on_c, 1, 61, 0
5, 180480, Note_on_c, 1, 60, 100
5, 180480, Note_on_c, 1, 61, 100
5, 180480, Note_on_c, 0, 69, 100
5, 180720, Note_on_c, 1, 60, 0
5, 180720, Note_on_c, 1, 61, 0
5, 180960, Note_on_c, 1, 60, 100
5, 180960, Note_on_c, 1, 61, 100
5, 181200, Note_on_c, 1, 60, 0
5, 181200, Note_on_c, 1, 61, 0
5, 181440, Note_on_c, 1, 61, 100
5, 181680, Note_on_c, 1, 61, 0
5, 181920, Note_on_c, 1, 61, 100
5, 182160, Note_on_c, 1, 61, 0
5, 182400, Note_on_c, 1, 60, 100
5, 182400, Note_on_c, 1, 61, 100
5, 182640, Note_on_c, 1, 60, 0
5, 182640, Note_on_c, 1, 61, 0
5, 182880, Note_on_c, 1, 60, 100
5, 182880, Note_on_c, 1, 61, 100
5, 183120, Note_on_c, 1, 60, 0
5, 183120, Note_on_c, 1, 61, 0
5, 183360, Note_on_c, 0, 69, 0
5, 183360, Note_on_c, 1, 61, 100
5, 183600, Note_on_c, 1, 61, 0
5, 183840, Note_on_c, 1, 61, 100
5, 184080, Note_on_c, 1, 61, 0
5, 184320, Note_on_c, 1, 60, 100
5, 184320, Note_on_c, 1, 61, 100
5, 184320, Note_on_c, 0, 70, 100
5, 184560, Note_on_c, 1, 60, 0
5, 184560, Note_on_c, 1, 61, 0
5, 184560, Note_on_c, 0, 70, 0
5, 184800, Note_on_c, 1, 60, 100
5, 184800, Note_on_c, 1, 61, 100
5, 185040, Note_on_c, 1, 60, 0
5, 185040, Note_on_c, 1, 61, 0
5, 185280, Note_on_c, 1, 61, 100
5, 185520, Note_on_c, 1, 61, 0
5, 185760, Note_on_c, 1, 61, 100
5, 185760, Note_on_c, 0, 69, 100
5, 186000, Note_on_c, 1, 61, 0
5, 186000, Note_on_c, 0, 69, 0
5, 186240, Note_on_c, 1, 60, 100
5, 186240, Note_on_c, 1, 61, 100
5, 186480, Note_on_c, 1, 60, 0
5, 186480, Note_on_c, 1, 61, 0
5, 186720, Note_on_c, 1, 61, 100
5, 186960, Note_on_c, 1, 61, 0
5, 187200, Note_on_c, 1, 60, 100
5, 187200, Note_on_c, 1, 61, 100
5, 187440, Note_on_c, 1, 60, 0
5, 187440, Note_on_c, 1, 61, 0
5, 187680, Note_on_c, 1, 61, 100
5, 187920, Note_on_c, 1, 61, 0
5, 188160, Note_on_c, 1, 60, 100
5, 188160, Note_on_c, 1, 61, 100
5, 188160, Note_on_c, 0, 68, 100
5, 188400, Note_on_c, 1, 60, 0
5, 188400, Note_on_c, 1, 61, 0
5, 189120, Note_on_c, 1, 61, 100
5, 189360, Note_on_c, 1, 61, 0
5, 189600, Note_on_c, 1, 60, 100
5, 189600, Note_on_c, 1, 61, 100
5, 189840, Note_on_c, 1, 60, 0
5, 189840, Note_on_c, 1, 61, 0
5, 190080, Note_on_c, 1, 61, 100
5, 190320, Note_on_c, 1, 61, 0
5, 190560, Note_on_c, 1, 60, 100
5, 190560, Note_on_c, 1, 61, 100
5, 190800, Note_on_c, 1, 60, 0
5, 190800, Note_on_c, 1, 61, 0
5, 191040, Note_on_c, 0, 68, 0
5, 191040, Note_on_c, 1, 61, 100
5, 191280, Note_on_c, 1, 61, 0
5, 191520, Note_on_c, 1, 61, 100
5, 191760, Note_on_c, 1, 61, 0
5, 192000, Note_on_c, 1, 60, 100
5, 192000, Note_on_c, 1, 61, 100
5, 192000, Note_on_c, 0, 70, 100
5, 192240, Note_on_c, 1, 60, 0
5, 192240, Note_on_c, 1, 61, 0
5, 192240, Note_on_c, 0, 70, 0
5, 192480, Note_on_c, 1, 60, 100
5, 192480, Note_on_c, 1, 61, 100
5, 192720, Note_on_c, 1, 60, 0
5, 192720, Note_on_c, 1, 61, 0
5, 192960, Note_on_c, 1, 61, 100
5, 193200, Note_on_c, 1, 61, 0
5, 193440, Note_on_c, 1, 61, 100
5, 193440, Note_on_c, 0, 69, 100
5, 193680, Note_on_c, 1, 61, 0
5, 193680, Note_on_c, 0, 69, 0
5, 193920, Note_on_c, 1, 60, 100
5, 193920, Note_on_c, 1, 61, 100
5, 194160, Note_on_c, 1, 60, 0
5, 194160, Note_on_c, 1, 61, 0
5, 194400, Note_on_c, 1, 60, 100
5, 194400, Note_on_c, 1, 61, 100
5, 194640, Note_on_c, 1, 60, 0
5, 194640, Note_on_c, 1, 61, 0
5, 194880, Note_on_c, 1, 61, 100
5, 195120, Note_on_c, 1, 61, 0
5, 195360, Note_on_c, 1, 61, 100
5, 195600, Note_on_c, 1, 61, 0
5, 195840, Note_on_c, 1, 60, 100
5, 195840, Note_on_c, 1, 61, 100
5, 195840, Note_on_c, 0, 68, 100
5, 196080, Note_on_c, 1, 60, 0
5, 196080, Note_on_c, 1, 61, 0
5, 196800, Note_on_c, 1, 61, 100
5, 197040, Note_on_c, 1, 61, 0
5, 197280, Note_on_c, 1, 61, 100
5, 197520, Note_on_c, 1, 61, 0
5, 197760, Note_on_c, 1, 60, 100
5, 197760, Note_on_c, 1, 61, 100
5, 198000, Note_on_c, 1, 60, 0
5, 198000, Note_on_c, 1, 61, 0
5, 198240, Note_on_c, 1, 60, 100
5, 198240, Note_on_c, 1, 61, 100
5, 198480, Note_on_c, 1, 60, 0
5, 198480, Note_on_c, 1, 61, 0
5, 198720, Note_on_c, 0, 68, 0
5, 198720, Note_on_c, 1, 61, 100
5, 198960, Note_on_c, 1, 61, 0
5, 199200, Note_on_c, 1, 61, 100
5, 199440, Note_on_c, 1, 61, 0
5, 199680, Note_on_c, 1, 60, 100
5, 199680, Note_on_c, 1, 61, 100
5, 199680, Note_on_c, 0, 70, 100
5, 199920, Note_on_c, 1, 60, 0
5, 199920, Note_on_c, 1, 61, 0
5, 199920, Note_on_c, 0, 70, 0
5, 200160, Note_on_c, 1, 60, 100
5, 200160, Note_on_c, 1, 61, 100
5, 200400, Note_on_c, 1, 60, 0
5, 200400, Note_on_c, 1, 61, 0
5, 200640, Note_on_c, 1, 61, 100
5, 200880, Note_on_c, 1, 61, 0
5, 201120, Note_on_c, 1, 60, 100
5, 201120, Note_on_c, 1, 61, 100
5, 201120, Note_on_c, 0, 69, 100
5, 201360, Note_on_c, 1, 60, 0
5, 201360, Note_on_c, 1, 61, 0
5, 201360, Note_on_c, 0, 69, 0
5, 201600, Note_on_c, 1, 61, 100
5, 201840, Note_on_c, 1, 61, 0
5, 202080, Note_on_c, 1, 60, 100
5, 202080, Note_on_c, 1, 61, 100
5, 202320, Note_on_c, 1, 60, 0
5, 202320, Note_on_c, 1, 61, 0
5, 202560, Note_on_c, 1, 61, 100
5, 202800, Note_on_c, 1, 61, 0
5, 203040, Note_on_c, 1, 61, 100
5, 203280, Note_on_c, 1, 61, 0
5, 203520, Note_on_c, 1, 60, 100
5, 203520, Note_on_c, 1, 61, 100
5, 203520, Note_on_c, 0, 68, 100
5, 203760, Note_on_c, 1, 60, 0
5, 203760, Note_on_c, 1, 61, 0
5, 204480, Note_on_c, 1, 61, 100
5, 204720, Note_on_c, 1, 61, 0
5, 204960, Note_on_c, 1, 61, 100
5, 205200, Note_on_c, 1, 61, 0
5, 205440, Note_on_c, 1, 60, 100
5, 205440, Note_on_c, 1, 61, 100
5, 205680, Note_on_c, 1, 60, 0
5, 205680, Note_on_c, 1, 61, 0
5, 205920, Note_on_c, 1, 60, 100
5, 205920, Note_on_c, 1, 61, 100
5, 206160, Note_on_c, 1, 60, 0
5, 206160, Note_on_c, 1, 61, 0
5, 206400, Note_on_c, 0, 68, 0
5, 206400, Note_on_c, 1, 61, 100
5, 206640, Note_on_c, 1, 61, 0
5, 206880, Note_on_c, 1, 61, 100
5, 207120, Note_on_c, 1, 61, 0
5, 207360, Note_on_c, 1, 60, 100
5, 207360, Note_on_c, 1, 61, 100
5, 207360, Note_on_c, 0, 70, 100
5, 207600, Note_on_c, 1, 60, 0
5, 207600, Note_on_c, 1, 61, 0
5, 207600, Note_on_c, 0, 70, 0
5, 207840, Note_on_c, 1, 61, 100
5, 208080, Note_on_c, 1, 61, 0
5, 208320, Note_on_c, 1, 61, 100
5, 208560, Note_on_c, 1, 61, 0
5, 208800, Note_on_c, 1, 60, 100
5, 208800, Note_on_c, 1, 61, 100
5, 208800, Note_on_c, 0, 69, 100
5, 209040, Note_on_c, 1, 60, 0
5, 209040, Note_on_c, 1, 61, 0
5, 209040, Note_on_c, 0, 69, 0
5, 209280, Note_on_c, 1, 61, 100
5, 209520, Note_on_c, 1, 61, 0
5, 209760, Note_on_c, 1, 60, 100
5, 209760, Note_on_c, 1, 61, 100
5, 210000, Note_on_c, 1, 60, 0
5, 210000, Note_on_c, 1, 61, 0
5, 210240, Note_on_c, 1, 61, 100
5, 210480, Note_on_c, 1, 61, 0
5, 210720, Note_on_c, 1, 61, 100
5, 210960, Note_on_c, 1, 61, 0
5, 211200, Note_on_c, 1, 60, 100
5, 211200, Note_on_c, 1, 61, 100
5, 211200, Note_on_c, 0, 68, 100
5, 211440, Note_on_c, 1, 60, 0
5, 211440, Note_on_c, 1, 61, 0
5, 211680, Note_on_c, 1, 60, 100
5, 211680, Note_on_c, 1, 61, 100
5, 211920, Note_on_c, 1, 60, 0
5, 211920, Note_on_c, 1, 61, 0
5, 212160, Note_on_c, 1, 61, 100
5, 212400, Note_on_c, 1, 61, 0
5, 212640, Note_on_c, 1, 61, 100
5, 212880, Note_on_c, 1, 61, 0
5, 213120, Note_on_c, 1, 60, 100
5, 213120, Note_on_c, 1, 61, 100
5, 213360, Note_on_c, 1, 60, 0
5, 213360, Note_on_c, 1, 61, 0
5, 213600, Note_on_c, 1, 60, 100
5, 213600, Note_on_c, 1, 61, 100
5, 213840, Note_on_c, 1, 60, 0
5, 213840, Note_on_c, 1, 61, 0
5, 214080, Note_on_c, 0, 68, 0
5, 214080, Note_on_c, 1, 61, 100
5, 214320, Note_on_c, 1, 61, 0
5, 214560, Note_on_c, 1, 61, 100
5, 214800, Note_on_c, 1, 61, 0
5, 215040, Note_on_c, 1, 60, 100
5, 215040, Note_on_c, 1, 61, 100
5, 215040, Note_on_c, 0, 70, 100
5, 215280, Note_on_c, 1, 60, 0
5, 215280, Note_on_c, 1, 61, 0
5, 215280, Note_on_c, 0, 70, 0
5, 215520, Note_on_c, 1, 61, 100
5, 215760, Note_on_c, 1, 61, 0
5, 216000, Note_on_c, 1, 60, 100
5, 216000, Note_on_c, 1, 61, 100
5, 216240, Note_on_c, 1, 60, 0
5, 216240, Note_on_c, 1, 61, 0
5, 216480, Note_on_c, 1, 61, 100
5, 216480, Note_on_c, 0, 69, 100
5, 216720, Note_on_c, 1, 61, 0
5, 216720, Note_on_c, 0, 69, 0
5, 216960, Note_on_c, 1, 60, 100
5, 216960, Note_on_c, 1, 61, 100
5, 217200, Note_on_c, 1, 60, 0
5, 217200, Note_on_c, 1, 61, 0
5, 217440, Note_on_c, 1, 61, 100
5, 217680, Note_on_c, 1, 61, 0
5, 217920, Note_on_c, 1, 61, 100
5, 218160, Note_on_c, 1, 61, 0
5, 218400, Note_on_c, 1, 61, 100
5, 218640, Note_on_c, 1, 61, 0
5, 218880, Note_on_c, 1, 60, 100
5, 218880, Note_on_c, 1, 61, 100
5, 218880, Note_on_c, 0, 68, 100
5, 219120, Note_on_c, 1, 60, 0
5, 219120, Note_on_c, 1, 61, 0
5, 219120, Note_on_c, 0, 68, 0
5, 219360, Note_on_c, 1, 61, 100
5, 219600, Note_on_c, 1, 61, 0
5, 219840, Note_on_c, 1, 61, 100
5, 220080, Note_on_c, 1, 61, 0
5, 220320, Note_on_c, 1, 60, 100
5, 220320, Note_on_c, 1, 61, 100
5, 220560, Note_on_c, 1, 60, 0
5, 220560, Note_on_c, 1, 61, 0
5, 220800, Note_on_c, 1, 61, 100
5, 221040, Note_on_c, 1, 61, 0
5, 221280, Note_on_c, 1, 60, 100
5, 221280, Note_on_c, 1, 61, 100
5, 221520, Note_on_c, 1, 60, 0
5, 221520, Note_on_c, 1, 61, 0
5, 221760, Note_on_c, 1, 61, 100
5, 222000, Note_on_c, 1, 61, 0
5, 222240, Note_on_c, 1, 61, 100
5, 222480, Note_on_c, 1, 61, 0
5, 222720, Note_on_c, 1, 60, 100
5, 222720, Note_on_c, 1, 61, 100
5, 222960, Note_on_c, 1, 60, 0
5, 222960, Note_on_c, 1, 61, 0
5, 223200, Note_on_c, 1, 60, 100
5, 223200, Note_on_c, 1, 61, 100
5, 223440, Note_on_c, 1, 60, 0
5, 223440, Note_on_c, 1, 61, 0
5, 223680, Note_on_c, 1, 61, 100
5, 223920, Note_on_c, 1, 61, 0
5, 224160, Note_on_c, 1, 61, 100
5, 224400, Note_on_c, 1, 61, 0
5, 224640, Note_on_c, 1, 60, 100
5, 224640, Note_on_c, 1, 61, 100
5, 224880, Note_on_c, 1, 60, 0
5, 224880, Note_on_c, 1, 61, 0
5, 225120, Note_on_c, 1, 61, 100
5, 225360, Note_on_c, 1, 61, 0
5, 225600, Note_on_c, 1, 61, 100
5, 225840, Note_on_c, 1, 61, 0
5, 226080, Note_on_c, 1, 60, 100
5, 226080, Note_on_c, 1, 61, 100
5, 226320, Note_on_c, 1, 60, 0
5, 226320, Note_on_c, 1, 61, 0
5, 226560, Note_on_c, 1, 61, 100
5, 226800, Note_on_c, 1, 61, 0
5, 227040, Note_on_c, 1, 60, 100
5, 227040, Note_on_c, 1, 61, 100
5, 227280, Note_on_c, 1, 60, 0
5, 227280, Note_on_c, 1, 61, 0
5, 227520, Note_on_c, 1, 61, 100
5, 227760, Note_on_c, 1, 61, 0
5, 228000, Note_on_c, 1, 61, 100
5, 228240, Note_on_c, 1, 61, 0
5, 228480, Note_on_c, 1, 60, 100
5, 228480, Note_on_c, 1, 61, 100
5, 228720, Note_on_c, 1, 60, 0
5, 228720, Note_on_c, 1, 61, 0
5, 228960, Note_on_c, 1, 60, 100
5, 228960, Note_on_c, 1, 61, 100
5, 229200, Note_on_c, 1, 60, 0
5, 229200, Note_on_c, 1, 61, 0
5, 229440, Note_on_c, 1, 61, 100
5, 229680, Note_on_c, 1, 61, 0
5, 229920, Note_on_c, 1, 61, 100
5, 230160, Note_on_c, 1, 61, 0
5, 230400, Note_on_c, 1, 60, 100
5, 230400, Note_on_c, 1, 61, 100
5, 230640, Note_on_c, 1, 60, 0
5, 230640, Note_on_c, 1, 61, 0
5, 230880, Note_on_c, 1, 61, 100
5, 231120, Note_on_c, 1, 61, 0
5, 231360, Note_on_c, 1, 61, 100
5, 231600, Note_on_c, 1, 61, 0
5, 231840, Note_on_c, 1, 60, 100
5, 231840, Note_on_c, 1, 61, 100
5, 232080, Note_on_c, 1, 60, 0
5, 232080, Note_on_c, 1, 61, 0
5, 232320, Note_on_c, 1, 61, 100
5, 232560, Note_on_c, 1, 61, 0
5, 232800, Note_on_c, 1, 60, 100
5, 232800, Note_on_c, 1, 61, 100
5, 233040, Note_on_c, 1, 60, 0
5, 233040, Note_on_c, 1, 61, 0
5, 233280, Note_on_c, 1, 61, 100
5, 233520, Note_on_c, 1, 61, 0
5, 233760, Note_on_c, 1, 61, 100
5, 234000, Note_on_c, 1, 61, 0
5, 234240, Note_on_c, 1, 60, 100
5, 234240, Note_on_c, 1, 61, 100
5, 234480, Note_on_c, 1, 60, 0
5, 234480, Note_on_c, 1, 61, 0
5, 234720, Note_on_c, 1, 60, 100
5, 234720, Note_on_c, 1, 61, 100
5, 234960, Note_on_c, 1, 60, 0
5, 234960, Note_on_c, 1, 61, 0
5, 235200, Note_on_c, 1, 61, 100
5, 235440, Note_on_c, 1, 61, 0
5, 235680, Note_on_c, 1, 61, 100
5, 235920, Note_on_c, 1, 61, 0
5, 236160, Note_on_c, 1, 60, 100
5, 236160, Note_on_c, 1, 61, 100
5, 236400, Note_on_c, 1, 60, 0
5, 236400, Note_on_c, 1, 61, 0
5, 236640, Note_on_c, 1, 61, 100
5, 236880, Note_on_c, 1, 61, 0
5, 237120, Note_on_c, 1, 61, 100
5, 237360, Note_on_c, 1, 61, 0
5, 237600, Note_on_c, 1, 60, 100
5, 237600, Note_on_c, 1, 61, 100
5, 237840, Note_on_c, 1, 60, 0
5, 237840, Note_on_c, 1, 61, 0
5, 238080, Note_on_c, 1, 61, 100
5, 238320, Note_on_c, 1, 61, 0
5, 238560, Note_on_c, 1, 60, 100
5, 238560, Note_on_c, 1, 61, 100
5, 238800, Note_on_c, 1, 60, 0
5, 238800, Note_on_c, 1, 61, 0
5, 239040, Note_on_c, 1, 61, 100
5, 239280, Note_on_c, 1, 61, 0
5, 239520, Note_on_c, 1, 61, 100
5, 239760, Note_on_c, 1, 61, 0
5, 240000, Note_on_c, 1, 60, 100
5, 240000, Note_on_c, 1, 61, 100
5, 240240, Note_on_c, 1, 60, 0
5, 240240, Note_on_c, 1, 61, 0
5, 240480, Note_on_c, 1, 60, 100
5, 240480, Note_on_c, 1, 61, 100
5, 240720, Note_on_c, 1, 60, 0
5, 240720, Note_on_c, 1, 61, 0
5, 240960, Note_on_c, 1, 61, 100
5, 241200, Note_on_c, 1, 61, 0
5, 241440, Note_on_c, 1, 61, 100
5, 241680, Note_on_c, 1, 61, 0
5, 241920, Note_on_c, 1, 60, 100
5, 241920, Note_on_c, 1, 61, 100
5, 241920, Note_on_c, 0, 68, 100
5, 242160, Note_on_c, 1, 60, 0
5, 242160, Note_on_c, 1, 61, 0
5, 242160, Note_on_c, 0, 68, 0
5, 242400, Note_on_c, 1, 61, 100
5, 242640, Note_on_c, 1, 61, 0
5, 242880, Note_on_c, 1, 61, 100
5, 243120, Note_on_c, 1, 61, 0
5, 243360, Note_on_c, 1, 60, 100
5, 243360, Note_on_c, 1, 61, 100
5, 243600, Note_on_c, 1, 60, 0
5, 243600, Note_on_c, 1, 61, 0
5, 243840, Note_on_c, 1, 61, 100
5, 244080, Note_on_c, 1, 61, 0
5, 244320, Note_on_c, 1, 60, 100
5, 244320, Note_on_c, 1, 61, 100
5, 244560, Note_on_c, 1, 60, 0
5, 244560, Note_on_c, 1, 61, 0
5, 244800, Note_on_c, 1, 61, 100
5, 244800, Note_on_c, 0, 69, 100
5, 245040, Note_on_c, 1, 61, 0
5, 245040, Note_on_c, 0, 69, 0
5, 245280, Note_on_c, 1, 61, 100
5, 245520, Note_on_c, 1, 61, 0
5, 245760, Note_on_c, 1, 60, 100
5, 245760, Note_on_c, 1, 61, 100
5, 246000, Note_on_c, 1, 60, 0
5, 246000, Note_on_c, 1, 61, 0
5, 246240, Note_on_c, 1, 60, 100
5, 246240, Note_on_c, 1, 61, 100
5, 246480, Note_on_c, 1, 60, 0
5, 246480, Note_on_c, 1, 61, 0
5, 246720, Note_on_c, 1, 61, 100
5, 246960, Note_on_c, 1, 61, 0
5, 247200, Note_on_c, 1, 61, 100
5, 247440, Note_on_c, 1, 61, 0
5, 247680, Note_on_c, 1, 60, 100
5, 247680, Note_on_c, 1, 61, 100
5, 247680, Note_on_c, 0, 69, 100
5, 247920, Note_on_c, 1, 60, 0
5, 247920, Note_on_c, 1, 61, 0
5, 247920, Note_on_c, 0, 69, 0
5, 248160, Note_on_c, 1, 61, 100
5, 248400, Note_on_c, 1, 61, 0
5, 248640, Note_on_c, 1, 61, 100
5, 248880, Note_on_c, 1, 61, 0
5, 249120, Note_on_c, 1, 60, 100
5, 249120, Note_on_c, 1, 61, 100
5, 249360, Note_on_c, 1, 60, 0
5, 249360, Note_on_c, 1, 61, 0
5, 249600, Note_on_c, 1, 61, 100
5, 249840, Note_on_c, 1, 61, 0
5, 250080, Note_on_c, 1, 60, 100
5, 250080, Note_on_c, 1, 61, 100
5, 250320, Note_on_c, 1, 60, 0
5, 250320, Note_on_c, 1, 61, 0
5, 250560, Note_on_c, 1, 61, 100
5, 250560, Note_on_c, 0, 70, 100
5, 250800, Note_on_c, 1, 61, 0
5, 250800, Note_on_c, 0, 70, 0
5, 251040, Note_on_c, 1, 61, 100
5, 251280, Note_on_c, 1, 61, 0
5, 251520, Note_on_c, 1, 60, 100
5, 251520, Note_on_c, 1, 61, 100
5, 251760, Note_on_c, 1, 60, 0
5, 251760, Note_on_c, 1, 61, 0
5, 252000, Note_on_c, 1, 60, 100
5, 252000, Note_on_c, 1, 61, 100
5, 252240, Note_on_c, 1, 60, 0
5, 252240, Note_on_c, 1, 61, 0
5, 252480, Note_on_c, 1, 61, 100
5, 252720, Note_on_c, 1, 61, 0
5, 252960, Note_on_c, 1, 61, 100
5, 253200, Note_on_c, 1, 61, 0
5, 253440, Note_on_c, 1, 60, 100
5, 253440, Note_on_c, 1, 61, 100
5, 253440, Note_on_c, 0, 68, 100
5, 253680, Note_on_c, 1, 60, 0
5, 253680, Note_on_c, 1, 61, 0
5, 253680, Note_on_c, 0, 68, 0
5, 253920, Note_on_c, 1, 61, 100
5, 254160, Note_on_c, 1, 61, 0
5, 254400, Note_on_c, 1, 61, 100
5, 254640, Note_on_c, 1, 61, 0
5, 254880, Note_on_c, 1, 60, 100
5, 254880, Note_on_c, 1, 61, 100
5, 255120, Note_on_c, 1, 60, 0
5, 255120, Note_on_c, 1, 61, 0
5, 255360, Note_on_c, 1, 61, 100
5, 255600, Note_on_c, 1, 61, 0
5, 255840, Note_on_c, 1, 61, 100
5, 256080, Note_on_c, 1, 61, 0
5, 256320, Note_on_c, 1, 60, 100
5, 256320, Note_on_c, 1, 61, 100
5, 256320, Note_on_c, 0, 69, 100
5, 256560, Note_on_c, 1, 60, 0
5, 256560, Note_on_c, 1, 61, 0
5, 256560, Note_on_c, 0, 69, 0
5, 256800, Note_on_c, 1, 61, 100
5, 257040, Note_on_c, 1, 61, 0
5, 257280, Note_on_c, 1, 61, 100
5, 257520, Note_on_c, 1, 61, 0
5, 257760, Note_on_c, 1, 60, 100
5, 257760, Note_on_c, 1, 61, 100
5, 258000, Note_on_c, 1, 60, 0
5, 258000, Note_on_c, 1, 61, 0
5, 258240, Note_on_c, 1, 61, 100
5, 258480, Note_on_c, 1, 61, 0
5, 258720, Note_on_c, 1, 61, 100
5, 258960, Note_on_c, 1, 61, 0
5, 259200, Note_on_c, 1, 60, 100
5, 259200, Note_on_c, 1, 61, 100
5, 259200, Note_on_c, 0, 69, 100
5, 259440, Note_on_c, 1, 60, 0
5, 259440, Note_on_c, 1, 61, 0
5, 259440, Note_on_c, 0, 69, 0
5, 259680, Note_on_c, 1, 61, 100
5, 259920, Note_on_c, 1, 61, 0
5, 260160, Note_on_c, 1, 61, 100
5, 260400, Note_on_c, 1, 61, 0
5, 260640, Note_on_c, 1, 60, 100
5, 260640, Note_on_c, 1, 61, 100
5, 260880, Note_on_c, 1, 60, 0
5, 260880, Note_on_c, 1, 61, 0
5, 261120, Note_on_c, 1, 61, 100
5, 261360, Note_on_c, 1, 61, 0
5, 261600, Note_on_c, 1, 61, 100
5, 261840, Note_on_c, 1, 61, 0
5, 262080, Note_on_c, 1, 60, 100
5, 262080, Note_on_c, 1, 61, 100
5, 262080, Note_on_c, 0, 70, 100
5, 262320, Note_on_c, 1, 60, 0
5, 262320, Note_on_c, 1, 61, 0
5, 262320, Note_on_c, 0, 70, 0
5, 262560, Note_on_c, 1, 61, 100
5, 262800, Note_on_c, 1, 61, 0
5, 263040, Note_on_c, 1, 61, 100
5, 263280, Note_on_c, 1, 61, 0
5, 263520, Note_on_c, 1, 60, 100
5, 263520, Note_on_c, 1, 61, 100
5, 263760, Note_on_c, 1, 60, 0
5, 263760, Note_on_c, 1, 61, 0
5, 264000, Note_on_c, 1, 61, 100
5, 264240, Note_on_c, 1, 61, 0
5, 264480, Note_on_c, 1, 61, 100
5, 264720, Note_on_c, 1, 61, 0
5, 264960, Note_on_c, 1, 60, 100
5, 264960, Note_on_c, 1, 61, 100
5, 264960, Note_on_c, 0, 70, 100
5, 265200, Note_on_c, 1, 60, 0
5, 265200, Note_on_c, 1, 61, 0
5, 265200, Note_on_c, 0, 70, 0
5, 266400, Note_on_c, 1, 60, 100
5, 266400, Note_on_c, 1, 61, 100
5, 266640, Note_on_c, 1, 60, 0
5, 266640, Note_on_c, 1, 61, 0
5, 266880, Note_on_c, 1, 61, 100
5, 266880, Note_on_c, 0, 68, 100
5, 267120, Note_on_c, 1, 61, 0
5, 267120, Note_on_c, 0, 68, 0
5, 267840, Note_on_c, 1, 60, 100
5, 267840, Note_on_c, 1, 61, 100
5, 267840, Note_on_c, 0, 69, 100
5, 268080, Note_on_c, 1, 60, 0
5, 268080, Note_on_c, 1, 61, 0
5, 268080, Note_on_c, 0, 69, 0
5, 269760, Note_on_c, 1, 60, 100
5, 269760, Note_on_c, 1, 61, 100
5, 269760, Note_on_c, 0, 68, 100
5, 270000, Note_on_c, 1, 60, 0
5, 270000, Note_on_c, 1, 61, 0
5, 270000, Note_on_c, 0, 68, 0
5, 270240, Note_on_c, 1, 60, 100
5, 270480, Note_on_c, 1, 60, 0
5, 270720, Note_on_c, 1, 61, 100
5, 270720, Note_on_c, 0, 69, 100
5, 270960, Note_on_c, 1, 61, 0
5, 270960, Note_on_c, 0, 69, 0
5, 271200, Note_on_c, 1, 60, 100
5, 271440, Note_on_c, 1, 60, 0
5, 272640, Note_on_c, 1, 60, 100
5, 272640, Note_on_c, 1, 61, 100
5, 272640, Note_on_c, 0, 69, 100
5, 272880, Note_on_c, 1, 60, 0
5, 272880, Note_on_c, 1, 61, 0
5, 273600, Note_on_c, 1, 60, 100
5, 273840, Note_on_c, 1, 60, 0
5, 274080, Note_on_c, 1, 60, 100
5, 274080, Note_on_c, 1, 61, 100
5, 274320, Note_on_c, 1, 60, 0
5, 274320, Note_on_c, 1, 61, 0
5, 275520, Note_on_c, 0, 69, 0
5, 275520, Note_on_c, 1, 60, 100
5, 275520, Note_on_c, 1, 61, 100
5, 275760, Note_on_c, 1, 60, 0
5, 275760, Note_on_c, 1, 61, 0
5, 276480, Note_on_c, 1, 60, 100
5, 276480, Note_on_c, 1, 61, 100
5, 276480, Note_on_c, 0, 70, 100
5, 276720, Note_on_c, 1, 60, 0
5, 276720, Note_on_c, 1, 61, 0
5, 276720, Note_on_c, 0, 70, 0
5, 277920, Note_on_c, 1, 61, 100
5, 278160, Note_on_c, 1, 61, 0
5, 278400, Note_on_c, 1, 60, 100
5, 278400, Note_on_c, 1, 61, 100
5, 278400, Note_on_c, 0, 68, 100
5, 278640, Note_on_c, 1, 60, 0
5, 278640, Note_on_c, 1, 61, 0
5, 278640, Note_on_c, 0, 68, 0
5, 279360, Note_on_c, 1, 60, 100
5, 279360, Note_on_c, 1, 61, 100
5, 279360, Note_on_c, 0, 69, 100
5, 279600, Note_on_c, 1, 60, 0
5, 279600, Note_on_c, 1, 61, 0
5, 279600, Note_on_c, 0, 69, 0
5, 281280, Note_on_c, 1, 60, 100
5, 281280, Note_on_c, 1, 61, 100
5, 281280, Note_on_c, 0, 68, 100
5, 281520, Note_on_c, 1, 60, 0
5, 281520, Note_on_c, 1, 61, 0
5, 281520, Note_on_c, 0, 68, 0
5, 281760, Note_on_c, 1, 60, 100
5, 282000, Note_on_c, 1, 60, 0
5, 282240, Note_on_c, 1, 61, 100
5, 282240, Note_on_c, 0, 69, 100
5, 282480, Note_on_c, 1, 61, 0
5, 282480, Note_on_c, 0, 69, 0
5, 283200, Note_on_c, 1, 60, 100
5, 283440, Note_on_c, 1, 60, 0
5, 284160, Note_on_c, 1, 60, 100
5, 284160, Note_on_c, 1, 61, 100
5, 284160, Note_on_c, 0, 69, 100
5, 284400, Note_on_c, 1, 60, 0
5, 284400, Note_on_c, 1, 61, 0
5, 285120, Note_on_c, 1, 60, 100
5, 285360, Note_on_c, 1, 60, 0
5, 285600, Note_on_c, 1, 61, 100
5, 285840, Note_on_c, 1, 61, 0
5, 286560, Note_on_c, 1, 60, 100
5, 286800, Note_on_c, 1, 60, 0
5, 287040, Note_on_c, 0, 69, 0
5, 287040, Note_on_c, 1, 60, 100
5, 287040, Note_on_c, 1, 61, 100
5, 287280, Note_on_c, 1, 60, 0
5, 287280, Note_on_c, 1, 61, 0
5, 288000, Note_on_c, 1, 60, 100
5, 288000, Note_on_c, 1, 61, 100
5, 288000, Note_on_c, 0, 70, 100
5, 288240, Note_on_c, 1, 60, 0
5, 288240, Note_on_c, 1, 61, 0
5, 288240, Note_on_c, 0, 70, 0
5, 289440, Note_on_c, 1, 60, 100
5, 289440, Note_on_c, 1, 61, 100
5, 289680, Note_on_c, 1, 60, 0
5, 289680, Note_on_c, 1, 61, 0
5, 289920, Note_on_c, 1, 61, 100
5, 289920, Note_on_c, 0, 68, 100
5, 290160, Note_on_c, 1, 61, 0
5, 290160, Note_on_c, 0, 68, 0
5, 290880, Note_on_c, 1, 60, 100
5, 290880, Note_on_c, 1, 61, 100
5, 290880, Note_on_c, 0, 69, 100
5, 291120, Note_on_c, 1, 60, 0
5, 291120, Note_on_c, 1, 61, 0
5, 291120, Note_on_c, 0, 69, 0
5, 292800, Note_on_c, 1, 60, 100
5, 292800, Note_on_c, 1, 61, 100
5, 292800, Note_on_c, 0, 68, 100
5, 293040, Note_on_c, 1, 60, 0
5, 293040, Note_on_c, 1, 61, 0
5, 293040, Note_on_c, 0, 68, 0
5, 293280, Note_on_c, 1, 60, 100
5, 293520, Note_on_c, 1, 60, 0
5, 293760, Note_on_c, 1, 61, 100
5, 293760, Note_on_c, 0, 69, 100
5, 294000, Note_on_c, 1, 61, 0
5, 294000, Note_on_c, 0, 69, 0
5, 294720, Note_on_c, 1, 60, 100
5, 294960, Note_on_c, 1, 60, 0
5, 295680, Note_on_c, 1, 60, 100
5, 295680, Note_on_c, 1, 61, 100
5, 295680, Note_on_c, 0, 69, 100
5, 295920, Note_on_c, 1, 60, 0
5, 295920, Note_on_c, 1, 61, 0
5, 296160, Note_on_c, 1, 60, 100
5, 296400, Note_on_c, 1, 60, 0
5, 296640, Note_on_c, 1, 60, 100
5, 296880, Note_on_c, 1, 60, 0
5, 297120, Note_on_c, 1, 61, 100
5, 297360, Note_on_c, 1, 61, 0
5, 298560, Note_on_c, 0, 69, 0
5, 298560, Note_on_c, 1, 60, 100
5, 298560, Note_on_c, 1, 61, 100
5, 298800, Note_on_c, 1, 60, 0
5, 298800, Note_on_c, 1, 61, 0
5, 299520, Note_on_c, 1, 60, 100
5, 299520, Note_on_c, 1, 61, 100
5, 299520, Note_on_c, 0, 70, 100
5, 299760, Note_on_c, 1, 60, 0
5, 299760, Note_on_c, 1, 61, 0
5, 299760, Note_on_c, 0, 70, 0
5, 300960, Note_on_c, 1, 60, 100
5, 300960, Note_on_c, 1, 61, 100
5, 301200, Note_on_c, 1, 60, 0
5, 301200, Note_on_c, 1, 61, 0
5, 301440, Note_on_c, 1, 61, 100
5, 301440, Note_on_c, 0, 68, 100
5, 301680, Note_on_c, 1, 61, 0
5, 301680, Note_on_c, 0, 68, 0
5, 302400, Note_on_c, 1, 60, 100
5, 302400, Note_on_c, 1, 61, 100
5, 302400, Note_on_c, 0, 69, 100
5, 302640, Note_on_c, 1, 60, 0
5, 302640, Note_on_c, 1, 61, 0
5, 302640, Note_on_c, 0, 69, 0
5, 304320, Note_on_c, 1, 60, 100
5, 304320, Note_on_c, 1, 61, 100
5, 304320, Note_on_c, 0, 68, 100
5, 304560, Note_on_c, 1, 60, 0
5, 304560, Note_on_c, 1, 61, 0
5, 304560, Note_on_c, 0, 68, 0
5, 304800, Note_on_c, 1, 60, 100
5, 305040, Note_on_c, 1, 60, 0
5, 305280, Note_on_c, 1, 61, 100
5, 305280, Note_on_c, 0, 69, 100
5, 305520, Note_on_c, 1, 61, 0
5, 305520, Note_on_c, 0, 69, 0
5, 306240, Note_on_c, 1, 60, 100
5, 306480, Note_on_c, 1, 60, 0
5, 307200, Note_on_c, 1, 60, 100
5, 307200, Note_on_c, 1, 61, 100
5, 307200, Note_on_c, 0, 69, 100
5, 307440, Note_on_c, 1, 60, 0
5, 307440, Note_on_c, 1, 61, 0
5, 307680, Note_on_c, 1, 60, 100
5, 307920, Note_on_c, 1, 60, 0
5, 308640, Note_on_c, 1, 60, 100
5, 308640, Note_on_c, 1, 61, 100
5, 308880, Note_on_c, 1, 60, 0
5, 308880, Note_on_c, 1, 61, 0
5, 310080, Note_on_c, 0, 69, 0
5, 310080, Note_on_c, 1, 60, 100
5, 310080, Note_on_c, 1, 61, 100
5, 310320, Note_on_c, 1, 60, 0
5, 310320, Note_on_c, 1, 61, 0
5, 311040, Note_on_c, 1, 60, 100
5, 311040, Note_on_c, 1, 61, 100
5, 311040, Note_on_c, 0, 68, 100
5, 311280, Note_on_c, 1, 60, 0
5, 311280, Note_on_c, 1, 61, 0
5, 312480, Note_on_c, 1, 60, 100
5, 312480, Note_on_c, 1, 61, 100
5, 312720, Note_on_c, 1, 60, 0
5, 312720, Note_on_c, 1, 61, 0
5, 313440, Note_on_c, 1, 60, 100
5, 313440, Note_on_c, 1, 61, 100
5, 313680, Note_on_c, 1, 60, 0
5, 313680, Note_on_c, 1, 61, 0
5, 313920, Note_on_c, 0, 68, 0
5, 314880, Note_on_c, 1, 60, 100
5, 314880, Note_on_c, 1, 61, 100
5, 314880, Note_on_c, 0, 68, 100
5, 315120, Note_on_c, 1, 60, 0
5, 315120, Note_on_c, 1, 61, 0
5, 315840, Note_on_c, 1, 61, 100
5, 316080, Note_on_c, 1, 61, 0
5, 316320, Note_on_c, 1, 61, 100
5, 316560, Note_on_c, 1, 61, 0
5, 316800, Note_on_c, 1, 60, 100
5, 316800, Note_on_c, 1, 61, 100
5, 317040, Note_on_c, 1, 60, 0
5, 317040, Note_on_c, 1, 61, 0
5, 317280, Note_on_c, 1, 60, 100
5, 317280, Note_on_c, 1, 61, 100
5, 317520, Note_on_c, 1, 60, 0
5, 317520, Note_on_c, 1, 61, 0
5, 317760, Note_on_c, 0, 68, 0
5, 317760, Note_on_c, 1, 61, 100
5, 318000, Note_on_c, 1, 61, 0
5, 318240, Note_on_c, 1, 61, 100
5, 318480, Note_on_c, 1, 61, 0
5, 318720, Note_on_c, 1, 60, 100
5, 318720, Note_on_c, 1, 61, 100
5, 318720, Note_on_c, 0, 70, 100
5, 318960, Note_on_c, 1, 60, 0
5, 318960, Note_on_c, 1, 61, 0
5, 318960, Note_on_c, 0, 70, 0
5, 319200, Note_on_c, 1, 61, 100
5, 319440, Note_on_c, 1, 61, 0
5, 319680, Note_on_c, 1, 61, 100
5, 319920, Note_on_c, 1, 61, 0
5, 320160, Note_on_c, 1, 60, 100
5, 320160, Note_on_c, 1, 61, 100
5, 320160, Note_on_c, 0, 69, 100
5, 320400, Note_on_c, 1, 60, 0
5, 320400, Note_on_c, 1, 61, 0
5, 320400, Note_on_c, 0, 69, 0
5, 320640, Note_on_c, 1, 61, 100
5, 320880, Note_on_c, 1, 61, 0
5, 321120, Note_on_c, 1, 60, 100
5, 321120, Note_on_c, 1, 61, 100
5, 321360, Note_on_c, 1, 60, 0
5, 321360, Note_on_c, 1, 61, 0
5, 321600, Note_on_c, 1, 61, 100
5, 321840, Note_on_c, 1, 61, 0
5, 322080, Note_on_c, 1, 61, 100
5, 322320, Note_on_c, 1, 61, 0
5, 322560, Note_on_c, 1, 60, 100
5, 322560, Note_on_c, 1, 61, 100
5, 322560, Note_on_c, 0, 68, 100
5, 322800, Note_on_c, 1, 60, 0
5, 322800, Note_on_c, 1, 61, 0
5, 323040, Note_on_c, 1, 60, 100
5, 323040, Note_on_c, 1, 61, 100
5, 323280, Note_on_c, 1, 60, 0
5, 323280, Note_on_c, 1, 61, 0
5, 323520, Note_on_c, 1, 61, 100
5, 323760, Note_on_c, 1, 61, 0
5, 324000, Note_on_c, 1, 61, 100
5, 324240, Note_on_c, 1, 61, 0
5, 324480, Note_on_c, 1, 60, 100
5, 324480, Note_on_c, 1, 61, 100
5, 324720, Note_on_c, 1, 60, 0
5, 324720, Note_on_c, 1, 61, 0
5, 324960, Note_on_c, 1, 60, 100
5, 324960, Note_on_c, 1, 61, 100
5, 325200, Note_on_c, 1, 60, 0
5, 325200, Note_on_c, 1, 61, 0
5, 325440, Note_on_c, 0, 68, 0
5, 325440, Note_on_c, 1, 61, 100
5, 325680, Note_on_c, 1, 61, 0
5, 325920, Note_on_c, 1, 61, 100
5, 326160, Note_on_c, 1, 61, 0
5, 326400, Note_on_c, 1, 60, 100
5, 326400, Note_on_c, 1, 61, 100
5, 326400, Note_on_c, 0, 70, 100
5, 326640, Note_on_c, 1, 60, 0
5, 326640, Note_on_c, 1, 61, 0
5, 326640, Note_on_c, 0, 70, 0
5, 326880, Note_on_c, 1, 61, 100
5, 327120, Note_on_c, 1, 61, 0
5, 327360, Note_on_c, 1, 61, 100
5, 327600, Note_on_c, 1, 61, 0
5, 327840, Note_on_c, 1, 60, 100
5, 327840, Note_on_c, 1, 61, 100
5, 327840, Note_on_c, 0, 69, 100
5, 328080, Note_on_c, 1, 60, 0
5, 328080, Note_on_c, 1, 61, 0
5, 328080, Note_on_c, 0, 69, 0
5, 328320, Note_on_c, 1, 61, 100
5, 328560, Note_on_c, 1, 61, 0
5, 328800, Note_on_c, 1, 60, 100
5, 328800, Note_on_c, 1, 61, 100
5, 329040, Note_on_c, 1, 60, 0
5, 329040, Note_on_c, 1, 61, 0
5, 329280, Note_on_c, 1, 61, 100
5, 329520, Note_on_c, 1, 61, 0
5, 329760, Note_on_c, 1, 61, 100
5, 330000, Note_on_c, 1, 61, 0
5, 330240, Note_on_c, 1, 60, 100
5, 330240, Note_on_c, 1, 61, 100
5, 330240, Note_on_c, 0, 68, 100
5, 330480, Note_on_c, 1, 60, 0
5, 330480, Note_on_c, 1, 61, 0
5, 330720, Note_on_c, 1, 60, 100
5, 330720, Note_on_c, 1, 61, 100
5, 330960, Note_on_c, 1, 60, 0
5, 330960, Note_on_c, 1, 61, 0
5, 331200, Note_on_c, 1, 61, 100
5, 331440, Note_on_c, 1, 61, 0
5, 331680, Note_on_c, 1, 61, 100
5, 331920, Note_on_c, 1, 61, 0
5, 332160, Note_on_c, 1, 60, 100
5, 332160, Note_on_c, 1, 61, 100
5, 332400, Note_on_c, 1, 60, 0
5, 332400, Note_on_c, 1, 61, 0
5, 332640, Note_on_c, 1, 60, 100
5, 332640, Note_on_c, 1, 61, 100
5, 332880, Note_on_c, 1, 60, 0
5, 332880, Note_on_c, 1, 61, 0
5, 333120, Note_on_c, 0, 68, 0
5, 333120, Note_on_c, 1, 61, 100
5, 333360, Note_on_c, 1, 61, 0
5, 333600, Note_on_c, 1, 61, 100
5, 333840, Note_on_c, 1, 61, 0
5, 334080, Note_on_c, 1, 60, 100
5, 334080, Note_on_c, 1, 61, 100
5, 334080, Note_on_c, 0, 70, 100
5, 334320, Note_on_c, 1, 60, 0
5, 334320, Note_on_c, 1, 61, 0
5, 334320, Note_on_c, 0, 70, 0
5, 334560, Note_on_c, 1, 61, 100
5, 334800, Note_on_c, 1, 61, 0
5, 335040, Note_on_c, 1, 61, 100
5, 335280, Note_on_c, 1, 61, 0
5, 335520, Note_on_c, 1, 60, 100
5, 335520, Note_on_c, 1, 61, 100
5, 335520, Note_on_c, 0, 69, 100
5, 335760, Note_on_c, 1, 60, 0
5, 335760, Note_on_c, 1, 61, 0
5, 335760, Note_on_c, 0, 69, 0
5, 336000, Note_on_c, 1, 61, 100
5, 336240, Note_on_c, 1, 61, 0
5, 336480, Note_on_c, 1, 60, 100
5, 336480, Note_on_c, 1, 61, 100
5, 336720, Note_on_c, 1, 60, 0
5, 336720, Note_on_c, 1, 61, 0
5, 336960, Note_on_c, 1, 61, 100
5, 337200, Note_on_c, 1, 61, 0
5, 337440, Note_on_c, 1, 61, 100
5, 337680, Note_on_c, 1, 61, 0
5, 337920, Note_on_c, 1, 60, 100
5, 337920, Note_on_c, 1, 61, 100
5, 337920, Note_on_c, 0, 68, 100
5, 338160, Note_on_c, 1, 60, 0
5, 338160, Note_on_c, 1, 61, 0
5, 338400, Note_on_c, 1, 60, 100
5, 338400, Note_on_c, 1, 61, 100
5, 338640, Note_on_c, 1, 60, 0
5, 338640, Note_on_c, 1, 61, 0
5, 338880, Note_on_c, 1, 61, 100
5, 339120, Note_on_c, 1, 61, 0
5, 339360, Note_on_c, 1, 61, 100
5, 339600, Note_on_c, 1, 61, 0
5, 339840, Note_on_c, 1, 60, 100
5, 339840, Note_on_c, 1, 61, 100
5, 340080, Note_on_c, 1, 60, 0
5, 340080, Note_on_c, 1, 61, 0
5, 340320, Note_on_c, 1, 60, 100
5, 340320, Note_on_c, 1, 61, 100
5, 340560, Note_on_c, 1, 60, 0
5, 340560, Note_on_c, 1, 61, 0
5, 340800, Note_on_c, 0, 68, 0
5, 340800, Note_on_c, 1, 61, 100
5, 341040, Note_on_c, 1, 61, 0
5, 341280, Note_on_c, 1, 61, 100
5, 341520, Note_on_c, 1, 61, 0
5, 341760, Note_on_c, 1, 60, 100
5, 341760, Note_on_c, 1, 61, 100
5, 341760, Note_on_c, 0, 70, 100
5, 342000, Note_on_c, 1, 60, 0
5, 342000, Note_on_c, 1, 61, 0
5, 342000, Note_on_c, 0, 70, 0
5, 342240, Note_on_c, 1, 61, 100
5, 342480, Note_on_c, 1, 61, 0
5, 342720, Note_on_c, 1, 60, 100
5, 342720, Note_on_c, 1, 61, 100
5, 342960, Note_on_c, 1, 60, 0
5, 342960, Note_on_c, 1, 61, 0
5, 343200, Note_on_c, 1, 61, 100
5, 343200, Note_on_c, 0, 69, 100
5, 343440, Note_on_c, 1, 61, 0
5, 343440, Note_on_c, 0, 69, 0
5, 343680, Note_on_c, 1, 60, 100
5, 343680, Note_on_c, 1, 61, 100
5, 343920, Note_on_c, 1, 60, 0
5, 343920, Note_on_c, 1, 61, 0
5, 344160, Note_on_c, 1, 61, 100
5, 344400, Note_on_c, 1, 61, 0
5, 344640, Note_on_c, 1, 60, 100
5, 344640, Note_on_c, 1, 61, 100
5, 344880, Note_on_c, 1, 60, 0
5, 344880, Note_on_c, 1, 61, 0
5, 345120, Note_on_c, 1, 61, 100
5, 345360, Note_on_c, 1, 61, 0
5, 345600, Note_on_c, 1, 60, 100
5, 345600, Note_on_c, 1, 61, 100
5, 345600, Note_on_c, 0, 68, 100
5, 345840, Note_on_c, 1, 60, 0
5, 345840, Note_on_c, 1, 61, 0
5, 345840, Note_on_c, 0, 68, 0
5, 346080, Note_on_c, 1, 61, 100
5, 346320, Note_on_c, 1, 61, 0
5, 346560, Note_on_c, 1, 61, 100
5, 346800, Note_on_c, 1, 61, 0
5, 347040, Note_on_c, 1, 60, 100
5, 347040, Note_on_c, 1, 61, 100
5, 347280, Note_on_c, 1, 60, 0
5, 347280, Note_on_c, 1, 61, 0
5, 347520, Note_on_c, 1, 61, 100
5, 347760, Note_on_c, 1, 61, 0
5, 348000, Note_on_c, 1, 60, 100
5, 348000, Note_on_c, 1, 61, 100
5, 348240, Note_on_c, 1, 60, 0
5, 348240, Note_on_c, 1, 61, 0
5, 348480, Note_on_c, 1, 61, 100
5, 348720, Note_on_c, 1, 61, 0
5, 348960, Note_on_c, 1, 61, 100
5, 349200, Note_on_c, 1, 61, 0
5, 349440, Note_on_c, 1, 60, 100
5, 349440, Note_on_c, 1, 61, 100
5, 349680, Note_on_c, 1, 60, 0
5, 349680, Note_on_c, 1, 61, 0
5, 349920, Note_on_c, 1, 60, 100
5, 349920, Note_on_c, 1, 61, 100
5, 350160, Note_on_c, 1, 60, 0
5, 350160, Note_on_c, 1, 61, 0
5, 350400, Note_on_c, 1, 61, 100
5, 350640, Note_on_c, 1, 61, 0
5, 350880, Note_on_c, 1, 61, 100
5, 351120, Note_on_c, 1, 61, 0
5, 351360, Note_on_c, 1, 60, 100
5, 351360, Note_on_c, 1, 61, 100
5, 351600, Note_on_c, 1, 60, 0
5, 351600, Note_on_c, 1, 61, 0
5, 351840, Note_on_c, 1, 61, 100
5, 352080, Note_on_c, 1, 61, 0
5, 352320, Note_on_c, 1, 61, 100
5, 352560, Note_on_c, 1, 61, 0
5, 352800, Note_on_c, 1, 60, 100
5, 352800, Note_on_c, 1, 61, 100
5, 353040, Note_on_c, 1, 60, 0
5, 353040, Note_on_c, 1, 61, 0
5, 353280, Note_on_c, 1, 61, 100
5, 353520, Note_on_c, 1, 61, 0
5, 353760, Note_on_c, 1, 60, 100
5, 353760, Note_on_c, 1, 61, 100
5, 354000, Note_on_c, 1, 60, 0
5, 354000, Note_on_c, 1, 61, 0
5, 354240, Note_on_c, 1, 61, 100
5, 354480, Note_on_c, 1, 61, 0
5, 354720, Note_on_c, 1, 61, 100
5, 354960, Note_on_c, 1, 61, 0
5, 355200, Note_on_c, 1, 60, 100
5, 355200, Note_on_c, 1, 61, 100
5, 355440, Note_on_c, 1, 60, 0
5, 355440, Note_on_c, 1, 61, 0
5, 355680, Note_on_c, 1, 60, 100
5, 355680, Note_on_c, 1, 61, 100
5, 355920, Note_on_c, 1, 60, 0
5, 355920, Note_on_c, 1, 61, 0
5, 356160, Note_on_c, 1, 61, 100
5, 356400, Note_on_c, 1, 61, 0
5, 356640, Note_on_c, 1, 61, 100
5, 356880, Note_on_c, 1, 61, 0
5, 357120, Note_on_c, 1, 60, 100
5, 357120, Note_on_c, 1, 61, 100
5, 357360, Note_on_c, 1, 60, 0
5, 357360, Note_on_c, 1, 61, 0
5, 357600, Note_on_c, 1, 61, 100
5, 357840, Note_on_c, 1, 61, 0
5, 358080, Note_on_c, 1, 61, 100
5, 358320, Note_on_c, 1, 61, 0
5, 358560, Note_on_c, 1, 60, 100
5, 358560, Note_on_c, 1, 61, 100
5, 358800, Note_on_c, 1, 60, 0
5, 358800, Note_on_c, 1, 61, 0
5, 359040, Note_on_c, 1, 61, 100
5, 359280, Note_on_c, 1, 61, 0
5, 359520, Note_on_c, 1, 60, 100
5, 359520, Note_on_c, 1, 61, 100
5, 359760, Note_on_c, 1, 60, 0
5, 359760, Note_on_c, 1, 61, 0
5, 360000, Note_on_c, 1, 61, 100
5, 360240, Note_on_c, 1, 61, 0
5, 360480, Note_on_c, 1, 61, 100
5, 360720, Note_on_c, 1, 61, 0
5, 360960, Note_on_c, 1, 60, 100
5, 360960, Note_on_c, 1, 61, 100
5, 361200, Note_on_c, 1, 60, 0
5, 361200, Note_on_c, 1, 61, 0
5, 361440, Note_on_c, 1, 60, 100
5, 361440, Note_on_c, 1, 61, 100
5, 361680, Note_on_c, 1, 60, 0
5, 361680, Note_on_c, 1, 61, 0
5, 361920, Note_on_c, 1, 61, 100
5, 362160, Note_on_c, 1, 61, 0
5, 362400, Note_on_c, 1, 61, 100
5, 362640, Note_on_c, 1, 61, 0
5, 362880, Note_on_c, 1, 60, 100
5, 362880, Note_on_c, 1, 61, 100
5, 363120, Note_on_c, 1, 60, 0
5, 363120, Note_on_c, 1, 61, 0
5, 363360, Note_on_c, 1, 61, 100
5, 363600, Note_on_c, 1, 61, 0
5, 363840, Note_on_c, 1, 61, 100
5, 364080, Note_on_c, 1, 61, 0
5, 364320, Note_on_c, 1, 60, 100
5, 364320, Note_on_c, 1, 61, 100
5, 364560, Note_on_c, 1, 60, 0
5, 364560, Note_on_c, 1, 61, 0
5, 364800, Note_on_c, 1, 61, 100
5, 365040, Note_on_c, 1, 61, 0
5, 365280, Note_on_c, 1, 60, 100
5, 365280, Note_on_c, 1, 61, 100
5, 365520, Note_on_c, 1, 60, 0
5, 365520, Note_on_c, 1, 61, 0
5, 365760, Note_on_c, 1, 61, 100
5, 366000, Note_on_c, 1, 61, 0
5, 366240, Note_on_c, 1, 61, 100
5, 366480, Note_on_c, 1, 61, 0
5, 366720, Note_on_c, 1, 60, 100
5, 366720, Note_on_c, 1, 61, 100
5, 366960, Note_on_c, 1, 60, 0
5, 366960, Note_on_c, 1, 61, 0
5, 367200, Note_on_c, 1, 60, 100
5, 367200, Note_on_c, 1, 61, 100
5, 367440, Note_on_c, 1, 60, 0
5, 367440, Note_on_c, 1, 61, 0
5, 367680, Note_on_c, 1, 61, 100
5, 367920, Note_on_c, 1, 61, 0
5, 368160, Note_on_c, 1, 61, 100
5, 368400, Note_on_c, 1, 61, 0
5, 368640, Note_on_c, 1, 60, 100
5, 368640, Note_on_c, 1, 61, 100
5, 368640, Note_on_c, 0, 68, 100
5, 368880, Note_on_c, 1, 60, 0
5, 368880, Note_on_c, 1, 61, 0
5, 368880, Note_on_c, 0, 68, 0
5, 369120, Note_on_c, 1, 61, 100
5, 369360, Note_on_c, 1, 61, 0
5, 369600, Note_on_c, 1, 61, 100
5, 369840, Note_on_c, 1, 61, 0
5, 370080, Note_on_c, 1, 60, 100
5, 370080, Note_on_c, 1, 61, 100
5, 370320, Note_on_c, 1, 60, 0
5, 370320, Note_on_c, 1, 61, 0
5, 370560, Note_on_c, 1, 61, 100
5, 370800, Note_on_c, 1, 61, 0
5, 371040, Note_on_c, 1, 60, 100
5, 371040, Note_on_c, 1, 61, 100
5, 371280, Note_on_c, 1, 60, 0
5, 371280, Note_on_c, 1, 61, 0
5, 371520, Note_on_c, 1, 61, 100
5, 371520, Note_on_c, 0, 69, 100
5, 371760, Note_on_c, 1, 61, 0
5, 371760, Note_on_c, 0, 69, 0
5, 372000, Note_on_c, 1, 61, 100
5, 372240, Note_on_c, 1, 61, 0
5, 372480, Note_on_c, 1, 60, 100
5, 372480, Note_on_c, 1, 61, 100
5, 372720, Note_on_c, 1, 60, 0
5, 372720, Note_on_c, 1, 61, 0
5, 372960, Note_on_c, 1, 60, 100
5, 372960, Note_on_c, 1, 61, 100
5, 373200, Note_on_c, 1, 60, 0
5, 373200, Note_on_c, 1, 61, 0
5, 373440, Note_on_c, 1, 61, 100
5, 373680, Note_on_c, 1, 61, 0
5, 373920, Note_on_c, 1, 61, 100
5, 374160, Note_on_c, 1, 61, 0
5, 374400, Note_on_c, 1, 60, 100
5, 374400, Note_on_c, 1, 61, 100
5, 374400, Note_on_c, 0, 69, 100
5, 374640, Note_on_c, 1, 60, 0
5, 374640, Note_on_c, 1, 61, 0
5, 374640, Note_on_c, 0, 69, 0
5, 374880, Note_on_c, 1, 61, 100
5, 375120, Note_on_c, 1, 61, 0
5, 375360, Note_on_c, 1, 61, 100
5, 375600, Note_on_c, 1, 61, 0
5, 375840, Note_on_c, 1, 60, 100
5, 375840, Note_on_c, 1, 61, 100
5, 376080, Note_on_c, 1, 60, 0
5, 376080, Note_on_c, 1, 61, 0
5, 376320, Note_on_c, 1, 61, 100
5, 376560, Note_on_c, 1, 61, 0
5, 376800, Note_on_c, 1, 60, 100
5, 376800, Note_on_c, 1, 61, 100
5, 377040, Note_on_c, 1, 60, 0
5, 377040, Note_on_c, 1, 61, 0
5, 377280, Note_on_c, 1, 61, 100
5, 377280, Note_on_c, 0, 70, 100
5, 377520, Note_on_c, 1, 61, 0
5, 377520, Note_on_c, 0, 70, 0
5, 377760, Note_on_c, 1, 61, 100
5, 378000, Note_on_c, 1, 61, 0
5, 378240, Note_on_c, 1, 60, 100
5, 378240, Note_on_c, 1, 61, 100
5, 378480, Note_on_c, 1, 60, 0
5, 378480, Note_on_c, 1, 61, 0
5, 378720, Note_on_c, 1, 60, 100
5, 378720, Note_on_c, 1, 61, 100
5, 378960, Note_on_c, 1, 60, 0
5, 378960, Note_on_c, 1, 61, 0
5, 379200, Note_on_c, 1, 61, 100
5, 379440, Note_on_c, 1, 61, 0
5, 379680, Note_on_c, 1, 61, 100
5, 379920, Note_on_c, 1, 61, 0
5, 380160, Note_on_c, 1, 60, 100
5, 380160, Note_on_c, 1, 61, 100
5, 380160, Note_on_c, 0, 68, 100
5, 380400, Note_on_c, 1, 60, 0
5, 380400, Note_on_c, 1, 61, 0
5, 380400, Note_on_c, 0, 68, 0
5, 380640, Note_on_c, 1, 61, 100
5, 380880, Note_on_c, 1, 61, 0
5, 381120, Note_on_c, 1, 61, 100
5, 381360, Note_on_c, 1, 61, 0
5, 381600, Note_on_c, 1, 60, 100
5, 381600, Note_on_c, 1, 61, 100
5, 381840, Note_on_c, 1, 60, 0
5, 381840, Note_on_c, 1, 61, 0
5, 382080, Note_on_c, 1, 61, 100
5, 382320, Note_on_c, 1, 61, 0
5, 382560, Note_on_c, 1, 61, 100
5, 382800, Note_on_c, 1, 61, 0
5, 383040, Note_on_c, 1, 60, 100
5, 383040, Note_on_c, 1, 61, 100
5, 383040, Note_on_c, 0, 69, 100
5, 383280, Note_on_c, 1, 60, 0
5, 383280, Note_on_c, 1, 61, 0
5, 383280, Note_on_c, 0, 69, 0
5, 383520, Note_on_c, 1, 61, 100
5, 383760, Note_on_c, 1, 61, 0
5, 384000, Note_on_c, 1, 61, 100
5, 384240, Note_on_c, 1, 61, 0
5, 384480, Note_on_c, 1, 60, 100
5, 384480, Note_on_c, 1, 61, 100
5, 384720, Note_on_c, 1, 60, 0
5, 384720, Note_on_c, 1, 61, 0
5, 384960, Note_on_c, 1, 61, 100
5, 385200, Note_on_c, 1, 61, 0
5, 385440, Note_on_c, 1, 61, 100
5, 385680, Note_on_c, 1, 61, 0
5, 385920, Note_on_c, 1, 60, 100
5, 385920, Note_on_c, 1, 61, 100
5, 385920, Note_on_c, 0, 69, 100
5, 386160, Note_on_c, 1, 60, 0
5, 386160, Note_on_c, 1, 61, 0
5, 386160, Note_on_c, 0, 69, 0
5, 386400, Note_on_c, 1, 61, 100
5, 386640, Note_on_c, 1, 61, 0
5, 386880, Note_on_c, 1, 61, 100
5, 387120, Note_on_c, 1, 61, 0
5, 387360, Note_on_c, 1, 60, 100
5, 387360, Note_on_c, 1, 61, 100
5, 387600, Note_on_c, 1, 60, 0
5, 387600, Note_on_c, 1, 61, 0
5, 387840, Note_on_c, 1, 61, 100
5, 388080, Note_on_c, 1, 61, 0
5, 388320, Note_on_c, 1, 61, 100
5, 388560, Note_on_c, 1, 61, 0
5, 388800, Note_on_c, 1, 60, 100
5, 388800, Note_on_c, 1, 61, 100
5, 388800, Note_on_c, 0, 70, 100
5, 389040, Note_on_c, 1, 60, 0
5, 389040, Note_on_c, 1, 61, 0
5, 389040, Note_on_c, 0, 70, 0
5, 389280, Note_on_c, 1, 61, 100
5, 389520, Note_on_c, 1, 61, 0
5, 389760, Note_on_c, 1, 61, 100
5, 390000, Note_on_c, 1, 61, 0
5, 390240, Note_on_c, 1, 60, 100
5, 390240, Note_on_c, 1, 61, 100
5, 390480, Note_on_c, 1, 60, 0
5, 390480, Note_on_c, 1, 61, 0
5, 390720, Note_on_c, 1, 61, 100
5, 390960, Note_on_c, 1, 61, 0
5, 391200, Note_on_c, 1, 61, 100
5, 391440, Note_on_c, 1, 61, 0
5, 391680, Note_on_c, 1, 60, 100
5, 391680, Note_on_c, 1, 61, 100
5, 391680, Note_on_c, 0, 69, 100
5, 391920, Note_on_c, 1, 60, 0
5, 391920, Note_on_c, 1, 61, 0
5, 392160, Note_on_c, 1, 61, 100
5, 392400, Note_on_c, 1, 61, 0
5, 392640, Note_on_c, 1, 61, 100
5, 392880, Note_on_c, 1, 61, 0
5, 393120, Note_on_c, 1, 61, 100
5, 393360, Note_on_c, 1, 61, 0
5, 393600, Note_on_c, 1, 60, 100
5, 393600, Note_on_c, 1, 61, 100
5, 393840, Note_on_c, 1, 60, 0
5, 393840, Note_on_c, 1, 61, 0
5, 394080, Note_on_c, 1, 60, 100
5, 394080, Note_on_c, 1, 61, 100
5, 394320, Note_on_c, 1, 60, 0
5, 394320, Note_on_c, 1, 61, 0
5, 394560, Note_on_c, 0, 69, 0
5, 394560, Note_on_c, 1, 61, 100
5, 394800, Note_on_c, 1, 61, 0
5, 395040, Note_on_c, 1, 61, 100
5, 395280, Note_on_c, 1, 61, 0
5, 395520, Note_on_c, 1, 60, 100
5, 395520, Note_on_c, 1, 61, 100
5, 395520, Note_on_c, 0, 70, 100
5, 395760, Note_on_c, 1, 60, 0
5, 395760, Note_on_c, 1, 61, 0
5, 395760, Note_on_c, 0, 70, 0
5, 396000, Note_on_c, 1, 60, 100
5, 396000, Note_on_c, 1, 61, 100
5, 396240, Note_on_c, 1, 60, 0
5, 396240, Note_on_c, 1, 61, 0
5, 396480, Note_on_c, 1, 61, 100
5, 396720, Note_on_c, 1, 61, 0
5, 396960, Note_on_c, 1, 60, 100
5, 396960, Note_on_c, 1, 61, 100
5, 396960, Note_on_c, 0, 69, 100
5, 397200, Note_on_c, 1, 60, 0
5, 397200, Note_on_c, 1, 61, 0
5, 397200, Note_on_c, 0, 69, 0
5, 397440, Note_on_c, 1, 61, 100
5, 397680, Note_on_c, 1, 61, 0
5, 397920, Note_on_c, 1, 60, 100
5, 397920, Note_on_c, 1, 61, 100
5, 398160, Note_on_c, 1, 60, 0
5, 398160, Note_on_c, 1, 61, 0
5, 398400, Note_on_c, 1, 61, 100
5, 398640, Note_on_c, 1, 61, 0
5, 398880, Note_on_c, 1, 61, 100
5, 399120, Note_on_c, 1, 61, 0
5, 399360, Note_on_c, 1, 60, 100
5, 399360, Note_on_c, 1, 61, 100
5, 399360, Note_on_c, 0, 69, 100
5, 399600, Note_on_c, 1, 60, 0
5, 399600, Note_on_c, 1, 61, 0
5, 399840, Note_on_c, 1, 60, 100
5, 399840, Note_on_c, 1, 61, 100
5, 400080, Note_on_c, 1, 60, 0
5, 400080, Note_on_c, 1, 61, 0
5, 400320, Note_on_c, 1, 61, 100
5, 400560, Note_on_c, 1, 61, 0
5, 400800, Note_on_c, 1, 61, 100
5, 401040, Note_on_c, 1, 61, 0
5, 401280, Note_on_c, 1, 60, 100
5, 401280, Note_on_c, 1, 61, 100
5, 401520, Note_on_c, 1, 60, 0
5, 401520, Note_on_c, 1, 61, 0
5, 401760, Note_on_c, 1, 60, 100
5, 401760, Note_on_c, 1, 61, 100
5, 402000, Note_on_c, 1, 60, 0
5, 402000, Note_on_c, 1, 61, 0
5, 402240, Note_on_c, 0, 69, 0
5, 402240, Note_on_c, 1, 61, 100
5, 402480, Note_on_c, 1, 61, 0
5, 402720, Note_on_c, 1, 61, 100
5, 402960, Note_on_c, 1, 61, 0
5, 403200, Note_on_c, 1, 60, 100
5, 403200, Note_on_c, 1, 61, 100
5, 403200, Note_on_c, 0, 70, 100
5, 403440, Note_on_c, 1, 60, 0
5, 403440, Note_on_c, 1, 61, 0
5, 403440, Note_on_c, 0, 70, 0
5, 403440, Note_on_c, 1, 60, 100
5, 403680, Note_on_c, 1, 60, 0
5, 403680, Note_on_c, 1, 60, 100
5, 403680, Note_on_c, 1, 61, 100
5, 403920, Note_on_c, 1, 60, 0
5, 403920, Note_on_c, 1, 61, 0
5, 404160, Note_on_c, 1, 61, 100
5, 404400, Note_on_c, 1, 61, 0
5, 404640, Note_on_c, 1, 60, 100
5, 404640, Note_on_c, 1, 61, 100
5, 404640, Note_on_c, 0, 69, 100
5, 404880, Note_on_c, 1, 60, 0
5, 404880, Note_on_c, 1, 61, 0
5, 404880, Note_on_c, 0, 69, 0
5, 405120, Note_on_c, 1, 61, 100
5, 405360, Note_on_c, 1, 61, 0
5, 405600, Note_on_c, 1, 60, 100
5, 405600, Note_on_c, 1, 61, 100
5, 405840, Note_on_c, 1, 60, 0
5, 405840, Note_on_c, 1, 61, 0
5, 406080, Note_on_c, 1, 61, 100
5, 406320, Note_on_c, 1, 61, 0
5, 406560, Note_on_c, 1, 61, 100
5, 406800, Note_on_c, 1, 61, 0
5, 407040, Note_on_c, 1, 60, 100
5, 407040, Note_on_c, 1, 61, 100
5, 407040, Note_on_c, 0, 69, 100
5, 407280, Note_on_c, 1, 60, 0
5, 407280, Note_on_c, 1, 61, 0
5, 407520, Note_on_c, 1, 60, 100
5, 407520, Note_on_c, 1, 61, 100
5, 407760, Note_on_c, 1, 60, 0
5, 407760, Note_on_c, 1, 61, 0
5, 408000, Note_on_c, 1, 61, 100
5, 408240, Note_on_c, 1, 61, 0
5, 408480, Note_on_c, 1, 61, 100
5, 408720, Note_on_c, 1, 61, 0
5, 408960, Note_on_c, 1, 60, 100
5, 408960, Note_on_c, 1, 61, 100
5, 409200, Note_on_c, 1, 60, 0
5, 409200, Note_on_c, 1, 61, 0
5, 409440, Note_on_c, 1, 60, 100
5, 409440, Note_on_c, 1, 61, 100
5, 409680, Note_on_c, 1, 60, 0
5, 409680, Note_on_c, 1, 61, 0
5, 409920, Note_on_c, 0, 69, 0
5, 409920, Note_on_c, 1, 61, 100
5, 410160, Note_on_c, 1, 61, 0
5, 410400, Note_on_c, 1, 61, 100
5, 410640, Note_on_c, 1, 61, 0
5, 410880, Note_on_c, 1, 60, 100
5, 410880, Note_on_c, 1, 61, 100
5, 410880, Note_on_c, 0, 70, 100
5, 411120, Note_on_c, 1, 60, 0
5, 411120, Note_on_c, 1, 61, 0
5, 411120, Note_on_c, 0, 70, 0
5, 411360, Note_on_c, 1, 60, 100
5, 411360, Note_on_c, 1, 61, 100
5, 411600, Note_on_c, 1, 60, 0
5, 411600, Note_on_c, 1, 61, 0
5, 411840, Note_on_c, 1, 61, 100
5, 412080, Note_on_c, 1, 61, 0
5, 412320, Note_on_c, 1, 60, 100
5, 412320, Note_on_c, 1, 61, 100
5, 412320, Note_on_c, 0, 69, 100
5, 412560, Note_on_c, 1, 60, 0
5, 412560, Note_on_c, 1, 61, 0
5, 412560, Note_on_c, 0, 69, 0
5, 412800, Note_on_c, 1, 61, 100
5, 413040, Note_on_c, 1, 61, 0
5, 413280, Note_on_c, 1, 60, 100
5, 413280, Note_on_c, 1, 61, 100
5, 413520, Note_on_c, 1, 60, 0
5, 413520, Note_on_c, 1, 61, 0
5, 413760, Note_on_c, 1, 61, 100
5, 414000, Note_on_c, 1, 61, 0
5, 414240, Note_on_c, 1, 61, 100
5, 414480, Note_on_c, 1, 61, 0
5, 414720, Note_on_c, 1, 60, 100
5, 414720, Note_on_c, 1, 61, 100
5, 414720, Note_on_c, 0, 69, 100
5, 414960, Note_on_c, 1, 60, 0
5, 414960, Note_on_c, 1, 61, 0
5, 415200, Note_on_c, 1, 60, 100
5, 415200, Note_on_c, 1, 61, 100
5, 415440, Note_on_c, 1, 60, 0
5, 415440, Note_on_c, 1, 61, 0
5, 415680, Note_on_c, 1, 61, 100
5, 415920, Note_on_c, 1, 61, 0
5, 416160, Note_on_c, 1, 61, 100
5, 416400, Note_on_c, 1, 61, 0
5, 416640, Note_on_c, 1, 60, 100
5, 416640, Note_on_c, 1, 61, 100
5, 416880, Note_on_c, 1, 60, 0
5, 416880, Note_on_c, 1, 61, 0
5, 417120, Note_on_c, 1, 60, 100
5, 417120, Note_on_c, 1, 61, 100
5, 417360, Note_on_c, 1, 60, 0
5, 417360, Note_on_c, 1, 61, 0
5, 417600, Note_on_c, 0, 69, 0
5, 417600, Note_on_c, 1, 61, 100
5, 417840, Note_on_c, 1, 61, 0
5, 418080, Note_on_c, 1, 61, 100
5, 418320, Note_on_c, 1, 61, 0
5, 418560, Note_on_c, 1, 60, 100
5, 418560, Note_on_c, 1, 61, 100
5, 418560, Note_on_c, 0, 70, 100
5, 418800, Note_on_c, 1, 60, 0
5, 418800, Note_on_c, 1, 61, 0
5, 418800, Note_on_c, 0, 70, 0
5, 419040, Note_on_c, 1, 61, 100
5, 419280, Note_on_c, 1, 61, 0
5, 419520, Note_on_c, 1, 61, 100
5, 419760, Note_on_c, 1, 61, 0
5, 420000, Note_on_c, 1, 60, 100
5, 420000, Note_on_c, 1, 61, 100
5, 420000, Note_on_c, 0, 69, 100
5, 420240, Note_on_c, 1, 60, 0
5, 420240, Note_on_c, 1, 61, 0
5, 420240, Note_on_c, 0, 69, 0
5, 420480, Note_on_c, 1, 61, 100
5, 420720, Note_on_c, 1, 61, 0
5, 420960, Note_on_c, 1, 60, 100
5, 420960, Note_on_c, 1, 61, 100
5, 421200, Note_on_c, 1, 60, 0
5, 421200, Note_on_c, 1, 61, 0
5, 421440, Note_on_c, 1, 61, 100
5, 421680, Note_on_c, 1, 61, 0
5, 421920, Note_on_c, 1, 61, 100
5, 422160, Note_on_c, 1, 61, 0
5, 422400, Note_on_c, 1, 60, 100
5, 422400, Note_on_c, 1, 61, 100
5, 422400, Note_on_c, 0, 68, 100
5, 422640, Note_on_c, 1, 60, 0
5, 422640, Note_on_c, 1, 61, 0
5, 422880, Note_on_c, 1, 61, 100
5, 423120, Note_on_c, 1, 61, 0
5, 423360, Note_on_c, 1, 61, 100
5, 423600, Note_on_c, 1, 61, 0
5, 423840, Note_on_c, 1, 61, 100
5, 424080, Note_on_c, 1, 61, 0
5, 424320, Note_on_c, 1, 60, 100
5, 424320, Note_on_c, 1, 61, 100
5, 424560, Note_on_c, 1, 60, 0
5, 424560, Note_on_c, 1, 61, 0
5, 424800, Note_on_c, 1, 60, 100
5, 424800, Note_on_c, 1, 61, 100
5, 425040, Note_on_c, 1, 60, 0
5, 425040, Note_on_c, 1, 61, 0
5, 425280, Note_on_c, 0, 68, 0
5, 425280, Note_on_c, 1, 61, 100
5, 425520, Note_on_c, 1, 61, 0
5, 425760, Note_on_c, 1, 61, 100
5, 426000, Note_on_c, 1, 61, 0
5, 426240, Note_on_c, 1, 60, 100
5, 426240, Note_on_c, 1, 61, 100
5, 426240, Note_on_c, 0, 70, 100
5, 426480, Note_on_c, 1, 60, 0
5, 426480, Note_on_c, 1, 61, 0
5, 426480, Note_on_c, 0, 70, 0
5, 426720, Note_on_c, 1, 61, 100
5, 426960, Note_on_c, 1, 61, 0
5, 427200, Note_on_c, 1, 61, 100
5, 427440, Note_on_c, 1, 61, 0
5, 427680, Note_on_c, 1, 60, 100
5, 427680, Note_on_c, 1, 61, 100
5, 427680, Note_on_c, 0, 69, 100
5, 427920, Note_on_c, 1, 60, 0
5, 427920, Note_on_c, 1, 61, 0
5, 427920, Note_on_c, 0, 69, 0
5, 428160, Note_on_c, 1, 61, 100
5, 428400, Note_on_c, 1, 61, 0
5, 428640, Note_on_c, 1, 60, 100
5, 428640, Note_on_c, 1, 61, 100
5, 428880, Note_on_c, 1, 60, 0
5, 428880, Note_on_c, 1, 61, 0
5, 429120, Note_on_c, 1, 61, 100
5, 429360, Note_on_c, 1, 61, 0
5, 429600, Note_on_c, 1, 61, 100
5, 429840, Note_on_c, 1, 61, 0
5, 430080, Note_on_c, 1, 60, 100
5, 430080, Note_on_c, 1, 61, 100
5, 430080, Note_on_c, 0, 68, 100
5, 430320, Note_on_c, 1, 60, 0
5, 430320, Note_on_c, 1, 61, 0
5, 430560, Note_on_c, 1, 60, 100
5, 430560, Note_on_c, 1, 61, 100
5, 430800, Note_on_c, 1, 60, 0
5, 430800, Note_on_c, 1, 61, 0
5, 431040, Note_on_c, 1, 61, 100
5, 431280, Note_on_c, 1, 61, 0
5, 431520, Note_on_c, 1, 61, 100
5, 431760, Note_on_c, 1, 61, 0
5, 432000, Note_on_c, 1, 60, 100
5, 432000, Note_on_c, 1, 61, 100
5, 432240, Note_on_c, 1, 60, 0
5, 432240, Note_on_c, 1, 61, 0
5, 432480, Note_on_c, 1, 61, 100
5, 432720, Note_on_c, 1, 61, 0
5, 432960, Note_on_c, 0, 68, 0
5, 432960, Note_on_c, 1, 61, 100
5, 433200, Note_on_c, 1, 61, 0
5, 433440, Note_on_c, 1, 61, 100
5, 433680, Note_on_c, 1, 61, 0
5, 433920, Note_on_c, 1, 60, 100
5, 433920, Note_on_c, 1, 61, 100
5, 433920, Note_on_c, 0, 70, 100
5, 434160, Note_on_c, 1, 60, 0
5, 434160, Note_on_c, 1, 61, 0
5, 434160, Note_on_c, 0, 70, 0
5, 434400, Note_on_c, 1, 60, 100
5, 434400, Note_on_c, 1, 61, 100
5, 434640, Note_on_c, 1, 60, 0
5, 434640, Note_on_c, 1, 61, 0
5, 434880, Note_on_c, 1, 61, 100
5, 435120, Note_on_c, 1, 61, 0
5, 435360, Note_on_c, 1, 60, 100
5, 435360, Note_on_c, 1, 61, 100
5, 435360, Note_on_c, 0, 69, 100
5, 435600, Note_on_c, 1, 60, 0
5, 435600, Note_on_c, 1, 61, 0
5, 435600, Note_on_c, 0, 69, 0
5, 435840, Note_on_c, 1, 61, 100
5, 436080, Note_on_c, 1, 61, 0
5, 436320, Note_on_c, 1, 60, 100
5, 436320, Note_on_c, 1, 61, 100
5, 436560, Note_on_c, 1, 60, 0
5, 436560, Note_on_c, 1, 61, 0
5, 436800, Note_on_c, 1, 61, 100
5, 437040, Note_on_c, 1, 61, 0
5, 437280, Note_on_c, 1, 61, 100
5, 437520, Note_on_c, 1, 61, 0
5, 437760, Note_on_c, 1, 60, 100
5, 437760, Note_on_c, 1, 61, 100
5, 437760, Note_on_c, 0, 68, 100
5, 438000, Note_on_c, 1, 60, 0
5, 438000, Note_on_c, 1, 61, 0
5, 438240, Note_on_c, 1, 60, 100
5, 438240, Note_on_c, 1, 61, 100
5, 438480, Note_on_c, 1, 60, 0
5, 438480, Note_on_c, 1, 61, 0
5, 438720, Note_on_c, 1, 61, 100
5, 438960, Note_on_c, 1, 61, 0
5, 439200, Note_on_c, 1, 61, 100
5, 439440, Note_on_c, 1, 61, 0
5, 439680, Note_on_c, 1, 60, 100
5, 439680, Note_on_c, 1, 61, 100
5, 439920, Note_on_c, 1, 60, 0
5, 439920, Note_on_c, 1, 61, 0
5, 440160, Note_on_c, 1, 60, 100
5, 440160, Note_on_c, 1, 61, 100
5, 440400, Note_on_c, 1, 60, 0
5, 440400, Note_on_c, 1, 61, 0
5, 440640, Note_on_c, 0, 68, 0
5, 440640, Note_on_c, 1, 61, 100
5, 440880, Note_on_c, 1, 61, 0
5, 441120, Note_on_c, 1, 61, 100
5, 441360, Note_on_c, 1, 61, 0
5, 441600, Note_on_c, 1, 60, 100
5, 441600, Note_on_c, 1, 61, 100
5, 441600, Note_on_c, 0, 70, 100
5, 441840, Note_on_c, 1, 60, 0
5, 441840, Note_on_c, 1, 61, 0
5, 441840, Note_on_c, 0, 70, 0
5, 442080, Note_on_c, 1, 61, 100
5, 442320, Note_on_c, 1, 61, 0
5, 442560, Note_on_c, 1, 61, 100
5, 442800, Note_on_c, 1, 61, 0
5, 443040, Note_on_c, 1, 60, 100
5, 443040, Note_on_c, 1, 61, 100
5, 443040, Note_on_c, 0, 69, 100
5, 443280, Note_on_c, 1, 60, 0
5, 443280, Note_on_c, 1, 61, 0
5, 443280, Note_on_c, 0, 69, 0
5, 443520, Note_on_c, 1, 61, 100
5, 443760, Note_on_c, 1, 61, 0
5, 444000, Note_on_c, 1, 60, 100
5, 444000, Note_on_c, 1, 61, 100
5, 444240, Note_on_c, 1, 60, 0
5, 444240, Note_on_c, 1, 61, 0
5, 444480, Note_on_c, 1, 61, 100
5, 444720, Note_on_c, 1, 61, 0
5, 444960, Note_on_c, 1, 61, 100
5, 445200, Note_on_c, 1, 61, 0
5, 445440, Note_on_c, 1, 60, 100
5, 445440, Note_on_c, 1, 61, 100
5, 445440, Note_on_c, 0, 68, 100
5, 445680, Note_on_c, 1, 60, 0
5, 445680, Note_on_c, 1, 61, 0
5, 445920, Note_on_c, 1, 60, 100
5, 445920, Note_on_c, 1, 61, 100
5, 446160, Note_on_c, 1, 60, 0
5, 446160, Note_on_c, 1, 61, 0
5, 446400, Note_on_c, 1, 61, 100
5, 446640, Note_on_c, 1, 61, 0
5, 446880, Note_on_c, 1, 61, 100
5, 447120, Note_on_c, 1, 61, 0
5, 447360, Note_on_c, 1, 60, 100
5, 447360, Note_on_c, 1, 61, 100
5, 447600, Note_on_c, 1, 60, 0
5, 447600, Note_on_c, 1, 61, 0
5, 447840, Note_on_c, 1, 60, 100
5, 447840, Note_on_c, 1, 61, 100
5, 448080, Note_on_c, 1, 60, 0
5, 448080, Note_on_c, 1, 61, 0
5, 448320, Note_on_c, 0, 68, 0
5, 448320, Note_on_c, 1, 61, 100
5, 448560, Note_on_c, 1, 61, 0
5, 448800, Note_on_c, 1, 61, 100
5, 449040, Note_on_c, 1, 61, 0
5, 449280, Note_on_c, 1, 60, 100
5, 449280, Note_on_c, 1, 61, 100
5, 449280, Note_on_c, 0, 70, 100
5, 449520, Note_on_c, 1, 60, 0
5, 449520, Note_on_c, 1, 61, 0
5, 449520, Note_on_c, 0, 70, 0
5, 449760, Note_on_c, 1, 61, 100
5, 450000, Note_on_c, 1, 61, 0
5, 450240, Note_on_c, 1, 60, 100
5, 450240, Note_on_c, 1, 61, 100
5, 450480, Note_on_c, 1, 60, 0
5, 450480, Note_on_c, 1, 61, 0
5, 450720, Note_on_c, 1, 61, 100
5, 450720, Note_on_c, 0, 69, 100
5, 450960, Note_on_c, 1, 61, 0
5, 450960, Note_on_c, 0, 69, 0
5, 451200, Note_on_c, 1, 60, 100
5, 451200, Note_on_c, 1, 61, 100
5, 451440, Note_on_c, 1, 60, 0
5, 451440, Note_on_c, 1, 61, 0
5, 451680, Note_on_c, 1, 61, 100
5, 451920, Note_on_c, 1, 61, 0
5, 452160, Note_on_c, 1, 61, 100
5, 452400, Note_on_c, 1, 61, 0
5, 452640, Note_on_c, 1, 61, 100
5, 452880, Note_on_c, 1, 61, 0
5, 453120, Note_on_c, 1, 60, 100
5, 453120, Note_on_c, 1, 61, 100
5, 453120, Note_on_c, 0, 68, 100
5, 453360, Note_on_c, 1, 60, 0
5, 453360, Note_on_c, 1, 61, 0
5, 453360, Note_on_c, 0, 68, 0
5, 453600, Note_on_c, 1, 61, 100
5, 453840, Note_on_c, 1, 61, 0
5, 454080, Note_on_c, 1, 61, 100
5, 454320, Note_on_c, 1, 61, 0
5, 454560, Note_on_c, 1, 60, 100
5, 454560, Note_on_c, 1, 61, 100
5, 454800, Note_on_c, 1, 60, 0
5, 454800, Note_on_c, 1, 61, 0
5, 455040, Note_on_c, 1, 61, 100
5, 455280, Note_on_c, 1, 61, 0
5, 455520, Note_on_c, 1, 60, 100
5, 455520, Note_on_c, 1, 61, 100
5, 455760, Note_on_c, 1, 60, 0
5, 455760, Note_on_c, 1, 61, 0
5, 456000, Note_on_c, 1, 61, 100
5, 456240, Note_on_c, 1, 61, 0
5, 456480, Note_on_c, 1, 61, 100
5, 456720, Note_on_c, 1, 61, 0
5, 456960, Note_on_c, 1, 60, 100
5, 456960, Note_on_c, 1, 61, 100
5, 457200, Note_on_c, 1, 60, 0
5, 457200, Note_on_c, 1, 61, 0
5, 457440, Note_on_c, 1, 60, 100
5, 457440, Note_on_c, 1, 61, 100
5, 457680, Note_on_c, 1, 60, 0
5, 457680, Note_on_c, 1, 61, 0
5, 457920, Note_on_c, 1, 61, 100
5, 458160, Note_on_c, 1, 61, 0
5, 458400, Note_on_c, 1, 61, 100
5, 458640, Note_on_c, 1, 61, 0
5, 458880, Note_on_c, 1, 60, 100
5, 458880, Note_on_c, 1, 61, 100
5, 459120, Note_on_c, 1, 60, 0
5, 459120, Note_on_c, 1, 61, 0
5, 459360, Note_on_c, 1, 61, 100
5, 459600, Note_on_c, 1, 61, 0
5, 459840, Note_on_c, 1, 61, 100
5, 460080, Note_on_c, 1, 61, 0
5, 460320, Note_on_c, 1, 60, 100
5, 460320, Note_on_c, 1, 61, 100
5, 460560, Note_on_c, 1, 60, 0
5, 460560, Note_on_c, 1, 61, 0
5, 460800, Note_on_c, 1, 61, 100
5, 461040, Note_on_c, 1, 61, 0
5, 461280, Note_on_c, 1, 60, 100
5, 461280, Note_on_c, 1, 61, 100
5, 461520, Note_on_c, 1, 60, 0
5, 461520, Note_on_c, 1, 61, 0
5, 461760, Note_on_c, 1, 61, 100
5, 462000, Note_on_c, 1, 61, 0
5, 462240, Note_on_c, 1, 61, 100
5, 462480, Note_on_c, 1, 61, 0
5, 462720, Note_on_c, 1, 60, 100
5, 462720, Note_on_c, 1, 61, 100
5, 462960, Note_on_c, 1, 60, 0
5, 462960, Note_on_c, 1, 61, 0
5, 463200, Note_on_c, 1, 60, 100
5, 463200, Note_on_c, 1, 61, 100
5, 463440, Note_on_c, 1, 60, 0
5, 463440, Note_on_c, 1, 61, 0
5, 463680, Note_on_c, 1, 61, 100
5, 463920, Note_on_c, 1, 61, 0
5, 464160, Note_on_c, 1, 61, 100
5, 464400, Note_on_c, 1, 61, 0
5, 464640, Note_on_c, 1, 60, 100
5, 464640, Note_on_c, 1, 61, 100
5, 464880, Note_on_c, 1, 60, 0
5, 464880, Note_on_c, 1, 61, 0
5, 465120, Note_on_c, 1, 61, 100
5, 465360, Note_on_c, 1, 61, 0
5, 465600, Note_on_c, 1, 61, 100
5, 465840, Note_on_c, 1, 61, 0
5, 466080, Note_on_c, 1, 60, 100
5, 466080, Note_on_c, 1, 61, 100
5, 466320, Note_on_c, 1, 60, 0
5, 466320, Note_on_c, 1, 61, 0
5, 466560, Note_on_c, 1, 61, 100
5, 466800, Note_on_c, 1, 61, 0
5, 467040, Note_on_c, 1, 60, 100
5, 467040, Note_on_c, 1, 61, 100
5, 467280, Note_on_c, 1, 60, 0
5, 467280, Note_on_c, 1, 61, 0
5, 467520, Note_on_c, 1, 61, 100
5, 467760, Note_on_c, 1, 61, 0
5, 468000, Note_on_c, 1, 61, 100
5, 468240, Note_on_c, 1, 61, 0
5, 468480, Note_on_c, 1, 60, 100
5, 468480, Note_on_c, 1, 61, 100
5, 468720, Note_on_c, 1, 60, 0
5, 468720, Note_on_c, 1, 61, 0
5, 468960, Note_on_c, 1, 60, 100
5, 468960, Note_on_c, 1, 61, 100
5, 469200, Note_on_c, 1, 60, 0
5, 469200, Note_on_c, 1, 61, 0
5, 469440, Note_on_c, 1, 61, 100
5, 469680, Note_on_c, 1, 61, 0
5, 469920, Note_on_c, 1, 61, 100
5, 470160, Note_on_c, 1, 61, 0
5, 470400, Note_on_c, 1, 60, 100
5, 470400, Note_on_c, 1, 61, 100
5, 470640, Note_on_c, 1, 60, 0
5, 470640, Note_on_c, 1, 61, 0
5, 470880, Note_on_c, 1, 61, 100
5, 471120, Note_on_c, 1, 61, 0
5, 471360, Note_on_c, 1, 61, 100
5, 471600, Note_on_c, 1, 61, 0
5, 471840, Note_on_c, 1, 60, 100
5, 471840, Note_on_c, 1, 61, 100
5, 472080, Note_on_c, 1, 60, 0
5, 472080, Note_on_c, 1, 61, 0
5, 472320, Note_on_c, 1, 61, 100
5, 472560, Note_on_c, 1, 61, 0
5, 472800, Note_on_c, 1, 60, 100
5, 472800, Note_on_c, 1, 61, 100
5, 473040, Note_on_c, 1, 60, 0
5, 473040, Note_on_c, 1, 61, 0
5, 473280, Note_on_c, 1, 61, 100
5, 473520, Note_on_c, 1, 61, 0
5, 473760, Note_on_c, 1, 61, 100
5, 474000, Note_on_c, 1, 61, 0
5, 474240, Note_on_c, 1, 60, 100
5, 474240, Note_on_c, 1, 61, 100
5, 474480, Note_on_c, 1, 60, 0
5, 474480, Note_on_c, 1, 61, 0
5, 474720, Note_on_c, 1, 60, 100
5, 474720, Note_on_c, 1, 61, 100
5, 474960, Note_on_c, 1, 60, 0
5, 474960, Note_on_c, 1, 61, 0
5, 475200, Note_on_c, 1, 61, 100
5, 475440, Note_on_c, 1, 61, 0
5, 475680, Note_on_c, 1, 61, 100
5, 475920, Note_on_c, 1, 61, 0
5, 476160, Note_on_c, 1, 60, 100
5, 476160, Note_on_c, 1, 61, 100
5, 476160, Note_on_c, 0, 68, 100
5, 476400, Note_on_c, 1, 60, 0
5, 476400, Note_on_c, 1, 61, 0
5, 476400, Note_on_c, 0, 68, 0
5, 476640, Note_on_c, 1, 61, 100
5, 476880, Note_on_c, 1, 61, 0
5, 477120, Note_on_c, 1, 61, 100
5, 477360, Note_on_c, 1, 61, 0
5, 477600, Note_on_c, 1, 60, 100
5, 477600, Note_on_c, 1, 61, 100
5, 477840, Note_on_c, 1, 60, 0
5, 477840, Note_on_c, 1, 61, 0
5, 478080, Note_on_c, 1, 61, 100
5, 478320, Note_on_c, 1, 61, 0
5, 478560, Note_on_c, 1, 60, 100
5, 478560, Note_on_c, 1, 61, 100
5, 478800, Note_on_c, 1, 60, 0
5, 478800, Note_on_c, 1, 61, 0
5, 479040, Note_on_c, 1, 61, 100
5, 479040, Note_on_c, 0, 69, 100
5, 479280, Note_on_c, 1, 61, 0
5, 479280, Note_on_c, 0, 69, 0
5, 479520, Note_on_c, 1, 61, 100
5, 479760, Note_on_c, 1, 61, 0
5, 480000, Note_on_c, 1, 60, 100
5, 480000, Note_on_c, 1, 61, 100
5, 480240, Note_on_c, 1, 60, 0
5, 480240, Note_on_c, 1, 61, 0
5, 480480, Note_on_c, 1, 60, 100
5, 480480, Note_on_c, 1, 61, 100
5, 480720, Note_on_c, 1, 60, 0
5, 480720, Note_on_c, 1, 61, 0
5, 480960, Note_on_c, 1, 61, 100
5, 481200, Note_on_c, 1, 61, 0
5, 481440, Note_on_c, 1, 61, 100
5, 481680, Note_on_c, 1, 61, 0
5, 481920, Note_on_c, 1, 60, 100
5, 481920, Note_on_c, 1, 61, 100
5, 481920, Note_on_c, 0, 69, 100
5, 482160, Note_on_c, 1, 60, 0
5, 482160, Note_on_c, 1, 61, 0
5, 482160, Note_on_c, 0, 69, 0
5, 482400, Note_on_c, 1, 61, 100
5, 482640, Note_on_c, 1, 61, 0
5, 482880, Note_on_c, 1, 61, 100
5, 483120, Note_on_c, 1, 61, 0
5, 483360, Note_on_c, 1, 60, 100
5, 483360, Note_on_c, 1, 61, 100
5, 483600, Note_on_c, 1, 60, 0
5, 483600, Note_on_c, 1, 61, 0
5, 483840, Note_on_c, 1, 61, 100
5, 484080, Note_on_c, 1, 61, 0
5, 484320, Note_on_c, 1, 60, 100
5, 484320, Note_on_c, 1, 61, 100
5, 484560, Note_on_c, 1, 60, 0
5, 484560, Note_on_c, 1, 61, 0
5, 484800, Note_on_c, 1, 61, 100
5, 484800, Note_on_c, 0, 70, 100
5, 485040, Note_on_c, 1, 61, 0
5, 485040, Note_on_c, 0, 70, 0
5, 485280, Note_on_c, 1, 61, 100
5, 485520, Note_on_c, 1, 61, 0
5, 485760, Note_on_c, 1, 60, 100
5, 485760, Note_on_c, 1, 61, 100
5, 486000, Note_on_c, 1, 60, 0
5, 486000, Note_on_c, 1, 61, 0
5, 486240, Note_on_c, 1, 60, 100
5, 486240, Note_on_c, 1, 61, 100
5, 486480, Note_on_c, 1, 60, 0
5, 486480, Note_on_c, 1, 61, 0
5, 486720, Note_on_c, 1, 61, 100
5, 486960, Note_on_c, 1, 61, 0
5, 487200, Note_on_c, 1, 61, 100
5, 487440, Note_on_c, 1, 61, 0
5, 487680, Note_on_c, 1, 60, 100
5, 487680, Note_on_c, 1, 61, 100
5, 487680, Note_on_c, 0, 68, 100
5, 487920, Note_on_c, 1, 60, 0
5, 487920, Note_on_c, 1, 61, 0
5, 487920, Note_on_c, 0, 68, 0
5, 488160, Note_on_c, 1, 61, 100
5, 488400, Note_on_c, 1, 61, 0
5, 488640, Note_on_c, 1, 61, 100
5, 488880, Note_on_c, 1, 61, 0
5, 489120, Note_on_c, 1, 60, 100
5, 489120, Note_on_c, 1, 61, 100
5, 489360, Note_on_c, 1, 60, 0
5, 489360, Note_on_c, 1, 61, 0
5, 489600, Note_on_c, 1, 61, 100
5, 489840, Note_on_c, 1, 61, 0
5, 490080, Note_on_c, 1, 61, 100
5, 490320, Note_on_c, 1, 61, 0
5, 490560, Note_on_c, 1, 60, 100
5, 490560, Note_on_c, 1, 61, 100
5, 490560, Note_on_c, 0, 69, 100
5, 490800, Note_on_c, 1, 60, 0
5, 490800, Note_on_c, 1, 61, 0
5, 490800, Note_on_c, 0, 69, 0
5, 491040, Note_on_c, 1, 61, 100
5, 491280, Note_on_c, 1, 61, 0
5, 491520, Note_on_c, 1, 61, 100
5, 491760, Note_on_c, 1, 61, 0
5, 492000, Note_on_c, 1, 60, 100
5, 492000, Note_on_c, 1, 61, 100
5, 492240, Note_on_c, 1, 60, 0
5, 492240, Note_on_c, 1, 61, 0
5, 492480, Note_on_c, 1, 61, 100
5, 492720, Note_on_c, 1, 61, 0
5, 492960, Note_on_c, 1, 61, 100
5, 493200, Note_on_c, 1, 61, 0
5, 493440, Note_on_c, 1, 60, 100
5, 493440, Note_on_c, 1, 61, 100
5, 493440, Note_on_c, 0, 69, 100
5, 493680, Note_on_c, 1, 60, 0
5, 493680, Note_on_c, 1, 61, 0
5, 493680, Note_on_c, 0, 69, 0
5, 493920, Note_on_c, 1, 61, 100
5, 494160, Note_on_c, 1, 61, 0
5, 494400, Note_on_c, 1, 61, 100
5, 494640, Note_on_c, 1, 61, 0
5, 494880, Note_on_c, 1, 60, 100
5, 494880, Note_on_c, 1, 61, 100
5, 495120, Note_on_c, 1, 60, 0
5, 495120, Note_on_c, 1, 61, 0
5, 495360, Note_on_c, 1, 61, 100
5, 495600, Note_on_c, 1, 61, 0
5, 495840, Note_on_c, 1, 61, 100
5, 496080, Note_on_c, 1, 61, 0
5, 496320, Note_on_c, 1, 60, 100
5, 496320, Note_on_c, 1, 61, 100
5, 496320, Note_on_c, 0, 70, 100
5, 496560, Note_on_c, 1, 60, 0
5, 496560, Note_on_c, 1, 61, 0
5, 496560, Note_on_c, 0, 70, 0
5, 496800, Note_on_c, 1, 61, 100
5, 497040, Note_on_c, 1, 61, 0
5, 497280, Note_on_c, 1, 61, 100
5, 497520, Note_on_c, 1, 61, 0
5, 497760, Note_on_c, 1, 60, 100
5, 497760, Note_on_c, 1, 61, 100
5, 498000, Note_on_c, 1, 60, 0
5, 498000, Note_on_c, 1, 61, 0
5, 498240, Note_on_c, 1, 61, 100
5, 498480, Note_on_c, 1, 61, 0
5, 498720, Note_on_c, 1, 61, 100
5, 498960, Note_on_c, 1, 61, 0
5, 499200, Note_on_c, 1, 60, 100
5, 499200, Note_on_c, 1, 61, 100
5, 499200, Note_on_c, 0, 70, 100
5, 499440, Note_on_c, 1, 60, 0
5, 499440, Note_on_c, 1, 61, 0
5, 516238, Note_on_c, 0, 70, 0
5, 516480, Note_on_c, 1, 60, 100
5, 516720, Note_on_c, 1, 60, 0
5, 517440, Note_on_c, 0, 68, 100
5, 517680, Note_on_c, 0, 68, 0
5, 519360, Note_on_c, 0, 68, 100
5, 519600, Note_on_c, 0, 68, 0
5, 522240, Note_on_c, 0, 69, 100
5, 522480, Note_on_c, 0, 69, 0
5, 524160, Note_on_c, 0, 69, 100
5, 524400, Note_on_c, 0, 69, 0
5, 528000, Note_on_c, 0, 70, 100
5, 528240, Note_on_c, 0, 70, 0
5, 529920, Note_on_c, 0, 70, 100
5, 530160, Note_on_c, 0, 70, 0
5, 533760, Note_on_c, 0, 69, 100
5, 534000, Note_on_c, 0, 69, 0
5, 535680, Note_on_c, 0, 69, 100
5, 535920, Note_on_c, 0, 69, 0
5, 539520, Note_on_c, 0, 70, 100
5, 539760, Note_on_c, 0, 70, 0
5, 541440, Note_on_c, 0, 70, 100
5, 541680, Note_on_c, 0, 70, 0
5, 545280, Note_on_c, 0, 68, 100
5, 545520, Note_on_c, 0, 68, 0
5, 547200, Note_on_c, 0, 68, 100
5, 547440, Note_on_c, 0, 68, 0
5, 551040, Note_on_c, 1, 60, 100
5, 551040, Note_on_c, 1, 61, 100
5, 551280, Note_on_c, 1, 60, 0
5, 551280, Note_on_c, 1, 61, 0
5, 552000, Note_on_c, 1, 61, 100
5, 552000, Note_on_c, 0, 70, 100
5, 552240, Note_on_c, 1, 61, 0
5, 552240, Note_on_c, 0, 70, 0
5, 552960, Note_on_c, 1, 61, 100
5, 553200, Note_on_c, 1, 61, 0
5, 553920, Note_on_c, 0, 70, 100
5, 554160, Note_on_c, 0, 70, 0
5, 554880, Note_on_c, 1, 61, 100
5, 555120, Note_on_c, 1, 61, 0
5, 555840, Note_on_c, 1, 61, 100
5, 556080, Note_on_c, 1, 61, 0
5, 556800, Note_on_c, 1, 61, 100
5, 557040, Note_on_c, 1, 61, 0
5, 557760, Note_on_c, 0, 70, 100
5, 558000, Note_on_c, 0, 70, 0
5, 558720, Note_on_c, 1, 61, 100
5, 558960, Note_on_c, 1, 61, 0
5, 559680, Note_on_c, 1, 60, 100
5, 559680, Note_on_c, 1, 61, 100
5, 559680, Note_on_c, 0, 70, 100
5, 559920, Note_on_c, 1, 60, 0
5, 559920, Note_on_c, 1, 61, 0
5, 559920, Note_on_c, 0, 70, 0
5, 561600, Note_on_c, 1, 60, 100
5, 561600, Note_on_c, 1, 61, 100
5, 561840, Note_on_c, 1, 60, 0
5, 561840, Note_on_c, 1, 61, 0
5, 562560, Note_on_c, 1, 60, 100
5, 562560, Note_on_c, 1, 61, 100
5, 562560, Note_on_c, 0, 69, 100
5, 562800, Note_on_c, 1, 60, 0
5, 562800, Note_on_c, 1, 61, 0
5, 562800, Note_on_c, 0, 69, 0
5, 565440, Note_on_c, 1, 60, 100
5, 565440, Note_on_c, 0, 69, 100
5, 565680, Note_on_c, 1, 60, 0
5, 565680, Note_on_c, 0, 69, 0
5, 566400, Note_on_c, 1, 61, 100
5, 566640, Note_on_c, 1, 61, 0
5, 567360, Note_on_c, 1, 60, 100
5, 567360, Note_on_c, 1, 61, 100
5, 567600, Note_on_c, 1, 60, 0
5, 567600, Note_on_c, 1, 61, 0
5, 568320, Note_on_c, 1, 60, 100
5, 568320, Note_on_c, 1, 61, 100
5, 568320, Note_on_c, 0, 69, 100
5, 568560, Note_on_c, 1, 60, 0
5, 568560, Note_on_c, 1, 61, 0
5, 568560, Note_on_c, 0, 69, 0
5, 571200, Note_on_c, 1, 61, 100
5, 571200, Note_on_c, 0, 69, 100
5, 571440, Note_on_c, 1, 61, 0
5, 571440, Note_on_c, 0, 69, 0
5, 572160, Note_on_c, 1, 61, 100
5, 572400, Note_on_c, 1, 61, 0
5, 573120, Note_on_c, 1, 61, 100
5, 573360, Note_on_c, 1, 61, 0
5, 574080, Note_on_c, 1, 60, 100
5, 574080, Note_on_c, 1, 61, 100
5, 574320, Note_on_c, 1, 60, 0
5, 574320, Note_on_c, 1, 61, 0
5, 575040, Note_on_c, 0, 68, 100
5, 575280, Note_on_c, 0, 68, 0
5, 576000, Note_on_c, 1, 60, 100
5, 576240, Note_on_c, 1, 60, 0
5, 576960, Note_on_c, 0, 68, 100
5, 577200, Note_on_c, 0, 68, 0
5, 577920, Note_on_c, 1, 61, 100
5, 578160, Note_on_c, 1, 61, 0
5, 578880, Note_on_c, 1, 60, 100
5, 578880, Note_on_c, 1, 61, 100
5, 579120, Note_on_c, 1, 60, 0
5, 579120, Note_on_c, 1, 61, 0
5, 579840, Note_on_c, 1, 60, 100
5, 579840, Note_on_c, 1, 61, 100
5, 579840, Note_on_c, 0, 69, 100
5, 580080, Note_on_c, 1, 60, 0
5, 580080, Note_on_c, 1, 61, 0
5, 580080, Note_on_c, 0, 69, 0
5, 580320, Note_on_c, 1, 60, 100
5, 580320, Note_on_c, 1, 61, 100
5, 580560, Note_on_c, 1, 60, 0
5, 580560, Note_on_c, 1, 61, 0
5, 581760, Note_on_c, 0, 69, 100
5, 582000, Note_on_c, 0, 69, 0
5, 583680, Note_on_c, 1, 61, 100
5, 583920, Note_on_c, 1, 61, 0
5, 584640, Note_on_c, 1, 60, 100
5, 584640, Note_on_c, 1, 61, 100
5, 584880, Note_on_c, 1, 60, 0
5, 584880, Note_on_c, 1, 61, 0
5, 585600, Note_on_c, 1, 60, 100
5, 585600, Note_on_c, 1, 61, 100
5, 585600, Note_on_c, 0, 70, 100
5, 585840, Note_on_c, 1, 60, 0
5, 585840, Note_on_c, 1, 61, 0
5, 585840, Note_on_c, 0, 70, 0
5, 586080, Note_on_c, 1, 60, 100
5, 586080, Note_on_c, 1, 61, 100
5, 586320, Note_on_c, 1, 60, 0
5, 586320, Note_on_c, 1, 61, 0
5, 587520, Note_on_c, 0, 70, 100
5, 587760, Note_on_c, 0, 70, 0
5, 590400, Note_on_c, 1, 60, 100
5, 590400, Note_on_c, 1, 61, 100
5, 590640, Note_on_c, 1, 60, 0
5, 590640, Note_on_c, 1, 61, 0
5, 591360, Note_on_c, 1, 60, 100
5, 591360, Note_on_c, 1, 61, 100
5, 591360, Note_on_c, 0, 69, 100
5, 591600, Note_on_c, 1, 60, 0
5, 591600, Note_on_c, 1, 61, 0
5, 591600, Note_on_c, 0, 69, 0
5, 593280, Note_on_c, 0, 69, 100
5, 593520, Note_on_c, 0, 69, 0
5, 594240, Note_on_c, 1, 60, 100
5, 594480, Note_on_c, 1, 60, 0
5, 595200, Note_on_c, 1, 60, 100
5, 595200, Note_on_c, 1, 61, 100
5, 595440, Note_on_c, 1, 60, 0
5, 595440, Note_on_c, 1, 61, 0
5, 596160, Note_on_c, 1, 60, 100
5, 596160, Note_on_c, 1, 61, 100
5, 596400, Note_on_c, 1, 60, 0
5, 596400, Note_on_c, 1, 61, 0
5, 597120, Note_on_c, 1, 60, 100
5, 597120, Note_on_c, 1, 61, 100
5, 597120, Note_on_c, 0, 70, 100
5, 597360, Note_on_c, 1, 60, 0
5, 597360, Note_on_c, 1, 61, 0
5, 597360, Note_on_c, 0, 70, 0
5, 597600, Note_on_c, 1, 60, 100
5, 597600, Note_on_c, 1, 61, 100
5, 597840, Note_on_c, 1, 60, 0
5, 597840, Note_on_c, 1, 61, 0
5, 599040, Note_on_c, 0, 70, 100
5, 599280, Note_on_c, 0, 70, 0
5, 600960, Note_on_c, 1, 61, 100
5, 601200, Note_on_c, 1, 61, 0
5, 601920, Note_on_c, 1, 60, 100
5, 601920, Note_on_c, 1, 61, 100
5, 602160, Note_on_c, 1, 60, 0
5, 602160, Note_on_c, 1, 61, 0
5, 602880, Note_on_c, 1, 60, 100
5, 602880, Note_on_c, 1, 61, 100
5, 602880, Note_on_c, 0, 68, 100
5, 603120, Note_on_c, 1, 60, 0
5, 603120, Note_on_c, 1, 61, 0
5, 603120, Note_on_c, 0, 68, 0
5, 603360, Note_on_c, 1, 61, 100
5, 603600, Note_on_c, 1, 61, 0
5, 603840, Note_on_c, 1, 60, 100
5, 604080, Note_on_c, 1, 60, 0
5, 604800, Note_on_c, 0, 68, 100
5, 605040, Note_on_c, 0, 68, 0
5, 606720, Note_on_c, 1, 60, 100
5, 606720, Note_on_c, 1, 61, 100
5, 606960, Note_on_c, 1, 60, 0
5, 606960, Note_on_c, 1, 61, 0
5, 607680, Note_on_c, 1, 60, 100
5, 607680, Note_on_c, 1, 61, 100
5, 607920, Note_on_c, 1, 60, 0
5, 607920, Note_on_c, 1, 61, 0
5, 608640, Note_on_c, 1, 60, 100
5, 608640, Note_on_c, 1, 61, 100
5, 608880, Note_on_c, 1, 60, 0
5, 608880, Note_on_c, 1, 61, 0
5, 609600, Note_on_c, 1, 61, 100
5, 609600, Note_on_c, 0, 70, 100
5, 609840, Note_on_c, 1, 61, 0
5, 609840, Note_on_c, 0, 70, 0
5, 610560, Note_on_c, 1, 60, 100
5, 610800, Note_on_c, 1, 60, 0
5, 611520, Note_on_c, 0, 70, 100
5, 611760, Note_on_c, 0, 70, 0
5, 612480, Note_on_c, 1, 60, 100
5, 612480, Note_on_c, 1, 61, 100
5, 612720, Note_on_c, 1, 60, 0
5, 612720, Note_on_c, 1, 61, 0
5, 613440, Note_on_c, 1, 60, 100
5, 613680, Note_on_c, 1, 60, 0
5, 614400, Note_on_c, 1, 60, 100
5, 614400, Note_on_c, 1, 61, 100
5, 614640, Note_on_c, 1, 60, 0
5, 614640, Note_on_c, 1, 61, 0
5, 615360, Note_on_c, 1, 61, 100
5, 615360, Note_on_c, 0, 70, 100
5, 615600, Note_on_c, 1, 61, 0
5, 615600, Note_on_c, 0, 70, 0
5, 616320, Note_on_c, 1, 60, 100
5, 616320, Note_on_c, 1, 61, 100
5, 616560, Note_on_c, 1, 60, 0
5, 616560, Note_on_c, 1, 61, 0
5, 617280, Note_on_c, 1, 60, 100
5, 617280, Note_on_c, 1, 61, 100
5, 617280, Note_on_c, 0, 70, 100
5, 617520, Note_on_c, 1, 60, 0
5, 617520, Note_on_c, 1, 61, 0
5, 617520, Note_on_c, 0, 70, 0
5, 618240, Note_on_c, 1, 61, 100
5, 618480, Note_on_c, 1, 61, 0
5, 619200, Note_on_c, 1, 60, 100
5, 619200, Note_on_c, 1, 61, 100
5, 619440, Note_on_c, 1, 60, 0
5, 619440, Note_on_c, 1, 61, 0
5, 620160, Note_on_c, 1, 60, 100
5, 620160, Note_on_c, 1, 61, 100
5, 620160, Note_on_c, 0, 69, 100
5, 620400, Note_on_c, 1, 60, 0
5, 620400, Note_on_c, 1, 61, 0
5, 620400, Note_on_c, 0, 69, 0
5, 621120, Note_on_c, 1, 61, 100
5, 621360, Note_on_c, 1, 61, 0
5, 622080, Note_on_c, 1, 61, 100
5, 622320, Note_on_c, 1, 61, 0
5, 622560, Note_on_c, 1, 60, 100
5, 622800, Note_on_c, 1, 60, 0
5, 623040, Note_on_c, 1, 61, 100
5, 623040, Note_on_c, 0, 69, 100
5, 623280, Note_on_c, 1, 61, 0
5, 623280, Note_on_c, 0, 69, 0
5, 624000, Note_on_c, 1, 60, 100
5, 624000, Note_on_c, 1, 61, 100
5, 624240, Note_on_c, 1, 60, 0
5, 624240, Note_on_c, 1, 61, 0
5, 624960, Note_on_c, 1, 60, 100
5, 624960, Note_on_c, 1, 61, 100
5, 625200, Note_on_c, 1, 60, 0
5, 625200, Note_on_c, 1, 61, 0
5, 625920, Note_on_c, 1, 60, 100
5, 625920, Note_on_c, 1, 61, 100
5, 625920, Note_on_c, 0, 69, 100
5, 626160, Note_on_c, 1, 60, 0
5, 626160, Note_on_c, 1, 61, 0
5, 626160, Note_on_c, 0, 69, 0
5, 626880, Note_on_c, 1, 60, 100
5, 626880, Note_on_c, 1, 61, 100
5, 627120, Note_on_c, 1, 60, 0
5, 627120, Note_on_c, 1, 61, 0
5, 627840, Note_on_c, 1, 60, 100
5, 627840, Note_on_c, 1, 61, 100
5, 628080, Note_on_c, 1, 60, 0
5, 628080, Note_on_c, 1, 61, 0
5, 628800, Note_on_c, 1, 60, 100
5, 628800, Note_on_c, 1, 61, 100
5, 628800, Note_on_c, 0, 70, 100
5, 629040, Note_on_c, 1, 60, 0
5, 629040, Note_on_c, 1, 61, 0
5, 629760, Note_on_c, 1, 60, 100
5, 629760, Note_on_c, 1, 61, 100
5, 630000, Note_on_c, 1, 60, 0
5, 630000, Note_on_c, 1, 61, 0
5, 630720, Note_on_c, 1, 61, 100
5, 630960, Note_on_c, 1, 61, 0
5, 631440, Note_on_c, 0, 70, 0
5, 631680, Note_on_c, 1, 60, 100
5, 631680, Note_on_c, 1, 61, 100
5, 631680, Note_on_c, 0, 70, 100
5, 631920, Note_on_c, 1, 60, 0
5, 631920, Note_on_c, 1, 61, 0
5, 631920, Note_on_c, 0, 70, 0
5, 633600, Note_on_c, 1, 60, 100
5, 633600, Note_on_c, 1, 61, 100
5, 633600, Note_on_c, 0, 68, 100
5, 633840, Note_on_c, 1, 60, 0
5, 633840, Note_on_c, 1, 61, 0
5, 633840, Note_on_c, 0, 68, 0
5, 634080, Note_on_c, 1, 60, 100
5, 634320, Note_on_c, 1, 60, 0
5, 634560, Note_on_c, 1, 61, 100
5, 634560, Note_on_c, 0, 69, 100
5, 634800, Note_on_c, 1, 61, 0
5, 634800, Note_on_c, 0, 69, 0
5, 635520, Note_on_c, 1, 60, 100
5, 635760, Note_on_c, 1, 60, 0
5, 636480, Note_on_c, 1, 60, 100
5, 636480, Note_on_c, 1, 61, 100
5, 636480, Note_on_c, 0, 68, 100
5, 636720, Note_on_c, 1, 60, 0
5, 636720, Note_on_c, 1, 61, 0
5, 636720, Note_on_c, 0, 68, 0
5, 637440, Note_on_c, 1, 60, 100
5, 637440, Note_on_c, 1, 61, 100
5, 637440, Note_on_c, 0, 69, 100
5, 637680, Note_on_c, 1, 60, 0
5, 637680, Note_on_c, 1, 61, 0
5, 637680, Note_on_c, 0, 69, 0
5, 640320, Note_on_c, 1, 60, 100
5, 640320, Note_on_c, 1, 61, 100
5, 640320, Note_on_c, 0, 69, 100
5, 640560, Note_on_c, 1, 60, 0
5, 640560, Note_on_c, 1, 61, 0
5, 640800, Note_on_c, 1, 60, 100
5, 641040, Note_on_c, 1, 60, 0
5, 641280, Note_on_c, 1, 60, 100
5, 641280, Note_on_c, 1, 61, 100
5, 641520, Note_on_c, 1, 60, 0
5, 641520, Note_on_c, 1, 61, 0
5, 642240, Note_on_c, 1, 60, 100
5, 642240, Note_on_c, 1, 61, 100
5, 642480, Note_on_c, 1, 60, 0
5, 642480, Note_on_c, 1, 61, 0
5, 642720, Note_on_c, 0, 69, 0
5, 643200, Note_on_c, 1, 60, 100
5, 643200, Note_on_c, 1, 61, 100
5, 643200, Note_on_c, 0, 70, 100
5, 643440, Note_on_c, 1, 60, 0
5, 643440, Note_on_c, 1, 61, 0
5, 643440, Note_on_c, 0, 70, 0
5, 645120, Note_on_c, 1, 60, 100
5, 645120, Note_on_c, 1, 61, 100
5, 645120, Note_on_c, 0, 68, 100
5, 645360, Note_on_c, 1, 60, 0
5, 645360, Note_on_c, 1, 61, 0
5, 645360, Note_on_c, 0, 68, 0
5, 646080, Note_on_c, 1, 61, 100
5, 646080, Note_on_c, 0, 69, 100
5, 646320, Note_on_c, 1, 61, 0
5, 646320, Note_on_c, 0, 69, 0
5, 647040, Note_on_c, 1, 60, 100
5, 647280, Note_on_c, 1, 60, 0
5, 648000, Note_on_c, 1, 60, 100
5, 648000, Note_on_c, 1, 61, 100
5, 648000, Note_on_c, 0, 68, 100
5, 648240, Note_on_c, 1, 60, 0
5, 648240, Note_on_c, 1, 61, 0
5, 648240, Note_on_c, 0, 68, 0
5, 648960, Note_on_c, 1, 60, 100
5, 648960, Note_on_c, 1, 61, 100
5, 648960, Note_on_c, 0, 69, 100
5, 649200, Note_on_c, 1, 60, 0
5, 649200, Note_on_c, 1, 61, 0
5, 649200, Note_on_c, 0, 69, 0
5, 649920, Note_on_c, 1, 60, 100
5, 650160, Note_on_c, 1, 60, 0
5, 651840, Note_on_c, 1, 60, 100
5, 651840, Note_on_c, 1, 61, 100
5, 651840, Note_on_c, 0, 69, 100
5, 652080, Note_on_c, 1, 60, 0
5, 652080, Note_on_c, 1, 61, 0
5, 652800, Note_on_c, 1, 61, 100
5, 653040, Note_on_c, 1, 61, 0
5, 653760, Note_on_c, 1, 60, 100
5, 653760, Note_on_c, 1, 61, 100
5, 654000, Note_on_c, 1, 60, 0
5, 654000, Note_on_c, 1, 61, 0
5, 654240, Note_on_c, 0, 69, 0
5, 654720, Note_on_c, 1, 60, 100
5, 654720, Note_on_c, 1, 61, 100
5, 654720, Note_on_c, 0, 70, 100
5, 654960, Note_on_c, 1, 60, 0
5, 654960, Note_on_c, 1, 61, 0
5, 654960, Note_on_c, 0, 70, 0
5, 656640, Note_on_c, 1, 60, 100
5, 656640, Note_on_c, 1, 61, 100
5, 656640, Note_on_c, 0, 68, 100
5, 656880, Note_on_c, 1, 60, 0
5, 656880, Note_on_c, 1, 61, 0
5, 656880, Note_on_c, 0, 68, 0
5, 657120, Note_on_c, 1, 60, 100
5, 657360, Note_on_c, 1, 60, 0
5, 657600, Note_on_c, 1, 61, 100
5, 657600, Note_on_c, 0, 69, 100
5, 657840, Note_on_c, 1, 61, 0
5, 657840, Note_on_c, 0, 69, 0
5, 658560, Note_on_c, 1, 60, 100
5, 658800, Note_on_c, 1, 60, 0
5, 659520, Note_on_c, 1, 60, 100
5, 659520, Note_on_c, 1, 61, 100
5, 659520, Note_on_c, 0, 68, 100
5, 659760, Note_on_c, 1, 60, 0
5, 659760, Note_on_c, 1, 61, 0
5, 659760, Note_on_c, 0, 68, 0
5, 660480, Note_on_c, 1, 60, 100
5, 660480, Note_on_c, 1, 61, 100
5, 660480, Note_on_c, 0, 69, 100
5, 660720, Note_on_c, 1, 60, 0
5, 660720, Note_on_c, 1, 61, 0
5, 660720, Note_on_c, 0, 69, 0
5, 662400, Note_on_c, 1, 60, 100
5, 662640, Note_on_c, 1, 60, 0
5, 663360, Note_on_c, 1, 60, 100
5, 663360, Note_on_c, 1, 61, 100
5, 663360, Note_on_c, 0, 69, 100
5, 663600, Note_on_c, 1, 60, 0
5, 663600, Note_on_c, 1, 61, 0
5, 664320, Note_on_c, 1, 60, 100
5, 664320, Note_on_c, 1, 61, 100
5, 664560, Note_on_c, 1, 60, 0
5, 664560, Note_on_c, 1, 61, 0
5, 665280, Note_on_c, 1, 61, 100
5, 665520, Note_on_c, 1, 61, 0
5, 665760, Note_on_c, 0, 69, 0
5, 666240, Note_on_c, 1, 60, 100
5, 666240, Note_on_c, 1, 61, 100
5, 666240, Note_on_c, 0, 70, 100
5, 666480, Note_on_c, 1, 60, 0
5, 666480, Note_on_c, 1, 61, 0
5, 666480, Note_on_c, 0, 70, 0
5, 668160, Note_on_c, 1, 60, 100
5, 668160, Note_on_c, 1, 61, 100
5, 668160, Note_on_c, 0, 68, 100
5, 668400, Note_on_c, 1, 60, 0
5, 668400, Note_on_c, 1, 61, 0
5, 668400, Note_on_c, 0, 68, 0
5, 668640, Note_on_c, 1, 60, 100
5, 668880, Note_on_c, 1, 60, 0
5, 669120, Note_on_c, 1, 61, 100
5, 669120, Note_on_c, 0, 69, 100
5, 669360, Note_on_c, 1, 61, 0
5, 669360, Note_on_c, 0, 69, 0
5, 670080, Note_on_c, 1, 60, 100
5, 670320, Note_on_c, 1, 60, 0
5, 671040, Note_on_c, 1, 60, 100
5, 671040, Note_on_c, 1, 61, 100
5, 671040, Note_on_c, 0, 68, 100
5, 671280, Note_on_c, 1, 60, 0
5, 671280, Note_on_c, 1, 61, 0
5, 671280, Note_on_c, 0, 68, 0
5, 672000, Note_on_c, 1, 60, 100
5, 672000, Note_on_c, 1, 61, 100
5, 672000, Note_on_c, 0, 69, 100
5, 672240, Note_on_c, 1, 60, 0
5, 672240, Note_on_c, 1, 61, 0
5, 672240, Note_on_c, 0, 69, 0
5, 673920, Note_on_c, 1, 60, 100
5, 674160, Note_on_c, 1, 60, 0
5, 674400, Note_on_c, 1, 60, 100
5, 674640, Note_on_c, 1, 60, 0
5, 674880, Note_on_c, 1, 61, 100
5, 674880, Note_on_c, 0, 69, 100
5, 675120, Note_on_c, 1, 61, 0
5, 675840, Note_on_c, 1, 60, 100
5, 675840, Note_on_c, 1, 61, 100
5, 676080, Note_on_c, 1, 60, 0
5, 676080, Note_on_c, 1, 61, 0
5, 676800, Note_on_c, 1, 60, 100
5, 676800, Note_on_c, 1, 61, 100
5, 677040, Note_on_c, 1, 60, 0
5, 677040, Note_on_c, 1, 61, 0
5, 677280, Note_on_c, 0, 69, 0
5, 677760, Note_on_c, 1, 60, 100
5, 677760, Note_on_c, 1, 61, 100
5, 678000, Note_on_c, 1, 60, 0
5, 678000, Note_on_c, 1, 61, 0
5, 678720, Note_on_c, 0, 68, 100
5, 678960, Note_on_c, 0, 68, 0
5, 679680, Note_on_c, 1, 60, 100
5, 679680, Note_on_c, 1, 61, 100
5, 679920, Note_on_c, 1, 60, 0
5, 679920, Note_on_c, 1, 61, 0
5, 680640, Note_on_c, 0, 68, 100
5, 680880, Note_on_c, 0, 68, 0
5, 681600, Note_on_c, 1, 61, 100
5, 681840, Note_on_c, 1, 61, 0
5, 682560, Note_on_c, 1, 60, 100
5, 682560, Note_on_c, 1, 61, 100
5, 682800, Note_on_c, 1, 60, 0
5, 682800, Note_on_c, 1, 61, 0
5, 683520, Note_on_c, 1, 60, 100
5, 683520, Note_on_c, 1, 61, 100
5, 683520, Note_on_c, 0, 69, 100
5, 683760, Note_on_c, 1, 60, 0
5, 683760, Note_on_c, 1, 61, 0
5, 683760, Note_on_c, 0, 69, 0
5, 684000, Note_on_c, 1, 60, 100
5, 684000, Note_on_c, 1, 61, 100
5, 684240, Note_on_c, 1, 60, 0
5, 684240, Note_on_c, 1, 61, 0
5, 685440, Note_on_c, 0, 69, 100
5, 685680, Note_on_c, 0, 69, 0
5, 687360, Note_on_c, 1, 61, 100
5, 687600, Note_on_c, 1, 61, 0
5, 688320, Note_on_c, 1, 60, 100
5, 688320, Note_on_c, 1, 61, 100
5, 688560, Note_on_c, 1, 60, 0
5, 688560, Note_on_c, 1, 61, 0
5, 689280, Note_on_c, 1, 60, 100
5, 689280, Note_on_c, 1, 61, 100
5, 689280, Note_on_c, 0, 70, 100
5, 689520, Note_on_c, 1, 60, 0
5, 689520, Note_on_c, 1, 61, 0
5, 689520, Note_on_c, 0, 70, 0
5, 689760, Note_on_c, 1, 60, 100
5, 689760, Note_on_c, 1, 61, 100
5, 690000, Note_on_c, 1, 60, 0
5, 690000, Note_on_c, 1, 61, 0
5, 691200, Note_on_c, 0, 70, 100
5, 691440, Note_on_c, 0, 70, 0
5, 693120, Note_on_c, 1, 61, 100
5, 693360, Note_on_c, 1, 61, 0
5, 694080, Note_on_c, 1, 60, 100
5, 694080, Note_on_c, 1, 61, 100
5, 694320, Note_on_c, 1, 60, 0
5, 694320, Note_on_c, 1, 61, 0
5, 695040, Note_on_c, 1, 60, 100
5, 695040, Note_on_c, 1, 61, 100
5, 695040, Note_on_c, 0, 69, 100
5, 695280, Note_on_c, 1, 60, 0
5, 695280, Note_on_c, 1, 61, 0
5, 695280, Note_on_c, 0, 69, 0
5, 695520, Note_on_c, 1, 60, 100
5, 695520, Note_on_c, 1, 61, 100
5, 695760, Note_on_c, 1, 60, 0
5, 695760, Note_on_c, 1, 61, 0
5, 696960, Note_on_c, 0, 69, 100
5, 697200, Note_on_c, 0, 69, 0
5, 698880, Note_on_c, 1, 61, 100
5, 699120, Note_on_c, 1, 61, 0
5, 699840, Note_on_c, 1, 60, 100
5, 699840, Note_on_c, 1, 61, 100
5, 700080, Note_on_c, 1, 60, 0
5, 700080, Note_on_c, 1, 61, 0
5, 700800, Note_on_c, 1, 60, 100
5, 700800, Note_on_c, 1, 61, 100
5, 700800, Note_on_c, 0, 70, 100
5, 701040, Note_on_c, 1, 60, 0
5, 701040, Note_on_c, 1, 61, 0
5, 701040, Note_on_c, 0, 70, 0
5, 701280, Note_on_c, 1, 60, 100
5, 701280, Note_on_c, 1, 61, 100
5, 701520, Note_on_c, 1, 60, 0
5, 701520, Note_on_c, 1, 61, 0
5, 702720, Note_on_c, 0, 70, 100
5, 702960, Note_on_c, 0, 70, 0
5, 704640, Note_on_c, 1, 61, 100
5, 704880, Note_on_c, 1, 61, 0
5, 705600, Note_on_c, 1, 60, 100
5, 705600, Note_on_c, 1, 61, 100
5, 705840, Note_on_c, 1, 60, 0
5, 705840, Note_on_c, 1, 61, 0
5, 706560, Note_on_c, 1, 60, 100
5, 706560, Note_on_c, 1, 61, 100
5, 706560, Note_on_c, 0, 68, 100
5, 706800, Note_on_c, 1, 60, 0
5, 706800, Note_on_c, 1, 61, 0
5, 706800, Note_on_c, 0, 68, 0
5, 707040, Note_on_c, 1, 61, 100
5, 707280, Note_on_c, 1, 61, 0
5, 708480, Note_on_c, 0, 68, 100
5, 708720, Note_on_c, 0, 68, 0
5, 708960, Note_on_c, 1, 60, 100
5, 709200, Note_on_c, 1, 60, 0
5, 710400, Note_on_c, 1, 60, 100
5, 710640, Note_on_c, 1, 60, 0
5, 711360, Note_on_c, 1, 60, 100
5, 711600, Note_on_c, 1, 60, 0
5, 712320, Note_on_c, 1, 60, 100
5, 712320, Note_on_c, 1, 61, 100
5, 712560, Note_on_c, 1, 60, 0
5, 712560, Note_on_c, 1, 61, 0
5, 713280, Note_on_c, 0, 70, 100
5, 713520, Note_on_c, 0, 70, 0
5, 714240, Note_on_c, 1, 60, 100
5, 714240, Note_on_c, 1, 61, 100
5, 714480, Note_on_c, 1, 60, 0
5, 714480, Note_on_c, 1, 61, 0
5, 714720, Note_on_c, 1, 60, 100
5, 714960, Note_on_c, 1, 60, 0
5, 715200, Note_on_c, 0, 70, 100
5, 715440, Note_on_c, 0, 70, 0
5, 716160, Note_on_c, 1, 60, 100
5, 716160, Note_on_c, 1, 61, 100
5, 716400, Note_on_c, 1, 60, 0
5, 716400, Note_on_c, 1, 61, 0
5, 717120, Note_on_c, 1, 60, 100
5, 717120, Note_on_c, 1, 61, 100
5, 717360, Note_on_c, 1, 60, 0
5, 717360, Note_on_c, 1, 61, 0
5, 718080, Note_on_c, 1, 60, 100
5, 718080, Note_on_c, 1, 61, 100
5, 718320, Note_on_c, 1, 60, 0
5, 718320, Note_on_c, 1, 61, 0
5, 719040, Note_on_c, 0, 70, 100
5, 719280, Note_on_c, 0, 70, 0
5, 720000, Note_on_c, 1, 60, 100
5, 720000, Note_on_c, 1, 61, 100
5, 720240, Note_on_c, 1, 60, 0
5, 720240, Note_on_c, 1, 61, 0
5, 720480, Note_on_c, 1, 60, 100
5, 720720, Note_on_c, 1, 60, 0
5, 720960, Note_on_c, 1, 60, 100
5, 720960, Note_on_c, 1, 61, 100
5, 720960, Note_on_c, 0, 70, 100
5, 721200, Note_on_c, 1, 60, 0
5, 721200, Note_on_c, 1, 61, 0
5, 721200, Note_on_c, 0, 70, 0
5, 721920, Note_on_c, 1, 60, 100
5, 721920, Note_on_c, 1, 61, 100
5, 722160, Note_on_c, 1, 60, 0
5, 722160, Note_on_c, 1, 61, 0
5, 722880, Note_on_c, 1, 60, 100
5, 722880, Note_on_c, 1, 61, 100
5, 723120, Note_on_c, 1, 60, 0
5, 723120, Note_on_c, 1, 61, 0
5, 723840, Note_on_c, 1, 60, 100
5, 723840, Note_on_c, 1, 61, 100
5, 723840, Note_on_c, 0, 69, 100
5, 724080, Note_on_c, 1, 60, 0
5, 724080, Note_on_c, 1, 61, 0
5, 724080, Note_on_c, 0, 69, 0
5, 724800, Note_on_c, 1, 60, 100
5, 724800, Note_on_c, 1, 61, 100
5, 725040, Note_on_c, 1, 60, 0
5, 725040, Note_on_c, 1, 61, 0
5, 725760, Note_on_c, 1, 60, 100
5, 725760, Note_on_c, 1, 61, 100
5, 726000, Note_on_c, 1, 60, 0
5, 726000, Note_on_c, 1, 61, 0
5, 726240, Note_on_c, 1, 60, 100
5, 726480, Note_on_c, 1, 60, 0
5, 726720, Note_on_c, 1, 61, 100
5, 726720, Note_on_c, 0, 69, 100
5, 726960, Note_on_c, 1, 61, 0
5, 726960, Note_on_c, 0, 69, 0
5, 727680, Note_on_c, 1, 60, 100
5, 727680, Note_on_c, 1, 61, 100
5, 727920, Note_on_c, 1, 60, 0
5, 727920, Note_on_c, 1, 61, 0
5, 728640, Note_on_c, 1, 60, 100
5, 728640, Note_on_c, 1, 61, 100
5, 728880, Note_on_c, 1, 60, 0
5, 728880, Note_on_c, 1, 61, 0
5, 729600, Note_on_c, 1, 60, 100
5, 729600, Note_on_c, 1, 61, 100
5, 729600, Note_on_c, 0, 69, 100
5, 729840, Note_on_c, 1, 60, 0
5, 729840, Note_on_c, 1, 61, 0
5, 729840, Note_on_c, 0, 69, 0
5, 730560, Note_on_c, 1, 60, 100
5, 730560, Note_on_c, 1, 61, 100
5, 730800, Note_on_c, 1, 60, 0
5, 730800, Note_on_c, 1, 61, 0
5, 731520, Note_on_c, 1, 60, 100
5, 731520, Note_on_c, 1, 61, 100
5, 731760, Note_on_c, 1, 60, 0
5, 731760, Note_on_c, 1, 61, 0
5, 732480, Note_on_c, 1, 60, 100
5, 732480, Note_on_c, 1, 61, 100
5, 732480, Note_on_c, 0, 69, 100
5, 732720, Note_on_c, 1, 60, 0
5, 732720, Note_on_c, 1, 61, 0
5, 732720, Note_on_c, 0, 69, 0
5, 733440, Note_on_c, 1, 60, 100
5, 733440, Note_on_c, 1, 61, 100
5, 733680, Note_on_c, 1, 60, 0
5, 733680, Note_on_c, 1, 61, 0
5, 734400, Note_on_c, 1, 60, 100
5, 734400, Note_on_c, 1, 61, 100
5, 734640, Note_on_c, 1, 60, 0
5, 734640, Note_on_c, 1, 61, 0
5, 735360, Note_on_c, 1, 60, 100
5, 735360, Note_on_c, 1, 61, 100
5, 735360, Note_on_c, 0, 68, 100
5, 735600, Note_on_c, 1, 60, 0
5, 735600, Note_on_c, 1, 61, 0
5, 735600, Note_on_c, 0, 68, 0
5, 736800, Note_on_c, 0, 70, 100
5, 737040, Note_on_c, 0, 70, 0
5, 739200, Note_on_c, 0, 69, 100
5, 739440, Note_on_c, 0, 69, 0
5, 741120, Note_on_c, 0, 68, 100
5, 741360, Note_on_c, 0, 68, 0
5, 742560, Note_on_c, 0, 70, 100
5, 742800, Note_on_c, 0, 70, 0
5, 744960, Note_on_c, 0, 69, 100
5, 745200, Note_on_c, 0, 69, 0
5, 746880, Note_on_c, 0, 68, 100
5, 747120, Note_on_c, 0, 68, 0
5, 748320, Note_on_c, 0, 70, 100
5, 748560, Note_on_c, 0, 70, 0
5, 750720, Note_on_c, 0, 69, 100
5, 750960, Note_on_c, 0, 69, 0
5, 752640, Note_on_c, 0, 68, 100
5, 752880, Note_on_c, 0, 68, 0
5, 754080, Note_on_c, 0, 70, 100
5, 754320, Note_on_c, 0, 70, 0
5, 756480, Note_on_c, 0, 69, 100
5, 756720, Note_on_c, 0, 69, 0
5, 757440, Note_on_c, 1, 60, 100
5, 757680, Note_on_c, 1, 60, 0
5, 758400, Note_on_c, 1, 60, 100
5, 758400, Note_on_c, 1, 61, 100
5, 758400, Note_on_c, 0, 68, 100
5, 758640, Note_on_c, 1, 60, 0
5, 758640, Note_on_c, 1, 61, 0
5, 758640, Note_on_c, 0, 68, 0
5, 759360, Note_on_c, 1, 61, 100
5, 759600, Note_on_c, 1, 61, 0
5, 759840, Note_on_c, 1, 60, 100
5, 759840, Note_on_c, 1, 61, 100
5, 759840, Note_on_c, 0, 70, 100
5, 760080, Note_on_c, 1, 60, 0
5, 760080, Note_on_c, 1, 61, 0
5, 760080, Note_on_c, 0, 70, 0
5, 760800, Note_on_c, 1, 60, 100
5, 761040, Note_on_c, 1, 60, 0
5, 761280, Note_on_c, 1, 61, 100
5, 761520, Note_on_c, 1, 61, 0
5, 762240, Note_on_c, 1, 60, 100
5, 762240, Note_on_c, 1, 61, 100
5, 762240, Note_on_c, 0, 69, 100
5, 762480, Note_on_c, 1, 60, 0
5, 762480, Note_on_c, 1, 61, 0
5, 762480, Note_on_c, 0, 69, 0
5, 762720, Note_on_c, 1, 60, 100
5, 762960, Note_on_c, 1, 60, 0
5, 763200, Note_on_c, 1, 61, 100
5, 763440, Note_on_c, 1, 61, 0
5, 764160, Note_on_c, 1, 60, 100
5, 764160, Note_on_c, 1, 61, 100
5, 764160, Note_on_c, 0, 68, 100
5, 764400, Note_on_c, 1, 60, 0
5, 764400, Note_on_c, 1, 61, 0
5, 764400, Note_on_c, 0, 68, 0
5, 765120, Note_on_c, 1, 61, 100
5, 765360, Note_on_c, 1, 61, 0
5, 765600, Note_on_c, 1, 60, 100
5, 765600, Note_on_c, 1, 61, 100
5, 765600, Note_on_c, 0, 70, 100
5, 765840, Note_on_c, 1, 60, 0
5, 765840, Note_on_c, 1, 61, 0
5, 765840, Note_on_c, 0, 70, 0
5, 766560, Note_on_c, 1, 60, 100
5, 766800, Note_on_c, 1, 60, 0
5, 767040, Note_on_c, 1, 61, 100
5, 767280, Note_on_c, 1, 61, 0
5, 768000, Note_on_c, 1, 60, 100
5, 768000, Note_on_c, 1, 61, 100
5, 768000, Note_on_c, 0, 69, 100
5, 768240, Note_on_c, 1, 60, 0
5, 768240, Note_on_c, 1, 61, 0
5, 768240, Note_on_c, 0, 69, 0
5, 768480, Note_on_c, 1, 60, 100
5, 768720, Note_on_c, 1, 60, 0
5, 768960, Note_on_c, 1, 61, 100
5, 769200, Note_on_c, 1, 61, 0
5, 769920, Note_on_c, 1, 60, 100
5, 769920, Note_on_c, 1, 61, 100
5, 769920, Note_on_c, 0, 68, 100
5, 770160, Note_on_c, 1, 60, 0
5, 770160, Note_on_c, 1, 61, 0
5, 770160, Note_on_c, 0, 68, 0
5, 770880, Note_on_c, 1, 61, 100
5, 771120, Note_on_c, 1, 61, 0
5, 771360, Note_on_c, 1, 60, 100
5, 771360, Note_on_c, 1, 61, 100
5, 771360, Note_on_c, 0, 70, 100
5, 771600, Note_on_c, 1, 60, 0
5, 771600, Note_on_c, 1, 61, 0
5, 771600, Note_on_c, 0, 70, 0
5, 772800, Note_on_c, 1, 60, 100
5, 772800, Note_on_c, 1, 61, 100
5, 773040, Note_on_c, 1, 60, 0
5, 773040, Note_on_c, 1, 61, 0
5, 773760, Note_on_c, 1, 60, 100
5, 773760, Note_on_c, 1, 61, 100
5, 773760, Note_on_c, 0, 69, 100
5, 774000, Note_on_c, 1, 60, 0
5, 774000, Note_on_c, 1, 61, 0
5, 774000, Note_on_c, 0, 69, 0
5, 774240, Note_on_c, 1, 60, 100
5, 774480, Note_on_c, 1, 60, 0
5, 774720, Note_on_c, 1, 61, 100
5, 774960, Note_on_c, 1, 61, 0
5, 775680, Note_on_c, 1, 60, 100
5, 775680, Note_on_c, 1, 61, 100
5, 775680, Note_on_c, 0, 68, 100
5, 775920, Note_on_c, 1, 60, 0
5, 775920, Note_on_c, 1, 61, 0
5, 775920, Note_on_c, 0, 68, 0
5, 776640, Note_on_c, 1, 61, 100
5, 776880, Note_on_c, 1, 61, 0
5, 777120, Note_on_c, 1, 60, 100
5, 777120, Note_on_c, 1, 61, 100
5, 777120, Note_on_c, 0, 70, 100
5, 777360, Note_on_c, 1, 60, 0
5, 777360, Note_on_c, 1, 61, 0
5, 777360, Note_on_c, 0, 70, 0
5, 778080, Note_on_c, 1, 60, 100
5, 778320, Note_on_c, 1, 60, 0
5, 778560, Note_on_c, 1, 61, 100
5, 778800, Note_on_c, 1, 61, 0
5, 779520, Note_on_c, 1, 60, 100
5, 779520, Note_on_c, 1, 61, 100
5, 779520, Note_on_c, 0, 69, 100
5, 779760, Note_on_c, 1, 60, 0
5, 779760, Note_on_c, 1, 61, 0
5, 779760, Note_on_c, 0, 69, 0
5, 780000, Note_on_c, 1, 60, 100
5, 780240, Note_on_c, 1, 60, 0
5, 780480, Note_on_c, 1, 61, 100
5, 780720, Note_on_c, 1, 61, 0
5, 781440, Note_on_c, 1, 60, 100
5, 781440, Note_on_c, 1, 61, 100
5, 781440, Note_on_c, 0, 69, 100
5, 781680, Note_on_c, 1, 60, 0
5, 781680, Note_on_c, 1, 61, 0
5, 781680, Note_on_c, 0, 69, 0
5, 782400, Note_on_c, 1, 61, 100
5, 782640, Note_on_c, 1, 61, 0
5, 782880, Note_on_c, 1, 60, 100
5, 782880, Note_on_c, 1, 61, 100
5, 782880, Note_on_c, 0, 70, 100
5, 783120, Note_on_c, 1, 60, 0
5, 783120, Note_on_c, 1, 61, 0
5, 783120, Note_on_c, 0, 70, 0
5, 783840, Note_on_c, 1, 60, 100
5, 784080, Note_on_c, 1, 60, 0
5, 784320, Note_on_c, 1, 60, 100
5, 784320, Note_on_c, 1, 61, 100
5, 784560, Note_on_c, 1, 60, 0
5, 784560, Note_on_c, 1, 61, 0
5, 785280, Note_on_c, 1, 60, 100
5, 785280, Note_on_c, 1, 61, 100
5, 785280, Note_on_c, 0, 69, 100
5, 785520, Note_on_c, 1, 60, 0
5, 785520, Note_on_c, 1, 61, 0
5, 785520, Note_on_c, 0, 69, 0
5, 785760, Note_on_c, 1, 60, 100
5, 786000, Note_on_c, 1, 60, 0
5, 786240, Note_on_c, 1, 61, 100
5, 786480, Note_on_c, 1, 61, 0
5, 787200, Note_on_c, 1, 60, 100
5, 787200, Note_on_c, 1, 61, 100
5, 787200, Note_on_c, 0, 70, 100
5, 787440, Note_on_c, 1, 60, 0
5, 787440, Note_on_c, 1, 61, 0
5, 787440, Note_on_c, 0, 70, 0
5, 788160, Note_on_c, 1, 61, 100
5, 788400, Note_on_c, 1, 61, 0
5, 788640, Note_on_c, 1, 60, 100
5, 788640, Note_on_c, 1, 61, 100
5, 788640, Note_on_c, 0, 70, 100
5, 788880, Note_on_c, 1, 60, 0
5, 788880, Note_on_c, 1, 61, 0
5, 788880, Note_on_c, 0, 70, 0
5, 789600, Note_on_c, 1, 60, 100
5, 789840, Note_on_c, 1, 60, 0
5, 790080, Note_on_c, 1, 60, 100
5, 790080, Note_on_c, 1, 61, 100
5, 790320, Note_on_c, 1, 60, 0
5, 790320, Note_on_c, 1, 61, 0
5, 791040, Note_on_c, 1, 60, 100
5, 791040, Note_on_c, 1, 61, 100
5, 791040, Note_on_c, 0, 69, 100
5, 791280, Note_on_c, 1, 60, 0
5, 791280, Note_on_c, 1, 61, 0
5, 791280, Note_on_c, 0, 69, 0
5, 791520, Note_on_c, 1, 60, 100
5, 791760, Note_on_c, 1, 60, 0
5, 792000, Note_on_c, 1, 61, 100
5, 792240, Note_on_c, 1, 61, 0
5, 792960, Note_on_c, 1, 60, 100
5, 792960, Note_on_c, 1, 61, 100
5, 792960, Note_on_c, 0, 69, 100
5, 793200, Note_on_c, 1, 60, 0
5, 793200, Note_on_c, 1, 61, 0
5, 793200, Note_on_c, 0, 69, 0
5, 793920, Note_on_c, 1, 61, 100
5, 794160, Note_on_c, 1, 61, 0
5, 794400, Note_on_c, 1, 60, 100
5, 794400, Note_on_c, 1, 61, 100
5, 794400, Note_on_c, 0, 70, 100
5, 794640, Note_on_c, 1, 60, 0
5, 794640, Note_on_c, 1, 61, 0
5, 794640, Note_on_c, 0, 70, 0
5, 795360, Note_on_c, 1, 60, 100
5, 795600, Note_on_c, 1, 60, 0
5, 795840, Note_on_c, 1, 60, 100
5, 795840, Note_on_c, 1, 61, 100
5, 796080, Note_on_c, 1, 60, 0
5, 796080, Note_on_c, 1, 61, 0
5, 796800, Note_on_c, 1, 60, 100
5, 796800, Note_on_c, 1, 61, 100
5, 796800, Note_on_c, 0, 69, 100
5, 797040, Note_on_c, 1, 60, 0
5, 797040, Note_on_c, 1, 61, 0
5, 797040, Note_on_c, 0, 69, 0
5, 797280, Note_on_c, 1, 60, 100
5, 797520, Note_on_c, 1, 60, 0
5, 797760, Note_on_c, 1, 61, 100
5, 798000, Note_on_c, 1, 61, 0
5, 798720, Note_on_c, 1, 60, 100
5, 798720, Note_on_c, 1, 61, 100
5, 798720, Note_on_c, 0, 68, 100
5, 798960, Note_on_c, 1, 60, 0
5, 798960, Note_on_c, 1, 61, 0
5, 798960, Note_on_c, 0, 68, 0
5, 799680, Note_on_c, 1, 61, 100
5, 799920, Note_on_c, 1, 61, 0
5, 800160, Note_on_c, 1, 60, 100
5, 800160, Note_on_c, 1, 61, 100
5, 800160, Note_on_c, 0, 70, 100
5, 800400, Note_on_c, 1, 60, 0
5, 800400, Note_on_c, 1, 61, 0
5, 800400, Note_on_c, 0, 70, 0
5, 801120, Note_on_c, 1, 60, 100
5, 801360, Note_on_c, 1, 60, 0
5, 801600, Note_on_c, 1, 60, 100
5, 801600, Note_on_c, 1, 61, 100
5, 801840, Note_on_c, 1, 60, 0
5, 801840, Note_on_c, 1, 61, 0
5, 802560, Note_on_c, 1, 60, 100
5, 802560, Note_on_c, 1, 61, 100
5, 802560, Note_on_c, 0, 69, 100
5, 802800, Note_on_c, 1, 60, 0
5, 802800, Note_on_c, 1, 61, 0
5, 802800, Note_on_c, 0, 69, 0
5, 803520, Note_on_c, 1, 60, 100
5, 803520, Note_on_c, 1, 61, 100
5, 803760, Note_on_c, 1, 60, 0
5, 803760, Note_on_c, 1, 61, 0
5, 804480, Note_on_c, 1, 60, 100
5, 804480, Note_on_c, 1, 61, 100
5, 804480, Note_on_c, 0, 68, 100
5, 804720, Note_on_c, 1, 60, 0
5, 804720, Note_on_c, 1, 61, 0
5, 804720, Note_on_c, 0, 68, 0
5, 804960, Note_on_c, 1, 61, 100
5, 805200, Note_on_c, 1, 61, 0
5, 805440, Note_on_c, 1, 60, 100
5, 805440, Note_on_c, 1, 61, 100
5, 805680, Note_on_c, 1, 60, 0
5, 805680, Note_on_c, 1, 61, 0
5, 805920, Note_on_c, 1, 60, 100
5, 805920, Note_on_c, 1, 61, 100
5, 805920, Note_on_c, 0, 70, 100
5, 806160, Note_on_c, 1, 60, 0
5, 806160, Note_on_c, 1, 61, 0
5, 806160, Note_on_c, 0, 70, 0
5, 806400, Note_on_c, 1, 60, 100
5, 806400, Note_on_c, 1, 61, 100
5, 806640, Note_on_c, 1, 60, 0
5, 806640, Note_on_c, 1, 61, 0
5, 806880, Note_on_c, 1, 60, 100
5, 806880, Note_on_c, 1, 61, 100
5, 807120, Note_on_c, 1, 60, 0
5, 807120, Note_on_c, 1, 61, 0
5, 807360, Note_on_c, 1, 60, 100
5, 807360, Note_on_c, 1, 61, 100
5, 807600, Note_on_c, 1, 60, 0
5, 807600, Note_on_c, 1, 61, 0
5, 807840, Note_on_c, 1, 61, 100
5, 808080, Note_on_c, 1, 61, 0
5, 808320, Note_on_c, 1, 60, 100
5, 808320, Note_on_c, 1, 61, 100
5, 808320, Note_on_c, 0, 69, 100
5, 808560, Note_on_c, 1, 60, 0
5, 808560, Note_on_c, 1, 61, 0
5, 808560, Note_on_c, 0, 69, 0
5, 808800, Note_on_c, 1, 61, 100
5, 809040, Note_on_c, 1, 61, 0
5, 809280, Note_on_c, 1, 60, 100
5, 809280, Note_on_c, 1, 61, 100
5, 809520, Note_on_c, 1, 60, 0
5, 809520, Note_on_c, 1, 61, 0
5, 809760, Note_on_c, 1, 61, 100
5, 810000, Note_on_c, 1, 61, 0
5, 810240, Note_on_c, 1, 60, 100
5, 810240, Note_on_c, 1, 61, 100
5, 810240, Note_on_c, 0, 68, 100
5, 810480, Note_on_c, 1, 60, 0
5, 810480, Note_on_c, 1, 61, 0
5, 810480, Note_on_c, 0, 68, 0
5, 810720, Note_on_c, 1, 61, 100
5, 810960, Note_on_c, 1, 61, 0
5, 811200, Note_on_c, 1, 61, 100
5, 811440, Note_on_c, 1, 61, 0
5, 811680, Note_on_c, 1, 61, 100
5, 811680, Note_on_c, 0, 70, 100
5, 811920, Note_on_c, 1, 61, 0
5, 811920, Note_on_c, 0, 70, 0
5, 812160, Note_on_c, 1, 60, 100
5, 812160, Note_on_c, 1, 61, 100
5, 812400, Note_on_c, 1, 60, 0
5, 812400, Note_on_c, 1, 61, 0
5, 812640, Note_on_c, 1, 60, 100
5, 812640, Note_on_c, 1, 61, 100
5, 812880, Note_on_c, 1, 60, 0
5, 812880, Note_on_c, 1, 61, 0
5, 813120, Note_on_c, 1, 61, 100
5, 813360, Note_on_c, 1, 61, 0
5, 813600, Note_on_c, 1, 61, 100
5, 813840, Note_on_c, 1, 61, 0
5, 814080, Note_on_c, 1, 60, 100
5, 814080, Note_on_c, 1, 61, 100
5, 814080, Note_on_c, 0, 69, 100
5, 814320, Note_on_c, 1, 60, 0
5, 814320, Note_on_c, 1, 61, 0
5, 814320, Note_on_c, 0, 69, 0
5, 814560, Note_on_c, 1, 61, 100
5, 814800, Note_on_c, 1, 61, 0
5, 815040, Note_on_c, 1, 60, 100
5, 815040, Note_on_c, 1, 61, 100
5, 815280, Note_on_c, 1, 60, 0
5, 815280, Note_on_c, 1, 61, 0
5, 815520, Note_on_c, 1, 61, 100
5, 815760, Note_on_c, 1, 61, 0
5, 816000, Note_on_c, 1, 60, 100
5, 816000, Note_on_c, 1, 61, 100
5, 816000, Note_on_c, 0, 68, 100
5, 816240, Note_on_c, 1, 60, 0
5, 816240, Note_on_c, 1, 61, 0
5, 816240, Note_on_c, 0, 68, 0
5, 816480, Note_on_c, 1, 61, 100
5, 816720, Note_on_c, 1, 61, 0
5, 816960, Note_on_c, 1, 61, 100
5, 817200, Note_on_c, 1, 61, 0
5, 817440, Note_on_c, 1, 61, 100
5, 817440, Note_on_c, 0, 70, 100
5, 817680, Note_on_c, 1, 61, 0
5, 817680, Note_on_c, 0, 70, 0
5, 817920, Note_on_c, 1, 60, 100
5, 817920, Note_on_c, 1, 61, 100
5, 818160, Note_on_c, 1, 60, 0
5, 818160, Note_on_c, 1, 61, 0
5, 818400, Note_on_c, 1, 60, 100
5, 818400, Note_on_c, 1, 61, 100
5, 818640, Note_on_c, 1, 60, 0
5, 818640, Note_on_c, 1, 61, 0
5, 818880, Note_on_c, 1, 61, 100
5, 819120, Note_on_c, 1, 61, 0
5, 819360, Note_on_c, 1, 61, 100
5, 819600, Note_on_c, 1, 61, 0
5, 819840, Note_on_c, 1, 60, 100
5, 819840, Note_on_c, 1, 61, 100
5, 819840, Note_on_c, 0, 69, 100
5, 820080, Note_on_c, 1, 60, 0
5, 820080, Note_on_c, 1, 61, 0
5, 820080, Note_on_c, 0, 69, 0
5, 820320, Note_on_c, 1, 61, 100
5, 820560, Note_on_c, 1, 61, 0
5, 820800, Note_on_c, 1, 60, 100
5, 820800, Note_on_c, 1, 61, 100
5, 821040, Note_on_c, 1, 60, 0
5, 821040, Note_on_c, 1, 61, 0
5, 821280, Note_on_c, 1, 61, 100
5, 821520, Note_on_c, 1, 61, 0
5, 821760, Note_on_c, 1, 60, 100
5, 821760, Note_on_c, 1, 61, 100
5, 821760, Note_on_c, 0, 68, 100
5, 822000, Note_on_c, 1, 60, 0
5, 822000, Note_on_c, 1, 61, 0
5, 822000, Note_on_c, 0, 68, 0
5, 822240, Note_on_c, 1, 61, 100
5, 822480, Note_on_c, 1, 61, 0
5, 822720, Note_on_c, 1, 60, 100
5, 822720, Note_on_c, 1, 61, 100
5, 822960, Note_on_c, 1, 60, 0
5, 822960, Note_on_c, 1, 61, 0
5, 823200, Note_on_c, 1, 61, 100
5, 823200, Note_on_c, 0, 70, 100
5, 823440, Note_on_c, 1, 61, 0
5, 823440, Note_on_c, 0, 70, 0
5, 823680, Note_on_c, 1, 60, 100
5, 823680, Note_on_c, 1, 61, 100
5, 823920, Note_on_c, 1, 60, 0
5, 823920, Note_on_c, 1, 61, 0
5, 824160, Note_on_c, 1, 60, 100
5, 824160, Note_on_c, 1, 61, 100
5, 824400, Note_on_c, 1, 60, 0
5, 824400, Note_on_c, 1, 61, 0
5, 824640, Note_on_c, 1, 61, 100
5, 824880, Note_on_c, 1, 61, 0
5, 825120, Note_on_c, 1, 61, 100
5, 825360, Note_on_c, 1, 61, 0
5, 825600, Note_on_c, 1, 60, 100
5, 825600, Note_on_c, 1, 61, 100
5, 825600, Note_on_c, 0, 69, 100
5, 825840, Note_on_c, 1, 60, 0
5, 825840, Note_on_c, 1, 61, 0
5, 825840, Note_on_c, 0, 69, 0
5, 826080, Note_on_c, 1, 61, 100
5, 826320, Note_on_c, 1, 61, 0
5, 826560, Note_on_c, 1, 60, 100
5, 826560, Note_on_c, 1, 61, 100
5, 826800, Note_on_c, 1, 60, 0
5, 826800, Note_on_c, 1, 61, 0
5, 827040, Note_on_c, 1, 61, 100
5, 827280, Note_on_c, 1, 61, 0
5, 827520, Note_on_c, 1, 60, 100
5, 827520, Note_on_c, 1, 61, 100
5, 827520, Note_on_c, 0, 69, 100
5, 827760, Note_on_c, 1, 60, 0
5, 827760, Note_on_c, 1, 61, 0
5, 827760, Note_on_c, 0, 69, 0
5, 828000, Note_on_c, 1, 61, 100
5, 828240, Note_on_c, 1, 61, 0
5, 828480, Note_on_c, 1, 61, 100
5, 828720, Note_on_c, 1, 61, 0
5, 828960, Note_on_c, 1, 61, 100
5, 828960, Note_on_c, 0, 70, 100
5, 829200, Note_on_c, 1, 61, 0
5, 829200, Note_on_c, 0, 70, 0
5, 829440, Note_on_c, 1, 60, 100
5, 829440, Note_on_c, 1, 61, 100
5, 829680, Note_on_c, 1, 60, 0
5, 829680, Note_on_c, 1, 61, 0
5, 829920, Note_on_c, 1, 60, 100
5, 829920, Note_on_c, 1, 61, 100
5, 830160, Note_on_c, 1, 60, 0
5, 830160, Note_on_c, 1, 61, 0
5, 830400, Note_on_c, 1, 60, 100
5, 830400, Note_on_c, 1, 61, 100
5, 830640, Note_on_c, 1, 60, 0
5, 830640, Note_on_c, 1, 61, 0
5, 830880, Note_on_c, 1, 61, 100
5, 831120, Note_on_c, 1, 61, 0
5, 831360, Note_on_c, 1, 60, 100
5, 831360, Note_on_c, 1, 61, 100
5, 831360, Note_on_c, 0, 69, 100
5, 831600, Note_on_c, 1, 60, 0
5, 831600, Note_on_c, 1, 61, 0
5, 831600, Note_on_c, 0, 69, 0
5, 831840, Note_on_c, 1, 61, 100
5, 832080, Note_on_c, 1, 61, 0
5, 832320, Note_on_c, 1, 60, 100
5, 832320, Note_on_c, 1, 61, 100
5, 832560, Note_on_c, 1, 60, 0
5, 832560, Note_on_c, 1, 61, 0
5, 832800, Note_on_c, 1, 61, 100
5, 833040, Note_on_c, 1, 61, 0
5, 833280, Note_on_c, 1, 60, 100
5, 833280, Note_on_c, 1, 61, 100
5, 833280, Note_on_c, 0, 70, 100
5, 833520, Note_on_c, 1, 60, 0
5, 833520, Note_on_c, 1, 61, 0
5, 833520, Note_on_c, 0, 70, 0
5, 833760, Note_on_c, 1, 61, 100
5, 834000, Note_on_c, 1, 61, 0
5, 834240, Note_on_c, 1, 61, 100
5, 834480, Note_on_c, 1, 61, 0
5, 834720, Note_on_c, 1, 60, 100
5, 834720, Note_on_c, 1, 61, 100
5, 834720, Note_on_c, 0, 70, 100
5, 834960, Note_on_c, 1, 60, 0
5, 834960, Note_on_c, 1, 61, 0
5, 834960, Note_on_c, 0, 70, 0
5, 835200, Note_on_c, 1, 60, 100
5, 835200, Note_on_c, 1, 61, 100
5, 835440, Note_on_c, 1, 60, 0
5, 835440, Note_on_c, 1, 61, 0
5, 835680, Note_on_c, 1, 60, 100
5, 835680, Note_on_c, 1, 61, 100
5, 835920, Note_on_c, 1, 60, 0
5, 835920, Note_on_c, 1, 61, 0
5, 836160, Note_on_c, 1, 61, 100
5, 836400, Note_on_c, 1, 61, 0
5, 836640, Note_on_c, 1, 61, 100
5, 836880, Note_on_c, 1, 61, 0
5, 837120, Note_on_c, 1, 60, 100
5, 837120, Note_on_c, 1, 61, 100
5, 837120, Note_on_c, 0, 69, 100
5, 837360, Note_on_c, 1, 60, 0
5, 837360, Note_on_c, 1, 61, 0
5, 837360, Note_on_c, 0, 69, 0
5, 837600, Note_on_c, 1, 61, 100
5, 837840, Note_on_c, 1, 61, 0
5, 838080, Note_on_c, 1, 60, 100
5, 838080, Note_on_c, 1, 61, 100
5, 838320, Note_on_c, 1, 60, 0
5, 838320, Note_on_c, 1, 61, 0
5, 838560, Note_on_c, 1, 61, 100
5, 838800, Note_on_c, 1, 61, 0
5, 839040, Note_on_c, 1, 60, 100
5, 839040, Note_on_c, 1, 61, 100
5, 839040, Note_on_c, 0, 69, 100
5, 839280, Note_on_c, 1, 60, 0
5, 839280, Note_on_c, 1, 61, 0
5, 839280, Note_on_c, 0, 69, 0
5, 839520, Note_on_c, 1, 61, 100
5, 839760, Note_on_c, 1, 61, 0
5, 840000, Note_on_c, 1, 61, 100
5, 840240, Note_on_c, 1, 61, 0
5, 840480, Note_on_c, 1, 60, 100
5, 840480, Note_on_c, 1, 61, 100
5, 840480, Note_on_c, 0, 70, 100
5, 840720, Note_on_c, 1, 60, 0
5, 840720, Note_on_c, 1, 61, 0
5, 840720, Note_on_c, 0, 70, 0
5, 840960, Note_on_c, 1, 60, 100
5, 840960, Note_on_c, 1, 61, 100
5, 841200, Note_on_c, 1, 60, 0
5, 841200, Note_on_c, 1, 61, 0
5, 841440, Note_on_c, 1, 60, 100
5, 841440, Note_on_c, 1, 61, 100
5, 841680, Note_on_c, 1, 60, 0
5, 841680, Note_on_c, 1, 61, 0
5, 841920, Note_on_c, 1, 61, 100
5, 842160, Note_on_c, 1, 61, 0
5, 842400, Note_on_c, 1, 61, 100
5, 842640, Note_on_c, 1, 61, 0
5, 842880, Note_on_c, 1, 60, 100
5, 842880, Note_on_c, 1, 61, 100
5, 842880, Note_on_c, 0, 69, 100
5, 843120, Note_on_c, 1, 60, 0
5, 843120, Note_on_c, 1, 61, 0
5, 843120, Note_on_c, 0, 69, 0
5, 843360, Note_on_c, 1, 61, 100
5, 843600, Note_on_c, 1, 61, 0
5, 843840, Note_on_c, 1, 60, 100
5, 843840, Note_on_c, 1, 61, 100
5, 844080, Note_on_c, 1, 60, 0
5, 844080, Note_on_c, 1, 61, 0
5, 844320, Note_on_c, 1, 61, 100
5, 844560, Note_on_c, 1, 61, 0
5, 844800, Note_on_c, 1, 60, 100
5, 844800, Note_on_c, 1, 61, 100
5, 844800, Note_on_c, 0, 69, 100
5, 845040, Note_on_c, 1, 60, 0
5, 845040, Note_on_c, 1, 61, 0
5, 845040, Note_on_c, 0, 69, 0
5, 845280, Note_on_c, 1, 61, 100
5, 845520, Note_on_c, 1, 61, 0
5, 845760, Note_on_c, 1, 60, 100
5, 845760, Note_on_c, 1, 61, 100
5, 846000, Note_on_c, 1, 60, 0
5, 846000, Note_on_c, 1, 61, 0
5, 846240, Note_on_c, 1, 61, 100
5, 846240, Note_on_c, 0, 70, 100
5, 846480, Note_on_c, 1, 61, 0
5, 846480, Note_on_c, 0, 70, 0
5, 846720, Note_on_c, 1, 60, 100
5, 846720, Note_on_c, 1, 61, 100
5, 846960, Note_on_c, 1, 60, 0
5, 846960, Note_on_c, 1, 61, 0
5, 847200, Note_on_c, 1, 61, 100
5, 847440, Note_on_c, 1, 61, 0
5, 847680, Note_on_c, 1, 60, 100
5, 847680, Note_on_c, 1, 61, 100
5, 847920, Note_on_c, 1, 60, 0
5, 847920, Note_on_c, 1, 61, 0
5, 848160, Note_on_c, 1, 61, 100
5, 848400, Note_on_c, 1, 61, 0
5, 848640, Note_on_c, 1, 60, 100
5, 848640, Note_on_c, 1, 61, 100
5, 848640, Note_on_c, 0, 69, 100
5, 848880, Note_on_c, 1, 60, 0
5, 848880, Note_on_c, 1, 61, 0
5, 848880, Note_on_c, 0, 69, 0
5, 849120, Note_on_c, 1, 61, 100
5, 849360, Note_on_c, 1, 61, 0
5, 849600, Note_on_c, 1, 60, 100
5, 849600, Note_on_c, 1, 61, 100
5, 849840, Note_on_c, 1, 60, 0
5, 849840, Note_on_c, 1, 61, 0
5, 850080, Note_on_c, 1, 61, 100
5, 850320, Note_on_c, 1, 61, 0
5, 850560, Note_on_c, 1, 60, 100
5, 850560, Note_on_c, 1, 61, 100
5, 850560, Note_on_c, 0, 69, 100
5, 850800, Note_on_c, 1, 60, 0
5, 850800, Note_on_c, 1, 61, 0
5, 850800, Note_on_c, 0, 69, 0
5, 851040, Note_on_c, 1, 61, 100
5, 851280, Note_on_c, 1, 61, 0
5, 851520, Note_on_c, 1, 61, 100
5, 851760, Note_on_c, 1, 61, 0
5, 852000, Note_on_c, 1, 61, 100
5, 852240, Note_on_c, 1, 61, 0
5, 852480, Note_on_c, 1, 60, 100
5, 852480, Note_on_c, 1, 61, 100
5, 852720, Note_on_c, 1, 60, 0
5, 852720, Note_on_c, 1, 61, 0
5, 852960, Note_on_c, 1, 60, 100
5, 852960, Note_on_c, 1, 61, 100
5, 853200, Note_on_c, 1, 60, 0
5, 853200, Note_on_c, 1, 61, 0
5, 853440, Note_on_c, 1, 61, 100
5, 853440, Note_on_c, 0, 69, 100
5, 853680, Note_on_c, 1, 61, 0
5, 853680, Note_on_c, 0, 69, 0
5, 853920, Note_on_c, 1, 61, 100
5, 854160, Note_on_c, 1, 61, 0
5, 854400, Note_on_c, 1, 60, 100
5, 854400, Note_on_c, 1, 61, 100
5, 854640, Note_on_c, 1, 60, 0
5, 854640, Note_on_c, 1, 61, 0
5, 854880, Note_on_c, 1, 61, 100
5, 855120, Note_on_c, 1, 61, 0
5, 855360, Note_on_c, 1, 60, 100
5, 855360, Note_on_c, 1, 61, 100
5, 855600, Note_on_c, 1, 60, 0
5, 855600, Note_on_c, 1, 61, 0
5, 855840, Note_on_c, 1, 61, 100
5, 856080, Note_on_c, 1, 61, 0
5, 856320, Note_on_c, 1, 60, 100
5, 856320, Note_on_c, 1, 61, 100
5, 856320, Note_on_c, 0, 69, 100
5, 856560, Note_on_c, 1, 60, 0
5, 856560, Note_on_c, 1, 61, 0
5, 856560, Note_on_c, 0, 69, 0
5, 856800, Note_on_c, 1, 61, 100
5, 857040, Note_on_c, 1, 61, 0
5, 857280, Note_on_c, 1, 61, 100
5, 857280, Note_on_c, 0, 70, 100
5, 857520, Note_on_c, 1, 61, 0
5, 857520, Note_on_c, 0, 70, 0
5, 857760, Note_on_c, 1, 61, 100
5, 858000, Note_on_c, 1, 61, 0
5, 858240, Note_on_c, 1, 60, 100
5, 858240, Note_on_c, 1, 61, 100
5, 858480, Note_on_c, 1, 60, 0
5, 858480, Note_on_c, 1, 61, 0
5, 858720, Note_on_c, 1, 60, 100
5, 858720, Note_on_c, 1, 61, 100
5, 858960, Note_on_c, 1, 60, 0
5, 858960, Note_on_c, 1, 61, 0
5, 859200, Note_on_c, 1, 61, 100
5, 859200, Note_on_c, 0, 70, 100
5, 859440, Note_on_c, 1, 61, 0
5, 859440, Note_on_c, 0, 70, 0
5, 859680, Note_on_c, 1, 61, 100
5, 859920, Note_on_c, 1, 61, 0
5, 860160, Note_on_c, 1, 60, 100
5, 860160, Note_on_c, 1, 61, 100
5, 860400, Note_on_c, 1, 60, 0
5, 860400, Note_on_c, 1, 61, 0
5, 860640, Note_on_c, 1, 61, 100
5, 860880, Note_on_c, 1, 61, 0
5, 861120, Note_on_c, 1, 60, 100
5, 861120, Note_on_c, 1, 61, 100
5, 861360, Note_on_c, 1, 60, 0
5, 861360, Note_on_c, 1, 61, 0
5, 861600, Note_on_c, 1, 61, 100
5, 861840, Note_on_c, 1, 61, 0
5, 862080, Note_on_c, 1, 60, 100
5, 862080, Note_on_c, 1, 61, 100
5, 862080, Note_on_c, 0, 69, 100
5, 862320, Note_on_c, 1, 60, 0
5, 862320, Note_on_c, 1, 61, 0
5, 862320, Note_on_c, 0, 69, 0
5, 862560, Note_on_c, 1, 61, 100
5, 862800, Note_on_c, 1, 61, 0
5, 863040, Note_on_c, 1, 60, 100
5, 863040, Note_on_c, 1, 61, 100
5, 863280, Note_on_c, 1, 60, 0
5, 863280, Note_on_c, 1, 61, 0
5, 863520, Note_on_c, 1, 61, 100
5, 863760, Note_on_c, 1, 61, 0
5, 864000, Note_on_c, 1, 61, 100
5, 864240, Note_on_c, 1, 61, 0
5, 864480, Note_on_c, 1, 60, 100
5, 864480, Note_on_c, 1, 61, 100
5, 864720, Note_on_c, 1, 60, 0
5, 864720, Note_on_c, 1, 61, 0
5, 864960, Note_on_c, 1, 61, 100
5, 864960, Note_on_c, 0, 69, 100
5, 865200, Note_on_c, 1, 61, 0
5, 865200, Note_on_c, 0, 69, 0
5, 865440, Note_on_c, 1, 61, 100
5, 865680, Note_on_c, 1, 61, 0
5, 865920, Note_on_c, 1, 60, 100
5, 865920, Note_on_c, 1, 61, 100
5, 866160, Note_on_c, 1, 60, 0
5, 866160, Note_on_c, 1, 61, 0
5, 866400, Note_on_c, 1, 61, 100
5, 866640, Note_on_c, 1, 61, 0
5, 866880, Note_on_c, 1, 60, 100
5, 866880, Note_on_c, 1, 61, 100
5, 867120, Note_on_c, 1, 60, 0
5, 867120, Note_on_c, 1, 61, 0
5, 867360, Note_on_c, 1, 61, 100
5, 867600, Note_on_c, 1, 61, 0
5, 867840, Note_on_c, 1, 60, 100
5, 867840, Note_on_c, 1, 61, 100
5, 867840, Note_on_c, 0, 69, 100
5, 868080, Note_on_c, 1, 60, 0
5, 868080, Note_on_c, 1, 61, 0
5, 868080, Note_on_c, 0, 69, 0
5, 868320, Note_on_c, 1, 61, 100
5, 868560, Note_on_c, 1, 61, 0
5, 868800, Note_on_c, 1, 60, 100
5, 868800, Note_on_c, 1, 61, 100
5, 868800, Note_on_c, 0, 70, 100
5, 869040, Note_on_c, 1, 60, 0
5, 869040, Note_on_c, 1, 61, 0
5, 869040, Note_on_c, 0, 70, 0
5, 869280, Note_on_c, 1, 61, 100
5, 869520, Note_on_c, 1, 61, 0
5, 869760, Note_on_c, 1, 61, 100
5, 870000, Note_on_c, 1, 61, 0
5, 870240, Note_on_c, 1, 60, 100
5, 870240, Note_on_c, 1, 61, 100
5, 870480, Note_on_c, 1, 60, 0
5, 870480, Note_on_c, 1, 61, 0
5, 870720, Note_on_c, 1, 61, 100
5, 870720, Note_on_c, 0, 70, 100
5, 870960, Note_on_c, 1, 61, 0
5, 870960, Note_on_c, 0, 70, 0
5, 871200, Note_on_c, 1, 61, 100
5, 871440, Note_on_c, 1, 61, 0
5, 871680, Note_on_c, 1, 60, 100
5, 871680, Note_on_c, 1, 61, 100
5, 871920, Note_on_c, 1, 60, 0
5, 871920, Note_on_c, 1, 61, 0
5, 872160, Note_on_c, 1, 61, 100
5, 872400, Note_on_c, 1, 61, 0
5, 872640, Note_on_c, 1, 60, 100
5, 872640, Note_on_c, 1, 61, 100
5, 872880, Note_on_c, 1, 60, 0
5, 872880, Note_on_c, 1, 61, 0
5, 873120, Note_on_c, 1, 61, 100
5, 873360, Note_on_c, 1, 61, 0
5, 873600, Note_on_c, 1, 60, 100
5, 873600, Note_on_c, 1, 61, 100
5, 873600, Note_on_c, 0, 69, 100
5, 873840, Note_on_c, 1, 60, 0
5, 873840, Note_on_c, 1, 61, 0
5, 873840, Note_on_c, 0, 69, 0
5, 874080, Note_on_c, 1, 61, 100
5, 874320, Note_on_c, 1, 61, 0
5, 874560, Note_on_c, 1, 60, 100
5, 874560, Note_on_c, 1, 61, 100
5, 874800, Note_on_c, 1, 60, 0
5, 874800, Note_on_c, 1, 61, 0
5, 875040, Note_on_c, 1, 60, 100
5, 875040, Note_on_c, 1, 61, 100
5, 875280, Note_on_c, 1, 60, 0
5, 875280, Note_on_c, 1, 61, 0
5, 875520, Note_on_c, 1, 60, 100
5, 875520, Note_on_c, 1, 61, 100
5, 875760, Note_on_c, 1, 60, 0
5, 875760, Note_on_c, 1, 61, 0
5, 876000, Note_on_c, 1, 60, 100
5, 876000, Note_on_c, 1, 61, 100
5, 876240, Note_on_c, 1, 60, 0
5, 876240, Note_on_c, 1, 61, 0
5, 876480, Note_on_c, 1, 61, 100
5, 876480, Note_on_c, 0, 69, 100
5, 876720, Note_on_c, 1, 61, 0
5, 876720, Note_on_c, 0, 69, 0
5, 876960, Note_on_c, 1, 61, 100
5, 877200, Note_on_c, 1, 61, 0
5, 877440, Note_on_c, 1, 60, 100
5, 877440, Note_on_c, 1, 61, 100
5, 877680, Note_on_c, 1, 60, 0
5, 877680, Note_on_c, 1, 61, 0
5, 877920, Note_on_c, 1, 61, 100
5, 878160, Note_on_c, 1, 61, 0
5, 878400, Note_on_c, 1, 60, 100
5, 878400, Note_on_c, 1, 61, 100
5, 878640, Note_on_c, 1, 60, 0
5, 878640, Note_on_c, 1, 61, 0
5, 878880, Note_on_c, 1, 61, 100
5, 879120, Note_on_c, 1, 61, 0
5, 879360, Note_on_c, 1, 60, 100
5, 879360, Note_on_c, 1, 61, 100
5, 879360, Note_on_c, 0, 69, 100
5, 879600, Note_on_c, 1, 60, 0
5, 879600, Note_on_c, 1, 61, 0
5, 879600, Note_on_c, 0, 69, 0
5, 879840, Note_on_c, 1, 61, 100
5, 880080, Note_on_c, 1, 61, 0
5, 880320, Note_on_c, 1, 60, 100
5, 880320, Note_on_c, 1, 61, 100
5, 880560, Note_on_c, 1, 60, 0
5, 880560, Note_on_c, 1, 61, 0
5, 880800, Note_on_c, 1, 61, 100
5, 881040, Note_on_c, 1, 61, 0
5, 881280, Note_on_c, 1, 60, 100
5, 881280, Note_on_c, 1, 61, 100
5, 881520, Note_on_c, 1, 60, 0
5, 881520, Note_on_c, 1, 61, 0
5, 881760, Note_on_c, 1, 61, 100
5, 882000, Note_on_c, 1, 61, 0
5, 882240, Note_on_c, 1, 60, 100
5, 882240, Note_on_c, 1, 61, 100
5, 882240, Note_on_c, 0, 69, 100
5, 882480, Note_on_c, 1, 60, 0
5, 882480, Note_on_c, 1, 61, 0
5, 882480, Note_on_c, 0, 69, 0
5, 882720, Note_on_c, 1, 61, 100
5, 882960, Note_on_c, 1, 61, 0
5, 883200, Note_on_c, 1, 60, 100
5, 883200, Note_on_c, 1, 61, 100
5, 883200, Note_on_c, 0, 69, 100
5, 883440, Note_on_c, 1, 60, 0
5, 883440, Note_on_c, 1, 61, 0
5, 883440, Note_on_c, 0, 69, 0
5, 883680, Note_on_c, 1, 61, 100
5, 883920, Note_on_c, 1, 61, 0
5, 884160, Note_on_c, 1, 60, 100
5, 884160, Note_on_c, 1, 61, 100
5, 884400, Note_on_c, 1, 60, 0
5, 884400, Note_on_c, 1, 61, 0
5, 884640, Note_on_c, 1, 61, 100
5, 884880, Note_on_c, 1, 61, 0
5, 885120, Note_on_c, 1, 60, 100
5, 885120, Note_on_c, 1, 61, 100
5, 885120, Note_on_c, 0, 68, 100
5, 885360, Note_on_c, 1, 60, 0
5, 885360, Note_on_c, 1, 61, 0
5, 885360, Note_on_c, 0, 68, 0
5, 885600, Note_on_c, 1, 61, 100
5, 885840, Note_on_c, 1, 61, 0
5, 886080, Note_on_c, 1, 60, 100
5, 886080, Note_on_c, 1, 61, 100
5, 886320, Note_on_c, 1, 60, 0
5, 886320, Note_on_c, 1, 61, 0
5, 886560, Note_on_c, 1, 61, 100
5, 886800, Note_on_c, 1, 61, 0
5, 887040, Note_on_c, 1, 60, 100
5, 887040, Note_on_c, 1, 61, 100
5, 887280, Note_on_c, 1, 60, 0
5, 887280, Note_on_c, 1, 61, 0
5, 887520, Note_on_c, 1, 60, 100
5, 887520, Note_on_c, 1, 61, 100
5, 887760, Note_on_c, 1, 60, 0
5, 887760, Note_on_c, 1, 61, 0
5, 888000, Note_on_c, 1, 61, 100
5, 888000, Note_on_c, 0, 68, 100
5, 888240, Note_on_c, 1, 61, 0
5, 888240, Note_on_c, 0, 68, 0
5, 888480, Note_on_c, 1, 61, 100
5, 888720, Note_on_c, 1, 61, 0
5, 888960, Note_on_c, 1, 60, 100
5, 888960, Note_on_c, 1, 61, 100
5, 889200, Note_on_c, 1, 60, 0
5, 889200, Note_on_c, 1, 61, 0
5, 889440, Note_on_c, 1, 61, 100
5, 889680, Note_on_c, 1, 61, 0
5, 889920, Note_on_c, 1, 60, 100
5, 889920, Note_on_c, 1, 61, 100
5, 890160, Note_on_c, 1, 60, 0
5, 890160, Note_on_c, 1, 61, 0
5, 890400, Note_on_c, 1, 61, 100
5, 890640, Note_on_c, 1, 61, 0
5, 890880, Note_on_c, 1, 60, 100
5, 890880, Note_on_c, 1, 61, 100
5, 890880, Note_on_c, 0, 68, 100
5, 891120, Note_on_c, 1, 60, 0
5, 891120, Note_on_c, 1, 61, 0
5, 891120, Note_on_c, 0, 68, 0
5, 891360, Note_on_c, 1, 61, 100
5, 891600, Note_on_c, 1, 61, 0
5, 891840, Note_on_c, 1, 60, 100
5, 891840, Note_on_c, 1, 61, 100
5, 892080, Note_on_c, 1, 60, 0
5, 892080, Note_on_c, 1, 61, 0
5, 892320, Note_on_c, 1, 61, 100
5, 892560, Note_on_c, 1, 61, 0
5, 892800, Note_on_c, 1, 60, 100
5, 892800, Note_on_c, 1, 61, 100
5, 893040, Note_on_c, 1, 60, 0
5, 893040, Note_on_c, 1, 61, 0
5, 893280, Note_on_c, 1, 61, 100
5, 893520, Note_on_c, 1, 61, 0
5, 893760, Note_on_c, 1, 60, 100
5, 893760, Note_on_c, 1, 61, 100
5, 893760, Note_on_c, 0, 68, 100
5, 894000, Note_on_c, 1, 60, 0
5, 894000, Note_on_c, 1, 61, 0
5, 894000, Note_on_c, 0, 68, 0
5, 894240, Note_on_c, 1, 61, 100
5, 894480, Note_on_c, 1, 61, 0
5, 894720, Note_on_c, 1, 60, 100
5, 894720, Note_on_c, 1, 61, 100
5, 894960, Note_on_c, 1, 60, 0
5, 894960, Note_on_c, 1, 61, 0
5, 895200, Note_on_c, 1, 61, 100
5, 895440, Note_on_c, 1, 61, 0
5, 895680, Note_on_c, 1, 60, 100
5, 895680, Note_on_c, 1, 61, 100
5, 895920, Note_on_c, 1, 60, 0
5, 895920, Note_on_c, 1, 61, 0
5, 896160, Note_on_c, 1, 61, 100
5, 896400, Note_on_c, 1, 61, 0
5, 896640, Note_on_c, 1, 60, 100
5, 896640, Note_on_c, 1, 61, 100
5, 896640, Note_on_c, 0, 69, 100
5, 896880, Note_on_c, 1, 60, 0
5, 896880, Note_on_c, 1, 61, 0
5, 896880, Note_on_c, 0, 69, 0
5, 897120, Note_on_c, 1, 61, 100
5, 897360, Note_on_c, 1, 61, 0
5, 899520, Note_on_c, 0, 69, 100
5, 899760, Note_on_c, 0, 69, 0
5, 902400, Note_on_c, 0, 69, 100
5, 902640, Note_on_c, 0, 69, 0
5, 903360, Note_on_c, 0, 70, 100
5, 903600, Note_on_c, 0, 70, 0
5, 903600, End_track
6, 0, Start_track
6, 0, Title_t, "BAND BASS"
6, 0, Text_t, "gtr_off"
6, 0, Text_t, "drum_off"
6, 0, Text_t, "sing_off"
6, 0, Text_t, "[idle]"
6, 0, Text_t, "gtr_half_tempo"
6, 0, Text_t, "bass_half_tempo"
6, 0, Text_t, "drum_half_tempo"
6, 0, Text_t, "[crowd_half_tempo]"
6, 0, Text_t, "[half_tempo]"
6, 11520, Text_t, "gtr_on"
6, 11520, Text_t, "[verse]"
6, 34560, Text_t, "[play]"
6, 34560, Text_t, "drum_allbeat"
6, 57600, Text_t, "drum_double"
6, 80640, Text_t, "[chorus]"
6, 111360, Text_t, "[verse]"
6, 111360, Text_t, "gtr_off"
6, 134400, Text_t, "gtr_on"
6, 145920, Text_t, "drum_allbeat"
6, 157440, Text_t, "[chorus]"
6, 157440, Text_t, "drum_double"
6, 218880, Text_t, "[verse]"
6, 218880, Text_t, "gtr_off"
6, 241920, Text_t, "gtr_on"
6, 253440, Text_t, "drum_allbeat"
6, 264960, Text_t, "drum_normal"
6, 314880, Text_t, "[chorus]"
6, 314880, Text_t, "drum_double"
6, 345600, Text_t, "[verse]"
6, 345600, Text_t, "gtr_off"
6, 368640, Text_t, "gtr_on"
6, 380160, Text_t, "drum_allbeat"
6, 391680, Text_t, "[chorus]"
6, 391680, Text_t, "drum_double"
6, 453120, Text_t, "[verse]"
6, 453120, Text_t, "gtr_off"
6, 476160, Text_t, "gtr_on"
6, 487680, Text_t, "drum_allbeat"
6, 499200, Text_t, "[idle]"
6, 501120, Text_t, "drum_off"
6, 516480, Text_t, "[solo]"
6, 516480, Text_t, "drum_allbeat"
6, 518400, Text_t, "drum_off"
6, 551040, Text_t, "drum_double"
6, 551040, Text_t, "[play]"
6, 551040, Text_t, "[verse]"
6, 574080, Text_t, "drum_half"
6, 602880, Text_t, "drum_normal"
6, 631680, Text_t, "[chorus]"
6, 631680, Text_t, "[lighting (sweep)]"
6, 631680, Text_t, "drum_double"
6, 677760, Text_t, "wail_off"
6, 677760, Text_t, "[verse]"
6, 677760, Text_t, "drum_half"
6, 706560, Text_t, "drum_double"
6, 735360, Text_t, "drum_off"
6, 735360, Text_t, "[idle]"
6, 735360, Text_t, "[solo]"
6, 758400, Text_t, "[chorus]"
6, 758400, Text_t, "drum_double"
6, 758400, Text_t, "[play]"
6, 850560, Text_t, "[verse]"
6, 896640, Text_t, "[idle]"
6, 898560, Text_t, "drum_off"
6, 950400, Text_t, "gtr_off"
6, 952318, Text_t, "[end]"
6, 952318, End_track
7, 0, Start_track
7, 0, Title_t, "BAND SINGER"
7, 0, Text_t, "gtr_off"
7, 0, Text_t, "drum_off"
7, 0, Text_t, "[idle]"
7, 0, Text_t, "bass_off"
7, 0, Text_t, "gtr_half_tempo"
7, 0, Text_t, "bass_half_tempo"
7, 0, Text_t, "drum_half_tempo"
7, 0, Text_t, "[crowd_half_tempo]"
7, 0, Text_t, "[half_tempo]"
7, 11520, Text_t, "gtr_on"
7, 11520, Text_t, "[verse]"
7, 34560, Text_t, "bass_on"
7, 34560, Text_t, "drum_allbeat"
7, 57600, Text_t, "drum_double"
7, 80640, Text_t, "[chorus]"
7, 111360, Text_t, "[verse]"
7, 111360, Text_t, "gtr_off"
7, 134400, Text_t, "gtr_on"
7, 145920, Text_t, "drum_allbeat"
7, 157440, Text_t, "[chorus]"
7, 157440, Text_t, "drum_double"
7, 218880, Text_t, "[verse]"
7, 218880, Text_t, "gtr_off"
7, 241920, Text_t, "gtr_on"
7, 253440, Text_t, "drum_allbeat"
7, 264960, Text_t, "drum_normal"
7, 314880, Text_t, "[chorus]"
7, 314880, Text_t, "drum_double"
7, 345600, Text_t, "[verse]"
7, 345600, Text_t, "gtr_off"
7, 368640, Text_t, "gtr_on"
7, 380160, Text_t, "drum_allbeat"
7, 391680, Text_t, "[chorus]"
7, 391680, Text_t, "drum_double"
7, 453120, Text_t, "[verse]"
7, 453120, Text_t, "gtr_off"
7, 476160, Text_t, "gtr_on"
7, 487680, Text_t, "drum_allbeat"
7, 499200, Text_t, "bass_off"
7, 501120, Text_t, "drum_off"
7, 516480, Text_t, "[solo]"
7, 516480, Text_t, "drum_allbeat"
7, 518400, Text_t, "drum_off"
7, 551040, Text_t, "drum_double"
7, 551040, Text_t, "bass_on"
7, 551040, Text_t, "[verse]"
7, 574080, Text_t, "drum_half"
7, 602880, Text_t, "drum_normal"
7, 631680, Text_t, "[chorus]"
7, 631680, Text_t, "[lighting (sweep)]"
7, 631680, Text_t, "drum_double"
7, 677760, Text_t, "wail_off"
7, 677760, Text_t, "[verse]"
7, 677760, Text_t, "drum_half"
7, 706560, Text_t, "drum_double"
7, 735360, Text_t, "drum_off"
7, 735360, Text_t, "bass_off"
7, 735360, Text_t, "[solo]"
7, 758400, Text_t, "[chorus]"
7, 758400, Text_t, "drum_double"
7, 758400, Text_t, "bass_on"
7, 850560, Text_t, "[verse]"
7, 896640, Text_t, "bass_off"
7, 898560, Text_t, "drum_off"
7, 950400, Text_t, "gtr_off"
7, 952318, Text_t, "[end]"
7, 952318, End_track
8, 0, Start_track
8, 0, Title_t, "BAND DRUMS"
8, 0, Text_t, "gtr_off"
8, 0, Text_t, "[idle]"
8, 0, Text_t, "sing_off"
8, 0, Text_t, "bass_off"
8, 0, Text_t, "gtr_half_tempo"
8, 0, Text_t, "bass_half_tempo"
8, 0, Text_t, "drum_half_tempo"
8, 0, Text_t, "[crowd_half_tempo]"
8, 0, Text_t, "[half_tempo]"
8, 11520, Text_t, "gtr_on"
8, 11520, Text_t, "[verse]"
8, 34560, Text_t, "bass_on"
8, 34560, Text_t, "[allbeat]"
8, 57600, Text_t, "[double_time]"
8, 80640, Text_t, "[chorus]"
8, 111360, Text_t, "[verse]"
8, 111360, Text_t, "gtr_off"
8, 134400, Text_t, "gtr_on"
8, 145920, Text_t, "[allbeat]"
8, 157440, Text_t, "[chorus]"
8, 157440, Text_t, "[double_time]"
8, 218880, Text_t, "[verse]"
8, 218880, Text_t, "gtr_off"
8, 241920, Text_t, "gtr_on"
8, 253440, Text_t, "[allbeat]"
8, 264960, Text_t, "[nobeat]"
8, 314880, Text_t, "[chorus]"
8, 314880, Text_t, "[double_time]"
8, 345600, Text_t, "[verse]"
8, 345600, Text_t, "gtr_off"
8, 368640, Text_t, "gtr_on"
8, 380160, Text_t, "[allbeat]"
8, 391680, Text_t, "[chorus]"
8, 391680, Text_t, "[double_time]"
8, 453120, Text_t, "[verse]"
8, 453120, Text_t, "gtr_off"
8, 476160, Text_t, "gtr_on"
8, 487680, Text_t, "[allbeat]"
8, 499200, Text_t, "bass_off"
8, 501120, Text_t, "[idle]"
8, 516480, Text_t, "[solo]"
8, 516480, Text_t, "[allbeat]"
8, 518400, Text_t, "[idle]"
8, 551040, Text_t, "[double_time]"
8, 551040, Text_t, "bass_on"
8, 551040, Text_t, "[verse]"
8, 574080, Text_t, "[half_time]"
8, 602880, Text_t, "[nobeat]"
8, 631680, Text_t, "[chorus]"
8, 631680, Text_t, "[lighting (sweep)]"
8, 631680, Text_t, "[double_time]"
8, 677760, Text_t, "wail_off"
8, 677760, Text_t, "[verse]"
8, 677760, Text_t, "[half_time]"
8, 706560, Text_t, "[double_time]"
8, 735360, Text_t, "[idle]"
8, 735360, Text_t, "bass_off"
8, 735360, Text_t, "[solo]"
8, 758400, Text_t, "[chorus]"
8, 758400, Text_t, "[double_time]"
8, 758400, Text_t, "bass_on"
8, 850560, Text_t, "[verse]"
8, 896640, Text_t, "bass_off"
8, 898560, Text_t, "[idle]"
8, 950400, Text_t, "gtr_off"
8, 952318, Text_t, "[end]"
8, 952318, End_track
0, 0, End_of_file
