0, 0, Header, 1, 8, 960
1, 0, Start_track
1, 0, Title_t, "texasflood"
1, 0, Time_signature, 4, 2, 24, 8
1, 0, Tempo, 982801
1, 3840, Tempo, 968499
1, 8636, Tempo, 945626
1, 11520, Tempo, 970088
1, 15360, Tempo, 977198
1, 19200, Tempo, 1009250
1, 20120, Tempo, 1002506
1, 23040, Tempo, 999997
1, 26880, Tempo, 1000499
1, 30720, Tempo, 990099
1, 32638, Tempo, 1029157
1, 34560, Tempo, 1005025
1, 38400, Tempo, 1003344
1, 42240, Tempo, 1000998
1, 46080, Tempo, 996249
1, 49920, Tempo, 1012248
1, 53760, Tempo, 1020498
1, 57600, Tempo, 1014749
1, 61440, Tempo, 1020408
1, 63368, Tempo, 1034482
1, 65280, Tempo, 1034499
1, 69120, Tempo, 1040748
1, 71042, Tempo, 1032701
1, 72960, Tempo, 1030042
1, 76800, Tempo, 1023748
1, 80640, Tempo, 1010100
1, 82520, Tempo, 1033591
1, 84480, Tempo, 1032498
1, 85438, Tempo, 1023017
1, 86886, Tempo, 1037165
1, 88320, Tempo, 1021999
1, 92160, Tempo, 1013249
1, 96000, Tempo, 1018998
1, 99840, Tempo, 1032498
1, 103680, Tempo, 1054249
1, 105278, Tempo, 1061007
1, 107520, Tempo, 1054481
1, 113270, Tempo, 1033591
1, 115200, Tempo, 1029157
1, 116158, Tempo, 1047119
1, 119040, Tempo, 1035248
1, 122880, Tempo, 1025748
1, 123850, Tempo, 1010951
1, 125758, Tempo, 1033591
1, 126720, Tempo, 1057268
1, 127666, Tempo, 1046205
1, 130560, Tempo, 1035374
1, 134400, Tempo, 1050788
1, 138240, Tempo, 1041499
1, 142080, Tempo, 1038748
1, 145920, Tempo, 1038061
1, 147838, Tempo, 1047119
1, 149760, Tempo, 1057499
1, 153600, Tempo, 1050248
1, 157458, Tempo, 1066666
1, 159346, Tempo, 1052631
1, 161274, Tempo, 1033591
1, 163212, Tempo, 1048032
1, 165120, Tempo, 1050747
1, 168960, Tempo, 1055248
1, 172800, Tempo, 1041998
1, 176640, Tempo, 1024248
1, 180480, Tempo, 1031749
1, 184320, Tempo, 1026249
1, 188160, Tempo, 1044749
1, 192000, Tempo, 1051998
1, 195840, Tempo, 1033499
1, 199680, Tempo, 1034499
1, 203520, Tempo, 1047749
1, 207360, Tempo, 1039499
1, 211200, Tempo, 1022747
1, 215040, Tempo, 1026249
1, 216930, Tempo, 1010951
1, 218868, Tempo, 1033591
1, 222720, Tempo, 1017248
1, 226560, Tempo, 1023249
1, 230400, Tempo, 1018748
1, 234240, Tempo, 1020249
1, 238080, Tempo, 1036249
1, 241920, Tempo, 1033591
1, 245760, Tempo, 1065719
1, 249600, Tempo, 1059134
1, 253426, Tempo, 1036267
1, 254354, Tempo, 1042569
1, 255982, Tempo, 1064772
1, 257280, Tempo, 1054998
1, 261120, Tempo, 1022145
1, 264960, Tempo, 1049998
1, 268770, Tempo, 1055408
1, 272640, Tempo, 1066998
1, 276480, Tempo, 1057749
1, 280320, Tempo, 1049867
1, 281948, Tempo, 1071426
1, 284160, Tempo, 1014749
1, 288000, Tempo, 1062499
1, 288000, End_track
2, 0, Start_track
2, 0, Title_t, "PART GUITAR"
2, 960, Text_t, "sing_off"
2, 960, Text_t, "[idle]"
2, 960, Text_t, "drum_off"
2, 960, Text_t, "bass_off"
2, 960, Text_t, "gtr_double_tempo"
2, 960, Text_t, "[double_tempo]"
2, 960, Text_t, "[crowd_double_tempo]"
2, 1890, Note_on_c, 0, 81, 100
2, 1890, Note_on_c, 0, 69, 100
2, 1890, Note_on_c, 0, 93, 100
2, 1890, Note_on_c, 0, 105, 100
2, 2880, Note_on_c, 0, 84, 100
2, 2880, Note_on_c, 0, 60, 100
2, 2880, Note_on_c, 0, 72, 100
2, 2880, Note_on_c, 0, 96, 100
2, 3038, Note_on_c, 0, 84, 0
2, 3038, Note_on_c, 0, 60, 0
2, 3038, Note_on_c, 0, 72, 0
2, 3038, Note_on_c, 0, 96, 0
2, 3198, Note_on_c, 0, 60, 100
2, 3198, Note_on_c, 0, 73, 100
2, 3198, Note_on_c, 0, 85, 100
2, 3198, Note_on_c, 0, 97, 100
2, 3356, Note_on_c, 0, 73, 0
2, 3356, Note_on_c, 0, 85, 0
2, 3356, Note_on_c, 0, 97, 0
2, 3358, Note_on_c, 0, 60, 0
2, 3480, Text_t, "[play]"
2, 3480, Text_t, "drum_on"
2, 3520, Note_on_c, 0, 61, 100
2, 3520, Note_on_c, 0, 74, 100
2, 3520, Note_on_c, 0, 86, 100
2, 3520, Note_on_c, 0, 98, 100
2, 3678, Note_on_c, 0, 74, 0
2, 3678, Note_on_c, 0, 86, 0
2, 3678, Note_on_c, 0, 98, 0
2, 3680, Note_on_c, 0, 61, 0
2, 3840, Note_on_c, 0, 61, 100
2, 3840, Note_on_c, 0, 74, 100
2, 3840, Note_on_c, 0, 87, 100
2, 3840, Note_on_c, 0, 86, 100
2, 3840, Note_on_c, 0, 97, 100
2, 3840, Note_on_c, 0, 98, 100
2, 4480, Note_on_c, 0, 61, 0
2, 4480, Note_on_c, 0, 74, 0
2, 4480, Note_on_c, 0, 87, 0
2, 4480, Note_on_c, 0, 86, 0
2, 4480, Note_on_c, 0, 97, 0
2, 4480, Note_on_c, 0, 98, 0
2, 4480, Note_on_c, 0, 75, 100
2, 4480, Note_on_c, 0, 62, 100
2, 4480, Note_on_c, 0, 88, 100
2, 4480, Note_on_c, 0, 98, 100
2, 4480, Note_on_c, 0, 99, 100
2, 4640, Note_on_c, 0, 75, 0
2, 4640, Note_on_c, 0, 62, 0
2, 4640, Note_on_c, 0, 88, 0
2, 4640, Note_on_c, 0, 98, 0
2, 4640, Note_on_c, 0, 99, 0
2, 4800, Text_t, "bass_on"
2, 4800, Note_on_c, 0, 61, 100
2, 4800, Note_on_c, 0, 74, 100
2, 4800, Note_on_c, 0, 86, 100
2, 4800, Note_on_c, 0, 87, 100
2, 4800, Note_on_c, 0, 98, 100
2, 4800, Note_on_c, 0, 97, 100
2, 5436, Note_on_c, 0, 74, 0
2, 5436, Note_on_c, 0, 86, 0
2, 5436, Note_on_c, 0, 87, 0
2, 5436, Note_on_c, 0, 98, 0
2, 5436, Note_on_c, 0, 97, 0
2, 5440, Note_on_c, 0, 61, 0
2, 5440, Note_on_c, 0, 73, 100
2, 5440, Note_on_c, 0, 60, 100
2, 5440, Note_on_c, 0, 85, 100
2, 5440, Note_on_c, 0, 96, 100
2, 5920, Note_on_c, 0, 73, 0
2, 5920, Note_on_c, 0, 60, 0
2, 5920, Note_on_c, 0, 85, 0
2, 5920, Note_on_c, 0, 96, 0
2, 6080, Note_on_c, 0, 73, 100
2, 6080, Note_on_c, 0, 74, 100
2, 6080, Note_on_c, 0, 62, 100
2, 6080, Note_on_c, 0, 85, 100
2, 6080, Note_on_c, 0, 87, 100
2, 6080, Note_on_c, 0, 99, 100
2, 6080, Note_on_c, 0, 96, 100
2, 6242, Note_on_c, 0, 73, 0
2, 6242, Note_on_c, 0, 74, 0
2, 6242, Note_on_c, 0, 62, 0
2, 6242, Note_on_c, 0, 85, 0
2, 6242, Note_on_c, 0, 87, 0
2, 6242, Note_on_c, 0, 99, 0
2, 6242, Note_on_c, 0, 96, 0
2, 6400, Note_on_c, 0, 73, 100
2, 6400, Note_on_c, 0, 74, 100
2, 6400, Note_on_c, 0, 85, 100
2, 6400, Note_on_c, 0, 87, 100
2, 6400, Note_on_c, 0, 99, 100
2, 6400, Note_on_c, 0, 96, 100
2, 6560, Note_on_c, 0, 73, 0
2, 6560, Note_on_c, 0, 74, 0
2, 6560, Note_on_c, 0, 85, 0
2, 6560, Note_on_c, 0, 87, 0
2, 6560, Note_on_c, 0, 99, 0
2, 6560, Note_on_c, 0, 96, 0
2, 6690, Note_on_c, 0, 81, 0
2, 6690, Note_on_c, 0, 69, 0
2, 6690, Note_on_c, 0, 93, 0
2, 6690, Note_on_c, 0, 105, 0
2, 6690, Note_on_c, 0, 82, 100
2, 6690, Note_on_c, 0, 70, 100
2, 6690, Note_on_c, 0, 94, 100
2, 6690, Note_on_c, 0, 106, 100
2, 6720, Note_on_c, 0, 61, 100
2, 6720, Note_on_c, 0, 73, 100
2, 6720, Note_on_c, 0, 85, 100
2, 6720, Note_on_c, 0, 97, 100
2, 6882, Note_on_c, 0, 61, 0
2, 6882, Note_on_c, 0, 73, 0
2, 6882, Note_on_c, 0, 85, 0
2, 6882, Note_on_c, 0, 97, 0
2, 7040, Note_on_c, 0, 60, 100
2, 7040, Note_on_c, 0, 72, 100
2, 7040, Note_on_c, 0, 86, 100
2, 7040, Note_on_c, 0, 98, 100
2, 7200, Note_on_c, 0, 60, 0
2, 7200, Note_on_c, 0, 72, 0
2, 7200, Note_on_c, 0, 86, 0
2, 7200, Note_on_c, 0, 98, 0
2, 7360, Note_on_c, 0, 61, 100
2, 7360, Note_on_c, 0, 73, 100
2, 7360, Note_on_c, 0, 87, 100
2, 7360, Note_on_c, 0, 99, 100
2, 7520, Note_on_c, 0, 61, 0
2, 7520, Note_on_c, 0, 73, 0
2, 7520, Note_on_c, 0, 87, 0
2, 7520, Note_on_c, 0, 99, 0
2, 7680, Note_on_c, 0, 61, 100
2, 7680, Note_on_c, 0, 74, 100
2, 7680, Note_on_c, 0, 98, 100
2, 7680, Note_on_c, 0, 99, 100
2, 7680, Note_on_c, 0, 86, 100
2, 7680, Note_on_c, 0, 87, 100
2, 8320, Note_on_c, 0, 61, 0
2, 8320, Note_on_c, 0, 74, 0
2, 8320, Note_on_c, 0, 98, 0
2, 8320, Note_on_c, 0, 99, 0
2, 8320, Note_on_c, 0, 86, 0
2, 8320, Note_on_c, 0, 87, 0
2, 8320, Note_on_c, 0, 75, 100
2, 8320, Note_on_c, 0, 62, 100
2, 8320, Note_on_c, 0, 88, 100
2, 8320, Note_on_c, 0, 100, 100
2, 8320, Note_on_c, 0, 99, 100
2, 8476, Note_on_c, 0, 75, 0
2, 8476, Note_on_c, 0, 62, 0
2, 8476, Note_on_c, 0, 88, 0
2, 8476, Note_on_c, 0, 100, 0
2, 8476, Note_on_c, 0, 99, 0
2, 8640, Note_on_c, 0, 88, 100
2, 8640, Note_on_c, 0, 87, 100
2, 8640, Note_on_c, 0, 61, 100
2, 8640, Note_on_c, 0, 74, 100
2, 8640, Note_on_c, 0, 99, 100
2, 8640, Note_on_c, 0, 98, 100
2, 9280, Note_on_c, 0, 88, 0
2, 9280, Note_on_c, 0, 87, 0
2, 9280, Note_on_c, 0, 61, 0
2, 9280, Note_on_c, 0, 74, 0
2, 9280, Note_on_c, 0, 99, 0
2, 9280, Note_on_c, 0, 98, 0
2, 9280, Note_on_c, 0, 73, 100
2, 9280, Note_on_c, 0, 60, 100
2, 9280, Note_on_c, 0, 86, 100
2, 9280, Note_on_c, 0, 97, 100
2, 9438, Note_on_c, 0, 73, 0
2, 9438, Note_on_c, 0, 60, 0
2, 9438, Note_on_c, 0, 86, 0
2, 9438, Note_on_c, 0, 97, 0
2, 9600, Note_on_c, 0, 86, 100
2, 9600, Note_on_c, 0, 97, 100
2, 9680, Note_on_c, 0, 86, 0
2, 9680, Note_on_c, 0, 97, 0
2, 9920, Note_on_c, 0, 74, 100
2, 9920, Note_on_c, 0, 75, 100
2, 9920, Note_on_c, 0, 62, 100
2, 9920, Note_on_c, 0, 86, 100
2, 9920, Note_on_c, 0, 88, 100
2, 9920, Note_on_c, 0, 97, 100
2, 9920, Note_on_c, 0, 100, 100
2, 10074, Note_on_c, 0, 74, 0
2, 10074, Note_on_c, 0, 75, 0
2, 10074, Note_on_c, 0, 62, 0
2, 10074, Note_on_c, 0, 86, 0
2, 10074, Note_on_c, 0, 88, 0
2, 10074, Note_on_c, 0, 97, 0
2, 10074, Note_on_c, 0, 100, 0
2, 10240, Note_on_c, 0, 74, 100
2, 10240, Note_on_c, 0, 75, 100
2, 10240, Note_on_c, 0, 86, 100
2, 10240, Note_on_c, 0, 88, 100
2, 10240, Note_on_c, 0, 97, 100
2, 10240, Note_on_c, 0, 100, 100
2, 10398, Note_on_c, 0, 74, 0
2, 10398, Note_on_c, 0, 75, 0
2, 10398, Note_on_c, 0, 86, 0
2, 10398, Note_on_c, 0, 88, 0
2, 10398, Note_on_c, 0, 97, 0
2, 10398, Note_on_c, 0, 100, 0
2, 10530, Note_on_c, 0, 82, 0
2, 10530, Note_on_c, 0, 70, 0
2, 10530, Note_on_c, 0, 94, 0
2, 10530, Note_on_c, 0, 106, 0
2, 10530, Note_on_c, 0, 81, 100
2, 10530, Note_on_c, 0, 69, 100
2, 10530, Note_on_c, 0, 93, 100
2, 10530, Note_on_c, 0, 105, 100
2, 10560, Note_on_c, 0, 86, 100
2, 10560, Note_on_c, 0, 97, 100
2, 10638, Note_on_c, 0, 86, 0
2, 10638, Note_on_c, 0, 97, 0
2, 10880, Note_on_c, 0, 74, 100
2, 10880, Note_on_c, 0, 75, 100
2, 10880, Note_on_c, 0, 62, 100
2, 10880, Note_on_c, 0, 86, 100
2, 10880, Note_on_c, 0, 88, 100
2, 10880, Note_on_c, 0, 97, 100
2, 10880, Note_on_c, 0, 100, 100
2, 11038, Note_on_c, 0, 74, 0
2, 11038, Note_on_c, 0, 75, 0
2, 11038, Note_on_c, 0, 62, 0
2, 11038, Note_on_c, 0, 86, 0
2, 11038, Note_on_c, 0, 88, 0
2, 11038, Note_on_c, 0, 97, 0
2, 11038, Note_on_c, 0, 100, 0
2, 11200, Note_on_c, 0, 74, 100
2, 11200, Note_on_c, 0, 75, 100
2, 11200, Note_on_c, 0, 86, 100
2, 11200, Note_on_c, 0, 88, 100
2, 11200, Note_on_c, 0, 97, 100
2, 11200, Note_on_c, 0, 100, 100
2, 11358, Note_on_c, 0, 74, 0
2, 11358, Note_on_c, 0, 75, 0
2, 11358, Note_on_c, 0, 86, 0
2, 11358, Note_on_c, 0, 88, 0
2, 11358, Note_on_c, 0, 97, 0
2, 11358, Note_on_c, 0, 100, 0
2, 11490, Note_on_c, 0, 81, 0
2, 11490, Note_on_c, 0, 69, 0
2, 11490, Note_on_c, 0, 93, 0
2, 11490, Note_on_c, 0, 105, 0
2, 11490, Note_on_c, 0, 67, 100
2, 11490, Note_on_c, 0, 79, 100
2, 11490, Note_on_c, 0, 91, 100
2, 11490, Note_on_c, 0, 103, 100
2, 11490, Note_on_c, 0, 82, 100
2, 11490, Note_on_c, 0, 70, 100
2, 11490, Note_on_c, 0, 94, 100
2, 11490, Note_on_c, 0, 106, 100
2, 11520, Note_on_c, 0, 60, 100
2, 11520, Note_on_c, 0, 72, 100
2, 11520, Note_on_c, 0, 97, 100
2, 11520, Note_on_c, 0, 85, 100
2, 11640, Note_on_c, 0, 60, 0
2, 11640, Note_on_c, 0, 72, 0
2, 11640, Note_on_c, 0, 97, 0
2, 11640, Note_on_c, 0, 85, 0
2, 11640, Note_on_c, 0, 97, 100
2, 11640, Note_on_c, 0, 85, 100
2, 11760, Note_on_c, 0, 97, 0
2, 11760, Note_on_c, 0, 85, 0
2, 11760, Note_on_c, 0, 98, 100
2, 11760, Note_on_c, 0, 86, 100
2, 11800, Note_on_c, 0, 73, 100
2, 11880, Note_on_c, 0, 98, 0
2, 11880, Note_on_c, 0, 86, 0
2, 11880, Note_on_c, 0, 99, 100
2, 11880, Note_on_c, 0, 87, 100
2, 11960, Note_on_c, 0, 73, 0
2, 12000, Note_on_c, 0, 99, 0
2, 12000, Note_on_c, 0, 87, 0
2, 12000, Note_on_c, 0, 98, 100
2, 12000, Note_on_c, 0, 86, 100
2, 12120, Note_on_c, 0, 98, 0
2, 12120, Note_on_c, 0, 86, 0
2, 12120, Note_on_c, 0, 61, 100
2, 12120, Note_on_c, 0, 97, 100
2, 12120, Note_on_c, 0, 85, 100
2, 12120, Note_on_c, 0, 72, 100
2, 12240, Note_on_c, 0, 97, 0
2, 12240, Note_on_c, 0, 85, 0
2, 12282, Note_on_c, 0, 61, 0
2, 12282, Note_on_c, 0, 72, 0
2, 12320, Note_on_c, 0, 87, 100
2, 12320, Note_on_c, 0, 74, 100
2, 12330, Note_on_c, 0, 99, 100
2, 12400, Note_on_c, 0, 74, 0
2, 12410, Note_on_c, 0, 91, 0
2, 12410, Note_on_c, 0, 103, 0
2, 12420, Note_on_c, 0, 99, 0
2, 12480, Note_on_c, 0, 87, 0
2, 12480, Note_on_c, 0, 86, 100
2, 12480, Note_on_c, 0, 98, 100
2, 12480, Note_on_c, 0, 62, 100
2, 12480, Note_on_c, 0, 73, 100
2, 12560, Note_on_c, 0, 86, 0
2, 12560, Note_on_c, 0, 98, 0
2, 12560, Note_on_c, 0, 73, 0
2, 12560, Note_on_c, 0, 99, 100
2, 12600, Note_on_c, 0, 62, 0
2, 12640, Note_on_c, 0, 99, 0
2, 12640, Note_on_c, 0, 98, 100
2, 12720, Note_on_c, 0, 98, 0
2, 12720, Note_on_c, 0, 97, 100
2, 12720, Note_on_c, 0, 85, 100
2, 12770, Note_on_c, 0, 79, 0
2, 12802, Note_on_c, 0, 97, 0
2, 12802, Note_on_c, 0, 85, 0
2, 12840, Note_on_c, 0, 96, 100
2, 12840, Note_on_c, 0, 84, 100
2, 12920, Note_on_c, 0, 96, 0
2, 12920, Note_on_c, 0, 84, 0
2, 12960, Note_on_c, 0, 87, 100
2, 12960, Note_on_c, 0, 75, 100
2, 12960, Note_on_c, 0, 62, 100
2, 12960, Note_on_c, 0, 100, 100
2, 13170, Note_on_c, 0, 67, 0
2, 13320, Note_on_c, 0, 87, 0
2, 13320, Note_on_c, 0, 75, 0
2, 13320, Note_on_c, 0, 62, 0
2, 13320, Note_on_c, 0, 100, 0
2, 13440, Note_on_c, 0, 87, 100
2, 13440, Note_on_c, 0, 61, 100
2, 13440, Note_on_c, 0, 75, 100
2, 13440, Note_on_c, 0, 99, 100
2, 13518, Note_on_c, 0, 87, 0
2, 13518, Note_on_c, 0, 61, 0
2, 13518, Note_on_c, 0, 75, 0
2, 13518, Note_on_c, 0, 99, 0
2, 13600, Note_on_c, 0, 74, 100
2, 13600, Note_on_c, 0, 86, 100
2, 13600, Note_on_c, 0, 98, 100
2, 13680, Note_on_c, 0, 74, 0
2, 13680, Note_on_c, 0, 86, 0
2, 13680, Note_on_c, 0, 98, 0
2, 13760, Note_on_c, 0, 73, 100
2, 13760, Note_on_c, 0, 60, 100
2, 13760, Note_on_c, 0, 85, 100
2, 13760, Note_on_c, 0, 97, 100
2, 13838, Note_on_c, 0, 60, 0
2, 13840, Note_on_c, 0, 73, 0
2, 13840, Note_on_c, 0, 85, 0
2, 13840, Note_on_c, 0, 97, 0
2, 13920, Note_on_c, 0, 86, 100
2, 13920, Note_on_c, 0, 74, 100
2, 13920, Note_on_c, 0, 98, 100
2, 13998, Note_on_c, 0, 86, 0
2, 13998, Note_on_c, 0, 74, 0
2, 13998, Note_on_c, 0, 98, 0
2, 14400, Note_on_c, 0, 85, 100
2, 14400, Note_on_c, 0, 61, 100
2, 14400, Note_on_c, 0, 73, 100
2, 14400, Note_on_c, 0, 97, 100
2, 14960, Note_on_c, 0, 61, 0
2, 15000, Note_on_c, 0, 85, 0
2, 15000, Note_on_c, 0, 73, 0
2, 15000, Note_on_c, 0, 97, 0
2, 15120, Note_on_c, 0, 61, 100
2, 15120, Note_on_c, 0, 96, 100
2, 15120, Note_on_c, 0, 84, 100
2, 15120, Note_on_c, 0, 72, 100
2, 15200, Note_on_c, 0, 61, 0
2, 15200, Note_on_c, 0, 96, 0
2, 15200, Note_on_c, 0, 84, 0
2, 15200, Note_on_c, 0, 72, 0
2, 15240, Note_on_c, 0, 96, 100
2, 15240, Note_on_c, 0, 84, 100
2, 15320, Note_on_c, 0, 96, 0
2, 15320, Note_on_c, 0, 84, 0
2, 15360, Note_on_c, 0, 62, 100
2, 15360, Note_on_c, 0, 97, 100
2, 15360, Note_on_c, 0, 85, 100
2, 15360, Note_on_c, 0, 73, 100
2, 15440, Note_on_c, 0, 97, 0
2, 15440, Note_on_c, 0, 85, 0
2, 15440, Note_on_c, 0, 73, 0
2, 15520, Note_on_c, 0, 96, 100
2, 15520, Note_on_c, 0, 84, 100
2, 15520, Note_on_c, 0, 72, 100
2, 16180, Note_on_c, 0, 72, 0
2, 16240, Note_on_c, 0, 62, 0
2, 16240, Note_on_c, 0, 96, 0
2, 16240, Note_on_c, 0, 84, 0
2, 16290, Note_on_c, 0, 82, 0
2, 16290, Note_on_c, 0, 70, 0
2, 16290, Note_on_c, 0, 94, 0
2, 16290, Note_on_c, 0, 106, 0
2, 16290, Note_on_c, 0, 81, 100
2, 16290, Note_on_c, 0, 69, 100
2, 16290, Note_on_c, 0, 93, 100
2, 16290, Note_on_c, 0, 105, 100
2, 16320, Note_on_c, 0, 84, 100
2, 16320, Note_on_c, 0, 60, 100
2, 16320, Note_on_c, 0, 72, 100
2, 16320, Note_on_c, 0, 96, 100
2, 16400, Note_on_c, 0, 84, 0
2, 16400, Note_on_c, 0, 60, 0
2, 16400, Note_on_c, 0, 72, 0
2, 16400, Note_on_c, 0, 96, 0
2, 16640, Note_on_c, 0, 73, 100
2, 16640, Note_on_c, 0, 85, 100
2, 16640, Note_on_c, 0, 97, 100
2, 16720, Note_on_c, 0, 73, 0
2, 16720, Note_on_c, 0, 85, 0
2, 16720, Note_on_c, 0, 97, 0
2, 16800, Note_on_c, 0, 86, 100
2, 16800, Note_on_c, 0, 74, 100
2, 16800, Note_on_c, 0, 61, 100
2, 16800, Note_on_c, 0, 98, 100
2, 16880, Note_on_c, 0, 86, 0
2, 16880, Note_on_c, 0, 74, 0
2, 16880, Note_on_c, 0, 61, 0
2, 16880, Note_on_c, 0, 98, 0
2, 17280, Note_on_c, 0, 86, 100
2, 17280, Note_on_c, 0, 88, 100
2, 17280, Note_on_c, 0, 62, 100
2, 17280, Note_on_c, 0, 73, 100
2, 17280, Note_on_c, 0, 74, 100
2, 17280, Note_on_c, 0, 61, 100
2, 17280, Note_on_c, 0, 98, 100
2, 17280, Note_on_c, 0, 100, 100
2, 18240, Text_t, "drum_allbeat"
2, 18240, Note_on_c, 0, 86, 0
2, 18240, Note_on_c, 0, 88, 0
2, 18240, Note_on_c, 0, 62, 0
2, 18240, Note_on_c, 0, 73, 0
2, 18240, Note_on_c, 0, 74, 0
2, 18240, Note_on_c, 0, 61, 0
2, 18240, Note_on_c, 0, 98, 0
2, 18240, Note_on_c, 0, 100, 0
2, 18240, Note_on_c, 0, 86, 100
2, 18240, Note_on_c, 0, 73, 100
2, 18240, Note_on_c, 0, 98, 100
2, 18320, Note_on_c, 0, 86, 0
2, 18320, Note_on_c, 0, 73, 0
2, 18320, Note_on_c, 0, 98, 0
2, 18560, Note_on_c, 0, 74, 100
2, 18560, Note_on_c, 0, 61, 100
2, 18560, Note_on_c, 0, 87, 100
2, 18560, Note_on_c, 0, 99, 100
2, 18642, Note_on_c, 0, 74, 0
2, 18642, Note_on_c, 0, 61, 0
2, 18642, Note_on_c, 0, 87, 0
2, 18642, Note_on_c, 0, 99, 0
2, 18880, Note_on_c, 0, 74, 100
2, 18880, Note_on_c, 0, 87, 100
2, 18880, Note_on_c, 0, 99, 100
2, 18962, Note_on_c, 0, 74, 0
2, 18962, Note_on_c, 0, 87, 0
2, 18962, Note_on_c, 0, 99, 0
2, 19200, Note_on_c, 0, 88, 100
2, 19200, Note_on_c, 0, 62, 100
2, 19200, Note_on_c, 0, 75, 100
2, 19200, Note_on_c, 0, 100, 100
2, 19282, Note_on_c, 0, 88, 0
2, 19282, Note_on_c, 0, 62, 0
2, 19282, Note_on_c, 0, 75, 0
2, 19282, Note_on_c, 0, 100, 0
2, 19520, Note_on_c, 0, 74, 100
2, 19520, Note_on_c, 0, 61, 100
2, 19520, Note_on_c, 0, 87, 100
2, 19520, Note_on_c, 0, 99, 100
2, 19600, Note_on_c, 0, 74, 0
2, 19602, Note_on_c, 0, 61, 0
2, 19602, Note_on_c, 0, 87, 0
2, 19602, Note_on_c, 0, 99, 0
2, 19680, Note_on_c, 0, 86, 100
2, 19680, Note_on_c, 0, 98, 100
2, 19760, Note_on_c, 0, 86, 0
2, 19760, Note_on_c, 0, 98, 0
2, 20160, Text_t, "drum_normal"
2, 20160, Text_t, "[solo]"
2, 20160, Text_t, "solo_on"
2, 20160, Note_on_c, 0, 86, 100
2, 20160, Note_on_c, 0, 61, 100
2, 20160, Note_on_c, 0, 74, 100
2, 20160, Note_on_c, 0, 98, 100
2, 20240, Note_on_c, 0, 61, 0
2, 20720, Note_on_c, 0, 86, 0
2, 20720, Note_on_c, 0, 74, 0
2, 20720, Note_on_c, 0, 98, 0
2, 20800, Note_on_c, 0, 74, 100
2, 20800, Note_on_c, 0, 61, 100
2, 20800, Note_on_c, 0, 86, 100
2, 20800, Note_on_c, 0, 98, 100
2, 20906, Note_on_c, 0, 74, 0
2, 20906, Note_on_c, 0, 61, 0
2, 20906, Note_on_c, 0, 86, 0
2, 20906, Note_on_c, 0, 98, 0
2, 20960, Note_on_c, 0, 74, 100
2, 20960, Note_on_c, 0, 86, 100
2, 20960, Note_on_c, 0, 98, 100
2, 21066, Note_on_c, 0, 74, 0
2, 21066, Note_on_c, 0, 86, 0
2, 21066, Note_on_c, 0, 98, 0
2, 21120, Note_on_c, 0, 62, 100
2, 21120, Note_on_c, 0, 75, 100
2, 21120, Note_on_c, 0, 99, 100
2, 21120, Note_on_c, 0, 87, 100
2, 21202, Note_on_c, 0, 62, 0
2, 21202, Note_on_c, 0, 75, 0
2, 21202, Note_on_c, 0, 99, 0
2, 21202, Note_on_c, 0, 87, 0
2, 21280, Note_on_c, 0, 74, 100
2, 21280, Note_on_c, 0, 98, 100
2, 21280, Note_on_c, 0, 86, 100
2, 21360, Note_on_c, 0, 74, 0
2, 21360, Note_on_c, 0, 98, 0
2, 21360, Note_on_c, 0, 86, 0
2, 21440, Note_on_c, 0, 73, 100
2, 21440, Note_on_c, 0, 97, 100
2, 21440, Note_on_c, 0, 85, 100
2, 21520, Note_on_c, 0, 73, 0
2, 21520, Note_on_c, 0, 97, 0
2, 21520, Note_on_c, 0, 85, 0
2, 21600, Note_on_c, 0, 61, 100
2, 21600, Note_on_c, 0, 74, 100
2, 21600, Note_on_c, 0, 98, 100
2, 21600, Note_on_c, 0, 86, 100
2, 21680, Note_on_c, 0, 61, 0
2, 21680, Note_on_c, 0, 74, 0
2, 21680, Note_on_c, 0, 98, 0
2, 21680, Note_on_c, 0, 86, 0
2, 21720, Note_on_c, 0, 97, 100
2, 21720, Note_on_c, 0, 85, 100
2, 21800, Note_on_c, 0, 97, 0
2, 21800, Note_on_c, 0, 85, 0
2, 21840, Note_on_c, 0, 96, 100
2, 21840, Note_on_c, 0, 84, 100
2, 21840, Note_on_c, 0, 60, 100
2, 21840, Note_on_c, 0, 72, 100
2, 22320, Note_on_c, 0, 96, 0
2, 22320, Note_on_c, 0, 84, 0
2, 22320, Note_on_c, 0, 60, 0
2, 22320, Note_on_c, 0, 72, 0
2, 22392, Note_on_c, 0, 72, 100
2, 22392, Note_on_c, 0, 60, 100
2, 22392, Note_on_c, 0, 84, 100
2, 22392, Note_on_c, 0, 96, 100
2, 22512, Note_on_c, 0, 72, 0
2, 22512, Note_on_c, 0, 84, 0
2, 22512, Note_on_c, 0, 96, 0
2, 22552, Note_on_c, 0, 60, 0
2, 23040, Note_on_c, 0, 87, 100
2, 23040, Note_on_c, 0, 62, 100
2, 23040, Note_on_c, 0, 74, 100
2, 23040, Note_on_c, 0, 99, 100
2, 23200, Note_on_c, 0, 87, 0
2, 23200, Note_on_c, 0, 62, 0
2, 23200, Note_on_c, 0, 74, 0
2, 23200, Note_on_c, 0, 99, 0
2, 23490, Note_on_c, 0, 81, 0
2, 23490, Note_on_c, 0, 69, 0
2, 23490, Note_on_c, 0, 93, 0
2, 23490, Note_on_c, 0, 105, 0
2, 23490, Note_on_c, 0, 82, 100
2, 23490, Note_on_c, 0, 70, 100
2, 23490, Note_on_c, 0, 94, 100
2, 23490, Note_on_c, 0, 106, 100
2, 23680, Note_on_c, 0, 73, 100
2, 23680, Note_on_c, 0, 61, 100
2, 23680, Note_on_c, 0, 86, 100
2, 23680, Note_on_c, 0, 98, 100
2, 23840, Note_on_c, 0, 73, 0
2, 23840, Note_on_c, 0, 61, 0
2, 23840, Note_on_c, 0, 86, 0
2, 23840, Note_on_c, 0, 98, 0
2, 23840, Note_on_c, 0, 86, 100
2, 23840, Note_on_c, 0, 98, 100
2, 24000, Note_on_c, 0, 86, 0
2, 24000, Note_on_c, 0, 98, 0
2, 24000, Note_on_c, 0, 87, 100
2, 24000, Note_on_c, 0, 62, 100
2, 24000, Note_on_c, 0, 74, 100
2, 24000, Note_on_c, 0, 99, 100
2, 24160, Note_on_c, 0, 87, 0
2, 24160, Note_on_c, 0, 74, 0
2, 24160, Note_on_c, 0, 99, 0
2, 24160, Note_on_c, 0, 75, 100
2, 24160, Note_on_c, 0, 88, 100
2, 24160, Note_on_c, 0, 100, 100
2, 24840, Note_on_c, 0, 62, 0
2, 24880, Note_on_c, 0, 75, 0
2, 24960, Note_on_c, 0, 88, 0
2, 24960, Note_on_c, 0, 100, 0
2, 24960, Note_on_c, 0, 87, 100
2, 24960, Note_on_c, 0, 62, 100
2, 24960, Note_on_c, 0, 75, 100
2, 24960, Note_on_c, 0, 99, 100
2, 25120, Note_on_c, 0, 87, 0
2, 25120, Note_on_c, 0, 62, 0
2, 25120, Note_on_c, 0, 75, 0
2, 25120, Note_on_c, 0, 99, 0
2, 25280, Note_on_c, 0, 61, 100
2, 25280, Note_on_c, 0, 73, 100
2, 25280, Note_on_c, 0, 86, 100
2, 25280, Note_on_c, 0, 98, 100
2, 25440, Note_on_c, 0, 61, 0
2, 25440, Note_on_c, 0, 73, 0
2, 25440, Note_on_c, 0, 86, 0
2, 25440, Note_on_c, 0, 98, 0
2, 25440, Note_on_c, 0, 85, 100
2, 25440, Note_on_c, 0, 97, 100
2, 25600, Note_on_c, 0, 85, 0
2, 25600, Note_on_c, 0, 97, 0
2, 25920, Note_on_c, 0, 85, 100
2, 25920, Note_on_c, 0, 61, 100
2, 25920, Note_on_c, 0, 73, 100
2, 25920, Note_on_c, 0, 97, 100
2, 26080, Note_on_c, 0, 85, 0
2, 26080, Note_on_c, 0, 61, 0
2, 26080, Note_on_c, 0, 73, 0
2, 26080, Note_on_c, 0, 97, 0
2, 26370, Note_on_c, 0, 67, 100
2, 26370, Note_on_c, 0, 79, 100
2, 26370, Note_on_c, 0, 91, 100
2, 26370, Note_on_c, 0, 103, 100
2, 26560, Note_on_c, 0, 73, 100
2, 26560, Note_on_c, 0, 61, 100
2, 26560, Note_on_c, 0, 85, 100
2, 26560, Note_on_c, 0, 97, 100
2, 26720, Note_on_c, 0, 73, 0
2, 26720, Note_on_c, 0, 61, 0
2, 26720, Note_on_c, 0, 85, 0
2, 26720, Note_on_c, 0, 97, 0
2, 26720, Note_on_c, 0, 85, 100
2, 26720, Note_on_c, 0, 97, 100
2, 26880, Note_on_c, 0, 85, 0
2, 26880, Note_on_c, 0, 97, 0
2, 26880, Note_on_c, 0, 88, 100
2, 26880, Note_on_c, 0, 62, 100
2, 26880, Note_on_c, 0, 74, 100
2, 26880, Note_on_c, 0, 100, 100
2, 27040, Note_on_c, 0, 88, 0
2, 27040, Note_on_c, 0, 62, 0
2, 27040, Note_on_c, 0, 74, 0
2, 27040, Note_on_c, 0, 100, 0
2, 27240, Note_on_c, 0, 88, 100
2, 27240, Note_on_c, 0, 62, 100
2, 27240, Note_on_c, 0, 74, 100
2, 27240, Note_on_c, 0, 100, 100
2, 29040, Note_on_c, 0, 88, 0
2, 29040, Note_on_c, 0, 62, 0
2, 29040, Note_on_c, 0, 74, 0
2, 29040, Note_on_c, 0, 100, 0
2, 29094, Note_on_c, 0, 67, 0
2, 29094, Note_on_c, 0, 79, 0
2, 29094, Note_on_c, 0, 91, 0
2, 29094, Note_on_c, 0, 103, 0
2, 29280, Note_on_c, 0, 88, 100
2, 29280, Note_on_c, 0, 62, 100
2, 29280, Note_on_c, 0, 74, 100
2, 29280, Note_on_c, 0, 100, 100
2, 29440, Note_on_c, 0, 88, 0
2, 29440, Note_on_c, 0, 62, 0
2, 29440, Note_on_c, 0, 74, 0
2, 29440, Note_on_c, 0, 100, 0
2, 29760, Note_on_c, 0, 87, 100
2, 29760, Note_on_c, 0, 61, 100
2, 29760, Note_on_c, 0, 73, 100
2, 29760, Note_on_c, 0, 99, 100
2, 30480, Note_on_c, 0, 61, 0
2, 30480, Note_on_c, 0, 73, 0
2, 30560, Note_on_c, 0, 87, 0
2, 30560, Note_on_c, 0, 99, 0
2, 30560, Note_on_c, 0, 86, 100
2, 30560, Note_on_c, 0, 98, 100
2, 30720, Note_on_c, 0, 86, 0
2, 30720, Note_on_c, 0, 98, 0
2, 30720, Note_on_c, 0, 85, 100
2, 30720, Note_on_c, 0, 60, 100
2, 30720, Note_on_c, 0, 72, 100
2, 30720, Note_on_c, 0, 97, 100
2, 30880, Note_on_c, 0, 85, 0
2, 30880, Note_on_c, 0, 60, 0
2, 30880, Note_on_c, 0, 72, 0
2, 30880, Note_on_c, 0, 97, 0
2, 31304, Note_on_c, 0, 81, 100
2, 31304, Note_on_c, 0, 69, 100
2, 31304, Note_on_c, 0, 93, 100
2, 31304, Note_on_c, 0, 105, 100
2, 31334, Note_on_c, 0, 72, 100
2, 31334, Note_on_c, 0, 60, 100
2, 31334, Note_on_c, 0, 85, 100
2, 31334, Note_on_c, 0, 97, 100
2, 31494, Note_on_c, 0, 72, 0
2, 31494, Note_on_c, 0, 60, 0
2, 31494, Note_on_c, 0, 85, 0
2, 31494, Note_on_c, 0, 97, 0
2, 31494, Note_on_c, 0, 85, 100
2, 31494, Note_on_c, 0, 97, 100
2, 31654, Note_on_c, 0, 85, 0
2, 31654, Note_on_c, 0, 97, 0
2, 31654, Note_on_c, 0, 73, 100
2, 31654, Note_on_c, 0, 61, 100
2, 31654, Note_on_c, 0, 86, 100
2, 31654, Note_on_c, 0, 98, 100
2, 32208, Note_on_c, 0, 73, 0
2, 32208, Note_on_c, 0, 61, 0
2, 32208, Note_on_c, 0, 86, 0
2, 32208, Note_on_c, 0, 98, 0
2, 32294, Note_on_c, 0, 73, 100
2, 32294, Note_on_c, 0, 61, 100
2, 32294, Note_on_c, 0, 86, 100
2, 32294, Note_on_c, 0, 98, 100
2, 32876, Note_on_c, 0, 73, 0
2, 32876, Note_on_c, 0, 61, 0
2, 32876, Note_on_c, 0, 86, 0
2, 32876, Note_on_c, 0, 98, 0
2, 32960, Note_on_c, 0, 74, 100
2, 32960, Note_on_c, 0, 62, 100
2, 32960, Note_on_c, 0, 87, 100
2, 32960, Note_on_c, 0, 99, 100
2, 33440, Note_on_c, 0, 62, 0
2, 33520, Note_on_c, 0, 74, 0
2, 33520, Note_on_c, 0, 87, 0
2, 33520, Note_on_c, 0, 99, 0
2, 33600, Note_on_c, 0, 75, 100
2, 33600, Note_on_c, 0, 88, 100
2, 33600, Note_on_c, 0, 100, 100
2, 33600, Note_on_c, 0, 62, 100
2, 34320, Note_on_c, 0, 75, 0
2, 34320, Note_on_c, 0, 88, 0
2, 34320, Note_on_c, 0, 100, 0
2, 34320, Note_on_c, 0, 62, 0
2, 34530, Note_on_c, 0, 82, 0
2, 34530, Note_on_c, 0, 70, 0
2, 34530, Note_on_c, 0, 94, 0
2, 34530, Note_on_c, 0, 106, 0
2, 34560, Note_on_c, 0, 88, 100
2, 34560, Note_on_c, 0, 86, 100
2, 34560, Note_on_c, 0, 62, 100
2, 34560, Note_on_c, 0, 75, 100
2, 34560, Note_on_c, 0, 100, 100
2, 34560, Note_on_c, 0, 97, 100
2, 34720, Note_on_c, 0, 88, 0
2, 34720, Note_on_c, 0, 86, 0
2, 34720, Note_on_c, 0, 62, 0
2, 34720, Note_on_c, 0, 75, 0
2, 34720, Note_on_c, 0, 100, 0
2, 34720, Note_on_c, 0, 97, 0
2, 34880, Note_on_c, 0, 74, 100
2, 34880, Note_on_c, 0, 87, 100
2, 34880, Note_on_c, 0, 99, 100
2, 35040, Note_on_c, 0, 74, 0
2, 35040, Note_on_c, 0, 87, 0
2, 35040, Note_on_c, 0, 99, 0
2, 35040, Note_on_c, 0, 86, 100
2, 35040, Note_on_c, 0, 61, 100
2, 35040, Note_on_c, 0, 73, 100
2, 35040, Note_on_c, 0, 98, 100
2, 35200, Note_on_c, 0, 86, 0
2, 35200, Note_on_c, 0, 61, 0
2, 35200, Note_on_c, 0, 73, 0
2, 35520, Note_on_c, 0, 98, 0
2, 35520, Note_on_c, 0, 87, 100
2, 35520, Note_on_c, 0, 62, 100
2, 35520, Note_on_c, 0, 100, 100
2, 35520, Note_on_c, 0, 74, 100
2, 35680, Note_on_c, 0, 87, 0
2, 35680, Note_on_c, 0, 62, 0
2, 35680, Note_on_c, 0, 100, 0
2, 35680, Note_on_c, 0, 74, 0
2, 35680, Note_on_c, 0, 86, 100
2, 35680, Note_on_c, 0, 99, 100
2, 35680, Note_on_c, 0, 74, 100
2, 35680, Note_on_c, 0, 62, 100
2, 35760, Note_on_c, 0, 74, 0
2, 35760, Note_on_c, 0, 62, 0
2, 35840, Note_on_c, 0, 86, 0
2, 35840, Note_on_c, 0, 99, 0
2, 35880, Note_on_c, 0, 73, 100
2, 35880, Note_on_c, 0, 61, 100
2, 35920, Note_on_c, 0, 98, 100
2, 35920, Note_on_c, 0, 85, 100
2, 36000, Note_on_c, 0, 98, 0
2, 36000, Note_on_c, 0, 85, 0
2, 36000, Note_on_c, 0, 97, 100
2, 36040, Note_on_c, 0, 73, 0
2, 36040, Note_on_c, 0, 61, 0
2, 36080, Note_on_c, 0, 97, 0
2, 36080, Note_on_c, 0, 96, 100
2, 36080, Note_on_c, 0, 84, 100
2, 36160, Note_on_c, 0, 96, 0
2, 36160, Note_on_c, 0, 84, 0
2, 36200, Note_on_c, 0, 97, 100
2, 36200, Note_on_c, 0, 85, 100
2, 36280, Note_on_c, 0, 97, 0
2, 36280, Note_on_c, 0, 85, 0
2, 36320, Note_on_c, 0, 98, 100
2, 36320, Note_on_c, 0, 86, 100
2, 36402, Note_on_c, 0, 98, 0
2, 36402, Note_on_c, 0, 86, 0
2, 36480, Note_on_c, 0, 87, 100
2, 36480, Note_on_c, 0, 74, 100
2, 36480, Note_on_c, 0, 61, 100
2, 36480, Note_on_c, 0, 99, 100
2, 36642, Note_on_c, 0, 87, 0
2, 36642, Note_on_c, 0, 74, 0
2, 36642, Note_on_c, 0, 61, 0
2, 36642, Note_on_c, 0, 99, 0
2, 36840, Note_on_c, 0, 88, 100
2, 36840, Note_on_c, 0, 62, 100
2, 36840, Note_on_c, 0, 75, 100
2, 36840, Note_on_c, 0, 100, 100
2, 36948, Note_on_c, 0, 88, 0
2, 36948, Note_on_c, 0, 75, 0
2, 36948, Note_on_c, 0, 100, 0
2, 36960, Note_on_c, 0, 87, 100
2, 36960, Note_on_c, 0, 74, 100
2, 36960, Note_on_c, 0, 99, 100
2, 37360, Note_on_c, 0, 87, 0
2, 37360, Note_on_c, 0, 74, 0
2, 37360, Note_on_c, 0, 99, 0
2, 37400, Note_on_c, 0, 62, 0
2, 37440, Note_on_c, 0, 61, 100
2, 37440, Note_on_c, 0, 100, 100
2, 37440, Note_on_c, 0, 88, 100
2, 37440, Note_on_c, 0, 75, 100
2, 37548, Note_on_c, 0, 61, 0
2, 37548, Note_on_c, 0, 100, 0
2, 37548, Note_on_c, 0, 88, 0
2, 37548, Note_on_c, 0, 75, 0
2, 38850, Note_on_c, 0, 81, 0
2, 38850, Note_on_c, 0, 69, 0
2, 38850, Note_on_c, 0, 93, 0
2, 38850, Note_on_c, 0, 105, 0
2, 39010, Note_on_c, 0, 82, 100
2, 39010, Note_on_c, 0, 70, 100
2, 39010, Note_on_c, 0, 94, 100
2, 39010, Note_on_c, 0, 106, 100
2, 39040, Note_on_c, 0, 73, 100
2, 39040, Note_on_c, 0, 61, 100
2, 39040, Note_on_c, 0, 86, 100
2, 39040, Note_on_c, 0, 98, 100
2, 39200, Note_on_c, 0, 73, 0
2, 39200, Note_on_c, 0, 61, 0
2, 39200, Note_on_c, 0, 86, 0
2, 39200, Note_on_c, 0, 98, 0
2, 39200, Note_on_c, 0, 86, 100
2, 39200, Note_on_c, 0, 98, 100
2, 39360, Note_on_c, 0, 86, 0
2, 39360, Note_on_c, 0, 98, 0
2, 39360, Note_on_c, 0, 87, 100
2, 39360, Note_on_c, 0, 62, 100
2, 39360, Note_on_c, 0, 74, 100
2, 39360, Note_on_c, 0, 99, 100
2, 39520, Note_on_c, 0, 87, 0
2, 39520, Note_on_c, 0, 62, 0
2, 39520, Note_on_c, 0, 74, 0
2, 39520, Note_on_c, 0, 99, 0
2, 39520, Note_on_c, 0, 75, 100
2, 39520, Note_on_c, 0, 88, 100
2, 39520, Note_on_c, 0, 100, 100
2, 39680, Note_on_c, 0, 75, 0
2, 39680, Note_on_c, 0, 88, 0
2, 39680, Note_on_c, 0, 100, 0
2, 40000, Note_on_c, 0, 75, 100
2, 40000, Note_on_c, 0, 62, 100
2, 40000, Note_on_c, 0, 88, 100
2, 40000, Note_on_c, 0, 100, 100
2, 40160, Note_on_c, 0, 75, 0
2, 40160, Note_on_c, 0, 62, 0
2, 40160, Note_on_c, 0, 88, 0
2, 40160, Note_on_c, 0, 100, 0
2, 40160, Note_on_c, 0, 88, 100
2, 40160, Note_on_c, 0, 100, 100
2, 40320, Note_on_c, 0, 88, 0
2, 40320, Note_on_c, 0, 100, 0
2, 40320, Note_on_c, 0, 88, 100
2, 40320, Note_on_c, 0, 61, 100
2, 40320, Note_on_c, 0, 75, 100
2, 40320, Note_on_c, 0, 100, 100
2, 40480, Note_on_c, 0, 88, 0
2, 40480, Note_on_c, 0, 75, 0
2, 40480, Note_on_c, 0, 100, 0
2, 40480, Note_on_c, 0, 74, 100
2, 40480, Note_on_c, 0, 87, 100
2, 40480, Note_on_c, 0, 99, 100
2, 40586, Note_on_c, 0, 74, 0
2, 40586, Note_on_c, 0, 87, 0
2, 40640, Note_on_c, 0, 99, 0
2, 40640, Note_on_c, 0, 73, 100
2, 40640, Note_on_c, 0, 86, 100
2, 40640, Note_on_c, 0, 98, 100
2, 41196, Note_on_c, 0, 73, 0
2, 41196, Note_on_c, 0, 86, 0
2, 41196, Note_on_c, 0, 98, 0
2, 41200, Note_on_c, 0, 61, 0
2, 41280, Note_on_c, 0, 86, 100
2, 41280, Note_on_c, 0, 61, 100
2, 41280, Note_on_c, 0, 73, 100
2, 41280, Note_on_c, 0, 98, 100
2, 41678, Note_on_c, 0, 86, 0
2, 41678, Note_on_c, 0, 61, 0
2, 41678, Note_on_c, 0, 73, 0
2, 41678, Note_on_c, 0, 98, 0
2, 41920, Note_on_c, 0, 72, 100
2, 41920, Note_on_c, 0, 60, 100
2, 41920, Note_on_c, 0, 85, 100
2, 41920, Note_on_c, 0, 97, 100
2, 42078, Note_on_c, 0, 72, 0
2, 42078, Note_on_c, 0, 60, 0
2, 42078, Note_on_c, 0, 85, 0
2, 42078, Note_on_c, 0, 97, 0
2, 42080, Note_on_c, 0, 73, 100
2, 42080, Note_on_c, 0, 86, 100
2, 42080, Note_on_c, 0, 98, 100
2, 42240, Note_on_c, 0, 73, 0
2, 42240, Note_on_c, 0, 86, 0
2, 42240, Note_on_c, 0, 98, 0
2, 42240, Note_on_c, 0, 87, 100
2, 42240, Note_on_c, 0, 61, 100
2, 42240, Note_on_c, 0, 74, 100
2, 42240, Note_on_c, 0, 99, 100
2, 43836, Note_on_c, 0, 87, 0
2, 43836, Note_on_c, 0, 61, 0
2, 43836, Note_on_c, 0, 74, 0
2, 43836, Note_on_c, 0, 99, 0
2, 44290, Note_on_c, 0, 82, 0
2, 44290, Note_on_c, 0, 70, 0
2, 44290, Note_on_c, 0, 94, 0
2, 44290, Note_on_c, 0, 106, 0
2, 44290, Note_on_c, 0, 81, 100
2, 44290, Note_on_c, 0, 69, 100
2, 44290, Note_on_c, 0, 93, 100
2, 44290, Note_on_c, 0, 105, 100
2, 44400, Note_on_c, 0, 88, 100
2, 44400, Note_on_c, 0, 62, 100
2, 44400, Note_on_c, 0, 75, 100
2, 44400, Note_on_c, 0, 100, 100
2, 45120, Note_on_c, 0, 88, 0
2, 45120, Note_on_c, 0, 62, 0
2, 45120, Note_on_c, 0, 75, 0
2, 45120, Note_on_c, 0, 100, 0
2, 45120, Note_on_c, 0, 87, 100
2, 45120, Note_on_c, 0, 61, 100
2, 45120, Note_on_c, 0, 74, 100
2, 45120, Note_on_c, 0, 99, 100
2, 45840, Note_on_c, 0, 87, 0
2, 45840, Note_on_c, 0, 61, 0
2, 45840, Note_on_c, 0, 74, 0
2, 45840, Note_on_c, 0, 99, 0
2, 46080, Note_on_c, 0, 86, 100
2, 46080, Note_on_c, 0, 61, 100
2, 46080, Note_on_c, 0, 73, 100
2, 46080, Note_on_c, 0, 98, 100
2, 46160, Note_on_c, 0, 85, 100
2, 46160, Note_on_c, 0, 97, 100
2, 46164, Note_on_c, 0, 86, 0
2, 46164, Note_on_c, 0, 98, 0
2, 46880, Note_on_c, 0, 85, 0
2, 46880, Note_on_c, 0, 97, 0
2, 46920, Note_on_c, 0, 61, 0
2, 46920, Note_on_c, 0, 73, 0
2, 47010, Note_on_c, 0, 81, 0
2, 47010, Note_on_c, 0, 69, 0
2, 47010, Note_on_c, 0, 93, 0
2, 47010, Note_on_c, 0, 105, 0
2, 47010, Note_on_c, 0, 82, 100
2, 47010, Note_on_c, 0, 70, 100
2, 47010, Note_on_c, 0, 94, 100
2, 47010, Note_on_c, 0, 106, 100
2, 47040, Note_on_c, 0, 87, 100
2, 47040, Note_on_c, 0, 62, 100
2, 47040, Note_on_c, 0, 74, 100
2, 47040, Note_on_c, 0, 100, 100
2, 47160, Note_on_c, 0, 87, 0
2, 47160, Note_on_c, 0, 62, 0
2, 47160, Note_on_c, 0, 74, 0
2, 47160, Note_on_c, 0, 86, 100
2, 47200, Note_on_c, 0, 100, 0
2, 47200, Note_on_c, 0, 99, 100
2, 47280, Note_on_c, 0, 86, 0
2, 47360, Note_on_c, 0, 99, 0
2, 47400, Note_on_c, 0, 73, 100
2, 47400, Note_on_c, 0, 61, 100
2, 47440, Note_on_c, 0, 98, 100
2, 47440, Note_on_c, 0, 86, 100
2, 47506, Note_on_c, 0, 73, 0
2, 47506, Note_on_c, 0, 61, 0
2, 47520, Note_on_c, 0, 98, 0
2, 47520, Note_on_c, 0, 97, 100
2, 47546, Note_on_c, 0, 86, 0
2, 47600, Note_on_c, 0, 97, 0
2, 47600, Note_on_c, 0, 96, 100
2, 47600, Note_on_c, 0, 84, 100
2, 47600, Note_on_c, 0, 72, 100
2, 47600, Note_on_c, 0, 60, 100
2, 47680, Note_on_c, 0, 96, 0
2, 47706, Note_on_c, 0, 84, 0
2, 47720, Note_on_c, 0, 72, 0
2, 47720, Note_on_c, 0, 60, 0
2, 47720, Note_on_c, 0, 97, 100
2, 47760, Note_on_c, 0, 85, 100
2, 47800, Note_on_c, 0, 97, 0
2, 47840, Note_on_c, 0, 98, 100
2, 47880, Note_on_c, 0, 85, 0
2, 47880, Note_on_c, 0, 86, 100
2, 47922, Note_on_c, 0, 98, 0
2, 47960, Note_on_c, 0, 99, 100
2, 48000, Note_on_c, 0, 86, 0
2, 48000, Note_on_c, 0, 87, 100
2, 48000, Note_on_c, 0, 62, 100
2, 48000, Note_on_c, 0, 74, 100
2, 48080, Note_on_c, 0, 99, 0
2, 48120, Note_on_c, 0, 87, 0
2, 48120, Note_on_c, 0, 62, 0
2, 48120, Note_on_c, 0, 74, 0
2, 48210, Note_on_c, 0, 88, 100
2, 48210, Note_on_c, 0, 100, 100
2, 48240, Note_on_c, 0, 74, 100
2, 48280, Note_on_c, 0, 61, 100
2, 48318, Note_on_c, 0, 88, 0
2, 48318, Note_on_c, 0, 100, 0
2, 48318, Note_on_c, 0, 87, 100
2, 48318, Note_on_c, 0, 99, 100
2, 48360, Note_on_c, 0, 74, 0
2, 48360, Note_on_c, 0, 73, 100
2, 48840, Note_on_c, 0, 61, 0
2, 48878, Note_on_c, 0, 99, 0
2, 48880, Note_on_c, 0, 73, 0
2, 48918, Note_on_c, 0, 87, 0
2, 48930, Note_on_c, 0, 82, 0
2, 48930, Note_on_c, 0, 70, 0
2, 48930, Note_on_c, 0, 94, 0
2, 48930, Note_on_c, 0, 106, 0
2, 48930, Note_on_c, 0, 81, 100
2, 48930, Note_on_c, 0, 69, 100
2, 48930, Note_on_c, 0, 93, 100
2, 48930, Note_on_c, 0, 105, 100
2, 48960, Note_on_c, 0, 85, 100
2, 48960, Note_on_c, 0, 60, 100
2, 48960, Note_on_c, 0, 97, 100
2, 48960, Note_on_c, 0, 72, 100
2, 49066, Note_on_c, 0, 85, 0
2, 49066, Note_on_c, 0, 60, 0
2, 49066, Note_on_c, 0, 97, 0
2, 49066, Note_on_c, 0, 72, 0
2, 49120, Note_on_c, 0, 97, 100
2, 49120, Note_on_c, 0, 85, 100
2, 49120, Note_on_c, 0, 72, 100
2, 49226, Note_on_c, 0, 97, 0
2, 49226, Note_on_c, 0, 85, 0
2, 49226, Note_on_c, 0, 72, 0
2, 49280, Note_on_c, 0, 74, 100
2, 49280, Note_on_c, 0, 62, 100
2, 49280, Note_on_c, 0, 87, 100
2, 49280, Note_on_c, 0, 99, 100
2, 49386, Note_on_c, 0, 74, 0
2, 49386, Note_on_c, 0, 62, 0
2, 49386, Note_on_c, 0, 87, 0
2, 49386, Note_on_c, 0, 99, 0
2, 49480, Note_on_c, 0, 98, 100
2, 49480, Note_on_c, 0, 86, 100
2, 49586, Note_on_c, 0, 98, 0
2, 49586, Note_on_c, 0, 86, 0
2, 49680, Note_on_c, 0, 97, 100
2, 49680, Note_on_c, 0, 85, 100
2, 49680, Note_on_c, 0, 72, 100
2, 49680, Note_on_c, 0, 60, 100
2, 49786, Note_on_c, 0, 97, 0
2, 49786, Note_on_c, 0, 85, 0
2, 49786, Note_on_c, 0, 72, 0
2, 49786, Note_on_c, 0, 60, 0
2, 49920, Note_on_c, 0, 88, 100
2, 49920, Note_on_c, 0, 62, 100
2, 49920, Note_on_c, 0, 75, 100
2, 49920, Note_on_c, 0, 99, 100
2, 49974, Note_on_c, 0, 88, 0
2, 49974, Note_on_c, 0, 62, 0
2, 49974, Note_on_c, 0, 75, 0
2, 49974, Note_on_c, 0, 99, 0
2, 49980, Note_on_c, 0, 100, 100
2, 50034, Note_on_c, 0, 100, 0
2, 50160, Note_on_c, 0, 88, 100
2, 50160, Note_on_c, 0, 75, 100
2, 50160, Note_on_c, 0, 99, 100
2, 50214, Note_on_c, 0, 88, 0
2, 50214, Note_on_c, 0, 75, 0
2, 50214, Note_on_c, 0, 99, 0
2, 50220, Note_on_c, 0, 100, 100
2, 50272, Note_on_c, 0, 100, 0
2, 50400, Note_on_c, 0, 88, 100
2, 50400, Note_on_c, 0, 62, 100
2, 50400, Note_on_c, 0, 75, 100
2, 50400, Note_on_c, 0, 99, 100
2, 50452, Note_on_c, 0, 88, 0
2, 50452, Note_on_c, 0, 62, 0
2, 50452, Note_on_c, 0, 75, 0
2, 50452, Note_on_c, 0, 99, 0
2, 50460, Note_on_c, 0, 100, 100
2, 50514, Note_on_c, 0, 100, 0
2, 50580, Note_on_c, 0, 75, 100
2, 50580, Note_on_c, 0, 88, 100
2, 50632, Note_on_c, 0, 75, 0
2, 50632, Note_on_c, 0, 88, 0
2, 50640, Note_on_c, 0, 99, 100
2, 50700, Note_on_c, 0, 99, 0
2, 50700, Note_on_c, 0, 88, 100
2, 50820, Note_on_c, 0, 88, 0
2, 50880, Note_on_c, 0, 61, 100
2, 50880, Note_on_c, 0, 74, 100
2, 50880, Note_on_c, 0, 99, 100
2, 50880, Note_on_c, 0, 87, 100
2, 50986, Note_on_c, 0, 61, 0
2, 50986, Note_on_c, 0, 74, 0
2, 50986, Note_on_c, 0, 99, 0
2, 50986, Note_on_c, 0, 87, 0
2, 51120, Note_on_c, 0, 98, 100
2, 51120, Note_on_c, 0, 86, 100
2, 51226, Note_on_c, 0, 98, 0
2, 51226, Note_on_c, 0, 86, 0
2, 51240, Note_on_c, 0, 97, 100
2, 51240, Note_on_c, 0, 85, 100
2, 51320, Note_on_c, 0, 97, 0
2, 51320, Note_on_c, 0, 85, 0
2, 51360, Note_on_c, 0, 61, 100
2, 51360, Note_on_c, 0, 74, 100
2, 51400, Note_on_c, 0, 99, 100
2, 51400, Note_on_c, 0, 87, 100
2, 51520, Note_on_c, 0, 61, 0
2, 51520, Note_on_c, 0, 74, 0
2, 51520, Note_on_c, 0, 99, 0
2, 51520, Note_on_c, 0, 87, 0
2, 51600, Note_on_c, 0, 98, 100
2, 51600, Note_on_c, 0, 86, 100
2, 51720, Note_on_c, 0, 98, 0
2, 51720, Note_on_c, 0, 86, 0
2, 51720, Note_on_c, 0, 97, 100
2, 51840, Note_on_c, 0, 97, 0
2, 51840, Note_on_c, 0, 61, 100
2, 51840, Note_on_c, 0, 73, 100
2, 51840, Note_on_c, 0, 98, 100
2, 51840, Note_on_c, 0, 86, 100
2, 51960, Note_on_c, 0, 61, 0
2, 51960, Note_on_c, 0, 73, 0
2, 51960, Note_on_c, 0, 98, 0
2, 51960, Note_on_c, 0, 86, 0
2, 51960, Note_on_c, 0, 97, 100
2, 51960, Note_on_c, 0, 85, 100
2, 52080, Note_on_c, 0, 97, 0
2, 52080, Note_on_c, 0, 85, 0
2, 52080, Note_on_c, 0, 96, 100
2, 52080, Note_on_c, 0, 84, 100
2, 52200, Note_on_c, 0, 96, 0
2, 52200, Note_on_c, 0, 84, 0
2, 52240, Note_on_c, 0, 72, 100
2, 52240, Note_on_c, 0, 60, 100
2, 52240, Note_on_c, 0, 97, 100
2, 52240, Note_on_c, 0, 85, 100
2, 52346, Note_on_c, 0, 72, 0
2, 52346, Note_on_c, 0, 60, 0
2, 52720, Note_on_c, 0, 97, 0
2, 52720, Note_on_c, 0, 85, 0
2, 52800, Note_on_c, 0, 86, 100
2, 52800, Note_on_c, 0, 61, 100
2, 52800, Note_on_c, 0, 73, 100
2, 52800, Note_on_c, 0, 98, 100
2, 52882, Note_on_c, 0, 86, 0
2, 52882, Note_on_c, 0, 61, 0
2, 52882, Note_on_c, 0, 73, 0
2, 52882, Note_on_c, 0, 98, 0
2, 53410, Note_on_c, 0, 82, 100
2, 53410, Note_on_c, 0, 70, 100
2, 53410, Note_on_c, 0, 94, 100
2, 53410, Note_on_c, 0, 106, 100
2, 53410, Note_on_c, 0, 67, 100
2, 53410, Note_on_c, 0, 79, 100
2, 53410, Note_on_c, 0, 91, 100
2, 53410, Note_on_c, 0, 103, 100
2, 53440, Note_on_c, 0, 73, 100
2, 53440, Note_on_c, 0, 60, 100
2, 53440, Note_on_c, 0, 85, 100
2, 53440, Note_on_c, 0, 97, 100
2, 53548, Note_on_c, 0, 73, 0
2, 53548, Note_on_c, 0, 60, 0
2, 53548, Note_on_c, 0, 85, 0
2, 53548, Note_on_c, 0, 97, 0
2, 53600, Note_on_c, 0, 73, 100
2, 53600, Note_on_c, 0, 85, 100
2, 53600, Note_on_c, 0, 97, 100
2, 53708, Note_on_c, 0, 73, 0
2, 53708, Note_on_c, 0, 85, 0
2, 53708, Note_on_c, 0, 97, 0
2, 53760, Note_on_c, 0, 61, 100
2, 53760, Note_on_c, 0, 86, 100
2, 53760, Note_on_c, 0, 74, 100
2, 53760, Note_on_c, 0, 98, 100
2, 56076, Note_on_c, 0, 98, 0
2, 56130, Note_on_c, 0, 67, 0
2, 56130, Note_on_c, 0, 79, 0
2, 56130, Note_on_c, 0, 91, 0
2, 56130, Note_on_c, 0, 103, 0
2, 56156, Note_on_c, 0, 61, 0
2, 56156, Note_on_c, 0, 86, 0
2, 56156, Note_on_c, 0, 74, 0
2, 56320, Note_on_c, 0, 75, 100
2, 56320, Note_on_c, 0, 62, 100
2, 56320, Note_on_c, 0, 87, 100
2, 56320, Note_on_c, 0, 100, 100
2, 56480, Note_on_c, 0, 75, 0
2, 56480, Note_on_c, 0, 62, 0
2, 56480, Note_on_c, 0, 87, 0
2, 56480, Note_on_c, 0, 100, 0
2, 56640, Note_on_c, 0, 86, 100
2, 56640, Note_on_c, 0, 61, 100
2, 56640, Note_on_c, 0, 74, 100
2, 56640, Note_on_c, 0, 97, 100
2, 56800, Note_on_c, 0, 86, 0
2, 56800, Note_on_c, 0, 61, 0
2, 56800, Note_on_c, 0, 74, 0
2, 56800, Note_on_c, 0, 97, 0
2, 57280, Note_on_c, 0, 74, 100
2, 57280, Note_on_c, 0, 61, 100
2, 57280, Note_on_c, 0, 86, 100
2, 57280, Note_on_c, 0, 98, 100
2, 57440, Note_on_c, 0, 74, 0
2, 57440, Note_on_c, 0, 61, 0
2, 57440, Note_on_c, 0, 86, 0
2, 57440, Note_on_c, 0, 98, 0
2, 57600, Note_on_c, 0, 86, 100
2, 57600, Note_on_c, 0, 61, 100
2, 57600, Note_on_c, 0, 74, 100
2, 57600, Note_on_c, 0, 99, 100
2, 57680, Note_on_c, 0, 86, 0
2, 57680, Note_on_c, 0, 61, 0
2, 57680, Note_on_c, 0, 74, 0
2, 57680, Note_on_c, 0, 99, 0
2, 57720, Note_on_c, 0, 98, 100
2, 57760, Note_on_c, 0, 85, 100
2, 57800, Note_on_c, 0, 98, 0
2, 57840, Note_on_c, 0, 85, 0
2, 57840, Note_on_c, 0, 97, 100
2, 57920, Note_on_c, 0, 97, 0
2, 57920, Note_on_c, 0, 72, 100
2, 57920, Note_on_c, 0, 60, 100
2, 57920, Note_on_c, 0, 84, 100
2, 57960, Note_on_c, 0, 96, 100
2, 58000, Note_on_c, 0, 84, 0
2, 58040, Note_on_c, 0, 96, 0
2, 58080, Note_on_c, 0, 72, 0
2, 58080, Note_on_c, 0, 60, 0
2, 58240, Note_on_c, 0, 84, 100
2, 58240, Note_on_c, 0, 96, 100
2, 58370, Note_on_c, 0, 81, 0
2, 58370, Note_on_c, 0, 69, 0
2, 58370, Note_on_c, 0, 93, 0
2, 58370, Note_on_c, 0, 105, 0
2, 58400, Note_on_c, 0, 84, 0
2, 58400, Note_on_c, 0, 96, 0
2, 58560, Note_on_c, 0, 61, 100
2, 58560, Note_on_c, 0, 73, 100
2, 58560, Note_on_c, 0, 98, 100
2, 58560, Note_on_c, 0, 86, 100
2, 58720, Note_on_c, 0, 61, 0
2, 58720, Note_on_c, 0, 73, 0
2, 58720, Note_on_c, 0, 98, 0
2, 58720, Note_on_c, 0, 86, 0
2, 58720, Note_on_c, 0, 86, 100
2, 58720, Note_on_c, 0, 98, 100
2, 58880, Note_on_c, 0, 86, 0
2, 58880, Note_on_c, 0, 98, 0
2, 58880, Note_on_c, 0, 75, 100
2, 58880, Note_on_c, 0, 62, 100
2, 58880, Note_on_c, 0, 88, 100
2, 58880, Note_on_c, 0, 100, 100
2, 59040, Note_on_c, 0, 75, 0
2, 59040, Note_on_c, 0, 62, 0
2, 59040, Note_on_c, 0, 88, 0
2, 59040, Note_on_c, 0, 100, 0
2, 59040, Note_on_c, 0, 87, 100
2, 59040, Note_on_c, 0, 99, 100
2, 59200, Note_on_c, 0, 87, 0
2, 59200, Note_on_c, 0, 99, 0
2, 59200, Note_on_c, 0, 86, 100
2, 59200, Note_on_c, 0, 98, 100
2, 59360, Note_on_c, 0, 86, 0
2, 59360, Note_on_c, 0, 98, 0
2, 59360, Note_on_c, 0, 87, 100
2, 59360, Note_on_c, 0, 99, 100
2, 59360, Note_on_c, 0, 75, 100
2, 59440, Note_on_c, 0, 87, 0
2, 59440, Note_on_c, 0, 99, 0
2, 59440, Note_on_c, 0, 75, 0
2, 59520, Note_on_c, 0, 86, 100
2, 59520, Note_on_c, 0, 98, 100
2, 59520, Note_on_c, 0, 61, 100
2, 59520, Note_on_c, 0, 74, 100
2, 59600, Note_on_c, 0, 86, 0
2, 59600, Note_on_c, 0, 98, 0
2, 59600, Note_on_c, 0, 61, 0
2, 59600, Note_on_c, 0, 74, 0
2, 59680, Note_on_c, 0, 73, 100
2, 59680, Note_on_c, 0, 60, 100
2, 59680, Note_on_c, 0, 85, 100
2, 59680, Note_on_c, 0, 97, 100
2, 60240, Note_on_c, 0, 73, 0
2, 60240, Note_on_c, 0, 60, 0
2, 60240, Note_on_c, 0, 85, 0
2, 60240, Note_on_c, 0, 97, 0
2, 60290, Note_on_c, 0, 82, 0
2, 60290, Note_on_c, 0, 70, 0
2, 60290, Note_on_c, 0, 94, 0
2, 60290, Note_on_c, 0, 106, 0
2, 60450, Note_on_c, 0, 81, 100
2, 60450, Note_on_c, 0, 69, 100
2, 60450, Note_on_c, 0, 93, 100
2, 60450, Note_on_c, 0, 105, 100
2, 60480, Note_on_c, 0, 88, 100
2, 60480, Note_on_c, 0, 62, 100
2, 60480, Note_on_c, 0, 75, 100
2, 60480, Note_on_c, 0, 100, 100
2, 60560, Note_on_c, 0, 88, 0
2, 60560, Note_on_c, 0, 62, 0
2, 60560, Note_on_c, 0, 75, 0
2, 60560, Note_on_c, 0, 100, 0
2, 60640, Note_on_c, 0, 87, 100
2, 60640, Note_on_c, 0, 99, 100
2, 60800, Note_on_c, 0, 87, 0
2, 60800, Note_on_c, 0, 99, 0
2, 60800, Note_on_c, 0, 74, 100
2, 60800, Note_on_c, 0, 61, 100
2, 60800, Note_on_c, 0, 86, 100
2, 60800, Note_on_c, 0, 98, 100
2, 60880, Note_on_c, 0, 74, 0
2, 60880, Note_on_c, 0, 61, 0
2, 60960, Note_on_c, 0, 86, 0
2, 60960, Note_on_c, 0, 98, 0
2, 60960, Note_on_c, 0, 86, 100
2, 60960, Note_on_c, 0, 98, 100
2, 61120, Note_on_c, 0, 86, 0
2, 61120, Note_on_c, 0, 98, 0
2, 61120, Note_on_c, 0, 73, 100
2, 61120, Note_on_c, 0, 60, 100
2, 61120, Note_on_c, 0, 85, 100
2, 61120, Note_on_c, 0, 97, 100
2, 61200, Note_on_c, 0, 73, 0
2, 61200, Note_on_c, 0, 60, 0
2, 61280, Note_on_c, 0, 85, 0
2, 61280, Note_on_c, 0, 97, 0
2, 61280, Note_on_c, 0, 84, 100
2, 61280, Note_on_c, 0, 96, 100
2, 61360, Note_on_c, 0, 84, 0
2, 61360, Note_on_c, 0, 96, 0
2, 61440, Note_on_c, 0, 85, 100
2, 61440, Note_on_c, 0, 60, 100
2, 61440, Note_on_c, 0, 73, 100
2, 61440, Note_on_c, 0, 97, 100
2, 61520, Note_on_c, 0, 85, 0
2, 61520, Note_on_c, 0, 60, 0
2, 61520, Note_on_c, 0, 73, 0
2, 61520, Note_on_c, 0, 97, 0
2, 61600, Note_on_c, 0, 72, 100
2, 61600, Note_on_c, 0, 84, 100
2, 61600, Note_on_c, 0, 96, 100
2, 61760, Note_on_c, 0, 72, 0
2, 61760, Note_on_c, 0, 84, 0
2, 61760, Note_on_c, 0, 96, 0
2, 61760, Note_on_c, 0, 74, 100
2, 61760, Note_on_c, 0, 62, 100
2, 61760, Note_on_c, 0, 86, 100
2, 61760, Note_on_c, 0, 98, 100
2, 61840, Note_on_c, 0, 86, 0
2, 61840, Note_on_c, 0, 98, 0
2, 61840, Note_on_c, 0, 87, 100
2, 61840, Note_on_c, 0, 99, 100
2, 61916, Note_on_c, 0, 87, 0
2, 61916, Note_on_c, 0, 99, 0
2, 61916, Note_on_c, 0, 86, 100
2, 61916, Note_on_c, 0, 98, 100
2, 61996, Note_on_c, 0, 86, 0
2, 61996, Note_on_c, 0, 98, 0
2, 62000, Note_on_c, 0, 87, 100
2, 62000, Note_on_c, 0, 99, 100
2, 62080, Note_on_c, 0, 87, 0
2, 62080, Note_on_c, 0, 99, 0
2, 62080, Note_on_c, 0, 86, 100
2, 62080, Note_on_c, 0, 98, 100
2, 62156, Note_on_c, 0, 86, 0
2, 62156, Note_on_c, 0, 98, 0
2, 62156, Note_on_c, 0, 87, 100
2, 62156, Note_on_c, 0, 99, 100
2, 62236, Note_on_c, 0, 87, 0
2, 62236, Note_on_c, 0, 99, 0
2, 62240, Note_on_c, 0, 86, 100
2, 62240, Note_on_c, 0, 98, 100
2, 62320, Note_on_c, 0, 74, 0
2, 62320, Note_on_c, 0, 86, 0
2, 62320, Note_on_c, 0, 98, 0
2, 62320, Note_on_c, 0, 87, 100
2, 62320, Note_on_c, 0, 99, 100
2, 62396, Note_on_c, 0, 87, 0
2, 62396, Note_on_c, 0, 99, 0
2, 62396, Note_on_c, 0, 74, 100
2, 62396, Note_on_c, 0, 98, 100
2, 62396, Note_on_c, 0, 86, 100
2, 62476, Note_on_c, 0, 74, 0
2, 62476, Note_on_c, 0, 98, 0
2, 62478, Note_on_c, 0, 86, 0
2, 62480, Note_on_c, 0, 62, 0
2, 62690, Note_on_c, 0, 82, 100
2, 62690, Note_on_c, 0, 70, 100
2, 62690, Note_on_c, 0, 94, 100
2, 62690, Note_on_c, 0, 106, 100
2, 62720, Note_on_c, 0, 72, 100
2, 62720, Note_on_c, 0, 60, 100
2, 62720, Note_on_c, 0, 84, 100
2, 62720, Note_on_c, 0, 96, 100
2, 62876, Note_on_c, 0, 72, 0
2, 62876, Note_on_c, 0, 60, 0
2, 62876, Note_on_c, 0, 84, 0
2, 62876, Note_on_c, 0, 96, 0
2, 62876, Note_on_c, 0, 85, 100
2, 62876, Note_on_c, 0, 97, 100
2, 63040, Note_on_c, 0, 85, 0
2, 63040, Note_on_c, 0, 97, 0
2, 63040, Note_on_c, 0, 73, 100
2, 63040, Note_on_c, 0, 61, 100
2, 63040, Note_on_c, 0, 86, 100
2, 63040, Note_on_c, 0, 98, 100
2, 63200, Note_on_c, 0, 73, 0
2, 63200, Note_on_c, 0, 61, 0
2, 63200, Note_on_c, 0, 86, 0
2, 63200, Note_on_c, 0, 98, 0
2, 63356, Note_on_c, 0, 73, 100
2, 63356, Note_on_c, 0, 74, 100
2, 63356, Note_on_c, 0, 62, 100
2, 63356, Note_on_c, 0, 85, 100
2, 63356, Note_on_c, 0, 86, 100
2, 63356, Note_on_c, 0, 97, 100
2, 63356, Note_on_c, 0, 98, 100
2, 63838, Note_on_c, 0, 108, 100
2, 64316, Text_t, "drum_allbeat"
2, 64318, Note_on_c, 0, 108, 0
2, 64480, Note_on_c, 0, 108, 100
2, 64796, Note_on_c, 0, 73, 0
2, 64796, Note_on_c, 0, 74, 0
2, 64796, Note_on_c, 0, 62, 0
2, 64796, Note_on_c, 0, 85, 0
2, 64796, Note_on_c, 0, 86, 0
2, 64796, Note_on_c, 0, 97, 0
2, 64796, Note_on_c, 0, 98, 0
2, 64906, Text_t, "sing_on"
2, 64960, Note_on_c, 0, 108, 0
2, 65280, Note_on_c, 0, 108, 100
2, 65360, Note_on_c, 0, 108, 0
2, 65440, Note_on_c, 0, 108, 100
2, 65600, Note_on_c, 0, 108, 0
2, 65760, Note_on_c, 0, 108, 100
2, 66080, Note_on_c, 0, 108, 0
2, 66240, Text_t, "solo_off"
2, 66240, Text_t, "[verse]"
2, 66240, Text_t, "drum_normal"
2, 66240, Note_on_c, 0, 108, 100
2, 66320, Note_on_c, 0, 108, 0
2, 66400, Note_on_c, 0, 108, 100
2, 66560, Note_on_c, 0, 108, 0
2, 66720, Note_on_c, 0, 108, 100
2, 67040, Note_on_c, 0, 72, 100
2, 67040, Note_on_c, 0, 60, 100
2, 67040, Note_on_c, 0, 86, 100
2, 67040, Note_on_c, 0, 98, 100
2, 67120, Note_on_c, 0, 86, 0
2, 67120, Note_on_c, 0, 98, 0
2, 67120, Note_on_c, 0, 97, 100
2, 67200, Note_on_c, 0, 72, 0
2, 67200, Note_on_c, 0, 60, 0
2, 67200, Note_on_c, 0, 97, 0
2, 67200, Note_on_c, 0, 84, 100
2, 67200, Note_on_c, 0, 96, 100
2, 67360, Note_on_c, 0, 84, 0
2, 67360, Note_on_c, 0, 96, 0
2, 67520, Note_on_c, 0, 74, 100
2, 67520, Note_on_c, 0, 73, 100
2, 67520, Note_on_c, 0, 62, 100
2, 67520, Note_on_c, 0, 87, 100
2, 67520, Note_on_c, 0, 86, 100
2, 67520, Note_on_c, 0, 99, 100
2, 67520, Note_on_c, 0, 98, 100
2, 67680, Note_on_c, 0, 108, 0
2, 67680, Note_on_c, 0, 74, 0
2, 67680, Note_on_c, 0, 73, 0
2, 67680, Note_on_c, 0, 62, 0
2, 67680, Note_on_c, 0, 87, 0
2, 67680, Note_on_c, 0, 86, 0
2, 67680, Note_on_c, 0, 99, 0
2, 67680, Note_on_c, 0, 98, 0
2, 67840, Note_on_c, 0, 73, 100
2, 67840, Note_on_c, 0, 74, 100
2, 67840, Note_on_c, 0, 62, 100
2, 67840, Note_on_c, 0, 86, 100
2, 67840, Note_on_c, 0, 87, 100
2, 67840, Note_on_c, 0, 98, 100
2, 67840, Note_on_c, 0, 99, 100
2, 68000, Note_on_c, 0, 73, 0
2, 68000, Note_on_c, 0, 74, 0
2, 68000, Note_on_c, 0, 62, 0
2, 68000, Note_on_c, 0, 86, 0
2, 68000, Note_on_c, 0, 87, 0
2, 68000, Note_on_c, 0, 98, 0
2, 68000, Note_on_c, 0, 99, 0
2, 68480, Note_on_c, 0, 72, 100
2, 68480, Note_on_c, 0, 60, 100
2, 68480, Note_on_c, 0, 84, 100
2, 68480, Note_on_c, 0, 96, 100
2, 68640, Note_on_c, 0, 72, 0
2, 68640, Note_on_c, 0, 60, 0
2, 68640, Note_on_c, 0, 84, 0
2, 68640, Note_on_c, 0, 96, 0
2, 68800, Note_on_c, 0, 60, 100
2, 68800, Note_on_c, 0, 72, 100
2, 68800, Note_on_c, 0, 84, 100
2, 68800, Note_on_c, 0, 96, 100
2, 68960, Note_on_c, 0, 60, 0
2, 68960, Note_on_c, 0, 72, 0
2, 68960, Note_on_c, 0, 84, 0
2, 68960, Note_on_c, 0, 96, 0
2, 69120, Note_on_c, 0, 85, 100
2, 69120, Note_on_c, 0, 87, 100
2, 69120, Note_on_c, 0, 61, 100
2, 69120, Note_on_c, 0, 62, 100
2, 69120, Note_on_c, 0, 74, 100
2, 69120, Note_on_c, 0, 75, 100
2, 69120, Note_on_c, 0, 97, 100
2, 69120, Note_on_c, 0, 99, 100
2, 70320, Note_on_c, 0, 108, 100
2, 70640, Note_on_c, 0, 108, 0
2, 70720, Note_on_c, 0, 108, 100
2, 70800, Note_on_c, 0, 108, 0
2, 70880, Note_on_c, 0, 108, 100
2, 70960, Note_on_c, 0, 108, 0
2, 71010, Note_on_c, 0, 81, 0
2, 71010, Note_on_c, 0, 69, 0
2, 71010, Note_on_c, 0, 93, 0
2, 71010, Note_on_c, 0, 105, 0
2, 71022, Note_on_c, 0, 85, 0
2, 71022, Note_on_c, 0, 87, 0
2, 71022, Note_on_c, 0, 61, 0
2, 71022, Note_on_c, 0, 62, 0
2, 71022, Note_on_c, 0, 74, 0
2, 71022, Note_on_c, 0, 75, 0
2, 71022, Note_on_c, 0, 97, 0
2, 71022, Note_on_c, 0, 99, 0
2, 71120, Note_on_c, 0, 108, 100
2, 71200, Note_on_c, 0, 108, 0
2, 71280, Note_on_c, 0, 108, 100
2, 71360, Note_on_c, 0, 108, 0
2, 71520, Note_on_c, 0, 108, 100
2, 71760, Note_on_c, 0, 108, 0
2, 71920, Note_on_c, 0, 108, 100
2, 72080, Note_on_c, 0, 108, 0
2, 72240, Note_on_c, 0, 108, 100
2, 72960, Note_on_c, 0, 108, 0
2, 72960, Note_on_c, 0, 84, 100
2, 72960, Note_on_c, 0, 60, 100
2, 72960, Note_on_c, 0, 72, 100
2, 72960, Note_on_c, 0, 96, 100
2, 73040, Note_on_c, 0, 84, 0
2, 73040, Note_on_c, 0, 60, 0
2, 73040, Note_on_c, 0, 72, 0
2, 73040, Note_on_c, 0, 96, 0
2, 73080, Note_on_c, 0, 97, 100
2, 73080, Note_on_c, 0, 85, 100
2, 73160, Note_on_c, 0, 97, 0
2, 73160, Note_on_c, 0, 85, 0
2, 73200, Note_on_c, 0, 86, 100
2, 73200, Note_on_c, 0, 98, 100
2, 73200, Note_on_c, 0, 73, 100
2, 73280, Note_on_c, 0, 86, 0
2, 73280, Note_on_c, 0, 98, 0
2, 73280, Note_on_c, 0, 73, 0
2, 73320, Note_on_c, 0, 86, 100
2, 73320, Note_on_c, 0, 98, 100
2, 73320, Note_on_c, 0, 73, 100
2, 73320, Note_on_c, 0, 61, 100
2, 73800, Note_on_c, 0, 86, 0
2, 73800, Note_on_c, 0, 73, 0
2, 73800, Note_on_c, 0, 61, 0
2, 73840, Note_on_c, 0, 98, 0
2, 73920, Text_t, "sing_off"
2, 73920, Note_on_c, 0, 87, 100
2, 73920, Note_on_c, 0, 61, 100
2, 73920, Note_on_c, 0, 74, 100
2, 73920, Note_on_c, 0, 99, 100
2, 74080, Note_on_c, 0, 87, 0
2, 74080, Note_on_c, 0, 61, 0
2, 74080, Note_on_c, 0, 74, 0
2, 74080, Note_on_c, 0, 99, 0
2, 74080, Note_on_c, 0, 86, 100
2, 74080, Note_on_c, 0, 98, 100
2, 74240, Note_on_c, 0, 86, 0
2, 74240, Note_on_c, 0, 98, 0
2, 74240, Note_on_c, 0, 75, 100
2, 74240, Note_on_c, 0, 62, 100
2, 74240, Note_on_c, 0, 88, 100
2, 74240, Note_on_c, 0, 100, 100
2, 74720, Note_on_c, 0, 75, 0
2, 74720, Note_on_c, 0, 62, 0
2, 74840, Note_on_c, 0, 88, 0
2, 74840, Note_on_c, 0, 100, 0
2, 74880, Note_on_c, 0, 86, 100
2, 74880, Note_on_c, 0, 62, 100
2, 74880, Note_on_c, 0, 75, 100
2, 74880, Note_on_c, 0, 98, 100
2, 74960, Note_on_c, 0, 86, 0
2, 74960, Note_on_c, 0, 62, 0
2, 74960, Note_on_c, 0, 75, 0
2, 74960, Note_on_c, 0, 98, 0
2, 75040, Note_on_c, 0, 87, 100
2, 75040, Note_on_c, 0, 99, 100
2, 75120, Note_on_c, 0, 87, 0
2, 75120, Note_on_c, 0, 99, 0
2, 75200, Note_on_c, 0, 98, 100
2, 75200, Note_on_c, 0, 97, 100
2, 75200, Note_on_c, 0, 86, 100
2, 75200, Note_on_c, 0, 74, 100
2, 75280, Note_on_c, 0, 98, 0
2, 75280, Note_on_c, 0, 97, 0
2, 75280, Note_on_c, 0, 86, 0
2, 75280, Note_on_c, 0, 74, 0
2, 75360, Note_on_c, 0, 61, 100
2, 75360, Note_on_c, 0, 97, 100
2, 75360, Note_on_c, 0, 85, 100
2, 75360, Note_on_c, 0, 73, 100
2, 75440, Note_on_c, 0, 61, 0
2, 75810, Note_on_c, 0, 82, 0
2, 75810, Note_on_c, 0, 70, 0
2, 75810, Note_on_c, 0, 94, 0
2, 75810, Note_on_c, 0, 106, 0
2, 75810, Note_on_c, 0, 81, 100
2, 75810, Note_on_c, 0, 69, 100
2, 75810, Note_on_c, 0, 93, 100
2, 75810, Note_on_c, 0, 105, 100
2, 75840, Note_on_c, 0, 97, 0
2, 75840, Note_on_c, 0, 85, 0
2, 75840, Note_on_c, 0, 73, 0
2, 75840, Note_on_c, 0, 86, 100
2, 75840, Note_on_c, 0, 61, 100
2, 75840, Note_on_c, 0, 98, 100
2, 75840, Note_on_c, 0, 74, 100
2, 75920, Note_on_c, 0, 86, 0
2, 75920, Note_on_c, 0, 61, 0
2, 75920, Note_on_c, 0, 98, 0
2, 75920, Note_on_c, 0, 74, 0
2, 75920, Note_on_c, 0, 85, 100
2, 75920, Note_on_c, 0, 97, 100
2, 76000, Note_on_c, 0, 85, 0
2, 76000, Note_on_c, 0, 97, 0
2, 76080, Note_on_c, 0, 84, 100
2, 76080, Note_on_c, 0, 60, 100
2, 76080, Note_on_c, 0, 72, 100
2, 76080, Note_on_c, 0, 96, 100
2, 76800, Note_on_c, 0, 84, 0
2, 76800, Note_on_c, 0, 60, 0
2, 76800, Note_on_c, 0, 72, 0
2, 76800, Note_on_c, 0, 96, 0
2, 76920, Note_on_c, 0, 61, 100
2, 76920, Note_on_c, 0, 73, 100
2, 76920, Note_on_c, 0, 97, 100
2, 76920, Note_on_c, 0, 85, 100
2, 77026, Note_on_c, 0, 61, 0
2, 77026, Note_on_c, 0, 73, 0
2, 77026, Note_on_c, 0, 97, 0
2, 77026, Note_on_c, 0, 85, 0
2, 77040, Note_on_c, 0, 85, 100
2, 77040, Note_on_c, 0, 97, 100
2, 77146, Note_on_c, 0, 85, 0
2, 77146, Note_on_c, 0, 97, 0
2, 77160, Note_on_c, 0, 87, 100
2, 77160, Note_on_c, 0, 74, 100
2, 77160, Note_on_c, 0, 99, 100
2, 77268, Note_on_c, 0, 87, 0
2, 77268, Note_on_c, 0, 74, 0
2, 77268, Note_on_c, 0, 99, 0
2, 77280, Note_on_c, 0, 86, 100
2, 77280, Note_on_c, 0, 62, 100
2, 77280, Note_on_c, 0, 73, 100
2, 77280, Note_on_c, 0, 98, 100
2, 77386, Note_on_c, 0, 86, 0
2, 77386, Note_on_c, 0, 62, 0
2, 77386, Note_on_c, 0, 73, 0
2, 77386, Note_on_c, 0, 98, 0
2, 77400, Note_on_c, 0, 85, 100
2, 77400, Note_on_c, 0, 97, 100
2, 77508, Note_on_c, 0, 85, 0
2, 77508, Note_on_c, 0, 97, 0
2, 77570, Note_on_c, 0, 82, 100
2, 77570, Note_on_c, 0, 70, 100
2, 77570, Note_on_c, 0, 94, 100
2, 77570, Note_on_c, 0, 106, 100
2, 77600, Note_on_c, 0, 75, 100
2, 77600, Note_on_c, 0, 88, 100
2, 77600, Note_on_c, 0, 100, 100
2, 77758, Note_on_c, 0, 75, 0
2, 77758, Note_on_c, 0, 88, 0
2, 77758, Note_on_c, 0, 100, 0
2, 77760, Note_on_c, 0, 86, 100
2, 77760, Note_on_c, 0, 61, 100
2, 77760, Note_on_c, 0, 74, 100
2, 77760, Note_on_c, 0, 98, 100
2, 77840, Note_on_c, 0, 86, 0
2, 77866, Note_on_c, 0, 61, 0
2, 77866, Note_on_c, 0, 74, 0
2, 77868, Note_on_c, 0, 98, 0
2, 77880, Note_on_c, 0, 99, 100
2, 77986, Note_on_c, 0, 99, 0
2, 78000, Note_on_c, 0, 98, 100
2, 78040, Note_on_c, 0, 73, 100
2, 78040, Note_on_c, 0, 60, 100
2, 78080, Note_on_c, 0, 98, 0
2, 78080, Note_on_c, 0, 85, 100
2, 78080, Note_on_c, 0, 97, 100
2, 78160, Note_on_c, 0, 73, 0
2, 78160, Note_on_c, 0, 60, 0
2, 78160, Note_on_c, 0, 85, 0
2, 78160, Note_on_c, 0, 97, 0
2, 78160, Note_on_c, 0, 84, 100
2, 78160, Note_on_c, 0, 96, 100
2, 78266, Note_on_c, 0, 84, 0
2, 78266, Note_on_c, 0, 96, 0
2, 78320, Note_on_c, 0, 86, 100
2, 78320, Note_on_c, 0, 98, 100
2, 78320, Note_on_c, 0, 74, 100
2, 78360, Note_on_c, 0, 61, 100
2, 78400, Note_on_c, 0, 86, 0
2, 78400, Note_on_c, 0, 98, 0
2, 78400, Note_on_c, 0, 74, 0
2, 78400, Note_on_c, 0, 85, 100
2, 78400, Note_on_c, 0, 97, 100
2, 78440, Note_on_c, 0, 61, 0
2, 78480, Note_on_c, 0, 85, 0
2, 78480, Note_on_c, 0, 97, 0
2, 78480, Note_on_c, 0, 84, 100
2, 78480, Note_on_c, 0, 96, 100
2, 78560, Note_on_c, 0, 84, 0
2, 78560, Note_on_c, 0, 96, 0
2, 78560, Note_on_c, 0, 75, 100
2, 78560, Note_on_c, 0, 62, 100
2, 78640, Note_on_c, 0, 75, 0
2, 78640, Note_on_c, 0, 62, 0
2, 78640, Note_on_c, 0, 99, 100
2, 78640, Note_on_c, 0, 88, 100
2, 78720, Note_on_c, 0, 99, 0
2, 78720, Note_on_c, 0, 88, 0
2, 78720, Note_on_c, 0, 100, 100
2, 78800, Note_on_c, 0, 100, 0
2, 78800, Note_on_c, 0, 99, 100
2, 78880, Note_on_c, 0, 99, 0
2, 78880, Note_on_c, 0, 98, 100
2, 78880, Note_on_c, 0, 87, 100
2, 78960, Note_on_c, 0, 98, 0
2, 78960, Note_on_c, 0, 87, 0
2, 78960, Note_on_c, 0, 97, 100
2, 78960, Note_on_c, 0, 86, 100
2, 79040, Note_on_c, 0, 97, 0
2, 79040, Note_on_c, 0, 86, 0
2, 79040, Note_on_c, 0, 74, 100
2, 79040, Note_on_c, 0, 62, 100
2, 79040, Note_on_c, 0, 98, 100
2, 79040, Note_on_c, 0, 87, 100
2, 79120, Note_on_c, 0, 74, 0
2, 79120, Note_on_c, 0, 62, 0
2, 79120, Note_on_c, 0, 98, 0
2, 79120, Note_on_c, 0, 87, 0
2, 79280, Note_on_c, 0, 108, 100
2, 79280, Note_on_c, 0, 73, 100
2, 79280, Note_on_c, 0, 61, 100
2, 79280, Note_on_c, 0, 98, 100
2, 79280, Note_on_c, 0, 86, 100
2, 79360, Note_on_c, 0, 73, 0
2, 79360, Note_on_c, 0, 61, 0
2, 79360, Note_on_c, 0, 98, 0
2, 79360, Note_on_c, 0, 86, 0
2, 79360, Note_on_c, 0, 97, 100
2, 79440, Note_on_c, 0, 97, 0
2, 79440, Note_on_c, 0, 87, 100
2, 79440, Note_on_c, 0, 74, 100
2, 79440, Note_on_c, 0, 99, 100
2, 79520, Note_on_c, 0, 87, 0
2, 79520, Note_on_c, 0, 74, 0
2, 79520, Note_on_c, 0, 99, 0
2, 79520, Note_on_c, 0, 86, 100
2, 79520, Note_on_c, 0, 98, 100
2, 79600, Note_on_c, 0, 86, 0
2, 79600, Note_on_c, 0, 98, 0
2, 79600, Note_on_c, 0, 85, 100
2, 79600, Note_on_c, 0, 97, 100
2, 79680, Note_on_c, 0, 85, 0
2, 79680, Note_on_c, 0, 97, 0
2, 79680, Note_on_c, 0, 84, 100
2, 79680, Note_on_c, 0, 60, 100
2, 79680, Note_on_c, 0, 72, 100
2, 79680, Note_on_c, 0, 96, 100
2, 79760, Note_on_c, 0, 108, 0
2, 79760, Note_on_c, 0, 84, 0
2, 79760, Note_on_c, 0, 60, 0
2, 79760, Note_on_c, 0, 72, 0
2, 79760, Note_on_c, 0, 96, 0
2, 79920, Note_on_c, 0, 108, 100
2, 80288, Text_t, "sing_on"
2, 80320, Note_on_c, 0, 108, 0
2, 80480, Note_on_c, 0, 108, 100
2, 80560, Note_on_c, 0, 108, 0
2, 80690, Note_on_c, 0, 82, 0
2, 80690, Note_on_c, 0, 70, 0
2, 80690, Note_on_c, 0, 94, 0
2, 80690, Note_on_c, 0, 106, 0
2, 80720, Note_on_c, 0, 108, 100
2, 80880, Note_on_c, 0, 108, 0
2, 81040, Note_on_c, 0, 108, 100
2, 81520, Note_on_c, 0, 108, 0
2, 81600, Note_on_c, 0, 108, 100
2, 81760, Note_on_c, 0, 108, 0
2, 81920, Note_on_c, 0, 108, 100
2, 82160, Note_on_c, 0, 108, 0
2, 82320, Note_on_c, 0, 108, 100
2, 82850, Note_on_c, 0, 82, 100
2, 82850, Note_on_c, 0, 70, 100
2, 82850, Note_on_c, 0, 94, 100
2, 82850, Note_on_c, 0, 106, 100
2, 82880, Note_on_c, 0, 74, 100
2, 82880, Note_on_c, 0, 61, 100
2, 82880, Note_on_c, 0, 86, 100
2, 82880, Note_on_c, 0, 98, 100
2, 83360, Note_on_c, 0, 108, 0
2, 83520, Note_on_c, 0, 74, 0
2, 83520, Note_on_c, 0, 61, 0
2, 83520, Note_on_c, 0, 86, 0
2, 83520, Note_on_c, 0, 98, 0
2, 83520, Note_on_c, 0, 87, 100
2, 83520, Note_on_c, 0, 62, 100
2, 83520, Note_on_c, 0, 75, 100
2, 83520, Note_on_c, 0, 99, 100
2, 83600, Note_on_c, 0, 87, 0
2, 83600, Note_on_c, 0, 62, 0
2, 83600, Note_on_c, 0, 75, 0
2, 83600, Note_on_c, 0, 99, 0
2, 83840, Note_on_c, 0, 73, 100
2, 83840, Note_on_c, 0, 60, 100
2, 83840, Note_on_c, 0, 84, 100
2, 83840, Note_on_c, 0, 96, 100
2, 83920, Note_on_c, 0, 73, 0
2, 83920, Note_on_c, 0, 60, 0
2, 83920, Note_on_c, 0, 84, 0
2, 83920, Note_on_c, 0, 96, 0
2, 84160, Note_on_c, 0, 74, 100
2, 84160, Note_on_c, 0, 61, 100
2, 84160, Note_on_c, 0, 84, 100
2, 84160, Note_on_c, 0, 86, 100
2, 84160, Note_on_c, 0, 96, 100
2, 84160, Note_on_c, 0, 98, 100
2, 84240, Note_on_c, 0, 74, 0
2, 84240, Note_on_c, 0, 61, 0
2, 84240, Note_on_c, 0, 84, 0
2, 84240, Note_on_c, 0, 86, 0
2, 84240, Note_on_c, 0, 96, 0
2, 84240, Note_on_c, 0, 98, 0
2, 84480, Note_on_c, 0, 87, 100
2, 84480, Note_on_c, 0, 86, 100
2, 84480, Note_on_c, 0, 62, 100
2, 84480, Note_on_c, 0, 75, 100
2, 84480, Note_on_c, 0, 74, 100
2, 84480, Note_on_c, 0, 61, 100
2, 84480, Note_on_c, 0, 99, 100
2, 84480, Note_on_c, 0, 98, 100
2, 85600, Note_on_c, 0, 108, 100
2, 86000, Note_on_c, 0, 108, 0
2, 86080, Note_on_c, 0, 108, 100
2, 86160, Note_on_c, 0, 108, 0
2, 86240, Note_on_c, 0, 108, 100
2, 86320, Note_on_c, 0, 108, 0
2, 86370, Note_on_c, 0, 81, 0
2, 86370, Note_on_c, 0, 69, 0
2, 86370, Note_on_c, 0, 93, 0
2, 86370, Note_on_c, 0, 105, 0
2, 86400, Note_on_c, 0, 87, 0
2, 86400, Note_on_c, 0, 86, 0
2, 86400, Note_on_c, 0, 62, 0
2, 86400, Note_on_c, 0, 75, 0
2, 86400, Note_on_c, 0, 74, 0
2, 86400, Note_on_c, 0, 61, 0
2, 86400, Note_on_c, 0, 99, 0
2, 86400, Note_on_c, 0, 98, 0
2, 86400, Note_on_c, 0, 108, 100
2, 86480, Note_on_c, 0, 108, 0
2, 86560, Note_on_c, 0, 108, 100
2, 86600, Note_on_c, 0, 108, 0
2, 86680, Note_on_c, 0, 108, 100
2, 86840, Note_on_c, 0, 108, 0
2, 86960, Note_on_c, 0, 108, 100
2, 87280, Note_on_c, 0, 108, 0
2, 87360, Note_on_c, 0, 108, 100
2, 87440, Note_on_c, 0, 108, 0
2, 87600, Note_on_c, 0, 108, 100
2, 88160, Note_on_c, 0, 108, 0
2, 88320, Note_on_c, 0, 85, 100
2, 88320, Note_on_c, 0, 60, 100
2, 88320, Note_on_c, 0, 73, 100
2, 88320, Note_on_c, 0, 97, 100
2, 88440, Note_on_c, 0, 85, 0
2, 88440, Note_on_c, 0, 60, 0
2, 88440, Note_on_c, 0, 73, 0
2, 88440, Note_on_c, 0, 97, 0
2, 88440, Note_on_c, 0, 86, 100
2, 88440, Note_on_c, 0, 98, 100
2, 88560, Note_on_c, 0, 86, 0
2, 88560, Note_on_c, 0, 98, 0
2, 88560, Note_on_c, 0, 87, 100
2, 88560, Note_on_c, 0, 99, 100
2, 88680, Note_on_c, 0, 87, 0
2, 88680, Note_on_c, 0, 99, 0
2, 88720, Note_on_c, 0, 87, 100
2, 88720, Note_on_c, 0, 74, 100
2, 88720, Note_on_c, 0, 61, 100
2, 88720, Note_on_c, 0, 99, 100
2, 88880, Note_on_c, 0, 74, 0
2, 88880, Note_on_c, 0, 61, 0
2, 89200, Note_on_c, 0, 87, 0
2, 89200, Note_on_c, 0, 99, 0
2, 89280, Text_t, "sing_off"
2, 89280, Note_on_c, 0, 61, 100
2, 89280, Note_on_c, 0, 74, 100
2, 89280, Note_on_c, 0, 87, 100
2, 89280, Note_on_c, 0, 99, 100
2, 89360, Note_on_c, 0, 61, 0
2, 89360, Note_on_c, 0, 74, 0
2, 89360, Note_on_c, 0, 87, 0
2, 89360, Note_on_c, 0, 99, 0
2, 89440, Note_on_c, 0, 86, 100
2, 89440, Note_on_c, 0, 98, 100
2, 89520, Note_on_c, 0, 86, 0
2, 89520, Note_on_c, 0, 98, 0
2, 89600, Note_on_c, 0, 75, 100
2, 89600, Note_on_c, 0, 62, 100
2, 89600, Note_on_c, 0, 88, 100
2, 89600, Note_on_c, 0, 100, 100
2, 90160, Note_on_c, 0, 75, 0
2, 90160, Note_on_c, 0, 62, 0
2, 90160, Note_on_c, 0, 88, 0
2, 90160, Note_on_c, 0, 100, 0
2, 90210, Note_on_c, 0, 82, 0
2, 90210, Note_on_c, 0, 70, 0
2, 90210, Note_on_c, 0, 94, 0
2, 90210, Note_on_c, 0, 106, 0
2, 90210, Note_on_c, 0, 81, 100
2, 90210, Note_on_c, 0, 69, 100
2, 90210, Note_on_c, 0, 93, 100
2, 90210, Note_on_c, 0, 105, 100
2, 90240, Note_on_c, 0, 86, 100
2, 90240, Note_on_c, 0, 60, 100
2, 90240, Note_on_c, 0, 73, 100
2, 90240, Note_on_c, 0, 98, 100
2, 90320, Note_on_c, 0, 86, 0
2, 90320, Note_on_c, 0, 60, 0
2, 90320, Note_on_c, 0, 73, 0
2, 90320, Note_on_c, 0, 98, 0
2, 90320, Note_on_c, 0, 87, 100
2, 90320, Note_on_c, 0, 99, 100
2, 90400, Note_on_c, 0, 87, 0
2, 90400, Note_on_c, 0, 99, 0
2, 90720, Note_on_c, 0, 87, 100
2, 90720, Note_on_c, 0, 61, 100
2, 90720, Note_on_c, 0, 74, 100
2, 90720, Note_on_c, 0, 99, 100
2, 90826, Note_on_c, 0, 87, 0
2, 90826, Note_on_c, 0, 61, 0
2, 90826, Note_on_c, 0, 74, 0
2, 90826, Note_on_c, 0, 99, 0
2, 90840, Note_on_c, 0, 86, 100
2, 90840, Note_on_c, 0, 98, 100
2, 90946, Note_on_c, 0, 86, 0
2, 90946, Note_on_c, 0, 98, 0
2, 91200, Note_on_c, 0, 86, 100
2, 91200, Note_on_c, 0, 60, 100
2, 91200, Note_on_c, 0, 73, 100
2, 91200, Note_on_c, 0, 98, 100
2, 91308, Note_on_c, 0, 86, 0
2, 91308, Note_on_c, 0, 60, 0
2, 91308, Note_on_c, 0, 73, 0
2, 91308, Note_on_c, 0, 98, 0
2, 91840, Note_on_c, 0, 73, 100
2, 91840, Note_on_c, 0, 60, 100
2, 91840, Note_on_c, 0, 86, 100
2, 91840, Note_on_c, 0, 98, 100
2, 91920, Note_on_c, 0, 73, 0
2, 91920, Note_on_c, 0, 60, 0
2, 91920, Note_on_c, 0, 86, 0
2, 91920, Note_on_c, 0, 98, 0
2, 92000, Note_on_c, 0, 86, 100
2, 92000, Note_on_c, 0, 98, 100
2, 92160, Note_on_c, 0, 86, 0
2, 92160, Note_on_c, 0, 98, 0
2, 92160, Note_on_c, 0, 87, 100
2, 92160, Note_on_c, 0, 61, 100
2, 92160, Note_on_c, 0, 73, 100
2, 92160, Note_on_c, 0, 99, 100
2, 92240, Note_on_c, 0, 87, 0
2, 92240, Note_on_c, 0, 99, 0
2, 92240, Note_on_c, 0, 86, 100
2, 92240, Note_on_c, 0, 98, 100
2, 93040, Note_on_c, 0, 61, 0
2, 93040, Note_on_c, 0, 73, 0
2, 93080, Note_on_c, 0, 86, 0
2, 93080, Note_on_c, 0, 98, 0
2, 93090, Note_on_c, 0, 67, 100
2, 93090, Note_on_c, 0, 79, 100
2, 93090, Note_on_c, 0, 91, 100
2, 93090, Note_on_c, 0, 103, 100
2, 93090, Note_on_c, 0, 82, 100
2, 93090, Note_on_c, 0, 70, 100
2, 93090, Note_on_c, 0, 94, 100
2, 93090, Note_on_c, 0, 106, 100
2, 93120, Note_on_c, 0, 87, 100
2, 93120, Note_on_c, 0, 61, 100
2, 93120, Note_on_c, 0, 74, 100
2, 93120, Note_on_c, 0, 99, 100
2, 93200, Note_on_c, 0, 87, 0
2, 93200, Note_on_c, 0, 61, 0
2, 93200, Note_on_c, 0, 74, 0
2, 93200, Note_on_c, 0, 99, 0
2, 93440, Note_on_c, 0, 75, 100
2, 93440, Note_on_c, 0, 62, 100
2, 93440, Note_on_c, 0, 88, 100
2, 93440, Note_on_c, 0, 100, 100
2, 93520, Note_on_c, 0, 75, 0
2, 93520, Note_on_c, 0, 62, 0
2, 93520, Note_on_c, 0, 88, 0
2, 93520, Note_on_c, 0, 100, 0
2, 93760, Note_on_c, 0, 72, 100
2, 93760, Note_on_c, 0, 60, 100
2, 93760, Note_on_c, 0, 85, 100
2, 93760, Note_on_c, 0, 97, 100
2, 93840, Note_on_c, 0, 72, 0
2, 93840, Note_on_c, 0, 60, 0
2, 93840, Note_on_c, 0, 85, 0
2, 93840, Note_on_c, 0, 97, 0
2, 94080, Note_on_c, 0, 86, 100
2, 94080, Note_on_c, 0, 61, 100
2, 94080, Note_on_c, 0, 73, 100
2, 94080, Note_on_c, 0, 98, 100
2, 94560, Note_on_c, 0, 108, 100
2, 94680, Note_on_c, 0, 108, 0
2, 95280, Note_on_c, 0, 108, 100
2, 95400, Note_on_c, 0, 108, 0
2, 95520, Note_on_c, 0, 108, 100
2, 95640, Note_on_c, 0, 108, 0
2, 95680, Note_on_c, 0, 86, 0
2, 95680, Note_on_c, 0, 61, 0
2, 95680, Note_on_c, 0, 73, 0
2, 95680, Note_on_c, 0, 98, 0
2, 95730, Note_on_c, 0, 67, 0
2, 95730, Note_on_c, 0, 79, 0
2, 95730, Note_on_c, 0, 91, 0
2, 95730, Note_on_c, 0, 103, 0
2, 95880, Note_on_c, 0, 108, 100
2, 96000, Text_t, "sing_on"
2, 96000, Note_on_c, 0, 108, 0
2, 96000, Note_on_c, 0, 108, 100
2, 96120, Note_on_c, 0, 108, 0
2, 96240, Note_on_c, 0, 108, 100
2, 96360, Note_on_c, 0, 108, 0
2, 96960, Note_on_c, 0, 108, 100
2, 97080, Note_on_c, 0, 108, 0
2, 97320, Note_on_c, 0, 108, 100
2, 97440, Note_on_c, 0, 108, 0
2, 97680, Note_on_c, 0, 108, 100
2, 97800, Note_on_c, 0, 108, 0
2, 98240, Note_on_c, 0, 75, 100
2, 98240, Note_on_c, 0, 62, 100
2, 98240, Note_on_c, 0, 87, 100
2, 98240, Note_on_c, 0, 88, 100
2, 98240, Note_on_c, 0, 99, 100
2, 98240, Note_on_c, 0, 100, 100
2, 98348, Note_on_c, 0, 75, 0
2, 98348, Note_on_c, 0, 62, 0
2, 98348, Note_on_c, 0, 87, 0
2, 98348, Note_on_c, 0, 88, 0
2, 98348, Note_on_c, 0, 99, 0
2, 98348, Note_on_c, 0, 100, 0
2, 99200, Note_on_c, 0, 72, 100
2, 99200, Note_on_c, 0, 60, 100
2, 99200, Note_on_c, 0, 84, 100
2, 99200, Note_on_c, 0, 96, 100
2, 99280, Note_on_c, 0, 72, 0
2, 99280, Note_on_c, 0, 60, 0
2, 99280, Note_on_c, 0, 84, 0
2, 99280, Note_on_c, 0, 96, 0
2, 99520, Note_on_c, 0, 73, 100
2, 99520, Note_on_c, 0, 61, 100
2, 99520, Note_on_c, 0, 86, 100
2, 99520, Note_on_c, 0, 98, 100
2, 99600, Note_on_c, 0, 73, 0
2, 99600, Note_on_c, 0, 61, 0
2, 99600, Note_on_c, 0, 86, 0
2, 99600, Note_on_c, 0, 98, 0
2, 99840, Note_on_c, 0, 87, 100
2, 99840, Note_on_c, 0, 85, 100
2, 99840, Note_on_c, 0, 62, 100
2, 99840, Note_on_c, 0, 61, 100
2, 99840, Note_on_c, 0, 74, 100
2, 99840, Note_on_c, 0, 73, 100
2, 99840, Note_on_c, 0, 99, 100
2, 99840, Note_on_c, 0, 97, 100
2, 100320, Note_on_c, 0, 108, 100
2, 100920, Note_on_c, 0, 108, 0
2, 101040, Note_on_c, 0, 108, 100
2, 101120, Note_on_c, 0, 108, 0
2, 101200, Note_on_c, 0, 108, 100
2, 101520, Note_on_c, 0, 108, 0
2, 101640, Note_on_c, 0, 108, 100
2, 101730, Note_on_c, 0, 81, 0
2, 101730, Note_on_c, 0, 69, 0
2, 101730, Note_on_c, 0, 93, 0
2, 101730, Note_on_c, 0, 105, 0
2, 101750, Note_on_c, 0, 87, 0
2, 101750, Note_on_c, 0, 85, 0
2, 101750, Note_on_c, 0, 62, 0
2, 101750, Note_on_c, 0, 61, 0
2, 101750, Note_on_c, 0, 74, 0
2, 101750, Note_on_c, 0, 73, 0
2, 101750, Note_on_c, 0, 99, 0
2, 101750, Note_on_c, 0, 97, 0
2, 101920, Note_on_c, 0, 108, 0
2, 102000, Note_on_c, 0, 108, 100
2, 102120, Note_on_c, 0, 108, 0
2, 102240, Note_on_c, 0, 108, 100
2, 102480, Note_on_c, 0, 108, 0
2, 102600, Note_on_c, 0, 108, 100
2, 102720, Note_on_c, 0, 108, 0
2, 102840, Note_on_c, 0, 108, 100
2, 102960, Note_on_c, 0, 108, 0
2, 103080, Note_on_c, 0, 108, 100
2, 103640, Note_on_c, 0, 108, 0
2, 103680, Note_on_c, 0, 84, 100
2, 103680, Note_on_c, 0, 60, 100
2, 103680, Note_on_c, 0, 72, 100
2, 103680, Note_on_c, 0, 96, 100
2, 103760, Note_on_c, 0, 84, 0
2, 103760, Note_on_c, 0, 60, 0
2, 103760, Note_on_c, 0, 72, 0
2, 103760, Note_on_c, 0, 96, 0
2, 103800, Note_on_c, 0, 97, 100
2, 103800, Note_on_c, 0, 85, 100
2, 103880, Note_on_c, 0, 97, 0
2, 103880, Note_on_c, 0, 85, 0
2, 103920, Note_on_c, 0, 86, 100
2, 103920, Note_on_c, 0, 98, 100
2, 104000, Note_on_c, 0, 86, 0
2, 104000, Note_on_c, 0, 98, 0
2, 104040, Note_on_c, 0, 98, 100
2, 104040, Note_on_c, 0, 74, 100
2, 104040, Note_on_c, 0, 61, 100
2, 104040, Note_on_c, 0, 86, 100
2, 104160, Note_on_c, 0, 74, 0
2, 104160, Note_on_c, 0, 61, 0
2, 104600, Note_on_c, 0, 86, 0
2, 104610, Note_on_c, 0, 82, 0
2, 104610, Note_on_c, 0, 70, 0
2, 104610, Note_on_c, 0, 94, 0
2, 104610, Note_on_c, 0, 106, 0
2, 104610, Note_on_c, 0, 81, 100
2, 104610, Note_on_c, 0, 69, 100
2, 104610, Note_on_c, 0, 93, 100
2, 104610, Note_on_c, 0, 105, 100
2, 104640, Text_t, "sing_off"
2, 104640, Note_on_c, 0, 98, 0
2, 104640, Note_on_c, 0, 87, 100
2, 104640, Note_on_c, 0, 61, 100
2, 104640, Note_on_c, 0, 74, 100
2, 104640, Note_on_c, 0, 99, 100
2, 104720, Note_on_c, 0, 87, 0
2, 104720, Note_on_c, 0, 61, 0
2, 104720, Note_on_c, 0, 74, 0
2, 104720, Note_on_c, 0, 99, 0
2, 104800, Note_on_c, 0, 86, 100
2, 104800, Note_on_c, 0, 98, 100
2, 104960, Note_on_c, 0, 86, 0
2, 104960, Note_on_c, 0, 98, 0
2, 104960, Note_on_c, 0, 75, 100
2, 104960, Note_on_c, 0, 62, 100
2, 104960, Note_on_c, 0, 88, 100
2, 104960, Note_on_c, 0, 100, 100
2, 105120, Note_on_c, 0, 75, 0
2, 105120, Note_on_c, 0, 62, 0
2, 105570, Note_on_c, 0, 81, 0
2, 105570, Note_on_c, 0, 69, 0
2, 105570, Note_on_c, 0, 93, 0
2, 105570, Note_on_c, 0, 105, 0
2, 105570, Note_on_c, 0, 82, 100
2, 105570, Note_on_c, 0, 70, 100
2, 105570, Note_on_c, 0, 94, 100
2, 105570, Note_on_c, 0, 106, 100
2, 105600, Note_on_c, 0, 88, 0
2, 105600, Note_on_c, 0, 100, 0
2, 105600, Note_on_c, 0, 87, 100
2, 105600, Note_on_c, 0, 62, 100
2, 105600, Note_on_c, 0, 75, 100
2, 105600, Note_on_c, 0, 99, 100
2, 105680, Note_on_c, 0, 87, 0
2, 105680, Note_on_c, 0, 62, 0
2, 105680, Note_on_c, 0, 75, 0
2, 105680, Note_on_c, 0, 99, 0
2, 105760, Note_on_c, 0, 100, 100
2, 105840, Note_on_c, 0, 100, 0
2, 105920, Note_on_c, 0, 74, 100
2, 105920, Note_on_c, 0, 98, 100
2, 105920, Note_on_c, 0, 86, 100
2, 106080, Note_on_c, 0, 74, 0
2, 106080, Note_on_c, 0, 98, 0
2, 106080, Note_on_c, 0, 86, 0
2, 106080, Note_on_c, 0, 61, 100
2, 106080, Note_on_c, 0, 73, 100
2, 106080, Note_on_c, 0, 97, 100
2, 106080, Note_on_c, 0, 85, 100
2, 106240, Note_on_c, 0, 61, 0
2, 106240, Note_on_c, 0, 73, 0
2, 106240, Note_on_c, 0, 97, 0
2, 106240, Note_on_c, 0, 85, 0
2, 106530, Note_on_c, 0, 82, 0
2, 106530, Note_on_c, 0, 70, 0
2, 106530, Note_on_c, 0, 94, 0
2, 106530, Note_on_c, 0, 106, 0
2, 106530, Note_on_c, 0, 81, 100
2, 106530, Note_on_c, 0, 69, 100
2, 106530, Note_on_c, 0, 93, 100
2, 106530, Note_on_c, 0, 105, 100
2, 106560, Note_on_c, 0, 87, 100
2, 106560, Note_on_c, 0, 62, 100
2, 106560, Note_on_c, 0, 75, 100
2, 106560, Note_on_c, 0, 100, 100
2, 106640, Note_on_c, 0, 87, 0
2, 106640, Note_on_c, 0, 62, 0
2, 106640, Note_on_c, 0, 75, 0
2, 106640, Note_on_c, 0, 100, 0
2, 106720, Note_on_c, 0, 86, 100
2, 106720, Note_on_c, 0, 99, 100
2, 106800, Note_on_c, 0, 86, 0
2, 106800, Note_on_c, 0, 99, 0
2, 106880, Note_on_c, 0, 74, 100
2, 106880, Note_on_c, 0, 61, 100
2, 106880, Note_on_c, 0, 86, 100
2, 106880, Note_on_c, 0, 99, 100
2, 106960, Note_on_c, 0, 74, 0
2, 106960, Note_on_c, 0, 61, 0
2, 106960, Note_on_c, 0, 86, 0
2, 106960, Note_on_c, 0, 99, 0
2, 106960, Note_on_c, 0, 85, 100
2, 106960, Note_on_c, 0, 98, 100
2, 107040, Note_on_c, 0, 85, 0
2, 107040, Note_on_c, 0, 98, 0
2, 107040, Note_on_c, 0, 84, 100
2, 107040, Note_on_c, 0, 97, 100
2, 107120, Note_on_c, 0, 84, 0
2, 107120, Note_on_c, 0, 97, 0
2, 107120, Note_on_c, 0, 96, 100
2, 107200, Note_on_c, 0, 96, 0
2, 107200, Note_on_c, 0, 72, 100
2, 107200, Note_on_c, 0, 60, 100
2, 107200, Note_on_c, 0, 84, 100
2, 107200, Note_on_c, 0, 97, 100
2, 107280, Note_on_c, 0, 72, 0
2, 107280, Note_on_c, 0, 60, 0
2, 107280, Note_on_c, 0, 84, 0
2, 107280, Note_on_c, 0, 97, 0
2, 107360, Note_on_c, 0, 73, 100
2, 107360, Note_on_c, 0, 85, 100
2, 107360, Note_on_c, 0, 97, 100
2, 107440, Note_on_c, 0, 85, 0
2, 107440, Note_on_c, 0, 97, 0
2, 107480, Note_on_c, 0, 73, 0
2, 107520, Note_on_c, 0, 86, 100
2, 107520, Note_on_c, 0, 61, 100
2, 107520, Note_on_c, 0, 74, 100
2, 107520, Note_on_c, 0, 98, 100
2, 107600, Note_on_c, 0, 86, 0
2, 107600, Note_on_c, 0, 61, 0
2, 107600, Note_on_c, 0, 74, 0
2, 107600, Note_on_c, 0, 98, 0
2, 107840, Note_on_c, 0, 75, 100
2, 107840, Note_on_c, 0, 62, 100
2, 107840, Note_on_c, 0, 87, 100
2, 107840, Note_on_c, 0, 99, 100
2, 107920, Note_on_c, 0, 75, 0
2, 107920, Note_on_c, 0, 62, 0
2, 107920, Note_on_c, 0, 87, 0
2, 107920, Note_on_c, 0, 99, 0
2, 108000, Note_on_c, 0, 86, 100
2, 108000, Note_on_c, 0, 98, 100
2, 108080, Note_on_c, 0, 86, 0
2, 108080, Note_on_c, 0, 98, 0
2, 108160, Note_on_c, 0, 74, 100
2, 108160, Note_on_c, 0, 61, 100
2, 108160, Note_on_c, 0, 86, 100
2, 108160, Note_on_c, 0, 98, 100
2, 108240, Note_on_c, 0, 74, 0
2, 108240, Note_on_c, 0, 61, 0
2, 108240, Note_on_c, 0, 86, 0
2, 108240, Note_on_c, 0, 98, 0
2, 108240, Note_on_c, 0, 85, 100
2, 108240, Note_on_c, 0, 97, 100
2, 108320, Note_on_c, 0, 85, 0
2, 108320, Note_on_c, 0, 97, 0
2, 108320, Note_on_c, 0, 84, 100
2, 108320, Note_on_c, 0, 96, 100
2, 108400, Note_on_c, 0, 84, 0
2, 108400, Note_on_c, 0, 96, 0
2, 108480, Note_on_c, 0, 87, 100
2, 108480, Note_on_c, 0, 62, 100
2, 108480, Note_on_c, 0, 73, 100
2, 108480, Note_on_c, 0, 74, 100
2, 108480, Note_on_c, 0, 98, 100
2, 108480, Note_on_c, 0, 99, 100
2, 108480, Note_on_c, 0, 86, 100
2, 108588, Note_on_c, 0, 87, 0
2, 108588, Note_on_c, 0, 62, 0
2, 108588, Note_on_c, 0, 73, 0
2, 108588, Note_on_c, 0, 74, 0
2, 108588, Note_on_c, 0, 98, 0
2, 108588, Note_on_c, 0, 99, 0
2, 108588, Note_on_c, 0, 86, 0
2, 108770, Note_on_c, 0, 81, 0
2, 108770, Note_on_c, 0, 69, 0
2, 108770, Note_on_c, 0, 93, 0
2, 108770, Note_on_c, 0, 105, 0
2, 108770, Note_on_c, 0, 82, 100
2, 108770, Note_on_c, 0, 70, 100
2, 108770, Note_on_c, 0, 94, 100
2, 108770, Note_on_c, 0, 106, 100
2, 108800, Note_on_c, 0, 72, 100
2, 108800, Note_on_c, 0, 60, 100
2, 108800, Note_on_c, 0, 84, 100
2, 108800, Note_on_c, 0, 96, 100
2, 108880, Note_on_c, 0, 72, 0
2, 108880, Note_on_c, 0, 60, 0
2, 108880, Note_on_c, 0, 84, 0
2, 108880, Note_on_c, 0, 96, 0
2, 108960, Note_on_c, 0, 85, 100
2, 108960, Note_on_c, 0, 97, 100
2, 109120, Note_on_c, 0, 85, 0
2, 109120, Note_on_c, 0, 97, 0
2, 109120, Note_on_c, 0, 73, 100
2, 109120, Note_on_c, 0, 61, 100
2, 109120, Note_on_c, 0, 86, 100
2, 109120, Note_on_c, 0, 98, 100
2, 109280, Note_on_c, 0, 73, 0
2, 109280, Note_on_c, 0, 61, 0
2, 109280, Note_on_c, 0, 86, 0
2, 109280, Note_on_c, 0, 98, 0
2, 109410, Note_on_c, 0, 81, 100
2, 109410, Note_on_c, 0, 69, 100
2, 109410, Note_on_c, 0, 93, 100
2, 109410, Note_on_c, 0, 105, 100
2, 109440, Note_on_c, 0, 86, 100
2, 109440, Note_on_c, 0, 85, 100
2, 109440, Note_on_c, 0, 61, 100
2, 109440, Note_on_c, 0, 73, 100
2, 109440, Note_on_c, 0, 99, 100
2, 109440, Note_on_c, 0, 98, 100
2, 109920, Note_on_c, 0, 108, 100
2, 110240, Note_on_c, 0, 86, 0
2, 110240, Note_on_c, 0, 85, 0
2, 110240, Note_on_c, 0, 61, 0
2, 110240, Note_on_c, 0, 73, 0
2, 110240, Note_on_c, 0, 99, 0
2, 110240, Note_on_c, 0, 98, 0
2, 110400, Text_t, "drum_allbeat"
2, 110400, Note_on_c, 0, 85, 100
2, 110400, Note_on_c, 0, 87, 100
2, 110400, Note_on_c, 0, 61, 100
2, 110400, Note_on_c, 0, 62, 100
2, 110400, Note_on_c, 0, 73, 100
2, 110400, Note_on_c, 0, 74, 100
2, 110400, Note_on_c, 0, 98, 100
2, 110400, Note_on_c, 0, 100, 100
2, 110480, Note_on_c, 0, 108, 0
2, 110640, Note_on_c, 0, 108, 100
2, 111030, Text_t, "sing_on"
2, 111034, Note_on_c, 0, 100, 0
2, 111040, Note_on_c, 0, 85, 0
2, 111040, Note_on_c, 0, 87, 0
2, 111040, Note_on_c, 0, 61, 0
2, 111040, Note_on_c, 0, 62, 0
2, 111040, Note_on_c, 0, 73, 0
2, 111040, Note_on_c, 0, 74, 0
2, 111040, Note_on_c, 0, 98, 0
2, 111120, Note_on_c, 0, 108, 0
2, 111280, Note_on_c, 0, 108, 100
2, 111520, Note_on_c, 0, 108, 0
2, 111680, Note_on_c, 0, 108, 100
2, 111760, Note_on_c, 0, 108, 0
2, 111840, Note_on_c, 0, 108, 100
2, 112000, Note_on_c, 0, 108, 0
2, 112080, Note_on_c, 0, 108, 100
2, 112320, Text_t, "drum_normal"
2, 112960, Note_on_c, 0, 108, 0
2, 112960, Note_on_c, 0, 72, 100
2, 112960, Note_on_c, 0, 60, 100
2, 112960, Note_on_c, 0, 84, 100
2, 112960, Note_on_c, 0, 96, 100
2, 113092, Note_on_c, 0, 72, 0
2, 113092, Note_on_c, 0, 60, 0
2, 113092, Note_on_c, 0, 84, 0
2, 113092, Note_on_c, 0, 96, 0
2, 113280, Note_on_c, 0, 88, 100
2, 113280, Note_on_c, 0, 86, 100
2, 113280, Note_on_c, 0, 62, 100
2, 113280, Note_on_c, 0, 75, 100
2, 113280, Note_on_c, 0, 74, 100
2, 113280, Note_on_c, 0, 61, 100
2, 113280, Note_on_c, 0, 100, 100
2, 113280, Note_on_c, 0, 98, 100
2, 113840, Note_on_c, 0, 88, 0
2, 113840, Note_on_c, 0, 86, 0
2, 113840, Note_on_c, 0, 62, 0
2, 113840, Note_on_c, 0, 75, 0
2, 113840, Note_on_c, 0, 74, 0
2, 113840, Note_on_c, 0, 61, 0
2, 113840, Note_on_c, 0, 100, 0
2, 113840, Note_on_c, 0, 98, 0
2, 113920, Note_on_c, 0, 61, 100
2, 113920, Note_on_c, 0, 75, 100
2, 113920, Note_on_c, 0, 74, 100
2, 113920, Note_on_c, 0, 62, 100
2, 113920, Note_on_c, 0, 88, 100
2, 113920, Note_on_c, 0, 86, 100
2, 113920, Note_on_c, 0, 100, 100
2, 113920, Note_on_c, 0, 98, 100
2, 114000, Note_on_c, 0, 61, 0
2, 114000, Note_on_c, 0, 62, 0
2, 114048, Note_on_c, 0, 75, 0
2, 114048, Note_on_c, 0, 74, 0
2, 114048, Note_on_c, 0, 88, 0
2, 114048, Note_on_c, 0, 86, 0
2, 114048, Note_on_c, 0, 100, 0
2, 114048, Note_on_c, 0, 98, 0
2, 114210, Note_on_c, 0, 67, 100
2, 114210, Note_on_c, 0, 79, 100
2, 114210, Note_on_c, 0, 91, 100
2, 114210, Note_on_c, 0, 103, 100
2, 114240, Note_on_c, 0, 84, 100
2, 114240, Note_on_c, 0, 60, 100
2, 114240, Note_on_c, 0, 72, 100
2, 114240, Note_on_c, 0, 96, 100
2, 114320, Note_on_c, 0, 84, 0
2, 114320, Note_on_c, 0, 60, 0
2, 114320, Note_on_c, 0, 72, 0
2, 114320, Note_on_c, 0, 96, 0
2, 114560, Note_on_c, 0, 73, 100
2, 114560, Note_on_c, 0, 61, 100
2, 114560, Note_on_c, 0, 85, 100
2, 114560, Note_on_c, 0, 96, 100
2, 114560, Note_on_c, 0, 97, 100
2, 114640, Note_on_c, 0, 73, 0
2, 114640, Note_on_c, 0, 61, 0
2, 114640, Note_on_c, 0, 85, 0
2, 114640, Note_on_c, 0, 96, 0
2, 114640, Note_on_c, 0, 97, 0
2, 114880, Note_on_c, 0, 74, 100
2, 114880, Note_on_c, 0, 62, 100
2, 114880, Note_on_c, 0, 86, 100
2, 114880, Note_on_c, 0, 97, 100
2, 114880, Note_on_c, 0, 98, 100
2, 114960, Note_on_c, 0, 74, 0
2, 114960, Note_on_c, 0, 62, 0
2, 114960, Note_on_c, 0, 86, 0
2, 114960, Note_on_c, 0, 97, 0
2, 114960, Note_on_c, 0, 98, 0
2, 115200, Note_on_c, 0, 87, 100
2, 115200, Note_on_c, 0, 62, 100
2, 115200, Note_on_c, 0, 74, 100
2, 115200, Note_on_c, 0, 99, 100
2, 115200, Note_on_c, 0, 97, 100
2, 115680, Note_on_c, 0, 108, 100
2, 116240, Note_on_c, 0, 108, 0
2, 116320, Note_on_c, 0, 108, 100
2, 116720, Note_on_c, 0, 108, 0
2, 116800, Note_on_c, 0, 108, 100
2, 116880, Note_on_c, 0, 108, 0
2, 116960, Note_on_c, 0, 108, 100
2, 117040, Note_on_c, 0, 108, 0
2, 117200, Note_on_c, 0, 87, 0
2, 117200, Note_on_c, 0, 62, 0
2, 117200, Note_on_c, 0, 74, 0
2, 117200, Note_on_c, 0, 99, 0
2, 117200, Note_on_c, 0, 97, 0
2, 117200, Note_on_c, 0, 108, 100
2, 117210, Note_on_c, 0, 67, 0
2, 117210, Note_on_c, 0, 79, 0
2, 117210, Note_on_c, 0, 91, 0
2, 117210, Note_on_c, 0, 103, 0
2, 117280, Note_on_c, 0, 108, 0
2, 117440, Note_on_c, 0, 108, 100
2, 117520, Note_on_c, 0, 108, 0
2, 117760, Note_on_c, 0, 108, 100
2, 117840, Note_on_c, 0, 108, 0
2, 118000, Note_on_c, 0, 108, 100
2, 119010, Note_on_c, 0, 82, 0
2, 119010, Note_on_c, 0, 70, 0
2, 119010, Note_on_c, 0, 94, 0
2, 119010, Note_on_c, 0, 106, 0
2, 119040, Note_on_c, 0, 108, 0
2, 119040, Note_on_c, 0, 84, 100
2, 119040, Note_on_c, 0, 60, 100
2, 119040, Note_on_c, 0, 73, 100
2, 119040, Note_on_c, 0, 96, 100
2, 119160, Note_on_c, 0, 84, 0
2, 119160, Note_on_c, 0, 60, 0
2, 119160, Note_on_c, 0, 73, 0
2, 119160, Note_on_c, 0, 96, 0
2, 119160, Note_on_c, 0, 85, 100
2, 119160, Note_on_c, 0, 74, 100
2, 119160, Note_on_c, 0, 97, 100
2, 119280, Note_on_c, 0, 85, 0
2, 119280, Note_on_c, 0, 74, 0
2, 119280, Note_on_c, 0, 97, 0
2, 119280, Note_on_c, 0, 86, 100
2, 119280, Note_on_c, 0, 98, 100
2, 119400, Note_on_c, 0, 86, 0
2, 119400, Note_on_c, 0, 98, 0
2, 119400, Note_on_c, 0, 86, 100
2, 119400, Note_on_c, 0, 61, 100
2, 119400, Note_on_c, 0, 74, 100
2, 119400, Note_on_c, 0, 98, 100
2, 120000, Text_t, "sing_off"
2, 120720, Note_on_c, 0, 86, 0
2, 120720, Note_on_c, 0, 61, 0
2, 120720, Note_on_c, 0, 74, 0
2, 120720, Note_on_c, 0, 98, 0
2, 120930, Note_on_c, 0, 81, 0
2, 120930, Note_on_c, 0, 69, 0
2, 120930, Note_on_c, 0, 93, 0
2, 120930, Note_on_c, 0, 105, 0
2, 120930, Note_on_c, 0, 82, 100
2, 120930, Note_on_c, 0, 70, 100
2, 120930, Note_on_c, 0, 94, 100
2, 120930, Note_on_c, 0, 106, 100
2, 120960, Note_on_c, 0, 88, 100
2, 120960, Note_on_c, 0, 62, 100
2, 120960, Note_on_c, 0, 75, 100
2, 120960, Note_on_c, 0, 100, 100
2, 121040, Note_on_c, 0, 88, 0
2, 121040, Note_on_c, 0, 62, 0
2, 121040, Note_on_c, 0, 75, 0
2, 121040, Note_on_c, 0, 100, 0
2, 121040, Note_on_c, 0, 87, 100
2, 121040, Note_on_c, 0, 99, 100
2, 121120, Note_on_c, 0, 87, 0
2, 121120, Note_on_c, 0, 99, 0
2, 121120, Note_on_c, 0, 86, 100
2, 121120, Note_on_c, 0, 98, 100
2, 121200, Note_on_c, 0, 86, 0
2, 121200, Note_on_c, 0, 98, 0
2, 121200, Note_on_c, 0, 61, 100
2, 121200, Note_on_c, 0, 74, 100
2, 121200, Note_on_c, 0, 97, 100
2, 121200, Note_on_c, 0, 85, 100
2, 121840, Note_on_c, 0, 61, 0
2, 121920, Note_on_c, 0, 74, 0
2, 121920, Note_on_c, 0, 97, 0
2, 121920, Note_on_c, 0, 85, 0
2, 121920, Note_on_c, 0, 61, 100
2, 121920, Note_on_c, 0, 73, 100
2, 121920, Note_on_c, 0, 96, 100
2, 121920, Note_on_c, 0, 84, 100
2, 121998, Note_on_c, 0, 61, 0
2, 121998, Note_on_c, 0, 73, 0
2, 121998, Note_on_c, 0, 96, 0
2, 121998, Note_on_c, 0, 84, 0
2, 122238, Note_on_c, 0, 72, 100
2, 122238, Note_on_c, 0, 60, 100
2, 122238, Note_on_c, 0, 84, 100
2, 122238, Note_on_c, 0, 96, 100
2, 122718, Note_on_c, 0, 96, 0
2, 122748, Note_on_c, 0, 72, 0
2, 122748, Note_on_c, 0, 60, 0
2, 122748, Note_on_c, 0, 84, 0
2, 122850, Note_on_c, 0, 82, 0
2, 122850, Note_on_c, 0, 70, 0
2, 122850, Note_on_c, 0, 94, 0
2, 122850, Note_on_c, 0, 106, 0
2, 122850, Note_on_c, 0, 81, 100
2, 122850, Note_on_c, 0, 69, 100
2, 122850, Note_on_c, 0, 93, 100
2, 122850, Note_on_c, 0, 105, 100
2, 122880, Note_on_c, 0, 86, 100
2, 122880, Note_on_c, 0, 62, 100
2, 122880, Note_on_c, 0, 74, 100
2, 122880, Note_on_c, 0, 98, 100
2, 122958, Note_on_c, 0, 86, 0
2, 122958, Note_on_c, 0, 62, 0
2, 122958, Note_on_c, 0, 74, 0
2, 122958, Note_on_c, 0, 98, 0
2, 123040, Note_on_c, 0, 87, 100
2, 123040, Note_on_c, 0, 99, 100
2, 123120, Note_on_c, 0, 87, 0
2, 123120, Note_on_c, 0, 99, 0
2, 123198, Note_on_c, 0, 73, 100
2, 123198, Note_on_c, 0, 61, 100
2, 123198, Note_on_c, 0, 85, 100
2, 123198, Note_on_c, 0, 97, 100
2, 123810, Note_on_c, 0, 82, 100
2, 123810, Note_on_c, 0, 70, 100
2, 123810, Note_on_c, 0, 94, 100
2, 123810, Note_on_c, 0, 106, 100
2, 123838, Note_on_c, 0, 73, 0
2, 123838, Note_on_c, 0, 61, 0
2, 123838, Note_on_c, 0, 85, 0
2, 123838, Note_on_c, 0, 97, 0
2, 123840, Note_on_c, 0, 87, 100
2, 123840, Note_on_c, 0, 62, 100
2, 123840, Note_on_c, 0, 74, 100
2, 123840, Note_on_c, 0, 99, 100
2, 123916, Note_on_c, 0, 87, 0
2, 123916, Note_on_c, 0, 62, 0
2, 123916, Note_on_c, 0, 74, 0
2, 123916, Note_on_c, 0, 99, 0
2, 124000, Note_on_c, 0, 86, 100
2, 124000, Note_on_c, 0, 98, 100
2, 124156, Note_on_c, 0, 86, 0
2, 124156, Note_on_c, 0, 98, 0
2, 124156, Note_on_c, 0, 74, 100
2, 124156, Note_on_c, 0, 62, 100
2, 124156, Note_on_c, 0, 87, 100
2, 124156, Note_on_c, 0, 99, 100
2, 124316, Note_on_c, 0, 74, 0
2, 124316, Note_on_c, 0, 62, 0
2, 124316, Note_on_c, 0, 87, 0
2, 124316, Note_on_c, 0, 99, 0
2, 124320, Note_on_c, 0, 86, 100
2, 124320, Note_on_c, 0, 98, 100
2, 124480, Note_on_c, 0, 86, 0
2, 124480, Note_on_c, 0, 98, 0
2, 124480, Note_on_c, 0, 73, 100
2, 124480, Note_on_c, 0, 61, 100
2, 124480, Note_on_c, 0, 85, 100
2, 124480, Note_on_c, 0, 97, 100
2, 124636, Note_on_c, 0, 73, 0
2, 124636, Note_on_c, 0, 61, 0
2, 124636, Note_on_c, 0, 85, 0
2, 124636, Note_on_c, 0, 97, 0
2, 124636, Note_on_c, 0, 84, 100
2, 124636, Note_on_c, 0, 96, 100
2, 124796, Note_on_c, 0, 84, 0
2, 124796, Note_on_c, 0, 96, 0
2, 124800, Note_on_c, 0, 85, 100
2, 124800, Note_on_c, 0, 60, 100
2, 124800, Note_on_c, 0, 72, 100
2, 124800, Note_on_c, 0, 97, 100
2, 124960, Note_on_c, 0, 85, 0
2, 124960, Note_on_c, 0, 60, 0
2, 124960, Note_on_c, 0, 72, 0
2, 124960, Note_on_c, 0, 97, 0
2, 124960, Note_on_c, 0, 74, 100
2, 124960, Note_on_c, 0, 86, 100
2, 124960, Note_on_c, 0, 98, 100
2, 125080, Note_on_c, 0, 74, 0
2, 125116, Note_on_c, 0, 86, 0
2, 125116, Note_on_c, 0, 98, 0
2, 125116, Note_on_c, 0, 75, 100
2, 125116, Note_on_c, 0, 62, 100
2, 125116, Note_on_c, 0, 88, 100
2, 125116, Note_on_c, 0, 100, 100
2, 125276, Note_on_c, 0, 75, 0
2, 125276, Note_on_c, 0, 62, 0
2, 125276, Note_on_c, 0, 88, 0
2, 125276, Note_on_c, 0, 100, 0
2, 125356, Note_on_c, 0, 108, 100
2, 125440, Note_on_c, 0, 74, 100
2, 125440, Note_on_c, 0, 61, 100
2, 125440, Note_on_c, 0, 87, 100
2, 125440, Note_on_c, 0, 99, 100
2, 125520, Note_on_c, 0, 74, 0
2, 125520, Note_on_c, 0, 61, 0
2, 125520, Note_on_c, 0, 87, 0
2, 125520, Note_on_c, 0, 99, 0
2, 125520, Note_on_c, 0, 86, 100
2, 125520, Note_on_c, 0, 98, 100
2, 125596, Note_on_c, 0, 85, 100
2, 125596, Note_on_c, 0, 97, 100
2, 125600, Note_on_c, 0, 86, 0
2, 125600, Note_on_c, 0, 98, 0
2, 125676, Note_on_c, 0, 85, 0
2, 125676, Note_on_c, 0, 97, 0
2, 125680, Note_on_c, 0, 84, 100
2, 125680, Note_on_c, 0, 96, 100
2, 125760, Note_on_c, 0, 84, 0
2, 125760, Note_on_c, 0, 96, 0
2, 125916, Note_on_c, 0, 108, 0
2, 126000, Note_on_c, 0, 108, 100
2, 126364, Text_t, "sing_on"
2, 126480, Note_on_c, 0, 108, 0
2, 126560, Note_on_c, 0, 108, 100
2, 126640, Note_on_c, 0, 108, 0
2, 126720, Note_on_c, 0, 108, 100
2, 126800, Note_on_c, 0, 108, 0
2, 126960, Note_on_c, 0, 108, 100
2, 127040, Note_on_c, 0, 108, 0
2, 127200, Note_on_c, 0, 108, 100
2, 128078, Note_on_c, 0, 99, 100
2, 128158, Note_on_c, 0, 99, 0
2, 128158, Note_on_c, 0, 60, 100
2, 128158, Note_on_c, 0, 74, 100
2, 128158, Note_on_c, 0, 98, 100
2, 128160, Note_on_c, 0, 86, 100
2, 128238, Note_on_c, 0, 74, 0
2, 128238, Note_on_c, 0, 98, 0
2, 128238, Note_on_c, 0, 85, 100
2, 128238, Note_on_c, 0, 97, 100
2, 128240, Note_on_c, 0, 86, 0
2, 128314, Note_on_c, 0, 60, 0
2, 128318, Note_on_c, 0, 85, 0
2, 128318, Note_on_c, 0, 97, 0
2, 128318, Note_on_c, 0, 72, 100
2, 128318, Note_on_c, 0, 84, 100
2, 128318, Note_on_c, 0, 96, 100
2, 128476, Note_on_c, 0, 72, 0
2, 128476, Note_on_c, 0, 84, 0
2, 128476, Note_on_c, 0, 96, 0
2, 128478, Note_on_c, 0, 108, 0
2, 128638, Note_on_c, 0, 74, 100
2, 128638, Note_on_c, 0, 73, 100
2, 128638, Note_on_c, 0, 61, 100
2, 128638, Note_on_c, 0, 87, 100
2, 128638, Note_on_c, 0, 86, 100
2, 128638, Note_on_c, 0, 99, 100
2, 128638, Note_on_c, 0, 98, 100
2, 128640, Note_on_c, 0, 62, 100
2, 128758, Note_on_c, 0, 61, 0
2, 128760, Note_on_c, 0, 62, 0
2, 128794, Note_on_c, 0, 74, 0
2, 128794, Note_on_c, 0, 73, 0
2, 128794, Note_on_c, 0, 87, 0
2, 128794, Note_on_c, 0, 86, 0
2, 128794, Note_on_c, 0, 99, 0
2, 128794, Note_on_c, 0, 98, 0
2, 129278, Note_on_c, 0, 61, 100
2, 129278, Note_on_c, 0, 62, 100
2, 129278, Note_on_c, 0, 74, 100
2, 129278, Note_on_c, 0, 73, 100
2, 129278, Note_on_c, 0, 86, 100
2, 129278, Note_on_c, 0, 87, 100
2, 129278, Note_on_c, 0, 98, 100
2, 129278, Note_on_c, 0, 99, 100
2, 129436, Note_on_c, 0, 74, 0
2, 129436, Note_on_c, 0, 73, 0
2, 129436, Note_on_c, 0, 86, 0
2, 129436, Note_on_c, 0, 87, 0
2, 129436, Note_on_c, 0, 98, 0
2, 129436, Note_on_c, 0, 99, 0
2, 129440, Note_on_c, 0, 61, 0
2, 129440, Note_on_c, 0, 62, 0
2, 129598, Note_on_c, 0, 75, 100
2, 129598, Note_on_c, 0, 73, 100
2, 129598, Note_on_c, 0, 62, 100
2, 129598, Note_on_c, 0, 86, 100
2, 129598, Note_on_c, 0, 88, 100
2, 129598, Note_on_c, 0, 98, 100
2, 129598, Note_on_c, 0, 100, 100
2, 129754, Note_on_c, 0, 75, 0
2, 129754, Note_on_c, 0, 73, 0
2, 129754, Note_on_c, 0, 62, 0
2, 129754, Note_on_c, 0, 86, 0
2, 129754, Note_on_c, 0, 88, 0
2, 129754, Note_on_c, 0, 98, 0
2, 129754, Note_on_c, 0, 100, 0
2, 130050, Note_on_c, 0, 67, 100
2, 130050, Note_on_c, 0, 79, 100
2, 130050, Note_on_c, 0, 91, 100
2, 130050, Note_on_c, 0, 103, 100
2, 130078, Note_on_c, 0, 72, 100
2, 130078, Note_on_c, 0, 86, 100
2, 130078, Note_on_c, 0, 87, 100
2, 130078, Note_on_c, 0, 99, 100
2, 130078, Note_on_c, 0, 98, 100
2, 130080, Note_on_c, 0, 62, 100
2, 130080, Note_on_c, 0, 61, 100
2, 130234, Note_on_c, 0, 72, 0
2, 130234, Note_on_c, 0, 86, 0
2, 130234, Note_on_c, 0, 87, 0
2, 130234, Note_on_c, 0, 99, 0
2, 130234, Note_on_c, 0, 98, 0
2, 130238, Note_on_c, 0, 62, 0
2, 130238, Note_on_c, 0, 61, 0
2, 130238, Note_on_c, 0, 84, 100
2, 130238, Note_on_c, 0, 96, 100
2, 130396, Note_on_c, 0, 84, 0
2, 130396, Note_on_c, 0, 96, 0
2, 130560, Note_on_c, 0, 87, 100
2, 130560, Note_on_c, 0, 86, 100
2, 130560, Note_on_c, 0, 62, 100
2, 130560, Note_on_c, 0, 61, 100
2, 130560, Note_on_c, 0, 74, 100
2, 130560, Note_on_c, 0, 73, 100
2, 130560, Note_on_c, 0, 99, 100
2, 130560, Note_on_c, 0, 98, 100
2, 131120, Note_on_c, 0, 108, 100
2, 131680, Note_on_c, 0, 108, 0
2, 131840, Note_on_c, 0, 108, 100
2, 132000, Note_on_c, 0, 108, 0
2, 132080, Note_on_c, 0, 108, 100
2, 132160, Note_on_c, 0, 108, 0
2, 132240, Note_on_c, 0, 108, 100
2, 132400, Note_on_c, 0, 108, 0
2, 132560, Note_on_c, 0, 87, 0
2, 132560, Note_on_c, 0, 86, 0
2, 132560, Note_on_c, 0, 62, 0
2, 132560, Note_on_c, 0, 61, 0
2, 132560, Note_on_c, 0, 74, 0
2, 132560, Note_on_c, 0, 73, 0
2, 132560, Note_on_c, 0, 99, 0
2, 132560, Note_on_c, 0, 98, 0
2, 132560, Note_on_c, 0, 108, 100
2, 132690, Note_on_c, 0, 67, 0
2, 132690, Note_on_c, 0, 79, 0
2, 132690, Note_on_c, 0, 91, 0
2, 132690, Note_on_c, 0, 103, 0
2, 132880, Note_on_c, 0, 108, 0
2, 132960, Note_on_c, 0, 108, 100
2, 133200, Note_on_c, 0, 108, 0
2, 133280, Note_on_c, 0, 108, 100
2, 133360, Note_on_c, 0, 108, 0
2, 133440, Note_on_c, 0, 108, 100
2, 134370, Note_on_c, 0, 81, 0
2, 134370, Note_on_c, 0, 69, 0
2, 134370, Note_on_c, 0, 93, 0
2, 134370, Note_on_c, 0, 105, 0
2, 134400, Note_on_c, 0, 108, 0
2, 134400, Note_on_c, 0, 60, 100
2, 134400, Note_on_c, 0, 72, 100
2, 134400, Note_on_c, 0, 96, 100
2, 134400, Note_on_c, 0, 84, 100
2, 134480, Note_on_c, 0, 60, 0
2, 134480, Note_on_c, 0, 72, 0
2, 134480, Note_on_c, 0, 96, 0
2, 134480, Note_on_c, 0, 84, 0
2, 134520, Note_on_c, 0, 97, 100
2, 134520, Note_on_c, 0, 85, 100
2, 134600, Note_on_c, 0, 97, 0
2, 134600, Note_on_c, 0, 85, 0
2, 134640, Note_on_c, 0, 98, 100
2, 134640, Note_on_c, 0, 86, 100
2, 134720, Note_on_c, 0, 98, 0
2, 134720, Note_on_c, 0, 86, 0
2, 134720, Note_on_c, 0, 73, 100
2, 134720, Note_on_c, 0, 61, 100
2, 134760, Note_on_c, 0, 98, 100
2, 134760, Note_on_c, 0, 86, 100
2, 135360, Text_t, "sing_off"
2, 136240, Note_on_c, 0, 73, 0
2, 136240, Note_on_c, 0, 61, 0
2, 136320, Note_on_c, 0, 98, 0
2, 136320, Note_on_c, 0, 86, 0
2, 136320, Note_on_c, 0, 87, 100
2, 136320, Note_on_c, 0, 61, 100
2, 136320, Note_on_c, 0, 73, 100
2, 136320, Note_on_c, 0, 99, 100
2, 136400, Note_on_c, 0, 87, 0
2, 136400, Note_on_c, 0, 99, 0
2, 136400, Note_on_c, 0, 86, 100
2, 136440, Note_on_c, 0, 98, 100
2, 137250, Note_on_c, 0, 82, 0
2, 137250, Note_on_c, 0, 70, 0
2, 137250, Note_on_c, 0, 94, 0
2, 137250, Note_on_c, 0, 106, 0
2, 137250, Note_on_c, 0, 81, 100
2, 137250, Note_on_c, 0, 69, 100
2, 137250, Note_on_c, 0, 93, 100
2, 137250, Note_on_c, 0, 105, 100
2, 137280, Note_on_c, 0, 61, 0
2, 137280, Note_on_c, 0, 73, 0
2, 137280, Note_on_c, 0, 86, 0
2, 137280, Note_on_c, 0, 98, 0
2, 137280, Note_on_c, 0, 87, 100
2, 137280, Note_on_c, 0, 62, 100
2, 137280, Note_on_c, 0, 74, 100
2, 137280, Note_on_c, 0, 99, 100
2, 137440, Note_on_c, 0, 87, 0
2, 137440, Note_on_c, 0, 74, 0
2, 137440, Note_on_c, 0, 99, 0
2, 137440, Note_on_c, 0, 75, 100
2, 137440, Note_on_c, 0, 88, 100
2, 137440, Note_on_c, 0, 100, 100
2, 138160, Note_on_c, 0, 62, 0
2, 138240, Note_on_c, 0, 75, 0
2, 138240, Note_on_c, 0, 88, 0
2, 138240, Note_on_c, 0, 100, 0
2, 138240, Note_on_c, 0, 87, 100
2, 138240, Note_on_c, 0, 62, 100
2, 138240, Note_on_c, 0, 74, 100
2, 138240, Note_on_c, 0, 99, 100
2, 138320, Note_on_c, 0, 99, 0
2, 138360, Note_on_c, 0, 87, 0
2, 138360, Note_on_c, 0, 100, 100
2, 138400, Note_on_c, 0, 62, 0
2, 138400, Note_on_c, 0, 74, 0
2, 138440, Note_on_c, 0, 100, 0
2, 138600, Note_on_c, 0, 87, 100
2, 138600, Note_on_c, 0, 61, 100
2, 138600, Note_on_c, 0, 73, 100
2, 138600, Note_on_c, 0, 99, 100
2, 138706, Note_on_c, 0, 87, 0
2, 138706, Note_on_c, 0, 99, 0
2, 138720, Note_on_c, 0, 86, 100
2, 138720, Note_on_c, 0, 98, 100
2, 138880, Note_on_c, 0, 86, 0
2, 138880, Note_on_c, 0, 98, 0
2, 139160, Note_on_c, 0, 61, 0
2, 139160, Note_on_c, 0, 73, 0
2, 139170, Note_on_c, 0, 82, 100
2, 139170, Note_on_c, 0, 70, 100
2, 139170, Note_on_c, 0, 94, 100
2, 139170, Note_on_c, 0, 106, 100
2, 139200, Note_on_c, 0, 88, 100
2, 139200, Note_on_c, 0, 62, 100
2, 139200, Note_on_c, 0, 75, 100
2, 139200, Note_on_c, 0, 100, 100
2, 139280, Note_on_c, 0, 88, 0
2, 139280, Note_on_c, 0, 62, 0
2, 139280, Note_on_c, 0, 75, 0
2, 139320, Note_on_c, 0, 100, 0
2, 139360, Note_on_c, 0, 87, 100
2, 139360, Note_on_c, 0, 99, 100
2, 139440, Note_on_c, 0, 87, 0
2, 139480, Note_on_c, 0, 99, 0
2, 139520, Note_on_c, 0, 74, 100
2, 139520, Note_on_c, 0, 61, 100
2, 139520, Note_on_c, 0, 99, 100
2, 139520, Note_on_c, 0, 86, 100
2, 139600, Note_on_c, 0, 74, 0
2, 139600, Note_on_c, 0, 61, 0
2, 139600, Note_on_c, 0, 99, 0
2, 139600, Note_on_c, 0, 86, 0
2, 139600, Note_on_c, 0, 98, 100
2, 139680, Note_on_c, 0, 98, 0
2, 139680, Note_on_c, 0, 97, 100
2, 139720, Note_on_c, 0, 85, 100
2, 139760, Note_on_c, 0, 97, 0
2, 139760, Note_on_c, 0, 73, 100
2, 139760, Note_on_c, 0, 96, 100
2, 139800, Note_on_c, 0, 85, 0
2, 139800, Note_on_c, 0, 84, 100
2, 139840, Note_on_c, 0, 73, 0
2, 139840, Note_on_c, 0, 96, 0
2, 139880, Note_on_c, 0, 84, 0
2, 139880, Note_on_c, 0, 97, 100
2, 139880, Note_on_c, 0, 85, 100
2, 139960, Note_on_c, 0, 97, 0
2, 139960, Note_on_c, 0, 85, 0
2, 140000, Note_on_c, 0, 72, 100
2, 140000, Note_on_c, 0, 61, 100
2, 140000, Note_on_c, 0, 86, 100
2, 140000, Note_on_c, 0, 98, 100
2, 140080, Note_on_c, 0, 72, 0
2, 140080, Note_on_c, 0, 61, 0
2, 140080, Note_on_c, 0, 86, 0
2, 140082, Note_on_c, 0, 98, 0
2, 140160, Note_on_c, 0, 87, 100
2, 140160, Note_on_c, 0, 62, 100
2, 140160, Note_on_c, 0, 74, 100
2, 140160, Note_on_c, 0, 99, 100
2, 140320, Note_on_c, 0, 87, 0
2, 140320, Note_on_c, 0, 62, 0
2, 140320, Note_on_c, 0, 74, 0
2, 140322, Note_on_c, 0, 99, 0
2, 140400, Note_on_c, 0, 73, 100
2, 140400, Note_on_c, 0, 100, 100
2, 140400, Note_on_c, 0, 88, 100
2, 140480, Note_on_c, 0, 73, 0
2, 140480, Note_on_c, 0, 61, 100
2, 140508, Note_on_c, 0, 100, 0
2, 140508, Note_on_c, 0, 88, 0
2, 140520, Note_on_c, 0, 99, 100
2, 140520, Note_on_c, 0, 87, 100
2, 140560, Note_on_c, 0, 61, 0
2, 140560, Note_on_c, 0, 108, 100
2, 140920, Note_on_c, 0, 99, 0
2, 140920, Note_on_c, 0, 87, 0
2, 140960, Note_on_c, 0, 60, 100
2, 140960, Note_on_c, 0, 74, 100
2, 140960, Note_on_c, 0, 87, 100
2, 141000, Note_on_c, 0, 99, 100
2, 141040, Note_on_c, 0, 60, 0
2, 141040, Note_on_c, 0, 74, 0
2, 141040, Note_on_c, 0, 87, 0
2, 141040, Note_on_c, 0, 86, 100
2, 141080, Note_on_c, 0, 99, 0
2, 141080, Note_on_c, 0, 98, 100
2, 141120, Text_t, "sing_on"
2, 141120, Note_on_c, 0, 86, 0
2, 141120, Note_on_c, 0, 85, 100
2, 141160, Note_on_c, 0, 98, 0
2, 141160, Note_on_c, 0, 97, 100
2, 141200, Note_on_c, 0, 108, 0
2, 141200, Note_on_c, 0, 85, 0
2, 141200, Note_on_c, 0, 84, 100
2, 141240, Note_on_c, 0, 97, 0
2, 141240, Note_on_c, 0, 96, 100
2, 141280, Note_on_c, 0, 84, 0
2, 141320, Note_on_c, 0, 96, 0
2, 141360, Note_on_c, 0, 108, 100
2, 141840, Note_on_c, 0, 108, 0
2, 142080, Note_on_c, 0, 108, 100
2, 142160, Note_on_c, 0, 108, 0
2, 142320, Note_on_c, 0, 108, 100
2, 142400, Note_on_c, 0, 108, 0
2, 142560, Note_on_c, 0, 108, 100
2, 142640, Note_on_c, 0, 108, 0
2, 142800, Note_on_c, 0, 108, 100
2, 142880, Note_on_c, 0, 108, 0
2, 143040, Note_on_c, 0, 108, 100
2, 143200, Note_on_c, 0, 108, 0
2, 143280, Note_on_c, 0, 108, 100
2, 143600, Note_on_c, 0, 108, 0
2, 143640, Note_on_c, 0, 108, 100
2, 143960, Note_on_c, 0, 108, 0
2, 144000, Note_on_c, 0, 108, 100
2, 144360, Note_on_c, 0, 108, 0
2, 144480, Note_on_c, 0, 108, 100
2, 144720, Note_on_c, 0, 108, 0
2, 144960, Note_on_c, 0, 88, 100
2, 144960, Note_on_c, 0, 87, 100
2, 144960, Note_on_c, 0, 62, 100
2, 144960, Note_on_c, 0, 75, 100
2, 144960, Note_on_c, 0, 100, 100
2, 144960, Note_on_c, 0, 99, 100
2, 145040, Note_on_c, 0, 88, 0
2, 145040, Note_on_c, 0, 87, 0
2, 145040, Note_on_c, 0, 62, 0
2, 145040, Note_on_c, 0, 75, 0
2, 145040, Note_on_c, 0, 100, 0
2, 145040, Note_on_c, 0, 99, 0
2, 145600, Note_on_c, 0, 72, 100
2, 145600, Note_on_c, 0, 60, 100
2, 145600, Note_on_c, 0, 84, 100
2, 145600, Note_on_c, 0, 96, 100
2, 145680, Note_on_c, 0, 72, 0
2, 145680, Note_on_c, 0, 60, 0
2, 145680, Note_on_c, 0, 84, 0
2, 145680, Note_on_c, 0, 96, 0
2, 145920, Note_on_c, 0, 86, 100
2, 145920, Note_on_c, 0, 87, 100
2, 145920, Note_on_c, 0, 61, 100
2, 145920, Note_on_c, 0, 62, 100
2, 145920, Note_on_c, 0, 73, 100
2, 145920, Note_on_c, 0, 74, 100
2, 145920, Note_on_c, 0, 98, 100
2, 145920, Note_on_c, 0, 99, 100
2, 147040, Note_on_c, 0, 108, 100
2, 147170, Note_on_c, 0, 81, 0
2, 147170, Note_on_c, 0, 69, 0
2, 147170, Note_on_c, 0, 93, 0
2, 147170, Note_on_c, 0, 105, 0
2, 147200, Note_on_c, 0, 86, 0
2, 147200, Note_on_c, 0, 87, 0
2, 147200, Note_on_c, 0, 61, 0
2, 147200, Note_on_c, 0, 62, 0
2, 147200, Note_on_c, 0, 73, 0
2, 147200, Note_on_c, 0, 74, 0
2, 147200, Note_on_c, 0, 98, 0
2, 147200, Note_on_c, 0, 99, 0
2, 147200, Note_on_c, 0, 108, 0
2, 147360, Note_on_c, 0, 108, 100
2, 147440, Note_on_c, 0, 108, 0
2, 147520, Note_on_c, 0, 108, 100
2, 147680, Note_on_c, 0, 108, 0
2, 147840, Note_on_c, 0, 108, 100
2, 148000, Note_on_c, 0, 108, 0
2, 148080, Note_on_c, 0, 108, 100
2, 148160, Note_on_c, 0, 108, 0
2, 148240, Note_on_c, 0, 108, 100
2, 148320, Note_on_c, 0, 108, 0
2, 148480, Note_on_c, 0, 108, 100
2, 148640, Note_on_c, 0, 108, 0
2, 148800, Note_on_c, 0, 108, 100
2, 148960, Note_on_c, 0, 108, 0
2, 149040, Note_on_c, 0, 108, 100
2, 149200, Note_on_c, 0, 108, 0
2, 149280, Note_on_c, 0, 108, 100
2, 149760, Note_on_c, 0, 84, 100
2, 149760, Note_on_c, 0, 60, 100
2, 149760, Note_on_c, 0, 73, 100
2, 149760, Note_on_c, 0, 96, 100
2, 149880, Note_on_c, 0, 84, 0
2, 149880, Note_on_c, 0, 60, 0
2, 149880, Note_on_c, 0, 73, 0
2, 149880, Note_on_c, 0, 96, 0
2, 149880, Note_on_c, 0, 85, 100
2, 149880, Note_on_c, 0, 97, 100
2, 150000, Note_on_c, 0, 85, 0
2, 150000, Note_on_c, 0, 97, 0
2, 150000, Note_on_c, 0, 86, 100
2, 150000, Note_on_c, 0, 98, 100
2, 150080, Note_on_c, 0, 108, 0
2, 150080, Note_on_c, 0, 86, 0
2, 150080, Note_on_c, 0, 98, 0
2, 150120, Note_on_c, 0, 86, 100
2, 150120, Note_on_c, 0, 61, 100
2, 150120, Note_on_c, 0, 74, 100
2, 150120, Note_on_c, 0, 98, 100
2, 150680, Note_on_c, 0, 61, 0
2, 150680, Note_on_c, 0, 74, 0
2, 150720, Note_on_c, 0, 86, 0
2, 150720, Note_on_c, 0, 98, 0
2, 150840, Note_on_c, 0, 99, 100
2, 150840, Note_on_c, 0, 87, 100
2, 150840, Note_on_c, 0, 75, 100
2, 150840, Note_on_c, 0, 61, 100
2, 150920, Note_on_c, 0, 99, 0
2, 150920, Note_on_c, 0, 87, 0
2, 150920, Note_on_c, 0, 75, 0
2, 150920, Note_on_c, 0, 61, 0
2, 150960, Note_on_c, 0, 98, 100
2, 151000, Note_on_c, 0, 86, 100
2, 151000, Note_on_c, 0, 74, 100
2, 151040, Note_on_c, 0, 98, 0
2, 151080, Note_on_c, 0, 86, 0
2, 151080, Note_on_c, 0, 100, 100
2, 151120, Note_on_c, 0, 74, 0
2, 151120, Note_on_c, 0, 62, 100
2, 151160, Note_on_c, 0, 88, 100
2, 151160, Note_on_c, 0, 75, 100
2, 151680, Note_on_c, 0, 75, 0
2, 151720, Note_on_c, 0, 62, 0
2, 151760, Note_on_c, 0, 88, 0
2, 151800, Note_on_c, 0, 100, 0
2, 151840, Note_on_c, 0, 98, 100
2, 151840, Note_on_c, 0, 62, 100
2, 151840, Note_on_c, 0, 75, 100
2, 151840, Note_on_c, 0, 87, 100
2, 151920, Note_on_c, 0, 98, 0
2, 151920, Note_on_c, 0, 75, 0
2, 151920, Note_on_c, 0, 87, 0
2, 151920, Note_on_c, 0, 99, 100
2, 152000, Note_on_c, 0, 62, 0
2, 152000, Note_on_c, 0, 99, 0
2, 152040, Note_on_c, 0, 87, 100
2, 152040, Note_on_c, 0, 75, 100
2, 152080, Note_on_c, 0, 99, 100
2, 152120, Note_on_c, 0, 87, 0
2, 152120, Note_on_c, 0, 75, 0
2, 152120, Note_on_c, 0, 61, 100
2, 152160, Note_on_c, 0, 99, 0
2, 152160, Note_on_c, 0, 86, 100
2, 152160, Note_on_c, 0, 74, 100
2, 152160, Note_on_c, 0, 98, 100
2, 152200, Note_on_c, 0, 61, 0
2, 152640, Note_on_c, 0, 86, 0
2, 152640, Note_on_c, 0, 74, 0
2, 152640, Note_on_c, 0, 98, 0
2, 152640, Note_on_c, 0, 86, 100
2, 152640, Note_on_c, 0, 61, 100
2, 152640, Note_on_c, 0, 74, 100
2, 152640, Note_on_c, 0, 98, 100
2, 153200, Note_on_c, 0, 86, 0
2, 153200, Note_on_c, 0, 61, 0
2, 153200, Note_on_c, 0, 74, 0
2, 153200, Note_on_c, 0, 98, 0
2, 153250, Note_on_c, 0, 82, 0
2, 153250, Note_on_c, 0, 70, 0
2, 153250, Note_on_c, 0, 94, 0
2, 153250, Note_on_c, 0, 106, 0
2, 153250, Note_on_c, 0, 81, 100
2, 153250, Note_on_c, 0, 69, 100
2, 153250, Note_on_c, 0, 93, 100
2, 153250, Note_on_c, 0, 105, 100
2, 153360, Note_on_c, 0, 98, 100
2, 153360, Note_on_c, 0, 86, 100
2, 153360, Note_on_c, 0, 74, 100
2, 153360, Note_on_c, 0, 61, 100
2, 153480, Note_on_c, 0, 98, 0
2, 153480, Note_on_c, 0, 86, 0
2, 153480, Note_on_c, 0, 74, 0
2, 153480, Note_on_c, 0, 61, 0
2, 153480, Note_on_c, 0, 98, 100
2, 153480, Note_on_c, 0, 86, 100
2, 153600, Note_on_c, 0, 98, 0
2, 153600, Note_on_c, 0, 86, 0
2, 153600, Note_on_c, 0, 87, 100
2, 153600, Note_on_c, 0, 75, 100
2, 153600, Note_on_c, 0, 99, 100
2, 153600, Note_on_c, 0, 61, 100
2, 153760, Note_on_c, 0, 87, 0
2, 153760, Note_on_c, 0, 75, 0
2, 153760, Note_on_c, 0, 99, 0
2, 153760, Note_on_c, 0, 74, 100
2, 153760, Note_on_c, 0, 86, 100
2, 153760, Note_on_c, 0, 98, 100
2, 153880, Note_on_c, 0, 74, 0
2, 153880, Note_on_c, 0, 86, 0
2, 153880, Note_on_c, 0, 98, 0
2, 154160, Note_on_c, 0, 61, 0
2, 154240, Note_on_c, 0, 74, 100
2, 154240, Note_on_c, 0, 61, 100
2, 154240, Note_on_c, 0, 86, 100
2, 154240, Note_on_c, 0, 98, 100
2, 154400, Note_on_c, 0, 74, 0
2, 154400, Note_on_c, 0, 61, 0
2, 154400, Note_on_c, 0, 86, 0
2, 154400, Note_on_c, 0, 98, 0
2, 154400, Note_on_c, 0, 86, 100
2, 154400, Note_on_c, 0, 98, 100
2, 154560, Note_on_c, 0, 86, 0
2, 154560, Note_on_c, 0, 98, 0
2, 154560, Note_on_c, 0, 87, 100
2, 154560, Note_on_c, 0, 62, 100
2, 154560, Note_on_c, 0, 75, 100
2, 154560, Note_on_c, 0, 99, 100
2, 154720, Note_on_c, 0, 87, 0
2, 154720, Note_on_c, 0, 62, 0
2, 154720, Note_on_c, 0, 75, 0
2, 154720, Note_on_c, 0, 99, 0
2, 154880, Note_on_c, 0, 74, 100
2, 154880, Note_on_c, 0, 61, 100
2, 154880, Note_on_c, 0, 86, 100
2, 154880, Note_on_c, 0, 98, 100
2, 155040, Note_on_c, 0, 74, 0
2, 155040, Note_on_c, 0, 61, 0
2, 155040, Note_on_c, 0, 86, 0
2, 155040, Note_on_c, 0, 98, 0
2, 155200, Note_on_c, 0, 72, 100
2, 155200, Note_on_c, 0, 60, 100
2, 155200, Note_on_c, 0, 84, 100
2, 155200, Note_on_c, 0, 96, 100
2, 155360, Note_on_c, 0, 72, 0
2, 155360, Note_on_c, 0, 60, 0
2, 155360, Note_on_c, 0, 84, 0
2, 155360, Note_on_c, 0, 96, 0
2, 155520, Note_on_c, 0, 85, 100
2, 155520, Note_on_c, 0, 61, 100
2, 155520, Note_on_c, 0, 73, 100
2, 155520, Note_on_c, 0, 97, 100
2, 155680, Note_on_c, 0, 85, 0
2, 155680, Note_on_c, 0, 61, 0
2, 155680, Note_on_c, 0, 73, 0
2, 155680, Note_on_c, 0, 97, 0
2, 156130, Note_on_c, 0, 81, 0
2, 156130, Note_on_c, 0, 69, 0
2, 156130, Note_on_c, 0, 93, 0
2, 156130, Note_on_c, 0, 105, 0
2, 156130, Note_on_c, 0, 82, 100
2, 156130, Note_on_c, 0, 70, 100
2, 156130, Note_on_c, 0, 94, 100
2, 156130, Note_on_c, 0, 106, 100
2, 156160, Note_on_c, 0, 73, 100
2, 156160, Note_on_c, 0, 61, 100
2, 156160, Note_on_c, 0, 86, 100
2, 156160, Note_on_c, 0, 98, 100
2, 156320, Note_on_c, 0, 73, 0
2, 156320, Note_on_c, 0, 61, 0
2, 156320, Note_on_c, 0, 86, 0
2, 156320, Note_on_c, 0, 98, 0
2, 156320, Note_on_c, 0, 86, 100
2, 156320, Note_on_c, 0, 98, 100
2, 156480, Text_t, "drum_allbeat"
2, 156480, Note_on_c, 0, 86, 0
2, 156480, Note_on_c, 0, 98, 0
2, 156480, Note_on_c, 0, 87, 100
2, 156480, Note_on_c, 0, 62, 100
2, 156480, Note_on_c, 0, 74, 100
2, 156480, Note_on_c, 0, 99, 100
2, 156640, Note_on_c, 0, 87, 0
2, 156640, Note_on_c, 0, 62, 0
2, 156640, Note_on_c, 0, 74, 0
2, 156640, Note_on_c, 0, 99, 0
2, 156640, Note_on_c, 0, 75, 100
2, 156640, Note_on_c, 0, 88, 100
2, 156640, Note_on_c, 0, 100, 100
2, 156800, Note_on_c, 0, 75, 0
2, 156800, Note_on_c, 0, 88, 0
2, 156800, Note_on_c, 0, 100, 0
2, 157120, Note_on_c, 0, 75, 100
2, 157120, Note_on_c, 0, 62, 100
2, 157120, Note_on_c, 0, 88, 100
2, 157120, Note_on_c, 0, 100, 100
2, 157280, Note_on_c, 0, 75, 0
2, 157280, Note_on_c, 0, 62, 0
2, 157280, Note_on_c, 0, 88, 0
2, 157280, Note_on_c, 0, 100, 0
2, 157440, Text_t, "solo_on"
2, 157440, Note_on_c, 0, 88, 100
2, 157440, Note_on_c, 0, 62, 100
2, 157440, Note_on_c, 0, 75, 100
2, 157440, Note_on_c, 0, 100, 100
2, 157560, Note_on_c, 0, 100, 0
2, 157560, Note_on_c, 0, 99, 100
2, 157600, Note_on_c, 0, 88, 0
2, 157600, Note_on_c, 0, 62, 0
2, 157600, Note_on_c, 0, 75, 0
2, 157640, Note_on_c, 0, 99, 0
2, 157680, Note_on_c, 0, 98, 100
2, 157680, Note_on_c, 0, 87, 100
2, 157760, Note_on_c, 0, 98, 0
2, 157760, Note_on_c, 0, 87, 0
2, 157800, Note_on_c, 0, 74, 100
2, 157800, Note_on_c, 0, 61, 100
2, 157800, Note_on_c, 0, 97, 100
2, 157800, Note_on_c, 0, 86, 100
2, 157880, Note_on_c, 0, 61, 0
2, 158280, Note_on_c, 0, 74, 0
2, 158360, Note_on_c, 0, 97, 0
2, 158360, Note_on_c, 0, 86, 0
2, 158400, Text_t, "drum_normal"
2, 158400, Text_t, "[solo]"
2, 158400, Note_on_c, 0, 86, 100
2, 158400, Note_on_c, 0, 61, 100
2, 158400, Note_on_c, 0, 74, 100
2, 158400, Note_on_c, 0, 97, 100
2, 158560, Note_on_c, 0, 61, 0
2, 158880, Note_on_c, 0, 74, 0
2, 158960, Note_on_c, 0, 86, 0
2, 158960, Note_on_c, 0, 97, 0
2, 159040, Note_on_c, 0, 74, 100
2, 159040, Note_on_c, 0, 61, 100
2, 159040, Note_on_c, 0, 86, 100
2, 159040, Note_on_c, 0, 97, 100
2, 159200, Note_on_c, 0, 74, 0
2, 159200, Note_on_c, 0, 61, 0
2, 159200, Note_on_c, 0, 86, 0
2, 159200, Note_on_c, 0, 97, 0
2, 159200, Note_on_c, 0, 74, 100
2, 159200, Note_on_c, 0, 86, 100
2, 159200, Note_on_c, 0, 97, 100
2, 159360, Note_on_c, 0, 74, 0
2, 159360, Note_on_c, 0, 86, 0
2, 159360, Note_on_c, 0, 97, 0
2, 159360, Note_on_c, 0, 87, 100
2, 159360, Note_on_c, 0, 62, 100
2, 159360, Note_on_c, 0, 75, 100
2, 159360, Note_on_c, 0, 99, 100
2, 159960, Note_on_c, 0, 87, 0
2, 159960, Note_on_c, 0, 62, 0
2, 159960, Note_on_c, 0, 75, 0
2, 159960, Note_on_c, 0, 99, 0
2, 160000, Note_on_c, 0, 60, 100
2, 160000, Note_on_c, 0, 100, 100
2, 160000, Note_on_c, 0, 88, 100
2, 160000, Note_on_c, 0, 74, 100
2, 160160, Note_on_c, 0, 60, 0
2, 160160, Note_on_c, 0, 100, 0
2, 160160, Note_on_c, 0, 88, 0
2, 160160, Note_on_c, 0, 74, 0
2, 161730, Note_on_c, 0, 82, 0
2, 161730, Note_on_c, 0, 70, 0
2, 161730, Note_on_c, 0, 94, 0
2, 161730, Note_on_c, 0, 106, 0
2, 161890, Note_on_c, 0, 81, 100
2, 161890, Note_on_c, 0, 69, 100
2, 161890, Note_on_c, 0, 93, 100
2, 161890, Note_on_c, 0, 105, 100
2, 161920, Note_on_c, 0, 73, 100
2, 161920, Note_on_c, 0, 61, 100
2, 161920, Note_on_c, 0, 86, 100
2, 161920, Note_on_c, 0, 98, 100
2, 162080, Note_on_c, 0, 73, 0
2, 162080, Note_on_c, 0, 61, 0
2, 162080, Note_on_c, 0, 86, 0
2, 162080, Note_on_c, 0, 98, 0
2, 162080, Note_on_c, 0, 86, 100
2, 162080, Note_on_c, 0, 98, 100
2, 162240, Note_on_c, 0, 86, 0
2, 162240, Note_on_c, 0, 98, 0
2, 162240, Note_on_c, 0, 87, 100
2, 162240, Note_on_c, 0, 74, 100
2, 162240, Note_on_c, 0, 62, 100
2, 162240, Note_on_c, 0, 99, 100
2, 162400, Note_on_c, 0, 87, 0
2, 162400, Note_on_c, 0, 74, 0
2, 162400, Note_on_c, 0, 99, 0
2, 162400, Note_on_c, 0, 75, 100
2, 162400, Note_on_c, 0, 88, 100
2, 162400, Note_on_c, 0, 100, 100
2, 163120, Note_on_c, 0, 62, 0
2, 163120, Note_on_c, 0, 75, 0
2, 163120, Note_on_c, 0, 88, 0
2, 163120, Note_on_c, 0, 100, 0
2, 163200, Note_on_c, 0, 88, 100
2, 163200, Note_on_c, 0, 62, 100
2, 163200, Note_on_c, 0, 75, 100
2, 163200, Note_on_c, 0, 100, 100
2, 163360, Note_on_c, 0, 88, 0
2, 163360, Note_on_c, 0, 62, 0
2, 163360, Note_on_c, 0, 75, 0
2, 163360, Note_on_c, 0, 100, 0
2, 163520, Note_on_c, 0, 87, 100
2, 163520, Note_on_c, 0, 99, 100
2, 163600, Note_on_c, 0, 87, 0
2, 163600, Note_on_c, 0, 99, 0
2, 163680, Note_on_c, 0, 86, 100
2, 163680, Note_on_c, 0, 74, 100
2, 163680, Note_on_c, 0, 61, 100
2, 163680, Note_on_c, 0, 98, 100
2, 164040, Note_on_c, 0, 86, 0
2, 164040, Note_on_c, 0, 74, 0
2, 164040, Note_on_c, 0, 61, 0
2, 164040, Note_on_c, 0, 98, 0
2, 164160, Note_on_c, 0, 86, 100
2, 164160, Note_on_c, 0, 61, 100
2, 164160, Note_on_c, 0, 74, 100
2, 164160, Note_on_c, 0, 98, 100
2, 164240, Note_on_c, 0, 86, 0
2, 164240, Note_on_c, 0, 61, 0
2, 164240, Note_on_c, 0, 74, 0
2, 164240, Note_on_c, 0, 98, 0
2, 164800, Note_on_c, 0, 74, 100
2, 164800, Note_on_c, 0, 61, 100
2, 164800, Note_on_c, 0, 86, 100
2, 164800, Note_on_c, 0, 98, 100
2, 164880, Note_on_c, 0, 74, 0
2, 164880, Note_on_c, 0, 61, 0
2, 164880, Note_on_c, 0, 86, 0
2, 164880, Note_on_c, 0, 98, 0
2, 164960, Note_on_c, 0, 86, 100
2, 164960, Note_on_c, 0, 98, 100
2, 165120, Note_on_c, 0, 86, 0
2, 165120, Note_on_c, 0, 98, 0
2, 165120, Note_on_c, 0, 88, 100
2, 165120, Note_on_c, 0, 62, 100
2, 165120, Note_on_c, 0, 75, 100
2, 165120, Note_on_c, 0, 100, 100
2, 165280, Note_on_c, 0, 88, 0
2, 165280, Note_on_c, 0, 62, 0
2, 165280, Note_on_c, 0, 75, 0
2, 165280, Note_on_c, 0, 100, 0
2, 165440, Note_on_c, 0, 75, 100
2, 165440, Note_on_c, 0, 62, 100
2, 165440, Note_on_c, 0, 88, 100
2, 165440, Note_on_c, 0, 100, 100
2, 166720, Note_on_c, 0, 75, 0
2, 166720, Note_on_c, 0, 62, 0
2, 166720, Note_on_c, 0, 88, 0
2, 166720, Note_on_c, 0, 100, 0
2, 167360, Note_on_c, 0, 75, 100
2, 167360, Note_on_c, 0, 62, 100
2, 167360, Note_on_c, 0, 88, 100
2, 167360, Note_on_c, 0, 100, 100
2, 167920, Note_on_c, 0, 75, 0
2, 167920, Note_on_c, 0, 62, 0
2, 168000, Note_on_c, 0, 88, 0
2, 168000, Note_on_c, 0, 100, 0
2, 168000, Note_on_c, 0, 87, 100
2, 168000, Note_on_c, 0, 61, 100
2, 168000, Note_on_c, 0, 74, 100
2, 168000, Note_on_c, 0, 99, 100
2, 168800, Note_on_c, 0, 87, 0
2, 168800, Note_on_c, 0, 61, 0
2, 168800, Note_on_c, 0, 74, 0
2, 168800, Note_on_c, 0, 99, 0
2, 168880, Note_on_c, 0, 73, 100
2, 168880, Note_on_c, 0, 60, 100
2, 168880, Note_on_c, 0, 86, 100
2, 168880, Note_on_c, 0, 98, 100
2, 168960, Note_on_c, 0, 86, 0
2, 168960, Note_on_c, 0, 98, 0
2, 168960, Note_on_c, 0, 85, 100
2, 168960, Note_on_c, 0, 97, 100
2, 169480, Note_on_c, 0, 73, 0
2, 169480, Note_on_c, 0, 60, 0
2, 169520, Note_on_c, 0, 85, 0
2, 169520, Note_on_c, 0, 97, 0
2, 169570, Note_on_c, 0, 82, 100
2, 169570, Note_on_c, 0, 70, 100
2, 169570, Note_on_c, 0, 94, 100
2, 169570, Note_on_c, 0, 106, 100
2, 169600, Note_on_c, 0, 72, 100
2, 169600, Note_on_c, 0, 60, 100
2, 169600, Note_on_c, 0, 84, 100
2, 169600, Note_on_c, 0, 96, 100
2, 169760, Note_on_c, 0, 72, 0
2, 169760, Note_on_c, 0, 60, 0
2, 169760, Note_on_c, 0, 84, 0
2, 169760, Note_on_c, 0, 96, 0
2, 169760, Note_on_c, 0, 84, 100
2, 169760, Note_on_c, 0, 96, 100
2, 169920, Note_on_c, 0, 84, 0
2, 169920, Note_on_c, 0, 96, 0
2, 169920, Note_on_c, 0, 85, 100
2, 169920, Note_on_c, 0, 61, 100
2, 169920, Note_on_c, 0, 73, 100
2, 169920, Note_on_c, 0, 97, 100
2, 170480, Note_on_c, 0, 85, 0
2, 170480, Note_on_c, 0, 61, 0
2, 170480, Note_on_c, 0, 73, 0
2, 170480, Note_on_c, 0, 97, 0
2, 170560, Note_on_c, 0, 74, 100
2, 170560, Note_on_c, 0, 61, 100
2, 170560, Note_on_c, 0, 86, 100
2, 170560, Note_on_c, 0, 98, 100
2, 171120, Note_on_c, 0, 74, 0
2, 171120, Note_on_c, 0, 61, 0
2, 171120, Note_on_c, 0, 86, 0
2, 171120, Note_on_c, 0, 98, 0
2, 171200, Note_on_c, 0, 74, 100
2, 171200, Note_on_c, 0, 61, 100
2, 171200, Note_on_c, 0, 87, 100
2, 171200, Note_on_c, 0, 99, 100
2, 171760, Note_on_c, 0, 74, 0
2, 171760, Note_on_c, 0, 61, 0
2, 171760, Note_on_c, 0, 87, 0
2, 171760, Note_on_c, 0, 99, 0
2, 171840, Text_t, "drum_allbeat"
2, 171840, Note_on_c, 0, 88, 100
2, 171840, Note_on_c, 0, 62, 100
2, 171840, Note_on_c, 0, 75, 100
2, 171840, Note_on_c, 0, 100, 100
2, 172000, Note_on_c, 0, 88, 0
2, 172000, Note_on_c, 0, 62, 0
2, 172000, Note_on_c, 0, 75, 0
2, 172000, Note_on_c, 0, 100, 0
2, 172160, Note_on_c, 0, 75, 100
2, 172160, Note_on_c, 0, 62, 100
2, 172160, Note_on_c, 0, 88, 100
2, 172160, Note_on_c, 0, 100, 100
2, 172720, Note_on_c, 0, 75, 0
2, 172720, Note_on_c, 0, 62, 0
2, 172720, Note_on_c, 0, 88, 0
2, 172720, Note_on_c, 0, 100, 0
2, 172800, Note_on_c, 0, 87, 100
2, 172800, Note_on_c, 0, 62, 100
2, 172800, Note_on_c, 0, 74, 100
2, 172800, Note_on_c, 0, 99, 100
2, 172960, Note_on_c, 0, 87, 0
2, 172960, Note_on_c, 0, 62, 0
2, 172960, Note_on_c, 0, 74, 0
2, 172960, Note_on_c, 0, 99, 0
2, 173120, Note_on_c, 0, 61, 100
2, 173120, Note_on_c, 0, 73, 100
2, 173120, Note_on_c, 0, 86, 100
2, 173120, Note_on_c, 0, 98, 100
2, 173280, Note_on_c, 0, 73, 0
2, 173280, Note_on_c, 0, 86, 0
2, 173280, Note_on_c, 0, 98, 0
2, 173280, Note_on_c, 0, 85, 100
2, 173280, Note_on_c, 0, 72, 100
2, 173280, Note_on_c, 0, 97, 100
2, 173760, Text_t, "drum_normal"
2, 174050, Note_on_c, 0, 81, 0
2, 174050, Note_on_c, 0, 69, 0
2, 174050, Note_on_c, 0, 93, 0
2, 174050, Note_on_c, 0, 105, 0
2, 174080, Note_on_c, 0, 61, 0
2, 174080, Note_on_c, 0, 85, 0
2, 174080, Note_on_c, 0, 72, 0
2, 174080, Note_on_c, 0, 97, 0
2, 174360, Note_on_c, 0, 96, 100
2, 174360, Note_on_c, 0, 86, 100
2, 174360, Note_on_c, 0, 73, 100
2, 174360, Note_on_c, 0, 60, 100
2, 174520, Note_on_c, 0, 96, 0
2, 174520, Note_on_c, 0, 86, 0
2, 174520, Note_on_c, 0, 73, 0
2, 174520, Note_on_c, 0, 60, 0
2, 174600, Note_on_c, 0, 98, 100
2, 174600, Note_on_c, 0, 87, 100
2, 174680, Note_on_c, 0, 98, 0
2, 174680, Note_on_c, 0, 87, 0
2, 174720, Note_on_c, 0, 62, 100
2, 174720, Note_on_c, 0, 75, 100
2, 174720, Note_on_c, 0, 100, 100
2, 174720, Note_on_c, 0, 88, 100
2, 174880, Note_on_c, 0, 62, 0
2, 174880, Note_on_c, 0, 75, 0
2, 174880, Note_on_c, 0, 100, 0
2, 174880, Note_on_c, 0, 88, 0
2, 174960, Note_on_c, 0, 99, 100
2, 174960, Note_on_c, 0, 87, 100
2, 175040, Note_on_c, 0, 99, 0
2, 175040, Note_on_c, 0, 87, 0
2, 175040, Note_on_c, 0, 74, 100
2, 175040, Note_on_c, 0, 61, 100
2, 175080, Note_on_c, 0, 98, 100
2, 175080, Note_on_c, 0, 86, 100
2, 175120, Note_on_c, 0, 74, 0
2, 175120, Note_on_c, 0, 61, 0
2, 175160, Note_on_c, 0, 98, 0
2, 175160, Note_on_c, 0, 86, 0
2, 175200, Note_on_c, 0, 97, 100
2, 175200, Note_on_c, 0, 85, 100
2, 175280, Note_on_c, 0, 97, 0
2, 175280, Note_on_c, 0, 85, 0
2, 175320, Note_on_c, 0, 99, 100
2, 175320, Note_on_c, 0, 87, 100
2, 175360, Note_on_c, 0, 74, 100
2, 175360, Note_on_c, 0, 61, 100
2, 175400, Note_on_c, 0, 99, 0
2, 175400, Note_on_c, 0, 87, 0
2, 175440, Note_on_c, 0, 74, 0
2, 175440, Note_on_c, 0, 61, 0
2, 175440, Note_on_c, 0, 98, 100
2, 175440, Note_on_c, 0, 86, 100
2, 175520, Note_on_c, 0, 98, 0
2, 175520, Note_on_c, 0, 86, 0
2, 175560, Note_on_c, 0, 97, 100
2, 175560, Note_on_c, 0, 85, 100
2, 175640, Note_on_c, 0, 97, 0
2, 175640, Note_on_c, 0, 85, 0
2, 175680, Note_on_c, 0, 60, 100
2, 175680, Note_on_c, 0, 74, 100
2, 175680, Note_on_c, 0, 86, 100
2, 175680, Note_on_c, 0, 96, 100
2, 175740, Note_on_c, 0, 96, 0
2, 175740, Note_on_c, 0, 98, 100
2, 175760, Note_on_c, 0, 60, 0
2, 175760, Note_on_c, 0, 74, 0
2, 175760, Note_on_c, 0, 86, 0
2, 175820, Note_on_c, 0, 98, 0
2, 175840, Note_on_c, 0, 85, 100
2, 175860, Note_on_c, 0, 97, 100
2, 175920, Note_on_c, 0, 85, 0
2, 175920, Note_on_c, 0, 84, 100
2, 175940, Note_on_c, 0, 97, 0
2, 175980, Note_on_c, 0, 96, 100
2, 176000, Note_on_c, 0, 84, 0
2, 176000, Note_on_c, 0, 73, 100
2, 176000, Note_on_c, 0, 85, 100
2, 176060, Note_on_c, 0, 96, 0
2, 176080, Note_on_c, 0, 73, 0
2, 176080, Note_on_c, 0, 85, 0
2, 176160, Note_on_c, 0, 61, 100
2, 176160, Note_on_c, 0, 98, 100
2, 176160, Note_on_c, 0, 86, 100
2, 176240, Note_on_c, 0, 61, 0
2, 176280, Note_on_c, 0, 98, 0
2, 176280, Note_on_c, 0, 99, 100
2, 176320, Note_on_c, 0, 74, 100
2, 176400, Note_on_c, 0, 74, 0
2, 176520, Note_on_c, 0, 99, 0
2, 176560, Note_on_c, 0, 86, 0
2, 176560, Note_on_c, 0, 100, 100
2, 176560, Note_on_c, 0, 87, 100
2, 176640, Note_on_c, 0, 100, 0
2, 176640, Note_on_c, 0, 87, 0
2, 176640, Note_on_c, 0, 60, 100
2, 176640, Note_on_c, 0, 73, 100
2, 176640, Note_on_c, 0, 97, 100
2, 176640, Note_on_c, 0, 85, 100
2, 176720, Note_on_c, 0, 60, 0
2, 176720, Note_on_c, 0, 73, 0
2, 176720, Note_on_c, 0, 97, 0
2, 176720, Note_on_c, 0, 85, 0
2, 176770, Note_on_c, 0, 82, 0
2, 176770, Note_on_c, 0, 70, 0
2, 176770, Note_on_c, 0, 94, 0
2, 176770, Note_on_c, 0, 106, 0
2, 177090, Note_on_c, 0, 81, 100
2, 177090, Note_on_c, 0, 69, 100
2, 177090, Note_on_c, 0, 93, 100
2, 177090, Note_on_c, 0, 105, 100
2, 177170, Note_on_c, 0, 67, 100
2, 177170, Note_on_c, 0, 79, 100
2, 177170, Note_on_c, 0, 91, 100
2, 177170, Note_on_c, 0, 103, 100
2, 177200, Note_on_c, 0, 73, 100
2, 177200, Note_on_c, 0, 60, 100
2, 177200, Note_on_c, 0, 86, 100
2, 177200, Note_on_c, 0, 98, 100
2, 177360, Note_on_c, 0, 73, 0
2, 177360, Note_on_c, 0, 60, 0
2, 177360, Note_on_c, 0, 86, 0
2, 177360, Note_on_c, 0, 98, 0
2, 177600, Note_on_c, 0, 86, 100
2, 177600, Note_on_c, 0, 73, 100
2, 177600, Note_on_c, 0, 98, 100
2, 177680, Note_on_c, 0, 86, 0
2, 177680, Note_on_c, 0, 73, 0
2, 177680, Note_on_c, 0, 98, 0
2, 177760, Note_on_c, 0, 74, 100
2, 177760, Note_on_c, 0, 61, 100
2, 177760, Note_on_c, 0, 87, 100
2, 177760, Note_on_c, 0, 100, 100
2, 177920, Note_on_c, 0, 74, 0
2, 177920, Note_on_c, 0, 61, 0
2, 177920, Note_on_c, 0, 87, 0
2, 177920, Note_on_c, 0, 100, 0
2, 177920, Note_on_c, 0, 86, 100
2, 177920, Note_on_c, 0, 98, 100
2, 178080, Note_on_c, 0, 86, 0
2, 178080, Note_on_c, 0, 98, 0
2, 178080, Note_on_c, 0, 87, 100
2, 178080, Note_on_c, 0, 61, 100
2, 178080, Note_on_c, 0, 74, 100
2, 178080, Note_on_c, 0, 99, 100
2, 178240, Note_on_c, 0, 87, 0
2, 178240, Note_on_c, 0, 61, 0
2, 178240, Note_on_c, 0, 74, 0
2, 178520, Note_on_c, 0, 99, 0
2, 178560, Note_on_c, 0, 87, 100
2, 178560, Note_on_c, 0, 62, 100
2, 178560, Note_on_c, 0, 75, 100
2, 178560, Note_on_c, 0, 100, 100
2, 178720, Note_on_c, 0, 87, 0
2, 178720, Note_on_c, 0, 62, 0
2, 178720, Note_on_c, 0, 75, 0
2, 178720, Note_on_c, 0, 100, 0
2, 178720, Note_on_c, 0, 86, 100
2, 178720, Note_on_c, 0, 98, 100
2, 178880, Note_on_c, 0, 86, 0
2, 178880, Note_on_c, 0, 98, 0
2, 178960, Note_on_c, 0, 75, 100
2, 178960, Note_on_c, 0, 62, 100
2, 178960, Note_on_c, 0, 87, 100
2, 178960, Note_on_c, 0, 100, 100
2, 179120, Note_on_c, 0, 75, 0
2, 179120, Note_on_c, 0, 62, 0
2, 179120, Note_on_c, 0, 87, 0
2, 179120, Note_on_c, 0, 100, 0
2, 179120, Note_on_c, 0, 86, 100
2, 179120, Note_on_c, 0, 98, 100
2, 179280, Note_on_c, 0, 86, 0
2, 179280, Note_on_c, 0, 98, 0
2, 179280, Note_on_c, 0, 87, 100
2, 179280, Note_on_c, 0, 62, 100
2, 179280, Note_on_c, 0, 75, 100
2, 179280, Note_on_c, 0, 100, 100
2, 179360, Note_on_c, 0, 87, 0
2, 179360, Note_on_c, 0, 62, 0
2, 179360, Note_on_c, 0, 75, 0
2, 179360, Note_on_c, 0, 100, 0
2, 179410, Note_on_c, 0, 67, 0
2, 179440, Note_on_c, 0, 86, 100
2, 179440, Note_on_c, 0, 98, 100
2, 179600, Note_on_c, 0, 86, 0
2, 179600, Note_on_c, 0, 98, 0
2, 179640, Note_on_c, 0, 87, 100
2, 179640, Note_on_c, 0, 62, 100
2, 179640, Note_on_c, 0, 75, 100
2, 179640, Note_on_c, 0, 100, 100
2, 179800, Note_on_c, 0, 87, 0
2, 179800, Note_on_c, 0, 62, 0
2, 179800, Note_on_c, 0, 75, 0
2, 179800, Note_on_c, 0, 100, 0
2, 179810, Note_on_c, 0, 79, 0
2, 179810, Note_on_c, 0, 91, 0
2, 179810, Note_on_c, 0, 103, 0
2, 179840, Note_on_c, 0, 61, 100
2, 179840, Note_on_c, 0, 74, 100
2, 179840, Note_on_c, 0, 86, 100
2, 179840, Note_on_c, 0, 99, 100
2, 179920, Note_on_c, 0, 86, 0
2, 179920, Note_on_c, 0, 99, 0
2, 180000, Note_on_c, 0, 61, 0
2, 180000, Note_on_c, 0, 74, 0
2, 180000, Note_on_c, 0, 85, 100
2, 180000, Note_on_c, 0, 99, 100
2, 180160, Note_on_c, 0, 85, 0
2, 180160, Note_on_c, 0, 99, 0
2, 180160, Note_on_c, 0, 74, 100
2, 180160, Note_on_c, 0, 61, 100
2, 180160, Note_on_c, 0, 86, 100
2, 180160, Note_on_c, 0, 98, 100
2, 180320, Note_on_c, 0, 74, 0
2, 180320, Note_on_c, 0, 61, 0
2, 180320, Note_on_c, 0, 86, 0
2, 180320, Note_on_c, 0, 98, 0
2, 180320, Note_on_c, 0, 73, 100
2, 180320, Note_on_c, 0, 85, 100
2, 180320, Note_on_c, 0, 97, 100
2, 180480, Note_on_c, 0, 73, 0
2, 180480, Note_on_c, 0, 85, 0
2, 180480, Note_on_c, 0, 97, 0
2, 180600, Note_on_c, 0, 84, 100
2, 180600, Note_on_c, 0, 60, 100
2, 180600, Note_on_c, 0, 72, 100
2, 180600, Note_on_c, 0, 96, 100
2, 180680, Note_on_c, 0, 84, 0
2, 180680, Note_on_c, 0, 60, 0
2, 180680, Note_on_c, 0, 72, 0
2, 180680, Note_on_c, 0, 96, 0
2, 180720, Note_on_c, 0, 85, 100
2, 180720, Note_on_c, 0, 97, 100
2, 180840, Note_on_c, 0, 97, 0
2, 180840, Note_on_c, 0, 98, 100
2, 180880, Note_on_c, 0, 85, 0
2, 180880, Note_on_c, 0, 86, 100
2, 180880, Note_on_c, 0, 73, 100
2, 180920, Note_on_c, 0, 98, 0
2, 180920, Note_on_c, 0, 61, 100
2, 180960, Note_on_c, 0, 86, 0
2, 180960, Note_on_c, 0, 73, 0
2, 180960, Note_on_c, 0, 99, 100
2, 181000, Note_on_c, 0, 61, 0
2, 181000, Note_on_c, 0, 87, 100
2, 181040, Note_on_c, 0, 99, 0
2, 181040, Note_on_c, 0, 74, 100
2, 181080, Note_on_c, 0, 87, 0
2, 181120, Note_on_c, 0, 74, 0
2, 181240, Note_on_c, 0, 100, 100
2, 181240, Note_on_c, 0, 88, 100
2, 181320, Note_on_c, 0, 100, 0
2, 181320, Note_on_c, 0, 88, 0
2, 181440, Note_on_c, 0, 87, 100
2, 181440, Note_on_c, 0, 62, 100
2, 181440, Note_on_c, 0, 75, 100
2, 181440, Note_on_c, 0, 99, 100
2, 181520, Note_on_c, 0, 87, 0
2, 181520, Note_on_c, 0, 62, 0
2, 181520, Note_on_c, 0, 75, 0
2, 181520, Note_on_c, 0, 99, 0
2, 181600, Note_on_c, 0, 74, 100
2, 181600, Note_on_c, 0, 87, 100
2, 181600, Note_on_c, 0, 98, 100
2, 181680, Note_on_c, 0, 74, 0
2, 181680, Note_on_c, 0, 87, 0
2, 181680, Note_on_c, 0, 98, 0
2, 181680, Note_on_c, 0, 86, 100
2, 181680, Note_on_c, 0, 97, 100
2, 181760, Note_on_c, 0, 86, 0
2, 181760, Note_on_c, 0, 97, 0
2, 181760, Note_on_c, 0, 72, 100
2, 181760, Note_on_c, 0, 60, 100
2, 181760, Note_on_c, 0, 85, 100
2, 181760, Note_on_c, 0, 96, 100
2, 181840, Note_on_c, 0, 72, 0
2, 181840, Note_on_c, 0, 60, 0
2, 181840, Note_on_c, 0, 85, 0
2, 181840, Note_on_c, 0, 96, 0
2, 182050, Note_on_c, 0, 81, 0
2, 182050, Note_on_c, 0, 69, 0
2, 182050, Note_on_c, 0, 93, 0
2, 182050, Note_on_c, 0, 105, 0
2, 182050, Note_on_c, 0, 82, 100
2, 182050, Note_on_c, 0, 70, 100
2, 182050, Note_on_c, 0, 94, 100
2, 182050, Note_on_c, 0, 106, 100
2, 182080, Note_on_c, 0, 73, 100
2, 182080, Note_on_c, 0, 61, 100
2, 182080, Note_on_c, 0, 86, 100
2, 182080, Note_on_c, 0, 97, 100
2, 182160, Note_on_c, 0, 73, 0
2, 182160, Note_on_c, 0, 61, 0
2, 182160, Note_on_c, 0, 86, 0
2, 182160, Note_on_c, 0, 97, 0
2, 182560, Note_on_c, 0, 75, 100
2, 182560, Note_on_c, 0, 62, 100
2, 182560, Note_on_c, 0, 88, 100
2, 182560, Note_on_c, 0, 100, 100
2, 182640, Note_on_c, 0, 75, 0
2, 182640, Note_on_c, 0, 62, 0
2, 182640, Note_on_c, 0, 88, 0
2, 182640, Note_on_c, 0, 100, 0
2, 182720, Note_on_c, 0, 74, 100
2, 182720, Note_on_c, 0, 87, 100
2, 182720, Note_on_c, 0, 99, 100
2, 182800, Note_on_c, 0, 74, 0
2, 182800, Note_on_c, 0, 87, 0
2, 182800, Note_on_c, 0, 99, 0
2, 182880, Note_on_c, 0, 88, 100
2, 182880, Note_on_c, 0, 62, 100
2, 182880, Note_on_c, 0, 75, 100
2, 182880, Note_on_c, 0, 100, 100
2, 183240, Note_on_c, 0, 62, 0
2, 183240, Note_on_c, 0, 75, 0
2, 183360, Note_on_c, 0, 88, 0
2, 183360, Note_on_c, 0, 100, 0
2, 183360, Note_on_c, 0, 88, 100
2, 183360, Note_on_c, 0, 62, 100
2, 183360, Note_on_c, 0, 75, 100
2, 183360, Note_on_c, 0, 100, 100
2, 183520, Note_on_c, 0, 88, 0
2, 183520, Note_on_c, 0, 62, 0
2, 183520, Note_on_c, 0, 75, 0
2, 183520, Note_on_c, 0, 100, 0
2, 183520, Note_on_c, 0, 87, 100
2, 183520, Note_on_c, 0, 99, 100
2, 183680, Note_on_c, 0, 87, 0
2, 183680, Note_on_c, 0, 99, 0
2, 183680, Note_on_c, 0, 74, 100
2, 183680, Note_on_c, 0, 61, 100
2, 183680, Note_on_c, 0, 98, 100
2, 183680, Note_on_c, 0, 87, 100
2, 183840, Note_on_c, 0, 74, 0
2, 183840, Note_on_c, 0, 61, 0
2, 183840, Note_on_c, 0, 98, 0
2, 183840, Note_on_c, 0, 87, 0
2, 183840, Note_on_c, 0, 97, 100
2, 183840, Note_on_c, 0, 86, 100
2, 184000, Note_on_c, 0, 97, 0
2, 184000, Note_on_c, 0, 86, 0
2, 184000, Note_on_c, 0, 73, 100
2, 184000, Note_on_c, 0, 60, 100
2, 184000, Note_on_c, 0, 96, 100
2, 184000, Note_on_c, 0, 85, 100
2, 184080, Note_on_c, 0, 73, 0
2, 184080, Note_on_c, 0, 60, 0
2, 184080, Note_on_c, 0, 96, 0
2, 184080, Note_on_c, 0, 85, 0
2, 184320, Note_on_c, 0, 86, 100
2, 184320, Note_on_c, 0, 62, 100
2, 184320, Note_on_c, 0, 74, 100
2, 184320, Note_on_c, 0, 97, 100
2, 184400, Note_on_c, 0, 86, 0
2, 184400, Note_on_c, 0, 62, 0
2, 184400, Note_on_c, 0, 74, 0
2, 184400, Note_on_c, 0, 97, 0
2, 184400, Note_on_c, 0, 87, 100
2, 184400, Note_on_c, 0, 98, 100
2, 184480, Note_on_c, 0, 87, 0
2, 184480, Note_on_c, 0, 98, 0
2, 184480, Note_on_c, 0, 97, 100
2, 184560, Note_on_c, 0, 97, 0
2, 184560, Note_on_c, 0, 98, 100
2, 184640, Note_on_c, 0, 98, 0
2, 184680, Note_on_c, 0, 96, 100
2, 184680, Note_on_c, 0, 84, 100
2, 184680, Note_on_c, 0, 72, 100
2, 184680, Note_on_c, 0, 60, 100
2, 184760, Note_on_c, 0, 96, 0
2, 184760, Note_on_c, 0, 84, 0
2, 184760, Note_on_c, 0, 72, 0
2, 184760, Note_on_c, 0, 60, 0
2, 184870, Note_on_c, 0, 82, 0
2, 184870, Note_on_c, 0, 70, 0
2, 184870, Note_on_c, 0, 94, 0
2, 184870, Note_on_c, 0, 106, 0
2, 184920, Note_on_c, 0, 93, 100
2, 184920, Note_on_c, 0, 81, 100
2, 184930, Note_on_c, 0, 105, 100
2, 184950, Note_on_c, 0, 69, 100
2, 185040, Note_on_c, 0, 97, 100
2, 185040, Note_on_c, 0, 73, 100
2, 185040, Note_on_c, 0, 61, 100
2, 185040, Note_on_c, 0, 85, 100
2, 185120, Note_on_c, 0, 97, 0
2, 185120, Note_on_c, 0, 73, 0
2, 185120, Note_on_c, 0, 61, 0
2, 185120, Note_on_c, 0, 85, 0
2, 185280, Note_on_c, 0, 85, 100
2, 185280, Note_on_c, 0, 61, 100
2, 185280, Note_on_c, 0, 73, 100
2, 185280, Note_on_c, 0, 98, 100
2, 185440, Note_on_c, 0, 85, 0
2, 185440, Note_on_c, 0, 61, 0
2, 185440, Note_on_c, 0, 73, 0
2, 185440, Note_on_c, 0, 98, 0
2, 185440, Note_on_c, 0, 84, 100
2, 185440, Note_on_c, 0, 96, 100
2, 185600, Note_on_c, 0, 84, 0
2, 185600, Note_on_c, 0, 96, 0
2, 185600, Note_on_c, 0, 72, 100
2, 185600, Note_on_c, 0, 60, 100
2, 185600, Note_on_c, 0, 85, 100
2, 185600, Note_on_c, 0, 97, 100
2, 185760, Note_on_c, 0, 72, 0
2, 185760, Note_on_c, 0, 60, 0
2, 185760, Note_on_c, 0, 85, 0
2, 185760, Note_on_c, 0, 97, 0
2, 185760, Note_on_c, 0, 86, 100
2, 185760, Note_on_c, 0, 98, 100
2, 185920, Note_on_c, 0, 86, 0
2, 185920, Note_on_c, 0, 98, 0
2, 185920, Note_on_c, 0, 74, 100
2, 185920, Note_on_c, 0, 62, 100
2, 185920, Note_on_c, 0, 86, 100
2, 185920, Note_on_c, 0, 99, 100
2, 186080, Note_on_c, 0, 74, 0
2, 186080, Note_on_c, 0, 62, 0
2, 186080, Note_on_c, 0, 86, 0
2, 186080, Note_on_c, 0, 99, 0
2, 186080, Note_on_c, 0, 87, 100
2, 186080, Note_on_c, 0, 100, 100
2, 186240, Note_on_c, 0, 87, 0
2, 186240, Note_on_c, 0, 100, 0
2, 186240, Note_on_c, 0, 84, 100
2, 186240, Note_on_c, 0, 60, 100
2, 186240, Note_on_c, 0, 72, 100
2, 186240, Note_on_c, 0, 96, 100
2, 186800, Note_on_c, 0, 84, 0
2, 186800, Note_on_c, 0, 60, 0
2, 186800, Note_on_c, 0, 72, 0
2, 186800, Note_on_c, 0, 96, 0
2, 186880, Note_on_c, 0, 72, 100
2, 186880, Note_on_c, 0, 60, 100
2, 186880, Note_on_c, 0, 84, 100
2, 186880, Note_on_c, 0, 96, 100
2, 187440, Note_on_c, 0, 72, 0
2, 187440, Note_on_c, 0, 60, 0
2, 187440, Note_on_c, 0, 84, 0
2, 187440, Note_on_c, 0, 96, 0
2, 187520, Note_on_c, 0, 72, 100
2, 187520, Note_on_c, 0, 60, 100
2, 187520, Note_on_c, 0, 84, 100
2, 187520, Note_on_c, 0, 96, 100
2, 187680, Note_on_c, 0, 72, 0
2, 187680, Note_on_c, 0, 60, 0
2, 187680, Note_on_c, 0, 84, 0
2, 187680, Note_on_c, 0, 96, 0
2, 187800, Note_on_c, 0, 93, 0
2, 187800, Note_on_c, 0, 81, 0
2, 187810, Note_on_c, 0, 105, 0
2, 187820, Note_on_c, 0, 94, 100
2, 187820, Note_on_c, 0, 82, 100
2, 187830, Note_on_c, 0, 69, 0
2, 187830, Note_on_c, 0, 106, 100
2, 187840, Note_on_c, 0, 72, 100
2, 187840, Note_on_c, 0, 60, 100
2, 187840, Note_on_c, 0, 84, 100
2, 187840, Note_on_c, 0, 96, 100
2, 187850, Note_on_c, 0, 70, 100
2, 187920, Note_on_c, 0, 72, 0
2, 187920, Note_on_c, 0, 60, 0
2, 187920, Note_on_c, 0, 84, 0
2, 187920, Note_on_c, 0, 96, 0
2, 188000, Note_on_c, 0, 84, 100
2, 188000, Note_on_c, 0, 96, 100
2, 188080, Note_on_c, 0, 84, 0
2, 188080, Note_on_c, 0, 96, 0
2, 188160, Note_on_c, 0, 85, 100
2, 188160, Note_on_c, 0, 61, 100
2, 188160, Note_on_c, 0, 73, 100
2, 188160, Note_on_c, 0, 97, 100
2, 188720, Note_on_c, 0, 85, 0
2, 188720, Note_on_c, 0, 61, 0
2, 188720, Note_on_c, 0, 73, 0
2, 188720, Note_on_c, 0, 97, 0
2, 188800, Note_on_c, 0, 73, 100
2, 188800, Note_on_c, 0, 61, 100
2, 188800, Note_on_c, 0, 85, 100
2, 188800, Note_on_c, 0, 97, 100
2, 189260, Note_on_c, 0, 94, 0
2, 189260, Note_on_c, 0, 82, 0
2, 189270, Note_on_c, 0, 106, 0
2, 189290, Note_on_c, 0, 70, 0
2, 189360, Note_on_c, 0, 73, 0
2, 189360, Note_on_c, 0, 61, 0
2, 189360, Note_on_c, 0, 85, 0
2, 189360, Note_on_c, 0, 97, 0
2, 189380, Note_on_c, 0, 93, 100
2, 189380, Note_on_c, 0, 81, 100
2, 189390, Note_on_c, 0, 105, 100
2, 189410, Note_on_c, 0, 69, 100
2, 189440, Note_on_c, 0, 73, 100
2, 189440, Note_on_c, 0, 61, 100
2, 189440, Note_on_c, 0, 86, 100
2, 189440, Note_on_c, 0, 98, 100
2, 189920, Note_on_c, 0, 73, 0
2, 189920, Note_on_c, 0, 61, 0
2, 189920, Note_on_c, 0, 86, 0
2, 189920, Note_on_c, 0, 98, 0
2, 190080, Note_on_c, 0, 86, 100
2, 190080, Note_on_c, 0, 61, 100
2, 190080, Note_on_c, 0, 73, 100
2, 190080, Note_on_c, 0, 98, 100
2, 190560, Note_on_c, 0, 86, 0
2, 190560, Note_on_c, 0, 61, 0
2, 190560, Note_on_c, 0, 73, 0
2, 190560, Note_on_c, 0, 98, 0
2, 190640, Note_on_c, 0, 93, 0
2, 190640, Note_on_c, 0, 81, 0
2, 190650, Note_on_c, 0, 105, 0
2, 190670, Note_on_c, 0, 69, 0
2, 190670, Note_on_c, 0, 94, 100
2, 190670, Note_on_c, 0, 82, 100
2, 190680, Note_on_c, 0, 106, 100
2, 190700, Note_on_c, 0, 70, 100
2, 190720, Note_on_c, 0, 73, 100
2, 190720, Note_on_c, 0, 61, 100
2, 190720, Note_on_c, 0, 86, 100
2, 190720, Note_on_c, 0, 98, 100
2, 191200, Note_on_c, 0, 73, 0
2, 191200, Note_on_c, 0, 61, 0
2, 191200, Note_on_c, 0, 86, 0
2, 191200, Note_on_c, 0, 98, 0
2, 191360, Note_on_c, 0, 74, 100
2, 191360, Note_on_c, 0, 62, 100
2, 191360, Note_on_c, 0, 87, 100
2, 191360, Note_on_c, 0, 99, 100
2, 191840, Note_on_c, 0, 74, 0
2, 191840, Note_on_c, 0, 62, 0
2, 191840, Note_on_c, 0, 87, 0
2, 191840, Note_on_c, 0, 99, 0
2, 191930, Note_on_c, 0, 94, 0
2, 191930, Note_on_c, 0, 82, 0
2, 191940, Note_on_c, 0, 106, 0
2, 191960, Note_on_c, 0, 70, 0
2, 191960, Note_on_c, 0, 93, 100
2, 191960, Note_on_c, 0, 81, 100
2, 191970, Note_on_c, 0, 105, 100
2, 191990, Note_on_c, 0, 69, 100
2, 192000, Note_on_c, 0, 87, 100
2, 192000, Note_on_c, 0, 62, 100
2, 192000, Note_on_c, 0, 74, 100
2, 192000, Note_on_c, 0, 99, 100
2, 192480, Note_on_c, 0, 87, 0
2, 192480, Note_on_c, 0, 62, 0
2, 192480, Note_on_c, 0, 74, 0
2, 192480, Note_on_c, 0, 99, 0
2, 192640, Note_on_c, 0, 74, 100
2, 192640, Note_on_c, 0, 62, 100
2, 192640, Note_on_c, 0, 87, 100
2, 192640, Note_on_c, 0, 99, 100
2, 193120, Note_on_c, 0, 74, 0
2, 193120, Note_on_c, 0, 62, 0
2, 193120, Note_on_c, 0, 87, 0
2, 193120, Note_on_c, 0, 99, 0
2, 193220, Note_on_c, 0, 93, 0
2, 193220, Note_on_c, 0, 81, 0
2, 193230, Note_on_c, 0, 105, 0
2, 193250, Note_on_c, 0, 69, 0
2, 193250, Note_on_c, 0, 94, 100
2, 193250, Note_on_c, 0, 82, 100
2, 193260, Note_on_c, 0, 106, 100
2, 193280, Note_on_c, 0, 75, 100
2, 193280, Note_on_c, 0, 62, 100
2, 193280, Note_on_c, 0, 88, 100
2, 193280, Note_on_c, 0, 100, 100
2, 193280, Note_on_c, 0, 70, 100
2, 193760, Note_on_c, 0, 75, 0
2, 193760, Note_on_c, 0, 62, 0
2, 193760, Note_on_c, 0, 88, 0
2, 193760, Note_on_c, 0, 100, 0
2, 193880, Note_on_c, 0, 93, 100
2, 193880, Note_on_c, 0, 81, 100
2, 193880, Note_on_c, 0, 79, 100
2, 193890, Note_on_c, 0, 105, 100
2, 193890, Note_on_c, 0, 103, 100
2, 193890, Note_on_c, 0, 91, 100
2, 193910, Note_on_c, 0, 69, 100
2, 193910, Note_on_c, 0, 67, 100
2, 193920, Note_on_c, 0, 88, 100
2, 193920, Note_on_c, 0, 87, 100
2, 193920, Note_on_c, 0, 62, 100
2, 193920, Note_on_c, 0, 75, 100
2, 193920, Note_on_c, 0, 74, 100
2, 193920, Note_on_c, 0, 100, 100
2, 193920, Note_on_c, 0, 99, 100
2, 194160, Note_on_c, 0, 88, 0
2, 194160, Note_on_c, 0, 87, 0
2, 194160, Note_on_c, 0, 62, 0
2, 194160, Note_on_c, 0, 75, 0
2, 194160, Note_on_c, 0, 74, 0
2, 194160, Note_on_c, 0, 100, 0
2, 194160, Note_on_c, 0, 99, 0
2, 194240, Note_on_c, 0, 75, 100
2, 194240, Note_on_c, 0, 62, 100
2, 194240, Note_on_c, 0, 88, 100
2, 194240, Note_on_c, 0, 100, 100
2, 195680, Note_on_c, 0, 75, 0
2, 195680, Note_on_c, 0, 62, 0
2, 195680, Note_on_c, 0, 88, 0
2, 195680, Note_on_c, 0, 100, 0
2, 195800, Note_on_c, 0, 79, 0
2, 195810, Note_on_c, 0, 103, 0
2, 195810, Note_on_c, 0, 91, 0
2, 195830, Note_on_c, 0, 67, 0
2, 195840, Note_on_c, 0, 88, 100
2, 195840, Note_on_c, 0, 62, 100
2, 195840, Note_on_c, 0, 75, 100
2, 195840, Note_on_c, 0, 100, 100
2, 195840, Note_on_c, 0, 98, 100
2, 195960, Note_on_c, 0, 88, 0
2, 195960, Note_on_c, 0, 62, 0
2, 195960, Note_on_c, 0, 75, 0
2, 195960, Note_on_c, 0, 100, 0
2, 195960, Note_on_c, 0, 98, 0
2, 195960, Note_on_c, 0, 87, 100
2, 195960, Note_on_c, 0, 99, 100
2, 196080, Note_on_c, 0, 87, 0
2, 196080, Note_on_c, 0, 99, 0
2, 196080, Note_on_c, 0, 86, 100
2, 196080, Note_on_c, 0, 98, 100
2, 196200, Note_on_c, 0, 86, 0
2, 196200, Note_on_c, 0, 98, 0
2, 196200, Note_on_c, 0, 85, 100
2, 196200, Note_on_c, 0, 61, 100
2, 196200, Note_on_c, 0, 73, 100
2, 196200, Note_on_c, 0, 97, 100
2, 196730, Note_on_c, 0, 93, 0
2, 196730, Note_on_c, 0, 81, 0
2, 196740, Note_on_c, 0, 105, 0
2, 196740, Note_on_c, 0, 61, 0
2, 196760, Note_on_c, 0, 69, 0
2, 196760, Note_on_c, 0, 85, 0
2, 196760, Note_on_c, 0, 73, 0
2, 196760, Note_on_c, 0, 97, 0
2, 196800, Note_on_c, 0, 85, 100
2, 196800, Note_on_c, 0, 61, 100
2, 196800, Note_on_c, 0, 73, 100
2, 196800, Note_on_c, 0, 97, 100
2, 197300, Note_on_c, 0, 61, 0
2, 197360, Note_on_c, 0, 73, 0
2, 197440, Note_on_c, 0, 85, 0
2, 197440, Note_on_c, 0, 97, 0
2, 197440, Note_on_c, 0, 73, 100
2, 197440, Note_on_c, 0, 61, 100
2, 197440, Note_on_c, 0, 85, 100
2, 197440, Note_on_c, 0, 97, 100
2, 197600, Note_on_c, 0, 73, 0
2, 197600, Note_on_c, 0, 61, 0
2, 197600, Note_on_c, 0, 85, 0
2, 197600, Note_on_c, 0, 97, 0
2, 197600, Note_on_c, 0, 73, 100
2, 197600, Note_on_c, 0, 85, 100
2, 197600, Note_on_c, 0, 97, 100
2, 197680, Note_on_c, 0, 73, 0
2, 197760, Note_on_c, 0, 85, 0
2, 197760, Note_on_c, 0, 97, 0
2, 197760, Note_on_c, 0, 62, 100
2, 197760, Note_on_c, 0, 98, 100
2, 197760, Note_on_c, 0, 86, 100
2, 197760, Note_on_c, 0, 74, 100
2, 197880, Note_on_c, 0, 62, 0
2, 197880, Note_on_c, 0, 98, 0
2, 197880, Note_on_c, 0, 86, 0
2, 197880, Note_on_c, 0, 74, 0
2, 197880, Note_on_c, 0, 97, 100
2, 197880, Note_on_c, 0, 85, 100
2, 197880, Note_on_c, 0, 73, 100
2, 197940, Note_on_c, 0, 61, 100
2, 198600, Note_on_c, 0, 61, 0
2, 198650, Note_on_c, 0, 94, 0
2, 198650, Note_on_c, 0, 82, 0
2, 198660, Note_on_c, 0, 106, 0
2, 198660, Note_on_c, 0, 73, 0
2, 198680, Note_on_c, 0, 70, 0
2, 198680, Note_on_c, 0, 93, 100
2, 198680, Note_on_c, 0, 81, 100
2, 198690, Note_on_c, 0, 105, 100
2, 198710, Note_on_c, 0, 69, 100
2, 198720, Note_on_c, 0, 97, 0
2, 198720, Note_on_c, 0, 85, 0
2, 198720, Note_on_c, 0, 85, 100
2, 198720, Note_on_c, 0, 61, 100
2, 198720, Note_on_c, 0, 73, 100
2, 198720, Note_on_c, 0, 97, 100
2, 199260, Note_on_c, 0, 61, 0
2, 199300, Note_on_c, 0, 73, 0
2, 199360, Note_on_c, 0, 85, 0
2, 199360, Note_on_c, 0, 97, 0
2, 199360, Note_on_c, 0, 73, 100
2, 199360, Note_on_c, 0, 61, 100
2, 199360, Note_on_c, 0, 85, 100
2, 199360, Note_on_c, 0, 97, 100
2, 199520, Note_on_c, 0, 73, 0
2, 199520, Note_on_c, 0, 61, 0
2, 199520, Note_on_c, 0, 85, 0
2, 199520, Note_on_c, 0, 97, 0
2, 199520, Note_on_c, 0, 73, 100
2, 199520, Note_on_c, 0, 85, 100
2, 199520, Note_on_c, 0, 97, 100
2, 199600, Note_on_c, 0, 73, 0
2, 199680, Note_on_c, 0, 85, 0
2, 199680, Note_on_c, 0, 97, 0
2, 199680, Note_on_c, 0, 86, 100
2, 199680, Note_on_c, 0, 74, 100
2, 199680, Note_on_c, 0, 62, 100
2, 199680, Note_on_c, 0, 98, 100
2, 199800, Note_on_c, 0, 62, 0
2, 199840, Note_on_c, 0, 86, 0
2, 199840, Note_on_c, 0, 74, 0
2, 199840, Note_on_c, 0, 98, 0
2, 199840, Note_on_c, 0, 73, 100
2, 199840, Note_on_c, 0, 85, 100
2, 199840, Note_on_c, 0, 97, 100
2, 199860, Note_on_c, 0, 61, 100
2, 200000, Note_on_c, 0, 73, 0
2, 200220, Note_on_c, 0, 61, 0
2, 200280, Note_on_c, 0, 94, 100
2, 200280, Note_on_c, 0, 82, 100
2, 200290, Note_on_c, 0, 106, 100
2, 200310, Note_on_c, 0, 70, 100
2, 200320, Note_on_c, 0, 85, 0
2, 200320, Note_on_c, 0, 97, 0
2, 200320, Note_on_c, 0, 73, 100
2, 200320, Note_on_c, 0, 61, 100
2, 200320, Note_on_c, 0, 85, 100
2, 200320, Note_on_c, 0, 97, 100
2, 200428, Note_on_c, 0, 73, 0
2, 200428, Note_on_c, 0, 61, 0
2, 200428, Note_on_c, 0, 85, 0
2, 200428, Note_on_c, 0, 97, 0
2, 200480, Note_on_c, 0, 73, 100
2, 200480, Note_on_c, 0, 85, 100
2, 200480, Note_on_c, 0, 97, 100
2, 200560, Note_on_c, 0, 73, 0
2, 200588, Note_on_c, 0, 85, 0
2, 200588, Note_on_c, 0, 97, 0
2, 200640, Note_on_c, 0, 86, 100
2, 200640, Note_on_c, 0, 62, 100
2, 200640, Note_on_c, 0, 74, 100
2, 200640, Note_on_c, 0, 98, 100
2, 200800, Note_on_c, 0, 86, 0
2, 200800, Note_on_c, 0, 62, 0
2, 200800, Note_on_c, 0, 74, 0
2, 200800, Note_on_c, 0, 98, 0
2, 200960, Note_on_c, 0, 73, 100
2, 200960, Note_on_c, 0, 61, 100
2, 200960, Note_on_c, 0, 85, 100
2, 200960, Note_on_c, 0, 97, 100
2, 201120, Note_on_c, 0, 73, 0
2, 201120, Note_on_c, 0, 61, 0
2, 201120, Note_on_c, 0, 85, 0
2, 201120, Note_on_c, 0, 97, 0
2, 201280, Note_on_c, 0, 72, 100
2, 201280, Note_on_c, 0, 60, 100
2, 201280, Note_on_c, 0, 84, 100
2, 201280, Note_on_c, 0, 96, 100
2, 201440, Note_on_c, 0, 72, 0
2, 201440, Note_on_c, 0, 60, 0
2, 201440, Note_on_c, 0, 84, 0
2, 201440, Note_on_c, 0, 96, 0
2, 201600, Note_on_c, 0, 85, 100
2, 201600, Note_on_c, 0, 61, 100
2, 201600, Note_on_c, 0, 73, 100
2, 201600, Note_on_c, 0, 97, 100
2, 201760, Note_on_c, 0, 61, 0
2, 202040, Note_on_c, 0, 85, 0
2, 202080, Note_on_c, 0, 73, 0
2, 202080, Note_on_c, 0, 97, 0
2, 202200, Note_on_c, 0, 94, 0
2, 202200, Note_on_c, 0, 82, 0
2, 202210, Note_on_c, 0, 106, 0
2, 202230, Note_on_c, 0, 70, 0
2, 202240, Note_on_c, 0, 73, 100
2, 202240, Note_on_c, 0, 61, 100
2, 202240, Note_on_c, 0, 86, 100
2, 202240, Note_on_c, 0, 98, 100
2, 202400, Note_on_c, 0, 73, 0
2, 202400, Note_on_c, 0, 61, 0
2, 202400, Note_on_c, 0, 86, 0
2, 202400, Note_on_c, 0, 98, 0
2, 202400, Note_on_c, 0, 73, 100
2, 202400, Note_on_c, 0, 86, 100
2, 202400, Note_on_c, 0, 98, 100
2, 202480, Note_on_c, 0, 73, 0
2, 202560, Note_on_c, 0, 86, 0
2, 202560, Note_on_c, 0, 98, 0
2, 202560, Note_on_c, 0, 87, 100
2, 202560, Note_on_c, 0, 74, 100
2, 202560, Note_on_c, 0, 62, 100
2, 202560, Note_on_c, 0, 99, 100
2, 202720, Note_on_c, 0, 87, 0
2, 202720, Note_on_c, 0, 74, 0
2, 202720, Note_on_c, 0, 99, 0
2, 202720, Note_on_c, 0, 75, 100
2, 202720, Note_on_c, 0, 88, 100
2, 202720, Note_on_c, 0, 100, 100
2, 203440, Note_on_c, 0, 62, 0
2, 203440, Note_on_c, 0, 75, 0
2, 203440, Note_on_c, 0, 88, 0
2, 203440, Note_on_c, 0, 100, 0
2, 203520, Note_on_c, 0, 88, 100
2, 203520, Note_on_c, 0, 85, 100
2, 203520, Note_on_c, 0, 62, 100
2, 203520, Note_on_c, 0, 61, 100
2, 203520, Note_on_c, 0, 75, 100
2, 203520, Note_on_c, 0, 73, 100
2, 203520, Note_on_c, 0, 100, 100
2, 203520, Note_on_c, 0, 97, 100
2, 204640, Note_on_c, 0, 88, 0
2, 204640, Note_on_c, 0, 85, 0
2, 204640, Note_on_c, 0, 62, 0
2, 204640, Note_on_c, 0, 61, 0
2, 204640, Note_on_c, 0, 75, 0
2, 204640, Note_on_c, 0, 73, 0
2, 204640, Note_on_c, 0, 100, 0
2, 204640, Note_on_c, 0, 97, 0
2, 204740, Note_on_c, 0, 93, 0
2, 204740, Note_on_c, 0, 81, 0
2, 204750, Note_on_c, 0, 105, 0
2, 204770, Note_on_c, 0, 69, 0
2, 204770, Note_on_c, 0, 94, 100
2, 204770, Note_on_c, 0, 82, 100
2, 204780, Note_on_c, 0, 106, 100
2, 204800, Note_on_c, 0, 73, 100
2, 204800, Note_on_c, 0, 74, 100
2, 204800, Note_on_c, 0, 61, 100
2, 204800, Note_on_c, 0, 84, 100
2, 204800, Note_on_c, 0, 87, 100
2, 204800, Note_on_c, 0, 96, 100
2, 204800, Note_on_c, 0, 99, 100
2, 204800, Note_on_c, 0, 70, 100
2, 205360, Note_on_c, 0, 73, 0
2, 205360, Note_on_c, 0, 74, 0
2, 205360, Note_on_c, 0, 61, 0
2, 205360, Note_on_c, 0, 84, 0
2, 205360, Note_on_c, 0, 87, 0
2, 205360, Note_on_c, 0, 96, 0
2, 205360, Note_on_c, 0, 99, 0
2, 205400, Note_on_c, 0, 94, 0
2, 205400, Note_on_c, 0, 82, 0
2, 205400, Note_on_c, 0, 93, 100
2, 205400, Note_on_c, 0, 81, 100
2, 205410, Note_on_c, 0, 106, 0
2, 205410, Note_on_c, 0, 105, 100
2, 205430, Note_on_c, 0, 70, 0
2, 205430, Note_on_c, 0, 69, 100
2, 205440, Note_on_c, 0, 87, 100
2, 205440, Note_on_c, 0, 84, 100
2, 205440, Note_on_c, 0, 61, 100
2, 205440, Note_on_c, 0, 74, 100
2, 205440, Note_on_c, 0, 73, 100
2, 205440, Note_on_c, 0, 99, 100
2, 205440, Note_on_c, 0, 96, 100
2, 206000, Note_on_c, 0, 87, 0
2, 206000, Note_on_c, 0, 84, 0
2, 206000, Note_on_c, 0, 61, 0
2, 206000, Note_on_c, 0, 74, 0
2, 206000, Note_on_c, 0, 73, 0
2, 206000, Note_on_c, 0, 99, 0
2, 206000, Note_on_c, 0, 96, 0
2, 206030, Note_on_c, 0, 93, 0
2, 206030, Note_on_c, 0, 81, 0
2, 206030, Note_on_c, 0, 94, 100
2, 206030, Note_on_c, 0, 82, 100
2, 206040, Note_on_c, 0, 105, 0
2, 206040, Note_on_c, 0, 106, 100
2, 206060, Note_on_c, 0, 69, 0
2, 206060, Note_on_c, 0, 70, 100
2, 206080, Note_on_c, 0, 73, 100
2, 206080, Note_on_c, 0, 75, 100
2, 206080, Note_on_c, 0, 62, 100
2, 206080, Note_on_c, 0, 85, 100
2, 206080, Note_on_c, 0, 88, 100
2, 206080, Note_on_c, 0, 97, 100
2, 206080, Note_on_c, 0, 100, 100
2, 206080, Note_on_c, 0, 61, 100
2, 206640, Note_on_c, 0, 73, 0
2, 206640, Note_on_c, 0, 75, 0
2, 206640, Note_on_c, 0, 62, 0
2, 206640, Note_on_c, 0, 85, 0
2, 206640, Note_on_c, 0, 88, 0
2, 206640, Note_on_c, 0, 97, 0
2, 206640, Note_on_c, 0, 100, 0
2, 206640, Note_on_c, 0, 61, 0
2, 206660, Note_on_c, 0, 94, 0
2, 206660, Note_on_c, 0, 82, 0
2, 206670, Note_on_c, 0, 106, 0
2, 206690, Note_on_c, 0, 70, 0
2, 206690, Note_on_c, 0, 93, 100
2, 206690, Note_on_c, 0, 81, 100
2, 206700, Note_on_c, 0, 105, 100
2, 206720, Note_on_c, 0, 73, 100
2, 206720, Note_on_c, 0, 74, 100
2, 206720, Note_on_c, 0, 61, 100
2, 206720, Note_on_c, 0, 84, 100
2, 206720, Note_on_c, 0, 87, 100
2, 206720, Note_on_c, 0, 96, 100
2, 206720, Note_on_c, 0, 99, 100
2, 206720, Note_on_c, 0, 69, 100
2, 207240, Note_on_c, 0, 61, 0
2, 207280, Note_on_c, 0, 73, 0
2, 207280, Note_on_c, 0, 74, 0
2, 207280, Note_on_c, 0, 84, 0
2, 207280, Note_on_c, 0, 87, 0
2, 207280, Note_on_c, 0, 96, 0
2, 207280, Note_on_c, 0, 99, 0
2, 207320, Note_on_c, 0, 93, 0
2, 207320, Note_on_c, 0, 81, 0
2, 207320, Note_on_c, 0, 94, 100
2, 207320, Note_on_c, 0, 82, 100
2, 207330, Note_on_c, 0, 105, 0
2, 207330, Note_on_c, 0, 106, 100
2, 207350, Note_on_c, 0, 69, 0
2, 207350, Note_on_c, 0, 70, 100
2, 207360, Note_on_c, 0, 87, 100
2, 207360, Note_on_c, 0, 84, 100
2, 207360, Note_on_c, 0, 61, 100
2, 207360, Note_on_c, 0, 74, 100
2, 207360, Note_on_c, 0, 73, 100
2, 207360, Note_on_c, 0, 99, 100
2, 207360, Note_on_c, 0, 96, 100
2, 207920, Note_on_c, 0, 87, 0
2, 207920, Note_on_c, 0, 84, 0
2, 207920, Note_on_c, 0, 61, 0
2, 207920, Note_on_c, 0, 74, 0
2, 207920, Note_on_c, 0, 73, 0
2, 207920, Note_on_c, 0, 99, 0
2, 207920, Note_on_c, 0, 96, 0
2, 207950, Note_on_c, 0, 94, 0
2, 207950, Note_on_c, 0, 82, 0
2, 207950, Note_on_c, 0, 93, 100
2, 207950, Note_on_c, 0, 81, 100
2, 207960, Note_on_c, 0, 106, 0
2, 207960, Note_on_c, 0, 105, 100
2, 207980, Note_on_c, 0, 70, 0
2, 207980, Note_on_c, 0, 69, 100
2, 208000, Note_on_c, 0, 73, 100
2, 208000, Note_on_c, 0, 75, 100
2, 208000, Note_on_c, 0, 61, 100
2, 208000, Note_on_c, 0, 62, 100
2, 208000, Note_on_c, 0, 85, 100
2, 208000, Note_on_c, 0, 88, 100
2, 208000, Note_on_c, 0, 97, 100
2, 208000, Note_on_c, 0, 100, 100
2, 208560, Note_on_c, 0, 73, 0
2, 208560, Note_on_c, 0, 75, 0
2, 208560, Note_on_c, 0, 61, 0
2, 208560, Note_on_c, 0, 62, 0
2, 208560, Note_on_c, 0, 85, 0
2, 208560, Note_on_c, 0, 88, 0
2, 208560, Note_on_c, 0, 97, 0
2, 208560, Note_on_c, 0, 100, 0
2, 208580, Note_on_c, 0, 93, 0
2, 208580, Note_on_c, 0, 81, 0
2, 208590, Note_on_c, 0, 105, 0
2, 208610, Note_on_c, 0, 69, 0
2, 208610, Note_on_c, 0, 94, 100
2, 208610, Note_on_c, 0, 82, 100
2, 208620, Note_on_c, 0, 106, 100
2, 208640, Note_on_c, 0, 73, 100
2, 208640, Note_on_c, 0, 74, 100
2, 208640, Note_on_c, 0, 61, 100
2, 208640, Note_on_c, 0, 84, 100
2, 208640, Note_on_c, 0, 87, 100
2, 208640, Note_on_c, 0, 96, 100
2, 208640, Note_on_c, 0, 99, 100
2, 208640, Note_on_c, 0, 70, 100
2, 209200, Note_on_c, 0, 73, 0
2, 209200, Note_on_c, 0, 74, 0
2, 209200, Note_on_c, 0, 61, 0
2, 209200, Note_on_c, 0, 84, 0
2, 209200, Note_on_c, 0, 87, 0
2, 209200, Note_on_c, 0, 96, 0
2, 209200, Note_on_c, 0, 99, 0
2, 209240, Note_on_c, 0, 93, 100
2, 209240, Note_on_c, 0, 81, 100
2, 209250, Note_on_c, 0, 105, 100
2, 209270, Note_on_c, 0, 69, 100
2, 209280, Note_on_c, 0, 87, 100
2, 209280, Note_on_c, 0, 85, 100
2, 209280, Note_on_c, 0, 62, 100
2, 209280, Note_on_c, 0, 74, 100
2, 209280, Note_on_c, 0, 99, 100
2, 209280, Note_on_c, 0, 96, 100
2, 209440, Note_on_c, 0, 87, 0
2, 209440, Note_on_c, 0, 85, 0
2, 209440, Note_on_c, 0, 62, 0
2, 209440, Note_on_c, 0, 74, 0
2, 209440, Note_on_c, 0, 99, 0
2, 209440, Note_on_c, 0, 96, 0
2, 209440, Note_on_c, 0, 88, 100
2, 209440, Note_on_c, 0, 100, 100
2, 209520, Note_on_c, 0, 100, 0
2, 209560, Note_on_c, 0, 88, 0
2, 209600, Note_on_c, 0, 73, 100
2, 209600, Note_on_c, 0, 61, 100
2, 209600, Note_on_c, 0, 87, 100
2, 209600, Note_on_c, 0, 99, 100
2, 209680, Note_on_c, 0, 73, 0
2, 209680, Note_on_c, 0, 61, 0
2, 209680, Note_on_c, 0, 87, 0
2, 210080, Note_on_c, 0, 99, 0
2, 210170, Note_on_c, 0, 94, 0
2, 210170, Note_on_c, 0, 82, 0
2, 210180, Note_on_c, 0, 106, 0
2, 210200, Note_on_c, 0, 70, 0
2, 210240, Note_on_c, 0, 85, 100
2, 210240, Note_on_c, 0, 60, 100
2, 210240, Note_on_c, 0, 73, 100
2, 210240, Note_on_c, 0, 98, 100
2, 210320, Note_on_c, 0, 85, 0
2, 210320, Note_on_c, 0, 60, 0
2, 210320, Note_on_c, 0, 73, 0
2, 210320, Note_on_c, 0, 98, 0
2, 210400, Note_on_c, 0, 72, 100
2, 210400, Note_on_c, 0, 86, 100
2, 210400, Note_on_c, 0, 97, 100
2, 210560, Note_on_c, 0, 72, 0
2, 210560, Note_on_c, 0, 86, 0
2, 210560, Note_on_c, 0, 97, 0
2, 210840, Note_on_c, 0, 93, 0
2, 210840, Note_on_c, 0, 81, 0
2, 210850, Note_on_c, 0, 105, 0
2, 210850, Note_on_c, 0, 82, 100
2, 210850, Note_on_c, 0, 70, 100
2, 210850, Note_on_c, 0, 94, 100
2, 210850, Note_on_c, 0, 106, 100
2, 210870, Note_on_c, 0, 69, 0
2, 210880, Note_on_c, 0, 72, 100
2, 210880, Note_on_c, 0, 60, 100
2, 210880, Note_on_c, 0, 85, 100
2, 210880, Note_on_c, 0, 97, 100
2, 211040, Note_on_c, 0, 72, 0
2, 211040, Note_on_c, 0, 60, 0
2, 211040, Note_on_c, 0, 85, 0
2, 211040, Note_on_c, 0, 97, 0
2, 211040, Note_on_c, 0, 86, 100
2, 211040, Note_on_c, 0, 98, 100
2, 211200, Note_on_c, 0, 86, 0
2, 211200, Note_on_c, 0, 98, 0
2, 211200, Note_on_c, 0, 87, 100
2, 211200, Note_on_c, 0, 61, 100
2, 211200, Note_on_c, 0, 73, 100
2, 211200, Note_on_c, 0, 99, 100
2, 212080, Note_on_c, 0, 87, 0
2, 212080, Note_on_c, 0, 61, 0
2, 212080, Note_on_c, 0, 73, 0
2, 212080, Note_on_c, 0, 99, 0
2, 212130, Note_on_c, 0, 82, 0
2, 212130, Note_on_c, 0, 70, 0
2, 212130, Note_on_c, 0, 94, 0
2, 212130, Note_on_c, 0, 106, 0
2, 212130, Note_on_c, 0, 81, 100
2, 212130, Note_on_c, 0, 69, 100
2, 212130, Note_on_c, 0, 93, 100
2, 212130, Note_on_c, 0, 105, 100
2, 212160, Note_on_c, 0, 60, 100
2, 212160, Note_on_c, 0, 72, 100
2, 212160, Note_on_c, 0, 97, 100
2, 212160, Note_on_c, 0, 85, 100
2, 212320, Note_on_c, 0, 60, 0
2, 212320, Note_on_c, 0, 72, 0
2, 212320, Note_on_c, 0, 97, 0
2, 212320, Note_on_c, 0, 85, 0
2, 212400, Note_on_c, 0, 85, 100
2, 212440, Note_on_c, 0, 97, 100
2, 212480, Note_on_c, 0, 85, 0
2, 212480, Note_on_c, 0, 74, 100
2, 212520, Note_on_c, 0, 97, 0
2, 212560, Note_on_c, 0, 74, 0
2, 212560, Note_on_c, 0, 87, 100
2, 212600, Note_on_c, 0, 99, 100
2, 212640, Note_on_c, 0, 87, 0
2, 212640, Note_on_c, 0, 61, 100
2, 212640, Note_on_c, 0, 73, 100
2, 212680, Note_on_c, 0, 99, 0
2, 212720, Note_on_c, 0, 61, 0
2, 212720, Note_on_c, 0, 73, 0
2, 212720, Note_on_c, 0, 86, 100
2, 212760, Note_on_c, 0, 98, 100
2, 212800, Note_on_c, 0, 86, 0
2, 212840, Note_on_c, 0, 98, 0
2, 212880, Note_on_c, 0, 85, 100
2, 212920, Note_on_c, 0, 97, 100
2, 212960, Note_on_c, 0, 85, 0
2, 212960, Note_on_c, 0, 73, 100
2, 212960, Note_on_c, 0, 61, 100
2, 213000, Note_on_c, 0, 97, 0
2, 213000, Note_on_c, 0, 87, 100
2, 213040, Note_on_c, 0, 73, 0
2, 213040, Note_on_c, 0, 61, 0
2, 213040, Note_on_c, 0, 99, 100
2, 213080, Note_on_c, 0, 87, 0
2, 213120, Note_on_c, 0, 99, 0
2, 213120, Note_on_c, 0, 62, 100
2, 213120, Note_on_c, 0, 74, 100
2, 213120, Note_on_c, 0, 86, 100
2, 213160, Note_on_c, 0, 98, 100
2, 213200, Note_on_c, 0, 62, 0
2, 213200, Note_on_c, 0, 74, 0
2, 213200, Note_on_c, 0, 86, 0
2, 213240, Note_on_c, 0, 98, 0
2, 213240, Note_on_c, 0, 99, 100
2, 213320, Note_on_c, 0, 99, 0
2, 213320, Note_on_c, 0, 98, 100
2, 213360, Note_on_c, 0, 73, 100
2, 213360, Note_on_c, 0, 85, 100
2, 213400, Note_on_c, 0, 98, 0
2, 213400, Note_on_c, 0, 97, 100
2, 213440, Note_on_c, 0, 73, 0
2, 213440, Note_on_c, 0, 85, 0
2, 213440, Note_on_c, 0, 84, 100
2, 213480, Note_on_c, 0, 97, 0
2, 213480, Note_on_c, 0, 96, 100
2, 213520, Note_on_c, 0, 84, 0
2, 213560, Note_on_c, 0, 96, 0
2, 213560, Note_on_c, 0, 88, 100
2, 213600, Note_on_c, 0, 62, 100
2, 213600, Note_on_c, 0, 75, 100
2, 213600, Note_on_c, 0, 100, 100
2, 213640, Note_on_c, 0, 88, 0
2, 213680, Note_on_c, 0, 62, 0
2, 213680, Note_on_c, 0, 75, 0
2, 213680, Note_on_c, 0, 100, 0
2, 214080, Note_on_c, 0, 61, 100
2, 214080, Note_on_c, 0, 74, 100
2, 214080, Note_on_c, 0, 100, 100
2, 214080, Note_on_c, 0, 88, 100
2, 214230, Note_on_c, 0, 99, 100
2, 214230, Note_on_c, 0, 87, 100
2, 214240, Note_on_c, 0, 61, 0
2, 214240, Note_on_c, 0, 74, 0
2, 214240, Note_on_c, 0, 100, 0
2, 214240, Note_on_c, 0, 88, 0
2, 214390, Note_on_c, 0, 99, 0
2, 214390, Note_on_c, 0, 87, 0
2, 214390, Note_on_c, 0, 98, 100
2, 214390, Note_on_c, 0, 86, 100
2, 214400, Note_on_c, 0, 73, 100
2, 214400, Note_on_c, 0, 60, 100
2, 214470, Note_on_c, 0, 98, 0
2, 214470, Note_on_c, 0, 86, 0
2, 214480, Note_on_c, 0, 73, 0
2, 214480, Note_on_c, 0, 60, 0
2, 214500, Note_on_c, 0, 81, 0
2, 214500, Note_on_c, 0, 69, 0
2, 214500, Note_on_c, 0, 93, 0
2, 214500, Note_on_c, 0, 105, 0
2, 214530, Note_on_c, 0, 106, 100
2, 214530, Note_on_c, 0, 82, 100
2, 214530, Note_on_c, 0, 70, 100
2, 214530, Note_on_c, 0, 94, 100
2, 214560, Note_on_c, 0, 97, 100
2, 214560, Note_on_c, 0, 85, 100
2, 214680, Note_on_c, 0, 97, 0
2, 214680, Note_on_c, 0, 85, 0
2, 214680, Note_on_c, 0, 60, 100
2, 214680, Note_on_c, 0, 73, 100
2, 214680, Note_on_c, 0, 98, 100
2, 214680, Note_on_c, 0, 86, 100
2, 214800, Note_on_c, 0, 60, 0
2, 214800, Note_on_c, 0, 73, 0
2, 214800, Note_on_c, 0, 98, 0
2, 214800, Note_on_c, 0, 86, 0
2, 214800, Note_on_c, 0, 99, 100
2, 214800, Note_on_c, 0, 87, 100
2, 214920, Note_on_c, 0, 99, 0
2, 214920, Note_on_c, 0, 87, 0
2, 214920, Note_on_c, 0, 98, 100
2, 214920, Note_on_c, 0, 86, 100
2, 215040, Note_on_c, 0, 98, 0
2, 215040, Note_on_c, 0, 86, 0
2, 215040, Note_on_c, 0, 62, 100
2, 215040, Note_on_c, 0, 74, 100
2, 215040, Note_on_c, 0, 97, 100
2, 215040, Note_on_c, 0, 85, 100
2, 215120, Note_on_c, 0, 62, 0
2, 215120, Note_on_c, 0, 74, 0
2, 215120, Note_on_c, 0, 97, 0
2, 215120, Note_on_c, 0, 85, 0
2, 215160, Note_on_c, 0, 99, 100
2, 215160, Note_on_c, 0, 87, 100
2, 215240, Note_on_c, 0, 99, 0
2, 215240, Note_on_c, 0, 87, 0
2, 215240, Note_on_c, 0, 98, 100
2, 215240, Note_on_c, 0, 86, 100
2, 215320, Note_on_c, 0, 98, 0
2, 215320, Note_on_c, 0, 86, 0
2, 215320, Note_on_c, 0, 97, 100
2, 215320, Note_on_c, 0, 85, 100
2, 215360, Note_on_c, 0, 72, 100
2, 215360, Note_on_c, 0, 60, 100
2, 215400, Note_on_c, 0, 97, 0
2, 215400, Note_on_c, 0, 85, 0
2, 215400, Note_on_c, 0, 96, 100
2, 215400, Note_on_c, 0, 84, 100
2, 215440, Note_on_c, 0, 72, 0
2, 215440, Note_on_c, 0, 60, 0
2, 215480, Note_on_c, 0, 96, 0
2, 215480, Note_on_c, 0, 84, 0
2, 215480, Note_on_c, 0, 97, 100
2, 215480, Note_on_c, 0, 85, 100
2, 215560, Note_on_c, 0, 97, 0
2, 215560, Note_on_c, 0, 85, 0
2, 215560, Note_on_c, 0, 98, 100
2, 215560, Note_on_c, 0, 86, 100
2, 215680, Note_on_c, 0, 98, 0
2, 215680, Note_on_c, 0, 86, 0
2, 215680, Note_on_c, 0, 74, 100
2, 215680, Note_on_c, 0, 62, 100
2, 215680, Note_on_c, 0, 99, 100
2, 215680, Note_on_c, 0, 87, 100
2, 216240, Note_on_c, 0, 74, 0
2, 216240, Note_on_c, 0, 62, 0
2, 216240, Note_on_c, 0, 99, 0
2, 216240, Note_on_c, 0, 87, 0
2, 216240, Note_on_c, 0, 61, 100
2, 216240, Note_on_c, 0, 73, 100
2, 216240, Note_on_c, 0, 97, 100
2, 216240, Note_on_c, 0, 85, 100
2, 216320, Note_on_c, 0, 61, 0
2, 216320, Note_on_c, 0, 73, 0
2, 216320, Note_on_c, 0, 97, 0
2, 216320, Note_on_c, 0, 85, 0
2, 216400, Note_on_c, 0, 75, 100
2, 216400, Note_on_c, 0, 99, 100
2, 216400, Note_on_c, 0, 87, 100
2, 216480, Note_on_c, 0, 75, 0
2, 216480, Note_on_c, 0, 99, 0
2, 216480, Note_on_c, 0, 87, 0
2, 216560, Note_on_c, 0, 98, 100
2, 216560, Note_on_c, 0, 86, 100
2, 216640, Note_on_c, 0, 98, 0
2, 216640, Note_on_c, 0, 86, 0
2, 216720, Note_on_c, 0, 74, 100
2, 216720, Note_on_c, 0, 61, 100
2, 216720, Note_on_c, 0, 97, 100
2, 216720, Note_on_c, 0, 85, 100
2, 216840, Note_on_c, 0, 74, 0
2, 216840, Note_on_c, 0, 61, 0
2, 216840, Note_on_c, 0, 97, 0
2, 216840, Note_on_c, 0, 85, 0
2, 216880, Note_on_c, 0, 98, 100
2, 216880, Note_on_c, 0, 86, 100
2, 216960, Note_on_c, 0, 98, 0
2, 216960, Note_on_c, 0, 86, 0
2, 216960, Note_on_c, 0, 99, 100
2, 216960, Note_on_c, 0, 87, 100
2, 217040, Note_on_c, 0, 99, 0
2, 217040, Note_on_c, 0, 87, 0
2, 217040, Note_on_c, 0, 98, 100
2, 217040, Note_on_c, 0, 86, 100
2, 217120, Note_on_c, 0, 98, 0
2, 217120, Note_on_c, 0, 86, 0
2, 217120, Note_on_c, 0, 97, 100
2, 217120, Note_on_c, 0, 85, 100
2, 217200, Note_on_c, 0, 97, 0
2, 217200, Note_on_c, 0, 85, 0
2, 217200, Note_on_c, 0, 96, 100
2, 217200, Note_on_c, 0, 84, 100
2, 217280, Note_on_c, 0, 96, 0
2, 217280, Note_on_c, 0, 84, 0
2, 217280, Note_on_c, 0, 60, 100
2, 217280, Note_on_c, 0, 73, 100
2, 217320, Note_on_c, 0, 97, 100
2, 217320, Note_on_c, 0, 85, 100
2, 217360, Note_on_c, 0, 73, 0
2, 217400, Note_on_c, 0, 60, 0
2, 217800, Note_on_c, 0, 97, 0
2, 217800, Note_on_c, 0, 85, 0
2, 217850, Note_on_c, 0, 106, 0
2, 217850, Note_on_c, 0, 82, 0
2, 217850, Note_on_c, 0, 70, 0
2, 217850, Note_on_c, 0, 94, 0
2, 217890, Note_on_c, 0, 81, 100
2, 217890, Note_on_c, 0, 69, 100
2, 217890, Note_on_c, 0, 93, 100
2, 217890, Note_on_c, 0, 105, 100
2, 217920, Note_on_c, 0, 86, 100
2, 217920, Note_on_c, 0, 61, 100
2, 217920, Note_on_c, 0, 73, 100
2, 217920, Note_on_c, 0, 98, 100
2, 218480, Note_on_c, 0, 86, 0
2, 218480, Note_on_c, 0, 61, 0
2, 218480, Note_on_c, 0, 73, 0
2, 218480, Note_on_c, 0, 98, 0
2, 218560, Note_on_c, 0, 73, 100
2, 218560, Note_on_c, 0, 61, 100
2, 218560, Note_on_c, 0, 86, 100
2, 218560, Note_on_c, 0, 98, 100
2, 218720, Note_on_c, 0, 73, 0
2, 218720, Note_on_c, 0, 61, 0
2, 218720, Note_on_c, 0, 86, 0
2, 218720, Note_on_c, 0, 98, 0
2, 218720, Note_on_c, 0, 86, 100
2, 218720, Note_on_c, 0, 98, 100
2, 218880, Note_on_c, 0, 86, 0
2, 218880, Note_on_c, 0, 98, 0
2, 218880, Note_on_c, 0, 87, 100
2, 218880, Note_on_c, 0, 62, 100
2, 218880, Note_on_c, 0, 74, 100
2, 218880, Note_on_c, 0, 99, 100
2, 219000, Note_on_c, 0, 62, 0
2, 219040, Note_on_c, 0, 87, 0
2, 219040, Note_on_c, 0, 74, 0
2, 219040, Note_on_c, 0, 99, 0
2, 219040, Note_on_c, 0, 75, 100
2, 219040, Note_on_c, 0, 88, 100
2, 219040, Note_on_c, 0, 100, 100
2, 219200, Note_on_c, 0, 75, 0
2, 219200, Note_on_c, 0, 88, 0
2, 219200, Note_on_c, 0, 100, 0
2, 219520, Note_on_c, 0, 75, 100
2, 219520, Note_on_c, 0, 62, 100
2, 219520, Note_on_c, 0, 88, 100
2, 219520, Note_on_c, 0, 100, 100
2, 219680, Note_on_c, 0, 75, 0
2, 219680, Note_on_c, 0, 62, 0
2, 219680, Note_on_c, 0, 88, 0
2, 219680, Note_on_c, 0, 100, 0
2, 219840, Note_on_c, 0, 88, 100
2, 219840, Note_on_c, 0, 62, 100
2, 219840, Note_on_c, 0, 75, 100
2, 219840, Note_on_c, 0, 100, 100
2, 219920, Note_on_c, 0, 88, 0
2, 219920, Note_on_c, 0, 62, 0
2, 219920, Note_on_c, 0, 75, 0
2, 219920, Note_on_c, 0, 100, 0
2, 219960, Note_on_c, 0, 99, 100
2, 220040, Note_on_c, 0, 99, 0
2, 220080, Note_on_c, 0, 87, 100
2, 220080, Note_on_c, 0, 98, 100
2, 220160, Note_on_c, 0, 87, 0
2, 220160, Note_on_c, 0, 98, 0
2, 220160, Note_on_c, 0, 73, 100
2, 220160, Note_on_c, 0, 61, 100
2, 220160, Note_on_c, 0, 86, 100
2, 220200, Note_on_c, 0, 98, 100
2, 220720, Note_on_c, 0, 73, 0
2, 220720, Note_on_c, 0, 61, 0
2, 220720, Note_on_c, 0, 86, 0
2, 220760, Note_on_c, 0, 98, 0
2, 220800, Note_on_c, 0, 86, 100
2, 220800, Note_on_c, 0, 61, 100
2, 220800, Note_on_c, 0, 73, 100
2, 220800, Note_on_c, 0, 98, 100
2, 221360, Note_on_c, 0, 86, 0
2, 221360, Note_on_c, 0, 61, 0
2, 221360, Note_on_c, 0, 73, 0
2, 221360, Note_on_c, 0, 98, 0
2, 221410, Note_on_c, 0, 81, 0
2, 221410, Note_on_c, 0, 69, 0
2, 221410, Note_on_c, 0, 93, 0
2, 221410, Note_on_c, 0, 105, 0
2, 221410, Note_on_c, 0, 82, 100
2, 221410, Note_on_c, 0, 70, 100
2, 221410, Note_on_c, 0, 94, 100
2, 221410, Note_on_c, 0, 106, 100
2, 221440, Note_on_c, 0, 73, 100
2, 221440, Note_on_c, 0, 61, 100
2, 221440, Note_on_c, 0, 86, 100
2, 221440, Note_on_c, 0, 98, 100
2, 221600, Note_on_c, 0, 73, 0
2, 221600, Note_on_c, 0, 61, 0
2, 221600, Note_on_c, 0, 86, 0
2, 221600, Note_on_c, 0, 98, 0
2, 221600, Note_on_c, 0, 86, 100
2, 221600, Note_on_c, 0, 98, 100
2, 221760, Note_on_c, 0, 86, 0
2, 221760, Note_on_c, 0, 98, 0
2, 221760, Note_on_c, 0, 87, 100
2, 221760, Note_on_c, 0, 62, 100
2, 221760, Note_on_c, 0, 74, 100
2, 221760, Note_on_c, 0, 99, 100
2, 222400, Note_on_c, 0, 87, 0
2, 222400, Note_on_c, 0, 62, 0
2, 222400, Note_on_c, 0, 74, 0
2, 222400, Note_on_c, 0, 99, 0
2, 222400, Note_on_c, 0, 73, 100
2, 222400, Note_on_c, 0, 61, 100
2, 222400, Note_on_c, 0, 86, 100
2, 222400, Note_on_c, 0, 98, 100
2, 222560, Note_on_c, 0, 73, 0
2, 222560, Note_on_c, 0, 61, 0
2, 222560, Note_on_c, 0, 86, 0
2, 222560, Note_on_c, 0, 98, 0
2, 222560, Note_on_c, 0, 86, 100
2, 222560, Note_on_c, 0, 98, 100
2, 222720, Note_on_c, 0, 86, 0
2, 222720, Note_on_c, 0, 98, 0
2, 222720, Note_on_c, 0, 87, 100
2, 222720, Note_on_c, 0, 62, 100
2, 222720, Note_on_c, 0, 74, 100
2, 222720, Note_on_c, 0, 99, 100
2, 222880, Note_on_c, 0, 87, 0
2, 222880, Note_on_c, 0, 62, 0
2, 222880, Note_on_c, 0, 74, 0
2, 222880, Note_on_c, 0, 99, 0
2, 222880, Note_on_c, 0, 75, 100
2, 222880, Note_on_c, 0, 88, 100
2, 222880, Note_on_c, 0, 100, 100
2, 223040, Note_on_c, 0, 75, 0
2, 223040, Note_on_c, 0, 88, 0
2, 223040, Note_on_c, 0, 100, 0
2, 223330, Note_on_c, 0, 81, 100
2, 223330, Note_on_c, 0, 69, 100
2, 223330, Note_on_c, 0, 93, 100
2, 223330, Note_on_c, 0, 105, 100
2, 223330, Note_on_c, 0, 67, 100
2, 223330, Note_on_c, 0, 79, 100
2, 223330, Note_on_c, 0, 91, 100
2, 223330, Note_on_c, 0, 103, 100
2, 223360, Note_on_c, 0, 75, 100
2, 223360, Note_on_c, 0, 62, 100
2, 223360, Note_on_c, 0, 88, 100
2, 223360, Note_on_c, 0, 100, 100
2, 223440, Note_on_c, 0, 88, 0
2, 223440, Note_on_c, 0, 100, 0
2, 223440, Note_on_c, 0, 88, 100
2, 223440, Note_on_c, 0, 100, 100
2, 223520, Note_on_c, 0, 88, 0
2, 223520, Note_on_c, 0, 100, 0
2, 223520, Note_on_c, 0, 88, 100
2, 223520, Note_on_c, 0, 100, 100
2, 223600, Note_on_c, 0, 88, 0
2, 223600, Note_on_c, 0, 100, 0
2, 223600, Note_on_c, 0, 88, 100
2, 223600, Note_on_c, 0, 100, 100
2, 223680, Note_on_c, 0, 88, 0
2, 223680, Note_on_c, 0, 100, 0
2, 223680, Note_on_c, 0, 88, 100
2, 223680, Note_on_c, 0, 100, 100
2, 223760, Note_on_c, 0, 88, 0
2, 223760, Note_on_c, 0, 100, 0
2, 223760, Note_on_c, 0, 88, 100
2, 223760, Note_on_c, 0, 100, 100
2, 223840, Note_on_c, 0, 88, 0
2, 223840, Note_on_c, 0, 100, 0
2, 223840, Note_on_c, 0, 88, 100
2, 223840, Note_on_c, 0, 100, 100
2, 223920, Note_on_c, 0, 88, 0
2, 223920, Note_on_c, 0, 100, 0
2, 223920, Note_on_c, 0, 88, 100
2, 223920, Note_on_c, 0, 100, 100
2, 224000, Note_on_c, 0, 88, 0
2, 224000, Note_on_c, 0, 100, 0
2, 224000, Note_on_c, 0, 88, 100
2, 224000, Note_on_c, 0, 100, 100
2, 224080, Note_on_c, 0, 88, 0
2, 224080, Note_on_c, 0, 100, 0
2, 224080, Note_on_c, 0, 88, 100
2, 224080, Note_on_c, 0, 100, 100
2, 224160, Note_on_c, 0, 88, 0
2, 224160, Note_on_c, 0, 100, 0
2, 224160, Note_on_c, 0, 88, 100
2, 224160, Note_on_c, 0, 100, 100
2, 224240, Note_on_c, 0, 88, 0
2, 224240, Note_on_c, 0, 100, 0
2, 224240, Note_on_c, 0, 88, 100
2, 224240, Note_on_c, 0, 100, 100
2, 224320, Note_on_c, 0, 88, 0
2, 224320, Note_on_c, 0, 100, 0
2, 224320, Note_on_c, 0, 88, 100
2, 224320, Note_on_c, 0, 100, 100
2, 224400, Note_on_c, 0, 88, 0
2, 224400, Note_on_c, 0, 100, 0
2, 224400, Note_on_c, 0, 88, 100
2, 224400, Note_on_c, 0, 100, 100
2, 224480, Note_on_c, 0, 88, 0
2, 224480, Note_on_c, 0, 100, 0
2, 224480, Note_on_c, 0, 88, 100
2, 224480, Note_on_c, 0, 100, 100
2, 224560, Note_on_c, 0, 88, 0
2, 224560, Note_on_c, 0, 100, 0
2, 224560, Note_on_c, 0, 88, 100
2, 224560, Note_on_c, 0, 100, 100
2, 224640, Note_on_c, 0, 88, 0
2, 224640, Note_on_c, 0, 100, 0
2, 224640, Note_on_c, 0, 88, 100
2, 224640, Note_on_c, 0, 100, 100
2, 224720, Note_on_c, 0, 88, 0
2, 224720, Note_on_c, 0, 100, 0
2, 224720, Note_on_c, 0, 88, 100
2, 224720, Note_on_c, 0, 100, 100
2, 224800, Note_on_c, 0, 88, 0
2, 224800, Note_on_c, 0, 100, 0
2, 224800, Note_on_c, 0, 88, 100
2, 224800, Note_on_c, 0, 100, 100
2, 224880, Note_on_c, 0, 88, 0
2, 224880, Note_on_c, 0, 100, 0
2, 224880, Note_on_c, 0, 88, 100
2, 224880, Note_on_c, 0, 100, 100
2, 224960, Note_on_c, 0, 88, 0
2, 224960, Note_on_c, 0, 100, 0
2, 224960, Note_on_c, 0, 88, 100
2, 224960, Note_on_c, 0, 100, 100
2, 225040, Note_on_c, 0, 88, 0
2, 225040, Note_on_c, 0, 100, 0
2, 225040, Note_on_c, 0, 88, 100
2, 225040, Note_on_c, 0, 100, 100
2, 225120, Note_on_c, 0, 88, 0
2, 225120, Note_on_c, 0, 100, 0
2, 225120, Note_on_c, 0, 88, 100
2, 225120, Note_on_c, 0, 100, 100
2, 225160, Note_on_c, 0, 62, 0
2, 225200, Note_on_c, 0, 88, 0
2, 225200, Note_on_c, 0, 100, 0
2, 225200, Note_on_c, 0, 88, 100
2, 225200, Note_on_c, 0, 100, 100
2, 225250, Note_on_c, 0, 91, 0
2, 225250, Note_on_c, 0, 103, 0
2, 225280, Note_on_c, 0, 75, 0
2, 225280, Note_on_c, 0, 88, 0
2, 225280, Note_on_c, 0, 100, 0
2, 225280, Note_on_c, 0, 62, 100
2, 225280, Note_on_c, 0, 74, 100
2, 225280, Note_on_c, 0, 87, 100
2, 225280, Note_on_c, 0, 99, 100
2, 225360, Note_on_c, 0, 74, 0
2, 225360, Note_on_c, 0, 87, 0
2, 225360, Note_on_c, 0, 99, 0
2, 225440, Note_on_c, 0, 87, 100
2, 225440, Note_on_c, 0, 99, 100
2, 225520, Note_on_c, 0, 87, 0
2, 225520, Note_on_c, 0, 99, 0
2, 225600, Note_on_c, 0, 87, 100
2, 225600, Note_on_c, 0, 74, 100
2, 225600, Note_on_c, 0, 99, 100
2, 225680, Note_on_c, 0, 87, 0
2, 225680, Note_on_c, 0, 99, 0
2, 225760, Note_on_c, 0, 74, 0
2, 225760, Note_on_c, 0, 87, 100
2, 225760, Note_on_c, 0, 99, 100
2, 225840, Note_on_c, 0, 87, 0
2, 225840, Note_on_c, 0, 99, 0
2, 225880, Note_on_c, 0, 62, 0
2, 225920, Note_on_c, 0, 73, 100
2, 225920, Note_on_c, 0, 61, 100
2, 225920, Note_on_c, 0, 86, 100
2, 225920, Note_on_c, 0, 98, 100
2, 226000, Note_on_c, 0, 73, 0
2, 226000, Note_on_c, 0, 61, 0
2, 226000, Note_on_c, 0, 86, 0
2, 226000, Note_on_c, 0, 98, 0
2, 226160, Note_on_c, 0, 73, 100
2, 226160, Note_on_c, 0, 61, 100
2, 226160, Note_on_c, 0, 86, 100
2, 226160, Note_on_c, 0, 98, 100
2, 226240, Note_on_c, 0, 73, 0
2, 226240, Note_on_c, 0, 61, 0
2, 226240, Note_on_c, 0, 86, 0
2, 226240, Note_on_c, 0, 98, 0
2, 226400, Note_on_c, 0, 73, 100
2, 226400, Note_on_c, 0, 61, 100
2, 226400, Note_on_c, 0, 86, 100
2, 226400, Note_on_c, 0, 98, 100
2, 226480, Note_on_c, 0, 73, 0
2, 226480, Note_on_c, 0, 61, 0
2, 226480, Note_on_c, 0, 86, 0
2, 226480, Note_on_c, 0, 98, 0
2, 226530, Note_on_c, 0, 67, 0
2, 226530, Note_on_c, 0, 79, 0
2, 226560, Note_on_c, 0, 62, 100
2, 226560, Note_on_c, 0, 74, 100
2, 226560, Note_on_c, 0, 99, 100
2, 226560, Note_on_c, 0, 87, 100
2, 226680, Note_on_c, 0, 99, 0
2, 226680, Note_on_c, 0, 87, 0
2, 226680, Note_on_c, 0, 98, 100
2, 226680, Note_on_c, 0, 86, 100
2, 226720, Note_on_c, 0, 62, 0
2, 226720, Note_on_c, 0, 74, 0
2, 226760, Note_on_c, 0, 98, 0
2, 226760, Note_on_c, 0, 86, 0
2, 226800, Note_on_c, 0, 97, 100
2, 226800, Note_on_c, 0, 85, 100
2, 226880, Note_on_c, 0, 72, 100
2, 226880, Note_on_c, 0, 60, 100
2, 226960, Note_on_c, 0, 97, 0
2, 226960, Note_on_c, 0, 85, 0
2, 227040, Note_on_c, 0, 72, 0
2, 227040, Note_on_c, 0, 60, 0
2, 227520, Note_on_c, 0, 85, 100
2, 227520, Note_on_c, 0, 60, 100
2, 227520, Note_on_c, 0, 72, 100
2, 227520, Note_on_c, 0, 97, 100
2, 227626, Note_on_c, 0, 85, 0
2, 227626, Note_on_c, 0, 60, 0
2, 227626, Note_on_c, 0, 72, 0
2, 227626, Note_on_c, 0, 97, 0
2, 227810, Note_on_c, 0, 82, 0
2, 227810, Note_on_c, 0, 70, 0
2, 227810, Note_on_c, 0, 94, 0
2, 227810, Note_on_c, 0, 106, 0
2, 228162, Note_on_c, 0, 72, 100
2, 228162, Note_on_c, 0, 60, 100
2, 228162, Note_on_c, 0, 85, 100
2, 228162, Note_on_c, 0, 97, 100
2, 228242, Note_on_c, 0, 72, 0
2, 228242, Note_on_c, 0, 60, 0
2, 228242, Note_on_c, 0, 85, 0
2, 228242, Note_on_c, 0, 97, 0
2, 228320, Note_on_c, 0, 85, 100
2, 228320, Note_on_c, 0, 97, 100
2, 228400, Note_on_c, 0, 85, 0
2, 228400, Note_on_c, 0, 97, 0
2, 228480, Note_on_c, 0, 86, 100
2, 228480, Note_on_c, 0, 62, 100
2, 228480, Note_on_c, 0, 74, 100
2, 228480, Note_on_c, 0, 98, 100
2, 228586, Note_on_c, 0, 86, 0
2, 228586, Note_on_c, 0, 62, 0
2, 228586, Note_on_c, 0, 74, 0
2, 228586, Note_on_c, 0, 98, 0
2, 228600, Note_on_c, 0, 87, 100
2, 228600, Note_on_c, 0, 100, 100
2, 228708, Note_on_c, 0, 87, 0
2, 228708, Note_on_c, 0, 100, 0
2, 228800, Note_on_c, 0, 73, 100
2, 228800, Note_on_c, 0, 61, 100
2, 228800, Note_on_c, 0, 86, 100
2, 228800, Note_on_c, 0, 98, 100
2, 228960, Note_on_c, 0, 73, 0
2, 228960, Note_on_c, 0, 61, 0
2, 228960, Note_on_c, 0, 86, 0
2, 228960, Note_on_c, 0, 98, 0
2, 229440, Note_on_c, 0, 88, 100
2, 229440, Note_on_c, 0, 87, 100
2, 229440, Note_on_c, 0, 62, 100
2, 229440, Note_on_c, 0, 75, 100
2, 229440, Note_on_c, 0, 100, 100
2, 229440, Note_on_c, 0, 99, 100
2, 229546, Note_on_c, 0, 88, 0
2, 229546, Note_on_c, 0, 87, 0
2, 229546, Note_on_c, 0, 62, 0
2, 229546, Note_on_c, 0, 75, 0
2, 229546, Note_on_c, 0, 100, 0
2, 229546, Note_on_c, 0, 99, 0
2, 230370, Note_on_c, 0, 106, 100
2, 230370, Note_on_c, 0, 94, 100
2, 230370, Note_on_c, 0, 82, 100
2, 230370, Note_on_c, 0, 70, 100
2, 230400, Note_on_c, 0, 60, 100
2, 230400, Note_on_c, 0, 73, 100
2, 230400, Note_on_c, 0, 97, 100
2, 230400, Note_on_c, 0, 85, 100
2, 230506, Note_on_c, 0, 60, 0
2, 230506, Note_on_c, 0, 73, 0
2, 230506, Note_on_c, 0, 97, 0
2, 230506, Note_on_c, 0, 85, 0
2, 230640, Note_on_c, 0, 97, 100
2, 230640, Note_on_c, 0, 85, 100
2, 230720, Note_on_c, 0, 97, 0
2, 230720, Note_on_c, 0, 85, 0
2, 230800, Note_on_c, 0, 75, 100
2, 230800, Note_on_c, 0, 61, 100
2, 230800, Note_on_c, 0, 98, 100
2, 230800, Note_on_c, 0, 86, 100
2, 230880, Note_on_c, 0, 75, 0
2, 230880, Note_on_c, 0, 61, 0
2, 230880, Note_on_c, 0, 98, 0
2, 230880, Note_on_c, 0, 86, 0
2, 230960, Note_on_c, 0, 97, 100
2, 230960, Note_on_c, 0, 85, 100
2, 231066, Note_on_c, 0, 97, 0
2, 231066, Note_on_c, 0, 85, 0
2, 231120, Note_on_c, 0, 62, 100
2, 231120, Note_on_c, 0, 74, 100
2, 231120, Note_on_c, 0, 100, 100
2, 231120, Note_on_c, 0, 88, 100
2, 231200, Note_on_c, 0, 62, 0
2, 231200, Note_on_c, 0, 74, 0
2, 231200, Note_on_c, 0, 100, 0
2, 231200, Note_on_c, 0, 88, 0
2, 231360, Note_on_c, 0, 74, 100
2, 231360, Note_on_c, 0, 61, 100
2, 231360, Note_on_c, 0, 99, 100
2, 231360, Note_on_c, 0, 87, 100
2, 231440, Note_on_c, 0, 74, 0
2, 231440, Note_on_c, 0, 61, 0
2, 231440, Note_on_c, 0, 99, 0
2, 231440, Note_on_c, 0, 87, 0
2, 231440, Note_on_c, 0, 98, 100
2, 231520, Note_on_c, 0, 73, 100
2, 231520, Note_on_c, 0, 60, 100
2, 231520, Note_on_c, 0, 97, 100
2, 231520, Note_on_c, 0, 85, 100
2, 231522, Note_on_c, 0, 98, 0
2, 231600, Note_on_c, 0, 98, 100
2, 231600, Note_on_c, 0, 86, 100
2, 231602, Note_on_c, 0, 73, 0
2, 231602, Note_on_c, 0, 60, 0
2, 231602, Note_on_c, 0, 97, 0
2, 231602, Note_on_c, 0, 85, 0
2, 231680, Note_on_c, 0, 75, 100
2, 231680, Note_on_c, 0, 99, 100
2, 231680, Note_on_c, 0, 87, 100
2, 231682, Note_on_c, 0, 98, 0
2, 231682, Note_on_c, 0, 86, 0
2, 231762, Note_on_c, 0, 75, 0
2, 231762, Note_on_c, 0, 99, 0
2, 231762, Note_on_c, 0, 87, 0
2, 231800, Note_on_c, 0, 100, 100
2, 231800, Note_on_c, 0, 88, 100
2, 231840, Note_on_c, 0, 62, 100
2, 231920, Note_on_c, 0, 100, 0
2, 231920, Note_on_c, 0, 88, 0
2, 231920, Note_on_c, 0, 74, 100
2, 231920, Note_on_c, 0, 99, 100
2, 231920, Note_on_c, 0, 87, 100
2, 231922, Note_on_c, 0, 62, 0
2, 232000, Note_on_c, 0, 74, 0
2, 232000, Note_on_c, 0, 99, 0
2, 232000, Note_on_c, 0, 87, 0
2, 232000, Note_on_c, 0, 98, 100
2, 232000, Note_on_c, 0, 86, 100
2, 232080, Note_on_c, 0, 98, 0
2, 232080, Note_on_c, 0, 86, 0
2, 232120, Note_on_c, 0, 74, 100
2, 232120, Note_on_c, 0, 61, 100
2, 232120, Note_on_c, 0, 97, 100
2, 232120, Note_on_c, 0, 85, 100
2, 232240, Note_on_c, 0, 74, 0
2, 232240, Note_on_c, 0, 61, 0
2, 232240, Note_on_c, 0, 97, 0
2, 232240, Note_on_c, 0, 85, 0
2, 232240, Note_on_c, 0, 98, 100
2, 232240, Note_on_c, 0, 86, 100
2, 232320, Note_on_c, 0, 62, 100
2, 232320, Note_on_c, 0, 75, 100
2, 232320, Note_on_c, 0, 99, 100
2, 232320, Note_on_c, 0, 87, 100
2, 232322, Note_on_c, 0, 98, 0
2, 232322, Note_on_c, 0, 86, 0
2, 232426, Note_on_c, 0, 62, 0
2, 232426, Note_on_c, 0, 75, 0
2, 232426, Note_on_c, 0, 99, 0
2, 232426, Note_on_c, 0, 87, 0
2, 232440, Note_on_c, 0, 98, 100
2, 232440, Note_on_c, 0, 86, 100
2, 232546, Note_on_c, 0, 98, 0
2, 232546, Note_on_c, 0, 86, 0
2, 232560, Note_on_c, 0, 61, 100
2, 232560, Note_on_c, 0, 74, 100
2, 232560, Note_on_c, 0, 97, 100
2, 232560, Note_on_c, 0, 85, 100
2, 232668, Note_on_c, 0, 61, 0
2, 232668, Note_on_c, 0, 74, 0
2, 232668, Note_on_c, 0, 97, 0
2, 232668, Note_on_c, 0, 85, 0
2, 232680, Note_on_c, 0, 96, 100
2, 232786, Note_on_c, 0, 96, 0
2, 232800, Note_on_c, 0, 60, 100
2, 232800, Note_on_c, 0, 73, 100
2, 232800, Note_on_c, 0, 98, 100
2, 232800, Note_on_c, 0, 86, 100
2, 232880, Note_on_c, 0, 60, 0
2, 232880, Note_on_c, 0, 73, 0
2, 232880, Note_on_c, 0, 98, 0
2, 232880, Note_on_c, 0, 86, 0
2, 232880, Note_on_c, 0, 99, 100
2, 232880, Note_on_c, 0, 87, 100
2, 232958, Note_on_c, 0, 99, 0
2, 232958, Note_on_c, 0, 87, 0
2, 232960, Note_on_c, 0, 75, 100
2, 232960, Note_on_c, 0, 62, 100
2, 232960, Note_on_c, 0, 98, 100
2, 232960, Note_on_c, 0, 86, 100
2, 233040, Note_on_c, 0, 75, 0
2, 233040, Note_on_c, 0, 62, 0
2, 233040, Note_on_c, 0, 98, 0
2, 233040, Note_on_c, 0, 86, 0
2, 233064, Note_on_c, 0, 97, 100
2, 233064, Note_on_c, 0, 85, 100
2, 233170, Note_on_c, 0, 97, 0
2, 233170, Note_on_c, 0, 85, 0
2, 233170, Note_on_c, 0, 96, 100
2, 233276, Note_on_c, 0, 96, 0
2, 233280, Note_on_c, 0, 61, 100
2, 233280, Note_on_c, 0, 73, 100
2, 233280, Note_on_c, 0, 98, 100
2, 233280, Note_on_c, 0, 86, 100
2, 233360, Note_on_c, 0, 98, 0
2, 233360, Note_on_c, 0, 86, 0
2, 233360, Note_on_c, 0, 99, 100
2, 233360, Note_on_c, 0, 87, 100
2, 233388, Note_on_c, 0, 61, 0
2, 233388, Note_on_c, 0, 73, 0
2, 233468, Note_on_c, 0, 99, 0
2, 233468, Note_on_c, 0, 87, 0
2, 233600, Note_on_c, 0, 75, 100
2, 233600, Note_on_c, 0, 62, 100
2, 233600, Note_on_c, 0, 88, 100
2, 233600, Note_on_c, 0, 100, 100
2, 233600, Note_on_c, 0, 99, 100
2, 233680, Note_on_c, 0, 75, 0
2, 233680, Note_on_c, 0, 62, 0
2, 233680, Note_on_c, 0, 88, 0
2, 233680, Note_on_c, 0, 100, 0
2, 233680, Note_on_c, 0, 99, 0
2, 233760, Note_on_c, 0, 87, 100
2, 233760, Note_on_c, 0, 74, 100
2, 233760, Note_on_c, 0, 99, 100
2, 233840, Note_on_c, 0, 87, 0
2, 233840, Note_on_c, 0, 74, 0
2, 233840, Note_on_c, 0, 99, 0
2, 233840, Note_on_c, 0, 86, 100
2, 233840, Note_on_c, 0, 98, 100
2, 233920, Note_on_c, 0, 86, 0
2, 233920, Note_on_c, 0, 98, 0
2, 233920, Note_on_c, 0, 73, 100
2, 233920, Note_on_c, 0, 61, 100
2, 233920, Note_on_c, 0, 85, 100
2, 233920, Note_on_c, 0, 97, 100
2, 234000, Note_on_c, 0, 73, 0
2, 234000, Note_on_c, 0, 61, 0
2, 234000, Note_on_c, 0, 85, 0
2, 234000, Note_on_c, 0, 97, 0
2, 234000, Note_on_c, 0, 84, 100
2, 234000, Note_on_c, 0, 96, 100
2, 234080, Note_on_c, 0, 84, 0
2, 234080, Note_on_c, 0, 96, 0
2, 234210, Note_on_c, 0, 81, 0
2, 234210, Note_on_c, 0, 69, 0
2, 234210, Note_on_c, 0, 93, 0
2, 234210, Note_on_c, 0, 105, 0
2, 234240, Note_on_c, 0, 62, 100
2, 234240, Note_on_c, 0, 74, 100
2, 234240, Note_on_c, 0, 100, 100
2, 234240, Note_on_c, 0, 88, 100
2, 234400, Note_on_c, 0, 62, 0
2, 234400, Note_on_c, 0, 74, 0
2, 234400, Note_on_c, 0, 100, 0
2, 234400, Note_on_c, 0, 88, 0
2, 234440, Note_on_c, 0, 99, 100
2, 234440, Note_on_c, 0, 87, 100
2, 234440, Note_on_c, 0, 73, 100
2, 234440, Note_on_c, 0, 61, 100
2, 234600, Note_on_c, 0, 99, 0
2, 234600, Note_on_c, 0, 87, 0
2, 234600, Note_on_c, 0, 73, 0
2, 234600, Note_on_c, 0, 61, 0
2, 234600, Note_on_c, 0, 98, 100
2, 234600, Note_on_c, 0, 86, 100
2, 234760, Note_on_c, 0, 98, 0
2, 234760, Note_on_c, 0, 86, 0
2, 234800, Note_on_c, 0, 97, 100
2, 234960, Note_on_c, 0, 97, 0
2, 234960, Note_on_c, 0, 96, 100
2, 234960, Note_on_c, 0, 84, 100
2, 234960, Note_on_c, 0, 72, 100
2, 234960, Note_on_c, 0, 60, 100
2, 235120, Note_on_c, 0, 96, 0
2, 235120, Note_on_c, 0, 84, 0
2, 235120, Note_on_c, 0, 72, 0
2, 235120, Note_on_c, 0, 60, 0
2, 235120, Note_on_c, 0, 97, 100
2, 235120, Note_on_c, 0, 85, 100
2, 235120, Note_on_c, 0, 73, 100
2, 235120, Note_on_c, 0, 61, 100
2, 235280, Note_on_c, 0, 97, 0
2, 235280, Note_on_c, 0, 85, 0
2, 235280, Note_on_c, 0, 73, 0
2, 235280, Note_on_c, 0, 61, 0
2, 235280, Note_on_c, 0, 98, 100
2, 235280, Note_on_c, 0, 86, 100
2, 235400, Note_on_c, 0, 98, 0
2, 235400, Note_on_c, 0, 86, 0
2, 235400, Note_on_c, 0, 99, 100
2, 235470, Note_on_c, 0, 106, 0
2, 235470, Note_on_c, 0, 94, 0
2, 235470, Note_on_c, 0, 82, 0
2, 235470, Note_on_c, 0, 70, 0
2, 235500, Note_on_c, 0, 105, 100
2, 235500, Note_on_c, 0, 93, 100
2, 235500, Note_on_c, 0, 81, 100
2, 235500, Note_on_c, 0, 69, 100
2, 235520, Note_on_c, 0, 99, 0
2, 235520, Note_on_c, 0, 75, 100
2, 235520, Note_on_c, 0, 62, 100
2, 235520, Note_on_c, 0, 100, 100
2, 235520, Note_on_c, 0, 88, 100
2, 235680, Note_on_c, 0, 75, 0
2, 235680, Note_on_c, 0, 62, 0
2, 235680, Note_on_c, 0, 100, 0
2, 235680, Note_on_c, 0, 88, 0
2, 235680, Note_on_c, 0, 98, 100
2, 235680, Note_on_c, 0, 86, 100
2, 235800, Note_on_c, 0, 98, 0
2, 235800, Note_on_c, 0, 86, 0
2, 235830, Note_on_c, 0, 73, 100
2, 235840, Note_on_c, 0, 60, 100
2, 235840, Note_on_c, 0, 97, 100
2, 235840, Note_on_c, 0, 85, 100
2, 235920, Note_on_c, 0, 97, 0
2, 235920, Note_on_c, 0, 85, 0
2, 235920, Note_on_c, 0, 96, 100
2, 235990, Note_on_c, 0, 73, 0
2, 236000, Note_on_c, 0, 60, 0
2, 236000, Note_on_c, 0, 96, 0
2, 236000, Note_on_c, 0, 97, 100
2, 236000, Note_on_c, 0, 85, 100
2, 236080, Note_on_c, 0, 97, 0
2, 236080, Note_on_c, 0, 85, 0
2, 236080, Note_on_c, 0, 98, 100
2, 236080, Note_on_c, 0, 86, 100
2, 236100, Note_on_c, 0, 74, 100
2, 236100, Note_on_c, 0, 61, 100
2, 236160, Note_on_c, 0, 98, 0
2, 236160, Note_on_c, 0, 86, 0
2, 236160, Note_on_c, 0, 99, 100
2, 236160, Note_on_c, 0, 87, 100
2, 236206, Note_on_c, 0, 74, 0
2, 236206, Note_on_c, 0, 61, 0
2, 236220, Note_on_c, 0, 105, 0
2, 236220, Note_on_c, 0, 93, 0
2, 236220, Note_on_c, 0, 81, 0
2, 236220, Note_on_c, 0, 69, 0
2, 236220, Note_on_c, 0, 106, 100
2, 236220, Note_on_c, 0, 82, 100
2, 236220, Note_on_c, 0, 70, 100
2, 236240, Note_on_c, 0, 99, 0
2, 236240, Note_on_c, 0, 87, 0
2, 236240, Note_on_c, 0, 100, 100
2, 236240, Note_on_c, 0, 88, 100
2, 236250, Note_on_c, 0, 94, 100
2, 236250, Note_on_c, 0, 75, 100
2, 236250, Note_on_c, 0, 62, 100
2, 236356, Note_on_c, 0, 75, 0
2, 236356, Note_on_c, 0, 62, 0
2, 236400, Note_on_c, 0, 100, 0
2, 236400, Note_on_c, 0, 88, 0
2, 236400, Note_on_c, 0, 98, 100
2, 236400, Note_on_c, 0, 86, 100
2, 236506, Note_on_c, 0, 98, 0
2, 236506, Note_on_c, 0, 86, 0
2, 236520, Note_on_c, 0, 97, 100
2, 236580, Note_on_c, 0, 97, 0
2, 236580, Note_on_c, 0, 73, 100
2, 236580, Note_on_c, 0, 60, 100
2, 236600, Note_on_c, 0, 96, 100
2, 236600, Note_on_c, 0, 84, 100
2, 236660, Note_on_c, 0, 96, 0
2, 236660, Note_on_c, 0, 84, 0
2, 236680, Note_on_c, 0, 97, 100
2, 236680, Note_on_c, 0, 85, 100
2, 236688, Note_on_c, 0, 73, 0
2, 236688, Note_on_c, 0, 60, 0
2, 236740, Note_on_c, 0, 97, 0
2, 236740, Note_on_c, 0, 85, 0
2, 236760, Note_on_c, 0, 98, 100
2, 236760, Note_on_c, 0, 86, 100
2, 236820, Note_on_c, 0, 98, 0
2, 236820, Note_on_c, 0, 86, 0
2, 236820, Note_on_c, 0, 74, 100
2, 236840, Note_on_c, 0, 99, 100
2, 236840, Note_on_c, 0, 87, 100
2, 236850, Note_on_c, 0, 61, 100
2, 236928, Note_on_c, 0, 74, 0
2, 236958, Note_on_c, 0, 61, 0
2, 236960, Note_on_c, 0, 99, 0
2, 236960, Note_on_c, 0, 87, 0
2, 237030, Note_on_c, 0, 106, 0
2, 237030, Note_on_c, 0, 82, 0
2, 237030, Note_on_c, 0, 70, 0
2, 237030, Note_on_c, 0, 94, 0
2, 237090, Note_on_c, 0, 105, 100
2, 237090, Note_on_c, 0, 93, 100
2, 237090, Note_on_c, 0, 81, 100
2, 237090, Note_on_c, 0, 69, 100
2, 237120, Note_on_c, 0, 62, 100
2, 237120, Note_on_c, 0, 75, 100
2, 237120, Note_on_c, 0, 100, 100
2, 237120, Note_on_c, 0, 88, 100
2, 237200, Note_on_c, 0, 62, 0
2, 237200, Note_on_c, 0, 75, 0
2, 237200, Note_on_c, 0, 100, 0
2, 237200, Note_on_c, 0, 88, 0
2, 237280, Note_on_c, 0, 74, 100
2, 237280, Note_on_c, 0, 86, 100
2, 237280, Note_on_c, 0, 98, 100
2, 237360, Note_on_c, 0, 74, 0
2, 237360, Note_on_c, 0, 86, 0
2, 237360, Note_on_c, 0, 98, 0
2, 237440, Note_on_c, 0, 73, 100
2, 237440, Note_on_c, 0, 60, 100
2, 237440, Note_on_c, 0, 85, 100
2, 237440, Note_on_c, 0, 97, 100
2, 237600, Note_on_c, 0, 73, 0
2, 237600, Note_on_c, 0, 60, 0
2, 237600, Note_on_c, 0, 85, 0
2, 237600, Note_on_c, 0, 97, 0
2, 237630, Note_on_c, 0, 105, 0
2, 237630, Note_on_c, 0, 93, 0
2, 237630, Note_on_c, 0, 81, 0
2, 237630, Note_on_c, 0, 69, 0
2, 237730, Note_on_c, 0, 106, 100
2, 237730, Note_on_c, 0, 94, 100
2, 237730, Note_on_c, 0, 82, 100
2, 237730, Note_on_c, 0, 70, 100
2, 237760, Note_on_c, 0, 72, 100
2, 237760, Note_on_c, 0, 60, 100
2, 237760, Note_on_c, 0, 84, 100
2, 237760, Note_on_c, 0, 96, 100
2, 237920, Note_on_c, 0, 72, 0
2, 237920, Note_on_c, 0, 60, 0
2, 237920, Note_on_c, 0, 84, 0
2, 237920, Note_on_c, 0, 96, 0
2, 237920, Note_on_c, 0, 72, 100
2, 237920, Note_on_c, 0, 84, 100
2, 237920, Note_on_c, 0, 96, 100
2, 238080, Note_on_c, 0, 72, 0
2, 238080, Note_on_c, 0, 84, 0
2, 238080, Note_on_c, 0, 96, 0
2, 238080, Note_on_c, 0, 85, 100
2, 238080, Note_on_c, 0, 61, 100
2, 238080, Note_on_c, 0, 73, 100
2, 238080, Note_on_c, 0, 97, 100
2, 238240, Note_on_c, 0, 85, 0
2, 238240, Note_on_c, 0, 61, 0
2, 238240, Note_on_c, 0, 73, 0
2, 238240, Note_on_c, 0, 97, 0
2, 238400, Note_on_c, 0, 74, 100
2, 238400, Note_on_c, 0, 61, 100
2, 238400, Note_on_c, 0, 86, 100
2, 238400, Note_on_c, 0, 97, 100
2, 238560, Note_on_c, 0, 74, 0
2, 238560, Note_on_c, 0, 61, 0
2, 238560, Note_on_c, 0, 86, 0
2, 238560, Note_on_c, 0, 97, 0
2, 238560, Note_on_c, 0, 85, 100
2, 238560, Note_on_c, 0, 96, 100
2, 238720, Note_on_c, 0, 85, 0
2, 238720, Note_on_c, 0, 96, 0
2, 238720, Note_on_c, 0, 74, 100
2, 238720, Note_on_c, 0, 61, 100
2, 238720, Note_on_c, 0, 86, 100
2, 238720, Note_on_c, 0, 98, 100
2, 238880, Note_on_c, 0, 74, 0
2, 238880, Note_on_c, 0, 61, 0
2, 238880, Note_on_c, 0, 86, 0
2, 238880, Note_on_c, 0, 98, 0
2, 238880, Note_on_c, 0, 87, 100
2, 238880, Note_on_c, 0, 99, 100
2, 239040, Note_on_c, 0, 87, 0
2, 239040, Note_on_c, 0, 99, 0
2, 239040, Note_on_c, 0, 88, 100
2, 239040, Note_on_c, 0, 62, 100
2, 239040, Note_on_c, 0, 75, 100
2, 239040, Note_on_c, 0, 100, 100
2, 239912, Note_on_c, 0, 88, 0
2, 239912, Note_on_c, 0, 62, 0
2, 239912, Note_on_c, 0, 75, 0
2, 239912, Note_on_c, 0, 100, 0
2, 239950, Note_on_c, 0, 106, 0
2, 239950, Note_on_c, 0, 94, 0
2, 239950, Note_on_c, 0, 82, 0
2, 239950, Note_on_c, 0, 70, 0
2, 239968, Note_on_c, 0, 69, 100
2, 239968, Note_on_c, 0, 105, 100
2, 239968, Note_on_c, 0, 93, 100
2, 239968, Note_on_c, 0, 81, 100
2, 239998, Note_on_c, 0, 74, 100
2, 239998, Note_on_c, 0, 61, 100
2, 239998, Note_on_c, 0, 87, 100
2, 239998, Note_on_c, 0, 98, 100
2, 240556, Note_on_c, 0, 74, 0
2, 240556, Note_on_c, 0, 61, 0
2, 240556, Note_on_c, 0, 87, 0
2, 240556, Note_on_c, 0, 98, 0
2, 240636, Note_on_c, 0, 74, 100
2, 240636, Note_on_c, 0, 61, 100
2, 240636, Note_on_c, 0, 88, 100
2, 240636, Note_on_c, 0, 100, 100
2, 240800, Note_on_c, 0, 74, 0
2, 240800, Note_on_c, 0, 61, 0
2, 240800, Note_on_c, 0, 88, 0
2, 240800, Note_on_c, 0, 100, 0
2, 240800, Note_on_c, 0, 87, 100
2, 240800, Note_on_c, 0, 99, 100
2, 240958, Note_on_c, 0, 87, 0
2, 240958, Note_on_c, 0, 99, 0
2, 240958, Note_on_c, 0, 73, 100
2, 240958, Note_on_c, 0, 60, 100
2, 240958, Note_on_c, 0, 86, 100
2, 240958, Note_on_c, 0, 98, 100
2, 241116, Note_on_c, 0, 73, 0
2, 241116, Note_on_c, 0, 60, 0
2, 241116, Note_on_c, 0, 86, 0
2, 241116, Note_on_c, 0, 98, 0
2, 241116, Note_on_c, 0, 85, 100
2, 241120, Note_on_c, 0, 97, 100
2, 241280, Note_on_c, 0, 85, 0
2, 241280, Note_on_c, 0, 74, 100
2, 241280, Note_on_c, 0, 61, 100
2, 241280, Note_on_c, 0, 86, 100
2, 241280, Note_on_c, 0, 98, 100
2, 241284, Note_on_c, 0, 97, 0
2, 241356, Note_on_c, 0, 74, 0
2, 241356, Note_on_c, 0, 61, 0
2, 241356, Note_on_c, 0, 86, 0
2, 241356, Note_on_c, 0, 98, 0
2, 241356, Note_on_c, 0, 99, 100
2, 241438, Note_on_c, 0, 99, 0
2, 241438, Note_on_c, 0, 87, 100
2, 241438, Note_on_c, 0, 98, 100
2, 241520, Note_on_c, 0, 87, 0
2, 241520, Note_on_c, 0, 98, 0
2, 241520, Note_on_c, 0, 99, 100
2, 241596, Note_on_c, 0, 99, 0
2, 241596, Note_on_c, 0, 72, 100
2, 241596, Note_on_c, 0, 60, 100
2, 241596, Note_on_c, 0, 84, 100
2, 241596, Note_on_c, 0, 97, 100
2, 241678, Note_on_c, 0, 72, 0
2, 241678, Note_on_c, 0, 60, 0
2, 241678, Note_on_c, 0, 84, 0
2, 241678, Note_on_c, 0, 97, 0
2, 241760, Note_on_c, 0, 84, 100
2, 241760, Note_on_c, 0, 96, 100
2, 241920, Note_on_c, 0, 84, 0
2, 241920, Note_on_c, 0, 96, 0
2, 241920, Note_on_c, 0, 87, 100
2, 241920, Note_on_c, 0, 62, 100
2, 241920, Note_on_c, 0, 75, 100
2, 241920, Note_on_c, 0, 98, 100
2, 242480, Note_on_c, 0, 87, 0
2, 242480, Note_on_c, 0, 62, 0
2, 242480, Note_on_c, 0, 75, 0
2, 242480, Note_on_c, 0, 98, 0
2, 242560, Note_on_c, 0, 72, 100
2, 242560, Note_on_c, 0, 60, 100
2, 242560, Note_on_c, 0, 84, 100
2, 242560, Note_on_c, 0, 96, 100
2, 242690, Note_on_c, 0, 69, 0
2, 242690, Note_on_c, 0, 105, 0
2, 242690, Note_on_c, 0, 93, 0
2, 242690, Note_on_c, 0, 81, 0
2, 242720, Note_on_c, 0, 72, 0
2, 242720, Note_on_c, 0, 60, 0
2, 242720, Note_on_c, 0, 84, 0
2, 242720, Note_on_c, 0, 96, 0
2, 242850, Note_on_c, 0, 82, 100
2, 242850, Note_on_c, 0, 70, 100
2, 242850, Note_on_c, 0, 94, 100
2, 242850, Note_on_c, 0, 106, 100
2, 242880, Note_on_c, 0, 61, 100
2, 242880, Note_on_c, 0, 74, 100
2, 242880, Note_on_c, 0, 98, 100
2, 242880, Note_on_c, 0, 86, 100
2, 243000, Note_on_c, 0, 98, 0
2, 243000, Note_on_c, 0, 86, 0
2, 243038, Note_on_c, 0, 61, 0
2, 243038, Note_on_c, 0, 74, 0
2, 243120, Note_on_c, 0, 98, 100
2, 243120, Note_on_c, 0, 86, 100
2, 243240, Note_on_c, 0, 98, 0
2, 243240, Note_on_c, 0, 86, 0
2, 243240, Note_on_c, 0, 100, 100
2, 243240, Note_on_c, 0, 88, 100
2, 243240, Note_on_c, 0, 75, 100
2, 243240, Note_on_c, 0, 62, 100
2, 243318, Note_on_c, 0, 75, 0
2, 243318, Note_on_c, 0, 62, 0
2, 243360, Note_on_c, 0, 100, 0
2, 243360, Note_on_c, 0, 88, 0
2, 243360, Note_on_c, 0, 99, 100
2, 243360, Note_on_c, 0, 87, 100
2, 243440, Note_on_c, 0, 99, 0
2, 243440, Note_on_c, 0, 87, 0
2, 243440, Note_on_c, 0, 98, 100
2, 243440, Note_on_c, 0, 86, 100
2, 243518, Note_on_c, 0, 98, 0
2, 243518, Note_on_c, 0, 86, 0
2, 243560, Note_on_c, 0, 98, 100
2, 243560, Note_on_c, 0, 86, 100
2, 243560, Note_on_c, 0, 74, 100
2, 243560, Note_on_c, 0, 61, 100
2, 243640, Note_on_c, 0, 98, 0
2, 243640, Note_on_c, 0, 86, 0
2, 243640, Note_on_c, 0, 74, 0
2, 243640, Note_on_c, 0, 61, 0
2, 243840, Note_on_c, 0, 61, 100
2, 243840, Note_on_c, 0, 74, 100
2, 243840, Note_on_c, 0, 98, 100
2, 243840, Note_on_c, 0, 86, 100
2, 243920, Note_on_c, 0, 61, 0
2, 243920, Note_on_c, 0, 74, 0
2, 243920, Note_on_c, 0, 98, 0
2, 243920, Note_on_c, 0, 86, 0
2, 243960, Note_on_c, 0, 97, 100
2, 243960, Note_on_c, 0, 85, 100
2, 244000, Note_on_c, 0, 73, 100
2, 244040, Note_on_c, 0, 97, 0
2, 244040, Note_on_c, 0, 85, 0
2, 244080, Note_on_c, 0, 73, 0
2, 244080, Note_on_c, 0, 60, 100
2, 244080, Note_on_c, 0, 96, 100
2, 244080, Note_on_c, 0, 84, 100
2, 244160, Note_on_c, 0, 60, 0
2, 244160, Note_on_c, 0, 96, 0
2, 244160, Note_on_c, 0, 84, 0
2, 244160, Note_on_c, 0, 73, 100
2, 244200, Note_on_c, 0, 97, 100
2, 244200, Note_on_c, 0, 85, 100
2, 244720, Note_on_c, 0, 73, 0
2, 244758, Note_on_c, 0, 97, 0
2, 244758, Note_on_c, 0, 85, 0
2, 244770, Note_on_c, 0, 82, 0
2, 244770, Note_on_c, 0, 70, 0
2, 244770, Note_on_c, 0, 94, 0
2, 244770, Note_on_c, 0, 106, 0
2, 244770, Note_on_c, 0, 81, 100
2, 244770, Note_on_c, 0, 69, 100
2, 244770, Note_on_c, 0, 93, 100
2, 244770, Note_on_c, 0, 105, 100
2, 244800, Note_on_c, 0, 88, 100
2, 244800, Note_on_c, 0, 62, 100
2, 244800, Note_on_c, 0, 75, 100
2, 244800, Note_on_c, 0, 100, 100
2, 244958, Note_on_c, 0, 88, 0
2, 244958, Note_on_c, 0, 62, 0
2, 244958, Note_on_c, 0, 75, 0
2, 244958, Note_on_c, 0, 100, 0
2, 244960, Note_on_c, 0, 87, 100
2, 244960, Note_on_c, 0, 99, 100
2, 245120, Note_on_c, 0, 87, 0
2, 245120, Note_on_c, 0, 99, 0
2, 245120, Note_on_c, 0, 74, 100
2, 245120, Note_on_c, 0, 61, 100
2, 245120, Note_on_c, 0, 86, 100
2, 245120, Note_on_c, 0, 98, 100
2, 245278, Note_on_c, 0, 74, 0
2, 245278, Note_on_c, 0, 61, 0
2, 245278, Note_on_c, 0, 86, 0
2, 245278, Note_on_c, 0, 98, 0
2, 245280, Note_on_c, 0, 85, 100
2, 245280, Note_on_c, 0, 97, 100
2, 245360, Note_on_c, 0, 85, 0
2, 245360, Note_on_c, 0, 97, 0
2, 245438, Note_on_c, 0, 74, 100
2, 245438, Note_on_c, 0, 61, 100
2, 245438, Note_on_c, 0, 98, 100
2, 245440, Note_on_c, 0, 86, 100
2, 245518, Note_on_c, 0, 74, 0
2, 245518, Note_on_c, 0, 61, 0
2, 245518, Note_on_c, 0, 98, 0
2, 245520, Note_on_c, 0, 86, 0
2, 245520, Note_on_c, 0, 87, 100
2, 245520, Note_on_c, 0, 99, 100
2, 245600, Note_on_c, 0, 87, 0
2, 245600, Note_on_c, 0, 99, 0
2, 245600, Note_on_c, 0, 86, 100
2, 245600, Note_on_c, 0, 98, 100
2, 245680, Note_on_c, 0, 86, 0
2, 245680, Note_on_c, 0, 98, 0
2, 245760, Note_on_c, 0, 85, 100
2, 245760, Note_on_c, 0, 60, 100
2, 245760, Note_on_c, 0, 73, 100
2, 245760, Note_on_c, 0, 97, 100
2, 245918, Note_on_c, 0, 85, 0
2, 245918, Note_on_c, 0, 60, 0
2, 245918, Note_on_c, 0, 73, 0
2, 245918, Note_on_c, 0, 97, 0
2, 245918, Note_on_c, 0, 96, 100
2, 245918, Note_on_c, 0, 84, 100
2, 246080, Note_on_c, 0, 96, 0
2, 246080, Note_on_c, 0, 84, 0
2, 246080, Note_on_c, 0, 73, 100
2, 246080, Note_on_c, 0, 60, 100
2, 246080, Note_on_c, 0, 98, 100
2, 246080, Note_on_c, 0, 86, 100
2, 246240, Note_on_c, 0, 73, 0
2, 246240, Note_on_c, 0, 60, 0
2, 246240, Note_on_c, 0, 98, 0
2, 246240, Note_on_c, 0, 86, 0
2, 246240, Note_on_c, 0, 99, 100
2, 246240, Note_on_c, 0, 87, 100
2, 246398, Note_on_c, 0, 99, 0
2, 246398, Note_on_c, 0, 87, 0
2, 246398, Note_on_c, 0, 75, 100
2, 246398, Note_on_c, 0, 62, 100
2, 246398, Note_on_c, 0, 88, 100
2, 246398, Note_on_c, 0, 100, 100
2, 246560, Note_on_c, 0, 75, 0
2, 246560, Note_on_c, 0, 62, 0
2, 246560, Note_on_c, 0, 88, 0
2, 246560, Note_on_c, 0, 100, 0
2, 246720, Note_on_c, 0, 87, 100
2, 246720, Note_on_c, 0, 61, 100
2, 246720, Note_on_c, 0, 74, 100
2, 246720, Note_on_c, 0, 99, 100
2, 246800, Note_on_c, 0, 87, 0
2, 246800, Note_on_c, 0, 61, 0
2, 246800, Note_on_c, 0, 74, 0
2, 246800, Note_on_c, 0, 99, 0
2, 246800, Note_on_c, 0, 98, 100
2, 246840, Note_on_c, 0, 85, 100
2, 246878, Note_on_c, 0, 98, 0
2, 246878, Note_on_c, 0, 97, 100
2, 246922, Note_on_c, 0, 85, 0
2, 246960, Note_on_c, 0, 97, 0
2, 247010, Note_on_c, 0, 82, 100
2, 247010, Note_on_c, 0, 70, 100
2, 247010, Note_on_c, 0, 94, 100
2, 247010, Note_on_c, 0, 106, 100
2, 247010, Note_on_c, 0, 67, 100
2, 247010, Note_on_c, 0, 79, 100
2, 247010, Note_on_c, 0, 91, 100
2, 247010, Note_on_c, 0, 103, 100
2, 247040, Note_on_c, 0, 72, 100
2, 247040, Note_on_c, 0, 60, 100
2, 247040, Note_on_c, 0, 84, 100
2, 247040, Note_on_c, 0, 96, 100
2, 247200, Note_on_c, 0, 72, 0
2, 247200, Note_on_c, 0, 60, 0
2, 247200, Note_on_c, 0, 84, 0
2, 247200, Note_on_c, 0, 96, 0
2, 247200, Note_on_c, 0, 85, 100
2, 247200, Note_on_c, 0, 97, 100
2, 247358, Note_on_c, 0, 85, 0
2, 247358, Note_on_c, 0, 97, 0
2, 247358, Note_on_c, 0, 73, 100
2, 247358, Note_on_c, 0, 61, 100
2, 247358, Note_on_c, 0, 86, 100
2, 247358, Note_on_c, 0, 98, 100
2, 247520, Note_on_c, 0, 73, 0
2, 247520, Note_on_c, 0, 61, 0
2, 247520, Note_on_c, 0, 86, 0
2, 247520, Note_on_c, 0, 98, 0
2, 247680, Note_on_c, 0, 88, 100
2, 247680, Note_on_c, 0, 87, 100
2, 247680, Note_on_c, 0, 62, 100
2, 247680, Note_on_c, 0, 61, 100
2, 247680, Note_on_c, 0, 75, 100
2, 247680, Note_on_c, 0, 74, 100
2, 247680, Note_on_c, 0, 100, 100
2, 247680, Note_on_c, 0, 99, 100
2, 248160, Note_on_c, 0, 108, 100
2, 248640, Text_t, "drum_allbeat"
2, 248798, Note_on_c, 0, 108, 0
2, 248880, Note_on_c, 0, 108, 100
2, 249254, Text_t, "sing_on"
2, 249440, Note_on_c, 0, 108, 0
2, 249518, Note_on_c, 0, 88, 0
2, 249518, Note_on_c, 0, 87, 0
2, 249518, Note_on_c, 0, 62, 0
2, 249518, Note_on_c, 0, 61, 0
2, 249518, Note_on_c, 0, 75, 0
2, 249518, Note_on_c, 0, 74, 0
2, 249518, Note_on_c, 0, 100, 0
2, 249518, Note_on_c, 0, 99, 0
2, 249560, Note_on_c, 0, 108, 100
2, 249570, Note_on_c, 0, 67, 0
2, 249570, Note_on_c, 0, 79, 0
2, 249570, Note_on_c, 0, 91, 0
2, 249570, Note_on_c, 0, 103, 0
2, 249680, Note_on_c, 0, 108, 0
2, 249758, Note_on_c, 0, 108, 100
2, 249838, Note_on_c, 0, 108, 0
2, 249878, Note_on_c, 0, 108, 100
2, 250078, Note_on_c, 0, 108, 0
2, 250160, Note_on_c, 0, 108, 100
2, 250320, Note_on_c, 0, 108, 0
2, 250400, Note_on_c, 0, 108, 100
2, 250560, Text_t, "drum_normal"
2, 250560, Text_t, "solo_off"
2, 250560, Text_t, "[verse]"
2, 251440, Note_on_c, 0, 108, 0
2, 251520, Note_on_c, 0, 86, 100
2, 251520, Note_on_c, 0, 85, 100
2, 251520, Note_on_c, 0, 61, 100
2, 251520, Note_on_c, 0, 74, 100
2, 251520, Note_on_c, 0, 98, 100
2, 251520, Note_on_c, 0, 97, 100
2, 252080, Note_on_c, 0, 86, 0
2, 252080, Note_on_c, 0, 85, 0
2, 252080, Note_on_c, 0, 61, 0
2, 252080, Note_on_c, 0, 74, 0
2, 252080, Note_on_c, 0, 98, 0
2, 252080, Note_on_c, 0, 97, 0
2, 252158, Note_on_c, 0, 73, 100
2, 252158, Note_on_c, 0, 75, 100
2, 252158, Note_on_c, 0, 62, 100
2, 252158, Note_on_c, 0, 85, 100
2, 252158, Note_on_c, 0, 87, 100
2, 252158, Note_on_c, 0, 97, 100
2, 252158, Note_on_c, 0, 99, 100
2, 252278, Note_on_c, 0, 73, 0
2, 252278, Note_on_c, 0, 75, 0
2, 252278, Note_on_c, 0, 62, 0
2, 252278, Note_on_c, 0, 85, 0
2, 252278, Note_on_c, 0, 87, 0
2, 252278, Note_on_c, 0, 97, 0
2, 252278, Note_on_c, 0, 99, 0
2, 252800, Note_on_c, 0, 72, 100
2, 252800, Note_on_c, 0, 60, 100
2, 252800, Note_on_c, 0, 84, 100
2, 252800, Note_on_c, 0, 96, 100
2, 252880, Note_on_c, 0, 72, 0
2, 252880, Note_on_c, 0, 60, 0
2, 252880, Note_on_c, 0, 84, 0
2, 252880, Note_on_c, 0, 96, 0
2, 253118, Note_on_c, 0, 72, 100
2, 253118, Note_on_c, 0, 60, 100
2, 253118, Note_on_c, 0, 84, 100
2, 253118, Note_on_c, 0, 96, 100
2, 253198, Note_on_c, 0, 72, 0
2, 253198, Note_on_c, 0, 60, 0
2, 253198, Note_on_c, 0, 84, 0
2, 253198, Note_on_c, 0, 96, 0
2, 253438, Note_on_c, 0, 73, 100
2, 253438, Note_on_c, 0, 74, 100
2, 253438, Note_on_c, 0, 61, 100
2, 253438, Note_on_c, 0, 62, 100
2, 253438, Note_on_c, 0, 86, 100
2, 253438, Note_on_c, 0, 87, 100
2, 253438, Note_on_c, 0, 98, 100
2, 253438, Note_on_c, 0, 99, 100
2, 253918, Note_on_c, 0, 108, 100
2, 254636, Note_on_c, 0, 108, 0
2, 254720, Note_on_c, 0, 108, 100
2, 254798, Note_on_c, 0, 108, 0
2, 254840, Note_on_c, 0, 108, 100
2, 255278, Note_on_c, 0, 108, 0
2, 255356, Note_on_c, 0, 73, 0
2, 255356, Note_on_c, 0, 74, 0
2, 255356, Note_on_c, 0, 61, 0
2, 255356, Note_on_c, 0, 62, 0
2, 255356, Note_on_c, 0, 86, 0
2, 255356, Note_on_c, 0, 87, 0
2, 255356, Note_on_c, 0, 98, 0
2, 255356, Note_on_c, 0, 99, 0
2, 255358, Note_on_c, 0, 108, 100
2, 255438, Note_on_c, 0, 108, 0
2, 255478, Note_on_c, 0, 108, 100
2, 255760, Note_on_c, 0, 108, 0
2, 255838, Note_on_c, 0, 108, 100
2, 256038, Note_on_c, 0, 108, 0
2, 256120, Note_on_c, 0, 108, 100
2, 256440, Note_on_c, 0, 108, 0
2, 256560, Note_on_c, 0, 108, 100
2, 256640, Note_on_c, 0, 108, 0
2, 256720, Note_on_c, 0, 108, 100
2, 257088, Note_on_c, 0, 81, 0
2, 257088, Note_on_c, 0, 69, 0
2, 257088, Note_on_c, 0, 93, 0
2, 257088, Note_on_c, 0, 105, 0
2, 257280, Note_on_c, 0, 84, 100
2, 257280, Note_on_c, 0, 60, 100
2, 257280, Note_on_c, 0, 72, 100
2, 257280, Note_on_c, 0, 96, 100
2, 257360, Note_on_c, 0, 108, 0
2, 257400, Note_on_c, 0, 84, 0
2, 257400, Note_on_c, 0, 60, 0
2, 257400, Note_on_c, 0, 72, 0
2, 257400, Note_on_c, 0, 96, 0
2, 257400, Note_on_c, 0, 85, 100
2, 257400, Note_on_c, 0, 73, 100
2, 257400, Note_on_c, 0, 97, 100
2, 257520, Note_on_c, 0, 85, 0
2, 257520, Note_on_c, 0, 73, 0
2, 257520, Note_on_c, 0, 97, 0
2, 257520, Note_on_c, 0, 86, 100
2, 257520, Note_on_c, 0, 74, 100
2, 257520, Note_on_c, 0, 98, 100
2, 257640, Note_on_c, 0, 86, 0
2, 257640, Note_on_c, 0, 74, 0
2, 257640, Note_on_c, 0, 98, 0
2, 257640, Note_on_c, 0, 86, 100
2, 257640, Note_on_c, 0, 61, 100
2, 257640, Note_on_c, 0, 74, 100
2, 257640, Note_on_c, 0, 98, 100
2, 258120, Note_on_c, 0, 61, 0
2, 258200, Note_on_c, 0, 74, 0
2, 258240, Text_t, "sing_off"
2, 258240, Note_on_c, 0, 86, 0
2, 258240, Note_on_c, 0, 98, 0
2, 258240, Note_on_c, 0, 86, 100
2, 258240, Note_on_c, 0, 61, 100
2, 258240, Note_on_c, 0, 74, 100
2, 258240, Note_on_c, 0, 98, 100
2, 258798, Note_on_c, 0, 86, 0
2, 258798, Note_on_c, 0, 61, 0
2, 258798, Note_on_c, 0, 74, 0
2, 258798, Note_on_c, 0, 98, 0
2, 258960, Note_on_c, 0, 86, 100
2, 258960, Note_on_c, 0, 61, 100
2, 258960, Note_on_c, 0, 74, 100
2, 258960, Note_on_c, 0, 98, 100
2, 259062, Note_on_c, 0, 86, 0
2, 259062, Note_on_c, 0, 61, 0
2, 259062, Note_on_c, 0, 74, 0
2, 259062, Note_on_c, 0, 98, 0
2, 259080, Note_on_c, 0, 86, 100
2, 259080, Note_on_c, 0, 98, 100
2, 259160, Note_on_c, 0, 86, 0
2, 259160, Note_on_c, 0, 98, 0
2, 259200, Note_on_c, 0, 87, 100
2, 259200, Note_on_c, 0, 62, 100
2, 259200, Note_on_c, 0, 75, 100
2, 259200, Note_on_c, 0, 99, 100
2, 259280, Note_on_c, 0, 87, 0
2, 259280, Note_on_c, 0, 62, 0
2, 259280, Note_on_c, 0, 99, 0
2, 259280, Note_on_c, 0, 88, 100
2, 259280, Note_on_c, 0, 100, 100
2, 260066, Note_on_c, 0, 88, 0
2, 260066, Note_on_c, 0, 100, 0
2, 260160, Note_on_c, 0, 75, 0
2, 260160, Note_on_c, 0, 87, 100
2, 260160, Note_on_c, 0, 61, 100
2, 260160, Note_on_c, 0, 74, 100
2, 260160, Note_on_c, 0, 99, 100
2, 260240, Note_on_c, 0, 87, 0
2, 260240, Note_on_c, 0, 61, 0
2, 260240, Note_on_c, 0, 74, 0
2, 260240, Note_on_c, 0, 99, 0
2, 260240, Note_on_c, 0, 88, 100
2, 260240, Note_on_c, 0, 100, 100
2, 260320, Note_on_c, 0, 88, 0
2, 260320, Note_on_c, 0, 100, 0
2, 260480, Note_on_c, 0, 75, 100
2, 260480, Note_on_c, 0, 62, 100
2, 260480, Note_on_c, 0, 88, 100
2, 260480, Note_on_c, 0, 100, 100
2, 260558, Note_on_c, 0, 87, 100
2, 260558, Note_on_c, 0, 99, 100
2, 260560, Note_on_c, 0, 88, 0
2, 260560, Note_on_c, 0, 100, 0
2, 261038, Note_on_c, 0, 75, 0
2, 261038, Note_on_c, 0, 62, 0
2, 261038, Note_on_c, 0, 87, 0
2, 261038, Note_on_c, 0, 99, 0
2, 261120, Note_on_c, 0, 87, 100
2, 261120, Note_on_c, 0, 61, 100
2, 261120, Note_on_c, 0, 74, 100
2, 261120, Note_on_c, 0, 99, 100
2, 261650, Note_on_c, 0, 82, 0
2, 261650, Note_on_c, 0, 70, 0
2, 261650, Note_on_c, 0, 94, 0
2, 261650, Note_on_c, 0, 106, 0
2, 261674, Note_on_c, 0, 61, 0
2, 261674, Note_on_c, 0, 74, 0
2, 261730, Note_on_c, 0, 81, 100
2, 261730, Note_on_c, 0, 69, 100
2, 261730, Note_on_c, 0, 93, 100
2, 261730, Note_on_c, 0, 105, 100
2, 261758, Note_on_c, 0, 87, 0
2, 261758, Note_on_c, 0, 99, 0
2, 261758, Note_on_c, 0, 74, 100
2, 261758, Note_on_c, 0, 61, 100
2, 261758, Note_on_c, 0, 87, 100
2, 261758, Note_on_c, 0, 99, 100
2, 261838, Note_on_c, 0, 74, 0
2, 261838, Note_on_c, 0, 61, 0
2, 261838, Note_on_c, 0, 87, 0
2, 261838, Note_on_c, 0, 99, 0
2, 261914, Note_on_c, 0, 87, 100
2, 261914, Note_on_c, 0, 99, 100
2, 262034, Note_on_c, 0, 87, 0
2, 262078, Note_on_c, 0, 99, 0
2, 262080, Note_on_c, 0, 88, 100
2, 262080, Note_on_c, 0, 62, 100
2, 262080, Note_on_c, 0, 75, 100
2, 262080, Note_on_c, 0, 100, 100
2, 262200, Note_on_c, 0, 88, 0
2, 262200, Note_on_c, 0, 62, 0
2, 262200, Note_on_c, 0, 75, 0
2, 262200, Note_on_c, 0, 100, 0
2, 262200, Note_on_c, 0, 87, 100
2, 262200, Note_on_c, 0, 99, 100
2, 262320, Note_on_c, 0, 87, 0
2, 262320, Note_on_c, 0, 99, 0
2, 262400, Note_on_c, 0, 74, 100
2, 262400, Note_on_c, 0, 61, 100
2, 262400, Note_on_c, 0, 86, 100
2, 262400, Note_on_c, 0, 98, 100
2, 262480, Note_on_c, 0, 74, 0
2, 262480, Note_on_c, 0, 61, 0
2, 262480, Note_on_c, 0, 86, 0
2, 262480, Note_on_c, 0, 98, 0
2, 262640, Note_on_c, 0, 74, 100
2, 262640, Note_on_c, 0, 61, 100
2, 262640, Note_on_c, 0, 86, 100
2, 262640, Note_on_c, 0, 98, 100
2, 262720, Note_on_c, 0, 74, 0
2, 262720, Note_on_c, 0, 61, 0
2, 262720, Note_on_c, 0, 86, 0
2, 262720, Note_on_c, 0, 98, 0
2, 262720, Note_on_c, 0, 85, 100
2, 262720, Note_on_c, 0, 97, 100
2, 262800, Note_on_c, 0, 85, 0
2, 262800, Note_on_c, 0, 97, 0
2, 262800, Note_on_c, 0, 84, 100
2, 262800, Note_on_c, 0, 72, 100
2, 262800, Note_on_c, 0, 96, 100
2, 262880, Note_on_c, 0, 84, 0
2, 262880, Note_on_c, 0, 72, 0
2, 262880, Note_on_c, 0, 96, 0
2, 262920, Note_on_c, 0, 85, 100
2, 262920, Note_on_c, 0, 97, 100
2, 263000, Note_on_c, 0, 85, 0
2, 263000, Note_on_c, 0, 97, 0
2, 263040, Note_on_c, 0, 86, 100
2, 263040, Note_on_c, 0, 62, 100
2, 263040, Note_on_c, 0, 74, 100
2, 263040, Note_on_c, 0, 98, 100
2, 263120, Note_on_c, 0, 98, 0
2, 263120, Note_on_c, 0, 97, 100
2, 263160, Note_on_c, 0, 86, 0
2, 263160, Note_on_c, 0, 62, 0
2, 263160, Note_on_c, 0, 74, 0
2, 263200, Note_on_c, 0, 97, 0
2, 263200, Note_on_c, 0, 84, 100
2, 263200, Note_on_c, 0, 96, 100
2, 263320, Note_on_c, 0, 84, 0
2, 263320, Note_on_c, 0, 96, 0
2, 263400, Note_on_c, 0, 85, 100
2, 263400, Note_on_c, 0, 61, 100
2, 263400, Note_on_c, 0, 73, 100
2, 263400, Note_on_c, 0, 97, 100
2, 263520, Note_on_c, 0, 85, 0
2, 263520, Note_on_c, 0, 61, 0
2, 263520, Note_on_c, 0, 73, 0
2, 263520, Note_on_c, 0, 97, 0
2, 263600, Note_on_c, 0, 108, 100
2, 263680, Note_on_c, 0, 73, 100
2, 263680, Note_on_c, 0, 61, 100
2, 263760, Note_on_c, 0, 85, 100
2, 263760, Note_on_c, 0, 97, 100
2, 263762, Note_on_c, 0, 73, 0
2, 263762, Note_on_c, 0, 61, 0
2, 263840, Note_on_c, 0, 85, 0
2, 263840, Note_on_c, 0, 97, 0
2, 263840, Note_on_c, 0, 73, 100
2, 263840, Note_on_c, 0, 86, 100
2, 263840, Note_on_c, 0, 98, 100
2, 263920, Note_on_c, 0, 73, 0
2, 263920, Note_on_c, 0, 86, 0
2, 263920, Note_on_c, 0, 98, 0
2, 263920, Note_on_c, 0, 85, 100
2, 263920, Note_on_c, 0, 97, 100
2, 264000, Note_on_c, 0, 85, 0
2, 264000, Note_on_c, 0, 97, 0
2, 264000, Note_on_c, 0, 84, 100
2, 264000, Note_on_c, 0, 60, 100
2, 264000, Note_on_c, 0, 72, 100
2, 264000, Note_on_c, 0, 96, 100
2, 264080, Note_on_c, 0, 84, 0
2, 264080, Note_on_c, 0, 60, 0
2, 264080, Note_on_c, 0, 72, 0
2, 264080, Note_on_c, 0, 96, 0
2, 264160, Note_on_c, 0, 108, 0
2, 264240, Note_on_c, 0, 108, 100
2, 264606, Text_t, "sing_on"
2, 264840, Note_on_c, 0, 108, 0
2, 264960, Note_on_c, 0, 108, 100
2, 265040, Note_on_c, 0, 108, 0
2, 265120, Note_on_c, 0, 108, 100
2, 265200, Note_on_c, 0, 108, 0
2, 265240, Note_on_c, 0, 108, 100
2, 265360, Note_on_c, 0, 108, 0
2, 265480, Note_on_c, 0, 108, 100
2, 265880, Note_on_c, 0, 108, 0
2, 265920, Note_on_c, 0, 108, 100
2, 266240, Note_on_c, 0, 108, 0
2, 266280, Note_on_c, 0, 108, 100
2, 266680, Note_on_c, 0, 108, 0
2, 266800, Note_on_c, 0, 75, 100
2, 266800, Note_on_c, 0, 62, 100
2, 266800, Note_on_c, 0, 87, 100
2, 266800, Note_on_c, 0, 99, 100
2, 266920, Note_on_c, 0, 75, 0
2, 266920, Note_on_c, 0, 62, 0
2, 266960, Note_on_c, 0, 87, 0
2, 266960, Note_on_c, 0, 99, 0
2, 267200, Note_on_c, 0, 88, 100
2, 267200, Note_on_c, 0, 100, 100
2, 267362, Note_on_c, 0, 88, 0
2, 267362, Note_on_c, 0, 100, 0
2, 267520, Note_on_c, 0, 74, 100
2, 267520, Note_on_c, 0, 61, 100
2, 267520, Note_on_c, 0, 86, 100
2, 267520, Note_on_c, 0, 98, 100
2, 267640, Note_on_c, 0, 74, 0
2, 267640, Note_on_c, 0, 61, 0
2, 267680, Note_on_c, 0, 86, 0
2, 267680, Note_on_c, 0, 98, 0
2, 267840, Note_on_c, 0, 87, 100
2, 267840, Note_on_c, 0, 99, 100
2, 268000, Note_on_c, 0, 87, 0
2, 268000, Note_on_c, 0, 99, 0
2, 268130, Note_on_c, 0, 81, 0
2, 268130, Note_on_c, 0, 69, 0
2, 268130, Note_on_c, 0, 93, 0
2, 268130, Note_on_c, 0, 105, 0
2, 268130, Note_on_c, 0, 82, 100
2, 268130, Note_on_c, 0, 70, 100
2, 268130, Note_on_c, 0, 94, 100
2, 268130, Note_on_c, 0, 106, 100
2, 268160, Note_on_c, 0, 73, 100
2, 268160, Note_on_c, 0, 60, 100
2, 268160, Note_on_c, 0, 85, 100
2, 268160, Note_on_c, 0, 97, 100
2, 268266, Note_on_c, 0, 73, 0
2, 268266, Note_on_c, 0, 60, 0
2, 268266, Note_on_c, 0, 85, 0
2, 268266, Note_on_c, 0, 97, 0
2, 268400, Note_on_c, 0, 87, 100
2, 268400, Note_on_c, 0, 99, 100
2, 268480, Note_on_c, 0, 87, 0
2, 268480, Note_on_c, 0, 99, 0
2, 268480, Note_on_c, 0, 73, 100
2, 268480, Note_on_c, 0, 60, 100
2, 268480, Note_on_c, 0, 86, 100
2, 268480, Note_on_c, 0, 98, 100
2, 268588, Note_on_c, 0, 73, 0
2, 268588, Note_on_c, 0, 60, 0
2, 268588, Note_on_c, 0, 86, 0
2, 268588, Note_on_c, 0, 98, 0
2, 268720, Note_on_c, 0, 73, 100
2, 268720, Note_on_c, 0, 60, 100
2, 268720, Note_on_c, 0, 84, 100
2, 268720, Note_on_c, 0, 96, 100
2, 268800, Note_on_c, 0, 84, 0
2, 268800, Note_on_c, 0, 96, 0
2, 268800, Note_on_c, 0, 85, 100
2, 268800, Note_on_c, 0, 97, 100
2, 269634, Note_on_c, 0, 73, 0
2, 269634, Note_on_c, 0, 60, 0
2, 269634, Note_on_c, 0, 85, 0
2, 269634, Note_on_c, 0, 97, 0
2, 269760, Note_on_c, 0, 85, 100
2, 269760, Note_on_c, 0, 60, 100
2, 269760, Note_on_c, 0, 73, 100
2, 269760, Note_on_c, 0, 97, 100
2, 269866, Note_on_c, 0, 85, 0
2, 269866, Note_on_c, 0, 60, 0
2, 269866, Note_on_c, 0, 73, 0
2, 269866, Note_on_c, 0, 97, 0
2, 272450, Note_on_c, 0, 82, 0
2, 272450, Note_on_c, 0, 70, 0
2, 272450, Note_on_c, 0, 94, 0
2, 272450, Note_on_c, 0, 106, 0
2, 272610, Note_on_c, 0, 67, 100
2, 272610, Note_on_c, 0, 79, 100
2, 272610, Note_on_c, 0, 91, 100
2, 272610, Note_on_c, 0, 103, 100
2, 272610, Note_on_c, 0, 81, 100
2, 272610, Note_on_c, 0, 69, 100
2, 272610, Note_on_c, 0, 93, 100
2, 272610, Note_on_c, 0, 105, 100
2, 272640, Note_on_c, 0, 96, 100
2, 272640, Note_on_c, 0, 84, 100
2, 272640, Note_on_c, 0, 72, 100
2, 272640, Note_on_c, 0, 60, 100
2, 272720, Note_on_c, 0, 96, 0
2, 272720, Note_on_c, 0, 84, 0
2, 272720, Note_on_c, 0, 72, 0
2, 272720, Note_on_c, 0, 60, 0
2, 272760, Note_on_c, 0, 97, 100
2, 272760, Note_on_c, 0, 85, 100
2, 272838, Note_on_c, 0, 97, 0
2, 272838, Note_on_c, 0, 85, 0
2, 272880, Note_on_c, 0, 98, 100
2, 272880, Note_on_c, 0, 86, 100
2, 272880, Note_on_c, 0, 73, 100
2, 272960, Note_on_c, 0, 98, 0
2, 272960, Note_on_c, 0, 86, 0
2, 272960, Note_on_c, 0, 73, 0
2, 273000, Note_on_c, 0, 98, 100
2, 273000, Note_on_c, 0, 86, 100
2, 273000, Note_on_c, 0, 61, 100
2, 273000, Note_on_c, 0, 73, 100
2, 274204, Text_t, "sing_off"
2, 274394, Note_on_c, 0, 61, 0
2, 274394, Note_on_c, 0, 73, 0
2, 274500, Note_on_c, 0, 98, 0
2, 274500, Note_on_c, 0, 86, 0
2, 274560, Note_on_c, 0, 87, 100
2, 274560, Note_on_c, 0, 61, 100
2, 274560, Note_on_c, 0, 74, 100
2, 274560, Note_on_c, 0, 99, 100
2, 274640, Note_on_c, 0, 87, 0
2, 274640, Note_on_c, 0, 99, 0
2, 274680, Note_on_c, 0, 98, 100
2, 274680, Note_on_c, 0, 86, 100
2, 275440, Note_on_c, 0, 61, 0
2, 275440, Note_on_c, 0, 74, 0
2, 275440, Note_on_c, 0, 98, 0
2, 275440, Note_on_c, 0, 86, 0
2, 275490, Note_on_c, 0, 67, 0
2, 275490, Note_on_c, 0, 79, 0
2, 275490, Note_on_c, 0, 91, 0
2, 275490, Note_on_c, 0, 103, 0
2, 275520, Note_on_c, 0, 86, 100
2, 275520, Note_on_c, 0, 62, 100
2, 275520, Note_on_c, 0, 75, 100
2, 275520, Note_on_c, 0, 98, 100
2, 275600, Note_on_c, 0, 86, 0
2, 275600, Note_on_c, 0, 98, 0
2, 275680, Note_on_c, 0, 100, 100
2, 275680, Note_on_c, 0, 88, 100
2, 276350, Note_on_c, 0, 62, 0
2, 276350, Note_on_c, 0, 75, 0
2, 276350, Note_on_c, 0, 88, 0
2, 276360, Note_on_c, 0, 100, 0
2, 276400, Note_on_c, 0, 75, 100
2, 276400, Note_on_c, 0, 87, 100
2, 276400, Note_on_c, 0, 99, 100
2, 276480, Note_on_c, 0, 75, 0
2, 276480, Note_on_c, 0, 87, 0
2, 276480, Note_on_c, 0, 99, 0
2, 276480, Note_on_c, 0, 88, 100
2, 276480, Note_on_c, 0, 62, 100
2, 276480, Note_on_c, 0, 100, 100
2, 276560, Note_on_c, 0, 88, 0
2, 276560, Note_on_c, 0, 62, 0
2, 276560, Note_on_c, 0, 100, 0
2, 276720, Note_on_c, 0, 87, 100
2, 276720, Note_on_c, 0, 61, 100
2, 276720, Note_on_c, 0, 74, 100
2, 276720, Note_on_c, 0, 99, 100
2, 276800, Note_on_c, 0, 87, 0
2, 276800, Note_on_c, 0, 99, 0
2, 276800, Note_on_c, 0, 86, 100
2, 276800, Note_on_c, 0, 98, 100
2, 277354, Note_on_c, 0, 61, 0
2, 277354, Note_on_c, 0, 74, 0
2, 277358, Note_on_c, 0, 86, 0
2, 277358, Note_on_c, 0, 98, 0
2, 277410, Note_on_c, 0, 81, 0
2, 277410, Note_on_c, 0, 69, 0
2, 277410, Note_on_c, 0, 93, 0
2, 277410, Note_on_c, 0, 105, 0
2, 277410, Note_on_c, 0, 82, 100
2, 277410, Note_on_c, 0, 70, 100
2, 277410, Note_on_c, 0, 94, 100
2, 277410, Note_on_c, 0, 106, 100
2, 277440, Note_on_c, 0, 88, 100
2, 277440, Note_on_c, 0, 62, 100
2, 277440, Note_on_c, 0, 75, 100
2, 277440, Note_on_c, 0, 100, 100
2, 277520, Note_on_c, 0, 88, 0
2, 277520, Note_on_c, 0, 62, 0
2, 277520, Note_on_c, 0, 75, 0
2, 277520, Note_on_c, 0, 100, 0
2, 277600, Note_on_c, 0, 87, 100
2, 277600, Note_on_c, 0, 99, 100
2, 277680, Note_on_c, 0, 87, 0
2, 277680, Note_on_c, 0, 99, 0
2, 277760, Note_on_c, 0, 74, 100
2, 277760, Note_on_c, 0, 61, 100
2, 277760, Note_on_c, 0, 87, 100
2, 277760, Note_on_c, 0, 99, 100
2, 277840, Note_on_c, 0, 74, 0
2, 277840, Note_on_c, 0, 61, 0
2, 277840, Note_on_c, 0, 87, 0
2, 277840, Note_on_c, 0, 99, 0
2, 277840, Note_on_c, 0, 86, 100
2, 277840, Note_on_c, 0, 98, 100
2, 277920, Note_on_c, 0, 86, 0
2, 277920, Note_on_c, 0, 98, 0
2, 277920, Note_on_c, 0, 85, 100
2, 277920, Note_on_c, 0, 97, 100
2, 278000, Note_on_c, 0, 85, 0
2, 278000, Note_on_c, 0, 97, 0
2, 278040, Note_on_c, 0, 84, 100
2, 278040, Note_on_c, 0, 60, 100
2, 278040, Note_on_c, 0, 72, 100
2, 278040, Note_on_c, 0, 96, 100
2, 278160, Note_on_c, 0, 84, 0
2, 278160, Note_on_c, 0, 60, 0
2, 278160, Note_on_c, 0, 72, 0
2, 278160, Note_on_c, 0, 96, 0
2, 278160, Note_on_c, 0, 85, 100
2, 278160, Note_on_c, 0, 97, 100
2, 278280, Note_on_c, 0, 85, 0
2, 278280, Note_on_c, 0, 97, 0
2, 278280, Note_on_c, 0, 86, 100
2, 278280, Note_on_c, 0, 62, 100
2, 278280, Note_on_c, 0, 74, 100
2, 278280, Note_on_c, 0, 98, 100
2, 278400, Note_on_c, 0, 86, 0
2, 278400, Note_on_c, 0, 62, 0
2, 278400, Note_on_c, 0, 74, 0
2, 278400, Note_on_c, 0, 98, 0
2, 278480, Note_on_c, 0, 74, 100
2, 278480, Note_on_c, 0, 62, 100
2, 278480, Note_on_c, 0, 87, 100
2, 278480, Note_on_c, 0, 99, 100
2, 278560, Note_on_c, 0, 87, 0
2, 278560, Note_on_c, 0, 99, 0
2, 278560, Note_on_c, 0, 86, 100
2, 278560, Note_on_c, 0, 98, 100
2, 279036, Note_on_c, 0, 74, 0
2, 279036, Note_on_c, 0, 62, 0
2, 279036, Note_on_c, 0, 86, 0
2, 279036, Note_on_c, 0, 98, 0
2, 279120, Note_on_c, 0, 87, 100
2, 279120, Note_on_c, 0, 61, 100
2, 279120, Note_on_c, 0, 73, 100
2, 279120, Note_on_c, 0, 99, 100
2, 279200, Note_on_c, 0, 87, 0
2, 279200, Note_on_c, 0, 61, 0
2, 279200, Note_on_c, 0, 73, 0
2, 279200, Note_on_c, 0, 99, 0
2, 279200, Note_on_c, 0, 86, 100
2, 279200, Note_on_c, 0, 98, 100
2, 279280, Note_on_c, 0, 86, 0
2, 279280, Note_on_c, 0, 98, 0
2, 279280, Note_on_c, 0, 85, 100
2, 279280, Note_on_c, 0, 97, 100
2, 279360, Note_on_c, 0, 85, 0
2, 279360, Note_on_c, 0, 97, 0
2, 279360, Note_on_c, 0, 84, 100
2, 279360, Note_on_c, 0, 60, 100
2, 279360, Note_on_c, 0, 72, 100
2, 279360, Note_on_c, 0, 96, 100
2, 279440, Note_on_c, 0, 84, 0
2, 279440, Note_on_c, 0, 60, 0
2, 279440, Note_on_c, 0, 72, 0
2, 279440, Note_on_c, 0, 96, 0
2, 279600, Note_on_c, 0, 108, 100
2, 279760, Note_on_c, 0, 108, 0
2, 279880, Note_on_c, 0, 108, 100
2, 280200, Note_on_c, 0, 108, 0
2, 280320, Note_on_c, 0, 108, 100
2, 280360, Note_on_c, 0, 108, 0
2, 280480, Note_on_c, 0, 108, 100
2, 280520, Note_on_c, 0, 108, 0
2, 280608, Text_t, "sing_on"
2, 280720, Note_on_c, 0, 108, 100
2, 281200, Note_on_c, 0, 108, 0
2, 281520, Note_on_c, 0, 108, 100
2, 281600, Note_on_c, 0, 108, 0
2, 281680, Note_on_c, 0, 108, 100
2, 281760, Note_on_c, 0, 108, 0
2, 281920, Note_on_c, 0, 108, 100
2, 282000, Note_on_c, 0, 108, 0
2, 282240, Note_on_c, 0, 108, 100
2, 282320, Note_on_c, 0, 108, 0
2, 282560, Note_on_c, 0, 108, 100
2, 282640, Note_on_c, 0, 108, 0
2, 283010, Note_on_c, 0, 81, 100
2, 283010, Note_on_c, 0, 69, 100
2, 283010, Note_on_c, 0, 93, 100
2, 283010, Note_on_c, 0, 105, 100
2, 283040, Note_on_c, 0, 74, 100
2, 283040, Note_on_c, 0, 75, 100
2, 283040, Note_on_c, 0, 61, 100
2, 283040, Note_on_c, 0, 62, 100
2, 283040, Note_on_c, 0, 87, 100
2, 283040, Note_on_c, 0, 88, 100
2, 283040, Note_on_c, 0, 98, 100
2, 283080, Note_on_c, 0, 98, 0
2, 283120, Note_on_c, 0, 99, 100
2, 283160, Note_on_c, 0, 99, 0
2, 283200, Note_on_c, 0, 99, 100
2, 283200, Note_on_c, 0, 100, 100
2, 283680, Note_on_c, 0, 99, 0
2, 283680, Note_on_c, 0, 100, 0
2, 283766, Note_on_c, 0, 74, 0
2, 283766, Note_on_c, 0, 75, 0
2, 283766, Note_on_c, 0, 61, 0
2, 283766, Note_on_c, 0, 62, 0
2, 283766, Note_on_c, 0, 87, 0
2, 283766, Note_on_c, 0, 88, 0
2, 283840, Note_on_c, 0, 74, 100
2, 283840, Note_on_c, 0, 61, 100
2, 283840, Note_on_c, 0, 86, 100
2, 283840, Note_on_c, 0, 87, 100
2, 283840, Note_on_c, 0, 98, 100
2, 283840, Note_on_c, 0, 99, 100
2, 284000, Note_on_c, 0, 74, 0
2, 284000, Note_on_c, 0, 61, 0
2, 284000, Note_on_c, 0, 86, 0
2, 284000, Note_on_c, 0, 87, 0
2, 284000, Note_on_c, 0, 98, 0
2, 284000, Note_on_c, 0, 99, 0
2, 284160, Note_on_c, 0, 87, 100
2, 284160, Note_on_c, 0, 85, 100
2, 284160, Note_on_c, 0, 60, 100
2, 284160, Note_on_c, 0, 74, 100
2, 284160, Note_on_c, 0, 73, 100
2, 284160, Note_on_c, 0, 99, 100
2, 284160, Note_on_c, 0, 97, 100
2, 284290, Note_on_c, 0, 82, 0
2, 284290, Note_on_c, 0, 70, 0
2, 284290, Note_on_c, 0, 94, 0
2, 284290, Note_on_c, 0, 106, 0
2, 284320, Note_on_c, 0, 87, 0
2, 284320, Note_on_c, 0, 85, 0
2, 284320, Note_on_c, 0, 60, 0
2, 284320, Note_on_c, 0, 74, 0
2, 284320, Note_on_c, 0, 73, 0
2, 284640, Note_on_c, 0, 99, 0
2, 284640, Note_on_c, 0, 97, 0
2, 284640, Note_on_c, 0, 108, 100
2, 285040, Note_on_c, 0, 108, 0
2, 285120, Text_t, "bass_off"
2, 285120, Text_t, "[idle]"
2, 285120, Note_on_c, 0, 108, 100
2, 285360, Note_on_c, 0, 108, 0
2, 285440, Note_on_c, 0, 108, 100
2, 285520, Note_on_c, 0, 108, 0
2, 285600, Note_on_c, 0, 108, 100
2, 285720, Note_on_c, 0, 108, 0
2, 285840, Note_on_c, 0, 108, 100
2, 286080, Text_t, "drum_off"
2, 286200, Note_on_c, 0, 108, 0
2, 286320, Note_on_c, 0, 108, 100
2, 286680, Note_on_c, 0, 108, 0
2, 286720, Note_on_c, 0, 108, 100
2, 286800, Note_on_c, 0, 108, 0
2, 286920, Note_on_c, 0, 108, 100
2, 287320, Note_on_c, 0, 108, 0
2, 287400, Note_on_c, 0, 108, 100
2, 287920, Note_on_c, 0, 108, 0
2, 288000, Note_on_c, 0, 108, 100
2, 288080, Note_on_c, 0, 108, 0
2, 288640, Note_on_c, 0, 73, 100
2, 288640, Note_on_c, 0, 74, 100
2, 288640, Note_on_c, 0, 60, 100
2, 288640, Note_on_c, 0, 61, 100
2, 288640, Note_on_c, 0, 85, 100
2, 288640, Note_on_c, 0, 87, 100
2, 288640, Note_on_c, 0, 97, 100
2, 288640, Note_on_c, 0, 99, 100
2, 288800, Note_on_c, 0, 73, 0
2, 288800, Note_on_c, 0, 74, 0
2, 288800, Note_on_c, 0, 60, 0
2, 288800, Note_on_c, 0, 61, 0
2, 288800, Note_on_c, 0, 85, 0
2, 288800, Note_on_c, 0, 87, 0
2, 288800, Note_on_c, 0, 97, 0
2, 288800, Note_on_c, 0, 99, 0
2, 288960, Text_t, "drum_allbeat"
2, 288960, Note_on_c, 0, 87, 100
2, 288960, Note_on_c, 0, 85, 100
2, 288960, Note_on_c, 0, 61, 100
2, 288960, Note_on_c, 0, 60, 100
2, 288960, Note_on_c, 0, 74, 100
2, 288960, Note_on_c, 0, 73, 100
2, 288960, Note_on_c, 0, 99, 100
2, 288960, Note_on_c, 0, 97, 100
2, 289522, Note_on_c, 0, 87, 0
2, 289522, Note_on_c, 0, 85, 0
2, 289522, Note_on_c, 0, 61, 0
2, 289522, Note_on_c, 0, 60, 0
2, 289522, Note_on_c, 0, 74, 0
2, 289522, Note_on_c, 0, 73, 0
2, 289522, Note_on_c, 0, 99, 0
2, 289522, Note_on_c, 0, 97, 0
2, 289576, Text_t, "bass_on"
2, 289576, Text_t, "[play]"
2, 289576, Text_t, "sing_off "
2, 289600, Note_on_c, 0, 73, 100
2, 289600, Note_on_c, 0, 74, 100
2, 289600, Note_on_c, 0, 60, 100
2, 289600, Note_on_c, 0, 61, 100
2, 289600, Note_on_c, 0, 85, 100
2, 289600, Note_on_c, 0, 87, 100
2, 289600, Note_on_c, 0, 97, 100
2, 289600, Note_on_c, 0, 99, 100
2, 289760, Note_on_c, 0, 73, 0
2, 289760, Note_on_c, 0, 74, 0
2, 289760, Note_on_c, 0, 60, 0
2, 289760, Note_on_c, 0, 61, 0
2, 289760, Note_on_c, 0, 85, 0
2, 289760, Note_on_c, 0, 87, 0
2, 289760, Note_on_c, 0, 97, 0
2, 289760, Note_on_c, 0, 99, 0
2, 289920, Note_on_c, 0, 86, 100
2, 289920, Note_on_c, 0, 85, 100
2, 289920, Note_on_c, 0, 60, 100
2, 289920, Note_on_c, 0, 73, 100
2, 289920, Note_on_c, 0, 98, 100
2, 289920, Note_on_c, 0, 97, 100
2, 290080, Note_on_c, 0, 86, 0
2, 290080, Note_on_c, 0, 85, 0
2, 290080, Note_on_c, 0, 60, 0
2, 290080, Note_on_c, 0, 73, 0
2, 290080, Note_on_c, 0, 98, 0
2, 290080, Note_on_c, 0, 97, 0
2, 290370, Note_on_c, 0, 81, 0
2, 290370, Note_on_c, 0, 69, 0
2, 290370, Note_on_c, 0, 93, 0
2, 290370, Note_on_c, 0, 105, 0
2, 290530, Note_on_c, 0, 82, 100
2, 290530, Note_on_c, 0, 70, 100
2, 290530, Note_on_c, 0, 94, 100
2, 290530, Note_on_c, 0, 106, 100
2, 290560, Note_on_c, 0, 61, 100
2, 290560, Note_on_c, 0, 74, 100
2, 290560, Note_on_c, 0, 75, 100
2, 290560, Note_on_c, 0, 62, 100
2, 290560, Note_on_c, 0, 86, 100
2, 290560, Note_on_c, 0, 88, 100
2, 290560, Note_on_c, 0, 98, 100
2, 290560, Note_on_c, 0, 100, 100
2, 290720, Note_on_c, 0, 61, 0
2, 290720, Note_on_c, 0, 74, 0
2, 290720, Note_on_c, 0, 75, 0
2, 290720, Note_on_c, 0, 62, 0
2, 290720, Note_on_c, 0, 86, 0
2, 290720, Note_on_c, 0, 88, 0
2, 290720, Note_on_c, 0, 98, 0
2, 290720, Note_on_c, 0, 100, 0
2, 290880, Note_on_c, 0, 88, 100
2, 290880, Note_on_c, 0, 86, 100
2, 290880, Note_on_c, 0, 62, 100
2, 290880, Note_on_c, 0, 75, 100
2, 290880, Note_on_c, 0, 74, 100
2, 290880, Note_on_c, 0, 61, 100
2, 290880, Note_on_c, 0, 100, 100
2, 290880, Note_on_c, 0, 98, 100
2, 291440, Note_on_c, 0, 88, 0
2, 291440, Note_on_c, 0, 86, 0
2, 291440, Note_on_c, 0, 62, 0
2, 291440, Note_on_c, 0, 75, 0
2, 291440, Note_on_c, 0, 74, 0
2, 291440, Note_on_c, 0, 61, 0
2, 291440, Note_on_c, 0, 100, 0
2, 291440, Note_on_c, 0, 98, 0
2, 291520, Note_on_c, 0, 61, 100
2, 291520, Note_on_c, 0, 74, 100
2, 291520, Note_on_c, 0, 75, 100
2, 291520, Note_on_c, 0, 62, 100
2, 291520, Note_on_c, 0, 86, 100
2, 291520, Note_on_c, 0, 88, 100
2, 291520, Note_on_c, 0, 98, 100
2, 291520, Note_on_c, 0, 100, 100
2, 291680, Note_on_c, 0, 61, 0
2, 291680, Note_on_c, 0, 74, 0
2, 291680, Note_on_c, 0, 75, 0
2, 291680, Note_on_c, 0, 62, 0
2, 291680, Note_on_c, 0, 86, 0
2, 291680, Note_on_c, 0, 88, 0
2, 291680, Note_on_c, 0, 98, 0
2, 291680, Note_on_c, 0, 100, 0
2, 291840, Note_on_c, 0, 85, 100
2, 291840, Note_on_c, 0, 86, 100
2, 291840, Note_on_c, 0, 61, 100
2, 291840, Note_on_c, 0, 74, 100
2, 291840, Note_on_c, 0, 97, 100
2, 291840, Note_on_c, 0, 98, 100
2, 291956, Note_on_c, 0, 85, 0
2, 291956, Note_on_c, 0, 86, 0
2, 291956, Note_on_c, 0, 61, 0
2, 291956, Note_on_c, 0, 74, 0
2, 291956, Note_on_c, 0, 97, 0
2, 291956, Note_on_c, 0, 98, 0
2, 292290, Note_on_c, 0, 82, 0
2, 292290, Note_on_c, 0, 70, 0
2, 292290, Note_on_c, 0, 94, 0
2, 292290, Note_on_c, 0, 106, 0
2, 292370, Note_on_c, 0, 81, 100
2, 292370, Note_on_c, 0, 69, 100
2, 292370, Note_on_c, 0, 93, 100
2, 292370, Note_on_c, 0, 105, 100
2, 292400, Note_on_c, 0, 73, 100
2, 292400, Note_on_c, 0, 61, 100
2, 292400, Note_on_c, 0, 85, 100
2, 292400, Note_on_c, 0, 97, 100
2, 292508, Note_on_c, 0, 73, 0
2, 292508, Note_on_c, 0, 61, 0
2, 292508, Note_on_c, 0, 85, 0
2, 292508, Note_on_c, 0, 97, 0
2, 292800, Note_on_c, 0, 84, 100
2, 292800, Note_on_c, 0, 60, 100
2, 292800, Note_on_c, 0, 72, 100
2, 292800, Note_on_c, 0, 96, 100
2, 292908, Note_on_c, 0, 84, 0
2, 292908, Note_on_c, 0, 60, 0
2, 292908, Note_on_c, 0, 72, 0
2, 292908, Note_on_c, 0, 96, 0
2, 293520, Note_on_c, 0, 85, 100
2, 293520, Note_on_c, 0, 88, 100
2, 293520, Note_on_c, 0, 61, 100
2, 293520, Note_on_c, 0, 62, 100
2, 293520, Note_on_c, 0, 73, 100
2, 293520, Note_on_c, 0, 75, 100
2, 293520, Note_on_c, 0, 98, 100
2, 293640, Note_on_c, 0, 98, 0
2, 293640, Note_on_c, 0, 99, 100
2, 293760, Note_on_c, 0, 99, 0
2, 293760, Note_on_c, 0, 100, 100
2, 293760, Note_on_c, 0, 97, 100
2, 295360, Note_on_c, 0, 100, 0
2, 295360, Note_on_c, 0, 97, 0
2, 295440, Note_on_c, 0, 85, 0
2, 295440, Note_on_c, 0, 88, 0
2, 295440, Note_on_c, 0, 61, 0
2, 295440, Note_on_c, 0, 62, 0
2, 295440, Note_on_c, 0, 73, 0
2, 295440, Note_on_c, 0, 75, 0
2, 295440, Note_on_c, 0, 97, 100
2, 295494, Note_on_c, 0, 97, 0
2, 295520, Note_on_c, 0, 98, 100
2, 295574, Note_on_c, 0, 98, 0
2, 295600, Note_on_c, 0, 88, 100
2, 295600, Note_on_c, 0, 100, 100
2, 295600, Note_on_c, 0, 75, 100
2, 295600, Note_on_c, 0, 62, 100
2, 295654, Note_on_c, 0, 88, 0
2, 295654, Note_on_c, 0, 100, 0
2, 295654, Note_on_c, 0, 75, 0
2, 295654, Note_on_c, 0, 62, 0
2, 295680, Text_t, "drum_off"
2, 295800, Note_on_c, 0, 87, 100
2, 295800, Note_on_c, 0, 75, 100
2, 295800, Note_on_c, 0, 99, 100
2, 295854, Note_on_c, 0, 87, 0
2, 295854, Note_on_c, 0, 75, 0
2, 295854, Note_on_c, 0, 99, 0
2, 295920, Note_on_c, 0, 86, 100
2, 295920, Note_on_c, 0, 61, 100
2, 295920, Note_on_c, 0, 74, 100
2, 295920, Note_on_c, 0, 98, 100
2, 295976, Note_on_c, 0, 86, 0
2, 295976, Note_on_c, 0, 61, 0
2, 295976, Note_on_c, 0, 74, 0
2, 295976, Note_on_c, 0, 98, 0
2, 296040, Note_on_c, 0, 85, 100
2, 296040, Note_on_c, 0, 97, 100
2, 296096, Note_on_c, 0, 85, 0
2, 296096, Note_on_c, 0, 97, 0
2, 296160, Note_on_c, 0, 86, 100
2, 296160, Note_on_c, 0, 73, 100
2, 296160, Note_on_c, 0, 98, 100
2, 296214, Note_on_c, 0, 86, 0
2, 296214, Note_on_c, 0, 73, 0
2, 296214, Note_on_c, 0, 98, 0
2, 296280, Note_on_c, 0, 85, 100
2, 296280, Note_on_c, 0, 97, 100
2, 296334, Note_on_c, 0, 85, 0
2, 296334, Note_on_c, 0, 97, 0
2, 296400, Note_on_c, 0, 84, 100
2, 296400, Note_on_c, 0, 61, 100
2, 296400, Note_on_c, 0, 72, 100
2, 296400, Note_on_c, 0, 96, 100
2, 296456, Note_on_c, 0, 84, 0
2, 296456, Note_on_c, 0, 61, 0
2, 296456, Note_on_c, 0, 72, 0
2, 296456, Note_on_c, 0, 96, 0
2, 296520, Note_on_c, 0, 85, 100
2, 296520, Note_on_c, 0, 97, 100
2, 296574, Note_on_c, 0, 85, 0
2, 296574, Note_on_c, 0, 97, 0
2, 296640, Note_on_c, 0, 86, 100
2, 296640, Note_on_c, 0, 61, 100
2, 296640, Note_on_c, 0, 73, 100
2, 296640, Note_on_c, 0, 98, 100
2, 297600, Note_on_c, 0, 86, 0
2, 297600, Note_on_c, 0, 61, 0
2, 297600, Note_on_c, 0, 73, 0
2, 297600, Note_on_c, 0, 98, 0
2, 297970, Note_on_c, 0, 81, 0
2, 297970, Note_on_c, 0, 69, 0
2, 297970, Note_on_c, 0, 93, 0
2, 297970, Note_on_c, 0, 105, 0
2, 298050, Note_on_c, 0, 82, 100
2, 298050, Note_on_c, 0, 70, 100
2, 298050, Note_on_c, 0, 94, 100
2, 298050, Note_on_c, 0, 106, 100
2, 298080, Note_on_c, 0, 87, 100
2, 298080, Note_on_c, 0, 62, 100
2, 298080, Note_on_c, 0, 75, 100
2, 298080, Note_on_c, 0, 99, 100
2, 298192, Note_on_c, 0, 87, 0
2, 298192, Note_on_c, 0, 62, 0
2, 298192, Note_on_c, 0, 75, 0
2, 298192, Note_on_c, 0, 99, 0
2, 298240, Note_on_c, 0, 74, 100
2, 298240, Note_on_c, 0, 86, 100
2, 298240, Note_on_c, 0, 98, 100
2, 298352, Note_on_c, 0, 74, 0
2, 298352, Note_on_c, 0, 86, 0
2, 298352, Note_on_c, 0, 98, 0
2, 298720, Note_on_c, 0, 75, 100
2, 298720, Note_on_c, 0, 62, 100
2, 298720, Note_on_c, 0, 88, 100
2, 298720, Note_on_c, 0, 100, 100
2, 298800, Note_on_c, 0, 75, 0
2, 298800, Note_on_c, 0, 62, 0
2, 298800, Note_on_c, 0, 88, 0
2, 298800, Note_on_c, 0, 100, 0
2, 298800, Note_on_c, 0, 87, 100
2, 298800, Note_on_c, 0, 99, 100
2, 298880, Note_on_c, 0, 87, 0
2, 298880, Note_on_c, 0, 99, 0
2, 298880, Note_on_c, 0, 86, 100
2, 298880, Note_on_c, 0, 73, 100
2, 298880, Note_on_c, 0, 98, 100
2, 298960, Note_on_c, 0, 86, 0
2, 298960, Note_on_c, 0, 73, 0
2, 298960, Note_on_c, 0, 98, 0
2, 298960, Note_on_c, 0, 99, 100
2, 299040, Note_on_c, 0, 99, 0
2, 299040, Note_on_c, 0, 86, 100
2, 299040, Note_on_c, 0, 98, 100
2, 299120, Note_on_c, 0, 86, 0
2, 299120, Note_on_c, 0, 98, 0
2, 299120, Note_on_c, 0, 85, 100
2, 299120, Note_on_c, 0, 97, 100
2, 299200, Note_on_c, 0, 85, 0
2, 299200, Note_on_c, 0, 97, 0
2, 299200, Note_on_c, 0, 72, 100
2, 299200, Note_on_c, 0, 60, 100
2, 299200, Note_on_c, 0, 84, 100
2, 299200, Note_on_c, 0, 96, 100
2, 299280, Note_on_c, 0, 72, 0
2, 299280, Note_on_c, 0, 60, 0
2, 299280, Note_on_c, 0, 84, 0
2, 299280, Note_on_c, 0, 96, 0
2, 299280, Note_on_c, 0, 85, 100
2, 299280, Note_on_c, 0, 97, 100
2, 299360, Note_on_c, 0, 85, 0
2, 299360, Note_on_c, 0, 97, 0
2, 299360, Note_on_c, 0, 86, 100
2, 299360, Note_on_c, 0, 98, 100
2, 299480, Note_on_c, 0, 86, 0
2, 299480, Note_on_c, 0, 98, 0
2, 299480, Note_on_c, 0, 87, 100
2, 299480, Note_on_c, 0, 74, 100
2, 299480, Note_on_c, 0, 61, 100
2, 299480, Note_on_c, 0, 99, 100
2, 299600, Note_on_c, 0, 87, 0
2, 299600, Note_on_c, 0, 74, 0
2, 299600, Note_on_c, 0, 61, 0
2, 299600, Note_on_c, 0, 99, 0
2, 299890, Note_on_c, 0, 81, 100
2, 299890, Note_on_c, 0, 69, 100
2, 299890, Note_on_c, 0, 93, 100
2, 299890, Note_on_c, 0, 105, 100
2, 299920, Note_on_c, 0, 74, 100
2, 299920, Note_on_c, 0, 73, 100
2, 299920, Note_on_c, 0, 62, 100
2, 299920, Note_on_c, 0, 61, 100
2, 299920, Note_on_c, 0, 85, 100
2, 299920, Note_on_c, 0, 97, 100
2, 300040, Note_on_c, 0, 85, 0
2, 300040, Note_on_c, 0, 97, 0
2, 300040, Note_on_c, 0, 85, 100
2, 300040, Note_on_c, 0, 87, 100
2, 300040, Note_on_c, 0, 97, 100
2, 300040, Note_on_c, 0, 99, 100
2, 300480, Text_t, "bass_off"
2, 303640, Note_on_c, 0, 74, 0
2, 303640, Note_on_c, 0, 73, 0
2, 303640, Note_on_c, 0, 62, 0
2, 303640, Note_on_c, 0, 61, 0
2, 303640, Note_on_c, 0, 85, 0
2, 303640, Note_on_c, 0, 87, 0
2, 303640, Note_on_c, 0, 97, 0
2, 303640, Note_on_c, 0, 99, 0
2, 304320, Text_t, "[idle]"
2, 304530, Note_on_c, 0, 82, 0
2, 304530, Note_on_c, 0, 70, 0
2, 304530, Note_on_c, 0, 94, 0
2, 304530, Note_on_c, 0, 106, 0
2, 304770, Note_on_c, 0, 81, 0
2, 304770, Note_on_c, 0, 69, 0
2, 304770, Note_on_c, 0, 93, 0
2, 304770, Note_on_c, 0, 105, 0
2, 304770, End_track
3, 0, Start_track
3, 0, Title_t, "EVENTS"
3, 0, Text_t, "[verse]"
3, 0, Text_t, "[lighting ()]"
3, 0, Text_t, "bass_off"
3, 0, Text_t, "gtr_double_tempo"
3, 0, Text_t, "[double_tempo]"
3, 0, Text_t, "[crowd_double_tempo]"
3, 2520, Text_t, "[music_start]"
3, 2520, Text_t, "drum_on"
3, 3840, Text_t, "bass_on"
3, 17280, Text_t, "[lighting ()]"
3, 19200, Text_t, "drum_normal"
3, 19200, Text_t, "[solo]"
3, 19200, Text_t, "[lighting ()]"
3, 63356, Text_t, "[lighting (color2)]"
3, 63946, Text_t, "[lighting (flare)]"
3, 65280, Text_t, "[lighting ()]"
3, 65280, Text_t, "[verse]"
3, 65280, Text_t, "drum_normal"
3, 72960, Text_t, "[lighting ()]"
3, 79328, Text_t, "[lighting (color2)]"
3, 88320, Text_t, "[lighting ()]"
3, 95040, Text_t, "[lighting (color1)]"
3, 103680, Text_t, "[lighting (sweep)]"
3, 109440, Text_t, "[lighting ()]"
3, 110070, Text_t, "[lighting (color1)]"
3, 111360, Text_t, "[lighting ()]"
3, 119040, Text_t, "[lighting ()]"
3, 125404, Text_t, "[lighting (color2)]"
3, 134400, Text_t, "[lighting ()]"
3, 140160, Text_t, "[lighting (flare)]"
3, 155520, Text_t, "[lighting ()]"
3, 156480, Text_t, "[lighting (sweep)]"
3, 157440, Text_t, "[lighting ()]"
3, 157440, Text_t, "[solo]"
3, 170880, Text_t, "[lighting ()]"
3, 172800, Text_t, "drum_normal"
3, 247680, Text_t, "[lighting ()]"
3, 248294, Text_t, "[lighting (sweep)]"
3, 249600, Text_t, "[lighting ()]"
3, 249600, Text_t, "solo_off"
3, 249600, Text_t, "[verse]"
3, 257280, Text_t, "[lighting ()]"
3, 263646, Text_t, "[lighting (flare)]"
3, 273244, Text_t, "[lighting ()]"
3, 279648, Text_t, "[lighting (sweep)]"
3, 284160, Text_t, "[lighting ()]"
3, 284160, Text_t, "[lighting (blackout)]"
3, 285120, Text_t, "[lighting (flare)]"
3, 288000, Text_t, "[lighting ()]"
3, 288616, Text_t, "bass_on"
3, 288616, Text_t, "gtr_on"
3, 288616, Text_t, "sing_off "
3, 294720, Text_t, "[lighting (flare)]"
3, 299520, Text_t, "[lighting ()]"
3, 303360, Text_t, "[lighting (blackout)]"
3, 306238, Text_t, "[end]"
3, 306238, End_track
4, 0, Start_track
4, 0, Title_t, "ANIM"
4, 2880, Note_on_c, 2, 40, 100
4, 3038, Note_on_c, 2, 40, 0
4, 3198, Note_on_c, 2, 42, 100
4, 3356, Note_on_c, 2, 42, 0
4, 3520, Note_on_c, 2, 44, 100
4, 3678, Note_on_c, 2, 44, 0
4, 3840, Note_on_c, 2, 46, 100
4, 4320, Note_on_c, 2, 46, 0
4, 4480, Note_on_c, 2, 48, 100
4, 4640, Note_on_c, 2, 48, 0
4, 4800, Note_on_c, 2, 46, 100
4, 5280, Note_on_c, 2, 46, 0
4, 5440, Note_on_c, 2, 43, 100
4, 5920, Note_on_c, 2, 43, 0
4, 6080, Note_on_c, 2, 49, 100
4, 6560, Note_on_c, 2, 49, 0
4, 6720, Note_on_c, 2, 43, 100
4, 6882, Note_on_c, 2, 43, 0
4, 7040, Note_on_c, 2, 45, 100
4, 7200, Note_on_c, 2, 45, 0
4, 7360, Note_on_c, 2, 47, 100
4, 7520, Note_on_c, 2, 47, 0
4, 7680, Note_on_c, 2, 49, 100
4, 8160, Note_on_c, 2, 49, 0
4, 8320, Note_on_c, 2, 51, 100
4, 8476, Note_on_c, 2, 51, 0
4, 8640, Note_on_c, 2, 47, 100
4, 9120, Note_on_c, 2, 47, 0
4, 9240, Note_on_c, 2, 45, 100
4, 9720, Note_on_c, 2, 45, 0
4, 9920, Note_on_c, 2, 49, 100
4, 11200, Note_on_c, 2, 49, 0
4, 11520, Note_on_c, 2, 44, 100
4, 11640, Note_on_c, 2, 44, 0
4, 12160, Note_on_c, 2, 46, 100
4, 12320, Note_on_c, 2, 46, 0
4, 12440, Note_on_c, 2, 50, 100
4, 12600, Note_on_c, 2, 50, 0
4, 12800, Note_on_c, 2, 44, 100
4, 12880, Note_on_c, 2, 44, 0
4, 13080, Note_on_c, 2, 50, 100
4, 13160, Note_on_c, 2, 50, 0
4, 13440, Note_on_c, 2, 48, 100
4, 13518, Note_on_c, 2, 48, 0
4, 13760, Note_on_c, 2, 46, 100
4, 13840, Note_on_c, 2, 46, 0
4, 13920, Note_on_c, 2, 48, 100
4, 13998, Note_on_c, 2, 48, 0
4, 14400, Note_on_c, 2, 46, 100
4, 15000, Note_on_c, 2, 46, 0
4, 15040, Note_on_c, 2, 42, 100
4, 15280, Note_on_c, 2, 42, 0
4, 15360, Note_on_c, 2, 44, 100
4, 15440, Note_on_c, 2, 44, 0
4, 15520, Note_on_c, 2, 42, 100
4, 16240, Note_on_c, 2, 42, 0
4, 16320, Note_on_c, 2, 40, 100
4, 16400, Note_on_c, 2, 40, 0
4, 16800, Note_on_c, 2, 44, 100
4, 16880, Note_on_c, 2, 44, 0
4, 17280, Note_on_c, 2, 48, 100
4, 18160, Note_on_c, 2, 48, 0
4, 18240, Note_on_c, 2, 44, 100
4, 18320, Note_on_c, 2, 44, 0
4, 18560, Note_on_c, 2, 46, 100
4, 18962, Note_on_c, 2, 46, 0
4, 19200, Note_on_c, 2, 48, 100
4, 19282, Note_on_c, 2, 48, 0
4, 19520, Note_on_c, 2, 46, 100
4, 19602, Note_on_c, 2, 46, 0
4, 19680, Note_on_c, 2, 44, 100
4, 19760, Note_on_c, 2, 44, 0
4, 20160, Note_on_c, 2, 47, 100
4, 21066, Note_on_c, 2, 47, 0
4, 21120, Note_on_c, 2, 49, 100
4, 21202, Note_on_c, 2, 49, 0
4, 21440, Note_on_c, 2, 45, 100
4, 21520, Note_on_c, 2, 45, 0
4, 21600, Note_on_c, 2, 47, 100
4, 21680, Note_on_c, 2, 47, 0
4, 21920, Note_on_c, 2, 43, 100
4, 22000, Note_on_c, 2, 43, 0
4, 22392, Note_on_c, 2, 40, 100
4, 22512, Note_on_c, 2, 40, 0
4, 22720, Note_on_c, 2, 52, 100
4, 22880, Note_on_c, 2, 52, 0
4, 23040, Note_on_c, 2, 40, 100
4, 23200, Note_on_c, 2, 40, 0
4, 23680, Note_on_c, 2, 46, 100
4, 23840, Note_on_c, 2, 46, 0
4, 24000, Note_on_c, 2, 48, 100
4, 24160, Note_on_c, 2, 48, 0
4, 24160, Note_on_c, 2, 50, 100
4, 24960, Note_on_c, 2, 50, 0
4, 24960, Note_on_c, 2, 48, 100
4, 25120, Note_on_c, 2, 48, 0
4, 25440, Note_on_c, 2, 44, 100
4, 26880, Note_on_c, 2, 44, 0
4, 26880, Note_on_c, 2, 50, 100
4, 29440, Note_on_c, 2, 50, 0
4, 29760, Note_on_c, 2, 48, 100
4, 30560, Note_on_c, 2, 48, 0
4, 30720, Note_on_c, 2, 45, 100
4, 31654, Note_on_c, 2, 45, 0
4, 31654, Note_on_c, 2, 47, 100
4, 32876, Note_on_c, 2, 47, 0
4, 32960, Note_on_c, 2, 48, 100
4, 33520, Note_on_c, 2, 48, 0
4, 33520, Note_on_c, 2, 49, 100
4, 34240, Note_on_c, 2, 49, 0
4, 34560, Note_on_c, 2, 44, 100
4, 34720, Note_on_c, 2, 44, 0
4, 34880, Note_on_c, 2, 48, 100
4, 35040, Note_on_c, 2, 48, 0
4, 35040, Note_on_c, 2, 46, 100
4, 35680, Note_on_c, 2, 46, 0
4, 36120, Note_on_c, 2, 40, 100
4, 36200, Note_on_c, 2, 40, 0
4, 36480, Note_on_c, 2, 46, 100
4, 36642, Note_on_c, 2, 46, 0
4, 36840, Note_on_c, 2, 48, 100
4, 36948, Note_on_c, 2, 48, 0
4, 37120, Note_on_c, 2, 46, 100
4, 37226, Note_on_c, 2, 46, 0
4, 37440, Note_on_c, 2, 53, 100
4, 37548, Note_on_c, 2, 53, 0
4, 38400, Note_on_c, 2, 40, 100
4, 38720, Note_on_c, 2, 40, 0
4, 39040, Note_on_c, 2, 46, 100
4, 39360, Note_on_c, 2, 46, 0
4, 39520, Note_on_c, 2, 50, 100
4, 40480, Note_on_c, 2, 50, 0
4, 40640, Note_on_c, 2, 46, 100
4, 41678, Note_on_c, 2, 46, 0
4, 41920, Note_on_c, 2, 44, 100
4, 42078, Note_on_c, 2, 44, 0
4, 42240, Note_on_c, 2, 48, 100
4, 43836, Note_on_c, 2, 48, 0
4, 44400, Note_on_c, 2, 50, 100
4, 45120, Note_on_c, 2, 50, 0
4, 45120, Note_on_c, 2, 48, 100
4, 45840, Note_on_c, 2, 48, 0
4, 46160, Note_on_c, 2, 44, 100
4, 46880, Note_on_c, 2, 44, 0
4, 47040, Note_on_c, 2, 46, 100
4, 47160, Note_on_c, 2, 46, 0
4, 47640, Note_on_c, 2, 40, 100
4, 47760, Note_on_c, 2, 40, 0
4, 48000, Note_on_c, 2, 46, 100
4, 48120, Note_on_c, 2, 46, 0
4, 48210, Note_on_c, 2, 48, 100
4, 48318, Note_on_c, 2, 48, 0
4, 48960, Note_on_c, 2, 40, 100
4, 49066, Note_on_c, 2, 40, 0
4, 49280, Note_on_c, 2, 46, 100
4, 49386, Note_on_c, 2, 46, 0
4, 49600, Note_on_c, 2, 42, 100
4, 49706, Note_on_c, 2, 42, 0
4, 49920, Note_on_c, 2, 46, 100
4, 49974, Note_on_c, 2, 46, 0
4, 50080, Note_on_c, 2, 48, 100
4, 50134, Note_on_c, 2, 48, 0
4, 50240, Note_on_c, 2, 46, 100
4, 50292, Note_on_c, 2, 46, 0
4, 50460, Note_on_c, 2, 48, 100
4, 50514, Note_on_c, 2, 48, 0
4, 50700, Note_on_c, 2, 46, 100
4, 50760, Note_on_c, 2, 46, 0
4, 50880, Note_on_c, 2, 46, 100
4, 50986, Note_on_c, 2, 46, 0
4, 51192, Note_on_c, 2, 42, 100
4, 51272, Note_on_c, 2, 42, 0
4, 51360, Note_on_c, 2, 46, 100
4, 51520, Note_on_c, 2, 46, 0
4, 51680, Note_on_c, 2, 42, 100
4, 51840, Note_on_c, 2, 42, 0
4, 51840, Note_on_c, 2, 44, 100
4, 51960, Note_on_c, 2, 44, 0
4, 51960, Note_on_c, 2, 42, 100
4, 52080, Note_on_c, 2, 42, 0
4, 52080, Note_on_c, 2, 40, 100
4, 52200, Note_on_c, 2, 40, 0
4, 52240, Note_on_c, 2, 42, 100
4, 52560, Note_on_c, 2, 42, 0
4, 52800, Note_on_c, 2, 44, 100
4, 52882, Note_on_c, 2, 44, 0
4, 53440, Note_on_c, 2, 42, 100
4, 53708, Note_on_c, 2, 42, 0
4, 53840, Note_on_c, 2, 44, 100
4, 54000, Note_on_c, 2, 44, 0
4, 56000, Note_on_c, 2, 46, 100
4, 56160, Note_on_c, 2, 46, 0
4, 56320, Note_on_c, 2, 48, 100
4, 56480, Note_on_c, 2, 48, 0
4, 56640, Note_on_c, 2, 44, 100
4, 56800, Note_on_c, 2, 44, 0
4, 57280, Note_on_c, 2, 45, 100
4, 57680, Note_on_c, 2, 45, 0
4, 57920, Note_on_c, 2, 41, 100
4, 58000, Note_on_c, 2, 41, 0
4, 58240, Note_on_c, 2, 40, 100
4, 58400, Note_on_c, 2, 40, 0
4, 58560, Note_on_c, 2, 45, 100
4, 58720, Note_on_c, 2, 45, 0
4, 58880, Note_on_c, 2, 51, 100
4, 59040, Note_on_c, 2, 51, 0
4, 59200, Note_on_c, 2, 47, 100
4, 59360, Note_on_c, 2, 47, 0
4, 59360, Note_on_c, 2, 49, 100
4, 59440, Note_on_c, 2, 49, 0
4, 59680, Note_on_c, 2, 45, 100
4, 60320, Note_on_c, 2, 45, 0
4, 60480, Note_on_c, 2, 47, 100
4, 60560, Note_on_c, 2, 47, 0
4, 60800, Note_on_c, 2, 44, 100
4, 60960, Note_on_c, 2, 44, 0
4, 60960, Note_on_c, 2, 46, 100
4, 61120, Note_on_c, 2, 46, 0
4, 61120, Note_on_c, 2, 44, 100
4, 61280, Note_on_c, 2, 44, 0
4, 61280, Note_on_c, 2, 40, 100
4, 61360, Note_on_c, 2, 40, 0
4, 61440, Note_on_c, 2, 42, 100
4, 61520, Note_on_c, 2, 42, 0
4, 61600, Note_on_c, 2, 40, 100
4, 61760, Note_on_c, 2, 40, 0
4, 61760, Note_on_c, 2, 44, 100
4, 62396, Note_on_c, 2, 44, 0
4, 62720, Note_on_c, 2, 40, 100
4, 62876, Note_on_c, 2, 40, 0
4, 63356, Note_on_c, 2, 47, 100
4, 65596, Note_on_c, 2, 47, 0
4, 67040, Note_on_c, 2, 44, 100
4, 67120, Note_on_c, 2, 44, 0
4, 67200, Note_on_c, 2, 40, 100
4, 67360, Note_on_c, 2, 40, 0
4, 67520, Note_on_c, 2, 46, 100
4, 67680, Note_on_c, 2, 46, 0
4, 67840, Note_on_c, 2, 44, 100
4, 68000, Note_on_c, 2, 44, 0
4, 68480, Note_on_c, 2, 40, 100
4, 68960, Note_on_c, 2, 40, 0
4, 69120, Note_on_c, 2, 46, 100
4, 71360, Note_on_c, 2, 46, 0
4, 72960, Note_on_c, 2, 45, 100
4, 73040, Note_on_c, 2, 45, 0
4, 73200, Note_on_c, 2, 49, 100
4, 73280, Note_on_c, 2, 49, 0
4, 73280, Note_on_c, 2, 47, 100
4, 73360, Note_on_c, 2, 47, 0
4, 73360, Note_on_c, 2, 49, 100
4, 73880, Note_on_c, 2, 49, 0
4, 73920, Note_on_c, 2, 51, 100
4, 74080, Note_on_c, 2, 51, 0
4, 74080, Note_on_c, 2, 49, 100
4, 74240, Note_on_c, 2, 49, 0
4, 74240, Note_on_c, 2, 53, 100
4, 74400, Note_on_c, 2, 53, 0
4, 74880, Note_on_c, 2, 49, 100
4, 74960, Note_on_c, 2, 49, 0
4, 75040, Note_on_c, 2, 51, 100
4, 75120, Note_on_c, 2, 51, 0
4, 75360, Note_on_c, 2, 47, 100
4, 75840, Note_on_c, 2, 47, 0
4, 75840, Note_on_c, 2, 49, 100
4, 75920, Note_on_c, 2, 49, 0
4, 76080, Note_on_c, 2, 45, 100
4, 76800, Note_on_c, 2, 45, 0
4, 76920, Note_on_c, 2, 44, 100
4, 77026, Note_on_c, 2, 44, 0
4, 77160, Note_on_c, 2, 50, 100
4, 77268, Note_on_c, 2, 50, 0
4, 77400, Note_on_c, 2, 46, 100
4, 77508, Note_on_c, 2, 46, 0
4, 77600, Note_on_c, 2, 52, 100
4, 77758, Note_on_c, 2, 52, 0
4, 77760, Note_on_c, 2, 48, 100
4, 77868, Note_on_c, 2, 48, 0
4, 77880, Note_on_c, 2, 50, 100
4, 77986, Note_on_c, 2, 50, 0
4, 78160, Note_on_c, 2, 44, 100
4, 78266, Note_on_c, 2, 44, 0
4, 78320, Note_on_c, 2, 46, 100
4, 78400, Note_on_c, 2, 46, 0
4, 78480, Note_on_c, 2, 42, 100
4, 78560, Note_on_c, 2, 42, 0
4, 78560, Note_on_c, 2, 47, 100
4, 78680, Note_on_c, 2, 47, 0
4, 78960, Note_on_c, 2, 44, 100
4, 79040, Note_on_c, 2, 44, 0
4, 79040, Note_on_c, 2, 46, 100
4, 79120, Note_on_c, 2, 46, 0
4, 79280, Note_on_c, 2, 44, 100
4, 79360, Note_on_c, 2, 44, 0
4, 79440, Note_on_c, 2, 46, 100
4, 79520, Note_on_c, 2, 46, 0
4, 79680, Note_on_c, 2, 40, 100
4, 80640, Note_on_c, 2, 40, 0
4, 82880, Note_on_c, 2, 44, 100
4, 83520, Note_on_c, 2, 44, 0
4, 83520, Note_on_c, 2, 46, 100
4, 83600, Note_on_c, 2, 46, 0
4, 83840, Note_on_c, 2, 40, 100
4, 83920, Note_on_c, 2, 40, 0
4, 84480, Note_on_c, 2, 44, 100
4, 86400, Note_on_c, 2, 44, 0
4, 88000, Note_on_c, 2, 45, 100
4, 88440, Note_on_c, 2, 45, 0
4, 88560, Note_on_c, 2, 49, 100
4, 89360, Note_on_c, 2, 49, 0
4, 89440, Note_on_c, 2, 47, 100
4, 89520, Note_on_c, 2, 47, 0
4, 89600, Note_on_c, 2, 51, 100
4, 90160, Note_on_c, 2, 51, 0
4, 90240, Note_on_c, 2, 47, 100
4, 90320, Note_on_c, 2, 47, 0
4, 90320, Note_on_c, 2, 49, 100
4, 90826, Note_on_c, 2, 49, 0
4, 90840, Note_on_c, 2, 47, 100
4, 92160, Note_on_c, 2, 47, 0
4, 92160, Note_on_c, 2, 49, 100
4, 92240, Note_on_c, 2, 49, 0
4, 92240, Note_on_c, 2, 47, 100
4, 93120, Note_on_c, 2, 47, 0
4, 93120, Note_on_c, 2, 49, 100
4, 93200, Note_on_c, 2, 49, 0
4, 93440, Note_on_c, 2, 50, 100
4, 93520, Note_on_c, 2, 50, 0
4, 93760, Note_on_c, 2, 44, 100
4, 93840, Note_on_c, 2, 44, 0
4, 94080, Note_on_c, 2, 46, 100
4, 95680, Note_on_c, 2, 46, 0
4, 97920, Note_on_c, 2, 52, 100
4, 98348, Note_on_c, 2, 52, 0
4, 99200, Note_on_c, 2, 41, 100
4, 99280, Note_on_c, 2, 41, 0
4, 99520, Note_on_c, 2, 45, 100
4, 99600, Note_on_c, 2, 45, 0
4, 99840, Note_on_c, 2, 47, 100
4, 101750, Note_on_c, 2, 47, 0
4, 103680, Note_on_c, 2, 45, 100
4, 103760, Note_on_c, 2, 45, 0
4, 104000, Note_on_c, 2, 51, 100
4, 104720, Note_on_c, 2, 51, 0
4, 104800, Note_on_c, 2, 49, 100
4, 104960, Note_on_c, 2, 49, 0
4, 104960, Note_on_c, 2, 53, 100
4, 105600, Note_on_c, 2, 53, 0
4, 105600, Note_on_c, 2, 51, 100
4, 105680, Note_on_c, 2, 51, 0
4, 105680, Note_on_c, 2, 53, 100
4, 105760, Note_on_c, 2, 53, 0
4, 105920, Note_on_c, 2, 49, 100
4, 106080, Note_on_c, 2, 49, 0
4, 106080, Note_on_c, 2, 51, 100
4, 106240, Note_on_c, 2, 51, 0
4, 106560, Note_on_c, 2, 48, 100
4, 106640, Note_on_c, 2, 48, 0
4, 106720, Note_on_c, 2, 46, 100
4, 106960, Note_on_c, 2, 46, 0
4, 107040, Note_on_c, 2, 42, 100
4, 107280, Note_on_c, 2, 42, 0
4, 107520, Note_on_c, 2, 46, 100
4, 107600, Note_on_c, 2, 46, 0
4, 107840, Note_on_c, 2, 48, 100
4, 107920, Note_on_c, 2, 48, 0
4, 108000, Note_on_c, 2, 46, 100
4, 108240, Note_on_c, 2, 46, 0
4, 108320, Note_on_c, 2, 42, 100
4, 108400, Note_on_c, 2, 42, 0
4, 108480, Note_on_c, 2, 46, 100
4, 108588, Note_on_c, 2, 46, 0
4, 108800, Note_on_c, 2, 40, 100
4, 108880, Note_on_c, 2, 40, 0
4, 109120, Note_on_c, 2, 44, 100
4, 110240, Note_on_c, 2, 44, 0
4, 110400, Note_on_c, 2, 46, 100
4, 111034, Note_on_c, 2, 46, 0
4, 112640, Note_on_c, 2, 40, 100
4, 113092, Note_on_c, 2, 40, 0
4, 113280, Note_on_c, 2, 45, 100
4, 114048, Note_on_c, 2, 45, 0
4, 114240, Note_on_c, 2, 40, 100
4, 114320, Note_on_c, 2, 40, 0
4, 114560, Note_on_c, 2, 42, 100
4, 114640, Note_on_c, 2, 42, 0
4, 114880, Note_on_c, 2, 44, 100
4, 114960, Note_on_c, 2, 44, 0
4, 115200, Note_on_c, 2, 47, 100
4, 119160, Note_on_c, 2, 47, 0
4, 119400, Note_on_c, 2, 51, 100
4, 120720, Note_on_c, 2, 51, 0
4, 120960, Note_on_c, 2, 53, 100
4, 121040, Note_on_c, 2, 53, 0
4, 121120, Note_on_c, 2, 47, 100
4, 121200, Note_on_c, 2, 47, 0
4, 121200, Note_on_c, 2, 49, 100
4, 121920, Note_on_c, 2, 49, 0
4, 121920, Note_on_c, 2, 47, 100
4, 121998, Note_on_c, 2, 47, 0
4, 122238, Note_on_c, 2, 45, 100
4, 122556, Note_on_c, 2, 45, 0
4, 122880, Note_on_c, 2, 48, 100
4, 122958, Note_on_c, 2, 48, 0
4, 123040, Note_on_c, 2, 50, 100
4, 123120, Note_on_c, 2, 50, 0
4, 123198, Note_on_c, 2, 47, 100
4, 123838, Note_on_c, 2, 47, 0
4, 124000, Note_on_c, 2, 44, 100
4, 124156, Note_on_c, 2, 44, 0
4, 124156, Note_on_c, 2, 46, 100
4, 124316, Note_on_c, 2, 46, 0
4, 124320, Note_on_c, 2, 44, 100
4, 124480, Note_on_c, 2, 44, 0
4, 124636, Note_on_c, 2, 40, 100
4, 124796, Note_on_c, 2, 40, 0
4, 124960, Note_on_c, 2, 44, 100
4, 125116, Note_on_c, 2, 44, 0
4, 125116, Note_on_c, 2, 48, 100
4, 125276, Note_on_c, 2, 48, 0
4, 125440, Note_on_c, 2, 46, 100
4, 125520, Note_on_c, 2, 46, 0
4, 125680, Note_on_c, 2, 40, 100
4, 126640, Note_on_c, 2, 40, 0
4, 128158, Note_on_c, 2, 46, 100
4, 128238, Note_on_c, 2, 46, 0
4, 128318, Note_on_c, 2, 40, 100
4, 128476, Note_on_c, 2, 40, 0
4, 128638, Note_on_c, 2, 44, 100
4, 128794, Note_on_c, 2, 44, 0
4, 129278, Note_on_c, 2, 46, 100
4, 129754, Note_on_c, 2, 46, 0
4, 130078, Note_on_c, 2, 44, 100
4, 130234, Note_on_c, 2, 44, 0
4, 130238, Note_on_c, 2, 40, 100
4, 130396, Note_on_c, 2, 40, 0
4, 130560, Note_on_c, 2, 46, 100
4, 132560, Note_on_c, 2, 46, 0
4, 134400, Note_on_c, 2, 46, 100
4, 134480, Note_on_c, 2, 46, 0
4, 134720, Note_on_c, 2, 49, 100
4, 136320, Note_on_c, 2, 49, 0
4, 136320, Note_on_c, 2, 51, 100
4, 136400, Note_on_c, 2, 51, 0
4, 136400, Note_on_c, 2, 49, 100
4, 137280, Note_on_c, 2, 49, 0
4, 137440, Note_on_c, 2, 53, 100
4, 138240, Note_on_c, 2, 53, 0
4, 138240, Note_on_c, 2, 51, 100
4, 138320, Note_on_c, 2, 51, 0
4, 138320, Note_on_c, 2, 53, 100
4, 138400, Note_on_c, 2, 53, 0
4, 138560, Note_on_c, 2, 49, 100
4, 138880, Note_on_c, 2, 49, 0
4, 139200, Note_on_c, 2, 50, 100
4, 139280, Note_on_c, 2, 50, 0
4, 139360, Note_on_c, 2, 48, 100
4, 139600, Note_on_c, 2, 48, 0
4, 139840, Note_on_c, 2, 42, 100
4, 139920, Note_on_c, 2, 42, 0
4, 140000, Note_on_c, 2, 44, 100
4, 140080, Note_on_c, 2, 44, 0
4, 140080, Note_on_c, 2, 42, 100
4, 140160, Note_on_c, 2, 42, 0
4, 140160, Note_on_c, 2, 48, 100
4, 140320, Note_on_c, 2, 48, 0
4, 140400, Note_on_c, 2, 50, 100
4, 140480, Note_on_c, 2, 50, 0
4, 140480, Note_on_c, 2, 46, 100
4, 141040, Note_on_c, 2, 46, 0
4, 141200, Note_on_c, 2, 40, 100
4, 143440, Note_on_c, 2, 40, 0
4, 144960, Note_on_c, 2, 48, 100
4, 145040, Note_on_c, 2, 48, 0
4, 145600, Note_on_c, 2, 40, 100
4, 145680, Note_on_c, 2, 40, 0
4, 145920, Note_on_c, 2, 45, 100
4, 147200, Note_on_c, 2, 45, 0
4, 149760, Note_on_c, 2, 44, 100
4, 149880, Note_on_c, 2, 44, 0
4, 150000, Note_on_c, 2, 48, 100
4, 150720, Note_on_c, 2, 48, 0
4, 150720, Note_on_c, 2, 50, 100
4, 150800, Note_on_c, 2, 50, 0
4, 150880, Note_on_c, 2, 48, 100
4, 150960, Note_on_c, 2, 48, 0
4, 151040, Note_on_c, 2, 52, 100
4, 151640, Note_on_c, 2, 52, 0
4, 151680, Note_on_c, 2, 50, 100
4, 151840, Note_on_c, 2, 50, 0
4, 152000, Note_on_c, 2, 48, 100
4, 153600, Note_on_c, 2, 48, 0
4, 153600, Note_on_c, 2, 50, 100
4, 153760, Note_on_c, 2, 50, 0
4, 153760, Note_on_c, 2, 48, 100
4, 154560, Note_on_c, 2, 48, 0
4, 154560, Note_on_c, 2, 50, 100
4, 154720, Note_on_c, 2, 50, 0
4, 154880, Note_on_c, 2, 48, 100
4, 155040, Note_on_c, 2, 48, 0
4, 155200, Note_on_c, 2, 44, 100
4, 155360, Note_on_c, 2, 44, 0
4, 155520, Note_on_c, 2, 46, 100
4, 155840, Note_on_c, 2, 46, 0
4, 156160, Note_on_c, 2, 48, 100
4, 156480, Note_on_c, 2, 48, 0
4, 156640, Note_on_c, 2, 52, 100
4, 157600, Note_on_c, 2, 52, 0
4, 157840, Note_on_c, 2, 48, 100
4, 159360, Note_on_c, 2, 48, 0
4, 159360, Note_on_c, 2, 50, 100
4, 159840, Note_on_c, 2, 50, 0
4, 159840, Note_on_c, 2, 46, 100
4, 160000, Note_on_c, 2, 46, 0
4, 160160, Note_on_c, 2, 53, 100
4, 160320, Note_on_c, 2, 53, 0
4, 160640, Note_on_c, 2, 44, 100
4, 160960, Note_on_c, 2, 44, 0
4, 161920, Note_on_c, 2, 48, 100
4, 162240, Note_on_c, 2, 48, 0
4, 162400, Note_on_c, 2, 52, 100
4, 163360, Note_on_c, 2, 52, 0
4, 163680, Note_on_c, 2, 48, 100
4, 165120, Note_on_c, 2, 48, 0
4, 165120, Note_on_c, 2, 52, 100
4, 168000, Note_on_c, 2, 52, 0
4, 168000, Note_on_c, 2, 50, 100
4, 168800, Note_on_c, 2, 50, 0
4, 168960, Note_on_c, 2, 47, 100
4, 169520, Note_on_c, 2, 47, 0
4, 169600, Note_on_c, 2, 45, 100
4, 169920, Note_on_c, 2, 45, 0
4, 169920, Note_on_c, 2, 47, 100
4, 170480, Note_on_c, 2, 47, 0
4, 170560, Note_on_c, 2, 48, 100
4, 171120, Note_on_c, 2, 48, 0
4, 171200, Note_on_c, 2, 50, 100
4, 171760, Note_on_c, 2, 50, 0
4, 171840, Note_on_c, 2, 51, 100
4, 172720, Note_on_c, 2, 51, 0
4, 172800, Note_on_c, 2, 50, 100
4, 172960, Note_on_c, 2, 50, 0
4, 173280, Note_on_c, 2, 46, 100
4, 174080, Note_on_c, 2, 46, 0
4, 174400, Note_on_c, 2, 44, 100
4, 174560, Note_on_c, 2, 44, 0
4, 174720, Note_on_c, 2, 48, 100
4, 174880, Note_on_c, 2, 48, 0
4, 175120, Note_on_c, 2, 42, 100
4, 175200, Note_on_c, 2, 42, 0
4, 175280, Note_on_c, 2, 46, 100
4, 175360, Note_on_c, 2, 46, 0
4, 175440, Note_on_c, 2, 42, 100
4, 175520, Note_on_c, 2, 42, 0
4, 175680, Note_on_c, 2, 43, 100
4, 175840, Note_on_c, 2, 43, 0
4, 175920, Note_on_c, 2, 41, 100
4, 176000, Note_on_c, 2, 41, 0
4, 176000, Note_on_c, 2, 43, 100
4, 176080, Note_on_c, 2, 43, 0
4, 176160, Note_on_c, 2, 41, 100
4, 176320, Note_on_c, 2, 41, 0
4, 176560, Note_on_c, 2, 47, 100
4, 176640, Note_on_c, 2, 47, 0
4, 176800, Note_on_c, 2, 41, 100
4, 176880, Note_on_c, 2, 41, 0
4, 177200, Note_on_c, 2, 44, 100
4, 177680, Note_on_c, 2, 44, 0
4, 177760, Note_on_c, 2, 46, 100
4, 177920, Note_on_c, 2, 46, 0
4, 177920, Note_on_c, 2, 44, 100
4, 178080, Note_on_c, 2, 44, 0
4, 178080, Note_on_c, 2, 46, 100
4, 178720, Note_on_c, 2, 46, 0
4, 178720, Note_on_c, 2, 44, 100
4, 178880, Note_on_c, 2, 44, 0
4, 178960, Note_on_c, 2, 46, 100
4, 179120, Note_on_c, 2, 46, 0
4, 179120, Note_on_c, 2, 44, 100
4, 179280, Note_on_c, 2, 44, 0
4, 179280, Note_on_c, 2, 46, 100
4, 179360, Note_on_c, 2, 46, 0
4, 179440, Note_on_c, 2, 44, 100
4, 179600, Note_on_c, 2, 44, 0
4, 179640, Note_on_c, 2, 46, 100
4, 179800, Note_on_c, 2, 46, 0
4, 179840, Note_on_c, 2, 44, 100
4, 179920, Note_on_c, 2, 44, 0
4, 180000, Note_on_c, 2, 42, 100
4, 180160, Note_on_c, 2, 42, 0
4, 180160, Note_on_c, 2, 44, 100
4, 180320, Note_on_c, 2, 44, 0
4, 180320, Note_on_c, 2, 42, 100
4, 180480, Note_on_c, 2, 42, 0
4, 180600, Note_on_c, 2, 40, 100
4, 180680, Note_on_c, 2, 40, 0
4, 180720, Note_on_c, 2, 42, 100
4, 180880, Note_on_c, 2, 42, 0
4, 181360, Note_on_c, 2, 48, 100
4, 181440, Note_on_c, 2, 48, 0
4, 181760, Note_on_c, 2, 40, 100
4, 181840, Note_on_c, 2, 40, 0
4, 182080, Note_on_c, 2, 42, 100
4, 182160, Note_on_c, 2, 42, 0
4, 182560, Note_on_c, 2, 54, 100
4, 182640, Note_on_c, 2, 54, 0
4, 182720, Note_on_c, 2, 52, 100
4, 182800, Note_on_c, 2, 52, 0
4, 182880, Note_on_c, 2, 54, 100
4, 182960, Note_on_c, 2, 54, 0
4, 183360, Note_on_c, 2, 54, 100
4, 183520, Note_on_c, 2, 54, 0
4, 184000, Note_on_c, 2, 44, 100
4, 184400, Note_on_c, 2, 44, 0
4, 184400, Note_on_c, 2, 46, 100
4, 184480, Note_on_c, 2, 46, 0
4, 184480, Note_on_c, 2, 44, 100
4, 184560, Note_on_c, 2, 44, 0
4, 184560, Note_on_c, 2, 46, 100
4, 184640, Note_on_c, 2, 46, 0
4, 184720, Note_on_c, 2, 40, 100
4, 184800, Note_on_c, 2, 40, 0
4, 184960, Note_on_c, 2, 48, 100
4, 185440, Note_on_c, 2, 48, 0
4, 185440, Note_on_c, 2, 46, 100
4, 185600, Note_on_c, 2, 46, 0
4, 185760, Note_on_c, 2, 50, 100
4, 186080, Note_on_c, 2, 50, 0
4, 186080, Note_on_c, 2, 52, 100
4, 186240, Note_on_c, 2, 52, 0
4, 186240, Note_on_c, 2, 46, 100
4, 188080, Note_on_c, 2, 46, 0
4, 188160, Note_on_c, 2, 48, 100
4, 189360, Note_on_c, 2, 48, 0
4, 189440, Note_on_c, 2, 50, 100
4, 191200, Note_on_c, 2, 50, 0
4, 191360, Note_on_c, 2, 51, 100
4, 193120, Note_on_c, 2, 51, 0
4, 193280, Note_on_c, 2, 52, 100
4, 195680, Note_on_c, 2, 52, 0
4, 195840, Note_on_c, 2, 48, 100
4, 195960, Note_on_c, 2, 48, 0
4, 195960, Note_on_c, 2, 50, 100
4, 196080, Note_on_c, 2, 50, 0
4, 196200, Note_on_c, 2, 46, 100
4, 197760, Note_on_c, 2, 46, 0
4, 197760, Note_on_c, 2, 48, 100
4, 197840, Note_on_c, 2, 48, 0
4, 197840, Note_on_c, 2, 46, 100
4, 199680, Note_on_c, 2, 46, 0
4, 199680, Note_on_c, 2, 48, 100
4, 199840, Note_on_c, 2, 48, 0
4, 199840, Note_on_c, 2, 46, 100
4, 200588, Note_on_c, 2, 46, 0
4, 200640, Note_on_c, 2, 48, 100
4, 200800, Note_on_c, 2, 48, 0
4, 200960, Note_on_c, 2, 46, 100
4, 201120, Note_on_c, 2, 46, 0
4, 201280, Note_on_c, 2, 40, 100
4, 201440, Note_on_c, 2, 40, 0
4, 201600, Note_on_c, 2, 42, 100
4, 202240, Note_on_c, 2, 42, 0
4, 202240, Note_on_c, 2, 44, 100
4, 202560, Note_on_c, 2, 44, 0
4, 202720, Note_on_c, 2, 48, 100
4, 202880, Note_on_c, 2, 48, 0
4, 203200, Note_on_c, 2, 50, 100
4, 203360, Note_on_c, 2, 50, 0
4, 203520, Note_on_c, 2, 48, 100
4, 203640, Note_on_c, 2, 48, 0
4, 203840, Note_on_c, 2, 49, 100
4, 204640, Note_on_c, 2, 49, 0
4, 204800, Note_on_c, 2, 46, 100
4, 204920, Note_on_c, 2, 46, 0
4, 205120, Note_on_c, 2, 47, 100
4, 205440, Note_on_c, 2, 47, 0
4, 205440, Note_on_c, 2, 46, 100
4, 205560, Note_on_c, 2, 46, 0
4, 205760, Note_on_c, 2, 47, 100
4, 206080, Note_on_c, 2, 47, 0
4, 206080, Note_on_c, 2, 48, 100
4, 206200, Note_on_c, 2, 48, 0
4, 206400, Note_on_c, 2, 49, 100
4, 206720, Note_on_c, 2, 49, 0
4, 206720, Note_on_c, 2, 46, 100
4, 206840, Note_on_c, 2, 46, 0
4, 207040, Note_on_c, 2, 47, 100
4, 207360, Note_on_c, 2, 47, 0
4, 207360, Note_on_c, 2, 46, 100
4, 207480, Note_on_c, 2, 46, 0
4, 207680, Note_on_c, 2, 47, 100
4, 208000, Note_on_c, 2, 47, 0
4, 208000, Note_on_c, 2, 48, 100
4, 208120, Note_on_c, 2, 48, 0
4, 208320, Note_on_c, 2, 49, 100
4, 208640, Note_on_c, 2, 49, 0
4, 208640, Note_on_c, 2, 46, 100
4, 208760, Note_on_c, 2, 46, 0
4, 208960, Note_on_c, 2, 47, 100
4, 209280, Note_on_c, 2, 47, 0
4, 209440, Note_on_c, 2, 48, 100
4, 209520, Note_on_c, 2, 48, 0
4, 209600, Note_on_c, 2, 46, 100
4, 210080, Note_on_c, 2, 46, 0
4, 210240, Note_on_c, 2, 44, 100
4, 210320, Note_on_c, 2, 44, 0
4, 210400, Note_on_c, 2, 42, 100
4, 211040, Note_on_c, 2, 42, 0
4, 211200, Note_on_c, 2, 46, 100
4, 212080, Note_on_c, 2, 46, 0
4, 212160, Note_on_c, 2, 43, 100
4, 212320, Note_on_c, 2, 43, 0
4, 212480, Note_on_c, 2, 47, 100
4, 212560, Note_on_c, 2, 47, 0
4, 212800, Note_on_c, 2, 43, 100
4, 213040, Note_on_c, 2, 43, 0
4, 213200, Note_on_c, 2, 48, 100
4, 213280, Note_on_c, 2, 48, 0
4, 213360, Note_on_c, 2, 45, 100
4, 213440, Note_on_c, 2, 45, 0
4, 213600, Note_on_c, 2, 51, 100
4, 213960, Note_on_c, 2, 51, 0
4, 214240, Note_on_c, 2, 47, 100
4, 214400, Note_on_c, 2, 47, 0
4, 214400, Note_on_c, 2, 45, 100
4, 214480, Note_on_c, 2, 45, 0
4, 214622, Note_on_c, 2, 49, 100
4, 214680, Note_on_c, 2, 49, 0
4, 214680, Note_on_c, 2, 45, 100
4, 214800, Note_on_c, 2, 45, 0
4, 214920, Note_on_c, 2, 49, 100
4, 215040, Note_on_c, 2, 49, 0
4, 215360, Note_on_c, 2, 40, 100
4, 215440, Note_on_c, 2, 40, 0
4, 215680, Note_on_c, 2, 46, 100
4, 216240, Note_on_c, 2, 46, 0
4, 216240, Note_on_c, 2, 42, 100
4, 216320, Note_on_c, 2, 42, 0
4, 216400, Note_on_c, 2, 46, 100
4, 216480, Note_on_c, 2, 46, 0
4, 216720, Note_on_c, 2, 42, 100
4, 216840, Note_on_c, 2, 42, 0
4, 216840, Note_on_c, 2, 44, 100
4, 216960, Note_on_c, 2, 44, 0
4, 217200, Note_on_c, 2, 40, 100
4, 217280, Note_on_c, 2, 40, 0
4, 217440, Note_on_c, 2, 42, 100
4, 217680, Note_on_c, 2, 42, 0
4, 217920, Note_on_c, 2, 47, 100
4, 218880, Note_on_c, 2, 47, 0
4, 219040, Note_on_c, 2, 51, 100
4, 219920, Note_on_c, 2, 51, 0
4, 220160, Note_on_c, 2, 47, 100
4, 221760, Note_on_c, 2, 47, 0
4, 221760, Note_on_c, 2, 49, 100
4, 222400, Note_on_c, 2, 49, 0
4, 222400, Note_on_c, 2, 47, 100
4, 222720, Note_on_c, 2, 47, 0
4, 222880, Note_on_c, 2, 51, 100
4, 224440, Note_on_c, 2, 51, 0
4, 225280, Note_on_c, 2, 49, 100
4, 225640, Note_on_c, 2, 49, 0
4, 225920, Note_on_c, 2, 47, 100
4, 226480, Note_on_c, 2, 47, 0
4, 226560, Note_on_c, 2, 49, 100
4, 226720, Note_on_c, 2, 49, 0
4, 226880, Note_on_c, 2, 45, 100
4, 228400, Note_on_c, 2, 45, 0
4, 228600, Note_on_c, 2, 49, 100
4, 228708, Note_on_c, 2, 49, 0
4, 228800, Note_on_c, 2, 47, 100
4, 229160, Note_on_c, 2, 47, 0
4, 229440, Note_on_c, 2, 52, 100
4, 229546, Note_on_c, 2, 52, 0
4, 229920, Note_on_c, 2, 40, 100
4, 230160, Note_on_c, 2, 40, 0
4, 230400, Note_on_c, 2, 43, 100
4, 230720, Note_on_c, 2, 43, 0
4, 230800, Note_on_c, 2, 45, 100
4, 230880, Note_on_c, 2, 45, 0
4, 230960, Note_on_c, 2, 43, 100
4, 231066, Note_on_c, 2, 43, 0
4, 231120, Note_on_c, 2, 47, 100
4, 231440, Note_on_c, 2, 47, 0
4, 231520, Note_on_c, 2, 43, 100
4, 231600, Note_on_c, 2, 43, 0
4, 231800, Note_on_c, 2, 48, 100
4, 231920, Note_on_c, 2, 48, 0
4, 232120, Note_on_c, 2, 43, 100
4, 232240, Note_on_c, 2, 43, 0
4, 232320, Note_on_c, 2, 47, 100
4, 232426, Note_on_c, 2, 47, 0
4, 232680, Note_on_c, 2, 41, 100
4, 232786, Note_on_c, 2, 41, 0
4, 232960, Note_on_c, 2, 47, 100
4, 233040, Note_on_c, 2, 47, 0
4, 233170, Note_on_c, 2, 43, 100
4, 233276, Note_on_c, 2, 43, 0
4, 233600, Note_on_c, 2, 49, 100
4, 233680, Note_on_c, 2, 49, 0
4, 234000, Note_on_c, 2, 41, 100
4, 234080, Note_on_c, 2, 41, 0
4, 234240, Note_on_c, 2, 47, 100
4, 234400, Note_on_c, 2, 47, 0
4, 234720, Note_on_c, 2, 41, 100
4, 235080, Note_on_c, 2, 41, 0
4, 235520, Note_on_c, 2, 49, 100
4, 235628, Note_on_c, 2, 49, 0
4, 236040, Note_on_c, 2, 41, 100
4, 236146, Note_on_c, 2, 41, 0
4, 236400, Note_on_c, 2, 47, 100
4, 236506, Note_on_c, 2, 47, 0
4, 236720, Note_on_c, 2, 41, 100
4, 236960, Note_on_c, 2, 41, 0
4, 237120, Note_on_c, 2, 47, 100
4, 237200, Note_on_c, 2, 47, 0
4, 237440, Note_on_c, 2, 43, 100
4, 237600, Note_on_c, 2, 43, 0
4, 237760, Note_on_c, 2, 40, 100
4, 238080, Note_on_c, 2, 40, 0
4, 238400, Note_on_c, 2, 44, 100
4, 238560, Note_on_c, 2, 44, 0
4, 238560, Note_on_c, 2, 42, 100
4, 238720, Note_on_c, 2, 42, 0
4, 239040, Note_on_c, 2, 48, 100
4, 239912, Note_on_c, 2, 48, 0
4, 239998, Note_on_c, 2, 46, 100
4, 240556, Note_on_c, 2, 46, 0
4, 240636, Note_on_c, 2, 48, 100
4, 240800, Note_on_c, 2, 48, 0
4, 241116, Note_on_c, 2, 44, 100
4, 241280, Note_on_c, 2, 44, 0
4, 241356, Note_on_c, 2, 46, 100
4, 241438, Note_on_c, 2, 46, 0
4, 241438, Note_on_c, 2, 44, 100
4, 241520, Note_on_c, 2, 44, 0
4, 241520, Note_on_c, 2, 46, 100
4, 241596, Note_on_c, 2, 46, 0
4, 241596, Note_on_c, 2, 40, 100
4, 241920, Note_on_c, 2, 40, 0
4, 241920, Note_on_c, 2, 46, 100
4, 242480, Note_on_c, 2, 46, 0
4, 242560, Note_on_c, 2, 40, 100
4, 242720, Note_on_c, 2, 40, 0
4, 242880, Note_on_c, 2, 49, 100
4, 243038, Note_on_c, 2, 49, 0
4, 243200, Note_on_c, 2, 52, 100
4, 243278, Note_on_c, 2, 52, 0
4, 243440, Note_on_c, 2, 48, 100
4, 243920, Note_on_c, 2, 48, 0
4, 244080, Note_on_c, 2, 44, 100
4, 244160, Note_on_c, 2, 44, 0
4, 244160, Note_on_c, 2, 46, 100
4, 244718, Note_on_c, 2, 46, 0
4, 244800, Note_on_c, 2, 44, 100
4, 244958, Note_on_c, 2, 44, 0
4, 245438, Note_on_c, 2, 41, 100
4, 245518, Note_on_c, 2, 41, 0
4, 245520, Note_on_c, 2, 43, 100
4, 245600, Note_on_c, 2, 43, 0
4, 245918, Note_on_c, 2, 40, 100
4, 246080, Note_on_c, 2, 40, 0
4, 246398, Note_on_c, 2, 48, 100
4, 246560, Note_on_c, 2, 48, 0
4, 247040, Note_on_c, 2, 43, 100
4, 247200, Note_on_c, 2, 43, 0
4, 247680, Note_on_c, 2, 48, 100
4, 249360, Note_on_c, 2, 48, 0
4, 249600, Note_on_c, 2, 41, 100
4, 250560, Note_on_c, 2, 41, 0
4, 251520, Note_on_c, 2, 45, 100
4, 252080, Note_on_c, 2, 45, 0
4, 252158, Note_on_c, 2, 47, 100
4, 252278, Note_on_c, 2, 47, 0
4, 252800, Note_on_c, 2, 40, 100
4, 253198, Note_on_c, 2, 40, 0
4, 253438, Note_on_c, 2, 46, 100
4, 255356, Note_on_c, 2, 46, 0
4, 257280, Note_on_c, 2, 44, 100
4, 257400, Note_on_c, 2, 44, 0
4, 257520, Note_on_c, 2, 48, 100
4, 259160, Note_on_c, 2, 48, 0
4, 259280, Note_on_c, 2, 52, 100
4, 260066, Note_on_c, 2, 52, 0
4, 260160, Note_on_c, 2, 50, 100
4, 260240, Note_on_c, 2, 50, 0
4, 260240, Note_on_c, 2, 52, 100
4, 260558, Note_on_c, 2, 50, 100
4, 260560, Note_on_c, 2, 52, 0
4, 262078, Note_on_c, 2, 50, 0
4, 262080, Note_on_c, 2, 52, 100
4, 262200, Note_on_c, 2, 52, 0
4, 262800, Note_on_c, 2, 42, 100
4, 262880, Note_on_c, 2, 42, 0
4, 263040, Note_on_c, 2, 46, 100
4, 263160, Note_on_c, 2, 46, 0
4, 263200, Note_on_c, 2, 42, 100
4, 263320, Note_on_c, 2, 42, 0
4, 263400, Note_on_c, 2, 44, 100
4, 263520, Note_on_c, 2, 44, 0
4, 263680, Note_on_c, 2, 42, 100
4, 263760, Note_on_c, 2, 42, 0
4, 263840, Note_on_c, 2, 46, 100
4, 263920, Note_on_c, 2, 46, 0
4, 264000, Note_on_c, 2, 40, 100
4, 265320, Note_on_c, 2, 40, 0
4, 266800, Note_on_c, 2, 48, 100
4, 266960, Note_on_c, 2, 48, 0
4, 267200, Note_on_c, 2, 50, 100
4, 267362, Note_on_c, 2, 50, 0
4, 267520, Note_on_c, 2, 46, 100
4, 267680, Note_on_c, 2, 46, 0
4, 267840, Note_on_c, 2, 48, 100
4, 268000, Note_on_c, 2, 48, 0
4, 268160, Note_on_c, 2, 44, 100
4, 268266, Note_on_c, 2, 44, 0
4, 268400, Note_on_c, 2, 48, 100
4, 268480, Note_on_c, 2, 48, 0
4, 268720, Note_on_c, 2, 42, 100
4, 268800, Note_on_c, 2, 42, 0
4, 268800, Note_on_c, 2, 44, 100
4, 269866, Note_on_c, 2, 44, 0
4, 272640, Note_on_c, 2, 43, 100
4, 272720, Note_on_c, 2, 43, 0
4, 273040, Note_on_c, 2, 49, 100
4, 274434, Note_on_c, 2, 49, 0
4, 274560, Note_on_c, 2, 51, 100
4, 274640, Note_on_c, 2, 51, 0
4, 274640, Note_on_c, 2, 49, 100
4, 275600, Note_on_c, 2, 49, 0
4, 275600, Note_on_c, 2, 51, 100
4, 276350, Note_on_c, 2, 51, 0
4, 276400, Note_on_c, 2, 49, 100
4, 276480, Note_on_c, 2, 49, 0
4, 276480, Note_on_c, 2, 51, 100
4, 276560, Note_on_c, 2, 51, 0
4, 276800, Note_on_c, 2, 47, 100
4, 277358, Note_on_c, 2, 47, 0
4, 277440, Note_on_c, 2, 48, 100
4, 277520, Note_on_c, 2, 48, 0
4, 277600, Note_on_c, 2, 46, 100
4, 277840, Note_on_c, 2, 46, 0
4, 278040, Note_on_c, 2, 42, 100
4, 278160, Note_on_c, 2, 42, 0
4, 278480, Note_on_c, 2, 46, 100
4, 278560, Note_on_c, 2, 46, 0
4, 278560, Note_on_c, 2, 44, 100
4, 279036, Note_on_c, 2, 44, 0
4, 279120, Note_on_c, 2, 46, 100
4, 279200, Note_on_c, 2, 46, 0
4, 279360, Note_on_c, 2, 40, 100
4, 282120, Note_on_c, 2, 40, 0
4, 283040, Note_on_c, 2, 48, 100
4, 283766, Note_on_c, 2, 48, 0
4, 283840, Note_on_c, 2, 47, 100
4, 284000, Note_on_c, 2, 47, 0
4, 284160, Note_on_c, 2, 45, 100
4, 284320, Note_on_c, 2, 45, 0
4, 284640, Note_on_c, 2, 40, 100
4, 285840, Note_on_c, 2, 40, 0
4, 288640, Note_on_c, 2, 45, 100
4, 290080, Note_on_c, 2, 45, 0
4, 290560, Note_on_c, 2, 50, 100
4, 291956, Note_on_c, 2, 50, 0
4, 292400, Note_on_c, 2, 43, 100
4, 292508, Note_on_c, 2, 43, 0
4, 293040, Note_on_c, 2, 51, 100
4, 293280, Note_on_c, 2, 51, 0
4, 293520, Note_on_c, 2, 48, 100
4, 294880, Note_on_c, 2, 48, 0
4, 295520, Note_on_c, 2, 52, 100
4, 295574, Note_on_c, 2, 52, 0
4, 295800, Note_on_c, 2, 50, 100
4, 295854, Note_on_c, 2, 50, 0
4, 296040, Note_on_c, 2, 46, 100
4, 296096, Note_on_c, 2, 46, 0
4, 296160, Note_on_c, 2, 48, 100
4, 296214, Note_on_c, 2, 48, 0
4, 296400, Note_on_c, 2, 44, 100
4, 296456, Note_on_c, 2, 44, 0
4, 296640, Note_on_c, 2, 48, 100
4, 297600, Note_on_c, 2, 48, 0
4, 298080, Note_on_c, 2, 46, 100
4, 298192, Note_on_c, 2, 46, 0
4, 298240, Note_on_c, 2, 44, 100
4, 298352, Note_on_c, 2, 44, 0
4, 298720, Note_on_c, 2, 47, 100
4, 298800, Note_on_c, 2, 47, 0
4, 298880, Note_on_c, 2, 44, 100
4, 298960, Note_on_c, 2, 44, 0
4, 298960, Note_on_c, 2, 46, 100
4, 299040, Note_on_c, 2, 46, 0
4, 299200, Note_on_c, 2, 40, 100
4, 299280, Note_on_c, 2, 40, 0
4, 299480, Note_on_c, 2, 46, 100
4, 299600, Note_on_c, 2, 46, 0
4, 299920, Note_on_c, 2, 42, 100
4, 300040, Note_on_c, 2, 42, 0
4, 300040, Note_on_c, 2, 43, 100
4, 303760, Note_on_c, 2, 43, 0
4, 303760, End_track
5, 0, Start_track
5, 0, Title_t, "TRIGGERS"
5, 2880, Note_on_c, 0, 68, 100
5, 3038, Note_on_c, 0, 68, 0
5, 3198, Note_on_c, 0, 68, 100
5, 3358, Note_on_c, 0, 68, 0
5, 3520, Note_on_c, 0, 69, 100
5, 3680, Note_on_c, 0, 69, 0
5, 3840, Note_on_c, 3, 60, 100
5, 3840, Note_on_c, 3, 61, 100
5, 3840, Note_on_c, 0, 69, 100
5, 4080, Note_on_c, 3, 60, 0
5, 4080, Note_on_c, 3, 61, 0
5, 4480, Note_on_c, 0, 69, 0
5, 4480, Note_on_c, 3, 60, 100
5, 4480, Note_on_c, 3, 61, 100
5, 4480, Note_on_c, 0, 70, 100
5, 4640, Note_on_c, 0, 70, 0
5, 4720, Note_on_c, 3, 60, 0
5, 4720, Note_on_c, 3, 61, 0
5, 4800, Note_on_c, 3, 61, 100
5, 4800, Note_on_c, 0, 69, 100
5, 5040, Note_on_c, 3, 61, 0
5, 5440, Note_on_c, 0, 69, 0
5, 5440, Note_on_c, 3, 61, 100
5, 5440, Note_on_c, 0, 68, 100
5, 5680, Note_on_c, 3, 61, 0
5, 5760, Note_on_c, 3, 60, 100
5, 5760, Note_on_c, 3, 61, 100
5, 5920, Note_on_c, 0, 68, 0
5, 6000, Note_on_c, 3, 60, 0
5, 6000, Note_on_c, 3, 61, 0
5, 6080, Note_on_c, 0, 70, 100
5, 6242, Note_on_c, 0, 70, 0
5, 6400, Note_on_c, 3, 61, 100
5, 6640, Note_on_c, 3, 61, 0
5, 6720, Note_on_c, 3, 61, 100
5, 6720, Note_on_c, 0, 69, 100
5, 6882, Note_on_c, 0, 69, 0
5, 6960, Note_on_c, 3, 61, 0
5, 7040, Note_on_c, 3, 61, 100
5, 7040, Note_on_c, 0, 68, 100
5, 7200, Note_on_c, 0, 68, 0
5, 7280, Note_on_c, 3, 61, 0
5, 7360, Note_on_c, 3, 61, 100
5, 7360, Note_on_c, 0, 69, 100
5, 7520, Note_on_c, 0, 69, 0
5, 7600, Note_on_c, 3, 61, 0
5, 7680, Note_on_c, 3, 60, 100
5, 7680, Note_on_c, 3, 61, 100
5, 7680, Note_on_c, 0, 69, 100
5, 7920, Note_on_c, 3, 60, 0
5, 7920, Note_on_c, 3, 61, 0
5, 8320, Note_on_c, 0, 69, 0
5, 8320, Note_on_c, 3, 61, 100
5, 8320, Note_on_c, 0, 70, 100
5, 8476, Note_on_c, 0, 70, 0
5, 8560, Note_on_c, 3, 61, 0
5, 8640, Note_on_c, 3, 61, 100
5, 8640, Note_on_c, 0, 69, 100
5, 8880, Note_on_c, 3, 61, 0
5, 9280, Note_on_c, 0, 69, 0
5, 9280, Note_on_c, 3, 61, 100
5, 9280, Note_on_c, 0, 68, 100
5, 9438, Note_on_c, 0, 68, 0
5, 9520, Note_on_c, 3, 61, 0
5, 9600, Note_on_c, 3, 60, 100
5, 9600, Note_on_c, 3, 61, 100
5, 9840, Note_on_c, 3, 60, 0
5, 9840, Note_on_c, 3, 61, 0
5, 9920, Note_on_c, 0, 70, 100
5, 10074, Note_on_c, 0, 70, 0
5, 10240, Note_on_c, 3, 60, 100
5, 10240, Note_on_c, 3, 61, 100
5, 10480, Note_on_c, 3, 60, 0
5, 10480, Note_on_c, 3, 61, 0
5, 10560, Note_on_c, 3, 61, 100
5, 10800, Note_on_c, 3, 61, 0
5, 10880, Note_on_c, 3, 61, 100
5, 10880, Note_on_c, 0, 70, 100
5, 11038, Note_on_c, 0, 70, 0
5, 11120, Note_on_c, 3, 61, 0
5, 11200, Note_on_c, 3, 61, 100
5, 11440, Note_on_c, 3, 61, 0
5, 11520, Note_on_c, 3, 60, 100
5, 11520, Note_on_c, 3, 61, 100
5, 11520, Note_on_c, 0, 68, 100
5, 11640, Note_on_c, 0, 68, 0
5, 11760, Note_on_c, 3, 60, 0
5, 11760, Note_on_c, 3, 61, 0
5, 12120, Note_on_c, 0, 69, 100
5, 12160, Note_on_c, 3, 61, 100
5, 12282, Note_on_c, 0, 69, 0
5, 12400, Note_on_c, 3, 61, 0
5, 12480, Note_on_c, 3, 61, 100
5, 12480, Note_on_c, 0, 70, 100
5, 12600, Note_on_c, 0, 70, 0
5, 12720, Note_on_c, 3, 61, 0
5, 12960, Note_on_c, 0, 70, 100
5, 13120, Note_on_c, 3, 61, 100
5, 13320, Note_on_c, 0, 70, 0
5, 13360, Note_on_c, 3, 61, 0
5, 13440, Note_on_c, 3, 60, 100
5, 13440, Note_on_c, 3, 61, 100
5, 13440, Note_on_c, 0, 69, 100
5, 13518, Note_on_c, 0, 69, 0
5, 13680, Note_on_c, 3, 60, 0
5, 13680, Note_on_c, 3, 61, 0
5, 13760, Note_on_c, 0, 68, 100
5, 13838, Note_on_c, 0, 68, 0
5, 14080, Note_on_c, 3, 61, 100
5, 14320, Note_on_c, 3, 61, 0
5, 14400, Note_on_c, 3, 61, 100
5, 14400, Note_on_c, 0, 69, 100
5, 14640, Note_on_c, 3, 61, 0
5, 14720, Note_on_c, 3, 61, 100
5, 14960, Note_on_c, 0, 69, 0
5, 14960, Note_on_c, 3, 61, 0
5, 15040, Note_on_c, 3, 61, 100
5, 15120, Note_on_c, 0, 69, 100
5, 15200, Note_on_c, 0, 69, 0
5, 15280, Note_on_c, 3, 61, 0
5, 15360, Note_on_c, 3, 60, 100
5, 15360, Note_on_c, 3, 61, 100
5, 15360, Note_on_c, 0, 70, 100
5, 15600, Note_on_c, 3, 60, 0
5, 15600, Note_on_c, 3, 61, 0
5, 16000, Note_on_c, 3, 61, 100
5, 16000, Note_on_c, 3, 60, 100
5, 16240, Note_on_c, 0, 70, 0
5, 16240, Note_on_c, 3, 61, 0
5, 16240, Note_on_c, 3, 60, 0
5, 16320, Note_on_c, 3, 61, 100
5, 16320, Note_on_c, 0, 68, 100
5, 16400, Note_on_c, 0, 68, 0
5, 16560, Note_on_c, 3, 61, 0
5, 16640, Note_on_c, 3, 60, 100
5, 16640, Note_on_c, 3, 61, 100
5, 16800, Note_on_c, 0, 69, 100
5, 16880, Note_on_c, 3, 60, 0
5, 16880, Note_on_c, 3, 61, 0
5, 16880, Note_on_c, 0, 69, 0
5, 16960, Note_on_c, 3, 60, 100
5, 16960, Note_on_c, 3, 61, 100
5, 17200, Note_on_c, 3, 60, 0
5, 17200, Note_on_c, 3, 61, 0
5, 17280, Note_on_c, 3, 61, 100
5, 17280, Note_on_c, 0, 70, 100
5, 17520, Note_on_c, 3, 61, 0
5, 17920, Note_on_c, 3, 60, 100
5, 18160, Note_on_c, 3, 60, 0
5, 18240, Note_on_c, 0, 70, 0
5, 18560, Note_on_c, 3, 61, 100
5, 18560, Note_on_c, 0, 69, 100
5, 18642, Note_on_c, 0, 69, 0
5, 18800, Note_on_c, 3, 61, 0
5, 18880, Note_on_c, 3, 60, 100
5, 18880, Note_on_c, 3, 61, 100
5, 19120, Note_on_c, 3, 60, 0
5, 19120, Note_on_c, 3, 61, 0
5, 19200, Note_on_c, 3, 60, 100
5, 19200, Note_on_c, 3, 61, 100
5, 19200, Note_on_c, 0, 70, 100
5, 19282, Note_on_c, 0, 70, 0
5, 19440, Note_on_c, 3, 60, 0
5, 19440, Note_on_c, 3, 61, 0
5, 19520, Note_on_c, 0, 69, 100
5, 19602, Note_on_c, 0, 69, 0
5, 19840, Note_on_c, 3, 60, 100
5, 19840, Note_on_c, 3, 61, 100
5, 20080, Note_on_c, 3, 60, 0
5, 20080, Note_on_c, 3, 61, 0
5, 20160, Note_on_c, 3, 61, 100
5, 20160, Note_on_c, 0, 69, 100
5, 20240, Note_on_c, 0, 69, 0
5, 20400, Note_on_c, 3, 61, 0
5, 20800, Note_on_c, 3, 61, 100
5, 20800, Note_on_c, 0, 69, 100
5, 20906, Note_on_c, 0, 69, 0
5, 21040, Note_on_c, 3, 61, 0
5, 21120, Note_on_c, 3, 60, 100
5, 21120, Note_on_c, 3, 61, 100
5, 21120, Note_on_c, 0, 70, 100
5, 21202, Note_on_c, 0, 70, 0
5, 21360, Note_on_c, 3, 60, 0
5, 21360, Note_on_c, 3, 61, 0
5, 21600, Note_on_c, 0, 69, 100
5, 21680, Note_on_c, 0, 69, 0
5, 21760, Note_on_c, 3, 60, 100
5, 21760, Note_on_c, 3, 61, 100
5, 21840, Note_on_c, 0, 68, 100
5, 22000, Note_on_c, 3, 60, 0
5, 22000, Note_on_c, 3, 61, 0
5, 22080, Note_on_c, 3, 61, 100
5, 22320, Note_on_c, 0, 68, 0
5, 22320, Note_on_c, 3, 61, 0
5, 22392, Note_on_c, 0, 68, 100
5, 22400, Note_on_c, 3, 61, 100
5, 22552, Note_on_c, 0, 68, 0
5, 22640, Note_on_c, 3, 61, 0
5, 22720, Note_on_c, 3, 61, 100
5, 22960, Note_on_c, 3, 61, 0
5, 23040, Note_on_c, 3, 60, 100
5, 23040, Note_on_c, 3, 61, 100
5, 23040, Note_on_c, 0, 70, 100
5, 23200, Note_on_c, 0, 70, 0
5, 23280, Note_on_c, 3, 60, 0
5, 23280, Note_on_c, 3, 61, 0
5, 23680, Note_on_c, 3, 61, 100
5, 23680, Note_on_c, 0, 69, 100
5, 23840, Note_on_c, 0, 69, 0
5, 23920, Note_on_c, 3, 61, 0
5, 24000, Note_on_c, 3, 61, 100
5, 24000, Note_on_c, 0, 70, 100
5, 24240, Note_on_c, 3, 61, 0
5, 24640, Note_on_c, 3, 61, 100
5, 24840, Note_on_c, 0, 70, 0
5, 24880, Note_on_c, 3, 61, 0
5, 24960, Note_on_c, 3, 60, 100
5, 24960, Note_on_c, 3, 61, 100
5, 24960, Note_on_c, 0, 70, 100
5, 25120, Note_on_c, 0, 70, 0
5, 25200, Note_on_c, 3, 60, 0
5, 25200, Note_on_c, 3, 61, 0
5, 25280, Note_on_c, 0, 69, 100
5, 25440, Note_on_c, 0, 69, 0
5, 25600, Note_on_c, 3, 61, 100
5, 25840, Note_on_c, 3, 61, 0
5, 25920, Note_on_c, 3, 61, 100
5, 25920, Note_on_c, 0, 69, 100
5, 26080, Note_on_c, 0, 69, 0
5, 26160, Note_on_c, 3, 61, 0
5, 26240, Note_on_c, 3, 61, 100
5, 26480, Note_on_c, 3, 61, 0
5, 26560, Note_on_c, 3, 60, 100
5, 26560, Note_on_c, 3, 61, 100
5, 26560, Note_on_c, 0, 69, 100
5, 26720, Note_on_c, 0, 69, 0
5, 26800, Note_on_c, 3, 60, 0
5, 26800, Note_on_c, 3, 61, 0
5, 26880, Note_on_c, 3, 60, 100
5, 26880, Note_on_c, 3, 61, 100
5, 26880, Note_on_c, 0, 70, 100
5, 27040, Note_on_c, 0, 70, 0
5, 27120, Note_on_c, 3, 60, 0
5, 27120, Note_on_c, 3, 61, 0
5, 27240, Note_on_c, 0, 70, 100
5, 27520, Note_on_c, 3, 60, 100
5, 27520, Note_on_c, 3, 61, 100
5, 27760, Note_on_c, 3, 60, 0
5, 27760, Note_on_c, 3, 61, 0
5, 27840, Note_on_c, 3, 61, 100
5, 28080, Note_on_c, 3, 61, 0
5, 28480, Note_on_c, 3, 61, 100
5, 28720, Note_on_c, 3, 61, 0
5, 28800, Note_on_c, 3, 60, 100
5, 28800, Note_on_c, 3, 61, 100
5, 29040, Note_on_c, 0, 70, 0
5, 29040, Note_on_c, 3, 60, 0
5, 29040, Note_on_c, 3, 61, 0
5, 29280, Note_on_c, 0, 70, 100
5, 29440, Note_on_c, 0, 70, 0
5, 29440, Note_on_c, 3, 61, 100
5, 29680, Note_on_c, 3, 61, 0
5, 29760, Note_on_c, 3, 61, 100
5, 29760, Note_on_c, 0, 69, 100
5, 30000, Note_on_c, 3, 61, 0
5, 30080, Note_on_c, 3, 61, 100
5, 30320, Note_on_c, 3, 61, 0
5, 30400, Note_on_c, 3, 61, 100
5, 30480, Note_on_c, 0, 69, 0
5, 30640, Note_on_c, 3, 61, 0
5, 30720, Note_on_c, 3, 60, 100
5, 30720, Note_on_c, 3, 61, 100
5, 30720, Note_on_c, 0, 68, 100
5, 30880, Note_on_c, 0, 68, 0
5, 30960, Note_on_c, 3, 60, 0
5, 30960, Note_on_c, 3, 61, 0
5, 31040, Note_on_c, 3, 61, 100
5, 31200, Note_on_c, 3, 61, 0
5, 31200, Note_on_c, 3, 61, 100
5, 31334, Note_on_c, 3, 61, 0
5, 31334, Note_on_c, 3, 61, 100
5, 31334, Note_on_c, 0, 68, 100
5, 31494, Note_on_c, 0, 68, 0
5, 31574, Note_on_c, 3, 61, 0
5, 31654, Note_on_c, 3, 61, 100
5, 31654, Note_on_c, 0, 69, 100
5, 31894, Note_on_c, 3, 61, 0
5, 31974, Note_on_c, 3, 61, 100
5, 32134, Note_on_c, 3, 61, 0
5, 32134, Note_on_c, 3, 61, 100
5, 32208, Note_on_c, 0, 69, 0
5, 32294, Note_on_c, 3, 61, 0
5, 32294, Note_on_c, 3, 61, 100
5, 32294, Note_on_c, 0, 69, 100
5, 32534, Note_on_c, 3, 61, 0
5, 32640, Note_on_c, 3, 60, 100
5, 32640, Note_on_c, 3, 61, 100
5, 32876, Note_on_c, 0, 69, 0
5, 32880, Note_on_c, 3, 60, 0
5, 32880, Note_on_c, 3, 61, 0
5, 32960, Note_on_c, 3, 61, 100
5, 32960, Note_on_c, 0, 70, 100
5, 33200, Note_on_c, 3, 61, 0
5, 33280, Note_on_c, 3, 61, 100
5, 33440, Note_on_c, 0, 70, 0
5, 33520, Note_on_c, 3, 61, 0
5, 33600, Note_on_c, 3, 61, 100
5, 33600, Note_on_c, 0, 70, 100
5, 33840, Note_on_c, 3, 61, 0
5, 33920, Note_on_c, 3, 61, 100
5, 34160, Note_on_c, 3, 61, 0
5, 34240, Note_on_c, 3, 61, 100
5, 34320, Note_on_c, 0, 70, 0
5, 34480, Note_on_c, 3, 61, 0
5, 34560, Note_on_c, 3, 60, 100
5, 34560, Note_on_c, 3, 61, 100
5, 34560, Note_on_c, 0, 70, 100
5, 34720, Note_on_c, 0, 70, 0
5, 34800, Note_on_c, 3, 60, 0
5, 34800, Note_on_c, 3, 61, 0
5, 35040, Note_on_c, 0, 69, 100
5, 35200, Note_on_c, 0, 69, 0
5, 35200, Note_on_c, 3, 60, 100
5, 35200, Note_on_c, 3, 61, 100
5, 35440, Note_on_c, 3, 60, 0
5, 35440, Note_on_c, 3, 61, 0
5, 35520, Note_on_c, 3, 61, 100
5, 35520, Note_on_c, 0, 70, 100
5, 35680, Note_on_c, 0, 70, 0
5, 35680, Note_on_c, 0, 70, 100
5, 35760, Note_on_c, 3, 61, 0
5, 35760, Note_on_c, 0, 70, 0
5, 35880, Note_on_c, 0, 69, 100
5, 36040, Note_on_c, 0, 69, 0
5, 36160, Note_on_c, 3, 61, 100
5, 36400, Note_on_c, 3, 61, 0
5, 36480, Note_on_c, 3, 60, 100
5, 36480, Note_on_c, 3, 61, 100
5, 36480, Note_on_c, 0, 69, 100
5, 36642, Note_on_c, 0, 69, 0
5, 36720, Note_on_c, 3, 60, 0
5, 36720, Note_on_c, 3, 61, 0
5, 36840, Note_on_c, 0, 70, 100
5, 37120, Note_on_c, 3, 60, 100
5, 37120, Note_on_c, 3, 61, 100
5, 37360, Note_on_c, 3, 60, 0
5, 37360, Note_on_c, 3, 61, 0
5, 37400, Note_on_c, 0, 70, 0
5, 37440, Note_on_c, 3, 61, 100
5, 37440, Note_on_c, 0, 69, 100
5, 37548, Note_on_c, 0, 69, 0
5, 37680, Note_on_c, 3, 61, 0
5, 37760, Note_on_c, 3, 61, 100
5, 38000, Note_on_c, 3, 61, 0
5, 38080, Note_on_c, 3, 61, 100
5, 38320, Note_on_c, 3, 61, 0
5, 38400, Note_on_c, 3, 60, 100
5, 38400, Note_on_c, 3, 61, 100
5, 38640, Note_on_c, 3, 60, 0
5, 38640, Note_on_c, 3, 61, 0
5, 39040, Note_on_c, 3, 60, 100
5, 39040, Note_on_c, 3, 61, 100
5, 39040, Note_on_c, 0, 69, 100
5, 39200, Note_on_c, 0, 69, 0
5, 39280, Note_on_c, 3, 60, 0
5, 39280, Note_on_c, 3, 61, 0
5, 39360, Note_on_c, 3, 61, 100
5, 39360, Note_on_c, 0, 70, 100
5, 39520, Note_on_c, 0, 70, 0
5, 39600, Note_on_c, 3, 61, 0
5, 40000, Note_on_c, 3, 61, 100
5, 40000, Note_on_c, 0, 70, 100
5, 40160, Note_on_c, 0, 70, 0
5, 40240, Note_on_c, 3, 61, 0
5, 40320, Note_on_c, 3, 60, 100
5, 40320, Note_on_c, 3, 61, 100
5, 40320, Note_on_c, 0, 69, 100
5, 40560, Note_on_c, 3, 60, 0
5, 40560, Note_on_c, 3, 61, 0
5, 40960, Note_on_c, 3, 61, 100
5, 41200, Note_on_c, 0, 69, 0
5, 41200, Note_on_c, 3, 61, 0
5, 41280, Note_on_c, 3, 61, 100
5, 41280, Note_on_c, 0, 69, 100
5, 41520, Note_on_c, 3, 61, 0
5, 41600, Note_on_c, 3, 61, 100
5, 41678, Note_on_c, 0, 69, 0
5, 41840, Note_on_c, 3, 61, 0
5, 41920, Note_on_c, 3, 61, 100
5, 41920, Note_on_c, 0, 68, 100
5, 42078, Note_on_c, 0, 68, 0
5, 42160, Note_on_c, 3, 61, 0
5, 42240, Note_on_c, 3, 60, 100
5, 42240, Note_on_c, 3, 61, 100
5, 42240, Note_on_c, 0, 69, 100
5, 42480, Note_on_c, 3, 60, 0
5, 42480, Note_on_c, 3, 61, 0
5, 42880, Note_on_c, 3, 60, 100
5, 42880, Note_on_c, 3, 61, 100
5, 43120, Note_on_c, 3, 60, 0
5, 43120, Note_on_c, 3, 61, 0
5, 43200, Note_on_c, 3, 61, 100
5, 43440, Note_on_c, 3, 61, 0
5, 43836, Note_on_c, 0, 69, 0
5, 43840, Note_on_c, 3, 61, 100
5, 44080, Note_on_c, 3, 61, 0
5, 44160, Note_on_c, 3, 60, 100
5, 44160, Note_on_c, 3, 61, 100
5, 44400, Note_on_c, 3, 60, 0
5, 44400, Note_on_c, 3, 61, 0
5, 44400, Note_on_c, 0, 70, 100
5, 44800, Note_on_c, 3, 60, 100
5, 44800, Note_on_c, 3, 61, 100
5, 45040, Note_on_c, 3, 60, 0
5, 45040, Note_on_c, 3, 61, 0
5, 45120, Note_on_c, 0, 70, 0
5, 45120, Note_on_c, 3, 61, 100
5, 45120, Note_on_c, 0, 69, 100
5, 45360, Note_on_c, 3, 61, 0
5, 45440, Note_on_c, 3, 61, 100
5, 45680, Note_on_c, 3, 61, 0
5, 45760, Note_on_c, 3, 61, 100
5, 45840, Note_on_c, 0, 69, 0
5, 46000, Note_on_c, 3, 61, 0
5, 46080, Note_on_c, 3, 60, 100
5, 46080, Note_on_c, 3, 61, 100
5, 46080, Note_on_c, 0, 69, 100
5, 46320, Note_on_c, 3, 60, 0
5, 46320, Note_on_c, 3, 61, 0
5, 46560, Note_on_c, 3, 61, 100
5, 46720, Note_on_c, 3, 61, 0
5, 46720, Note_on_c, 3, 61, 100
5, 46920, Note_on_c, 0, 69, 0
5, 46960, Note_on_c, 3, 61, 0
5, 47040, Note_on_c, 3, 61, 100
5, 47040, Note_on_c, 0, 70, 100
5, 47160, Note_on_c, 0, 70, 0
5, 47280, Note_on_c, 3, 61, 0
5, 47400, Note_on_c, 0, 69, 100
5, 47506, Note_on_c, 0, 69, 0
5, 47520, Note_on_c, 3, 61, 100
5, 47600, Note_on_c, 0, 68, 100
5, 47680, Note_on_c, 3, 61, 0
5, 47680, Note_on_c, 3, 61, 100
5, 47720, Note_on_c, 0, 68, 0
5, 47920, Note_on_c, 3, 61, 0
5, 48000, Note_on_c, 3, 60, 100
5, 48000, Note_on_c, 3, 61, 100
5, 48000, Note_on_c, 0, 70, 100
5, 48120, Note_on_c, 0, 70, 0
5, 48240, Note_on_c, 3, 60, 0
5, 48240, Note_on_c, 3, 61, 0
5, 48280, Note_on_c, 0, 69, 100
5, 48640, Note_on_c, 3, 60, 100
5, 48640, Note_on_c, 3, 61, 100
5, 48800, Note_on_c, 3, 61, 0
5, 48840, Note_on_c, 0, 69, 0
5, 48880, Note_on_c, 3, 60, 0
5, 48960, Note_on_c, 3, 61, 100
5, 48960, Note_on_c, 0, 68, 100
5, 49066, Note_on_c, 0, 68, 0
5, 49120, Note_on_c, 3, 61, 0
5, 49280, Note_on_c, 3, 61, 100
5, 49280, Note_on_c, 0, 70, 100
5, 49386, Note_on_c, 0, 70, 0
5, 49520, Note_on_c, 3, 61, 0
5, 49600, Note_on_c, 3, 61, 100
5, 49680, Note_on_c, 0, 68, 100
5, 49786, Note_on_c, 0, 68, 0
5, 49840, Note_on_c, 3, 61, 0
5, 49920, Note_on_c, 3, 60, 100
5, 49920, Note_on_c, 3, 61, 100
5, 49920, Note_on_c, 0, 70, 100
5, 49974, Note_on_c, 0, 70, 0
5, 50160, Note_on_c, 3, 60, 0
5, 50160, Note_on_c, 3, 61, 0
5, 50400, Note_on_c, 0, 70, 100
5, 50452, Note_on_c, 0, 70, 0
5, 50560, Note_on_c, 3, 61, 100
5, 50800, Note_on_c, 3, 61, 0
5, 50880, Note_on_c, 3, 61, 100
5, 50880, Note_on_c, 0, 69, 100
5, 50986, Note_on_c, 0, 69, 0
5, 51120, Note_on_c, 3, 61, 0
5, 51360, Note_on_c, 0, 69, 100
5, 51520, Note_on_c, 0, 69, 0
5, 51520, Note_on_c, 3, 61, 100
5, 51760, Note_on_c, 3, 61, 0
5, 51840, Note_on_c, 3, 60, 100
5, 51840, Note_on_c, 3, 61, 100
5, 51840, Note_on_c, 0, 69, 100
5, 51960, Note_on_c, 0, 69, 0
5, 52080, Note_on_c, 3, 60, 0
5, 52080, Note_on_c, 3, 61, 0
5, 52240, Note_on_c, 0, 68, 100
5, 52346, Note_on_c, 0, 68, 0
5, 52480, Note_on_c, 3, 60, 100
5, 52480, Note_on_c, 3, 61, 100
5, 52720, Note_on_c, 3, 60, 0
5, 52720, Note_on_c, 3, 61, 0
5, 52800, Note_on_c, 3, 61, 100
5, 52800, Note_on_c, 0, 69, 100
5, 52882, Note_on_c, 0, 69, 0
5, 53040, Note_on_c, 3, 61, 0
5, 53120, Note_on_c, 3, 61, 100
5, 53360, Note_on_c, 3, 61, 0
5, 53440, Note_on_c, 3, 60, 100
5, 53440, Note_on_c, 3, 61, 100
5, 53440, Note_on_c, 0, 68, 100
5, 53548, Note_on_c, 0, 68, 0
5, 53680, Note_on_c, 3, 60, 0
5, 53680, Note_on_c, 3, 61, 0
5, 53760, Note_on_c, 3, 60, 100
5, 53760, Note_on_c, 3, 61, 100
5, 53760, Note_on_c, 0, 69, 100
5, 54000, Note_on_c, 3, 60, 0
5, 54000, Note_on_c, 3, 61, 0
5, 54400, Note_on_c, 3, 61, 100
5, 54640, Note_on_c, 3, 61, 0
5, 54720, Note_on_c, 3, 61, 100
5, 54960, Note_on_c, 3, 61, 0
5, 55360, Note_on_c, 3, 61, 100
5, 55600, Note_on_c, 3, 61, 0
5, 55680, Note_on_c, 3, 60, 100
5, 55680, Note_on_c, 3, 61, 100
5, 55920, Note_on_c, 3, 60, 0
5, 55920, Note_on_c, 3, 61, 0
5, 56156, Note_on_c, 0, 69, 0
5, 56320, Note_on_c, 3, 61, 100
5, 56320, Note_on_c, 0, 70, 100
5, 56480, Note_on_c, 0, 70, 0
5, 56560, Note_on_c, 3, 61, 0
5, 56640, Note_on_c, 3, 61, 100
5, 56640, Note_on_c, 0, 69, 100
5, 56800, Note_on_c, 0, 69, 0
5, 56880, Note_on_c, 3, 61, 0
5, 56960, Note_on_c, 3, 61, 100
5, 57200, Note_on_c, 3, 61, 0
5, 57280, Note_on_c, 3, 60, 100
5, 57280, Note_on_c, 3, 61, 100
5, 57280, Note_on_c, 0, 69, 100
5, 57440, Note_on_c, 0, 69, 0
5, 57520, Note_on_c, 3, 60, 0
5, 57520, Note_on_c, 3, 61, 0
5, 57600, Note_on_c, 3, 60, 100
5, 57600, Note_on_c, 3, 61, 100
5, 57600, Note_on_c, 0, 69, 100
5, 57680, Note_on_c, 0, 69, 0
5, 57840, Note_on_c, 3, 60, 0
5, 57840, Note_on_c, 3, 61, 0
5, 57920, Note_on_c, 0, 68, 100
5, 58080, Note_on_c, 0, 68, 0
5, 58240, Note_on_c, 3, 61, 100
5, 58480, Note_on_c, 3, 61, 0
5, 58560, Note_on_c, 3, 61, 100
5, 58560, Note_on_c, 0, 69, 100
5, 58720, Note_on_c, 0, 69, 0
5, 58800, Note_on_c, 3, 61, 0
5, 58880, Note_on_c, 3, 61, 100
5, 58880, Note_on_c, 0, 70, 100
5, 59040, Note_on_c, 3, 61, 0
5, 59040, Note_on_c, 0, 70, 0
5, 59200, Note_on_c, 3, 61, 100
5, 59440, Note_on_c, 3, 61, 0
5, 59520, Note_on_c, 3, 60, 100
5, 59520, Note_on_c, 3, 61, 100
5, 59520, Note_on_c, 0, 69, 100
5, 59600, Note_on_c, 0, 69, 0
5, 59680, Note_on_c, 0, 68, 100
5, 59760, Note_on_c, 3, 60, 0
5, 59760, Note_on_c, 3, 61, 0
5, 60160, Note_on_c, 3, 60, 100
5, 60160, Note_on_c, 3, 61, 100
5, 60240, Note_on_c, 0, 68, 0
5, 60400, Note_on_c, 3, 60, 0
5, 60400, Note_on_c, 3, 61, 0
5, 60480, Note_on_c, 3, 61, 100
5, 60480, Note_on_c, 0, 70, 100
5, 60560, Note_on_c, 0, 70, 0
5, 60720, Note_on_c, 3, 61, 0
5, 60800, Note_on_c, 3, 61, 100
5, 60800, Note_on_c, 0, 69, 100
5, 60880, Note_on_c, 0, 69, 0
5, 61040, Note_on_c, 3, 61, 0
5, 61120, Note_on_c, 3, 60, 100
5, 61120, Note_on_c, 3, 61, 100
5, 61120, Note_on_c, 0, 68, 100
5, 61200, Note_on_c, 0, 68, 0
5, 61360, Note_on_c, 3, 60, 0
5, 61360, Note_on_c, 3, 61, 0
5, 61440, Note_on_c, 3, 60, 100
5, 61440, Note_on_c, 3, 61, 100
5, 61440, Note_on_c, 0, 68, 100
5, 61520, Note_on_c, 0, 68, 0
5, 61680, Note_on_c, 3, 60, 0
5, 61680, Note_on_c, 3, 61, 0
5, 61760, Note_on_c, 0, 70, 100
5, 62080, Note_on_c, 3, 60, 100
5, 62080, Note_on_c, 3, 61, 100
5, 62320, Note_on_c, 3, 60, 0
5, 62320, Note_on_c, 3, 61, 0
5, 62396, Note_on_c, 3, 61, 100
5, 62480, Note_on_c, 0, 70, 0
5, 62636, Note_on_c, 3, 61, 0
5, 62720, Note_on_c, 3, 60, 100
5, 62720, Note_on_c, 3, 61, 100
5, 62720, Note_on_c, 0, 68, 100
5, 62876, Note_on_c, 0, 68, 0
5, 62960, Note_on_c, 3, 60, 0
5, 62960, Note_on_c, 3, 61, 0
5, 63040, Note_on_c, 3, 60, 100
5, 63040, Note_on_c, 3, 61, 100
5, 63040, Note_on_c, 0, 69, 100
5, 63200, Note_on_c, 0, 69, 0
5, 63280, Note_on_c, 3, 60, 0
5, 63280, Note_on_c, 3, 61, 0
5, 63356, Note_on_c, 3, 61, 100
5, 63356, Note_on_c, 0, 70, 100
5, 63596, Note_on_c, 3, 61, 0
5, 63676, Note_on_c, 3, 60, 100
5, 63676, Note_on_c, 3, 61, 100
5, 63838, Note_on_c, 3, 61, 0
5, 63840, Note_on_c, 3, 61, 100
5, 63916, Note_on_c, 3, 60, 0
5, 64000, Note_on_c, 3, 61, 0
5, 64000, Note_on_c, 3, 60, 100
5, 64000, Note_on_c, 3, 61, 100
5, 64156, Note_on_c, 3, 61, 0
5, 64240, Note_on_c, 3, 60, 0
5, 64320, Note_on_c, 3, 61, 100
5, 64480, Note_on_c, 3, 61, 0
5, 64636, Note_on_c, 3, 61, 100
5, 64796, Note_on_c, 0, 70, 0
5, 64876, Note_on_c, 3, 61, 0
5, 64960, Note_on_c, 3, 61, 100
5, 65200, Note_on_c, 3, 61, 0
5, 65280, Note_on_c, 3, 60, 100
5, 65280, Note_on_c, 3, 61, 100
5, 65520, Note_on_c, 3, 60, 0
5, 65520, Note_on_c, 3, 61, 0
5, 65920, Note_on_c, 3, 61, 100
5, 66160, Note_on_c, 3, 61, 0
5, 66240, Note_on_c, 3, 61, 100
5, 66480, Note_on_c, 3, 61, 0
5, 66880, Note_on_c, 3, 61, 100
5, 67040, Note_on_c, 0, 68, 100
5, 67120, Note_on_c, 3, 61, 0
5, 67200, Note_on_c, 0, 68, 0
5, 67200, Note_on_c, 3, 60, 100
5, 67200, Note_on_c, 3, 61, 100
5, 67440, Note_on_c, 3, 60, 0
5, 67440, Note_on_c, 3, 61, 0
5, 67520, Note_on_c, 0, 70, 100
5, 67680, Note_on_c, 0, 70, 0
5, 67840, Note_on_c, 3, 60, 100
5, 67840, Note_on_c, 3, 61, 100
5, 67840, Note_on_c, 0, 70, 100
5, 68000, Note_on_c, 0, 70, 0
5, 68080, Note_on_c, 3, 60, 0
5, 68080, Note_on_c, 3, 61, 0
5, 68160, Note_on_c, 3, 61, 100
5, 68400, Note_on_c, 3, 61, 0
5, 68480, Note_on_c, 3, 61, 100
5, 68480, Note_on_c, 0, 68, 100
5, 68640, Note_on_c, 0, 68, 0
5, 68720, Note_on_c, 3, 61, 0
5, 68800, Note_on_c, 3, 60, 100
5, 68800, Note_on_c, 3, 61, 100
5, 68800, Note_on_c, 0, 68, 100
5, 68960, Note_on_c, 0, 68, 0
5, 69040, Note_on_c, 3, 60, 0
5, 69040, Note_on_c, 3, 61, 0
5, 69120, Note_on_c, 3, 60, 100
5, 69120, Note_on_c, 3, 61, 100
5, 69120, Note_on_c, 0, 70, 100
5, 69360, Note_on_c, 3, 60, 0
5, 69360, Note_on_c, 3, 61, 0
5, 69760, Note_on_c, 3, 60, 100
5, 69760, Note_on_c, 3, 61, 100
5, 70000, Note_on_c, 3, 60, 0
5, 70000, Note_on_c, 3, 61, 0
5, 70080, Note_on_c, 3, 61, 100
5, 70320, Note_on_c, 3, 61, 0
5, 70720, Note_on_c, 3, 61, 100
5, 70960, Note_on_c, 3, 61, 0
5, 71022, Note_on_c, 0, 70, 0
5, 71040, Note_on_c, 3, 60, 100
5, 71040, Note_on_c, 3, 61, 100
5, 71280, Note_on_c, 3, 60, 0
5, 71280, Note_on_c, 3, 61, 0
5, 71680, Note_on_c, 3, 61, 100
5, 71920, Note_on_c, 3, 61, 0
5, 72000, Note_on_c, 3, 61, 100
5, 72240, Note_on_c, 3, 61, 0
5, 72320, Note_on_c, 3, 61, 100
5, 72560, Note_on_c, 3, 61, 0
5, 72640, Note_on_c, 3, 61, 100
5, 72880, Note_on_c, 3, 61, 0
5, 72960, Note_on_c, 3, 60, 100
5, 72960, Note_on_c, 3, 61, 100
5, 72960, Note_on_c, 0, 68, 100
5, 73040, Note_on_c, 0, 68, 0
5, 73200, Note_on_c, 3, 60, 0
5, 73200, Note_on_c, 3, 61, 0
5, 73320, Note_on_c, 0, 69, 100
5, 73600, Note_on_c, 3, 61, 100
5, 73800, Note_on_c, 0, 69, 0
5, 73840, Note_on_c, 3, 61, 0
5, 73920, Note_on_c, 3, 61, 100
5, 73920, Note_on_c, 0, 69, 100
5, 74080, Note_on_c, 0, 69, 0
5, 74160, Note_on_c, 3, 61, 0
5, 74240, Note_on_c, 0, 70, 100
5, 74560, Note_on_c, 3, 61, 100
5, 74720, Note_on_c, 0, 70, 0
5, 74800, Note_on_c, 3, 61, 0
5, 74880, Note_on_c, 3, 60, 100
5, 74880, Note_on_c, 3, 61, 100
5, 74880, Note_on_c, 0, 70, 100
5, 74960, Note_on_c, 0, 70, 0
5, 75120, Note_on_c, 3, 60, 0
5, 75120, Note_on_c, 3, 61, 0
5, 75360, Note_on_c, 0, 69, 100
5, 75440, Note_on_c, 0, 69, 0
5, 75520, Note_on_c, 3, 61, 100
5, 75760, Note_on_c, 3, 61, 0
5, 75840, Note_on_c, 3, 61, 100
5, 75840, Note_on_c, 0, 69, 100
5, 75920, Note_on_c, 0, 69, 0
5, 76080, Note_on_c, 3, 61, 0
5, 76080, Note_on_c, 0, 68, 100
5, 76160, Note_on_c, 3, 61, 100
5, 76400, Note_on_c, 3, 61, 0
5, 76480, Note_on_c, 3, 61, 100
5, 76720, Note_on_c, 3, 61, 0
5, 76800, Note_on_c, 0, 68, 0
5, 76800, Note_on_c, 3, 60, 100
5, 76800, Note_on_c, 3, 61, 100
5, 76920, Note_on_c, 0, 69, 100
5, 77026, Note_on_c, 0, 69, 0
5, 77040, Note_on_c, 3, 60, 0
5, 77040, Note_on_c, 3, 61, 0
5, 77280, Note_on_c, 0, 70, 100
5, 77386, Note_on_c, 0, 70, 0
5, 77440, Note_on_c, 3, 60, 100
5, 77440, Note_on_c, 3, 61, 100
5, 77680, Note_on_c, 3, 60, 0
5, 77680, Note_on_c, 3, 61, 0
5, 77760, Note_on_c, 3, 61, 100
5, 77760, Note_on_c, 0, 69, 100
5, 77866, Note_on_c, 0, 69, 0
5, 78000, Note_on_c, 3, 61, 0
5, 78040, Note_on_c, 0, 68, 100
5, 78160, Note_on_c, 0, 68, 0
5, 78360, Note_on_c, 0, 69, 100
5, 78400, Note_on_c, 3, 61, 100
5, 78440, Note_on_c, 0, 69, 0
5, 78560, Note_on_c, 0, 70, 100
5, 78640, Note_on_c, 3, 61, 0
5, 78640, Note_on_c, 0, 70, 0
5, 78720, Note_on_c, 3, 60, 100
5, 78720, Note_on_c, 3, 61, 100
5, 78960, Note_on_c, 3, 60, 0
5, 78960, Note_on_c, 3, 61, 0
5, 79040, Note_on_c, 3, 61, 100
5, 79040, Note_on_c, 0, 70, 100
5, 79120, Note_on_c, 0, 70, 0
5, 79200, Note_on_c, 3, 61, 0
5, 79200, Note_on_c, 3, 61, 100
5, 79280, Note_on_c, 0, 69, 100
5, 79360, Note_on_c, 3, 61, 0
5, 79360, Note_on_c, 0, 69, 0
5, 79360, Note_on_c, 3, 60, 100
5, 79360, Note_on_c, 3, 61, 100
5, 79520, Note_on_c, 3, 61, 0
5, 79600, Note_on_c, 3, 60, 0
5, 79680, Note_on_c, 3, 61, 100
5, 79680, Note_on_c, 0, 68, 100
5, 79760, Note_on_c, 0, 68, 0
5, 79840, Note_on_c, 3, 61, 0
5, 80000, Note_on_c, 3, 61, 100
5, 80240, Note_on_c, 3, 61, 0
5, 80320, Note_on_c, 3, 61, 100
5, 80560, Note_on_c, 3, 61, 0
5, 80640, Note_on_c, 3, 60, 100
5, 80640, Note_on_c, 3, 61, 100
5, 80880, Note_on_c, 3, 60, 0
5, 80880, Note_on_c, 3, 61, 0
5, 81280, Note_on_c, 3, 61, 100
5, 81520, Note_on_c, 3, 61, 0
5, 81600, Note_on_c, 3, 61, 100
5, 81840, Note_on_c, 3, 61, 0
5, 82240, Note_on_c, 3, 61, 100
5, 82480, Note_on_c, 3, 61, 0
5, 82560, Note_on_c, 3, 60, 100
5, 82560, Note_on_c, 3, 61, 100
5, 82800, Note_on_c, 3, 60, 0
5, 82800, Note_on_c, 3, 61, 0
5, 82880, Note_on_c, 0, 69, 100
5, 83200, Note_on_c, 3, 60, 100
5, 83200, Note_on_c, 3, 61, 100
5, 83440, Note_on_c, 3, 60, 0
5, 83440, Note_on_c, 3, 61, 0
5, 83520, Note_on_c, 0, 69, 0
5, 83520, Note_on_c, 3, 61, 100
5, 83520, Note_on_c, 0, 70, 100
5, 83600, Note_on_c, 0, 70, 0
5, 83760, Note_on_c, 3, 61, 0
5, 83840, Note_on_c, 3, 61, 100
5, 83840, Note_on_c, 0, 68, 100
5, 83920, Note_on_c, 0, 68, 0
5, 84080, Note_on_c, 3, 61, 0
5, 84160, Note_on_c, 3, 60, 100
5, 84160, Note_on_c, 3, 61, 100
5, 84160, Note_on_c, 0, 69, 100
5, 84240, Note_on_c, 0, 69, 0
5, 84400, Note_on_c, 3, 60, 0
5, 84400, Note_on_c, 3, 61, 0
5, 84480, Note_on_c, 3, 60, 100
5, 84480, Note_on_c, 3, 61, 100
5, 84480, Note_on_c, 0, 70, 100
5, 84720, Note_on_c, 3, 60, 0
5, 84720, Note_on_c, 3, 61, 0
5, 85120, Note_on_c, 3, 61, 100
5, 85360, Note_on_c, 3, 61, 0
5, 85440, Note_on_c, 3, 61, 100
5, 85680, Note_on_c, 3, 61, 0
5, 86080, Note_on_c, 3, 61, 100
5, 86320, Note_on_c, 3, 61, 0
5, 86400, Note_on_c, 0, 70, 0
5, 86400, Note_on_c, 3, 60, 100
5, 86400, Note_on_c, 3, 61, 100
5, 86640, Note_on_c, 3, 60, 0
5, 86640, Note_on_c, 3, 61, 0
5, 87040, Note_on_c, 3, 61, 100
5, 87280, Note_on_c, 3, 61, 0
5, 87360, Note_on_c, 3, 61, 100
5, 87600, Note_on_c, 3, 61, 0
5, 87680, Note_on_c, 3, 61, 100
5, 87920, Note_on_c, 3, 61, 0
5, 88000, Note_on_c, 3, 61, 100
5, 88240, Note_on_c, 3, 61, 0
5, 88320, Note_on_c, 3, 60, 100
5, 88320, Note_on_c, 3, 61, 100
5, 88320, Note_on_c, 0, 68, 100
5, 88440, Note_on_c, 0, 68, 0
5, 88560, Note_on_c, 3, 60, 0
5, 88560, Note_on_c, 3, 61, 0
5, 88720, Note_on_c, 0, 69, 100
5, 88880, Note_on_c, 0, 69, 0
5, 88960, Note_on_c, 3, 61, 100
5, 89200, Note_on_c, 3, 61, 0
5, 89280, Note_on_c, 3, 61, 100
5, 89280, Note_on_c, 0, 69, 100
5, 89360, Note_on_c, 0, 69, 0
5, 89520, Note_on_c, 3, 61, 0
5, 89600, Note_on_c, 0, 70, 100
5, 89920, Note_on_c, 3, 61, 100
5, 90160, Note_on_c, 0, 70, 0
5, 90160, Note_on_c, 3, 61, 0
5, 90240, Note_on_c, 3, 60, 100
5, 90240, Note_on_c, 3, 61, 100
5, 90240, Note_on_c, 0, 68, 100
5, 90320, Note_on_c, 0, 68, 0
5, 90480, Note_on_c, 3, 60, 0
5, 90480, Note_on_c, 3, 61, 0
5, 90720, Note_on_c, 0, 69, 100
5, 90826, Note_on_c, 0, 69, 0
5, 90880, Note_on_c, 3, 61, 100
5, 91120, Note_on_c, 3, 61, 0
5, 91200, Note_on_c, 3, 61, 100
5, 91200, Note_on_c, 0, 68, 100
5, 91308, Note_on_c, 0, 68, 0
5, 91440, Note_on_c, 3, 61, 0
5, 91520, Note_on_c, 3, 61, 100
5, 91760, Note_on_c, 3, 61, 0
5, 91840, Note_on_c, 3, 60, 100
5, 91840, Note_on_c, 3, 61, 100
5, 91840, Note_on_c, 0, 68, 100
5, 91920, Note_on_c, 0, 68, 0
5, 92080, Note_on_c, 3, 60, 0
5, 92080, Note_on_c, 3, 61, 0
5, 92160, Note_on_c, 3, 60, 100
5, 92160, Note_on_c, 3, 61, 100
5, 92160, Note_on_c, 0, 69, 100
5, 92400, Note_on_c, 3, 60, 0
5, 92400, Note_on_c, 3, 61, 0
5, 92800, Note_on_c, 3, 60, 100
5, 92800, Note_on_c, 3, 61, 100
5, 93040, Note_on_c, 0, 69, 0
5, 93040, Note_on_c, 3, 60, 0
5, 93040, Note_on_c, 3, 61, 0
5, 93120, Note_on_c, 3, 61, 100
5, 93120, Note_on_c, 0, 69, 100
5, 93200, Note_on_c, 0, 69, 0
5, 93360, Note_on_c, 3, 61, 0
5, 93440, Note_on_c, 0, 70, 100
5, 93520, Note_on_c, 0, 70, 0
5, 93760, Note_on_c, 3, 61, 100
5, 93760, Note_on_c, 0, 68, 100
5, 93840, Note_on_c, 0, 68, 0
5, 94000, Note_on_c, 3, 61, 0
5, 94080, Note_on_c, 3, 60, 100
5, 94080, Note_on_c, 3, 61, 100
5, 94080, Note_on_c, 0, 69, 100
5, 94320, Note_on_c, 3, 60, 0
5, 94320, Note_on_c, 3, 61, 0
5, 94720, Note_on_c, 3, 60, 100
5, 94720, Note_on_c, 3, 61, 100
5, 94960, Note_on_c, 3, 60, 0
5, 94960, Note_on_c, 3, 61, 0
5, 95040, Note_on_c, 3, 61, 100
5, 95280, Note_on_c, 3, 61, 0
5, 95680, Note_on_c, 0, 69, 0
5, 95680, Note_on_c, 3, 61, 100
5, 95920, Note_on_c, 3, 61, 0
5, 96000, Note_on_c, 3, 60, 100
5, 96000, Note_on_c, 3, 61, 100
5, 96240, Note_on_c, 3, 60, 0
5, 96240, Note_on_c, 3, 61, 0
5, 96640, Note_on_c, 3, 61, 100
5, 96880, Note_on_c, 3, 61, 0
5, 96960, Note_on_c, 3, 61, 100
5, 97200, Note_on_c, 3, 61, 0
5, 97600, Note_on_c, 3, 60, 100
5, 97600, Note_on_c, 3, 61, 100
5, 97840, Note_on_c, 3, 60, 0
5, 97840, Note_on_c, 3, 61, 0
5, 97920, Note_on_c, 3, 60, 100
5, 97920, Note_on_c, 3, 61, 100
5, 98160, Note_on_c, 3, 60, 0
5, 98160, Note_on_c, 3, 61, 0
5, 98240, Note_on_c, 0, 70, 100
5, 98348, Note_on_c, 0, 70, 0
5, 98560, Note_on_c, 3, 60, 100
5, 98560, Note_on_c, 3, 61, 100
5, 98800, Note_on_c, 3, 60, 0
5, 98800, Note_on_c, 3, 61, 0
5, 98880, Note_on_c, 3, 61, 100
5, 99120, Note_on_c, 3, 61, 0
5, 99200, Note_on_c, 3, 61, 100
5, 99200, Note_on_c, 0, 68, 100
5, 99280, Note_on_c, 0, 68, 0
5, 99440, Note_on_c, 3, 61, 0
5, 99520, Note_on_c, 3, 61, 100
5, 99520, Note_on_c, 0, 69, 100
5, 99600, Note_on_c, 0, 69, 0
5, 99760, Note_on_c, 3, 61, 0
5, 99840, Note_on_c, 3, 60, 100
5, 99840, Note_on_c, 3, 61, 100
5, 99840, Note_on_c, 0, 70, 100
5, 100080, Note_on_c, 3, 60, 0
5, 100080, Note_on_c, 3, 61, 0
5, 100480, Note_on_c, 3, 60, 100
5, 100480, Note_on_c, 3, 61, 100
5, 100720, Note_on_c, 3, 60, 0
5, 100720, Note_on_c, 3, 61, 0
5, 100800, Note_on_c, 3, 61, 100
5, 101040, Note_on_c, 3, 61, 0
5, 101440, Note_on_c, 3, 61, 100
5, 101680, Note_on_c, 3, 61, 0
5, 101750, Note_on_c, 0, 70, 0
5, 101760, Note_on_c, 3, 60, 100
5, 101760, Note_on_c, 3, 61, 100
5, 102000, Note_on_c, 3, 60, 0
5, 102000, Note_on_c, 3, 61, 0
5, 102400, Note_on_c, 3, 61, 100
5, 102640, Note_on_c, 3, 61, 0
5, 102720, Note_on_c, 3, 61, 100
5, 102960, Note_on_c, 3, 61, 0
5, 103040, Note_on_c, 3, 61, 100
5, 103280, Note_on_c, 3, 61, 0
5, 103360, Note_on_c, 3, 61, 100
5, 103600, Note_on_c, 3, 61, 0
5, 103680, Note_on_c, 3, 60, 100
5, 103680, Note_on_c, 3, 61, 100
5, 103680, Note_on_c, 0, 68, 100
5, 103760, Note_on_c, 0, 68, 0
5, 103920, Note_on_c, 3, 60, 0
5, 103920, Note_on_c, 3, 61, 0
5, 104040, Note_on_c, 0, 69, 100
5, 104160, Note_on_c, 0, 69, 0
5, 104320, Note_on_c, 3, 60, 100
5, 104320, Note_on_c, 3, 61, 100
5, 104560, Note_on_c, 3, 60, 0
5, 104560, Note_on_c, 3, 61, 0
5, 104640, Note_on_c, 3, 61, 100
5, 104640, Note_on_c, 0, 69, 100
5, 104720, Note_on_c, 0, 69, 0
5, 104880, Note_on_c, 3, 61, 0
5, 104960, Note_on_c, 0, 70, 100
5, 105120, Note_on_c, 0, 70, 0
5, 105280, Note_on_c, 3, 60, 100
5, 105280, Note_on_c, 3, 61, 100
5, 105520, Note_on_c, 3, 60, 0
5, 105520, Note_on_c, 3, 61, 0
5, 105600, Note_on_c, 3, 60, 100
5, 105600, Note_on_c, 3, 61, 100
5, 105600, Note_on_c, 0, 70, 100
5, 105680, Note_on_c, 0, 70, 0
5, 105840, Note_on_c, 3, 60, 0
5, 105840, Note_on_c, 3, 61, 0
5, 106080, Note_on_c, 0, 69, 100
5, 106240, Note_on_c, 0, 69, 0
5, 106240, Note_on_c, 3, 61, 100
5, 106480, Note_on_c, 3, 61, 0
5, 106560, Note_on_c, 3, 61, 100
5, 106560, Note_on_c, 0, 70, 100
5, 106640, Note_on_c, 0, 70, 0
5, 106800, Note_on_c, 3, 61, 0
5, 106880, Note_on_c, 3, 61, 100
5, 106880, Note_on_c, 0, 69, 100
5, 106960, Note_on_c, 0, 69, 0
5, 107120, Note_on_c, 3, 61, 0
5, 107200, Note_on_c, 3, 61, 100
5, 107200, Note_on_c, 0, 68, 100
5, 107280, Note_on_c, 0, 68, 0
5, 107440, Note_on_c, 3, 61, 0
5, 107520, Note_on_c, 3, 60, 100
5, 107520, Note_on_c, 3, 61, 100
5, 107520, Note_on_c, 0, 69, 100
5, 107600, Note_on_c, 0, 69, 0
5, 107760, Note_on_c, 3, 60, 0
5, 107760, Note_on_c, 3, 61, 0
5, 107840, Note_on_c, 0, 70, 100
5, 107920, Note_on_c, 0, 70, 0
5, 108160, Note_on_c, 3, 60, 100
5, 108160, Note_on_c, 3, 61, 100
5, 108160, Note_on_c, 0, 69, 100
5, 108240, Note_on_c, 0, 69, 0
5, 108400, Note_on_c, 3, 60, 0
5, 108400, Note_on_c, 3, 61, 0
5, 108480, Note_on_c, 3, 61, 100
5, 108480, Note_on_c, 0, 70, 100
5, 108588, Note_on_c, 0, 70, 0
5, 108720, Note_on_c, 3, 61, 0
5, 108800, Note_on_c, 3, 60, 100
5, 108800, Note_on_c, 3, 61, 100
5, 108800, Note_on_c, 0, 68, 100
5, 108880, Note_on_c, 0, 68, 0
5, 109040, Note_on_c, 3, 60, 0
5, 109040, Note_on_c, 3, 61, 0
5, 109120, Note_on_c, 3, 60, 100
5, 109120, Note_on_c, 3, 61, 100
5, 109120, Note_on_c, 0, 69, 100
5, 109280, Note_on_c, 0, 69, 0
5, 109360, Note_on_c, 3, 60, 0
5, 109360, Note_on_c, 3, 61, 0
5, 109440, Note_on_c, 3, 61, 100
5, 109440, Note_on_c, 0, 69, 100
5, 109680, Note_on_c, 3, 61, 0
5, 109760, Note_on_c, 3, 61, 100
5, 109920, Note_on_c, 3, 61, 0
5, 109920, Note_on_c, 3, 61, 100
5, 110080, Note_on_c, 3, 61, 0
5, 110080, Note_on_c, 3, 60, 100
5, 110080, Note_on_c, 3, 61, 100
5, 110240, Note_on_c, 0, 69, 0
5, 110320, Note_on_c, 3, 60, 0
5, 110320, Note_on_c, 3, 61, 0
5, 110400, Note_on_c, 3, 61, 100
5, 110400, Note_on_c, 0, 69, 100
5, 110640, Note_on_c, 3, 61, 0
5, 110720, Note_on_c, 3, 61, 100
5, 110960, Note_on_c, 3, 61, 0
5, 111040, Note_on_c, 0, 69, 0
5, 111040, Note_on_c, 3, 61, 100
5, 111280, Note_on_c, 3, 61, 0
5, 111360, Note_on_c, 3, 60, 100
5, 111360, Note_on_c, 3, 61, 100
5, 111600, Note_on_c, 3, 60, 0
5, 111600, Note_on_c, 3, 61, 0
5, 112000, Note_on_c, 3, 61, 100
5, 112240, Note_on_c, 3, 61, 0
5, 112320, Note_on_c, 3, 61, 100
5, 112560, Note_on_c, 3, 61, 0
5, 112960, Note_on_c, 3, 61, 100
5, 112960, Note_on_c, 0, 68, 100
5, 113092, Note_on_c, 0, 68, 0
5, 113200, Note_on_c, 3, 61, 0
5, 113280, Note_on_c, 3, 60, 100
5, 113280, Note_on_c, 3, 61, 100
5, 113280, Note_on_c, 0, 70, 100
5, 113520, Note_on_c, 3, 60, 0
5, 113520, Note_on_c, 3, 61, 0
5, 113840, Note_on_c, 0, 70, 0
5, 113920, Note_on_c, 3, 60, 100
5, 113920, Note_on_c, 3, 61, 100
5, 113920, Note_on_c, 0, 69, 100
5, 113920, Note_on_c, 0, 70, 100
5, 114000, Note_on_c, 0, 69, 0
5, 114000, Note_on_c, 0, 70, 0
5, 114160, Note_on_c, 3, 60, 0
5, 114160, Note_on_c, 3, 61, 0
5, 114240, Note_on_c, 3, 61, 100
5, 114240, Note_on_c, 0, 68, 100
5, 114320, Note_on_c, 0, 68, 0
5, 114480, Note_on_c, 3, 61, 0
5, 114560, Note_on_c, 3, 61, 100
5, 114560, Note_on_c, 0, 69, 100
5, 114640, Note_on_c, 0, 69, 0
5, 114800, Note_on_c, 3, 61, 0
5, 114880, Note_on_c, 3, 61, 100
5, 114880, Note_on_c, 0, 70, 100
5, 114960, Note_on_c, 0, 70, 0
5, 115120, Note_on_c, 3, 61, 0
5, 115200, Note_on_c, 3, 60, 100
5, 115200, Note_on_c, 3, 61, 100
5, 115200, Note_on_c, 0, 70, 100
5, 115440, Note_on_c, 3, 60, 0
5, 115440, Note_on_c, 3, 61, 0
5, 115840, Note_on_c, 3, 61, 100
5, 116080, Note_on_c, 3, 61, 0
5, 116160, Note_on_c, 3, 61, 100
5, 116400, Note_on_c, 3, 61, 0
5, 116800, Note_on_c, 3, 61, 100
5, 117040, Note_on_c, 3, 61, 0
5, 117120, Note_on_c, 3, 60, 100
5, 117120, Note_on_c, 3, 61, 100
5, 117200, Note_on_c, 0, 70, 0
5, 117360, Note_on_c, 3, 60, 0
5, 117360, Note_on_c, 3, 61, 0
5, 117760, Note_on_c, 3, 61, 100
5, 118000, Note_on_c, 3, 61, 0
5, 118080, Note_on_c, 3, 61, 100
5, 118320, Note_on_c, 3, 61, 0
5, 118400, Note_on_c, 3, 61, 100
5, 118640, Note_on_c, 3, 61, 0
5, 118720, Note_on_c, 3, 61, 100
5, 118960, Note_on_c, 3, 61, 0
5, 119040, Note_on_c, 3, 60, 100
5, 119040, Note_on_c, 3, 61, 100
5, 119040, Note_on_c, 0, 68, 100
5, 119160, Note_on_c, 0, 68, 0
5, 119280, Note_on_c, 3, 60, 0
5, 119280, Note_on_c, 3, 61, 0
5, 119400, Note_on_c, 0, 69, 100
5, 119680, Note_on_c, 3, 61, 100
5, 119920, Note_on_c, 3, 61, 0
5, 120000, Note_on_c, 3, 61, 100
5, 120240, Note_on_c, 3, 61, 0
5, 120640, Note_on_c, 3, 61, 100
5, 120720, Note_on_c, 0, 69, 0
5, 120880, Note_on_c, 3, 61, 0
5, 120960, Note_on_c, 3, 60, 100
5, 120960, Note_on_c, 3, 61, 100
5, 120960, Note_on_c, 0, 70, 100
5, 121040, Note_on_c, 0, 70, 0
5, 121200, Note_on_c, 3, 60, 0
5, 121200, Note_on_c, 3, 61, 0
5, 121200, Note_on_c, 0, 69, 100
5, 121600, Note_on_c, 3, 61, 100
5, 121840, Note_on_c, 0, 69, 0
5, 121840, Note_on_c, 3, 61, 0
5, 121920, Note_on_c, 3, 61, 100
5, 121920, Note_on_c, 0, 69, 100
5, 121998, Note_on_c, 0, 69, 0
5, 122160, Note_on_c, 3, 61, 0
5, 122238, Note_on_c, 3, 61, 100
5, 122238, Note_on_c, 0, 68, 100
5, 122478, Note_on_c, 3, 61, 0
5, 122560, Note_on_c, 3, 61, 100
5, 122748, Note_on_c, 0, 68, 0
5, 122800, Note_on_c, 3, 61, 0
5, 122880, Note_on_c, 3, 60, 100
5, 122880, Note_on_c, 3, 61, 100
5, 122880, Note_on_c, 0, 70, 100
5, 122958, Note_on_c, 0, 70, 0
5, 123120, Note_on_c, 3, 60, 0
5, 123120, Note_on_c, 3, 61, 0
5, 123198, Note_on_c, 0, 69, 100
5, 123360, Note_on_c, 3, 61, 100
5, 123520, Note_on_c, 3, 61, 0
5, 123520, Note_on_c, 3, 61, 100
5, 123520, Note_on_c, 3, 60, 100
5, 123760, Note_on_c, 3, 61, 0
5, 123760, Note_on_c, 3, 60, 0
5, 123838, Note_on_c, 0, 69, 0
5, 123840, Note_on_c, 3, 61, 100
5, 123840, Note_on_c, 0, 70, 100
5, 123916, Note_on_c, 0, 70, 0
5, 124080, Note_on_c, 3, 61, 0
5, 124156, Note_on_c, 0, 70, 100
5, 124160, Note_on_c, 3, 61, 100
5, 124316, Note_on_c, 0, 70, 0
5, 124320, Note_on_c, 3, 61, 0
5, 124320, Note_on_c, 3, 61, 100
5, 124480, Note_on_c, 3, 61, 0
5, 124480, Note_on_c, 3, 61, 100
5, 124480, Note_on_c, 0, 69, 100
5, 124636, Note_on_c, 0, 69, 0
5, 124720, Note_on_c, 3, 61, 0
5, 124800, Note_on_c, 3, 60, 100
5, 124800, Note_on_c, 3, 61, 100
5, 124800, Note_on_c, 0, 68, 100
5, 124960, Note_on_c, 0, 68, 0
5, 125040, Note_on_c, 3, 60, 0
5, 125040, Note_on_c, 3, 61, 0
5, 125116, Note_on_c, 0, 70, 100
5, 125120, Note_on_c, 3, 61, 100
5, 125276, Note_on_c, 0, 70, 0
5, 125360, Note_on_c, 3, 61, 0
5, 125440, Note_on_c, 3, 60, 100
5, 125440, Note_on_c, 3, 61, 100
5, 125440, Note_on_c, 0, 69, 100
5, 125520, Note_on_c, 0, 69, 0
5, 125680, Note_on_c, 3, 60, 0
5, 125680, Note_on_c, 3, 61, 0
5, 125760, Note_on_c, 3, 61, 100
5, 126000, Note_on_c, 3, 61, 0
5, 126080, Note_on_c, 3, 61, 100
5, 126320, Note_on_c, 3, 61, 0
5, 126400, Note_on_c, 3, 60, 100
5, 126400, Note_on_c, 3, 61, 100
5, 126640, Note_on_c, 3, 60, 0
5, 126640, Note_on_c, 3, 61, 0
5, 126720, Note_on_c, 3, 60, 100
5, 126720, Note_on_c, 3, 61, 100
5, 126960, Note_on_c, 3, 60, 0
5, 126960, Note_on_c, 3, 61, 0
5, 127358, Note_on_c, 3, 61, 100
5, 127598, Note_on_c, 3, 61, 0
5, 127680, Note_on_c, 3, 61, 100
5, 127920, Note_on_c, 3, 61, 0
5, 128158, Note_on_c, 0, 68, 100
5, 128314, Note_on_c, 0, 68, 0
5, 128318, Note_on_c, 3, 61, 100
5, 128558, Note_on_c, 3, 61, 0
5, 128638, Note_on_c, 0, 69, 100
5, 128640, Note_on_c, 3, 61, 100
5, 128640, Note_on_c, 3, 60, 100
5, 128640, Note_on_c, 0, 70, 100
5, 128758, Note_on_c, 0, 69, 0
5, 128760, Note_on_c, 0, 70, 0
5, 128880, Note_on_c, 3, 61, 0
5, 128880, Note_on_c, 3, 60, 0
5, 129278, Note_on_c, 3, 60, 100
5, 129278, Note_on_c, 3, 61, 100
5, 129278, Note_on_c, 0, 69, 100
5, 129278, Note_on_c, 0, 70, 100
5, 129440, Note_on_c, 0, 69, 0
5, 129440, Note_on_c, 0, 70, 0
5, 129518, Note_on_c, 3, 60, 0
5, 129518, Note_on_c, 3, 61, 0
5, 129598, Note_on_c, 0, 70, 100
5, 129600, Note_on_c, 3, 61, 100
5, 129754, Note_on_c, 0, 70, 0
5, 129840, Note_on_c, 3, 61, 0
5, 129918, Note_on_c, 3, 61, 100
5, 130080, Note_on_c, 0, 70, 100
5, 130080, Note_on_c, 0, 69, 100
5, 130158, Note_on_c, 3, 61, 0
5, 130238, Note_on_c, 0, 70, 0
5, 130238, Note_on_c, 0, 69, 0
5, 130238, Note_on_c, 3, 60, 100
5, 130238, Note_on_c, 3, 61, 100
5, 130478, Note_on_c, 3, 60, 0
5, 130478, Note_on_c, 3, 61, 0
5, 130560, Note_on_c, 3, 60, 100
5, 130560, Note_on_c, 3, 61, 100
5, 130560, Note_on_c, 0, 70, 100
5, 130800, Note_on_c, 3, 60, 0
5, 130800, Note_on_c, 3, 61, 0
5, 131200, Note_on_c, 3, 61, 100
5, 131440, Note_on_c, 3, 61, 0
5, 131520, Note_on_c, 3, 61, 100
5, 131760, Note_on_c, 3, 61, 0
5, 132160, Note_on_c, 3, 61, 100
5, 132400, Note_on_c, 3, 61, 0
5, 132480, Note_on_c, 3, 60, 100
5, 132480, Note_on_c, 3, 61, 100
5, 132560, Note_on_c, 0, 70, 0
5, 132720, Note_on_c, 3, 60, 0
5, 132720, Note_on_c, 3, 61, 0
5, 133120, Note_on_c, 3, 61, 100
5, 133360, Note_on_c, 3, 61, 0
5, 133440, Note_on_c, 3, 61, 100
5, 133680, Note_on_c, 3, 61, 0
5, 133760, Note_on_c, 3, 61, 100
5, 134000, Note_on_c, 3, 61, 0
5, 134080, Note_on_c, 3, 61, 100
5, 134320, Note_on_c, 3, 61, 0
5, 134400, Note_on_c, 3, 60, 100
5, 134400, Note_on_c, 3, 61, 100
5, 134400, Note_on_c, 0, 68, 100
5, 134480, Note_on_c, 0, 68, 0
5, 134640, Note_on_c, 3, 60, 0
5, 134640, Note_on_c, 3, 61, 0
5, 134720, Note_on_c, 0, 69, 100
5, 135040, Note_on_c, 3, 61, 100
5, 135280, Note_on_c, 3, 61, 0
5, 135360, Note_on_c, 3, 61, 100
5, 135600, Note_on_c, 3, 61, 0
5, 136000, Note_on_c, 3, 61, 100
5, 136240, Note_on_c, 0, 69, 0
5, 136240, Note_on_c, 3, 61, 0
5, 136320, Note_on_c, 3, 60, 100
5, 136320, Note_on_c, 3, 61, 100
5, 136320, Note_on_c, 0, 69, 100
5, 136560, Note_on_c, 3, 60, 0
5, 136560, Note_on_c, 3, 61, 0
5, 136960, Note_on_c, 3, 61, 100
5, 137200, Note_on_c, 3, 61, 0
5, 137280, Note_on_c, 0, 69, 0
5, 137280, Note_on_c, 3, 61, 100
5, 137280, Note_on_c, 0, 70, 100
5, 137520, Note_on_c, 3, 61, 0
5, 137600, Note_on_c, 3, 61, 100
5, 137840, Note_on_c, 3, 61, 0
5, 137920, Note_on_c, 3, 60, 100
5, 137920, Note_on_c, 3, 61, 100
5, 138160, Note_on_c, 0, 70, 0
5, 138160, Note_on_c, 3, 60, 0
5, 138160, Note_on_c, 3, 61, 0
5, 138240, Note_on_c, 3, 60, 100
5, 138240, Note_on_c, 3, 61, 100
5, 138240, Note_on_c, 0, 70, 100
5, 138400, Note_on_c, 0, 70, 0
5, 138480, Note_on_c, 3, 60, 0
5, 138480, Note_on_c, 3, 61, 0
5, 138600, Note_on_c, 0, 69, 100
5, 138880, Note_on_c, 3, 60, 100
5, 138880, Note_on_c, 3, 61, 100
5, 139120, Note_on_c, 3, 60, 0
5, 139120, Note_on_c, 3, 61, 0
5, 139160, Note_on_c, 0, 69, 0
5, 139200, Note_on_c, 3, 61, 100
5, 139200, Note_on_c, 0, 70, 100
5, 139280, Note_on_c, 0, 70, 0
5, 139440, Note_on_c, 3, 61, 0
5, 139520, Note_on_c, 0, 69, 100
5, 139600, Note_on_c, 0, 69, 0
5, 139840, Note_on_c, 3, 61, 100
5, 140000, Note_on_c, 0, 69, 100
5, 140080, Note_on_c, 3, 61, 0
5, 140080, Note_on_c, 0, 69, 0
5, 140160, Note_on_c, 3, 60, 100
5, 140160, Note_on_c, 3, 61, 100
5, 140160, Note_on_c, 0, 70, 100
5, 140320, Note_on_c, 0, 70, 0
5, 140400, Note_on_c, 3, 60, 0
5, 140400, Note_on_c, 3, 61, 0
5, 140480, Note_on_c, 0, 69, 100
5, 140560, Note_on_c, 0, 69, 0
5, 140800, Note_on_c, 3, 60, 100
5, 140800, Note_on_c, 3, 61, 100
5, 140960, Note_on_c, 0, 68, 100
5, 141040, Note_on_c, 3, 60, 0
5, 141040, Note_on_c, 3, 61, 0
5, 141040, Note_on_c, 0, 68, 0
5, 141120, Note_on_c, 3, 61, 100
5, 141360, Note_on_c, 3, 61, 0
5, 141440, Note_on_c, 3, 61, 100
5, 141680, Note_on_c, 3, 61, 0
5, 141760, Note_on_c, 3, 61, 100
5, 142000, Note_on_c, 3, 61, 0
5, 142080, Note_on_c, 3, 60, 100
5, 142080, Note_on_c, 3, 61, 100
5, 142320, Note_on_c, 3, 60, 0
5, 142320, Note_on_c, 3, 61, 0
5, 142720, Note_on_c, 3, 61, 100
5, 142960, Note_on_c, 3, 61, 0
5, 143040, Note_on_c, 3, 61, 100
5, 143280, Note_on_c, 3, 61, 0
5, 143680, Note_on_c, 3, 60, 100
5, 143680, Note_on_c, 3, 61, 100
5, 143920, Note_on_c, 3, 60, 0
5, 143920, Note_on_c, 3, 61, 0
5, 144000, Note_on_c, 3, 60, 100
5, 144000, Note_on_c, 3, 61, 100
5, 144240, Note_on_c, 3, 60, 0
5, 144240, Note_on_c, 3, 61, 0
5, 144640, Note_on_c, 3, 60, 100
5, 144640, Note_on_c, 3, 61, 100
5, 144880, Note_on_c, 3, 60, 0
5, 144880, Note_on_c, 3, 61, 0
5, 144960, Note_on_c, 3, 61, 100
5, 144960, Note_on_c, 0, 70, 100
5, 145040, Note_on_c, 0, 70, 0
5, 145200, Note_on_c, 3, 61, 0
5, 145280, Note_on_c, 3, 61, 100
5, 145520, Note_on_c, 3, 61, 0
5, 145600, Note_on_c, 3, 61, 100
5, 145600, Note_on_c, 0, 68, 100
5, 145680, Note_on_c, 0, 68, 0
5, 145840, Note_on_c, 3, 61, 0
5, 145920, Note_on_c, 3, 60, 100
5, 145920, Note_on_c, 3, 61, 100
5, 145920, Note_on_c, 0, 70, 100
5, 146160, Note_on_c, 3, 60, 0
5, 146160, Note_on_c, 3, 61, 0
5, 146560, Note_on_c, 3, 60, 100
5, 146560, Note_on_c, 3, 61, 100
5, 146800, Note_on_c, 3, 60, 0
5, 146800, Note_on_c, 3, 61, 0
5, 146880, Note_on_c, 3, 60, 100
5, 146880, Note_on_c, 3, 61, 100
5, 147120, Note_on_c, 3, 60, 0
5, 147120, Note_on_c, 3, 61, 0
5, 147200, Note_on_c, 0, 70, 0
5, 147520, Note_on_c, 3, 61, 100
5, 147760, Note_on_c, 3, 61, 0
5, 147840, Note_on_c, 3, 60, 100
5, 147840, Note_on_c, 3, 61, 100
5, 148080, Note_on_c, 3, 60, 0
5, 148080, Note_on_c, 3, 61, 0
5, 148480, Note_on_c, 3, 61, 100
5, 148720, Note_on_c, 3, 61, 0
5, 148800, Note_on_c, 3, 61, 100
5, 149040, Note_on_c, 3, 61, 0
5, 149120, Note_on_c, 3, 61, 100
5, 149360, Note_on_c, 3, 61, 0
5, 149440, Note_on_c, 3, 61, 100
5, 149680, Note_on_c, 3, 61, 0
5, 149760, Note_on_c, 3, 60, 100
5, 149760, Note_on_c, 3, 61, 100
5, 149760, Note_on_c, 0, 68, 100
5, 149880, Note_on_c, 0, 68, 0
5, 150000, Note_on_c, 3, 60, 0
5, 150000, Note_on_c, 3, 61, 0
5, 150120, Note_on_c, 0, 69, 100
5, 150400, Note_on_c, 3, 60, 100
5, 150400, Note_on_c, 3, 61, 100
5, 150640, Note_on_c, 3, 60, 0
5, 150640, Note_on_c, 3, 61, 0
5, 150680, Note_on_c, 0, 69, 0
5, 150720, Note_on_c, 3, 61, 100
5, 150840, Note_on_c, 0, 69, 100
5, 150920, Note_on_c, 0, 69, 0
5, 150960, Note_on_c, 3, 61, 0
5, 151120, Note_on_c, 0, 70, 100
5, 151360, Note_on_c, 3, 60, 100
5, 151360, Note_on_c, 3, 61, 100
5, 151600, Note_on_c, 3, 60, 0
5, 151600, Note_on_c, 3, 61, 0
5, 151680, Note_on_c, 3, 60, 100
5, 151680, Note_on_c, 3, 61, 100
5, 151720, Note_on_c, 0, 70, 0
5, 151840, Note_on_c, 0, 70, 100
5, 151920, Note_on_c, 3, 60, 0
5, 151920, Note_on_c, 3, 61, 0
5, 152000, Note_on_c, 0, 70, 0
5, 152120, Note_on_c, 0, 69, 100
5, 152200, Note_on_c, 0, 69, 0
5, 152320, Note_on_c, 3, 61, 100
5, 152560, Note_on_c, 3, 61, 0
5, 152640, Note_on_c, 3, 60, 100
5, 152640, Note_on_c, 3, 61, 100
5, 152640, Note_on_c, 0, 69, 100
5, 152880, Note_on_c, 3, 60, 0
5, 152880, Note_on_c, 3, 61, 0
5, 153200, Note_on_c, 0, 69, 0
5, 153280, Note_on_c, 3, 61, 100
5, 153360, Note_on_c, 0, 69, 100
5, 153480, Note_on_c, 0, 69, 0
5, 153520, Note_on_c, 3, 61, 0
5, 153600, Note_on_c, 3, 60, 100
5, 153600, Note_on_c, 3, 61, 100
5, 153600, Note_on_c, 0, 69, 100
5, 153840, Note_on_c, 3, 60, 0
5, 153840, Note_on_c, 3, 61, 0
5, 153920, Note_on_c, 3, 61, 100
5, 154080, Note_on_c, 3, 61, 0
5, 154080, Note_on_c, 3, 61, 100
5, 154160, Note_on_c, 0, 69, 0
5, 154240, Note_on_c, 3, 61, 0
5, 154240, Note_on_c, 3, 60, 100
5, 154240, Note_on_c, 3, 61, 100
5, 154240, Note_on_c, 0, 69, 100
5, 154400, Note_on_c, 0, 69, 0
5, 154480, Note_on_c, 3, 60, 0
5, 154480, Note_on_c, 3, 61, 0
5, 154560, Note_on_c, 3, 61, 100
5, 154560, Note_on_c, 0, 70, 100
5, 154720, Note_on_c, 0, 70, 0
5, 154800, Note_on_c, 3, 61, 0
5, 154880, Note_on_c, 3, 60, 100
5, 154880, Note_on_c, 3, 61, 100
5, 154880, Note_on_c, 0, 69, 100
5, 155040, Note_on_c, 0, 69, 0
5, 155120, Note_on_c, 3, 60, 0
5, 155120, Note_on_c, 3, 61, 0
5, 155200, Note_on_c, 3, 60, 100
5, 155200, Note_on_c, 3, 61, 100
5, 155200, Note_on_c, 0, 68, 100
5, 155360, Note_on_c, 0, 68, 0
5, 155440, Note_on_c, 3, 60, 0
5, 155440, Note_on_c, 3, 61, 0
5, 155520, Note_on_c, 3, 61, 100
5, 155520, Note_on_c, 0, 69, 100
5, 155680, Note_on_c, 0, 69, 0
5, 155760, Note_on_c, 3, 61, 0
5, 155840, Note_on_c, 3, 60, 100
5, 155840, Note_on_c, 3, 61, 100
5, 156080, Note_on_c, 3, 60, 0
5, 156080, Note_on_c, 3, 61, 0
5, 156160, Note_on_c, 3, 60, 100
5, 156160, Note_on_c, 3, 61, 100
5, 156160, Note_on_c, 0, 69, 100
5, 156320, Note_on_c, 0, 69, 0
5, 156400, Note_on_c, 3, 60, 0
5, 156400, Note_on_c, 3, 61, 0
5, 156480, Note_on_c, 3, 61, 100
5, 156480, Note_on_c, 0, 70, 100
5, 156640, Note_on_c, 0, 70, 0
5, 156720, Note_on_c, 3, 61, 0
5, 156800, Note_on_c, 3, 60, 100
5, 156800, Note_on_c, 3, 61, 100
5, 157040, Note_on_c, 3, 60, 0
5, 157040, Note_on_c, 3, 61, 0
5, 157120, Note_on_c, 3, 60, 100
5, 157120, Note_on_c, 3, 61, 100
5, 157120, Note_on_c, 0, 70, 100
5, 157280, Note_on_c, 0, 70, 0
5, 157360, Note_on_c, 3, 60, 0
5, 157360, Note_on_c, 3, 61, 0
5, 157440, Note_on_c, 3, 60, 100
5, 157440, Note_on_c, 3, 61, 100
5, 157440, Note_on_c, 0, 70, 100
5, 157600, Note_on_c, 0, 70, 0
5, 157680, Note_on_c, 3, 60, 0
5, 157680, Note_on_c, 3, 61, 0
5, 157800, Note_on_c, 0, 69, 100
5, 157880, Note_on_c, 0, 69, 0
5, 158080, Note_on_c, 3, 60, 100
5, 158080, Note_on_c, 3, 61, 100
5, 158320, Note_on_c, 3, 60, 0
5, 158320, Note_on_c, 3, 61, 0
5, 158400, Note_on_c, 3, 61, 100
5, 158400, Note_on_c, 0, 69, 100
5, 158560, Note_on_c, 0, 69, 0
5, 158640, Note_on_c, 3, 61, 0
5, 159040, Note_on_c, 3, 61, 100
5, 159040, Note_on_c, 0, 69, 100
5, 159200, Note_on_c, 0, 69, 0
5, 159280, Note_on_c, 3, 61, 0
5, 159360, Note_on_c, 3, 60, 100
5, 159360, Note_on_c, 3, 61, 100
5, 159360, Note_on_c, 0, 70, 100
5, 159600, Note_on_c, 3, 60, 0
5, 159600, Note_on_c, 3, 61, 0
5, 159960, Note_on_c, 0, 70, 0
5, 160000, Note_on_c, 3, 60, 100
5, 160000, Note_on_c, 3, 61, 100
5, 160000, Note_on_c, 0, 68, 100
5, 160160, Note_on_c, 0, 68, 0
5, 160240, Note_on_c, 3, 60, 0
5, 160240, Note_on_c, 3, 61, 0
5, 160320, Note_on_c, 3, 61, 100
5, 160560, Note_on_c, 3, 61, 0
5, 160640, Note_on_c, 3, 61, 100
5, 160800, Note_on_c, 3, 61, 0
5, 160800, Note_on_c, 3, 61, 100
5, 160960, Note_on_c, 3, 61, 0
5, 160960, Note_on_c, 3, 61, 100
5, 161120, Note_on_c, 3, 61, 0
5, 161120, Note_on_c, 3, 61, 100
5, 161280, Note_on_c, 3, 61, 0
5, 161280, Note_on_c, 3, 60, 100
5, 161280, Note_on_c, 3, 61, 100
5, 161520, Note_on_c, 3, 60, 0
5, 161520, Note_on_c, 3, 61, 0
5, 161920, Note_on_c, 3, 60, 100
5, 161920, Note_on_c, 3, 61, 100
5, 161920, Note_on_c, 0, 69, 100
5, 162080, Note_on_c, 0, 69, 0
5, 162160, Note_on_c, 3, 60, 0
5, 162160, Note_on_c, 3, 61, 0
5, 162240, Note_on_c, 3, 61, 100
5, 162240, Note_on_c, 0, 70, 100
5, 162480, Note_on_c, 3, 61, 0
5, 162880, Note_on_c, 3, 61, 100
5, 163120, Note_on_c, 0, 70, 0
5, 163120, Note_on_c, 3, 61, 0
5, 163200, Note_on_c, 3, 60, 100
5, 163200, Note_on_c, 3, 61, 100
5, 163200, Note_on_c, 0, 70, 100
5, 163360, Note_on_c, 0, 70, 0
5, 163440, Note_on_c, 3, 60, 0
5, 163440, Note_on_c, 3, 61, 0
5, 163680, Note_on_c, 0, 69, 100
5, 163840, Note_on_c, 3, 60, 100
5, 163840, Note_on_c, 3, 61, 100
5, 164040, Note_on_c, 0, 69, 0
5, 164080, Note_on_c, 3, 60, 0
5, 164080, Note_on_c, 3, 61, 0
5, 164160, Note_on_c, 3, 61, 100
5, 164160, Note_on_c, 0, 69, 100
5, 164240, Note_on_c, 0, 69, 0
5, 164400, Note_on_c, 3, 61, 0
5, 164480, Note_on_c, 3, 61, 100
5, 164720, Note_on_c, 3, 61, 0
5, 164800, Note_on_c, 3, 61, 100
5, 164800, Note_on_c, 0, 69, 100
5, 164880, Note_on_c, 0, 69, 0
5, 165040, Note_on_c, 3, 61, 0
5, 165120, Note_on_c, 3, 60, 100
5, 165120, Note_on_c, 3, 61, 100
5, 165120, Note_on_c, 0, 70, 100
5, 165280, Note_on_c, 0, 70, 0
5, 165360, Note_on_c, 3, 60, 0
5, 165360, Note_on_c, 3, 61, 0
5, 165440, Note_on_c, 0, 70, 100
5, 165760, Note_on_c, 3, 60, 100
5, 165760, Note_on_c, 3, 61, 100
5, 166000, Note_on_c, 3, 60, 0
5, 166000, Note_on_c, 3, 61, 0
5, 166080, Note_on_c, 3, 61, 100
5, 166320, Note_on_c, 3, 61, 0
5, 166720, Note_on_c, 0, 70, 0
5, 166720, Note_on_c, 3, 61, 100
5, 166960, Note_on_c, 3, 61, 0
5, 167040, Note_on_c, 3, 60, 100
5, 167040, Note_on_c, 3, 61, 100
5, 167280, Note_on_c, 3, 60, 0
5, 167280, Note_on_c, 3, 61, 0
5, 167360, Note_on_c, 0, 70, 100
5, 167680, Note_on_c, 3, 60, 100
5, 167680, Note_on_c, 3, 61, 100
5, 167920, Note_on_c, 0, 70, 0
5, 167920, Note_on_c, 3, 60, 0
5, 167920, Note_on_c, 3, 61, 0
5, 168000, Note_on_c, 3, 61, 100
5, 168000, Note_on_c, 0, 69, 100
5, 168240, Note_on_c, 3, 61, 0
5, 168320, Note_on_c, 3, 61, 100
5, 168560, Note_on_c, 3, 61, 0
5, 168640, Note_on_c, 3, 61, 100
5, 168800, Note_on_c, 0, 69, 0
5, 168880, Note_on_c, 3, 61, 0
5, 168880, Note_on_c, 0, 68, 100
5, 168960, Note_on_c, 3, 60, 100
5, 168960, Note_on_c, 3, 61, 100
5, 169200, Note_on_c, 3, 60, 0
5, 169200, Note_on_c, 3, 61, 0
5, 169280, Note_on_c, 3, 61, 100
5, 169440, Note_on_c, 3, 61, 0
5, 169440, Note_on_c, 3, 61, 100
5, 169480, Note_on_c, 0, 68, 0
5, 169600, Note_on_c, 3, 61, 0
5, 169600, Note_on_c, 3, 60, 100
5, 169600, Note_on_c, 3, 61, 100
5, 169600, Note_on_c, 0, 68, 100
5, 169760, Note_on_c, 0, 68, 0
5, 169840, Note_on_c, 3, 60, 0
5, 169840, Note_on_c, 3, 61, 0
5, 169920, Note_on_c, 3, 61, 100
5, 169920, Note_on_c, 0, 69, 100
5, 170160, Note_on_c, 3, 61, 0
5, 170240, Note_on_c, 3, 61, 100
5, 170400, Note_on_c, 3, 61, 0
5, 170400, Note_on_c, 3, 61, 100
5, 170480, Note_on_c, 0, 69, 0
5, 170560, Note_on_c, 3, 61, 0
5, 170560, Note_on_c, 3, 60, 100
5, 170560, Note_on_c, 3, 61, 100
5, 170560, Note_on_c, 0, 69, 100
5, 170800, Note_on_c, 3, 60, 0
5, 170800, Note_on_c, 3, 61, 0
5, 170880, Note_on_c, 3, 61, 100
5, 171120, Note_on_c, 0, 69, 0
5, 171120, Note_on_c, 3, 61, 0
5, 171200, Note_on_c, 3, 60, 100
5, 171200, Note_on_c, 3, 61, 100
5, 171200, Note_on_c, 0, 69, 100
5, 171440, Note_on_c, 3, 60, 0
5, 171440, Note_on_c, 3, 61, 0
5, 171520, Note_on_c, 3, 61, 100
5, 171760, Note_on_c, 0, 69, 0
5, 171760, Note_on_c, 3, 61, 0
5, 171840, Note_on_c, 3, 60, 100
5, 171840, Note_on_c, 3, 61, 100
5, 171840, Note_on_c, 0, 70, 100
5, 172000, Note_on_c, 0, 70, 0
5, 172080, Note_on_c, 3, 60, 0
5, 172080, Note_on_c, 3, 61, 0
5, 172160, Note_on_c, 3, 61, 100
5, 172160, Note_on_c, 0, 70, 100
5, 172400, Note_on_c, 3, 61, 0
5, 172480, Note_on_c, 3, 60, 100
5, 172480, Note_on_c, 3, 61, 100
5, 172720, Note_on_c, 0, 70, 0
5, 172720, Note_on_c, 3, 60, 0
5, 172720, Note_on_c, 3, 61, 0
5, 172800, Note_on_c, 3, 60, 100
5, 172800, Note_on_c, 3, 61, 100
5, 172800, Note_on_c, 0, 70, 100
5, 172960, Note_on_c, 0, 70, 0
5, 173040, Note_on_c, 3, 60, 0
5, 173040, Note_on_c, 3, 61, 0
5, 173120, Note_on_c, 0, 69, 100
5, 173440, Note_on_c, 3, 60, 100
5, 173440, Note_on_c, 3, 61, 100
5, 173680, Note_on_c, 3, 60, 0
5, 173680, Note_on_c, 3, 61, 0
5, 173760, Note_on_c, 3, 61, 100
5, 174000, Note_on_c, 3, 61, 0
5, 174080, Note_on_c, 0, 69, 0
5, 174360, Note_on_c, 0, 68, 100
5, 174400, Note_on_c, 3, 61, 100
5, 174520, Note_on_c, 0, 68, 0
5, 174640, Note_on_c, 3, 61, 0
5, 174720, Note_on_c, 3, 60, 100
5, 174720, Note_on_c, 3, 61, 100
5, 174720, Note_on_c, 0, 70, 100
5, 174880, Note_on_c, 0, 70, 0
5, 174960, Note_on_c, 3, 60, 0
5, 174960, Note_on_c, 3, 61, 0
5, 175040, Note_on_c, 0, 69, 100
5, 175120, Note_on_c, 0, 69, 0
5, 175360, Note_on_c, 3, 60, 100
5, 175360, Note_on_c, 3, 61, 100
5, 175360, Note_on_c, 0, 69, 100
5, 175440, Note_on_c, 0, 69, 0
5, 175600, Note_on_c, 3, 60, 0
5, 175600, Note_on_c, 3, 61, 0
5, 175680, Note_on_c, 3, 61, 100
5, 175680, Note_on_c, 0, 68, 100
5, 175760, Note_on_c, 0, 68, 0
5, 175920, Note_on_c, 3, 61, 0
5, 176000, Note_on_c, 3, 61, 100
5, 176160, Note_on_c, 0, 69, 100
5, 176240, Note_on_c, 3, 61, 0
5, 176240, Note_on_c, 0, 69, 0
5, 176320, Note_on_c, 3, 61, 100
5, 176560, Note_on_c, 3, 61, 0
5, 176640, Note_on_c, 3, 60, 100
5, 176640, Note_on_c, 3, 61, 100
5, 176640, Note_on_c, 0, 68, 100
5, 176720, Note_on_c, 0, 68, 0
5, 176880, Note_on_c, 3, 60, 0
5, 176880, Note_on_c, 3, 61, 0
5, 177200, Note_on_c, 0, 68, 100
5, 177280, Note_on_c, 3, 60, 100
5, 177280, Note_on_c, 3, 61, 100
5, 177360, Note_on_c, 0, 68, 0
5, 177520, Note_on_c, 3, 60, 0
5, 177520, Note_on_c, 3, 61, 0
5, 177600, Note_on_c, 3, 61, 100
5, 177760, Note_on_c, 0, 69, 100
5, 177840, Note_on_c, 3, 61, 0
5, 177920, Note_on_c, 0, 69, 0
5, 178080, Note_on_c, 0, 69, 100
5, 178240, Note_on_c, 0, 69, 0
5, 178240, Note_on_c, 3, 61, 100
5, 178480, Note_on_c, 3, 61, 0
5, 178560, Note_on_c, 3, 60, 100
5, 178560, Note_on_c, 3, 61, 100
5, 178560, Note_on_c, 0, 70, 100
5, 178720, Note_on_c, 0, 70, 0
5, 178800, Note_on_c, 3, 60, 0
5, 178800, Note_on_c, 3, 61, 0
5, 178960, Note_on_c, 0, 70, 100
5, 179120, Note_on_c, 0, 70, 0
5, 179200, Note_on_c, 3, 60, 100
5, 179200, Note_on_c, 3, 61, 100
5, 179280, Note_on_c, 0, 70, 100
5, 179360, Note_on_c, 0, 70, 0
5, 179440, Note_on_c, 3, 60, 0
5, 179440, Note_on_c, 3, 61, 0
5, 179520, Note_on_c, 3, 61, 100
5, 179640, Note_on_c, 0, 70, 100
5, 179760, Note_on_c, 3, 61, 0
5, 179800, Note_on_c, 0, 70, 0
5, 179840, Note_on_c, 3, 61, 100
5, 179840, Note_on_c, 0, 69, 100
5, 180000, Note_on_c, 0, 69, 0
5, 180080, Note_on_c, 3, 61, 0
5, 180160, Note_on_c, 3, 61, 100
5, 180160, Note_on_c, 0, 69, 100
5, 180320, Note_on_c, 0, 69, 0
5, 180400, Note_on_c, 3, 61, 0
5, 180480, Note_on_c, 3, 60, 100
5, 180480, Note_on_c, 3, 61, 100
5, 180600, Note_on_c, 0, 68, 100
5, 180680, Note_on_c, 0, 68, 0
5, 180720, Note_on_c, 3, 60, 0
5, 180720, Note_on_c, 3, 61, 0
5, 180920, Note_on_c, 0, 69, 100
5, 181000, Note_on_c, 0, 69, 0
5, 181120, Note_on_c, 3, 60, 100
5, 181120, Note_on_c, 3, 61, 100
5, 181360, Note_on_c, 3, 60, 0
5, 181360, Note_on_c, 3, 61, 0
5, 181440, Note_on_c, 3, 61, 100
5, 181440, Note_on_c, 0, 70, 100
5, 181520, Note_on_c, 0, 70, 0
5, 181680, Note_on_c, 3, 61, 0
5, 181760, Note_on_c, 0, 68, 100
5, 181840, Note_on_c, 0, 68, 0
5, 182080, Note_on_c, 3, 61, 100
5, 182080, Note_on_c, 0, 69, 100
5, 182160, Note_on_c, 0, 69, 0
5, 182320, Note_on_c, 3, 61, 0
5, 182400, Note_on_c, 3, 60, 100
5, 182400, Note_on_c, 3, 61, 100
5, 182560, Note_on_c, 0, 70, 100
5, 182640, Note_on_c, 3, 60, 0
5, 182640, Note_on_c, 3, 61, 0
5, 182640, Note_on_c, 0, 70, 0
5, 182880, Note_on_c, 0, 70, 100
5, 183040, Note_on_c, 3, 60, 100
5, 183040, Note_on_c, 3, 61, 100
5, 183240, Note_on_c, 0, 70, 0
5, 183280, Note_on_c, 3, 60, 0
5, 183280, Note_on_c, 3, 61, 0
5, 183360, Note_on_c, 3, 61, 100
5, 183360, Note_on_c, 0, 70, 100
5, 183520, Note_on_c, 0, 70, 0
5, 183600, Note_on_c, 3, 61, 0
5, 183680, Note_on_c, 3, 61, 100
5, 183680, Note_on_c, 0, 69, 100
5, 183840, Note_on_c, 0, 69, 0
5, 183920, Note_on_c, 3, 61, 0
5, 184000, Note_on_c, 3, 61, 100
5, 184000, Note_on_c, 0, 68, 100
5, 184080, Note_on_c, 0, 68, 0
5, 184240, Note_on_c, 3, 61, 0
5, 184320, Note_on_c, 3, 60, 100
5, 184320, Note_on_c, 3, 61, 100
5, 184320, Note_on_c, 0, 70, 100
5, 184400, Note_on_c, 0, 70, 0
5, 184560, Note_on_c, 3, 60, 0
5, 184560, Note_on_c, 3, 61, 0
5, 184680, Note_on_c, 0, 68, 100
5, 184760, Note_on_c, 0, 68, 0
5, 184960, Note_on_c, 3, 61, 100
5, 185040, Note_on_c, 0, 69, 100
5, 185120, Note_on_c, 0, 69, 0
5, 185200, Note_on_c, 3, 61, 0
5, 185280, Note_on_c, 3, 61, 100
5, 185280, Note_on_c, 0, 69, 100
5, 185440, Note_on_c, 0, 69, 0
5, 185520, Note_on_c, 3, 61, 0
5, 185600, Note_on_c, 0, 68, 100
5, 185760, Note_on_c, 0, 68, 0
5, 185920, Note_on_c, 3, 61, 100
5, 185920, Note_on_c, 0, 70, 100
5, 186080, Note_on_c, 0, 70, 0
5, 186160, Note_on_c, 3, 61, 0
5, 186240, Note_on_c, 3, 60, 100
5, 186240, Note_on_c, 3, 61, 100
5, 186240, Note_on_c, 0, 68, 100
5, 186480, Note_on_c, 3, 60, 0
5, 186480, Note_on_c, 3, 61, 0
5, 186800, Note_on_c, 0, 68, 0
5, 186880, Note_on_c, 3, 61, 100
5, 186880, Note_on_c, 0, 68, 100
5, 187120, Note_on_c, 3, 61, 0
5, 187200, Note_on_c, 3, 61, 100
5, 187440, Note_on_c, 0, 68, 0
5, 187440, Note_on_c, 3, 61, 0
5, 187520, Note_on_c, 3, 61, 100
5, 187520, Note_on_c, 0, 68, 100
5, 187680, Note_on_c, 0, 68, 0
5, 187760, Note_on_c, 3, 61, 0
5, 187840, Note_on_c, 3, 61, 100
5, 187840, Note_on_c, 0, 68, 100
5, 187920, Note_on_c, 0, 68, 0
5, 188080, Note_on_c, 3, 61, 0
5, 188160, Note_on_c, 3, 60, 100
5, 188160, Note_on_c, 3, 61, 100
5, 188160, Note_on_c, 0, 69, 100
5, 188400, Note_on_c, 3, 60, 0
5, 188400, Note_on_c, 3, 61, 0
5, 188720, Note_on_c, 0, 69, 0
5, 188800, Note_on_c, 3, 60, 100
5, 188800, Note_on_c, 3, 61, 100
5, 188800, Note_on_c, 0, 69, 100
5, 189040, Note_on_c, 3, 60, 0
5, 189040, Note_on_c, 3, 61, 0
5, 189120, Note_on_c, 3, 61, 100
5, 189360, Note_on_c, 0, 69, 0
5, 189360, Note_on_c, 3, 61, 0
5, 189440, Note_on_c, 0, 69, 100
5, 189760, Note_on_c, 3, 60, 100
5, 189760, Note_on_c, 3, 61, 100
5, 189920, Note_on_c, 0, 69, 0
5, 190000, Note_on_c, 3, 60, 0
5, 190000, Note_on_c, 3, 61, 0
5, 190080, Note_on_c, 3, 60, 100
5, 190080, Note_on_c, 3, 61, 100
5, 190080, Note_on_c, 0, 69, 100
5, 190320, Note_on_c, 3, 60, 0
5, 190320, Note_on_c, 3, 61, 0
5, 190560, Note_on_c, 0, 69, 0
5, 190720, Note_on_c, 3, 60, 100
5, 190720, Note_on_c, 3, 61, 100
5, 190720, Note_on_c, 0, 69, 100
5, 190960, Note_on_c, 3, 60, 0
5, 190960, Note_on_c, 3, 61, 0
5, 191040, Note_on_c, 3, 61, 100
5, 191200, Note_on_c, 0, 69, 0
5, 191280, Note_on_c, 3, 61, 0
5, 191360, Note_on_c, 3, 61, 100
5, 191360, Note_on_c, 0, 70, 100
5, 191600, Note_on_c, 3, 61, 0
5, 191680, Note_on_c, 3, 60, 100
5, 191680, Note_on_c, 3, 61, 100
5, 191840, Note_on_c, 0, 70, 0
5, 191920, Note_on_c, 3, 60, 0
5, 191920, Note_on_c, 3, 61, 0
5, 192000, Note_on_c, 3, 60, 100
5, 192000, Note_on_c, 3, 61, 100
5, 192000, Note_on_c, 0, 70, 100
5, 192240, Note_on_c, 3, 60, 0
5, 192240, Note_on_c, 3, 61, 0
5, 192480, Note_on_c, 0, 70, 0
5, 192640, Note_on_c, 3, 60, 100
5, 192640, Note_on_c, 3, 61, 100
5, 192640, Note_on_c, 0, 70, 100
5, 192880, Note_on_c, 3, 60, 0
5, 192880, Note_on_c, 3, 61, 0
5, 192960, Note_on_c, 3, 61, 100
5, 193120, Note_on_c, 0, 70, 0
5, 193200, Note_on_c, 3, 61, 0
5, 193280, Note_on_c, 0, 70, 100
5, 193600, Note_on_c, 3, 61, 100
5, 193760, Note_on_c, 0, 70, 0
5, 193840, Note_on_c, 3, 61, 0
5, 193920, Note_on_c, 3, 60, 100
5, 193920, Note_on_c, 3, 61, 100
5, 193920, Note_on_c, 0, 70, 100
5, 194160, Note_on_c, 3, 60, 0
5, 194160, Note_on_c, 3, 61, 0
5, 194160, Note_on_c, 0, 70, 0
5, 194240, Note_on_c, 0, 70, 100
5, 194560, Note_on_c, 3, 60, 100
5, 194560, Note_on_c, 3, 61, 100
5, 194800, Note_on_c, 3, 60, 0
5, 194800, Note_on_c, 3, 61, 0
5, 194880, Note_on_c, 3, 61, 100
5, 195120, Note_on_c, 3, 61, 0
5, 195200, Note_on_c, 3, 61, 100
5, 195440, Note_on_c, 3, 61, 0
5, 195520, Note_on_c, 3, 60, 100
5, 195520, Note_on_c, 3, 61, 100
5, 195680, Note_on_c, 0, 70, 0
5, 195760, Note_on_c, 3, 60, 0
5, 195760, Note_on_c, 3, 61, 0
5, 195840, Note_on_c, 3, 60, 100
5, 195840, Note_on_c, 3, 61, 100
5, 195840, Note_on_c, 0, 70, 100
5, 195960, Note_on_c, 0, 70, 0
5, 196080, Note_on_c, 3, 60, 0
5, 196080, Note_on_c, 3, 61, 0
5, 196200, Note_on_c, 0, 69, 100
5, 196480, Note_on_c, 3, 61, 100
5, 196720, Note_on_c, 3, 61, 0
5, 196740, Note_on_c, 0, 69, 0
5, 196800, Note_on_c, 3, 61, 100
5, 196800, Note_on_c, 0, 69, 100
5, 197040, Note_on_c, 3, 61, 0
5, 197120, Note_on_c, 3, 61, 100
5, 197280, Note_on_c, 3, 61, 0
5, 197280, Note_on_c, 3, 61, 100
5, 197300, Note_on_c, 0, 69, 0
5, 197440, Note_on_c, 3, 61, 0
5, 197440, Note_on_c, 3, 61, 100
5, 197440, Note_on_c, 0, 69, 100
5, 197600, Note_on_c, 0, 69, 0
5, 197680, Note_on_c, 3, 61, 0
5, 197760, Note_on_c, 3, 60, 100
5, 197760, Note_on_c, 3, 61, 100
5, 197760, Note_on_c, 0, 70, 100
5, 197880, Note_on_c, 0, 70, 0
5, 197940, Note_on_c, 0, 69, 100
5, 198000, Note_on_c, 3, 60, 0
5, 198000, Note_on_c, 3, 61, 0
5, 198080, Note_on_c, 3, 61, 100
5, 198240, Note_on_c, 3, 61, 0
5, 198240, Note_on_c, 3, 61, 100
5, 198400, Note_on_c, 3, 61, 0
5, 198400, Note_on_c, 3, 60, 100
5, 198400, Note_on_c, 3, 61, 100
5, 198600, Note_on_c, 0, 69, 0
5, 198640, Note_on_c, 3, 60, 0
5, 198640, Note_on_c, 3, 61, 0
5, 198720, Note_on_c, 3, 61, 100
5, 198720, Note_on_c, 0, 69, 100
5, 198960, Note_on_c, 3, 61, 0
5, 199040, Note_on_c, 3, 61, 100
5, 199260, Note_on_c, 0, 69, 0
5, 199280, Note_on_c, 3, 61, 0
5, 199360, Note_on_c, 3, 60, 100
5, 199360, Note_on_c, 3, 61, 100
5, 199360, Note_on_c, 0, 69, 100
5, 199520, Note_on_c, 0, 69, 0
5, 199600, Note_on_c, 3, 60, 0
5, 199600, Note_on_c, 3, 61, 0
5, 199680, Note_on_c, 3, 60, 100
5, 199680, Note_on_c, 3, 61, 100
5, 199680, Note_on_c, 0, 70, 100
5, 199800, Note_on_c, 0, 70, 0
5, 199860, Note_on_c, 0, 69, 100
5, 199920, Note_on_c, 3, 60, 0
5, 199920, Note_on_c, 3, 61, 0
5, 200000, Note_on_c, 3, 61, 100
5, 200160, Note_on_c, 3, 61, 0
5, 200160, Note_on_c, 3, 61, 100
5, 200220, Note_on_c, 0, 69, 0
5, 200320, Note_on_c, 3, 61, 0
5, 200320, Note_on_c, 3, 60, 100
5, 200320, Note_on_c, 3, 61, 100
5, 200320, Note_on_c, 0, 69, 100
5, 200428, Note_on_c, 0, 69, 0
5, 200560, Note_on_c, 3, 60, 0
5, 200560, Note_on_c, 3, 61, 0
5, 200640, Note_on_c, 3, 61, 100
5, 200640, Note_on_c, 0, 70, 100
5, 200800, Note_on_c, 0, 70, 0
5, 200880, Note_on_c, 3, 61, 0
5, 200960, Note_on_c, 3, 61, 100
5, 200960, Note_on_c, 0, 69, 100
5, 201120, Note_on_c, 0, 69, 0
5, 201200, Note_on_c, 3, 61, 0
5, 201280, Note_on_c, 3, 61, 100
5, 201280, Note_on_c, 0, 68, 100
5, 201440, Note_on_c, 0, 68, 0
5, 201520, Note_on_c, 3, 61, 0
5, 201600, Note_on_c, 3, 60, 100
5, 201600, Note_on_c, 3, 61, 100
5, 201600, Note_on_c, 0, 69, 100
5, 201760, Note_on_c, 0, 69, 0
5, 201840, Note_on_c, 3, 60, 0
5, 201840, Note_on_c, 3, 61, 0
5, 201920, Note_on_c, 3, 61, 100
5, 202160, Note_on_c, 3, 61, 0
5, 202240, Note_on_c, 3, 61, 100
5, 202240, Note_on_c, 0, 69, 100
5, 202400, Note_on_c, 0, 69, 0
5, 202480, Note_on_c, 3, 61, 0
5, 202560, Note_on_c, 3, 61, 100
5, 202560, Note_on_c, 0, 70, 100
5, 202800, Note_on_c, 3, 61, 0
5, 202880, Note_on_c, 3, 61, 100
5, 203120, Note_on_c, 3, 61, 0
5, 203200, Note_on_c, 3, 61, 100
5, 203440, Note_on_c, 0, 70, 0
5, 203440, Note_on_c, 3, 61, 0
5, 203520, Note_on_c, 3, 60, 100
5, 203520, Note_on_c, 3, 61, 100
5, 203520, Note_on_c, 0, 70, 100
5, 203760, Note_on_c, 3, 60, 0
5, 203760, Note_on_c, 3, 61, 0
5, 204160, Note_on_c, 3, 60, 100
5, 204160, Note_on_c, 3, 61, 100
5, 204400, Note_on_c, 3, 60, 0
5, 204400, Note_on_c, 3, 61, 0
5, 204480, Note_on_c, 3, 61, 100
5, 204640, Note_on_c, 0, 70, 0
5, 204720, Note_on_c, 3, 61, 0
5, 204800, Note_on_c, 0, 69, 100
5, 205120, Note_on_c, 3, 61, 100
5, 205360, Note_on_c, 0, 69, 0
5, 205360, Note_on_c, 3, 61, 0
5, 205440, Note_on_c, 3, 60, 100
5, 205440, Note_on_c, 3, 61, 100
5, 205440, Note_on_c, 0, 69, 100
5, 205680, Note_on_c, 3, 60, 0
5, 205680, Note_on_c, 3, 61, 0
5, 205760, Note_on_c, 3, 61, 100
5, 206000, Note_on_c, 0, 69, 0
5, 206000, Note_on_c, 3, 61, 0
5, 206080, Note_on_c, 3, 60, 100
5, 206080, Note_on_c, 3, 61, 100
5, 206080, Note_on_c, 0, 70, 100
5, 206320, Note_on_c, 3, 60, 0
5, 206320, Note_on_c, 3, 61, 0
5, 206400, Note_on_c, 3, 61, 100
5, 206640, Note_on_c, 0, 70, 0
5, 206640, Note_on_c, 3, 61, 0
5, 206720, Note_on_c, 3, 61, 100
5, 206720, Note_on_c, 0, 69, 100
5, 206960, Note_on_c, 3, 61, 0
5, 207040, Note_on_c, 3, 61, 100
5, 207240, Note_on_c, 0, 69, 0
5, 207280, Note_on_c, 3, 61, 0
5, 207360, Note_on_c, 3, 60, 100
5, 207360, Note_on_c, 3, 61, 100
5, 207360, Note_on_c, 0, 69, 100
5, 207600, Note_on_c, 3, 60, 0
5, 207600, Note_on_c, 3, 61, 0
5, 207920, Note_on_c, 0, 69, 0
5, 208000, Note_on_c, 3, 61, 100
5, 208000, Note_on_c, 0, 70, 100
5, 208240, Note_on_c, 3, 61, 0
5, 208320, Note_on_c, 3, 61, 100
5, 208560, Note_on_c, 0, 70, 0
5, 208560, Note_on_c, 3, 61, 0
5, 208640, Note_on_c, 0, 69, 100
5, 208960, Note_on_c, 3, 61, 100
5, 209200, Note_on_c, 0, 69, 0
5, 209200, Note_on_c, 3, 61, 0
5, 209280, Note_on_c, 3, 60, 100
5, 209280, Note_on_c, 3, 61, 100
5, 209280, Note_on_c, 0, 70, 100
5, 209440, Note_on_c, 0, 70, 0
5, 209520, Note_on_c, 3, 60, 0
5, 209520, Note_on_c, 3, 61, 0
5, 209600, Note_on_c, 0, 69, 100
5, 209680, Note_on_c, 0, 69, 0
5, 209920, Note_on_c, 3, 61, 100
5, 210160, Note_on_c, 3, 61, 0
5, 210240, Note_on_c, 3, 61, 100
5, 210240, Note_on_c, 0, 68, 100
5, 210320, Note_on_c, 0, 68, 0
5, 210480, Note_on_c, 3, 61, 0
5, 210560, Note_on_c, 3, 61, 100
5, 210800, Note_on_c, 3, 61, 0
5, 210880, Note_on_c, 3, 61, 100
5, 210880, Note_on_c, 0, 68, 100
5, 211040, Note_on_c, 0, 68, 0
5, 211120, Note_on_c, 3, 61, 0
5, 211200, Note_on_c, 3, 60, 100
5, 211200, Note_on_c, 3, 61, 100
5, 211200, Note_on_c, 0, 69, 100
5, 211440, Note_on_c, 3, 60, 0
5, 211440, Note_on_c, 3, 61, 0
5, 211840, Note_on_c, 3, 61, 100
5, 212080, Note_on_c, 0, 69, 0
5, 212080, Note_on_c, 3, 61, 0
5, 212160, Note_on_c, 3, 61, 100
5, 212160, Note_on_c, 0, 68, 100
5, 212320, Note_on_c, 0, 68, 0
5, 212400, Note_on_c, 3, 61, 0
5, 212640, Note_on_c, 0, 69, 100
5, 212720, Note_on_c, 0, 69, 0
5, 212800, Note_on_c, 3, 60, 100
5, 212800, Note_on_c, 3, 61, 100
5, 212960, Note_on_c, 0, 69, 100
5, 213040, Note_on_c, 3, 60, 0
5, 213040, Note_on_c, 3, 61, 0
5, 213040, Note_on_c, 0, 69, 0
5, 213120, Note_on_c, 3, 60, 100
5, 213120, Note_on_c, 3, 61, 100
5, 213120, Note_on_c, 0, 70, 100
5, 213200, Note_on_c, 0, 70, 0
5, 213360, Note_on_c, 3, 60, 0
5, 213360, Note_on_c, 3, 61, 0
5, 213600, Note_on_c, 0, 70, 100
5, 213680, Note_on_c, 0, 70, 0
5, 213760, Note_on_c, 3, 60, 100
5, 213760, Note_on_c, 3, 61, 100
5, 214000, Note_on_c, 3, 60, 0
5, 214000, Note_on_c, 3, 61, 0
5, 214080, Note_on_c, 3, 60, 100
5, 214080, Note_on_c, 3, 61, 100
5, 214080, Note_on_c, 0, 69, 100
5, 214240, Note_on_c, 0, 69, 0
5, 214320, Note_on_c, 3, 60, 0
5, 214320, Note_on_c, 3, 61, 0
5, 214400, Note_on_c, 3, 60, 100
5, 214400, Note_on_c, 3, 61, 100
5, 214400, Note_on_c, 0, 68, 100
5, 214480, Note_on_c, 0, 68, 0
5, 214640, Note_on_c, 3, 60, 0
5, 214640, Note_on_c, 3, 61, 0
5, 214680, Note_on_c, 0, 68, 100
5, 214720, Note_on_c, 3, 60, 100
5, 214720, Note_on_c, 3, 61, 100
5, 214800, Note_on_c, 0, 68, 0
5, 214960, Note_on_c, 3, 60, 0
5, 214960, Note_on_c, 3, 61, 0
5, 215040, Note_on_c, 3, 60, 100
5, 215040, Note_on_c, 3, 61, 100
5, 215040, Note_on_c, 0, 70, 100
5, 215120, Note_on_c, 0, 70, 0
5, 215280, Note_on_c, 3, 60, 0
5, 215280, Note_on_c, 3, 61, 0
5, 215360, Note_on_c, 3, 61, 100
5, 215360, Note_on_c, 0, 68, 100
5, 215440, Note_on_c, 0, 68, 0
5, 215520, Note_on_c, 3, 61, 0
5, 215520, Note_on_c, 3, 61, 100
5, 215680, Note_on_c, 3, 61, 0
5, 215680, Note_on_c, 3, 60, 100
5, 215680, Note_on_c, 3, 61, 100
5, 215680, Note_on_c, 0, 70, 100
5, 215920, Note_on_c, 3, 60, 0
5, 215920, Note_on_c, 3, 61, 0
5, 216000, Note_on_c, 3, 61, 100
5, 216240, Note_on_c, 0, 70, 0
5, 216240, Note_on_c, 3, 61, 0
5, 216240, Note_on_c, 0, 69, 100
5, 216320, Note_on_c, 0, 69, 0
5, 216320, Note_on_c, 3, 61, 100
5, 216560, Note_on_c, 3, 61, 0
5, 216640, Note_on_c, 3, 61, 100
5, 216720, Note_on_c, 0, 69, 100
5, 216840, Note_on_c, 0, 69, 0
5, 216880, Note_on_c, 3, 61, 0
5, 216960, Note_on_c, 3, 60, 100
5, 216960, Note_on_c, 3, 61, 100
5, 217200, Note_on_c, 3, 60, 0
5, 217200, Note_on_c, 3, 61, 0
5, 217280, Note_on_c, 3, 61, 100
5, 217280, Note_on_c, 0, 68, 100
5, 217400, Note_on_c, 0, 68, 0
5, 217520, Note_on_c, 3, 61, 0
5, 217600, Note_on_c, 3, 60, 100
5, 217600, Note_on_c, 3, 61, 100
5, 217840, Note_on_c, 3, 60, 0
5, 217840, Note_on_c, 3, 61, 0
5, 217920, Note_on_c, 3, 61, 100
5, 217920, Note_on_c, 0, 69, 100
5, 218160, Note_on_c, 3, 61, 0
5, 218240, Note_on_c, 3, 61, 100
5, 218480, Note_on_c, 0, 69, 0
5, 218480, Note_on_c, 3, 61, 0
5, 218560, Note_on_c, 3, 61, 100
5, 218560, Note_on_c, 0, 69, 100
5, 218720, Note_on_c, 0, 69, 0
5, 218800, Note_on_c, 3, 61, 0
5, 218880, Note_on_c, 3, 60, 100
5, 218880, Note_on_c, 3, 61, 100
5, 218880, Note_on_c, 0, 70, 100
5, 219000, Note_on_c, 0, 70, 0
5, 219120, Note_on_c, 3, 60, 0
5, 219120, Note_on_c, 3, 61, 0
5, 219520, Note_on_c, 3, 61, 100
5, 219520, Note_on_c, 0, 70, 100
5, 219680, Note_on_c, 0, 70, 0
5, 219760, Note_on_c, 3, 61, 0
5, 219840, Note_on_c, 3, 61, 100
5, 219840, Note_on_c, 0, 70, 100
5, 219920, Note_on_c, 0, 70, 0
5, 220080, Note_on_c, 3, 61, 0
5, 220160, Note_on_c, 0, 69, 100
5, 220480, Note_on_c, 3, 60, 100
5, 220480, Note_on_c, 3, 61, 100
5, 220720, Note_on_c, 0, 69, 0
5, 220720, Note_on_c, 3, 60, 0
5, 220720, Note_on_c, 3, 61, 0
5, 220800, Note_on_c, 3, 60, 100
5, 220800, Note_on_c, 3, 61, 100
5, 220800, Note_on_c, 0, 69, 100
5, 221040, Note_on_c, 3, 60, 0
5, 221040, Note_on_c, 3, 61, 0
5, 221360, Note_on_c, 0, 69, 0
5, 221440, Note_on_c, 3, 60, 100
5, 221440, Note_on_c, 3, 61, 100
5, 221440, Note_on_c, 0, 69, 100
5, 221600, Note_on_c, 0, 69, 0
5, 221680, Note_on_c, 3, 60, 0
5, 221680, Note_on_c, 3, 61, 0
5, 221760, Note_on_c, 3, 61, 100
5, 221760, Note_on_c, 0, 70, 100
5, 222000, Note_on_c, 3, 61, 0
5, 222080, Note_on_c, 3, 61, 100
5, 222320, Note_on_c, 3, 61, 0
5, 222400, Note_on_c, 0, 70, 0
5, 222400, Note_on_c, 3, 61, 100
5, 222400, Note_on_c, 0, 69, 100
5, 222560, Note_on_c, 0, 69, 0
5, 222640, Note_on_c, 3, 61, 0
5, 222720, Note_on_c, 3, 60, 100
5, 222720, Note_on_c, 3, 61, 100
5, 222720, Note_on_c, 0, 70, 100
5, 222880, Note_on_c, 0, 70, 0
5, 222960, Note_on_c, 3, 60, 0
5, 222960, Note_on_c, 3, 61, 0
5, 223200, Note_on_c, 3, 61, 100
5, 223360, Note_on_c, 3, 61, 0
5, 223360, Note_on_c, 3, 60, 100
5, 223360, Note_on_c, 3, 61, 100
5, 223360, Note_on_c, 0, 70, 100
5, 223600, Note_on_c, 3, 60, 0
5, 223600, Note_on_c, 3, 61, 0
5, 223680, Note_on_c, 3, 61, 100
5, 223920, Note_on_c, 3, 61, 0
5, 224320, Note_on_c, 3, 60, 100
5, 224320, Note_on_c, 3, 61, 100
5, 224560, Note_on_c, 3, 60, 0
5, 224560, Note_on_c, 3, 61, 0
5, 224640, Note_on_c, 3, 60, 100
5, 224640, Note_on_c, 3, 61, 100
5, 224880, Note_on_c, 3, 60, 0
5, 224880, Note_on_c, 3, 61, 0
5, 225160, Note_on_c, 0, 70, 0
5, 225280, Note_on_c, 3, 60, 100
5, 225280, Note_on_c, 3, 61, 100
5, 225280, Note_on_c, 0, 70, 100
5, 225520, Note_on_c, 3, 60, 0
5, 225520, Note_on_c, 3, 61, 0
5, 225600, Note_on_c, 3, 61, 100
5, 225840, Note_on_c, 3, 61, 0
5, 225880, Note_on_c, 0, 70, 0
5, 225920, Note_on_c, 3, 61, 100
5, 225920, Note_on_c, 0, 69, 100
5, 226000, Note_on_c, 0, 69, 0
5, 226160, Note_on_c, 3, 61, 0
5, 226160, Note_on_c, 0, 69, 100
5, 226240, Note_on_c, 0, 69, 0
5, 226240, Note_on_c, 3, 61, 100
5, 226400, Note_on_c, 0, 69, 100
5, 226480, Note_on_c, 3, 61, 0
5, 226480, Note_on_c, 0, 69, 0
5, 226560, Note_on_c, 3, 60, 100
5, 226560, Note_on_c, 3, 61, 100
5, 226560, Note_on_c, 0, 70, 100
5, 226720, Note_on_c, 0, 70, 0
5, 226800, Note_on_c, 3, 60, 0
5, 226800, Note_on_c, 3, 61, 0
5, 226880, Note_on_c, 0, 68, 100
5, 227040, Note_on_c, 0, 68, 0
5, 227200, Note_on_c, 3, 60, 100
5, 227200, Note_on_c, 3, 61, 100
5, 227440, Note_on_c, 3, 60, 0
5, 227440, Note_on_c, 3, 61, 0
5, 227520, Note_on_c, 3, 61, 100
5, 227520, Note_on_c, 0, 68, 100
5, 227626, Note_on_c, 0, 68, 0
5, 227760, Note_on_c, 3, 61, 0
5, 228160, Note_on_c, 3, 61, 100
5, 228162, Note_on_c, 0, 68, 100
5, 228242, Note_on_c, 0, 68, 0
5, 228400, Note_on_c, 3, 61, 0
5, 228480, Note_on_c, 3, 60, 100
5, 228480, Note_on_c, 3, 61, 100
5, 228480, Note_on_c, 0, 70, 100
5, 228586, Note_on_c, 0, 70, 0
5, 228720, Note_on_c, 3, 60, 0
5, 228720, Note_on_c, 3, 61, 0
5, 228800, Note_on_c, 0, 69, 100
5, 228960, Note_on_c, 0, 69, 0
5, 229120, Note_on_c, 3, 60, 100
5, 229120, Note_on_c, 3, 61, 100
5, 229360, Note_on_c, 3, 60, 0
5, 229360, Note_on_c, 3, 61, 0
5, 229440, Note_on_c, 3, 61, 100
5, 229440, Note_on_c, 0, 70, 100
5, 229546, Note_on_c, 0, 70, 0
5, 229680, Note_on_c, 3, 61, 0
5, 229760, Note_on_c, 3, 61, 100
5, 230000, Note_on_c, 3, 61, 0
5, 230080, Note_on_c, 3, 61, 100
5, 230320, Note_on_c, 3, 61, 0
5, 230400, Note_on_c, 3, 60, 100
5, 230400, Note_on_c, 3, 61, 100
5, 230400, Note_on_c, 0, 68, 100
5, 230506, Note_on_c, 0, 68, 0
5, 230640, Note_on_c, 3, 60, 0
5, 230640, Note_on_c, 3, 61, 0
5, 230800, Note_on_c, 0, 69, 100
5, 230880, Note_on_c, 0, 69, 0
5, 231040, Note_on_c, 3, 60, 100
5, 231040, Note_on_c, 3, 61, 100
5, 231120, Note_on_c, 0, 70, 100
5, 231200, Note_on_c, 0, 70, 0
5, 231280, Note_on_c, 3, 60, 0
5, 231280, Note_on_c, 3, 61, 0
5, 231360, Note_on_c, 3, 61, 100
5, 231360, Note_on_c, 0, 69, 100
5, 231440, Note_on_c, 0, 69, 0
5, 231520, Note_on_c, 0, 68, 100
5, 231600, Note_on_c, 3, 61, 0
5, 231602, Note_on_c, 0, 68, 0
5, 231840, Note_on_c, 0, 70, 100
5, 231922, Note_on_c, 0, 70, 0
5, 232000, Note_on_c, 3, 61, 100
5, 232120, Note_on_c, 0, 69, 100
5, 232240, Note_on_c, 3, 61, 0
5, 232240, Note_on_c, 0, 69, 0
5, 232320, Note_on_c, 3, 60, 100
5, 232320, Note_on_c, 3, 61, 100
5, 232320, Note_on_c, 0, 70, 100
5, 232426, Note_on_c, 0, 70, 0
5, 232560, Note_on_c, 3, 60, 0
5, 232560, Note_on_c, 3, 61, 0
5, 232560, Note_on_c, 0, 69, 100
5, 232668, Note_on_c, 0, 69, 0
5, 232800, Note_on_c, 0, 68, 100
5, 232880, Note_on_c, 0, 68, 0
5, 232960, Note_on_c, 3, 60, 100
5, 232960, Note_on_c, 3, 61, 100
5, 232960, Note_on_c, 0, 70, 100
5, 233040, Note_on_c, 0, 70, 0
5, 233200, Note_on_c, 3, 60, 0
5, 233200, Note_on_c, 3, 61, 0
5, 233280, Note_on_c, 3, 61, 100
5, 233280, Note_on_c, 0, 69, 100
5, 233388, Note_on_c, 0, 69, 0
5, 233520, Note_on_c, 3, 61, 0
5, 233600, Note_on_c, 3, 61, 100
5, 233600, Note_on_c, 0, 70, 100
5, 233680, Note_on_c, 0, 70, 0
5, 233840, Note_on_c, 3, 61, 0
5, 233920, Note_on_c, 3, 61, 100
5, 233920, Note_on_c, 0, 69, 100
5, 234000, Note_on_c, 0, 69, 0
5, 234160, Note_on_c, 3, 61, 0
5, 234240, Note_on_c, 3, 60, 100
5, 234240, Note_on_c, 3, 61, 100
5, 234240, Note_on_c, 0, 70, 100
5, 234400, Note_on_c, 0, 70, 0
5, 234440, Note_on_c, 0, 69, 100
5, 234480, Note_on_c, 3, 60, 0
5, 234480, Note_on_c, 3, 61, 0
5, 234600, Note_on_c, 0, 69, 0
5, 234880, Note_on_c, 3, 60, 100
5, 234880, Note_on_c, 3, 61, 100
5, 234960, Note_on_c, 0, 68, 100
5, 235120, Note_on_c, 3, 60, 0
5, 235120, Note_on_c, 3, 61, 0
5, 235120, Note_on_c, 0, 68, 0
5, 235120, Note_on_c, 0, 69, 100
5, 235200, Note_on_c, 3, 61, 100
5, 235280, Note_on_c, 0, 69, 0
5, 235440, Note_on_c, 3, 61, 0
5, 235520, Note_on_c, 0, 70, 100
5, 235680, Note_on_c, 0, 70, 0
5, 235840, Note_on_c, 3, 60, 100
5, 235840, Note_on_c, 3, 61, 100
5, 235840, Note_on_c, 0, 68, 100
5, 236000, Note_on_c, 0, 68, 0
5, 236080, Note_on_c, 3, 60, 0
5, 236080, Note_on_c, 3, 61, 0
5, 236100, Note_on_c, 0, 69, 100
5, 236160, Note_on_c, 3, 60, 100
5, 236160, Note_on_c, 3, 61, 100
5, 236206, Note_on_c, 0, 69, 0
5, 236250, Note_on_c, 0, 70, 100
5, 236356, Note_on_c, 0, 70, 0
5, 236400, Note_on_c, 3, 60, 0
5, 236400, Note_on_c, 3, 61, 0
5, 236580, Note_on_c, 0, 68, 100
5, 236688, Note_on_c, 0, 68, 0
5, 236800, Note_on_c, 3, 60, 100
5, 236800, Note_on_c, 3, 61, 100
5, 236850, Note_on_c, 0, 69, 100
5, 236958, Note_on_c, 0, 69, 0
5, 237040, Note_on_c, 3, 60, 0
5, 237040, Note_on_c, 3, 61, 0
5, 237120, Note_on_c, 3, 61, 100
5, 237120, Note_on_c, 0, 70, 100
5, 237200, Note_on_c, 0, 70, 0
5, 237360, Note_on_c, 3, 61, 0
5, 237440, Note_on_c, 3, 61, 100
5, 237440, Note_on_c, 0, 68, 100
5, 237600, Note_on_c, 0, 68, 0
5, 237680, Note_on_c, 3, 61, 0
5, 237760, Note_on_c, 3, 61, 100
5, 237760, Note_on_c, 0, 68, 100
5, 237920, Note_on_c, 0, 68, 0
5, 238000, Note_on_c, 3, 61, 0
5, 238080, Note_on_c, 3, 60, 100
5, 238080, Note_on_c, 3, 61, 100
5, 238080, Note_on_c, 0, 69, 100
5, 238240, Note_on_c, 0, 69, 0
5, 238320, Note_on_c, 3, 60, 0
5, 238320, Note_on_c, 3, 61, 0
5, 238400, Note_on_c, 0, 69, 100
5, 238560, Note_on_c, 0, 69, 0
5, 238720, Note_on_c, 3, 60, 100
5, 238720, Note_on_c, 3, 61, 100
5, 238720, Note_on_c, 0, 69, 100
5, 238880, Note_on_c, 0, 69, 0
5, 238960, Note_on_c, 3, 60, 0
5, 238960, Note_on_c, 3, 61, 0
5, 239040, Note_on_c, 3, 61, 100
5, 239040, Note_on_c, 0, 70, 100
5, 239280, Note_on_c, 3, 61, 0
5, 239360, Note_on_c, 3, 61, 100
5, 239600, Note_on_c, 3, 61, 0
5, 239680, Note_on_c, 3, 60, 100
5, 239680, Note_on_c, 3, 61, 100
5, 239912, Note_on_c, 0, 70, 0
5, 239916, Note_on_c, 3, 60, 0
5, 239916, Note_on_c, 3, 61, 0
5, 239998, Note_on_c, 3, 60, 100
5, 239998, Note_on_c, 3, 61, 100
5, 239998, Note_on_c, 0, 69, 100
5, 240238, Note_on_c, 3, 60, 0
5, 240238, Note_on_c, 3, 61, 0
5, 240556, Note_on_c, 0, 69, 0
5, 240636, Note_on_c, 3, 60, 100
5, 240636, Note_on_c, 3, 61, 100
5, 240636, Note_on_c, 0, 69, 100
5, 240800, Note_on_c, 0, 69, 0
5, 240876, Note_on_c, 3, 60, 0
5, 240876, Note_on_c, 3, 61, 0
5, 240958, Note_on_c, 3, 61, 100
5, 240958, Note_on_c, 0, 68, 100
5, 241116, Note_on_c, 0, 68, 0
5, 241198, Note_on_c, 3, 61, 0
5, 241280, Note_on_c, 3, 61, 100
5, 241280, Note_on_c, 0, 69, 100
5, 241356, Note_on_c, 0, 69, 0
5, 241520, Note_on_c, 3, 61, 0
5, 241596, Note_on_c, 3, 60, 100
5, 241596, Note_on_c, 3, 61, 100
5, 241596, Note_on_c, 0, 68, 100
5, 241678, Note_on_c, 0, 68, 0
5, 241836, Note_on_c, 3, 60, 0
5, 241836, Note_on_c, 3, 61, 0
5, 241920, Note_on_c, 3, 60, 100
5, 241920, Note_on_c, 3, 61, 100
5, 241920, Note_on_c, 0, 70, 100
5, 242160, Note_on_c, 3, 60, 0
5, 242160, Note_on_c, 3, 61, 0
5, 242480, Note_on_c, 0, 70, 0
5, 242560, Note_on_c, 3, 60, 100
5, 242560, Note_on_c, 3, 61, 100
5, 242560, Note_on_c, 0, 68, 100
5, 242720, Note_on_c, 0, 68, 0
5, 242800, Note_on_c, 3, 60, 0
5, 242800, Note_on_c, 3, 61, 0
5, 242880, Note_on_c, 3, 61, 100
5, 242880, Note_on_c, 0, 69, 100
5, 243038, Note_on_c, 0, 69, 0
5, 243120, Note_on_c, 3, 61, 0
5, 243240, Note_on_c, 0, 70, 100
5, 243318, Note_on_c, 0, 70, 0
5, 243520, Note_on_c, 3, 61, 100
5, 243560, Note_on_c, 0, 69, 100
5, 243640, Note_on_c, 0, 69, 0
5, 243760, Note_on_c, 3, 61, 0
5, 243840, Note_on_c, 3, 60, 100
5, 243840, Note_on_c, 3, 61, 100
5, 243840, Note_on_c, 0, 69, 100
5, 243920, Note_on_c, 0, 69, 0
5, 244080, Note_on_c, 3, 60, 0
5, 244080, Note_on_c, 3, 61, 0
5, 244080, Note_on_c, 0, 68, 100
5, 244160, Note_on_c, 0, 68, 0
5, 244480, Note_on_c, 3, 60, 100
5, 244480, Note_on_c, 3, 61, 100
5, 244720, Note_on_c, 3, 60, 0
5, 244720, Note_on_c, 3, 61, 0
5, 244800, Note_on_c, 3, 61, 100
5, 244800, Note_on_c, 0, 70, 100
5, 244958, Note_on_c, 0, 70, 0
5, 245040, Note_on_c, 3, 61, 0
5, 245120, Note_on_c, 3, 61, 100
5, 245120, Note_on_c, 0, 69, 100
5, 245278, Note_on_c, 0, 69, 0
5, 245360, Note_on_c, 3, 61, 0
5, 245438, Note_on_c, 0, 69, 100
5, 245440, Note_on_c, 3, 61, 100
5, 245518, Note_on_c, 0, 69, 0
5, 245680, Note_on_c, 3, 61, 0
5, 245760, Note_on_c, 3, 60, 100
5, 245760, Note_on_c, 3, 61, 100
5, 245760, Note_on_c, 0, 68, 100
5, 245918, Note_on_c, 0, 68, 0
5, 246000, Note_on_c, 3, 60, 0
5, 246000, Note_on_c, 3, 61, 0
5, 246080, Note_on_c, 0, 68, 100
5, 246240, Note_on_c, 0, 68, 0
5, 246398, Note_on_c, 3, 60, 100
5, 246398, Note_on_c, 3, 61, 100
5, 246398, Note_on_c, 0, 70, 100
5, 246560, Note_on_c, 0, 70, 0
5, 246638, Note_on_c, 3, 60, 0
5, 246638, Note_on_c, 3, 61, 0
5, 246720, Note_on_c, 3, 61, 100
5, 246720, Note_on_c, 0, 69, 100
5, 246800, Note_on_c, 0, 69, 0
5, 246960, Note_on_c, 3, 61, 0
5, 247040, Note_on_c, 3, 61, 100
5, 247040, Note_on_c, 0, 68, 100
5, 247200, Note_on_c, 0, 68, 0
5, 247280, Note_on_c, 3, 61, 0
5, 247358, Note_on_c, 3, 60, 100
5, 247358, Note_on_c, 3, 61, 100
5, 247358, Note_on_c, 0, 69, 100
5, 247520, Note_on_c, 0, 69, 0
5, 247598, Note_on_c, 3, 60, 0
5, 247598, Note_on_c, 3, 61, 0
5, 247680, Note_on_c, 3, 61, 100
5, 247680, Note_on_c, 0, 70, 100
5, 247920, Note_on_c, 3, 61, 0
5, 248000, Note_on_c, 3, 60, 100
5, 248000, Note_on_c, 3, 61, 100
5, 248240, Note_on_c, 3, 60, 0
5, 248240, Note_on_c, 3, 61, 0
5, 248318, Note_on_c, 3, 60, 100
5, 248318, Note_on_c, 3, 61, 100
5, 248558, Note_on_c, 3, 60, 0
5, 248558, Note_on_c, 3, 61, 0
5, 248640, Note_on_c, 3, 61, 100
5, 248880, Note_on_c, 3, 61, 0
5, 248960, Note_on_c, 3, 61, 100
5, 248960, Note_on_c, 3, 60, 100
5, 249200, Note_on_c, 3, 61, 0
5, 249200, Note_on_c, 3, 60, 0
5, 249278, Note_on_c, 3, 61, 100
5, 249518, Note_on_c, 0, 70, 0
5, 249518, Note_on_c, 3, 61, 0
5, 249600, Note_on_c, 3, 60, 100
5, 249600, Note_on_c, 3, 61, 100
5, 249840, Note_on_c, 3, 60, 0
5, 249840, Note_on_c, 3, 61, 0
5, 250080, Note_on_c, 3, 61, 100
5, 250238, Note_on_c, 3, 61, 0
5, 250238, Note_on_c, 3, 60, 100
5, 250238, Note_on_c, 3, 61, 100
5, 250478, Note_on_c, 3, 60, 0
5, 250478, Note_on_c, 3, 61, 0
5, 250560, Note_on_c, 3, 61, 100
5, 250800, Note_on_c, 3, 61, 0
5, 251198, Note_on_c, 3, 61, 100
5, 251438, Note_on_c, 3, 61, 0
5, 251520, Note_on_c, 3, 60, 100
5, 251520, Note_on_c, 3, 61, 100
5, 251520, Note_on_c, 0, 69, 100
5, 251760, Note_on_c, 3, 60, 0
5, 251760, Note_on_c, 3, 61, 0
5, 252080, Note_on_c, 0, 69, 0
5, 252158, Note_on_c, 3, 60, 100
5, 252158, Note_on_c, 3, 61, 100
5, 252158, Note_on_c, 0, 70, 100
5, 252278, Note_on_c, 0, 70, 0
5, 252398, Note_on_c, 3, 60, 0
5, 252398, Note_on_c, 3, 61, 0
5, 252480, Note_on_c, 3, 61, 100
5, 252720, Note_on_c, 3, 61, 0
5, 252800, Note_on_c, 3, 61, 100
5, 252800, Note_on_c, 0, 68, 100
5, 252880, Note_on_c, 0, 68, 0
5, 253040, Note_on_c, 3, 61, 0
5, 253118, Note_on_c, 3, 61, 100
5, 253118, Note_on_c, 0, 68, 100
5, 253198, Note_on_c, 0, 68, 0
5, 253358, Note_on_c, 3, 61, 0
5, 253438, Note_on_c, 3, 60, 100
5, 253438, Note_on_c, 3, 61, 100
5, 253438, Note_on_c, 0, 69, 100
5, 253678, Note_on_c, 3, 60, 0
5, 253678, Note_on_c, 3, 61, 0
5, 254078, Note_on_c, 3, 61, 100
5, 254318, Note_on_c, 3, 61, 0
5, 254398, Note_on_c, 3, 61, 100
5, 254638, Note_on_c, 3, 61, 0
5, 255040, Note_on_c, 3, 61, 100
5, 255280, Note_on_c, 3, 61, 0
5, 255356, Note_on_c, 0, 69, 0
5, 255358, Note_on_c, 3, 60, 100
5, 255358, Note_on_c, 3, 61, 100
5, 255598, Note_on_c, 3, 60, 0
5, 255598, Note_on_c, 3, 61, 0
5, 256000, Note_on_c, 3, 61, 100
5, 256240, Note_on_c, 3, 61, 0
5, 256320, Note_on_c, 3, 61, 100
5, 256560, Note_on_c, 3, 61, 0
5, 256638, Note_on_c, 3, 61, 100
5, 256878, Note_on_c, 3, 61, 0
5, 256960, Note_on_c, 3, 61, 100
5, 257200, Note_on_c, 3, 61, 0
5, 257280, Note_on_c, 3, 60, 100
5, 257280, Note_on_c, 3, 61, 100
5, 257280, Note_on_c, 0, 68, 100
5, 257400, Note_on_c, 0, 68, 0
5, 257520, Note_on_c, 3, 60, 0
5, 257520, Note_on_c, 3, 61, 0
5, 257640, Note_on_c, 0, 69, 100
5, 257918, Note_on_c, 3, 60, 100
5, 257918, Note_on_c, 3, 61, 100
5, 258120, Note_on_c, 0, 69, 0
5, 258158, Note_on_c, 3, 60, 0
5, 258158, Note_on_c, 3, 61, 0
5, 258240, Note_on_c, 3, 61, 100
5, 258240, Note_on_c, 0, 69, 100
5, 258480, Note_on_c, 3, 61, 0
5, 258798, Note_on_c, 0, 69, 0
5, 258878, Note_on_c, 3, 61, 100
5, 258960, Note_on_c, 0, 69, 100
5, 259062, Note_on_c, 0, 69, 0
5, 259118, Note_on_c, 3, 61, 0
5, 259200, Note_on_c, 3, 60, 100
5, 259200, Note_on_c, 3, 61, 100
5, 259200, Note_on_c, 0, 70, 100
5, 259280, Note_on_c, 0, 70, 0
5, 259440, Note_on_c, 3, 60, 0
5, 259440, Note_on_c, 3, 61, 0
5, 259838, Note_on_c, 3, 61, 100
5, 260078, Note_on_c, 3, 61, 0
5, 260160, Note_on_c, 3, 61, 100
5, 260160, Note_on_c, 0, 69, 100
5, 260240, Note_on_c, 0, 69, 0
5, 260400, Note_on_c, 3, 61, 0
5, 260480, Note_on_c, 3, 61, 100
5, 260480, Note_on_c, 0, 70, 100
5, 260720, Note_on_c, 3, 61, 0
5, 260798, Note_on_c, 3, 60, 100
5, 260798, Note_on_c, 3, 61, 100
5, 261038, Note_on_c, 0, 70, 0
5, 261038, Note_on_c, 3, 60, 0
5, 261038, Note_on_c, 3, 61, 0
5, 261120, Note_on_c, 3, 60, 100
5, 261120, Note_on_c, 3, 61, 100
5, 261120, Note_on_c, 0, 69, 100
5, 261360, Note_on_c, 3, 60, 0
5, 261360, Note_on_c, 3, 61, 0
5, 261434, Note_on_c, 3, 61, 100
5, 261600, Note_on_c, 3, 61, 100
5, 261602, Note_on_c, 3, 61, 0
5, 261674, Note_on_c, 0, 69, 0
5, 261752, Note_on_c, 3, 61, 0
5, 261758, Note_on_c, 3, 60, 100
5, 261758, Note_on_c, 3, 61, 100
5, 261758, Note_on_c, 0, 69, 100
5, 261838, Note_on_c, 0, 69, 0
5, 261998, Note_on_c, 3, 60, 0
5, 261998, Note_on_c, 3, 61, 0
5, 262080, Note_on_c, 3, 61, 100
5, 262080, Note_on_c, 0, 70, 100
5, 262200, Note_on_c, 0, 70, 0
5, 262320, Note_on_c, 3, 61, 0
5, 262400, Note_on_c, 3, 60, 100
5, 262400, Note_on_c, 3, 61, 100
5, 262400, Note_on_c, 0, 69, 100
5, 262480, Note_on_c, 0, 69, 0
5, 262560, Note_on_c, 3, 61, 0
5, 262560, Note_on_c, 3, 61, 100
5, 262640, Note_on_c, 3, 60, 0
5, 262640, Note_on_c, 0, 69, 100
5, 262720, Note_on_c, 3, 61, 0
5, 262720, Note_on_c, 0, 69, 0
5, 262720, Note_on_c, 3, 61, 100
5, 262960, Note_on_c, 3, 61, 0
5, 263040, Note_on_c, 3, 60, 100
5, 263040, Note_on_c, 3, 61, 100
5, 263040, Note_on_c, 0, 70, 100
5, 263160, Note_on_c, 0, 70, 0
5, 263280, Note_on_c, 3, 60, 0
5, 263280, Note_on_c, 3, 61, 0
5, 263360, Note_on_c, 3, 61, 100
5, 263400, Note_on_c, 0, 69, 100
5, 263520, Note_on_c, 3, 61, 0
5, 263520, Note_on_c, 0, 69, 0
5, 263520, Note_on_c, 3, 61, 100
5, 263680, Note_on_c, 3, 61, 0
5, 263680, Note_on_c, 3, 60, 100
5, 263680, Note_on_c, 3, 61, 100
5, 263680, Note_on_c, 0, 69, 100
5, 263762, Note_on_c, 0, 69, 0
5, 263920, Note_on_c, 3, 60, 0
5, 263920, Note_on_c, 3, 61, 0
5, 264000, Note_on_c, 3, 61, 100
5, 264000, Note_on_c, 0, 68, 100
5, 264080, Note_on_c, 0, 68, 0
5, 264240, Note_on_c, 3, 61, 0
5, 264320, Note_on_c, 3, 61, 100
5, 264560, Note_on_c, 3, 61, 0
5, 264640, Note_on_c, 3, 61, 100
5, 264880, Note_on_c, 3, 61, 0
5, 264960, Note_on_c, 3, 60, 100
5, 264960, Note_on_c, 3, 61, 100
5, 265200, Note_on_c, 3, 60, 0
5, 265200, Note_on_c, 3, 61, 0
5, 265600, Note_on_c, 3, 60, 100
5, 265600, Note_on_c, 3, 61, 100
5, 265840, Note_on_c, 3, 60, 0
5, 265840, Note_on_c, 3, 61, 0
5, 265920, Note_on_c, 3, 61, 100
5, 266160, Note_on_c, 3, 61, 0
5, 266560, Note_on_c, 3, 61, 100
5, 266800, Note_on_c, 3, 61, 0
5, 266800, Note_on_c, 0, 70, 100
5, 266880, Note_on_c, 3, 60, 100
5, 266880, Note_on_c, 3, 61, 100
5, 266920, Note_on_c, 0, 70, 0
5, 267120, Note_on_c, 3, 60, 0
5, 267120, Note_on_c, 3, 61, 0
5, 267520, Note_on_c, 3, 61, 100
5, 267520, Note_on_c, 0, 69, 100
5, 267640, Note_on_c, 0, 69, 0
5, 267760, Note_on_c, 3, 61, 0
5, 267840, Note_on_c, 3, 61, 100
5, 268080, Note_on_c, 3, 61, 0
5, 268160, Note_on_c, 3, 61, 100
5, 268160, Note_on_c, 0, 68, 100
5, 268266, Note_on_c, 0, 68, 0
5, 268400, Note_on_c, 3, 61, 0
5, 268480, Note_on_c, 3, 60, 100
5, 268480, Note_on_c, 3, 61, 100
5, 268480, Note_on_c, 0, 68, 100
5, 268588, Note_on_c, 0, 68, 0
5, 268720, Note_on_c, 3, 60, 0
5, 268720, Note_on_c, 3, 61, 0
5, 268720, Note_on_c, 0, 68, 100
5, 268800, Note_on_c, 3, 60, 100
5, 268800, Note_on_c, 3, 61, 100
5, 269040, Note_on_c, 3, 60, 0
5, 269040, Note_on_c, 3, 61, 0
5, 269440, Note_on_c, 3, 60, 100
5, 269440, Note_on_c, 3, 61, 100
5, 269634, Note_on_c, 0, 68, 0
5, 269680, Note_on_c, 3, 60, 0
5, 269680, Note_on_c, 3, 61, 0
5, 269760, Note_on_c, 3, 61, 100
5, 269760, Note_on_c, 0, 68, 100
5, 269866, Note_on_c, 0, 68, 0
5, 270000, Note_on_c, 3, 61, 0
5, 270400, Note_on_c, 3, 61, 100
5, 270640, Note_on_c, 3, 61, 0
5, 270720, Note_on_c, 3, 60, 100
5, 270720, Note_on_c, 3, 61, 100
5, 270960, Note_on_c, 3, 60, 0
5, 270960, Note_on_c, 3, 61, 0
5, 271360, Note_on_c, 3, 60, 100
5, 271360, Note_on_c, 3, 61, 100
5, 271600, Note_on_c, 3, 60, 0
5, 271600, Note_on_c, 3, 61, 0
5, 271680, Note_on_c, 3, 61, 100
5, 271920, Note_on_c, 3, 61, 0
5, 272000, Note_on_c, 3, 61, 100
5, 272240, Note_on_c, 3, 61, 0
5, 272320, Note_on_c, 3, 61, 100
5, 272560, Note_on_c, 3, 61, 0
5, 272640, Note_on_c, 3, 60, 100
5, 272640, Note_on_c, 3, 61, 100
5, 272640, Note_on_c, 0, 68, 100
5, 272720, Note_on_c, 0, 68, 0
5, 272880, Note_on_c, 3, 60, 0
5, 272880, Note_on_c, 3, 61, 0
5, 273000, Note_on_c, 0, 69, 100
5, 273280, Note_on_c, 3, 60, 100
5, 273280, Note_on_c, 3, 61, 100
5, 273520, Note_on_c, 3, 60, 0
5, 273520, Note_on_c, 3, 61, 0
5, 273600, Note_on_c, 3, 61, 100
5, 273840, Note_on_c, 3, 61, 0
5, 274240, Note_on_c, 3, 61, 100
5, 274394, Note_on_c, 0, 69, 0
5, 274480, Note_on_c, 3, 61, 0
5, 274560, Note_on_c, 3, 60, 100
5, 274560, Note_on_c, 3, 61, 100
5, 274560, Note_on_c, 0, 69, 100
5, 274800, Note_on_c, 3, 60, 0
5, 274800, Note_on_c, 3, 61, 0
5, 275200, Note_on_c, 3, 60, 100
5, 275200, Note_on_c, 3, 61, 100
5, 275440, Note_on_c, 0, 69, 0
5, 275440, Note_on_c, 3, 60, 0
5, 275440, Note_on_c, 3, 61, 0
5, 275520, Note_on_c, 3, 61, 100
5, 275520, Note_on_c, 0, 70, 100
5, 275760, Note_on_c, 3, 61, 0
5, 275840, Note_on_c, 3, 61, 100
5, 276080, Note_on_c, 3, 61, 0
5, 276160, Note_on_c, 3, 61, 100
5, 276350, Note_on_c, 0, 70, 0
5, 276400, Note_on_c, 3, 61, 0
5, 276480, Note_on_c, 3, 60, 100
5, 276480, Note_on_c, 3, 61, 100
5, 276480, Note_on_c, 0, 70, 100
5, 276560, Note_on_c, 0, 70, 0
5, 276720, Note_on_c, 3, 60, 0
5, 276720, Note_on_c, 3, 61, 0
5, 276720, Note_on_c, 0, 69, 100
5, 277120, Note_on_c, 3, 60, 100
5, 277120, Note_on_c, 3, 61, 100
5, 277354, Note_on_c, 0, 69, 0
5, 277360, Note_on_c, 3, 60, 0
5, 277360, Note_on_c, 3, 61, 0
5, 277440, Note_on_c, 3, 61, 100
5, 277440, Note_on_c, 0, 70, 100
5, 277520, Note_on_c, 0, 70, 0
5, 277680, Note_on_c, 3, 61, 0
5, 277760, Note_on_c, 0, 69, 100
5, 277840, Note_on_c, 0, 69, 0
5, 278040, Note_on_c, 0, 68, 100
5, 278080, Note_on_c, 3, 60, 100
5, 278080, Note_on_c, 3, 61, 100
5, 278160, Note_on_c, 0, 68, 0
5, 278280, Note_on_c, 0, 70, 100
5, 278320, Note_on_c, 3, 60, 0
5, 278320, Note_on_c, 3, 61, 0
5, 278400, Note_on_c, 0, 70, 0
5, 278400, Note_on_c, 3, 60, 100
5, 278400, Note_on_c, 3, 61, 100
5, 278480, Note_on_c, 0, 70, 100
5, 278640, Note_on_c, 3, 60, 0
5, 278640, Note_on_c, 3, 61, 0
5, 279036, Note_on_c, 0, 70, 0
5, 279040, Note_on_c, 3, 60, 100
5, 279040, Note_on_c, 3, 61, 100
5, 279120, Note_on_c, 0, 69, 100
5, 279200, Note_on_c, 0, 69, 0
5, 279280, Note_on_c, 3, 60, 0
5, 279280, Note_on_c, 3, 61, 0
5, 279360, Note_on_c, 3, 61, 100
5, 279360, Note_on_c, 0, 68, 100
5, 279440, Note_on_c, 0, 68, 0
5, 279600, Note_on_c, 3, 61, 0
5, 279680, Note_on_c, 3, 60, 100
5, 279680, Note_on_c, 3, 61, 100
5, 279920, Note_on_c, 3, 60, 0
5, 279920, Note_on_c, 3, 61, 0
5, 280000, Note_on_c, 3, 61, 100
5, 280240, Note_on_c, 3, 61, 0
5, 280320, Note_on_c, 3, 60, 100
5, 280320, Note_on_c, 3, 61, 100
5, 280560, Note_on_c, 3, 60, 0
5, 280560, Note_on_c, 3, 61, 0
5, 280960, Note_on_c, 3, 60, 100
5, 280960, Note_on_c, 3, 61, 100
5, 281200, Note_on_c, 3, 60, 0
5, 281200, Note_on_c, 3, 61, 0
5, 281280, Note_on_c, 3, 61, 100
5, 281520, Note_on_c, 3, 61, 0
5, 281920, Note_on_c, 3, 61, 100
5, 282160, Note_on_c, 3, 61, 0
5, 282240, Note_on_c, 3, 60, 100
5, 282240, Note_on_c, 3, 61, 100
5, 282480, Note_on_c, 3, 60, 0
5, 282480, Note_on_c, 3, 61, 0
5, 282880, Note_on_c, 3, 61, 100
5, 283040, Note_on_c, 0, 70, 100
5, 283120, Note_on_c, 3, 61, 0
5, 283200, Note_on_c, 3, 61, 100
5, 283440, Note_on_c, 3, 61, 0
5, 283520, Note_on_c, 3, 60, 100
5, 283520, Note_on_c, 3, 61, 100
5, 283760, Note_on_c, 3, 60, 0
5, 283760, Note_on_c, 3, 61, 0
5, 283766, Note_on_c, 0, 70, 0
5, 283840, Note_on_c, 3, 60, 100
5, 283840, Note_on_c, 3, 61, 100
5, 283840, Note_on_c, 0, 69, 100
5, 284000, Note_on_c, 0, 69, 0
5, 284080, Note_on_c, 3, 60, 0
5, 284080, Note_on_c, 3, 61, 0
5, 284160, Note_on_c, 3, 60, 100
5, 284160, Note_on_c, 3, 61, 100
5, 284160, Note_on_c, 0, 68, 100
5, 284320, Note_on_c, 0, 68, 0
5, 284400, Note_on_c, 3, 60, 0
5, 284400, Note_on_c, 3, 61, 0
5, 288640, Note_on_c, 3, 60, 100
5, 288640, Note_on_c, 3, 61, 100
5, 288640, Note_on_c, 0, 69, 100
5, 288800, Note_on_c, 0, 69, 0
5, 288880, Note_on_c, 3, 60, 0
5, 288880, Note_on_c, 3, 61, 0
5, 288960, Note_on_c, 3, 61, 100
5, 288960, Note_on_c, 0, 68, 100
5, 289200, Note_on_c, 3, 61, 0
5, 289280, Note_on_c, 3, 61, 100
5, 289520, Note_on_c, 3, 61, 0
5, 289522, Note_on_c, 0, 68, 0
5, 289600, Note_on_c, 3, 61, 100
5, 289600, Note_on_c, 0, 69, 100
5, 289760, Note_on_c, 0, 69, 0
5, 289840, Note_on_c, 3, 61, 0
5, 289920, Note_on_c, 3, 61, 100
5, 289920, Note_on_c, 0, 68, 100
5, 290080, Note_on_c, 0, 68, 0
5, 290160, Note_on_c, 3, 61, 0
5, 290240, Note_on_c, 3, 60, 100
5, 290480, Note_on_c, 3, 60, 0
5, 290560, Note_on_c, 3, 61, 100
5, 290560, Note_on_c, 0, 69, 100
5, 290720, Note_on_c, 0, 69, 0
5, 290800, Note_on_c, 3, 61, 0
5, 290880, Note_on_c, 3, 61, 100
5, 290880, Note_on_c, 0, 69, 100
5, 291120, Note_on_c, 3, 61, 0
5, 291200, Note_on_c, 3, 61, 100
5, 291440, Note_on_c, 0, 69, 0
5, 291440, Note_on_c, 3, 61, 0
5, 291520, Note_on_c, 3, 60, 100
5, 291520, Note_on_c, 3, 61, 100
5, 291520, Note_on_c, 0, 70, 100
5, 291680, Note_on_c, 0, 70, 0
5, 291760, Note_on_c, 3, 60, 0
5, 291760, Note_on_c, 3, 61, 0
5, 291840, Note_on_c, 3, 61, 100
5, 291840, Note_on_c, 0, 69, 100
5, 291956, Note_on_c, 0, 69, 0
5, 292000, Note_on_c, 3, 60, 100
5, 292080, Note_on_c, 3, 61, 0
5, 292240, Note_on_c, 3, 60, 0
5, 292400, Note_on_c, 0, 69, 100
5, 292508, Note_on_c, 0, 69, 0
5, 292800, Note_on_c, 0, 68, 100
5, 292908, Note_on_c, 0, 68, 0
5, 292960, Note_on_c, 3, 60, 100
5, 292960, Note_on_c, 3, 61, 100
5, 293200, Note_on_c, 3, 60, 0
5, 293200, Note_on_c, 3, 61, 0
5, 293520, Note_on_c, 0, 70, 100
5, 293760, Note_on_c, 3, 60, 100
5, 293760, Note_on_c, 3, 61, 100
5, 294000, Note_on_c, 3, 60, 0
5, 294000, Note_on_c, 3, 61, 0
5, 295200, Note_on_c, 3, 61, 100
5, 295360, Note_on_c, 3, 61, 0
5, 295440, Note_on_c, 0, 70, 0
5, 295520, Note_on_c, 3, 61, 100
5, 295600, Note_on_c, 0, 70, 100
5, 295654, Note_on_c, 0, 70, 0
5, 295680, Note_on_c, 3, 61, 0
5, 295680, Note_on_c, 3, 61, 100
5, 295840, Note_on_c, 3, 61, 0
5, 295920, Note_on_c, 0, 69, 100
5, 295976, Note_on_c, 0, 69, 0
5, 296000, Note_on_c, 3, 61, 100
5, 296160, Note_on_c, 3, 61, 0
5, 296160, Note_on_c, 3, 61, 100
5, 296320, Note_on_c, 3, 61, 0
5, 296400, Note_on_c, 0, 69, 100
5, 296456, Note_on_c, 0, 69, 0
5, 296480, Note_on_c, 3, 61, 100
5, 296640, Note_on_c, 3, 61, 0
5, 296640, Note_on_c, 3, 61, 100
5, 296640, Note_on_c, 0, 69, 100
5, 296800, Note_on_c, 3, 61, 0
5, 296800, Note_on_c, 3, 61, 100
5, 296960, Note_on_c, 3, 61, 0
5, 296960, Note_on_c, 3, 61, 100
5, 297120, Note_on_c, 3, 61, 0
5, 297120, Note_on_c, 3, 61, 100
5, 297280, Note_on_c, 3, 61, 0
5, 297280, Note_on_c, 3, 61, 100
5, 297440, Note_on_c, 3, 61, 0
5, 297440, Note_on_c, 3, 61, 100
5, 297600, Note_on_c, 0, 69, 0
5, 297600, Note_on_c, 3, 61, 0
5, 297600, Note_on_c, 3, 61, 100
5, 297760, Note_on_c, 3, 61, 0
5, 297920, Note_on_c, 3, 61, 100
5, 298080, Note_on_c, 3, 61, 0
5, 298080, Note_on_c, 0, 70, 100
5, 298192, Note_on_c, 0, 70, 0
5, 298240, Note_on_c, 3, 61, 100
5, 298400, Note_on_c, 3, 61, 0
5, 298560, Note_on_c, 3, 61, 100
5, 298720, Note_on_c, 3, 61, 0
5, 298720, Note_on_c, 0, 70, 100
5, 298800, Note_on_c, 0, 70, 0
5, 298880, Note_on_c, 3, 61, 100
5, 299040, Note_on_c, 3, 61, 0
5, 299200, Note_on_c, 3, 61, 100
5, 299200, Note_on_c, 0, 68, 100
5, 299280, Note_on_c, 0, 68, 0
5, 299360, Note_on_c, 3, 61, 0
5, 299480, Note_on_c, 0, 69, 100
5, 299520, Note_on_c, 3, 61, 100
5, 299600, Note_on_c, 0, 69, 0
5, 299680, Note_on_c, 3, 61, 0
5, 299840, Note_on_c, 3, 61, 100
5, 299920, Note_on_c, 0, 69, 100
5, 300000, Note_on_c, 3, 61, 0
5, 300160, Note_on_c, 3, 61, 100
5, 300320, Note_on_c, 3, 61, 0
5, 300480, Note_on_c, 3, 61, 100
5, 300640, Note_on_c, 3, 61, 0
5, 300960, Note_on_c, 3, 61, 100
5, 301120, Note_on_c, 3, 61, 0
5, 301440, Note_on_c, 3, 61, 100
5, 301600, Note_on_c, 3, 61, 0
5, 301920, Note_on_c, 3, 61, 100
5, 302080, Note_on_c, 3, 61, 0
5, 302400, Note_on_c, 3, 61, 100
5, 302560, Note_on_c, 3, 61, 0
5, 303360, Note_on_c, 0, 69, 0
5, 303360, End_track
6, 0, Start_track
6, 0, Title_t, "BAND BASS"
6, 0, Text_t, "sing_off"
6, 0, Text_t, "gtr_off"
6, 0, Text_t, "drum_off"
6, 0, Text_t, "[idle]"
6, 0, Text_t, "gtr_double_tempo"
6, 0, Text_t, "[double_tempo]"
6, 0, Text_t, "[crowd_double_tempo]"
6, 2520, Text_t, "gtr_on"
6, 2520, Text_t, "drum_on"
6, 3840, Text_t, "[play]"
6, 17280, Text_t, "drum_allbeat"
6, 19200, Text_t, "drum_normal"
6, 19200, Text_t, "[solo]"
6, 19200, Text_t, "solo_on"
6, 63356, Text_t, "drum_allbeat"
6, 63946, Text_t, "sing_on"
6, 65280, Text_t, "solo_off"
6, 65280, Text_t, "[verse]"
6, 65280, Text_t, "drum_normal"
6, 72960, Text_t, "sing_off"
6, 79328, Text_t, "sing_on"
6, 88320, Text_t, "sing_off"
6, 95040, Text_t, "sing_on"
6, 103680, Text_t, "sing_off"
6, 109440, Text_t, "drum_allbeat"
6, 110070, Text_t, "sing_on"
6, 111360, Text_t, "drum_normal"
6, 119040, Text_t, "sing_off"
6, 125404, Text_t, "sing_on"
6, 134400, Text_t, "sing_off"
6, 140160, Text_t, "sing_on"
6, 155520, Text_t, "drum_allbeat"
6, 156480, Text_t, "solo_on"
6, 157440, Text_t, "drum_normal"
6, 157440, Text_t, "[solo]"
6, 170880, Text_t, "drum_allbeat"
6, 172800, Text_t, "drum_normal"
6, 247680, Text_t, "drum_allbeat"
6, 248294, Text_t, "sing_on"
6, 249600, Text_t, "drum_normal"
6, 249600, Text_t, "solo_off"
6, 249600, Text_t, "[verse]"
6, 257280, Text_t, "sing_off"
6, 263646, Text_t, "sing_on"
6, 273244, Text_t, "sing_off"
6, 279648, Text_t, "sing_on"
6, 284160, Text_t, "[idle]"
6, 284160, Text_t, "gtr_off"
6, 285120, Text_t, "drum_off"
6, 288000, Text_t, "drum_allbeat"
6, 288616, Text_t, "[play]"
6, 288616, Text_t, "gtr_on"
6, 288616, Text_t, "sing_off "
6, 294720, Text_t, "drum_off"
6, 299520, Text_t, "[idle]"
6, 303360, Text_t, "gtr_off"
6, 306238, Text_t, "[end]"
6, 306238, End_track
7, 0, Start_track
7, 0, Title_t, "BAND SINGER"
7, 0, Text_t, "[idle]"
7, 0, Text_t, "gtr_off"
7, 0, Text_t, "drum_off"
7, 0, Text_t, "bass_off"
7, 0, Text_t, "gtr_double_tempo"
7, 0, Text_t, "[double_tempo]"
7, 0, Text_t, "[crowd_double_tempo]"
7, 2520, Text_t, "gtr_on"
7, 2520, Text_t, "drum_on"
7, 3840, Text_t, "bass_on"
7, 17280, Text_t, "drum_allbeat"
7, 19200, Text_t, "drum_normal"
7, 19200, Text_t, "[solo]"
7, 19200, Text_t, "solo_on"
7, 63356, Text_t, "drum_allbeat"
7, 63946, Text_t, "[play]"
7, 65280, Text_t, "solo_off"
7, 65280, Text_t, "[verse]"
7, 65280, Text_t, "drum_normal"
7, 72960, Text_t, "[idle]"
7, 79328, Text_t, "[play]"
7, 88320, Text_t, "[idle]"
7, 95040, Text_t, "[play]"
7, 103680, Text_t, "[idle]"
7, 109440, Text_t, "drum_allbeat"
7, 110070, Text_t, "[play]"
7, 111360, Text_t, "drum_normal"
7, 119040, Text_t, "[idle]"
7, 125404, Text_t, "[play]"
7, 134400, Text_t, "[idle]"
7, 140160, Text_t, "[play]"
7, 155520, Text_t, "drum_allbeat"
7, 156480, Text_t, "solo_on"
7, 157440, Text_t, "drum_normal"
7, 157440, Text_t, "[solo]"
7, 170880, Text_t, "drum_allbeat"
7, 172800, Text_t, "drum_normal"
7, 247680, Text_t, "drum_allbeat"
7, 248294, Text_t, "[play]"
7, 249600, Text_t, "drum_normal"
7, 249600, Text_t, "solo_off"
7, 249600, Text_t, "[verse]"
7, 257280, Text_t, "[idle]"
7, 263646, Text_t, "[play]"
7, 273244, Text_t, "[idle]"
7, 279648, Text_t, "[play]"
7, 284160, Text_t, "bass_off"
7, 284160, Text_t, "gtr_off"
7, 285120, Text_t, "drum_off"
7, 288000, Text_t, "drum_allbeat"
7, 288616, Text_t, "bass_on"
7, 288616, Text_t, "gtr_on"
7, 288616, Text_t, "sing_off "
7, 294720, Text_t, "drum_off"
7, 299520, Text_t, "bass_off"
7, 303360, Text_t, "gtr_off"
7, 306238, Text_t, "[end]"
7, 306238, End_track
8, 0, Start_track
8, 0, Title_t, "BAND DRUMS"
8, 0, Text_t, "sing_off"
8, 0, Text_t, "gtr_off"
8, 0, Text_t, "[idle]"
8, 0, Text_t, "bass_off"
8, 0, Text_t, "gtr_double_tempo"
8, 0, Text_t, "[double_tempo]"
8, 0, Text_t, "[crowd_double_tempo]"
8, 2520, Text_t, "gtr_on"
8, 2520, Text_t, "[play]"
8, 3840, Text_t, "bass_on"
8, 17280, Text_t, "[allbeat]"
8, 19200, Text_t, "[nobeat]"
8, 19200, Text_t, "[solo]"
8, 19200, Text_t, "solo_on"
8, 63356, Text_t, "[allbeat]"
8, 63946, Text_t, "sing_on"
8, 65280, Text_t, "solo_off"
8, 65280, Text_t, "[verse]"
8, 65280, Text_t, "[nobeat]"
8, 72960, Text_t, "sing_off"
8, 79328, Text_t, "sing_on"
8, 88320, Text_t, "sing_off"
8, 95040, Text_t, "sing_on"
8, 103680, Text_t, "sing_off"
8, 109440, Text_t, "[allbeat]"
8, 110070, Text_t, "sing_on"
8, 111360, Text_t, "[nobeat]"
8, 119040, Text_t, "sing_off"
8, 125404, Text_t, "sing_on"
8, 134400, Text_t, "sing_off"
8, 140160, Text_t, "sing_on"
8, 155520, Text_t, "[allbeat]"
8, 156480, Text_t, "solo_on"
8, 157440, Text_t, "[nobeat]"
8, 157440, Text_t, "[solo]"
8, 170880, Text_t, "[allbeat]"
8, 172800, Text_t, "[nobeat]"
8, 247680, Text_t, "[allbeat]"
8, 248294, Text_t, "sing_on"
8, 249600, Text_t, "[nobeat]"
8, 249600, Text_t, "solo_off"
8, 249600, Text_t, "[verse]"
8, 257280, Text_t, "sing_off"
8, 263646, Text_t, "sing_on"
8, 273244, Text_t, "sing_off"
8, 279648, Text_t, "sing_on"
8, 284160, Text_t, "bass_off"
8, 284160, Text_t, "gtr_off"
8, 285120, Text_t, "[idle]"
8, 288000, Text_t, "[allbeat]"
8, 288616, Text_t, "bass_on"
8, 288616, Text_t, "gtr_on"
8, 288616, Text_t, "sing_off "
8, 294720, Text_t, "[idle]"
8, 299520, Text_t, "bass_off"
8, 303360, Text_t, "gtr_off"
8, 306238, Text_t, "[end]"
8, 306238, End_track
0, 0, End_of_file
