0, 0, Header, 1, 8, 960
1, 0, Start_track
1, 0, Title_t, "eureka"
1, 0, Time_signature, 4, 2, 24, 8
1, 0, Tempo, 409556
1, 23040, Tempo, 413793
1, 30720, Tempo, 408163
1, 46080, Tempo, 410957
1, 53760, Tempo, 408163
1, 72960, Tempo, 410957
1, 76800, Tempo, 413793
1, 84480, Tempo, 408163
1, 88320, Tempo, 405405
1, 111360, Tempo, 408163
1, 119040, Tempo, 405405
1, 138240, Tempo, 400000
1, 145920, Tempo, 405405
1, 149760, Tempo, 408163
1, 153600, Tempo, 416666
1, 157440, Tempo, 422529
1, 161280, Tempo, 410957
1, 165120, Tempo, 405405
1, 184320, Tempo, 408163
1, 192000, Tempo, 405405
1, 199680, Tempo, 408163
1, 207360, Tempo, 405405
1, 211200, Tempo, 408163
1, 215040, Tempo, 402682
1, 218880, Tempo, 408163
1, 238080, Tempo, 410957
1, 241920, Tempo, 413793
1, 249600, Tempo, 410957
1, 268800, Tempo, 409556
1, 272640, Tempo, 408163
1, 280320, Tempo, 410957
1, 284160, Tempo, 413793
1, 291840, Tempo, 409556
1, 307200, Tempo, 408163
1, 318720, Tempo, 410957
1, 337920, Tempo, 400000
1, 341760, Tempo, 402682
1, 349440, Tempo, 410957
1, 357120, Tempo, 413793
1, 364800, Tempo, 405405
1, 372480, Tempo, 410957
1, 380160, Tempo, 402682
1, 387840, Tempo, 405405
1, 391680, Tempo, 408163
1, 395520, Tempo, 410957
1, 403200, Tempo, 413793
1, 410880, Tempo, 415221
1, 410880, End_track
2, 0, Start_track
2, 0, Title_t, "PART GUITAR"
2, 0, Text_t, "[idle]"
2, 0, Text_t, "drum_half"
2, 0, Text_t, "bass_off"
2, 0, Text_t, "sing_off"
2, 1920, Text_t, "drum_normal"
2, 2880, Text_t, "drum_half"
2, 5760, Text_t, "drum_normal"
2, 6720, Text_t, "drum_half"
2, 7650, Note_on_c, 0, 105, 100
2, 7650, Note_on_c, 0, 106, 100
2, 7650, Note_on_c, 0, 93, 100
2, 7650, Note_on_c, 0, 94, 100
2, 7650, Note_on_c, 0, 69, 100
2, 7650, Note_on_c, 0, 70, 100
2, 7650, Note_on_c, 0, 81, 100
2, 7650, Note_on_c, 0, 82, 100
2, 7650, Text_t, "[play]"
2, 8160, Note_on_c, 0, 100, 100
2, 8160, Note_on_c, 0, 87, 100
2, 8160, Note_on_c, 0, 75, 100
2, 8160, Note_on_c, 0, 62, 100
2, 8400, Note_on_c, 0, 100, 0
2, 8400, Note_on_c, 0, 87, 0
2, 8400, Note_on_c, 0, 75, 0
2, 8400, Note_on_c, 0, 62, 0
2, 8640, Note_on_c, 0, 99, 100
2, 8640, Note_on_c, 0, 86, 100
2, 8640, Note_on_c, 0, 74, 100
2, 8880, Note_on_c, 0, 99, 0
2, 8880, Note_on_c, 0, 86, 0
2, 8880, Note_on_c, 0, 74, 0
2, 9120, Note_on_c, 0, 98, 100
2, 9120, Note_on_c, 0, 85, 100
2, 9120, Note_on_c, 0, 73, 100
2, 9360, Note_on_c, 0, 98, 0
2, 9360, Note_on_c, 0, 85, 0
2, 9360, Note_on_c, 0, 73, 0
2, 9600, Text_t, "drum_normal"
2, 9600, Note_on_c, 0, 99, 100
2, 9600, Note_on_c, 0, 87, 100
2, 9600, Note_on_c, 0, 74, 100
2, 9600, Note_on_c, 0, 61, 100
2, 9840, Note_on_c, 0, 99, 0
2, 9840, Note_on_c, 0, 87, 0
2, 9840, Note_on_c, 0, 74, 0
2, 9840, Note_on_c, 0, 61, 0
2, 10080, Note_on_c, 0, 98, 100
2, 10080, Note_on_c, 0, 86, 100
2, 10320, Note_on_c, 0, 98, 0
2, 10320, Note_on_c, 0, 86, 0
2, 10560, Text_t, "drum_half"
2, 10560, Note_on_c, 0, 97, 100
2, 10560, Note_on_c, 0, 85, 100
2, 10560, Note_on_c, 0, 73, 100
2, 10560, Note_on_c, 0, 60, 100
2, 10800, Note_on_c, 0, 97, 0
2, 10800, Note_on_c, 0, 85, 0
2, 10800, Note_on_c, 0, 73, 0
2, 10800, Note_on_c, 0, 60, 0
2, 11040, Note_on_c, 0, 96, 100
2, 11040, Note_on_c, 0, 84, 100
2, 11040, Note_on_c, 0, 72, 100
2, 11280, Note_on_c, 0, 96, 0
2, 11280, Note_on_c, 0, 84, 0
2, 11280, Note_on_c, 0, 72, 0
2, 11490, Note_on_c, 0, 106, 0
2, 11490, Note_on_c, 0, 94, 0
2, 11490, Note_on_c, 0, 70, 0
2, 11490, Note_on_c, 0, 82, 0
2, 11490, Note_on_c, 0, 103, 100
2, 11490, Note_on_c, 0, 91, 100
2, 11490, Note_on_c, 0, 79, 100
2, 11490, Note_on_c, 0, 67, 100
2, 11520, Text_t, "bass_on"
2, 11520, Text_t, "[chorus]"
2, 11520, Note_on_c, 0, 97, 100
2, 11520, Note_on_c, 0, 85, 100
2, 11520, Note_on_c, 0, 74, 100
2, 11520, Note_on_c, 0, 61, 100
2, 11760, Note_on_c, 0, 97, 0
2, 11760, Note_on_c, 0, 85, 0
2, 11760, Note_on_c, 0, 74, 0
2, 11760, Note_on_c, 0, 61, 0
2, 12000, Note_on_c, 0, 99, 100
2, 12000, Note_on_c, 0, 97, 100
2, 12000, Note_on_c, 0, 87, 100
2, 12000, Note_on_c, 0, 85, 100
2, 12000, Note_on_c, 0, 74, 100
2, 12000, Note_on_c, 0, 72, 100
2, 12000, Note_on_c, 0, 61, 100
2, 13440, Text_t, "drum_normal"
2, 14400, Text_t, "drum_half"
2, 14640, Note_on_c, 0, 99, 0
2, 14640, Note_on_c, 0, 97, 0
2, 14640, Note_on_c, 0, 87, 0
2, 14640, Note_on_c, 0, 85, 0
2, 14640, Note_on_c, 0, 74, 0
2, 14640, Note_on_c, 0, 72, 0
2, 14640, Note_on_c, 0, 61, 0
2, 14880, Note_on_c, 0, 96, 100
2, 14880, Note_on_c, 0, 98, 100
2, 14880, Note_on_c, 0, 84, 100
2, 14880, Note_on_c, 0, 86, 100
2, 14880, Note_on_c, 0, 72, 100
2, 14880, Note_on_c, 0, 73, 100
2, 14880, Note_on_c, 0, 60, 100
2, 17280, Text_t, "drum_normal"
2, 18000, Note_on_c, 0, 96, 0
2, 18000, Note_on_c, 0, 98, 0
2, 18000, Note_on_c, 0, 84, 0
2, 18000, Note_on_c, 0, 86, 0
2, 18000, Note_on_c, 0, 72, 0
2, 18000, Note_on_c, 0, 73, 0
2, 18000, Note_on_c, 0, 60, 0
2, 18210, Note_on_c, 0, 103, 0
2, 18210, Note_on_c, 0, 91, 0
2, 18210, Note_on_c, 0, 79, 0
2, 18210, Note_on_c, 0, 67, 0
2, 18240, Text_t, "drum_half"
2, 18240, Note_on_c, 0, 98, 100
2, 18480, Note_on_c, 0, 98, 0
2, 18720, Note_on_c, 0, 98, 100
2, 18720, Note_on_c, 0, 99, 100
2, 18720, Note_on_c, 0, 86, 100
2, 18720, Note_on_c, 0, 87, 100
2, 18720, Note_on_c, 0, 73, 100
2, 18720, Note_on_c, 0, 74, 100
2, 18720, Note_on_c, 0, 61, 100
2, 20880, Note_on_c, 0, 98, 0
2, 20880, Note_on_c, 0, 99, 0
2, 20880, Note_on_c, 0, 86, 0
2, 20880, Note_on_c, 0, 87, 0
2, 20880, Note_on_c, 0, 73, 0
2, 20880, Note_on_c, 0, 74, 0
2, 21120, Text_t, "drum_normal"
2, 21120, Note_on_c, 0, 98, 100
2, 21120, Note_on_c, 0, 99, 100
2, 21120, Note_on_c, 0, 86, 100
2, 21120, Note_on_c, 0, 87, 100
2, 21120, Note_on_c, 0, 73, 100
2, 21120, Note_on_c, 0, 74, 100
2, 21360, Note_on_c, 0, 61, 0
2, 21360, Note_on_c, 0, 98, 0
2, 21360, Note_on_c, 0, 99, 0
2, 21360, Note_on_c, 0, 86, 0
2, 21360, Note_on_c, 0, 87, 0
2, 21360, Note_on_c, 0, 73, 0
2, 21360, Note_on_c, 0, 74, 0
2, 21600, Note_on_c, 0, 100, 100
2, 21600, Note_on_c, 0, 98, 100
2, 21600, Note_on_c, 0, 88, 100
2, 21600, Note_on_c, 0, 86, 100
2, 21600, Note_on_c, 0, 75, 100
2, 21600, Note_on_c, 0, 73, 100
2, 21600, Note_on_c, 0, 62, 100
2, 21840, Note_on_c, 0, 100, 0
2, 21840, Note_on_c, 0, 98, 0
2, 21840, Note_on_c, 0, 88, 0
2, 21840, Note_on_c, 0, 86, 0
2, 21840, Note_on_c, 0, 75, 0
2, 21840, Note_on_c, 0, 73, 0
2, 21840, Note_on_c, 0, 62, 0
2, 22080, Text_t, "drum_half"
2, 22560, Note_on_c, 0, 97, 100
2, 22560, Note_on_c, 0, 99, 100
2, 22560, Note_on_c, 0, 85, 100
2, 22560, Note_on_c, 0, 87, 100
2, 22560, Note_on_c, 0, 72, 100
2, 22560, Note_on_c, 0, 74, 100
2, 22560, Note_on_c, 0, 61, 100
2, 22800, Note_on_c, 0, 97, 0
2, 22800, Note_on_c, 0, 99, 0
2, 22800, Note_on_c, 0, 85, 0
2, 22800, Note_on_c, 0, 87, 0
2, 22800, Note_on_c, 0, 72, 0
2, 22800, Note_on_c, 0, 74, 0
2, 22800, Note_on_c, 0, 61, 0
2, 23010, Note_on_c, 0, 106, 100
2, 23010, Note_on_c, 0, 94, 100
2, 23010, Note_on_c, 0, 70, 100
2, 23010, Note_on_c, 0, 82, 100
2, 23520, Note_on_c, 0, 100, 100
2, 23520, Note_on_c, 0, 87, 100
2, 23520, Note_on_c, 0, 75, 100
2, 23520, Note_on_c, 0, 62, 100
2, 23760, Note_on_c, 0, 100, 0
2, 23760, Note_on_c, 0, 87, 0
2, 23760, Note_on_c, 0, 75, 0
2, 23760, Note_on_c, 0, 62, 0
2, 24000, Note_on_c, 0, 99, 100
2, 24000, Note_on_c, 0, 86, 100
2, 24000, Note_on_c, 0, 74, 100
2, 24240, Note_on_c, 0, 99, 0
2, 24240, Note_on_c, 0, 86, 0
2, 24240, Note_on_c, 0, 74, 0
2, 24480, Note_on_c, 0, 98, 100
2, 24480, Note_on_c, 0, 85, 100
2, 24480, Note_on_c, 0, 73, 100
2, 24720, Note_on_c, 0, 98, 0
2, 24720, Note_on_c, 0, 85, 0
2, 24720, Note_on_c, 0, 73, 0
2, 24960, Text_t, "drum_normal"
2, 24960, Note_on_c, 0, 99, 100
2, 24960, Note_on_c, 0, 87, 100
2, 24960, Note_on_c, 0, 74, 100
2, 24960, Note_on_c, 0, 61, 100
2, 25200, Note_on_c, 0, 99, 0
2, 25200, Note_on_c, 0, 87, 0
2, 25200, Note_on_c, 0, 74, 0
2, 25200, Note_on_c, 0, 61, 0
2, 25440, Note_on_c, 0, 98, 100
2, 25440, Note_on_c, 0, 86, 100
2, 25680, Note_on_c, 0, 98, 0
2, 25680, Note_on_c, 0, 86, 0
2, 25920, Text_t, "drum_half"
2, 25920, Note_on_c, 0, 97, 100
2, 25920, Note_on_c, 0, 85, 100
2, 25920, Note_on_c, 0, 73, 100
2, 25920, Note_on_c, 0, 60, 100
2, 26160, Note_on_c, 0, 97, 0
2, 26160, Note_on_c, 0, 85, 0
2, 26160, Note_on_c, 0, 73, 0
2, 26160, Note_on_c, 0, 60, 0
2, 26400, Note_on_c, 0, 96, 100
2, 26400, Note_on_c, 0, 84, 100
2, 26400, Note_on_c, 0, 72, 100
2, 26640, Note_on_c, 0, 96, 0
2, 26640, Note_on_c, 0, 84, 0
2, 26640, Note_on_c, 0, 72, 0
2, 26850, Note_on_c, 0, 105, 0
2, 26850, Note_on_c, 0, 93, 0
2, 26850, Note_on_c, 0, 69, 0
2, 26850, Note_on_c, 0, 81, 0
2, 26850, Note_on_c, 0, 103, 100
2, 26850, Note_on_c, 0, 91, 100
2, 26850, Note_on_c, 0, 79, 100
2, 26850, Note_on_c, 0, 67, 100
2, 26880, Note_on_c, 0, 97, 100
2, 26880, Note_on_c, 0, 85, 100
2, 26880, Note_on_c, 0, 74, 100
2, 26880, Note_on_c, 0, 61, 100
2, 27120, Note_on_c, 0, 97, 0
2, 27120, Note_on_c, 0, 85, 0
2, 27120, Note_on_c, 0, 74, 0
2, 27120, Note_on_c, 0, 61, 0
2, 27360, Note_on_c, 0, 99, 100
2, 27360, Note_on_c, 0, 97, 100
2, 27360, Note_on_c, 0, 87, 100
2, 27360, Note_on_c, 0, 85, 100
2, 27360, Note_on_c, 0, 74, 100
2, 27360, Note_on_c, 0, 72, 100
2, 27360, Note_on_c, 0, 61, 100
2, 28800, Text_t, "drum_normal"
2, 29760, Text_t, "drum_half"
2, 30000, Note_on_c, 0, 99, 0
2, 30000, Note_on_c, 0, 97, 0
2, 30000, Note_on_c, 0, 87, 0
2, 30000, Note_on_c, 0, 85, 0
2, 30000, Note_on_c, 0, 74, 0
2, 30000, Note_on_c, 0, 72, 0
2, 30000, Note_on_c, 0, 61, 0
2, 30240, Note_on_c, 0, 96, 100
2, 30240, Note_on_c, 0, 98, 100
2, 30240, Note_on_c, 0, 84, 100
2, 30240, Note_on_c, 0, 86, 100
2, 30240, Note_on_c, 0, 72, 100
2, 30240, Note_on_c, 0, 73, 100
2, 30240, Note_on_c, 0, 60, 100
2, 32640, Text_t, "drum_normal"
2, 33360, Note_on_c, 0, 96, 0
2, 33360, Note_on_c, 0, 98, 0
2, 33360, Note_on_c, 0, 84, 0
2, 33360, Note_on_c, 0, 86, 0
2, 33360, Note_on_c, 0, 72, 0
2, 33360, Note_on_c, 0, 73, 0
2, 33360, Note_on_c, 0, 60, 0
2, 33570, Note_on_c, 0, 103, 0
2, 33570, Note_on_c, 0, 91, 0
2, 33570, Note_on_c, 0, 79, 0
2, 33570, Note_on_c, 0, 67, 0
2, 33600, Text_t, "drum_half"
2, 33600, Note_on_c, 0, 98, 100
2, 33840, Note_on_c, 0, 98, 0
2, 34080, Note_on_c, 0, 98, 100
2, 34080, Note_on_c, 0, 99, 100
2, 34080, Note_on_c, 0, 86, 100
2, 34080, Note_on_c, 0, 87, 100
2, 34080, Note_on_c, 0, 73, 100
2, 34080, Note_on_c, 0, 74, 100
2, 34080, Note_on_c, 0, 61, 100
2, 35520, Note_on_c, 0, 98, 0
2, 35520, Note_on_c, 0, 99, 0
2, 35520, Note_on_c, 0, 86, 0
2, 35520, Note_on_c, 0, 87, 0
2, 35520, Note_on_c, 0, 73, 0
2, 35520, Note_on_c, 0, 74, 0
2, 35520, Note_on_c, 0, 99, 100
2, 35520, Note_on_c, 0, 98, 100
2, 35520, Note_on_c, 0, 87, 100
2, 35520, Note_on_c, 0, 86, 100
2, 35520, Note_on_c, 0, 74, 100
2, 35520, Note_on_c, 0, 73, 100
2, 36480, Text_t, "drum_normal"
2, 36480, Note_on_c, 0, 99, 0
2, 36480, Note_on_c, 0, 98, 0
2, 36480, Note_on_c, 0, 87, 0
2, 36480, Note_on_c, 0, 86, 0
2, 36480, Note_on_c, 0, 74, 0
2, 36480, Note_on_c, 0, 73, 0
2, 36480, Note_on_c, 0, 98, 100
2, 36480, Note_on_c, 0, 99, 100
2, 36480, Note_on_c, 0, 86, 100
2, 36480, Note_on_c, 0, 87, 100
2, 36480, Note_on_c, 0, 73, 100
2, 36480, Note_on_c, 0, 74, 100
2, 36720, Note_on_c, 0, 61, 0
2, 36720, Note_on_c, 0, 98, 0
2, 36720, Note_on_c, 0, 99, 0
2, 36720, Note_on_c, 0, 86, 0
2, 36720, Note_on_c, 0, 87, 0
2, 36720, Note_on_c, 0, 73, 0
2, 36720, Note_on_c, 0, 74, 0
2, 36960, Note_on_c, 0, 100, 100
2, 36960, Note_on_c, 0, 98, 100
2, 36960, Note_on_c, 0, 88, 100
2, 36960, Note_on_c, 0, 86, 100
2, 36960, Note_on_c, 0, 75, 100
2, 36960, Note_on_c, 0, 73, 100
2, 36960, Note_on_c, 0, 62, 100
2, 37200, Note_on_c, 0, 100, 0
2, 37200, Note_on_c, 0, 98, 0
2, 37200, Note_on_c, 0, 88, 0
2, 37200, Note_on_c, 0, 86, 0
2, 37200, Note_on_c, 0, 75, 0
2, 37200, Note_on_c, 0, 73, 0
2, 37200, Note_on_c, 0, 62, 0
2, 37440, Text_t, "drum_half"
2, 37920, Note_on_c, 0, 97, 100
2, 37920, Note_on_c, 0, 99, 100
2, 37920, Note_on_c, 0, 85, 100
2, 37920, Note_on_c, 0, 87, 100
2, 37920, Note_on_c, 0, 72, 100
2, 37920, Note_on_c, 0, 74, 100
2, 37920, Note_on_c, 0, 61, 100
2, 38160, Note_on_c, 0, 97, 0
2, 38160, Note_on_c, 0, 99, 0
2, 38160, Note_on_c, 0, 85, 0
2, 38160, Note_on_c, 0, 87, 0
2, 38160, Note_on_c, 0, 72, 0
2, 38160, Note_on_c, 0, 74, 0
2, 38160, Note_on_c, 0, 61, 0
2, 38370, Note_on_c, 0, 105, 100
2, 38370, Note_on_c, 0, 93, 100
2, 38370, Note_on_c, 0, 69, 100
2, 38370, Note_on_c, 0, 81, 100
2, 38880, Note_on_c, 0, 100, 100
2, 38880, Note_on_c, 0, 87, 100
2, 38880, Note_on_c, 0, 75, 100
2, 38880, Note_on_c, 0, 62, 100
2, 39120, Note_on_c, 0, 100, 0
2, 39120, Note_on_c, 0, 87, 0
2, 39120, Note_on_c, 0, 75, 0
2, 39120, Note_on_c, 0, 62, 0
2, 39360, Note_on_c, 0, 99, 100
2, 39360, Note_on_c, 0, 86, 100
2, 39360, Note_on_c, 0, 74, 100
2, 39600, Note_on_c, 0, 99, 0
2, 39600, Note_on_c, 0, 86, 0
2, 39600, Note_on_c, 0, 74, 0
2, 39840, Note_on_c, 0, 98, 100
2, 39840, Note_on_c, 0, 85, 100
2, 39840, Note_on_c, 0, 73, 100
2, 40080, Note_on_c, 0, 98, 0
2, 40080, Note_on_c, 0, 85, 0
2, 40080, Note_on_c, 0, 73, 0
2, 40320, Text_t, "drum_normal"
2, 40320, Note_on_c, 0, 99, 100
2, 40320, Note_on_c, 0, 87, 100
2, 40320, Note_on_c, 0, 74, 100
2, 40320, Note_on_c, 0, 61, 100
2, 40560, Note_on_c, 0, 99, 0
2, 40560, Note_on_c, 0, 87, 0
2, 40560, Note_on_c, 0, 74, 0
2, 40560, Note_on_c, 0, 61, 0
2, 40800, Note_on_c, 0, 98, 100
2, 40800, Note_on_c, 0, 86, 100
2, 41040, Note_on_c, 0, 98, 0
2, 41040, Note_on_c, 0, 86, 0
2, 41250, Note_on_c, 0, 106, 0
2, 41250, Note_on_c, 0, 94, 0
2, 41250, Note_on_c, 0, 70, 0
2, 41250, Note_on_c, 0, 82, 0
2, 41280, Note_on_c, 0, 97, 100
2, 41280, Note_on_c, 0, 85, 100
2, 41280, Note_on_c, 0, 73, 100
2, 41280, Note_on_c, 0, 60, 100
2, 41520, Note_on_c, 0, 97, 0
2, 41520, Note_on_c, 0, 85, 0
2, 41520, Note_on_c, 0, 73, 0
2, 41520, Note_on_c, 0, 60, 0
2, 41760, Note_on_c, 0, 96, 100
2, 41760, Note_on_c, 0, 84, 100
2, 41760, Note_on_c, 0, 72, 100
2, 42000, Note_on_c, 0, 96, 0
2, 42000, Note_on_c, 0, 84, 0
2, 42000, Note_on_c, 0, 72, 0
2, 42240, Note_on_c, 0, 97, 100
2, 42240, Note_on_c, 0, 85, 100
2, 42240, Note_on_c, 0, 74, 100
2, 42240, Note_on_c, 0, 61, 100
2, 42480, Note_on_c, 0, 97, 0
2, 42480, Note_on_c, 0, 85, 0
2, 42480, Note_on_c, 0, 74, 0
2, 42480, Note_on_c, 0, 61, 0
2, 42720, Note_on_c, 0, 99, 100
2, 42720, Note_on_c, 0, 97, 100
2, 42720, Note_on_c, 0, 87, 100
2, 42720, Note_on_c, 0, 85, 100
2, 42720, Note_on_c, 0, 74, 100
2, 42720, Note_on_c, 0, 72, 100
2, 42720, Note_on_c, 0, 61, 100
2, 43200, Note_on_c, 0, 99, 0
2, 43200, Note_on_c, 0, 97, 0
2, 43200, Note_on_c, 0, 87, 0
2, 43200, Note_on_c, 0, 85, 0
2, 43200, Note_on_c, 0, 74, 0
2, 43200, Note_on_c, 0, 72, 0
2, 43200, Note_on_c, 0, 99, 100
2, 43200, Note_on_c, 0, 97, 100
2, 43200, Note_on_c, 0, 87, 100
2, 43200, Note_on_c, 0, 85, 100
2, 43200, Note_on_c, 0, 74, 100
2, 43200, Note_on_c, 0, 72, 100
2, 44160, Note_on_c, 0, 99, 0
2, 44160, Note_on_c, 0, 97, 0
2, 44160, Note_on_c, 0, 87, 0
2, 44160, Note_on_c, 0, 85, 0
2, 44160, Note_on_c, 0, 74, 0
2, 44160, Note_on_c, 0, 72, 0
2, 44160, Note_on_c, 0, 99, 100
2, 44160, Note_on_c, 0, 97, 100
2, 44160, Note_on_c, 0, 87, 100
2, 44160, Note_on_c, 0, 85, 100
2, 44160, Note_on_c, 0, 74, 100
2, 44160, Note_on_c, 0, 72, 100
2, 45360, Note_on_c, 0, 61, 0
2, 45360, Note_on_c, 0, 99, 0
2, 45360, Note_on_c, 0, 97, 0
2, 45360, Note_on_c, 0, 87, 0
2, 45360, Note_on_c, 0, 85, 0
2, 45360, Note_on_c, 0, 74, 0
2, 45360, Note_on_c, 0, 72, 0
2, 45600, Note_on_c, 0, 96, 100
2, 45600, Note_on_c, 0, 98, 100
2, 45600, Note_on_c, 0, 84, 100
2, 45600, Note_on_c, 0, 86, 100
2, 45600, Note_on_c, 0, 72, 100
2, 45600, Note_on_c, 0, 73, 100
2, 45600, Note_on_c, 0, 60, 100
2, 46560, Note_on_c, 0, 96, 0
2, 46560, Note_on_c, 0, 98, 0
2, 46560, Note_on_c, 0, 84, 0
2, 46560, Note_on_c, 0, 86, 0
2, 46560, Note_on_c, 0, 72, 0
2, 46560, Note_on_c, 0, 73, 0
2, 46560, Note_on_c, 0, 98, 100
2, 46560, Note_on_c, 0, 96, 100
2, 46560, Note_on_c, 0, 86, 100
2, 46560, Note_on_c, 0, 84, 100
2, 46560, Note_on_c, 0, 73, 100
2, 46560, Note_on_c, 0, 72, 100
2, 47040, Note_on_c, 0, 98, 0
2, 47040, Note_on_c, 0, 96, 0
2, 47040, Note_on_c, 0, 86, 0
2, 47040, Note_on_c, 0, 84, 0
2, 47040, Note_on_c, 0, 73, 0
2, 47040, Note_on_c, 0, 72, 0
2, 47040, Note_on_c, 0, 98, 100
2, 47040, Note_on_c, 0, 96, 100
2, 47040, Note_on_c, 0, 86, 100
2, 47040, Note_on_c, 0, 84, 100
2, 47040, Note_on_c, 0, 73, 100
2, 47040, Note_on_c, 0, 72, 100
2, 48000, Note_on_c, 0, 98, 0
2, 48000, Note_on_c, 0, 96, 0
2, 48000, Note_on_c, 0, 86, 0
2, 48000, Note_on_c, 0, 84, 0
2, 48000, Note_on_c, 0, 73, 0
2, 48000, Note_on_c, 0, 72, 0
2, 48000, Note_on_c, 0, 98, 100
2, 48000, Note_on_c, 0, 96, 100
2, 48000, Note_on_c, 0, 86, 100
2, 48000, Note_on_c, 0, 84, 100
2, 48000, Note_on_c, 0, 73, 100
2, 48000, Note_on_c, 0, 72, 100
2, 48240, Note_on_c, 0, 98, 0
2, 48240, Note_on_c, 0, 96, 0
2, 48240, Note_on_c, 0, 86, 0
2, 48240, Note_on_c, 0, 84, 0
2, 48240, Note_on_c, 0, 73, 0
2, 48240, Note_on_c, 0, 72, 0
2, 48720, Note_on_c, 0, 60, 0
2, 48960, Note_on_c, 0, 98, 100
2, 49200, Note_on_c, 0, 98, 0
2, 49440, Note_on_c, 0, 98, 100
2, 49440, Note_on_c, 0, 99, 100
2, 49440, Note_on_c, 0, 86, 100
2, 49440, Note_on_c, 0, 87, 100
2, 49440, Note_on_c, 0, 73, 100
2, 49440, Note_on_c, 0, 74, 100
2, 49440, Note_on_c, 0, 61, 100
2, 50880, Note_on_c, 0, 98, 0
2, 50880, Note_on_c, 0, 99, 0
2, 50880, Note_on_c, 0, 86, 0
2, 50880, Note_on_c, 0, 87, 0
2, 50880, Note_on_c, 0, 73, 0
2, 50880, Note_on_c, 0, 74, 0
2, 50880, Note_on_c, 0, 99, 100
2, 50880, Note_on_c, 0, 98, 100
2, 50880, Note_on_c, 0, 87, 100
2, 50880, Note_on_c, 0, 86, 100
2, 50880, Note_on_c, 0, 74, 100
2, 50880, Note_on_c, 0, 73, 100
2, 51840, Note_on_c, 0, 99, 0
2, 51840, Note_on_c, 0, 98, 0
2, 51840, Note_on_c, 0, 87, 0
2, 51840, Note_on_c, 0, 86, 0
2, 51840, Note_on_c, 0, 74, 0
2, 51840, Note_on_c, 0, 73, 0
2, 51840, Note_on_c, 0, 98, 100
2, 51840, Note_on_c, 0, 99, 100
2, 51840, Note_on_c, 0, 86, 100
2, 51840, Note_on_c, 0, 87, 100
2, 51840, Note_on_c, 0, 73, 100
2, 51840, Note_on_c, 0, 74, 100
2, 52080, Note_on_c, 0, 61, 0
2, 52080, Note_on_c, 0, 98, 0
2, 52080, Note_on_c, 0, 99, 0
2, 52080, Note_on_c, 0, 86, 0
2, 52080, Note_on_c, 0, 87, 0
2, 52080, Note_on_c, 0, 73, 0
2, 52080, Note_on_c, 0, 74, 0
2, 52320, Note_on_c, 0, 100, 100
2, 52320, Note_on_c, 0, 98, 100
2, 52320, Note_on_c, 0, 88, 100
2, 52320, Note_on_c, 0, 86, 100
2, 52320, Note_on_c, 0, 75, 100
2, 52320, Note_on_c, 0, 73, 100
2, 52320, Note_on_c, 0, 62, 100
2, 52560, Note_on_c, 0, 100, 0
2, 52560, Note_on_c, 0, 98, 0
2, 52560, Note_on_c, 0, 88, 0
2, 52560, Note_on_c, 0, 86, 0
2, 52560, Note_on_c, 0, 75, 0
2, 52560, Note_on_c, 0, 73, 0
2, 52560, Note_on_c, 0, 62, 0
2, 53280, Note_on_c, 0, 97, 100
2, 53280, Note_on_c, 0, 99, 100
2, 53280, Note_on_c, 0, 85, 100
2, 53280, Note_on_c, 0, 87, 100
2, 53280, Note_on_c, 0, 72, 100
2, 53280, Note_on_c, 0, 74, 100
2, 53280, Note_on_c, 0, 61, 100
2, 53520, Note_on_c, 0, 97, 0
2, 53520, Note_on_c, 0, 99, 0
2, 53520, Note_on_c, 0, 85, 0
2, 53520, Note_on_c, 0, 87, 0
2, 53520, Note_on_c, 0, 72, 0
2, 53520, Note_on_c, 0, 74, 0
2, 53520, Note_on_c, 0, 61, 0
2, 53730, Note_on_c, 0, 106, 100
2, 53730, Note_on_c, 0, 94, 100
2, 53730, Note_on_c, 0, 70, 100
2, 53730, Note_on_c, 0, 82, 100
2, 54240, Note_on_c, 0, 100, 100
2, 54240, Note_on_c, 0, 87, 100
2, 54240, Note_on_c, 0, 75, 100
2, 54240, Note_on_c, 0, 62, 100
2, 54480, Note_on_c, 0, 100, 0
2, 54480, Note_on_c, 0, 87, 0
2, 54480, Note_on_c, 0, 75, 0
2, 54480, Note_on_c, 0, 62, 0
2, 54720, Note_on_c, 0, 99, 100
2, 54720, Note_on_c, 0, 86, 100
2, 54720, Note_on_c, 0, 74, 100
2, 54960, Note_on_c, 0, 99, 0
2, 54960, Note_on_c, 0, 86, 0
2, 54960, Note_on_c, 0, 74, 0
2, 55200, Note_on_c, 0, 98, 100
2, 55200, Note_on_c, 0, 85, 100
2, 55200, Note_on_c, 0, 73, 100
2, 55440, Note_on_c, 0, 98, 0
2, 55440, Note_on_c, 0, 85, 0
2, 55440, Note_on_c, 0, 73, 0
2, 55680, Note_on_c, 0, 99, 100
2, 55680, Note_on_c, 0, 87, 100
2, 55680, Note_on_c, 0, 74, 100
2, 55680, Note_on_c, 0, 61, 100
2, 55920, Note_on_c, 0, 99, 0
2, 55920, Note_on_c, 0, 87, 0
2, 55920, Note_on_c, 0, 74, 0
2, 55920, Note_on_c, 0, 61, 0
2, 56160, Note_on_c, 0, 98, 100
2, 56160, Note_on_c, 0, 86, 100
2, 56400, Note_on_c, 0, 98, 0
2, 56400, Note_on_c, 0, 86, 0
2, 56640, Note_on_c, 0, 97, 100
2, 56640, Note_on_c, 0, 85, 100
2, 56640, Note_on_c, 0, 73, 100
2, 56640, Note_on_c, 0, 60, 100
2, 56880, Note_on_c, 0, 97, 0
2, 56880, Note_on_c, 0, 85, 0
2, 56880, Note_on_c, 0, 73, 0
2, 56880, Note_on_c, 0, 60, 0
2, 57120, Note_on_c, 0, 96, 100
2, 57120, Note_on_c, 0, 84, 100
2, 57120, Note_on_c, 0, 72, 100
2, 57360, Note_on_c, 0, 96, 0
2, 57360, Note_on_c, 0, 84, 0
2, 57360, Note_on_c, 0, 72, 0
2, 57570, Note_on_c, 0, 105, 0
2, 57570, Note_on_c, 0, 93, 0
2, 57570, Note_on_c, 0, 69, 0
2, 57570, Note_on_c, 0, 81, 0
2, 57600, Note_on_c, 0, 97, 100
2, 57600, Note_on_c, 0, 85, 100
2, 57600, Note_on_c, 0, 74, 100
2, 57600, Note_on_c, 0, 61, 100
2, 57840, Note_on_c, 0, 97, 0
2, 57840, Note_on_c, 0, 85, 0
2, 57840, Note_on_c, 0, 74, 0
2, 57840, Note_on_c, 0, 61, 0
2, 58080, Note_on_c, 0, 99, 100
2, 58080, Note_on_c, 0, 97, 100
2, 58080, Note_on_c, 0, 87, 100
2, 58080, Note_on_c, 0, 85, 100
2, 58080, Note_on_c, 0, 74, 100
2, 58080, Note_on_c, 0, 72, 100
2, 58080, Note_on_c, 0, 61, 100
2, 59520, Note_on_c, 0, 99, 0
2, 59520, Note_on_c, 0, 97, 0
2, 59520, Note_on_c, 0, 87, 0
2, 59520, Note_on_c, 0, 85, 0
2, 59520, Note_on_c, 0, 74, 0
2, 59520, Note_on_c, 0, 72, 0
2, 59520, Note_on_c, 0, 99, 100
2, 59520, Note_on_c, 0, 97, 100
2, 59520, Note_on_c, 0, 87, 100
2, 59520, Note_on_c, 0, 85, 100
2, 59520, Note_on_c, 0, 74, 100
2, 59520, Note_on_c, 0, 72, 100
2, 60720, Note_on_c, 0, 61, 0
2, 60720, Note_on_c, 0, 99, 0
2, 60720, Note_on_c, 0, 97, 0
2, 60720, Note_on_c, 0, 87, 0
2, 60720, Note_on_c, 0, 85, 0
2, 60720, Note_on_c, 0, 74, 0
2, 60720, Note_on_c, 0, 72, 0
2, 60960, Note_on_c, 0, 98, 100
2, 60960, Note_on_c, 0, 96, 100
2, 60960, Note_on_c, 0, 86, 100
2, 60960, Note_on_c, 0, 84, 100
2, 60960, Note_on_c, 0, 73, 100
2, 60960, Note_on_c, 0, 72, 100
2, 60960, Note_on_c, 0, 60, 100
2, 61920, Note_on_c, 0, 98, 0
2, 61920, Note_on_c, 0, 96, 0
2, 61920, Note_on_c, 0, 86, 0
2, 61920, Note_on_c, 0, 84, 0
2, 61920, Note_on_c, 0, 73, 0
2, 61920, Note_on_c, 0, 72, 0
2, 61920, Note_on_c, 0, 98, 100
2, 61920, Note_on_c, 0, 96, 100
2, 61920, Note_on_c, 0, 86, 100
2, 61920, Note_on_c, 0, 84, 100
2, 61920, Note_on_c, 0, 73, 100
2, 61920, Note_on_c, 0, 72, 100
2, 62400, Note_on_c, 0, 98, 0
2, 62400, Note_on_c, 0, 96, 0
2, 62400, Note_on_c, 0, 86, 0
2, 62400, Note_on_c, 0, 84, 0
2, 62400, Note_on_c, 0, 73, 0
2, 62400, Note_on_c, 0, 72, 0
2, 62400, Note_on_c, 0, 98, 100
2, 62400, Note_on_c, 0, 96, 100
2, 62400, Note_on_c, 0, 86, 100
2, 62400, Note_on_c, 0, 84, 100
2, 62400, Note_on_c, 0, 73, 100
2, 62400, Note_on_c, 0, 72, 100
2, 63360, Note_on_c, 0, 98, 0
2, 63360, Note_on_c, 0, 96, 0
2, 63360, Note_on_c, 0, 86, 0
2, 63360, Note_on_c, 0, 84, 0
2, 63360, Note_on_c, 0, 73, 0
2, 63360, Note_on_c, 0, 72, 0
2, 63360, Note_on_c, 0, 98, 100
2, 63360, Note_on_c, 0, 96, 100
2, 63360, Note_on_c, 0, 86, 100
2, 63360, Note_on_c, 0, 84, 100
2, 63360, Note_on_c, 0, 73, 100
2, 63360, Note_on_c, 0, 72, 100
2, 63600, Note_on_c, 0, 98, 0
2, 63600, Note_on_c, 0, 96, 0
2, 63600, Note_on_c, 0, 86, 0
2, 63600, Note_on_c, 0, 84, 0
2, 63600, Note_on_c, 0, 73, 0
2, 63600, Note_on_c, 0, 72, 0
2, 64080, Note_on_c, 0, 60, 0
2, 64320, Note_on_c, 0, 98, 100
2, 64560, Note_on_c, 0, 98, 0
2, 64800, Note_on_c, 0, 99, 100
2, 64800, Note_on_c, 0, 98, 100
2, 64800, Note_on_c, 0, 87, 100
2, 64800, Note_on_c, 0, 86, 100
2, 64800, Note_on_c, 0, 74, 100
2, 64800, Note_on_c, 0, 73, 100
2, 64800, Note_on_c, 0, 61, 100
2, 66240, Note_on_c, 0, 99, 0
2, 66240, Note_on_c, 0, 98, 0
2, 66240, Note_on_c, 0, 87, 0
2, 66240, Note_on_c, 0, 86, 0
2, 66240, Note_on_c, 0, 74, 0
2, 66240, Note_on_c, 0, 73, 0
2, 66240, Note_on_c, 0, 99, 100
2, 66240, Note_on_c, 0, 98, 100
2, 66240, Note_on_c, 0, 87, 100
2, 66240, Note_on_c, 0, 86, 100
2, 66240, Note_on_c, 0, 74, 100
2, 66240, Note_on_c, 0, 73, 100
2, 67200, Note_on_c, 0, 99, 0
2, 67200, Note_on_c, 0, 98, 0
2, 67200, Note_on_c, 0, 87, 0
2, 67200, Note_on_c, 0, 86, 0
2, 67200, Note_on_c, 0, 74, 0
2, 67200, Note_on_c, 0, 73, 0
2, 67200, Note_on_c, 0, 98, 100
2, 67200, Note_on_c, 0, 99, 100
2, 67200, Note_on_c, 0, 86, 100
2, 67200, Note_on_c, 0, 87, 100
2, 67200, Note_on_c, 0, 73, 100
2, 67200, Note_on_c, 0, 74, 100
2, 67440, Note_on_c, 0, 61, 0
2, 67440, Note_on_c, 0, 98, 0
2, 67440, Note_on_c, 0, 99, 0
2, 67440, Note_on_c, 0, 86, 0
2, 67440, Note_on_c, 0, 87, 0
2, 67440, Note_on_c, 0, 73, 0
2, 67440, Note_on_c, 0, 74, 0
2, 67680, Note_on_c, 0, 100, 100
2, 67680, Note_on_c, 0, 98, 100
2, 67680, Note_on_c, 0, 88, 100
2, 67680, Note_on_c, 0, 86, 100
2, 67680, Note_on_c, 0, 75, 100
2, 67680, Note_on_c, 0, 73, 100
2, 67680, Note_on_c, 0, 62, 100
2, 67920, Note_on_c, 0, 100, 0
2, 67920, Note_on_c, 0, 98, 0
2, 67920, Note_on_c, 0, 88, 0
2, 67920, Note_on_c, 0, 86, 0
2, 67920, Note_on_c, 0, 75, 0
2, 67920, Note_on_c, 0, 73, 0
2, 67920, Note_on_c, 0, 62, 0
2, 68640, Note_on_c, 0, 97, 100
2, 68640, Note_on_c, 0, 99, 100
2, 68640, Note_on_c, 0, 85, 100
2, 68640, Note_on_c, 0, 87, 100
2, 68640, Note_on_c, 0, 72, 100
2, 68640, Note_on_c, 0, 74, 100
2, 68640, Note_on_c, 0, 61, 100
2, 68880, Note_on_c, 0, 97, 0
2, 68880, Note_on_c, 0, 99, 0
2, 68880, Note_on_c, 0, 85, 0
2, 68880, Note_on_c, 0, 87, 0
2, 68880, Note_on_c, 0, 72, 0
2, 68880, Note_on_c, 0, 74, 0
2, 68880, Note_on_c, 0, 61, 0
2, 69090, Note_on_c, 0, 103, 100
2, 69090, Note_on_c, 0, 91, 100
2, 69090, Note_on_c, 0, 79, 100
2, 69090, Note_on_c, 0, 67, 100
2, 69090, Note_on_c, 0, 105, 100
2, 69090, Note_on_c, 0, 93, 100
2, 69090, Note_on_c, 0, 69, 100
2, 69090, Note_on_c, 0, 81, 100
2, 69600, Note_on_c, 0, 100, 100
2, 69600, Note_on_c, 0, 87, 100
2, 69600, Note_on_c, 0, 75, 100
2, 69600, Note_on_c, 0, 62, 100
2, 69840, Note_on_c, 0, 100, 0
2, 69840, Note_on_c, 0, 87, 0
2, 69840, Note_on_c, 0, 75, 0
2, 69840, Note_on_c, 0, 62, 0
2, 70080, Note_on_c, 0, 99, 100
2, 70080, Note_on_c, 0, 86, 100
2, 70080, Note_on_c, 0, 74, 100
2, 70320, Note_on_c, 0, 99, 0
2, 70320, Note_on_c, 0, 86, 0
2, 70320, Note_on_c, 0, 74, 0
2, 70560, Note_on_c, 0, 98, 100
2, 70560, Note_on_c, 0, 85, 100
2, 70560, Note_on_c, 0, 73, 100
2, 70800, Note_on_c, 0, 98, 0
2, 70800, Note_on_c, 0, 85, 0
2, 70800, Note_on_c, 0, 73, 0
2, 71040, Note_on_c, 0, 99, 100
2, 71040, Note_on_c, 0, 87, 100
2, 71040, Note_on_c, 0, 74, 100
2, 71040, Note_on_c, 0, 61, 100
2, 71280, Note_on_c, 0, 99, 0
2, 71280, Note_on_c, 0, 87, 0
2, 71280, Note_on_c, 0, 74, 0
2, 71280, Note_on_c, 0, 61, 0
2, 71520, Note_on_c, 0, 98, 100
2, 71520, Note_on_c, 0, 86, 100
2, 71760, Note_on_c, 0, 98, 0
2, 71760, Note_on_c, 0, 86, 0
2, 72000, Note_on_c, 0, 97, 100
2, 72000, Note_on_c, 0, 85, 100
2, 72000, Note_on_c, 0, 73, 100
2, 72000, Note_on_c, 0, 60, 100
2, 72240, Note_on_c, 0, 97, 0
2, 72240, Note_on_c, 0, 85, 0
2, 72240, Note_on_c, 0, 73, 0
2, 72240, Note_on_c, 0, 60, 0
2, 72480, Note_on_c, 0, 96, 100
2, 72480, Note_on_c, 0, 84, 100
2, 72480, Note_on_c, 0, 72, 100
2, 72720, Note_on_c, 0, 96, 0
2, 72720, Note_on_c, 0, 84, 0
2, 72720, Note_on_c, 0, 72, 0
2, 72930, Note_on_c, 0, 106, 0
2, 72930, Note_on_c, 0, 94, 0
2, 72930, Note_on_c, 0, 70, 0
2, 72930, Note_on_c, 0, 82, 0
2, 72930, Note_on_c, 0, 103, 0
2, 72930, Note_on_c, 0, 91, 0
2, 72930, Note_on_c, 0, 79, 0
2, 72930, Note_on_c, 0, 67, 0
2, 72960, Text_t, "drum_half"
2, 72960, Text_t, "[verse]"
2, 72960, Note_on_c, 0, 99, 100
2, 72960, Note_on_c, 0, 97, 100
2, 72960, Note_on_c, 0, 87, 100
2, 72960, Note_on_c, 0, 85, 100
2, 72960, Note_on_c, 0, 74, 100
2, 72960, Note_on_c, 0, 72, 100
2, 72960, Note_on_c, 0, 60, 100
2, 73920, Note_on_c, 0, 99, 0
2, 73920, Note_on_c, 0, 97, 0
2, 73920, Note_on_c, 0, 87, 0
2, 73920, Note_on_c, 0, 85, 0
2, 73920, Note_on_c, 0, 74, 0
2, 73920, Note_on_c, 0, 72, 0
2, 73920, Note_on_c, 0, 60, 0
2, 73920, Note_on_c, 0, 99, 100
2, 73920, Note_on_c, 0, 97, 100
2, 73920, Note_on_c, 0, 87, 100
2, 73920, Note_on_c, 0, 85, 100
2, 73920, Note_on_c, 0, 74, 100
2, 73920, Note_on_c, 0, 72, 100
2, 73920, Note_on_c, 0, 60, 100
2, 74160, Note_on_c, 0, 99, 0
2, 74160, Note_on_c, 0, 97, 0
2, 74160, Note_on_c, 0, 87, 0
2, 74160, Note_on_c, 0, 85, 0
2, 74160, Note_on_c, 0, 74, 0
2, 74160, Note_on_c, 0, 72, 0
2, 74160, Note_on_c, 0, 60, 0
2, 74880, Text_t, "drum_normal"
2, 74880, Note_on_c, 0, 97, 100
2, 75120, Note_on_c, 0, 97, 0
2, 75360, Note_on_c, 0, 99, 100
2, 75360, Note_on_c, 0, 97, 100
2, 75360, Note_on_c, 0, 87, 100
2, 75360, Note_on_c, 0, 85, 100
2, 75360, Note_on_c, 0, 74, 100
2, 75360, Note_on_c, 0, 72, 100
2, 75360, Note_on_c, 0, 60, 100
2, 75600, Note_on_c, 0, 99, 0
2, 75600, Note_on_c, 0, 97, 0
2, 75600, Note_on_c, 0, 87, 0
2, 75600, Note_on_c, 0, 85, 0
2, 75600, Note_on_c, 0, 74, 0
2, 75600, Note_on_c, 0, 72, 0
2, 75600, Note_on_c, 0, 60, 0
2, 75840, Text_t, "drum_half"
2, 75840, Note_on_c, 0, 97, 100
2, 76080, Note_on_c, 0, 97, 0
2, 76320, Note_on_c, 0, 99, 100
2, 76320, Note_on_c, 0, 97, 100
2, 76320, Note_on_c, 0, 87, 100
2, 76320, Note_on_c, 0, 85, 100
2, 76320, Note_on_c, 0, 74, 100
2, 76320, Note_on_c, 0, 72, 100
2, 76320, Note_on_c, 0, 60, 100
2, 77760, Note_on_c, 0, 99, 0
2, 77760, Note_on_c, 0, 97, 0
2, 77760, Note_on_c, 0, 87, 0
2, 77760, Note_on_c, 0, 85, 0
2, 77760, Note_on_c, 0, 74, 0
2, 77760, Note_on_c, 0, 72, 0
2, 77760, Note_on_c, 0, 60, 0
2, 78720, Text_t, "drum_normal"
2, 79200, Note_on_c, 0, 108, 100
2, 79680, Text_t, "drum_half"
2, 80160, Note_on_c, 0, 108, 0
2, 80610, Note_on_c, 0, 105, 0
2, 80610, Note_on_c, 0, 93, 0
2, 80610, Note_on_c, 0, 69, 0
2, 80610, Note_on_c, 0, 81, 0
2, 80610, Note_on_c, 0, 106, 100
2, 80610, Note_on_c, 0, 94, 100
2, 80610, Note_on_c, 0, 70, 100
2, 80610, Note_on_c, 0, 82, 100
2, 80640, Note_on_c, 0, 99, 100
2, 80640, Note_on_c, 0, 97, 100
2, 80640, Note_on_c, 0, 87, 100
2, 80640, Note_on_c, 0, 85, 100
2, 80640, Note_on_c, 0, 74, 100
2, 80640, Note_on_c, 0, 72, 100
2, 80640, Note_on_c, 0, 60, 100
2, 81600, Note_on_c, 0, 99, 0
2, 81600, Note_on_c, 0, 97, 0
2, 81600, Note_on_c, 0, 87, 0
2, 81600, Note_on_c, 0, 85, 0
2, 81600, Note_on_c, 0, 74, 0
2, 81600, Note_on_c, 0, 72, 0
2, 81600, Note_on_c, 0, 60, 0
2, 81600, Note_on_c, 0, 99, 100
2, 81600, Note_on_c, 0, 97, 100
2, 81600, Note_on_c, 0, 87, 100
2, 81600, Note_on_c, 0, 85, 100
2, 81600, Note_on_c, 0, 74, 100
2, 81600, Note_on_c, 0, 72, 100
2, 81600, Note_on_c, 0, 60, 100
2, 81840, Note_on_c, 0, 99, 0
2, 81840, Note_on_c, 0, 97, 0
2, 81840, Note_on_c, 0, 87, 0
2, 81840, Note_on_c, 0, 85, 0
2, 81840, Note_on_c, 0, 74, 0
2, 81840, Note_on_c, 0, 72, 0
2, 81840, Note_on_c, 0, 60, 0
2, 82560, Text_t, "drum_normal"
2, 82560, Note_on_c, 0, 97, 100
2, 82800, Note_on_c, 0, 97, 0
2, 83040, Note_on_c, 0, 99, 100
2, 83040, Note_on_c, 0, 97, 100
2, 83040, Note_on_c, 0, 87, 100
2, 83040, Note_on_c, 0, 85, 100
2, 83040, Note_on_c, 0, 74, 100
2, 83040, Note_on_c, 0, 72, 100
2, 83040, Note_on_c, 0, 60, 100
2, 83280, Note_on_c, 0, 99, 0
2, 83280, Note_on_c, 0, 97, 0
2, 83280, Note_on_c, 0, 87, 0
2, 83280, Note_on_c, 0, 85, 0
2, 83280, Note_on_c, 0, 74, 0
2, 83280, Note_on_c, 0, 72, 0
2, 83280, Note_on_c, 0, 60, 0
2, 83520, Text_t, "drum_half"
2, 83520, Note_on_c, 0, 97, 100
2, 83760, Note_on_c, 0, 97, 0
2, 84000, Note_on_c, 0, 99, 100
2, 84000, Note_on_c, 0, 97, 100
2, 84000, Note_on_c, 0, 87, 100
2, 84000, Note_on_c, 0, 85, 100
2, 84000, Note_on_c, 0, 74, 100
2, 84000, Note_on_c, 0, 72, 100
2, 84000, Note_on_c, 0, 60, 100
2, 84480, Text_t, "sing_on"
2, 85440, Note_on_c, 0, 99, 0
2, 85440, Note_on_c, 0, 97, 0
2, 85440, Note_on_c, 0, 87, 0
2, 85440, Note_on_c, 0, 85, 0
2, 85440, Note_on_c, 0, 74, 0
2, 85440, Note_on_c, 0, 72, 0
2, 85440, Note_on_c, 0, 60, 0
2, 85440, Note_on_c, 0, 108, 100
2, 86160, Note_on_c, 0, 108, 0
2, 86400, Text_t, "drum_normal"
2, 86400, Note_on_c, 0, 108, 100
2, 86640, Note_on_c, 0, 108, 0
2, 86880, Note_on_c, 0, 108, 100
2, 87360, Note_on_c, 0, 108, 0
2, 87600, Note_on_c, 0, 108, 100
2, 88080, Note_on_c, 0, 108, 0
2, 88290, Note_on_c, 0, 106, 0
2, 88290, Note_on_c, 0, 94, 0
2, 88290, Note_on_c, 0, 70, 0
2, 88290, Note_on_c, 0, 82, 0
2, 88290, Note_on_c, 0, 105, 100
2, 88290, Note_on_c, 0, 93, 100
2, 88290, Note_on_c, 0, 69, 100
2, 88290, Note_on_c, 0, 81, 100
2, 88320, Note_on_c, 0, 99, 100
2, 88320, Note_on_c, 0, 97, 100
2, 88320, Note_on_c, 0, 87, 100
2, 88320, Note_on_c, 0, 85, 100
2, 88320, Note_on_c, 0, 74, 100
2, 88320, Note_on_c, 0, 72, 100
2, 88320, Note_on_c, 0, 60, 100
2, 88320, Note_on_c, 0, 108, 100
2, 88680, Note_on_c, 0, 108, 0
2, 89040, Note_on_c, 0, 108, 100
2, 89280, Note_on_c, 0, 99, 0
2, 89280, Note_on_c, 0, 97, 0
2, 89280, Note_on_c, 0, 87, 0
2, 89280, Note_on_c, 0, 85, 0
2, 89280, Note_on_c, 0, 74, 0
2, 89280, Note_on_c, 0, 72, 0
2, 89280, Note_on_c, 0, 60, 0
2, 89280, Note_on_c, 0, 99, 100
2, 89280, Note_on_c, 0, 97, 100
2, 89280, Note_on_c, 0, 87, 100
2, 89280, Note_on_c, 0, 85, 100
2, 89280, Note_on_c, 0, 74, 100
2, 89280, Note_on_c, 0, 72, 100
2, 89280, Note_on_c, 0, 60, 100
2, 89520, Note_on_c, 0, 108, 0
2, 89520, Note_on_c, 0, 99, 0
2, 89520, Note_on_c, 0, 97, 0
2, 89520, Note_on_c, 0, 87, 0
2, 89520, Note_on_c, 0, 85, 0
2, 89520, Note_on_c, 0, 74, 0
2, 89520, Note_on_c, 0, 72, 0
2, 89520, Note_on_c, 0, 60, 0
2, 90240, Note_on_c, 0, 97, 100
2, 90480, Note_on_c, 0, 97, 0
2, 90720, Note_on_c, 0, 99, 100
2, 90720, Note_on_c, 0, 97, 100
2, 90720, Note_on_c, 0, 87, 100
2, 90720, Note_on_c, 0, 85, 100
2, 90720, Note_on_c, 0, 74, 100
2, 90720, Note_on_c, 0, 72, 100
2, 90720, Note_on_c, 0, 60, 100
2, 90960, Note_on_c, 0, 99, 0
2, 90960, Note_on_c, 0, 97, 0
2, 90960, Note_on_c, 0, 87, 0
2, 90960, Note_on_c, 0, 85, 0
2, 90960, Note_on_c, 0, 74, 0
2, 90960, Note_on_c, 0, 72, 0
2, 90960, Note_on_c, 0, 60, 0
2, 91200, Note_on_c, 0, 97, 100
2, 91440, Note_on_c, 0, 97, 0
2, 91680, Note_on_c, 0, 99, 100
2, 91680, Note_on_c, 0, 97, 100
2, 91680, Note_on_c, 0, 87, 100
2, 91680, Note_on_c, 0, 85, 100
2, 91680, Note_on_c, 0, 74, 100
2, 91680, Note_on_c, 0, 72, 100
2, 91680, Note_on_c, 0, 60, 100
2, 92640, Note_on_c, 0, 108, 100
2, 92880, Note_on_c, 0, 108, 0
2, 93120, Note_on_c, 0, 99, 0
2, 93120, Note_on_c, 0, 97, 0
2, 93120, Note_on_c, 0, 87, 0
2, 93120, Note_on_c, 0, 85, 0
2, 93120, Note_on_c, 0, 74, 0
2, 93120, Note_on_c, 0, 72, 0
2, 93120, Note_on_c, 0, 60, 0
2, 93120, Note_on_c, 0, 108, 100
2, 93360, Note_on_c, 0, 108, 0
2, 93600, Note_on_c, 0, 108, 100
2, 93840, Note_on_c, 0, 108, 0
2, 94080, Note_on_c, 0, 108, 100
2, 94320, Note_on_c, 0, 108, 0
2, 94560, Note_on_c, 0, 108, 100
2, 95160, Note_on_c, 0, 108, 0
2, 95520, Note_on_c, 0, 108, 100
2, 96000, Note_on_c, 0, 99, 100
2, 96000, Note_on_c, 0, 97, 100
2, 96000, Note_on_c, 0, 87, 100
2, 96000, Note_on_c, 0, 85, 100
2, 96000, Note_on_c, 0, 74, 100
2, 96000, Note_on_c, 0, 72, 100
2, 96000, Note_on_c, 0, 60, 100
2, 96240, Note_on_c, 0, 108, 0
2, 96960, Note_on_c, 0, 99, 0
2, 96960, Note_on_c, 0, 97, 0
2, 96960, Note_on_c, 0, 87, 0
2, 96960, Note_on_c, 0, 85, 0
2, 96960, Note_on_c, 0, 74, 0
2, 96960, Note_on_c, 0, 72, 0
2, 96960, Note_on_c, 0, 60, 0
2, 96960, Note_on_c, 0, 99, 100
2, 96960, Note_on_c, 0, 97, 100
2, 96960, Note_on_c, 0, 87, 100
2, 96960, Note_on_c, 0, 85, 100
2, 96960, Note_on_c, 0, 74, 100
2, 96960, Note_on_c, 0, 72, 100
2, 96960, Note_on_c, 0, 60, 100
2, 97200, Note_on_c, 0, 99, 0
2, 97200, Note_on_c, 0, 97, 0
2, 97200, Note_on_c, 0, 87, 0
2, 97200, Note_on_c, 0, 85, 0
2, 97200, Note_on_c, 0, 74, 0
2, 97200, Note_on_c, 0, 72, 0
2, 97200, Note_on_c, 0, 60, 0
2, 97920, Note_on_c, 0, 97, 100
2, 98160, Note_on_c, 0, 97, 0
2, 98400, Note_on_c, 0, 99, 100
2, 98400, Note_on_c, 0, 97, 100
2, 98400, Note_on_c, 0, 87, 100
2, 98400, Note_on_c, 0, 85, 100
2, 98400, Note_on_c, 0, 74, 100
2, 98400, Note_on_c, 0, 72, 100
2, 98400, Note_on_c, 0, 60, 100
2, 98640, Note_on_c, 0, 99, 0
2, 98640, Note_on_c, 0, 97, 0
2, 98640, Note_on_c, 0, 87, 0
2, 98640, Note_on_c, 0, 85, 0
2, 98640, Note_on_c, 0, 74, 0
2, 98640, Note_on_c, 0, 72, 0
2, 98640, Note_on_c, 0, 60, 0
2, 98880, Note_on_c, 0, 97, 100
2, 99120, Note_on_c, 0, 97, 0
2, 99360, Note_on_c, 0, 99, 100
2, 99360, Note_on_c, 0, 97, 100
2, 99360, Note_on_c, 0, 87, 100
2, 99360, Note_on_c, 0, 85, 100
2, 99360, Note_on_c, 0, 74, 100
2, 99360, Note_on_c, 0, 72, 100
2, 99360, Note_on_c, 0, 60, 100
2, 100320, Note_on_c, 0, 108, 100
2, 100560, Note_on_c, 0, 108, 0
2, 100800, Note_on_c, 0, 99, 0
2, 100800, Note_on_c, 0, 97, 0
2, 100800, Note_on_c, 0, 87, 0
2, 100800, Note_on_c, 0, 85, 0
2, 100800, Note_on_c, 0, 74, 0
2, 100800, Note_on_c, 0, 72, 0
2, 100800, Note_on_c, 0, 60, 0
2, 100800, Note_on_c, 0, 108, 100
2, 101280, Note_on_c, 0, 108, 0
2, 101760, Note_on_c, 0, 108, 100
2, 102240, Note_on_c, 0, 108, 0
2, 102720, Note_on_c, 0, 108, 100
2, 103440, Note_on_c, 0, 108, 0
2, 103650, Note_on_c, 0, 105, 0
2, 103650, Note_on_c, 0, 93, 0
2, 103650, Note_on_c, 0, 69, 0
2, 103650, Note_on_c, 0, 81, 0
2, 103650, Note_on_c, 0, 106, 100
2, 103650, Note_on_c, 0, 94, 100
2, 103650, Note_on_c, 0, 70, 100
2, 103650, Note_on_c, 0, 82, 100
2, 103650, Note_on_c, 0, 67, 100
2, 103650, Note_on_c, 0, 79, 100
2, 103650, Note_on_c, 0, 91, 100
2, 103680, Note_on_c, 0, 100, 100
2, 103680, Note_on_c, 0, 98, 100
2, 103680, Note_on_c, 0, 88, 100
2, 103680, Note_on_c, 0, 86, 100
2, 103680, Note_on_c, 0, 75, 100
2, 103680, Note_on_c, 0, 73, 100
2, 103680, Note_on_c, 0, 61, 100
2, 103680, Note_on_c, 0, 108, 100
2, 103920, Note_on_c, 0, 108, 0
2, 104160, Note_on_c, 0, 108, 100
2, 104640, Note_on_c, 0, 100, 0
2, 104640, Note_on_c, 0, 98, 0
2, 104640, Note_on_c, 0, 88, 0
2, 104640, Note_on_c, 0, 86, 0
2, 104640, Note_on_c, 0, 75, 0
2, 104640, Note_on_c, 0, 73, 0
2, 104640, Note_on_c, 0, 61, 0
2, 104640, Note_on_c, 0, 100, 100
2, 104640, Note_on_c, 0, 98, 100
2, 104640, Note_on_c, 0, 88, 100
2, 104640, Note_on_c, 0, 86, 100
2, 104640, Note_on_c, 0, 75, 100
2, 104640, Note_on_c, 0, 73, 100
2, 104640, Note_on_c, 0, 61, 100
2, 104760, Note_on_c, 0, 108, 0
2, 104880, Note_on_c, 0, 100, 0
2, 104880, Note_on_c, 0, 98, 0
2, 104880, Note_on_c, 0, 88, 0
2, 104880, Note_on_c, 0, 86, 0
2, 104880, Note_on_c, 0, 75, 0
2, 104880, Note_on_c, 0, 73, 0
2, 104880, Note_on_c, 0, 61, 0
2, 105120, Note_on_c, 0, 108, 100
2, 105570, Note_on_c, 0, 103, 100
2, 105600, Note_on_c, 0, 96, 100
2, 105840, Note_on_c, 0, 96, 0
2, 106080, Note_on_c, 0, 98, 100
2, 106080, Note_on_c, 0, 96, 100
2, 106080, Note_on_c, 0, 86, 100
2, 106080, Note_on_c, 0, 84, 100
2, 106080, Note_on_c, 0, 73, 100
2, 106080, Note_on_c, 0, 72, 100
2, 106080, Note_on_c, 0, 60, 100
2, 106320, Note_on_c, 0, 98, 0
2, 106320, Note_on_c, 0, 96, 0
2, 106320, Note_on_c, 0, 86, 0
2, 106320, Note_on_c, 0, 84, 0
2, 106320, Note_on_c, 0, 73, 0
2, 106320, Note_on_c, 0, 72, 0
2, 106320, Note_on_c, 0, 60, 0
2, 106530, Note_on_c, 0, 67, 0
2, 106530, Note_on_c, 0, 79, 0
2, 106530, Note_on_c, 0, 91, 0
2, 106560, Note_on_c, 0, 108, 0
2, 106560, Note_on_c, 0, 96, 100
2, 106800, Note_on_c, 0, 96, 0
2, 107010, Note_on_c, 0, 103, 0
2, 107040, Note_on_c, 0, 100, 100
2, 107040, Note_on_c, 0, 98, 100
2, 107040, Note_on_c, 0, 88, 100
2, 107040, Note_on_c, 0, 86, 100
2, 107040, Note_on_c, 0, 75, 100
2, 107040, Note_on_c, 0, 73, 100
2, 107040, Note_on_c, 0, 61, 100
2, 108480, Note_on_c, 0, 100, 0
2, 108480, Note_on_c, 0, 98, 0
2, 108480, Note_on_c, 0, 88, 0
2, 108480, Note_on_c, 0, 86, 0
2, 108480, Note_on_c, 0, 75, 0
2, 108480, Note_on_c, 0, 73, 0
2, 108480, Note_on_c, 0, 61, 0
2, 108480, Note_on_c, 0, 108, 100
2, 108720, Note_on_c, 0, 108, 0
2, 108960, Note_on_c, 0, 108, 100
2, 109680, Note_on_c, 0, 108, 0
2, 109920, Note_on_c, 0, 108, 100
2, 110240, Note_on_c, 0, 108, 0
2, 110400, Note_on_c, 0, 108, 100
2, 110720, Note_on_c, 0, 108, 0
2, 110880, Note_on_c, 0, 108, 100
2, 111200, Note_on_c, 0, 108, 0
2, 111360, Note_on_c, 0, 99, 100
2, 111360, Note_on_c, 0, 97, 100
2, 111360, Note_on_c, 0, 87, 100
2, 111360, Note_on_c, 0, 85, 100
2, 111360, Note_on_c, 0, 74, 100
2, 111360, Note_on_c, 0, 72, 100
2, 111360, Note_on_c, 0, 60, 100
2, 111360, Note_on_c, 0, 108, 100
2, 111840, Note_on_c, 0, 108, 0
2, 112320, Note_on_c, 0, 99, 0
2, 112320, Note_on_c, 0, 97, 0
2, 112320, Note_on_c, 0, 87, 0
2, 112320, Note_on_c, 0, 85, 0
2, 112320, Note_on_c, 0, 74, 0
2, 112320, Note_on_c, 0, 72, 0
2, 112320, Note_on_c, 0, 60, 0
2, 112320, Note_on_c, 0, 99, 100
2, 112320, Note_on_c, 0, 97, 100
2, 112320, Note_on_c, 0, 87, 100
2, 112320, Note_on_c, 0, 85, 100
2, 112320, Note_on_c, 0, 74, 100
2, 112320, Note_on_c, 0, 72, 100
2, 112320, Note_on_c, 0, 60, 100
2, 112320, Note_on_c, 0, 108, 100
2, 112560, Note_on_c, 0, 99, 0
2, 112560, Note_on_c, 0, 97, 0
2, 112560, Note_on_c, 0, 87, 0
2, 112560, Note_on_c, 0, 85, 0
2, 112560, Note_on_c, 0, 74, 0
2, 112560, Note_on_c, 0, 72, 0
2, 112560, Note_on_c, 0, 60, 0
2, 112800, Note_on_c, 0, 108, 0
2, 113280, Note_on_c, 0, 97, 100
2, 113280, Note_on_c, 0, 108, 100
2, 113520, Note_on_c, 0, 97, 0
2, 113600, Note_on_c, 0, 108, 0
2, 113760, Note_on_c, 0, 99, 100
2, 113760, Note_on_c, 0, 97, 100
2, 113760, Note_on_c, 0, 87, 100
2, 113760, Note_on_c, 0, 85, 100
2, 113760, Note_on_c, 0, 74, 100
2, 113760, Note_on_c, 0, 72, 100
2, 113760, Note_on_c, 0, 60, 100
2, 113760, Note_on_c, 0, 108, 100
2, 114000, Note_on_c, 0, 99, 0
2, 114000, Note_on_c, 0, 97, 0
2, 114000, Note_on_c, 0, 87, 0
2, 114000, Note_on_c, 0, 85, 0
2, 114000, Note_on_c, 0, 74, 0
2, 114000, Note_on_c, 0, 72, 0
2, 114000, Note_on_c, 0, 60, 0
2, 114240, Note_on_c, 0, 108, 0
2, 114240, Note_on_c, 0, 97, 100
2, 114480, Note_on_c, 0, 97, 0
2, 114720, Note_on_c, 0, 99, 100
2, 114720, Note_on_c, 0, 97, 100
2, 114720, Note_on_c, 0, 87, 100
2, 114720, Note_on_c, 0, 85, 100
2, 114720, Note_on_c, 0, 74, 100
2, 114720, Note_on_c, 0, 72, 100
2, 114720, Note_on_c, 0, 60, 100
2, 114720, Note_on_c, 0, 108, 100
2, 115680, Note_on_c, 0, 108, 0
2, 116160, Note_on_c, 0, 99, 0
2, 116160, Note_on_c, 0, 97, 0
2, 116160, Note_on_c, 0, 87, 0
2, 116160, Note_on_c, 0, 85, 0
2, 116160, Note_on_c, 0, 74, 0
2, 116160, Note_on_c, 0, 72, 0
2, 116160, Note_on_c, 0, 60, 0
2, 117600, Note_on_c, 0, 108, 100
2, 118320, Note_on_c, 0, 108, 0
2, 118560, Note_on_c, 0, 108, 100
2, 118800, Note_on_c, 0, 108, 0
2, 119010, Note_on_c, 0, 106, 0
2, 119010, Note_on_c, 0, 94, 0
2, 119010, Note_on_c, 0, 70, 0
2, 119010, Note_on_c, 0, 82, 0
2, 119010, Note_on_c, 0, 105, 100
2, 119010, Note_on_c, 0, 93, 100
2, 119010, Note_on_c, 0, 69, 100
2, 119010, Note_on_c, 0, 81, 100
2, 119040, Note_on_c, 0, 100, 100
2, 119040, Note_on_c, 0, 99, 100
2, 119040, Note_on_c, 0, 88, 100
2, 119040, Note_on_c, 0, 87, 100
2, 119040, Note_on_c, 0, 75, 100
2, 119040, Note_on_c, 0, 74, 100
2, 119040, Note_on_c, 0, 62, 100
2, 119040, Note_on_c, 0, 108, 100
2, 119280, Note_on_c, 0, 108, 0
2, 119520, Note_on_c, 0, 108, 100
2, 119760, Note_on_c, 0, 108, 0
2, 120000, Note_on_c, 0, 100, 0
2, 120000, Note_on_c, 0, 99, 0
2, 120000, Note_on_c, 0, 88, 0
2, 120000, Note_on_c, 0, 87, 0
2, 120000, Note_on_c, 0, 75, 0
2, 120000, Note_on_c, 0, 74, 0
2, 120000, Note_on_c, 0, 62, 0
2, 120000, Note_on_c, 0, 100, 100
2, 120000, Note_on_c, 0, 99, 100
2, 120000, Note_on_c, 0, 88, 100
2, 120000, Note_on_c, 0, 87, 100
2, 120000, Note_on_c, 0, 75, 100
2, 120000, Note_on_c, 0, 74, 100
2, 120000, Note_on_c, 0, 62, 100
2, 120000, Note_on_c, 0, 108, 100
2, 120240, Note_on_c, 0, 100, 0
2, 120240, Note_on_c, 0, 99, 0
2, 120240, Note_on_c, 0, 88, 0
2, 120240, Note_on_c, 0, 87, 0
2, 120240, Note_on_c, 0, 75, 0
2, 120240, Note_on_c, 0, 74, 0
2, 120240, Note_on_c, 0, 62, 0
2, 120240, Note_on_c, 0, 108, 0
2, 120480, Note_on_c, 0, 108, 100
2, 120720, Note_on_c, 0, 108, 0
2, 120960, Note_on_c, 0, 98, 100
2, 120960, Note_on_c, 0, 108, 100
2, 121200, Note_on_c, 0, 98, 0
2, 121440, Note_on_c, 0, 108, 0
2, 121440, Note_on_c, 0, 99, 100
2, 121440, Note_on_c, 0, 98, 100
2, 121440, Note_on_c, 0, 87, 100
2, 121440, Note_on_c, 0, 86, 100
2, 121440, Note_on_c, 0, 74, 100
2, 121440, Note_on_c, 0, 73, 100
2, 121440, Note_on_c, 0, 61, 100
2, 121680, Note_on_c, 0, 99, 0
2, 121680, Note_on_c, 0, 98, 0
2, 121680, Note_on_c, 0, 87, 0
2, 121680, Note_on_c, 0, 86, 0
2, 121680, Note_on_c, 0, 74, 0
2, 121680, Note_on_c, 0, 73, 0
2, 121680, Note_on_c, 0, 61, 0
2, 121920, Note_on_c, 0, 98, 100
2, 121920, Note_on_c, 0, 108, 100
2, 122160, Note_on_c, 0, 98, 0
2, 122160, Note_on_c, 0, 108, 0
2, 122400, Note_on_c, 0, 100, 100
2, 122400, Note_on_c, 0, 99, 100
2, 122400, Note_on_c, 0, 88, 100
2, 122400, Note_on_c, 0, 87, 100
2, 122400, Note_on_c, 0, 75, 100
2, 122400, Note_on_c, 0, 74, 100
2, 122400, Note_on_c, 0, 62, 100
2, 122400, Note_on_c, 0, 108, 100
2, 122880, Note_on_c, 0, 108, 0
2, 123360, Note_on_c, 0, 108, 100
2, 123840, Note_on_c, 0, 100, 0
2, 123840, Note_on_c, 0, 99, 0
2, 123840, Note_on_c, 0, 88, 0
2, 123840, Note_on_c, 0, 87, 0
2, 123840, Note_on_c, 0, 75, 0
2, 123840, Note_on_c, 0, 74, 0
2, 123840, Note_on_c, 0, 62, 0
2, 123840, Note_on_c, 0, 108, 0
2, 125280, Note_on_c, 0, 108, 100
2, 125760, Note_on_c, 0, 108, 0
2, 126240, Note_on_c, 0, 108, 100
2, 126480, Note_on_c, 0, 108, 0
2, 126720, Note_on_c, 0, 100, 100
2, 126720, Note_on_c, 0, 98, 100
2, 126720, Note_on_c, 0, 88, 100
2, 126720, Note_on_c, 0, 86, 100
2, 126720, Note_on_c, 0, 75, 100
2, 126720, Note_on_c, 0, 73, 100
2, 126720, Note_on_c, 0, 61, 100
2, 126720, Note_on_c, 0, 108, 100
2, 127040, Note_on_c, 0, 108, 0
2, 127200, Note_on_c, 0, 108, 100
2, 127520, Note_on_c, 0, 108, 0
2, 127680, Note_on_c, 0, 100, 0
2, 127680, Note_on_c, 0, 98, 0
2, 127680, Note_on_c, 0, 88, 0
2, 127680, Note_on_c, 0, 86, 0
2, 127680, Note_on_c, 0, 75, 0
2, 127680, Note_on_c, 0, 73, 0
2, 127680, Note_on_c, 0, 61, 0
2, 127680, Note_on_c, 0, 100, 100
2, 127680, Note_on_c, 0, 98, 100
2, 127680, Note_on_c, 0, 88, 100
2, 127680, Note_on_c, 0, 86, 100
2, 127680, Note_on_c, 0, 75, 100
2, 127680, Note_on_c, 0, 73, 100
2, 127680, Note_on_c, 0, 61, 100
2, 127680, Note_on_c, 0, 108, 100
2, 127920, Note_on_c, 0, 100, 0
2, 127920, Note_on_c, 0, 98, 0
2, 127920, Note_on_c, 0, 88, 0
2, 127920, Note_on_c, 0, 86, 0
2, 127920, Note_on_c, 0, 75, 0
2, 127920, Note_on_c, 0, 73, 0
2, 127920, Note_on_c, 0, 61, 0
2, 128000, Note_on_c, 0, 108, 0
2, 128160, Note_on_c, 0, 108, 100
2, 128480, Note_on_c, 0, 108, 0
2, 128640, Note_on_c, 0, 97, 100
2, 128640, Note_on_c, 0, 108, 100
2, 128880, Note_on_c, 0, 97, 0
2, 129120, Note_on_c, 0, 99, 100
2, 129120, Note_on_c, 0, 97, 100
2, 129120, Note_on_c, 0, 87, 100
2, 129120, Note_on_c, 0, 85, 100
2, 129120, Note_on_c, 0, 74, 100
2, 129120, Note_on_c, 0, 72, 100
2, 129120, Note_on_c, 0, 60, 100
2, 129360, Note_on_c, 0, 108, 0
2, 129360, Note_on_c, 0, 99, 0
2, 129360, Note_on_c, 0, 97, 0
2, 129360, Note_on_c, 0, 87, 0
2, 129360, Note_on_c, 0, 85, 0
2, 129360, Note_on_c, 0, 74, 0
2, 129360, Note_on_c, 0, 72, 0
2, 129360, Note_on_c, 0, 60, 0
2, 129600, Note_on_c, 0, 97, 100
2, 129600, Note_on_c, 0, 108, 100
2, 129840, Note_on_c, 0, 97, 0
2, 129840, Note_on_c, 0, 108, 0
2, 130080, Note_on_c, 0, 100, 100
2, 130080, Note_on_c, 0, 98, 100
2, 130080, Note_on_c, 0, 88, 100
2, 130080, Note_on_c, 0, 86, 100
2, 130080, Note_on_c, 0, 75, 100
2, 130080, Note_on_c, 0, 73, 100
2, 130080, Note_on_c, 0, 61, 100
2, 130080, Note_on_c, 0, 108, 100
2, 130320, Note_on_c, 0, 108, 0
2, 130800, Note_on_c, 0, 108, 100
2, 131280, Note_on_c, 0, 108, 0
2, 131520, Note_on_c, 0, 100, 0
2, 131520, Note_on_c, 0, 98, 0
2, 131520, Note_on_c, 0, 88, 0
2, 131520, Note_on_c, 0, 86, 0
2, 131520, Note_on_c, 0, 75, 0
2, 131520, Note_on_c, 0, 73, 0
2, 131520, Note_on_c, 0, 61, 0
2, 132960, Note_on_c, 0, 108, 100
2, 133200, Note_on_c, 0, 108, 0
2, 133440, Note_on_c, 0, 108, 100
2, 133680, Note_on_c, 0, 108, 0
2, 133920, Note_on_c, 0, 108, 100
2, 134160, Note_on_c, 0, 108, 0
2, 134370, Note_on_c, 0, 105, 0
2, 134370, Note_on_c, 0, 93, 0
2, 134370, Note_on_c, 0, 69, 0
2, 134370, Note_on_c, 0, 81, 0
2, 134370, Note_on_c, 0, 106, 100
2, 134370, Note_on_c, 0, 94, 100
2, 134370, Note_on_c, 0, 70, 100
2, 134370, Note_on_c, 0, 82, 100
2, 134400, Note_on_c, 0, 100, 100
2, 134400, Note_on_c, 0, 99, 100
2, 134400, Note_on_c, 0, 88, 100
2, 134400, Note_on_c, 0, 87, 100
2, 134400, Note_on_c, 0, 75, 100
2, 134400, Note_on_c, 0, 74, 100
2, 134400, Note_on_c, 0, 62, 100
2, 134400, Note_on_c, 0, 108, 100
2, 134720, Note_on_c, 0, 108, 0
2, 134880, Note_on_c, 0, 108, 100
2, 135200, Note_on_c, 0, 108, 0
2, 135360, Note_on_c, 0, 100, 0
2, 135360, Note_on_c, 0, 99, 0
2, 135360, Note_on_c, 0, 88, 0
2, 135360, Note_on_c, 0, 87, 0
2, 135360, Note_on_c, 0, 75, 0
2, 135360, Note_on_c, 0, 74, 0
2, 135360, Note_on_c, 0, 62, 0
2, 135360, Note_on_c, 0, 100, 100
2, 135360, Note_on_c, 0, 99, 100
2, 135360, Note_on_c, 0, 88, 100
2, 135360, Note_on_c, 0, 87, 100
2, 135360, Note_on_c, 0, 75, 100
2, 135360, Note_on_c, 0, 74, 100
2, 135360, Note_on_c, 0, 62, 100
2, 135360, Note_on_c, 0, 108, 100
2, 135600, Note_on_c, 0, 100, 0
2, 135600, Note_on_c, 0, 99, 0
2, 135600, Note_on_c, 0, 88, 0
2, 135600, Note_on_c, 0, 87, 0
2, 135600, Note_on_c, 0, 75, 0
2, 135600, Note_on_c, 0, 74, 0
2, 135600, Note_on_c, 0, 62, 0
2, 135680, Note_on_c, 0, 108, 0
2, 135840, Note_on_c, 0, 108, 100
2, 136160, Note_on_c, 0, 108, 0
2, 136320, Note_on_c, 0, 98, 100
2, 136320, Note_on_c, 0, 108, 100
2, 136560, Note_on_c, 0, 98, 0
2, 136640, Note_on_c, 0, 108, 0
2, 136800, Note_on_c, 0, 99, 100
2, 136800, Note_on_c, 0, 98, 100
2, 136800, Note_on_c, 0, 87, 100
2, 136800, Note_on_c, 0, 86, 100
2, 136800, Note_on_c, 0, 74, 100
2, 136800, Note_on_c, 0, 73, 100
2, 136800, Note_on_c, 0, 61, 100
2, 136800, Note_on_c, 0, 108, 100
2, 137040, Note_on_c, 0, 99, 0
2, 137040, Note_on_c, 0, 98, 0
2, 137040, Note_on_c, 0, 87, 0
2, 137040, Note_on_c, 0, 86, 0
2, 137040, Note_on_c, 0, 74, 0
2, 137040, Note_on_c, 0, 73, 0
2, 137040, Note_on_c, 0, 61, 0
2, 137040, Note_on_c, 0, 108, 0
2, 137280, Note_on_c, 0, 98, 100
2, 137280, Note_on_c, 0, 108, 100
2, 137520, Note_on_c, 0, 98, 0
2, 137520, Note_on_c, 0, 108, 0
2, 137730, Note_on_c, 0, 106, 0
2, 137730, Note_on_c, 0, 94, 0
2, 137730, Note_on_c, 0, 70, 0
2, 137730, Note_on_c, 0, 82, 0
2, 137730, Note_on_c, 0, 105, 100
2, 137730, Note_on_c, 0, 93, 100
2, 137730, Note_on_c, 0, 69, 100
2, 137730, Note_on_c, 0, 81, 100
2, 137730, Note_on_c, 0, 67, 100
2, 137730, Note_on_c, 0, 79, 100
2, 137730, Note_on_c, 0, 91, 100
2, 137760, Note_on_c, 0, 100, 100
2, 137760, Note_on_c, 0, 98, 100
2, 137760, Note_on_c, 0, 88, 100
2, 137760, Note_on_c, 0, 86, 100
2, 137760, Note_on_c, 0, 75, 100
2, 137760, Note_on_c, 0, 73, 100
2, 137760, Note_on_c, 0, 61, 100
2, 137760, Note_on_c, 0, 108, 100
2, 138880, Note_on_c, 0, 108, 0
2, 139200, Note_on_c, 0, 100, 0
2, 139200, Note_on_c, 0, 98, 0
2, 139200, Note_on_c, 0, 88, 0
2, 139200, Note_on_c, 0, 86, 0
2, 139200, Note_on_c, 0, 75, 0
2, 139200, Note_on_c, 0, 73, 0
2, 139200, Note_on_c, 0, 61, 0
2, 139200, Note_on_c, 0, 100, 100
2, 139200, Note_on_c, 0, 98, 100
2, 139200, Note_on_c, 0, 88, 100
2, 139200, Note_on_c, 0, 86, 100
2, 139200, Note_on_c, 0, 75, 100
2, 139200, Note_on_c, 0, 73, 100
2, 139200, Note_on_c, 0, 61, 100
2, 139200, Note_on_c, 0, 108, 100
2, 139440, Note_on_c, 0, 100, 0
2, 139440, Note_on_c, 0, 98, 0
2, 139440, Note_on_c, 0, 88, 0
2, 139440, Note_on_c, 0, 86, 0
2, 139440, Note_on_c, 0, 75, 0
2, 139440, Note_on_c, 0, 73, 0
2, 139440, Note_on_c, 0, 61, 0
2, 139520, Note_on_c, 0, 108, 0
2, 139680, Note_on_c, 0, 108, 100
2, 139920, Note_on_c, 0, 108, 0
2, 140130, Note_on_c, 0, 103, 100
2, 140160, Note_on_c, 0, 96, 100
2, 140160, Note_on_c, 0, 108, 100
2, 140400, Note_on_c, 0, 96, 0
2, 140480, Note_on_c, 0, 108, 0
2, 140640, Note_on_c, 0, 98, 100
2, 140640, Note_on_c, 0, 96, 100
2, 140640, Note_on_c, 0, 86, 100
2, 140640, Note_on_c, 0, 84, 100
2, 140640, Note_on_c, 0, 73, 100
2, 140640, Note_on_c, 0, 72, 100
2, 140640, Note_on_c, 0, 60, 100
2, 140640, Note_on_c, 0, 108, 100
2, 140880, Note_on_c, 0, 98, 0
2, 140880, Note_on_c, 0, 96, 0
2, 140880, Note_on_c, 0, 86, 0
2, 140880, Note_on_c, 0, 84, 0
2, 140880, Note_on_c, 0, 73, 0
2, 140880, Note_on_c, 0, 72, 0
2, 140880, Note_on_c, 0, 60, 0
2, 140960, Note_on_c, 0, 108, 0
2, 141090, Note_on_c, 0, 67, 0
2, 141090, Note_on_c, 0, 79, 0
2, 141090, Note_on_c, 0, 91, 0
2, 141120, Note_on_c, 0, 96, 100
2, 141120, Note_on_c, 0, 108, 100
2, 141360, Note_on_c, 0, 96, 0
2, 141440, Note_on_c, 0, 108, 0
2, 141570, Note_on_c, 0, 103, 0
2, 141570, Note_on_c, 0, 106, 100
2, 141570, Note_on_c, 0, 94, 100
2, 141570, Note_on_c, 0, 70, 100
2, 141570, Note_on_c, 0, 82, 100
2, 141600, Note_on_c, 0, 97, 100
2, 141600, Note_on_c, 0, 99, 100
2, 141600, Note_on_c, 0, 85, 100
2, 141600, Note_on_c, 0, 87, 100
2, 141600, Note_on_c, 0, 72, 100
2, 141600, Note_on_c, 0, 74, 100
2, 141600, Note_on_c, 0, 60, 100
2, 141600, Note_on_c, 0, 108, 100
2, 141920, Note_on_c, 0, 108, 0
2, 142080, Text_t, "[chorus]"
2, 142080, Note_on_c, 0, 108, 100
2, 143040, Note_on_c, 0, 97, 0
2, 143040, Note_on_c, 0, 99, 0
2, 143040, Note_on_c, 0, 85, 0
2, 143040, Note_on_c, 0, 87, 0
2, 143040, Note_on_c, 0, 72, 0
2, 143040, Note_on_c, 0, 74, 0
2, 143040, Note_on_c, 0, 60, 0
2, 143040, Note_on_c, 0, 108, 0
2, 143040, Note_on_c, 0, 97, 100
2, 143040, Note_on_c, 0, 99, 100
2, 143040, Note_on_c, 0, 85, 100
2, 143040, Note_on_c, 0, 87, 100
2, 143040, Note_on_c, 0, 72, 100
2, 143040, Note_on_c, 0, 74, 100
2, 143040, Note_on_c, 0, 60, 100
2, 143280, Note_on_c, 0, 97, 0
2, 143280, Note_on_c, 0, 99, 0
2, 143280, Note_on_c, 0, 85, 0
2, 143280, Note_on_c, 0, 87, 0
2, 143280, Note_on_c, 0, 72, 0
2, 143280, Note_on_c, 0, 74, 0
2, 143280, Note_on_c, 0, 60, 0
2, 144000, Note_on_c, 0, 98, 100
2, 144000, Note_on_c, 0, 108, 100
2, 144240, Note_on_c, 0, 98, 0
2, 144320, Note_on_c, 0, 108, 0
2, 144480, Note_on_c, 0, 99, 100
2, 144480, Note_on_c, 0, 98, 100
2, 144480, Note_on_c, 0, 87, 100
2, 144480, Note_on_c, 0, 86, 100
2, 144480, Note_on_c, 0, 74, 100
2, 144480, Note_on_c, 0, 73, 100
2, 144480, Note_on_c, 0, 61, 100
2, 144480, Note_on_c, 0, 108, 100
2, 144720, Note_on_c, 0, 99, 0
2, 144720, Note_on_c, 0, 98, 0
2, 144720, Note_on_c, 0, 87, 0
2, 144720, Note_on_c, 0, 86, 0
2, 144720, Note_on_c, 0, 74, 0
2, 144720, Note_on_c, 0, 73, 0
2, 144720, Note_on_c, 0, 61, 0
2, 144960, Note_on_c, 0, 98, 100
2, 145120, Note_on_c, 0, 108, 0
2, 145200, Note_on_c, 0, 98, 0
2, 145440, Note_on_c, 0, 98, 100
2, 145440, Note_on_c, 0, 100, 100
2, 145440, Note_on_c, 0, 86, 100
2, 145440, Note_on_c, 0, 88, 100
2, 145440, Note_on_c, 0, 73, 100
2, 145440, Note_on_c, 0, 75, 100
2, 145440, Note_on_c, 0, 62, 100
2, 145440, Note_on_c, 0, 108, 100
2, 145920, Note_on_c, 0, 108, 0
2, 146880, Note_on_c, 0, 98, 0
2, 146880, Note_on_c, 0, 100, 0
2, 146880, Note_on_c, 0, 86, 0
2, 146880, Note_on_c, 0, 88, 0
2, 146880, Note_on_c, 0, 73, 0
2, 146880, Note_on_c, 0, 75, 0
2, 146880, Note_on_c, 0, 62, 0
2, 146880, Note_on_c, 0, 100, 100
2, 146880, Note_on_c, 0, 98, 100
2, 146880, Note_on_c, 0, 88, 100
2, 146880, Note_on_c, 0, 86, 100
2, 146880, Note_on_c, 0, 75, 100
2, 146880, Note_on_c, 0, 73, 100
2, 146880, Note_on_c, 0, 62, 100
2, 147120, Note_on_c, 0, 100, 0
2, 147120, Note_on_c, 0, 98, 0
2, 147120, Note_on_c, 0, 88, 0
2, 147120, Note_on_c, 0, 86, 0
2, 147120, Note_on_c, 0, 75, 0
2, 147120, Note_on_c, 0, 73, 0
2, 147120, Note_on_c, 0, 62, 0
2, 147840, Note_on_c, 0, 96, 100
2, 148080, Note_on_c, 0, 96, 0
2, 148320, Note_on_c, 0, 98, 100
2, 148320, Note_on_c, 0, 96, 100
2, 148320, Note_on_c, 0, 86, 100
2, 148320, Note_on_c, 0, 84, 100
2, 148320, Note_on_c, 0, 73, 100
2, 148320, Note_on_c, 0, 72, 100
2, 148320, Note_on_c, 0, 60, 100
2, 148560, Note_on_c, 0, 98, 0
2, 148560, Note_on_c, 0, 96, 0
2, 148560, Note_on_c, 0, 86, 0
2, 148560, Note_on_c, 0, 84, 0
2, 148560, Note_on_c, 0, 73, 0
2, 148560, Note_on_c, 0, 72, 0
2, 148560, Note_on_c, 0, 60, 0
2, 148800, Note_on_c, 0, 96, 100
2, 148800, Note_on_c, 0, 108, 100
2, 149040, Note_on_c, 0, 96, 0
2, 149040, Note_on_c, 0, 108, 0
2, 149280, Note_on_c, 0, 97, 100
2, 149280, Note_on_c, 0, 99, 100
2, 149280, Note_on_c, 0, 85, 100
2, 149280, Note_on_c, 0, 87, 100
2, 149280, Note_on_c, 0, 72, 100
2, 149280, Note_on_c, 0, 74, 100
2, 149280, Note_on_c, 0, 60, 100
2, 149280, Note_on_c, 0, 108, 100
2, 149840, Note_on_c, 0, 108, 0
2, 150000, Note_on_c, 0, 108, 100
2, 150480, Note_on_c, 0, 108, 0
2, 150720, Note_on_c, 0, 97, 0
2, 150720, Note_on_c, 0, 99, 0
2, 150720, Note_on_c, 0, 85, 0
2, 150720, Note_on_c, 0, 87, 0
2, 150720, Note_on_c, 0, 72, 0
2, 150720, Note_on_c, 0, 74, 0
2, 150720, Note_on_c, 0, 60, 0
2, 150720, Note_on_c, 0, 97, 100
2, 150720, Note_on_c, 0, 99, 100
2, 150720, Note_on_c, 0, 85, 100
2, 150720, Note_on_c, 0, 87, 100
2, 150720, Note_on_c, 0, 72, 100
2, 150720, Note_on_c, 0, 74, 100
2, 150720, Note_on_c, 0, 60, 100
2, 150960, Note_on_c, 0, 97, 0
2, 150960, Note_on_c, 0, 99, 0
2, 150960, Note_on_c, 0, 85, 0
2, 150960, Note_on_c, 0, 87, 0
2, 150960, Note_on_c, 0, 72, 0
2, 150960, Note_on_c, 0, 74, 0
2, 150960, Note_on_c, 0, 60, 0
2, 151680, Note_on_c, 0, 98, 100
2, 151680, Note_on_c, 0, 108, 100
2, 151920, Note_on_c, 0, 98, 0
2, 152000, Note_on_c, 0, 108, 0
2, 152160, Note_on_c, 0, 99, 100
2, 152160, Note_on_c, 0, 98, 100
2, 152160, Note_on_c, 0, 87, 100
2, 152160, Note_on_c, 0, 86, 100
2, 152160, Note_on_c, 0, 74, 100
2, 152160, Note_on_c, 0, 73, 100
2, 152160, Note_on_c, 0, 61, 100
2, 152160, Note_on_c, 0, 108, 100
2, 153200, Note_on_c, 0, 108, 0
2, 153360, Note_on_c, 0, 99, 0
2, 153360, Note_on_c, 0, 98, 0
2, 153360, Note_on_c, 0, 87, 0
2, 153360, Note_on_c, 0, 86, 0
2, 153360, Note_on_c, 0, 74, 0
2, 153360, Note_on_c, 0, 73, 0
2, 153360, Note_on_c, 0, 61, 0
2, 153570, Note_on_c, 0, 103, 100
2, 153570, Note_on_c, 0, 91, 100
2, 153570, Note_on_c, 0, 79, 100
2, 153570, Note_on_c, 0, 67, 100
2, 153600, Text_t, "drum_half"
2, 153600, Note_on_c, 0, 96, 100
2, 153600, Note_on_c, 0, 97, 100
2, 153600, Note_on_c, 0, 84, 100
2, 153600, Note_on_c, 0, 85, 100
2, 153600, Note_on_c, 0, 72, 100
2, 153600, Note_on_c, 0, 73, 100
2, 153600, Note_on_c, 0, 60, 100
2, 153600, Note_on_c, 0, 108, 100
2, 155520, Text_t, "drum_normal"
2, 156480, Note_on_c, 0, 96, 0
2, 156480, Note_on_c, 0, 97, 0
2, 156480, Note_on_c, 0, 84, 0
2, 156480, Note_on_c, 0, 85, 0
2, 156480, Note_on_c, 0, 72, 0
2, 156480, Note_on_c, 0, 73, 0
2, 156480, Note_on_c, 0, 60, 0
2, 156480, Note_on_c, 0, 96, 100
2, 156480, Note_on_c, 0, 98, 100
2, 156480, Note_on_c, 0, 84, 100
2, 156480, Note_on_c, 0, 86, 100
2, 156480, Note_on_c, 0, 72, 100
2, 156480, Note_on_c, 0, 74, 100
2, 156480, Note_on_c, 0, 61, 100
2, 156720, Note_on_c, 0, 96, 0
2, 156720, Note_on_c, 0, 98, 0
2, 156720, Note_on_c, 0, 84, 0
2, 156720, Note_on_c, 0, 86, 0
2, 156720, Note_on_c, 0, 72, 0
2, 156720, Note_on_c, 0, 74, 0
2, 156720, Note_on_c, 0, 61, 0
2, 157280, Note_on_c, 0, 108, 0
2, 157440, Text_t, "drum_half"
2, 157440, Note_on_c, 0, 98, 100
2, 157440, Note_on_c, 0, 100, 100
2, 157440, Note_on_c, 0, 86, 100
2, 157440, Note_on_c, 0, 88, 100
2, 157440, Note_on_c, 0, 73, 100
2, 157440, Note_on_c, 0, 75, 100
2, 157440, Note_on_c, 0, 62, 100
2, 157440, Note_on_c, 0, 108, 100
2, 159360, Text_t, "drum_normal"
2, 159840, Note_on_c, 0, 108, 0
2, 160320, Text_t, "drum_half"
2, 161250, Note_on_c, 0, 103, 0
2, 161250, Note_on_c, 0, 91, 0
2, 161250, Note_on_c, 0, 79, 0
2, 161250, Note_on_c, 0, 67, 0
2, 161280, Note_on_c, 0, 98, 0
2, 161280, Note_on_c, 0, 100, 0
2, 161280, Note_on_c, 0, 86, 0
2, 161280, Note_on_c, 0, 88, 0
2, 161280, Note_on_c, 0, 73, 0
2, 161280, Note_on_c, 0, 75, 0
2, 161280, Note_on_c, 0, 62, 0
2, 161760, Note_on_c, 0, 100, 100
2, 161760, Note_on_c, 0, 87, 100
2, 161760, Note_on_c, 0, 75, 100
2, 161760, Note_on_c, 0, 62, 100
2, 161760, Note_on_c, 0, 108, 100
2, 162000, Note_on_c, 0, 100, 0
2, 162000, Note_on_c, 0, 87, 0
2, 162000, Note_on_c, 0, 75, 0
2, 162000, Note_on_c, 0, 62, 0
2, 162080, Note_on_c, 0, 108, 0
2, 162240, Note_on_c, 0, 99, 100
2, 162240, Note_on_c, 0, 86, 100
2, 162240, Note_on_c, 0, 74, 100
2, 162240, Note_on_c, 0, 108, 100
2, 162480, Note_on_c, 0, 99, 0
2, 162480, Note_on_c, 0, 86, 0
2, 162480, Note_on_c, 0, 74, 0
2, 162560, Note_on_c, 0, 108, 0
2, 162720, Note_on_c, 0, 98, 100
2, 162720, Note_on_c, 0, 85, 100
2, 162720, Note_on_c, 0, 73, 100
2, 162720, Note_on_c, 0, 108, 100
2, 162960, Note_on_c, 0, 98, 0
2, 162960, Note_on_c, 0, 85, 0
2, 162960, Note_on_c, 0, 73, 0
2, 163040, Note_on_c, 0, 108, 0
2, 163200, Text_t, "drum_normal"
2, 163200, Note_on_c, 0, 99, 100
2, 163200, Note_on_c, 0, 87, 100
2, 163200, Note_on_c, 0, 74, 100
2, 163200, Note_on_c, 0, 61, 100
2, 163200, Note_on_c, 0, 108, 100
2, 163440, Note_on_c, 0, 99, 0
2, 163440, Note_on_c, 0, 87, 0
2, 163440, Note_on_c, 0, 74, 0
2, 163440, Note_on_c, 0, 61, 0
2, 163680, Note_on_c, 0, 98, 100
2, 163680, Note_on_c, 0, 86, 100
2, 163920, Note_on_c, 0, 108, 0
2, 163920, Note_on_c, 0, 98, 0
2, 163920, Note_on_c, 0, 86, 0
2, 164160, Text_t, "drum_half"
2, 164160, Note_on_c, 0, 97, 100
2, 164160, Note_on_c, 0, 85, 100
2, 164160, Note_on_c, 0, 73, 100
2, 164160, Note_on_c, 0, 60, 100
2, 164160, Note_on_c, 0, 108, 100
2, 164400, Note_on_c, 0, 97, 0
2, 164400, Note_on_c, 0, 85, 0
2, 164400, Note_on_c, 0, 73, 0
2, 164400, Note_on_c, 0, 60, 0
2, 164400, Note_on_c, 0, 108, 0
2, 164640, Note_on_c, 0, 96, 100
2, 164640, Note_on_c, 0, 84, 100
2, 164640, Note_on_c, 0, 72, 100
2, 164640, Note_on_c, 0, 108, 100
2, 164880, Note_on_c, 0, 96, 0
2, 164880, Note_on_c, 0, 84, 0
2, 164880, Note_on_c, 0, 72, 0
2, 164880, Note_on_c, 0, 108, 0
2, 165090, Note_on_c, 0, 106, 0
2, 165090, Note_on_c, 0, 94, 0
2, 165090, Note_on_c, 0, 70, 0
2, 165090, Note_on_c, 0, 82, 0
2, 165120, Text_t, "drum_normal"
2, 165120, Text_t, "[verse]"
2, 165120, Note_on_c, 0, 99, 100
2, 165120, Note_on_c, 0, 97, 100
2, 165120, Note_on_c, 0, 87, 100
2, 165120, Note_on_c, 0, 85, 100
2, 165120, Note_on_c, 0, 74, 100
2, 165120, Note_on_c, 0, 72, 100
2, 165120, Note_on_c, 0, 60, 100
2, 165120, Note_on_c, 0, 108, 100
2, 165520, Note_on_c, 0, 108, 0
2, 165760, Note_on_c, 0, 108, 100
2, 166080, Note_on_c, 0, 99, 0
2, 166080, Note_on_c, 0, 97, 0
2, 166080, Note_on_c, 0, 87, 0
2, 166080, Note_on_c, 0, 85, 0
2, 166080, Note_on_c, 0, 74, 0
2, 166080, Note_on_c, 0, 72, 0
2, 166080, Note_on_c, 0, 60, 0
2, 166080, Note_on_c, 0, 99, 100
2, 166080, Note_on_c, 0, 97, 100
2, 166080, Note_on_c, 0, 87, 100
2, 166080, Note_on_c, 0, 85, 100
2, 166080, Note_on_c, 0, 74, 100
2, 166080, Note_on_c, 0, 72, 100
2, 166080, Note_on_c, 0, 60, 100
2, 166320, Note_on_c, 0, 99, 0
2, 166320, Note_on_c, 0, 97, 0
2, 166320, Note_on_c, 0, 87, 0
2, 166320, Note_on_c, 0, 85, 0
2, 166320, Note_on_c, 0, 74, 0
2, 166320, Note_on_c, 0, 72, 0
2, 166320, Note_on_c, 0, 60, 0
2, 166720, Note_on_c, 0, 108, 0
2, 167040, Note_on_c, 0, 97, 100
2, 167280, Note_on_c, 0, 97, 0
2, 167520, Note_on_c, 0, 99, 100
2, 167520, Note_on_c, 0, 97, 100
2, 167520, Note_on_c, 0, 87, 100
2, 167520, Note_on_c, 0, 85, 100
2, 167520, Note_on_c, 0, 74, 100
2, 167520, Note_on_c, 0, 72, 100
2, 167520, Note_on_c, 0, 60, 100
2, 167760, Note_on_c, 0, 99, 0
2, 167760, Note_on_c, 0, 97, 0
2, 167760, Note_on_c, 0, 87, 0
2, 167760, Note_on_c, 0, 85, 0
2, 167760, Note_on_c, 0, 74, 0
2, 167760, Note_on_c, 0, 72, 0
2, 167760, Note_on_c, 0, 60, 0
2, 168000, Note_on_c, 0, 97, 100
2, 168240, Note_on_c, 0, 97, 0
2, 168480, Note_on_c, 0, 99, 100
2, 168480, Note_on_c, 0, 97, 100
2, 168480, Note_on_c, 0, 87, 100
2, 168480, Note_on_c, 0, 85, 100
2, 168480, Note_on_c, 0, 74, 100
2, 168480, Note_on_c, 0, 72, 100
2, 168480, Note_on_c, 0, 60, 100
2, 169440, Note_on_c, 0, 108, 100
2, 169680, Note_on_c, 0, 108, 0
2, 169920, Note_on_c, 0, 99, 0
2, 169920, Note_on_c, 0, 97, 0
2, 169920, Note_on_c, 0, 87, 0
2, 169920, Note_on_c, 0, 85, 0
2, 169920, Note_on_c, 0, 74, 0
2, 169920, Note_on_c, 0, 72, 0
2, 169920, Note_on_c, 0, 60, 0
2, 169920, Note_on_c, 0, 108, 100
2, 170240, Note_on_c, 0, 108, 0
2, 170400, Note_on_c, 0, 108, 100
2, 170720, Note_on_c, 0, 108, 0
2, 170880, Note_on_c, 0, 108, 100
2, 171200, Note_on_c, 0, 108, 0
2, 171360, Note_on_c, 0, 108, 100
2, 171680, Note_on_c, 0, 108, 0
2, 171840, Note_on_c, 0, 108, 100
2, 172400, Note_on_c, 0, 108, 0
2, 172800, Note_on_c, 0, 99, 100
2, 172800, Note_on_c, 0, 97, 100
2, 172800, Note_on_c, 0, 87, 100
2, 172800, Note_on_c, 0, 85, 100
2, 172800, Note_on_c, 0, 74, 100
2, 172800, Note_on_c, 0, 72, 100
2, 172800, Note_on_c, 0, 60, 100
2, 173760, Note_on_c, 0, 99, 0
2, 173760, Note_on_c, 0, 97, 0
2, 173760, Note_on_c, 0, 87, 0
2, 173760, Note_on_c, 0, 85, 0
2, 173760, Note_on_c, 0, 74, 0
2, 173760, Note_on_c, 0, 72, 0
2, 173760, Note_on_c, 0, 60, 0
2, 173760, Note_on_c, 0, 99, 100
2, 173760, Note_on_c, 0, 97, 100
2, 173760, Note_on_c, 0, 87, 100
2, 173760, Note_on_c, 0, 85, 100
2, 173760, Note_on_c, 0, 74, 100
2, 173760, Note_on_c, 0, 72, 100
2, 173760, Note_on_c, 0, 60, 100
2, 174000, Note_on_c, 0, 99, 0
2, 174000, Note_on_c, 0, 97, 0
2, 174000, Note_on_c, 0, 87, 0
2, 174000, Note_on_c, 0, 85, 0
2, 174000, Note_on_c, 0, 74, 0
2, 174000, Note_on_c, 0, 72, 0
2, 174000, Note_on_c, 0, 60, 0
2, 174720, Note_on_c, 0, 97, 100
2, 174960, Note_on_c, 0, 97, 0
2, 175200, Note_on_c, 0, 99, 100
2, 175200, Note_on_c, 0, 97, 100
2, 175200, Note_on_c, 0, 87, 100
2, 175200, Note_on_c, 0, 85, 100
2, 175200, Note_on_c, 0, 74, 100
2, 175200, Note_on_c, 0, 72, 100
2, 175200, Note_on_c, 0, 60, 100
2, 175440, Note_on_c, 0, 99, 0
2, 175440, Note_on_c, 0, 97, 0
2, 175440, Note_on_c, 0, 87, 0
2, 175440, Note_on_c, 0, 85, 0
2, 175440, Note_on_c, 0, 74, 0
2, 175440, Note_on_c, 0, 72, 0
2, 175440, Note_on_c, 0, 60, 0
2, 175680, Note_on_c, 0, 97, 100
2, 175920, Note_on_c, 0, 97, 0
2, 176160, Note_on_c, 0, 99, 100
2, 176160, Note_on_c, 0, 97, 100
2, 176160, Note_on_c, 0, 87, 100
2, 176160, Note_on_c, 0, 85, 100
2, 176160, Note_on_c, 0, 74, 100
2, 176160, Note_on_c, 0, 72, 100
2, 176160, Note_on_c, 0, 60, 100
2, 177600, Note_on_c, 0, 99, 0
2, 177600, Note_on_c, 0, 97, 0
2, 177600, Note_on_c, 0, 87, 0
2, 177600, Note_on_c, 0, 85, 0
2, 177600, Note_on_c, 0, 74, 0
2, 177600, Note_on_c, 0, 72, 0
2, 177600, Note_on_c, 0, 60, 0
2, 177600, Note_on_c, 0, 108, 100
2, 177920, Note_on_c, 0, 108, 0
2, 178080, Note_on_c, 0, 108, 100
2, 178720, Note_on_c, 0, 108, 0
2, 179040, Note_on_c, 0, 108, 100
2, 179280, Note_on_c, 0, 108, 0
2, 179520, Note_on_c, 0, 108, 100
2, 180080, Note_on_c, 0, 108, 0
2, 180450, Note_on_c, 0, 105, 0
2, 180450, Note_on_c, 0, 93, 0
2, 180450, Note_on_c, 0, 69, 0
2, 180450, Note_on_c, 0, 81, 0
2, 180450, Note_on_c, 0, 106, 100
2, 180450, Note_on_c, 0, 94, 100
2, 180450, Note_on_c, 0, 70, 100
2, 180450, Note_on_c, 0, 82, 100
2, 180480, Note_on_c, 0, 100, 100
2, 180480, Note_on_c, 0, 98, 100
2, 180480, Note_on_c, 0, 88, 100
2, 180480, Note_on_c, 0, 86, 100
2, 180480, Note_on_c, 0, 75, 100
2, 180480, Note_on_c, 0, 73, 100
2, 180480, Note_on_c, 0, 61, 100
2, 180480, Note_on_c, 0, 108, 100
2, 180720, Note_on_c, 0, 108, 0
2, 180960, Note_on_c, 0, 108, 100
2, 181200, Note_on_c, 0, 108, 0
2, 181440, Note_on_c, 0, 100, 0
2, 181440, Note_on_c, 0, 98, 0
2, 181440, Note_on_c, 0, 88, 0
2, 181440, Note_on_c, 0, 86, 0
2, 181440, Note_on_c, 0, 75, 0
2, 181440, Note_on_c, 0, 73, 0
2, 181440, Note_on_c, 0, 61, 0
2, 181440, Note_on_c, 0, 100, 100
2, 181440, Note_on_c, 0, 98, 100
2, 181440, Note_on_c, 0, 88, 100
2, 181440, Note_on_c, 0, 86, 100
2, 181440, Note_on_c, 0, 75, 100
2, 181440, Note_on_c, 0, 73, 100
2, 181440, Note_on_c, 0, 61, 100
2, 181440, Note_on_c, 0, 108, 100
2, 181680, Note_on_c, 0, 100, 0
2, 181680, Note_on_c, 0, 98, 0
2, 181680, Note_on_c, 0, 88, 0
2, 181680, Note_on_c, 0, 86, 0
2, 181680, Note_on_c, 0, 75, 0
2, 181680, Note_on_c, 0, 73, 0
2, 181680, Note_on_c, 0, 61, 0
2, 182400, Note_on_c, 0, 96, 100
2, 182640, Note_on_c, 0, 96, 0
2, 182880, Note_on_c, 0, 108, 0
2, 182880, Note_on_c, 0, 98, 100
2, 182880, Note_on_c, 0, 96, 100
2, 182880, Note_on_c, 0, 86, 100
2, 182880, Note_on_c, 0, 84, 100
2, 182880, Note_on_c, 0, 73, 100
2, 182880, Note_on_c, 0, 72, 100
2, 182880, Note_on_c, 0, 60, 100
2, 183120, Note_on_c, 0, 98, 0
2, 183120, Note_on_c, 0, 96, 0
2, 183120, Note_on_c, 0, 86, 0
2, 183120, Note_on_c, 0, 84, 0
2, 183120, Note_on_c, 0, 73, 0
2, 183120, Note_on_c, 0, 72, 0
2, 183120, Note_on_c, 0, 60, 0
2, 183360, Note_on_c, 0, 96, 100
2, 183600, Note_on_c, 0, 96, 0
2, 183840, Note_on_c, 0, 100, 100
2, 183840, Note_on_c, 0, 98, 100
2, 183840, Note_on_c, 0, 88, 100
2, 183840, Note_on_c, 0, 86, 100
2, 183840, Note_on_c, 0, 75, 100
2, 183840, Note_on_c, 0, 73, 100
2, 183840, Note_on_c, 0, 61, 100
2, 185280, Note_on_c, 0, 100, 0
2, 185280, Note_on_c, 0, 98, 0
2, 185280, Note_on_c, 0, 88, 0
2, 185280, Note_on_c, 0, 86, 0
2, 185280, Note_on_c, 0, 75, 0
2, 185280, Note_on_c, 0, 73, 0
2, 185280, Note_on_c, 0, 61, 0
2, 186720, Note_on_c, 0, 108, 100
2, 186960, Note_on_c, 0, 108, 0
2, 187200, Note_on_c, 0, 108, 100
2, 187440, Note_on_c, 0, 108, 0
2, 187680, Note_on_c, 0, 108, 100
2, 187920, Note_on_c, 0, 108, 0
2, 188160, Note_on_c, 0, 99, 100
2, 188160, Note_on_c, 0, 97, 100
2, 188160, Note_on_c, 0, 87, 100
2, 188160, Note_on_c, 0, 85, 100
2, 188160, Note_on_c, 0, 74, 100
2, 188160, Note_on_c, 0, 72, 100
2, 188160, Note_on_c, 0, 60, 100
2, 188160, Note_on_c, 0, 108, 100
2, 188640, Note_on_c, 0, 108, 0
2, 189120, Note_on_c, 0, 99, 0
2, 189120, Note_on_c, 0, 97, 0
2, 189120, Note_on_c, 0, 87, 0
2, 189120, Note_on_c, 0, 85, 0
2, 189120, Note_on_c, 0, 74, 0
2, 189120, Note_on_c, 0, 72, 0
2, 189120, Note_on_c, 0, 60, 0
2, 189120, Note_on_c, 0, 99, 100
2, 189120, Note_on_c, 0, 97, 100
2, 189120, Note_on_c, 0, 87, 100
2, 189120, Note_on_c, 0, 85, 100
2, 189120, Note_on_c, 0, 74, 100
2, 189120, Note_on_c, 0, 72, 100
2, 189120, Note_on_c, 0, 60, 100
2, 189120, Note_on_c, 0, 108, 100
2, 189360, Note_on_c, 0, 99, 0
2, 189360, Note_on_c, 0, 97, 0
2, 189360, Note_on_c, 0, 87, 0
2, 189360, Note_on_c, 0, 85, 0
2, 189360, Note_on_c, 0, 74, 0
2, 189360, Note_on_c, 0, 72, 0
2, 189360, Note_on_c, 0, 60, 0
2, 189680, Note_on_c, 0, 108, 0
2, 190080, Note_on_c, 0, 97, 100
2, 190080, Note_on_c, 0, 108, 100
2, 190320, Note_on_c, 0, 97, 0
2, 190320, Note_on_c, 0, 108, 0
2, 190560, Note_on_c, 0, 99, 100
2, 190560, Note_on_c, 0, 97, 100
2, 190560, Note_on_c, 0, 87, 100
2, 190560, Note_on_c, 0, 85, 100
2, 190560, Note_on_c, 0, 74, 100
2, 190560, Note_on_c, 0, 72, 100
2, 190560, Note_on_c, 0, 60, 100
2, 190560, Note_on_c, 0, 108, 100
2, 190800, Note_on_c, 0, 99, 0
2, 190800, Note_on_c, 0, 97, 0
2, 190800, Note_on_c, 0, 87, 0
2, 190800, Note_on_c, 0, 85, 0
2, 190800, Note_on_c, 0, 74, 0
2, 190800, Note_on_c, 0, 72, 0
2, 190800, Note_on_c, 0, 60, 0
2, 191040, Note_on_c, 0, 108, 0
2, 191040, Note_on_c, 0, 97, 100
2, 191280, Note_on_c, 0, 97, 0
2, 191520, Note_on_c, 0, 99, 100
2, 191520, Note_on_c, 0, 97, 100
2, 191520, Note_on_c, 0, 87, 100
2, 191520, Note_on_c, 0, 85, 100
2, 191520, Note_on_c, 0, 74, 100
2, 191520, Note_on_c, 0, 72, 100
2, 191520, Note_on_c, 0, 60, 100
2, 191520, Note_on_c, 0, 108, 100
2, 192480, Note_on_c, 0, 108, 0
2, 192960, Note_on_c, 0, 99, 0
2, 192960, Note_on_c, 0, 97, 0
2, 192960, Note_on_c, 0, 87, 0
2, 192960, Note_on_c, 0, 85, 0
2, 192960, Note_on_c, 0, 74, 0
2, 192960, Note_on_c, 0, 72, 0
2, 192960, Note_on_c, 0, 60, 0
2, 194400, Note_on_c, 0, 108, 100
2, 194640, Note_on_c, 0, 108, 0
2, 194880, Note_on_c, 0, 108, 100
2, 195120, Note_on_c, 0, 108, 0
2, 195360, Note_on_c, 0, 108, 100
2, 195810, Note_on_c, 0, 106, 0
2, 195810, Note_on_c, 0, 94, 0
2, 195810, Note_on_c, 0, 70, 0
2, 195810, Note_on_c, 0, 82, 0
2, 195810, Note_on_c, 0, 105, 100
2, 195810, Note_on_c, 0, 93, 100
2, 195810, Note_on_c, 0, 69, 100
2, 195810, Note_on_c, 0, 81, 100
2, 195840, Note_on_c, 0, 100, 100
2, 195840, Note_on_c, 0, 99, 100
2, 195840, Note_on_c, 0, 88, 100
2, 195840, Note_on_c, 0, 87, 100
2, 195840, Note_on_c, 0, 75, 100
2, 195840, Note_on_c, 0, 74, 100
2, 195840, Note_on_c, 0, 62, 100
2, 195920, Note_on_c, 0, 108, 0
2, 196320, Note_on_c, 0, 108, 100
2, 196560, Note_on_c, 0, 108, 0
2, 196800, Note_on_c, 0, 100, 0
2, 196800, Note_on_c, 0, 99, 0
2, 196800, Note_on_c, 0, 88, 0
2, 196800, Note_on_c, 0, 87, 0
2, 196800, Note_on_c, 0, 75, 0
2, 196800, Note_on_c, 0, 74, 0
2, 196800, Note_on_c, 0, 62, 0
2, 196800, Note_on_c, 0, 100, 100
2, 196800, Note_on_c, 0, 99, 100
2, 196800, Note_on_c, 0, 88, 100
2, 196800, Note_on_c, 0, 87, 100
2, 196800, Note_on_c, 0, 75, 100
2, 196800, Note_on_c, 0, 74, 100
2, 196800, Note_on_c, 0, 62, 100
2, 196800, Note_on_c, 0, 108, 100
2, 197040, Note_on_c, 0, 100, 0
2, 197040, Note_on_c, 0, 99, 0
2, 197040, Note_on_c, 0, 88, 0
2, 197040, Note_on_c, 0, 87, 0
2, 197040, Note_on_c, 0, 75, 0
2, 197040, Note_on_c, 0, 74, 0
2, 197040, Note_on_c, 0, 62, 0
2, 197040, Note_on_c, 0, 108, 0
2, 197280, Note_on_c, 0, 108, 100
2, 197520, Note_on_c, 0, 108, 0
2, 197760, Note_on_c, 0, 98, 100
2, 197760, Note_on_c, 0, 108, 100
2, 198000, Note_on_c, 0, 98, 0
2, 198000, Note_on_c, 0, 108, 0
2, 198240, Note_on_c, 0, 99, 100
2, 198240, Note_on_c, 0, 98, 100
2, 198240, Note_on_c, 0, 87, 100
2, 198240, Note_on_c, 0, 86, 100
2, 198240, Note_on_c, 0, 74, 100
2, 198240, Note_on_c, 0, 73, 100
2, 198240, Note_on_c, 0, 61, 100
2, 198240, Note_on_c, 0, 108, 100
2, 198480, Note_on_c, 0, 99, 0
2, 198480, Note_on_c, 0, 98, 0
2, 198480, Note_on_c, 0, 87, 0
2, 198480, Note_on_c, 0, 86, 0
2, 198480, Note_on_c, 0, 74, 0
2, 198480, Note_on_c, 0, 73, 0
2, 198480, Note_on_c, 0, 61, 0
2, 198480, Note_on_c, 0, 108, 0
2, 198720, Note_on_c, 0, 98, 100
2, 198720, Note_on_c, 0, 108, 100
2, 198960, Note_on_c, 0, 98, 0
2, 199200, Note_on_c, 0, 100, 100
2, 199200, Note_on_c, 0, 99, 100
2, 199200, Note_on_c, 0, 88, 100
2, 199200, Note_on_c, 0, 87, 100
2, 199200, Note_on_c, 0, 75, 100
2, 199200, Note_on_c, 0, 74, 100
2, 199200, Note_on_c, 0, 62, 100
2, 199520, Note_on_c, 0, 108, 0
2, 200640, Note_on_c, 0, 100, 0
2, 200640, Note_on_c, 0, 99, 0
2, 200640, Note_on_c, 0, 88, 0
2, 200640, Note_on_c, 0, 87, 0
2, 200640, Note_on_c, 0, 75, 0
2, 200640, Note_on_c, 0, 74, 0
2, 200640, Note_on_c, 0, 62, 0
2, 202080, Note_on_c, 0, 108, 100
2, 202320, Note_on_c, 0, 108, 0
2, 202560, Note_on_c, 0, 108, 100
2, 202880, Note_on_c, 0, 108, 0
2, 203040, Note_on_c, 0, 108, 100
2, 203360, Note_on_c, 0, 108, 0
2, 203490, Note_on_c, 0, 105, 0
2, 203490, Note_on_c, 0, 93, 0
2, 203490, Note_on_c, 0, 69, 0
2, 203490, Note_on_c, 0, 81, 0
2, 203490, Note_on_c, 0, 106, 100
2, 203490, Note_on_c, 0, 94, 100
2, 203490, Note_on_c, 0, 70, 100
2, 203490, Note_on_c, 0, 82, 100
2, 203520, Note_on_c, 0, 100, 100
2, 203520, Note_on_c, 0, 98, 100
2, 203520, Note_on_c, 0, 88, 100
2, 203520, Note_on_c, 0, 86, 100
2, 203520, Note_on_c, 0, 75, 100
2, 203520, Note_on_c, 0, 73, 100
2, 203520, Note_on_c, 0, 61, 100
2, 203520, Note_on_c, 0, 108, 100
2, 203760, Note_on_c, 0, 108, 0
2, 204000, Note_on_c, 0, 108, 100
2, 204240, Note_on_c, 0, 108, 0
2, 204480, Note_on_c, 0, 100, 0
2, 204480, Note_on_c, 0, 98, 0
2, 204480, Note_on_c, 0, 88, 0
2, 204480, Note_on_c, 0, 86, 0
2, 204480, Note_on_c, 0, 75, 0
2, 204480, Note_on_c, 0, 73, 0
2, 204480, Note_on_c, 0, 61, 0
2, 204480, Note_on_c, 0, 100, 100
2, 204480, Note_on_c, 0, 98, 100
2, 204480, Note_on_c, 0, 88, 100
2, 204480, Note_on_c, 0, 86, 100
2, 204480, Note_on_c, 0, 75, 100
2, 204480, Note_on_c, 0, 73, 100
2, 204480, Note_on_c, 0, 61, 100
2, 204480, Note_on_c, 0, 108, 100
2, 204720, Note_on_c, 0, 100, 0
2, 204720, Note_on_c, 0, 98, 0
2, 204720, Note_on_c, 0, 88, 0
2, 204720, Note_on_c, 0, 86, 0
2, 204720, Note_on_c, 0, 75, 0
2, 204720, Note_on_c, 0, 73, 0
2, 204720, Note_on_c, 0, 61, 0
2, 204800, Note_on_c, 0, 108, 0
2, 204960, Note_on_c, 0, 108, 100
2, 205280, Note_on_c, 0, 108, 0
2, 205440, Note_on_c, 0, 97, 100
2, 205440, Note_on_c, 0, 108, 100
2, 205680, Note_on_c, 0, 97, 0
2, 205760, Note_on_c, 0, 108, 0
2, 205920, Note_on_c, 0, 99, 100
2, 205920, Note_on_c, 0, 97, 100
2, 205920, Note_on_c, 0, 87, 100
2, 205920, Note_on_c, 0, 85, 100
2, 205920, Note_on_c, 0, 74, 100
2, 205920, Note_on_c, 0, 72, 100
2, 205920, Note_on_c, 0, 60, 100
2, 205920, Note_on_c, 0, 108, 100
2, 206160, Note_on_c, 0, 99, 0
2, 206160, Note_on_c, 0, 97, 0
2, 206160, Note_on_c, 0, 87, 0
2, 206160, Note_on_c, 0, 85, 0
2, 206160, Note_on_c, 0, 74, 0
2, 206160, Note_on_c, 0, 72, 0
2, 206160, Note_on_c, 0, 60, 0
2, 206240, Note_on_c, 0, 108, 0
2, 206400, Note_on_c, 0, 97, 100
2, 206400, Note_on_c, 0, 108, 100
2, 206640, Note_on_c, 0, 97, 0
2, 206880, Note_on_c, 0, 100, 100
2, 206880, Note_on_c, 0, 98, 100
2, 206880, Note_on_c, 0, 88, 100
2, 206880, Note_on_c, 0, 86, 100
2, 206880, Note_on_c, 0, 75, 100
2, 206880, Note_on_c, 0, 73, 100
2, 206880, Note_on_c, 0, 61, 100
2, 207440, Note_on_c, 0, 108, 0
2, 208320, Note_on_c, 0, 100, 0
2, 208320, Note_on_c, 0, 98, 0
2, 208320, Note_on_c, 0, 88, 0
2, 208320, Note_on_c, 0, 86, 0
2, 208320, Note_on_c, 0, 75, 0
2, 208320, Note_on_c, 0, 73, 0
2, 208320, Note_on_c, 0, 61, 0
2, 209760, Note_on_c, 0, 108, 100
2, 210000, Note_on_c, 0, 108, 0
2, 210240, Note_on_c, 0, 108, 100
2, 210480, Note_on_c, 0, 108, 0
2, 210720, Note_on_c, 0, 108, 100
2, 210960, Note_on_c, 0, 108, 0
2, 211170, Note_on_c, 0, 106, 0
2, 211170, Note_on_c, 0, 94, 0
2, 211170, Note_on_c, 0, 70, 0
2, 211170, Note_on_c, 0, 82, 0
2, 211170, Note_on_c, 0, 105, 100
2, 211170, Note_on_c, 0, 93, 100
2, 211170, Note_on_c, 0, 69, 100
2, 211170, Note_on_c, 0, 81, 100
2, 211200, Note_on_c, 0, 100, 100
2, 211200, Note_on_c, 0, 99, 100
2, 211200, Note_on_c, 0, 88, 100
2, 211200, Note_on_c, 0, 87, 100
2, 211200, Note_on_c, 0, 75, 100
2, 211200, Note_on_c, 0, 74, 100
2, 211200, Note_on_c, 0, 62, 100
2, 211200, Note_on_c, 0, 108, 100
2, 211520, Note_on_c, 0, 108, 0
2, 211680, Note_on_c, 0, 108, 100
2, 212000, Note_on_c, 0, 108, 0
2, 212160, Note_on_c, 0, 100, 0
2, 212160, Note_on_c, 0, 99, 0
2, 212160, Note_on_c, 0, 88, 0
2, 212160, Note_on_c, 0, 87, 0
2, 212160, Note_on_c, 0, 75, 0
2, 212160, Note_on_c, 0, 74, 0
2, 212160, Note_on_c, 0, 62, 0
2, 212160, Note_on_c, 0, 100, 100
2, 212160, Note_on_c, 0, 99, 100
2, 212160, Note_on_c, 0, 88, 100
2, 212160, Note_on_c, 0, 87, 100
2, 212160, Note_on_c, 0, 75, 100
2, 212160, Note_on_c, 0, 74, 100
2, 212160, Note_on_c, 0, 62, 100
2, 212160, Note_on_c, 0, 108, 100
2, 212400, Note_on_c, 0, 100, 0
2, 212400, Note_on_c, 0, 99, 0
2, 212400, Note_on_c, 0, 88, 0
2, 212400, Note_on_c, 0, 87, 0
2, 212400, Note_on_c, 0, 75, 0
2, 212400, Note_on_c, 0, 74, 0
2, 212400, Note_on_c, 0, 62, 0
2, 212400, Note_on_c, 0, 108, 0
2, 212640, Note_on_c, 0, 108, 100
2, 212880, Note_on_c, 0, 108, 0
2, 213120, Note_on_c, 0, 98, 100
2, 213120, Note_on_c, 0, 108, 100
2, 213360, Note_on_c, 0, 98, 0
2, 213600, Note_on_c, 0, 99, 100
2, 213600, Note_on_c, 0, 98, 100
2, 213600, Note_on_c, 0, 87, 100
2, 213600, Note_on_c, 0, 86, 100
2, 213600, Note_on_c, 0, 74, 100
2, 213600, Note_on_c, 0, 73, 100
2, 213600, Note_on_c, 0, 61, 100
2, 213840, Note_on_c, 0, 108, 0
2, 213840, Note_on_c, 0, 99, 0
2, 213840, Note_on_c, 0, 98, 0
2, 213840, Note_on_c, 0, 87, 0
2, 213840, Note_on_c, 0, 86, 0
2, 213840, Note_on_c, 0, 74, 0
2, 213840, Note_on_c, 0, 73, 0
2, 213840, Note_on_c, 0, 61, 0
2, 214080, Note_on_c, 0, 98, 100
2, 214080, Note_on_c, 0, 108, 100
2, 214320, Note_on_c, 0, 98, 0
2, 214320, Note_on_c, 0, 108, 0
2, 214530, Note_on_c, 0, 105, 0
2, 214530, Note_on_c, 0, 93, 0
2, 214530, Note_on_c, 0, 69, 0
2, 214530, Note_on_c, 0, 81, 0
2, 214530, Note_on_c, 0, 106, 100
2, 214530, Note_on_c, 0, 94, 100
2, 214530, Note_on_c, 0, 70, 100
2, 214530, Note_on_c, 0, 82, 100
2, 214560, Note_on_c, 0, 100, 100
2, 214560, Note_on_c, 0, 98, 100
2, 214560, Note_on_c, 0, 88, 100
2, 214560, Note_on_c, 0, 86, 100
2, 214560, Note_on_c, 0, 75, 100
2, 214560, Note_on_c, 0, 73, 100
2, 214560, Note_on_c, 0, 61, 100
2, 214560, Note_on_c, 0, 108, 100
2, 215120, Note_on_c, 0, 108, 0
2, 215520, Note_on_c, 0, 108, 100
2, 215760, Note_on_c, 0, 108, 0
2, 216000, Note_on_c, 0, 100, 0
2, 216000, Note_on_c, 0, 98, 0
2, 216000, Note_on_c, 0, 88, 0
2, 216000, Note_on_c, 0, 86, 0
2, 216000, Note_on_c, 0, 75, 0
2, 216000, Note_on_c, 0, 73, 0
2, 216000, Note_on_c, 0, 61, 0
2, 216000, Note_on_c, 0, 100, 100
2, 216000, Note_on_c, 0, 98, 100
2, 216000, Note_on_c, 0, 88, 100
2, 216000, Note_on_c, 0, 86, 100
2, 216000, Note_on_c, 0, 75, 100
2, 216000, Note_on_c, 0, 73, 100
2, 216000, Note_on_c, 0, 61, 100
2, 216000, Note_on_c, 0, 108, 100
2, 216240, Note_on_c, 0, 100, 0
2, 216240, Note_on_c, 0, 98, 0
2, 216240, Note_on_c, 0, 88, 0
2, 216240, Note_on_c, 0, 86, 0
2, 216240, Note_on_c, 0, 75, 0
2, 216240, Note_on_c, 0, 73, 0
2, 216240, Note_on_c, 0, 61, 0
2, 216240, Note_on_c, 0, 108, 0
2, 216480, Note_on_c, 0, 108, 100
2, 216720, Note_on_c, 0, 108, 0
2, 216960, Note_on_c, 0, 96, 100
2, 216960, Note_on_c, 0, 108, 100
2, 217200, Note_on_c, 0, 96, 0
2, 217200, Note_on_c, 0, 108, 0
2, 217440, Note_on_c, 0, 98, 100
2, 217440, Note_on_c, 0, 96, 100
2, 217440, Note_on_c, 0, 86, 100
2, 217440, Note_on_c, 0, 84, 100
2, 217440, Note_on_c, 0, 73, 100
2, 217440, Note_on_c, 0, 72, 100
2, 217440, Note_on_c, 0, 60, 100
2, 217440, Note_on_c, 0, 108, 100
2, 217680, Note_on_c, 0, 98, 0
2, 217680, Note_on_c, 0, 96, 0
2, 217680, Note_on_c, 0, 86, 0
2, 217680, Note_on_c, 0, 84, 0
2, 217680, Note_on_c, 0, 73, 0
2, 217680, Note_on_c, 0, 72, 0
2, 217680, Note_on_c, 0, 60, 0
2, 217680, Note_on_c, 0, 108, 0
2, 217920, Note_on_c, 0, 96, 100
2, 217920, Note_on_c, 0, 108, 100
2, 218160, Note_on_c, 0, 96, 0
2, 218240, Note_on_c, 0, 108, 0
2, 218370, Note_on_c, 0, 105, 100
2, 218370, Note_on_c, 0, 93, 100
2, 218370, Note_on_c, 0, 69, 100
2, 218370, Note_on_c, 0, 81, 100
2, 218400, Note_on_c, 0, 97, 100
2, 218400, Note_on_c, 0, 99, 100
2, 218400, Note_on_c, 0, 85, 100
2, 218400, Note_on_c, 0, 87, 100
2, 218400, Note_on_c, 0, 72, 100
2, 218400, Note_on_c, 0, 74, 100
2, 218400, Note_on_c, 0, 60, 100
2, 218400, Note_on_c, 0, 108, 100
2, 218720, Note_on_c, 0, 108, 0
2, 218880, Text_t, "[chorus]"
2, 218880, Note_on_c, 0, 108, 100
2, 219840, Note_on_c, 0, 97, 0
2, 219840, Note_on_c, 0, 99, 0
2, 219840, Note_on_c, 0, 85, 0
2, 219840, Note_on_c, 0, 87, 0
2, 219840, Note_on_c, 0, 72, 0
2, 219840, Note_on_c, 0, 74, 0
2, 219840, Note_on_c, 0, 60, 0
2, 219840, Note_on_c, 0, 108, 0
2, 219840, Note_on_c, 0, 97, 100
2, 219840, Note_on_c, 0, 99, 100
2, 219840, Note_on_c, 0, 85, 100
2, 219840, Note_on_c, 0, 87, 100
2, 219840, Note_on_c, 0, 72, 100
2, 219840, Note_on_c, 0, 74, 100
2, 219840, Note_on_c, 0, 60, 100
2, 220080, Note_on_c, 0, 97, 0
2, 220080, Note_on_c, 0, 99, 0
2, 220080, Note_on_c, 0, 85, 0
2, 220080, Note_on_c, 0, 87, 0
2, 220080, Note_on_c, 0, 72, 0
2, 220080, Note_on_c, 0, 74, 0
2, 220080, Note_on_c, 0, 60, 0
2, 220800, Note_on_c, 0, 98, 100
2, 220800, Note_on_c, 0, 108, 100
2, 221040, Note_on_c, 0, 98, 0
2, 221120, Note_on_c, 0, 108, 0
2, 221280, Note_on_c, 0, 99, 100
2, 221280, Note_on_c, 0, 98, 100
2, 221280, Note_on_c, 0, 87, 100
2, 221280, Note_on_c, 0, 86, 100
2, 221280, Note_on_c, 0, 74, 100
2, 221280, Note_on_c, 0, 73, 100
2, 221280, Note_on_c, 0, 61, 100
2, 221280, Note_on_c, 0, 108, 100
2, 221520, Note_on_c, 0, 99, 0
2, 221520, Note_on_c, 0, 98, 0
2, 221520, Note_on_c, 0, 87, 0
2, 221520, Note_on_c, 0, 86, 0
2, 221520, Note_on_c, 0, 74, 0
2, 221520, Note_on_c, 0, 73, 0
2, 221520, Note_on_c, 0, 61, 0
2, 221760, Note_on_c, 0, 98, 100
2, 221920, Note_on_c, 0, 108, 0
2, 222000, Note_on_c, 0, 98, 0
2, 222240, Note_on_c, 0, 98, 100
2, 222240, Note_on_c, 0, 100, 100
2, 222240, Note_on_c, 0, 86, 100
2, 222240, Note_on_c, 0, 88, 100
2, 222240, Note_on_c, 0, 73, 100
2, 222240, Note_on_c, 0, 75, 100
2, 222240, Note_on_c, 0, 62, 100
2, 222240, Note_on_c, 0, 108, 100
2, 223200, Note_on_c, 0, 108, 0
2, 223680, Note_on_c, 0, 98, 0
2, 223680, Note_on_c, 0, 100, 0
2, 223680, Note_on_c, 0, 86, 0
2, 223680, Note_on_c, 0, 88, 0
2, 223680, Note_on_c, 0, 73, 0
2, 223680, Note_on_c, 0, 75, 0
2, 223680, Note_on_c, 0, 62, 0
2, 223680, Note_on_c, 0, 100, 100
2, 223680, Note_on_c, 0, 98, 100
2, 223680, Note_on_c, 0, 88, 100
2, 223680, Note_on_c, 0, 86, 100
2, 223680, Note_on_c, 0, 75, 100
2, 223680, Note_on_c, 0, 73, 100
2, 223680, Note_on_c, 0, 62, 100
2, 223920, Note_on_c, 0, 100, 0
2, 223920, Note_on_c, 0, 98, 0
2, 223920, Note_on_c, 0, 88, 0
2, 223920, Note_on_c, 0, 86, 0
2, 223920, Note_on_c, 0, 75, 0
2, 223920, Note_on_c, 0, 73, 0
2, 223920, Note_on_c, 0, 62, 0
2, 224640, Note_on_c, 0, 96, 100
2, 224880, Note_on_c, 0, 96, 0
2, 225120, Note_on_c, 0, 98, 100
2, 225120, Note_on_c, 0, 96, 100
2, 225120, Note_on_c, 0, 86, 100
2, 225120, Note_on_c, 0, 84, 100
2, 225120, Note_on_c, 0, 73, 100
2, 225120, Note_on_c, 0, 72, 100
2, 225120, Note_on_c, 0, 60, 100
2, 225360, Note_on_c, 0, 98, 0
2, 225360, Note_on_c, 0, 96, 0
2, 225360, Note_on_c, 0, 86, 0
2, 225360, Note_on_c, 0, 84, 0
2, 225360, Note_on_c, 0, 73, 0
2, 225360, Note_on_c, 0, 72, 0
2, 225360, Note_on_c, 0, 60, 0
2, 225600, Note_on_c, 0, 96, 100
2, 225600, Note_on_c, 0, 108, 100
2, 225840, Note_on_c, 0, 96, 0
2, 225840, Note_on_c, 0, 108, 0
2, 226080, Note_on_c, 0, 97, 100
2, 226080, Note_on_c, 0, 99, 100
2, 226080, Note_on_c, 0, 85, 100
2, 226080, Note_on_c, 0, 87, 100
2, 226080, Note_on_c, 0, 72, 100
2, 226080, Note_on_c, 0, 74, 100
2, 226080, Note_on_c, 0, 60, 100
2, 226080, Note_on_c, 0, 108, 100
2, 226640, Note_on_c, 0, 108, 0
2, 226800, Note_on_c, 0, 108, 100
2, 227280, Note_on_c, 0, 108, 0
2, 227520, Note_on_c, 0, 97, 0
2, 227520, Note_on_c, 0, 99, 0
2, 227520, Note_on_c, 0, 85, 0
2, 227520, Note_on_c, 0, 87, 0
2, 227520, Note_on_c, 0, 72, 0
2, 227520, Note_on_c, 0, 74, 0
2, 227520, Note_on_c, 0, 60, 0
2, 227520, Note_on_c, 0, 97, 100
2, 227520, Note_on_c, 0, 99, 100
2, 227520, Note_on_c, 0, 85, 100
2, 227520, Note_on_c, 0, 87, 100
2, 227520, Note_on_c, 0, 72, 100
2, 227520, Note_on_c, 0, 74, 100
2, 227520, Note_on_c, 0, 60, 100
2, 227760, Note_on_c, 0, 97, 0
2, 227760, Note_on_c, 0, 99, 0
2, 227760, Note_on_c, 0, 85, 0
2, 227760, Note_on_c, 0, 87, 0
2, 227760, Note_on_c, 0, 72, 0
2, 227760, Note_on_c, 0, 74, 0
2, 227760, Note_on_c, 0, 60, 0
2, 228480, Note_on_c, 0, 98, 100
2, 228480, Note_on_c, 0, 108, 100
2, 228720, Note_on_c, 0, 98, 0
2, 228800, Note_on_c, 0, 108, 0
2, 228960, Note_on_c, 0, 99, 100
2, 228960, Note_on_c, 0, 98, 100
2, 228960, Note_on_c, 0, 87, 100
2, 228960, Note_on_c, 0, 86, 100
2, 228960, Note_on_c, 0, 74, 100
2, 228960, Note_on_c, 0, 73, 100
2, 228960, Note_on_c, 0, 61, 100
2, 228960, Note_on_c, 0, 108, 100
2, 230000, Note_on_c, 0, 108, 0
2, 230160, Note_on_c, 0, 99, 0
2, 230160, Note_on_c, 0, 98, 0
2, 230160, Note_on_c, 0, 87, 0
2, 230160, Note_on_c, 0, 86, 0
2, 230160, Note_on_c, 0, 74, 0
2, 230160, Note_on_c, 0, 73, 0
2, 230160, Note_on_c, 0, 61, 0
2, 230400, Text_t, "drum_half"
2, 230400, Note_on_c, 0, 97, 100
2, 230400, Note_on_c, 0, 96, 100
2, 230400, Note_on_c, 0, 85, 100
2, 230400, Note_on_c, 0, 84, 100
2, 230400, Note_on_c, 0, 73, 100
2, 230400, Note_on_c, 0, 72, 100
2, 230400, Note_on_c, 0, 60, 100
2, 230400, Note_on_c, 0, 108, 100
2, 232320, Text_t, "drum_normal"
2, 233280, Note_on_c, 0, 97, 0
2, 233280, Note_on_c, 0, 96, 0
2, 233280, Note_on_c, 0, 85, 0
2, 233280, Note_on_c, 0, 84, 0
2, 233280, Note_on_c, 0, 73, 0
2, 233280, Note_on_c, 0, 72, 0
2, 233280, Note_on_c, 0, 60, 0
2, 233280, Note_on_c, 0, 98, 100
2, 233280, Note_on_c, 0, 96, 100
2, 233280, Note_on_c, 0, 86, 100
2, 233280, Note_on_c, 0, 84, 100
2, 233280, Note_on_c, 0, 74, 100
2, 233280, Note_on_c, 0, 72, 100
2, 233280, Note_on_c, 0, 61, 100
2, 233520, Note_on_c, 0, 98, 0
2, 233520, Note_on_c, 0, 96, 0
2, 233520, Note_on_c, 0, 86, 0
2, 233520, Note_on_c, 0, 84, 0
2, 233520, Note_on_c, 0, 74, 0
2, 233520, Note_on_c, 0, 72, 0
2, 233520, Note_on_c, 0, 61, 0
2, 234000, Note_on_c, 0, 108, 0
2, 234240, Text_t, "drum_allbeat"
2, 234240, Note_on_c, 0, 100, 100
2, 234240, Note_on_c, 0, 98, 100
2, 234240, Note_on_c, 0, 88, 100
2, 234240, Note_on_c, 0, 86, 100
2, 234240, Note_on_c, 0, 75, 100
2, 234240, Note_on_c, 0, 73, 100
2, 234240, Note_on_c, 0, 62, 100
2, 234240, Note_on_c, 0, 108, 100
2, 235200, Text_t, "drum_double"
2, 236160, Text_t, "drum_normal"
2, 236640, Note_on_c, 0, 108, 0
2, 237840, Note_on_c, 0, 100, 0
2, 237840, Note_on_c, 0, 98, 0
2, 237840, Note_on_c, 0, 88, 0
2, 237840, Note_on_c, 0, 86, 0
2, 237840, Note_on_c, 0, 75, 0
2, 237840, Note_on_c, 0, 73, 0
2, 237840, Note_on_c, 0, 62, 0
2, 238050, Note_on_c, 0, 103, 100
2, 238050, Note_on_c, 0, 91, 100
2, 238050, Note_on_c, 0, 79, 100
2, 238050, Note_on_c, 0, 67, 100
2, 238080, Text_t, "drum_half"
2, 238080, Note_on_c, 0, 97, 100
2, 238080, Note_on_c, 0, 96, 100
2, 238080, Note_on_c, 0, 85, 100
2, 238080, Note_on_c, 0, 84, 100
2, 238080, Note_on_c, 0, 73, 100
2, 238080, Note_on_c, 0, 72, 100
2, 238080, Note_on_c, 0, 60, 100
2, 238080, Note_on_c, 0, 108, 100
2, 240000, Text_t, "drum_normal"
2, 240960, Note_on_c, 0, 97, 0
2, 240960, Note_on_c, 0, 96, 0
2, 240960, Note_on_c, 0, 85, 0
2, 240960, Note_on_c, 0, 84, 0
2, 240960, Note_on_c, 0, 73, 0
2, 240960, Note_on_c, 0, 72, 0
2, 240960, Note_on_c, 0, 60, 0
2, 240960, Note_on_c, 0, 98, 100
2, 240960, Note_on_c, 0, 96, 100
2, 240960, Note_on_c, 0, 86, 100
2, 240960, Note_on_c, 0, 84, 100
2, 240960, Note_on_c, 0, 74, 100
2, 240960, Note_on_c, 0, 72, 100
2, 240960, Note_on_c, 0, 61, 100
2, 241200, Note_on_c, 0, 98, 0
2, 241200, Note_on_c, 0, 96, 0
2, 241200, Note_on_c, 0, 86, 0
2, 241200, Note_on_c, 0, 84, 0
2, 241200, Note_on_c, 0, 74, 0
2, 241200, Note_on_c, 0, 72, 0
2, 241200, Note_on_c, 0, 61, 0
2, 241680, Note_on_c, 0, 108, 0
2, 241920, Text_t, "drum_half"
2, 241920, Note_on_c, 0, 100, 100
2, 241920, Note_on_c, 0, 98, 100
2, 241920, Note_on_c, 0, 88, 100
2, 241920, Note_on_c, 0, 86, 100
2, 241920, Note_on_c, 0, 75, 100
2, 241920, Note_on_c, 0, 73, 100
2, 241920, Note_on_c, 0, 62, 100
2, 241920, Note_on_c, 0, 108, 100
2, 243840, Text_t, "drum_normal"
2, 244560, Note_on_c, 0, 108, 0
2, 244800, Text_t, "drum_half"
2, 245730, Note_on_c, 0, 103, 0
2, 245730, Note_on_c, 0, 91, 0
2, 245730, Note_on_c, 0, 79, 0
2, 245730, Note_on_c, 0, 67, 0
2, 245760, Text_t, "sing_off"
2, 245760, Note_on_c, 0, 100, 0
2, 245760, Note_on_c, 0, 98, 0
2, 245760, Note_on_c, 0, 88, 0
2, 245760, Note_on_c, 0, 86, 0
2, 245760, Note_on_c, 0, 75, 0
2, 245760, Note_on_c, 0, 73, 0
2, 245760, Note_on_c, 0, 62, 0
2, 246240, Note_on_c, 0, 100, 100
2, 246240, Note_on_c, 0, 87, 100
2, 246240, Note_on_c, 0, 75, 100
2, 246240, Note_on_c, 0, 62, 100
2, 246480, Note_on_c, 0, 100, 0
2, 246480, Note_on_c, 0, 87, 0
2, 246480, Note_on_c, 0, 75, 0
2, 246480, Note_on_c, 0, 62, 0
2, 246720, Note_on_c, 0, 99, 100
2, 246720, Note_on_c, 0, 86, 100
2, 246720, Note_on_c, 0, 74, 100
2, 246960, Note_on_c, 0, 99, 0
2, 246960, Note_on_c, 0, 86, 0
2, 246960, Note_on_c, 0, 74, 0
2, 247200, Note_on_c, 0, 98, 100
2, 247200, Note_on_c, 0, 85, 100
2, 247200, Note_on_c, 0, 73, 100
2, 247440, Note_on_c, 0, 98, 0
2, 247440, Note_on_c, 0, 85, 0
2, 247440, Note_on_c, 0, 73, 0
2, 247680, Text_t, "drum_normal"
2, 247680, Note_on_c, 0, 99, 100
2, 247680, Note_on_c, 0, 87, 100
2, 247680, Note_on_c, 0, 74, 100
2, 247680, Note_on_c, 0, 61, 100
2, 247920, Note_on_c, 0, 99, 0
2, 247920, Note_on_c, 0, 87, 0
2, 247920, Note_on_c, 0, 74, 0
2, 247920, Note_on_c, 0, 61, 0
2, 248160, Note_on_c, 0, 98, 100
2, 248160, Note_on_c, 0, 86, 100
2, 248400, Note_on_c, 0, 98, 0
2, 248400, Note_on_c, 0, 86, 0
2, 248640, Text_t, "drum_half"
2, 248640, Note_on_c, 0, 97, 100
2, 248640, Note_on_c, 0, 85, 100
2, 248640, Note_on_c, 0, 73, 100
2, 248640, Note_on_c, 0, 60, 100
2, 248880, Note_on_c, 0, 97, 0
2, 248880, Note_on_c, 0, 85, 0
2, 248880, Note_on_c, 0, 73, 0
2, 248880, Note_on_c, 0, 60, 0
2, 249120, Note_on_c, 0, 96, 100
2, 249120, Note_on_c, 0, 84, 100
2, 249120, Note_on_c, 0, 72, 100
2, 249360, Note_on_c, 0, 96, 0
2, 249360, Note_on_c, 0, 84, 0
2, 249360, Note_on_c, 0, 72, 0
2, 249570, Note_on_c, 0, 105, 0
2, 249570, Note_on_c, 0, 93, 0
2, 249570, Note_on_c, 0, 69, 0
2, 249570, Note_on_c, 0, 81, 0
2, 249600, Text_t, "drum_normal"
2, 249600, Text_t, "[verse]"
2, 249600, Text_t, "[lighting (sweep)]"
2, 249600, Note_on_c, 0, 97, 100
2, 249600, Note_on_c, 0, 85, 100
2, 249600, Note_on_c, 0, 74, 100
2, 249600, Note_on_c, 0, 61, 100
2, 249840, Note_on_c, 0, 97, 0
2, 249840, Note_on_c, 0, 85, 0
2, 249840, Note_on_c, 0, 74, 0
2, 249840, Note_on_c, 0, 61, 0
2, 250080, Note_on_c, 0, 99, 100
2, 250080, Note_on_c, 0, 97, 100
2, 250080, Note_on_c, 0, 87, 100
2, 250080, Note_on_c, 0, 85, 100
2, 250080, Note_on_c, 0, 74, 100
2, 250080, Note_on_c, 0, 72, 100
2, 250080, Note_on_c, 0, 61, 100
2, 252480, Note_on_c, 0, 99, 0
2, 252480, Note_on_c, 0, 97, 0
2, 252480, Note_on_c, 0, 87, 0
2, 252480, Note_on_c, 0, 85, 0
2, 252480, Note_on_c, 0, 74, 0
2, 252480, Note_on_c, 0, 72, 0
2, 252480, Note_on_c, 0, 96, 100
2, 252720, Note_on_c, 0, 61, 0
2, 252720, Note_on_c, 0, 96, 0
2, 252960, Note_on_c, 0, 96, 100
2, 252960, Note_on_c, 0, 98, 100
2, 252960, Note_on_c, 0, 84, 100
2, 252960, Note_on_c, 0, 86, 100
2, 252960, Note_on_c, 0, 72, 100
2, 252960, Note_on_c, 0, 73, 100
2, 252960, Note_on_c, 0, 60, 100
2, 256080, Note_on_c, 0, 96, 0
2, 256080, Note_on_c, 0, 98, 0
2, 256080, Note_on_c, 0, 84, 0
2, 256080, Note_on_c, 0, 86, 0
2, 256080, Note_on_c, 0, 72, 0
2, 256080, Note_on_c, 0, 73, 0
2, 256080, Note_on_c, 0, 60, 0
2, 256320, Note_on_c, 0, 98, 100
2, 256320, Note_on_c, 0, 73, 100
2, 256560, Note_on_c, 0, 98, 0
2, 256560, Note_on_c, 0, 73, 0
2, 256800, Note_on_c, 0, 98, 100
2, 256800, Note_on_c, 0, 99, 100
2, 256800, Note_on_c, 0, 86, 100
2, 256800, Note_on_c, 0, 87, 100
2, 256800, Note_on_c, 0, 73, 100
2, 256800, Note_on_c, 0, 74, 100
2, 256800, Note_on_c, 0, 61, 100
2, 258240, Note_on_c, 0, 98, 0
2, 258240, Note_on_c, 0, 99, 0
2, 258240, Note_on_c, 0, 86, 0
2, 258240, Note_on_c, 0, 87, 0
2, 258240, Note_on_c, 0, 73, 0
2, 258240, Note_on_c, 0, 74, 0
2, 258240, Note_on_c, 0, 99, 100
2, 258240, Note_on_c, 0, 98, 100
2, 258240, Note_on_c, 0, 87, 100
2, 258240, Note_on_c, 0, 86, 100
2, 258240, Note_on_c, 0, 74, 100
2, 258240, Note_on_c, 0, 73, 100
2, 259200, Note_on_c, 0, 99, 0
2, 259200, Note_on_c, 0, 98, 0
2, 259200, Note_on_c, 0, 87, 0
2, 259200, Note_on_c, 0, 86, 0
2, 259200, Note_on_c, 0, 74, 0
2, 259200, Note_on_c, 0, 73, 0
2, 259200, Note_on_c, 0, 98, 100
2, 259200, Note_on_c, 0, 99, 100
2, 259200, Note_on_c, 0, 86, 100
2, 259200, Note_on_c, 0, 87, 100
2, 259200, Note_on_c, 0, 73, 100
2, 259200, Note_on_c, 0, 74, 100
2, 259440, Note_on_c, 0, 61, 0
2, 259440, Note_on_c, 0, 98, 0
2, 259440, Note_on_c, 0, 99, 0
2, 259440, Note_on_c, 0, 86, 0
2, 259440, Note_on_c, 0, 87, 0
2, 259440, Note_on_c, 0, 73, 0
2, 259440, Note_on_c, 0, 74, 0
2, 259680, Note_on_c, 0, 100, 100
2, 259680, Note_on_c, 0, 98, 100
2, 259680, Note_on_c, 0, 88, 100
2, 259680, Note_on_c, 0, 86, 100
2, 259680, Note_on_c, 0, 75, 100
2, 259680, Note_on_c, 0, 73, 100
2, 259680, Note_on_c, 0, 62, 100
2, 259920, Note_on_c, 0, 100, 0
2, 259920, Note_on_c, 0, 98, 0
2, 259920, Note_on_c, 0, 88, 0
2, 259920, Note_on_c, 0, 86, 0
2, 259920, Note_on_c, 0, 75, 0
2, 259920, Note_on_c, 0, 73, 0
2, 259920, Note_on_c, 0, 62, 0
2, 260640, Note_on_c, 0, 97, 100
2, 260640, Note_on_c, 0, 99, 100
2, 260640, Note_on_c, 0, 85, 100
2, 260640, Note_on_c, 0, 87, 100
2, 260640, Note_on_c, 0, 72, 100
2, 260640, Note_on_c, 0, 74, 100
2, 260640, Note_on_c, 0, 61, 100
2, 260880, Note_on_c, 0, 97, 0
2, 260880, Note_on_c, 0, 99, 0
2, 260880, Note_on_c, 0, 85, 0
2, 260880, Note_on_c, 0, 87, 0
2, 260880, Note_on_c, 0, 72, 0
2, 260880, Note_on_c, 0, 74, 0
2, 260880, Note_on_c, 0, 61, 0
2, 261090, Note_on_c, 0, 106, 0
2, 261090, Note_on_c, 0, 94, 0
2, 261090, Note_on_c, 0, 70, 0
2, 261090, Note_on_c, 0, 82, 0
2, 261090, Note_on_c, 0, 103, 100
2, 261090, Note_on_c, 0, 91, 100
2, 261090, Note_on_c, 0, 79, 100
2, 261090, Note_on_c, 0, 67, 100
2, 261090, Note_on_c, 0, 105, 100
2, 261090, Note_on_c, 0, 93, 100
2, 261090, Note_on_c, 0, 69, 100
2, 261090, Note_on_c, 0, 81, 100
2, 261600, Note_on_c, 0, 100, 100
2, 261600, Note_on_c, 0, 87, 100
2, 261600, Note_on_c, 0, 75, 100
2, 261600, Note_on_c, 0, 62, 100
2, 261840, Note_on_c, 0, 100, 0
2, 261840, Note_on_c, 0, 87, 0
2, 261840, Note_on_c, 0, 75, 0
2, 261840, Note_on_c, 0, 62, 0
2, 262080, Note_on_c, 0, 99, 100
2, 262080, Note_on_c, 0, 86, 100
2, 262080, Note_on_c, 0, 74, 100
2, 262320, Note_on_c, 0, 99, 0
2, 262320, Note_on_c, 0, 86, 0
2, 262320, Note_on_c, 0, 74, 0
2, 262560, Note_on_c, 0, 98, 100
2, 262560, Note_on_c, 0, 85, 100
2, 262560, Note_on_c, 0, 73, 100
2, 262800, Note_on_c, 0, 98, 0
2, 262800, Note_on_c, 0, 85, 0
2, 262800, Note_on_c, 0, 73, 0
2, 263040, Note_on_c, 0, 99, 100
2, 263040, Note_on_c, 0, 87, 100
2, 263040, Note_on_c, 0, 74, 100
2, 263040, Note_on_c, 0, 61, 100
2, 263280, Note_on_c, 0, 99, 0
2, 263280, Note_on_c, 0, 87, 0
2, 263280, Note_on_c, 0, 74, 0
2, 263280, Note_on_c, 0, 61, 0
2, 263520, Note_on_c, 0, 98, 100
2, 263520, Note_on_c, 0, 86, 100
2, 263760, Note_on_c, 0, 98, 0
2, 263760, Note_on_c, 0, 86, 0
2, 264000, Note_on_c, 0, 97, 100
2, 264000, Note_on_c, 0, 85, 100
2, 264000, Note_on_c, 0, 73, 100
2, 264000, Note_on_c, 0, 60, 100
2, 264240, Note_on_c, 0, 97, 0
2, 264240, Note_on_c, 0, 85, 0
2, 264240, Note_on_c, 0, 73, 0
2, 264240, Note_on_c, 0, 60, 0
2, 264480, Note_on_c, 0, 96, 100
2, 264480, Note_on_c, 0, 84, 100
2, 264480, Note_on_c, 0, 72, 100
2, 264720, Note_on_c, 0, 96, 0
2, 264720, Note_on_c, 0, 84, 0
2, 264720, Note_on_c, 0, 72, 0
2, 264930, Note_on_c, 0, 103, 0
2, 264930, Note_on_c, 0, 91, 0
2, 264930, Note_on_c, 0, 79, 0
2, 264930, Note_on_c, 0, 67, 0
2, 264960, Note_on_c, 0, 97, 100
2, 264960, Note_on_c, 0, 85, 100
2, 264960, Note_on_c, 0, 74, 100
2, 264960, Note_on_c, 0, 61, 100
2, 265200, Note_on_c, 0, 97, 0
2, 265200, Note_on_c, 0, 85, 0
2, 265200, Note_on_c, 0, 74, 0
2, 265200, Note_on_c, 0, 61, 0
2, 265440, Note_on_c, 0, 99, 100
2, 265440, Note_on_c, 0, 97, 100
2, 265440, Note_on_c, 0, 87, 100
2, 265440, Note_on_c, 0, 85, 100
2, 265440, Note_on_c, 0, 74, 100
2, 265440, Note_on_c, 0, 72, 100
2, 265440, Note_on_c, 0, 61, 100
2, 267600, Note_on_c, 0, 99, 0
2, 267600, Note_on_c, 0, 97, 0
2, 267600, Note_on_c, 0, 87, 0
2, 267600, Note_on_c, 0, 85, 0
2, 267600, Note_on_c, 0, 74, 0
2, 267600, Note_on_c, 0, 72, 0
2, 267840, Note_on_c, 0, 96, 100
2, 268080, Note_on_c, 0, 61, 0
2, 268080, Note_on_c, 0, 96, 0
2, 268320, Note_on_c, 0, 96, 100
2, 268320, Note_on_c, 0, 98, 100
2, 268320, Note_on_c, 0, 84, 100
2, 268320, Note_on_c, 0, 86, 100
2, 268320, Note_on_c, 0, 72, 100
2, 268320, Note_on_c, 0, 73, 100
2, 268320, Note_on_c, 0, 60, 100
2, 271440, Note_on_c, 0, 96, 0
2, 271440, Note_on_c, 0, 98, 0
2, 271440, Note_on_c, 0, 84, 0
2, 271440, Note_on_c, 0, 86, 0
2, 271440, Note_on_c, 0, 72, 0
2, 271440, Note_on_c, 0, 73, 0
2, 271440, Note_on_c, 0, 60, 0
2, 271680, Note_on_c, 0, 98, 100
2, 271920, Note_on_c, 0, 98, 0
2, 272160, Note_on_c, 0, 98, 100
2, 272160, Note_on_c, 0, 99, 100
2, 272160, Note_on_c, 0, 86, 100
2, 272160, Note_on_c, 0, 87, 100
2, 272160, Note_on_c, 0, 73, 100
2, 272160, Note_on_c, 0, 74, 100
2, 272160, Note_on_c, 0, 61, 100
2, 273600, Note_on_c, 0, 98, 0
2, 273600, Note_on_c, 0, 99, 0
2, 273600, Note_on_c, 0, 86, 0
2, 273600, Note_on_c, 0, 87, 0
2, 273600, Note_on_c, 0, 73, 0
2, 273600, Note_on_c, 0, 74, 0
2, 273600, Note_on_c, 0, 99, 100
2, 273600, Note_on_c, 0, 98, 100
2, 273600, Note_on_c, 0, 87, 100
2, 273600, Note_on_c, 0, 86, 100
2, 273600, Note_on_c, 0, 74, 100
2, 273600, Note_on_c, 0, 73, 100
2, 274560, Note_on_c, 0, 99, 0
2, 274560, Note_on_c, 0, 98, 0
2, 274560, Note_on_c, 0, 87, 0
2, 274560, Note_on_c, 0, 86, 0
2, 274560, Note_on_c, 0, 74, 0
2, 274560, Note_on_c, 0, 73, 0
2, 274560, Note_on_c, 0, 98, 100
2, 274560, Note_on_c, 0, 99, 100
2, 274560, Note_on_c, 0, 86, 100
2, 274560, Note_on_c, 0, 87, 100
2, 274560, Note_on_c, 0, 73, 100
2, 274560, Note_on_c, 0, 74, 100
2, 274800, Note_on_c, 0, 61, 0
2, 274800, Note_on_c, 0, 98, 0
2, 274800, Note_on_c, 0, 99, 0
2, 274800, Note_on_c, 0, 86, 0
2, 274800, Note_on_c, 0, 87, 0
2, 274800, Note_on_c, 0, 73, 0
2, 274800, Note_on_c, 0, 74, 0
2, 275040, Note_on_c, 0, 100, 100
2, 275040, Note_on_c, 0, 98, 100
2, 275040, Note_on_c, 0, 88, 100
2, 275040, Note_on_c, 0, 86, 100
2, 275040, Note_on_c, 0, 75, 100
2, 275040, Note_on_c, 0, 73, 100
2, 275040, Note_on_c, 0, 62, 100
2, 275280, Note_on_c, 0, 100, 0
2, 275280, Note_on_c, 0, 98, 0
2, 275280, Note_on_c, 0, 88, 0
2, 275280, Note_on_c, 0, 86, 0
2, 275280, Note_on_c, 0, 75, 0
2, 275280, Note_on_c, 0, 73, 0
2, 275280, Note_on_c, 0, 62, 0
2, 276000, Note_on_c, 0, 97, 100
2, 276000, Note_on_c, 0, 99, 100
2, 276000, Note_on_c, 0, 85, 100
2, 276000, Note_on_c, 0, 87, 100
2, 276000, Note_on_c, 0, 72, 100
2, 276000, Note_on_c, 0, 74, 100
2, 276000, Note_on_c, 0, 61, 100
2, 276240, Note_on_c, 0, 97, 0
2, 276240, Note_on_c, 0, 99, 0
2, 276240, Note_on_c, 0, 85, 0
2, 276240, Note_on_c, 0, 87, 0
2, 276240, Note_on_c, 0, 72, 0
2, 276240, Note_on_c, 0, 74, 0
2, 276240, Note_on_c, 0, 61, 0
2, 276450, Note_on_c, 0, 106, 100
2, 276450, Note_on_c, 0, 94, 100
2, 276450, Note_on_c, 0, 70, 100
2, 276450, Note_on_c, 0, 82, 100
2, 276480, Text_t, "drum_double"
2, 276960, Note_on_c, 0, 100, 100
2, 276960, Note_on_c, 0, 87, 100
2, 276960, Note_on_c, 0, 75, 100
2, 276960, Note_on_c, 0, 62, 100
2, 277200, Note_on_c, 0, 100, 0
2, 277200, Note_on_c, 0, 87, 0
2, 277200, Note_on_c, 0, 75, 0
2, 277200, Note_on_c, 0, 62, 0
2, 277440, Note_on_c, 0, 99, 100
2, 277440, Note_on_c, 0, 86, 100
2, 277440, Note_on_c, 0, 74, 100
2, 277680, Note_on_c, 0, 99, 0
2, 277680, Note_on_c, 0, 86, 0
2, 277680, Note_on_c, 0, 74, 0
2, 277920, Note_on_c, 0, 98, 100
2, 277920, Note_on_c, 0, 85, 100
2, 277920, Note_on_c, 0, 73, 100
2, 278160, Note_on_c, 0, 98, 0
2, 278160, Note_on_c, 0, 85, 0
2, 278160, Note_on_c, 0, 73, 0
2, 278400, Note_on_c, 0, 99, 100
2, 278400, Note_on_c, 0, 87, 100
2, 278400, Note_on_c, 0, 74, 100
2, 278400, Note_on_c, 0, 61, 100
2, 278640, Note_on_c, 0, 99, 0
2, 278640, Note_on_c, 0, 87, 0
2, 278640, Note_on_c, 0, 74, 0
2, 278640, Note_on_c, 0, 61, 0
2, 278880, Note_on_c, 0, 98, 100
2, 278880, Note_on_c, 0, 86, 100
2, 279120, Note_on_c, 0, 98, 0
2, 279120, Note_on_c, 0, 86, 0
2, 279360, Note_on_c, 0, 97, 100
2, 279360, Note_on_c, 0, 85, 100
2, 279360, Note_on_c, 0, 73, 100
2, 279360, Note_on_c, 0, 60, 100
2, 279600, Note_on_c, 0, 97, 0
2, 279600, Note_on_c, 0, 85, 0
2, 279600, Note_on_c, 0, 73, 0
2, 279600, Note_on_c, 0, 60, 0
2, 279840, Note_on_c, 0, 96, 100
2, 279840, Note_on_c, 0, 84, 100
2, 279840, Note_on_c, 0, 72, 100
2, 280080, Note_on_c, 0, 96, 0
2, 280080, Note_on_c, 0, 84, 0
2, 280080, Note_on_c, 0, 72, 0
2, 280290, Note_on_c, 0, 105, 0
2, 280290, Note_on_c, 0, 93, 0
2, 280290, Note_on_c, 0, 69, 0
2, 280290, Note_on_c, 0, 81, 0
2, 280320, Text_t, "solo_on"
2, 280320, Text_t, "[solo]"
2, 280320, Text_t, "wail_off"
2, 280320, Text_t, "drum_normal"
2, 280320, Note_on_c, 0, 96, 100
2, 280320, Note_on_c, 0, 84, 100
2, 280320, Note_on_c, 0, 73, 100
2, 280320, Note_on_c, 0, 61, 100
2, 280560, Note_on_c, 0, 96, 0
2, 280560, Note_on_c, 0, 84, 0
2, 280560, Note_on_c, 0, 73, 0
2, 280560, Note_on_c, 0, 61, 0
2, 280800, Note_on_c, 0, 98, 100
2, 280800, Note_on_c, 0, 86, 100
2, 280800, Note_on_c, 0, 74, 100
2, 280800, Note_on_c, 0, 61, 100
2, 282240, Note_on_c, 0, 98, 0
2, 282240, Note_on_c, 0, 86, 0
2, 282240, Note_on_c, 0, 74, 0
2, 282240, Note_on_c, 0, 61, 0
2, 282240, Note_on_c, 0, 98, 100
2, 282240, Note_on_c, 0, 86, 100
2, 282480, Note_on_c, 0, 98, 0
2, 282480, Note_on_c, 0, 86, 0
2, 282720, Note_on_c, 0, 100, 100
2, 282720, Note_on_c, 0, 98, 100
2, 282720, Note_on_c, 0, 87, 100
2, 282720, Note_on_c, 0, 75, 100
2, 282720, Note_on_c, 0, 62, 100
2, 282960, Note_on_c, 0, 100, 0
2, 282960, Note_on_c, 0, 98, 0
2, 282960, Note_on_c, 0, 87, 0
2, 282960, Note_on_c, 0, 75, 0
2, 282960, Note_on_c, 0, 62, 0
2, 283200, Note_on_c, 0, 99, 100
2, 283200, Note_on_c, 0, 98, 100
2, 283200, Note_on_c, 0, 86, 100
2, 283200, Note_on_c, 0, 74, 100
2, 283440, Note_on_c, 0, 99, 0
2, 283440, Note_on_c, 0, 98, 0
2, 283440, Note_on_c, 0, 86, 0
2, 283440, Note_on_c, 0, 74, 0
2, 283680, Note_on_c, 0, 98, 100
2, 283680, Note_on_c, 0, 97, 100
2, 283680, Note_on_c, 0, 85, 100
2, 283680, Note_on_c, 0, 73, 100
2, 283680, Note_on_c, 0, 61, 100
2, 285120, Note_on_c, 0, 98, 0
2, 285120, Note_on_c, 0, 97, 0
2, 285120, Note_on_c, 0, 85, 0
2, 285120, Note_on_c, 0, 73, 0
2, 285120, Note_on_c, 0, 61, 0
2, 285120, Note_on_c, 0, 97, 100
2, 285120, Note_on_c, 0, 85, 100
2, 285120, Note_on_c, 0, 73, 100
2, 285120, Note_on_c, 0, 61, 100
2, 285360, Note_on_c, 0, 97, 0
2, 285360, Note_on_c, 0, 85, 0
2, 285360, Note_on_c, 0, 73, 0
2, 285360, Note_on_c, 0, 61, 0
2, 285600, Note_on_c, 0, 96, 100
2, 285600, Note_on_c, 0, 84, 100
2, 285840, Note_on_c, 0, 96, 0
2, 285840, Note_on_c, 0, 84, 0
2, 286080, Note_on_c, 0, 98, 100
2, 286080, Note_on_c, 0, 86, 100
2, 286080, Note_on_c, 0, 74, 100
2, 286080, Note_on_c, 0, 61, 100
2, 286320, Note_on_c, 0, 98, 0
2, 286320, Note_on_c, 0, 86, 0
2, 286320, Note_on_c, 0, 74, 0
2, 286320, Note_on_c, 0, 61, 0
2, 286320, Note_on_c, 0, 97, 100
2, 286320, Note_on_c, 0, 85, 100
2, 286560, Note_on_c, 0, 97, 0
2, 286560, Note_on_c, 0, 85, 0
2, 286560, Note_on_c, 0, 96, 100
2, 286560, Note_on_c, 0, 84, 100
2, 286560, Note_on_c, 0, 72, 100
2, 286800, Note_on_c, 0, 96, 0
2, 286800, Note_on_c, 0, 84, 0
2, 286800, Note_on_c, 0, 72, 0
2, 287040, Note_on_c, 0, 99, 100
2, 287040, Note_on_c, 0, 98, 100
2, 287040, Note_on_c, 0, 87, 100
2, 287040, Note_on_c, 0, 75, 100
2, 287040, Note_on_c, 0, 62, 100
2, 287280, Note_on_c, 0, 99, 0
2, 287280, Note_on_c, 0, 98, 0
2, 287280, Note_on_c, 0, 87, 0
2, 287280, Note_on_c, 0, 75, 0
2, 287280, Note_on_c, 0, 62, 0
2, 287490, Note_on_c, 0, 106, 0
2, 287490, Note_on_c, 0, 94, 0
2, 287490, Note_on_c, 0, 70, 0
2, 287490, Note_on_c, 0, 82, 0
2, 287490, Note_on_c, 0, 105, 100
2, 287490, Note_on_c, 0, 93, 100
2, 287490, Note_on_c, 0, 69, 100
2, 287490, Note_on_c, 0, 81, 100
2, 287520, Note_on_c, 0, 98, 100
2, 287520, Note_on_c, 0, 86, 100
2, 287520, Note_on_c, 0, 74, 100
2, 287760, Note_on_c, 0, 98, 0
2, 287760, Note_on_c, 0, 86, 0
2, 287760, Note_on_c, 0, 74, 0
2, 287760, Note_on_c, 0, 97, 100
2, 288000, Note_on_c, 0, 97, 0
2, 288000, Note_on_c, 0, 96, 100
2, 288000, Note_on_c, 0, 84, 100
2, 288000, Note_on_c, 0, 72, 100
2, 288000, Note_on_c, 0, 60, 100
2, 288240, Note_on_c, 0, 96, 0
2, 288240, Note_on_c, 0, 84, 0
2, 288240, Note_on_c, 0, 72, 0
2, 288240, Note_on_c, 0, 60, 0
2, 288480, Note_on_c, 0, 98, 100
2, 288480, Note_on_c, 0, 86, 100
2, 288480, Note_on_c, 0, 74, 100
2, 288480, Note_on_c, 0, 62, 100
2, 288720, Note_on_c, 0, 98, 0
2, 288720, Note_on_c, 0, 86, 0
2, 288720, Note_on_c, 0, 74, 0
2, 288720, Note_on_c, 0, 62, 0
2, 288720, Note_on_c, 0, 97, 100
2, 288720, Note_on_c, 0, 85, 100
2, 288960, Note_on_c, 0, 97, 0
2, 288960, Note_on_c, 0, 85, 0
2, 289440, Note_on_c, 0, 96, 100
2, 289440, Note_on_c, 0, 84, 100
2, 289440, Note_on_c, 0, 72, 100
2, 289680, Note_on_c, 0, 96, 0
2, 289680, Note_on_c, 0, 84, 0
2, 289680, Note_on_c, 0, 72, 0
2, 289920, Note_on_c, 0, 98, 100
2, 289920, Note_on_c, 0, 86, 100
2, 289920, Note_on_c, 0, 74, 100
2, 289920, Note_on_c, 0, 62, 100
2, 290160, Note_on_c, 0, 98, 0
2, 290160, Note_on_c, 0, 86, 0
2, 290160, Note_on_c, 0, 74, 0
2, 290160, Note_on_c, 0, 62, 0
2, 290400, Note_on_c, 0, 97, 100
2, 290400, Note_on_c, 0, 85, 100
2, 290400, Note_on_c, 0, 73, 100
2, 290400, Note_on_c, 0, 61, 100
2, 290640, Note_on_c, 0, 97, 0
2, 290640, Note_on_c, 0, 85, 0
2, 290640, Note_on_c, 0, 73, 0
2, 290640, Note_on_c, 0, 61, 0
2, 290880, Note_on_c, 0, 96, 100
2, 290880, Note_on_c, 0, 84, 100
2, 290880, Note_on_c, 0, 72, 100
2, 290880, Note_on_c, 0, 60, 100
2, 291120, Note_on_c, 0, 96, 0
2, 291120, Note_on_c, 0, 84, 0
2, 291120, Note_on_c, 0, 72, 0
2, 291120, Note_on_c, 0, 60, 0
2, 291360, Note_on_c, 0, 97, 100
2, 291360, Note_on_c, 0, 85, 100
2, 291600, Note_on_c, 0, 97, 0
2, 291600, Note_on_c, 0, 85, 0
2, 291840, Note_on_c, 0, 96, 100
2, 291840, Note_on_c, 0, 84, 100
2, 291840, Note_on_c, 0, 72, 100
2, 291840, Note_on_c, 0, 60, 100
2, 292080, Note_on_c, 0, 96, 0
2, 292080, Note_on_c, 0, 84, 0
2, 292080, Note_on_c, 0, 72, 0
2, 292080, Note_on_c, 0, 60, 0
2, 292320, Note_on_c, 0, 97, 100
2, 292320, Note_on_c, 0, 85, 100
2, 292320, Note_on_c, 0, 73, 100
2, 292320, Note_on_c, 0, 61, 100
2, 292560, Note_on_c, 0, 97, 0
2, 292560, Note_on_c, 0, 85, 0
2, 292560, Note_on_c, 0, 73, 0
2, 292560, Note_on_c, 0, 61, 0
2, 292800, Note_on_c, 0, 98, 100
2, 292800, Note_on_c, 0, 86, 100
2, 292800, Note_on_c, 0, 72, 100
2, 292800, Note_on_c, 0, 62, 100
2, 293040, Note_on_c, 0, 98, 0
2, 293040, Note_on_c, 0, 86, 0
2, 293040, Note_on_c, 0, 72, 0
2, 293040, Note_on_c, 0, 62, 0
2, 293280, Note_on_c, 0, 99, 100
2, 293280, Note_on_c, 0, 87, 100
2, 293280, Note_on_c, 0, 73, 100
2, 293520, Note_on_c, 0, 99, 0
2, 293520, Note_on_c, 0, 87, 0
2, 293520, Note_on_c, 0, 73, 0
2, 293760, Note_on_c, 0, 100, 100
2, 293760, Note_on_c, 0, 99, 100
2, 293760, Note_on_c, 0, 88, 100
2, 293760, Note_on_c, 0, 74, 100
2, 293760, Note_on_c, 0, 62, 100
2, 294000, Note_on_c, 0, 100, 0
2, 294000, Note_on_c, 0, 99, 0
2, 294000, Note_on_c, 0, 88, 0
2, 294000, Note_on_c, 0, 74, 0
2, 294000, Note_on_c, 0, 62, 0
2, 294240, Note_on_c, 0, 99, 100
2, 294480, Note_on_c, 0, 99, 0
2, 294720, Note_on_c, 0, 97, 100
2, 294720, Note_on_c, 0, 85, 100
2, 294720, Note_on_c, 0, 72, 100
2, 294720, Note_on_c, 0, 60, 100
2, 294960, Note_on_c, 0, 97, 0
2, 294960, Note_on_c, 0, 85, 0
2, 294960, Note_on_c, 0, 72, 0
2, 294960, Note_on_c, 0, 60, 0
2, 295170, Note_on_c, 0, 70, 100
2, 295170, Note_on_c, 0, 106, 100
2, 295170, Note_on_c, 0, 94, 100
2, 295170, Note_on_c, 0, 82, 100
2, 295170, Note_on_c, 0, 103, 100
2, 295170, Note_on_c, 0, 91, 100
2, 295170, Note_on_c, 0, 79, 100
2, 295200, Note_on_c, 0, 98, 100
2, 295200, Note_on_c, 0, 86, 100
2, 295200, Note_on_c, 0, 73, 100
2, 295440, Note_on_c, 0, 98, 0
2, 295440, Note_on_c, 0, 86, 0
2, 295440, Note_on_c, 0, 73, 0
2, 296130, Note_on_c, 0, 67, 100
2, 296160, Note_on_c, 0, 99, 100
2, 296160, Note_on_c, 0, 100, 100
2, 296160, Note_on_c, 0, 87, 100
2, 296160, Note_on_c, 0, 74, 100
2, 296160, Note_on_c, 0, 61, 100
2, 296400, Note_on_c, 0, 99, 0
2, 296400, Note_on_c, 0, 100, 0
2, 296400, Note_on_c, 0, 87, 0
2, 296400, Note_on_c, 0, 74, 0
2, 296400, Note_on_c, 0, 61, 0
2, 296640, Note_on_c, 0, 99, 100
2, 296640, Note_on_c, 0, 100, 100
2, 296640, Note_on_c, 0, 87, 100
2, 296880, Note_on_c, 0, 99, 0
2, 296880, Note_on_c, 0, 100, 0
2, 296880, Note_on_c, 0, 87, 0
2, 297090, Note_on_c, 0, 103, 0
2, 297090, Note_on_c, 0, 91, 0
2, 297090, Note_on_c, 0, 79, 0
2, 297120, Note_on_c, 0, 100, 100
2, 297120, Note_on_c, 0, 98, 100
2, 297120, Note_on_c, 0, 86, 100
2, 297120, Note_on_c, 0, 73, 100
2, 297360, Note_on_c, 0, 100, 0
2, 297360, Note_on_c, 0, 98, 0
2, 297360, Note_on_c, 0, 86, 0
2, 297360, Note_on_c, 0, 73, 0
2, 297600, Note_on_c, 0, 99, 100
2, 297600, Note_on_c, 0, 100, 100
2, 297600, Note_on_c, 0, 87, 100
2, 297600, Note_on_c, 0, 74, 100
2, 297600, Note_on_c, 0, 61, 100
2, 297840, Note_on_c, 0, 99, 0
2, 297840, Note_on_c, 0, 100, 0
2, 297840, Note_on_c, 0, 87, 0
2, 297840, Note_on_c, 0, 74, 0
2, 297840, Note_on_c, 0, 61, 0
2, 298050, Note_on_c, 0, 67, 0
2, 298080, Note_on_c, 0, 100, 100
2, 298080, Note_on_c, 0, 98, 100
2, 298080, Note_on_c, 0, 86, 100
2, 298080, Note_on_c, 0, 73, 100
2, 298320, Note_on_c, 0, 100, 0
2, 298320, Note_on_c, 0, 98, 0
2, 298320, Note_on_c, 0, 86, 0
2, 298320, Note_on_c, 0, 73, 0
2, 298560, Note_on_c, 0, 99, 100
2, 298560, Note_on_c, 0, 100, 100
2, 298560, Note_on_c, 0, 87, 100
2, 298560, Note_on_c, 0, 74, 100
2, 298560, Note_on_c, 0, 61, 100
2, 298800, Note_on_c, 0, 99, 0
2, 298800, Note_on_c, 0, 100, 0
2, 298800, Note_on_c, 0, 87, 0
2, 298800, Note_on_c, 0, 74, 0
2, 298800, Note_on_c, 0, 61, 0
2, 299040, Note_on_c, 0, 100, 100
2, 299040, Note_on_c, 0, 88, 100
2, 299040, Note_on_c, 0, 75, 100
2, 299040, Note_on_c, 0, 62, 100
2, 299280, Note_on_c, 0, 100, 0
2, 299280, Note_on_c, 0, 88, 0
2, 299280, Note_on_c, 0, 75, 0
2, 299280, Note_on_c, 0, 62, 0
2, 299490, Note_on_c, 0, 105, 0
2, 299490, Note_on_c, 0, 93, 0
2, 299490, Note_on_c, 0, 69, 0
2, 299490, Note_on_c, 0, 81, 0
2, 299520, Note_on_c, 0, 99, 100
2, 299520, Note_on_c, 0, 86, 100
2, 299520, Note_on_c, 0, 74, 100
2, 299760, Note_on_c, 0, 99, 0
2, 299760, Note_on_c, 0, 86, 0
2, 299760, Note_on_c, 0, 74, 0
2, 300000, Note_on_c, 0, 98, 100
2, 300000, Note_on_c, 0, 97, 100
2, 300000, Note_on_c, 0, 87, 100
2, 300000, Note_on_c, 0, 73, 100
2, 300000, Note_on_c, 0, 61, 100
2, 300240, Note_on_c, 0, 98, 0
2, 300240, Note_on_c, 0, 97, 0
2, 300240, Note_on_c, 0, 87, 0
2, 300240, Note_on_c, 0, 73, 0
2, 300240, Note_on_c, 0, 61, 0
2, 300480, Note_on_c, 0, 97, 100
2, 300480, Note_on_c, 0, 87, 100
2, 300720, Note_on_c, 0, 97, 0
2, 300720, Note_on_c, 0, 87, 0
2, 300960, Note_on_c, 0, 97, 100
2, 300960, Note_on_c, 0, 86, 100
2, 300960, Note_on_c, 0, 73, 100
2, 301200, Note_on_c, 0, 97, 0
2, 301200, Note_on_c, 0, 86, 0
2, 301200, Note_on_c, 0, 73, 0
2, 301440, Note_on_c, 0, 97, 100
2, 301440, Note_on_c, 0, 87, 100
2, 301440, Note_on_c, 0, 74, 100
2, 301440, Note_on_c, 0, 99, 100
2, 301440, Note_on_c, 0, 61, 100
2, 301680, Note_on_c, 0, 97, 0
2, 301680, Note_on_c, 0, 87, 0
2, 301680, Note_on_c, 0, 74, 0
2, 301680, Note_on_c, 0, 99, 0
2, 301680, Note_on_c, 0, 61, 0
2, 301920, Note_on_c, 0, 97, 100
2, 301920, Note_on_c, 0, 86, 100
2, 301920, Note_on_c, 0, 73, 100
2, 302160, Note_on_c, 0, 97, 0
2, 302160, Note_on_c, 0, 86, 0
2, 302160, Note_on_c, 0, 73, 0
2, 302400, Note_on_c, 0, 97, 100
2, 302400, Note_on_c, 0, 87, 100
2, 302400, Note_on_c, 0, 74, 100
2, 302400, Note_on_c, 0, 99, 100
2, 302400, Note_on_c, 0, 62, 100
2, 302640, Note_on_c, 0, 97, 0
2, 302640, Note_on_c, 0, 87, 0
2, 302640, Note_on_c, 0, 74, 0
2, 302640, Note_on_c, 0, 99, 0
2, 302640, Note_on_c, 0, 62, 0
2, 302880, Note_on_c, 0, 98, 100
2, 303120, Note_on_c, 0, 98, 0
2, 303360, Note_on_c, 0, 99, 100
2, 303360, Note_on_c, 0, 87, 100
2, 303360, Note_on_c, 0, 74, 100
2, 303360, Note_on_c, 0, 62, 100
2, 303600, Note_on_c, 0, 99, 0
2, 303600, Note_on_c, 0, 87, 0
2, 303600, Note_on_c, 0, 74, 0
2, 303600, Note_on_c, 0, 62, 0
2, 303840, Note_on_c, 0, 99, 100
2, 303840, Note_on_c, 0, 87, 100
2, 303840, Note_on_c, 0, 74, 100
2, 304080, Note_on_c, 0, 99, 0
2, 304080, Note_on_c, 0, 87, 0
2, 304080, Note_on_c, 0, 74, 0
2, 304320, Note_on_c, 0, 99, 100
2, 304320, Note_on_c, 0, 87, 100
2, 304320, Note_on_c, 0, 73, 100
2, 304320, Note_on_c, 0, 61, 100
2, 304560, Note_on_c, 0, 99, 0
2, 304560, Note_on_c, 0, 87, 0
2, 304560, Note_on_c, 0, 73, 0
2, 304560, Note_on_c, 0, 61, 0
2, 304560, Note_on_c, 0, 98, 100
2, 304560, Note_on_c, 0, 86, 100
2, 304800, Note_on_c, 0, 98, 0
2, 304800, Note_on_c, 0, 86, 0
2, 304800, Note_on_c, 0, 97, 100
2, 304800, Note_on_c, 0, 85, 100
2, 305040, Note_on_c, 0, 97, 0
2, 305040, Note_on_c, 0, 85, 0
2, 305280, Note_on_c, 0, 99, 100
2, 305280, Note_on_c, 0, 87, 100
2, 305280, Note_on_c, 0, 74, 100
2, 305280, Note_on_c, 0, 62, 100
2, 305520, Note_on_c, 0, 99, 0
2, 305520, Note_on_c, 0, 87, 0
2, 305520, Note_on_c, 0, 74, 0
2, 305520, Note_on_c, 0, 62, 0
2, 305760, Note_on_c, 0, 98, 100
2, 305760, Note_on_c, 0, 86, 100
2, 305760, Note_on_c, 0, 73, 100
2, 305760, Note_on_c, 0, 61, 100
2, 306000, Note_on_c, 0, 98, 0
2, 306000, Note_on_c, 0, 86, 0
2, 306000, Note_on_c, 0, 73, 0
2, 306000, Note_on_c, 0, 61, 0
2, 306240, Note_on_c, 0, 97, 100
2, 306240, Note_on_c, 0, 85, 100
2, 306240, Note_on_c, 0, 72, 100
2, 306240, Note_on_c, 0, 60, 100
2, 306480, Note_on_c, 0, 97, 0
2, 306480, Note_on_c, 0, 85, 0
2, 306480, Note_on_c, 0, 72, 0
2, 306480, Note_on_c, 0, 60, 0
2, 306720, Note_on_c, 0, 97, 100
2, 306720, Note_on_c, 0, 85, 100
2, 306720, Note_on_c, 0, 72, 100
2, 306960, Note_on_c, 0, 97, 0
2, 306960, Note_on_c, 0, 85, 0
2, 306960, Note_on_c, 0, 72, 0
2, 307170, Note_on_c, 0, 70, 0
2, 307170, Note_on_c, 0, 106, 0
2, 307170, Note_on_c, 0, 94, 0
2, 307170, Note_on_c, 0, 82, 0
2, 307170, Note_on_c, 0, 105, 100
2, 307170, Note_on_c, 0, 93, 100
2, 307170, Note_on_c, 0, 69, 100
2, 307170, Note_on_c, 0, 81, 100
2, 307200, Text_t, "sing_on"
2, 307200, Note_on_c, 0, 97, 100
2, 307200, Note_on_c, 0, 85, 100
2, 307440, Note_on_c, 0, 97, 0
2, 307440, Note_on_c, 0, 85, 0
2, 307680, Note_on_c, 0, 100, 100
2, 307680, Note_on_c, 0, 87, 100
2, 307680, Note_on_c, 0, 75, 100
2, 307680, Note_on_c, 0, 62, 100
2, 307680, Note_on_c, 0, 108, 100
2, 307920, Note_on_c, 0, 100, 0
2, 307920, Note_on_c, 0, 87, 0
2, 307920, Note_on_c, 0, 75, 0
2, 307920, Note_on_c, 0, 62, 0
2, 307920, Note_on_c, 0, 108, 0
2, 308160, Note_on_c, 0, 99, 100
2, 308160, Note_on_c, 0, 86, 100
2, 308160, Note_on_c, 0, 74, 100
2, 308160, Note_on_c, 0, 108, 100
2, 308400, Note_on_c, 0, 99, 0
2, 308400, Note_on_c, 0, 86, 0
2, 308400, Note_on_c, 0, 74, 0
2, 308400, Note_on_c, 0, 108, 0
2, 308640, Note_on_c, 0, 98, 100
2, 308640, Note_on_c, 0, 85, 100
2, 308640, Note_on_c, 0, 73, 100
2, 308640, Note_on_c, 0, 108, 100
2, 308880, Note_on_c, 0, 98, 0
2, 308880, Note_on_c, 0, 85, 0
2, 308880, Note_on_c, 0, 73, 0
2, 308880, Note_on_c, 0, 108, 0
2, 309120, Note_on_c, 0, 99, 100
2, 309120, Note_on_c, 0, 87, 100
2, 309120, Note_on_c, 0, 74, 100
2, 309120, Note_on_c, 0, 61, 100
2, 309120, Note_on_c, 0, 108, 100
2, 309360, Note_on_c, 0, 99, 0
2, 309360, Note_on_c, 0, 87, 0
2, 309360, Note_on_c, 0, 74, 0
2, 309360, Note_on_c, 0, 61, 0
2, 309600, Note_on_c, 0, 98, 100
2, 309600, Note_on_c, 0, 86, 100
2, 309840, Note_on_c, 0, 98, 0
2, 309840, Note_on_c, 0, 86, 0
2, 309920, Note_on_c, 0, 108, 0
2, 310080, Note_on_c, 0, 97, 100
2, 310080, Note_on_c, 0, 85, 100
2, 310080, Note_on_c, 0, 73, 100
2, 310080, Note_on_c, 0, 60, 100
2, 310080, Note_on_c, 0, 108, 100
2, 310320, Note_on_c, 0, 97, 0
2, 310320, Note_on_c, 0, 85, 0
2, 310320, Note_on_c, 0, 73, 0
2, 310320, Note_on_c, 0, 60, 0
2, 310320, Note_on_c, 0, 108, 0
2, 310560, Note_on_c, 0, 96, 100
2, 310560, Note_on_c, 0, 84, 100
2, 310560, Note_on_c, 0, 72, 100
2, 310560, Note_on_c, 0, 108, 100
2, 310800, Note_on_c, 0, 96, 0
2, 310800, Note_on_c, 0, 84, 0
2, 310800, Note_on_c, 0, 72, 0
2, 310800, Note_on_c, 0, 108, 0
2, 311010, Note_on_c, 0, 105, 0
2, 311010, Note_on_c, 0, 93, 0
2, 311010, Note_on_c, 0, 69, 0
2, 311010, Note_on_c, 0, 81, 0
2, 311010, Note_on_c, 0, 103, 100
2, 311010, Note_on_c, 0, 91, 100
2, 311010, Note_on_c, 0, 79, 100
2, 311010, Note_on_c, 0, 67, 100
2, 311010, Note_on_c, 0, 106, 100
2, 311010, Note_on_c, 0, 94, 100
2, 311010, Note_on_c, 0, 70, 100
2, 311010, Note_on_c, 0, 82, 100
2, 311040, Text_t, "solo_off"
2, 311040, Text_t, "[verse]"
2, 311040, Note_on_c, 0, 99, 100
2, 311040, Note_on_c, 0, 97, 100
2, 311040, Note_on_c, 0, 87, 100
2, 311040, Note_on_c, 0, 85, 100
2, 311040, Note_on_c, 0, 74, 100
2, 311040, Note_on_c, 0, 72, 100
2, 311040, Note_on_c, 0, 60, 100
2, 311040, Note_on_c, 0, 108, 100
2, 311360, Note_on_c, 0, 108, 0
2, 311680, Note_on_c, 0, 108, 100
2, 312000, Note_on_c, 0, 99, 0
2, 312000, Note_on_c, 0, 97, 0
2, 312000, Note_on_c, 0, 87, 0
2, 312000, Note_on_c, 0, 85, 0
2, 312000, Note_on_c, 0, 74, 0
2, 312000, Note_on_c, 0, 72, 0
2, 312000, Note_on_c, 0, 60, 0
2, 312000, Note_on_c, 0, 99, 100
2, 312000, Note_on_c, 0, 97, 100
2, 312000, Note_on_c, 0, 87, 100
2, 312000, Note_on_c, 0, 85, 100
2, 312000, Note_on_c, 0, 74, 100
2, 312000, Note_on_c, 0, 72, 100
2, 312000, Note_on_c, 0, 60, 100
2, 312240, Note_on_c, 0, 99, 0
2, 312240, Note_on_c, 0, 97, 0
2, 312240, Note_on_c, 0, 87, 0
2, 312240, Note_on_c, 0, 85, 0
2, 312240, Note_on_c, 0, 74, 0
2, 312240, Note_on_c, 0, 72, 0
2, 312240, Note_on_c, 0, 60, 0
2, 312640, Note_on_c, 0, 108, 0
2, 312960, Note_on_c, 0, 97, 100
2, 313200, Note_on_c, 0, 97, 0
2, 313440, Note_on_c, 0, 99, 100
2, 313440, Note_on_c, 0, 97, 100
2, 313440, Note_on_c, 0, 87, 100
2, 313440, Note_on_c, 0, 85, 100
2, 313440, Note_on_c, 0, 74, 100
2, 313440, Note_on_c, 0, 72, 100
2, 313440, Note_on_c, 0, 60, 100
2, 313680, Note_on_c, 0, 99, 0
2, 313680, Note_on_c, 0, 97, 0
2, 313680, Note_on_c, 0, 87, 0
2, 313680, Note_on_c, 0, 85, 0
2, 313680, Note_on_c, 0, 74, 0
2, 313680, Note_on_c, 0, 72, 0
2, 313680, Note_on_c, 0, 60, 0
2, 313920, Note_on_c, 0, 97, 100
2, 314160, Note_on_c, 0, 97, 0
2, 314400, Note_on_c, 0, 99, 100
2, 314400, Note_on_c, 0, 97, 100
2, 314400, Note_on_c, 0, 87, 100
2, 314400, Note_on_c, 0, 85, 100
2, 314400, Note_on_c, 0, 74, 100
2, 314400, Note_on_c, 0, 72, 100
2, 314400, Note_on_c, 0, 60, 100
2, 315360, Note_on_c, 0, 108, 100
2, 315600, Note_on_c, 0, 108, 0
2, 315810, Note_on_c, 0, 103, 0
2, 315810, Note_on_c, 0, 91, 0
2, 315810, Note_on_c, 0, 79, 0
2, 315810, Note_on_c, 0, 67, 0
2, 315840, Note_on_c, 0, 99, 0
2, 315840, Note_on_c, 0, 97, 0
2, 315840, Note_on_c, 0, 87, 0
2, 315840, Note_on_c, 0, 85, 0
2, 315840, Note_on_c, 0, 74, 0
2, 315840, Note_on_c, 0, 72, 0
2, 315840, Note_on_c, 0, 60, 0
2, 315840, Note_on_c, 0, 108, 100
2, 316160, Note_on_c, 0, 108, 0
2, 316320, Note_on_c, 0, 108, 100
2, 316560, Note_on_c, 0, 108, 0
2, 316800, Note_on_c, 0, 108, 100
2, 317440, Note_on_c, 0, 108, 0
2, 317760, Note_on_c, 0, 108, 100
2, 318080, Note_on_c, 0, 108, 0
2, 318240, Note_on_c, 0, 108, 100
2, 318690, Note_on_c, 0, 106, 0
2, 318690, Note_on_c, 0, 94, 0
2, 318690, Note_on_c, 0, 70, 0
2, 318690, Note_on_c, 0, 82, 0
2, 318690, Note_on_c, 0, 105, 100
2, 318690, Note_on_c, 0, 93, 100
2, 318690, Note_on_c, 0, 69, 100
2, 318690, Note_on_c, 0, 81, 100
2, 318720, Note_on_c, 0, 108, 0
2, 318720, Note_on_c, 0, 99, 100
2, 318720, Note_on_c, 0, 97, 100
2, 318720, Note_on_c, 0, 87, 100
2, 318720, Note_on_c, 0, 85, 100
2, 318720, Note_on_c, 0, 74, 100
2, 318720, Note_on_c, 0, 72, 100
2, 318720, Note_on_c, 0, 60, 100
2, 319680, Note_on_c, 0, 99, 0
2, 319680, Note_on_c, 0, 97, 0
2, 319680, Note_on_c, 0, 87, 0
2, 319680, Note_on_c, 0, 85, 0
2, 319680, Note_on_c, 0, 74, 0
2, 319680, Note_on_c, 0, 72, 0
2, 319680, Note_on_c, 0, 60, 0
2, 319680, Note_on_c, 0, 99, 100
2, 319680, Note_on_c, 0, 97, 100
2, 319680, Note_on_c, 0, 87, 100
2, 319680, Note_on_c, 0, 85, 100
2, 319680, Note_on_c, 0, 74, 100
2, 319680, Note_on_c, 0, 72, 100
2, 319680, Note_on_c, 0, 60, 100
2, 319920, Note_on_c, 0, 99, 0
2, 319920, Note_on_c, 0, 97, 0
2, 319920, Note_on_c, 0, 87, 0
2, 319920, Note_on_c, 0, 85, 0
2, 319920, Note_on_c, 0, 74, 0
2, 319920, Note_on_c, 0, 72, 0
2, 319920, Note_on_c, 0, 60, 0
2, 320640, Note_on_c, 0, 97, 100
2, 320880, Note_on_c, 0, 97, 0
2, 321120, Note_on_c, 0, 99, 100
2, 321120, Note_on_c, 0, 97, 100
2, 321120, Note_on_c, 0, 87, 100
2, 321120, Note_on_c, 0, 85, 100
2, 321120, Note_on_c, 0, 74, 100
2, 321120, Note_on_c, 0, 72, 100
2, 321120, Note_on_c, 0, 60, 100
2, 321360, Note_on_c, 0, 99, 0
2, 321360, Note_on_c, 0, 97, 0
2, 321360, Note_on_c, 0, 87, 0
2, 321360, Note_on_c, 0, 85, 0
2, 321360, Note_on_c, 0, 74, 0
2, 321360, Note_on_c, 0, 72, 0
2, 321360, Note_on_c, 0, 60, 0
2, 321600, Note_on_c, 0, 97, 100
2, 321840, Note_on_c, 0, 97, 0
2, 322080, Note_on_c, 0, 99, 100
2, 322080, Note_on_c, 0, 97, 100
2, 322080, Note_on_c, 0, 87, 100
2, 322080, Note_on_c, 0, 85, 100
2, 322080, Note_on_c, 0, 74, 100
2, 322080, Note_on_c, 0, 72, 100
2, 322080, Note_on_c, 0, 60, 100
2, 323520, Note_on_c, 0, 99, 0
2, 323520, Note_on_c, 0, 97, 0
2, 323520, Note_on_c, 0, 87, 0
2, 323520, Note_on_c, 0, 85, 0
2, 323520, Note_on_c, 0, 74, 0
2, 323520, Note_on_c, 0, 72, 0
2, 323520, Note_on_c, 0, 60, 0
2, 323520, Note_on_c, 0, 108, 100
2, 323760, Note_on_c, 0, 108, 0
2, 324000, Note_on_c, 0, 108, 100
2, 324640, Note_on_c, 0, 108, 0
2, 324960, Note_on_c, 0, 108, 100
2, 325280, Note_on_c, 0, 108, 0
2, 325440, Note_on_c, 0, 108, 100
2, 325760, Note_on_c, 0, 108, 0
2, 325920, Note_on_c, 0, 108, 100
2, 326240, Note_on_c, 0, 108, 0
2, 326370, Note_on_c, 0, 105, 0
2, 326370, Note_on_c, 0, 93, 0
2, 326370, Note_on_c, 0, 69, 0
2, 326370, Note_on_c, 0, 81, 0
2, 326370, Note_on_c, 0, 106, 100
2, 326370, Note_on_c, 0, 94, 100
2, 326370, Note_on_c, 0, 70, 100
2, 326370, Note_on_c, 0, 82, 100
2, 326400, Note_on_c, 0, 100, 100
2, 326400, Note_on_c, 0, 98, 100
2, 326400, Note_on_c, 0, 88, 100
2, 326400, Note_on_c, 0, 86, 100
2, 326400, Note_on_c, 0, 75, 100
2, 326400, Note_on_c, 0, 73, 100
2, 326400, Note_on_c, 0, 61, 100
2, 326400, Note_on_c, 0, 108, 100
2, 326640, Note_on_c, 0, 108, 0
2, 326880, Note_on_c, 0, 108, 100
2, 327120, Note_on_c, 0, 108, 0
2, 327360, Note_on_c, 0, 100, 0
2, 327360, Note_on_c, 0, 98, 0
2, 327360, Note_on_c, 0, 88, 0
2, 327360, Note_on_c, 0, 86, 0
2, 327360, Note_on_c, 0, 75, 0
2, 327360, Note_on_c, 0, 73, 0
2, 327360, Note_on_c, 0, 61, 0
2, 327360, Note_on_c, 0, 100, 100
2, 327360, Note_on_c, 0, 98, 100
2, 327360, Note_on_c, 0, 88, 100
2, 327360, Note_on_c, 0, 86, 100
2, 327360, Note_on_c, 0, 75, 100
2, 327360, Note_on_c, 0, 73, 100
2, 327360, Note_on_c, 0, 61, 100
2, 327360, Note_on_c, 0, 108, 100
2, 327600, Note_on_c, 0, 100, 0
2, 327600, Note_on_c, 0, 98, 0
2, 327600, Note_on_c, 0, 88, 0
2, 327600, Note_on_c, 0, 86, 0
2, 327600, Note_on_c, 0, 75, 0
2, 327600, Note_on_c, 0, 73, 0
2, 327600, Note_on_c, 0, 61, 0
2, 328320, Note_on_c, 0, 108, 0
2, 328320, Note_on_c, 0, 96, 100
2, 328560, Note_on_c, 0, 96, 0
2, 328800, Note_on_c, 0, 98, 100
2, 328800, Note_on_c, 0, 96, 100
2, 328800, Note_on_c, 0, 86, 100
2, 328800, Note_on_c, 0, 84, 100
2, 328800, Note_on_c, 0, 73, 100
2, 328800, Note_on_c, 0, 72, 100
2, 328800, Note_on_c, 0, 60, 100
2, 329040, Note_on_c, 0, 98, 0
2, 329040, Note_on_c, 0, 96, 0
2, 329040, Note_on_c, 0, 86, 0
2, 329040, Note_on_c, 0, 84, 0
2, 329040, Note_on_c, 0, 73, 0
2, 329040, Note_on_c, 0, 72, 0
2, 329040, Note_on_c, 0, 60, 0
2, 329280, Note_on_c, 0, 96, 100
2, 329520, Note_on_c, 0, 96, 0
2, 329760, Note_on_c, 0, 100, 100
2, 329760, Note_on_c, 0, 98, 100
2, 329760, Note_on_c, 0, 88, 100
2, 329760, Note_on_c, 0, 86, 100
2, 329760, Note_on_c, 0, 75, 100
2, 329760, Note_on_c, 0, 73, 100
2, 329760, Note_on_c, 0, 61, 100
2, 331200, Note_on_c, 0, 100, 0
2, 331200, Note_on_c, 0, 98, 0
2, 331200, Note_on_c, 0, 88, 0
2, 331200, Note_on_c, 0, 86, 0
2, 331200, Note_on_c, 0, 75, 0
2, 331200, Note_on_c, 0, 73, 0
2, 331200, Note_on_c, 0, 61, 0
2, 331200, Note_on_c, 0, 108, 100
2, 331520, Note_on_c, 0, 108, 0
2, 331680, Note_on_c, 0, 108, 100
2, 332320, Note_on_c, 0, 108, 0
2, 332640, Note_on_c, 0, 108, 100
2, 332880, Note_on_c, 0, 108, 0
2, 333120, Note_on_c, 0, 108, 100
2, 333440, Note_on_c, 0, 108, 0
2, 333600, Note_on_c, 0, 108, 100
2, 333920, Note_on_c, 0, 108, 0
2, 334050, Note_on_c, 0, 106, 0
2, 334050, Note_on_c, 0, 94, 0
2, 334050, Note_on_c, 0, 70, 0
2, 334050, Note_on_c, 0, 82, 0
2, 334050, Note_on_c, 0, 105, 100
2, 334050, Note_on_c, 0, 93, 100
2, 334050, Note_on_c, 0, 69, 100
2, 334050, Note_on_c, 0, 81, 100
2, 334050, Note_on_c, 0, 103, 100
2, 334050, Note_on_c, 0, 91, 100
2, 334050, Note_on_c, 0, 79, 100
2, 334050, Note_on_c, 0, 67, 100
2, 334080, Note_on_c, 0, 99, 100
2, 334080, Note_on_c, 0, 97, 100
2, 334080, Note_on_c, 0, 87, 100
2, 334080, Note_on_c, 0, 85, 100
2, 334080, Note_on_c, 0, 74, 100
2, 334080, Note_on_c, 0, 72, 100
2, 334080, Note_on_c, 0, 60, 100
2, 334080, Note_on_c, 0, 108, 100
2, 334320, Note_on_c, 0, 108, 0
2, 334560, Note_on_c, 0, 108, 100
2, 335040, Note_on_c, 0, 99, 0
2, 335040, Note_on_c, 0, 97, 0
2, 335040, Note_on_c, 0, 87, 0
2, 335040, Note_on_c, 0, 85, 0
2, 335040, Note_on_c, 0, 74, 0
2, 335040, Note_on_c, 0, 72, 0
2, 335040, Note_on_c, 0, 60, 0
2, 335040, Note_on_c, 0, 108, 0
2, 335040, Note_on_c, 0, 99, 100
2, 335040, Note_on_c, 0, 97, 100
2, 335040, Note_on_c, 0, 87, 100
2, 335040, Note_on_c, 0, 85, 100
2, 335040, Note_on_c, 0, 74, 100
2, 335040, Note_on_c, 0, 72, 100
2, 335040, Note_on_c, 0, 60, 100
2, 335280, Note_on_c, 0, 99, 0
2, 335280, Note_on_c, 0, 97, 0
2, 335280, Note_on_c, 0, 87, 0
2, 335280, Note_on_c, 0, 85, 0
2, 335280, Note_on_c, 0, 74, 0
2, 335280, Note_on_c, 0, 72, 0
2, 335280, Note_on_c, 0, 60, 0
2, 336000, Note_on_c, 0, 97, 100
2, 336000, Note_on_c, 0, 108, 100
2, 336240, Note_on_c, 0, 97, 0
2, 336480, Note_on_c, 0, 99, 100
2, 336480, Note_on_c, 0, 97, 100
2, 336480, Note_on_c, 0, 87, 100
2, 336480, Note_on_c, 0, 85, 100
2, 336480, Note_on_c, 0, 74, 100
2, 336480, Note_on_c, 0, 72, 100
2, 336480, Note_on_c, 0, 60, 100
2, 336720, Note_on_c, 0, 108, 0
2, 336720, Note_on_c, 0, 99, 0
2, 336720, Note_on_c, 0, 97, 0
2, 336720, Note_on_c, 0, 87, 0
2, 336720, Note_on_c, 0, 85, 0
2, 336720, Note_on_c, 0, 74, 0
2, 336720, Note_on_c, 0, 72, 0
2, 336720, Note_on_c, 0, 60, 0
2, 336960, Note_on_c, 0, 97, 100
2, 336960, Note_on_c, 0, 108, 100
2, 337200, Note_on_c, 0, 97, 0
2, 337200, Note_on_c, 0, 108, 0
2, 337440, Note_on_c, 0, 99, 100
2, 337440, Note_on_c, 0, 97, 100
2, 337440, Note_on_c, 0, 87, 100
2, 337440, Note_on_c, 0, 85, 100
2, 337440, Note_on_c, 0, 74, 100
2, 337440, Note_on_c, 0, 72, 100
2, 337440, Note_on_c, 0, 60, 100
2, 337440, Note_on_c, 0, 108, 100
2, 337920, Note_on_c, 0, 108, 0
2, 338400, Note_on_c, 0, 108, 100
2, 338720, Note_on_c, 0, 108, 0
2, 338850, Note_on_c, 0, 103, 0
2, 338850, Note_on_c, 0, 91, 0
2, 338850, Note_on_c, 0, 79, 0
2, 338850, Note_on_c, 0, 67, 0
2, 338880, Note_on_c, 0, 99, 0
2, 338880, Note_on_c, 0, 97, 0
2, 338880, Note_on_c, 0, 87, 0
2, 338880, Note_on_c, 0, 85, 0
2, 338880, Note_on_c, 0, 74, 0
2, 338880, Note_on_c, 0, 72, 0
2, 338880, Note_on_c, 0, 60, 0
2, 340320, Note_on_c, 0, 108, 100
2, 340800, Note_on_c, 0, 108, 0
2, 341280, Note_on_c, 0, 108, 100
2, 341520, Note_on_c, 0, 108, 0
2, 341730, Note_on_c, 0, 105, 0
2, 341730, Note_on_c, 0, 93, 0
2, 341730, Note_on_c, 0, 69, 0
2, 341730, Note_on_c, 0, 81, 0
2, 341730, Note_on_c, 0, 106, 100
2, 341730, Note_on_c, 0, 94, 100
2, 341730, Note_on_c, 0, 70, 100
2, 341730, Note_on_c, 0, 82, 100
2, 341760, Note_on_c, 0, 100, 100
2, 341760, Note_on_c, 0, 99, 100
2, 341760, Note_on_c, 0, 88, 100
2, 341760, Note_on_c, 0, 87, 100
2, 341760, Note_on_c, 0, 75, 100
2, 341760, Note_on_c, 0, 74, 100
2, 341760, Note_on_c, 0, 62, 100
2, 341760, Note_on_c, 0, 108, 100
2, 342000, Note_on_c, 0, 108, 0
2, 342240, Note_on_c, 0, 108, 100
2, 342560, Note_on_c, 0, 108, 0
2, 342720, Note_on_c, 0, 100, 0
2, 342720, Note_on_c, 0, 99, 0
2, 342720, Note_on_c, 0, 88, 0
2, 342720, Note_on_c, 0, 87, 0
2, 342720, Note_on_c, 0, 75, 0
2, 342720, Note_on_c, 0, 74, 0
2, 342720, Note_on_c, 0, 62, 0
2, 342720, Note_on_c, 0, 100, 100
2, 342720, Note_on_c, 0, 99, 100
2, 342720, Note_on_c, 0, 88, 100
2, 342720, Note_on_c, 0, 87, 100
2, 342720, Note_on_c, 0, 75, 100
2, 342720, Note_on_c, 0, 74, 100
2, 342720, Note_on_c, 0, 62, 100
2, 342720, Note_on_c, 0, 108, 100
2, 342960, Note_on_c, 0, 100, 0
2, 342960, Note_on_c, 0, 99, 0
2, 342960, Note_on_c, 0, 88, 0
2, 342960, Note_on_c, 0, 87, 0
2, 342960, Note_on_c, 0, 75, 0
2, 342960, Note_on_c, 0, 74, 0
2, 342960, Note_on_c, 0, 62, 0
2, 343040, Note_on_c, 0, 108, 0
2, 343200, Note_on_c, 0, 108, 100
2, 343520, Note_on_c, 0, 108, 0
2, 343680, Note_on_c, 0, 98, 100
2, 343680, Note_on_c, 0, 108, 100
2, 343920, Note_on_c, 0, 98, 0
2, 344160, Note_on_c, 0, 99, 100
2, 344160, Note_on_c, 0, 98, 100
2, 344160, Note_on_c, 0, 87, 100
2, 344160, Note_on_c, 0, 86, 100
2, 344160, Note_on_c, 0, 74, 100
2, 344160, Note_on_c, 0, 73, 100
2, 344160, Note_on_c, 0, 61, 100
2, 344320, Note_on_c, 0, 108, 0
2, 344400, Note_on_c, 0, 99, 0
2, 344400, Note_on_c, 0, 98, 0
2, 344400, Note_on_c, 0, 87, 0
2, 344400, Note_on_c, 0, 86, 0
2, 344400, Note_on_c, 0, 74, 0
2, 344400, Note_on_c, 0, 73, 0
2, 344400, Note_on_c, 0, 61, 0
2, 344640, Note_on_c, 0, 98, 100
2, 344640, Note_on_c, 0, 108, 100
2, 344880, Note_on_c, 0, 98, 0
2, 344960, Note_on_c, 0, 108, 0
2, 345120, Note_on_c, 0, 100, 100
2, 345120, Note_on_c, 0, 99, 100
2, 345120, Note_on_c, 0, 88, 100
2, 345120, Note_on_c, 0, 87, 100
2, 345120, Note_on_c, 0, 75, 100
2, 345120, Note_on_c, 0, 74, 100
2, 345120, Note_on_c, 0, 62, 100
2, 345120, Note_on_c, 0, 108, 100
2, 346240, Note_on_c, 0, 108, 0
2, 346560, Note_on_c, 0, 100, 0
2, 346560, Note_on_c, 0, 99, 0
2, 346560, Note_on_c, 0, 88, 0
2, 346560, Note_on_c, 0, 87, 0
2, 346560, Note_on_c, 0, 75, 0
2, 346560, Note_on_c, 0, 74, 0
2, 346560, Note_on_c, 0, 62, 0
2, 348000, Note_on_c, 0, 108, 100
2, 348320, Note_on_c, 0, 108, 0
2, 348480, Note_on_c, 0, 108, 100
2, 348960, Note_on_c, 0, 108, 0
2, 349410, Note_on_c, 0, 106, 0
2, 349410, Note_on_c, 0, 94, 0
2, 349410, Note_on_c, 0, 70, 0
2, 349410, Note_on_c, 0, 82, 0
2, 349410, Note_on_c, 0, 105, 100
2, 349410, Note_on_c, 0, 93, 100
2, 349410, Note_on_c, 0, 69, 100
2, 349410, Note_on_c, 0, 81, 100
2, 349440, Note_on_c, 0, 100, 100
2, 349440, Note_on_c, 0, 98, 100
2, 349440, Note_on_c, 0, 88, 100
2, 349440, Note_on_c, 0, 86, 100
2, 349440, Note_on_c, 0, 75, 100
2, 349440, Note_on_c, 0, 73, 100
2, 349440, Note_on_c, 0, 61, 100
2, 349440, Note_on_c, 0, 108, 100
2, 349760, Note_on_c, 0, 108, 0
2, 349920, Note_on_c, 0, 108, 100
2, 350240, Note_on_c, 0, 108, 0
2, 350400, Note_on_c, 0, 100, 0
2, 350400, Note_on_c, 0, 98, 0
2, 350400, Note_on_c, 0, 88, 0
2, 350400, Note_on_c, 0, 86, 0
2, 350400, Note_on_c, 0, 75, 0
2, 350400, Note_on_c, 0, 73, 0
2, 350400, Note_on_c, 0, 61, 0
2, 350400, Note_on_c, 0, 100, 100
2, 350400, Note_on_c, 0, 98, 100
2, 350400, Note_on_c, 0, 88, 100
2, 350400, Note_on_c, 0, 86, 100
2, 350400, Note_on_c, 0, 75, 100
2, 350400, Note_on_c, 0, 73, 100
2, 350400, Note_on_c, 0, 61, 100
2, 350400, Note_on_c, 0, 108, 100
2, 350640, Note_on_c, 0, 100, 0
2, 350640, Note_on_c, 0, 98, 0
2, 350640, Note_on_c, 0, 88, 0
2, 350640, Note_on_c, 0, 86, 0
2, 350640, Note_on_c, 0, 75, 0
2, 350640, Note_on_c, 0, 73, 0
2, 350640, Note_on_c, 0, 61, 0
2, 350880, Note_on_c, 0, 108, 0
2, 351360, Note_on_c, 0, 97, 100
2, 351360, Note_on_c, 0, 108, 100
2, 351600, Note_on_c, 0, 97, 0
2, 351680, Note_on_c, 0, 108, 0
2, 351840, Note_on_c, 0, 99, 100
2, 351840, Note_on_c, 0, 97, 100
2, 351840, Note_on_c, 0, 87, 100
2, 351840, Note_on_c, 0, 85, 100
2, 351840, Note_on_c, 0, 74, 100
2, 351840, Note_on_c, 0, 72, 100
2, 351840, Note_on_c, 0, 60, 100
2, 351840, Note_on_c, 0, 108, 100
2, 352080, Note_on_c, 0, 99, 0
2, 352080, Note_on_c, 0, 97, 0
2, 352080, Note_on_c, 0, 87, 0
2, 352080, Note_on_c, 0, 85, 0
2, 352080, Note_on_c, 0, 74, 0
2, 352080, Note_on_c, 0, 72, 0
2, 352080, Note_on_c, 0, 60, 0
2, 352160, Note_on_c, 0, 108, 0
2, 352320, Note_on_c, 0, 97, 100
2, 352320, Note_on_c, 0, 108, 100
2, 352560, Note_on_c, 0, 97, 0
2, 352800, Note_on_c, 0, 100, 100
2, 352800, Note_on_c, 0, 98, 100
2, 352800, Note_on_c, 0, 88, 100
2, 352800, Note_on_c, 0, 86, 100
2, 352800, Note_on_c, 0, 75, 100
2, 352800, Note_on_c, 0, 73, 100
2, 352800, Note_on_c, 0, 61, 100
2, 352960, Note_on_c, 0, 108, 0
2, 354240, Note_on_c, 0, 100, 0
2, 354240, Note_on_c, 0, 98, 0
2, 354240, Note_on_c, 0, 88, 0
2, 354240, Note_on_c, 0, 86, 0
2, 354240, Note_on_c, 0, 75, 0
2, 354240, Note_on_c, 0, 73, 0
2, 354240, Note_on_c, 0, 61, 0
2, 355680, Note_on_c, 0, 108, 100
2, 356000, Note_on_c, 0, 108, 0
2, 356160, Note_on_c, 0, 108, 100
2, 356480, Note_on_c, 0, 108, 0
2, 356640, Note_on_c, 0, 108, 100
2, 356880, Note_on_c, 0, 108, 0
2, 357090, Note_on_c, 0, 105, 0
2, 357090, Note_on_c, 0, 93, 0
2, 357090, Note_on_c, 0, 69, 0
2, 357090, Note_on_c, 0, 81, 0
2, 357090, Note_on_c, 0, 106, 100
2, 357090, Note_on_c, 0, 94, 100
2, 357090, Note_on_c, 0, 70, 100
2, 357090, Note_on_c, 0, 82, 100
2, 357120, Note_on_c, 0, 100, 100
2, 357120, Note_on_c, 0, 99, 100
2, 357120, Note_on_c, 0, 88, 100
2, 357120, Note_on_c, 0, 87, 100
2, 357120, Note_on_c, 0, 75, 100
2, 357120, Note_on_c, 0, 74, 100
2, 357120, Note_on_c, 0, 62, 100
2, 357120, Note_on_c, 0, 108, 100
2, 357360, Note_on_c, 0, 108, 0
2, 357600, Note_on_c, 0, 108, 100
2, 357840, Note_on_c, 0, 108, 0
2, 358080, Note_on_c, 0, 100, 0
2, 358080, Note_on_c, 0, 99, 0
2, 358080, Note_on_c, 0, 88, 0
2, 358080, Note_on_c, 0, 87, 0
2, 358080, Note_on_c, 0, 75, 0
2, 358080, Note_on_c, 0, 74, 0
2, 358080, Note_on_c, 0, 62, 0
2, 358080, Note_on_c, 0, 100, 100
2, 358080, Note_on_c, 0, 99, 100
2, 358080, Note_on_c, 0, 88, 100
2, 358080, Note_on_c, 0, 87, 100
2, 358080, Note_on_c, 0, 75, 100
2, 358080, Note_on_c, 0, 74, 100
2, 358080, Note_on_c, 0, 62, 100
2, 358080, Note_on_c, 0, 108, 100
2, 358320, Note_on_c, 0, 100, 0
2, 358320, Note_on_c, 0, 99, 0
2, 358320, Note_on_c, 0, 88, 0
2, 358320, Note_on_c, 0, 87, 0
2, 358320, Note_on_c, 0, 75, 0
2, 358320, Note_on_c, 0, 74, 0
2, 358320, Note_on_c, 0, 62, 0
2, 358400, Note_on_c, 0, 108, 0
2, 358560, Note_on_c, 0, 108, 100
2, 358800, Note_on_c, 0, 108, 0
2, 359040, Note_on_c, 0, 98, 100
2, 359040, Note_on_c, 0, 108, 100
2, 359280, Note_on_c, 0, 98, 0
2, 359520, Note_on_c, 0, 108, 0
2, 359520, Note_on_c, 0, 99, 100
2, 359520, Note_on_c, 0, 98, 100
2, 359520, Note_on_c, 0, 87, 100
2, 359520, Note_on_c, 0, 86, 100
2, 359520, Note_on_c, 0, 74, 100
2, 359520, Note_on_c, 0, 73, 100
2, 359520, Note_on_c, 0, 61, 100
2, 359760, Note_on_c, 0, 99, 0
2, 359760, Note_on_c, 0, 98, 0
2, 359760, Note_on_c, 0, 87, 0
2, 359760, Note_on_c, 0, 86, 0
2, 359760, Note_on_c, 0, 74, 0
2, 359760, Note_on_c, 0, 73, 0
2, 359760, Note_on_c, 0, 61, 0
2, 360000, Note_on_c, 0, 98, 100
2, 360000, Note_on_c, 0, 108, 100
2, 360240, Note_on_c, 0, 98, 0
2, 360240, Note_on_c, 0, 108, 0
2, 360450, Note_on_c, 0, 106, 0
2, 360450, Note_on_c, 0, 94, 0
2, 360450, Note_on_c, 0, 70, 0
2, 360450, Note_on_c, 0, 82, 0
2, 360450, Note_on_c, 0, 105, 100
2, 360450, Note_on_c, 0, 93, 100
2, 360450, Note_on_c, 0, 69, 100
2, 360450, Note_on_c, 0, 81, 100
2, 360480, Note_on_c, 0, 100, 100
2, 360480, Note_on_c, 0, 98, 100
2, 360480, Note_on_c, 0, 88, 100
2, 360480, Note_on_c, 0, 86, 100
2, 360480, Note_on_c, 0, 75, 100
2, 360480, Note_on_c, 0, 73, 100
2, 360480, Note_on_c, 0, 61, 100
2, 360480, Note_on_c, 0, 108, 100
2, 361120, Note_on_c, 0, 108, 0
2, 361440, Note_on_c, 0, 108, 100
2, 361680, Note_on_c, 0, 108, 0
2, 361920, Note_on_c, 0, 100, 0
2, 361920, Note_on_c, 0, 98, 0
2, 361920, Note_on_c, 0, 88, 0
2, 361920, Note_on_c, 0, 86, 0
2, 361920, Note_on_c, 0, 75, 0
2, 361920, Note_on_c, 0, 73, 0
2, 361920, Note_on_c, 0, 61, 0
2, 361920, Note_on_c, 0, 100, 100
2, 361920, Note_on_c, 0, 98, 100
2, 361920, Note_on_c, 0, 88, 100
2, 361920, Note_on_c, 0, 86, 100
2, 361920, Note_on_c, 0, 75, 100
2, 361920, Note_on_c, 0, 73, 100
2, 361920, Note_on_c, 0, 61, 100
2, 361920, Note_on_c, 0, 108, 100
2, 362160, Note_on_c, 0, 100, 0
2, 362160, Note_on_c, 0, 98, 0
2, 362160, Note_on_c, 0, 88, 0
2, 362160, Note_on_c, 0, 86, 0
2, 362160, Note_on_c, 0, 75, 0
2, 362160, Note_on_c, 0, 73, 0
2, 362160, Note_on_c, 0, 61, 0
2, 362160, Note_on_c, 0, 108, 0
2, 362400, Note_on_c, 0, 108, 100
2, 362640, Note_on_c, 0, 108, 0
2, 362880, Note_on_c, 0, 96, 100
2, 362880, Note_on_c, 0, 108, 100
2, 363120, Note_on_c, 0, 96, 0
2, 363120, Note_on_c, 0, 108, 0
2, 363360, Note_on_c, 0, 98, 100
2, 363360, Note_on_c, 0, 96, 100
2, 363360, Note_on_c, 0, 86, 100
2, 363360, Note_on_c, 0, 84, 100
2, 363360, Note_on_c, 0, 73, 100
2, 363360, Note_on_c, 0, 72, 100
2, 363360, Note_on_c, 0, 60, 100
2, 363360, Note_on_c, 0, 108, 100
2, 363600, Note_on_c, 0, 98, 0
2, 363600, Note_on_c, 0, 96, 0
2, 363600, Note_on_c, 0, 86, 0
2, 363600, Note_on_c, 0, 84, 0
2, 363600, Note_on_c, 0, 73, 0
2, 363600, Note_on_c, 0, 72, 0
2, 363600, Note_on_c, 0, 60, 0
2, 363600, Note_on_c, 0, 108, 0
2, 363840, Note_on_c, 0, 96, 100
2, 363840, Note_on_c, 0, 108, 100
2, 364080, Note_on_c, 0, 96, 0
2, 364160, Note_on_c, 0, 108, 0
2, 364290, Note_on_c, 0, 106, 100
2, 364290, Note_on_c, 0, 94, 100
2, 364290, Note_on_c, 0, 70, 100
2, 364290, Note_on_c, 0, 82, 100
2, 364320, Note_on_c, 0, 97, 100
2, 364320, Note_on_c, 0, 99, 100
2, 364320, Note_on_c, 0, 85, 100
2, 364320, Note_on_c, 0, 87, 100
2, 364320, Note_on_c, 0, 72, 100
2, 364320, Note_on_c, 0, 74, 100
2, 364320, Note_on_c, 0, 60, 100
2, 364320, Note_on_c, 0, 108, 100
2, 364640, Note_on_c, 0, 108, 0
2, 364800, Text_t, "[chorus]"
2, 364800, Note_on_c, 0, 108, 100
2, 365760, Note_on_c, 0, 97, 0
2, 365760, Note_on_c, 0, 99, 0
2, 365760, Note_on_c, 0, 85, 0
2, 365760, Note_on_c, 0, 87, 0
2, 365760, Note_on_c, 0, 72, 0
2, 365760, Note_on_c, 0, 74, 0
2, 365760, Note_on_c, 0, 60, 0
2, 365760, Note_on_c, 0, 108, 0
2, 365760, Note_on_c, 0, 97, 100
2, 365760, Note_on_c, 0, 99, 100
2, 365760, Note_on_c, 0, 85, 100
2, 365760, Note_on_c, 0, 87, 100
2, 365760, Note_on_c, 0, 72, 100
2, 365760, Note_on_c, 0, 74, 100
2, 365760, Note_on_c, 0, 60, 100
2, 366000, Note_on_c, 0, 97, 0
2, 366000, Note_on_c, 0, 99, 0
2, 366000, Note_on_c, 0, 85, 0
2, 366000, Note_on_c, 0, 87, 0
2, 366000, Note_on_c, 0, 72, 0
2, 366000, Note_on_c, 0, 74, 0
2, 366000, Note_on_c, 0, 60, 0
2, 366720, Note_on_c, 0, 98, 100
2, 366720, Note_on_c, 0, 108, 100
2, 366960, Note_on_c, 0, 98, 0
2, 367040, Note_on_c, 0, 108, 0
2, 367200, Note_on_c, 0, 99, 100
2, 367200, Note_on_c, 0, 98, 100
2, 367200, Note_on_c, 0, 87, 100
2, 367200, Note_on_c, 0, 86, 100
2, 367200, Note_on_c, 0, 74, 100
2, 367200, Note_on_c, 0, 73, 100
2, 367200, Note_on_c, 0, 61, 100
2, 367200, Note_on_c, 0, 108, 100
2, 367440, Note_on_c, 0, 99, 0
2, 367440, Note_on_c, 0, 98, 0
2, 367440, Note_on_c, 0, 87, 0
2, 367440, Note_on_c, 0, 86, 0
2, 367440, Note_on_c, 0, 74, 0
2, 367440, Note_on_c, 0, 73, 0
2, 367440, Note_on_c, 0, 61, 0
2, 367680, Note_on_c, 0, 98, 100
2, 367840, Note_on_c, 0, 108, 0
2, 367920, Note_on_c, 0, 98, 0
2, 368160, Note_on_c, 0, 98, 100
2, 368160, Note_on_c, 0, 100, 100
2, 368160, Note_on_c, 0, 86, 100
2, 368160, Note_on_c, 0, 88, 100
2, 368160, Note_on_c, 0, 73, 100
2, 368160, Note_on_c, 0, 75, 100
2, 368160, Note_on_c, 0, 62, 100
2, 368160, Note_on_c, 0, 108, 100
2, 369280, Note_on_c, 0, 108, 0
2, 369600, Note_on_c, 0, 98, 0
2, 369600, Note_on_c, 0, 100, 0
2, 369600, Note_on_c, 0, 86, 0
2, 369600, Note_on_c, 0, 88, 0
2, 369600, Note_on_c, 0, 73, 0
2, 369600, Note_on_c, 0, 75, 0
2, 369600, Note_on_c, 0, 62, 0
2, 369600, Note_on_c, 0, 100, 100
2, 369600, Note_on_c, 0, 98, 100
2, 369600, Note_on_c, 0, 88, 100
2, 369600, Note_on_c, 0, 86, 100
2, 369600, Note_on_c, 0, 75, 100
2, 369600, Note_on_c, 0, 73, 100
2, 369600, Note_on_c, 0, 62, 100
2, 369840, Note_on_c, 0, 100, 0
2, 369840, Note_on_c, 0, 98, 0
2, 369840, Note_on_c, 0, 88, 0
2, 369840, Note_on_c, 0, 86, 0
2, 369840, Note_on_c, 0, 75, 0
2, 369840, Note_on_c, 0, 73, 0
2, 369840, Note_on_c, 0, 62, 0
2, 370560, Note_on_c, 0, 96, 100
2, 370800, Note_on_c, 0, 96, 0
2, 371040, Note_on_c, 0, 98, 100
2, 371040, Note_on_c, 0, 96, 100
2, 371040, Note_on_c, 0, 86, 100
2, 371040, Note_on_c, 0, 84, 100
2, 371040, Note_on_c, 0, 73, 100
2, 371040, Note_on_c, 0, 72, 100
2, 371040, Note_on_c, 0, 60, 100
2, 371280, Note_on_c, 0, 98, 0
2, 371280, Note_on_c, 0, 96, 0
2, 371280, Note_on_c, 0, 86, 0
2, 371280, Note_on_c, 0, 84, 0
2, 371280, Note_on_c, 0, 73, 0
2, 371280, Note_on_c, 0, 72, 0
2, 371280, Note_on_c, 0, 60, 0
2, 371520, Note_on_c, 0, 96, 100
2, 371520, Note_on_c, 0, 108, 100
2, 371760, Note_on_c, 0, 96, 0
2, 371760, Note_on_c, 0, 108, 0
2, 372000, Note_on_c, 0, 97, 100
2, 372000, Note_on_c, 0, 99, 100
2, 372000, Note_on_c, 0, 85, 100
2, 372000, Note_on_c, 0, 87, 100
2, 372000, Note_on_c, 0, 72, 100
2, 372000, Note_on_c, 0, 74, 100
2, 372000, Note_on_c, 0, 60, 100
2, 372000, Note_on_c, 0, 108, 100
2, 372560, Note_on_c, 0, 108, 0
2, 372720, Note_on_c, 0, 108, 100
2, 373200, Note_on_c, 0, 108, 0
2, 373440, Note_on_c, 0, 97, 0
2, 373440, Note_on_c, 0, 99, 0
2, 373440, Note_on_c, 0, 85, 0
2, 373440, Note_on_c, 0, 87, 0
2, 373440, Note_on_c, 0, 72, 0
2, 373440, Note_on_c, 0, 74, 0
2, 373440, Note_on_c, 0, 60, 0
2, 373440, Note_on_c, 0, 97, 100
2, 373440, Note_on_c, 0, 99, 100
2, 373440, Note_on_c, 0, 85, 100
2, 373440, Note_on_c, 0, 87, 100
2, 373440, Note_on_c, 0, 72, 100
2, 373440, Note_on_c, 0, 74, 100
2, 373440, Note_on_c, 0, 60, 100
2, 373680, Note_on_c, 0, 97, 0
2, 373680, Note_on_c, 0, 99, 0
2, 373680, Note_on_c, 0, 85, 0
2, 373680, Note_on_c, 0, 87, 0
2, 373680, Note_on_c, 0, 72, 0
2, 373680, Note_on_c, 0, 74, 0
2, 373680, Note_on_c, 0, 60, 0
2, 374400, Note_on_c, 0, 98, 100
2, 374400, Note_on_c, 0, 108, 100
2, 374640, Note_on_c, 0, 98, 0
2, 374720, Note_on_c, 0, 108, 0
2, 374880, Note_on_c, 0, 99, 100
2, 374880, Note_on_c, 0, 98, 100
2, 374880, Note_on_c, 0, 87, 100
2, 374880, Note_on_c, 0, 86, 100
2, 374880, Note_on_c, 0, 74, 100
2, 374880, Note_on_c, 0, 73, 100
2, 374880, Note_on_c, 0, 61, 100
2, 374880, Note_on_c, 0, 108, 100
2, 375920, Note_on_c, 0, 108, 0
2, 376080, Note_on_c, 0, 99, 0
2, 376080, Note_on_c, 0, 98, 0
2, 376080, Note_on_c, 0, 87, 0
2, 376080, Note_on_c, 0, 86, 0
2, 376080, Note_on_c, 0, 74, 0
2, 376080, Note_on_c, 0, 73, 0
2, 376080, Note_on_c, 0, 61, 0
2, 376290, Note_on_c, 0, 105, 0
2, 376290, Note_on_c, 0, 93, 0
2, 376290, Note_on_c, 0, 69, 0
2, 376290, Note_on_c, 0, 81, 0
2, 376320, Text_t, "drum_half"
2, 376320, Note_on_c, 0, 97, 100
2, 376320, Note_on_c, 0, 96, 100
2, 376320, Note_on_c, 0, 85, 100
2, 376320, Note_on_c, 0, 84, 100
2, 376320, Note_on_c, 0, 73, 100
2, 376320, Note_on_c, 0, 72, 100
2, 376320, Note_on_c, 0, 60, 100
2, 376320, Note_on_c, 0, 108, 100
2, 378240, Text_t, "drum_normal"
2, 379200, Note_on_c, 0, 97, 0
2, 379200, Note_on_c, 0, 96, 0
2, 379200, Note_on_c, 0, 85, 0
2, 379200, Note_on_c, 0, 84, 0
2, 379200, Note_on_c, 0, 73, 0
2, 379200, Note_on_c, 0, 72, 0
2, 379200, Note_on_c, 0, 60, 0
2, 379200, Note_on_c, 0, 98, 100
2, 379200, Note_on_c, 0, 96, 100
2, 379200, Note_on_c, 0, 86, 100
2, 379200, Note_on_c, 0, 84, 100
2, 379200, Note_on_c, 0, 74, 100
2, 379200, Note_on_c, 0, 72, 100
2, 379200, Note_on_c, 0, 61, 100
2, 379440, Note_on_c, 0, 98, 0
2, 379440, Note_on_c, 0, 96, 0
2, 379440, Note_on_c, 0, 86, 0
2, 379440, Note_on_c, 0, 84, 0
2, 379440, Note_on_c, 0, 74, 0
2, 379440, Note_on_c, 0, 72, 0
2, 379440, Note_on_c, 0, 61, 0
2, 379920, Note_on_c, 0, 108, 0
2, 380160, Text_t, "drum_allbeat"
2, 380160, Note_on_c, 0, 100, 100
2, 380160, Note_on_c, 0, 98, 100
2, 380160, Note_on_c, 0, 88, 100
2, 380160, Note_on_c, 0, 86, 100
2, 380160, Note_on_c, 0, 75, 100
2, 380160, Note_on_c, 0, 73, 100
2, 380160, Note_on_c, 0, 62, 100
2, 380160, Note_on_c, 0, 108, 100
2, 381120, Text_t, "drum_double"
2, 382080, Text_t, "drum_normal"
2, 382560, Note_on_c, 0, 108, 0
2, 382800, Note_on_c, 0, 100, 0
2, 382800, Note_on_c, 0, 98, 0
2, 382800, Note_on_c, 0, 88, 0
2, 382800, Note_on_c, 0, 86, 0
2, 382800, Note_on_c, 0, 75, 0
2, 382800, Note_on_c, 0, 73, 0
2, 382800, Note_on_c, 0, 62, 0
2, 383010, Note_on_c, 0, 105, 100
2, 383010, Note_on_c, 0, 93, 100
2, 383010, Note_on_c, 0, 69, 100
2, 383010, Note_on_c, 0, 81, 100
2, 383010, Note_on_c, 0, 103, 100
2, 383040, Note_on_c, 0, 96, 100
2, 383040, Note_on_c, 0, 108, 100
2, 383280, Note_on_c, 0, 96, 0
2, 383360, Note_on_c, 0, 108, 0
2, 383490, Note_on_c, 0, 91, 100
2, 383490, Note_on_c, 0, 79, 100
2, 383490, Note_on_c, 0, 67, 100
2, 383520, Note_on_c, 0, 97, 100
2, 383520, Note_on_c, 0, 99, 100
2, 383520, Note_on_c, 0, 85, 100
2, 383520, Note_on_c, 0, 87, 100
2, 383520, Note_on_c, 0, 72, 100
2, 383520, Note_on_c, 0, 74, 100
2, 383520, Note_on_c, 0, 60, 100
2, 383520, Note_on_c, 0, 108, 100
2, 383840, Note_on_c, 0, 108, 0
2, 384000, Note_on_c, 0, 108, 100
2, 384960, Note_on_c, 0, 97, 0
2, 384960, Note_on_c, 0, 99, 0
2, 384960, Note_on_c, 0, 85, 0
2, 384960, Note_on_c, 0, 87, 0
2, 384960, Note_on_c, 0, 72, 0
2, 384960, Note_on_c, 0, 74, 0
2, 384960, Note_on_c, 0, 60, 0
2, 384960, Note_on_c, 0, 108, 0
2, 384960, Note_on_c, 0, 97, 100
2, 384960, Note_on_c, 0, 99, 100
2, 384960, Note_on_c, 0, 85, 100
2, 384960, Note_on_c, 0, 87, 100
2, 384960, Note_on_c, 0, 72, 100
2, 384960, Note_on_c, 0, 74, 100
2, 384960, Note_on_c, 0, 60, 100
2, 385200, Note_on_c, 0, 97, 0
2, 385200, Note_on_c, 0, 99, 0
2, 385200, Note_on_c, 0, 85, 0
2, 385200, Note_on_c, 0, 87, 0
2, 385200, Note_on_c, 0, 72, 0
2, 385200, Note_on_c, 0, 74, 0
2, 385200, Note_on_c, 0, 60, 0
2, 385920, Note_on_c, 0, 98, 100
2, 385920, Note_on_c, 0, 108, 100
2, 386160, Note_on_c, 0, 98, 0
2, 386240, Note_on_c, 0, 108, 0
2, 386400, Note_on_c, 0, 99, 100
2, 386400, Note_on_c, 0, 98, 100
2, 386400, Note_on_c, 0, 87, 100
2, 386400, Note_on_c, 0, 86, 100
2, 386400, Note_on_c, 0, 74, 100
2, 386400, Note_on_c, 0, 73, 100
2, 386400, Note_on_c, 0, 61, 100
2, 386400, Note_on_c, 0, 108, 100
2, 386640, Note_on_c, 0, 99, 0
2, 386640, Note_on_c, 0, 98, 0
2, 386640, Note_on_c, 0, 87, 0
2, 386640, Note_on_c, 0, 86, 0
2, 386640, Note_on_c, 0, 74, 0
2, 386640, Note_on_c, 0, 73, 0
2, 386640, Note_on_c, 0, 61, 0
2, 386880, Note_on_c, 0, 98, 100
2, 387040, Note_on_c, 0, 108, 0
2, 387120, Note_on_c, 0, 98, 0
2, 387360, Note_on_c, 0, 98, 100
2, 387360, Note_on_c, 0, 100, 100
2, 387360, Note_on_c, 0, 86, 100
2, 387360, Note_on_c, 0, 88, 100
2, 387360, Note_on_c, 0, 73, 100
2, 387360, Note_on_c, 0, 75, 100
2, 387360, Note_on_c, 0, 62, 100
2, 387360, Note_on_c, 0, 108, 100
2, 388640, Note_on_c, 0, 108, 0
2, 388800, Note_on_c, 0, 98, 0
2, 388800, Note_on_c, 0, 100, 0
2, 388800, Note_on_c, 0, 86, 0
2, 388800, Note_on_c, 0, 88, 0
2, 388800, Note_on_c, 0, 73, 0
2, 388800, Note_on_c, 0, 75, 0
2, 388800, Note_on_c, 0, 62, 0
2, 388800, Note_on_c, 0, 100, 100
2, 388800, Note_on_c, 0, 98, 100
2, 388800, Note_on_c, 0, 88, 100
2, 388800, Note_on_c, 0, 86, 100
2, 388800, Note_on_c, 0, 75, 100
2, 388800, Note_on_c, 0, 73, 100
2, 388800, Note_on_c, 0, 62, 100
2, 389040, Note_on_c, 0, 100, 0
2, 389040, Note_on_c, 0, 98, 0
2, 389040, Note_on_c, 0, 88, 0
2, 389040, Note_on_c, 0, 86, 0
2, 389040, Note_on_c, 0, 75, 0
2, 389040, Note_on_c, 0, 73, 0
2, 389040, Note_on_c, 0, 62, 0
2, 389250, Note_on_c, 0, 103, 0
2, 389250, Note_on_c, 0, 91, 0
2, 389250, Note_on_c, 0, 79, 0
2, 389250, Note_on_c, 0, 67, 0
2, 389760, Note_on_c, 0, 96, 100
2, 390000, Note_on_c, 0, 96, 0
2, 390240, Note_on_c, 0, 98, 100
2, 390240, Note_on_c, 0, 96, 100
2, 390240, Note_on_c, 0, 86, 100
2, 390240, Note_on_c, 0, 84, 100
2, 390240, Note_on_c, 0, 73, 100
2, 390240, Note_on_c, 0, 72, 100
2, 390240, Note_on_c, 0, 60, 100
2, 390480, Note_on_c, 0, 98, 0
2, 390480, Note_on_c, 0, 96, 0
2, 390480, Note_on_c, 0, 86, 0
2, 390480, Note_on_c, 0, 84, 0
2, 390480, Note_on_c, 0, 73, 0
2, 390480, Note_on_c, 0, 72, 0
2, 390480, Note_on_c, 0, 60, 0
2, 390720, Note_on_c, 0, 96, 100
2, 390720, Note_on_c, 0, 108, 100
2, 390960, Note_on_c, 0, 96, 0
2, 390960, Note_on_c, 0, 108, 0
2, 391200, Note_on_c, 0, 97, 100
2, 391200, Note_on_c, 0, 99, 100
2, 391200, Note_on_c, 0, 85, 100
2, 391200, Note_on_c, 0, 87, 100
2, 391200, Note_on_c, 0, 72, 100
2, 391200, Note_on_c, 0, 74, 100
2, 391200, Note_on_c, 0, 60, 100
2, 391200, Note_on_c, 0, 108, 100
2, 391760, Note_on_c, 0, 108, 0
2, 391920, Note_on_c, 0, 108, 100
2, 392400, Note_on_c, 0, 108, 0
2, 392640, Note_on_c, 0, 97, 0
2, 392640, Note_on_c, 0, 99, 0
2, 392640, Note_on_c, 0, 85, 0
2, 392640, Note_on_c, 0, 87, 0
2, 392640, Note_on_c, 0, 72, 0
2, 392640, Note_on_c, 0, 74, 0
2, 392640, Note_on_c, 0, 60, 0
2, 392640, Note_on_c, 0, 97, 100
2, 392640, Note_on_c, 0, 99, 100
2, 392640, Note_on_c, 0, 85, 100
2, 392640, Note_on_c, 0, 87, 100
2, 392640, Note_on_c, 0, 72, 100
2, 392640, Note_on_c, 0, 74, 100
2, 392640, Note_on_c, 0, 60, 100
2, 392880, Note_on_c, 0, 97, 0
2, 392880, Note_on_c, 0, 99, 0
2, 392880, Note_on_c, 0, 85, 0
2, 392880, Note_on_c, 0, 87, 0
2, 392880, Note_on_c, 0, 72, 0
2, 392880, Note_on_c, 0, 74, 0
2, 392880, Note_on_c, 0, 60, 0
2, 393600, Note_on_c, 0, 98, 100
2, 393600, Note_on_c, 0, 108, 100
2, 393840, Note_on_c, 0, 98, 0
2, 393920, Note_on_c, 0, 108, 0
2, 394080, Note_on_c, 0, 99, 100
2, 394080, Note_on_c, 0, 98, 100
2, 394080, Note_on_c, 0, 87, 100
2, 394080, Note_on_c, 0, 86, 100
2, 394080, Note_on_c, 0, 74, 100
2, 394080, Note_on_c, 0, 73, 100
2, 394080, Note_on_c, 0, 61, 100
2, 394080, Note_on_c, 0, 108, 100
2, 395120, Note_on_c, 0, 108, 0
2, 395280, Note_on_c, 0, 99, 0
2, 395280, Note_on_c, 0, 98, 0
2, 395280, Note_on_c, 0, 87, 0
2, 395280, Note_on_c, 0, 86, 0
2, 395280, Note_on_c, 0, 74, 0
2, 395280, Note_on_c, 0, 73, 0
2, 395280, Note_on_c, 0, 61, 0
2, 395520, Text_t, "drum_half"
2, 395520, Note_on_c, 0, 97, 100
2, 395520, Note_on_c, 0, 96, 100
2, 395520, Note_on_c, 0, 85, 100
2, 395520, Note_on_c, 0, 84, 100
2, 395520, Note_on_c, 0, 73, 100
2, 395520, Note_on_c, 0, 72, 100
2, 395520, Note_on_c, 0, 60, 100
2, 395520, Note_on_c, 0, 108, 100
2, 397440, Text_t, "drum_normal"
2, 398400, Note_on_c, 0, 97, 0
2, 398400, Note_on_c, 0, 96, 0
2, 398400, Note_on_c, 0, 85, 0
2, 398400, Note_on_c, 0, 84, 0
2, 398400, Note_on_c, 0, 73, 0
2, 398400, Note_on_c, 0, 72, 0
2, 398400, Note_on_c, 0, 60, 0
2, 398400, Note_on_c, 0, 98, 100
2, 398400, Note_on_c, 0, 96, 100
2, 398400, Note_on_c, 0, 86, 100
2, 398400, Note_on_c, 0, 84, 100
2, 398400, Note_on_c, 0, 74, 100
2, 398400, Note_on_c, 0, 72, 100
2, 398400, Note_on_c, 0, 61, 100
2, 398640, Note_on_c, 0, 98, 0
2, 398640, Note_on_c, 0, 96, 0
2, 398640, Note_on_c, 0, 86, 0
2, 398640, Note_on_c, 0, 84, 0
2, 398640, Note_on_c, 0, 74, 0
2, 398640, Note_on_c, 0, 72, 0
2, 398640, Note_on_c, 0, 61, 0
2, 399120, Note_on_c, 0, 108, 0
2, 399360, Text_t, "drum_allbeat"
2, 399360, Note_on_c, 0, 100, 100
2, 399360, Note_on_c, 0, 98, 100
2, 399360, Note_on_c, 0, 88, 100
2, 399360, Note_on_c, 0, 86, 100
2, 399360, Note_on_c, 0, 75, 100
2, 399360, Note_on_c, 0, 73, 100
2, 399360, Note_on_c, 0, 62, 100
2, 399360, Note_on_c, 0, 108, 100
2, 400320, Text_t, "drum_double"
2, 401280, Text_t, "drum_normal"
2, 401440, Note_on_c, 0, 108, 0
2, 402960, Note_on_c, 0, 100, 0
2, 402960, Note_on_c, 0, 98, 0
2, 402960, Note_on_c, 0, 88, 0
2, 402960, Note_on_c, 0, 86, 0
2, 402960, Note_on_c, 0, 75, 0
2, 402960, Note_on_c, 0, 73, 0
2, 402960, Note_on_c, 0, 62, 0
2, 403200, Text_t, "drum_half"
2, 403200, Note_on_c, 0, 97, 100
2, 403200, Note_on_c, 0, 96, 100
2, 403200, Note_on_c, 0, 85, 100
2, 403200, Note_on_c, 0, 84, 100
2, 403200, Note_on_c, 0, 73, 100
2, 403200, Note_on_c, 0, 72, 100
2, 403200, Note_on_c, 0, 60, 100
2, 403200, Note_on_c, 0, 108, 100
2, 405120, Text_t, "drum_normal"
2, 406080, Note_on_c, 0, 97, 0
2, 406080, Note_on_c, 0, 96, 0
2, 406080, Note_on_c, 0, 85, 0
2, 406080, Note_on_c, 0, 84, 0
2, 406080, Note_on_c, 0, 73, 0
2, 406080, Note_on_c, 0, 72, 0
2, 406080, Note_on_c, 0, 60, 0
2, 406080, Note_on_c, 0, 98, 100
2, 406080, Note_on_c, 0, 96, 100
2, 406080, Note_on_c, 0, 86, 100
2, 406080, Note_on_c, 0, 84, 100
2, 406080, Note_on_c, 0, 74, 100
2, 406080, Note_on_c, 0, 72, 100
2, 406080, Note_on_c, 0, 61, 100
2, 406320, Note_on_c, 0, 98, 0
2, 406320, Note_on_c, 0, 96, 0
2, 406320, Note_on_c, 0, 86, 0
2, 406320, Note_on_c, 0, 84, 0
2, 406320, Note_on_c, 0, 74, 0
2, 406320, Note_on_c, 0, 72, 0
2, 406320, Note_on_c, 0, 61, 0
2, 406800, Note_on_c, 0, 108, 0
2, 407040, Text_t, "drum_half"
2, 407040, Note_on_c, 0, 100, 100
2, 407040, Note_on_c, 0, 98, 100
2, 407040, Note_on_c, 0, 88, 100
2, 407040, Note_on_c, 0, 86, 100
2, 407040, Note_on_c, 0, 75, 100
2, 407040, Note_on_c, 0, 73, 100
2, 407040, Note_on_c, 0, 62, 100
2, 407040, Note_on_c, 0, 108, 100
2, 408960, Text_t, "drum_normal"
2, 409680, Note_on_c, 0, 108, 0
2, 409920, Text_t, "drum_half"
2, 410880, Text_t, "sing_off"
2, 410880, Note_on_c, 0, 100, 0
2, 410880, Note_on_c, 0, 98, 0
2, 410880, Note_on_c, 0, 88, 0
2, 410880, Note_on_c, 0, 86, 0
2, 410880, Note_on_c, 0, 75, 0
2, 410880, Note_on_c, 0, 73, 0
2, 410880, Note_on_c, 0, 62, 0
2, 411360, Note_on_c, 0, 100, 100
2, 411360, Note_on_c, 0, 87, 100
2, 411360, Note_on_c, 0, 75, 100
2, 411360, Note_on_c, 0, 62, 100
2, 411600, Note_on_c, 0, 100, 0
2, 411600, Note_on_c, 0, 87, 0
2, 411600, Note_on_c, 0, 75, 0
2, 411600, Note_on_c, 0, 62, 0
2, 411840, Note_on_c, 0, 99, 100
2, 411840, Note_on_c, 0, 86, 100
2, 411840, Note_on_c, 0, 74, 100
2, 412080, Note_on_c, 0, 99, 0
2, 412080, Note_on_c, 0, 86, 0
2, 412080, Note_on_c, 0, 74, 0
2, 412320, Note_on_c, 0, 98, 100
2, 412320, Note_on_c, 0, 85, 100
2, 412320, Note_on_c, 0, 73, 100
2, 412560, Note_on_c, 0, 98, 0
2, 412560, Note_on_c, 0, 85, 0
2, 412560, Note_on_c, 0, 73, 0
2, 412800, Text_t, "drum_normal"
2, 412800, Note_on_c, 0, 99, 100
2, 412800, Note_on_c, 0, 87, 100
2, 412800, Note_on_c, 0, 74, 100
2, 412800, Note_on_c, 0, 61, 100
2, 413040, Note_on_c, 0, 99, 0
2, 413040, Note_on_c, 0, 87, 0
2, 413040, Note_on_c, 0, 74, 0
2, 413040, Note_on_c, 0, 61, 0
2, 413280, Note_on_c, 0, 98, 100
2, 413280, Note_on_c, 0, 86, 100
2, 413520, Note_on_c, 0, 98, 0
2, 413520, Note_on_c, 0, 86, 0
2, 413760, Text_t, "drum_double"
2, 413760, Note_on_c, 0, 97, 100
2, 413760, Note_on_c, 0, 85, 100
2, 413760, Note_on_c, 0, 73, 100
2, 413760, Note_on_c, 0, 60, 100
2, 414000, Note_on_c, 0, 97, 0
2, 414000, Note_on_c, 0, 85, 0
2, 414000, Note_on_c, 0, 73, 0
2, 414000, Note_on_c, 0, 60, 0
2, 414240, Note_on_c, 0, 97, 100
2, 414240, Note_on_c, 0, 99, 100
2, 414240, Note_on_c, 0, 85, 100
2, 414240, Note_on_c, 0, 87, 100
2, 414240, Note_on_c, 0, 72, 100
2, 414240, Note_on_c, 0, 74, 100
2, 414240, Note_on_c, 0, 60, 100
2, 414480, Note_on_c, 0, 97, 0
2, 414480, Note_on_c, 0, 99, 0
2, 414480, Note_on_c, 0, 85, 0
2, 414480, Note_on_c, 0, 87, 0
2, 414480, Note_on_c, 0, 72, 0
2, 414480, Note_on_c, 0, 74, 0
2, 414480, Note_on_c, 0, 60, 0
2, 414690, Note_on_c, 0, 106, 0
2, 414690, Note_on_c, 0, 94, 0
2, 414690, Note_on_c, 0, 70, 0
2, 414690, Note_on_c, 0, 82, 0
2, 414690, Note_on_c, 0, 105, 0
2, 414690, Note_on_c, 0, 93, 0
2, 414690, Note_on_c, 0, 69, 0
2, 414690, Note_on_c, 0, 81, 0
2, 414690, End_track
3, 0, Start_track
3, 0, Title_t, "EVENTS"
3, 0, Text_t, "[verse]"
3, 0, Text_t, "bass_off"
3, 0, Text_t, "sing_off"
3, 1920, Text_t, ""[lighting ()]""
3, 2880, Text_t, "[lighting (color1)]"
3, 5760, Text_t, ""[lighting ()]""
3, 6720, Text_t, "[lighting (color1)]"
3, 7680, Text_t, "[lighting (sweep)]"
3, 9600, Text_t, ""[lighting ()]""
3, 10560, Text_t, "[lighting (color1)]"
3, 11520, Text_t, "bass_on"
3, 11520, Text_t, "[chorus]"
3, 13440, Text_t, ""[lighting ()]""
3, 14400, Text_t, "[lighting (color1)]"
3, 17280, Text_t, ""[lighting ()]""
3, 18240, Text_t, "[lighting (color2)]"
3, 21120, Text_t, ""[lighting ()]""
3, 22080, Text_t, "[lighting (color1)]"
3, 24960, Text_t, ""[lighting ()]""
3, 25920, Text_t, "[lighting (color2)]"
3, 28800, Text_t, ""[lighting ()]""
3, 29760, Text_t, "[lighting (color1)]"
3, 32640, Text_t, ""[lighting ()]""
3, 33600, Text_t, "[lighting (color2)]"
3, 36480, Text_t, ""[lighting ()]""
3, 37440, Text_t, "[lighting (color1)]"
3, 40320, Text_t, ""[lighting ()]""
3, 72960, Text_t, "[lighting (color2)]"
3, 72960, Text_t, "[verse]"
3, 74880, Text_t, ""[lighting ()]""
3, 75840, Text_t, "[lighting (color1)]"
3, 78720, Text_t, ""[lighting ()]""
3, 79680, Text_t, "[lighting (color2)]"
3, 82560, Text_t, ""[lighting ()]""
3, 83520, Text_t, "[lighting (color1)]"
3, 84480, Text_t, "[lighting (sweep)]"
3, 86400, Text_t, ""[lighting ()]""
3, 142080, Text_t, "[chorus]"
3, 153600, Text_t, "[lighting (color1)]"
3, 155520, Text_t, ""[lighting ()]""
3, 157440, Text_t, "[lighting (color2)]"
3, 159360, Text_t, ""[lighting ()]""
3, 160320, Text_t, "[lighting (color1)]"
3, 163200, Text_t, ""[lighting ()]""
3, 164160, Text_t, "[lighting (color2)]"
3, 165120, Text_t, ""[lighting ()]""
3, 165120, Text_t, "[verse]"
3, 218880, Text_t, "[chorus]"
3, 230400, Text_t, "[lighting (color1)]"
3, 232320, Text_t, ""[lighting ()]""
3, 234240, Text_t, "[lighting ()]"
3, 235200, Text_t, "[lighting (color2)]"
3, 236160, Text_t, ""[lighting ()]""
3, 238080, Text_t, "[lighting (color1)]"
3, 240000, Text_t, ""[lighting ()]""
3, 241920, Text_t, "[lighting (color2)]"
3, 243840, Text_t, ""[lighting ()]""
3, 244800, Text_t, "[lighting (color1)]"
3, 245760, Text_t, "[lighting (sweep)]"
3, 247680, Text_t, ""[lighting ()]""
3, 248640, Text_t, "[lighting (color1)]"
3, 249600, Text_t, ""[lighting ()]""
3, 249600, Text_t, "[verse]"
3, 249600, Text_t, "[lighting ()]"
3, 276480, Text_t, "[lighting (color2)]"
3, 280320, Text_t, "[lighting ()]"
3, 280320, Text_t, "[solo]"
3, 280320, Text_t, "wail_off"
3, 307200, Text_t, "[lighting ()]"
3, 311040, Text_t, "solo_off"
3, 311040, Text_t, "[verse]"
3, 364800, Text_t, "[chorus]"
3, 376320, Text_t, "[lighting (color1)]"
3, 378240, Text_t, ""[lighting (sweep)]""
3, 380160, Text_t, "[lighting ()]"
3, 381120, Text_t, "[lighting (color2)]"
3, 382080, Text_t, ""[lighting ()]""
3, 395520, Text_t, "[lighting (color1)]"
3, 397440, Text_t, ""[lighting ()]""
3, 399360, Text_t, "[lighting (flare)]"
3, 400320, Text_t, "[lighting (color2)]"
3, 401280, Text_t, ""[lighting ()]""
3, 403200, Text_t, "[lighting (color1)]"
3, 405120, Text_t, ""[lighting ()]""
3, 407040, Text_t, "[lighting (color2)]"
3, 408960, Text_t, ""[lighting ()]""
3, 409920, Text_t, "[lighting (color1)]"
3, 410880, Text_t, "[lighting (sweep)]"
3, 412800, Text_t, ""[lighting ()]""
3, 413760, Text_t, "[lighting (color2)]"
3, 415680, Text_t, "bass_off"
3, 415680, Text_t, "[lighting (blackout)]"
3, 418558, Text_t, "[end]"
3, 418558, End_track
4, 0, Start_track
4, 0, Title_t, "ANIM"
4, 8160, Note_on_c, 2, 53, 100
4, 8640, Note_on_c, 2, 53, 0
4, 9600, Note_on_c, 2, 49, 100
4, 10080, Note_on_c, 2, 49, 0
4, 10560, Note_on_c, 2, 47, 100
4, 11040, Note_on_c, 2, 47, 0
4, 11520, Note_on_c, 2, 43, 100
4, 11760, Note_on_c, 2, 43, 0
4, 12000, Note_on_c, 2, 45, 100
4, 14400, Note_on_c, 2, 45, 0
4, 14880, Note_on_c, 2, 43, 100
4, 18240, Note_on_c, 2, 43, 0
4, 18720, Note_on_c, 2, 48, 100
4, 21360, Note_on_c, 2, 48, 0
4, 21600, Note_on_c, 2, 50, 100
4, 22080, Note_on_c, 2, 50, 0
4, 22560, Note_on_c, 2, 45, 100
4, 23040, Note_on_c, 2, 45, 0
4, 23520, Note_on_c, 2, 53, 100
4, 24000, Note_on_c, 2, 53, 0
4, 24960, Note_on_c, 2, 49, 100
4, 25440, Note_on_c, 2, 49, 0
4, 25920, Note_on_c, 2, 47, 100
4, 26400, Note_on_c, 2, 47, 0
4, 26880, Note_on_c, 2, 43, 100
4, 27120, Note_on_c, 2, 43, 0
4, 27360, Note_on_c, 2, 45, 100
4, 29760, Note_on_c, 2, 45, 0
4, 30240, Note_on_c, 2, 43, 100
4, 33600, Note_on_c, 2, 43, 0
4, 34080, Note_on_c, 2, 48, 100
4, 36720, Note_on_c, 2, 48, 0
4, 36960, Note_on_c, 2, 50, 100
4, 37440, Note_on_c, 2, 50, 0
4, 37920, Note_on_c, 2, 45, 100
4, 38400, Note_on_c, 2, 45, 0
4, 38880, Note_on_c, 2, 53, 100
4, 39360, Note_on_c, 2, 53, 0
4, 40320, Note_on_c, 2, 49, 100
4, 40800, Note_on_c, 2, 49, 0
4, 41280, Note_on_c, 2, 47, 100
4, 41760, Note_on_c, 2, 47, 0
4, 42240, Note_on_c, 2, 43, 100
4, 42480, Note_on_c, 2, 43, 0
4, 42720, Note_on_c, 2, 45, 100
4, 45120, Note_on_c, 2, 45, 0
4, 45600, Note_on_c, 2, 43, 100
4, 48960, Note_on_c, 2, 43, 0
4, 49440, Note_on_c, 2, 48, 100
4, 52080, Note_on_c, 2, 48, 0
4, 52320, Note_on_c, 2, 50, 100
4, 52800, Note_on_c, 2, 50, 0
4, 53280, Note_on_c, 2, 45, 100
4, 53760, Note_on_c, 2, 45, 0
4, 54240, Note_on_c, 2, 53, 100
4, 54720, Note_on_c, 2, 53, 0
4, 55680, Note_on_c, 2, 49, 100
4, 56160, Note_on_c, 2, 49, 0
4, 56640, Note_on_c, 2, 47, 100
4, 57120, Note_on_c, 2, 47, 0
4, 57600, Note_on_c, 2, 43, 100
4, 57840, Note_on_c, 2, 43, 0
4, 58080, Note_on_c, 2, 45, 100
4, 60720, Note_on_c, 2, 45, 0
4, 60960, Note_on_c, 2, 43, 100
4, 64320, Note_on_c, 2, 43, 0
4, 64800, Note_on_c, 2, 48, 100
4, 67440, Note_on_c, 2, 48, 0
4, 67680, Note_on_c, 2, 50, 100
4, 68160, Note_on_c, 2, 50, 0
4, 68640, Note_on_c, 2, 45, 100
4, 69120, Note_on_c, 2, 45, 0
4, 69600, Note_on_c, 2, 53, 100
4, 70080, Note_on_c, 2, 53, 0
4, 71040, Note_on_c, 2, 49, 100
4, 71520, Note_on_c, 2, 49, 0
4, 72000, Note_on_c, 2, 47, 100
4, 72480, Note_on_c, 2, 47, 0
4, 72960, Note_on_c, 2, 45, 100
4, 101760, Note_on_c, 2, 45, 0
4, 103680, Note_on_c, 2, 50, 100
4, 105600, Note_on_c, 2, 50, 0
4, 106080, Note_on_c, 2, 43, 100
4, 106560, Note_on_c, 2, 43, 0
4, 107040, Note_on_c, 2, 50, 100
4, 109440, Note_on_c, 2, 50, 0
4, 111360, Note_on_c, 2, 45, 100
4, 117120, Note_on_c, 2, 45, 0
4, 119040, Note_on_c, 2, 52, 100
4, 120960, Note_on_c, 2, 52, 0
4, 121440, Note_on_c, 2, 45, 100
4, 121920, Note_on_c, 2, 45, 0
4, 122400, Note_on_c, 2, 52, 100
4, 124800, Note_on_c, 2, 52, 0
4, 126720, Note_on_c, 2, 50, 100
4, 128640, Note_on_c, 2, 50, 0
4, 129120, Note_on_c, 2, 43, 100
4, 129600, Note_on_c, 2, 43, 0
4, 130080, Note_on_c, 2, 50, 100
4, 132480, Note_on_c, 2, 50, 0
4, 134400, Note_on_c, 2, 52, 100
4, 136320, Note_on_c, 2, 52, 0
4, 136800, Note_on_c, 2, 43, 100
4, 137280, Note_on_c, 2, 43, 0
4, 137760, Note_on_c, 2, 50, 100
4, 140160, Note_on_c, 2, 50, 0
4, 140640, Note_on_c, 2, 43, 100
4, 141120, Note_on_c, 2, 43, 0
4, 141600, Note_on_c, 2, 45, 100
4, 144000, Note_on_c, 2, 45, 0
4, 144480, Note_on_c, 2, 48, 100
4, 144960, Note_on_c, 2, 48, 0
4, 145440, Note_on_c, 2, 50, 100
4, 147840, Note_on_c, 2, 50, 0
4, 148320, Note_on_c, 2, 43, 100
4, 148800, Note_on_c, 2, 43, 0
4, 149280, Note_on_c, 2, 45, 100
4, 151680, Note_on_c, 2, 45, 0
4, 152160, Note_on_c, 2, 48, 100
4, 153120, Note_on_c, 2, 48, 0
4, 153600, Note_on_c, 2, 40, 100
4, 156000, Note_on_c, 2, 40, 0
4, 156480, Note_on_c, 2, 43, 100
4, 156960, Note_on_c, 2, 43, 0
4, 157440, Note_on_c, 2, 48, 100
4, 161280, Note_on_c, 2, 48, 0
4, 161760, Note_on_c, 2, 53, 100
4, 162240, Note_on_c, 2, 53, 0
4, 163200, Note_on_c, 2, 49, 100
4, 163680, Note_on_c, 2, 49, 0
4, 164160, Note_on_c, 2, 47, 100
4, 164640, Note_on_c, 2, 47, 0
4, 165120, Note_on_c, 2, 45, 100
4, 178560, Note_on_c, 2, 45, 0
4, 180480, Note_on_c, 2, 50, 100
4, 182400, Note_on_c, 2, 50, 0
4, 182880, Note_on_c, 2, 43, 100
4, 183360, Note_on_c, 2, 43, 0
4, 183840, Note_on_c, 2, 50, 100
4, 186240, Note_on_c, 2, 50, 0
4, 188160, Note_on_c, 2, 45, 100
4, 193920, Note_on_c, 2, 45, 0
4, 195840, Note_on_c, 2, 52, 100
4, 197760, Note_on_c, 2, 52, 0
4, 198240, Note_on_c, 2, 45, 100
4, 198720, Note_on_c, 2, 45, 0
4, 199200, Note_on_c, 2, 52, 100
4, 201600, Note_on_c, 2, 52, 0
4, 203520, Note_on_c, 2, 50, 100
4, 205440, Note_on_c, 2, 50, 0
4, 205920, Note_on_c, 2, 43, 100
4, 206400, Note_on_c, 2, 43, 0
4, 206880, Note_on_c, 2, 50, 100
4, 209280, Note_on_c, 2, 50, 0
4, 211200, Note_on_c, 2, 52, 100
4, 213120, Note_on_c, 2, 52, 0
4, 213600, Note_on_c, 2, 43, 100
4, 214080, Note_on_c, 2, 43, 0
4, 214560, Note_on_c, 2, 50, 100
4, 216960, Note_on_c, 2, 50, 0
4, 217440, Note_on_c, 2, 43, 100
4, 217920, Note_on_c, 2, 43, 0
4, 218400, Note_on_c, 2, 45, 100
4, 220800, Note_on_c, 2, 45, 0
4, 221280, Note_on_c, 2, 48, 100
4, 221760, Note_on_c, 2, 48, 0
4, 222240, Note_on_c, 2, 50, 100
4, 224640, Note_on_c, 2, 50, 0
4, 225120, Note_on_c, 2, 43, 100
4, 225600, Note_on_c, 2, 43, 0
4, 226080, Note_on_c, 2, 45, 100
4, 228480, Note_on_c, 2, 45, 0
4, 228960, Note_on_c, 2, 48, 100
4, 229920, Note_on_c, 2, 48, 0
4, 230400, Note_on_c, 2, 40, 100
4, 232800, Note_on_c, 2, 40, 0
4, 233280, Note_on_c, 2, 43, 100
4, 233760, Note_on_c, 2, 43, 0
4, 234240, Note_on_c, 2, 48, 100
4, 237120, Note_on_c, 2, 48, 0
4, 238080, Note_on_c, 2, 40, 100
4, 240480, Note_on_c, 2, 40, 0
4, 240960, Note_on_c, 2, 43, 100
4, 241440, Note_on_c, 2, 43, 0
4, 241920, Note_on_c, 2, 48, 100
4, 245760, Note_on_c, 2, 48, 0
4, 246240, Note_on_c, 2, 53, 100
4, 246720, Note_on_c, 2, 53, 0
4, 247680, Note_on_c, 2, 49, 100
4, 248160, Note_on_c, 2, 49, 0
4, 248640, Note_on_c, 2, 47, 100
4, 249120, Note_on_c, 2, 47, 0
4, 249600, Note_on_c, 2, 43, 100
4, 249840, Note_on_c, 2, 43, 0
4, 250080, Note_on_c, 2, 45, 100
4, 252480, Note_on_c, 2, 45, 0
4, 252960, Note_on_c, 2, 43, 100
4, 256320, Note_on_c, 2, 43, 0
4, 256800, Note_on_c, 2, 48, 100
4, 259440, Note_on_c, 2, 48, 0
4, 259680, Note_on_c, 2, 50, 100
4, 260160, Note_on_c, 2, 50, 0
4, 260640, Note_on_c, 2, 45, 100
4, 261120, Note_on_c, 2, 45, 0
4, 261600, Note_on_c, 2, 53, 100
4, 262080, Note_on_c, 2, 53, 0
4, 263040, Note_on_c, 2, 49, 100
4, 263520, Note_on_c, 2, 49, 0
4, 264000, Note_on_c, 2, 47, 100
4, 264480, Note_on_c, 2, 47, 0
4, 264960, Note_on_c, 2, 43, 100
4, 265200, Note_on_c, 2, 43, 0
4, 265440, Note_on_c, 2, 45, 100
4, 267840, Note_on_c, 2, 45, 0
4, 268320, Note_on_c, 2, 43, 100
4, 271680, Note_on_c, 2, 43, 0
4, 272160, Note_on_c, 2, 48, 100
4, 274800, Note_on_c, 2, 48, 0
4, 275040, Note_on_c, 2, 50, 100
4, 275520, Note_on_c, 2, 50, 0
4, 276000, Note_on_c, 2, 45, 100
4, 276480, Note_on_c, 2, 45, 0
4, 276960, Note_on_c, 2, 53, 100
4, 277440, Note_on_c, 2, 53, 0
4, 278400, Note_on_c, 2, 49, 100
4, 278880, Note_on_c, 2, 49, 0
4, 279360, Note_on_c, 2, 47, 100
4, 279840, Note_on_c, 2, 47, 0
4, 280320, Text_t, "HandMap_NoChords"
4, 280320, Note_on_c, 2, 51, 100
4, 280560, Note_on_c, 2, 51, 0
4, 280800, Note_on_c, 2, 55, 100
4, 282480, Note_on_c, 2, 55, 0
4, 282720, Note_on_c, 2, 57, 100
4, 282960, Note_on_c, 2, 57, 0
4, 283200, Note_on_c, 2, 55, 100
4, 283440, Note_on_c, 2, 55, 0
4, 283680, Note_on_c, 2, 53, 100
4, 284640, Note_on_c, 2, 53, 0
4, 285120, Note_on_c, 2, 50, 100
4, 285360, Note_on_c, 2, 50, 0
4, 285600, Note_on_c, 2, 48, 100
4, 285840, Note_on_c, 2, 48, 0
4, 286080, Note_on_c, 2, 52, 100
4, 286320, Note_on_c, 2, 52, 0
4, 286560, Note_on_c, 2, 48, 100
4, 286800, Note_on_c, 2, 48, 0
4, 287040, Note_on_c, 2, 46, 100
4, 287280, Note_on_c, 2, 46, 0
4, 287520, Note_on_c, 2, 44, 100
4, 287760, Note_on_c, 2, 44, 0
4, 288000, Note_on_c, 2, 40, 100
4, 288240, Note_on_c, 2, 40, 0
4, 288480, Note_on_c, 2, 44, 100
4, 288720, Note_on_c, 2, 44, 0
4, 289440, Note_on_c, 2, 40, 100
4, 289680, Note_on_c, 2, 40, 0
4, 289920, Note_on_c, 2, 44, 100
4, 290160, Note_on_c, 2, 44, 0
4, 290400, Note_on_c, 2, 42, 100
4, 290640, Note_on_c, 2, 42, 0
4, 290880, Note_on_c, 2, 40, 100
4, 291120, Note_on_c, 2, 40, 0
4, 291360, Note_on_c, 2, 42, 100
4, 291600, Note_on_c, 2, 42, 0
4, 291840, Note_on_c, 2, 44, 100
4, 292080, Note_on_c, 2, 44, 0
4, 292320, Note_on_c, 2, 46, 100
4, 292560, Note_on_c, 2, 46, 0
4, 292800, Note_on_c, 2, 47, 100
4, 293040, Note_on_c, 2, 47, 0
4, 293280, Note_on_c, 2, 49, 100
4, 293520, Note_on_c, 2, 49, 0
4, 293760, Note_on_c, 2, 51, 100
4, 294000, Note_on_c, 2, 51, 0
4, 294720, Note_on_c, 2, 52, 100
4, 294960, Note_on_c, 2, 52, 0
4, 295200, Note_on_c, 2, 54, 100
4, 295440, Note_on_c, 2, 54, 0
4, 296160, Note_on_c, 2, 56, 100
4, 296880, Note_on_c, 2, 56, 0
4, 297120, Note_on_c, 2, 54, 100
4, 297360, Note_on_c, 2, 54, 0
4, 297600, Note_on_c, 2, 56, 100
4, 297840, Note_on_c, 2, 56, 0
4, 298080, Note_on_c, 2, 54, 100
4, 298320, Note_on_c, 2, 54, 0
4, 298560, Note_on_c, 2, 56, 100
4, 298800, Note_on_c, 2, 56, 0
4, 299040, Note_on_c, 2, 58, 100
4, 299280, Note_on_c, 2, 58, 0
4, 299520, Note_on_c, 2, 54, 100
4, 299760, Note_on_c, 2, 54, 0
4, 300000, Note_on_c, 2, 52, 100
4, 300720, Note_on_c, 2, 52, 0
4, 300960, Note_on_c, 2, 50, 100
4, 301200, Note_on_c, 2, 50, 0
4, 301440, Note_on_c, 2, 52, 100
4, 301680, Note_on_c, 2, 52, 0
4, 301920, Note_on_c, 2, 50, 100
4, 302160, Note_on_c, 2, 50, 0
4, 302400, Note_on_c, 2, 52, 100
4, 302640, Note_on_c, 2, 52, 0
4, 303360, Note_on_c, 2, 56, 100
4, 304560, Note_on_c, 2, 56, 0
4, 304800, Note_on_c, 2, 52, 100
4, 305040, Note_on_c, 2, 52, 0
4, 305280, Note_on_c, 2, 56, 100
4, 305520, Note_on_c, 2, 56, 0
4, 305760, Note_on_c, 2, 54, 100
4, 306000, Note_on_c, 2, 54, 0
4, 306240, Note_on_c, 2, 52, 100
4, 307200, Note_on_c, 2, 52, 0
4, 307680, Note_on_c, 2, 53, 100
4, 308160, Note_on_c, 2, 53, 0
4, 309120, Note_on_c, 2, 49, 100
4, 309600, Note_on_c, 2, 49, 0
4, 310080, Note_on_c, 2, 47, 100
4, 310560, Note_on_c, 2, 47, 0
4, 311040, Text_t, "HandMap_Default"
4, 311040, Note_on_c, 2, 45, 100
4, 324480, Note_on_c, 2, 45, 0
4, 326400, Note_on_c, 2, 50, 100
4, 328320, Note_on_c, 2, 50, 0
4, 328800, Note_on_c, 2, 43, 100
4, 329280, Note_on_c, 2, 43, 0
4, 329760, Note_on_c, 2, 50, 100
4, 332160, Note_on_c, 2, 50, 0
4, 334080, Note_on_c, 2, 45, 100
4, 339840, Note_on_c, 2, 45, 0
4, 341760, Note_on_c, 2, 52, 100
4, 343680, Note_on_c, 2, 52, 0
4, 344160, Note_on_c, 2, 45, 100
4, 344640, Note_on_c, 2, 45, 0
4, 345120, Note_on_c, 2, 52, 100
4, 347520, Note_on_c, 2, 52, 0
4, 349440, Note_on_c, 2, 50, 100
4, 351360, Note_on_c, 2, 50, 0
4, 351840, Note_on_c, 2, 43, 100
4, 352320, Note_on_c, 2, 43, 0
4, 352800, Note_on_c, 2, 50, 100
4, 355200, Note_on_c, 2, 50, 0
4, 357120, Note_on_c, 2, 52, 100
4, 359040, Note_on_c, 2, 52, 0
4, 359520, Note_on_c, 2, 43, 100
4, 360000, Note_on_c, 2, 43, 0
4, 360480, Note_on_c, 2, 50, 100
4, 362880, Note_on_c, 2, 50, 0
4, 363360, Note_on_c, 2, 43, 100
4, 363840, Note_on_c, 2, 43, 0
4, 364320, Note_on_c, 2, 45, 100
4, 366720, Note_on_c, 2, 45, 0
4, 367200, Note_on_c, 2, 48, 100
4, 367680, Note_on_c, 2, 48, 0
4, 368160, Note_on_c, 2, 50, 100
4, 370560, Note_on_c, 2, 50, 0
4, 371040, Note_on_c, 2, 43, 100
4, 371520, Note_on_c, 2, 43, 0
4, 372000, Note_on_c, 2, 45, 100
4, 374400, Note_on_c, 2, 45, 0
4, 374880, Note_on_c, 2, 48, 100
4, 375360, Note_on_c, 2, 48, 0
4, 376320, Note_on_c, 2, 40, 100
4, 378720, Note_on_c, 2, 40, 0
4, 379200, Note_on_c, 2, 43, 100
4, 379680, Note_on_c, 2, 43, 0
4, 380160, Note_on_c, 2, 48, 100
4, 382560, Note_on_c, 2, 48, 0
4, 383040, Note_on_c, 2, 43, 100
4, 383520, Note_on_c, 2, 43, 0
4, 384000, Note_on_c, 2, 45, 100
4, 385920, Note_on_c, 2, 45, 0
4, 386400, Note_on_c, 2, 48, 100
4, 386880, Note_on_c, 2, 48, 0
4, 387360, Note_on_c, 2, 50, 100
4, 389760, Note_on_c, 2, 50, 0
4, 390240, Note_on_c, 2, 43, 100
4, 390720, Note_on_c, 2, 43, 0
4, 391200, Note_on_c, 2, 45, 100
4, 393600, Note_on_c, 2, 45, 0
4, 394080, Note_on_c, 2, 48, 100
4, 394560, Note_on_c, 2, 48, 0
4, 395520, Note_on_c, 2, 40, 100
4, 397920, Note_on_c, 2, 40, 0
4, 398400, Note_on_c, 2, 43, 100
4, 398880, Note_on_c, 2, 43, 0
4, 399360, Note_on_c, 2, 48, 100
4, 402240, Note_on_c, 2, 48, 0
4, 403200, Note_on_c, 2, 40, 100
4, 405600, Note_on_c, 2, 40, 0
4, 406080, Note_on_c, 2, 43, 100
4, 406560, Note_on_c, 2, 43, 0
4, 407040, Note_on_c, 2, 48, 100
4, 410880, Note_on_c, 2, 48, 0
4, 411360, Note_on_c, 2, 53, 100
4, 411840, Note_on_c, 2, 53, 0
4, 412800, Note_on_c, 2, 49, 100
4, 413280, Note_on_c, 2, 49, 0
4, 413760, Note_on_c, 2, 47, 100
4, 414240, Note_on_c, 2, 47, 0
4, 414240, Note_on_c, 2, 45, 100
4, 414720, Note_on_c, 2, 45, 0
4, 417600, Note_on_c, 2, 40, 100
4, 417840, Note_on_c, 2, 40, 0
4, 426240, Note_on_c, 2, 54, 100
4, 426720, Note_on_c, 2, 54, 0
4, 426720, End_track
5, 0, Start_track
5, 0, Title_t, "TRIGGERS"
5, 8160, Note_on_c, 0, 70, 100
5, 8400, Note_on_c, 0, 70, 0
5, 9600, Note_on_c, 0, 69, 100
5, 9840, Note_on_c, 0, 69, 0
5, 10560, Note_on_c, 0, 68, 100
5, 10800, Note_on_c, 0, 68, 0
5, 11520, Note_on_c, 4, 60, 100
5, 11520, Note_on_c, 4, 61, 100
5, 11520, Note_on_c, 0, 69, 100
5, 11760, Note_on_c, 4, 60, 0
5, 11760, Note_on_c, 4, 61, 0
5, 11760, Note_on_c, 0, 69, 0
5, 12000, Note_on_c, 0, 69, 100
5, 12480, Note_on_c, 4, 60, 100
5, 12480, Note_on_c, 4, 61, 100
5, 12720, Note_on_c, 4, 60, 0
5, 12720, Note_on_c, 4, 61, 0
5, 12960, Note_on_c, 4, 61, 100
5, 13200, Note_on_c, 4, 61, 0
5, 13440, Note_on_c, 4, 60, 100
5, 13440, Note_on_c, 4, 61, 100
5, 13680, Note_on_c, 4, 60, 0
5, 13680, Note_on_c, 4, 61, 0
5, 13920, Note_on_c, 4, 61, 100
5, 14160, Note_on_c, 4, 61, 0
5, 14400, Note_on_c, 4, 60, 100
5, 14400, Note_on_c, 4, 61, 100
5, 14640, Note_on_c, 0, 69, 0
5, 14640, Note_on_c, 4, 60, 0
5, 14640, Note_on_c, 4, 61, 0
5, 14880, Note_on_c, 4, 61, 100
5, 14880, Note_on_c, 0, 68, 100
5, 15120, Note_on_c, 4, 61, 0
5, 15360, Note_on_c, 4, 60, 100
5, 15360, Note_on_c, 4, 61, 100
5, 15600, Note_on_c, 4, 60, 0
5, 15600, Note_on_c, 4, 61, 0
5, 15840, Note_on_c, 4, 61, 100
5, 16080, Note_on_c, 4, 61, 0
5, 16320, Note_on_c, 4, 60, 100
5, 16320, Note_on_c, 4, 61, 100
5, 16560, Note_on_c, 4, 60, 0
5, 16560, Note_on_c, 4, 61, 0
5, 16800, Note_on_c, 4, 61, 100
5, 17040, Note_on_c, 4, 61, 0
5, 17280, Note_on_c, 4, 60, 100
5, 17280, Note_on_c, 4, 61, 100
5, 17520, Note_on_c, 4, 60, 0
5, 17520, Note_on_c, 4, 61, 0
5, 17760, Note_on_c, 4, 61, 100
5, 18000, Note_on_c, 0, 68, 0
5, 18000, Note_on_c, 4, 61, 0
5, 18240, Note_on_c, 4, 60, 100
5, 18240, Note_on_c, 4, 61, 100
5, 18480, Note_on_c, 4, 60, 0
5, 18480, Note_on_c, 4, 61, 0
5, 18720, Note_on_c, 4, 61, 100
5, 18720, Note_on_c, 0, 69, 100
5, 18960, Note_on_c, 4, 61, 0
5, 19200, Note_on_c, 4, 60, 100
5, 19200, Note_on_c, 4, 61, 100
5, 19440, Note_on_c, 4, 60, 0
5, 19440, Note_on_c, 4, 61, 0
5, 19680, Note_on_c, 4, 61, 100
5, 19920, Note_on_c, 4, 61, 0
5, 20160, Note_on_c, 4, 60, 100
5, 20160, Note_on_c, 4, 61, 100
5, 20400, Note_on_c, 4, 60, 0
5, 20400, Note_on_c, 4, 61, 0
5, 20640, Note_on_c, 4, 61, 100
5, 20880, Note_on_c, 4, 61, 0
5, 21120, Note_on_c, 4, 60, 100
5, 21120, Note_on_c, 4, 61, 100
5, 21360, Note_on_c, 0, 69, 0
5, 21360, Note_on_c, 4, 60, 0
5, 21360, Note_on_c, 4, 61, 0
5, 21600, Note_on_c, 4, 61, 100
5, 21600, Note_on_c, 0, 70, 100
5, 21840, Note_on_c, 4, 61, 0
5, 21840, Note_on_c, 0, 70, 0
5, 22080, Note_on_c, 4, 60, 100
5, 22080, Note_on_c, 4, 61, 100
5, 22320, Note_on_c, 4, 60, 0
5, 22320, Note_on_c, 4, 61, 0
5, 22560, Note_on_c, 4, 61, 100
5, 22560, Note_on_c, 0, 69, 100
5, 22800, Note_on_c, 4, 61, 0
5, 22800, Note_on_c, 0, 69, 0
5, 23040, Note_on_c, 4, 60, 100
5, 23280, Note_on_c, 4, 60, 0
5, 23520, Note_on_c, 4, 61, 100
5, 23520, Note_on_c, 0, 70, 100
5, 23760, Note_on_c, 4, 61, 0
5, 23760, Note_on_c, 0, 70, 0
5, 24000, Note_on_c, 4, 60, 100
5, 24000, Note_on_c, 4, 61, 100
5, 24240, Note_on_c, 4, 60, 0
5, 24240, Note_on_c, 4, 61, 0
5, 24480, Note_on_c, 4, 61, 100
5, 24720, Note_on_c, 4, 61, 0
5, 24960, Note_on_c, 4, 60, 100
5, 24960, Note_on_c, 4, 61, 100
5, 24960, Note_on_c, 0, 69, 100
5, 25200, Note_on_c, 4, 60, 0
5, 25200, Note_on_c, 4, 61, 0
5, 25200, Note_on_c, 0, 69, 0
5, 25440, Note_on_c, 4, 61, 100
5, 25680, Note_on_c, 4, 61, 0
5, 25920, Note_on_c, 4, 60, 100
5, 25920, Note_on_c, 4, 61, 100
5, 25920, Note_on_c, 0, 68, 100
5, 26160, Note_on_c, 4, 60, 0
5, 26160, Note_on_c, 4, 61, 0
5, 26160, Note_on_c, 0, 68, 0
5, 26400, Note_on_c, 4, 61, 100
5, 26640, Note_on_c, 4, 61, 0
5, 26880, Note_on_c, 4, 60, 100
5, 26880, Note_on_c, 4, 61, 100
5, 26880, Note_on_c, 0, 69, 100
5, 27120, Note_on_c, 4, 60, 0
5, 27120, Note_on_c, 4, 61, 0
5, 27120, Note_on_c, 0, 69, 0
5, 27360, Note_on_c, 4, 61, 100
5, 27360, Note_on_c, 0, 69, 100
5, 27600, Note_on_c, 4, 61, 0
5, 27840, Note_on_c, 4, 60, 100
5, 27840, Note_on_c, 4, 61, 100
5, 28080, Note_on_c, 4, 60, 0
5, 28080, Note_on_c, 4, 61, 0
5, 28320, Note_on_c, 4, 61, 100
5, 28560, Note_on_c, 4, 61, 0
5, 28800, Note_on_c, 4, 60, 100
5, 28800, Note_on_c, 4, 61, 100
5, 29040, Note_on_c, 4, 60, 0
5, 29040, Note_on_c, 4, 61, 0
5, 29280, Note_on_c, 4, 61, 100
5, 29520, Note_on_c, 4, 61, 0
5, 29760, Note_on_c, 4, 60, 100
5, 29760, Note_on_c, 4, 61, 100
5, 30000, Note_on_c, 0, 69, 0
5, 30000, Note_on_c, 4, 60, 0
5, 30000, Note_on_c, 4, 61, 0
5, 30240, Note_on_c, 4, 61, 100
5, 30240, Note_on_c, 0, 68, 100
5, 30480, Note_on_c, 4, 61, 0
5, 30720, Note_on_c, 4, 60, 100
5, 30960, Note_on_c, 4, 60, 0
5, 31200, Note_on_c, 4, 61, 100
5, 31440, Note_on_c, 4, 61, 0
5, 31680, Note_on_c, 4, 60, 100
5, 31680, Note_on_c, 4, 61, 100
5, 31920, Note_on_c, 4, 60, 0
5, 31920, Note_on_c, 4, 61, 0
5, 32160, Note_on_c, 4, 61, 100
5, 32400, Note_on_c, 4, 61, 0
5, 32640, Note_on_c, 4, 60, 100
5, 32640, Note_on_c, 4, 61, 100
5, 32880, Note_on_c, 4, 60, 0
5, 32880, Note_on_c, 4, 61, 0
5, 33120, Note_on_c, 4, 61, 100
5, 33360, Note_on_c, 0, 68, 0
5, 33360, Note_on_c, 4, 61, 0
5, 33600, Note_on_c, 4, 60, 100
5, 33600, Note_on_c, 4, 61, 100
5, 33840, Note_on_c, 4, 60, 0
5, 33840, Note_on_c, 4, 61, 0
5, 34080, Note_on_c, 4, 61, 100
5, 34080, Note_on_c, 0, 69, 100
5, 34320, Note_on_c, 4, 61, 0
5, 34560, Note_on_c, 4, 60, 100
5, 34800, Note_on_c, 4, 60, 0
5, 35040, Note_on_c, 4, 61, 100
5, 35280, Note_on_c, 4, 61, 0
5, 35520, Note_on_c, 4, 60, 100
5, 35520, Note_on_c, 4, 61, 100
5, 35760, Note_on_c, 4, 60, 0
5, 35760, Note_on_c, 4, 61, 0
5, 36000, Note_on_c, 4, 61, 100
5, 36240, Note_on_c, 4, 61, 0
5, 36480, Note_on_c, 4, 60, 100
5, 36480, Note_on_c, 4, 61, 100
5, 36720, Note_on_c, 0, 69, 0
5, 36720, Note_on_c, 4, 60, 0
5, 36720, Note_on_c, 4, 61, 0
5, 36960, Note_on_c, 4, 61, 100
5, 36960, Note_on_c, 0, 70, 100
5, 37200, Note_on_c, 4, 61, 0
5, 37200, Note_on_c, 0, 70, 0
5, 37440, Note_on_c, 4, 60, 100
5, 37440, Note_on_c, 4, 61, 100
5, 37680, Note_on_c, 4, 60, 0
5, 37680, Note_on_c, 4, 61, 0
5, 37920, Note_on_c, 4, 61, 100
5, 37920, Note_on_c, 0, 69, 100
5, 38160, Note_on_c, 4, 61, 0
5, 38160, Note_on_c, 0, 69, 0
5, 38400, Note_on_c, 4, 60, 100
5, 38640, Note_on_c, 4, 60, 0
5, 38880, Note_on_c, 4, 61, 100
5, 38880, Note_on_c, 0, 70, 100
5, 39120, Note_on_c, 4, 61, 0
5, 39120, Note_on_c, 0, 70, 0
5, 39360, Note_on_c, 4, 60, 100
5, 39360, Note_on_c, 4, 61, 100
5, 39600, Note_on_c, 4, 60, 0
5, 39600, Note_on_c, 4, 61, 0
5, 39840, Note_on_c, 4, 61, 100
5, 40080, Note_on_c, 4, 61, 0
5, 40320, Note_on_c, 4, 60, 100
5, 40320, Note_on_c, 4, 61, 100
5, 40320, Note_on_c, 0, 69, 100
5, 40560, Note_on_c, 4, 60, 0
5, 40560, Note_on_c, 4, 61, 0
5, 40560, Note_on_c, 0, 69, 0
5, 40800, Note_on_c, 4, 61, 100
5, 41040, Note_on_c, 4, 61, 0
5, 41280, Note_on_c, 4, 60, 100
5, 41280, Note_on_c, 4, 61, 100
5, 41280, Note_on_c, 0, 68, 100
5, 41520, Note_on_c, 4, 60, 0
5, 41520, Note_on_c, 4, 61, 0
5, 41520, Note_on_c, 0, 68, 0
5, 41760, Note_on_c, 4, 61, 100
5, 42000, Note_on_c, 4, 61, 0
5, 42240, Note_on_c, 4, 60, 100
5, 42240, Note_on_c, 4, 61, 100
5, 42240, Note_on_c, 0, 69, 100
5, 42480, Note_on_c, 4, 60, 0
5, 42480, Note_on_c, 4, 61, 0
5, 42480, Note_on_c, 0, 69, 0
5, 42720, Note_on_c, 4, 61, 100
5, 42720, Note_on_c, 0, 69, 100
5, 42960, Note_on_c, 4, 61, 0
5, 43200, Note_on_c, 4, 60, 100
5, 43200, Note_on_c, 4, 61, 100
5, 43440, Note_on_c, 4, 60, 0
5, 43440, Note_on_c, 4, 61, 0
5, 43680, Note_on_c, 4, 61, 100
5, 43920, Note_on_c, 4, 61, 0
5, 44160, Note_on_c, 4, 60, 100
5, 44160, Note_on_c, 4, 61, 100
5, 44400, Note_on_c, 4, 60, 0
5, 44400, Note_on_c, 4, 61, 0
5, 44640, Note_on_c, 4, 61, 100
5, 44880, Note_on_c, 4, 61, 0
5, 45120, Note_on_c, 4, 60, 100
5, 45120, Note_on_c, 4, 61, 100
5, 45360, Note_on_c, 0, 69, 0
5, 45360, Note_on_c, 4, 60, 0
5, 45360, Note_on_c, 4, 61, 0
5, 45600, Note_on_c, 4, 61, 100
5, 45600, Note_on_c, 0, 68, 100
5, 45840, Note_on_c, 4, 61, 0
5, 46080, Note_on_c, 4, 60, 100
5, 46320, Note_on_c, 4, 60, 0
5, 46560, Note_on_c, 4, 61, 100
5, 46800, Note_on_c, 4, 61, 0
5, 47040, Note_on_c, 4, 60, 100
5, 47040, Note_on_c, 4, 61, 100
5, 47280, Note_on_c, 4, 60, 0
5, 47280, Note_on_c, 4, 61, 0
5, 47520, Note_on_c, 4, 61, 100
5, 47760, Note_on_c, 4, 61, 0
5, 48000, Note_on_c, 4, 60, 100
5, 48000, Note_on_c, 4, 61, 100
5, 48240, Note_on_c, 4, 60, 0
5, 48240, Note_on_c, 4, 61, 0
5, 48480, Note_on_c, 4, 61, 100
5, 48720, Note_on_c, 0, 68, 0
5, 48720, Note_on_c, 4, 61, 0
5, 48960, Note_on_c, 4, 60, 100
5, 48960, Note_on_c, 4, 61, 100
5, 49200, Note_on_c, 4, 60, 0
5, 49200, Note_on_c, 4, 61, 0
5, 49440, Note_on_c, 4, 61, 100
5, 49440, Note_on_c, 0, 69, 100
5, 49680, Note_on_c, 4, 61, 0
5, 49920, Note_on_c, 4, 60, 100
5, 50160, Note_on_c, 4, 60, 0
5, 50400, Note_on_c, 4, 61, 100
5, 50640, Note_on_c, 4, 61, 0
5, 50880, Note_on_c, 4, 60, 100
5, 50880, Note_on_c, 4, 61, 100
5, 51120, Note_on_c, 4, 60, 0
5, 51120, Note_on_c, 4, 61, 0
5, 51360, Note_on_c, 4, 61, 100
5, 51600, Note_on_c, 4, 61, 0
5, 51840, Note_on_c, 4, 60, 100
5, 51840, Note_on_c, 4, 61, 100
5, 52080, Note_on_c, 0, 69, 0
5, 52080, Note_on_c, 4, 60, 0
5, 52080, Note_on_c, 4, 61, 0
5, 52320, Note_on_c, 4, 61, 100
5, 52320, Note_on_c, 0, 70, 100
5, 52560, Note_on_c, 4, 61, 0
5, 52560, Note_on_c, 0, 70, 0
5, 52800, Note_on_c, 4, 60, 100
5, 52800, Note_on_c, 4, 61, 100
5, 53040, Note_on_c, 4, 60, 0
5, 53040, Note_on_c, 4, 61, 0
5, 53280, Note_on_c, 4, 61, 100
5, 53280, Note_on_c, 0, 69, 100
5, 53520, Note_on_c, 4, 61, 0
5, 53520, Note_on_c, 0, 69, 0
5, 53760, Note_on_c, 4, 60, 100
5, 54000, Note_on_c, 4, 60, 0
5, 54240, Note_on_c, 4, 61, 100
5, 54240, Note_on_c, 0, 70, 100
5, 54480, Note_on_c, 4, 61, 0
5, 54480, Note_on_c, 0, 70, 0
5, 54720, Note_on_c, 4, 60, 100
5, 54720, Note_on_c, 4, 61, 100
5, 54960, Note_on_c, 4, 60, 0
5, 54960, Note_on_c, 4, 61, 0
5, 55200, Note_on_c, 4, 61, 100
5, 55440, Note_on_c, 4, 61, 0
5, 55680, Note_on_c, 4, 60, 100
5, 55680, Note_on_c, 4, 61, 100
5, 55680, Note_on_c, 0, 69, 100
5, 55920, Note_on_c, 4, 60, 0
5, 55920, Note_on_c, 4, 61, 0
5, 55920, Note_on_c, 0, 69, 0
5, 56160, Note_on_c, 4, 61, 100
5, 56400, Note_on_c, 4, 61, 0
5, 56640, Note_on_c, 4, 60, 100
5, 56640, Note_on_c, 4, 61, 100
5, 56640, Note_on_c, 0, 68, 100
5, 56880, Note_on_c, 4, 60, 0
5, 56880, Note_on_c, 4, 61, 0
5, 56880, Note_on_c, 0, 68, 0
5, 57120, Note_on_c, 4, 61, 100
5, 57360, Note_on_c, 4, 61, 0
5, 57600, Note_on_c, 4, 60, 100
5, 57600, Note_on_c, 4, 61, 100
5, 57600, Note_on_c, 0, 69, 100
5, 57840, Note_on_c, 4, 60, 0
5, 57840, Note_on_c, 4, 61, 0
5, 57840, Note_on_c, 0, 69, 0
5, 58080, Note_on_c, 4, 61, 100
5, 58080, Note_on_c, 0, 69, 100
5, 58320, Note_on_c, 4, 61, 0
5, 58560, Note_on_c, 4, 60, 100
5, 58560, Note_on_c, 4, 61, 100
5, 58800, Note_on_c, 4, 60, 0
5, 58800, Note_on_c, 4, 61, 0
5, 59040, Note_on_c, 4, 61, 100
5, 59280, Note_on_c, 4, 61, 0
5, 59520, Note_on_c, 4, 60, 100
5, 59520, Note_on_c, 4, 61, 100
5, 59760, Note_on_c, 4, 60, 0
5, 59760, Note_on_c, 4, 61, 0
5, 60000, Note_on_c, 4, 61, 100
5, 60240, Note_on_c, 4, 61, 0
5, 60480, Note_on_c, 4, 60, 100
5, 60480, Note_on_c, 4, 61, 100
5, 60720, Note_on_c, 0, 69, 0
5, 60720, Note_on_c, 4, 60, 0
5, 60720, Note_on_c, 4, 61, 0
5, 60960, Note_on_c, 4, 61, 100
5, 60960, Note_on_c, 0, 68, 100
5, 61200, Note_on_c, 4, 61, 0
5, 61440, Note_on_c, 4, 60, 100
5, 61680, Note_on_c, 4, 60, 0
5, 61920, Note_on_c, 4, 61, 100
5, 62160, Note_on_c, 4, 61, 0
5, 62400, Note_on_c, 4, 60, 100
5, 62400, Note_on_c, 4, 61, 100
5, 62640, Note_on_c, 4, 60, 0
5, 62640, Note_on_c, 4, 61, 0
5, 62880, Note_on_c, 4, 61, 100
5, 63120, Note_on_c, 4, 61, 0
5, 63360, Note_on_c, 4, 60, 100
5, 63360, Note_on_c, 4, 61, 100
5, 63600, Note_on_c, 4, 60, 0
5, 63600, Note_on_c, 4, 61, 0
5, 63840, Note_on_c, 4, 61, 100
5, 64080, Note_on_c, 0, 68, 0
5, 64080, Note_on_c, 4, 61, 0
5, 64320, Note_on_c, 4, 60, 100
5, 64320, Note_on_c, 4, 61, 100
5, 64560, Note_on_c, 4, 60, 0
5, 64560, Note_on_c, 4, 61, 0
5, 64800, Note_on_c, 4, 61, 100
5, 64800, Note_on_c, 0, 69, 100
5, 65040, Note_on_c, 4, 61, 0
5, 65280, Note_on_c, 4, 60, 100
5, 65520, Note_on_c, 4, 60, 0
5, 65760, Note_on_c, 4, 61, 100
5, 66000, Note_on_c, 4, 61, 0
5, 66240, Note_on_c, 4, 60, 100
5, 66240, Note_on_c, 4, 61, 100
5, 66480, Note_on_c, 4, 60, 0
5, 66480, Note_on_c, 4, 61, 0
5, 66720, Note_on_c, 4, 61, 100
5, 66960, Note_on_c, 4, 61, 0
5, 67200, Note_on_c, 4, 60, 100
5, 67200, Note_on_c, 4, 61, 100
5, 67440, Note_on_c, 0, 69, 0
5, 67440, Note_on_c, 4, 60, 0
5, 67440, Note_on_c, 4, 61, 0
5, 67680, Note_on_c, 4, 61, 100
5, 67680, Note_on_c, 0, 70, 100
5, 67920, Note_on_c, 4, 61, 0
5, 67920, Note_on_c, 0, 70, 0
5, 68160, Note_on_c, 4, 60, 100
5, 68160, Note_on_c, 4, 61, 100
5, 68400, Note_on_c, 4, 60, 0
5, 68400, Note_on_c, 4, 61, 0
5, 68640, Note_on_c, 4, 61, 100
5, 68640, Note_on_c, 0, 69, 100
5, 68880, Note_on_c, 4, 61, 0
5, 68880, Note_on_c, 0, 69, 0
5, 69120, Note_on_c, 4, 60, 100
5, 69360, Note_on_c, 4, 60, 0
5, 69600, Note_on_c, 4, 61, 100
5, 69600, Note_on_c, 0, 70, 100
5, 69840, Note_on_c, 4, 61, 0
5, 69840, Note_on_c, 0, 70, 0
5, 70080, Note_on_c, 4, 60, 100
5, 70080, Note_on_c, 4, 61, 100
5, 70320, Note_on_c, 4, 60, 0
5, 70320, Note_on_c, 4, 61, 0
5, 70560, Note_on_c, 4, 61, 100
5, 70800, Note_on_c, 4, 61, 0
5, 71040, Note_on_c, 4, 60, 100
5, 71040, Note_on_c, 4, 61, 100
5, 71040, Note_on_c, 0, 69, 100
5, 71280, Note_on_c, 4, 60, 0
5, 71280, Note_on_c, 4, 61, 0
5, 71280, Note_on_c, 0, 69, 0
5, 71520, Note_on_c, 4, 61, 100
5, 71760, Note_on_c, 4, 61, 0
5, 72000, Note_on_c, 4, 60, 100
5, 72000, Note_on_c, 4, 61, 100
5, 72000, Note_on_c, 0, 68, 100
5, 72240, Note_on_c, 4, 60, 0
5, 72240, Note_on_c, 4, 61, 0
5, 72240, Note_on_c, 0, 68, 0
5, 72480, Note_on_c, 4, 61, 100
5, 72720, Note_on_c, 4, 61, 0
5, 72960, Note_on_c, 4, 60, 100
5, 72960, Note_on_c, 4, 61, 100
5, 72960, Note_on_c, 0, 68, 100
5, 73200, Note_on_c, 4, 60, 0
5, 73200, Note_on_c, 4, 61, 0
5, 73920, Note_on_c, 0, 68, 0
5, 73920, Note_on_c, 4, 61, 100
5, 73920, Note_on_c, 0, 68, 100
5, 74160, Note_on_c, 4, 61, 0
5, 74160, Note_on_c, 0, 68, 0
5, 75360, Note_on_c, 4, 61, 100
5, 75360, Note_on_c, 0, 68, 100
5, 75600, Note_on_c, 4, 61, 0
5, 75600, Note_on_c, 0, 68, 0
5, 76320, Note_on_c, 4, 61, 100
5, 76320, Note_on_c, 0, 68, 100
5, 76560, Note_on_c, 4, 61, 0
5, 77760, Note_on_c, 0, 68, 0
5, 80640, Note_on_c, 4, 61, 100
5, 80640, Note_on_c, 0, 68, 100
5, 80880, Note_on_c, 4, 61, 0
5, 81600, Note_on_c, 0, 68, 0
5, 81600, Note_on_c, 4, 61, 100
5, 81600, Note_on_c, 0, 68, 100
5, 81840, Note_on_c, 4, 61, 0
5, 81840, Note_on_c, 0, 68, 0
5, 83040, Note_on_c, 4, 61, 100
5, 83040, Note_on_c, 0, 68, 100
5, 83280, Note_on_c, 4, 61, 0
5, 83280, Note_on_c, 0, 68, 0
5, 84000, Note_on_c, 4, 61, 100
5, 84000, Note_on_c, 0, 68, 100
5, 84240, Note_on_c, 4, 61, 0
5, 85440, Note_on_c, 0, 68, 0
5, 86880, Note_on_c, 4, 60, 100
5, 87120, Note_on_c, 4, 60, 0
5, 88320, Note_on_c, 4, 60, 100
5, 88320, Note_on_c, 4, 61, 100
5, 88320, Note_on_c, 0, 68, 100
5, 88560, Note_on_c, 4, 60, 0
5, 88560, Note_on_c, 4, 61, 0
5, 89280, Note_on_c, 0, 68, 0
5, 89280, Note_on_c, 4, 61, 100
5, 89280, Note_on_c, 0, 68, 100
5, 89520, Note_on_c, 4, 61, 0
5, 89520, Note_on_c, 0, 68, 0
5, 90240, Note_on_c, 4, 60, 100
5, 90480, Note_on_c, 4, 60, 0
5, 90720, Note_on_c, 4, 60, 100
5, 90720, Note_on_c, 4, 61, 100
5, 90720, Note_on_c, 0, 68, 100
5, 90960, Note_on_c, 4, 60, 0
5, 90960, Note_on_c, 4, 61, 0
5, 90960, Note_on_c, 0, 68, 0
5, 91680, Note_on_c, 4, 61, 100
5, 91680, Note_on_c, 0, 68, 100
5, 91920, Note_on_c, 4, 61, 0
5, 92160, Note_on_c, 4, 60, 100
5, 92400, Note_on_c, 4, 60, 0
5, 93120, Note_on_c, 0, 68, 0
5, 94080, Note_on_c, 4, 60, 100
5, 94320, Note_on_c, 4, 60, 0
5, 94560, Note_on_c, 4, 60, 100
5, 94800, Note_on_c, 4, 60, 0
5, 96000, Note_on_c, 4, 60, 100
5, 96000, Note_on_c, 4, 61, 100
5, 96000, Note_on_c, 0, 68, 100
5, 96240, Note_on_c, 4, 60, 0
5, 96240, Note_on_c, 4, 61, 0
5, 96960, Note_on_c, 0, 68, 0
5, 96960, Note_on_c, 4, 61, 100
5, 96960, Note_on_c, 0, 68, 100
5, 97200, Note_on_c, 4, 61, 0
5, 97200, Note_on_c, 0, 68, 0
5, 97920, Note_on_c, 4, 60, 100
5, 98160, Note_on_c, 4, 60, 0
5, 98400, Note_on_c, 4, 60, 100
5, 98400, Note_on_c, 4, 61, 100
5, 98400, Note_on_c, 0, 68, 100
5, 98640, Note_on_c, 4, 60, 0
5, 98640, Note_on_c, 4, 61, 0
5, 98640, Note_on_c, 0, 68, 0
5, 99360, Note_on_c, 4, 61, 100
5, 99360, Note_on_c, 0, 68, 100
5, 99600, Note_on_c, 4, 61, 0
5, 99840, Note_on_c, 4, 60, 100
5, 100080, Note_on_c, 4, 60, 0
5, 100800, Note_on_c, 0, 68, 0
5, 101760, Note_on_c, 4, 60, 100
5, 102000, Note_on_c, 4, 60, 0
5, 102240, Note_on_c, 4, 60, 100
5, 102480, Note_on_c, 4, 60, 0
5, 103680, Note_on_c, 4, 60, 100
5, 103680, Note_on_c, 4, 61, 100
5, 103680, Note_on_c, 0, 69, 100
5, 103920, Note_on_c, 4, 60, 0
5, 103920, Note_on_c, 4, 61, 0
5, 104640, Note_on_c, 0, 69, 0
5, 104640, Note_on_c, 4, 61, 100
5, 104640, Note_on_c, 0, 69, 100
5, 104880, Note_on_c, 4, 61, 0
5, 104880, Note_on_c, 0, 69, 0
5, 105600, Note_on_c, 4, 60, 100
5, 105840, Note_on_c, 4, 60, 0
5, 106080, Note_on_c, 4, 60, 100
5, 106080, Note_on_c, 4, 61, 100
5, 106080, Note_on_c, 0, 68, 100
5, 106320, Note_on_c, 4, 60, 0
5, 106320, Note_on_c, 4, 61, 0
5, 106320, Note_on_c, 0, 68, 0
5, 107040, Note_on_c, 4, 61, 100
5, 107040, Note_on_c, 0, 69, 100
5, 107280, Note_on_c, 4, 61, 0
5, 107520, Note_on_c, 4, 60, 100
5, 107760, Note_on_c, 4, 60, 0
5, 108480, Note_on_c, 0, 69, 0
5, 109440, Note_on_c, 4, 60, 100
5, 109680, Note_on_c, 4, 60, 0
5, 109920, Note_on_c, 4, 60, 100
5, 110160, Note_on_c, 4, 60, 0
5, 111360, Note_on_c, 4, 60, 100
5, 111360, Note_on_c, 4, 61, 100
5, 111360, Note_on_c, 0, 68, 100
5, 111600, Note_on_c, 4, 60, 0
5, 111600, Note_on_c, 4, 61, 0
5, 112320, Note_on_c, 0, 68, 0
5, 112320, Note_on_c, 4, 61, 100
5, 112320, Note_on_c, 0, 68, 100
5, 112560, Note_on_c, 4, 61, 0
5, 112560, Note_on_c, 0, 68, 0
5, 113280, Note_on_c, 4, 60, 100
5, 113520, Note_on_c, 4, 60, 0
5, 113760, Note_on_c, 4, 60, 100
5, 113760, Note_on_c, 4, 61, 100
5, 113760, Note_on_c, 0, 68, 100
5, 114000, Note_on_c, 4, 60, 0
5, 114000, Note_on_c, 4, 61, 0
5, 114000, Note_on_c, 0, 68, 0
5, 114720, Note_on_c, 4, 61, 100
5, 114720, Note_on_c, 0, 68, 100
5, 114960, Note_on_c, 4, 61, 0
5, 115200, Note_on_c, 4, 60, 100
5, 115440, Note_on_c, 4, 60, 0
5, 116160, Note_on_c, 0, 68, 0
5, 117120, Note_on_c, 4, 60, 100
5, 117360, Note_on_c, 4, 60, 0
5, 117600, Note_on_c, 4, 60, 100
5, 117840, Note_on_c, 4, 60, 0
5, 119040, Note_on_c, 4, 60, 100
5, 119040, Note_on_c, 4, 61, 100
5, 119040, Note_on_c, 0, 70, 100
5, 119280, Note_on_c, 4, 60, 0
5, 119280, Note_on_c, 4, 61, 0
5, 120000, Note_on_c, 0, 70, 0
5, 120000, Note_on_c, 4, 61, 100
5, 120000, Note_on_c, 0, 70, 100
5, 120240, Note_on_c, 4, 61, 0
5, 120240, Note_on_c, 0, 70, 0
5, 120960, Note_on_c, 4, 60, 100
5, 121200, Note_on_c, 4, 60, 0
5, 121440, Note_on_c, 4, 60, 100
5, 121440, Note_on_c, 4, 61, 100
5, 121440, Note_on_c, 0, 69, 100
5, 121680, Note_on_c, 4, 60, 0
5, 121680, Note_on_c, 4, 61, 0
5, 121680, Note_on_c, 0, 69, 0
5, 122400, Note_on_c, 4, 61, 100
5, 122400, Note_on_c, 0, 70, 100
5, 122640, Note_on_c, 4, 61, 0
5, 122880, Note_on_c, 4, 60, 100
5, 123120, Note_on_c, 4, 60, 0
5, 123840, Note_on_c, 0, 70, 0
5, 124800, Note_on_c, 4, 60, 100
5, 125040, Note_on_c, 4, 60, 0
5, 125280, Note_on_c, 4, 60, 100
5, 125520, Note_on_c, 4, 60, 0
5, 126720, Note_on_c, 4, 60, 100
5, 126720, Note_on_c, 4, 61, 100
5, 126720, Note_on_c, 0, 69, 100
5, 126960, Note_on_c, 4, 60, 0
5, 126960, Note_on_c, 4, 61, 0
5, 127680, Note_on_c, 0, 69, 0
5, 127680, Note_on_c, 4, 61, 100
5, 127680, Note_on_c, 0, 69, 100
5, 127920, Note_on_c, 4, 61, 0
5, 127920, Note_on_c, 0, 69, 0
5, 128640, Note_on_c, 4, 60, 100
5, 128880, Note_on_c, 4, 60, 0
5, 129120, Note_on_c, 4, 60, 100
5, 129120, Note_on_c, 4, 61, 100
5, 129120, Note_on_c, 0, 68, 100
5, 129360, Note_on_c, 4, 60, 0
5, 129360, Note_on_c, 4, 61, 0
5, 129360, Note_on_c, 0, 68, 0
5, 130080, Note_on_c, 4, 61, 100
5, 130080, Note_on_c, 0, 69, 100
5, 130320, Note_on_c, 4, 61, 0
5, 130560, Note_on_c, 4, 60, 100
5, 130800, Note_on_c, 4, 60, 0
5, 131520, Note_on_c, 0, 69, 0
5, 132480, Note_on_c, 4, 60, 100
5, 132720, Note_on_c, 4, 60, 0
5, 132960, Note_on_c, 4, 60, 100
5, 133200, Note_on_c, 4, 60, 0
5, 134400, Note_on_c, 4, 60, 100
5, 134400, Note_on_c, 4, 61, 100
5, 134400, Note_on_c, 0, 70, 100
5, 134640, Note_on_c, 4, 60, 0
5, 134640, Note_on_c, 4, 61, 0
5, 135360, Note_on_c, 0, 70, 0
5, 135360, Note_on_c, 4, 61, 100
5, 135360, Note_on_c, 0, 70, 100
5, 135600, Note_on_c, 4, 61, 0
5, 135600, Note_on_c, 0, 70, 0
5, 136320, Note_on_c, 4, 60, 100
5, 136560, Note_on_c, 4, 60, 0
5, 136800, Note_on_c, 4, 60, 100
5, 136800, Note_on_c, 4, 61, 100
5, 136800, Note_on_c, 0, 69, 100
5, 137040, Note_on_c, 4, 60, 0
5, 137040, Note_on_c, 4, 61, 0
5, 137040, Note_on_c, 0, 69, 0
5, 137760, Note_on_c, 4, 60, 100
5, 137760, Note_on_c, 4, 61, 100
5, 137760, Note_on_c, 0, 69, 100
5, 138000, Note_on_c, 4, 60, 0
5, 138000, Note_on_c, 4, 61, 0
5, 138720, Note_on_c, 4, 60, 100
5, 138720, Note_on_c, 4, 61, 100
5, 138960, Note_on_c, 4, 60, 0
5, 138960, Note_on_c, 4, 61, 0
5, 139200, Note_on_c, 0, 69, 0
5, 139200, Note_on_c, 4, 61, 100
5, 139200, Note_on_c, 0, 69, 100
5, 139440, Note_on_c, 4, 61, 0
5, 139440, Note_on_c, 0, 69, 0
5, 139680, Note_on_c, 4, 61, 100
5, 139920, Note_on_c, 4, 61, 0
5, 140160, Note_on_c, 4, 60, 100
5, 140160, Note_on_c, 4, 61, 100
5, 140400, Note_on_c, 4, 60, 0
5, 140400, Note_on_c, 4, 61, 0
5, 140640, Note_on_c, 4, 60, 100
5, 140640, Note_on_c, 4, 61, 100
5, 140640, Note_on_c, 0, 68, 100
5, 140880, Note_on_c, 4, 60, 0
5, 140880, Note_on_c, 4, 61, 0
5, 140880, Note_on_c, 0, 68, 0
5, 141600, Note_on_c, 4, 60, 100
5, 141600, Note_on_c, 4, 61, 100
5, 141600, Note_on_c, 0, 68, 100
5, 141840, Note_on_c, 4, 60, 0
5, 141840, Note_on_c, 4, 61, 0
5, 142560, Note_on_c, 4, 60, 100
5, 142560, Note_on_c, 4, 61, 100
5, 142800, Note_on_c, 4, 60, 0
5, 142800, Note_on_c, 4, 61, 0
5, 143040, Note_on_c, 0, 68, 0
5, 143040, Note_on_c, 4, 61, 100
5, 143040, Note_on_c, 0, 68, 100
5, 143280, Note_on_c, 4, 61, 0
5, 143280, Note_on_c, 0, 68, 0
5, 144000, Note_on_c, 4, 60, 100
5, 144240, Note_on_c, 4, 60, 0
5, 144480, Note_on_c, 4, 60, 100
5, 144480, Note_on_c, 4, 61, 100
5, 144480, Note_on_c, 0, 69, 100
5, 144720, Note_on_c, 4, 60, 0
5, 144720, Note_on_c, 4, 61, 0
5, 144720, Note_on_c, 0, 69, 0
5, 145440, Note_on_c, 4, 61, 100
5, 145440, Note_on_c, 0, 70, 100
5, 145680, Note_on_c, 4, 61, 0
5, 145920, Note_on_c, 4, 60, 100
5, 146160, Note_on_c, 4, 60, 0
5, 146400, Note_on_c, 4, 61, 100
5, 146640, Note_on_c, 4, 61, 0
5, 146880, Note_on_c, 0, 70, 0
5, 146880, Note_on_c, 4, 61, 100
5, 146880, Note_on_c, 0, 70, 100
5, 147120, Note_on_c, 4, 61, 0
5, 147120, Note_on_c, 0, 70, 0
5, 147360, Note_on_c, 4, 61, 100
5, 147600, Note_on_c, 4, 61, 0
5, 147840, Note_on_c, 4, 60, 100
5, 147840, Note_on_c, 4, 61, 100
5, 148080, Note_on_c, 4, 60, 0
5, 148080, Note_on_c, 4, 61, 0
5, 148320, Note_on_c, 4, 60, 100
5, 148320, Note_on_c, 4, 61, 100
5, 148320, Note_on_c, 0, 68, 100
5, 148560, Note_on_c, 4, 60, 0
5, 148560, Note_on_c, 4, 61, 0
5, 148560, Note_on_c, 0, 68, 0
5, 149280, Note_on_c, 4, 60, 100
5, 149280, Note_on_c, 4, 61, 100
5, 149280, Note_on_c, 0, 68, 100
5, 149520, Note_on_c, 4, 60, 0
5, 149520, Note_on_c, 4, 61, 0
5, 150240, Note_on_c, 4, 60, 100
5, 150240, Note_on_c, 4, 61, 100
5, 150480, Note_on_c, 4, 60, 0
5, 150480, Note_on_c, 4, 61, 0
5, 150720, Note_on_c, 0, 68, 0
5, 150720, Note_on_c, 4, 61, 100
5, 150720, Note_on_c, 0, 68, 100
5, 150960, Note_on_c, 4, 61, 0
5, 150960, Note_on_c, 0, 68, 0
5, 151680, Note_on_c, 4, 60, 100
5, 151920, Note_on_c, 4, 60, 0
5, 152160, Note_on_c, 4, 60, 100
5, 152160, Note_on_c, 4, 61, 100
5, 152160, Note_on_c, 0, 69, 100
5, 152400, Note_on_c, 4, 60, 0
5, 152400, Note_on_c, 4, 61, 0
5, 153360, Note_on_c, 0, 69, 0
5, 153600, Note_on_c, 4, 60, 100
5, 153600, Note_on_c, 4, 61, 100
5, 153600, Note_on_c, 0, 68, 100
5, 153840, Note_on_c, 4, 60, 0
5, 153840, Note_on_c, 4, 61, 0
5, 155040, Note_on_c, 4, 60, 100
5, 155040, Note_on_c, 4, 61, 100
5, 155280, Note_on_c, 4, 60, 0
5, 155280, Note_on_c, 4, 61, 0
5, 155520, Note_on_c, 4, 60, 100
5, 155520, Note_on_c, 4, 61, 100
5, 155760, Note_on_c, 4, 60, 0
5, 155760, Note_on_c, 4, 61, 0
5, 156480, Note_on_c, 0, 68, 0
5, 156480, Note_on_c, 4, 61, 100
5, 156480, Note_on_c, 0, 69, 100
5, 156720, Note_on_c, 4, 61, 0
5, 156720, Note_on_c, 0, 69, 0
5, 157440, Note_on_c, 4, 60, 100
5, 157440, Note_on_c, 4, 61, 100
5, 157440, Note_on_c, 0, 70, 100
5, 157680, Note_on_c, 4, 60, 0
5, 157680, Note_on_c, 4, 61, 0
5, 161280, Note_on_c, 0, 70, 0
5, 161760, Note_on_c, 0, 70, 100
5, 162000, Note_on_c, 0, 70, 0
5, 163200, Note_on_c, 0, 69, 100
5, 163440, Note_on_c, 0, 69, 0
5, 164160, Note_on_c, 0, 68, 100
5, 164400, Note_on_c, 0, 68, 0
5, 165120, Note_on_c, 4, 60, 100
5, 165120, Note_on_c, 4, 61, 100
5, 165120, Note_on_c, 0, 68, 100
5, 165360, Note_on_c, 4, 60, 0
5, 165360, Note_on_c, 4, 61, 0
5, 166080, Note_on_c, 0, 68, 0
5, 166080, Note_on_c, 4, 61, 100
5, 166080, Note_on_c, 0, 68, 100
5, 166320, Note_on_c, 4, 61, 0
5, 166320, Note_on_c, 0, 68, 0
5, 167040, Note_on_c, 4, 60, 100
5, 167280, Note_on_c, 4, 60, 0
5, 167520, Note_on_c, 4, 60, 100
5, 167520, Note_on_c, 4, 61, 100
5, 167520, Note_on_c, 0, 68, 100
5, 167760, Note_on_c, 4, 60, 0
5, 167760, Note_on_c, 4, 61, 0
5, 167760, Note_on_c, 0, 68, 0
5, 168480, Note_on_c, 4, 61, 100
5, 168480, Note_on_c, 0, 68, 100
5, 168720, Note_on_c, 4, 61, 0
5, 168960, Note_on_c, 4, 60, 100
5, 169200, Note_on_c, 4, 60, 0
5, 169920, Note_on_c, 0, 68, 0
5, 170880, Note_on_c, 4, 60, 100
5, 171120, Note_on_c, 4, 60, 0
5, 171360, Note_on_c, 4, 60, 100
5, 171600, Note_on_c, 4, 60, 0
5, 172800, Note_on_c, 4, 60, 100
5, 172800, Note_on_c, 4, 61, 100
5, 172800, Note_on_c, 0, 68, 100
5, 173040, Note_on_c, 4, 60, 0
5, 173040, Note_on_c, 4, 61, 0
5, 173760, Note_on_c, 0, 68, 0
5, 173760, Note_on_c, 4, 61, 100
5, 173760, Note_on_c, 0, 68, 100
5, 174000, Note_on_c, 4, 61, 0
5, 174000, Note_on_c, 0, 68, 0
5, 174720, Note_on_c, 4, 60, 100
5, 174960, Note_on_c, 4, 60, 0
5, 175200, Note_on_c, 4, 60, 100
5, 175200, Note_on_c, 4, 61, 100
5, 175200, Note_on_c, 0, 68, 100
5, 175440, Note_on_c, 4, 60, 0
5, 175440, Note_on_c, 4, 61, 0
5, 175440, Note_on_c, 0, 68, 0
5, 176160, Note_on_c, 4, 61, 100
5, 176160, Note_on_c, 0, 68, 100
5, 176400, Note_on_c, 4, 61, 0
5, 176640, Note_on_c, 4, 60, 100
5, 176880, Note_on_c, 4, 60, 0
5, 177600, Note_on_c, 0, 68, 0
5, 178560, Note_on_c, 4, 60, 100
5, 178800, Note_on_c, 4, 60, 0
5, 179040, Note_on_c, 4, 60, 100
5, 179280, Note_on_c, 4, 60, 0
5, 180480, Note_on_c, 4, 60, 100
5, 180480, Note_on_c, 4, 61, 100
5, 180480, Note_on_c, 0, 69, 100
5, 180720, Note_on_c, 4, 60, 0
5, 180720, Note_on_c, 4, 61, 0
5, 181440, Note_on_c, 0, 69, 0
5, 181440, Note_on_c, 4, 61, 100
5, 181440, Note_on_c, 0, 69, 100
5, 181680, Note_on_c, 4, 61, 0
5, 181680, Note_on_c, 0, 69, 0
5, 182400, Note_on_c, 4, 60, 100
5, 182640, Note_on_c, 4, 60, 0
5, 182880, Note_on_c, 4, 60, 100
5, 182880, Note_on_c, 4, 61, 100
5, 182880, Note_on_c, 0, 68, 100
5, 183120, Note_on_c, 4, 60, 0
5, 183120, Note_on_c, 4, 61, 0
5, 183120, Note_on_c, 0, 68, 0
5, 183840, Note_on_c, 4, 61, 100
5, 183840, Note_on_c, 0, 69, 100
5, 184080, Note_on_c, 4, 61, 0
5, 184320, Note_on_c, 4, 60, 100
5, 184560, Note_on_c, 4, 60, 0
5, 185280, Note_on_c, 0, 69, 0
5, 186240, Note_on_c, 4, 60, 100
5, 186480, Note_on_c, 4, 60, 0
5, 186720, Note_on_c, 4, 60, 100
5, 186960, Note_on_c, 4, 60, 0
5, 188160, Note_on_c, 4, 60, 100
5, 188160, Note_on_c, 4, 61, 100
5, 188160, Note_on_c, 0, 68, 100
5, 188400, Note_on_c, 4, 60, 0
5, 188400, Note_on_c, 4, 61, 0
5, 189120, Note_on_c, 0, 68, 0
5, 189120, Note_on_c, 4, 61, 100
5, 189120, Note_on_c, 0, 68, 100
5, 189360, Note_on_c, 4, 61, 0
5, 189360, Note_on_c, 0, 68, 0
5, 190080, Note_on_c, 4, 60, 100
5, 190320, Note_on_c, 4, 60, 0
5, 190560, Note_on_c, 4, 60, 100
5, 190560, Note_on_c, 4, 61, 100
5, 190560, Note_on_c, 0, 68, 100
5, 190800, Note_on_c, 4, 60, 0
5, 190800, Note_on_c, 4, 61, 0
5, 190800, Note_on_c, 0, 68, 0
5, 191520, Note_on_c, 4, 60, 100
5, 191520, Note_on_c, 4, 61, 100
5, 191520, Note_on_c, 0, 68, 100
5, 191760, Note_on_c, 4, 60, 0
5, 191760, Note_on_c, 4, 61, 0
5, 192480, Note_on_c, 4, 60, 100
5, 192720, Note_on_c, 4, 60, 0
5, 192960, Note_on_c, 0, 68, 0
5, 193440, Note_on_c, 4, 60, 100
5, 193680, Note_on_c, 4, 60, 0
5, 194400, Note_on_c, 4, 60, 100
5, 194640, Note_on_c, 4, 60, 0
5, 195840, Note_on_c, 4, 60, 100
5, 195840, Note_on_c, 4, 61, 100
5, 195840, Note_on_c, 0, 70, 100
5, 196080, Note_on_c, 4, 60, 0
5, 196080, Note_on_c, 4, 61, 0
5, 196800, Note_on_c, 0, 70, 0
5, 196800, Note_on_c, 4, 61, 100
5, 196800, Note_on_c, 0, 70, 100
5, 197040, Note_on_c, 4, 61, 0
5, 197040, Note_on_c, 0, 70, 0
5, 197760, Note_on_c, 4, 60, 100
5, 198000, Note_on_c, 4, 60, 0
5, 198240, Note_on_c, 4, 60, 100
5, 198240, Note_on_c, 4, 61, 100
5, 198240, Note_on_c, 0, 69, 100
5, 198480, Note_on_c, 4, 60, 0
5, 198480, Note_on_c, 4, 61, 0
5, 198480, Note_on_c, 0, 69, 0
5, 199200, Note_on_c, 4, 61, 100
5, 199200, Note_on_c, 0, 70, 100
5, 199440, Note_on_c, 4, 61, 0
5, 199680, Note_on_c, 4, 60, 100
5, 199920, Note_on_c, 4, 60, 0
5, 200640, Note_on_c, 0, 70, 0
5, 201600, Note_on_c, 4, 60, 100
5, 201840, Note_on_c, 4, 60, 0
5, 202080, Note_on_c, 4, 60, 100
5, 202320, Note_on_c, 4, 60, 0
5, 203520, Note_on_c, 4, 60, 100
5, 203520, Note_on_c, 4, 61, 100
5, 203520, Note_on_c, 0, 69, 100
5, 203760, Note_on_c, 4, 60, 0
5, 203760, Note_on_c, 4, 61, 0
5, 204480, Note_on_c, 0, 69, 0
5, 204480, Note_on_c, 4, 61, 100
5, 204480, Note_on_c, 0, 69, 100
5, 204720, Note_on_c, 4, 61, 0
5, 204720, Note_on_c, 0, 69, 0
5, 205440, Note_on_c, 4, 60, 100
5, 205680, Note_on_c, 4, 60, 0
5, 205920, Note_on_c, 4, 60, 100
5, 205920, Note_on_c, 4, 61, 100
5, 205920, Note_on_c, 0, 68, 100
5, 206160, Note_on_c, 4, 60, 0
5, 206160, Note_on_c, 4, 61, 0
5, 206160, Note_on_c, 0, 68, 0
5, 206880, Note_on_c, 4, 61, 100
5, 206880, Note_on_c, 0, 69, 100
5, 207120, Note_on_c, 4, 61, 0
5, 207360, Note_on_c, 4, 60, 100
5, 207600, Note_on_c, 4, 60, 0
5, 208320, Note_on_c, 0, 69, 0
5, 209280, Note_on_c, 4, 60, 100
5, 209520, Note_on_c, 4, 60, 0
5, 209760, Note_on_c, 4, 60, 100
5, 210000, Note_on_c, 4, 60, 0
5, 211200, Note_on_c, 4, 60, 100
5, 211200, Note_on_c, 4, 61, 100
5, 211200, Note_on_c, 0, 70, 100
5, 211440, Note_on_c, 4, 60, 0
5, 211440, Note_on_c, 4, 61, 0
5, 212160, Note_on_c, 0, 70, 0
5, 212160, Note_on_c, 4, 61, 100
5, 212160, Note_on_c, 0, 70, 100
5, 212400, Note_on_c, 4, 61, 0
5, 212400, Note_on_c, 0, 70, 0
5, 213120, Note_on_c, 4, 60, 100
5, 213360, Note_on_c, 4, 60, 0
5, 213600, Note_on_c, 4, 60, 100
5, 213600, Note_on_c, 4, 61, 100
5, 213600, Note_on_c, 0, 69, 100
5, 213840, Note_on_c, 4, 60, 0
5, 213840, Note_on_c, 4, 61, 0
5, 213840, Note_on_c, 0, 69, 0
5, 214560, Note_on_c, 4, 60, 100
5, 214560, Note_on_c, 4, 61, 100
5, 214560, Note_on_c, 0, 69, 100
5, 214800, Note_on_c, 4, 60, 0
5, 214800, Note_on_c, 4, 61, 0
5, 215520, Note_on_c, 4, 60, 100
5, 215520, Note_on_c, 4, 61, 100
5, 215760, Note_on_c, 4, 60, 0
5, 215760, Note_on_c, 4, 61, 0
5, 216000, Note_on_c, 0, 69, 0
5, 216000, Note_on_c, 4, 61, 100
5, 216000, Note_on_c, 0, 69, 100
5, 216240, Note_on_c, 4, 61, 0
5, 216240, Note_on_c, 0, 69, 0
5, 216480, Note_on_c, 4, 61, 100
5, 216720, Note_on_c, 4, 61, 0
5, 216960, Note_on_c, 4, 60, 100
5, 216960, Note_on_c, 4, 61, 100
5, 217200, Note_on_c, 4, 60, 0
5, 217200, Note_on_c, 4, 61, 0
5, 217440, Note_on_c, 4, 60, 100
5, 217440, Note_on_c, 4, 61, 100
5, 217440, Note_on_c, 0, 68, 100
5, 217680, Note_on_c, 4, 60, 0
5, 217680, Note_on_c, 4, 61, 0
5, 217680, Note_on_c, 0, 68, 0
5, 218400, Note_on_c, 4, 60, 100
5, 218400, Note_on_c, 4, 61, 100
5, 218400, Note_on_c, 0, 68, 100
5, 218640, Note_on_c, 4, 60, 0
5, 218640, Note_on_c, 4, 61, 0
5, 219360, Note_on_c, 4, 60, 100
5, 219360, Note_on_c, 4, 61, 100
5, 219600, Note_on_c, 4, 60, 0
5, 219600, Note_on_c, 4, 61, 0
5, 219840, Note_on_c, 0, 68, 0
5, 219840, Note_on_c, 4, 61, 100
5, 219840, Note_on_c, 0, 68, 100
5, 220080, Note_on_c, 4, 61, 0
5, 220080, Note_on_c, 0, 68, 0
5, 220800, Note_on_c, 4, 60, 100
5, 221040, Note_on_c, 4, 60, 0
5, 221280, Note_on_c, 4, 60, 100
5, 221280, Note_on_c, 4, 61, 100
5, 221280, Note_on_c, 0, 69, 100
5, 221520, Note_on_c, 4, 60, 0
5, 221520, Note_on_c, 4, 61, 0
5, 221520, Note_on_c, 0, 69, 0
5, 222240, Note_on_c, 4, 61, 100
5, 222240, Note_on_c, 0, 70, 100
5, 222480, Note_on_c, 4, 61, 0
5, 222720, Note_on_c, 4, 60, 100
5, 222960, Note_on_c, 4, 60, 0
5, 223200, Note_on_c, 4, 61, 100
5, 223440, Note_on_c, 4, 61, 0
5, 223680, Note_on_c, 0, 70, 0
5, 223680, Note_on_c, 4, 61, 100
5, 223680, Note_on_c, 0, 70, 100
5, 223920, Note_on_c, 4, 61, 0
5, 223920, Note_on_c, 0, 70, 0
5, 224160, Note_on_c, 4, 61, 100
5, 224400, Note_on_c, 4, 61, 0
5, 224640, Note_on_c, 4, 60, 100
5, 224640, Note_on_c, 4, 61, 100
5, 224880, Note_on_c, 4, 60, 0
5, 224880, Note_on_c, 4, 61, 0
5, 225120, Note_on_c, 4, 60, 100
5, 225120, Note_on_c, 4, 61, 100
5, 225120, Note_on_c, 0, 68, 100
5, 225360, Note_on_c, 4, 60, 0
5, 225360, Note_on_c, 4, 61, 0
5, 225360, Note_on_c, 0, 68, 0
5, 226080, Note_on_c, 4, 60, 100
5, 226080, Note_on_c, 4, 61, 100
5, 226080, Note_on_c, 0, 68, 100
5, 226320, Note_on_c, 4, 60, 0
5, 226320, Note_on_c, 4, 61, 0
5, 227040, Note_on_c, 4, 60, 100
5, 227040, Note_on_c, 4, 61, 100
5, 227280, Note_on_c, 4, 60, 0
5, 227280, Note_on_c, 4, 61, 0
5, 227520, Note_on_c, 0, 68, 0
5, 227520, Note_on_c, 4, 61, 100
5, 227520, Note_on_c, 0, 68, 100
5, 227760, Note_on_c, 4, 61, 0
5, 227760, Note_on_c, 0, 68, 0
5, 228480, Note_on_c, 4, 60, 100
5, 228720, Note_on_c, 4, 60, 0
5, 228960, Note_on_c, 4, 60, 100
5, 228960, Note_on_c, 4, 61, 100
5, 228960, Note_on_c, 0, 69, 100
5, 229200, Note_on_c, 4, 60, 0
5, 229200, Note_on_c, 4, 61, 0
5, 230160, Note_on_c, 0, 69, 0
5, 230400, Note_on_c, 4, 60, 100
5, 230400, Note_on_c, 4, 61, 100
5, 230400, Note_on_c, 0, 68, 100
5, 230640, Note_on_c, 4, 60, 0
5, 230640, Note_on_c, 4, 61, 0
5, 231840, Note_on_c, 4, 60, 100
5, 231840, Note_on_c, 4, 61, 100
5, 232080, Note_on_c, 4, 60, 0
5, 232080, Note_on_c, 4, 61, 0
5, 232320, Note_on_c, 4, 60, 100
5, 232320, Note_on_c, 4, 61, 100
5, 232560, Note_on_c, 4, 60, 0
5, 232560, Note_on_c, 4, 61, 0
5, 233280, Note_on_c, 0, 68, 0
5, 233280, Note_on_c, 4, 61, 100
5, 233280, Note_on_c, 0, 69, 100
5, 233520, Note_on_c, 4, 61, 0
5, 233520, Note_on_c, 0, 69, 0
5, 234240, Note_on_c, 4, 61, 100
5, 234240, Note_on_c, 0, 70, 100
5, 234480, Note_on_c, 4, 61, 0
5, 234720, Note_on_c, 4, 60, 100
5, 234960, Note_on_c, 4, 60, 0
5, 235200, Note_on_c, 4, 60, 100
5, 235440, Note_on_c, 4, 60, 0
5, 236160, Note_on_c, 4, 60, 100
5, 236400, Note_on_c, 4, 60, 0
5, 236640, Note_on_c, 4, 60, 100
5, 236880, Note_on_c, 4, 60, 0
5, 237840, Note_on_c, 0, 70, 0
5, 238080, Note_on_c, 4, 60, 100
5, 238080, Note_on_c, 4, 61, 100
5, 238080, Note_on_c, 0, 68, 100
5, 238320, Note_on_c, 4, 60, 0
5, 238320, Note_on_c, 4, 61, 0
5, 239520, Note_on_c, 4, 60, 100
5, 239520, Note_on_c, 4, 61, 100
5, 239760, Note_on_c, 4, 60, 0
5, 239760, Note_on_c, 4, 61, 0
5, 240000, Note_on_c, 4, 60, 100
5, 240000, Note_on_c, 4, 61, 100
5, 240240, Note_on_c, 4, 60, 0
5, 240240, Note_on_c, 4, 61, 0
5, 240960, Note_on_c, 0, 68, 0
5, 240960, Note_on_c, 4, 61, 100
5, 240960, Note_on_c, 0, 69, 100
5, 241200, Note_on_c, 4, 61, 0
5, 241200, Note_on_c, 0, 69, 0
5, 241920, Note_on_c, 4, 60, 100
5, 241920, Note_on_c, 4, 61, 100
5, 241920, Note_on_c, 0, 70, 100
5, 242160, Note_on_c, 4, 60, 0
5, 242160, Note_on_c, 4, 61, 0
5, 245760, Note_on_c, 0, 70, 0
5, 246240, Note_on_c, 0, 70, 100
5, 246480, Note_on_c, 0, 70, 0
5, 247680, Note_on_c, 0, 69, 100
5, 247920, Note_on_c, 0, 69, 0
5, 248640, Note_on_c, 0, 68, 100
5, 248880, Note_on_c, 0, 68, 0
5, 249600, Note_on_c, 4, 60, 100
5, 249600, Note_on_c, 4, 61, 100
5, 249600, Note_on_c, 0, 69, 100
5, 249840, Note_on_c, 4, 60, 0
5, 249840, Note_on_c, 4, 61, 0
5, 249840, Note_on_c, 0, 69, 0
5, 250080, Note_on_c, 0, 69, 100
5, 250560, Note_on_c, 4, 60, 100
5, 250560, Note_on_c, 4, 61, 100
5, 250800, Note_on_c, 4, 60, 0
5, 250800, Note_on_c, 4, 61, 0
5, 251040, Note_on_c, 4, 61, 100
5, 251280, Note_on_c, 4, 61, 0
5, 251520, Note_on_c, 4, 60, 100
5, 251520, Note_on_c, 4, 61, 100
5, 251760, Note_on_c, 4, 60, 0
5, 251760, Note_on_c, 4, 61, 0
5, 252000, Note_on_c, 4, 61, 100
5, 252240, Note_on_c, 4, 61, 0
5, 252480, Note_on_c, 4, 60, 100
5, 252480, Note_on_c, 4, 61, 100
5, 252720, Note_on_c, 0, 69, 0
5, 252720, Note_on_c, 4, 60, 0
5, 252720, Note_on_c, 4, 61, 0
5, 252960, Note_on_c, 4, 61, 100
5, 252960, Note_on_c, 0, 68, 100
5, 253200, Note_on_c, 4, 61, 0
5, 253440, Note_on_c, 4, 60, 100
5, 253680, Note_on_c, 4, 60, 0
5, 253920, Note_on_c, 4, 61, 100
5, 254160, Note_on_c, 4, 61, 0
5, 254400, Note_on_c, 4, 60, 100
5, 254400, Note_on_c, 4, 61, 100
5, 254640, Note_on_c, 4, 60, 0
5, 254640, Note_on_c, 4, 61, 0
5, 254880, Note_on_c, 4, 61, 100
5, 255120, Note_on_c, 4, 61, 0
5, 255360, Note_on_c, 4, 60, 100
5, 255360, Note_on_c, 4, 61, 100
5, 255600, Note_on_c, 4, 60, 0
5, 255600, Note_on_c, 4, 61, 0
5, 255840, Note_on_c, 4, 61, 100
5, 256080, Note_on_c, 0, 68, 0
5, 256080, Note_on_c, 4, 61, 0
5, 256320, Note_on_c, 4, 60, 100
5, 256320, Note_on_c, 4, 61, 100
5, 256560, Note_on_c, 4, 60, 0
5, 256560, Note_on_c, 4, 61, 0
5, 256800, Note_on_c, 4, 61, 100
5, 256800, Note_on_c, 0, 69, 100
5, 257040, Note_on_c, 4, 61, 0
5, 257280, Note_on_c, 4, 60, 100
5, 257520, Note_on_c, 4, 60, 0
5, 257760, Note_on_c, 4, 61, 100
5, 258000, Note_on_c, 4, 61, 0
5, 258240, Note_on_c, 4, 60, 100
5, 258240, Note_on_c, 4, 61, 100
5, 258480, Note_on_c, 4, 60, 0
5, 258480, Note_on_c, 4, 61, 0
5, 258720, Note_on_c, 4, 61, 100
5, 258960, Note_on_c, 4, 61, 0
5, 259200, Note_on_c, 4, 60, 100
5, 259200, Note_on_c, 4, 61, 100
5, 259440, Note_on_c, 0, 69, 0
5, 259440, Note_on_c, 4, 60, 0
5, 259440, Note_on_c, 4, 61, 0
5, 259680, Note_on_c, 4, 61, 100
5, 259680, Note_on_c, 0, 70, 100
5, 259920, Note_on_c, 4, 61, 0
5, 259920, Note_on_c, 0, 70, 0
5, 260160, Note_on_c, 4, 60, 100
5, 260160, Note_on_c, 4, 61, 100
5, 260400, Note_on_c, 4, 60, 0
5, 260400, Note_on_c, 4, 61, 0
5, 260640, Note_on_c, 4, 61, 100
5, 260640, Note_on_c, 0, 69, 100
5, 260880, Note_on_c, 4, 61, 0
5, 260880, Note_on_c, 0, 69, 0
5, 261120, Note_on_c, 4, 60, 100
5, 261360, Note_on_c, 4, 60, 0
5, 261600, Note_on_c, 4, 61, 100
5, 261600, Note_on_c, 0, 70, 100
5, 261840, Note_on_c, 4, 61, 0
5, 261840, Note_on_c, 0, 70, 0
5, 262080, Note_on_c, 4, 60, 100
5, 262080, Note_on_c, 4, 61, 100
5, 262320, Note_on_c, 4, 60, 0
5, 262320, Note_on_c, 4, 61, 0
5, 262560, Note_on_c, 4, 61, 100
5, 262800, Note_on_c, 4, 61, 0
5, 263040, Note_on_c, 4, 60, 100
5, 263040, Note_on_c, 4, 61, 100
5, 263040, Note_on_c, 0, 69, 100
5, 263280, Note_on_c, 4, 60, 0
5, 263280, Note_on_c, 4, 61, 0
5, 263280, Note_on_c, 0, 69, 0
5, 263520, Note_on_c, 4, 61, 100
5, 263760, Note_on_c, 4, 61, 0
5, 264000, Note_on_c, 4, 60, 100
5, 264000, Note_on_c, 4, 61, 100
5, 264000, Note_on_c, 0, 68, 100
5, 264240, Note_on_c, 4, 60, 0
5, 264240, Note_on_c, 4, 61, 0
5, 264240, Note_on_c, 0, 68, 0
5, 264480, Note_on_c, 4, 61, 100
5, 264720, Note_on_c, 4, 61, 0
5, 264960, Note_on_c, 4, 60, 100
5, 264960, Note_on_c, 4, 61, 100
5, 264960, Note_on_c, 0, 69, 100
5, 265200, Note_on_c, 4, 60, 0
5, 265200, Note_on_c, 4, 61, 0
5, 265200, Note_on_c, 0, 69, 0
5, 265440, Note_on_c, 4, 61, 100
5, 265440, Note_on_c, 0, 69, 100
5, 265680, Note_on_c, 4, 61, 0
5, 265920, Note_on_c, 4, 60, 100
5, 265920, Note_on_c, 4, 61, 100
5, 266160, Note_on_c, 4, 60, 0
5, 266160, Note_on_c, 4, 61, 0
5, 266400, Note_on_c, 4, 61, 100
5, 266640, Note_on_c, 4, 61, 0
5, 266880, Note_on_c, 4, 60, 100
5, 266880, Note_on_c, 4, 61, 100
5, 267120, Note_on_c, 4, 60, 0
5, 267120, Note_on_c, 4, 61, 0
5, 267360, Note_on_c, 4, 61, 100
5, 267600, Note_on_c, 4, 61, 0
5, 267840, Note_on_c, 4, 60, 100
5, 267840, Note_on_c, 4, 61, 100
5, 268080, Note_on_c, 0, 69, 0
5, 268080, Note_on_c, 4, 60, 0
5, 268080, Note_on_c, 4, 61, 0
5, 268320, Note_on_c, 4, 61, 100
5, 268320, Note_on_c, 0, 68, 100
5, 268560, Note_on_c, 4, 61, 0
5, 268800, Note_on_c, 4, 60, 100
5, 269040, Note_on_c, 4, 60, 0
5, 269280, Note_on_c, 4, 61, 100
5, 269520, Note_on_c, 4, 61, 0
5, 269760, Note_on_c, 4, 60, 100
5, 269760, Note_on_c, 4, 61, 100
5, 270000, Note_on_c, 4, 60, 0
5, 270000, Note_on_c, 4, 61, 0
5, 270240, Note_on_c, 4, 61, 100
5, 270480, Note_on_c, 4, 61, 0
5, 270720, Note_on_c, 4, 60, 100
5, 270720, Note_on_c, 4, 61, 100
5, 270960, Note_on_c, 4, 60, 0
5, 270960, Note_on_c, 4, 61, 0
5, 271200, Note_on_c, 4, 61, 100
5, 271440, Note_on_c, 0, 68, 0
5, 271440, Note_on_c, 4, 61, 0
5, 271680, Note_on_c, 4, 60, 100
5, 271680, Note_on_c, 4, 61, 100
5, 271920, Note_on_c, 4, 60, 0
5, 271920, Note_on_c, 4, 61, 0
5, 272160, Note_on_c, 4, 61, 100
5, 272160, Note_on_c, 0, 69, 100
5, 272400, Note_on_c, 4, 61, 0
5, 272640, Note_on_c, 4, 60, 100
5, 272880, Note_on_c, 4, 60, 0
5, 273120, Note_on_c, 4, 61, 100
5, 273360, Note_on_c, 4, 61, 0
5, 273600, Note_on_c, 4, 60, 100
5, 273600, Note_on_c, 4, 61, 100
5, 273840, Note_on_c, 4, 60, 0
5, 273840, Note_on_c, 4, 61, 0
5, 274080, Note_on_c, 4, 61, 100
5, 274320, Note_on_c, 4, 61, 0
5, 274560, Note_on_c, 4, 60, 100
5, 274560, Note_on_c, 4, 61, 100
5, 274800, Note_on_c, 0, 69, 0
5, 274800, Note_on_c, 4, 60, 0
5, 274800, Note_on_c, 4, 61, 0
5, 275040, Note_on_c, 4, 61, 100
5, 275040, Note_on_c, 0, 70, 100
5, 275280, Note_on_c, 4, 61, 0
5, 275280, Note_on_c, 0, 70, 0
5, 275520, Note_on_c, 4, 60, 100
5, 275520, Note_on_c, 4, 61, 100
5, 275760, Note_on_c, 4, 60, 0
5, 275760, Note_on_c, 4, 61, 0
5, 276000, Note_on_c, 4, 61, 100
5, 276000, Note_on_c, 0, 69, 100
5, 276240, Note_on_c, 4, 61, 0
5, 276240, Note_on_c, 0, 69, 0
5, 276480, Note_on_c, 4, 60, 100
5, 276720, Note_on_c, 4, 60, 0
5, 276960, Note_on_c, 4, 61, 100
5, 276960, Note_on_c, 0, 70, 100
5, 277200, Note_on_c, 4, 61, 0
5, 277200, Note_on_c, 0, 70, 0
5, 277440, Note_on_c, 4, 61, 100
5, 277680, Note_on_c, 4, 61, 0
5, 277920, Note_on_c, 4, 61, 100
5, 278160, Note_on_c, 4, 61, 0
5, 278400, Note_on_c, 4, 61, 100
5, 278400, Note_on_c, 0, 69, 100
5, 278640, Note_on_c, 4, 61, 0
5, 278640, Note_on_c, 0, 69, 0
5, 278880, Note_on_c, 4, 61, 100
5, 279120, Note_on_c, 4, 61, 0
5, 279360, Note_on_c, 4, 61, 100
5, 279360, Note_on_c, 0, 68, 100
5, 279600, Note_on_c, 4, 61, 0
5, 279600, Note_on_c, 0, 68, 0
5, 279840, Note_on_c, 4, 61, 100
5, 280080, Note_on_c, 4, 61, 0
5, 280320, Note_on_c, 4, 60, 100
5, 280320, Note_on_c, 4, 61, 100
5, 280320, Note_on_c, 0, 69, 100
5, 280560, Note_on_c, 4, 60, 0
5, 280560, Note_on_c, 4, 61, 0
5, 280560, Note_on_c, 0, 69, 0
5, 280800, Note_on_c, 4, 61, 100
5, 280800, Note_on_c, 0, 69, 100
5, 281040, Note_on_c, 4, 61, 0
5, 281280, Note_on_c, 4, 60, 100
5, 281280, Note_on_c, 4, 61, 100
5, 281520, Note_on_c, 4, 60, 0
5, 281520, Note_on_c, 4, 61, 0
5, 281760, Note_on_c, 4, 61, 100
5, 282000, Note_on_c, 4, 61, 0
5, 282240, Note_on_c, 0, 69, 0
5, 282240, Note_on_c, 4, 60, 100
5, 282240, Note_on_c, 4, 61, 100
5, 282480, Note_on_c, 4, 60, 0
5, 282480, Note_on_c, 4, 61, 0
5, 282720, Note_on_c, 4, 61, 100
5, 282720, Note_on_c, 0, 70, 100
5, 282960, Note_on_c, 4, 61, 0
5, 282960, Note_on_c, 0, 70, 0
5, 283200, Note_on_c, 4, 60, 100
5, 283200, Note_on_c, 4, 61, 100
5, 283440, Note_on_c, 4, 60, 0
5, 283440, Note_on_c, 4, 61, 0
5, 283680, Note_on_c, 4, 61, 100
5, 283680, Note_on_c, 0, 69, 100
5, 283920, Note_on_c, 4, 61, 0
5, 284160, Note_on_c, 4, 60, 100
5, 284400, Note_on_c, 4, 60, 0
5, 284640, Note_on_c, 4, 61, 100
5, 284880, Note_on_c, 4, 61, 0
5, 285120, Note_on_c, 0, 69, 0
5, 285120, Note_on_c, 4, 60, 100
5, 285120, Note_on_c, 4, 61, 100
5, 285120, Note_on_c, 0, 69, 100
5, 285360, Note_on_c, 4, 60, 0
5, 285360, Note_on_c, 4, 61, 0
5, 285360, Note_on_c, 0, 69, 0
5, 285600, Note_on_c, 4, 61, 100
5, 285840, Note_on_c, 4, 61, 0
5, 286080, Note_on_c, 4, 60, 100
5, 286080, Note_on_c, 4, 61, 100
5, 286080, Note_on_c, 0, 69, 100
5, 286320, Note_on_c, 4, 60, 0
5, 286320, Note_on_c, 4, 61, 0
5, 286320, Note_on_c, 0, 69, 0
5, 286560, Note_on_c, 4, 61, 100
5, 286800, Note_on_c, 4, 61, 0
5, 287040, Note_on_c, 4, 60, 100
5, 287040, Note_on_c, 4, 61, 100
5, 287040, Note_on_c, 0, 70, 100
5, 287280, Note_on_c, 4, 60, 0
5, 287280, Note_on_c, 4, 61, 0
5, 287280, Note_on_c, 0, 70, 0
5, 287520, Note_on_c, 4, 61, 100
5, 287760, Note_on_c, 4, 61, 0
5, 288000, Note_on_c, 4, 60, 100
5, 288000, Note_on_c, 0, 68, 100
5, 288240, Note_on_c, 4, 60, 0
5, 288240, Note_on_c, 0, 68, 0
5, 288480, Note_on_c, 4, 61, 100
5, 288480, Note_on_c, 0, 70, 100
5, 288720, Note_on_c, 4, 61, 0
5, 288720, Note_on_c, 0, 70, 0
5, 288960, Note_on_c, 4, 60, 100
5, 288960, Note_on_c, 4, 61, 100
5, 289200, Note_on_c, 4, 60, 0
5, 289200, Note_on_c, 4, 61, 0
5, 289440, Note_on_c, 4, 61, 100
5, 289680, Note_on_c, 4, 61, 0
5, 289920, Note_on_c, 4, 60, 100
5, 289920, Note_on_c, 4, 61, 100
5, 289920, Note_on_c, 0, 70, 100
5, 290160, Note_on_c, 4, 60, 0
5, 290160, Note_on_c, 4, 61, 0
5, 290160, Note_on_c, 0, 70, 0
5, 290400, Note_on_c, 4, 61, 100
5, 290400, Note_on_c, 0, 69, 100
5, 290640, Note_on_c, 4, 61, 0
5, 290640, Note_on_c, 0, 69, 0
5, 290880, Note_on_c, 4, 60, 100
5, 290880, Note_on_c, 4, 61, 100
5, 290880, Note_on_c, 0, 68, 100
5, 291120, Note_on_c, 4, 60, 0
5, 291120, Note_on_c, 4, 61, 0
5, 291120, Note_on_c, 0, 68, 0
5, 291360, Note_on_c, 4, 61, 100
5, 291600, Note_on_c, 4, 61, 0
5, 291840, Note_on_c, 4, 60, 100
5, 291840, Note_on_c, 0, 68, 100
5, 292080, Note_on_c, 4, 60, 0
5, 292080, Note_on_c, 0, 68, 0
5, 292320, Note_on_c, 4, 61, 100
5, 292320, Note_on_c, 0, 69, 100
5, 292560, Note_on_c, 4, 61, 0
5, 292560, Note_on_c, 0, 69, 0
5, 292800, Note_on_c, 4, 60, 100
5, 292800, Note_on_c, 4, 61, 100
5, 292800, Note_on_c, 0, 70, 100
5, 293040, Note_on_c, 4, 60, 0
5, 293040, Note_on_c, 4, 61, 0
5, 293040, Note_on_c, 0, 70, 0
5, 293280, Note_on_c, 4, 61, 100
5, 293520, Note_on_c, 4, 61, 0
5, 293760, Note_on_c, 4, 60, 100
5, 293760, Note_on_c, 4, 61, 100
5, 293760, Note_on_c, 0, 70, 100
5, 294000, Note_on_c, 4, 60, 0
5, 294000, Note_on_c, 4, 61, 0
5, 294000, Note_on_c, 0, 70, 0
5, 294240, Note_on_c, 4, 61, 100
5, 294480, Note_on_c, 4, 61, 0
5, 294720, Note_on_c, 4, 60, 100
5, 294720, Note_on_c, 4, 61, 100
5, 294720, Note_on_c, 0, 68, 100
5, 294960, Note_on_c, 4, 60, 0
5, 294960, Note_on_c, 4, 61, 0
5, 294960, Note_on_c, 0, 68, 0
5, 295200, Note_on_c, 4, 61, 100
5, 295440, Note_on_c, 4, 61, 0
5, 295680, Note_on_c, 4, 60, 100
5, 295680, Note_on_c, 4, 61, 100
5, 295920, Note_on_c, 4, 60, 0
5, 295920, Note_on_c, 4, 61, 0
5, 296160, Note_on_c, 4, 61, 100
5, 296160, Note_on_c, 0, 69, 100
5, 296400, Note_on_c, 4, 61, 0
5, 296400, Note_on_c, 0, 69, 0
5, 296640, Note_on_c, 4, 60, 100
5, 296640, Note_on_c, 4, 61, 100
5, 296880, Note_on_c, 4, 60, 0
5, 296880, Note_on_c, 4, 61, 0
5, 297120, Note_on_c, 4, 61, 100
5, 297360, Note_on_c, 4, 61, 0
5, 297600, Note_on_c, 4, 60, 100
5, 297600, Note_on_c, 4, 61, 100
5, 297600, Note_on_c, 0, 69, 100
5, 297840, Note_on_c, 4, 60, 0
5, 297840, Note_on_c, 4, 61, 0
5, 297840, Note_on_c, 0, 69, 0
5, 298080, Note_on_c, 4, 61, 100
5, 298320, Note_on_c, 4, 61, 0
5, 298560, Note_on_c, 4, 60, 100
5, 298560, Note_on_c, 4, 61, 100
5, 298560, Note_on_c, 0, 69, 100
5, 298800, Note_on_c, 4, 60, 0
5, 298800, Note_on_c, 4, 61, 0
5, 298800, Note_on_c, 0, 69, 0
5, 299040, Note_on_c, 4, 61, 100
5, 299040, Note_on_c, 0, 70, 100
5, 299280, Note_on_c, 4, 61, 0
5, 299280, Note_on_c, 0, 70, 0
5, 299520, Note_on_c, 4, 60, 100
5, 299760, Note_on_c, 4, 60, 0
5, 300000, Note_on_c, 4, 61, 100
5, 300000, Note_on_c, 0, 69, 100
5, 300240, Note_on_c, 4, 61, 0
5, 300240, Note_on_c, 0, 69, 0
5, 300480, Note_on_c, 4, 60, 100
5, 300480, Note_on_c, 4, 61, 100
5, 300720, Note_on_c, 4, 60, 0
5, 300720, Note_on_c, 4, 61, 0
5, 300960, Note_on_c, 4, 61, 100
5, 301200, Note_on_c, 4, 61, 0
5, 301440, Note_on_c, 4, 60, 100
5, 301440, Note_on_c, 4, 61, 100
5, 301440, Note_on_c, 0, 69, 100
5, 301680, Note_on_c, 4, 60, 0
5, 301680, Note_on_c, 4, 61, 0
5, 301680, Note_on_c, 0, 69, 0
5, 301920, Note_on_c, 4, 61, 100
5, 302160, Note_on_c, 4, 61, 0
5, 302400, Note_on_c, 4, 60, 100
5, 302400, Note_on_c, 4, 61, 100
5, 302400, Note_on_c, 0, 70, 100
5, 302640, Note_on_c, 4, 60, 0
5, 302640, Note_on_c, 4, 61, 0
5, 302640, Note_on_c, 0, 70, 0
5, 302880, Note_on_c, 4, 61, 100
5, 303120, Note_on_c, 4, 61, 0
5, 303360, Note_on_c, 4, 60, 100
5, 303360, Note_on_c, 0, 70, 100
5, 303600, Note_on_c, 4, 60, 0
5, 303600, Note_on_c, 0, 70, 0
5, 303840, Note_on_c, 4, 61, 100
5, 304080, Note_on_c, 4, 61, 0
5, 304320, Note_on_c, 4, 60, 100
5, 304320, Note_on_c, 4, 61, 100
5, 304320, Note_on_c, 0, 69, 100
5, 304560, Note_on_c, 4, 60, 0
5, 304560, Note_on_c, 4, 61, 0
5, 304560, Note_on_c, 0, 69, 0
5, 304800, Note_on_c, 4, 61, 100
5, 305040, Note_on_c, 4, 61, 0
5, 305280, Note_on_c, 4, 60, 100
5, 305280, Note_on_c, 4, 61, 100
5, 305280, Note_on_c, 0, 70, 100
5, 305520, Note_on_c, 4, 60, 0
5, 305520, Note_on_c, 4, 61, 0
5, 305520, Note_on_c, 0, 70, 0
5, 305760, Note_on_c, 4, 61, 100
5, 305760, Note_on_c, 0, 69, 100
5, 306000, Note_on_c, 4, 61, 0
5, 306000, Note_on_c, 0, 69, 0
5, 306240, Note_on_c, 4, 60, 100
5, 306240, Note_on_c, 4, 61, 100
5, 306240, Note_on_c, 0, 68, 100
5, 306480, Note_on_c, 4, 60, 0
5, 306480, Note_on_c, 4, 61, 0
5, 306480, Note_on_c, 0, 68, 0
5, 306720, Note_on_c, 4, 61, 100
5, 306960, Note_on_c, 4, 61, 0
5, 307200, Note_on_c, 4, 60, 100
5, 307440, Note_on_c, 4, 60, 0
5, 307680, Note_on_c, 4, 61, 100
5, 307680, Note_on_c, 0, 70, 100
5, 307920, Note_on_c, 4, 61, 0
5, 307920, Note_on_c, 0, 70, 0
5, 308160, Note_on_c, 4, 60, 100
5, 308160, Note_on_c, 4, 61, 100
5, 308400, Note_on_c, 4, 60, 0
5, 308400, Note_on_c, 4, 61, 0
5, 308640, Note_on_c, 4, 61, 100
5, 308880, Note_on_c, 4, 61, 0
5, 309120, Note_on_c, 4, 60, 100
5, 309120, Note_on_c, 4, 61, 100
5, 309120, Note_on_c, 0, 69, 100
5, 309360, Note_on_c, 4, 60, 0
5, 309360, Note_on_c, 4, 61, 0
5, 309360, Note_on_c, 0, 69, 0
5, 309600, Note_on_c, 4, 61, 100
5, 309840, Note_on_c, 4, 61, 0
5, 310080, Note_on_c, 4, 60, 100
5, 310080, Note_on_c, 4, 61, 100
5, 310080, Note_on_c, 0, 68, 100
5, 310320, Note_on_c, 4, 60, 0
5, 310320, Note_on_c, 4, 61, 0
5, 310320, Note_on_c, 0, 68, 0
5, 310560, Note_on_c, 4, 61, 100
5, 310800, Note_on_c, 4, 61, 0
5, 311040, Note_on_c, 4, 60, 100
5, 311040, Note_on_c, 4, 61, 100
5, 311040, Note_on_c, 0, 68, 100
5, 311280, Note_on_c, 4, 60, 0
5, 311280, Note_on_c, 4, 61, 0
5, 312000, Note_on_c, 0, 68, 0
5, 312000, Note_on_c, 4, 60, 100
5, 312000, Note_on_c, 4, 61, 100
5, 312000, Note_on_c, 0, 68, 100
5, 312240, Note_on_c, 4, 60, 0
5, 312240, Note_on_c, 4, 61, 0
5, 312240, Note_on_c, 0, 68, 0
5, 312960, Note_on_c, 4, 60, 100
5, 313200, Note_on_c, 4, 60, 0
5, 313440, Note_on_c, 4, 60, 100
5, 313440, Note_on_c, 4, 61, 100
5, 313440, Note_on_c, 0, 68, 100
5, 313680, Note_on_c, 4, 60, 0
5, 313680, Note_on_c, 4, 61, 0
5, 313680, Note_on_c, 0, 68, 0
5, 314400, Note_on_c, 4, 60, 100
5, 314400, Note_on_c, 4, 61, 100
5, 314400, Note_on_c, 0, 68, 100
5, 314640, Note_on_c, 4, 60, 0
5, 314640, Note_on_c, 4, 61, 0
5, 315360, Note_on_c, 4, 60, 100
5, 315600, Note_on_c, 4, 60, 0
5, 315840, Note_on_c, 0, 68, 0
5, 316800, Note_on_c, 4, 60, 100
5, 317040, Note_on_c, 4, 60, 0
5, 317280, Note_on_c, 4, 60, 100
5, 317520, Note_on_c, 4, 60, 0
5, 318720, Note_on_c, 4, 60, 100
5, 318720, Note_on_c, 4, 61, 100
5, 318720, Note_on_c, 0, 68, 100
5, 318960, Note_on_c, 4, 60, 0
5, 318960, Note_on_c, 4, 61, 0
5, 319680, Note_on_c, 0, 68, 0
5, 319680, Note_on_c, 4, 61, 100
5, 319680, Note_on_c, 0, 68, 100
5, 319920, Note_on_c, 4, 61, 0
5, 319920, Note_on_c, 0, 68, 0
5, 320640, Note_on_c, 4, 60, 100
5, 320880, Note_on_c, 4, 60, 0
5, 321120, Note_on_c, 4, 60, 100
5, 321120, Note_on_c, 4, 61, 100
5, 321120, Note_on_c, 0, 68, 100
5, 321360, Note_on_c, 4, 60, 0
5, 321360, Note_on_c, 4, 61, 0
5, 321360, Note_on_c, 0, 68, 0
5, 322080, Note_on_c, 4, 61, 100
5, 322080, Note_on_c, 0, 68, 100
5, 322320, Note_on_c, 4, 61, 0
5, 322560, Note_on_c, 4, 60, 100
5, 322800, Note_on_c, 4, 60, 0
5, 323520, Note_on_c, 0, 68, 0
5, 324480, Note_on_c, 4, 60, 100
5, 324720, Note_on_c, 4, 60, 0
5, 324960, Note_on_c, 4, 60, 100
5, 325200, Note_on_c, 4, 60, 0
5, 326400, Note_on_c, 4, 60, 100
5, 326400, Note_on_c, 4, 61, 100
5, 326400, Note_on_c, 0, 69, 100
5, 326640, Note_on_c, 4, 60, 0
5, 326640, Note_on_c, 4, 61, 0
5, 327360, Note_on_c, 0, 69, 0
5, 327360, Note_on_c, 4, 61, 100
5, 327360, Note_on_c, 0, 69, 100
5, 327600, Note_on_c, 4, 61, 0
5, 327600, Note_on_c, 0, 69, 0
5, 328320, Note_on_c, 4, 60, 100
5, 328560, Note_on_c, 4, 60, 0
5, 328800, Note_on_c, 4, 60, 100
5, 328800, Note_on_c, 4, 61, 100
5, 328800, Note_on_c, 0, 68, 100
5, 329040, Note_on_c, 4, 60, 0
5, 329040, Note_on_c, 4, 61, 0
5, 329040, Note_on_c, 0, 68, 0
5, 329760, Note_on_c, 4, 61, 100
5, 329760, Note_on_c, 0, 69, 100
5, 330000, Note_on_c, 4, 61, 0
5, 330240, Note_on_c, 4, 60, 100
5, 330480, Note_on_c, 4, 60, 0
5, 330720, Note_on_c, 4, 60, 100
5, 330960, Note_on_c, 4, 60, 0
5, 331200, Note_on_c, 0, 69, 0
5, 332160, Note_on_c, 4, 60, 100
5, 332400, Note_on_c, 4, 60, 0
5, 332640, Note_on_c, 4, 60, 100
5, 332880, Note_on_c, 4, 60, 0
5, 334080, Note_on_c, 4, 60, 100
5, 334080, Note_on_c, 4, 61, 100
5, 334080, Note_on_c, 0, 68, 100
5, 334320, Note_on_c, 4, 60, 0
5, 334320, Note_on_c, 4, 61, 0
5, 335040, Note_on_c, 0, 68, 0
5, 335040, Note_on_c, 4, 61, 100
5, 335040, Note_on_c, 0, 68, 100
5, 335280, Note_on_c, 4, 61, 0
5, 335280, Note_on_c, 0, 68, 0
5, 336000, Note_on_c, 4, 60, 100
5, 336240, Note_on_c, 4, 60, 0
5, 336480, Note_on_c, 4, 60, 100
5, 336480, Note_on_c, 4, 61, 100
5, 336480, Note_on_c, 0, 68, 100
5, 336720, Note_on_c, 4, 60, 0
5, 336720, Note_on_c, 4, 61, 0
5, 336720, Note_on_c, 0, 68, 0
5, 337440, Note_on_c, 4, 60, 100
5, 337440, Note_on_c, 4, 61, 100
5, 337440, Note_on_c, 0, 68, 100
5, 337680, Note_on_c, 4, 60, 0
5, 337680, Note_on_c, 4, 61, 0
5, 338400, Note_on_c, 4, 60, 100
5, 338640, Note_on_c, 4, 60, 0
5, 338880, Note_on_c, 0, 68, 0
5, 339360, Note_on_c, 4, 60, 100
5, 339600, Note_on_c, 4, 60, 0
5, 339840, Note_on_c, 4, 60, 100
5, 340080, Note_on_c, 4, 60, 0
5, 340080, Note_on_c, 4, 60, 100
5, 340320, Note_on_c, 4, 60, 0
5, 340320, Note_on_c, 4, 60, 100
5, 340560, Note_on_c, 4, 60, 0
5, 340560, Note_on_c, 4, 60, 100
5, 340800, Note_on_c, 4, 60, 0
5, 341280, Note_on_c, 4, 60, 100
5, 341520, Note_on_c, 4, 60, 0
5, 341760, Note_on_c, 4, 60, 100
5, 341760, Note_on_c, 4, 61, 100
5, 341760, Note_on_c, 0, 70, 100
5, 342000, Note_on_c, 4, 60, 0
5, 342000, Note_on_c, 4, 61, 0
5, 342720, Note_on_c, 0, 70, 0
5, 342720, Note_on_c, 4, 61, 100
5, 342720, Note_on_c, 0, 70, 100
5, 342960, Note_on_c, 4, 61, 0
5, 342960, Note_on_c, 0, 70, 0
5, 343680, Note_on_c, 4, 60, 100
5, 343920, Note_on_c, 4, 60, 0
5, 344160, Note_on_c, 4, 61, 100
5, 344160, Note_on_c, 0, 69, 100
5, 344400, Note_on_c, 4, 61, 0
5, 344400, Note_on_c, 0, 69, 0
5, 345120, Note_on_c, 4, 60, 100
5, 345120, Note_on_c, 4, 61, 100
5, 345120, Note_on_c, 0, 70, 100
5, 345360, Note_on_c, 4, 60, 0
5, 345360, Note_on_c, 4, 61, 0
5, 346560, Note_on_c, 0, 70, 0
5, 347520, Note_on_c, 4, 60, 100
5, 347760, Note_on_c, 4, 60, 0
5, 348000, Note_on_c, 4, 60, 100
5, 348240, Note_on_c, 4, 60, 0
5, 349440, Note_on_c, 4, 60, 100
5, 349440, Note_on_c, 4, 61, 100
5, 349440, Note_on_c, 0, 69, 100
5, 349680, Note_on_c, 4, 60, 0
5, 349680, Note_on_c, 4, 61, 0
5, 350400, Note_on_c, 0, 69, 0
5, 350400, Note_on_c, 4, 61, 100
5, 350400, Note_on_c, 0, 69, 100
5, 350640, Note_on_c, 4, 61, 0
5, 350640, Note_on_c, 0, 69, 0
5, 351360, Note_on_c, 4, 60, 100
5, 351600, Note_on_c, 4, 60, 0
5, 351840, Note_on_c, 4, 60, 100
5, 351840, Note_on_c, 4, 61, 100
5, 351840, Note_on_c, 0, 68, 100
5, 352080, Note_on_c, 4, 60, 0
5, 352080, Note_on_c, 4, 61, 0
5, 352080, Note_on_c, 0, 68, 0
5, 352800, Note_on_c, 4, 60, 100
5, 352800, Note_on_c, 4, 61, 100
5, 352800, Note_on_c, 0, 69, 100
5, 353040, Note_on_c, 4, 60, 0
5, 353040, Note_on_c, 4, 61, 0
5, 353760, Note_on_c, 4, 60, 100
5, 354000, Note_on_c, 4, 60, 0
5, 354240, Note_on_c, 0, 69, 0
5, 355200, Note_on_c, 4, 60, 100
5, 355440, Note_on_c, 4, 60, 0
5, 355680, Note_on_c, 4, 60, 100
5, 355920, Note_on_c, 4, 60, 0
5, 357120, Note_on_c, 4, 60, 100
5, 357120, Note_on_c, 4, 61, 100
5, 357120, Note_on_c, 0, 70, 100
5, 357360, Note_on_c, 4, 60, 0
5, 357360, Note_on_c, 4, 61, 0
5, 358080, Note_on_c, 0, 70, 0
5, 358080, Note_on_c, 4, 61, 100
5, 358080, Note_on_c, 0, 70, 100
5, 358320, Note_on_c, 4, 61, 0
5, 358320, Note_on_c, 0, 70, 0
5, 359040, Note_on_c, 4, 60, 100
5, 359280, Note_on_c, 4, 60, 0
5, 359520, Note_on_c, 4, 60, 100
5, 359520, Note_on_c, 4, 61, 100
5, 359520, Note_on_c, 0, 69, 100
5, 359760, Note_on_c, 4, 60, 0
5, 359760, Note_on_c, 4, 61, 0
5, 359760, Note_on_c, 0, 69, 0
5, 360480, Note_on_c, 4, 60, 100
5, 360480, Note_on_c, 4, 61, 100
5, 360480, Note_on_c, 0, 69, 100
5, 360720, Note_on_c, 4, 60, 0
5, 360720, Note_on_c, 4, 61, 0
5, 361440, Note_on_c, 4, 60, 100
5, 361440, Note_on_c, 4, 61, 100
5, 361680, Note_on_c, 4, 60, 0
5, 361680, Note_on_c, 4, 61, 0
5, 361920, Note_on_c, 0, 69, 0
5, 361920, Note_on_c, 4, 61, 100
5, 361920, Note_on_c, 0, 69, 100
5, 362160, Note_on_c, 4, 61, 0
5, 362160, Note_on_c, 0, 69, 0
5, 362400, Note_on_c, 4, 61, 100
5, 362640, Note_on_c, 4, 61, 0
5, 362880, Note_on_c, 4, 60, 100
5, 362880, Note_on_c, 4, 61, 100
5, 363120, Note_on_c, 4, 60, 0
5, 363120, Note_on_c, 4, 61, 0
5, 363360, Note_on_c, 4, 60, 100
5, 363360, Note_on_c, 4, 61, 100
5, 363360, Note_on_c, 0, 68, 100
5, 363600, Note_on_c, 4, 60, 0
5, 363600, Note_on_c, 4, 61, 0
5, 363600, Note_on_c, 0, 68, 0
5, 364320, Note_on_c, 4, 60, 100
5, 364320, Note_on_c, 4, 61, 100
5, 364320, Note_on_c, 0, 68, 100
5, 364560, Note_on_c, 4, 60, 0
5, 364560, Note_on_c, 4, 61, 0
5, 365280, Note_on_c, 4, 60, 100
5, 365280, Note_on_c, 4, 61, 100
5, 365520, Note_on_c, 4, 60, 0
5, 365520, Note_on_c, 4, 61, 0
5, 365760, Note_on_c, 0, 68, 0
5, 365760, Note_on_c, 4, 61, 100
5, 365760, Note_on_c, 0, 68, 100
5, 366000, Note_on_c, 4, 61, 0
5, 366000, Note_on_c, 0, 68, 0
5, 366720, Note_on_c, 4, 60, 100
5, 366960, Note_on_c, 4, 60, 0
5, 367200, Note_on_c, 4, 60, 100
5, 367200, Note_on_c, 4, 61, 100
5, 367200, Note_on_c, 0, 69, 100
5, 367440, Note_on_c, 4, 60, 0
5, 367440, Note_on_c, 4, 61, 0
5, 367440, Note_on_c, 0, 69, 0
5, 368160, Note_on_c, 4, 61, 100
5, 368160, Note_on_c, 0, 70, 100
5, 368400, Note_on_c, 4, 61, 0
5, 368640, Note_on_c, 4, 60, 100
5, 368880, Note_on_c, 4, 60, 0
5, 369120, Note_on_c, 4, 61, 100
5, 369360, Note_on_c, 4, 61, 0
5, 369600, Note_on_c, 0, 70, 0
5, 369600, Note_on_c, 4, 61, 100
5, 369600, Note_on_c, 0, 70, 100
5, 369840, Note_on_c, 4, 61, 0
5, 369840, Note_on_c, 0, 70, 0
5, 370080, Note_on_c, 4, 61, 100
5, 370320, Note_on_c, 4, 61, 0
5, 370560, Note_on_c, 4, 60, 100
5, 370560, Note_on_c, 4, 61, 100
5, 370800, Note_on_c, 4, 60, 0
5, 370800, Note_on_c, 4, 61, 0
5, 371040, Note_on_c, 4, 60, 100
5, 371040, Note_on_c, 4, 61, 100
5, 371040, Note_on_c, 0, 68, 100
5, 371280, Note_on_c, 4, 60, 0
5, 371280, Note_on_c, 4, 61, 0
5, 371280, Note_on_c, 0, 68, 0
5, 372000, Note_on_c, 4, 60, 100
5, 372000, Note_on_c, 4, 61, 100
5, 372000, Note_on_c, 0, 68, 100
5, 372240, Note_on_c, 4, 60, 0
5, 372240, Note_on_c, 4, 61, 0
5, 372960, Note_on_c, 4, 60, 100
5, 372960, Note_on_c, 4, 61, 100
5, 373200, Note_on_c, 4, 60, 0
5, 373200, Note_on_c, 4, 61, 0
5, 373440, Note_on_c, 0, 68, 0
5, 373440, Note_on_c, 4, 61, 100
5, 373440, Note_on_c, 0, 68, 100
5, 373680, Note_on_c, 4, 61, 0
5, 373680, Note_on_c, 0, 68, 0
5, 374400, Note_on_c, 4, 60, 100
5, 374640, Note_on_c, 4, 60, 0
5, 374880, Note_on_c, 4, 60, 100
5, 374880, Note_on_c, 4, 61, 100
5, 374880, Note_on_c, 0, 69, 100
5, 375120, Note_on_c, 4, 60, 0
5, 375120, Note_on_c, 4, 61, 0
5, 376080, Note_on_c, 0, 69, 0
5, 376320, Note_on_c, 4, 60, 100
5, 376320, Note_on_c, 4, 61, 100
5, 376320, Note_on_c, 0, 68, 100
5, 376560, Note_on_c, 4, 60, 0
5, 376560, Note_on_c, 4, 61, 0
5, 377760, Note_on_c, 4, 60, 100
5, 377760, Note_on_c, 4, 61, 100
5, 378000, Note_on_c, 4, 60, 0
5, 378000, Note_on_c, 4, 61, 0
5, 378240, Note_on_c, 4, 60, 100
5, 378240, Note_on_c, 4, 61, 100
5, 378480, Note_on_c, 4, 60, 0
5, 378480, Note_on_c, 4, 61, 0
5, 379200, Note_on_c, 0, 68, 0
5, 379200, Note_on_c, 4, 61, 100
5, 379200, Note_on_c, 0, 69, 100
5, 379440, Note_on_c, 4, 61, 0
5, 379440, Note_on_c, 0, 69, 0
5, 380160, Note_on_c, 4, 61, 100
5, 380160, Note_on_c, 0, 70, 100
5, 380400, Note_on_c, 4, 61, 0
5, 380640, Note_on_c, 4, 60, 100
5, 380880, Note_on_c, 4, 60, 0
5, 381120, Note_on_c, 4, 60, 100
5, 381360, Note_on_c, 4, 60, 0
5, 382080, Note_on_c, 4, 60, 100
5, 382320, Note_on_c, 4, 60, 0
5, 382560, Note_on_c, 4, 60, 100
5, 382800, Note_on_c, 0, 70, 0
5, 382800, Note_on_c, 4, 60, 0
5, 383520, Note_on_c, 4, 61, 100
5, 383520, Note_on_c, 0, 68, 100
5, 383760, Note_on_c, 4, 61, 0
5, 384000, Note_on_c, 4, 60, 100
5, 384000, Note_on_c, 4, 61, 100
5, 384240, Note_on_c, 4, 60, 0
5, 384240, Note_on_c, 4, 61, 0
5, 384960, Note_on_c, 0, 68, 0
5, 384960, Note_on_c, 4, 61, 100
5, 384960, Note_on_c, 0, 68, 100
5, 385200, Note_on_c, 4, 61, 0
5, 385200, Note_on_c, 0, 68, 0
5, 385440, Note_on_c, 4, 61, 100
5, 385680, Note_on_c, 4, 61, 0
5, 385920, Note_on_c, 4, 60, 100
5, 385920, Note_on_c, 4, 61, 100
5, 386160, Note_on_c, 4, 60, 0
5, 386160, Note_on_c, 4, 61, 0
5, 386400, Note_on_c, 4, 60, 100
5, 386400, Note_on_c, 4, 61, 100
5, 386400, Note_on_c, 0, 69, 100
5, 386640, Note_on_c, 4, 60, 0
5, 386640, Note_on_c, 4, 61, 0
5, 386640, Note_on_c, 0, 69, 0
5, 387360, Note_on_c, 4, 60, 100
5, 387360, Note_on_c, 4, 61, 100
5, 387360, Note_on_c, 0, 70, 100
5, 387600, Note_on_c, 4, 60, 0
5, 387600, Note_on_c, 4, 61, 0
5, 388320, Note_on_c, 4, 60, 100
5, 388320, Note_on_c, 4, 61, 100
5, 388560, Note_on_c, 4, 60, 0
5, 388560, Note_on_c, 4, 61, 0
5, 388800, Note_on_c, 0, 70, 0
5, 388800, Note_on_c, 4, 61, 100
5, 388800, Note_on_c, 0, 70, 100
5, 389040, Note_on_c, 4, 61, 0
5, 389040, Note_on_c, 0, 70, 0
5, 389760, Note_on_c, 4, 60, 100
5, 390000, Note_on_c, 4, 60, 0
5, 390240, Note_on_c, 4, 60, 100
5, 390240, Note_on_c, 4, 61, 100
5, 390240, Note_on_c, 0, 68, 100
5, 390480, Note_on_c, 4, 60, 0
5, 390480, Note_on_c, 4, 61, 0
5, 390480, Note_on_c, 0, 68, 0
5, 391200, Note_on_c, 4, 60, 100
5, 391200, Note_on_c, 4, 61, 100
5, 391200, Note_on_c, 0, 68, 100
5, 391440, Note_on_c, 4, 60, 0
5, 391440, Note_on_c, 4, 61, 0
5, 392160, Note_on_c, 4, 60, 100
5, 392160, Note_on_c, 4, 61, 100
5, 392400, Note_on_c, 4, 60, 0
5, 392400, Note_on_c, 4, 61, 0
5, 392640, Note_on_c, 0, 68, 0
5, 392640, Note_on_c, 4, 61, 100
5, 392640, Note_on_c, 0, 68, 100
5, 392880, Note_on_c, 4, 61, 0
5, 392880, Note_on_c, 0, 68, 0
5, 393120, Note_on_c, 4, 61, 100
5, 393360, Note_on_c, 4, 61, 0
5, 393600, Note_on_c, 4, 60, 100
5, 393600, Note_on_c, 4, 61, 100
5, 393840, Note_on_c, 4, 60, 0
5, 393840, Note_on_c, 4, 61, 0
5, 394080, Note_on_c, 4, 60, 100
5, 394080, Note_on_c, 4, 61, 100
5, 394080, Note_on_c, 0, 69, 100
5, 394320, Note_on_c, 4, 60, 0
5, 394320, Note_on_c, 4, 61, 0
5, 395280, Note_on_c, 0, 69, 0
5, 395520, Note_on_c, 4, 60, 100
5, 395520, Note_on_c, 4, 61, 100
5, 395520, Note_on_c, 0, 68, 100
5, 395760, Note_on_c, 4, 60, 0
5, 395760, Note_on_c, 4, 61, 0
5, 396960, Note_on_c, 4, 60, 100
5, 396960, Note_on_c, 4, 61, 100
5, 397200, Note_on_c, 4, 60, 0
5, 397200, Note_on_c, 4, 61, 0
5, 397440, Note_on_c, 4, 60, 100
5, 397440, Note_on_c, 4, 61, 100
5, 397680, Note_on_c, 4, 60, 0
5, 397680, Note_on_c, 4, 61, 0
5, 398400, Note_on_c, 0, 68, 0
5, 398400, Note_on_c, 4, 61, 100
5, 398400, Note_on_c, 0, 69, 100
5, 398640, Note_on_c, 4, 61, 0
5, 398640, Note_on_c, 0, 69, 0
5, 399360, Note_on_c, 4, 61, 100
5, 399360, Note_on_c, 0, 70, 100
5, 399600, Note_on_c, 4, 61, 0
5, 399840, Note_on_c, 4, 60, 100
5, 400080, Note_on_c, 4, 60, 0
5, 400320, Note_on_c, 4, 60, 100
5, 400560, Note_on_c, 4, 60, 0
5, 401280, Note_on_c, 4, 60, 100
5, 401520, Note_on_c, 4, 60, 0
5, 401760, Note_on_c, 4, 60, 100
5, 402000, Note_on_c, 4, 60, 0
5, 402960, Note_on_c, 0, 70, 0
5, 403200, Note_on_c, 4, 60, 100
5, 403200, Note_on_c, 4, 61, 100
5, 403200, Note_on_c, 0, 68, 100
5, 403440, Note_on_c, 4, 60, 0
5, 403440, Note_on_c, 4, 61, 0
5, 404640, Note_on_c, 4, 60, 100
5, 404640, Note_on_c, 4, 61, 100
5, 404880, Note_on_c, 4, 60, 0
5, 404880, Note_on_c, 4, 61, 0
5, 405120, Note_on_c, 4, 60, 100
5, 405120, Note_on_c, 4, 61, 100
5, 405360, Note_on_c, 4, 60, 0
5, 405360, Note_on_c, 4, 61, 0
5, 406080, Note_on_c, 0, 68, 0
5, 406080, Note_on_c, 4, 61, 100
5, 406080, Note_on_c, 0, 69, 100
5, 406320, Note_on_c, 4, 61, 0
5, 406320, Note_on_c, 0, 69, 0
5, 407040, Note_on_c, 4, 60, 100
5, 407040, Note_on_c, 4, 61, 100
5, 407040, Note_on_c, 0, 70, 100
5, 407280, Note_on_c, 4, 60, 0
5, 407280, Note_on_c, 4, 61, 0
5, 410880, Note_on_c, 0, 70, 0
5, 411360, Note_on_c, 0, 70, 100
5, 411600, Note_on_c, 0, 70, 0
5, 412800, Note_on_c, 0, 69, 100
5, 413040, Note_on_c, 0, 69, 0
5, 413760, Note_on_c, 0, 68, 100
5, 414000, Note_on_c, 0, 68, 0
5, 414240, Note_on_c, 4, 60, 100
5, 414240, Note_on_c, 4, 61, 100
5, 414240, Note_on_c, 0, 68, 100
5, 414480, Note_on_c, 4, 60, 0
5, 414480, Note_on_c, 4, 61, 0
5, 414480, Note_on_c, 0, 68, 0
5, 414480, End_track
6, 0, Start_track
6, 0, Title_t, "BAND BASS"
6, 0, Text_t, "gtr_off"
6, 0, Text_t, "drum_half"
6, 0, Text_t, "[idle]"
6, 0, Text_t, "sing_off"
6, 1920, Text_t, "drum_normal"
6, 2880, Text_t, "drum_half"
6, 5760, Text_t, "drum_normal"
6, 6720, Text_t, "drum_half"
6, 7680, Text_t, "gtr_on"
6, 9600, Text_t, "drum_normal"
6, 10560, Text_t, "drum_half"
6, 11520, Text_t, "[play]"
6, 11520, Text_t, "[chorus]"
6, 13440, Text_t, "drum_normal"
6, 14400, Text_t, "drum_half"
6, 17280, Text_t, "drum_normal"
6, 18240, Text_t, "drum_half"
6, 21120, Text_t, "drum_normal"
6, 22080, Text_t, "drum_half"
6, 24960, Text_t, "drum_normal"
6, 25920, Text_t, "drum_half"
6, 28800, Text_t, "drum_normal"
6, 29760, Text_t, "drum_half"
6, 32640, Text_t, "drum_normal"
6, 33600, Text_t, "drum_half"
6, 36480, Text_t, "drum_normal"
6, 37440, Text_t, "drum_half"
6, 40320, Text_t, "drum_normal"
6, 72960, Text_t, "drum_half"
6, 72960, Text_t, "[verse]"
6, 74880, Text_t, "drum_normal"
6, 75840, Text_t, "drum_half"
6, 78720, Text_t, "drum_normal"
6, 79680, Text_t, "drum_half"
6, 82560, Text_t, "drum_normal"
6, 83520, Text_t, "drum_half"
6, 84480, Text_t, "sing_on"
6, 86400, Text_t, "drum_normal"
6, 142080, Text_t, "[chorus]"
6, 153600, Text_t, "drum_half"
6, 155520, Text_t, "drum_normal"
6, 157440, Text_t, "drum_half"
6, 159360, Text_t, "drum_normal"
6, 160320, Text_t, "drum_half"
6, 163200, Text_t, "drum_normal"
6, 164160, Text_t, "drum_half"
6, 165120, Text_t, "drum_normal"
6, 165120, Text_t, "[verse]"
6, 218880, Text_t, "[chorus]"
6, 230400, Text_t, "drum_half"
6, 232320, Text_t, "drum_normal"
6, 234240, Text_t, "drum_allbeat"
6, 235200, Text_t, "drum_double"
6, 236160, Text_t, "drum_normal"
6, 238080, Text_t, "drum_half"
6, 240000, Text_t, "drum_normal"
6, 241920, Text_t, "drum_half"
6, 243840, Text_t, "drum_normal"
6, 244800, Text_t, "drum_half"
6, 245760, Text_t, "sing_off"
6, 247680, Text_t, "drum_normal"
6, 248640, Text_t, "drum_half"
6, 249600, Text_t, "drum_normal"
6, 249600, Text_t, "[verse]"
6, 249600, Text_t, "[lighting (sweep)]"
6, 276480, Text_t, "drum_double"
6, 280320, Text_t, "solo_on"
6, 280320, Text_t, "[solo]"
6, 280320, Text_t, "wail_off"
6, 280320, Text_t, "drum_normal"
6, 307200, Text_t, "sing_on"
6, 311040, Text_t, "solo_off"
6, 311040, Text_t, "[verse]"
6, 364800, Text_t, "[chorus]"
6, 376320, Text_t, "drum_half"
6, 378240, Text_t, "drum_normal"
6, 380160, Text_t, "drum_allbeat"
6, 381120, Text_t, "drum_double"
6, 382080, Text_t, "drum_normal"
6, 395520, Text_t, "drum_half"
6, 397440, Text_t, "drum_normal"
6, 399360, Text_t, "drum_allbeat"
6, 400320, Text_t, "drum_double"
6, 401280, Text_t, "drum_normal"
6, 403200, Text_t, "drum_half"
6, 405120, Text_t, "drum_normal"
6, 407040, Text_t, "drum_half"
6, 408960, Text_t, "drum_normal"
6, 409920, Text_t, "drum_half"
6, 410880, Text_t, "sing_off"
6, 412800, Text_t, "drum_normal"
6, 413760, Text_t, "drum_double"
6, 415680, Text_t, "[idle]"
6, 415680, Text_t, "gtr_off"
6, 415680, Text_t, "drum_off"
6, 418558, Text_t, "[end]"
6, 418558, End_track
7, 0, Start_track
7, 0, Title_t, "BAND SINGER"
7, 0, Text_t, "gtr_off"
7, 0, Text_t, "drum_half"
7, 0, Text_t, "bass_off"
7, 0, Text_t, "[idle]"
7, 1920, Text_t, "drum_normal"
7, 2880, Text_t, "drum_half"
7, 5760, Text_t, "drum_normal"
7, 6720, Text_t, "drum_half"
7, 7680, Text_t, "gtr_on"
7, 9600, Text_t, "drum_normal"
7, 10560, Text_t, "drum_half"
7, 11520, Text_t, "bass_on"
7, 11520, Text_t, "[chorus]"
7, 13440, Text_t, "drum_normal"
7, 14400, Text_t, "drum_half"
7, 17280, Text_t, "drum_normal"
7, 18240, Text_t, "drum_half"
7, 21120, Text_t, "drum_normal"
7, 22080, Text_t, "drum_half"
7, 24960, Text_t, "drum_normal"
7, 25920, Text_t, "drum_half"
7, 28800, Text_t, "drum_normal"
7, 29760, Text_t, "drum_half"
7, 32640, Text_t, "drum_normal"
7, 33600, Text_t, "drum_half"
7, 36480, Text_t, "drum_normal"
7, 37440, Text_t, "drum_half"
7, 40320, Text_t, "drum_normal"
7, 72960, Text_t, "drum_half"
7, 72960, Text_t, "[verse]"
7, 74880, Text_t, "drum_normal"
7, 75840, Text_t, "drum_half"
7, 78720, Text_t, "drum_normal"
7, 79680, Text_t, "drum_half"
7, 82560, Text_t, "drum_normal"
7, 83520, Text_t, "drum_half"
7, 84480, Text_t, "[play]"
7, 86400, Text_t, "drum_normal"
7, 142080, Text_t, "[chorus]"
7, 153600, Text_t, "drum_half"
7, 155520, Text_t, "drum_normal"
7, 157440, Text_t, "drum_half"
7, 159360, Text_t, "drum_normal"
7, 160320, Text_t, "drum_half"
7, 163200, Text_t, "drum_normal"
7, 164160, Text_t, "drum_half"
7, 165120, Text_t, "drum_normal"
7, 165120, Text_t, "[verse]"
7, 218880, Text_t, "[chorus]"
7, 230400, Text_t, "drum_half"
7, 232320, Text_t, "drum_normal"
7, 234240, Text_t, "drum_allbeat"
7, 235200, Text_t, "drum_double"
7, 236160, Text_t, "drum_normal"
7, 238080, Text_t, "drum_half"
7, 240000, Text_t, "drum_normal"
7, 241920, Text_t, "drum_half"
7, 243840, Text_t, "drum_normal"
7, 244800, Text_t, "drum_half"
7, 245760, Text_t, "[idle]"
7, 247680, Text_t, "drum_normal"
7, 248640, Text_t, "drum_half"
7, 249600, Text_t, "drum_normal"
7, 249600, Text_t, "[verse]"
7, 249600, Text_t, "[lighting (sweep)]"
7, 276480, Text_t, "drum_double"
7, 280320, Text_t, "solo_on"
7, 280320, Text_t, "[solo]"
7, 280320, Text_t, "wail_off"
7, 280320, Text_t, "drum_normal"
7, 307200, Text_t, "[play]"
7, 311040, Text_t, "solo_off"
7, 311040, Text_t, "[verse]"
7, 364800, Text_t, "[chorus]"
7, 376320, Text_t, "drum_half"
7, 378240, Text_t, "drum_normal"
7, 380160, Text_t, "drum_allbeat"
7, 381120, Text_t, "drum_double"
7, 382080, Text_t, "drum_normal"
7, 395520, Text_t, "drum_half"
7, 397440, Text_t, "drum_normal"
7, 399360, Text_t, "drum_allbeat"
7, 400320, Text_t, "drum_double"
7, 401280, Text_t, "drum_normal"
7, 403200, Text_t, "drum_half"
7, 405120, Text_t, "drum_normal"
7, 407040, Text_t, "drum_half"
7, 408960, Text_t, "drum_normal"
7, 409920, Text_t, "drum_half"
7, 410880, Text_t, "[idle]"
7, 412800, Text_t, "drum_normal"
7, 413760, Text_t, "drum_double"
7, 415680, Text_t, "bass_off"
7, 415680, Text_t, "gtr_off"
7, 415680, Text_t, "drum_off"
7, 418558, Text_t, "[end]"
7, 418558, End_track
8, 0, Start_track
8, 0, Title_t, "BAND DRUMS"
8, 0, Text_t, "gtr_off"
8, 0, Text_t, "[half_time]"
8, 0, Text_t, "bass_off"
8, 0, Text_t, "sing_off"
8, 1920, Text_t, "[nobeat]"
8, 2880, Text_t, "[half_time]"
8, 5760, Text_t, "[nobeat]"
8, 6720, Text_t, "[half_time]"
8, 7680, Text_t, "gtr_on"
8, 9600, Text_t, "[nobeat]"
8, 10560, Text_t, "[half_time]"
8, 11520, Text_t, "bass_on"
8, 11520, Text_t, "[chorus]"
8, 13440, Text_t, "[nobeat]"
8, 14400, Text_t, "[half_time]"
8, 17280, Text_t, "[nobeat]"
8, 18240, Text_t, "[half_time]"
8, 21120, Text_t, "[nobeat]"
8, 22080, Text_t, "[half_time]"
8, 24960, Text_t, "[nobeat]"
8, 25920, Text_t, "[half_time]"
8, 28800, Text_t, "[nobeat]"
8, 29760, Text_t, "[half_time]"
8, 32640, Text_t, "[nobeat]"
8, 33600, Text_t, "[half_time]"
8, 36480, Text_t, "[nobeat]"
8, 37440, Text_t, "[half_time]"
8, 40320, Text_t, "[nobeat]"
8, 72960, Text_t, "[half_time]"
8, 72960, Text_t, "[verse]"
8, 74880, Text_t, "[nobeat]"
8, 75840, Text_t, "[half_time]"
8, 78720, Text_t, "[nobeat]"
8, 79680, Text_t, "[half_time]"
8, 82560, Text_t, "[nobeat]"
8, 83520, Text_t, "[half_time]"
8, 84480, Text_t, "sing_on"
8, 86400, Text_t, "[nobeat]"
8, 142080, Text_t, "[chorus]"
8, 153600, Text_t, "[half_time]"
8, 155520, Text_t, "[nobeat]"
8, 157440, Text_t, "[half_time]"
8, 159360, Text_t, "[nobeat]"
8, 160320, Text_t, "[half_time]"
8, 163200, Text_t, "[nobeat]"
8, 164160, Text_t, "[half_time]"
8, 165120, Text_t, "[nobeat]"
8, 165120, Text_t, "[verse]"
8, 218880, Text_t, "[chorus]"
8, 230400, Text_t, "[half_time]"
8, 232320, Text_t, "[nobeat]"
8, 234240, Text_t, "[allbeat]"
8, 235200, Text_t, "[double_time]"
8, 236160, Text_t, "[nobeat]"
8, 238080, Text_t, "[half_time]"
8, 240000, Text_t, "[nobeat]"
8, 241920, Text_t, "[half_time]"
8, 243840, Text_t, "[nobeat]"
8, 244800, Text_t, "[half_time]"
8, 245760, Text_t, "sing_off"
8, 247680, Text_t, "[nobeat]"
8, 248640, Text_t, "[half_time]"
8, 249600, Text_t, "[nobeat]"
8, 249600, Text_t, "[verse]"
8, 249600, Text_t, "[lighting (sweep)]"
8, 276480, Text_t, "[double_time]"
8, 280320, Text_t, "solo_on"
8, 280320, Text_t, "[solo]"
8, 280320, Text_t, "wail_off"
8, 280320, Text_t, "[nobeat]"
8, 307200, Text_t, "sing_on"
8, 311040, Text_t, "solo_off"
8, 311040, Text_t, "[verse]"
8, 364800, Text_t, "[chorus]"
8, 376320, Text_t, "[half_time]"
8, 378240, Text_t, "[nobeat]"
8, 380160, Text_t, "[allbeat]"
8, 381120, Text_t, "[double_time]"
8, 382080, Text_t, "[nobeat]"
8, 395520, Text_t, "[half_time]"
8, 397440, Text_t, "[nobeat]"
8, 399360, Text_t, "[allbeat]"
8, 400320, Text_t, "[double_time]"
8, 401280, Text_t, "[nobeat]"
8, 403200, Text_t, "[half_time]"
8, 405120, Text_t, "[nobeat]"
8, 407040, Text_t, "[half_time]"
8, 408960, Text_t, "[nobeat]"
8, 409920, Text_t, "[half_time]"
8, 410880, Text_t, "sing_off"
8, 412800, Text_t, "[nobeat]"
8, 413760, Text_t, "[double_time]"
8, 415680, Text_t, "bass_off"
8, 415680, Text_t, "gtr_off"
8, 415680, Text_t, "[idle]"
8, 418558, Text_t, "[end]"
8, 418558, End_track
0, 0, End_of_file
