0, 0, Header, 1, 8, 960
1, 0, Start_track
1, 0, Title_t, "symphofdestruction"
1, 0, Time_signature, 4, 2, 24, 8
1, 0, Tempo, 433209
1, 7680, Tempo, 428571
1, 34560, Tempo, 429338
1, 69120, Tempo, 428571
1, 130560, Tempo, 429338
1, 176640, Tempo, 428571
1, 291840, Tempo, 429338
1, 322560, Tempo, 428571
1, 395520, Tempo, 429338
1, 395520, End_track
2, 0, Start_track
2, 0, Title_t, "PART GUITAR"
2, 0, Text_t, "[idle]"
2, 5730, Text_t, "[play]"
2, 5730, Note_on_c, 0, 106, 100
2, 5730, Note_on_c, 0, 105, 100
2, 5730, Note_on_c, 0, 94, 100
2, 5730, Note_on_c, 0, 93, 100
2, 5730, Note_on_c, 0, 70, 100
2, 5730, Note_on_c, 0, 69, 100
2, 5730, Note_on_c, 0, 82, 100
2, 5730, Note_on_c, 0, 81, 100
2, 6210, Note_on_c, 0, 103, 100
2, 6210, Note_on_c, 0, 91, 100
2, 6210, Note_on_c, 0, 79, 100
2, 6240, Note_on_c, 0, 98, 100
2, 6240, Note_on_c, 0, 86, 100
2, 6240, Note_on_c, 0, 73, 100
2, 6240, Note_on_c, 0, 62, 100
2, 6480, Note_on_c, 0, 98, 0
2, 6480, Note_on_c, 0, 86, 0
2, 6480, Note_on_c, 0, 73, 0
2, 6480, Note_on_c, 0, 62, 0
2, 6720, Note_on_c, 0, 99, 100
2, 6720, Note_on_c, 0, 87, 100
2, 6720, Note_on_c, 0, 74, 100
2, 6960, Note_on_c, 0, 99, 0
2, 6960, Note_on_c, 0, 87, 0
2, 6960, Note_on_c, 0, 74, 0
2, 7200, Note_on_c, 0, 98, 100
2, 7200, Note_on_c, 0, 86, 100
2, 7200, Note_on_c, 0, 73, 100
2, 7440, Note_on_c, 0, 98, 0
2, 7440, Note_on_c, 0, 86, 0
2, 7440, Note_on_c, 0, 73, 0
2, 7568, Note_on_c, 0, 106, 0
2, 7568, Note_on_c, 0, 94, 0
2, 7568, Note_on_c, 0, 70, 0
2, 7568, Note_on_c, 0, 82, 0
2, 7650, Note_on_c, 0, 103, 0
2, 7650, Note_on_c, 0, 91, 0
2, 7650, Note_on_c, 0, 79, 0
2, 7650, Note_on_c, 0, 67, 100
2, 7680, Note_on_c, 0, 97, 100
2, 7680, Note_on_c, 0, 98, 100
2, 7680, Note_on_c, 0, 85, 100
2, 7680, Note_on_c, 0, 86, 100
2, 7680, Note_on_c, 0, 73, 100
2, 7680, Note_on_c, 0, 61, 100
2, 7920, Note_on_c, 0, 97, 0
2, 7920, Note_on_c, 0, 98, 0
2, 7920, Note_on_c, 0, 85, 0
2, 7920, Note_on_c, 0, 86, 0
2, 7920, Note_on_c, 0, 73, 0
2, 7920, Note_on_c, 0, 61, 0
2, 8160, Note_on_c, 0, 96, 100
2, 8160, Note_on_c, 0, 97, 100
2, 8160, Note_on_c, 0, 84, 100
2, 8160, Note_on_c, 0, 85, 100
2, 8160, Note_on_c, 0, 72, 100
2, 8400, Note_on_c, 0, 96, 0
2, 8400, Note_on_c, 0, 97, 0
2, 8400, Note_on_c, 0, 84, 0
2, 8400, Note_on_c, 0, 85, 0
2, 8400, Note_on_c, 0, 72, 0
2, 9120, Note_on_c, 0, 96, 100
2, 9120, Note_on_c, 0, 97, 100
2, 9120, Note_on_c, 0, 84, 100
2, 9120, Note_on_c, 0, 85, 100
2, 9120, Note_on_c, 0, 72, 100
2, 9120, Note_on_c, 0, 60, 100
2, 9360, Note_on_c, 0, 96, 0
2, 9360, Note_on_c, 0, 97, 0
2, 9360, Note_on_c, 0, 84, 0
2, 9360, Note_on_c, 0, 85, 0
2, 9360, Note_on_c, 0, 72, 0
2, 9360, Note_on_c, 0, 60, 0
2, 9570, Note_on_c, 0, 67, 0
2, 11010, Note_on_c, 0, 105, 0
2, 11010, Note_on_c, 0, 93, 0
2, 11010, Note_on_c, 0, 69, 0
2, 11010, Note_on_c, 0, 81, 0
2, 11010, Note_on_c, 0, 106, 100
2, 11010, Note_on_c, 0, 94, 100
2, 11010, Note_on_c, 0, 70, 100
2, 11010, Note_on_c, 0, 82, 100
2, 11520, Note_on_c, 0, 97, 100
2, 11520, Note_on_c, 0, 98, 100
2, 11520, Note_on_c, 0, 85, 100
2, 11520, Note_on_c, 0, 86, 100
2, 11520, Note_on_c, 0, 73, 100
2, 11520, Note_on_c, 0, 61, 100
2, 11760, Note_on_c, 0, 97, 0
2, 11760, Note_on_c, 0, 98, 0
2, 11760, Note_on_c, 0, 85, 0
2, 11760, Note_on_c, 0, 86, 0
2, 11760, Note_on_c, 0, 73, 0
2, 11760, Note_on_c, 0, 61, 0
2, 12000, Note_on_c, 0, 96, 100
2, 12000, Note_on_c, 0, 97, 100
2, 12000, Note_on_c, 0, 84, 100
2, 12000, Note_on_c, 0, 85, 100
2, 12000, Note_on_c, 0, 72, 100
2, 12240, Note_on_c, 0, 96, 0
2, 12240, Note_on_c, 0, 97, 0
2, 12240, Note_on_c, 0, 84, 0
2, 12240, Note_on_c, 0, 85, 0
2, 12240, Note_on_c, 0, 72, 0
2, 12960, Note_on_c, 0, 96, 100
2, 12960, Note_on_c, 0, 97, 100
2, 12960, Note_on_c, 0, 84, 100
2, 12960, Note_on_c, 0, 85, 100
2, 12960, Note_on_c, 0, 72, 100
2, 12960, Note_on_c, 0, 60, 100
2, 13200, Note_on_c, 0, 96, 0
2, 13200, Note_on_c, 0, 97, 0
2, 13200, Note_on_c, 0, 84, 0
2, 13200, Note_on_c, 0, 85, 0
2, 13200, Note_on_c, 0, 72, 0
2, 13200, Note_on_c, 0, 60, 0
2, 13410, Note_on_c, 0, 105, 100
2, 13410, Note_on_c, 0, 93, 100
2, 13410, Note_on_c, 0, 69, 100
2, 13410, Note_on_c, 0, 81, 100
2, 13920, Note_on_c, 0, 98, 100
2, 13920, Note_on_c, 0, 86, 100
2, 13920, Note_on_c, 0, 73, 100
2, 13920, Note_on_c, 0, 62, 100
2, 14160, Note_on_c, 0, 98, 0
2, 14160, Note_on_c, 0, 86, 0
2, 14160, Note_on_c, 0, 73, 0
2, 14160, Note_on_c, 0, 62, 0
2, 14400, Note_on_c, 0, 99, 100
2, 14400, Note_on_c, 0, 87, 100
2, 14400, Note_on_c, 0, 74, 100
2, 14640, Note_on_c, 0, 99, 0
2, 14640, Note_on_c, 0, 87, 0
2, 14640, Note_on_c, 0, 74, 0
2, 14880, Note_on_c, 0, 98, 100
2, 14880, Note_on_c, 0, 86, 100
2, 14880, Note_on_c, 0, 73, 100
2, 15120, Note_on_c, 0, 98, 0
2, 15120, Note_on_c, 0, 86, 0
2, 15120, Note_on_c, 0, 73, 0
2, 15330, Note_on_c, 0, 106, 0
2, 15330, Note_on_c, 0, 94, 0
2, 15330, Note_on_c, 0, 70, 0
2, 15330, Note_on_c, 0, 82, 0
2, 15360, Note_on_c, 0, 97, 100
2, 15360, Note_on_c, 0, 98, 100
2, 15360, Note_on_c, 0, 85, 100
2, 15360, Note_on_c, 0, 86, 100
2, 15360, Note_on_c, 0, 73, 100
2, 15360, Note_on_c, 0, 61, 100
2, 15600, Note_on_c, 0, 97, 0
2, 15600, Note_on_c, 0, 98, 0
2, 15600, Note_on_c, 0, 85, 0
2, 15600, Note_on_c, 0, 86, 0
2, 15600, Note_on_c, 0, 73, 0
2, 15600, Note_on_c, 0, 61, 0
2, 15840, Note_on_c, 0, 96, 100
2, 15840, Note_on_c, 0, 97, 100
2, 15840, Note_on_c, 0, 84, 100
2, 15840, Note_on_c, 0, 85, 100
2, 15840, Note_on_c, 0, 72, 100
2, 16080, Note_on_c, 0, 96, 0
2, 16080, Note_on_c, 0, 97, 0
2, 16080, Note_on_c, 0, 84, 0
2, 16080, Note_on_c, 0, 85, 0
2, 16080, Note_on_c, 0, 72, 0
2, 16800, Note_on_c, 0, 96, 100
2, 16800, Note_on_c, 0, 97, 100
2, 16800, Note_on_c, 0, 84, 100
2, 16800, Note_on_c, 0, 85, 100
2, 16800, Note_on_c, 0, 72, 100
2, 16800, Note_on_c, 0, 60, 100
2, 17040, Note_on_c, 0, 96, 0
2, 17040, Note_on_c, 0, 97, 0
2, 17040, Note_on_c, 0, 84, 0
2, 17040, Note_on_c, 0, 85, 0
2, 17040, Note_on_c, 0, 72, 0
2, 17040, Note_on_c, 0, 60, 0
2, 18000, Note_on_c, 0, 108, 100
2, 18480, Note_on_c, 0, 108, 0
2, 18720, Note_on_c, 0, 108, 100
2, 19200, Note_on_c, 0, 108, 0
2, 19440, Note_on_c, 0, 108, 100
2, 19920, Note_on_c, 0, 108, 0
2, 20160, Note_on_c, 0, 108, 100
2, 20400, Note_on_c, 0, 108, 0
2, 20640, Note_on_c, 0, 108, 100
2, 21120, Note_on_c, 0, 108, 0
2, 21600, Note_on_c, 0, 108, 100
2, 22050, Note_on_c, 0, 105, 0
2, 22050, Note_on_c, 0, 93, 0
2, 22050, Note_on_c, 0, 69, 0
2, 22050, Note_on_c, 0, 81, 0
2, 22050, Note_on_c, 0, 106, 100
2, 22050, Note_on_c, 0, 94, 100
2, 22050, Note_on_c, 0, 70, 100
2, 22050, Note_on_c, 0, 82, 100
2, 22800, Note_on_c, 0, 108, 0
2, 23040, Note_on_c, 0, 97, 100
2, 23040, Note_on_c, 0, 98, 100
2, 23040, Note_on_c, 0, 85, 100
2, 23040, Note_on_c, 0, 86, 100
2, 23040, Note_on_c, 0, 73, 100
2, 23040, Note_on_c, 0, 61, 100
2, 23280, Note_on_c, 0, 97, 0
2, 23280, Note_on_c, 0, 98, 0
2, 23280, Note_on_c, 0, 85, 0
2, 23280, Note_on_c, 0, 86, 0
2, 23280, Note_on_c, 0, 73, 0
2, 23280, Note_on_c, 0, 61, 0
2, 23520, Note_on_c, 0, 96, 100
2, 23520, Note_on_c, 0, 97, 100
2, 23520, Note_on_c, 0, 84, 100
2, 23520, Note_on_c, 0, 85, 100
2, 23520, Note_on_c, 0, 72, 100
2, 23760, Note_on_c, 0, 96, 0
2, 23760, Note_on_c, 0, 97, 0
2, 23760, Note_on_c, 0, 84, 0
2, 23760, Note_on_c, 0, 85, 0
2, 23760, Note_on_c, 0, 72, 0
2, 24480, Note_on_c, 0, 96, 100
2, 24480, Note_on_c, 0, 97, 100
2, 24480, Note_on_c, 0, 84, 100
2, 24480, Note_on_c, 0, 85, 100
2, 24480, Note_on_c, 0, 72, 100
2, 24480, Note_on_c, 0, 60, 100
2, 24720, Note_on_c, 0, 96, 0
2, 24720, Note_on_c, 0, 97, 0
2, 24720, Note_on_c, 0, 84, 0
2, 24720, Note_on_c, 0, 85, 0
2, 24720, Note_on_c, 0, 72, 0
2, 24720, Note_on_c, 0, 60, 0
2, 26370, Note_on_c, 0, 106, 0
2, 26370, Note_on_c, 0, 94, 0
2, 26370, Note_on_c, 0, 70, 0
2, 26370, Note_on_c, 0, 82, 0
2, 26370, Note_on_c, 0, 105, 100
2, 26370, Note_on_c, 0, 93, 100
2, 26370, Note_on_c, 0, 69, 100
2, 26370, Note_on_c, 0, 81, 100
2, 26880, Note_on_c, 0, 97, 100
2, 26880, Note_on_c, 0, 98, 100
2, 26880, Note_on_c, 0, 85, 100
2, 26880, Note_on_c, 0, 86, 100
2, 26880, Note_on_c, 0, 73, 100
2, 26880, Note_on_c, 0, 61, 100
2, 27120, Note_on_c, 0, 97, 0
2, 27120, Note_on_c, 0, 98, 0
2, 27120, Note_on_c, 0, 85, 0
2, 27120, Note_on_c, 0, 86, 0
2, 27120, Note_on_c, 0, 73, 0
2, 27120, Note_on_c, 0, 61, 0
2, 27360, Note_on_c, 0, 96, 100
2, 27360, Note_on_c, 0, 97, 100
2, 27360, Note_on_c, 0, 84, 100
2, 27360, Note_on_c, 0, 85, 100
2, 27360, Note_on_c, 0, 72, 100
2, 27600, Note_on_c, 0, 96, 0
2, 27600, Note_on_c, 0, 97, 0
2, 27600, Note_on_c, 0, 84, 0
2, 27600, Note_on_c, 0, 85, 0
2, 27600, Note_on_c, 0, 72, 0
2, 28290, Note_on_c, 0, 70, 100
2, 28320, Note_on_c, 0, 96, 100
2, 28320, Note_on_c, 0, 97, 100
2, 28320, Note_on_c, 0, 84, 100
2, 28320, Note_on_c, 0, 85, 100
2, 28320, Note_on_c, 0, 72, 100
2, 28320, Note_on_c, 0, 60, 100
2, 28560, Note_on_c, 0, 96, 0
2, 28560, Note_on_c, 0, 97, 0
2, 28560, Note_on_c, 0, 84, 0
2, 28560, Note_on_c, 0, 85, 0
2, 28560, Note_on_c, 0, 72, 0
2, 28560, Note_on_c, 0, 60, 0
2, 29090, Note_on_c, 0, 82, 100
2, 29090, Note_on_c, 0, 106, 100
2, 29090, Note_on_c, 0, 94, 100
2, 29280, Note_on_c, 0, 98, 100
2, 29280, Note_on_c, 0, 86, 100
2, 29280, Note_on_c, 0, 73, 100
2, 29280, Note_on_c, 0, 62, 100
2, 29520, Note_on_c, 0, 98, 0
2, 29520, Note_on_c, 0, 86, 0
2, 29520, Note_on_c, 0, 73, 0
2, 29520, Note_on_c, 0, 62, 0
2, 29760, Note_on_c, 0, 99, 100
2, 29760, Note_on_c, 0, 87, 100
2, 29760, Note_on_c, 0, 74, 100
2, 30000, Note_on_c, 0, 99, 0
2, 30000, Note_on_c, 0, 87, 0
2, 30000, Note_on_c, 0, 74, 0
2, 30240, Note_on_c, 0, 98, 100
2, 30240, Note_on_c, 0, 86, 100
2, 30240, Note_on_c, 0, 73, 100
2, 30480, Note_on_c, 0, 98, 0
2, 30480, Note_on_c, 0, 86, 0
2, 30480, Note_on_c, 0, 73, 0
2, 30608, Note_on_c, 0, 105, 0
2, 30608, Note_on_c, 0, 93, 0
2, 30608, Note_on_c, 0, 69, 0
2, 30608, Note_on_c, 0, 81, 0
2, 30720, Note_on_c, 0, 97, 100
2, 30720, Note_on_c, 0, 98, 100
2, 30720, Note_on_c, 0, 85, 100
2, 30720, Note_on_c, 0, 86, 100
2, 30720, Note_on_c, 0, 73, 100
2, 30720, Note_on_c, 0, 61, 100
2, 30960, Note_on_c, 0, 97, 0
2, 30960, Note_on_c, 0, 98, 0
2, 30960, Note_on_c, 0, 85, 0
2, 30960, Note_on_c, 0, 86, 0
2, 30960, Note_on_c, 0, 73, 0
2, 30960, Note_on_c, 0, 61, 0
2, 31200, Note_on_c, 0, 96, 100
2, 31200, Note_on_c, 0, 97, 100
2, 31200, Note_on_c, 0, 84, 100
2, 31200, Note_on_c, 0, 85, 100
2, 31200, Note_on_c, 0, 72, 100
2, 31440, Note_on_c, 0, 96, 0
2, 31440, Note_on_c, 0, 97, 0
2, 31440, Note_on_c, 0, 84, 0
2, 31440, Note_on_c, 0, 85, 0
2, 31440, Note_on_c, 0, 72, 0
2, 32160, Note_on_c, 0, 96, 100
2, 32160, Note_on_c, 0, 97, 100
2, 32160, Note_on_c, 0, 84, 100
2, 32160, Note_on_c, 0, 85, 100
2, 32160, Note_on_c, 0, 72, 100
2, 32160, Note_on_c, 0, 60, 100
2, 32400, Note_on_c, 0, 96, 0
2, 32400, Note_on_c, 0, 97, 0
2, 32400, Note_on_c, 0, 84, 0
2, 32400, Note_on_c, 0, 85, 0
2, 32400, Note_on_c, 0, 72, 0
2, 32400, Note_on_c, 0, 60, 0
2, 33360, Note_on_c, 0, 108, 100
2, 33840, Note_on_c, 0, 108, 0
2, 34080, Note_on_c, 0, 108, 100
2, 34560, Note_on_c, 0, 108, 0
2, 34800, Note_on_c, 0, 108, 100
2, 35040, Note_on_c, 0, 108, 0
2, 35280, Note_on_c, 0, 108, 100
2, 36000, Note_on_c, 0, 108, 0
2, 36240, Note_on_c, 0, 108, 100
2, 36450, Note_on_c, 0, 70, 0
2, 36450, Note_on_c, 0, 82, 0
2, 36450, Note_on_c, 0, 106, 0
2, 36450, Note_on_c, 0, 94, 0
2, 36450, Note_on_c, 0, 105, 100
2, 36450, Note_on_c, 0, 93, 100
2, 36450, Note_on_c, 0, 69, 100
2, 36450, Note_on_c, 0, 81, 100
2, 36960, Note_on_c, 0, 108, 0
2, 37200, Note_on_c, 0, 108, 100
2, 38370, Note_on_c, 0, 103, 100
2, 38370, Note_on_c, 0, 91, 100
2, 38370, Note_on_c, 0, 79, 100
2, 38400, Note_on_c, 0, 97, 100
2, 38400, Note_on_c, 0, 98, 100
2, 38400, Note_on_c, 0, 85, 100
2, 38400, Note_on_c, 0, 86, 100
2, 38400, Note_on_c, 0, 73, 100
2, 38400, Note_on_c, 0, 61, 100
2, 38640, Note_on_c, 0, 97, 0
2, 38640, Note_on_c, 0, 98, 0
2, 38640, Note_on_c, 0, 85, 0
2, 38640, Note_on_c, 0, 86, 0
2, 38640, Note_on_c, 0, 73, 0
2, 38640, Note_on_c, 0, 61, 0
2, 38880, Note_on_c, 0, 96, 100
2, 38880, Note_on_c, 0, 97, 100
2, 38880, Note_on_c, 0, 84, 100
2, 38880, Note_on_c, 0, 85, 100
2, 38880, Note_on_c, 0, 72, 100
2, 39120, Note_on_c, 0, 108, 0
2, 39120, Note_on_c, 0, 96, 0
2, 39120, Note_on_c, 0, 97, 0
2, 39120, Note_on_c, 0, 84, 0
2, 39120, Note_on_c, 0, 85, 0
2, 39120, Note_on_c, 0, 72, 0
2, 39840, Note_on_c, 0, 96, 100
2, 39840, Note_on_c, 0, 97, 100
2, 39840, Note_on_c, 0, 84, 100
2, 39840, Note_on_c, 0, 85, 100
2, 39840, Note_on_c, 0, 72, 100
2, 39840, Note_on_c, 0, 60, 100
2, 40080, Note_on_c, 0, 96, 0
2, 40080, Note_on_c, 0, 97, 0
2, 40080, Note_on_c, 0, 84, 0
2, 40080, Note_on_c, 0, 85, 0
2, 40080, Note_on_c, 0, 72, 0
2, 40080, Note_on_c, 0, 60, 0
2, 40290, Note_on_c, 0, 103, 0
2, 40290, Note_on_c, 0, 91, 0
2, 40290, Note_on_c, 0, 79, 0
2, 41250, Note_on_c, 0, 105, 0
2, 41250, Note_on_c, 0, 93, 0
2, 41250, Note_on_c, 0, 69, 0
2, 41250, Note_on_c, 0, 81, 0
2, 41250, Note_on_c, 0, 106, 100
2, 41250, Note_on_c, 0, 94, 100
2, 41250, Note_on_c, 0, 70, 100
2, 41250, Note_on_c, 0, 82, 100
2, 42210, Note_on_c, 0, 67, 100
2, 42240, Note_on_c, 0, 97, 100
2, 42240, Note_on_c, 0, 98, 100
2, 42240, Note_on_c, 0, 85, 100
2, 42240, Note_on_c, 0, 86, 100
2, 42240, Note_on_c, 0, 73, 100
2, 42240, Note_on_c, 0, 61, 100
2, 42480, Note_on_c, 0, 97, 0
2, 42480, Note_on_c, 0, 98, 0
2, 42480, Note_on_c, 0, 85, 0
2, 42480, Note_on_c, 0, 86, 0
2, 42480, Note_on_c, 0, 73, 0
2, 42480, Note_on_c, 0, 61, 0
2, 42720, Note_on_c, 0, 96, 100
2, 42720, Note_on_c, 0, 97, 100
2, 42720, Note_on_c, 0, 84, 100
2, 42720, Note_on_c, 0, 85, 100
2, 42720, Note_on_c, 0, 72, 100
2, 42960, Note_on_c, 0, 96, 0
2, 42960, Note_on_c, 0, 97, 0
2, 42960, Note_on_c, 0, 84, 0
2, 42960, Note_on_c, 0, 85, 0
2, 42960, Note_on_c, 0, 72, 0
2, 43680, Note_on_c, 0, 96, 100
2, 43680, Note_on_c, 0, 97, 100
2, 43680, Note_on_c, 0, 84, 100
2, 43680, Note_on_c, 0, 85, 100
2, 43680, Note_on_c, 0, 72, 100
2, 43680, Note_on_c, 0, 60, 100
2, 43920, Note_on_c, 0, 96, 0
2, 43920, Note_on_c, 0, 97, 0
2, 43920, Note_on_c, 0, 84, 0
2, 43920, Note_on_c, 0, 85, 0
2, 43920, Note_on_c, 0, 72, 0
2, 43920, Note_on_c, 0, 60, 0
2, 44130, Note_on_c, 0, 67, 0
2, 44370, Note_on_c, 0, 105, 100
2, 44370, Note_on_c, 0, 93, 100
2, 44370, Note_on_c, 0, 69, 100
2, 44370, Note_on_c, 0, 81, 100
2, 44640, Note_on_c, 0, 98, 100
2, 44640, Note_on_c, 0, 86, 100
2, 44640, Note_on_c, 0, 73, 100
2, 44640, Note_on_c, 0, 62, 100
2, 44880, Note_on_c, 0, 98, 0
2, 44880, Note_on_c, 0, 86, 0
2, 44880, Note_on_c, 0, 73, 0
2, 44880, Note_on_c, 0, 62, 0
2, 45120, Note_on_c, 0, 99, 100
2, 45120, Note_on_c, 0, 87, 100
2, 45120, Note_on_c, 0, 74, 100
2, 45360, Note_on_c, 0, 99, 0
2, 45360, Note_on_c, 0, 87, 0
2, 45360, Note_on_c, 0, 74, 0
2, 45600, Note_on_c, 0, 98, 100
2, 45600, Note_on_c, 0, 86, 100
2, 45600, Note_on_c, 0, 73, 100
2, 45840, Note_on_c, 0, 98, 0
2, 45840, Note_on_c, 0, 86, 0
2, 45840, Note_on_c, 0, 73, 0
2, 45970, Note_on_c, 0, 106, 0
2, 45970, Note_on_c, 0, 94, 0
2, 45970, Note_on_c, 0, 70, 0
2, 45970, Note_on_c, 0, 82, 0
2, 46080, Note_on_c, 0, 97, 100
2, 46080, Note_on_c, 0, 98, 100
2, 46080, Note_on_c, 0, 85, 100
2, 46080, Note_on_c, 0, 86, 100
2, 46080, Note_on_c, 0, 73, 100
2, 46080, Note_on_c, 0, 61, 100
2, 46320, Note_on_c, 0, 97, 0
2, 46320, Note_on_c, 0, 98, 0
2, 46320, Note_on_c, 0, 85, 0
2, 46320, Note_on_c, 0, 86, 0
2, 46320, Note_on_c, 0, 73, 0
2, 46320, Note_on_c, 0, 61, 0
2, 46560, Note_on_c, 0, 96, 100
2, 46560, Note_on_c, 0, 97, 100
2, 46560, Note_on_c, 0, 84, 100
2, 46560, Note_on_c, 0, 85, 100
2, 46560, Note_on_c, 0, 72, 100
2, 46800, Note_on_c, 0, 96, 0
2, 46800, Note_on_c, 0, 97, 0
2, 46800, Note_on_c, 0, 84, 0
2, 46800, Note_on_c, 0, 85, 0
2, 46800, Note_on_c, 0, 72, 0
2, 47520, Note_on_c, 0, 96, 100
2, 47520, Note_on_c, 0, 97, 100
2, 47520, Note_on_c, 0, 84, 100
2, 47520, Note_on_c, 0, 85, 100
2, 47520, Note_on_c, 0, 72, 100
2, 47520, Note_on_c, 0, 60, 100
2, 47760, Note_on_c, 0, 96, 0
2, 47760, Note_on_c, 0, 97, 0
2, 47760, Note_on_c, 0, 84, 0
2, 47760, Note_on_c, 0, 85, 0
2, 47760, Note_on_c, 0, 72, 0
2, 47760, Note_on_c, 0, 60, 0
2, 48720, Note_on_c, 0, 108, 100
2, 49200, Note_on_c, 0, 108, 0
2, 49440, Note_on_c, 0, 108, 100
2, 49920, Note_on_c, 0, 108, 0
2, 50160, Note_on_c, 0, 108, 100
2, 50640, Note_on_c, 0, 108, 0
2, 50880, Note_on_c, 0, 108, 100
2, 51600, Note_on_c, 0, 108, 0
2, 51840, Note_on_c, 0, 108, 100
2, 52050, Note_on_c, 0, 105, 0
2, 52050, Note_on_c, 0, 93, 0
2, 52050, Note_on_c, 0, 69, 0
2, 52050, Note_on_c, 0, 81, 0
2, 52290, Note_on_c, 0, 106, 100
2, 52290, Note_on_c, 0, 94, 100
2, 52290, Note_on_c, 0, 70, 100
2, 52290, Note_on_c, 0, 82, 100
2, 52320, Note_on_c, 0, 108, 0
2, 52560, Note_on_c, 0, 108, 100
2, 53730, Note_on_c, 0, 103, 100
2, 53730, Note_on_c, 0, 91, 100
2, 53730, Note_on_c, 0, 79, 100
2, 53760, Note_on_c, 0, 97, 100
2, 53760, Note_on_c, 0, 98, 100
2, 53760, Note_on_c, 0, 85, 100
2, 53760, Note_on_c, 0, 86, 100
2, 53760, Note_on_c, 0, 73, 100
2, 53760, Note_on_c, 0, 61, 100
2, 54000, Note_on_c, 0, 108, 0
2, 54000, Note_on_c, 0, 97, 0
2, 54000, Note_on_c, 0, 98, 0
2, 54000, Note_on_c, 0, 85, 0
2, 54000, Note_on_c, 0, 86, 0
2, 54000, Note_on_c, 0, 73, 0
2, 54000, Note_on_c, 0, 61, 0
2, 54240, Note_on_c, 0, 96, 100
2, 54240, Note_on_c, 0, 97, 100
2, 54240, Note_on_c, 0, 84, 100
2, 54240, Note_on_c, 0, 85, 100
2, 54240, Note_on_c, 0, 72, 100
2, 54480, Note_on_c, 0, 96, 0
2, 54480, Note_on_c, 0, 97, 0
2, 54480, Note_on_c, 0, 84, 0
2, 54480, Note_on_c, 0, 85, 0
2, 54480, Note_on_c, 0, 72, 0
2, 55200, Note_on_c, 0, 96, 100
2, 55200, Note_on_c, 0, 97, 100
2, 55200, Note_on_c, 0, 84, 100
2, 55200, Note_on_c, 0, 85, 100
2, 55200, Note_on_c, 0, 72, 100
2, 55200, Note_on_c, 0, 60, 100
2, 55440, Note_on_c, 0, 96, 0
2, 55440, Note_on_c, 0, 97, 0
2, 55440, Note_on_c, 0, 84, 0
2, 55440, Note_on_c, 0, 85, 0
2, 55440, Note_on_c, 0, 72, 0
2, 55440, Note_on_c, 0, 60, 0
2, 55650, Note_on_c, 0, 103, 0
2, 55650, Note_on_c, 0, 91, 0
2, 55650, Note_on_c, 0, 79, 0
2, 56610, Note_on_c, 0, 106, 0
2, 56610, Note_on_c, 0, 94, 0
2, 56610, Note_on_c, 0, 70, 0
2, 56610, Note_on_c, 0, 82, 0
2, 56610, Note_on_c, 0, 105, 100
2, 56610, Note_on_c, 0, 93, 100
2, 56610, Note_on_c, 0, 69, 100
2, 56610, Note_on_c, 0, 81, 100
2, 57600, Note_on_c, 0, 97, 100
2, 57600, Note_on_c, 0, 98, 100
2, 57600, Note_on_c, 0, 85, 100
2, 57600, Note_on_c, 0, 86, 100
2, 57600, Note_on_c, 0, 73, 100
2, 57600, Note_on_c, 0, 61, 100
2, 57840, Note_on_c, 0, 97, 0
2, 57840, Note_on_c, 0, 98, 0
2, 57840, Note_on_c, 0, 85, 0
2, 57840, Note_on_c, 0, 86, 0
2, 57840, Note_on_c, 0, 73, 0
2, 57840, Note_on_c, 0, 61, 0
2, 58080, Note_on_c, 0, 96, 100
2, 58080, Note_on_c, 0, 97, 100
2, 58080, Note_on_c, 0, 84, 100
2, 58080, Note_on_c, 0, 85, 100
2, 58080, Note_on_c, 0, 72, 100
2, 58320, Note_on_c, 0, 96, 0
2, 58320, Note_on_c, 0, 97, 0
2, 58320, Note_on_c, 0, 84, 0
2, 58320, Note_on_c, 0, 85, 0
2, 58320, Note_on_c, 0, 72, 0
2, 59040, Note_on_c, 0, 96, 100
2, 59040, Note_on_c, 0, 97, 100
2, 59040, Note_on_c, 0, 84, 100
2, 59040, Note_on_c, 0, 85, 100
2, 59040, Note_on_c, 0, 72, 100
2, 59040, Note_on_c, 0, 60, 100
2, 59280, Note_on_c, 0, 96, 0
2, 59280, Note_on_c, 0, 97, 0
2, 59280, Note_on_c, 0, 84, 0
2, 59280, Note_on_c, 0, 85, 0
2, 59280, Note_on_c, 0, 72, 0
2, 59280, Note_on_c, 0, 60, 0
2, 59730, Note_on_c, 0, 106, 100
2, 59730, Note_on_c, 0, 94, 100
2, 59730, Note_on_c, 0, 70, 100
2, 59730, Note_on_c, 0, 82, 100
2, 60000, Note_on_c, 0, 98, 100
2, 60000, Note_on_c, 0, 86, 100
2, 60000, Note_on_c, 0, 73, 100
2, 60000, Note_on_c, 0, 62, 100
2, 60240, Note_on_c, 0, 98, 0
2, 60240, Note_on_c, 0, 86, 0
2, 60240, Note_on_c, 0, 73, 0
2, 60240, Note_on_c, 0, 62, 0
2, 60480, Note_on_c, 0, 99, 100
2, 60480, Note_on_c, 0, 87, 100
2, 60480, Note_on_c, 0, 74, 100
2, 60720, Note_on_c, 0, 99, 0
2, 60720, Note_on_c, 0, 87, 0
2, 60720, Note_on_c, 0, 74, 0
2, 60960, Note_on_c, 0, 98, 100
2, 60960, Note_on_c, 0, 86, 100
2, 60960, Note_on_c, 0, 73, 100
2, 61200, Note_on_c, 0, 98, 0
2, 61200, Note_on_c, 0, 86, 0
2, 61200, Note_on_c, 0, 73, 0
2, 61440, Note_on_c, 0, 97, 100
2, 61440, Note_on_c, 0, 98, 100
2, 61440, Note_on_c, 0, 85, 100
2, 61440, Note_on_c, 0, 86, 100
2, 61440, Note_on_c, 0, 73, 100
2, 61440, Note_on_c, 0, 61, 100
2, 61490, Note_on_c, 0, 105, 0
2, 61490, Note_on_c, 0, 93, 0
2, 61490, Note_on_c, 0, 69, 0
2, 61490, Note_on_c, 0, 81, 0
2, 61680, Note_on_c, 0, 97, 0
2, 61680, Note_on_c, 0, 98, 0
2, 61680, Note_on_c, 0, 85, 0
2, 61680, Note_on_c, 0, 86, 0
2, 61680, Note_on_c, 0, 73, 0
2, 61680, Note_on_c, 0, 61, 0
2, 61920, Note_on_c, 0, 96, 100
2, 61920, Note_on_c, 0, 97, 100
2, 61920, Note_on_c, 0, 84, 100
2, 61920, Note_on_c, 0, 85, 100
2, 61920, Note_on_c, 0, 72, 100
2, 62160, Note_on_c, 0, 96, 0
2, 62160, Note_on_c, 0, 97, 0
2, 62160, Note_on_c, 0, 84, 0
2, 62160, Note_on_c, 0, 85, 0
2, 62160, Note_on_c, 0, 72, 0
2, 62880, Note_on_c, 0, 96, 100
2, 62880, Note_on_c, 0, 97, 100
2, 62880, Note_on_c, 0, 84, 100
2, 62880, Note_on_c, 0, 85, 100
2, 62880, Note_on_c, 0, 72, 100
2, 62880, Note_on_c, 0, 60, 100
2, 63120, Note_on_c, 0, 96, 0
2, 63120, Note_on_c, 0, 97, 0
2, 63120, Note_on_c, 0, 84, 0
2, 63120, Note_on_c, 0, 85, 0
2, 63120, Note_on_c, 0, 72, 0
2, 63120, Note_on_c, 0, 60, 0
2, 63840, Note_on_c, 0, 108, 100
2, 64320, Note_on_c, 0, 108, 0
2, 64560, Note_on_c, 0, 108, 100
2, 65040, Note_on_c, 0, 108, 0
2, 65280, Note_on_c, 0, 108, 100
2, 65760, Note_on_c, 0, 108, 0
2, 65970, Note_on_c, 0, 106, 0
2, 65970, Note_on_c, 0, 94, 0
2, 65970, Note_on_c, 0, 70, 0
2, 65970, Note_on_c, 0, 82, 0
2, 66000, Note_on_c, 0, 108, 100
2, 66210, Note_on_c, 0, 105, 100
2, 66210, Note_on_c, 0, 93, 100
2, 66210, Note_on_c, 0, 69, 100
2, 66210, Note_on_c, 0, 81, 100
2, 66480, Note_on_c, 0, 108, 0
2, 66720, Note_on_c, 0, 108, 100
2, 66960, Note_on_c, 0, 108, 0
2, 67200, Note_on_c, 0, 108, 100
2, 67680, Note_on_c, 0, 97, 100
2, 67680, Note_on_c, 0, 85, 100
2, 67680, Note_on_c, 0, 72, 100
2, 67680, Note_on_c, 0, 60, 100
2, 67920, Note_on_c, 0, 97, 0
2, 67920, Note_on_c, 0, 85, 0
2, 67920, Note_on_c, 0, 72, 0
2, 67920, Note_on_c, 0, 60, 0
2, 68160, Note_on_c, 0, 97, 100
2, 68160, Note_on_c, 0, 85, 100
2, 68160, Note_on_c, 0, 72, 100
2, 68400, Note_on_c, 0, 97, 0
2, 68400, Note_on_c, 0, 85, 0
2, 68400, Note_on_c, 0, 72, 0
2, 68640, Note_on_c, 0, 99, 100
2, 68640, Note_on_c, 0, 100, 100
2, 68640, Note_on_c, 0, 88, 100
2, 68640, Note_on_c, 0, 62, 100
2, 68640, Note_on_c, 0, 74, 100
2, 68880, Note_on_c, 0, 99, 0
2, 68880, Note_on_c, 0, 100, 0
2, 68880, Note_on_c, 0, 88, 0
2, 68880, Note_on_c, 0, 62, 0
2, 68880, Note_on_c, 0, 74, 0
2, 69600, Note_on_c, 0, 108, 0
2, 69600, Note_on_c, 0, 98, 100
2, 69600, Note_on_c, 0, 99, 100
2, 69600, Note_on_c, 0, 86, 100
2, 69600, Note_on_c, 0, 87, 100
2, 69600, Note_on_c, 0, 73, 100
2, 69840, Note_on_c, 0, 98, 0
2, 69840, Note_on_c, 0, 99, 0
2, 69840, Note_on_c, 0, 86, 0
2, 69840, Note_on_c, 0, 87, 0
2, 69840, Note_on_c, 0, 73, 0
2, 70560, Note_on_c, 0, 97, 100
2, 70560, Note_on_c, 0, 98, 100
2, 70560, Note_on_c, 0, 85, 100
2, 70560, Note_on_c, 0, 86, 100
2, 70560, Note_on_c, 0, 61, 100
2, 70560, Note_on_c, 0, 72, 100
2, 70800, Note_on_c, 0, 97, 0
2, 70800, Note_on_c, 0, 98, 0
2, 70800, Note_on_c, 0, 85, 0
2, 70800, Note_on_c, 0, 86, 0
2, 70800, Note_on_c, 0, 61, 0
2, 70800, Note_on_c, 0, 72, 0
2, 71520, Note_on_c, 0, 98, 100
2, 71520, Note_on_c, 0, 87, 100
2, 71520, Note_on_c, 0, 73, 100
2, 71760, Note_on_c, 0, 98, 0
2, 71760, Note_on_c, 0, 87, 0
2, 71760, Note_on_c, 0, 73, 0
2, 71760, Note_on_c, 0, 99, 100
2, 72000, Note_on_c, 0, 99, 0
2, 72000, Note_on_c, 0, 98, 100
2, 72000, Note_on_c, 0, 86, 100
2, 72000, Note_on_c, 0, 72, 100
2, 72240, Note_on_c, 0, 98, 0
2, 72240, Note_on_c, 0, 86, 0
2, 72240, Note_on_c, 0, 72, 0
2, 72450, Note_on_c, 0, 105, 0
2, 72450, Note_on_c, 0, 93, 0
2, 72450, Note_on_c, 0, 69, 0
2, 72450, Note_on_c, 0, 81, 0
2, 72450, Note_on_c, 0, 106, 100
2, 72450, Note_on_c, 0, 94, 100
2, 72450, Note_on_c, 0, 70, 100
2, 72450, Note_on_c, 0, 82, 100
2, 72480, Note_on_c, 0, 99, 100
2, 72480, Note_on_c, 0, 100, 100
2, 72480, Note_on_c, 0, 88, 100
2, 72480, Note_on_c, 0, 62, 100
2, 72480, Note_on_c, 0, 74, 100
2, 72720, Note_on_c, 0, 99, 0
2, 72720, Note_on_c, 0, 100, 0
2, 72720, Note_on_c, 0, 88, 0
2, 72720, Note_on_c, 0, 62, 0
2, 72720, Note_on_c, 0, 74, 0
2, 73440, Note_on_c, 0, 98, 100
2, 73440, Note_on_c, 0, 99, 100
2, 73440, Note_on_c, 0, 86, 100
2, 73440, Note_on_c, 0, 87, 100
2, 73440, Note_on_c, 0, 73, 100
2, 73680, Note_on_c, 0, 98, 0
2, 73680, Note_on_c, 0, 99, 0
2, 73680, Note_on_c, 0, 86, 0
2, 73680, Note_on_c, 0, 87, 0
2, 73680, Note_on_c, 0, 73, 0
2, 74400, Note_on_c, 0, 97, 100
2, 74400, Note_on_c, 0, 98, 100
2, 74400, Note_on_c, 0, 85, 100
2, 74400, Note_on_c, 0, 86, 100
2, 74400, Note_on_c, 0, 61, 100
2, 74400, Note_on_c, 0, 72, 100
2, 74640, Note_on_c, 0, 97, 0
2, 74640, Note_on_c, 0, 98, 0
2, 74640, Note_on_c, 0, 85, 0
2, 74640, Note_on_c, 0, 86, 0
2, 74640, Note_on_c, 0, 61, 0
2, 74640, Note_on_c, 0, 72, 0
2, 75360, Note_on_c, 0, 98, 100
2, 75360, Note_on_c, 0, 87, 100
2, 75360, Note_on_c, 0, 73, 100
2, 75360, Note_on_c, 0, 108, 100
2, 75600, Note_on_c, 0, 98, 0
2, 75600, Note_on_c, 0, 87, 0
2, 75600, Note_on_c, 0, 73, 0
2, 75600, Note_on_c, 0, 99, 100
2, 75840, Note_on_c, 0, 99, 0
2, 75840, Note_on_c, 0, 98, 100
2, 75840, Note_on_c, 0, 86, 100
2, 75840, Note_on_c, 0, 72, 100
2, 76080, Note_on_c, 0, 108, 0
2, 76080, Note_on_c, 0, 98, 0
2, 76080, Note_on_c, 0, 86, 0
2, 76080, Note_on_c, 0, 72, 0
2, 76290, Note_on_c, 0, 106, 0
2, 76290, Note_on_c, 0, 94, 0
2, 76290, Note_on_c, 0, 70, 0
2, 76290, Note_on_c, 0, 82, 0
2, 76290, Note_on_c, 0, 105, 100
2, 76290, Note_on_c, 0, 93, 100
2, 76290, Note_on_c, 0, 69, 100
2, 76290, Note_on_c, 0, 81, 100
2, 76320, Note_on_c, 0, 99, 100
2, 76320, Note_on_c, 0, 100, 100
2, 76320, Note_on_c, 0, 88, 100
2, 76320, Note_on_c, 0, 62, 100
2, 76320, Note_on_c, 0, 74, 100
2, 76320, Note_on_c, 0, 108, 100
2, 76560, Note_on_c, 0, 99, 0
2, 76560, Note_on_c, 0, 100, 0
2, 76560, Note_on_c, 0, 88, 0
2, 76560, Note_on_c, 0, 62, 0
2, 76560, Note_on_c, 0, 74, 0
2, 77280, Note_on_c, 0, 98, 100
2, 77280, Note_on_c, 0, 99, 100
2, 77280, Note_on_c, 0, 86, 100
2, 77280, Note_on_c, 0, 87, 100
2, 77280, Note_on_c, 0, 73, 100
2, 77520, Note_on_c, 0, 98, 0
2, 77520, Note_on_c, 0, 99, 0
2, 77520, Note_on_c, 0, 86, 0
2, 77520, Note_on_c, 0, 87, 0
2, 77520, Note_on_c, 0, 73, 0
2, 78000, Note_on_c, 0, 108, 0
2, 78240, Note_on_c, 0, 97, 100
2, 78240, Note_on_c, 0, 98, 100
2, 78240, Note_on_c, 0, 85, 100
2, 78240, Note_on_c, 0, 86, 100
2, 78240, Note_on_c, 0, 61, 100
2, 78240, Note_on_c, 0, 72, 100
2, 78480, Note_on_c, 0, 97, 0
2, 78480, Note_on_c, 0, 98, 0
2, 78480, Note_on_c, 0, 85, 0
2, 78480, Note_on_c, 0, 86, 0
2, 78480, Note_on_c, 0, 61, 0
2, 78480, Note_on_c, 0, 72, 0
2, 79200, Note_on_c, 0, 98, 100
2, 79200, Note_on_c, 0, 87, 100
2, 79200, Note_on_c, 0, 73, 100
2, 79440, Note_on_c, 0, 98, 0
2, 79440, Note_on_c, 0, 87, 0
2, 79440, Note_on_c, 0, 73, 0
2, 79440, Note_on_c, 0, 99, 100
2, 79680, Note_on_c, 0, 99, 0
2, 79680, Note_on_c, 0, 98, 100
2, 79680, Note_on_c, 0, 86, 100
2, 79680, Note_on_c, 0, 72, 100
2, 79920, Note_on_c, 0, 98, 0
2, 79920, Note_on_c, 0, 86, 0
2, 79920, Note_on_c, 0, 72, 0
2, 80130, Note_on_c, 0, 105, 0
2, 80130, Note_on_c, 0, 93, 0
2, 80130, Note_on_c, 0, 69, 0
2, 80130, Note_on_c, 0, 81, 0
2, 80130, Note_on_c, 0, 106, 100
2, 80130, Note_on_c, 0, 94, 100
2, 80130, Note_on_c, 0, 70, 100
2, 80130, Note_on_c, 0, 82, 100
2, 80160, Note_on_c, 0, 99, 100
2, 80160, Note_on_c, 0, 100, 100
2, 80160, Note_on_c, 0, 88, 100
2, 80160, Note_on_c, 0, 62, 100
2, 80160, Note_on_c, 0, 74, 100
2, 80400, Note_on_c, 0, 99, 0
2, 80400, Note_on_c, 0, 100, 0
2, 80400, Note_on_c, 0, 88, 0
2, 80400, Note_on_c, 0, 62, 0
2, 80400, Note_on_c, 0, 74, 0
2, 81120, Note_on_c, 0, 98, 100
2, 81120, Note_on_c, 0, 99, 100
2, 81120, Note_on_c, 0, 86, 100
2, 81120, Note_on_c, 0, 87, 100
2, 81120, Note_on_c, 0, 73, 100
2, 81360, Note_on_c, 0, 98, 0
2, 81360, Note_on_c, 0, 99, 0
2, 81360, Note_on_c, 0, 86, 0
2, 81360, Note_on_c, 0, 87, 0
2, 81360, Note_on_c, 0, 73, 0
2, 82080, Note_on_c, 0, 97, 100
2, 82080, Note_on_c, 0, 98, 100
2, 82080, Note_on_c, 0, 85, 100
2, 82080, Note_on_c, 0, 86, 100
2, 82080, Note_on_c, 0, 61, 100
2, 82080, Note_on_c, 0, 72, 100
2, 82320, Note_on_c, 0, 97, 0
2, 82320, Note_on_c, 0, 98, 0
2, 82320, Note_on_c, 0, 85, 0
2, 82320, Note_on_c, 0, 86, 0
2, 82320, Note_on_c, 0, 61, 0
2, 82320, Note_on_c, 0, 72, 0
2, 83040, Note_on_c, 0, 98, 100
2, 83040, Note_on_c, 0, 87, 100
2, 83040, Note_on_c, 0, 73, 100
2, 83040, Note_on_c, 0, 108, 100
2, 83280, Note_on_c, 0, 98, 0
2, 83280, Note_on_c, 0, 87, 0
2, 83280, Note_on_c, 0, 73, 0
2, 83280, Note_on_c, 0, 99, 100
2, 83520, Note_on_c, 0, 99, 0
2, 83520, Note_on_c, 0, 98, 100
2, 83520, Note_on_c, 0, 86, 100
2, 83520, Note_on_c, 0, 72, 100
2, 83760, Note_on_c, 0, 108, 0
2, 83760, Note_on_c, 0, 98, 0
2, 83760, Note_on_c, 0, 86, 0
2, 83760, Note_on_c, 0, 72, 0
2, 83970, Note_on_c, 0, 106, 0
2, 83970, Note_on_c, 0, 94, 0
2, 83970, Note_on_c, 0, 70, 0
2, 83970, Note_on_c, 0, 82, 0
2, 83970, Note_on_c, 0, 105, 100
2, 83970, Note_on_c, 0, 93, 100
2, 83970, Note_on_c, 0, 69, 100
2, 83970, Note_on_c, 0, 81, 100
2, 84000, Note_on_c, 0, 99, 100
2, 84000, Note_on_c, 0, 100, 100
2, 84000, Note_on_c, 0, 88, 100
2, 84000, Note_on_c, 0, 62, 100
2, 84000, Note_on_c, 0, 74, 100
2, 84000, Note_on_c, 0, 108, 100
2, 84240, Note_on_c, 0, 99, 0
2, 84240, Note_on_c, 0, 100, 0
2, 84240, Note_on_c, 0, 88, 0
2, 84240, Note_on_c, 0, 62, 0
2, 84240, Note_on_c, 0, 74, 0
2, 84960, Note_on_c, 0, 98, 100
2, 84960, Note_on_c, 0, 99, 100
2, 84960, Note_on_c, 0, 86, 100
2, 84960, Note_on_c, 0, 87, 100
2, 84960, Note_on_c, 0, 73, 100
2, 85200, Note_on_c, 0, 98, 0
2, 85200, Note_on_c, 0, 99, 0
2, 85200, Note_on_c, 0, 86, 0
2, 85200, Note_on_c, 0, 87, 0
2, 85200, Note_on_c, 0, 73, 0
2, 85920, Note_on_c, 0, 97, 100
2, 85920, Note_on_c, 0, 98, 100
2, 85920, Note_on_c, 0, 85, 100
2, 85920, Note_on_c, 0, 86, 100
2, 85920, Note_on_c, 0, 61, 100
2, 85920, Note_on_c, 0, 72, 100
2, 86160, Note_on_c, 0, 97, 0
2, 86160, Note_on_c, 0, 98, 0
2, 86160, Note_on_c, 0, 85, 0
2, 86160, Note_on_c, 0, 86, 0
2, 86160, Note_on_c, 0, 61, 0
2, 86160, Note_on_c, 0, 72, 0
2, 86880, Note_on_c, 0, 98, 100
2, 86880, Note_on_c, 0, 87, 100
2, 86880, Note_on_c, 0, 73, 100
2, 87120, Note_on_c, 0, 98, 0
2, 87120, Note_on_c, 0, 87, 0
2, 87120, Note_on_c, 0, 73, 0
2, 87120, Note_on_c, 0, 99, 100
2, 87360, Note_on_c, 0, 99, 0
2, 87360, Note_on_c, 0, 98, 100
2, 87360, Note_on_c, 0, 86, 100
2, 87360, Note_on_c, 0, 72, 100
2, 87600, Note_on_c, 0, 98, 0
2, 87600, Note_on_c, 0, 86, 0
2, 87600, Note_on_c, 0, 72, 0
2, 87810, Note_on_c, 0, 105, 0
2, 87810, Note_on_c, 0, 93, 0
2, 87810, Note_on_c, 0, 69, 0
2, 87810, Note_on_c, 0, 81, 0
2, 87810, Note_on_c, 0, 106, 100
2, 87810, Note_on_c, 0, 94, 100
2, 87810, Note_on_c, 0, 70, 100
2, 87810, Note_on_c, 0, 82, 100
2, 87840, Note_on_c, 0, 99, 100
2, 87840, Note_on_c, 0, 100, 100
2, 87840, Note_on_c, 0, 88, 100
2, 87840, Note_on_c, 0, 62, 100
2, 87840, Note_on_c, 0, 74, 100
2, 88080, Note_on_c, 0, 99, 0
2, 88080, Note_on_c, 0, 100, 0
2, 88080, Note_on_c, 0, 88, 0
2, 88080, Note_on_c, 0, 62, 0
2, 88080, Note_on_c, 0, 74, 0
2, 88800, Note_on_c, 0, 98, 100
2, 88800, Note_on_c, 0, 99, 100
2, 88800, Note_on_c, 0, 86, 100
2, 88800, Note_on_c, 0, 87, 100
2, 88800, Note_on_c, 0, 73, 100
2, 89040, Note_on_c, 0, 98, 0
2, 89040, Note_on_c, 0, 99, 0
2, 89040, Note_on_c, 0, 86, 0
2, 89040, Note_on_c, 0, 87, 0
2, 89040, Note_on_c, 0, 73, 0
2, 89760, Note_on_c, 0, 97, 100
2, 89760, Note_on_c, 0, 98, 100
2, 89760, Note_on_c, 0, 85, 100
2, 89760, Note_on_c, 0, 86, 100
2, 89760, Note_on_c, 0, 61, 100
2, 89760, Note_on_c, 0, 72, 100
2, 90000, Note_on_c, 0, 97, 0
2, 90000, Note_on_c, 0, 98, 0
2, 90000, Note_on_c, 0, 85, 0
2, 90000, Note_on_c, 0, 86, 0
2, 90000, Note_on_c, 0, 61, 0
2, 90000, Note_on_c, 0, 72, 0
2, 90720, Note_on_c, 0, 98, 100
2, 90720, Note_on_c, 0, 87, 100
2, 90720, Note_on_c, 0, 73, 100
2, 90960, Note_on_c, 0, 98, 0
2, 90960, Note_on_c, 0, 87, 0
2, 90960, Note_on_c, 0, 73, 0
2, 90960, Note_on_c, 0, 99, 100
2, 91200, Note_on_c, 0, 99, 0
2, 91200, Note_on_c, 0, 98, 100
2, 91200, Note_on_c, 0, 86, 100
2, 91200, Note_on_c, 0, 72, 100
2, 91440, Note_on_c, 0, 98, 0
2, 91440, Note_on_c, 0, 86, 0
2, 91440, Note_on_c, 0, 72, 0
2, 91650, Note_on_c, 0, 106, 0
2, 91650, Note_on_c, 0, 94, 0
2, 91650, Note_on_c, 0, 70, 0
2, 91650, Note_on_c, 0, 82, 0
2, 91650, Note_on_c, 0, 105, 100
2, 91650, Note_on_c, 0, 93, 100
2, 91650, Note_on_c, 0, 69, 100
2, 91650, Note_on_c, 0, 81, 100
2, 91680, Note_on_c, 0, 99, 100
2, 91680, Note_on_c, 0, 100, 100
2, 91680, Note_on_c, 0, 88, 100
2, 91680, Note_on_c, 0, 62, 100
2, 91680, Note_on_c, 0, 74, 100
2, 91920, Note_on_c, 0, 99, 0
2, 91920, Note_on_c, 0, 100, 0
2, 91920, Note_on_c, 0, 88, 0
2, 91920, Note_on_c, 0, 62, 0
2, 91920, Note_on_c, 0, 74, 0
2, 92640, Note_on_c, 0, 98, 100
2, 92640, Note_on_c, 0, 99, 100
2, 92640, Note_on_c, 0, 86, 100
2, 92640, Note_on_c, 0, 87, 100
2, 92640, Note_on_c, 0, 73, 100
2, 92880, Note_on_c, 0, 98, 0
2, 92880, Note_on_c, 0, 99, 0
2, 92880, Note_on_c, 0, 86, 0
2, 92880, Note_on_c, 0, 87, 0
2, 92880, Note_on_c, 0, 73, 0
2, 93600, Note_on_c, 0, 97, 100
2, 93600, Note_on_c, 0, 98, 100
2, 93600, Note_on_c, 0, 85, 100
2, 93600, Note_on_c, 0, 86, 100
2, 93600, Note_on_c, 0, 61, 100
2, 93600, Note_on_c, 0, 72, 100
2, 93840, Note_on_c, 0, 97, 0
2, 93840, Note_on_c, 0, 98, 0
2, 93840, Note_on_c, 0, 85, 0
2, 93840, Note_on_c, 0, 86, 0
2, 93840, Note_on_c, 0, 61, 0
2, 93840, Note_on_c, 0, 72, 0
2, 94320, Note_on_c, 0, 108, 0
2, 94530, Note_on_c, 0, 106, 100
2, 94530, Note_on_c, 0, 94, 100
2, 94530, Note_on_c, 0, 70, 100
2, 94530, Note_on_c, 0, 82, 100
2, 94560, Note_on_c, 0, 97, 100
2, 94560, Note_on_c, 0, 85, 100
2, 94560, Note_on_c, 0, 72, 100
2, 94800, Note_on_c, 0, 97, 0
2, 94800, Note_on_c, 0, 85, 0
2, 94800, Note_on_c, 0, 72, 0
2, 95040, Note_on_c, 0, 97, 100
2, 95040, Note_on_c, 0, 85, 100
2, 95040, Note_on_c, 0, 72, 100
2, 95280, Note_on_c, 0, 97, 0
2, 95280, Note_on_c, 0, 85, 0
2, 95280, Note_on_c, 0, 72, 0
2, 95490, Note_on_c, 0, 103, 100
2, 95490, Note_on_c, 0, 91, 100
2, 95490, Note_on_c, 0, 67, 100
2, 95490, Note_on_c, 0, 79, 100
2, 95520, Note_on_c, 0, 100, 100
2, 95520, Note_on_c, 0, 88, 100
2, 95520, Note_on_c, 0, 62, 100
2, 95520, Note_on_c, 0, 74, 100
2, 96480, Note_on_c, 0, 100, 0
2, 96480, Note_on_c, 0, 88, 0
2, 96480, Note_on_c, 0, 74, 0
2, 96480, Note_on_c, 0, 99, 100
2, 96480, Note_on_c, 0, 87, 100
2, 96480, Note_on_c, 0, 74, 100
2, 96720, Note_on_c, 0, 62, 0
2, 96720, Note_on_c, 0, 99, 0
2, 96720, Note_on_c, 0, 87, 0
2, 96720, Note_on_c, 0, 74, 0
2, 96960, Note_on_c, 0, 98, 100
2, 96960, Note_on_c, 0, 86, 100
2, 96960, Note_on_c, 0, 62, 100
2, 96960, Note_on_c, 0, 74, 100
2, 97200, Note_on_c, 0, 98, 0
2, 97200, Note_on_c, 0, 86, 0
2, 97200, Note_on_c, 0, 62, 0
2, 97200, Note_on_c, 0, 74, 0
2, 97440, Note_on_c, 0, 97, 100
2, 97440, Note_on_c, 0, 85, 100
2, 97440, Note_on_c, 0, 74, 100
2, 97680, Note_on_c, 0, 97, 0
2, 97680, Note_on_c, 0, 85, 0
2, 97680, Note_on_c, 0, 74, 0
2, 97920, Note_on_c, 0, 99, 100
2, 97920, Note_on_c, 0, 87, 100
2, 97920, Note_on_c, 0, 73, 100
2, 97920, Note_on_c, 0, 62, 100
2, 98160, Note_on_c, 0, 99, 0
2, 98160, Note_on_c, 0, 87, 0
2, 98160, Note_on_c, 0, 73, 0
2, 98160, Note_on_c, 0, 62, 0
2, 98400, Note_on_c, 0, 98, 100
2, 98400, Note_on_c, 0, 86, 100
2, 98400, Note_on_c, 0, 73, 100
2, 98640, Note_on_c, 0, 98, 0
2, 98640, Note_on_c, 0, 86, 0
2, 98640, Note_on_c, 0, 73, 0
2, 98880, Note_on_c, 0, 97, 100
2, 98880, Note_on_c, 0, 85, 100
2, 98880, Note_on_c, 0, 73, 100
2, 98880, Note_on_c, 0, 62, 100
2, 99120, Note_on_c, 0, 97, 0
2, 99120, Note_on_c, 0, 85, 0
2, 99120, Note_on_c, 0, 73, 0
2, 99120, Note_on_c, 0, 62, 0
2, 99360, Note_on_c, 0, 96, 100
2, 99360, Note_on_c, 0, 84, 100
2, 99360, Note_on_c, 0, 72, 100
2, 99360, Note_on_c, 0, 60, 100
2, 99600, Note_on_c, 0, 60, 0
2, 99810, Note_on_c, 0, 67, 0
2, 100770, Note_on_c, 0, 105, 0
2, 100770, Note_on_c, 0, 93, 0
2, 100770, Note_on_c, 0, 69, 0
2, 100770, Note_on_c, 0, 81, 0
2, 100770, Note_on_c, 0, 103, 0
2, 100770, Note_on_c, 0, 91, 0
2, 100770, Note_on_c, 0, 79, 0
2, 100800, Note_on_c, 0, 96, 0
2, 100800, Note_on_c, 0, 84, 0
2, 100800, Note_on_c, 0, 72, 0
2, 100800, Note_on_c, 0, 99, 100
2, 100800, Note_on_c, 0, 87, 100
2, 100800, Note_on_c, 0, 75, 100
2, 100800, Note_on_c, 0, 62, 100
2, 100800, Note_on_c, 0, 108, 100
2, 101040, Note_on_c, 0, 62, 0
2, 101760, Note_on_c, 0, 99, 0
2, 101760, Note_on_c, 0, 87, 0
2, 101760, Note_on_c, 0, 108, 0
2, 101760, Note_on_c, 0, 96, 100
2, 101760, Note_on_c, 0, 84, 100
2, 102000, Note_on_c, 0, 96, 0
2, 102000, Note_on_c, 0, 84, 0
2, 102240, Note_on_c, 0, 75, 0
2, 102240, Note_on_c, 0, 98, 100
2, 102240, Note_on_c, 0, 86, 100
2, 102240, Note_on_c, 0, 74, 100
2, 102240, Note_on_c, 0, 108, 100
2, 102960, Note_on_c, 0, 108, 0
2, 103200, Note_on_c, 0, 98, 0
2, 103200, Note_on_c, 0, 86, 0
2, 103200, Note_on_c, 0, 96, 100
2, 103200, Note_on_c, 0, 84, 100
2, 103200, Note_on_c, 0, 108, 100
2, 103440, Note_on_c, 0, 96, 0
2, 103440, Note_on_c, 0, 84, 0
2, 103440, Note_on_c, 0, 108, 0
2, 103680, Note_on_c, 0, 74, 0
2, 103680, Note_on_c, 0, 97, 100
2, 103680, Note_on_c, 0, 85, 100
2, 103680, Note_on_c, 0, 73, 100
2, 103680, Note_on_c, 0, 61, 100
2, 103680, Note_on_c, 0, 108, 100
2, 103920, Note_on_c, 0, 61, 0
2, 104640, Note_on_c, 0, 97, 0
2, 104640, Note_on_c, 0, 85, 0
2, 104640, Note_on_c, 0, 108, 0
2, 104640, Note_on_c, 0, 96, 100
2, 104640, Note_on_c, 0, 84, 100
2, 104880, Note_on_c, 0, 96, 0
2, 104880, Note_on_c, 0, 84, 0
2, 105120, Note_on_c, 0, 73, 0
2, 105120, Note_on_c, 0, 98, 100
2, 105120, Note_on_c, 0, 86, 100
2, 105120, Note_on_c, 0, 74, 100
2, 105120, Note_on_c, 0, 60, 100
2, 105120, Note_on_c, 0, 108, 100
2, 105360, Note_on_c, 0, 60, 0
2, 106080, Note_on_c, 0, 98, 0
2, 106080, Note_on_c, 0, 86, 0
2, 106080, Note_on_c, 0, 108, 0
2, 106080, Note_on_c, 0, 97, 100
2, 106080, Note_on_c, 0, 85, 100
2, 106320, Note_on_c, 0, 97, 0
2, 106320, Note_on_c, 0, 85, 0
2, 106560, Note_on_c, 0, 74, 0
2, 106560, Note_on_c, 0, 96, 100
2, 106560, Note_on_c, 0, 84, 100
2, 106560, Note_on_c, 0, 72, 100
2, 106560, Note_on_c, 0, 60, 100
2, 106560, Note_on_c, 0, 108, 100
2, 106800, Note_on_c, 0, 96, 0
2, 106800, Note_on_c, 0, 84, 0
2, 106800, Note_on_c, 0, 72, 0
2, 106800, Note_on_c, 0, 60, 0
2, 107490, Note_on_c, 0, 106, 0
2, 107490, Note_on_c, 0, 94, 0
2, 107490, Note_on_c, 0, 70, 0
2, 107490, Note_on_c, 0, 82, 0
2, 107490, Note_on_c, 0, 105, 100
2, 107490, Note_on_c, 0, 93, 100
2, 107490, Note_on_c, 0, 69, 100
2, 107490, Note_on_c, 0, 81, 100
2, 107520, Note_on_c, 0, 108, 0
2, 107520, Note_on_c, 0, 96, 100
2, 107520, Note_on_c, 0, 84, 100
2, 107520, Note_on_c, 0, 72, 100
2, 107520, Note_on_c, 0, 60, 100
2, 107760, Note_on_c, 0, 60, 0
2, 108480, Note_on_c, 0, 96, 0
2, 108480, Note_on_c, 0, 84, 0
2, 108480, Note_on_c, 0, 72, 0
2, 108480, Note_on_c, 0, 98, 100
2, 108480, Note_on_c, 0, 86, 100
2, 108480, Note_on_c, 0, 74, 100
2, 108480, Note_on_c, 0, 61, 100
2, 108480, Note_on_c, 0, 108, 100
2, 108720, Note_on_c, 0, 61, 0
2, 109440, Note_on_c, 0, 98, 0
2, 109440, Note_on_c, 0, 86, 0
2, 109440, Note_on_c, 0, 96, 100
2, 109440, Note_on_c, 0, 84, 100
2, 109680, Note_on_c, 0, 108, 0
2, 109680, Note_on_c, 0, 96, 0
2, 109680, Note_on_c, 0, 84, 0
2, 109920, Note_on_c, 0, 74, 0
2, 109920, Note_on_c, 0, 97, 100
2, 109920, Note_on_c, 0, 85, 100
2, 109920, Note_on_c, 0, 73, 100
2, 109920, Note_on_c, 0, 108, 100
2, 110880, Note_on_c, 0, 97, 0
2, 110880, Note_on_c, 0, 85, 0
2, 110880, Note_on_c, 0, 96, 100
2, 110880, Note_on_c, 0, 84, 100
2, 111120, Note_on_c, 0, 108, 0
2, 111120, Note_on_c, 0, 96, 0
2, 111120, Note_on_c, 0, 84, 0
2, 111360, Note_on_c, 0, 73, 0
2, 111360, Note_on_c, 0, 99, 100
2, 111360, Note_on_c, 0, 87, 100
2, 111360, Note_on_c, 0, 75, 100
2, 111360, Note_on_c, 0, 62, 100
2, 111360, Note_on_c, 0, 108, 100
2, 111600, Note_on_c, 0, 62, 0
2, 112290, Note_on_c, 0, 106, 100
2, 112290, Note_on_c, 0, 94, 100
2, 112290, Note_on_c, 0, 70, 100
2, 112290, Note_on_c, 0, 82, 100
2, 112320, Note_on_c, 0, 99, 0
2, 112320, Note_on_c, 0, 87, 0
2, 112320, Note_on_c, 0, 75, 0
2, 112320, Note_on_c, 0, 108, 0
2, 112800, Note_on_c, 0, 98, 100
2, 112800, Note_on_c, 0, 74, 100
2, 112800, Note_on_c, 0, 62, 100
2, 112800, Note_on_c, 0, 87, 100
2, 112800, Note_on_c, 0, 108, 100
2, 113040, Note_on_c, 0, 98, 0
2, 113040, Note_on_c, 0, 74, 0
2, 113040, Note_on_c, 0, 62, 0
2, 113040, Note_on_c, 0, 87, 0
2, 113040, Note_on_c, 0, 108, 0
2, 113040, Note_on_c, 0, 99, 100
2, 113280, Note_on_c, 0, 99, 0
2, 113280, Note_on_c, 0, 98, 100
2, 113280, Note_on_c, 0, 86, 100
2, 113280, Note_on_c, 0, 108, 100
2, 113520, Note_on_c, 0, 98, 0
2, 113520, Note_on_c, 0, 86, 0
2, 113760, Note_on_c, 0, 97, 100
2, 113760, Note_on_c, 0, 85, 100
2, 114000, Note_on_c, 0, 97, 0
2, 114000, Note_on_c, 0, 85, 0
2, 114240, Note_on_c, 0, 108, 0
2, 114240, Note_on_c, 0, 96, 100
2, 114240, Note_on_c, 0, 84, 100
2, 114240, Note_on_c, 0, 72, 100
2, 114240, Note_on_c, 0, 61, 100
2, 114480, Note_on_c, 0, 96, 0
2, 114480, Note_on_c, 0, 84, 0
2, 114480, Note_on_c, 0, 72, 0
2, 114480, Note_on_c, 0, 61, 0
2, 115170, Note_on_c, 0, 106, 0
2, 115170, Note_on_c, 0, 94, 0
2, 115170, Note_on_c, 0, 70, 0
2, 115170, Note_on_c, 0, 82, 0
2, 115200, Note_on_c, 0, 96, 100
2, 115200, Note_on_c, 0, 84, 100
2, 115200, Note_on_c, 0, 72, 100
2, 115200, Note_on_c, 0, 60, 100
2, 115440, Note_on_c, 0, 60, 0
2, 116160, Note_on_c, 0, 96, 0
2, 116160, Note_on_c, 0, 84, 0
2, 116160, Note_on_c, 0, 72, 0
2, 116160, Note_on_c, 0, 99, 100
2, 116160, Note_on_c, 0, 87, 100
2, 116160, Note_on_c, 0, 75, 100
2, 116160, Note_on_c, 0, 62, 100
2, 116160, Note_on_c, 0, 108, 100
2, 116400, Note_on_c, 0, 62, 0
2, 117120, Note_on_c, 0, 99, 0
2, 117120, Note_on_c, 0, 87, 0
2, 117120, Note_on_c, 0, 96, 100
2, 117120, Note_on_c, 0, 84, 100
2, 117360, Note_on_c, 0, 108, 0
2, 117360, Note_on_c, 0, 96, 0
2, 117360, Note_on_c, 0, 84, 0
2, 117600, Note_on_c, 0, 75, 0
2, 117600, Note_on_c, 0, 98, 100
2, 117600, Note_on_c, 0, 86, 100
2, 117600, Note_on_c, 0, 74, 100
2, 117600, Note_on_c, 0, 108, 100
2, 118560, Note_on_c, 0, 98, 0
2, 118560, Note_on_c, 0, 86, 0
2, 118560, Note_on_c, 0, 108, 0
2, 118560, Note_on_c, 0, 96, 100
2, 118560, Note_on_c, 0, 84, 100
2, 118800, Note_on_c, 0, 96, 0
2, 118800, Note_on_c, 0, 84, 0
2, 119040, Note_on_c, 0, 74, 0
2, 119040, Note_on_c, 0, 97, 100
2, 119040, Note_on_c, 0, 85, 100
2, 119040, Note_on_c, 0, 73, 100
2, 119040, Note_on_c, 0, 61, 100
2, 119040, Note_on_c, 0, 108, 100
2, 119280, Note_on_c, 0, 61, 0
2, 119280, Note_on_c, 0, 108, 0
2, 119520, Note_on_c, 0, 108, 100
2, 120000, Note_on_c, 0, 97, 0
2, 120000, Note_on_c, 0, 85, 0
2, 120000, Note_on_c, 0, 108, 0
2, 120000, Note_on_c, 0, 96, 100
2, 120000, Note_on_c, 0, 84, 100
2, 120240, Note_on_c, 0, 96, 0
2, 120240, Note_on_c, 0, 84, 0
2, 120480, Note_on_c, 0, 73, 0
2, 120480, Note_on_c, 0, 98, 100
2, 120480, Note_on_c, 0, 86, 100
2, 120480, Note_on_c, 0, 74, 100
2, 120480, Note_on_c, 0, 60, 100
2, 120480, Note_on_c, 0, 108, 100
2, 120720, Note_on_c, 0, 60, 0
2, 121440, Note_on_c, 0, 98, 0
2, 121440, Note_on_c, 0, 86, 0
2, 121440, Note_on_c, 0, 97, 100
2, 121440, Note_on_c, 0, 85, 100
2, 121680, Note_on_c, 0, 97, 0
2, 121680, Note_on_c, 0, 85, 0
2, 121920, Note_on_c, 0, 74, 0
2, 121920, Note_on_c, 0, 108, 0
2, 121920, Note_on_c, 0, 96, 100
2, 121920, Note_on_c, 0, 84, 100
2, 121920, Note_on_c, 0, 72, 100
2, 121920, Note_on_c, 0, 60, 100
2, 122160, Note_on_c, 0, 96, 0
2, 122160, Note_on_c, 0, 84, 0
2, 122160, Note_on_c, 0, 72, 0
2, 122160, Note_on_c, 0, 60, 0
2, 122850, Note_on_c, 0, 105, 0
2, 122850, Note_on_c, 0, 93, 0
2, 122850, Note_on_c, 0, 69, 0
2, 122850, Note_on_c, 0, 81, 0
2, 122850, Note_on_c, 0, 106, 100
2, 122850, Note_on_c, 0, 94, 100
2, 122850, Note_on_c, 0, 70, 100
2, 122850, Note_on_c, 0, 82, 100
2, 122880, Note_on_c, 0, 96, 100
2, 122880, Note_on_c, 0, 84, 100
2, 122880, Note_on_c, 0, 72, 100
2, 122880, Note_on_c, 0, 60, 100
2, 123120, Note_on_c, 0, 60, 0
2, 123840, Note_on_c, 0, 96, 0
2, 123840, Note_on_c, 0, 84, 0
2, 123840, Note_on_c, 0, 72, 0
2, 123840, Note_on_c, 0, 98, 100
2, 123840, Note_on_c, 0, 86, 100
2, 123840, Note_on_c, 0, 74, 100
2, 123840, Note_on_c, 0, 61, 100
2, 123840, Note_on_c, 0, 108, 100
2, 124080, Note_on_c, 0, 61, 0
2, 124800, Note_on_c, 0, 98, 0
2, 124800, Note_on_c, 0, 86, 0
2, 124800, Note_on_c, 0, 108, 0
2, 124800, Note_on_c, 0, 96, 100
2, 124800, Note_on_c, 0, 84, 100
2, 125040, Note_on_c, 0, 96, 0
2, 125040, Note_on_c, 0, 84, 0
2, 125280, Note_on_c, 0, 74, 0
2, 125280, Note_on_c, 0, 97, 100
2, 125280, Note_on_c, 0, 85, 100
2, 125280, Note_on_c, 0, 73, 100
2, 125280, Note_on_c, 0, 108, 100
2, 126000, Note_on_c, 0, 108, 0
2, 126240, Note_on_c, 0, 97, 0
2, 126240, Note_on_c, 0, 85, 0
2, 126240, Note_on_c, 0, 96, 100
2, 126240, Note_on_c, 0, 84, 100
2, 126240, Note_on_c, 0, 108, 100
2, 126480, Note_on_c, 0, 96, 0
2, 126480, Note_on_c, 0, 84, 0
2, 126480, Note_on_c, 0, 108, 0
2, 126690, Note_on_c, 0, 103, 100
2, 126690, Note_on_c, 0, 105, 100
2, 126690, Note_on_c, 0, 91, 100
2, 126690, Note_on_c, 0, 93, 100
2, 126690, Note_on_c, 0, 67, 100
2, 126690, Note_on_c, 0, 69, 100
2, 126690, Note_on_c, 0, 79, 100
2, 126690, Note_on_c, 0, 81, 100
2, 126720, Note_on_c, 0, 73, 0
2, 126720, Note_on_c, 0, 98, 100
2, 126720, Note_on_c, 0, 86, 100
2, 126720, Note_on_c, 0, 74, 100
2, 126720, Note_on_c, 0, 62, 100
2, 126720, Note_on_c, 0, 108, 100
2, 126960, Note_on_c, 0, 98, 0
2, 126960, Note_on_c, 0, 86, 0
2, 126960, Note_on_c, 0, 74, 0
2, 126960, Note_on_c, 0, 62, 0
2, 126960, Note_on_c, 0, 108, 0
2, 127200, Note_on_c, 0, 98, 100
2, 127200, Note_on_c, 0, 86, 100
2, 127200, Note_on_c, 0, 74, 100
2, 127200, Note_on_c, 0, 108, 100
2, 127440, Note_on_c, 0, 98, 0
2, 127440, Note_on_c, 0, 86, 0
2, 127440, Note_on_c, 0, 74, 0
2, 127440, Note_on_c, 0, 108, 0
2, 127680, Note_on_c, 0, 98, 100
2, 127680, Note_on_c, 0, 86, 100
2, 127680, Note_on_c, 0, 74, 100
2, 127680, Note_on_c, 0, 62, 100
2, 127680, Note_on_c, 0, 108, 100
2, 127920, Note_on_c, 0, 98, 0
2, 127920, Note_on_c, 0, 86, 0
2, 127920, Note_on_c, 0, 74, 0
2, 127920, Note_on_c, 0, 62, 0
2, 128160, Note_on_c, 0, 98, 100
2, 128160, Note_on_c, 0, 86, 100
2, 128160, Note_on_c, 0, 74, 100
2, 128400, Note_on_c, 0, 98, 0
2, 128400, Note_on_c, 0, 86, 0
2, 128400, Note_on_c, 0, 74, 0
2, 128640, Note_on_c, 0, 98, 100
2, 128640, Note_on_c, 0, 74, 100
2, 128640, Note_on_c, 0, 86, 100
2, 128640, Note_on_c, 0, 84, 100
2, 128640, Note_on_c, 0, 96, 100
2, 128640, Note_on_c, 0, 72, 100
2, 128640, Note_on_c, 0, 62, 100
2, 128640, Note_on_c, 0, 61, 100
2, 128880, Note_on_c, 0, 108, 0
2, 129360, Note_on_c, 0, 108, 100
2, 129600, Note_on_c, 0, 108, 0
2, 129840, Note_on_c, 0, 108, 100
2, 130080, Note_on_c, 0, 108, 0
2, 130320, Note_on_c, 0, 98, 0
2, 130320, Note_on_c, 0, 74, 0
2, 130320, Note_on_c, 0, 86, 0
2, 130320, Note_on_c, 0, 84, 0
2, 130320, Note_on_c, 0, 96, 0
2, 130320, Note_on_c, 0, 72, 0
2, 130320, Note_on_c, 0, 62, 0
2, 130320, Note_on_c, 0, 61, 0
2, 130530, Note_on_c, 0, 106, 0
2, 130530, Note_on_c, 0, 94, 0
2, 130530, Note_on_c, 0, 70, 0
2, 130530, Note_on_c, 0, 82, 0
2, 130530, Note_on_c, 0, 103, 0
2, 130530, Note_on_c, 0, 91, 0
2, 130530, Note_on_c, 0, 67, 0
2, 130530, Note_on_c, 0, 79, 0
2, 130560, Note_on_c, 0, 97, 100
2, 130560, Note_on_c, 0, 98, 100
2, 130560, Note_on_c, 0, 85, 100
2, 130560, Note_on_c, 0, 86, 100
2, 130560, Note_on_c, 0, 73, 100
2, 130560, Note_on_c, 0, 61, 100
2, 130560, Note_on_c, 0, 108, 100
2, 130800, Note_on_c, 0, 97, 0
2, 130800, Note_on_c, 0, 98, 0
2, 130800, Note_on_c, 0, 85, 0
2, 130800, Note_on_c, 0, 86, 0
2, 130800, Note_on_c, 0, 73, 0
2, 130800, Note_on_c, 0, 61, 0
2, 131040, Note_on_c, 0, 96, 100
2, 131040, Note_on_c, 0, 97, 100
2, 131040, Note_on_c, 0, 84, 100
2, 131040, Note_on_c, 0, 85, 100
2, 131040, Note_on_c, 0, 72, 100
2, 131280, Note_on_c, 0, 96, 0
2, 131280, Note_on_c, 0, 97, 0
2, 131280, Note_on_c, 0, 84, 0
2, 131280, Note_on_c, 0, 85, 0
2, 131280, Note_on_c, 0, 72, 0
2, 131760, Note_on_c, 0, 108, 0
2, 132000, Note_on_c, 0, 96, 100
2, 132000, Note_on_c, 0, 97, 100
2, 132000, Note_on_c, 0, 84, 100
2, 132000, Note_on_c, 0, 85, 100
2, 132000, Note_on_c, 0, 72, 100
2, 132000, Note_on_c, 0, 60, 100
2, 132000, Note_on_c, 0, 108, 100
2, 132240, Note_on_c, 0, 96, 0
2, 132240, Note_on_c, 0, 97, 0
2, 132240, Note_on_c, 0, 84, 0
2, 132240, Note_on_c, 0, 85, 0
2, 132240, Note_on_c, 0, 72, 0
2, 132240, Note_on_c, 0, 60, 0
2, 133410, Note_on_c, 0, 105, 0
2, 133410, Note_on_c, 0, 93, 0
2, 133410, Note_on_c, 0, 69, 0
2, 133410, Note_on_c, 0, 81, 0
2, 133410, Note_on_c, 0, 106, 100
2, 133410, Note_on_c, 0, 94, 100
2, 133410, Note_on_c, 0, 70, 100
2, 133410, Note_on_c, 0, 82, 100
2, 133440, Note_on_c, 0, 108, 0
2, 134400, Note_on_c, 0, 97, 100
2, 134400, Note_on_c, 0, 98, 100
2, 134400, Note_on_c, 0, 85, 100
2, 134400, Note_on_c, 0, 86, 100
2, 134400, Note_on_c, 0, 73, 100
2, 134400, Note_on_c, 0, 61, 100
2, 134640, Note_on_c, 0, 97, 0
2, 134640, Note_on_c, 0, 98, 0
2, 134640, Note_on_c, 0, 85, 0
2, 134640, Note_on_c, 0, 86, 0
2, 134640, Note_on_c, 0, 73, 0
2, 134640, Note_on_c, 0, 61, 0
2, 134880, Note_on_c, 0, 96, 100
2, 134880, Note_on_c, 0, 97, 100
2, 134880, Note_on_c, 0, 84, 100
2, 134880, Note_on_c, 0, 85, 100
2, 134880, Note_on_c, 0, 72, 100
2, 135120, Note_on_c, 0, 96, 0
2, 135120, Note_on_c, 0, 97, 0
2, 135120, Note_on_c, 0, 84, 0
2, 135120, Note_on_c, 0, 85, 0
2, 135120, Note_on_c, 0, 72, 0
2, 135840, Note_on_c, 0, 96, 100
2, 135840, Note_on_c, 0, 97, 100
2, 135840, Note_on_c, 0, 84, 100
2, 135840, Note_on_c, 0, 85, 100
2, 135840, Note_on_c, 0, 72, 100
2, 135840, Note_on_c, 0, 60, 100
2, 136080, Note_on_c, 0, 96, 0
2, 136080, Note_on_c, 0, 97, 0
2, 136080, Note_on_c, 0, 84, 0
2, 136080, Note_on_c, 0, 85, 0
2, 136080, Note_on_c, 0, 72, 0
2, 136080, Note_on_c, 0, 60, 0
2, 136290, Note_on_c, 0, 105, 100
2, 136290, Note_on_c, 0, 93, 100
2, 136290, Note_on_c, 0, 69, 100
2, 136290, Note_on_c, 0, 81, 100
2, 136800, Note_on_c, 0, 98, 100
2, 136800, Note_on_c, 0, 86, 100
2, 136800, Note_on_c, 0, 73, 100
2, 136800, Note_on_c, 0, 62, 100
2, 137040, Note_on_c, 0, 98, 0
2, 137040, Note_on_c, 0, 86, 0
2, 137040, Note_on_c, 0, 73, 0
2, 137040, Note_on_c, 0, 62, 0
2, 137280, Note_on_c, 0, 99, 100
2, 137280, Note_on_c, 0, 87, 100
2, 137280, Note_on_c, 0, 74, 100
2, 137520, Note_on_c, 0, 99, 0
2, 137520, Note_on_c, 0, 87, 0
2, 137520, Note_on_c, 0, 74, 0
2, 137760, Note_on_c, 0, 98, 100
2, 137760, Note_on_c, 0, 86, 100
2, 137760, Note_on_c, 0, 73, 100
2, 138000, Note_on_c, 0, 98, 0
2, 138000, Note_on_c, 0, 86, 0
2, 138000, Note_on_c, 0, 73, 0
2, 138210, Note_on_c, 0, 106, 0
2, 138210, Note_on_c, 0, 94, 0
2, 138210, Note_on_c, 0, 70, 0
2, 138210, Note_on_c, 0, 82, 0
2, 138240, Note_on_c, 0, 97, 100
2, 138240, Note_on_c, 0, 98, 100
2, 138240, Note_on_c, 0, 85, 100
2, 138240, Note_on_c, 0, 86, 100
2, 138240, Note_on_c, 0, 73, 100
2, 138240, Note_on_c, 0, 61, 100
2, 138480, Note_on_c, 0, 97, 0
2, 138480, Note_on_c, 0, 98, 0
2, 138480, Note_on_c, 0, 85, 0
2, 138480, Note_on_c, 0, 86, 0
2, 138480, Note_on_c, 0, 73, 0
2, 138480, Note_on_c, 0, 61, 0
2, 138720, Note_on_c, 0, 96, 100
2, 138720, Note_on_c, 0, 97, 100
2, 138720, Note_on_c, 0, 84, 100
2, 138720, Note_on_c, 0, 85, 100
2, 138720, Note_on_c, 0, 72, 100
2, 138960, Note_on_c, 0, 96, 0
2, 138960, Note_on_c, 0, 97, 0
2, 138960, Note_on_c, 0, 84, 0
2, 138960, Note_on_c, 0, 85, 0
2, 138960, Note_on_c, 0, 72, 0
2, 139680, Note_on_c, 0, 96, 100
2, 139680, Note_on_c, 0, 97, 100
2, 139680, Note_on_c, 0, 84, 100
2, 139680, Note_on_c, 0, 85, 100
2, 139680, Note_on_c, 0, 72, 100
2, 139680, Note_on_c, 0, 60, 100
2, 139920, Note_on_c, 0, 96, 0
2, 139920, Note_on_c, 0, 97, 0
2, 139920, Note_on_c, 0, 84, 0
2, 139920, Note_on_c, 0, 85, 0
2, 139920, Note_on_c, 0, 72, 0
2, 139920, Note_on_c, 0, 60, 0
2, 140640, Note_on_c, 0, 108, 100
2, 142080, Note_on_c, 0, 108, 0
2, 142320, Note_on_c, 0, 108, 100
2, 142560, Note_on_c, 0, 108, 0
2, 143040, Note_on_c, 0, 108, 100
2, 143280, Note_on_c, 0, 108, 0
2, 143760, Note_on_c, 0, 108, 100
2, 143970, Note_on_c, 0, 105, 0
2, 143970, Note_on_c, 0, 93, 0
2, 143970, Note_on_c, 0, 69, 0
2, 143970, Note_on_c, 0, 81, 0
2, 143970, Note_on_c, 0, 106, 100
2, 143970, Note_on_c, 0, 94, 100
2, 143970, Note_on_c, 0, 70, 100
2, 143970, Note_on_c, 0, 82, 100
2, 144240, Note_on_c, 0, 108, 0
2, 144480, Note_on_c, 0, 108, 100
2, 144960, Note_on_c, 0, 108, 0
2, 145200, Note_on_c, 0, 108, 100
2, 145920, Note_on_c, 0, 97, 100
2, 145920, Note_on_c, 0, 98, 100
2, 145920, Note_on_c, 0, 85, 100
2, 145920, Note_on_c, 0, 86, 100
2, 145920, Note_on_c, 0, 73, 100
2, 145920, Note_on_c, 0, 61, 100
2, 146160, Note_on_c, 0, 108, 0
2, 146160, Note_on_c, 0, 97, 0
2, 146160, Note_on_c, 0, 98, 0
2, 146160, Note_on_c, 0, 85, 0
2, 146160, Note_on_c, 0, 86, 0
2, 146160, Note_on_c, 0, 73, 0
2, 146160, Note_on_c, 0, 61, 0
2, 146400, Note_on_c, 0, 96, 100
2, 146400, Note_on_c, 0, 97, 100
2, 146400, Note_on_c, 0, 84, 100
2, 146400, Note_on_c, 0, 85, 100
2, 146400, Note_on_c, 0, 72, 100
2, 146640, Note_on_c, 0, 96, 0
2, 146640, Note_on_c, 0, 97, 0
2, 146640, Note_on_c, 0, 84, 0
2, 146640, Note_on_c, 0, 85, 0
2, 146640, Note_on_c, 0, 72, 0
2, 147360, Note_on_c, 0, 96, 100
2, 147360, Note_on_c, 0, 97, 100
2, 147360, Note_on_c, 0, 84, 100
2, 147360, Note_on_c, 0, 85, 100
2, 147360, Note_on_c, 0, 72, 100
2, 147360, Note_on_c, 0, 60, 100
2, 147600, Note_on_c, 0, 96, 0
2, 147600, Note_on_c, 0, 97, 0
2, 147600, Note_on_c, 0, 84, 0
2, 147600, Note_on_c, 0, 85, 0
2, 147600, Note_on_c, 0, 72, 0
2, 147600, Note_on_c, 0, 60, 0
2, 149250, Note_on_c, 0, 106, 0
2, 149250, Note_on_c, 0, 94, 0
2, 149250, Note_on_c, 0, 70, 0
2, 149250, Note_on_c, 0, 82, 0
2, 149250, Note_on_c, 0, 105, 100
2, 149250, Note_on_c, 0, 93, 100
2, 149250, Note_on_c, 0, 69, 100
2, 149250, Note_on_c, 0, 81, 100
2, 149760, Note_on_c, 0, 97, 100
2, 149760, Note_on_c, 0, 98, 100
2, 149760, Note_on_c, 0, 85, 100
2, 149760, Note_on_c, 0, 86, 100
2, 149760, Note_on_c, 0, 73, 100
2, 149760, Note_on_c, 0, 61, 100
2, 150000, Note_on_c, 0, 97, 0
2, 150000, Note_on_c, 0, 98, 0
2, 150000, Note_on_c, 0, 85, 0
2, 150000, Note_on_c, 0, 86, 0
2, 150000, Note_on_c, 0, 73, 0
2, 150000, Note_on_c, 0, 61, 0
2, 150240, Note_on_c, 0, 96, 100
2, 150240, Note_on_c, 0, 97, 100
2, 150240, Note_on_c, 0, 84, 100
2, 150240, Note_on_c, 0, 85, 100
2, 150240, Note_on_c, 0, 72, 100
2, 150480, Note_on_c, 0, 96, 0
2, 150480, Note_on_c, 0, 97, 0
2, 150480, Note_on_c, 0, 84, 0
2, 150480, Note_on_c, 0, 85, 0
2, 150480, Note_on_c, 0, 72, 0
2, 151200, Note_on_c, 0, 96, 100
2, 151200, Note_on_c, 0, 97, 100
2, 151200, Note_on_c, 0, 84, 100
2, 151200, Note_on_c, 0, 85, 100
2, 151200, Note_on_c, 0, 72, 100
2, 151200, Note_on_c, 0, 60, 100
2, 151440, Note_on_c, 0, 96, 0
2, 151440, Note_on_c, 0, 97, 0
2, 151440, Note_on_c, 0, 84, 0
2, 151440, Note_on_c, 0, 85, 0
2, 151440, Note_on_c, 0, 72, 0
2, 151440, Note_on_c, 0, 60, 0
2, 151650, Note_on_c, 0, 106, 100
2, 151650, Note_on_c, 0, 94, 100
2, 151650, Note_on_c, 0, 70, 100
2, 151650, Note_on_c, 0, 82, 100
2, 152160, Note_on_c, 0, 98, 100
2, 152160, Note_on_c, 0, 86, 100
2, 152160, Note_on_c, 0, 73, 100
2, 152160, Note_on_c, 0, 62, 100
2, 152400, Note_on_c, 0, 98, 0
2, 152400, Note_on_c, 0, 86, 0
2, 152400, Note_on_c, 0, 73, 0
2, 152400, Note_on_c, 0, 62, 0
2, 152640, Note_on_c, 0, 99, 100
2, 152640, Note_on_c, 0, 87, 100
2, 152640, Note_on_c, 0, 74, 100
2, 152880, Note_on_c, 0, 99, 0
2, 152880, Note_on_c, 0, 87, 0
2, 152880, Note_on_c, 0, 74, 0
2, 153120, Note_on_c, 0, 98, 100
2, 153120, Note_on_c, 0, 86, 100
2, 153120, Note_on_c, 0, 73, 100
2, 153360, Note_on_c, 0, 98, 0
2, 153360, Note_on_c, 0, 86, 0
2, 153360, Note_on_c, 0, 73, 0
2, 153570, Note_on_c, 0, 105, 0
2, 153570, Note_on_c, 0, 93, 0
2, 153570, Note_on_c, 0, 69, 0
2, 153570, Note_on_c, 0, 81, 0
2, 153600, Note_on_c, 0, 97, 100
2, 153600, Note_on_c, 0, 98, 100
2, 153600, Note_on_c, 0, 85, 100
2, 153600, Note_on_c, 0, 86, 100
2, 153600, Note_on_c, 0, 73, 100
2, 153600, Note_on_c, 0, 61, 100
2, 153840, Note_on_c, 0, 97, 0
2, 153840, Note_on_c, 0, 98, 0
2, 153840, Note_on_c, 0, 85, 0
2, 153840, Note_on_c, 0, 86, 0
2, 153840, Note_on_c, 0, 73, 0
2, 153840, Note_on_c, 0, 61, 0
2, 154080, Note_on_c, 0, 96, 100
2, 154080, Note_on_c, 0, 97, 100
2, 154080, Note_on_c, 0, 84, 100
2, 154080, Note_on_c, 0, 85, 100
2, 154080, Note_on_c, 0, 72, 100
2, 154320, Note_on_c, 0, 96, 0
2, 154320, Note_on_c, 0, 97, 0
2, 154320, Note_on_c, 0, 84, 0
2, 154320, Note_on_c, 0, 85, 0
2, 154320, Note_on_c, 0, 72, 0
2, 155040, Note_on_c, 0, 96, 100
2, 155040, Note_on_c, 0, 97, 100
2, 155040, Note_on_c, 0, 84, 100
2, 155040, Note_on_c, 0, 85, 100
2, 155040, Note_on_c, 0, 72, 100
2, 155040, Note_on_c, 0, 60, 100
2, 155280, Note_on_c, 0, 96, 0
2, 155280, Note_on_c, 0, 97, 0
2, 155280, Note_on_c, 0, 84, 0
2, 155280, Note_on_c, 0, 85, 0
2, 155280, Note_on_c, 0, 72, 0
2, 155280, Note_on_c, 0, 60, 0
2, 156720, Note_on_c, 0, 108, 100
2, 156960, Note_on_c, 0, 108, 0
2, 157200, Note_on_c, 0, 108, 100
2, 157680, Note_on_c, 0, 108, 0
2, 158160, Note_on_c, 0, 108, 100
2, 158400, Note_on_c, 0, 108, 0
2, 158880, Note_on_c, 0, 108, 100
2, 159600, Note_on_c, 0, 108, 0
2, 159840, Note_on_c, 0, 108, 100
2, 160290, Note_on_c, 0, 106, 0
2, 160290, Note_on_c, 0, 94, 0
2, 160290, Note_on_c, 0, 70, 0
2, 160290, Note_on_c, 0, 82, 0
2, 160770, Note_on_c, 0, 105, 100
2, 160770, Note_on_c, 0, 93, 100
2, 160770, Note_on_c, 0, 69, 100
2, 160770, Note_on_c, 0, 81, 100
2, 161280, Note_on_c, 0, 97, 100
2, 161280, Note_on_c, 0, 98, 100
2, 161280, Note_on_c, 0, 85, 100
2, 161280, Note_on_c, 0, 86, 100
2, 161280, Note_on_c, 0, 73, 100
2, 161280, Note_on_c, 0, 61, 100
2, 161520, Note_on_c, 0, 97, 0
2, 161520, Note_on_c, 0, 98, 0
2, 161520, Note_on_c, 0, 85, 0
2, 161520, Note_on_c, 0, 86, 0
2, 161520, Note_on_c, 0, 73, 0
2, 161520, Note_on_c, 0, 61, 0
2, 161760, Note_on_c, 0, 108, 0
2, 161760, Note_on_c, 0, 96, 100
2, 161760, Note_on_c, 0, 97, 100
2, 161760, Note_on_c, 0, 84, 100
2, 161760, Note_on_c, 0, 85, 100
2, 161760, Note_on_c, 0, 72, 100
2, 162000, Note_on_c, 0, 96, 0
2, 162000, Note_on_c, 0, 97, 0
2, 162000, Note_on_c, 0, 84, 0
2, 162000, Note_on_c, 0, 85, 0
2, 162000, Note_on_c, 0, 72, 0
2, 162720, Note_on_c, 0, 96, 100
2, 162720, Note_on_c, 0, 97, 100
2, 162720, Note_on_c, 0, 84, 100
2, 162720, Note_on_c, 0, 85, 100
2, 162720, Note_on_c, 0, 72, 100
2, 162720, Note_on_c, 0, 60, 100
2, 162960, Note_on_c, 0, 96, 0
2, 162960, Note_on_c, 0, 97, 0
2, 162960, Note_on_c, 0, 84, 0
2, 162960, Note_on_c, 0, 85, 0
2, 162960, Note_on_c, 0, 72, 0
2, 162960, Note_on_c, 0, 60, 0
2, 164130, Note_on_c, 0, 105, 0
2, 164130, Note_on_c, 0, 93, 0
2, 164130, Note_on_c, 0, 69, 0
2, 164130, Note_on_c, 0, 81, 0
2, 164130, Note_on_c, 0, 106, 100
2, 164130, Note_on_c, 0, 94, 100
2, 164130, Note_on_c, 0, 70, 100
2, 164130, Note_on_c, 0, 82, 100
2, 165120, Note_on_c, 0, 97, 100
2, 165120, Note_on_c, 0, 98, 100
2, 165120, Note_on_c, 0, 85, 100
2, 165120, Note_on_c, 0, 86, 100
2, 165120, Note_on_c, 0, 73, 100
2, 165120, Note_on_c, 0, 61, 100
2, 165360, Note_on_c, 0, 97, 0
2, 165360, Note_on_c, 0, 98, 0
2, 165360, Note_on_c, 0, 85, 0
2, 165360, Note_on_c, 0, 86, 0
2, 165360, Note_on_c, 0, 73, 0
2, 165360, Note_on_c, 0, 61, 0
2, 165600, Note_on_c, 0, 96, 100
2, 165600, Note_on_c, 0, 97, 100
2, 165600, Note_on_c, 0, 84, 100
2, 165600, Note_on_c, 0, 85, 100
2, 165600, Note_on_c, 0, 72, 100
2, 165840, Note_on_c, 0, 96, 0
2, 165840, Note_on_c, 0, 97, 0
2, 165840, Note_on_c, 0, 84, 0
2, 165840, Note_on_c, 0, 85, 0
2, 165840, Note_on_c, 0, 72, 0
2, 166560, Note_on_c, 0, 96, 100
2, 166560, Note_on_c, 0, 97, 100
2, 166560, Note_on_c, 0, 84, 100
2, 166560, Note_on_c, 0, 85, 100
2, 166560, Note_on_c, 0, 72, 100
2, 166560, Note_on_c, 0, 60, 100
2, 166800, Note_on_c, 0, 96, 0
2, 166800, Note_on_c, 0, 97, 0
2, 166800, Note_on_c, 0, 84, 0
2, 166800, Note_on_c, 0, 85, 0
2, 166800, Note_on_c, 0, 72, 0
2, 166800, Note_on_c, 0, 60, 0
2, 167010, Note_on_c, 0, 105, 100
2, 167010, Note_on_c, 0, 103, 100
2, 167010, Note_on_c, 0, 93, 100
2, 167010, Note_on_c, 0, 91, 100
2, 167010, Note_on_c, 0, 69, 100
2, 167010, Note_on_c, 0, 81, 100
2, 167010, Note_on_c, 0, 79, 100
2, 167520, Note_on_c, 0, 98, 100
2, 167520, Note_on_c, 0, 86, 100
2, 167520, Note_on_c, 0, 73, 100
2, 167520, Note_on_c, 0, 62, 100
2, 167760, Note_on_c, 0, 98, 0
2, 167760, Note_on_c, 0, 86, 0
2, 167760, Note_on_c, 0, 73, 0
2, 167760, Note_on_c, 0, 62, 0
2, 168000, Note_on_c, 0, 99, 100
2, 168000, Note_on_c, 0, 87, 100
2, 168000, Note_on_c, 0, 74, 100
2, 168240, Note_on_c, 0, 99, 0
2, 168240, Note_on_c, 0, 87, 0
2, 168240, Note_on_c, 0, 74, 0
2, 168480, Note_on_c, 0, 98, 100
2, 168480, Note_on_c, 0, 86, 100
2, 168480, Note_on_c, 0, 73, 100
2, 168720, Note_on_c, 0, 98, 0
2, 168720, Note_on_c, 0, 86, 0
2, 168720, Note_on_c, 0, 73, 0
2, 168930, Note_on_c, 0, 106, 0
2, 168930, Note_on_c, 0, 94, 0
2, 168930, Note_on_c, 0, 70, 0
2, 168930, Note_on_c, 0, 82, 0
2, 168930, Note_on_c, 0, 103, 0
2, 168930, Note_on_c, 0, 91, 0
2, 168930, Note_on_c, 0, 79, 0
2, 168930, Note_on_c, 0, 67, 100
2, 168960, Note_on_c, 0, 97, 100
2, 168960, Note_on_c, 0, 98, 100
2, 168960, Note_on_c, 0, 85, 100
2, 168960, Note_on_c, 0, 86, 100
2, 168960, Note_on_c, 0, 73, 100
2, 168960, Note_on_c, 0, 61, 100
2, 169200, Note_on_c, 0, 97, 0
2, 169200, Note_on_c, 0, 98, 0
2, 169200, Note_on_c, 0, 85, 0
2, 169200, Note_on_c, 0, 86, 0
2, 169200, Note_on_c, 0, 73, 0
2, 169200, Note_on_c, 0, 61, 0
2, 169440, Note_on_c, 0, 96, 100
2, 169440, Note_on_c, 0, 97, 100
2, 169440, Note_on_c, 0, 84, 100
2, 169440, Note_on_c, 0, 85, 100
2, 169440, Note_on_c, 0, 72, 100
2, 169680, Note_on_c, 0, 96, 0
2, 169680, Note_on_c, 0, 97, 0
2, 169680, Note_on_c, 0, 84, 0
2, 169680, Note_on_c, 0, 85, 0
2, 169680, Note_on_c, 0, 72, 0
2, 170400, Note_on_c, 0, 96, 100
2, 170400, Note_on_c, 0, 97, 100
2, 170400, Note_on_c, 0, 84, 100
2, 170400, Note_on_c, 0, 85, 100
2, 170400, Note_on_c, 0, 72, 100
2, 170400, Note_on_c, 0, 60, 100
2, 170640, Note_on_c, 0, 96, 0
2, 170640, Note_on_c, 0, 97, 0
2, 170640, Note_on_c, 0, 84, 0
2, 170640, Note_on_c, 0, 85, 0
2, 170640, Note_on_c, 0, 72, 0
2, 170640, Note_on_c, 0, 60, 0
2, 170850, Note_on_c, 0, 67, 0
2, 171120, Note_on_c, 0, 108, 100
2, 171600, Note_on_c, 0, 108, 0
2, 171840, Note_on_c, 0, 108, 100
2, 172080, Note_on_c, 0, 108, 0
2, 172320, Note_on_c, 0, 108, 100
2, 172800, Note_on_c, 0, 108, 0
2, 173040, Note_on_c, 0, 108, 100
2, 173760, Note_on_c, 0, 108, 0
2, 174000, Note_on_c, 0, 108, 100
2, 174480, Note_on_c, 0, 108, 0
2, 174720, Note_on_c, 0, 108, 100
2, 175650, Note_on_c, 0, 105, 0
2, 175650, Note_on_c, 0, 93, 0
2, 175650, Note_on_c, 0, 69, 0
2, 175650, Note_on_c, 0, 81, 0
2, 175650, Note_on_c, 0, 106, 100
2, 175650, Note_on_c, 0, 94, 100
2, 175650, Note_on_c, 0, 70, 100
2, 175650, Note_on_c, 0, 82, 100
2, 176640, Note_on_c, 0, 97, 100
2, 176640, Note_on_c, 0, 98, 100
2, 176640, Note_on_c, 0, 85, 100
2, 176640, Note_on_c, 0, 86, 100
2, 176640, Note_on_c, 0, 73, 100
2, 176640, Note_on_c, 0, 61, 100
2, 176880, Note_on_c, 0, 97, 0
2, 176880, Note_on_c, 0, 98, 0
2, 176880, Note_on_c, 0, 85, 0
2, 176880, Note_on_c, 0, 86, 0
2, 176880, Note_on_c, 0, 73, 0
2, 176880, Note_on_c, 0, 61, 0
2, 177120, Note_on_c, 0, 96, 100
2, 177120, Note_on_c, 0, 97, 100
2, 177120, Note_on_c, 0, 84, 100
2, 177120, Note_on_c, 0, 85, 100
2, 177120, Note_on_c, 0, 72, 100
2, 177360, Note_on_c, 0, 108, 0
2, 177360, Note_on_c, 0, 96, 0
2, 177360, Note_on_c, 0, 97, 0
2, 177360, Note_on_c, 0, 84, 0
2, 177360, Note_on_c, 0, 85, 0
2, 177360, Note_on_c, 0, 72, 0
2, 178080, Note_on_c, 0, 96, 100
2, 178080, Note_on_c, 0, 97, 100
2, 178080, Note_on_c, 0, 84, 100
2, 178080, Note_on_c, 0, 85, 100
2, 178080, Note_on_c, 0, 72, 100
2, 178080, Note_on_c, 0, 60, 100
2, 178320, Note_on_c, 0, 96, 0
2, 178320, Note_on_c, 0, 97, 0
2, 178320, Note_on_c, 0, 84, 0
2, 178320, Note_on_c, 0, 85, 0
2, 178320, Note_on_c, 0, 72, 0
2, 178320, Note_on_c, 0, 60, 0
2, 179490, Note_on_c, 0, 106, 0
2, 179490, Note_on_c, 0, 94, 0
2, 179490, Note_on_c, 0, 70, 0
2, 179490, Note_on_c, 0, 82, 0
2, 179490, Note_on_c, 0, 105, 100
2, 179490, Note_on_c, 0, 93, 100
2, 179490, Note_on_c, 0, 69, 100
2, 179490, Note_on_c, 0, 81, 100
2, 180480, Note_on_c, 0, 97, 100
2, 180480, Note_on_c, 0, 98, 100
2, 180480, Note_on_c, 0, 85, 100
2, 180480, Note_on_c, 0, 86, 100
2, 180480, Note_on_c, 0, 73, 100
2, 180480, Note_on_c, 0, 61, 100
2, 180720, Note_on_c, 0, 97, 0
2, 180720, Note_on_c, 0, 98, 0
2, 180720, Note_on_c, 0, 85, 0
2, 180720, Note_on_c, 0, 86, 0
2, 180720, Note_on_c, 0, 73, 0
2, 180720, Note_on_c, 0, 61, 0
2, 180960, Note_on_c, 0, 96, 100
2, 180960, Note_on_c, 0, 97, 100
2, 180960, Note_on_c, 0, 84, 100
2, 180960, Note_on_c, 0, 85, 100
2, 180960, Note_on_c, 0, 72, 100
2, 181200, Note_on_c, 0, 96, 0
2, 181200, Note_on_c, 0, 97, 0
2, 181200, Note_on_c, 0, 84, 0
2, 181200, Note_on_c, 0, 85, 0
2, 181200, Note_on_c, 0, 72, 0
2, 181920, Note_on_c, 0, 96, 100
2, 181920, Note_on_c, 0, 97, 100
2, 181920, Note_on_c, 0, 84, 100
2, 181920, Note_on_c, 0, 85, 100
2, 181920, Note_on_c, 0, 72, 100
2, 181920, Note_on_c, 0, 60, 100
2, 182160, Note_on_c, 0, 96, 0
2, 182160, Note_on_c, 0, 97, 0
2, 182160, Note_on_c, 0, 84, 0
2, 182160, Note_on_c, 0, 85, 0
2, 182160, Note_on_c, 0, 72, 0
2, 182160, Note_on_c, 0, 60, 0
2, 182370, Note_on_c, 0, 106, 100
2, 182370, Note_on_c, 0, 94, 100
2, 182370, Note_on_c, 0, 70, 100
2, 182370, Note_on_c, 0, 82, 100
2, 182880, Note_on_c, 0, 98, 100
2, 182880, Note_on_c, 0, 86, 100
2, 182880, Note_on_c, 0, 73, 100
2, 182880, Note_on_c, 0, 62, 100
2, 183120, Note_on_c, 0, 98, 0
2, 183120, Note_on_c, 0, 86, 0
2, 183120, Note_on_c, 0, 73, 0
2, 183120, Note_on_c, 0, 62, 0
2, 183360, Note_on_c, 0, 99, 100
2, 183360, Note_on_c, 0, 87, 100
2, 183360, Note_on_c, 0, 74, 100
2, 183600, Note_on_c, 0, 99, 0
2, 183600, Note_on_c, 0, 87, 0
2, 183600, Note_on_c, 0, 74, 0
2, 183840, Note_on_c, 0, 98, 100
2, 183840, Note_on_c, 0, 86, 100
2, 183840, Note_on_c, 0, 73, 100
2, 184080, Note_on_c, 0, 98, 0
2, 184080, Note_on_c, 0, 86, 0
2, 184080, Note_on_c, 0, 73, 0
2, 184290, Note_on_c, 0, 105, 0
2, 184290, Note_on_c, 0, 93, 0
2, 184290, Note_on_c, 0, 69, 0
2, 184290, Note_on_c, 0, 81, 0
2, 184320, Note_on_c, 0, 97, 100
2, 184320, Note_on_c, 0, 98, 100
2, 184320, Note_on_c, 0, 85, 100
2, 184320, Note_on_c, 0, 86, 100
2, 184320, Note_on_c, 0, 73, 100
2, 184320, Note_on_c, 0, 61, 100
2, 184560, Note_on_c, 0, 97, 0
2, 184560, Note_on_c, 0, 98, 0
2, 184560, Note_on_c, 0, 85, 0
2, 184560, Note_on_c, 0, 86, 0
2, 184560, Note_on_c, 0, 73, 0
2, 184560, Note_on_c, 0, 61, 0
2, 184800, Note_on_c, 0, 96, 100
2, 184800, Note_on_c, 0, 97, 100
2, 184800, Note_on_c, 0, 84, 100
2, 184800, Note_on_c, 0, 85, 100
2, 184800, Note_on_c, 0, 72, 100
2, 185040, Note_on_c, 0, 96, 0
2, 185040, Note_on_c, 0, 97, 0
2, 185040, Note_on_c, 0, 84, 0
2, 185040, Note_on_c, 0, 85, 0
2, 185040, Note_on_c, 0, 72, 0
2, 185760, Note_on_c, 0, 96, 100
2, 185760, Note_on_c, 0, 97, 100
2, 185760, Note_on_c, 0, 84, 100
2, 185760, Note_on_c, 0, 85, 100
2, 185760, Note_on_c, 0, 72, 100
2, 185760, Note_on_c, 0, 60, 100
2, 186000, Note_on_c, 0, 96, 0
2, 186000, Note_on_c, 0, 97, 0
2, 186000, Note_on_c, 0, 84, 0
2, 186000, Note_on_c, 0, 85, 0
2, 186000, Note_on_c, 0, 72, 0
2, 186000, Note_on_c, 0, 60, 0
2, 186720, Note_on_c, 0, 108, 100
2, 187200, Note_on_c, 0, 108, 0
2, 187440, Note_on_c, 0, 108, 100
2, 187920, Note_on_c, 0, 108, 0
2, 188160, Note_on_c, 0, 108, 100
2, 188640, Note_on_c, 0, 108, 0
2, 188880, Note_on_c, 0, 108, 100
2, 189360, Note_on_c, 0, 108, 0
2, 189600, Note_on_c, 0, 108, 100
2, 190050, Note_on_c, 0, 103, 100
2, 190050, Note_on_c, 0, 91, 100
2, 190050, Note_on_c, 0, 67, 100
2, 190050, Note_on_c, 0, 79, 100
2, 190080, Note_on_c, 0, 108, 0
2, 190320, Note_on_c, 0, 108, 100
2, 190560, Note_on_c, 0, 97, 100
2, 190560, Note_on_c, 0, 85, 100
2, 190560, Note_on_c, 0, 72, 100
2, 190560, Note_on_c, 0, 60, 100
2, 190800, Note_on_c, 0, 97, 0
2, 190800, Note_on_c, 0, 85, 0
2, 190800, Note_on_c, 0, 72, 0
2, 190800, Note_on_c, 0, 60, 0
2, 191040, Note_on_c, 0, 97, 100
2, 191040, Note_on_c, 0, 85, 100
2, 191040, Note_on_c, 0, 72, 100
2, 191280, Note_on_c, 0, 97, 0
2, 191280, Note_on_c, 0, 85, 0
2, 191280, Note_on_c, 0, 72, 0
2, 191520, Note_on_c, 0, 99, 100
2, 191520, Note_on_c, 0, 100, 100
2, 191520, Note_on_c, 0, 88, 100
2, 191520, Note_on_c, 0, 62, 100
2, 191520, Note_on_c, 0, 74, 100
2, 191760, Note_on_c, 0, 99, 0
2, 191760, Note_on_c, 0, 100, 0
2, 191760, Note_on_c, 0, 88, 0
2, 191760, Note_on_c, 0, 62, 0
2, 191760, Note_on_c, 0, 74, 0
2, 192000, Note_on_c, 0, 108, 0
2, 192480, Note_on_c, 0, 98, 100
2, 192480, Note_on_c, 0, 99, 100
2, 192480, Note_on_c, 0, 87, 100
2, 192480, Note_on_c, 0, 86, 100
2, 192480, Note_on_c, 0, 73, 100
2, 192720, Note_on_c, 0, 98, 0
2, 192720, Note_on_c, 0, 99, 0
2, 192720, Note_on_c, 0, 87, 0
2, 192720, Note_on_c, 0, 86, 0
2, 192720, Note_on_c, 0, 73, 0
2, 193440, Note_on_c, 0, 97, 100
2, 193440, Note_on_c, 0, 98, 100
2, 193440, Note_on_c, 0, 86, 100
2, 193440, Note_on_c, 0, 85, 100
2, 193440, Note_on_c, 0, 61, 100
2, 193440, Note_on_c, 0, 72, 100
2, 193680, Note_on_c, 0, 97, 0
2, 193680, Note_on_c, 0, 98, 0
2, 193680, Note_on_c, 0, 86, 0
2, 193680, Note_on_c, 0, 85, 0
2, 193680, Note_on_c, 0, 61, 0
2, 193680, Note_on_c, 0, 72, 0
2, 193890, Note_on_c, 0, 103, 0
2, 193890, Note_on_c, 0, 91, 0
2, 193890, Note_on_c, 0, 67, 0
2, 193890, Note_on_c, 0, 79, 0
2, 194400, Note_on_c, 0, 98, 100
2, 194400, Note_on_c, 0, 87, 100
2, 194400, Note_on_c, 0, 73, 100
2, 194640, Note_on_c, 0, 98, 0
2, 194640, Note_on_c, 0, 87, 0
2, 194640, Note_on_c, 0, 73, 0
2, 194640, Note_on_c, 0, 99, 100
2, 194880, Note_on_c, 0, 99, 0
2, 194880, Note_on_c, 0, 98, 100
2, 194880, Note_on_c, 0, 86, 100
2, 194880, Note_on_c, 0, 72, 100
2, 195120, Note_on_c, 0, 98, 0
2, 195120, Note_on_c, 0, 86, 0
2, 195120, Note_on_c, 0, 72, 0
2, 195330, Note_on_c, 0, 106, 0
2, 195330, Note_on_c, 0, 94, 0
2, 195330, Note_on_c, 0, 70, 0
2, 195330, Note_on_c, 0, 82, 0
2, 195330, Note_on_c, 0, 105, 100
2, 195330, Note_on_c, 0, 93, 100
2, 195330, Note_on_c, 0, 69, 100
2, 195330, Note_on_c, 0, 81, 100
2, 195360, Note_on_c, 0, 99, 100
2, 195360, Note_on_c, 0, 100, 100
2, 195360, Note_on_c, 0, 88, 100
2, 195360, Note_on_c, 0, 62, 100
2, 195360, Note_on_c, 0, 74, 100
2, 195600, Note_on_c, 0, 99, 0
2, 195600, Note_on_c, 0, 100, 0
2, 195600, Note_on_c, 0, 88, 0
2, 195600, Note_on_c, 0, 62, 0
2, 195600, Note_on_c, 0, 74, 0
2, 196320, Note_on_c, 0, 98, 100
2, 196320, Note_on_c, 0, 99, 100
2, 196320, Note_on_c, 0, 87, 100
2, 196320, Note_on_c, 0, 86, 100
2, 196320, Note_on_c, 0, 73, 100
2, 196560, Note_on_c, 0, 98, 0
2, 196560, Note_on_c, 0, 99, 0
2, 196560, Note_on_c, 0, 87, 0
2, 196560, Note_on_c, 0, 86, 0
2, 196560, Note_on_c, 0, 73, 0
2, 197280, Note_on_c, 0, 97, 100
2, 197280, Note_on_c, 0, 98, 100
2, 197280, Note_on_c, 0, 86, 100
2, 197280, Note_on_c, 0, 85, 100
2, 197280, Note_on_c, 0, 61, 100
2, 197280, Note_on_c, 0, 72, 100
2, 197520, Note_on_c, 0, 97, 0
2, 197520, Note_on_c, 0, 98, 0
2, 197520, Note_on_c, 0, 86, 0
2, 197520, Note_on_c, 0, 85, 0
2, 197520, Note_on_c, 0, 61, 0
2, 197520, Note_on_c, 0, 72, 0
2, 198240, Note_on_c, 0, 98, 100
2, 198240, Note_on_c, 0, 87, 100
2, 198240, Note_on_c, 0, 73, 100
2, 198240, Note_on_c, 0, 108, 100
2, 198480, Note_on_c, 0, 98, 0
2, 198480, Note_on_c, 0, 87, 0
2, 198480, Note_on_c, 0, 73, 0
2, 198480, Note_on_c, 0, 99, 100
2, 198720, Note_on_c, 0, 108, 0
2, 198720, Note_on_c, 0, 99, 0
2, 198720, Note_on_c, 0, 98, 100
2, 198720, Note_on_c, 0, 86, 100
2, 198720, Note_on_c, 0, 72, 100
2, 198960, Note_on_c, 0, 98, 0
2, 198960, Note_on_c, 0, 86, 0
2, 198960, Note_on_c, 0, 72, 0
2, 198960, Note_on_c, 0, 108, 100
2, 199170, Note_on_c, 0, 105, 0
2, 199170, Note_on_c, 0, 93, 0
2, 199170, Note_on_c, 0, 69, 0
2, 199170, Note_on_c, 0, 81, 0
2, 199170, Note_on_c, 0, 106, 100
2, 199170, Note_on_c, 0, 94, 100
2, 199170, Note_on_c, 0, 70, 100
2, 199170, Note_on_c, 0, 82, 100
2, 199200, Note_on_c, 0, 99, 100
2, 199200, Note_on_c, 0, 100, 100
2, 199200, Note_on_c, 0, 88, 100
2, 199200, Note_on_c, 0, 62, 100
2, 199200, Note_on_c, 0, 74, 100
2, 199440, Note_on_c, 0, 99, 0
2, 199440, Note_on_c, 0, 100, 0
2, 199440, Note_on_c, 0, 88, 0
2, 199440, Note_on_c, 0, 62, 0
2, 199440, Note_on_c, 0, 74, 0
2, 200160, Note_on_c, 0, 98, 100
2, 200160, Note_on_c, 0, 99, 100
2, 200160, Note_on_c, 0, 87, 100
2, 200160, Note_on_c, 0, 86, 100
2, 200160, Note_on_c, 0, 73, 100
2, 200400, Note_on_c, 0, 98, 0
2, 200400, Note_on_c, 0, 99, 0
2, 200400, Note_on_c, 0, 87, 0
2, 200400, Note_on_c, 0, 86, 0
2, 200400, Note_on_c, 0, 73, 0
2, 201120, Note_on_c, 0, 108, 0
2, 201120, Note_on_c, 0, 97, 100
2, 201120, Note_on_c, 0, 98, 100
2, 201120, Note_on_c, 0, 86, 100
2, 201120, Note_on_c, 0, 85, 100
2, 201120, Note_on_c, 0, 61, 100
2, 201120, Note_on_c, 0, 72, 100
2, 201360, Note_on_c, 0, 97, 0
2, 201360, Note_on_c, 0, 98, 0
2, 201360, Note_on_c, 0, 86, 0
2, 201360, Note_on_c, 0, 85, 0
2, 201360, Note_on_c, 0, 61, 0
2, 201360, Note_on_c, 0, 72, 0
2, 202080, Note_on_c, 0, 98, 100
2, 202080, Note_on_c, 0, 87, 100
2, 202080, Note_on_c, 0, 73, 100
2, 202320, Note_on_c, 0, 98, 0
2, 202320, Note_on_c, 0, 87, 0
2, 202320, Note_on_c, 0, 73, 0
2, 202320, Note_on_c, 0, 99, 100
2, 202560, Note_on_c, 0, 99, 0
2, 202560, Note_on_c, 0, 98, 100
2, 202560, Note_on_c, 0, 86, 100
2, 202560, Note_on_c, 0, 72, 100
2, 202800, Note_on_c, 0, 98, 0
2, 202800, Note_on_c, 0, 86, 0
2, 202800, Note_on_c, 0, 72, 0
2, 203010, Note_on_c, 0, 106, 0
2, 203010, Note_on_c, 0, 94, 0
2, 203010, Note_on_c, 0, 70, 0
2, 203010, Note_on_c, 0, 82, 0
2, 203010, Note_on_c, 0, 105, 100
2, 203010, Note_on_c, 0, 93, 100
2, 203010, Note_on_c, 0, 69, 100
2, 203010, Note_on_c, 0, 81, 100
2, 203040, Note_on_c, 0, 99, 100
2, 203040, Note_on_c, 0, 100, 100
2, 203040, Note_on_c, 0, 88, 100
2, 203040, Note_on_c, 0, 62, 100
2, 203040, Note_on_c, 0, 74, 100
2, 203280, Note_on_c, 0, 99, 0
2, 203280, Note_on_c, 0, 100, 0
2, 203280, Note_on_c, 0, 88, 0
2, 203280, Note_on_c, 0, 62, 0
2, 203280, Note_on_c, 0, 74, 0
2, 204000, Note_on_c, 0, 98, 100
2, 204000, Note_on_c, 0, 99, 100
2, 204000, Note_on_c, 0, 87, 100
2, 204000, Note_on_c, 0, 86, 100
2, 204000, Note_on_c, 0, 73, 100
2, 204240, Note_on_c, 0, 98, 0
2, 204240, Note_on_c, 0, 99, 0
2, 204240, Note_on_c, 0, 87, 0
2, 204240, Note_on_c, 0, 86, 0
2, 204240, Note_on_c, 0, 73, 0
2, 204960, Note_on_c, 0, 97, 100
2, 204960, Note_on_c, 0, 98, 100
2, 204960, Note_on_c, 0, 86, 100
2, 204960, Note_on_c, 0, 85, 100
2, 204960, Note_on_c, 0, 61, 100
2, 204960, Note_on_c, 0, 72, 100
2, 205200, Note_on_c, 0, 97, 0
2, 205200, Note_on_c, 0, 98, 0
2, 205200, Note_on_c, 0, 86, 0
2, 205200, Note_on_c, 0, 85, 0
2, 205200, Note_on_c, 0, 61, 0
2, 205200, Note_on_c, 0, 72, 0
2, 205920, Note_on_c, 0, 98, 100
2, 205920, Note_on_c, 0, 87, 100
2, 205920, Note_on_c, 0, 73, 100
2, 205920, Note_on_c, 0, 108, 100
2, 206160, Note_on_c, 0, 98, 0
2, 206160, Note_on_c, 0, 87, 0
2, 206160, Note_on_c, 0, 73, 0
2, 206160, Note_on_c, 0, 108, 0
2, 206160, Note_on_c, 0, 99, 100
2, 206400, Note_on_c, 0, 99, 0
2, 206400, Note_on_c, 0, 98, 100
2, 206400, Note_on_c, 0, 86, 100
2, 206400, Note_on_c, 0, 72, 100
2, 206400, Note_on_c, 0, 108, 100
2, 206640, Note_on_c, 0, 98, 0
2, 206640, Note_on_c, 0, 86, 0
2, 206640, Note_on_c, 0, 72, 0
2, 206850, Note_on_c, 0, 105, 0
2, 206850, Note_on_c, 0, 93, 0
2, 206850, Note_on_c, 0, 69, 0
2, 206850, Note_on_c, 0, 81, 0
2, 206850, Note_on_c, 0, 106, 100
2, 206850, Note_on_c, 0, 94, 100
2, 206850, Note_on_c, 0, 70, 100
2, 206850, Note_on_c, 0, 82, 100
2, 206880, Note_on_c, 0, 99, 100
2, 206880, Note_on_c, 0, 100, 100
2, 206880, Note_on_c, 0, 88, 100
2, 206880, Note_on_c, 0, 62, 100
2, 206880, Note_on_c, 0, 74, 100
2, 207120, Note_on_c, 0, 99, 0
2, 207120, Note_on_c, 0, 100, 0
2, 207120, Note_on_c, 0, 88, 0
2, 207120, Note_on_c, 0, 62, 0
2, 207120, Note_on_c, 0, 74, 0
2, 207840, Note_on_c, 0, 98, 100
2, 207840, Note_on_c, 0, 99, 100
2, 207840, Note_on_c, 0, 87, 100
2, 207840, Note_on_c, 0, 86, 100
2, 207840, Note_on_c, 0, 73, 100
2, 208080, Note_on_c, 0, 98, 0
2, 208080, Note_on_c, 0, 99, 0
2, 208080, Note_on_c, 0, 87, 0
2, 208080, Note_on_c, 0, 86, 0
2, 208080, Note_on_c, 0, 73, 0
2, 208800, Note_on_c, 0, 97, 100
2, 208800, Note_on_c, 0, 98, 100
2, 208800, Note_on_c, 0, 86, 100
2, 208800, Note_on_c, 0, 85, 100
2, 208800, Note_on_c, 0, 61, 100
2, 208800, Note_on_c, 0, 72, 100
2, 209040, Note_on_c, 0, 97, 0
2, 209040, Note_on_c, 0, 98, 0
2, 209040, Note_on_c, 0, 86, 0
2, 209040, Note_on_c, 0, 85, 0
2, 209040, Note_on_c, 0, 61, 0
2, 209040, Note_on_c, 0, 72, 0
2, 209760, Note_on_c, 0, 98, 100
2, 209760, Note_on_c, 0, 87, 100
2, 209760, Note_on_c, 0, 73, 100
2, 210000, Note_on_c, 0, 98, 0
2, 210000, Note_on_c, 0, 87, 0
2, 210000, Note_on_c, 0, 73, 0
2, 210000, Note_on_c, 0, 99, 100
2, 210240, Note_on_c, 0, 99, 0
2, 210240, Note_on_c, 0, 98, 100
2, 210240, Note_on_c, 0, 86, 100
2, 210240, Note_on_c, 0, 72, 100
2, 210480, Note_on_c, 0, 98, 0
2, 210480, Note_on_c, 0, 86, 0
2, 210480, Note_on_c, 0, 72, 0
2, 210690, Note_on_c, 0, 106, 0
2, 210690, Note_on_c, 0, 94, 0
2, 210690, Note_on_c, 0, 70, 0
2, 210690, Note_on_c, 0, 82, 0
2, 210690, Note_on_c, 0, 105, 100
2, 210690, Note_on_c, 0, 103, 100
2, 210690, Note_on_c, 0, 93, 100
2, 210690, Note_on_c, 0, 91, 100
2, 210690, Note_on_c, 0, 69, 100
2, 210690, Note_on_c, 0, 81, 100
2, 210690, Note_on_c, 0, 79, 100
2, 210720, Note_on_c, 0, 99, 100
2, 210720, Note_on_c, 0, 100, 100
2, 210720, Note_on_c, 0, 88, 100
2, 210720, Note_on_c, 0, 62, 100
2, 210720, Note_on_c, 0, 74, 100
2, 210960, Note_on_c, 0, 99, 0
2, 210960, Note_on_c, 0, 100, 0
2, 210960, Note_on_c, 0, 88, 0
2, 210960, Note_on_c, 0, 62, 0
2, 210960, Note_on_c, 0, 74, 0
2, 211680, Note_on_c, 0, 98, 100
2, 211680, Note_on_c, 0, 99, 100
2, 211680, Note_on_c, 0, 87, 100
2, 211680, Note_on_c, 0, 86, 100
2, 211680, Note_on_c, 0, 73, 100
2, 211920, Note_on_c, 0, 98, 0
2, 211920, Note_on_c, 0, 99, 0
2, 211920, Note_on_c, 0, 87, 0
2, 211920, Note_on_c, 0, 86, 0
2, 211920, Note_on_c, 0, 73, 0
2, 212640, Note_on_c, 0, 97, 100
2, 212640, Note_on_c, 0, 98, 100
2, 212640, Note_on_c, 0, 86, 100
2, 212640, Note_on_c, 0, 85, 100
2, 212640, Note_on_c, 0, 61, 100
2, 212640, Note_on_c, 0, 72, 100
2, 212880, Note_on_c, 0, 97, 0
2, 212880, Note_on_c, 0, 98, 0
2, 212880, Note_on_c, 0, 86, 0
2, 212880, Note_on_c, 0, 85, 0
2, 212880, Note_on_c, 0, 61, 0
2, 212880, Note_on_c, 0, 72, 0
2, 213090, Note_on_c, 0, 103, 0
2, 213090, Note_on_c, 0, 91, 0
2, 213090, Note_on_c, 0, 79, 0
2, 213600, Note_on_c, 0, 98, 100
2, 213600, Note_on_c, 0, 87, 100
2, 213600, Note_on_c, 0, 73, 100
2, 213840, Note_on_c, 0, 98, 0
2, 213840, Note_on_c, 0, 87, 0
2, 213840, Note_on_c, 0, 73, 0
2, 213840, Note_on_c, 0, 99, 100
2, 214080, Note_on_c, 0, 99, 0
2, 214080, Note_on_c, 0, 98, 100
2, 214080, Note_on_c, 0, 86, 100
2, 214080, Note_on_c, 0, 72, 100
2, 214320, Note_on_c, 0, 98, 0
2, 214320, Note_on_c, 0, 86, 0
2, 214320, Note_on_c, 0, 72, 0
2, 214530, Note_on_c, 0, 105, 0
2, 214530, Note_on_c, 0, 93, 0
2, 214530, Note_on_c, 0, 69, 0
2, 214530, Note_on_c, 0, 81, 0
2, 214530, Note_on_c, 0, 106, 100
2, 214530, Note_on_c, 0, 94, 100
2, 214530, Note_on_c, 0, 70, 100
2, 214530, Note_on_c, 0, 82, 100
2, 214560, Note_on_c, 0, 99, 100
2, 214560, Note_on_c, 0, 100, 100
2, 214560, Note_on_c, 0, 88, 100
2, 214560, Note_on_c, 0, 62, 100
2, 214560, Note_on_c, 0, 74, 100
2, 214800, Note_on_c, 0, 99, 0
2, 214800, Note_on_c, 0, 100, 0
2, 214800, Note_on_c, 0, 88, 0
2, 214800, Note_on_c, 0, 62, 0
2, 214800, Note_on_c, 0, 74, 0
2, 215520, Note_on_c, 0, 98, 100
2, 215520, Note_on_c, 0, 99, 100
2, 215520, Note_on_c, 0, 87, 100
2, 215520, Note_on_c, 0, 86, 100
2, 215520, Note_on_c, 0, 73, 100
2, 215760, Note_on_c, 0, 98, 0
2, 215760, Note_on_c, 0, 99, 0
2, 215760, Note_on_c, 0, 87, 0
2, 215760, Note_on_c, 0, 86, 0
2, 215760, Note_on_c, 0, 73, 0
2, 216480, Note_on_c, 0, 97, 100
2, 216480, Note_on_c, 0, 98, 100
2, 216480, Note_on_c, 0, 86, 100
2, 216480, Note_on_c, 0, 85, 100
2, 216480, Note_on_c, 0, 61, 100
2, 216480, Note_on_c, 0, 72, 100
2, 216720, Note_on_c, 0, 97, 0
2, 216720, Note_on_c, 0, 98, 0
2, 216720, Note_on_c, 0, 86, 0
2, 216720, Note_on_c, 0, 85, 0
2, 216720, Note_on_c, 0, 61, 0
2, 216720, Note_on_c, 0, 72, 0
2, 217410, Note_on_c, 0, 105, 100
2, 217410, Note_on_c, 0, 93, 100
2, 217410, Note_on_c, 0, 69, 100
2, 217410, Note_on_c, 0, 81, 100
2, 217440, Note_on_c, 0, 97, 100
2, 217440, Note_on_c, 0, 85, 100
2, 217440, Note_on_c, 0, 72, 100
2, 217680, Note_on_c, 0, 97, 0
2, 217680, Note_on_c, 0, 85, 0
2, 217680, Note_on_c, 0, 72, 0
2, 217920, Note_on_c, 0, 97, 100
2, 217920, Note_on_c, 0, 85, 100
2, 217920, Note_on_c, 0, 72, 100
2, 218160, Note_on_c, 0, 97, 0
2, 218160, Note_on_c, 0, 85, 0
2, 218160, Note_on_c, 0, 72, 0
2, 218400, Note_on_c, 0, 100, 100
2, 218400, Note_on_c, 0, 88, 100
2, 218400, Note_on_c, 0, 62, 100
2, 218400, Note_on_c, 0, 74, 100
2, 219120, Note_on_c, 0, 108, 0
2, 219360, Note_on_c, 0, 100, 0
2, 219360, Note_on_c, 0, 88, 0
2, 219360, Note_on_c, 0, 74, 0
2, 219360, Note_on_c, 0, 99, 100
2, 219360, Note_on_c, 0, 87, 100
2, 219360, Note_on_c, 0, 74, 100
2, 219600, Note_on_c, 0, 62, 0
2, 219600, Note_on_c, 0, 99, 0
2, 219600, Note_on_c, 0, 87, 0
2, 219600, Note_on_c, 0, 74, 0
2, 219840, Note_on_c, 0, 98, 100
2, 219840, Note_on_c, 0, 86, 100
2, 219840, Note_on_c, 0, 62, 100
2, 219840, Note_on_c, 0, 74, 100
2, 220080, Note_on_c, 0, 98, 0
2, 220080, Note_on_c, 0, 86, 0
2, 220080, Note_on_c, 0, 62, 0
2, 220080, Note_on_c, 0, 74, 0
2, 220320, Note_on_c, 0, 97, 100
2, 220320, Note_on_c, 0, 85, 100
2, 220320, Note_on_c, 0, 74, 100
2, 220560, Note_on_c, 0, 97, 0
2, 220560, Note_on_c, 0, 85, 0
2, 220560, Note_on_c, 0, 74, 0
2, 220800, Note_on_c, 0, 99, 100
2, 220800, Note_on_c, 0, 87, 100
2, 220800, Note_on_c, 0, 62, 100
2, 220800, Note_on_c, 0, 73, 100
2, 221040, Note_on_c, 0, 99, 0
2, 221040, Note_on_c, 0, 87, 0
2, 221040, Note_on_c, 0, 62, 0
2, 221040, Note_on_c, 0, 73, 0
2, 221280, Note_on_c, 0, 98, 100
2, 221280, Note_on_c, 0, 86, 100
2, 221280, Note_on_c, 0, 73, 100
2, 221520, Note_on_c, 0, 98, 0
2, 221520, Note_on_c, 0, 86, 0
2, 221520, Note_on_c, 0, 73, 0
2, 221760, Note_on_c, 0, 97, 100
2, 221760, Note_on_c, 0, 85, 100
2, 221760, Note_on_c, 0, 62, 100
2, 221760, Note_on_c, 0, 73, 100
2, 222000, Note_on_c, 0, 97, 0
2, 222000, Note_on_c, 0, 85, 0
2, 222000, Note_on_c, 0, 62, 0
2, 222000, Note_on_c, 0, 73, 0
2, 222240, Note_on_c, 0, 96, 100
2, 222240, Note_on_c, 0, 84, 100
2, 222240, Note_on_c, 0, 60, 100
2, 222240, Note_on_c, 0, 72, 100
2, 222480, Note_on_c, 0, 60, 0
2, 223650, Note_on_c, 0, 105, 0
2, 223650, Note_on_c, 0, 93, 0
2, 223650, Note_on_c, 0, 69, 0
2, 223650, Note_on_c, 0, 81, 0
2, 223680, Note_on_c, 0, 96, 0
2, 223680, Note_on_c, 0, 84, 0
2, 223680, Note_on_c, 0, 72, 0
2, 223680, Note_on_c, 0, 99, 100
2, 223680, Note_on_c, 0, 87, 100
2, 223680, Note_on_c, 0, 75, 100
2, 223680, Note_on_c, 0, 62, 100
2, 223680, Note_on_c, 0, 108, 100
2, 223920, Note_on_c, 0, 62, 0
2, 224640, Note_on_c, 0, 99, 0
2, 224640, Note_on_c, 0, 87, 0
2, 224640, Note_on_c, 0, 108, 0
2, 224640, Note_on_c, 0, 96, 100
2, 224640, Note_on_c, 0, 84, 100
2, 224880, Note_on_c, 0, 96, 0
2, 224880, Note_on_c, 0, 84, 0
2, 225120, Note_on_c, 0, 75, 0
2, 225120, Note_on_c, 0, 98, 100
2, 225120, Note_on_c, 0, 86, 100
2, 225120, Note_on_c, 0, 74, 100
2, 225120, Note_on_c, 0, 108, 100
2, 225840, Note_on_c, 0, 108, 0
2, 226080, Note_on_c, 0, 98, 0
2, 226080, Note_on_c, 0, 86, 0
2, 226080, Note_on_c, 0, 96, 100
2, 226080, Note_on_c, 0, 84, 100
2, 226080, Note_on_c, 0, 108, 100
2, 226320, Note_on_c, 0, 96, 0
2, 226320, Note_on_c, 0, 84, 0
2, 226320, Note_on_c, 0, 108, 0
2, 226560, Note_on_c, 0, 74, 0
2, 226560, Note_on_c, 0, 97, 100
2, 226560, Note_on_c, 0, 85, 100
2, 226560, Note_on_c, 0, 73, 100
2, 226560, Note_on_c, 0, 61, 100
2, 226560, Note_on_c, 0, 108, 100
2, 226800, Note_on_c, 0, 61, 0
2, 227520, Note_on_c, 0, 97, 0
2, 227520, Note_on_c, 0, 85, 0
2, 227520, Note_on_c, 0, 96, 100
2, 227520, Note_on_c, 0, 84, 100
2, 227760, Note_on_c, 0, 108, 0
2, 227760, Note_on_c, 0, 96, 0
2, 227760, Note_on_c, 0, 84, 0
2, 228000, Note_on_c, 0, 73, 0
2, 228000, Note_on_c, 0, 98, 100
2, 228000, Note_on_c, 0, 86, 100
2, 228000, Note_on_c, 0, 74, 100
2, 228000, Note_on_c, 0, 60, 100
2, 228000, Note_on_c, 0, 108, 100
2, 228240, Note_on_c, 0, 60, 0
2, 228960, Note_on_c, 0, 98, 0
2, 228960, Note_on_c, 0, 86, 0
2, 228960, Note_on_c, 0, 97, 100
2, 228960, Note_on_c, 0, 85, 100
2, 229200, Note_on_c, 0, 108, 0
2, 229200, Note_on_c, 0, 97, 0
2, 229200, Note_on_c, 0, 85, 0
2, 229440, Note_on_c, 0, 74, 0
2, 229440, Note_on_c, 0, 96, 100
2, 229440, Note_on_c, 0, 84, 100
2, 229440, Note_on_c, 0, 72, 100
2, 229440, Note_on_c, 0, 60, 100
2, 229440, Note_on_c, 0, 108, 100
2, 229680, Note_on_c, 0, 96, 0
2, 229680, Note_on_c, 0, 84, 0
2, 229680, Note_on_c, 0, 72, 0
2, 229680, Note_on_c, 0, 60, 0
2, 230370, Note_on_c, 0, 106, 0
2, 230370, Note_on_c, 0, 94, 0
2, 230370, Note_on_c, 0, 70, 0
2, 230370, Note_on_c, 0, 82, 0
2, 230370, Note_on_c, 0, 105, 100
2, 230370, Note_on_c, 0, 93, 100
2, 230370, Note_on_c, 0, 69, 100
2, 230370, Note_on_c, 0, 81, 100
2, 230400, Note_on_c, 0, 108, 0
2, 230400, Note_on_c, 0, 96, 100
2, 230400, Note_on_c, 0, 84, 100
2, 230400, Note_on_c, 0, 72, 100
2, 230400, Note_on_c, 0, 60, 100
2, 230640, Note_on_c, 0, 60, 0
2, 231360, Note_on_c, 0, 96, 0
2, 231360, Note_on_c, 0, 84, 0
2, 231360, Note_on_c, 0, 72, 0
2, 231360, Note_on_c, 0, 98, 100
2, 231360, Note_on_c, 0, 86, 100
2, 231360, Note_on_c, 0, 74, 100
2, 231360, Note_on_c, 0, 61, 100
2, 231360, Note_on_c, 0, 108, 100
2, 231600, Note_on_c, 0, 61, 0
2, 232320, Note_on_c, 0, 98, 0
2, 232320, Note_on_c, 0, 86, 0
2, 232320, Note_on_c, 0, 96, 100
2, 232320, Note_on_c, 0, 84, 100
2, 232560, Note_on_c, 0, 108, 0
2, 232560, Note_on_c, 0, 96, 0
2, 232560, Note_on_c, 0, 84, 0
2, 232800, Note_on_c, 0, 74, 0
2, 232800, Note_on_c, 0, 97, 100
2, 232800, Note_on_c, 0, 85, 100
2, 232800, Note_on_c, 0, 73, 100
2, 232800, Note_on_c, 0, 108, 100
2, 233760, Note_on_c, 0, 97, 0
2, 233760, Note_on_c, 0, 85, 0
2, 233760, Note_on_c, 0, 108, 0
2, 233760, Note_on_c, 0, 96, 100
2, 233760, Note_on_c, 0, 84, 100
2, 234000, Note_on_c, 0, 96, 0
2, 234000, Note_on_c, 0, 84, 0
2, 234240, Note_on_c, 0, 73, 0
2, 234240, Note_on_c, 0, 99, 100
2, 234240, Note_on_c, 0, 87, 100
2, 234240, Note_on_c, 0, 75, 100
2, 234240, Note_on_c, 0, 62, 100
2, 234240, Note_on_c, 0, 108, 100
2, 234480, Note_on_c, 0, 62, 0
2, 235170, Note_on_c, 0, 106, 100
2, 235170, Note_on_c, 0, 94, 100
2, 235170, Note_on_c, 0, 70, 100
2, 235170, Note_on_c, 0, 82, 100
2, 235200, Note_on_c, 0, 99, 0
2, 235200, Note_on_c, 0, 87, 0
2, 235200, Note_on_c, 0, 75, 0
2, 235440, Note_on_c, 0, 108, 0
2, 235680, Note_on_c, 0, 98, 100
2, 235680, Note_on_c, 0, 74, 100
2, 235680, Note_on_c, 0, 62, 100
2, 235680, Note_on_c, 0, 87, 100
2, 235680, Note_on_c, 0, 108, 100
2, 235920, Note_on_c, 0, 98, 0
2, 235920, Note_on_c, 0, 74, 0
2, 235920, Note_on_c, 0, 62, 0
2, 235920, Note_on_c, 0, 87, 0
2, 235920, Note_on_c, 0, 108, 0
2, 235920, Note_on_c, 0, 99, 100
2, 236160, Note_on_c, 0, 99, 0
2, 236160, Note_on_c, 0, 98, 100
2, 236160, Note_on_c, 0, 86, 100
2, 236160, Note_on_c, 0, 108, 100
2, 236400, Note_on_c, 0, 98, 0
2, 236400, Note_on_c, 0, 86, 0
2, 236640, Note_on_c, 0, 97, 100
2, 236640, Note_on_c, 0, 85, 100
2, 236880, Note_on_c, 0, 97, 0
2, 236880, Note_on_c, 0, 85, 0
2, 237120, Note_on_c, 0, 108, 0
2, 237120, Note_on_c, 0, 96, 100
2, 237120, Note_on_c, 0, 84, 100
2, 237120, Note_on_c, 0, 72, 100
2, 237120, Note_on_c, 0, 61, 100
2, 237360, Note_on_c, 0, 96, 0
2, 237360, Note_on_c, 0, 84, 0
2, 237360, Note_on_c, 0, 72, 0
2, 237360, Note_on_c, 0, 61, 0
2, 238050, Note_on_c, 0, 106, 0
2, 238050, Note_on_c, 0, 94, 0
2, 238050, Note_on_c, 0, 70, 0
2, 238050, Note_on_c, 0, 82, 0
2, 238080, Note_on_c, 0, 96, 100
2, 238080, Note_on_c, 0, 84, 100
2, 238080, Note_on_c, 0, 72, 100
2, 238080, Note_on_c, 0, 60, 100
2, 238320, Note_on_c, 0, 60, 0
2, 239040, Note_on_c, 0, 96, 0
2, 239040, Note_on_c, 0, 84, 0
2, 239040, Note_on_c, 0, 72, 0
2, 239040, Note_on_c, 0, 99, 100
2, 239040, Note_on_c, 0, 87, 100
2, 239040, Note_on_c, 0, 75, 100
2, 239040, Note_on_c, 0, 62, 100
2, 239040, Note_on_c, 0, 108, 100
2, 239280, Note_on_c, 0, 62, 0
2, 240000, Note_on_c, 0, 99, 0
2, 240000, Note_on_c, 0, 87, 0
2, 240000, Note_on_c, 0, 96, 100
2, 240000, Note_on_c, 0, 84, 100
2, 240240, Note_on_c, 0, 108, 0
2, 240240, Note_on_c, 0, 96, 0
2, 240240, Note_on_c, 0, 84, 0
2, 240480, Note_on_c, 0, 75, 0
2, 240480, Note_on_c, 0, 98, 100
2, 240480, Note_on_c, 0, 86, 100
2, 240480, Note_on_c, 0, 74, 100
2, 240480, Note_on_c, 0, 108, 100
2, 241440, Note_on_c, 0, 98, 0
2, 241440, Note_on_c, 0, 86, 0
2, 241440, Note_on_c, 0, 108, 0
2, 241440, Note_on_c, 0, 96, 100
2, 241440, Note_on_c, 0, 84, 100
2, 241680, Note_on_c, 0, 96, 0
2, 241680, Note_on_c, 0, 84, 0
2, 241680, Note_on_c, 0, 108, 100
2, 241920, Note_on_c, 0, 74, 0
2, 241920, Note_on_c, 0, 108, 0
2, 241920, Note_on_c, 0, 97, 100
2, 241920, Note_on_c, 0, 85, 100
2, 241920, Note_on_c, 0, 73, 100
2, 241920, Note_on_c, 0, 61, 100
2, 242160, Note_on_c, 0, 61, 0
2, 242160, Note_on_c, 0, 108, 100
2, 242880, Note_on_c, 0, 97, 0
2, 242880, Note_on_c, 0, 85, 0
2, 242880, Note_on_c, 0, 96, 100
2, 242880, Note_on_c, 0, 84, 100
2, 243120, Note_on_c, 0, 108, 0
2, 243120, Note_on_c, 0, 96, 0
2, 243120, Note_on_c, 0, 84, 0
2, 243360, Note_on_c, 0, 73, 0
2, 243360, Note_on_c, 0, 98, 100
2, 243360, Note_on_c, 0, 86, 100
2, 243360, Note_on_c, 0, 74, 100
2, 243360, Note_on_c, 0, 60, 100
2, 243360, Note_on_c, 0, 108, 100
2, 243600, Note_on_c, 0, 60, 0
2, 244320, Note_on_c, 0, 98, 0
2, 244320, Note_on_c, 0, 86, 0
2, 244320, Note_on_c, 0, 97, 100
2, 244320, Note_on_c, 0, 85, 100
2, 244560, Note_on_c, 0, 97, 0
2, 244560, Note_on_c, 0, 85, 0
2, 244800, Note_on_c, 0, 74, 0
2, 244800, Note_on_c, 0, 108, 0
2, 244800, Note_on_c, 0, 96, 100
2, 244800, Note_on_c, 0, 84, 100
2, 244800, Note_on_c, 0, 72, 100
2, 244800, Note_on_c, 0, 60, 100
2, 245040, Note_on_c, 0, 96, 0
2, 245040, Note_on_c, 0, 84, 0
2, 245040, Note_on_c, 0, 72, 0
2, 245040, Note_on_c, 0, 60, 0
2, 245730, Note_on_c, 0, 105, 0
2, 245730, Note_on_c, 0, 93, 0
2, 245730, Note_on_c, 0, 69, 0
2, 245730, Note_on_c, 0, 81, 0
2, 245730, Note_on_c, 0, 106, 100
2, 245730, Note_on_c, 0, 94, 100
2, 245730, Note_on_c, 0, 70, 100
2, 245730, Note_on_c, 0, 82, 100
2, 245760, Note_on_c, 0, 96, 100
2, 245760, Note_on_c, 0, 84, 100
2, 245760, Note_on_c, 0, 72, 100
2, 245760, Note_on_c, 0, 60, 100
2, 246000, Note_on_c, 0, 60, 0
2, 246720, Note_on_c, 0, 96, 0
2, 246720, Note_on_c, 0, 84, 0
2, 246720, Note_on_c, 0, 72, 0
2, 246720, Note_on_c, 0, 98, 100
2, 246720, Note_on_c, 0, 86, 100
2, 246720, Note_on_c, 0, 74, 100
2, 246720, Note_on_c, 0, 61, 100
2, 246720, Note_on_c, 0, 108, 100
2, 246960, Note_on_c, 0, 61, 0
2, 247680, Note_on_c, 0, 98, 0
2, 247680, Note_on_c, 0, 86, 0
2, 247680, Note_on_c, 0, 108, 0
2, 247680, Note_on_c, 0, 96, 100
2, 247680, Note_on_c, 0, 84, 100
2, 247920, Note_on_c, 0, 96, 0
2, 247920, Note_on_c, 0, 84, 0
2, 248160, Note_on_c, 0, 74, 0
2, 248160, Note_on_c, 0, 97, 100
2, 248160, Note_on_c, 0, 85, 100
2, 248160, Note_on_c, 0, 73, 100
2, 248160, Note_on_c, 0, 108, 100
2, 248880, Note_on_c, 0, 108, 0
2, 249120, Note_on_c, 0, 97, 0
2, 249120, Note_on_c, 0, 85, 0
2, 249120, Note_on_c, 0, 96, 100
2, 249120, Note_on_c, 0, 84, 100
2, 249120, Note_on_c, 0, 108, 100
2, 249360, Note_on_c, 0, 96, 0
2, 249360, Note_on_c, 0, 84, 0
2, 249360, Note_on_c, 0, 108, 0
2, 249570, Note_on_c, 0, 103, 100
2, 249570, Note_on_c, 0, 105, 100
2, 249570, Note_on_c, 0, 91, 100
2, 249570, Note_on_c, 0, 93, 100
2, 249570, Note_on_c, 0, 67, 100
2, 249570, Note_on_c, 0, 69, 100
2, 249570, Note_on_c, 0, 79, 100
2, 249570, Note_on_c, 0, 81, 100
2, 249600, Note_on_c, 0, 73, 0
2, 249600, Note_on_c, 0, 98, 100
2, 249600, Note_on_c, 0, 86, 100
2, 249600, Note_on_c, 0, 74, 100
2, 249600, Note_on_c, 0, 62, 100
2, 249600, Note_on_c, 0, 108, 100
2, 249840, Note_on_c, 0, 98, 0
2, 249840, Note_on_c, 0, 86, 0
2, 249840, Note_on_c, 0, 74, 0
2, 249840, Note_on_c, 0, 62, 0
2, 249840, Note_on_c, 0, 108, 0
2, 250080, Note_on_c, 0, 98, 100
2, 250080, Note_on_c, 0, 86, 100
2, 250080, Note_on_c, 0, 74, 100
2, 250080, Note_on_c, 0, 108, 100
2, 250320, Note_on_c, 0, 98, 0
2, 250320, Note_on_c, 0, 86, 0
2, 250320, Note_on_c, 0, 74, 0
2, 250320, Note_on_c, 0, 108, 0
2, 250560, Note_on_c, 0, 98, 100
2, 250560, Note_on_c, 0, 86, 100
2, 250560, Note_on_c, 0, 74, 100
2, 250560, Note_on_c, 0, 62, 100
2, 250560, Note_on_c, 0, 108, 100
2, 250800, Note_on_c, 0, 98, 0
2, 250800, Note_on_c, 0, 86, 0
2, 250800, Note_on_c, 0, 74, 0
2, 250800, Note_on_c, 0, 62, 0
2, 251040, Note_on_c, 0, 98, 100
2, 251040, Note_on_c, 0, 86, 100
2, 251040, Note_on_c, 0, 74, 100
2, 251280, Note_on_c, 0, 98, 0
2, 251280, Note_on_c, 0, 86, 0
2, 251280, Note_on_c, 0, 74, 0
2, 251520, Note_on_c, 0, 98, 100
2, 251520, Note_on_c, 0, 86, 100
2, 251520, Note_on_c, 0, 74, 100
2, 251520, Note_on_c, 0, 62, 100
2, 251520, Note_on_c, 0, 84, 100
2, 251520, Note_on_c, 0, 96, 100
2, 251520, Note_on_c, 0, 72, 100
2, 251520, Note_on_c, 0, 61, 100
2, 252240, Note_on_c, 0, 108, 0
2, 253200, Note_on_c, 0, 98, 0
2, 253200, Note_on_c, 0, 86, 0
2, 253200, Note_on_c, 0, 74, 0
2, 253200, Note_on_c, 0, 62, 0
2, 253200, Note_on_c, 0, 84, 0
2, 253200, Note_on_c, 0, 96, 0
2, 253200, Note_on_c, 0, 72, 0
2, 253200, Note_on_c, 0, 61, 0
2, 253410, Note_on_c, 0, 106, 0
2, 253410, Note_on_c, 0, 94, 0
2, 253410, Note_on_c, 0, 70, 0
2, 253410, Note_on_c, 0, 82, 0
2, 253410, Note_on_c, 0, 103, 0
2, 253410, Note_on_c, 0, 91, 0
2, 253410, Note_on_c, 0, 67, 0
2, 253410, Note_on_c, 0, 79, 0
2, 253440, Note_on_c, 0, 96, 100
2, 253440, Note_on_c, 0, 84, 100
2, 253440, Note_on_c, 0, 72, 100
2, 253440, Note_on_c, 0, 60, 100
2, 253680, Note_on_c, 0, 60, 0
2, 254400, Note_on_c, 0, 96, 0
2, 254400, Note_on_c, 0, 84, 0
2, 254400, Note_on_c, 0, 72, 0
2, 254400, Note_on_c, 0, 99, 100
2, 254400, Note_on_c, 0, 87, 100
2, 254400, Note_on_c, 0, 75, 100
2, 254400, Note_on_c, 0, 62, 100
2, 254400, Note_on_c, 0, 108, 100
2, 254640, Note_on_c, 0, 62, 0
2, 255360, Note_on_c, 0, 99, 0
2, 255360, Note_on_c, 0, 87, 0
2, 255360, Note_on_c, 0, 108, 0
2, 255360, Note_on_c, 0, 96, 100
2, 255360, Note_on_c, 0, 84, 100
2, 255600, Note_on_c, 0, 96, 0
2, 255600, Note_on_c, 0, 84, 0
2, 255840, Note_on_c, 0, 75, 0
2, 255840, Note_on_c, 0, 98, 100
2, 255840, Note_on_c, 0, 86, 100
2, 255840, Note_on_c, 0, 74, 100
2, 255840, Note_on_c, 0, 108, 100
2, 256560, Note_on_c, 0, 108, 0
2, 256800, Note_on_c, 0, 98, 0
2, 256800, Note_on_c, 0, 86, 0
2, 256800, Note_on_c, 0, 96, 100
2, 256800, Note_on_c, 0, 84, 100
2, 256800, Note_on_c, 0, 108, 100
2, 257040, Note_on_c, 0, 96, 0
2, 257040, Note_on_c, 0, 84, 0
2, 257040, Note_on_c, 0, 108, 0
2, 257280, Note_on_c, 0, 74, 0
2, 257280, Note_on_c, 0, 97, 100
2, 257280, Note_on_c, 0, 85, 100
2, 257280, Note_on_c, 0, 73, 100
2, 257280, Note_on_c, 0, 61, 100
2, 257280, Note_on_c, 0, 108, 100
2, 257520, Note_on_c, 0, 61, 0
2, 258240, Note_on_c, 0, 97, 0
2, 258240, Note_on_c, 0, 85, 0
2, 258240, Note_on_c, 0, 108, 0
2, 258240, Note_on_c, 0, 96, 100
2, 258240, Note_on_c, 0, 84, 100
2, 258480, Note_on_c, 0, 96, 0
2, 258480, Note_on_c, 0, 84, 0
2, 258720, Note_on_c, 0, 73, 0
2, 258720, Note_on_c, 0, 98, 100
2, 258720, Note_on_c, 0, 86, 100
2, 258720, Note_on_c, 0, 74, 100
2, 258720, Note_on_c, 0, 60, 100
2, 258720, Note_on_c, 0, 108, 100
2, 258960, Note_on_c, 0, 60, 0
2, 259680, Note_on_c, 0, 98, 0
2, 259680, Note_on_c, 0, 86, 0
2, 259680, Note_on_c, 0, 108, 0
2, 259680, Note_on_c, 0, 97, 100
2, 259680, Note_on_c, 0, 85, 100
2, 259920, Note_on_c, 0, 97, 0
2, 259920, Note_on_c, 0, 85, 0
2, 260160, Note_on_c, 0, 74, 0
2, 260160, Note_on_c, 0, 96, 100
2, 260160, Note_on_c, 0, 84, 100
2, 260160, Note_on_c, 0, 72, 100
2, 260160, Note_on_c, 0, 60, 100
2, 260160, Note_on_c, 0, 108, 100
2, 260400, Note_on_c, 0, 96, 0
2, 260400, Note_on_c, 0, 84, 0
2, 260400, Note_on_c, 0, 72, 0
2, 260400, Note_on_c, 0, 60, 0
2, 261090, Note_on_c, 0, 105, 0
2, 261090, Note_on_c, 0, 93, 0
2, 261090, Note_on_c, 0, 69, 0
2, 261090, Note_on_c, 0, 81, 0
2, 261090, Note_on_c, 0, 106, 100
2, 261090, Note_on_c, 0, 94, 100
2, 261090, Note_on_c, 0, 70, 100
2, 261090, Note_on_c, 0, 82, 100
2, 261120, Note_on_c, 0, 108, 0
2, 261120, Note_on_c, 0, 96, 100
2, 261120, Note_on_c, 0, 84, 100
2, 261120, Note_on_c, 0, 72, 100
2, 261120, Note_on_c, 0, 60, 100
2, 261360, Note_on_c, 0, 60, 0
2, 262080, Note_on_c, 0, 96, 0
2, 262080, Note_on_c, 0, 84, 0
2, 262080, Note_on_c, 0, 72, 0
2, 262080, Note_on_c, 0, 98, 100
2, 262080, Note_on_c, 0, 86, 100
2, 262080, Note_on_c, 0, 74, 100
2, 262080, Note_on_c, 0, 61, 100
2, 262080, Note_on_c, 0, 108, 100
2, 262320, Note_on_c, 0, 61, 0
2, 263040, Note_on_c, 0, 98, 0
2, 263040, Note_on_c, 0, 86, 0
2, 263040, Note_on_c, 0, 108, 0
2, 263040, Note_on_c, 0, 96, 100
2, 263040, Note_on_c, 0, 84, 100
2, 263280, Note_on_c, 0, 96, 0
2, 263280, Note_on_c, 0, 84, 0
2, 263520, Note_on_c, 0, 74, 0
2, 263520, Note_on_c, 0, 97, 100
2, 263520, Note_on_c, 0, 85, 100
2, 263520, Note_on_c, 0, 73, 100
2, 263520, Note_on_c, 0, 108, 100
2, 264480, Note_on_c, 0, 97, 0
2, 264480, Note_on_c, 0, 85, 0
2, 264480, Note_on_c, 0, 108, 0
2, 264480, Note_on_c, 0, 96, 100
2, 264480, Note_on_c, 0, 84, 100
2, 264720, Note_on_c, 0, 96, 0
2, 264720, Note_on_c, 0, 84, 0
2, 264960, Note_on_c, 0, 73, 0
2, 264960, Note_on_c, 0, 99, 100
2, 264960, Note_on_c, 0, 87, 100
2, 264960, Note_on_c, 0, 75, 100
2, 264960, Note_on_c, 0, 62, 100
2, 264960, Note_on_c, 0, 108, 100
2, 265200, Note_on_c, 0, 62, 0
2, 265890, Note_on_c, 0, 105, 100
2, 265890, Note_on_c, 0, 93, 100
2, 265890, Note_on_c, 0, 69, 100
2, 265890, Note_on_c, 0, 81, 100
2, 265920, Note_on_c, 0, 99, 0
2, 265920, Note_on_c, 0, 87, 0
2, 265920, Note_on_c, 0, 75, 0
2, 266160, Note_on_c, 0, 108, 0
2, 266400, Note_on_c, 0, 98, 100
2, 266400, Note_on_c, 0, 74, 100
2, 266400, Note_on_c, 0, 62, 100
2, 266400, Note_on_c, 0, 87, 100
2, 266400, Note_on_c, 0, 108, 100
2, 266640, Note_on_c, 0, 98, 0
2, 266640, Note_on_c, 0, 74, 0
2, 266640, Note_on_c, 0, 62, 0
2, 266640, Note_on_c, 0, 87, 0
2, 266640, Note_on_c, 0, 108, 0
2, 266640, Note_on_c, 0, 99, 100
2, 266880, Note_on_c, 0, 99, 0
2, 266880, Note_on_c, 0, 98, 100
2, 266880, Note_on_c, 0, 86, 100
2, 266880, Note_on_c, 0, 108, 100
2, 267120, Note_on_c, 0, 98, 0
2, 267120, Note_on_c, 0, 86, 0
2, 267360, Note_on_c, 0, 97, 100
2, 267360, Note_on_c, 0, 85, 100
2, 267600, Note_on_c, 0, 97, 0
2, 267600, Note_on_c, 0, 85, 0
2, 267840, Note_on_c, 0, 108, 0
2, 267840, Note_on_c, 0, 96, 100
2, 267840, Note_on_c, 0, 84, 100
2, 267840, Note_on_c, 0, 72, 100
2, 267840, Note_on_c, 0, 61, 100
2, 268080, Note_on_c, 0, 96, 0
2, 268080, Note_on_c, 0, 84, 0
2, 268080, Note_on_c, 0, 72, 0
2, 268080, Note_on_c, 0, 61, 0
2, 268770, Note_on_c, 0, 105, 0
2, 268770, Note_on_c, 0, 93, 0
2, 268770, Note_on_c, 0, 69, 0
2, 268770, Note_on_c, 0, 81, 0
2, 268800, Note_on_c, 0, 96, 100
2, 268800, Note_on_c, 0, 84, 100
2, 268800, Note_on_c, 0, 72, 100
2, 268800, Note_on_c, 0, 60, 100
2, 269040, Note_on_c, 0, 60, 0
2, 269760, Note_on_c, 0, 96, 0
2, 269760, Note_on_c, 0, 84, 0
2, 269760, Note_on_c, 0, 72, 0
2, 269760, Note_on_c, 0, 99, 100
2, 269760, Note_on_c, 0, 87, 100
2, 269760, Note_on_c, 0, 75, 100
2, 269760, Note_on_c, 0, 62, 100
2, 269760, Note_on_c, 0, 108, 100
2, 270000, Note_on_c, 0, 62, 0
2, 270720, Note_on_c, 0, 99, 0
2, 270720, Note_on_c, 0, 87, 0
2, 270720, Note_on_c, 0, 108, 0
2, 270720, Note_on_c, 0, 96, 100
2, 270720, Note_on_c, 0, 84, 100
2, 270960, Note_on_c, 0, 96, 0
2, 270960, Note_on_c, 0, 84, 0
2, 271200, Note_on_c, 0, 75, 0
2, 271200, Note_on_c, 0, 98, 100
2, 271200, Note_on_c, 0, 86, 100
2, 271200, Note_on_c, 0, 74, 100
2, 271200, Note_on_c, 0, 108, 100
2, 272160, Note_on_c, 0, 98, 0
2, 272160, Note_on_c, 0, 86, 0
2, 272160, Note_on_c, 0, 108, 0
2, 272160, Note_on_c, 0, 96, 100
2, 272160, Note_on_c, 0, 84, 100
2, 272400, Note_on_c, 0, 96, 0
2, 272400, Note_on_c, 0, 84, 0
2, 272640, Note_on_c, 0, 74, 0
2, 272640, Note_on_c, 0, 97, 100
2, 272640, Note_on_c, 0, 85, 100
2, 272640, Note_on_c, 0, 73, 100
2, 272640, Note_on_c, 0, 61, 100
2, 272640, Note_on_c, 0, 108, 100
2, 272880, Note_on_c, 0, 61, 0
2, 272880, Note_on_c, 0, 108, 0
2, 273120, Note_on_c, 0, 108, 100
2, 273600, Note_on_c, 0, 97, 0
2, 273600, Note_on_c, 0, 85, 0
2, 273600, Note_on_c, 0, 96, 100
2, 273600, Note_on_c, 0, 84, 100
2, 273840, Note_on_c, 0, 108, 0
2, 273840, Note_on_c, 0, 96, 0
2, 273840, Note_on_c, 0, 84, 0
2, 274080, Note_on_c, 0, 73, 0
2, 274080, Note_on_c, 0, 98, 100
2, 274080, Note_on_c, 0, 86, 100
2, 274080, Note_on_c, 0, 74, 100
2, 274080, Note_on_c, 0, 60, 100
2, 274080, Note_on_c, 0, 108, 100
2, 274320, Note_on_c, 0, 60, 0
2, 275040, Note_on_c, 0, 98, 0
2, 275040, Note_on_c, 0, 86, 0
2, 275040, Note_on_c, 0, 97, 100
2, 275040, Note_on_c, 0, 85, 100
2, 275280, Note_on_c, 0, 97, 0
2, 275280, Note_on_c, 0, 85, 0
2, 275520, Note_on_c, 0, 74, 0
2, 275520, Note_on_c, 0, 108, 0
2, 275520, Note_on_c, 0, 96, 100
2, 275520, Note_on_c, 0, 84, 100
2, 275520, Note_on_c, 0, 72, 100
2, 275520, Note_on_c, 0, 60, 100
2, 275760, Note_on_c, 0, 96, 0
2, 275760, Note_on_c, 0, 84, 0
2, 275760, Note_on_c, 0, 72, 0
2, 275760, Note_on_c, 0, 60, 0
2, 276450, Note_on_c, 0, 106, 0
2, 276450, Note_on_c, 0, 94, 0
2, 276450, Note_on_c, 0, 70, 0
2, 276450, Note_on_c, 0, 82, 0
2, 276450, Note_on_c, 0, 105, 100
2, 276450, Note_on_c, 0, 93, 100
2, 276450, Note_on_c, 0, 69, 100
2, 276450, Note_on_c, 0, 81, 100
2, 276480, Note_on_c, 0, 96, 100
2, 276480, Note_on_c, 0, 84, 100
2, 276480, Note_on_c, 0, 72, 100
2, 276480, Note_on_c, 0, 60, 100
2, 276720, Note_on_c, 0, 60, 0
2, 277440, Note_on_c, 0, 96, 0
2, 277440, Note_on_c, 0, 84, 0
2, 277440, Note_on_c, 0, 72, 0
2, 277440, Note_on_c, 0, 98, 100
2, 277440, Note_on_c, 0, 86, 100
2, 277440, Note_on_c, 0, 74, 100
2, 277440, Note_on_c, 0, 61, 100
2, 277440, Note_on_c, 0, 108, 100
2, 277680, Note_on_c, 0, 61, 0
2, 278400, Note_on_c, 0, 98, 0
2, 278400, Note_on_c, 0, 86, 0
2, 278400, Note_on_c, 0, 108, 0
2, 278400, Note_on_c, 0, 96, 100
2, 278400, Note_on_c, 0, 84, 100
2, 278640, Note_on_c, 0, 96, 0
2, 278640, Note_on_c, 0, 84, 0
2, 278880, Note_on_c, 0, 74, 0
2, 278880, Note_on_c, 0, 97, 100
2, 278880, Note_on_c, 0, 85, 100
2, 278880, Note_on_c, 0, 73, 100
2, 278880, Note_on_c, 0, 108, 100
2, 279600, Note_on_c, 0, 108, 0
2, 279840, Note_on_c, 0, 97, 0
2, 279840, Note_on_c, 0, 85, 0
2, 279840, Note_on_c, 0, 96, 100
2, 279840, Note_on_c, 0, 84, 100
2, 279840, Note_on_c, 0, 108, 100
2, 280080, Note_on_c, 0, 96, 0
2, 280080, Note_on_c, 0, 84, 0
2, 280080, Note_on_c, 0, 108, 0
2, 280320, Note_on_c, 0, 73, 0
2, 280320, Note_on_c, 0, 99, 100
2, 280320, Note_on_c, 0, 87, 100
2, 280320, Note_on_c, 0, 75, 100
2, 280320, Note_on_c, 0, 62, 100
2, 280320, Note_on_c, 0, 108, 100
2, 280560, Note_on_c, 0, 62, 0
2, 280560, Note_on_c, 0, 108, 0
2, 280800, Note_on_c, 0, 108, 100
2, 281040, Note_on_c, 0, 108, 0
2, 281280, Note_on_c, 0, 99, 0
2, 281280, Note_on_c, 0, 87, 0
2, 281280, Note_on_c, 0, 75, 0
2, 281280, Note_on_c, 0, 108, 100
2, 281730, Note_on_c, 0, 106, 100
2, 281730, Note_on_c, 0, 94, 100
2, 281730, Note_on_c, 0, 70, 100
2, 281730, Note_on_c, 0, 82, 100
2, 281760, Note_on_c, 0, 98, 100
2, 281760, Note_on_c, 0, 74, 100
2, 281760, Note_on_c, 0, 62, 100
2, 281760, Note_on_c, 0, 87, 100
2, 282000, Note_on_c, 0, 98, 0
2, 282000, Note_on_c, 0, 74, 0
2, 282000, Note_on_c, 0, 62, 0
2, 282000, Note_on_c, 0, 87, 0
2, 282000, Note_on_c, 0, 99, 100
2, 282240, Note_on_c, 0, 99, 0
2, 282240, Note_on_c, 0, 98, 100
2, 282240, Note_on_c, 0, 86, 100
2, 282480, Note_on_c, 0, 98, 0
2, 282480, Note_on_c, 0, 86, 0
2, 282720, Note_on_c, 0, 97, 100
2, 282720, Note_on_c, 0, 85, 100
2, 282960, Note_on_c, 0, 108, 0
2, 282960, Note_on_c, 0, 97, 0
2, 282960, Note_on_c, 0, 85, 0
2, 283200, Note_on_c, 0, 96, 100
2, 283200, Note_on_c, 0, 84, 100
2, 283200, Note_on_c, 0, 72, 100
2, 283200, Note_on_c, 0, 60, 100
2, 283440, Note_on_c, 0, 96, 0
2, 283440, Note_on_c, 0, 84, 0
2, 283440, Note_on_c, 0, 72, 0
2, 283440, Note_on_c, 0, 60, 0
2, 284130, Note_on_c, 0, 105, 0
2, 284130, Note_on_c, 0, 93, 0
2, 284130, Note_on_c, 0, 69, 0
2, 284130, Note_on_c, 0, 81, 0
2, 284160, Note_on_c, 0, 97, 100
2, 284160, Note_on_c, 0, 85, 100
2, 284160, Note_on_c, 0, 73, 100
2, 284160, Note_on_c, 0, 61, 100
2, 284400, Note_on_c, 0, 61, 0
2, 285120, Note_on_c, 0, 97, 0
2, 285120, Note_on_c, 0, 85, 0
2, 285120, Note_on_c, 0, 73, 0
2, 285120, Note_on_c, 0, 98, 100
2, 285120, Note_on_c, 0, 86, 100
2, 285120, Note_on_c, 0, 74, 100
2, 285120, Note_on_c, 0, 62, 100
2, 285120, Note_on_c, 0, 108, 100
2, 285360, Note_on_c, 0, 62, 0
2, 286080, Note_on_c, 0, 98, 0
2, 286080, Note_on_c, 0, 86, 0
2, 286080, Note_on_c, 0, 108, 0
2, 286080, Note_on_c, 0, 96, 100
2, 286080, Note_on_c, 0, 84, 100
2, 286320, Note_on_c, 0, 96, 0
2, 286320, Note_on_c, 0, 84, 0
2, 286560, Note_on_c, 0, 74, 0
2, 286560, Note_on_c, 0, 97, 100
2, 286560, Note_on_c, 0, 85, 100
2, 286560, Note_on_c, 0, 73, 100
2, 286560, Note_on_c, 0, 108, 100
2, 287280, Note_on_c, 0, 108, 0
2, 287520, Note_on_c, 0, 97, 0
2, 287520, Note_on_c, 0, 85, 0
2, 287520, Note_on_c, 0, 96, 100
2, 287520, Note_on_c, 0, 84, 100
2, 287520, Note_on_c, 0, 108, 100
2, 287760, Note_on_c, 0, 73, 0
2, 287760, Note_on_c, 0, 96, 0
2, 287760, Note_on_c, 0, 84, 0
2, 287760, Note_on_c, 0, 108, 0
2, 287970, Note_on_c, 0, 105, 100
2, 287970, Note_on_c, 0, 93, 100
2, 287970, Note_on_c, 0, 69, 100
2, 287970, Note_on_c, 0, 81, 100
2, 288000, Note_on_c, 0, 98, 100
2, 288000, Note_on_c, 0, 86, 100
2, 288000, Note_on_c, 0, 74, 100
2, 288000, Note_on_c, 0, 62, 100
2, 288000, Note_on_c, 0, 108, 100
2, 288240, Note_on_c, 0, 98, 0
2, 288240, Note_on_c, 0, 86, 0
2, 288240, Note_on_c, 0, 74, 0
2, 288240, Note_on_c, 0, 62, 0
2, 288240, Note_on_c, 0, 108, 0
2, 288480, Note_on_c, 0, 98, 100
2, 288480, Note_on_c, 0, 86, 100
2, 288480, Note_on_c, 0, 74, 100
2, 288480, Note_on_c, 0, 108, 100
2, 288720, Note_on_c, 0, 98, 0
2, 288720, Note_on_c, 0, 86, 0
2, 288720, Note_on_c, 0, 74, 0
2, 288720, Note_on_c, 0, 108, 0
2, 288960, Note_on_c, 0, 98, 100
2, 288960, Note_on_c, 0, 86, 100
2, 288960, Note_on_c, 0, 74, 100
2, 288960, Note_on_c, 0, 62, 100
2, 288960, Note_on_c, 0, 108, 100
2, 289200, Note_on_c, 0, 98, 0
2, 289200, Note_on_c, 0, 86, 0
2, 289200, Note_on_c, 0, 74, 0
2, 289200, Note_on_c, 0, 62, 0
2, 289440, Note_on_c, 0, 98, 100
2, 289440, Note_on_c, 0, 86, 100
2, 289440, Note_on_c, 0, 74, 100
2, 289680, Note_on_c, 0, 98, 0
2, 289680, Note_on_c, 0, 86, 0
2, 289680, Note_on_c, 0, 74, 0
2, 289920, Note_on_c, 0, 98, 100
2, 289920, Note_on_c, 0, 86, 100
2, 289920, Note_on_c, 0, 74, 100
2, 289920, Note_on_c, 0, 62, 100
2, 289920, Note_on_c, 0, 84, 100
2, 289920, Note_on_c, 0, 72, 100
2, 289920, Note_on_c, 0, 96, 100
2, 289920, Note_on_c, 0, 61, 100
2, 290160, Note_on_c, 0, 108, 0
2, 290640, Note_on_c, 0, 108, 100
2, 291120, Note_on_c, 0, 108, 0
2, 291360, Note_on_c, 0, 108, 100
2, 291600, Note_on_c, 0, 98, 0
2, 291600, Note_on_c, 0, 86, 0
2, 291600, Note_on_c, 0, 74, 0
2, 291600, Note_on_c, 0, 62, 0
2, 291600, Note_on_c, 0, 84, 0
2, 291600, Note_on_c, 0, 72, 0
2, 291600, Note_on_c, 0, 96, 0
2, 291600, Note_on_c, 0, 61, 0
2, 291810, Note_on_c, 0, 106, 0
2, 291810, Note_on_c, 0, 94, 0
2, 291810, Note_on_c, 0, 70, 0
2, 291810, Note_on_c, 0, 82, 0
2, 291810, Note_on_c, 0, 103, 100
2, 291810, Note_on_c, 0, 91, 100
2, 291810, Note_on_c, 0, 67, 100
2, 291810, Note_on_c, 0, 79, 100
2, 291840, Note_on_c, 0, 108, 0
2, 291840, Note_on_c, 0, 100, 100
2, 291840, Note_on_c, 0, 75, 100
2, 291840, Note_on_c, 0, 62, 100
2, 291840, Note_on_c, 0, 87, 100
2, 292080, Note_on_c, 0, 75, 0
2, 292080, Note_on_c, 0, 62, 0
2, 292080, Note_on_c, 0, 108, 100
2, 292560, Note_on_c, 0, 108, 0
2, 292800, Note_on_c, 0, 100, 0
2, 292800, Note_on_c, 0, 87, 0
2, 292800, Note_on_c, 0, 100, 100
2, 292800, Note_on_c, 0, 75, 100
2, 292800, Note_on_c, 0, 87, 100
2, 292800, Note_on_c, 0, 108, 100
2, 293040, Note_on_c, 0, 75, 0
2, 293760, Note_on_c, 0, 100, 0
2, 293760, Note_on_c, 0, 87, 0
2, 293760, Note_on_c, 0, 100, 100
2, 293760, Note_on_c, 0, 75, 100
2, 293760, Note_on_c, 0, 62, 100
2, 293760, Note_on_c, 0, 87, 100
2, 294000, Note_on_c, 0, 75, 0
2, 294000, Note_on_c, 0, 62, 0
2, 294720, Note_on_c, 0, 100, 0
2, 294720, Note_on_c, 0, 87, 0
2, 294720, Note_on_c, 0, 100, 100
2, 294720, Note_on_c, 0, 75, 100
2, 294720, Note_on_c, 0, 87, 100
2, 294960, Note_on_c, 0, 100, 0
2, 294960, Note_on_c, 0, 75, 0
2, 294960, Note_on_c, 0, 87, 0
2, 295200, Note_on_c, 0, 98, 100
2, 295200, Note_on_c, 0, 85, 100
2, 295440, Note_on_c, 0, 108, 0
2, 295440, Note_on_c, 0, 98, 0
2, 295440, Note_on_c, 0, 85, 0
2, 295650, Note_on_c, 0, 103, 0
2, 295650, Note_on_c, 0, 91, 0
2, 295650, Note_on_c, 0, 67, 0
2, 295650, Note_on_c, 0, 79, 0
2, 295680, Note_on_c, 0, 100, 100
2, 295680, Note_on_c, 0, 75, 100
2, 295680, Note_on_c, 0, 62, 100
2, 295680, Note_on_c, 0, 87, 100
2, 295920, Note_on_c, 0, 75, 0
2, 295920, Note_on_c, 0, 62, 0
2, 296640, Note_on_c, 0, 100, 0
2, 296640, Note_on_c, 0, 87, 0
2, 296640, Note_on_c, 0, 100, 100
2, 296640, Note_on_c, 0, 75, 100
2, 296640, Note_on_c, 0, 87, 100
2, 296880, Note_on_c, 0, 75, 0
2, 297600, Note_on_c, 0, 100, 0
2, 297600, Note_on_c, 0, 87, 0
2, 297600, Note_on_c, 0, 100, 100
2, 297600, Note_on_c, 0, 75, 100
2, 297600, Note_on_c, 0, 62, 100
2, 297600, Note_on_c, 0, 87, 100
2, 297840, Note_on_c, 0, 100, 0
2, 297840, Note_on_c, 0, 75, 0
2, 297840, Note_on_c, 0, 62, 0
2, 297840, Note_on_c, 0, 87, 0
2, 298080, Note_on_c, 0, 99, 100
2, 298080, Note_on_c, 0, 86, 100
2, 298320, Note_on_c, 0, 99, 0
2, 298320, Note_on_c, 0, 86, 0
2, 298560, Note_on_c, 0, 98, 100
2, 298560, Note_on_c, 0, 73, 100
2, 298560, Note_on_c, 0, 85, 100
2, 298800, Note_on_c, 0, 98, 0
2, 298800, Note_on_c, 0, 73, 0
2, 298800, Note_on_c, 0, 85, 0
2, 299010, Note_on_c, 0, 105, 0
2, 299010, Note_on_c, 0, 93, 0
2, 299010, Note_on_c, 0, 69, 0
2, 299010, Note_on_c, 0, 81, 0
2, 299010, Note_on_c, 0, 106, 100
2, 299010, Note_on_c, 0, 94, 100
2, 299010, Note_on_c, 0, 70, 100
2, 299010, Note_on_c, 0, 82, 100
2, 299040, Note_on_c, 0, 99, 100
2, 299040, Note_on_c, 0, 74, 100
2, 299040, Note_on_c, 0, 61, 100
2, 299040, Note_on_c, 0, 86, 100
2, 301440, Note_on_c, 0, 99, 0
2, 301440, Note_on_c, 0, 74, 0
2, 301440, Note_on_c, 0, 86, 0
2, 301920, Note_on_c, 0, 61, 0
2, 301920, Note_on_c, 0, 100, 100
2, 301920, Note_on_c, 0, 88, 100
2, 301920, Note_on_c, 0, 75, 100
2, 301920, Note_on_c, 0, 61, 100
2, 302160, Note_on_c, 0, 100, 0
2, 302160, Note_on_c, 0, 88, 0
2, 302160, Note_on_c, 0, 75, 0
2, 302160, Note_on_c, 0, 61, 0
2, 302400, Note_on_c, 0, 99, 100
2, 302400, Note_on_c, 0, 87, 100
2, 302640, Note_on_c, 0, 99, 0
2, 302640, Note_on_c, 0, 87, 0
2, 302880, Note_on_c, 0, 97, 100
2, 302880, Note_on_c, 0, 85, 100
2, 302880, Note_on_c, 0, 73, 100
2, 302880, Note_on_c, 0, 60, 100
2, 305520, Note_on_c, 0, 97, 0
2, 305520, Note_on_c, 0, 85, 0
2, 305520, Note_on_c, 0, 73, 0
2, 305520, Note_on_c, 0, 60, 0
2, 305730, Note_on_c, 0, 106, 0
2, 305730, Note_on_c, 0, 94, 0
2, 305730, Note_on_c, 0, 70, 0
2, 305730, Note_on_c, 0, 82, 0
2, 305730, Note_on_c, 0, 105, 100
2, 305730, Note_on_c, 0, 93, 100
2, 305730, Note_on_c, 0, 69, 100
2, 305730, Note_on_c, 0, 81, 100
2, 305760, Note_on_c, 0, 96, 100
2, 305760, Note_on_c, 0, 84, 100
2, 305760, Note_on_c, 0, 60, 100
2, 305760, Note_on_c, 0, 72, 100
2, 306000, Note_on_c, 0, 96, 0
2, 306000, Note_on_c, 0, 84, 0
2, 306000, Note_on_c, 0, 60, 0
2, 306000, Note_on_c, 0, 72, 0
2, 306240, Note_on_c, 0, 97, 100
2, 306240, Note_on_c, 0, 85, 100
2, 306240, Note_on_c, 0, 73, 100
2, 306480, Note_on_c, 0, 97, 0
2, 306480, Note_on_c, 0, 85, 0
2, 306480, Note_on_c, 0, 73, 0
2, 306720, Note_on_c, 0, 96, 100
2, 306720, Note_on_c, 0, 84, 100
2, 306960, Note_on_c, 0, 96, 0
2, 306960, Note_on_c, 0, 84, 0
2, 307200, Note_on_c, 0, 99, 100
2, 307200, Note_on_c, 0, 87, 100
2, 307200, Note_on_c, 0, 74, 100
2, 307200, Note_on_c, 0, 62, 100
2, 307440, Note_on_c, 0, 99, 0
2, 307440, Note_on_c, 0, 87, 0
2, 307440, Note_on_c, 0, 74, 0
2, 307680, Note_on_c, 0, 98, 100
2, 307680, Note_on_c, 0, 86, 100
2, 307680, Note_on_c, 0, 73, 100
2, 310080, Note_on_c, 0, 98, 0
2, 310080, Note_on_c, 0, 86, 0
2, 310080, Note_on_c, 0, 99, 100
2, 310080, Note_on_c, 0, 87, 100
2, 310320, Note_on_c, 0, 99, 0
2, 310320, Note_on_c, 0, 87, 0
2, 310530, Note_on_c, 0, 105, 0
2, 310530, Note_on_c, 0, 93, 0
2, 310530, Note_on_c, 0, 69, 0
2, 310530, Note_on_c, 0, 81, 0
2, 310530, Note_on_c, 0, 106, 100
2, 310530, Note_on_c, 0, 94, 100
2, 310530, Note_on_c, 0, 70, 100
2, 310530, Note_on_c, 0, 82, 100
2, 310560, Note_on_c, 0, 98, 100
2, 310560, Note_on_c, 0, 86, 100
2, 310800, Note_on_c, 0, 98, 0
2, 310800, Note_on_c, 0, 86, 0
2, 311040, Note_on_c, 0, 62, 0
2, 311040, Note_on_c, 0, 73, 0
2, 311520, Note_on_c, 0, 97, 100
2, 311520, Note_on_c, 0, 85, 100
2, 311520, Note_on_c, 0, 73, 100
2, 311520, Note_on_c, 0, 61, 100
2, 311760, Note_on_c, 0, 97, 0
2, 311760, Note_on_c, 0, 85, 0
2, 311760, Note_on_c, 0, 73, 0
2, 311760, Note_on_c, 0, 61, 0
2, 312000, Note_on_c, 0, 96, 100
2, 312000, Note_on_c, 0, 84, 100
2, 312000, Note_on_c, 0, 72, 100
2, 312000, Note_on_c, 0, 60, 100
2, 312240, Note_on_c, 0, 96, 0
2, 312240, Note_on_c, 0, 84, 0
2, 312240, Note_on_c, 0, 72, 0
2, 312240, Note_on_c, 0, 60, 0
2, 312480, Note_on_c, 0, 98, 100
2, 312480, Note_on_c, 0, 86, 100
2, 312720, Note_on_c, 0, 98, 0
2, 312720, Note_on_c, 0, 86, 0
2, 312960, Note_on_c, 0, 96, 100
2, 312960, Note_on_c, 0, 84, 100
2, 312960, Note_on_c, 0, 72, 100
2, 312960, Note_on_c, 0, 60, 100
2, 313200, Note_on_c, 0, 60, 0
2, 314160, Note_on_c, 0, 96, 0
2, 314160, Note_on_c, 0, 84, 0
2, 314160, Note_on_c, 0, 72, 0
2, 314370, Note_on_c, 0, 106, 0
2, 314370, Note_on_c, 0, 94, 0
2, 314370, Note_on_c, 0, 70, 0
2, 314370, Note_on_c, 0, 82, 0
2, 314370, Note_on_c, 0, 105, 100
2, 314370, Note_on_c, 0, 93, 100
2, 314370, Note_on_c, 0, 69, 100
2, 314370, Note_on_c, 0, 81, 100
2, 314400, Note_on_c, 0, 97, 100
2, 314400, Note_on_c, 0, 85, 100
2, 314400, Note_on_c, 0, 73, 100
2, 314400, Note_on_c, 0, 61, 100
2, 314640, Note_on_c, 0, 73, 0
2, 314640, Note_on_c, 0, 61, 0
2, 315120, Note_on_c, 0, 97, 0
2, 315120, Note_on_c, 0, 85, 0
2, 315120, Note_on_c, 0, 86, 100
2, 315120, Note_on_c, 0, 98, 100
2, 315360, Note_on_c, 0, 86, 0
2, 315360, Note_on_c, 0, 98, 0
2, 315360, Note_on_c, 0, 87, 100
2, 315360, Note_on_c, 0, 99, 100
2, 315600, Note_on_c, 0, 87, 0
2, 315600, Note_on_c, 0, 99, 0
2, 315600, Note_on_c, 0, 96, 100
2, 315810, Note_on_c, 0, 105, 0
2, 315810, Note_on_c, 0, 93, 0
2, 315810, Note_on_c, 0, 69, 0
2, 315810, Note_on_c, 0, 81, 0
2, 315810, Note_on_c, 0, 106, 100
2, 315810, Note_on_c, 0, 94, 100
2, 315810, Note_on_c, 0, 70, 100
2, 315810, Note_on_c, 0, 82, 100
2, 315840, Note_on_c, 0, 96, 0
2, 315840, Note_on_c, 0, 72, 100
2, 315840, Note_on_c, 0, 97, 100
2, 315840, Note_on_c, 0, 85, 100
2, 316080, Note_on_c, 0, 72, 0
2, 316080, Note_on_c, 0, 97, 0
2, 316080, Note_on_c, 0, 85, 0
2, 316080, Note_on_c, 0, 98, 100
2, 316320, Note_on_c, 0, 98, 0
2, 316320, Note_on_c, 0, 97, 100
2, 316320, Note_on_c, 0, 85, 100
2, 316560, Note_on_c, 0, 97, 0
2, 316560, Note_on_c, 0, 85, 0
2, 316560, Note_on_c, 0, 98, 100
2, 316560, Note_on_c, 0, 86, 100
2, 316800, Note_on_c, 0, 98, 0
2, 316800, Note_on_c, 0, 86, 0
2, 316800, Note_on_c, 0, 73, 100
2, 316800, Note_on_c, 0, 61, 100
2, 316800, Note_on_c, 0, 99, 100
2, 316800, Note_on_c, 0, 87, 100
2, 317040, Note_on_c, 0, 73, 0
2, 317040, Note_on_c, 0, 61, 0
2, 317040, Note_on_c, 0, 99, 0
2, 317040, Note_on_c, 0, 87, 0
2, 317040, Note_on_c, 0, 97, 100
2, 317250, Note_on_c, 0, 106, 0
2, 317250, Note_on_c, 0, 94, 0
2, 317250, Note_on_c, 0, 70, 0
2, 317250, Note_on_c, 0, 82, 0
2, 317250, Note_on_c, 0, 105, 100
2, 317250, Note_on_c, 0, 93, 100
2, 317250, Note_on_c, 0, 69, 100
2, 317250, Note_on_c, 0, 81, 100
2, 317280, Note_on_c, 0, 97, 0
2, 317280, Note_on_c, 0, 86, 100
2, 317280, Note_on_c, 0, 98, 100
2, 317520, Note_on_c, 0, 86, 0
2, 317520, Note_on_c, 0, 98, 0
2, 317520, Note_on_c, 0, 87, 100
2, 317520, Note_on_c, 0, 99, 100
2, 317760, Note_on_c, 0, 87, 0
2, 317760, Note_on_c, 0, 99, 0
2, 317760, Note_on_c, 0, 74, 100
2, 317760, Note_on_c, 0, 88, 100
2, 317760, Note_on_c, 0, 100, 100
2, 318000, Note_on_c, 0, 74, 0
2, 318000, Note_on_c, 0, 88, 0
2, 318000, Note_on_c, 0, 100, 0
2, 318000, Note_on_c, 0, 99, 100
2, 318210, Note_on_c, 0, 105, 0
2, 318210, Note_on_c, 0, 93, 0
2, 318210, Note_on_c, 0, 69, 0
2, 318210, Note_on_c, 0, 81, 0
2, 318210, Note_on_c, 0, 106, 100
2, 318210, Note_on_c, 0, 94, 100
2, 318210, Note_on_c, 0, 70, 100
2, 318210, Note_on_c, 0, 82, 100
2, 318240, Note_on_c, 0, 99, 0
2, 318240, Note_on_c, 0, 97, 100
2, 318240, Note_on_c, 0, 86, 100
2, 318480, Note_on_c, 0, 97, 0
2, 318480, Note_on_c, 0, 86, 0
2, 318480, Note_on_c, 0, 98, 100
2, 318480, Note_on_c, 0, 87, 100
2, 318720, Note_on_c, 0, 98, 0
2, 318720, Note_on_c, 0, 87, 0
2, 318720, Note_on_c, 0, 73, 100
2, 318720, Note_on_c, 0, 62, 100
2, 318720, Note_on_c, 0, 99, 100
2, 318720, Note_on_c, 0, 88, 100
2, 318880, Note_on_c, 0, 99, 0
2, 318880, Note_on_c, 0, 100, 100
2, 318960, Note_on_c, 0, 73, 0
2, 318960, Note_on_c, 0, 62, 0
2, 318960, Note_on_c, 0, 88, 0
2, 319040, Note_on_c, 0, 100, 0
2, 319040, Note_on_c, 0, 99, 100
2, 319170, Note_on_c, 0, 106, 0
2, 319170, Note_on_c, 0, 94, 0
2, 319170, Note_on_c, 0, 70, 0
2, 319170, Note_on_c, 0, 82, 0
2, 319170, Note_on_c, 0, 105, 100
2, 319170, Note_on_c, 0, 93, 100
2, 319170, Note_on_c, 0, 69, 100
2, 319170, Note_on_c, 0, 81, 100
2, 319200, Note_on_c, 0, 99, 0
2, 319200, Note_on_c, 0, 97, 100
2, 319200, Note_on_c, 0, 85, 100
2, 319440, Note_on_c, 0, 97, 0
2, 319440, Note_on_c, 0, 85, 0
2, 319440, Note_on_c, 0, 87, 100
2, 319440, Note_on_c, 0, 99, 100
2, 319680, Note_on_c, 0, 87, 0
2, 319680, Note_on_c, 0, 99, 0
2, 319680, Note_on_c, 0, 75, 100
2, 319680, Note_on_c, 0, 88, 100
2, 319680, Note_on_c, 0, 100, 100
2, 320130, Note_on_c, 0, 105, 0
2, 320130, Note_on_c, 0, 93, 0
2, 320130, Note_on_c, 0, 69, 0
2, 320130, Note_on_c, 0, 81, 0
2, 320130, Note_on_c, 0, 106, 100
2, 320130, Note_on_c, 0, 94, 100
2, 320130, Note_on_c, 0, 70, 100
2, 320130, Note_on_c, 0, 82, 100
2, 320160, Note_on_c, 0, 88, 0
2, 320160, Note_on_c, 0, 100, 0
2, 320160, Note_on_c, 0, 99, 100
2, 320160, Note_on_c, 0, 87, 100
2, 320320, Note_on_c, 0, 99, 0
2, 320320, Note_on_c, 0, 100, 100
2, 320400, Note_on_c, 0, 87, 0
2, 320480, Note_on_c, 0, 100, 0
2, 320480, Note_on_c, 0, 99, 100
2, 320640, Note_on_c, 0, 75, 0
2, 320640, Note_on_c, 0, 99, 0
2, 320640, Note_on_c, 0, 86, 100
2, 320640, Note_on_c, 0, 74, 100
2, 320640, Note_on_c, 0, 61, 100
2, 320640, Note_on_c, 0, 98, 100
2, 320880, Note_on_c, 0, 86, 0
2, 320880, Note_on_c, 0, 74, 0
2, 320880, Note_on_c, 0, 61, 0
2, 320880, Note_on_c, 0, 98, 0
2, 320880, Note_on_c, 0, 85, 100
2, 320880, Note_on_c, 0, 97, 100
2, 321120, Note_on_c, 0, 85, 0
2, 321120, Note_on_c, 0, 97, 0
2, 321120, Note_on_c, 0, 84, 100
2, 321120, Note_on_c, 0, 73, 100
2, 321120, Note_on_c, 0, 96, 100
2, 322320, Note_on_c, 0, 84, 0
2, 322320, Note_on_c, 0, 73, 0
2, 322320, Note_on_c, 0, 96, 0
2, 322530, Note_on_c, 0, 106, 0
2, 322530, Note_on_c, 0, 94, 0
2, 322530, Note_on_c, 0, 70, 0
2, 322530, Note_on_c, 0, 82, 0
2, 322530, Note_on_c, 0, 105, 100
2, 322530, Note_on_c, 0, 93, 100
2, 322530, Note_on_c, 0, 69, 100
2, 322530, Note_on_c, 0, 81, 100
2, 322560, Note_on_c, 0, 72, 100
2, 322560, Note_on_c, 0, 60, 100
2, 322560, Note_on_c, 0, 98, 100
2, 322560, Note_on_c, 0, 86, 100
2, 322800, Note_on_c, 0, 72, 0
2, 322800, Note_on_c, 0, 60, 0
2, 322800, Note_on_c, 0, 98, 0
2, 322800, Note_on_c, 0, 86, 0
2, 322800, Note_on_c, 0, 97, 100
2, 322800, Note_on_c, 0, 85, 100
2, 323040, Note_on_c, 0, 97, 0
2, 323040, Note_on_c, 0, 85, 0
2, 323040, Note_on_c, 0, 84, 100
2, 323040, Note_on_c, 0, 96, 100
2, 323280, Note_on_c, 0, 84, 0
2, 323280, Note_on_c, 0, 96, 0
2, 323280, Note_on_c, 0, 97, 100
2, 323490, Note_on_c, 0, 105, 0
2, 323490, Note_on_c, 0, 93, 0
2, 323490, Note_on_c, 0, 69, 0
2, 323490, Note_on_c, 0, 81, 0
2, 323490, Note_on_c, 0, 106, 100
2, 323490, Note_on_c, 0, 94, 100
2, 323490, Note_on_c, 0, 70, 100
2, 323490, Note_on_c, 0, 82, 100
2, 323520, Note_on_c, 0, 97, 0
2, 323520, Note_on_c, 0, 72, 100
2, 323520, Note_on_c, 0, 98, 100
2, 323520, Note_on_c, 0, 86, 100
2, 323760, Note_on_c, 0, 72, 0
2, 323760, Note_on_c, 0, 98, 0
2, 323760, Note_on_c, 0, 86, 0
2, 323760, Note_on_c, 0, 97, 100
2, 323760, Note_on_c, 0, 85, 100
2, 324000, Note_on_c, 0, 97, 0
2, 324000, Note_on_c, 0, 85, 0
2, 324000, Note_on_c, 0, 84, 100
2, 324000, Note_on_c, 0, 96, 100
2, 324240, Note_on_c, 0, 84, 0
2, 324240, Note_on_c, 0, 96, 0
2, 324240, Note_on_c, 0, 97, 100
2, 324450, Note_on_c, 0, 106, 0
2, 324450, Note_on_c, 0, 94, 0
2, 324450, Note_on_c, 0, 70, 0
2, 324450, Note_on_c, 0, 82, 0
2, 324450, Note_on_c, 0, 105, 100
2, 324450, Note_on_c, 0, 93, 100
2, 324450, Note_on_c, 0, 69, 100
2, 324450, Note_on_c, 0, 81, 100
2, 324480, Note_on_c, 0, 97, 0
2, 324480, Note_on_c, 0, 73, 100
2, 324480, Note_on_c, 0, 61, 100
2, 324480, Note_on_c, 0, 99, 100
2, 324480, Note_on_c, 0, 87, 100
2, 324720, Note_on_c, 0, 73, 0
2, 324720, Note_on_c, 0, 61, 0
2, 324720, Note_on_c, 0, 99, 0
2, 324720, Note_on_c, 0, 87, 0
2, 324720, Note_on_c, 0, 97, 100
2, 324960, Note_on_c, 0, 97, 0
2, 324960, Note_on_c, 0, 96, 100
2, 325200, Note_on_c, 0, 96, 0
2, 325200, Note_on_c, 0, 73, 100
2, 325200, Note_on_c, 0, 61, 100
2, 325200, Note_on_c, 0, 99, 100
2, 325200, Note_on_c, 0, 87, 100
2, 325440, Note_on_c, 0, 73, 0
2, 325440, Note_on_c, 0, 61, 0
2, 325440, Note_on_c, 0, 99, 0
2, 325440, Note_on_c, 0, 87, 0
2, 325440, Note_on_c, 0, 97, 100
2, 325680, Note_on_c, 0, 97, 0
2, 325680, Note_on_c, 0, 96, 100
2, 325920, Note_on_c, 0, 96, 0
2, 325920, Note_on_c, 0, 72, 100
2, 325920, Note_on_c, 0, 98, 100
2, 325920, Note_on_c, 0, 86, 100
2, 326160, Note_on_c, 0, 72, 0
2, 326160, Note_on_c, 0, 98, 0
2, 326160, Note_on_c, 0, 86, 0
2, 326370, Note_on_c, 0, 105, 0
2, 326370, Note_on_c, 0, 93, 0
2, 326370, Note_on_c, 0, 69, 0
2, 326370, Note_on_c, 0, 81, 0
2, 326370, Note_on_c, 0, 106, 100
2, 326370, Note_on_c, 0, 94, 100
2, 326370, Note_on_c, 0, 70, 100
2, 326370, Note_on_c, 0, 82, 100
2, 326400, Note_on_c, 0, 73, 100
2, 326400, Note_on_c, 0, 60, 100
2, 326400, Note_on_c, 0, 99, 100
2, 326400, Note_on_c, 0, 87, 100
2, 326640, Note_on_c, 0, 73, 0
2, 326640, Note_on_c, 0, 60, 0
2, 326640, Note_on_c, 0, 99, 0
2, 326640, Note_on_c, 0, 87, 0
2, 326640, Note_on_c, 0, 98, 100
2, 326640, Note_on_c, 0, 86, 100
2, 326880, Note_on_c, 0, 98, 0
2, 326880, Note_on_c, 0, 86, 0
2, 326880, Note_on_c, 0, 85, 100
2, 326880, Note_on_c, 0, 97, 100
2, 327120, Note_on_c, 0, 85, 0
2, 327120, Note_on_c, 0, 97, 0
2, 327120, Note_on_c, 0, 98, 100
2, 327330, Note_on_c, 0, 106, 0
2, 327330, Note_on_c, 0, 94, 0
2, 327330, Note_on_c, 0, 70, 0
2, 327330, Note_on_c, 0, 82, 0
2, 327330, Note_on_c, 0, 105, 100
2, 327330, Note_on_c, 0, 93, 100
2, 327330, Note_on_c, 0, 69, 100
2, 327330, Note_on_c, 0, 81, 100
2, 327360, Note_on_c, 0, 98, 0
2, 327360, Note_on_c, 0, 73, 100
2, 327360, Note_on_c, 0, 99, 100
2, 327360, Note_on_c, 0, 87, 100
2, 327600, Note_on_c, 0, 73, 0
2, 327600, Note_on_c, 0, 99, 0
2, 327600, Note_on_c, 0, 87, 0
2, 327600, Note_on_c, 0, 98, 100
2, 327600, Note_on_c, 0, 86, 100
2, 327840, Note_on_c, 0, 98, 0
2, 327840, Note_on_c, 0, 86, 0
2, 327840, Note_on_c, 0, 85, 100
2, 327840, Note_on_c, 0, 97, 100
2, 328080, Note_on_c, 0, 85, 0
2, 328080, Note_on_c, 0, 97, 0
2, 328080, Note_on_c, 0, 98, 100
2, 328290, Note_on_c, 0, 105, 0
2, 328290, Note_on_c, 0, 93, 0
2, 328290, Note_on_c, 0, 69, 0
2, 328290, Note_on_c, 0, 81, 0
2, 328290, Note_on_c, 0, 106, 100
2, 328290, Note_on_c, 0, 94, 100
2, 328290, Note_on_c, 0, 70, 100
2, 328290, Note_on_c, 0, 82, 100
2, 328320, Note_on_c, 0, 98, 0
2, 328320, Note_on_c, 0, 74, 100
2, 328320, Note_on_c, 0, 61, 100
2, 328320, Note_on_c, 0, 100, 100
2, 328320, Note_on_c, 0, 88, 100
2, 328560, Note_on_c, 0, 74, 0
2, 328560, Note_on_c, 0, 61, 0
2, 328560, Note_on_c, 0, 100, 0
2, 328560, Note_on_c, 0, 88, 0
2, 328560, Note_on_c, 0, 98, 100
2, 328800, Note_on_c, 0, 98, 0
2, 328800, Note_on_c, 0, 97, 100
2, 329040, Note_on_c, 0, 97, 0
2, 329040, Note_on_c, 0, 74, 100
2, 329040, Note_on_c, 0, 61, 100
2, 329040, Note_on_c, 0, 100, 100
2, 329040, Note_on_c, 0, 88, 100
2, 329280, Note_on_c, 0, 74, 0
2, 329280, Note_on_c, 0, 61, 0
2, 329280, Note_on_c, 0, 100, 0
2, 329280, Note_on_c, 0, 88, 0
2, 329280, Note_on_c, 0, 98, 100
2, 329520, Note_on_c, 0, 98, 0
2, 329520, Note_on_c, 0, 97, 100
2, 329760, Note_on_c, 0, 97, 0
2, 329760, Note_on_c, 0, 73, 100
2, 329760, Note_on_c, 0, 99, 100
2, 329760, Note_on_c, 0, 86, 100
2, 330000, Note_on_c, 0, 73, 0
2, 330000, Note_on_c, 0, 99, 0
2, 330000, Note_on_c, 0, 86, 0
2, 330210, Note_on_c, 0, 106, 0
2, 330210, Note_on_c, 0, 94, 0
2, 330210, Note_on_c, 0, 70, 0
2, 330210, Note_on_c, 0, 82, 0
2, 330210, Note_on_c, 0, 105, 100
2, 330210, Note_on_c, 0, 93, 100
2, 330210, Note_on_c, 0, 69, 100
2, 330210, Note_on_c, 0, 81, 100
2, 330240, Note_on_c, 0, 87, 100
2, 330240, Note_on_c, 0, 74, 100
2, 330240, Note_on_c, 0, 61, 100
2, 330240, Note_on_c, 0, 100, 100
2, 330480, Note_on_c, 0, 87, 0
2, 330480, Note_on_c, 0, 74, 0
2, 330480, Note_on_c, 0, 61, 0
2, 330480, Note_on_c, 0, 100, 0
2, 330480, Note_on_c, 0, 98, 100
2, 330480, Note_on_c, 0, 86, 100
2, 330720, Note_on_c, 0, 98, 0
2, 330720, Note_on_c, 0, 86, 0
2, 330720, Note_on_c, 0, 97, 100
2, 330720, Note_on_c, 0, 85, 100
2, 330960, Note_on_c, 0, 97, 0
2, 330960, Note_on_c, 0, 85, 0
2, 330960, Note_on_c, 0, 98, 100
2, 331170, Note_on_c, 0, 105, 0
2, 331170, Note_on_c, 0, 93, 0
2, 331170, Note_on_c, 0, 69, 0
2, 331170, Note_on_c, 0, 81, 0
2, 331170, Note_on_c, 0, 106, 100
2, 331170, Note_on_c, 0, 94, 100
2, 331170, Note_on_c, 0, 70, 100
2, 331170, Note_on_c, 0, 82, 100
2, 331200, Note_on_c, 0, 98, 0
2, 331200, Note_on_c, 0, 87, 100
2, 331200, Note_on_c, 0, 74, 100
2, 331200, Note_on_c, 0, 100, 100
2, 331440, Note_on_c, 0, 87, 0
2, 331440, Note_on_c, 0, 74, 0
2, 331440, Note_on_c, 0, 100, 0
2, 331440, Note_on_c, 0, 99, 100
2, 331440, Note_on_c, 0, 86, 100
2, 331680, Note_on_c, 0, 99, 0
2, 331680, Note_on_c, 0, 86, 0
2, 331680, Note_on_c, 0, 98, 100
2, 331680, Note_on_c, 0, 85, 100
2, 331920, Note_on_c, 0, 98, 0
2, 331920, Note_on_c, 0, 85, 0
2, 331920, Note_on_c, 0, 99, 100
2, 332130, Note_on_c, 0, 106, 0
2, 332130, Note_on_c, 0, 94, 0
2, 332130, Note_on_c, 0, 70, 0
2, 332130, Note_on_c, 0, 82, 0
2, 332130, Note_on_c, 0, 105, 100
2, 332130, Note_on_c, 0, 93, 100
2, 332130, Note_on_c, 0, 69, 100
2, 332130, Note_on_c, 0, 81, 100
2, 332160, Note_on_c, 0, 99, 0
2, 332160, Note_on_c, 0, 88, 100
2, 332160, Note_on_c, 0, 75, 100
2, 332160, Note_on_c, 0, 62, 100
2, 332160, Note_on_c, 0, 100, 100
2, 332400, Note_on_c, 0, 88, 0
2, 332400, Note_on_c, 0, 75, 0
2, 332400, Note_on_c, 0, 62, 0
2, 332400, Note_on_c, 0, 100, 0
2, 332400, Note_on_c, 0, 99, 100
2, 332640, Note_on_c, 0, 99, 0
2, 332640, Note_on_c, 0, 98, 100
2, 332880, Note_on_c, 0, 98, 0
2, 332880, Note_on_c, 0, 99, 100
2, 332880, Note_on_c, 0, 87, 100
2, 333120, Note_on_c, 0, 99, 0
2, 333120, Note_on_c, 0, 87, 0
2, 333120, Note_on_c, 0, 75, 100
2, 333120, Note_on_c, 0, 61, 100
2, 333120, Note_on_c, 0, 98, 100
2, 333360, Note_on_c, 0, 75, 0
2, 333360, Note_on_c, 0, 61, 0
2, 333360, Note_on_c, 0, 98, 0
2, 333360, Note_on_c, 0, 97, 100
2, 333600, Note_on_c, 0, 97, 0
2, 333600, Note_on_c, 0, 74, 100
2, 333600, Note_on_c, 0, 96, 100
2, 333600, Note_on_c, 0, 85, 100
2, 333840, Note_on_c, 0, 74, 0
2, 333840, Note_on_c, 0, 96, 0
2, 333840, Note_on_c, 0, 85, 0
2, 334080, Note_on_c, 0, 73, 100
2, 334080, Note_on_c, 0, 62, 100
2, 334080, Note_on_c, 0, 98, 100
2, 334080, Note_on_c, 0, 86, 100
2, 334320, Note_on_c, 0, 73, 0
2, 334320, Note_on_c, 0, 62, 0
2, 334320, Note_on_c, 0, 98, 0
2, 334320, Note_on_c, 0, 86, 0
2, 334530, Note_on_c, 0, 105, 0
2, 334530, Note_on_c, 0, 93, 0
2, 334530, Note_on_c, 0, 69, 0
2, 334530, Note_on_c, 0, 81, 0
2, 334530, Note_on_c, 0, 106, 100
2, 334530, Note_on_c, 0, 94, 100
2, 334530, Note_on_c, 0, 70, 100
2, 334530, Note_on_c, 0, 82, 100
2, 334560, Note_on_c, 0, 96, 100
2, 334800, Note_on_c, 0, 96, 0
2, 334800, Note_on_c, 0, 97, 100
2, 335010, Note_on_c, 0, 67, 100
2, 335040, Note_on_c, 0, 97, 0
2, 335040, Note_on_c, 0, 86, 100
2, 335040, Note_on_c, 0, 74, 100
2, 335040, Note_on_c, 0, 98, 100
2, 335040, Note_on_c, 0, 61, 100
2, 335280, Note_on_c, 0, 86, 0
2, 335280, Note_on_c, 0, 74, 0
2, 335280, Note_on_c, 0, 98, 0
2, 335280, Note_on_c, 0, 61, 0
2, 335280, Note_on_c, 0, 85, 100
2, 335280, Note_on_c, 0, 97, 100
2, 335490, Note_on_c, 0, 103, 100
2, 335490, Note_on_c, 0, 91, 100
2, 335490, Note_on_c, 0, 79, 100
2, 335520, Note_on_c, 0, 85, 0
2, 335520, Note_on_c, 0, 97, 0
2, 335520, Note_on_c, 0, 84, 100
2, 335520, Note_on_c, 0, 72, 100
2, 335520, Note_on_c, 0, 96, 100
2, 335760, Note_on_c, 0, 84, 0
2, 335760, Note_on_c, 0, 72, 0
2, 335760, Note_on_c, 0, 96, 0
2, 335760, Note_on_c, 0, 85, 100
2, 335760, Note_on_c, 0, 97, 100
2, 336000, Note_on_c, 0, 85, 0
2, 336000, Note_on_c, 0, 97, 0
2, 336000, Note_on_c, 0, 86, 100
2, 336000, Note_on_c, 0, 74, 100
2, 336000, Note_on_c, 0, 62, 100
2, 336000, Note_on_c, 0, 99, 100
2, 337680, Note_on_c, 0, 86, 0
2, 337680, Note_on_c, 0, 74, 0
2, 337680, Note_on_c, 0, 62, 0
2, 337680, Note_on_c, 0, 99, 0
2, 337890, Note_on_c, 0, 106, 0
2, 337890, Note_on_c, 0, 94, 0
2, 337890, Note_on_c, 0, 70, 0
2, 337890, Note_on_c, 0, 82, 0
2, 337890, Note_on_c, 0, 67, 0
2, 337890, Note_on_c, 0, 103, 0
2, 337890, Note_on_c, 0, 91, 0
2, 337890, Note_on_c, 0, 79, 0
2, 337890, Note_on_c, 0, 105, 100
2, 337890, Note_on_c, 0, 93, 100
2, 337890, Note_on_c, 0, 69, 100
2, 337890, Note_on_c, 0, 81, 100
2, 337920, Note_on_c, 0, 86, 100
2, 337920, Note_on_c, 0, 74, 100
2, 337920, Note_on_c, 0, 61, 100
2, 337920, Note_on_c, 0, 98, 100
2, 338160, Note_on_c, 0, 86, 0
2, 338160, Note_on_c, 0, 74, 0
2, 338160, Note_on_c, 0, 61, 0
2, 338160, Note_on_c, 0, 98, 0
2, 338160, Note_on_c, 0, 97, 100
2, 338160, Note_on_c, 0, 85, 100
2, 338400, Note_on_c, 0, 97, 0
2, 338400, Note_on_c, 0, 85, 0
2, 338400, Note_on_c, 0, 84, 100
2, 338400, Note_on_c, 0, 72, 100
2, 338400, Note_on_c, 0, 96, 100
2, 338640, Note_on_c, 0, 84, 0
2, 338640, Note_on_c, 0, 72, 0
2, 338640, Note_on_c, 0, 96, 0
2, 338640, Note_on_c, 0, 97, 100
2, 338880, Note_on_c, 0, 97, 0
2, 338880, Note_on_c, 0, 86, 100
2, 338880, Note_on_c, 0, 73, 100
2, 338880, Note_on_c, 0, 98, 100
2, 339120, Note_on_c, 0, 86, 0
2, 339120, Note_on_c, 0, 73, 0
2, 339120, Note_on_c, 0, 98, 0
2, 339120, Note_on_c, 0, 99, 100
2, 339360, Note_on_c, 0, 99, 0
2, 339360, Note_on_c, 0, 87, 100
2, 339360, Note_on_c, 0, 100, 100
2, 339600, Note_on_c, 0, 87, 0
2, 339600, Note_on_c, 0, 100, 0
2, 339810, Note_on_c, 0, 105, 0
2, 339810, Note_on_c, 0, 93, 0
2, 339810, Note_on_c, 0, 69, 0
2, 339810, Note_on_c, 0, 81, 0
2, 339810, Note_on_c, 0, 106, 100
2, 339810, Note_on_c, 0, 94, 100
2, 339810, Note_on_c, 0, 70, 100
2, 339810, Note_on_c, 0, 82, 100
2, 339840, Note_on_c, 0, 86, 100
2, 339840, Note_on_c, 0, 74, 100
2, 339840, Note_on_c, 0, 61, 100
2, 339840, Note_on_c, 0, 98, 100
2, 340080, Note_on_c, 0, 86, 0
2, 340080, Note_on_c, 0, 74, 0
2, 340080, Note_on_c, 0, 61, 0
2, 340080, Note_on_c, 0, 98, 0
2, 340080, Note_on_c, 0, 85, 100
2, 340080, Note_on_c, 0, 97, 100
2, 340320, Note_on_c, 0, 85, 0
2, 340320, Note_on_c, 0, 97, 0
2, 340320, Note_on_c, 0, 84, 100
2, 340320, Note_on_c, 0, 72, 100
2, 340320, Note_on_c, 0, 96, 100
2, 340560, Note_on_c, 0, 84, 0
2, 340560, Note_on_c, 0, 72, 0
2, 340560, Note_on_c, 0, 96, 0
2, 340560, Note_on_c, 0, 97, 100
2, 340800, Note_on_c, 0, 97, 0
2, 340800, Note_on_c, 0, 86, 100
2, 340800, Note_on_c, 0, 73, 100
2, 340800, Note_on_c, 0, 98, 100
2, 341040, Note_on_c, 0, 86, 0
2, 341040, Note_on_c, 0, 73, 0
2, 341040, Note_on_c, 0, 98, 0
2, 341040, Note_on_c, 0, 99, 100
2, 341280, Note_on_c, 0, 99, 0
2, 341280, Note_on_c, 0, 87, 100
2, 341280, Note_on_c, 0, 99, 100
2, 341520, Note_on_c, 0, 87, 0
2, 341520, Note_on_c, 0, 99, 0
2, 341520, Note_on_c, 0, 100, 100
2, 341730, Note_on_c, 0, 106, 0
2, 341730, Note_on_c, 0, 94, 0
2, 341730, Note_on_c, 0, 70, 0
2, 341730, Note_on_c, 0, 82, 0
2, 341730, Note_on_c, 0, 105, 100
2, 341730, Note_on_c, 0, 93, 100
2, 341730, Note_on_c, 0, 69, 100
2, 341730, Note_on_c, 0, 81, 100
2, 341760, Note_on_c, 0, 100, 0
2, 341760, Note_on_c, 0, 86, 100
2, 341760, Note_on_c, 0, 74, 100
2, 341760, Note_on_c, 0, 61, 100
2, 341760, Note_on_c, 0, 98, 100
2, 342000, Note_on_c, 0, 86, 0
2, 342000, Note_on_c, 0, 74, 0
2, 342000, Note_on_c, 0, 61, 0
2, 342000, Note_on_c, 0, 98, 0
2, 342240, Note_on_c, 0, 73, 100
2, 342240, Note_on_c, 0, 98, 100
2, 342240, Note_on_c, 0, 86, 100
2, 342480, Note_on_c, 0, 73, 0
2, 342480, Note_on_c, 0, 98, 0
2, 342480, Note_on_c, 0, 86, 0
2, 342480, Note_on_c, 0, 97, 100
2, 342720, Note_on_c, 0, 97, 0
2, 342720, Note_on_c, 0, 85, 100
2, 342720, Note_on_c, 0, 72, 100
2, 342720, Note_on_c, 0, 96, 100
2, 342960, Note_on_c, 0, 85, 0
2, 342960, Note_on_c, 0, 72, 0
2, 342960, Note_on_c, 0, 96, 0
2, 343200, Note_on_c, 0, 87, 100
2, 343200, Note_on_c, 0, 97, 100
2, 343440, Note_on_c, 0, 87, 0
2, 343440, Note_on_c, 0, 97, 0
2, 343680, Note_on_c, 0, 86, 100
2, 343680, Note_on_c, 0, 62, 100
2, 343680, Note_on_c, 0, 98, 100
2, 343680, Note_on_c, 0, 74, 100
2, 343920, Note_on_c, 0, 86, 0
2, 343920, Note_on_c, 0, 62, 0
2, 343920, Note_on_c, 0, 98, 0
2, 343920, Note_on_c, 0, 74, 0
2, 343920, Note_on_c, 0, 88, 100
2, 343920, Note_on_c, 0, 100, 100
2, 344160, Note_on_c, 0, 88, 0
2, 344160, Note_on_c, 0, 100, 0
2, 344160, Note_on_c, 0, 87, 100
2, 344160, Note_on_c, 0, 99, 100
2, 344400, Note_on_c, 0, 87, 0
2, 344400, Note_on_c, 0, 99, 0
2, 344400, Note_on_c, 0, 98, 100
2, 344640, Note_on_c, 0, 98, 0
2, 344640, Note_on_c, 0, 86, 100
2, 344640, Note_on_c, 0, 61, 100
2, 344640, Note_on_c, 0, 73, 100
2, 344640, Note_on_c, 0, 98, 100
2, 344880, Note_on_c, 0, 86, 0
2, 344880, Note_on_c, 0, 61, 0
2, 344880, Note_on_c, 0, 73, 0
2, 344880, Note_on_c, 0, 98, 0
2, 344880, Note_on_c, 0, 97, 100
2, 345120, Note_on_c, 0, 97, 0
2, 345120, Note_on_c, 0, 96, 100
2, 345360, Note_on_c, 0, 96, 0
2, 345600, Note_on_c, 0, 85, 100
2, 345600, Note_on_c, 0, 60, 100
2, 345600, Note_on_c, 0, 97, 100
2, 345600, Note_on_c, 0, 72, 100
2, 346800, Note_on_c, 0, 85, 0
2, 346800, Note_on_c, 0, 60, 0
2, 346800, Note_on_c, 0, 97, 0
2, 346800, Note_on_c, 0, 72, 0
2, 347010, Note_on_c, 0, 106, 100
2, 347010, Note_on_c, 0, 94, 100
2, 347010, Note_on_c, 0, 70, 100
2, 347010, Note_on_c, 0, 82, 100
2, 347040, Note_on_c, 0, 62, 100
2, 347040, Note_on_c, 0, 100, 100
2, 347040, Note_on_c, 0, 74, 100
2, 347040, Note_on_c, 0, 88, 100
2, 347200, Note_on_c, 0, 100, 0
2, 347200, Note_on_c, 0, 99, 100
2, 347280, Note_on_c, 0, 62, 0
2, 347280, Note_on_c, 0, 74, 0
2, 347280, Note_on_c, 0, 88, 0
2, 347280, Note_on_c, 0, 87, 100
2, 347360, Note_on_c, 0, 99, 0
2, 347360, Note_on_c, 0, 98, 100
2, 347520, Note_on_c, 0, 87, 0
2, 347520, Note_on_c, 0, 98, 0
2, 347520, Note_on_c, 0, 100, 100
2, 347520, Note_on_c, 0, 88, 100
2, 347760, Note_on_c, 0, 100, 0
2, 347760, Note_on_c, 0, 88, 0
2, 348000, Note_on_c, 0, 100, 100
2, 348000, Note_on_c, 0, 74, 100
2, 348000, Note_on_c, 0, 88, 100
2, 348160, Note_on_c, 0, 100, 0
2, 348160, Note_on_c, 0, 99, 100
2, 348240, Note_on_c, 0, 74, 0
2, 348240, Note_on_c, 0, 88, 0
2, 348240, Note_on_c, 0, 87, 100
2, 348320, Note_on_c, 0, 99, 0
2, 348320, Note_on_c, 0, 98, 100
2, 348480, Note_on_c, 0, 87, 0
2, 348480, Note_on_c, 0, 98, 0
2, 348480, Note_on_c, 0, 86, 100
2, 348480, Note_on_c, 0, 98, 100
2, 348720, Note_on_c, 0, 86, 0
2, 348720, Note_on_c, 0, 98, 0
2, 348960, Note_on_c, 0, 62, 100
2, 348960, Note_on_c, 0, 100, 100
2, 348960, Note_on_c, 0, 74, 100
2, 348960, Note_on_c, 0, 88, 100
2, 349120, Note_on_c, 0, 100, 0
2, 349120, Note_on_c, 0, 99, 100
2, 349200, Note_on_c, 0, 62, 0
2, 349200, Note_on_c, 0, 74, 0
2, 349200, Note_on_c, 0, 88, 0
2, 349200, Note_on_c, 0, 87, 100
2, 349280, Note_on_c, 0, 99, 0
2, 349280, Note_on_c, 0, 98, 100
2, 349440, Note_on_c, 0, 87, 0
2, 349440, Note_on_c, 0, 98, 0
2, 349440, Note_on_c, 0, 88, 100
2, 349440, Note_on_c, 0, 100, 100
2, 349680, Note_on_c, 0, 88, 0
2, 349680, Note_on_c, 0, 100, 0
2, 349920, Note_on_c, 0, 100, 100
2, 349920, Note_on_c, 0, 74, 100
2, 349920, Note_on_c, 0, 88, 100
2, 350080, Note_on_c, 0, 100, 0
2, 350080, Note_on_c, 0, 99, 100
2, 350160, Note_on_c, 0, 74, 0
2, 350160, Note_on_c, 0, 88, 0
2, 350160, Note_on_c, 0, 87, 100
2, 350240, Note_on_c, 0, 99, 0
2, 350240, Note_on_c, 0, 98, 100
2, 350400, Note_on_c, 0, 87, 0
2, 350400, Note_on_c, 0, 98, 0
2, 350400, Note_on_c, 0, 86, 100
2, 350400, Note_on_c, 0, 98, 100
2, 350640, Note_on_c, 0, 86, 0
2, 350640, Note_on_c, 0, 98, 0
2, 350850, Note_on_c, 0, 103, 100
2, 350850, Note_on_c, 0, 91, 100
2, 350850, Note_on_c, 0, 67, 100
2, 350850, Note_on_c, 0, 79, 100
2, 350880, Note_on_c, 0, 62, 100
2, 350880, Note_on_c, 0, 100, 100
2, 350880, Note_on_c, 0, 74, 100
2, 350880, Note_on_c, 0, 88, 100
2, 351040, Note_on_c, 0, 100, 0
2, 351040, Note_on_c, 0, 99, 100
2, 351120, Note_on_c, 0, 62, 0
2, 351120, Note_on_c, 0, 74, 0
2, 351120, Note_on_c, 0, 88, 0
2, 351120, Note_on_c, 0, 86, 100
2, 351200, Note_on_c, 0, 99, 0
2, 351200, Note_on_c, 0, 98, 100
2, 351360, Note_on_c, 0, 86, 0
2, 351360, Note_on_c, 0, 98, 0
2, 351360, Note_on_c, 0, 87, 100
2, 351360, Note_on_c, 0, 74, 100
2, 351360, Note_on_c, 0, 99, 100
2, 351360, Note_on_c, 0, 62, 100
2, 353040, Note_on_c, 0, 87, 0
2, 353040, Note_on_c, 0, 74, 0
2, 353040, Note_on_c, 0, 99, 0
2, 353040, Note_on_c, 0, 62, 0
2, 353250, Note_on_c, 0, 105, 0
2, 353250, Note_on_c, 0, 93, 0
2, 353250, Note_on_c, 0, 69, 0
2, 353250, Note_on_c, 0, 81, 0
2, 353250, Note_on_c, 0, 103, 0
2, 353250, Note_on_c, 0, 91, 0
2, 353250, Note_on_c, 0, 67, 0
2, 353250, Note_on_c, 0, 79, 0
2, 353280, Note_on_c, 0, 97, 100
2, 353280, Note_on_c, 0, 98, 100
2, 353280, Note_on_c, 0, 85, 100
2, 353280, Note_on_c, 0, 86, 100
2, 353280, Note_on_c, 0, 73, 100
2, 353280, Note_on_c, 0, 61, 100
2, 353520, Note_on_c, 0, 97, 0
2, 353520, Note_on_c, 0, 98, 0
2, 353520, Note_on_c, 0, 85, 0
2, 353520, Note_on_c, 0, 86, 0
2, 353520, Note_on_c, 0, 73, 0
2, 353520, Note_on_c, 0, 61, 0
2, 353760, Note_on_c, 0, 96, 100
2, 353760, Note_on_c, 0, 97, 100
2, 353760, Note_on_c, 0, 84, 100
2, 353760, Note_on_c, 0, 85, 100
2, 353760, Note_on_c, 0, 72, 100
2, 354000, Note_on_c, 0, 96, 0
2, 354000, Note_on_c, 0, 97, 0
2, 354000, Note_on_c, 0, 84, 0
2, 354000, Note_on_c, 0, 85, 0
2, 354000, Note_on_c, 0, 72, 0
2, 354720, Note_on_c, 0, 96, 100
2, 354720, Note_on_c, 0, 97, 100
2, 354720, Note_on_c, 0, 84, 100
2, 354720, Note_on_c, 0, 85, 100
2, 354720, Note_on_c, 0, 72, 100
2, 354720, Note_on_c, 0, 60, 100
2, 354960, Note_on_c, 0, 96, 0
2, 354960, Note_on_c, 0, 97, 0
2, 354960, Note_on_c, 0, 84, 0
2, 354960, Note_on_c, 0, 85, 0
2, 354960, Note_on_c, 0, 72, 0
2, 354960, Note_on_c, 0, 60, 0
2, 356130, Note_on_c, 0, 106, 0
2, 356130, Note_on_c, 0, 94, 0
2, 356130, Note_on_c, 0, 70, 0
2, 356130, Note_on_c, 0, 82, 0
2, 356130, Note_on_c, 0, 105, 100
2, 356130, Note_on_c, 0, 93, 100
2, 356130, Note_on_c, 0, 69, 100
2, 356130, Note_on_c, 0, 81, 100
2, 357120, Note_on_c, 0, 97, 100
2, 357120, Note_on_c, 0, 98, 100
2, 357120, Note_on_c, 0, 85, 100
2, 357120, Note_on_c, 0, 86, 100
2, 357120, Note_on_c, 0, 73, 100
2, 357120, Note_on_c, 0, 61, 100
2, 357360, Note_on_c, 0, 97, 0
2, 357360, Note_on_c, 0, 98, 0
2, 357360, Note_on_c, 0, 85, 0
2, 357360, Note_on_c, 0, 86, 0
2, 357360, Note_on_c, 0, 73, 0
2, 357360, Note_on_c, 0, 61, 0
2, 357600, Note_on_c, 0, 96, 100
2, 357600, Note_on_c, 0, 97, 100
2, 357600, Note_on_c, 0, 84, 100
2, 357600, Note_on_c, 0, 85, 100
2, 357600, Note_on_c, 0, 72, 100
2, 357840, Note_on_c, 0, 96, 0
2, 357840, Note_on_c, 0, 97, 0
2, 357840, Note_on_c, 0, 84, 0
2, 357840, Note_on_c, 0, 85, 0
2, 357840, Note_on_c, 0, 72, 0
2, 358560, Note_on_c, 0, 96, 100
2, 358560, Note_on_c, 0, 97, 100
2, 358560, Note_on_c, 0, 84, 100
2, 358560, Note_on_c, 0, 85, 100
2, 358560, Note_on_c, 0, 72, 100
2, 358560, Note_on_c, 0, 60, 100
2, 358800, Note_on_c, 0, 96, 0
2, 358800, Note_on_c, 0, 97, 0
2, 358800, Note_on_c, 0, 84, 0
2, 358800, Note_on_c, 0, 85, 0
2, 358800, Note_on_c, 0, 72, 0
2, 358800, Note_on_c, 0, 60, 0
2, 359010, Note_on_c, 0, 106, 100
2, 359010, Note_on_c, 0, 94, 100
2, 359010, Note_on_c, 0, 70, 100
2, 359010, Note_on_c, 0, 82, 100
2, 359520, Note_on_c, 0, 98, 100
2, 359520, Note_on_c, 0, 86, 100
2, 359520, Note_on_c, 0, 73, 100
2, 359520, Note_on_c, 0, 62, 100
2, 359760, Note_on_c, 0, 98, 0
2, 359760, Note_on_c, 0, 86, 0
2, 359760, Note_on_c, 0, 73, 0
2, 359760, Note_on_c, 0, 62, 0
2, 360000, Note_on_c, 0, 99, 100
2, 360000, Note_on_c, 0, 87, 100
2, 360000, Note_on_c, 0, 74, 100
2, 360240, Note_on_c, 0, 99, 0
2, 360240, Note_on_c, 0, 87, 0
2, 360240, Note_on_c, 0, 74, 0
2, 360480, Note_on_c, 0, 98, 100
2, 360480, Note_on_c, 0, 86, 100
2, 360480, Note_on_c, 0, 73, 100
2, 360720, Note_on_c, 0, 98, 0
2, 360720, Note_on_c, 0, 86, 0
2, 360720, Note_on_c, 0, 73, 0
2, 360930, Note_on_c, 0, 105, 0
2, 360930, Note_on_c, 0, 93, 0
2, 360930, Note_on_c, 0, 69, 0
2, 360930, Note_on_c, 0, 81, 0
2, 360960, Note_on_c, 0, 97, 100
2, 360960, Note_on_c, 0, 98, 100
2, 360960, Note_on_c, 0, 85, 100
2, 360960, Note_on_c, 0, 86, 100
2, 360960, Note_on_c, 0, 73, 100
2, 360960, Note_on_c, 0, 61, 100
2, 361200, Note_on_c, 0, 97, 0
2, 361200, Note_on_c, 0, 98, 0
2, 361200, Note_on_c, 0, 85, 0
2, 361200, Note_on_c, 0, 86, 0
2, 361200, Note_on_c, 0, 73, 0
2, 361200, Note_on_c, 0, 61, 0
2, 361440, Note_on_c, 0, 96, 100
2, 361440, Note_on_c, 0, 97, 100
2, 361440, Note_on_c, 0, 84, 100
2, 361440, Note_on_c, 0, 85, 100
2, 361440, Note_on_c, 0, 72, 100
2, 361680, Note_on_c, 0, 96, 0
2, 361680, Note_on_c, 0, 97, 0
2, 361680, Note_on_c, 0, 84, 0
2, 361680, Note_on_c, 0, 85, 0
2, 361680, Note_on_c, 0, 72, 0
2, 362400, Note_on_c, 0, 96, 100
2, 362400, Note_on_c, 0, 97, 100
2, 362400, Note_on_c, 0, 84, 100
2, 362400, Note_on_c, 0, 85, 100
2, 362400, Note_on_c, 0, 72, 100
2, 362400, Note_on_c, 0, 60, 100
2, 362640, Note_on_c, 0, 96, 0
2, 362640, Note_on_c, 0, 97, 0
2, 362640, Note_on_c, 0, 84, 0
2, 362640, Note_on_c, 0, 85, 0
2, 362640, Note_on_c, 0, 72, 0
2, 362640, Note_on_c, 0, 60, 0
2, 363600, Note_on_c, 0, 108, 100
2, 364080, Note_on_c, 0, 108, 0
2, 364320, Note_on_c, 0, 108, 100
2, 364800, Note_on_c, 0, 108, 0
2, 365040, Note_on_c, 0, 108, 100
2, 365520, Note_on_c, 0, 108, 0
2, 366000, Note_on_c, 0, 108, 100
2, 366240, Note_on_c, 0, 108, 0
2, 366690, Note_on_c, 0, 106, 0
2, 366690, Note_on_c, 0, 94, 0
2, 366690, Note_on_c, 0, 70, 0
2, 366690, Note_on_c, 0, 82, 0
2, 366690, Note_on_c, 0, 105, 100
2, 366690, Note_on_c, 0, 93, 100
2, 366690, Note_on_c, 0, 69, 100
2, 366690, Note_on_c, 0, 81, 100
2, 366720, Note_on_c, 0, 108, 100
2, 367200, Note_on_c, 0, 108, 0
2, 367440, Note_on_c, 0, 108, 100
2, 368640, Note_on_c, 0, 108, 0
2, 368640, Note_on_c, 0, 97, 100
2, 368640, Note_on_c, 0, 98, 100
2, 368640, Note_on_c, 0, 85, 100
2, 368640, Note_on_c, 0, 86, 100
2, 368640, Note_on_c, 0, 73, 100
2, 368640, Note_on_c, 0, 61, 100
2, 368880, Note_on_c, 0, 97, 0
2, 368880, Note_on_c, 0, 98, 0
2, 368880, Note_on_c, 0, 85, 0
2, 368880, Note_on_c, 0, 86, 0
2, 368880, Note_on_c, 0, 73, 0
2, 368880, Note_on_c, 0, 61, 0
2, 369120, Note_on_c, 0, 96, 100
2, 369120, Note_on_c, 0, 97, 100
2, 369120, Note_on_c, 0, 84, 100
2, 369120, Note_on_c, 0, 85, 100
2, 369120, Note_on_c, 0, 72, 100
2, 369360, Note_on_c, 0, 96, 0
2, 369360, Note_on_c, 0, 97, 0
2, 369360, Note_on_c, 0, 84, 0
2, 369360, Note_on_c, 0, 85, 0
2, 369360, Note_on_c, 0, 72, 0
2, 370080, Note_on_c, 0, 96, 100
2, 370080, Note_on_c, 0, 97, 100
2, 370080, Note_on_c, 0, 84, 100
2, 370080, Note_on_c, 0, 85, 100
2, 370080, Note_on_c, 0, 72, 100
2, 370080, Note_on_c, 0, 60, 100
2, 370320, Note_on_c, 0, 96, 0
2, 370320, Note_on_c, 0, 97, 0
2, 370320, Note_on_c, 0, 84, 0
2, 370320, Note_on_c, 0, 85, 0
2, 370320, Note_on_c, 0, 72, 0
2, 370320, Note_on_c, 0, 60, 0
2, 371490, Note_on_c, 0, 105, 0
2, 371490, Note_on_c, 0, 93, 0
2, 371490, Note_on_c, 0, 69, 0
2, 371490, Note_on_c, 0, 81, 0
2, 371490, Note_on_c, 0, 106, 100
2, 371490, Note_on_c, 0, 94, 100
2, 371490, Note_on_c, 0, 70, 100
2, 371490, Note_on_c, 0, 82, 100
2, 372480, Note_on_c, 0, 97, 100
2, 372480, Note_on_c, 0, 98, 100
2, 372480, Note_on_c, 0, 85, 100
2, 372480, Note_on_c, 0, 86, 100
2, 372480, Note_on_c, 0, 73, 100
2, 372480, Note_on_c, 0, 61, 100
2, 372720, Note_on_c, 0, 97, 0
2, 372720, Note_on_c, 0, 98, 0
2, 372720, Note_on_c, 0, 85, 0
2, 372720, Note_on_c, 0, 86, 0
2, 372720, Note_on_c, 0, 73, 0
2, 372720, Note_on_c, 0, 61, 0
2, 372960, Note_on_c, 0, 96, 100
2, 372960, Note_on_c, 0, 97, 100
2, 372960, Note_on_c, 0, 84, 100
2, 372960, Note_on_c, 0, 85, 100
2, 372960, Note_on_c, 0, 72, 100
2, 373200, Note_on_c, 0, 96, 0
2, 373200, Note_on_c, 0, 97, 0
2, 373200, Note_on_c, 0, 84, 0
2, 373200, Note_on_c, 0, 85, 0
2, 373200, Note_on_c, 0, 72, 0
2, 373920, Note_on_c, 0, 96, 100
2, 373920, Note_on_c, 0, 97, 100
2, 373920, Note_on_c, 0, 84, 100
2, 373920, Note_on_c, 0, 85, 100
2, 373920, Note_on_c, 0, 72, 100
2, 373920, Note_on_c, 0, 60, 100
2, 374160, Note_on_c, 0, 96, 0
2, 374160, Note_on_c, 0, 97, 0
2, 374160, Note_on_c, 0, 84, 0
2, 374160, Note_on_c, 0, 85, 0
2, 374160, Note_on_c, 0, 72, 0
2, 374160, Note_on_c, 0, 60, 0
2, 374370, Note_on_c, 0, 105, 100
2, 374370, Note_on_c, 0, 93, 100
2, 374370, Note_on_c, 0, 69, 100
2, 374370, Note_on_c, 0, 81, 100
2, 374880, Note_on_c, 0, 98, 100
2, 374880, Note_on_c, 0, 86, 100
2, 374880, Note_on_c, 0, 73, 100
2, 374880, Note_on_c, 0, 62, 100
2, 375120, Note_on_c, 0, 98, 0
2, 375120, Note_on_c, 0, 86, 0
2, 375120, Note_on_c, 0, 73, 0
2, 375120, Note_on_c, 0, 62, 0
2, 375360, Note_on_c, 0, 99, 100
2, 375360, Note_on_c, 0, 87, 100
2, 375360, Note_on_c, 0, 74, 100
2, 375600, Note_on_c, 0, 99, 0
2, 375600, Note_on_c, 0, 87, 0
2, 375600, Note_on_c, 0, 74, 0
2, 375840, Note_on_c, 0, 98, 100
2, 375840, Note_on_c, 0, 86, 100
2, 375840, Note_on_c, 0, 73, 100
2, 376080, Note_on_c, 0, 98, 0
2, 376080, Note_on_c, 0, 86, 0
2, 376080, Note_on_c, 0, 73, 0
2, 376290, Note_on_c, 0, 106, 0
2, 376290, Note_on_c, 0, 94, 0
2, 376290, Note_on_c, 0, 70, 0
2, 376290, Note_on_c, 0, 82, 0
2, 376320, Note_on_c, 0, 97, 100
2, 376320, Note_on_c, 0, 98, 100
2, 376320, Note_on_c, 0, 85, 100
2, 376320, Note_on_c, 0, 86, 100
2, 376320, Note_on_c, 0, 73, 100
2, 376320, Note_on_c, 0, 61, 100
2, 376560, Note_on_c, 0, 97, 0
2, 376560, Note_on_c, 0, 98, 0
2, 376560, Note_on_c, 0, 85, 0
2, 376560, Note_on_c, 0, 86, 0
2, 376560, Note_on_c, 0, 73, 0
2, 376560, Note_on_c, 0, 61, 0
2, 376800, Note_on_c, 0, 96, 100
2, 376800, Note_on_c, 0, 97, 100
2, 376800, Note_on_c, 0, 84, 100
2, 376800, Note_on_c, 0, 85, 100
2, 376800, Note_on_c, 0, 72, 100
2, 377040, Note_on_c, 0, 96, 0
2, 377040, Note_on_c, 0, 97, 0
2, 377040, Note_on_c, 0, 84, 0
2, 377040, Note_on_c, 0, 85, 0
2, 377040, Note_on_c, 0, 72, 0
2, 377760, Note_on_c, 0, 96, 100
2, 377760, Note_on_c, 0, 97, 100
2, 377760, Note_on_c, 0, 84, 100
2, 377760, Note_on_c, 0, 85, 100
2, 377760, Note_on_c, 0, 72, 100
2, 377760, Note_on_c, 0, 60, 100
2, 378000, Note_on_c, 0, 96, 0
2, 378000, Note_on_c, 0, 97, 0
2, 378000, Note_on_c, 0, 84, 0
2, 378000, Note_on_c, 0, 85, 0
2, 378000, Note_on_c, 0, 72, 0
2, 378000, Note_on_c, 0, 60, 0
2, 379440, Note_on_c, 0, 108, 100
2, 380160, Note_on_c, 0, 108, 0
2, 380400, Note_on_c, 0, 108, 100
2, 380880, Note_on_c, 0, 108, 0
2, 381120, Note_on_c, 0, 108, 100
2, 381840, Note_on_c, 0, 108, 0
2, 382050, Note_on_c, 0, 105, 0
2, 382050, Note_on_c, 0, 93, 0
2, 382050, Note_on_c, 0, 69, 0
2, 382050, Note_on_c, 0, 81, 0
2, 382050, Note_on_c, 0, 106, 100
2, 382050, Note_on_c, 0, 94, 100
2, 382050, Note_on_c, 0, 70, 100
2, 382050, Note_on_c, 0, 82, 100
2, 382320, Note_on_c, 0, 108, 100
2, 384000, Note_on_c, 0, 97, 100
2, 384000, Note_on_c, 0, 98, 100
2, 384000, Note_on_c, 0, 85, 100
2, 384000, Note_on_c, 0, 86, 100
2, 384000, Note_on_c, 0, 73, 100
2, 384000, Note_on_c, 0, 61, 100
2, 384240, Note_on_c, 0, 97, 0
2, 384240, Note_on_c, 0, 98, 0
2, 384240, Note_on_c, 0, 85, 0
2, 384240, Note_on_c, 0, 86, 0
2, 384240, Note_on_c, 0, 73, 0
2, 384240, Note_on_c, 0, 61, 0
2, 384480, Note_on_c, 0, 96, 100
2, 384480, Note_on_c, 0, 97, 100
2, 384480, Note_on_c, 0, 84, 100
2, 384480, Note_on_c, 0, 85, 100
2, 384480, Note_on_c, 0, 72, 100
2, 384720, Note_on_c, 0, 96, 0
2, 384720, Note_on_c, 0, 97, 0
2, 384720, Note_on_c, 0, 84, 0
2, 384720, Note_on_c, 0, 85, 0
2, 384720, Note_on_c, 0, 72, 0
2, 385200, Note_on_c, 0, 108, 0
2, 385440, Note_on_c, 0, 96, 100
2, 385440, Note_on_c, 0, 97, 100
2, 385440, Note_on_c, 0, 84, 100
2, 385440, Note_on_c, 0, 85, 100
2, 385440, Note_on_c, 0, 72, 100
2, 385440, Note_on_c, 0, 60, 100
2, 385680, Note_on_c, 0, 96, 0
2, 385680, Note_on_c, 0, 97, 0
2, 385680, Note_on_c, 0, 84, 0
2, 385680, Note_on_c, 0, 85, 0
2, 385680, Note_on_c, 0, 72, 0
2, 385680, Note_on_c, 0, 60, 0
2, 386850, Note_on_c, 0, 106, 0
2, 386850, Note_on_c, 0, 94, 0
2, 386850, Note_on_c, 0, 70, 0
2, 386850, Note_on_c, 0, 82, 0
2, 386850, Note_on_c, 0, 105, 100
2, 386850, Note_on_c, 0, 93, 100
2, 386850, Note_on_c, 0, 69, 100
2, 386850, Note_on_c, 0, 81, 100
2, 387840, Note_on_c, 0, 97, 100
2, 387840, Note_on_c, 0, 98, 100
2, 387840, Note_on_c, 0, 85, 100
2, 387840, Note_on_c, 0, 86, 100
2, 387840, Note_on_c, 0, 73, 100
2, 387840, Note_on_c, 0, 61, 100
2, 388080, Note_on_c, 0, 97, 0
2, 388080, Note_on_c, 0, 98, 0
2, 388080, Note_on_c, 0, 85, 0
2, 388080, Note_on_c, 0, 86, 0
2, 388080, Note_on_c, 0, 73, 0
2, 388080, Note_on_c, 0, 61, 0
2, 388320, Note_on_c, 0, 96, 100
2, 388320, Note_on_c, 0, 97, 100
2, 388320, Note_on_c, 0, 84, 100
2, 388320, Note_on_c, 0, 85, 100
2, 388320, Note_on_c, 0, 72, 100
2, 388560, Note_on_c, 0, 96, 0
2, 388560, Note_on_c, 0, 97, 0
2, 388560, Note_on_c, 0, 84, 0
2, 388560, Note_on_c, 0, 85, 0
2, 388560, Note_on_c, 0, 72, 0
2, 389280, Note_on_c, 0, 96, 100
2, 389280, Note_on_c, 0, 97, 100
2, 389280, Note_on_c, 0, 84, 100
2, 389280, Note_on_c, 0, 85, 100
2, 389280, Note_on_c, 0, 72, 100
2, 389280, Note_on_c, 0, 60, 100
2, 389520, Note_on_c, 0, 96, 0
2, 389520, Note_on_c, 0, 97, 0
2, 389520, Note_on_c, 0, 84, 0
2, 389520, Note_on_c, 0, 85, 0
2, 389520, Note_on_c, 0, 72, 0
2, 389520, Note_on_c, 0, 60, 0
2, 389730, Note_on_c, 0, 106, 100
2, 389730, Note_on_c, 0, 94, 100
2, 389730, Note_on_c, 0, 70, 100
2, 389730, Note_on_c, 0, 82, 100
2, 390240, Note_on_c, 0, 98, 100
2, 390240, Note_on_c, 0, 86, 100
2, 390240, Note_on_c, 0, 73, 100
2, 390240, Note_on_c, 0, 62, 100
2, 390480, Note_on_c, 0, 98, 0
2, 390480, Note_on_c, 0, 86, 0
2, 390480, Note_on_c, 0, 73, 0
2, 390480, Note_on_c, 0, 62, 0
2, 390720, Note_on_c, 0, 99, 100
2, 390720, Note_on_c, 0, 87, 100
2, 390720, Note_on_c, 0, 74, 100
2, 390960, Note_on_c, 0, 99, 0
2, 390960, Note_on_c, 0, 87, 0
2, 390960, Note_on_c, 0, 74, 0
2, 391200, Note_on_c, 0, 98, 100
2, 391200, Note_on_c, 0, 86, 100
2, 391200, Note_on_c, 0, 73, 100
2, 391440, Note_on_c, 0, 98, 0
2, 391440, Note_on_c, 0, 86, 0
2, 391440, Note_on_c, 0, 73, 0
2, 391650, Note_on_c, 0, 105, 0
2, 391650, Note_on_c, 0, 93, 0
2, 391650, Note_on_c, 0, 69, 0
2, 391650, Note_on_c, 0, 81, 0
2, 391680, Note_on_c, 0, 97, 100
2, 391680, Note_on_c, 0, 98, 100
2, 391680, Note_on_c, 0, 85, 100
2, 391680, Note_on_c, 0, 86, 100
2, 391680, Note_on_c, 0, 73, 100
2, 391680, Note_on_c, 0, 61, 100
2, 391920, Note_on_c, 0, 97, 0
2, 391920, Note_on_c, 0, 98, 0
2, 391920, Note_on_c, 0, 85, 0
2, 391920, Note_on_c, 0, 86, 0
2, 391920, Note_on_c, 0, 73, 0
2, 391920, Note_on_c, 0, 61, 0
2, 392160, Note_on_c, 0, 96, 100
2, 392160, Note_on_c, 0, 97, 100
2, 392160, Note_on_c, 0, 84, 100
2, 392160, Note_on_c, 0, 85, 100
2, 392160, Note_on_c, 0, 72, 100
2, 392400, Note_on_c, 0, 96, 0
2, 392400, Note_on_c, 0, 97, 0
2, 392400, Note_on_c, 0, 84, 0
2, 392400, Note_on_c, 0, 85, 0
2, 392400, Note_on_c, 0, 72, 0
2, 393120, Note_on_c, 0, 96, 100
2, 393120, Note_on_c, 0, 97, 100
2, 393120, Note_on_c, 0, 84, 100
2, 393120, Note_on_c, 0, 85, 100
2, 393120, Note_on_c, 0, 72, 100
2, 393120, Note_on_c, 0, 60, 100
2, 393360, Note_on_c, 0, 96, 0
2, 393360, Note_on_c, 0, 97, 0
2, 393360, Note_on_c, 0, 84, 0
2, 393360, Note_on_c, 0, 85, 0
2, 393360, Note_on_c, 0, 72, 0
2, 393360, Note_on_c, 0, 60, 0
2, 394080, Note_on_c, 0, 108, 100
2, 395040, Note_on_c, 0, 108, 0
2, 395280, Note_on_c, 0, 108, 100
2, 395490, Note_on_c, 0, 106, 0
2, 395490, Note_on_c, 0, 94, 0
2, 395490, Note_on_c, 0, 70, 0
2, 395490, Note_on_c, 0, 82, 0
2, 395490, Note_on_c, 0, 105, 100
2, 395490, Note_on_c, 0, 93, 100
2, 395490, Note_on_c, 0, 69, 100
2, 395490, Note_on_c, 0, 81, 100
2, 395760, Note_on_c, 0, 108, 0
2, 396000, Note_on_c, 0, 108, 100
2, 396480, Note_on_c, 0, 108, 0
2, 396720, Note_on_c, 0, 108, 100
2, 397200, Note_on_c, 0, 108, 0
2, 397440, Note_on_c, 0, 108, 100
2, 397920, Note_on_c, 0, 108, 0
2, 398160, Note_on_c, 0, 108, 100
2, 398640, Note_on_c, 0, 108, 0
2, 398880, Note_on_c, 0, 108, 100
2, 399360, Note_on_c, 0, 97, 100
2, 399360, Note_on_c, 0, 98, 100
2, 399360, Note_on_c, 0, 85, 100
2, 399360, Note_on_c, 0, 86, 100
2, 399360, Note_on_c, 0, 73, 100
2, 399360, Note_on_c, 0, 61, 100
2, 399600, Note_on_c, 0, 97, 0
2, 399600, Note_on_c, 0, 98, 0
2, 399600, Note_on_c, 0, 85, 0
2, 399600, Note_on_c, 0, 86, 0
2, 399600, Note_on_c, 0, 73, 0
2, 399600, Note_on_c, 0, 61, 0
2, 399840, Note_on_c, 0, 96, 100
2, 399840, Note_on_c, 0, 97, 100
2, 399840, Note_on_c, 0, 84, 100
2, 399840, Note_on_c, 0, 85, 100
2, 399840, Note_on_c, 0, 72, 100
2, 400080, Note_on_c, 0, 96, 0
2, 400080, Note_on_c, 0, 97, 0
2, 400080, Note_on_c, 0, 84, 0
2, 400080, Note_on_c, 0, 85, 0
2, 400080, Note_on_c, 0, 72, 0
2, 400320, Note_on_c, 0, 108, 0
2, 400800, Note_on_c, 0, 96, 100
2, 400800, Note_on_c, 0, 97, 100
2, 400800, Note_on_c, 0, 84, 100
2, 400800, Note_on_c, 0, 85, 100
2, 400800, Note_on_c, 0, 72, 100
2, 400800, Note_on_c, 0, 60, 100
2, 401040, Note_on_c, 0, 96, 0
2, 401040, Note_on_c, 0, 97, 0
2, 401040, Note_on_c, 0, 84, 0
2, 401040, Note_on_c, 0, 85, 0
2, 401040, Note_on_c, 0, 72, 0
2, 401040, Note_on_c, 0, 60, 0
2, 402210, Note_on_c, 0, 105, 0
2, 402210, Note_on_c, 0, 93, 0
2, 402210, Note_on_c, 0, 69, 0
2, 402210, Note_on_c, 0, 81, 0
2, 402210, Note_on_c, 0, 106, 100
2, 402210, Note_on_c, 0, 94, 100
2, 402210, Note_on_c, 0, 70, 100
2, 402210, Note_on_c, 0, 82, 100
2, 403200, Note_on_c, 0, 97, 100
2, 403200, Note_on_c, 0, 98, 100
2, 403200, Note_on_c, 0, 85, 100
2, 403200, Note_on_c, 0, 86, 100
2, 403200, Note_on_c, 0, 73, 100
2, 403200, Note_on_c, 0, 61, 100
2, 403440, Note_on_c, 0, 97, 0
2, 403440, Note_on_c, 0, 98, 0
2, 403440, Note_on_c, 0, 85, 0
2, 403440, Note_on_c, 0, 86, 0
2, 403440, Note_on_c, 0, 73, 0
2, 403440, Note_on_c, 0, 61, 0
2, 403680, Note_on_c, 0, 96, 100
2, 403680, Note_on_c, 0, 97, 100
2, 403680, Note_on_c, 0, 84, 100
2, 403680, Note_on_c, 0, 85, 100
2, 403680, Note_on_c, 0, 72, 100
2, 403920, Note_on_c, 0, 96, 0
2, 403920, Note_on_c, 0, 97, 0
2, 403920, Note_on_c, 0, 84, 0
2, 403920, Note_on_c, 0, 85, 0
2, 403920, Note_on_c, 0, 72, 0
2, 404640, Note_on_c, 0, 96, 100
2, 404640, Note_on_c, 0, 97, 100
2, 404640, Note_on_c, 0, 84, 100
2, 404640, Note_on_c, 0, 85, 100
2, 404640, Note_on_c, 0, 72, 100
2, 404640, Note_on_c, 0, 60, 100
2, 404880, Note_on_c, 0, 96, 0
2, 404880, Note_on_c, 0, 97, 0
2, 404880, Note_on_c, 0, 84, 0
2, 404880, Note_on_c, 0, 85, 0
2, 404880, Note_on_c, 0, 72, 0
2, 404880, Note_on_c, 0, 60, 0
2, 405090, Note_on_c, 0, 105, 100
2, 405090, Note_on_c, 0, 93, 100
2, 405090, Note_on_c, 0, 69, 100
2, 405090, Note_on_c, 0, 81, 100
2, 405570, Note_on_c, 0, 103, 100
2, 405570, Note_on_c, 0, 91, 100
2, 405570, Note_on_c, 0, 67, 100
2, 405570, Note_on_c, 0, 79, 100
2, 405600, Note_on_c, 0, 98, 100
2, 405600, Note_on_c, 0, 86, 100
2, 405600, Note_on_c, 0, 73, 100
2, 405600, Note_on_c, 0, 62, 100
2, 405840, Note_on_c, 0, 98, 0
2, 405840, Note_on_c, 0, 86, 0
2, 405840, Note_on_c, 0, 73, 0
2, 405840, Note_on_c, 0, 62, 0
2, 406080, Note_on_c, 0, 99, 100
2, 406080, Note_on_c, 0, 87, 100
2, 406080, Note_on_c, 0, 74, 100
2, 406320, Note_on_c, 0, 99, 0
2, 406320, Note_on_c, 0, 87, 0
2, 406320, Note_on_c, 0, 74, 0
2, 406560, Note_on_c, 0, 98, 100
2, 406560, Note_on_c, 0, 86, 100
2, 406560, Note_on_c, 0, 73, 100
2, 406800, Note_on_c, 0, 98, 0
2, 406800, Note_on_c, 0, 86, 0
2, 406800, Note_on_c, 0, 73, 0
2, 407010, Note_on_c, 0, 106, 0
2, 407010, Note_on_c, 0, 94, 0
2, 407010, Note_on_c, 0, 70, 0
2, 407010, Note_on_c, 0, 82, 0
2, 407010, Note_on_c, 0, 103, 0
2, 407010, Note_on_c, 0, 91, 0
2, 407010, Note_on_c, 0, 67, 0
2, 407010, Note_on_c, 0, 79, 0
2, 407040, Note_on_c, 0, 97, 100
2, 407040, Note_on_c, 0, 98, 100
2, 407040, Note_on_c, 0, 85, 100
2, 407040, Note_on_c, 0, 86, 100
2, 407040, Note_on_c, 0, 73, 100
2, 407040, Note_on_c, 0, 61, 100
2, 407280, Note_on_c, 0, 97, 0
2, 407280, Note_on_c, 0, 98, 0
2, 407280, Note_on_c, 0, 85, 0
2, 407280, Note_on_c, 0, 86, 0
2, 407280, Note_on_c, 0, 73, 0
2, 407280, Note_on_c, 0, 61, 0
2, 407520, Note_on_c, 0, 96, 100
2, 407520, Note_on_c, 0, 97, 100
2, 407520, Note_on_c, 0, 84, 100
2, 407520, Note_on_c, 0, 85, 100
2, 407520, Note_on_c, 0, 72, 100
2, 407760, Note_on_c, 0, 96, 0
2, 407760, Note_on_c, 0, 97, 0
2, 407760, Note_on_c, 0, 84, 0
2, 407760, Note_on_c, 0, 85, 0
2, 407760, Note_on_c, 0, 72, 0
2, 408480, Note_on_c, 0, 96, 100
2, 408480, Note_on_c, 0, 97, 100
2, 408480, Note_on_c, 0, 84, 100
2, 408480, Note_on_c, 0, 85, 100
2, 408480, Note_on_c, 0, 72, 100
2, 408480, Note_on_c, 0, 60, 100
2, 408720, Note_on_c, 0, 96, 0
2, 408720, Note_on_c, 0, 97, 0
2, 408720, Note_on_c, 0, 84, 0
2, 408720, Note_on_c, 0, 85, 0
2, 408720, Note_on_c, 0, 72, 0
2, 408720, Note_on_c, 0, 60, 0
2, 409440, Note_on_c, 0, 108, 100
2, 409920, Note_on_c, 0, 108, 0
2, 410160, Note_on_c, 0, 108, 100
2, 410640, Note_on_c, 0, 108, 0
2, 410850, Note_on_c, 0, 105, 0
2, 410850, Note_on_c, 0, 93, 0
2, 410850, Note_on_c, 0, 69, 0
2, 410850, Note_on_c, 0, 81, 0
2, 410850, Note_on_c, 0, 106, 100
2, 410850, Note_on_c, 0, 94, 100
2, 410850, Note_on_c, 0, 70, 100
2, 410850, Note_on_c, 0, 82, 100
2, 410880, Note_on_c, 0, 108, 100
2, 411360, Note_on_c, 0, 108, 0
2, 411600, Note_on_c, 0, 108, 100
2, 412080, Note_on_c, 0, 108, 0
2, 412320, Note_on_c, 0, 108, 100
2, 413280, Note_on_c, 0, 97, 100
2, 413280, Note_on_c, 0, 85, 100
2, 413280, Note_on_c, 0, 72, 100
2, 413280, Note_on_c, 0, 60, 100
2, 413520, Note_on_c, 0, 97, 0
2, 413520, Note_on_c, 0, 85, 0
2, 413520, Note_on_c, 0, 72, 0
2, 413520, Note_on_c, 0, 60, 0
2, 413760, Note_on_c, 0, 108, 0
2, 413760, Note_on_c, 0, 97, 100
2, 413760, Note_on_c, 0, 85, 100
2, 413760, Note_on_c, 0, 72, 100
2, 414000, Note_on_c, 0, 97, 0
2, 414000, Note_on_c, 0, 85, 0
2, 414000, Note_on_c, 0, 72, 0
2, 414000, Note_on_c, 0, 108, 100
2, 414240, Note_on_c, 0, 99, 100
2, 414240, Note_on_c, 0, 100, 100
2, 414240, Note_on_c, 0, 88, 100
2, 414240, Note_on_c, 0, 62, 100
2, 414240, Note_on_c, 0, 74, 100
2, 414480, Note_on_c, 0, 99, 0
2, 414480, Note_on_c, 0, 100, 0
2, 414480, Note_on_c, 0, 88, 0
2, 414480, Note_on_c, 0, 62, 0
2, 414480, Note_on_c, 0, 74, 0
2, 415200, Note_on_c, 0, 98, 100
2, 415200, Note_on_c, 0, 99, 100
2, 415200, Note_on_c, 0, 86, 100
2, 415200, Note_on_c, 0, 87, 100
2, 415200, Note_on_c, 0, 73, 100
2, 415440, Note_on_c, 0, 98, 0
2, 415440, Note_on_c, 0, 99, 0
2, 415440, Note_on_c, 0, 86, 0
2, 415440, Note_on_c, 0, 87, 0
2, 415440, Note_on_c, 0, 73, 0
2, 416160, Note_on_c, 0, 97, 100
2, 416160, Note_on_c, 0, 98, 100
2, 416160, Note_on_c, 0, 85, 100
2, 416160, Note_on_c, 0, 86, 100
2, 416160, Note_on_c, 0, 61, 100
2, 416160, Note_on_c, 0, 72, 100
2, 416400, Note_on_c, 0, 108, 0
2, 416400, Note_on_c, 0, 97, 0
2, 416400, Note_on_c, 0, 98, 0
2, 416400, Note_on_c, 0, 85, 0
2, 416400, Note_on_c, 0, 86, 0
2, 416400, Note_on_c, 0, 61, 0
2, 416400, Note_on_c, 0, 72, 0
2, 417120, Note_on_c, 0, 98, 100
2, 417120, Note_on_c, 0, 87, 100
2, 417120, Note_on_c, 0, 73, 100
2, 417360, Note_on_c, 0, 98, 0
2, 417360, Note_on_c, 0, 87, 0
2, 417360, Note_on_c, 0, 73, 0
2, 417360, Note_on_c, 0, 99, 100
2, 417600, Note_on_c, 0, 99, 0
2, 417600, Note_on_c, 0, 98, 100
2, 417600, Note_on_c, 0, 86, 100
2, 417600, Note_on_c, 0, 72, 100
2, 417840, Note_on_c, 0, 98, 0
2, 417840, Note_on_c, 0, 86, 0
2, 417840, Note_on_c, 0, 72, 0
2, 418050, Note_on_c, 0, 106, 0
2, 418050, Note_on_c, 0, 94, 0
2, 418050, Note_on_c, 0, 70, 0
2, 418050, Note_on_c, 0, 82, 0
2, 418050, Note_on_c, 0, 105, 100
2, 418050, Note_on_c, 0, 93, 100
2, 418050, Note_on_c, 0, 69, 100
2, 418050, Note_on_c, 0, 81, 100
2, 418080, Note_on_c, 0, 99, 100
2, 418080, Note_on_c, 0, 100, 100
2, 418080, Note_on_c, 0, 88, 100
2, 418080, Note_on_c, 0, 62, 100
2, 418080, Note_on_c, 0, 74, 100
2, 418320, Note_on_c, 0, 99, 0
2, 418320, Note_on_c, 0, 100, 0
2, 418320, Note_on_c, 0, 88, 0
2, 418320, Note_on_c, 0, 62, 0
2, 418320, Note_on_c, 0, 74, 0
2, 419040, Note_on_c, 0, 98, 100
2, 419040, Note_on_c, 0, 99, 100
2, 419040, Note_on_c, 0, 86, 100
2, 419040, Note_on_c, 0, 87, 100
2, 419040, Note_on_c, 0, 73, 100
2, 419280, Note_on_c, 0, 98, 0
2, 419280, Note_on_c, 0, 99, 0
2, 419280, Note_on_c, 0, 86, 0
2, 419280, Note_on_c, 0, 87, 0
2, 419280, Note_on_c, 0, 73, 0
2, 420000, Note_on_c, 0, 97, 100
2, 420000, Note_on_c, 0, 98, 100
2, 420000, Note_on_c, 0, 85, 100
2, 420000, Note_on_c, 0, 86, 100
2, 420000, Note_on_c, 0, 61, 100
2, 420000, Note_on_c, 0, 72, 100
2, 420240, Note_on_c, 0, 97, 0
2, 420240, Note_on_c, 0, 98, 0
2, 420240, Note_on_c, 0, 85, 0
2, 420240, Note_on_c, 0, 86, 0
2, 420240, Note_on_c, 0, 61, 0
2, 420240, Note_on_c, 0, 72, 0
2, 420960, Note_on_c, 0, 98, 100
2, 420960, Note_on_c, 0, 87, 100
2, 420960, Note_on_c, 0, 73, 100
2, 420960, Note_on_c, 0, 108, 100
2, 421200, Note_on_c, 0, 98, 0
2, 421200, Note_on_c, 0, 87, 0
2, 421200, Note_on_c, 0, 73, 0
2, 421200, Note_on_c, 0, 99, 100
2, 421440, Note_on_c, 0, 99, 0
2, 421440, Note_on_c, 0, 98, 100
2, 421440, Note_on_c, 0, 86, 100
2, 421440, Note_on_c, 0, 72, 100
2, 421680, Note_on_c, 0, 108, 0
2, 421680, Note_on_c, 0, 98, 0
2, 421680, Note_on_c, 0, 86, 0
2, 421680, Note_on_c, 0, 72, 0
2, 421890, Note_on_c, 0, 105, 0
2, 421890, Note_on_c, 0, 93, 0
2, 421890, Note_on_c, 0, 69, 0
2, 421890, Note_on_c, 0, 81, 0
2, 421890, Note_on_c, 0, 106, 100
2, 421890, Note_on_c, 0, 94, 100
2, 421890, Note_on_c, 0, 70, 100
2, 421890, Note_on_c, 0, 82, 100
2, 421920, Note_on_c, 0, 99, 100
2, 421920, Note_on_c, 0, 100, 100
2, 421920, Note_on_c, 0, 88, 100
2, 421920, Note_on_c, 0, 62, 100
2, 421920, Note_on_c, 0, 74, 100
2, 421920, Note_on_c, 0, 108, 100
2, 422160, Note_on_c, 0, 99, 0
2, 422160, Note_on_c, 0, 100, 0
2, 422160, Note_on_c, 0, 88, 0
2, 422160, Note_on_c, 0, 62, 0
2, 422160, Note_on_c, 0, 74, 0
2, 422880, Note_on_c, 0, 98, 100
2, 422880, Note_on_c, 0, 99, 100
2, 422880, Note_on_c, 0, 86, 100
2, 422880, Note_on_c, 0, 87, 100
2, 422880, Note_on_c, 0, 73, 100
2, 423120, Note_on_c, 0, 98, 0
2, 423120, Note_on_c, 0, 99, 0
2, 423120, Note_on_c, 0, 86, 0
2, 423120, Note_on_c, 0, 87, 0
2, 423120, Note_on_c, 0, 73, 0
2, 423840, Note_on_c, 0, 97, 100
2, 423840, Note_on_c, 0, 98, 100
2, 423840, Note_on_c, 0, 85, 100
2, 423840, Note_on_c, 0, 86, 100
2, 423840, Note_on_c, 0, 61, 100
2, 423840, Note_on_c, 0, 72, 100
2, 424080, Note_on_c, 0, 108, 0
2, 424080, Note_on_c, 0, 97, 0
2, 424080, Note_on_c, 0, 98, 0
2, 424080, Note_on_c, 0, 85, 0
2, 424080, Note_on_c, 0, 86, 0
2, 424080, Note_on_c, 0, 61, 0
2, 424080, Note_on_c, 0, 72, 0
2, 424800, Note_on_c, 0, 98, 100
2, 424800, Note_on_c, 0, 87, 100
2, 424800, Note_on_c, 0, 73, 100
2, 425040, Note_on_c, 0, 98, 0
2, 425040, Note_on_c, 0, 87, 0
2, 425040, Note_on_c, 0, 73, 0
2, 425040, Note_on_c, 0, 99, 100
2, 425280, Note_on_c, 0, 99, 0
2, 425280, Note_on_c, 0, 98, 100
2, 425280, Note_on_c, 0, 86, 100
2, 425280, Note_on_c, 0, 72, 100
2, 425520, Note_on_c, 0, 98, 0
2, 425520, Note_on_c, 0, 86, 0
2, 425520, Note_on_c, 0, 72, 0
2, 425730, Note_on_c, 0, 106, 0
2, 425730, Note_on_c, 0, 94, 0
2, 425730, Note_on_c, 0, 70, 0
2, 425730, Note_on_c, 0, 82, 0
2, 425730, Note_on_c, 0, 105, 100
2, 425730, Note_on_c, 0, 93, 100
2, 425730, Note_on_c, 0, 69, 100
2, 425730, Note_on_c, 0, 81, 100
2, 425760, Note_on_c, 0, 99, 100
2, 425760, Note_on_c, 0, 100, 100
2, 425760, Note_on_c, 0, 88, 100
2, 425760, Note_on_c, 0, 62, 100
2, 425760, Note_on_c, 0, 74, 100
2, 426000, Note_on_c, 0, 99, 0
2, 426000, Note_on_c, 0, 100, 0
2, 426000, Note_on_c, 0, 88, 0
2, 426000, Note_on_c, 0, 62, 0
2, 426000, Note_on_c, 0, 74, 0
2, 426720, Note_on_c, 0, 98, 100
2, 426720, Note_on_c, 0, 99, 100
2, 426720, Note_on_c, 0, 86, 100
2, 426720, Note_on_c, 0, 87, 100
2, 426720, Note_on_c, 0, 73, 100
2, 426960, Note_on_c, 0, 98, 0
2, 426960, Note_on_c, 0, 99, 0
2, 426960, Note_on_c, 0, 86, 0
2, 426960, Note_on_c, 0, 87, 0
2, 426960, Note_on_c, 0, 73, 0
2, 427680, Note_on_c, 0, 97, 100
2, 427680, Note_on_c, 0, 98, 100
2, 427680, Note_on_c, 0, 85, 100
2, 427680, Note_on_c, 0, 86, 100
2, 427680, Note_on_c, 0, 61, 100
2, 427680, Note_on_c, 0, 72, 100
2, 427920, Note_on_c, 0, 97, 0
2, 427920, Note_on_c, 0, 98, 0
2, 427920, Note_on_c, 0, 85, 0
2, 427920, Note_on_c, 0, 86, 0
2, 427920, Note_on_c, 0, 61, 0
2, 427920, Note_on_c, 0, 72, 0
2, 428640, Note_on_c, 0, 98, 100
2, 428640, Note_on_c, 0, 87, 100
2, 428640, Note_on_c, 0, 73, 100
2, 428640, Note_on_c, 0, 108, 100
2, 428880, Note_on_c, 0, 98, 0
2, 428880, Note_on_c, 0, 87, 0
2, 428880, Note_on_c, 0, 73, 0
2, 428880, Note_on_c, 0, 99, 100
2, 429120, Note_on_c, 0, 99, 0
2, 429120, Note_on_c, 0, 98, 100
2, 429120, Note_on_c, 0, 86, 100
2, 429120, Note_on_c, 0, 72, 100
2, 429360, Note_on_c, 0, 108, 0
2, 429360, Note_on_c, 0, 98, 0
2, 429360, Note_on_c, 0, 86, 0
2, 429360, Note_on_c, 0, 72, 0
2, 429570, Note_on_c, 0, 105, 0
2, 429570, Note_on_c, 0, 93, 0
2, 429570, Note_on_c, 0, 69, 0
2, 429570, Note_on_c, 0, 81, 0
2, 429570, Note_on_c, 0, 106, 100
2, 429570, Note_on_c, 0, 94, 100
2, 429570, Note_on_c, 0, 70, 100
2, 429570, Note_on_c, 0, 82, 100
2, 429600, Note_on_c, 0, 99, 100
2, 429600, Note_on_c, 0, 100, 100
2, 429600, Note_on_c, 0, 88, 100
2, 429600, Note_on_c, 0, 62, 100
2, 429600, Note_on_c, 0, 74, 100
2, 429600, Note_on_c, 0, 108, 100
2, 429840, Note_on_c, 0, 99, 0
2, 429840, Note_on_c, 0, 100, 0
2, 429840, Note_on_c, 0, 88, 0
2, 429840, Note_on_c, 0, 62, 0
2, 429840, Note_on_c, 0, 74, 0
2, 430560, Note_on_c, 0, 98, 100
2, 430560, Note_on_c, 0, 99, 100
2, 430560, Note_on_c, 0, 86, 100
2, 430560, Note_on_c, 0, 87, 100
2, 430560, Note_on_c, 0, 73, 100
2, 430800, Note_on_c, 0, 98, 0
2, 430800, Note_on_c, 0, 99, 0
2, 430800, Note_on_c, 0, 86, 0
2, 430800, Note_on_c, 0, 87, 0
2, 430800, Note_on_c, 0, 73, 0
2, 431520, Note_on_c, 0, 97, 100
2, 431520, Note_on_c, 0, 98, 100
2, 431520, Note_on_c, 0, 85, 100
2, 431520, Note_on_c, 0, 86, 100
2, 431520, Note_on_c, 0, 61, 100
2, 431520, Note_on_c, 0, 72, 100
2, 431760, Note_on_c, 0, 97, 0
2, 431760, Note_on_c, 0, 98, 0
2, 431760, Note_on_c, 0, 85, 0
2, 431760, Note_on_c, 0, 86, 0
2, 431760, Note_on_c, 0, 61, 0
2, 431760, Note_on_c, 0, 72, 0
2, 432480, Note_on_c, 0, 98, 100
2, 432480, Note_on_c, 0, 87, 100
2, 432480, Note_on_c, 0, 73, 100
2, 432720, Note_on_c, 0, 98, 0
2, 432720, Note_on_c, 0, 87, 0
2, 432720, Note_on_c, 0, 73, 0
2, 432720, Note_on_c, 0, 99, 100
2, 432960, Note_on_c, 0, 99, 0
2, 432960, Note_on_c, 0, 98, 100
2, 432960, Note_on_c, 0, 86, 100
2, 432960, Note_on_c, 0, 72, 100
2, 433200, Note_on_c, 0, 98, 0
2, 433200, Note_on_c, 0, 86, 0
2, 433200, Note_on_c, 0, 72, 0
2, 433410, Note_on_c, 0, 106, 0
2, 433410, Note_on_c, 0, 94, 0
2, 433410, Note_on_c, 0, 70, 0
2, 433410, Note_on_c, 0, 82, 0
2, 433410, Note_on_c, 0, 105, 100
2, 433410, Note_on_c, 0, 93, 100
2, 433410, Note_on_c, 0, 69, 100
2, 433410, Note_on_c, 0, 81, 100
2, 433440, Note_on_c, 0, 99, 100
2, 433440, Note_on_c, 0, 100, 100
2, 433440, Note_on_c, 0, 88, 100
2, 433440, Note_on_c, 0, 62, 100
2, 433440, Note_on_c, 0, 74, 100
2, 433680, Note_on_c, 0, 99, 0
2, 433680, Note_on_c, 0, 100, 0
2, 433680, Note_on_c, 0, 88, 0
2, 433680, Note_on_c, 0, 62, 0
2, 433680, Note_on_c, 0, 74, 0
2, 434400, Note_on_c, 0, 98, 100
2, 434400, Note_on_c, 0, 99, 100
2, 434400, Note_on_c, 0, 86, 100
2, 434400, Note_on_c, 0, 87, 100
2, 434400, Note_on_c, 0, 73, 100
2, 434640, Note_on_c, 0, 98, 0
2, 434640, Note_on_c, 0, 99, 0
2, 434640, Note_on_c, 0, 86, 0
2, 434640, Note_on_c, 0, 87, 0
2, 434640, Note_on_c, 0, 73, 0
2, 435360, Note_on_c, 0, 97, 100
2, 435360, Note_on_c, 0, 98, 100
2, 435360, Note_on_c, 0, 85, 100
2, 435360, Note_on_c, 0, 86, 100
2, 435360, Note_on_c, 0, 61, 100
2, 435360, Note_on_c, 0, 72, 100
2, 435600, Note_on_c, 0, 97, 0
2, 435600, Note_on_c, 0, 98, 0
2, 435600, Note_on_c, 0, 85, 0
2, 435600, Note_on_c, 0, 86, 0
2, 435600, Note_on_c, 0, 61, 0
2, 435600, Note_on_c, 0, 72, 0
2, 436320, Note_on_c, 0, 98, 100
2, 436320, Note_on_c, 0, 87, 100
2, 436320, Note_on_c, 0, 73, 100
2, 436560, Note_on_c, 0, 98, 0
2, 436560, Note_on_c, 0, 87, 0
2, 436560, Note_on_c, 0, 73, 0
2, 436560, Note_on_c, 0, 99, 100
2, 436800, Note_on_c, 0, 99, 0
2, 436800, Note_on_c, 0, 98, 100
2, 436800, Note_on_c, 0, 86, 100
2, 436800, Note_on_c, 0, 72, 100
2, 437040, Note_on_c, 0, 98, 0
2, 437040, Note_on_c, 0, 86, 0
2, 437040, Note_on_c, 0, 72, 0
2, 437250, Note_on_c, 0, 105, 0
2, 437250, Note_on_c, 0, 93, 0
2, 437250, Note_on_c, 0, 69, 0
2, 437250, Note_on_c, 0, 81, 0
2, 437250, Note_on_c, 0, 106, 100
2, 437250, Note_on_c, 0, 94, 100
2, 437250, Note_on_c, 0, 70, 100
2, 437250, Note_on_c, 0, 82, 100
2, 437280, Note_on_c, 0, 99, 100
2, 437280, Note_on_c, 0, 100, 100
2, 437280, Note_on_c, 0, 88, 100
2, 437280, Note_on_c, 0, 62, 100
2, 437280, Note_on_c, 0, 74, 100
2, 437520, Note_on_c, 0, 99, 0
2, 437520, Note_on_c, 0, 100, 0
2, 437520, Note_on_c, 0, 88, 0
2, 437520, Note_on_c, 0, 62, 0
2, 437520, Note_on_c, 0, 74, 0
2, 438240, Note_on_c, 0, 98, 100
2, 438240, Note_on_c, 0, 99, 100
2, 438240, Note_on_c, 0, 86, 100
2, 438240, Note_on_c, 0, 87, 100
2, 438240, Note_on_c, 0, 73, 100
2, 438480, Note_on_c, 0, 98, 0
2, 438480, Note_on_c, 0, 99, 0
2, 438480, Note_on_c, 0, 86, 0
2, 438480, Note_on_c, 0, 87, 0
2, 438480, Note_on_c, 0, 73, 0
2, 439200, Note_on_c, 0, 97, 100
2, 439200, Note_on_c, 0, 98, 100
2, 439200, Note_on_c, 0, 85, 100
2, 439200, Note_on_c, 0, 86, 100
2, 439200, Note_on_c, 0, 61, 100
2, 439200, Note_on_c, 0, 72, 100
2, 439440, Note_on_c, 0, 97, 0
2, 439440, Note_on_c, 0, 98, 0
2, 439440, Note_on_c, 0, 85, 0
2, 439440, Note_on_c, 0, 86, 0
2, 439440, Note_on_c, 0, 61, 0
2, 439440, Note_on_c, 0, 72, 0
2, 440130, Note_on_c, 0, 105, 100
2, 440130, Note_on_c, 0, 93, 100
2, 440130, Note_on_c, 0, 69, 100
2, 440130, Note_on_c, 0, 81, 100
2, 440160, Note_on_c, 0, 97, 100
2, 440160, Note_on_c, 0, 85, 100
2, 440160, Note_on_c, 0, 72, 100
2, 440400, Note_on_c, 0, 97, 0
2, 440400, Note_on_c, 0, 85, 0
2, 440400, Note_on_c, 0, 72, 0
2, 440640, Note_on_c, 0, 97, 100
2, 440640, Note_on_c, 0, 85, 100
2, 440640, Note_on_c, 0, 72, 100
2, 440880, Note_on_c, 0, 97, 0
2, 440880, Note_on_c, 0, 85, 0
2, 440880, Note_on_c, 0, 72, 0
2, 441090, Note_on_c, 0, 103, 100
2, 441090, Note_on_c, 0, 91, 100
2, 441090, Note_on_c, 0, 67, 100
2, 441090, Note_on_c, 0, 79, 100
2, 441120, Note_on_c, 0, 100, 100
2, 441120, Note_on_c, 0, 88, 100
2, 441120, Note_on_c, 0, 62, 100
2, 441120, Note_on_c, 0, 74, 100
2, 442080, Note_on_c, 0, 100, 0
2, 442080, Note_on_c, 0, 88, 0
2, 442080, Note_on_c, 0, 74, 0
2, 442080, Note_on_c, 0, 99, 100
2, 442080, Note_on_c, 0, 87, 100
2, 442080, Note_on_c, 0, 74, 100
2, 442320, Note_on_c, 0, 62, 0
2, 442320, Note_on_c, 0, 99, 0
2, 442320, Note_on_c, 0, 87, 0
2, 442320, Note_on_c, 0, 74, 0
2, 442560, Note_on_c, 0, 98, 100
2, 442560, Note_on_c, 0, 86, 100
2, 442560, Note_on_c, 0, 62, 100
2, 442560, Note_on_c, 0, 74, 100
2, 442800, Note_on_c, 0, 108, 0
2, 442800, Note_on_c, 0, 98, 0
2, 442800, Note_on_c, 0, 86, 0
2, 442800, Note_on_c, 0, 62, 0
2, 442800, Note_on_c, 0, 74, 0
2, 443040, Note_on_c, 0, 97, 100
2, 443040, Note_on_c, 0, 85, 100
2, 443040, Note_on_c, 0, 74, 100
2, 443280, Note_on_c, 0, 97, 0
2, 443280, Note_on_c, 0, 85, 0
2, 443280, Note_on_c, 0, 74, 0
2, 443520, Note_on_c, 0, 99, 100
2, 443520, Note_on_c, 0, 87, 100
2, 443520, Note_on_c, 0, 62, 100
2, 443520, Note_on_c, 0, 73, 100
2, 443760, Note_on_c, 0, 99, 0
2, 443760, Note_on_c, 0, 87, 0
2, 443760, Note_on_c, 0, 62, 0
2, 443760, Note_on_c, 0, 73, 0
2, 444000, Note_on_c, 0, 98, 100
2, 444000, Note_on_c, 0, 86, 100
2, 444000, Note_on_c, 0, 73, 100
2, 444240, Note_on_c, 0, 98, 0
2, 444240, Note_on_c, 0, 86, 0
2, 444240, Note_on_c, 0, 73, 0
2, 444480, Note_on_c, 0, 97, 100
2, 444480, Note_on_c, 0, 85, 100
2, 444480, Note_on_c, 0, 62, 100
2, 444480, Note_on_c, 0, 73, 100
2, 444720, Note_on_c, 0, 97, 0
2, 444720, Note_on_c, 0, 85, 0
2, 444720, Note_on_c, 0, 62, 0
2, 444720, Note_on_c, 0, 73, 0
2, 444960, Note_on_c, 0, 96, 100
2, 444960, Note_on_c, 0, 84, 100
2, 444960, Note_on_c, 0, 60, 100
2, 444960, Note_on_c, 0, 72, 100
2, 445200, Note_on_c, 0, 60, 0
2, 445410, Note_on_c, 0, 67, 0
2, 446370, Note_on_c, 0, 106, 0
2, 446370, Note_on_c, 0, 94, 0
2, 446370, Note_on_c, 0, 70, 0
2, 446370, Note_on_c, 0, 82, 0
2, 446370, Note_on_c, 0, 103, 0
2, 446370, Note_on_c, 0, 91, 0
2, 446370, Note_on_c, 0, 79, 0
2, 446400, Note_on_c, 0, 96, 0
2, 446400, Note_on_c, 0, 84, 0
2, 446400, Note_on_c, 0, 72, 0
2, 446400, Note_on_c, 0, 99, 100
2, 446400, Note_on_c, 0, 87, 100
2, 446400, Note_on_c, 0, 75, 100
2, 446400, Note_on_c, 0, 62, 100
2, 446400, Note_on_c, 0, 108, 100
2, 446640, Note_on_c, 0, 62, 0
2, 447360, Note_on_c, 0, 99, 0
2, 447360, Note_on_c, 0, 87, 0
2, 447360, Note_on_c, 0, 96, 100
2, 447360, Note_on_c, 0, 84, 100
2, 447600, Note_on_c, 0, 108, 0
2, 447600, Note_on_c, 0, 96, 0
2, 447600, Note_on_c, 0, 84, 0
2, 447840, Note_on_c, 0, 75, 0
2, 447840, Note_on_c, 0, 98, 100
2, 447840, Note_on_c, 0, 86, 100
2, 447840, Note_on_c, 0, 74, 100
2, 447840, Note_on_c, 0, 108, 100
2, 448560, Note_on_c, 0, 108, 0
2, 448800, Note_on_c, 0, 98, 0
2, 448800, Note_on_c, 0, 86, 0
2, 448800, Note_on_c, 0, 96, 100
2, 448800, Note_on_c, 0, 84, 100
2, 448800, Note_on_c, 0, 108, 100
2, 449040, Note_on_c, 0, 96, 0
2, 449040, Note_on_c, 0, 84, 0
2, 449040, Note_on_c, 0, 108, 0
2, 449280, Note_on_c, 0, 74, 0
2, 449280, Note_on_c, 0, 97, 100
2, 449280, Note_on_c, 0, 85, 100
2, 449280, Note_on_c, 0, 73, 100
2, 449280, Note_on_c, 0, 61, 100
2, 449280, Note_on_c, 0, 108, 100
2, 449520, Note_on_c, 0, 61, 0
2, 450240, Note_on_c, 0, 97, 0
2, 450240, Note_on_c, 0, 85, 0
2, 450240, Note_on_c, 0, 96, 100
2, 450240, Note_on_c, 0, 84, 100
2, 450480, Note_on_c, 0, 108, 0
2, 450480, Note_on_c, 0, 96, 0
2, 450480, Note_on_c, 0, 84, 0
2, 450720, Note_on_c, 0, 73, 0
2, 450720, Note_on_c, 0, 98, 100
2, 450720, Note_on_c, 0, 86, 100
2, 450720, Note_on_c, 0, 74, 100
2, 450720, Note_on_c, 0, 60, 100
2, 450720, Note_on_c, 0, 108, 100
2, 450960, Note_on_c, 0, 60, 0
2, 451680, Note_on_c, 0, 98, 0
2, 451680, Note_on_c, 0, 86, 0
2, 451680, Note_on_c, 0, 97, 100
2, 451680, Note_on_c, 0, 85, 100
2, 451920, Note_on_c, 0, 108, 0
2, 451920, Note_on_c, 0, 97, 0
2, 451920, Note_on_c, 0, 85, 0
2, 452160, Note_on_c, 0, 74, 0
2, 452160, Note_on_c, 0, 96, 100
2, 452160, Note_on_c, 0, 84, 100
2, 452160, Note_on_c, 0, 72, 100
2, 452160, Note_on_c, 0, 60, 100
2, 452160, Note_on_c, 0, 108, 100
2, 452400, Note_on_c, 0, 96, 0
2, 452400, Note_on_c, 0, 84, 0
2, 452400, Note_on_c, 0, 72, 0
2, 452400, Note_on_c, 0, 60, 0
2, 453090, Note_on_c, 0, 105, 0
2, 453090, Note_on_c, 0, 93, 0
2, 453090, Note_on_c, 0, 69, 0
2, 453090, Note_on_c, 0, 81, 0
2, 453090, Note_on_c, 0, 106, 100
2, 453090, Note_on_c, 0, 94, 100
2, 453090, Note_on_c, 0, 70, 100
2, 453090, Note_on_c, 0, 82, 100
2, 453120, Note_on_c, 0, 108, 0
2, 453120, Note_on_c, 0, 96, 100
2, 453120, Note_on_c, 0, 84, 100
2, 453120, Note_on_c, 0, 72, 100
2, 453120, Note_on_c, 0, 60, 100
2, 453360, Note_on_c, 0, 60, 0
2, 454080, Note_on_c, 0, 96, 0
2, 454080, Note_on_c, 0, 84, 0
2, 454080, Note_on_c, 0, 72, 0
2, 454080, Note_on_c, 0, 98, 100
2, 454080, Note_on_c, 0, 86, 100
2, 454080, Note_on_c, 0, 74, 100
2, 454080, Note_on_c, 0, 61, 100
2, 454080, Note_on_c, 0, 108, 100
2, 454320, Note_on_c, 0, 61, 0
2, 455040, Note_on_c, 0, 98, 0
2, 455040, Note_on_c, 0, 86, 0
2, 455040, Note_on_c, 0, 96, 100
2, 455040, Note_on_c, 0, 84, 100
2, 455280, Note_on_c, 0, 108, 0
2, 455280, Note_on_c, 0, 96, 0
2, 455280, Note_on_c, 0, 84, 0
2, 455520, Note_on_c, 0, 74, 0
2, 455520, Note_on_c, 0, 97, 100
2, 455520, Note_on_c, 0, 85, 100
2, 455520, Note_on_c, 0, 73, 100
2, 455520, Note_on_c, 0, 108, 100
2, 456480, Note_on_c, 0, 97, 0
2, 456480, Note_on_c, 0, 85, 0
2, 456480, Note_on_c, 0, 96, 100
2, 456480, Note_on_c, 0, 84, 100
2, 456720, Note_on_c, 0, 108, 0
2, 456720, Note_on_c, 0, 96, 0
2, 456720, Note_on_c, 0, 84, 0
2, 456960, Note_on_c, 0, 73, 0
2, 456960, Note_on_c, 0, 99, 100
2, 456960, Note_on_c, 0, 87, 100
2, 456960, Note_on_c, 0, 75, 100
2, 456960, Note_on_c, 0, 62, 100
2, 456960, Note_on_c, 0, 108, 100
2, 457200, Note_on_c, 0, 62, 0
2, 457920, Note_on_c, 0, 99, 0
2, 457920, Note_on_c, 0, 87, 0
2, 457920, Note_on_c, 0, 75, 0
2, 458160, Note_on_c, 0, 108, 0
2, 458370, Note_on_c, 0, 105, 100
2, 458370, Note_on_c, 0, 93, 100
2, 458370, Note_on_c, 0, 69, 100
2, 458370, Note_on_c, 0, 81, 100
2, 458400, Note_on_c, 0, 98, 100
2, 458400, Note_on_c, 0, 74, 100
2, 458400, Note_on_c, 0, 62, 100
2, 458400, Note_on_c, 0, 87, 100
2, 458400, Note_on_c, 0, 108, 100
2, 458640, Note_on_c, 0, 98, 0
2, 458640, Note_on_c, 0, 74, 0
2, 458640, Note_on_c, 0, 62, 0
2, 458640, Note_on_c, 0, 87, 0
2, 458640, Note_on_c, 0, 108, 0
2, 458640, Note_on_c, 0, 99, 100
2, 458880, Note_on_c, 0, 99, 0
2, 458880, Note_on_c, 0, 98, 100
2, 458880, Note_on_c, 0, 86, 100
2, 458880, Note_on_c, 0, 108, 100
2, 459120, Note_on_c, 0, 98, 0
2, 459120, Note_on_c, 0, 86, 0
2, 459360, Note_on_c, 0, 97, 100
2, 459360, Note_on_c, 0, 85, 100
2, 459600, Note_on_c, 0, 97, 0
2, 459600, Note_on_c, 0, 85, 0
2, 459840, Note_on_c, 0, 108, 0
2, 459840, Note_on_c, 0, 96, 100
2, 459840, Note_on_c, 0, 84, 100
2, 459840, Note_on_c, 0, 72, 100
2, 459840, Note_on_c, 0, 61, 100
2, 460080, Note_on_c, 0, 96, 0
2, 460080, Note_on_c, 0, 84, 0
2, 460080, Note_on_c, 0, 72, 0
2, 460080, Note_on_c, 0, 61, 0
2, 460290, Note_on_c, 0, 105, 0
2, 460290, Note_on_c, 0, 93, 0
2, 460290, Note_on_c, 0, 69, 0
2, 460290, Note_on_c, 0, 81, 0
2, 460800, Note_on_c, 0, 96, 100
2, 460800, Note_on_c, 0, 84, 100
2, 460800, Note_on_c, 0, 72, 100
2, 460800, Note_on_c, 0, 60, 100
2, 461040, Note_on_c, 0, 60, 0
2, 461760, Note_on_c, 0, 96, 0
2, 461760, Note_on_c, 0, 84, 0
2, 461760, Note_on_c, 0, 72, 0
2, 461760, Note_on_c, 0, 99, 100
2, 461760, Note_on_c, 0, 87, 100
2, 461760, Note_on_c, 0, 75, 100
2, 461760, Note_on_c, 0, 62, 100
2, 461760, Note_on_c, 0, 108, 100
2, 462000, Note_on_c, 0, 62, 0
2, 462720, Note_on_c, 0, 99, 0
2, 462720, Note_on_c, 0, 87, 0
2, 462720, Note_on_c, 0, 96, 100
2, 462720, Note_on_c, 0, 84, 100
2, 462960, Note_on_c, 0, 108, 0
2, 462960, Note_on_c, 0, 96, 0
2, 462960, Note_on_c, 0, 84, 0
2, 463200, Note_on_c, 0, 75, 0
2, 463200, Note_on_c, 0, 98, 100
2, 463200, Note_on_c, 0, 86, 100
2, 463200, Note_on_c, 0, 74, 100
2, 463200, Note_on_c, 0, 108, 100
2, 464160, Note_on_c, 0, 98, 0
2, 464160, Note_on_c, 0, 86, 0
2, 464160, Note_on_c, 0, 96, 100
2, 464160, Note_on_c, 0, 84, 100
2, 464400, Note_on_c, 0, 108, 0
2, 464400, Note_on_c, 0, 96, 0
2, 464400, Note_on_c, 0, 84, 0
2, 464640, Note_on_c, 0, 74, 0
2, 464640, Note_on_c, 0, 97, 100
2, 464640, Note_on_c, 0, 85, 100
2, 464640, Note_on_c, 0, 73, 100
2, 464640, Note_on_c, 0, 61, 100
2, 464640, Note_on_c, 0, 108, 100
2, 464880, Note_on_c, 0, 61, 0
2, 464880, Note_on_c, 0, 108, 0
2, 465120, Note_on_c, 0, 108, 100
2, 465600, Note_on_c, 0, 97, 0
2, 465600, Note_on_c, 0, 85, 0
2, 465600, Note_on_c, 0, 96, 100
2, 465600, Note_on_c, 0, 84, 100
2, 465840, Note_on_c, 0, 108, 0
2, 465840, Note_on_c, 0, 96, 0
2, 465840, Note_on_c, 0, 84, 0
2, 466080, Note_on_c, 0, 73, 0
2, 466080, Note_on_c, 0, 98, 100
2, 466080, Note_on_c, 0, 86, 100
2, 466080, Note_on_c, 0, 74, 100
2, 466080, Note_on_c, 0, 60, 100
2, 466080, Note_on_c, 0, 108, 100
2, 466320, Note_on_c, 0, 60, 0
2, 467040, Note_on_c, 0, 98, 0
2, 467040, Note_on_c, 0, 86, 0
2, 467040, Note_on_c, 0, 97, 100
2, 467040, Note_on_c, 0, 85, 100
2, 467280, Note_on_c, 0, 97, 0
2, 467280, Note_on_c, 0, 85, 0
2, 467520, Note_on_c, 0, 74, 0
2, 467520, Note_on_c, 0, 108, 0
2, 467520, Note_on_c, 0, 96, 100
2, 467520, Note_on_c, 0, 84, 100
2, 467520, Note_on_c, 0, 72, 100
2, 467520, Note_on_c, 0, 60, 100
2, 467760, Note_on_c, 0, 96, 0
2, 467760, Note_on_c, 0, 84, 0
2, 467760, Note_on_c, 0, 72, 0
2, 467760, Note_on_c, 0, 60, 0
2, 468450, Note_on_c, 0, 106, 0
2, 468450, Note_on_c, 0, 94, 0
2, 468450, Note_on_c, 0, 70, 0
2, 468450, Note_on_c, 0, 82, 0
2, 468450, Note_on_c, 0, 105, 100
2, 468450, Note_on_c, 0, 93, 100
2, 468450, Note_on_c, 0, 69, 100
2, 468450, Note_on_c, 0, 81, 100
2, 468480, Note_on_c, 0, 96, 100
2, 468480, Note_on_c, 0, 84, 100
2, 468480, Note_on_c, 0, 72, 100
2, 468480, Note_on_c, 0, 60, 100
2, 468720, Note_on_c, 0, 60, 0
2, 469440, Note_on_c, 0, 96, 0
2, 469440, Note_on_c, 0, 84, 0
2, 469440, Note_on_c, 0, 72, 0
2, 469440, Note_on_c, 0, 98, 100
2, 469440, Note_on_c, 0, 86, 100
2, 469440, Note_on_c, 0, 74, 100
2, 469440, Note_on_c, 0, 61, 100
2, 469440, Note_on_c, 0, 108, 100
2, 469680, Note_on_c, 0, 61, 0
2, 470400, Note_on_c, 0, 98, 0
2, 470400, Note_on_c, 0, 86, 0
2, 470400, Note_on_c, 0, 108, 0
2, 470400, Note_on_c, 0, 96, 100
2, 470400, Note_on_c, 0, 84, 100
2, 470640, Note_on_c, 0, 96, 0
2, 470640, Note_on_c, 0, 84, 0
2, 470880, Note_on_c, 0, 74, 0
2, 470880, Note_on_c, 0, 97, 100
2, 470880, Note_on_c, 0, 85, 100
2, 470880, Note_on_c, 0, 73, 100
2, 470880, Note_on_c, 0, 108, 100
2, 471600, Note_on_c, 0, 108, 0
2, 471840, Note_on_c, 0, 97, 0
2, 471840, Note_on_c, 0, 85, 0
2, 471840, Note_on_c, 0, 96, 100
2, 471840, Note_on_c, 0, 84, 100
2, 471840, Note_on_c, 0, 108, 100
2, 472080, Note_on_c, 0, 96, 0
2, 472080, Note_on_c, 0, 84, 0
2, 472080, Note_on_c, 0, 108, 0
2, 472290, Note_on_c, 0, 106, 100
2, 472290, Note_on_c, 0, 94, 100
2, 472290, Note_on_c, 0, 70, 100
2, 472290, Note_on_c, 0, 82, 100
2, 472320, Note_on_c, 0, 73, 0
2, 472320, Note_on_c, 0, 98, 100
2, 472320, Note_on_c, 0, 86, 100
2, 472320, Note_on_c, 0, 74, 100
2, 472320, Note_on_c, 0, 62, 100
2, 472320, Note_on_c, 0, 108, 100
2, 472560, Note_on_c, 0, 98, 0
2, 472560, Note_on_c, 0, 86, 0
2, 472560, Note_on_c, 0, 74, 0
2, 472560, Note_on_c, 0, 62, 0
2, 472560, Note_on_c, 0, 108, 0
2, 472800, Note_on_c, 0, 98, 100
2, 472800, Note_on_c, 0, 86, 100
2, 472800, Note_on_c, 0, 74, 100
2, 472800, Note_on_c, 0, 108, 100
2, 473040, Note_on_c, 0, 98, 0
2, 473040, Note_on_c, 0, 86, 0
2, 473040, Note_on_c, 0, 74, 0
2, 473040, Note_on_c, 0, 108, 0
2, 473280, Note_on_c, 0, 98, 100
2, 473280, Note_on_c, 0, 86, 100
2, 473280, Note_on_c, 0, 74, 100
2, 473280, Note_on_c, 0, 62, 100
2, 473280, Note_on_c, 0, 108, 100
2, 473520, Note_on_c, 0, 98, 0
2, 473520, Note_on_c, 0, 86, 0
2, 473520, Note_on_c, 0, 74, 0
2, 473520, Note_on_c, 0, 62, 0
2, 473760, Note_on_c, 0, 98, 100
2, 473760, Note_on_c, 0, 86, 100
2, 473760, Note_on_c, 0, 74, 100
2, 474000, Note_on_c, 0, 98, 0
2, 474000, Note_on_c, 0, 86, 0
2, 474000, Note_on_c, 0, 74, 0
2, 474240, Note_on_c, 0, 108, 0
2, 474240, Note_on_c, 0, 98, 100
2, 474240, Note_on_c, 0, 86, 100
2, 474240, Note_on_c, 0, 62, 100
2, 474240, Note_on_c, 0, 84, 100
2, 474240, Note_on_c, 0, 96, 100
2, 474240, Note_on_c, 0, 72, 100
2, 474240, Note_on_c, 0, 74, 100
2, 474240, Note_on_c, 0, 61, 100
2, 475920, Note_on_c, 0, 98, 0
2, 475920, Note_on_c, 0, 86, 0
2, 475920, Note_on_c, 0, 62, 0
2, 475920, Note_on_c, 0, 84, 0
2, 475920, Note_on_c, 0, 96, 0
2, 475920, Note_on_c, 0, 72, 0
2, 475920, Note_on_c, 0, 74, 0
2, 475920, Note_on_c, 0, 61, 0
2, 476130, Note_on_c, 0, 105, 0
2, 476130, Note_on_c, 0, 93, 0
2, 476130, Note_on_c, 0, 69, 0
2, 476130, Note_on_c, 0, 81, 0
2, 476160, Note_on_c, 0, 96, 100
2, 476160, Note_on_c, 0, 84, 100
2, 476160, Note_on_c, 0, 72, 100
2, 476160, Note_on_c, 0, 60, 100
2, 476400, Note_on_c, 0, 60, 0
2, 477120, Note_on_c, 0, 96, 0
2, 477120, Note_on_c, 0, 84, 0
2, 477120, Note_on_c, 0, 72, 0
2, 477120, Note_on_c, 0, 99, 100
2, 477120, Note_on_c, 0, 87, 100
2, 477120, Note_on_c, 0, 75, 100
2, 477120, Note_on_c, 0, 62, 100
2, 477120, Note_on_c, 0, 108, 100
2, 477360, Note_on_c, 0, 62, 0
2, 478080, Note_on_c, 0, 99, 0
2, 478080, Note_on_c, 0, 87, 0
2, 478080, Note_on_c, 0, 96, 100
2, 478080, Note_on_c, 0, 84, 100
2, 478320, Note_on_c, 0, 108, 0
2, 478320, Note_on_c, 0, 96, 0
2, 478320, Note_on_c, 0, 84, 0
2, 478560, Note_on_c, 0, 75, 0
2, 478560, Note_on_c, 0, 98, 100
2, 478560, Note_on_c, 0, 86, 100
2, 478560, Note_on_c, 0, 74, 100
2, 478560, Note_on_c, 0, 108, 100
2, 479280, Note_on_c, 0, 108, 0
2, 479520, Note_on_c, 0, 98, 0
2, 479520, Note_on_c, 0, 86, 0
2, 479520, Note_on_c, 0, 96, 100
2, 479520, Note_on_c, 0, 84, 100
2, 479520, Note_on_c, 0, 108, 100
2, 479760, Note_on_c, 0, 96, 0
2, 479760, Note_on_c, 0, 84, 0
2, 479760, Note_on_c, 0, 108, 0
2, 480000, Note_on_c, 0, 74, 0
2, 480000, Note_on_c, 0, 97, 100
2, 480000, Note_on_c, 0, 85, 100
2, 480000, Note_on_c, 0, 73, 100
2, 480000, Note_on_c, 0, 61, 100
2, 480000, Note_on_c, 0, 108, 100
2, 480240, Note_on_c, 0, 61, 0
2, 480960, Note_on_c, 0, 97, 0
2, 480960, Note_on_c, 0, 85, 0
2, 480960, Note_on_c, 0, 96, 100
2, 480960, Note_on_c, 0, 84, 100
2, 481200, Note_on_c, 0, 108, 0
2, 481200, Note_on_c, 0, 96, 0
2, 481200, Note_on_c, 0, 84, 0
2, 481440, Note_on_c, 0, 73, 0
2, 481440, Note_on_c, 0, 98, 100
2, 481440, Note_on_c, 0, 86, 100
2, 481440, Note_on_c, 0, 74, 100
2, 481440, Note_on_c, 0, 60, 100
2, 481440, Note_on_c, 0, 108, 100
2, 481680, Note_on_c, 0, 60, 0
2, 482400, Note_on_c, 0, 98, 0
2, 482400, Note_on_c, 0, 86, 0
2, 482400, Note_on_c, 0, 108, 0
2, 482400, Note_on_c, 0, 97, 100
2, 482400, Note_on_c, 0, 85, 100
2, 482640, Note_on_c, 0, 97, 0
2, 482640, Note_on_c, 0, 85, 0
2, 482880, Note_on_c, 0, 74, 0
2, 482880, Note_on_c, 0, 96, 100
2, 482880, Note_on_c, 0, 84, 100
2, 482880, Note_on_c, 0, 72, 100
2, 482880, Note_on_c, 0, 60, 100
2, 482880, Note_on_c, 0, 108, 100
2, 483120, Note_on_c, 0, 96, 0
2, 483120, Note_on_c, 0, 84, 0
2, 483120, Note_on_c, 0, 72, 0
2, 483120, Note_on_c, 0, 60, 0
2, 483810, Note_on_c, 0, 106, 0
2, 483810, Note_on_c, 0, 94, 0
2, 483810, Note_on_c, 0, 70, 0
2, 483810, Note_on_c, 0, 82, 0
2, 483810, Note_on_c, 0, 105, 100
2, 483810, Note_on_c, 0, 93, 100
2, 483810, Note_on_c, 0, 69, 100
2, 483810, Note_on_c, 0, 81, 100
2, 483840, Note_on_c, 0, 108, 0
2, 483840, Note_on_c, 0, 96, 100
2, 483840, Note_on_c, 0, 84, 100
2, 483840, Note_on_c, 0, 72, 100
2, 483840, Note_on_c, 0, 60, 100
2, 484080, Note_on_c, 0, 60, 0
2, 484800, Note_on_c, 0, 96, 0
2, 484800, Note_on_c, 0, 84, 0
2, 484800, Note_on_c, 0, 72, 0
2, 484800, Note_on_c, 0, 98, 100
2, 484800, Note_on_c, 0, 86, 100
2, 484800, Note_on_c, 0, 74, 100
2, 484800, Note_on_c, 0, 61, 100
2, 484800, Note_on_c, 0, 108, 100
2, 485040, Note_on_c, 0, 61, 0
2, 485760, Note_on_c, 0, 98, 0
2, 485760, Note_on_c, 0, 86, 0
2, 485760, Note_on_c, 0, 96, 100
2, 485760, Note_on_c, 0, 84, 100
2, 486000, Note_on_c, 0, 108, 0
2, 486000, Note_on_c, 0, 96, 0
2, 486000, Note_on_c, 0, 84, 0
2, 486240, Note_on_c, 0, 74, 0
2, 486240, Note_on_c, 0, 97, 100
2, 486240, Note_on_c, 0, 85, 100
2, 486240, Note_on_c, 0, 73, 100
2, 486240, Note_on_c, 0, 108, 100
2, 487200, Note_on_c, 0, 97, 0
2, 487200, Note_on_c, 0, 85, 0
2, 487200, Note_on_c, 0, 96, 100
2, 487200, Note_on_c, 0, 84, 100
2, 487440, Note_on_c, 0, 108, 0
2, 487440, Note_on_c, 0, 96, 0
2, 487440, Note_on_c, 0, 84, 0
2, 487680, Note_on_c, 0, 73, 0
2, 487680, Note_on_c, 0, 99, 100
2, 487680, Note_on_c, 0, 87, 100
2, 487680, Note_on_c, 0, 75, 100
2, 487680, Note_on_c, 0, 62, 100
2, 487680, Note_on_c, 0, 108, 100
2, 487920, Note_on_c, 0, 62, 0
2, 488640, Note_on_c, 0, 99, 0
2, 488640, Note_on_c, 0, 87, 0
2, 488640, Note_on_c, 0, 75, 0
2, 488880, Note_on_c, 0, 108, 0
2, 489090, Note_on_c, 0, 106, 100
2, 489090, Note_on_c, 0, 94, 100
2, 489090, Note_on_c, 0, 70, 100
2, 489090, Note_on_c, 0, 82, 100
2, 489120, Note_on_c, 0, 98, 100
2, 489120, Note_on_c, 0, 74, 100
2, 489120, Note_on_c, 0, 62, 100
2, 489120, Note_on_c, 0, 87, 100
2, 489120, Note_on_c, 0, 108, 100
2, 489360, Note_on_c, 0, 98, 0
2, 489360, Note_on_c, 0, 74, 0
2, 489360, Note_on_c, 0, 62, 0
2, 489360, Note_on_c, 0, 87, 0
2, 489360, Note_on_c, 0, 108, 0
2, 489360, Note_on_c, 0, 99, 100
2, 489600, Note_on_c, 0, 99, 0
2, 489600, Note_on_c, 0, 98, 100
2, 489600, Note_on_c, 0, 86, 100
2, 489600, Note_on_c, 0, 108, 100
2, 489840, Note_on_c, 0, 98, 0
2, 489840, Note_on_c, 0, 86, 0
2, 490080, Note_on_c, 0, 97, 100
2, 490080, Note_on_c, 0, 85, 100
2, 490320, Note_on_c, 0, 97, 0
2, 490320, Note_on_c, 0, 85, 0
2, 490560, Note_on_c, 0, 108, 0
2, 490560, Note_on_c, 0, 96, 100
2, 490560, Note_on_c, 0, 84, 100
2, 490560, Note_on_c, 0, 72, 100
2, 490560, Note_on_c, 0, 61, 100
2, 490800, Note_on_c, 0, 96, 0
2, 490800, Note_on_c, 0, 84, 0
2, 490800, Note_on_c, 0, 72, 0
2, 490800, Note_on_c, 0, 61, 0
2, 491010, Note_on_c, 0, 106, 0
2, 491010, Note_on_c, 0, 94, 0
2, 491010, Note_on_c, 0, 70, 0
2, 491010, Note_on_c, 0, 82, 0
2, 491520, Note_on_c, 0, 96, 100
2, 491520, Note_on_c, 0, 84, 100
2, 491520, Note_on_c, 0, 72, 100
2, 491520, Note_on_c, 0, 60, 100
2, 491760, Note_on_c, 0, 60, 0
2, 492480, Note_on_c, 0, 96, 0
2, 492480, Note_on_c, 0, 84, 0
2, 492480, Note_on_c, 0, 72, 0
2, 492480, Note_on_c, 0, 99, 100
2, 492480, Note_on_c, 0, 87, 100
2, 492480, Note_on_c, 0, 75, 100
2, 492480, Note_on_c, 0, 62, 100
2, 492480, Note_on_c, 0, 108, 100
2, 492720, Note_on_c, 0, 62, 0
2, 493440, Note_on_c, 0, 99, 0
2, 493440, Note_on_c, 0, 87, 0
2, 493440, Note_on_c, 0, 96, 100
2, 493440, Note_on_c, 0, 84, 100
2, 493680, Note_on_c, 0, 108, 0
2, 493680, Note_on_c, 0, 96, 0
2, 493680, Note_on_c, 0, 84, 0
2, 493920, Note_on_c, 0, 75, 0
2, 493920, Note_on_c, 0, 98, 100
2, 493920, Note_on_c, 0, 86, 100
2, 493920, Note_on_c, 0, 74, 100
2, 493920, Note_on_c, 0, 108, 100
2, 494640, Note_on_c, 0, 108, 0
2, 494880, Note_on_c, 0, 98, 0
2, 494880, Note_on_c, 0, 86, 0
2, 494880, Note_on_c, 0, 96, 100
2, 494880, Note_on_c, 0, 84, 100
2, 494880, Note_on_c, 0, 108, 100
2, 495120, Note_on_c, 0, 96, 0
2, 495120, Note_on_c, 0, 84, 0
2, 495120, Note_on_c, 0, 108, 0
2, 495360, Note_on_c, 0, 74, 0
2, 495360, Note_on_c, 0, 97, 100
2, 495360, Note_on_c, 0, 85, 100
2, 495360, Note_on_c, 0, 73, 100
2, 495360, Note_on_c, 0, 61, 100
2, 495600, Note_on_c, 0, 61, 0
2, 495600, Note_on_c, 0, 108, 100
2, 496320, Note_on_c, 0, 97, 0
2, 496320, Note_on_c, 0, 85, 0
2, 496320, Note_on_c, 0, 108, 0
2, 496320, Note_on_c, 0, 96, 100
2, 496320, Note_on_c, 0, 84, 100
2, 496560, Note_on_c, 0, 96, 0
2, 496560, Note_on_c, 0, 84, 0
2, 496800, Note_on_c, 0, 73, 0
2, 496800, Note_on_c, 0, 98, 100
2, 496800, Note_on_c, 0, 86, 100
2, 496800, Note_on_c, 0, 74, 100
2, 496800, Note_on_c, 0, 60, 100
2, 496800, Note_on_c, 0, 108, 100
2, 497040, Note_on_c, 0, 60, 0
2, 497760, Note_on_c, 0, 98, 0
2, 497760, Note_on_c, 0, 86, 0
2, 497760, Note_on_c, 0, 97, 100
2, 497760, Note_on_c, 0, 85, 100
2, 498000, Note_on_c, 0, 97, 0
2, 498000, Note_on_c, 0, 85, 0
2, 498240, Note_on_c, 0, 74, 0
2, 498240, Note_on_c, 0, 108, 0
2, 498240, Note_on_c, 0, 96, 100
2, 498240, Note_on_c, 0, 84, 100
2, 498240, Note_on_c, 0, 72, 100
2, 498240, Note_on_c, 0, 60, 100
2, 498480, Note_on_c, 0, 96, 0
2, 498480, Note_on_c, 0, 84, 0
2, 498480, Note_on_c, 0, 72, 0
2, 498480, Note_on_c, 0, 60, 0
2, 499170, Note_on_c, 0, 105, 0
2, 499170, Note_on_c, 0, 93, 0
2, 499170, Note_on_c, 0, 69, 0
2, 499170, Note_on_c, 0, 81, 0
2, 499170, Note_on_c, 0, 106, 100
2, 499170, Note_on_c, 0, 94, 100
2, 499170, Note_on_c, 0, 70, 100
2, 499170, Note_on_c, 0, 82, 100
2, 499200, Note_on_c, 0, 96, 100
2, 499200, Note_on_c, 0, 84, 100
2, 499200, Note_on_c, 0, 72, 100
2, 499200, Note_on_c, 0, 60, 100
2, 499440, Note_on_c, 0, 60, 0
2, 500160, Note_on_c, 0, 96, 0
2, 500160, Note_on_c, 0, 84, 0
2, 500160, Note_on_c, 0, 72, 0
2, 500160, Note_on_c, 0, 98, 100
2, 500160, Note_on_c, 0, 86, 100
2, 500160, Note_on_c, 0, 74, 100
2, 500160, Note_on_c, 0, 61, 100
2, 500160, Note_on_c, 0, 108, 100
2, 500400, Note_on_c, 0, 61, 0
2, 501120, Note_on_c, 0, 98, 0
2, 501120, Note_on_c, 0, 86, 0
2, 501120, Note_on_c, 0, 96, 100
2, 501120, Note_on_c, 0, 84, 100
2, 501360, Note_on_c, 0, 108, 0
2, 501360, Note_on_c, 0, 96, 0
2, 501360, Note_on_c, 0, 84, 0
2, 501600, Note_on_c, 0, 74, 0
2, 501600, Note_on_c, 0, 97, 100
2, 501600, Note_on_c, 0, 85, 100
2, 501600, Note_on_c, 0, 73, 100
2, 501600, Note_on_c, 0, 108, 100
2, 502320, Note_on_c, 0, 108, 0
2, 502560, Note_on_c, 0, 97, 0
2, 502560, Note_on_c, 0, 85, 0
2, 502560, Note_on_c, 0, 96, 100
2, 502560, Note_on_c, 0, 84, 100
2, 502560, Note_on_c, 0, 108, 100
2, 502800, Note_on_c, 0, 96, 0
2, 502800, Note_on_c, 0, 84, 0
2, 502800, Note_on_c, 0, 108, 0
2, 503040, Note_on_c, 0, 73, 0
2, 503040, Note_on_c, 0, 99, 100
2, 503040, Note_on_c, 0, 87, 100
2, 503040, Note_on_c, 0, 75, 100
2, 503040, Note_on_c, 0, 62, 100
2, 503040, Note_on_c, 0, 108, 100
2, 503280, Note_on_c, 0, 62, 0
2, 503280, Note_on_c, 0, 108, 0
2, 503520, Note_on_c, 0, 108, 100
2, 503760, Note_on_c, 0, 108, 0
2, 504000, Note_on_c, 0, 99, 0
2, 504000, Note_on_c, 0, 87, 0
2, 504000, Note_on_c, 0, 75, 0
2, 504000, Note_on_c, 0, 108, 100
2, 504450, Note_on_c, 0, 105, 100
2, 504450, Note_on_c, 0, 93, 100
2, 504450, Note_on_c, 0, 69, 100
2, 504450, Note_on_c, 0, 81, 100
2, 504480, Note_on_c, 0, 98, 100
2, 504480, Note_on_c, 0, 74, 100
2, 504480, Note_on_c, 0, 62, 100
2, 504480, Note_on_c, 0, 87, 100
2, 504720, Note_on_c, 0, 98, 0
2, 504720, Note_on_c, 0, 74, 0
2, 504720, Note_on_c, 0, 62, 0
2, 504720, Note_on_c, 0, 87, 0
2, 504720, Note_on_c, 0, 99, 100
2, 504960, Note_on_c, 0, 99, 0
2, 504960, Note_on_c, 0, 98, 100
2, 504960, Note_on_c, 0, 86, 100
2, 505200, Note_on_c, 0, 108, 0
2, 505200, Note_on_c, 0, 98, 0
2, 505200, Note_on_c, 0, 86, 0
2, 505440, Note_on_c, 0, 97, 100
2, 505440, Note_on_c, 0, 85, 100
2, 505680, Note_on_c, 0, 97, 0
2, 505680, Note_on_c, 0, 85, 0
2, 505920, Note_on_c, 0, 96, 100
2, 505920, Note_on_c, 0, 84, 100
2, 505920, Note_on_c, 0, 72, 100
2, 505920, Note_on_c, 0, 60, 100
2, 506160, Note_on_c, 0, 96, 0
2, 506160, Note_on_c, 0, 84, 0
2, 506160, Note_on_c, 0, 72, 0
2, 506160, Note_on_c, 0, 60, 0
2, 506850, Note_on_c, 0, 105, 0
2, 506850, Note_on_c, 0, 93, 0
2, 506850, Note_on_c, 0, 69, 0
2, 506850, Note_on_c, 0, 81, 0
2, 506880, Note_on_c, 0, 97, 100
2, 506880, Note_on_c, 0, 85, 100
2, 506880, Note_on_c, 0, 73, 100
2, 506880, Note_on_c, 0, 61, 100
2, 507120, Note_on_c, 0, 61, 0
2, 507840, Note_on_c, 0, 97, 0
2, 507840, Note_on_c, 0, 85, 0
2, 507840, Note_on_c, 0, 73, 0
2, 507840, Note_on_c, 0, 98, 100
2, 507840, Note_on_c, 0, 86, 100
2, 507840, Note_on_c, 0, 74, 100
2, 507840, Note_on_c, 0, 62, 100
2, 507840, Note_on_c, 0, 108, 100
2, 508080, Note_on_c, 0, 62, 0
2, 508800, Note_on_c, 0, 98, 0
2, 508800, Note_on_c, 0, 86, 0
2, 508800, Note_on_c, 0, 96, 100
2, 508800, Note_on_c, 0, 84, 100
2, 509040, Note_on_c, 0, 108, 0
2, 509040, Note_on_c, 0, 96, 0
2, 509040, Note_on_c, 0, 84, 0
2, 509280, Note_on_c, 0, 74, 0
2, 509280, Note_on_c, 0, 97, 100
2, 509280, Note_on_c, 0, 85, 100
2, 509280, Note_on_c, 0, 73, 100
2, 509280, Note_on_c, 0, 108, 100
2, 510000, Note_on_c, 0, 108, 0
2, 510240, Note_on_c, 0, 97, 0
2, 510240, Note_on_c, 0, 85, 0
2, 510240, Note_on_c, 0, 96, 100
2, 510240, Note_on_c, 0, 84, 100
2, 510240, Note_on_c, 0, 108, 100
2, 510480, Note_on_c, 0, 73, 0
2, 510480, Note_on_c, 0, 96, 0
2, 510480, Note_on_c, 0, 84, 0
2, 510480, Note_on_c, 0, 108, 0
2, 510690, Note_on_c, 0, 105, 100
2, 510690, Note_on_c, 0, 93, 100
2, 510690, Note_on_c, 0, 69, 100
2, 510690, Note_on_c, 0, 81, 100
2, 510720, Note_on_c, 0, 98, 100
2, 510720, Note_on_c, 0, 86, 100
2, 510720, Note_on_c, 0, 74, 100
2, 510720, Note_on_c, 0, 62, 100
2, 510720, Note_on_c, 0, 108, 100
2, 510960, Note_on_c, 0, 98, 0
2, 510960, Note_on_c, 0, 86, 0
2, 510960, Note_on_c, 0, 74, 0
2, 510960, Note_on_c, 0, 62, 0
2, 510960, Note_on_c, 0, 108, 0
2, 511200, Note_on_c, 0, 98, 100
2, 511200, Note_on_c, 0, 86, 100
2, 511200, Note_on_c, 0, 74, 100
2, 511200, Note_on_c, 0, 108, 100
2, 511440, Note_on_c, 0, 98, 0
2, 511440, Note_on_c, 0, 86, 0
2, 511440, Note_on_c, 0, 74, 0
2, 511440, Note_on_c, 0, 108, 0
2, 511680, Note_on_c, 0, 98, 100
2, 511680, Note_on_c, 0, 86, 100
2, 511680, Note_on_c, 0, 74, 100
2, 511680, Note_on_c, 0, 62, 100
2, 511680, Note_on_c, 0, 108, 100
2, 511920, Note_on_c, 0, 98, 0
2, 511920, Note_on_c, 0, 86, 0
2, 511920, Note_on_c, 0, 74, 0
2, 511920, Note_on_c, 0, 62, 0
2, 512160, Note_on_c, 0, 98, 100
2, 512160, Note_on_c, 0, 86, 100
2, 512160, Note_on_c, 0, 74, 100
2, 512400, Note_on_c, 0, 108, 0
2, 512400, Note_on_c, 0, 98, 0
2, 512400, Note_on_c, 0, 86, 0
2, 512400, Note_on_c, 0, 74, 0
2, 512640, Note_on_c, 0, 98, 100
2, 512640, Note_on_c, 0, 86, 100
2, 512640, Note_on_c, 0, 74, 100
2, 512640, Note_on_c, 0, 62, 100
2, 512640, Note_on_c, 0, 84, 100
2, 512640, Note_on_c, 0, 96, 100
2, 512640, Note_on_c, 0, 72, 100
2, 512640, Note_on_c, 0, 61, 100
2, 513120, Note_on_c, 0, 108, 100
2, 513360, Note_on_c, 0, 108, 0
2, 513840, Note_on_c, 0, 108, 100
2, 514320, Note_on_c, 0, 98, 0
2, 514320, Note_on_c, 0, 86, 0
2, 514320, Note_on_c, 0, 74, 0
2, 514320, Note_on_c, 0, 62, 0
2, 514320, Note_on_c, 0, 84, 0
2, 514320, Note_on_c, 0, 96, 0
2, 514320, Note_on_c, 0, 72, 0
2, 514320, Note_on_c, 0, 61, 0
2, 514320, Note_on_c, 0, 108, 0
2, 514560, Note_on_c, 0, 97, 100
2, 514560, Note_on_c, 0, 98, 100
2, 514560, Note_on_c, 0, 85, 100
2, 514560, Note_on_c, 0, 86, 100
2, 514560, Note_on_c, 0, 73, 100
2, 514560, Note_on_c, 0, 61, 100
2, 514560, Note_on_c, 0, 108, 100
2, 514800, Note_on_c, 0, 97, 0
2, 514800, Note_on_c, 0, 98, 0
2, 514800, Note_on_c, 0, 85, 0
2, 514800, Note_on_c, 0, 86, 0
2, 514800, Note_on_c, 0, 73, 0
2, 514800, Note_on_c, 0, 61, 0
2, 515040, Note_on_c, 0, 96, 100
2, 515040, Note_on_c, 0, 97, 100
2, 515040, Note_on_c, 0, 84, 100
2, 515040, Note_on_c, 0, 85, 100
2, 515040, Note_on_c, 0, 72, 100
2, 515280, Note_on_c, 0, 96, 0
2, 515280, Note_on_c, 0, 97, 0
2, 515280, Note_on_c, 0, 84, 0
2, 515280, Note_on_c, 0, 85, 0
2, 515280, Note_on_c, 0, 72, 0
2, 515760, Note_on_c, 0, 108, 0
2, 516000, Note_on_c, 0, 96, 100
2, 516000, Note_on_c, 0, 97, 100
2, 516000, Note_on_c, 0, 84, 100
2, 516000, Note_on_c, 0, 85, 100
2, 516000, Note_on_c, 0, 72, 100
2, 516000, Note_on_c, 0, 60, 100
2, 516000, Note_on_c, 0, 108, 100
2, 516240, Note_on_c, 0, 96, 0
2, 516240, Note_on_c, 0, 97, 0
2, 516240, Note_on_c, 0, 84, 0
2, 516240, Note_on_c, 0, 85, 0
2, 516240, Note_on_c, 0, 72, 0
2, 516240, Note_on_c, 0, 60, 0
2, 516240, Note_on_c, 0, 108, 0
2, 516450, Note_on_c, 0, 106, 0
2, 516450, Note_on_c, 0, 94, 0
2, 516450, Note_on_c, 0, 70, 0
2, 516450, Note_on_c, 0, 82, 0
2, 516450, Note_on_c, 0, 105, 0
2, 516450, Note_on_c, 0, 93, 0
2, 516450, Note_on_c, 0, 69, 0
2, 516450, Note_on_c, 0, 81, 0
2, 516450, End_track
3, 0, Start_track
3, 0, Title_t, "TRIGGERS"
3, 6240, Note_on_c, 4, 60, 100
3, 6240, Note_on_c, 4, 61, 100
3, 6240, Note_on_c, 0, 70, 100
3, 6480, Note_on_c, 4, 60, 0
3, 6480, Note_on_c, 4, 61, 0
3, 6480, Note_on_c, 0, 70, 0
3, 6720, Note_on_c, 4, 61, 100
3, 6960, Note_on_c, 4, 61, 0
3, 7200, Note_on_c, 4, 61, 100
3, 7440, Note_on_c, 4, 61, 0
3, 7680, Note_on_c, 4, 60, 100
3, 7680, Note_on_c, 4, 61, 100
3, 7680, Note_on_c, 0, 69, 100
3, 7920, Note_on_c, 4, 60, 0
3, 7920, Note_on_c, 4, 61, 0
3, 7920, Note_on_c, 0, 69, 0
3, 8160, Note_on_c, 4, 61, 100
3, 8400, Note_on_c, 4, 61, 0
3, 8640, Note_on_c, 4, 61, 100
3, 8880, Note_on_c, 4, 61, 0
3, 9120, Note_on_c, 4, 61, 100
3, 9120, Note_on_c, 0, 68, 100
3, 9360, Note_on_c, 4, 61, 0
3, 9360, Note_on_c, 0, 68, 0
3, 9600, Note_on_c, 4, 60, 100
3, 9600, Note_on_c, 4, 61, 100
3, 9840, Note_on_c, 4, 60, 0
3, 9840, Note_on_c, 4, 61, 0
3, 10080, Note_on_c, 4, 61, 100
3, 10320, Note_on_c, 4, 61, 0
3, 10560, Note_on_c, 4, 61, 100
3, 10800, Note_on_c, 4, 61, 0
3, 11040, Note_on_c, 4, 61, 100
3, 11280, Note_on_c, 4, 61, 0
3, 11520, Note_on_c, 4, 60, 100
3, 11520, Note_on_c, 4, 61, 100
3, 11520, Note_on_c, 0, 69, 100
3, 11760, Note_on_c, 4, 60, 0
3, 11760, Note_on_c, 4, 61, 0
3, 11760, Note_on_c, 0, 69, 0
3, 12000, Note_on_c, 4, 61, 100
3, 12240, Note_on_c, 4, 61, 0
3, 12480, Note_on_c, 4, 61, 100
3, 12720, Note_on_c, 4, 61, 0
3, 12960, Note_on_c, 4, 61, 100
3, 12960, Note_on_c, 0, 68, 100
3, 13200, Note_on_c, 4, 61, 0
3, 13200, Note_on_c, 0, 68, 0
3, 13440, Note_on_c, 4, 60, 100
3, 13440, Note_on_c, 4, 61, 100
3, 13680, Note_on_c, 4, 60, 0
3, 13680, Note_on_c, 4, 61, 0
3, 13920, Note_on_c, 4, 61, 100
3, 13920, Note_on_c, 0, 70, 100
3, 14160, Note_on_c, 4, 61, 0
3, 14160, Note_on_c, 0, 70, 0
3, 14400, Note_on_c, 4, 61, 100
3, 14640, Note_on_c, 4, 61, 0
3, 14880, Note_on_c, 4, 61, 100
3, 15120, Note_on_c, 4, 61, 0
3, 15360, Note_on_c, 4, 60, 100
3, 15360, Note_on_c, 4, 61, 100
3, 15360, Note_on_c, 0, 69, 100
3, 15600, Note_on_c, 4, 60, 0
3, 15600, Note_on_c, 4, 61, 0
3, 15600, Note_on_c, 0, 69, 0
3, 15840, Note_on_c, 4, 61, 100
3, 16080, Note_on_c, 4, 61, 0
3, 16320, Note_on_c, 4, 61, 100
3, 16560, Note_on_c, 4, 61, 0
3, 16800, Note_on_c, 4, 61, 100
3, 16800, Note_on_c, 0, 68, 100
3, 17040, Note_on_c, 4, 61, 0
3, 17040, Note_on_c, 0, 68, 0
3, 17280, Note_on_c, 4, 60, 100
3, 17280, Note_on_c, 4, 61, 100
3, 17520, Note_on_c, 4, 60, 0
3, 17520, Note_on_c, 4, 61, 0
3, 17760, Note_on_c, 4, 61, 100
3, 18000, Note_on_c, 4, 61, 0
3, 18240, Note_on_c, 4, 61, 100
3, 18480, Note_on_c, 4, 61, 0
3, 18720, Note_on_c, 4, 61, 100
3, 18960, Note_on_c, 4, 61, 0
3, 19200, Note_on_c, 4, 60, 100
3, 19200, Note_on_c, 4, 61, 100
3, 19440, Note_on_c, 4, 60, 0
3, 19440, Note_on_c, 4, 61, 0
3, 19680, Note_on_c, 4, 61, 100
3, 19920, Note_on_c, 4, 61, 0
3, 20160, Note_on_c, 4, 61, 100
3, 20400, Note_on_c, 4, 61, 0
3, 20640, Note_on_c, 4, 61, 100
3, 20880, Note_on_c, 4, 61, 0
3, 21120, Note_on_c, 4, 60, 100
3, 21120, Note_on_c, 4, 61, 100
3, 21360, Note_on_c, 4, 60, 0
3, 21360, Note_on_c, 4, 61, 0
3, 21600, Note_on_c, 4, 60, 100
3, 21600, Note_on_c, 4, 61, 100
3, 21840, Note_on_c, 4, 60, 0
3, 21840, Note_on_c, 4, 61, 0
3, 22080, Note_on_c, 4, 61, 100
3, 22320, Note_on_c, 4, 61, 0
3, 22560, Note_on_c, 4, 61, 100
3, 22800, Note_on_c, 4, 61, 0
3, 23040, Note_on_c, 4, 60, 100
3, 23040, Note_on_c, 4, 61, 100
3, 23040, Note_on_c, 0, 69, 100
3, 23280, Note_on_c, 4, 60, 0
3, 23280, Note_on_c, 4, 61, 0
3, 23280, Note_on_c, 0, 69, 0
3, 23520, Note_on_c, 4, 61, 100
3, 23760, Note_on_c, 4, 61, 0
3, 24000, Note_on_c, 4, 61, 100
3, 24240, Note_on_c, 4, 61, 0
3, 24480, Note_on_c, 4, 61, 100
3, 24480, Note_on_c, 0, 68, 100
3, 24720, Note_on_c, 4, 61, 0
3, 24720, Note_on_c, 0, 68, 0
3, 24960, Note_on_c, 4, 60, 100
3, 24960, Note_on_c, 4, 61, 100
3, 25200, Note_on_c, 4, 60, 0
3, 25200, Note_on_c, 4, 61, 0
3, 25440, Note_on_c, 4, 61, 100
3, 25680, Note_on_c, 4, 61, 0
3, 25920, Note_on_c, 4, 61, 100
3, 26160, Note_on_c, 4, 61, 0
3, 26400, Note_on_c, 4, 61, 100
3, 26640, Note_on_c, 4, 61, 0
3, 26880, Note_on_c, 4, 60, 100
3, 26880, Note_on_c, 4, 61, 100
3, 26880, Note_on_c, 0, 69, 100
3, 27120, Note_on_c, 4, 60, 0
3, 27120, Note_on_c, 4, 61, 0
3, 27120, Note_on_c, 0, 69, 0
3, 27360, Note_on_c, 4, 61, 100
3, 27600, Note_on_c, 4, 61, 0
3, 27840, Note_on_c, 4, 61, 100
3, 28080, Note_on_c, 4, 61, 0
3, 28320, Note_on_c, 4, 61, 100
3, 28320, Note_on_c, 0, 68, 100
3, 28560, Note_on_c, 4, 61, 0
3, 28560, Note_on_c, 0, 68, 0
3, 28800, Note_on_c, 4, 60, 100
3, 28800, Note_on_c, 4, 61, 100
3, 29040, Note_on_c, 4, 60, 0
3, 29040, Note_on_c, 4, 61, 0
3, 29280, Note_on_c, 4, 61, 100
3, 29280, Note_on_c, 0, 70, 100
3, 29520, Note_on_c, 4, 61, 0
3, 29520, Note_on_c, 0, 70, 0
3, 29760, Note_on_c, 4, 61, 100
3, 30000, Note_on_c, 4, 61, 0
3, 30240, Note_on_c, 4, 61, 100
3, 30480, Note_on_c, 4, 61, 0
3, 30720, Note_on_c, 4, 60, 100
3, 30720, Note_on_c, 4, 61, 100
3, 30720, Note_on_c, 0, 69, 100
3, 30960, Note_on_c, 4, 60, 0
3, 30960, Note_on_c, 4, 61, 0
3, 30960, Note_on_c, 0, 69, 0
3, 31200, Note_on_c, 4, 61, 100
3, 31440, Note_on_c, 4, 61, 0
3, 31680, Note_on_c, 4, 61, 100
3, 31920, Note_on_c, 4, 61, 0
3, 32160, Note_on_c, 4, 61, 100
3, 32160, Note_on_c, 0, 68, 100
3, 32400, Note_on_c, 4, 61, 0
3, 32400, Note_on_c, 0, 68, 0
3, 32640, Note_on_c, 4, 60, 100
3, 32640, Note_on_c, 4, 61, 100
3, 32880, Note_on_c, 4, 60, 0
3, 32880, Note_on_c, 4, 61, 0
3, 33120, Note_on_c, 4, 61, 100
3, 33360, Note_on_c, 4, 61, 0
3, 33600, Note_on_c, 4, 61, 100
3, 33840, Note_on_c, 4, 61, 0
3, 34080, Note_on_c, 4, 61, 100
3, 34320, Note_on_c, 4, 61, 0
3, 34560, Note_on_c, 4, 60, 100
3, 34560, Note_on_c, 4, 61, 100
3, 34800, Note_on_c, 4, 60, 0
3, 34800, Note_on_c, 4, 61, 0
3, 35040, Note_on_c, 4, 61, 100
3, 35280, Note_on_c, 4, 61, 0
3, 35520, Note_on_c, 4, 61, 100
3, 35760, Note_on_c, 4, 61, 0
3, 36000, Note_on_c, 4, 61, 100
3, 36240, Note_on_c, 4, 61, 0
3, 36480, Note_on_c, 4, 60, 100
3, 36480, Note_on_c, 4, 61, 100
3, 36720, Note_on_c, 4, 60, 0
3, 36720, Note_on_c, 4, 61, 0
3, 36960, Note_on_c, 4, 60, 100
3, 36960, Note_on_c, 4, 61, 100
3, 37200, Note_on_c, 4, 60, 0
3, 37200, Note_on_c, 4, 61, 0
3, 37440, Note_on_c, 4, 61, 100
3, 37680, Note_on_c, 4, 61, 0
3, 37920, Note_on_c, 4, 61, 100
3, 38160, Note_on_c, 4, 61, 0
3, 38400, Note_on_c, 4, 60, 100
3, 38400, Note_on_c, 4, 61, 100
3, 38400, Note_on_c, 0, 69, 100
3, 38640, Note_on_c, 4, 60, 0
3, 38640, Note_on_c, 4, 61, 0
3, 38640, Note_on_c, 0, 69, 0
3, 38880, Note_on_c, 4, 61, 100
3, 39120, Note_on_c, 4, 61, 0
3, 39360, Note_on_c, 4, 61, 100
3, 39600, Note_on_c, 4, 61, 0
3, 39840, Note_on_c, 4, 61, 100
3, 39840, Note_on_c, 0, 68, 100
3, 40080, Note_on_c, 4, 61, 0
3, 40080, Note_on_c, 0, 68, 0
3, 40320, Note_on_c, 4, 60, 100
3, 40320, Note_on_c, 4, 61, 100
3, 40560, Note_on_c, 4, 60, 0
3, 40560, Note_on_c, 4, 61, 0
3, 40800, Note_on_c, 4, 61, 100
3, 41040, Note_on_c, 4, 61, 0
3, 41280, Note_on_c, 4, 61, 100
3, 41520, Note_on_c, 4, 61, 0
3, 41760, Note_on_c, 4, 61, 100
3, 42000, Note_on_c, 4, 61, 0
3, 42240, Note_on_c, 4, 60, 100
3, 42240, Note_on_c, 4, 61, 100
3, 42240, Note_on_c, 0, 69, 100
3, 42480, Note_on_c, 4, 60, 0
3, 42480, Note_on_c, 4, 61, 0
3, 42480, Note_on_c, 0, 69, 0
3, 42720, Note_on_c, 4, 61, 100
3, 42960, Note_on_c, 4, 61, 0
3, 43200, Note_on_c, 4, 61, 100
3, 43440, Note_on_c, 4, 61, 0
3, 43680, Note_on_c, 4, 61, 100
3, 43680, Note_on_c, 0, 68, 100
3, 43920, Note_on_c, 4, 61, 0
3, 43920, Note_on_c, 0, 68, 0
3, 44160, Note_on_c, 4, 60, 100
3, 44160, Note_on_c, 4, 61, 100
3, 44400, Note_on_c, 4, 60, 0
3, 44400, Note_on_c, 4, 61, 0
3, 44640, Note_on_c, 4, 61, 100
3, 44640, Note_on_c, 0, 70, 100
3, 44880, Note_on_c, 4, 61, 0
3, 44880, Note_on_c, 0, 70, 0
3, 45120, Note_on_c, 4, 61, 100
3, 45360, Note_on_c, 4, 61, 0
3, 45600, Note_on_c, 4, 61, 100
3, 45840, Note_on_c, 4, 61, 0
3, 46080, Note_on_c, 4, 60, 100
3, 46080, Note_on_c, 4, 61, 100
3, 46080, Note_on_c, 0, 69, 100
3, 46320, Note_on_c, 4, 60, 0
3, 46320, Note_on_c, 4, 61, 0
3, 46320, Note_on_c, 0, 69, 0
3, 46560, Note_on_c, 4, 61, 100
3, 46800, Note_on_c, 4, 61, 0
3, 47040, Note_on_c, 4, 61, 100
3, 47280, Note_on_c, 4, 61, 0
3, 47520, Note_on_c, 4, 61, 100
3, 47520, Note_on_c, 0, 68, 100
3, 47760, Note_on_c, 4, 61, 0
3, 47760, Note_on_c, 0, 68, 0
3, 48000, Note_on_c, 4, 60, 100
3, 48000, Note_on_c, 4, 61, 100
3, 48240, Note_on_c, 4, 60, 0
3, 48240, Note_on_c, 4, 61, 0
3, 48480, Note_on_c, 4, 61, 100
3, 48720, Note_on_c, 4, 61, 0
3, 48960, Note_on_c, 4, 61, 100
3, 49200, Note_on_c, 4, 61, 0
3, 49440, Note_on_c, 4, 61, 100
3, 49680, Note_on_c, 4, 61, 0
3, 49920, Note_on_c, 4, 60, 100
3, 49920, Note_on_c, 4, 61, 100
3, 50160, Note_on_c, 4, 60, 0
3, 50160, Note_on_c, 4, 61, 0
3, 50400, Note_on_c, 4, 61, 100
3, 50640, Note_on_c, 4, 61, 0
3, 50880, Note_on_c, 4, 61, 100
3, 51120, Note_on_c, 4, 61, 0
3, 51360, Note_on_c, 4, 61, 100
3, 51600, Note_on_c, 4, 61, 0
3, 51840, Note_on_c, 4, 60, 100
3, 51840, Note_on_c, 4, 61, 100
3, 52080, Note_on_c, 4, 60, 0
3, 52080, Note_on_c, 4, 61, 0
3, 52320, Note_on_c, 4, 60, 100
3, 52320, Note_on_c, 4, 61, 100
3, 52560, Note_on_c, 4, 60, 0
3, 52560, Note_on_c, 4, 61, 0
3, 52800, Note_on_c, 4, 61, 100
3, 53040, Note_on_c, 4, 61, 0
3, 53280, Note_on_c, 4, 61, 100
3, 53520, Note_on_c, 4, 61, 0
3, 53760, Note_on_c, 4, 60, 100
3, 53760, Note_on_c, 4, 61, 100
3, 53760, Note_on_c, 0, 69, 100
3, 54000, Note_on_c, 4, 60, 0
3, 54000, Note_on_c, 4, 61, 0
3, 54000, Note_on_c, 0, 69, 0
3, 54240, Note_on_c, 4, 61, 100
3, 54480, Note_on_c, 4, 61, 0
3, 54720, Note_on_c, 4, 61, 100
3, 54960, Note_on_c, 4, 61, 0
3, 55200, Note_on_c, 4, 61, 100
3, 55200, Note_on_c, 0, 68, 100
3, 55440, Note_on_c, 4, 61, 0
3, 55440, Note_on_c, 0, 68, 0
3, 55680, Note_on_c, 4, 60, 100
3, 55680, Note_on_c, 4, 61, 100
3, 55920, Note_on_c, 4, 60, 0
3, 55920, Note_on_c, 4, 61, 0
3, 56160, Note_on_c, 4, 61, 100
3, 56400, Note_on_c, 4, 61, 0
3, 56640, Note_on_c, 4, 61, 100
3, 56880, Note_on_c, 4, 61, 0
3, 57120, Note_on_c, 4, 61, 100
3, 57360, Note_on_c, 4, 61, 0
3, 57600, Note_on_c, 4, 60, 100
3, 57600, Note_on_c, 4, 61, 100
3, 57600, Note_on_c, 0, 69, 100
3, 57840, Note_on_c, 4, 60, 0
3, 57840, Note_on_c, 4, 61, 0
3, 57840, Note_on_c, 0, 69, 0
3, 58080, Note_on_c, 4, 61, 100
3, 58320, Note_on_c, 4, 61, 0
3, 58560, Note_on_c, 4, 61, 100
3, 58800, Note_on_c, 4, 61, 0
3, 59040, Note_on_c, 4, 61, 100
3, 59040, Note_on_c, 0, 68, 100
3, 59280, Note_on_c, 4, 61, 0
3, 59280, Note_on_c, 0, 68, 0
3, 59520, Note_on_c, 4, 60, 100
3, 59520, Note_on_c, 4, 61, 100
3, 59760, Note_on_c, 4, 60, 0
3, 59760, Note_on_c, 4, 61, 0
3, 60000, Note_on_c, 4, 61, 100
3, 60000, Note_on_c, 0, 70, 100
3, 60240, Note_on_c, 4, 61, 0
3, 60240, Note_on_c, 0, 70, 0
3, 60480, Note_on_c, 4, 61, 100
3, 60720, Note_on_c, 4, 61, 0
3, 60960, Note_on_c, 4, 61, 100
3, 61200, Note_on_c, 4, 61, 0
3, 61440, Note_on_c, 4, 60, 100
3, 61440, Note_on_c, 4, 61, 100
3, 61440, Note_on_c, 0, 69, 100
3, 61680, Note_on_c, 4, 60, 0
3, 61680, Note_on_c, 4, 61, 0
3, 61680, Note_on_c, 0, 69, 0
3, 61920, Note_on_c, 4, 61, 100
3, 62160, Note_on_c, 4, 61, 0
3, 62400, Note_on_c, 4, 61, 100
3, 62640, Note_on_c, 4, 61, 0
3, 62880, Note_on_c, 4, 61, 100
3, 62880, Note_on_c, 0, 68, 100
3, 63120, Note_on_c, 4, 61, 0
3, 63120, Note_on_c, 0, 68, 0
3, 63360, Note_on_c, 4, 60, 100
3, 63360, Note_on_c, 4, 61, 100
3, 63600, Note_on_c, 4, 60, 0
3, 63600, Note_on_c, 4, 61, 0
3, 63840, Note_on_c, 4, 61, 100
3, 64080, Note_on_c, 4, 61, 0
3, 64320, Note_on_c, 4, 61, 100
3, 64560, Note_on_c, 4, 61, 0
3, 64800, Note_on_c, 4, 61, 100
3, 65040, Note_on_c, 4, 61, 0
3, 65280, Note_on_c, 4, 60, 100
3, 65280, Note_on_c, 4, 61, 100
3, 65520, Note_on_c, 4, 60, 0
3, 65520, Note_on_c, 4, 61, 0
3, 65760, Note_on_c, 4, 61, 100
3, 66000, Note_on_c, 4, 61, 0
3, 66240, Note_on_c, 4, 61, 100
3, 66480, Note_on_c, 4, 61, 0
3, 66720, Note_on_c, 4, 61, 100
3, 66960, Note_on_c, 4, 61, 0
3, 67200, Note_on_c, 4, 60, 100
3, 67200, Note_on_c, 4, 61, 100
3, 67440, Note_on_c, 4, 60, 0
3, 67440, Note_on_c, 4, 61, 0
3, 67680, Note_on_c, 4, 61, 100
3, 67680, Note_on_c, 0, 68, 100
3, 67920, Note_on_c, 4, 61, 0
3, 67920, Note_on_c, 0, 68, 0
3, 68160, Note_on_c, 4, 61, 100
3, 68400, Note_on_c, 4, 61, 0
3, 68640, Note_on_c, 4, 61, 100
3, 68640, Note_on_c, 4, 60, 100
3, 68640, Note_on_c, 0, 70, 100
3, 68880, Note_on_c, 4, 61, 0
3, 68880, Note_on_c, 4, 60, 0
3, 68880, Note_on_c, 0, 70, 0
3, 69120, Note_on_c, 4, 61, 100
3, 69360, Note_on_c, 4, 61, 0
3, 69600, Note_on_c, 4, 61, 100
3, 69600, Note_on_c, 4, 60, 100
3, 69840, Note_on_c, 4, 61, 0
3, 69840, Note_on_c, 4, 60, 0
3, 70080, Note_on_c, 4, 61, 100
3, 70320, Note_on_c, 4, 61, 0
3, 70560, Note_on_c, 4, 61, 100
3, 70560, Note_on_c, 0, 69, 100
3, 70800, Note_on_c, 4, 61, 0
3, 70800, Note_on_c, 0, 69, 0
3, 71040, Note_on_c, 4, 60, 100
3, 71040, Note_on_c, 4, 61, 100
3, 71280, Note_on_c, 4, 60, 0
3, 71280, Note_on_c, 4, 61, 0
3, 71520, Note_on_c, 4, 61, 100
3, 71760, Note_on_c, 4, 61, 0
3, 72000, Note_on_c, 4, 61, 100
3, 72240, Note_on_c, 4, 61, 0
3, 72480, Note_on_c, 4, 61, 100
3, 72480, Note_on_c, 0, 70, 100
3, 72720, Note_on_c, 4, 61, 0
3, 72720, Note_on_c, 0, 70, 0
3, 72960, Note_on_c, 4, 60, 100
3, 72960, Note_on_c, 4, 61, 100
3, 73200, Note_on_c, 4, 60, 0
3, 73200, Note_on_c, 4, 61, 0
3, 73440, Note_on_c, 4, 61, 100
3, 73680, Note_on_c, 4, 61, 0
3, 73920, Note_on_c, 4, 61, 100
3, 74160, Note_on_c, 4, 61, 0
3, 74400, Note_on_c, 4, 61, 100
3, 74400, Note_on_c, 0, 69, 100
3, 74640, Note_on_c, 4, 61, 0
3, 74640, Note_on_c, 0, 69, 0
3, 74880, Note_on_c, 4, 60, 100
3, 74880, Note_on_c, 4, 61, 100
3, 75120, Note_on_c, 4, 60, 0
3, 75120, Note_on_c, 4, 61, 0
3, 75360, Note_on_c, 4, 60, 100
3, 75360, Note_on_c, 4, 61, 100
3, 75600, Note_on_c, 4, 60, 0
3, 75600, Note_on_c, 4, 61, 0
3, 75840, Note_on_c, 4, 61, 100
3, 76080, Note_on_c, 4, 61, 0
3, 76320, Note_on_c, 4, 60, 100
3, 76320, Note_on_c, 4, 61, 100
3, 76320, Note_on_c, 0, 70, 100
3, 76560, Note_on_c, 4, 60, 0
3, 76560, Note_on_c, 4, 61, 0
3, 76560, Note_on_c, 0, 70, 0
3, 77280, Note_on_c, 4, 60, 100
3, 77280, Note_on_c, 4, 61, 100
3, 77520, Note_on_c, 4, 60, 0
3, 77520, Note_on_c, 4, 61, 0
3, 77760, Note_on_c, 4, 61, 100
3, 78000, Note_on_c, 4, 61, 0
3, 78240, Note_on_c, 4, 61, 100
3, 78240, Note_on_c, 0, 69, 100
3, 78480, Note_on_c, 4, 61, 0
3, 78480, Note_on_c, 0, 69, 0
3, 78720, Note_on_c, 4, 60, 100
3, 78720, Note_on_c, 4, 61, 100
3, 78960, Note_on_c, 4, 60, 0
3, 78960, Note_on_c, 4, 61, 0
3, 79200, Note_on_c, 4, 61, 100
3, 79440, Note_on_c, 4, 61, 0
3, 79680, Note_on_c, 4, 61, 100
3, 79920, Note_on_c, 4, 61, 0
3, 80160, Note_on_c, 4, 61, 100
3, 80160, Note_on_c, 0, 70, 100
3, 80400, Note_on_c, 4, 61, 0
3, 80400, Note_on_c, 0, 70, 0
3, 80640, Note_on_c, 4, 60, 100
3, 80640, Note_on_c, 4, 61, 100
3, 80880, Note_on_c, 4, 60, 0
3, 80880, Note_on_c, 4, 61, 0
3, 81120, Note_on_c, 4, 61, 100
3, 81360, Note_on_c, 4, 61, 0
3, 81600, Note_on_c, 4, 61, 100
3, 81840, Note_on_c, 4, 61, 0
3, 82080, Note_on_c, 4, 61, 100
3, 82080, Note_on_c, 0, 69, 100
3, 82320, Note_on_c, 4, 61, 0
3, 82320, Note_on_c, 0, 69, 0
3, 82560, Note_on_c, 4, 60, 100
3, 82560, Note_on_c, 4, 61, 100
3, 82800, Note_on_c, 4, 60, 0
3, 82800, Note_on_c, 4, 61, 0
3, 83040, Note_on_c, 4, 60, 100
3, 83040, Note_on_c, 4, 61, 100
3, 83280, Note_on_c, 4, 60, 0
3, 83280, Note_on_c, 4, 61, 0
3, 83520, Note_on_c, 4, 61, 100
3, 83760, Note_on_c, 4, 61, 0
3, 84000, Note_on_c, 4, 60, 100
3, 84000, Note_on_c, 4, 61, 100
3, 84000, Note_on_c, 0, 70, 100
3, 84240, Note_on_c, 4, 60, 0
3, 84240, Note_on_c, 4, 61, 0
3, 84240, Note_on_c, 0, 70, 0
3, 84960, Note_on_c, 4, 60, 100
3, 84960, Note_on_c, 4, 61, 100
3, 85200, Note_on_c, 4, 60, 0
3, 85200, Note_on_c, 4, 61, 0
3, 85440, Note_on_c, 4, 61, 100
3, 85680, Note_on_c, 4, 61, 0
3, 85920, Note_on_c, 4, 61, 100
3, 85920, Note_on_c, 0, 69, 100
3, 86160, Note_on_c, 4, 61, 0
3, 86160, Note_on_c, 0, 69, 0
3, 86400, Note_on_c, 4, 60, 100
3, 86400, Note_on_c, 4, 61, 100
3, 86640, Note_on_c, 4, 60, 0
3, 86640, Note_on_c, 4, 61, 0
3, 86880, Note_on_c, 4, 61, 100
3, 87120, Note_on_c, 4, 61, 0
3, 87360, Note_on_c, 4, 61, 100
3, 87600, Note_on_c, 4, 61, 0
3, 87840, Note_on_c, 4, 61, 100
3, 87840, Note_on_c, 0, 70, 100
3, 88080, Note_on_c, 4, 61, 0
3, 88080, Note_on_c, 0, 70, 0
3, 88320, Note_on_c, 4, 60, 100
3, 88320, Note_on_c, 4, 61, 100
3, 88560, Note_on_c, 4, 60, 0
3, 88560, Note_on_c, 4, 61, 0
3, 88800, Note_on_c, 4, 61, 100
3, 89040, Note_on_c, 4, 61, 0
3, 89280, Note_on_c, 4, 61, 100
3, 89520, Note_on_c, 4, 61, 0
3, 89760, Note_on_c, 4, 61, 100
3, 89760, Note_on_c, 0, 69, 100
3, 90000, Note_on_c, 4, 61, 0
3, 90000, Note_on_c, 0, 69, 0
3, 90240, Note_on_c, 4, 60, 100
3, 90240, Note_on_c, 4, 61, 100
3, 90480, Note_on_c, 4, 60, 0
3, 90480, Note_on_c, 4, 61, 0
3, 90720, Note_on_c, 4, 60, 100
3, 90720, Note_on_c, 4, 61, 100
3, 90960, Note_on_c, 4, 60, 0
3, 90960, Note_on_c, 4, 61, 0
3, 91200, Note_on_c, 4, 61, 100
3, 91440, Note_on_c, 4, 61, 0
3, 91680, Note_on_c, 4, 60, 100
3, 91680, Note_on_c, 4, 61, 100
3, 91680, Note_on_c, 0, 70, 100
3, 91920, Note_on_c, 4, 60, 0
3, 91920, Note_on_c, 4, 61, 0
3, 91920, Note_on_c, 0, 70, 0
3, 92640, Note_on_c, 4, 60, 100
3, 92640, Note_on_c, 4, 61, 100
3, 92880, Note_on_c, 4, 60, 0
3, 92880, Note_on_c, 4, 61, 0
3, 93120, Note_on_c, 4, 60, 100
3, 93120, Note_on_c, 4, 61, 100
3, 93360, Note_on_c, 4, 60, 0
3, 93360, Note_on_c, 4, 61, 0
3, 93600, Note_on_c, 4, 61, 100
3, 93600, Note_on_c, 0, 69, 100
3, 93840, Note_on_c, 4, 61, 0
3, 93840, Note_on_c, 0, 69, 0
3, 94080, Note_on_c, 4, 60, 100
3, 94080, Note_on_c, 4, 61, 100
3, 94320, Note_on_c, 4, 60, 0
3, 94320, Note_on_c, 4, 61, 0
3, 94560, Note_on_c, 4, 61, 100
3, 94560, Note_on_c, 4, 60, 100
3, 94800, Note_on_c, 4, 61, 0
3, 94800, Note_on_c, 4, 60, 0
3, 95040, Note_on_c, 4, 61, 100
3, 95280, Note_on_c, 4, 61, 0
3, 95520, Note_on_c, 4, 60, 100
3, 95520, Note_on_c, 4, 61, 100
3, 95520, Note_on_c, 0, 70, 100
3, 95760, Note_on_c, 4, 60, 0
3, 95760, Note_on_c, 4, 61, 0
3, 96480, Note_on_c, 4, 61, 100
3, 96720, Note_on_c, 0, 70, 0
3, 96720, Note_on_c, 4, 61, 0
3, 96960, Note_on_c, 4, 61, 100
3, 96960, Note_on_c, 0, 70, 100
3, 97200, Note_on_c, 4, 61, 0
3, 97200, Note_on_c, 0, 70, 0
3, 97440, Note_on_c, 4, 61, 100
3, 97680, Note_on_c, 4, 61, 0
3, 97920, Note_on_c, 4, 61, 100
3, 97920, Note_on_c, 0, 70, 100
3, 98160, Note_on_c, 4, 61, 0
3, 98160, Note_on_c, 0, 70, 0
3, 98400, Note_on_c, 4, 61, 100
3, 98640, Note_on_c, 4, 61, 0
3, 98880, Note_on_c, 4, 61, 100
3, 98880, Note_on_c, 0, 70, 100
3, 99120, Note_on_c, 4, 61, 0
3, 99120, Note_on_c, 0, 70, 0
3, 99360, Note_on_c, 4, 60, 100
3, 99360, Note_on_c, 4, 61, 100
3, 99360, Note_on_c, 0, 68, 100
3, 99600, Note_on_c, 4, 60, 0
3, 99600, Note_on_c, 4, 61, 0
3, 99600, Note_on_c, 0, 68, 0
3, 100320, Note_on_c, 4, 60, 100
3, 100320, Note_on_c, 4, 61, 100
3, 100560, Note_on_c, 4, 60, 0
3, 100560, Note_on_c, 4, 61, 0
3, 100560, Note_on_c, 4, 60, 100
3, 100800, Note_on_c, 4, 60, 0
3, 100800, Note_on_c, 4, 61, 100
3, 100800, Note_on_c, 0, 70, 100
3, 101040, Note_on_c, 4, 61, 0
3, 101040, Note_on_c, 0, 70, 0
3, 101280, Note_on_c, 4, 61, 100
3, 101520, Note_on_c, 4, 61, 0
3, 101760, Note_on_c, 4, 60, 100
3, 101760, Note_on_c, 4, 61, 100
3, 102000, Note_on_c, 4, 60, 0
3, 102000, Note_on_c, 4, 61, 0
3, 102240, Note_on_c, 4, 61, 100
3, 102480, Note_on_c, 4, 61, 0
3, 102720, Note_on_c, 4, 61, 100
3, 102960, Note_on_c, 4, 61, 0
3, 103200, Note_on_c, 4, 61, 100
3, 103440, Note_on_c, 4, 61, 0
3, 103680, Note_on_c, 4, 60, 100
3, 103680, Note_on_c, 4, 61, 100
3, 103680, Note_on_c, 0, 69, 100
3, 103920, Note_on_c, 4, 60, 0
3, 103920, Note_on_c, 4, 61, 0
3, 103920, Note_on_c, 0, 69, 0
3, 104160, Note_on_c, 4, 61, 100
3, 104400, Note_on_c, 4, 61, 0
3, 104640, Note_on_c, 4, 61, 100
3, 104880, Note_on_c, 4, 61, 0
3, 105120, Note_on_c, 4, 61, 100
3, 105120, Note_on_c, 0, 68, 100
3, 105360, Note_on_c, 4, 61, 0
3, 105360, Note_on_c, 0, 68, 0
3, 105600, Note_on_c, 4, 60, 100
3, 105600, Note_on_c, 4, 61, 100
3, 105840, Note_on_c, 4, 60, 0
3, 105840, Note_on_c, 4, 61, 0
3, 106080, Note_on_c, 4, 60, 100
3, 106080, Note_on_c, 4, 61, 100
3, 106320, Note_on_c, 4, 60, 0
3, 106320, Note_on_c, 4, 61, 0
3, 106560, Note_on_c, 4, 61, 100
3, 106560, Note_on_c, 0, 68, 100
3, 106800, Note_on_c, 4, 61, 0
3, 106800, Note_on_c, 0, 68, 0
3, 107040, Note_on_c, 4, 61, 100
3, 107280, Note_on_c, 4, 61, 0
3, 107520, Note_on_c, 4, 60, 100
3, 107520, Note_on_c, 4, 61, 100
3, 107520, Note_on_c, 0, 68, 100
3, 107760, Note_on_c, 4, 60, 0
3, 107760, Note_on_c, 4, 61, 0
3, 107760, Note_on_c, 0, 68, 0
3, 108000, Note_on_c, 4, 61, 100
3, 108240, Note_on_c, 4, 61, 0
3, 108480, Note_on_c, 4, 61, 100
3, 108480, Note_on_c, 0, 69, 100
3, 108720, Note_on_c, 4, 61, 0
3, 108720, Note_on_c, 0, 69, 0
3, 108960, Note_on_c, 4, 61, 100
3, 109200, Note_on_c, 4, 61, 0
3, 109440, Note_on_c, 4, 60, 100
3, 109440, Note_on_c, 4, 61, 100
3, 109680, Note_on_c, 4, 60, 0
3, 109680, Note_on_c, 4, 61, 0
3, 109920, Note_on_c, 4, 61, 100
3, 110160, Note_on_c, 4, 61, 0
3, 110400, Note_on_c, 4, 61, 100
3, 110640, Note_on_c, 4, 61, 0
3, 110880, Note_on_c, 4, 61, 100
3, 111120, Note_on_c, 4, 61, 0
3, 111360, Note_on_c, 4, 60, 100
3, 111360, Note_on_c, 4, 61, 100
3, 111360, Note_on_c, 0, 70, 100
3, 111600, Note_on_c, 4, 60, 0
3, 111600, Note_on_c, 4, 61, 0
3, 111600, Note_on_c, 0, 70, 0
3, 111840, Note_on_c, 4, 61, 100
3, 112080, Note_on_c, 4, 61, 0
3, 112320, Note_on_c, 4, 60, 100
3, 112320, Note_on_c, 4, 61, 100
3, 112560, Note_on_c, 4, 60, 0
3, 112560, Note_on_c, 4, 61, 0
3, 112560, Note_on_c, 4, 60, 100
3, 112800, Note_on_c, 4, 60, 0
3, 112800, Note_on_c, 4, 61, 100
3, 112800, Note_on_c, 0, 70, 100
3, 113040, Note_on_c, 4, 61, 0
3, 113040, Note_on_c, 0, 70, 0
3, 113280, Note_on_c, 4, 60, 100
3, 113280, Note_on_c, 4, 61, 100
3, 113520, Note_on_c, 4, 60, 0
3, 113520, Note_on_c, 4, 61, 0
3, 113760, Note_on_c, 4, 60, 100
3, 113760, Note_on_c, 4, 61, 100
3, 114000, Note_on_c, 4, 60, 0
3, 114000, Note_on_c, 4, 61, 0
3, 114240, Note_on_c, 4, 61, 100
3, 114240, Note_on_c, 0, 69, 100
3, 114480, Note_on_c, 4, 61, 0
3, 114480, Note_on_c, 0, 69, 0
3, 115200, Note_on_c, 4, 60, 100
3, 115200, Note_on_c, 4, 61, 100
3, 115200, Note_on_c, 0, 68, 100
3, 115440, Note_on_c, 4, 60, 0
3, 115440, Note_on_c, 4, 61, 0
3, 115440, Note_on_c, 0, 68, 0
3, 115680, Note_on_c, 4, 61, 100
3, 115920, Note_on_c, 4, 61, 0
3, 116160, Note_on_c, 4, 61, 100
3, 116160, Note_on_c, 0, 70, 100
3, 116400, Note_on_c, 4, 61, 0
3, 116400, Note_on_c, 0, 70, 0
3, 116640, Note_on_c, 4, 61, 100
3, 116880, Note_on_c, 4, 61, 0
3, 117120, Note_on_c, 4, 60, 100
3, 117120, Note_on_c, 4, 61, 100
3, 117360, Note_on_c, 4, 60, 0
3, 117360, Note_on_c, 4, 61, 0
3, 117600, Note_on_c, 4, 61, 100
3, 117840, Note_on_c, 4, 61, 0
3, 118080, Note_on_c, 4, 61, 100
3, 118320, Note_on_c, 4, 61, 0
3, 118560, Note_on_c, 4, 61, 100
3, 118800, Note_on_c, 4, 61, 0
3, 119040, Note_on_c, 4, 60, 100
3, 119040, Note_on_c, 4, 61, 100
3, 119040, Note_on_c, 0, 69, 100
3, 119280, Note_on_c, 4, 60, 0
3, 119280, Note_on_c, 4, 61, 0
3, 119280, Note_on_c, 0, 69, 0
3, 119520, Note_on_c, 4, 61, 100
3, 119760, Note_on_c, 4, 61, 0
3, 120000, Note_on_c, 4, 61, 100
3, 120240, Note_on_c, 4, 61, 0
3, 120480, Note_on_c, 4, 61, 100
3, 120480, Note_on_c, 0, 68, 100
3, 120720, Note_on_c, 4, 61, 0
3, 120720, Note_on_c, 0, 68, 0
3, 120960, Note_on_c, 4, 60, 100
3, 120960, Note_on_c, 4, 61, 100
3, 121200, Note_on_c, 4, 60, 0
3, 121200, Note_on_c, 4, 61, 0
3, 121440, Note_on_c, 4, 61, 100
3, 121680, Note_on_c, 4, 61, 0
3, 121920, Note_on_c, 4, 61, 100
3, 121920, Note_on_c, 0, 68, 100
3, 122160, Note_on_c, 4, 61, 0
3, 122160, Note_on_c, 0, 68, 0
3, 122400, Note_on_c, 4, 61, 100
3, 122640, Note_on_c, 4, 61, 0
3, 122880, Note_on_c, 4, 60, 100
3, 122880, Note_on_c, 4, 61, 100
3, 122880, Note_on_c, 0, 68, 100
3, 123120, Note_on_c, 4, 60, 0
3, 123120, Note_on_c, 4, 61, 0
3, 123120, Note_on_c, 0, 68, 0
3, 123360, Note_on_c, 4, 61, 100
3, 123600, Note_on_c, 4, 61, 0
3, 123840, Note_on_c, 4, 61, 100
3, 123840, Note_on_c, 0, 69, 100
3, 124080, Note_on_c, 4, 61, 0
3, 124080, Note_on_c, 0, 69, 0
3, 124320, Note_on_c, 4, 61, 100
3, 124560, Note_on_c, 4, 61, 0
3, 124800, Note_on_c, 4, 60, 100
3, 124800, Note_on_c, 4, 61, 100
3, 125040, Note_on_c, 4, 60, 0
3, 125040, Note_on_c, 4, 61, 0
3, 125280, Note_on_c, 4, 61, 100
3, 125520, Note_on_c, 4, 61, 0
3, 125760, Note_on_c, 4, 61, 100
3, 126000, Note_on_c, 4, 61, 0
3, 126240, Note_on_c, 4, 61, 100
3, 126480, Note_on_c, 4, 61, 0
3, 126720, Note_on_c, 4, 60, 100
3, 126720, Note_on_c, 4, 61, 100
3, 126720, Note_on_c, 0, 70, 100
3, 126960, Note_on_c, 4, 60, 0
3, 126960, Note_on_c, 4, 61, 0
3, 126960, Note_on_c, 0, 70, 0
3, 127200, Note_on_c, 4, 61, 100
3, 127440, Note_on_c, 4, 61, 0
3, 127680, Note_on_c, 4, 61, 100
3, 127680, Note_on_c, 0, 70, 100
3, 127920, Note_on_c, 4, 61, 0
3, 127920, Note_on_c, 0, 70, 0
3, 128160, Note_on_c, 4, 61, 100
3, 128400, Note_on_c, 4, 61, 0
3, 128640, Note_on_c, 4, 60, 100
3, 128640, Note_on_c, 4, 61, 100
3, 128640, Note_on_c, 0, 70, 100
3, 128640, Note_on_c, 0, 69, 100
3, 128880, Note_on_c, 4, 60, 0
3, 128880, Note_on_c, 4, 61, 0
3, 130320, Note_on_c, 0, 70, 0
3, 130320, Note_on_c, 0, 69, 0
3, 130560, Note_on_c, 4, 60, 100
3, 130560, Note_on_c, 4, 61, 100
3, 130560, Note_on_c, 0, 69, 100
3, 130800, Note_on_c, 4, 60, 0
3, 130800, Note_on_c, 4, 61, 0
3, 130800, Note_on_c, 0, 69, 0
3, 131040, Note_on_c, 4, 61, 100
3, 131280, Note_on_c, 4, 61, 0
3, 131520, Note_on_c, 4, 61, 100
3, 131760, Note_on_c, 4, 61, 0
3, 132000, Note_on_c, 4, 61, 100
3, 132000, Note_on_c, 0, 68, 100
3, 132240, Note_on_c, 4, 61, 0
3, 132240, Note_on_c, 0, 68, 0
3, 132480, Note_on_c, 4, 60, 100
3, 132480, Note_on_c, 4, 61, 100
3, 132720, Note_on_c, 4, 60, 0
3, 132720, Note_on_c, 4, 61, 0
3, 132960, Note_on_c, 4, 61, 100
3, 133200, Note_on_c, 4, 61, 0
3, 133440, Note_on_c, 4, 61, 100
3, 133680, Note_on_c, 4, 61, 0
3, 133920, Note_on_c, 4, 61, 100
3, 134160, Note_on_c, 4, 61, 0
3, 134400, Note_on_c, 4, 60, 100
3, 134400, Note_on_c, 4, 61, 100
3, 134400, Note_on_c, 0, 69, 100
3, 134640, Note_on_c, 4, 60, 0
3, 134640, Note_on_c, 4, 61, 0
3, 134640, Note_on_c, 0, 69, 0
3, 134880, Note_on_c, 4, 61, 100
3, 135120, Note_on_c, 4, 61, 0
3, 135360, Note_on_c, 4, 61, 100
3, 135600, Note_on_c, 4, 61, 0
3, 135840, Note_on_c, 4, 61, 100
3, 135840, Note_on_c, 0, 68, 100
3, 136080, Note_on_c, 4, 61, 0
3, 136080, Note_on_c, 0, 68, 0
3, 136320, Note_on_c, 4, 60, 100
3, 136320, Note_on_c, 4, 61, 100
3, 136560, Note_on_c, 4, 60, 0
3, 136560, Note_on_c, 4, 61, 0
3, 136800, Note_on_c, 4, 61, 100
3, 136800, Note_on_c, 0, 70, 100
3, 137040, Note_on_c, 4, 61, 0
3, 137040, Note_on_c, 0, 70, 0
3, 137280, Note_on_c, 4, 61, 100
3, 137520, Note_on_c, 4, 61, 0
3, 137760, Note_on_c, 4, 61, 100
3, 138000, Note_on_c, 4, 61, 0
3, 138240, Note_on_c, 4, 60, 100
3, 138240, Note_on_c, 4, 61, 100
3, 138240, Note_on_c, 0, 69, 100
3, 138480, Note_on_c, 4, 60, 0
3, 138480, Note_on_c, 4, 61, 0
3, 138480, Note_on_c, 0, 69, 0
3, 138720, Note_on_c, 4, 61, 100
3, 138960, Note_on_c, 4, 61, 0
3, 139200, Note_on_c, 4, 61, 100
3, 139440, Note_on_c, 4, 61, 0
3, 139680, Note_on_c, 4, 61, 100
3, 139680, Note_on_c, 0, 68, 100
3, 139920, Note_on_c, 4, 61, 0
3, 139920, Note_on_c, 0, 68, 0
3, 140160, Note_on_c, 4, 60, 100
3, 140160, Note_on_c, 4, 61, 100
3, 140400, Note_on_c, 4, 60, 0
3, 140400, Note_on_c, 4, 61, 0
3, 140640, Note_on_c, 4, 61, 100
3, 140880, Note_on_c, 4, 61, 0
3, 141120, Note_on_c, 4, 61, 100
3, 141360, Note_on_c, 4, 61, 0
3, 141600, Note_on_c, 4, 61, 100
3, 141840, Note_on_c, 4, 61, 0
3, 142080, Note_on_c, 4, 60, 100
3, 142080, Note_on_c, 4, 61, 100
3, 142320, Note_on_c, 4, 60, 0
3, 142320, Note_on_c, 4, 61, 0
3, 142560, Note_on_c, 4, 61, 100
3, 142800, Note_on_c, 4, 61, 0
3, 143040, Note_on_c, 4, 61, 100
3, 143280, Note_on_c, 4, 61, 0
3, 143520, Note_on_c, 4, 61, 100
3, 143760, Note_on_c, 4, 61, 0
3, 144000, Note_on_c, 4, 60, 100
3, 144000, Note_on_c, 4, 61, 100
3, 144240, Note_on_c, 4, 60, 0
3, 144240, Note_on_c, 4, 61, 0
3, 144480, Note_on_c, 4, 60, 100
3, 144480, Note_on_c, 4, 61, 100
3, 144720, Note_on_c, 4, 60, 0
3, 144720, Note_on_c, 4, 61, 0
3, 144960, Note_on_c, 4, 61, 100
3, 145200, Note_on_c, 4, 61, 0
3, 145440, Note_on_c, 4, 61, 100
3, 145680, Note_on_c, 4, 61, 0
3, 145920, Note_on_c, 4, 60, 100
3, 145920, Note_on_c, 4, 61, 100
3, 145920, Note_on_c, 0, 69, 100
3, 146160, Note_on_c, 4, 60, 0
3, 146160, Note_on_c, 4, 61, 0
3, 146160, Note_on_c, 0, 69, 0
3, 146400, Note_on_c, 4, 61, 100
3, 146640, Note_on_c, 4, 61, 0
3, 146880, Note_on_c, 4, 61, 100
3, 147120, Note_on_c, 4, 61, 0
3, 147360, Note_on_c, 4, 61, 100
3, 147360, Note_on_c, 0, 68, 100
3, 147600, Note_on_c, 4, 61, 0
3, 147600, Note_on_c, 0, 68, 0
3, 147840, Note_on_c, 4, 60, 100
3, 147840, Note_on_c, 4, 61, 100
3, 148080, Note_on_c, 4, 60, 0
3, 148080, Note_on_c, 4, 61, 0
3, 148320, Note_on_c, 4, 61, 100
3, 148560, Note_on_c, 4, 61, 0
3, 148800, Note_on_c, 4, 61, 100
3, 149040, Note_on_c, 4, 61, 0
3, 149280, Note_on_c, 4, 61, 100
3, 149520, Note_on_c, 4, 61, 0
3, 149760, Note_on_c, 4, 60, 100
3, 149760, Note_on_c, 4, 61, 100
3, 149760, Note_on_c, 0, 69, 100
3, 150000, Note_on_c, 4, 60, 0
3, 150000, Note_on_c, 4, 61, 0
3, 150000, Note_on_c, 0, 69, 0
3, 150240, Note_on_c, 4, 61, 100
3, 150480, Note_on_c, 4, 61, 0
3, 150720, Note_on_c, 4, 61, 100
3, 150960, Note_on_c, 4, 61, 0
3, 151200, Note_on_c, 4, 61, 100
3, 151200, Note_on_c, 0, 68, 100
3, 151440, Note_on_c, 4, 61, 0
3, 151440, Note_on_c, 0, 68, 0
3, 151680, Note_on_c, 4, 60, 100
3, 151680, Note_on_c, 4, 61, 100
3, 151920, Note_on_c, 4, 60, 0
3, 151920, Note_on_c, 4, 61, 0
3, 152160, Note_on_c, 4, 61, 100
3, 152160, Note_on_c, 0, 70, 100
3, 152400, Note_on_c, 4, 61, 0
3, 152400, Note_on_c, 0, 70, 0
3, 152640, Note_on_c, 4, 61, 100
3, 152880, Note_on_c, 4, 61, 0
3, 153120, Note_on_c, 4, 61, 100
3, 153360, Note_on_c, 4, 61, 0
3, 153600, Note_on_c, 4, 60, 100
3, 153600, Note_on_c, 4, 61, 100
3, 153600, Note_on_c, 0, 69, 100
3, 153840, Note_on_c, 4, 60, 0
3, 153840, Note_on_c, 4, 61, 0
3, 153840, Note_on_c, 0, 69, 0
3, 154080, Note_on_c, 4, 61, 100
3, 154320, Note_on_c, 4, 61, 0
3, 154560, Note_on_c, 4, 61, 100
3, 154800, Note_on_c, 4, 61, 0
3, 155040, Note_on_c, 4, 61, 100
3, 155040, Note_on_c, 0, 68, 100
3, 155280, Note_on_c, 4, 61, 0
3, 155280, Note_on_c, 0, 68, 0
3, 155520, Note_on_c, 4, 60, 100
3, 155520, Note_on_c, 4, 61, 100
3, 155760, Note_on_c, 4, 60, 0
3, 155760, Note_on_c, 4, 61, 0
3, 156000, Note_on_c, 4, 61, 100
3, 156240, Note_on_c, 4, 61, 0
3, 156480, Note_on_c, 4, 61, 100
3, 156720, Note_on_c, 4, 61, 0
3, 156960, Note_on_c, 4, 61, 100
3, 157200, Note_on_c, 4, 61, 0
3, 157440, Note_on_c, 4, 60, 100
3, 157440, Note_on_c, 4, 61, 100
3, 157680, Note_on_c, 4, 60, 0
3, 157680, Note_on_c, 4, 61, 0
3, 157920, Note_on_c, 4, 61, 100
3, 158160, Note_on_c, 4, 61, 0
3, 158400, Note_on_c, 4, 61, 100
3, 158640, Note_on_c, 4, 61, 0
3, 158880, Note_on_c, 4, 61, 100
3, 159120, Note_on_c, 4, 61, 0
3, 159360, Note_on_c, 4, 60, 100
3, 159360, Note_on_c, 4, 61, 100
3, 159600, Note_on_c, 4, 60, 0
3, 159600, Note_on_c, 4, 61, 0
3, 159840, Note_on_c, 4, 60, 100
3, 159840, Note_on_c, 4, 61, 100
3, 160080, Note_on_c, 4, 60, 0
3, 160080, Note_on_c, 4, 61, 0
3, 160320, Note_on_c, 4, 61, 100
3, 160560, Note_on_c, 4, 61, 0
3, 160800, Note_on_c, 4, 61, 100
3, 161040, Note_on_c, 4, 61, 0
3, 161280, Note_on_c, 4, 60, 100
3, 161280, Note_on_c, 4, 61, 100
3, 161280, Note_on_c, 0, 69, 100
3, 161520, Note_on_c, 4, 60, 0
3, 161520, Note_on_c, 4, 61, 0
3, 161520, Note_on_c, 0, 69, 0
3, 161760, Note_on_c, 4, 61, 100
3, 162000, Note_on_c, 4, 61, 0
3, 162240, Note_on_c, 4, 61, 100
3, 162480, Note_on_c, 4, 61, 0
3, 162720, Note_on_c, 4, 61, 100
3, 162720, Note_on_c, 0, 68, 100
3, 162960, Note_on_c, 4, 61, 0
3, 162960, Note_on_c, 0, 68, 0
3, 163200, Note_on_c, 4, 60, 100
3, 163200, Note_on_c, 4, 61, 100
3, 163440, Note_on_c, 4, 60, 0
3, 163440, Note_on_c, 4, 61, 0
3, 163680, Note_on_c, 4, 61, 100
3, 163920, Note_on_c, 4, 61, 0
3, 164160, Note_on_c, 4, 61, 100
3, 164400, Note_on_c, 4, 61, 0
3, 164640, Note_on_c, 4, 61, 100
3, 164880, Note_on_c, 4, 61, 0
3, 165120, Note_on_c, 4, 60, 100
3, 165120, Note_on_c, 4, 61, 100
3, 165120, Note_on_c, 0, 69, 100
3, 165360, Note_on_c, 4, 60, 0
3, 165360, Note_on_c, 4, 61, 0
3, 165360, Note_on_c, 0, 69, 0
3, 165600, Note_on_c, 4, 61, 100
3, 165840, Note_on_c, 4, 61, 0
3, 166080, Note_on_c, 4, 61, 100
3, 166320, Note_on_c, 4, 61, 0
3, 166560, Note_on_c, 4, 61, 100
3, 166560, Note_on_c, 0, 68, 100
3, 166800, Note_on_c, 4, 61, 0
3, 166800, Note_on_c, 0, 68, 0
3, 167040, Note_on_c, 4, 60, 100
3, 167040, Note_on_c, 4, 61, 100
3, 167280, Note_on_c, 4, 60, 0
3, 167280, Note_on_c, 4, 61, 0
3, 167520, Note_on_c, 4, 61, 100
3, 167520, Note_on_c, 0, 70, 100
3, 167760, Note_on_c, 4, 61, 0
3, 167760, Note_on_c, 0, 70, 0
3, 168000, Note_on_c, 4, 61, 100
3, 168240, Note_on_c, 4, 61, 0
3, 168480, Note_on_c, 4, 61, 100
3, 168720, Note_on_c, 4, 61, 0
3, 168960, Note_on_c, 4, 60, 100
3, 168960, Note_on_c, 4, 61, 100
3, 168960, Note_on_c, 0, 69, 100
3, 169200, Note_on_c, 4, 60, 0
3, 169200, Note_on_c, 4, 61, 0
3, 169200, Note_on_c, 0, 69, 0
3, 169440, Note_on_c, 4, 61, 100
3, 169680, Note_on_c, 4, 61, 0
3, 169920, Note_on_c, 4, 61, 100
3, 170160, Note_on_c, 4, 61, 0
3, 170400, Note_on_c, 4, 61, 100
3, 170400, Note_on_c, 0, 68, 100
3, 170640, Note_on_c, 4, 61, 0
3, 170640, Note_on_c, 0, 68, 0
3, 170880, Note_on_c, 4, 60, 100
3, 170880, Note_on_c, 4, 61, 100
3, 171120, Note_on_c, 4, 60, 0
3, 171120, Note_on_c, 4, 61, 0
3, 171360, Note_on_c, 4, 61, 100
3, 171600, Note_on_c, 4, 61, 0
3, 171840, Note_on_c, 4, 61, 100
3, 172080, Note_on_c, 4, 61, 0
3, 172320, Note_on_c, 4, 61, 100
3, 172560, Note_on_c, 4, 61, 0
3, 172800, Note_on_c, 4, 60, 100
3, 172800, Note_on_c, 4, 61, 100
3, 173040, Note_on_c, 4, 60, 0
3, 173040, Note_on_c, 4, 61, 0
3, 173280, Note_on_c, 4, 61, 100
3, 173520, Note_on_c, 4, 61, 0
3, 173760, Note_on_c, 4, 61, 100
3, 174000, Note_on_c, 4, 61, 0
3, 174240, Note_on_c, 4, 61, 100
3, 174480, Note_on_c, 4, 61, 0
3, 174720, Note_on_c, 4, 60, 100
3, 174720, Note_on_c, 4, 61, 100
3, 174960, Note_on_c, 4, 60, 0
3, 174960, Note_on_c, 4, 61, 0
3, 175200, Note_on_c, 4, 60, 100
3, 175200, Note_on_c, 4, 61, 100
3, 175440, Note_on_c, 4, 60, 0
3, 175440, Note_on_c, 4, 61, 0
3, 175680, Note_on_c, 4, 61, 100
3, 175920, Note_on_c, 4, 61, 0
3, 176160, Note_on_c, 4, 61, 100
3, 176400, Note_on_c, 4, 61, 0
3, 176640, Note_on_c, 4, 60, 100
3, 176640, Note_on_c, 4, 61, 100
3, 176640, Note_on_c, 0, 69, 100
3, 176880, Note_on_c, 4, 60, 0
3, 176880, Note_on_c, 4, 61, 0
3, 176880, Note_on_c, 0, 69, 0
3, 177120, Note_on_c, 4, 61, 100
3, 177360, Note_on_c, 4, 61, 0
3, 177600, Note_on_c, 4, 61, 100
3, 177840, Note_on_c, 4, 61, 0
3, 178080, Note_on_c, 4, 61, 100
3, 178080, Note_on_c, 0, 68, 100
3, 178320, Note_on_c, 4, 61, 0
3, 178320, Note_on_c, 0, 68, 0
3, 178560, Note_on_c, 4, 60, 100
3, 178560, Note_on_c, 4, 61, 100
3, 178800, Note_on_c, 4, 60, 0
3, 178800, Note_on_c, 4, 61, 0
3, 179040, Note_on_c, 4, 61, 100
3, 179280, Note_on_c, 4, 61, 0
3, 179520, Note_on_c, 4, 61, 100
3, 179760, Note_on_c, 4, 61, 0
3, 180000, Note_on_c, 4, 61, 100
3, 180240, Note_on_c, 4, 61, 0
3, 180480, Note_on_c, 4, 60, 100
3, 180480, Note_on_c, 4, 61, 100
3, 180480, Note_on_c, 0, 69, 100
3, 180720, Note_on_c, 4, 60, 0
3, 180720, Note_on_c, 4, 61, 0
3, 180720, Note_on_c, 0, 69, 0
3, 180960, Note_on_c, 4, 61, 100
3, 181200, Note_on_c, 4, 61, 0
3, 181440, Note_on_c, 4, 61, 100
3, 181680, Note_on_c, 4, 61, 0
3, 181920, Note_on_c, 4, 61, 100
3, 181920, Note_on_c, 0, 68, 100
3, 182160, Note_on_c, 4, 61, 0
3, 182160, Note_on_c, 0, 68, 0
3, 182400, Note_on_c, 4, 60, 100
3, 182400, Note_on_c, 4, 61, 100
3, 182640, Note_on_c, 4, 60, 0
3, 182640, Note_on_c, 4, 61, 0
3, 182880, Note_on_c, 4, 61, 100
3, 182880, Note_on_c, 0, 70, 100
3, 183120, Note_on_c, 4, 61, 0
3, 183120, Note_on_c, 0, 70, 0
3, 183360, Note_on_c, 4, 61, 100
3, 183600, Note_on_c, 4, 61, 0
3, 183840, Note_on_c, 4, 61, 100
3, 184080, Note_on_c, 4, 61, 0
3, 184320, Note_on_c, 4, 60, 100
3, 184320, Note_on_c, 4, 61, 100
3, 184320, Note_on_c, 0, 69, 100
3, 184560, Note_on_c, 4, 60, 0
3, 184560, Note_on_c, 4, 61, 0
3, 184560, Note_on_c, 0, 69, 0
3, 184800, Note_on_c, 4, 61, 100
3, 185040, Note_on_c, 4, 61, 0
3, 185280, Note_on_c, 4, 61, 100
3, 185520, Note_on_c, 4, 61, 0
3, 185760, Note_on_c, 4, 61, 100
3, 185760, Note_on_c, 0, 68, 100
3, 186000, Note_on_c, 4, 61, 0
3, 186000, Note_on_c, 0, 68, 0
3, 186240, Note_on_c, 4, 60, 100
3, 186240, Note_on_c, 4, 61, 100
3, 186480, Note_on_c, 4, 60, 0
3, 186480, Note_on_c, 4, 61, 0
3, 186720, Note_on_c, 4, 61, 100
3, 186960, Note_on_c, 4, 61, 0
3, 187200, Note_on_c, 4, 61, 100
3, 187440, Note_on_c, 4, 61, 0
3, 187680, Note_on_c, 4, 61, 100
3, 187920, Note_on_c, 4, 61, 0
3, 188160, Note_on_c, 4, 60, 100
3, 188160, Note_on_c, 4, 61, 100
3, 188400, Note_on_c, 4, 60, 0
3, 188400, Note_on_c, 4, 61, 0
3, 188640, Note_on_c, 4, 61, 100
3, 188880, Note_on_c, 4, 61, 0
3, 189120, Note_on_c, 4, 61, 100
3, 189360, Note_on_c, 4, 61, 0
3, 189600, Note_on_c, 4, 61, 100
3, 189840, Note_on_c, 4, 61, 0
3, 190080, Note_on_c, 4, 60, 100
3, 190080, Note_on_c, 4, 61, 100
3, 190320, Note_on_c, 4, 60, 0
3, 190320, Note_on_c, 4, 61, 0
3, 190560, Note_on_c, 4, 61, 100
3, 190560, Note_on_c, 0, 68, 100
3, 190800, Note_on_c, 4, 61, 0
3, 190800, Note_on_c, 0, 68, 0
3, 191040, Note_on_c, 4, 61, 100
3, 191280, Note_on_c, 4, 61, 0
3, 191520, Note_on_c, 4, 61, 100
3, 191520, Note_on_c, 4, 60, 100
3, 191520, Note_on_c, 0, 70, 100
3, 191760, Note_on_c, 4, 61, 0
3, 191760, Note_on_c, 4, 60, 0
3, 191760, Note_on_c, 0, 70, 0
3, 192000, Note_on_c, 4, 61, 100
3, 192240, Note_on_c, 4, 61, 0
3, 192480, Note_on_c, 4, 60, 100
3, 192480, Note_on_c, 4, 61, 100
3, 192720, Note_on_c, 4, 60, 0
3, 192720, Note_on_c, 4, 61, 0
3, 192960, Note_on_c, 4, 61, 100
3, 193200, Note_on_c, 4, 61, 0
3, 193440, Note_on_c, 4, 61, 100
3, 193440, Note_on_c, 0, 69, 100
3, 193680, Note_on_c, 4, 61, 0
3, 193680, Note_on_c, 0, 69, 0
3, 193920, Note_on_c, 4, 60, 100
3, 193920, Note_on_c, 4, 61, 100
3, 194160, Note_on_c, 4, 60, 0
3, 194160, Note_on_c, 4, 61, 0
3, 194400, Note_on_c, 4, 61, 100
3, 194640, Note_on_c, 4, 61, 0
3, 194880, Note_on_c, 4, 61, 100
3, 195120, Note_on_c, 4, 61, 0
3, 195360, Note_on_c, 4, 61, 100
3, 195360, Note_on_c, 0, 70, 100
3, 195600, Note_on_c, 4, 61, 0
3, 195600, Note_on_c, 0, 70, 0
3, 195840, Note_on_c, 4, 60, 100
3, 195840, Note_on_c, 4, 61, 100
3, 196080, Note_on_c, 4, 60, 0
3, 196080, Note_on_c, 4, 61, 0
3, 196320, Note_on_c, 4, 61, 100
3, 196560, Note_on_c, 4, 61, 0
3, 196800, Note_on_c, 4, 61, 100
3, 197040, Note_on_c, 4, 61, 0
3, 197280, Note_on_c, 4, 61, 100
3, 197280, Note_on_c, 0, 69, 100
3, 197520, Note_on_c, 4, 61, 0
3, 197520, Note_on_c, 0, 69, 0
3, 197760, Note_on_c, 4, 60, 100
3, 197760, Note_on_c, 4, 61, 100
3, 198000, Note_on_c, 4, 60, 0
3, 198000, Note_on_c, 4, 61, 0
3, 198240, Note_on_c, 4, 60, 100
3, 198240, Note_on_c, 4, 61, 100
3, 198480, Note_on_c, 4, 60, 0
3, 198480, Note_on_c, 4, 61, 0
3, 198720, Note_on_c, 4, 61, 100
3, 198960, Note_on_c, 4, 61, 0
3, 199200, Note_on_c, 4, 60, 100
3, 199200, Note_on_c, 4, 61, 100
3, 199200, Note_on_c, 0, 70, 100
3, 199440, Note_on_c, 4, 60, 0
3, 199440, Note_on_c, 4, 61, 0
3, 199440, Note_on_c, 0, 70, 0
3, 200160, Note_on_c, 4, 60, 100
3, 200160, Note_on_c, 4, 61, 100
3, 200400, Note_on_c, 4, 60, 0
3, 200400, Note_on_c, 4, 61, 0
3, 200640, Note_on_c, 4, 61, 100
3, 200880, Note_on_c, 4, 61, 0
3, 201120, Note_on_c, 4, 61, 100
3, 201120, Note_on_c, 0, 69, 100
3, 201360, Note_on_c, 4, 61, 0
3, 201360, Note_on_c, 0, 69, 0
3, 201600, Note_on_c, 4, 60, 100
3, 201600, Note_on_c, 4, 61, 100
3, 201840, Note_on_c, 4, 60, 0
3, 201840, Note_on_c, 4, 61, 0
3, 202080, Note_on_c, 4, 61, 100
3, 202320, Note_on_c, 4, 61, 0
3, 202560, Note_on_c, 4, 61, 100
3, 202800, Note_on_c, 4, 61, 0
3, 203040, Note_on_c, 4, 61, 100
3, 203040, Note_on_c, 0, 70, 100
3, 203280, Note_on_c, 4, 61, 0
3, 203280, Note_on_c, 0, 70, 0
3, 203520, Note_on_c, 4, 60, 100
3, 203520, Note_on_c, 4, 61, 100
3, 203760, Note_on_c, 4, 60, 0
3, 203760, Note_on_c, 4, 61, 0
3, 204000, Note_on_c, 4, 61, 100
3, 204240, Note_on_c, 4, 61, 0
3, 204480, Note_on_c, 4, 61, 100
3, 204720, Note_on_c, 4, 61, 0
3, 204960, Note_on_c, 4, 61, 100
3, 204960, Note_on_c, 0, 69, 100
3, 205200, Note_on_c, 4, 61, 0
3, 205200, Note_on_c, 0, 69, 0
3, 205440, Note_on_c, 4, 60, 100
3, 205440, Note_on_c, 4, 61, 100
3, 205680, Note_on_c, 4, 60, 0
3, 205680, Note_on_c, 4, 61, 0
3, 205920, Note_on_c, 4, 60, 100
3, 205920, Note_on_c, 4, 61, 100
3, 206160, Note_on_c, 4, 60, 0
3, 206160, Note_on_c, 4, 61, 0
3, 206400, Note_on_c, 4, 61, 100
3, 206640, Note_on_c, 4, 61, 0
3, 206880, Note_on_c, 4, 60, 100
3, 206880, Note_on_c, 4, 61, 100
3, 206880, Note_on_c, 0, 70, 100
3, 207120, Note_on_c, 4, 60, 0
3, 207120, Note_on_c, 4, 61, 0
3, 207120, Note_on_c, 0, 70, 0
3, 207840, Note_on_c, 4, 60, 100
3, 207840, Note_on_c, 4, 61, 100
3, 208080, Note_on_c, 4, 60, 0
3, 208080, Note_on_c, 4, 61, 0
3, 208320, Note_on_c, 4, 61, 100
3, 208560, Note_on_c, 4, 61, 0
3, 208800, Note_on_c, 4, 61, 100
3, 208800, Note_on_c, 0, 69, 100
3, 209040, Note_on_c, 4, 61, 0
3, 209040, Note_on_c, 0, 69, 0
3, 209280, Note_on_c, 4, 60, 100
3, 209280, Note_on_c, 4, 61, 100
3, 209520, Note_on_c, 4, 60, 0
3, 209520, Note_on_c, 4, 61, 0
3, 209760, Note_on_c, 4, 61, 100
3, 210000, Note_on_c, 4, 61, 0
3, 210240, Note_on_c, 4, 61, 100
3, 210480, Note_on_c, 4, 61, 0
3, 210720, Note_on_c, 4, 61, 100
3, 210720, Note_on_c, 0, 70, 100
3, 210960, Note_on_c, 4, 61, 0
3, 210960, Note_on_c, 0, 70, 0
3, 211200, Note_on_c, 4, 60, 100
3, 211200, Note_on_c, 4, 61, 100
3, 211440, Note_on_c, 4, 60, 0
3, 211440, Note_on_c, 4, 61, 0
3, 211680, Note_on_c, 4, 61, 100
3, 211920, Note_on_c, 4, 61, 0
3, 212160, Note_on_c, 4, 61, 100
3, 212400, Note_on_c, 4, 61, 0
3, 212640, Note_on_c, 4, 61, 100
3, 212640, Note_on_c, 0, 69, 100
3, 212880, Note_on_c, 4, 61, 0
3, 212880, Note_on_c, 0, 69, 0
3, 213120, Note_on_c, 4, 60, 100
3, 213120, Note_on_c, 4, 61, 100
3, 213360, Note_on_c, 4, 60, 0
3, 213360, Note_on_c, 4, 61, 0
3, 213600, Note_on_c, 4, 60, 100
3, 213600, Note_on_c, 4, 61, 100
3, 213840, Note_on_c, 4, 60, 0
3, 213840, Note_on_c, 4, 61, 0
3, 214080, Note_on_c, 4, 61, 100
3, 214320, Note_on_c, 4, 61, 0
3, 214560, Note_on_c, 4, 60, 100
3, 214560, Note_on_c, 4, 61, 100
3, 214560, Note_on_c, 0, 70, 100
3, 214800, Note_on_c, 4, 60, 0
3, 214800, Note_on_c, 4, 61, 0
3, 214800, Note_on_c, 0, 70, 0
3, 215520, Note_on_c, 4, 60, 100
3, 215520, Note_on_c, 4, 61, 100
3, 215760, Note_on_c, 4, 60, 0
3, 215760, Note_on_c, 4, 61, 0
3, 216000, Note_on_c, 4, 61, 100
3, 216240, Note_on_c, 4, 61, 0
3, 216480, Note_on_c, 4, 61, 100
3, 216480, Note_on_c, 0, 69, 100
3, 216720, Note_on_c, 4, 61, 0
3, 216720, Note_on_c, 0, 69, 0
3, 216960, Note_on_c, 4, 60, 100
3, 216960, Note_on_c, 4, 61, 100
3, 217200, Note_on_c, 4, 60, 0
3, 217200, Note_on_c, 4, 61, 0
3, 217440, Note_on_c, 4, 61, 100
3, 217440, Note_on_c, 4, 60, 100
3, 217680, Note_on_c, 4, 61, 0
3, 217680, Note_on_c, 4, 60, 0
3, 217920, Note_on_c, 4, 61, 100
3, 218160, Note_on_c, 4, 61, 0
3, 218400, Note_on_c, 4, 60, 100
3, 218400, Note_on_c, 4, 61, 100
3, 218400, Note_on_c, 0, 70, 100
3, 218640, Note_on_c, 4, 60, 0
3, 218640, Note_on_c, 4, 61, 0
3, 219360, Note_on_c, 4, 61, 100
3, 219600, Note_on_c, 0, 70, 0
3, 219600, Note_on_c, 4, 61, 0
3, 219840, Note_on_c, 4, 61, 100
3, 219840, Note_on_c, 0, 70, 100
3, 220080, Note_on_c, 4, 61, 0
3, 220080, Note_on_c, 0, 70, 0
3, 220320, Note_on_c, 4, 61, 100
3, 220560, Note_on_c, 4, 61, 0
3, 220800, Note_on_c, 4, 61, 100
3, 220800, Note_on_c, 0, 70, 100
3, 221040, Note_on_c, 4, 61, 0
3, 221040, Note_on_c, 0, 70, 0
3, 221280, Note_on_c, 4, 61, 100
3, 221520, Note_on_c, 4, 61, 0
3, 221760, Note_on_c, 4, 61, 100
3, 221760, Note_on_c, 0, 70, 100
3, 222000, Note_on_c, 4, 61, 0
3, 222000, Note_on_c, 0, 70, 0
3, 222240, Note_on_c, 4, 60, 100
3, 222240, Note_on_c, 4, 61, 100
3, 222240, Note_on_c, 0, 68, 100
3, 222480, Note_on_c, 4, 60, 0
3, 222480, Note_on_c, 4, 61, 0
3, 222480, Note_on_c, 0, 68, 0
3, 223200, Note_on_c, 4, 60, 100
3, 223200, Note_on_c, 4, 61, 100
3, 223440, Note_on_c, 4, 60, 0
3, 223440, Note_on_c, 4, 61, 0
3, 223440, Note_on_c, 4, 60, 100
3, 223680, Note_on_c, 4, 60, 0
3, 223680, Note_on_c, 4, 61, 100
3, 223680, Note_on_c, 0, 70, 100
3, 223920, Note_on_c, 4, 61, 0
3, 223920, Note_on_c, 0, 70, 0
3, 224160, Note_on_c, 4, 61, 100
3, 224400, Note_on_c, 4, 61, 0
3, 224640, Note_on_c, 4, 60, 100
3, 224640, Note_on_c, 4, 61, 100
3, 224880, Note_on_c, 4, 60, 0
3, 224880, Note_on_c, 4, 61, 0
3, 225120, Note_on_c, 4, 61, 100
3, 225360, Note_on_c, 4, 61, 0
3, 225600, Note_on_c, 4, 61, 100
3, 225840, Note_on_c, 4, 61, 0
3, 226080, Note_on_c, 4, 61, 100
3, 226320, Note_on_c, 4, 61, 0
3, 226560, Note_on_c, 4, 60, 100
3, 226560, Note_on_c, 4, 61, 100
3, 226560, Note_on_c, 0, 69, 100
3, 226800, Note_on_c, 4, 60, 0
3, 226800, Note_on_c, 4, 61, 0
3, 226800, Note_on_c, 0, 69, 0
3, 227040, Note_on_c, 4, 61, 100
3, 227280, Note_on_c, 4, 61, 0
3, 227520, Note_on_c, 4, 61, 100
3, 227760, Note_on_c, 4, 61, 0
3, 228000, Note_on_c, 4, 61, 100
3, 228000, Note_on_c, 0, 68, 100
3, 228240, Note_on_c, 4, 61, 0
3, 228240, Note_on_c, 0, 68, 0
3, 228480, Note_on_c, 4, 60, 100
3, 228480, Note_on_c, 4, 61, 100
3, 228720, Note_on_c, 4, 60, 0
3, 228720, Note_on_c, 4, 61, 0
3, 228960, Note_on_c, 4, 60, 100
3, 228960, Note_on_c, 4, 61, 100
3, 229200, Note_on_c, 4, 60, 0
3, 229200, Note_on_c, 4, 61, 0
3, 229440, Note_on_c, 4, 61, 100
3, 229440, Note_on_c, 0, 68, 100
3, 229680, Note_on_c, 4, 61, 0
3, 229680, Note_on_c, 0, 68, 0
3, 229920, Note_on_c, 4, 61, 100
3, 230160, Note_on_c, 4, 61, 0
3, 230400, Note_on_c, 4, 60, 100
3, 230400, Note_on_c, 4, 61, 100
3, 230400, Note_on_c, 0, 68, 100
3, 230640, Note_on_c, 4, 60, 0
3, 230640, Note_on_c, 4, 61, 0
3, 230640, Note_on_c, 0, 68, 0
3, 230880, Note_on_c, 4, 61, 100
3, 231120, Note_on_c, 4, 61, 0
3, 231360, Note_on_c, 4, 61, 100
3, 231360, Note_on_c, 0, 69, 100
3, 231600, Note_on_c, 4, 61, 0
3, 231600, Note_on_c, 0, 69, 0
3, 231840, Note_on_c, 4, 61, 100
3, 232080, Note_on_c, 4, 61, 0
3, 232320, Note_on_c, 4, 60, 100
3, 232320, Note_on_c, 4, 61, 100
3, 232560, Note_on_c, 4, 60, 0
3, 232560, Note_on_c, 4, 61, 0
3, 232800, Note_on_c, 4, 61, 100
3, 233040, Note_on_c, 4, 61, 0
3, 233280, Note_on_c, 4, 61, 100
3, 233520, Note_on_c, 4, 61, 0
3, 233760, Note_on_c, 4, 61, 100
3, 234000, Note_on_c, 4, 61, 0
3, 234240, Note_on_c, 4, 60, 100
3, 234240, Note_on_c, 4, 61, 100
3, 234240, Note_on_c, 0, 70, 100
3, 234480, Note_on_c, 4, 60, 0
3, 234480, Note_on_c, 4, 61, 0
3, 234480, Note_on_c, 0, 70, 0
3, 234720, Note_on_c, 4, 61, 100
3, 234960, Note_on_c, 4, 61, 0
3, 235200, Note_on_c, 4, 60, 100
3, 235200, Note_on_c, 4, 61, 100
3, 235440, Note_on_c, 4, 60, 0
3, 235440, Note_on_c, 4, 61, 0
3, 235440, Note_on_c, 4, 60, 100
3, 235680, Note_on_c, 4, 60, 0
3, 235680, Note_on_c, 4, 61, 100
3, 235680, Note_on_c, 0, 70, 100
3, 235920, Note_on_c, 4, 61, 0
3, 235920, Note_on_c, 0, 70, 0
3, 236160, Note_on_c, 4, 60, 100
3, 236160, Note_on_c, 4, 61, 100
3, 236400, Note_on_c, 4, 60, 0
3, 236400, Note_on_c, 4, 61, 0
3, 236640, Note_on_c, 4, 60, 100
3, 236640, Note_on_c, 4, 61, 100
3, 236880, Note_on_c, 4, 60, 0
3, 236880, Note_on_c, 4, 61, 0
3, 237120, Note_on_c, 4, 61, 100
3, 237120, Note_on_c, 0, 69, 100
3, 237360, Note_on_c, 4, 61, 0
3, 237360, Note_on_c, 0, 69, 0
3, 238080, Note_on_c, 4, 60, 100
3, 238080, Note_on_c, 4, 61, 100
3, 238080, Note_on_c, 0, 68, 100
3, 238320, Note_on_c, 4, 60, 0
3, 238320, Note_on_c, 4, 61, 0
3, 238320, Note_on_c, 0, 68, 0
3, 238560, Note_on_c, 4, 61, 100
3, 238800, Note_on_c, 4, 61, 0
3, 239040, Note_on_c, 4, 61, 100
3, 239040, Note_on_c, 0, 70, 100
3, 239280, Note_on_c, 4, 61, 0
3, 239280, Note_on_c, 0, 70, 0
3, 239520, Note_on_c, 4, 61, 100
3, 239760, Note_on_c, 4, 61, 0
3, 240000, Note_on_c, 4, 60, 100
3, 240000, Note_on_c, 4, 61, 100
3, 240240, Note_on_c, 4, 60, 0
3, 240240, Note_on_c, 4, 61, 0
3, 240480, Note_on_c, 4, 61, 100
3, 240720, Note_on_c, 4, 61, 0
3, 240960, Note_on_c, 4, 61, 100
3, 241200, Note_on_c, 4, 61, 0
3, 241440, Note_on_c, 4, 61, 100
3, 241680, Note_on_c, 4, 61, 0
3, 241920, Note_on_c, 4, 60, 100
3, 241920, Note_on_c, 4, 61, 100
3, 241920, Note_on_c, 0, 69, 100
3, 242160, Note_on_c, 4, 60, 0
3, 242160, Note_on_c, 4, 61, 0
3, 242160, Note_on_c, 0, 69, 0
3, 242400, Note_on_c, 4, 61, 100
3, 242640, Note_on_c, 4, 61, 0
3, 242880, Note_on_c, 4, 61, 100
3, 243120, Note_on_c, 4, 61, 0
3, 243360, Note_on_c, 4, 61, 100
3, 243360, Note_on_c, 0, 68, 100
3, 243600, Note_on_c, 4, 61, 0
3, 243600, Note_on_c, 0, 68, 0
3, 243840, Note_on_c, 4, 60, 100
3, 243840, Note_on_c, 4, 61, 100
3, 244080, Note_on_c, 4, 60, 0
3, 244080, Note_on_c, 4, 61, 0
3, 244320, Note_on_c, 4, 61, 100
3, 244560, Note_on_c, 4, 61, 0
3, 244800, Note_on_c, 4, 61, 100
3, 244800, Note_on_c, 0, 68, 100
3, 245040, Note_on_c, 4, 61, 0
3, 245040, Note_on_c, 0, 68, 0
3, 245280, Note_on_c, 4, 61, 100
3, 245520, Note_on_c, 4, 61, 0
3, 245760, Note_on_c, 4, 60, 100
3, 245760, Note_on_c, 4, 61, 100
3, 245760, Note_on_c, 0, 68, 100
3, 246000, Note_on_c, 4, 60, 0
3, 246000, Note_on_c, 4, 61, 0
3, 246000, Note_on_c, 0, 68, 0
3, 246240, Note_on_c, 4, 61, 100
3, 246480, Note_on_c, 4, 61, 0
3, 246720, Note_on_c, 4, 61, 100
3, 246720, Note_on_c, 0, 69, 100
3, 246960, Note_on_c, 4, 61, 0
3, 246960, Note_on_c, 0, 69, 0
3, 247200, Note_on_c, 4, 61, 100
3, 247440, Note_on_c, 4, 61, 0
3, 247680, Note_on_c, 4, 60, 100
3, 247680, Note_on_c, 4, 61, 100
3, 247920, Note_on_c, 4, 60, 0
3, 247920, Note_on_c, 4, 61, 0
3, 248160, Note_on_c, 4, 60, 100
3, 248160, Note_on_c, 4, 61, 100
3, 248400, Note_on_c, 4, 60, 0
3, 248400, Note_on_c, 4, 61, 0
3, 248640, Note_on_c, 4, 61, 100
3, 248880, Note_on_c, 4, 61, 0
3, 249120, Note_on_c, 4, 61, 100
3, 249360, Note_on_c, 4, 61, 0
3, 249600, Note_on_c, 4, 60, 100
3, 249600, Note_on_c, 4, 61, 100
3, 249600, Note_on_c, 0, 70, 100
3, 249840, Note_on_c, 4, 60, 0
3, 249840, Note_on_c, 4, 61, 0
3, 249840, Note_on_c, 0, 70, 0
3, 250080, Note_on_c, 4, 61, 100
3, 250320, Note_on_c, 4, 61, 0
3, 250560, Note_on_c, 4, 61, 100
3, 250560, Note_on_c, 0, 70, 100
3, 250800, Note_on_c, 4, 61, 0
3, 250800, Note_on_c, 0, 70, 0
3, 251040, Note_on_c, 4, 61, 100
3, 251280, Note_on_c, 4, 61, 0
3, 251520, Note_on_c, 4, 60, 100
3, 251520, Note_on_c, 4, 61, 100
3, 251520, Note_on_c, 0, 70, 100
3, 251520, Note_on_c, 0, 69, 100
3, 251760, Note_on_c, 4, 60, 0
3, 251760, Note_on_c, 4, 61, 0
3, 253200, Note_on_c, 0, 70, 0
3, 253200, Note_on_c, 0, 69, 0
3, 253440, Note_on_c, 4, 60, 100
3, 253440, Note_on_c, 4, 61, 100
3, 253440, Note_on_c, 0, 68, 100
3, 253680, Note_on_c, 4, 60, 0
3, 253680, Note_on_c, 4, 61, 0
3, 253680, Note_on_c, 0, 68, 0
3, 254400, Note_on_c, 0, 70, 100
3, 254640, Note_on_c, 0, 70, 0
3, 254880, Note_on_c, 4, 61, 100
3, 254880, Note_on_c, 4, 60, 100
3, 255120, Note_on_c, 4, 61, 0
3, 255120, Note_on_c, 4, 60, 0
3, 255360, Note_on_c, 4, 61, 100
3, 255600, Note_on_c, 4, 61, 0
3, 255840, Note_on_c, 4, 60, 100
3, 255840, Note_on_c, 4, 61, 100
3, 256080, Note_on_c, 4, 60, 0
3, 256080, Note_on_c, 4, 61, 0
3, 256800, Note_on_c, 4, 60, 100
3, 256800, Note_on_c, 4, 61, 100
3, 257040, Note_on_c, 4, 60, 0
3, 257040, Note_on_c, 4, 61, 0
3, 257280, Note_on_c, 4, 60, 100
3, 257280, Note_on_c, 4, 61, 100
3, 257280, Note_on_c, 0, 69, 100
3, 257520, Note_on_c, 4, 60, 0
3, 257520, Note_on_c, 4, 61, 0
3, 257520, Note_on_c, 0, 69, 0
3, 258720, Note_on_c, 4, 60, 100
3, 258720, Note_on_c, 4, 61, 100
3, 258720, Note_on_c, 0, 68, 100
3, 258960, Note_on_c, 4, 60, 0
3, 258960, Note_on_c, 4, 61, 0
3, 258960, Note_on_c, 0, 68, 0
3, 259680, Note_on_c, 4, 60, 100
3, 259680, Note_on_c, 4, 61, 100
3, 259920, Note_on_c, 4, 60, 0
3, 259920, Note_on_c, 4, 61, 0
3, 260160, Note_on_c, 4, 61, 100
3, 260160, Note_on_c, 0, 68, 100
3, 260400, Note_on_c, 4, 61, 0
3, 260400, Note_on_c, 0, 68, 0
3, 260640, Note_on_c, 4, 61, 100
3, 260880, Note_on_c, 4, 61, 0
3, 261120, Note_on_c, 4, 60, 100
3, 261120, Note_on_c, 4, 61, 100
3, 261120, Note_on_c, 0, 68, 100
3, 261360, Note_on_c, 4, 60, 0
3, 261360, Note_on_c, 4, 61, 0
3, 261360, Note_on_c, 0, 68, 0
3, 262080, Note_on_c, 4, 61, 100
3, 262080, Note_on_c, 0, 69, 100
3, 262320, Note_on_c, 4, 61, 0
3, 262320, Note_on_c, 0, 69, 0
3, 262560, Note_on_c, 4, 60, 100
3, 262560, Note_on_c, 4, 61, 100
3, 262800, Note_on_c, 4, 60, 0
3, 262800, Note_on_c, 4, 61, 0
3, 263040, Note_on_c, 4, 61, 100
3, 263280, Note_on_c, 4, 61, 0
3, 263520, Note_on_c, 4, 61, 100
3, 263760, Note_on_c, 4, 61, 0
3, 264000, Note_on_c, 4, 61, 100
3, 264240, Note_on_c, 4, 61, 0
3, 264480, Note_on_c, 4, 61, 100
3, 264720, Note_on_c, 4, 61, 0
3, 264960, Note_on_c, 4, 60, 100
3, 264960, Note_on_c, 4, 61, 100
3, 264960, Note_on_c, 0, 70, 100
3, 265200, Note_on_c, 4, 60, 0
3, 265200, Note_on_c, 4, 61, 0
3, 265200, Note_on_c, 0, 70, 0
3, 265440, Note_on_c, 4, 60, 100
3, 265440, Note_on_c, 4, 61, 100
3, 265680, Note_on_c, 4, 60, 0
3, 265680, Note_on_c, 4, 61, 0
3, 265920, Note_on_c, 4, 60, 100
3, 265920, Note_on_c, 4, 61, 100
3, 266160, Note_on_c, 4, 60, 0
3, 266160, Note_on_c, 4, 61, 0
3, 266400, Note_on_c, 4, 61, 100
3, 266400, Note_on_c, 0, 70, 100
3, 266640, Note_on_c, 4, 61, 0
3, 266640, Note_on_c, 0, 70, 0
3, 266880, Note_on_c, 4, 61, 100
3, 267120, Note_on_c, 4, 61, 0
3, 267360, Note_on_c, 4, 61, 100
3, 267600, Note_on_c, 4, 61, 0
3, 267840, Note_on_c, 4, 61, 100
3, 267840, Note_on_c, 0, 69, 100
3, 268080, Note_on_c, 4, 61, 0
3, 268080, Note_on_c, 0, 69, 0
3, 268800, Note_on_c, 4, 60, 100
3, 268800, Note_on_c, 4, 61, 100
3, 268800, Note_on_c, 0, 68, 100
3, 269040, Note_on_c, 4, 60, 0
3, 269040, Note_on_c, 4, 61, 0
3, 269040, Note_on_c, 0, 68, 0
3, 269760, Note_on_c, 0, 70, 100
3, 270000, Note_on_c, 0, 70, 0
3, 270240, Note_on_c, 4, 60, 100
3, 270240, Note_on_c, 4, 61, 100
3, 270480, Note_on_c, 4, 60, 0
3, 270480, Note_on_c, 4, 61, 0
3, 270720, Note_on_c, 4, 61, 100
3, 270960, Note_on_c, 4, 61, 0
3, 271200, Note_on_c, 4, 60, 100
3, 271200, Note_on_c, 4, 61, 100
3, 271440, Note_on_c, 4, 60, 0
3, 271440, Note_on_c, 4, 61, 0
3, 272160, Note_on_c, 4, 61, 100
3, 272160, Note_on_c, 4, 60, 100
3, 272400, Note_on_c, 4, 61, 0
3, 272400, Note_on_c, 4, 60, 0
3, 272640, Note_on_c, 4, 60, 100
3, 272640, Note_on_c, 4, 61, 100
3, 272640, Note_on_c, 0, 69, 100
3, 272880, Note_on_c, 4, 60, 0
3, 272880, Note_on_c, 4, 61, 0
3, 272880, Note_on_c, 0, 69, 0
3, 273600, Note_on_c, 4, 61, 100
3, 273840, Note_on_c, 4, 61, 0
3, 274080, Note_on_c, 4, 60, 100
3, 274080, Note_on_c, 4, 61, 100
3, 274080, Note_on_c, 0, 68, 100
3, 274320, Note_on_c, 4, 60, 0
3, 274320, Note_on_c, 4, 61, 0
3, 274320, Note_on_c, 0, 68, 0
3, 274560, Note_on_c, 4, 61, 100
3, 274800, Note_on_c, 4, 61, 0
3, 275040, Note_on_c, 4, 60, 100
3, 275040, Note_on_c, 4, 61, 100
3, 275280, Note_on_c, 4, 60, 0
3, 275280, Note_on_c, 4, 61, 0
3, 275520, Note_on_c, 4, 61, 100
3, 275520, Note_on_c, 0, 68, 100
3, 275760, Note_on_c, 4, 61, 0
3, 275760, Note_on_c, 0, 68, 0
3, 276000, Note_on_c, 4, 60, 100
3, 276000, Note_on_c, 4, 61, 100
3, 276240, Note_on_c, 4, 60, 0
3, 276240, Note_on_c, 4, 61, 0
3, 276480, Note_on_c, 4, 60, 100
3, 276480, Note_on_c, 4, 61, 100
3, 276480, Note_on_c, 0, 68, 100
3, 276720, Note_on_c, 4, 60, 0
3, 276720, Note_on_c, 4, 61, 0
3, 276720, Note_on_c, 0, 68, 0
3, 277440, Note_on_c, 0, 69, 100
3, 277680, Note_on_c, 0, 69, 0
3, 277920, Note_on_c, 4, 60, 100
3, 277920, Note_on_c, 4, 61, 100
3, 278160, Note_on_c, 4, 60, 0
3, 278160, Note_on_c, 4, 61, 0
3, 278400, Note_on_c, 4, 61, 100
3, 278640, Note_on_c, 4, 61, 0
3, 279360, Note_on_c, 4, 61, 100
3, 279600, Note_on_c, 4, 61, 0
3, 279840, Note_on_c, 4, 60, 100
3, 279840, Note_on_c, 4, 61, 100
3, 280080, Note_on_c, 4, 60, 0
3, 280080, Note_on_c, 4, 61, 0
3, 280320, Note_on_c, 4, 60, 100
3, 280320, Note_on_c, 4, 61, 100
3, 280320, Note_on_c, 0, 70, 100
3, 280560, Note_on_c, 4, 60, 0
3, 280560, Note_on_c, 4, 61, 0
3, 280560, Note_on_c, 0, 70, 0
3, 280800, Note_on_c, 4, 61, 100
3, 281040, Note_on_c, 4, 61, 0
3, 281280, Note_on_c, 4, 61, 100
3, 281520, Note_on_c, 4, 61, 0
3, 281760, Note_on_c, 4, 61, 100
3, 281760, Note_on_c, 0, 70, 100
3, 282000, Note_on_c, 4, 61, 0
3, 282000, Note_on_c, 0, 70, 0
3, 282240, Note_on_c, 4, 61, 100
3, 282480, Note_on_c, 4, 61, 0
3, 282720, Note_on_c, 4, 61, 100
3, 282960, Note_on_c, 4, 61, 0
3, 283200, Note_on_c, 4, 61, 100
3, 283200, Note_on_c, 4, 60, 100
3, 283200, Note_on_c, 0, 68, 100
3, 283440, Note_on_c, 4, 61, 0
3, 283440, Note_on_c, 4, 60, 0
3, 283440, Note_on_c, 0, 68, 0
3, 284160, Note_on_c, 4, 61, 100
3, 284160, Note_on_c, 0, 69, 100
3, 284400, Note_on_c, 4, 61, 0
3, 284400, Note_on_c, 0, 69, 0
3, 284640, Note_on_c, 4, 61, 100
3, 284880, Note_on_c, 4, 61, 0
3, 285120, Note_on_c, 4, 61, 100
3, 285120, Note_on_c, 0, 70, 100
3, 285360, Note_on_c, 4, 61, 0
3, 285360, Note_on_c, 0, 70, 0
3, 285600, Note_on_c, 4, 61, 100
3, 285840, Note_on_c, 4, 61, 0
3, 286080, Note_on_c, 4, 61, 100
3, 286320, Note_on_c, 4, 61, 0
3, 286560, Note_on_c, 4, 61, 100
3, 286800, Note_on_c, 4, 61, 0
3, 287040, Note_on_c, 4, 61, 100
3, 287280, Note_on_c, 4, 61, 0
3, 287520, Note_on_c, 4, 61, 100
3, 287760, Note_on_c, 4, 61, 0
3, 288000, Note_on_c, 4, 60, 100
3, 288000, Note_on_c, 4, 61, 100
3, 288000, Note_on_c, 0, 70, 100
3, 288240, Note_on_c, 4, 60, 0
3, 288240, Note_on_c, 4, 61, 0
3, 288240, Note_on_c, 0, 70, 0
3, 288480, Note_on_c, 4, 61, 100
3, 288720, Note_on_c, 4, 61, 0
3, 288960, Note_on_c, 4, 61, 100
3, 288960, Note_on_c, 0, 70, 100
3, 289200, Note_on_c, 4, 61, 0
3, 289200, Note_on_c, 0, 70, 0
3, 289440, Note_on_c, 4, 61, 100
3, 289680, Note_on_c, 4, 61, 0
3, 289920, Note_on_c, 4, 60, 100
3, 289920, Note_on_c, 4, 61, 100
3, 289920, Note_on_c, 0, 70, 100
3, 289920, Note_on_c, 0, 69, 100
3, 290160, Note_on_c, 4, 60, 0
3, 290160, Note_on_c, 4, 61, 0
3, 290400, Note_on_c, 4, 61, 100
3, 290640, Note_on_c, 4, 61, 0
3, 290880, Note_on_c, 4, 61, 100
3, 291120, Note_on_c, 4, 61, 0
3, 291360, Note_on_c, 4, 60, 100
3, 291360, Note_on_c, 4, 61, 100
3, 291600, Note_on_c, 0, 70, 0
3, 291600, Note_on_c, 0, 69, 0
3, 291600, Note_on_c, 4, 60, 0
3, 291600, Note_on_c, 4, 61, 0
3, 291840, Note_on_c, 0, 70, 100
3, 292080, Note_on_c, 0, 70, 0
3, 292320, Note_on_c, 4, 61, 100
3, 292560, Note_on_c, 4, 61, 0
3, 292800, Note_on_c, 4, 61, 100
3, 293040, Note_on_c, 4, 61, 0
3, 293280, Note_on_c, 4, 61, 100
3, 293520, Note_on_c, 4, 61, 0
3, 293760, Note_on_c, 4, 60, 100
3, 293760, Note_on_c, 4, 61, 100
3, 293760, Note_on_c, 0, 70, 100
3, 294000, Note_on_c, 4, 60, 0
3, 294000, Note_on_c, 4, 61, 0
3, 294000, Note_on_c, 0, 70, 0
3, 294240, Note_on_c, 4, 61, 100
3, 294480, Note_on_c, 4, 61, 0
3, 294720, Note_on_c, 4, 61, 100
3, 294960, Note_on_c, 4, 61, 0
3, 295200, Note_on_c, 4, 61, 100
3, 295440, Note_on_c, 4, 61, 0
3, 295680, Note_on_c, 4, 60, 100
3, 295680, Note_on_c, 4, 61, 100
3, 295680, Note_on_c, 0, 70, 100
3, 295920, Note_on_c, 4, 60, 0
3, 295920, Note_on_c, 4, 61, 0
3, 295920, Note_on_c, 0, 70, 0
3, 296160, Note_on_c, 4, 61, 100
3, 296400, Note_on_c, 4, 61, 0
3, 296640, Note_on_c, 4, 61, 100
3, 296880, Note_on_c, 4, 61, 0
3, 297120, Note_on_c, 4, 61, 100
3, 297360, Note_on_c, 4, 61, 0
3, 297600, Note_on_c, 4, 60, 100
3, 297600, Note_on_c, 4, 61, 100
3, 297600, Note_on_c, 0, 70, 100
3, 297840, Note_on_c, 4, 60, 0
3, 297840, Note_on_c, 4, 61, 0
3, 297840, Note_on_c, 0, 70, 0
3, 298080, Note_on_c, 4, 61, 100
3, 298320, Note_on_c, 4, 61, 0
3, 298560, Note_on_c, 4, 61, 100
3, 298800, Note_on_c, 4, 61, 0
3, 299040, Note_on_c, 4, 61, 100
3, 299040, Note_on_c, 0, 69, 100
3, 299280, Note_on_c, 4, 61, 0
3, 299520, Note_on_c, 4, 60, 100
3, 299520, Note_on_c, 4, 61, 100
3, 299760, Note_on_c, 4, 60, 0
3, 299760, Note_on_c, 4, 61, 0
3, 300000, Note_on_c, 4, 61, 100
3, 300240, Note_on_c, 4, 61, 0
3, 300480, Note_on_c, 4, 61, 100
3, 300720, Note_on_c, 4, 61, 0
3, 300960, Note_on_c, 4, 61, 100
3, 301200, Note_on_c, 4, 61, 0
3, 301440, Note_on_c, 4, 60, 100
3, 301440, Note_on_c, 4, 61, 100
3, 301680, Note_on_c, 4, 60, 0
3, 301680, Note_on_c, 4, 61, 0
3, 301920, Note_on_c, 0, 69, 0
3, 301920, Note_on_c, 4, 61, 100
3, 301920, Note_on_c, 0, 69, 100
3, 302160, Note_on_c, 4, 61, 0
3, 302160, Note_on_c, 0, 69, 0
3, 302400, Note_on_c, 4, 61, 100
3, 302640, Note_on_c, 4, 61, 0
3, 302880, Note_on_c, 4, 61, 100
3, 302880, Note_on_c, 0, 68, 100
3, 303120, Note_on_c, 4, 61, 0
3, 303360, Note_on_c, 4, 60, 100
3, 303360, Note_on_c, 4, 61, 100
3, 303600, Note_on_c, 4, 60, 0
3, 303600, Note_on_c, 4, 61, 0
3, 303840, Note_on_c, 4, 61, 100
3, 304080, Note_on_c, 4, 61, 0
3, 304320, Note_on_c, 4, 61, 100
3, 304560, Note_on_c, 4, 61, 0
3, 304800, Note_on_c, 4, 61, 100
3, 305040, Note_on_c, 4, 61, 0
3, 305280, Note_on_c, 4, 60, 100
3, 305280, Note_on_c, 4, 61, 100
3, 305520, Note_on_c, 0, 68, 0
3, 305520, Note_on_c, 4, 60, 0
3, 305520, Note_on_c, 4, 61, 0
3, 305760, Note_on_c, 4, 60, 100
3, 305760, Note_on_c, 4, 61, 100
3, 305760, Note_on_c, 0, 68, 100
3, 306000, Note_on_c, 4, 60, 0
3, 306000, Note_on_c, 4, 61, 0
3, 306000, Note_on_c, 0, 68, 0
3, 306240, Note_on_c, 4, 61, 100
3, 306480, Note_on_c, 4, 61, 0
3, 306720, Note_on_c, 4, 60, 100
3, 306720, Note_on_c, 4, 61, 100
3, 306960, Note_on_c, 4, 60, 0
3, 306960, Note_on_c, 4, 61, 0
3, 307200, Note_on_c, 4, 61, 100
3, 307200, Note_on_c, 0, 70, 100
3, 307440, Note_on_c, 4, 61, 0
3, 307680, Note_on_c, 4, 61, 100
3, 307920, Note_on_c, 4, 61, 0
3, 308160, Note_on_c, 4, 61, 100
3, 308400, Note_on_c, 4, 61, 0
3, 308640, Note_on_c, 4, 60, 100
3, 308640, Note_on_c, 4, 61, 100
3, 308880, Note_on_c, 4, 60, 0
3, 308880, Note_on_c, 4, 61, 0
3, 309120, Note_on_c, 4, 61, 100
3, 309360, Note_on_c, 4, 61, 0
3, 309600, Note_on_c, 4, 61, 100
3, 309840, Note_on_c, 4, 61, 0
3, 310080, Note_on_c, 4, 61, 100
3, 310320, Note_on_c, 4, 61, 0
3, 310560, Note_on_c, 4, 60, 100
3, 310560, Note_on_c, 4, 61, 100
3, 310800, Note_on_c, 4, 60, 0
3, 310800, Note_on_c, 4, 61, 0
3, 311040, Note_on_c, 0, 70, 0
3, 311040, Note_on_c, 4, 61, 100
3, 311280, Note_on_c, 4, 61, 0
3, 311520, Note_on_c, 4, 61, 100
3, 311520, Note_on_c, 0, 69, 100
3, 311760, Note_on_c, 4, 61, 0
3, 311760, Note_on_c, 0, 69, 0
3, 312000, Note_on_c, 4, 61, 100
3, 312000, Note_on_c, 0, 68, 100
3, 312240, Note_on_c, 4, 61, 0
3, 312240, Note_on_c, 0, 68, 0
3, 312480, Note_on_c, 4, 60, 100
3, 312480, Note_on_c, 4, 61, 100
3, 312720, Note_on_c, 4, 60, 0
3, 312720, Note_on_c, 4, 61, 0
3, 312960, Note_on_c, 4, 61, 100
3, 312960, Note_on_c, 0, 68, 100
3, 313200, Note_on_c, 4, 61, 0
3, 313200, Note_on_c, 0, 68, 0
3, 313440, Note_on_c, 4, 61, 100
3, 313680, Note_on_c, 4, 61, 0
3, 313920, Note_on_c, 4, 61, 100
3, 314160, Note_on_c, 4, 61, 0
3, 314400, Note_on_c, 4, 61, 100
3, 314400, Note_on_c, 4, 60, 100
3, 314400, Note_on_c, 0, 69, 100
3, 314640, Note_on_c, 4, 61, 0
3, 314640, Note_on_c, 4, 60, 0
3, 314640, Note_on_c, 0, 69, 0
3, 314880, Note_on_c, 4, 61, 100
3, 315120, Note_on_c, 4, 61, 0
3, 315360, Note_on_c, 4, 61, 100
3, 315600, Note_on_c, 4, 61, 0
3, 315840, Note_on_c, 4, 61, 100
3, 316080, Note_on_c, 4, 61, 0
3, 316320, Note_on_c, 4, 61, 100
3, 316560, Note_on_c, 4, 61, 0
3, 316800, Note_on_c, 4, 60, 100
3, 316800, Note_on_c, 4, 61, 100
3, 316800, Note_on_c, 0, 69, 100
3, 317040, Note_on_c, 4, 60, 0
3, 317040, Note_on_c, 4, 61, 0
3, 317040, Note_on_c, 0, 69, 0
3, 317280, Note_on_c, 4, 60, 100
3, 317280, Note_on_c, 4, 61, 100
3, 317520, Note_on_c, 4, 60, 0
3, 317520, Note_on_c, 4, 61, 0
3, 317760, Note_on_c, 4, 61, 100
3, 318000, Note_on_c, 4, 61, 0
3, 318240, Note_on_c, 4, 60, 100
3, 318240, Note_on_c, 4, 61, 100
3, 318480, Note_on_c, 4, 60, 0
3, 318480, Note_on_c, 4, 61, 0
3, 318720, Note_on_c, 4, 60, 100
3, 318720, Note_on_c, 4, 61, 100
3, 318720, Note_on_c, 0, 70, 100
3, 318960, Note_on_c, 4, 60, 0
3, 318960, Note_on_c, 4, 61, 0
3, 318960, Note_on_c, 0, 70, 0
3, 319200, Note_on_c, 4, 61, 100
3, 319440, Note_on_c, 4, 61, 0
3, 319680, Note_on_c, 4, 61, 100
3, 319920, Note_on_c, 4, 61, 0
3, 320160, Note_on_c, 4, 61, 100
3, 320400, Note_on_c, 4, 61, 0
3, 320640, Note_on_c, 4, 60, 100
3, 320640, Note_on_c, 4, 61, 100
3, 320640, Note_on_c, 0, 69, 100
3, 320880, Note_on_c, 4, 60, 0
3, 320880, Note_on_c, 4, 61, 0
3, 320880, Note_on_c, 0, 69, 0
3, 321120, Note_on_c, 4, 61, 100
3, 321360, Note_on_c, 4, 61, 0
3, 321600, Note_on_c, 4, 61, 100
3, 321840, Note_on_c, 4, 61, 0
3, 322080, Note_on_c, 4, 60, 100
3, 322080, Note_on_c, 4, 61, 100
3, 322320, Note_on_c, 4, 60, 0
3, 322320, Note_on_c, 4, 61, 0
3, 322560, Note_on_c, 4, 61, 100
3, 322560, Note_on_c, 0, 68, 100
3, 322800, Note_on_c, 4, 61, 0
3, 322800, Note_on_c, 0, 68, 0
3, 323040, Note_on_c, 4, 61, 100
3, 323280, Note_on_c, 4, 61, 0
3, 323520, Note_on_c, 4, 61, 100
3, 323760, Note_on_c, 4, 61, 0
3, 324000, Note_on_c, 4, 61, 100
3, 324240, Note_on_c, 4, 61, 0
3, 324480, Note_on_c, 4, 60, 100
3, 324480, Note_on_c, 4, 61, 100
3, 324480, Note_on_c, 0, 69, 100
3, 324720, Note_on_c, 4, 60, 0
3, 324720, Note_on_c, 4, 61, 0
3, 324720, Note_on_c, 0, 69, 0
3, 324960, Note_on_c, 4, 61, 100
3, 325200, Note_on_c, 4, 61, 0
3, 325200, Note_on_c, 0, 69, 100
3, 325440, Note_on_c, 0, 69, 0
3, 325440, Note_on_c, 4, 61, 100
3, 325680, Note_on_c, 4, 61, 0
3, 325920, Note_on_c, 4, 61, 100
3, 326160, Note_on_c, 4, 61, 0
3, 326400, Note_on_c, 4, 60, 100
3, 326400, Note_on_c, 4, 61, 100
3, 326400, Note_on_c, 0, 68, 100
3, 326640, Note_on_c, 4, 60, 0
3, 326640, Note_on_c, 4, 61, 0
3, 326640, Note_on_c, 0, 68, 0
3, 326880, Note_on_c, 4, 61, 100
3, 327120, Note_on_c, 4, 61, 0
3, 327360, Note_on_c, 4, 61, 100
3, 327600, Note_on_c, 4, 61, 0
3, 327840, Note_on_c, 4, 61, 100
3, 328080, Note_on_c, 4, 61, 0
3, 328320, Note_on_c, 4, 60, 100
3, 328320, Note_on_c, 4, 61, 100
3, 328320, Note_on_c, 0, 69, 100
3, 328560, Note_on_c, 4, 60, 0
3, 328560, Note_on_c, 4, 61, 0
3, 328560, Note_on_c, 0, 69, 0
3, 328800, Note_on_c, 4, 61, 100
3, 329040, Note_on_c, 4, 61, 0
3, 329040, Note_on_c, 0, 69, 100
3, 329280, Note_on_c, 0, 69, 0
3, 329280, Note_on_c, 4, 61, 100
3, 329520, Note_on_c, 4, 61, 0
3, 329760, Note_on_c, 4, 61, 100
3, 329760, Note_on_c, 4, 60, 100
3, 330000, Note_on_c, 4, 61, 0
3, 330000, Note_on_c, 4, 60, 0
3, 330240, Note_on_c, 4, 60, 100
3, 330240, Note_on_c, 4, 61, 100
3, 330240, Note_on_c, 0, 69, 100
3, 330480, Note_on_c, 4, 60, 0
3, 330480, Note_on_c, 4, 61, 0
3, 330480, Note_on_c, 0, 69, 0
3, 330720, Note_on_c, 4, 61, 100
3, 330960, Note_on_c, 4, 61, 0
3, 331200, Note_on_c, 4, 61, 100
3, 331440, Note_on_c, 4, 61, 0
3, 331680, Note_on_c, 4, 61, 100
3, 331920, Note_on_c, 4, 61, 0
3, 332160, Note_on_c, 4, 60, 100
3, 332160, Note_on_c, 4, 61, 100
3, 332160, Note_on_c, 0, 70, 100
3, 332400, Note_on_c, 4, 60, 0
3, 332400, Note_on_c, 4, 61, 0
3, 332400, Note_on_c, 0, 70, 0
3, 332640, Note_on_c, 4, 61, 100
3, 332880, Note_on_c, 4, 61, 0
3, 333120, Note_on_c, 4, 61, 100
3, 333120, Note_on_c, 0, 69, 100
3, 333360, Note_on_c, 4, 61, 0
3, 333360, Note_on_c, 0, 69, 0
3, 333600, Note_on_c, 4, 61, 100
3, 333840, Note_on_c, 4, 61, 0
3, 334080, Note_on_c, 4, 60, 100
3, 334080, Note_on_c, 4, 61, 100
3, 334080, Note_on_c, 0, 70, 100
3, 334320, Note_on_c, 4, 60, 0
3, 334320, Note_on_c, 4, 61, 0
3, 334320, Note_on_c, 0, 70, 0
3, 334560, Note_on_c, 4, 61, 100
3, 334800, Note_on_c, 4, 61, 0
3, 335040, Note_on_c, 4, 61, 100
3, 335040, Note_on_c, 0, 69, 100
3, 335280, Note_on_c, 4, 61, 0
3, 335280, Note_on_c, 0, 69, 0
3, 335520, Note_on_c, 4, 61, 100
3, 335760, Note_on_c, 4, 61, 0
3, 336000, Note_on_c, 4, 60, 100
3, 336000, Note_on_c, 4, 61, 100
3, 336000, Note_on_c, 0, 70, 100
3, 336240, Note_on_c, 4, 60, 0
3, 336240, Note_on_c, 4, 61, 0
3, 336480, Note_on_c, 4, 61, 100
3, 336720, Note_on_c, 4, 61, 0
3, 336960, Note_on_c, 4, 61, 100
3, 337200, Note_on_c, 4, 61, 0
3, 337440, Note_on_c, 4, 60, 100
3, 337440, Note_on_c, 4, 61, 100
3, 337680, Note_on_c, 0, 70, 0
3, 337680, Note_on_c, 4, 60, 0
3, 337680, Note_on_c, 4, 61, 0
3, 337920, Note_on_c, 4, 60, 100
3, 337920, Note_on_c, 4, 61, 100
3, 337920, Note_on_c, 0, 69, 100
3, 338160, Note_on_c, 4, 60, 0
3, 338160, Note_on_c, 4, 61, 0
3, 338160, Note_on_c, 0, 69, 0
3, 338400, Note_on_c, 4, 61, 100
3, 338640, Note_on_c, 4, 61, 0
3, 338880, Note_on_c, 4, 61, 100
3, 339120, Note_on_c, 4, 61, 0
3, 339360, Note_on_c, 4, 60, 100
3, 339360, Note_on_c, 4, 61, 100
3, 339600, Note_on_c, 4, 60, 0
3, 339600, Note_on_c, 4, 61, 0
3, 339840, Note_on_c, 4, 61, 100
3, 339840, Note_on_c, 0, 69, 100
3, 340080, Note_on_c, 4, 61, 0
3, 340080, Note_on_c, 0, 69, 0
3, 340320, Note_on_c, 4, 61, 100
3, 340560, Note_on_c, 4, 61, 0
3, 340800, Note_on_c, 4, 61, 100
3, 341040, Note_on_c, 4, 61, 0
3, 341280, Note_on_c, 4, 61, 100
3, 341280, Note_on_c, 4, 60, 100
3, 341520, Note_on_c, 4, 61, 0
3, 341520, Note_on_c, 4, 60, 0
3, 341760, Note_on_c, 4, 61, 100
3, 341760, Note_on_c, 0, 69, 100
3, 342000, Note_on_c, 4, 61, 0
3, 342000, Note_on_c, 0, 69, 0
3, 342240, Note_on_c, 4, 61, 100
3, 342480, Note_on_c, 4, 61, 0
3, 342720, Note_on_c, 4, 61, 100
3, 342960, Note_on_c, 4, 61, 0
3, 343200, Note_on_c, 4, 60, 100
3, 343200, Note_on_c, 4, 61, 100
3, 343440, Note_on_c, 4, 60, 0
3, 343440, Note_on_c, 4, 61, 0
3, 343680, Note_on_c, 4, 61, 100
3, 343680, Note_on_c, 0, 70, 100
3, 343920, Note_on_c, 4, 61, 0
3, 343920, Note_on_c, 0, 70, 0
3, 344160, Note_on_c, 4, 61, 100
3, 344400, Note_on_c, 4, 61, 0
3, 344640, Note_on_c, 4, 61, 100
3, 344640, Note_on_c, 0, 69, 100
3, 344880, Note_on_c, 4, 61, 0
3, 344880, Note_on_c, 0, 69, 0
3, 345120, Note_on_c, 4, 61, 100
3, 345120, Note_on_c, 4, 60, 100
3, 345360, Note_on_c, 4, 61, 0
3, 345360, Note_on_c, 4, 60, 0
3, 345600, Note_on_c, 4, 61, 100
3, 345600, Note_on_c, 0, 68, 100
3, 345840, Note_on_c, 4, 61, 0
3, 346080, Note_on_c, 4, 61, 100
3, 346320, Note_on_c, 4, 61, 0
3, 346560, Note_on_c, 4, 61, 100
3, 346800, Note_on_c, 0, 68, 0
3, 346800, Note_on_c, 4, 61, 0
3, 347040, Note_on_c, 4, 61, 100
3, 347040, Note_on_c, 0, 70, 100
3, 347280, Note_on_c, 4, 61, 0
3, 347280, Note_on_c, 0, 70, 0
3, 347520, Note_on_c, 4, 60, 100
3, 347520, Note_on_c, 4, 61, 100
3, 347760, Note_on_c, 4, 60, 0
3, 347760, Note_on_c, 4, 61, 0
3, 348000, Note_on_c, 4, 61, 100
3, 348240, Note_on_c, 4, 61, 0
3, 348480, Note_on_c, 4, 61, 100
3, 348720, Note_on_c, 4, 61, 0
3, 348960, Note_on_c, 4, 61, 100
3, 348960, Note_on_c, 0, 70, 100
3, 349200, Note_on_c, 4, 61, 0
3, 349200, Note_on_c, 0, 70, 0
3, 349440, Note_on_c, 4, 60, 100
3, 349680, Note_on_c, 4, 60, 0
3, 349920, Note_on_c, 4, 61, 100
3, 350160, Note_on_c, 4, 61, 0
3, 350400, Note_on_c, 4, 61, 100
3, 350640, Note_on_c, 4, 61, 0
3, 350880, Note_on_c, 4, 61, 100
3, 350880, Note_on_c, 0, 70, 100
3, 351120, Note_on_c, 4, 61, 0
3, 351120, Note_on_c, 0, 70, 0
3, 351360, Note_on_c, 4, 60, 100
3, 351360, Note_on_c, 4, 61, 100
3, 351360, Note_on_c, 0, 70, 100
3, 351600, Note_on_c, 4, 60, 0
3, 351600, Note_on_c, 4, 61, 0
3, 351840, Note_on_c, 4, 61, 100
3, 352080, Note_on_c, 4, 61, 0
3, 352320, Note_on_c, 4, 61, 100
3, 352560, Note_on_c, 4, 61, 0
3, 352800, Note_on_c, 4, 61, 100
3, 353040, Note_on_c, 0, 70, 0
3, 353040, Note_on_c, 4, 61, 0
3, 353280, Note_on_c, 4, 60, 100
3, 353280, Note_on_c, 4, 61, 100
3, 353280, Note_on_c, 0, 69, 100
3, 353520, Note_on_c, 4, 60, 0
3, 353520, Note_on_c, 4, 61, 0
3, 353520, Note_on_c, 0, 69, 0
3, 353760, Note_on_c, 4, 61, 100
3, 354000, Note_on_c, 4, 61, 0
3, 354240, Note_on_c, 4, 61, 100
3, 354480, Note_on_c, 4, 61, 0
3, 354720, Note_on_c, 4, 61, 100
3, 354720, Note_on_c, 0, 68, 100
3, 354960, Note_on_c, 4, 61, 0
3, 354960, Note_on_c, 0, 68, 0
3, 355200, Note_on_c, 4, 60, 100
3, 355200, Note_on_c, 4, 61, 100
3, 355440, Note_on_c, 4, 60, 0
3, 355440, Note_on_c, 4, 61, 0
3, 355680, Note_on_c, 4, 61, 100
3, 355920, Note_on_c, 4, 61, 0
3, 356160, Note_on_c, 4, 61, 100
3, 356400, Note_on_c, 4, 61, 0
3, 356640, Note_on_c, 4, 61, 100
3, 356880, Note_on_c, 4, 61, 0
3, 357120, Note_on_c, 4, 60, 100
3, 357120, Note_on_c, 4, 61, 100
3, 357120, Note_on_c, 0, 69, 100
3, 357360, Note_on_c, 4, 60, 0
3, 357360, Note_on_c, 4, 61, 0
3, 357360, Note_on_c, 0, 69, 0
3, 357600, Note_on_c, 4, 61, 100
3, 357840, Note_on_c, 4, 61, 0
3, 358080, Note_on_c, 4, 61, 100
3, 358320, Note_on_c, 4, 61, 0
3, 358560, Note_on_c, 4, 61, 100
3, 358560, Note_on_c, 0, 68, 100
3, 358800, Note_on_c, 4, 61, 0
3, 358800, Note_on_c, 0, 68, 0
3, 359040, Note_on_c, 4, 60, 100
3, 359040, Note_on_c, 4, 61, 100
3, 359280, Note_on_c, 4, 60, 0
3, 359280, Note_on_c, 4, 61, 0
3, 359520, Note_on_c, 4, 61, 100
3, 359520, Note_on_c, 0, 70, 100
3, 359760, Note_on_c, 4, 61, 0
3, 359760, Note_on_c, 0, 70, 0
3, 360000, Note_on_c, 4, 61, 100
3, 360240, Note_on_c, 4, 61, 0
3, 360480, Note_on_c, 4, 61, 100
3, 360720, Note_on_c, 4, 61, 0
3, 360960, Note_on_c, 4, 60, 100
3, 360960, Note_on_c, 4, 61, 100
3, 360960, Note_on_c, 0, 69, 100
3, 361200, Note_on_c, 4, 60, 0
3, 361200, Note_on_c, 4, 61, 0
3, 361200, Note_on_c, 0, 69, 0
3, 361440, Note_on_c, 4, 61, 100
3, 361680, Note_on_c, 4, 61, 0
3, 361920, Note_on_c, 4, 61, 100
3, 362160, Note_on_c, 4, 61, 0
3, 362400, Note_on_c, 4, 61, 100
3, 362400, Note_on_c, 0, 68, 100
3, 362640, Note_on_c, 4, 61, 0
3, 362640, Note_on_c, 0, 68, 0
3, 362880, Note_on_c, 4, 60, 100
3, 362880, Note_on_c, 4, 61, 100
3, 363120, Note_on_c, 4, 60, 0
3, 363120, Note_on_c, 4, 61, 0
3, 363360, Note_on_c, 4, 61, 100
3, 363600, Note_on_c, 4, 61, 0
3, 363840, Note_on_c, 4, 61, 100
3, 364080, Note_on_c, 4, 61, 0
3, 364320, Note_on_c, 4, 61, 100
3, 364560, Note_on_c, 4, 61, 0
3, 364800, Note_on_c, 4, 60, 100
3, 364800, Note_on_c, 4, 61, 100
3, 365040, Note_on_c, 4, 60, 0
3, 365040, Note_on_c, 4, 61, 0
3, 365280, Note_on_c, 4, 61, 100
3, 365520, Note_on_c, 4, 61, 0
3, 365760, Note_on_c, 4, 61, 100
3, 366000, Note_on_c, 4, 61, 0
3, 366240, Note_on_c, 4, 61, 100
3, 366480, Note_on_c, 4, 61, 0
3, 366720, Note_on_c, 4, 60, 100
3, 366720, Note_on_c, 4, 61, 100
3, 366960, Note_on_c, 4, 60, 0
3, 366960, Note_on_c, 4, 61, 0
3, 367200, Note_on_c, 4, 60, 100
3, 367200, Note_on_c, 4, 61, 100
3, 367440, Note_on_c, 4, 60, 0
3, 367440, Note_on_c, 4, 61, 0
3, 367680, Note_on_c, 4, 61, 100
3, 367920, Note_on_c, 4, 61, 0
3, 368160, Note_on_c, 4, 61, 100
3, 368400, Note_on_c, 4, 61, 0
3, 368640, Note_on_c, 4, 60, 100
3, 368640, Note_on_c, 4, 61, 100
3, 368640, Note_on_c, 0, 69, 100
3, 368880, Note_on_c, 4, 60, 0
3, 368880, Note_on_c, 4, 61, 0
3, 368880, Note_on_c, 0, 69, 0
3, 369120, Note_on_c, 4, 61, 100
3, 369360, Note_on_c, 4, 61, 0
3, 369600, Note_on_c, 4, 61, 100
3, 369840, Note_on_c, 4, 61, 0
3, 370080, Note_on_c, 4, 61, 100
3, 370080, Note_on_c, 0, 68, 100
3, 370320, Note_on_c, 4, 61, 0
3, 370320, Note_on_c, 0, 68, 0
3, 370560, Note_on_c, 4, 60, 100
3, 370560, Note_on_c, 4, 61, 100
3, 370800, Note_on_c, 4, 60, 0
3, 370800, Note_on_c, 4, 61, 0
3, 371040, Note_on_c, 4, 61, 100
3, 371280, Note_on_c, 4, 61, 0
3, 371520, Note_on_c, 4, 61, 100
3, 371760, Note_on_c, 4, 61, 0
3, 372000, Note_on_c, 4, 61, 100
3, 372240, Note_on_c, 4, 61, 0
3, 372480, Note_on_c, 4, 60, 100
3, 372480, Note_on_c, 4, 61, 100
3, 372480, Note_on_c, 0, 69, 100
3, 372720, Note_on_c, 4, 60, 0
3, 372720, Note_on_c, 4, 61, 0
3, 372720, Note_on_c, 0, 69, 0
3, 372960, Note_on_c, 4, 61, 100
3, 373200, Note_on_c, 4, 61, 0
3, 373440, Note_on_c, 4, 61, 100
3, 373680, Note_on_c, 4, 61, 0
3, 373920, Note_on_c, 4, 61, 100
3, 373920, Note_on_c, 0, 68, 100
3, 374160, Note_on_c, 4, 61, 0
3, 374160, Note_on_c, 0, 68, 0
3, 374400, Note_on_c, 4, 60, 100
3, 374400, Note_on_c, 4, 61, 100
3, 374640, Note_on_c, 4, 60, 0
3, 374640, Note_on_c, 4, 61, 0
3, 374880, Note_on_c, 4, 61, 100
3, 374880, Note_on_c, 0, 70, 100
3, 375120, Note_on_c, 4, 61, 0
3, 375120, Note_on_c, 0, 70, 0
3, 375360, Note_on_c, 4, 61, 100
3, 375600, Note_on_c, 4, 61, 0
3, 375840, Note_on_c, 4, 61, 100
3, 376080, Note_on_c, 4, 61, 0
3, 376320, Note_on_c, 4, 60, 100
3, 376320, Note_on_c, 4, 61, 100
3, 376320, Note_on_c, 0, 69, 100
3, 376560, Note_on_c, 4, 60, 0
3, 376560, Note_on_c, 4, 61, 0
3, 376560, Note_on_c, 0, 69, 0
3, 376800, Note_on_c, 4, 61, 100
3, 377040, Note_on_c, 4, 61, 0
3, 377280, Note_on_c, 4, 61, 100
3, 377520, Note_on_c, 4, 61, 0
3, 377760, Note_on_c, 4, 61, 100
3, 377760, Note_on_c, 0, 68, 100
3, 378000, Note_on_c, 4, 61, 0
3, 378000, Note_on_c, 0, 68, 0
3, 378240, Note_on_c, 4, 60, 100
3, 378240, Note_on_c, 4, 61, 100
3, 378480, Note_on_c, 4, 60, 0
3, 378480, Note_on_c, 4, 61, 0
3, 378720, Note_on_c, 4, 61, 100
3, 378960, Note_on_c, 4, 61, 0
3, 379200, Note_on_c, 4, 61, 100
3, 379440, Note_on_c, 4, 61, 0
3, 379680, Note_on_c, 4, 61, 100
3, 379920, Note_on_c, 4, 61, 0
3, 380160, Note_on_c, 4, 60, 100
3, 380160, Note_on_c, 4, 61, 100
3, 380400, Note_on_c, 4, 60, 0
3, 380400, Note_on_c, 4, 61, 0
3, 380640, Note_on_c, 4, 61, 100
3, 380880, Note_on_c, 4, 61, 0
3, 381120, Note_on_c, 4, 61, 100
3, 381360, Note_on_c, 4, 61, 0
3, 381600, Note_on_c, 4, 61, 100
3, 381840, Note_on_c, 4, 61, 0
3, 382080, Note_on_c, 4, 60, 100
3, 382080, Note_on_c, 4, 61, 100
3, 382320, Note_on_c, 4, 60, 0
3, 382320, Note_on_c, 4, 61, 0
3, 382560, Note_on_c, 4, 60, 100
3, 382560, Note_on_c, 4, 61, 100
3, 382800, Note_on_c, 4, 60, 0
3, 382800, Note_on_c, 4, 61, 0
3, 383040, Note_on_c, 4, 61, 100
3, 383280, Note_on_c, 4, 61, 0
3, 383520, Note_on_c, 4, 61, 100
3, 383760, Note_on_c, 4, 61, 0
3, 384000, Note_on_c, 4, 60, 100
3, 384000, Note_on_c, 4, 61, 100
3, 384000, Note_on_c, 0, 69, 100
3, 384240, Note_on_c, 4, 60, 0
3, 384240, Note_on_c, 4, 61, 0
3, 384240, Note_on_c, 0, 69, 0
3, 384480, Note_on_c, 4, 61, 100
3, 384720, Note_on_c, 4, 61, 0
3, 384960, Note_on_c, 4, 61, 100
3, 385200, Note_on_c, 4, 61, 0
3, 385440, Note_on_c, 4, 61, 100
3, 385440, Note_on_c, 0, 68, 100
3, 385680, Note_on_c, 4, 61, 0
3, 385680, Note_on_c, 0, 68, 0
3, 385920, Note_on_c, 4, 60, 100
3, 385920, Note_on_c, 4, 61, 100
3, 386160, Note_on_c, 4, 60, 0
3, 386160, Note_on_c, 4, 61, 0
3, 386400, Note_on_c, 4, 61, 100
3, 386640, Note_on_c, 4, 61, 0
3, 386880, Note_on_c, 4, 61, 100
3, 387120, Note_on_c, 4, 61, 0
3, 387360, Note_on_c, 4, 61, 100
3, 387600, Note_on_c, 4, 61, 0
3, 387840, Note_on_c, 4, 60, 100
3, 387840, Note_on_c, 4, 61, 100
3, 387840, Note_on_c, 0, 69, 100
3, 388080, Note_on_c, 4, 60, 0
3, 388080, Note_on_c, 4, 61, 0
3, 388080, Note_on_c, 0, 69, 0
3, 388320, Note_on_c, 4, 61, 100
3, 388560, Note_on_c, 4, 61, 0
3, 388800, Note_on_c, 4, 61, 100
3, 389040, Note_on_c, 4, 61, 0
3, 389280, Note_on_c, 4, 61, 100
3, 389280, Note_on_c, 0, 68, 100
3, 389520, Note_on_c, 4, 61, 0
3, 389520, Note_on_c, 0, 68, 0
3, 389760, Note_on_c, 4, 60, 100
3, 389760, Note_on_c, 4, 61, 100
3, 390000, Note_on_c, 4, 60, 0
3, 390000, Note_on_c, 4, 61, 0
3, 390240, Note_on_c, 4, 61, 100
3, 390240, Note_on_c, 0, 70, 100
3, 390480, Note_on_c, 4, 61, 0
3, 390480, Note_on_c, 0, 70, 0
3, 390720, Note_on_c, 4, 61, 100
3, 390960, Note_on_c, 4, 61, 0
3, 391200, Note_on_c, 4, 61, 100
3, 391440, Note_on_c, 4, 61, 0
3, 391680, Note_on_c, 4, 60, 100
3, 391680, Note_on_c, 4, 61, 100
3, 391680, Note_on_c, 0, 69, 100
3, 391920, Note_on_c, 4, 60, 0
3, 391920, Note_on_c, 4, 61, 0
3, 391920, Note_on_c, 0, 69, 0
3, 392160, Note_on_c, 4, 61, 100
3, 392400, Note_on_c, 4, 61, 0
3, 392640, Note_on_c, 4, 61, 100
3, 392880, Note_on_c, 4, 61, 0
3, 393120, Note_on_c, 4, 61, 100
3, 393120, Note_on_c, 0, 68, 100
3, 393360, Note_on_c, 4, 61, 0
3, 393360, Note_on_c, 0, 68, 0
3, 393600, Note_on_c, 4, 60, 100
3, 393600, Note_on_c, 4, 61, 100
3, 393840, Note_on_c, 4, 60, 0
3, 393840, Note_on_c, 4, 61, 0
3, 394080, Note_on_c, 4, 61, 100
3, 394320, Note_on_c, 4, 61, 0
3, 394560, Note_on_c, 4, 61, 100
3, 394800, Note_on_c, 4, 61, 0
3, 395040, Note_on_c, 4, 61, 100
3, 395280, Note_on_c, 4, 61, 0
3, 395520, Note_on_c, 4, 60, 100
3, 395520, Note_on_c, 4, 61, 100
3, 395760, Note_on_c, 4, 60, 0
3, 395760, Note_on_c, 4, 61, 0
3, 396000, Note_on_c, 4, 61, 100
3, 396240, Note_on_c, 4, 61, 0
3, 396480, Note_on_c, 4, 61, 100
3, 396720, Note_on_c, 4, 61, 0
3, 396960, Note_on_c, 4, 61, 100
3, 397200, Note_on_c, 4, 61, 0
3, 397440, Note_on_c, 4, 60, 100
3, 397440, Note_on_c, 4, 61, 100
3, 397680, Note_on_c, 4, 60, 0
3, 397680, Note_on_c, 4, 61, 0
3, 397920, Note_on_c, 4, 60, 100
3, 397920, Note_on_c, 4, 61, 100
3, 398160, Note_on_c, 4, 60, 0
3, 398160, Note_on_c, 4, 61, 0
3, 398400, Note_on_c, 4, 61, 100
3, 398640, Note_on_c, 4, 61, 0
3, 398880, Note_on_c, 4, 61, 100
3, 399120, Note_on_c, 4, 61, 0
3, 399360, Note_on_c, 4, 60, 100
3, 399360, Note_on_c, 4, 61, 100
3, 399360, Note_on_c, 0, 69, 100
3, 399600, Note_on_c, 4, 60, 0
3, 399600, Note_on_c, 4, 61, 0
3, 399600, Note_on_c, 0, 69, 0
3, 399840, Note_on_c, 4, 61, 100
3, 400080, Note_on_c, 4, 61, 0
3, 400320, Note_on_c, 4, 61, 100
3, 400560, Note_on_c, 4, 61, 0
3, 400800, Note_on_c, 4, 61, 100
3, 400800, Note_on_c, 0, 68, 100
3, 401040, Note_on_c, 4, 61, 0
3, 401040, Note_on_c, 0, 68, 0
3, 401280, Note_on_c, 4, 60, 100
3, 401280, Note_on_c, 4, 61, 100
3, 401520, Note_on_c, 4, 60, 0
3, 401520, Note_on_c, 4, 61, 0
3, 401760, Note_on_c, 4, 61, 100
3, 402000, Note_on_c, 4, 61, 0
3, 402240, Note_on_c, 4, 61, 100
3, 402480, Note_on_c, 4, 61, 0
3, 402720, Note_on_c, 4, 61, 100
3, 402960, Note_on_c, 4, 61, 0
3, 403200, Note_on_c, 4, 60, 100
3, 403200, Note_on_c, 4, 61, 100
3, 403200, Note_on_c, 0, 69, 100
3, 403440, Note_on_c, 4, 60, 0
3, 403440, Note_on_c, 4, 61, 0
3, 403440, Note_on_c, 0, 69, 0
3, 403680, Note_on_c, 4, 61, 100
3, 403920, Note_on_c, 4, 61, 0
3, 404160, Note_on_c, 4, 61, 100
3, 404400, Note_on_c, 4, 61, 0
3, 404640, Note_on_c, 4, 61, 100
3, 404640, Note_on_c, 0, 68, 100
3, 404880, Note_on_c, 4, 61, 0
3, 404880, Note_on_c, 0, 68, 0
3, 405120, Note_on_c, 4, 60, 100
3, 405120, Note_on_c, 4, 61, 100
3, 405360, Note_on_c, 4, 60, 0
3, 405360, Note_on_c, 4, 61, 0
3, 405600, Note_on_c, 4, 61, 100
3, 405600, Note_on_c, 0, 70, 100
3, 405840, Note_on_c, 4, 61, 0
3, 405840, Note_on_c, 0, 70, 0
3, 406080, Note_on_c, 4, 61, 100
3, 406320, Note_on_c, 4, 61, 0
3, 406560, Note_on_c, 4, 61, 100
3, 406800, Note_on_c, 4, 61, 0
3, 407040, Note_on_c, 4, 60, 100
3, 407040, Note_on_c, 4, 61, 100
3, 407040, Note_on_c, 0, 69, 100
3, 407280, Note_on_c, 4, 60, 0
3, 407280, Note_on_c, 4, 61, 0
3, 407280, Note_on_c, 0, 69, 0
3, 407520, Note_on_c, 4, 61, 100
3, 407760, Note_on_c, 4, 61, 0
3, 408000, Note_on_c, 4, 61, 100
3, 408240, Note_on_c, 4, 61, 0
3, 408480, Note_on_c, 4, 61, 100
3, 408480, Note_on_c, 0, 68, 100
3, 408720, Note_on_c, 4, 61, 0
3, 408720, Note_on_c, 0, 68, 0
3, 408960, Note_on_c, 4, 60, 100
3, 408960, Note_on_c, 4, 61, 100
3, 409200, Note_on_c, 4, 60, 0
3, 409200, Note_on_c, 4, 61, 0
3, 409440, Note_on_c, 4, 61, 100
3, 409680, Note_on_c, 4, 61, 0
3, 409920, Note_on_c, 4, 61, 100
3, 410160, Note_on_c, 4, 61, 0
3, 410400, Note_on_c, 4, 61, 100
3, 410640, Note_on_c, 4, 61, 0
3, 410880, Note_on_c, 4, 60, 100
3, 410880, Note_on_c, 4, 61, 100
3, 411120, Note_on_c, 4, 60, 0
3, 411120, Note_on_c, 4, 61, 0
3, 411360, Note_on_c, 4, 61, 100
3, 411600, Note_on_c, 4, 61, 0
3, 411840, Note_on_c, 4, 61, 100
3, 412080, Note_on_c, 4, 61, 0
3, 412320, Note_on_c, 4, 61, 100
3, 412560, Note_on_c, 4, 61, 0
3, 412800, Note_on_c, 4, 60, 100
3, 412800, Note_on_c, 4, 61, 100
3, 413040, Note_on_c, 4, 60, 0
3, 413040, Note_on_c, 4, 61, 0
3, 413280, Note_on_c, 4, 60, 100
3, 413280, Note_on_c, 4, 61, 100
3, 413280, Note_on_c, 0, 68, 100
3, 413520, Note_on_c, 4, 60, 0
3, 413520, Note_on_c, 4, 61, 0
3, 413520, Note_on_c, 0, 68, 0
3, 413760, Note_on_c, 4, 61, 100
3, 414000, Note_on_c, 4, 61, 0
3, 414240, Note_on_c, 4, 60, 100
3, 414240, Note_on_c, 4, 61, 100
3, 414240, Note_on_c, 0, 70, 100
3, 414480, Note_on_c, 4, 60, 0
3, 414480, Note_on_c, 4, 61, 0
3, 414480, Note_on_c, 0, 70, 0
3, 415200, Note_on_c, 4, 60, 100
3, 415200, Note_on_c, 4, 61, 100
3, 415440, Note_on_c, 4, 60, 0
3, 415440, Note_on_c, 4, 61, 0
3, 415680, Note_on_c, 4, 61, 100
3, 415920, Note_on_c, 4, 61, 0
3, 416160, Note_on_c, 4, 61, 100
3, 416160, Note_on_c, 0, 69, 100
3, 416400, Note_on_c, 4, 61, 0
3, 416400, Note_on_c, 0, 69, 0
3, 416640, Note_on_c, 4, 60, 100
3, 416640, Note_on_c, 4, 61, 100
3, 416880, Note_on_c, 4, 60, 0
3, 416880, Note_on_c, 4, 61, 0
3, 417120, Note_on_c, 4, 61, 100
3, 417360, Note_on_c, 4, 61, 0
3, 417600, Note_on_c, 4, 61, 100
3, 417840, Note_on_c, 4, 61, 0
3, 418080, Note_on_c, 4, 61, 100
3, 418080, Note_on_c, 0, 70, 100
3, 418320, Note_on_c, 4, 61, 0
3, 418320, Note_on_c, 0, 70, 0
3, 418560, Note_on_c, 4, 60, 100
3, 418560, Note_on_c, 4, 61, 100
3, 418800, Note_on_c, 4, 60, 0
3, 418800, Note_on_c, 4, 61, 0
3, 419040, Note_on_c, 4, 61, 100
3, 419280, Note_on_c, 4, 61, 0
3, 419520, Note_on_c, 4, 61, 100
3, 419760, Note_on_c, 4, 61, 0
3, 420000, Note_on_c, 4, 61, 100
3, 420000, Note_on_c, 0, 69, 100
3, 420240, Note_on_c, 4, 61, 0
3, 420240, Note_on_c, 0, 69, 0
3, 420480, Note_on_c, 4, 60, 100
3, 420480, Note_on_c, 4, 61, 100
3, 420720, Note_on_c, 4, 60, 0
3, 420720, Note_on_c, 4, 61, 0
3, 420960, Note_on_c, 4, 60, 100
3, 420960, Note_on_c, 4, 61, 100
3, 421200, Note_on_c, 4, 60, 0
3, 421200, Note_on_c, 4, 61, 0
3, 421440, Note_on_c, 4, 61, 100
3, 421680, Note_on_c, 4, 61, 0
3, 421920, Note_on_c, 4, 60, 100
3, 421920, Note_on_c, 4, 61, 100
3, 421920, Note_on_c, 0, 70, 100
3, 422160, Note_on_c, 4, 60, 0
3, 422160, Note_on_c, 4, 61, 0
3, 422160, Note_on_c, 0, 70, 0
3, 422880, Note_on_c, 4, 60, 100
3, 422880, Note_on_c, 4, 61, 100
3, 423120, Note_on_c, 4, 60, 0
3, 423120, Note_on_c, 4, 61, 0
3, 423360, Note_on_c, 4, 61, 100
3, 423600, Note_on_c, 4, 61, 0
3, 423840, Note_on_c, 4, 61, 100
3, 423840, Note_on_c, 0, 69, 100
3, 424080, Note_on_c, 4, 61, 0
3, 424080, Note_on_c, 0, 69, 0
3, 424320, Note_on_c, 4, 60, 100
3, 424320, Note_on_c, 4, 61, 100
3, 424560, Note_on_c, 4, 60, 0
3, 424560, Note_on_c, 4, 61, 0
3, 424800, Note_on_c, 4, 61, 100
3, 425040, Note_on_c, 4, 61, 0
3, 425280, Note_on_c, 4, 61, 100
3, 425520, Note_on_c, 4, 61, 0
3, 425760, Note_on_c, 4, 61, 100
3, 425760, Note_on_c, 0, 70, 100
3, 426000, Note_on_c, 4, 61, 0
3, 426000, Note_on_c, 0, 70, 0
3, 426240, Note_on_c, 4, 60, 100
3, 426240, Note_on_c, 4, 61, 100
3, 426480, Note_on_c, 4, 60, 0
3, 426480, Note_on_c, 4, 61, 0
3, 426720, Note_on_c, 4, 61, 100
3, 426960, Note_on_c, 4, 61, 0
3, 427200, Note_on_c, 4, 61, 100
3, 427440, Note_on_c, 4, 61, 0
3, 427680, Note_on_c, 4, 61, 100
3, 427680, Note_on_c, 0, 69, 100
3, 427920, Note_on_c, 4, 61, 0
3, 427920, Note_on_c, 0, 69, 0
3, 428160, Note_on_c, 4, 60, 100
3, 428160, Note_on_c, 4, 61, 100
3, 428400, Note_on_c, 4, 60, 0
3, 428400, Note_on_c, 4, 61, 0
3, 428640, Note_on_c, 4, 60, 100
3, 428640, Note_on_c, 4, 61, 100
3, 428880, Note_on_c, 4, 60, 0
3, 428880, Note_on_c, 4, 61, 0
3, 429120, Note_on_c, 4, 61, 100
3, 429360, Note_on_c, 4, 61, 0
3, 429600, Note_on_c, 4, 60, 100
3, 429600, Note_on_c, 4, 61, 100
3, 429600, Note_on_c, 0, 70, 100
3, 429840, Note_on_c, 4, 60, 0
3, 429840, Note_on_c, 4, 61, 0
3, 429840, Note_on_c, 0, 70, 0
3, 430560, Note_on_c, 4, 60, 100
3, 430560, Note_on_c, 4, 61, 100
3, 430800, Note_on_c, 4, 60, 0
3, 430800, Note_on_c, 4, 61, 0
3, 431040, Note_on_c, 4, 61, 100
3, 431280, Note_on_c, 4, 61, 0
3, 431520, Note_on_c, 4, 61, 100
3, 431520, Note_on_c, 0, 69, 100
3, 431760, Note_on_c, 4, 61, 0
3, 431760, Note_on_c, 0, 69, 0
3, 432000, Note_on_c, 4, 60, 100
3, 432000, Note_on_c, 4, 61, 100
3, 432240, Note_on_c, 4, 60, 0
3, 432240, Note_on_c, 4, 61, 0
3, 432480, Note_on_c, 4, 61, 100
3, 432720, Note_on_c, 4, 61, 0
3, 432960, Note_on_c, 4, 61, 100
3, 433200, Note_on_c, 4, 61, 0
3, 433440, Note_on_c, 4, 61, 100
3, 433440, Note_on_c, 0, 70, 100
3, 433680, Note_on_c, 4, 61, 0
3, 433680, Note_on_c, 0, 70, 0
3, 433920, Note_on_c, 4, 60, 100
3, 433920, Note_on_c, 4, 61, 100
3, 434160, Note_on_c, 4, 60, 0
3, 434160, Note_on_c, 4, 61, 0
3, 434400, Note_on_c, 4, 61, 100
3, 434640, Note_on_c, 4, 61, 0
3, 434880, Note_on_c, 4, 61, 100
3, 435120, Note_on_c, 4, 61, 0
3, 435360, Note_on_c, 4, 61, 100
3, 435360, Note_on_c, 0, 69, 100
3, 435600, Note_on_c, 4, 61, 0
3, 435600, Note_on_c, 0, 69, 0
3, 435840, Note_on_c, 4, 60, 100
3, 435840, Note_on_c, 4, 61, 100
3, 436080, Note_on_c, 4, 60, 0
3, 436080, Note_on_c, 4, 61, 0
3, 436320, Note_on_c, 4, 60, 100
3, 436320, Note_on_c, 4, 61, 100
3, 436560, Note_on_c, 4, 60, 0
3, 436560, Note_on_c, 4, 61, 0
3, 436800, Note_on_c, 4, 61, 100
3, 437040, Note_on_c, 4, 61, 0
3, 437280, Note_on_c, 4, 60, 100
3, 437280, Note_on_c, 4, 61, 100
3, 437280, Note_on_c, 0, 70, 100
3, 437520, Note_on_c, 4, 60, 0
3, 437520, Note_on_c, 4, 61, 0
3, 437520, Note_on_c, 0, 70, 0
3, 438240, Note_on_c, 4, 60, 100
3, 438240, Note_on_c, 4, 61, 100
3, 438480, Note_on_c, 4, 60, 0
3, 438480, Note_on_c, 4, 61, 0
3, 438720, Note_on_c, 4, 61, 100
3, 438960, Note_on_c, 4, 61, 0
3, 439200, Note_on_c, 4, 61, 100
3, 439200, Note_on_c, 0, 69, 100
3, 439440, Note_on_c, 4, 61, 0
3, 439440, Note_on_c, 0, 69, 0
3, 439680, Note_on_c, 4, 60, 100
3, 439680, Note_on_c, 4, 61, 100
3, 439920, Note_on_c, 4, 60, 0
3, 439920, Note_on_c, 4, 61, 0
3, 440160, Note_on_c, 4, 60, 100
3, 440160, Note_on_c, 4, 61, 100
3, 440400, Note_on_c, 4, 60, 0
3, 440400, Note_on_c, 4, 61, 0
3, 440640, Note_on_c, 4, 61, 100
3, 440880, Note_on_c, 4, 61, 0
3, 441120, Note_on_c, 4, 60, 100
3, 441120, Note_on_c, 4, 61, 100
3, 441120, Note_on_c, 0, 70, 100
3, 441360, Note_on_c, 4, 60, 0
3, 441360, Note_on_c, 4, 61, 0
3, 442080, Note_on_c, 4, 61, 100
3, 442320, Note_on_c, 0, 70, 0
3, 442320, Note_on_c, 4, 61, 0
3, 442560, Note_on_c, 4, 61, 100
3, 442560, Note_on_c, 0, 70, 100
3, 442800, Note_on_c, 4, 61, 0
3, 442800, Note_on_c, 0, 70, 0
3, 443040, Note_on_c, 4, 61, 100
3, 443280, Note_on_c, 4, 61, 0
3, 443520, Note_on_c, 4, 61, 100
3, 443520, Note_on_c, 0, 70, 100
3, 443760, Note_on_c, 4, 61, 0
3, 443760, Note_on_c, 0, 70, 0
3, 444000, Note_on_c, 4, 61, 100
3, 444240, Note_on_c, 4, 61, 0
3, 444480, Note_on_c, 4, 61, 100
3, 444480, Note_on_c, 0, 70, 100
3, 444720, Note_on_c, 4, 61, 0
3, 444720, Note_on_c, 0, 70, 0
3, 444960, Note_on_c, 4, 60, 100
3, 444960, Note_on_c, 4, 61, 100
3, 444960, Note_on_c, 0, 68, 100
3, 445200, Note_on_c, 4, 60, 0
3, 445200, Note_on_c, 4, 61, 0
3, 445200, Note_on_c, 0, 68, 0
3, 445920, Note_on_c, 4, 60, 100
3, 445920, Note_on_c, 4, 61, 100
3, 446160, Note_on_c, 4, 60, 0
3, 446160, Note_on_c, 4, 61, 0
3, 446400, Note_on_c, 4, 61, 100
3, 446400, Note_on_c, 0, 70, 100
3, 446640, Note_on_c, 4, 61, 0
3, 446640, Note_on_c, 0, 70, 0
3, 446880, Note_on_c, 4, 61, 100
3, 447120, Note_on_c, 4, 61, 0
3, 447360, Note_on_c, 4, 60, 100
3, 447360, Note_on_c, 4, 61, 100
3, 447600, Note_on_c, 4, 60, 0
3, 447600, Note_on_c, 4, 61, 0
3, 447840, Note_on_c, 4, 61, 100
3, 448080, Note_on_c, 4, 61, 0
3, 448320, Note_on_c, 4, 61, 100
3, 448560, Note_on_c, 4, 61, 0
3, 448800, Note_on_c, 4, 61, 100
3, 449040, Note_on_c, 4, 61, 0
3, 449280, Note_on_c, 4, 60, 100
3, 449280, Note_on_c, 4, 61, 100
3, 449280, Note_on_c, 0, 69, 100
3, 449520, Note_on_c, 4, 60, 0
3, 449520, Note_on_c, 4, 61, 0
3, 449520, Note_on_c, 0, 69, 0
3, 449760, Note_on_c, 4, 61, 100
3, 450000, Note_on_c, 4, 61, 0
3, 450240, Note_on_c, 4, 61, 100
3, 450480, Note_on_c, 4, 61, 0
3, 450720, Note_on_c, 4, 61, 100
3, 450720, Note_on_c, 0, 68, 100
3, 450960, Note_on_c, 4, 61, 0
3, 450960, Note_on_c, 0, 68, 0
3, 451200, Note_on_c, 4, 60, 100
3, 451200, Note_on_c, 4, 61, 100
3, 451440, Note_on_c, 4, 60, 0
3, 451440, Note_on_c, 4, 61, 0
3, 451680, Note_on_c, 4, 60, 100
3, 451680, Note_on_c, 4, 61, 100
3, 451920, Note_on_c, 4, 60, 0
3, 451920, Note_on_c, 4, 61, 0
3, 452160, Note_on_c, 4, 61, 100
3, 452160, Note_on_c, 0, 68, 100
3, 452400, Note_on_c, 4, 61, 0
3, 452400, Note_on_c, 0, 68, 0
3, 452640, Note_on_c, 4, 61, 100
3, 452880, Note_on_c, 4, 61, 0
3, 453120, Note_on_c, 4, 60, 100
3, 453120, Note_on_c, 4, 61, 100
3, 453120, Note_on_c, 0, 68, 100
3, 453360, Note_on_c, 4, 60, 0
3, 453360, Note_on_c, 4, 61, 0
3, 453360, Note_on_c, 0, 68, 0
3, 453600, Note_on_c, 4, 61, 100
3, 453840, Note_on_c, 4, 61, 0
3, 454080, Note_on_c, 4, 61, 100
3, 454080, Note_on_c, 0, 69, 100
3, 454320, Note_on_c, 4, 61, 0
3, 454320, Note_on_c, 0, 69, 0
3, 454560, Note_on_c, 4, 61, 100
3, 454800, Note_on_c, 4, 61, 0
3, 455040, Note_on_c, 4, 60, 100
3, 455040, Note_on_c, 4, 61, 100
3, 455280, Note_on_c, 4, 60, 0
3, 455280, Note_on_c, 4, 61, 0
3, 455520, Note_on_c, 4, 61, 100
3, 455760, Note_on_c, 4, 61, 0
3, 456000, Note_on_c, 4, 61, 100
3, 456240, Note_on_c, 4, 61, 0
3, 456480, Note_on_c, 4, 61, 100
3, 456720, Note_on_c, 4, 61, 0
3, 456960, Note_on_c, 4, 60, 100
3, 456960, Note_on_c, 4, 61, 100
3, 456960, Note_on_c, 0, 70, 100
3, 457200, Note_on_c, 4, 60, 0
3, 457200, Note_on_c, 4, 61, 0
3, 457200, Note_on_c, 0, 70, 0
3, 457440, Note_on_c, 4, 61, 100
3, 457680, Note_on_c, 4, 61, 0
3, 457920, Note_on_c, 4, 60, 100
3, 457920, Note_on_c, 4, 61, 100
3, 458160, Note_on_c, 4, 60, 0
3, 458160, Note_on_c, 4, 61, 0
3, 458160, Note_on_c, 4, 60, 100
3, 458400, Note_on_c, 4, 60, 0
3, 458400, Note_on_c, 4, 61, 100
3, 458400, Note_on_c, 0, 70, 100
3, 458640, Note_on_c, 4, 61, 0
3, 458640, Note_on_c, 0, 70, 0
3, 458880, Note_on_c, 4, 60, 100
3, 458880, Note_on_c, 4, 61, 100
3, 459120, Note_on_c, 4, 60, 0
3, 459120, Note_on_c, 4, 61, 0
3, 459360, Note_on_c, 4, 60, 100
3, 459360, Note_on_c, 4, 61, 100
3, 459600, Note_on_c, 4, 60, 0
3, 459600, Note_on_c, 4, 61, 0
3, 459840, Note_on_c, 4, 61, 100
3, 459840, Note_on_c, 0, 69, 100
3, 460080, Note_on_c, 4, 61, 0
3, 460080, Note_on_c, 0, 69, 0
3, 460800, Note_on_c, 4, 60, 100
3, 460800, Note_on_c, 4, 61, 100
3, 460800, Note_on_c, 0, 68, 100
3, 461040, Note_on_c, 4, 60, 0
3, 461040, Note_on_c, 4, 61, 0
3, 461040, Note_on_c, 0, 68, 0
3, 461280, Note_on_c, 4, 61, 100
3, 461520, Note_on_c, 4, 61, 0
3, 461760, Note_on_c, 4, 61, 100
3, 461760, Note_on_c, 0, 70, 100
3, 462000, Note_on_c, 4, 61, 0
3, 462000, Note_on_c, 0, 70, 0
3, 462240, Note_on_c, 4, 61, 100
3, 462480, Note_on_c, 4, 61, 0
3, 462720, Note_on_c, 4, 60, 100
3, 462720, Note_on_c, 4, 61, 100
3, 462960, Note_on_c, 4, 60, 0
3, 462960, Note_on_c, 4, 61, 0
3, 463200, Note_on_c, 4, 61, 100
3, 463440, Note_on_c, 4, 61, 0
3, 463680, Note_on_c, 4, 61, 100
3, 463920, Note_on_c, 4, 61, 0
3, 464160, Note_on_c, 4, 61, 100
3, 464400, Note_on_c, 4, 61, 0
3, 464640, Note_on_c, 4, 60, 100
3, 464640, Note_on_c, 4, 61, 100
3, 464640, Note_on_c, 0, 69, 100
3, 464880, Note_on_c, 4, 60, 0
3, 464880, Note_on_c, 4, 61, 0
3, 464880, Note_on_c, 0, 69, 0
3, 465120, Note_on_c, 4, 61, 100
3, 465360, Note_on_c, 4, 61, 0
3, 465600, Note_on_c, 4, 61, 100
3, 465840, Note_on_c, 4, 61, 0
3, 466080, Note_on_c, 4, 61, 100
3, 466080, Note_on_c, 0, 68, 100
3, 466320, Note_on_c, 4, 61, 0
3, 466320, Note_on_c, 0, 68, 0
3, 466560, Note_on_c, 4, 60, 100
3, 466560, Note_on_c, 4, 61, 100
3, 466800, Note_on_c, 4, 60, 0
3, 466800, Note_on_c, 4, 61, 0
3, 467040, Note_on_c, 4, 61, 100
3, 467280, Note_on_c, 4, 61, 0
3, 467520, Note_on_c, 4, 61, 100
3, 467520, Note_on_c, 0, 68, 100
3, 467760, Note_on_c, 4, 61, 0
3, 467760, Note_on_c, 0, 68, 0
3, 468000, Note_on_c, 4, 61, 100
3, 468240, Note_on_c, 4, 61, 0
3, 468480, Note_on_c, 4, 60, 100
3, 468480, Note_on_c, 4, 61, 100
3, 468480, Note_on_c, 0, 68, 100
3, 468720, Note_on_c, 4, 60, 0
3, 468720, Note_on_c, 4, 61, 0
3, 468720, Note_on_c, 0, 68, 0
3, 468960, Note_on_c, 4, 61, 100
3, 469200, Note_on_c, 4, 61, 0
3, 469440, Note_on_c, 4, 61, 100
3, 469440, Note_on_c, 0, 69, 100
3, 469680, Note_on_c, 4, 61, 0
3, 469680, Note_on_c, 0, 69, 0
3, 469920, Note_on_c, 4, 61, 100
3, 470160, Note_on_c, 4, 61, 0
3, 470400, Note_on_c, 4, 60, 100
3, 470400, Note_on_c, 4, 61, 100
3, 470640, Note_on_c, 4, 60, 0
3, 470640, Note_on_c, 4, 61, 0
3, 470880, Note_on_c, 4, 61, 100
3, 471120, Note_on_c, 4, 61, 0
3, 471360, Note_on_c, 4, 61, 100
3, 471600, Note_on_c, 4, 61, 0
3, 471840, Note_on_c, 4, 61, 100
3, 472080, Note_on_c, 4, 61, 0
3, 472320, Note_on_c, 4, 60, 100
3, 472320, Note_on_c, 4, 61, 100
3, 472320, Note_on_c, 0, 70, 100
3, 472560, Note_on_c, 4, 60, 0
3, 472560, Note_on_c, 4, 61, 0
3, 472560, Note_on_c, 0, 70, 0
3, 472800, Note_on_c, 4, 61, 100
3, 473040, Note_on_c, 4, 61, 0
3, 473280, Note_on_c, 4, 61, 100
3, 473280, Note_on_c, 0, 70, 100
3, 473520, Note_on_c, 4, 61, 0
3, 473520, Note_on_c, 0, 70, 0
3, 473760, Note_on_c, 4, 61, 100
3, 474000, Note_on_c, 4, 61, 0
3, 474240, Note_on_c, 4, 60, 100
3, 474240, Note_on_c, 4, 61, 100
3, 474240, Note_on_c, 0, 70, 100
3, 474240, Note_on_c, 0, 69, 100
3, 474480, Note_on_c, 4, 60, 0
3, 474480, Note_on_c, 4, 61, 0
3, 475920, Note_on_c, 0, 70, 0
3, 475920, Note_on_c, 0, 69, 0
3, 476160, Note_on_c, 4, 60, 100
3, 476160, Note_on_c, 4, 61, 100
3, 476160, Note_on_c, 0, 68, 100
3, 476400, Note_on_c, 4, 60, 0
3, 476400, Note_on_c, 4, 61, 0
3, 476400, Note_on_c, 0, 68, 0
3, 477120, Note_on_c, 0, 70, 100
3, 477360, Note_on_c, 0, 70, 0
3, 477600, Note_on_c, 4, 61, 100
3, 477600, Note_on_c, 4, 60, 100
3, 477840, Note_on_c, 4, 61, 0
3, 477840, Note_on_c, 4, 60, 0
3, 478080, Note_on_c, 4, 61, 100
3, 478320, Note_on_c, 4, 61, 0
3, 478560, Note_on_c, 4, 60, 100
3, 478560, Note_on_c, 4, 61, 100
3, 478800, Note_on_c, 4, 60, 0
3, 478800, Note_on_c, 4, 61, 0
3, 479520, Note_on_c, 4, 60, 100
3, 479520, Note_on_c, 4, 61, 100
3, 479760, Note_on_c, 4, 60, 0
3, 479760, Note_on_c, 4, 61, 0
3, 480000, Note_on_c, 4, 60, 100
3, 480000, Note_on_c, 4, 61, 100
3, 480000, Note_on_c, 0, 69, 100
3, 480240, Note_on_c, 4, 60, 0
3, 480240, Note_on_c, 4, 61, 0
3, 480240, Note_on_c, 0, 69, 0
3, 480960, Note_on_c, 4, 61, 100
3, 481200, Note_on_c, 4, 61, 0
3, 481440, Note_on_c, 4, 60, 100
3, 481440, Note_on_c, 4, 61, 100
3, 481440, Note_on_c, 0, 68, 100
3, 481680, Note_on_c, 4, 60, 0
3, 481680, Note_on_c, 4, 61, 0
3, 481680, Note_on_c, 0, 68, 0
3, 482400, Note_on_c, 4, 60, 100
3, 482400, Note_on_c, 4, 61, 100
3, 482640, Note_on_c, 4, 60, 0
3, 482640, Note_on_c, 4, 61, 0
3, 482880, Note_on_c, 4, 61, 100
3, 482880, Note_on_c, 0, 68, 100
3, 483120, Note_on_c, 4, 61, 0
3, 483120, Note_on_c, 0, 68, 0
3, 483360, Note_on_c, 4, 61, 100
3, 483600, Note_on_c, 4, 61, 0
3, 483840, Note_on_c, 4, 60, 100
3, 483840, Note_on_c, 4, 61, 100
3, 483840, Note_on_c, 0, 68, 100
3, 484080, Note_on_c, 4, 60, 0
3, 484080, Note_on_c, 4, 61, 0
3, 484080, Note_on_c, 0, 68, 0
3, 484800, Note_on_c, 0, 69, 100
3, 485040, Note_on_c, 0, 69, 0
3, 485280, Note_on_c, 4, 60, 100
3, 485280, Note_on_c, 4, 61, 100
3, 485520, Note_on_c, 4, 60, 0
3, 485520, Note_on_c, 4, 61, 0
3, 485760, Note_on_c, 4, 61, 100
3, 486000, Note_on_c, 4, 61, 0
3, 486240, Note_on_c, 4, 61, 100
3, 486480, Note_on_c, 4, 61, 0
3, 487200, Note_on_c, 4, 61, 100
3, 487440, Note_on_c, 4, 61, 0
3, 487680, Note_on_c, 4, 60, 100
3, 487680, Note_on_c, 4, 61, 100
3, 487680, Note_on_c, 0, 70, 100
3, 487920, Note_on_c, 4, 60, 0
3, 487920, Note_on_c, 4, 61, 0
3, 487920, Note_on_c, 0, 70, 0
3, 488160, Note_on_c, 4, 60, 100
3, 488400, Note_on_c, 4, 60, 0
3, 488640, Note_on_c, 4, 60, 100
3, 488880, Note_on_c, 4, 60, 0
3, 489120, Note_on_c, 4, 61, 100
3, 489120, Note_on_c, 0, 70, 100
3, 489360, Note_on_c, 4, 61, 0
3, 489360, Note_on_c, 0, 70, 0
3, 489600, Note_on_c, 4, 61, 100
3, 489840, Note_on_c, 4, 61, 0
3, 490080, Note_on_c, 4, 61, 100
3, 490320, Note_on_c, 4, 61, 0
3, 490560, Note_on_c, 4, 61, 100
3, 490560, Note_on_c, 0, 69, 100
3, 490800, Note_on_c, 4, 61, 0
3, 490800, Note_on_c, 0, 69, 0
3, 491520, Note_on_c, 4, 60, 100
3, 491520, Note_on_c, 4, 61, 100
3, 491520, Note_on_c, 0, 68, 100
3, 491760, Note_on_c, 4, 60, 0
3, 491760, Note_on_c, 4, 61, 0
3, 491760, Note_on_c, 0, 68, 0
3, 492480, Note_on_c, 0, 70, 100
3, 492720, Note_on_c, 0, 70, 0
3, 492960, Note_on_c, 4, 60, 100
3, 492960, Note_on_c, 4, 61, 100
3, 493200, Note_on_c, 4, 60, 0
3, 493200, Note_on_c, 4, 61, 0
3, 493920, Note_on_c, 4, 60, 100
3, 493920, Note_on_c, 4, 61, 100
3, 494160, Note_on_c, 4, 60, 0
3, 494160, Note_on_c, 4, 61, 0
3, 494880, Note_on_c, 4, 61, 100
3, 494880, Note_on_c, 4, 60, 100
3, 495120, Note_on_c, 4, 61, 0
3, 495120, Note_on_c, 4, 60, 0
3, 495360, Note_on_c, 4, 60, 100
3, 495360, Note_on_c, 4, 61, 100
3, 495360, Note_on_c, 0, 69, 100
3, 495600, Note_on_c, 4, 60, 0
3, 495600, Note_on_c, 4, 61, 0
3, 495600, Note_on_c, 0, 69, 0
3, 496320, Note_on_c, 4, 61, 100
3, 496560, Note_on_c, 4, 61, 0
3, 496800, Note_on_c, 4, 60, 100
3, 496800, Note_on_c, 4, 61, 100
3, 496800, Note_on_c, 0, 68, 100
3, 497040, Note_on_c, 4, 60, 0
3, 497040, Note_on_c, 4, 61, 0
3, 497040, Note_on_c, 0, 68, 0
3, 497760, Note_on_c, 4, 60, 100
3, 498000, Note_on_c, 4, 60, 0
3, 498240, Note_on_c, 4, 61, 100
3, 498240, Note_on_c, 0, 68, 100
3, 498480, Note_on_c, 4, 61, 0
3, 498480, Note_on_c, 0, 68, 0
3, 498720, Note_on_c, 4, 60, 100
3, 498720, Note_on_c, 4, 61, 100
3, 498960, Note_on_c, 4, 60, 0
3, 498960, Note_on_c, 4, 61, 0
3, 499200, Note_on_c, 4, 60, 100
3, 499200, Note_on_c, 4, 61, 100
3, 499200, Note_on_c, 0, 68, 100
3, 499440, Note_on_c, 4, 60, 0
3, 499440, Note_on_c, 4, 61, 0
3, 499440, Note_on_c, 0, 68, 0
3, 500160, Note_on_c, 4, 61, 100
3, 500160, Note_on_c, 0, 69, 100
3, 500400, Note_on_c, 4, 61, 0
3, 500400, Note_on_c, 0, 69, 0
3, 500640, Note_on_c, 4, 60, 100
3, 500640, Note_on_c, 4, 61, 100
3, 500880, Note_on_c, 4, 60, 0
3, 500880, Note_on_c, 4, 61, 0
3, 501120, Note_on_c, 4, 61, 100
3, 501360, Note_on_c, 4, 61, 0
3, 501600, Note_on_c, 4, 61, 100
3, 501840, Note_on_c, 4, 61, 0
3, 502080, Note_on_c, 4, 61, 100
3, 502320, Note_on_c, 4, 61, 0
3, 502560, Note_on_c, 4, 60, 100
3, 502560, Note_on_c, 4, 61, 100
3, 502800, Note_on_c, 4, 60, 0
3, 502800, Note_on_c, 4, 61, 0
3, 503040, Note_on_c, 4, 60, 100
3, 503040, Note_on_c, 4, 61, 100
3, 503040, Note_on_c, 0, 70, 100
3, 503280, Note_on_c, 4, 60, 0
3, 503280, Note_on_c, 4, 61, 0
3, 503280, Note_on_c, 0, 70, 0
3, 504480, Note_on_c, 4, 61, 100
3, 504480, Note_on_c, 0, 70, 100
3, 504720, Note_on_c, 4, 61, 0
3, 504720, Note_on_c, 0, 70, 0
3, 504960, Note_on_c, 4, 61, 100
3, 505200, Note_on_c, 4, 61, 0
3, 505440, Note_on_c, 4, 61, 100
3, 505680, Note_on_c, 4, 61, 0
3, 505920, Note_on_c, 4, 60, 100
3, 505920, Note_on_c, 4, 61, 100
3, 505920, Note_on_c, 0, 68, 100
3, 506160, Note_on_c, 4, 60, 0
3, 506160, Note_on_c, 4, 61, 0
3, 506160, Note_on_c, 0, 68, 0
3, 506880, Note_on_c, 4, 60, 100
3, 506880, Note_on_c, 4, 61, 100
3, 506880, Note_on_c, 0, 69, 100
3, 507120, Note_on_c, 4, 60, 0
3, 507120, Note_on_c, 4, 61, 0
3, 507120, Note_on_c, 0, 69, 0
3, 507360, Note_on_c, 4, 61, 100
3, 507600, Note_on_c, 4, 61, 0
3, 507840, Note_on_c, 4, 61, 100
3, 507840, Note_on_c, 0, 70, 100
3, 508080, Note_on_c, 4, 61, 0
3, 508080, Note_on_c, 0, 70, 0
3, 508320, Note_on_c, 4, 61, 100
3, 508560, Note_on_c, 4, 61, 0
3, 508800, Note_on_c, 4, 60, 100
3, 508800, Note_on_c, 4, 61, 100
3, 509040, Note_on_c, 4, 60, 0
3, 509040, Note_on_c, 4, 61, 0
3, 509280, Note_on_c, 4, 61, 100
3, 509520, Note_on_c, 4, 61, 0
3, 509760, Note_on_c, 4, 61, 100
3, 510000, Note_on_c, 4, 61, 0
3, 510240, Note_on_c, 4, 61, 100
3, 510480, Note_on_c, 4, 61, 0
3, 510720, Note_on_c, 4, 60, 100
3, 510720, Note_on_c, 4, 61, 100
3, 510720, Note_on_c, 0, 70, 100
3, 510960, Note_on_c, 4, 60, 0
3, 510960, Note_on_c, 4, 61, 0
3, 510960, Note_on_c, 0, 70, 0
3, 511200, Note_on_c, 4, 61, 100
3, 511440, Note_on_c, 4, 61, 0
3, 511680, Note_on_c, 4, 61, 100
3, 511680, Note_on_c, 0, 70, 100
3, 511920, Note_on_c, 4, 61, 0
3, 511920, Note_on_c, 0, 70, 0
3, 512160, Note_on_c, 4, 61, 100
3, 512400, Note_on_c, 4, 61, 0
3, 512640, Note_on_c, 4, 60, 100
3, 512640, Note_on_c, 4, 61, 100
3, 512640, Note_on_c, 0, 70, 100
3, 512640, Note_on_c, 0, 69, 100
3, 512880, Note_on_c, 4, 60, 0
3, 512880, Note_on_c, 4, 61, 0
3, 514320, Note_on_c, 0, 70, 0
3, 514320, Note_on_c, 0, 69, 0
3, 514560, Note_on_c, 4, 60, 100
3, 514560, Note_on_c, 4, 61, 100
3, 514560, Note_on_c, 0, 69, 100
3, 514800, Note_on_c, 4, 60, 0
3, 514800, Note_on_c, 4, 61, 0
3, 514800, Note_on_c, 0, 69, 0
3, 515040, Note_on_c, 4, 60, 100
3, 515040, Note_on_c, 4, 61, 100
3, 515280, Note_on_c, 4, 60, 0
3, 515280, Note_on_c, 4, 61, 0
3, 516000, Note_on_c, 4, 60, 100
3, 516000, Note_on_c, 4, 61, 100
3, 516000, Note_on_c, 0, 68, 100
3, 516240, Note_on_c, 4, 60, 0
3, 516240, Note_on_c, 4, 61, 0
3, 516240, Note_on_c, 0, 68, 0
3, 516240, End_track
4, 0, Start_track
4, 0, Title_t, "EVENTS"
4, 0, Text_t, "[verse]"
4, 0, Text_t, "bass_off"
4, 0, Text_t, "sing_off"
4, 0, Text_t, "[lighting ()]"
4, 5760, Text_t, "[music_start]"
4, 5760, Text_t, "drum_on"
4, 7680, Text_t, "bass_on"
4, 7680, Text_t, "[lighting ()]"
4, 15360, Text_t, "sing_on"
4, 67200, Text_t, "[lighting ()]"
4, 68160, Text_t, "drum_normal"
4, 96000, Text_t, "[lighting ()]"
4, 99840, Text_t, "[chorus]"
4, 99840, Text_t, "[lighting ()]"
4, 99840, Text_t, "drum_normal"
4, 111360, Text_t, "[lighting ()]"
4, 112320, Text_t, "[lighting (color1)]"
4, 113280, Text_t, "[lighting ()]"
4, 126720, Text_t, "[lighting ()]"
4, 129600, Text_t, "[lighting ()]"
4, 130560, Text_t, "[verse]"
4, 130560, Text_t, "drum_normal"
4, 131520, Text_t, "wail_off"
4, 190080, Text_t, "[lighting ()]"
4, 191040, Text_t, "drum_normal"
4, 218880, Text_t, "[lighting ()]"
4, 222720, Text_t, "[chorus]"
4, 222720, Text_t, "drum_normal"
4, 234240, Text_t, "[lighting ()]"
4, 235200, Text_t, "[lighting (color2)]"
4, 236160, Text_t, "[lighting ()]"
4, 249600, Text_t, "[lighting ()]"
4, 252480, Text_t, "[lighting ()]"
4, 253440, Text_t, "[lighting ()]"
4, 259200, Text_t, "drum_normal"
4, 261120, Text_t, "[lighting ()]"
4, 265920, Text_t, "[lighting ()]"
4, 266880, Text_t, "[lighting ()]"
4, 268800, Text_t, "[lighting ()]"
4, 274560, Text_t, "drum_normal"
4, 276480, Text_t, "[lighting ()]"
4, 281280, Text_t, "[lighting ()]"
4, 282240, Text_t, "[lighting ()]"
4, 284160, Text_t, "drum_normal"
4, 288000, Text_t, "[lighting ()]"
4, 291840, Text_t, "[solo]"
4, 291840, Text_t, "solo_on"
4, 291840, Text_t, "wail_off"
4, 291840, Text_t, "drum_normal"
4, 295680, Text_t, "sing_off"
4, 307200, Text_t, "[lighting ()]"
4, 313920, Text_t, "drum_normal"
4, 337920, Text_t, "[lighting ()]"
4, 344640, Text_t, "drum_normal"
4, 353280, Text_t, "[verse]"
4, 353280, Text_t, "solo_off"
4, 360960, Text_t, "sing_on"
4, 412800, Text_t, "[lighting ()]"
4, 413760, Text_t, "drum_normal"
4, 441600, Text_t, "[lighting ()]"
4, 445440, Text_t, "[chorus]"
4, 445440, Text_t, "drum_normal"
4, 456960, Text_t, "[lighting ()]"
4, 457920, Text_t, "[lighting ()]"
4, 458880, Text_t, "drum_normal"
4, 472320, Text_t, "[lighting ()]"
4, 476160, Text_t, "[lighting ()]"
4, 481920, Text_t, "drum_normal"
4, 483840, Text_t, "[lighting ()]"
4, 486720, Text_t, "[lighting ()]"
4, 487680, Text_t, "[lighting ()]"
4, 488640, Text_t, "[lighting ()]"
4, 490560, Text_t, "[lighting ()]"
4, 497280, Text_t, "drum_normal"
4, 499200, Text_t, "[lighting ()]"
4, 504000, Text_t, "[lighting ()]"
4, 505920, Text_t, "[lighting ()]"
4, 506880, Text_t, "drum_normal"
4, 510720, Text_t, "[lighting ()]"
4, 513600, Text_t, "[lighting (flare)]"
4, 514560, Text_t, "[lighting ()]"
4, 515520, Text_t, "[lighting ()]"
4, 516960, Text_t, "[lighting (flare)]"
4, 516960, Text_t, "[lighting (blackout)]"
4, 516960, Text_t, "bass_off"
4, 516960, Text_t, "sing_off"
4, 517438, Text_t, "[end]"
4, 517438, End_track
5, 0, Start_track
5, 0, Title_t, "ANIM"
5, 6240, Note_on_c, 3, 41, 100
5, 6480, Note_on_c, 3, 41, 0
5, 6720, Note_on_c, 3, 43, 100
5, 6960, Note_on_c, 3, 43, 0
5, 7200, Note_on_c, 3, 41, 100
5, 7920, Note_on_c, 3, 41, 0
5, 8160, Note_on_c, 3, 40, 100
5, 11280, Note_on_c, 3, 40, 0
5, 11520, Note_on_c, 3, 41, 100
5, 11760, Note_on_c, 3, 41, 0
5, 12000, Note_on_c, 3, 40, 100
5, 13440, Note_on_c, 3, 40, 0
5, 13920, Note_on_c, 3, 41, 100
5, 14160, Note_on_c, 3, 41, 0
5, 14400, Note_on_c, 3, 43, 100
5, 14640, Note_on_c, 3, 43, 0
5, 14880, Note_on_c, 3, 41, 100
5, 15600, Note_on_c, 3, 41, 0
5, 15840, Note_on_c, 3, 40, 100
5, 22800, Note_on_c, 3, 40, 0
5, 23040, Note_on_c, 3, 41, 100
5, 23280, Note_on_c, 3, 41, 0
5, 23520, Note_on_c, 3, 40, 100
5, 26640, Note_on_c, 3, 40, 0
5, 26880, Note_on_c, 3, 41, 100
5, 27120, Note_on_c, 3, 41, 0
5, 27360, Note_on_c, 3, 40, 100
5, 29040, Note_on_c, 3, 40, 0
5, 29280, Note_on_c, 3, 41, 100
5, 29520, Note_on_c, 3, 41, 0
5, 29760, Note_on_c, 3, 43, 100
5, 30000, Note_on_c, 3, 43, 0
5, 30240, Note_on_c, 3, 41, 100
5, 30960, Note_on_c, 3, 41, 0
5, 31200, Note_on_c, 3, 40, 100
5, 38160, Note_on_c, 3, 40, 0
5, 38400, Note_on_c, 3, 41, 100
5, 38640, Note_on_c, 3, 41, 0
5, 38880, Note_on_c, 3, 40, 100
5, 42000, Note_on_c, 3, 40, 0
5, 42240, Note_on_c, 3, 41, 100
5, 42480, Note_on_c, 3, 41, 0
5, 42720, Note_on_c, 3, 40, 100
5, 44400, Note_on_c, 3, 40, 0
5, 44640, Note_on_c, 3, 41, 100
5, 44880, Note_on_c, 3, 41, 0
5, 45120, Note_on_c, 3, 43, 100
5, 45360, Note_on_c, 3, 43, 0
5, 45600, Note_on_c, 3, 41, 100
5, 46320, Note_on_c, 3, 41, 0
5, 46560, Note_on_c, 3, 40, 100
5, 53520, Note_on_c, 3, 40, 0
5, 53760, Note_on_c, 3, 41, 100
5, 54000, Note_on_c, 3, 41, 0
5, 54240, Note_on_c, 3, 40, 100
5, 57360, Note_on_c, 3, 40, 0
5, 57600, Note_on_c, 3, 41, 100
5, 57840, Note_on_c, 3, 41, 0
5, 58080, Note_on_c, 3, 40, 100
5, 59760, Note_on_c, 3, 40, 0
5, 60000, Note_on_c, 3, 41, 100
5, 60240, Note_on_c, 3, 41, 0
5, 60480, Note_on_c, 3, 43, 100
5, 60720, Note_on_c, 3, 43, 0
5, 60960, Note_on_c, 3, 41, 100
5, 61680, Note_on_c, 3, 41, 0
5, 61920, Note_on_c, 3, 40, 100
5, 68400, Note_on_c, 3, 40, 0
5, 68640, Note_on_c, 3, 46, 100
5, 69360, Note_on_c, 3, 46, 0
5, 69600, Note_on_c, 3, 44, 100
5, 70320, Note_on_c, 3, 44, 0
5, 70560, Note_on_c, 3, 43, 100
5, 71280, Note_on_c, 3, 43, 0
5, 71520, Note_on_c, 3, 46, 100
5, 73200, Note_on_c, 3, 46, 0
5, 73440, Note_on_c, 3, 44, 100
5, 74160, Note_on_c, 3, 44, 0
5, 74400, Note_on_c, 3, 43, 100
5, 75120, Note_on_c, 3, 43, 0
5, 75360, Note_on_c, 3, 46, 100
5, 77040, Note_on_c, 3, 46, 0
5, 77280, Note_on_c, 3, 44, 100
5, 78000, Note_on_c, 3, 44, 0
5, 78240, Note_on_c, 3, 43, 100
5, 78960, Note_on_c, 3, 43, 0
5, 79200, Note_on_c, 3, 46, 100
5, 80880, Note_on_c, 3, 46, 0
5, 81120, Note_on_c, 3, 44, 100
5, 81840, Note_on_c, 3, 44, 0
5, 82080, Note_on_c, 3, 43, 100
5, 82800, Note_on_c, 3, 43, 0
5, 83040, Note_on_c, 3, 46, 100
5, 84720, Note_on_c, 3, 46, 0
5, 84960, Note_on_c, 3, 44, 100
5, 85680, Note_on_c, 3, 44, 0
5, 85920, Note_on_c, 3, 43, 100
5, 86640, Note_on_c, 3, 43, 0
5, 86880, Note_on_c, 3, 46, 100
5, 88560, Note_on_c, 3, 46, 0
5, 88800, Note_on_c, 3, 44, 100
5, 89520, Note_on_c, 3, 44, 0
5, 89760, Note_on_c, 3, 43, 100
5, 90480, Note_on_c, 3, 43, 0
5, 90720, Note_on_c, 3, 46, 100
5, 92400, Note_on_c, 3, 46, 0
5, 92640, Note_on_c, 3, 44, 100
5, 93360, Note_on_c, 3, 44, 0
5, 93600, Note_on_c, 3, 43, 100
5, 93840, Note_on_c, 3, 43, 0
5, 94560, Note_on_c, 3, 40, 100
5, 95280, Note_on_c, 3, 40, 0
5, 95520, Note_on_c, 3, 46, 100
5, 97440, Note_on_c, 3, 46, 0
5, 97920, Note_on_c, 3, 41, 100
5, 99120, Note_on_c, 3, 41, 0
5, 99360, Note_on_c, 3, 40, 100
5, 100320, Note_on_c, 3, 40, 0
5, 100800, Note_on_c, 3, 47, 100
5, 104640, Note_on_c, 3, 47, 0
5, 105120, Note_on_c, 3, 45, 100
5, 106320, Note_on_c, 3, 45, 0
5, 106560, Note_on_c, 3, 40, 100
5, 108240, Note_on_c, 3, 40, 0
5, 108480, Note_on_c, 3, 44, 100
5, 111120, Note_on_c, 3, 44, 0
5, 111360, Note_on_c, 3, 46, 100
5, 112560, Note_on_c, 3, 46, 0
5, 112800, Note_on_c, 3, 44, 100
5, 114240, Note_on_c, 3, 44, 0
5, 114480, Note_on_c, 3, 41, 100
5, 114960, Note_on_c, 3, 41, 0
5, 115200, Note_on_c, 3, 40, 100
5, 115920, Note_on_c, 3, 40, 0
5, 116160, Note_on_c, 3, 47, 100
5, 120000, Note_on_c, 3, 47, 0
5, 120480, Note_on_c, 3, 45, 100
5, 121680, Note_on_c, 3, 45, 0
5, 121920, Note_on_c, 3, 40, 100
5, 123600, Note_on_c, 3, 40, 0
5, 123840, Note_on_c, 3, 44, 100
5, 126480, Note_on_c, 3, 44, 0
5, 126720, Note_on_c, 3, 46, 100
5, 129600, Note_on_c, 3, 46, 0
5, 130560, Note_on_c, 3, 41, 100
5, 130800, Note_on_c, 3, 41, 0
5, 131040, Note_on_c, 3, 40, 100
5, 134160, Note_on_c, 3, 40, 0
5, 134400, Note_on_c, 3, 41, 100
5, 134640, Note_on_c, 3, 41, 0
5, 134880, Note_on_c, 3, 40, 100
5, 136560, Note_on_c, 3, 40, 0
5, 136800, Note_on_c, 3, 41, 100
5, 137040, Note_on_c, 3, 41, 0
5, 137280, Note_on_c, 3, 43, 100
5, 137520, Note_on_c, 3, 43, 0
5, 137760, Note_on_c, 3, 41, 100
5, 138480, Note_on_c, 3, 41, 0
5, 138720, Note_on_c, 3, 40, 100
5, 145680, Note_on_c, 3, 40, 0
5, 145920, Note_on_c, 3, 41, 100
5, 146160, Note_on_c, 3, 41, 0
5, 146400, Note_on_c, 3, 40, 100
5, 149520, Note_on_c, 3, 40, 0
5, 149760, Note_on_c, 3, 41, 100
5, 150000, Note_on_c, 3, 41, 0
5, 150240, Note_on_c, 3, 40, 100
5, 151920, Note_on_c, 3, 40, 0
5, 152160, Note_on_c, 3, 41, 100
5, 152400, Note_on_c, 3, 41, 0
5, 152640, Note_on_c, 3, 43, 100
5, 152880, Note_on_c, 3, 43, 0
5, 153120, Note_on_c, 3, 41, 100
5, 153840, Note_on_c, 3, 41, 0
5, 154080, Note_on_c, 3, 40, 100
5, 161040, Note_on_c, 3, 40, 0
5, 161280, Note_on_c, 3, 41, 100
5, 161520, Note_on_c, 3, 41, 0
5, 161760, Note_on_c, 3, 40, 100
5, 164880, Note_on_c, 3, 40, 0
5, 165120, Note_on_c, 3, 41, 100
5, 165360, Note_on_c, 3, 41, 0
5, 165600, Note_on_c, 3, 40, 100
5, 167280, Note_on_c, 3, 40, 0
5, 167520, Note_on_c, 3, 41, 100
5, 167760, Note_on_c, 3, 41, 0
5, 168000, Note_on_c, 3, 43, 100
5, 168240, Note_on_c, 3, 43, 0
5, 168480, Note_on_c, 3, 41, 100
5, 169200, Note_on_c, 3, 41, 0
5, 169440, Note_on_c, 3, 40, 100
5, 176400, Note_on_c, 3, 40, 0
5, 176640, Note_on_c, 3, 41, 100
5, 176880, Note_on_c, 3, 41, 0
5, 177120, Note_on_c, 3, 40, 100
5, 180240, Note_on_c, 3, 40, 0
5, 180480, Note_on_c, 3, 41, 100
5, 180720, Note_on_c, 3, 41, 0
5, 180960, Note_on_c, 3, 40, 100
5, 182640, Note_on_c, 3, 40, 0
5, 182880, Note_on_c, 3, 41, 100
5, 183120, Note_on_c, 3, 41, 0
5, 183360, Note_on_c, 3, 43, 100
5, 183600, Note_on_c, 3, 43, 0
5, 183840, Note_on_c, 3, 41, 100
5, 184560, Note_on_c, 3, 41, 0
5, 184800, Note_on_c, 3, 40, 100
5, 191280, Note_on_c, 3, 40, 0
5, 191520, Note_on_c, 3, 46, 100
5, 192240, Note_on_c, 3, 46, 0
5, 192480, Note_on_c, 3, 44, 100
5, 193200, Note_on_c, 3, 44, 0
5, 193440, Note_on_c, 3, 43, 100
5, 194160, Note_on_c, 3, 43, 0
5, 194400, Note_on_c, 3, 46, 100
5, 196080, Note_on_c, 3, 46, 0
5, 196320, Note_on_c, 3, 44, 100
5, 197040, Note_on_c, 3, 44, 0
5, 197280, Note_on_c, 3, 43, 100
5, 198000, Note_on_c, 3, 43, 0
5, 198240, Note_on_c, 3, 46, 100
5, 199920, Note_on_c, 3, 46, 0
5, 200160, Note_on_c, 3, 44, 100
5, 200880, Note_on_c, 3, 44, 0
5, 201120, Note_on_c, 3, 43, 100
5, 201840, Note_on_c, 3, 43, 0
5, 202080, Note_on_c, 3, 46, 100
5, 203760, Note_on_c, 3, 46, 0
5, 204000, Note_on_c, 3, 44, 100
5, 204720, Note_on_c, 3, 44, 0
5, 204960, Note_on_c, 3, 43, 100
5, 205680, Note_on_c, 3, 43, 0
5, 205920, Note_on_c, 3, 46, 100
5, 207600, Note_on_c, 3, 46, 0
5, 207840, Note_on_c, 3, 44, 100
5, 208560, Note_on_c, 3, 44, 0
5, 208800, Note_on_c, 3, 43, 100
5, 209520, Note_on_c, 3, 43, 0
5, 209760, Note_on_c, 3, 46, 100
5, 211440, Note_on_c, 3, 46, 0
5, 211680, Note_on_c, 3, 44, 100
5, 212400, Note_on_c, 3, 44, 0
5, 212640, Note_on_c, 3, 43, 100
5, 213360, Note_on_c, 3, 43, 0
5, 213600, Note_on_c, 3, 46, 100
5, 215280, Note_on_c, 3, 46, 0
5, 215520, Note_on_c, 3, 44, 100
5, 216240, Note_on_c, 3, 44, 0
5, 216480, Note_on_c, 3, 43, 100
5, 216720, Note_on_c, 3, 43, 0
5, 217440, Note_on_c, 3, 40, 100
5, 218160, Note_on_c, 3, 40, 0
5, 218400, Note_on_c, 3, 46, 100
5, 220320, Note_on_c, 3, 46, 0
5, 220800, Note_on_c, 3, 41, 100
5, 222000, Note_on_c, 3, 41, 0
5, 222240, Note_on_c, 3, 40, 100
5, 223200, Note_on_c, 3, 40, 0
5, 223680, Note_on_c, 3, 47, 100
5, 227520, Note_on_c, 3, 47, 0
5, 228000, Note_on_c, 3, 45, 100
5, 229200, Note_on_c, 3, 45, 0
5, 229440, Note_on_c, 3, 40, 100
5, 231120, Note_on_c, 3, 40, 0
5, 231360, Note_on_c, 3, 44, 100
5, 234000, Note_on_c, 3, 44, 0
5, 234240, Note_on_c, 3, 46, 100
5, 235440, Note_on_c, 3, 46, 0
5, 235680, Note_on_c, 3, 44, 100
5, 237120, Note_on_c, 3, 44, 0
5, 237360, Note_on_c, 3, 41, 100
5, 237840, Note_on_c, 3, 41, 0
5, 238080, Note_on_c, 3, 40, 100
5, 238800, Note_on_c, 3, 40, 0
5, 239040, Note_on_c, 3, 47, 100
5, 242880, Note_on_c, 3, 47, 0
5, 243360, Note_on_c, 3, 45, 100
5, 244560, Note_on_c, 3, 45, 0
5, 244800, Note_on_c, 3, 40, 100
5, 246480, Note_on_c, 3, 40, 0
5, 246720, Note_on_c, 3, 44, 100
5, 249360, Note_on_c, 3, 44, 0
5, 249600, Note_on_c, 3, 45, 100
5, 252480, Note_on_c, 3, 45, 0
5, 253440, Note_on_c, 3, 40, 100
5, 254400, Note_on_c, 3, 40, 0
5, 254400, Note_on_c, 3, 47, 100
5, 258240, Note_on_c, 3, 47, 0
5, 258720, Note_on_c, 3, 45, 100
5, 259920, Note_on_c, 3, 45, 0
5, 260160, Note_on_c, 3, 40, 100
5, 261840, Note_on_c, 3, 40, 0
5, 262080, Note_on_c, 3, 44, 100
5, 264720, Note_on_c, 3, 44, 0
5, 264960, Note_on_c, 3, 46, 100
5, 266160, Note_on_c, 3, 46, 0
5, 266400, Note_on_c, 3, 44, 100
5, 267840, Note_on_c, 3, 44, 0
5, 268080, Note_on_c, 3, 41, 100
5, 268560, Note_on_c, 3, 41, 0
5, 268800, Note_on_c, 3, 40, 100
5, 269520, Note_on_c, 3, 40, 0
5, 269760, Note_on_c, 3, 47, 100
5, 273600, Note_on_c, 3, 47, 0
5, 274080, Note_on_c, 3, 45, 100
5, 275280, Note_on_c, 3, 45, 0
5, 275520, Note_on_c, 3, 40, 100
5, 277200, Note_on_c, 3, 40, 0
5, 277440, Note_on_c, 3, 44, 100
5, 280080, Note_on_c, 3, 44, 0
5, 280320, Note_on_c, 3, 46, 100
5, 281520, Note_on_c, 3, 46, 0
5, 281760, Note_on_c, 3, 44, 100
5, 283200, Note_on_c, 3, 44, 0
5, 283440, Note_on_c, 3, 41, 100
5, 283920, Note_on_c, 3, 41, 0
5, 284160, Note_on_c, 3, 42, 100
5, 284880, Note_on_c, 3, 42, 0
5, 285120, Note_on_c, 3, 44, 100
5, 287760, Note_on_c, 3, 44, 0
5, 288000, Note_on_c, 3, 45, 100
5, 290880, Note_on_c, 3, 45, 0
5, 291840, Note_on_c, 3, 47, 100
5, 294960, Note_on_c, 3, 47, 0
5, 295200, Note_on_c, 3, 43, 100
5, 295440, Note_on_c, 3, 43, 0
5, 295680, Note_on_c, 3, 47, 100
5, 297840, Note_on_c, 3, 47, 0
5, 298080, Note_on_c, 3, 46, 100
5, 298320, Note_on_c, 3, 46, 0
5, 298560, Note_on_c, 3, 44, 100
5, 298800, Note_on_c, 3, 44, 0
5, 299040, Note_on_c, 3, 46, 100
5, 301440, Note_on_c, 3, 46, 0
5, 301920, Note_on_c, 3, 47, 100
5, 302160, Note_on_c, 3, 47, 0
5, 302400, Note_on_c, 3, 46, 100
5, 302640, Note_on_c, 3, 46, 0
5, 302880, Note_on_c, 3, 42, 100
5, 303120, Note_on_c, 3, 42, 0
5, 305280, Note_on_c, 3, 44, 100
5, 305520, Note_on_c, 3, 44, 0
5, 305760, Note_on_c, 3, 43, 100
5, 306000, Note_on_c, 3, 43, 0
5, 306240, Note_on_c, 3, 44, 100
5, 306480, Note_on_c, 3, 44, 0
5, 306720, Note_on_c, 3, 43, 100
5, 306960, Note_on_c, 3, 43, 0
5, 307200, Note_on_c, 3, 46, 100
5, 307440, Note_on_c, 3, 46, 0
5, 307680, Note_on_c, 3, 45, 100
5, 310080, Note_on_c, 3, 45, 0
5, 310080, Note_on_c, 3, 46, 100
5, 310320, Note_on_c, 3, 46, 0
5, 310560, Note_on_c, 3, 45, 100
5, 310800, Note_on_c, 3, 45, 0
5, 311520, Note_on_c, 3, 44, 100
5, 311760, Note_on_c, 3, 44, 0
5, 312000, Note_on_c, 3, 43, 100
5, 312240, Note_on_c, 3, 43, 0
5, 312480, Note_on_c, 3, 45, 100
5, 312720, Note_on_c, 3, 45, 0
5, 312960, Note_on_c, 3, 43, 100
5, 314160, Note_on_c, 3, 43, 0
5, 314400, Note_on_c, 3, 47, 100
5, 315120, Note_on_c, 3, 47, 0
5, 315360, Note_on_c, 3, 49, 100
5, 315600, Note_on_c, 3, 49, 0
5, 315600, Note_on_c, 3, 47, 100
5, 315840, Note_on_c, 3, 47, 0
5, 316080, Note_on_c, 3, 49, 100
5, 316320, Note_on_c, 3, 49, 0
5, 316320, Note_on_c, 3, 48, 100
5, 316560, Note_on_c, 3, 48, 0
5, 316800, Note_on_c, 3, 50, 100
5, 317040, Note_on_c, 3, 50, 0
5, 317040, Note_on_c, 3, 48, 100
5, 317280, Note_on_c, 3, 48, 0
5, 317760, Note_on_c, 3, 51, 100
5, 318000, Note_on_c, 3, 51, 0
5, 318240, Note_on_c, 3, 48, 100
5, 318480, Note_on_c, 3, 48, 0
5, 318880, Note_on_c, 3, 51, 100
5, 319040, Note_on_c, 3, 51, 0
5, 319200, Note_on_c, 3, 48, 100
5, 319440, Note_on_c, 3, 48, 0
5, 319440, Note_on_c, 3, 50, 100
5, 319680, Note_on_c, 3, 50, 0
5, 319680, Note_on_c, 3, 53, 100
5, 320160, Note_on_c, 3, 53, 0
5, 320160, Note_on_c, 3, 52, 100
5, 320320, Note_on_c, 3, 52, 0
5, 320320, Note_on_c, 3, 53, 100
5, 320480, Note_on_c, 3, 53, 0
5, 320480, Note_on_c, 3, 52, 100
5, 320640, Note_on_c, 3, 52, 0
5, 321120, Note_on_c, 3, 49, 100
5, 322320, Note_on_c, 3, 49, 0
5, 322560, Note_on_c, 3, 53, 100
5, 322800, Note_on_c, 3, 53, 0
5, 323040, Note_on_c, 3, 51, 100
5, 323280, Note_on_c, 3, 51, 0
5, 323520, Note_on_c, 3, 53, 100
5, 323760, Note_on_c, 3, 53, 0
5, 324000, Note_on_c, 3, 51, 100
5, 324240, Note_on_c, 3, 51, 0
5, 324480, Note_on_c, 3, 54, 100
5, 324720, Note_on_c, 3, 54, 0
5, 324960, Note_on_c, 3, 51, 100
5, 325200, Note_on_c, 3, 51, 0
5, 325200, Note_on_c, 3, 54, 100
5, 325440, Note_on_c, 3, 54, 0
5, 325680, Note_on_c, 3, 51, 100
5, 325920, Note_on_c, 3, 51, 0
5, 325920, Note_on_c, 3, 53, 100
5, 326160, Note_on_c, 3, 53, 0
5, 326400, Note_on_c, 3, 54, 100
5, 326640, Note_on_c, 3, 54, 0
5, 326880, Note_on_c, 3, 52, 100
5, 327120, Note_on_c, 3, 52, 0
5, 327360, Note_on_c, 3, 54, 100
5, 327600, Note_on_c, 3, 54, 0
5, 327840, Note_on_c, 3, 52, 100
5, 328080, Note_on_c, 3, 52, 0
5, 328320, Note_on_c, 3, 55, 100
5, 328560, Note_on_c, 3, 55, 0
5, 328800, Note_on_c, 3, 52, 100
5, 329040, Note_on_c, 3, 52, 0
5, 329040, Note_on_c, 3, 55, 100
5, 329280, Note_on_c, 3, 55, 0
5, 329520, Note_on_c, 3, 52, 100
5, 329760, Note_on_c, 3, 52, 0
5, 329760, Note_on_c, 3, 54, 100
5, 330000, Note_on_c, 3, 54, 0
5, 330240, Note_on_c, 3, 55, 100
5, 330480, Note_on_c, 3, 55, 0
5, 330720, Note_on_c, 3, 52, 100
5, 330960, Note_on_c, 3, 52, 0
5, 331200, Note_on_c, 3, 55, 100
5, 331440, Note_on_c, 3, 55, 0
5, 331680, Note_on_c, 3, 53, 100
5, 331920, Note_on_c, 3, 53, 0
5, 332160, Note_on_c, 3, 57, 100
5, 332400, Note_on_c, 3, 57, 0
5, 333600, Note_on_c, 3, 51, 100
5, 333840, Note_on_c, 3, 51, 0
5, 334560, Note_on_c, 3, 48, 100
5, 334800, Note_on_c, 3, 48, 0
5, 335040, Note_on_c, 3, 50, 100
5, 335280, Note_on_c, 3, 50, 0
5, 335520, Note_on_c, 3, 48, 100
5, 335760, Note_on_c, 3, 48, 0
5, 336000, Note_on_c, 3, 47, 100
5, 337680, Note_on_c, 3, 47, 0
5, 337920, Note_on_c, 3, 49, 100
5, 338160, Note_on_c, 3, 49, 0
5, 338400, Note_on_c, 3, 47, 100
5, 338640, Note_on_c, 3, 47, 0
5, 339360, Note_on_c, 3, 51, 100
5, 339600, Note_on_c, 3, 51, 0
5, 340320, Note_on_c, 3, 47, 100
5, 340560, Note_on_c, 3, 47, 0
5, 341040, Note_on_c, 3, 50, 100
5, 341280, Note_on_c, 3, 50, 0
5, 341520, Note_on_c, 3, 51, 100
5, 341760, Note_on_c, 3, 51, 0
5, 342240, Note_on_c, 3, 49, 100
5, 342480, Note_on_c, 3, 49, 0
5, 342720, Note_on_c, 3, 47, 100
5, 342960, Note_on_c, 3, 47, 0
5, 343200, Note_on_c, 3, 48, 100
5, 343440, Note_on_c, 3, 48, 0
5, 343920, Note_on_c, 3, 51, 100
5, 344160, Note_on_c, 3, 51, 0
5, 344640, Note_on_c, 3, 49, 100
5, 344880, Note_on_c, 3, 49, 0
5, 345120, Note_on_c, 3, 47, 100
5, 345360, Note_on_c, 3, 47, 0
5, 345600, Note_on_c, 3, 48, 100
5, 346800, Note_on_c, 3, 48, 0
5, 347040, Note_on_c, 3, 54, 100
5, 347200, Note_on_c, 3, 54, 0
5, 347360, Note_on_c, 3, 52, 100
5, 347520, Note_on_c, 3, 52, 0
5, 347520, Note_on_c, 3, 54, 100
5, 347760, Note_on_c, 3, 54, 0
5, 348000, Note_on_c, 3, 51, 100
5, 348160, Note_on_c, 3, 51, 0
5, 348480, Note_on_c, 3, 49, 100
5, 348720, Note_on_c, 3, 49, 0
5, 348960, Note_on_c, 3, 54, 100
5, 349120, Note_on_c, 3, 54, 0
5, 349280, Note_on_c, 3, 52, 100
5, 349440, Note_on_c, 3, 52, 0
5, 349440, Note_on_c, 3, 54, 100
5, 349680, Note_on_c, 3, 54, 0
5, 349920, Note_on_c, 3, 51, 100
5, 350080, Note_on_c, 3, 51, 0
5, 350400, Note_on_c, 3, 49, 100
5, 350640, Note_on_c, 3, 49, 0
5, 350880, Note_on_c, 3, 54, 100
5, 351040, Note_on_c, 3, 54, 0
5, 351200, Note_on_c, 3, 52, 100
5, 351360, Note_on_c, 3, 52, 0
5, 351360, Note_on_c, 3, 53, 100
5, 352800, Note_on_c, 3, 53, 0
5, 353280, Note_on_c, 3, 41, 100
5, 353520, Note_on_c, 3, 41, 0
5, 353760, Note_on_c, 3, 40, 100
5, 356880, Note_on_c, 3, 40, 0
5, 357120, Note_on_c, 3, 41, 100
5, 357360, Note_on_c, 3, 41, 0
5, 357600, Note_on_c, 3, 40, 100
5, 359280, Note_on_c, 3, 40, 0
5, 359520, Note_on_c, 3, 41, 100
5, 359760, Note_on_c, 3, 41, 0
5, 360000, Note_on_c, 3, 43, 100
5, 360240, Note_on_c, 3, 43, 0
5, 360480, Note_on_c, 3, 41, 100
5, 361200, Note_on_c, 3, 41, 0
5, 361440, Note_on_c, 3, 40, 100
5, 368400, Note_on_c, 3, 40, 0
5, 368640, Note_on_c, 3, 41, 100
5, 368880, Note_on_c, 3, 41, 0
5, 369120, Note_on_c, 3, 40, 100
5, 372240, Note_on_c, 3, 40, 0
5, 372480, Note_on_c, 3, 41, 100
5, 372720, Note_on_c, 3, 41, 0
5, 372960, Note_on_c, 3, 40, 100
5, 374640, Note_on_c, 3, 40, 0
5, 374880, Note_on_c, 3, 41, 100
5, 375120, Note_on_c, 3, 41, 0
5, 375360, Note_on_c, 3, 43, 100
5, 375600, Note_on_c, 3, 43, 0
5, 375840, Note_on_c, 3, 41, 100
5, 376560, Note_on_c, 3, 41, 0
5, 376800, Note_on_c, 3, 40, 100
5, 383760, Note_on_c, 3, 40, 0
5, 384000, Note_on_c, 3, 41, 100
5, 384240, Note_on_c, 3, 41, 0
5, 384480, Note_on_c, 3, 40, 100
5, 387600, Note_on_c, 3, 40, 0
5, 387840, Note_on_c, 3, 41, 100
5, 388080, Note_on_c, 3, 41, 0
5, 388320, Note_on_c, 3, 40, 100
5, 390000, Note_on_c, 3, 40, 0
5, 390240, Note_on_c, 3, 41, 100
5, 390480, Note_on_c, 3, 41, 0
5, 390720, Note_on_c, 3, 43, 100
5, 390960, Note_on_c, 3, 43, 0
5, 391200, Note_on_c, 3, 41, 100
5, 391920, Note_on_c, 3, 41, 0
5, 392160, Note_on_c, 3, 40, 100
5, 399120, Note_on_c, 3, 40, 0
5, 399360, Note_on_c, 3, 41, 100
5, 399600, Note_on_c, 3, 41, 0
5, 399840, Note_on_c, 3, 40, 100
5, 402960, Note_on_c, 3, 40, 0
5, 403200, Note_on_c, 3, 41, 100
5, 403440, Note_on_c, 3, 41, 0
5, 403680, Note_on_c, 3, 40, 100
5, 405360, Note_on_c, 3, 40, 0
5, 405600, Note_on_c, 3, 41, 100
5, 405840, Note_on_c, 3, 41, 0
5, 406080, Note_on_c, 3, 43, 100
5, 406320, Note_on_c, 3, 43, 0
5, 406560, Note_on_c, 3, 41, 100
5, 407280, Note_on_c, 3, 41, 0
5, 407520, Note_on_c, 3, 40, 100
5, 414000, Note_on_c, 3, 40, 0
5, 414240, Note_on_c, 3, 46, 100
5, 414960, Note_on_c, 3, 46, 0
5, 415200, Note_on_c, 3, 44, 100
5, 415920, Note_on_c, 3, 44, 0
5, 416160, Note_on_c, 3, 43, 100
5, 416880, Note_on_c, 3, 43, 0
5, 417120, Note_on_c, 3, 46, 100
5, 418800, Note_on_c, 3, 46, 0
5, 419040, Note_on_c, 3, 44, 100
5, 419760, Note_on_c, 3, 44, 0
5, 420000, Note_on_c, 3, 43, 100
5, 420720, Note_on_c, 3, 43, 0
5, 420960, Note_on_c, 3, 46, 100
5, 422640, Note_on_c, 3, 46, 0
5, 422880, Note_on_c, 3, 44, 100
5, 423600, Note_on_c, 3, 44, 0
5, 423840, Note_on_c, 3, 43, 100
5, 424560, Note_on_c, 3, 43, 0
5, 424800, Note_on_c, 3, 46, 100
5, 426480, Note_on_c, 3, 46, 0
5, 426720, Note_on_c, 3, 44, 100
5, 427440, Note_on_c, 3, 44, 0
5, 427680, Note_on_c, 3, 43, 100
5, 428400, Note_on_c, 3, 43, 0
5, 428640, Note_on_c, 3, 46, 100
5, 430320, Note_on_c, 3, 46, 0
5, 430560, Note_on_c, 3, 44, 100
5, 431280, Note_on_c, 3, 44, 0
5, 431520, Note_on_c, 3, 43, 100
5, 432240, Note_on_c, 3, 43, 0
5, 432480, Note_on_c, 3, 46, 100
5, 434160, Note_on_c, 3, 46, 0
5, 434400, Note_on_c, 3, 44, 100
5, 435120, Note_on_c, 3, 44, 0
5, 435360, Note_on_c, 3, 43, 100
5, 436080, Note_on_c, 3, 43, 0
5, 436320, Note_on_c, 3, 46, 100
5, 438000, Note_on_c, 3, 46, 0
5, 438240, Note_on_c, 3, 44, 100
5, 438960, Note_on_c, 3, 44, 0
5, 439200, Note_on_c, 3, 43, 100
5, 439440, Note_on_c, 3, 43, 0
5, 440160, Note_on_c, 3, 40, 100
5, 440880, Note_on_c, 3, 40, 0
5, 441120, Note_on_c, 3, 46, 100
5, 443040, Note_on_c, 3, 46, 0
5, 443520, Note_on_c, 3, 41, 100
5, 444720, Note_on_c, 3, 41, 0
5, 444960, Note_on_c, 3, 40, 100
5, 445920, Note_on_c, 3, 40, 0
5, 446400, Note_on_c, 3, 47, 100
5, 450240, Note_on_c, 3, 47, 0
5, 450720, Note_on_c, 3, 45, 100
5, 451920, Note_on_c, 3, 45, 0
5, 452160, Note_on_c, 3, 40, 100
5, 453840, Note_on_c, 3, 40, 0
5, 454080, Note_on_c, 3, 44, 100
5, 456720, Note_on_c, 3, 44, 0
5, 456960, Note_on_c, 3, 46, 100
5, 458160, Note_on_c, 3, 46, 0
5, 458400, Note_on_c, 3, 44, 100
5, 459840, Note_on_c, 3, 44, 0
5, 460080, Note_on_c, 3, 41, 100
5, 460560, Note_on_c, 3, 41, 0
5, 460800, Note_on_c, 3, 40, 100
5, 461520, Note_on_c, 3, 40, 0
5, 461760, Note_on_c, 3, 47, 100
5, 465600, Note_on_c, 3, 47, 0
5, 466080, Note_on_c, 3, 45, 100
5, 467280, Note_on_c, 3, 45, 0
5, 467520, Note_on_c, 3, 40, 100
5, 469200, Note_on_c, 3, 40, 0
5, 469440, Note_on_c, 3, 44, 100
5, 472080, Note_on_c, 3, 44, 0
5, 472320, Note_on_c, 3, 45, 100
5, 475200, Note_on_c, 3, 45, 0
5, 476160, Note_on_c, 3, 40, 100
5, 477120, Note_on_c, 3, 40, 0
5, 477120, Note_on_c, 3, 47, 100
5, 480960, Note_on_c, 3, 47, 0
5, 481440, Note_on_c, 3, 45, 100
5, 482640, Note_on_c, 3, 45, 0
5, 482880, Note_on_c, 3, 40, 100
5, 484560, Note_on_c, 3, 40, 0
5, 484800, Note_on_c, 3, 44, 100
5, 487440, Note_on_c, 3, 44, 0
5, 487680, Note_on_c, 3, 46, 100
5, 488880, Note_on_c, 3, 46, 0
5, 489120, Note_on_c, 3, 44, 100
5, 490560, Note_on_c, 3, 44, 0
5, 490800, Note_on_c, 3, 41, 100
5, 491280, Note_on_c, 3, 41, 0
5, 491520, Note_on_c, 3, 40, 100
5, 492240, Note_on_c, 3, 40, 0
5, 492480, Note_on_c, 3, 47, 100
5, 496320, Note_on_c, 3, 47, 0
5, 496800, Note_on_c, 3, 45, 100
5, 498000, Note_on_c, 3, 45, 0
5, 498240, Note_on_c, 3, 40, 100
5, 499920, Note_on_c, 3, 40, 0
5, 500160, Note_on_c, 3, 44, 100
5, 502800, Note_on_c, 3, 44, 0
5, 503040, Note_on_c, 3, 46, 100
5, 504240, Note_on_c, 3, 46, 0
5, 504480, Note_on_c, 3, 44, 100
5, 505920, Note_on_c, 3, 44, 0
5, 506160, Note_on_c, 3, 41, 100
5, 506640, Note_on_c, 3, 41, 0
5, 506880, Note_on_c, 3, 42, 100
5, 507600, Note_on_c, 3, 42, 0
5, 507840, Note_on_c, 3, 44, 100
5, 510480, Note_on_c, 3, 44, 0
5, 510720, Note_on_c, 3, 45, 100
5, 513600, Note_on_c, 3, 45, 0
5, 514560, Note_on_c, 3, 41, 100
5, 514800, Note_on_c, 3, 41, 0
5, 515040, Note_on_c, 3, 40, 100
5, 518160, Note_on_c, 3, 40, 0
5, 518160, End_track
6, 0, Start_track
6, 0, Title_t, "BAND BASS"
6, 0, Text_t, "drum_off"
6, 0, Text_t, "[idle]"
6, 0, Text_t, "gtr_off"
6, 0, Text_t, "sing_off"
6, 5760, Text_t, "gtr_on"
6, 5760, Text_t, "drum_on"
6, 7680, Text_t, "[play]"
6, 7680, Text_t, "[verse]"
6, 15360, Text_t, "sing_on"
6, 67200, Text_t, "drum_double"
6, 68160, Text_t, "drum_normal"
6, 96000, Text_t, "drum_double"
6, 99840, Text_t, "[chorus]"
6, 99840, Text_t, "wail_on"
6, 99840, Text_t, "drum_normal"
6, 111360, Text_t, "drum_half"
6, 112320, Text_t, "drum_double"
6, 113280, Text_t, "drum_normal"
6, 126720, Text_t, "drum_allbeat"
6, 129600, Text_t, "drum_off"
6, 130560, Text_t, "[verse]"
6, 130560, Text_t, "drum_normal"
6, 131520, Text_t, "wail_off"
6, 190080, Text_t, "drum_double"
6, 191040, Text_t, "drum_normal"
6, 218880, Text_t, "drum_double"
6, 222720, Text_t, "wail_on"
6, 222720, Text_t, "[chorus]"
6, 222720, Text_t, "drum_normal"
6, 234240, Text_t, "drum_half"
6, 235200, Text_t, "drum_double"
6, 236160, Text_t, "drum_normal"
6, 249600, Text_t, "drum_allbeat"
6, 252480, Text_t, "drum_off"
6, 253440, Text_t, "drum_half"
6, 259200, Text_t, "drum_normal"
6, 261120, Text_t, "drum_half"
6, 265920, Text_t, "drum_double"
6, 266880, Text_t, "drum_allbeat"
6, 268800, Text_t, "drum_half"
6, 274560, Text_t, "drum_normal"
6, 276480, Text_t, "drum_half"
6, 281280, Text_t, "drum_double"
6, 282240, Text_t, "drum_allbeat"
6, 284160, Text_t, "drum_normal"
6, 288000, Text_t, "drum_allbeat"
6, 291840, Text_t, "[solo]"
6, 291840, Text_t, "solo_on"
6, 291840, Text_t, "wail_off"
6, 291840, Text_t, "drum_normal"
6, 295680, Text_t, "sing_off"
6, 307200, Text_t, "drum_half"
6, 313920, Text_t, "drum_normal"
6, 337920, Text_t, "drum_half"
6, 344640, Text_t, "drum_normal"
6, 353280, Text_t, "[verse]"
6, 353280, Text_t, "solo_off"
6, 360960, Text_t, "sing_on"
6, 412800, Text_t, "drum_double"
6, 413760, Text_t, "drum_normal"
6, 441600, Text_t, "drum_double"
6, 445440, Text_t, "[chorus]"
6, 445440, Text_t, "wail_on"
6, 445440, Text_t, "drum_normal"
6, 456960, Text_t, "drum_half"
6, 457920, Text_t, "drum_double"
6, 458880, Text_t, "drum_normal"
6, 472320, Text_t, "drum_allbeat"
6, 476160, Text_t, "drum_half"
6, 481920, Text_t, "drum_normal"
6, 483840, Text_t, "drum_half"
6, 486720, Text_t, "drum_double"
6, 487680, Text_t, "drum_half"
6, 488640, Text_t, "drum_double"
6, 490560, Text_t, "drum_half"
6, 497280, Text_t, "drum_normal"
6, 499200, Text_t, "drum_half"
6, 504000, Text_t, "drum_double"
6, 505920, Text_t, "drum_half"
6, 506880, Text_t, "drum_normal"
6, 510720, Text_t, "drum_allbeat"
6, 513600, Text_t, "drum_off"
6, 514560, Text_t, "drum_allbeat"
6, 515520, Text_t, "drum_double"
6, 516960, Text_t, "drum_off"
6, 516960, Text_t, "gtr_off"
6, 516960, Text_t, "[idle]"
6, 516960, Text_t, "sing_off"
6, 517438, Text_t, "[end]"
6, 517438, End_track
7, 0, Start_track
7, 0, Title_t, "BAND SINGER"
7, 0, Text_t, "drum_off"
7, 0, Text_t, "[idle]"
7, 0, Text_t, "gtr_off"
7, 0, Text_t, "[idle]"
7, 5760, Text_t, "gtr_on"
7, 5760, Text_t, "drum_on"
7, 7680, Text_t, "bass_on"
7, 7680, Text_t, "[verse]"
7, 15360, Text_t, "[play]"
7, 67200, Text_t, "drum_double"
7, 68160, Text_t, "drum_normal"
7, 96000, Text_t, "drum_double"
7, 99840, Text_t, "[chorus]"
7, 99840, Text_t, "wail_on"
7, 99840, Text_t, "drum_normal"
7, 111360, Text_t, "drum_half"
7, 112320, Text_t, "drum_double"
7, 113280, Text_t, "drum_normal"
7, 126720, Text_t, "drum_allbeat"
7, 129600, Text_t, "drum_off"
7, 130560, Text_t, "[verse]"
7, 130560, Text_t, "drum_normal"
7, 131520, Text_t, "wail_off"
7, 190080, Text_t, "drum_double"
7, 191040, Text_t, "drum_normal"
7, 218880, Text_t, "drum_double"
7, 222720, Text_t, "wail_on"
7, 222720, Text_t, "[chorus]"
7, 222720, Text_t, "drum_normal"
7, 234240, Text_t, "drum_half"
7, 235200, Text_t, "drum_double"
7, 236160, Text_t, "drum_normal"
7, 249600, Text_t, "drum_allbeat"
7, 252480, Text_t, "drum_off"
7, 253440, Text_t, "drum_half"
7, 259200, Text_t, "drum_normal"
7, 261120, Text_t, "drum_half"
7, 265920, Text_t, "drum_double"
7, 266880, Text_t, "drum_allbeat"
7, 268800, Text_t, "drum_half"
7, 274560, Text_t, "drum_normal"
7, 276480, Text_t, "drum_half"
7, 281280, Text_t, "drum_double"
7, 282240, Text_t, "drum_allbeat"
7, 284160, Text_t, "drum_normal"
7, 288000, Text_t, "drum_allbeat"
7, 291840, Text_t, "[solo]"
7, 291840, Text_t, "solo_on"
7, 291840, Text_t, "wail_off"
7, 291840, Text_t, "drum_normal"
7, 295680, Text_t, "[idle]"
7, 307200, Text_t, "drum_half"
7, 313920, Text_t, "drum_normal"
7, 337920, Text_t, "drum_half"
7, 344640, Text_t, "drum_normal"
7, 353280, Text_t, "[verse]"
7, 353280, Text_t, "solo_off"
7, 360960, Text_t, "[play]"
7, 412800, Text_t, "drum_double"
7, 413760, Text_t, "drum_normal"
7, 441600, Text_t, "drum_double"
7, 445440, Text_t, "[chorus]"
7, 445440, Text_t, "wail_on"
7, 445440, Text_t, "drum_normal"
7, 456960, Text_t, "drum_half"
7, 457920, Text_t, "drum_double"
7, 458880, Text_t, "drum_normal"
7, 472320, Text_t, "drum_allbeat"
7, 476160, Text_t, "drum_half"
7, 481920, Text_t, "drum_normal"
7, 483840, Text_t, "drum_half"
7, 486720, Text_t, "drum_double"
7, 487680, Text_t, "drum_half"
7, 488640, Text_t, "drum_double"
7, 490560, Text_t, "drum_half"
7, 497280, Text_t, "drum_normal"
7, 499200, Text_t, "drum_half"
7, 504000, Text_t, "drum_double"
7, 505920, Text_t, "drum_half"
7, 506880, Text_t, "drum_normal"
7, 510720, Text_t, "drum_allbeat"
7, 513600, Text_t, "drum_off"
7, 514560, Text_t, "drum_allbeat"
7, 515520, Text_t, "drum_double"
7, 516960, Text_t, "drum_off"
7, 516960, Text_t, "gtr_off"
7, 516960, Text_t, "[idle]"
7, 516960, Text_t, "[idle]"
7, 517438, Text_t, "[end]"
7, 517438, End_track
8, 0, Start_track
8, 0, Title_t, "BAND DRUMS"
8, 0, Text_t, "[idle]"
8, 0, Text_t, "bass_off"
8, 0, Text_t, "gtr_off"
8, 0, Text_t, "sing_off"
8, 5760, Text_t, "gtr_on"
8, 5760, Text_t, "[play]"
8, 7680, Text_t, "bass_on"
8, 7680, Text_t, "verse"
8, 15360, Text_t, "sing_on"
8, 67200, Text_t, "[double_time]"
8, 68160, Text_t, "[nobeat]"
8, 96000, Text_t, "[double_time]"
8, 99840, Text_t, "chorus"
8, 99840, Text_t, "wail_on"
8, 99840, Text_t, "[nobeat]"
8, 111360, Text_t, "[half_time]"
8, 112320, Text_t, "[double_time]"
8, 113280, Text_t, "[nobeat]"
8, 126720, Text_t, "[allbeat]"
8, 129600, Text_t, "[idle]"
8, 130560, Text_t, "verse"
8, 130560, Text_t, "[nobeat]"
8, 131520, Text_t, "wail_off"
8, 190080, Text_t, "[double_time]"
8, 191040, Text_t, "[nobeat]"
8, 218880, Text_t, "[double_time]"
8, 222720, Text_t, "wail_on"
8, 222720, Text_t, "chorus"
8, 222720, Text_t, "[nobeat]"
8, 234240, Text_t, "[half_time]"
8, 235200, Text_t, "[double_time]"
8, 236160, Text_t, "[nobeat]"
8, 249600, Text_t, "[allbeat]"
8, 252480, Text_t, "[idle]"
8, 253440, Text_t, "[half_time]"
8, 259200, Text_t, "[nobeat]"
8, 261120, Text_t, "[half_time]"
8, 265920, Text_t, "[double_time]"
8, 266880, Text_t, "[allbeat]"
8, 268800, Text_t, "[half_time]"
8, 274560, Text_t, "[nobeat]"
8, 276480, Text_t, "[half_time]"
8, 281280, Text_t, "[double_time]"
8, 282240, Text_t, "[allbeat]"
8, 284160, Text_t, "[nobeat]"
8, 288000, Text_t, "[allbeat]"
8, 291840, Text_t, "solo"
8, 291840, Text_t, "solo_on"
8, 291840, Text_t, "wail_off"
8, 291840, Text_t, "[nobeat]"
8, 295680, Text_t, "sing_off"
8, 307200, Text_t, "[half_time]"
8, 313920, Text_t, "[nobeat]"
8, 337920, Text_t, "[half_time]"
8, 344640, Text_t, "[nobeat]"
8, 353280, Text_t, "verse"
8, 353280, Text_t, "solo_off"
8, 360960, Text_t, "sing_on"
8, 412800, Text_t, "[double_time]"
8, 413760, Text_t, "[nobeat]"
8, 441600, Text_t, "[double_time]"
8, 445440, Text_t, "chorus"
8, 445440, Text_t, "wail_on"
8, 445440, Text_t, "[nobeat]"
8, 456960, Text_t, "[half_time]"
8, 457920, Text_t, "[double_time]"
8, 458880, Text_t, "[nobeat]"
8, 472320, Text_t, "[allbeat]"
8, 476160, Text_t, "[half_time]"
8, 481920, Text_t, "[nobeat]"
8, 483840, Text_t, "[half_time]"
8, 486720, Text_t, "[double_time]"
8, 487680, Text_t, "[half_time]"
8, 488640, Text_t, "[double_time]"
8, 490560, Text_t, "[half_time]"
8, 497280, Text_t, "[nobeat]"
8, 499200, Text_t, "[half_time]"
8, 504000, Text_t, "[double_time]"
8, 505920, Text_t, "[half_time]"
8, 506880, Text_t, "[nobeat]"
8, 510720, Text_t, "[allbeat]"
8, 513600, Text_t, "[idle]"
8, 514560, Text_t, "[allbeat]"
8, 515520, Text_t, "[double_time]"
8, 516960, Text_t, "[idle]"
8, 516960, Text_t, "gtr_off"
8, 516960, Text_t, "bass_off"
8, 516960, Text_t, "sing_off"
8, 517438, Text_t, "[end]"
8, 517438, End_track
0, 0, End_of_file
