0, 0, Header, 1, 8, 960
1, 0, Start_track
1, 0, Title_t, "ziggystardust"
1, 0, Time_signature, 4, 2, 24, 8
1, 0, Tempo, 774191
1, 3840, Tempo, 781758
1, 7680, Tempo, 769230
1, 11520, Tempo, 750000
1, 15360, Tempo, 779219
1, 19200, Tempo, 754715
1, 23040, Tempo, 769230
1, 26880, Tempo, 754715
1, 30720, Tempo, 769230
1, 34560, Tempo, 736195
1, 38400, Tempo, 766771
1, 42240, Tempo, 757097
1, 46080, Tempo, 764330
1, 49920, Tempo, 754715
1, 53760, Tempo, 740740
1, 57600, Tempo, 754715
1, 61440, Tempo, 736195
1, 69120, Tempo, 750000
1, 76800, Tempo, 754715
1, 80640, Tempo, 736195
1, 84480, Tempo, 745341
1, 92160, Tempo, 736195
1, 96000, Tempo, 701753
1, 99840, Tempo, 725075
1, 107520, Tempo, 731706
1, 111360, Tempo, 720718
1, 115200, Tempo, 727271
1, 126720, Tempo, 705882
1, 130560, Tempo, 784313
1, 134400, Tempo, 759491
1, 138240, Tempo, 769230
1, 142080, Tempo, 764330
1, 145920, Tempo, 759491
1, 149760, Tempo, 750000
1, 157440, Tempo, 759491
1, 161280, Tempo, 754715
1, 165120, Tempo, 740740
1, 168960, Tempo, 731706
1, 172800, Tempo, 705882
1, 176640, Tempo, 718562
1, 188160, Tempo, 722890
1, 195840, Tempo, 731706
1, 203520, Tempo, 720718
1, 207360, Tempo, 750000
1, 215040, Tempo, 757097
1, 222720, Tempo, 750000
1, 230400, Tempo, 731706
1, 234240, Tempo, 697673
1, 238080, Tempo, 731706
1, 241920, Tempo, 710057
1, 245760, Tempo, 731706
1, 253440, Tempo, 722890
1, 257280, Tempo, 727271
1, 264960, Tempo, 710057
1, 268800, Tempo, 789472
1, 272640, Tempo, 769230
1, 276480, Tempo, 759491
1, 280320, Tempo, 750000
1, 284160, Tempo, 769230
1, 291840, Tempo, 779219
1, 295680, Time_signature, 6, 2, 24, 8
1, 295680, Tempo, 851063
1, 301440, Time_signature, 4, 2, 24, 8
1, 301440, Tempo, 784313
1, 305280, Tempo, 625000
1, 309120, Tempo, 666665
1, 309120, End_track
2, 0, Start_track
2, 0, Title_t, "PART GUITAR"
2, 0, Text_t, "[idle]"
2, 7650, Text_t, "[play]"
2, 7650, Text_t, "sing_off"
2, 7650, Text_t, "bass_off"
2, 7650, Text_t, "drum_off"
2, 7650, Note_on_c, 0, 105, 100
2, 7650, Note_on_c, 0, 93, 100
2, 7650, Note_on_c, 0, 69, 100
2, 7650, Note_on_c, 0, 81, 100
2, 7680, Note_on_c, 0, 96, 100
2, 7680, Note_on_c, 0, 98, 100
2, 7680, Note_on_c, 0, 84, 100
2, 7680, Note_on_c, 0, 86, 100
2, 7680, Note_on_c, 0, 72, 100
2, 7680, Note_on_c, 0, 60, 100
2, 8640, Note_on_c, 0, 96, 0
2, 8640, Note_on_c, 0, 98, 0
2, 8640, Note_on_c, 0, 84, 0
2, 8640, Note_on_c, 0, 86, 0
2, 8640, Note_on_c, 0, 72, 0
2, 8640, Note_on_c, 0, 60, 0
2, 9600, Note_on_c, 0, 99, 100
2, 9600, Note_on_c, 0, 87, 100
2, 9600, Note_on_c, 0, 75, 100
2, 9600, Note_on_c, 0, 62, 100
2, 9840, Note_on_c, 0, 99, 0
2, 9840, Note_on_c, 0, 87, 0
2, 9840, Note_on_c, 0, 75, 0
2, 9840, Note_on_c, 0, 62, 0
2, 9840, Note_on_c, 0, 100, 100
2, 9840, Note_on_c, 0, 88, 100
2, 10080, Note_on_c, 0, 100, 0
2, 10080, Note_on_c, 0, 88, 0
2, 10080, Note_on_c, 0, 99, 100
2, 10080, Note_on_c, 0, 87, 100
2, 10080, Note_on_c, 0, 75, 100
2, 10320, Note_on_c, 0, 99, 0
2, 10320, Note_on_c, 0, 87, 0
2, 10320, Note_on_c, 0, 75, 0
2, 10320, Note_on_c, 0, 100, 100
2, 10320, Note_on_c, 0, 88, 100
2, 10560, Note_on_c, 0, 100, 0
2, 10560, Note_on_c, 0, 88, 0
2, 10560, Note_on_c, 0, 99, 100
2, 10560, Note_on_c, 0, 87, 100
2, 10560, Note_on_c, 0, 75, 100
2, 10560, Note_on_c, 0, 62, 100
2, 10800, Note_on_c, 0, 99, 0
2, 10800, Note_on_c, 0, 87, 0
2, 10800, Note_on_c, 0, 75, 0
2, 10800, Note_on_c, 0, 62, 0
2, 11040, Note_on_c, 0, 98, 100
2, 11040, Note_on_c, 0, 86, 100
2, 11280, Note_on_c, 0, 98, 0
2, 11280, Note_on_c, 0, 86, 0
2, 11520, Note_on_c, 0, 98, 100
2, 11520, Note_on_c, 0, 86, 100
2, 11520, Note_on_c, 0, 74, 100
2, 11520, Note_on_c, 0, 62, 100
2, 11760, Note_on_c, 0, 98, 0
2, 11760, Note_on_c, 0, 86, 0
2, 11760, Note_on_c, 0, 74, 0
2, 11760, Note_on_c, 0, 62, 0
2, 11760, Note_on_c, 0, 100, 100
2, 11760, Note_on_c, 0, 87, 100
2, 12000, Note_on_c, 0, 100, 0
2, 12000, Note_on_c, 0, 87, 0
2, 12000, Note_on_c, 0, 99, 100
2, 12240, Note_on_c, 0, 99, 0
2, 12240, Note_on_c, 0, 98, 100
2, 12240, Note_on_c, 0, 86, 100
2, 12240, Note_on_c, 0, 74, 100
2, 12480, Note_on_c, 0, 98, 0
2, 12480, Note_on_c, 0, 86, 0
2, 12480, Note_on_c, 0, 74, 0
2, 12480, Note_on_c, 0, 100, 100
2, 12480, Note_on_c, 0, 87, 100
2, 12720, Note_on_c, 0, 100, 0
2, 12720, Note_on_c, 0, 87, 0
2, 12720, Note_on_c, 0, 99, 100
2, 12960, Note_on_c, 0, 99, 0
2, 12960, Note_on_c, 0, 97, 100
2, 12960, Note_on_c, 0, 85, 100
2, 12960, Note_on_c, 0, 73, 100
2, 12960, Note_on_c, 0, 61, 100
2, 13200, Note_on_c, 0, 97, 0
2, 13200, Note_on_c, 0, 85, 0
2, 13200, Note_on_c, 0, 73, 0
2, 13200, Note_on_c, 0, 61, 0
2, 13200, Note_on_c, 0, 100, 100
2, 13200, Note_on_c, 0, 87, 100
2, 13440, Note_on_c, 0, 100, 0
2, 13440, Note_on_c, 0, 87, 0
2, 13440, Note_on_c, 0, 99, 100
2, 13680, Note_on_c, 0, 99, 0
2, 13680, Note_on_c, 0, 97, 100
2, 13680, Note_on_c, 0, 85, 100
2, 13680, Note_on_c, 0, 73, 100
2, 13920, Note_on_c, 0, 97, 0
2, 13920, Note_on_c, 0, 85, 0
2, 13920, Note_on_c, 0, 73, 0
2, 13920, Note_on_c, 0, 100, 100
2, 13920, Note_on_c, 0, 87, 100
2, 14160, Note_on_c, 0, 100, 0
2, 14160, Note_on_c, 0, 87, 0
2, 14160, Note_on_c, 0, 99, 100
2, 14400, Note_on_c, 0, 99, 0
2, 14400, Note_on_c, 0, 96, 100
2, 14400, Note_on_c, 0, 84, 100
2, 14400, Note_on_c, 0, 73, 100
2, 14400, Note_on_c, 0, 60, 100
2, 14640, Note_on_c, 0, 96, 0
2, 14640, Note_on_c, 0, 84, 0
2, 14640, Note_on_c, 0, 73, 0
2, 14640, Note_on_c, 0, 60, 0
2, 14640, Note_on_c, 0, 100, 100
2, 14640, Note_on_c, 0, 87, 100
2, 14640, Note_on_c, 0, 108, 100
2, 14880, Note_on_c, 0, 100, 0
2, 14880, Note_on_c, 0, 87, 0
2, 14880, Note_on_c, 0, 108, 0
2, 14880, Note_on_c, 0, 99, 100
2, 14880, Note_on_c, 0, 84, 100
2, 15120, Note_on_c, 0, 99, 0
2, 15120, Note_on_c, 0, 84, 0
2, 15330, Text_t, "[chorus]"
2, 15330, Text_t, "[play]"
2, 15330, Note_on_c, 0, 105, 0
2, 15330, Note_on_c, 0, 93, 0
2, 15330, Note_on_c, 0, 69, 0
2, 15330, Note_on_c, 0, 81, 0
2, 15330, Note_on_c, 0, 106, 100
2, 15330, Note_on_c, 0, 94, 100
2, 15330, Note_on_c, 0, 70, 100
2, 15330, Note_on_c, 0, 82, 100
2, 15360, Note_on_c, 0, 96, 100
2, 15360, Note_on_c, 0, 98, 100
2, 15360, Note_on_c, 0, 84, 100
2, 15360, Note_on_c, 0, 86, 100
2, 15360, Note_on_c, 0, 72, 100
2, 15360, Note_on_c, 0, 60, 100
2, 16320, Note_on_c, 0, 96, 0
2, 16320, Note_on_c, 0, 98, 0
2, 16320, Note_on_c, 0, 84, 0
2, 16320, Note_on_c, 0, 86, 0
2, 16320, Note_on_c, 0, 72, 0
2, 16320, Note_on_c, 0, 60, 0
2, 17280, Note_on_c, 0, 99, 100
2, 17280, Note_on_c, 0, 87, 100
2, 17280, Note_on_c, 0, 75, 100
2, 17280, Note_on_c, 0, 62, 100
2, 17520, Note_on_c, 0, 99, 0
2, 17520, Note_on_c, 0, 87, 0
2, 17520, Note_on_c, 0, 75, 0
2, 17520, Note_on_c, 0, 62, 0
2, 17520, Note_on_c, 0, 100, 100
2, 17520, Note_on_c, 0, 88, 100
2, 17760, Note_on_c, 0, 100, 0
2, 17760, Note_on_c, 0, 88, 0
2, 17760, Note_on_c, 0, 99, 100
2, 17760, Note_on_c, 0, 87, 100
2, 17760, Note_on_c, 0, 75, 100
2, 18000, Note_on_c, 0, 99, 0
2, 18000, Note_on_c, 0, 87, 0
2, 18000, Note_on_c, 0, 75, 0
2, 18000, Note_on_c, 0, 100, 100
2, 18000, Note_on_c, 0, 88, 100
2, 18240, Note_on_c, 0, 100, 0
2, 18240, Note_on_c, 0, 88, 0
2, 18240, Note_on_c, 0, 99, 100
2, 18240, Note_on_c, 0, 87, 100
2, 18240, Note_on_c, 0, 75, 100
2, 18240, Note_on_c, 0, 62, 100
2, 18480, Note_on_c, 0, 99, 0
2, 18480, Note_on_c, 0, 87, 0
2, 18480, Note_on_c, 0, 75, 0
2, 18480, Note_on_c, 0, 62, 0
2, 18720, Note_on_c, 0, 98, 100
2, 18720, Note_on_c, 0, 86, 100
2, 18960, Note_on_c, 0, 98, 0
2, 18960, Note_on_c, 0, 86, 0
2, 19200, Note_on_c, 0, 98, 100
2, 19200, Note_on_c, 0, 86, 100
2, 19200, Note_on_c, 0, 74, 100
2, 19200, Note_on_c, 0, 62, 100
2, 19440, Note_on_c, 0, 98, 0
2, 19440, Note_on_c, 0, 86, 0
2, 19440, Note_on_c, 0, 74, 0
2, 19440, Note_on_c, 0, 62, 0
2, 19440, Note_on_c, 0, 100, 100
2, 19440, Note_on_c, 0, 87, 100
2, 19680, Note_on_c, 0, 100, 0
2, 19680, Note_on_c, 0, 87, 0
2, 19680, Note_on_c, 0, 99, 100
2, 19920, Note_on_c, 0, 99, 0
2, 19920, Note_on_c, 0, 98, 100
2, 19920, Note_on_c, 0, 86, 100
2, 19920, Note_on_c, 0, 74, 100
2, 20160, Note_on_c, 0, 98, 0
2, 20160, Note_on_c, 0, 86, 0
2, 20160, Note_on_c, 0, 74, 0
2, 20160, Note_on_c, 0, 100, 100
2, 20160, Note_on_c, 0, 87, 100
2, 20400, Note_on_c, 0, 100, 0
2, 20400, Note_on_c, 0, 87, 0
2, 20400, Note_on_c, 0, 99, 100
2, 20640, Note_on_c, 0, 99, 0
2, 20640, Note_on_c, 0, 97, 100
2, 20640, Note_on_c, 0, 85, 100
2, 20640, Note_on_c, 0, 73, 100
2, 20640, Note_on_c, 0, 61, 100
2, 20880, Note_on_c, 0, 97, 0
2, 20880, Note_on_c, 0, 85, 0
2, 20880, Note_on_c, 0, 73, 0
2, 20880, Note_on_c, 0, 61, 0
2, 20880, Note_on_c, 0, 100, 100
2, 20880, Note_on_c, 0, 87, 100
2, 21120, Note_on_c, 0, 100, 0
2, 21120, Note_on_c, 0, 87, 0
2, 21120, Note_on_c, 0, 99, 100
2, 21360, Note_on_c, 0, 99, 0
2, 21360, Note_on_c, 0, 97, 100
2, 21360, Note_on_c, 0, 85, 100
2, 21360, Note_on_c, 0, 73, 100
2, 21600, Note_on_c, 0, 97, 0
2, 21600, Note_on_c, 0, 85, 0
2, 21600, Note_on_c, 0, 73, 0
2, 21600, Note_on_c, 0, 100, 100
2, 21600, Note_on_c, 0, 87, 100
2, 21840, Note_on_c, 0, 100, 0
2, 21840, Note_on_c, 0, 87, 0
2, 21840, Note_on_c, 0, 99, 100
2, 22080, Note_on_c, 0, 99, 0
2, 22080, Note_on_c, 0, 96, 100
2, 22080, Note_on_c, 0, 84, 100
2, 22080, Note_on_c, 0, 73, 100
2, 22080, Note_on_c, 0, 60, 100
2, 22320, Note_on_c, 0, 96, 0
2, 22320, Note_on_c, 0, 84, 0
2, 22320, Note_on_c, 0, 73, 0
2, 22320, Note_on_c, 0, 60, 0
2, 22320, Note_on_c, 0, 100, 100
2, 22320, Note_on_c, 0, 87, 100
2, 22560, Note_on_c, 0, 100, 0
2, 22560, Note_on_c, 0, 87, 0
2, 22560, Note_on_c, 0, 99, 100
2, 22560, Note_on_c, 0, 84, 100
2, 22800, Note_on_c, 0, 99, 0
2, 22800, Note_on_c, 0, 84, 0
2, 23010, Text_t, "drum_on"
2, 23010, Text_t, "bass_on"
2, 23010, Note_on_c, 0, 106, 0
2, 23010, Note_on_c, 0, 94, 0
2, 23010, Note_on_c, 0, 70, 0
2, 23010, Note_on_c, 0, 82, 0
2, 23010, Note_on_c, 0, 105, 100
2, 23010, Note_on_c, 0, 93, 100
2, 23010, Note_on_c, 0, 69, 100
2, 23010, Note_on_c, 0, 81, 100
2, 23040, Note_on_c, 0, 96, 100
2, 23040, Note_on_c, 0, 98, 100
2, 23040, Note_on_c, 0, 84, 100
2, 23040, Note_on_c, 0, 86, 100
2, 23040, Note_on_c, 0, 72, 100
2, 23040, Note_on_c, 0, 60, 100
2, 23040, Note_on_c, 0, 108, 100
2, 24000, Note_on_c, 0, 96, 0
2, 24000, Note_on_c, 0, 98, 0
2, 24000, Note_on_c, 0, 84, 0
2, 24000, Note_on_c, 0, 86, 0
2, 24000, Note_on_c, 0, 72, 0
2, 24000, Note_on_c, 0, 60, 0
2, 24960, Note_on_c, 0, 99, 100
2, 24960, Note_on_c, 0, 87, 100
2, 24960, Note_on_c, 0, 75, 100
2, 24960, Note_on_c, 0, 62, 100
2, 25200, Note_on_c, 0, 99, 0
2, 25200, Note_on_c, 0, 87, 0
2, 25200, Note_on_c, 0, 75, 0
2, 25200, Note_on_c, 0, 62, 0
2, 25200, Note_on_c, 0, 100, 100
2, 25200, Note_on_c, 0, 88, 100
2, 25440, Note_on_c, 0, 100, 0
2, 25440, Note_on_c, 0, 88, 0
2, 25440, Note_on_c, 0, 99, 100
2, 25440, Note_on_c, 0, 87, 100
2, 25440, Note_on_c, 0, 75, 100
2, 25680, Note_on_c, 0, 99, 0
2, 25680, Note_on_c, 0, 87, 0
2, 25680, Note_on_c, 0, 75, 0
2, 25680, Note_on_c, 0, 100, 100
2, 25680, Note_on_c, 0, 88, 100
2, 25920, Note_on_c, 0, 108, 0
2, 25920, Note_on_c, 0, 100, 0
2, 25920, Note_on_c, 0, 88, 0
2, 25920, Note_on_c, 0, 99, 100
2, 25920, Note_on_c, 0, 87, 100
2, 25920, Note_on_c, 0, 75, 100
2, 25920, Note_on_c, 0, 62, 100
2, 26160, Note_on_c, 0, 99, 0
2, 26160, Note_on_c, 0, 87, 0
2, 26160, Note_on_c, 0, 75, 0
2, 26160, Note_on_c, 0, 62, 0
2, 26160, Note_on_c, 0, 108, 100
2, 26400, Note_on_c, 0, 108, 0
2, 26400, Note_on_c, 0, 98, 100
2, 26400, Note_on_c, 0, 86, 100
2, 26640, Note_on_c, 0, 98, 0
2, 26640, Note_on_c, 0, 86, 0
2, 26640, Note_on_c, 0, 108, 100
2, 26880, Note_on_c, 0, 98, 100
2, 26880, Note_on_c, 0, 86, 100
2, 26880, Note_on_c, 0, 74, 100
2, 26880, Note_on_c, 0, 62, 100
2, 27120, Note_on_c, 0, 98, 0
2, 27120, Note_on_c, 0, 86, 0
2, 27120, Note_on_c, 0, 74, 0
2, 27120, Note_on_c, 0, 62, 0
2, 27120, Note_on_c, 0, 100, 100
2, 27120, Note_on_c, 0, 87, 100
2, 27360, Note_on_c, 0, 108, 0
2, 27360, Note_on_c, 0, 100, 0
2, 27360, Note_on_c, 0, 87, 0
2, 27360, Note_on_c, 0, 99, 100
2, 27600, Note_on_c, 0, 99, 0
2, 27600, Note_on_c, 0, 98, 100
2, 27600, Note_on_c, 0, 86, 100
2, 27600, Note_on_c, 0, 74, 100
2, 27840, Note_on_c, 0, 98, 0
2, 27840, Note_on_c, 0, 86, 0
2, 27840, Note_on_c, 0, 74, 0
2, 27840, Note_on_c, 0, 100, 100
2, 27840, Note_on_c, 0, 87, 100
2, 28080, Note_on_c, 0, 100, 0
2, 28080, Note_on_c, 0, 87, 0
2, 28080, Note_on_c, 0, 99, 100
2, 28320, Note_on_c, 0, 99, 0
2, 28320, Note_on_c, 0, 97, 100
2, 28320, Note_on_c, 0, 85, 100
2, 28320, Note_on_c, 0, 73, 100
2, 28320, Note_on_c, 0, 61, 100
2, 28560, Note_on_c, 0, 97, 0
2, 28560, Note_on_c, 0, 85, 0
2, 28560, Note_on_c, 0, 73, 0
2, 28560, Note_on_c, 0, 61, 0
2, 28560, Note_on_c, 0, 100, 100
2, 28560, Note_on_c, 0, 87, 100
2, 28770, Text_t, "drum_double"
2, 28800, Note_on_c, 0, 100, 0
2, 28800, Note_on_c, 0, 87, 0
2, 28800, Note_on_c, 0, 99, 100
2, 29040, Note_on_c, 0, 99, 0
2, 29040, Note_on_c, 0, 97, 100
2, 29040, Note_on_c, 0, 85, 100
2, 29040, Note_on_c, 0, 73, 100
2, 29280, Note_on_c, 0, 97, 0
2, 29280, Note_on_c, 0, 85, 0
2, 29280, Note_on_c, 0, 73, 0
2, 29280, Note_on_c, 0, 100, 100
2, 29280, Note_on_c, 0, 87, 100
2, 29520, Note_on_c, 0, 100, 0
2, 29520, Note_on_c, 0, 87, 0
2, 29520, Note_on_c, 0, 99, 100
2, 29760, Note_on_c, 0, 99, 0
2, 29760, Note_on_c, 0, 96, 100
2, 29760, Note_on_c, 0, 84, 100
2, 29760, Note_on_c, 0, 73, 100
2, 29760, Note_on_c, 0, 60, 100
2, 30000, Note_on_c, 0, 96, 0
2, 30000, Note_on_c, 0, 84, 0
2, 30000, Note_on_c, 0, 73, 0
2, 30000, Note_on_c, 0, 60, 0
2, 30000, Note_on_c, 0, 100, 100
2, 30000, Note_on_c, 0, 87, 100
2, 30240, Note_on_c, 0, 100, 0
2, 30240, Note_on_c, 0, 87, 0
2, 30240, Note_on_c, 0, 99, 100
2, 30240, Note_on_c, 0, 84, 100
2, 30480, Note_on_c, 0, 99, 0
2, 30480, Note_on_c, 0, 84, 0
2, 30690, Text_t, "drum_normal"
2, 30690, Note_on_c, 0, 105, 0
2, 30690, Note_on_c, 0, 93, 0
2, 30690, Note_on_c, 0, 69, 0
2, 30690, Note_on_c, 0, 81, 0
2, 30690, Note_on_c, 0, 106, 100
2, 30690, Note_on_c, 0, 94, 100
2, 30690, Note_on_c, 0, 70, 100
2, 30690, Note_on_c, 0, 82, 100
2, 30720, Note_on_c, 0, 96, 100
2, 30720, Note_on_c, 0, 98, 100
2, 30720, Note_on_c, 0, 84, 100
2, 30720, Note_on_c, 0, 86, 100
2, 30720, Note_on_c, 0, 72, 100
2, 30720, Note_on_c, 0, 60, 100
2, 31440, Note_on_c, 0, 108, 100
2, 31680, Note_on_c, 0, 96, 0
2, 31680, Note_on_c, 0, 98, 0
2, 31680, Note_on_c, 0, 84, 0
2, 31680, Note_on_c, 0, 86, 0
2, 31680, Note_on_c, 0, 72, 0
2, 31680, Note_on_c, 0, 60, 0
2, 31920, Note_on_c, 0, 108, 0
2, 32640, Note_on_c, 0, 99, 100
2, 32640, Note_on_c, 0, 87, 100
2, 32640, Note_on_c, 0, 75, 100
2, 32640, Note_on_c, 0, 62, 100
2, 32880, Note_on_c, 0, 99, 0
2, 32880, Note_on_c, 0, 87, 0
2, 32880, Note_on_c, 0, 75, 0
2, 32880, Note_on_c, 0, 62, 0
2, 32880, Note_on_c, 0, 100, 100
2, 32880, Note_on_c, 0, 88, 100
2, 33120, Note_on_c, 0, 100, 0
2, 33120, Note_on_c, 0, 88, 0
2, 33120, Note_on_c, 0, 99, 100
2, 33120, Note_on_c, 0, 87, 100
2, 33120, Note_on_c, 0, 75, 100
2, 33360, Note_on_c, 0, 99, 0
2, 33360, Note_on_c, 0, 87, 0
2, 33360, Note_on_c, 0, 75, 0
2, 33360, Note_on_c, 0, 100, 100
2, 33360, Note_on_c, 0, 88, 100
2, 33600, Note_on_c, 0, 100, 0
2, 33600, Note_on_c, 0, 88, 0
2, 33600, Note_on_c, 0, 99, 100
2, 33600, Note_on_c, 0, 87, 100
2, 33600, Note_on_c, 0, 75, 100
2, 33600, Note_on_c, 0, 62, 100
2, 33840, Note_on_c, 0, 99, 0
2, 33840, Note_on_c, 0, 87, 0
2, 33840, Note_on_c, 0, 75, 0
2, 33840, Note_on_c, 0, 62, 0
2, 34080, Note_on_c, 0, 98, 100
2, 34080, Note_on_c, 0, 86, 100
2, 34320, Note_on_c, 0, 98, 0
2, 34320, Note_on_c, 0, 86, 0
2, 34560, Note_on_c, 0, 98, 100
2, 34560, Note_on_c, 0, 86, 100
2, 34560, Note_on_c, 0, 74, 100
2, 34560, Note_on_c, 0, 62, 100
2, 34800, Note_on_c, 0, 98, 0
2, 34800, Note_on_c, 0, 86, 0
2, 34800, Note_on_c, 0, 74, 0
2, 34800, Note_on_c, 0, 62, 0
2, 34800, Note_on_c, 0, 100, 100
2, 34800, Note_on_c, 0, 87, 100
2, 35040, Note_on_c, 0, 100, 0
2, 35040, Note_on_c, 0, 87, 0
2, 35040, Note_on_c, 0, 99, 100
2, 35280, Note_on_c, 0, 99, 0
2, 35280, Note_on_c, 0, 98, 100
2, 35280, Note_on_c, 0, 86, 100
2, 35280, Note_on_c, 0, 74, 100
2, 35520, Note_on_c, 0, 98, 0
2, 35520, Note_on_c, 0, 86, 0
2, 35520, Note_on_c, 0, 74, 0
2, 35520, Note_on_c, 0, 100, 100
2, 35520, Note_on_c, 0, 87, 100
2, 35760, Note_on_c, 0, 100, 0
2, 35760, Note_on_c, 0, 87, 0
2, 35760, Note_on_c, 0, 99, 100
2, 36000, Note_on_c, 0, 99, 0
2, 36000, Note_on_c, 0, 97, 100
2, 36000, Note_on_c, 0, 85, 100
2, 36000, Note_on_c, 0, 73, 100
2, 36000, Note_on_c, 0, 61, 100
2, 36240, Note_on_c, 0, 97, 0
2, 36240, Note_on_c, 0, 85, 0
2, 36240, Note_on_c, 0, 73, 0
2, 36240, Note_on_c, 0, 61, 0
2, 36240, Note_on_c, 0, 100, 100
2, 36240, Note_on_c, 0, 87, 100
2, 36450, Text_t, "drum_double"
2, 36480, Note_on_c, 0, 100, 0
2, 36480, Note_on_c, 0, 87, 0
2, 36480, Note_on_c, 0, 99, 100
2, 36720, Note_on_c, 0, 99, 0
2, 36720, Note_on_c, 0, 97, 100
2, 36720, Note_on_c, 0, 85, 100
2, 36720, Note_on_c, 0, 73, 100
2, 36960, Note_on_c, 0, 97, 0
2, 36960, Note_on_c, 0, 85, 0
2, 36960, Note_on_c, 0, 73, 0
2, 36960, Note_on_c, 0, 100, 100
2, 36960, Note_on_c, 0, 87, 100
2, 37200, Note_on_c, 0, 100, 0
2, 37200, Note_on_c, 0, 87, 0
2, 37200, Note_on_c, 0, 99, 100
2, 37440, Note_on_c, 0, 99, 0
2, 37440, Note_on_c, 0, 96, 100
2, 37440, Note_on_c, 0, 84, 100
2, 37440, Note_on_c, 0, 73, 100
2, 37440, Note_on_c, 0, 60, 100
2, 37680, Note_on_c, 0, 96, 0
2, 37680, Note_on_c, 0, 84, 0
2, 37680, Note_on_c, 0, 73, 0
2, 37680, Note_on_c, 0, 60, 0
2, 37920, Note_on_c, 0, 87, 100
2, 37920, Note_on_c, 0, 100, 100
2, 38160, Note_on_c, 0, 87, 0
2, 38160, Note_on_c, 0, 100, 0
2, 38370, Text_t, "drum_normal"
2, 38370, Note_on_c, 0, 103, 100
2, 38370, Note_on_c, 0, 91, 100
2, 38370, Note_on_c, 0, 79, 100
2, 38370, Note_on_c, 0, 67, 100
2, 38370, Note_on_c, 0, 105, 100
2, 38370, Note_on_c, 0, 93, 100
2, 38370, Note_on_c, 0, 69, 100
2, 38370, Note_on_c, 0, 81, 100
2, 38400, Note_on_c, 0, 96, 100
2, 38400, Note_on_c, 0, 98, 100
2, 38400, Note_on_c, 0, 84, 100
2, 38400, Note_on_c, 0, 86, 100
2, 38400, Note_on_c, 0, 72, 100
2, 38400, Note_on_c, 0, 74, 100
2, 38400, Note_on_c, 0, 60, 100
2, 39120, Note_on_c, 0, 108, 100
2, 39360, Note_on_c, 0, 108, 0
2, 39480, Note_on_c, 0, 108, 100
2, 39600, Note_on_c, 0, 108, 0
2, 39840, Note_on_c, 0, 108, 100
2, 40320, Note_on_c, 0, 108, 0
2, 40560, Note_on_c, 0, 108, 100
2, 40800, Note_on_c, 0, 108, 0
2, 40800, Note_on_c, 0, 108, 100
2, 41280, Note_on_c, 0, 108, 0
2, 42210, Note_on_c, 0, 106, 0
2, 42210, Note_on_c, 0, 94, 0
2, 42210, Note_on_c, 0, 70, 0
2, 42210, Note_on_c, 0, 82, 0
2, 42210, Note_on_c, 0, 103, 0
2, 42210, Note_on_c, 0, 91, 0
2, 42210, Note_on_c, 0, 79, 0
2, 42210, Note_on_c, 0, 67, 0
2, 42240, Note_on_c, 0, 96, 0
2, 42240, Note_on_c, 0, 98, 0
2, 42240, Note_on_c, 0, 84, 0
2, 42240, Note_on_c, 0, 86, 0
2, 42240, Note_on_c, 0, 72, 0
2, 42240, Note_on_c, 0, 74, 0
2, 42240, Note_on_c, 0, 60, 0
2, 42720, Note_on_c, 0, 99, 100
2, 42720, Note_on_c, 0, 98, 100
2, 42720, Note_on_c, 0, 87, 100
2, 42720, Note_on_c, 0, 86, 100
2, 42720, Note_on_c, 0, 74, 100
2, 42720, Note_on_c, 0, 73, 100
2, 42720, Note_on_c, 0, 61, 100
2, 42960, Note_on_c, 0, 108, 100
2, 43200, Note_on_c, 0, 108, 0
2, 43200, Note_on_c, 0, 108, 100
2, 43440, Note_on_c, 0, 108, 0
2, 43680, Note_on_c, 0, 108, 100
2, 44130, Text_t, "drum_double"
2, 44160, Note_on_c, 0, 108, 0
2, 44400, Note_on_c, 0, 99, 0
2, 44400, Note_on_c, 0, 98, 0
2, 44400, Note_on_c, 0, 87, 0
2, 44400, Note_on_c, 0, 86, 0
2, 44400, Note_on_c, 0, 74, 0
2, 44400, Note_on_c, 0, 73, 0
2, 44400, Note_on_c, 0, 61, 0
2, 44400, Note_on_c, 0, 108, 100
2, 44640, Note_on_c, 0, 108, 0
2, 44640, Note_on_c, 0, 99, 100
2, 44640, Note_on_c, 0, 98, 100
2, 44640, Note_on_c, 0, 87, 100
2, 44640, Note_on_c, 0, 86, 100
2, 44640, Note_on_c, 0, 74, 100
2, 44640, Note_on_c, 0, 61, 100
2, 44880, Note_on_c, 0, 99, 0
2, 44880, Note_on_c, 0, 98, 0
2, 44880, Note_on_c, 0, 87, 0
2, 44880, Note_on_c, 0, 86, 0
2, 44880, Note_on_c, 0, 74, 0
2, 44880, Note_on_c, 0, 61, 0
2, 44880, Note_on_c, 0, 98, 100
2, 44880, Note_on_c, 0, 97, 100
2, 44880, Note_on_c, 0, 86, 100
2, 44880, Note_on_c, 0, 85, 100
2, 44880, Note_on_c, 0, 73, 100
2, 44880, Note_on_c, 0, 108, 100
2, 45120, Note_on_c, 0, 98, 0
2, 45120, Note_on_c, 0, 97, 0
2, 45120, Note_on_c, 0, 86, 0
2, 45120, Note_on_c, 0, 85, 0
2, 45120, Note_on_c, 0, 73, 0
2, 45120, Note_on_c, 0, 108, 0
2, 45120, Note_on_c, 0, 99, 100
2, 45120, Note_on_c, 0, 98, 100
2, 45120, Note_on_c, 0, 87, 100
2, 45120, Note_on_c, 0, 86, 100
2, 45120, Note_on_c, 0, 74, 100
2, 45360, Note_on_c, 0, 99, 0
2, 45360, Note_on_c, 0, 98, 0
2, 45360, Note_on_c, 0, 87, 0
2, 45360, Note_on_c, 0, 86, 0
2, 45360, Note_on_c, 0, 74, 0
2, 45360, Note_on_c, 0, 108, 100
2, 45600, Note_on_c, 0, 108, 0
2, 45840, Note_on_c, 0, 108, 100
2, 46050, Text_t, "sing_on"
2, 46050, Text_t, "[verse]"
2, 46050, Text_t, "drum_normal"
2, 46050, Note_on_c, 0, 105, 0
2, 46050, Note_on_c, 0, 93, 0
2, 46050, Note_on_c, 0, 69, 0
2, 46050, Note_on_c, 0, 81, 0
2, 46050, Note_on_c, 0, 106, 100
2, 46050, Note_on_c, 0, 94, 100
2, 46050, Note_on_c, 0, 70, 100
2, 46050, Note_on_c, 0, 82, 100
2, 46080, Note_on_c, 0, 108, 0
2, 46080, Note_on_c, 0, 99, 100
2, 46080, Note_on_c, 0, 97, 100
2, 46080, Note_on_c, 0, 87, 100
2, 46080, Note_on_c, 0, 85, 100
2, 46080, Note_on_c, 0, 75, 100
2, 46080, Note_on_c, 0, 74, 100
2, 46080, Note_on_c, 0, 62, 100
2, 46320, Note_on_c, 0, 108, 100
2, 46800, Note_on_c, 0, 108, 0
2, 47280, Note_on_c, 0, 108, 100
2, 47520, Note_on_c, 0, 108, 0
2, 47520, Note_on_c, 0, 108, 100
2, 47760, Note_on_c, 0, 99, 0
2, 47760, Note_on_c, 0, 97, 0
2, 47760, Note_on_c, 0, 87, 0
2, 47760, Note_on_c, 0, 85, 0
2, 47760, Note_on_c, 0, 75, 0
2, 47760, Note_on_c, 0, 74, 0
2, 47760, Note_on_c, 0, 62, 0
2, 47760, Note_on_c, 0, 108, 0
2, 47760, Note_on_c, 0, 108, 100
2, 48000, Note_on_c, 0, 108, 0
2, 48000, Note_on_c, 0, 97, 100
2, 48000, Note_on_c, 0, 85, 100
2, 48000, Note_on_c, 0, 73, 100
2, 48000, Note_on_c, 0, 60, 100
2, 48240, Note_on_c, 0, 97, 0
2, 48240, Note_on_c, 0, 85, 0
2, 48240, Note_on_c, 0, 73, 0
2, 48240, Note_on_c, 0, 60, 0
2, 48360, Note_on_c, 0, 108, 100
2, 48480, Note_on_c, 0, 108, 0
2, 48480, Note_on_c, 0, 96, 100
2, 48480, Note_on_c, 0, 84, 100
2, 48480, Note_on_c, 0, 72, 100
2, 48720, Note_on_c, 0, 96, 0
2, 48720, Note_on_c, 0, 84, 0
2, 48720, Note_on_c, 0, 72, 0
2, 48720, Note_on_c, 0, 108, 100
2, 48930, Note_on_c, 0, 105, 100
2, 48930, Note_on_c, 0, 93, 100
2, 48930, Note_on_c, 0, 69, 100
2, 48930, Note_on_c, 0, 81, 100
2, 48960, Note_on_c, 0, 108, 0
2, 48960, Note_on_c, 0, 97, 100
2, 48960, Note_on_c, 0, 85, 100
2, 48960, Note_on_c, 0, 73, 100
2, 48960, Note_on_c, 0, 61, 100
2, 49200, Note_on_c, 0, 97, 0
2, 49200, Note_on_c, 0, 85, 0
2, 49200, Note_on_c, 0, 73, 0
2, 49200, Note_on_c, 0, 61, 0
2, 49200, Note_on_c, 0, 108, 100
2, 49440, Note_on_c, 0, 98, 100
2, 49440, Note_on_c, 0, 86, 100
2, 49440, Note_on_c, 0, 74, 100
2, 49680, Note_on_c, 0, 108, 0
2, 49680, Note_on_c, 0, 98, 0
2, 49680, Note_on_c, 0, 86, 0
2, 49680, Note_on_c, 0, 74, 0
2, 49920, Note_on_c, 0, 99, 100
2, 49920, Note_on_c, 0, 87, 100
2, 49920, Note_on_c, 0, 73, 100
2, 49920, Note_on_c, 0, 62, 100
2, 50160, Note_on_c, 0, 73, 0
2, 50160, Note_on_c, 0, 62, 0
2, 50880, Note_on_c, 0, 99, 0
2, 50880, Note_on_c, 0, 87, 0
2, 50880, Note_on_c, 0, 99, 100
2, 50880, Note_on_c, 0, 88, 100
2, 50880, Note_on_c, 0, 74, 100
2, 50880, Note_on_c, 0, 62, 100
2, 51000, Note_on_c, 0, 99, 0
2, 51000, Note_on_c, 0, 100, 100
2, 51120, Note_on_c, 0, 88, 0
2, 51120, Note_on_c, 0, 74, 0
2, 51120, Note_on_c, 0, 62, 0
2, 51120, Note_on_c, 0, 108, 100
2, 51240, Note_on_c, 0, 100, 0
2, 51360, Note_on_c, 0, 108, 0
2, 51360, Note_on_c, 0, 99, 100
2, 51360, Note_on_c, 0, 87, 100
2, 51360, Note_on_c, 0, 73, 100
2, 51600, Note_on_c, 0, 73, 0
2, 51600, Note_on_c, 0, 108, 100
2, 51840, Note_on_c, 0, 108, 0
2, 52080, Note_on_c, 0, 108, 100
2, 52320, Note_on_c, 0, 99, 0
2, 52320, Note_on_c, 0, 87, 0
2, 52320, Note_on_c, 0, 108, 0
2, 52320, Note_on_c, 0, 98, 100
2, 52320, Note_on_c, 0, 86, 100
2, 52320, Note_on_c, 0, 74, 100
2, 52320, Note_on_c, 0, 61, 100
2, 52560, Note_on_c, 0, 98, 0
2, 52560, Note_on_c, 0, 86, 0
2, 52560, Note_on_c, 0, 74, 0
2, 52560, Note_on_c, 0, 61, 0
2, 52560, Note_on_c, 0, 108, 100
2, 52800, Note_on_c, 0, 108, 0
2, 52800, Note_on_c, 0, 97, 100
2, 52800, Note_on_c, 0, 85, 100
2, 52800, Note_on_c, 0, 73, 100
2, 53040, Note_on_c, 0, 73, 0
2, 53040, Note_on_c, 0, 108, 100
2, 53760, Note_on_c, 0, 97, 0
2, 53760, Note_on_c, 0, 85, 0
2, 53760, Note_on_c, 0, 108, 0
2, 53760, Note_on_c, 0, 96, 100
2, 53760, Note_on_c, 0, 84, 100
2, 53760, Note_on_c, 0, 72, 100
2, 53760, Note_on_c, 0, 60, 100
2, 54960, Note_on_c, 0, 108, 100
2, 55200, Note_on_c, 0, 108, 0
2, 55440, Note_on_c, 0, 108, 100
2, 55650, Text_t, "drum_double"
2, 55680, Note_on_c, 0, 108, 0
2, 55920, Note_on_c, 0, 108, 100
2, 56160, Note_on_c, 0, 108, 0
2, 56400, Note_on_c, 0, 108, 100
2, 56640, Note_on_c, 0, 108, 0
2, 56880, Note_on_c, 0, 108, 100
2, 57120, Note_on_c, 0, 108, 0
2, 57360, Note_on_c, 0, 108, 100
2, 57570, Text_t, "drum_normal"
2, 57570, Note_on_c, 0, 106, 0
2, 57570, Note_on_c, 0, 94, 0
2, 57570, Note_on_c, 0, 70, 0
2, 57570, Note_on_c, 0, 82, 0
2, 57600, Note_on_c, 0, 96, 0
2, 57600, Note_on_c, 0, 84, 0
2, 57600, Note_on_c, 0, 72, 0
2, 57600, Note_on_c, 0, 60, 0
2, 58080, Note_on_c, 0, 108, 0
2, 59010, Note_on_c, 0, 103, 100
2, 59010, Note_on_c, 0, 91, 100
2, 59010, Note_on_c, 0, 79, 100
2, 59010, Note_on_c, 0, 67, 100
2, 59040, Note_on_c, 0, 99, 100
2, 59040, Note_on_c, 0, 86, 100
2, 59040, Note_on_c, 0, 74, 100
2, 59040, Note_on_c, 0, 61, 100
2, 59280, Note_on_c, 0, 99, 0
2, 59280, Note_on_c, 0, 86, 0
2, 59280, Note_on_c, 0, 74, 0
2, 59280, Note_on_c, 0, 61, 0
2, 59760, Note_on_c, 0, 100, 100
2, 59760, Note_on_c, 0, 87, 100
2, 59760, Note_on_c, 0, 75, 100
2, 59760, Note_on_c, 0, 62, 100
2, 59760, Note_on_c, 0, 108, 100
2, 60000, Note_on_c, 0, 100, 0
2, 60000, Note_on_c, 0, 87, 0
2, 60000, Note_on_c, 0, 75, 0
2, 60000, Note_on_c, 0, 62, 0
2, 60000, Note_on_c, 0, 108, 0
2, 60000, Note_on_c, 0, 108, 100
2, 60240, Note_on_c, 0, 108, 0
2, 60480, Note_on_c, 0, 99, 100
2, 60480, Note_on_c, 0, 86, 100
2, 60480, Note_on_c, 0, 74, 100
2, 60480, Note_on_c, 0, 61, 100
2, 60690, Note_on_c, 0, 103, 0
2, 60690, Note_on_c, 0, 91, 0
2, 60690, Note_on_c, 0, 79, 0
2, 60690, Note_on_c, 0, 67, 0
2, 60720, Note_on_c, 0, 99, 0
2, 60720, Note_on_c, 0, 86, 0
2, 60720, Note_on_c, 0, 74, 0
2, 60720, Note_on_c, 0, 61, 0
2, 60720, Note_on_c, 0, 108, 100
2, 60960, Note_on_c, 0, 108, 0
2, 61320, Note_on_c, 0, 108, 100
2, 61410, Note_on_c, 0, 105, 0
2, 61410, Note_on_c, 0, 93, 0
2, 61410, Note_on_c, 0, 69, 0
2, 61410, Note_on_c, 0, 81, 0
2, 61410, Note_on_c, 0, 106, 100
2, 61410, Note_on_c, 0, 94, 100
2, 61410, Note_on_c, 0, 70, 100
2, 61410, Note_on_c, 0, 82, 100
2, 61440, Note_on_c, 0, 108, 0
2, 61440, Note_on_c, 0, 97, 100
2, 61440, Note_on_c, 0, 85, 100
2, 61440, Note_on_c, 0, 73, 100
2, 61440, Note_on_c, 0, 61, 100
2, 61440, Note_on_c, 0, 108, 100
2, 61680, Note_on_c, 0, 108, 0
2, 61680, Note_on_c, 0, 108, 100
2, 62160, Note_on_c, 0, 108, 0
2, 63600, Note_on_c, 0, 108, 100
2, 63840, Note_on_c, 0, 97, 0
2, 63840, Note_on_c, 0, 85, 0
2, 63840, Note_on_c, 0, 108, 0
2, 63840, Note_on_c, 0, 85, 100
2, 63840, Note_on_c, 0, 97, 100
2, 64080, Note_on_c, 0, 108, 100
2, 64320, Note_on_c, 0, 108, 0
2, 64560, Note_on_c, 0, 97, 0
2, 64560, Note_on_c, 0, 99, 100
2, 64560, Note_on_c, 0, 108, 100
2, 64800, Note_on_c, 0, 85, 0
2, 64800, Note_on_c, 0, 99, 0
2, 64800, Note_on_c, 0, 108, 0
2, 64800, Note_on_c, 0, 85, 100
2, 64800, Note_on_c, 0, 97, 100
2, 65040, Note_on_c, 0, 73, 0
2, 65040, Note_on_c, 0, 61, 0
2, 65040, Note_on_c, 0, 85, 0
2, 65040, Note_on_c, 0, 97, 0
2, 65040, Note_on_c, 0, 108, 100
2, 65280, Note_on_c, 0, 108, 0
2, 65280, Note_on_c, 0, 98, 100
2, 65280, Note_on_c, 0, 86, 100
2, 65280, Note_on_c, 0, 74, 100
2, 65280, Note_on_c, 0, 62, 100
2, 65280, Note_on_c, 0, 108, 100
2, 65520, Note_on_c, 0, 108, 0
2, 65760, Note_on_c, 0, 108, 100
2, 66240, Note_on_c, 0, 108, 0
2, 66480, Note_on_c, 0, 108, 100
2, 66960, Note_on_c, 0, 108, 0
2, 68640, Note_on_c, 0, 98, 0
2, 68640, Note_on_c, 0, 86, 0
2, 68640, Note_on_c, 0, 74, 0
2, 68640, Note_on_c, 0, 62, 0
2, 69090, Note_on_c, 0, 106, 0
2, 69090, Note_on_c, 0, 94, 0
2, 69090, Note_on_c, 0, 70, 0
2, 69090, Note_on_c, 0, 82, 0
2, 69090, Note_on_c, 0, 105, 100
2, 69090, Note_on_c, 0, 93, 100
2, 69090, Note_on_c, 0, 69, 100
2, 69090, Note_on_c, 0, 81, 100
2, 69120, Note_on_c, 0, 96, 100
2, 69120, Note_on_c, 0, 98, 100
2, 69120, Note_on_c, 0, 84, 100
2, 69120, Note_on_c, 0, 86, 100
2, 69120, Note_on_c, 0, 72, 100
2, 69120, Note_on_c, 0, 74, 100
2, 69120, Note_on_c, 0, 60, 100
2, 69840, Note_on_c, 0, 108, 100
2, 70080, Note_on_c, 0, 108, 0
2, 70080, Note_on_c, 0, 108, 100
2, 70560, Note_on_c, 0, 108, 0
2, 70800, Note_on_c, 0, 108, 100
2, 71040, Note_on_c, 0, 108, 0
2, 71280, Note_on_c, 0, 108, 100
2, 71520, Note_on_c, 0, 108, 0
2, 71880, Note_on_c, 0, 108, 100
2, 72240, Note_on_c, 0, 108, 0
2, 72480, Note_on_c, 0, 96, 0
2, 72480, Note_on_c, 0, 98, 0
2, 72480, Note_on_c, 0, 84, 0
2, 72480, Note_on_c, 0, 86, 0
2, 72480, Note_on_c, 0, 72, 0
2, 72480, Note_on_c, 0, 74, 0
2, 72480, Note_on_c, 0, 60, 0
2, 72840, Note_on_c, 0, 108, 100
2, 72960, Note_on_c, 0, 108, 0
2, 72960, Note_on_c, 0, 97, 100
2, 72960, Note_on_c, 0, 99, 100
2, 72960, Note_on_c, 0, 85, 100
2, 72960, Note_on_c, 0, 87, 100
2, 72960, Note_on_c, 0, 73, 100
2, 72960, Note_on_c, 0, 74, 100
2, 72960, Note_on_c, 0, 61, 100
2, 73200, Note_on_c, 0, 108, 100
2, 73440, Note_on_c, 0, 108, 0
2, 73440, Note_on_c, 0, 108, 100
2, 73920, Note_on_c, 0, 108, 0
2, 74160, Note_on_c, 0, 108, 100
2, 74400, Note_on_c, 0, 108, 0
2, 74760, Note_on_c, 0, 108, 100
2, 75120, Note_on_c, 0, 108, 0
2, 75600, Note_on_c, 0, 108, 100
2, 75840, Note_on_c, 0, 108, 0
2, 76080, Note_on_c, 0, 108, 100
2, 76560, Note_on_c, 0, 97, 0
2, 76560, Note_on_c, 0, 99, 0
2, 76560, Note_on_c, 0, 85, 0
2, 76560, Note_on_c, 0, 87, 0
2, 76560, Note_on_c, 0, 73, 0
2, 76560, Note_on_c, 0, 74, 0
2, 76560, Note_on_c, 0, 61, 0
2, 76800, Note_on_c, 0, 108, 0
2, 76800, Note_on_c, 0, 97, 100
2, 76800, Note_on_c, 0, 85, 100
2, 76800, Note_on_c, 0, 73, 100
2, 76800, Note_on_c, 0, 61, 100
2, 77040, Note_on_c, 0, 108, 100
2, 77280, Note_on_c, 0, 108, 0
2, 78000, Note_on_c, 0, 108, 100
2, 78240, Note_on_c, 0, 108, 0
2, 78240, Note_on_c, 0, 108, 100
2, 78480, Note_on_c, 0, 97, 0
2, 78480, Note_on_c, 0, 85, 0
2, 78480, Note_on_c, 0, 73, 0
2, 78480, Note_on_c, 0, 61, 0
2, 78480, Note_on_c, 0, 108, 0
2, 78480, Note_on_c, 0, 108, 100
2, 78690, Note_on_c, 0, 106, 100
2, 78690, Note_on_c, 0, 94, 100
2, 78690, Note_on_c, 0, 70, 100
2, 78690, Note_on_c, 0, 82, 100
2, 78720, Note_on_c, 0, 108, 0
2, 78720, Note_on_c, 0, 97, 100
2, 78720, Note_on_c, 0, 85, 100
2, 78720, Note_on_c, 0, 73, 100
2, 78720, Note_on_c, 0, 60, 100
2, 78960, Note_on_c, 0, 97, 0
2, 78960, Note_on_c, 0, 85, 0
2, 78960, Note_on_c, 0, 73, 0
2, 78960, Note_on_c, 0, 60, 0
2, 78960, Note_on_c, 0, 108, 100
2, 79200, Note_on_c, 0, 108, 0
2, 79200, Note_on_c, 0, 96, 100
2, 79200, Note_on_c, 0, 84, 100
2, 79200, Note_on_c, 0, 72, 100
2, 79440, Note_on_c, 0, 96, 0
2, 79440, Note_on_c, 0, 84, 0
2, 79440, Note_on_c, 0, 72, 0
2, 79440, Note_on_c, 0, 108, 100
2, 79680, Note_on_c, 0, 108, 0
2, 79680, Note_on_c, 0, 97, 100
2, 79680, Note_on_c, 0, 85, 100
2, 79680, Note_on_c, 0, 73, 100
2, 79680, Note_on_c, 0, 61, 100
2, 79920, Note_on_c, 0, 97, 0
2, 79920, Note_on_c, 0, 85, 0
2, 79920, Note_on_c, 0, 73, 0
2, 79920, Note_on_c, 0, 61, 0
2, 79920, Note_on_c, 0, 108, 100
2, 80160, Note_on_c, 0, 98, 100
2, 80160, Note_on_c, 0, 86, 100
2, 80160, Note_on_c, 0, 74, 100
2, 80400, Note_on_c, 0, 98, 0
2, 80400, Note_on_c, 0, 86, 0
2, 80400, Note_on_c, 0, 74, 0
2, 80610, Note_on_c, 0, 103, 100
2, 80610, Note_on_c, 0, 91, 100
2, 80610, Note_on_c, 0, 79, 100
2, 80610, Note_on_c, 0, 67, 100
2, 80640, Note_on_c, 0, 108, 0
2, 80640, Note_on_c, 0, 99, 100
2, 80640, Note_on_c, 0, 87, 100
2, 80640, Note_on_c, 0, 74, 100
2, 80640, Note_on_c, 0, 62, 100
2, 80880, Note_on_c, 0, 74, 0
2, 80880, Note_on_c, 0, 62, 0
2, 81600, Note_on_c, 0, 99, 0
2, 81600, Note_on_c, 0, 87, 0
2, 81600, Note_on_c, 0, 99, 100
2, 81600, Note_on_c, 0, 88, 100
2, 81600, Note_on_c, 0, 75, 100
2, 81600, Note_on_c, 0, 62, 100
2, 81720, Note_on_c, 0, 99, 0
2, 81720, Note_on_c, 0, 100, 100
2, 81840, Note_on_c, 0, 88, 0
2, 81840, Note_on_c, 0, 75, 0
2, 81840, Note_on_c, 0, 62, 0
2, 81840, Note_on_c, 0, 108, 100
2, 81960, Note_on_c, 0, 100, 0
2, 82080, Note_on_c, 0, 108, 0
2, 82080, Note_on_c, 0, 99, 100
2, 82080, Note_on_c, 0, 87, 100
2, 82080, Note_on_c, 0, 74, 100
2, 82080, Note_on_c, 0, 108, 100
2, 82320, Note_on_c, 0, 74, 0
2, 82320, Note_on_c, 0, 108, 0
2, 82320, Note_on_c, 0, 108, 100
2, 82560, Note_on_c, 0, 108, 0
2, 82560, Note_on_c, 0, 108, 100
2, 82800, Note_on_c, 0, 108, 0
2, 83040, Note_on_c, 0, 99, 0
2, 83040, Note_on_c, 0, 87, 0
2, 83040, Note_on_c, 0, 98, 100
2, 83040, Note_on_c, 0, 86, 100
2, 83040, Note_on_c, 0, 74, 100
2, 83040, Note_on_c, 0, 61, 100
2, 83280, Note_on_c, 0, 98, 0
2, 83280, Note_on_c, 0, 86, 0
2, 83280, Note_on_c, 0, 74, 0
2, 83280, Note_on_c, 0, 61, 0
2, 83280, Note_on_c, 0, 108, 100
2, 83490, Text_t, "drum_half"
2, 83520, Note_on_c, 0, 108, 0
2, 83520, Note_on_c, 0, 97, 100
2, 83520, Note_on_c, 0, 85, 100
2, 83520, Note_on_c, 0, 73, 100
2, 83760, Note_on_c, 0, 73, 0
2, 83880, Note_on_c, 0, 108, 100
2, 84000, Note_on_c, 0, 108, 0
2, 84240, Note_on_c, 0, 108, 100
2, 84450, Text_t, "drum_normal"
2, 84480, Note_on_c, 0, 97, 0
2, 84480, Note_on_c, 0, 85, 0
2, 84480, Note_on_c, 0, 96, 100
2, 84480, Note_on_c, 0, 84, 100
2, 84480, Note_on_c, 0, 72, 100
2, 84480, Note_on_c, 0, 60, 100
2, 84960, Note_on_c, 0, 108, 0
2, 85680, Note_on_c, 0, 108, 100
2, 85920, Note_on_c, 0, 108, 0
2, 85920, Note_on_c, 0, 108, 100
2, 86160, Note_on_c, 0, 108, 0
2, 86160, Note_on_c, 0, 108, 100
2, 86370, Text_t, "drum_double"
2, 86400, Note_on_c, 0, 108, 0
2, 86640, Note_on_c, 0, 108, 100
2, 86880, Note_on_c, 0, 108, 0
2, 87120, Note_on_c, 0, 108, 100
2, 87360, Note_on_c, 0, 108, 0
2, 87600, Note_on_c, 0, 108, 100
2, 88080, Note_on_c, 0, 108, 0
2, 88290, Text_t, "drum_normal"
2, 88290, Note_on_c, 0, 105, 0
2, 88290, Note_on_c, 0, 93, 0
2, 88290, Note_on_c, 0, 69, 0
2, 88290, Note_on_c, 0, 81, 0
2, 88290, Note_on_c, 0, 103, 0
2, 88290, Note_on_c, 0, 91, 0
2, 88290, Note_on_c, 0, 79, 0
2, 88290, Note_on_c, 0, 67, 0
2, 88320, Note_on_c, 0, 96, 0
2, 88320, Note_on_c, 0, 84, 0
2, 88320, Note_on_c, 0, 72, 0
2, 88320, Note_on_c, 0, 60, 0
2, 88320, Note_on_c, 0, 98, 100
2, 88320, Note_on_c, 0, 86, 100
2, 88320, Note_on_c, 0, 74, 100
2, 88320, Note_on_c, 0, 61, 100
2, 88320, Note_on_c, 0, 108, 100
2, 89040, Note_on_c, 0, 108, 0
2, 89280, Note_on_c, 0, 98, 0
2, 89280, Note_on_c, 0, 86, 0
2, 89280, Note_on_c, 0, 74, 0
2, 89280, Note_on_c, 0, 61, 0
2, 89760, Note_on_c, 0, 100, 100
2, 89760, Note_on_c, 0, 87, 100
2, 89760, Note_on_c, 0, 75, 100
2, 89760, Note_on_c, 0, 62, 100
2, 90000, Note_on_c, 0, 100, 0
2, 90000, Note_on_c, 0, 87, 0
2, 90000, Note_on_c, 0, 75, 0
2, 90240, Note_on_c, 0, 108, 100
2, 90480, Note_on_c, 0, 108, 0
2, 90480, Note_on_c, 0, 99, 100
2, 90480, Note_on_c, 0, 86, 100
2, 90480, Note_on_c, 0, 74, 100
2, 90480, Note_on_c, 0, 108, 100
2, 90720, Note_on_c, 0, 99, 0
2, 90720, Note_on_c, 0, 86, 0
2, 90720, Note_on_c, 0, 74, 0
2, 90720, Note_on_c, 0, 108, 0
2, 90960, Note_on_c, 0, 108, 100
2, 91200, Note_on_c, 0, 108, 0
2, 91200, Note_on_c, 0, 98, 100
2, 91200, Note_on_c, 0, 85, 100
2, 91200, Note_on_c, 0, 73, 100
2, 91440, Note_on_c, 0, 98, 0
2, 91440, Note_on_c, 0, 85, 0
2, 91440, Note_on_c, 0, 73, 0
2, 91560, Note_on_c, 0, 108, 100
2, 91680, Note_on_c, 0, 62, 0
2, 91680, Note_on_c, 0, 108, 0
2, 91920, Note_on_c, 0, 108, 100
2, 92130, Note_on_c, 0, 106, 0
2, 92130, Note_on_c, 0, 94, 0
2, 92130, Note_on_c, 0, 70, 0
2, 92130, Note_on_c, 0, 82, 0
2, 92130, Note_on_c, 0, 105, 100
2, 92130, Note_on_c, 0, 93, 100
2, 92130, Note_on_c, 0, 69, 100
2, 92130, Note_on_c, 0, 81, 100
2, 92160, Note_on_c, 0, 108, 0
2, 92160, Note_on_c, 0, 97, 100
2, 92160, Note_on_c, 0, 85, 100
2, 92160, Note_on_c, 0, 73, 100
2, 92160, Note_on_c, 0, 61, 100
2, 92400, Note_on_c, 0, 108, 100
2, 92640, Note_on_c, 0, 108, 0
2, 92880, Note_on_c, 0, 108, 100
2, 93600, Note_on_c, 0, 108, 0
2, 94320, Note_on_c, 0, 108, 100
2, 94560, Note_on_c, 0, 108, 0
2, 94800, Note_on_c, 0, 108, 100
2, 95040, Note_on_c, 0, 97, 0
2, 95040, Note_on_c, 0, 85, 0
2, 95040, Note_on_c, 0, 73, 0
2, 95040, Note_on_c, 0, 61, 0
2, 95040, Note_on_c, 0, 108, 0
2, 95280, Note_on_c, 0, 96, 100
2, 95280, Note_on_c, 0, 108, 100
2, 95520, Note_on_c, 0, 96, 0
2, 95520, Note_on_c, 0, 108, 0
2, 95520, Note_on_c, 0, 96, 100
2, 95520, Note_on_c, 0, 84, 100
2, 95520, Note_on_c, 0, 72, 100
2, 95520, Note_on_c, 0, 61, 100
2, 95760, Note_on_c, 0, 96, 0
2, 95760, Note_on_c, 0, 84, 0
2, 95760, Note_on_c, 0, 72, 0
2, 95760, Note_on_c, 0, 61, 0
2, 95760, Note_on_c, 0, 97, 100
2, 95760, Note_on_c, 0, 85, 100
2, 95880, Note_on_c, 0, 108, 100
2, 96000, Note_on_c, 0, 97, 0
2, 96000, Note_on_c, 0, 85, 0
2, 96000, Note_on_c, 0, 108, 0
2, 96000, Note_on_c, 0, 98, 100
2, 96000, Note_on_c, 0, 86, 100
2, 96000, Note_on_c, 0, 74, 100
2, 96000, Note_on_c, 0, 62, 100
2, 96240, Note_on_c, 0, 108, 100
2, 96480, Note_on_c, 0, 108, 0
2, 96720, Note_on_c, 0, 108, 100
2, 97200, Note_on_c, 0, 108, 0
2, 97440, Note_on_c, 0, 108, 100
2, 98160, Note_on_c, 0, 108, 0
2, 99360, Note_on_c, 0, 98, 0
2, 99360, Note_on_c, 0, 86, 0
2, 99360, Note_on_c, 0, 74, 0
2, 99360, Note_on_c, 0, 62, 0
2, 99810, Note_on_c, 0, 106, 100
2, 99810, Note_on_c, 0, 94, 100
2, 99810, Note_on_c, 0, 70, 100
2, 99810, Note_on_c, 0, 82, 100
2, 99840, Note_on_c, 0, 100, 100
2, 99840, Note_on_c, 0, 98, 100
2, 99840, Note_on_c, 0, 88, 100
2, 99840, Note_on_c, 0, 86, 100
2, 99840, Note_on_c, 0, 74, 100
2, 99840, Note_on_c, 0, 62, 100
2, 99840, Note_on_c, 0, 72, 100
2, 100080, Note_on_c, 0, 100, 0
2, 100080, Note_on_c, 0, 98, 0
2, 100080, Note_on_c, 0, 88, 0
2, 100080, Note_on_c, 0, 86, 0
2, 100080, Note_on_c, 0, 74, 0
2, 100080, Note_on_c, 0, 62, 0
2, 100080, Note_on_c, 0, 72, 0
2, 100080, Note_on_c, 0, 100, 100
2, 100080, Note_on_c, 0, 98, 100
2, 100080, Note_on_c, 0, 88, 100
2, 100080, Note_on_c, 0, 86, 100
2, 100080, Note_on_c, 0, 74, 100
2, 100080, Note_on_c, 0, 72, 100
2, 100320, Note_on_c, 0, 100, 0
2, 100320, Note_on_c, 0, 98, 0
2, 100320, Note_on_c, 0, 88, 0
2, 100320, Note_on_c, 0, 86, 0
2, 100320, Note_on_c, 0, 74, 0
2, 100320, Note_on_c, 0, 72, 0
2, 100320, Note_on_c, 0, 100, 100
2, 100320, Note_on_c, 0, 98, 100
2, 100320, Note_on_c, 0, 88, 100
2, 100320, Note_on_c, 0, 86, 100
2, 100320, Note_on_c, 0, 74, 100
2, 100320, Note_on_c, 0, 62, 100
2, 100320, Note_on_c, 0, 72, 100
2, 100560, Note_on_c, 0, 100, 0
2, 100560, Note_on_c, 0, 98, 0
2, 100560, Note_on_c, 0, 88, 0
2, 100560, Note_on_c, 0, 86, 0
2, 100560, Note_on_c, 0, 74, 0
2, 100560, Note_on_c, 0, 62, 0
2, 100560, Note_on_c, 0, 72, 0
2, 100560, Note_on_c, 0, 100, 100
2, 100560, Note_on_c, 0, 98, 100
2, 100560, Note_on_c, 0, 88, 100
2, 100560, Note_on_c, 0, 86, 100
2, 100560, Note_on_c, 0, 74, 100
2, 100560, Note_on_c, 0, 72, 100
2, 100800, Note_on_c, 0, 100, 0
2, 100800, Note_on_c, 0, 98, 0
2, 100800, Note_on_c, 0, 88, 0
2, 100800, Note_on_c, 0, 86, 0
2, 100800, Note_on_c, 0, 74, 0
2, 100800, Note_on_c, 0, 72, 0
2, 100800, Note_on_c, 0, 100, 100
2, 100800, Note_on_c, 0, 98, 100
2, 100800, Note_on_c, 0, 88, 100
2, 100800, Note_on_c, 0, 86, 100
2, 100800, Note_on_c, 0, 74, 100
2, 100800, Note_on_c, 0, 62, 100
2, 100800, Note_on_c, 0, 72, 100
2, 101040, Note_on_c, 0, 100, 0
2, 101040, Note_on_c, 0, 98, 0
2, 101040, Note_on_c, 0, 88, 0
2, 101040, Note_on_c, 0, 86, 0
2, 101040, Note_on_c, 0, 74, 0
2, 101040, Note_on_c, 0, 62, 0
2, 101040, Note_on_c, 0, 72, 0
2, 101160, Note_on_c, 0, 108, 100
2, 101280, Note_on_c, 0, 108, 0
2, 101520, Note_on_c, 0, 108, 100
2, 101760, Note_on_c, 0, 108, 0
2, 101760, Note_on_c, 0, 99, 100
2, 101760, Note_on_c, 0, 97, 100
2, 101760, Note_on_c, 0, 87, 100
2, 101760, Note_on_c, 0, 85, 100
2, 101760, Note_on_c, 0, 73, 100
2, 101760, Note_on_c, 0, 61, 100
2, 101760, Note_on_c, 0, 72, 100
2, 102000, Note_on_c, 0, 99, 0
2, 102000, Note_on_c, 0, 97, 0
2, 102000, Note_on_c, 0, 87, 0
2, 102000, Note_on_c, 0, 85, 0
2, 102000, Note_on_c, 0, 73, 0
2, 102000, Note_on_c, 0, 61, 0
2, 102000, Note_on_c, 0, 72, 0
2, 102000, Note_on_c, 0, 99, 100
2, 102000, Note_on_c, 0, 97, 100
2, 102000, Note_on_c, 0, 87, 100
2, 102000, Note_on_c, 0, 85, 100
2, 102000, Note_on_c, 0, 73, 100
2, 102000, Note_on_c, 0, 108, 100
2, 102000, Note_on_c, 0, 72, 100
2, 102240, Note_on_c, 0, 99, 0
2, 102240, Note_on_c, 0, 97, 0
2, 102240, Note_on_c, 0, 87, 0
2, 102240, Note_on_c, 0, 85, 0
2, 102240, Note_on_c, 0, 73, 0
2, 102240, Note_on_c, 0, 108, 0
2, 102240, Note_on_c, 0, 72, 0
2, 102240, Note_on_c, 0, 99, 100
2, 102240, Note_on_c, 0, 97, 100
2, 102240, Note_on_c, 0, 87, 100
2, 102240, Note_on_c, 0, 85, 100
2, 102240, Note_on_c, 0, 73, 100
2, 102240, Note_on_c, 0, 61, 100
2, 102240, Note_on_c, 0, 72, 100
2, 102480, Note_on_c, 0, 99, 0
2, 102480, Note_on_c, 0, 97, 0
2, 102480, Note_on_c, 0, 87, 0
2, 102480, Note_on_c, 0, 85, 0
2, 102480, Note_on_c, 0, 73, 0
2, 102480, Note_on_c, 0, 61, 0
2, 102480, Note_on_c, 0, 72, 0
2, 102480, Note_on_c, 0, 99, 100
2, 102480, Note_on_c, 0, 97, 100
2, 102480, Note_on_c, 0, 87, 100
2, 102480, Note_on_c, 0, 85, 100
2, 102480, Note_on_c, 0, 73, 100
2, 102480, Note_on_c, 0, 108, 100
2, 102480, Note_on_c, 0, 72, 100
2, 102720, Note_on_c, 0, 99, 0
2, 102720, Note_on_c, 0, 97, 0
2, 102720, Note_on_c, 0, 87, 0
2, 102720, Note_on_c, 0, 85, 0
2, 102720, Note_on_c, 0, 73, 0
2, 102720, Note_on_c, 0, 108, 0
2, 102720, Note_on_c, 0, 72, 0
2, 102720, Note_on_c, 0, 99, 100
2, 102720, Note_on_c, 0, 97, 100
2, 102720, Note_on_c, 0, 87, 100
2, 102720, Note_on_c, 0, 85, 100
2, 102720, Note_on_c, 0, 73, 100
2, 102720, Note_on_c, 0, 61, 100
2, 102720, Note_on_c, 0, 72, 100
2, 102960, Note_on_c, 0, 99, 0
2, 102960, Note_on_c, 0, 97, 0
2, 102960, Note_on_c, 0, 87, 0
2, 102960, Note_on_c, 0, 85, 0
2, 102960, Note_on_c, 0, 73, 0
2, 102960, Note_on_c, 0, 61, 0
2, 102960, Note_on_c, 0, 72, 0
2, 103080, Note_on_c, 0, 108, 100
2, 103440, Note_on_c, 0, 108, 0
2, 103650, Note_on_c, 0, 106, 0
2, 103650, Note_on_c, 0, 94, 0
2, 103650, Note_on_c, 0, 70, 0
2, 103650, Note_on_c, 0, 82, 0
2, 103680, Note_on_c, 0, 98, 100
2, 103680, Note_on_c, 0, 96, 100
2, 103680, Note_on_c, 0, 86, 100
2, 103680, Note_on_c, 0, 84, 100
2, 103680, Note_on_c, 0, 73, 100
2, 103680, Note_on_c, 0, 60, 100
2, 103920, Note_on_c, 0, 98, 0
2, 103920, Note_on_c, 0, 96, 0
2, 103920, Note_on_c, 0, 86, 0
2, 103920, Note_on_c, 0, 84, 0
2, 103920, Note_on_c, 0, 73, 0
2, 103920, Note_on_c, 0, 60, 0
2, 103920, Note_on_c, 0, 98, 100
2, 103920, Note_on_c, 0, 96, 100
2, 103920, Note_on_c, 0, 86, 100
2, 103920, Note_on_c, 0, 84, 100
2, 103920, Note_on_c, 0, 108, 100
2, 104160, Note_on_c, 0, 98, 0
2, 104160, Note_on_c, 0, 96, 0
2, 104160, Note_on_c, 0, 86, 0
2, 104160, Note_on_c, 0, 84, 0
2, 104160, Note_on_c, 0, 96, 100
2, 104160, Note_on_c, 0, 84, 100
2, 104160, Note_on_c, 0, 72, 100
2, 104160, Note_on_c, 0, 60, 100
2, 104160, Note_on_c, 0, 97, 100
2, 104400, Note_on_c, 0, 96, 0
2, 104400, Note_on_c, 0, 84, 0
2, 104400, Note_on_c, 0, 72, 0
2, 104400, Note_on_c, 0, 60, 0
2, 104400, Note_on_c, 0, 97, 0
2, 104400, Note_on_c, 0, 96, 100
2, 104400, Note_on_c, 0, 97, 100
2, 104400, Note_on_c, 0, 84, 100
2, 104640, Note_on_c, 0, 108, 0
2, 104640, Note_on_c, 0, 96, 0
2, 104640, Note_on_c, 0, 97, 0
2, 104640, Note_on_c, 0, 84, 0
2, 104640, Note_on_c, 0, 98, 100
2, 104640, Note_on_c, 0, 96, 100
2, 104640, Note_on_c, 0, 86, 100
2, 104640, Note_on_c, 0, 84, 100
2, 104640, Note_on_c, 0, 73, 100
2, 104640, Note_on_c, 0, 60, 100
2, 104880, Note_on_c, 0, 98, 0
2, 104880, Note_on_c, 0, 96, 0
2, 104880, Note_on_c, 0, 86, 0
2, 104880, Note_on_c, 0, 84, 0
2, 104880, Note_on_c, 0, 73, 0
2, 104880, Note_on_c, 0, 60, 0
2, 104880, Note_on_c, 0, 98, 100
2, 104880, Note_on_c, 0, 96, 100
2, 104880, Note_on_c, 0, 86, 100
2, 104880, Note_on_c, 0, 84, 100
2, 105120, Note_on_c, 0, 98, 0
2, 105120, Note_on_c, 0, 96, 0
2, 105120, Note_on_c, 0, 86, 0
2, 105120, Note_on_c, 0, 84, 0
2, 105120, Note_on_c, 0, 96, 100
2, 105120, Note_on_c, 0, 84, 100
2, 105120, Note_on_c, 0, 72, 100
2, 105120, Note_on_c, 0, 60, 100
2, 105120, Note_on_c, 0, 97, 100
2, 105360, Note_on_c, 0, 96, 0
2, 105360, Note_on_c, 0, 84, 0
2, 105360, Note_on_c, 0, 72, 0
2, 105360, Note_on_c, 0, 60, 0
2, 105360, Note_on_c, 0, 97, 0
2, 105360, Note_on_c, 0, 96, 100
2, 105360, Note_on_c, 0, 97, 100
2, 105360, Note_on_c, 0, 84, 100
2, 105570, Text_t, "drum_allbeat"
2, 105600, Note_on_c, 0, 96, 0
2, 105600, Note_on_c, 0, 97, 0
2, 105600, Note_on_c, 0, 84, 0
2, 105600, Note_on_c, 0, 98, 100
2, 105600, Note_on_c, 0, 96, 100
2, 105600, Note_on_c, 0, 86, 100
2, 105600, Note_on_c, 0, 84, 100
2, 105600, Note_on_c, 0, 73, 100
2, 105600, Note_on_c, 0, 60, 100
2, 105840, Note_on_c, 0, 98, 0
2, 105840, Note_on_c, 0, 96, 0
2, 105840, Note_on_c, 0, 86, 0
2, 105840, Note_on_c, 0, 84, 0
2, 105840, Note_on_c, 0, 73, 0
2, 105840, Note_on_c, 0, 60, 0
2, 105840, Note_on_c, 0, 98, 100
2, 105840, Note_on_c, 0, 96, 100
2, 105840, Note_on_c, 0, 86, 100
2, 105840, Note_on_c, 0, 84, 100
2, 106080, Note_on_c, 0, 98, 0
2, 106080, Note_on_c, 0, 96, 0
2, 106080, Note_on_c, 0, 86, 0
2, 106080, Note_on_c, 0, 84, 0
2, 106080, Note_on_c, 0, 96, 100
2, 106080, Note_on_c, 0, 84, 100
2, 106080, Note_on_c, 0, 72, 100
2, 106080, Note_on_c, 0, 60, 100
2, 106080, Note_on_c, 0, 97, 100
2, 106320, Note_on_c, 0, 96, 0
2, 106320, Note_on_c, 0, 84, 0
2, 106320, Note_on_c, 0, 72, 0
2, 106320, Note_on_c, 0, 60, 0
2, 106320, Note_on_c, 0, 97, 0
2, 106320, Note_on_c, 0, 96, 100
2, 106320, Note_on_c, 0, 97, 100
2, 106320, Note_on_c, 0, 84, 100
2, 106560, Note_on_c, 0, 96, 0
2, 106560, Note_on_c, 0, 97, 0
2, 106560, Note_on_c, 0, 84, 0
2, 106560, Note_on_c, 0, 98, 100
2, 106560, Note_on_c, 0, 96, 100
2, 106560, Note_on_c, 0, 86, 100
2, 106560, Note_on_c, 0, 84, 100
2, 106560, Note_on_c, 0, 73, 100
2, 106560, Note_on_c, 0, 60, 100
2, 106800, Note_on_c, 0, 98, 0
2, 106800, Note_on_c, 0, 96, 0
2, 106800, Note_on_c, 0, 86, 0
2, 106800, Note_on_c, 0, 84, 0
2, 106800, Note_on_c, 0, 73, 0
2, 106800, Note_on_c, 0, 60, 0
2, 107040, Note_on_c, 0, 97, 100
2, 107040, Note_on_c, 0, 99, 100
2, 107040, Note_on_c, 0, 85, 100
2, 107040, Note_on_c, 0, 87, 100
2, 107040, Note_on_c, 0, 74, 100
2, 107040, Note_on_c, 0, 61, 100
2, 107280, Note_on_c, 0, 97, 0
2, 107280, Note_on_c, 0, 99, 0
2, 107280, Note_on_c, 0, 85, 0
2, 107280, Note_on_c, 0, 87, 0
2, 107280, Note_on_c, 0, 74, 0
2, 107280, Note_on_c, 0, 61, 0
2, 107490, Text_t, "[chorus]"
2, 107490, Text_t, "[lighting (sweep)]"
2, 107490, Text_t, "drum_normal"
2, 107490, Note_on_c, 0, 106, 100
2, 107490, Note_on_c, 0, 94, 100
2, 107490, Note_on_c, 0, 70, 100
2, 107490, Note_on_c, 0, 82, 100
2, 107520, Note_on_c, 0, 100, 100
2, 107520, Note_on_c, 0, 98, 100
2, 107520, Note_on_c, 0, 88, 100
2, 107520, Note_on_c, 0, 86, 100
2, 107520, Note_on_c, 0, 62, 100
2, 107520, Note_on_c, 0, 74, 100
2, 107520, Note_on_c, 0, 72, 100
2, 107760, Note_on_c, 0, 100, 0
2, 107760, Note_on_c, 0, 98, 0
2, 107760, Note_on_c, 0, 88, 0
2, 107760, Note_on_c, 0, 86, 0
2, 107760, Note_on_c, 0, 62, 0
2, 107760, Note_on_c, 0, 74, 0
2, 107760, Note_on_c, 0, 72, 0
2, 107760, Note_on_c, 0, 100, 100
2, 107760, Note_on_c, 0, 98, 100
2, 107760, Note_on_c, 0, 88, 100
2, 107760, Note_on_c, 0, 86, 100
2, 107760, Note_on_c, 0, 74, 100
2, 107760, Note_on_c, 0, 72, 100
2, 108000, Note_on_c, 0, 100, 0
2, 108000, Note_on_c, 0, 98, 0
2, 108000, Note_on_c, 0, 88, 0
2, 108000, Note_on_c, 0, 86, 0
2, 108000, Note_on_c, 0, 74, 0
2, 108000, Note_on_c, 0, 72, 0
2, 108000, Note_on_c, 0, 100, 100
2, 108000, Note_on_c, 0, 98, 100
2, 108000, Note_on_c, 0, 88, 100
2, 108000, Note_on_c, 0, 86, 100
2, 108000, Note_on_c, 0, 62, 100
2, 108000, Note_on_c, 0, 74, 100
2, 108000, Note_on_c, 0, 72, 100
2, 108240, Note_on_c, 0, 100, 0
2, 108240, Note_on_c, 0, 98, 0
2, 108240, Note_on_c, 0, 88, 0
2, 108240, Note_on_c, 0, 86, 0
2, 108240, Note_on_c, 0, 62, 0
2, 108240, Note_on_c, 0, 74, 0
2, 108240, Note_on_c, 0, 72, 0
2, 108240, Note_on_c, 0, 100, 100
2, 108240, Note_on_c, 0, 98, 100
2, 108240, Note_on_c, 0, 88, 100
2, 108240, Note_on_c, 0, 86, 100
2, 108240, Note_on_c, 0, 108, 100
2, 108240, Note_on_c, 0, 74, 100
2, 108240, Note_on_c, 0, 72, 100
2, 108480, Note_on_c, 0, 100, 0
2, 108480, Note_on_c, 0, 98, 0
2, 108480, Note_on_c, 0, 88, 0
2, 108480, Note_on_c, 0, 86, 0
2, 108480, Note_on_c, 0, 108, 0
2, 108480, Note_on_c, 0, 74, 0
2, 108480, Note_on_c, 0, 72, 0
2, 108480, Note_on_c, 0, 100, 100
2, 108480, Note_on_c, 0, 98, 100
2, 108480, Note_on_c, 0, 88, 100
2, 108480, Note_on_c, 0, 86, 100
2, 108480, Note_on_c, 0, 62, 100
2, 108480, Note_on_c, 0, 74, 100
2, 108480, Note_on_c, 0, 72, 100
2, 108720, Note_on_c, 0, 100, 0
2, 108720, Note_on_c, 0, 98, 0
2, 108720, Note_on_c, 0, 88, 0
2, 108720, Note_on_c, 0, 86, 0
2, 108720, Note_on_c, 0, 62, 0
2, 108720, Note_on_c, 0, 74, 0
2, 108720, Note_on_c, 0, 72, 0
2, 108720, Note_on_c, 0, 108, 100
2, 108960, Note_on_c, 0, 108, 0
2, 108960, Note_on_c, 0, 108, 100
2, 109440, Note_on_c, 0, 108, 0
2, 109440, Note_on_c, 0, 99, 100
2, 109440, Note_on_c, 0, 97, 100
2, 109440, Note_on_c, 0, 87, 100
2, 109440, Note_on_c, 0, 85, 100
2, 109440, Note_on_c, 0, 61, 100
2, 109440, Note_on_c, 0, 73, 100
2, 109440, Note_on_c, 0, 72, 100
2, 109680, Note_on_c, 0, 99, 0
2, 109680, Note_on_c, 0, 97, 0
2, 109680, Note_on_c, 0, 87, 0
2, 109680, Note_on_c, 0, 85, 0
2, 109680, Note_on_c, 0, 61, 0
2, 109680, Note_on_c, 0, 73, 0
2, 109680, Note_on_c, 0, 72, 0
2, 109680, Note_on_c, 0, 99, 100
2, 109680, Note_on_c, 0, 97, 100
2, 109680, Note_on_c, 0, 87, 100
2, 109680, Note_on_c, 0, 85, 100
2, 109680, Note_on_c, 0, 108, 100
2, 109680, Note_on_c, 0, 73, 100
2, 109680, Note_on_c, 0, 72, 100
2, 109920, Note_on_c, 0, 99, 0
2, 109920, Note_on_c, 0, 97, 0
2, 109920, Note_on_c, 0, 87, 0
2, 109920, Note_on_c, 0, 85, 0
2, 109920, Note_on_c, 0, 108, 0
2, 109920, Note_on_c, 0, 73, 0
2, 109920, Note_on_c, 0, 72, 0
2, 109920, Note_on_c, 0, 99, 100
2, 109920, Note_on_c, 0, 97, 100
2, 109920, Note_on_c, 0, 87, 100
2, 109920, Note_on_c, 0, 85, 100
2, 109920, Note_on_c, 0, 61, 100
2, 109920, Note_on_c, 0, 73, 100
2, 109920, Note_on_c, 0, 72, 100
2, 110160, Note_on_c, 0, 99, 0
2, 110160, Note_on_c, 0, 97, 0
2, 110160, Note_on_c, 0, 87, 0
2, 110160, Note_on_c, 0, 85, 0
2, 110160, Note_on_c, 0, 61, 0
2, 110160, Note_on_c, 0, 73, 0
2, 110160, Note_on_c, 0, 72, 0
2, 110160, Note_on_c, 0, 99, 100
2, 110160, Note_on_c, 0, 97, 100
2, 110160, Note_on_c, 0, 87, 100
2, 110160, Note_on_c, 0, 85, 100
2, 110160, Note_on_c, 0, 108, 100
2, 110160, Note_on_c, 0, 73, 100
2, 110160, Note_on_c, 0, 72, 100
2, 110400, Note_on_c, 0, 99, 0
2, 110400, Note_on_c, 0, 97, 0
2, 110400, Note_on_c, 0, 87, 0
2, 110400, Note_on_c, 0, 85, 0
2, 110400, Note_on_c, 0, 108, 0
2, 110400, Note_on_c, 0, 73, 0
2, 110400, Note_on_c, 0, 72, 0
2, 110400, Note_on_c, 0, 99, 100
2, 110400, Note_on_c, 0, 97, 100
2, 110400, Note_on_c, 0, 87, 100
2, 110400, Note_on_c, 0, 85, 100
2, 110400, Note_on_c, 0, 61, 100
2, 110400, Note_on_c, 0, 73, 100
2, 110400, Note_on_c, 0, 72, 100
2, 110640, Note_on_c, 0, 99, 0
2, 110640, Note_on_c, 0, 97, 0
2, 110640, Note_on_c, 0, 87, 0
2, 110640, Note_on_c, 0, 85, 0
2, 110640, Note_on_c, 0, 61, 0
2, 110640, Note_on_c, 0, 73, 0
2, 110640, Note_on_c, 0, 72, 0
2, 110640, Note_on_c, 0, 108, 100
2, 111330, Note_on_c, 0, 105, 0
2, 111330, Note_on_c, 0, 93, 0
2, 111330, Note_on_c, 0, 69, 0
2, 111330, Note_on_c, 0, 81, 0
2, 111360, Note_on_c, 0, 108, 0
2, 111360, Note_on_c, 0, 98, 100
2, 111360, Note_on_c, 0, 96, 100
2, 111360, Note_on_c, 0, 86, 100
2, 111360, Note_on_c, 0, 84, 100
2, 111360, Note_on_c, 0, 60, 100
2, 111360, Note_on_c, 0, 73, 100
2, 111600, Note_on_c, 0, 98, 0
2, 111600, Note_on_c, 0, 96, 0
2, 111600, Note_on_c, 0, 86, 0
2, 111600, Note_on_c, 0, 84, 0
2, 111600, Note_on_c, 0, 60, 0
2, 111600, Note_on_c, 0, 73, 0
2, 111600, Note_on_c, 0, 98, 100
2, 111600, Note_on_c, 0, 96, 100
2, 111600, Note_on_c, 0, 86, 100
2, 111600, Note_on_c, 0, 84, 100
2, 111600, Note_on_c, 0, 108, 100
2, 111840, Note_on_c, 0, 98, 0
2, 111840, Note_on_c, 0, 96, 0
2, 111840, Note_on_c, 0, 86, 0
2, 111840, Note_on_c, 0, 84, 0
2, 111840, Note_on_c, 0, 108, 0
2, 111840, Note_on_c, 0, 96, 100
2, 111840, Note_on_c, 0, 84, 100
2, 111840, Note_on_c, 0, 60, 100
2, 111840, Note_on_c, 0, 97, 100
2, 111840, Note_on_c, 0, 72, 100
2, 112080, Note_on_c, 0, 96, 0
2, 112080, Note_on_c, 0, 84, 0
2, 112080, Note_on_c, 0, 60, 0
2, 112080, Note_on_c, 0, 97, 0
2, 112080, Note_on_c, 0, 72, 0
2, 112080, Note_on_c, 0, 96, 100
2, 112080, Note_on_c, 0, 97, 100
2, 112080, Note_on_c, 0, 84, 100
2, 112080, Note_on_c, 0, 108, 100
2, 112320, Note_on_c, 0, 96, 0
2, 112320, Note_on_c, 0, 97, 0
2, 112320, Note_on_c, 0, 84, 0
2, 112320, Note_on_c, 0, 108, 0
2, 112320, Note_on_c, 0, 98, 100
2, 112320, Note_on_c, 0, 96, 100
2, 112320, Note_on_c, 0, 86, 100
2, 112320, Note_on_c, 0, 84, 100
2, 112320, Note_on_c, 0, 60, 100
2, 112320, Note_on_c, 0, 108, 100
2, 112320, Note_on_c, 0, 73, 100
2, 112560, Note_on_c, 0, 98, 0
2, 112560, Note_on_c, 0, 96, 0
2, 112560, Note_on_c, 0, 86, 0
2, 112560, Note_on_c, 0, 84, 0
2, 112560, Note_on_c, 0, 60, 0
2, 112560, Note_on_c, 0, 108, 0
2, 112560, Note_on_c, 0, 73, 0
2, 112560, Note_on_c, 0, 98, 100
2, 112560, Note_on_c, 0, 96, 100
2, 112560, Note_on_c, 0, 86, 100
2, 112560, Note_on_c, 0, 84, 100
2, 112560, Note_on_c, 0, 108, 100
2, 112800, Note_on_c, 0, 98, 0
2, 112800, Note_on_c, 0, 96, 0
2, 112800, Note_on_c, 0, 86, 0
2, 112800, Note_on_c, 0, 84, 0
2, 112800, Note_on_c, 0, 96, 100
2, 112800, Note_on_c, 0, 84, 100
2, 112800, Note_on_c, 0, 60, 100
2, 112800, Note_on_c, 0, 97, 100
2, 112800, Note_on_c, 0, 72, 100
2, 113040, Note_on_c, 0, 108, 0
2, 113040, Note_on_c, 0, 96, 0
2, 113040, Note_on_c, 0, 84, 0
2, 113040, Note_on_c, 0, 60, 0
2, 113040, Note_on_c, 0, 97, 0
2, 113040, Note_on_c, 0, 72, 0
2, 113040, Note_on_c, 0, 96, 100
2, 113040, Note_on_c, 0, 97, 100
2, 113040, Note_on_c, 0, 84, 100
2, 113250, Text_t, "drum_allbeat"
2, 113280, Note_on_c, 0, 96, 0
2, 113280, Note_on_c, 0, 97, 0
2, 113280, Note_on_c, 0, 84, 0
2, 113280, Note_on_c, 0, 98, 100
2, 113280, Note_on_c, 0, 96, 100
2, 113280, Note_on_c, 0, 86, 100
2, 113280, Note_on_c, 0, 84, 100
2, 113280, Note_on_c, 0, 60, 100
2, 113280, Note_on_c, 0, 73, 100
2, 113520, Note_on_c, 0, 98, 0
2, 113520, Note_on_c, 0, 96, 0
2, 113520, Note_on_c, 0, 86, 0
2, 113520, Note_on_c, 0, 84, 0
2, 113520, Note_on_c, 0, 60, 0
2, 113520, Note_on_c, 0, 73, 0
2, 113520, Note_on_c, 0, 98, 100
2, 113520, Note_on_c, 0, 96, 100
2, 113520, Note_on_c, 0, 86, 100
2, 113520, Note_on_c, 0, 84, 100
2, 113760, Note_on_c, 0, 98, 0
2, 113760, Note_on_c, 0, 96, 0
2, 113760, Note_on_c, 0, 86, 0
2, 113760, Note_on_c, 0, 84, 0
2, 113760, Note_on_c, 0, 96, 100
2, 113760, Note_on_c, 0, 84, 100
2, 113760, Note_on_c, 0, 60, 100
2, 113760, Note_on_c, 0, 97, 100
2, 113760, Note_on_c, 0, 72, 100
2, 114000, Note_on_c, 0, 96, 0
2, 114000, Note_on_c, 0, 84, 0
2, 114000, Note_on_c, 0, 60, 0
2, 114000, Note_on_c, 0, 97, 0
2, 114000, Note_on_c, 0, 72, 0
2, 114000, Note_on_c, 0, 96, 100
2, 114000, Note_on_c, 0, 97, 100
2, 114000, Note_on_c, 0, 84, 100
2, 114240, Note_on_c, 0, 96, 0
2, 114240, Note_on_c, 0, 97, 0
2, 114240, Note_on_c, 0, 84, 0
2, 114240, Note_on_c, 0, 98, 100
2, 114240, Note_on_c, 0, 96, 100
2, 114240, Note_on_c, 0, 86, 100
2, 114240, Note_on_c, 0, 84, 100
2, 114240, Note_on_c, 0, 60, 100
2, 114240, Note_on_c, 0, 73, 100
2, 114480, Note_on_c, 0, 98, 0
2, 114480, Note_on_c, 0, 96, 0
2, 114480, Note_on_c, 0, 86, 0
2, 114480, Note_on_c, 0, 84, 0
2, 114480, Note_on_c, 0, 60, 0
2, 114480, Note_on_c, 0, 73, 0
2, 114720, Note_on_c, 0, 97, 100
2, 114720, Note_on_c, 0, 99, 100
2, 114720, Note_on_c, 0, 85, 100
2, 114720, Note_on_c, 0, 87, 100
2, 114720, Note_on_c, 0, 61, 100
2, 114720, Note_on_c, 0, 74, 100
2, 114960, Note_on_c, 0, 97, 0
2, 114960, Note_on_c, 0, 99, 0
2, 114960, Note_on_c, 0, 85, 0
2, 114960, Note_on_c, 0, 87, 0
2, 114960, Note_on_c, 0, 61, 0
2, 114960, Note_on_c, 0, 74, 0
2, 115170, Text_t, "drum_normal"
2, 115170, Note_on_c, 0, 103, 100
2, 115170, Note_on_c, 0, 91, 100
2, 115170, Note_on_c, 0, 79, 100
2, 115170, Note_on_c, 0, 67, 100
2, 115170, Note_on_c, 0, 105, 100
2, 115170, Note_on_c, 0, 93, 100
2, 115170, Note_on_c, 0, 69, 100
2, 115170, Note_on_c, 0, 81, 100
2, 115200, Note_on_c, 0, 100, 100
2, 115200, Note_on_c, 0, 98, 100
2, 115200, Note_on_c, 0, 88, 100
2, 115200, Note_on_c, 0, 86, 100
2, 115200, Note_on_c, 0, 62, 100
2, 115200, Note_on_c, 0, 74, 100
2, 115200, Note_on_c, 0, 72, 100
2, 115440, Note_on_c, 0, 100, 0
2, 115440, Note_on_c, 0, 98, 0
2, 115440, Note_on_c, 0, 88, 0
2, 115440, Note_on_c, 0, 86, 0
2, 115440, Note_on_c, 0, 62, 0
2, 115440, Note_on_c, 0, 74, 0
2, 115440, Note_on_c, 0, 72, 0
2, 115440, Note_on_c, 0, 100, 100
2, 115440, Note_on_c, 0, 98, 100
2, 115440, Note_on_c, 0, 88, 100
2, 115440, Note_on_c, 0, 86, 100
2, 115440, Note_on_c, 0, 74, 100
2, 115440, Note_on_c, 0, 72, 100
2, 115680, Note_on_c, 0, 100, 0
2, 115680, Note_on_c, 0, 98, 0
2, 115680, Note_on_c, 0, 88, 0
2, 115680, Note_on_c, 0, 86, 0
2, 115680, Note_on_c, 0, 74, 0
2, 115680, Note_on_c, 0, 72, 0
2, 115680, Note_on_c, 0, 100, 100
2, 115680, Note_on_c, 0, 98, 100
2, 115680, Note_on_c, 0, 88, 100
2, 115680, Note_on_c, 0, 86, 100
2, 115680, Note_on_c, 0, 62, 100
2, 115680, Note_on_c, 0, 108, 100
2, 115680, Note_on_c, 0, 74, 100
2, 115680, Note_on_c, 0, 72, 100
2, 115920, Note_on_c, 0, 100, 0
2, 115920, Note_on_c, 0, 98, 0
2, 115920, Note_on_c, 0, 88, 0
2, 115920, Note_on_c, 0, 86, 0
2, 115920, Note_on_c, 0, 62, 0
2, 115920, Note_on_c, 0, 108, 0
2, 115920, Note_on_c, 0, 74, 0
2, 115920, Note_on_c, 0, 72, 0
2, 115920, Note_on_c, 0, 100, 100
2, 115920, Note_on_c, 0, 98, 100
2, 115920, Note_on_c, 0, 88, 100
2, 115920, Note_on_c, 0, 86, 100
2, 115920, Note_on_c, 0, 108, 100
2, 115920, Note_on_c, 0, 74, 100
2, 115920, Note_on_c, 0, 72, 100
2, 116160, Note_on_c, 0, 100, 0
2, 116160, Note_on_c, 0, 98, 0
2, 116160, Note_on_c, 0, 88, 0
2, 116160, Note_on_c, 0, 86, 0
2, 116160, Note_on_c, 0, 108, 0
2, 116160, Note_on_c, 0, 74, 0
2, 116160, Note_on_c, 0, 72, 0
2, 116160, Note_on_c, 0, 100, 100
2, 116160, Note_on_c, 0, 98, 100
2, 116160, Note_on_c, 0, 88, 100
2, 116160, Note_on_c, 0, 86, 100
2, 116160, Note_on_c, 0, 62, 100
2, 116160, Note_on_c, 0, 74, 100
2, 116160, Note_on_c, 0, 72, 100
2, 116400, Note_on_c, 0, 100, 0
2, 116400, Note_on_c, 0, 98, 0
2, 116400, Note_on_c, 0, 88, 0
2, 116400, Note_on_c, 0, 86, 0
2, 116400, Note_on_c, 0, 62, 0
2, 116400, Note_on_c, 0, 74, 0
2, 116400, Note_on_c, 0, 72, 0
2, 116400, Note_on_c, 0, 108, 100
2, 116640, Note_on_c, 0, 108, 0
2, 116880, Note_on_c, 0, 108, 100
2, 117120, Note_on_c, 0, 108, 0
2, 117120, Note_on_c, 0, 99, 100
2, 117120, Note_on_c, 0, 97, 100
2, 117120, Note_on_c, 0, 87, 100
2, 117120, Note_on_c, 0, 85, 100
2, 117120, Note_on_c, 0, 61, 100
2, 117120, Note_on_c, 0, 73, 100
2, 117120, Note_on_c, 0, 72, 100
2, 117360, Note_on_c, 0, 99, 0
2, 117360, Note_on_c, 0, 97, 0
2, 117360, Note_on_c, 0, 87, 0
2, 117360, Note_on_c, 0, 85, 0
2, 117360, Note_on_c, 0, 61, 0
2, 117360, Note_on_c, 0, 73, 0
2, 117360, Note_on_c, 0, 72, 0
2, 117360, Note_on_c, 0, 99, 100
2, 117360, Note_on_c, 0, 97, 100
2, 117360, Note_on_c, 0, 87, 100
2, 117360, Note_on_c, 0, 85, 100
2, 117360, Note_on_c, 0, 108, 100
2, 117360, Note_on_c, 0, 73, 100
2, 117360, Note_on_c, 0, 72, 100
2, 117600, Note_on_c, 0, 99, 0
2, 117600, Note_on_c, 0, 97, 0
2, 117600, Note_on_c, 0, 87, 0
2, 117600, Note_on_c, 0, 85, 0
2, 117600, Note_on_c, 0, 108, 0
2, 117600, Note_on_c, 0, 73, 0
2, 117600, Note_on_c, 0, 72, 0
2, 117600, Note_on_c, 0, 99, 100
2, 117600, Note_on_c, 0, 97, 100
2, 117600, Note_on_c, 0, 87, 100
2, 117600, Note_on_c, 0, 85, 100
2, 117600, Note_on_c, 0, 61, 100
2, 117600, Note_on_c, 0, 73, 100
2, 117600, Note_on_c, 0, 72, 100
2, 117840, Note_on_c, 0, 99, 0
2, 117840, Note_on_c, 0, 97, 0
2, 117840, Note_on_c, 0, 87, 0
2, 117840, Note_on_c, 0, 85, 0
2, 117840, Note_on_c, 0, 61, 0
2, 117840, Note_on_c, 0, 73, 0
2, 117840, Note_on_c, 0, 72, 0
2, 117840, Note_on_c, 0, 99, 100
2, 117840, Note_on_c, 0, 97, 100
2, 117840, Note_on_c, 0, 87, 100
2, 117840, Note_on_c, 0, 85, 100
2, 117840, Note_on_c, 0, 108, 100
2, 117840, Note_on_c, 0, 73, 100
2, 117840, Note_on_c, 0, 72, 100
2, 118080, Note_on_c, 0, 99, 0
2, 118080, Note_on_c, 0, 97, 0
2, 118080, Note_on_c, 0, 87, 0
2, 118080, Note_on_c, 0, 85, 0
2, 118080, Note_on_c, 0, 108, 0
2, 118080, Note_on_c, 0, 73, 0
2, 118080, Note_on_c, 0, 72, 0
2, 118080, Note_on_c, 0, 99, 100
2, 118080, Note_on_c, 0, 97, 100
2, 118080, Note_on_c, 0, 87, 100
2, 118080, Note_on_c, 0, 85, 100
2, 118080, Note_on_c, 0, 61, 100
2, 118080, Note_on_c, 0, 73, 100
2, 118080, Note_on_c, 0, 72, 100
2, 118320, Note_on_c, 0, 99, 0
2, 118320, Note_on_c, 0, 97, 0
2, 118320, Note_on_c, 0, 87, 0
2, 118320, Note_on_c, 0, 85, 0
2, 118320, Note_on_c, 0, 61, 0
2, 118320, Note_on_c, 0, 73, 0
2, 118320, Note_on_c, 0, 72, 0
2, 118320, Note_on_c, 0, 108, 100
2, 118530, Note_on_c, 0, 103, 0
2, 118530, Note_on_c, 0, 91, 0
2, 118530, Note_on_c, 0, 79, 0
2, 118530, Note_on_c, 0, 67, 0
2, 118800, Note_on_c, 0, 108, 0
2, 119010, Note_on_c, 0, 106, 0
2, 119010, Note_on_c, 0, 94, 0
2, 119010, Note_on_c, 0, 70, 0
2, 119010, Note_on_c, 0, 82, 0
2, 119040, Note_on_c, 0, 98, 100
2, 119040, Note_on_c, 0, 96, 100
2, 119040, Note_on_c, 0, 86, 100
2, 119040, Note_on_c, 0, 84, 100
2, 119040, Note_on_c, 0, 60, 100
2, 119040, Note_on_c, 0, 73, 100
2, 119280, Note_on_c, 0, 98, 0
2, 119280, Note_on_c, 0, 96, 0
2, 119280, Note_on_c, 0, 86, 0
2, 119280, Note_on_c, 0, 84, 0
2, 119280, Note_on_c, 0, 60, 0
2, 119280, Note_on_c, 0, 73, 0
2, 119280, Note_on_c, 0, 98, 100
2, 119280, Note_on_c, 0, 96, 100
2, 119280, Note_on_c, 0, 86, 100
2, 119280, Note_on_c, 0, 84, 100
2, 119280, Note_on_c, 0, 108, 100
2, 119520, Note_on_c, 0, 98, 0
2, 119520, Note_on_c, 0, 96, 0
2, 119520, Note_on_c, 0, 86, 0
2, 119520, Note_on_c, 0, 84, 0
2, 119520, Note_on_c, 0, 96, 100
2, 119520, Note_on_c, 0, 84, 100
2, 119520, Note_on_c, 0, 60, 100
2, 119520, Note_on_c, 0, 97, 100
2, 119520, Note_on_c, 0, 72, 100
2, 119760, Note_on_c, 0, 108, 0
2, 119760, Note_on_c, 0, 96, 0
2, 119760, Note_on_c, 0, 84, 0
2, 119760, Note_on_c, 0, 60, 0
2, 119760, Note_on_c, 0, 97, 0
2, 119760, Note_on_c, 0, 72, 0
2, 119760, Note_on_c, 0, 96, 100
2, 119760, Note_on_c, 0, 97, 100
2, 119760, Note_on_c, 0, 84, 100
2, 120000, Note_on_c, 0, 96, 0
2, 120000, Note_on_c, 0, 97, 0
2, 120000, Note_on_c, 0, 84, 0
2, 120000, Note_on_c, 0, 98, 100
2, 120000, Note_on_c, 0, 96, 100
2, 120000, Note_on_c, 0, 86, 100
2, 120000, Note_on_c, 0, 84, 100
2, 120000, Note_on_c, 0, 60, 100
2, 120000, Note_on_c, 0, 73, 100
2, 120240, Note_on_c, 0, 98, 0
2, 120240, Note_on_c, 0, 96, 0
2, 120240, Note_on_c, 0, 86, 0
2, 120240, Note_on_c, 0, 84, 0
2, 120240, Note_on_c, 0, 60, 0
2, 120240, Note_on_c, 0, 73, 0
2, 120240, Note_on_c, 0, 98, 100
2, 120240, Note_on_c, 0, 96, 100
2, 120240, Note_on_c, 0, 86, 100
2, 120240, Note_on_c, 0, 84, 100
2, 120480, Note_on_c, 0, 98, 0
2, 120480, Note_on_c, 0, 96, 0
2, 120480, Note_on_c, 0, 86, 0
2, 120480, Note_on_c, 0, 84, 0
2, 120480, Note_on_c, 0, 96, 100
2, 120480, Note_on_c, 0, 84, 100
2, 120480, Note_on_c, 0, 60, 100
2, 120480, Note_on_c, 0, 97, 100
2, 120480, Note_on_c, 0, 72, 100
2, 120720, Note_on_c, 0, 96, 0
2, 120720, Note_on_c, 0, 84, 0
2, 120720, Note_on_c, 0, 60, 0
2, 120720, Note_on_c, 0, 97, 0
2, 120720, Note_on_c, 0, 72, 0
2, 120720, Note_on_c, 0, 96, 100
2, 120720, Note_on_c, 0, 97, 100
2, 120720, Note_on_c, 0, 84, 100
2, 120930, Text_t, "drum_allbeat"
2, 120960, Note_on_c, 0, 96, 0
2, 120960, Note_on_c, 0, 97, 0
2, 120960, Note_on_c, 0, 84, 0
2, 120960, Note_on_c, 0, 98, 100
2, 120960, Note_on_c, 0, 96, 100
2, 120960, Note_on_c, 0, 86, 100
2, 120960, Note_on_c, 0, 84, 100
2, 120960, Note_on_c, 0, 60, 100
2, 120960, Note_on_c, 0, 73, 100
2, 121200, Note_on_c, 0, 98, 0
2, 121200, Note_on_c, 0, 96, 0
2, 121200, Note_on_c, 0, 86, 0
2, 121200, Note_on_c, 0, 84, 0
2, 121200, Note_on_c, 0, 60, 0
2, 121200, Note_on_c, 0, 73, 0
2, 121200, Note_on_c, 0, 98, 100
2, 121200, Note_on_c, 0, 96, 100
2, 121200, Note_on_c, 0, 86, 100
2, 121200, Note_on_c, 0, 84, 100
2, 121440, Note_on_c, 0, 98, 0
2, 121440, Note_on_c, 0, 96, 0
2, 121440, Note_on_c, 0, 86, 0
2, 121440, Note_on_c, 0, 84, 0
2, 121440, Note_on_c, 0, 96, 100
2, 121440, Note_on_c, 0, 84, 100
2, 121440, Note_on_c, 0, 60, 100
2, 121440, Note_on_c, 0, 97, 100
2, 121440, Note_on_c, 0, 72, 100
2, 121680, Note_on_c, 0, 96, 0
2, 121680, Note_on_c, 0, 84, 0
2, 121680, Note_on_c, 0, 60, 0
2, 121680, Note_on_c, 0, 97, 0
2, 121680, Note_on_c, 0, 72, 0
2, 121680, Note_on_c, 0, 96, 100
2, 121680, Note_on_c, 0, 97, 100
2, 121680, Note_on_c, 0, 84, 100
2, 121800, Note_on_c, 0, 108, 100
2, 121920, Note_on_c, 0, 96, 0
2, 121920, Note_on_c, 0, 97, 0
2, 121920, Note_on_c, 0, 84, 0
2, 121920, Note_on_c, 0, 108, 0
2, 121920, Note_on_c, 0, 98, 100
2, 121920, Note_on_c, 0, 96, 100
2, 121920, Note_on_c, 0, 86, 100
2, 121920, Note_on_c, 0, 84, 100
2, 121920, Note_on_c, 0, 60, 100
2, 121920, Note_on_c, 0, 73, 100
2, 122160, Note_on_c, 0, 98, 0
2, 122160, Note_on_c, 0, 96, 0
2, 122160, Note_on_c, 0, 86, 0
2, 122160, Note_on_c, 0, 84, 0
2, 122160, Note_on_c, 0, 60, 0
2, 122160, Note_on_c, 0, 73, 0
2, 122160, Note_on_c, 0, 98, 100
2, 122160, Note_on_c, 0, 96, 100
2, 122160, Note_on_c, 0, 86, 100
2, 122160, Note_on_c, 0, 84, 100
2, 122160, Note_on_c, 0, 108, 100
2, 122400, Note_on_c, 0, 98, 0
2, 122400, Note_on_c, 0, 96, 0
2, 122400, Note_on_c, 0, 86, 0
2, 122400, Note_on_c, 0, 84, 0
2, 122400, Note_on_c, 0, 108, 0
2, 122400, Note_on_c, 0, 96, 100
2, 122400, Note_on_c, 0, 84, 100
2, 122400, Note_on_c, 0, 61, 100
2, 122640, Note_on_c, 0, 96, 0
2, 122640, Note_on_c, 0, 84, 0
2, 122640, Note_on_c, 0, 61, 0
2, 122640, Note_on_c, 0, 108, 100
2, 122850, Text_t, "drum_normal"
2, 122850, Note_on_c, 0, 105, 0
2, 122850, Note_on_c, 0, 93, 0
2, 122850, Note_on_c, 0, 69, 0
2, 122850, Note_on_c, 0, 81, 0
2, 122850, Note_on_c, 0, 106, 100
2, 122850, Note_on_c, 0, 94, 100
2, 122850, Note_on_c, 0, 70, 100
2, 122850, Note_on_c, 0, 82, 100
2, 122880, Note_on_c, 0, 108, 0
2, 122880, Note_on_c, 0, 98, 100
2, 122880, Note_on_c, 0, 99, 100
2, 122880, Note_on_c, 0, 86, 100
2, 122880, Note_on_c, 0, 87, 100
2, 122880, Note_on_c, 0, 74, 100
2, 122880, Note_on_c, 0, 62, 100
2, 122880, Note_on_c, 0, 72, 100
2, 123120, Note_on_c, 0, 108, 100
2, 123360, Note_on_c, 0, 108, 0
2, 123360, Note_on_c, 0, 108, 100
2, 123840, Note_on_c, 0, 98, 0
2, 123840, Note_on_c, 0, 99, 0
2, 123840, Note_on_c, 0, 86, 0
2, 123840, Note_on_c, 0, 87, 0
2, 123840, Note_on_c, 0, 74, 0
2, 123840, Note_on_c, 0, 62, 0
2, 123840, Note_on_c, 0, 72, 0
2, 123840, Note_on_c, 0, 108, 0
2, 123840, Note_on_c, 0, 98, 100
2, 123840, Note_on_c, 0, 99, 100
2, 123840, Note_on_c, 0, 86, 100
2, 123840, Note_on_c, 0, 87, 100
2, 123840, Note_on_c, 0, 74, 100
2, 123840, Note_on_c, 0, 62, 100
2, 123840, Note_on_c, 0, 72, 100
2, 124080, Note_on_c, 0, 98, 0
2, 124080, Note_on_c, 0, 99, 0
2, 124080, Note_on_c, 0, 86, 0
2, 124080, Note_on_c, 0, 87, 0
2, 124080, Note_on_c, 0, 74, 0
2, 124080, Note_on_c, 0, 62, 0
2, 124080, Note_on_c, 0, 72, 0
2, 124080, Note_on_c, 0, 108, 100
2, 124320, Note_on_c, 0, 108, 0
2, 124320, Note_on_c, 0, 98, 100
2, 124320, Note_on_c, 0, 86, 100
2, 124320, Note_on_c, 0, 108, 100
2, 124560, Note_on_c, 0, 98, 0
2, 124560, Note_on_c, 0, 86, 0
2, 124560, Note_on_c, 0, 98, 100
2, 124560, Note_on_c, 0, 86, 100
2, 124800, Note_on_c, 0, 108, 0
2, 124800, Note_on_c, 0, 98, 0
2, 124800, Note_on_c, 0, 86, 0
2, 124800, Note_on_c, 0, 98, 100
2, 124800, Note_on_c, 0, 86, 100
2, 125040, Note_on_c, 0, 98, 0
2, 125040, Note_on_c, 0, 86, 0
2, 125040, Note_on_c, 0, 98, 100
2, 125040, Note_on_c, 0, 99, 100
2, 125040, Note_on_c, 0, 86, 100
2, 125040, Note_on_c, 0, 87, 100
2, 125040, Note_on_c, 0, 74, 100
2, 125040, Note_on_c, 0, 62, 100
2, 125040, Note_on_c, 0, 108, 100
2, 125040, Note_on_c, 0, 72, 100
2, 125280, Note_on_c, 0, 98, 0
2, 125280, Note_on_c, 0, 99, 0
2, 125280, Note_on_c, 0, 86, 0
2, 125280, Note_on_c, 0, 87, 0
2, 125280, Note_on_c, 0, 74, 0
2, 125280, Note_on_c, 0, 62, 0
2, 125280, Note_on_c, 0, 108, 0
2, 125280, Note_on_c, 0, 72, 0
2, 125280, Note_on_c, 0, 98, 100
2, 125520, Note_on_c, 0, 98, 0
2, 125520, Note_on_c, 0, 98, 100
2, 125520, Note_on_c, 0, 86, 100
2, 125520, Note_on_c, 0, 108, 100
2, 125760, Note_on_c, 0, 98, 0
2, 125760, Note_on_c, 0, 86, 0
2, 125760, Note_on_c, 0, 108, 0
2, 125760, Note_on_c, 0, 98, 100
2, 125760, Note_on_c, 0, 99, 100
2, 125760, Note_on_c, 0, 86, 100
2, 125760, Note_on_c, 0, 87, 100
2, 125760, Note_on_c, 0, 74, 100
2, 125760, Note_on_c, 0, 62, 100
2, 125760, Note_on_c, 0, 72, 100
2, 126000, Note_on_c, 0, 98, 0
2, 126000, Note_on_c, 0, 99, 0
2, 126000, Note_on_c, 0, 86, 0
2, 126000, Note_on_c, 0, 87, 0
2, 126000, Note_on_c, 0, 74, 0
2, 126000, Note_on_c, 0, 62, 0
2, 126000, Note_on_c, 0, 72, 0
2, 126000, Note_on_c, 0, 108, 100
2, 126240, Note_on_c, 0, 108, 0
2, 126240, Note_on_c, 0, 85, 100
2, 126240, Note_on_c, 0, 97, 100
2, 126480, Note_on_c, 0, 85, 0
2, 126480, Note_on_c, 0, 97, 0
2, 126480, Note_on_c, 0, 108, 100
2, 126690, Note_on_c, 0, 105, 100
2, 126690, Note_on_c, 0, 93, 100
2, 126690, Note_on_c, 0, 69, 100
2, 126690, Note_on_c, 0, 81, 100
2, 126720, Note_on_c, 0, 108, 0
2, 126720, Note_on_c, 0, 100, 100
2, 126720, Note_on_c, 0, 99, 100
2, 126720, Note_on_c, 0, 88, 100
2, 126720, Note_on_c, 0, 87, 100
2, 126720, Note_on_c, 0, 74, 100
2, 126720, Note_on_c, 0, 61, 100
2, 126720, Note_on_c, 0, 73, 100
2, 126960, Note_on_c, 0, 108, 100
2, 127200, Note_on_c, 0, 108, 0
2, 127560, Note_on_c, 0, 108, 100
2, 127680, Note_on_c, 0, 108, 0
2, 127920, Note_on_c, 0, 108, 100
2, 128160, Note_on_c, 0, 100, 0
2, 128160, Note_on_c, 0, 99, 0
2, 128160, Note_on_c, 0, 88, 0
2, 128160, Note_on_c, 0, 87, 0
2, 128160, Note_on_c, 0, 74, 0
2, 128160, Note_on_c, 0, 73, 0
2, 128160, Note_on_c, 0, 100, 100
2, 128160, Note_on_c, 0, 99, 100
2, 128160, Note_on_c, 0, 88, 100
2, 128160, Note_on_c, 0, 87, 100
2, 128160, Note_on_c, 0, 74, 100
2, 128160, Note_on_c, 0, 73, 100
2, 128610, Text_t, "drum_allbeat"
2, 129120, Note_on_c, 0, 108, 0
2, 129600, Note_on_c, 0, 100, 0
2, 129600, Note_on_c, 0, 99, 0
2, 129600, Note_on_c, 0, 88, 0
2, 129600, Note_on_c, 0, 87, 0
2, 129600, Note_on_c, 0, 74, 0
2, 129600, Note_on_c, 0, 73, 0
2, 129600, Note_on_c, 0, 100, 100
2, 129600, Note_on_c, 0, 99, 100
2, 129600, Note_on_c, 0, 88, 100
2, 129600, Note_on_c, 0, 87, 100
2, 129600, Note_on_c, 0, 74, 100
2, 129600, Note_on_c, 0, 108, 100
2, 129600, Note_on_c, 0, 73, 100
2, 129840, Note_on_c, 0, 61, 0
2, 129840, Note_on_c, 0, 100, 0
2, 129840, Note_on_c, 0, 99, 0
2, 129840, Note_on_c, 0, 88, 0
2, 129840, Note_on_c, 0, 87, 0
2, 129840, Note_on_c, 0, 74, 0
2, 129840, Note_on_c, 0, 73, 0
2, 130080, Note_on_c, 0, 108, 0
2, 130530, Note_on_c, 0, 106, 0
2, 130530, Note_on_c, 0, 94, 0
2, 130530, Note_on_c, 0, 70, 0
2, 130530, Note_on_c, 0, 82, 0
2, 130560, Note_on_c, 0, 96, 100
2, 130560, Note_on_c, 0, 98, 100
2, 130560, Note_on_c, 0, 84, 100
2, 130560, Note_on_c, 0, 86, 100
2, 130560, Note_on_c, 0, 72, 100
2, 130560, Note_on_c, 0, 60, 100
2, 131520, Note_on_c, 0, 96, 0
2, 131520, Note_on_c, 0, 98, 0
2, 131520, Note_on_c, 0, 84, 0
2, 131520, Note_on_c, 0, 86, 0
2, 131520, Note_on_c, 0, 72, 0
2, 131520, Note_on_c, 0, 60, 0
2, 132480, Note_on_c, 0, 99, 100
2, 132480, Note_on_c, 0, 87, 100
2, 132480, Note_on_c, 0, 75, 100
2, 132480, Note_on_c, 0, 62, 100
2, 132720, Note_on_c, 0, 99, 0
2, 132720, Note_on_c, 0, 87, 0
2, 132720, Note_on_c, 0, 75, 0
2, 132720, Note_on_c, 0, 62, 0
2, 132720, Note_on_c, 0, 100, 100
2, 132720, Note_on_c, 0, 88, 100
2, 132960, Note_on_c, 0, 100, 0
2, 132960, Note_on_c, 0, 88, 0
2, 132960, Note_on_c, 0, 99, 100
2, 132960, Note_on_c, 0, 87, 100
2, 132960, Note_on_c, 0, 75, 100
2, 133200, Note_on_c, 0, 99, 0
2, 133200, Note_on_c, 0, 87, 0
2, 133200, Note_on_c, 0, 75, 0
2, 133200, Note_on_c, 0, 100, 100
2, 133200, Note_on_c, 0, 88, 100
2, 133440, Note_on_c, 0, 100, 0
2, 133440, Note_on_c, 0, 88, 0
2, 133440, Note_on_c, 0, 99, 100
2, 133440, Note_on_c, 0, 87, 100
2, 133440, Note_on_c, 0, 75, 100
2, 133440, Note_on_c, 0, 62, 100
2, 133680, Note_on_c, 0, 99, 0
2, 133680, Note_on_c, 0, 87, 0
2, 133680, Note_on_c, 0, 75, 0
2, 133680, Note_on_c, 0, 62, 0
2, 133920, Note_on_c, 0, 98, 100
2, 133920, Note_on_c, 0, 86, 100
2, 134160, Note_on_c, 0, 98, 0
2, 134160, Note_on_c, 0, 86, 0
2, 134370, Text_t, "wail_off"
2, 134400, Note_on_c, 0, 98, 100
2, 134400, Note_on_c, 0, 86, 100
2, 134400, Note_on_c, 0, 74, 100
2, 134400, Note_on_c, 0, 62, 100
2, 134640, Note_on_c, 0, 98, 0
2, 134640, Note_on_c, 0, 86, 0
2, 134640, Note_on_c, 0, 74, 0
2, 134640, Note_on_c, 0, 62, 0
2, 134640, Note_on_c, 0, 100, 100
2, 134640, Note_on_c, 0, 87, 100
2, 134880, Note_on_c, 0, 100, 0
2, 134880, Note_on_c, 0, 87, 0
2, 134880, Note_on_c, 0, 99, 100
2, 135120, Note_on_c, 0, 99, 0
2, 135120, Note_on_c, 0, 98, 100
2, 135120, Note_on_c, 0, 86, 100
2, 135120, Note_on_c, 0, 74, 100
2, 135360, Note_on_c, 0, 98, 0
2, 135360, Note_on_c, 0, 86, 0
2, 135360, Note_on_c, 0, 74, 0
2, 135360, Note_on_c, 0, 100, 100
2, 135360, Note_on_c, 0, 87, 100
2, 135600, Note_on_c, 0, 100, 0
2, 135600, Note_on_c, 0, 87, 0
2, 135600, Note_on_c, 0, 99, 100
2, 135840, Note_on_c, 0, 99, 0
2, 135840, Note_on_c, 0, 97, 100
2, 135840, Note_on_c, 0, 85, 100
2, 135840, Note_on_c, 0, 73, 100
2, 135840, Note_on_c, 0, 61, 100
2, 136080, Note_on_c, 0, 97, 0
2, 136080, Note_on_c, 0, 85, 0
2, 136080, Note_on_c, 0, 73, 0
2, 136080, Note_on_c, 0, 61, 0
2, 136080, Note_on_c, 0, 100, 100
2, 136080, Note_on_c, 0, 87, 100
2, 136320, Note_on_c, 0, 100, 0
2, 136320, Note_on_c, 0, 87, 0
2, 136320, Note_on_c, 0, 99, 100
2, 136560, Note_on_c, 0, 99, 0
2, 136560, Note_on_c, 0, 97, 100
2, 136560, Note_on_c, 0, 85, 100
2, 136560, Note_on_c, 0, 73, 100
2, 136800, Note_on_c, 0, 97, 0
2, 136800, Note_on_c, 0, 85, 0
2, 136800, Note_on_c, 0, 73, 0
2, 136800, Note_on_c, 0, 100, 100
2, 136800, Note_on_c, 0, 87, 100
2, 137040, Note_on_c, 0, 100, 0
2, 137040, Note_on_c, 0, 87, 0
2, 137040, Note_on_c, 0, 99, 100
2, 137280, Note_on_c, 0, 99, 0
2, 137280, Note_on_c, 0, 96, 100
2, 137280, Note_on_c, 0, 84, 100
2, 137280, Note_on_c, 0, 73, 100
2, 137280, Note_on_c, 0, 60, 100
2, 137280, Note_on_c, 0, 108, 100
2, 137520, Note_on_c, 0, 96, 0
2, 137520, Note_on_c, 0, 84, 0
2, 137520, Note_on_c, 0, 73, 0
2, 137520, Note_on_c, 0, 60, 0
2, 137520, Note_on_c, 0, 100, 100
2, 137520, Note_on_c, 0, 87, 100
2, 137760, Note_on_c, 0, 100, 0
2, 137760, Note_on_c, 0, 87, 0
2, 137760, Note_on_c, 0, 99, 100
2, 137760, Note_on_c, 0, 84, 100
2, 138000, Note_on_c, 0, 99, 0
2, 138000, Note_on_c, 0, 84, 0
2, 138210, Text_t, "[verse]"
2, 138210, Text_t, "sing_off"
2, 138210, Text_t, "drum_normal"
2, 138210, Note_on_c, 0, 105, 0
2, 138210, Note_on_c, 0, 93, 0
2, 138210, Note_on_c, 0, 69, 0
2, 138210, Note_on_c, 0, 81, 0
2, 138210, Note_on_c, 0, 106, 100
2, 138210, Note_on_c, 0, 94, 100
2, 138210, Note_on_c, 0, 70, 100
2, 138210, Note_on_c, 0, 82, 100
2, 138240, Note_on_c, 0, 96, 100
2, 138240, Note_on_c, 0, 98, 100
2, 138240, Note_on_c, 0, 84, 100
2, 138240, Note_on_c, 0, 86, 100
2, 138240, Note_on_c, 0, 72, 100
2, 138240, Note_on_c, 0, 60, 100
2, 138720, Note_on_c, 0, 108, 0
2, 138960, Note_on_c, 0, 108, 100
2, 139200, Note_on_c, 0, 96, 0
2, 139200, Note_on_c, 0, 98, 0
2, 139200, Note_on_c, 0, 84, 0
2, 139200, Note_on_c, 0, 86, 0
2, 139200, Note_on_c, 0, 72, 0
2, 139200, Note_on_c, 0, 60, 0
2, 139440, Note_on_c, 0, 108, 0
2, 140160, Note_on_c, 0, 99, 100
2, 140160, Note_on_c, 0, 87, 100
2, 140160, Note_on_c, 0, 75, 100
2, 140160, Note_on_c, 0, 62, 100
2, 140400, Note_on_c, 0, 99, 0
2, 140400, Note_on_c, 0, 87, 0
2, 140400, Note_on_c, 0, 75, 0
2, 140400, Note_on_c, 0, 62, 0
2, 140400, Note_on_c, 0, 100, 100
2, 140400, Note_on_c, 0, 88, 100
2, 140640, Note_on_c, 0, 100, 0
2, 140640, Note_on_c, 0, 88, 0
2, 140640, Note_on_c, 0, 99, 100
2, 140640, Note_on_c, 0, 87, 100
2, 140640, Note_on_c, 0, 75, 100
2, 140880, Note_on_c, 0, 99, 0
2, 140880, Note_on_c, 0, 87, 0
2, 140880, Note_on_c, 0, 75, 0
2, 140880, Note_on_c, 0, 100, 100
2, 140880, Note_on_c, 0, 88, 100
2, 141120, Note_on_c, 0, 100, 0
2, 141120, Note_on_c, 0, 88, 0
2, 141120, Note_on_c, 0, 99, 100
2, 141120, Note_on_c, 0, 87, 100
2, 141120, Note_on_c, 0, 75, 100
2, 141120, Note_on_c, 0, 62, 100
2, 141360, Note_on_c, 0, 99, 0
2, 141360, Note_on_c, 0, 87, 0
2, 141360, Note_on_c, 0, 75, 0
2, 141360, Note_on_c, 0, 62, 0
2, 141600, Note_on_c, 0, 98, 100
2, 141600, Note_on_c, 0, 86, 100
2, 141840, Note_on_c, 0, 98, 0
2, 141840, Note_on_c, 0, 86, 0
2, 142080, Note_on_c, 0, 98, 100
2, 142080, Note_on_c, 0, 86, 100
2, 142080, Note_on_c, 0, 74, 100
2, 142080, Note_on_c, 0, 62, 100
2, 142320, Note_on_c, 0, 98, 0
2, 142320, Note_on_c, 0, 86, 0
2, 142320, Note_on_c, 0, 74, 0
2, 142320, Note_on_c, 0, 62, 0
2, 142320, Note_on_c, 0, 100, 100
2, 142320, Note_on_c, 0, 87, 100
2, 142560, Note_on_c, 0, 100, 0
2, 142560, Note_on_c, 0, 87, 0
2, 142560, Note_on_c, 0, 99, 100
2, 142800, Note_on_c, 0, 99, 0
2, 142800, Note_on_c, 0, 98, 100
2, 142800, Note_on_c, 0, 86, 100
2, 142800, Note_on_c, 0, 74, 100
2, 143040, Note_on_c, 0, 98, 0
2, 143040, Note_on_c, 0, 86, 0
2, 143040, Note_on_c, 0, 74, 0
2, 143040, Note_on_c, 0, 100, 100
2, 143040, Note_on_c, 0, 87, 100
2, 143280, Note_on_c, 0, 100, 0
2, 143280, Note_on_c, 0, 87, 0
2, 143280, Note_on_c, 0, 99, 100
2, 143520, Note_on_c, 0, 99, 0
2, 143520, Note_on_c, 0, 97, 100
2, 143520, Note_on_c, 0, 85, 100
2, 143520, Note_on_c, 0, 73, 100
2, 143520, Note_on_c, 0, 61, 100
2, 143760, Note_on_c, 0, 97, 0
2, 143760, Note_on_c, 0, 85, 0
2, 143760, Note_on_c, 0, 73, 0
2, 143760, Note_on_c, 0, 61, 0
2, 143760, Note_on_c, 0, 100, 100
2, 143760, Note_on_c, 0, 87, 100
2, 143970, Text_t, "drum_double"
2, 144000, Note_on_c, 0, 100, 0
2, 144000, Note_on_c, 0, 87, 0
2, 144000, Note_on_c, 0, 99, 100
2, 144240, Note_on_c, 0, 99, 0
2, 144240, Note_on_c, 0, 97, 100
2, 144240, Note_on_c, 0, 85, 100
2, 144240, Note_on_c, 0, 73, 100
2, 144480, Note_on_c, 0, 97, 0
2, 144480, Note_on_c, 0, 85, 0
2, 144480, Note_on_c, 0, 73, 0
2, 144480, Note_on_c, 0, 100, 100
2, 144480, Note_on_c, 0, 87, 100
2, 144720, Note_on_c, 0, 100, 0
2, 144720, Note_on_c, 0, 87, 0
2, 144720, Note_on_c, 0, 99, 100
2, 144960, Note_on_c, 0, 99, 0
2, 144960, Note_on_c, 0, 96, 100
2, 144960, Note_on_c, 0, 84, 100
2, 144960, Note_on_c, 0, 73, 100
2, 144960, Note_on_c, 0, 60, 100
2, 145200, Note_on_c, 0, 96, 0
2, 145200, Note_on_c, 0, 84, 0
2, 145200, Note_on_c, 0, 73, 0
2, 145200, Note_on_c, 0, 60, 0
2, 145200, Note_on_c, 0, 100, 100
2, 145200, Note_on_c, 0, 87, 100
2, 145440, Note_on_c, 0, 100, 0
2, 145440, Note_on_c, 0, 87, 0
2, 145440, Note_on_c, 0, 99, 100
2, 145440, Note_on_c, 0, 84, 100
2, 145680, Note_on_c, 0, 99, 0
2, 145680, Note_on_c, 0, 84, 0
2, 145890, Text_t, "drum_normal"
2, 145890, Note_on_c, 0, 103, 100
2, 145890, Note_on_c, 0, 91, 100
2, 145890, Note_on_c, 0, 79, 100
2, 145890, Note_on_c, 0, 67, 100
2, 145890, Note_on_c, 0, 105, 100
2, 145890, Note_on_c, 0, 93, 100
2, 145890, Note_on_c, 0, 69, 100
2, 145890, Note_on_c, 0, 81, 100
2, 145920, Note_on_c, 0, 96, 100
2, 145920, Note_on_c, 0, 98, 100
2, 145920, Note_on_c, 0, 84, 100
2, 145920, Note_on_c, 0, 86, 100
2, 145920, Note_on_c, 0, 72, 100
2, 145920, Note_on_c, 0, 74, 100
2, 145920, Note_on_c, 0, 60, 100
2, 146760, Note_on_c, 0, 108, 100
2, 146880, Note_on_c, 0, 108, 0
2, 146880, Note_on_c, 0, 108, 100
2, 147120, Note_on_c, 0, 108, 0
2, 147360, Note_on_c, 0, 108, 100
2, 147840, Note_on_c, 0, 108, 0
2, 148080, Note_on_c, 0, 108, 100
2, 148320, Note_on_c, 0, 108, 0
2, 148320, Note_on_c, 0, 108, 100
2, 148800, Note_on_c, 0, 108, 0
2, 149280, Note_on_c, 0, 96, 0
2, 149280, Note_on_c, 0, 98, 0
2, 149280, Note_on_c, 0, 84, 0
2, 149280, Note_on_c, 0, 86, 0
2, 149280, Note_on_c, 0, 72, 0
2, 149280, Note_on_c, 0, 74, 0
2, 149280, Note_on_c, 0, 60, 0
2, 149520, Note_on_c, 0, 108, 100
2, 149760, Note_on_c, 0, 108, 0
2, 149760, Note_on_c, 0, 97, 100
2, 149760, Note_on_c, 0, 99, 100
2, 149760, Note_on_c, 0, 85, 100
2, 149760, Note_on_c, 0, 87, 100
2, 149760, Note_on_c, 0, 73, 100
2, 149760, Note_on_c, 0, 74, 100
2, 149760, Note_on_c, 0, 61, 100
2, 150000, Note_on_c, 0, 108, 100
2, 150240, Note_on_c, 0, 108, 0
2, 150240, Note_on_c, 0, 108, 100
2, 150480, Note_on_c, 0, 108, 0
2, 150960, Note_on_c, 0, 108, 100
2, 151200, Note_on_c, 0, 108, 0
2, 151440, Note_on_c, 0, 108, 100
2, 151650, Text_t, "drum_double"
2, 151920, Note_on_c, 0, 108, 0
2, 152400, Note_on_c, 0, 108, 100
2, 152610, Note_on_c, 0, 103, 0
2, 152610, Note_on_c, 0, 91, 0
2, 152610, Note_on_c, 0, 79, 0
2, 152610, Note_on_c, 0, 67, 0
2, 152640, Note_on_c, 0, 97, 0
2, 152640, Note_on_c, 0, 99, 0
2, 152640, Note_on_c, 0, 85, 0
2, 152640, Note_on_c, 0, 87, 0
2, 152640, Note_on_c, 0, 73, 0
2, 152640, Note_on_c, 0, 74, 0
2, 152640, Note_on_c, 0, 61, 0
2, 152640, Note_on_c, 0, 108, 0
2, 152880, Note_on_c, 0, 108, 100
2, 153090, Note_on_c, 0, 106, 0
2, 153090, Note_on_c, 0, 94, 0
2, 153090, Note_on_c, 0, 70, 0
2, 153090, Note_on_c, 0, 82, 0
2, 153120, Note_on_c, 0, 108, 0
2, 153120, Note_on_c, 0, 100, 100
2, 153120, Note_on_c, 0, 88, 100
2, 153120, Note_on_c, 0, 75, 100
2, 153120, Note_on_c, 0, 62, 100
2, 153360, Note_on_c, 0, 100, 0
2, 153360, Note_on_c, 0, 88, 0
2, 153360, Note_on_c, 0, 75, 0
2, 153360, Note_on_c, 0, 62, 0
2, 153360, Note_on_c, 0, 108, 100
2, 153570, Text_t, "sing_on"
2, 153570, Text_t, "drum_normal"
2, 153600, Note_on_c, 0, 100, 100
2, 153600, Note_on_c, 0, 98, 100
2, 153600, Note_on_c, 0, 88, 100
2, 153600, Note_on_c, 0, 86, 100
2, 153600, Note_on_c, 0, 74, 100
2, 153600, Note_on_c, 0, 75, 100
2, 153600, Note_on_c, 0, 62, 100
2, 154080, Note_on_c, 0, 108, 0
2, 155040, Note_on_c, 0, 108, 100
2, 155280, Note_on_c, 0, 74, 0
2, 155280, Note_on_c, 0, 75, 0
2, 155280, Note_on_c, 0, 62, 0
2, 155280, Note_on_c, 0, 108, 0
2, 155280, Note_on_c, 0, 108, 100
2, 155520, Note_on_c, 0, 100, 0
2, 155520, Note_on_c, 0, 98, 0
2, 155520, Note_on_c, 0, 88, 0
2, 155520, Note_on_c, 0, 86, 0
2, 155520, Note_on_c, 0, 108, 0
2, 155520, Note_on_c, 0, 97, 100
2, 155520, Note_on_c, 0, 85, 100
2, 155520, Note_on_c, 0, 73, 100
2, 155520, Note_on_c, 0, 60, 100
2, 155760, Note_on_c, 0, 97, 0
2, 155760, Note_on_c, 0, 85, 0
2, 155760, Note_on_c, 0, 73, 0
2, 155760, Note_on_c, 0, 60, 0
2, 155760, Note_on_c, 0, 108, 100
2, 156000, Note_on_c, 0, 108, 0
2, 156000, Note_on_c, 0, 96, 100
2, 156000, Note_on_c, 0, 84, 100
2, 156000, Note_on_c, 0, 72, 100
2, 156240, Note_on_c, 0, 96, 0
2, 156240, Note_on_c, 0, 84, 0
2, 156240, Note_on_c, 0, 72, 0
2, 156240, Note_on_c, 0, 108, 100
2, 156450, Note_on_c, 0, 106, 100
2, 156450, Note_on_c, 0, 94, 100
2, 156450, Note_on_c, 0, 70, 100
2, 156450, Note_on_c, 0, 82, 100
2, 156480, Note_on_c, 0, 108, 0
2, 156480, Note_on_c, 0, 97, 100
2, 156480, Note_on_c, 0, 85, 100
2, 156480, Note_on_c, 0, 73, 100
2, 156480, Note_on_c, 0, 61, 100
2, 156720, Note_on_c, 0, 97, 0
2, 156720, Note_on_c, 0, 85, 0
2, 156720, Note_on_c, 0, 73, 0
2, 156720, Note_on_c, 0, 61, 0
2, 156720, Note_on_c, 0, 108, 100
2, 156960, Note_on_c, 0, 98, 100
2, 156960, Note_on_c, 0, 86, 100
2, 156960, Note_on_c, 0, 74, 100
2, 157200, Note_on_c, 0, 98, 0
2, 157200, Note_on_c, 0, 86, 0
2, 157200, Note_on_c, 0, 74, 0
2, 157440, Note_on_c, 0, 108, 0
2, 157440, Note_on_c, 0, 99, 100
2, 157440, Note_on_c, 0, 87, 100
2, 157440, Note_on_c, 0, 74, 100
2, 157440, Note_on_c, 0, 62, 100
2, 157680, Note_on_c, 0, 74, 0
2, 157680, Note_on_c, 0, 62, 0
2, 158400, Note_on_c, 0, 99, 0
2, 158400, Note_on_c, 0, 87, 0
2, 158400, Note_on_c, 0, 99, 100
2, 158400, Note_on_c, 0, 88, 100
2, 158400, Note_on_c, 0, 75, 100
2, 158400, Note_on_c, 0, 62, 100
2, 158520, Note_on_c, 0, 99, 0
2, 158520, Note_on_c, 0, 100, 100
2, 158640, Note_on_c, 0, 88, 0
2, 158640, Note_on_c, 0, 75, 0
2, 158640, Note_on_c, 0, 62, 0
2, 158760, Note_on_c, 0, 100, 0
2, 158880, Note_on_c, 0, 99, 100
2, 158880, Note_on_c, 0, 87, 100
2, 158880, Note_on_c, 0, 74, 100
2, 159120, Note_on_c, 0, 74, 0
2, 159120, Note_on_c, 0, 108, 100
2, 159360, Note_on_c, 0, 108, 0
2, 159600, Note_on_c, 0, 108, 100
2, 159840, Note_on_c, 0, 99, 0
2, 159840, Note_on_c, 0, 87, 0
2, 159840, Note_on_c, 0, 108, 0
2, 159840, Note_on_c, 0, 98, 100
2, 159840, Note_on_c, 0, 86, 100
2, 159840, Note_on_c, 0, 74, 100
2, 159840, Note_on_c, 0, 61, 100
2, 160080, Note_on_c, 0, 98, 0
2, 160080, Note_on_c, 0, 86, 0
2, 160080, Note_on_c, 0, 74, 0
2, 160080, Note_on_c, 0, 61, 0
2, 160080, Note_on_c, 0, 108, 100
2, 160320, Note_on_c, 0, 108, 0
2, 160320, Note_on_c, 0, 97, 100
2, 160320, Note_on_c, 0, 85, 100
2, 160320, Note_on_c, 0, 73, 100
2, 160560, Note_on_c, 0, 73, 0
2, 160560, Note_on_c, 0, 108, 100
2, 161250, Note_on_c, 0, 105, 0
2, 161250, Note_on_c, 0, 93, 0
2, 161250, Note_on_c, 0, 69, 0
2, 161250, Note_on_c, 0, 81, 0
2, 161280, Note_on_c, 0, 97, 0
2, 161280, Note_on_c, 0, 85, 0
2, 161280, Note_on_c, 0, 108, 0
2, 161280, Note_on_c, 0, 96, 100
2, 161280, Note_on_c, 0, 98, 100
2, 161280, Note_on_c, 0, 84, 100
2, 161280, Note_on_c, 0, 86, 100
2, 161280, Note_on_c, 0, 72, 100
2, 161280, Note_on_c, 0, 74, 100
2, 161280, Note_on_c, 0, 60, 100
2, 162480, Note_on_c, 0, 108, 100
2, 162720, Note_on_c, 0, 108, 0
2, 162960, Note_on_c, 0, 108, 100
2, 163170, Text_t, "drum_double"
2, 163200, Note_on_c, 0, 96, 0
2, 163200, Note_on_c, 0, 98, 0
2, 163200, Note_on_c, 0, 84, 0
2, 163200, Note_on_c, 0, 86, 0
2, 163200, Note_on_c, 0, 108, 0
2, 163440, Note_on_c, 0, 98, 100
2, 163440, Note_on_c, 0, 86, 100
2, 163440, Note_on_c, 0, 108, 100
2, 163680, Note_on_c, 0, 98, 0
2, 163680, Note_on_c, 0, 86, 0
2, 163680, Note_on_c, 0, 108, 0
2, 163680, Note_on_c, 0, 96, 100
2, 163680, Note_on_c, 0, 84, 100
2, 163920, Note_on_c, 0, 96, 0
2, 163920, Note_on_c, 0, 84, 0
2, 163920, Note_on_c, 0, 108, 100
2, 164160, Note_on_c, 0, 108, 0
2, 164160, Note_on_c, 0, 98, 100
2, 164160, Note_on_c, 0, 86, 100
2, 164400, Note_on_c, 0, 98, 0
2, 164400, Note_on_c, 0, 86, 0
2, 164400, Note_on_c, 0, 108, 100
2, 164640, Note_on_c, 0, 72, 0
2, 164640, Note_on_c, 0, 74, 0
2, 164640, Note_on_c, 0, 60, 0
2, 164640, Note_on_c, 0, 108, 0
2, 164880, Note_on_c, 0, 108, 100
2, 165090, Text_t, "drum_normal"
2, 165090, Note_on_c, 0, 106, 0
2, 165090, Note_on_c, 0, 94, 0
2, 165090, Note_on_c, 0, 70, 0
2, 165090, Note_on_c, 0, 82, 0
2, 165090, Note_on_c, 0, 105, 100
2, 165090, Note_on_c, 0, 93, 100
2, 165090, Note_on_c, 0, 69, 100
2, 165090, Note_on_c, 0, 81, 100
2, 165120, Note_on_c, 0, 96, 100
2, 165120, Note_on_c, 0, 84, 100
2, 165120, Note_on_c, 0, 72, 100
2, 165120, Note_on_c, 0, 62, 100
2, 165600, Note_on_c, 0, 108, 0
2, 167040, Note_on_c, 0, 96, 0
2, 167040, Note_on_c, 0, 84, 0
2, 167280, Note_on_c, 0, 97, 100
2, 167280, Note_on_c, 0, 85, 100
2, 167280, Note_on_c, 0, 108, 100
2, 167520, Note_on_c, 0, 97, 0
2, 167520, Note_on_c, 0, 85, 0
2, 167520, Note_on_c, 0, 108, 0
2, 167520, Note_on_c, 0, 96, 100
2, 167520, Note_on_c, 0, 84, 100
2, 167760, Note_on_c, 0, 96, 0
2, 167760, Note_on_c, 0, 84, 0
2, 167760, Note_on_c, 0, 108, 100
2, 168000, Note_on_c, 0, 108, 0
2, 168000, Note_on_c, 0, 98, 100
2, 168000, Note_on_c, 0, 86, 100
2, 168000, Note_on_c, 0, 108, 100
2, 168240, Note_on_c, 0, 98, 0
2, 168240, Note_on_c, 0, 86, 0
2, 168240, Note_on_c, 0, 108, 0
2, 168240, Note_on_c, 0, 108, 100
2, 168480, Note_on_c, 0, 72, 0
2, 168480, Note_on_c, 0, 62, 0
2, 168480, Note_on_c, 0, 108, 0
2, 168480, Note_on_c, 0, 96, 100
2, 168480, Note_on_c, 0, 84, 100
2, 168720, Note_on_c, 0, 96, 0
2, 168720, Note_on_c, 0, 84, 0
2, 168720, Note_on_c, 0, 108, 100
2, 168930, Note_on_c, 0, 105, 0
2, 168930, Note_on_c, 0, 93, 0
2, 168930, Note_on_c, 0, 69, 0
2, 168930, Note_on_c, 0, 81, 0
2, 168930, Note_on_c, 0, 106, 100
2, 168930, Note_on_c, 0, 94, 100
2, 168930, Note_on_c, 0, 70, 100
2, 168930, Note_on_c, 0, 82, 100
2, 168960, Note_on_c, 0, 108, 0
2, 168960, Note_on_c, 0, 97, 100
2, 168960, Note_on_c, 0, 85, 100
2, 168960, Note_on_c, 0, 73, 100
2, 168960, Note_on_c, 0, 61, 100
2, 169200, Note_on_c, 0, 108, 100
2, 169920, Note_on_c, 0, 108, 0
2, 170880, Note_on_c, 0, 97, 0
2, 170880, Note_on_c, 0, 85, 0
2, 171120, Note_on_c, 0, 108, 100
2, 171360, Note_on_c, 0, 108, 0
2, 171360, Note_on_c, 0, 97, 100
2, 171360, Note_on_c, 0, 85, 100
2, 171360, Note_on_c, 0, 108, 100
2, 171600, Note_on_c, 0, 97, 0
2, 171600, Note_on_c, 0, 85, 0
2, 171840, Note_on_c, 0, 108, 0
2, 171840, Note_on_c, 0, 99, 100
2, 171840, Note_on_c, 0, 87, 100
2, 172080, Note_on_c, 0, 99, 0
2, 172080, Note_on_c, 0, 87, 0
2, 172080, Note_on_c, 0, 99, 100
2, 172080, Note_on_c, 0, 108, 100
2, 172290, Note_on_c, 0, 105, 100
2, 172290, Note_on_c, 0, 93, 100
2, 172290, Note_on_c, 0, 69, 100
2, 172290, Note_on_c, 0, 81, 100
2, 172320, Note_on_c, 0, 73, 0
2, 172320, Note_on_c, 0, 61, 0
2, 172320, Note_on_c, 0, 99, 0
2, 172320, Note_on_c, 0, 108, 0
2, 172320, Note_on_c, 0, 97, 100
2, 172320, Note_on_c, 0, 85, 100
2, 172320, Note_on_c, 0, 108, 100
2, 172560, Note_on_c, 0, 97, 0
2, 172560, Note_on_c, 0, 85, 0
2, 172560, Note_on_c, 0, 108, 0
2, 172560, Note_on_c, 0, 98, 100
2, 172560, Note_on_c, 0, 86, 100
2, 172560, Note_on_c, 0, 108, 100
2, 172770, Note_on_c, 0, 106, 0
2, 172770, Note_on_c, 0, 94, 0
2, 172770, Note_on_c, 0, 70, 0
2, 172770, Note_on_c, 0, 82, 0
2, 172800, Note_on_c, 0, 98, 0
2, 172800, Note_on_c, 0, 86, 0
2, 172800, Note_on_c, 0, 108, 0
2, 172800, Note_on_c, 0, 98, 100
2, 172800, Note_on_c, 0, 86, 100
2, 172800, Note_on_c, 0, 74, 100
2, 172800, Note_on_c, 0, 62, 100
2, 173040, Note_on_c, 0, 108, 100
2, 173280, Note_on_c, 0, 108, 0
2, 173280, Note_on_c, 0, 108, 100
2, 173760, Note_on_c, 0, 108, 0
2, 174000, Note_on_c, 0, 108, 100
2, 174720, Note_on_c, 0, 98, 0
2, 174720, Note_on_c, 0, 86, 0
2, 174720, Note_on_c, 0, 98, 100
2, 174720, Note_on_c, 0, 86, 100
2, 174960, Note_on_c, 0, 108, 0
2, 174960, Note_on_c, 0, 98, 0
2, 174960, Note_on_c, 0, 86, 0
2, 174960, Note_on_c, 0, 98, 100
2, 174960, Note_on_c, 0, 86, 100
2, 175200, Note_on_c, 0, 98, 0
2, 175200, Note_on_c, 0, 86, 0
2, 175200, Note_on_c, 0, 98, 100
2, 175200, Note_on_c, 0, 86, 100
2, 175440, Note_on_c, 0, 98, 0
2, 175440, Note_on_c, 0, 86, 0
2, 175440, Note_on_c, 0, 98, 100
2, 175440, Note_on_c, 0, 86, 100
2, 175680, Note_on_c, 0, 98, 0
2, 175680, Note_on_c, 0, 86, 0
2, 175680, Note_on_c, 0, 98, 100
2, 175680, Note_on_c, 0, 86, 100
2, 175920, Note_on_c, 0, 98, 0
2, 175920, Note_on_c, 0, 86, 0
2, 175920, Note_on_c, 0, 98, 100
2, 175920, Note_on_c, 0, 86, 100
2, 176160, Note_on_c, 0, 98, 0
2, 176160, Note_on_c, 0, 86, 0
2, 176160, Note_on_c, 0, 98, 100
2, 176160, Note_on_c, 0, 86, 100
2, 176400, Note_on_c, 0, 98, 0
2, 176400, Note_on_c, 0, 86, 0
2, 176400, Note_on_c, 0, 98, 100
2, 176400, Note_on_c, 0, 86, 100
2, 176610, Note_on_c, 0, 105, 0
2, 176610, Note_on_c, 0, 93, 0
2, 176610, Note_on_c, 0, 69, 0
2, 176610, Note_on_c, 0, 81, 0
2, 176610, Note_on_c, 0, 103, 100
2, 176610, Note_on_c, 0, 91, 100
2, 176610, Note_on_c, 0, 79, 100
2, 176610, Note_on_c, 0, 67, 100
2, 176610, Note_on_c, 0, 106, 100
2, 176610, Note_on_c, 0, 94, 100
2, 176610, Note_on_c, 0, 70, 100
2, 176610, Note_on_c, 0, 82, 100
2, 176640, Note_on_c, 0, 74, 0
2, 176640, Note_on_c, 0, 62, 0
2, 176640, Note_on_c, 0, 98, 0
2, 176640, Note_on_c, 0, 86, 0
2, 176640, Note_on_c, 0, 100, 100
2, 176640, Note_on_c, 0, 98, 100
2, 176640, Note_on_c, 0, 88, 100
2, 176640, Note_on_c, 0, 86, 100
2, 176640, Note_on_c, 0, 62, 100
2, 176640, Note_on_c, 0, 74, 100
2, 176640, Note_on_c, 0, 72, 100
2, 176880, Note_on_c, 0, 100, 0
2, 176880, Note_on_c, 0, 98, 0
2, 176880, Note_on_c, 0, 88, 0
2, 176880, Note_on_c, 0, 86, 0
2, 176880, Note_on_c, 0, 62, 0
2, 176880, Note_on_c, 0, 74, 0
2, 176880, Note_on_c, 0, 72, 0
2, 176880, Note_on_c, 0, 100, 100
2, 176880, Note_on_c, 0, 98, 100
2, 176880, Note_on_c, 0, 88, 100
2, 176880, Note_on_c, 0, 86, 100
2, 176880, Note_on_c, 0, 74, 100
2, 176880, Note_on_c, 0, 72, 100
2, 177120, Note_on_c, 0, 100, 0
2, 177120, Note_on_c, 0, 98, 0
2, 177120, Note_on_c, 0, 88, 0
2, 177120, Note_on_c, 0, 86, 0
2, 177120, Note_on_c, 0, 74, 0
2, 177120, Note_on_c, 0, 72, 0
2, 177120, Note_on_c, 0, 100, 100
2, 177120, Note_on_c, 0, 98, 100
2, 177120, Note_on_c, 0, 88, 100
2, 177120, Note_on_c, 0, 86, 100
2, 177120, Note_on_c, 0, 62, 100
2, 177120, Note_on_c, 0, 74, 100
2, 177120, Note_on_c, 0, 72, 100
2, 177360, Note_on_c, 0, 100, 0
2, 177360, Note_on_c, 0, 98, 0
2, 177360, Note_on_c, 0, 88, 0
2, 177360, Note_on_c, 0, 86, 0
2, 177360, Note_on_c, 0, 62, 0
2, 177360, Note_on_c, 0, 74, 0
2, 177360, Note_on_c, 0, 72, 0
2, 177360, Note_on_c, 0, 100, 100
2, 177360, Note_on_c, 0, 98, 100
2, 177360, Note_on_c, 0, 88, 100
2, 177360, Note_on_c, 0, 86, 100
2, 177360, Note_on_c, 0, 108, 100
2, 177360, Note_on_c, 0, 74, 100
2, 177360, Note_on_c, 0, 72, 100
2, 177600, Note_on_c, 0, 100, 0
2, 177600, Note_on_c, 0, 98, 0
2, 177600, Note_on_c, 0, 88, 0
2, 177600, Note_on_c, 0, 86, 0
2, 177600, Note_on_c, 0, 108, 0
2, 177600, Note_on_c, 0, 74, 0
2, 177600, Note_on_c, 0, 72, 0
2, 177600, Note_on_c, 0, 100, 100
2, 177600, Note_on_c, 0, 98, 100
2, 177600, Note_on_c, 0, 88, 100
2, 177600, Note_on_c, 0, 86, 100
2, 177600, Note_on_c, 0, 62, 100
2, 177600, Note_on_c, 0, 74, 100
2, 177600, Note_on_c, 0, 72, 100
2, 177840, Note_on_c, 0, 100, 0
2, 177840, Note_on_c, 0, 98, 0
2, 177840, Note_on_c, 0, 88, 0
2, 177840, Note_on_c, 0, 86, 0
2, 177840, Note_on_c, 0, 62, 0
2, 177840, Note_on_c, 0, 74, 0
2, 177840, Note_on_c, 0, 72, 0
2, 177840, Note_on_c, 0, 108, 100
2, 178080, Note_on_c, 0, 108, 0
2, 178320, Note_on_c, 0, 108, 100
2, 178560, Note_on_c, 0, 108, 0
2, 178560, Note_on_c, 0, 99, 100
2, 178560, Note_on_c, 0, 97, 100
2, 178560, Note_on_c, 0, 87, 100
2, 178560, Note_on_c, 0, 85, 100
2, 178560, Note_on_c, 0, 61, 100
2, 178560, Note_on_c, 0, 73, 100
2, 178560, Note_on_c, 0, 72, 100
2, 178800, Note_on_c, 0, 99, 0
2, 178800, Note_on_c, 0, 97, 0
2, 178800, Note_on_c, 0, 87, 0
2, 178800, Note_on_c, 0, 85, 0
2, 178800, Note_on_c, 0, 61, 0
2, 178800, Note_on_c, 0, 73, 0
2, 178800, Note_on_c, 0, 72, 0
2, 178800, Note_on_c, 0, 99, 100
2, 178800, Note_on_c, 0, 97, 100
2, 178800, Note_on_c, 0, 87, 100
2, 178800, Note_on_c, 0, 85, 100
2, 178800, Note_on_c, 0, 108, 100
2, 178800, Note_on_c, 0, 73, 100
2, 178800, Note_on_c, 0, 72, 100
2, 179040, Note_on_c, 0, 99, 0
2, 179040, Note_on_c, 0, 97, 0
2, 179040, Note_on_c, 0, 87, 0
2, 179040, Note_on_c, 0, 85, 0
2, 179040, Note_on_c, 0, 108, 0
2, 179040, Note_on_c, 0, 73, 0
2, 179040, Note_on_c, 0, 72, 0
2, 179040, Note_on_c, 0, 99, 100
2, 179040, Note_on_c, 0, 97, 100
2, 179040, Note_on_c, 0, 87, 100
2, 179040, Note_on_c, 0, 85, 100
2, 179040, Note_on_c, 0, 61, 100
2, 179040, Note_on_c, 0, 73, 100
2, 179040, Note_on_c, 0, 72, 100
2, 179280, Note_on_c, 0, 99, 0
2, 179280, Note_on_c, 0, 97, 0
2, 179280, Note_on_c, 0, 87, 0
2, 179280, Note_on_c, 0, 85, 0
2, 179280, Note_on_c, 0, 61, 0
2, 179280, Note_on_c, 0, 73, 0
2, 179280, Note_on_c, 0, 72, 0
2, 179280, Note_on_c, 0, 99, 100
2, 179280, Note_on_c, 0, 97, 100
2, 179280, Note_on_c, 0, 87, 100
2, 179280, Note_on_c, 0, 85, 100
2, 179280, Note_on_c, 0, 108, 100
2, 179280, Note_on_c, 0, 73, 100
2, 179280, Note_on_c, 0, 72, 100
2, 179520, Note_on_c, 0, 99, 0
2, 179520, Note_on_c, 0, 97, 0
2, 179520, Note_on_c, 0, 87, 0
2, 179520, Note_on_c, 0, 85, 0
2, 179520, Note_on_c, 0, 108, 0
2, 179520, Note_on_c, 0, 73, 0
2, 179520, Note_on_c, 0, 72, 0
2, 179520, Note_on_c, 0, 99, 100
2, 179520, Note_on_c, 0, 97, 100
2, 179520, Note_on_c, 0, 87, 100
2, 179520, Note_on_c, 0, 85, 100
2, 179520, Note_on_c, 0, 61, 100
2, 179520, Note_on_c, 0, 73, 100
2, 179520, Note_on_c, 0, 72, 100
2, 179760, Note_on_c, 0, 99, 0
2, 179760, Note_on_c, 0, 97, 0
2, 179760, Note_on_c, 0, 87, 0
2, 179760, Note_on_c, 0, 85, 0
2, 179760, Note_on_c, 0, 61, 0
2, 179760, Note_on_c, 0, 73, 0
2, 179760, Note_on_c, 0, 72, 0
2, 179760, Note_on_c, 0, 108, 100
2, 179970, Note_on_c, 0, 103, 0
2, 179970, Note_on_c, 0, 91, 0
2, 179970, Note_on_c, 0, 79, 0
2, 179970, Note_on_c, 0, 67, 0
2, 180450, Note_on_c, 0, 106, 0
2, 180450, Note_on_c, 0, 94, 0
2, 180450, Note_on_c, 0, 70, 0
2, 180450, Note_on_c, 0, 82, 0
2, 180450, Note_on_c, 0, 105, 100
2, 180450, Note_on_c, 0, 93, 100
2, 180450, Note_on_c, 0, 69, 100
2, 180450, Note_on_c, 0, 81, 100
2, 180480, Note_on_c, 0, 108, 0
2, 180480, Note_on_c, 0, 98, 100
2, 180480, Note_on_c, 0, 96, 100
2, 180480, Note_on_c, 0, 86, 100
2, 180480, Note_on_c, 0, 84, 100
2, 180480, Note_on_c, 0, 60, 100
2, 180480, Note_on_c, 0, 73, 100
2, 180720, Note_on_c, 0, 98, 0
2, 180720, Note_on_c, 0, 96, 0
2, 180720, Note_on_c, 0, 86, 0
2, 180720, Note_on_c, 0, 84, 0
2, 180720, Note_on_c, 0, 60, 0
2, 180720, Note_on_c, 0, 73, 0
2, 180720, Note_on_c, 0, 98, 100
2, 180720, Note_on_c, 0, 96, 100
2, 180720, Note_on_c, 0, 86, 100
2, 180720, Note_on_c, 0, 84, 100
2, 180720, Note_on_c, 0, 108, 100
2, 180960, Note_on_c, 0, 98, 0
2, 180960, Note_on_c, 0, 96, 0
2, 180960, Note_on_c, 0, 86, 0
2, 180960, Note_on_c, 0, 84, 0
2, 180960, Note_on_c, 0, 96, 100
2, 180960, Note_on_c, 0, 84, 100
2, 180960, Note_on_c, 0, 60, 100
2, 180960, Note_on_c, 0, 97, 100
2, 180960, Note_on_c, 0, 72, 100
2, 181200, Note_on_c, 0, 96, 0
2, 181200, Note_on_c, 0, 84, 0
2, 181200, Note_on_c, 0, 60, 0
2, 181200, Note_on_c, 0, 97, 0
2, 181200, Note_on_c, 0, 72, 0
2, 181200, Note_on_c, 0, 96, 100
2, 181200, Note_on_c, 0, 97, 100
2, 181200, Note_on_c, 0, 84, 100
2, 181440, Note_on_c, 0, 96, 0
2, 181440, Note_on_c, 0, 97, 0
2, 181440, Note_on_c, 0, 84, 0
2, 181440, Note_on_c, 0, 98, 100
2, 181440, Note_on_c, 0, 96, 100
2, 181440, Note_on_c, 0, 86, 100
2, 181440, Note_on_c, 0, 84, 100
2, 181440, Note_on_c, 0, 60, 100
2, 181440, Note_on_c, 0, 73, 100
2, 181680, Note_on_c, 0, 108, 0
2, 181680, Note_on_c, 0, 98, 0
2, 181680, Note_on_c, 0, 96, 0
2, 181680, Note_on_c, 0, 86, 0
2, 181680, Note_on_c, 0, 84, 0
2, 181680, Note_on_c, 0, 60, 0
2, 181680, Note_on_c, 0, 73, 0
2, 181680, Note_on_c, 0, 98, 100
2, 181680, Note_on_c, 0, 96, 100
2, 181680, Note_on_c, 0, 86, 100
2, 181680, Note_on_c, 0, 84, 100
2, 181920, Note_on_c, 0, 98, 0
2, 181920, Note_on_c, 0, 96, 0
2, 181920, Note_on_c, 0, 86, 0
2, 181920, Note_on_c, 0, 84, 0
2, 181920, Note_on_c, 0, 96, 100
2, 181920, Note_on_c, 0, 84, 100
2, 181920, Note_on_c, 0, 60, 100
2, 181920, Note_on_c, 0, 97, 100
2, 181920, Note_on_c, 0, 72, 100
2, 182160, Note_on_c, 0, 96, 0
2, 182160, Note_on_c, 0, 84, 0
2, 182160, Note_on_c, 0, 60, 0
2, 182160, Note_on_c, 0, 97, 0
2, 182160, Note_on_c, 0, 72, 0
2, 182160, Note_on_c, 0, 96, 100
2, 182160, Note_on_c, 0, 97, 100
2, 182160, Note_on_c, 0, 84, 100
2, 182370, Text_t, "drum_allbeat"
2, 182400, Note_on_c, 0, 96, 0
2, 182400, Note_on_c, 0, 97, 0
2, 182400, Note_on_c, 0, 84, 0
2, 182400, Note_on_c, 0, 98, 100
2, 182400, Note_on_c, 0, 96, 100
2, 182400, Note_on_c, 0, 86, 100
2, 182400, Note_on_c, 0, 84, 100
2, 182400, Note_on_c, 0, 60, 100
2, 182400, Note_on_c, 0, 73, 100
2, 182640, Note_on_c, 0, 98, 0
2, 182640, Note_on_c, 0, 96, 0
2, 182640, Note_on_c, 0, 86, 0
2, 182640, Note_on_c, 0, 84, 0
2, 182640, Note_on_c, 0, 60, 0
2, 182640, Note_on_c, 0, 73, 0
2, 182640, Note_on_c, 0, 98, 100
2, 182640, Note_on_c, 0, 96, 100
2, 182640, Note_on_c, 0, 86, 100
2, 182640, Note_on_c, 0, 84, 100
2, 182880, Note_on_c, 0, 98, 0
2, 182880, Note_on_c, 0, 96, 0
2, 182880, Note_on_c, 0, 86, 0
2, 182880, Note_on_c, 0, 84, 0
2, 182880, Note_on_c, 0, 96, 100
2, 182880, Note_on_c, 0, 84, 100
2, 182880, Note_on_c, 0, 60, 100
2, 182880, Note_on_c, 0, 97, 100
2, 182880, Note_on_c, 0, 72, 100
2, 183120, Note_on_c, 0, 96, 0
2, 183120, Note_on_c, 0, 84, 0
2, 183120, Note_on_c, 0, 60, 0
2, 183120, Note_on_c, 0, 97, 0
2, 183120, Note_on_c, 0, 72, 0
2, 183120, Note_on_c, 0, 96, 100
2, 183120, Note_on_c, 0, 97, 100
2, 183120, Note_on_c, 0, 84, 100
2, 183360, Note_on_c, 0, 96, 0
2, 183360, Note_on_c, 0, 97, 0
2, 183360, Note_on_c, 0, 84, 0
2, 183360, Note_on_c, 0, 98, 100
2, 183360, Note_on_c, 0, 96, 100
2, 183360, Note_on_c, 0, 86, 100
2, 183360, Note_on_c, 0, 84, 100
2, 183360, Note_on_c, 0, 60, 100
2, 183360, Note_on_c, 0, 73, 100
2, 183600, Note_on_c, 0, 98, 0
2, 183600, Note_on_c, 0, 96, 0
2, 183600, Note_on_c, 0, 86, 0
2, 183600, Note_on_c, 0, 84, 0
2, 183600, Note_on_c, 0, 60, 0
2, 183600, Note_on_c, 0, 73, 0
2, 183840, Note_on_c, 0, 97, 100
2, 183840, Note_on_c, 0, 99, 100
2, 183840, Note_on_c, 0, 85, 100
2, 183840, Note_on_c, 0, 87, 100
2, 183840, Note_on_c, 0, 61, 100
2, 183840, Note_on_c, 0, 74, 100
2, 184080, Note_on_c, 0, 97, 0
2, 184080, Note_on_c, 0, 99, 0
2, 184080, Note_on_c, 0, 85, 0
2, 184080, Note_on_c, 0, 87, 0
2, 184080, Note_on_c, 0, 61, 0
2, 184080, Note_on_c, 0, 74, 0
2, 184290, Text_t, "[chorus]"
2, 184290, Text_t, "[lighting (sweep)]"
2, 184290, Text_t, "drum_normal"
2, 184290, Note_on_c, 0, 105, 0
2, 184290, Note_on_c, 0, 93, 0
2, 184290, Note_on_c, 0, 69, 0
2, 184290, Note_on_c, 0, 81, 0
2, 184290, Note_on_c, 0, 106, 100
2, 184290, Note_on_c, 0, 94, 100
2, 184290, Note_on_c, 0, 70, 100
2, 184290, Note_on_c, 0, 82, 100
2, 184320, Note_on_c, 0, 100, 100
2, 184320, Note_on_c, 0, 98, 100
2, 184320, Note_on_c, 0, 88, 100
2, 184320, Note_on_c, 0, 86, 100
2, 184320, Note_on_c, 0, 62, 100
2, 184320, Note_on_c, 0, 74, 100
2, 184320, Note_on_c, 0, 72, 100
2, 184560, Note_on_c, 0, 100, 0
2, 184560, Note_on_c, 0, 98, 0
2, 184560, Note_on_c, 0, 88, 0
2, 184560, Note_on_c, 0, 86, 0
2, 184560, Note_on_c, 0, 62, 0
2, 184560, Note_on_c, 0, 74, 0
2, 184560, Note_on_c, 0, 72, 0
2, 184560, Note_on_c, 0, 100, 100
2, 184560, Note_on_c, 0, 98, 100
2, 184560, Note_on_c, 0, 88, 100
2, 184560, Note_on_c, 0, 86, 100
2, 184560, Note_on_c, 0, 74, 100
2, 184560, Note_on_c, 0, 72, 100
2, 184800, Note_on_c, 0, 100, 0
2, 184800, Note_on_c, 0, 98, 0
2, 184800, Note_on_c, 0, 88, 0
2, 184800, Note_on_c, 0, 86, 0
2, 184800, Note_on_c, 0, 74, 0
2, 184800, Note_on_c, 0, 72, 0
2, 184800, Note_on_c, 0, 100, 100
2, 184800, Note_on_c, 0, 98, 100
2, 184800, Note_on_c, 0, 88, 100
2, 184800, Note_on_c, 0, 86, 100
2, 184800, Note_on_c, 0, 62, 100
2, 184800, Note_on_c, 0, 74, 100
2, 184800, Note_on_c, 0, 72, 100
2, 185040, Note_on_c, 0, 100, 0
2, 185040, Note_on_c, 0, 98, 0
2, 185040, Note_on_c, 0, 88, 0
2, 185040, Note_on_c, 0, 86, 0
2, 185040, Note_on_c, 0, 62, 0
2, 185040, Note_on_c, 0, 74, 0
2, 185040, Note_on_c, 0, 72, 0
2, 185040, Note_on_c, 0, 100, 100
2, 185040, Note_on_c, 0, 98, 100
2, 185040, Note_on_c, 0, 88, 100
2, 185040, Note_on_c, 0, 86, 100
2, 185040, Note_on_c, 0, 74, 100
2, 185040, Note_on_c, 0, 72, 100
2, 185160, Note_on_c, 0, 108, 100
2, 185280, Note_on_c, 0, 100, 0
2, 185280, Note_on_c, 0, 98, 0
2, 185280, Note_on_c, 0, 88, 0
2, 185280, Note_on_c, 0, 86, 0
2, 185280, Note_on_c, 0, 74, 0
2, 185280, Note_on_c, 0, 72, 0
2, 185280, Note_on_c, 0, 108, 0
2, 185280, Note_on_c, 0, 100, 100
2, 185280, Note_on_c, 0, 98, 100
2, 185280, Note_on_c, 0, 88, 100
2, 185280, Note_on_c, 0, 86, 100
2, 185280, Note_on_c, 0, 62, 100
2, 185280, Note_on_c, 0, 108, 100
2, 185280, Note_on_c, 0, 74, 100
2, 185280, Note_on_c, 0, 72, 100
2, 185520, Note_on_c, 0, 100, 0
2, 185520, Note_on_c, 0, 98, 0
2, 185520, Note_on_c, 0, 88, 0
2, 185520, Note_on_c, 0, 86, 0
2, 185520, Note_on_c, 0, 62, 0
2, 185520, Note_on_c, 0, 74, 0
2, 185520, Note_on_c, 0, 72, 0
2, 185760, Note_on_c, 0, 108, 0
2, 186000, Note_on_c, 0, 108, 100
2, 186240, Note_on_c, 0, 108, 0
2, 186240, Note_on_c, 0, 99, 100
2, 186240, Note_on_c, 0, 97, 100
2, 186240, Note_on_c, 0, 87, 100
2, 186240, Note_on_c, 0, 85, 100
2, 186240, Note_on_c, 0, 61, 100
2, 186240, Note_on_c, 0, 73, 100
2, 186240, Note_on_c, 0, 72, 100
2, 186480, Note_on_c, 0, 99, 0
2, 186480, Note_on_c, 0, 97, 0
2, 186480, Note_on_c, 0, 87, 0
2, 186480, Note_on_c, 0, 85, 0
2, 186480, Note_on_c, 0, 61, 0
2, 186480, Note_on_c, 0, 73, 0
2, 186480, Note_on_c, 0, 72, 0
2, 186480, Note_on_c, 0, 99, 100
2, 186480, Note_on_c, 0, 97, 100
2, 186480, Note_on_c, 0, 87, 100
2, 186480, Note_on_c, 0, 85, 100
2, 186480, Note_on_c, 0, 108, 100
2, 186480, Note_on_c, 0, 73, 100
2, 186480, Note_on_c, 0, 72, 100
2, 186720, Note_on_c, 0, 99, 0
2, 186720, Note_on_c, 0, 97, 0
2, 186720, Note_on_c, 0, 87, 0
2, 186720, Note_on_c, 0, 85, 0
2, 186720, Note_on_c, 0, 108, 0
2, 186720, Note_on_c, 0, 73, 0
2, 186720, Note_on_c, 0, 72, 0
2, 186720, Note_on_c, 0, 99, 100
2, 186720, Note_on_c, 0, 97, 100
2, 186720, Note_on_c, 0, 87, 100
2, 186720, Note_on_c, 0, 85, 100
2, 186720, Note_on_c, 0, 61, 100
2, 186720, Note_on_c, 0, 73, 100
2, 186720, Note_on_c, 0, 72, 100
2, 186960, Note_on_c, 0, 99, 0
2, 186960, Note_on_c, 0, 97, 0
2, 186960, Note_on_c, 0, 87, 0
2, 186960, Note_on_c, 0, 85, 0
2, 186960, Note_on_c, 0, 61, 0
2, 186960, Note_on_c, 0, 73, 0
2, 186960, Note_on_c, 0, 72, 0
2, 186960, Note_on_c, 0, 99, 100
2, 186960, Note_on_c, 0, 97, 100
2, 186960, Note_on_c, 0, 87, 100
2, 186960, Note_on_c, 0, 85, 100
2, 186960, Note_on_c, 0, 108, 100
2, 186960, Note_on_c, 0, 73, 100
2, 186960, Note_on_c, 0, 72, 100
2, 187200, Note_on_c, 0, 99, 0
2, 187200, Note_on_c, 0, 97, 0
2, 187200, Note_on_c, 0, 87, 0
2, 187200, Note_on_c, 0, 85, 0
2, 187200, Note_on_c, 0, 108, 0
2, 187200, Note_on_c, 0, 73, 0
2, 187200, Note_on_c, 0, 72, 0
2, 187200, Note_on_c, 0, 99, 100
2, 187200, Note_on_c, 0, 97, 100
2, 187200, Note_on_c, 0, 87, 100
2, 187200, Note_on_c, 0, 85, 100
2, 187200, Note_on_c, 0, 61, 100
2, 187200, Note_on_c, 0, 73, 100
2, 187200, Note_on_c, 0, 72, 100
2, 187440, Note_on_c, 0, 99, 0
2, 187440, Note_on_c, 0, 97, 0
2, 187440, Note_on_c, 0, 87, 0
2, 187440, Note_on_c, 0, 85, 0
2, 187440, Note_on_c, 0, 61, 0
2, 187440, Note_on_c, 0, 73, 0
2, 187440, Note_on_c, 0, 72, 0
2, 187440, Note_on_c, 0, 108, 100
2, 188130, Note_on_c, 0, 106, 0
2, 188130, Note_on_c, 0, 94, 0
2, 188130, Note_on_c, 0, 70, 0
2, 188130, Note_on_c, 0, 82, 0
2, 188130, Note_on_c, 0, 105, 100
2, 188130, Note_on_c, 0, 93, 100
2, 188130, Note_on_c, 0, 69, 100
2, 188130, Note_on_c, 0, 81, 100
2, 188160, Note_on_c, 0, 108, 0
2, 188160, Note_on_c, 0, 98, 100
2, 188160, Note_on_c, 0, 96, 100
2, 188160, Note_on_c, 0, 86, 100
2, 188160, Note_on_c, 0, 84, 100
2, 188160, Note_on_c, 0, 60, 100
2, 188160, Note_on_c, 0, 73, 100
2, 188400, Note_on_c, 0, 98, 0
2, 188400, Note_on_c, 0, 96, 0
2, 188400, Note_on_c, 0, 86, 0
2, 188400, Note_on_c, 0, 84, 0
2, 188400, Note_on_c, 0, 60, 0
2, 188400, Note_on_c, 0, 73, 0
2, 188400, Note_on_c, 0, 98, 100
2, 188400, Note_on_c, 0, 96, 100
2, 188400, Note_on_c, 0, 86, 100
2, 188400, Note_on_c, 0, 84, 100
2, 188400, Note_on_c, 0, 108, 100
2, 188640, Note_on_c, 0, 98, 0
2, 188640, Note_on_c, 0, 96, 0
2, 188640, Note_on_c, 0, 86, 0
2, 188640, Note_on_c, 0, 84, 0
2, 188640, Note_on_c, 0, 108, 0
2, 188640, Note_on_c, 0, 96, 100
2, 188640, Note_on_c, 0, 84, 100
2, 188640, Note_on_c, 0, 60, 100
2, 188640, Note_on_c, 0, 97, 100
2, 188640, Note_on_c, 0, 72, 100
2, 188880, Note_on_c, 0, 96, 0
2, 188880, Note_on_c, 0, 84, 0
2, 188880, Note_on_c, 0, 60, 0
2, 188880, Note_on_c, 0, 97, 0
2, 188880, Note_on_c, 0, 72, 0
2, 188880, Note_on_c, 0, 96, 100
2, 188880, Note_on_c, 0, 97, 100
2, 188880, Note_on_c, 0, 84, 100
2, 188880, Note_on_c, 0, 108, 100
2, 189120, Note_on_c, 0, 96, 0
2, 189120, Note_on_c, 0, 97, 0
2, 189120, Note_on_c, 0, 84, 0
2, 189120, Note_on_c, 0, 108, 0
2, 189120, Note_on_c, 0, 98, 100
2, 189120, Note_on_c, 0, 96, 100
2, 189120, Note_on_c, 0, 86, 100
2, 189120, Note_on_c, 0, 84, 100
2, 189120, Note_on_c, 0, 60, 100
2, 189120, Note_on_c, 0, 108, 100
2, 189120, Note_on_c, 0, 73, 100
2, 189360, Note_on_c, 0, 98, 0
2, 189360, Note_on_c, 0, 96, 0
2, 189360, Note_on_c, 0, 86, 0
2, 189360, Note_on_c, 0, 84, 0
2, 189360, Note_on_c, 0, 60, 0
2, 189360, Note_on_c, 0, 108, 0
2, 189360, Note_on_c, 0, 73, 0
2, 189360, Note_on_c, 0, 98, 100
2, 189360, Note_on_c, 0, 96, 100
2, 189360, Note_on_c, 0, 86, 100
2, 189360, Note_on_c, 0, 84, 100
2, 189360, Note_on_c, 0, 108, 100
2, 189600, Note_on_c, 0, 98, 0
2, 189600, Note_on_c, 0, 96, 0
2, 189600, Note_on_c, 0, 86, 0
2, 189600, Note_on_c, 0, 84, 0
2, 189600, Note_on_c, 0, 96, 100
2, 189600, Note_on_c, 0, 84, 100
2, 189600, Note_on_c, 0, 60, 100
2, 189600, Note_on_c, 0, 97, 100
2, 189600, Note_on_c, 0, 72, 100
2, 189840, Note_on_c, 0, 108, 0
2, 189840, Note_on_c, 0, 96, 0
2, 189840, Note_on_c, 0, 84, 0
2, 189840, Note_on_c, 0, 60, 0
2, 189840, Note_on_c, 0, 97, 0
2, 189840, Note_on_c, 0, 72, 0
2, 189840, Note_on_c, 0, 96, 100
2, 189840, Note_on_c, 0, 97, 100
2, 189840, Note_on_c, 0, 84, 100
2, 190050, Text_t, "drum_allbeat"
2, 190080, Note_on_c, 0, 96, 0
2, 190080, Note_on_c, 0, 97, 0
2, 190080, Note_on_c, 0, 84, 0
2, 190080, Note_on_c, 0, 98, 100
2, 190080, Note_on_c, 0, 96, 100
2, 190080, Note_on_c, 0, 86, 100
2, 190080, Note_on_c, 0, 84, 100
2, 190080, Note_on_c, 0, 60, 100
2, 190080, Note_on_c, 0, 73, 100
2, 190320, Note_on_c, 0, 98, 0
2, 190320, Note_on_c, 0, 96, 0
2, 190320, Note_on_c, 0, 86, 0
2, 190320, Note_on_c, 0, 84, 0
2, 190320, Note_on_c, 0, 60, 0
2, 190320, Note_on_c, 0, 73, 0
2, 190320, Note_on_c, 0, 98, 100
2, 190320, Note_on_c, 0, 96, 100
2, 190320, Note_on_c, 0, 86, 100
2, 190320, Note_on_c, 0, 84, 100
2, 190560, Note_on_c, 0, 98, 0
2, 190560, Note_on_c, 0, 96, 0
2, 190560, Note_on_c, 0, 86, 0
2, 190560, Note_on_c, 0, 84, 0
2, 190560, Note_on_c, 0, 96, 100
2, 190560, Note_on_c, 0, 84, 100
2, 190560, Note_on_c, 0, 60, 100
2, 190560, Note_on_c, 0, 97, 100
2, 190560, Note_on_c, 0, 72, 100
2, 190800, Note_on_c, 0, 96, 0
2, 190800, Note_on_c, 0, 84, 0
2, 190800, Note_on_c, 0, 60, 0
2, 190800, Note_on_c, 0, 97, 0
2, 190800, Note_on_c, 0, 72, 0
2, 190800, Note_on_c, 0, 96, 100
2, 190800, Note_on_c, 0, 97, 100
2, 190800, Note_on_c, 0, 84, 100
2, 190800, Note_on_c, 0, 108, 100
2, 191040, Note_on_c, 0, 96, 0
2, 191040, Note_on_c, 0, 97, 0
2, 191040, Note_on_c, 0, 84, 0
2, 191040, Note_on_c, 0, 98, 100
2, 191040, Note_on_c, 0, 96, 100
2, 191040, Note_on_c, 0, 86, 100
2, 191040, Note_on_c, 0, 84, 100
2, 191040, Note_on_c, 0, 60, 100
2, 191040, Note_on_c, 0, 73, 100
2, 191280, Note_on_c, 0, 98, 0
2, 191280, Note_on_c, 0, 96, 0
2, 191280, Note_on_c, 0, 86, 0
2, 191280, Note_on_c, 0, 84, 0
2, 191280, Note_on_c, 0, 60, 0
2, 191280, Note_on_c, 0, 73, 0
2, 191520, Note_on_c, 0, 97, 100
2, 191520, Note_on_c, 0, 99, 100
2, 191520, Note_on_c, 0, 85, 100
2, 191520, Note_on_c, 0, 87, 100
2, 191520, Note_on_c, 0, 61, 100
2, 191520, Note_on_c, 0, 74, 100
2, 191760, Note_on_c, 0, 108, 0
2, 191760, Note_on_c, 0, 97, 0
2, 191760, Note_on_c, 0, 99, 0
2, 191760, Note_on_c, 0, 85, 0
2, 191760, Note_on_c, 0, 87, 0
2, 191760, Note_on_c, 0, 61, 0
2, 191760, Note_on_c, 0, 74, 0
2, 191970, Text_t, "drum_normal"
2, 191970, Note_on_c, 0, 105, 0
2, 191970, Note_on_c, 0, 93, 0
2, 191970, Note_on_c, 0, 69, 0
2, 191970, Note_on_c, 0, 81, 0
2, 191970, Note_on_c, 0, 106, 100
2, 191970, Note_on_c, 0, 94, 100
2, 191970, Note_on_c, 0, 70, 100
2, 191970, Note_on_c, 0, 82, 100
2, 192000, Note_on_c, 0, 100, 100
2, 192000, Note_on_c, 0, 98, 100
2, 192000, Note_on_c, 0, 88, 100
2, 192000, Note_on_c, 0, 86, 100
2, 192000, Note_on_c, 0, 62, 100
2, 192000, Note_on_c, 0, 74, 100
2, 192000, Note_on_c, 0, 72, 100
2, 192240, Note_on_c, 0, 100, 0
2, 192240, Note_on_c, 0, 98, 0
2, 192240, Note_on_c, 0, 88, 0
2, 192240, Note_on_c, 0, 86, 0
2, 192240, Note_on_c, 0, 62, 0
2, 192240, Note_on_c, 0, 74, 0
2, 192240, Note_on_c, 0, 72, 0
2, 192240, Note_on_c, 0, 100, 100
2, 192240, Note_on_c, 0, 98, 100
2, 192240, Note_on_c, 0, 88, 100
2, 192240, Note_on_c, 0, 86, 100
2, 192240, Note_on_c, 0, 74, 100
2, 192240, Note_on_c, 0, 72, 100
2, 192480, Note_on_c, 0, 100, 0
2, 192480, Note_on_c, 0, 98, 0
2, 192480, Note_on_c, 0, 88, 0
2, 192480, Note_on_c, 0, 86, 0
2, 192480, Note_on_c, 0, 74, 0
2, 192480, Note_on_c, 0, 72, 0
2, 192480, Note_on_c, 0, 100, 100
2, 192480, Note_on_c, 0, 98, 100
2, 192480, Note_on_c, 0, 88, 100
2, 192480, Note_on_c, 0, 86, 100
2, 192480, Note_on_c, 0, 62, 100
2, 192480, Note_on_c, 0, 74, 100
2, 192480, Note_on_c, 0, 72, 100
2, 192720, Note_on_c, 0, 100, 0
2, 192720, Note_on_c, 0, 98, 0
2, 192720, Note_on_c, 0, 88, 0
2, 192720, Note_on_c, 0, 86, 0
2, 192720, Note_on_c, 0, 62, 0
2, 192720, Note_on_c, 0, 74, 0
2, 192720, Note_on_c, 0, 72, 0
2, 192720, Note_on_c, 0, 100, 100
2, 192720, Note_on_c, 0, 98, 100
2, 192720, Note_on_c, 0, 88, 100
2, 192720, Note_on_c, 0, 86, 100
2, 192720, Note_on_c, 0, 108, 100
2, 192720, Note_on_c, 0, 74, 100
2, 192720, Note_on_c, 0, 72, 100
2, 192960, Note_on_c, 0, 100, 0
2, 192960, Note_on_c, 0, 98, 0
2, 192960, Note_on_c, 0, 88, 0
2, 192960, Note_on_c, 0, 86, 0
2, 192960, Note_on_c, 0, 108, 0
2, 192960, Note_on_c, 0, 74, 0
2, 192960, Note_on_c, 0, 72, 0
2, 192960, Note_on_c, 0, 100, 100
2, 192960, Note_on_c, 0, 98, 100
2, 192960, Note_on_c, 0, 88, 100
2, 192960, Note_on_c, 0, 86, 100
2, 192960, Note_on_c, 0, 62, 100
2, 192960, Note_on_c, 0, 74, 100
2, 192960, Note_on_c, 0, 72, 100
2, 193200, Note_on_c, 0, 100, 0
2, 193200, Note_on_c, 0, 98, 0
2, 193200, Note_on_c, 0, 88, 0
2, 193200, Note_on_c, 0, 86, 0
2, 193200, Note_on_c, 0, 62, 0
2, 193200, Note_on_c, 0, 74, 0
2, 193200, Note_on_c, 0, 72, 0
2, 193200, Note_on_c, 0, 108, 100
2, 193440, Note_on_c, 0, 108, 0
2, 193680, Note_on_c, 0, 108, 100
2, 193920, Note_on_c, 0, 108, 0
2, 193920, Note_on_c, 0, 99, 100
2, 193920, Note_on_c, 0, 97, 100
2, 193920, Note_on_c, 0, 87, 100
2, 193920, Note_on_c, 0, 85, 100
2, 193920, Note_on_c, 0, 61, 100
2, 193920, Note_on_c, 0, 108, 100
2, 193920, Note_on_c, 0, 73, 100
2, 193920, Note_on_c, 0, 72, 100
2, 194160, Note_on_c, 0, 99, 0
2, 194160, Note_on_c, 0, 97, 0
2, 194160, Note_on_c, 0, 87, 0
2, 194160, Note_on_c, 0, 85, 0
2, 194160, Note_on_c, 0, 61, 0
2, 194160, Note_on_c, 0, 73, 0
2, 194160, Note_on_c, 0, 72, 0
2, 194160, Note_on_c, 0, 99, 100
2, 194160, Note_on_c, 0, 97, 100
2, 194160, Note_on_c, 0, 87, 100
2, 194160, Note_on_c, 0, 85, 100
2, 194160, Note_on_c, 0, 73, 100
2, 194160, Note_on_c, 0, 72, 100
2, 194400, Note_on_c, 0, 108, 0
2, 194400, Note_on_c, 0, 99, 0
2, 194400, Note_on_c, 0, 97, 0
2, 194400, Note_on_c, 0, 87, 0
2, 194400, Note_on_c, 0, 85, 0
2, 194400, Note_on_c, 0, 73, 0
2, 194400, Note_on_c, 0, 72, 0
2, 194400, Note_on_c, 0, 99, 100
2, 194400, Note_on_c, 0, 97, 100
2, 194400, Note_on_c, 0, 87, 100
2, 194400, Note_on_c, 0, 85, 100
2, 194400, Note_on_c, 0, 61, 100
2, 194400, Note_on_c, 0, 73, 100
2, 194400, Note_on_c, 0, 72, 100
2, 194640, Note_on_c, 0, 99, 0
2, 194640, Note_on_c, 0, 97, 0
2, 194640, Note_on_c, 0, 87, 0
2, 194640, Note_on_c, 0, 85, 0
2, 194640, Note_on_c, 0, 61, 0
2, 194640, Note_on_c, 0, 73, 0
2, 194640, Note_on_c, 0, 72, 0
2, 194640, Note_on_c, 0, 99, 100
2, 194640, Note_on_c, 0, 97, 100
2, 194640, Note_on_c, 0, 87, 100
2, 194640, Note_on_c, 0, 85, 100
2, 194640, Note_on_c, 0, 108, 100
2, 194640, Note_on_c, 0, 73, 100
2, 194640, Note_on_c, 0, 72, 100
2, 194880, Note_on_c, 0, 99, 0
2, 194880, Note_on_c, 0, 97, 0
2, 194880, Note_on_c, 0, 87, 0
2, 194880, Note_on_c, 0, 85, 0
2, 194880, Note_on_c, 0, 108, 0
2, 194880, Note_on_c, 0, 73, 0
2, 194880, Note_on_c, 0, 72, 0
2, 194880, Note_on_c, 0, 99, 100
2, 194880, Note_on_c, 0, 97, 100
2, 194880, Note_on_c, 0, 87, 100
2, 194880, Note_on_c, 0, 85, 100
2, 194880, Note_on_c, 0, 61, 100
2, 194880, Note_on_c, 0, 73, 100
2, 194880, Note_on_c, 0, 72, 100
2, 195120, Note_on_c, 0, 99, 0
2, 195120, Note_on_c, 0, 97, 0
2, 195120, Note_on_c, 0, 87, 0
2, 195120, Note_on_c, 0, 85, 0
2, 195120, Note_on_c, 0, 61, 0
2, 195120, Note_on_c, 0, 73, 0
2, 195120, Note_on_c, 0, 72, 0
2, 195240, Note_on_c, 0, 108, 100
2, 195810, Note_on_c, 0, 106, 0
2, 195810, Note_on_c, 0, 94, 0
2, 195810, Note_on_c, 0, 70, 0
2, 195810, Note_on_c, 0, 82, 0
2, 195810, Note_on_c, 0, 105, 100
2, 195810, Note_on_c, 0, 93, 100
2, 195810, Note_on_c, 0, 69, 100
2, 195810, Note_on_c, 0, 81, 100
2, 195840, Note_on_c, 0, 108, 0
2, 195840, Note_on_c, 0, 98, 100
2, 195840, Note_on_c, 0, 96, 100
2, 195840, Note_on_c, 0, 86, 100
2, 195840, Note_on_c, 0, 84, 100
2, 195840, Note_on_c, 0, 60, 100
2, 195840, Note_on_c, 0, 73, 100
2, 196080, Note_on_c, 0, 98, 0
2, 196080, Note_on_c, 0, 96, 0
2, 196080, Note_on_c, 0, 86, 0
2, 196080, Note_on_c, 0, 84, 0
2, 196080, Note_on_c, 0, 60, 0
2, 196080, Note_on_c, 0, 73, 0
2, 196080, Note_on_c, 0, 98, 100
2, 196080, Note_on_c, 0, 96, 100
2, 196080, Note_on_c, 0, 86, 100
2, 196080, Note_on_c, 0, 84, 100
2, 196080, Note_on_c, 0, 108, 100
2, 196320, Note_on_c, 0, 98, 0
2, 196320, Note_on_c, 0, 96, 0
2, 196320, Note_on_c, 0, 86, 0
2, 196320, Note_on_c, 0, 84, 0
2, 196320, Note_on_c, 0, 96, 100
2, 196320, Note_on_c, 0, 84, 100
2, 196320, Note_on_c, 0, 60, 100
2, 196320, Note_on_c, 0, 97, 100
2, 196320, Note_on_c, 0, 72, 100
2, 196560, Note_on_c, 0, 96, 0
2, 196560, Note_on_c, 0, 84, 0
2, 196560, Note_on_c, 0, 60, 0
2, 196560, Note_on_c, 0, 97, 0
2, 196560, Note_on_c, 0, 72, 0
2, 196560, Note_on_c, 0, 96, 100
2, 196560, Note_on_c, 0, 97, 100
2, 196560, Note_on_c, 0, 84, 100
2, 196800, Note_on_c, 0, 108, 0
2, 196800, Note_on_c, 0, 96, 0
2, 196800, Note_on_c, 0, 97, 0
2, 196800, Note_on_c, 0, 84, 0
2, 196800, Note_on_c, 0, 98, 100
2, 196800, Note_on_c, 0, 96, 100
2, 196800, Note_on_c, 0, 86, 100
2, 196800, Note_on_c, 0, 84, 100
2, 196800, Note_on_c, 0, 60, 100
2, 196800, Note_on_c, 0, 73, 100
2, 197040, Note_on_c, 0, 98, 0
2, 197040, Note_on_c, 0, 96, 0
2, 197040, Note_on_c, 0, 86, 0
2, 197040, Note_on_c, 0, 84, 0
2, 197040, Note_on_c, 0, 60, 0
2, 197040, Note_on_c, 0, 73, 0
2, 197040, Note_on_c, 0, 98, 100
2, 197040, Note_on_c, 0, 96, 100
2, 197040, Note_on_c, 0, 86, 100
2, 197040, Note_on_c, 0, 84, 100
2, 197280, Note_on_c, 0, 98, 0
2, 197280, Note_on_c, 0, 96, 0
2, 197280, Note_on_c, 0, 86, 0
2, 197280, Note_on_c, 0, 84, 0
2, 197280, Note_on_c, 0, 96, 100
2, 197280, Note_on_c, 0, 84, 100
2, 197280, Note_on_c, 0, 60, 100
2, 197280, Note_on_c, 0, 97, 100
2, 197280, Note_on_c, 0, 72, 100
2, 197520, Note_on_c, 0, 96, 0
2, 197520, Note_on_c, 0, 84, 0
2, 197520, Note_on_c, 0, 60, 0
2, 197520, Note_on_c, 0, 97, 0
2, 197520, Note_on_c, 0, 72, 0
2, 197520, Note_on_c, 0, 96, 100
2, 197520, Note_on_c, 0, 97, 100
2, 197520, Note_on_c, 0, 84, 100
2, 197730, Text_t, "drum_allbeat"
2, 197760, Note_on_c, 0, 96, 0
2, 197760, Note_on_c, 0, 97, 0
2, 197760, Note_on_c, 0, 84, 0
2, 197760, Note_on_c, 0, 98, 100
2, 197760, Note_on_c, 0, 96, 100
2, 197760, Note_on_c, 0, 86, 100
2, 197760, Note_on_c, 0, 84, 100
2, 197760, Note_on_c, 0, 60, 100
2, 197760, Note_on_c, 0, 73, 100
2, 198000, Note_on_c, 0, 98, 0
2, 198000, Note_on_c, 0, 96, 0
2, 198000, Note_on_c, 0, 86, 0
2, 198000, Note_on_c, 0, 84, 0
2, 198000, Note_on_c, 0, 60, 0
2, 198000, Note_on_c, 0, 73, 0
2, 198000, Note_on_c, 0, 98, 100
2, 198000, Note_on_c, 0, 96, 100
2, 198000, Note_on_c, 0, 86, 100
2, 198000, Note_on_c, 0, 84, 100
2, 198240, Note_on_c, 0, 98, 0
2, 198240, Note_on_c, 0, 96, 0
2, 198240, Note_on_c, 0, 86, 0
2, 198240, Note_on_c, 0, 84, 0
2, 198240, Note_on_c, 0, 96, 100
2, 198240, Note_on_c, 0, 84, 100
2, 198240, Note_on_c, 0, 60, 100
2, 198240, Note_on_c, 0, 97, 100
2, 198240, Note_on_c, 0, 72, 100
2, 198480, Note_on_c, 0, 96, 0
2, 198480, Note_on_c, 0, 84, 0
2, 198480, Note_on_c, 0, 60, 0
2, 198480, Note_on_c, 0, 97, 0
2, 198480, Note_on_c, 0, 72, 0
2, 198480, Note_on_c, 0, 96, 100
2, 198480, Note_on_c, 0, 97, 100
2, 198480, Note_on_c, 0, 84, 100
2, 198480, Note_on_c, 0, 108, 100
2, 198720, Note_on_c, 0, 96, 0
2, 198720, Note_on_c, 0, 97, 0
2, 198720, Note_on_c, 0, 84, 0
2, 198720, Note_on_c, 0, 108, 0
2, 198720, Note_on_c, 0, 98, 100
2, 198720, Note_on_c, 0, 96, 100
2, 198720, Note_on_c, 0, 86, 100
2, 198720, Note_on_c, 0, 84, 100
2, 198720, Note_on_c, 0, 60, 100
2, 198720, Note_on_c, 0, 73, 100
2, 198960, Note_on_c, 0, 98, 0
2, 198960, Note_on_c, 0, 96, 0
2, 198960, Note_on_c, 0, 86, 0
2, 198960, Note_on_c, 0, 84, 0
2, 198960, Note_on_c, 0, 60, 0
2, 198960, Note_on_c, 0, 73, 0
2, 198960, Note_on_c, 0, 98, 100
2, 198960, Note_on_c, 0, 96, 100
2, 198960, Note_on_c, 0, 86, 100
2, 198960, Note_on_c, 0, 84, 100
2, 198960, Note_on_c, 0, 108, 100
2, 199200, Note_on_c, 0, 98, 0
2, 199200, Note_on_c, 0, 96, 0
2, 199200, Note_on_c, 0, 86, 0
2, 199200, Note_on_c, 0, 84, 0
2, 199200, Note_on_c, 0, 108, 0
2, 199200, Note_on_c, 0, 96, 100
2, 199200, Note_on_c, 0, 84, 100
2, 199200, Note_on_c, 0, 61, 100
2, 199440, Note_on_c, 0, 96, 0
2, 199440, Note_on_c, 0, 84, 0
2, 199440, Note_on_c, 0, 61, 0
2, 199440, Note_on_c, 0, 108, 100
2, 199650, Text_t, "drum_normal"
2, 199650, Note_on_c, 0, 105, 0
2, 199650, Note_on_c, 0, 93, 0
2, 199650, Note_on_c, 0, 69, 0
2, 199650, Note_on_c, 0, 81, 0
2, 199650, Note_on_c, 0, 106, 100
2, 199650, Note_on_c, 0, 94, 100
2, 199650, Note_on_c, 0, 70, 100
2, 199650, Note_on_c, 0, 82, 100
2, 199680, Note_on_c, 0, 108, 0
2, 199680, Note_on_c, 0, 98, 100
2, 199680, Note_on_c, 0, 99, 100
2, 199680, Note_on_c, 0, 86, 100
2, 199680, Note_on_c, 0, 87, 100
2, 199680, Note_on_c, 0, 74, 100
2, 199680, Note_on_c, 0, 62, 100
2, 199680, Note_on_c, 0, 72, 100
2, 199920, Note_on_c, 0, 108, 100
2, 200160, Note_on_c, 0, 108, 0
2, 200400, Note_on_c, 0, 108, 100
2, 200640, Note_on_c, 0, 98, 0
2, 200640, Note_on_c, 0, 99, 0
2, 200640, Note_on_c, 0, 86, 0
2, 200640, Note_on_c, 0, 87, 0
2, 200640, Note_on_c, 0, 74, 0
2, 200640, Note_on_c, 0, 62, 0
2, 200640, Note_on_c, 0, 72, 0
2, 200640, Note_on_c, 0, 108, 0
2, 200640, Note_on_c, 0, 98, 100
2, 200640, Note_on_c, 0, 99, 100
2, 200640, Note_on_c, 0, 86, 100
2, 200640, Note_on_c, 0, 87, 100
2, 200640, Note_on_c, 0, 74, 100
2, 200640, Note_on_c, 0, 62, 100
2, 200640, Note_on_c, 0, 72, 100
2, 200880, Note_on_c, 0, 98, 0
2, 200880, Note_on_c, 0, 99, 0
2, 200880, Note_on_c, 0, 86, 0
2, 200880, Note_on_c, 0, 87, 0
2, 200880, Note_on_c, 0, 74, 0
2, 200880, Note_on_c, 0, 62, 0
2, 200880, Note_on_c, 0, 72, 0
2, 200880, Note_on_c, 0, 108, 100
2, 201120, Note_on_c, 0, 108, 0
2, 201120, Note_on_c, 0, 98, 100
2, 201120, Note_on_c, 0, 86, 100
2, 201120, Note_on_c, 0, 108, 100
2, 201360, Note_on_c, 0, 98, 0
2, 201360, Note_on_c, 0, 86, 0
2, 201360, Note_on_c, 0, 98, 100
2, 201360, Note_on_c, 0, 86, 100
2, 201600, Note_on_c, 0, 108, 0
2, 201600, Note_on_c, 0, 98, 0
2, 201600, Note_on_c, 0, 86, 0
2, 201600, Note_on_c, 0, 98, 100
2, 201600, Note_on_c, 0, 86, 100
2, 201840, Note_on_c, 0, 98, 0
2, 201840, Note_on_c, 0, 86, 0
2, 201840, Note_on_c, 0, 98, 100
2, 201840, Note_on_c, 0, 99, 100
2, 201840, Note_on_c, 0, 86, 100
2, 201840, Note_on_c, 0, 87, 100
2, 201840, Note_on_c, 0, 74, 100
2, 201840, Note_on_c, 0, 62, 100
2, 201840, Note_on_c, 0, 108, 100
2, 201840, Note_on_c, 0, 72, 100
2, 202080, Note_on_c, 0, 98, 0
2, 202080, Note_on_c, 0, 99, 0
2, 202080, Note_on_c, 0, 86, 0
2, 202080, Note_on_c, 0, 87, 0
2, 202080, Note_on_c, 0, 74, 0
2, 202080, Note_on_c, 0, 62, 0
2, 202080, Note_on_c, 0, 108, 0
2, 202080, Note_on_c, 0, 72, 0
2, 202080, Note_on_c, 0, 98, 100
2, 202320, Note_on_c, 0, 98, 0
2, 202320, Note_on_c, 0, 98, 100
2, 202320, Note_on_c, 0, 86, 100
2, 202320, Note_on_c, 0, 108, 100
2, 202560, Note_on_c, 0, 98, 0
2, 202560, Note_on_c, 0, 86, 0
2, 202560, Note_on_c, 0, 108, 0
2, 202560, Note_on_c, 0, 98, 100
2, 202560, Note_on_c, 0, 99, 100
2, 202560, Note_on_c, 0, 86, 100
2, 202560, Note_on_c, 0, 87, 100
2, 202560, Note_on_c, 0, 74, 100
2, 202560, Note_on_c, 0, 62, 100
2, 202560, Note_on_c, 0, 72, 100
2, 202800, Note_on_c, 0, 98, 0
2, 202800, Note_on_c, 0, 99, 0
2, 202800, Note_on_c, 0, 86, 0
2, 202800, Note_on_c, 0, 87, 0
2, 202800, Note_on_c, 0, 74, 0
2, 202800, Note_on_c, 0, 62, 0
2, 202800, Note_on_c, 0, 72, 0
2, 202800, Note_on_c, 0, 98, 100
2, 202800, Note_on_c, 0, 99, 100
2, 202800, Note_on_c, 0, 108, 100
2, 203040, Note_on_c, 0, 98, 0
2, 203040, Note_on_c, 0, 99, 0
2, 203040, Note_on_c, 0, 108, 0
2, 203040, Note_on_c, 0, 98, 100
2, 203040, Note_on_c, 0, 60, 100
2, 203280, Note_on_c, 0, 98, 0
2, 203280, Note_on_c, 0, 60, 0
2, 203280, Note_on_c, 0, 108, 100
2, 203490, Note_on_c, 0, 103, 100
2, 203490, Note_on_c, 0, 91, 100
2, 203490, Note_on_c, 0, 79, 100
2, 203490, Note_on_c, 0, 67, 100
2, 203490, Note_on_c, 0, 105, 100
2, 203490, Note_on_c, 0, 93, 100
2, 203490, Note_on_c, 0, 69, 100
2, 203490, Note_on_c, 0, 81, 100
2, 203520, Note_on_c, 0, 108, 0
2, 203520, Note_on_c, 0, 100, 100
2, 203520, Note_on_c, 0, 99, 100
2, 203520, Note_on_c, 0, 88, 100
2, 203520, Note_on_c, 0, 87, 100
2, 203520, Note_on_c, 0, 74, 100
2, 203520, Note_on_c, 0, 73, 100
2, 203520, Note_on_c, 0, 61, 100
2, 203760, Note_on_c, 0, 108, 100
2, 204000, Note_on_c, 0, 108, 0
2, 204240, Note_on_c, 0, 108, 100
2, 204480, Note_on_c, 0, 108, 0
2, 204720, Note_on_c, 0, 108, 100
2, 204960, Note_on_c, 0, 100, 0
2, 204960, Note_on_c, 0, 99, 0
2, 204960, Note_on_c, 0, 88, 0
2, 204960, Note_on_c, 0, 87, 0
2, 204960, Note_on_c, 0, 100, 100
2, 204960, Note_on_c, 0, 99, 100
2, 204960, Note_on_c, 0, 88, 100
2, 204960, Note_on_c, 0, 87, 100
2, 205410, Text_t, "drum_allbeat"
2, 206160, Note_on_c, 0, 108, 0
2, 206400, Note_on_c, 0, 74, 0
2, 206400, Note_on_c, 0, 73, 0
2, 206400, Note_on_c, 0, 61, 0
2, 206400, Note_on_c, 0, 100, 0
2, 206400, Note_on_c, 0, 99, 0
2, 206400, Note_on_c, 0, 88, 0
2, 206400, Note_on_c, 0, 87, 0
2, 206400, Note_on_c, 0, 100, 100
2, 206400, Note_on_c, 0, 99, 100
2, 206400, Note_on_c, 0, 88, 100
2, 206400, Note_on_c, 0, 87, 100
2, 206400, Note_on_c, 0, 74, 100
2, 206400, Note_on_c, 0, 61, 100
2, 206400, Note_on_c, 0, 108, 100
2, 206400, Note_on_c, 0, 73, 100
2, 206610, Note_on_c, 0, 67, 0
2, 206640, Note_on_c, 0, 100, 0
2, 206640, Note_on_c, 0, 99, 0
2, 206640, Note_on_c, 0, 88, 0
2, 206640, Note_on_c, 0, 87, 0
2, 206640, Note_on_c, 0, 74, 0
2, 206640, Note_on_c, 0, 61, 0
2, 206640, Note_on_c, 0, 73, 0
2, 206850, Note_on_c, 0, 103, 0
2, 206850, Note_on_c, 0, 91, 0
2, 206850, Note_on_c, 0, 79, 0
2, 207120, Note_on_c, 0, 108, 0
2, 207330, Text_t, "drum_normal"
2, 207330, Note_on_c, 0, 106, 0
2, 207330, Note_on_c, 0, 94, 0
2, 207330, Note_on_c, 0, 70, 0
2, 207330, Note_on_c, 0, 82, 0
2, 208320, Note_on_c, 0, 85, 100
2, 208320, Note_on_c, 0, 97, 100
2, 208320, Note_on_c, 0, 73, 100
2, 208320, Note_on_c, 0, 62, 100
2, 208560, Note_on_c, 0, 85, 0
2, 208560, Note_on_c, 0, 97, 0
2, 208560, Note_on_c, 0, 73, 0
2, 208560, Note_on_c, 0, 62, 0
2, 208560, Note_on_c, 0, 98, 100
2, 208800, Note_on_c, 0, 98, 0
2, 208800, Note_on_c, 0, 98, 100
2, 208800, Note_on_c, 0, 86, 100
2, 208800, Note_on_c, 0, 74, 100
2, 209040, Note_on_c, 0, 98, 0
2, 209040, Note_on_c, 0, 86, 0
2, 209040, Note_on_c, 0, 74, 0
2, 209040, Note_on_c, 0, 98, 100
2, 209040, Note_on_c, 0, 86, 100
2, 209040, Note_on_c, 0, 73, 100
2, 209280, Note_on_c, 0, 98, 0
2, 209280, Note_on_c, 0, 86, 0
2, 209280, Note_on_c, 0, 73, 0
2, 209520, Note_on_c, 0, 97, 100
2, 209520, Note_on_c, 0, 85, 100
2, 209520, Note_on_c, 0, 73, 100
2, 209520, Note_on_c, 0, 61, 100
2, 209760, Note_on_c, 0, 97, 0
2, 209760, Note_on_c, 0, 85, 0
2, 209760, Note_on_c, 0, 73, 0
2, 209760, Note_on_c, 0, 61, 0
2, 209760, Note_on_c, 0, 96, 100
2, 209760, Note_on_c, 0, 84, 100
2, 209760, Note_on_c, 0, 72, 100
2, 210000, Note_on_c, 0, 72, 0
2, 210720, Note_on_c, 0, 96, 0
2, 210720, Note_on_c, 0, 84, 0
2, 210720, Note_on_c, 0, 97, 100
2, 210720, Note_on_c, 0, 85, 100
2, 210720, Note_on_c, 0, 73, 100
2, 210720, Note_on_c, 0, 61, 100
2, 210960, Note_on_c, 0, 97, 0
2, 210960, Note_on_c, 0, 85, 0
2, 210960, Note_on_c, 0, 73, 0
2, 210960, Note_on_c, 0, 96, 100
2, 210960, Note_on_c, 0, 84, 100
2, 210960, Note_on_c, 0, 72, 100
2, 211170, Text_t, "wail_off"
2, 211170, Text_t, "drum_double"
2, 211200, Note_on_c, 0, 96, 0
2, 211200, Note_on_c, 0, 84, 0
2, 211200, Note_on_c, 0, 72, 0
2, 211200, Note_on_c, 0, 97, 100
2, 211200, Note_on_c, 0, 85, 100
2, 211200, Note_on_c, 0, 73, 100
2, 211440, Note_on_c, 0, 97, 0
2, 211440, Note_on_c, 0, 85, 0
2, 211440, Note_on_c, 0, 98, 100
2, 211440, Note_on_c, 0, 86, 100
2, 212400, Note_on_c, 0, 61, 0
2, 212400, Note_on_c, 0, 73, 0
2, 212400, Note_on_c, 0, 98, 0
2, 212400, Note_on_c, 0, 86, 0
2, 212610, Note_on_c, 0, 105, 0
2, 212610, Note_on_c, 0, 93, 0
2, 212610, Note_on_c, 0, 69, 0
2, 212610, Note_on_c, 0, 81, 0
2, 212610, Note_on_c, 0, 106, 100
2, 212610, Note_on_c, 0, 94, 100
2, 212610, Note_on_c, 0, 70, 100
2, 212610, Note_on_c, 0, 82, 100
2, 212640, Note_on_c, 0, 96, 100
2, 212640, Note_on_c, 0, 84, 100
2, 212640, Note_on_c, 0, 72, 100
2, 212640, Note_on_c, 0, 60, 100
2, 212880, Note_on_c, 0, 96, 0
2, 212880, Note_on_c, 0, 84, 0
2, 212880, Note_on_c, 0, 72, 0
2, 212880, Note_on_c, 0, 60, 0
2, 212880, Note_on_c, 0, 96, 100
2, 213120, Note_on_c, 0, 96, 0
2, 213120, Note_on_c, 0, 97, 100
2, 213120, Note_on_c, 0, 85, 100
2, 213120, Note_on_c, 0, 73, 100
2, 213360, Note_on_c, 0, 73, 0
2, 214080, Note_on_c, 0, 97, 0
2, 214080, Note_on_c, 0, 85, 0
2, 214080, Note_on_c, 0, 98, 100
2, 214080, Note_on_c, 0, 86, 100
2, 214080, Note_on_c, 0, 74, 100
2, 214080, Note_on_c, 0, 61, 100
2, 214320, Note_on_c, 0, 98, 0
2, 214320, Note_on_c, 0, 86, 0
2, 214320, Note_on_c, 0, 74, 0
2, 214320, Note_on_c, 0, 61, 0
2, 214560, Note_on_c, 0, 99, 100
2, 214560, Note_on_c, 0, 87, 100
2, 214560, Note_on_c, 0, 75, 100
2, 214560, Note_on_c, 0, 62, 100
2, 214800, Note_on_c, 0, 99, 0
2, 214800, Note_on_c, 0, 87, 0
2, 214800, Note_on_c, 0, 75, 0
2, 214800, Note_on_c, 0, 62, 0
2, 214800, Note_on_c, 0, 100, 100
2, 214800, Note_on_c, 0, 88, 100
2, 215010, Text_t, "sing_off"
2, 215010, Text_t, "[solo]"
2, 215010, Text_t, "solo_on"
2, 215010, Text_t, "drum_normal"
2, 215040, Note_on_c, 0, 100, 0
2, 215040, Note_on_c, 0, 88, 0
2, 215040, Note_on_c, 0, 99, 100
2, 215040, Note_on_c, 0, 87, 100
2, 215970, Note_on_c, 0, 106, 0
2, 215970, Note_on_c, 0, 94, 0
2, 215970, Note_on_c, 0, 70, 0
2, 215970, Note_on_c, 0, 82, 0
2, 216000, Note_on_c, 0, 99, 0
2, 216000, Note_on_c, 0, 87, 0
2, 216450, Note_on_c, 0, 105, 100
2, 216450, Note_on_c, 0, 93, 100
2, 216450, Note_on_c, 0, 69, 100
2, 216450, Note_on_c, 0, 81, 100
2, 216480, Note_on_c, 0, 97, 100
2, 216480, Note_on_c, 0, 85, 100
2, 216480, Note_on_c, 0, 72, 100
2, 216480, Note_on_c, 0, 60, 100
2, 216720, Note_on_c, 0, 97, 0
2, 216720, Note_on_c, 0, 85, 0
2, 216720, Note_on_c, 0, 72, 0
2, 216720, Note_on_c, 0, 60, 0
2, 216720, Note_on_c, 0, 96, 100
2, 216720, Note_on_c, 0, 84, 100
2, 216960, Note_on_c, 0, 96, 0
2, 216960, Note_on_c, 0, 84, 0
2, 216960, Note_on_c, 0, 97, 100
2, 216960, Note_on_c, 0, 85, 100
2, 216960, Note_on_c, 0, 72, 100
2, 217200, Note_on_c, 0, 97, 0
2, 217200, Note_on_c, 0, 85, 0
2, 217200, Note_on_c, 0, 72, 0
2, 217440, Note_on_c, 0, 98, 100
2, 217440, Note_on_c, 0, 86, 100
2, 217440, Note_on_c, 0, 73, 100
2, 217440, Note_on_c, 0, 61, 100
2, 217680, Note_on_c, 0, 98, 0
2, 217680, Note_on_c, 0, 86, 0
2, 217680, Note_on_c, 0, 73, 0
2, 217680, Note_on_c, 0, 61, 0
2, 217920, Note_on_c, 0, 99, 100
2, 217920, Note_on_c, 0, 87, 100
2, 217920, Note_on_c, 0, 74, 100
2, 217920, Note_on_c, 0, 62, 100
2, 218160, Note_on_c, 0, 99, 0
2, 218160, Note_on_c, 0, 87, 0
2, 218160, Note_on_c, 0, 74, 0
2, 218160, Note_on_c, 0, 62, 0
2, 218400, Note_on_c, 0, 100, 100
2, 218400, Note_on_c, 0, 88, 100
2, 218400, Note_on_c, 0, 75, 100
2, 218400, Note_on_c, 0, 62, 100
2, 219810, Note_on_c, 0, 105, 0
2, 219810, Note_on_c, 0, 93, 0
2, 219810, Note_on_c, 0, 69, 0
2, 219810, Note_on_c, 0, 81, 0
2, 219840, Note_on_c, 0, 100, 0
2, 219840, Note_on_c, 0, 88, 0
2, 219840, Note_on_c, 0, 75, 0
2, 219840, Note_on_c, 0, 62, 0
2, 220290, Note_on_c, 0, 106, 100
2, 220290, Note_on_c, 0, 94, 100
2, 220290, Note_on_c, 0, 82, 100
2, 220290, Note_on_c, 0, 70, 100
2, 220320, Note_on_c, 0, 97, 100
2, 220320, Note_on_c, 0, 85, 100
2, 220320, Note_on_c, 0, 72, 100
2, 220320, Note_on_c, 0, 60, 100
2, 220560, Note_on_c, 0, 97, 0
2, 220560, Note_on_c, 0, 85, 0
2, 220560, Note_on_c, 0, 72, 0
2, 220560, Note_on_c, 0, 60, 0
2, 220560, Note_on_c, 0, 96, 100
2, 220560, Note_on_c, 0, 84, 100
2, 220800, Note_on_c, 0, 96, 0
2, 220800, Note_on_c, 0, 84, 0
2, 220800, Note_on_c, 0, 97, 100
2, 220800, Note_on_c, 0, 85, 100
2, 220800, Note_on_c, 0, 72, 100
2, 220800, Note_on_c, 0, 60, 100
2, 221040, Note_on_c, 0, 97, 0
2, 221040, Note_on_c, 0, 85, 0
2, 221040, Note_on_c, 0, 72, 0
2, 221040, Note_on_c, 0, 60, 0
2, 221280, Note_on_c, 0, 98, 100
2, 221280, Note_on_c, 0, 86, 100
2, 221280, Note_on_c, 0, 73, 100
2, 221520, Note_on_c, 0, 98, 0
2, 221520, Note_on_c, 0, 86, 0
2, 221520, Note_on_c, 0, 73, 0
2, 221760, Note_on_c, 0, 99, 100
2, 221760, Note_on_c, 0, 87, 100
2, 221760, Note_on_c, 0, 74, 100
2, 221760, Note_on_c, 0, 61, 100
2, 222000, Note_on_c, 0, 99, 0
2, 222000, Note_on_c, 0, 87, 0
2, 222000, Note_on_c, 0, 74, 0
2, 222000, Note_on_c, 0, 61, 0
2, 222240, Note_on_c, 0, 98, 100
2, 222240, Note_on_c, 0, 99, 100
2, 222240, Note_on_c, 0, 87, 100
2, 222240, Note_on_c, 0, 74, 100
2, 222240, Note_on_c, 0, 62, 100
2, 222480, Note_on_c, 0, 98, 0
2, 222480, Note_on_c, 0, 99, 0
2, 222480, Note_on_c, 0, 87, 0
2, 222480, Note_on_c, 0, 74, 0
2, 222480, Note_on_c, 0, 62, 0
2, 222480, Note_on_c, 0, 100, 100
2, 222480, Note_on_c, 0, 99, 100
2, 222480, Note_on_c, 0, 88, 100
2, 222720, Note_on_c, 0, 100, 0
2, 222720, Note_on_c, 0, 99, 0
2, 222720, Note_on_c, 0, 88, 0
2, 222720, Note_on_c, 0, 99, 100
2, 222720, Note_on_c, 0, 98, 100
2, 222720, Note_on_c, 0, 87, 100
2, 222720, Note_on_c, 0, 74, 100
2, 222960, Note_on_c, 0, 99, 0
2, 222960, Note_on_c, 0, 98, 0
2, 222960, Note_on_c, 0, 87, 0
2, 222960, Note_on_c, 0, 74, 0
2, 224130, Note_on_c, 0, 105, 100
2, 224130, Note_on_c, 0, 93, 100
2, 224130, Note_on_c, 0, 69, 100
2, 224130, Note_on_c, 0, 81, 100
2, 224160, Note_on_c, 0, 100, 100
2, 224160, Note_on_c, 0, 88, 100
2, 224160, Note_on_c, 0, 75, 100
2, 224160, Note_on_c, 0, 62, 100
2, 224610, Text_t, "drum_double"
2, 225840, Note_on_c, 0, 62, 0
2, 226080, Note_on_c, 0, 100, 0
2, 226080, Note_on_c, 0, 88, 0
2, 226080, Note_on_c, 0, 75, 0
2, 226080, Note_on_c, 0, 100, 100
2, 226080, Note_on_c, 0, 88, 100
2, 226080, Note_on_c, 0, 75, 100
2, 226080, Note_on_c, 0, 62, 100
2, 226200, Note_on_c, 0, 100, 0
2, 226200, Note_on_c, 0, 88, 0
2, 226200, Note_on_c, 0, 75, 0
2, 226200, Note_on_c, 0, 62, 0
2, 226200, Note_on_c, 0, 99, 100
2, 226200, Note_on_c, 0, 87, 100
2, 226320, Note_on_c, 0, 99, 0
2, 226320, Note_on_c, 0, 87, 0
2, 226320, Note_on_c, 0, 98, 100
2, 226320, Note_on_c, 0, 86, 100
2, 226440, Note_on_c, 0, 98, 0
2, 226440, Note_on_c, 0, 86, 0
2, 226440, Note_on_c, 0, 99, 100
2, 226530, Text_t, "drum_normal"
2, 226560, Note_on_c, 0, 99, 0
2, 226560, Note_on_c, 0, 98, 100
2, 226560, Note_on_c, 0, 87, 100
2, 226560, Note_on_c, 0, 74, 100
2, 226560, Note_on_c, 0, 62, 100
2, 226680, Note_on_c, 0, 98, 0
2, 226680, Note_on_c, 0, 87, 0
2, 226680, Note_on_c, 0, 74, 0
2, 226680, Note_on_c, 0, 62, 0
2, 226680, Note_on_c, 0, 99, 100
2, 226680, Note_on_c, 0, 86, 100
2, 226800, Note_on_c, 0, 99, 0
2, 226800, Note_on_c, 0, 86, 0
2, 226800, Note_on_c, 0, 98, 100
2, 226800, Note_on_c, 0, 85, 100
2, 226920, Note_on_c, 0, 98, 0
2, 226920, Note_on_c, 0, 85, 0
2, 226920, Note_on_c, 0, 97, 100
2, 227040, Note_on_c, 0, 97, 0
2, 227040, Note_on_c, 0, 98, 100
2, 227040, Note_on_c, 0, 87, 100
2, 227040, Note_on_c, 0, 74, 100
2, 227040, Note_on_c, 0, 62, 100
2, 227160, Note_on_c, 0, 98, 0
2, 227160, Note_on_c, 0, 87, 0
2, 227160, Note_on_c, 0, 74, 0
2, 227160, Note_on_c, 0, 62, 0
2, 227160, Note_on_c, 0, 99, 100
2, 227160, Note_on_c, 0, 86, 100
2, 227280, Note_on_c, 0, 99, 0
2, 227280, Note_on_c, 0, 86, 0
2, 227280, Note_on_c, 0, 98, 100
2, 227280, Note_on_c, 0, 85, 100
2, 227400, Note_on_c, 0, 98, 0
2, 227400, Note_on_c, 0, 85, 0
2, 227400, Note_on_c, 0, 97, 100
2, 227520, Note_on_c, 0, 97, 0
2, 227520, Note_on_c, 0, 98, 100
2, 227520, Note_on_c, 0, 86, 100
2, 227520, Note_on_c, 0, 73, 100
2, 227520, Note_on_c, 0, 61, 100
2, 227640, Note_on_c, 0, 98, 0
2, 227640, Note_on_c, 0, 86, 0
2, 227640, Note_on_c, 0, 73, 0
2, 227640, Note_on_c, 0, 61, 0
2, 227640, Note_on_c, 0, 97, 100
2, 227640, Note_on_c, 0, 85, 100
2, 227760, Note_on_c, 0, 97, 0
2, 227760, Note_on_c, 0, 85, 0
2, 227760, Note_on_c, 0, 96, 100
2, 227760, Note_on_c, 0, 84, 100
2, 227880, Note_on_c, 0, 96, 0
2, 227880, Note_on_c, 0, 84, 0
2, 228000, Note_on_c, 0, 98, 100
2, 228000, Note_on_c, 0, 86, 100
2, 228000, Note_on_c, 0, 73, 100
2, 228000, Note_on_c, 0, 61, 100
2, 228120, Note_on_c, 0, 98, 0
2, 228120, Note_on_c, 0, 86, 0
2, 228120, Note_on_c, 0, 73, 0
2, 228120, Note_on_c, 0, 61, 0
2, 228120, Note_on_c, 0, 97, 100
2, 228120, Note_on_c, 0, 85, 100
2, 228240, Note_on_c, 0, 97, 0
2, 228240, Note_on_c, 0, 85, 0
2, 228240, Note_on_c, 0, 96, 100
2, 228240, Note_on_c, 0, 84, 100
2, 228360, Note_on_c, 0, 96, 0
2, 228360, Note_on_c, 0, 84, 0
2, 228360, Note_on_c, 0, 97, 100
2, 228480, Note_on_c, 0, 97, 0
2, 228480, Note_on_c, 0, 96, 100
2, 228480, Note_on_c, 0, 84, 100
2, 228480, Note_on_c, 0, 72, 100
2, 228480, Note_on_c, 0, 60, 100
2, 229410, Note_on_c, 0, 106, 0
2, 229410, Note_on_c, 0, 94, 0
2, 229410, Note_on_c, 0, 82, 0
2, 229410, Note_on_c, 0, 70, 0
2, 229440, Note_on_c, 0, 96, 0
2, 229440, Note_on_c, 0, 84, 0
2, 229440, Note_on_c, 0, 72, 0
2, 229440, Note_on_c, 0, 60, 0
2, 229440, Note_on_c, 0, 96, 100
2, 229440, Note_on_c, 0, 84, 100
2, 229440, Note_on_c, 0, 72, 100
2, 229680, Note_on_c, 0, 96, 0
2, 229680, Note_on_c, 0, 84, 0
2, 229680, Note_on_c, 0, 72, 0
2, 229680, Note_on_c, 0, 97, 100
2, 229680, Note_on_c, 0, 85, 100
2, 229920, Note_on_c, 0, 97, 0
2, 229920, Note_on_c, 0, 85, 0
2, 229920, Note_on_c, 0, 98, 100
2, 229920, Note_on_c, 0, 86, 100
2, 229920, Note_on_c, 0, 73, 100
2, 229920, Note_on_c, 0, 60, 100
2, 230160, Note_on_c, 0, 98, 0
2, 230160, Note_on_c, 0, 86, 0
2, 230160, Note_on_c, 0, 73, 0
2, 230160, Note_on_c, 0, 96, 100
2, 230160, Note_on_c, 0, 84, 100
2, 230160, Note_on_c, 0, 72, 100
2, 230400, Note_on_c, 0, 96, 0
2, 230400, Note_on_c, 0, 84, 0
2, 230400, Note_on_c, 0, 72, 0
2, 230400, Note_on_c, 0, 97, 100
2, 230400, Note_on_c, 0, 85, 100
2, 230400, Note_on_c, 0, 73, 100
2, 231360, Note_on_c, 0, 60, 0
2, 231360, Note_on_c, 0, 97, 0
2, 231360, Note_on_c, 0, 85, 0
2, 231360, Note_on_c, 0, 73, 0
2, 231360, Note_on_c, 0, 98, 100
2, 231360, Note_on_c, 0, 86, 100
2, 231360, Note_on_c, 0, 74, 100
2, 231360, Note_on_c, 0, 61, 100
2, 232320, Note_on_c, 0, 98, 0
2, 232320, Note_on_c, 0, 86, 0
2, 232320, Note_on_c, 0, 74, 0
2, 232320, Note_on_c, 0, 61, 0
2, 232320, Note_on_c, 0, 99, 100
2, 232320, Note_on_c, 0, 87, 100
2, 232320, Note_on_c, 0, 75, 100
2, 232320, Note_on_c, 0, 62, 100
2, 233040, Note_on_c, 0, 99, 0
2, 233040, Note_on_c, 0, 87, 0
2, 233040, Note_on_c, 0, 75, 0
2, 233040, Note_on_c, 0, 62, 0
2, 233250, Note_on_c, 0, 105, 0
2, 233250, Note_on_c, 0, 93, 0
2, 233250, Note_on_c, 0, 69, 0
2, 233250, Note_on_c, 0, 81, 0
2, 233250, Note_on_c, 0, 106, 100
2, 233250, Note_on_c, 0, 94, 100
2, 233250, Note_on_c, 0, 82, 100
2, 233250, Note_on_c, 0, 70, 100
2, 233280, Note_on_c, 0, 96, 100
2, 233280, Note_on_c, 0, 84, 100
2, 233280, Note_on_c, 0, 72, 100
2, 233280, Note_on_c, 0, 60, 100
2, 233520, Note_on_c, 0, 96, 0
2, 233520, Note_on_c, 0, 84, 0
2, 233520, Note_on_c, 0, 72, 0
2, 233520, Note_on_c, 0, 60, 0
2, 233520, Note_on_c, 0, 97, 100
2, 233520, Note_on_c, 0, 85, 100
2, 233760, Note_on_c, 0, 97, 0
2, 233760, Note_on_c, 0, 85, 0
2, 233760, Note_on_c, 0, 98, 100
2, 233760, Note_on_c, 0, 86, 100
2, 233760, Note_on_c, 0, 73, 100
2, 234000, Note_on_c, 0, 98, 0
2, 234000, Note_on_c, 0, 86, 0
2, 234000, Note_on_c, 0, 73, 0
2, 234000, Note_on_c, 0, 97, 100
2, 234000, Note_on_c, 0, 85, 100
2, 234240, Note_on_c, 0, 97, 0
2, 234240, Note_on_c, 0, 85, 0
2, 234240, Note_on_c, 0, 98, 100
2, 234240, Note_on_c, 0, 86, 100
2, 234240, Note_on_c, 0, 74, 100
2, 234240, Note_on_c, 0, 61, 100
2, 234480, Note_on_c, 0, 98, 0
2, 234480, Note_on_c, 0, 86, 0
2, 234480, Note_on_c, 0, 74, 0
2, 234480, Note_on_c, 0, 61, 0
2, 234720, Note_on_c, 0, 97, 100
2, 234720, Note_on_c, 0, 85, 100
2, 234720, Note_on_c, 0, 72, 100
2, 234960, Note_on_c, 0, 97, 0
2, 234960, Note_on_c, 0, 85, 0
2, 234960, Note_on_c, 0, 72, 0
2, 234960, Note_on_c, 0, 98, 100
2, 234960, Note_on_c, 0, 86, 100
2, 235200, Note_on_c, 0, 98, 0
2, 235200, Note_on_c, 0, 86, 0
2, 235200, Note_on_c, 0, 99, 100
2, 235200, Note_on_c, 0, 87, 100
2, 235200, Note_on_c, 0, 73, 100
2, 235200, Note_on_c, 0, 61, 100
2, 235440, Note_on_c, 0, 99, 0
2, 235440, Note_on_c, 0, 87, 0
2, 235440, Note_on_c, 0, 73, 0
2, 235440, Note_on_c, 0, 61, 0
2, 235650, Note_on_c, 0, 103, 100
2, 235650, Note_on_c, 0, 91, 100
2, 235650, Note_on_c, 0, 79, 100
2, 235650, Note_on_c, 0, 105, 100
2, 235650, Note_on_c, 0, 93, 100
2, 235650, Note_on_c, 0, 81, 100
2, 235650, Note_on_c, 0, 69, 100
2, 235650, Note_on_c, 0, 67, 100
2, 235680, Note_on_c, 0, 98, 100
2, 235680, Note_on_c, 0, 85, 100
2, 235680, Note_on_c, 0, 74, 100
2, 235920, Note_on_c, 0, 98, 0
2, 235920, Note_on_c, 0, 85, 0
2, 235920, Note_on_c, 0, 74, 0
2, 235920, Note_on_c, 0, 99, 100
2, 235920, Note_on_c, 0, 86, 100
2, 236160, Note_on_c, 0, 99, 0
2, 236160, Note_on_c, 0, 86, 0
2, 236160, Note_on_c, 0, 100, 100
2, 236160, Note_on_c, 0, 87, 100
2, 236160, Note_on_c, 0, 75, 100
2, 236160, Note_on_c, 0, 62, 100
2, 237840, Note_on_c, 0, 62, 0
2, 238050, Note_on_c, 0, 103, 0
2, 238050, Note_on_c, 0, 91, 0
2, 238050, Note_on_c, 0, 79, 0
2, 238050, Note_on_c, 0, 67, 0
2, 238080, Note_on_c, 0, 100, 0
2, 238080, Note_on_c, 0, 87, 0
2, 238080, Note_on_c, 0, 75, 0
2, 238080, Note_on_c, 0, 100, 100
2, 238080, Note_on_c, 0, 98, 100
2, 238080, Note_on_c, 0, 88, 100
2, 238080, Note_on_c, 0, 86, 100
2, 238080, Note_on_c, 0, 74, 100
2, 238080, Note_on_c, 0, 62, 100
2, 238080, Note_on_c, 0, 72, 100
2, 238320, Note_on_c, 0, 100, 0
2, 238320, Note_on_c, 0, 98, 0
2, 238320, Note_on_c, 0, 88, 0
2, 238320, Note_on_c, 0, 86, 0
2, 238320, Note_on_c, 0, 74, 0
2, 238320, Note_on_c, 0, 62, 0
2, 238320, Note_on_c, 0, 72, 0
2, 238320, Note_on_c, 0, 100, 100
2, 238320, Note_on_c, 0, 98, 100
2, 238320, Note_on_c, 0, 88, 100
2, 238320, Note_on_c, 0, 86, 100
2, 238320, Note_on_c, 0, 74, 100
2, 238320, Note_on_c, 0, 72, 100
2, 238560, Note_on_c, 0, 100, 0
2, 238560, Note_on_c, 0, 98, 0
2, 238560, Note_on_c, 0, 88, 0
2, 238560, Note_on_c, 0, 86, 0
2, 238560, Note_on_c, 0, 74, 0
2, 238560, Note_on_c, 0, 72, 0
2, 238560, Note_on_c, 0, 100, 100
2, 238560, Note_on_c, 0, 98, 100
2, 238560, Note_on_c, 0, 88, 100
2, 238560, Note_on_c, 0, 86, 100
2, 238560, Note_on_c, 0, 74, 100
2, 238560, Note_on_c, 0, 62, 100
2, 238560, Note_on_c, 0, 72, 100
2, 238800, Note_on_c, 0, 100, 0
2, 238800, Note_on_c, 0, 98, 0
2, 238800, Note_on_c, 0, 88, 0
2, 238800, Note_on_c, 0, 86, 0
2, 238800, Note_on_c, 0, 74, 0
2, 238800, Note_on_c, 0, 62, 0
2, 238800, Note_on_c, 0, 72, 0
2, 238800, Note_on_c, 0, 100, 100
2, 238800, Note_on_c, 0, 98, 100
2, 238800, Note_on_c, 0, 88, 100
2, 238800, Note_on_c, 0, 86, 100
2, 238800, Note_on_c, 0, 74, 100
2, 238800, Note_on_c, 0, 72, 100
2, 239040, Note_on_c, 0, 100, 0
2, 239040, Note_on_c, 0, 98, 0
2, 239040, Note_on_c, 0, 88, 0
2, 239040, Note_on_c, 0, 86, 0
2, 239040, Note_on_c, 0, 74, 0
2, 239040, Note_on_c, 0, 72, 0
2, 239040, Note_on_c, 0, 100, 100
2, 239040, Note_on_c, 0, 98, 100
2, 239040, Note_on_c, 0, 88, 100
2, 239040, Note_on_c, 0, 86, 100
2, 239040, Note_on_c, 0, 74, 100
2, 239040, Note_on_c, 0, 62, 100
2, 239040, Note_on_c, 0, 72, 100
2, 239280, Note_on_c, 0, 100, 0
2, 239280, Note_on_c, 0, 98, 0
2, 239280, Note_on_c, 0, 88, 0
2, 239280, Note_on_c, 0, 86, 0
2, 239280, Note_on_c, 0, 74, 0
2, 239280, Note_on_c, 0, 62, 0
2, 239280, Note_on_c, 0, 72, 0
2, 239400, Note_on_c, 0, 108, 100
2, 239520, Note_on_c, 0, 108, 0
2, 239760, Note_on_c, 0, 108, 100
2, 240000, Note_on_c, 0, 108, 0
2, 240000, Note_on_c, 0, 99, 100
2, 240000, Note_on_c, 0, 97, 100
2, 240000, Note_on_c, 0, 87, 100
2, 240000, Note_on_c, 0, 85, 100
2, 240000, Note_on_c, 0, 73, 100
2, 240000, Note_on_c, 0, 61, 100
2, 240000, Note_on_c, 0, 72, 100
2, 240240, Note_on_c, 0, 99, 0
2, 240240, Note_on_c, 0, 97, 0
2, 240240, Note_on_c, 0, 87, 0
2, 240240, Note_on_c, 0, 85, 0
2, 240240, Note_on_c, 0, 73, 0
2, 240240, Note_on_c, 0, 61, 0
2, 240240, Note_on_c, 0, 72, 0
2, 240240, Note_on_c, 0, 99, 100
2, 240240, Note_on_c, 0, 97, 100
2, 240240, Note_on_c, 0, 87, 100
2, 240240, Note_on_c, 0, 85, 100
2, 240240, Note_on_c, 0, 73, 100
2, 240240, Note_on_c, 0, 108, 100
2, 240240, Note_on_c, 0, 72, 100
2, 240480, Note_on_c, 0, 99, 0
2, 240480, Note_on_c, 0, 97, 0
2, 240480, Note_on_c, 0, 87, 0
2, 240480, Note_on_c, 0, 85, 0
2, 240480, Note_on_c, 0, 73, 0
2, 240480, Note_on_c, 0, 108, 0
2, 240480, Note_on_c, 0, 72, 0
2, 240480, Note_on_c, 0, 99, 100
2, 240480, Note_on_c, 0, 97, 100
2, 240480, Note_on_c, 0, 87, 100
2, 240480, Note_on_c, 0, 85, 100
2, 240480, Note_on_c, 0, 73, 100
2, 240480, Note_on_c, 0, 61, 100
2, 240480, Note_on_c, 0, 72, 100
2, 240720, Note_on_c, 0, 99, 0
2, 240720, Note_on_c, 0, 97, 0
2, 240720, Note_on_c, 0, 87, 0
2, 240720, Note_on_c, 0, 85, 0
2, 240720, Note_on_c, 0, 73, 0
2, 240720, Note_on_c, 0, 61, 0
2, 240720, Note_on_c, 0, 72, 0
2, 240720, Note_on_c, 0, 99, 100
2, 240720, Note_on_c, 0, 97, 100
2, 240720, Note_on_c, 0, 87, 100
2, 240720, Note_on_c, 0, 85, 100
2, 240720, Note_on_c, 0, 73, 100
2, 240720, Note_on_c, 0, 108, 100
2, 240720, Note_on_c, 0, 72, 100
2, 240960, Note_on_c, 0, 99, 0
2, 240960, Note_on_c, 0, 97, 0
2, 240960, Note_on_c, 0, 87, 0
2, 240960, Note_on_c, 0, 85, 0
2, 240960, Note_on_c, 0, 73, 0
2, 240960, Note_on_c, 0, 108, 0
2, 240960, Note_on_c, 0, 72, 0
2, 240960, Note_on_c, 0, 99, 100
2, 240960, Note_on_c, 0, 97, 100
2, 240960, Note_on_c, 0, 87, 100
2, 240960, Note_on_c, 0, 85, 100
2, 240960, Note_on_c, 0, 73, 100
2, 240960, Note_on_c, 0, 61, 100
2, 240960, Note_on_c, 0, 72, 100
2, 241200, Note_on_c, 0, 99, 0
2, 241200, Note_on_c, 0, 97, 0
2, 241200, Note_on_c, 0, 87, 0
2, 241200, Note_on_c, 0, 85, 0
2, 241200, Note_on_c, 0, 73, 0
2, 241200, Note_on_c, 0, 61, 0
2, 241200, Note_on_c, 0, 72, 0
2, 241320, Note_on_c, 0, 108, 100
2, 241920, Note_on_c, 0, 108, 0
2, 241920, Note_on_c, 0, 98, 100
2, 241920, Note_on_c, 0, 96, 100
2, 241920, Note_on_c, 0, 86, 100
2, 241920, Note_on_c, 0, 84, 100
2, 241920, Note_on_c, 0, 73, 100
2, 241920, Note_on_c, 0, 60, 100
2, 242160, Note_on_c, 0, 98, 0
2, 242160, Note_on_c, 0, 96, 0
2, 242160, Note_on_c, 0, 86, 0
2, 242160, Note_on_c, 0, 84, 0
2, 242160, Note_on_c, 0, 73, 0
2, 242160, Note_on_c, 0, 60, 0
2, 242160, Note_on_c, 0, 98, 100
2, 242160, Note_on_c, 0, 96, 100
2, 242160, Note_on_c, 0, 86, 100
2, 242160, Note_on_c, 0, 84, 100
2, 242160, Note_on_c, 0, 108, 100
2, 242400, Note_on_c, 0, 98, 0
2, 242400, Note_on_c, 0, 96, 0
2, 242400, Note_on_c, 0, 86, 0
2, 242400, Note_on_c, 0, 84, 0
2, 242400, Note_on_c, 0, 96, 100
2, 242640, Note_on_c, 0, 108, 0
2, 242640, Note_on_c, 0, 96, 0
2, 242850, Note_on_c, 0, 106, 0
2, 242850, Note_on_c, 0, 94, 0
2, 242850, Note_on_c, 0, 82, 0
2, 242850, Note_on_c, 0, 70, 0
2, 242880, Note_on_c, 0, 100, 100
2, 242880, Note_on_c, 0, 87, 100
2, 242880, Note_on_c, 0, 75, 100
2, 242880, Note_on_c, 0, 62, 100
2, 243810, Text_t, "drum_allbeat"
2, 243840, Note_on_c, 0, 100, 0
2, 243840, Note_on_c, 0, 87, 0
2, 243840, Note_on_c, 0, 75, 0
2, 243840, Note_on_c, 0, 62, 0
2, 244320, Note_on_c, 0, 99, 100
2, 244320, Note_on_c, 0, 86, 100
2, 244320, Note_on_c, 0, 73, 100
2, 244320, Note_on_c, 0, 60, 100
2, 244560, Note_on_c, 0, 99, 0
2, 244560, Note_on_c, 0, 86, 0
2, 244560, Note_on_c, 0, 73, 0
2, 244560, Note_on_c, 0, 60, 0
2, 244560, Note_on_c, 0, 97, 100
2, 244560, Note_on_c, 0, 85, 100
2, 244800, Note_on_c, 0, 97, 0
2, 244800, Note_on_c, 0, 85, 0
2, 244800, Note_on_c, 0, 98, 100
2, 244800, Note_on_c, 0, 86, 100
2, 244800, Note_on_c, 0, 73, 100
2, 245040, Note_on_c, 0, 98, 0
2, 245040, Note_on_c, 0, 86, 0
2, 245040, Note_on_c, 0, 73, 0
2, 245040, Note_on_c, 0, 97, 100
2, 245040, Note_on_c, 0, 85, 100
2, 245280, Note_on_c, 0, 97, 0
2, 245280, Note_on_c, 0, 85, 0
2, 245280, Note_on_c, 0, 98, 100
2, 245280, Note_on_c, 0, 86, 100
2, 245280, Note_on_c, 0, 73, 100
2, 245280, Note_on_c, 0, 60, 100
2, 245520, Note_on_c, 0, 98, 0
2, 245520, Note_on_c, 0, 86, 0
2, 245520, Note_on_c, 0, 73, 0
2, 245520, Note_on_c, 0, 60, 0
2, 245520, Note_on_c, 0, 97, 100
2, 245520, Note_on_c, 0, 85, 100
2, 245730, Text_t, "sing_on"
2, 245730, Text_t, "solo_off"
2, 245730, Text_t, "drum_normal"
2, 245760, Note_on_c, 0, 97, 0
2, 245760, Note_on_c, 0, 85, 0
2, 245760, Note_on_c, 0, 98, 100
2, 245760, Note_on_c, 0, 86, 100
2, 245760, Note_on_c, 0, 74, 100
2, 245760, Note_on_c, 0, 61, 100
2, 246480, Note_on_c, 0, 108, 100
2, 246720, Note_on_c, 0, 108, 0
2, 246960, Note_on_c, 0, 108, 100
2, 247200, Note_on_c, 0, 108, 0
2, 247200, Note_on_c, 0, 108, 100
2, 247440, Note_on_c, 0, 98, 0
2, 247440, Note_on_c, 0, 86, 0
2, 247440, Note_on_c, 0, 74, 0
2, 247440, Note_on_c, 0, 61, 0
2, 247650, Note_on_c, 0, 106, 100
2, 247650, Note_on_c, 0, 94, 100
2, 247650, Note_on_c, 0, 70, 100
2, 247650, Note_on_c, 0, 82, 100
2, 247680, Note_on_c, 0, 108, 0
2, 247680, Note_on_c, 0, 99, 100
2, 247680, Note_on_c, 0, 97, 100
2, 247680, Note_on_c, 0, 87, 100
2, 247680, Note_on_c, 0, 85, 100
2, 247680, Note_on_c, 0, 73, 100
2, 247680, Note_on_c, 0, 61, 100
2, 247680, Note_on_c, 0, 72, 100
2, 247920, Note_on_c, 0, 99, 0
2, 247920, Note_on_c, 0, 97, 0
2, 247920, Note_on_c, 0, 87, 0
2, 247920, Note_on_c, 0, 85, 0
2, 247920, Note_on_c, 0, 73, 0
2, 247920, Note_on_c, 0, 61, 0
2, 247920, Note_on_c, 0, 72, 0
2, 247920, Note_on_c, 0, 99, 100
2, 247920, Note_on_c, 0, 97, 100
2, 247920, Note_on_c, 0, 87, 100
2, 247920, Note_on_c, 0, 85, 100
2, 247920, Note_on_c, 0, 73, 100
2, 247920, Note_on_c, 0, 108, 100
2, 247920, Note_on_c, 0, 72, 100
2, 248160, Note_on_c, 0, 99, 0
2, 248160, Note_on_c, 0, 97, 0
2, 248160, Note_on_c, 0, 87, 0
2, 248160, Note_on_c, 0, 85, 0
2, 248160, Note_on_c, 0, 73, 0
2, 248160, Note_on_c, 0, 108, 0
2, 248160, Note_on_c, 0, 72, 0
2, 248160, Note_on_c, 0, 99, 100
2, 248160, Note_on_c, 0, 97, 100
2, 248160, Note_on_c, 0, 87, 100
2, 248160, Note_on_c, 0, 85, 100
2, 248160, Note_on_c, 0, 73, 100
2, 248160, Note_on_c, 0, 61, 100
2, 248160, Note_on_c, 0, 72, 100
2, 248400, Note_on_c, 0, 99, 0
2, 248400, Note_on_c, 0, 97, 0
2, 248400, Note_on_c, 0, 87, 0
2, 248400, Note_on_c, 0, 85, 0
2, 248400, Note_on_c, 0, 73, 0
2, 248400, Note_on_c, 0, 61, 0
2, 248400, Note_on_c, 0, 72, 0
2, 248400, Note_on_c, 0, 99, 100
2, 248400, Note_on_c, 0, 97, 100
2, 248400, Note_on_c, 0, 87, 100
2, 248400, Note_on_c, 0, 85, 100
2, 248400, Note_on_c, 0, 73, 100
2, 248400, Note_on_c, 0, 108, 100
2, 248400, Note_on_c, 0, 72, 100
2, 248640, Note_on_c, 0, 99, 0
2, 248640, Note_on_c, 0, 97, 0
2, 248640, Note_on_c, 0, 87, 0
2, 248640, Note_on_c, 0, 85, 0
2, 248640, Note_on_c, 0, 73, 0
2, 248640, Note_on_c, 0, 108, 0
2, 248640, Note_on_c, 0, 72, 0
2, 248640, Note_on_c, 0, 99, 100
2, 248640, Note_on_c, 0, 97, 100
2, 248640, Note_on_c, 0, 87, 100
2, 248640, Note_on_c, 0, 85, 100
2, 248640, Note_on_c, 0, 73, 100
2, 248640, Note_on_c, 0, 61, 100
2, 248640, Note_on_c, 0, 72, 100
2, 248880, Note_on_c, 0, 99, 0
2, 248880, Note_on_c, 0, 97, 0
2, 248880, Note_on_c, 0, 87, 0
2, 248880, Note_on_c, 0, 85, 0
2, 248880, Note_on_c, 0, 73, 0
2, 248880, Note_on_c, 0, 61, 0
2, 248880, Note_on_c, 0, 72, 0
2, 248880, Note_on_c, 0, 108, 100
2, 249600, Note_on_c, 0, 108, 0
2, 249600, Note_on_c, 0, 98, 100
2, 249600, Note_on_c, 0, 96, 100
2, 249600, Note_on_c, 0, 86, 100
2, 249600, Note_on_c, 0, 84, 100
2, 249600, Note_on_c, 0, 72, 100
2, 249840, Note_on_c, 0, 98, 0
2, 249840, Note_on_c, 0, 96, 0
2, 249840, Note_on_c, 0, 86, 0
2, 249840, Note_on_c, 0, 84, 0
2, 249840, Note_on_c, 0, 72, 0
2, 249840, Note_on_c, 0, 98, 100
2, 249840, Note_on_c, 0, 96, 100
2, 249840, Note_on_c, 0, 86, 100
2, 249840, Note_on_c, 0, 84, 100
2, 249840, Note_on_c, 0, 108, 100
2, 250050, Note_on_c, 0, 105, 0
2, 250050, Note_on_c, 0, 93, 0
2, 250050, Note_on_c, 0, 81, 0
2, 250050, Note_on_c, 0, 69, 0
2, 250080, Note_on_c, 0, 98, 0
2, 250080, Note_on_c, 0, 96, 0
2, 250080, Note_on_c, 0, 86, 0
2, 250080, Note_on_c, 0, 84, 0
2, 250080, Note_on_c, 0, 108, 0
2, 250080, Note_on_c, 0, 98, 100
2, 250080, Note_on_c, 0, 86, 100
2, 250080, Note_on_c, 0, 73, 100
2, 250080, Note_on_c, 0, 61, 100
2, 250320, Note_on_c, 0, 108, 100
2, 250560, Note_on_c, 0, 108, 0
2, 250560, Note_on_c, 0, 108, 100
2, 250800, Note_on_c, 0, 108, 0
2, 250800, Note_on_c, 0, 108, 100
2, 251280, Note_on_c, 0, 108, 0
2, 251490, Text_t, "drum_allbeat"
2, 252000, Note_on_c, 0, 98, 0
2, 252000, Note_on_c, 0, 86, 0
2, 252000, Note_on_c, 0, 73, 0
2, 252000, Note_on_c, 0, 61, 0
2, 252240, Note_on_c, 0, 100, 100
2, 252240, Note_on_c, 0, 87, 100
2, 252240, Note_on_c, 0, 74, 100
2, 252240, Note_on_c, 0, 62, 100
2, 252480, Note_on_c, 0, 100, 0
2, 252480, Note_on_c, 0, 87, 0
2, 252480, Note_on_c, 0, 74, 0
2, 252480, Note_on_c, 0, 62, 0
2, 252480, Note_on_c, 0, 99, 100
2, 252480, Note_on_c, 0, 86, 100
2, 252480, Note_on_c, 0, 73, 100
2, 252720, Note_on_c, 0, 99, 0
2, 252720, Note_on_c, 0, 86, 0
2, 252720, Note_on_c, 0, 73, 0
2, 252720, Note_on_c, 0, 98, 100
2, 252960, Note_on_c, 0, 98, 0
2, 252960, Note_on_c, 0, 97, 100
2, 252960, Note_on_c, 0, 85, 100
2, 252960, Note_on_c, 0, 72, 100
2, 253200, Note_on_c, 0, 97, 0
2, 253200, Note_on_c, 0, 85, 0
2, 253200, Note_on_c, 0, 72, 0
2, 253200, Note_on_c, 0, 96, 100
2, 253200, Note_on_c, 0, 84, 100
2, 253410, Text_t, "drum_normal"
2, 253440, Note_on_c, 0, 96, 0
2, 253440, Note_on_c, 0, 84, 0
2, 253440, Note_on_c, 0, 97, 100
2, 253440, Note_on_c, 0, 85, 100
2, 253440, Note_on_c, 0, 73, 100
2, 253440, Note_on_c, 0, 61, 100
2, 253920, Note_on_c, 0, 108, 100
2, 254160, Note_on_c, 0, 108, 0
2, 254160, Note_on_c, 0, 108, 100
2, 254400, Note_on_c, 0, 108, 0
2, 254640, Note_on_c, 0, 108, 100
2, 254880, Note_on_c, 0, 108, 0
2, 255120, Note_on_c, 0, 73, 0
2, 255120, Note_on_c, 0, 61, 0
2, 255120, Note_on_c, 0, 108, 100
2, 255330, Note_on_c, 0, 103, 100
2, 255330, Note_on_c, 0, 91, 100
2, 255330, Note_on_c, 0, 79, 100
2, 255330, Note_on_c, 0, 67, 100
2, 255330, Note_on_c, 0, 105, 100
2, 255330, Note_on_c, 0, 93, 100
2, 255330, Note_on_c, 0, 69, 100
2, 255330, Note_on_c, 0, 81, 100
2, 255360, Note_on_c, 0, 97, 0
2, 255360, Note_on_c, 0, 85, 0
2, 255360, Note_on_c, 0, 108, 0
2, 255360, Note_on_c, 0, 99, 100
2, 255360, Note_on_c, 0, 97, 100
2, 255360, Note_on_c, 0, 87, 100
2, 255360, Note_on_c, 0, 85, 100
2, 255360, Note_on_c, 0, 73, 100
2, 255360, Note_on_c, 0, 61, 100
2, 255360, Note_on_c, 0, 72, 100
2, 255600, Note_on_c, 0, 99, 0
2, 255600, Note_on_c, 0, 97, 0
2, 255600, Note_on_c, 0, 87, 0
2, 255600, Note_on_c, 0, 85, 0
2, 255600, Note_on_c, 0, 73, 0
2, 255600, Note_on_c, 0, 61, 0
2, 255600, Note_on_c, 0, 72, 0
2, 255600, Note_on_c, 0, 99, 100
2, 255600, Note_on_c, 0, 97, 100
2, 255600, Note_on_c, 0, 87, 100
2, 255600, Note_on_c, 0, 85, 100
2, 255600, Note_on_c, 0, 73, 100
2, 255600, Note_on_c, 0, 108, 100
2, 255600, Note_on_c, 0, 72, 100
2, 255840, Note_on_c, 0, 99, 0
2, 255840, Note_on_c, 0, 97, 0
2, 255840, Note_on_c, 0, 87, 0
2, 255840, Note_on_c, 0, 85, 0
2, 255840, Note_on_c, 0, 73, 0
2, 255840, Note_on_c, 0, 108, 0
2, 255840, Note_on_c, 0, 72, 0
2, 255840, Note_on_c, 0, 99, 100
2, 255840, Note_on_c, 0, 97, 100
2, 255840, Note_on_c, 0, 87, 100
2, 255840, Note_on_c, 0, 85, 100
2, 255840, Note_on_c, 0, 73, 100
2, 255840, Note_on_c, 0, 61, 100
2, 255840, Note_on_c, 0, 72, 100
2, 256080, Note_on_c, 0, 99, 0
2, 256080, Note_on_c, 0, 97, 0
2, 256080, Note_on_c, 0, 87, 0
2, 256080, Note_on_c, 0, 85, 0
2, 256080, Note_on_c, 0, 73, 0
2, 256080, Note_on_c, 0, 61, 0
2, 256080, Note_on_c, 0, 72, 0
2, 256080, Note_on_c, 0, 99, 100
2, 256080, Note_on_c, 0, 97, 100
2, 256080, Note_on_c, 0, 87, 100
2, 256080, Note_on_c, 0, 85, 100
2, 256080, Note_on_c, 0, 73, 100
2, 256080, Note_on_c, 0, 108, 100
2, 256080, Note_on_c, 0, 72, 100
2, 256320, Note_on_c, 0, 99, 0
2, 256320, Note_on_c, 0, 97, 0
2, 256320, Note_on_c, 0, 87, 0
2, 256320, Note_on_c, 0, 85, 0
2, 256320, Note_on_c, 0, 73, 0
2, 256320, Note_on_c, 0, 108, 0
2, 256320, Note_on_c, 0, 72, 0
2, 256320, Note_on_c, 0, 99, 100
2, 256320, Note_on_c, 0, 97, 100
2, 256320, Note_on_c, 0, 87, 100
2, 256320, Note_on_c, 0, 85, 100
2, 256320, Note_on_c, 0, 73, 100
2, 256320, Note_on_c, 0, 61, 100
2, 256320, Note_on_c, 0, 72, 100
2, 256560, Note_on_c, 0, 99, 0
2, 256560, Note_on_c, 0, 97, 0
2, 256560, Note_on_c, 0, 87, 0
2, 256560, Note_on_c, 0, 85, 0
2, 256560, Note_on_c, 0, 73, 0
2, 256560, Note_on_c, 0, 61, 0
2, 256560, Note_on_c, 0, 72, 0
2, 256560, Note_on_c, 0, 108, 100
2, 257040, Note_on_c, 0, 108, 0
2, 257280, Note_on_c, 0, 98, 100
2, 257280, Note_on_c, 0, 96, 100
2, 257280, Note_on_c, 0, 86, 100
2, 257280, Note_on_c, 0, 84, 100
2, 257280, Note_on_c, 0, 73, 100
2, 257280, Note_on_c, 0, 60, 100
2, 257520, Note_on_c, 0, 98, 0
2, 257520, Note_on_c, 0, 96, 0
2, 257520, Note_on_c, 0, 86, 0
2, 257520, Note_on_c, 0, 84, 0
2, 257520, Note_on_c, 0, 73, 0
2, 257520, Note_on_c, 0, 60, 0
2, 257520, Note_on_c, 0, 98, 100
2, 257520, Note_on_c, 0, 96, 100
2, 257520, Note_on_c, 0, 86, 100
2, 257520, Note_on_c, 0, 84, 100
2, 257520, Note_on_c, 0, 108, 100
2, 257760, Note_on_c, 0, 98, 0
2, 257760, Note_on_c, 0, 96, 0
2, 257760, Note_on_c, 0, 86, 0
2, 257760, Note_on_c, 0, 84, 0
2, 257760, Note_on_c, 0, 108, 0
2, 257760, Note_on_c, 0, 96, 100
2, 257760, Note_on_c, 0, 84, 100
2, 257760, Note_on_c, 0, 72, 100
2, 258000, Note_on_c, 0, 96, 0
2, 258000, Note_on_c, 0, 84, 0
2, 258000, Note_on_c, 0, 72, 0
2, 258000, Note_on_c, 0, 96, 100
2, 258210, Note_on_c, 0, 106, 0
2, 258210, Note_on_c, 0, 94, 0
2, 258210, Note_on_c, 0, 70, 0
2, 258210, Note_on_c, 0, 82, 0
2, 258210, Note_on_c, 0, 103, 0
2, 258210, Note_on_c, 0, 91, 0
2, 258210, Note_on_c, 0, 79, 0
2, 258210, Note_on_c, 0, 67, 0
2, 258240, Note_on_c, 0, 96, 0
2, 258240, Note_on_c, 0, 98, 100
2, 258240, Note_on_c, 0, 86, 100
2, 258240, Note_on_c, 0, 74, 100
2, 258240, Note_on_c, 0, 62, 100
2, 259170, Text_t, "drum_allbeat"
2, 260040, Note_on_c, 0, 108, 100
2, 260160, Note_on_c, 0, 98, 0
2, 260160, Note_on_c, 0, 86, 0
2, 260160, Note_on_c, 0, 74, 0
2, 260160, Note_on_c, 0, 62, 0
2, 260160, Note_on_c, 0, 108, 0
2, 260160, Note_on_c, 0, 100, 100
2, 260160, Note_on_c, 0, 87, 100
2, 260160, Note_on_c, 0, 74, 100
2, 260160, Note_on_c, 0, 62, 100
2, 260400, Note_on_c, 0, 100, 0
2, 260400, Note_on_c, 0, 87, 0
2, 260400, Note_on_c, 0, 98, 100
2, 260400, Note_on_c, 0, 86, 100
2, 260400, Note_on_c, 0, 108, 100
2, 260640, Note_on_c, 0, 108, 0
2, 260880, Note_on_c, 0, 108, 100
2, 261090, Text_t, "drum_normal"
2, 261120, Note_on_c, 0, 74, 0
2, 261120, Note_on_c, 0, 62, 0
2, 261120, Note_on_c, 0, 98, 0
2, 261120, Note_on_c, 0, 86, 0
2, 261120, Note_on_c, 0, 108, 0
2, 261120, Note_on_c, 0, 97, 100
2, 261120, Note_on_c, 0, 85, 100
2, 261120, Note_on_c, 0, 73, 100
2, 261120, Note_on_c, 0, 61, 100
2, 261360, Note_on_c, 0, 108, 100
2, 261600, Note_on_c, 0, 108, 0
2, 261600, Note_on_c, 0, 108, 100
2, 262080, Note_on_c, 0, 108, 0
2, 262320, Note_on_c, 0, 108, 100
2, 262560, Note_on_c, 0, 97, 0
2, 262560, Note_on_c, 0, 85, 0
2, 262560, Note_on_c, 0, 73, 0
2, 262560, Note_on_c, 0, 61, 0
2, 262560, Note_on_c, 0, 108, 0
2, 262560, Note_on_c, 0, 96, 100
2, 262560, Note_on_c, 0, 84, 100
2, 262560, Note_on_c, 0, 72, 100
2, 262560, Note_on_c, 0, 60, 100
2, 262560, Note_on_c, 0, 108, 100
2, 262800, Note_on_c, 0, 96, 0
2, 262800, Note_on_c, 0, 84, 0
2, 262800, Note_on_c, 0, 72, 0
2, 262800, Note_on_c, 0, 60, 0
2, 262800, Note_on_c, 0, 97, 100
2, 262800, Note_on_c, 0, 85, 100
2, 263040, Note_on_c, 0, 108, 0
2, 263040, Note_on_c, 0, 97, 0
2, 263040, Note_on_c, 0, 85, 0
2, 263040, Note_on_c, 0, 98, 100
2, 263040, Note_on_c, 0, 86, 100
2, 263040, Note_on_c, 0, 73, 100
2, 263280, Note_on_c, 0, 98, 0
2, 263280, Note_on_c, 0, 86, 0
2, 263280, Note_on_c, 0, 73, 0
2, 263280, Note_on_c, 0, 97, 100
2, 263280, Note_on_c, 0, 85, 100
2, 263280, Note_on_c, 0, 108, 100
2, 263520, Note_on_c, 0, 97, 0
2, 263520, Note_on_c, 0, 85, 0
2, 263520, Note_on_c, 0, 108, 0
2, 263520, Note_on_c, 0, 98, 100
2, 263520, Note_on_c, 0, 86, 100
2, 263520, Note_on_c, 0, 74, 100
2, 263520, Note_on_c, 0, 61, 100
2, 263760, Note_on_c, 0, 98, 0
2, 263760, Note_on_c, 0, 86, 0
2, 263760, Note_on_c, 0, 74, 0
2, 263760, Note_on_c, 0, 61, 0
2, 263760, Note_on_c, 0, 97, 100
2, 263760, Note_on_c, 0, 85, 100
2, 263880, Note_on_c, 0, 108, 100
2, 264000, Note_on_c, 0, 97, 0
2, 264000, Note_on_c, 0, 85, 0
2, 264000, Note_on_c, 0, 108, 0
2, 264000, Note_on_c, 0, 98, 100
2, 264000, Note_on_c, 0, 86, 100
2, 264000, Note_on_c, 0, 73, 100
2, 264000, Note_on_c, 0, 62, 100
2, 264240, Note_on_c, 0, 98, 0
2, 264240, Note_on_c, 0, 86, 0
2, 264240, Note_on_c, 0, 73, 0
2, 264240, Note_on_c, 0, 62, 0
2, 264240, Note_on_c, 0, 99, 100
2, 264240, Note_on_c, 0, 87, 100
2, 264240, Note_on_c, 0, 108, 100
2, 264480, Note_on_c, 0, 99, 0
2, 264480, Note_on_c, 0, 87, 0
2, 264480, Note_on_c, 0, 108, 0
2, 264690, Note_on_c, 0, 105, 0
2, 264690, Note_on_c, 0, 93, 0
2, 264690, Note_on_c, 0, 69, 0
2, 264690, Note_on_c, 0, 81, 0
2, 264690, Note_on_c, 0, 106, 100
2, 264690, Note_on_c, 0, 94, 100
2, 264690, Note_on_c, 0, 70, 100
2, 264690, Note_on_c, 0, 82, 100
2, 264720, Note_on_c, 0, 96, 100
2, 264720, Note_on_c, 0, 84, 100
2, 264720, Note_on_c, 0, 72, 100
2, 264720, Note_on_c, 0, 108, 100
2, 264960, Note_on_c, 0, 96, 0
2, 264960, Note_on_c, 0, 84, 0
2, 264960, Note_on_c, 0, 72, 0
2, 264960, Note_on_c, 0, 108, 0
2, 264960, Note_on_c, 0, 98, 100
2, 264960, Note_on_c, 0, 86, 100
2, 264960, Note_on_c, 0, 73, 100
2, 264960, Note_on_c, 0, 61, 100
2, 265200, Note_on_c, 0, 73, 0
2, 265200, Note_on_c, 0, 61, 0
2, 265200, Note_on_c, 0, 108, 100
2, 265440, Note_on_c, 0, 108, 0
2, 265680, Note_on_c, 0, 108, 100
2, 265920, Note_on_c, 0, 108, 0
2, 266160, Note_on_c, 0, 108, 100
2, 266400, Note_on_c, 0, 98, 0
2, 266400, Note_on_c, 0, 86, 0
2, 266400, Note_on_c, 0, 97, 100
2, 266400, Note_on_c, 0, 85, 100
2, 266400, Note_on_c, 0, 73, 100
2, 266400, Note_on_c, 0, 61, 100
2, 266640, Note_on_c, 0, 97, 0
2, 266640, Note_on_c, 0, 85, 0
2, 266640, Note_on_c, 0, 73, 0
2, 266640, Note_on_c, 0, 61, 0
2, 266640, Note_on_c, 0, 98, 100
2, 266640, Note_on_c, 0, 86, 100
2, 266850, Text_t, "drum_allbeat"
2, 266880, Note_on_c, 0, 98, 0
2, 266880, Note_on_c, 0, 86, 0
2, 266880, Note_on_c, 0, 99, 100
2, 266880, Note_on_c, 0, 87, 100
2, 266880, Note_on_c, 0, 74, 100
2, 266880, Note_on_c, 0, 62, 100
2, 267360, Note_on_c, 0, 108, 0
2, 267840, Note_on_c, 0, 99, 0
2, 267840, Note_on_c, 0, 87, 0
2, 267840, Note_on_c, 0, 99, 100
2, 267840, Note_on_c, 0, 87, 100
2, 267840, Note_on_c, 0, 108, 100
2, 268080, Note_on_c, 0, 99, 0
2, 268080, Note_on_c, 0, 87, 0
2, 268080, Note_on_c, 0, 100, 100
2, 268080, Note_on_c, 0, 88, 100
2, 268320, Note_on_c, 0, 108, 0
2, 268320, Note_on_c, 0, 100, 0
2, 268320, Note_on_c, 0, 88, 0
2, 268320, Note_on_c, 0, 99, 100
2, 268320, Note_on_c, 0, 87, 100
2, 268560, Note_on_c, 0, 74, 0
2, 268560, Note_on_c, 0, 62, 0
2, 268560, Note_on_c, 0, 99, 0
2, 268560, Note_on_c, 0, 87, 0
2, 268770, Text_t, "drum_normal"
2, 268800, Note_on_c, 0, 96, 100
2, 268800, Note_on_c, 0, 98, 100
2, 268800, Note_on_c, 0, 84, 100
2, 268800, Note_on_c, 0, 86, 100
2, 268800, Note_on_c, 0, 72, 100
2, 268800, Note_on_c, 0, 60, 100
2, 269760, Note_on_c, 0, 96, 0
2, 269760, Note_on_c, 0, 98, 0
2, 269760, Note_on_c, 0, 84, 0
2, 269760, Note_on_c, 0, 86, 0
2, 269760, Note_on_c, 0, 72, 0
2, 269760, Note_on_c, 0, 60, 0
2, 270720, Note_on_c, 0, 99, 100
2, 270720, Note_on_c, 0, 87, 100
2, 270720, Note_on_c, 0, 75, 100
2, 270720, Note_on_c, 0, 62, 100
2, 270960, Note_on_c, 0, 99, 0
2, 270960, Note_on_c, 0, 87, 0
2, 270960, Note_on_c, 0, 75, 0
2, 270960, Note_on_c, 0, 62, 0
2, 270960, Note_on_c, 0, 100, 100
2, 270960, Note_on_c, 0, 88, 100
2, 271200, Note_on_c, 0, 100, 0
2, 271200, Note_on_c, 0, 88, 0
2, 271200, Note_on_c, 0, 99, 100
2, 271200, Note_on_c, 0, 87, 100
2, 271200, Note_on_c, 0, 75, 100
2, 271440, Note_on_c, 0, 99, 0
2, 271440, Note_on_c, 0, 87, 0
2, 271440, Note_on_c, 0, 75, 0
2, 271440, Note_on_c, 0, 100, 100
2, 271440, Note_on_c, 0, 88, 100
2, 271680, Note_on_c, 0, 100, 0
2, 271680, Note_on_c, 0, 88, 0
2, 271680, Note_on_c, 0, 99, 100
2, 271680, Note_on_c, 0, 87, 100
2, 271680, Note_on_c, 0, 75, 100
2, 271680, Note_on_c, 0, 62, 100
2, 271920, Note_on_c, 0, 99, 0
2, 271920, Note_on_c, 0, 87, 0
2, 271920, Note_on_c, 0, 75, 0
2, 271920, Note_on_c, 0, 62, 0
2, 272160, Note_on_c, 0, 98, 100
2, 272160, Note_on_c, 0, 86, 100
2, 272400, Note_on_c, 0, 98, 0
2, 272400, Note_on_c, 0, 86, 0
2, 272610, Text_t, "drum_allbeat"
2, 272610, Note_on_c, 0, 105, 100
2, 272610, Note_on_c, 0, 93, 100
2, 272610, Note_on_c, 0, 69, 100
2, 272610, Note_on_c, 0, 81, 100
2, 272640, Note_on_c, 0, 98, 100
2, 272640, Note_on_c, 0, 86, 100
2, 272640, Note_on_c, 0, 74, 100
2, 272640, Note_on_c, 0, 62, 100
2, 272880, Note_on_c, 0, 98, 0
2, 272880, Note_on_c, 0, 86, 0
2, 272880, Note_on_c, 0, 74, 0
2, 272880, Note_on_c, 0, 62, 0
2, 272880, Note_on_c, 0, 100, 100
2, 272880, Note_on_c, 0, 87, 100
2, 273120, Note_on_c, 0, 100, 0
2, 273120, Note_on_c, 0, 87, 0
2, 273120, Note_on_c, 0, 99, 100
2, 273360, Note_on_c, 0, 99, 0
2, 273360, Note_on_c, 0, 98, 100
2, 273360, Note_on_c, 0, 86, 100
2, 273360, Note_on_c, 0, 74, 100
2, 273600, Note_on_c, 0, 98, 0
2, 273600, Note_on_c, 0, 86, 0
2, 273600, Note_on_c, 0, 74, 0
2, 273600, Note_on_c, 0, 100, 100
2, 273600, Note_on_c, 0, 87, 100
2, 273840, Note_on_c, 0, 100, 0
2, 273840, Note_on_c, 0, 87, 0
2, 273840, Note_on_c, 0, 99, 100
2, 274080, Note_on_c, 0, 99, 0
2, 274080, Note_on_c, 0, 97, 100
2, 274080, Note_on_c, 0, 85, 100
2, 274080, Note_on_c, 0, 73, 100
2, 274080, Note_on_c, 0, 61, 100
2, 274320, Note_on_c, 0, 97, 0
2, 274320, Note_on_c, 0, 85, 0
2, 274320, Note_on_c, 0, 73, 0
2, 274320, Note_on_c, 0, 61, 0
2, 274320, Note_on_c, 0, 100, 100
2, 274320, Note_on_c, 0, 87, 100
2, 274560, Note_on_c, 0, 100, 0
2, 274560, Note_on_c, 0, 87, 0
2, 274560, Note_on_c, 0, 99, 100
2, 274800, Note_on_c, 0, 99, 0
2, 274800, Note_on_c, 0, 97, 100
2, 274800, Note_on_c, 0, 85, 100
2, 274800, Note_on_c, 0, 73, 100
2, 275040, Note_on_c, 0, 97, 0
2, 275040, Note_on_c, 0, 85, 0
2, 275040, Note_on_c, 0, 73, 0
2, 275040, Note_on_c, 0, 100, 100
2, 275040, Note_on_c, 0, 87, 100
2, 275280, Note_on_c, 0, 100, 0
2, 275280, Note_on_c, 0, 87, 0
2, 275280, Note_on_c, 0, 99, 100
2, 275520, Note_on_c, 0, 99, 0
2, 275520, Note_on_c, 0, 96, 100
2, 275520, Note_on_c, 0, 84, 100
2, 275520, Note_on_c, 0, 73, 100
2, 275520, Note_on_c, 0, 60, 100
2, 275760, Note_on_c, 0, 96, 0
2, 275760, Note_on_c, 0, 84, 0
2, 275760, Note_on_c, 0, 73, 0
2, 275760, Note_on_c, 0, 60, 0
2, 275760, Note_on_c, 0, 100, 100
2, 275760, Note_on_c, 0, 87, 100
2, 276000, Note_on_c, 0, 100, 0
2, 276000, Note_on_c, 0, 87, 0
2, 276000, Note_on_c, 0, 99, 100
2, 276000, Note_on_c, 0, 84, 100
2, 276240, Note_on_c, 0, 99, 0
2, 276240, Note_on_c, 0, 84, 0
2, 276450, Text_t, "[verse]"
2, 276450, Text_t, "sing_off"
2, 276450, Text_t, "drum_normal"
2, 276450, Note_on_c, 0, 106, 0
2, 276450, Note_on_c, 0, 94, 0
2, 276450, Note_on_c, 0, 70, 0
2, 276450, Note_on_c, 0, 82, 0
2, 276480, Note_on_c, 0, 96, 100
2, 276480, Note_on_c, 0, 98, 100
2, 276480, Note_on_c, 0, 84, 100
2, 276480, Note_on_c, 0, 86, 100
2, 276480, Note_on_c, 0, 72, 100
2, 276480, Note_on_c, 0, 60, 100
2, 277440, Note_on_c, 0, 96, 0
2, 277440, Note_on_c, 0, 98, 0
2, 277440, Note_on_c, 0, 84, 0
2, 277440, Note_on_c, 0, 86, 0
2, 277440, Note_on_c, 0, 72, 0
2, 277440, Note_on_c, 0, 60, 0
2, 278400, Note_on_c, 0, 99, 100
2, 278400, Note_on_c, 0, 87, 100
2, 278400, Note_on_c, 0, 75, 100
2, 278400, Note_on_c, 0, 62, 100
2, 278640, Note_on_c, 0, 99, 0
2, 278640, Note_on_c, 0, 87, 0
2, 278640, Note_on_c, 0, 75, 0
2, 278640, Note_on_c, 0, 62, 0
2, 278640, Note_on_c, 0, 100, 100
2, 278640, Note_on_c, 0, 88, 100
2, 278880, Note_on_c, 0, 100, 0
2, 278880, Note_on_c, 0, 88, 0
2, 278880, Note_on_c, 0, 99, 100
2, 278880, Note_on_c, 0, 87, 100
2, 278880, Note_on_c, 0, 75, 100
2, 279120, Note_on_c, 0, 99, 0
2, 279120, Note_on_c, 0, 87, 0
2, 279120, Note_on_c, 0, 75, 0
2, 279120, Note_on_c, 0, 100, 100
2, 279120, Note_on_c, 0, 88, 100
2, 279360, Note_on_c, 0, 100, 0
2, 279360, Note_on_c, 0, 88, 0
2, 279360, Note_on_c, 0, 99, 100
2, 279360, Note_on_c, 0, 87, 100
2, 279360, Note_on_c, 0, 75, 100
2, 279360, Note_on_c, 0, 62, 100
2, 279600, Note_on_c, 0, 99, 0
2, 279600, Note_on_c, 0, 87, 0
2, 279600, Note_on_c, 0, 75, 0
2, 279600, Note_on_c, 0, 62, 0
2, 279840, Note_on_c, 0, 98, 100
2, 279840, Note_on_c, 0, 86, 100
2, 280080, Note_on_c, 0, 98, 0
2, 280080, Note_on_c, 0, 86, 0
2, 280290, Text_t, "drum_double"
2, 280290, Note_on_c, 0, 103, 100
2, 280290, Note_on_c, 0, 91, 100
2, 280290, Note_on_c, 0, 79, 100
2, 280290, Note_on_c, 0, 67, 100
2, 280290, Note_on_c, 0, 106, 100
2, 280290, Note_on_c, 0, 94, 100
2, 280290, Note_on_c, 0, 70, 100
2, 280290, Note_on_c, 0, 82, 100
2, 280320, Note_on_c, 0, 98, 100
2, 280320, Note_on_c, 0, 86, 100
2, 280320, Note_on_c, 0, 74, 100
2, 280320, Note_on_c, 0, 62, 100
2, 280560, Note_on_c, 0, 98, 0
2, 280560, Note_on_c, 0, 86, 0
2, 280560, Note_on_c, 0, 74, 0
2, 280560, Note_on_c, 0, 62, 0
2, 280560, Note_on_c, 0, 100, 100
2, 280560, Note_on_c, 0, 87, 100
2, 280800, Note_on_c, 0, 100, 0
2, 280800, Note_on_c, 0, 87, 0
2, 280800, Note_on_c, 0, 99, 100
2, 281040, Note_on_c, 0, 99, 0
2, 281040, Note_on_c, 0, 98, 100
2, 281040, Note_on_c, 0, 86, 100
2, 281040, Note_on_c, 0, 74, 100
2, 281250, Text_t, "drum_half"
2, 281280, Note_on_c, 0, 98, 0
2, 281280, Note_on_c, 0, 86, 0
2, 281280, Note_on_c, 0, 74, 0
2, 281280, Note_on_c, 0, 100, 100
2, 281280, Note_on_c, 0, 87, 100
2, 281520, Note_on_c, 0, 100, 0
2, 281520, Note_on_c, 0, 87, 0
2, 281520, Note_on_c, 0, 99, 100
2, 281730, Note_on_c, 0, 103, 0
2, 281730, Note_on_c, 0, 91, 0
2, 281730, Note_on_c, 0, 79, 0
2, 281730, Note_on_c, 0, 67, 0
2, 281760, Note_on_c, 0, 99, 0
2, 281760, Note_on_c, 0, 97, 100
2, 281760, Note_on_c, 0, 85, 100
2, 281760, Note_on_c, 0, 73, 100
2, 281760, Note_on_c, 0, 61, 100
2, 282000, Note_on_c, 0, 97, 0
2, 282000, Note_on_c, 0, 85, 0
2, 282000, Note_on_c, 0, 73, 0
2, 282000, Note_on_c, 0, 61, 0
2, 282000, Note_on_c, 0, 100, 100
2, 282000, Note_on_c, 0, 87, 100
2, 282240, Note_on_c, 0, 100, 0
2, 282240, Note_on_c, 0, 87, 0
2, 282240, Note_on_c, 0, 99, 100
2, 282480, Note_on_c, 0, 99, 0
2, 282480, Note_on_c, 0, 97, 100
2, 282480, Note_on_c, 0, 85, 100
2, 282480, Note_on_c, 0, 73, 100
2, 282720, Note_on_c, 0, 97, 0
2, 282720, Note_on_c, 0, 85, 0
2, 282720, Note_on_c, 0, 73, 0
2, 282720, Note_on_c, 0, 100, 100
2, 282720, Note_on_c, 0, 87, 100
2, 282960, Note_on_c, 0, 100, 0
2, 282960, Note_on_c, 0, 87, 0
2, 282960, Note_on_c, 0, 99, 100
2, 283170, Text_t, "drum_normal"
2, 283200, Note_on_c, 0, 99, 0
2, 283200, Note_on_c, 0, 96, 100
2, 283200, Note_on_c, 0, 84, 100
2, 283200, Note_on_c, 0, 73, 100
2, 283200, Note_on_c, 0, 60, 100
2, 283200, Note_on_c, 0, 108, 100
2, 283440, Note_on_c, 0, 96, 0
2, 283440, Note_on_c, 0, 84, 0
2, 283440, Note_on_c, 0, 73, 0
2, 283440, Note_on_c, 0, 60, 0
2, 283440, Note_on_c, 0, 100, 100
2, 283440, Note_on_c, 0, 87, 100
2, 283680, Note_on_c, 0, 108, 0
2, 283680, Note_on_c, 0, 100, 0
2, 283680, Note_on_c, 0, 87, 0
2, 283680, Note_on_c, 0, 99, 100
2, 283680, Note_on_c, 0, 84, 100
2, 283920, Note_on_c, 0, 99, 0
2, 283920, Note_on_c, 0, 84, 0
2, 283920, Note_on_c, 0, 108, 100
2, 284130, Note_on_c, 0, 105, 0
2, 284130, Note_on_c, 0, 93, 0
2, 284130, Note_on_c, 0, 69, 0
2, 284130, Note_on_c, 0, 81, 0
2, 284160, Note_on_c, 0, 96, 100
2, 284160, Note_on_c, 0, 98, 100
2, 284160, Note_on_c, 0, 84, 100
2, 284160, Note_on_c, 0, 86, 100
2, 284160, Note_on_c, 0, 72, 100
2, 284160, Note_on_c, 0, 60, 100
2, 284880, Note_on_c, 0, 108, 0
2, 285120, Note_on_c, 0, 96, 0
2, 285120, Note_on_c, 0, 98, 0
2, 285120, Note_on_c, 0, 84, 0
2, 285120, Note_on_c, 0, 86, 0
2, 285120, Note_on_c, 0, 72, 0
2, 285120, Note_on_c, 0, 60, 0
2, 286080, Note_on_c, 0, 99, 100
2, 286080, Note_on_c, 0, 87, 100
2, 286080, Note_on_c, 0, 75, 100
2, 286080, Note_on_c, 0, 62, 100
2, 286320, Note_on_c, 0, 99, 0
2, 286320, Note_on_c, 0, 87, 0
2, 286320, Note_on_c, 0, 75, 0
2, 286320, Note_on_c, 0, 62, 0
2, 286320, Note_on_c, 0, 100, 100
2, 286320, Note_on_c, 0, 88, 100
2, 286560, Note_on_c, 0, 100, 0
2, 286560, Note_on_c, 0, 88, 0
2, 286560, Note_on_c, 0, 99, 100
2, 286560, Note_on_c, 0, 87, 100
2, 286560, Note_on_c, 0, 75, 100
2, 286800, Note_on_c, 0, 99, 0
2, 286800, Note_on_c, 0, 87, 0
2, 286800, Note_on_c, 0, 75, 0
2, 286800, Note_on_c, 0, 100, 100
2, 286800, Note_on_c, 0, 88, 100
2, 287040, Note_on_c, 0, 100, 0
2, 287040, Note_on_c, 0, 88, 0
2, 287040, Note_on_c, 0, 99, 100
2, 287040, Note_on_c, 0, 87, 100
2, 287040, Note_on_c, 0, 75, 100
2, 287040, Note_on_c, 0, 62, 100
2, 287280, Note_on_c, 0, 99, 0
2, 287280, Note_on_c, 0, 87, 0
2, 287280, Note_on_c, 0, 75, 0
2, 287280, Note_on_c, 0, 62, 0
2, 287520, Note_on_c, 0, 98, 100
2, 287520, Note_on_c, 0, 86, 100
2, 287760, Note_on_c, 0, 98, 0
2, 287760, Note_on_c, 0, 86, 0
2, 288000, Note_on_c, 0, 98, 100
2, 288000, Note_on_c, 0, 86, 100
2, 288000, Note_on_c, 0, 74, 100
2, 288000, Note_on_c, 0, 62, 100
2, 288240, Note_on_c, 0, 98, 0
2, 288240, Note_on_c, 0, 86, 0
2, 288240, Note_on_c, 0, 74, 0
2, 288240, Note_on_c, 0, 62, 0
2, 288240, Note_on_c, 0, 100, 100
2, 288240, Note_on_c, 0, 87, 100
2, 288480, Note_on_c, 0, 100, 0
2, 288480, Note_on_c, 0, 87, 0
2, 288480, Note_on_c, 0, 99, 100
2, 288720, Note_on_c, 0, 99, 0
2, 288720, Note_on_c, 0, 98, 100
2, 288720, Note_on_c, 0, 86, 100
2, 288720, Note_on_c, 0, 74, 100
2, 288960, Note_on_c, 0, 98, 0
2, 288960, Note_on_c, 0, 86, 0
2, 288960, Note_on_c, 0, 74, 0
2, 288960, Note_on_c, 0, 100, 100
2, 288960, Note_on_c, 0, 87, 100
2, 289200, Note_on_c, 0, 100, 0
2, 289200, Note_on_c, 0, 87, 0
2, 289200, Note_on_c, 0, 99, 100
2, 289410, Note_on_c, 0, 106, 0
2, 289410, Note_on_c, 0, 94, 0
2, 289410, Note_on_c, 0, 70, 0
2, 289410, Note_on_c, 0, 82, 0
2, 289410, Note_on_c, 0, 105, 100
2, 289410, Note_on_c, 0, 93, 100
2, 289410, Note_on_c, 0, 69, 100
2, 289410, Note_on_c, 0, 81, 100
2, 289440, Note_on_c, 0, 99, 0
2, 289440, Note_on_c, 0, 97, 100
2, 289440, Note_on_c, 0, 85, 100
2, 289440, Note_on_c, 0, 73, 100
2, 289440, Note_on_c, 0, 61, 100
2, 289680, Note_on_c, 0, 97, 0
2, 289680, Note_on_c, 0, 85, 0
2, 289680, Note_on_c, 0, 73, 0
2, 289680, Note_on_c, 0, 61, 0
2, 289680, Note_on_c, 0, 100, 100
2, 289680, Note_on_c, 0, 87, 100
2, 289920, Note_on_c, 0, 100, 0
2, 289920, Note_on_c, 0, 87, 0
2, 289920, Note_on_c, 0, 99, 100
2, 290160, Note_on_c, 0, 99, 0
2, 290160, Note_on_c, 0, 97, 100
2, 290160, Note_on_c, 0, 85, 100
2, 290160, Note_on_c, 0, 73, 100
2, 290400, Note_on_c, 0, 97, 0
2, 290400, Note_on_c, 0, 85, 0
2, 290400, Note_on_c, 0, 73, 0
2, 290400, Note_on_c, 0, 100, 100
2, 290400, Note_on_c, 0, 87, 100
2, 290640, Note_on_c, 0, 100, 0
2, 290640, Note_on_c, 0, 87, 0
2, 290640, Note_on_c, 0, 99, 100
2, 290640, Note_on_c, 0, 108, 100
2, 290850, Note_on_c, 0, 105, 0
2, 290850, Note_on_c, 0, 93, 0
2, 290850, Note_on_c, 0, 69, 0
2, 290850, Note_on_c, 0, 81, 0
2, 290850, Note_on_c, 0, 106, 100
2, 290850, Note_on_c, 0, 94, 100
2, 290850, Note_on_c, 0, 70, 100
2, 290850, Note_on_c, 0, 82, 100
2, 290880, Note_on_c, 0, 99, 0
2, 290880, Note_on_c, 0, 96, 100
2, 290880, Note_on_c, 0, 84, 100
2, 290880, Note_on_c, 0, 73, 100
2, 290880, Note_on_c, 0, 60, 100
2, 291120, Note_on_c, 0, 96, 0
2, 291120, Note_on_c, 0, 84, 0
2, 291120, Note_on_c, 0, 73, 0
2, 291120, Note_on_c, 0, 60, 0
2, 291120, Note_on_c, 0, 100, 100
2, 291120, Note_on_c, 0, 87, 100
2, 291360, Note_on_c, 0, 100, 0
2, 291360, Note_on_c, 0, 87, 0
2, 291360, Note_on_c, 0, 99, 100
2, 291360, Note_on_c, 0, 84, 100
2, 291600, Note_on_c, 0, 99, 0
2, 291600, Note_on_c, 0, 84, 0
2, 291810, Note_on_c, 0, 106, 0
2, 291810, Note_on_c, 0, 94, 0
2, 291810, Note_on_c, 0, 70, 0
2, 291810, Note_on_c, 0, 82, 0
2, 291810, Note_on_c, 0, 105, 100
2, 291810, Note_on_c, 0, 93, 100
2, 291810, Note_on_c, 0, 69, 100
2, 291810, Note_on_c, 0, 81, 100
2, 291840, Note_on_c, 0, 96, 100
2, 291840, Note_on_c, 0, 98, 100
2, 291840, Note_on_c, 0, 84, 100
2, 291840, Note_on_c, 0, 86, 100
2, 291840, Note_on_c, 0, 72, 100
2, 291840, Note_on_c, 0, 60, 100
2, 292560, Note_on_c, 0, 108, 0
2, 292770, Note_on_c, 0, 105, 0
2, 292770, Note_on_c, 0, 93, 0
2, 292770, Note_on_c, 0, 69, 0
2, 292770, Note_on_c, 0, 81, 0
2, 292800, Note_on_c, 0, 96, 0
2, 292800, Note_on_c, 0, 98, 0
2, 292800, Note_on_c, 0, 84, 0
2, 292800, Note_on_c, 0, 86, 0
2, 292800, Note_on_c, 0, 72, 0
2, 292800, Note_on_c, 0, 60, 0
2, 293730, Note_on_c, 0, 106, 100
2, 293730, Note_on_c, 0, 94, 100
2, 293730, Note_on_c, 0, 70, 100
2, 293730, Note_on_c, 0, 82, 100
2, 293760, Note_on_c, 0, 99, 100
2, 293760, Note_on_c, 0, 87, 100
2, 293760, Note_on_c, 0, 75, 100
2, 293760, Note_on_c, 0, 62, 100
2, 294000, Note_on_c, 0, 99, 0
2, 294000, Note_on_c, 0, 87, 0
2, 294000, Note_on_c, 0, 75, 0
2, 294000, Note_on_c, 0, 62, 0
2, 294000, Note_on_c, 0, 100, 100
2, 294000, Note_on_c, 0, 88, 100
2, 294240, Note_on_c, 0, 100, 0
2, 294240, Note_on_c, 0, 88, 0
2, 294240, Note_on_c, 0, 99, 100
2, 294240, Note_on_c, 0, 87, 100
2, 294240, Note_on_c, 0, 75, 100
2, 294480, Note_on_c, 0, 99, 0
2, 294480, Note_on_c, 0, 87, 0
2, 294480, Note_on_c, 0, 75, 0
2, 294480, Note_on_c, 0, 100, 100
2, 294480, Note_on_c, 0, 88, 100
2, 294720, Note_on_c, 0, 100, 0
2, 294720, Note_on_c, 0, 88, 0
2, 294720, Note_on_c, 0, 99, 100
2, 294720, Note_on_c, 0, 87, 100
2, 294720, Note_on_c, 0, 75, 100
2, 294720, Note_on_c, 0, 62, 100
2, 294960, Note_on_c, 0, 99, 0
2, 294960, Note_on_c, 0, 87, 0
2, 294960, Note_on_c, 0, 75, 0
2, 294960, Note_on_c, 0, 62, 0
2, 295200, Note_on_c, 0, 98, 100
2, 295200, Note_on_c, 0, 86, 100
2, 295440, Note_on_c, 0, 98, 0
2, 295440, Note_on_c, 0, 86, 0
2, 295650, Note_on_c, 0, 105, 100
2, 295650, Note_on_c, 0, 93, 100
2, 295650, Note_on_c, 0, 69, 100
2, 295650, Note_on_c, 0, 81, 100
2, 295680, Note_on_c, 0, 97, 100
2, 295680, Note_on_c, 0, 99, 100
2, 295680, Note_on_c, 0, 85, 100
2, 295680, Note_on_c, 0, 87, 100
2, 295680, Note_on_c, 0, 73, 100
2, 295680, Note_on_c, 0, 74, 100
2, 295680, Note_on_c, 0, 61, 100
2, 297480, Note_on_c, 0, 108, 100
2, 297570, Text_t, "drum_double"
2, 297600, Note_on_c, 0, 108, 0
2, 297600, Note_on_c, 0, 108, 100
2, 297840, Note_on_c, 0, 108, 0
2, 298080, Note_on_c, 0, 108, 100
2, 298530, Text_t, "drum_half"
2, 299280, Note_on_c, 0, 108, 0
2, 299490, Text_t, "drum_normal"
2, 299760, Note_on_c, 0, 108, 100
2, 300240, Note_on_c, 0, 108, 0
2, 300480, Note_on_c, 0, 108, 100
2, 301200, Note_on_c, 0, 97, 0
2, 301200, Note_on_c, 0, 99, 0
2, 301200, Note_on_c, 0, 85, 0
2, 301200, Note_on_c, 0, 87, 0
2, 301200, Note_on_c, 0, 73, 0
2, 301200, Note_on_c, 0, 74, 0
2, 301200, Note_on_c, 0, 61, 0
2, 301440, Note_on_c, 0, 96, 100
2, 301440, Note_on_c, 0, 98, 100
2, 301440, Note_on_c, 0, 84, 100
2, 301440, Note_on_c, 0, 86, 100
2, 301440, Note_on_c, 0, 72, 100
2, 301440, Note_on_c, 0, 74, 100
2, 301440, Note_on_c, 0, 60, 100
2, 304290, Text_t, "[idle]"
2, 304290, Text_t, "drum_off"
2, 304290, Text_t, "bass_off"
2, 304290, Text_t, "[chorus]"
2, 304800, Note_on_c, 0, 108, 0
2, 305040, Note_on_c, 0, 108, 100
2, 305250, Text_t, "sing_on"
2, 305280, Note_on_c, 0, 96, 0
2, 305280, Note_on_c, 0, 98, 0
2, 305280, Note_on_c, 0, 84, 0
2, 305280, Note_on_c, 0, 86, 0
2, 305280, Note_on_c, 0, 72, 0
2, 305280, Note_on_c, 0, 74, 0
2, 305280, Note_on_c, 0, 60, 0
2, 305280, Note_on_c, 0, 98, 100
2, 305280, Note_on_c, 0, 86, 100
2, 305280, Note_on_c, 0, 74, 100
2, 305280, Note_on_c, 0, 62, 100
2, 305440, Note_on_c, 0, 98, 0
2, 305440, Note_on_c, 0, 86, 0
2, 305440, Note_on_c, 0, 74, 0
2, 305440, Note_on_c, 0, 62, 0
2, 305440, Note_on_c, 0, 97, 100
2, 305600, Note_on_c, 0, 97, 0
2, 305600, Note_on_c, 0, 96, 100
2, 305760, Note_on_c, 0, 96, 0
2, 305760, Note_on_c, 0, 98, 100
2, 305760, Note_on_c, 0, 86, 100
2, 305920, Note_on_c, 0, 98, 0
2, 305920, Note_on_c, 0, 86, 0
2, 305920, Note_on_c, 0, 97, 100
2, 306080, Note_on_c, 0, 97, 0
2, 306080, Note_on_c, 0, 96, 100
2, 306240, Note_on_c, 0, 96, 0
2, 306240, Note_on_c, 0, 98, 100
2, 306240, Note_on_c, 0, 86, 100
2, 306240, Note_on_c, 0, 74, 100
2, 306240, Note_on_c, 0, 62, 100
2, 306400, Note_on_c, 0, 98, 0
2, 306400, Note_on_c, 0, 86, 0
2, 306400, Note_on_c, 0, 74, 0
2, 306400, Note_on_c, 0, 62, 0
2, 306400, Note_on_c, 0, 97, 100
2, 306560, Note_on_c, 0, 97, 0
2, 306560, Note_on_c, 0, 96, 100
2, 306720, Note_on_c, 0, 96, 0
2, 306720, Note_on_c, 0, 98, 100
2, 306720, Note_on_c, 0, 86, 100
2, 306880, Note_on_c, 0, 98, 0
2, 306880, Note_on_c, 0, 86, 0
2, 306880, Note_on_c, 0, 97, 100
2, 307040, Note_on_c, 0, 97, 0
2, 307040, Note_on_c, 0, 96, 100
2, 307200, Note_on_c, 0, 96, 0
2, 307200, Note_on_c, 0, 98, 100
2, 307200, Note_on_c, 0, 86, 100
2, 307200, Note_on_c, 0, 74, 100
2, 307200, Note_on_c, 0, 62, 100
2, 307360, Note_on_c, 0, 98, 0
2, 307360, Note_on_c, 0, 86, 0
2, 307360, Note_on_c, 0, 74, 0
2, 307360, Note_on_c, 0, 62, 0
2, 307360, Note_on_c, 0, 97, 100
2, 307520, Note_on_c, 0, 97, 0
2, 307520, Note_on_c, 0, 96, 100
2, 307680, Note_on_c, 0, 96, 0
2, 307680, Note_on_c, 0, 98, 100
2, 307680, Note_on_c, 0, 86, 100
2, 307840, Note_on_c, 0, 98, 0
2, 307840, Note_on_c, 0, 86, 0
2, 307840, Note_on_c, 0, 97, 100
2, 308000, Note_on_c, 0, 97, 0
2, 308000, Note_on_c, 0, 96, 100
2, 308160, Note_on_c, 0, 96, 0
2, 308160, Note_on_c, 0, 98, 100
2, 308160, Note_on_c, 0, 86, 100
2, 308160, Note_on_c, 0, 74, 100
2, 308160, Note_on_c, 0, 62, 100
2, 308320, Note_on_c, 0, 98, 0
2, 308320, Note_on_c, 0, 86, 0
2, 308320, Note_on_c, 0, 74, 0
2, 308320, Note_on_c, 0, 62, 0
2, 308320, Note_on_c, 0, 97, 100
2, 308480, Note_on_c, 0, 97, 0
2, 308480, Note_on_c, 0, 96, 100
2, 308640, Note_on_c, 0, 96, 0
2, 308640, Note_on_c, 0, 98, 100
2, 308640, Note_on_c, 0, 86, 100
2, 308800, Note_on_c, 0, 98, 0
2, 308800, Note_on_c, 0, 86, 0
2, 308800, Note_on_c, 0, 97, 100
2, 308960, Note_on_c, 0, 97, 0
2, 308960, Note_on_c, 0, 96, 100
2, 309090, Text_t, "drum_on"
2, 309090, Text_t, "bass_on"
2, 309090, Text_t, "[play]"
2, 309120, Note_on_c, 0, 96, 0
2, 309120, Note_on_c, 0, 98, 100
2, 309120, Note_on_c, 0, 86, 100
2, 309120, Note_on_c, 0, 74, 100
2, 309120, Note_on_c, 0, 62, 100
2, 309280, Note_on_c, 0, 98, 0
2, 309280, Note_on_c, 0, 86, 0
2, 309280, Note_on_c, 0, 74, 0
2, 309280, Note_on_c, 0, 62, 0
2, 309280, Note_on_c, 0, 97, 100
2, 309440, Note_on_c, 0, 97, 0
2, 309440, Note_on_c, 0, 96, 100
2, 309600, Note_on_c, 0, 96, 0
2, 309600, Note_on_c, 0, 98, 100
2, 309600, Note_on_c, 0, 86, 100
2, 309760, Note_on_c, 0, 98, 0
2, 309760, Note_on_c, 0, 86, 0
2, 309760, Note_on_c, 0, 97, 100
2, 309920, Note_on_c, 0, 97, 0
2, 309920, Note_on_c, 0, 96, 100
2, 310050, Text_t, "bass_off"
2, 310050, Text_t, "drum_off"
2, 310080, Note_on_c, 0, 96, 0
2, 310080, Note_on_c, 0, 98, 100
2, 310080, Note_on_c, 0, 86, 100
2, 310080, Note_on_c, 0, 74, 100
2, 310080, Note_on_c, 0, 62, 100
2, 310240, Note_on_c, 0, 98, 0
2, 310240, Note_on_c, 0, 86, 0
2, 310240, Note_on_c, 0, 74, 0
2, 310240, Note_on_c, 0, 62, 0
2, 310240, Note_on_c, 0, 97, 100
2, 310400, Note_on_c, 0, 97, 0
2, 310400, Note_on_c, 0, 96, 100
2, 310560, Note_on_c, 0, 96, 0
2, 310560, Note_on_c, 0, 98, 100
2, 310560, Note_on_c, 0, 86, 100
2, 310720, Note_on_c, 0, 98, 0
2, 310720, Note_on_c, 0, 86, 0
2, 310720, Note_on_c, 0, 97, 100
2, 310880, Note_on_c, 0, 97, 0
2, 310880, Note_on_c, 0, 96, 100
2, 311040, Note_on_c, 0, 96, 0
2, 311040, Note_on_c, 0, 98, 100
2, 311040, Note_on_c, 0, 86, 100
2, 311040, Note_on_c, 0, 74, 100
2, 311040, Note_on_c, 0, 62, 100
2, 311200, Note_on_c, 0, 98, 0
2, 311200, Note_on_c, 0, 86, 0
2, 311200, Note_on_c, 0, 74, 0
2, 311200, Note_on_c, 0, 62, 0
2, 311200, Note_on_c, 0, 97, 100
2, 311360, Note_on_c, 0, 97, 0
2, 311360, Note_on_c, 0, 96, 100
2, 311520, Note_on_c, 0, 96, 0
2, 311520, Note_on_c, 0, 98, 100
2, 311520, Note_on_c, 0, 86, 100
2, 311680, Note_on_c, 0, 98, 0
2, 311680, Note_on_c, 0, 86, 0
2, 311680, Note_on_c, 0, 97, 100
2, 311760, Note_on_c, 0, 108, 0
2, 311840, Note_on_c, 0, 97, 0
2, 311840, Note_on_c, 0, 96, 100
2, 312000, Note_on_c, 0, 96, 0
2, 312000, Note_on_c, 0, 98, 100
2, 312000, Note_on_c, 0, 86, 100
2, 312000, Note_on_c, 0, 74, 100
2, 312000, Note_on_c, 0, 62, 100
2, 312160, Note_on_c, 0, 98, 0
2, 312160, Note_on_c, 0, 86, 0
2, 312160, Note_on_c, 0, 74, 0
2, 312160, Note_on_c, 0, 97, 100
2, 312320, Note_on_c, 0, 97, 0
2, 312320, Note_on_c, 0, 96, 100
2, 312480, Note_on_c, 0, 96, 0
2, 312480, Note_on_c, 0, 98, 100
2, 312480, Note_on_c, 0, 86, 100
2, 312960, Note_on_c, 0, 74, 100
2, 315570, Note_on_c, 0, 106, 0
2, 315570, Note_on_c, 0, 94, 0
2, 315570, Note_on_c, 0, 70, 0
2, 315570, Note_on_c, 0, 82, 0
2, 315600, Note_on_c, 0, 62, 0
2, 315680, Note_on_c, 0, 98, 0
2, 315680, Note_on_c, 0, 86, 0
2, 315680, Note_on_c, 0, 74, 0
2, 315840, Note_on_c, 0, 97, 100
2, 315840, Note_on_c, 0, 85, 100
2, 315840, Note_on_c, 0, 73, 100
2, 315840, Note_on_c, 0, 60, 100
2, 316560, Note_on_c, 0, 60, 0
2, 316770, Text_t, "sing_off"
2, 316770, Note_on_c, 0, 105, 0
2, 316770, Note_on_c, 0, 93, 0
2, 316770, Note_on_c, 0, 69, 0
2, 316770, Note_on_c, 0, 81, 0
2, 316770, Note_on_c, 0, 106, 100
2, 316770, Note_on_c, 0, 94, 100
2, 316770, Note_on_c, 0, 70, 100
2, 316770, Note_on_c, 0, 82, 100
2, 316800, Note_on_c, 0, 97, 0
2, 316800, Note_on_c, 0, 85, 0
2, 316800, Note_on_c, 0, 73, 0
2, 316800, Note_on_c, 0, 99, 100
2, 316800, Note_on_c, 0, 86, 100
2, 316800, Note_on_c, 0, 74, 100
2, 316800, Note_on_c, 0, 61, 100
2, 317280, Note_on_c, 0, 61, 0
2, 317490, Note_on_c, 0, 105, 100
2, 317490, Note_on_c, 0, 93, 100
2, 317490, Note_on_c, 0, 69, 100
2, 317490, Note_on_c, 0, 81, 100
2, 317520, Note_on_c, 0, 99, 0
2, 317520, Note_on_c, 0, 86, 0
2, 317520, Note_on_c, 0, 74, 0
2, 317520, Note_on_c, 0, 100, 100
2, 317520, Note_on_c, 0, 87, 100
2, 317520, Note_on_c, 0, 75, 100
2, 317520, Note_on_c, 0, 62, 100
2, 322290, Note_on_c, 0, 105, 0
2, 322290, Note_on_c, 0, 93, 0
2, 322290, Note_on_c, 0, 69, 0
2, 322290, Note_on_c, 0, 81, 0
2, 322530, Note_on_c, 0, 106, 0
2, 322530, Note_on_c, 0, 94, 0
2, 322530, Note_on_c, 0, 70, 0
2, 322530, Note_on_c, 0, 82, 0
2, 322558, Note_on_c, 0, 100, 0
2, 322558, Note_on_c, 0, 87, 0
2, 322558, Note_on_c, 0, 75, 0
2, 322558, Note_on_c, 0, 62, 0
2, 322558, End_track
3, 0, Start_track
3, 0, Title_t, "TRIGGERS"
3, 7680, Note_on_c, 0, 68, 100
3, 8640, Note_on_c, 0, 68, 0
3, 9600, Note_on_c, 0, 70, 100
3, 9840, Note_on_c, 0, 70, 0
3, 10560, Note_on_c, 0, 70, 100
3, 10800, Note_on_c, 0, 70, 0
3, 11520, Note_on_c, 0, 70, 100
3, 11760, Note_on_c, 0, 70, 0
3, 12960, Note_on_c, 0, 69, 100
3, 13200, Note_on_c, 0, 69, 0
3, 14400, Note_on_c, 0, 68, 100
3, 14640, Note_on_c, 0, 68, 0
3, 15360, Note_on_c, 4, 60, 100
3, 15360, Note_on_c, 4, 61, 100
3, 15360, Note_on_c, 0, 68, 100
3, 15600, Note_on_c, 4, 60, 0
3, 15600, Note_on_c, 4, 61, 0
3, 16320, Note_on_c, 0, 68, 0
3, 17280, Note_on_c, 4, 60, 100
3, 17280, Note_on_c, 4, 61, 100
3, 17280, Note_on_c, 0, 70, 100
3, 17520, Note_on_c, 4, 60, 0
3, 17520, Note_on_c, 4, 61, 0
3, 17520, Note_on_c, 0, 70, 0
3, 18240, Note_on_c, 0, 70, 100
3, 18480, Note_on_c, 0, 70, 0
3, 19200, Note_on_c, 4, 60, 100
3, 19200, Note_on_c, 4, 61, 100
3, 19200, Note_on_c, 0, 70, 100
3, 19440, Note_on_c, 4, 60, 0
3, 19440, Note_on_c, 4, 61, 0
3, 19440, Note_on_c, 0, 70, 0
3, 20640, Note_on_c, 4, 60, 100
3, 20640, Note_on_c, 4, 61, 100
3, 20640, Note_on_c, 0, 69, 100
3, 20880, Note_on_c, 4, 60, 0
3, 20880, Note_on_c, 4, 61, 0
3, 20880, Note_on_c, 0, 69, 0
3, 22080, Note_on_c, 4, 61, 100
3, 22080, Note_on_c, 0, 68, 100
3, 22320, Note_on_c, 4, 61, 0
3, 22320, Note_on_c, 0, 68, 0
3, 22560, Note_on_c, 4, 61, 100
3, 22800, Note_on_c, 4, 61, 0
3, 23040, Note_on_c, 4, 60, 100
3, 23040, Note_on_c, 4, 61, 100
3, 23040, Note_on_c, 0, 68, 100
3, 23280, Note_on_c, 4, 60, 0
3, 23280, Note_on_c, 4, 61, 0
3, 24000, Note_on_c, 0, 68, 0
3, 24720, Note_on_c, 4, 60, 100
3, 24960, Note_on_c, 4, 60, 0
3, 24960, Note_on_c, 4, 60, 100
3, 24960, Note_on_c, 4, 61, 100
3, 24960, Note_on_c, 0, 70, 100
3, 25200, Note_on_c, 4, 60, 0
3, 25200, Note_on_c, 4, 61, 0
3, 25200, Note_on_c, 0, 70, 0
3, 25920, Note_on_c, 0, 70, 100
3, 26160, Note_on_c, 0, 70, 0
3, 26880, Note_on_c, 4, 60, 100
3, 26880, Note_on_c, 4, 61, 100
3, 26880, Note_on_c, 0, 70, 100
3, 27120, Note_on_c, 4, 60, 0
3, 27120, Note_on_c, 4, 61, 0
3, 27120, Note_on_c, 0, 70, 0
3, 28320, Note_on_c, 4, 60, 100
3, 28320, Note_on_c, 4, 61, 100
3, 28320, Note_on_c, 0, 69, 100
3, 28560, Note_on_c, 4, 60, 0
3, 28560, Note_on_c, 4, 61, 0
3, 28560, Note_on_c, 0, 69, 0
3, 29760, Note_on_c, 4, 61, 100
3, 29760, Note_on_c, 0, 68, 100
3, 30000, Note_on_c, 4, 61, 0
3, 30000, Note_on_c, 0, 68, 0
3, 30240, Note_on_c, 4, 61, 100
3, 30480, Note_on_c, 4, 61, 0
3, 30720, Note_on_c, 4, 60, 100
3, 30720, Note_on_c, 4, 61, 100
3, 30720, Note_on_c, 0, 68, 100
3, 30960, Note_on_c, 4, 60, 0
3, 30960, Note_on_c, 4, 61, 0
3, 31680, Note_on_c, 0, 68, 0
3, 32400, Note_on_c, 4, 60, 100
3, 32640, Note_on_c, 4, 60, 0
3, 32640, Note_on_c, 4, 60, 100
3, 32640, Note_on_c, 4, 61, 100
3, 32640, Note_on_c, 0, 70, 100
3, 32880, Note_on_c, 4, 60, 0
3, 32880, Note_on_c, 4, 61, 0
3, 32880, Note_on_c, 0, 70, 0
3, 33600, Note_on_c, 0, 70, 100
3, 33840, Note_on_c, 0, 70, 0
3, 34560, Note_on_c, 4, 60, 100
3, 34560, Note_on_c, 4, 61, 100
3, 34560, Note_on_c, 0, 70, 100
3, 34800, Note_on_c, 4, 60, 0
3, 34800, Note_on_c, 4, 61, 0
3, 34800, Note_on_c, 0, 70, 0
3, 36000, Note_on_c, 4, 60, 100
3, 36000, Note_on_c, 4, 61, 100
3, 36000, Note_on_c, 0, 69, 100
3, 36240, Note_on_c, 4, 60, 0
3, 36240, Note_on_c, 4, 61, 0
3, 36240, Note_on_c, 0, 69, 0
3, 37440, Note_on_c, 4, 61, 100
3, 37440, Note_on_c, 0, 68, 100
3, 37680, Note_on_c, 4, 61, 0
3, 37680, Note_on_c, 0, 68, 0
3, 37920, Note_on_c, 4, 61, 100
3, 38160, Note_on_c, 4, 61, 0
3, 38400, Note_on_c, 4, 60, 100
3, 38400, Note_on_c, 4, 61, 100
3, 38400, Note_on_c, 0, 68, 100
3, 38640, Note_on_c, 4, 60, 0
3, 38640, Note_on_c, 4, 61, 0
3, 40800, Note_on_c, 4, 60, 100
3, 40800, Note_on_c, 4, 61, 100
3, 41040, Note_on_c, 4, 60, 0
3, 41040, Note_on_c, 4, 61, 0
3, 41280, Note_on_c, 4, 61, 100
3, 41520, Note_on_c, 4, 61, 0
3, 41520, Note_on_c, 4, 61, 100
3, 41760, Note_on_c, 4, 61, 0
3, 41760, Note_on_c, 4, 60, 100
3, 41760, Note_on_c, 4, 61, 100
3, 42000, Note_on_c, 4, 60, 0
3, 42000, Note_on_c, 4, 61, 0
3, 42240, Note_on_c, 0, 68, 0
3, 42240, Note_on_c, 4, 60, 100
3, 42240, Note_on_c, 4, 61, 100
3, 42480, Note_on_c, 4, 60, 0
3, 42480, Note_on_c, 4, 61, 0
3, 42720, Note_on_c, 0, 69, 100
3, 43920, Note_on_c, 4, 61, 100
3, 44160, Note_on_c, 4, 61, 0
3, 44160, Note_on_c, 4, 61, 100
3, 44400, Note_on_c, 0, 69, 0
3, 44400, Note_on_c, 4, 61, 0
3, 44640, Note_on_c, 4, 60, 100
3, 44640, Note_on_c, 4, 61, 100
3, 44640, Note_on_c, 0, 69, 100
3, 44880, Note_on_c, 4, 60, 0
3, 44880, Note_on_c, 4, 61, 0
3, 44880, Note_on_c, 0, 69, 0
3, 45120, Note_on_c, 4, 61, 100
3, 45360, Note_on_c, 4, 61, 0
3, 45360, Note_on_c, 4, 61, 100
3, 45600, Note_on_c, 4, 61, 0
3, 45600, Note_on_c, 4, 60, 100
3, 45600, Note_on_c, 4, 61, 100
3, 45840, Note_on_c, 4, 60, 0
3, 45840, Note_on_c, 4, 61, 0
3, 46080, Note_on_c, 4, 60, 100
3, 46080, Note_on_c, 4, 61, 100
3, 46080, Note_on_c, 0, 70, 100
3, 46320, Note_on_c, 4, 60, 0
3, 46320, Note_on_c, 4, 61, 0
3, 47760, Note_on_c, 0, 70, 0
3, 48000, Note_on_c, 4, 60, 100
3, 48000, Note_on_c, 4, 61, 100
3, 48000, Note_on_c, 0, 68, 100
3, 48240, Note_on_c, 4, 60, 0
3, 48240, Note_on_c, 4, 61, 0
3, 48240, Note_on_c, 0, 68, 0
3, 48480, Note_on_c, 4, 60, 100
3, 48480, Note_on_c, 4, 61, 100
3, 48720, Note_on_c, 4, 60, 0
3, 48720, Note_on_c, 4, 61, 0
3, 48960, Note_on_c, 4, 60, 100
3, 48960, Note_on_c, 4, 61, 100
3, 48960, Note_on_c, 0, 69, 100
3, 49200, Note_on_c, 4, 60, 0
3, 49200, Note_on_c, 4, 61, 0
3, 49200, Note_on_c, 0, 69, 0
3, 49440, Note_on_c, 4, 60, 100
3, 49440, Note_on_c, 4, 61, 100
3, 49680, Note_on_c, 4, 60, 0
3, 49680, Note_on_c, 4, 61, 0
3, 49920, Note_on_c, 4, 60, 100
3, 49920, Note_on_c, 4, 61, 100
3, 49920, Note_on_c, 0, 70, 100
3, 50160, Note_on_c, 4, 60, 0
3, 50160, Note_on_c, 4, 61, 0
3, 50160, Note_on_c, 0, 70, 0
3, 50880, Note_on_c, 4, 61, 100
3, 50880, Note_on_c, 0, 70, 100
3, 51120, Note_on_c, 4, 61, 0
3, 51120, Note_on_c, 0, 70, 0
3, 51360, Note_on_c, 4, 61, 100
3, 51600, Note_on_c, 4, 61, 0
3, 52320, Note_on_c, 4, 60, 100
3, 52320, Note_on_c, 4, 61, 100
3, 52320, Note_on_c, 0, 69, 100
3, 52560, Note_on_c, 4, 60, 0
3, 52560, Note_on_c, 4, 61, 0
3, 52560, Note_on_c, 0, 69, 0
3, 52800, Note_on_c, 4, 61, 100
3, 53040, Note_on_c, 4, 61, 0
3, 53280, Note_on_c, 4, 60, 100
3, 53520, Note_on_c, 4, 60, 0
3, 53760, Note_on_c, 4, 60, 100
3, 53760, Note_on_c, 4, 61, 100
3, 53760, Note_on_c, 0, 68, 100
3, 54000, Note_on_c, 4, 60, 0
3, 54000, Note_on_c, 4, 61, 0
3, 55680, Note_on_c, 4, 61, 100
3, 55920, Note_on_c, 4, 61, 0
3, 56160, Note_on_c, 4, 60, 100
3, 56160, Note_on_c, 4, 61, 100
3, 56400, Note_on_c, 4, 60, 0
3, 56400, Note_on_c, 4, 61, 0
3, 56640, Note_on_c, 4, 60, 100
3, 56640, Note_on_c, 4, 61, 100
3, 56880, Note_on_c, 4, 60, 0
3, 56880, Note_on_c, 4, 61, 0
3, 57120, Note_on_c, 4, 61, 100
3, 57360, Note_on_c, 4, 61, 0
3, 57600, Note_on_c, 0, 68, 0
3, 57600, Note_on_c, 4, 60, 100
3, 57600, Note_on_c, 4, 61, 100
3, 57840, Note_on_c, 4, 60, 0
3, 57840, Note_on_c, 4, 61, 0
3, 59040, Note_on_c, 0, 69, 100
3, 59280, Note_on_c, 0, 69, 0
3, 59760, Note_on_c, 0, 70, 100
3, 60000, Note_on_c, 0, 70, 0
3, 60000, Note_on_c, 4, 60, 100
3, 60000, Note_on_c, 4, 61, 100
3, 60240, Note_on_c, 4, 60, 0
3, 60240, Note_on_c, 4, 61, 0
3, 60480, Note_on_c, 4, 61, 100
3, 60480, Note_on_c, 0, 69, 100
3, 60720, Note_on_c, 4, 61, 0
3, 60720, Note_on_c, 0, 69, 0
3, 60720, Note_on_c, 4, 61, 100
3, 60960, Note_on_c, 4, 61, 0
3, 60960, Note_on_c, 4, 60, 100
3, 60960, Note_on_c, 4, 61, 100
3, 61200, Note_on_c, 4, 60, 0
3, 61200, Note_on_c, 4, 61, 0
3, 61440, Note_on_c, 4, 60, 100
3, 61440, Note_on_c, 4, 61, 100
3, 61440, Note_on_c, 0, 69, 100
3, 61680, Note_on_c, 4, 60, 0
3, 61680, Note_on_c, 4, 61, 0
3, 62400, Note_on_c, 4, 61, 100
3, 62640, Note_on_c, 4, 61, 0
3, 63120, Note_on_c, 4, 61, 100
3, 63360, Note_on_c, 4, 61, 0
3, 63360, Note_on_c, 4, 61, 100
3, 63600, Note_on_c, 4, 61, 0
3, 63840, Note_on_c, 4, 60, 100
3, 63840, Note_on_c, 4, 61, 100
3, 64080, Note_on_c, 4, 60, 0
3, 64080, Note_on_c, 4, 61, 0
3, 64320, Note_on_c, 4, 61, 100
3, 64560, Note_on_c, 4, 61, 0
3, 64800, Note_on_c, 4, 60, 100
3, 64800, Note_on_c, 4, 61, 100
3, 65040, Note_on_c, 0, 69, 0
3, 65040, Note_on_c, 4, 60, 0
3, 65040, Note_on_c, 4, 61, 0
3, 65040, Note_on_c, 4, 61, 100
3, 65280, Note_on_c, 4, 61, 0
3, 65280, Note_on_c, 4, 60, 100
3, 65280, Note_on_c, 4, 61, 100
3, 65280, Note_on_c, 0, 70, 100
3, 65520, Note_on_c, 4, 60, 0
3, 65520, Note_on_c, 4, 61, 0
3, 66240, Note_on_c, 4, 61, 100
3, 66480, Note_on_c, 4, 61, 0
3, 66960, Note_on_c, 4, 61, 100
3, 67200, Note_on_c, 4, 61, 0
3, 67200, Note_on_c, 4, 61, 100
3, 67440, Note_on_c, 4, 61, 0
3, 67680, Note_on_c, 4, 60, 100
3, 67680, Note_on_c, 4, 61, 100
3, 67920, Note_on_c, 4, 60, 0
3, 67920, Note_on_c, 4, 61, 0
3, 68160, Note_on_c, 4, 61, 100
3, 68400, Note_on_c, 4, 61, 0
3, 68640, Note_on_c, 0, 70, 0
3, 68640, Note_on_c, 4, 60, 100
3, 68640, Note_on_c, 4, 61, 100
3, 68880, Note_on_c, 4, 60, 0
3, 68880, Note_on_c, 4, 61, 0
3, 68880, Note_on_c, 4, 61, 100
3, 69120, Note_on_c, 4, 61, 0
3, 69120, Note_on_c, 4, 60, 100
3, 69120, Note_on_c, 4, 61, 100
3, 69120, Note_on_c, 0, 68, 100
3, 69360, Note_on_c, 4, 60, 0
3, 69360, Note_on_c, 4, 61, 0
3, 71520, Note_on_c, 4, 60, 100
3, 71520, Note_on_c, 4, 61, 100
3, 71760, Note_on_c, 4, 60, 0
3, 71760, Note_on_c, 4, 61, 0
3, 72000, Note_on_c, 4, 61, 100
3, 72240, Note_on_c, 4, 61, 0
3, 72240, Note_on_c, 4, 61, 100
3, 72480, Note_on_c, 0, 68, 0
3, 72480, Note_on_c, 4, 61, 0
3, 72480, Note_on_c, 4, 60, 100
3, 72480, Note_on_c, 4, 61, 100
3, 72720, Note_on_c, 4, 60, 0
3, 72720, Note_on_c, 4, 61, 0
3, 72960, Note_on_c, 4, 60, 100
3, 72960, Note_on_c, 4, 61, 100
3, 72960, Note_on_c, 0, 69, 100
3, 73200, Note_on_c, 4, 60, 0
3, 73200, Note_on_c, 4, 61, 0
3, 74640, Note_on_c, 4, 61, 100
3, 74880, Note_on_c, 4, 61, 0
3, 74880, Note_on_c, 4, 61, 100
3, 75120, Note_on_c, 4, 61, 0
3, 75360, Note_on_c, 4, 60, 100
3, 75360, Note_on_c, 4, 61, 100
3, 75600, Note_on_c, 4, 60, 0
3, 75600, Note_on_c, 4, 61, 0
3, 75840, Note_on_c, 4, 61, 100
3, 76080, Note_on_c, 4, 61, 0
3, 76080, Note_on_c, 4, 61, 100
3, 76320, Note_on_c, 4, 61, 0
3, 76320, Note_on_c, 4, 60, 100
3, 76320, Note_on_c, 4, 61, 100
3, 76560, Note_on_c, 0, 69, 0
3, 76560, Note_on_c, 4, 60, 0
3, 76560, Note_on_c, 4, 61, 0
3, 76800, Note_on_c, 4, 60, 100
3, 76800, Note_on_c, 4, 61, 100
3, 76800, Note_on_c, 0, 69, 100
3, 77040, Note_on_c, 4, 60, 0
3, 77040, Note_on_c, 4, 61, 0
3, 78480, Note_on_c, 0, 69, 0
3, 78720, Note_on_c, 4, 60, 100
3, 78720, Note_on_c, 4, 61, 100
3, 78720, Note_on_c, 0, 68, 100
3, 78960, Note_on_c, 4, 60, 0
3, 78960, Note_on_c, 4, 61, 0
3, 78960, Note_on_c, 0, 68, 0
3, 79200, Note_on_c, 4, 60, 100
3, 79200, Note_on_c, 4, 61, 100
3, 79440, Note_on_c, 4, 60, 0
3, 79440, Note_on_c, 4, 61, 0
3, 79680, Note_on_c, 4, 60, 100
3, 79680, Note_on_c, 4, 61, 100
3, 79680, Note_on_c, 0, 69, 100
3, 79920, Note_on_c, 4, 60, 0
3, 79920, Note_on_c, 4, 61, 0
3, 79920, Note_on_c, 0, 69, 0
3, 80160, Note_on_c, 4, 60, 100
3, 80160, Note_on_c, 4, 61, 100
3, 80400, Note_on_c, 4, 60, 0
3, 80400, Note_on_c, 4, 61, 0
3, 80640, Note_on_c, 4, 60, 100
3, 80640, Note_on_c, 4, 61, 100
3, 80640, Note_on_c, 0, 70, 100
3, 80880, Note_on_c, 4, 60, 0
3, 80880, Note_on_c, 4, 61, 0
3, 80880, Note_on_c, 0, 70, 0
3, 81600, Note_on_c, 4, 61, 100
3, 81600, Note_on_c, 0, 70, 100
3, 81840, Note_on_c, 4, 61, 0
3, 81840, Note_on_c, 0, 70, 0
3, 82080, Note_on_c, 4, 61, 100
3, 82320, Note_on_c, 4, 61, 0
3, 83040, Note_on_c, 4, 60, 100
3, 83040, Note_on_c, 4, 61, 100
3, 83040, Note_on_c, 0, 69, 100
3, 83280, Note_on_c, 4, 60, 0
3, 83280, Note_on_c, 4, 61, 0
3, 83280, Note_on_c, 0, 69, 0
3, 83520, Note_on_c, 4, 61, 100
3, 83760, Note_on_c, 4, 61, 0
3, 84000, Note_on_c, 4, 60, 100
3, 84240, Note_on_c, 4, 60, 0
3, 84480, Note_on_c, 4, 60, 100
3, 84480, Note_on_c, 4, 61, 100
3, 84480, Note_on_c, 0, 68, 100
3, 84720, Note_on_c, 4, 60, 0
3, 84720, Note_on_c, 4, 61, 0
3, 86400, Note_on_c, 4, 61, 100
3, 86640, Note_on_c, 4, 61, 0
3, 86880, Note_on_c, 4, 60, 100
3, 86880, Note_on_c, 4, 61, 100
3, 87120, Note_on_c, 4, 60, 0
3, 87120, Note_on_c, 4, 61, 0
3, 87360, Note_on_c, 4, 61, 100
3, 87600, Note_on_c, 4, 61, 0
3, 87840, Note_on_c, 4, 60, 100
3, 87840, Note_on_c, 4, 61, 100
3, 88080, Note_on_c, 4, 60, 0
3, 88080, Note_on_c, 4, 61, 0
3, 88080, Note_on_c, 4, 61, 100
3, 88320, Note_on_c, 0, 68, 0
3, 88320, Note_on_c, 4, 61, 0
3, 88320, Note_on_c, 4, 60, 100
3, 88320, Note_on_c, 4, 61, 100
3, 88320, Note_on_c, 0, 69, 100
3, 88560, Note_on_c, 4, 60, 0
3, 88560, Note_on_c, 4, 61, 0
3, 89280, Note_on_c, 0, 69, 0
3, 89760, Note_on_c, 0, 70, 100
3, 90240, Note_on_c, 4, 61, 100
3, 90480, Note_on_c, 4, 61, 0
3, 90720, Note_on_c, 4, 60, 100
3, 90720, Note_on_c, 4, 61, 100
3, 90960, Note_on_c, 4, 60, 0
3, 90960, Note_on_c, 4, 61, 0
3, 91200, Note_on_c, 4, 61, 100
3, 91440, Note_on_c, 4, 61, 0
3, 91680, Note_on_c, 0, 70, 0
3, 91680, Note_on_c, 4, 60, 100
3, 91680, Note_on_c, 4, 61, 100
3, 91920, Note_on_c, 4, 60, 0
3, 91920, Note_on_c, 4, 61, 0
3, 92160, Note_on_c, 4, 60, 100
3, 92160, Note_on_c, 4, 61, 100
3, 92160, Note_on_c, 0, 69, 100
3, 92400, Note_on_c, 4, 60, 0
3, 92400, Note_on_c, 4, 61, 0
3, 93840, Note_on_c, 4, 61, 100
3, 94080, Note_on_c, 4, 61, 0
3, 94080, Note_on_c, 4, 61, 100
3, 94320, Note_on_c, 4, 61, 0
3, 94560, Note_on_c, 4, 60, 100
3, 94560, Note_on_c, 4, 61, 100
3, 94800, Note_on_c, 4, 60, 0
3, 94800, Note_on_c, 4, 61, 0
3, 95040, Note_on_c, 0, 69, 0
3, 95040, Note_on_c, 4, 61, 100
3, 95280, Note_on_c, 4, 61, 0
3, 95520, Note_on_c, 4, 60, 100
3, 95520, Note_on_c, 4, 61, 100
3, 95520, Note_on_c, 0, 69, 100
3, 95760, Note_on_c, 4, 60, 0
3, 95760, Note_on_c, 4, 61, 0
3, 95760, Note_on_c, 0, 69, 0
3, 95760, Note_on_c, 4, 61, 100
3, 96000, Note_on_c, 4, 61, 0
3, 96000, Note_on_c, 4, 60, 100
3, 96000, Note_on_c, 4, 61, 100
3, 96000, Note_on_c, 0, 70, 100
3, 96240, Note_on_c, 4, 60, 0
3, 96240, Note_on_c, 4, 61, 0
3, 98400, Note_on_c, 4, 61, 100
3, 98640, Note_on_c, 4, 61, 0
3, 99360, Note_on_c, 0, 70, 0
3, 99360, Note_on_c, 4, 61, 100
3, 99600, Note_on_c, 4, 61, 0
3, 99840, Note_on_c, 4, 60, 100
3, 99840, Note_on_c, 4, 61, 100
3, 99840, Note_on_c, 0, 70, 100
3, 100080, Note_on_c, 4, 60, 0
3, 100080, Note_on_c, 4, 61, 0
3, 100080, Note_on_c, 0, 70, 0
3, 100080, Note_on_c, 4, 61, 100
3, 100320, Note_on_c, 4, 61, 0
3, 100320, Note_on_c, 4, 61, 100
3, 100320, Note_on_c, 0, 70, 100
3, 100560, Note_on_c, 4, 61, 0
3, 100560, Note_on_c, 0, 70, 0
3, 100560, Note_on_c, 4, 60, 100
3, 100560, Note_on_c, 4, 61, 100
3, 100800, Note_on_c, 4, 60, 0
3, 100800, Note_on_c, 4, 61, 0
3, 100800, Note_on_c, 4, 61, 100
3, 100800, Note_on_c, 0, 70, 100
3, 101040, Note_on_c, 4, 61, 0
3, 101040, Note_on_c, 0, 70, 0
3, 101520, Note_on_c, 4, 60, 100
3, 101760, Note_on_c, 4, 60, 0
3, 101760, Note_on_c, 4, 60, 100
3, 101760, Note_on_c, 4, 61, 100
3, 101760, Note_on_c, 0, 69, 100
3, 102000, Note_on_c, 4, 60, 0
3, 102000, Note_on_c, 4, 61, 0
3, 102000, Note_on_c, 0, 69, 0
3, 102000, Note_on_c, 4, 61, 100
3, 102240, Note_on_c, 4, 61, 0
3, 102240, Note_on_c, 4, 61, 100
3, 102240, Note_on_c, 0, 69, 100
3, 102480, Note_on_c, 4, 61, 0
3, 102480, Note_on_c, 0, 69, 0
3, 102480, Note_on_c, 4, 60, 100
3, 102480, Note_on_c, 4, 61, 100
3, 102720, Note_on_c, 4, 60, 0
3, 102720, Note_on_c, 4, 61, 0
3, 102720, Note_on_c, 4, 61, 100
3, 102720, Note_on_c, 0, 69, 100
3, 102960, Note_on_c, 4, 61, 0
3, 102960, Note_on_c, 0, 69, 0
3, 103440, Note_on_c, 4, 60, 100
3, 103680, Note_on_c, 4, 60, 0
3, 103680, Note_on_c, 4, 60, 100
3, 103680, Note_on_c, 4, 61, 100
3, 103680, Note_on_c, 0, 68, 100
3, 103920, Note_on_c, 4, 60, 0
3, 103920, Note_on_c, 4, 61, 0
3, 103920, Note_on_c, 0, 68, 0
3, 104160, Note_on_c, 4, 61, 100
3, 104160, Note_on_c, 0, 68, 100
3, 104400, Note_on_c, 4, 61, 0
3, 104400, Note_on_c, 0, 68, 0
3, 104400, Note_on_c, 4, 60, 100
3, 104640, Note_on_c, 4, 60, 0
3, 104640, Note_on_c, 4, 61, 100
3, 104640, Note_on_c, 0, 68, 100
3, 104880, Note_on_c, 4, 61, 0
3, 104880, Note_on_c, 0, 68, 0
3, 105120, Note_on_c, 4, 61, 100
3, 105120, Note_on_c, 0, 68, 100
3, 105360, Note_on_c, 4, 61, 0
3, 105360, Note_on_c, 0, 68, 0
3, 105360, Note_on_c, 4, 60, 100
3, 105600, Note_on_c, 4, 60, 0
3, 105600, Note_on_c, 4, 61, 100
3, 105600, Note_on_c, 0, 68, 100
3, 105840, Note_on_c, 4, 61, 0
3, 105840, Note_on_c, 0, 68, 0
3, 106080, Note_on_c, 4, 61, 100
3, 106080, Note_on_c, 0, 68, 100
3, 106320, Note_on_c, 4, 61, 0
3, 106320, Note_on_c, 0, 68, 0
3, 106320, Note_on_c, 4, 60, 100
3, 106560, Note_on_c, 4, 60, 0
3, 106560, Note_on_c, 4, 61, 100
3, 106560, Note_on_c, 0, 68, 100
3, 106800, Note_on_c, 4, 61, 0
3, 106800, Note_on_c, 0, 68, 0
3, 107040, Note_on_c, 4, 61, 100
3, 107040, Note_on_c, 0, 69, 100
3, 107280, Note_on_c, 4, 61, 0
3, 107280, Note_on_c, 0, 69, 0
3, 107520, Note_on_c, 4, 60, 100
3, 107520, Note_on_c, 4, 61, 100
3, 107520, Note_on_c, 0, 70, 100
3, 107760, Note_on_c, 4, 60, 0
3, 107760, Note_on_c, 4, 61, 0
3, 107760, Note_on_c, 0, 70, 0
3, 107760, Note_on_c, 4, 61, 100
3, 108000, Note_on_c, 4, 61, 0
3, 108000, Note_on_c, 4, 61, 100
3, 108000, Note_on_c, 0, 70, 100
3, 108240, Note_on_c, 4, 61, 0
3, 108240, Note_on_c, 0, 70, 0
3, 108240, Note_on_c, 4, 60, 100
3, 108240, Note_on_c, 4, 61, 100
3, 108480, Note_on_c, 4, 60, 0
3, 108480, Note_on_c, 4, 61, 0
3, 108480, Note_on_c, 4, 61, 100
3, 108480, Note_on_c, 0, 70, 100
3, 108720, Note_on_c, 4, 61, 0
3, 108720, Note_on_c, 0, 70, 0
3, 109200, Note_on_c, 4, 60, 100
3, 109440, Note_on_c, 4, 60, 0
3, 109440, Note_on_c, 4, 60, 100
3, 109440, Note_on_c, 4, 61, 100
3, 109440, Note_on_c, 0, 69, 100
3, 109680, Note_on_c, 4, 60, 0
3, 109680, Note_on_c, 4, 61, 0
3, 109680, Note_on_c, 0, 69, 0
3, 109680, Note_on_c, 4, 61, 100
3, 109920, Note_on_c, 4, 61, 0
3, 109920, Note_on_c, 4, 61, 100
3, 109920, Note_on_c, 0, 69, 100
3, 110160, Note_on_c, 4, 61, 0
3, 110160, Note_on_c, 0, 69, 0
3, 110160, Note_on_c, 4, 60, 100
3, 110160, Note_on_c, 4, 61, 100
3, 110400, Note_on_c, 4, 60, 0
3, 110400, Note_on_c, 4, 61, 0
3, 110400, Note_on_c, 4, 61, 100
3, 110400, Note_on_c, 0, 69, 100
3, 110640, Note_on_c, 4, 61, 0
3, 110640, Note_on_c, 0, 69, 0
3, 111120, Note_on_c, 4, 60, 100
3, 111360, Note_on_c, 4, 60, 0
3, 111360, Note_on_c, 4, 60, 100
3, 111360, Note_on_c, 4, 61, 100
3, 111360, Note_on_c, 0, 68, 100
3, 111600, Note_on_c, 4, 60, 0
3, 111600, Note_on_c, 4, 61, 0
3, 111600, Note_on_c, 0, 68, 0
3, 111840, Note_on_c, 4, 61, 100
3, 111840, Note_on_c, 0, 68, 100
3, 112080, Note_on_c, 4, 61, 0
3, 112080, Note_on_c, 0, 68, 0
3, 112080, Note_on_c, 4, 60, 100
3, 112320, Note_on_c, 4, 60, 0
3, 112320, Note_on_c, 4, 61, 100
3, 112320, Note_on_c, 0, 68, 100
3, 112560, Note_on_c, 4, 61, 0
3, 112560, Note_on_c, 0, 68, 0
3, 112800, Note_on_c, 4, 61, 100
3, 112800, Note_on_c, 0, 68, 100
3, 113040, Note_on_c, 4, 61, 0
3, 113040, Note_on_c, 0, 68, 0
3, 113040, Note_on_c, 4, 60, 100
3, 113280, Note_on_c, 4, 60, 0
3, 113280, Note_on_c, 4, 61, 100
3, 113280, Note_on_c, 0, 68, 100
3, 113520, Note_on_c, 4, 61, 0
3, 113520, Note_on_c, 0, 68, 0
3, 113760, Note_on_c, 4, 61, 100
3, 113760, Note_on_c, 0, 68, 100
3, 114000, Note_on_c, 4, 61, 0
3, 114000, Note_on_c, 0, 68, 0
3, 114000, Note_on_c, 4, 60, 100
3, 114240, Note_on_c, 4, 60, 0
3, 114240, Note_on_c, 4, 61, 100
3, 114240, Note_on_c, 0, 68, 100
3, 114480, Note_on_c, 4, 61, 0
3, 114480, Note_on_c, 0, 68, 0
3, 114720, Note_on_c, 4, 61, 100
3, 114720, Note_on_c, 0, 69, 100
3, 114960, Note_on_c, 4, 61, 0
3, 114960, Note_on_c, 0, 69, 0
3, 114960, Note_on_c, 4, 60, 100
3, 115200, Note_on_c, 4, 60, 0
3, 115200, Note_on_c, 4, 60, 100
3, 115200, Note_on_c, 4, 61, 100
3, 115200, Note_on_c, 0, 70, 100
3, 115440, Note_on_c, 4, 60, 0
3, 115440, Note_on_c, 4, 61, 0
3, 115440, Note_on_c, 0, 70, 0
3, 115440, Note_on_c, 4, 61, 100
3, 115680, Note_on_c, 4, 61, 0
3, 115680, Note_on_c, 4, 61, 100
3, 115680, Note_on_c, 0, 70, 100
3, 115920, Note_on_c, 4, 61, 0
3, 115920, Note_on_c, 0, 70, 0
3, 115920, Note_on_c, 4, 60, 100
3, 115920, Note_on_c, 4, 61, 100
3, 116160, Note_on_c, 4, 60, 0
3, 116160, Note_on_c, 4, 61, 0
3, 116160, Note_on_c, 4, 61, 100
3, 116160, Note_on_c, 0, 70, 100
3, 116400, Note_on_c, 4, 61, 0
3, 116400, Note_on_c, 0, 70, 0
3, 116880, Note_on_c, 4, 60, 100
3, 117120, Note_on_c, 4, 60, 0
3, 117120, Note_on_c, 4, 60, 100
3, 117120, Note_on_c, 4, 61, 100
3, 117120, Note_on_c, 0, 69, 100
3, 117360, Note_on_c, 4, 60, 0
3, 117360, Note_on_c, 4, 61, 0
3, 117360, Note_on_c, 0, 69, 0
3, 117360, Note_on_c, 4, 61, 100
3, 117600, Note_on_c, 4, 61, 0
3, 117600, Note_on_c, 4, 61, 100
3, 117600, Note_on_c, 0, 69, 100
3, 117840, Note_on_c, 4, 61, 0
3, 117840, Note_on_c, 0, 69, 0
3, 117840, Note_on_c, 4, 60, 100
3, 117840, Note_on_c, 4, 61, 100
3, 118080, Note_on_c, 4, 60, 0
3, 118080, Note_on_c, 4, 61, 0
3, 118080, Note_on_c, 4, 61, 100
3, 118080, Note_on_c, 0, 69, 100
3, 118320, Note_on_c, 4, 61, 0
3, 118320, Note_on_c, 0, 69, 0
3, 118800, Note_on_c, 4, 60, 100
3, 119040, Note_on_c, 4, 60, 0
3, 119040, Note_on_c, 4, 60, 100
3, 119040, Note_on_c, 4, 61, 100
3, 119040, Note_on_c, 0, 68, 100
3, 119280, Note_on_c, 4, 60, 0
3, 119280, Note_on_c, 4, 61, 0
3, 119280, Note_on_c, 0, 68, 0
3, 119520, Note_on_c, 4, 61, 100
3, 119520, Note_on_c, 0, 68, 100
3, 119760, Note_on_c, 4, 61, 0
3, 119760, Note_on_c, 0, 68, 0
3, 119760, Note_on_c, 4, 60, 100
3, 120000, Note_on_c, 4, 60, 0
3, 120000, Note_on_c, 4, 61, 100
3, 120000, Note_on_c, 0, 68, 100
3, 120240, Note_on_c, 4, 61, 0
3, 120240, Note_on_c, 0, 68, 0
3, 120480, Note_on_c, 4, 61, 100
3, 120480, Note_on_c, 0, 68, 100
3, 120720, Note_on_c, 4, 61, 0
3, 120720, Note_on_c, 0, 68, 0
3, 120720, Note_on_c, 4, 60, 100
3, 120960, Note_on_c, 4, 60, 0
3, 120960, Note_on_c, 4, 61, 100
3, 120960, Note_on_c, 0, 68, 100
3, 121200, Note_on_c, 4, 61, 0
3, 121200, Note_on_c, 0, 68, 0
3, 121440, Note_on_c, 4, 61, 100
3, 121440, Note_on_c, 0, 68, 100
3, 121680, Note_on_c, 4, 61, 0
3, 121680, Note_on_c, 0, 68, 0
3, 121680, Note_on_c, 4, 60, 100
3, 121920, Note_on_c, 4, 60, 0
3, 121920, Note_on_c, 4, 61, 100
3, 121920, Note_on_c, 0, 68, 100
3, 122160, Note_on_c, 4, 61, 0
3, 122160, Note_on_c, 0, 68, 0
3, 122400, Note_on_c, 4, 61, 100
3, 122400, Note_on_c, 0, 69, 100
3, 122640, Note_on_c, 4, 61, 0
3, 122640, Note_on_c, 0, 69, 0
3, 122880, Note_on_c, 4, 60, 100
3, 122880, Note_on_c, 4, 61, 100
3, 122880, Note_on_c, 0, 70, 100
3, 123120, Note_on_c, 4, 60, 0
3, 123120, Note_on_c, 4, 61, 0
3, 123600, Note_on_c, 4, 60, 100
3, 123600, Note_on_c, 4, 61, 100
3, 123840, Note_on_c, 0, 70, 0
3, 123840, Note_on_c, 4, 60, 0
3, 123840, Note_on_c, 4, 61, 0
3, 123840, Note_on_c, 4, 61, 100
3, 123840, Note_on_c, 0, 70, 100
3, 124080, Note_on_c, 4, 61, 0
3, 124080, Note_on_c, 0, 70, 0
3, 124560, Note_on_c, 4, 60, 100
3, 124800, Note_on_c, 4, 60, 0
3, 124800, Note_on_c, 4, 60, 100
3, 124800, Note_on_c, 4, 61, 100
3, 125040, Note_on_c, 4, 60, 0
3, 125040, Note_on_c, 4, 61, 0
3, 125040, Note_on_c, 4, 61, 100
3, 125040, Note_on_c, 0, 70, 100
3, 125280, Note_on_c, 4, 61, 0
3, 125280, Note_on_c, 0, 70, 0
3, 125520, Note_on_c, 4, 60, 100
3, 125760, Note_on_c, 4, 60, 0
3, 125760, Note_on_c, 4, 61, 100
3, 125760, Note_on_c, 0, 70, 100
3, 126000, Note_on_c, 4, 61, 0
3, 126000, Note_on_c, 0, 70, 0
3, 126240, Note_on_c, 4, 61, 100
3, 126480, Note_on_c, 4, 61, 0
3, 126480, Note_on_c, 4, 60, 100
3, 126720, Note_on_c, 4, 60, 0
3, 126720, Note_on_c, 4, 60, 100
3, 126720, Note_on_c, 4, 61, 100
3, 126720, Note_on_c, 0, 69, 100
3, 126960, Note_on_c, 4, 60, 0
3, 126960, Note_on_c, 4, 61, 0
3, 127200, Note_on_c, 4, 61, 100
3, 127440, Note_on_c, 4, 61, 0
3, 127440, Note_on_c, 4, 61, 100
3, 127680, Note_on_c, 4, 61, 0
3, 127680, Note_on_c, 4, 61, 100
3, 127920, Note_on_c, 4, 61, 0
3, 128160, Note_on_c, 4, 61, 100
3, 128400, Note_on_c, 4, 61, 0
3, 128400, Note_on_c, 4, 61, 100
3, 128640, Note_on_c, 4, 61, 0
3, 128640, Note_on_c, 4, 61, 100
3, 128880, Note_on_c, 4, 61, 0
3, 129600, Note_on_c, 4, 61, 100
3, 129840, Note_on_c, 0, 69, 0
3, 129840, Note_on_c, 4, 61, 0
3, 129840, Note_on_c, 4, 61, 100
3, 130080, Note_on_c, 4, 61, 0
3, 130080, Note_on_c, 4, 61, 100
3, 130320, Note_on_c, 4, 61, 0
3, 130560, Note_on_c, 4, 60, 100
3, 130560, Note_on_c, 4, 61, 100
3, 130560, Note_on_c, 0, 68, 100
3, 130800, Note_on_c, 4, 60, 0
3, 130800, Note_on_c, 4, 61, 0
3, 131520, Note_on_c, 0, 68, 0
3, 132240, Note_on_c, 4, 60, 100
3, 132480, Note_on_c, 4, 60, 0
3, 132480, Note_on_c, 4, 60, 100
3, 132480, Note_on_c, 4, 61, 100
3, 132480, Note_on_c, 0, 70, 100
3, 132720, Note_on_c, 4, 60, 0
3, 132720, Note_on_c, 4, 61, 0
3, 132720, Note_on_c, 0, 70, 0
3, 133200, Note_on_c, 4, 60, 100
3, 133440, Note_on_c, 4, 60, 0
3, 133440, Note_on_c, 0, 70, 100
3, 133680, Note_on_c, 0, 70, 0
3, 134400, Note_on_c, 4, 60, 100
3, 134400, Note_on_c, 4, 61, 100
3, 134400, Note_on_c, 0, 70, 100
3, 134640, Note_on_c, 4, 60, 0
3, 134640, Note_on_c, 4, 61, 0
3, 134640, Note_on_c, 0, 70, 0
3, 135120, Note_on_c, 4, 60, 100
3, 135360, Note_on_c, 4, 60, 0
3, 135840, Note_on_c, 4, 60, 100
3, 135840, Note_on_c, 4, 61, 100
3, 135840, Note_on_c, 0, 69, 100
3, 136080, Note_on_c, 4, 60, 0
3, 136080, Note_on_c, 4, 61, 0
3, 136080, Note_on_c, 0, 69, 0
3, 136560, Note_on_c, 4, 60, 100
3, 136800, Note_on_c, 4, 60, 0
3, 137280, Note_on_c, 4, 61, 100
3, 137280, Note_on_c, 0, 68, 100
3, 137520, Note_on_c, 4, 61, 0
3, 137520, Note_on_c, 0, 68, 0
3, 137760, Note_on_c, 4, 61, 100
3, 138000, Note_on_c, 4, 61, 0
3, 138240, Note_on_c, 4, 60, 100
3, 138240, Note_on_c, 4, 61, 100
3, 138240, Note_on_c, 0, 68, 100
3, 138480, Note_on_c, 4, 60, 0
3, 138480, Note_on_c, 4, 61, 0
3, 139200, Note_on_c, 0, 68, 0
3, 139920, Note_on_c, 4, 60, 100
3, 140160, Note_on_c, 4, 60, 0
3, 140160, Note_on_c, 4, 60, 100
3, 140160, Note_on_c, 4, 61, 100
3, 140160, Note_on_c, 0, 70, 100
3, 140400, Note_on_c, 4, 60, 0
3, 140400, Note_on_c, 4, 61, 0
3, 140400, Note_on_c, 0, 70, 0
3, 141120, Note_on_c, 0, 70, 100
3, 141360, Note_on_c, 0, 70, 0
3, 142080, Note_on_c, 4, 60, 100
3, 142080, Note_on_c, 4, 61, 100
3, 142080, Note_on_c, 0, 70, 100
3, 142320, Note_on_c, 4, 60, 0
3, 142320, Note_on_c, 4, 61, 0
3, 142320, Note_on_c, 0, 70, 0
3, 142800, Note_on_c, 4, 60, 100
3, 143040, Note_on_c, 4, 60, 0
3, 143520, Note_on_c, 4, 60, 100
3, 143520, Note_on_c, 4, 61, 100
3, 143520, Note_on_c, 0, 69, 100
3, 143760, Note_on_c, 4, 60, 0
3, 143760, Note_on_c, 4, 61, 0
3, 143760, Note_on_c, 0, 69, 0
3, 144240, Note_on_c, 4, 60, 100
3, 144480, Note_on_c, 4, 60, 0
3, 144960, Note_on_c, 4, 61, 100
3, 144960, Note_on_c, 0, 68, 100
3, 145200, Note_on_c, 4, 61, 0
3, 145200, Note_on_c, 0, 68, 0
3, 145440, Note_on_c, 4, 61, 100
3, 145680, Note_on_c, 4, 61, 0
3, 145920, Note_on_c, 4, 60, 100
3, 145920, Note_on_c, 4, 61, 100
3, 145920, Note_on_c, 0, 68, 100
3, 146160, Note_on_c, 4, 60, 0
3, 146160, Note_on_c, 4, 61, 0
3, 147600, Note_on_c, 4, 61, 100
3, 147840, Note_on_c, 4, 61, 0
3, 147840, Note_on_c, 4, 61, 100
3, 148080, Note_on_c, 4, 61, 0
3, 148320, Note_on_c, 4, 60, 100
3, 148320, Note_on_c, 4, 61, 100
3, 148560, Note_on_c, 4, 60, 0
3, 148560, Note_on_c, 4, 61, 0
3, 148800, Note_on_c, 4, 61, 100
3, 149040, Note_on_c, 4, 61, 0
3, 149040, Note_on_c, 4, 61, 100
3, 149280, Note_on_c, 0, 68, 0
3, 149280, Note_on_c, 4, 61, 0
3, 149280, Note_on_c, 4, 60, 100
3, 149280, Note_on_c, 4, 61, 100
3, 149520, Note_on_c, 4, 60, 0
3, 149520, Note_on_c, 4, 61, 0
3, 149760, Note_on_c, 4, 60, 100
3, 149760, Note_on_c, 4, 61, 100
3, 149760, Note_on_c, 0, 69, 100
3, 150000, Note_on_c, 4, 60, 0
3, 150000, Note_on_c, 4, 61, 0
3, 151200, Note_on_c, 4, 61, 100
3, 151440, Note_on_c, 4, 61, 0
3, 151440, Note_on_c, 4, 61, 100
3, 151680, Note_on_c, 4, 61, 0
3, 151680, Note_on_c, 4, 61, 100
3, 151920, Note_on_c, 4, 61, 0
3, 152160, Note_on_c, 4, 60, 100
3, 152160, Note_on_c, 4, 61, 100
3, 152400, Note_on_c, 4, 60, 0
3, 152400, Note_on_c, 4, 61, 0
3, 152640, Note_on_c, 0, 69, 0
3, 152640, Note_on_c, 4, 61, 100
3, 152880, Note_on_c, 4, 61, 0
3, 153120, Note_on_c, 4, 60, 100
3, 153120, Note_on_c, 4, 61, 100
3, 153120, Note_on_c, 0, 70, 100
3, 153360, Note_on_c, 4, 60, 0
3, 153360, Note_on_c, 4, 61, 0
3, 153360, Note_on_c, 0, 70, 0
3, 153600, Note_on_c, 4, 60, 100
3, 153600, Note_on_c, 4, 61, 100
3, 153600, Note_on_c, 0, 70, 100
3, 153840, Note_on_c, 4, 60, 0
3, 153840, Note_on_c, 4, 61, 0
3, 155280, Note_on_c, 0, 70, 0
3, 155520, Note_on_c, 4, 60, 100
3, 155520, Note_on_c, 4, 61, 100
3, 155520, Note_on_c, 0, 68, 100
3, 155760, Note_on_c, 4, 60, 0
3, 155760, Note_on_c, 4, 61, 0
3, 155760, Note_on_c, 0, 68, 0
3, 156000, Note_on_c, 4, 60, 100
3, 156000, Note_on_c, 4, 61, 100
3, 156240, Note_on_c, 4, 60, 0
3, 156240, Note_on_c, 4, 61, 0
3, 156480, Note_on_c, 4, 60, 100
3, 156480, Note_on_c, 4, 61, 100
3, 156480, Note_on_c, 0, 69, 100
3, 156720, Note_on_c, 4, 60, 0
3, 156720, Note_on_c, 4, 61, 0
3, 156720, Note_on_c, 0, 69, 0
3, 156960, Note_on_c, 4, 60, 100
3, 156960, Note_on_c, 4, 61, 100
3, 157200, Note_on_c, 4, 60, 0
3, 157200, Note_on_c, 4, 61, 0
3, 157440, Note_on_c, 4, 60, 100
3, 157440, Note_on_c, 4, 61, 100
3, 157440, Note_on_c, 0, 70, 100
3, 157680, Note_on_c, 4, 60, 0
3, 157680, Note_on_c, 4, 61, 0
3, 157680, Note_on_c, 0, 70, 0
3, 158400, Note_on_c, 4, 61, 100
3, 158400, Note_on_c, 0, 70, 100
3, 158640, Note_on_c, 4, 61, 0
3, 158640, Note_on_c, 0, 70, 0
3, 158880, Note_on_c, 4, 61, 100
3, 159120, Note_on_c, 4, 61, 0
3, 159840, Note_on_c, 4, 60, 100
3, 159840, Note_on_c, 4, 61, 100
3, 159840, Note_on_c, 0, 69, 100
3, 160080, Note_on_c, 4, 60, 0
3, 160080, Note_on_c, 4, 61, 0
3, 160080, Note_on_c, 0, 69, 0
3, 160320, Note_on_c, 4, 61, 100
3, 160560, Note_on_c, 4, 61, 0
3, 160800, Note_on_c, 4, 60, 100
3, 161040, Note_on_c, 4, 60, 0
3, 161280, Note_on_c, 4, 60, 100
3, 161280, Note_on_c, 4, 61, 100
3, 161280, Note_on_c, 0, 68, 100
3, 161520, Note_on_c, 4, 60, 0
3, 161520, Note_on_c, 4, 61, 0
3, 163200, Note_on_c, 4, 61, 100
3, 163200, Note_on_c, 4, 60, 100
3, 163440, Note_on_c, 4, 61, 0
3, 163440, Note_on_c, 4, 60, 0
3, 163680, Note_on_c, 4, 60, 100
3, 163680, Note_on_c, 4, 61, 100
3, 163920, Note_on_c, 4, 60, 0
3, 163920, Note_on_c, 4, 61, 0
3, 164160, Note_on_c, 4, 61, 100
3, 164400, Note_on_c, 4, 61, 0
3, 164640, Note_on_c, 0, 68, 0
3, 164640, Note_on_c, 4, 60, 100
3, 164640, Note_on_c, 4, 61, 100
3, 164880, Note_on_c, 4, 60, 0
3, 164880, Note_on_c, 4, 61, 0
3, 165120, Note_on_c, 4, 60, 100
3, 165120, Note_on_c, 4, 61, 100
3, 165120, Note_on_c, 0, 70, 100
3, 165360, Note_on_c, 4, 60, 0
3, 165360, Note_on_c, 4, 61, 0
3, 166800, Note_on_c, 4, 61, 100
3, 167040, Note_on_c, 4, 61, 0
3, 167040, Note_on_c, 4, 61, 100
3, 167280, Note_on_c, 4, 61, 0
3, 167520, Note_on_c, 4, 60, 100
3, 167520, Note_on_c, 4, 61, 100
3, 167760, Note_on_c, 4, 60, 0
3, 167760, Note_on_c, 4, 61, 0
3, 168000, Note_on_c, 4, 61, 100
3, 168240, Note_on_c, 4, 61, 0
3, 168480, Note_on_c, 0, 70, 0
3, 168480, Note_on_c, 4, 60, 100
3, 168480, Note_on_c, 4, 61, 100
3, 168720, Note_on_c, 4, 60, 0
3, 168720, Note_on_c, 4, 61, 0
3, 168960, Note_on_c, 4, 60, 100
3, 168960, Note_on_c, 4, 61, 100
3, 168960, Note_on_c, 0, 69, 100
3, 169200, Note_on_c, 4, 60, 0
3, 169200, Note_on_c, 4, 61, 0
3, 170640, Note_on_c, 4, 61, 100
3, 170880, Note_on_c, 4, 61, 0
3, 170880, Note_on_c, 4, 61, 100
3, 171120, Note_on_c, 4, 61, 0
3, 171360, Note_on_c, 4, 60, 100
3, 171360, Note_on_c, 4, 61, 100
3, 171600, Note_on_c, 4, 60, 0
3, 171600, Note_on_c, 4, 61, 0
3, 171840, Note_on_c, 4, 61, 100
3, 172080, Note_on_c, 4, 61, 0
3, 172320, Note_on_c, 0, 69, 0
3, 172320, Note_on_c, 4, 60, 100
3, 172320, Note_on_c, 4, 61, 100
3, 172560, Note_on_c, 4, 60, 0
3, 172560, Note_on_c, 4, 61, 0
3, 172560, Note_on_c, 4, 61, 100
3, 172800, Note_on_c, 4, 61, 0
3, 172800, Note_on_c, 4, 60, 100
3, 172800, Note_on_c, 4, 61, 100
3, 172800, Note_on_c, 0, 70, 100
3, 173040, Note_on_c, 4, 60, 0
3, 173040, Note_on_c, 4, 61, 0
3, 175200, Note_on_c, 4, 60, 100
3, 175200, Note_on_c, 4, 61, 100
3, 175440, Note_on_c, 4, 60, 0
3, 175440, Note_on_c, 4, 61, 0
3, 175680, Note_on_c, 4, 61, 100
3, 175920, Note_on_c, 4, 61, 0
3, 176160, Note_on_c, 4, 60, 100
3, 176160, Note_on_c, 4, 61, 100
3, 176400, Note_on_c, 4, 60, 0
3, 176400, Note_on_c, 4, 61, 0
3, 176640, Note_on_c, 0, 70, 0
3, 176640, Note_on_c, 4, 60, 100
3, 176640, Note_on_c, 4, 61, 100
3, 176640, Note_on_c, 0, 70, 100
3, 176880, Note_on_c, 4, 60, 0
3, 176880, Note_on_c, 4, 61, 0
3, 176880, Note_on_c, 0, 70, 0
3, 176880, Note_on_c, 4, 61, 100
3, 177120, Note_on_c, 4, 61, 0
3, 177120, Note_on_c, 4, 61, 100
3, 177120, Note_on_c, 0, 70, 100
3, 177360, Note_on_c, 4, 61, 0
3, 177360, Note_on_c, 0, 70, 0
3, 177360, Note_on_c, 4, 60, 100
3, 177360, Note_on_c, 4, 61, 100
3, 177600, Note_on_c, 4, 60, 0
3, 177600, Note_on_c, 4, 61, 0
3, 177600, Note_on_c, 4, 61, 100
3, 177600, Note_on_c, 0, 70, 100
3, 177840, Note_on_c, 4, 61, 0
3, 177840, Note_on_c, 0, 70, 0
3, 178320, Note_on_c, 4, 60, 100
3, 178560, Note_on_c, 4, 60, 0
3, 178560, Note_on_c, 4, 60, 100
3, 178560, Note_on_c, 4, 61, 100
3, 178560, Note_on_c, 0, 69, 100
3, 178800, Note_on_c, 4, 60, 0
3, 178800, Note_on_c, 4, 61, 0
3, 178800, Note_on_c, 0, 69, 0
3, 178800, Note_on_c, 4, 61, 100
3, 179040, Note_on_c, 4, 61, 0
3, 179040, Note_on_c, 4, 61, 100
3, 179040, Note_on_c, 0, 69, 100
3, 179280, Note_on_c, 4, 61, 0
3, 179280, Note_on_c, 0, 69, 0
3, 179280, Note_on_c, 4, 60, 100
3, 179280, Note_on_c, 4, 61, 100
3, 179520, Note_on_c, 4, 60, 0
3, 179520, Note_on_c, 4, 61, 0
3, 179520, Note_on_c, 4, 61, 100
3, 179520, Note_on_c, 0, 69, 100
3, 179760, Note_on_c, 4, 61, 0
3, 179760, Note_on_c, 0, 69, 0
3, 180240, Note_on_c, 4, 60, 100
3, 180480, Note_on_c, 4, 60, 0
3, 180480, Note_on_c, 4, 60, 100
3, 180480, Note_on_c, 4, 61, 100
3, 180480, Note_on_c, 0, 68, 100
3, 180720, Note_on_c, 4, 60, 0
3, 180720, Note_on_c, 4, 61, 0
3, 180720, Note_on_c, 0, 68, 0
3, 180960, Note_on_c, 4, 61, 100
3, 180960, Note_on_c, 0, 68, 100
3, 181200, Note_on_c, 4, 61, 0
3, 181200, Note_on_c, 0, 68, 0
3, 181200, Note_on_c, 4, 60, 100
3, 181440, Note_on_c, 4, 60, 0
3, 181440, Note_on_c, 4, 61, 100
3, 181440, Note_on_c, 0, 68, 100
3, 181680, Note_on_c, 4, 61, 0
3, 181680, Note_on_c, 0, 68, 0
3, 181920, Note_on_c, 4, 61, 100
3, 181920, Note_on_c, 0, 68, 100
3, 182160, Note_on_c, 4, 61, 0
3, 182160, Note_on_c, 0, 68, 0
3, 182160, Note_on_c, 4, 60, 100
3, 182400, Note_on_c, 4, 60, 0
3, 182400, Note_on_c, 4, 61, 100
3, 182400, Note_on_c, 0, 68, 100
3, 182640, Note_on_c, 4, 61, 0
3, 182640, Note_on_c, 0, 68, 0
3, 182880, Note_on_c, 4, 61, 100
3, 182880, Note_on_c, 0, 68, 100
3, 183120, Note_on_c, 4, 61, 0
3, 183120, Note_on_c, 0, 68, 0
3, 183120, Note_on_c, 4, 60, 100
3, 183360, Note_on_c, 4, 60, 0
3, 183360, Note_on_c, 4, 61, 100
3, 183360, Note_on_c, 0, 68, 100
3, 183600, Note_on_c, 4, 61, 0
3, 183600, Note_on_c, 0, 68, 0
3, 183840, Note_on_c, 4, 61, 100
3, 183840, Note_on_c, 0, 69, 100
3, 184080, Note_on_c, 4, 61, 0
3, 184080, Note_on_c, 0, 69, 0
3, 184320, Note_on_c, 4, 60, 100
3, 184320, Note_on_c, 4, 61, 100
3, 184320, Note_on_c, 0, 70, 100
3, 184560, Note_on_c, 4, 60, 0
3, 184560, Note_on_c, 4, 61, 0
3, 184560, Note_on_c, 0, 70, 0
3, 184560, Note_on_c, 4, 61, 100
3, 184800, Note_on_c, 4, 61, 0
3, 184800, Note_on_c, 4, 61, 100
3, 184800, Note_on_c, 0, 70, 100
3, 185040, Note_on_c, 4, 61, 0
3, 185040, Note_on_c, 0, 70, 0
3, 185040, Note_on_c, 4, 60, 100
3, 185040, Note_on_c, 4, 61, 100
3, 185280, Note_on_c, 4, 60, 0
3, 185280, Note_on_c, 4, 61, 0
3, 185280, Note_on_c, 4, 61, 100
3, 185280, Note_on_c, 0, 70, 100
3, 185520, Note_on_c, 4, 61, 0
3, 185520, Note_on_c, 0, 70, 0
3, 186000, Note_on_c, 4, 60, 100
3, 186240, Note_on_c, 4, 60, 0
3, 186240, Note_on_c, 4, 60, 100
3, 186240, Note_on_c, 4, 61, 100
3, 186240, Note_on_c, 0, 69, 100
3, 186480, Note_on_c, 4, 60, 0
3, 186480, Note_on_c, 4, 61, 0
3, 186480, Note_on_c, 0, 69, 0
3, 186480, Note_on_c, 4, 61, 100
3, 186720, Note_on_c, 4, 61, 0
3, 186720, Note_on_c, 4, 61, 100
3, 186720, Note_on_c, 0, 69, 100
3, 186960, Note_on_c, 4, 61, 0
3, 186960, Note_on_c, 0, 69, 0
3, 186960, Note_on_c, 4, 60, 100
3, 186960, Note_on_c, 4, 61, 100
3, 187200, Note_on_c, 4, 60, 0
3, 187200, Note_on_c, 4, 61, 0
3, 187200, Note_on_c, 4, 61, 100
3, 187200, Note_on_c, 0, 69, 100
3, 187440, Note_on_c, 4, 61, 0
3, 187440, Note_on_c, 0, 69, 0
3, 187920, Note_on_c, 4, 60, 100
3, 188160, Note_on_c, 4, 60, 0
3, 188160, Note_on_c, 4, 60, 100
3, 188160, Note_on_c, 4, 61, 100
3, 188160, Note_on_c, 0, 68, 100
3, 188400, Note_on_c, 4, 60, 0
3, 188400, Note_on_c, 4, 61, 0
3, 188400, Note_on_c, 0, 68, 0
3, 188640, Note_on_c, 4, 61, 100
3, 188640, Note_on_c, 0, 68, 100
3, 188880, Note_on_c, 4, 61, 0
3, 188880, Note_on_c, 0, 68, 0
3, 188880, Note_on_c, 4, 60, 100
3, 189120, Note_on_c, 4, 60, 0
3, 189120, Note_on_c, 4, 61, 100
3, 189120, Note_on_c, 0, 68, 100
3, 189360, Note_on_c, 4, 61, 0
3, 189360, Note_on_c, 0, 68, 0
3, 189600, Note_on_c, 4, 61, 100
3, 189600, Note_on_c, 0, 68, 100
3, 189840, Note_on_c, 4, 61, 0
3, 189840, Note_on_c, 0, 68, 0
3, 189840, Note_on_c, 4, 60, 100
3, 190080, Note_on_c, 4, 60, 0
3, 190080, Note_on_c, 4, 61, 100
3, 190080, Note_on_c, 0, 68, 100
3, 190320, Note_on_c, 4, 61, 0
3, 190320, Note_on_c, 0, 68, 0
3, 190560, Note_on_c, 4, 61, 100
3, 190560, Note_on_c, 0, 68, 100
3, 190800, Note_on_c, 4, 61, 0
3, 190800, Note_on_c, 0, 68, 0
3, 190800, Note_on_c, 4, 60, 100
3, 191040, Note_on_c, 4, 60, 0
3, 191040, Note_on_c, 4, 61, 100
3, 191040, Note_on_c, 0, 68, 100
3, 191280, Note_on_c, 4, 61, 0
3, 191280, Note_on_c, 0, 68, 0
3, 191520, Note_on_c, 4, 61, 100
3, 191520, Note_on_c, 0, 69, 100
3, 191760, Note_on_c, 4, 61, 0
3, 191760, Note_on_c, 0, 69, 0
3, 191760, Note_on_c, 4, 60, 100
3, 192000, Note_on_c, 4, 60, 0
3, 192000, Note_on_c, 4, 60, 100
3, 192000, Note_on_c, 4, 61, 100
3, 192000, Note_on_c, 0, 70, 100
3, 192240, Note_on_c, 4, 60, 0
3, 192240, Note_on_c, 4, 61, 0
3, 192240, Note_on_c, 0, 70, 0
3, 192240, Note_on_c, 4, 61, 100
3, 192480, Note_on_c, 4, 61, 0
3, 192480, Note_on_c, 4, 61, 100
3, 192480, Note_on_c, 0, 70, 100
3, 192720, Note_on_c, 4, 61, 0
3, 192720, Note_on_c, 0, 70, 0
3, 192720, Note_on_c, 4, 60, 100
3, 192720, Note_on_c, 4, 61, 100
3, 192960, Note_on_c, 4, 60, 0
3, 192960, Note_on_c, 4, 61, 0
3, 192960, Note_on_c, 4, 61, 100
3, 192960, Note_on_c, 0, 70, 100
3, 193200, Note_on_c, 4, 61, 0
3, 193200, Note_on_c, 0, 70, 0
3, 193680, Note_on_c, 4, 60, 100
3, 193920, Note_on_c, 4, 60, 0
3, 193920, Note_on_c, 4, 60, 100
3, 193920, Note_on_c, 4, 61, 100
3, 193920, Note_on_c, 0, 69, 100
3, 194160, Note_on_c, 4, 60, 0
3, 194160, Note_on_c, 4, 61, 0
3, 194160, Note_on_c, 0, 69, 0
3, 194160, Note_on_c, 4, 61, 100
3, 194400, Note_on_c, 4, 61, 0
3, 194400, Note_on_c, 4, 61, 100
3, 194400, Note_on_c, 0, 69, 100
3, 194640, Note_on_c, 4, 61, 0
3, 194640, Note_on_c, 0, 69, 0
3, 194640, Note_on_c, 4, 60, 100
3, 194640, Note_on_c, 4, 61, 100
3, 194880, Note_on_c, 4, 60, 0
3, 194880, Note_on_c, 4, 61, 0
3, 194880, Note_on_c, 4, 61, 100
3, 194880, Note_on_c, 0, 69, 100
3, 195120, Note_on_c, 4, 61, 0
3, 195120, Note_on_c, 0, 69, 0
3, 195600, Note_on_c, 4, 60, 100
3, 195840, Note_on_c, 4, 60, 0
3, 195840, Note_on_c, 4, 60, 100
3, 195840, Note_on_c, 4, 61, 100
3, 195840, Note_on_c, 0, 68, 100
3, 196080, Note_on_c, 4, 60, 0
3, 196080, Note_on_c, 4, 61, 0
3, 196080, Note_on_c, 0, 68, 0
3, 196320, Note_on_c, 4, 61, 100
3, 196320, Note_on_c, 0, 68, 100
3, 196560, Note_on_c, 4, 61, 0
3, 196560, Note_on_c, 0, 68, 0
3, 196560, Note_on_c, 4, 60, 100
3, 196800, Note_on_c, 4, 60, 0
3, 196800, Note_on_c, 4, 61, 100
3, 196800, Note_on_c, 0, 68, 100
3, 197040, Note_on_c, 4, 61, 0
3, 197040, Note_on_c, 0, 68, 0
3, 197280, Note_on_c, 4, 61, 100
3, 197280, Note_on_c, 0, 68, 100
3, 197520, Note_on_c, 4, 61, 0
3, 197520, Note_on_c, 0, 68, 0
3, 197520, Note_on_c, 4, 60, 100
3, 197760, Note_on_c, 4, 60, 0
3, 197760, Note_on_c, 4, 61, 100
3, 197760, Note_on_c, 0, 68, 100
3, 198000, Note_on_c, 4, 61, 0
3, 198000, Note_on_c, 0, 68, 0
3, 198240, Note_on_c, 4, 61, 100
3, 198240, Note_on_c, 0, 68, 100
3, 198480, Note_on_c, 4, 61, 0
3, 198480, Note_on_c, 0, 68, 0
3, 198480, Note_on_c, 4, 60, 100
3, 198720, Note_on_c, 4, 60, 0
3, 198720, Note_on_c, 4, 61, 100
3, 198720, Note_on_c, 0, 68, 100
3, 198960, Note_on_c, 4, 61, 0
3, 198960, Note_on_c, 0, 68, 0
3, 199200, Note_on_c, 4, 61, 100
3, 199200, Note_on_c, 0, 69, 100
3, 199440, Note_on_c, 4, 61, 0
3, 199440, Note_on_c, 0, 69, 0
3, 199680, Note_on_c, 4, 60, 100
3, 199680, Note_on_c, 4, 61, 100
3, 199680, Note_on_c, 0, 70, 100
3, 199920, Note_on_c, 4, 60, 0
3, 199920, Note_on_c, 4, 61, 0
3, 200400, Note_on_c, 4, 60, 100
3, 200400, Note_on_c, 4, 61, 100
3, 200640, Note_on_c, 0, 70, 0
3, 200640, Note_on_c, 4, 60, 0
3, 200640, Note_on_c, 4, 61, 0
3, 200640, Note_on_c, 4, 61, 100
3, 200640, Note_on_c, 0, 70, 100
3, 200880, Note_on_c, 4, 61, 0
3, 200880, Note_on_c, 0, 70, 0
3, 201360, Note_on_c, 4, 60, 100
3, 201360, Note_on_c, 4, 61, 100
3, 201600, Note_on_c, 4, 60, 0
3, 201600, Note_on_c, 4, 61, 0
3, 201600, Note_on_c, 4, 60, 100
3, 201840, Note_on_c, 4, 60, 0
3, 201840, Note_on_c, 4, 61, 100
3, 201840, Note_on_c, 0, 70, 100
3, 202080, Note_on_c, 4, 61, 0
3, 202080, Note_on_c, 0, 70, 0
3, 202080, Note_on_c, 4, 61, 100
3, 202320, Note_on_c, 4, 61, 0
3, 202320, Note_on_c, 4, 60, 100
3, 202560, Note_on_c, 4, 60, 0
3, 202560, Note_on_c, 4, 61, 100
3, 202560, Note_on_c, 0, 70, 100
3, 202800, Note_on_c, 4, 61, 0
3, 202800, Note_on_c, 0, 70, 0
3, 202800, Note_on_c, 4, 61, 100
3, 203040, Note_on_c, 4, 61, 0
3, 203040, Note_on_c, 4, 61, 100
3, 203040, Note_on_c, 0, 68, 100
3, 203280, Note_on_c, 4, 61, 0
3, 203280, Note_on_c, 0, 68, 0
3, 203280, Note_on_c, 4, 60, 100
3, 203520, Note_on_c, 4, 60, 0
3, 203520, Note_on_c, 4, 60, 100
3, 203520, Note_on_c, 4, 61, 100
3, 203520, Note_on_c, 0, 69, 100
3, 203760, Note_on_c, 4, 60, 0
3, 203760, Note_on_c, 4, 61, 0
3, 204960, Note_on_c, 4, 61, 100
3, 205200, Note_on_c, 4, 61, 0
3, 206400, Note_on_c, 0, 69, 0
3, 206400, Note_on_c, 4, 61, 100
3, 206400, Note_on_c, 0, 69, 100
3, 206640, Note_on_c, 4, 61, 0
3, 206640, Note_on_c, 0, 69, 0
3, 206880, Note_on_c, 4, 61, 100
3, 207120, Note_on_c, 4, 61, 0
3, 207360, Note_on_c, 4, 60, 100
3, 207360, Note_on_c, 4, 61, 100
3, 207600, Note_on_c, 4, 60, 0
3, 207600, Note_on_c, 4, 61, 0
3, 208320, Note_on_c, 0, 70, 100
3, 208560, Note_on_c, 0, 70, 0
3, 209040, Note_on_c, 4, 61, 100
3, 209280, Note_on_c, 4, 61, 0
3, 209280, Note_on_c, 4, 61, 100
3, 209520, Note_on_c, 4, 61, 0
3, 209520, Note_on_c, 0, 69, 100
3, 209760, Note_on_c, 0, 69, 0
3, 209760, Note_on_c, 4, 60, 100
3, 209760, Note_on_c, 4, 61, 100
3, 210000, Note_on_c, 4, 60, 0
3, 210000, Note_on_c, 4, 61, 0
3, 210240, Note_on_c, 4, 61, 100
3, 210480, Note_on_c, 4, 61, 0
3, 210480, Note_on_c, 4, 61, 100
3, 210720, Note_on_c, 4, 61, 0
3, 210720, Note_on_c, 4, 60, 100
3, 210720, Note_on_c, 4, 61, 100
3, 210720, Note_on_c, 0, 69, 100
3, 210960, Note_on_c, 4, 60, 0
3, 210960, Note_on_c, 4, 61, 0
3, 211200, Note_on_c, 4, 60, 100
3, 211200, Note_on_c, 4, 61, 100
3, 211440, Note_on_c, 4, 60, 0
3, 211440, Note_on_c, 4, 61, 0
3, 212400, Note_on_c, 0, 69, 0
3, 212640, Note_on_c, 0, 68, 100
3, 212880, Note_on_c, 0, 68, 0
3, 212880, Note_on_c, 4, 61, 100
3, 213120, Note_on_c, 4, 61, 0
3, 213120, Note_on_c, 4, 61, 100
3, 213360, Note_on_c, 4, 61, 0
3, 213600, Note_on_c, 4, 60, 100
3, 213600, Note_on_c, 4, 61, 100
3, 213840, Note_on_c, 4, 60, 0
3, 213840, Note_on_c, 4, 61, 0
3, 214080, Note_on_c, 0, 69, 100
3, 214320, Note_on_c, 0, 69, 0
3, 214560, Note_on_c, 4, 60, 100
3, 214560, Note_on_c, 4, 61, 100
3, 214560, Note_on_c, 0, 70, 100
3, 214800, Note_on_c, 4, 60, 0
3, 214800, Note_on_c, 4, 61, 0
3, 214800, Note_on_c, 0, 70, 0
3, 214800, Note_on_c, 4, 61, 100
3, 215040, Note_on_c, 4, 61, 0
3, 215040, Note_on_c, 4, 60, 100
3, 215040, Note_on_c, 4, 61, 100
3, 215280, Note_on_c, 4, 60, 0
3, 215280, Note_on_c, 4, 61, 0
3, 215760, Note_on_c, 4, 61, 100
3, 216000, Note_on_c, 4, 61, 0
3, 216000, Note_on_c, 4, 61, 100
3, 216240, Note_on_c, 4, 61, 0
3, 216480, Note_on_c, 0, 68, 100
3, 216720, Note_on_c, 0, 68, 0
3, 216960, Note_on_c, 4, 60, 100
3, 216960, Note_on_c, 4, 61, 100
3, 217200, Note_on_c, 4, 60, 0
3, 217200, Note_on_c, 4, 61, 0
3, 217440, Note_on_c, 4, 60, 100
3, 217440, Note_on_c, 4, 61, 100
3, 217440, Note_on_c, 0, 69, 100
3, 217680, Note_on_c, 4, 60, 0
3, 217680, Note_on_c, 4, 61, 0
3, 217680, Note_on_c, 0, 69, 0
3, 217920, Note_on_c, 4, 60, 100
3, 217920, Note_on_c, 4, 61, 100
3, 217920, Note_on_c, 0, 70, 100
3, 218160, Note_on_c, 4, 60, 0
3, 218160, Note_on_c, 4, 61, 0
3, 218160, Note_on_c, 0, 70, 0
3, 218400, Note_on_c, 4, 60, 100
3, 218400, Note_on_c, 4, 61, 100
3, 218400, Note_on_c, 0, 70, 100
3, 218640, Note_on_c, 4, 60, 0
3, 218640, Note_on_c, 4, 61, 0
3, 218880, Note_on_c, 4, 60, 100
3, 218880, Note_on_c, 4, 61, 100
3, 219120, Note_on_c, 4, 60, 0
3, 219120, Note_on_c, 4, 61, 0
3, 219840, Note_on_c, 0, 70, 0
3, 219840, Note_on_c, 4, 61, 100
3, 220080, Note_on_c, 4, 61, 0
3, 220320, Note_on_c, 4, 61, 100
3, 220320, Note_on_c, 0, 68, 100
3, 220560, Note_on_c, 4, 61, 0
3, 220560, Note_on_c, 0, 68, 0
3, 220800, Note_on_c, 0, 68, 100
3, 221040, Note_on_c, 0, 68, 0
3, 221280, Note_on_c, 4, 60, 100
3, 221280, Note_on_c, 4, 61, 100
3, 221520, Note_on_c, 4, 60, 0
3, 221520, Note_on_c, 4, 61, 0
3, 221760, Note_on_c, 4, 60, 100
3, 221760, Note_on_c, 4, 61, 100
3, 221760, Note_on_c, 0, 69, 100
3, 222000, Note_on_c, 4, 60, 0
3, 222000, Note_on_c, 4, 61, 0
3, 222000, Note_on_c, 0, 69, 0
3, 222240, Note_on_c, 0, 70, 100
3, 222480, Note_on_c, 0, 70, 0
3, 222720, Note_on_c, 4, 60, 100
3, 222720, Note_on_c, 4, 61, 100
3, 222960, Note_on_c, 4, 60, 0
3, 222960, Note_on_c, 4, 61, 0
3, 224160, Note_on_c, 0, 70, 100
3, 224400, Note_on_c, 4, 61, 100
3, 224640, Note_on_c, 4, 61, 0
3, 224640, Note_on_c, 4, 60, 100
3, 224640, Note_on_c, 4, 61, 100
3, 224880, Note_on_c, 4, 60, 0
3, 224880, Note_on_c, 4, 61, 0
3, 225120, Note_on_c, 4, 60, 100
3, 225120, Note_on_c, 4, 61, 100
3, 225360, Note_on_c, 4, 60, 0
3, 225360, Note_on_c, 4, 61, 0
3, 225600, Note_on_c, 4, 61, 100
3, 225840, Note_on_c, 0, 70, 0
3, 225840, Note_on_c, 4, 61, 0
3, 226080, Note_on_c, 4, 60, 100
3, 226080, Note_on_c, 4, 61, 100
3, 226080, Note_on_c, 0, 70, 100
3, 226200, Note_on_c, 0, 70, 0
3, 226320, Note_on_c, 4, 60, 0
3, 226320, Note_on_c, 4, 61, 0
3, 226560, Note_on_c, 4, 60, 100
3, 226560, Note_on_c, 4, 61, 100
3, 226560, Note_on_c, 0, 70, 100
3, 226680, Note_on_c, 0, 70, 0
3, 226800, Note_on_c, 4, 60, 0
3, 226800, Note_on_c, 4, 61, 0
3, 227040, Note_on_c, 0, 70, 100
3, 227160, Note_on_c, 0, 70, 0
3, 227520, Note_on_c, 0, 69, 100
3, 227640, Note_on_c, 0, 69, 0
3, 228000, Note_on_c, 0, 69, 100
3, 228120, Note_on_c, 0, 69, 0
3, 228240, Note_on_c, 4, 61, 100
3, 228480, Note_on_c, 4, 61, 0
3, 228480, Note_on_c, 4, 60, 100
3, 228480, Note_on_c, 4, 61, 100
3, 228480, Note_on_c, 0, 68, 100
3, 228720, Note_on_c, 4, 60, 0
3, 228720, Note_on_c, 4, 61, 0
3, 228960, Note_on_c, 4, 60, 100
3, 228960, Note_on_c, 4, 61, 100
3, 229200, Note_on_c, 4, 60, 0
3, 229200, Note_on_c, 4, 61, 0
3, 229440, Note_on_c, 0, 68, 0
3, 229920, Note_on_c, 4, 60, 100
3, 229920, Note_on_c, 0, 68, 100
3, 230160, Note_on_c, 4, 60, 0
3, 230400, Note_on_c, 4, 60, 100
3, 230400, Note_on_c, 4, 61, 100
3, 230640, Note_on_c, 4, 60, 0
3, 230640, Note_on_c, 4, 61, 0
3, 231120, Note_on_c, 4, 61, 100
3, 231360, Note_on_c, 0, 68, 0
3, 231360, Note_on_c, 4, 61, 0
3, 231360, Note_on_c, 4, 61, 100
3, 231360, Note_on_c, 0, 69, 100
3, 231600, Note_on_c, 4, 61, 0
3, 232080, Note_on_c, 4, 61, 100
3, 232320, Note_on_c, 0, 69, 0
3, 232320, Note_on_c, 4, 61, 0
3, 232320, Note_on_c, 4, 61, 100
3, 232320, Note_on_c, 0, 70, 100
3, 232560, Note_on_c, 4, 61, 0
3, 232800, Note_on_c, 4, 60, 100
3, 232800, Note_on_c, 4, 61, 100
3, 233040, Note_on_c, 0, 70, 0
3, 233040, Note_on_c, 4, 60, 0
3, 233040, Note_on_c, 4, 61, 0
3, 233280, Note_on_c, 0, 68, 100
3, 233520, Note_on_c, 0, 68, 0
3, 233760, Note_on_c, 4, 60, 100
3, 233760, Note_on_c, 4, 61, 100
3, 234000, Note_on_c, 4, 60, 0
3, 234000, Note_on_c, 4, 61, 0
3, 234000, Note_on_c, 4, 61, 100
3, 234240, Note_on_c, 4, 61, 0
3, 234240, Note_on_c, 4, 60, 100
3, 234240, Note_on_c, 4, 61, 100
3, 234240, Note_on_c, 0, 69, 100
3, 234480, Note_on_c, 4, 60, 0
3, 234480, Note_on_c, 4, 61, 0
3, 234480, Note_on_c, 0, 69, 0
3, 235200, Note_on_c, 4, 61, 100
3, 235200, Note_on_c, 0, 69, 100
3, 235440, Note_on_c, 4, 61, 0
3, 235440, Note_on_c, 0, 69, 0
3, 235920, Note_on_c, 4, 61, 100
3, 236160, Note_on_c, 4, 61, 0
3, 236160, Note_on_c, 4, 61, 100
3, 236160, Note_on_c, 0, 70, 100
3, 236400, Note_on_c, 4, 61, 0
3, 236640, Note_on_c, 4, 61, 100
3, 236880, Note_on_c, 4, 61, 0
3, 237120, Note_on_c, 4, 61, 100
3, 237360, Note_on_c, 4, 61, 0
3, 237600, Note_on_c, 4, 61, 100
3, 237840, Note_on_c, 0, 70, 0
3, 237840, Note_on_c, 4, 61, 0
3, 237840, Note_on_c, 4, 61, 100
3, 238080, Note_on_c, 4, 61, 0
3, 238080, Note_on_c, 4, 60, 100
3, 238080, Note_on_c, 4, 61, 100
3, 238080, Note_on_c, 0, 70, 100
3, 238320, Note_on_c, 4, 60, 0
3, 238320, Note_on_c, 4, 61, 0
3, 238320, Note_on_c, 0, 70, 0
3, 238320, Note_on_c, 4, 61, 100
3, 238560, Note_on_c, 4, 61, 0
3, 238560, Note_on_c, 4, 61, 100
3, 238560, Note_on_c, 0, 70, 100
3, 238800, Note_on_c, 4, 61, 0
3, 238800, Note_on_c, 0, 70, 0
3, 238800, Note_on_c, 4, 60, 100
3, 238800, Note_on_c, 4, 61, 100
3, 239040, Note_on_c, 4, 60, 0
3, 239040, Note_on_c, 4, 61, 0
3, 239040, Note_on_c, 4, 61, 100
3, 239040, Note_on_c, 0, 70, 100
3, 239280, Note_on_c, 4, 61, 0
3, 239280, Note_on_c, 0, 70, 0
3, 239760, Note_on_c, 4, 60, 100
3, 240000, Note_on_c, 4, 60, 0
3, 240000, Note_on_c, 4, 60, 100
3, 240000, Note_on_c, 4, 61, 100
3, 240000, Note_on_c, 0, 69, 100
3, 240240, Note_on_c, 4, 60, 0
3, 240240, Note_on_c, 4, 61, 0
3, 240240, Note_on_c, 0, 69, 0
3, 240240, Note_on_c, 4, 61, 100
3, 240480, Note_on_c, 4, 61, 0
3, 240480, Note_on_c, 4, 61, 100
3, 240480, Note_on_c, 0, 69, 100
3, 240720, Note_on_c, 4, 61, 0
3, 240720, Note_on_c, 0, 69, 0
3, 240720, Note_on_c, 4, 60, 100
3, 240720, Note_on_c, 4, 61, 100
3, 240960, Note_on_c, 4, 60, 0
3, 240960, Note_on_c, 4, 61, 0
3, 240960, Note_on_c, 4, 61, 100
3, 240960, Note_on_c, 0, 69, 100
3, 241200, Note_on_c, 4, 61, 0
3, 241200, Note_on_c, 0, 69, 0
3, 241920, Note_on_c, 4, 60, 100
3, 241920, Note_on_c, 4, 61, 100
3, 241920, Note_on_c, 0, 68, 100
3, 242160, Note_on_c, 4, 60, 0
3, 242160, Note_on_c, 4, 61, 0
3, 242160, Note_on_c, 0, 68, 0
3, 242400, Note_on_c, 4, 61, 100
3, 242640, Note_on_c, 4, 61, 0
3, 242640, Note_on_c, 4, 60, 100
3, 242880, Note_on_c, 4, 60, 0
3, 242880, Note_on_c, 4, 61, 100
3, 242880, Note_on_c, 0, 70, 100
3, 243120, Note_on_c, 4, 61, 0
3, 243360, Note_on_c, 4, 61, 100
3, 243600, Note_on_c, 4, 61, 0
3, 243600, Note_on_c, 4, 60, 100
3, 243840, Note_on_c, 0, 70, 0
3, 243840, Note_on_c, 4, 60, 0
3, 243840, Note_on_c, 4, 61, 100
3, 244080, Note_on_c, 4, 61, 0
3, 244320, Note_on_c, 4, 61, 100
3, 244320, Note_on_c, 0, 68, 100
3, 244560, Note_on_c, 4, 61, 0
3, 244560, Note_on_c, 0, 68, 0
3, 244560, Note_on_c, 4, 60, 100
3, 244800, Note_on_c, 4, 60, 0
3, 244800, Note_on_c, 4, 61, 100
3, 245040, Note_on_c, 4, 61, 0
3, 245280, Note_on_c, 4, 61, 100
3, 245280, Note_on_c, 0, 68, 100
3, 245520, Note_on_c, 4, 61, 0
3, 245520, Note_on_c, 0, 68, 0
3, 245760, Note_on_c, 4, 60, 100
3, 245760, Note_on_c, 4, 61, 100
3, 245760, Note_on_c, 0, 69, 100
3, 246000, Note_on_c, 4, 60, 0
3, 246000, Note_on_c, 4, 61, 0
3, 246000, Note_on_c, 4, 61, 100
3, 246240, Note_on_c, 4, 61, 0
3, 246240, Note_on_c, 4, 61, 100
3, 246480, Note_on_c, 4, 61, 0
3, 246480, Note_on_c, 4, 60, 100
3, 246480, Note_on_c, 4, 61, 100
3, 246720, Note_on_c, 4, 60, 0
3, 246720, Note_on_c, 4, 61, 0
3, 246720, Note_on_c, 4, 61, 100
3, 246960, Note_on_c, 4, 61, 0
3, 247440, Note_on_c, 0, 69, 0
3, 247440, Note_on_c, 4, 60, 100
3, 247680, Note_on_c, 4, 60, 0
3, 247680, Note_on_c, 4, 60, 100
3, 247680, Note_on_c, 4, 61, 100
3, 247680, Note_on_c, 0, 69, 100
3, 247920, Note_on_c, 4, 60, 0
3, 247920, Note_on_c, 4, 61, 0
3, 247920, Note_on_c, 0, 69, 0
3, 247920, Note_on_c, 4, 61, 100
3, 248160, Note_on_c, 4, 61, 0
3, 248160, Note_on_c, 4, 61, 100
3, 248160, Note_on_c, 0, 69, 100
3, 248400, Note_on_c, 4, 61, 0
3, 248400, Note_on_c, 0, 69, 0
3, 248400, Note_on_c, 4, 60, 100
3, 248400, Note_on_c, 4, 61, 100
3, 248640, Note_on_c, 4, 60, 0
3, 248640, Note_on_c, 4, 61, 0
3, 248640, Note_on_c, 4, 61, 100
3, 248640, Note_on_c, 0, 69, 100
3, 248880, Note_on_c, 4, 61, 0
3, 248880, Note_on_c, 0, 69, 0
3, 249600, Note_on_c, 4, 60, 100
3, 249600, Note_on_c, 4, 61, 100
3, 249840, Note_on_c, 4, 60, 0
3, 249840, Note_on_c, 4, 61, 0
3, 250080, Note_on_c, 4, 61, 100
3, 250080, Note_on_c, 0, 69, 100
3, 250320, Note_on_c, 4, 61, 0
3, 250320, Note_on_c, 4, 60, 100
3, 250560, Note_on_c, 4, 60, 0
3, 250560, Note_on_c, 4, 61, 100
3, 250800, Note_on_c, 4, 61, 0
3, 251040, Note_on_c, 4, 61, 100
3, 251280, Note_on_c, 4, 61, 0
3, 251280, Note_on_c, 4, 60, 100
3, 251520, Note_on_c, 4, 60, 0
3, 251520, Note_on_c, 4, 61, 100
3, 251760, Note_on_c, 4, 61, 0
3, 252000, Note_on_c, 0, 69, 0
3, 252000, Note_on_c, 4, 61, 100
3, 252240, Note_on_c, 4, 61, 0
3, 252240, Note_on_c, 4, 60, 100
3, 252240, Note_on_c, 0, 70, 100
3, 252480, Note_on_c, 4, 60, 0
3, 252480, Note_on_c, 0, 70, 0
3, 252480, Note_on_c, 4, 61, 100
3, 252720, Note_on_c, 4, 61, 0
3, 252960, Note_on_c, 4, 61, 100
3, 253200, Note_on_c, 4, 61, 0
3, 253440, Note_on_c, 4, 60, 100
3, 253440, Note_on_c, 4, 61, 100
3, 253440, Note_on_c, 0, 69, 100
3, 253680, Note_on_c, 4, 60, 0
3, 253680, Note_on_c, 4, 61, 0
3, 253680, Note_on_c, 4, 61, 100
3, 253920, Note_on_c, 4, 61, 0
3, 253920, Note_on_c, 4, 61, 100
3, 254160, Note_on_c, 4, 61, 0
3, 254160, Note_on_c, 4, 60, 100
3, 254160, Note_on_c, 4, 61, 100
3, 254400, Note_on_c, 4, 60, 0
3, 254400, Note_on_c, 4, 61, 0
3, 254400, Note_on_c, 4, 61, 100
3, 254640, Note_on_c, 4, 61, 0
3, 255120, Note_on_c, 0, 69, 0
3, 255120, Note_on_c, 4, 60, 100
3, 255360, Note_on_c, 4, 60, 0
3, 255360, Note_on_c, 4, 60, 100
3, 255360, Note_on_c, 4, 61, 100
3, 255360, Note_on_c, 0, 69, 100
3, 255600, Note_on_c, 4, 60, 0
3, 255600, Note_on_c, 4, 61, 0
3, 255600, Note_on_c, 0, 69, 0
3, 255600, Note_on_c, 4, 61, 100
3, 255840, Note_on_c, 4, 61, 0
3, 255840, Note_on_c, 4, 61, 100
3, 255840, Note_on_c, 0, 69, 100
3, 256080, Note_on_c, 4, 61, 0
3, 256080, Note_on_c, 0, 69, 0
3, 256080, Note_on_c, 4, 60, 100
3, 256080, Note_on_c, 4, 61, 100
3, 256320, Note_on_c, 4, 60, 0
3, 256320, Note_on_c, 4, 61, 0
3, 256320, Note_on_c, 4, 61, 100
3, 256320, Note_on_c, 0, 69, 100
3, 256560, Note_on_c, 4, 61, 0
3, 256560, Note_on_c, 0, 69, 0
3, 257040, Note_on_c, 4, 60, 100
3, 257280, Note_on_c, 4, 60, 0
3, 257280, Note_on_c, 4, 60, 100
3, 257280, Note_on_c, 4, 61, 100
3, 257280, Note_on_c, 0, 68, 100
3, 257520, Note_on_c, 4, 60, 0
3, 257520, Note_on_c, 4, 61, 0
3, 257520, Note_on_c, 0, 68, 0
3, 257760, Note_on_c, 4, 61, 100
3, 258000, Note_on_c, 4, 61, 0
3, 258000, Note_on_c, 4, 60, 100
3, 258240, Note_on_c, 4, 60, 0
3, 258240, Note_on_c, 4, 61, 100
3, 258240, Note_on_c, 0, 70, 100
3, 258480, Note_on_c, 4, 61, 0
3, 258720, Note_on_c, 4, 61, 100
3, 258960, Note_on_c, 4, 61, 0
3, 258960, Note_on_c, 4, 60, 100
3, 259200, Note_on_c, 4, 60, 0
3, 259200, Note_on_c, 4, 61, 100
3, 259440, Note_on_c, 4, 61, 0
3, 259680, Note_on_c, 4, 61, 100
3, 259920, Note_on_c, 4, 61, 0
3, 259920, Note_on_c, 4, 60, 100
3, 260160, Note_on_c, 0, 70, 0
3, 260160, Note_on_c, 4, 60, 0
3, 260160, Note_on_c, 4, 61, 100
3, 260160, Note_on_c, 0, 70, 100
3, 260400, Note_on_c, 4, 61, 0
3, 260640, Note_on_c, 4, 61, 100
3, 260880, Note_on_c, 4, 61, 0
3, 261120, Note_on_c, 0, 70, 0
3, 261120, Note_on_c, 4, 60, 100
3, 261120, Note_on_c, 4, 61, 100
3, 261120, Note_on_c, 0, 69, 100
3, 261360, Note_on_c, 4, 60, 0
3, 261360, Note_on_c, 4, 61, 0
3, 261840, Note_on_c, 4, 60, 100
3, 261840, Note_on_c, 4, 61, 100
3, 262080, Note_on_c, 4, 60, 0
3, 262080, Note_on_c, 4, 61, 0
3, 262080, Note_on_c, 4, 60, 100
3, 262080, Note_on_c, 4, 61, 100
3, 262320, Note_on_c, 4, 60, 0
3, 262320, Note_on_c, 4, 61, 0
3, 262560, Note_on_c, 0, 69, 0
3, 262560, Note_on_c, 0, 68, 100
3, 262800, Note_on_c, 0, 68, 0
3, 262800, Note_on_c, 4, 60, 100
3, 262800, Note_on_c, 4, 61, 100
3, 263040, Note_on_c, 4, 60, 0
3, 263040, Note_on_c, 4, 61, 0
3, 263040, Note_on_c, 4, 60, 100
3, 263280, Note_on_c, 4, 60, 0
3, 263280, Note_on_c, 4, 61, 100
3, 263520, Note_on_c, 4, 61, 0
3, 263520, Note_on_c, 4, 61, 100
3, 263520, Note_on_c, 0, 69, 100
3, 263760, Note_on_c, 4, 61, 0
3, 263760, Note_on_c, 0, 69, 0
3, 263760, Note_on_c, 4, 60, 100
3, 264000, Note_on_c, 4, 60, 0
3, 264000, Note_on_c, 4, 60, 100
3, 264000, Note_on_c, 4, 61, 100
3, 264000, Note_on_c, 0, 70, 100
3, 264240, Note_on_c, 4, 60, 0
3, 264240, Note_on_c, 4, 61, 0
3, 264240, Note_on_c, 0, 70, 0
3, 264240, Note_on_c, 4, 61, 100
3, 264480, Note_on_c, 4, 61, 0
3, 264480, Note_on_c, 4, 61, 100
3, 264720, Note_on_c, 4, 61, 0
3, 264720, Note_on_c, 4, 60, 100
3, 264960, Note_on_c, 4, 60, 0
3, 264960, Note_on_c, 4, 60, 100
3, 264960, Note_on_c, 4, 61, 100
3, 264960, Note_on_c, 0, 69, 100
3, 265200, Note_on_c, 4, 60, 0
3, 265200, Note_on_c, 4, 61, 0
3, 265200, Note_on_c, 0, 69, 0
3, 265920, Note_on_c, 4, 61, 100
3, 266160, Note_on_c, 4, 61, 0
3, 266400, Note_on_c, 4, 61, 100
3, 266400, Note_on_c, 0, 69, 100
3, 266640, Note_on_c, 4, 61, 0
3, 266640, Note_on_c, 0, 69, 0
3, 266880, Note_on_c, 0, 70, 100
3, 267360, Note_on_c, 4, 61, 100
3, 267600, Note_on_c, 4, 61, 0
3, 267840, Note_on_c, 4, 61, 100
3, 268080, Note_on_c, 4, 61, 0
3, 268080, Note_on_c, 4, 61, 100
3, 268320, Note_on_c, 4, 61, 0
3, 268320, Note_on_c, 4, 61, 100
3, 268560, Note_on_c, 0, 70, 0
3, 268560, Note_on_c, 4, 61, 0
3, 268800, Note_on_c, 4, 60, 100
3, 268800, Note_on_c, 4, 61, 100
3, 268800, Note_on_c, 0, 68, 100
3, 269040, Note_on_c, 4, 60, 0
3, 269040, Note_on_c, 4, 61, 0
3, 269760, Note_on_c, 0, 68, 0
3, 270480, Note_on_c, 4, 60, 100
3, 270720, Note_on_c, 4, 60, 0
3, 270720, Note_on_c, 4, 60, 100
3, 270720, Note_on_c, 4, 61, 100
3, 270720, Note_on_c, 0, 70, 100
3, 270960, Note_on_c, 4, 60, 0
3, 270960, Note_on_c, 4, 61, 0
3, 270960, Note_on_c, 0, 70, 0
3, 271440, Note_on_c, 4, 60, 100
3, 271680, Note_on_c, 4, 60, 0
3, 271680, Note_on_c, 0, 70, 100
3, 271920, Note_on_c, 0, 70, 0
3, 272640, Note_on_c, 4, 60, 100
3, 272640, Note_on_c, 4, 61, 100
3, 272640, Note_on_c, 0, 70, 100
3, 272880, Note_on_c, 4, 60, 0
3, 272880, Note_on_c, 4, 61, 0
3, 272880, Note_on_c, 0, 70, 0
3, 273600, Note_on_c, 4, 60, 100
3, 273840, Note_on_c, 4, 60, 0
3, 274080, Note_on_c, 4, 60, 100
3, 274080, Note_on_c, 4, 61, 100
3, 274080, Note_on_c, 0, 69, 100
3, 274320, Note_on_c, 4, 60, 0
3, 274320, Note_on_c, 4, 61, 0
3, 274320, Note_on_c, 0, 69, 0
3, 275040, Note_on_c, 4, 60, 100
3, 275280, Note_on_c, 4, 60, 0
3, 275520, Note_on_c, 4, 60, 100
3, 275520, Note_on_c, 4, 61, 100
3, 275520, Note_on_c, 0, 68, 100
3, 275760, Note_on_c, 4, 60, 0
3, 275760, Note_on_c, 4, 61, 0
3, 275760, Note_on_c, 0, 68, 0
3, 276000, Note_on_c, 4, 61, 100
3, 276240, Note_on_c, 4, 61, 0
3, 276480, Note_on_c, 4, 60, 100
3, 276480, Note_on_c, 4, 61, 100
3, 276480, Note_on_c, 0, 68, 100
3, 276720, Note_on_c, 4, 60, 0
3, 276720, Note_on_c, 4, 61, 0
3, 277440, Note_on_c, 0, 68, 0
3, 278160, Note_on_c, 4, 60, 100
3, 278400, Note_on_c, 4, 60, 0
3, 278400, Note_on_c, 4, 60, 100
3, 278400, Note_on_c, 4, 61, 100
3, 278400, Note_on_c, 0, 70, 100
3, 278640, Note_on_c, 4, 60, 0
3, 278640, Note_on_c, 4, 61, 0
3, 278640, Note_on_c, 0, 70, 0
3, 279120, Note_on_c, 4, 60, 100
3, 279360, Note_on_c, 4, 60, 0
3, 279360, Note_on_c, 0, 70, 100
3, 279600, Note_on_c, 0, 70, 0
3, 280320, Note_on_c, 4, 60, 100
3, 280320, Note_on_c, 4, 61, 100
3, 280320, Note_on_c, 0, 70, 100
3, 280560, Note_on_c, 4, 60, 0
3, 280560, Note_on_c, 4, 61, 0
3, 280560, Note_on_c, 0, 70, 0
3, 281760, Note_on_c, 4, 60, 100
3, 281760, Note_on_c, 4, 61, 100
3, 281760, Note_on_c, 0, 69, 100
3, 282000, Note_on_c, 4, 60, 0
3, 282000, Note_on_c, 4, 61, 0
3, 282000, Note_on_c, 0, 69, 0
3, 283200, Note_on_c, 4, 60, 100
3, 283200, Note_on_c, 4, 61, 100
3, 283200, Note_on_c, 0, 68, 100
3, 283440, Note_on_c, 4, 60, 0
3, 283440, Note_on_c, 4, 61, 0
3, 283440, Note_on_c, 0, 68, 0
3, 283680, Note_on_c, 4, 61, 100
3, 283920, Note_on_c, 4, 61, 0
3, 284160, Note_on_c, 4, 60, 100
3, 284160, Note_on_c, 4, 61, 100
3, 284160, Note_on_c, 0, 68, 100
3, 284400, Note_on_c, 4, 60, 0
3, 284400, Note_on_c, 4, 61, 0
3, 285120, Note_on_c, 0, 68, 0
3, 285840, Note_on_c, 4, 60, 100
3, 286080, Note_on_c, 4, 60, 0
3, 286080, Note_on_c, 4, 60, 100
3, 286080, Note_on_c, 4, 61, 100
3, 286080, Note_on_c, 0, 70, 100
3, 286320, Note_on_c, 4, 60, 0
3, 286320, Note_on_c, 4, 61, 0
3, 286320, Note_on_c, 0, 70, 0
3, 286800, Note_on_c, 4, 60, 100
3, 287040, Note_on_c, 4, 60, 0
3, 287040, Note_on_c, 0, 70, 100
3, 287280, Note_on_c, 0, 70, 0
3, 288000, Note_on_c, 4, 60, 100
3, 288000, Note_on_c, 4, 61, 100
3, 288000, Note_on_c, 0, 70, 100
3, 288240, Note_on_c, 4, 60, 0
3, 288240, Note_on_c, 4, 61, 0
3, 288240, Note_on_c, 0, 70, 0
3, 288720, Note_on_c, 4, 60, 100
3, 288960, Note_on_c, 4, 60, 0
3, 289440, Note_on_c, 4, 60, 100
3, 289440, Note_on_c, 4, 61, 100
3, 289440, Note_on_c, 0, 69, 100
3, 289680, Note_on_c, 4, 60, 0
3, 289680, Note_on_c, 4, 61, 0
3, 289680, Note_on_c, 0, 69, 0
3, 290160, Note_on_c, 4, 60, 100
3, 290400, Note_on_c, 4, 60, 0
3, 290880, Note_on_c, 4, 60, 100
3, 290880, Note_on_c, 4, 61, 100
3, 290880, Note_on_c, 0, 68, 100
3, 291120, Note_on_c, 4, 60, 0
3, 291120, Note_on_c, 4, 61, 0
3, 291120, Note_on_c, 0, 68, 0
3, 291360, Note_on_c, 4, 61, 100
3, 291600, Note_on_c, 4, 61, 0
3, 291840, Note_on_c, 4, 60, 100
3, 291840, Note_on_c, 4, 61, 100
3, 291840, Note_on_c, 0, 68, 100
3, 292080, Note_on_c, 4, 60, 0
3, 292080, Note_on_c, 4, 61, 0
3, 292800, Note_on_c, 0, 68, 0
3, 293520, Note_on_c, 4, 60, 100
3, 293760, Note_on_c, 4, 60, 0
3, 293760, Note_on_c, 4, 60, 100
3, 293760, Note_on_c, 4, 61, 100
3, 293760, Note_on_c, 0, 70, 100
3, 294000, Note_on_c, 4, 60, 0
3, 294000, Note_on_c, 4, 61, 0
3, 294000, Note_on_c, 0, 70, 0
3, 294480, Note_on_c, 4, 60, 100
3, 294720, Note_on_c, 4, 60, 0
3, 294720, Note_on_c, 0, 70, 100
3, 294960, Note_on_c, 0, 70, 0
3, 295680, Note_on_c, 4, 60, 100
3, 295680, Note_on_c, 4, 61, 100
3, 295680, Note_on_c, 0, 69, 100
3, 295920, Note_on_c, 4, 60, 0
3, 295920, Note_on_c, 4, 61, 0
3, 301200, Note_on_c, 0, 69, 0
3, 301440, Note_on_c, 4, 60, 100
3, 301440, Note_on_c, 4, 61, 100
3, 301440, Note_on_c, 0, 68, 100
3, 301680, Note_on_c, 4, 60, 0
3, 301680, Note_on_c, 4, 61, 0
3, 303120, Note_on_c, 4, 61, 100
3, 303360, Note_on_c, 4, 61, 0
3, 304800, Note_on_c, 4, 61, 100
3, 305040, Note_on_c, 4, 61, 0
3, 305280, Note_on_c, 0, 68, 0
3, 305280, Note_on_c, 4, 61, 100
3, 305280, Note_on_c, 0, 70, 100
3, 305440, Note_on_c, 0, 70, 0
3, 305520, Note_on_c, 4, 61, 0
3, 306240, Note_on_c, 4, 61, 100
3, 306240, Note_on_c, 0, 70, 100
3, 306400, Note_on_c, 0, 70, 0
3, 306480, Note_on_c, 4, 61, 0
3, 307200, Note_on_c, 0, 70, 100
3, 307360, Note_on_c, 0, 70, 0
3, 308160, Note_on_c, 0, 70, 100
3, 308320, Note_on_c, 0, 70, 0
3, 308320, End_track
4, 0, Start_track
4, 0, Title_t, "ANIM"
4, 7680, Note_on_c, 1, 40, 100
4, 8640, Note_on_c, 1, 40, 0
4, 9360, Note_on_c, 1, 45, 100
4, 10800, Note_on_c, 1, 45, 0
4, 10902, Text_t, "HandMap_Linear"
4, 11520, Note_on_c, 1, 43, 100
4, 12480, Note_on_c, 1, 43, 0
4, 12960, Note_on_c, 1, 42, 100
4, 13920, Note_on_c, 1, 42, 0
4, 14400, Note_on_c, 1, 41, 100
4, 15120, Note_on_c, 1, 41, 0
4, 15360, Note_on_c, 1, 40, 100
4, 16320, Note_on_c, 1, 40, 0
4, 17040, Note_on_c, 1, 46, 100
4, 18480, Note_on_c, 1, 46, 0
4, 19200, Note_on_c, 1, 43, 100
4, 20160, Note_on_c, 1, 43, 0
4, 20640, Note_on_c, 1, 42, 100
4, 21600, Note_on_c, 1, 42, 0
4, 22080, Note_on_c, 1, 41, 100
4, 22800, Note_on_c, 1, 41, 0
4, 23040, Note_on_c, 1, 40, 100
4, 24000, Note_on_c, 1, 40, 0
4, 24720, Note_on_c, 1, 46, 100
4, 26160, Note_on_c, 1, 46, 0
4, 26880, Note_on_c, 1, 43, 100
4, 27840, Note_on_c, 1, 43, 0
4, 28320, Note_on_c, 1, 42, 100
4, 29280, Note_on_c, 1, 42, 0
4, 29760, Note_on_c, 1, 41, 100
4, 30480, Note_on_c, 1, 41, 0
4, 30720, Note_on_c, 1, 40, 100
4, 31680, Note_on_c, 1, 40, 0
4, 32400, Note_on_c, 1, 46, 100
4, 33840, Note_on_c, 1, 46, 0
4, 34560, Note_on_c, 1, 43, 100
4, 35520, Note_on_c, 1, 43, 0
4, 36000, Note_on_c, 1, 42, 100
4, 36960, Note_on_c, 1, 42, 0
4, 37440, Note_on_c, 1, 41, 100
4, 38160, Note_on_c, 1, 41, 0
4, 38400, Note_on_c, 1, 40, 100
4, 42240, Note_on_c, 1, 40, 0
4, 42720, Note_on_c, 1, 50, 100
4, 44880, Note_on_c, 1, 50, 0
4, 44880, Note_on_c, 1, 49, 100
4, 45120, Note_on_c, 1, 49, 0
4, 45120, Note_on_c, 1, 50, 100
4, 45360, Note_on_c, 1, 50, 0
4, 46080, Note_on_c, 1, 48, 100
4, 47760, Note_on_c, 1, 48, 0
4, 48000, Note_on_c, 1, 43, 100
4, 48240, Note_on_c, 1, 43, 0
4, 48480, Note_on_c, 1, 42, 100
4, 48720, Note_on_c, 1, 42, 0
4, 48960, Note_on_c, 1, 43, 100
4, 49200, Note_on_c, 1, 43, 0
4, 49920, Note_on_c, 1, 45, 100
4, 50640, Note_on_c, 1, 45, 0
4, 50880, Note_on_c, 1, 47, 100
4, 51360, Note_on_c, 1, 47, 0
4, 51360, Note_on_c, 1, 45, 100
4, 52080, Note_on_c, 1, 45, 0
4, 52320, Note_on_c, 1, 44, 100
4, 52560, Note_on_c, 1, 44, 0
4, 52800, Note_on_c, 1, 43, 100
4, 53280, Note_on_c, 1, 43, 0
4, 53760, Note_on_c, 1, 40, 100
4, 57600, Note_on_c, 1, 40, 0
4, 59040, Note_on_c, 1, 52, 100
4, 60960, Note_on_c, 1, 52, 0
4, 61440, Note_on_c, 1, 45, 100
4, 65040, Note_on_c, 1, 45, 0
4, 65280, Note_on_c, 1, 48, 100
4, 68640, Note_on_c, 1, 48, 0
4, 69120, Note_on_c, 1, 40, 100
4, 72480, Note_on_c, 1, 40, 0
4, 72960, Note_on_c, 1, 45, 100
4, 76560, Note_on_c, 1, 45, 0
4, 76800, Note_on_c, 1, 48, 100
4, 78960, Note_on_c, 1, 48, 0
4, 79200, Note_on_c, 1, 47, 100
4, 79440, Note_on_c, 1, 47, 0
4, 79680, Note_on_c, 1, 48, 100
4, 80400, Note_on_c, 1, 48, 0
4, 80640, Note_on_c, 1, 50, 100
4, 81360, Note_on_c, 1, 50, 0
4, 81600, Note_on_c, 1, 52, 100
4, 81840, Note_on_c, 1, 52, 0
4, 82080, Note_on_c, 1, 50, 100
4, 82800, Note_on_c, 1, 50, 0
4, 83040, Note_on_c, 1, 47, 100
4, 83280, Note_on_c, 1, 47, 0
4, 83520, Note_on_c, 1, 45, 100
4, 84000, Note_on_c, 1, 45, 0
4, 84480, Note_on_c, 1, 40, 100
4, 89280, Note_on_c, 1, 40, 0
4, 89760, Note_on_c, 1, 52, 100
4, 91680, Note_on_c, 1, 52, 0
4, 92160, Note_on_c, 1, 45, 100
4, 95040, Note_on_c, 1, 45, 0
4, 95280, Note_on_c, 1, 43, 100
4, 95520, Note_on_c, 1, 43, 0
4, 96000, Note_on_c, 1, 48, 100
4, 99360, Note_on_c, 1, 48, 0
4, 99840, Note_on_c, 1, 45, 100
4, 101040, Note_on_c, 1, 45, 0
4, 101520, Note_on_c, 1, 43, 100
4, 102960, Note_on_c, 1, 43, 0
4, 103440, Note_on_c, 1, 41, 100
4, 103920, Note_on_c, 1, 41, 0
4, 104160, Note_on_c, 1, 40, 100
4, 104400, Note_on_c, 1, 40, 0
4, 104640, Note_on_c, 1, 41, 100
4, 104880, Note_on_c, 1, 41, 0
4, 105120, Note_on_c, 1, 40, 100
4, 105360, Note_on_c, 1, 40, 0
4, 105600, Note_on_c, 1, 41, 100
4, 105840, Note_on_c, 1, 41, 0
4, 106080, Note_on_c, 1, 40, 100
4, 106320, Note_on_c, 1, 40, 0
4, 106560, Note_on_c, 1, 41, 100
4, 106800, Note_on_c, 1, 41, 0
4, 107040, Note_on_c, 1, 43, 100
4, 107280, Note_on_c, 1, 43, 0
4, 107520, Note_on_c, 1, 45, 100
4, 108720, Note_on_c, 1, 45, 0
4, 109200, Note_on_c, 1, 43, 100
4, 110640, Note_on_c, 1, 43, 0
4, 111120, Note_on_c, 1, 41, 100
4, 111600, Note_on_c, 1, 41, 0
4, 111840, Note_on_c, 1, 40, 100
4, 112080, Note_on_c, 1, 40, 0
4, 112320, Note_on_c, 1, 41, 100
4, 112560, Note_on_c, 1, 41, 0
4, 112800, Note_on_c, 1, 40, 100
4, 113040, Note_on_c, 1, 40, 0
4, 113280, Note_on_c, 1, 41, 100
4, 113520, Note_on_c, 1, 41, 0
4, 113760, Note_on_c, 1, 40, 100
4, 114000, Note_on_c, 1, 40, 0
4, 114240, Note_on_c, 1, 41, 100
4, 114480, Note_on_c, 1, 41, 0
4, 114720, Note_on_c, 1, 43, 100
4, 114960, Note_on_c, 1, 43, 0
4, 115200, Note_on_c, 1, 45, 100
4, 116400, Note_on_c, 1, 45, 0
4, 116880, Note_on_c, 1, 43, 100
4, 118320, Note_on_c, 1, 43, 0
4, 118800, Note_on_c, 1, 41, 100
4, 119280, Note_on_c, 1, 41, 0
4, 119520, Note_on_c, 1, 40, 100
4, 119760, Note_on_c, 1, 40, 0
4, 120000, Note_on_c, 1, 41, 100
4, 120240, Note_on_c, 1, 41, 0
4, 120480, Note_on_c, 1, 40, 100
4, 120720, Note_on_c, 1, 40, 0
4, 120960, Note_on_c, 1, 41, 100
4, 121200, Note_on_c, 1, 41, 0
4, 121440, Note_on_c, 1, 40, 100
4, 121680, Note_on_c, 1, 40, 0
4, 121920, Note_on_c, 1, 41, 100
4, 122160, Note_on_c, 1, 41, 0
4, 122400, Note_on_c, 1, 43, 100
4, 122640, Note_on_c, 1, 43, 0
4, 122880, Note_on_c, 1, 50, 100
4, 126240, Note_on_c, 1, 50, 0
4, 126720, Note_on_c, 1, 40, 100
4, 131520, Note_on_c, 1, 40, 0
4, 132240, Note_on_c, 1, 45, 100
4, 133680, Note_on_c, 1, 45, 0
4, 134400, Note_on_c, 1, 43, 100
4, 135360, Note_on_c, 1, 43, 0
4, 135840, Note_on_c, 1, 42, 100
4, 136800, Note_on_c, 1, 42, 0
4, 137280, Note_on_c, 1, 41, 100
4, 138000, Note_on_c, 1, 41, 0
4, 138240, Note_on_c, 1, 40, 100
4, 139200, Note_on_c, 1, 40, 0
4, 139920, Note_on_c, 1, 46, 100
4, 141360, Note_on_c, 1, 46, 0
4, 142080, Note_on_c, 1, 43, 100
4, 143040, Note_on_c, 1, 43, 0
4, 143520, Note_on_c, 1, 42, 100
4, 144480, Note_on_c, 1, 42, 0
4, 144960, Note_on_c, 1, 41, 100
4, 145680, Note_on_c, 1, 41, 0
4, 145920, Note_on_c, 1, 40, 100
4, 149280, Note_on_c, 1, 40, 0
4, 149760, Note_on_c, 1, 47, 100
4, 152640, Note_on_c, 1, 47, 0
4, 153120, Note_on_c, 1, 50, 100
4, 153360, Note_on_c, 1, 50, 0
4, 153600, Note_on_c, 1, 48, 100
4, 155280, Note_on_c, 1, 48, 0
4, 155520, Note_on_c, 1, 43, 100
4, 155760, Note_on_c, 1, 43, 0
4, 156000, Note_on_c, 1, 42, 100
4, 156240, Note_on_c, 1, 42, 0
4, 156480, Note_on_c, 1, 43, 100
4, 156720, Note_on_c, 1, 43, 0
4, 157440, Note_on_c, 1, 45, 100
4, 158160, Note_on_c, 1, 45, 0
4, 158400, Note_on_c, 1, 47, 100
4, 158880, Note_on_c, 1, 47, 0
4, 158880, Note_on_c, 1, 45, 100
4, 159600, Note_on_c, 1, 45, 0
4, 159840, Note_on_c, 1, 44, 100
4, 160080, Note_on_c, 1, 44, 0
4, 160320, Note_on_c, 1, 43, 100
4, 160800, Note_on_c, 1, 43, 0
4, 161280, Note_on_c, 1, 40, 100
4, 168480, Note_on_c, 1, 40, 0
4, 168960, Note_on_c, 1, 45, 100
4, 172320, Note_on_c, 1, 45, 0
4, 172800, Note_on_c, 1, 48, 100
4, 176400, Note_on_c, 1, 48, 0
4, 176640, Note_on_c, 1, 45, 100
4, 177840, Note_on_c, 1, 45, 0
4, 178320, Note_on_c, 1, 43, 100
4, 179760, Note_on_c, 1, 43, 0
4, 180240, Note_on_c, 1, 41, 100
4, 180720, Note_on_c, 1, 41, 0
4, 180960, Note_on_c, 1, 40, 100
4, 181200, Note_on_c, 1, 40, 0
4, 181440, Note_on_c, 1, 41, 100
4, 181680, Note_on_c, 1, 41, 0
4, 181920, Note_on_c, 1, 40, 100
4, 182160, Note_on_c, 1, 40, 0
4, 182400, Note_on_c, 1, 41, 100
4, 182640, Note_on_c, 1, 41, 0
4, 182880, Note_on_c, 1, 40, 100
4, 183120, Note_on_c, 1, 40, 0
4, 183360, Note_on_c, 1, 41, 100
4, 183600, Note_on_c, 1, 41, 0
4, 183840, Note_on_c, 1, 43, 100
4, 184080, Note_on_c, 1, 43, 0
4, 184320, Note_on_c, 1, 45, 100
4, 185520, Note_on_c, 1, 45, 0
4, 186000, Note_on_c, 1, 43, 100
4, 187440, Note_on_c, 1, 43, 0
4, 187920, Note_on_c, 1, 41, 100
4, 188400, Note_on_c, 1, 41, 0
4, 188640, Note_on_c, 1, 40, 100
4, 188880, Note_on_c, 1, 40, 0
4, 189120, Note_on_c, 1, 41, 100
4, 189360, Note_on_c, 1, 41, 0
4, 189600, Note_on_c, 1, 40, 100
4, 189840, Note_on_c, 1, 40, 0
4, 190080, Note_on_c, 1, 41, 100
4, 190320, Note_on_c, 1, 41, 0
4, 190560, Note_on_c, 1, 40, 100
4, 190800, Note_on_c, 1, 40, 0
4, 191040, Note_on_c, 1, 41, 100
4, 191280, Note_on_c, 1, 41, 0
4, 191520, Note_on_c, 1, 43, 100
4, 191760, Note_on_c, 1, 43, 0
4, 192000, Note_on_c, 1, 45, 100
4, 193200, Note_on_c, 1, 45, 0
4, 193680, Note_on_c, 1, 43, 100
4, 195120, Note_on_c, 1, 43, 0
4, 195600, Note_on_c, 1, 41, 100
4, 196080, Note_on_c, 1, 41, 0
4, 196320, Note_on_c, 1, 40, 100
4, 196560, Note_on_c, 1, 40, 0
4, 196800, Note_on_c, 1, 41, 100
4, 197040, Note_on_c, 1, 41, 0
4, 197280, Note_on_c, 1, 40, 100
4, 197520, Note_on_c, 1, 40, 0
4, 197760, Note_on_c, 1, 41, 100
4, 198000, Note_on_c, 1, 41, 0
4, 198240, Note_on_c, 1, 40, 100
4, 198480, Note_on_c, 1, 40, 0
4, 198720, Note_on_c, 1, 41, 100
4, 198960, Note_on_c, 1, 41, 0
4, 199200, Note_on_c, 1, 43, 100
4, 199440, Note_on_c, 1, 43, 0
4, 199680, Note_on_c, 1, 50, 100
4, 203040, Note_on_c, 1, 50, 0
4, 203520, Note_on_c, 1, 40, 100
4, 207360, Text_t, "HandMap_NoChords"
4, 207360, Note_on_c, 1, 40, 0
4, 208320, Note_on_c, 1, 47, 100
4, 208560, Note_on_c, 1, 47, 0
4, 208800, Note_on_c, 1, 48, 100
4, 209040, Note_on_c, 1, 48, 0
4, 209040, Note_on_c, 1, 47, 100
4, 209280, Note_on_c, 1, 47, 0
4, 209520, Note_on_c, 1, 45, 100
4, 209760, Note_on_c, 1, 45, 0
4, 209760, Note_on_c, 1, 43, 100
4, 210480, Note_on_c, 1, 43, 0
4, 210720, Note_on_c, 1, 45, 100
4, 210960, Note_on_c, 1, 45, 0
4, 210960, Note_on_c, 1, 43, 100
4, 211200, Note_on_c, 1, 43, 0
4, 211200, Note_on_c, 1, 45, 100
4, 211440, Note_on_c, 1, 45, 0
4, 211440, Note_on_c, 1, 47, 100
4, 212880, Note_on_c, 1, 47, 0
4, 213120, Note_on_c, 1, 48, 100
4, 213840, Note_on_c, 1, 48, 0
4, 214080, Note_on_c, 1, 50, 100
4, 214320, Note_on_c, 1, 50, 0
4, 214560, Note_on_c, 1, 52, 100
4, 214800, Note_on_c, 1, 52, 0
4, 214800, Note_on_c, 1, 54, 100
4, 215040, Note_on_c, 1, 54, 0
4, 215040, Note_on_c, 1, 52, 100
4, 216000, Note_on_c, 1, 52, 0
4, 216480, Note_on_c, 1, 45, 100
4, 216720, Note_on_c, 1, 45, 0
4, 216720, Note_on_c, 1, 43, 100
4, 216960, Note_on_c, 1, 43, 0
4, 216960, Note_on_c, 1, 45, 100
4, 217200, Note_on_c, 1, 45, 0
4, 217440, Note_on_c, 1, 47, 100
4, 217680, Note_on_c, 1, 47, 0
4, 217920, Note_on_c, 1, 48, 100
4, 218160, Note_on_c, 1, 48, 0
4, 218400, Note_on_c, 1, 50, 100
4, 220560, Note_on_c, 1, 50, 0
4, 220560, Note_on_c, 1, 48, 100
4, 220800, Note_on_c, 1, 48, 0
4, 220800, Note_on_c, 1, 50, 100
4, 221040, Note_on_c, 1, 50, 0
4, 221280, Note_on_c, 1, 52, 100
4, 221520, Note_on_c, 1, 52, 0
4, 221760, Note_on_c, 1, 53, 100
4, 222000, Note_on_c, 1, 53, 0
4, 222240, Note_on_c, 1, 55, 100
4, 222480, Note_on_c, 1, 55, 0
4, 222480, Note_on_c, 1, 57, 100
4, 222720, Note_on_c, 1, 57, 0
4, 222720, Note_on_c, 1, 55, 100
4, 223680, Note_on_c, 1, 55, 0
4, 224160, Note_on_c, 1, 58, 100
4, 226080, Note_on_c, 1, 58, 0
4, 226080, Note_on_c, 1, 54, 100
4, 226200, Note_on_c, 1, 54, 0
4, 226320, Note_on_c, 1, 52, 100
4, 226440, Note_on_c, 1, 52, 0
4, 226440, Note_on_c, 1, 53, 100
4, 226560, Note_on_c, 1, 53, 0
4, 226680, Note_on_c, 1, 52, 100
4, 226800, Note_on_c, 1, 52, 0
4, 226920, Note_on_c, 1, 50, 100
4, 227040, Note_on_c, 1, 50, 0
4, 227040, Note_on_c, 1, 51, 100
4, 227160, Note_on_c, 1, 51, 0
4, 227280, Note_on_c, 1, 49, 100
4, 227400, Note_on_c, 1, 49, 0
4, 227520, Note_on_c, 1, 47, 100
4, 227640, Note_on_c, 1, 47, 0
4, 227640, Note_on_c, 1, 48, 100
4, 227760, Note_on_c, 1, 48, 0
4, 228000, Note_on_c, 1, 46, 100
4, 228120, Note_on_c, 1, 46, 0
4, 228240, Note_on_c, 1, 43, 100
4, 228360, Note_on_c, 1, 43, 0
4, 228360, Note_on_c, 1, 44, 100
4, 228480, Note_on_c, 1, 44, 0
4, 228480, Note_on_c, 1, 41, 100
4, 229200, Note_on_c, 1, 41, 0
4, 229440, Note_on_c, 1, 47, 100
4, 229680, Note_on_c, 1, 47, 0
4, 229920, Note_on_c, 1, 50, 100
4, 230160, Note_on_c, 1, 50, 0
4, 230160, Note_on_c, 1, 47, 100
4, 230400, Note_on_c, 1, 47, 0
4, 230400, Note_on_c, 1, 49, 100
4, 231360, Note_on_c, 1, 49, 0
4, 231360, Note_on_c, 1, 51, 100
4, 232320, Note_on_c, 1, 51, 0
4, 232320, Note_on_c, 1, 53, 100
4, 233040, Note_on_c, 1, 53, 0
4, 233280, Note_on_c, 1, 52, 100
4, 233520, Note_on_c, 1, 52, 0
4, 233760, Note_on_c, 1, 54, 100
4, 234000, Note_on_c, 1, 54, 0
4, 234240, Note_on_c, 1, 56, 100
4, 234480, Note_on_c, 1, 56, 0
4, 234720, Note_on_c, 1, 54, 100
4, 234960, Note_on_c, 1, 54, 0
4, 235200, Note_on_c, 1, 57, 100
4, 235440, Note_on_c, 1, 57, 0
4, 235680, Note_on_c, 1, 56, 100
4, 235920, Note_on_c, 1, 56, 0
4, 236160, Note_on_c, 1, 58, 100
4, 237600, Note_on_c, 1, 58, 0
4, 238080, Text_t, "HandMap_Linear"
4, 238080, Note_on_c, 1, 45, 100
4, 239280, Note_on_c, 1, 45, 0
4, 239760, Note_on_c, 1, 43, 100
4, 241200, Note_on_c, 1, 43, 0
4, 241680, Note_on_c, 1, 41, 100
4, 242160, Note_on_c, 1, 41, 0
4, 242160, Note_on_c, 1, 40, 100
4, 242400, Note_on_c, 1, 40, 0
4, 242880, Note_on_c, 1, 52, 100
4, 243840, Note_on_c, 1, 52, 0
4, 244320, Note_on_c, 1, 51, 100
4, 244560, Note_on_c, 1, 51, 0
4, 244800, Note_on_c, 1, 49, 100
4, 245520, Note_on_c, 1, 49, 0
4, 245760, Note_on_c, 1, 50, 100
4, 246720, Note_on_c, 1, 50, 0
4, 247200, Note_on_c, 1, 41, 100
4, 247440, Note_on_c, 1, 41, 0
4, 247680, Note_on_c, 1, 43, 100
4, 248880, Note_on_c, 1, 43, 0
4, 249360, Note_on_c, 1, 41, 100
4, 249600, Note_on_c, 1, 41, 0
4, 250080, Note_on_c, 1, 47, 100
4, 252000, Note_on_c, 1, 47, 0
4, 252240, Note_on_c, 1, 49, 100
4, 252480, Note_on_c, 1, 49, 0
4, 252720, Note_on_c, 1, 47, 100
4, 252960, Note_on_c, 1, 47, 0
4, 253200, Note_on_c, 1, 45, 100
4, 253440, Note_on_c, 1, 45, 0
4, 253440, Note_on_c, 1, 46, 100
4, 254880, Note_on_c, 1, 46, 0
4, 255360, Note_on_c, 1, 43, 100
4, 256560, Note_on_c, 1, 43, 0
4, 257280, Note_on_c, 1, 41, 100
4, 257520, Note_on_c, 1, 41, 0
4, 257520, Note_on_c, 1, 40, 100
4, 257760, Note_on_c, 1, 40, 0
4, 258240, Note_on_c, 1, 51, 100
4, 260160, Note_on_c, 1, 51, 0
4, 260160, Note_on_c, 1, 53, 100
4, 260400, Note_on_c, 1, 53, 0
4, 260400, Note_on_c, 1, 51, 100
4, 260640, Note_on_c, 1, 51, 0
4, 261120, Note_on_c, 1, 49, 100
4, 262320, Note_on_c, 1, 49, 0
4, 262560, Note_on_c, 1, 48, 100
4, 262800, Note_on_c, 1, 48, 0
4, 263040, Note_on_c, 1, 50, 100
4, 263280, Note_on_c, 1, 50, 0
4, 263520, Note_on_c, 1, 51, 100
4, 263760, Note_on_c, 1, 51, 0
4, 264000, Note_on_c, 1, 53, 100
4, 264240, Note_on_c, 1, 53, 0
4, 264240, Note_on_c, 1, 54, 100
4, 264480, Note_on_c, 1, 54, 0
4, 264720, Note_on_c, 1, 51, 100
4, 264960, Note_on_c, 1, 51, 0
4, 264960, Note_on_c, 1, 53, 100
4, 266400, Note_on_c, 1, 53, 0
4, 266400, Note_on_c, 1, 52, 100
4, 266640, Note_on_c, 1, 52, 0
4, 266880, Note_on_c, 1, 55, 100
4, 267840, Note_on_c, 1, 55, 0
4, 268080, Note_on_c, 1, 56, 100
4, 268320, Note_on_c, 1, 56, 0
4, 268800, Note_on_c, 1, 40, 100
4, 269760, Note_on_c, 1, 40, 0
4, 270480, Note_on_c, 1, 45, 100
4, 271920, Note_on_c, 1, 45, 0
4, 272640, Note_on_c, 1, 43, 100
4, 273600, Note_on_c, 1, 43, 0
4, 274080, Note_on_c, 1, 42, 100
4, 275040, Note_on_c, 1, 42, 0
4, 275520, Note_on_c, 1, 41, 100
4, 276240, Note_on_c, 1, 41, 0
4, 276480, Note_on_c, 1, 40, 100
4, 277440, Note_on_c, 1, 40, 0
4, 278160, Note_on_c, 1, 46, 100
4, 279600, Note_on_c, 1, 46, 0
4, 280320, Note_on_c, 1, 43, 100
4, 281280, Note_on_c, 1, 43, 0
4, 281760, Note_on_c, 1, 42, 100
4, 282720, Note_on_c, 1, 42, 0
4, 283200, Note_on_c, 1, 41, 100
4, 283920, Note_on_c, 1, 41, 0
4, 284160, Note_on_c, 1, 40, 100
4, 285120, Note_on_c, 1, 40, 0
4, 285840, Note_on_c, 1, 46, 100
4, 287280, Note_on_c, 1, 46, 0
4, 288000, Note_on_c, 1, 43, 100
4, 288960, Note_on_c, 1, 43, 0
4, 289440, Note_on_c, 1, 42, 100
4, 290400, Note_on_c, 1, 42, 0
4, 290880, Note_on_c, 1, 41, 100
4, 291600, Note_on_c, 1, 41, 0
4, 291840, Note_on_c, 1, 40, 100
4, 292800, Note_on_c, 1, 40, 0
4, 293520, Note_on_c, 1, 46, 100
4, 294960, Note_on_c, 1, 46, 0
4, 295680, Note_on_c, 1, 43, 100
4, 300720, Note_on_c, 1, 43, 0
4, 301440, Note_on_c, 1, 40, 100
4, 304800, Note_on_c, 1, 40, 0
4, 305280, Note_on_c, 1, 50, 100
4, 305440, Note_on_c, 1, 50, 0
4, 305520, Note_on_c, 1, 49, 100
4, 305680, Note_on_c, 1, 49, 0
4, 305760, Note_on_c, 1, 50, 100
4, 305920, Note_on_c, 1, 50, 0
4, 306000, Note_on_c, 1, 49, 100
4, 306160, Note_on_c, 1, 49, 0
4, 306240, Note_on_c, 1, 50, 100
4, 306400, Note_on_c, 1, 50, 0
4, 306480, Note_on_c, 1, 49, 100
4, 306640, Note_on_c, 1, 49, 0
4, 306720, Note_on_c, 1, 50, 100
4, 306880, Note_on_c, 1, 50, 0
4, 306960, Note_on_c, 1, 49, 100
4, 307120, Note_on_c, 1, 49, 0
4, 307200, Note_on_c, 1, 50, 100
4, 307360, Note_on_c, 1, 50, 0
4, 307440, Note_on_c, 1, 49, 100
4, 307600, Note_on_c, 1, 49, 0
4, 307680, Note_on_c, 1, 50, 100
4, 307840, Note_on_c, 1, 50, 0
4, 307920, Note_on_c, 1, 49, 100
4, 308080, Note_on_c, 1, 49, 0
4, 308160, Note_on_c, 1, 50, 100
4, 308320, Note_on_c, 1, 50, 0
4, 308400, Note_on_c, 1, 49, 100
4, 308560, Note_on_c, 1, 49, 0
4, 308640, Note_on_c, 1, 50, 100
4, 308800, Note_on_c, 1, 50, 0
4, 308880, Note_on_c, 1, 49, 100
4, 309040, Note_on_c, 1, 49, 0
4, 309120, Note_on_c, 1, 50, 100
4, 309280, Note_on_c, 1, 50, 0
4, 309360, Note_on_c, 1, 49, 100
4, 309520, Note_on_c, 1, 49, 0
4, 309600, Note_on_c, 1, 50, 100
4, 309760, Note_on_c, 1, 50, 0
4, 309840, Note_on_c, 1, 49, 100
4, 310000, Note_on_c, 1, 49, 0
4, 310080, Note_on_c, 1, 50, 100
4, 310240, Note_on_c, 1, 50, 0
4, 310320, Note_on_c, 1, 49, 100
4, 310480, Note_on_c, 1, 49, 0
4, 310560, Note_on_c, 1, 50, 100
4, 310720, Note_on_c, 1, 50, 0
4, 310800, Note_on_c, 1, 49, 100
4, 310960, Note_on_c, 1, 49, 0
4, 311040, Note_on_c, 1, 50, 100
4, 311200, Note_on_c, 1, 50, 0
4, 311280, Note_on_c, 1, 49, 100
4, 311440, Note_on_c, 1, 49, 0
4, 311520, Note_on_c, 1, 50, 100
4, 311680, Note_on_c, 1, 50, 0
4, 311760, Note_on_c, 1, 49, 100
4, 311920, Note_on_c, 1, 49, 0
4, 312000, Note_on_c, 1, 50, 100
4, 312160, Note_on_c, 1, 50, 0
4, 312240, Note_on_c, 1, 49, 100
4, 312400, Note_on_c, 1, 49, 0
4, 312480, Note_on_c, 1, 50, 100
4, 315680, Note_on_c, 1, 50, 0
4, 315840, Note_on_c, 1, 52, 100
4, 322558, Note_on_c, 1, 52, 0
4, 322558, End_track
5, 0, Start_track
5, 0, Title_t, "EVENTS"
5, 0, Text_t, "[lighting (blackout)]"
5, 0, Text_t, "sing_off"
5, 0, Text_t, "bass_off"
5, 0, Text_t, "[verse]"
5, 7680, Text_t, "[chorus]"
5, 7680, Text_t, "[music_start]"
5, 15360, Text_t, "drum_on"
5, 15360, Text_t, "[lighting ()]"
5, 21120, Text_t, "[lighting (color2)]"
5, 23040, Text_t, "[lighting ()]"
5, 28800, Text_t, "[lighting (color1)]"
5, 30720, Text_t, "[lighting ()]"
5, 36480, Text_t, "drum_double"
5, 38400, Text_t, "sing_on"
5, 38400, Text_t, "[verse]"
5, 38400, Text_t, "drum_normal"
5, 48000, Text_t, "[lighting ()]"
5, 49920, Text_t, "drum_normal"
5, 75840, Text_t, "[lighting (color1)]"
5, 76800, Text_t, "[lighting ()]"
5, 78720, Text_t, "[lighting (color2)]"
5, 80640, Text_t, "[lighting ()]"
5, 97920, Text_t, "[lighting (flare)]"
5, 99840, Text_t, "[chorus]"
5, 99840, Text_t, "[lighting (sweep)]"
5, 99840, Text_t, "drum_normal"
5, 105600, Text_t, "[lighting ()]"
5, 107520, Text_t, "drum_normal"
5, 113280, Text_t, "[lighting ()]"
5, 115200, Text_t, "drum_normal"
5, 120960, Text_t, "[lighting ()]"
5, 126720, Text_t, "[lighting (sweep)]"
5, 130560, Text_t, "[verse]"
5, 130560, Text_t, "sing_off"
5, 130560, Text_t, "drum_normal"
5, 136320, Text_t, "[lighting (color1)]"
5, 138240, Text_t, "[lighting ()]"
5, 144000, Text_t, "[lighting (color2)]"
5, 145920, Text_t, "[lighting ()]"
5, 145920, Text_t, "drum_normal"
5, 155520, Text_t, "drum_double"
5, 157440, Text_t, "drum_normal"
5, 174720, Text_t, "[lighting ()]"
5, 176640, Text_t, "[chorus]"
5, 176640, Text_t, "[lighting (sweep)]"
5, 176640, Text_t, "drum_normal"
5, 182400, Text_t, "[lighting ()]"
5, 184320, Text_t, "[lighting (color2)]"
5, 190080, Text_t, "[lighting ()]"
5, 192000, Text_t, "[lighting (color1)]"
5, 197760, Text_t, "[lighting ()]"
5, 199680, Text_t, "drum_normal"
5, 203520, Text_t, "wail_off"
5, 203520, Text_t, "drum_double"
5, 207360, Text_t, "sing_off"
5, 207360, Text_t, "[solo]"
5, 207360, Text_t, "solo_on"
5, 207360, Text_t, "drum_normal"
5, 216960, Text_t, "[lighting (color1)]"
5, 218880, Text_t, "[lighting ()]"
5, 236160, Text_t, "[lighting ()]"
5, 238080, Text_t, "sing_on"
5, 238080, Text_t, "solo_off"
5, 238080, Text_t, "drum_normal"
5, 243840, Text_t, "[lighting ()]"
5, 245760, Text_t, "[lighting (color2)]"
5, 251520, Text_t, "[lighting ()]"
5, 253440, Text_t, "[lighting (color1)]"
5, 259200, Text_t, "[lighting ()]"
5, 261120, Text_t, "drum_normal"
5, 264960, Text_t, "[lighting ()]"
5, 268800, Text_t, "[verse]"
5, 268800, Text_t, "sing_off"
5, 268800, Text_t, "drum_normal"
5, 272640, Text_t, "[lighting ()]"
5, 273600, Text_t, "[lighting (color1)]"
5, 275520, Text_t, "[lighting ()]"
5, 289920, Text_t, "[lighting (color2)]"
5, 290880, Text_t, "[lighting ()]"
5, 291840, Text_t, "drum_normal"
5, 296640, Text_t, "[lighting (blackout)]"
5, 296640, Text_t, "bass_off"
5, 297600, Text_t, "[lighting ()]"
5, 301440, Text_t, "drum_on"
5, 301440, Text_t, "bass_on"
5, 301440, Text_t, "gtr_on"
5, 302400, Text_t, "bass_off"
5, 302400, Text_t, "[lighting (flare)]"
5, 309120, Text_t, "sing_off"
5, 322560, Text_t, "[lighting (blackout)]"
5, 323040, Text_t, "[end]"
5, 323040, End_track
6, 0, Start_track
6, 0, Title_t, "BAND BASS"
6, 0, Text_t, "gtr_off"
6, 0, Text_t, "sing_off"
6, 0, Text_t, "[idle]"
6, 0, Text_t, "drum_off"
6, 7680, Text_t, "[chorus]"
6, 7680, Text_t, "gtr_on"
6, 15360, Text_t, "drum_on"
6, 15360, Text_t, "[play]"
6, 21120, Text_t, "drum_double"
6, 23040, Text_t, "drum_normal"
6, 28800, Text_t, "drum_double"
6, 30720, Text_t, "drum_normal"
6, 36480, Text_t, "drum_double"
6, 38400, Text_t, "sing_on"
6, 38400, Text_t, "[verse]"
6, 38400, Text_t, "drum_normal"
6, 48000, Text_t, "drum_double"
6, 49920, Text_t, "drum_normal"
6, 75840, Text_t, "drum_half"
6, 76800, Text_t, "drum_normal"
6, 78720, Text_t, "drum_double"
6, 80640, Text_t, "drum_normal"
6, 97920, Text_t, "drum_allbeat"
6, 99840, Text_t, "[chorus]"
6, 99840, Text_t, "[lighting (sweep)]"
6, 99840, Text_t, "drum_normal"
6, 105600, Text_t, "drum_allbeat"
6, 107520, Text_t, "drum_normal"
6, 113280, Text_t, "drum_allbeat"
6, 115200, Text_t, "drum_normal"
6, 120960, Text_t, "drum_allbeat"
6, 126720, Text_t, "wail_off"
6, 130560, Text_t, "[verse]"
6, 130560, Text_t, "sing_off"
6, 130560, Text_t, "drum_normal"
6, 136320, Text_t, "drum_double"
6, 138240, Text_t, "drum_normal"
6, 144000, Text_t, "drum_double"
6, 145920, Text_t, "sing_on"
6, 145920, Text_t, "drum_normal"
6, 155520, Text_t, "drum_double"
6, 157440, Text_t, "drum_normal"
6, 174720, Text_t, "drum_allbeat"
6, 176640, Text_t, "[chorus]"
6, 176640, Text_t, "[lighting (sweep)]"
6, 176640, Text_t, "drum_normal"
6, 182400, Text_t, "drum_allbeat"
6, 184320, Text_t, "drum_normal"
6, 190080, Text_t, "drum_allbeat"
6, 192000, Text_t, "drum_normal"
6, 197760, Text_t, "drum_allbeat"
6, 199680, Text_t, "drum_normal"
6, 203520, Text_t, "wail_off"
6, 203520, Text_t, "drum_double"
6, 207360, Text_t, "sing_off"
6, 207360, Text_t, "[solo]"
6, 207360, Text_t, "solo_on"
6, 207360, Text_t, "drum_normal"
6, 216960, Text_t, "drum_double"
6, 218880, Text_t, "drum_normal"
6, 236160, Text_t, "drum_allbeat"
6, 238080, Text_t, "sing_on"
6, 238080, Text_t, "solo_off"
6, 238080, Text_t, "drum_normal"
6, 243840, Text_t, "drum_allbeat"
6, 245760, Text_t, "drum_normal"
6, 251520, Text_t, "drum_allbeat"
6, 253440, Text_t, "drum_normal"
6, 259200, Text_t, "drum_allbeat"
6, 261120, Text_t, "drum_normal"
6, 264960, Text_t, "drum_allbeat"
6, 268800, Text_t, "[verse]"
6, 268800, Text_t, "sing_off"
6, 268800, Text_t, "drum_normal"
6, 272640, Text_t, "drum_double"
6, 273600, Text_t, "drum_half"
6, 275520, Text_t, "drum_normal"
6, 289920, Text_t, "drum_double"
6, 290880, Text_t, "drum_half"
6, 291840, Text_t, "drum_normal"
6, 296640, Text_t, "gtr_off"
6, 296640, Text_t, "drum_off"
6, 296640, Text_t, "[idle]"
6, 296640, Text_t, "[chorus]"
6, 297600, Text_t, "sing_on"
6, 301440, Text_t, "drum_on"
6, 301440, Text_t, "[play]"
6, 301440, Text_t, "gtr_on"
6, 302400, Text_t, "[idle]"
6, 302400, Text_t, "drum_off"
6, 309120, Text_t, "sing_off"
6, 322560, Text_t, "gtr_off"
6, 323040, Text_t, "[end]"
6, 323040, End_track
7, 0, Start_track
7, 0, Title_t, "BAND SINGER"
7, 0, Text_t, "gtr_off"
7, 0, Text_t, "[idle]"
7, 0, Text_t, "bass_off"
7, 0, Text_t, "drum_off"
7, 7680, Text_t, "[chorus]"
7, 7680, Text_t, "gtr_on"
7, 15360, Text_t, "drum_on"
7, 15360, Text_t, "bass_on"
7, 21120, Text_t, "drum_double"
7, 23040, Text_t, "drum_normal"
7, 28800, Text_t, "drum_double"
7, 30720, Text_t, "drum_normal"
7, 36480, Text_t, "drum_double"
7, 38400, Text_t, "[play]"
7, 38400, Text_t, "[verse]"
7, 38400, Text_t, "drum_normal"
7, 48000, Text_t, "drum_double"
7, 49920, Text_t, "drum_normal"
7, 75840, Text_t, "drum_half"
7, 76800, Text_t, "drum_normal"
7, 78720, Text_t, "drum_double"
7, 80640, Text_t, "drum_normal"
7, 97920, Text_t, "drum_allbeat"
7, 99840, Text_t, "[chorus]"
7, 99840, Text_t, "[lighting (sweep)]"
7, 99840, Text_t, "drum_normal"
7, 105600, Text_t, "drum_allbeat"
7, 107520, Text_t, "drum_normal"
7, 113280, Text_t, "drum_allbeat"
7, 115200, Text_t, "drum_normal"
7, 120960, Text_t, "drum_allbeat"
7, 126720, Text_t, "wail_off"
7, 130560, Text_t, "[verse]"
7, 130560, Text_t, "[idle]"
7, 130560, Text_t, "drum_normal"
7, 136320, Text_t, "drum_double"
7, 138240, Text_t, "drum_normal"
7, 144000, Text_t, "drum_double"
7, 145920, Text_t, "[play]"
7, 145920, Text_t, "drum_normal"
7, 155520, Text_t, "drum_double"
7, 157440, Text_t, "drum_normal"
7, 174720, Text_t, "drum_allbeat"
7, 176640, Text_t, "[chorus]"
7, 176640, Text_t, "[lighting (sweep)]"
7, 176640, Text_t, "drum_normal"
7, 182400, Text_t, "drum_allbeat"
7, 184320, Text_t, "drum_normal"
7, 190080, Text_t, "drum_allbeat"
7, 192000, Text_t, "drum_normal"
7, 197760, Text_t, "drum_allbeat"
7, 199680, Text_t, "drum_normal"
7, 203520, Text_t, "wail_off"
7, 203520, Text_t, "drum_double"
7, 207360, Text_t, "[idle]"
7, 207360, Text_t, "[solo]"
7, 207360, Text_t, "solo_on"
7, 207360, Text_t, "drum_normal"
7, 216960, Text_t, "drum_double"
7, 218880, Text_t, "drum_normal"
7, 236160, Text_t, "drum_allbeat"
7, 238080, Text_t, "[play]"
7, 238080, Text_t, "solo_off"
7, 238080, Text_t, "drum_normal"
7, 243840, Text_t, "drum_allbeat"
7, 245760, Text_t, "drum_normal"
7, 251520, Text_t, "drum_allbeat"
7, 253440, Text_t, "drum_normal"
7, 259200, Text_t, "drum_allbeat"
7, 261120, Text_t, "drum_normal"
7, 264960, Text_t, "drum_allbeat"
7, 268800, Text_t, "[verse]"
7, 268800, Text_t, "[idle]"
7, 268800, Text_t, "drum_normal"
7, 272640, Text_t, "drum_double"
7, 273600, Text_t, "drum_half"
7, 275520, Text_t, "drum_normal"
7, 289920, Text_t, "drum_double"
7, 290880, Text_t, "drum_half"
7, 291840, Text_t, "drum_normal"
7, 296640, Text_t, "gtr_off"
7, 296640, Text_t, "drum_off"
7, 296640, Text_t, "bass_off"
7, 296640, Text_t, "[chorus]"
7, 297600, Text_t, "[play]"
7, 301440, Text_t, "drum_on"
7, 301440, Text_t, "bass_on"
7, 301440, Text_t, "gtr_on"
7, 302400, Text_t, "bass_off"
7, 302400, Text_t, "drum_off"
7, 309120, Text_t, "[idle]"
7, 322560, Text_t, "gtr_off"
7, 323040, Text_t, "[end]"
7, 323040, End_track
8, 0, Start_track
8, 0, Title_t, "BAND DRUMS"
8, 0, Text_t, "gtr_off"
8, 0, Text_t, "sing_off"
8, 0, Text_t, "bass_off"
8, 0, Text_t, "[idle]"
8, 7680, Text_t, "[chorus]"
8, 7680, Text_t, "gtr_on"
8, 15360, Text_t, "[play]"
8, 15360, Text_t, "bass_on"
8, 21120, Text_t, "[double_time]"
8, 23040, Text_t, "[nobeat]"
8, 28800, Text_t, "[double_time]"
8, 30720, Text_t, "[nobeat]"
8, 36480, Text_t, "[double_time]"
8, 38400, Text_t, "sing_on"
8, 38400, Text_t, "[verse]"
8, 38400, Text_t, "[nobeat]"
8, 48000, Text_t, "[double_time]"
8, 49920, Text_t, "[nobeat]"
8, 75840, Text_t, "[half_time]"
8, 76800, Text_t, "[nobeat]"
8, 78720, Text_t, "[double_time]"
8, 80640, Text_t, "[nobeat]"
8, 97920, Text_t, "[allbeat]"
8, 99840, Text_t, "[chorus]"
8, 99840, Text_t, "[lighting (sweep)]"
8, 99840, Text_t, "[nobeat]"
8, 105600, Text_t, "[allbeat]"
8, 107520, Text_t, "[nobeat]"
8, 113280, Text_t, "[allbeat]"
8, 115200, Text_t, "[nobeat]"
8, 120960, Text_t, "[allbeat]"
8, 126720, Text_t, "wail_off"
8, 130560, Text_t, "[verse]"
8, 130560, Text_t, "sing_off"
8, 130560, Text_t, "[nobeat]"
8, 136320, Text_t, "[double_time]"
8, 138240, Text_t, "[nobeat]"
8, 144000, Text_t, "[double_time]"
8, 145920, Text_t, "sing_on"
8, 145920, Text_t, "[nobeat]"
8, 155520, Text_t, "[double_time]"
8, 157440, Text_t, "[nobeat]"
8, 174720, Text_t, "[allbeat]"
8, 176640, Text_t, "[chorus]"
8, 176640, Text_t, "[lighting (sweep)]"
8, 176640, Text_t, "[nobeat]"
8, 182400, Text_t, "[allbeat]"
8, 184320, Text_t, "[nobeat]"
8, 190080, Text_t, "[allbeat]"
8, 192000, Text_t, "[nobeat]"
8, 197760, Text_t, "[allbeat]"
8, 199680, Text_t, "[nobeat]"
8, 203520, Text_t, "wail_off"
8, 203520, Text_t, "[double_time]"
8, 207360, Text_t, "sing_off"
8, 207360, Text_t, "[solo]"
8, 207360, Text_t, "solo_on"
8, 207360, Text_t, "[nobeat]"
8, 216960, Text_t, "[double_time]"
8, 218880, Text_t, "[nobeat]"
8, 236160, Text_t, "[allbeat]"
8, 238080, Text_t, "sing_on"
8, 238080, Text_t, "solo_off"
8, 238080, Text_t, "[nobeat]"
8, 243840, Text_t, "[allbeat]"
8, 245760, Text_t, "[nobeat]"
8, 251520, Text_t, "[allbeat]"
8, 253440, Text_t, "[nobeat]"
8, 259200, Text_t, "[allbeat]"
8, 261120, Text_t, "[nobeat]"
8, 264960, Text_t, "[allbeat]"
8, 268800, Text_t, "[verse]"
8, 268800, Text_t, "sing_off"
8, 268800, Text_t, "[nobeat]"
8, 272640, Text_t, "[double_time]"
8, 273600, Text_t, "[half_time]"
8, 275520, Text_t, "[nobeat]"
8, 289920, Text_t, "[double_time]"
8, 290880, Text_t, "[half_time]"
8, 291840, Text_t, "[nobeat]"
8, 296640, Text_t, "gtr_off"
8, 296640, Text_t, "[idle]"
8, 296640, Text_t, "bass_off"
8, 296640, Text_t, "[chorus]"
8, 297600, Text_t, "sing_on"
8, 301440, Text_t, "[play]"
8, 301440, Text_t, "bass_on"
8, 301440, Text_t, "gtr_on"
8, 302400, Text_t, "bass_off"
8, 302400, Text_t, "[idle]"
8, 309120, Text_t, "sing_off"
8, 322560, Text_t, "gtr_off"
8, 323040, Text_t, "[end]"
8, 323040, End_track
0, 0, End_of_file
